<svg xmlns="http://www.w3.org/2000/svg" viewBox="0 0 600.000 1000">
  <path d="M 398.331 796.084 L 398.982 796.976 L 399.655 797.852 L 400.349 798.711 L 401.064 799.553 L 401.800 800.377 L 402.555 801.182 L 403.330 801.969 L 404.124 802.737 L 404.937 803.484 L 405.768 804.212 L 406.616 804.919 L 407.482 805.605 L 408.364 806.270 L 409.262 806.913 L 410.176 807.533 L 411.104 808.131 L 412.047 808.706 L 413.004 809.258 L 413.974 809.786 L 414.957 810.290 L 415.951 810.770 L 416.958 811.225 L 417.975 811.655 L 419.002 812.060 L 420.039 812.440 L 421.085 812.795 L 422.140 813.123 L 423.202 813.426 L 424.271 813.702 L 425.347 813.952 L 426.429 814.176 L 427.515 814.373 L 428.606 814.543 L 429.702 814.687 L 430.800 814.804 L 431.901 814.893 L 433.003 814.956 L 434.107 814.991 L 435.212 815.000 L 436.316 814.981 L 437.419 814.935 L 438.521 814.862 L 439.621 814.762 L 440.718 814.635 L 441.812 814.481 L 442.902 814.301 L 443.986 814.094 L 445.066 813.860 L 446.139 813.600 L 447.206 813.313 L 448.265 813.000 L 449.316 812.662 L 450.359 812.298 L 451.392 811.908 L 452.416 811.493 L 453.429 811.053 L 454.431 810.589 L 455.421 810.100 L 456.399 809.586 L 457.364 809.049 L 458.316 808.489 L 459.253 807.905 L 460.176 807.298 L 461.084 806.669 L 461.976 806.018 L 462.852 805.345 L 463.711 804.651 L 464.553 803.936 L 465.377 803.200 L 466.182 802.445 L 466.969 801.670 L 467.737 800.876 L 468.484 800.063 L 469.212 799.232 L 469.919 798.384 L 470.605 797.518 L 471.270 796.636 L 471.913 795.738 L 472.533 794.824 L 473.131 793.896 L 473.706 792.953 L 474.258 791.996 L 474.786 791.026 L 475.290 790.043 L 475.770 789.049 L 476.225 788.042 L 476.655 787.025 L 477.060 785.998 L 477.440 784.961 L 477.795 783.915 L 478.123 782.860 L 478.426 781.798 L 478.702 780.729 L 478.952 779.653 L 479.176 778.571 L 479.373 777.485 L 479.543 776.394 L 479.687 775.298 L 479.804 774.200 L 479.893 773.099 L 479.956 771.997 L 479.991 770.893 L 480.000 769.788 L 479.981 768.684 L 479.935 767.581 L 479.862 766.479 L 479.762 765.379 L 479.635 764.282 L 479.481 763.188 L 479.301 762.098 L 479.094 761.014 L 478.860 759.934 L 478.600 758.861 L 478.313 757.794 L 478.000 756.735 L 477.662 755.684 L 477.298 754.641 L 476.908 753.608 L 476.493 752.584 L 476.053 751.571 L 475.589 750.569 L 475.100 749.579 L 474.586 748.601 L 474.049 747.636 L 473.489 746.684 L 472.905 745.747 L 472.298 744.824 L 354.292 570.000 L 472.298 395.176 L 472.905 394.253 L 473.489 393.316 L 474.049 392.364 L 474.586 391.399 L 475.100 390.421 L 475.589 389.431 L 476.053 388.429 L 476.493 387.416 L 476.908 386.392 L 477.298 385.359 L 477.662 384.316 L 478.000 383.265 L 478.313 382.206 L 478.600 381.139 L 478.860 380.066 L 479.094 378.986 L 479.301 377.902 L 479.481 376.812 L 479.635 375.718 L 479.762 374.621 L 479.862 373.521 L 479.935 372.419 L 479.981 371.316 L 480.000 370.212 L 479.991 369.107 L 479.956 368.003 L 479.893 366.901 L 479.804 365.800 L 479.687 364.702 L 479.543 363.606 L 479.373 362.515 L 479.176 361.429 L 478.952 360.347 L 478.702 359.271 L 478.426 358.202 L 478.123 357.140 L 477.795 356.085 L 477.440 355.039 L 477.060 354.002 L 476.655 352.975 L 476.225 351.958 L 475.770 350.951 L 475.290 349.957 L 474.786 348.974 L 474.258 348.004 L 473.706 347.047 L 473.131 346.104 L 472.533 345.176 L 471.913 344.262 L 471.270 343.364 L 470.605 342.482 L 469.919 341.616 L 469.212 340.768 L 468.484 339.937 L 467.737 339.124 L 466.969 338.330 L 466.182 337.555 L 465.377 336.800 L 464.553 336.064 L 463.711 335.349 L 462.852 334.655 L 461.976 333.982 L 461.084 333.331 L 460.176 332.702 L 459.253 332.095 L 458.316 331.511 L 457.364 330.951 L 456.399 330.414 L 455.421 329.900 L 454.431 329.411 L 453.429 328.947 L 452.416 328.507 L 451.392 328.092 L 450.359 327.702 L 449.316 327.338 L 448.265 327.000 L 447.206 326.687 L 446.139 326.400 L 445.066 326.140 L 443.986 325.906 L 442.902 325.699 L 441.812 325.519 L 440.718 325.365 L 439.621 325.238 L 438.521 325.138 L 437.419 325.065 L 436.316 325.019 L 435.212 325.000 L 434.107 325.009 L 433.003 325.044 L 431.901 325.107 L 430.800 325.196 L 429.702 325.313 L 428.606 325.457 L 427.515 325.627 L 426.429 325.824 L 425.347 326.048 L 424.271 326.298 L 423.202 326.574 L 422.140 326.877 L 421.085 327.205 L 420.039 327.560 L 419.002 327.940 L 417.975 328.345 L 416.958 328.775 L 415.951 329.230 L 414.957 329.710 L 413.974 330.214 L 413.004 330.742 L 412.047 331.294 L 411.104 331.869 L 410.176 332.467 L 409.262 333.087 L 408.364 333.730 L 407.482 334.395 L 406.616 335.081 L 405.768 335.788 L 404.937 336.516 L 404.124 337.263 L 403.330 338.031 L 402.555 338.818 L 401.800 339.623 L 401.064 340.447 L 400.349 341.289 L 399.655 342.148 L 398.982 343.024 L 398.331 343.916 L 397.702 344.824 L 300.000 489.567 L 202.298 344.824 L 201.669 343.916 L 201.018 343.024 L 200.345 342.148 L 199.651 341.289 L 198.936 340.447 L 198.200 339.623 L 197.445 338.818 L 196.670 338.031 L 195.876 337.263 L 195.063 336.516 L 194.232 335.788 L 193.384 335.081 L 192.518 334.395 L 191.636 333.730 L 190.738 333.087 L 189.824 332.467 L 188.896 331.869 L 187.953 331.294 L 186.996 330.742 L 186.026 330.214 L 185.043 329.710 L 184.049 329.230 L 183.042 328.775 L 182.025 328.345 L 180.998 327.940 L 179.961 327.560 L 178.915 327.205 L 177.860 326.877 L 176.798 326.574 L 175.729 326.298 L 174.653 326.048 L 173.571 325.824 L 172.485 325.627 L 171.394 325.457 L 170.298 325.313 L 169.200 325.196 L 168.099 325.107 L 166.997 325.044 L 165.893 325.009 L 164.788 325.000 L 163.684 325.019 L 162.581 325.065 L 161.479 325.138 L 160.379 325.238 L 159.282 325.365 L 158.188 325.519 L 157.098 325.699 L 156.014 325.906 L 154.934 326.140 L 153.861 326.400 L 152.794 326.687 L 151.735 327.000 L 150.684 327.338 L 149.641 327.702 L 148.608 328.092 L 147.584 328.507 L 146.571 328.947 L 145.569 329.411 L 144.579 329.900 L 143.601 330.414 L 142.636 330.951 L 141.684 331.511 L 140.747 332.095 L 139.824 332.702 L 138.916 333.331 L 138.024 333.982 L 137.148 334.655 L 136.289 335.349 L 135.447 336.064 L 134.623 336.800 L 133.818 337.555 L 133.031 338.330 L 132.263 339.124 L 131.516 339.937 L 130.788 340.768 L 130.081 341.616 L 129.395 342.482 L 128.730 343.364 L 128.087 344.262 L 127.467 345.176 L 126.869 346.104 L 126.294 347.047 L 125.742 348.004 L 125.214 348.974 L 124.710 349.957 L 124.230 350.951 L 123.775 351.958 L 123.345 352.975 L 122.940 354.002 L 122.560 355.039 L 122.205 356.085 L 121.877 357.140 L 121.574 358.202 L 121.298 359.271 L 121.048 360.347 L 120.824 361.429 L 120.627 362.515 L 120.457 363.606 L 120.313 364.702 L 120.196 365.800 L 120.107 366.901 L 120.044 368.003 L 120.009 369.107 L 120.000 370.212 L 120.019 371.316 L 120.065 372.419 L 120.138 373.521 L 120.238 374.621 L 120.365 375.718 L 120.519 376.812 L 120.699 377.902 L 120.906 378.986 L 121.140 380.066 L 121.400 381.139 L 121.687 382.206 L 122.000 383.265 L 122.338 384.316 L 122.702 385.359 L 123.092 386.392 L 123.507 387.416 L 123.947 388.429 L 124.411 389.431 L 124.900 390.421 L 125.414 391.399 L 125.951 392.364 L 126.511 393.316 L 127.095 394.253 L 127.702 395.176 L 245.708 570.000 L 127.702 744.824 L 127.095 745.747 L 126.511 746.684 L 125.951 747.636 L 125.414 748.601 L 124.900 749.579 L 124.411 750.569 L 123.947 751.571 L 123.507 752.584 L 123.092 753.608 L 122.702 754.641 L 122.338 755.684 L 122.000 756.735 L 121.687 757.794 L 121.400 758.861 L 121.140 759.934 L 120.906 761.014 L 120.699 762.098 L 120.519 763.188 L 120.365 764.282 L 120.238 765.379 L 120.138 766.479 L 120.065 767.581 L 120.019 768.684 L 120.000 769.788 L 120.009 770.893 L 120.044 771.997 L 120.107 773.099 L 120.196 774.200 L 120.313 775.298 L 120.457 776.394 L 120.627 777.485 L 120.824 778.571 L 121.048 779.653 L 121.298 780.729 L 121.574 781.798 L 121.877 782.860 L 122.205 783.915 L 122.560 784.961 L 122.940 785.998 L 123.345 787.025 L 123.775 788.042 L 124.230 789.049 L 124.710 790.043 L 125.214 791.026 L 125.742 791.996 L 126.294 792.953 L 126.869 793.896 L 127.467 794.824 L 128.087 795.738 L 128.730 796.636 L 129.395 797.518 L 130.081 798.384 L 130.788 799.232 L 131.516 800.063 L 132.263 800.876 L 133.031 801.670 L 133.818 802.445 L 134.623 803.200 L 135.447 803.936 L 136.289 804.651 L 137.148 805.345 L 138.024 806.018 L 138.916 806.669 L 139.824 807.298 L 140.747 807.905 L 141.684 808.489 L 142.636 809.049 L 143.601 809.586 L 144.579 810.100 L 145.569 810.589 L 146.571 811.053 L 147.584 811.493 L 148.608 811.908 L 149.641 812.298 L 150.684 812.662 L 151.735 813.000 L 152.794 813.313 L 153.861 813.600 L 154.934 813.860 L 156.014 814.094 L 157.098 814.301 L 158.188 814.481 L 159.282 814.635 L 160.379 814.762 L 161.479 814.862 L 162.581 814.935 L 163.684 814.981 L 164.788 815.000 L 165.893 814.991 L 166.997 814.956 L 168.099 814.893 L 169.200 814.804 L 170.298 814.687 L 171.394 814.543 L 172.485 814.373 L 173.571 814.176 L 174.653 813.952 L 175.729 813.702 L 176.798 813.426 L 177.860 813.123 L 178.915 812.795 L 179.961 812.440 L 180.998 812.060 L 182.025 811.655 L 183.042 811.225 L 184.049 810.770 L 185.043 810.290 L 186.026 809.786 L 186.996 809.258 L 187.953 808.706 L 188.896 808.131 L 189.824 807.533 L 190.738 806.913 L 191.636 806.270 L 192.518 805.605 L 193.384 804.919 L 194.232 804.212 L 195.063 803.484 L 195.876 802.737 L 196.670 801.969 L 197.445 801.182 L 198.200 800.377 L 198.936 799.553 L 199.651 798.711 L 200.345 797.852 L 201.018 796.976 L 201.669 796.084 L 202.298 795.176 L 300.000 650.433 L 397.702 795.176 L 398.331 796.084 Z" fill="black" fill-rule="evenodd"/>
</svg>
