<svg xmlns="http://www.w3.org/2000/svg" viewBox="0 0 700.000 1000">
  <path d="M 476.132 563.058 L 476.092 564.657 L 476.035 566.256 L 475.963 567.854 L 475.874 569.451 L 475.769 571.047 L 475.649 572.641 L 475.512 574.234 L 475.359 575.825 L 475.190 577.415 L 475.005 579.002 L 474.804 580.587 L 474.587 582.169 L 474.355 583.749 L 474.106 585.325 L 473.841 586.899 L 473.561 588.470 L 473.265 590.037 L 472.953 591.600 L 472.626 593.159 L 472.283 594.715 L 471.924 596.266 L 471.550 597.813 L 471.160 599.356 L 470.755 600.893 L 470.335 602.426 L 469.899 603.953 L 469.448 605.476 L 468.982 606.992 L 468.500 608.503 L 468.004 610.009 L 467.492 611.508 L 466.966 613.001 L 466.424 614.488 L 465.868 615.968 L 465.297 617.441 L 464.712 618.908 L 464.112 620.367 L 463.497 621.819 L 462.868 623.264 L 462.225 624.701 L 461.568 626.131 L 460.896 627.553 L 460.211 628.966 L 459.511 630.372 L 458.798 631.769 L 458.070 633.157 L 457.330 634.537 L 456.575 635.908 L 455.807 637.270 L 455.026 638.623 L 454.231 639.966 L 453.424 641.300 L 452.603 642.624 L 451.769 643.939 L 450.922 645.244 L 450.063 646.538 L 449.191 647.823 L 448.307 649.097 L 447.410 650.361 L 446.501 651.614 L 445.579 652.856 L 444.646 654.087 L 443.701 655.308 L 442.744 656.517 L 441.775 657.715 L 440.795 658.902 L 439.803 660.077 L 438.800 661.240 L 437.786 662.392 L 436.760 663.532 L 435.724 664.659 L 434.677 665.775 L 433.619 666.878 L 432.551 667.969 L 431.473 669.048 L 430.384 670.114 L 429.285 671.167 L 428.175 672.208 L 427.057 673.235 L 425.928 674.250 L 424.789 675.251 L 423.642 676.240 L 422.485 677.215 L 421.318 678.176 L 420.143 679.124 L 418.959 680.059 L 417.766 680.980 L 416.564 681.887 L 415.354 682.780 L 414.135 683.659 L 412.908 684.525 L 411.674 685.376 L 410.431 686.213 L 409.180 687.036 L 407.922 687.844 L 406.657 688.638 L 405.384 689.418 L 404.103 690.183 L 402.816 690.933 L 401.522 691.669 L 400.221 692.390 L 398.914 693.096 L 397.599 693.787 L 396.279 694.463 L 394.953 695.124 L 393.620 695.771 L 392.281 696.402 L 390.937 697.018 L 389.587 697.618 L 388.232 698.204 L 386.871 698.774 L 385.505 699.329 L 384.135 699.868 L 382.759 700.392 L 381.378 700.900 L 379.993 701.393 L 378.604 701.871 L 377.210 702.332 L 375.812 702.778 L 374.410 703.208 L 373.005 703.623 L 371.595 704.022 L 370.182 704.405 L 368.766 704.772 L 367.346 705.123 L 365.923 705.458 L 364.498 705.778 L 363.069 706.081 L 361.638 706.369 L 360.204 706.640 L 358.768 706.896 L 357.330 707.135 L 355.889 707.359 L 354.447 707.566 L 353.003 707.757 L 351.557 707.932 L 350.109 708.091 L 348.661 708.234 L 347.211 708.361 L 345.760 708.472 L 344.308 708.566 L 342.855 708.645 L 341.402 708.707 L 339.948 708.753 L 338.494 708.783 L 337.039 708.796 L 335.585 708.794 L 334.130 708.775 L 332.676 708.740 L 331.223 708.689 L 329.769 708.622 L 328.317 708.539 L 326.865 708.439 L 325.414 708.324 L 323.965 708.192 L 322.517 708.044 L 321.070 707.880 L 319.624 707.700 L 318.181 707.503 L 316.739 707.291 L 315.299 707.062 L 313.861 706.818 L 312.426 706.558 L 310.993 706.281 L 309.562 705.989 L 308.135 705.680 L 306.710 705.356 L 305.288 705.016 L 303.869 704.659 L 302.454 704.287 L 301.042 703.900 L 299.634 703.496 L 298.229 703.077 L 296.829 702.641 L 295.432 702.191 L 294.040 701.724 L 292.652 701.242 L 291.268 700.744 L 289.889 700.231 L 288.515 699.702 L 287.145 699.158 L 285.781 698.599 L 284.422 698.024 L 283.068 697.434 L 281.720 696.828 L 280.378 696.208 L 279.041 695.572 L 277.710 694.921 L 276.386 694.255 L 275.067 693.574 L 273.755 692.878 L 272.450 692.167 L 271.151 691.442 L 269.859 690.702 L 268.574 689.947 L 267.296 689.177 L 266.025 688.393 L 264.762 687.595 L 263.506 686.782 L 262.258 685.955 L 261.017 685.113 L 259.785 684.258 L 258.561 683.388 L 257.345 682.504 L 256.137 681.607 L 254.938 680.695 L 253.748 679.770 L 252.567 678.832 L 251.394 677.879 L 250.231 676.914 L 249.076 675.934 L 247.931 674.942 L 246.796 673.936 L 245.670 672.918 L 244.554 671.886 L 243.448 670.842 L 242.353 669.785 L 241.267 668.715 L 240.191 667.632 L 239.126 666.537 L 238.072 665.430 L 237.028 664.311 L 235.995 663.179 L 234.973 662.036 L 233.963 660.880 L 232.963 659.713 L 231.975 658.535 L 230.998 657.345 L 230.033 656.143 L 229.080 654.930 L 228.138 653.706 L 227.208 652.472 L 226.291 651.226 L 225.386 649.970 L 224.493 648.703 L 223.612 647.425 L 222.613 645.944 L 221.985 645.035 L 221.334 644.143 L 220.662 643.267 L 219.968 642.407 L 219.254 641.565 L 218.519 640.741 L 217.764 639.935 L 216.989 639.147 L 216.195 638.379 L 215.383 637.631 L 214.553 636.903 L 213.705 636.195 L 212.840 635.509 L 211.958 634.843 L 211.060 634.200 L 210.147 633.579 L 209.219 632.981 L 208.276 632.405 L 207.320 631.853 L 206.350 631.324 L 205.367 630.820 L 204.373 630.339 L 203.367 629.884 L 202.350 629.453 L 201.323 629.047 L 200.286 628.666 L 199.240 628.311 L 198.186 627.982 L 197.124 627.679 L 196.055 627.402 L 194.979 627.151 L 193.898 626.926 L 192.811 626.729 L 191.720 626.558 L 190.625 626.414 L 189.527 626.296 L 188.426 626.206 L 187.324 626.143 L 186.220 626.107 L 185.115 626.098 L 184.011 626.116 L 182.908 626.161 L 181.806 626.233 L 180.706 626.333 L 179.608 626.459 L 178.515 626.612 L 177.425 626.792 L 176.340 626.998 L 175.260 627.232 L 174.187 627.491 L 173.120 627.777 L 172.061 628.089 L 171.009 628.427 L 169.966 628.790 L 168.933 629.179 L 167.909 629.594 L 166.896 630.033 L 165.893 630.497 L 164.903 630.986 L 163.925 631.498 L 162.959 632.035 L 162.007 632.595 L 161.069 633.178 L 160.146 633.784 L 159.238 634.413 L 158.345 635.063 L 157.469 635.736 L 156.610 636.429 L 155.768 637.144 L 154.943 637.879 L 154.137 638.634 L 153.350 639.408 L 152.582 640.202 L 151.833 641.014 L 151.105 641.844 L 150.398 642.692 L 149.711 643.558 L 149.046 644.439 L 148.403 645.337 L 147.782 646.250 L 147.183 647.178 L 146.608 648.121 L 146.055 649.078 L 145.527 650.047 L 145.022 651.030 L 144.542 652.024 L 144.086 653.030 L 143.655 654.047 L 143.249 655.074 L 142.869 656.111 L 142.514 657.157 L 142.184 658.211 L 141.881 659.273 L 141.604 660.342 L 141.353 661.418 L 141.129 662.499 L 140.931 663.586 L 140.760 664.677 L 140.616 665.772 L 140.499 666.870 L 140.409 667.971 L 140.345 669.074 L 140.309 670.177 L 140.300 671.282 L 140.318 672.386 L 140.363 673.490 L 140.436 674.592 L 140.535 675.692 L 140.661 676.789 L 140.814 677.883 L 140.994 678.972 L 141.201 680.057 L 141.434 681.137 L 141.694 682.210 L 141.979 683.277 L 142.291 684.337 L 142.629 685.388 L 142.993 686.431 L 143.382 687.465 L 143.796 688.488 L 144.235 689.502 L 144.700 690.504 L 145.188 691.494 L 145.701 692.473 L 146.237 693.438 L 146.797 694.390 L 147.380 695.328 L 147.986 696.251 L 149.116 697.927 L 149.380 698.314 L 150.527 699.977 L 150.795 700.362 L 151.958 702.013 L 152.231 702.395 L 153.411 704.032 L 153.687 704.412 L 154.884 706.036 L 155.165 706.414 L 156.377 708.024 L 156.662 708.399 L 157.891 709.996 L 158.180 710.368 L 159.425 711.952 L 159.719 712.321 L 160.980 713.891 L 161.277 714.257 L 162.554 715.813 L 162.856 716.176 L 164.148 717.718 L 164.454 718.079 L 165.761 719.605 L 166.071 719.963 L 167.394 721.475 L 167.708 721.831 L 169.046 723.328 L 169.364 723.680 L 170.717 725.162 L 171.040 725.512 L 172.408 726.979 L 172.734 727.325 L 174.116 728.777 L 174.447 729.120 L 175.844 730.556 L 176.178 730.896 L 177.590 732.317 L 177.928 732.654 L 179.353 734.059 L 179.695 734.392 L 181.135 735.781 L 181.481 736.111 L 182.935 737.484 L 183.285 737.811 L 184.752 739.168 L 185.106 739.491 L 186.587 740.831 L 186.945 741.151 L 188.439 742.475 L 188.800 742.792 L 190.308 744.099 L 190.673 744.412 L 192.194 745.702 L 192.563 746.011 L 194.096 747.284 L 194.469 747.590 L 196.015 748.846 L 196.391 749.148 L 197.950 750.387 L 198.330 750.685 L 199.901 751.906 L 200.285 752.201 L 201.868 753.405 L 202.255 753.695 L 203.851 754.881 L 204.241 755.168 L 205.849 756.336 L 206.242 756.619 L 207.862 757.769 L 208.258 758.048 L 209.889 759.181 L 210.290 759.455 L 211.932 760.569 L 212.336 760.840 L 213.989 761.936 L 214.396 762.202 L 216.060 763.280 L 216.470 763.542 L 218.146 764.601 L 218.559 764.859 L 220.245 765.899 L 220.661 766.153 L 222.357 767.174 L 222.777 767.424 L 224.483 768.426 L 224.906 768.671 L 226.622 769.655 L 227.048 769.896 L 228.774 770.860 L 229.203 771.096 L 230.938 772.041 L 231.370 772.273 L 233.115 773.199 L 233.550 773.426 L 235.304 774.332 L 235.742 774.555 L 237.505 775.442 L 237.945 775.660 L 239.717 776.527 L 240.160 776.740 L 241.941 777.587 L 242.387 777.796 L 244.176 778.624 L 244.624 778.828 L 246.422 779.635 L 246.872 779.835 L 248.678 780.622 L 249.131 780.816 L 250.945 781.584 L 251.400 781.773 L 253.221 782.520 L 253.679 782.705 L 255.508 783.432 L 255.968 783.612 L 257.804 784.318 L 258.267 784.493 L 260.109 785.179 L 260.574 785.349 L 262.424 786.014 L 262.891 786.179 L 264.747 786.824 L 265.216 786.984 L 267.079 787.608 L 267.550 787.763 L 269.418 788.366 L 269.891 788.516 L 271.766 789.098 L 272.241 789.243 L 274.122 789.805 L 274.599 789.944 L 276.485 790.485 L 276.963 790.619 L 278.855 791.139 L 279.335 791.268 L 281.231 791.766 L 281.713 791.890 L 283.615 792.367 L 284.098 792.486 L 286.004 792.942 L 286.489 793.055 L 288.400 793.490 L 288.887 793.598 L 290.802 794.012 L 291.289 794.114 L 293.208 794.507 L 293.698 794.604 L 295.620 794.975 L 296.111 795.067 L 298.037 795.416 L 298.529 795.503 L 300.459 795.831 L 300.951 795.912 L 302.884 796.219 L 303.378 796.294 L 305.314 796.579 L 305.809 796.649 L 307.748 796.913 L 308.243 796.977 L 310.185 797.219 L 310.681 797.278 L 312.625 797.499 L 313.122 797.552 L 315.067 797.751 L 315.565 797.799 L 317.513 797.976 L 318.011 798.019 L 319.961 798.174 L 320.460 798.211 L 322.410 798.345 L 322.910 798.377 L 324.862 798.489 L 325.362 798.514 L 327.315 798.605 L 327.815 798.625 L 329.769 798.694 L 330.269 798.709 L 332.223 798.755 L 332.724 798.765 L 334.679 798.790 L 335.179 798.793 L 337.134 798.797 L 337.635 798.795 L 339.589 798.776 L 340.090 798.769 L 342.045 798.729 L 342.545 798.716 L 344.499 798.654 L 344.999 798.635 L 346.952 798.552 L 347.452 798.528 L 349.405 798.422 L 349.904 798.393 L 351.855 798.266 L 352.354 798.230 L 354.304 798.082 L 354.803 798.041 L 356.751 797.870 L 357.249 797.824 L 359.195 797.632 L 359.693 797.580 L 361.637 797.366 L 362.134 797.309 L 364.076 797.074 L 364.572 797.011 L 366.511 796.754 L 367.006 796.686 L 368.943 796.407 L 369.437 796.333 L 371.371 796.033 L 371.864 795.954 L 373.795 795.633 L 374.287 795.548 L 376.215 795.205 L 376.705 795.115 L 378.629 794.750 L 379.119 794.655 L 381.039 794.269 L 381.527 794.168 L 383.443 793.761 L 383.930 793.655 L 385.842 793.227 L 386.328 793.115 L 388.235 792.665 L 388.719 792.548 L 390.622 792.078 L 391.105 791.956 L 393.003 791.464 L 393.484 791.336 L 395.377 790.823 L 395.856 790.690 L 397.744 790.156 L 398.221 790.018 L 400.103 789.463 L 400.579 789.320 L 402.455 788.744 L 402.929 788.596 L 404.800 787.999 L 405.271 787.846 L 407.136 787.229 L 407.606 787.070 L 409.464 786.432 L 409.931 786.268 L 411.783 785.609 L 412.249 785.441 L 414.093 784.762 L 414.557 784.588 L 416.395 783.888 L 416.856 783.710 L 418.687 782.989 L 419.145 782.806 L 420.969 782.065 L 421.425 781.877 L 423.241 781.116 L 423.695 780.923 L 425.503 780.142 L 425.954 779.944 L 427.755 779.143 L 428.203 778.940 L 429.995 778.119 L 430.442 777.912 L 432.225 777.071 L 432.669 776.858 L 434.444 775.998 L 434.885 775.781 L 436.651 774.900 L 437.089 774.679 L 438.846 773.779 L 439.282 773.553 L 441.030 772.633 L 441.462 772.403 L 443.201 771.464 L 443.631 771.229 L 445.360 770.271 L 445.787 770.031 L 447.506 769.054 L 447.930 768.810 L 449.639 767.814 L 450.060 767.565 L 451.759 766.550 L 452.176 766.297 L 453.865 765.263 L 454.280 765.006 L 455.958 763.953 L 456.369 763.692 L 458.037 762.621 L 458.445 762.355 L 460.102 761.265 L 460.506 760.996 L 462.152 759.887 L 462.553 759.614 L 464.188 758.487 L 464.586 758.210 L 466.209 757.065 L 466.604 756.783 L 468.215 755.621 L 468.606 755.335 L 470.206 754.155 L 470.593 753.865 L 472.181 752.667 L 472.565 752.374 L 474.140 751.158 L 474.521 750.861 L 476.084 749.627 L 476.461 749.326 L 478.012 748.076 L 478.385 747.771 L 479.923 746.503 L 480.293 746.195 L 481.818 744.910 L 482.184 744.598 L 483.696 743.297 L 484.058 742.981 L 485.557 741.663 L 485.915 741.344 L 487.400 740.009 L 487.755 739.686 L 489.227 738.335 L 489.578 738.009 L 491.036 736.641 L 491.383 736.312 L 492.827 734.928 L 493.171 734.595 L 494.601 733.195 L 494.940 732.860 L 496.356 731.444 L 496.692 731.105 L 498.093 729.673 L 498.425 729.331 L 499.812 727.884 L 500.139 727.539 L 501.512 726.076 L 501.835 725.728 L 503.193 724.251 L 503.512 723.899 L 504.855 722.407 L 505.171 722.052 L 506.498 720.545 L 506.809 720.188 L 508.122 718.665 L 508.429 718.305 L 509.726 716.769 L 510.029 716.406 L 511.310 714.855 L 511.609 714.489 L 512.875 712.924 L 513.170 712.555 L 514.419 710.976 L 514.710 710.605 L 515.944 709.012 L 516.230 708.638 L 517.448 707.031 L 517.730 706.655 L 518.932 705.035 L 519.210 704.656 L 520.395 703.023 L 520.668 702.641 L 521.837 700.995 L 522.106 700.611 L 523.258 698.951 L 523.523 698.565 L 524.658 696.893 L 524.919 696.504 L 526.038 694.820 L 526.294 694.429 L 527.395 692.732 L 527.648 692.338 L 528.731 690.629 L 528.979 690.234 L 530.046 688.513 L 530.290 688.115 L 531.339 686.382 L 531.578 685.982 L 532.610 684.238 L 532.845 683.836 L 533.859 682.080 L 534.089 681.676 L 535.086 679.910 L 535.312 679.504 L 536.290 677.726 L 536.512 677.318 L 537.472 675.529 L 537.690 675.119 L 538.632 673.320 L 538.845 672.908 L 539.769 671.099 L 539.978 670.685 L 540.884 668.865 L 541.088 668.450 L 541.975 666.620 L 542.175 666.203 L 543.044 664.364 L 543.239 663.945 L 544.089 662.096 L 544.280 661.675 L 545.112 659.817 L 545.298 659.395 L 546.111 657.527 L 546.293 657.104 L 547.087 655.227 L 547.264 654.802 L 548.039 652.917 L 548.212 652.490 L 548.968 650.596 L 549.136 650.168 L 549.873 648.266 L 550.037 647.837 L 550.755 645.927 L 550.914 645.496 L 551.613 643.578 L 551.767 643.146 L 552.446 641.220 L 552.597 640.787 L 553.256 638.854 L 553.402 638.419 L 554.042 636.479 L 554.183 636.043 L 554.804 634.095 L 554.941 633.659 L 555.541 631.704 L 555.674 631.266 L 556.255 629.306 L 556.382 628.866 L 556.944 626.899 L 557.067 626.459 L 557.608 624.486 L 557.727 624.045 L 558.248 622.066 L 558.362 621.624 L 558.864 619.639 L 558.973 619.196 L 559.455 617.205 L 559.560 616.762 L 560.021 614.766 L 560.122 614.321 L 560.563 612.321 L 560.659 611.875 L 561.080 609.870 L 561.171 609.424 L 561.572 607.414 L 561.659 606.967 L 562.039 604.952 L 562.122 604.505 L 562.482 602.486 L 562.559 602.038 L 562.899 600.016 L 562.972 599.567 L 563.292 597.541 L 563.360 597.091 L 563.659 595.062 L 563.723 594.612 L 564.002 592.579 L 564.061 592.129 L 564.319 590.093 L 564.374 589.642 L 564.612 587.604 L 564.662 587.152 L 564.879 585.111 L 564.924 584.660 L 565.121 582.616 L 565.162 582.164 L 565.338 580.119 L 565.374 579.667 L 565.529 577.619 L 565.561 577.167 L 565.696 575.118 L 565.723 574.665 L 565.837 572.615 L 565.860 572.162 L 565.953 570.110 L 565.971 569.657 L 566.044 567.605 L 566.057 567.152 L 566.109 565.099 L 566.118 564.645 L 566.149 562.592 L 566.154 562.138 L 566.164 560.085 L 566.163 559.971 L 566.165 559.858 L 566.165 267.246 L 566.162 266.996 L 566.162 266.720 L 566.106 261.961 L 566.082 260.910 L 565.915 256.153 L 565.866 255.103 L 565.588 250.352 L 565.514 249.302 L 565.125 244.560 L 565.027 243.512 L 564.528 238.781 L 564.405 237.736 L 563.795 233.019 L 563.648 231.976 L 562.928 227.276 L 562.756 226.236 L 561.927 221.557 L 561.730 220.520 L 560.792 215.863 L 560.571 214.830 L 559.524 210.199 L 559.279 209.171 L 558.124 204.568 L 557.854 203.545 L 556.592 198.973 L 556.298 197.955 L 554.930 193.417 L 554.611 192.405 L 553.137 187.904 L 552.795 186.898 L 551.216 182.436 L 550.849 181.437 L 549.166 177.018 L 548.775 176.026 L 546.990 171.651 L 546.575 170.667 L 544.688 166.340 L 544.249 165.364 L 542.261 161.087 L 541.798 160.120 L 539.711 155.895 L 539.224 154.938 L 537.039 150.768 L 536.529 149.821 L 534.247 145.709 L 533.713 144.772 L 531.335 140.720 L 530.778 139.795 L 528.307 135.805 L 527.725 134.891 L 525.162 130.966 L 524.558 130.065 L 521.903 126.207 L 521.276 125.319 L 518.532 121.531 L 517.882 120.656 L 515.051 116.940 L 514.378 116.079 L 511.461 112.437 L 510.766 111.590 L 507.764 108.024 L 507.047 107.193 L 503.963 103.706 L 503.224 102.890 L 500.059 99.484 L 499.299 98.685 L 496.055 95.361 L 495.273 94.579 L 491.954 91.339 L 491.151 90.575 L 487.756 87.422 L 486.933 86.676 L 483.466 83.611 L 482.622 82.884 L 479.084 79.910 L 478.221 79.202 L 474.615 76.320 L 473.732 75.632 L 470.059 72.843 L 469.158 72.176 L 465.421 69.484 L 464.501 68.838 L 460.703 66.242 L 459.764 65.618 L 455.907 63.121 L 454.951 62.519 L 451.036 60.122 L 450.064 59.544 L 446.094 57.249 L 445.105 56.693 L 441.083 54.501 L 440.078 53.970 L 436.006 51.882 L 434.986 51.376 L 430.867 49.394 L 429.832 48.912 L 425.668 47.037 L 424.620 46.581 L 420.412 44.813 L 419.351 44.383 L 415.104 42.725 L 414.031 42.322 L 409.746 40.773 L 408.661 40.397 L 404.341 38.959 L 403.245 38.610 L 398.893 37.284 L 397.787 36.963 L 393.406 35.750 L 392.290 35.456 L 387.882 34.356 L 386.758 34.091 L 382.325 33.105 L 381.194 32.869 L 376.739 31.998 L 375.601 31.790 L 371.127 31.034 L 369.984 30.856 L 365.494 30.216 L 364.345 30.067 L 359.841 29.542 L 358.688 29.423 L 354.174 29.014 L 353.018 28.925 L 348.495 28.633 L 347.337 28.573 L 342.808 28.398 L 341.649 28.368 L 337.118 28.310 L 335.958 28.310 L 331.427 28.368 L 330.267 28.398 L 325.739 28.573 L 324.580 28.633 L 320.058 28.925 L 318.901 29.014 L 314.387 29.423 L 313.234 29.542 L 308.730 30.067 L 307.582 30.216 L 303.091 30.856 L 301.948 31.034 L 297.474 31.790 L 296.336 31.998 L 291.881 32.869 L 290.750 33.105 L 286.317 34.091 L 285.193 34.356 L 280.785 35.456 L 279.670 35.750 L 275.288 36.963 L 274.182 37.284 L 269.830 38.610 L 268.734 38.959 L 264.414 40.397 L 263.330 40.773 L 259.045 42.322 L 257.971 42.725 L 253.724 44.383 L 252.663 44.813 L 248.456 46.581 L 247.408 47.037 L 243.243 48.912 L 242.209 49.394 L 238.089 51.376 L 237.069 51.882 L 232.997 53.970 L 231.992 54.501 L 227.970 56.693 L 226.981 57.249 L 223.012 59.544 L 222.039 60.122 L 218.124 62.519 L 217.168 63.121 L 213.311 65.618 L 212.373 66.242 L 208.574 68.838 L 207.654 69.484 L 203.918 72.176 L 203.016 72.843 L 199.343 75.632 L 198.461 76.320 L 194.854 79.202 L 193.991 79.910 L 190.453 82.884 L 189.610 83.611 L 186.142 86.676 L 185.319 87.422 L 181.924 90.575 L 181.122 91.339 L 177.802 94.579 L 177.020 95.361 L 173.777 98.685 L 173.016 99.484 L 169.852 102.890 L 169.113 103.706 L 166.028 107.193 L 165.311 108.024 L 162.310 111.590 L 161.615 112.437 L 158.697 116.079 L 158.025 116.940 L 155.193 120.656 L 154.543 121.531 L 151.799 125.319 L 151.172 126.207 L 148.518 130.065 L 147.913 130.966 L 145.350 134.891 L 144.769 135.805 L 142.298 139.795 L 141.740 140.720 L 139.363 144.772 L 138.828 145.709 L 136.547 149.821 L 136.036 150.768 L 133.851 154.938 L 133.364 155.895 L 131.277 160.120 L 130.814 161.087 L 128.827 165.364 L 128.387 166.340 L 126.500 170.667 L 126.085 171.651 L 124.300 176.026 L 123.909 177.018 L 122.226 181.437 L 121.859 182.436 L 120.281 186.898 L 119.938 187.904 L 118.464 192.405 L 118.146 193.417 L 116.777 197.955 L 116.483 198.973 L 115.221 203.545 L 114.951 204.568 L 113.796 209.171 L 113.551 210.199 L 112.504 214.830 L 112.283 215.863 L 111.345 220.520 L 111.149 221.557 L 110.319 226.236 L 110.147 227.276 L 109.428 231.976 L 109.280 233.019 L 108.670 237.736 L 108.548 238.781 L 108.048 243.512 L 107.950 244.560 L 107.561 249.302 L 107.487 250.352 L 107.210 255.103 L 107.160 256.153 L 106.994 260.910 L 106.969 261.961 L 106.913 266.720 L 106.913 267.772 L 106.969 272.531 L 106.994 273.583 L 107.160 278.339 L 107.210 279.390 L 107.487 284.141 L 107.561 285.190 L 107.950 289.932 L 108.048 290.980 L 108.548 295.711 L 108.670 296.757 L 109.280 301.473 L 109.428 302.517 L 110.147 307.216 L 110.319 308.256 L 111.149 312.936 L 111.345 313.972 L 112.283 318.629 L 112.504 319.662 L 113.551 324.293 L 113.796 325.321 L 114.951 329.924 L 115.221 330.948 L 116.483 335.519 L 116.777 336.537 L 118.146 341.075 L 118.464 342.087 L 119.938 346.588 L 120.281 347.594 L 121.859 352.056 L 122.226 353.055 L 123.909 357.475 L 124.300 358.466 L 126.085 362.841 L 126.500 363.825 L 128.387 368.153 L 128.827 369.128 L 130.814 373.406 L 131.277 374.372 L 133.364 378.597 L 133.851 379.554 L 136.036 383.724 L 136.547 384.671 L 138.828 388.784 L 139.363 389.720 L 141.740 393.772 L 142.298 394.698 L 144.769 398.687 L 145.350 399.601 L 147.913 403.526 L 148.518 404.427 L 151.172 408.285 L 151.799 409.173 L 154.543 412.961 L 155.193 413.836 L 158.025 417.553 L 158.697 418.414 L 161.615 422.056 L 162.310 422.902 L 165.311 426.468 L 166.028 427.299 L 169.113 430.787 L 169.852 431.602 L 173.016 435.009 L 173.777 435.808 L 177.020 439.132 L 177.802 439.914 L 181.122 443.153 L 181.924 443.918 L 185.319 447.071 L 186.142 447.817 L 189.610 450.881 L 190.453 451.609 L 193.991 454.583 L 194.854 455.291 L 198.461 458.173 L 199.343 458.861 L 203.016 461.649 L 203.918 462.316 L 207.654 465.009 L 208.574 465.655 L 212.373 468.250 L 213.311 468.874 L 217.168 471.371 L 218.124 471.973 L 222.039 474.370 L 223.012 474.949 L 226.981 477.244 L 227.970 477.799 L 231.992 479.991 L 232.997 480.522 L 237.069 482.610 L 238.089 483.117 L 242.209 485.099 L 243.243 485.580 L 247.408 487.456 L 248.456 487.912 L 252.663 489.679 L 253.724 490.109 L 257.971 491.767 L 259.045 492.171 L 263.330 493.719 L 264.414 494.096 L 268.734 495.533 L 269.830 495.882 L 274.182 497.208 L 275.288 497.530 L 279.670 498.743 L 280.785 499.036 L 285.193 500.136 L 286.317 500.401 L 290.750 501.387 L 291.881 501.623 L 296.336 502.494 L 297.474 502.702 L 301.948 503.458 L 303.091 503.636 L 307.582 504.277 L 308.730 504.426 L 313.234 504.950 L 314.387 505.070 L 318.901 505.478 L 320.058 505.568 L 324.580 505.859 L 325.739 505.919 L 330.267 506.094 L 331.427 506.124 L 335.958 506.183 L 337.118 506.183 L 341.649 506.124 L 342.808 506.094 L 347.337 505.919 L 348.495 505.859 L 353.018 505.568 L 354.174 505.478 L 358.688 505.070 L 359.841 504.950 L 364.345 504.426 L 365.494 504.277 L 369.984 503.636 L 371.127 503.458 L 375.601 502.702 L 376.739 502.494 L 381.194 501.623 L 382.325 501.387 L 386.758 500.401 L 387.882 500.136 L 392.290 499.036 L 393.406 498.743 L 397.787 497.530 L 398.893 497.208 L 403.245 495.882 L 404.341 495.533 L 408.661 494.096 L 409.746 493.719 L 414.031 492.171 L 415.104 491.767 L 419.351 490.109 L 420.412 489.679 L 424.620 487.912 L 425.668 487.456 L 429.832 485.580 L 430.867 485.099 L 434.986 483.117 L 436.006 482.610 L 440.078 480.522 L 441.083 479.991 L 445.105 477.799 L 446.094 477.244 L 450.064 474.949 L 451.036 474.370 L 454.951 471.973 L 455.907 471.371 L 459.764 468.874 L 460.703 468.250 L 464.501 465.655 L 465.421 465.009 L 469.158 462.316 L 470.059 461.649 L 473.732 458.861 L 474.615 458.173 L 476.165 456.934 L 476.165 559.744 L 476.156 561.458 L 476.132 563.058 Z M 197.087 259.832 L 197.303 256.132 L 197.606 252.438 L 197.995 248.754 L 198.470 245.082 L 199.030 241.424 L 199.675 237.783 L 200.405 234.162 L 201.219 230.561 L 202.117 226.985 L 203.097 223.434 L 204.159 219.912 L 205.303 216.420 L 206.527 212.961 L 207.830 209.537 L 209.212 206.150 L 210.672 202.803 L 212.208 199.496 L 213.820 196.233 L 215.506 193.015 L 217.265 189.844 L 219.096 186.723 L 220.998 183.653 L 222.968 180.635 L 225.007 177.673 L 227.112 174.767 L 229.282 171.918 L 231.515 169.130 L 233.811 166.403 L 236.167 163.739 L 238.581 161.140 L 241.053 158.606 L 243.581 156.140 L 246.162 153.742 L 248.796 151.414 L 251.480 149.158 L 254.213 146.974 L 256.993 144.863 L 259.818 142.827 L 262.687 140.866 L 265.598 138.982 L 268.549 137.176 L 271.538 135.448 L 274.563 133.799 L 277.623 132.230 L 280.715 130.742 L 283.839 129.335 L 286.992 128.011 L 290.172 126.769 L 293.377 125.611 L 296.606 124.536 L 299.857 123.546 L 303.128 122.640 L 306.418 121.820 L 309.723 121.085 L 313.043 120.435 L 316.376 119.872 L 319.720 119.395 L 323.072 119.005 L 326.432 118.701 L 329.798 118.483 L 333.167 118.353 L 336.538 118.310 L 339.908 118.353 L 343.278 118.483 L 346.643 118.701 L 350.003 119.005 L 353.356 119.395 L 356.699 119.872 L 360.032 120.435 L 363.352 121.085 L 366.658 121.820 L 369.947 122.640 L 373.218 123.546 L 376.469 124.536 L 379.698 125.611 L 382.903 126.769 L 386.083 128.011 L 389.236 129.335 L 392.360 130.742 L 395.452 132.230 L 398.512 133.799 L 401.538 135.448 L 404.527 137.176 L 407.477 138.982 L 410.388 140.866 L 413.257 142.827 L 416.082 144.863 L 418.862 146.974 L 421.595 149.158 L 424.279 151.414 L 426.913 153.742 L 429.494 156.140 L 432.022 158.606 L 434.494 161.140 L 436.908 163.739 L 439.264 166.403 L 441.560 169.130 L 443.793 171.918 L 445.963 174.767 L 448.068 177.673 L 450.107 180.635 L 452.077 183.653 L 453.979 186.723 L 455.810 189.844 L 457.569 193.015 L 459.255 196.233 L 460.867 199.496 L 462.403 202.803 L 463.863 206.150 L 465.245 209.537 L 466.549 212.961 L 467.773 216.420 L 468.916 219.912 L 469.978 223.434 L 470.959 226.985 L 471.856 230.561 L 472.670 234.162 L 473.400 237.783 L 474.045 241.424 L 474.606 245.082 L 475.080 248.754 L 475.469 252.438 L 475.772 256.132 L 475.988 259.832 L 476.118 263.538 L 476.162 267.246 L 476.118 270.954 L 475.988 274.660 L 475.772 278.361 L 475.469 282.054 L 475.080 285.738 L 474.606 289.410 L 474.045 293.068 L 473.400 296.709 L 472.670 300.331 L 471.856 303.931 L 470.959 307.508 L 469.978 311.058 L 468.916 314.580 L 467.773 318.072 L 466.549 321.531 L 465.245 324.955 L 463.863 328.342 L 462.403 331.690 L 460.867 334.996 L 459.255 338.259 L 457.569 341.477 L 455.810 344.648 L 453.979 347.769 L 452.077 350.840 L 450.107 353.857 L 448.068 356.820 L 445.963 359.726 L 443.793 362.574 L 441.560 365.362 L 439.264 368.089 L 436.908 370.753 L 434.494 373.352 L 432.022 375.886 L 429.494 378.352 L 426.913 380.750 L 424.279 383.078 L 421.595 385.334 L 418.862 387.519 L 416.082 389.630 L 413.257 391.666 L 410.388 393.626 L 407.477 395.510 L 404.527 397.317 L 401.538 399.045 L 398.512 400.694 L 395.452 402.262 L 392.360 403.750 L 389.236 405.157 L 386.083 406.481 L 382.903 407.723 L 379.698 408.881 L 376.469 409.956 L 373.218 410.946 L 369.947 411.852 L 366.658 412.672 L 363.352 413.408 L 360.032 414.057 L 356.699 414.620 L 353.356 415.097 L 350.003 415.488 L 346.643 415.792 L 343.278 416.009 L 339.908 416.139 L 336.538 416.183 L 333.167 416.139 L 329.798 416.009 L 326.432 415.792 L 323.072 415.488 L 319.720 415.097 L 316.376 414.620 L 313.043 414.057 L 309.723 413.408 L 306.418 412.672 L 303.128 411.852 L 299.857 410.946 L 296.606 409.956 L 293.377 408.881 L 290.172 407.723 L 286.992 406.481 L 283.839 405.157 L 280.715 403.750 L 277.623 402.262 L 274.563 400.694 L 271.538 399.045 L 268.549 397.317 L 265.598 395.510 L 262.687 393.626 L 259.818 391.666 L 256.993 389.630 L 254.213 387.519 L 251.480 385.334 L 248.796 383.078 L 246.162 380.750 L 243.581 378.352 L 241.053 375.886 L 238.581 373.352 L 236.167 370.753 L 233.811 368.089 L 231.515 365.362 L 229.282 362.574 L 227.112 359.726 L 225.007 356.820 L 222.968 353.857 L 220.998 350.840 L 219.096 347.769 L 217.265 344.648 L 215.506 341.477 L 213.820 338.259 L 212.208 334.996 L 210.672 331.690 L 209.212 328.342 L 207.830 324.955 L 206.527 321.531 L 205.303 318.072 L 204.159 314.580 L 203.097 311.058 L 202.117 307.508 L 201.219 303.931 L 200.405 300.331 L 199.675 296.709 L 199.030 293.068 L 198.470 289.410 L 197.995 285.738 L 197.606 282.054 L 197.303 278.361 L 197.087 274.660 L 196.957 270.954 L 196.913 267.246 L 196.957 263.538 L 197.087 259.832 Z" fill="black" fill-rule="evenodd"/>
</svg>
