<svg xmlns="http://www.w3.org/2000/svg" viewBox="0 0 700.000 1000" width="700.000" height="1000">
  <path d="M 499.253 50.887 L 495.032 47.526 L 494.234 46.905 L 489.970 43.664 L 489.146 43.052 L 484.840 39.932 L 483.991 39.331 L 479.646 36.332 L 478.770 35.743 L 474.386 32.867 L 473.484 32.291 L 469.065 29.540 L 468.136 28.977 L 463.682 26.351 L 462.727 25.804 L 458.240 23.305 L 457.260 22.774 L 452.740 20.402 L 451.735 19.890 L 447.185 17.645 L 446.155 17.153 L 441.577 15.037 L 440.522 14.565 L 435.918 12.579 L 434.839 12.130 L 430.210 10.274 L 429.109 9.849 L 424.457 8.124 L 423.333 7.724 L 418.659 6.130 L 417.515 5.757 L 412.821 4.296 L 411.657 3.951 L 406.946 2.622 L 405.763 2.306 L 401.035 1.110 L 399.836 0.824 L 395.093 -0.238 L 393.879 -0.492 L 389.123 -1.420 L 387.895 -1.642 L 383.128 -2.435 L 381.889 -2.624 L 377.112 -3.283 L 375.863 -3.438 L 371.079 -3.962 L 369.821 -4.082 L 365.031 -4.471 L 363.768 -4.555 L 358.974 -4.809 L 357.706 -4.858 L 352.910 -4.977 L 351.640 -4.990 L 346.843 -4.973 L 345.574 -4.951 L 340.778 -4.799 L 339.511 -4.741 L 334.718 -4.453 L 333.456 -4.359 L 328.667 -3.937 L 327.411 -3.808 L 322.629 -3.250 L 321.382 -3.087 L 316.608 -2.394 L 315.371 -2.197 L 310.607 -1.370 L 309.382 -1.140 L 304.629 -0.178 L 303.418 0.084 L 298.679 1.179 L 297.484 1.473 L 292.760 2.702 L 291.582 3.025 L 286.875 4.387 L 285.716 4.740 L 281.027 6.234 L 279.888 6.614 L 275.219 8.241 L 274.101 8.647 L 269.454 10.405 L 268.358 10.836 L 263.735 12.725 L 262.662 13.179 L 258.065 15.198 L 257.016 15.675 L 252.445 17.823 L 251.421 18.320 L 246.879 20.597 L 245.880 21.114 L 241.368 23.518 L 240.394 24.053 L 235.915 26.584 L 234.967 27.135 L 230.521 29.793 L 229.599 30.359 L 225.188 33.141 L 224.293 33.721 L 219.919 36.627 L 219.050 37.220 L 214.714 40.249 L 213.871 40.852 L 209.576 44.003 L 208.758 44.617 L 204.505 47.889 L 203.713 48.512 L 199.503 51.902 L 198.737 52.533 L 194.571 56.042 L 193.831 56.680 L 189.711 60.306 L 188.995 60.950 L 184.924 64.692 L 184.232 65.341 L 180.210 69.196 L 179.542 69.850 L 175.571 73.818 L 174.927 74.475 L 171.007 78.555 L 170.386 79.214 L 166.520 83.404 L 165.921 84.066 L 162.111 88.364 L 161.534 89.027 L 157.779 93.432 L 157.224 94.096 L 153.528 98.606 L 152.993 99.271 L 149.356 103.884 L 148.842 104.549 L 145.264 109.264 L 144.770 109.928 L 141.255 114.743 L 140.780 115.407 L 137.327 120.320 L 136.871 120.983 L 133.483 125.993 L 133.044 126.654 L 129.722 131.759 L 129.301 132.418 L 126.045 137.615 L 125.642 138.273 L 122.454 143.561 L 122.067 144.216 L 118.948 149.594 L 118.577 150.247 L 115.529 155.711 L 115.173 156.362 L 112.196 161.911 L 111.855 162.559 L 108.951 168.192 L 108.625 168.837 L 105.794 174.550 L 105.482 175.193 L 102.726 180.985 L 102.427 181.625 L 99.747 187.494 L 99.462 188.131 L 96.858 194.074 L 96.586 194.708 L 94.059 200.724 L 93.800 201.356 L 91.352 207.442 L 91.105 208.070 L 88.736 214.224 L 88.500 214.850 L 86.212 221.070 L 85.988 221.692 L 83.781 227.976 L 83.568 228.596 L 81.442 234.940 L 81.240 235.558 L 79.198 241.961 L 79.006 242.576 L 77.047 249.035 L 76.866 249.647 L 74.990 256.161 L 74.819 256.771 L 73.029 263.336 L 72.868 263.944 L 71.163 270.558 L 71.011 271.164 L 69.392 277.825 L 69.250 278.428 L 67.717 285.134 L 67.584 285.735 L 66.139 292.483 L 66.015 293.082 L 64.658 299.870 L 64.542 300.467 L 63.273 307.291 L 63.167 307.887 L 61.986 314.746 L 61.888 315.340 L 60.797 322.231 L 60.707 322.823 L 59.705 329.744 L 59.624 330.334 L 58.712 337.282 L 58.638 337.871 L 57.817 344.844 L 57.751 345.432 L 57.020 352.426 L 56.963 353.013 L 56.322 360.027 L 56.273 360.613 L 55.723 367.643 L 55.681 368.229 L 55.223 375.273 L 55.189 375.858 L 54.822 382.914 L 54.796 383.498 L 54.521 390.563 L 54.502 391.147 L 54.318 398.219 L 54.307 398.803 L 54.215 405.878 L 54.211 406.462 L 54.211 413.538 L 54.215 414.122 L 54.307 421.197 L 54.318 421.781 L 54.502 428.853 L 54.521 429.437 L 54.796 436.502 L 54.822 437.086 L 55.189 444.142 L 55.223 444.727 L 55.681 451.771 L 55.723 452.357 L 56.273 459.387 L 56.322 459.973 L 56.963 466.987 L 57.020 467.574 L 57.751 474.568 L 57.817 475.156 L 58.638 482.129 L 58.712 482.718 L 59.624 489.666 L 59.705 490.256 L 60.707 497.177 L 60.797 497.769 L 61.888 504.660 L 61.986 505.254 L 63.167 512.113 L 63.273 512.709 L 64.542 519.533 L 64.658 520.130 L 66.015 526.918 L 66.139 527.517 L 67.584 534.265 L 67.717 534.866 L 69.250 541.572 L 69.392 542.175 L 71.011 548.836 L 71.163 549.442 L 72.868 556.056 L 73.029 556.664 L 74.819 563.229 L 74.990 563.839 L 76.866 570.353 L 77.047 570.965 L 79.006 577.424 L 79.198 578.039 L 81.240 584.442 L 81.442 585.060 L 83.568 591.404 L 83.781 592.024 L 85.988 598.308 L 86.212 598.930 L 88.500 605.150 L 88.736 605.776 L 91.105 611.930 L 91.352 612.558 L 93.800 618.644 L 94.059 619.276 L 96.586 625.292 L 96.858 625.926 L 99.462 631.869 L 99.747 632.506 L 102.427 638.375 L 102.726 639.015 L 105.482 644.807 L 105.794 645.450 L 108.625 651.163 L 108.951 651.808 L 111.855 657.441 L 112.196 658.089 L 115.173 663.638 L 115.529 664.289 L 118.577 669.753 L 118.948 670.406 L 122.067 675.784 L 122.454 676.439 L 125.642 681.727 L 126.045 682.385 L 129.301 687.582 L 129.722 688.241 L 133.044 693.346 L 133.483 694.007 L 136.871 699.017 L 137.327 699.680 L 140.780 704.593 L 141.255 705.257 L 144.770 710.072 L 145.264 710.736 L 148.842 715.451 L 149.356 716.116 L 152.993 720.729 L 153.528 721.394 L 157.224 725.904 L 157.779 726.568 L 161.534 730.973 L 162.111 731.636 L 165.921 735.934 L 166.520 736.596 L 170.386 740.786 L 171.007 741.445 L 174.927 745.525 L 175.571 746.182 L 179.542 750.150 L 180.210 750.804 L 184.232 754.659 L 184.924 755.308 L 188.995 759.050 L 189.711 759.694 L 193.831 763.320 L 194.571 763.958 L 198.737 767.467 L 199.503 768.098 L 203.713 771.488 L 204.505 772.111 L 208.758 775.383 L 209.576 775.997 L 213.871 779.148 L 214.714 779.751 L 219.050 782.780 L 219.919 783.373 L 224.293 786.279 L 225.188 786.859 L 229.599 789.641 L 230.521 790.207 L 234.967 792.865 L 235.915 793.416 L 240.394 795.947 L 241.368 796.482 L 245.880 798.886 L 246.879 799.403 L 251.421 801.680 L 252.445 802.177 L 257.016 804.325 L 258.065 804.802 L 262.662 806.821 L 263.735 807.275 L 268.358 809.164 L 269.454 809.595 L 274.101 811.353 L 275.219 811.759 L 279.888 813.386 L 281.027 813.766 L 285.716 815.260 L 286.875 815.613 L 291.582 816.975 L 292.760 817.298 L 297.484 818.527 L 298.679 818.821 L 303.418 819.916 L 304.629 820.178 L 309.382 821.140 L 310.607 821.370 L 315.371 822.197 L 316.608 822.394 L 321.382 823.087 L 322.629 823.250 L 327.411 823.808 L 328.667 823.937 L 333.456 824.359 L 334.718 824.453 L 339.511 824.741 L 340.778 824.799 L 345.574 824.951 L 346.843 824.973 L 351.640 824.990 L 352.910 824.977 L 357.706 824.858 L 358.974 824.809 L 363.768 824.555 L 365.031 824.471 L 369.821 824.082 L 371.079 823.962 L 375.863 823.438 L 377.112 823.283 L 381.889 822.624 L 383.128 822.435 L 387.895 821.642 L 389.123 821.420 L 393.879 820.492 L 395.093 820.238 L 399.836 819.176 L 401.035 818.890 L 405.763 817.694 L 406.946 817.378 L 411.657 816.049 L 412.821 815.704 L 417.515 814.243 L 418.659 813.870 L 423.333 812.276 L 424.457 811.876 L 429.109 810.151 L 430.210 809.726 L 434.839 807.870 L 435.918 807.421 L 440.522 805.435 L 441.577 804.963 L 446.155 802.847 L 447.185 802.355 L 451.735 800.110 L 452.740 799.598 L 457.260 797.226 L 458.240 796.695 L 462.727 794.196 L 463.682 793.649 L 468.136 791.023 L 469.065 790.460 L 473.484 787.709 L 474.386 787.133 L 478.770 784.257 L 479.646 783.668 L 483.991 780.669 L 484.840 780.068 L 489.146 776.948 L 489.970 776.336 L 494.234 773.095 L 495.032 772.474 L 499.253 769.113 L 500.025 768.484 L 504.202 765.004 L 504.742 764.548 L 506.556 762.987 L 506.879 762.707 L 508.684 761.124 L 509.002 760.843 L 510.798 759.238 L 511.111 758.956 L 512.899 757.329 L 513.207 757.046 L 514.985 755.397 L 515.288 755.113 L 517.057 753.441 L 517.355 753.156 L 519.115 751.463 L 519.409 751.178 L 521.158 749.463 L 521.448 749.177 L 523.188 747.440 L 523.473 747.153 L 525.202 745.396 L 525.483 745.108 L 527.203 743.329 L 527.479 743.041 L 529.188 741.240 L 529.460 740.952 L 531.160 739.130 L 531.427 738.841 L 533.116 736.999 L 533.379 736.709 L 535.058 734.846 L 535.317 734.556 L 536.984 732.673 L 537.239 732.383 L 538.896 730.478 L 539.147 730.188 L 540.793 728.263 L 541.039 727.973 L 542.674 726.028 L 542.917 725.737 L 544.541 723.772 L 544.779 723.481 L 546.392 721.496 L 546.626 721.205 L 548.228 719.200 L 548.458 718.909 L 550.049 716.885 L 550.275 716.594 L 551.854 714.550 L 552.077 714.259 L 553.643 712.195 L 553.862 711.904 L 555.417 709.821 L 555.633 709.530 L 557.176 707.429 L 557.388 707.138 L 558.919 705.017 L 559.127 704.726 L 560.646 702.587 L 560.850 702.296 L 562.357 700.138 L 562.558 699.848 L 564.053 697.671 L 564.250 697.381 L 565.732 695.186 L 565.926 694.896 L 567.396 692.682 L 567.586 692.393 L 569.043 690.161 L 569.230 689.872 L 570.675 687.623 L 570.858 687.334 L 572.290 685.067 L 572.470 684.779 L 573.889 682.493 L 574.066 682.206 L 575.472 679.903 L 575.646 679.616 L 577.038 677.296 L 577.209 677.009 L 578.588 674.672 L 578.756 674.385 L 580.122 672.032 L 580.287 671.745 L 581.639 669.375 L 581.801 669.089 L 583.140 666.702 L 583.298 666.416 L 584.624 664.013 L 584.780 663.728 L 586.091 661.308 L 586.244 661.024 L 587.542 658.587 L 587.692 658.304 L 588.976 655.852 L 589.123 655.568 L 590.393 653.100 L 590.537 652.818 L 591.794 650.334 L 591.935 650.052 L 593.177 647.553 L 593.316 647.271 L 594.543 644.757 L 594.680 644.476 L 595.893 641.946 L 596.026 641.666 L 597.225 639.122 L 597.356 638.841 L 598.541 636.283 L 598.669 636.003 L 599.839 633.430 L 599.965 633.150 L 601.120 630.563 L 601.243 630.284 L 602.384 627.682 L 602.505 627.404 L 603.630 624.788 L 603.749 624.511 L 604.859 621.881 L 604.975 621.604 L 606.071 618.961 L 606.185 618.684 L 607.266 616.027 L 607.377 615.751 L 608.442 613.081 L 608.551 612.806 L 609.602 610.123 L 609.708 609.848 L 610.744 607.152 L 610.848 606.878 L 611.868 604.169 L 611.970 603.895 L 612.974 601.174 L 613.074 600.901 L 614.063 598.167 L 614.161 597.895 L 615.134 595.149 L 615.230 594.877 L 616.188 592.119 L 616.281 591.848 L 617.223 589.078 L 617.314 588.807 L 618.241 586.026 L 618.330 585.756 L 619.241 582.963 L 619.328 582.693 L 620.222 579.890 L 620.307 579.620 L 621.186 576.806 L 621.269 576.537 L 622.132 573.712 L 622.213 573.443 L 623.060 570.608 L 623.139 570.340 L 623.970 567.494 L 624.047 567.226 L 624.861 564.370 L 624.936 564.103 L 625.734 561.236 L 625.808 560.970 L 626.590 558.094 L 626.661 557.828 L 627.427 554.942 L 627.496 554.676 L 628.245 551.782 L 628.313 551.516 L 629.046 548.612 L 629.112 548.347 L 629.828 545.434 L 629.892 545.170 L 630.592 542.248 L 630.654 541.984 L 631.337 539.054 L 631.397 538.790 L 632.064 535.852 L 632.123 535.589 L 632.772 532.642 L 632.829 532.379 L 633.462 529.424 L 633.488 529.297 L 633.516 529.170 L 634.134 526.200 L 634.187 525.943 L 634.780 523.008 L 634.834 522.737 L 635.401 519.837 L 635.456 519.550 L 635.998 516.686 L 636.054 516.383 L 636.569 513.554 L 636.625 513.235 L 637.113 510.441 L 637.170 510.104 L 637.630 507.347 L 637.688 506.991 L 638.119 504.270 L 638.177 503.895 L 638.579 501.210 L 638.636 500.814 L 639.009 498.167 L 639.065 497.749 L 639.408 495.139 L 639.463 494.699 L 639.775 492.125 L 639.829 491.661 L 640.110 489.126 L 640.161 488.637 L 640.410 486.139 L 640.458 485.623 L 640.675 483.163 L 640.719 482.620 L 640.903 480.198 L 640.942 479.625 L 641.092 477.243 L 641.126 476.639 L 641.242 474.295 L 641.269 473.659 L 641.351 471.354 L 641.369 470.684 L 641.416 468.418 L 641.424 467.712 L 641.435 465.486 L 641.432 464.743 L 641.406 462.557 L 641.390 461.774 L 641.328 459.629 L 641.296 458.805 L 641.196 456.700 L 641.146 455.834 L 641.008 453.769 L 640.938 452.859 L 640.761 450.836 L 640.667 449.880 L 640.452 447.897 L 640.331 446.895 L 640.076 444.954 L 639.925 443.903 L 639.629 442.004 L 639.444 440.904 L 639.107 439.047 L 638.884 437.898 L 638.506 436.082 L 638.239 434.884 L 637.820 433.111 L 637.505 431.864 L 637.043 430.133 L 636.676 428.839 L 636.171 427.151 L 635.746 425.810 L 635.197 424.166 L 634.710 422.782 L 634.117 421.181 L 633.562 419.757 L 632.924 418.200 L 632.296 416.741 L 631.613 415.228 L 630.908 413.740 L 630.179 412.271 L 629.793 411.512 L 629.393 410.761 L 628.618 409.336 L 628.191 408.569 L 627.749 407.811 L 626.926 406.431 L 626.457 405.661 L 625.972 404.900 L 625.101 403.565 L 624.589 402.796 L 624.061 402.038 L 623.143 400.748 L 622.588 399.986 L 622.017 399.236 L 621.050 397.991 L 620.454 397.240 L 619.842 396.503 L 618.826 395.304 L 618.190 394.570 L 617.539 393.851 L 616.473 392.698 L 615.801 391.986 L 615.113 391.290 L 613.997 390.183 L 613.291 389.499 L 612.571 388.830 L 611.403 387.770 L 610.669 387.117 L 609.920 386.481 L 608.701 385.467 L 607.942 384.850 L 607.170 384.250 L 605.899 383.283 L 605.120 382.704 L 604.330 382.142 L 603.006 381.223 L 602.214 380.685 L 601.410 380.164 L 600.034 379.293 L 599.233 378.797 L 598.421 378.319 L 596.991 377.494 L 596.187 377.042 L 595.373 376.606 L 593.888 375.830 L 593.086 375.421 L 592.275 375.028 L 590.736 374.300 L 589.939 373.933 L 589.136 373.582 L 587.541 372.902 L 586.756 372.577 L 585.964 372.266 L 584.313 371.635 L 582.765 371.076 L 581.057 370.495 L 579.545 370.009 L 577.780 369.477 L 576.309 369.060 L 574.487 368.577 L 573.060 368.224 L 571.179 367.791 L 569.801 367.496 L 567.861 367.113 L 566.532 366.871 L 564.533 366.539 L 563.256 366.345 L 561.196 366.062 L 559.971 365.911 L 557.851 365.680 L 556.677 365.567 L 554.496 365.386 L 553.373 365.308 L 551.131 365.178 L 550.058 365.129 L 547.753 365.052 L 546.729 365.029 L 544.362 365.003 L 544.115 365.003 L 543.868 365.000 L 385.000 365.000 L 383.896 365.014 L 382.792 365.054 L 381.690 365.122 L 380.589 365.217 L 379.492 365.338 L 378.397 365.487 L 377.307 365.663 L 376.221 365.865 L 375.140 366.093 L 374.066 366.349 L 372.998 366.630 L 371.937 366.938 L 370.884 367.271 L 369.840 367.631 L 368.805 368.015 L 367.779 368.425 L 366.764 368.861 L 365.760 369.320 L 364.767 369.805 L 363.787 370.314 L 362.820 370.846 L 361.865 371.402 L 360.925 371.982 L 359.999 372.584 L 359.089 373.209 L 358.194 373.856 L 357.315 374.524 L 356.452 375.215 L 355.607 375.926 L 354.780 376.657 L 353.971 377.409 L 353.180 378.180 L 352.409 378.971 L 351.657 379.780 L 350.926 380.607 L 350.215 381.452 L 349.524 382.315 L 348.856 383.194 L 348.209 384.089 L 347.584 384.999 L 346.982 385.925 L 346.402 386.865 L 345.846 387.820 L 345.314 388.787 L 344.805 389.767 L 344.320 390.760 L 343.861 391.764 L 343.425 392.779 L 343.015 393.805 L 342.631 394.840 L 342.271 395.884 L 341.938 396.937 L 341.630 397.998 L 341.349 399.066 L 341.093 400.140 L 340.865 401.221 L 340.663 402.307 L 340.487 403.397 L 340.338 404.492 L 340.217 405.589 L 340.122 406.690 L 340.054 407.792 L 340.014 408.896 L 340.000 410.000 L 340.014 411.104 L 340.054 412.208 L 340.122 413.310 L 340.217 414.411 L 340.338 415.508 L 340.487 416.603 L 340.663 417.693 L 340.865 418.779 L 341.093 419.860 L 341.349 420.934 L 341.630 422.002 L 341.938 423.063 L 342.271 424.116 L 342.631 425.160 L 343.015 426.195 L 343.425 427.221 L 343.861 428.236 L 344.320 429.240 L 344.805 430.233 L 345.314 431.213 L 345.846 432.180 L 346.402 433.135 L 346.982 434.075 L 347.584 435.001 L 348.209 435.911 L 348.856 436.806 L 349.524 437.685 L 350.215 438.548 L 350.926 439.393 L 351.657 440.220 L 352.409 441.029 L 353.180 441.820 L 353.971 442.591 L 354.780 443.343 L 355.607 444.074 L 356.452 444.785 L 357.315 445.476 L 358.194 446.144 L 359.089 446.791 L 359.999 447.416 L 360.925 448.018 L 361.865 448.598 L 362.820 449.154 L 363.787 449.686 L 364.767 450.195 L 365.760 450.680 L 366.764 451.139 L 367.779 451.575 L 368.805 451.985 L 369.840 452.369 L 370.884 452.729 L 371.937 453.062 L 372.998 453.370 L 374.066 453.651 L 375.140 453.907 L 376.221 454.135 L 377.307 454.337 L 378.397 454.513 L 379.492 454.662 L 380.589 454.783 L 381.690 454.878 L 382.792 454.946 L 383.896 454.986 L 385.000 455.000 L 543.622 455.000 L 545.230 455.018 L 546.486 455.060 L 547.631 455.126 L 548.663 455.211 L 549.582 455.312 L 550.389 455.423 L 550.610 455.459 L 550.653 455.666 L 550.786 456.399 L 550.914 457.224 L 551.035 458.138 L 551.144 459.142 L 551.239 460.233 L 551.318 461.410 L 551.378 462.670 L 551.417 464.013 L 551.434 465.436 L 551.427 466.937 L 551.395 468.514 L 551.337 470.165 L 551.251 471.889 L 551.138 473.684 L 550.997 475.547 L 550.827 477.477 L 550.629 479.472 L 550.401 481.531 L 550.144 483.652 L 549.857 485.834 L 549.542 488.075 L 549.198 490.374 L 548.825 492.730 L 548.423 495.141 L 547.993 497.606 L 547.534 500.125 L 547.049 502.695 L 546.536 505.317 L 545.996 507.988 L 545.431 510.703 L 544.853 513.399 L 544.262 516.082 L 543.655 518.757 L 543.034 521.424 L 542.398 524.081 L 541.747 526.729 L 541.081 529.368 L 540.400 531.997 L 539.706 534.617 L 538.996 537.226 L 538.272 539.826 L 537.534 542.414 L 536.782 544.993 L 536.015 547.560 L 535.235 550.116 L 534.440 552.661 L 533.631 555.195 L 532.809 557.717 L 531.973 560.227 L 531.123 562.725 L 530.260 565.210 L 529.383 567.684 L 528.492 570.144 L 527.589 572.592 L 526.672 575.027 L 525.742 577.448 L 524.800 579.857 L 523.844 582.251 L 522.875 584.632 L 521.894 586.998 L 520.900 589.351 L 519.894 591.689 L 518.876 594.013 L 517.845 596.322 L 516.802 598.616 L 515.747 600.894 L 514.680 603.158 L 513.602 605.406 L 512.512 607.639 L 511.410 609.856 L 510.297 612.057 L 509.172 614.241 L 508.037 616.410 L 506.890 618.562 L 505.733 620.697 L 504.565 622.816 L 503.386 624.918 L 502.196 627.002 L 500.997 629.070 L 499.787 631.120 L 498.567 633.152 L 497.337 635.167 L 496.097 637.164 L 494.848 639.143 L 493.589 641.104 L 492.320 643.046 L 491.043 644.971 L 489.756 646.876 L 488.461 648.763 L 487.156 650.632 L 485.843 652.481 L 484.522 654.311 L 483.192 656.122 L 481.854 657.914 L 480.509 659.687 L 479.155 661.440 L 477.793 663.173 L 476.424 664.887 L 475.048 666.581 L 473.664 668.255 L 472.274 669.909 L 470.876 671.543 L 469.472 673.157 L 468.061 674.750 L 466.644 676.323 L 465.221 677.876 L 463.791 679.408 L 462.355 680.920 L 460.914 682.411 L 459.467 683.881 L 458.015 685.330 L 456.558 686.759 L 455.095 688.167 L 453.627 689.553 L 452.155 690.919 L 450.678 692.264 L 449.197 693.587 L 447.711 694.890 L 446.326 696.081 L 442.803 699.015 L 439.367 701.751 L 435.914 704.377 L 432.445 706.891 L 428.963 709.294 L 425.469 711.586 L 421.964 713.767 L 418.451 715.838 L 414.931 717.799 L 411.404 719.650 L 407.873 721.393 L 404.339 723.026 L 400.802 724.552 L 397.263 725.971 L 393.723 727.284 L 390.184 728.491 L 386.645 729.593 L 383.107 730.591 L 379.569 731.485 L 376.034 732.277 L 372.500 732.966 L 368.967 733.554 L 365.436 734.041 L 361.907 734.428 L 358.378 734.715 L 354.850 734.901 L 351.323 734.989 L 347.795 734.976 L 344.268 734.864 L 340.740 734.652 L 337.211 734.341 L 333.681 733.929 L 330.150 733.417 L 326.617 732.803 L 323.082 732.088 L 319.546 731.271 L 316.009 730.351 L 312.471 729.327 L 308.931 728.199 L 305.392 726.966 L 301.852 725.627 L 298.314 724.181 L 294.777 722.628 L 291.243 720.967 L 287.713 719.198 L 284.188 717.319 L 280.670 715.331 L 277.159 713.232 L 273.657 711.023 L 270.166 708.703 L 266.687 706.272 L 263.222 703.731 L 259.772 701.078 L 256.341 698.314 L 252.928 695.440 L 249.537 692.455 L 246.169 689.360 L 242.826 686.155 L 239.510 682.842 L 236.223 679.420 L 232.967 675.891 L 229.743 672.256 L 226.555 668.515 L 223.403 664.670 L 220.289 660.721 L 217.217 656.671 L 214.186 652.519 L 211.200 648.269 L 208.259 643.921 L 205.367 639.476 L 202.523 634.937 L 199.731 630.305 L 196.992 625.582 L 194.308 620.769 L 191.679 615.869 L 189.109 610.883 L 186.597 605.814 L 184.146 600.663 L 181.757 595.433 L 179.432 590.125 L 177.171 584.742 L 174.977 579.286 L 172.849 573.759 L 170.791 568.164 L 168.802 562.503 L 166.884 556.777 L 165.037 550.991 L 163.264 545.145 L 161.565 539.242 L 159.940 533.286 L 158.391 527.278 L 156.919 521.220 L 155.524 515.116 L 154.207 508.968 L 152.970 502.779 L 151.811 496.550 L 150.733 490.285 L 149.736 483.987 L 148.819 477.658 L 147.985 471.300 L 147.233 464.916 L 146.563 458.510 L 145.976 452.083 L 145.473 445.639 L 145.053 439.179 L 144.716 432.708 L 144.464 426.227 L 144.296 419.739 L 144.211 413.247 L 144.211 406.753 L 144.296 400.261 L 144.464 393.773 L 144.716 387.292 L 145.053 380.821 L 145.473 374.361 L 145.976 367.917 L 146.563 361.490 L 147.233 355.084 L 147.985 348.700 L 148.819 342.342 L 149.736 336.013 L 150.733 329.715 L 151.811 323.450 L 152.970 317.221 L 154.207 311.032 L 155.524 304.884 L 156.919 298.780 L 158.391 292.722 L 159.940 286.714 L 161.565 280.758 L 163.264 274.855 L 165.037 269.009 L 166.884 263.223 L 168.802 257.497 L 170.791 251.836 L 172.849 246.241 L 174.977 240.714 L 177.171 235.258 L 179.432 229.875 L 181.757 224.567 L 184.146 219.337 L 186.597 214.186 L 189.109 209.117 L 191.679 204.131 L 194.308 199.231 L 196.992 194.418 L 199.731 189.695 L 202.523 185.063 L 205.367 180.524 L 208.259 176.079 L 211.200 171.731 L 214.186 167.481 L 217.217 163.329 L 220.289 159.279 L 223.403 155.330 L 226.555 151.485 L 229.743 147.744 L 232.967 144.109 L 236.223 140.580 L 239.510 137.158 L 242.826 133.845 L 246.169 130.640 L 249.537 127.545 L 252.928 124.560 L 256.341 121.686 L 259.772 118.922 L 263.222 116.269 L 266.687 113.728 L 270.166 111.297 L 273.657 108.977 L 277.159 106.768 L 280.670 104.669 L 284.188 102.681 L 287.713 100.802 L 291.243 99.033 L 294.777 97.372 L 298.314 95.819 L 301.852 94.373 L 305.392 93.034 L 308.931 91.801 L 312.471 90.673 L 316.009 89.649 L 319.546 88.729 L 323.082 87.912 L 326.617 87.197 L 330.150 86.583 L 333.681 86.071 L 337.211 85.659 L 340.740 85.348 L 344.268 85.136 L 347.795 85.024 L 351.323 85.011 L 354.850 85.099 L 358.378 85.285 L 361.907 85.572 L 365.436 85.959 L 368.967 86.446 L 372.500 87.034 L 376.034 87.723 L 379.569 88.515 L 383.107 89.409 L 386.645 90.407 L 390.184 91.509 L 393.723 92.716 L 397.263 94.029 L 400.802 95.448 L 404.339 96.974 L 407.873 98.607 L 411.404 100.350 L 414.931 102.201 L 418.451 104.162 L 421.964 106.233 L 425.469 108.414 L 428.963 110.706 L 432.445 113.109 L 435.914 115.623 L 439.367 118.249 L 442.803 120.985 L 446.598 124.145 L 447.455 124.842 L 448.329 125.517 L 449.219 126.171 L 450.125 126.802 L 451.047 127.411 L 451.983 127.997 L 452.933 128.561 L 453.896 129.100 L 454.873 129.616 L 455.862 130.108 L 456.863 130.575 L 457.874 131.018 L 458.897 131.435 L 459.929 131.828 L 460.971 132.195 L 462.021 132.536 L 463.080 132.851 L 464.146 133.141 L 465.218 133.404 L 466.297 133.640 L 467.381 133.850 L 468.470 134.034 L 469.564 134.191 L 470.660 134.320 L 471.760 134.423 L 472.862 134.499 L 473.965 134.548 L 475.070 134.569 L 476.174 134.564 L 477.278 134.531 L 478.381 134.472 L 479.482 134.385 L 480.580 134.271 L 481.676 134.131 L 482.767 133.963 L 483.855 133.769 L 484.937 133.548 L 486.013 133.301 L 487.083 133.027 L 488.146 132.728 L 489.201 132.402 L 490.248 132.050 L 491.287 131.673 L 492.315 131.271 L 493.333 130.843 L 494.341 130.390 L 495.337 129.913 L 496.321 129.412 L 497.292 128.886 L 498.251 128.337 L 499.195 127.765 L 500.125 127.169 L 501.040 126.551 L 501.940 125.911 L 502.824 125.249 L 503.691 124.565 L 504.542 123.860 L 505.374 123.134 L 506.189 122.389 L 506.985 121.623 L 507.762 120.838 L 508.520 120.035 L 509.258 119.213 L 509.975 118.373 L 510.671 117.516 L 511.346 116.642 L 512.000 115.751 L 512.632 114.845 L 513.241 113.924 L 513.827 112.988 L 514.390 112.038 L 514.930 111.074 L 515.445 110.098 L 515.937 109.109 L 516.404 108.108 L 516.847 107.096 L 517.265 106.074 L 517.657 105.041 L 518.024 104.000 L 518.365 102.949 L 518.681 101.891 L 518.970 100.825 L 519.233 99.752 L 519.470 98.674 L 519.680 97.589 L 519.863 96.500 L 520.020 95.407 L 520.150 94.310 L 520.253 93.210 L 520.328 92.109 L 520.377 91.005 L 520.399 89.901 L 520.393 88.797 L 520.361 87.693 L 520.301 86.590 L 520.214 85.489 L 520.101 84.390 L 519.960 83.295 L 519.793 82.203 L 519.599 81.116 L 519.378 80.034 L 519.131 78.957 L 518.857 77.887 L 518.557 76.824 L 518.231 75.769 L 517.880 74.722 L 517.502 73.684 L 517.100 72.656 L 516.672 71.637 L 516.220 70.630 L 515.743 69.634 L 515.241 68.650 L 514.716 67.678 L 514.167 66.720 L 513.594 65.776 L 512.999 64.845 L 512.381 63.930 L 511.740 63.030 L 511.078 62.146 L 510.394 61.279 L 509.689 60.429 L 508.964 59.596 L 508.218 58.781 L 507.453 57.985 L 506.668 57.208 L 505.864 56.451 L 505.042 55.713 L 504.202 54.996 L 500.025 51.516 L 499.253 50.887 Z" fill="black" fill-rule="evenodd"/>
</svg>
