<svg xmlns="http://www.w3.org/2000/svg" viewBox="0 0 700.000 1000" width="700.000" height="1000">
  <path d="M 240.000 75.000 L 238.896 75.014 L 237.792 75.054 L 236.690 75.122 L 235.589 75.217 L 234.492 75.338 L 233.397 75.487 L 232.307 75.663 L 231.221 75.865 L 230.140 76.093 L 229.066 76.349 L 227.998 76.630 L 226.937 76.938 L 225.884 77.271 L 224.840 77.631 L 223.805 78.015 L 222.779 78.425 L 221.764 78.861 L 220.760 79.320 L 219.767 79.805 L 218.787 80.314 L 217.820 80.846 L 216.865 81.402 L 215.925 81.982 L 214.999 82.584 L 214.089 83.209 L 213.194 83.856 L 212.315 84.524 L 211.452 85.215 L 210.607 85.926 L 209.780 86.657 L 208.971 87.409 L 208.180 88.180 L 207.409 88.971 L 206.657 89.780 L 205.926 90.607 L 205.215 91.452 L 204.524 92.315 L 203.856 93.194 L 203.209 94.089 L 202.584 94.999 L 201.982 95.925 L 201.402 96.865 L 200.846 97.820 L 200.314 98.787 L 199.805 99.767 L 199.320 100.760 L 198.861 101.764 L 198.425 102.779 L 198.015 103.805 L 197.631 104.840 L 197.271 105.884 L 196.938 106.937 L 196.630 107.998 L 196.349 109.066 L 196.093 110.140 L 195.865 111.221 L 195.663 112.307 L 195.487 113.397 L 195.338 114.492 L 195.217 115.589 L 195.122 116.690 L 195.054 117.792 L 195.014 118.896 L 195.000 120.000 L 195.014 121.104 L 195.054 122.208 L 195.122 123.310 L 195.217 124.411 L 195.338 125.508 L 195.487 126.603 L 195.663 127.693 L 195.865 128.779 L 196.093 129.860 L 196.349 130.934 L 196.630 132.002 L 196.938 133.063 L 197.271 134.116 L 197.631 135.160 L 198.015 136.195 L 198.425 137.221 L 198.861 138.236 L 199.320 139.240 L 199.805 140.233 L 200.314 141.213 L 200.846 142.180 L 201.402 143.135 L 201.982 144.075 L 202.584 145.001 L 203.209 145.911 L 203.856 146.806 L 204.524 147.685 L 205.215 148.548 L 205.926 149.393 L 206.657 150.220 L 207.409 151.029 L 208.180 151.820 L 208.971 152.591 L 209.780 153.343 L 210.607 154.074 L 211.452 154.785 L 212.315 155.476 L 213.194 156.144 L 214.089 156.791 L 214.999 157.416 L 215.925 158.018 L 216.865 158.598 L 217.820 159.154 L 218.787 159.686 L 219.767 160.195 L 220.760 160.680 L 221.764 161.139 L 222.779 161.575 L 223.805 161.985 L 224.840 162.369 L 225.884 162.729 L 226.937 163.062 L 227.998 163.370 L 229.066 163.651 L 230.140 163.907 L 231.221 164.135 L 232.307 164.337 L 233.397 164.513 L 234.492 164.662 L 235.589 164.783 L 236.690 164.878 L 237.792 164.946 L 238.896 164.986 L 240.000 165.000 L 369.894 165.000 L 372.730 165.013 L 375.460 165.052 L 378.188 165.117 L 380.914 165.207 L 383.637 165.323 L 386.357 165.465 L 389.073 165.632 L 391.783 165.825 L 394.488 166.043 L 397.186 166.287 L 399.878 166.557 L 402.561 166.851 L 405.236 167.171 L 407.902 167.515 L 410.558 167.885 L 413.204 168.279 L 415.838 168.698 L 418.460 169.141 L 421.070 169.608 L 423.666 170.100 L 426.249 170.615 L 428.816 171.155 L 431.369 171.717 L 433.905 172.303 L 436.425 172.912 L 438.927 173.544 L 441.411 174.198 L 443.877 174.875 L 446.324 175.573 L 448.750 176.294 L 451.156 177.035 L 453.541 177.798 L 455.905 178.582 L 458.245 179.386 L 460.563 180.211 L 462.857 181.055 L 465.127 181.919 L 467.372 182.802 L 469.592 183.703 L 471.786 184.623 L 473.953 185.561 L 476.094 186.517 L 478.207 187.489 L 480.291 188.479 L 482.347 189.484 L 484.375 190.506 L 486.372 191.542 L 488.339 192.594 L 490.276 193.660 L 492.182 194.740 L 494.056 195.833 L 495.899 196.939 L 497.709 198.058 L 499.487 199.188 L 501.231 200.329 L 502.942 201.482 L 504.620 202.644 L 506.263 203.816 L 507.872 204.998 L 509.446 206.187 L 510.986 207.385 L 512.490 208.589 L 513.959 209.801 L 515.392 211.019 L 516.790 212.242 L 518.152 213.470 L 519.478 214.702 L 520.767 215.938 L 522.021 217.177 L 523.239 218.418 L 524.420 219.662 L 525.565 220.906 L 526.674 222.152 L 527.747 223.397 L 528.784 224.642 L 529.786 225.886 L 530.752 227.129 L 531.682 228.370 L 532.577 229.608 L 533.437 230.843 L 534.263 232.075 L 535.054 233.302 L 535.812 234.526 L 536.535 235.745 L 537.226 236.959 L 537.883 238.168 L 538.508 239.371 L 539.102 240.568 L 539.663 241.760 L 540.194 242.946 L 540.694 244.125 L 541.164 245.298 L 541.605 246.465 L 542.016 247.625 L 542.399 248.780 L 542.754 249.928 L 543.081 251.071 L 543.381 252.208 L 543.654 253.340 L 543.901 254.467 L 544.122 255.589 L 544.318 256.707 L 544.488 257.821 L 544.633 258.931 L 544.754 260.039 L 544.850 261.144 L 544.922 262.247 L 544.970 263.349 L 544.994 264.450 L 544.994 265.550 L 544.970 266.651 L 544.922 267.753 L 544.850 268.856 L 544.754 269.961 L 544.633 271.069 L 544.488 272.179 L 544.318 273.293 L 544.122 274.411 L 543.901 275.533 L 543.654 276.660 L 543.381 277.792 L 543.081 278.929 L 542.754 280.072 L 542.399 281.220 L 542.016 282.375 L 541.605 283.535 L 541.164 284.702 L 540.694 285.875 L 540.194 287.054 L 539.663 288.240 L 539.102 289.432 L 538.508 290.629 L 537.883 291.832 L 537.226 293.041 L 536.535 294.255 L 535.812 295.474 L 535.054 296.698 L 534.263 297.925 L 533.437 299.157 L 532.577 300.392 L 531.682 301.630 L 530.752 302.871 L 529.786 304.114 L 528.784 305.358 L 527.747 306.603 L 526.674 307.848 L 525.565 309.094 L 524.420 310.338 L 523.239 311.582 L 522.021 312.823 L 520.767 314.062 L 519.478 315.298 L 518.152 316.530 L 516.790 317.758 L 515.392 318.981 L 513.959 320.199 L 512.490 321.411 L 510.986 322.615 L 509.446 323.813 L 507.872 325.002 L 506.263 326.184 L 504.620 327.356 L 502.942 328.518 L 501.231 329.671 L 499.487 330.812 L 497.709 331.942 L 495.899 333.061 L 494.056 334.167 L 492.182 335.260 L 490.276 336.340 L 488.339 337.406 L 486.372 338.458 L 484.375 339.494 L 482.347 340.516 L 480.291 341.521 L 478.207 342.511 L 476.094 343.483 L 473.953 344.439 L 471.786 345.377 L 469.592 346.297 L 467.372 347.198 L 465.127 348.081 L 462.857 348.945 L 460.563 349.789 L 458.245 350.614 L 455.905 351.418 L 453.541 352.202 L 451.156 352.965 L 448.750 353.706 L 446.324 354.427 L 443.877 355.125 L 441.411 355.802 L 438.927 356.456 L 436.425 357.088 L 433.905 357.697 L 431.369 358.283 L 428.816 358.845 L 426.249 359.385 L 423.666 359.900 L 421.070 360.392 L 418.460 360.859 L 415.838 361.302 L 413.204 361.721 L 410.558 362.115 L 407.902 362.485 L 405.236 362.829 L 402.561 363.149 L 399.878 363.443 L 397.186 363.713 L 394.488 363.957 L 391.783 364.175 L 389.073 364.368 L 386.357 364.535 L 383.637 364.677 L 380.914 364.793 L 378.188 364.883 L 375.460 364.948 L 372.730 364.987 L 369.894 365.000 L 290.000 365.000 L 288.896 365.014 L 287.792 365.054 L 286.690 365.122 L 285.589 365.217 L 284.492 365.338 L 283.397 365.487 L 282.307 365.663 L 281.221 365.865 L 280.140 366.093 L 279.066 366.349 L 277.998 366.630 L 276.937 366.938 L 275.884 367.271 L 274.840 367.631 L 273.805 368.015 L 272.779 368.425 L 271.764 368.861 L 270.760 369.320 L 269.767 369.805 L 268.787 370.314 L 267.820 370.846 L 266.865 371.402 L 265.925 371.982 L 264.999 372.584 L 264.089 373.209 L 263.194 373.856 L 262.315 374.524 L 261.452 375.215 L 260.607 375.926 L 259.780 376.657 L 258.971 377.409 L 258.180 378.180 L 257.409 378.971 L 256.657 379.780 L 255.926 380.607 L 255.215 381.452 L 254.524 382.315 L 253.856 383.194 L 253.209 384.089 L 252.584 384.999 L 251.982 385.925 L 251.402 386.865 L 250.846 387.820 L 250.314 388.787 L 249.805 389.767 L 249.320 390.760 L 248.861 391.764 L 248.425 392.779 L 248.015 393.805 L 247.631 394.840 L 247.271 395.884 L 246.938 396.937 L 246.630 397.998 L 246.349 399.066 L 246.093 400.140 L 245.865 401.221 L 245.663 402.307 L 245.487 403.397 L 245.338 404.492 L 245.217 405.589 L 245.122 406.690 L 245.054 407.792 L 245.014 408.896 L 245.000 410.000 L 245.014 411.104 L 245.054 412.208 L 245.122 413.310 L 245.217 414.411 L 245.338 415.508 L 245.487 416.603 L 245.663 417.693 L 245.865 418.779 L 246.093 419.860 L 246.349 420.934 L 246.630 422.002 L 246.938 423.063 L 247.271 424.116 L 247.631 425.160 L 248.015 426.195 L 248.425 427.221 L 248.861 428.236 L 249.320 429.240 L 249.805 430.233 L 250.314 431.213 L 250.846 432.180 L 251.402 433.135 L 251.982 434.075 L 252.584 435.001 L 253.209 435.911 L 253.856 436.806 L 254.524 437.685 L 255.215 438.548 L 255.926 439.393 L 256.657 440.220 L 257.409 441.029 L 258.180 441.820 L 258.971 442.591 L 259.780 443.343 L 260.607 444.074 L 261.452 444.785 L 262.315 445.476 L 263.194 446.144 L 264.089 446.791 L 264.999 447.416 L 265.925 448.018 L 266.865 448.598 L 267.820 449.154 L 268.787 449.686 L 269.767 450.195 L 270.760 450.680 L 271.764 451.139 L 272.779 451.575 L 273.805 451.985 L 274.840 452.369 L 275.884 452.729 L 276.937 453.062 L 277.998 453.370 L 279.066 453.651 L 280.140 453.907 L 281.221 454.135 L 282.307 454.337 L 283.397 454.513 L 284.492 454.662 L 285.589 454.783 L 286.690 454.878 L 287.792 454.946 L 288.896 454.986 L 290.000 455.000 L 369.886 455.000 L 372.701 455.014 L 375.401 455.055 L 378.100 455.123 L 380.797 455.219 L 383.491 455.342 L 386.182 455.491 L 388.868 455.668 L 391.549 455.872 L 394.225 456.104 L 396.895 456.361 L 399.558 456.646 L 402.213 456.958 L 404.860 457.296 L 407.498 457.660 L 410.126 458.051 L 412.743 458.468 L 415.350 458.911 L 417.945 459.380 L 420.528 459.874 L 423.098 460.394 L 425.654 460.940 L 428.195 461.510 L 430.722 462.106 L 433.233 462.726 L 435.727 463.370 L 438.205 464.039 L 440.665 464.731 L 443.107 465.448 L 445.531 466.187 L 447.934 466.950 L 450.318 467.736 L 452.681 468.544 L 455.023 469.374 L 457.343 470.226 L 459.641 471.100 L 461.915 471.995 L 464.166 472.910 L 466.393 473.847 L 468.596 474.803 L 470.773 475.779 L 472.924 476.774 L 475.050 477.788 L 477.148 478.821 L 479.219 479.871 L 481.263 480.940 L 483.278 482.025 L 485.265 483.128 L 487.223 484.246 L 489.151 485.380 L 491.049 486.530 L 492.917 487.695 L 494.754 488.874 L 496.560 490.066 L 498.334 491.273 L 500.077 492.491 L 501.788 493.723 L 503.466 494.966 L 505.111 496.220 L 506.723 497.485 L 508.302 498.761 L 509.847 500.046 L 511.359 501.340 L 512.836 502.643 L 514.280 503.953 L 515.689 505.272 L 517.064 506.597 L 518.404 507.929 L 519.710 509.266 L 520.981 510.609 L 522.217 511.956 L 523.419 513.308 L 524.586 514.664 L 525.718 516.023 L 526.815 517.384 L 527.878 518.748 L 528.906 520.114 L 529.900 521.481 L 530.859 522.848 L 531.785 524.217 L 532.676 525.585 L 533.534 526.953 L 534.358 528.320 L 535.149 529.686 L 535.907 531.051 L 536.632 532.414 L 537.325 533.775 L 537.986 535.134 L 538.614 536.490 L 539.211 537.844 L 539.777 539.195 L 540.312 540.543 L 540.816 541.888 L 541.290 543.230 L 541.734 544.569 L 542.148 545.905 L 542.533 547.237 L 542.890 548.567 L 543.217 549.894 L 543.516 551.218 L 543.787 552.539 L 544.030 553.858 L 544.245 555.175 L 544.433 556.489 L 544.594 557.802 L 544.728 559.113 L 544.834 560.422 L 544.914 561.731 L 544.968 563.039 L 544.994 564.346 L 544.994 565.654 L 544.968 566.961 L 544.914 568.269 L 544.834 569.578 L 544.728 570.887 L 544.594 572.198 L 544.433 573.511 L 544.245 574.825 L 544.030 576.142 L 543.787 577.461 L 543.516 578.782 L 543.217 580.106 L 542.890 581.433 L 542.533 582.763 L 542.148 584.095 L 541.734 585.431 L 541.290 586.770 L 540.816 588.112 L 540.312 589.457 L 539.777 590.805 L 539.211 592.156 L 538.614 593.510 L 537.986 594.866 L 537.325 596.225 L 536.632 597.586 L 535.907 598.949 L 535.149 600.314 L 534.358 601.680 L 533.534 603.047 L 532.676 604.415 L 531.785 605.783 L 530.859 607.152 L 529.900 608.519 L 528.906 609.886 L 527.878 611.252 L 526.815 612.616 L 525.718 613.977 L 524.586 615.336 L 523.419 616.692 L 522.217 618.044 L 520.981 619.391 L 519.710 620.734 L 518.404 622.071 L 517.064 623.403 L 515.689 624.728 L 514.280 626.047 L 512.836 627.357 L 511.359 628.660 L 509.847 629.954 L 508.302 631.239 L 506.723 632.515 L 505.111 633.780 L 503.466 635.034 L 501.788 636.277 L 500.077 637.509 L 498.334 638.727 L 496.560 639.934 L 494.754 641.126 L 492.917 642.305 L 491.049 643.470 L 489.151 644.620 L 487.223 645.754 L 485.265 646.872 L 483.278 647.975 L 481.263 649.060 L 479.219 650.129 L 477.148 651.179 L 475.050 652.212 L 472.924 653.226 L 470.773 654.221 L 468.596 655.197 L 466.393 656.153 L 464.166 657.090 L 461.915 658.005 L 459.641 658.900 L 457.343 659.774 L 455.023 660.626 L 452.681 661.456 L 450.318 662.264 L 447.934 663.050 L 445.531 663.813 L 443.107 664.552 L 440.665 665.269 L 438.205 665.961 L 435.727 666.630 L 433.233 667.274 L 430.722 667.894 L 428.195 668.490 L 425.654 669.060 L 423.098 669.606 L 420.528 670.126 L 417.945 670.620 L 415.350 671.089 L 412.743 671.532 L 410.126 671.949 L 407.498 672.340 L 404.860 672.704 L 402.213 673.042 L 399.558 673.354 L 396.895 673.639 L 394.225 673.896 L 391.549 674.128 L 388.868 674.332 L 386.182 674.509 L 383.491 674.658 L 380.797 674.781 L 378.100 674.877 L 375.401 674.945 L 372.701 674.986 L 369.886 675.000 L 240.000 675.000 L 238.896 675.014 L 237.792 675.054 L 236.690 675.122 L 235.589 675.217 L 234.492 675.338 L 233.397 675.487 L 232.307 675.663 L 231.221 675.865 L 230.140 676.093 L 229.066 676.349 L 227.998 676.630 L 226.937 676.938 L 225.884 677.271 L 224.840 677.631 L 223.805 678.015 L 222.779 678.425 L 221.764 678.861 L 220.760 679.320 L 219.767 679.805 L 218.787 680.314 L 217.820 680.846 L 216.865 681.402 L 215.925 681.982 L 214.999 682.584 L 214.089 683.209 L 213.194 683.856 L 212.315 684.524 L 211.452 685.215 L 210.607 685.926 L 209.780 686.657 L 208.971 687.409 L 208.180 688.180 L 207.409 688.971 L 206.657 689.780 L 205.926 690.607 L 205.215 691.452 L 204.524 692.315 L 203.856 693.194 L 203.209 694.089 L 202.584 694.999 L 201.982 695.925 L 201.402 696.865 L 200.846 697.820 L 200.314 698.787 L 199.805 699.767 L 199.320 700.760 L 198.861 701.764 L 198.425 702.779 L 198.015 703.805 L 197.631 704.840 L 197.271 705.884 L 196.938 706.937 L 196.630 707.998 L 196.349 709.066 L 196.093 710.140 L 195.865 711.221 L 195.663 712.307 L 195.487 713.397 L 195.338 714.492 L 195.217 715.589 L 195.122 716.690 L 195.054 717.792 L 195.014 718.896 L 195.000 720.000 L 195.014 721.104 L 195.054 722.208 L 195.122 723.310 L 195.217 724.411 L 195.338 725.508 L 195.487 726.603 L 195.663 727.693 L 195.865 728.779 L 196.093 729.860 L 196.349 730.934 L 196.630 732.002 L 196.938 733.063 L 197.271 734.116 L 197.631 735.160 L 198.015 736.195 L 198.425 737.221 L 198.861 738.236 L 199.320 739.240 L 199.805 740.233 L 200.314 741.213 L 200.846 742.180 L 201.402 743.135 L 201.982 744.075 L 202.584 745.001 L 203.209 745.911 L 203.856 746.806 L 204.524 747.685 L 205.215 748.548 L 205.926 749.393 L 206.657 750.220 L 207.409 751.029 L 208.180 751.820 L 208.971 752.591 L 209.780 753.343 L 210.607 754.074 L 211.452 754.785 L 212.315 755.476 L 213.194 756.144 L 214.089 756.791 L 214.999 757.416 L 215.925 758.018 L 216.865 758.598 L 217.820 759.154 L 218.787 759.686 L 219.767 760.195 L 220.760 760.680 L 221.764 761.139 L 222.779 761.575 L 223.805 761.985 L 224.840 762.369 L 225.884 762.729 L 226.937 763.062 L 227.998 763.370 L 229.066 763.651 L 230.140 763.907 L 231.221 764.135 L 232.307 764.337 L 233.397 764.513 L 234.492 764.662 L 235.589 764.783 L 236.690 764.878 L 237.792 764.946 L 238.896 764.986 L 240.000 765.000 L 370.000 765.000 L 370.114 764.999 L 370.227 764.999 L 373.383 764.983 L 373.838 764.979 L 376.993 764.931 L 377.448 764.922 L 380.602 764.842 L 381.057 764.828 L 384.209 764.717 L 384.664 764.698 L 387.814 764.555 L 388.269 764.532 L 391.415 764.357 L 391.871 764.329 L 395.013 764.122 L 395.469 764.089 L 398.607 763.851 L 399.063 763.814 L 402.195 763.543 L 402.652 763.501 L 405.779 763.199 L 406.236 763.153 L 409.356 762.819 L 409.814 762.768 L 412.927 762.403 L 413.385 762.347 L 416.490 761.950 L 416.949 761.889 L 420.046 761.461 L 420.505 761.395 L 423.593 760.936 L 424.053 760.865 L 427.132 760.375 L 427.592 760.299 L 430.660 759.778 L 431.122 759.697 L 434.179 759.144 L 434.641 759.058 L 437.687 758.475 L 438.150 758.384 L 441.183 757.770 L 441.647 757.674 L 444.667 757.029 L 445.132 756.927 L 448.139 756.252 L 448.605 756.145 L 451.598 755.440 L 452.065 755.327 L 455.043 754.592 L 455.511 754.474 L 458.474 753.708 L 458.943 753.584 L 461.890 752.789 L 462.360 752.660 L 465.290 751.835 L 465.761 751.699 L 468.675 750.845 L 469.147 750.703 L 472.043 749.819 L 472.516 749.672 L 475.393 748.759 L 475.868 748.606 L 478.726 747.664 L 479.202 747.504 L 482.041 746.533 L 482.518 746.367 L 485.337 745.368 L 485.814 745.195 L 488.613 744.167 L 489.092 743.988 L 491.869 742.932 L 492.349 742.746 L 495.105 741.662 L 495.586 741.470 L 498.319 740.358 L 498.802 740.158 L 501.512 739.019 L 501.996 738.813 L 504.682 737.646 L 505.167 737.432 L 507.830 736.239 L 508.316 736.017 L 510.954 734.797 L 511.441 734.568 L 514.054 733.321 L 514.543 733.084 L 517.130 731.811 L 517.619 731.567 L 520.180 730.268 L 520.671 730.015 L 523.205 728.690 L 523.696 728.430 L 526.204 727.079 L 526.696 726.810 L 529.175 725.434 L 529.668 725.157 L 532.120 723.756 L 532.613 723.470 L 535.036 722.045 L 535.530 721.749 L 537.924 720.300 L 538.419 719.996 L 540.782 718.522 L 541.278 718.208 L 543.611 716.711 L 544.107 716.388 L 546.410 714.867 L 546.906 714.535 L 549.178 712.991 L 549.675 712.648 L 551.914 711.082 L 552.411 710.729 L 554.618 709.140 L 555.115 708.777 L 557.290 707.166 L 557.787 706.793 L 559.929 705.160 L 560.425 704.776 L 562.533 703.121 L 563.029 702.726 L 565.104 701.051 L 565.599 700.645 L 567.639 698.948 L 568.133 698.531 L 570.139 696.815 L 570.632 696.386 L 572.602 694.649 L 573.094 694.209 L 575.028 692.452 L 575.519 692.000 L 577.417 690.224 L 577.906 689.761 L 579.768 687.966 L 580.255 687.490 L 582.080 685.676 L 582.564 685.188 L 584.353 683.356 L 584.834 682.855 L 586.585 681.005 L 587.063 680.492 L 588.776 678.624 L 589.252 678.098 L 590.927 676.213 L 591.398 675.674 L 593.035 673.773 L 593.502 673.221 L 595.100 671.303 L 595.563 670.738 L 597.121 668.805 L 597.580 668.226 L 599.098 666.277 L 599.552 665.685 L 601.031 663.721 L 601.479 663.116 L 602.917 661.137 L 603.359 660.518 L 604.758 658.525 L 605.193 657.892 L 606.551 655.885 L 606.980 655.239 L 608.296 653.219 L 608.718 652.559 L 609.993 650.526 L 610.407 649.853 L 611.640 647.807 L 612.046 647.121 L 613.238 645.062 L 613.634 644.362 L 614.784 642.292 L 615.172 641.579 L 616.279 639.497 L 616.657 638.772 L 617.722 636.679 L 618.089 635.940 L 619.112 633.837 L 619.468 633.086 L 620.448 630.972 L 620.793 630.209 L 621.729 628.085 L 622.063 627.310 L 622.956 625.177 L 623.277 624.390 L 624.127 622.248 L 624.435 621.449 L 625.241 619.299 L 625.536 618.489 L 626.298 616.331 L 626.579 615.510 L 627.297 613.345 L 627.563 612.514 L 628.237 610.342 L 628.489 609.500 L 629.119 607.322 L 629.356 606.471 L 629.941 604.286 L 630.162 603.426 L 630.703 601.236 L 630.908 600.368 L 631.404 598.172 L 631.592 597.296 L 632.043 595.096 L 632.215 594.213 L 632.621 592.008 L 632.776 591.119 L 633.138 588.910 L 633.275 588.015 L 633.591 585.802 L 633.711 584.902 L 633.982 582.687 L 634.083 581.782 L 634.310 579.564 L 634.393 578.656 L 634.574 576.436 L 634.639 575.524 L 634.775 573.303 L 634.821 572.389 L 634.912 570.166 L 634.940 569.251 L 634.985 567.028 L 634.994 566.112 L 634.994 563.888 L 634.985 562.972 L 634.940 560.749 L 634.912 559.834 L 634.821 557.611 L 634.775 556.697 L 634.639 554.476 L 634.574 553.564 L 634.393 551.344 L 634.310 550.436 L 634.083 548.218 L 633.982 547.313 L 633.711 545.098 L 633.591 544.198 L 633.275 541.985 L 633.138 541.090 L 632.776 538.881 L 632.621 537.992 L 632.215 535.787 L 632.043 534.904 L 631.592 532.704 L 631.404 531.828 L 630.908 529.632 L 630.703 528.764 L 630.162 526.574 L 629.941 525.714 L 629.356 523.529 L 629.119 522.678 L 628.489 520.500 L 628.237 519.658 L 627.563 517.486 L 627.297 516.655 L 626.579 514.490 L 626.298 513.669 L 625.536 511.511 L 625.241 510.701 L 624.435 508.551 L 624.127 507.752 L 623.277 505.610 L 622.956 504.823 L 622.063 502.690 L 621.729 501.915 L 620.793 499.791 L 620.448 499.028 L 619.468 496.914 L 619.112 496.163 L 618.089 494.060 L 617.722 493.321 L 616.657 491.228 L 616.279 490.503 L 615.172 488.421 L 614.784 487.708 L 613.634 485.638 L 613.238 484.938 L 612.046 482.879 L 611.640 482.193 L 610.407 480.147 L 609.993 479.474 L 608.718 477.441 L 608.296 476.781 L 606.980 474.761 L 606.551 474.115 L 605.193 472.108 L 604.758 471.475 L 603.359 469.482 L 602.917 468.863 L 601.479 466.884 L 601.031 466.279 L 599.552 464.315 L 599.098 463.723 L 597.580 461.774 L 597.121 461.195 L 595.563 459.262 L 595.100 458.697 L 593.502 456.779 L 593.035 456.227 L 591.398 454.326 L 590.927 453.787 L 589.252 451.902 L 588.776 451.376 L 587.063 449.508 L 586.585 448.995 L 584.834 447.145 L 584.353 446.644 L 582.564 444.812 L 582.080 444.324 L 580.255 442.510 L 579.768 442.034 L 577.906 440.239 L 577.417 439.776 L 575.519 438.000 L 575.028 437.548 L 573.094 435.791 L 572.602 435.351 L 570.632 433.614 L 570.139 433.185 L 568.133 431.469 L 567.639 431.052 L 565.599 429.355 L 565.104 428.949 L 563.029 427.274 L 562.533 426.879 L 560.425 425.224 L 559.929 424.840 L 557.787 423.207 L 557.290 422.834 L 555.115 421.223 L 554.618 420.860 L 552.411 419.271 L 551.914 418.918 L 549.675 417.352 L 549.178 417.009 L 546.906 415.465 L 546.410 415.133 L 544.107 413.612 L 543.611 413.289 L 541.278 411.792 L 540.782 411.478 L 540.464 411.280 L 542.469 410.076 L 542.960 409.777 L 545.263 408.354 L 545.756 408.045 L 548.027 406.601 L 548.521 406.282 L 550.761 404.817 L 551.256 404.488 L 553.464 403.001 L 553.961 402.662 L 556.135 401.154 L 556.633 400.804 L 558.775 399.276 L 559.274 398.915 L 561.383 397.368 L 561.882 396.995 L 563.957 395.428 L 564.457 395.044 L 566.497 393.457 L 566.998 393.062 L 569.003 391.456 L 569.505 391.049 L 571.475 389.424 L 571.976 389.004 L 573.911 387.361 L 574.412 386.929 L 576.310 385.267 L 576.811 384.822 L 578.674 383.143 L 579.174 382.685 L 580.999 380.989 L 581.498 380.517 L 583.287 378.804 L 583.785 378.319 L 585.536 376.588 L 586.032 376.090 L 587.746 374.343 L 588.240 373.831 L 589.915 372.068 L 590.408 371.541 L 592.044 369.763 L 592.534 369.221 L 594.131 367.428 L 594.618 366.872 L 596.176 365.063 L 596.660 364.492 L 598.179 362.669 L 598.658 362.083 L 600.137 360.246 L 600.613 359.645 L 602.051 357.793 L 602.522 357.177 L 603.920 355.312 L 604.386 354.681 L 605.743 352.803 L 606.203 352.155 L 607.519 350.265 L 607.972 349.602 L 609.248 347.699 L 609.694 347.021 L 610.928 345.106 L 611.366 344.412 L 612.558 342.486 L 612.989 341.776 L 614.139 339.838 L 614.561 339.113 L 615.668 337.165 L 616.081 336.423 L 617.146 334.465 L 617.549 333.709 L 618.571 331.741 L 618.963 330.968 L 619.942 328.991 L 620.323 328.204 L 621.259 326.217 L 621.628 325.415 L 622.521 323.420 L 622.877 322.603 L 623.727 320.600 L 624.069 319.769 L 624.875 317.758 L 625.204 316.913 L 625.966 314.895 L 626.280 314.036 L 626.998 312.011 L 627.297 311.140 L 627.971 309.108 L 628.254 308.224 L 628.883 306.186 L 629.150 305.290 L 629.735 303.246 L 629.984 302.340 L 630.525 300.290 L 630.756 299.373 L 631.252 297.319 L 631.466 296.391 L 631.917 294.333 L 632.112 293.396 L 632.518 291.334 L 632.694 290.389 L 633.055 288.323 L 633.211 287.370 L 633.528 285.301 L 633.664 284.342 L 633.935 282.270 L 634.051 281.305 L 634.277 279.230 L 634.372 278.261 L 634.553 276.184 L 634.627 275.211 L 634.763 273.133 L 634.816 272.157 L 634.906 270.077 L 634.938 269.099 L 634.984 267.019 L 634.994 266.040 L 634.994 263.960 L 634.984 262.981 L 634.938 260.901 L 634.906 259.923 L 634.816 257.843 L 634.763 256.867 L 634.627 254.789 L 634.553 253.816 L 634.372 251.739 L 634.277 250.770 L 634.051 248.695 L 633.935 247.730 L 633.664 245.658 L 633.528 244.699 L 633.211 242.630 L 633.055 241.677 L 632.694 239.611 L 632.518 238.666 L 632.112 236.604 L 631.917 235.667 L 631.466 233.609 L 631.252 232.681 L 630.756 230.627 L 630.525 229.710 L 629.984 227.660 L 629.735 226.754 L 629.150 224.710 L 628.883 223.814 L 628.254 221.776 L 627.971 220.892 L 627.297 218.860 L 626.998 217.989 L 626.280 215.964 L 625.966 215.105 L 625.204 213.087 L 624.875 212.242 L 624.069 210.231 L 623.727 209.400 L 622.877 207.397 L 622.521 206.580 L 621.628 204.585 L 621.259 203.783 L 620.323 201.796 L 619.942 201.009 L 618.963 199.032 L 618.571 198.259 L 617.549 196.291 L 617.146 195.535 L 616.081 193.577 L 615.668 192.835 L 614.561 190.887 L 614.139 190.162 L 612.989 188.224 L 612.558 187.514 L 611.366 185.588 L 610.928 184.894 L 609.694 182.979 L 609.248 182.301 L 607.972 180.398 L 607.519 179.735 L 606.203 177.845 L 605.743 177.197 L 604.386 175.319 L 603.920 174.688 L 602.522 172.823 L 602.051 172.207 L 600.613 170.355 L 600.137 169.754 L 598.658 167.917 L 598.179 167.331 L 596.660 165.508 L 596.176 164.937 L 594.618 163.128 L 594.131 162.572 L 592.534 160.779 L 592.044 160.237 L 590.408 158.459 L 589.915 157.932 L 588.240 156.169 L 587.746 155.657 L 586.032 153.910 L 585.536 153.412 L 583.785 151.681 L 583.287 151.196 L 581.498 149.483 L 580.999 149.011 L 579.174 147.315 L 578.674 146.857 L 576.811 145.178 L 576.310 144.733 L 574.412 143.071 L 573.911 142.639 L 571.976 140.996 L 571.475 140.576 L 569.505 138.951 L 569.003 138.544 L 566.998 136.938 L 566.497 136.543 L 564.457 134.956 L 563.957 134.572 L 561.882 133.005 L 561.383 132.632 L 559.274 131.085 L 558.775 130.724 L 556.633 129.196 L 556.135 128.846 L 553.961 127.338 L 553.464 126.999 L 551.256 125.512 L 550.761 125.183 L 548.521 123.718 L 548.027 123.399 L 545.756 121.955 L 545.263 121.646 L 542.960 120.223 L 542.469 119.924 L 540.136 118.523 L 539.646 118.234 L 537.283 116.855 L 536.794 116.574 L 534.401 115.218 L 533.915 114.947 L 531.492 113.614 L 531.008 113.351 L 528.557 112.041 L 528.074 111.786 L 525.594 110.499 L 525.113 110.253 L 522.606 108.990 L 522.127 108.752 L 519.592 107.513 L 519.115 107.283 L 516.554 106.067 L 516.079 105.845 L 513.491 104.654 L 513.018 104.440 L 510.405 103.273 L 509.933 103.066 L 507.295 101.924 L 506.825 101.724 L 504.163 100.608 L 503.695 100.414 L 501.008 99.323 L 500.542 99.137 L 497.832 98.071 L 497.368 97.892 L 494.635 96.852 L 494.173 96.679 L 491.417 95.665 L 490.957 95.498 L 488.179 94.510 L 487.721 94.350 L 484.922 93.388 L 484.466 93.234 L 481.647 92.299 L 481.191 92.151 L 478.352 91.242 L 477.899 91.100 L 475.040 90.219 L 474.589 90.082 L 471.711 89.228 L 471.261 89.097 L 468.365 88.270 L 467.917 88.144 L 465.003 87.345 L 464.556 87.225 L 461.626 86.453 L 461.180 86.338 L 458.233 85.594 L 457.789 85.484 L 454.826 84.768 L 454.384 84.664 L 451.405 83.976 L 450.964 83.876 L 447.971 83.216 L 447.531 83.122 L 444.524 82.490 L 444.086 82.400 L 441.065 81.797 L 440.628 81.712 L 437.594 81.138 L 437.158 81.058 L 434.113 80.512 L 433.677 80.436 L 430.620 79.920 L 430.186 79.849 L 427.118 79.361 L 426.685 79.294 L 423.607 78.835 L 423.175 78.773 L 420.087 78.344 L 419.655 78.286 L 416.558 77.885 L 416.128 77.832 L 413.023 77.461 L 412.593 77.412 L 409.480 77.070 L 409.051 77.025 L 405.930 76.713 L 405.502 76.672 L 402.375 76.389 L 401.947 76.353 L 398.815 76.100 L 398.387 76.067 L 395.250 75.844 L 394.823 75.816 L 391.681 75.622 L 391.254 75.598 L 388.108 75.434 L 387.682 75.414 L 384.532 75.279 L 384.106 75.263 L 380.954 75.159 L 380.529 75.147 L 377.375 75.072 L 376.949 75.064 L 373.794 75.019 L 373.369 75.015 L 370.213 75.001 L 370.106 75.001 L 370.000 75.000 L 240.000 75.000 Z" fill="black" fill-rule="evenodd"/>
</svg>
