<svg xmlns="http://www.w3.org/2000/svg" viewBox="0 0 700.000 1000" width="700.000" height="1000">
  <path d="M 233.395 242.756 L 233.439 240.831 L 233.500 238.907 L 233.579 236.984 L 233.675 235.062 L 233.789 233.142 L 233.919 231.224 L 234.068 229.308 L 234.233 227.395 L 234.416 225.484 L 234.617 223.576 L 234.834 221.672 L 235.069 219.771 L 235.321 217.874 L 235.589 215.982 L 235.875 214.093 L 236.178 212.209 L 236.498 210.331 L 236.835 208.457 L 237.189 206.589 L 237.559 204.727 L 237.946 202.870 L 238.350 201.020 L 238.770 199.176 L 239.207 197.340 L 239.660 195.510 L 240.129 193.687 L 240.615 191.872 L 241.116 190.065 L 241.634 188.266 L 242.168 186.475 L 242.717 184.693 L 243.282 182.920 L 243.862 181.155 L 244.458 179.400 L 245.070 177.654 L 245.696 175.919 L 246.338 174.193 L 246.995 172.477 L 247.666 170.772 L 248.353 169.078 L 249.054 167.394 L 249.769 165.722 L 250.499 164.061 L 251.243 162.412 L 252.001 160.774 L 252.773 159.148 L 253.559 157.535 L 254.358 155.934 L 255.171 154.346 L 255.997 152.771 L 256.836 151.208 L 257.689 149.659 L 258.554 148.124 L 259.432 146.602 L 260.322 145.093 L 261.225 143.599 L 262.140 142.119 L 263.067 140.653 L 264.005 139.202 L 264.956 137.766 L 265.918 136.344 L 266.891 134.937 L 267.875 133.546 L 268.870 132.170 L 269.876 130.809 L 270.893 129.464 L 271.920 128.135 L 272.957 126.822 L 274.005 125.525 L 275.062 124.243 L 276.129 122.979 L 277.205 121.730 L 278.290 120.499 L 279.385 119.284 L 280.489 118.085 L 281.601 116.904 L 282.722 115.739 L 283.851 114.592 L 284.988 113.462 L 286.133 112.349 L 287.286 111.253 L 288.447 110.175 L 289.615 109.115 L 290.790 108.072 L 291.972 107.046 L 293.161 106.039 L 294.357 105.049 L 295.559 104.077 L 296.767 103.123 L 297.982 102.187 L 299.202 101.269 L 300.428 100.369 L 301.660 99.487 L 302.897 98.623 L 304.139 97.777 L 305.386 96.949 L 306.639 96.140 L 307.895 95.349 L 309.157 94.576 L 310.423 93.821 L 311.692 93.085 L 312.967 92.367 L 314.244 91.667 L 315.526 90.985 L 316.811 90.322 L 318.100 89.677 L 319.392 89.050 L 320.687 88.441 L 321.986 87.851 L 323.287 87.279 L 324.591 86.725 L 325.897 86.190 L 327.206 85.672 L 328.518 85.173 L 329.831 84.692 L 331.147 84.229 L 332.465 83.784 L 333.785 83.358 L 335.107 82.949 L 336.430 82.559 L 337.755 82.186 L 339.082 81.832 L 340.410 81.495 L 341.739 81.176 L 343.069 80.876 L 344.401 80.593 L 345.734 80.328 L 347.068 80.081 L 348.402 79.852 L 349.738 79.641 L 351.074 79.448 L 352.411 79.272 L 353.749 79.114 L 355.087 78.974 L 356.426 78.852 L 357.765 78.747 L 359.104 78.660 L 360.444 78.591 L 361.784 78.540 L 363.124 78.506 L 364.464 78.490 L 365.804 78.492 L 367.144 78.512 L 368.484 78.549 L 369.824 78.604 L 371.164 78.676 L 372.503 78.767 L 373.842 78.875 L 375.181 79.001 L 376.519 79.144 L 377.856 79.306 L 379.193 79.485 L 380.529 79.682 L 381.865 79.897 L 383.199 80.129 L 384.533 80.380 L 385.865 80.648 L 387.197 80.935 L 388.527 81.239 L 389.856 81.561 L 391.184 81.901 L 392.510 82.259 L 393.835 82.635 L 395.158 83.029 L 396.479 83.442 L 397.799 83.872 L 399.116 84.320 L 400.432 84.787 L 401.745 85.272 L 403.056 85.774 L 404.364 86.295 L 405.670 86.835 L 406.974 87.392 L 408.274 87.968 L 409.572 88.562 L 410.866 89.174 L 412.158 89.804 L 413.446 90.453 L 414.731 91.120 L 416.011 91.805 L 417.289 92.509 L 418.562 93.231 L 419.831 93.971 L 421.096 94.729 L 422.356 95.506 L 423.612 96.300 L 424.863 97.113 L 426.110 97.945 L 427.351 98.794 L 428.587 99.661 L 429.818 100.547 L 431.043 101.451 L 432.262 102.373 L 433.475 103.312 L 434.682 104.270 L 435.883 105.245 L 437.077 106.239 L 438.265 107.250 L 439.446 108.279 L 440.619 109.325 L 441.786 110.389 L 442.945 111.471 L 444.096 112.570 L 445.240 113.686 L 446.376 114.820 L 447.503 115.971 L 448.622 117.139 L 449.733 118.324 L 450.835 119.525 L 451.927 120.744 L 453.011 121.979 L 454.086 123.230 L 455.150 124.498 L 456.206 125.783 L 457.251 127.083 L 458.286 128.400 L 459.311 129.732 L 460.326 131.080 L 461.330 132.444 L 462.323 133.823 L 463.305 135.218 L 464.276 136.627 L 465.235 138.052 L 466.183 139.491 L 467.120 140.945 L 468.044 142.414 L 468.957 143.897 L 469.857 145.394 L 470.745 146.905 L 471.620 148.430 L 472.483 149.968 L 473.332 151.520 L 474.169 153.085 L 474.993 154.663 L 475.803 156.253 L 476.599 157.857 L 477.479 159.672 L 477.973 160.660 L 478.491 161.635 L 479.032 162.598 L 479.598 163.547 L 480.186 164.482 L 480.797 165.402 L 481.430 166.306 L 482.086 167.195 L 482.763 168.068 L 483.461 168.924 L 484.180 169.762 L 484.919 170.582 L 485.679 171.384 L 486.457 172.167 L 487.255 172.931 L 488.071 173.675 L 488.906 174.399 L 489.757 175.102 L 490.626 175.784 L 491.511 176.444 L 492.413 177.083 L 493.329 177.699 L 494.261 178.293 L 495.206 178.863 L 496.166 179.410 L 497.138 179.933 L 498.123 180.433 L 499.121 180.908 L 500.129 181.358 L 501.148 181.784 L 502.177 182.184 L 503.216 182.559 L 504.264 182.908 L 505.320 183.232 L 506.384 183.530 L 507.454 183.801 L 508.531 184.046 L 509.614 184.264 L 510.701 184.456 L 511.793 184.621 L 512.889 184.760 L 513.988 184.871 L 515.089 184.955 L 516.192 185.013 L 517.296 185.043 L 518.401 185.046 L 519.505 185.022 L 520.608 184.971 L 521.710 184.893 L 522.809 184.788 L 523.906 184.655 L 524.999 184.496 L 526.087 184.311 L 527.171 184.098 L 528.249 183.859 L 529.321 183.594 L 530.387 183.302 L 531.444 182.985 L 532.494 182.641 L 533.535 182.272 L 534.567 181.878 L 535.588 181.458 L 536.599 181.013 L 537.599 180.544 L 538.587 180.050 L 539.562 179.532 L 540.525 178.990 L 541.474 178.425 L 542.408 177.837 L 543.328 177.226 L 544.233 176.592 L 545.122 175.937 L 545.995 175.260 L 546.850 174.562 L 547.689 173.843 L 548.509 173.103 L 549.311 172.344 L 550.094 171.565 L 550.858 170.768 L 551.602 169.951 L 552.326 169.117 L 553.029 168.265 L 553.711 167.396 L 554.371 166.511 L 555.010 165.610 L 555.626 164.693 L 556.219 163.762 L 556.790 162.816 L 557.337 161.857 L 557.860 160.884 L 558.359 159.899 L 558.834 158.902 L 559.285 157.894 L 559.710 156.875 L 560.111 155.845 L 560.486 154.806 L 560.835 153.759 L 561.159 152.703 L 561.456 151.639 L 561.728 150.569 L 561.973 149.492 L 562.191 148.409 L 562.383 147.321 L 562.548 146.229 L 562.686 145.134 L 562.798 144.035 L 562.882 142.934 L 562.939 141.831 L 562.970 140.727 L 562.973 139.622 L 562.949 138.518 L 562.898 137.415 L 562.819 136.313 L 562.714 135.214 L 562.582 134.117 L 562.423 133.024 L 562.237 131.936 L 562.025 130.852 L 561.786 129.773 L 561.521 128.701 L 561.229 127.636 L 560.912 126.578 L 560.568 125.529 L 560.199 124.488 L 559.804 123.456 L 559.384 122.435 L 558.940 121.424 L 558.470 120.424 L 557.494 118.409 L 557.298 118.009 L 556.303 116.007 L 556.103 115.609 L 555.090 113.620 L 554.884 113.222 L 553.853 111.246 L 553.644 110.849 L 552.595 108.887 L 552.380 108.491 L 551.314 106.543 L 551.095 106.147 L 550.010 104.214 L 549.786 103.819 L 548.685 101.900 L 548.456 101.506 L 547.337 99.602 L 547.103 99.209 L 545.967 97.319 L 545.728 96.927 L 544.575 95.053 L 544.332 94.662 L 543.161 92.803 L 542.913 92.413 L 541.726 90.569 L 541.473 90.180 L 540.269 88.353 L 540.011 87.965 L 538.791 86.153 L 538.527 85.767 L 537.291 83.972 L 537.022 83.586 L 535.769 81.807 L 535.496 81.424 L 534.227 79.661 L 533.949 79.279 L 532.664 77.533 L 532.380 77.153 L 531.080 75.424 L 530.791 75.045 L 529.475 73.334 L 529.181 72.956 L 527.849 71.262 L 527.550 70.886 L 526.203 69.210 L 525.898 68.836 L 524.536 67.178 L 524.227 66.805 L 522.849 65.165 L 522.535 64.794 L 521.143 63.173 L 520.822 62.804 L 519.416 61.201 L 519.090 60.834 L 517.669 59.249 L 517.338 58.884 L 515.903 57.319 L 515.567 56.956 L 514.117 55.410 L 513.776 55.049 L 512.312 53.522 L 511.965 53.164 L 510.488 51.656 L 510.136 51.300 L 508.645 49.812 L 508.287 49.459 L 506.783 47.991 L 506.419 47.640 L 504.902 46.192 L 504.533 45.844 L 503.003 44.415 L 502.628 44.070 L 501.085 42.662 L 500.705 42.320 L 499.149 40.932 L 498.764 40.593 L 497.196 39.226 L 496.805 38.890 L 495.224 37.544 L 494.828 37.211 L 493.235 35.886 L 492.834 35.556 L 491.229 34.252 L 490.822 33.925 L 489.205 32.642 L 488.793 32.319 L 487.165 31.058 L 486.747 30.739 L 485.107 29.499 L 484.684 29.183 L 483.033 27.965 L 482.605 27.653 L 480.943 26.457 L 480.509 26.149 L 478.837 24.975 L 478.398 24.670 L 476.715 23.519 L 476.270 23.218 L 474.577 22.089 L 474.127 21.793 L 472.424 20.686 L 471.969 20.394 L 470.255 19.310 L 469.795 19.023 L 468.072 17.961 L 467.607 17.678 L 465.874 16.639 L 465.403 16.361 L 463.661 15.345 L 463.186 15.072 L 461.435 14.079 L 460.954 13.811 L 459.194 12.841 L 458.709 12.578 L 456.940 11.631 L 456.449 11.373 L 454.672 10.450 L 454.177 10.197 L 452.391 9.298 L 451.891 9.050 L 450.098 8.174 L 449.593 7.932 L 447.792 7.080 L 447.283 6.843 L 445.474 6.015 L 444.960 5.784 L 443.143 4.980 L 442.625 4.754 L 440.801 3.974 L 440.279 3.754 L 438.448 2.999 L 437.922 2.785 L 436.084 2.053 L 435.553 1.846 L 433.709 1.139 L 433.174 0.937 L 431.324 0.254 L 430.785 0.059 L 428.929 -0.599 L 428.386 -0.788 L 426.524 -1.421 L 425.977 -1.604 L 424.109 -2.213 L 423.559 -2.388 L 421.686 -2.973 L 421.132 -3.141 L 419.253 -3.701 L 418.696 -3.863 L 416.813 -4.398 L 416.253 -4.553 L 414.364 -5.063 L 413.801 -5.211 L 411.908 -5.696 L 411.342 -5.837 L 409.445 -6.297 L 408.875 -6.431 L 406.974 -6.866 L 406.402 -6.993 L 404.497 -7.402 L 403.923 -7.522 L 402.014 -7.907 L 401.437 -8.019 L 399.525 -8.378 L 398.946 -8.483 L 397.031 -8.817 L 396.449 -8.914 L 394.531 -9.223 L 393.948 -9.313 L 392.027 -9.596 L 391.442 -9.678 L 389.519 -9.936 L 388.932 -10.011 L 387.007 -10.243 L 386.418 -10.310 L 384.491 -10.517 L 383.901 -10.576 L 381.972 -10.758 L 381.381 -10.809 L 379.450 -10.965 L 378.858 -11.009 L 376.926 -11.139 L 376.333 -11.175 L 374.400 -11.280 L 373.807 -11.309 L 371.873 -11.388 L 371.279 -11.408 L 369.344 -11.462 L 368.750 -11.475 L 366.815 -11.503 L 366.220 -11.507 L 364.286 -11.510 L 363.691 -11.507 L 361.756 -11.484 L 361.161 -11.473 L 359.227 -11.424 L 358.633 -11.405 L 356.699 -11.331 L 356.105 -11.304 L 354.172 -11.205 L 353.579 -11.170 L 351.647 -11.045 L 351.054 -11.003 L 349.124 -10.852 L 348.532 -10.802 L 346.603 -10.626 L 346.013 -10.568 L 344.085 -10.366 L 343.496 -10.300 L 341.571 -10.073 L 340.983 -10.000 L 339.060 -9.747 L 338.474 -9.666 L 336.553 -9.388 L 335.969 -9.300 L 334.051 -8.996 L 333.469 -8.901 L 331.553 -8.572 L 330.973 -8.468 L 329.061 -8.114 L 328.483 -8.003 L 326.574 -7.624 L 325.999 -7.506 L 324.093 -7.101 L 323.521 -6.976 L 321.619 -6.546 L 321.049 -6.414 L 319.151 -5.959 L 318.584 -5.819 L 316.690 -5.339 L 316.126 -5.192 L 314.237 -4.687 L 313.676 -4.534 L 311.792 -4.004 L 311.234 -3.843 L 309.355 -3.288 L 308.800 -3.121 L 306.926 -2.541 L 306.375 -2.367 L 304.506 -1.763 L 303.959 -1.582 L 302.095 -0.953 L 301.552 -0.766 L 299.694 -0.112 L 299.154 0.081 L 297.303 0.759 L 296.767 0.959 L 294.922 1.662 L 294.390 1.868 L 292.551 2.595 L 292.024 2.807 L 290.192 3.558 L 289.668 3.777 L 287.843 4.552 L 287.324 4.776 L 285.506 5.575 L 284.992 5.805 L 283.181 6.629 L 282.671 6.864 L 280.868 7.711 L 280.362 7.953 L 278.567 8.824 L 278.066 9.071 L 276.279 9.965 L 275.783 10.217 L 274.004 11.135 L 273.513 11.393 L 271.742 12.334 L 271.256 12.597 L 269.494 13.562 L 269.012 13.829 L 267.259 14.817 L 266.783 15.090 L 265.039 16.101 L 264.568 16.378 L 262.833 17.413 L 262.367 17.694 L 260.641 18.752 L 260.180 19.038 L 258.465 20.118 L 258.009 20.409 L 256.303 21.511 L 255.853 21.806 L 254.157 22.931 L 253.712 23.231 L 252.026 24.378 L 251.586 24.682 L 249.912 25.851 L 249.477 26.159 L 247.813 27.350 L 247.383 27.661 L 245.730 28.875 L 245.306 29.190 L 243.664 30.425 L 243.245 30.744 L 241.615 32.001 L 241.202 32.324 L 239.583 33.602 L 239.175 33.928 L 237.567 35.228 L 237.165 35.557 L 235.569 36.878 L 235.172 37.210 L 233.589 38.552 L 233.197 38.888 L 231.626 40.250 L 231.240 40.589 L 229.681 41.973 L 229.301 42.314 L 227.755 43.718 L 227.379 44.063 L 225.846 45.487 L 225.476 45.835 L 223.956 47.279 L 223.592 47.629 L 222.085 49.093 L 221.726 49.446 L 220.233 50.930 L 219.879 51.286 L 218.399 52.789 L 218.051 53.147 L 216.585 54.670 L 216.242 55.030 L 214.790 56.573 L 214.453 56.935 L 213.014 58.497 L 212.682 58.861 L 211.258 60.442 L 210.932 60.809 L 209.522 62.408 L 209.201 62.777 L 207.806 64.394 L 207.490 64.765 L 206.110 66.401 L 205.799 66.774 L 204.434 68.428 L 204.129 68.802 L 202.779 70.474 L 202.479 70.850 L 201.144 72.540 L 200.849 72.918 L 199.530 74.625 L 199.240 75.005 L 197.936 76.729 L 197.651 77.110 L 196.363 78.852 L 196.084 79.234 L 194.812 80.993 L 194.537 81.377 L 193.281 83.152 L 193.012 83.537 L 191.772 85.330 L 191.508 85.716 L 190.284 87.524 L 190.025 87.912 L 188.818 89.736 L 188.564 90.125 L 187.373 91.965 L 187.124 92.355 L 185.950 94.211 L 185.706 94.601 L 184.549 96.473 L 184.310 96.865 L 183.170 98.751 L 182.935 99.144 L 181.813 101.045 L 181.583 101.439 L 180.478 103.355 L 180.253 103.750 L 179.165 105.681 L 178.945 106.076 L 177.875 108.021 L 177.660 108.417 L 176.607 110.376 L 176.396 110.773 L 175.362 112.746 L 175.156 113.144 L 174.139 115.130 L 173.938 115.529 L 172.939 117.528 L 172.743 117.927 L 171.762 119.940 L 171.570 120.340 L 170.608 122.365 L 170.420 122.766 L 169.477 124.804 L 169.294 125.205 L 168.369 127.255 L 168.190 127.656 L 167.284 129.719 L 167.110 130.121 L 166.222 132.195 L 166.052 132.598 L 165.184 134.684 L 165.018 135.086 L 164.169 137.184 L 164.008 137.587 L 163.177 139.696 L 163.020 140.099 L 162.209 142.218 L 162.057 142.622 L 161.265 144.752 L 161.117 145.157 L 160.344 147.297 L 160.200 147.702 L 159.447 149.852 L 159.307 150.257 L 158.574 152.417 L 158.438 152.822 L 157.724 154.992 L 157.593 155.398 L 156.899 157.577 L 156.772 157.982 L 156.097 160.171 L 155.974 160.577 L 155.320 162.773 L 155.201 163.180 L 154.566 165.385 L 154.451 165.791 L 153.837 168.005 L 153.726 168.412 L 153.132 170.633 L 153.025 171.040 L 152.451 173.270 L 152.348 173.676 L 151.794 175.913 L 151.696 176.320 L 151.162 178.564 L 151.067 178.972 L 150.554 181.223 L 150.463 181.630 L 149.971 183.887 L 149.884 184.295 L 149.412 186.559 L 149.329 186.967 L 148.877 189.237 L 148.798 189.644 L 148.367 191.920 L 148.292 192.328 L 147.882 194.609 L 147.811 195.017 L 147.421 197.304 L 147.354 197.712 L 146.985 200.004 L 146.921 200.412 L 146.573 202.708 L 146.514 203.116 L 146.187 205.417 L 146.130 205.825 L 145.824 208.131 L 145.772 208.539 L 145.487 210.848 L 145.439 211.256 L 145.174 213.569 L 145.130 213.977 L 144.887 216.293 L 144.846 216.701 L 144.624 219.020 L 144.586 219.429 L 144.385 221.751 L 144.352 222.159 L 144.172 224.483 L 144.142 224.892 L 143.983 227.219 L 143.957 227.627 L 143.820 229.956 L 143.798 230.364 L 143.681 232.694 L 143.662 233.103 L 143.567 235.435 L 143.552 235.843 L 143.478 238.176 L 143.467 238.584 L 143.414 240.918 L 143.407 241.327 L 143.375 243.661 L 143.371 244.069 L 143.360 246.404 L 143.361 246.506 L 143.360 246.608 L 143.360 552.080 L 143.362 552.270 L 143.362 552.538 L 143.416 557.768 L 143.434 558.683 L 143.594 563.910 L 143.631 564.826 L 143.897 570.047 L 143.953 570.962 L 144.325 576.173 L 144.399 577.088 L 144.877 582.287 L 144.971 583.202 L 145.554 588.385 L 145.667 589.300 L 146.355 594.464 L 146.487 595.378 L 147.281 600.521 L 147.431 601.435 L 148.329 606.552 L 148.499 607.466 L 149.501 612.555 L 149.690 613.468 L 150.795 618.526 L 151.005 619.438 L 152.212 624.462 L 152.441 625.374 L 153.751 630.360 L 154.000 631.271 L 155.410 636.217 L 155.680 637.127 L 157.191 642.030 L 157.481 642.939 L 159.091 647.796 L 159.403 648.703 L 161.111 653.510 L 161.444 654.416 L 163.249 659.172 L 163.603 660.076 L 165.505 664.776 L 165.881 665.678 L 167.878 670.321 L 168.276 671.221 L 170.367 675.803 L 170.788 676.700 L 172.971 681.219 L 173.415 682.113 L 175.689 686.566 L 176.156 687.456 L 178.520 691.841 L 179.011 692.727 L 181.464 697.040 L 181.979 697.922 L 184.519 702.162 L 185.058 703.039 L 187.683 707.202 L 188.247 708.073 L 190.956 712.157 L 191.545 713.023 L 194.336 717.026 L 194.951 717.885 L 197.822 721.803 L 198.463 722.656 L 201.413 726.488 L 202.079 727.332 L 205.107 731.076 L 205.800 731.911 L 208.903 735.564 L 209.622 736.390 L 212.798 739.950 L 213.544 740.766 L 216.792 744.231 L 217.565 745.035 L 220.882 748.403 L 221.682 749.195 L 225.067 752.464 L 225.894 753.243 L 229.344 756.410 L 230.199 757.175 L 233.713 760.239 L 234.595 760.988 L 238.170 763.947 L 239.079 764.681 L 242.713 767.533 L 243.650 768.249 L 247.341 770.993 L 248.305 771.689 L 252.050 774.323 L 253.041 775.000 L 256.839 777.522 L 257.855 778.178 L 261.704 780.587 L 262.747 781.220 L 266.643 783.515 L 267.711 784.124 L 271.652 786.302 L 272.746 786.887 L 276.730 788.948 L 277.848 789.506 L 281.873 791.448 L 283.014 791.979 L 287.077 793.802 L 288.241 794.304 L 292.340 796.005 L 293.525 796.478 L 297.658 798.057 L 298.863 798.498 L 303.026 799.955 L 304.251 800.364 L 308.443 801.697 L 309.685 802.072 L 313.903 803.281 L 315.161 803.622 L 319.403 804.705 L 320.676 805.011 L 324.938 805.968 L 326.226 806.238 L 330.506 807.069 L 331.805 807.301 L 336.100 808.005 L 337.410 808.200 L 341.718 808.776 L 343.036 808.933 L 347.355 809.382 L 348.679 809.499 L 353.006 809.820 L 354.335 809.899 L 358.667 810.091 L 359.999 810.131 L 364.334 810.195 L 365.666 810.195 L 370.001 810.131 L 371.333 810.091 L 375.665 809.899 L 376.994 809.820 L 381.321 809.499 L 382.645 809.382 L 386.964 808.933 L 388.282 808.776 L 392.590 808.200 L 393.900 808.005 L 398.195 807.301 L 399.494 807.069 L 403.774 806.238 L 405.062 805.968 L 409.324 805.011 L 410.597 804.705 L 414.839 803.622 L 416.097 803.281 L 420.315 802.072 L 421.557 801.697 L 425.749 800.364 L 426.974 799.955 L 431.137 798.498 L 432.342 798.057 L 436.475 796.478 L 437.660 796.005 L 441.759 794.304 L 442.923 793.802 L 446.986 791.979 L 448.127 791.448 L 452.152 789.506 L 453.270 788.948 L 457.254 786.887 L 458.348 786.302 L 462.289 784.124 L 463.357 783.515 L 467.253 781.220 L 468.296 780.587 L 472.145 778.178 L 473.161 777.522 L 476.959 775.000 L 477.950 774.323 L 481.695 771.689 L 482.659 770.993 L 486.350 768.249 L 487.287 767.533 L 490.921 764.681 L 491.830 763.947 L 495.405 760.988 L 496.287 760.239 L 499.801 757.175 L 500.656 756.410 L 504.106 753.243 L 504.933 752.464 L 508.318 749.195 L 509.118 748.403 L 512.435 745.035 L 513.208 744.231 L 516.456 740.766 L 517.202 739.950 L 520.378 736.390 L 521.097 735.564 L 524.200 731.911 L 524.893 731.076 L 527.921 727.332 L 528.587 726.488 L 531.537 722.656 L 532.178 721.803 L 535.049 717.885 L 535.664 717.026 L 538.455 713.023 L 539.044 712.157 L 541.753 708.073 L 542.317 707.202 L 544.942 703.039 L 545.481 702.162 L 548.021 697.922 L 548.536 697.040 L 550.989 692.727 L 551.480 691.841 L 553.844 687.456 L 554.311 686.566 L 556.585 682.113 L 557.029 681.219 L 559.212 676.700 L 559.633 675.803 L 561.724 671.221 L 562.122 670.321 L 564.119 665.678 L 564.495 664.776 L 566.397 660.076 L 566.751 659.172 L 568.556 654.416 L 568.889 653.510 L 570.597 648.703 L 570.909 647.796 L 572.519 642.939 L 572.809 642.030 L 574.320 637.127 L 574.590 636.217 L 576.000 631.271 L 576.249 630.360 L 577.559 625.374 L 577.788 624.462 L 578.995 619.438 L 579.205 618.526 L 580.310 613.468 L 580.499 612.555 L 581.501 607.466 L 581.671 606.552 L 582.569 601.435 L 582.719 600.521 L 583.513 595.378 L 583.645 594.464 L 584.333 589.300 L 584.446 588.385 L 585.029 583.202 L 585.123 582.287 L 585.601 577.088 L 585.675 576.173 L 586.047 570.962 L 586.103 570.047 L 586.369 564.826 L 586.406 563.910 L 586.566 558.683 L 586.584 557.768 L 586.638 552.538 L 586.638 551.622 L 586.584 546.392 L 586.566 545.477 L 586.406 540.250 L 586.369 539.334 L 586.103 534.113 L 586.047 533.198 L 585.675 527.987 L 585.601 527.072 L 585.123 521.873 L 585.029 520.958 L 584.446 515.775 L 584.333 514.860 L 583.645 509.696 L 583.513 508.782 L 582.719 503.639 L 582.569 502.725 L 581.671 497.608 L 581.501 496.694 L 580.499 491.605 L 580.310 490.692 L 579.205 485.634 L 578.995 484.722 L 577.788 479.698 L 577.559 478.786 L 576.249 473.800 L 576.000 472.889 L 574.590 467.943 L 574.320 467.033 L 572.809 462.130 L 572.519 461.221 L 570.909 456.364 L 570.597 455.457 L 568.889 450.650 L 568.556 449.744 L 566.751 444.988 L 566.397 444.084 L 564.495 439.384 L 564.119 438.482 L 562.122 433.839 L 561.724 432.939 L 559.633 428.357 L 559.212 427.460 L 557.029 422.941 L 556.585 422.047 L 554.311 417.594 L 553.844 416.704 L 551.480 412.319 L 550.989 411.433 L 548.536 407.120 L 548.021 406.238 L 545.481 401.998 L 544.942 401.121 L 542.317 396.958 L 541.753 396.087 L 539.044 392.003 L 538.455 391.137 L 535.664 387.134 L 535.049 386.275 L 532.178 382.357 L 531.537 381.504 L 528.587 377.672 L 527.921 376.828 L 524.893 373.084 L 524.200 372.249 L 521.097 368.596 L 520.378 367.770 L 517.202 364.210 L 516.456 363.394 L 513.208 359.929 L 512.435 359.125 L 509.118 355.757 L 508.318 354.965 L 504.933 351.696 L 504.106 350.917 L 500.656 347.750 L 499.801 346.985 L 496.287 343.921 L 495.405 343.172 L 491.830 340.213 L 490.921 339.479 L 487.287 336.627 L 486.350 335.911 L 482.659 333.167 L 481.695 332.471 L 477.950 329.837 L 476.959 329.160 L 473.161 326.638 L 472.145 325.982 L 468.296 323.573 L 467.253 322.940 L 463.357 320.645 L 462.289 320.036 L 458.348 317.858 L 457.254 317.273 L 453.270 315.212 L 452.152 314.654 L 448.127 312.712 L 446.986 312.181 L 442.923 310.358 L 441.759 309.856 L 437.660 308.155 L 436.475 307.682 L 432.342 306.103 L 431.137 305.662 L 426.974 304.205 L 425.749 303.796 L 421.557 302.463 L 420.315 302.088 L 416.097 300.879 L 414.839 300.538 L 410.597 299.455 L 409.324 299.149 L 405.062 298.192 L 403.774 297.922 L 399.494 297.091 L 398.195 296.859 L 393.900 296.155 L 392.590 295.960 L 388.282 295.384 L 386.964 295.227 L 382.645 294.778 L 381.321 294.661 L 376.994 294.340 L 375.665 294.261 L 371.333 294.069 L 370.001 294.029 L 365.666 293.965 L 364.334 293.965 L 359.999 294.029 L 358.667 294.069 L 354.335 294.261 L 353.006 294.340 L 348.679 294.661 L 347.355 294.778 L 343.036 295.227 L 341.718 295.384 L 337.410 295.960 L 336.100 296.155 L 331.805 296.859 L 330.506 297.091 L 326.226 297.922 L 324.938 298.192 L 320.676 299.149 L 319.403 299.455 L 315.161 300.538 L 313.903 300.879 L 309.685 302.088 L 308.443 302.463 L 304.251 303.796 L 303.026 304.205 L 298.863 305.662 L 297.658 306.103 L 293.525 307.682 L 292.340 308.155 L 288.241 309.856 L 287.077 310.358 L 283.014 312.181 L 281.873 312.712 L 277.848 314.654 L 276.730 315.212 L 272.746 317.273 L 271.652 317.858 L 267.711 320.036 L 266.643 320.645 L 262.747 322.940 L 261.704 323.573 L 257.855 325.982 L 256.839 326.638 L 253.041 329.160 L 252.050 329.837 L 248.305 332.471 L 247.341 333.167 L 243.650 335.911 L 242.713 336.627 L 239.079 339.479 L 238.170 340.213 L 234.595 343.172 L 233.713 343.921 L 233.360 344.229 L 233.360 246.710 L 233.369 244.682 L 233.395 242.756 Z M 496.462 560.706 L 496.243 565.012 L 495.936 569.308 L 495.543 573.591 L 495.062 577.859 L 494.495 582.109 L 493.843 586.337 L 493.105 590.540 L 492.284 594.716 L 491.378 598.861 L 490.390 602.972 L 489.320 607.047 L 488.169 611.082 L 486.939 615.076 L 485.630 619.024 L 484.244 622.925 L 482.783 626.775 L 481.246 630.573 L 479.637 634.315 L 477.957 637.999 L 476.206 641.623 L 474.388 645.184 L 472.502 648.680 L 470.553 652.108 L 468.540 655.468 L 466.467 658.756 L 464.334 661.970 L 462.145 665.110 L 459.901 668.172 L 457.603 671.156 L 455.255 674.059 L 452.858 676.881 L 450.414 679.620 L 447.926 682.275 L 445.395 684.844 L 442.825 687.326 L 440.216 689.721 L 437.571 692.028 L 434.892 694.246 L 432.181 696.373 L 429.440 698.411 L 426.672 700.358 L 423.878 702.213 L 421.060 703.977 L 418.219 705.650 L 415.359 707.231 L 412.479 708.720 L 409.583 710.117 L 406.672 711.423 L 403.747 712.637 L 400.809 713.760 L 397.860 714.792 L 394.901 715.733 L 391.934 716.583 L 388.959 717.343 L 385.977 718.012 L 382.990 718.592 L 379.999 719.082 L 377.003 719.483 L 374.005 719.795 L 371.005 720.017 L 368.003 720.151 L 365.000 720.195 L 361.997 720.151 L 358.995 720.017 L 355.995 719.795 L 352.997 719.483 L 350.001 719.082 L 347.010 718.592 L 344.023 718.012 L 341.041 717.343 L 338.066 716.583 L 335.099 715.733 L 332.140 714.792 L 329.191 713.760 L 326.253 712.637 L 323.328 711.423 L 320.417 710.117 L 317.521 708.720 L 314.641 707.231 L 311.781 705.650 L 308.940 703.977 L 306.122 702.213 L 303.328 700.358 L 300.560 698.411 L 297.819 696.373 L 295.108 694.246 L 292.429 692.028 L 289.784 689.721 L 287.175 687.326 L 284.605 684.844 L 282.074 682.275 L 279.586 679.620 L 277.142 676.881 L 274.745 674.059 L 272.397 671.156 L 270.099 668.172 L 267.855 665.110 L 265.666 661.970 L 263.533 658.756 L 261.460 655.468 L 259.447 652.108 L 257.498 648.680 L 255.612 645.184 L 253.794 641.623 L 252.043 637.999 L 250.363 634.315 L 248.754 630.573 L 247.217 626.775 L 245.756 622.925 L 244.370 619.024 L 243.061 615.076 L 241.831 611.082 L 240.680 607.047 L 239.610 602.972 L 238.622 598.861 L 237.716 594.716 L 236.895 590.540 L 236.157 586.337 L 235.505 582.109 L 234.938 577.859 L 234.457 573.591 L 234.064 569.308 L 233.757 565.012 L 233.538 560.706 L 233.406 556.395 L 233.362 552.080 L 233.406 547.765 L 233.538 543.454 L 233.757 539.148 L 234.064 534.852 L 234.457 530.569 L 234.938 526.301 L 235.505 522.051 L 236.157 517.823 L 236.895 513.620 L 237.716 509.444 L 238.622 505.299 L 239.610 501.188 L 240.680 497.113 L 241.831 493.078 L 243.061 489.084 L 244.370 485.136 L 245.756 481.235 L 247.217 477.385 L 248.754 473.587 L 250.363 469.845 L 252.043 466.161 L 253.794 462.537 L 255.612 458.976 L 257.498 455.480 L 259.447 452.052 L 261.460 448.692 L 263.533 445.404 L 265.666 442.190 L 267.855 439.050 L 270.099 435.988 L 272.397 433.004 L 274.745 430.101 L 277.142 427.279 L 279.586 424.540 L 282.074 421.885 L 284.605 419.316 L 287.175 416.834 L 289.784 414.439 L 292.429 412.132 L 295.108 409.914 L 297.819 407.787 L 300.560 405.749 L 303.328 403.802 L 306.122 401.947 L 308.940 400.183 L 311.781 398.510 L 314.641 396.929 L 317.521 395.440 L 320.417 394.043 L 323.328 392.737 L 326.253 391.523 L 329.191 390.400 L 332.140 389.368 L 335.099 388.427 L 338.066 387.577 L 341.041 386.817 L 344.023 386.148 L 347.010 385.568 L 350.001 385.078 L 352.997 384.677 L 355.995 384.365 L 358.995 384.143 L 361.997 384.009 L 365.000 383.965 L 368.003 384.009 L 371.005 384.143 L 374.005 384.365 L 377.003 384.677 L 379.999 385.078 L 382.990 385.568 L 385.977 386.148 L 388.959 386.817 L 391.934 387.577 L 394.901 388.427 L 397.860 389.368 L 400.809 390.400 L 403.747 391.523 L 406.672 392.737 L 409.583 394.043 L 412.479 395.440 L 415.359 396.929 L 418.219 398.510 L 421.060 400.183 L 423.878 401.947 L 426.672 403.802 L 429.440 405.749 L 432.181 407.787 L 434.892 409.914 L 437.571 412.132 L 440.216 414.439 L 442.825 416.834 L 445.395 419.316 L 447.926 421.885 L 450.414 424.540 L 452.858 427.279 L 455.255 430.101 L 457.603 433.004 L 459.901 435.988 L 462.145 439.050 L 464.334 442.190 L 466.467 445.404 L 468.540 448.692 L 470.553 452.052 L 472.502 455.480 L 474.388 458.976 L 476.206 462.537 L 477.957 466.161 L 479.637 469.845 L 481.246 473.587 L 482.783 477.385 L 484.244 481.235 L 485.630 485.136 L 486.939 489.084 L 488.169 493.078 L 489.320 497.113 L 490.390 501.188 L 491.378 505.299 L 492.284 509.444 L 493.105 513.620 L 493.843 517.823 L 494.495 522.051 L 495.062 526.301 L 495.543 530.569 L 495.936 534.852 L 496.243 539.148 L 496.462 543.454 L 496.594 547.765 L 496.638 552.080 L 496.594 556.395 L 496.462 560.706 Z" fill="black" fill-rule="evenodd"/>
</svg>
