<svg xmlns="http://www.w3.org/2000/svg" viewBox="0 0 600.000 1000">
  <path d="M 248.550 480.465 L 248.685 480.266 L 249.362 479.329 L 250.112 478.350 L 250.937 477.333 L 251.838 476.280 L 252.814 475.196 L 253.865 474.082 L 254.993 472.943 L 256.195 471.782 L 257.470 470.601 L 258.819 469.404 L 260.238 468.192 L 261.728 466.970 L 263.285 465.739 L 264.909 464.501 L 266.598 463.259 L 268.349 462.015 L 270.161 460.771 L 272.031 459.529 L 273.957 458.290 L 275.938 457.055 L 277.971 455.828 L 280.053 454.608 L 282.184 453.397 L 284.359 452.196 L 286.578 451.008 L 288.839 449.831 L 291.137 448.669 L 293.473 447.521 L 295.843 446.388 L 298.245 445.272 L 300.677 444.173 L 303.137 443.092 L 305.622 442.030 L 308.131 440.987 L 310.661 439.964 L 313.210 438.962 L 315.776 437.981 L 318.356 437.022 L 320.949 436.085 L 323.553 435.171 L 326.164 434.280 L 328.782 433.413 L 331.403 432.571 L 334.025 431.753 L 336.647 430.960 L 339.267 430.192 L 341.881 429.450 L 344.487 428.735 L 347.084 428.046 L 349.670 427.384 L 352.241 426.749 L 354.795 426.142 L 357.331 425.562 L 359.846 425.010 L 362.337 424.487 L 364.802 423.992 L 367.238 423.526 L 369.644 423.089 L 372.015 422.680 L 374.351 422.301 L 376.647 421.951 L 378.901 421.631 L 381.110 421.340 L 383.271 421.078 L 385.381 420.845 L 387.437 420.642 L 389.435 420.467 L 391.372 420.321 L 393.244 420.204 L 395.046 420.114 L 396.775 420.050 L 398.427 420.013 L 400.345 419.999 L 401.449 419.977 L 402.552 419.928 L 403.654 419.851 L 404.754 419.748 L 405.850 419.618 L 406.944 419.461 L 408.033 419.277 L 409.117 419.067 L 410.196 418.830 L 411.268 418.566 L 412.334 418.277 L 413.392 417.961 L 414.443 417.619 L 415.484 417.252 L 416.516 416.859 L 417.539 416.441 L 418.550 415.999 L 419.551 415.531 L 420.540 415.039 L 421.516 414.523 L 422.480 413.983 L 423.430 413.419 L 424.365 412.833 L 425.287 412.224 L 426.192 411.592 L 427.083 410.938 L 427.956 410.262 L 428.813 409.566 L 429.653 408.848 L 430.475 408.110 L 431.278 407.352 L 432.063 406.575 L 432.828 405.779 L 433.573 404.964 L 434.299 404.131 L 435.003 403.280 L 435.687 402.413 L 436.349 401.529 L 436.989 400.629 L 437.607 399.713 L 438.202 398.783 L 438.774 397.838 L 439.323 396.880 L 439.848 395.908 L 440.349 394.924 L 440.826 393.928 L 441.278 392.920 L 441.705 391.902 L 442.108 390.873 L 442.484 389.835 L 442.836 388.788 L 443.161 387.733 L 443.461 386.669 L 443.734 385.599 L 443.981 384.523 L 444.201 383.441 L 444.395 382.353 L 444.562 381.262 L 444.702 380.166 L 444.816 379.068 L 444.902 377.967 L 444.961 376.864 L 444.994 375.760 L 444.999 374.655 L 444.977 373.551 L 444.928 372.448 L 444.851 371.346 L 444.748 370.246 L 444.618 369.150 L 444.461 368.056 L 444.277 366.967 L 444.067 365.883 L 443.830 364.804 L 443.566 363.732 L 443.277 362.666 L 442.961 361.608 L 442.619 360.557 L 442.252 359.516 L 441.859 358.484 L 441.441 357.461 L 440.999 356.450 L 440.531 355.449 L 440.039 354.460 L 439.523 353.484 L 438.983 352.520 L 438.419 351.570 L 437.833 350.635 L 437.224 349.713 L 436.592 348.808 L 435.938 347.917 L 435.262 347.044 L 434.566 346.187 L 433.848 345.347 L 433.110 344.525 L 432.352 343.722 L 431.575 342.937 L 430.779 342.172 L 429.964 341.427 L 429.131 340.701 L 428.280 339.997 L 427.413 339.313 L 426.529 338.651 L 425.629 338.011 L 424.713 337.393 L 423.783 336.798 L 422.838 336.226 L 421.880 335.677 L 420.908 335.152 L 419.924 334.651 L 418.928 334.174 L 417.920 333.722 L 416.902 333.295 L 415.873 332.892 L 414.835 332.516 L 413.788 332.164 L 412.733 331.839 L 411.669 331.539 L 410.599 331.266 L 409.523 331.019 L 408.441 330.799 L 407.353 330.605 L 406.262 330.438 L 405.166 330.298 L 404.068 330.184 L 402.967 330.098 L 401.864 330.039 L 400.760 330.006 L 399.655 330.001 L 397.405 330.019 L 396.741 330.029 L 394.441 330.080 L 393.808 330.099 L 391.460 330.185 L 390.855 330.211 L 388.461 330.330 L 387.882 330.363 L 385.443 330.517 L 384.887 330.555 L 382.405 330.742 L 381.870 330.785 L 379.347 331.006 L 378.832 331.054 L 376.269 331.307 L 375.771 331.360 L 373.171 331.646 L 372.689 331.702 L 370.052 332.021 L 369.584 332.080 L 366.913 332.432 L 366.458 332.495 L 363.755 332.879 L 363.312 332.944 L 360.577 333.361 L 360.145 333.429 L 357.381 333.878 L 356.958 333.949 L 354.167 334.429 L 353.752 334.503 L 350.936 335.015 L 350.528 335.091 L 347.688 335.634 L 347.287 335.713 L 344.424 336.287 L 344.029 336.369 L 341.146 336.974 L 340.756 337.058 L 337.854 337.695 L 337.469 337.781 L 334.549 338.448 L 334.168 338.537 L 331.233 339.235 L 330.854 339.327 L 327.906 340.055 L 327.530 340.149 L 324.570 340.908 L 324.195 341.005 L 321.225 341.793 L 320.852 341.894 L 317.873 342.711 L 317.501 342.815 L 314.515 343.662 L 314.143 343.770 L 311.152 344.646 L 310.780 344.757 L 307.785 345.662 L 307.413 345.777 L 304.417 346.712 L 304.043 346.830 L 301.047 347.793 L 300.671 347.916 L 297.677 348.908 L 297.299 349.035 L 294.308 350.055 L 293.927 350.186 L 290.942 351.235 L 290.558 351.371 L 287.580 352.448 L 287.192 352.589 L 284.222 353.693 L 283.831 353.841 L 280.872 354.972 L 280.476 355.126 L 277.528 356.285 L 277.128 356.445 L 274.194 357.631 L 273.788 357.797 L 270.870 359.010 L 270.458 359.184 L 267.557 360.424 L 267.138 360.605 L 264.257 361.871 L 263.831 362.061 L 260.970 363.354 L 260.537 363.552 L 257.699 364.871 L 257.258 365.078 L 254.444 366.423 L 253.995 366.641 L 251.206 368.011 L 250.749 368.240 L 247.988 369.636 L 247.521 369.875 L 244.789 371.297 L 244.313 371.549 L 241.612 372.996 L 241.125 373.261 L 238.457 374.733 L 237.959 375.011 L 235.326 376.508 L 234.817 376.802 L 232.219 378.323 L 231.699 378.633 L 229.139 380.179 L 228.606 380.506 L 226.087 382.076 L 225.541 382.421 L 223.062 384.016 L 222.504 384.381 L 220.068 385.999 L 219.496 386.386 L 217.105 388.027 L 216.520 388.437 L 214.175 390.102 L 213.575 390.536 L 211.279 392.224 L 210.664 392.685 L 208.418 394.396 L 207.789 394.885 L 205.594 396.619 L 204.950 397.138 L 202.809 398.895 L 202.150 399.447 L 200.064 401.226 L 199.391 401.813 L 197.362 403.615 L 196.674 404.238 L 194.703 406.063 L 194.001 406.726 L 192.091 408.572 L 191.376 409.279 L 189.527 411.147 L 188.800 411.899 L 187.015 413.788 L 186.277 414.589 L 184.558 416.499 L 183.810 417.352 L 182.158 419.283 L 181.403 420.190 L 179.819 422.143 L 179.058 423.108 L 177.545 425.082 L 176.782 426.107 L 175.342 428.101 L 174.579 429.190 L 173.212 431.205 L 172.454 432.360 L 171.163 434.395 L 170.414 435.619 L 169.200 437.674 L 168.465 438.968 L 167.330 441.042 L 166.613 442.409 L 165.560 444.503 L 164.868 445.941 L 163.897 448.055 L 163.236 449.566 L 162.349 451.699 L 162.030 452.487 L 161.726 453.281 L 160.926 455.433 L 160.629 456.255 L 160.348 457.084 L 159.635 459.254 L 159.363 460.110 L 159.109 460.971 L 158.485 463.161 L 158.243 464.047 L 158.018 464.938 L 157.486 467.146 L 157.276 468.061 L 157.084 468.979 L 156.645 471.205 L 156.470 472.144 L 156.315 473.086 L 155.971 475.330 L 155.834 476.289 L 155.718 477.251 L 155.469 479.513 L 155.373 480.487 L 155.298 481.464 L 155.148 483.743 L 155.094 484.729 L 155.061 485.715 L 155.011 488.012 L 155.001 489.344 L 155.031 490.675 L 155.106 492.693 L 155.164 493.838 L 155.250 494.980 L 155.365 496.120 L 155.589 498.077 L 155.736 499.238 L 155.914 500.394 L 156.122 501.546 L 156.490 503.442 L 156.730 504.597 L 157.000 505.745 L 157.300 506.885 L 157.809 508.723 L 158.137 509.849 L 158.494 510.965 L 158.879 512.072 L 159.527 513.854 L 159.933 514.930 L 160.367 515.994 L 160.827 517.048 L 161.609 518.774 L 162.081 519.783 L 162.577 520.780 L 163.098 521.764 L 164.011 523.437 L 164.532 524.366 L 165.075 525.283 L 165.640 526.187 L 166.680 527.809 L 167.234 528.652 L 167.807 529.483 L 168.399 530.300 L 169.564 531.872 L 170.135 532.627 L 170.723 533.370 L 171.326 534.100 L 172.611 535.624 L 173.479 536.623 L 174.377 537.596 L 175.779 539.073 L 176.635 539.950 L 177.514 540.803 L 179.031 542.236 L 179.862 543.001 L 180.711 543.744 L 182.339 545.134 L 183.135 545.797 L 183.946 546.443 L 185.681 547.791 L 186.436 548.365 L 187.203 548.923 L 189.042 550.231 L 189.753 550.726 L 190.473 551.208 L 192.412 552.478 L 193.750 553.321 L 195.786 554.555 L 197.030 555.281 L 199.160 556.480 L 200.311 557.107 L 202.531 558.272 L 203.595 558.813 L 205.902 559.947 L 206.880 560.414 L 209.271 561.519 L 210.169 561.922 L 212.639 562.999 L 213.463 563.348 L 216.009 564.399 L 216.762 564.701 L 219.382 565.727 L 220.067 565.989 L 222.757 566.991 L 223.380 567.219 L 226.137 568.200 L 226.701 568.397 L 229.521 569.359 L 230.030 569.530 L 232.909 570.473 L 233.367 570.621 L 236.302 571.549 L 236.712 571.676 L 239.700 572.589 L 240.063 572.699 L 243.100 573.599 L 243.421 573.693 L 246.504 574.582 L 246.783 574.661 L 249.908 575.541 L 250.148 575.608 L 253.312 576.480 L 253.514 576.535 L 256.715 577.400 L 256.880 577.445 L 260.113 578.306 L 260.244 578.341 L 263.505 579.199 L 263.602 579.224 L 266.890 580.082 L 266.954 580.098 L 270.263 580.956 L 273.623 581.825 L 276.951 582.685 L 280.260 583.542 L 283.546 584.399 L 286.807 585.257 L 290.039 586.117 L 293.238 586.980 L 296.401 587.848 L 299.524 588.722 L 302.602 589.602 L 305.633 590.490 L 308.610 591.386 L 311.532 592.291 L 314.391 593.206 L 317.186 594.129 L 319.910 595.062 L 322.559 596.004 L 325.128 596.954 L 327.612 597.912 L 330.007 598.876 L 332.308 599.845 L 334.509 600.817 L 336.606 601.790 L 338.594 602.760 L 340.468 603.726 L 342.226 604.682 L 343.861 605.624 L 345.373 606.548 L 346.757 607.448 L 348.013 608.319 L 349.139 609.154 L 350.137 609.947 L 351.009 610.693 L 351.759 611.385 L 352.393 612.018 L 352.918 612.588 L 353.344 613.095 L 353.683 613.537 L 353.947 613.919 L 354.150 614.246 L 354.306 614.529 L 354.428 614.781 L 354.529 615.020 L 354.617 615.267 L 354.699 615.543 L 354.778 615.873 L 354.853 616.282 L 354.919 616.793 L 354.967 617.428 L 354.989 618.314 L 354.976 618.985 L 354.929 619.776 L 354.850 620.584 L 354.736 621.414 L 354.586 622.271 L 354.396 623.161 L 354.163 624.085 L 353.885 625.048 L 353.557 626.051 L 353.177 627.095 L 352.741 628.181 L 352.247 629.308 L 351.692 630.477 L 351.074 631.684 L 350.391 632.931 L 349.641 634.213 L 348.823 635.529 L 347.936 636.878 L 346.980 638.256 L 345.954 639.661 L 344.858 641.091 L 343.693 642.543 L 342.459 644.015 L 341.157 645.503 L 339.788 647.006 L 338.352 648.522 L 336.852 650.047 L 335.288 651.580 L 333.661 653.118 L 331.974 654.661 L 330.228 656.204 L 328.425 657.748 L 326.566 659.289 L 324.654 660.827 L 322.690 662.359 L 320.676 663.884 L 318.615 665.401 L 316.507 666.907 L 314.356 668.403 L 312.164 669.885 L 309.931 671.354 L 307.661 672.808 L 305.356 674.246 L 303.017 675.667 L 300.646 677.069 L 298.247 678.452 L 295.820 679.815 L 293.369 681.157 L 290.894 682.476 L 288.399 683.773 L 285.886 685.046 L 283.356 686.294 L 280.811 687.517 L 278.255 688.713 L 275.689 689.883 L 273.115 691.026 L 270.536 692.140 L 267.953 693.225 L 265.369 694.281 L 262.787 695.306 L 260.208 696.301 L 257.635 697.264 L 255.069 698.196 L 252.515 699.095 L 249.973 699.960 L 247.446 700.793 L 244.936 701.591 L 242.447 702.355 L 239.981 703.083 L 237.539 703.777 L 235.126 704.434 L 232.743 705.056 L 230.393 705.641 L 228.080 706.189 L 225.805 706.700 L 223.573 707.174 L 221.385 707.610 L 219.246 708.008 L 217.159 708.370 L 215.128 708.693 L 213.155 708.980 L 211.245 709.229 L 209.402 709.442 L 207.631 709.618 L 205.934 709.760 L 204.319 709.867 L 202.789 709.941 L 201.349 709.984 L 199.541 710.002 L 198.437 710.027 L 197.333 710.079 L 196.232 710.158 L 195.132 710.264 L 194.036 710.397 L 192.943 710.557 L 191.855 710.743 L 190.771 710.957 L 189.693 711.196 L 188.621 711.462 L 187.556 711.755 L 186.498 712.073 L 185.449 712.417 L 184.408 712.787 L 183.377 713.183 L 182.356 713.603 L 181.345 714.049 L 180.346 714.519 L 179.358 715.013 L 178.383 715.532 L 177.421 716.074 L 176.473 716.640 L 175.538 717.229 L 174.619 717.841 L 173.715 718.475 L 172.826 719.131 L 171.954 719.809 L 171.099 720.508 L 170.261 721.227 L 169.441 721.967 L 168.640 722.727 L 167.857 723.507 L 167.094 724.305 L 166.351 725.122 L 165.627 725.956 L 164.925 726.809 L 164.244 727.678 L 163.584 728.564 L 162.946 729.465 L 162.331 730.382 L 161.738 731.314 L 161.168 732.260 L 160.622 733.220 L 160.099 734.193 L 159.601 735.179 L 159.126 736.176 L 158.677 737.185 L 158.252 738.204 L 157.852 739.234 L 157.478 740.273 L 157.129 741.321 L 156.807 742.377 L 156.510 743.441 L 156.239 744.512 L 155.995 745.589 L 155.777 746.672 L 155.586 747.760 L 155.422 748.852 L 155.285 749.948 L 155.174 751.046 L 155.090 752.148 L 155.034 753.251 L 155.005 754.355 L 155.002 755.459 L 155.027 756.563 L 155.079 757.667 L 155.158 758.768 L 155.264 759.868 L 155.397 760.964 L 155.557 762.057 L 155.743 763.145 L 155.957 764.229 L 156.196 765.307 L 156.462 766.379 L 156.755 767.444 L 157.073 768.502 L 157.417 769.551 L 157.787 770.592 L 158.183 771.623 L 158.603 772.644 L 159.049 773.655 L 159.519 774.654 L 160.013 775.642 L 160.532 776.617 L 161.074 777.579 L 161.640 778.527 L 162.229 779.462 L 162.841 780.381 L 163.475 781.285 L 164.131 782.174 L 164.809 783.046 L 165.508 783.901 L 166.227 784.739 L 166.967 785.559 L 167.727 786.360 L 168.507 787.143 L 169.305 787.906 L 170.122 788.649 L 170.956 789.373 L 171.809 790.075 L 172.678 790.756 L 173.564 791.416 L 174.465 792.054 L 175.382 792.669 L 176.314 793.262 L 177.260 793.832 L 178.220 794.378 L 179.193 794.901 L 180.179 795.399 L 181.176 795.874 L 182.185 796.323 L 183.204 796.748 L 184.234 797.148 L 185.273 797.522 L 186.321 797.871 L 187.377 798.193 L 188.441 798.490 L 189.512 798.761 L 190.589 799.005 L 191.672 799.223 L 192.760 799.414 L 193.852 799.578 L 194.948 799.715 L 196.046 799.826 L 197.148 799.910 L 198.251 799.966 L 199.355 799.995 L 200.459 799.998 L 202.709 799.975 L 203.592 799.957 L 205.892 799.888 L 206.731 799.856 L 209.079 799.742 L 209.876 799.696 L 212.271 799.537 L 213.031 799.480 L 215.470 799.277 L 216.195 799.210 L 218.677 798.963 L 219.372 798.888 L 221.895 798.597 L 222.561 798.515 L 225.123 798.181 L 225.763 798.093 L 228.363 797.715 L 228.979 797.622 L 231.616 797.202 L 232.209 797.103 L 234.880 796.641 L 235.454 796.538 L 238.157 796.034 L 238.712 795.927 L 241.446 795.381 L 241.985 795.270 L 244.748 794.684 L 245.272 794.570 L 248.062 793.943 L 248.572 793.825 L 251.388 793.158 L 251.885 793.037 L 254.725 792.330 L 255.210 792.207 L 258.073 791.460 L 258.548 791.334 L 261.431 790.548 L 261.896 790.419 L 264.798 789.594 L 265.255 789.462 L 268.174 788.600 L 268.623 788.464 L 271.558 787.564 L 272.000 787.426 L 274.948 786.488 L 275.385 786.347 L 278.345 785.372 L 278.776 785.227 L 281.746 784.215 L 282.173 784.068 L 285.152 783.020 L 285.574 782.869 L 288.560 781.784 L 288.979 781.630 L 291.970 780.510 L 292.387 780.352 L 295.381 779.197 L 295.796 779.035 L 298.792 777.845 L 299.205 777.679 L 302.201 776.455 L 302.612 776.284 L 305.607 775.026 L 306.018 774.851 L 309.009 773.559 L 309.420 773.379 L 312.405 772.054 L 312.817 771.868 L 315.796 770.510 L 316.209 770.320 L 319.179 768.929 L 319.593 768.733 L 322.552 767.310 L 322.969 767.108 L 325.916 765.653 L 326.335 765.444 L 329.268 763.959 L 329.689 763.743 L 332.607 762.226 L 333.032 762.003 L 335.933 760.456 L 336.361 760.225 L 339.243 758.647 L 339.675 758.408 L 342.536 756.801 L 342.973 756.553 L 345.811 754.916 L 346.253 754.659 L 349.068 752.993 L 349.514 752.725 L 352.303 751.032 L 352.756 750.753 L 355.517 749.031 L 355.975 748.742 L 358.707 746.992 L 359.172 746.690 L 361.873 744.913 L 362.344 744.598 L 365.012 742.794 L 365.491 742.466 L 368.125 740.635 L 368.611 740.292 L 371.208 738.435 L 371.702 738.077 L 374.262 736.194 L 374.764 735.819 L 377.284 733.910 L 377.794 733.518 L 380.273 731.585 L 380.791 731.174 L 383.227 729.215 L 383.755 728.785 L 386.145 726.802 L 386.682 726.350 L 389.026 724.343 L 389.571 723.869 L 391.868 721.839 L 392.422 721.340 L 394.668 719.287 L 395.232 718.763 L 397.426 716.687 L 397.998 716.136 L 400.140 714.038 L 400.721 713.458 L 402.807 711.337 L 403.396 710.727 L 405.425 708.585 L 406.023 707.942 L 407.994 705.779 L 408.598 705.101 L 410.509 702.917 L 411.120 702.203 L 412.969 699.999 L 413.586 699.246 L 415.371 697.022 L 415.993 696.229 L 417.712 693.984 L 418.338 693.148 L 419.990 690.885 L 420.617 690.004 L 422.200 687.722 L 422.827 686.794 L 424.340 684.493 L 424.965 683.516 L 426.405 681.197 L 427.025 680.169 L 428.392 677.832 L 429.004 676.752 L 430.295 674.398 L 430.897 673.262 L 432.110 670.891 L 432.698 669.700 L 433.832 667.313 L 434.402 666.065 L 435.456 663.661 L 436.003 662.356 L 436.974 659.937 L 437.495 658.575 L 438.382 656.140 L 438.872 654.721 L 439.673 652.271 L 440.127 650.796 L 440.840 648.332 L 441.253 646.804 L 441.876 644.325 L 442.243 642.746 L 442.775 640.253 L 442.941 639.441 L 443.091 638.627 L 443.531 636.120 L 443.669 635.287 L 443.791 634.451 L 444.136 631.932 L 444.244 631.079 L 444.336 630.224 L 444.584 627.692 L 444.661 626.823 L 444.721 625.953 L 444.871 623.409 L 444.915 622.527 L 444.941 621.644 L 444.991 619.088 L 445.000 618.086 L 444.986 617.084 L 444.911 614.053 L 444.868 612.910 L 444.796 611.769 L 444.573 608.822 L 444.469 607.653 L 444.335 606.487 L 443.967 603.623 L 443.798 602.438 L 443.598 601.257 L 443.089 598.475 L 442.854 597.283 L 442.587 596.098 L 441.940 593.395 L 441.639 592.209 L 441.306 591.031 L 440.524 588.406 L 440.158 587.236 L 439.761 586.077 L 438.848 583.528 L 438.422 582.386 L 437.964 581.256 L 436.924 578.783 L 436.442 577.678 L 435.931 576.588 L 434.767 574.187 L 434.236 573.129 L 433.679 572.086 L 432.393 569.757 L 431.823 568.753 L 431.226 567.764 L 429.824 565.504 L 429.221 564.560 L 428.595 563.631 L 427.078 561.438 L 426.452 560.557 L 425.805 559.690 L 424.178 557.564 L 423.537 556.747 L 422.877 555.944 L 421.142 553.882 L 420.494 553.129 L 419.830 552.391 L 417.991 550.392 L 417.343 549.702 L 416.681 549.026 L 414.742 547.088 L 414.100 546.459 L 413.445 545.843 L 411.409 543.965 L 410.778 543.394 L 410.137 542.835 L 408.007 541.014 L 406.767 539.992 L 404.547 538.227 L 403.346 537.305 L 401.039 535.595 L 399.882 534.766 L 397.492 533.108 L 396.382 532.363 L 393.912 530.756 L 392.852 530.088 L 390.305 528.531 L 389.296 527.932 L 386.676 526.422 L 385.718 525.886 L 383.028 524.423 L 382.122 523.943 L 379.366 522.524 L 378.510 522.095 L 375.691 520.719 L 374.885 520.335 L 372.006 518.999 L 371.249 518.657 L 368.314 517.361 L 367.604 517.054 L 364.617 515.796 L 363.953 515.522 L 360.916 514.299 L 360.296 514.055 L 357.213 512.867 L 356.636 512.649 L 353.511 511.493 L 352.975 511.299 L 349.810 510.174 L 349.315 510.001 L 346.114 508.905 L 345.657 508.751 L 342.425 507.683 L 342.005 507.546 L 338.743 506.503 L 338.359 506.383 L 335.072 505.364 L 334.724 505.258 L 331.414 504.262 L 331.100 504.168 L 327.772 503.193 L 327.491 503.112 L 324.147 502.155 L 323.899 502.085 L 320.543 501.146 L 320.327 501.086 L 316.963 500.163 L 316.777 500.113 L 313.409 499.204 L 313.254 499.162 L 309.884 498.266 L 309.760 498.233 L 306.391 497.347 L 306.299 497.323 L 302.935 496.446 L 302.873 496.430 L 299.518 495.560 L 296.143 494.688 L 292.831 493.832 L 289.570 492.986 L 286.363 492.150 L 283.215 491.322 L 280.131 490.500 L 277.114 489.684 L 274.170 488.873 L 271.304 488.066 L 268.521 487.264 L 265.826 486.465 L 263.225 485.670 L 260.724 484.879 L 258.329 484.094 L 256.048 483.315 L 253.886 482.545 L 251.851 481.787 L 249.950 481.043 L 248.550 480.465 Z" fill="black" fill-rule="evenodd"/>
</svg>
