<svg xmlns="http://www.w3.org/2000/svg" viewBox="0 0 600.000 1000" width="600.000" height="1000">
  <path d="M 283.040 310.002 L 282.880 310.001 L 280.735 310.016 L 280.095 310.026 L 277.951 310.071 L 277.310 310.090 L 275.167 310.166 L 274.527 310.193 L 272.385 310.300 L 271.746 310.336 L 269.604 310.474 L 268.966 310.519 L 266.826 310.687 L 266.189 310.742 L 264.051 310.940 L 263.416 311.003 L 261.280 311.232 L 260.646 311.304 L 258.513 311.563 L 257.880 311.645 L 255.750 311.934 L 255.119 312.024 L 252.992 312.344 L 252.364 312.443 L 250.240 312.793 L 249.613 312.901 L 247.494 313.281 L 246.870 313.397 L 244.754 313.808 L 244.132 313.933 L 242.021 314.373 L 241.402 314.507 L 239.296 314.977 L 238.680 315.119 L 236.578 315.619 L 235.966 315.770 L 233.870 316.300 L 233.260 316.459 L 231.170 317.019 L 230.564 317.186 L 228.479 317.775 L 227.877 317.950 L 225.799 318.570 L 225.200 318.752 L 223.128 319.401 L 222.534 319.592 L 220.469 320.271 L 219.878 320.469 L 217.820 321.177 L 217.234 321.383 L 215.184 322.120 L 214.602 322.333 L 212.559 323.100 L 211.982 323.321 L 209.947 324.116 L 209.375 324.344 L 207.348 325.168 L 206.780 325.404 L 204.763 326.257 L 204.200 326.499 L 202.191 327.381 L 201.633 327.630 L 199.633 328.540 L 199.080 328.797 L 197.090 329.735 L 196.542 329.998 L 194.562 330.965 L 194.020 331.234 L 192.050 332.229 L 191.513 332.505 L 189.553 333.528 L 189.021 333.810 L 187.073 334.860 L 186.546 335.149 L 184.608 336.227 L 184.088 336.521 L 182.161 337.627 L 181.646 337.927 L 179.731 339.060 L 179.222 339.366 L 177.319 340.526 L 176.816 340.838 L 174.925 342.025 L 174.427 342.342 L 172.549 343.556 L 172.057 343.879 L 170.191 345.119 L 169.706 345.447 L 167.853 346.714 L 167.373 347.047 L 165.534 348.340 L 165.060 348.678 L 163.234 349.997 L 162.767 350.340 L 160.954 351.685 L 160.493 352.032 L 158.695 353.404 L 158.240 353.755 L 156.456 355.152 L 156.007 355.508 L 154.238 356.930 L 153.795 357.290 L 152.040 358.737 L 151.604 359.102 L 149.865 360.574 L 149.435 360.942 L 147.711 362.439 L 147.287 362.811 L 145.578 364.332 L 145.161 364.709 L 143.468 366.254 L 143.057 366.634 L 141.380 368.203 L 140.976 368.587 L 139.315 370.180 L 138.917 370.566 L 137.273 372.183 L 136.881 372.573 L 135.254 374.213 L 134.869 374.607 L 133.259 376.270 L 132.879 376.666 L 131.287 378.352 L 130.914 378.752 L 129.339 380.460 L 128.972 380.863 L 127.415 382.593 L 127.054 382.999 L 125.515 384.751 L 125.161 385.159 L 123.640 386.934 L 123.292 387.344 L 121.789 389.140 L 121.448 389.554 L 119.964 391.371 L 119.628 391.787 L 118.163 393.625 L 117.834 394.043 L 116.388 395.902 L 116.065 396.322 L 114.639 398.201 L 114.322 398.624 L 112.915 400.523 L 112.604 400.948 L 111.217 402.867 L 110.912 403.294 L 109.544 405.233 L 109.246 405.662 L 107.899 407.620 L 107.606 408.051 L 106.279 410.028 L 105.993 410.460 L 104.686 412.456 L 104.406 412.890 L 103.120 414.905 L 102.846 415.340 L 101.581 417.373 L 101.312 417.810 L 100.069 419.861 L 99.806 420.299 L 98.584 422.367 L 98.327 422.808 L 97.126 424.893 L 96.875 425.334 L 95.696 427.437 L 95.450 427.880 L 94.293 429.998 L 94.054 430.443 L 92.918 432.578 L 92.685 433.023 L 91.571 435.174 L 91.343 435.621 L 90.252 437.788 L 90.030 438.235 L 88.962 440.418 L 88.745 440.866 L 87.699 443.064 L 87.488 443.513 L 86.465 445.725 L 86.259 446.176 L 85.259 448.402 L 85.059 448.854 L 84.082 451.095 L 83.888 451.547 L 82.934 453.801 L 82.745 454.254 L 81.815 456.522 L 81.631 456.976 L 80.724 459.257 L 80.546 459.712 L 79.663 462.005 L 79.490 462.461 L 78.631 464.767 L 78.464 465.223 L 77.628 467.541 L 77.466 467.998 L 76.654 470.327 L 76.498 470.785 L 75.710 473.126 L 75.559 473.584 L 74.796 475.936 L 74.650 476.394 L 73.911 478.757 L 73.770 479.216 L 73.055 481.589 L 72.920 482.049 L 72.230 484.432 L 72.099 484.892 L 71.434 487.285 L 71.309 487.745 L 70.668 490.147 L 70.548 490.608 L 69.933 493.019 L 69.818 493.480 L 69.227 495.900 L 69.117 496.361 L 68.551 498.789 L 68.446 499.251 L 67.906 501.687 L 67.806 502.149 L 67.291 504.592 L 67.196 505.055 L 66.706 507.505 L 66.616 507.968 L 66.151 510.425 L 66.066 510.888 L 65.627 513.352 L 65.547 513.815 L 65.134 516.285 L 65.058 516.748 L 64.670 519.224 L 64.600 519.687 L 64.238 522.168 L 64.172 522.632 L 63.836 525.118 L 63.775 525.582 L 63.464 528.072 L 63.409 528.536 L 63.123 531.031 L 63.073 531.495 L 62.813 533.993 L 62.767 534.458 L 62.534 536.960 L 62.493 537.425 L 62.285 539.930 L 62.249 540.394 L 62.067 542.902 L 62.036 543.367 L 61.880 545.877 L 61.853 546.342 L 61.723 548.854 L 61.702 549.319 L 61.598 551.833 L 61.581 552.298 L 61.503 554.813 L 61.491 555.279 L 61.439 557.795 L 61.432 558.260 L 61.406 560.776 L 61.403 561.242 L 61.403 563.758 L 61.406 564.224 L 61.432 566.740 L 61.439 567.205 L 61.491 569.721 L 61.503 570.187 L 61.581 572.702 L 61.598 573.167 L 61.702 575.681 L 61.723 576.146 L 61.853 578.658 L 61.880 579.123 L 62.036 581.633 L 62.067 582.098 L 62.249 584.606 L 62.285 585.070 L 62.493 587.575 L 62.534 588.040 L 62.767 590.542 L 62.813 591.007 L 63.073 593.505 L 63.123 593.969 L 63.409 596.464 L 63.464 596.928 L 63.775 599.418 L 63.836 599.882 L 64.172 602.368 L 64.238 602.832 L 64.600 605.313 L 64.670 605.776 L 65.058 608.252 L 65.134 608.715 L 65.547 611.185 L 65.627 611.648 L 66.066 614.112 L 66.151 614.575 L 66.616 617.032 L 66.706 617.495 L 67.196 619.945 L 67.291 620.408 L 67.806 622.851 L 67.906 623.313 L 68.446 625.749 L 68.551 626.211 L 69.117 628.639 L 69.227 629.100 L 69.818 631.520 L 69.933 631.981 L 70.548 634.392 L 70.668 634.853 L 71.309 637.255 L 71.434 637.715 L 72.099 640.108 L 72.230 640.568 L 72.920 642.951 L 73.055 643.411 L 73.770 645.784 L 73.911 646.243 L 74.650 648.606 L 74.796 649.064 L 75.559 651.416 L 75.710 651.874 L 76.498 654.215 L 76.654 654.673 L 77.466 657.002 L 77.628 657.459 L 78.464 659.777 L 78.631 660.233 L 79.490 662.539 L 79.663 662.995 L 80.546 665.288 L 80.724 665.743 L 81.631 668.024 L 81.815 668.478 L 82.745 670.746 L 82.934 671.199 L 83.888 673.453 L 84.082 673.905 L 85.059 676.146 L 85.259 676.598 L 86.259 678.824 L 86.465 679.275 L 87.488 681.487 L 87.699 681.936 L 88.745 684.134 L 88.962 684.582 L 90.030 686.765 L 90.252 687.212 L 91.343 689.379 L 91.571 689.826 L 92.685 691.977 L 92.918 692.422 L 94.054 694.557 L 94.293 695.002 L 95.450 697.120 L 95.696 697.563 L 96.875 699.666 L 97.126 700.107 L 98.327 702.192 L 98.584 702.633 L 99.806 704.701 L 100.069 705.139 L 101.312 707.190 L 101.581 707.627 L 102.846 709.660 L 103.120 710.095 L 104.406 712.110 L 104.686 712.544 L 105.993 714.540 L 106.279 714.972 L 107.606 716.949 L 107.899 717.380 L 109.246 719.338 L 109.544 719.767 L 110.912 721.706 L 111.217 722.133 L 112.604 724.052 L 112.915 724.477 L 114.322 726.376 L 114.639 726.799 L 116.065 728.678 L 116.388 729.098 L 117.834 730.957 L 118.163 731.375 L 119.628 733.213 L 119.964 733.629 L 121.448 735.446 L 121.789 735.860 L 123.292 737.656 L 123.640 738.066 L 125.161 739.841 L 125.515 740.249 L 127.054 742.001 L 127.415 742.407 L 128.972 744.137 L 129.339 744.540 L 130.914 746.248 L 131.287 746.648 L 132.879 748.334 L 133.259 748.730 L 134.869 750.393 L 135.254 750.787 L 136.881 752.427 L 137.273 752.817 L 138.917 754.434 L 139.315 754.820 L 140.976 756.413 L 141.380 756.797 L 143.057 758.366 L 143.468 758.746 L 145.161 760.291 L 145.578 760.668 L 147.287 762.189 L 147.711 762.561 L 149.435 764.058 L 149.865 764.426 L 151.604 765.898 L 152.040 766.263 L 153.795 767.710 L 154.238 768.070 L 156.007 769.492 L 156.456 769.848 L 158.240 771.245 L 158.695 771.596 L 160.493 772.968 L 160.954 773.315 L 162.767 774.660 L 163.234 775.003 L 165.060 776.322 L 165.534 776.660 L 167.373 777.953 L 167.853 778.286 L 169.706 779.553 L 170.191 779.881 L 172.057 781.121 L 172.549 781.444 L 174.427 782.658 L 174.925 782.975 L 176.816 784.162 L 177.319 784.474 L 179.222 785.634 L 179.731 785.940 L 181.646 787.073 L 182.161 787.373 L 184.088 788.479 L 184.608 788.773 L 186.546 789.851 L 187.073 790.140 L 189.021 791.190 L 189.553 791.472 L 191.513 792.495 L 192.050 792.771 L 194.020 793.766 L 194.562 794.035 L 196.542 795.002 L 197.090 795.265 L 199.080 796.203 L 199.633 796.460 L 201.633 797.370 L 202.191 797.619 L 204.200 798.501 L 204.763 798.743 L 206.780 799.596 L 207.348 799.832 L 209.375 800.656 L 209.947 800.884 L 211.982 801.679 L 212.559 801.900 L 214.602 802.667 L 215.184 802.880 L 217.234 803.617 L 217.820 803.823 L 219.878 804.531 L 220.469 804.729 L 222.534 805.408 L 223.128 805.599 L 225.200 806.248 L 225.799 806.430 L 227.877 807.050 L 228.479 807.225 L 230.564 807.814 L 231.170 807.981 L 233.260 808.541 L 233.870 808.700 L 235.966 809.230 L 236.578 809.381 L 238.680 809.881 L 239.296 810.023 L 241.402 810.493 L 242.021 810.627 L 244.132 811.067 L 244.754 811.192 L 246.870 811.603 L 247.494 811.719 L 249.613 812.099 L 250.240 812.207 L 252.364 812.557 L 252.992 812.656 L 255.119 812.976 L 255.750 813.066 L 257.880 813.355 L 258.513 813.437 L 260.646 813.696 L 261.280 813.768 L 263.416 813.997 L 264.051 814.060 L 266.189 814.258 L 266.826 814.313 L 268.966 814.481 L 269.604 814.526 L 271.746 814.664 L 272.385 814.700 L 274.527 814.807 L 275.167 814.834 L 277.310 814.910 L 277.951 814.929 L 280.095 814.974 L 280.735 814.984 L 282.880 814.999 L 283.040 814.998 L 283.200 815.000 L 421.720 815.000 L 422.315 815.476 L 423.194 816.144 L 424.089 816.791 L 424.999 817.416 L 425.925 818.018 L 426.865 818.598 L 427.820 819.154 L 428.787 819.686 L 429.767 820.195 L 430.760 820.680 L 431.764 821.139 L 432.779 821.575 L 433.805 821.985 L 434.840 822.369 L 435.884 822.729 L 436.937 823.062 L 437.998 823.370 L 439.066 823.651 L 440.140 823.907 L 441.221 824.135 L 442.307 824.337 L 443.397 824.513 L 444.492 824.662 L 445.589 824.783 L 446.690 824.878 L 447.792 824.946 L 448.896 824.986 L 450.000 825.000 L 451.104 824.986 L 452.208 824.946 L 453.310 824.878 L 454.411 824.783 L 455.508 824.662 L 456.603 824.513 L 457.693 824.337 L 458.779 824.135 L 459.860 823.907 L 460.934 823.651 L 462.002 823.370 L 463.063 823.062 L 464.116 822.729 L 465.160 822.369 L 466.195 821.985 L 467.221 821.575 L 468.236 821.139 L 469.240 820.680 L 470.233 820.195 L 471.213 819.686 L 472.180 819.154 L 473.135 818.598 L 474.075 818.018 L 475.001 817.416 L 475.911 816.791 L 476.806 816.144 L 477.685 815.476 L 478.548 814.785 L 479.393 814.074 L 480.220 813.343 L 481.029 812.591 L 481.820 811.820 L 482.591 811.029 L 483.343 810.220 L 484.074 809.393 L 484.785 808.548 L 485.476 807.685 L 486.144 806.806 L 486.791 805.911 L 487.416 805.001 L 488.018 804.075 L 488.598 803.135 L 489.154 802.180 L 489.686 801.213 L 490.195 800.233 L 490.680 799.240 L 491.139 798.236 L 491.575 797.221 L 491.985 796.195 L 492.369 795.160 L 492.729 794.116 L 493.062 793.063 L 493.370 792.002 L 493.651 790.934 L 493.907 789.860 L 494.135 788.779 L 494.337 787.693 L 494.513 786.603 L 494.662 785.508 L 494.783 784.411 L 494.878 783.310 L 494.946 782.208 L 494.986 781.104 L 495.000 780.000 L 495.000 770.000 L 495.000 355.000 L 495.000 40.000 L 494.986 38.896 L 494.946 37.792 L 494.878 36.690 L 494.783 35.589 L 494.662 34.492 L 494.513 33.397 L 494.337 32.307 L 494.135 31.221 L 493.907 30.140 L 493.651 29.066 L 493.370 27.998 L 493.062 26.937 L 492.729 25.884 L 492.369 24.840 L 491.985 23.805 L 491.575 22.779 L 491.139 21.764 L 490.680 20.760 L 490.195 19.767 L 489.686 18.787 L 489.154 17.820 L 488.598 16.865 L 488.018 15.925 L 487.416 14.999 L 486.791 14.089 L 486.144 13.194 L 485.476 12.315 L 484.785 11.452 L 484.074 10.607 L 483.343 9.780 L 482.591 8.971 L 481.820 8.180 L 481.029 7.409 L 480.220 6.657 L 479.393 5.926 L 478.548 5.215 L 477.685 4.524 L 476.806 3.856 L 475.911 3.209 L 475.001 2.584 L 474.075 1.982 L 473.135 1.402 L 472.180 0.846 L 471.213 0.314 L 470.233 -0.195 L 469.240 -0.680 L 468.236 -1.139 L 467.221 -1.575 L 466.195 -1.985 L 465.160 -2.369 L 464.116 -2.729 L 463.063 -3.062 L 462.002 -3.370 L 460.934 -3.651 L 459.860 -3.907 L 458.779 -4.135 L 457.693 -4.337 L 456.603 -4.513 L 455.508 -4.662 L 454.411 -4.783 L 453.310 -4.878 L 452.208 -4.946 L 451.104 -4.986 L 450.000 -5.000 L 448.896 -4.986 L 447.792 -4.946 L 446.690 -4.878 L 445.589 -4.783 L 444.492 -4.662 L 443.397 -4.513 L 442.307 -4.337 L 441.221 -4.135 L 440.140 -3.907 L 439.066 -3.651 L 437.998 -3.370 L 436.937 -3.062 L 435.884 -2.729 L 434.840 -2.369 L 433.805 -1.985 L 432.779 -1.575 L 431.764 -1.139 L 430.760 -0.680 L 429.767 -0.195 L 428.787 0.314 L 427.820 0.846 L 426.865 1.402 L 425.925 1.982 L 424.999 2.584 L 424.089 3.209 L 423.194 3.856 L 422.315 4.524 L 421.452 5.215 L 420.607 5.926 L 419.780 6.657 L 418.971 7.409 L 418.180 8.180 L 417.409 8.971 L 416.657 9.780 L 415.926 10.607 L 415.215 11.452 L 414.524 12.315 L 413.856 13.194 L 413.209 14.089 L 412.584 14.999 L 411.982 15.925 L 411.402 16.865 L 410.846 17.820 L 410.314 18.787 L 409.805 19.767 L 409.320 20.760 L 408.861 21.764 L 408.425 22.779 L 408.015 23.805 L 407.631 24.840 L 407.271 25.884 L 406.938 26.937 L 406.630 27.998 L 406.349 29.066 L 406.093 30.140 L 405.865 31.221 L 405.663 32.307 L 405.487 33.397 L 405.338 34.492 L 405.217 35.589 L 405.122 36.690 L 405.054 37.792 L 405.014 38.896 L 405.000 40.000 L 405.000 310.000 L 283.200 310.000 L 283.040 310.002 Z M 405.000 400.000 L 405.000 725.000 L 283.360 725.000 L 281.696 724.988 L 280.192 724.956 L 278.689 724.903 L 277.186 724.828 L 275.683 724.731 L 274.181 724.613 L 272.679 724.474 L 271.179 724.314 L 269.679 724.131 L 268.180 723.928 L 266.683 723.703 L 265.187 723.456 L 263.692 723.188 L 262.199 722.899 L 260.707 722.588 L 259.218 722.255 L 257.730 721.901 L 256.244 721.525 L 254.761 721.128 L 253.280 720.709 L 251.802 720.268 L 250.326 719.806 L 248.853 719.322 L 247.384 718.817 L 245.917 718.290 L 244.454 717.741 L 242.994 717.170 L 241.538 716.578 L 240.086 715.964 L 238.638 715.329 L 237.194 714.672 L 235.755 713.993 L 234.320 713.293 L 232.890 712.570 L 231.465 711.827 L 230.046 711.061 L 228.632 710.274 L 227.223 709.466 L 225.820 708.636 L 224.424 707.784 L 223.033 706.911 L 221.649 706.017 L 220.272 705.101 L 218.902 704.164 L 217.539 703.205 L 216.183 702.226 L 214.835 701.225 L 213.495 700.203 L 212.163 699.160 L 210.839 698.096 L 209.524 697.011 L 208.217 695.906 L 206.920 694.780 L 205.632 693.633 L 204.353 692.466 L 203.084 691.278 L 201.826 690.071 L 200.577 688.843 L 199.339 687.595 L 198.112 686.327 L 196.896 685.040 L 195.691 683.733 L 194.497 682.406 L 193.315 681.061 L 192.145 679.696 L 190.988 678.312 L 189.842 676.910 L 188.710 675.489 L 187.590 674.049 L 186.483 672.592 L 185.390 671.116 L 184.311 669.622 L 183.245 668.111 L 182.193 666.583 L 181.156 665.037 L 180.133 663.474 L 179.125 661.894 L 178.132 660.298 L 177.154 658.686 L 176.191 657.057 L 175.244 655.413 L 174.313 653.753 L 173.398 652.078 L 172.499 650.387 L 171.617 648.682 L 170.751 646.962 L 169.902 645.228 L 169.070 643.480 L 168.255 641.719 L 167.457 639.943 L 166.677 638.155 L 165.915 636.353 L 165.171 634.539 L 164.445 632.713 L 163.737 630.875 L 163.047 629.025 L 162.376 627.163 L 161.724 625.291 L 161.090 623.408 L 160.475 621.514 L 159.880 619.610 L 159.304 617.696 L 158.747 615.773 L 158.210 613.840 L 157.692 611.899 L 157.195 609.949 L 156.717 607.991 L 156.259 606.025 L 155.821 604.051 L 155.403 602.070 L 155.006 600.082 L 154.629 598.088 L 154.272 596.088 L 153.936 594.082 L 153.621 592.070 L 153.326 590.053 L 153.052 588.031 L 152.799 586.005 L 152.567 583.975 L 152.356 581.941 L 152.166 579.904 L 151.996 577.864 L 151.848 575.820 L 151.721 573.775 L 151.615 571.728 L 151.530 569.679 L 151.467 567.629 L 151.424 565.578 L 151.403 563.526 L 151.403 561.474 L 151.424 559.422 L 151.467 557.371 L 151.530 555.321 L 151.615 553.272 L 151.721 551.225 L 151.848 549.180 L 151.996 547.136 L 152.166 545.096 L 152.356 543.059 L 152.567 541.025 L 152.799 538.995 L 153.052 536.969 L 153.326 534.947 L 153.621 532.930 L 153.936 530.918 L 154.272 528.912 L 154.629 526.912 L 155.006 524.918 L 155.403 522.930 L 155.821 520.949 L 156.259 518.975 L 156.717 517.009 L 157.195 515.051 L 157.692 513.101 L 158.210 511.160 L 158.747 509.227 L 159.304 507.304 L 159.880 505.390 L 160.475 503.486 L 161.090 501.592 L 161.724 499.709 L 162.376 497.837 L 163.047 495.975 L 163.737 494.125 L 164.445 492.287 L 165.171 490.461 L 165.915 488.647 L 166.677 486.845 L 167.457 485.057 L 168.255 483.281 L 169.070 481.520 L 169.902 479.772 L 170.751 478.038 L 171.617 476.318 L 172.499 474.613 L 173.398 472.922 L 174.313 471.247 L 175.244 469.587 L 176.191 467.943 L 177.154 466.314 L 178.132 464.702 L 179.125 463.106 L 180.133 461.526 L 181.156 459.963 L 182.193 458.417 L 183.245 456.889 L 184.311 455.378 L 185.390 453.884 L 186.483 452.408 L 187.590 450.951 L 188.710 449.511 L 189.842 448.090 L 190.988 446.688 L 192.145 445.304 L 193.315 443.939 L 194.497 442.594 L 195.691 441.267 L 196.896 439.960 L 198.112 438.673 L 199.339 437.405 L 200.577 436.157 L 201.826 434.929 L 203.084 433.722 L 204.353 432.534 L 205.632 431.367 L 206.920 430.220 L 208.217 429.094 L 209.524 427.989 L 210.839 426.904 L 212.163 425.840 L 213.495 424.797 L 214.835 423.775 L 216.183 422.774 L 217.539 421.795 L 218.902 420.836 L 220.272 419.899 L 221.649 418.983 L 223.033 418.089 L 224.424 417.216 L 225.820 416.364 L 227.223 415.534 L 228.632 414.726 L 230.046 413.939 L 231.465 413.173 L 232.890 412.430 L 234.320 411.707 L 235.755 411.007 L 237.194 410.328 L 238.638 409.671 L 240.086 409.036 L 241.538 408.422 L 242.994 407.830 L 244.454 407.259 L 245.917 406.710 L 247.384 406.183 L 248.853 405.678 L 250.326 405.194 L 251.802 404.732 L 253.280 404.291 L 254.761 403.872 L 256.244 403.475 L 257.730 403.099 L 259.218 402.745 L 260.707 402.412 L 262.199 402.101 L 263.692 401.812 L 265.187 401.544 L 266.683 401.297 L 268.180 401.072 L 269.679 400.869 L 271.179 400.686 L 272.679 400.526 L 274.181 400.387 L 275.683 400.269 L 277.186 400.172 L 278.689 400.097 L 280.192 400.044 L 281.696 400.012 L 283.360 400.000 L 405.000 400.000 Z" fill="black" fill-rule="evenodd"/>
</svg>
