<svg xmlns="http://www.w3.org/2000/svg" viewBox="0 0 700.000 1000" width="700.000" height="1000">
  <path d="M 254.137 339.986 L 255.137 334.909 L 256.159 329.865 L 257.202 324.855 L 258.267 319.879 L 259.352 314.938 L 260.458 310.032 L 261.585 305.163 L 262.732 300.332 L 263.900 295.538 L 265.087 290.782 L 266.294 286.066 L 267.520 281.390 L 268.765 276.754 L 270.030 272.160 L 271.313 267.608 L 272.614 263.099 L 273.934 258.634 L 275.272 254.212 L 276.627 249.836 L 277.999 245.505 L 279.388 241.221 L 280.794 236.983 L 282.216 232.793 L 283.654 228.652 L 285.108 224.559 L 286.577 220.516 L 288.061 216.524 L 289.560 212.582 L 291.073 208.692 L 292.599 204.855 L 294.139 201.070 L 295.692 197.339 L 297.258 193.662 L 298.835 190.040 L 300.424 186.473 L 302.025 182.963 L 303.636 179.509 L 305.257 176.112 L 306.888 172.773 L 308.528 169.493 L 310.176 166.272 L 311.833 163.111 L 313.497 160.009 L 315.168 156.969 L 316.845 153.989 L 318.527 151.072 L 320.215 148.216 L 321.907 145.424 L 323.602 142.695 L 325.300 140.030 L 327.000 137.429 L 328.701 134.892 L 330.402 132.421 L 332.103 130.015 L 333.803 127.674 L 335.501 125.400 L 337.195 123.193 L 338.886 121.051 L 340.571 118.977 L 342.251 116.970 L 343.923 115.030 L 345.588 113.157 L 347.243 111.351 L 348.889 109.613 L 350.523 107.942 L 352.144 106.337 L 353.753 104.800 L 355.346 103.329 L 356.924 101.924 L 358.485 100.584 L 360.029 99.309 L 361.553 98.099 L 363.057 96.953 L 364.541 95.869 L 366.002 94.846 L 367.441 93.885 L 368.856 92.983 L 370.247 92.139 L 371.613 91.353 L 372.954 90.621 L 374.269 89.944 L 375.558 89.318 L 376.821 88.743 L 378.059 88.217 L 379.271 87.738 L 380.458 87.304 L 381.622 86.913 L 382.762 86.563 L 383.880 86.253 L 384.978 85.981 L 386.058 85.746 L 387.120 85.545 L 388.167 85.377 L 389.202 85.242 L 390.226 85.137 L 391.243 85.063 L 392.254 85.019 L 393.473 85.002 L 393.621 85.002 L 393.979 85.008 L 394.338 85.017 L 394.697 85.030 L 395.057 85.047 L 395.417 85.067 L 395.778 85.092 L 396.140 85.120 L 396.502 85.152 L 396.866 85.187 L 397.231 85.227 L 397.597 85.270 L 397.965 85.318 L 398.334 85.370 L 398.705 85.425 L 399.077 85.485 L 399.451 85.549 L 399.827 85.617 L 400.206 85.689 L 400.586 85.766 L 400.968 85.847 L 401.353 85.933 L 401.740 86.023 L 402.129 86.118 L 402.521 86.217 L 402.915 86.322 L 403.312 86.431 L 403.712 86.545 L 404.115 86.664 L 404.520 86.788 L 404.928 86.917 L 405.339 87.052 L 405.753 87.192 L 406.170 87.337 L 406.591 87.488 L 407.014 87.644 L 407.440 87.806 L 407.870 87.973 L 408.302 88.147 L 408.738 88.326 L 409.177 88.512 L 409.620 88.703 L 410.065 88.901 L 410.514 89.105 L 410.966 89.315 L 411.422 89.531 L 411.880 89.754 L 412.342 89.984 L 412.807 90.220 L 413.276 90.463 L 413.748 90.712 L 414.222 90.968 L 414.701 91.232 L 415.182 91.502 L 415.667 91.779 L 416.154 92.064 L 416.645 92.355 L 417.139 92.654 L 417.637 92.960 L 418.137 93.274 L 418.640 93.595 L 419.146 93.923 L 419.656 94.259 L 420.168 94.603 L 420.683 94.954 L 421.201 95.313 L 421.722 95.679 L 422.245 96.054 L 422.772 96.436 L 423.301 96.826 L 423.832 97.224 L 424.367 97.630 L 424.904 98.044 L 425.443 98.466 L 425.985 98.896 L 426.529 99.334 L 427.076 99.780 L 427.625 100.235 L 428.177 100.698 L 428.730 101.169 L 429.286 101.648 L 429.844 102.135 L 430.404 102.631 L 430.967 103.135 L 431.531 103.647 L 432.097 104.168 L 432.665 104.697 L 433.235 105.235 L 433.806 105.781 L 434.380 106.335 L 434.955 106.898 L 435.532 107.469 L 436.110 108.049 L 436.690 108.637 L 437.272 109.233 L 437.854 109.839 L 438.439 110.452 L 439.024 111.074 L 439.611 111.705 L 440.200 112.344 L 440.789 112.992 L 441.379 113.648 L 441.971 114.312 L 442.564 114.985 L 443.158 115.667 L 443.752 116.357 L 444.348 117.056 L 444.945 117.763 L 445.542 118.478 L 446.140 119.202 L 446.739 119.935 L 447.339 120.676 L 447.939 121.425 L 448.540 122.183 L 449.141 122.950 L 449.743 123.724 L 450.346 124.507 L 450.948 125.299 L 451.552 126.099 L 452.155 126.907 L 452.759 127.724 L 453.363 128.549 L 453.968 129.383 L 454.572 130.224 L 455.177 131.074 L 455.782 131.933 L 456.387 132.799 L 456.992 133.674 L 457.597 134.557 L 458.202 135.449 L 458.807 136.348 L 459.412 137.256 L 460.016 138.172 L 460.621 139.096 L 461.225 140.028 L 461.829 140.969 L 462.433 141.917 L 463.036 142.874 L 463.687 143.915 L 464.284 144.844 L 464.903 145.758 L 465.545 146.657 L 466.209 147.540 L 466.894 148.406 L 467.600 149.255 L 468.327 150.087 L 469.074 150.900 L 469.841 151.695 L 470.627 152.471 L 471.431 153.228 L 472.254 153.964 L 473.095 154.680 L 473.954 155.375 L 474.829 156.049 L 475.720 156.701 L 476.627 157.331 L 477.549 157.939 L 478.486 158.524 L 479.437 159.085 L 480.402 159.623 L 481.379 160.138 L 482.369 160.628 L 483.370 161.094 L 484.383 161.535 L 485.406 161.951 L 486.439 162.341 L 487.481 162.707 L 488.532 163.046 L 489.591 163.360 L 490.657 163.648 L 491.730 163.909 L 492.810 164.144 L 493.894 164.353 L 494.984 164.534 L 496.077 164.689 L 497.174 164.817 L 498.274 164.919 L 499.376 164.993 L 500.479 165.040 L 501.583 165.060 L 502.688 165.053 L 503.792 165.018 L 504.895 164.957 L 505.995 164.869 L 507.094 164.753 L 508.189 164.611 L 509.280 164.442 L 510.367 164.246 L 511.449 164.023 L 512.525 163.774 L 513.595 163.499 L 514.657 163.198 L 515.712 162.870 L 516.759 162.517 L 517.796 162.138 L 518.824 161.734 L 519.841 161.305 L 520.848 160.851 L 521.843 160.372 L 522.827 159.869 L 523.797 159.342 L 524.755 158.792 L 525.698 158.218 L 526.628 157.621 L 527.542 157.001 L 528.441 156.359 L 529.324 155.696 L 530.190 155.011 L 531.039 154.304 L 531.871 153.578 L 532.684 152.831 L 533.479 152.064 L 534.255 151.278 L 535.011 150.473 L 535.748 149.650 L 536.464 148.809 L 537.159 147.951 L 537.833 147.076 L 538.485 146.184 L 539.115 145.277 L 539.722 144.355 L 540.307 143.418 L 540.869 142.467 L 541.407 141.503 L 541.921 140.525 L 542.412 139.536 L 542.877 138.534 L 543.318 137.522 L 543.734 136.499 L 544.125 135.466 L 544.490 134.423 L 544.830 133.372 L 545.144 132.314 L 545.431 131.247 L 545.693 130.174 L 545.928 129.095 L 546.136 128.010 L 546.318 126.921 L 546.473 125.827 L 546.601 124.731 L 546.702 123.631 L 546.776 122.529 L 546.823 121.425 L 546.843 120.321 L 546.836 119.217 L 546.802 118.113 L 546.741 117.010 L 546.652 115.909 L 546.537 114.811 L 546.395 113.715 L 546.225 112.624 L 546.030 111.537 L 545.807 110.455 L 545.558 109.379 L 545.283 108.310 L 544.981 107.247 L 544.654 106.192 L 544.301 105.146 L 543.922 104.109 L 543.518 103.081 L 543.089 102.063 L 542.634 101.056 L 542.156 100.061 L 541.653 99.078 L 541.126 98.107 L 540.575 97.150 L 540.001 96.206 L 539.302 95.088 L 539.206 94.934 L 538.505 93.823 L 538.407 93.668 L 537.704 92.564 L 537.604 92.408 L 536.900 91.312 L 536.799 91.155 L 536.093 90.066 L 535.991 89.909 L 535.283 88.827 L 535.179 88.669 L 534.470 87.594 L 534.364 87.435 L 533.653 86.368 L 533.546 86.208 L 532.834 85.148 L 532.725 84.987 L 532.011 83.935 L 531.900 83.773 L 531.184 82.728 L 531.073 82.566 L 530.355 81.528 L 530.242 81.365 L 529.522 80.334 L 529.407 80.170 L 528.686 79.147 L 528.570 78.983 L 527.847 77.967 L 527.729 77.801 L 527.005 76.793 L 526.884 76.627 L 526.159 75.626 L 526.037 75.459 L 525.310 74.466 L 525.186 74.298 L 524.457 73.312 L 524.332 73.143 L 523.601 72.165 L 523.474 71.995 L 522.742 71.025 L 522.613 70.854 L 521.879 69.891 L 521.748 69.720 L 521.013 68.765 L 520.880 68.592 L 520.144 67.645 L 520.009 67.471 L 519.271 66.531 L 519.134 66.357 L 518.394 65.425 L 518.255 65.250 L 517.515 64.326 L 517.373 64.150 L 516.631 63.233 L 516.488 63.056 L 515.744 62.147 L 515.598 61.970 L 514.854 61.068 L 514.706 60.890 L 513.959 59.996 L 513.809 59.817 L 513.062 58.931 L 512.909 58.752 L 512.160 57.873 L 512.006 57.693 L 511.255 56.822 L 511.099 56.641 L 510.347 55.778 L 510.188 55.596 L 509.434 54.741 L 509.273 54.559 L 508.518 53.711 L 508.354 53.528 L 507.599 52.688 L 507.432 52.504 L 506.675 51.673 L 506.506 51.488 L 505.748 50.664 L 505.576 50.479 L 504.817 49.663 L 504.643 49.477 L 503.882 48.668 L 503.705 48.482 L 502.943 47.681 L 502.764 47.494 L 502.000 46.702 L 501.818 46.514 L 501.054 45.729 L 500.869 45.541 L 500.103 44.764 L 499.916 44.575 L 499.149 43.807 L 498.959 43.617 L 498.191 42.856 L 497.998 42.666 L 497.228 41.913 L 497.032 41.723 L 496.262 40.978 L 496.063 40.787 L 495.291 40.050 L 495.090 39.859 L 494.317 39.130 L 494.112 38.938 L 493.338 38.217 L 493.131 38.025 L 492.355 37.312 L 492.145 37.119 L 491.368 36.414 L 491.155 36.221 L 490.377 35.524 L 490.161 35.331 L 489.382 34.642 L 489.162 34.449 L 488.383 33.768 L 488.159 33.574 L 487.379 32.901 L 487.152 32.708 L 486.371 32.043 L 486.141 31.849 L 485.359 31.192 L 485.126 30.998 L 484.342 30.349 L 484.106 30.155 L 483.321 29.515 L 483.081 29.320 L 482.296 28.688 L 482.053 28.494 L 481.266 27.870 L 481.019 27.675 L 480.232 27.059 L 479.982 26.865 L 479.193 26.257 L 478.940 26.063 L 478.150 25.463 L 477.893 25.269 L 477.103 24.678 L 476.842 24.484 L 476.051 23.901 L 475.787 23.707 L 474.994 23.132 L 474.726 22.939 L 473.933 22.372 L 473.662 22.179 L 472.868 21.620 L 472.593 21.428 L 471.798 20.877 L 471.519 20.686 L 470.723 20.143 L 470.440 19.952 L 469.644 19.418 L 469.357 19.227 L 468.560 18.701 L 468.270 18.512 L 467.472 17.994 L 467.178 17.805 L 466.379 17.295 L 466.081 17.107 L 465.281 16.606 L 464.979 16.418 L 464.179 15.925 L 463.873 15.739 L 463.072 15.254 L 462.763 15.069 L 461.960 14.592 L 461.647 14.408 L 460.844 13.940 L 460.527 13.756 L 459.724 13.297 L 459.403 13.115 L 458.598 12.663 L 458.273 12.482 L 457.468 12.039 L 457.139 11.860 L 456.334 11.425 L 456.001 11.247 L 455.195 10.820 L 454.858 10.644 L 454.051 10.226 L 453.710 10.051 L 452.903 9.641 L 452.558 9.468 L 451.750 9.067 L 451.401 8.895 L 450.592 8.502 L 450.240 8.333 L 449.431 7.948 L 449.074 7.781 L 448.264 7.404 L 447.904 7.239 L 447.093 6.871 L 446.730 6.707 L 445.918 6.348 L 445.551 6.187 L 444.739 5.835 L 444.367 5.676 L 443.555 5.333 L 443.180 5.177 L 442.367 4.842 L 441.988 4.688 L 441.174 4.362 L 440.792 4.211 L 439.978 3.893 L 439.591 3.744 L 438.777 3.435 L 438.387 3.289 L 437.572 2.988 L 437.179 2.845 L 436.363 2.552 L 435.966 2.412 L 435.150 2.128 L 434.750 1.990 L 433.933 1.715 L 433.530 1.580 L 432.713 1.313 L 432.306 1.182 L 431.488 0.923 L 431.078 0.795 L 430.260 0.545 L 429.847 0.421 L 429.029 0.179 L 428.612 0.057 L 427.793 -0.176 L 427.373 -0.294 L 426.555 -0.519 L 426.132 -0.633 L 425.313 -0.849 L 424.887 -0.960 L 424.067 -1.168 L 423.638 -1.274 L 422.819 -1.474 L 422.387 -1.577 L 421.567 -1.768 L 421.133 -1.867 L 420.313 -2.050 L 419.876 -2.145 L 419.055 -2.319 L 418.616 -2.410 L 417.795 -2.575 L 417.353 -2.662 L 416.532 -2.820 L 416.088 -2.902 L 415.267 -3.051 L 414.821 -3.130 L 413.999 -3.270 L 413.551 -3.344 L 412.729 -3.476 L 412.279 -3.546 L 411.457 -3.669 L 411.005 -3.734 L 410.183 -3.849 L 409.729 -3.910 L 408.907 -4.016 L 408.451 -4.073 L 407.629 -4.171 L 407.172 -4.223 L 406.349 -4.312 L 405.891 -4.359 L 405.068 -4.440 L 404.609 -4.483 L 403.786 -4.555 L 403.325 -4.593 L 402.502 -4.657 L 402.041 -4.690 L 401.218 -4.746 L 400.755 -4.774 L 399.932 -4.821 L 399.469 -4.845 L 398.646 -4.883 L 398.182 -4.903 L 397.359 -4.932 L 396.894 -4.947 L 396.071 -4.968 L 395.606 -4.978 L 394.783 -4.990 L 394.318 -4.995 L 393.495 -4.999 L 392.609 -4.995 L 390.293 -4.962 L 388.987 -4.924 L 386.672 -4.823 L 385.370 -4.747 L 383.056 -4.579 L 381.762 -4.466 L 379.448 -4.231 L 378.164 -4.081 L 375.851 -3.779 L 374.580 -3.594 L 372.269 -3.224 L 371.013 -3.005 L 368.704 -2.568 L 367.466 -2.316 L 365.159 -1.811 L 363.941 -1.528 L 361.637 -0.957 L 360.441 -0.643 L 358.139 -0.005 L 356.967 0.337 L 354.668 1.042 L 353.522 1.410 L 351.226 2.181 L 350.107 2.574 L 347.814 3.412 L 346.724 3.827 L 344.435 4.732 L 343.373 5.168 L 341.089 6.139 L 340.057 6.593 L 337.776 7.631 L 336.775 8.101 L 334.499 9.205 L 333.529 9.691 L 331.258 10.861 L 330.318 11.359 L 328.053 12.595 L 327.144 13.104 L 324.885 14.406 L 324.007 14.925 L 321.753 16.292 L 320.905 16.819 L 318.658 18.251 L 317.841 18.785 L 315.599 20.283 L 314.812 20.821 L 312.578 22.384 L 311.819 22.926 L 309.592 24.553 L 308.862 25.098 L 306.642 26.790 L 305.940 27.336 L 303.728 29.093 L 303.053 29.639 L 300.849 31.459 L 300.201 32.005 L 298.004 33.890 L 297.382 34.434 L 295.194 36.382 L 294.596 36.924 L 292.416 38.936 L 291.843 39.475 L 289.672 41.550 L 289.122 42.086 L 286.961 44.224 L 286.432 44.755 L 284.281 46.956 L 283.774 47.483 L 281.632 49.745 L 281.146 50.267 L 279.014 52.593 L 278.548 53.109 L 276.426 55.496 L 275.979 56.007 L 273.868 58.455 L 273.439 58.961 L 271.339 61.470 L 270.928 61.969 L 268.839 64.540 L 268.444 65.033 L 266.367 67.664 L 265.989 68.150 L 263.923 70.841 L 263.560 71.321 L 261.506 74.072 L 261.157 74.546 L 259.116 77.356 L 258.782 77.823 L 256.753 80.692 L 256.432 81.153 L 254.415 84.081 L 254.107 84.534 L 252.104 87.521 L 251.808 87.968 L 249.818 91.013 L 249.534 91.453 L 247.558 94.556 L 247.285 94.989 L 245.323 98.149 L 245.060 98.576 L 243.112 101.793 L 242.860 102.213 L 240.926 105.486 L 240.684 105.901 L 238.764 109.230 L 238.531 109.638 L 236.626 113.022 L 236.403 113.424 L 234.513 116.864 L 234.298 117.260 L 232.423 120.754 L 232.216 121.144 L 230.357 124.692 L 230.158 125.076 L 228.314 128.679 L 228.123 129.057 L 226.295 132.713 L 226.111 133.085 L 224.300 136.794 L 224.122 137.161 L 222.327 140.922 L 222.157 141.283 L 220.378 145.096 L 220.214 145.452 L 218.452 149.317 L 218.294 149.668 L 216.549 153.583 L 216.397 153.929 L 214.670 157.895 L 214.523 158.236 L 212.813 162.252 L 212.672 162.588 L 210.980 166.653 L 210.843 166.984 L 209.169 171.098 L 209.038 171.425 L 207.382 175.588 L 207.255 175.910 L 205.618 180.120 L 205.496 180.438 L 203.877 184.696 L 203.759 185.009 L 202.159 189.314 L 202.045 189.623 L 200.465 193.974 L 200.355 194.279 L 198.793 198.675 L 198.687 198.977 L 197.145 203.418 L 197.043 203.716 L 195.520 208.202 L 195.421 208.496 L 193.919 213.025 L 193.823 213.316 L 192.341 217.889 L 192.249 218.176 L 190.786 222.792 L 190.697 223.075 L 189.255 227.733 L 189.169 228.013 L 187.748 232.713 L 187.665 232.989 L 186.264 237.730 L 186.184 238.004 L 184.804 242.785 L 184.727 243.055 L 183.368 247.876 L 183.293 248.144 L 181.956 253.004 L 181.884 253.268 L 180.568 258.167 L 180.498 258.429 L 179.204 263.365 L 179.136 263.624 L 177.864 268.598 L 177.799 268.855 L 176.548 273.865 L 176.485 274.119 L 175.257 279.165 L 175.196 279.417 L 173.990 284.499 L 173.931 284.747 L 172.747 289.864 L 172.691 290.111 L 171.529 295.261 L 171.475 295.506 L 170.336 300.690 L 170.284 300.932 L 169.168 306.149 L 169.117 306.389 L 168.024 311.638 L 167.975 311.875 L 166.906 317.156 L 166.858 317.391 L 165.812 322.703 L 165.766 322.936 L 164.743 328.278 L 164.699 328.510 L 163.700 333.880 L 163.658 334.110 L 162.682 339.510 L 162.641 339.738 L 161.689 345.165 L 161.650 345.392 L 160.722 350.847 L 160.684 351.072 L 159.780 356.553 L 159.743 356.776 L 158.863 362.284 L 158.828 362.505 L 157.973 368.038 L 157.939 368.258 L 157.108 373.815 L 157.075 374.034 L 156.268 379.615 L 156.238 379.833 L 155.455 385.436 L 155.425 385.653 L 154.668 391.279 L 154.639 391.494 L 153.906 397.142 L 153.879 397.356 L 153.171 403.025 L 153.145 403.237 L 152.462 408.926 L 152.437 409.138 L 151.779 414.846 L 151.755 415.057 L 151.122 420.784 L 151.100 420.993 L 150.492 426.739 L 150.470 426.947 L 149.888 432.710 L 149.868 432.917 L 149.310 438.696 L 149.291 438.903 L 148.759 444.698 L 148.741 444.904 L 148.235 450.714 L 148.217 450.919 L 147.737 456.743 L 147.721 456.947 L 147.266 462.785 L 147.250 462.989 L 146.821 468.840 L 146.806 469.043 L 146.403 474.906 L 146.390 475.108 L 146.012 480.982 L 145.999 481.184 L 145.647 487.069 L 145.636 487.270 L 145.310 493.165 L 145.299 493.365 L 144.999 499.269 L 144.989 499.469 L 144.715 505.381 L 144.706 505.581 L 144.458 511.501 L 144.450 511.700 L 144.228 517.627 L 144.221 517.826 L 144.025 523.759 L 144.019 523.957 L 143.849 529.895 L 143.844 530.094 L 143.700 536.036 L 143.696 536.235 L 143.578 542.181 L 143.575 542.379 L 143.483 548.329 L 143.480 548.527 L 143.415 554.478 L 143.413 554.676 L 143.374 560.629 L 143.373 560.827 L 143.360 566.781 L 143.362 567.001 L 143.362 567.338 L 143.416 572.568 L 143.434 573.483 L 143.594 578.710 L 143.631 579.626 L 143.897 584.847 L 143.953 585.762 L 144.325 590.973 L 144.399 591.888 L 144.877 597.087 L 144.971 598.002 L 145.554 603.185 L 145.667 604.100 L 146.355 609.264 L 146.487 610.178 L 147.281 615.321 L 147.431 616.235 L 148.329 621.352 L 148.499 622.266 L 149.501 627.355 L 149.690 628.268 L 150.795 633.326 L 151.005 634.238 L 152.212 639.262 L 152.441 640.174 L 153.751 645.160 L 154.000 646.071 L 155.410 651.017 L 155.680 651.927 L 157.191 656.830 L 157.481 657.739 L 159.091 662.596 L 159.403 663.503 L 161.111 668.310 L 161.444 669.216 L 163.249 673.972 L 163.603 674.876 L 165.505 679.576 L 165.881 680.478 L 167.878 685.121 L 168.276 686.021 L 170.367 690.603 L 170.788 691.500 L 172.971 696.019 L 173.415 696.913 L 175.689 701.366 L 176.156 702.256 L 178.520 706.641 L 179.011 707.527 L 181.464 711.840 L 181.979 712.722 L 184.519 716.962 L 185.058 717.839 L 187.683 722.002 L 188.247 722.873 L 190.956 726.957 L 191.545 727.823 L 194.336 731.826 L 194.951 732.685 L 197.822 736.603 L 198.463 737.456 L 201.413 741.288 L 202.079 742.132 L 205.107 745.876 L 205.800 746.711 L 208.903 750.364 L 209.622 751.190 L 212.798 754.750 L 213.544 755.566 L 216.792 759.031 L 217.565 759.835 L 220.882 763.203 L 221.682 763.995 L 225.067 767.264 L 225.894 768.043 L 229.344 771.210 L 230.199 771.975 L 233.713 775.039 L 234.595 775.788 L 238.170 778.747 L 239.079 779.481 L 242.713 782.333 L 243.650 783.049 L 247.341 785.793 L 248.305 786.489 L 252.050 789.123 L 253.041 789.800 L 256.839 792.322 L 257.855 792.978 L 261.704 795.387 L 262.747 796.020 L 266.643 798.315 L 267.711 798.924 L 271.652 801.102 L 272.746 801.687 L 276.730 803.748 L 277.848 804.306 L 281.873 806.248 L 283.014 806.779 L 287.077 808.602 L 288.241 809.104 L 292.340 810.805 L 293.525 811.278 L 297.658 812.857 L 298.863 813.298 L 303.026 814.755 L 304.251 815.164 L 308.443 816.497 L 309.685 816.872 L 313.903 818.081 L 315.161 818.422 L 319.403 819.505 L 320.676 819.811 L 324.938 820.768 L 326.226 821.038 L 330.506 821.869 L 331.805 822.101 L 336.100 822.805 L 337.410 823.000 L 341.718 823.576 L 343.036 823.733 L 347.355 824.182 L 348.679 824.299 L 353.006 824.620 L 354.335 824.699 L 358.667 824.891 L 359.999 824.931 L 364.334 824.995 L 365.666 824.995 L 370.001 824.931 L 371.333 824.891 L 375.665 824.699 L 376.994 824.620 L 381.321 824.299 L 382.645 824.182 L 386.964 823.733 L 388.282 823.576 L 392.590 823.000 L 393.900 822.805 L 398.195 822.101 L 399.494 821.869 L 403.774 821.038 L 405.062 820.768 L 409.324 819.811 L 410.597 819.505 L 414.839 818.422 L 416.097 818.081 L 420.315 816.872 L 421.557 816.497 L 425.749 815.164 L 426.974 814.755 L 431.137 813.298 L 432.342 812.857 L 436.475 811.278 L 437.660 810.805 L 441.759 809.104 L 442.923 808.602 L 446.986 806.779 L 448.127 806.248 L 452.152 804.306 L 453.270 803.748 L 457.254 801.687 L 458.348 801.102 L 462.289 798.924 L 463.357 798.315 L 467.253 796.020 L 468.296 795.387 L 472.145 792.978 L 473.161 792.322 L 476.959 789.800 L 477.950 789.123 L 481.695 786.489 L 482.659 785.793 L 486.350 783.049 L 487.287 782.333 L 490.921 779.481 L 491.830 778.747 L 495.405 775.788 L 496.287 775.039 L 499.801 771.975 L 500.656 771.210 L 504.106 768.043 L 504.933 767.264 L 508.318 763.995 L 509.118 763.203 L 512.435 759.835 L 513.208 759.031 L 516.456 755.566 L 517.202 754.750 L 520.378 751.190 L 521.097 750.364 L 524.200 746.711 L 524.893 745.876 L 527.921 742.132 L 528.587 741.288 L 531.537 737.456 L 532.178 736.603 L 535.049 732.685 L 535.664 731.826 L 538.455 727.823 L 539.044 726.957 L 541.753 722.873 L 542.317 722.002 L 544.942 717.839 L 545.481 716.962 L 548.021 712.722 L 548.536 711.840 L 550.989 707.527 L 551.480 706.641 L 553.844 702.256 L 554.311 701.366 L 556.585 696.913 L 557.029 696.019 L 559.212 691.500 L 559.633 690.603 L 561.724 686.021 L 562.122 685.121 L 564.119 680.478 L 564.495 679.576 L 566.397 674.876 L 566.751 673.972 L 568.556 669.216 L 568.889 668.310 L 570.597 663.503 L 570.909 662.596 L 572.519 657.739 L 572.809 656.830 L 574.320 651.927 L 574.590 651.017 L 576.000 646.071 L 576.249 645.160 L 577.559 640.174 L 577.788 639.262 L 578.995 634.238 L 579.205 633.326 L 580.310 628.268 L 580.499 627.355 L 581.501 622.266 L 581.671 621.352 L 582.569 616.235 L 582.719 615.321 L 583.513 610.178 L 583.645 609.264 L 584.333 604.100 L 584.446 603.185 L 585.029 598.002 L 585.123 597.087 L 585.601 591.888 L 585.675 590.973 L 586.047 585.762 L 586.103 584.847 L 586.369 579.626 L 586.406 578.710 L 586.566 573.483 L 586.584 572.568 L 586.638 567.338 L 586.638 566.422 L 586.584 561.192 L 586.566 560.277 L 586.406 555.050 L 586.369 554.134 L 586.103 548.913 L 586.047 547.998 L 585.675 542.787 L 585.601 541.872 L 585.123 536.673 L 585.029 535.758 L 584.446 530.575 L 584.333 529.660 L 583.645 524.496 L 583.513 523.582 L 582.719 518.439 L 582.569 517.525 L 581.671 512.408 L 581.501 511.494 L 580.499 506.405 L 580.310 505.492 L 579.205 500.434 L 578.995 499.522 L 577.788 494.498 L 577.559 493.586 L 576.249 488.600 L 576.000 487.689 L 574.590 482.743 L 574.320 481.833 L 572.809 476.930 L 572.519 476.021 L 570.909 471.164 L 570.597 470.257 L 568.889 465.450 L 568.556 464.544 L 566.751 459.788 L 566.397 458.884 L 564.495 454.184 L 564.119 453.282 L 562.122 448.639 L 561.724 447.739 L 559.633 443.157 L 559.212 442.260 L 557.029 437.741 L 556.585 436.847 L 554.311 432.394 L 553.844 431.504 L 551.480 427.119 L 550.989 426.233 L 548.536 421.920 L 548.021 421.038 L 545.481 416.798 L 544.942 415.921 L 542.317 411.758 L 541.753 410.887 L 539.044 406.803 L 538.455 405.937 L 535.664 401.934 L 535.049 401.075 L 532.178 397.157 L 531.537 396.304 L 528.587 392.472 L 527.921 391.628 L 524.893 387.884 L 524.200 387.049 L 521.097 383.396 L 520.378 382.570 L 517.202 379.010 L 516.456 378.194 L 513.208 374.729 L 512.435 373.925 L 509.118 370.557 L 508.318 369.765 L 504.933 366.496 L 504.106 365.717 L 500.656 362.550 L 499.801 361.785 L 496.287 358.721 L 495.405 357.972 L 491.830 355.013 L 490.921 354.279 L 487.287 351.427 L 486.350 350.711 L 482.659 347.967 L 481.695 347.271 L 477.950 344.637 L 476.959 343.960 L 473.161 341.438 L 472.145 340.782 L 468.296 338.373 L 467.253 337.740 L 463.357 335.445 L 462.289 334.836 L 458.348 332.658 L 457.254 332.073 L 453.270 330.012 L 452.152 329.454 L 448.127 327.512 L 446.986 326.981 L 442.923 325.158 L 441.759 324.656 L 437.660 322.955 L 436.475 322.482 L 432.342 320.903 L 431.137 320.462 L 426.974 319.005 L 425.749 318.596 L 421.557 317.263 L 420.315 316.888 L 416.097 315.679 L 414.839 315.338 L 410.597 314.255 L 409.324 313.949 L 405.062 312.992 L 403.774 312.722 L 399.494 311.891 L 398.195 311.659 L 393.900 310.955 L 392.590 310.760 L 388.282 310.184 L 386.964 310.027 L 382.645 309.578 L 381.321 309.461 L 376.994 309.140 L 375.665 309.061 L 371.333 308.869 L 370.001 308.829 L 365.666 308.765 L 364.334 308.765 L 359.999 308.829 L 358.667 308.869 L 354.335 309.061 L 353.006 309.140 L 348.679 309.461 L 347.355 309.578 L 343.036 310.027 L 341.718 310.184 L 337.410 310.760 L 336.100 310.955 L 331.805 311.659 L 330.506 311.891 L 326.226 312.722 L 324.938 312.992 L 320.676 313.949 L 319.403 314.255 L 315.161 315.338 L 313.903 315.679 L 309.685 316.888 L 308.443 317.263 L 304.251 318.596 L 303.026 319.005 L 298.863 320.462 L 297.658 320.903 L 293.525 322.482 L 292.340 322.955 L 288.241 324.656 L 287.077 325.158 L 283.014 326.981 L 281.873 327.512 L 277.848 329.454 L 276.730 330.012 L 272.746 332.073 L 271.652 332.658 L 267.711 334.836 L 266.643 335.445 L 262.747 337.740 L 261.704 338.373 L 257.855 340.782 L 256.839 341.438 L 253.424 343.705 L 254.137 339.986 Z M 496.594 571.195 L 496.462 575.506 L 496.243 579.812 L 495.936 584.108 L 495.543 588.391 L 495.062 592.659 L 494.495 596.909 L 493.843 601.137 L 493.105 605.340 L 492.284 609.516 L 491.378 613.661 L 490.390 617.772 L 489.320 621.847 L 488.169 625.882 L 486.939 629.876 L 485.630 633.824 L 484.244 637.725 L 482.783 641.575 L 481.246 645.373 L 479.637 649.115 L 477.957 652.799 L 476.206 656.423 L 474.388 659.984 L 472.502 663.480 L 470.553 666.908 L 468.540 670.268 L 466.467 673.556 L 464.334 676.770 L 462.145 679.910 L 459.901 682.972 L 457.603 685.956 L 455.255 688.859 L 452.858 691.681 L 450.414 694.420 L 447.926 697.075 L 445.395 699.644 L 442.825 702.126 L 440.216 704.521 L 437.571 706.828 L 434.892 709.046 L 432.181 711.173 L 429.440 713.211 L 426.672 715.158 L 423.878 717.013 L 421.060 718.777 L 418.219 720.450 L 415.359 722.031 L 412.479 723.520 L 409.583 724.917 L 406.672 726.223 L 403.747 727.437 L 400.809 728.560 L 397.860 729.592 L 394.901 730.533 L 391.934 731.383 L 388.959 732.143 L 385.977 732.812 L 382.990 733.392 L 379.999 733.882 L 377.003 734.283 L 374.005 734.595 L 371.005 734.817 L 368.003 734.951 L 365.000 734.995 L 361.997 734.951 L 358.995 734.817 L 355.995 734.595 L 352.997 734.283 L 350.001 733.882 L 347.010 733.392 L 344.023 732.812 L 341.041 732.143 L 338.066 731.383 L 335.099 730.533 L 332.140 729.592 L 329.191 728.560 L 326.253 727.437 L 323.328 726.223 L 320.417 724.917 L 317.521 723.520 L 314.641 722.031 L 311.781 720.450 L 308.940 718.777 L 306.122 717.013 L 303.328 715.158 L 300.560 713.211 L 297.819 711.173 L 295.108 709.046 L 292.429 706.828 L 289.784 704.521 L 287.175 702.126 L 284.605 699.644 L 282.074 697.075 L 279.586 694.420 L 277.142 691.681 L 274.745 688.859 L 272.397 685.956 L 270.099 682.972 L 267.855 679.910 L 265.666 676.770 L 263.533 673.556 L 261.460 670.268 L 259.447 666.908 L 257.498 663.480 L 255.612 659.984 L 253.794 656.423 L 252.043 652.799 L 250.363 649.115 L 248.754 645.373 L 247.217 641.575 L 245.756 637.725 L 244.370 633.824 L 243.061 629.876 L 241.831 625.882 L 240.680 621.847 L 239.610 617.772 L 238.622 613.661 L 237.716 609.516 L 236.895 605.340 L 236.157 601.137 L 235.505 596.909 L 234.938 592.659 L 234.457 588.391 L 234.064 584.108 L 233.757 579.812 L 233.538 575.506 L 233.406 571.195 L 233.362 566.880 L 233.406 562.565 L 233.538 558.254 L 233.757 553.948 L 234.064 549.652 L 234.457 545.369 L 234.938 541.101 L 235.505 536.851 L 236.157 532.623 L 236.895 528.420 L 237.716 524.244 L 238.622 520.099 L 239.610 515.988 L 240.680 511.913 L 241.831 507.878 L 243.061 503.884 L 244.370 499.936 L 245.756 496.035 L 247.217 492.185 L 248.754 488.387 L 250.363 484.645 L 252.043 480.961 L 253.794 477.337 L 255.612 473.776 L 257.498 470.280 L 259.447 466.852 L 261.460 463.492 L 263.533 460.204 L 265.666 456.990 L 267.855 453.850 L 270.099 450.788 L 272.397 447.804 L 274.745 444.901 L 277.142 442.079 L 279.586 439.340 L 282.074 436.685 L 284.605 434.116 L 287.175 431.634 L 289.784 429.239 L 292.429 426.932 L 295.108 424.714 L 297.819 422.587 L 300.560 420.549 L 303.328 418.602 L 306.122 416.747 L 308.940 414.983 L 311.781 413.310 L 314.641 411.729 L 317.521 410.240 L 320.417 408.843 L 323.328 407.537 L 326.253 406.323 L 329.191 405.200 L 332.140 404.168 L 335.099 403.227 L 338.066 402.377 L 341.041 401.617 L 344.023 400.948 L 347.010 400.368 L 350.001 399.878 L 352.997 399.477 L 355.995 399.165 L 358.995 398.943 L 361.997 398.809 L 365.000 398.765 L 368.003 398.809 L 371.005 398.943 L 374.005 399.165 L 377.003 399.477 L 379.999 399.878 L 382.990 400.368 L 385.977 400.948 L 388.959 401.617 L 391.934 402.377 L 394.901 403.227 L 397.860 404.168 L 400.809 405.200 L 403.747 406.323 L 406.672 407.537 L 409.583 408.843 L 412.479 410.240 L 415.359 411.729 L 418.219 413.310 L 421.060 414.983 L 423.878 416.747 L 426.672 418.602 L 429.440 420.549 L 432.181 422.587 L 434.892 424.714 L 437.571 426.932 L 440.216 429.239 L 442.825 431.634 L 445.395 434.116 L 447.926 436.685 L 450.414 439.340 L 452.858 442.079 L 455.255 444.901 L 457.603 447.804 L 459.901 450.788 L 462.145 453.850 L 464.334 456.990 L 466.467 460.204 L 468.540 463.492 L 470.553 466.852 L 472.502 470.280 L 474.388 473.776 L 476.206 477.337 L 477.957 480.961 L 479.637 484.645 L 481.246 488.387 L 482.783 492.185 L 484.244 496.035 L 485.630 499.936 L 486.939 503.884 L 488.169 507.878 L 489.320 511.913 L 490.390 515.988 L 491.378 520.099 L 492.284 524.244 L 493.105 528.420 L 493.843 532.623 L 494.495 536.851 L 495.062 541.101 L 495.543 545.369 L 495.936 549.652 L 496.243 553.948 L 496.462 558.254 L 496.594 562.565 L 496.638 566.880 L 496.594 571.195 Z" fill="black" fill-rule="evenodd"/>
</svg>
