<svg xmlns="http://www.w3.org/2000/svg" viewBox="0 0 700.000 1000" width="700.000" height="1000">
  <path d="M 575.395 224.343 L 575.341 220.620 L 575.303 219.308 L 575.140 215.587 L 575.063 214.277 L 574.792 210.561 L 574.677 209.256 L 574.297 205.546 L 574.145 204.247 L 573.657 200.547 L 573.468 199.255 L 572.872 195.566 L 572.646 194.284 L 571.942 190.608 L 571.680 189.337 L 570.870 185.677 L 570.572 184.419 L 569.655 180.776 L 569.323 179.532 L 568.300 175.910 L 567.934 174.681 L 566.805 171.081 L 566.407 169.869 L 565.173 166.293 L 564.743 165.099 L 563.406 161.550 L 562.944 160.375 L 561.504 156.855 L 561.013 155.700 L 559.470 152.211 L 558.950 151.078 L 557.306 147.621 L 556.759 146.510 L 555.015 143.088 L 554.441 142.000 L 552.598 138.615 L 551.999 137.551 L 550.057 134.205 L 549.435 133.165 L 547.396 129.860 L 546.751 128.845 L 544.616 125.583 L 543.949 124.594 L 541.720 121.377 L 541.032 120.413 L 538.710 117.243 L 538.003 116.305 L 535.589 113.184 L 534.865 112.272 L 532.360 109.202 L 531.618 108.317 L 529.025 105.300 L 528.267 104.441 L 525.586 101.478 L 524.814 100.645 L 522.047 97.739 L 521.261 96.933 L 518.411 94.084 L 517.611 93.305 L 514.678 90.516 L 513.867 89.763 L 510.854 87.035 L 510.031 86.309 L 506.939 83.644 L 506.106 82.944 L 502.937 80.344 L 502.095 79.669 L 498.851 77.135 L 498.000 76.486 L 494.683 74.020 L 493.824 73.397 L 490.436 71.000 L 489.570 70.402 L 486.113 68.075 L 485.240 67.502 L 481.716 65.248 L 480.837 64.699 L 477.249 62.518 L 476.363 61.994 L 472.713 59.888 L 471.822 59.388 L 468.111 57.357 L 467.216 56.881 L 463.447 54.928 L 462.548 54.475 L 458.723 52.600 L 457.820 52.170 L 453.941 50.374 L 453.035 49.967 L 449.105 48.253 L 448.196 47.868 L 444.217 46.235 L 443.305 45.872 L 439.280 44.322 L 438.365 43.981 L 434.296 42.514 L 433.380 42.195 L 429.269 40.812 L 428.350 40.514 L 424.200 39.217 L 423.280 38.940 L 419.094 37.729 L 418.172 37.473 L 413.951 36.349 L 413.029 36.113 L 408.776 35.076 L 407.852 34.861 L 403.571 33.912 L 402.646 33.718 L 398.338 32.857 L 397.413 32.683 L 393.081 31.911 L 392.155 31.756 L 387.802 31.075 L 386.875 30.940 L 382.504 30.348 L 381.576 30.233 L 377.189 29.731 L 376.261 29.635 L 371.861 29.225 L 370.932 29.148 L 366.521 28.829 L 365.593 28.771 L 361.174 28.543 L 360.245 28.504 L 355.820 28.367 L 354.892 28.348 L 350.464 28.302 L 349.536 28.302 L 345.108 28.348 L 344.180 28.367 L 339.755 28.504 L 338.826 28.543 L 334.407 28.771 L 333.479 28.829 L 329.068 29.148 L 328.139 29.225 L 323.739 29.635 L 322.811 29.731 L 318.424 30.233 L 317.496 30.348 L 313.125 30.940 L 312.198 31.075 L 307.845 31.756 L 306.919 31.911 L 302.587 32.683 L 301.662 32.857 L 297.354 33.718 L 296.429 33.912 L 292.148 34.861 L 291.224 35.076 L 286.971 36.113 L 286.049 36.349 L 281.828 37.473 L 280.906 37.729 L 276.720 38.940 L 275.800 39.217 L 271.650 40.514 L 270.731 40.812 L 266.620 42.195 L 265.704 42.514 L 261.635 43.981 L 260.720 44.322 L 256.695 45.872 L 255.783 46.235 L 251.804 47.868 L 250.895 48.253 L 246.965 49.967 L 246.059 50.374 L 242.180 52.170 L 241.277 52.600 L 237.452 54.475 L 236.553 54.928 L 232.784 56.881 L 231.889 57.357 L 228.178 59.388 L 227.287 59.888 L 223.637 61.994 L 222.751 62.518 L 219.163 64.699 L 218.284 65.248 L 214.760 67.502 L 213.887 68.075 L 210.430 70.402 L 209.564 71.000 L 206.176 73.397 L 205.317 74.020 L 202.000 76.486 L 201.149 77.135 L 197.905 79.669 L 197.063 80.344 L 193.894 82.944 L 193.061 83.644 L 189.969 86.309 L 189.146 87.035 L 186.133 89.763 L 185.322 90.516 L 182.389 93.305 L 181.589 94.084 L 178.739 96.933 L 177.953 97.739 L 175.186 100.645 L 174.414 101.478 L 171.733 104.441 L 170.975 105.300 L 168.382 108.317 L 167.640 109.202 L 165.135 112.272 L 164.411 113.184 L 161.997 116.305 L 161.290 117.243 L 158.968 120.413 L 158.280 121.377 L 156.051 124.594 L 155.384 125.583 L 153.249 128.845 L 152.604 129.860 L 150.565 133.165 L 149.943 134.205 L 148.001 137.551 L 147.402 138.615 L 145.559 142.000 L 144.985 143.088 L 143.241 146.510 L 142.694 147.621 L 141.050 151.078 L 140.530 152.211 L 138.987 155.700 L 138.496 156.855 L 137.056 160.375 L 136.594 161.550 L 135.257 165.099 L 134.827 166.293 L 133.593 169.869 L 133.195 171.081 L 132.066 174.681 L 131.700 175.910 L 130.677 179.532 L 130.345 180.776 L 129.428 184.419 L 129.130 185.677 L 128.320 189.337 L 128.058 190.608 L 127.354 194.284 L 127.128 195.566 L 126.532 199.255 L 126.343 200.547 L 125.855 204.247 L 125.703 205.546 L 125.323 209.256 L 125.208 210.561 L 124.937 214.277 L 124.860 215.587 L 124.697 219.308 L 124.659 220.620 L 124.605 224.343 L 124.605 225.657 L 124.659 229.380 L 124.697 230.692 L 124.860 234.413 L 124.937 235.723 L 125.208 239.439 L 125.323 240.744 L 125.703 244.454 L 125.855 245.753 L 126.343 249.453 L 126.532 250.745 L 127.128 254.434 L 127.354 255.716 L 128.058 259.392 L 128.320 260.663 L 129.130 264.323 L 129.428 265.581 L 130.345 269.224 L 130.677 270.468 L 131.700 274.090 L 132.066 275.319 L 133.195 278.919 L 133.593 280.131 L 134.827 283.707 L 135.257 284.901 L 136.594 288.450 L 137.056 289.625 L 138.496 293.145 L 138.987 294.300 L 140.530 297.789 L 141.050 298.922 L 142.694 302.379 L 143.241 303.490 L 144.985 306.912 L 145.559 308.000 L 147.402 311.385 L 148.001 312.449 L 149.943 315.795 L 150.565 316.835 L 152.604 320.140 L 153.249 321.155 L 155.384 324.417 L 156.051 325.406 L 158.280 328.623 L 158.968 329.587 L 161.290 332.757 L 161.997 333.695 L 164.411 336.816 L 165.135 337.728 L 167.640 340.798 L 168.382 341.683 L 170.975 344.700 L 171.733 345.559 L 174.414 348.522 L 175.186 349.355 L 177.953 352.261 L 178.739 353.067 L 181.589 355.916 L 182.389 356.695 L 185.322 359.484 L 186.133 360.237 L 189.146 362.965 L 189.969 363.691 L 193.061 366.356 L 193.894 367.056 L 197.063 369.656 L 197.905 370.331 L 201.149 372.865 L 202.000 373.514 L 205.317 375.980 L 206.176 376.603 L 209.564 379.000 L 210.430 379.598 L 213.887 381.925 L 214.760 382.498 L 218.284 384.752 L 219.163 385.301 L 222.751 387.482 L 223.637 388.006 L 227.287 390.112 L 228.178 390.612 L 231.889 392.643 L 232.784 393.119 L 236.553 395.072 L 237.452 395.525 L 241.277 397.400 L 242.180 397.830 L 246.059 399.626 L 246.077 399.634 L 241.913 401.343 L 241.004 401.728 L 236.594 403.652 L 235.688 404.059 L 231.336 406.073 L 230.434 406.503 L 226.142 408.607 L 225.243 409.060 L 221.014 411.251 L 220.119 411.727 L 215.955 414.005 L 215.065 414.506 L 210.969 416.869 L 210.084 417.393 L 206.058 419.840 L 205.178 420.388 L 201.225 422.918 L 200.352 423.491 L 196.473 426.101 L 195.607 426.699 L 191.806 429.389 L 190.947 430.012 L 187.225 432.779 L 186.374 433.428 L 182.735 436.271 L 181.893 436.945 L 178.337 439.862 L 177.504 440.563 L 174.035 443.552 L 173.213 444.279 L 169.832 447.339 L 169.021 448.092 L 165.730 451.221 L 164.931 452.000 L 161.733 455.197 L 160.946 456.002 L 157.842 459.264 L 157.070 460.096 L 154.062 463.420 L 153.305 464.279 L 150.395 467.665 L 149.653 468.550 L 146.843 471.994 L 146.119 472.906 L 143.410 476.408 L 142.703 477.346 L 140.098 480.902 L 139.410 481.866 L 136.909 485.475 L 136.242 486.465 L 133.847 490.124 L 133.202 491.139 L 130.914 494.847 L 130.292 495.887 L 128.113 499.641 L 127.515 500.705 L 125.446 504.503 L 124.873 505.591 L 122.915 509.430 L 122.368 510.541 L 120.524 514.420 L 120.004 515.553 L 118.273 519.468 L 117.782 520.622 L 116.166 524.572 L 115.705 525.747 L 114.205 529.729 L 113.774 530.923 L 112.390 534.935 L 111.992 536.147 L 110.726 540.186 L 110.360 541.415 L 109.212 545.479 L 108.880 546.723 L 107.851 550.810 L 107.553 552.068 L 106.644 556.174 L 106.382 557.445 L 105.592 561.569 L 105.366 562.851 L 104.698 566.991 L 104.508 568.282 L 103.961 572.434 L 103.809 573.733 L 103.383 577.895 L 103.268 579.200 L 102.963 583.370 L 102.887 584.680 L 102.704 588.854 L 102.666 590.166 L 102.605 594.343 L 102.605 595.657 L 102.666 599.834 L 102.704 601.146 L 102.887 605.320 L 102.963 606.630 L 103.268 610.800 L 103.383 612.105 L 103.809 616.267 L 103.961 617.566 L 104.508 621.718 L 104.698 623.009 L 105.366 627.149 L 105.592 628.431 L 106.382 632.555 L 106.644 633.826 L 107.553 637.932 L 107.851 639.190 L 108.880 643.277 L 109.212 644.521 L 110.360 648.585 L 110.726 649.814 L 111.992 653.853 L 112.390 655.065 L 113.774 659.077 L 114.205 660.271 L 115.705 664.253 L 116.166 665.428 L 117.782 669.378 L 118.273 670.532 L 120.004 674.447 L 120.524 675.580 L 122.368 679.459 L 122.915 680.570 L 124.873 684.409 L 125.446 685.497 L 127.515 689.295 L 128.113 690.359 L 130.292 694.113 L 130.914 695.153 L 133.202 698.861 L 133.847 699.876 L 136.242 703.535 L 136.909 704.525 L 139.410 708.134 L 140.098 709.098 L 142.703 712.654 L 143.410 713.592 L 146.119 717.094 L 146.843 718.006 L 149.653 721.450 L 150.395 722.335 L 153.305 725.721 L 154.062 726.580 L 157.070 729.904 L 157.842 730.736 L 160.946 733.998 L 161.733 734.803 L 164.931 738.000 L 165.730 738.779 L 169.021 741.908 L 169.832 742.661 L 173.213 745.721 L 174.035 746.448 L 177.504 749.437 L 178.337 750.138 L 181.893 753.055 L 182.735 753.729 L 186.374 756.572 L 187.225 757.221 L 190.947 759.988 L 191.806 760.611 L 195.607 763.301 L 196.473 763.899 L 200.352 766.509 L 201.225 767.082 L 205.178 769.612 L 206.058 770.160 L 210.084 772.607 L 210.969 773.131 L 215.065 775.494 L 215.955 775.995 L 220.119 778.273 L 221.014 778.749 L 225.243 780.940 L 226.142 781.393 L 230.434 783.497 L 231.336 783.927 L 235.688 785.941 L 236.594 786.348 L 241.004 788.272 L 241.913 788.657 L 246.377 790.489 L 247.289 790.852 L 251.805 792.591 L 252.719 792.932 L 257.285 794.578 L 258.201 794.897 L 262.814 796.448 L 263.732 796.746 L 268.388 798.201 L 269.308 798.478 L 274.005 799.837 L 274.927 800.093 L 279.662 801.355 L 280.585 801.590 L 285.356 802.754 L 286.280 802.969 L 291.083 804.033 L 292.008 804.228 L 296.841 805.193 L 297.767 805.368 L 302.627 806.233 L 303.553 806.388 L 308.437 807.153 L 309.364 807.288 L 314.268 807.952 L 315.196 808.067 L 320.118 808.629 L 321.046 808.726 L 325.983 809.186 L 326.911 809.263 L 331.860 809.621 L 332.789 809.679 L 337.747 809.935 L 338.676 809.973 L 343.640 810.127 L 344.568 810.146 L 349.536 810.198 L 350.464 810.198 L 355.432 810.146 L 356.360 810.127 L 361.324 809.973 L 362.253 809.935 L 367.211 809.679 L 368.140 809.621 L 373.089 809.263 L 374.017 809.186 L 378.954 808.726 L 379.882 808.629 L 384.804 808.067 L 385.732 807.952 L 390.636 807.288 L 391.563 807.153 L 396.447 806.388 L 397.373 806.233 L 402.233 805.368 L 403.159 805.193 L 407.992 804.228 L 408.917 804.033 L 413.720 802.969 L 414.644 802.754 L 419.415 801.590 L 420.338 801.355 L 425.073 800.093 L 425.995 799.837 L 430.692 798.478 L 431.612 798.201 L 436.268 796.746 L 437.186 796.448 L 441.799 794.897 L 442.715 794.578 L 447.281 792.932 L 448.195 792.591 L 452.711 790.852 L 453.623 790.489 L 458.087 788.657 L 458.996 788.272 L 463.406 786.348 L 464.312 785.941 L 468.664 783.927 L 469.566 783.497 L 473.858 781.393 L 474.757 780.940 L 478.986 778.749 L 479.881 778.273 L 484.045 775.995 L 484.935 775.494 L 489.031 773.131 L 489.916 772.607 L 493.942 770.160 L 494.822 769.612 L 498.775 767.082 L 499.648 766.509 L 503.527 763.899 L 504.393 763.301 L 508.194 760.611 L 509.053 759.988 L 512.775 757.221 L 513.626 756.572 L 517.265 753.729 L 518.107 753.055 L 521.663 750.138 L 522.496 749.437 L 525.965 746.448 L 526.787 745.721 L 530.168 742.661 L 530.979 741.908 L 534.270 738.779 L 535.069 738.000 L 538.267 734.803 L 539.054 733.998 L 542.158 730.736 L 542.930 729.904 L 545.938 726.580 L 546.695 725.721 L 549.605 722.335 L 550.347 721.450 L 553.157 718.006 L 553.881 717.094 L 556.590 713.592 L 557.297 712.654 L 559.902 709.098 L 560.590 708.134 L 563.091 704.525 L 563.758 703.535 L 566.153 699.876 L 566.798 698.861 L 569.086 695.153 L 569.708 694.113 L 571.887 690.359 L 572.485 689.295 L 574.554 685.497 L 575.127 684.409 L 577.085 680.570 L 577.632 679.459 L 579.476 675.580 L 579.996 674.447 L 581.727 670.532 L 582.218 669.378 L 583.834 665.428 L 584.295 664.253 L 585.795 660.271 L 586.226 659.077 L 587.610 655.065 L 588.008 653.853 L 589.274 649.814 L 589.640 648.585 L 590.788 644.521 L 591.120 643.277 L 592.149 639.190 L 592.447 637.932 L 593.356 633.826 L 593.618 632.555 L 594.408 628.431 L 594.634 627.149 L 595.302 623.009 L 595.492 621.718 L 596.039 617.566 L 596.191 616.267 L 596.617 612.105 L 596.732 610.800 L 597.037 606.630 L 597.113 605.320 L 597.296 601.146 L 597.334 599.834 L 597.395 595.657 L 597.395 594.343 L 597.334 590.166 L 597.296 588.854 L 597.113 584.680 L 597.037 583.370 L 596.732 579.200 L 596.617 577.895 L 596.191 573.733 L 596.039 572.434 L 595.492 568.282 L 595.302 566.991 L 594.634 562.851 L 594.408 561.569 L 593.618 557.445 L 593.356 556.174 L 592.447 552.068 L 592.149 550.810 L 591.120 546.723 L 590.788 545.479 L 589.640 541.415 L 589.274 540.186 L 588.008 536.147 L 587.610 534.935 L 586.226 530.923 L 585.795 529.729 L 584.295 525.747 L 583.834 524.572 L 582.218 520.622 L 581.727 519.468 L 579.996 515.553 L 579.476 514.420 L 577.632 510.541 L 577.085 509.430 L 575.127 505.591 L 574.554 504.503 L 572.485 500.705 L 571.887 499.641 L 569.708 495.887 L 569.086 494.847 L 566.798 491.139 L 566.153 490.124 L 563.758 486.465 L 563.091 485.475 L 560.590 481.866 L 559.902 480.902 L 557.297 477.346 L 556.590 476.408 L 553.881 472.906 L 553.157 471.994 L 550.347 468.550 L 549.605 467.665 L 546.695 464.279 L 545.938 463.420 L 542.930 460.096 L 542.158 459.264 L 539.054 456.002 L 538.267 455.197 L 535.069 452.000 L 534.270 451.221 L 530.979 448.092 L 530.168 447.339 L 526.787 444.279 L 525.965 443.552 L 522.496 440.563 L 521.663 439.862 L 518.107 436.945 L 517.265 436.271 L 513.626 433.428 L 512.775 432.779 L 509.053 430.012 L 508.194 429.389 L 504.393 426.699 L 503.527 426.101 L 499.648 423.491 L 498.775 422.918 L 494.822 420.388 L 493.942 419.840 L 489.916 417.393 L 489.031 416.869 L 484.935 414.506 L 484.045 414.005 L 479.881 411.727 L 478.986 411.251 L 474.757 409.060 L 473.858 408.607 L 469.566 406.503 L 468.664 406.073 L 464.312 404.059 L 463.406 403.652 L 458.996 401.728 L 458.087 401.343 L 453.923 399.634 L 453.941 399.626 L 457.820 397.830 L 458.723 397.400 L 462.548 395.525 L 463.447 395.072 L 467.216 393.119 L 468.111 392.643 L 471.822 390.612 L 472.713 390.112 L 476.363 388.006 L 477.249 387.482 L 480.837 385.301 L 481.716 384.752 L 485.240 382.498 L 486.113 381.925 L 489.570 379.598 L 490.436 379.000 L 493.824 376.603 L 494.683 375.980 L 498.000 373.514 L 498.851 372.865 L 502.095 370.331 L 502.937 369.656 L 506.106 367.056 L 506.939 366.356 L 510.031 363.691 L 510.854 362.965 L 513.867 360.237 L 514.678 359.484 L 517.611 356.695 L 518.411 355.916 L 521.261 353.067 L 522.047 352.261 L 524.814 349.355 L 525.586 348.522 L 528.267 345.559 L 529.025 344.700 L 531.618 341.683 L 532.360 340.798 L 534.865 337.728 L 535.589 336.816 L 538.003 333.695 L 538.710 332.757 L 541.032 329.587 L 541.720 328.623 L 543.949 325.406 L 544.616 324.417 L 546.751 321.155 L 547.396 320.140 L 549.435 316.835 L 550.057 315.795 L 551.999 312.449 L 552.598 311.385 L 554.441 308.000 L 555.015 306.912 L 556.759 303.490 L 557.306 302.379 L 558.950 298.922 L 559.470 297.789 L 561.013 294.300 L 561.504 293.145 L 562.944 289.625 L 563.406 288.450 L 564.743 284.901 L 565.173 283.707 L 566.407 280.131 L 566.805 278.919 L 567.934 275.319 L 568.300 274.090 L 569.323 270.468 L 569.655 269.224 L 570.572 265.581 L 570.870 264.323 L 571.680 260.663 L 571.942 259.392 L 572.646 255.716 L 572.872 254.434 L 573.468 250.745 L 573.657 249.453 L 574.145 245.753 L 574.297 244.454 L 574.677 240.744 L 574.792 239.439 L 575.063 235.723 L 575.140 234.413 L 575.303 230.692 L 575.341 229.380 L 575.395 225.657 L 575.395 224.343 Z M 507.353 597.864 L 507.228 600.727 L 507.019 603.588 L 506.726 606.447 L 506.349 609.304 L 505.889 612.156 L 505.344 615.003 L 504.715 617.845 L 504.001 620.680 L 503.202 623.508 L 502.319 626.327 L 501.350 629.136 L 500.296 631.934 L 499.157 634.719 L 497.931 637.491 L 496.621 640.247 L 495.224 642.987 L 493.741 645.709 L 492.173 648.411 L 490.520 651.091 L 488.780 653.748 L 486.956 656.380 L 485.047 658.985 L 483.054 661.562 L 480.977 664.108 L 478.816 666.621 L 476.574 669.100 L 474.249 671.542 L 471.844 673.946 L 469.359 676.309 L 466.795 678.630 L 464.153 680.907 L 461.436 683.136 L 458.643 685.318 L 455.777 687.449 L 452.839 689.528 L 449.831 691.552 L 446.754 693.521 L 443.610 695.432 L 440.402 697.283 L 437.131 699.072 L 433.799 700.799 L 430.408 702.461 L 426.960 704.056 L 423.459 705.584 L 419.905 707.043 L 416.302 708.430 L 412.652 709.746 L 408.957 710.989 L 405.220 712.157 L 401.443 713.249 L 397.630 714.265 L 393.782 715.203 L 389.903 716.063 L 385.995 716.844 L 382.062 717.544 L 378.105 718.163 L 374.128 718.702 L 370.133 719.158 L 366.124 719.532 L 362.103 719.823 L 358.074 720.031 L 354.038 720.156 L 350.000 720.198 L 345.962 720.156 L 341.926 720.031 L 337.897 719.823 L 333.876 719.532 L 329.867 719.158 L 325.872 718.702 L 321.895 718.163 L 317.938 717.544 L 314.005 716.844 L 310.097 716.063 L 306.218 715.203 L 302.370 714.265 L 298.557 713.249 L 294.780 712.157 L 291.043 710.989 L 287.348 709.746 L 283.698 708.430 L 280.095 707.043 L 276.541 705.584 L 273.040 704.056 L 269.592 702.461 L 266.201 700.799 L 262.869 699.072 L 259.598 697.283 L 256.390 695.432 L 253.246 693.521 L 250.169 691.552 L 247.161 689.528 L 244.223 687.449 L 241.357 685.318 L 238.564 683.136 L 235.847 680.907 L 233.205 678.630 L 230.641 676.309 L 228.156 673.946 L 225.751 671.542 L 223.426 669.100 L 221.184 666.621 L 219.023 664.108 L 216.946 661.562 L 214.953 658.985 L 213.044 656.380 L 211.220 653.748 L 209.480 651.091 L 207.827 648.411 L 206.259 645.709 L 204.776 642.987 L 203.379 640.247 L 202.069 637.491 L 200.843 634.719 L 199.704 631.934 L 198.650 629.136 L 197.681 626.327 L 196.798 623.508 L 195.999 620.680 L 195.285 617.845 L 194.656 615.003 L 194.111 612.156 L 193.651 609.304 L 193.274 606.447 L 192.981 603.588 L 192.772 600.727 L 192.647 597.864 L 192.605 595.000 L 192.647 592.136 L 192.772 589.273 L 192.981 586.412 L 193.274 583.553 L 193.651 580.696 L 194.111 577.844 L 194.656 574.997 L 195.285 572.155 L 195.999 569.320 L 196.798 566.492 L 197.681 563.673 L 198.650 560.864 L 199.704 558.066 L 200.843 555.281 L 202.069 552.509 L 203.379 549.753 L 204.776 547.013 L 206.259 544.291 L 207.827 541.589 L 209.480 538.909 L 211.220 536.252 L 213.044 533.620 L 214.953 531.015 L 216.946 528.438 L 219.023 525.892 L 221.184 523.379 L 223.426 520.900 L 225.751 518.458 L 228.156 516.054 L 230.641 513.691 L 233.205 511.370 L 235.847 509.093 L 238.564 506.864 L 241.357 504.682 L 244.223 502.551 L 247.161 500.472 L 250.169 498.448 L 253.246 496.479 L 256.390 494.568 L 259.598 492.717 L 262.869 490.928 L 266.201 489.201 L 269.592 487.539 L 273.040 485.944 L 276.541 484.416 L 280.095 482.957 L 283.698 481.570 L 287.348 480.254 L 291.043 479.011 L 294.780 477.843 L 298.557 476.751 L 302.370 475.735 L 306.218 474.797 L 310.097 473.937 L 314.005 473.156 L 317.938 472.456 L 321.895 471.837 L 325.872 471.298 L 329.867 470.842 L 333.876 470.468 L 337.897 470.177 L 341.926 469.969 L 345.962 469.844 L 350.000 469.802 L 354.038 469.844 L 358.074 469.969 L 362.103 470.177 L 366.124 470.468 L 370.133 470.842 L 374.128 471.298 L 378.105 471.837 L 382.062 472.456 L 385.995 473.156 L 389.903 473.937 L 393.782 474.797 L 397.630 475.735 L 401.443 476.751 L 405.220 477.843 L 408.957 479.011 L 412.652 480.254 L 416.302 481.570 L 419.905 482.957 L 423.459 484.416 L 426.960 485.944 L 430.408 487.539 L 433.799 489.201 L 437.131 490.928 L 440.402 492.717 L 443.610 494.568 L 446.754 496.479 L 449.831 498.448 L 452.839 500.472 L 455.777 502.551 L 458.643 504.682 L 461.436 506.864 L 464.153 509.093 L 466.795 511.370 L 469.359 513.691 L 471.844 516.054 L 474.249 518.458 L 476.574 520.900 L 478.816 523.379 L 480.977 525.892 L 483.054 528.438 L 485.047 531.015 L 486.956 533.620 L 488.780 536.252 L 490.520 538.909 L 492.173 541.589 L 493.741 544.291 L 495.224 547.013 L 496.621 549.753 L 497.931 552.509 L 499.157 555.281 L 500.296 558.066 L 501.350 560.864 L 502.319 563.673 L 503.202 566.492 L 504.001 569.320 L 504.715 572.155 L 505.344 574.997 L 505.889 577.844 L 506.349 580.696 L 506.726 583.553 L 507.019 586.412 L 507.228 589.273 L 507.353 592.136 L 507.395 595.000 L 507.353 597.864 Z M 485.360 227.410 L 485.255 229.819 L 485.079 232.227 L 484.832 234.634 L 484.515 237.039 L 484.127 239.441 L 483.668 241.841 L 483.137 244.236 L 482.536 246.627 L 481.862 249.013 L 481.116 251.393 L 480.298 253.766 L 479.407 256.130 L 478.443 258.487 L 477.406 260.833 L 476.295 263.168 L 475.111 265.490 L 473.854 267.799 L 472.522 270.093 L 471.117 272.370 L 469.639 274.629 L 468.086 276.869 L 466.460 279.088 L 464.762 281.284 L 462.990 283.455 L 461.146 285.601 L 459.230 287.718 L 457.243 289.806 L 455.185 291.862 L 453.058 293.885 L 450.861 295.874 L 448.597 297.825 L 446.266 299.738 L 443.869 301.610 L 441.407 303.441 L 438.882 305.227 L 436.296 306.968 L 433.649 308.662 L 430.943 310.306 L 428.179 311.901 L 425.361 313.443 L 422.488 314.931 L 419.564 316.364 L 416.590 317.741 L 413.567 319.059 L 410.499 320.319 L 407.387 321.517 L 404.233 322.654 L 401.039 323.728 L 397.808 324.738 L 394.542 325.683 L 391.244 326.562 L 387.915 327.374 L 384.558 328.118 L 381.175 328.793 L 377.770 329.399 L 374.344 329.936 L 370.900 330.402 L 367.440 330.797 L 363.968 331.121 L 360.485 331.373 L 356.994 331.553 L 353.498 331.662 L 350.000 331.698 L 346.502 331.662 L 343.006 331.553 L 339.515 331.373 L 336.032 331.121 L 332.560 330.797 L 329.100 330.402 L 325.656 329.936 L 322.230 329.399 L 318.825 328.793 L 315.442 328.118 L 312.085 327.374 L 308.756 326.562 L 305.458 325.683 L 302.192 324.738 L 298.961 323.728 L 295.767 322.654 L 292.613 321.517 L 289.501 320.319 L 286.433 319.059 L 283.410 317.741 L 280.436 316.364 L 277.512 314.931 L 274.639 313.443 L 271.821 311.901 L 269.057 310.306 L 266.351 308.662 L 263.704 306.968 L 261.118 305.227 L 258.593 303.441 L 256.131 301.610 L 253.734 299.738 L 251.403 297.825 L 249.139 295.874 L 246.942 293.885 L 244.815 291.862 L 242.757 289.806 L 240.770 287.718 L 238.854 285.601 L 237.010 283.455 L 235.238 281.284 L 233.540 279.088 L 231.914 276.869 L 230.361 274.629 L 228.883 272.370 L 227.478 270.093 L 226.146 267.799 L 224.889 265.490 L 223.705 263.168 L 222.594 260.833 L 221.557 258.487 L 220.593 256.130 L 219.702 253.766 L 218.884 251.393 L 218.138 249.013 L 217.464 246.627 L 216.863 244.236 L 216.332 241.841 L 215.873 239.441 L 215.485 237.039 L 215.168 234.634 L 214.921 232.227 L 214.745 229.819 L 214.640 227.410 L 214.605 225.000 L 214.640 222.590 L 214.745 220.181 L 214.921 217.773 L 215.168 215.366 L 215.485 212.961 L 215.873 210.559 L 216.332 208.159 L 216.863 205.764 L 217.464 203.373 L 218.138 200.987 L 218.884 198.607 L 219.702 196.234 L 220.593 193.870 L 221.557 191.513 L 222.594 189.167 L 223.705 186.832 L 224.889 184.510 L 226.146 182.201 L 227.478 179.907 L 228.883 177.630 L 230.361 175.371 L 231.914 173.131 L 233.540 170.912 L 235.238 168.716 L 237.010 166.545 L 238.854 164.399 L 240.770 162.282 L 242.757 160.194 L 244.815 158.138 L 246.942 156.115 L 249.139 154.126 L 251.403 152.175 L 253.734 150.262 L 256.131 148.390 L 258.593 146.559 L 261.118 144.773 L 263.704 143.032 L 266.351 141.338 L 269.057 139.694 L 271.821 138.099 L 274.639 136.557 L 277.512 135.069 L 280.436 133.636 L 283.410 132.259 L 286.433 130.941 L 289.501 129.681 L 292.613 128.483 L 295.767 127.346 L 298.961 126.272 L 302.192 125.262 L 305.458 124.317 L 308.756 123.438 L 312.085 122.626 L 315.442 121.882 L 318.825 121.207 L 322.230 120.601 L 325.656 120.064 L 329.100 119.598 L 332.560 119.203 L 336.032 118.879 L 339.515 118.627 L 343.006 118.447 L 346.502 118.338 L 350.000 118.302 L 353.498 118.338 L 356.994 118.447 L 360.485 118.627 L 363.968 118.879 L 367.440 119.203 L 370.900 119.598 L 374.344 120.064 L 377.770 120.601 L 381.175 121.207 L 384.558 121.882 L 387.915 122.626 L 391.244 123.438 L 394.542 124.317 L 397.808 125.262 L 401.039 126.272 L 404.233 127.346 L 407.387 128.483 L 410.499 129.681 L 413.567 130.941 L 416.590 132.259 L 419.564 133.636 L 422.488 135.069 L 425.361 136.557 L 428.179 138.099 L 430.943 139.694 L 433.649 141.338 L 436.296 143.032 L 438.882 144.773 L 441.407 146.559 L 443.869 148.390 L 446.266 150.262 L 448.597 152.175 L 450.861 154.126 L 453.058 156.115 L 455.185 158.138 L 457.243 160.194 L 459.230 162.282 L 461.146 164.399 L 462.990 166.545 L 464.762 168.716 L 466.460 170.912 L 468.086 173.131 L 469.639 175.371 L 471.117 177.630 L 472.522 179.907 L 473.854 182.201 L 475.111 184.510 L 476.295 186.832 L 477.406 189.167 L 478.443 191.513 L 479.407 193.870 L 480.298 196.234 L 481.116 198.607 L 481.862 200.987 L 482.536 203.373 L 483.137 205.764 L 483.668 208.159 L 484.127 210.559 L 484.515 212.961 L 484.832 215.366 L 485.079 217.773 L 485.255 220.181 L 485.360 222.590 L 485.395 225.000 L 485.360 227.410 Z" fill="black" fill-rule="evenodd"/>
</svg>
