<svg xmlns="http://www.w3.org/2000/svg" viewBox="0 0 600.000 1000">
  <path d="M 195.000 405.000 L 279.854 405.000 L 282.949 405.020 L 285.860 405.077 L 288.733 405.172 L 291.566 405.304 L 294.359 405.472 L 297.113 405.676 L 299.828 405.915 L 302.502 406.190 L 305.137 406.498 L 307.732 406.841 L 310.286 407.216 L 312.801 407.625 L 315.275 408.065 L 317.709 408.537 L 320.103 409.040 L 322.457 409.573 L 324.771 410.136 L 327.044 410.729 L 329.278 411.350 L 331.472 411.999 L 333.627 412.677 L 335.742 413.381 L 337.818 414.112 L 339.855 414.869 L 341.854 415.652 L 343.814 416.460 L 345.736 417.292 L 347.621 418.149 L 349.468 419.030 L 351.278 419.935 L 353.052 420.863 L 354.790 421.813 L 356.492 422.787 L 358.160 423.783 L 359.792 424.801 L 361.391 425.841 L 362.956 426.903 L 364.488 427.988 L 365.988 429.094 L 367.456 430.221 L 368.893 431.371 L 370.299 432.543 L 371.674 433.737 L 373.020 434.954 L 374.336 436.193 L 375.624 437.455 L 376.884 438.740 L 378.115 440.049 L 379.319 441.381 L 380.496 442.738 L 381.647 444.120 L 382.771 445.527 L 383.868 446.960 L 384.940 448.419 L 385.986 449.905 L 387.007 451.419 L 388.002 452.960 L 388.972 454.530 L 389.916 456.129 L 390.835 457.758 L 391.728 459.418 L 392.596 461.108 L 393.438 462.830 L 394.254 464.583 L 395.044 466.369 L 395.807 468.189 L 396.544 470.042 L 397.253 471.929 L 397.935 473.850 L 398.588 475.807 L 399.214 477.799 L 399.810 479.827 L 400.377 481.890 L 400.915 483.991 L 401.421 486.128 L 401.897 488.302 L 402.342 490.513 L 402.754 492.762 L 403.133 495.048 L 403.480 497.373 L 403.792 499.735 L 404.070 502.135 L 404.313 504.573 L 404.520 507.049 L 404.691 509.563 L 404.825 512.116 L 404.921 514.706 L 404.979 517.335 L 405.000 520.165 L 405.000 780.000 L 405.014 781.104 L 405.054 782.208 L 405.122 783.310 L 405.217 784.411 L 405.338 785.508 L 405.487 786.603 L 405.663 787.693 L 405.865 788.779 L 406.093 789.860 L 406.349 790.934 L 406.630 792.002 L 406.938 793.063 L 407.271 794.116 L 407.631 795.160 L 408.015 796.195 L 408.425 797.221 L 408.861 798.236 L 409.320 799.240 L 409.805 800.233 L 410.314 801.213 L 410.846 802.180 L 411.402 803.135 L 411.982 804.075 L 412.584 805.001 L 413.209 805.911 L 413.856 806.806 L 414.524 807.685 L 415.215 808.548 L 415.926 809.393 L 416.657 810.220 L 417.409 811.029 L 418.180 811.820 L 418.971 812.591 L 419.780 813.343 L 420.607 814.074 L 421.452 814.785 L 422.315 815.476 L 423.194 816.144 L 424.089 816.791 L 424.999 817.416 L 425.925 818.018 L 426.865 818.598 L 427.820 819.154 L 428.787 819.686 L 429.767 820.195 L 430.760 820.680 L 431.764 821.139 L 432.779 821.575 L 433.805 821.985 L 434.840 822.369 L 435.884 822.729 L 436.937 823.062 L 437.998 823.370 L 439.066 823.651 L 440.140 823.907 L 441.221 824.135 L 442.307 824.337 L 443.397 824.513 L 444.492 824.662 L 445.589 824.783 L 446.690 824.878 L 447.792 824.946 L 448.896 824.986 L 450.000 825.000 L 451.104 824.986 L 452.208 824.946 L 453.310 824.878 L 454.411 824.783 L 455.508 824.662 L 456.603 824.513 L 457.693 824.337 L 458.779 824.135 L 459.860 823.907 L 460.934 823.651 L 462.002 823.370 L 463.063 823.062 L 464.116 822.729 L 465.160 822.369 L 466.195 821.985 L 467.221 821.575 L 468.236 821.139 L 469.240 820.680 L 470.233 820.195 L 471.213 819.686 L 472.180 819.154 L 473.135 818.598 L 474.075 818.018 L 475.001 817.416 L 475.911 816.791 L 476.806 816.144 L 477.685 815.476 L 478.548 814.785 L 479.393 814.074 L 480.220 813.343 L 481.029 812.591 L 481.820 811.820 L 482.591 811.029 L 483.343 810.220 L 484.074 809.393 L 484.785 808.548 L 485.476 807.685 L 486.144 806.806 L 486.791 805.911 L 487.416 805.001 L 488.018 804.075 L 488.598 803.135 L 489.154 802.180 L 489.686 801.213 L 490.195 800.233 L 490.680 799.240 L 491.139 798.236 L 491.575 797.221 L 491.985 796.195 L 492.369 795.160 L 492.729 794.116 L 493.062 793.063 L 493.370 792.002 L 493.651 790.934 L 493.907 789.860 L 494.135 788.779 L 494.337 787.693 L 494.513 786.603 L 494.662 785.508 L 494.783 784.411 L 494.878 783.310 L 494.946 782.208 L 494.986 781.104 L 495.000 780.000 L 495.000 520.000 L 494.999 519.670 L 494.974 516.341 L 494.965 515.673 L 494.891 512.373 L 494.871 511.698 L 494.750 508.427 L 494.719 507.743 L 494.549 504.502 L 494.507 503.809 L 494.289 500.598 L 494.236 499.898 L 493.970 496.717 L 493.905 496.008 L 493.591 492.857 L 493.514 492.141 L 493.153 489.021 L 493.063 488.297 L 492.654 485.207 L 492.552 484.476 L 492.096 481.417 L 491.980 480.679 L 491.477 477.651 L 491.347 476.906 L 490.798 473.910 L 490.653 473.159 L 490.058 470.193 L 489.899 469.436 L 489.257 466.503 L 489.083 465.740 L 488.394 462.838 L 488.205 462.071 L 487.471 459.201 L 487.266 458.429 L 486.487 455.591 L 486.266 454.815 L 485.441 452.009 L 485.204 451.230 L 484.333 448.457 L 484.079 447.674 L 483.164 444.934 L 482.893 444.149 L 481.933 441.441 L 481.646 440.655 L 480.640 437.980 L 480.336 437.193 L 479.286 434.552 L 478.964 433.763 L 477.870 431.156 L 477.531 430.368 L 476.392 427.794 L 476.035 427.006 L 474.853 424.466 L 474.479 423.681 L 473.253 421.175 L 472.861 420.392 L 471.591 417.920 L 471.181 417.140 L 469.869 414.702 L 469.441 413.926 L 468.086 411.524 L 467.641 410.752 L 466.242 408.384 L 465.780 407.618 L 464.339 405.285 L 463.859 404.525 L 462.376 402.228 L 461.879 401.475 L 460.353 399.213 L 459.840 398.468 L 458.273 396.241 L 457.743 395.504 L 456.133 393.313 L 455.588 392.586 L 453.937 390.431 L 453.376 389.714 L 451.683 387.595 L 451.107 386.888 L 449.373 384.806 L 448.783 384.110 L 447.008 382.064 L 446.403 381.381 L 444.587 379.372 L 443.969 378.701 L 442.113 376.729 L 441.482 376.072 L 439.585 374.136 L 438.942 373.493 L 437.005 371.595 L 436.350 370.966 L 434.373 369.105 L 433.707 368.491 L 431.690 366.668 L 431.014 366.069 L 428.958 364.284 L 428.272 363.701 L 426.177 361.954 L 425.482 361.387 L 423.347 359.678 L 422.645 359.127 L 420.471 357.457 L 419.761 356.923 L 417.548 355.291 L 416.832 354.773 L 414.581 353.180 L 413.859 352.680 L 411.569 351.126 L 410.842 350.643 L 408.514 349.128 L 407.783 348.662 L 405.417 347.187 L 404.682 346.738 L 402.278 345.302 L 401.540 344.871 L 399.098 343.475 L 398.358 343.061 L 395.880 341.705 L 395.138 341.308 L 392.622 339.992 L 391.880 339.612 L 389.327 338.337 L 388.584 337.974 L 385.994 336.739 L 385.252 336.393 L 382.626 335.199 L 381.884 334.870 L 379.222 333.716 L 378.482 333.404 L 375.783 332.291 L 375.046 331.995 L 372.311 330.924 L 371.576 330.643 L 368.805 329.614 L 368.073 329.349 L 365.267 328.361 L 364.539 328.111 L 361.698 327.165 L 360.973 326.931 L 358.097 326.027 L 357.377 325.807 L 354.465 324.945 L 353.750 324.740 L 350.804 323.921 L 350.094 323.730 L 347.113 322.953 L 346.409 322.775 L 343.393 322.041 L 342.695 321.877 L 339.645 321.186 L 338.953 321.035 L 335.869 320.387 L 335.183 320.249 L 332.066 319.644 L 331.386 319.518 L 328.236 318.957 L 327.563 318.843 L 324.379 318.326 L 323.713 318.223 L 320.496 317.750 L 319.837 317.658 L 316.587 317.229 L 315.935 317.148 L 312.652 316.763 L 312.008 316.692 L 308.692 316.352 L 308.055 316.292 L 304.708 315.996 L 304.078 315.945 L 300.698 315.695 L 300.077 315.653 L 296.665 315.448 L 296.051 315.415 L 292.607 315.255 L 292.001 315.231 L 288.526 315.116 L 287.927 315.101 L 284.421 315.032 L 283.830 315.024 L 280.293 315.001 L 280.000 315.000 L 150.000 315.000 L 148.896 315.014 L 147.792 315.054 L 146.690 315.122 L 145.589 315.217 L 144.492 315.338 L 143.397 315.487 L 142.307 315.663 L 141.221 315.865 L 140.140 316.093 L 139.066 316.349 L 137.998 316.630 L 136.937 316.938 L 135.884 317.271 L 134.840 317.631 L 133.805 318.015 L 132.779 318.425 L 131.764 318.861 L 130.760 319.320 L 129.767 319.805 L 128.787 320.314 L 127.820 320.846 L 126.865 321.402 L 125.925 321.982 L 124.999 322.584 L 124.089 323.209 L 123.194 323.856 L 122.315 324.524 L 121.452 325.215 L 120.607 325.926 L 119.780 326.657 L 118.971 327.409 L 118.180 328.180 L 117.409 328.971 L 116.657 329.780 L 115.926 330.607 L 115.215 331.452 L 114.524 332.315 L 113.856 333.194 L 113.209 334.089 L 112.584 334.999 L 111.982 335.925 L 111.402 336.865 L 110.846 337.820 L 110.314 338.787 L 109.805 339.767 L 109.320 340.760 L 108.861 341.764 L 108.425 342.779 L 108.015 343.805 L 107.631 344.840 L 107.271 345.884 L 106.938 346.937 L 106.630 347.998 L 106.349 349.066 L 106.093 350.140 L 105.865 351.221 L 105.663 352.307 L 105.487 353.397 L 105.338 354.492 L 105.217 355.589 L 105.122 356.690 L 105.054 357.792 L 105.014 358.896 L 105.000 360.000 L 105.000 780.000 L 105.014 781.104 L 105.054 782.208 L 105.122 783.310 L 105.217 784.411 L 105.338 785.508 L 105.487 786.603 L 105.663 787.693 L 105.865 788.779 L 106.093 789.860 L 106.349 790.934 L 106.630 792.002 L 106.938 793.063 L 107.271 794.116 L 107.631 795.160 L 108.015 796.195 L 108.425 797.221 L 108.861 798.236 L 109.320 799.240 L 109.805 800.233 L 110.314 801.213 L 110.846 802.180 L 111.402 803.135 L 111.982 804.075 L 112.584 805.001 L 113.209 805.911 L 113.856 806.806 L 114.524 807.685 L 115.215 808.548 L 115.926 809.393 L 116.657 810.220 L 117.409 811.029 L 118.180 811.820 L 118.971 812.591 L 119.780 813.343 L 120.607 814.074 L 121.452 814.785 L 122.315 815.476 L 123.194 816.144 L 124.089 816.791 L 124.999 817.416 L 125.925 818.018 L 126.865 818.598 L 127.820 819.154 L 128.787 819.686 L 129.767 820.195 L 130.760 820.680 L 131.764 821.139 L 132.779 821.575 L 133.805 821.985 L 134.840 822.369 L 135.884 822.729 L 136.937 823.062 L 137.998 823.370 L 139.066 823.651 L 140.140 823.907 L 141.221 824.135 L 142.307 824.337 L 143.397 824.513 L 144.492 824.662 L 145.589 824.783 L 146.690 824.878 L 147.792 824.946 L 148.896 824.986 L 150.000 825.000 L 151.104 824.986 L 152.208 824.946 L 153.310 824.878 L 154.411 824.783 L 155.508 824.662 L 156.603 824.513 L 157.693 824.337 L 158.779 824.135 L 159.860 823.907 L 160.934 823.651 L 162.002 823.370 L 163.063 823.062 L 164.116 822.729 L 165.160 822.369 L 166.195 821.985 L 167.221 821.575 L 168.236 821.139 L 169.240 820.680 L 170.233 820.195 L 171.213 819.686 L 172.180 819.154 L 173.135 818.598 L 174.075 818.018 L 175.001 817.416 L 175.911 816.791 L 176.806 816.144 L 177.685 815.476 L 178.548 814.785 L 179.393 814.074 L 180.220 813.343 L 181.029 812.591 L 181.820 811.820 L 182.591 811.029 L 183.343 810.220 L 184.074 809.393 L 184.785 808.548 L 185.476 807.685 L 186.144 806.806 L 186.791 805.911 L 187.416 805.001 L 188.018 804.075 L 188.598 803.135 L 189.154 802.180 L 189.686 801.213 L 190.195 800.233 L 190.680 799.240 L 191.139 798.236 L 191.575 797.221 L 191.985 796.195 L 192.369 795.160 L 192.729 794.116 L 193.062 793.063 L 193.370 792.002 L 193.651 790.934 L 193.907 789.860 L 194.135 788.779 L 194.337 787.693 L 194.513 786.603 L 194.662 785.508 L 194.783 784.411 L 194.878 783.310 L 194.946 782.208 L 194.986 781.104 L 195.000 780.000 L 195.000 405.000 Z" fill="black" fill-rule="evenodd"/>
</svg>
