<svg xmlns="http://www.w3.org/2000/svg" viewBox="0 0 700.000 1000">
  <path d="M 645.798 409.626 L 645.723 400.545 L 645.710 399.797 L 645.484 390.722 L 645.459 389.973 L 645.081 380.909 L 645.044 380.159 L 644.516 371.111 L 644.466 370.360 L 643.787 361.335 L 643.724 360.583 L 642.896 351.584 L 642.820 350.831 L 641.842 341.865 L 641.753 341.110 L 640.627 332.182 L 640.525 331.425 L 639.250 322.541 L 639.134 321.781 L 637.712 312.945 L 637.582 312.183 L 636.014 303.402 L 635.870 302.637 L 634.156 293.915 L 633.998 293.147 L 632.139 284.490 L 631.966 283.718 L 629.963 275.131 L 629.775 274.356 L 627.631 265.844 L 627.427 265.065 L 625.142 256.634 L 624.922 255.851 L 622.497 247.505 L 622.260 246.718 L 619.697 238.462 L 619.443 237.671 L 616.743 229.510 L 616.472 228.714 L 613.637 220.654 L 613.347 219.854 L 610.379 211.898 L 610.070 211.094 L 606.971 203.248 L 606.642 202.439 L 603.413 194.708 L 603.064 193.894 L 599.707 186.282 L 599.336 185.463 L 595.854 177.975 L 595.461 177.152 L 591.855 169.793 L 591.439 168.965 L 587.712 161.738 L 587.272 160.906 L 583.425 153.816 L 582.960 152.980 L 578.997 146.032 L 578.506 145.192 L 574.428 138.389 L 573.910 137.545 L 569.721 130.892 L 569.174 130.045 L 564.876 123.546 L 564.300 122.697 L 559.894 116.355 L 559.288 115.504 L 554.778 109.323 L 554.141 108.471 L 549.530 102.455 L 548.859 101.602 L 544.149 95.756 L 543.445 94.903 L 538.639 89.229 L 537.900 88.378 L 533.001 82.879 L 532.226 82.031 L 527.237 76.711 L 526.424 75.867 L 521.348 70.729 L 520.497 69.890 L 515.338 64.938 L 514.447 64.106 L 509.206 59.342 L 508.275 58.519 L 502.957 53.946 L 501.985 53.134 L 496.592 48.755 L 495.578 47.955 L 490.114 43.773 L 489.057 42.989 L 483.525 39.006 L 482.426 38.238 L 476.829 34.457 L 475.687 33.710 L 470.029 30.132 L 468.843 29.407 L 463.128 26.035 L 461.899 25.336 L 456.129 22.172 L 454.858 21.501 L 449.037 18.547 L 447.725 17.907 L 441.857 15.165 L 440.504 14.559 L 434.592 12.030 L 433.200 11.462 L 427.248 9.148 L 425.819 8.620 L 419.830 6.521 L 418.366 6.036 L 412.344 4.156 L 410.848 3.717 L 404.796 2.054 L 403.270 1.664 L 397.193 0.221 L 395.641 -0.118 L 389.541 -1.340 L 387.966 -1.627 L 381.848 -2.628 L 380.254 -2.860 L 374.121 -3.639 L 372.512 -3.814 L 366.368 -4.371 L 364.748 -4.488 L 358.597 -4.822 L 356.970 -4.881 L 350.815 -4.993 L 349.185 -4.993 L 343.030 -4.881 L 341.403 -4.822 L 335.252 -4.488 L 333.632 -4.371 L 327.488 -3.814 L 325.879 -3.639 L 319.746 -2.860 L 318.152 -2.628 L 312.034 -1.627 L 310.459 -1.340 L 304.359 -0.118 L 302.807 0.221 L 296.730 1.664 L 295.204 2.054 L 289.152 3.717 L 287.656 4.156 L 281.634 6.036 L 280.170 6.521 L 274.181 8.620 L 272.752 9.148 L 266.800 11.462 L 265.408 12.030 L 259.496 14.559 L 258.143 15.165 L 252.275 17.907 L 250.963 18.547 L 245.142 21.501 L 243.871 22.172 L 238.101 25.336 L 236.872 26.035 L 231.157 29.407 L 229.971 30.132 L 224.313 33.710 L 223.171 34.457 L 217.574 38.238 L 216.475 39.006 L 210.943 42.989 L 209.886 43.773 L 204.422 47.955 L 203.408 48.755 L 198.015 53.134 L 197.043 53.946 L 191.725 58.519 L 190.794 59.342 L 185.553 64.106 L 184.662 64.938 L 179.503 69.890 L 178.652 70.729 L 173.576 75.867 L 172.763 76.711 L 167.774 82.031 L 166.999 82.879 L 162.100 88.378 L 161.361 89.229 L 156.555 94.903 L 155.851 95.756 L 151.141 101.602 L 150.470 102.455 L 145.859 108.471 L 145.222 109.323 L 140.712 115.504 L 140.106 116.355 L 135.700 122.697 L 135.124 123.546 L 130.826 130.045 L 130.279 130.892 L 126.090 137.545 L 125.572 138.389 L 121.494 145.192 L 121.003 146.032 L 117.040 152.980 L 116.575 153.816 L 112.728 160.906 L 112.288 161.738 L 108.561 168.965 L 108.145 169.793 L 104.539 177.152 L 104.146 177.975 L 100.664 185.463 L 100.293 186.282 L 96.936 193.894 L 96.587 194.708 L 93.358 202.439 L 93.029 203.248 L 89.930 211.094 L 89.621 211.898 L 86.653 219.854 L 86.363 220.654 L 83.528 228.714 L 83.257 229.510 L 80.557 237.671 L 80.303 238.462 L 77.740 246.718 L 77.503 247.505 L 75.078 255.851 L 74.858 256.634 L 72.573 265.065 L 72.369 265.844 L 70.225 274.356 L 70.037 275.131 L 68.034 283.718 L 67.861 284.490 L 66.002 293.147 L 65.844 293.915 L 64.130 302.637 L 63.986 303.402 L 62.418 312.183 L 62.288 312.945 L 60.866 321.781 L 60.750 322.541 L 59.475 331.425 L 59.373 332.182 L 58.247 341.110 L 58.158 341.865 L 57.180 350.831 L 57.104 351.584 L 56.276 360.583 L 56.213 361.335 L 55.534 370.360 L 55.484 371.111 L 54.956 380.159 L 54.919 380.909 L 54.541 389.973 L 54.516 390.722 L 54.290 399.797 L 54.277 400.545 L 54.202 409.626 L 54.202 410.374 L 54.277 419.455 L 54.290 420.203 L 54.516 429.278 L 54.541 430.027 L 54.919 439.091 L 54.956 439.841 L 55.484 448.889 L 55.534 449.640 L 56.213 458.665 L 56.276 459.417 L 57.104 468.416 L 57.180 469.169 L 58.158 478.135 L 58.247 478.890 L 59.373 487.818 L 59.475 488.575 L 60.750 497.459 L 60.866 498.219 L 62.288 507.055 L 62.418 507.817 L 63.986 516.598 L 64.130 517.363 L 65.844 526.085 L 66.002 526.853 L 67.861 535.510 L 68.034 536.282 L 70.037 544.869 L 70.225 545.644 L 72.369 554.156 L 72.573 554.935 L 74.858 563.366 L 75.078 564.149 L 77.503 572.495 L 77.740 573.282 L 80.303 581.538 L 80.557 582.329 L 83.257 590.490 L 83.528 591.286 L 86.363 599.346 L 86.653 600.146 L 89.621 608.102 L 89.930 608.906 L 93.029 616.752 L 93.358 617.561 L 96.587 625.292 L 96.936 626.106 L 100.293 633.718 L 100.664 634.537 L 104.146 642.025 L 104.539 642.848 L 108.145 650.207 L 108.561 651.035 L 112.288 658.262 L 112.728 659.094 L 116.575 666.184 L 117.040 667.020 L 121.003 673.968 L 121.494 674.808 L 125.572 681.611 L 126.090 682.455 L 130.279 689.108 L 130.826 689.955 L 135.124 696.454 L 135.700 697.303 L 140.106 703.645 L 140.712 704.496 L 145.222 710.677 L 145.859 711.529 L 150.470 717.545 L 151.141 718.398 L 155.851 724.244 L 156.555 725.097 L 161.361 730.771 L 162.100 731.622 L 166.999 737.121 L 167.774 737.969 L 172.763 743.289 L 173.576 744.133 L 178.652 749.271 L 179.503 750.110 L 184.662 755.062 L 185.553 755.894 L 190.794 760.658 L 191.725 761.481 L 197.043 766.054 L 198.015 766.866 L 203.408 771.245 L 204.422 772.045 L 209.886 776.227 L 210.943 777.011 L 216.475 780.994 L 217.574 781.762 L 223.171 785.543 L 224.313 786.290 L 229.971 789.868 L 231.157 790.593 L 236.872 793.965 L 238.101 794.664 L 243.871 797.828 L 245.142 798.499 L 250.963 801.453 L 252.275 802.093 L 258.143 804.835 L 259.496 805.441 L 265.408 807.970 L 266.800 808.538 L 272.752 810.852 L 274.181 811.380 L 280.170 813.479 L 281.634 813.964 L 287.656 815.844 L 289.152 816.283 L 295.204 817.946 L 296.730 818.336 L 302.807 819.779 L 304.359 820.118 L 310.459 821.340 L 312.034 821.627 L 318.152 822.628 L 319.746 822.860 L 325.879 823.639 L 327.488 823.814 L 333.632 824.371 L 335.252 824.488 L 341.403 824.822 L 343.030 824.881 L 349.185 824.993 L 350.815 824.993 L 356.970 824.881 L 358.597 824.822 L 364.748 824.488 L 366.368 824.371 L 372.512 823.814 L 374.121 823.639 L 380.254 822.860 L 381.848 822.628 L 387.966 821.627 L 389.541 821.340 L 395.641 820.118 L 397.193 819.779 L 403.270 818.336 L 404.796 817.946 L 410.848 816.283 L 412.344 815.844 L 418.366 813.964 L 419.830 813.479 L 425.819 811.380 L 427.248 810.852 L 433.200 808.538 L 434.592 807.970 L 440.504 805.441 L 441.857 804.835 L 447.725 802.093 L 449.037 801.453 L 454.858 798.499 L 456.129 797.828 L 461.899 794.664 L 463.128 793.965 L 468.843 790.593 L 470.029 789.868 L 475.687 786.290 L 476.829 785.543 L 482.426 781.762 L 483.525 780.994 L 485.447 779.611 L 494.136 791.604 L 494.795 792.490 L 495.476 793.360 L 496.177 794.213 L 496.900 795.048 L 497.642 795.866 L 498.405 796.665 L 499.187 797.445 L 499.988 798.205 L 500.807 798.946 L 501.644 799.666 L 502.499 800.366 L 503.370 801.045 L 504.258 801.701 L 505.162 802.336 L 506.081 802.949 L 507.014 803.539 L 507.962 804.105 L 508.924 804.649 L 509.899 805.168 L 510.886 805.663 L 511.885 806.134 L 512.895 806.581 L 513.916 807.002 L 514.947 807.399 L 515.987 807.769 L 517.036 808.115 L 518.093 808.434 L 519.158 808.727 L 520.230 808.994 L 521.308 809.235 L 522.391 809.449 L 523.479 809.637 L 524.572 809.798 L 525.668 809.932 L 526.768 810.039 L 527.869 810.119 L 528.972 810.171 L 530.077 810.197 L 531.181 810.196 L 532.285 810.168 L 533.388 810.112 L 534.489 810.030 L 535.588 809.920 L 536.684 809.783 L 537.777 809.620 L 538.865 809.430 L 539.948 809.213 L 541.025 808.970 L 542.096 808.700 L 543.160 808.405 L 544.217 808.083 L 545.265 807.735 L 546.304 807.362 L 547.334 806.963 L 548.354 806.539 L 549.363 806.091 L 550.361 805.617 L 551.347 805.119 L 552.320 804.598 L 553.281 804.052 L 554.227 803.483 L 555.160 802.891 L 556.077 802.277 L 556.980 801.640 L 557.866 800.981 L 558.736 800.300 L 559.589 799.599 L 560.424 798.876 L 561.242 798.134 L 562.041 797.371 L 562.821 796.589 L 563.581 795.788 L 564.322 794.969 L 565.042 794.132 L 565.742 793.277 L 566.421 792.406 L 567.077 791.518 L 567.712 790.614 L 568.325 789.695 L 568.915 788.762 L 569.481 787.814 L 570.025 786.852 L 570.544 785.877 L 571.039 784.890 L 571.510 783.891 L 571.957 782.881 L 572.378 781.860 L 572.775 780.829 L 573.145 779.789 L 573.491 778.740 L 573.810 777.683 L 574.103 776.618 L 574.370 775.546 L 574.611 774.468 L 574.825 773.385 L 575.013 772.297 L 575.174 771.204 L 575.308 770.108 L 575.415 769.008 L 575.495 767.907 L 575.547 766.804 L 575.573 765.699 L 575.572 764.595 L 575.544 763.491 L 575.488 762.388 L 575.406 761.287 L 575.296 760.188 L 575.159 759.092 L 574.996 757.999 L 574.806 756.911 L 574.589 755.828 L 574.346 754.751 L 574.076 753.680 L 573.781 752.616 L 573.459 751.559 L 573.111 750.511 L 572.738 749.472 L 572.339 748.442 L 571.915 747.422 L 571.467 746.413 L 570.993 745.415 L 570.495 744.429 L 569.974 743.456 L 569.428 742.495 L 568.859 741.549 L 568.267 740.616 L 567.653 739.699 L 567.016 738.796 L 550.603 716.145 L 554.141 711.529 L 554.778 710.677 L 559.288 704.496 L 559.894 703.645 L 564.300 697.303 L 564.876 696.454 L 569.174 689.955 L 569.721 689.108 L 573.910 682.455 L 574.428 681.611 L 578.506 674.808 L 578.997 673.968 L 582.960 667.020 L 583.425 666.184 L 587.272 659.094 L 587.712 658.262 L 591.439 651.035 L 591.855 650.207 L 595.461 642.848 L 595.854 642.025 L 599.336 634.537 L 599.707 633.718 L 603.064 626.106 L 603.413 625.292 L 606.642 617.561 L 606.971 616.752 L 610.070 608.906 L 610.379 608.102 L 613.347 600.146 L 613.637 599.346 L 616.472 591.286 L 616.743 590.490 L 619.443 582.329 L 619.697 581.538 L 622.260 573.282 L 622.497 572.495 L 624.922 564.149 L 625.142 563.366 L 627.427 554.935 L 627.631 554.156 L 629.775 545.644 L 629.963 544.869 L 631.966 536.282 L 632.139 535.510 L 633.998 526.853 L 634.156 526.085 L 635.870 517.363 L 636.014 516.598 L 637.582 507.817 L 637.712 507.055 L 639.134 498.219 L 639.250 497.459 L 640.525 488.575 L 640.627 487.818 L 641.753 478.890 L 641.842 478.135 L 642.820 469.169 L 642.896 468.416 L 643.724 459.417 L 643.787 458.665 L 644.466 449.640 L 644.516 448.889 L 645.044 439.841 L 645.081 439.091 L 645.459 430.027 L 645.484 429.278 L 645.710 420.203 L 645.723 419.455 L 645.798 410.374 L 645.798 409.626 Z M 555.729 418.331 L 555.521 426.657 L 555.175 434.971 L 554.691 443.268 L 554.069 451.542 L 553.310 459.788 L 552.414 467.999 L 551.383 476.170 L 550.217 484.295 L 548.917 492.369 L 547.485 500.386 L 545.921 508.341 L 544.228 516.228 L 542.406 524.041 L 540.457 531.776 L 538.383 539.427 L 536.186 546.989 L 533.867 554.456 L 531.430 561.823 L 528.876 569.086 L 526.207 576.239 L 523.426 583.278 L 520.536 590.197 L 517.540 596.993 L 514.439 603.660 L 511.238 610.194 L 507.939 616.591 L 504.545 622.847 L 501.060 628.957 L 497.487 634.918 L 494.818 639.157 L 411.520 524.196 L 410.861 523.310 L 410.180 522.440 L 409.479 521.587 L 408.756 520.752 L 408.014 519.934 L 407.251 519.135 L 406.469 518.355 L 405.668 517.595 L 404.849 516.854 L 404.012 516.134 L 403.157 515.434 L 402.286 514.755 L 401.398 514.099 L 400.494 513.464 L 399.575 512.851 L 398.642 512.261 L 397.694 511.695 L 396.732 511.151 L 395.757 510.632 L 394.770 510.137 L 393.771 509.666 L 392.761 509.219 L 391.740 508.798 L 390.709 508.401 L 389.669 508.031 L 388.620 507.685 L 387.563 507.366 L 386.498 507.073 L 385.426 506.806 L 384.348 506.565 L 383.265 506.351 L 382.177 506.163 L 381.084 506.002 L 379.988 505.868 L 378.888 505.761 L 377.787 505.681 L 376.684 505.629 L 375.579 505.603 L 374.475 505.604 L 373.371 505.632 L 372.268 505.688 L 371.167 505.770 L 370.068 505.880 L 368.972 506.017 L 367.879 506.180 L 366.791 506.370 L 365.708 506.587 L 364.631 506.830 L 363.560 507.100 L 362.496 507.395 L 361.439 507.717 L 360.391 508.065 L 359.352 508.438 L 358.322 508.837 L 357.302 509.261 L 356.293 509.709 L 355.295 510.183 L 354.309 510.681 L 353.336 511.202 L 352.375 511.748 L 351.429 512.317 L 350.496 512.909 L 349.579 513.523 L 348.676 514.160 L 347.790 514.819 L 346.920 515.500 L 346.067 516.201 L 345.232 516.924 L 344.414 517.666 L 343.615 518.429 L 342.835 519.211 L 342.075 520.012 L 341.334 520.831 L 340.614 521.668 L 339.914 522.523 L 339.235 523.394 L 338.579 524.282 L 337.944 525.186 L 337.331 526.105 L 336.741 527.038 L 336.175 527.986 L 335.631 528.948 L 335.112 529.923 L 334.617 530.910 L 334.146 531.909 L 333.699 532.919 L 333.278 533.940 L 332.881 534.971 L 332.511 536.011 L 332.165 537.060 L 331.846 538.117 L 331.553 539.182 L 331.286 540.254 L 331.045 541.332 L 330.831 542.415 L 330.643 543.503 L 330.482 544.596 L 330.348 545.692 L 330.241 546.792 L 330.161 547.893 L 330.109 548.996 L 330.083 550.101 L 330.084 551.205 L 330.112 552.309 L 330.168 553.412 L 330.250 554.513 L 330.360 555.612 L 330.497 556.708 L 330.660 557.801 L 330.850 558.889 L 331.067 559.972 L 331.310 561.049 L 331.580 562.120 L 331.875 563.184 L 332.197 564.241 L 332.545 565.289 L 332.918 566.328 L 333.317 567.358 L 333.741 568.378 L 334.189 569.387 L 334.663 570.385 L 335.161 571.371 L 335.682 572.344 L 336.228 573.305 L 336.797 574.251 L 337.389 575.184 L 338.003 576.101 L 338.640 577.004 L 432.639 706.731 L 431.480 707.566 L 427.005 710.590 L 422.512 713.431 L 418.005 716.091 L 413.485 718.569 L 408.957 720.867 L 404.422 722.987 L 399.883 724.929 L 395.341 726.695 L 390.799 728.286 L 386.258 729.704 L 381.718 730.951 L 377.180 732.028 L 372.645 732.937 L 368.112 733.679 L 363.582 734.254 L 359.053 734.665 L 354.526 734.911 L 350.000 734.993 L 345.474 734.911 L 340.947 734.665 L 336.418 734.254 L 331.888 733.679 L 327.355 732.937 L 322.820 732.028 L 318.282 730.951 L 313.742 729.704 L 309.201 728.286 L 304.659 726.695 L 300.117 724.929 L 295.578 722.987 L 291.043 720.867 L 286.515 718.569 L 281.995 716.091 L 277.488 713.431 L 272.995 710.590 L 268.520 707.566 L 264.066 704.359 L 259.638 700.970 L 255.239 697.398 L 250.872 693.643 L 246.543 689.708 L 242.254 685.592 L 238.011 681.296 L 233.816 676.824 L 229.675 672.175 L 225.591 667.353 L 221.568 662.359 L 217.611 657.197 L 213.723 651.869 L 209.908 646.377 L 206.170 640.726 L 202.513 634.918 L 198.940 628.957 L 195.455 622.847 L 192.061 616.591 L 188.762 610.194 L 185.561 603.660 L 182.460 596.993 L 179.464 590.197 L 176.574 583.278 L 173.793 576.239 L 171.124 569.086 L 168.570 561.823 L 166.133 554.456 L 163.814 546.989 L 161.617 539.427 L 159.543 531.776 L 157.594 524.041 L 155.772 516.228 L 154.079 508.341 L 152.515 500.386 L 151.083 492.369 L 149.783 484.295 L 148.617 476.170 L 147.586 467.999 L 146.690 459.788 L 145.931 451.542 L 145.309 443.268 L 144.825 434.971 L 144.479 426.657 L 144.271 418.331 L 144.202 410.000 L 144.271 401.669 L 144.479 393.343 L 144.825 385.029 L 145.309 376.732 L 145.931 368.458 L 146.690 360.212 L 147.586 352.001 L 148.617 343.830 L 149.783 335.705 L 151.083 327.631 L 152.515 319.614 L 154.079 311.659 L 155.772 303.772 L 157.594 295.959 L 159.543 288.224 L 161.617 280.573 L 163.814 273.011 L 166.133 265.544 L 168.570 258.177 L 171.124 250.914 L 173.793 243.761 L 176.574 236.722 L 179.464 229.803 L 182.460 223.007 L 185.561 216.340 L 188.762 209.806 L 192.061 203.409 L 195.455 197.153 L 198.940 191.043 L 202.513 185.082 L 206.170 179.274 L 209.908 173.623 L 213.723 168.131 L 217.611 162.803 L 221.568 157.641 L 225.591 152.647 L 229.675 147.825 L 233.816 143.176 L 238.011 138.704 L 242.254 134.408 L 246.543 130.292 L 250.872 126.357 L 255.239 122.602 L 259.638 119.030 L 264.066 115.641 L 268.520 112.434 L 272.995 109.410 L 277.488 106.569 L 281.995 103.909 L 286.515 101.431 L 291.043 99.133 L 295.578 97.013 L 300.117 95.071 L 304.659 93.305 L 309.201 91.714 L 313.742 90.296 L 318.282 89.049 L 322.820 87.972 L 327.355 87.063 L 331.888 86.321 L 336.418 85.746 L 340.947 85.335 L 345.474 85.089 L 350.000 85.007 L 354.526 85.089 L 359.053 85.335 L 363.582 85.746 L 368.112 86.321 L 372.645 87.063 L 377.180 87.972 L 381.718 89.049 L 386.258 90.296 L 390.799 91.714 L 395.341 93.305 L 399.883 95.071 L 404.422 97.013 L 408.957 99.133 L 413.485 101.431 L 418.005 103.909 L 422.512 106.569 L 427.005 109.410 L 431.480 112.434 L 435.934 115.641 L 440.362 119.030 L 444.761 122.602 L 449.128 126.357 L 453.457 130.292 L 457.746 134.408 L 461.989 138.704 L 466.184 143.176 L 470.325 147.825 L 474.409 152.647 L 478.432 157.641 L 482.389 162.803 L 486.277 168.131 L 490.092 173.623 L 493.830 179.274 L 497.487 185.082 L 501.060 191.043 L 504.545 197.153 L 507.939 203.409 L 511.238 209.806 L 514.439 216.340 L 517.540 223.007 L 520.536 229.803 L 523.426 236.722 L 526.207 243.761 L 528.876 250.914 L 531.430 258.177 L 533.867 265.544 L 536.186 273.011 L 538.383 280.573 L 540.457 288.224 L 542.406 295.959 L 544.228 303.772 L 545.921 311.659 L 547.485 319.614 L 548.917 327.631 L 550.217 335.705 L 551.383 343.830 L 552.414 352.001 L 553.310 360.212 L 554.069 368.458 L 554.691 376.732 L 555.175 385.029 L 555.521 393.343 L 555.729 401.669 L 555.798 410.000 L 555.729 418.331 Z" fill="black" fill-rule="evenodd"/>
</svg>
