<svg xmlns="http://www.w3.org/2000/svg" viewBox="0 0 700.000 1000" width="700.000" height="1000">
  <path d="M 487.476 650.175 L 484.823 653.895 L 482.137 657.537 L 479.417 661.100 L 476.667 664.584 L 473.886 667.987 L 471.077 671.309 L 468.240 674.548 L 465.376 677.705 L 462.488 680.779 L 459.577 683.769 L 456.643 686.674 L 453.689 689.494 L 450.715 692.228 L 447.723 694.877 L 444.714 697.440 L 441.690 699.916 L 438.651 702.306 L 435.600 704.610 L 432.536 706.827 L 429.462 708.957 L 426.378 711.001 L 423.287 712.958 L 420.188 714.830 L 417.082 716.615 L 413.972 718.315 L 410.857 719.929 L 407.738 721.458 L 404.617 722.903 L 401.494 724.263 L 398.369 725.540 L 395.244 726.734 L 392.118 727.845 L 388.992 728.875 L 385.867 729.822 L 382.743 730.688 L 379.619 731.474 L 376.497 732.180 L 373.376 732.806 L 370.256 733.352 L 367.138 733.820 L 364.020 734.210 L 360.903 734.521 L 357.788 734.754 L 354.672 734.909 L 351.557 734.987 L 348.443 734.987 L 345.328 734.909 L 342.212 734.754 L 339.097 734.521 L 335.980 734.210 L 332.862 733.820 L 329.744 733.352 L 326.624 732.806 L 323.503 732.180 L 320.381 731.474 L 317.257 730.688 L 314.133 729.822 L 311.008 728.875 L 307.882 727.845 L 304.756 726.734 L 301.631 725.540 L 298.506 724.263 L 295.383 722.903 L 292.262 721.458 L 289.143 719.929 L 286.028 718.315 L 282.918 716.615 L 279.812 714.830 L 276.713 712.958 L 273.622 711.001 L 270.538 708.957 L 267.464 706.827 L 264.400 704.610 L 261.349 702.306 L 258.310 699.916 L 255.286 697.440 L 252.277 694.877 L 249.285 692.228 L 246.311 689.494 L 243.357 686.674 L 240.423 683.769 L 237.512 680.779 L 234.624 677.705 L 231.760 674.548 L 228.923 671.309 L 226.114 667.987 L 223.333 664.584 L 220.583 661.100 L 217.863 657.537 L 215.177 653.895 L 212.524 650.175 L 209.907 646.379 L 207.326 642.507 L 204.783 638.560 L 202.279 634.539 L 199.815 630.447 L 197.392 626.283 L 195.011 622.049 L 192.674 617.747 L 190.381 613.377 L 188.134 608.941 L 185.934 604.441 L 183.781 599.878 L 181.676 595.252 L 179.621 590.567 L 177.617 585.823 L 175.664 581.021 L 173.763 576.164 L 171.915 571.252 L 170.121 566.288 L 168.382 561.273 L 166.698 556.209 L 165.070 551.096 L 163.499 545.938 L 161.986 540.735 L 160.531 535.490 L 159.134 530.203 L 157.797 524.878 L 156.520 519.514 L 155.304 514.115 L 154.148 508.682 L 153.054 503.217 L 152.022 497.721 L 151.053 492.196 L 150.146 486.645 L 149.302 481.069 L 148.522 475.469 L 147.806 469.848 L 147.154 464.207 L 146.566 458.549 L 146.044 452.875 L 145.586 447.186 L 145.193 441.486 L 144.865 435.775 L 144.603 430.056 L 144.406 424.331 L 144.275 418.600 L 144.209 412.867 L 144.209 407.133 L 144.275 401.400 L 144.406 395.669 L 144.603 389.944 L 144.865 384.225 L 145.193 378.514 L 145.586 372.814 L 146.044 367.125 L 146.566 361.451 L 147.154 355.793 L 147.806 350.152 L 148.522 344.531 L 149.302 338.931 L 150.146 333.355 L 151.053 327.804 L 152.022 322.279 L 153.054 316.783 L 154.148 311.318 L 155.304 305.885 L 156.520 300.486 L 157.797 295.122 L 159.134 289.797 L 160.531 284.510 L 161.986 279.265 L 163.499 274.062 L 165.070 268.904 L 166.698 263.791 L 168.382 258.727 L 170.121 253.712 L 171.915 248.748 L 173.763 243.836 L 175.664 238.979 L 177.617 234.177 L 179.621 229.433 L 181.676 224.748 L 183.781 220.122 L 185.934 215.559 L 188.134 211.059 L 190.381 206.623 L 192.674 202.253 L 195.011 197.951 L 197.392 193.717 L 199.815 189.553 L 202.279 185.461 L 204.783 181.440 L 207.326 177.493 L 209.907 173.621 L 212.524 169.825 L 215.177 166.105 L 217.863 162.463 L 220.583 158.900 L 223.333 155.416 L 226.114 152.013 L 228.923 148.691 L 231.760 145.452 L 234.624 142.295 L 237.512 139.221 L 240.423 136.231 L 243.357 133.326 L 246.311 130.506 L 249.285 127.772 L 252.277 125.123 L 255.286 122.560 L 258.310 120.084 L 261.349 117.694 L 264.400 115.390 L 267.464 113.173 L 270.538 111.043 L 273.622 108.999 L 276.713 107.042 L 279.812 105.170 L 282.918 103.385 L 286.028 101.685 L 289.143 100.071 L 292.262 98.542 L 295.383 97.097 L 298.506 95.737 L 301.631 94.460 L 304.756 93.266 L 307.882 92.155 L 311.008 91.125 L 314.133 90.178 L 317.257 89.312 L 320.381 88.526 L 323.503 87.820 L 326.624 87.194 L 329.744 86.648 L 332.862 86.180 L 335.980 85.790 L 339.097 85.479 L 342.212 85.246 L 345.328 85.091 L 348.443 85.013 L 351.557 85.013 L 354.672 85.091 L 357.788 85.246 L 360.903 85.479 L 364.020 85.790 L 367.138 86.180 L 370.256 86.648 L 373.376 87.194 L 376.497 87.820 L 379.619 88.526 L 382.743 89.312 L 385.867 90.178 L 388.992 91.125 L 392.118 92.155 L 395.244 93.266 L 398.369 94.460 L 401.494 95.737 L 404.617 97.097 L 407.738 98.542 L 410.857 100.071 L 413.972 101.685 L 417.082 103.385 L 420.188 105.170 L 423.287 107.042 L 426.378 108.999 L 429.462 111.043 L 432.536 113.173 L 435.600 115.390 L 438.651 117.694 L 441.690 120.084 L 444.714 122.560 L 447.723 125.123 L 450.715 127.772 L 453.689 130.506 L 456.643 133.326 L 459.577 136.231 L 462.488 139.221 L 465.376 142.295 L 468.240 145.452 L 471.077 148.691 L 473.886 152.013 L 476.667 155.416 L 479.417 158.900 L 482.137 162.463 L 484.823 166.105 L 487.476 169.825 L 490.293 173.912 L 490.931 174.813 L 491.591 175.699 L 492.272 176.568 L 492.975 177.420 L 493.698 178.255 L 494.442 179.071 L 495.205 179.870 L 495.988 180.649 L 496.789 181.409 L 497.609 182.148 L 498.447 182.868 L 499.303 183.567 L 500.175 184.244 L 501.063 184.900 L 501.968 185.534 L 502.888 186.146 L 503.822 186.734 L 504.771 187.300 L 505.733 187.842 L 506.708 188.361 L 507.696 188.855 L 508.695 189.325 L 509.706 189.770 L 510.727 190.191 L 511.758 190.586 L 512.799 190.956 L 513.848 191.300 L 514.906 191.618 L 515.971 191.910 L 517.043 192.176 L 518.121 192.416 L 519.205 192.629 L 520.294 192.815 L 521.386 192.975 L 522.483 193.107 L 523.582 193.213 L 524.684 193.292 L 525.787 193.344 L 526.891 193.368 L 527.996 193.366 L 529.100 193.336 L 530.203 193.279 L 531.304 193.196 L 532.403 193.085 L 533.499 192.947 L 534.591 192.783 L 535.678 192.592 L 536.761 192.374 L 537.838 192.129 L 538.909 191.859 L 539.973 191.562 L 541.029 191.239 L 542.077 190.890 L 543.116 190.515 L 544.145 190.116 L 545.165 189.691 L 546.174 189.241 L 547.171 188.766 L 548.156 188.268 L 549.129 187.745 L 550.089 187.198 L 551.035 186.628 L 551.967 186.035 L 552.884 185.420 L 553.785 184.782 L 554.671 184.122 L 555.540 183.440 L 556.392 182.738 L 557.227 182.015 L 558.043 181.271 L 558.842 180.508 L 559.621 179.725 L 560.381 178.923 L 561.120 178.103 L 561.840 177.266 L 562.539 176.410 L 563.216 175.538 L 563.872 174.649 L 564.506 173.745 L 565.117 172.825 L 565.706 171.891 L 566.272 170.942 L 566.814 169.980 L 567.333 169.005 L 567.827 168.017 L 568.297 167.018 L 568.742 166.007 L 569.163 164.986 L 569.558 163.955 L 569.927 162.914 L 570.272 161.864 L 570.590 160.807 L 570.882 159.742 L 571.148 158.670 L 571.387 157.592 L 571.601 156.508 L 571.787 155.419 L 571.946 154.326 L 572.079 153.230 L 572.185 152.131 L 572.264 151.029 L 572.315 149.926 L 572.340 148.822 L 572.338 147.717 L 572.308 146.613 L 572.251 145.510 L 572.168 144.409 L 572.057 143.310 L 571.919 142.214 L 571.755 141.122 L 571.564 140.034 L 571.346 138.952 L 571.101 137.875 L 570.830 136.804 L 570.534 135.740 L 570.211 134.684 L 569.862 133.636 L 569.487 132.597 L 569.088 131.567 L 568.663 130.548 L 568.213 129.539 L 567.738 128.542 L 567.240 127.557 L 566.717 126.584 L 566.170 125.624 L 565.600 124.678 L 565.007 123.746 L 564.392 122.829 L 561.371 118.448 L 560.961 117.862 L 557.890 113.557 L 557.465 112.971 L 554.346 108.742 L 553.906 108.156 L 550.739 104.005 L 550.283 103.418 L 547.069 99.348 L 546.598 98.761 L 543.337 94.771 L 542.850 94.184 L 539.544 90.276 L 539.040 89.690 L 535.690 85.865 L 535.169 85.280 L 531.776 81.539 L 531.237 80.955 L 527.802 77.299 L 527.245 76.717 L 523.769 73.147 L 523.194 72.568 L 519.677 69.085 L 519.084 68.509 L 515.528 65.114 L 514.916 64.541 L 511.321 61.236 L 510.691 60.667 L 507.059 57.451 L 506.409 56.887 L 502.740 53.762 L 502.071 53.203 L 498.367 50.170 L 497.678 49.617 L 493.940 46.677 L 493.231 46.130 L 489.459 43.284 L 488.730 42.745 L 484.927 39.992 L 484.177 39.461 L 480.343 36.804 L 479.573 36.282 L 475.709 33.721 L 474.918 33.209 L 471.025 30.745 L 470.214 30.243 L 466.294 27.876 L 465.462 27.386 L 461.516 25.117 L 460.664 24.639 L 456.691 22.469 L 455.820 22.005 L 451.823 19.934 L 450.932 19.484 L 446.912 17.513 L 446.001 17.079 L 441.959 15.208 L 441.029 14.790 L 436.967 13.021 L 436.018 12.620 L 431.936 10.952 L 430.969 10.570 L 426.868 9.003 L 425.884 8.641 L 421.766 7.177 L 420.766 6.834 L 416.631 5.473 L 415.615 5.151 L 411.465 3.894 L 410.434 3.594 L 406.271 2.440 L 405.225 2.163 L 401.049 1.113 L 399.990 0.860 L 395.803 -0.086 L 394.732 -0.315 L 390.535 -1.157 L 389.453 -1.360 L 385.247 -2.097 L 384.156 -2.274 L 379.941 -2.907 L 378.842 -3.058 L 374.621 -3.585 L 373.514 -3.709 L 369.287 -4.131 L 368.175 -4.228 L 363.944 -4.545 L 362.828 -4.614 L 358.594 -4.825 L 357.475 -4.867 L 353.239 -4.973 L 352.118 -4.987 L 347.882 -4.987 L 346.761 -4.973 L 342.525 -4.867 L 341.406 -4.825 L 337.172 -4.614 L 336.056 -4.545 L 331.825 -4.228 L 330.713 -4.131 L 326.486 -3.709 L 325.379 -3.585 L 321.158 -3.058 L 320.059 -2.907 L 315.844 -2.274 L 314.753 -2.097 L 310.547 -1.360 L 309.465 -1.157 L 305.268 -0.315 L 304.197 -0.086 L 300.010 0.860 L 298.951 1.113 L 294.775 2.163 L 293.729 2.440 L 289.566 3.594 L 288.535 3.894 L 284.385 5.151 L 283.369 5.473 L 279.234 6.834 L 278.234 7.177 L 274.116 8.641 L 273.132 9.003 L 269.031 10.570 L 268.064 10.952 L 263.982 12.620 L 263.033 13.021 L 258.971 14.790 L 258.041 15.208 L 253.999 17.079 L 253.088 17.513 L 249.068 19.484 L 248.177 19.934 L 244.180 22.005 L 243.309 22.469 L 239.336 24.639 L 238.484 25.117 L 234.538 27.386 L 233.706 27.876 L 229.786 30.243 L 228.975 30.745 L 225.082 33.209 L 224.291 33.721 L 220.427 36.282 L 219.657 36.804 L 215.823 39.461 L 215.073 39.992 L 211.270 42.745 L 210.541 43.284 L 206.769 46.130 L 206.060 46.677 L 202.322 49.617 L 201.633 50.170 L 197.929 53.203 L 197.260 53.762 L 193.591 56.887 L 192.941 57.451 L 189.309 60.667 L 188.679 61.236 L 185.084 64.541 L 184.472 65.114 L 180.916 68.509 L 180.323 69.085 L 176.806 72.568 L 176.231 73.147 L 172.755 76.717 L 172.198 77.299 L 168.763 80.955 L 168.224 81.539 L 164.831 85.280 L 164.310 85.865 L 160.960 89.690 L 160.456 90.276 L 157.150 94.184 L 156.663 94.771 L 153.402 98.761 L 152.931 99.348 L 149.717 103.418 L 149.261 104.005 L 146.094 108.156 L 145.654 108.742 L 142.535 112.971 L 142.110 113.557 L 139.039 117.862 L 138.629 118.448 L 135.608 122.829 L 135.212 123.414 L 132.242 127.870 L 131.860 128.453 L 128.942 132.982 L 128.573 133.564 L 125.707 138.166 L 125.351 138.746 L 122.538 143.419 L 122.196 143.997 L 119.436 148.739 L 119.106 149.316 L 116.402 154.126 L 116.084 154.701 L 113.435 159.577 L 113.129 160.150 L 110.536 165.092 L 110.242 165.663 L 107.706 170.669 L 107.422 171.238 L 104.944 176.306 L 104.672 176.873 L 102.252 182.002 L 101.990 182.567 L 99.629 187.755 L 99.378 188.318 L 97.077 193.565 L 96.836 194.125 L 94.595 199.429 L 94.364 199.987 L 92.184 205.345 L 91.962 205.901 L 89.844 211.313 L 89.632 211.867 L 87.576 217.331 L 87.373 217.882 L 85.380 223.397 L 85.185 223.946 L 83.256 229.509 L 83.070 230.057 L 81.204 235.667 L 81.027 236.212 L 79.226 241.869 L 79.057 242.412 L 77.321 248.112 L 77.160 248.653 L 75.489 254.396 L 75.336 254.935 L 73.732 260.719 L 73.586 261.256 L 72.048 267.079 L 71.910 267.615 L 70.439 273.475 L 70.308 274.009 L 68.904 279.905 L 68.781 280.437 L 67.445 286.367 L 67.329 286.897 L 66.061 292.860 L 65.952 293.389 L 64.752 299.382 L 64.650 299.910 L 63.519 305.932 L 63.423 306.458 L 62.361 312.508 L 62.273 313.033 L 61.280 319.108 L 61.198 319.631 L 60.275 325.731 L 60.199 326.253 L 59.347 332.374 L 59.277 332.896 L 58.495 339.037 L 58.431 339.558 L 57.719 345.718 L 57.662 346.237 L 57.021 352.415 L 56.970 352.933 L 56.399 359.125 L 56.355 359.643 L 55.855 365.849 L 55.816 366.366 L 55.388 372.583 L 55.355 373.100 L 54.998 379.327 L 54.971 379.843 L 54.685 386.078 L 54.665 386.594 L 54.450 392.835 L 54.435 393.351 L 54.292 399.596 L 54.283 400.112 L 54.212 406.360 L 54.209 406.875 L 54.209 413.125 L 54.212 413.640 L 54.283 419.888 L 54.292 420.404 L 54.435 426.649 L 54.450 427.165 L 54.665 433.406 L 54.685 433.922 L 54.971 440.157 L 54.998 440.673 L 55.355 446.900 L 55.388 447.417 L 55.816 453.634 L 55.855 454.151 L 56.355 460.357 L 56.399 460.875 L 56.970 467.067 L 57.021 467.585 L 57.662 473.763 L 57.719 474.282 L 58.431 480.442 L 58.495 480.963 L 59.277 487.104 L 59.347 487.626 L 60.199 493.747 L 60.275 494.269 L 61.198 500.369 L 61.280 500.892 L 62.273 506.967 L 62.361 507.492 L 63.423 513.542 L 63.519 514.068 L 64.650 520.090 L 64.752 520.618 L 65.952 526.611 L 66.061 527.140 L 67.329 533.103 L 67.445 533.633 L 68.781 539.563 L 68.904 540.095 L 70.308 545.991 L 70.439 546.525 L 71.910 552.385 L 72.048 552.921 L 73.586 558.744 L 73.732 559.281 L 75.336 565.065 L 75.489 565.604 L 77.160 571.347 L 77.321 571.888 L 79.057 577.588 L 79.226 578.131 L 81.027 583.788 L 81.204 584.333 L 83.070 589.943 L 83.256 590.491 L 85.185 596.054 L 85.380 596.603 L 87.373 602.118 L 87.576 602.669 L 89.632 608.133 L 89.844 608.687 L 91.962 614.099 L 92.184 614.655 L 94.364 620.013 L 94.595 620.571 L 96.836 625.875 L 97.077 626.435 L 99.378 631.682 L 99.629 632.245 L 101.990 637.433 L 102.252 637.998 L 104.672 643.127 L 104.944 643.694 L 107.422 648.762 L 107.706 649.331 L 110.242 654.337 L 110.536 654.908 L 113.129 659.850 L 113.435 660.423 L 116.084 665.299 L 116.402 665.874 L 119.106 670.684 L 119.436 671.261 L 122.196 676.003 L 122.538 676.581 L 125.351 681.254 L 125.707 681.834 L 128.573 686.436 L 128.942 687.018 L 131.860 691.547 L 132.242 692.130 L 135.212 696.586 L 135.608 697.171 L 138.629 701.552 L 139.039 702.138 L 142.110 706.443 L 142.535 707.029 L 145.654 711.258 L 146.094 711.844 L 149.261 715.995 L 149.717 716.582 L 152.931 720.652 L 153.402 721.239 L 156.663 725.229 L 157.150 725.816 L 160.456 729.724 L 160.960 730.310 L 164.310 734.135 L 164.831 734.720 L 168.224 738.461 L 168.763 739.045 L 172.198 742.701 L 172.755 743.283 L 176.231 746.853 L 176.806 747.432 L 180.323 750.915 L 180.916 751.491 L 184.472 754.886 L 185.084 755.459 L 188.679 758.764 L 189.309 759.333 L 192.941 762.549 L 193.591 763.113 L 197.260 766.238 L 197.929 766.797 L 201.633 769.830 L 202.322 770.383 L 206.060 773.323 L 206.769 773.870 L 210.541 776.716 L 211.270 777.255 L 215.073 780.008 L 215.823 780.539 L 219.657 783.196 L 220.427 783.718 L 224.291 786.279 L 225.082 786.791 L 228.975 789.255 L 229.786 789.757 L 233.706 792.124 L 234.538 792.614 L 238.484 794.883 L 239.336 795.361 L 243.309 797.531 L 244.180 797.995 L 248.177 800.066 L 249.068 800.516 L 253.088 802.487 L 253.999 802.921 L 258.041 804.792 L 258.971 805.210 L 263.033 806.979 L 263.982 807.380 L 268.064 809.048 L 269.031 809.430 L 273.132 810.997 L 274.116 811.359 L 278.234 812.823 L 279.234 813.166 L 283.369 814.527 L 284.385 814.849 L 288.535 816.106 L 289.566 816.406 L 293.729 817.560 L 294.775 817.837 L 298.951 818.887 L 300.010 819.140 L 304.197 820.086 L 305.268 820.315 L 309.465 821.157 L 310.547 821.360 L 314.753 822.097 L 315.844 822.274 L 320.059 822.907 L 321.158 823.058 L 325.379 823.585 L 326.486 823.709 L 330.713 824.131 L 331.825 824.228 L 336.056 824.545 L 337.172 824.614 L 341.406 824.825 L 342.525 824.867 L 346.761 824.973 L 347.882 824.987 L 352.118 824.987 L 353.239 824.973 L 357.475 824.867 L 358.594 824.825 L 362.828 824.614 L 363.944 824.545 L 368.175 824.228 L 369.287 824.131 L 373.514 823.709 L 374.621 823.585 L 378.842 823.058 L 379.941 822.907 L 384.156 822.274 L 385.247 822.097 L 389.453 821.360 L 390.535 821.157 L 394.732 820.315 L 395.803 820.086 L 399.990 819.140 L 401.049 818.887 L 405.225 817.837 L 406.271 817.560 L 410.434 816.406 L 411.465 816.106 L 415.615 814.849 L 416.631 814.527 L 420.766 813.166 L 421.766 812.823 L 425.884 811.359 L 426.868 810.997 L 430.969 809.430 L 431.936 809.048 L 436.018 807.380 L 436.967 806.979 L 441.029 805.210 L 441.959 804.792 L 446.001 802.921 L 446.912 802.487 L 450.932 800.516 L 451.823 800.066 L 455.820 797.995 L 456.691 797.531 L 460.664 795.361 L 461.516 794.883 L 465.462 792.614 L 466.294 792.124 L 470.214 789.757 L 471.025 789.255 L 474.918 786.791 L 475.709 786.279 L 479.573 783.718 L 480.343 783.196 L 484.177 780.539 L 484.927 780.008 L 488.730 777.255 L 489.459 776.716 L 493.231 773.870 L 493.940 773.323 L 497.678 770.383 L 498.367 769.830 L 502.071 766.797 L 502.740 766.238 L 506.409 763.113 L 507.059 762.549 L 510.691 759.333 L 511.321 758.764 L 514.916 755.459 L 515.528 754.886 L 519.084 751.491 L 519.677 750.915 L 523.194 747.432 L 523.769 746.853 L 527.245 743.283 L 527.802 742.701 L 531.237 739.045 L 531.776 738.461 L 535.169 734.720 L 535.690 734.135 L 539.040 730.310 L 539.544 729.724 L 542.850 725.816 L 543.337 725.229 L 546.598 721.239 L 547.069 720.652 L 550.283 716.582 L 550.739 715.995 L 553.906 711.844 L 554.346 711.258 L 557.465 707.029 L 557.890 706.443 L 560.961 702.138 L 561.371 701.552 L 564.392 697.171 L 565.007 696.254 L 565.600 695.322 L 566.170 694.376 L 566.717 693.416 L 567.240 692.443 L 567.738 691.458 L 568.213 690.461 L 568.663 689.452 L 569.088 688.433 L 569.487 687.403 L 569.862 686.364 L 570.211 685.316 L 570.534 684.260 L 570.830 683.196 L 571.101 682.125 L 571.346 681.048 L 571.564 679.966 L 571.755 678.878 L 571.919 677.786 L 572.057 676.690 L 572.168 675.591 L 572.251 674.490 L 572.308 673.387 L 572.338 672.283 L 572.340 671.178 L 572.315 670.074 L 572.264 668.971 L 572.185 667.869 L 572.079 666.770 L 571.946 665.674 L 571.787 664.581 L 571.601 663.492 L 571.387 662.408 L 571.148 661.330 L 570.882 660.258 L 570.590 659.193 L 570.272 658.136 L 569.927 657.086 L 569.558 656.045 L 569.163 655.014 L 568.742 653.993 L 568.297 652.982 L 567.827 651.983 L 567.333 650.995 L 566.814 650.020 L 566.272 649.058 L 565.706 648.109 L 565.117 647.175 L 564.506 646.255 L 563.872 645.351 L 563.216 644.462 L 562.539 643.590 L 561.840 642.734 L 561.120 641.897 L 560.381 641.077 L 559.621 640.275 L 558.842 639.492 L 558.043 638.729 L 557.227 637.985 L 556.392 637.262 L 555.540 636.560 L 554.671 635.878 L 553.785 635.218 L 552.884 634.580 L 551.967 633.965 L 551.035 633.372 L 550.089 632.802 L 549.129 632.255 L 548.156 631.732 L 547.171 631.234 L 546.174 630.759 L 545.165 630.309 L 544.145 629.884 L 543.116 629.485 L 542.077 629.110 L 541.029 628.761 L 539.973 628.438 L 538.909 628.141 L 537.838 627.871 L 536.761 627.626 L 535.678 627.408 L 534.591 627.217 L 533.499 627.053 L 532.403 626.915 L 531.304 626.804 L 530.203 626.721 L 529.100 626.664 L 527.996 626.634 L 526.891 626.632 L 525.787 626.656 L 524.684 626.708 L 523.582 626.787 L 522.483 626.893 L 521.386 627.025 L 520.294 627.185 L 519.205 627.371 L 518.121 627.584 L 517.043 627.824 L 515.971 628.090 L 514.906 628.382 L 513.848 628.700 L 512.799 629.044 L 511.758 629.414 L 510.727 629.809 L 509.706 630.230 L 508.695 630.675 L 507.696 631.145 L 506.708 631.639 L 505.733 632.158 L 504.771 632.700 L 503.822 633.266 L 502.888 633.854 L 501.968 634.466 L 501.063 635.100 L 500.175 635.756 L 499.303 636.433 L 498.447 637.132 L 497.609 637.852 L 496.789 638.591 L 495.988 639.351 L 495.205 640.130 L 494.442 640.929 L 493.698 641.745 L 492.975 642.580 L 492.272 643.432 L 491.591 644.301 L 490.931 645.187 L 490.293 646.088 L 487.476 650.175 Z" fill="black" fill-rule="evenodd"/>
</svg>
