<svg xmlns="http://www.w3.org/2000/svg" viewBox="0 0 700.000 1000" width="700.000" height="1000">
  <path d="M 233.411 241.986 L 233.474 239.677 L 233.562 237.369 L 233.675 235.062 L 233.814 232.758 L 233.977 230.457 L 234.165 228.160 L 234.379 225.866 L 234.617 223.576 L 234.880 221.292 L 235.168 219.012 L 235.480 216.738 L 235.817 214.471 L 236.179 212.210 L 236.565 209.956 L 236.975 207.709 L 237.409 205.471 L 237.868 203.241 L 238.350 201.020 L 238.857 198.809 L 239.386 196.607 L 239.940 194.415 L 240.517 192.235 L 241.117 190.065 L 241.740 187.907 L 242.386 185.761 L 243.054 183.628 L 243.745 181.507 L 244.459 179.400 L 245.194 177.307 L 245.951 175.227 L 246.731 173.162 L 247.531 171.112 L 248.353 169.078 L 249.196 167.059 L 250.060 165.056 L 250.944 163.070 L 251.849 161.101 L 252.773 159.149 L 253.718 157.214 L 254.682 155.298 L 255.665 153.399 L 256.668 151.520 L 257.689 149.659 L 258.729 147.818 L 259.787 145.997 L 260.862 144.195 L 261.956 142.414 L 263.067 140.654 L 264.195 138.914 L 265.339 137.195 L 266.500 135.498 L 267.678 133.823 L 268.871 132.170 L 270.079 130.539 L 271.303 128.931 L 272.541 127.345 L 273.795 125.783 L 275.062 124.244 L 276.343 122.728 L 277.638 121.236 L 278.946 119.768 L 280.267 118.324 L 281.601 116.904 L 282.947 115.509 L 284.305 114.138 L 285.674 112.792 L 287.055 111.471 L 288.447 110.176 L 289.849 108.905 L 291.262 107.660 L 292.685 106.440 L 294.117 105.246 L 295.559 104.077 L 297.010 102.935 L 298.469 101.818 L 299.937 100.727 L 301.413 99.662 L 302.897 98.623 L 304.388 97.610 L 305.887 96.624 L 307.392 95.663 L 308.904 94.729 L 310.423 93.822 L 311.947 92.940 L 313.477 92.085 L 315.013 91.256 L 316.554 90.453 L 318.100 89.677 L 319.651 88.927 L 321.206 88.204 L 322.766 87.506 L 324.330 86.835 L 325.897 86.190 L 327.468 85.572 L 329.043 84.979 L 330.621 84.413 L 332.201 83.872 L 333.785 83.358 L 335.371 82.870 L 336.960 82.408 L 338.551 81.972 L 340.144 81.561 L 341.739 81.177 L 343.336 80.818 L 344.934 80.486 L 346.534 80.178 L 348.135 79.897 L 349.738 79.642 L 351.342 79.412 L 352.946 79.207 L 354.552 79.028 L 356.158 78.875 L 357.765 78.748 L 359.372 78.646 L 360.980 78.569 L 362.588 78.518 L 364.196 78.493 L 365.804 78.493 L 367.412 78.518 L 369.020 78.569 L 370.628 78.646 L 372.235 78.748 L 373.842 78.875 L 375.448 79.028 L 377.054 79.207 L 378.658 79.412 L 380.262 79.642 L 381.865 79.897 L 383.466 80.178 L 385.066 80.486 L 386.664 80.818 L 388.261 81.177 L 389.856 81.561 L 391.449 81.972 L 393.040 82.408 L 394.629 82.870 L 396.215 83.358 L 397.799 83.872 L 399.379 84.413 L 400.957 84.979 L 402.532 85.572 L 404.103 86.190 L 405.670 86.835 L 407.234 87.506 L 408.794 88.204 L 410.349 88.927 L 411.900 89.677 L 413.446 90.453 L 414.987 91.256 L 416.523 92.085 L 418.053 92.940 L 419.577 93.822 L 421.096 94.729 L 422.608 95.663 L 424.113 96.624 L 425.612 97.610 L 427.103 98.623 L 428.587 99.662 L 430.063 100.727 L 431.531 101.818 L 432.990 102.935 L 434.441 104.077 L 435.883 105.246 L 437.315 106.440 L 438.738 107.660 L 440.151 108.905 L 441.553 110.176 L 442.945 111.471 L 444.326 112.792 L 445.695 114.138 L 447.053 115.509 L 448.399 116.904 L 449.733 118.324 L 451.054 119.768 L 452.362 121.236 L 453.657 122.728 L 454.938 124.244 L 456.205 125.783 L 457.459 127.345 L 458.697 128.931 L 459.921 130.539 L 461.129 132.170 L 462.322 133.823 L 463.500 135.498 L 464.661 137.195 L 465.805 138.914 L 466.933 140.654 L 468.044 142.414 L 469.138 144.195 L 470.213 145.997 L 471.271 147.818 L 472.311 149.659 L 473.332 151.520 L 474.335 153.399 L 475.318 155.298 L 476.282 157.214 L 477.227 159.149 L 478.151 161.101 L 479.056 163.070 L 479.940 165.056 L 480.804 167.059 L 481.647 169.078 L 482.469 171.112 L 483.269 173.162 L 484.049 175.227 L 484.806 177.307 L 485.541 179.400 L 486.255 181.507 L 486.946 183.628 L 487.614 185.761 L 488.260 187.907 L 488.883 190.065 L 489.483 192.235 L 490.060 194.415 L 490.614 196.607 L 491.143 198.809 L 491.650 201.020 L 492.132 203.241 L 492.591 205.471 L 493.025 207.709 L 493.435 209.956 L 493.821 212.210 L 494.183 214.471 L 494.520 216.738 L 494.832 219.012 L 495.120 221.292 L 495.383 223.576 L 495.621 225.866 L 495.835 228.160 L 496.023 230.457 L 496.186 232.758 L 496.325 235.062 L 496.438 237.369 L 496.526 239.677 L 496.589 241.986 L 496.627 244.297 L 496.641 246.853 L 496.660 247.957 L 496.707 249.061 L 496.781 250.163 L 496.881 251.263 L 497.009 252.360 L 497.164 253.453 L 497.345 254.543 L 497.553 255.627 L 497.788 256.707 L 498.049 257.780 L 498.336 258.846 L 498.649 259.905 L 498.989 260.956 L 499.354 261.999 L 499.744 263.032 L 500.160 264.055 L 500.601 265.068 L 501.066 266.069 L 501.556 267.059 L 502.070 268.037 L 502.607 269.001 L 503.169 269.953 L 503.753 270.890 L 504.361 271.812 L 504.990 272.719 L 505.642 273.611 L 506.316 274.486 L 507.011 275.345 L 507.726 276.186 L 508.462 277.009 L 509.218 277.814 L 509.994 278.601 L 510.789 279.368 L 511.602 280.115 L 512.433 280.842 L 513.282 281.548 L 514.148 282.234 L 515.031 282.898 L 515.929 283.540 L 516.844 284.160 L 517.773 284.757 L 518.716 285.331 L 519.673 285.882 L 520.644 286.409 L 521.627 286.913 L 522.622 287.392 L 523.629 287.846 L 524.646 288.276 L 525.674 288.680 L 526.711 289.059 L 527.757 289.413 L 528.812 289.741 L 529.874 290.043 L 530.944 290.318 L 532.020 290.568 L 533.101 290.791 L 534.188 290.987 L 535.280 291.156 L 536.375 291.299 L 537.473 291.415 L 538.574 291.503 L 539.677 291.565 L 540.781 291.600 L 541.885 291.607 L 542.989 291.588 L 544.093 291.541 L 545.195 291.467 L 546.295 291.367 L 547.392 291.239 L 548.485 291.084 L 549.575 290.903 L 550.659 290.695 L 551.739 290.460 L 552.812 290.199 L 553.878 289.912 L 554.937 289.599 L 555.988 289.259 L 557.031 288.894 L 558.064 288.504 L 559.087 288.088 L 560.100 287.647 L 561.101 287.182 L 562.091 286.692 L 563.069 286.178 L 564.033 285.641 L 564.985 285.079 L 565.922 284.495 L 566.844 283.887 L 567.751 283.258 L 568.643 282.606 L 569.518 281.932 L 570.377 281.237 L 571.218 280.522 L 572.041 279.786 L 572.846 279.030 L 573.633 278.254 L 574.400 277.459 L 575.147 276.646 L 575.874 275.815 L 576.580 274.966 L 577.266 274.100 L 577.930 273.217 L 578.572 272.319 L 579.192 271.404 L 579.789 270.475 L 580.363 269.532 L 580.914 268.575 L 581.441 267.604 L 581.945 266.621 L 582.424 265.626 L 582.878 264.619 L 583.308 263.602 L 583.712 262.574 L 584.091 261.537 L 584.445 260.491 L 584.773 259.436 L 585.075 258.374 L 585.350 257.304 L 585.600 256.228 L 585.823 255.147 L 586.019 254.060 L 586.188 252.968 L 586.331 251.873 L 586.447 250.775 L 586.535 249.674 L 586.597 248.571 L 586.632 247.467 L 586.639 246.363 L 586.624 243.562 L 586.619 243.071 L 586.573 240.270 L 586.562 239.780 L 586.486 236.980 L 586.470 236.490 L 586.363 233.692 L 586.342 233.201 L 586.205 230.405 L 586.178 229.915 L 586.010 227.121 L 585.978 226.631 L 585.780 223.839 L 585.742 223.349 L 585.514 220.561 L 585.471 220.071 L 585.212 217.287 L 585.164 216.797 L 584.875 214.018 L 584.821 213.528 L 584.501 210.753 L 584.442 210.263 L 584.093 207.494 L 584.028 207.004 L 583.648 204.240 L 583.578 203.750 L 583.168 200.993 L 583.093 200.503 L 582.653 197.753 L 582.572 197.263 L 582.102 194.520 L 582.016 194.030 L 581.516 191.295 L 581.424 190.805 L 580.894 188.078 L 580.797 187.588 L 580.237 184.870 L 580.134 184.381 L 579.545 181.671 L 579.436 181.182 L 578.818 178.482 L 578.704 177.993 L 578.056 175.303 L 577.936 174.814 L 577.259 172.134 L 577.133 171.646 L 576.427 168.977 L 576.295 168.489 L 575.560 165.832 L 575.422 165.344 L 574.658 162.699 L 574.515 162.212 L 573.722 159.578 L 573.572 159.091 L 572.751 156.471 L 572.596 155.984 L 571.746 153.377 L 571.585 152.891 L 570.707 150.297 L 570.539 149.812 L 569.633 147.232 L 569.459 146.747 L 568.525 144.182 L 568.345 143.697 L 567.383 141.148 L 567.197 140.663 L 566.207 138.129 L 566.015 137.645 L 564.998 135.127 L 564.799 134.643 L 563.755 132.142 L 563.550 131.659 L 562.478 129.174 L 562.267 128.692 L 561.168 126.224 L 560.951 125.743 L 559.825 123.292 L 559.601 122.812 L 558.449 120.380 L 558.218 119.900 L 557.040 117.486 L 556.802 117.008 L 555.598 114.613 L 555.354 114.135 L 554.123 111.760 L 553.872 111.283 L 552.616 108.927 L 552.359 108.451 L 551.077 106.116 L 550.812 105.641 L 549.505 103.326 L 549.234 102.853 L 547.901 100.559 L 547.623 100.086 L 546.266 97.814 L 545.981 97.343 L 544.599 95.092 L 544.307 94.623 L 542.901 92.394 L 542.602 91.926 L 541.171 89.720 L 540.865 89.254 L 539.410 87.070 L 539.097 86.606 L 537.619 84.445 L 537.298 83.983 L 535.797 81.846 L 535.469 81.385 L 533.944 79.273 L 533.608 78.814 L 532.061 76.726 L 531.718 76.269 L 530.148 74.206 L 529.798 73.751 L 528.205 71.713 L 527.848 71.261 L 526.233 69.248 L 525.868 68.798 L 524.231 66.811 L 523.858 66.364 L 522.201 64.403 L 521.820 63.959 L 520.141 62.024 L 519.753 61.582 L 518.053 59.675 L 517.657 59.236 L 515.936 57.355 L 515.533 56.920 L 513.792 55.067 L 513.381 54.635 L 511.619 52.809 L 511.200 52.380 L 509.420 50.583 L 508.993 50.158 L 507.192 48.388 L 506.758 47.967 L 504.938 46.227 L 504.496 45.809 L 502.658 44.098 L 502.207 43.684 L 500.351 42.002 L 499.893 41.592 L 498.018 39.940 L 497.552 39.535 L 495.659 37.912 L 495.185 37.511 L 493.275 35.919 L 492.793 35.523 L 490.866 33.961 L 490.376 33.570 L 488.432 32.038 L 487.935 31.652 L 485.974 30.152 L 485.469 29.771 L 483.492 28.301 L 482.979 27.926 L 480.986 26.488 L 480.466 26.118 L 478.458 24.712 L 477.929 24.348 L 475.906 22.974 L 475.370 22.615 L 473.332 21.274 L 472.788 20.921 L 470.736 19.612 L 470.185 19.266 L 468.118 17.989 L 467.560 17.650 L 465.479 16.406 L 464.914 16.074 L 462.820 14.863 L 462.247 14.537 L 460.140 13.360 L 459.560 13.041 L 457.440 11.897 L 456.853 11.586 L 454.721 10.476 L 454.127 10.172 L 451.984 9.095 L 451.383 8.799 L 449.227 7.757 L 448.620 7.469 L 446.453 6.461 L 445.839 6.181 L 443.662 5.207 L 443.041 4.935 L 440.853 3.996 L 440.226 3.733 L 438.029 2.829 L 437.396 2.574 L 435.188 1.705 L 434.549 1.459 L 432.333 0.625 L 431.688 0.387 L 429.462 -0.411 L 428.812 -0.639 L 426.578 -1.403 L 425.922 -1.621 L 423.680 -2.349 L 423.019 -2.558 L 420.769 -3.251 L 420.103 -3.450 L 417.846 -4.107 L 417.175 -4.296 L 414.911 -4.917 L 414.235 -5.097 L 411.965 -5.682 L 411.285 -5.851 L 409.008 -6.400 L 408.324 -6.559 L 406.041 -7.072 L 405.354 -7.220 L 403.066 -7.697 L 402.374 -7.835 L 400.081 -8.275 L 399.386 -8.403 L 397.089 -8.807 L 396.391 -8.924 L 394.089 -9.291 L 393.388 -9.397 L 391.083 -9.727 L 390.380 -9.823 L 388.071 -10.117 L 387.365 -10.201 L 385.053 -10.458 L 384.345 -10.531 L 382.031 -10.752 L 381.322 -10.814 L 379.005 -10.998 L 378.294 -11.049 L 375.975 -11.196 L 375.263 -11.236 L 372.943 -11.346 L 372.231 -11.374 L 369.910 -11.448 L 369.196 -11.465 L 366.875 -11.502 L 366.161 -11.507 L 363.839 -11.507 L 363.125 -11.502 L 360.804 -11.465 L 360.090 -11.448 L 357.769 -11.374 L 357.057 -11.346 L 354.737 -11.236 L 354.025 -11.196 L 351.706 -11.049 L 350.995 -10.998 L 348.678 -10.814 L 347.969 -10.752 L 345.655 -10.531 L 344.947 -10.458 L 342.635 -10.201 L 341.929 -10.117 L 339.620 -9.823 L 338.917 -9.727 L 336.612 -9.397 L 335.911 -9.291 L 333.609 -8.924 L 332.911 -8.807 L 330.614 -8.403 L 329.919 -8.275 L 327.626 -7.835 L 326.934 -7.697 L 324.646 -7.220 L 323.959 -7.072 L 321.676 -6.559 L 320.992 -6.400 L 318.715 -5.851 L 318.035 -5.682 L 315.765 -5.097 L 315.089 -4.917 L 312.825 -4.296 L 312.154 -4.107 L 309.897 -3.450 L 309.231 -3.251 L 306.981 -2.558 L 306.320 -2.349 L 304.078 -1.621 L 303.422 -1.403 L 301.188 -0.639 L 300.538 -0.411 L 298.312 0.387 L 297.667 0.625 L 295.451 1.459 L 294.812 1.705 L 292.604 2.574 L 291.971 2.829 L 289.774 3.733 L 289.147 3.996 L 286.959 4.935 L 286.338 5.207 L 284.161 6.181 L 283.547 6.461 L 281.380 7.469 L 280.773 7.757 L 278.617 8.799 L 278.016 9.095 L 275.873 10.172 L 275.279 10.476 L 273.147 11.586 L 272.560 11.897 L 270.440 13.041 L 269.860 13.360 L 267.753 14.537 L 267.180 14.863 L 265.086 16.074 L 264.521 16.406 L 262.440 17.650 L 261.882 17.989 L 259.815 19.266 L 259.264 19.612 L 257.212 20.921 L 256.668 21.274 L 254.630 22.615 L 254.094 22.974 L 252.071 24.348 L 251.542 24.712 L 249.534 26.118 L 249.014 26.488 L 247.021 27.926 L 246.508 28.301 L 244.531 29.771 L 244.026 30.152 L 242.065 31.652 L 241.568 32.038 L 239.624 33.570 L 239.134 33.961 L 237.207 35.523 L 236.725 35.919 L 234.815 37.511 L 234.341 37.912 L 232.448 39.535 L 231.982 39.940 L 230.107 41.592 L 229.649 42.002 L 227.793 43.684 L 227.342 44.098 L 225.504 45.809 L 225.062 46.227 L 223.242 47.967 L 222.808 48.388 L 221.007 50.158 L 220.580 50.583 L 218.800 52.380 L 218.381 52.809 L 216.619 54.635 L 216.208 55.067 L 214.467 56.920 L 214.064 57.355 L 212.343 59.236 L 211.947 59.675 L 210.247 61.582 L 209.859 62.024 L 208.180 63.959 L 207.799 64.403 L 206.142 66.364 L 205.769 66.811 L 204.132 68.798 L 203.767 69.248 L 202.152 71.261 L 201.795 71.713 L 200.202 73.751 L 199.852 74.206 L 198.282 76.269 L 197.939 76.726 L 196.392 78.814 L 196.056 79.273 L 194.531 81.385 L 194.203 81.846 L 192.702 83.983 L 192.381 84.445 L 190.903 86.606 L 190.590 87.070 L 189.135 89.254 L 188.829 89.720 L 187.398 91.926 L 187.099 92.394 L 185.693 94.623 L 185.401 95.092 L 184.019 97.343 L 183.734 97.814 L 182.377 100.086 L 182.099 100.559 L 180.766 102.853 L 180.495 103.326 L 179.188 105.641 L 178.923 106.116 L 177.641 108.451 L 177.384 108.927 L 176.128 111.283 L 175.877 111.760 L 174.646 114.135 L 174.402 114.613 L 173.198 117.008 L 172.960 117.486 L 171.782 119.900 L 171.551 120.380 L 170.399 122.812 L 170.175 123.292 L 169.049 125.743 L 168.832 126.224 L 167.733 128.692 L 167.522 129.174 L 166.450 131.659 L 166.245 132.142 L 165.201 134.643 L 165.002 135.127 L 163.985 137.645 L 163.793 138.129 L 162.803 140.663 L 162.617 141.148 L 161.655 143.697 L 161.475 144.182 L 160.541 146.747 L 160.367 147.232 L 159.461 149.812 L 159.293 150.297 L 158.415 152.891 L 158.254 153.377 L 157.404 155.984 L 157.249 156.471 L 156.428 159.091 L 156.278 159.578 L 155.485 162.212 L 155.342 162.699 L 154.578 165.344 L 154.440 165.832 L 153.705 168.489 L 153.573 168.977 L 152.867 171.646 L 152.741 172.134 L 152.064 174.814 L 151.944 175.303 L 151.296 177.993 L 151.182 178.482 L 150.564 181.182 L 150.455 181.671 L 149.866 184.381 L 149.763 184.870 L 149.203 187.588 L 149.106 188.078 L 148.576 190.805 L 148.484 191.295 L 147.984 194.030 L 147.898 194.520 L 147.428 197.263 L 147.347 197.753 L 146.907 200.503 L 146.832 200.993 L 146.422 203.750 L 146.352 204.240 L 145.972 207.004 L 145.907 207.494 L 145.558 210.263 L 145.499 210.753 L 145.179 213.528 L 145.125 214.018 L 144.836 216.797 L 144.788 217.287 L 144.529 220.071 L 144.486 220.561 L 144.258 223.349 L 144.220 223.839 L 144.022 226.631 L 143.990 227.121 L 143.822 229.915 L 143.795 230.405 L 143.658 233.201 L 143.637 233.692 L 143.530 236.490 L 143.514 236.980 L 143.438 239.780 L 143.427 240.270 L 143.381 243.071 L 143.376 243.562 L 143.361 246.363 L 143.362 246.485 L 143.360 246.608 L 143.360 507.080 L 143.362 507.270 L 143.362 507.538 L 143.416 512.768 L 143.434 513.683 L 143.594 518.910 L 143.631 519.826 L 143.897 525.047 L 143.953 525.962 L 144.325 531.173 L 144.399 532.088 L 144.877 537.287 L 144.971 538.202 L 145.554 543.385 L 145.667 544.300 L 146.355 549.464 L 146.487 550.378 L 147.281 555.521 L 147.431 556.435 L 148.329 561.552 L 148.499 562.466 L 149.501 567.555 L 149.690 568.468 L 150.795 573.526 L 151.005 574.438 L 152.212 579.462 L 152.441 580.374 L 153.751 585.360 L 154.000 586.271 L 155.410 591.217 L 155.680 592.127 L 157.191 597.030 L 157.481 597.939 L 159.091 602.796 L 159.403 603.703 L 161.111 608.510 L 161.444 609.416 L 163.249 614.172 L 163.603 615.076 L 165.505 619.776 L 165.881 620.678 L 167.878 625.321 L 168.276 626.221 L 170.367 630.803 L 170.788 631.700 L 172.971 636.219 L 173.415 637.113 L 175.689 641.566 L 176.156 642.456 L 178.520 646.841 L 179.011 647.727 L 181.464 652.040 L 181.979 652.922 L 184.519 657.162 L 185.058 658.039 L 187.683 662.202 L 188.247 663.073 L 190.956 667.157 L 191.545 668.023 L 194.336 672.026 L 194.951 672.885 L 197.822 676.803 L 198.463 677.656 L 201.413 681.488 L 202.079 682.332 L 205.107 686.076 L 205.800 686.911 L 208.903 690.564 L 209.622 691.390 L 212.798 694.950 L 213.544 695.766 L 216.792 699.231 L 217.565 700.035 L 220.882 703.403 L 221.682 704.195 L 225.067 707.464 L 225.894 708.243 L 229.344 711.410 L 230.199 712.175 L 233.713 715.239 L 234.595 715.988 L 238.170 718.947 L 239.079 719.681 L 242.713 722.533 L 243.650 723.249 L 247.341 725.993 L 248.305 726.689 L 252.050 729.323 L 253.041 730.000 L 256.839 732.522 L 257.855 733.178 L 261.704 735.587 L 262.747 736.220 L 266.643 738.515 L 267.711 739.124 L 271.652 741.302 L 272.746 741.887 L 276.730 743.948 L 277.848 744.506 L 281.873 746.448 L 283.014 746.979 L 287.077 748.802 L 288.241 749.304 L 292.340 751.005 L 293.525 751.478 L 297.658 753.057 L 298.863 753.498 L 303.026 754.955 L 304.251 755.364 L 308.443 756.697 L 309.685 757.072 L 313.903 758.281 L 315.161 758.622 L 319.403 759.705 L 320.676 760.011 L 324.938 760.968 L 326.226 761.238 L 330.506 762.069 L 331.805 762.301 L 336.100 763.005 L 337.410 763.200 L 341.718 763.776 L 343.036 763.933 L 347.355 764.382 L 348.679 764.499 L 353.006 764.820 L 354.335 764.899 L 358.667 765.091 L 359.999 765.131 L 364.334 765.195 L 365.666 765.195 L 370.001 765.131 L 371.333 765.091 L 375.665 764.899 L 376.994 764.820 L 381.321 764.499 L 382.645 764.382 L 386.964 763.933 L 388.282 763.776 L 392.590 763.200 L 393.900 763.005 L 398.195 762.301 L 399.494 762.069 L 403.774 761.238 L 405.062 760.968 L 409.324 760.011 L 410.597 759.705 L 414.839 758.622 L 416.097 758.281 L 420.315 757.072 L 421.557 756.697 L 425.749 755.364 L 426.974 754.955 L 431.137 753.498 L 432.342 753.057 L 436.475 751.478 L 437.660 751.005 L 441.759 749.304 L 442.923 748.802 L 446.986 746.979 L 448.127 746.448 L 452.152 744.506 L 453.270 743.948 L 457.254 741.887 L 458.348 741.302 L 462.289 739.124 L 463.357 738.515 L 467.253 736.220 L 468.296 735.587 L 472.145 733.178 L 473.161 732.522 L 476.959 730.000 L 477.950 729.323 L 481.695 726.689 L 482.659 725.993 L 486.350 723.249 L 487.287 722.533 L 490.921 719.681 L 491.830 718.947 L 495.405 715.988 L 496.287 715.239 L 499.801 712.175 L 500.656 711.410 L 504.106 708.243 L 504.933 707.464 L 508.318 704.195 L 509.118 703.403 L 512.435 700.035 L 513.208 699.231 L 516.456 695.766 L 517.202 694.950 L 520.378 691.390 L 521.097 690.564 L 524.200 686.911 L 524.893 686.076 L 527.921 682.332 L 528.587 681.488 L 531.537 677.656 L 532.178 676.803 L 535.049 672.885 L 535.664 672.026 L 538.455 668.023 L 539.044 667.157 L 541.753 663.073 L 542.317 662.202 L 544.942 658.039 L 545.481 657.162 L 548.021 652.922 L 548.536 652.040 L 550.989 647.727 L 551.480 646.841 L 553.844 642.456 L 554.311 641.566 L 556.585 637.113 L 557.029 636.219 L 559.212 631.700 L 559.633 630.803 L 561.724 626.221 L 562.122 625.321 L 564.119 620.678 L 564.495 619.776 L 566.397 615.076 L 566.751 614.172 L 568.556 609.416 L 568.889 608.510 L 570.597 603.703 L 570.909 602.796 L 572.519 597.939 L 572.809 597.030 L 574.320 592.127 L 574.590 591.217 L 576.000 586.271 L 576.249 585.360 L 577.559 580.374 L 577.788 579.462 L 578.995 574.438 L 579.205 573.526 L 580.310 568.468 L 580.499 567.555 L 581.501 562.466 L 581.671 561.552 L 582.569 556.435 L 582.719 555.521 L 583.513 550.378 L 583.645 549.464 L 584.333 544.300 L 584.446 543.385 L 585.029 538.202 L 585.123 537.287 L 585.601 532.088 L 585.675 531.173 L 586.047 525.962 L 586.103 525.047 L 586.369 519.826 L 586.406 518.910 L 586.566 513.683 L 586.584 512.768 L 586.638 507.538 L 586.638 506.622 L 586.584 501.392 L 586.566 500.477 L 586.406 495.250 L 586.369 494.334 L 586.103 489.113 L 586.047 488.198 L 585.675 482.987 L 585.601 482.072 L 585.123 476.873 L 585.029 475.958 L 584.446 470.775 L 584.333 469.860 L 583.645 464.696 L 583.513 463.782 L 582.719 458.639 L 582.569 457.725 L 581.671 452.608 L 581.501 451.694 L 580.499 446.605 L 580.310 445.692 L 579.205 440.634 L 578.995 439.722 L 577.788 434.698 L 577.559 433.786 L 576.249 428.800 L 576.000 427.889 L 574.590 422.943 L 574.320 422.033 L 572.809 417.130 L 572.519 416.221 L 570.909 411.364 L 570.597 410.457 L 568.889 405.650 L 568.556 404.744 L 566.751 399.988 L 566.397 399.084 L 564.495 394.384 L 564.119 393.482 L 562.122 388.839 L 561.724 387.939 L 559.633 383.357 L 559.212 382.460 L 557.029 377.941 L 556.585 377.047 L 554.311 372.594 L 553.844 371.704 L 551.480 367.319 L 550.989 366.433 L 548.536 362.120 L 548.021 361.238 L 545.481 356.998 L 544.942 356.121 L 542.317 351.958 L 541.753 351.087 L 539.044 347.003 L 538.455 346.137 L 535.664 342.134 L 535.049 341.275 L 532.178 337.357 L 531.537 336.504 L 528.587 332.672 L 527.921 331.828 L 524.893 328.084 L 524.200 327.249 L 521.097 323.596 L 520.378 322.770 L 517.202 319.210 L 516.456 318.394 L 513.208 314.929 L 512.435 314.125 L 509.118 310.757 L 508.318 309.965 L 504.933 306.696 L 504.106 305.917 L 500.656 302.750 L 499.801 301.985 L 496.287 298.921 L 495.405 298.172 L 491.830 295.213 L 490.921 294.479 L 487.287 291.627 L 486.350 290.911 L 482.659 288.167 L 481.695 287.471 L 477.950 284.837 L 476.959 284.160 L 473.161 281.638 L 472.145 280.982 L 468.296 278.573 L 467.253 277.940 L 463.357 275.645 L 462.289 275.036 L 458.348 272.858 L 457.254 272.273 L 453.270 270.212 L 452.152 269.654 L 448.127 267.712 L 446.986 267.181 L 442.923 265.358 L 441.759 264.856 L 437.660 263.155 L 436.475 262.682 L 432.342 261.103 L 431.137 260.662 L 426.974 259.205 L 425.749 258.796 L 421.557 257.463 L 420.315 257.088 L 416.097 255.879 L 414.839 255.538 L 410.597 254.455 L 409.324 254.149 L 405.062 253.192 L 403.774 252.922 L 399.494 252.091 L 398.195 251.859 L 393.900 251.155 L 392.590 250.960 L 388.282 250.384 L 386.964 250.227 L 382.645 249.778 L 381.321 249.661 L 376.994 249.340 L 375.665 249.261 L 371.333 249.069 L 370.001 249.029 L 365.666 248.965 L 364.334 248.965 L 359.999 249.029 L 358.667 249.069 L 354.335 249.261 L 353.006 249.340 L 348.679 249.661 L 347.355 249.778 L 343.036 250.227 L 341.718 250.384 L 337.410 250.960 L 336.100 251.155 L 331.805 251.859 L 330.506 252.091 L 326.226 252.922 L 324.938 253.192 L 320.676 254.149 L 319.403 254.455 L 315.161 255.538 L 313.903 255.879 L 309.685 257.088 L 308.443 257.463 L 304.251 258.796 L 303.026 259.205 L 298.863 260.662 L 297.658 261.103 L 293.525 262.682 L 292.340 263.155 L 288.241 264.856 L 287.077 265.358 L 283.014 267.181 L 281.873 267.712 L 277.848 269.654 L 276.730 270.212 L 272.746 272.273 L 271.652 272.858 L 267.711 275.036 L 266.643 275.645 L 262.747 277.940 L 261.704 278.573 L 257.855 280.982 L 256.839 281.638 L 253.041 284.160 L 252.050 284.837 L 248.305 287.471 L 247.341 288.167 L 243.650 290.911 L 242.713 291.627 L 239.079 294.479 L 238.170 295.213 L 234.595 298.172 L 233.713 298.921 L 233.360 299.229 L 233.360 246.731 L 233.373 244.297 L 233.411 241.986 Z M 496.462 515.706 L 496.243 520.012 L 495.936 524.308 L 495.543 528.591 L 495.062 532.859 L 494.495 537.109 L 493.843 541.337 L 493.105 545.540 L 492.284 549.716 L 491.378 553.861 L 490.390 557.972 L 489.320 562.047 L 488.169 566.082 L 486.939 570.076 L 485.630 574.024 L 484.244 577.925 L 482.783 581.775 L 481.246 585.573 L 479.637 589.315 L 477.957 592.999 L 476.206 596.623 L 474.388 600.184 L 472.502 603.680 L 470.553 607.108 L 468.540 610.468 L 466.467 613.756 L 464.334 616.970 L 462.145 620.110 L 459.901 623.172 L 457.603 626.156 L 455.255 629.059 L 452.858 631.881 L 450.414 634.620 L 447.926 637.275 L 445.395 639.844 L 442.825 642.326 L 440.216 644.721 L 437.571 647.028 L 434.892 649.246 L 432.181 651.373 L 429.440 653.411 L 426.672 655.358 L 423.878 657.213 L 421.060 658.977 L 418.219 660.650 L 415.359 662.231 L 412.479 663.720 L 409.583 665.117 L 406.672 666.423 L 403.747 667.637 L 400.809 668.760 L 397.860 669.792 L 394.901 670.733 L 391.934 671.583 L 388.959 672.343 L 385.977 673.012 L 382.990 673.592 L 379.999 674.082 L 377.003 674.483 L 374.005 674.795 L 371.005 675.017 L 368.003 675.151 L 365.000 675.195 L 361.997 675.151 L 358.995 675.017 L 355.995 674.795 L 352.997 674.483 L 350.001 674.082 L 347.010 673.592 L 344.023 673.012 L 341.041 672.343 L 338.066 671.583 L 335.099 670.733 L 332.140 669.792 L 329.191 668.760 L 326.253 667.637 L 323.328 666.423 L 320.417 665.117 L 317.521 663.720 L 314.641 662.231 L 311.781 660.650 L 308.940 658.977 L 306.122 657.213 L 303.328 655.358 L 300.560 653.411 L 297.819 651.373 L 295.108 649.246 L 292.429 647.028 L 289.784 644.721 L 287.175 642.326 L 284.605 639.844 L 282.074 637.275 L 279.586 634.620 L 277.142 631.881 L 274.745 629.059 L 272.397 626.156 L 270.099 623.172 L 267.855 620.110 L 265.666 616.970 L 263.533 613.756 L 261.460 610.468 L 259.447 607.108 L 257.498 603.680 L 255.612 600.184 L 253.794 596.623 L 252.043 592.999 L 250.363 589.315 L 248.754 585.573 L 247.217 581.775 L 245.756 577.925 L 244.370 574.024 L 243.061 570.076 L 241.831 566.082 L 240.680 562.047 L 239.610 557.972 L 238.622 553.861 L 237.716 549.716 L 236.895 545.540 L 236.157 541.337 L 235.505 537.109 L 234.938 532.859 L 234.457 528.591 L 234.064 524.308 L 233.757 520.012 L 233.538 515.706 L 233.406 511.395 L 233.362 507.080 L 233.406 502.765 L 233.538 498.454 L 233.757 494.148 L 234.064 489.852 L 234.457 485.569 L 234.938 481.301 L 235.505 477.051 L 236.157 472.823 L 236.895 468.620 L 237.716 464.444 L 238.622 460.299 L 239.610 456.188 L 240.680 452.113 L 241.831 448.078 L 243.061 444.084 L 244.370 440.136 L 245.756 436.235 L 247.217 432.385 L 248.754 428.587 L 250.363 424.845 L 252.043 421.161 L 253.794 417.537 L 255.612 413.976 L 257.498 410.480 L 259.447 407.052 L 261.460 403.692 L 263.533 400.404 L 265.666 397.190 L 267.855 394.050 L 270.099 390.988 L 272.397 388.004 L 274.745 385.101 L 277.142 382.279 L 279.586 379.540 L 282.074 376.885 L 284.605 374.316 L 287.175 371.834 L 289.784 369.439 L 292.429 367.132 L 295.108 364.914 L 297.819 362.787 L 300.560 360.749 L 303.328 358.802 L 306.122 356.947 L 308.940 355.183 L 311.781 353.510 L 314.641 351.929 L 317.521 350.440 L 320.417 349.043 L 323.328 347.737 L 326.253 346.523 L 329.191 345.400 L 332.140 344.368 L 335.099 343.427 L 338.066 342.577 L 341.041 341.817 L 344.023 341.148 L 347.010 340.568 L 350.001 340.078 L 352.997 339.677 L 355.995 339.365 L 358.995 339.143 L 361.997 339.009 L 365.000 338.965 L 368.003 339.009 L 371.005 339.143 L 374.005 339.365 L 377.003 339.677 L 379.999 340.078 L 382.990 340.568 L 385.977 341.148 L 388.959 341.817 L 391.934 342.577 L 394.901 343.427 L 397.860 344.368 L 400.809 345.400 L 403.747 346.523 L 406.672 347.737 L 409.583 349.043 L 412.479 350.440 L 415.359 351.929 L 418.219 353.510 L 421.060 355.183 L 423.878 356.947 L 426.672 358.802 L 429.440 360.749 L 432.181 362.787 L 434.892 364.914 L 437.571 367.132 L 440.216 369.439 L 442.825 371.834 L 445.395 374.316 L 447.926 376.885 L 450.414 379.540 L 452.858 382.279 L 455.255 385.101 L 457.603 388.004 L 459.901 390.988 L 462.145 394.050 L 464.334 397.190 L 466.467 400.404 L 468.540 403.692 L 470.553 407.052 L 472.502 410.480 L 474.388 413.976 L 476.206 417.537 L 477.957 421.161 L 479.637 424.845 L 481.246 428.587 L 482.783 432.385 L 484.244 436.235 L 485.630 440.136 L 486.939 444.084 L 488.169 448.078 L 489.320 452.113 L 490.390 456.188 L 491.378 460.299 L 492.284 464.444 L 493.105 468.620 L 493.843 472.823 L 494.495 477.051 L 495.062 481.301 L 495.543 485.569 L 495.936 489.852 L 496.243 494.148 L 496.462 498.454 L 496.594 502.765 L 496.638 507.080 L 496.594 511.395 L 496.462 515.706 Z" fill="black" fill-rule="evenodd"/>
</svg>
