<svg xmlns="http://www.w3.org/2000/svg" viewBox="0 0 700.000 1000">
  <path d="M 311.899 433.944 L 312.500 434.875 L 313.124 435.791 L 313.770 436.691 L 314.439 437.575 L 315.128 438.442 L 315.839 439.293 L 316.571 440.125 L 317.323 440.939 L 318.095 441.734 L 318.886 442.510 L 319.696 443.267 L 320.524 444.003 L 321.371 444.718 L 322.234 445.413 L 323.115 446.086 L 324.011 446.737 L 324.924 447.366 L 325.852 447.972 L 326.794 448.555 L 327.751 449.115 L 328.721 449.651 L 329.703 450.163 L 330.699 450.650 L 331.705 451.113 L 332.723 451.551 L 333.752 451.964 L 334.790 452.352 L 335.838 452.713 L 336.894 453.049 L 337.958 453.359 L 339.029 453.642 L 340.107 453.899 L 341.191 454.129 L 342.281 454.333 L 343.375 454.510 L 344.473 454.659 L 345.574 454.782 L 346.678 454.877 L 347.784 454.945 L 348.892 454.986 L 350.000 455.000 L 351.108 454.986 L 352.216 454.945 L 353.322 454.877 L 354.426 454.782 L 355.527 454.659 L 356.625 454.510 L 357.719 454.333 L 358.809 454.129 L 359.893 453.899 L 360.971 453.642 L 362.042 453.359 L 363.106 453.049 L 364.162 452.713 L 365.210 452.352 L 366.248 451.964 L 367.277 451.551 L 368.295 451.113 L 369.301 450.650 L 370.297 450.163 L 371.279 449.651 L 372.249 449.115 L 373.206 448.555 L 374.148 447.972 L 375.076 447.366 L 375.989 446.737 L 376.885 446.086 L 377.766 445.413 L 378.629 444.718 L 379.476 444.003 L 380.304 443.267 L 381.114 442.510 L 381.905 441.734 L 382.677 440.939 L 383.429 440.125 L 384.161 439.293 L 384.872 438.442 L 385.561 437.575 L 386.230 436.691 L 386.876 435.791 L 387.500 434.875 L 388.101 433.944 L 388.679 432.998 L 525.000 203.731 L 525.000 780.000 L 525.014 781.104 L 525.054 782.208 L 525.122 783.310 L 525.217 784.411 L 525.338 785.508 L 525.487 786.603 L 525.663 787.693 L 525.865 788.779 L 526.093 789.860 L 526.349 790.934 L 526.630 792.002 L 526.938 793.063 L 527.271 794.116 L 527.631 795.160 L 528.015 796.195 L 528.425 797.221 L 528.861 798.236 L 529.320 799.240 L 529.805 800.233 L 530.314 801.213 L 530.846 802.180 L 531.402 803.135 L 531.982 804.075 L 532.584 805.001 L 533.209 805.911 L 533.856 806.806 L 534.524 807.685 L 535.215 808.548 L 535.926 809.393 L 536.657 810.220 L 537.409 811.029 L 538.180 811.820 L 538.971 812.591 L 539.780 813.343 L 540.607 814.074 L 541.452 814.785 L 542.315 815.476 L 543.194 816.144 L 544.089 816.791 L 544.999 817.416 L 545.925 818.018 L 546.865 818.598 L 547.820 819.154 L 548.787 819.686 L 549.767 820.195 L 550.760 820.680 L 551.764 821.139 L 552.779 821.575 L 553.805 821.985 L 554.840 822.369 L 555.884 822.729 L 556.937 823.062 L 557.998 823.370 L 559.066 823.651 L 560.140 823.907 L 561.221 824.135 L 562.307 824.337 L 563.397 824.513 L 564.492 824.662 L 565.589 824.783 L 566.690 824.878 L 567.792 824.946 L 568.896 824.986 L 570.000 825.000 L 571.104 824.986 L 572.208 824.946 L 573.310 824.878 L 574.411 824.783 L 575.508 824.662 L 576.603 824.513 L 577.693 824.337 L 578.779 824.135 L 579.860 823.907 L 580.934 823.651 L 582.002 823.370 L 583.063 823.062 L 584.116 822.729 L 585.160 822.369 L 586.195 821.985 L 587.221 821.575 L 588.236 821.139 L 589.240 820.680 L 590.233 820.195 L 591.213 819.686 L 592.180 819.154 L 593.135 818.598 L 594.075 818.018 L 595.001 817.416 L 595.911 816.791 L 596.806 816.144 L 597.685 815.476 L 598.548 814.785 L 599.393 814.074 L 600.220 813.343 L 601.029 812.591 L 601.820 811.820 L 602.591 811.029 L 603.343 810.220 L 604.074 809.393 L 604.785 808.548 L 605.476 807.685 L 606.144 806.806 L 606.791 805.911 L 607.416 805.001 L 608.018 804.075 L 608.598 803.135 L 609.154 802.180 L 609.686 801.213 L 610.195 800.233 L 610.680 799.240 L 611.139 798.236 L 611.575 797.221 L 611.985 796.195 L 612.369 795.160 L 612.729 794.116 L 613.062 793.063 L 613.370 792.002 L 613.651 790.934 L 613.907 789.860 L 614.135 788.779 L 614.337 787.693 L 614.513 786.603 L 614.662 785.508 L 614.783 784.411 L 614.878 783.310 L 614.946 782.208 L 614.986 781.104 L 615.000 780.000 L 615.000 40.000 L 614.999 39.921 L 615.000 39.841 L 614.992 39.369 L 614.986 38.896 L 614.984 38.816 L 614.982 38.737 L 614.963 38.265 L 614.946 37.792 L 614.941 37.713 L 614.938 37.633 L 614.907 37.162 L 614.878 36.690 L 614.871 36.611 L 614.866 36.531 L 614.824 36.060 L 614.783 35.589 L 614.775 35.510 L 614.767 35.431 L 614.714 34.962 L 614.662 34.492 L 614.651 34.413 L 614.642 34.334 L 614.577 33.866 L 614.513 33.397 L 614.500 33.319 L 614.489 33.240 L 614.413 32.774 L 614.337 32.307 L 614.323 32.229 L 614.310 32.150 L 614.222 31.686 L 614.135 31.221 L 614.119 31.143 L 614.104 31.065 L 614.005 30.603 L 613.907 30.140 L 613.888 30.063 L 613.872 29.986 L 613.761 29.526 L 613.651 29.066 L 613.631 28.989 L 613.613 28.912 L 613.490 28.455 L 613.370 27.998 L 613.348 27.922 L 613.327 27.845 L 613.194 27.391 L 613.062 26.937 L 613.038 26.862 L 613.016 26.785 L 612.872 26.335 L 612.729 25.884 L 612.703 25.809 L 612.679 25.734 L 612.523 25.287 L 612.369 24.840 L 612.342 24.766 L 612.316 24.691 L 612.149 24.248 L 611.985 23.805 L 611.955 23.731 L 611.927 23.657 L 611.750 23.218 L 611.575 22.779 L 611.543 22.706 L 611.514 22.633 L 611.326 22.199 L 611.139 21.764 L 611.106 21.692 L 611.075 21.619 L 610.876 21.190 L 610.680 20.760 L 610.645 20.689 L 610.611 20.617 L 610.403 20.192 L 610.195 19.767 L 610.159 19.697 L 610.124 19.626 L 609.904 19.207 L 609.686 18.787 L 609.648 18.718 L 609.611 18.647 L 609.382 18.234 L 609.154 17.820 L 609.114 17.751 L 609.075 17.682 L 608.836 17.274 L 608.598 16.865 L 608.556 16.798 L 608.516 16.729 L 608.266 16.328 L 608.018 15.925 L 607.975 15.859 L 607.933 15.791 L 607.674 15.396 L 607.416 14.999 L 607.371 14.934 L 607.328 14.868 L 607.059 14.479 L 606.791 14.089 L 606.745 14.024 L 606.700 13.959 L 606.421 13.577 L 606.144 13.194 L 606.096 13.130 L 606.050 13.066 L 605.762 12.691 L 605.476 12.315 L 605.426 12.253 L 605.378 12.190 L 605.081 11.822 L 604.785 11.452 L 604.734 11.392 L 604.685 11.330 L 604.379 10.969 L 604.074 10.607 L 604.022 10.548 L 603.971 10.487 L 603.656 10.134 L 603.343 9.780 L 603.289 9.722 L 603.236 9.662 L 602.913 9.317 L 602.591 8.971 L 602.536 8.914 L 602.482 8.856 L 602.150 8.519 L 601.820 8.180 L 601.763 8.125 L 601.707 8.068 L 601.368 7.739 L 601.029 7.409 L 600.971 7.355 L 600.914 7.300 L 600.567 6.979 L 600.220 6.657 L 600.161 6.605 L 600.102 6.551 L 599.747 6.239 L 599.393 5.926 L 599.332 5.875 L 599.272 5.822 L 598.910 5.519 L 598.548 5.215 L 598.486 5.165 L 598.425 5.114 L 598.055 4.820 L 597.685 4.524 L 597.622 4.476 L 597.560 4.427 L 597.183 4.142 L 596.806 3.856 L 596.742 3.809 L 596.679 3.761 L 596.295 3.486 L 595.911 3.209 L 595.846 3.164 L 595.781 3.118 L 595.391 2.851 L 595.001 2.584 L 594.934 2.541 L 594.869 2.496 L 594.471 2.239 L 594.075 1.982 L 594.007 1.940 L 593.941 1.897 L 593.537 1.650 L 593.135 1.402 L 593.066 1.362 L 592.998 1.321 L 592.589 1.084 L 592.180 0.846 L 592.111 0.808 L 592.042 0.768 L 591.627 0.542 L 591.213 0.314 L 591.142 0.277 L 591.073 0.239 L 590.652 0.023 L 590.233 -0.195 L 590.161 -0.230 L 590.091 -0.266 L 589.665 -0.472 L 589.240 -0.680 L 589.168 -0.713 L 589.096 -0.747 L 588.666 -0.943 L 588.236 -1.139 L 588.163 -1.171 L 588.091 -1.203 L 587.655 -1.388 L 587.221 -1.575 L 587.147 -1.604 L 587.074 -1.635 L 586.634 -1.809 L 586.195 -1.985 L 586.121 -2.012 L 586.047 -2.042 L 585.603 -2.205 L 585.160 -2.369 L 585.085 -2.395 L 585.011 -2.423 L 584.563 -2.575 L 584.116 -2.729 L 584.040 -2.753 L 583.965 -2.778 L 583.514 -2.919 L 583.063 -3.062 L 582.987 -3.084 L 582.911 -3.108 L 582.456 -3.238 L 582.002 -3.370 L 581.925 -3.390 L 581.849 -3.412 L 581.391 -3.531 L 580.934 -3.651 L 580.857 -3.670 L 580.780 -3.690 L 580.320 -3.797 L 579.860 -3.907 L 579.782 -3.923 L 579.705 -3.941 L 579.242 -4.037 L 578.779 -4.135 L 578.701 -4.150 L 578.623 -4.166 L 578.158 -4.251 L 577.693 -4.337 L 577.615 -4.350 L 577.537 -4.364 L 577.070 -4.438 L 576.603 -4.513 L 576.524 -4.524 L 576.446 -4.536 L 575.977 -4.598 L 575.508 -4.662 L 575.430 -4.670 L 575.351 -4.681 L 574.881 -4.731 L 574.411 -4.783 L 574.332 -4.790 L 574.253 -4.799 L 573.782 -4.837 L 573.310 -4.878 L 573.231 -4.883 L 573.152 -4.889 L 572.680 -4.917 L 572.208 -4.946 L 572.129 -4.949 L 572.050 -4.953 L 571.577 -4.969 L 571.104 -4.986 L 571.025 -4.987 L 570.946 -4.990 L 570.473 -4.994 L 570.000 -5.000 L 569.921 -4.999 L 569.841 -5.000 L 569.369 -4.992 L 568.896 -4.986 L 568.816 -4.984 L 568.737 -4.982 L 568.265 -4.963 L 567.792 -4.946 L 567.713 -4.941 L 567.633 -4.938 L 567.162 -4.907 L 566.690 -4.878 L 566.611 -4.871 L 566.531 -4.866 L 566.060 -4.824 L 565.589 -4.783 L 565.510 -4.775 L 565.431 -4.767 L 564.962 -4.714 L 564.492 -4.662 L 564.413 -4.651 L 564.334 -4.642 L 563.866 -4.577 L 563.397 -4.513 L 563.319 -4.500 L 563.240 -4.489 L 562.774 -4.413 L 562.307 -4.337 L 562.229 -4.323 L 562.150 -4.310 L 561.686 -4.222 L 561.221 -4.135 L 561.143 -4.119 L 561.065 -4.104 L 560.603 -4.005 L 560.140 -3.907 L 560.063 -3.888 L 559.986 -3.872 L 559.526 -3.761 L 559.066 -3.651 L 558.989 -3.631 L 558.912 -3.613 L 558.455 -3.490 L 557.998 -3.370 L 557.922 -3.348 L 557.845 -3.327 L 557.391 -3.194 L 556.937 -3.062 L 556.862 -3.038 L 556.785 -3.016 L 556.335 -2.872 L 555.884 -2.729 L 555.809 -2.703 L 555.734 -2.679 L 555.287 -2.523 L 554.840 -2.369 L 554.766 -2.342 L 554.691 -2.316 L 554.248 -2.149 L 553.805 -1.985 L 553.731 -1.955 L 553.657 -1.927 L 553.218 -1.750 L 552.779 -1.575 L 552.706 -1.543 L 552.633 -1.514 L 552.199 -1.326 L 551.764 -1.139 L 551.692 -1.106 L 551.619 -1.075 L 551.190 -0.876 L 550.760 -0.680 L 550.689 -0.645 L 550.617 -0.611 L 550.192 -0.403 L 549.767 -0.195 L 549.697 -0.159 L 549.626 -0.124 L 549.207 0.096 L 548.787 0.314 L 548.718 0.352 L 548.647 0.389 L 548.234 0.618 L 547.820 0.846 L 547.751 0.886 L 547.682 0.925 L 547.274 1.164 L 546.865 1.402 L 546.798 1.444 L 546.729 1.484 L 546.328 1.734 L 545.925 1.982 L 545.859 2.025 L 545.791 2.067 L 545.396 2.326 L 544.999 2.584 L 544.934 2.629 L 544.868 2.672 L 544.479 2.941 L 544.089 3.209 L 544.024 3.255 L 543.959 3.300 L 543.577 3.579 L 543.194 3.856 L 543.130 3.904 L 543.066 3.950 L 542.691 4.238 L 542.315 4.524 L 542.253 4.574 L 542.190 4.622 L 541.822 4.919 L 541.452 5.215 L 541.392 5.266 L 541.330 5.315 L 540.969 5.621 L 540.607 5.926 L 540.548 5.978 L 540.487 6.029 L 540.134 6.344 L 539.780 6.657 L 539.722 6.711 L 539.662 6.764 L 539.317 7.087 L 538.971 7.409 L 538.914 7.464 L 538.856 7.518 L 538.519 7.850 L 538.180 8.180 L 538.125 8.237 L 538.068 8.293 L 537.739 8.632 L 537.409 8.971 L 537.355 9.029 L 537.300 9.086 L 536.979 9.433 L 536.657 9.780 L 536.605 9.839 L 536.551 9.898 L 536.239 10.253 L 535.926 10.607 L 535.875 10.668 L 535.822 10.728 L 535.519 11.090 L 535.215 11.452 L 535.165 11.514 L 535.114 11.575 L 534.820 11.945 L 534.524 12.315 L 534.476 12.378 L 534.427 12.440 L 534.142 12.817 L 533.856 13.194 L 533.809 13.258 L 533.761 13.321 L 533.486 13.705 L 533.209 14.089 L 533.164 14.154 L 533.118 14.219 L 532.851 14.609 L 532.584 14.999 L 532.541 15.066 L 532.496 15.131 L 532.239 15.529 L 531.982 15.925 L 531.940 15.993 L 531.897 16.059 L 531.650 16.463 L 531.402 16.865 L 531.362 16.934 L 531.321 17.002 L 350.000 321.950 L 168.679 17.002 L 168.638 16.934 L 168.598 16.865 L 168.350 16.463 L 168.103 16.059 L 168.060 15.993 L 168.018 15.925 L 167.761 15.529 L 167.504 15.131 L 167.459 15.066 L 167.416 14.999 L 167.149 14.609 L 166.882 14.219 L 166.836 14.154 L 166.791 14.089 L 166.514 13.705 L 166.239 13.321 L 166.191 13.258 L 166.144 13.194 L 165.858 12.817 L 165.573 12.440 L 165.524 12.378 L 165.476 12.315 L 165.180 11.945 L 164.886 11.575 L 164.835 11.514 L 164.785 11.452 L 164.481 11.090 L 164.178 10.728 L 164.125 10.668 L 164.074 10.607 L 163.761 10.253 L 163.449 9.898 L 163.395 9.839 L 163.343 9.780 L 163.021 9.433 L 162.700 9.086 L 162.645 9.029 L 162.591 8.971 L 162.261 8.632 L 161.932 8.293 L 161.875 8.237 L 161.820 8.180 L 161.481 7.850 L 161.144 7.518 L 161.086 7.464 L 161.029 7.409 L 160.683 7.087 L 160.338 6.764 L 160.278 6.711 L 160.220 6.657 L 159.866 6.344 L 159.513 6.029 L 159.452 5.978 L 159.393 5.926 L 159.031 5.621 L 158.670 5.315 L 158.608 5.266 L 158.548 5.215 L 158.178 4.919 L 157.810 4.622 L 157.747 4.574 L 157.685 4.524 L 157.309 4.238 L 156.934 3.950 L 156.870 3.904 L 156.806 3.856 L 156.423 3.579 L 156.041 3.300 L 155.976 3.255 L 155.911 3.209 L 155.521 2.941 L 155.132 2.672 L 155.066 2.629 L 155.001 2.584 L 154.604 2.326 L 154.209 2.067 L 154.141 2.025 L 154.075 1.982 L 153.672 1.734 L 153.271 1.484 L 153.202 1.444 L 153.135 1.402 L 152.726 1.164 L 152.318 0.925 L 152.249 0.886 L 152.180 0.846 L 151.766 0.618 L 151.353 0.389 L 151.282 0.352 L 151.213 0.314 L 150.793 0.096 L 150.374 -0.124 L 150.303 -0.159 L 150.233 -0.195 L 149.808 -0.403 L 149.383 -0.611 L 149.311 -0.645 L 149.240 -0.680 L 148.810 -0.876 L 148.381 -1.075 L 148.308 -1.106 L 148.236 -1.139 L 147.801 -1.326 L 147.367 -1.514 L 147.294 -1.543 L 147.221 -1.575 L 146.782 -1.750 L 146.343 -1.927 L 146.269 -1.955 L 146.195 -1.985 L 145.752 -2.149 L 145.309 -2.316 L 145.234 -2.342 L 145.160 -2.369 L 144.713 -2.523 L 144.266 -2.679 L 144.191 -2.703 L 144.116 -2.729 L 143.665 -2.872 L 143.215 -3.016 L 143.138 -3.038 L 143.063 -3.062 L 142.609 -3.194 L 142.155 -3.327 L 142.078 -3.348 L 142.002 -3.370 L 141.545 -3.490 L 141.088 -3.613 L 141.011 -3.631 L 140.934 -3.651 L 140.474 -3.761 L 140.014 -3.872 L 139.937 -3.888 L 139.860 -3.907 L 139.397 -4.005 L 138.935 -4.104 L 138.857 -4.119 L 138.779 -4.135 L 138.314 -4.222 L 137.850 -4.310 L 137.771 -4.323 L 137.693 -4.337 L 137.226 -4.413 L 136.760 -4.489 L 136.681 -4.500 L 136.603 -4.513 L 136.134 -4.577 L 135.666 -4.642 L 135.587 -4.651 L 135.508 -4.662 L 135.038 -4.714 L 134.569 -4.767 L 134.490 -4.775 L 134.411 -4.783 L 133.940 -4.824 L 133.469 -4.866 L 133.389 -4.871 L 133.310 -4.878 L 132.838 -4.907 L 132.367 -4.938 L 132.287 -4.941 L 132.208 -4.946 L 131.735 -4.963 L 131.263 -4.982 L 131.184 -4.984 L 131.104 -4.986 L 130.631 -4.992 L 130.159 -5.000 L 130.079 -4.999 L 130.000 -5.000 L 129.527 -4.994 L 129.054 -4.990 L 128.975 -4.987 L 128.896 -4.986 L 128.423 -4.969 L 127.950 -4.953 L 127.871 -4.949 L 127.792 -4.946 L 127.320 -4.917 L 126.848 -4.889 L 126.769 -4.883 L 126.690 -4.878 L 126.218 -4.837 L 125.747 -4.799 L 125.668 -4.790 L 125.589 -4.783 L 125.119 -4.731 L 124.649 -4.681 L 124.570 -4.670 L 124.492 -4.662 L 124.023 -4.598 L 123.554 -4.536 L 123.476 -4.524 L 123.397 -4.513 L 122.930 -4.438 L 122.463 -4.364 L 122.385 -4.350 L 122.307 -4.337 L 121.842 -4.251 L 121.377 -4.166 L 121.299 -4.150 L 121.221 -4.135 L 120.758 -4.037 L 120.295 -3.941 L 120.218 -3.923 L 120.140 -3.907 L 119.680 -3.797 L 119.220 -3.690 L 119.143 -3.670 L 119.066 -3.651 L 118.609 -3.531 L 118.151 -3.412 L 118.075 -3.390 L 117.998 -3.370 L 117.544 -3.238 L 117.089 -3.108 L 117.013 -3.084 L 116.937 -3.062 L 116.486 -2.919 L 116.035 -2.778 L 115.960 -2.753 L 115.884 -2.729 L 115.437 -2.575 L 114.989 -2.423 L 114.915 -2.395 L 114.840 -2.369 L 114.397 -2.205 L 113.953 -2.042 L 113.879 -2.012 L 113.805 -1.985 L 113.366 -1.809 L 112.926 -1.635 L 112.853 -1.604 L 112.779 -1.575 L 112.345 -1.388 L 111.909 -1.203 L 111.837 -1.171 L 111.764 -1.139 L 111.334 -0.943 L 110.904 -0.747 L 110.832 -0.713 L 110.760 -0.680 L 110.335 -0.472 L 109.909 -0.266 L 109.839 -0.230 L 109.767 -0.195 L 109.348 0.023 L 108.927 0.239 L 108.858 0.277 L 108.787 0.314 L 108.373 0.542 L 107.958 0.768 L 107.889 0.808 L 107.820 0.846 L 107.411 1.084 L 107.002 1.321 L 106.934 1.362 L 106.865 1.402 L 106.463 1.650 L 106.059 1.897 L 105.993 1.940 L 105.925 1.982 L 105.529 2.239 L 105.131 2.496 L 105.066 2.541 L 104.999 2.584 L 104.609 2.851 L 104.219 3.118 L 104.154 3.164 L 104.089 3.209 L 103.705 3.486 L 103.321 3.761 L 103.258 3.809 L 103.194 3.856 L 102.817 4.142 L 102.440 4.427 L 102.378 4.476 L 102.315 4.524 L 101.945 4.820 L 101.575 5.114 L 101.514 5.165 L 101.452 5.215 L 101.090 5.519 L 100.728 5.822 L 100.668 5.875 L 100.607 5.926 L 100.253 6.239 L 99.898 6.551 L 99.839 6.605 L 99.780 6.657 L 99.433 6.979 L 99.086 7.300 L 99.029 7.355 L 98.971 7.409 L 98.632 7.739 L 98.293 8.068 L 98.237 8.125 L 98.180 8.180 L 97.850 8.519 L 97.518 8.856 L 97.464 8.914 L 97.409 8.971 L 97.087 9.317 L 96.764 9.662 L 96.711 9.722 L 96.657 9.780 L 96.344 10.134 L 96.029 10.487 L 95.978 10.548 L 95.926 10.607 L 95.621 10.969 L 95.315 11.330 L 95.266 11.392 L 95.215 11.452 L 94.919 11.822 L 94.622 12.190 L 94.574 12.253 L 94.524 12.315 L 94.238 12.691 L 93.950 13.066 L 93.904 13.130 L 93.856 13.194 L 93.579 13.577 L 93.300 13.959 L 93.255 14.024 L 93.209 14.089 L 92.941 14.479 L 92.672 14.868 L 92.629 14.934 L 92.584 14.999 L 92.326 15.396 L 92.067 15.791 L 92.025 15.859 L 91.982 15.925 L 91.734 16.328 L 91.484 16.729 L 91.444 16.798 L 91.402 16.865 L 91.164 17.274 L 90.925 17.682 L 90.886 17.751 L 90.846 17.820 L 90.618 18.234 L 90.389 18.647 L 90.352 18.718 L 90.314 18.787 L 90.096 19.207 L 89.876 19.626 L 89.841 19.697 L 89.805 19.767 L 89.597 20.192 L 89.389 20.617 L 89.355 20.689 L 89.320 20.760 L 89.124 21.190 L 88.925 21.619 L 88.894 21.692 L 88.861 21.764 L 88.674 22.199 L 88.486 22.633 L 88.457 22.706 L 88.425 22.779 L 88.250 23.218 L 88.073 23.657 L 88.045 23.731 L 88.015 23.805 L 87.851 24.248 L 87.684 24.691 L 87.658 24.766 L 87.631 24.840 L 87.477 25.287 L 87.321 25.734 L 87.297 25.809 L 87.271 25.884 L 87.128 26.335 L 86.984 26.785 L 86.962 26.862 L 86.938 26.937 L 86.806 27.391 L 86.673 27.845 L 86.652 27.922 L 86.630 27.998 L 86.510 28.455 L 86.387 28.912 L 86.369 28.989 L 86.349 29.066 L 86.239 29.526 L 86.128 29.986 L 86.112 30.063 L 86.093 30.140 L 85.995 30.603 L 85.896 31.065 L 85.881 31.143 L 85.865 31.221 L 85.778 31.686 L 85.690 32.150 L 85.677 32.229 L 85.663 32.307 L 85.587 32.774 L 85.511 33.240 L 85.500 33.319 L 85.487 33.397 L 85.423 33.866 L 85.358 34.334 L 85.349 34.413 L 85.338 34.492 L 85.286 34.962 L 85.233 35.431 L 85.225 35.510 L 85.217 35.589 L 85.176 36.060 L 85.134 36.531 L 85.129 36.611 L 85.122 36.690 L 85.093 37.162 L 85.062 37.633 L 85.059 37.713 L 85.054 37.792 L 85.037 38.265 L 85.018 38.737 L 85.016 38.816 L 85.014 38.896 L 85.008 39.369 L 85.000 39.841 L 85.001 39.921 L 85.000 40.000 L 85.000 780.000 L 85.014 781.104 L 85.054 782.208 L 85.122 783.310 L 85.217 784.411 L 85.338 785.508 L 85.487 786.603 L 85.663 787.693 L 85.865 788.779 L 86.093 789.860 L 86.349 790.934 L 86.630 792.002 L 86.938 793.063 L 87.271 794.116 L 87.631 795.160 L 88.015 796.195 L 88.425 797.221 L 88.861 798.236 L 89.320 799.240 L 89.805 800.233 L 90.314 801.213 L 90.846 802.180 L 91.402 803.135 L 91.982 804.075 L 92.584 805.001 L 93.209 805.911 L 93.856 806.806 L 94.524 807.685 L 95.215 808.548 L 95.926 809.393 L 96.657 810.220 L 97.409 811.029 L 98.180 811.820 L 98.971 812.591 L 99.780 813.343 L 100.607 814.074 L 101.452 814.785 L 102.315 815.476 L 103.194 816.144 L 104.089 816.791 L 104.999 817.416 L 105.925 818.018 L 106.865 818.598 L 107.820 819.154 L 108.787 819.686 L 109.767 820.195 L 110.760 820.680 L 111.764 821.139 L 112.779 821.575 L 113.805 821.985 L 114.840 822.369 L 115.884 822.729 L 116.937 823.062 L 117.998 823.370 L 119.066 823.651 L 120.140 823.907 L 121.221 824.135 L 122.307 824.337 L 123.397 824.513 L 124.492 824.662 L 125.589 824.783 L 126.690 824.878 L 127.792 824.946 L 128.896 824.986 L 130.000 825.000 L 131.104 824.986 L 132.208 824.946 L 133.310 824.878 L 134.411 824.783 L 135.508 824.662 L 136.603 824.513 L 137.693 824.337 L 138.779 824.135 L 139.860 823.907 L 140.934 823.651 L 142.002 823.370 L 143.063 823.062 L 144.116 822.729 L 145.160 822.369 L 146.195 821.985 L 147.221 821.575 L 148.236 821.139 L 149.240 820.680 L 150.233 820.195 L 151.213 819.686 L 152.180 819.154 L 153.135 818.598 L 154.075 818.018 L 155.001 817.416 L 155.911 816.791 L 156.806 816.144 L 157.685 815.476 L 158.548 814.785 L 159.393 814.074 L 160.220 813.343 L 161.029 812.591 L 161.820 811.820 L 162.591 811.029 L 163.343 810.220 L 164.074 809.393 L 164.785 808.548 L 165.476 807.685 L 166.144 806.806 L 166.791 805.911 L 167.416 805.001 L 168.018 804.075 L 168.598 803.135 L 169.154 802.180 L 169.686 801.213 L 170.195 800.233 L 170.680 799.240 L 171.139 798.236 L 171.575 797.221 L 171.985 796.195 L 172.369 795.160 L 172.729 794.116 L 173.062 793.063 L 173.370 792.002 L 173.651 790.934 L 173.907 789.860 L 174.135 788.779 L 174.337 787.693 L 174.513 786.603 L 174.662 785.508 L 174.783 784.411 L 174.878 783.310 L 174.946 782.208 L 174.986 781.104 L 175.000 780.000 L 175.000 203.731 L 311.321 432.998 L 311.899 433.944 Z" fill="black" fill-rule="evenodd"/>
</svg>
