<svg xmlns="http://www.w3.org/2000/svg" viewBox="0 0 700.000 1000" width="700.000" height="1000">
  <path d="M 563.957 615.469 L 563.906 611.285 L 563.879 610.190 L 563.727 606.009 L 563.673 604.915 L 563.419 600.739 L 563.339 599.647 L 562.983 595.478 L 562.877 594.389 L 562.420 590.230 L 562.287 589.143 L 561.729 584.996 L 561.570 583.913 L 560.911 579.782 L 560.726 578.703 L 559.967 574.589 L 559.755 573.514 L 558.896 569.421 L 558.658 568.351 L 557.700 564.280 L 557.436 563.217 L 556.379 559.170 L 556.089 558.113 L 554.934 554.095 L 554.619 553.045 L 553.366 549.056 L 553.025 548.014 L 551.676 544.057 L 551.310 543.023 L 549.865 539.101 L 549.473 538.076 L 547.933 534.191 L 547.517 533.176 L 545.883 529.330 L 545.441 528.325 L 543.714 524.520 L 543.248 523.526 L 541.429 519.765 L 540.939 518.782 L 539.029 515.068 L 538.515 514.097 L 536.516 510.431 L 535.977 509.473 L 533.889 505.857 L 533.328 504.912 L 531.152 501.349 L 530.568 500.417 L 528.306 496.910 L 527.699 495.992 L 525.353 492.542 L 524.722 491.639 L 522.293 488.247 L 521.641 487.360 L 519.130 484.030 L 518.456 483.158 L 515.865 479.891 L 515.169 479.036 L 512.499 475.834 L 511.783 474.996 L 509.036 471.861 L 508.298 471.040 L 505.476 467.974 L 504.718 467.171 L 501.822 464.176 L 501.045 463.392 L 498.077 460.469 L 497.280 459.704 L 494.242 456.856 L 493.426 456.110 L 490.320 453.338 L 489.486 452.612 L 486.313 449.918 L 485.461 449.212 L 482.223 446.598 L 481.354 445.913 L 478.053 443.379 L 477.167 442.716 L 473.806 440.264 L 472.903 439.623 L 469.484 437.255 L 468.565 436.636 L 465.089 434.354 L 464.155 433.757 L 460.624 431.562 L 459.675 430.988 L 456.093 428.881 L 455.129 428.330 L 451.496 426.312 L 450.519 425.785 L 446.839 423.858 L 445.849 423.355 L 442.122 421.520 L 441.120 421.042 L 437.349 419.299 L 436.335 418.845 L 432.524 417.197 L 431.498 416.768 L 427.648 415.214 L 426.612 414.811 L 422.725 413.353 L 421.679 412.975 L 417.757 411.614 L 416.702 411.262 L 412.749 409.998 L 411.685 409.673 L 407.702 408.507 L 406.630 408.208 L 402.620 407.141 L 401.541 406.869 L 397.506 405.902 L 396.420 405.656 L 392.364 404.789 L 391.272 404.570 L 387.195 403.804 L 386.098 403.612 L 382.004 402.947 L 380.902 402.782 L 376.793 402.219 L 375.687 402.081 L 371.566 401.620 L 370.457 401.510 L 366.325 401.151 L 365.214 401.068 L 361.075 400.812 L 359.962 400.756 L 355.818 400.602 L 354.704 400.575 L 350.557 400.523 L 349.443 400.523 L 345.296 400.575 L 344.182 400.602 L 340.038 400.756 L 338.925 400.812 L 334.786 401.068 L 333.675 401.151 L 329.543 401.510 L 328.434 401.620 L 324.313 402.081 L 323.207 402.219 L 319.098 402.782 L 317.996 402.947 L 313.902 403.612 L 312.805 403.804 L 308.728 404.570 L 307.636 404.789 L 303.580 405.656 L 302.494 405.902 L 298.459 406.869 L 297.380 407.141 L 293.370 408.208 L 292.298 408.507 L 288.315 409.673 L 287.251 409.998 L 283.298 411.262 L 282.243 411.614 L 278.321 412.975 L 277.275 413.353 L 273.388 414.811 L 272.352 415.214 L 268.502 416.768 L 267.476 417.197 L 263.665 418.845 L 262.651 419.299 L 258.880 421.042 L 257.878 421.520 L 254.151 423.355 L 253.161 423.858 L 249.481 425.785 L 248.504 426.312 L 244.871 428.330 L 243.907 428.881 L 240.325 430.988 L 239.376 431.562 L 235.845 433.757 L 234.911 434.354 L 231.435 436.636 L 230.516 437.255 L 227.097 439.623 L 226.194 440.264 L 222.833 442.716 L 221.947 443.379 L 218.646 445.913 L 217.777 446.598 L 214.539 449.212 L 213.687 449.918 L 210.514 452.612 L 209.680 453.338 L 206.574 456.110 L 205.758 456.856 L 202.720 459.704 L 201.923 460.469 L 198.955 463.392 L 198.178 464.176 L 195.282 467.171 L 194.524 467.974 L 191.702 471.040 L 190.964 471.861 L 188.217 474.996 L 187.501 475.834 L 184.831 479.036 L 184.135 479.891 L 181.544 483.158 L 180.870 484.030 L 178.359 487.360 L 177.707 488.247 L 175.278 491.639 L 174.647 492.542 L 172.301 495.992 L 171.694 496.910 L 169.432 500.417 L 168.848 501.349 L 166.672 504.912 L 166.111 505.857 L 164.023 509.473 L 163.484 510.431 L 161.485 514.097 L 160.971 515.068 L 159.061 518.782 L 158.571 519.765 L 156.752 523.526 L 156.286 524.520 L 154.559 528.325 L 154.117 529.330 L 152.483 533.176 L 152.067 534.191 L 150.527 538.076 L 150.135 539.101 L 148.690 543.023 L 148.324 544.057 L 146.975 548.014 L 146.634 549.056 L 145.381 553.045 L 145.066 554.095 L 143.911 558.113 L 143.621 559.170 L 142.564 563.217 L 142.300 564.280 L 141.342 568.351 L 141.104 569.421 L 140.245 573.514 L 140.033 574.589 L 139.274 578.703 L 139.089 579.782 L 138.430 583.913 L 138.271 584.996 L 137.713 589.143 L 137.580 590.230 L 137.123 594.389 L 137.017 595.478 L 136.661 599.647 L 136.581 600.739 L 136.327 604.915 L 136.273 606.009 L 136.121 610.190 L 136.094 611.285 L 136.043 615.469 L 136.043 616.563 L 136.094 620.747 L 136.121 621.842 L 136.273 626.023 L 136.327 627.117 L 136.581 631.293 L 136.661 632.385 L 137.017 636.554 L 137.123 637.643 L 137.580 641.802 L 137.713 642.889 L 138.271 647.036 L 138.430 648.119 L 139.089 652.250 L 139.274 653.329 L 140.033 657.443 L 140.245 658.518 L 141.104 662.611 L 141.342 663.681 L 142.300 667.752 L 142.564 668.815 L 143.621 672.862 L 143.911 673.919 L 145.066 677.937 L 145.381 678.987 L 146.634 682.976 L 146.975 684.018 L 148.324 687.975 L 148.690 689.009 L 150.135 692.931 L 150.527 693.956 L 152.067 697.841 L 152.483 698.856 L 154.117 702.702 L 154.559 703.707 L 156.286 707.512 L 156.752 708.506 L 158.571 712.267 L 159.061 713.250 L 160.971 716.964 L 161.485 717.935 L 163.484 721.601 L 164.023 722.559 L 166.111 726.175 L 166.672 727.120 L 168.848 730.683 L 169.432 731.615 L 171.694 735.122 L 172.301 736.040 L 174.647 739.490 L 175.278 740.393 L 177.707 743.785 L 178.359 744.672 L 180.870 748.002 L 181.544 748.874 L 184.135 752.141 L 184.831 752.996 L 187.501 756.198 L 188.217 757.036 L 190.964 760.171 L 191.702 760.992 L 194.524 764.058 L 195.282 764.861 L 198.178 767.856 L 198.955 768.640 L 201.923 771.563 L 202.720 772.328 L 205.758 775.176 L 206.574 775.922 L 209.680 778.694 L 210.514 779.420 L 213.687 782.114 L 214.539 782.820 L 217.777 785.434 L 218.646 786.119 L 221.947 788.653 L 222.833 789.316 L 226.194 791.768 L 227.097 792.409 L 230.516 794.777 L 231.435 795.396 L 234.911 797.678 L 235.845 798.275 L 239.376 800.470 L 240.325 801.044 L 243.907 803.151 L 244.871 803.702 L 248.504 805.720 L 249.481 806.247 L 253.161 808.174 L 254.151 808.677 L 257.878 810.512 L 258.880 810.990 L 262.651 812.733 L 263.665 813.187 L 267.476 814.835 L 268.502 815.264 L 272.352 816.818 L 273.388 817.221 L 277.275 818.679 L 278.321 819.057 L 282.243 820.418 L 283.298 820.770 L 287.251 822.034 L 288.315 822.359 L 292.298 823.525 L 293.370 823.824 L 297.380 824.891 L 298.459 825.163 L 302.494 826.130 L 303.580 826.376 L 307.636 827.243 L 308.728 827.462 L 312.805 828.228 L 313.902 828.420 L 317.996 829.085 L 319.098 829.250 L 323.207 829.813 L 324.313 829.951 L 328.434 830.412 L 329.543 830.522 L 333.675 830.881 L 334.786 830.964 L 338.925 831.220 L 340.038 831.276 L 344.182 831.430 L 345.296 831.457 L 349.443 831.509 L 350.557 831.509 L 354.704 831.457 L 355.818 831.430 L 359.962 831.276 L 361.075 831.220 L 365.214 830.964 L 366.325 830.881 L 370.457 830.522 L 371.566 830.412 L 375.687 829.951 L 376.793 829.813 L 380.902 829.250 L 382.004 829.085 L 386.098 828.420 L 387.195 828.228 L 391.272 827.462 L 392.364 827.243 L 396.420 826.376 L 397.506 826.130 L 401.541 825.163 L 402.620 824.891 L 406.630 823.824 L 407.702 823.525 L 411.685 822.359 L 412.749 822.034 L 416.702 820.770 L 417.757 820.418 L 421.679 819.057 L 422.725 818.679 L 426.612 817.221 L 427.648 816.818 L 431.498 815.264 L 432.524 814.835 L 436.335 813.187 L 437.349 812.733 L 441.120 810.990 L 442.122 810.512 L 445.849 808.677 L 446.839 808.174 L 450.519 806.247 L 451.496 805.720 L 455.129 803.702 L 456.093 803.151 L 459.675 801.044 L 460.624 800.470 L 464.155 798.275 L 465.089 797.678 L 468.565 795.396 L 469.484 794.777 L 472.903 792.409 L 473.806 791.768 L 477.167 789.316 L 478.053 788.653 L 481.354 786.119 L 482.223 785.434 L 485.461 782.820 L 486.313 782.114 L 489.486 779.420 L 490.320 778.694 L 493.426 775.922 L 494.242 775.176 L 497.280 772.328 L 498.077 771.563 L 501.045 768.640 L 501.822 767.856 L 504.718 764.861 L 505.476 764.058 L 508.298 760.992 L 509.036 760.171 L 511.783 757.036 L 512.499 756.198 L 515.169 752.996 L 515.865 752.141 L 518.456 748.874 L 519.130 748.002 L 521.641 744.672 L 522.293 743.785 L 524.722 740.393 L 525.353 739.490 L 527.699 736.040 L 528.306 735.122 L 530.568 731.615 L 531.152 730.683 L 533.328 727.120 L 533.889 726.175 L 535.977 722.559 L 536.516 721.601 L 538.515 717.935 L 539.029 716.964 L 540.939 713.250 L 541.429 712.267 L 543.248 708.506 L 543.714 707.512 L 545.441 703.707 L 545.883 702.702 L 547.517 698.856 L 547.933 697.841 L 549.473 693.956 L 549.865 692.931 L 551.310 689.009 L 551.676 687.975 L 553.025 684.018 L 553.366 682.976 L 554.619 678.987 L 554.934 677.937 L 556.089 673.919 L 556.379 672.862 L 557.436 668.815 L 557.700 667.752 L 558.658 663.681 L 558.896 662.611 L 559.755 658.518 L 559.967 657.443 L 560.726 653.329 L 560.911 652.250 L 561.570 648.119 L 561.729 647.036 L 562.287 642.889 L 562.420 641.802 L 562.877 637.643 L 562.983 636.554 L 563.339 632.385 L 563.419 631.293 L 563.673 627.117 L 563.727 626.023 L 563.879 621.842 L 563.906 620.747 L 563.957 616.563 L 563.957 615.469 Z M 473.919 619.106 L 473.806 622.193 L 473.619 625.277 L 473.356 628.356 L 473.018 631.427 L 472.606 634.488 L 472.120 637.538 L 471.560 640.575 L 470.926 643.596 L 470.219 646.601 L 469.439 649.587 L 468.587 652.552 L 467.663 655.496 L 466.667 658.414 L 465.602 661.307 L 464.466 664.173 L 463.262 667.008 L 461.989 669.813 L 460.648 672.585 L 459.241 675.322 L 457.767 678.023 L 456.229 680.686 L 454.627 683.310 L 452.962 685.892 L 451.235 688.432 L 449.447 690.928 L 447.600 693.379 L 445.694 695.782 L 443.730 698.137 L 441.710 700.442 L 439.635 702.696 L 437.507 704.897 L 435.326 707.044 L 433.094 709.136 L 430.813 711.172 L 428.483 713.150 L 426.106 715.070 L 423.684 716.929 L 421.219 718.728 L 418.710 720.464 L 416.161 722.138 L 413.572 723.747 L 410.946 725.292 L 408.283 726.771 L 405.586 728.183 L 402.856 729.528 L 400.094 730.804 L 397.303 732.011 L 394.483 733.149 L 391.638 734.217 L 388.767 735.213 L 385.874 736.138 L 382.960 736.991 L 380.026 737.771 L 377.074 738.479 L 374.106 739.113 L 371.124 739.673 L 368.130 740.159 L 365.124 740.571 L 362.110 740.908 L 359.089 741.171 L 356.062 741.358 L 353.032 741.471 L 350.000 741.509 L 346.968 741.471 L 343.938 741.358 L 340.911 741.171 L 337.890 740.908 L 334.876 740.571 L 331.870 740.159 L 328.876 739.673 L 325.894 739.113 L 322.926 738.479 L 319.974 737.771 L 317.040 736.991 L 314.126 736.138 L 311.233 735.213 L 308.362 734.217 L 305.517 733.149 L 302.697 732.011 L 299.906 730.804 L 297.144 729.528 L 294.414 728.183 L 291.717 726.771 L 289.054 725.292 L 286.428 723.747 L 283.839 722.138 L 281.290 720.464 L 278.781 718.728 L 276.316 716.929 L 273.894 715.070 L 271.517 713.150 L 269.187 711.172 L 266.906 709.136 L 264.674 707.044 L 262.493 704.897 L 260.365 702.696 L 258.290 700.442 L 256.270 698.137 L 254.306 695.782 L 252.400 693.379 L 250.553 690.928 L 248.765 688.432 L 247.038 685.892 L 245.373 683.310 L 243.771 680.686 L 242.233 678.023 L 240.759 675.322 L 239.352 672.585 L 238.011 669.813 L 236.738 667.008 L 235.534 664.173 L 234.398 661.307 L 233.333 658.414 L 232.337 655.496 L 231.413 652.552 L 230.561 649.587 L 229.781 646.601 L 229.074 643.596 L 228.440 640.575 L 227.880 637.538 L 227.394 634.488 L 226.982 631.427 L 226.644 628.356 L 226.381 625.277 L 226.194 622.193 L 226.081 619.106 L 226.043 616.016 L 226.081 612.926 L 226.194 609.839 L 226.381 606.755 L 226.644 603.676 L 226.982 600.605 L 227.394 597.544 L 227.880 594.494 L 228.440 591.457 L 229.074 588.436 L 229.781 585.431 L 230.561 582.445 L 231.413 579.480 L 232.337 576.536 L 233.333 573.618 L 234.398 570.725 L 235.534 567.859 L 236.738 565.024 L 238.011 562.219 L 239.352 559.447 L 240.759 556.710 L 242.233 554.009 L 243.771 551.346 L 245.373 548.722 L 247.038 546.140 L 248.765 543.600 L 250.553 541.104 L 252.400 538.653 L 254.306 536.250 L 256.270 533.895 L 258.290 531.590 L 260.365 529.336 L 262.493 527.135 L 264.674 524.988 L 266.906 522.896 L 269.187 520.860 L 271.517 518.882 L 273.894 516.962 L 276.316 515.103 L 278.781 513.304 L 281.290 511.568 L 283.839 509.894 L 286.428 508.285 L 289.054 506.740 L 291.717 505.261 L 294.414 503.849 L 297.144 502.504 L 299.906 501.228 L 302.697 500.021 L 305.517 498.883 L 308.362 497.815 L 311.233 496.819 L 314.126 495.894 L 317.040 495.041 L 319.974 494.261 L 322.926 493.553 L 325.894 492.919 L 328.876 492.359 L 331.870 491.873 L 334.876 491.461 L 337.890 491.124 L 340.911 490.861 L 343.938 490.674 L 346.968 490.561 L 350.000 490.523 L 353.032 490.561 L 356.062 490.674 L 359.089 490.861 L 362.110 491.124 L 365.124 491.461 L 368.130 491.873 L 371.124 492.359 L 374.106 492.919 L 377.074 493.553 L 380.026 494.261 L 382.960 495.041 L 385.874 495.894 L 388.767 496.819 L 391.638 497.815 L 394.483 498.883 L 397.303 500.021 L 400.094 501.228 L 402.856 502.504 L 405.586 503.849 L 408.283 505.261 L 410.946 506.740 L 413.572 508.285 L 416.161 509.894 L 418.710 511.568 L 421.219 513.304 L 423.684 515.103 L 426.106 516.962 L 428.483 518.882 L 430.813 520.860 L 433.094 522.896 L 435.326 524.988 L 437.507 527.135 L 439.635 529.336 L 441.710 531.590 L 443.730 533.895 L 445.694 536.250 L 447.600 538.653 L 449.447 541.104 L 451.235 543.600 L 452.962 546.140 L 454.627 548.722 L 456.229 551.346 L 457.767 554.009 L 459.241 556.710 L 460.648 559.447 L 461.989 562.219 L 463.262 565.024 L 464.466 567.859 L 465.602 570.725 L 466.667 573.618 L 467.663 576.536 L 468.587 579.480 L 469.439 582.445 L 470.219 585.431 L 470.926 588.436 L 471.560 591.457 L 472.120 594.494 L 472.606 597.544 L 473.018 600.605 L 473.356 603.676 L 473.619 606.755 L 473.806 609.839 L 473.919 612.926 L 473.957 616.016 L 473.919 619.106 Z M 544.757 203.430 L 544.711 199.768 L 544.684 198.660 L 544.549 195.001 L 544.494 193.894 L 544.269 190.239 L 544.187 189.134 L 543.872 185.486 L 543.763 184.382 L 543.357 180.743 L 543.221 179.643 L 542.727 176.015 L 542.563 174.919 L 541.979 171.304 L 541.789 170.212 L 541.116 166.612 L 540.899 165.525 L 540.138 161.943 L 539.894 160.862 L 539.045 157.300 L 538.775 156.225 L 537.838 152.684 L 537.542 151.617 L 536.518 148.100 L 536.195 147.040 L 535.085 143.550 L 534.736 142.498 L 533.541 139.036 L 533.166 137.993 L 531.885 134.561 L 531.486 133.529 L 530.121 130.129 L 529.696 129.106 L 528.247 125.741 L 527.797 124.729 L 526.267 121.401 L 525.792 120.400 L 524.180 117.110 L 523.680 116.122 L 521.988 112.872 L 521.464 111.897 L 519.692 108.689 L 519.145 107.727 L 517.294 104.564 L 516.724 103.616 L 514.796 100.498 L 514.202 99.565 L 512.198 96.496 L 511.582 95.577 L 509.502 92.558 L 508.864 91.655 L 506.711 88.688 L 506.050 87.801 L 503.825 84.887 L 503.143 84.017 L 500.846 81.158 L 500.143 80.305 L 497.777 77.503 L 497.054 76.668 L 494.619 73.925 L 493.875 73.108 L 491.374 70.425 L 490.611 69.627 L 488.044 67.006 L 487.261 66.227 L 484.630 63.670 L 483.829 62.910 L 481.136 60.418 L 480.317 59.678 L 477.563 57.252 L 476.726 56.533 L 473.914 54.176 L 473.059 53.477 L 470.190 51.189 L 469.319 50.512 L 466.393 48.295 L 465.506 47.640 L 462.527 45.495 L 461.624 44.861 L 458.593 42.790 L 457.675 42.179 L 454.594 40.182 L 453.662 39.594 L 450.533 37.673 L 449.586 37.108 L 446.411 35.264 L 445.451 34.723 L 442.231 32.957 L 441.258 32.439 L 437.995 30.753 L 437.010 30.259 L 433.707 28.653 L 432.710 28.183 L 429.369 26.659 L 428.361 26.214 L 424.983 24.771 L 423.964 24.351 L 420.552 22.991 L 419.524 22.596 L 416.078 21.321 L 415.041 20.951 L 411.566 19.760 L 410.520 19.416 L 407.016 18.310 L 405.962 17.992 L 402.432 16.972 L 401.371 16.679 L 397.816 15.746 L 396.748 15.480 L 393.172 14.634 L 392.098 14.393 L 388.502 13.635 L 387.423 13.421 L 383.809 12.751 L 382.725 12.563 L 379.096 11.982 L 378.008 11.821 L 374.365 11.328 L 373.273 11.194 L 369.620 10.790 L 368.525 10.683 L 364.863 10.369 L 363.766 10.288 L 360.097 10.064 L 358.998 10.010 L 355.325 9.875 L 354.225 9.848 L 350.550 9.803 L 349.450 9.803 L 345.775 9.848 L 344.675 9.875 L 341.002 10.010 L 339.903 10.064 L 336.234 10.288 L 335.137 10.369 L 331.475 10.683 L 330.380 10.790 L 326.727 11.194 L 325.635 11.328 L 321.992 11.821 L 320.904 11.982 L 317.275 12.563 L 316.191 12.751 L 312.577 13.421 L 311.498 13.635 L 307.902 14.393 L 306.828 14.634 L 303.252 15.480 L 302.184 15.746 L 298.629 16.679 L 297.568 16.972 L 294.038 17.992 L 292.984 18.310 L 289.480 19.416 L 288.434 19.760 L 284.959 20.951 L 283.922 21.321 L 280.476 22.596 L 279.448 22.991 L 276.036 24.351 L 275.017 24.771 L 271.639 26.214 L 270.631 26.659 L 267.290 28.183 L 266.293 28.653 L 262.990 30.259 L 262.005 30.753 L 258.742 32.439 L 257.769 32.957 L 254.549 34.723 L 253.589 35.264 L 250.414 37.108 L 249.467 37.673 L 246.338 39.594 L 245.406 40.182 L 242.325 42.179 L 241.407 42.790 L 238.376 44.861 L 237.473 45.495 L 234.494 47.640 L 233.607 48.295 L 230.681 50.512 L 229.810 51.189 L 226.941 53.477 L 226.086 54.176 L 223.274 56.533 L 222.437 57.252 L 219.683 59.678 L 218.864 60.418 L 216.171 62.910 L 215.370 63.670 L 212.739 66.227 L 211.956 67.006 L 209.389 69.627 L 208.626 70.425 L 206.125 73.108 L 205.381 73.925 L 202.946 76.668 L 202.223 77.503 L 199.857 80.305 L 199.154 81.158 L 196.857 84.017 L 196.175 84.887 L 193.950 87.801 L 193.289 88.688 L 191.136 91.655 L 190.498 92.558 L 188.418 95.577 L 187.802 96.496 L 185.798 99.565 L 185.204 100.498 L 183.276 103.616 L 182.706 104.564 L 180.855 107.727 L 180.308 108.689 L 178.536 111.897 L 178.012 112.872 L 176.320 116.122 L 175.820 117.110 L 174.208 120.400 L 173.733 121.401 L 172.203 124.729 L 171.753 125.741 L 170.304 129.106 L 169.879 130.129 L 168.514 133.529 L 168.115 134.561 L 166.834 137.993 L 166.459 139.036 L 165.264 142.498 L 164.915 143.550 L 163.805 147.040 L 163.482 148.100 L 162.458 151.617 L 162.162 152.684 L 161.225 156.225 L 160.955 157.300 L 160.106 160.862 L 159.862 161.943 L 159.101 165.525 L 158.884 166.612 L 158.211 170.212 L 158.021 171.304 L 157.437 174.919 L 157.273 176.015 L 156.779 179.643 L 156.643 180.743 L 156.237 184.382 L 156.128 185.486 L 155.813 189.134 L 155.731 190.239 L 155.506 193.894 L 155.451 195.001 L 155.316 198.660 L 155.289 199.768 L 155.243 203.430 L 155.243 204.538 L 155.289 208.200 L 155.316 209.308 L 155.451 212.967 L 155.506 214.074 L 155.731 217.729 L 155.813 218.834 L 156.128 222.482 L 156.237 223.586 L 156.643 227.225 L 156.779 228.325 L 157.273 231.953 L 157.437 233.049 L 158.021 236.664 L 158.211 237.756 L 158.884 241.356 L 159.101 242.443 L 159.862 246.025 L 160.106 247.106 L 160.955 250.668 L 161.225 251.743 L 162.162 255.284 L 162.458 256.351 L 163.482 259.868 L 163.805 260.928 L 164.915 264.418 L 165.264 265.470 L 166.459 268.932 L 166.834 269.975 L 168.115 273.407 L 168.514 274.439 L 169.879 277.839 L 170.304 278.862 L 171.753 282.227 L 172.203 283.239 L 173.733 286.567 L 174.208 287.568 L 175.820 290.858 L 176.320 291.846 L 178.012 295.096 L 178.536 296.071 L 180.308 299.279 L 180.855 300.241 L 182.706 303.404 L 183.276 304.352 L 185.204 307.470 L 185.798 308.403 L 187.802 311.472 L 188.418 312.391 L 190.498 315.410 L 191.136 316.313 L 193.289 319.280 L 193.950 320.167 L 196.175 323.081 L 196.857 323.951 L 199.154 326.810 L 199.857 327.663 L 202.223 330.465 L 202.946 331.300 L 205.381 334.043 L 206.125 334.860 L 208.626 337.543 L 209.389 338.341 L 211.956 340.962 L 212.739 341.741 L 215.370 344.298 L 216.171 345.058 L 218.864 347.550 L 219.683 348.290 L 222.437 350.716 L 223.274 351.435 L 226.086 353.792 L 226.941 354.491 L 229.810 356.779 L 230.681 357.456 L 233.607 359.673 L 234.494 360.328 L 237.473 362.473 L 238.376 363.107 L 241.407 365.178 L 242.325 365.789 L 245.406 367.786 L 246.338 368.374 L 249.467 370.295 L 250.414 370.860 L 253.589 372.704 L 254.549 373.245 L 257.769 375.011 L 258.742 375.529 L 262.005 377.215 L 262.990 377.709 L 266.293 379.315 L 267.290 379.785 L 270.631 381.309 L 271.639 381.754 L 275.017 383.197 L 276.036 383.617 L 279.448 384.977 L 280.476 385.372 L 283.922 386.647 L 284.959 387.017 L 288.434 388.208 L 289.480 388.552 L 292.984 389.658 L 294.038 389.976 L 297.568 390.996 L 298.629 391.289 L 302.184 392.222 L 303.252 392.488 L 306.828 393.334 L 307.902 393.575 L 311.498 394.333 L 312.577 394.547 L 316.191 395.217 L 317.275 395.405 L 320.904 395.986 L 321.992 396.147 L 325.635 396.640 L 326.727 396.774 L 330.380 397.178 L 331.475 397.285 L 335.137 397.599 L 336.234 397.680 L 339.903 397.904 L 341.002 397.958 L 344.675 398.093 L 345.775 398.120 L 349.450 398.165 L 350.550 398.165 L 354.225 398.120 L 355.325 398.093 L 358.998 397.958 L 360.097 397.904 L 363.766 397.680 L 364.863 397.599 L 368.525 397.285 L 369.620 397.178 L 373.273 396.774 L 374.365 396.640 L 378.008 396.147 L 379.096 395.986 L 382.725 395.405 L 383.809 395.217 L 387.423 394.547 L 388.502 394.333 L 392.098 393.575 L 393.172 393.334 L 396.748 392.488 L 397.816 392.222 L 401.371 391.289 L 402.432 390.996 L 405.962 389.976 L 407.016 389.658 L 410.520 388.552 L 411.566 388.208 L 415.041 387.017 L 416.078 386.647 L 419.524 385.372 L 420.552 384.977 L 423.964 383.617 L 424.983 383.197 L 428.361 381.754 L 429.369 381.309 L 432.710 379.785 L 433.707 379.315 L 437.010 377.709 L 437.995 377.215 L 441.258 375.529 L 442.231 375.011 L 445.451 373.245 L 446.411 372.704 L 449.586 370.860 L 450.533 370.295 L 453.662 368.374 L 454.594 367.786 L 457.675 365.789 L 458.593 365.178 L 461.624 363.107 L 462.527 362.473 L 465.506 360.328 L 466.393 359.673 L 469.319 357.456 L 470.190 356.779 L 473.059 354.491 L 473.914 353.792 L 476.726 351.435 L 477.563 350.716 L 480.317 348.290 L 481.136 347.550 L 483.829 345.058 L 484.630 344.298 L 487.261 341.741 L 488.044 340.962 L 490.611 338.341 L 491.374 337.543 L 493.875 334.860 L 494.619 334.043 L 497.054 331.300 L 497.777 330.465 L 500.143 327.663 L 500.846 326.810 L 503.143 323.951 L 503.825 323.081 L 506.050 320.167 L 506.711 319.280 L 508.864 316.313 L 509.502 315.410 L 511.582 312.391 L 512.198 311.472 L 514.202 308.403 L 514.796 307.470 L 516.724 304.352 L 517.294 303.404 L 519.145 300.241 L 519.692 299.279 L 521.464 296.071 L 521.988 295.096 L 523.680 291.846 L 524.180 290.858 L 525.792 287.568 L 526.267 286.567 L 527.797 283.239 L 528.247 282.227 L 529.696 278.862 L 530.121 277.839 L 531.486 274.439 L 531.885 273.407 L 533.166 269.975 L 533.541 268.932 L 534.736 265.470 L 535.085 264.418 L 536.195 260.928 L 536.518 259.868 L 537.542 256.351 L 537.838 255.284 L 538.775 251.743 L 539.045 250.668 L 539.894 247.106 L 540.138 246.025 L 540.899 242.443 L 541.116 241.356 L 541.789 237.756 L 541.979 236.664 L 542.563 233.049 L 542.727 231.953 L 543.221 228.325 L 543.357 227.225 L 543.763 223.586 L 543.872 222.482 L 544.187 218.834 L 544.269 217.729 L 544.494 214.074 L 544.549 212.967 L 544.684 209.308 L 544.711 208.200 L 544.757 204.538 L 544.757 203.430 Z M 454.725 206.536 L 454.631 209.087 L 454.474 211.635 L 454.254 214.179 L 453.971 216.716 L 453.626 219.246 L 453.219 221.766 L 452.750 224.276 L 452.219 226.774 L 451.627 229.258 L 450.974 231.727 L 450.260 234.180 L 449.486 236.614 L 448.652 239.030 L 447.758 241.424 L 446.806 243.795 L 445.796 246.144 L 444.728 248.466 L 443.603 250.763 L 442.421 253.031 L 441.184 255.270 L 439.892 257.478 L 438.546 259.654 L 437.147 261.797 L 435.694 263.905 L 434.191 265.978 L 432.636 268.013 L 431.032 270.010 L 429.379 271.967 L 427.678 273.884 L 425.929 275.758 L 424.135 277.590 L 422.297 279.377 L 420.414 281.119 L 418.489 282.815 L 416.523 284.463 L 414.516 286.063 L 412.470 287.613 L 410.386 289.114 L 408.266 290.563 L 406.111 291.960 L 403.921 293.303 L 401.699 294.594 L 399.445 295.829 L 397.162 297.009 L 394.850 298.134 L 392.510 299.201 L 390.145 300.211 L 387.756 301.163 L 385.343 302.056 L 382.909 302.890 L 380.455 303.665 L 377.983 304.379 L 375.493 305.033 L 372.988 305.625 L 370.469 306.156 L 367.938 306.626 L 365.396 307.033 L 362.844 307.379 L 360.285 307.661 L 357.719 307.881 L 355.149 308.039 L 352.575 308.133 L 350.000 308.165 L 347.425 308.133 L 344.851 308.039 L 342.281 307.881 L 339.715 307.661 L 337.156 307.379 L 334.604 307.033 L 332.062 306.626 L 329.531 306.156 L 327.012 305.625 L 324.507 305.033 L 322.017 304.379 L 319.545 303.665 L 317.091 302.890 L 314.657 302.056 L 312.244 301.163 L 309.855 300.211 L 307.490 299.201 L 305.150 298.134 L 302.838 297.009 L 300.555 295.829 L 298.301 294.594 L 296.079 293.303 L 293.889 291.960 L 291.734 290.563 L 289.614 289.114 L 287.530 287.613 L 285.484 286.063 L 283.477 284.463 L 281.511 282.815 L 279.586 281.119 L 277.703 279.377 L 275.865 277.590 L 274.071 275.758 L 272.322 273.884 L 270.621 271.967 L 268.968 270.010 L 267.364 268.013 L 265.809 265.978 L 264.306 263.905 L 262.853 261.797 L 261.454 259.654 L 260.108 257.478 L 258.816 255.270 L 257.579 253.031 L 256.397 250.763 L 255.272 248.466 L 254.204 246.144 L 253.194 243.795 L 252.242 241.424 L 251.348 239.030 L 250.514 236.614 L 249.740 234.180 L 249.026 231.727 L 248.373 229.258 L 247.781 226.774 L 247.250 224.276 L 246.781 221.766 L 246.374 219.246 L 246.029 216.716 L 245.746 214.179 L 245.526 211.635 L 245.369 209.087 L 245.275 206.536 L 245.243 203.984 L 245.275 201.432 L 245.369 198.881 L 245.526 196.333 L 245.746 193.789 L 246.029 191.252 L 246.374 188.722 L 246.781 186.202 L 247.250 183.692 L 247.781 181.194 L 248.373 178.710 L 249.026 176.241 L 249.740 173.788 L 250.514 171.354 L 251.348 168.938 L 252.242 166.544 L 253.194 164.173 L 254.204 161.824 L 255.272 159.502 L 256.397 157.205 L 257.579 154.937 L 258.816 152.698 L 260.108 150.490 L 261.454 148.314 L 262.853 146.171 L 264.306 144.063 L 265.809 141.990 L 267.364 139.955 L 268.968 137.958 L 270.621 136.001 L 272.322 134.084 L 274.071 132.210 L 275.865 130.378 L 277.703 128.591 L 279.586 126.849 L 281.511 125.153 L 283.477 123.505 L 285.484 121.905 L 287.530 120.355 L 289.614 118.854 L 291.734 117.405 L 293.889 116.008 L 296.079 114.665 L 298.301 113.374 L 300.555 112.139 L 302.838 110.959 L 305.150 109.834 L 307.490 108.767 L 309.855 107.757 L 312.244 106.805 L 314.657 105.912 L 317.091 105.078 L 319.545 104.303 L 322.017 103.589 L 324.507 102.935 L 327.012 102.343 L 329.531 101.812 L 332.062 101.342 L 334.604 100.935 L 337.156 100.589 L 339.715 100.307 L 342.281 100.087 L 344.851 99.929 L 347.425 99.835 L 350.000 99.803 L 352.575 99.835 L 355.149 99.929 L 357.719 100.087 L 360.285 100.307 L 362.844 100.589 L 365.396 100.935 L 367.938 101.342 L 370.469 101.812 L 372.988 102.343 L 375.493 102.935 L 377.983 103.589 L 380.455 104.303 L 382.909 105.078 L 385.343 105.912 L 387.756 106.805 L 390.145 107.757 L 392.510 108.767 L 394.850 109.834 L 397.162 110.959 L 399.445 112.139 L 401.699 113.374 L 403.921 114.665 L 406.111 116.008 L 408.266 117.405 L 410.386 118.854 L 412.470 120.355 L 414.516 121.905 L 416.523 123.505 L 418.489 125.153 L 420.414 126.849 L 422.297 128.591 L 424.135 130.378 L 425.929 132.210 L 427.678 134.084 L 429.379 136.001 L 431.032 137.958 L 432.636 139.955 L 434.191 141.990 L 435.694 144.063 L 437.147 146.171 L 438.546 148.314 L 439.892 150.490 L 441.184 152.698 L 442.421 154.937 L 443.603 157.205 L 444.728 159.502 L 445.796 161.824 L 446.806 164.173 L 447.758 166.544 L 448.652 168.938 L 449.486 171.354 L 450.260 173.788 L 450.974 176.241 L 451.627 178.710 L 452.219 181.194 L 452.750 183.692 L 453.219 186.202 L 453.626 188.722 L 453.971 191.252 L 454.254 193.789 L 454.474 196.333 L 454.631 198.881 L 454.725 201.432 L 454.757 203.984 L 454.725 206.536 Z" fill="black" fill-rule="evenodd"/>
</svg>
