<svg xmlns="http://www.w3.org/2000/svg" viewBox="0 0 700.000 1000" width="700.000" height="1000">
  <path d="M 552.208 135.266 L 553.310 135.198 L 554.411 135.103 L 555.508 134.982 L 556.603 134.833 L 557.693 134.657 L 558.779 134.455 L 559.860 134.227 L 560.934 133.971 L 562.002 133.690 L 563.063 133.382 L 564.116 133.049 L 565.160 132.689 L 566.195 132.305 L 567.221 131.895 L 568.236 131.459 L 569.240 131.000 L 570.233 130.515 L 571.213 130.006 L 572.180 129.474 L 573.135 128.918 L 574.075 128.338 L 575.001 127.736 L 575.911 127.111 L 576.806 126.464 L 577.685 125.796 L 578.548 125.105 L 579.393 124.394 L 580.220 123.663 L 581.029 122.911 L 581.820 122.140 L 582.591 121.349 L 583.343 120.540 L 584.074 119.713 L 584.785 118.868 L 585.476 118.005 L 586.144 117.126 L 586.791 116.231 L 587.416 115.321 L 588.018 114.395 L 588.598 113.455 L 589.154 112.500 L 589.686 111.533 L 590.195 110.553 L 590.680 109.560 L 591.139 108.556 L 591.575 107.541 L 591.985 106.515 L 592.369 105.480 L 592.729 104.436 L 593.062 103.383 L 593.370 102.322 L 593.651 101.254 L 593.907 100.180 L 594.135 99.099 L 594.337 98.013 L 594.513 96.923 L 594.662 95.828 L 594.783 94.731 L 594.878 93.630 L 594.946 92.528 L 594.986 91.424 L 595.000 90.320 L 594.986 89.216 L 594.946 88.112 L 594.878 87.010 L 594.783 85.909 L 594.662 84.812 L 594.513 83.717 L 594.337 82.627 L 594.135 81.541 L 593.907 80.460 L 593.651 79.386 L 593.370 78.318 L 593.062 77.257 L 592.729 76.204 L 592.369 75.160 L 591.985 74.125 L 591.575 73.099 L 591.139 72.084 L 590.680 71.080 L 590.195 70.087 L 589.686 69.107 L 589.154 68.140 L 588.598 67.185 L 588.018 66.245 L 587.416 65.319 L 586.791 64.409 L 586.144 63.514 L 585.476 62.635 L 584.785 61.772 L 584.074 60.927 L 583.343 60.100 L 582.591 59.291 L 581.820 58.500 L 581.029 57.729 L 580.220 56.977 L 579.393 56.246 L 578.548 55.535 L 577.685 54.844 L 576.806 54.176 L 575.911 53.529 L 575.001 52.904 L 574.075 52.302 L 573.135 51.722 L 572.180 51.166 L 571.213 50.634 L 570.233 50.125 L 569.240 49.640 L 568.236 49.181 L 567.221 48.745 L 566.195 48.335 L 565.160 47.951 L 564.116 47.591 L 563.063 47.258 L 562.002 46.950 L 560.934 46.669 L 559.860 46.413 L 558.779 46.185 L 557.693 45.983 L 556.603 45.807 L 555.508 45.658 L 554.411 45.537 L 553.310 45.442 L 552.208 45.374 L 551.104 45.334 L 550.000 45.320 L 153.840 45.320 L 153.840 45.320 L 152.736 45.334 L 151.632 45.374 L 150.530 45.442 L 149.429 45.537 L 149.092 45.574 L 148.332 45.658 L 147.580 45.760 L 147.237 45.807 L 146.147 45.983 L 145.061 46.185 L 144.895 46.220 L 143.980 46.413 L 142.906 46.669 L 141.838 46.950 L 141.268 47.115 L 140.777 47.258 L 139.724 47.591 L 138.680 47.951 L 137.645 48.335 L 137.132 48.540 L 136.619 48.745 L 136.352 48.860 L 135.604 49.181 L 134.600 49.640 L 133.607 50.125 L 132.627 50.634 L 131.660 51.166 L 131.115 51.484 L 130.705 51.722 L 129.765 52.302 L 128.839 52.904 L 127.929 53.529 L 127.563 53.793 L 127.034 54.176 L 126.155 54.844 L 125.691 55.216 L 125.292 55.535 L 124.447 56.246 L 123.620 56.977 L 122.811 57.729 L 122.020 58.500 L 121.249 59.291 L 120.497 60.100 L 120.131 60.514 L 119.766 60.927 L 119.055 61.772 L 118.364 62.635 L 117.954 63.174 L 117.696 63.514 L 117.516 63.762 L 117.049 64.409 L 116.424 65.319 L 115.822 66.245 L 115.242 67.185 L 114.918 67.742 L 114.686 68.140 L 114.447 68.575 L 114.154 69.107 L 113.645 70.087 L 113.160 71.080 L 112.701 72.084 L 112.514 72.519 L 112.265 73.099 L 111.855 74.125 L 111.471 75.160 L 111.300 75.657 L 111.111 76.204 L 111.006 76.538 L 110.778 77.257 L 110.470 78.318 L 110.189 79.386 L 109.933 80.460 L 109.705 81.541 L 109.604 82.084 L 109.503 82.627 L 109.415 83.172 L 109.327 83.717 L 109.178 84.812 L 109.165 84.933 L 109.057 85.909 L 108.977 86.835 L 108.962 87.010 L 108.894 88.112 L 108.854 89.216 L 108.840 90.320 L 108.840 427.760 L 108.854 428.864 L 108.894 429.968 L 108.962 431.070 L 109.057 432.171 L 109.178 433.268 L 109.327 434.363 L 109.503 435.453 L 109.705 436.539 L 109.933 437.620 L 110.189 438.694 L 110.470 439.762 L 110.778 440.823 L 111.111 441.876 L 111.471 442.920 L 111.855 443.955 L 112.265 444.981 L 112.701 445.996 L 113.160 447.000 L 113.645 447.993 L 114.154 448.973 L 114.686 449.940 L 115.242 450.895 L 115.822 451.835 L 116.424 452.761 L 117.049 453.671 L 117.696 454.566 L 118.364 455.445 L 119.055 456.308 L 119.766 457.153 L 120.497 457.980 L 121.249 458.789 L 122.020 459.580 L 122.811 460.351 L 123.620 461.103 L 124.447 461.834 L 125.292 462.545 L 126.155 463.236 L 127.034 463.904 L 127.929 464.551 L 128.839 465.176 L 129.765 465.778 L 130.705 466.358 L 131.660 466.914 L 132.627 467.446 L 133.607 467.955 L 134.600 468.440 L 135.604 468.899 L 136.619 469.335 L 137.645 469.745 L 138.680 470.129 L 139.724 470.489 L 140.777 470.822 L 141.838 471.130 L 142.906 471.411 L 143.980 471.667 L 145.061 471.895 L 146.147 472.097 L 147.237 472.273 L 148.332 472.422 L 149.429 472.543 L 150.530 472.638 L 151.632 472.706 L 152.736 472.746 L 153.840 472.760 L 434.606 472.760 L 435.539 472.768 L 436.278 472.787 L 437.018 472.819 L 437.758 472.864 L 438.499 472.921 L 439.241 472.992 L 439.983 473.075 L 440.727 473.171 L 441.471 473.281 L 442.217 473.403 L 442.965 473.539 L 443.714 473.689 L 444.465 473.852 L 445.217 474.029 L 445.971 474.220 L 446.727 474.424 L 447.485 474.643 L 448.245 474.876 L 449.007 475.124 L 449.771 475.387 L 450.537 475.664 L 451.305 475.956 L 452.075 476.263 L 452.847 476.586 L 453.621 476.925 L 454.397 477.279 L 455.174 477.649 L 455.953 478.035 L 456.734 478.437 L 457.516 478.855 L 458.299 479.290 L 459.083 479.742 L 459.869 480.211 L 460.655 480.696 L 461.442 481.199 L 462.230 481.719 L 463.017 482.256 L 463.805 482.810 L 464.593 483.382 L 465.380 483.972 L 466.167 484.580 L 466.953 485.205 L 467.738 485.848 L 468.522 486.508 L 469.304 487.187 L 470.084 487.884 L 470.862 488.599 L 471.638 489.331 L 472.412 490.082 L 473.182 490.850 L 473.949 491.637 L 474.713 492.441 L 475.473 493.263 L 476.229 494.103 L 476.981 494.961 L 477.728 495.837 L 478.471 496.730 L 479.208 497.640 L 479.940 498.568 L 480.666 499.513 L 481.386 500.476 L 482.100 501.455 L 482.807 502.452 L 483.507 503.465 L 484.201 504.494 L 484.887 505.541 L 485.565 506.603 L 486.235 507.682 L 486.898 508.776 L 487.551 509.886 L 488.196 511.012 L 488.832 512.153 L 489.459 513.309 L 490.077 514.480 L 490.684 515.665 L 491.282 516.865 L 491.870 518.079 L 492.447 519.307 L 493.014 520.549 L 493.569 521.804 L 494.114 523.072 L 494.647 524.353 L 495.169 525.647 L 495.680 526.952 L 496.178 528.270 L 496.664 529.600 L 497.138 530.941 L 497.600 532.293 L 498.049 533.656 L 498.485 535.030 L 498.908 536.413 L 499.318 537.807 L 499.715 539.210 L 500.099 540.623 L 500.468 542.044 L 500.825 543.474 L 501.167 544.912 L 501.495 546.359 L 501.810 547.812 L 502.110 549.274 L 502.395 550.742 L 502.667 552.216 L 502.924 553.697 L 503.166 555.184 L 503.393 556.676 L 503.606 558.174 L 503.804 559.676 L 503.987 561.183 L 504.155 562.694 L 504.307 564.209 L 504.445 565.727 L 504.568 567.249 L 504.675 568.773 L 504.767 570.299 L 504.844 571.827 L 504.905 573.357 L 504.951 574.889 L 504.982 576.421 L 504.998 577.954 L 504.998 579.486 L 504.982 581.019 L 504.951 582.551 L 504.905 584.083 L 504.844 585.613 L 504.767 587.141 L 504.675 588.667 L 504.568 590.191 L 504.445 591.713 L 504.307 593.231 L 504.155 594.746 L 503.987 596.257 L 503.804 597.764 L 503.606 599.266 L 503.393 600.764 L 503.166 602.256 L 502.924 603.743 L 502.667 605.224 L 502.395 606.698 L 502.110 608.166 L 501.810 609.628 L 501.495 611.081 L 501.167 612.528 L 500.825 613.966 L 500.468 615.396 L 500.099 616.817 L 499.715 618.230 L 499.318 619.633 L 498.908 621.027 L 498.485 622.410 L 498.049 623.784 L 497.600 625.147 L 497.138 626.499 L 496.664 627.840 L 496.178 629.170 L 495.680 630.488 L 495.169 631.793 L 494.647 633.087 L 494.114 634.368 L 493.569 635.636 L 493.014 636.891 L 492.447 638.133 L 491.870 639.361 L 491.282 640.575 L 490.684 641.775 L 490.077 642.960 L 489.459 644.131 L 488.832 645.287 L 488.196 646.428 L 487.551 647.554 L 486.898 648.664 L 486.235 649.758 L 485.565 650.837 L 484.887 651.899 L 484.201 652.946 L 483.507 653.975 L 482.807 654.988 L 482.100 655.985 L 481.386 656.964 L 480.666 657.927 L 479.940 658.872 L 479.208 659.800 L 478.471 660.710 L 477.728 661.603 L 476.981 662.479 L 476.229 663.337 L 475.473 664.177 L 474.713 664.999 L 473.949 665.803 L 473.182 666.590 L 472.412 667.358 L 471.638 668.109 L 470.862 668.841 L 470.084 669.556 L 469.304 670.253 L 468.522 670.932 L 467.738 671.592 L 466.953 672.235 L 466.167 672.860 L 465.380 673.468 L 464.593 674.058 L 463.805 674.630 L 463.017 675.184 L 462.230 675.721 L 461.442 676.241 L 460.655 676.744 L 459.869 677.229 L 459.083 677.698 L 458.299 678.150 L 457.516 678.585 L 456.734 679.003 L 455.953 679.405 L 455.174 679.791 L 454.397 680.161 L 453.621 680.515 L 452.847 680.854 L 452.075 681.177 L 451.305 681.484 L 450.537 681.776 L 449.771 682.053 L 449.007 682.316 L 448.245 682.564 L 447.485 682.797 L 446.727 683.016 L 445.971 683.220 L 445.217 683.411 L 444.465 683.588 L 443.714 683.751 L 442.965 683.901 L 442.217 684.037 L 441.471 684.159 L 440.727 684.269 L 439.983 684.365 L 439.241 684.448 L 438.499 684.519 L 437.758 684.576 L 437.018 684.621 L 436.278 684.653 L 435.539 684.672 L 434.606 684.680 L 153.840 684.680 L 152.736 684.694 L 151.632 684.734 L 150.530 684.802 L 149.429 684.897 L 148.332 685.018 L 147.237 685.167 L 146.147 685.343 L 145.061 685.545 L 143.980 685.773 L 142.906 686.029 L 141.838 686.310 L 140.777 686.618 L 139.724 686.951 L 138.680 687.311 L 137.645 687.695 L 136.619 688.105 L 135.604 688.541 L 134.600 689.000 L 133.607 689.485 L 132.627 689.994 L 131.660 690.526 L 130.705 691.082 L 129.765 691.662 L 128.839 692.264 L 127.929 692.889 L 127.034 693.536 L 126.155 694.204 L 125.292 694.895 L 124.447 695.606 L 123.620 696.337 L 122.811 697.089 L 122.020 697.860 L 121.249 698.651 L 120.497 699.460 L 119.766 700.287 L 119.055 701.132 L 118.364 701.995 L 117.696 702.874 L 117.049 703.769 L 116.424 704.679 L 115.822 705.605 L 115.242 706.545 L 114.686 707.500 L 114.154 708.467 L 113.645 709.447 L 113.160 710.440 L 112.701 711.444 L 112.265 712.459 L 111.855 713.485 L 111.471 714.520 L 111.111 715.564 L 110.778 716.617 L 110.470 717.678 L 110.189 718.746 L 109.933 719.820 L 109.705 720.901 L 109.503 721.987 L 109.327 723.077 L 109.178 724.172 L 109.057 725.269 L 108.962 726.370 L 108.894 727.472 L 108.854 728.576 L 108.840 729.680 L 108.854 730.784 L 108.894 731.888 L 108.962 732.990 L 109.057 734.091 L 109.178 735.188 L 109.327 736.283 L 109.503 737.373 L 109.705 738.459 L 109.933 739.540 L 110.189 740.614 L 110.470 741.682 L 110.778 742.743 L 111.111 743.796 L 111.471 744.840 L 111.855 745.875 L 112.265 746.901 L 112.701 747.916 L 113.160 748.920 L 113.645 749.913 L 114.154 750.893 L 114.686 751.860 L 115.242 752.815 L 115.822 753.755 L 116.424 754.681 L 117.049 755.591 L 117.696 756.486 L 118.364 757.365 L 119.055 758.228 L 119.766 759.073 L 120.497 759.900 L 121.249 760.709 L 122.020 761.500 L 122.811 762.271 L 123.620 763.023 L 124.447 763.754 L 125.292 764.465 L 126.155 765.156 L 127.034 765.824 L 127.929 766.471 L 128.839 767.096 L 129.765 767.698 L 130.705 768.278 L 131.660 768.834 L 132.627 769.366 L 133.607 769.875 L 134.600 770.360 L 135.604 770.819 L 136.619 771.255 L 137.645 771.665 L 138.680 772.049 L 139.724 772.409 L 140.777 772.742 L 141.838 773.050 L 142.906 773.331 L 143.980 773.587 L 145.061 773.815 L 146.147 774.017 L 147.237 774.193 L 148.332 774.342 L 149.429 774.463 L 150.530 774.558 L 151.632 774.626 L 152.736 774.666 L 153.840 774.680 L 434.800 774.680 L 434.994 774.678 L 435.188 774.678 L 436.702 774.665 L 437.477 774.652 L 438.991 774.613 L 439.765 774.586 L 441.278 774.521 L 442.052 774.481 L 443.564 774.390 L 444.336 774.336 L 445.848 774.219 L 446.617 774.153 L 448.128 774.009 L 448.895 773.930 L 450.404 773.761 L 451.169 773.668 L 452.676 773.473 L 453.438 773.367 L 454.942 773.146 L 455.701 773.028 L 457.203 772.781 L 457.958 772.650 L 459.458 772.377 L 460.208 772.234 L 461.705 771.935 L 462.450 771.780 L 463.944 771.455 L 464.685 771.288 L 466.175 770.938 L 466.911 770.758 L 468.398 770.382 L 469.127 770.191 L 470.610 769.790 L 471.334 769.587 L 472.813 769.160 L 473.531 768.947 L 475.005 768.494 L 475.716 768.269 L 477.186 767.792 L 477.890 767.556 L 479.355 767.053 L 480.052 766.807 L 481.512 766.279 L 482.202 766.023 L 483.656 765.470 L 484.338 765.204 L 485.787 764.625 L 486.461 764.349 L 487.904 763.746 L 488.570 763.461 L 490.007 762.833 L 490.665 762.539 L 492.095 761.886 L 492.746 761.583 L 494.169 760.906 L 494.811 760.594 L 496.227 759.892 L 496.860 759.572 L 498.269 758.846 L 498.893 758.518 L 500.295 757.768 L 500.911 757.433 L 502.305 756.658 L 502.911 756.315 L 504.298 755.517 L 504.895 755.167 L 506.273 754.345 L 506.861 753.988 L 508.231 753.142 L 508.810 752.778 L 510.171 751.909 L 510.741 751.539 L 512.093 750.646 L 512.653 750.271 L 513.996 749.355 L 514.547 748.973 L 515.881 748.034 L 516.423 747.647 L 517.747 746.685 L 518.279 746.293 L 519.594 745.308 L 520.116 744.911 L 521.421 743.903 L 521.934 743.501 L 523.229 742.472 L 523.733 742.065 L 525.017 741.013 L 525.511 740.602 L 526.784 739.529 L 527.269 739.114 L 528.532 738.018 L 529.008 737.599 L 530.259 736.482 L 530.726 736.060 L 531.966 734.921 L 532.423 734.495 L 533.651 733.335 L 534.100 732.906 L 535.316 731.725 L 535.755 731.293 L 536.960 730.091 L 537.390 729.656 L 538.583 728.434 L 539.004 727.996 L 540.184 726.753 L 540.596 726.314 L 541.764 725.050 L 542.167 724.608 L 543.322 723.325 L 543.717 722.881 L 544.859 721.578 L 545.245 721.132 L 546.374 719.809 L 546.751 719.361 L 547.867 718.019 L 548.236 717.569 L 549.337 716.208 L 549.698 715.757 L 550.786 714.377 L 551.138 713.925 L 552.213 712.526 L 552.557 712.072 L 553.617 710.655 L 553.953 710.200 L 554.999 708.765 L 555.327 708.309 L 556.358 706.856 L 556.678 706.399 L 557.695 704.929 L 558.007 704.471 L 559.009 702.983 L 559.314 702.525 L 560.301 701.020 L 560.598 700.560 L 561.569 699.038 L 561.859 698.579 L 562.815 697.040 L 563.098 696.580 L 564.038 695.025 L 564.313 694.564 L 565.238 692.993 L 565.506 692.533 L 566.416 690.946 L 566.676 690.485 L 567.570 688.882 L 567.823 688.421 L 568.700 686.803 L 568.947 686.342 L 569.808 684.709 L 570.048 684.248 L 570.892 682.601 L 571.126 682.139 L 571.953 680.477 L 572.180 680.016 L 572.991 678.340 L 573.211 677.878 L 574.006 676.189 L 574.219 675.727 L 574.996 674.024 L 575.204 673.563 L 575.964 671.847 L 576.165 671.386 L 576.908 669.656 L 577.103 669.195 L 577.828 667.453 L 578.017 666.993 L 578.725 665.239 L 578.908 664.778 L 579.598 663.012 L 579.775 662.552 L 580.447 660.774 L 580.618 660.314 L 581.272 658.524 L 581.438 658.064 L 582.074 656.264 L 582.234 655.805 L 582.852 653.993 L 583.006 653.534 L 583.606 651.712 L 583.754 651.254 L 584.336 649.422 L 584.479 648.963 L 585.042 647.122 L 585.180 646.664 L 585.725 644.812 L 585.857 644.355 L 586.383 642.494 L 586.510 642.037 L 587.017 640.167 L 587.139 639.710 L 587.627 637.832 L 587.744 637.376 L 588.213 635.489 L 588.325 635.033 L 588.775 633.139 L 588.881 632.683 L 589.313 630.781 L 589.414 630.325 L 589.827 628.416 L 589.923 627.961 L 590.316 626.045 L 590.407 625.590 L 590.782 623.667 L 590.868 623.213 L 591.223 621.284 L 591.304 620.830 L 591.639 618.895 L 591.716 618.441 L 592.032 616.500 L 592.103 616.046 L 592.400 614.101 L 592.467 613.647 L 592.744 611.696 L 592.806 611.243 L 593.063 609.288 L 593.121 608.835 L 593.358 606.875 L 593.411 606.423 L 593.629 604.459 L 593.677 604.007 L 593.876 602.039 L 593.919 601.587 L 594.098 599.617 L 594.136 599.165 L 594.295 597.191 L 594.329 596.739 L 594.469 594.763 L 594.498 594.312 L 594.617 592.333 L 594.642 591.882 L 594.742 589.902 L 594.762 589.450 L 594.842 587.468 L 594.858 587.017 L 594.917 585.034 L 594.929 584.583 L 594.969 582.599 L 594.975 582.148 L 594.995 580.164 L 594.998 579.712 L 594.998 577.728 L 594.995 577.276 L 594.975 575.292 L 594.969 574.841 L 594.929 572.857 L 594.917 572.406 L 594.858 570.423 L 594.842 569.972 L 594.762 567.990 L 594.742 567.538 L 594.642 565.558 L 594.617 565.107 L 594.498 563.128 L 594.469 562.677 L 594.329 560.701 L 594.295 560.249 L 594.136 558.275 L 594.098 557.823 L 593.919 555.853 L 593.876 555.401 L 593.677 553.433 L 593.629 552.981 L 593.411 551.017 L 593.358 550.565 L 593.121 548.605 L 593.063 548.152 L 592.806 546.197 L 592.744 545.744 L 592.467 543.793 L 592.400 543.339 L 592.103 541.394 L 592.032 540.940 L 591.716 538.999 L 591.639 538.545 L 591.304 536.610 L 591.223 536.156 L 590.868 534.227 L 590.782 533.773 L 590.407 531.850 L 590.316 531.395 L 589.923 529.479 L 589.827 529.024 L 589.414 527.115 L 589.313 526.659 L 588.881 524.757 L 588.775 524.301 L 588.325 522.407 L 588.213 521.951 L 587.744 520.064 L 587.627 519.608 L 587.139 517.730 L 587.017 517.273 L 586.510 515.403 L 586.383 514.946 L 585.857 513.085 L 585.725 512.628 L 585.180 510.776 L 585.042 510.318 L 584.479 508.477 L 584.336 508.018 L 583.754 506.186 L 583.606 505.728 L 583.006 503.906 L 582.852 503.447 L 582.234 501.635 L 582.074 501.176 L 581.438 499.376 L 581.272 498.916 L 580.618 497.126 L 580.447 496.666 L 579.775 494.888 L 579.598 494.428 L 578.908 492.662 L 578.725 492.201 L 578.017 490.447 L 577.828 489.987 L 577.103 488.245 L 576.908 487.784 L 576.165 486.054 L 575.964 485.593 L 575.204 483.877 L 574.996 483.416 L 574.219 481.713 L 574.006 481.251 L 573.211 479.562 L 572.991 479.100 L 572.180 477.424 L 571.953 476.963 L 571.126 475.301 L 570.892 474.839 L 570.048 473.192 L 569.808 472.731 L 568.947 471.098 L 568.700 470.637 L 567.823 469.019 L 567.570 468.558 L 566.676 466.955 L 566.416 466.494 L 565.506 464.907 L 565.238 464.447 L 564.313 462.876 L 564.038 462.415 L 563.098 460.860 L 562.815 460.400 L 561.859 458.861 L 561.569 458.402 L 560.598 456.880 L 560.301 456.420 L 559.314 454.915 L 559.009 454.457 L 558.007 452.969 L 557.695 452.511 L 556.678 451.041 L 556.358 450.584 L 555.327 449.131 L 554.999 448.675 L 553.953 447.240 L 553.617 446.785 L 552.557 445.368 L 552.213 444.914 L 551.138 443.515 L 550.786 443.063 L 549.698 441.683 L 549.337 441.232 L 548.236 439.871 L 547.867 439.421 L 546.751 438.079 L 546.374 437.631 L 545.245 436.308 L 544.859 435.862 L 543.717 434.559 L 543.322 434.115 L 542.167 432.832 L 541.764 432.390 L 540.596 431.126 L 540.184 430.687 L 539.004 429.444 L 538.583 429.006 L 537.390 427.784 L 536.960 427.349 L 535.755 426.147 L 535.316 425.715 L 534.100 424.534 L 533.651 424.105 L 532.423 422.945 L 531.966 422.519 L 530.726 421.380 L 530.259 420.958 L 529.008 419.841 L 528.532 419.422 L 527.269 418.326 L 526.784 417.911 L 525.511 416.838 L 525.017 416.427 L 523.733 415.375 L 523.229 414.968 L 521.934 413.939 L 521.421 413.537 L 520.116 412.529 L 519.594 412.132 L 518.279 411.147 L 517.747 410.755 L 516.423 409.793 L 515.881 409.406 L 514.547 408.467 L 513.996 408.085 L 512.653 407.169 L 512.093 406.794 L 510.741 405.901 L 510.171 405.531 L 508.810 404.662 L 508.231 404.298 L 506.861 403.452 L 506.273 403.095 L 504.895 402.273 L 504.298 401.923 L 502.911 401.125 L 502.305 400.782 L 500.911 400.007 L 500.295 399.672 L 498.893 398.922 L 498.269 398.594 L 496.860 397.868 L 496.227 397.548 L 494.811 396.846 L 494.169 396.534 L 492.746 395.857 L 492.095 395.554 L 490.665 394.901 L 490.007 394.607 L 488.570 393.979 L 487.904 393.694 L 486.461 393.091 L 485.787 392.815 L 484.338 392.236 L 483.656 391.970 L 482.202 391.417 L 481.512 391.161 L 480.052 390.633 L 479.355 390.387 L 477.890 389.884 L 477.186 389.648 L 475.716 389.171 L 475.005 388.946 L 473.531 388.493 L 472.813 388.280 L 471.334 387.853 L 470.610 387.650 L 469.127 387.249 L 468.398 387.058 L 466.911 386.682 L 466.175 386.502 L 464.685 386.152 L 463.944 385.985 L 462.450 385.660 L 461.705 385.505 L 460.208 385.206 L 459.458 385.063 L 457.958 384.790 L 457.203 384.659 L 455.701 384.412 L 454.942 384.294 L 453.438 384.073 L 452.676 383.967 L 451.169 383.772 L 450.404 383.679 L 448.895 383.510 L 448.128 383.431 L 446.617 383.287 L 445.848 383.221 L 444.336 383.104 L 443.564 383.050 L 442.052 382.959 L 441.278 382.919 L 439.765 382.854 L 438.991 382.827 L 437.477 382.788 L 436.702 382.775 L 435.188 382.762 L 434.994 382.762 L 434.800 382.760 L 198.840 382.760 L 198.840 135.320 L 550.000 135.320 L 551.104 135.306 L 552.208 135.266 Z" fill="black" fill-rule="evenodd"/>
</svg>
