<svg xmlns="http://www.w3.org/2000/svg" viewBox="0 0 600.000 1000" width="600.000" height="1000">
  <path d="M 316.800 310.000 L 195.000 310.000 L 195.000 40.000 L 194.986 38.896 L 194.946 37.792 L 194.878 36.690 L 194.783 35.589 L 194.662 34.492 L 194.513 33.397 L 194.337 32.307 L 194.135 31.221 L 193.907 30.140 L 193.651 29.066 L 193.370 27.998 L 193.062 26.937 L 192.729 25.884 L 192.369 24.840 L 191.985 23.805 L 191.575 22.779 L 191.139 21.764 L 190.680 20.760 L 190.195 19.767 L 189.686 18.787 L 189.154 17.820 L 188.598 16.865 L 188.018 15.925 L 187.416 14.999 L 186.791 14.089 L 186.144 13.194 L 185.476 12.315 L 184.785 11.452 L 184.074 10.607 L 183.343 9.780 L 182.591 8.971 L 181.820 8.180 L 181.029 7.409 L 180.220 6.657 L 179.393 5.926 L 178.548 5.215 L 177.685 4.524 L 176.806 3.856 L 175.911 3.209 L 175.001 2.584 L 174.075 1.982 L 173.135 1.402 L 172.180 0.846 L 171.213 0.314 L 170.233 -0.195 L 169.240 -0.680 L 168.236 -1.139 L 167.221 -1.575 L 166.195 -1.985 L 165.160 -2.369 L 164.116 -2.729 L 163.063 -3.062 L 162.002 -3.370 L 160.934 -3.651 L 159.860 -3.907 L 158.779 -4.135 L 157.693 -4.337 L 156.603 -4.513 L 155.508 -4.662 L 154.411 -4.783 L 153.310 -4.878 L 152.208 -4.946 L 151.104 -4.986 L 150.000 -5.000 L 148.896 -4.986 L 147.792 -4.946 L 146.690 -4.878 L 145.589 -4.783 L 144.492 -4.662 L 143.397 -4.513 L 142.307 -4.337 L 141.221 -4.135 L 140.140 -3.907 L 139.066 -3.651 L 137.998 -3.370 L 136.937 -3.062 L 135.884 -2.729 L 134.840 -2.369 L 133.805 -1.985 L 132.779 -1.575 L 131.764 -1.139 L 130.760 -0.680 L 129.767 -0.195 L 128.787 0.314 L 127.820 0.846 L 126.865 1.402 L 125.925 1.982 L 124.999 2.584 L 124.089 3.209 L 123.194 3.856 L 122.315 4.524 L 121.452 5.215 L 120.607 5.926 L 119.780 6.657 L 118.971 7.409 L 118.180 8.180 L 117.409 8.971 L 116.657 9.780 L 115.926 10.607 L 115.215 11.452 L 114.524 12.315 L 113.856 13.194 L 113.209 14.089 L 112.584 14.999 L 111.982 15.925 L 111.402 16.865 L 110.846 17.820 L 110.314 18.787 L 109.805 19.767 L 109.320 20.760 L 108.861 21.764 L 108.425 22.779 L 108.015 23.805 L 107.631 24.840 L 107.271 25.884 L 106.938 26.937 L 106.630 27.998 L 106.349 29.066 L 106.093 30.140 L 105.865 31.221 L 105.663 32.307 L 105.487 33.397 L 105.338 34.492 L 105.217 35.589 L 105.122 36.690 L 105.054 37.792 L 105.014 38.896 L 105.000 40.000 L 105.000 355.000 L 105.000 770.000 L 105.000 780.000 L 105.014 781.104 L 105.054 782.208 L 105.122 783.310 L 105.217 784.411 L 105.338 785.508 L 105.487 786.603 L 105.663 787.693 L 105.865 788.779 L 106.093 789.860 L 106.349 790.934 L 106.630 792.002 L 106.938 793.063 L 107.271 794.116 L 107.631 795.160 L 108.015 796.195 L 108.425 797.221 L 108.861 798.236 L 109.320 799.240 L 109.805 800.233 L 110.314 801.213 L 110.846 802.180 L 111.402 803.135 L 111.982 804.075 L 112.584 805.001 L 113.209 805.911 L 113.856 806.806 L 114.524 807.685 L 115.215 808.548 L 115.926 809.393 L 116.657 810.220 L 117.409 811.029 L 118.180 811.820 L 118.971 812.591 L 119.780 813.343 L 120.607 814.074 L 121.452 814.785 L 122.315 815.476 L 123.194 816.144 L 124.089 816.791 L 124.999 817.416 L 125.925 818.018 L 126.865 818.598 L 127.820 819.154 L 128.787 819.686 L 129.767 820.195 L 130.760 820.680 L 131.764 821.139 L 132.779 821.575 L 133.805 821.985 L 134.840 822.369 L 135.884 822.729 L 136.937 823.062 L 137.998 823.370 L 139.066 823.651 L 140.140 823.907 L 141.221 824.135 L 142.307 824.337 L 143.397 824.513 L 144.492 824.662 L 145.589 824.783 L 146.690 824.878 L 147.792 824.946 L 148.896 824.986 L 150.000 825.000 L 151.104 824.986 L 152.208 824.946 L 153.310 824.878 L 154.411 824.783 L 155.508 824.662 L 156.603 824.513 L 157.693 824.337 L 158.779 824.135 L 159.860 823.907 L 160.934 823.651 L 162.002 823.370 L 163.063 823.062 L 164.116 822.729 L 165.160 822.369 L 166.195 821.985 L 167.221 821.575 L 168.236 821.139 L 169.240 820.680 L 170.233 820.195 L 171.213 819.686 L 172.180 819.154 L 173.135 818.598 L 174.075 818.018 L 175.001 817.416 L 175.911 816.791 L 176.806 816.144 L 177.685 815.476 L 178.280 815.000 L 316.800 815.000 L 316.960 814.998 L 317.120 814.999 L 319.265 814.984 L 319.905 814.974 L 322.049 814.929 L 322.690 814.910 L 324.833 814.834 L 325.473 814.807 L 327.615 814.700 L 328.254 814.664 L 330.396 814.526 L 331.034 814.481 L 333.174 814.313 L 333.811 814.258 L 335.949 814.060 L 336.584 813.997 L 338.720 813.768 L 339.354 813.696 L 341.487 813.437 L 342.120 813.355 L 344.250 813.066 L 344.881 812.976 L 347.008 812.656 L 347.636 812.557 L 349.760 812.207 L 350.387 812.099 L 352.506 811.719 L 353.130 811.603 L 355.246 811.192 L 355.868 811.067 L 357.979 810.627 L 358.598 810.493 L 360.704 810.023 L 361.320 809.881 L 363.422 809.381 L 364.034 809.230 L 366.130 808.700 L 366.740 808.541 L 368.830 807.981 L 369.436 807.814 L 371.521 807.225 L 372.123 807.050 L 374.201 806.430 L 374.800 806.248 L 376.872 805.599 L 377.466 805.408 L 379.531 804.729 L 380.122 804.531 L 382.180 803.823 L 382.766 803.617 L 384.816 802.880 L 385.398 802.667 L 387.441 801.900 L 388.018 801.679 L 390.053 800.884 L 390.625 800.656 L 392.652 799.832 L 393.220 799.596 L 395.237 798.743 L 395.800 798.501 L 397.809 797.619 L 398.367 797.370 L 400.367 796.460 L 400.920 796.203 L 402.910 795.265 L 403.458 795.002 L 405.438 794.035 L 405.980 793.766 L 407.950 792.771 L 408.487 792.495 L 410.447 791.472 L 410.979 791.190 L 412.927 790.140 L 413.454 789.851 L 415.392 788.773 L 415.912 788.479 L 417.839 787.373 L 418.354 787.073 L 420.269 785.940 L 420.778 785.634 L 422.681 784.474 L 423.184 784.162 L 425.075 782.975 L 425.573 782.658 L 427.451 781.444 L 427.943 781.121 L 429.809 779.881 L 430.294 779.553 L 432.147 778.286 L 432.627 777.953 L 434.466 776.660 L 434.940 776.322 L 436.766 775.003 L 437.233 774.660 L 439.046 773.315 L 439.507 772.968 L 441.305 771.596 L 441.760 771.245 L 443.544 769.848 L 443.993 769.492 L 445.762 768.070 L 446.205 767.710 L 447.960 766.263 L 448.396 765.898 L 450.135 764.426 L 450.565 764.058 L 452.289 762.561 L 452.713 762.189 L 454.422 760.668 L 454.839 760.291 L 456.532 758.746 L 456.943 758.366 L 458.620 756.797 L 459.024 756.413 L 460.685 754.820 L 461.083 754.434 L 462.727 752.817 L 463.119 752.427 L 464.746 750.787 L 465.131 750.393 L 466.741 748.730 L 467.121 748.334 L 468.713 746.648 L 469.086 746.248 L 470.661 744.540 L 471.028 744.137 L 472.585 742.407 L 472.946 742.001 L 474.485 740.249 L 474.839 739.841 L 476.360 738.066 L 476.708 737.656 L 478.211 735.860 L 478.552 735.446 L 480.036 733.629 L 480.372 733.213 L 481.837 731.375 L 482.166 730.957 L 483.612 729.098 L 483.935 728.678 L 485.361 726.799 L 485.678 726.376 L 487.085 724.477 L 487.396 724.052 L 488.783 722.133 L 489.088 721.706 L 490.456 719.767 L 490.754 719.338 L 492.101 717.380 L 492.394 716.949 L 493.721 714.972 L 494.007 714.540 L 495.314 712.544 L 495.594 712.110 L 496.880 710.095 L 497.154 709.660 L 498.419 707.627 L 498.688 707.190 L 499.931 705.139 L 500.194 704.701 L 501.416 702.633 L 501.673 702.192 L 502.874 700.107 L 503.125 699.666 L 504.304 697.563 L 504.550 697.120 L 505.707 695.002 L 505.946 694.557 L 507.082 692.422 L 507.315 691.977 L 508.429 689.826 L 508.657 689.379 L 509.748 687.212 L 509.970 686.765 L 511.038 684.582 L 511.255 684.134 L 512.301 681.936 L 512.512 681.487 L 513.535 679.275 L 513.741 678.824 L 514.741 676.598 L 514.941 676.146 L 515.918 673.905 L 516.112 673.453 L 517.066 671.199 L 517.255 670.746 L 518.185 668.478 L 518.369 668.024 L 519.276 665.743 L 519.454 665.288 L 520.337 662.995 L 520.510 662.539 L 521.369 660.233 L 521.536 659.777 L 522.372 657.459 L 522.534 657.002 L 523.346 654.673 L 523.502 654.215 L 524.290 651.874 L 524.441 651.416 L 525.204 649.064 L 525.350 648.606 L 526.089 646.243 L 526.230 645.784 L 526.945 643.411 L 527.080 642.951 L 527.770 640.568 L 527.901 640.108 L 528.566 637.715 L 528.691 637.255 L 529.332 634.853 L 529.452 634.392 L 530.067 631.981 L 530.182 631.520 L 530.773 629.100 L 530.883 628.639 L 531.449 626.211 L 531.554 625.749 L 532.094 623.313 L 532.194 622.851 L 532.709 620.408 L 532.804 619.945 L 533.294 617.495 L 533.384 617.032 L 533.849 614.575 L 533.934 614.112 L 534.373 611.648 L 534.453 611.185 L 534.866 608.715 L 534.942 608.252 L 535.330 605.776 L 535.400 605.313 L 535.762 602.832 L 535.828 602.368 L 536.164 599.882 L 536.225 599.418 L 536.536 596.928 L 536.591 596.464 L 536.877 593.969 L 536.927 593.505 L 537.187 591.007 L 537.233 590.542 L 537.466 588.040 L 537.507 587.575 L 537.715 585.070 L 537.751 584.606 L 537.933 582.098 L 537.964 581.633 L 538.120 579.123 L 538.147 578.658 L 538.277 576.146 L 538.298 575.681 L 538.402 573.167 L 538.419 572.702 L 538.497 570.187 L 538.509 569.721 L 538.561 567.205 L 538.568 566.740 L 538.594 564.224 L 538.597 563.758 L 538.597 561.242 L 538.594 560.776 L 538.568 558.260 L 538.561 557.795 L 538.509 555.279 L 538.497 554.813 L 538.419 552.298 L 538.402 551.833 L 538.298 549.319 L 538.277 548.854 L 538.147 546.342 L 538.120 545.877 L 537.964 543.367 L 537.933 542.902 L 537.751 540.394 L 537.715 539.930 L 537.507 537.425 L 537.466 536.960 L 537.233 534.458 L 537.187 533.993 L 536.927 531.495 L 536.877 531.031 L 536.591 528.536 L 536.536 528.072 L 536.225 525.582 L 536.164 525.118 L 535.828 522.632 L 535.762 522.168 L 535.400 519.687 L 535.330 519.224 L 534.942 516.748 L 534.866 516.285 L 534.453 513.815 L 534.373 513.352 L 533.934 510.888 L 533.849 510.425 L 533.384 507.968 L 533.294 507.505 L 532.804 505.055 L 532.709 504.592 L 532.194 502.149 L 532.094 501.687 L 531.554 499.251 L 531.449 498.789 L 530.883 496.361 L 530.773 495.900 L 530.182 493.480 L 530.067 493.019 L 529.452 490.608 L 529.332 490.147 L 528.691 487.745 L 528.566 487.285 L 527.901 484.892 L 527.770 484.432 L 527.080 482.049 L 526.945 481.589 L 526.230 479.216 L 526.089 478.757 L 525.350 476.394 L 525.204 475.936 L 524.441 473.584 L 524.290 473.126 L 523.502 470.785 L 523.346 470.327 L 522.534 467.998 L 522.372 467.541 L 521.536 465.223 L 521.369 464.767 L 520.510 462.461 L 520.337 462.005 L 519.454 459.712 L 519.276 459.257 L 518.369 456.976 L 518.185 456.522 L 517.255 454.254 L 517.066 453.801 L 516.112 451.547 L 515.918 451.095 L 514.941 448.854 L 514.741 448.402 L 513.741 446.176 L 513.535 445.725 L 512.512 443.513 L 512.301 443.064 L 511.255 440.866 L 511.038 440.418 L 509.970 438.235 L 509.748 437.788 L 508.657 435.621 L 508.429 435.174 L 507.315 433.023 L 507.082 432.578 L 505.946 430.443 L 505.707 429.998 L 504.550 427.880 L 504.304 427.437 L 503.125 425.334 L 502.874 424.893 L 501.673 422.808 L 501.416 422.367 L 500.194 420.299 L 499.931 419.861 L 498.688 417.810 L 498.419 417.373 L 497.154 415.340 L 496.880 414.905 L 495.594 412.890 L 495.314 412.456 L 494.007 410.460 L 493.721 410.028 L 492.394 408.051 L 492.101 407.620 L 490.754 405.662 L 490.456 405.233 L 489.088 403.294 L 488.783 402.867 L 487.396 400.948 L 487.085 400.523 L 485.678 398.624 L 485.361 398.201 L 483.935 396.322 L 483.612 395.902 L 482.166 394.043 L 481.837 393.625 L 480.372 391.787 L 480.036 391.371 L 478.552 389.554 L 478.211 389.140 L 476.708 387.344 L 476.360 386.934 L 474.839 385.159 L 474.485 384.751 L 472.946 382.999 L 472.585 382.593 L 471.028 380.863 L 470.661 380.460 L 469.086 378.752 L 468.713 378.352 L 467.121 376.666 L 466.741 376.270 L 465.131 374.607 L 464.746 374.213 L 463.119 372.573 L 462.727 372.183 L 461.083 370.566 L 460.685 370.180 L 459.024 368.587 L 458.620 368.203 L 456.943 366.634 L 456.532 366.254 L 454.839 364.709 L 454.422 364.332 L 452.713 362.811 L 452.289 362.439 L 450.565 360.942 L 450.135 360.574 L 448.396 359.102 L 447.960 358.737 L 446.205 357.290 L 445.762 356.930 L 443.993 355.508 L 443.544 355.152 L 441.760 353.755 L 441.305 353.404 L 439.507 352.032 L 439.046 351.685 L 437.233 350.340 L 436.766 349.997 L 434.940 348.678 L 434.466 348.340 L 432.627 347.047 L 432.147 346.714 L 430.294 345.447 L 429.809 345.119 L 427.943 343.879 L 427.451 343.556 L 425.573 342.342 L 425.075 342.025 L 423.184 340.838 L 422.681 340.526 L 420.778 339.366 L 420.269 339.060 L 418.354 337.927 L 417.839 337.627 L 415.912 336.521 L 415.392 336.227 L 413.454 335.149 L 412.927 334.860 L 410.979 333.810 L 410.447 333.528 L 408.487 332.505 L 407.950 332.229 L 405.980 331.234 L 405.438 330.965 L 403.458 329.998 L 402.910 329.735 L 400.920 328.797 L 400.367 328.540 L 398.367 327.630 L 397.809 327.381 L 395.800 326.499 L 395.237 326.257 L 393.220 325.404 L 392.652 325.168 L 390.625 324.344 L 390.053 324.116 L 388.018 323.321 L 387.441 323.100 L 385.398 322.333 L 384.816 322.120 L 382.766 321.383 L 382.180 321.177 L 380.122 320.469 L 379.531 320.271 L 377.466 319.592 L 376.872 319.401 L 374.800 318.752 L 374.201 318.570 L 372.123 317.950 L 371.521 317.775 L 369.436 317.186 L 368.830 317.019 L 366.740 316.459 L 366.130 316.300 L 364.034 315.770 L 363.422 315.619 L 361.320 315.119 L 360.704 314.977 L 358.598 314.507 L 357.979 314.373 L 355.868 313.933 L 355.246 313.808 L 353.130 313.397 L 352.506 313.281 L 350.387 312.901 L 349.760 312.793 L 347.636 312.443 L 347.008 312.344 L 344.881 312.024 L 344.250 311.934 L 342.120 311.645 L 341.487 311.563 L 339.354 311.304 L 338.720 311.232 L 336.584 311.003 L 335.949 310.940 L 333.811 310.742 L 333.174 310.687 L 331.034 310.519 L 330.396 310.474 L 328.254 310.336 L 327.615 310.300 L 325.473 310.193 L 324.833 310.166 L 322.690 310.090 L 322.049 310.071 L 319.905 310.026 L 319.265 310.016 L 317.120 310.001 L 316.960 310.002 L 316.800 310.000 Z M 195.000 400.000 L 316.640 400.000 L 318.304 400.012 L 319.808 400.044 L 321.311 400.097 L 322.814 400.172 L 324.317 400.269 L 325.819 400.387 L 327.321 400.526 L 328.821 400.686 L 330.321 400.869 L 331.820 401.072 L 333.317 401.297 L 334.813 401.544 L 336.308 401.812 L 337.801 402.101 L 339.293 402.412 L 340.782 402.745 L 342.270 403.099 L 343.756 403.475 L 345.239 403.872 L 346.720 404.291 L 348.198 404.732 L 349.674 405.194 L 351.147 405.678 L 352.616 406.183 L 354.083 406.710 L 355.546 407.259 L 357.006 407.830 L 358.462 408.422 L 359.914 409.036 L 361.362 409.671 L 362.806 410.328 L 364.245 411.007 L 365.680 411.707 L 367.110 412.430 L 368.535 413.173 L 369.954 413.939 L 371.368 414.726 L 372.777 415.534 L 374.180 416.364 L 375.576 417.216 L 376.967 418.089 L 378.351 418.983 L 379.728 419.899 L 381.098 420.836 L 382.461 421.795 L 383.817 422.774 L 385.165 423.775 L 386.505 424.797 L 387.837 425.840 L 389.161 426.904 L 390.476 427.989 L 391.783 429.094 L 393.080 430.220 L 394.368 431.367 L 395.647 432.534 L 396.916 433.722 L 398.174 434.929 L 399.423 436.157 L 400.661 437.405 L 401.888 438.673 L 403.104 439.960 L 404.309 441.267 L 405.503 442.594 L 406.685 443.939 L 407.855 445.304 L 409.012 446.688 L 410.158 448.090 L 411.290 449.511 L 412.410 450.951 L 413.517 452.408 L 414.610 453.884 L 415.689 455.378 L 416.755 456.889 L 417.807 458.417 L 418.844 459.963 L 419.867 461.526 L 420.875 463.106 L 421.868 464.702 L 422.846 466.314 L 423.809 467.943 L 424.756 469.587 L 425.687 471.247 L 426.602 472.922 L 427.501 474.613 L 428.383 476.318 L 429.249 478.038 L 430.098 479.772 L 430.930 481.520 L 431.745 483.281 L 432.543 485.057 L 433.323 486.845 L 434.085 488.647 L 434.829 490.461 L 435.555 492.287 L 436.263 494.125 L 436.953 495.975 L 437.624 497.837 L 438.276 499.709 L 438.910 501.592 L 439.525 503.486 L 440.120 505.390 L 440.696 507.304 L 441.253 509.227 L 441.790 511.160 L 442.308 513.101 L 442.805 515.051 L 443.283 517.009 L 443.741 518.975 L 444.179 520.949 L 444.597 522.930 L 444.994 524.918 L 445.371 526.912 L 445.728 528.912 L 446.064 530.918 L 446.379 532.930 L 446.674 534.947 L 446.948 536.969 L 447.201 538.995 L 447.433 541.025 L 447.644 543.059 L 447.834 545.096 L 448.004 547.136 L 448.152 549.180 L 448.279 551.225 L 448.385 553.272 L 448.470 555.321 L 448.533 557.371 L 448.576 559.422 L 448.597 561.474 L 448.597 563.526 L 448.576 565.578 L 448.533 567.629 L 448.470 569.679 L 448.385 571.728 L 448.279 573.775 L 448.152 575.820 L 448.004 577.864 L 447.834 579.904 L 447.644 581.941 L 447.433 583.975 L 447.201 586.005 L 446.948 588.031 L 446.674 590.053 L 446.379 592.070 L 446.064 594.082 L 445.728 596.088 L 445.371 598.088 L 444.994 600.082 L 444.597 602.070 L 444.179 604.051 L 443.741 606.025 L 443.283 607.991 L 442.805 609.949 L 442.308 611.899 L 441.790 613.840 L 441.253 615.773 L 440.696 617.696 L 440.120 619.610 L 439.525 621.514 L 438.910 623.408 L 438.276 625.291 L 437.624 627.163 L 436.953 629.025 L 436.263 630.875 L 435.555 632.713 L 434.829 634.539 L 434.085 636.353 L 433.323 638.155 L 432.543 639.943 L 431.745 641.719 L 430.930 643.480 L 430.098 645.228 L 429.249 646.962 L 428.383 648.682 L 427.501 650.387 L 426.602 652.078 L 425.687 653.753 L 424.756 655.413 L 423.809 657.057 L 422.846 658.686 L 421.868 660.298 L 420.875 661.894 L 419.867 663.474 L 418.844 665.037 L 417.807 666.583 L 416.755 668.111 L 415.689 669.622 L 414.610 671.116 L 413.517 672.592 L 412.410 674.049 L 411.290 675.489 L 410.158 676.910 L 409.012 678.312 L 407.855 679.696 L 406.685 681.061 L 405.503 682.406 L 404.309 683.733 L 403.104 685.040 L 401.888 686.327 L 400.661 687.595 L 399.423 688.843 L 398.174 690.071 L 396.916 691.278 L 395.647 692.466 L 394.368 693.633 L 393.080 694.780 L 391.783 695.906 L 390.476 697.011 L 389.161 698.096 L 387.837 699.160 L 386.505 700.203 L 385.165 701.225 L 383.817 702.226 L 382.461 703.205 L 381.098 704.164 L 379.728 705.101 L 378.351 706.017 L 376.967 706.911 L 375.576 707.784 L 374.180 708.636 L 372.777 709.466 L 371.368 710.274 L 369.954 711.061 L 368.535 711.827 L 367.110 712.570 L 365.680 713.293 L 364.245 713.993 L 362.806 714.672 L 361.362 715.329 L 359.914 715.964 L 358.462 716.578 L 357.006 717.170 L 355.546 717.741 L 354.083 718.290 L 352.616 718.817 L 351.147 719.322 L 349.674 719.806 L 348.198 720.268 L 346.720 720.709 L 345.239 721.128 L 343.756 721.525 L 342.270 721.901 L 340.782 722.255 L 339.293 722.588 L 337.801 722.899 L 336.308 723.188 L 334.813 723.456 L 333.317 723.703 L 331.820 723.928 L 330.321 724.131 L 328.821 724.314 L 327.321 724.474 L 325.819 724.613 L 324.317 724.731 L 322.814 724.828 L 321.311 724.903 L 319.808 724.956 L 318.304 724.988 L 316.640 725.000 L 195.000 725.000 L 195.000 400.000 Z" fill="black" fill-rule="evenodd"/>
</svg>
