<svg xmlns="http://www.w3.org/2000/svg" viewBox="0 0 700.000 1000" width="700.000" height="1000">
  <path d="M 230.726 31.117 L 230.205 31.123 L 229.542 31.134 L 229.021 31.146 L 228.359 31.165 L 227.838 31.184 L 227.176 31.210 L 226.655 31.235 L 225.994 31.269 L 225.473 31.299 L 224.812 31.341 L 224.292 31.378 L 223.632 31.428 L 223.112 31.470 L 222.452 31.527 L 221.933 31.575 L 221.274 31.641 L 220.756 31.695 L 220.097 31.768 L 219.579 31.828 L 218.922 31.908 L 218.405 31.975 L 217.748 32.063 L 217.232 32.135 L 216.577 32.230 L 216.062 32.308 L 215.407 32.412 L 214.893 32.496 L 214.239 32.607 L 213.727 32.697 L 213.074 32.815 L 212.563 32.911 L 211.912 33.037 L 211.401 33.139 L 210.752 33.272 L 210.243 33.380 L 209.595 33.521 L 209.087 33.634 L 208.441 33.783 L 207.935 33.902 L 207.290 34.058 L 206.786 34.183 L 206.143 34.346 L 205.640 34.477 L 204.999 34.648 L 204.497 34.785 L 203.858 34.963 L 203.358 35.106 L 202.721 35.291 L 202.224 35.440 L 201.589 35.633 L 201.093 35.786 L 200.460 35.987 L 199.966 36.146 L 199.335 36.354 L 198.843 36.519 L 198.215 36.734 L 197.725 36.905 L 197.099 37.127 L 196.612 37.303 L 195.989 37.533 L 195.503 37.715 L 194.882 37.951 L 194.399 38.139 L 193.781 38.383 L 193.300 38.576 L 192.685 38.827 L 192.207 39.025 L 191.594 39.283 L 191.118 39.487 L 190.509 39.752 L 190.036 39.961 L 189.429 40.233 L 188.958 40.448 L 188.354 40.727 L 187.887 40.947 L 187.286 41.233 L 186.821 41.458 L 186.224 41.751 L 185.761 41.981 L 185.167 42.281 L 184.708 42.517 L 184.117 42.823 L 183.661 43.064 L 183.073 43.378 L 182.620 43.623 L 182.036 43.944 L 181.585 44.195 L 181.005 44.522 L 180.558 44.778 L 179.981 45.112 L 179.537 45.372 L 178.964 45.713 L 178.523 45.978 L 177.954 46.326 L 177.517 46.596 L 176.951 46.950 L 176.517 47.225 L 175.956 47.586 L 175.525 47.866 L 174.967 48.233 L 174.540 48.518 L 173.987 48.891 L 173.563 49.180 L 173.014 49.560 L 172.593 49.854 L 172.048 50.240 L 171.632 50.539 L 171.091 50.932 L 170.678 51.235 L 170.142 51.634 L 169.732 51.941 L 169.201 52.346 L 168.795 52.659 L 168.268 53.070 L 167.866 53.386 L 167.343 53.803 L 166.945 54.124 L 166.427 54.547 L 166.033 54.873 L 165.519 55.302 L 165.129 55.632 L 164.621 56.067 L 164.234 56.401 L 163.730 56.841 L 163.348 57.179 L 162.849 57.626 L 162.471 57.968 L 161.977 58.421 L 161.603 58.767 L 161.114 59.225 L 160.745 59.575 L 160.261 60.039 L 159.895 60.393 L 159.416 60.863 L 159.055 61.221 L 158.581 61.696 L 158.224 62.058 L 157.756 62.538 L 157.403 62.904 L 156.940 63.389 L 156.592 63.759 L 156.134 64.250 L 155.790 64.623 L 155.338 65.119 L 154.998 65.496 L 154.552 65.998 L 154.216 66.378 L 153.775 66.885 L 153.445 67.269 L 153.009 67.781 L 152.683 68.168 L 152.253 68.685 L 151.932 69.076 L 151.507 69.598 L 151.190 69.992 L 150.772 70.518 L 150.460 70.916 L 150.047 71.447 L 149.740 71.848 L 149.333 72.384 L 149.030 72.789 L 148.629 73.329 L 148.331 73.737 L 147.936 74.282 L 147.643 74.692 L 147.254 75.242 L 146.965 75.656 L 146.583 76.210 L 146.299 76.627 L 145.922 77.185 L 145.643 77.605 L 145.273 78.168 L 144.998 78.590 L 144.634 79.157 L 144.365 79.582 L 144.007 80.154 L 143.743 80.582 L 143.391 81.157 L 143.132 81.588 L 142.786 82.168 L 142.532 82.601 L 142.193 83.184 L 141.943 83.620 L 141.611 84.208 L 141.367 84.646 L 141.041 85.237 L 140.801 85.678 L 140.482 86.273 L 140.247 86.717 L 139.935 87.315 L 139.705 87.761 L 139.399 88.363 L 139.175 88.811 L 138.875 89.417 L 138.656 89.867 L 138.363 90.477 L 138.149 90.929 L 137.863 91.542 L 137.654 91.996 L 137.375 92.612 L 137.171 93.069 L 136.899 93.688 L 136.700 94.147 L 136.434 94.769 L 136.241 95.230 L 135.982 95.855 L 135.794 96.318 L 135.542 96.946 L 135.359 97.410 L 135.114 98.041 L 134.936 98.508 L 134.698 99.142 L 134.526 99.610 L 134.295 100.246 L 134.127 100.716 L 133.904 101.355 L 133.741 101.827 L 133.525 102.469 L 133.368 102.942 L 133.158 103.586 L 133.007 104.061 L 132.804 104.707 L 132.658 105.184 L 132.463 105.832 L 132.322 106.310 L 132.133 106.961 L 131.998 107.440 L 131.817 108.093 L 131.686 108.574 L 131.513 109.229 L 131.388 109.711 L 131.221 110.368 L 131.102 110.851 L 130.942 111.510 L 130.828 111.994 L 130.676 112.655 L 130.567 113.140 L 130.423 113.803 L 130.319 114.289 L 130.182 114.953 L 130.084 115.441 L 129.954 116.107 L 129.861 116.595 L 129.738 117.262 L 129.651 117.751 L 129.536 118.420 L 129.454 118.910 L 129.346 119.580 L 129.269 120.070 L 129.169 120.742 L 129.098 121.233 L 129.005 121.905 L 128.939 122.397 L 128.853 123.071 L 128.793 123.563 L 128.715 124.238 L 128.660 124.731 L 128.589 125.406 L 128.540 125.900 L 128.477 126.576 L 128.433 127.070 L 128.377 127.747 L 128.339 128.242 L 128.290 128.919 L 128.257 129.414 L 128.216 130.092 L 128.189 130.587 L 128.155 131.265 L 128.133 131.761 L 128.107 132.439 L 128.091 132.935 L 128.072 133.614 L 128.061 134.110 L 128.050 134.789 L 128.044 135.285 L 128.041 135.964 L 128.048 137.068 L 128.083 138.172 L 128.144 139.275 L 128.233 140.376 L 128.349 141.474 L 128.491 142.569 L 128.661 143.661 L 128.857 144.748 L 129.080 145.829 L 129.329 146.905 L 129.605 147.975 L 129.906 149.037 L 130.234 150.092 L 130.588 151.138 L 130.967 152.176 L 131.371 153.203 L 131.801 154.221 L 132.255 155.227 L 132.734 156.223 L 133.237 157.206 L 133.764 158.176 L 134.315 159.133 L 134.890 160.077 L 135.487 161.006 L 136.106 161.920 L 136.749 162.819 L 137.412 163.701 L 138.098 164.567 L 138.804 165.416 L 139.531 166.248 L 140.278 167.061 L 141.045 167.856 L 141.832 168.631 L 142.637 169.388 L 143.460 170.124 L 144.301 170.839 L 145.160 171.534 L 146.035 172.208 L 146.926 172.860 L 147.834 173.490 L 148.756 174.097 L 149.693 174.682 L 150.644 175.243 L 151.609 175.781 L 152.586 176.295 L 153.576 176.785 L 154.578 177.250 L 155.590 177.691 L 156.614 178.107 L 157.647 178.497 L 158.689 178.862 L 159.740 179.202 L 160.799 179.515 L 161.866 179.802 L 162.939 180.063 L 164.018 180.298 L 165.103 180.506 L 166.192 180.688 L 167.286 180.842 L 168.383 180.970 L 169.482 181.071 L 170.584 181.145 L 171.688 181.192 L 172.792 181.211 L 173.896 181.204 L 175.000 181.169 L 176.103 181.107 L 177.204 181.019 L 178.302 180.903 L 179.397 180.760 L 180.489 180.591 L 181.576 180.395 L 182.657 180.172 L 183.733 179.923 L 184.803 179.647 L 185.865 179.345 L 186.920 179.018 L 187.966 178.664 L 189.004 178.285 L 190.031 177.881 L 191.049 177.451 L 192.056 176.997 L 193.051 176.518 L 194.034 176.015 L 195.004 175.487 L 195.962 174.937 L 196.905 174.362 L 197.834 173.765 L 198.748 173.145 L 199.647 172.503 L 200.530 171.839 L 201.396 171.154 L 202.245 170.448 L 203.076 169.721 L 203.889 168.973 L 204.684 168.206 L 205.460 167.420 L 206.216 166.615 L 206.952 165.792 L 207.668 164.951 L 208.362 164.092 L 209.036 163.217 L 209.688 162.326 L 210.318 161.418 L 210.925 160.496 L 211.510 159.559 L 212.071 158.608 L 212.609 157.643 L 213.123 156.666 L 213.613 155.676 L 214.078 154.674 L 214.519 153.661 L 214.935 152.638 L 215.325 151.605 L 215.690 150.563 L 216.030 149.512 L 216.343 148.453 L 216.630 147.386 L 216.892 146.313 L 217.126 145.234 L 217.334 144.149 L 217.516 143.060 L 217.671 141.966 L 217.798 140.869 L 217.899 139.769 L 217.973 138.668 L 218.020 137.564 L 218.039 136.460 L 218.042 136.029 L 218.045 135.845 L 218.050 135.662 L 218.057 135.479 L 218.066 135.296 L 218.077 135.114 L 218.090 134.931 L 218.105 134.749 L 218.122 134.567 L 218.141 134.385 L 218.163 134.203 L 218.186 134.022 L 218.211 133.842 L 218.238 133.661 L 218.267 133.481 L 218.298 133.302 L 218.331 133.123 L 218.365 132.945 L 218.402 132.767 L 218.441 132.590 L 218.481 132.414 L 218.524 132.238 L 218.568 132.063 L 218.615 131.888 L 218.663 131.715 L 218.713 131.542 L 218.764 131.370 L 218.818 131.199 L 218.873 131.028 L 218.931 130.859 L 218.990 130.690 L 219.050 130.523 L 219.113 130.356 L 219.177 130.191 L 219.243 130.026 L 219.311 129.863 L 219.380 129.700 L 219.451 129.539 L 219.524 129.378 L 219.598 129.219 L 219.674 129.061 L 219.751 128.905 L 219.830 128.749 L 219.911 128.595 L 219.993 128.442 L 220.077 128.290 L 220.162 128.140 L 220.248 127.991 L 220.336 127.843 L 220.426 127.696 L 220.516 127.551 L 220.609 127.407 L 220.702 127.265 L 220.797 127.124 L 220.893 126.985 L 220.991 126.847 L 221.090 126.710 L 221.190 126.575 L 221.291 126.442 L 221.394 126.310 L 221.497 126.179 L 221.602 126.050 L 221.708 125.923 L 221.815 125.797 L 221.924 125.673 L 222.033 125.550 L 222.143 125.429 L 222.255 125.309 L 222.367 125.191 L 222.480 125.075 L 222.595 124.961 L 222.710 124.848 L 222.826 124.736 L 222.943 124.626 L 223.061 124.518 L 223.180 124.412 L 223.300 124.307 L 223.421 124.204 L 223.542 124.103 L 223.664 124.003 L 223.787 123.905 L 223.911 123.809 L 224.035 123.714 L 224.160 123.621 L 224.286 123.530 L 224.412 123.440 L 224.539 123.353 L 224.667 123.266 L 224.795 123.182 L 224.924 123.099 L 225.053 123.018 L 225.183 122.939 L 225.314 122.861 L 225.445 122.786 L 225.576 122.711 L 225.708 122.639 L 225.840 122.568 L 225.973 122.499 L 226.107 122.432 L 226.240 122.366 L 226.375 122.302 L 226.509 122.240 L 226.644 122.179 L 226.779 122.121 L 226.915 122.063 L 227.051 122.008 L 227.187 121.954 L 227.324 121.902 L 227.461 121.852 L 227.598 121.803 L 227.735 121.756 L 227.873 121.711 L 228.011 121.667 L 228.149 121.625 L 228.287 121.585 L 228.426 121.546 L 228.565 121.509 L 228.704 121.474 L 228.843 121.440 L 228.982 121.408 L 229.122 121.378 L 229.261 121.349 L 229.401 121.322 L 229.541 121.297 L 229.681 121.273 L 229.821 121.251 L 229.961 121.230 L 230.102 121.212 L 230.242 121.194 L 230.382 121.179 L 230.523 121.165 L 230.664 121.153 L 230.804 121.142 L 230.945 121.133 L 231.086 121.126 L 231.227 121.120 L 231.367 121.116 L 231.508 121.114 L 231.780 121.112 L 364.017 121.112 L 365.572 121.122 L 366.987 121.148 L 368.401 121.192 L 369.815 121.254 L 371.228 121.333 L 372.640 121.430 L 374.051 121.544 L 375.460 121.676 L 376.868 121.825 L 378.274 121.992 L 379.679 122.176 L 381.081 122.378 L 382.481 122.598 L 383.878 122.834 L 385.272 123.088 L 386.664 123.360 L 388.052 123.649 L 389.437 123.955 L 390.819 124.278 L 392.197 124.619 L 393.571 124.977 L 394.941 125.351 L 396.307 125.743 L 397.668 126.152 L 399.024 126.578 L 400.376 127.021 L 401.723 127.481 L 403.064 127.958 L 404.400 128.451 L 405.730 128.961 L 407.055 129.488 L 408.373 130.031 L 409.686 130.591 L 410.991 131.167 L 412.291 131.760 L 413.583 132.369 L 414.869 132.994 L 416.148 133.635 L 417.419 134.292 L 418.683 134.965 L 419.939 135.655 L 421.187 136.359 L 422.427 137.080 L 423.659 137.816 L 424.882 138.568 L 426.097 139.335 L 427.303 140.117 L 428.500 140.915 L 429.688 141.727 L 430.867 142.555 L 432.036 143.398 L 433.196 144.255 L 434.346 145.127 L 435.485 146.013 L 436.615 146.914 L 437.734 147.829 L 438.842 148.759 L 439.940 149.702 L 441.027 150.659 L 442.103 151.630 L 443.168 152.615 L 444.222 153.613 L 445.264 154.625 L 446.294 155.650 L 447.312 156.688 L 448.318 157.739 L 449.313 158.802 L 450.295 159.879 L 451.264 160.968 L 452.221 162.069 L 453.165 163.182 L 454.096 164.308 L 455.014 165.445 L 455.919 166.594 L 456.810 167.755 L 457.688 168.927 L 458.552 170.110 L 459.403 171.304 L 460.239 172.509 L 461.062 173.725 L 461.870 174.951 L 462.664 176.188 L 463.443 177.435 L 464.208 178.692 L 464.959 179.958 L 465.694 181.234 L 466.414 182.520 L 467.120 183.815 L 467.810 185.119 L 468.485 186.432 L 469.145 187.753 L 469.789 189.083 L 470.417 190.421 L 471.030 191.767 L 471.627 193.121 L 472.208 194.483 L 472.773 195.852 L 473.321 197.229 L 473.854 198.612 L 474.370 200.002 L 474.870 201.399 L 475.354 202.802 L 475.821 204.212 L 476.271 205.627 L 476.705 207.049 L 477.122 208.475 L 477.522 209.907 L 477.905 211.345 L 478.271 212.787 L 478.620 214.233 L 478.952 215.685 L 479.267 217.140 L 479.565 218.599 L 479.845 220.063 L 480.109 221.529 L 480.354 223.000 L 480.583 224.473 L 480.794 225.949 L 480.987 227.427 L 481.163 228.909 L 481.322 230.392 L 481.463 231.877 L 481.586 233.364 L 481.692 234.853 L 481.780 236.342 L 481.851 237.833 L 481.904 239.325 L 481.939 240.817 L 481.957 242.310 L 481.957 243.802 L 481.939 245.295 L 481.904 246.787 L 481.851 248.279 L 481.780 249.770 L 481.692 251.259 L 481.586 252.748 L 481.463 254.235 L 481.322 255.720 L 481.163 257.203 L 480.987 258.685 L 480.794 260.163 L 480.583 261.639 L 480.354 263.112 L 480.109 264.583 L 479.845 266.049 L 479.565 267.513 L 479.267 268.972 L 478.952 270.427 L 478.620 271.879 L 478.271 273.325 L 477.905 274.767 L 477.522 276.205 L 477.122 277.637 L 476.705 279.063 L 476.271 280.485 L 475.821 281.900 L 475.354 283.310 L 474.870 284.713 L 474.370 286.110 L 473.854 287.500 L 473.321 288.883 L 472.773 290.260 L 472.208 291.629 L 471.627 292.991 L 471.030 294.345 L 470.417 295.691 L 469.789 297.029 L 469.145 298.359 L 468.485 299.680 L 467.810 300.993 L 467.120 302.297 L 466.414 303.592 L 465.694 304.878 L 464.959 306.154 L 464.208 307.420 L 463.443 308.677 L 462.664 309.924 L 461.870 311.161 L 461.062 312.387 L 460.239 313.603 L 459.403 314.808 L 458.552 316.002 L 457.688 317.185 L 456.810 318.357 L 455.919 319.518 L 455.014 320.667 L 454.096 321.804 L 453.165 322.930 L 452.221 324.043 L 451.264 325.144 L 450.295 326.233 L 449.313 327.310 L 448.318 328.373 L 447.312 329.424 L 446.294 330.462 L 445.264 331.487 L 444.222 332.499 L 443.168 333.497 L 442.103 334.482 L 441.027 335.453 L 439.940 336.410 L 438.842 337.353 L 437.734 338.283 L 436.615 339.198 L 435.485 340.099 L 434.346 340.985 L 433.196 341.857 L 432.036 342.714 L 430.867 343.557 L 429.688 344.385 L 428.500 345.197 L 427.303 345.995 L 426.097 346.777 L 424.882 347.544 L 423.659 348.296 L 422.427 349.032 L 421.187 349.753 L 419.939 350.457 L 418.683 351.147 L 417.419 351.820 L 416.148 352.477 L 414.869 353.118 L 413.583 353.743 L 412.291 354.352 L 410.991 354.945 L 409.686 355.521 L 408.373 356.081 L 407.055 356.624 L 405.730 357.151 L 404.400 357.661 L 403.064 358.154 L 401.723 358.631 L 400.376 359.091 L 399.024 359.534 L 397.668 359.960 L 396.307 360.369 L 394.941 360.761 L 393.571 361.135 L 392.197 361.493 L 390.819 361.834 L 389.437 362.157 L 388.052 362.463 L 386.664 362.752 L 385.272 363.024 L 383.878 363.278 L 382.481 363.514 L 381.081 363.734 L 379.679 363.936 L 378.274 364.120 L 376.868 364.287 L 375.460 364.436 L 374.051 364.568 L 372.640 364.682 L 371.228 364.779 L 369.815 364.858 L 368.401 364.920 L 366.987 364.964 L 365.572 364.990 L 364.017 365.000 L 253.309 365.000 L 252.205 365.014 L 251.101 365.054 L 249.999 365.122 L 248.898 365.217 L 247.801 365.338 L 246.706 365.487 L 245.616 365.663 L 244.530 365.865 L 243.450 366.093 L 242.375 366.349 L 241.307 366.630 L 240.246 366.938 L 239.193 367.271 L 238.149 367.631 L 237.114 368.015 L 236.088 368.425 L 235.073 368.861 L 234.069 369.320 L 233.077 369.805 L 232.096 370.314 L 231.129 370.846 L 230.174 371.402 L 229.234 371.982 L 228.308 372.584 L 227.398 373.209 L 226.503 373.856 L 225.624 374.524 L 224.761 375.215 L 223.916 375.926 L 223.089 376.657 L 222.280 377.409 L 221.489 378.180 L 220.718 378.971 L 219.966 379.780 L 219.235 380.607 L 218.524 381.452 L 217.833 382.315 L 217.165 383.194 L 216.518 384.089 L 215.893 384.999 L 215.291 385.925 L 214.711 386.865 L 214.155 387.820 L 213.623 388.787 L 213.114 389.767 L 212.630 390.760 L 212.170 391.764 L 211.734 392.779 L 211.324 393.805 L 210.940 394.840 L 210.580 395.884 L 210.247 396.937 L 209.939 397.998 L 209.658 399.066 L 209.402 400.140 L 209.174 401.221 L 208.972 402.307 L 208.796 403.397 L 208.647 404.492 L 208.526 405.589 L 208.431 406.690 L 208.363 407.792 L 208.323 408.896 L 208.309 410.000 L 208.323 411.104 L 208.363 412.208 L 208.431 413.310 L 208.526 414.411 L 208.647 415.508 L 208.796 416.603 L 208.972 417.693 L 209.174 418.779 L 209.402 419.860 L 209.658 420.934 L 209.939 422.002 L 210.247 423.063 L 210.580 424.116 L 210.940 425.160 L 211.324 426.195 L 211.734 427.221 L 212.170 428.236 L 212.630 429.240 L 213.114 430.233 L 213.623 431.213 L 214.155 432.180 L 214.711 433.135 L 215.291 434.075 L 215.893 435.001 L 216.518 435.911 L 217.165 436.806 L 217.833 437.685 L 218.524 438.548 L 219.235 439.393 L 219.966 440.220 L 220.718 441.029 L 221.489 441.820 L 222.280 442.591 L 223.089 443.343 L 223.916 444.074 L 224.761 444.785 L 225.624 445.476 L 226.503 446.144 L 227.398 446.791 L 228.308 447.416 L 229.234 448.018 L 230.174 448.598 L 231.129 449.154 L 232.096 449.686 L 233.077 450.195 L 234.069 450.680 L 235.073 451.139 L 236.088 451.575 L 237.114 451.985 L 238.149 452.369 L 239.193 452.729 L 240.246 453.062 L 241.307 453.370 L 242.375 453.651 L 243.450 453.907 L 244.530 454.135 L 245.616 454.337 L 246.706 454.513 L 247.801 454.662 L 248.898 454.783 L 249.999 454.878 L 251.101 454.946 L 252.205 454.986 L 253.309 455.000 L 364.017 455.000 L 365.572 455.010 L 366.987 455.036 L 368.401 455.080 L 369.815 455.142 L 371.228 455.221 L 372.640 455.318 L 374.051 455.432 L 375.460 455.564 L 376.868 455.713 L 378.274 455.880 L 379.679 456.064 L 381.081 456.266 L 382.481 456.486 L 383.878 456.722 L 385.272 456.976 L 386.664 457.248 L 388.052 457.537 L 389.437 457.843 L 390.819 458.166 L 392.197 458.507 L 393.571 458.865 L 394.941 459.239 L 396.307 459.631 L 397.668 460.040 L 399.024 460.466 L 400.376 460.909 L 401.723 461.369 L 403.064 461.846 L 404.400 462.339 L 405.730 462.849 L 407.055 463.376 L 408.373 463.919 L 409.686 464.479 L 410.991 465.055 L 412.291 465.648 L 413.583 466.257 L 414.869 466.882 L 416.148 467.523 L 417.419 468.180 L 418.683 468.853 L 419.939 469.543 L 421.187 470.247 L 422.427 470.968 L 423.659 471.704 L 424.882 472.456 L 426.097 473.223 L 427.303 474.005 L 428.500 474.803 L 429.688 475.615 L 430.867 476.443 L 432.036 477.286 L 433.196 478.143 L 434.346 479.015 L 435.485 479.901 L 436.615 480.802 L 437.734 481.717 L 438.842 482.647 L 439.940 483.590 L 441.027 484.547 L 442.103 485.518 L 443.168 486.503 L 444.222 487.501 L 445.264 488.513 L 446.294 489.538 L 447.312 490.576 L 448.318 491.627 L 449.313 492.690 L 450.295 493.767 L 451.264 494.856 L 452.221 495.957 L 453.165 497.070 L 454.096 498.196 L 455.014 499.333 L 455.919 500.482 L 456.810 501.643 L 457.688 502.815 L 458.552 503.998 L 459.403 505.192 L 460.239 506.397 L 461.062 507.613 L 461.870 508.839 L 462.664 510.076 L 463.443 511.323 L 464.208 512.580 L 464.959 513.846 L 465.694 515.122 L 466.414 516.408 L 467.120 517.703 L 467.810 519.007 L 468.485 520.320 L 469.145 521.641 L 469.789 522.971 L 470.417 524.309 L 471.030 525.655 L 471.627 527.009 L 472.208 528.371 L 472.773 529.740 L 473.321 531.117 L 473.854 532.500 L 474.370 533.890 L 474.870 535.287 L 475.354 536.690 L 475.821 538.100 L 476.271 539.515 L 476.705 540.937 L 477.122 542.363 L 477.522 543.795 L 477.905 545.233 L 478.271 546.675 L 478.620 548.121 L 478.952 549.573 L 479.267 551.028 L 479.565 552.487 L 479.845 553.951 L 480.109 555.417 L 480.354 556.888 L 480.583 558.361 L 480.794 559.837 L 480.987 561.315 L 481.163 562.797 L 481.322 564.280 L 481.463 565.765 L 481.586 567.252 L 481.692 568.741 L 481.780 570.230 L 481.851 571.721 L 481.904 573.213 L 481.939 574.705 L 481.957 576.198 L 481.957 577.690 L 481.939 579.183 L 481.904 580.675 L 481.851 582.167 L 481.780 583.658 L 481.692 585.147 L 481.586 586.636 L 481.463 588.123 L 481.322 589.608 L 481.163 591.091 L 480.987 592.573 L 480.794 594.051 L 480.583 595.527 L 480.354 597.000 L 480.109 598.471 L 479.845 599.937 L 479.565 601.401 L 479.267 602.860 L 478.952 604.315 L 478.620 605.767 L 478.271 607.213 L 477.905 608.655 L 477.522 610.093 L 477.122 611.525 L 476.705 612.951 L 476.271 614.373 L 475.821 615.788 L 475.354 617.198 L 474.870 618.601 L 474.370 619.998 L 473.854 621.388 L 473.321 622.771 L 472.773 624.148 L 472.208 625.517 L 471.627 626.879 L 471.030 628.233 L 470.417 629.579 L 469.789 630.917 L 469.145 632.247 L 468.485 633.568 L 467.810 634.881 L 467.120 636.185 L 466.414 637.480 L 465.694 638.766 L 464.959 640.042 L 464.208 641.308 L 463.443 642.565 L 462.664 643.812 L 461.870 645.049 L 461.062 646.275 L 460.239 647.491 L 459.403 648.696 L 458.552 649.890 L 457.688 651.073 L 456.810 652.245 L 455.919 653.406 L 455.014 654.555 L 454.096 655.692 L 453.165 656.818 L 452.221 657.931 L 451.264 659.032 L 450.295 660.121 L 449.313 661.198 L 448.318 662.261 L 447.312 663.312 L 446.294 664.350 L 445.264 665.375 L 444.222 666.387 L 443.168 667.385 L 442.103 668.370 L 441.027 669.341 L 439.940 670.298 L 438.842 671.241 L 437.734 672.171 L 436.615 673.086 L 435.485 673.987 L 434.346 674.873 L 433.196 675.745 L 432.036 676.602 L 430.867 677.445 L 429.688 678.273 L 428.500 679.085 L 427.303 679.883 L 426.097 680.665 L 424.882 681.432 L 423.659 682.184 L 422.427 682.920 L 421.187 683.641 L 419.939 684.345 L 418.683 685.035 L 417.419 685.708 L 416.148 686.365 L 414.869 687.006 L 413.583 687.631 L 412.291 688.240 L 410.991 688.833 L 409.686 689.409 L 408.373 689.969 L 407.055 690.512 L 405.730 691.039 L 404.400 691.549 L 403.064 692.042 L 401.723 692.519 L 400.376 692.979 L 399.024 693.422 L 397.668 693.848 L 396.307 694.257 L 394.941 694.649 L 393.571 695.023 L 392.197 695.381 L 390.819 695.722 L 389.437 696.045 L 388.052 696.351 L 386.664 696.640 L 385.272 696.912 L 383.878 697.166 L 382.481 697.402 L 381.081 697.622 L 379.679 697.824 L 378.274 698.008 L 376.868 698.175 L 375.460 698.324 L 374.051 698.456 L 372.640 698.570 L 371.228 698.667 L 369.815 698.746 L 368.401 698.808 L 366.987 698.852 L 365.572 698.878 L 364.017 698.888 L 231.780 698.888 L 231.508 698.886 L 231.367 698.884 L 231.227 698.880 L 231.086 698.874 L 230.945 698.867 L 230.804 698.858 L 230.664 698.847 L 230.523 698.835 L 230.382 698.821 L 230.242 698.806 L 230.102 698.788 L 229.961 698.770 L 229.821 698.749 L 229.681 698.727 L 229.541 698.703 L 229.401 698.678 L 229.261 698.651 L 229.122 698.622 L 228.982 698.592 L 228.843 698.560 L 228.704 698.526 L 228.565 698.491 L 228.426 698.454 L 228.287 698.415 L 228.149 698.375 L 228.011 698.333 L 227.873 698.289 L 227.735 698.244 L 227.598 698.197 L 227.461 698.148 L 227.324 698.098 L 227.187 698.046 L 227.051 697.992 L 226.915 697.937 L 226.779 697.879 L 226.644 697.821 L 226.509 697.760 L 226.375 697.698 L 226.240 697.634 L 226.107 697.568 L 225.973 697.501 L 225.840 697.432 L 225.708 697.361 L 225.576 697.289 L 225.445 697.214 L 225.314 697.139 L 225.183 697.061 L 225.053 696.982 L 224.924 696.901 L 224.795 696.818 L 224.667 696.734 L 224.539 696.647 L 224.412 696.560 L 224.286 696.470 L 224.160 696.379 L 224.035 696.286 L 223.911 696.191 L 223.787 696.095 L 223.664 695.997 L 223.542 695.897 L 223.421 695.796 L 223.300 695.693 L 223.180 695.588 L 223.061 695.482 L 222.943 695.374 L 222.826 695.264 L 222.710 695.152 L 222.595 695.039 L 222.480 694.925 L 222.367 694.809 L 222.255 694.691 L 222.143 694.571 L 222.033 694.450 L 221.924 694.327 L 221.815 694.203 L 221.708 694.077 L 221.602 693.950 L 221.497 693.821 L 221.394 693.690 L 221.291 693.558 L 221.190 693.425 L 221.090 693.290 L 220.991 693.153 L 220.893 693.015 L 220.797 692.876 L 220.702 692.735 L 220.609 692.593 L 220.516 692.449 L 220.426 692.304 L 220.336 692.157 L 220.248 692.009 L 220.162 691.860 L 220.077 691.710 L 219.993 691.558 L 219.911 691.405 L 219.830 691.251 L 219.751 691.095 L 219.674 690.939 L 219.598 690.781 L 219.524 690.622 L 219.451 690.461 L 219.380 690.300 L 219.311 690.137 L 219.243 689.974 L 219.177 689.809 L 219.113 689.644 L 219.050 689.477 L 218.990 689.310 L 218.931 689.141 L 218.873 688.972 L 218.818 688.801 L 218.764 688.630 L 218.713 688.458 L 218.663 688.285 L 218.615 688.112 L 218.568 687.937 L 218.524 687.762 L 218.481 687.586 L 218.441 687.410 L 218.402 687.233 L 218.365 687.055 L 218.331 686.877 L 218.298 686.698 L 218.267 686.519 L 218.238 686.339 L 218.211 686.158 L 218.186 685.978 L 218.163 685.797 L 218.141 685.615 L 218.122 685.433 L 218.105 685.251 L 218.090 685.069 L 218.077 684.886 L 218.066 684.704 L 218.057 684.521 L 218.050 684.338 L 218.045 684.155 L 218.042 683.971 L 218.039 683.540 L 218.020 682.436 L 217.973 681.332 L 217.899 680.231 L 217.798 679.131 L 217.671 678.034 L 217.516 676.940 L 217.334 675.851 L 217.126 674.766 L 216.892 673.687 L 216.630 672.614 L 216.343 671.547 L 216.030 670.488 L 215.690 669.437 L 215.325 668.395 L 214.935 667.362 L 214.519 666.339 L 214.078 665.326 L 213.613 664.324 L 213.123 663.334 L 212.609 662.357 L 212.071 661.392 L 211.510 660.441 L 210.925 659.504 L 210.318 658.582 L 209.688 657.674 L 209.036 656.783 L 208.362 655.908 L 207.668 655.049 L 206.952 654.208 L 206.216 653.385 L 205.460 652.580 L 204.684 651.794 L 203.889 651.027 L 203.076 650.279 L 202.245 649.552 L 201.396 648.846 L 200.530 648.161 L 199.647 647.497 L 198.748 646.855 L 197.834 646.235 L 196.905 645.638 L 195.962 645.063 L 195.004 644.513 L 194.034 643.985 L 193.051 643.482 L 192.056 643.003 L 191.049 642.549 L 190.031 642.119 L 189.004 641.715 L 187.966 641.336 L 186.920 640.982 L 185.865 640.655 L 184.803 640.353 L 183.733 640.077 L 182.657 639.828 L 181.576 639.605 L 180.489 639.409 L 179.397 639.240 L 178.302 639.097 L 177.204 638.981 L 176.103 638.893 L 175.000 638.831 L 173.896 638.796 L 172.792 638.789 L 171.688 638.808 L 170.584 638.855 L 169.482 638.929 L 168.383 639.030 L 167.286 639.158 L 166.192 639.312 L 165.103 639.494 L 164.018 639.702 L 162.939 639.937 L 161.866 640.198 L 160.799 640.485 L 159.740 640.798 L 158.689 641.138 L 157.647 641.503 L 156.614 641.893 L 155.590 642.309 L 154.578 642.750 L 153.576 643.215 L 152.586 643.705 L 151.609 644.219 L 150.644 644.757 L 149.693 645.318 L 148.756 645.903 L 147.834 646.510 L 146.926 647.140 L 146.035 647.792 L 145.160 648.466 L 144.301 649.161 L 143.460 649.876 L 142.637 650.612 L 141.832 651.369 L 141.045 652.144 L 140.278 652.939 L 139.531 653.752 L 138.804 654.584 L 138.098 655.433 L 137.412 656.299 L 136.749 657.181 L 136.106 658.080 L 135.487 658.994 L 134.890 659.923 L 134.315 660.867 L 133.764 661.824 L 133.237 662.794 L 132.734 663.777 L 132.255 664.773 L 131.801 665.779 L 131.371 666.797 L 130.967 667.824 L 130.588 668.862 L 130.234 669.908 L 129.906 670.963 L 129.605 672.025 L 129.329 673.095 L 129.080 674.171 L 128.857 675.252 L 128.661 676.339 L 128.491 677.431 L 128.349 678.526 L 128.233 679.624 L 128.144 680.725 L 128.083 681.828 L 128.048 682.932 L 128.041 684.036 L 128.044 684.715 L 128.050 685.211 L 128.061 685.890 L 128.072 686.386 L 128.091 687.065 L 128.107 687.561 L 128.133 688.239 L 128.155 688.735 L 128.189 689.413 L 128.216 689.908 L 128.257 690.586 L 128.290 691.081 L 128.339 691.758 L 128.377 692.253 L 128.433 692.930 L 128.477 693.424 L 128.540 694.100 L 128.589 694.594 L 128.660 695.269 L 128.715 695.762 L 128.793 696.437 L 128.853 696.929 L 128.939 697.603 L 129.005 698.095 L 129.098 698.767 L 129.169 699.258 L 129.269 699.930 L 129.346 700.420 L 129.454 701.090 L 129.536 701.580 L 129.651 702.249 L 129.738 702.738 L 129.861 703.405 L 129.954 703.893 L 130.084 704.559 L 130.182 705.047 L 130.319 705.711 L 130.423 706.197 L 130.567 706.860 L 130.676 707.345 L 130.828 708.006 L 130.942 708.490 L 131.102 709.149 L 131.221 709.632 L 131.388 710.289 L 131.513 710.771 L 131.686 711.426 L 131.817 711.907 L 131.998 712.560 L 132.133 713.039 L 132.322 713.690 L 132.463 714.168 L 132.658 714.816 L 132.804 715.293 L 133.007 715.939 L 133.158 716.414 L 133.368 717.058 L 133.525 717.531 L 133.741 718.173 L 133.904 718.645 L 134.127 719.284 L 134.295 719.754 L 134.526 720.390 L 134.698 720.858 L 134.936 721.492 L 135.114 721.959 L 135.359 722.590 L 135.542 723.054 L 135.794 723.682 L 135.982 724.145 L 136.241 724.770 L 136.434 725.231 L 136.700 725.853 L 136.899 726.312 L 137.171 726.931 L 137.375 727.388 L 137.654 728.004 L 137.863 728.458 L 138.149 729.071 L 138.363 729.523 L 138.656 730.133 L 138.875 730.583 L 139.175 731.189 L 139.399 731.637 L 139.705 732.239 L 139.935 732.685 L 140.247 733.283 L 140.482 733.727 L 140.801 734.322 L 141.041 734.763 L 141.367 735.354 L 141.611 735.792 L 141.943 736.380 L 142.193 736.816 L 142.532 737.399 L 142.786 737.832 L 143.132 738.412 L 143.391 738.843 L 143.743 739.418 L 144.007 739.846 L 144.365 740.418 L 144.634 740.843 L 144.998 741.410 L 145.273 741.832 L 145.643 742.395 L 145.922 742.815 L 146.299 743.373 L 146.583 743.790 L 146.965 744.344 L 147.254 744.758 L 147.643 745.308 L 147.936 745.718 L 148.331 746.263 L 148.629 746.671 L 149.030 747.211 L 149.333 747.616 L 149.740 748.152 L 150.047 748.553 L 150.460 749.084 L 150.772 749.482 L 151.190 750.008 L 151.507 750.402 L 151.932 750.924 L 152.253 751.315 L 152.683 751.832 L 153.009 752.219 L 153.445 752.731 L 153.775 753.115 L 154.216 753.622 L 154.552 754.002 L 154.998 754.504 L 155.338 754.881 L 155.790 755.377 L 156.134 755.750 L 156.592 756.241 L 156.940 756.611 L 157.403 757.096 L 157.756 757.462 L 158.224 757.942 L 158.581 758.304 L 159.055 758.779 L 159.416 759.137 L 159.895 759.607 L 160.261 759.961 L 160.745 760.425 L 161.114 760.775 L 161.603 761.233 L 161.977 761.579 L 162.471 762.032 L 162.849 762.374 L 163.348 762.821 L 163.730 763.159 L 164.234 763.599 L 164.621 763.933 L 165.129 764.368 L 165.519 764.698 L 166.033 765.127 L 166.427 765.453 L 166.945 765.876 L 167.343 766.197 L 167.866 766.614 L 168.268 766.930 L 168.795 767.341 L 169.201 767.654 L 169.732 768.059 L 170.142 768.366 L 170.678 768.765 L 171.091 769.068 L 171.632 769.461 L 172.048 769.760 L 172.593 770.146 L 173.014 770.440 L 173.563 770.820 L 173.987 771.109 L 174.540 771.482 L 174.967 771.767 L 175.525 772.134 L 175.956 772.414 L 176.517 772.775 L 176.951 773.050 L 177.517 773.404 L 177.954 773.674 L 178.523 774.022 L 178.964 774.287 L 179.537 774.628 L 179.981 774.888 L 180.558 775.222 L 181.005 775.478 L 181.585 775.805 L 182.036 776.056 L 182.620 776.377 L 183.073 776.622 L 183.661 776.936 L 184.117 777.177 L 184.708 777.483 L 185.167 777.719 L 185.761 778.019 L 186.224 778.249 L 186.821 778.542 L 187.286 778.767 L 187.887 779.053 L 188.354 779.273 L 188.958 779.552 L 189.429 779.767 L 190.036 780.039 L 190.509 780.248 L 191.118 780.513 L 191.594 780.717 L 192.207 780.975 L 192.685 781.173 L 193.300 781.424 L 193.781 781.617 L 194.399 781.861 L 194.882 782.049 L 195.503 782.285 L 195.989 782.467 L 196.612 782.697 L 197.099 782.873 L 197.725 783.095 L 198.215 783.266 L 198.843 783.481 L 199.335 783.646 L 199.966 783.854 L 200.460 784.013 L 201.093 784.214 L 201.589 784.367 L 202.224 784.560 L 202.721 784.709 L 203.358 784.894 L 203.858 785.037 L 204.497 785.215 L 204.999 785.352 L 205.640 785.523 L 206.143 785.654 L 206.786 785.817 L 207.290 785.942 L 207.935 786.098 L 208.441 786.217 L 209.087 786.366 L 209.595 786.479 L 210.243 786.620 L 210.752 786.728 L 211.401 786.861 L 211.912 786.963 L 212.563 787.089 L 213.074 787.185 L 213.727 787.303 L 214.239 787.393 L 214.893 787.504 L 215.407 787.588 L 216.062 787.692 L 216.577 787.770 L 217.232 787.865 L 217.748 787.937 L 218.405 788.025 L 218.922 788.092 L 219.579 788.172 L 220.097 788.232 L 220.756 788.305 L 221.274 788.359 L 221.933 788.425 L 222.452 788.473 L 223.112 788.530 L 223.632 788.572 L 224.292 788.622 L 224.812 788.659 L 225.473 788.701 L 225.994 788.731 L 226.655 788.765 L 227.176 788.790 L 227.838 788.816 L 228.359 788.835 L 229.021 788.854 L 229.542 788.866 L 230.205 788.877 L 230.726 788.883 L 231.388 788.887 L 231.649 788.888 L 364.157 788.888 L 364.297 788.886 L 364.437 788.887 L 366.411 788.875 L 366.971 788.868 L 368.945 788.831 L 369.505 788.817 L 371.479 788.756 L 372.038 788.735 L 374.011 788.649 L 374.570 788.621 L 376.542 788.511 L 377.100 788.476 L 379.071 788.341 L 379.629 788.299 L 381.597 788.140 L 382.155 788.091 L 384.121 787.907 L 384.678 787.851 L 386.642 787.643 L 387.198 787.581 L 389.160 787.348 L 389.715 787.278 L 391.673 787.021 L 392.227 786.945 L 394.183 786.663 L 394.736 786.580 L 396.688 786.274 L 397.240 786.184 L 399.188 785.854 L 399.738 785.758 L 401.683 785.403 L 402.232 785.300 L 404.172 784.921 L 404.719 784.811 L 406.655 784.408 L 407.201 784.291 L 409.131 783.864 L 409.676 783.741 L 411.601 783.290 L 412.144 783.159 L 414.063 782.685 L 414.604 782.548 L 416.518 782.049 L 417.057 781.905 L 418.965 781.383 L 419.502 781.233 L 421.404 780.687 L 421.939 780.530 L 423.834 779.960 L 424.367 779.797 L 426.255 779.204 L 426.785 779.033 L 428.666 778.417 L 429.195 778.240 L 431.068 777.601 L 431.594 777.417 L 433.460 776.754 L 433.983 776.565 L 435.841 775.879 L 436.362 775.683 L 438.211 774.974 L 438.729 774.771 L 440.571 774.039 L 441.086 773.830 L 442.918 773.075 L 443.430 772.861 L 445.254 772.083 L 445.763 771.862 L 447.577 771.061 L 448.084 770.834 L 449.888 770.011 L 450.391 769.778 L 452.186 768.933 L 452.686 768.693 L 454.471 767.826 L 454.968 767.580 L 456.742 766.691 L 457.235 766.439 L 458.999 765.528 L 459.489 765.270 L 461.241 764.337 L 461.728 764.073 L 463.469 763.118 L 463.953 762.849 L 465.683 761.872 L 466.162 761.597 L 467.880 760.599 L 468.357 760.319 L 470.063 759.299 L 470.535 759.013 L 472.229 757.972 L 472.698 757.680 L 474.379 756.619 L 474.844 756.321 L 476.513 755.239 L 476.974 754.936 L 478.630 753.832 L 479.086 753.524 L 480.729 752.400 L 481.182 752.087 L 482.811 750.942 L 483.260 750.623 L 484.876 749.459 L 485.320 749.135 L 486.922 747.950 L 487.362 747.621 L 488.950 746.417 L 489.385 746.082 L 490.959 744.858 L 491.390 744.518 L 492.949 743.275 L 493.376 742.930 L 494.920 741.668 L 495.342 741.318 L 496.871 740.036 L 497.289 739.681 L 498.803 738.381 L 499.216 738.021 L 500.714 736.702 L 501.123 736.338 L 502.605 735.000 L 503.009 734.631 L 504.476 733.274 L 504.875 732.901 L 506.325 731.526 L 506.720 731.148 L 508.154 729.756 L 508.543 729.373 L 509.961 727.963 L 510.345 727.576 L 511.746 726.148 L 512.126 725.756 L 513.509 724.311 L 513.884 723.915 L 515.250 722.453 L 515.620 722.053 L 516.969 720.574 L 517.334 720.170 L 518.665 718.674 L 519.025 718.266 L 520.338 716.754 L 520.692 716.341 L 521.988 714.813 L 522.337 714.396 L 523.615 712.852 L 523.958 712.431 L 525.218 710.871 L 525.556 710.447 L 526.797 708.871 L 527.130 708.443 L 528.352 706.852 L 528.679 706.420 L 529.882 704.814 L 530.205 704.378 L 531.388 702.757 L 531.705 702.318 L 532.870 700.683 L 533.181 700.240 L 534.326 698.590 L 534.632 698.144 L 535.758 696.480 L 536.058 696.030 L 537.164 694.353 L 537.459 693.900 L 538.544 692.208 L 538.834 691.752 L 539.899 690.047 L 540.183 689.588 L 541.228 687.870 L 541.506 687.407 L 542.531 685.677 L 542.803 685.211 L 543.808 683.468 L 544.074 682.999 L 545.058 681.243 L 545.319 680.772 L 546.282 679.004 L 546.537 678.530 L 547.479 676.750 L 547.728 676.273 L 548.648 674.482 L 548.892 674.002 L 549.791 672.199 L 550.029 671.717 L 550.907 669.903 L 551.138 669.418 L 551.995 667.594 L 552.220 667.106 L 553.056 665.271 L 553.275 664.781 L 554.088 662.936 L 554.302 662.444 L 555.093 660.588 L 555.301 660.094 L 556.071 658.229 L 556.272 657.732 L 557.020 655.858 L 557.215 655.359 L 557.940 653.475 L 558.130 652.974 L 558.833 651.082 L 559.016 650.579 L 559.696 648.678 L 559.874 648.173 L 560.532 646.263 L 560.703 645.756 L 561.338 643.839 L 561.503 643.330 L 562.116 641.405 L 562.275 640.895 L 562.865 638.962 L 563.018 638.450 L 563.584 636.510 L 563.731 635.996 L 564.275 634.050 L 564.416 633.534 L 564.936 631.581 L 565.071 631.064 L 565.569 629.105 L 565.697 628.586 L 566.171 626.621 L 566.293 626.101 L 566.745 624.130 L 566.860 623.609 L 567.288 621.632 L 567.398 621.110 L 567.802 619.128 L 567.906 618.605 L 568.287 616.618 L 568.384 616.093 L 568.741 614.102 L 568.832 613.577 L 569.166 611.581 L 569.251 611.055 L 569.561 609.055 L 569.639 608.528 L 569.926 606.524 L 569.998 605.996 L 570.261 603.989 L 570.327 603.461 L 570.566 601.451 L 570.625 600.921 L 570.841 598.908 L 570.894 598.379 L 571.085 596.363 L 571.133 595.833 L 571.300 593.815 L 571.341 593.284 L 571.485 591.265 L 571.519 590.733 L 571.639 588.712 L 571.667 588.180 L 571.763 586.158 L 571.785 585.626 L 571.857 583.602 L 571.873 583.070 L 571.920 581.046 L 571.930 580.514 L 571.954 578.489 L 571.957 577.956 L 571.957 575.932 L 571.954 575.399 L 571.930 573.374 L 571.920 572.842 L 571.873 570.818 L 571.857 570.286 L 571.785 568.262 L 571.763 567.730 L 571.667 565.708 L 571.639 565.176 L 571.519 563.155 L 571.485 562.623 L 571.341 560.604 L 571.300 560.073 L 571.133 558.055 L 571.085 557.525 L 570.894 555.509 L 570.841 554.980 L 570.625 552.967 L 570.566 552.437 L 570.327 550.427 L 570.261 549.899 L 569.998 547.892 L 569.926 547.364 L 569.639 545.360 L 569.561 544.833 L 569.251 542.833 L 569.166 542.307 L 568.832 540.311 L 568.741 539.786 L 568.384 537.795 L 568.287 537.270 L 567.906 535.283 L 567.802 534.760 L 567.398 532.778 L 567.288 532.256 L 566.860 530.279 L 566.745 529.758 L 566.293 527.787 L 566.171 527.267 L 565.697 525.302 L 565.569 524.783 L 565.071 522.824 L 564.936 522.307 L 564.416 520.354 L 564.275 519.838 L 563.731 517.892 L 563.584 517.378 L 563.018 515.438 L 562.865 514.926 L 562.275 512.993 L 562.116 512.483 L 561.503 510.558 L 561.338 510.049 L 560.703 508.132 L 560.532 507.625 L 559.874 505.715 L 559.696 505.210 L 559.016 503.309 L 558.833 502.806 L 558.130 500.914 L 557.940 500.413 L 557.215 498.529 L 557.020 498.030 L 556.272 496.156 L 556.071 495.659 L 555.301 493.794 L 555.093 493.300 L 554.302 491.444 L 554.088 490.952 L 553.275 489.107 L 553.056 488.617 L 552.220 486.782 L 551.995 486.294 L 551.138 484.470 L 550.907 483.985 L 550.029 482.171 L 549.791 481.689 L 548.892 479.886 L 548.648 479.406 L 547.728 477.615 L 547.479 477.138 L 546.537 475.358 L 546.282 474.884 L 545.319 473.116 L 545.058 472.645 L 544.074 470.889 L 543.808 470.420 L 542.803 468.677 L 542.531 468.211 L 541.506 466.481 L 541.228 466.018 L 540.183 464.300 L 539.899 463.841 L 538.834 462.136 L 538.544 461.680 L 537.459 459.988 L 537.164 459.535 L 536.058 457.858 L 535.758 457.408 L 534.632 455.744 L 534.326 455.298 L 533.181 453.648 L 532.870 453.205 L 531.705 451.570 L 531.388 451.131 L 530.205 449.510 L 529.882 449.074 L 528.679 447.468 L 528.352 447.036 L 527.130 445.445 L 526.797 445.017 L 525.556 443.441 L 525.218 443.017 L 523.958 441.457 L 523.615 441.036 L 522.337 439.492 L 521.988 439.075 L 520.692 437.547 L 520.338 437.134 L 519.025 435.622 L 518.665 435.214 L 517.334 433.718 L 516.969 433.314 L 515.620 431.835 L 515.250 431.435 L 513.884 429.973 L 513.509 429.577 L 512.126 428.132 L 511.746 427.740 L 510.345 426.312 L 509.961 425.925 L 508.543 424.515 L 508.154 424.132 L 506.720 422.740 L 506.325 422.362 L 504.875 420.987 L 504.476 420.614 L 503.009 419.257 L 502.605 418.888 L 501.123 417.550 L 500.714 417.186 L 499.216 415.867 L 498.803 415.507 L 497.289 414.207 L 496.871 413.852 L 495.342 412.570 L 494.920 412.220 L 493.376 410.958 L 492.949 410.613 L 492.181 410.000 L 492.949 409.387 L 493.376 409.042 L 494.920 407.780 L 495.342 407.430 L 496.871 406.148 L 497.289 405.793 L 498.803 404.493 L 499.216 404.133 L 500.714 402.814 L 501.123 402.450 L 502.605 401.112 L 503.009 400.743 L 504.476 399.386 L 504.875 399.013 L 506.325 397.638 L 506.720 397.260 L 508.154 395.868 L 508.543 395.485 L 509.961 394.075 L 510.345 393.688 L 511.746 392.260 L 512.126 391.868 L 513.509 390.423 L 513.884 390.027 L 515.250 388.565 L 515.620 388.165 L 516.969 386.686 L 517.334 386.282 L 518.665 384.786 L 519.025 384.378 L 520.338 382.866 L 520.692 382.453 L 521.988 380.925 L 522.337 380.508 L 523.615 378.964 L 523.958 378.543 L 525.218 376.983 L 525.556 376.559 L 526.797 374.983 L 527.130 374.555 L 528.352 372.964 L 528.679 372.532 L 529.882 370.926 L 530.205 370.490 L 531.388 368.869 L 531.705 368.430 L 532.870 366.795 L 533.181 366.352 L 534.326 364.702 L 534.632 364.256 L 535.758 362.592 L 536.058 362.142 L 537.164 360.465 L 537.459 360.012 L 538.544 358.320 L 538.834 357.864 L 539.899 356.159 L 540.183 355.700 L 541.228 353.982 L 541.506 353.519 L 542.531 351.789 L 542.803 351.323 L 543.808 349.580 L 544.074 349.111 L 545.058 347.355 L 545.319 346.884 L 546.282 345.116 L 546.537 344.642 L 547.479 342.862 L 547.728 342.385 L 548.648 340.594 L 548.892 340.114 L 549.791 338.311 L 550.029 337.829 L 550.907 336.015 L 551.138 335.530 L 551.995 333.706 L 552.220 333.218 L 553.056 331.383 L 553.275 330.893 L 554.088 329.048 L 554.302 328.556 L 555.093 326.700 L 555.301 326.206 L 556.071 324.341 L 556.272 323.844 L 557.020 321.970 L 557.215 321.471 L 557.940 319.587 L 558.130 319.086 L 558.833 317.194 L 559.016 316.691 L 559.696 314.790 L 559.874 314.285 L 560.532 312.375 L 560.703 311.868 L 561.338 309.951 L 561.503 309.442 L 562.116 307.517 L 562.275 307.007 L 562.865 305.074 L 563.018 304.562 L 563.584 302.622 L 563.731 302.108 L 564.275 300.162 L 564.416 299.646 L 564.936 297.693 L 565.071 297.176 L 565.569 295.217 L 565.697 294.698 L 566.171 292.733 L 566.293 292.213 L 566.745 290.242 L 566.860 289.721 L 567.288 287.744 L 567.398 287.222 L 567.802 285.240 L 567.906 284.717 L 568.287 282.730 L 568.384 282.205 L 568.741 280.214 L 568.832 279.689 L 569.166 277.693 L 569.251 277.167 L 569.561 275.167 L 569.639 274.640 L 569.926 272.636 L 569.998 272.108 L 570.261 270.101 L 570.327 269.573 L 570.566 267.563 L 570.625 267.033 L 570.841 265.020 L 570.894 264.491 L 571.085 262.475 L 571.133 261.945 L 571.300 259.927 L 571.341 259.396 L 571.485 257.377 L 571.519 256.845 L 571.639 254.824 L 571.667 254.292 L 571.763 252.270 L 571.785 251.738 L 571.857 249.714 L 571.873 249.182 L 571.920 247.158 L 571.930 246.626 L 571.954 244.601 L 571.957 244.068 L 571.957 242.044 L 571.954 241.511 L 571.930 239.486 L 571.920 238.954 L 571.873 236.930 L 571.857 236.398 L 571.785 234.374 L 571.763 233.842 L 571.667 231.820 L 571.639 231.288 L 571.519 229.267 L 571.485 228.735 L 571.341 226.716 L 571.300 226.185 L 571.133 224.167 L 571.085 223.637 L 570.894 221.621 L 570.841 221.092 L 570.625 219.079 L 570.566 218.549 L 570.327 216.539 L 570.261 216.011 L 569.998 214.004 L 569.926 213.476 L 569.639 211.472 L 569.561 210.945 L 569.251 208.945 L 569.166 208.419 L 568.832 206.423 L 568.741 205.898 L 568.384 203.907 L 568.287 203.382 L 567.906 201.395 L 567.802 200.872 L 567.398 198.890 L 567.288 198.368 L 566.860 196.391 L 566.745 195.870 L 566.293 193.899 L 566.171 193.379 L 565.697 191.414 L 565.569 190.895 L 565.071 188.936 L 564.936 188.419 L 564.416 186.466 L 564.275 185.950 L 563.731 184.004 L 563.584 183.490 L 563.018 181.550 L 562.865 181.038 L 562.275 179.105 L 562.116 178.595 L 561.503 176.670 L 561.338 176.161 L 560.703 174.244 L 560.532 173.737 L 559.874 171.827 L 559.696 171.322 L 559.016 169.421 L 558.833 168.918 L 558.130 167.026 L 557.940 166.525 L 557.215 164.641 L 557.020 164.142 L 556.272 162.268 L 556.071 161.771 L 555.301 159.906 L 555.093 159.412 L 554.302 157.556 L 554.088 157.064 L 553.275 155.219 L 553.056 154.729 L 552.220 152.894 L 551.995 152.406 L 551.138 150.582 L 550.907 150.097 L 550.029 148.283 L 549.791 147.801 L 548.892 145.998 L 548.648 145.518 L 547.728 143.727 L 547.479 143.250 L 546.537 141.470 L 546.282 140.996 L 545.319 139.228 L 545.058 138.757 L 544.074 137.001 L 543.808 136.532 L 542.803 134.789 L 542.531 134.323 L 541.506 132.593 L 541.228 132.130 L 540.183 130.412 L 539.899 129.953 L 538.834 128.248 L 538.544 127.792 L 537.459 126.100 L 537.164 125.647 L 536.058 123.970 L 535.758 123.520 L 534.632 121.856 L 534.326 121.410 L 533.181 119.760 L 532.870 119.317 L 531.705 117.682 L 531.388 117.243 L 530.205 115.622 L 529.882 115.186 L 528.679 113.580 L 528.352 113.148 L 527.130 111.557 L 526.797 111.129 L 525.556 109.553 L 525.218 109.129 L 523.958 107.569 L 523.615 107.148 L 522.337 105.604 L 521.988 105.187 L 520.692 103.659 L 520.338 103.246 L 519.025 101.734 L 518.665 101.326 L 517.334 99.830 L 516.969 99.426 L 515.620 97.947 L 515.250 97.547 L 513.884 96.085 L 513.509 95.689 L 512.126 94.244 L 511.746 93.852 L 510.345 92.424 L 509.961 92.037 L 508.543 90.627 L 508.154 90.244 L 506.720 88.852 L 506.325 88.474 L 504.875 87.099 L 504.476 86.726 L 503.009 85.369 L 502.605 85.000 L 501.123 83.662 L 500.714 83.298 L 499.216 81.979 L 498.803 81.619 L 497.289 80.319 L 496.871 79.964 L 495.342 78.682 L 494.920 78.332 L 493.376 77.070 L 492.949 76.725 L 491.390 75.482 L 490.959 75.142 L 489.385 73.918 L 488.950 73.583 L 487.362 72.379 L 486.922 72.050 L 485.320 70.865 L 484.876 70.541 L 483.260 69.377 L 482.811 69.058 L 481.182 67.913 L 480.729 67.600 L 479.086 66.476 L 478.630 66.168 L 476.974 65.064 L 476.513 64.761 L 474.844 63.679 L 474.379 63.381 L 472.698 62.320 L 472.229 62.028 L 470.535 60.987 L 470.063 60.701 L 468.357 59.681 L 467.880 59.401 L 466.162 58.403 L 465.683 58.128 L 463.953 57.151 L 463.469 56.882 L 461.728 55.927 L 461.241 55.663 L 459.489 54.730 L 458.999 54.472 L 457.235 53.561 L 456.742 53.309 L 454.968 52.420 L 454.471 52.174 L 452.686 51.307 L 452.186 51.067 L 450.391 50.222 L 449.888 49.989 L 448.084 49.166 L 447.577 48.939 L 445.763 48.138 L 445.254 47.917 L 443.430 47.139 L 442.918 46.925 L 441.086 46.170 L 440.571 45.961 L 438.729 45.229 L 438.211 45.026 L 436.362 44.317 L 435.841 44.121 L 433.983 43.435 L 433.460 43.246 L 431.594 42.583 L 431.068 42.399 L 429.195 41.760 L 428.666 41.583 L 426.785 40.967 L 426.255 40.796 L 424.367 40.203 L 423.834 40.040 L 421.939 39.470 L 421.404 39.313 L 419.502 38.767 L 418.965 38.617 L 417.057 38.095 L 416.518 37.951 L 414.604 37.452 L 414.063 37.315 L 412.144 36.841 L 411.601 36.710 L 409.676 36.259 L 409.131 36.136 L 407.201 35.709 L 406.655 35.592 L 404.719 35.189 L 404.172 35.079 L 402.232 34.700 L 401.683 34.597 L 399.738 34.242 L 399.188 34.146 L 397.240 33.816 L 396.688 33.726 L 394.736 33.420 L 394.183 33.337 L 392.227 33.055 L 391.673 32.979 L 389.715 32.722 L 389.160 32.652 L 387.198 32.419 L 386.642 32.357 L 384.678 32.149 L 384.121 32.093 L 382.155 31.909 L 381.597 31.860 L 379.629 31.701 L 379.071 31.659 L 377.100 31.524 L 376.542 31.489 L 374.570 31.379 L 374.011 31.351 L 372.038 31.265 L 371.479 31.244 L 369.505 31.183 L 368.945 31.169 L 366.971 31.132 L 366.411 31.125 L 364.437 31.113 L 364.297 31.114 L 364.157 31.112 L 231.649 31.112 L 231.388 31.113 L 230.726 31.117 Z" fill="black" fill-rule="evenodd"/>
</svg>
