<svg xmlns="http://www.w3.org/2000/svg" viewBox="0 0 600.000 1000" width="600.000" height="1000">
  <path d="M 375.228 694.444 L 373.481 696.623 L 371.711 698.746 L 369.919 700.810 L 368.107 702.817 L 366.275 704.765 L 364.425 706.653 L 362.559 708.483 L 360.677 710.252 L 358.781 711.962 L 356.872 713.611 L 354.950 715.201 L 353.018 716.730 L 351.077 718.198 L 349.126 719.606 L 347.168 720.954 L 345.204 722.243 L 343.234 723.471 L 341.259 724.640 L 339.281 725.749 L 337.300 726.800 L 335.316 727.793 L 333.331 728.727 L 331.345 729.604 L 329.358 730.424 L 327.372 731.187 L 325.386 731.895 L 323.401 732.546 L 321.417 733.143 L 319.434 733.685 L 317.452 734.173 L 315.472 734.608 L 313.493 734.989 L 311.516 735.318 L 309.539 735.594 L 307.564 735.817 L 305.590 735.989 L 303.617 736.110 L 301.644 736.178 L 299.671 736.195 L 297.698 736.161 L 295.725 736.075 L 293.752 735.938 L 291.777 735.749 L 289.802 735.507 L 287.825 735.214 L 285.848 734.868 L 283.868 734.469 L 281.888 734.017 L 279.906 733.511 L 277.922 732.950 L 275.938 732.335 L 273.952 731.665 L 271.966 730.939 L 269.979 730.157 L 267.993 729.318 L 266.007 728.422 L 264.022 727.468 L 262.039 726.457 L 260.059 725.386 L 258.082 724.257 L 256.109 723.068 L 254.141 721.820 L 252.178 720.512 L 250.223 719.144 L 248.275 717.715 L 246.337 716.227 L 244.408 714.678 L 242.491 713.068 L 240.585 711.399 L 238.694 709.669 L 236.817 707.880 L 234.956 706.030 L 233.112 704.122 L 231.287 702.154 L 229.481 700.128 L 227.696 698.044 L 225.934 695.903 L 224.194 693.705 L 222.480 691.451 L 220.791 689.141 L 219.129 686.777 L 217.495 684.359 L 215.891 681.888 L 214.317 679.366 L 212.775 676.792 L 211.266 674.168 L 209.791 671.496 L 208.350 668.776 L 206.946 666.009 L 205.578 663.197 L 204.249 660.341 L 202.958 657.441 L 201.707 654.501 L 200.497 651.519 L 199.329 648.499 L 198.203 645.442 L 197.120 642.348 L 196.081 639.220 L 195.087 636.058 L 194.138 632.865 L 193.235 629.641 L 192.379 626.388 L 191.570 623.109 L 190.809 619.804 L 190.096 616.474 L 189.432 613.123 L 188.818 609.750 L 188.253 606.358 L 187.738 602.949 L 187.274 599.524 L 186.861 596.084 L 186.498 592.632 L 186.187 589.168 L 185.928 585.696 L 185.720 582.216 L 185.564 578.730 L 185.460 575.240 L 185.408 571.747 L 185.408 568.253 L 185.460 564.760 L 185.564 561.270 L 185.720 557.784 L 185.928 554.304 L 186.187 550.832 L 186.498 547.368 L 186.861 543.916 L 187.274 540.476 L 187.738 537.051 L 188.253 533.642 L 188.818 530.250 L 189.432 526.877 L 190.096 523.526 L 190.809 520.196 L 191.570 516.891 L 192.379 513.612 L 193.235 510.359 L 194.138 507.135 L 195.087 503.942 L 196.081 500.780 L 197.120 497.652 L 198.203 494.558 L 199.329 491.501 L 200.497 488.481 L 201.707 485.499 L 202.958 482.559 L 204.249 479.659 L 205.578 476.803 L 206.946 473.991 L 208.350 471.224 L 209.791 468.504 L 211.266 465.832 L 212.775 463.208 L 214.317 460.634 L 215.891 458.112 L 217.495 455.641 L 219.129 453.223 L 220.791 450.859 L 222.480 448.549 L 224.194 446.295 L 225.934 444.097 L 227.696 441.956 L 229.481 439.872 L 231.287 437.846 L 233.112 435.878 L 234.956 433.970 L 236.817 432.120 L 238.694 430.331 L 240.585 428.601 L 242.491 426.932 L 244.408 425.322 L 246.337 423.773 L 248.275 422.285 L 250.223 420.856 L 252.178 419.488 L 254.141 418.180 L 256.109 416.932 L 258.082 415.743 L 260.059 414.614 L 262.039 413.543 L 264.022 412.532 L 266.007 411.578 L 267.993 410.682 L 269.979 409.843 L 271.966 409.061 L 273.952 408.335 L 275.938 407.665 L 277.922 407.050 L 279.906 406.489 L 281.888 405.983 L 283.868 405.531 L 285.848 405.132 L 287.825 404.786 L 289.802 404.493 L 291.777 404.251 L 293.752 404.062 L 295.725 403.925 L 297.698 403.839 L 299.671 403.805 L 301.644 403.822 L 303.617 403.890 L 305.590 404.011 L 307.564 404.183 L 309.539 404.406 L 311.516 404.682 L 313.493 405.011 L 315.472 405.392 L 317.452 405.827 L 319.434 406.315 L 321.417 406.857 L 323.401 407.454 L 325.386 408.105 L 327.372 408.813 L 329.358 409.576 L 331.345 410.396 L 333.331 411.273 L 335.316 412.207 L 337.300 413.200 L 339.281 414.251 L 341.259 415.360 L 343.234 416.529 L 345.204 417.757 L 347.168 419.046 L 349.126 420.394 L 351.077 421.802 L 353.018 423.270 L 354.950 424.799 L 356.872 426.389 L 358.781 428.038 L 360.677 429.748 L 362.559 431.517 L 364.425 433.347 L 366.275 435.235 L 368.107 437.183 L 369.919 439.190 L 371.711 441.254 L 373.481 443.377 L 375.228 445.556 L 377.212 448.130 L 377.897 448.996 L 378.603 449.845 L 379.329 450.677 L 380.076 451.491 L 380.843 452.286 L 381.629 453.062 L 382.433 453.819 L 383.256 454.555 L 384.097 455.271 L 384.955 455.967 L 385.830 456.641 L 386.721 457.293 L 387.628 457.923 L 388.550 458.531 L 389.487 459.116 L 390.438 459.678 L 391.402 460.217 L 392.379 460.731 L 393.369 461.222 L 394.370 461.688 L 395.383 462.129 L 396.406 462.545 L 397.438 462.936 L 398.481 463.302 L 399.531 463.642 L 400.590 463.956 L 401.657 464.244 L 402.730 464.505 L 403.809 464.741 L 404.893 464.949 L 405.983 465.131 L 407.076 465.287 L 408.173 465.415 L 409.273 465.516 L 410.375 465.591 L 411.478 465.638 L 412.582 465.658 L 413.687 465.651 L 414.791 465.617 L 415.893 465.556 L 416.994 465.468 L 418.093 465.353 L 419.188 465.211 L 420.279 465.042 L 421.366 464.847 L 422.448 464.624 L 423.524 464.376 L 424.594 464.101 L 425.657 463.800 L 426.711 463.472 L 427.758 463.119 L 428.796 462.741 L 429.823 462.337 L 430.841 461.908 L 431.848 461.454 L 432.844 460.976 L 433.827 460.473 L 434.798 459.946 L 435.755 459.396 L 436.699 458.822 L 437.628 458.226 L 438.543 457.606 L 439.442 456.965 L 440.325 456.301 L 441.191 455.616 L 442.041 454.910 L 442.872 454.184 L 443.686 453.437 L 444.481 452.671 L 445.257 451.885 L 446.014 451.080 L 446.750 450.257 L 447.467 449.416 L 448.162 448.558 L 448.836 447.683 L 449.488 446.792 L 450.119 445.885 L 450.726 444.963 L 451.312 444.026 L 451.873 443.076 L 452.412 442.111 L 452.926 441.134 L 453.417 440.144 L 453.883 439.143 L 454.324 438.131 L 454.740 437.108 L 455.131 436.075 L 455.497 435.033 L 455.837 433.982 L 456.151 432.923 L 456.439 431.857 L 456.700 430.784 L 456.936 429.705 L 457.144 428.620 L 457.326 427.531 L 457.482 426.437 L 457.610 425.340 L 457.711 424.241 L 457.786 423.139 L 457.833 422.035 L 457.853 420.931 L 457.847 419.827 L 457.813 418.723 L 457.751 417.620 L 457.663 416.519 L 457.548 415.421 L 457.406 414.325 L 457.237 413.234 L 457.042 412.147 L 456.820 411.065 L 456.571 409.989 L 456.296 408.919 L 455.995 407.857 L 455.668 406.802 L 455.315 405.755 L 454.936 404.718 L 454.532 403.690 L 454.103 402.672 L 453.649 401.665 L 453.171 400.670 L 452.668 399.686 L 452.141 398.716 L 451.591 397.758 L 451.017 396.814 L 450.421 395.885 L 449.801 394.970 L 449.160 394.071 L 448.496 393.188 L 446.250 390.273 L 445.716 389.595 L 443.426 386.739 L 442.874 386.063 L 440.542 383.268 L 439.970 382.596 L 437.597 379.861 L 437.006 379.194 L 434.592 376.522 L 433.981 375.859 L 431.528 373.250 L 430.897 372.592 L 428.406 370.048 L 427.754 369.396 L 425.225 366.917 L 424.552 366.271 L 421.987 363.859 L 421.294 363.221 L 418.693 360.876 L 417.978 360.245 L 415.343 357.968 L 414.607 357.346 L 411.938 355.139 L 411.181 354.526 L 408.480 352.388 L 407.700 351.785 L 404.968 349.719 L 404.167 349.127 L 401.405 347.132 L 400.582 346.552 L 397.790 344.630 L 396.946 344.063 L 394.126 342.214 L 393.260 341.660 L 390.414 339.885 L 389.527 339.346 L 386.654 337.645 L 385.746 337.122 L 382.848 335.497 L 381.919 334.990 L 378.998 333.440 L 378.048 332.951 L 375.105 331.478 L 374.135 331.008 L 371.170 329.612 L 370.181 329.161 L 367.196 327.843 L 366.188 327.412 L 363.184 326.172 L 362.157 325.763 L 359.135 324.602 L 358.091 324.216 L 355.052 323.133 L 353.991 322.770 L 350.937 321.768 L 349.860 321.429 L 346.792 320.506 L 345.700 320.193 L 342.618 319.350 L 341.513 319.063 L 338.419 318.301 L 337.301 318.041 L 334.196 317.360 L 333.067 317.127 L 329.953 316.527 L 328.812 316.322 L 325.690 315.804 L 324.541 315.628 L 321.412 315.191 L 320.255 315.045 L 317.119 314.689 L 315.956 314.573 L 312.816 314.299 L 311.648 314.213 L 308.504 314.021 L 307.333 313.965 L 304.187 313.856 L 303.014 313.830 L 299.867 313.803 L 298.693 313.808 L 295.546 313.863 L 294.373 313.898 L 291.228 314.035 L 290.058 314.101 L 286.915 314.320 L 285.748 314.417 L 282.610 314.718 L 281.449 314.844 L 278.315 315.227 L 277.161 315.383 L 274.033 315.847 L 272.887 316.033 L 269.767 316.578 L 268.631 316.792 L 265.520 317.419 L 264.393 317.661 L 261.293 318.370 L 260.178 318.639 L 257.089 319.428 L 255.988 319.724 L 252.910 320.593 L 251.823 320.915 L 248.759 321.865 L 247.688 322.211 L 244.639 323.241 L 243.583 323.612 L 240.550 324.720 L 239.512 325.114 L 236.495 326.302 L 235.475 326.718 L 232.477 327.984 L 231.475 328.422 L 228.497 329.766 L 227.514 330.223 L 224.556 331.645 L 223.593 332.122 L 220.657 333.620 L 219.714 334.115 L 216.800 335.690 L 215.878 336.203 L 212.989 337.853 L 212.088 338.382 L 209.224 340.107 L 208.343 340.651 L 205.506 342.451 L 204.647 343.009 L 201.836 344.883 L 200.999 345.455 L 198.217 347.401 L 197.402 347.985 L 194.649 350.004 L 193.855 350.600 L 191.134 352.690 L 190.361 353.296 L 187.671 355.457 L 186.921 356.073 L 184.263 358.304 L 183.534 358.929 L 180.910 361.228 L 180.203 361.862 L 177.614 364.229 L 176.927 364.870 L 174.374 367.305 L 173.708 367.953 L 171.192 370.453 L 170.547 371.107 L 168.068 373.673 L 167.444 374.333 L 165.004 376.963 L 164.399 377.627 L 161.999 380.320 L 161.414 380.989 L 159.055 383.744 L 158.490 384.417 L 156.172 387.234 L 155.626 387.910 L 153.350 390.786 L 152.823 391.465 L 150.591 394.400 L 150.082 395.082 L 147.894 398.074 L 147.404 398.758 L 145.260 401.807 L 144.788 402.493 L 142.690 405.597 L 142.235 406.284 L 140.185 409.443 L 139.747 410.131 L 137.743 413.342 L 137.322 414.031 L 135.367 417.294 L 134.962 417.983 L 133.056 421.297 L 132.667 421.987 L 130.811 425.349 L 130.438 426.039 L 128.632 429.449 L 128.274 430.139 L 126.519 433.596 L 126.177 434.286 L 124.474 437.788 L 124.146 438.477 L 122.495 442.023 L 122.182 442.711 L 120.585 446.299 L 120.285 446.988 L 118.742 450.617 L 118.456 451.304 L 116.967 454.973 L 116.694 455.660 L 115.260 459.366 L 115.001 460.052 L 113.623 463.795 L 113.376 464.481 L 112.054 468.259 L 111.821 468.943 L 110.554 472.756 L 110.334 473.439 L 109.125 477.284 L 108.916 477.966 L 107.764 481.841 L 107.568 482.523 L 106.474 486.427 L 106.289 487.108 L 105.254 491.040 L 105.081 491.720 L 104.105 495.679 L 103.943 496.357 L 103.026 500.340 L 102.875 501.018 L 102.018 505.025 L 101.878 505.701 L 101.080 509.730 L 100.952 510.406 L 100.214 514.454 L 100.096 515.129 L 99.419 519.195 L 99.312 519.870 L 98.696 523.953 L 98.599 524.627 L 98.044 528.726 L 97.958 529.399 L 97.463 533.512 L 97.388 534.184 L 96.955 538.309 L 96.889 538.981 L 96.518 543.116 L 96.463 543.787 L 96.153 547.931 L 96.108 548.603 L 95.860 552.754 L 95.825 553.425 L 95.639 557.582 L 95.614 558.252 L 95.490 562.413 L 95.475 563.084 L 95.413 567.247 L 95.408 567.918 L 95.408 572.082 L 95.413 572.753 L 95.475 576.916 L 95.490 577.587 L 95.614 581.748 L 95.639 582.418 L 95.825 586.575 L 95.860 587.246 L 96.108 591.397 L 96.153 592.069 L 96.463 596.213 L 96.518 596.884 L 96.889 601.019 L 96.955 601.691 L 97.388 605.816 L 97.463 606.488 L 97.958 610.601 L 98.044 611.274 L 98.599 615.373 L 98.696 616.047 L 99.312 620.130 L 99.419 620.805 L 100.096 624.871 L 100.214 625.546 L 100.952 629.594 L 101.080 630.270 L 101.878 634.299 L 102.018 634.975 L 102.875 638.982 L 103.026 639.660 L 103.943 643.643 L 104.105 644.321 L 105.081 648.280 L 105.254 648.960 L 106.289 652.892 L 106.474 653.573 L 107.568 657.477 L 107.764 658.159 L 108.916 662.034 L 109.125 662.716 L 110.334 666.561 L 110.554 667.244 L 111.821 671.057 L 112.054 671.741 L 113.376 675.519 L 113.623 676.205 L 115.001 679.948 L 115.260 680.634 L 116.694 684.340 L 116.967 685.027 L 118.456 688.696 L 118.742 689.383 L 120.285 693.012 L 120.585 693.701 L 122.182 697.289 L 122.495 697.977 L 124.146 701.523 L 124.474 702.212 L 126.177 705.714 L 126.519 706.404 L 128.274 709.861 L 128.632 710.551 L 130.438 713.961 L 130.811 714.651 L 132.667 718.013 L 133.056 718.703 L 134.962 722.017 L 135.367 722.706 L 137.322 725.969 L 137.743 726.658 L 139.747 729.869 L 140.185 730.557 L 142.235 733.716 L 142.690 734.403 L 144.788 737.507 L 145.260 738.193 L 147.404 741.242 L 147.894 741.926 L 150.082 744.918 L 150.591 745.600 L 152.823 748.535 L 153.350 749.214 L 155.626 752.090 L 156.172 752.766 L 158.490 755.583 L 159.055 756.256 L 161.414 759.011 L 161.999 759.680 L 164.399 762.373 L 165.004 763.037 L 167.444 765.667 L 168.068 766.327 L 170.547 768.893 L 171.192 769.547 L 173.708 772.047 L 174.374 772.695 L 176.927 775.130 L 177.614 775.771 L 180.203 778.138 L 180.910 778.772 L 183.534 781.071 L 184.263 781.696 L 186.921 783.927 L 187.671 784.543 L 190.361 786.704 L 191.134 787.310 L 193.855 789.400 L 194.649 789.996 L 197.402 792.015 L 198.217 792.599 L 200.999 794.545 L 201.836 795.117 L 204.647 796.991 L 205.506 797.549 L 208.343 799.349 L 209.224 799.893 L 212.088 801.618 L 212.989 802.147 L 215.878 803.797 L 216.800 804.310 L 219.714 805.885 L 220.657 806.380 L 223.593 807.878 L 224.556 808.355 L 227.514 809.777 L 228.497 810.234 L 231.475 811.578 L 232.477 812.016 L 235.475 813.282 L 236.495 813.698 L 239.512 814.886 L 240.550 815.280 L 243.583 816.388 L 244.639 816.759 L 247.688 817.789 L 248.759 818.135 L 251.823 819.085 L 252.910 819.407 L 255.988 820.276 L 257.089 820.572 L 260.178 821.361 L 261.293 821.630 L 264.393 822.339 L 265.520 822.581 L 268.631 823.208 L 269.767 823.422 L 272.887 823.967 L 274.033 824.153 L 277.161 824.617 L 278.315 824.773 L 281.449 825.156 L 282.610 825.282 L 285.748 825.583 L 286.915 825.680 L 290.058 825.899 L 291.228 825.965 L 294.373 826.102 L 295.546 826.137 L 298.693 826.192 L 299.867 826.197 L 303.014 826.170 L 304.187 826.144 L 307.333 826.035 L 308.504 825.979 L 311.648 825.787 L 312.816 825.701 L 315.956 825.427 L 317.119 825.311 L 320.255 824.955 L 321.412 824.809 L 324.541 824.372 L 325.690 824.196 L 328.812 823.678 L 329.953 823.473 L 333.067 822.873 L 334.196 822.640 L 337.301 821.959 L 338.419 821.699 L 341.513 820.937 L 342.618 820.650 L 345.700 819.807 L 346.792 819.494 L 349.860 818.571 L 350.937 818.232 L 353.991 817.230 L 355.052 816.867 L 358.091 815.784 L 359.135 815.398 L 362.157 814.237 L 363.184 813.828 L 366.188 812.588 L 367.196 812.157 L 370.181 810.839 L 371.170 810.388 L 374.135 808.992 L 375.105 808.522 L 378.048 807.049 L 378.998 806.560 L 381.919 805.010 L 382.848 804.503 L 385.746 802.878 L 386.654 802.355 L 389.527 800.654 L 390.414 800.115 L 393.260 798.340 L 394.126 797.786 L 396.946 795.937 L 397.790 795.370 L 400.582 793.448 L 401.405 792.868 L 404.167 790.873 L 404.968 790.281 L 407.700 788.215 L 408.480 787.612 L 411.181 785.474 L 411.938 784.861 L 414.607 782.654 L 415.343 782.032 L 417.978 779.755 L 418.693 779.124 L 421.294 776.779 L 421.987 776.141 L 424.552 773.729 L 425.225 773.083 L 427.754 770.604 L 428.406 769.952 L 430.897 767.408 L 431.528 766.750 L 433.981 764.141 L 434.592 763.478 L 437.006 760.806 L 437.597 760.139 L 439.970 757.404 L 440.542 756.732 L 442.874 753.937 L 443.426 753.261 L 445.716 750.405 L 446.250 749.727 L 448.496 746.812 L 449.160 745.929 L 449.801 745.030 L 450.421 744.115 L 451.017 743.186 L 451.591 742.242 L 452.141 741.284 L 452.668 740.314 L 453.171 739.330 L 453.649 738.335 L 454.103 737.328 L 454.532 736.310 L 454.936 735.282 L 455.315 734.245 L 455.668 733.198 L 455.995 732.143 L 456.296 731.081 L 456.571 730.011 L 456.820 728.935 L 457.042 727.853 L 457.237 726.766 L 457.406 725.675 L 457.548 724.579 L 457.663 723.481 L 457.751 722.380 L 457.813 721.277 L 457.847 720.173 L 457.853 719.069 L 457.833 717.965 L 457.786 716.861 L 457.711 715.759 L 457.610 714.660 L 457.482 713.563 L 457.326 712.469 L 457.144 711.380 L 456.936 710.295 L 456.700 709.216 L 456.439 708.143 L 456.151 707.077 L 455.837 706.018 L 455.497 704.967 L 455.131 703.925 L 454.740 702.892 L 454.324 701.869 L 453.883 700.857 L 453.417 699.856 L 452.926 698.866 L 452.412 697.889 L 451.873 696.924 L 451.312 695.974 L 450.726 695.037 L 450.119 694.115 L 449.488 693.208 L 448.836 692.317 L 448.162 691.442 L 447.467 690.584 L 446.750 689.743 L 446.014 688.920 L 445.257 688.115 L 444.481 687.329 L 443.686 686.563 L 442.872 685.816 L 442.041 685.090 L 441.191 684.384 L 440.325 683.699 L 439.442 683.035 L 438.543 682.394 L 437.628 681.774 L 436.699 681.178 L 435.755 680.604 L 434.798 680.054 L 433.827 679.527 L 432.844 679.024 L 431.848 678.546 L 430.841 678.092 L 429.823 677.663 L 428.796 677.259 L 427.758 676.881 L 426.711 676.528 L 425.657 676.200 L 424.594 675.899 L 423.524 675.624 L 422.448 675.376 L 421.366 675.153 L 420.279 674.958 L 419.188 674.789 L 418.093 674.647 L 416.994 674.532 L 415.893 674.444 L 414.791 674.383 L 413.687 674.349 L 412.582 674.342 L 411.478 674.362 L 410.375 674.409 L 409.273 674.484 L 408.173 674.585 L 407.076 674.713 L 405.983 674.869 L 404.893 675.051 L 403.809 675.259 L 402.730 675.495 L 401.657 675.756 L 400.590 676.044 L 399.531 676.358 L 398.481 676.698 L 397.438 677.064 L 396.406 677.455 L 395.383 677.871 L 394.370 678.312 L 393.369 678.778 L 392.379 679.269 L 391.402 679.783 L 390.438 680.322 L 389.487 680.884 L 388.550 681.469 L 387.628 682.077 L 386.721 682.707 L 385.830 683.359 L 384.955 684.033 L 384.097 684.729 L 383.256 685.445 L 382.433 686.181 L 381.629 686.938 L 380.843 687.714 L 380.076 688.509 L 379.329 689.323 L 378.603 690.155 L 377.897 691.004 L 377.212 691.870 L 375.228 694.444 Z" fill="black" fill-rule="evenodd"/>
</svg>
