<svg xmlns="http://www.w3.org/2000/svg" viewBox="0 0 700.000 1000">
  <path d="M 520.494 20.033 L 519.840 20.042 L 515.595 20.136 L 514.969 20.154 L 510.650 20.309 L 510.049 20.335 L 505.659 20.551 L 505.082 20.584 L 500.624 20.861 L 500.067 20.899 L 495.544 21.237 L 495.007 21.280 L 490.421 21.678 L 489.902 21.726 L 485.256 22.183 L 484.754 22.235 L 480.051 22.752 L 479.563 22.808 L 474.806 23.382 L 474.333 23.442 L 469.524 24.075 L 469.063 24.138 L 464.206 24.828 L 463.757 24.894 L 458.854 25.642 L 458.415 25.711 L 453.470 26.515 L 453.040 26.587 L 448.055 27.447 L 447.634 27.522 L 442.612 28.437 L 442.198 28.515 L 437.142 29.486 L 436.735 29.566 L 431.647 30.591 L 431.247 30.674 L 426.130 31.754 L 425.735 31.839 L 420.593 32.973 L 420.203 33.061 L 415.038 34.248 L 414.651 34.338 L 409.466 35.578 L 409.084 35.672 L 403.881 36.964 L 403.502 37.060 L 398.285 38.404 L 397.907 38.503 L 392.679 39.899 L 392.303 40.001 L 387.066 41.447 L 386.692 41.552 L 381.449 43.049 L 381.076 43.158 L 375.829 44.705 L 375.456 44.817 L 370.210 46.413 L 369.837 46.529 L 364.593 48.174 L 364.219 48.293 L 358.980 49.988 L 358.605 50.111 L 353.375 51.853 L 352.998 51.981 L 347.779 53.771 L 347.400 53.903 L 342.195 55.740 L 341.814 55.877 L 336.625 57.761 L 336.241 57.902 L 331.072 59.833 L 330.685 59.979 L 325.537 61.955 L 325.146 62.108 L 320.025 64.129 L 319.629 64.288 L 314.535 66.354 L 314.135 66.519 L 309.072 68.629 L 308.667 68.801 L 303.638 70.956 L 303.227 71.134 L 298.234 73.332 L 297.817 73.519 L 292.863 75.760 L 292.439 75.954 L 287.528 78.238 L 287.097 78.441 L 282.231 80.767 L 281.792 80.979 L 276.973 83.347 L 276.527 83.569 L 271.759 85.978 L 271.304 86.211 L 266.589 88.660 L 266.125 88.905 L 261.467 91.394 L 260.993 91.651 L 256.393 94.180 L 255.909 94.450 L 251.372 97.018 L 250.877 97.303 L 246.405 99.910 L 245.899 100.209 L 241.494 102.854 L 240.976 103.170 L 236.642 105.853 L 236.112 106.186 L 231.851 108.907 L 231.308 109.259 L 227.124 112.016 L 226.568 112.388 L 222.462 115.182 L 221.892 115.576 L 217.868 118.406 L 217.284 118.823 L 213.345 121.689 L 212.746 122.131 L 208.894 125.031 L 208.281 125.501 L 204.520 128.436 L 203.892 128.935 L 200.223 131.903 L 199.580 132.434 L 196.007 135.436 L 195.348 136.000 L 191.874 139.036 L 191.201 139.636 L 187.828 142.704 L 187.140 143.344 L 183.871 146.444 L 183.168 147.126 L 180.008 150.258 L 179.291 150.984 L 176.240 154.148 L 175.510 154.922 L 172.572 158.116 L 171.831 158.943 L 169.009 162.167 L 168.257 163.048 L 165.554 166.302 L 164.794 167.242 L 162.212 170.525 L 161.447 171.526 L 158.989 174.839 L 158.221 175.906 L 155.890 179.246 L 155.123 180.382 L 152.922 183.751 L 152.160 184.958 L 150.092 188.354 L 149.340 189.636 L 147.407 193.059 L 146.671 194.418 L 144.876 197.868 L 144.161 199.305 L 142.507 202.781 L 142.157 203.536 L 141.820 204.298 L 140.311 207.799 L 139.977 208.594 L 139.659 209.395 L 138.296 212.922 L 137.984 213.756 L 137.688 214.596 L 136.475 218.147 L 136.187 219.019 L 135.917 219.897 L 134.857 223.472 L 134.598 224.380 L 134.358 225.293 L 133.453 228.892 L 133.227 229.834 L 133.022 230.780 L 132.275 234.402 L 132.086 235.373 L 131.918 236.348 L 131.333 239.993 L 131.184 240.990 L 131.057 241.990 L 130.636 245.658 L 130.530 246.675 L 130.448 247.695 L 130.193 251.384 L 130.133 252.417 L 130.098 253.450 L 130.012 257.161 L 130.001 258.488 L 130.029 259.815 L 130.161 263.479 L 130.214 264.583 L 130.294 265.685 L 130.401 266.784 L 130.792 270.337 L 130.930 271.458 L 131.095 272.575 L 131.289 273.688 L 131.933 277.132 L 132.157 278.250 L 132.409 279.363 L 132.689 280.469 L 133.580 283.806 L 133.888 284.901 L 134.223 285.988 L 134.585 287.066 L 135.717 290.301 L 136.100 291.353 L 136.509 292.395 L 136.944 293.427 L 138.312 296.562 L 138.759 297.555 L 139.230 298.536 L 139.725 299.505 L 141.322 302.544 L 141.820 303.464 L 142.339 304.373 L 142.878 305.269 L 144.699 308.214 L 145.232 309.055 L 145.783 309.884 L 146.352 310.700 L 148.390 313.555 L 148.944 314.313 L 149.513 315.059 L 150.097 315.794 L 152.347 318.561 L 153.192 319.570 L 154.067 320.555 L 156.522 323.237 L 157.361 324.129 L 158.224 324.998 L 160.879 327.599 L 161.698 328.382 L 162.536 329.143 L 165.385 331.666 L 166.174 332.349 L 166.978 333.013 L 170.014 335.461 L 170.767 336.054 L 171.532 336.631 L 174.749 339.006 L 175.461 339.521 L 176.182 340.021 L 179.575 342.327 L 180.919 343.206 L 184.482 345.446 L 185.736 346.206 L 189.463 348.383 L 190.627 349.040 L 194.512 351.157 L 195.590 351.725 L 199.627 353.785 L 200.621 354.277 L 204.804 356.283 L 205.719 356.709 L 210.042 358.664 L 210.881 359.034 L 215.338 360.941 L 216.106 361.261 L 220.691 363.124 L 221.392 363.402 L 226.100 365.223 L 226.738 365.464 L 231.561 367.246 L 232.140 367.455 L 237.073 369.202 L 237.596 369.384 L 242.634 371.098 L 243.104 371.255 L 248.240 372.939 L 248.661 373.075 L 253.890 374.733 L 254.263 374.850 L 259.578 376.485 L 259.907 376.585 L 265.303 378.199 L 265.590 378.284 L 271.059 379.881 L 271.306 379.953 L 276.844 381.536 L 277.052 381.594 L 282.653 383.166 L 282.823 383.214 L 288.481 384.778 L 288.615 384.814 L 294.323 386.373 L 294.423 386.400 L 300.176 387.957 L 300.242 387.975 L 306.033 389.533 L 311.890 391.103 L 317.725 392.668 L 323.549 394.234 L 329.356 395.805 L 335.140 397.384 L 340.896 398.973 L 346.617 400.574 L 352.297 402.192 L 357.929 403.827 L 363.508 405.482 L 369.026 407.160 L 374.476 408.862 L 379.853 410.591 L 385.148 412.347 L 390.356 414.133 L 395.468 415.949 L 400.478 417.797 L 405.379 419.678 L 410.162 421.591 L 414.821 423.537 L 419.349 425.516 L 423.737 427.528 L 427.980 429.570 L 432.070 431.642 L 436.000 433.741 L 439.765 435.866 L 443.357 438.014 L 446.772 440.180 L 450.006 442.362 L 453.054 444.555 L 455.915 446.755 L 458.586 448.959 L 461.069 451.161 L 463.366 453.359 L 465.479 455.550 L 467.414 457.733 L 469.179 459.909 L 470.781 462.081 L 472.231 464.255 L 473.537 466.439 L 474.711 468.647 L 475.761 470.893 L 476.695 473.196 L 477.517 475.577 L 478.229 478.060 L 478.831 480.668 L 479.317 483.424 L 479.680 486.352 L 479.908 489.474 L 479.990 492.923 L 479.937 495.794 L 479.772 498.798 L 479.496 501.821 L 479.109 504.866 L 478.610 507.936 L 477.998 511.033 L 477.272 514.159 L 476.430 517.315 L 475.471 520.502 L 474.395 523.719 L 473.199 526.966 L 471.884 530.242 L 470.448 533.545 L 468.892 536.874 L 467.216 540.227 L 465.419 543.601 L 463.502 546.994 L 461.466 550.404 L 459.311 553.829 L 457.040 557.264 L 454.653 560.709 L 452.152 564.160 L 449.539 567.614 L 446.816 571.069 L 443.985 574.523 L 441.047 577.972 L 438.006 581.414 L 434.865 584.848 L 431.624 588.269 L 428.288 591.677 L 424.858 595.068 L 421.338 598.441 L 417.731 601.794 L 414.038 605.124 L 410.264 608.429 L 406.412 611.708 L 402.483 614.958 L 398.482 618.178 L 394.410 621.366 L 390.273 624.520 L 386.071 627.638 L 381.810 630.720 L 377.491 633.762 L 373.118 636.764 L 368.694 639.724 L 364.222 642.641 L 359.705 645.513 L 355.147 648.338 L 350.551 651.116 L 345.920 653.845 L 341.257 656.523 L 336.565 659.149 L 331.849 661.722 L 327.110 664.241 L 322.353 666.704 L 317.580 669.110 L 312.795 671.458 L 308.001 673.747 L 303.202 675.975 L 298.401 678.142 L 293.601 680.246 L 288.806 682.286 L 284.020 684.260 L 279.245 686.169 L 274.485 688.011 L 269.744 689.784 L 265.026 691.488 L 260.333 693.122 L 255.670 694.685 L 251.041 696.176 L 246.449 697.594 L 241.898 698.937 L 237.392 700.207 L 232.936 701.401 L 228.532 702.518 L 224.186 703.560 L 219.901 704.523 L 215.682 705.409 L 211.534 706.217 L 207.461 706.946 L 203.467 707.596 L 199.558 708.167 L 195.739 708.660 L 192.014 709.074 L 188.390 709.410 L 184.871 709.670 L 181.464 709.853 L 178.174 709.961 L 174.494 710.003 L 173.390 710.029 L 172.287 710.082 L 171.185 710.162 L 170.086 710.269 L 168.990 710.403 L 167.897 710.564 L 166.809 710.752 L 165.725 710.966 L 164.647 711.207 L 163.576 711.474 L 162.511 711.768 L 161.454 712.087 L 160.405 712.433 L 159.364 712.804 L 158.334 713.200 L 157.313 713.622 L 156.303 714.068 L 155.304 714.539 L 154.317 715.035 L 153.342 715.555 L 152.381 716.098 L 151.433 716.665 L 150.499 717.255 L 149.580 717.867 L 148.677 718.502 L 147.789 719.159 L 146.917 719.838 L 146.063 720.538 L 145.226 721.258 L 144.407 721.999 L 143.606 722.760 L 142.824 723.540 L 142.062 724.339 L 141.319 725.157 L 140.597 725.992 L 139.896 726.845 L 139.215 727.715 L 138.556 728.602 L 137.920 729.504 L 137.305 730.422 L 136.713 731.354 L 136.144 732.301 L 135.599 733.261 L 135.077 734.235 L 134.580 735.221 L 134.107 736.219 L 133.658 737.228 L 133.234 738.248 L 132.836 739.278 L 132.463 740.317 L 132.115 741.366 L 131.794 742.422 L 131.498 743.486 L 131.228 744.557 L 130.985 745.635 L 130.769 746.718 L 130.579 747.806 L 130.416 748.898 L 130.279 749.994 L 130.170 751.093 L 130.088 752.195 L 130.032 753.298 L 130.004 754.402 L 130.003 755.506 L 130.029 756.610 L 130.082 757.713 L 130.162 758.815 L 130.269 759.914 L 130.403 761.010 L 130.564 762.103 L 130.752 763.191 L 130.966 764.275 L 131.207 765.353 L 131.474 766.424 L 131.768 767.489 L 132.087 768.546 L 132.433 769.595 L 132.804 770.636 L 133.200 771.666 L 133.622 772.687 L 134.068 773.697 L 134.539 774.696 L 135.035 775.683 L 135.555 776.658 L 136.098 777.619 L 136.665 778.567 L 137.255 779.501 L 137.867 780.420 L 138.502 781.323 L 139.159 782.211 L 139.838 783.083 L 140.538 783.937 L 141.258 784.774 L 141.999 785.593 L 142.760 786.394 L 143.540 787.176 L 144.339 787.938 L 145.157 788.681 L 145.992 789.403 L 146.845 790.104 L 147.715 790.785 L 148.602 791.444 L 149.504 792.080 L 150.422 792.695 L 151.354 793.287 L 152.301 793.856 L 153.261 794.401 L 154.235 794.923 L 155.221 795.420 L 156.219 795.893 L 157.228 796.342 L 158.248 796.766 L 159.278 797.164 L 160.317 797.537 L 161.366 797.885 L 162.422 798.206 L 163.486 798.502 L 164.557 798.772 L 165.635 799.015 L 166.718 799.231 L 167.806 799.421 L 168.898 799.584 L 169.994 799.721 L 171.093 799.830 L 172.195 799.912 L 173.298 799.968 L 174.402 799.996 L 175.506 799.997 L 179.675 799.950 L 180.652 799.929 L 184.897 799.789 L 185.830 799.748 L 190.149 799.516 L 191.040 799.459 L 195.430 799.136 L 196.282 799.065 L 200.740 798.651 L 201.556 798.568 L 206.080 798.065 L 206.862 797.971 L 211.449 797.379 L 212.200 797.276 L 216.846 796.596 L 217.569 796.485 L 222.272 795.719 L 222.968 795.600 L 227.725 794.749 L 228.396 794.624 L 233.204 793.688 L 233.852 793.556 L 238.709 792.537 L 239.336 792.400 L 244.238 791.298 L 244.846 791.157 L 249.791 789.972 L 250.381 789.827 L 255.366 788.561 L 255.938 788.412 L 260.960 787.067 L 261.518 786.913 L 266.574 785.489 L 267.117 785.332 L 272.205 783.830 L 272.735 783.670 L 277.851 782.090 L 278.370 781.927 L 283.512 780.271 L 284.019 780.104 L 289.184 778.373 L 289.681 778.203 L 294.866 776.398 L 295.354 776.225 L 300.556 774.346 L 301.036 774.169 L 306.253 772.218 L 306.725 772.038 L 311.953 770.015 L 312.419 769.832 L 317.656 767.739 L 318.115 767.553 L 323.358 765.389 L 323.812 765.199 L 329.058 762.967 L 329.507 762.774 L 334.754 760.474 L 335.198 760.276 L 340.442 757.910 L 340.883 757.708 L 346.122 755.275 L 346.560 755.069 L 351.791 752.572 L 352.226 752.361 L 357.445 749.800 L 357.879 749.584 L 363.085 746.960 L 363.517 746.739 L 368.706 744.053 L 369.136 743.827 L 374.306 741.079 L 374.736 740.847 L 379.883 738.039 L 380.314 737.801 L 385.435 734.934 L 385.866 734.690 L 390.960 731.764 L 391.391 731.513 L 396.454 728.530 L 396.887 728.272 L 401.916 725.233 L 402.350 724.967 L 407.343 721.872 L 407.779 721.598 L 412.733 718.449 L 413.171 718.166 L 418.082 714.963 L 418.523 714.672 L 423.389 711.416 L 423.833 711.115 L 428.652 707.807 L 429.099 707.496 L 433.867 704.137 L 434.318 703.815 L 439.032 700.407 L 439.487 700.074 L 444.145 696.616 L 444.604 696.271 L 449.204 692.765 L 449.667 692.407 L 454.204 688.854 L 454.673 688.482 L 459.145 684.883 L 459.618 684.497 L 464.023 680.853 L 464.502 680.451 L 468.836 676.762 L 469.320 676.344 L 473.581 672.613 L 474.071 672.177 L 478.256 668.403 L 478.751 667.950 L 482.857 664.134 L 483.358 663.661 L 487.382 659.805 L 487.889 659.311 L 491.829 655.416 L 492.342 654.900 L 496.194 650.966 L 496.712 650.427 L 500.474 646.455 L 500.998 645.892 L 504.667 641.883 L 505.196 641.295 L 508.769 637.250 L 509.304 636.634 L 512.778 632.554 L 513.317 631.909 L 516.689 627.796 L 517.232 627.120 L 520.500 622.974 L 521.047 622.266 L 524.208 618.088 L 524.757 617.347 L 527.807 613.137 L 528.358 612.360 L 531.296 608.120 L 531.847 607.306 L 534.669 603.037 L 535.219 602.184 L 537.923 597.887 L 538.471 596.993 L 541.053 592.668 L 541.597 591.732 L 544.055 587.381 L 544.592 586.401 L 546.923 582.024 L 547.453 580.999 L 549.654 576.598 L 550.172 575.525 L 552.241 571.101 L 552.746 569.981 L 554.679 565.533 L 555.167 564.364 L 556.962 559.895 L 557.430 558.677 L 559.084 554.187 L 559.529 552.919 L 561.038 548.409 L 561.457 547.091 L 562.819 542.562 L 563.207 541.196 L 564.420 536.649 L 564.773 535.235 L 565.833 530.671 L 566.147 529.210 L 567.051 524.630 L 567.322 523.126 L 568.069 518.531 L 568.293 516.986 L 568.878 512.376 L 569.051 510.793 L 569.473 506.171 L 569.591 504.555 L 569.846 499.920 L 569.907 498.276 L 569.992 493.630 L 570.000 492.677 L 569.987 491.725 L 569.856 486.221 L 569.816 485.119 L 569.749 484.018 L 569.358 478.668 L 569.262 477.540 L 569.137 476.415 L 568.493 471.215 L 568.336 470.070 L 568.150 468.929 L 567.258 463.876 L 567.039 462.723 L 566.790 461.575 L 565.658 456.668 L 565.376 455.516 L 565.064 454.373 L 563.696 449.607 L 563.353 448.468 L 562.980 447.339 L 561.383 442.711 L 560.981 441.595 L 560.550 440.490 L 558.730 435.998 L 558.274 434.915 L 557.790 433.844 L 555.752 429.484 L 555.249 428.442 L 554.718 427.413 L 552.469 423.183 L 551.924 422.189 L 551.355 421.210 L 548.900 417.105 L 548.322 416.166 L 547.721 415.240 L 545.066 411.260 L 544.463 410.378 L 543.839 409.510 L 540.991 405.650 L 540.370 404.828 L 539.730 404.021 L 536.695 400.277 L 536.064 399.516 L 535.416 398.770 L 532.199 395.140 L 531.565 394.440 L 530.916 393.753 L 527.523 390.235 L 526.892 389.594 L 526.248 388.965 L 522.685 385.554 L 522.063 384.970 L 521.429 384.397 L 517.702 381.091 L 516.473 380.040 L 512.588 376.836 L 511.393 375.884 L 507.356 372.779 L 506.201 371.920 L 502.018 368.910 L 500.907 368.135 L 496.584 365.219 L 495.519 364.522 L 491.062 361.695 L 490.046 361.068 L 485.461 358.328 L 484.493 357.766 L 479.786 355.109 L 478.869 354.605 L 474.046 352.028 L 473.178 351.577 L 468.245 349.078 L 467.426 348.673 L 462.388 346.248 L 461.618 345.886 L 456.482 343.533 L 455.758 343.209 L 450.530 340.924 L 449.852 340.634 L 444.537 338.414 L 443.904 338.155 L 438.509 335.997 L 437.919 335.766 L 432.449 333.667 L 431.901 333.460 L 426.363 331.417 L 425.855 331.234 L 420.254 329.244 L 419.785 329.080 L 414.128 327.140 L 413.697 326.995 L 407.989 325.101 L 407.595 324.973 L 401.843 323.123 L 401.484 323.010 L 395.693 321.201 L 395.370 321.102 L 389.546 319.331 L 389.256 319.244 L 383.405 317.508 L 383.150 317.433 L 377.278 315.728 L 377.055 315.664 L 371.168 313.988 L 370.977 313.934 L 365.082 312.283 L 364.923 312.239 L 359.024 310.611 L 358.897 310.576 L 353.002 308.967 L 352.906 308.941 L 347.020 307.349 L 346.956 307.331 L 341.084 305.752 L 335.201 304.175 L 329.394 302.617 L 323.651 301.073 L 317.982 299.538 L 312.391 298.012 L 306.886 296.490 L 301.475 294.971 L 296.164 293.453 L 290.961 291.934 L 285.874 290.412 L 280.911 288.885 L 276.080 287.353 L 271.389 285.815 L 266.848 284.270 L 262.466 282.718 L 258.251 281.161 L 254.214 279.599 L 250.364 278.035 L 246.712 276.472 L 243.266 274.914 L 240.039 273.366 L 237.039 271.835 L 234.276 270.330 L 231.760 268.860 L 229.497 267.438 L 227.494 266.076 L 225.753 264.792 L 224.276 263.601 L 223.057 262.521 L 222.087 261.570 L 221.348 260.763 L 220.818 260.112 L 220.466 259.619 L 220.257 259.280 L 220.150 259.077 L 220.107 258.979 L 220.094 258.941 L 220.085 258.906 L 220.067 258.812 L 220.043 258.593 L 220.019 257.912 L 220.050 256.562 L 220.163 254.925 L 220.353 253.276 L 220.622 251.603 L 220.973 249.897 L 221.412 248.153 L 221.942 246.363 L 222.570 244.524 L 223.301 242.632 L 224.140 240.687 L 225.090 238.688 L 226.158 236.636 L 227.345 234.533 L 228.656 232.381 L 230.092 230.184 L 231.655 227.944 L 233.346 225.665 L 235.165 223.352 L 237.112 221.008 L 239.188 218.637 L 241.390 216.243 L 243.717 213.830 L 246.167 211.402 L 248.739 208.962 L 251.431 206.513 L 254.239 204.060 L 257.160 201.605 L 260.193 199.150 L 263.335 196.700 L 266.581 194.256 L 269.930 191.821 L 273.377 189.396 L 276.920 186.986 L 280.556 184.590 L 284.280 182.212 L 288.090 179.854 L 291.983 177.516 L 295.955 175.201 L 300.003 172.909 L 304.123 170.644 L 308.312 168.405 L 312.566 166.195 L 316.883 164.014 L 321.259 161.864 L 325.691 159.746 L 330.175 157.661 L 334.708 155.610 L 339.287 153.594 L 343.909 151.614 L 348.569 149.671 L 353.265 147.766 L 357.994 145.900 L 362.752 144.073 L 367.536 142.286 L 372.342 140.541 L 377.168 138.838 L 382.010 137.177 L 386.865 135.559 L 391.729 133.986 L 396.600 132.457 L 401.473 130.974 L 406.346 129.537 L 411.216 128.147 L 416.078 126.804 L 420.930 125.509 L 425.768 124.262 L 430.589 123.065 L 435.389 121.917 L 440.166 120.819 L 444.915 119.772 L 449.633 118.776 L 454.317 117.832 L 458.963 116.940 L 463.567 116.100 L 468.127 115.314 L 472.637 114.580 L 477.094 113.901 L 481.496 113.275 L 485.836 112.704 L 490.113 112.188 L 494.321 111.726 L 498.456 111.319 L 502.515 110.967 L 506.492 110.670 L 510.384 110.428 L 514.185 110.240 L 517.890 110.107 L 521.496 110.028 L 525.338 109.999 L 526.442 109.977 L 527.545 109.928 L 528.647 109.852 L 529.747 109.749 L 530.843 109.619 L 531.937 109.462 L 533.026 109.279 L 534.110 109.068 L 535.189 108.831 L 536.261 108.568 L 537.327 108.279 L 538.386 107.963 L 539.436 107.622 L 540.478 107.255 L 541.510 106.862 L 542.532 106.444 L 543.544 106.001 L 544.545 105.534 L 545.534 105.042 L 546.510 104.526 L 547.474 103.986 L 548.424 103.423 L 549.360 102.837 L 550.281 102.227 L 551.187 101.596 L 552.077 100.942 L 552.951 100.267 L 553.808 99.570 L 554.648 98.853 L 555.470 98.115 L 556.273 97.357 L 557.058 96.580 L 557.823 95.784 L 558.569 94.969 L 559.294 94.136 L 559.999 93.286 L 560.682 92.418 L 561.344 91.534 L 561.985 90.635 L 562.603 89.719 L 563.198 88.789 L 563.770 87.844 L 564.319 86.886 L 564.845 85.914 L 565.346 84.930 L 565.823 83.934 L 566.275 82.927 L 566.703 81.908 L 567.105 80.880 L 567.482 79.842 L 567.833 78.795 L 568.159 77.739 L 568.459 76.676 L 568.732 75.606 L 568.979 74.530 L 569.200 73.448 L 569.394 72.360 L 569.561 71.269 L 569.702 70.173 L 569.815 69.075 L 569.902 67.974 L 569.961 66.871 L 569.993 65.767 L 569.999 64.662 L 569.977 63.558 L 569.928 62.455 L 569.852 61.353 L 569.749 60.253 L 569.619 59.157 L 569.462 58.063 L 569.279 56.974 L 569.068 55.890 L 568.831 54.811 L 568.568 53.739 L 568.279 52.673 L 567.963 51.614 L 567.622 50.564 L 567.255 49.522 L 566.862 48.490 L 566.444 47.468 L 566.001 46.456 L 565.534 45.455 L 565.042 44.466 L 564.526 43.490 L 563.986 42.526 L 563.423 41.576 L 562.837 40.640 L 562.227 39.719 L 561.596 38.813 L 560.942 37.923 L 560.267 37.049 L 559.570 36.192 L 558.853 35.352 L 558.115 34.530 L 557.357 33.727 L 556.580 32.942 L 555.784 32.177 L 554.969 31.431 L 554.136 30.706 L 553.286 30.001 L 552.418 29.318 L 551.534 28.656 L 550.635 28.015 L 549.719 27.397 L 548.789 26.802 L 547.844 26.230 L 546.886 25.681 L 545.914 25.155 L 544.930 24.654 L 543.934 24.177 L 542.927 23.725 L 541.908 23.297 L 540.880 22.895 L 539.842 22.518 L 538.795 22.167 L 537.739 21.841 L 536.676 21.541 L 535.606 21.268 L 534.530 21.021 L 533.448 20.800 L 532.360 20.606 L 531.269 20.439 L 530.173 20.298 L 529.075 20.185 L 527.974 20.098 L 526.871 20.039 L 525.767 20.007 L 524.662 20.001 L 520.494 20.033 Z" fill="black" fill-rule="evenodd"/>
</svg>
