<svg xmlns="http://www.w3.org/2000/svg" viewBox="0 0 700.000 1000" width="700.000" height="1000">
  <path d="M 159.600 45.320 L 158.496 45.334 L 157.392 45.374 L 156.290 45.442 L 155.189 45.537 L 154.092 45.658 L 152.997 45.807 L 151.907 45.983 L 150.821 46.185 L 149.740 46.413 L 148.666 46.669 L 147.598 46.950 L 146.537 47.258 L 145.484 47.591 L 144.440 47.951 L 143.405 48.335 L 142.379 48.745 L 141.364 49.181 L 140.360 49.640 L 139.367 50.125 L 138.387 50.634 L 137.420 51.166 L 136.465 51.722 L 135.525 52.302 L 134.599 52.904 L 133.689 53.529 L 132.794 54.176 L 131.915 54.844 L 131.052 55.535 L 130.207 56.246 L 129.380 56.977 L 128.571 57.729 L 127.780 58.500 L 127.009 59.291 L 126.257 60.100 L 125.526 60.927 L 124.815 61.772 L 124.124 62.635 L 123.456 63.514 L 122.809 64.409 L 122.184 65.319 L 121.582 66.245 L 121.002 67.185 L 120.446 68.140 L 119.914 69.107 L 119.405 70.087 L 118.920 71.080 L 118.461 72.084 L 118.025 73.099 L 117.615 74.125 L 117.231 75.160 L 116.871 76.204 L 116.538 77.257 L 116.230 78.318 L 115.949 79.386 L 115.693 80.460 L 115.465 81.541 L 115.263 82.627 L 115.087 83.717 L 114.938 84.812 L 114.817 85.909 L 114.722 87.010 L 114.654 88.112 L 114.614 89.216 L 114.600 90.320 L 114.614 91.424 L 114.654 92.528 L 114.722 93.630 L 114.817 94.731 L 114.938 95.828 L 115.087 96.923 L 115.263 98.013 L 115.465 99.099 L 115.693 100.180 L 115.949 101.254 L 116.230 102.322 L 116.538 103.383 L 116.871 104.436 L 117.231 105.480 L 117.615 106.515 L 118.025 107.541 L 118.461 108.556 L 118.920 109.560 L 119.405 110.553 L 119.914 111.533 L 120.446 112.500 L 121.002 113.455 L 121.582 114.395 L 122.184 115.321 L 122.809 116.231 L 123.456 117.126 L 124.124 118.005 L 124.815 118.868 L 125.526 119.713 L 126.257 120.540 L 127.009 121.349 L 127.780 122.140 L 128.571 122.911 L 129.380 123.663 L 130.207 124.394 L 131.052 125.105 L 131.915 125.796 L 132.794 126.464 L 133.689 127.111 L 134.599 127.736 L 135.525 128.338 L 136.465 128.918 L 137.420 129.474 L 138.387 130.006 L 139.367 130.515 L 140.360 131.000 L 141.364 131.459 L 142.379 131.895 L 143.405 132.305 L 144.440 132.689 L 145.484 133.049 L 146.537 133.382 L 147.598 133.690 L 148.666 133.971 L 149.740 134.227 L 150.821 134.455 L 151.907 134.657 L 152.997 134.833 L 154.092 134.982 L 155.189 135.103 L 156.290 135.198 L 157.392 135.266 L 158.496 135.306 L 159.600 135.320 L 444.156 135.320 L 444.938 135.328 L 445.476 135.346 L 446.016 135.375 L 446.558 135.417 L 447.103 135.470 L 447.650 135.535 L 448.202 135.613 L 448.758 135.704 L 449.319 135.808 L 449.885 135.926 L 450.457 136.057 L 451.036 136.203 L 451.622 136.364 L 452.214 136.540 L 452.814 136.731 L 453.422 136.939 L 454.038 137.164 L 454.661 137.406 L 455.293 137.666 L 455.933 137.945 L 456.582 138.242 L 457.239 138.559 L 457.904 138.895 L 458.577 139.253 L 459.258 139.631 L 459.947 140.030 L 460.644 140.452 L 461.348 140.895 L 462.060 141.362 L 462.778 141.852 L 463.503 142.365 L 464.234 142.902 L 464.970 143.463 L 465.712 144.048 L 466.459 144.659 L 467.211 145.294 L 467.967 145.954 L 468.726 146.640 L 469.488 147.351 L 470.253 148.088 L 471.021 148.850 L 471.790 149.639 L 472.560 150.453 L 473.331 151.293 L 474.102 152.159 L 474.872 153.051 L 475.642 153.968 L 476.410 154.911 L 477.177 155.880 L 477.941 156.875 L 478.703 157.895 L 479.461 158.940 L 480.215 160.010 L 480.965 161.105 L 481.710 162.225 L 482.450 163.369 L 483.184 164.537 L 483.912 165.730 L 484.633 166.946 L 485.347 168.185 L 486.054 169.448 L 486.753 170.733 L 487.443 172.041 L 488.125 173.371 L 488.798 174.723 L 489.461 176.096 L 490.114 177.491 L 490.757 178.906 L 491.390 180.341 L 492.011 181.797 L 492.621 183.271 L 493.220 184.765 L 493.807 186.278 L 494.381 187.809 L 494.943 189.358 L 495.492 190.924 L 496.027 192.507 L 496.550 194.107 L 497.058 195.723 L 497.553 197.354 L 498.034 199.000 L 498.500 200.661 L 498.951 202.337 L 499.388 204.026 L 499.809 205.728 L 500.216 207.443 L 500.606 209.170 L 500.981 210.909 L 501.341 212.659 L 501.684 214.419 L 502.011 216.190 L 502.322 217.971 L 502.616 219.761 L 502.894 221.560 L 503.154 223.367 L 503.398 225.181 L 503.626 227.003 L 503.836 228.831 L 504.028 230.665 L 504.204 232.505 L 504.362 234.350 L 504.503 236.199 L 504.626 238.053 L 504.732 239.909 L 504.821 241.769 L 504.891 243.631 L 504.944 245.495 L 504.980 247.361 L 504.997 249.227 L 504.997 251.093 L 504.980 252.959 L 504.944 254.825 L 504.891 256.689 L 504.821 258.551 L 504.732 260.411 L 504.626 262.267 L 504.503 264.121 L 504.362 265.970 L 504.204 267.815 L 504.028 269.655 L 503.836 271.489 L 503.626 273.317 L 503.398 275.139 L 503.154 276.953 L 502.894 278.760 L 502.616 280.559 L 502.322 282.349 L 502.011 284.130 L 501.684 285.901 L 501.341 287.661 L 500.981 289.411 L 500.606 291.150 L 500.216 292.877 L 499.809 294.592 L 499.388 296.294 L 498.951 297.983 L 498.500 299.659 L 498.034 301.320 L 497.553 302.966 L 497.058 304.597 L 496.550 306.213 L 496.027 307.813 L 495.492 309.396 L 494.943 310.962 L 494.381 312.511 L 493.807 314.042 L 493.220 315.555 L 492.621 317.049 L 492.011 318.523 L 491.390 319.979 L 490.757 321.414 L 490.114 322.829 L 489.461 324.224 L 488.798 325.597 L 488.125 326.949 L 487.443 328.279 L 486.753 329.587 L 486.054 330.872 L 485.347 332.135 L 484.633 333.374 L 483.912 334.590 L 483.184 335.783 L 482.450 336.951 L 481.710 338.095 L 480.965 339.215 L 480.215 340.310 L 479.461 341.380 L 478.703 342.425 L 477.941 343.445 L 477.177 344.440 L 476.410 345.409 L 475.642 346.352 L 474.872 347.269 L 474.102 348.161 L 473.331 349.027 L 472.560 349.867 L 471.790 350.681 L 471.021 351.470 L 470.253 352.232 L 469.488 352.969 L 468.726 353.680 L 467.967 354.366 L 467.211 355.026 L 466.459 355.661 L 465.712 356.272 L 464.970 356.857 L 464.234 357.418 L 463.503 357.955 L 462.778 358.468 L 462.060 358.958 L 461.348 359.425 L 460.644 359.868 L 459.947 360.290 L 459.258 360.689 L 458.577 361.067 L 457.904 361.425 L 457.239 361.761 L 456.582 362.078 L 455.933 362.375 L 455.293 362.654 L 454.661 362.914 L 454.038 363.156 L 453.422 363.381 L 452.814 363.589 L 452.214 363.780 L 451.622 363.956 L 451.036 364.117 L 450.457 364.263 L 449.885 364.394 L 449.319 364.512 L 448.758 364.616 L 448.202 364.707 L 447.650 364.785 L 447.103 364.850 L 446.558 364.903 L 446.016 364.945 L 445.476 364.974 L 444.938 364.992 L 444.156 365.000 L 186.480 365.000 L 185.376 365.014 L 184.272 365.054 L 183.170 365.122 L 182.069 365.217 L 180.972 365.338 L 179.877 365.487 L 178.787 365.663 L 177.701 365.865 L 176.620 366.093 L 175.546 366.349 L 174.478 366.630 L 173.417 366.938 L 172.364 367.271 L 171.320 367.631 L 170.285 368.015 L 169.259 368.425 L 168.244 368.861 L 167.240 369.320 L 166.247 369.805 L 165.267 370.314 L 164.300 370.846 L 163.345 371.402 L 162.405 371.982 L 161.479 372.584 L 160.569 373.209 L 159.674 373.856 L 158.795 374.524 L 157.932 375.215 L 157.087 375.926 L 156.260 376.657 L 155.451 377.409 L 154.660 378.180 L 153.889 378.971 L 153.137 379.780 L 152.406 380.607 L 151.695 381.452 L 151.004 382.315 L 150.336 383.194 L 149.689 384.089 L 149.064 384.999 L 148.462 385.925 L 147.882 386.865 L 147.326 387.820 L 146.794 388.787 L 146.285 389.767 L 145.800 390.760 L 145.341 391.764 L 144.905 392.779 L 144.495 393.805 L 144.111 394.840 L 143.751 395.884 L 143.418 396.937 L 143.110 397.998 L 142.829 399.066 L 142.573 400.140 L 142.345 401.221 L 142.143 402.307 L 141.967 403.397 L 141.818 404.492 L 141.697 405.589 L 141.602 406.690 L 141.534 407.792 L 141.494 408.896 L 141.480 410.000 L 141.494 411.104 L 141.534 412.208 L 141.602 413.310 L 141.697 414.411 L 141.818 415.508 L 141.967 416.603 L 142.143 417.693 L 142.345 418.779 L 142.573 419.860 L 142.829 420.934 L 143.110 422.002 L 143.418 423.063 L 143.751 424.116 L 144.111 425.160 L 144.495 426.195 L 144.905 427.221 L 145.341 428.236 L 145.800 429.240 L 146.285 430.233 L 146.794 431.213 L 147.326 432.180 L 147.882 433.135 L 148.462 434.075 L 149.064 435.001 L 149.689 435.911 L 150.336 436.806 L 151.004 437.685 L 151.695 438.548 L 152.406 439.393 L 153.137 440.220 L 153.889 441.029 L 154.660 441.820 L 155.451 442.591 L 156.260 443.343 L 157.087 444.074 L 157.932 444.785 L 158.795 445.476 L 159.674 446.144 L 160.569 446.791 L 161.479 447.416 L 162.405 448.018 L 163.345 448.598 L 164.300 449.154 L 165.267 449.686 L 166.247 450.195 L 167.240 450.680 L 168.244 451.139 L 169.259 451.575 L 170.285 451.985 L 171.320 452.369 L 172.364 452.729 L 173.417 453.062 L 174.478 453.370 L 175.546 453.651 L 176.620 453.907 L 177.701 454.135 L 178.787 454.337 L 179.877 454.513 L 180.972 454.662 L 182.069 454.783 L 183.170 454.878 L 184.272 454.946 L 185.376 454.986 L 186.480 455.000 L 444.156 455.000 L 444.938 455.008 L 445.476 455.026 L 446.016 455.055 L 446.558 455.097 L 447.103 455.150 L 447.650 455.215 L 448.202 455.293 L 448.758 455.384 L 449.319 455.488 L 449.885 455.606 L 450.457 455.737 L 451.036 455.883 L 451.622 456.044 L 452.214 456.220 L 452.814 456.411 L 453.422 456.619 L 454.038 456.844 L 454.661 457.086 L 455.293 457.346 L 455.933 457.625 L 456.582 457.922 L 457.239 458.239 L 457.904 458.575 L 458.577 458.933 L 459.258 459.311 L 459.947 459.710 L 460.644 460.132 L 461.348 460.575 L 462.060 461.042 L 462.778 461.532 L 463.503 462.045 L 464.234 462.582 L 464.970 463.143 L 465.712 463.728 L 466.459 464.339 L 467.211 464.974 L 467.967 465.634 L 468.726 466.320 L 469.488 467.031 L 470.253 467.768 L 471.021 468.530 L 471.790 469.319 L 472.560 470.133 L 473.331 470.973 L 474.102 471.839 L 474.872 472.731 L 475.642 473.648 L 476.410 474.591 L 477.177 475.560 L 477.941 476.555 L 478.703 477.575 L 479.461 478.620 L 480.215 479.690 L 480.965 480.785 L 481.710 481.905 L 482.450 483.049 L 483.184 484.217 L 483.912 485.410 L 484.633 486.626 L 485.347 487.865 L 486.054 489.128 L 486.753 490.413 L 487.443 491.721 L 488.125 493.051 L 488.798 494.403 L 489.461 495.776 L 490.114 497.171 L 490.757 498.586 L 491.390 500.021 L 492.011 501.477 L 492.621 502.951 L 493.220 504.445 L 493.807 505.958 L 494.381 507.489 L 494.943 509.038 L 495.492 510.604 L 496.027 512.187 L 496.550 513.787 L 497.058 515.403 L 497.553 517.034 L 498.034 518.680 L 498.500 520.341 L 498.951 522.017 L 499.388 523.706 L 499.809 525.408 L 500.216 527.123 L 500.606 528.850 L 500.981 530.589 L 501.341 532.339 L 501.684 534.099 L 502.011 535.870 L 502.322 537.651 L 502.616 539.441 L 502.894 541.240 L 503.154 543.047 L 503.398 544.861 L 503.626 546.683 L 503.836 548.511 L 504.028 550.345 L 504.204 552.185 L 504.362 554.030 L 504.503 555.879 L 504.626 557.733 L 504.732 559.589 L 504.821 561.449 L 504.891 563.311 L 504.944 565.175 L 504.980 567.041 L 504.997 568.907 L 504.997 570.773 L 504.980 572.639 L 504.944 574.505 L 504.891 576.369 L 504.821 578.231 L 504.732 580.091 L 504.626 581.947 L 504.503 583.801 L 504.362 585.650 L 504.204 587.495 L 504.028 589.335 L 503.836 591.169 L 503.626 592.997 L 503.398 594.819 L 503.154 596.633 L 502.894 598.440 L 502.616 600.239 L 502.322 602.029 L 502.011 603.810 L 501.684 605.581 L 501.341 607.341 L 500.981 609.091 L 500.606 610.830 L 500.216 612.557 L 499.809 614.272 L 499.388 615.974 L 498.951 617.663 L 498.500 619.339 L 498.034 621.000 L 497.553 622.646 L 497.058 624.277 L 496.550 625.893 L 496.027 627.493 L 495.492 629.076 L 494.943 630.642 L 494.381 632.191 L 493.807 633.722 L 493.220 635.235 L 492.621 636.729 L 492.011 638.203 L 491.390 639.659 L 490.757 641.094 L 490.114 642.509 L 489.461 643.904 L 488.798 645.277 L 488.125 646.629 L 487.443 647.959 L 486.753 649.267 L 486.054 650.552 L 485.347 651.815 L 484.633 653.054 L 483.912 654.270 L 483.184 655.463 L 482.450 656.631 L 481.710 657.775 L 480.965 658.895 L 480.215 659.990 L 479.461 661.060 L 478.703 662.105 L 477.941 663.125 L 477.177 664.120 L 476.410 665.089 L 475.642 666.032 L 474.872 666.949 L 474.102 667.841 L 473.331 668.707 L 472.560 669.547 L 471.790 670.361 L 471.021 671.150 L 470.253 671.912 L 469.488 672.649 L 468.726 673.360 L 467.967 674.046 L 467.211 674.706 L 466.459 675.341 L 465.712 675.952 L 464.970 676.537 L 464.234 677.098 L 463.503 677.635 L 462.778 678.148 L 462.060 678.638 L 461.348 679.105 L 460.644 679.548 L 459.947 679.970 L 459.258 680.369 L 458.577 680.747 L 457.904 681.105 L 457.239 681.441 L 456.582 681.758 L 455.933 682.055 L 455.293 682.334 L 454.661 682.594 L 454.038 682.836 L 453.422 683.061 L 452.814 683.269 L 452.214 683.460 L 451.622 683.636 L 451.036 683.797 L 450.457 683.943 L 449.885 684.074 L 449.319 684.192 L 448.758 684.296 L 448.202 684.387 L 447.650 684.465 L 447.103 684.530 L 446.558 684.583 L 446.016 684.625 L 445.476 684.654 L 444.938 684.672 L 444.156 684.680 L 159.600 684.680 L 158.496 684.694 L 157.392 684.734 L 156.290 684.802 L 155.189 684.897 L 154.092 685.018 L 152.997 685.167 L 151.907 685.343 L 150.821 685.545 L 149.740 685.773 L 148.666 686.029 L 147.598 686.310 L 146.537 686.618 L 145.484 686.951 L 144.440 687.311 L 143.405 687.695 L 142.379 688.105 L 141.364 688.541 L 140.360 689.000 L 139.367 689.485 L 138.387 689.994 L 137.420 690.526 L 136.465 691.082 L 135.525 691.662 L 134.599 692.264 L 133.689 692.889 L 132.794 693.536 L 131.915 694.204 L 131.052 694.895 L 130.207 695.606 L 129.380 696.337 L 128.571 697.089 L 127.780 697.860 L 127.009 698.651 L 126.257 699.460 L 125.526 700.287 L 124.815 701.132 L 124.124 701.995 L 123.456 702.874 L 122.809 703.769 L 122.184 704.679 L 121.582 705.605 L 121.002 706.545 L 120.446 707.500 L 119.914 708.467 L 119.405 709.447 L 118.920 710.440 L 118.461 711.444 L 118.025 712.459 L 117.615 713.485 L 117.231 714.520 L 116.871 715.564 L 116.538 716.617 L 116.230 717.678 L 115.949 718.746 L 115.693 719.820 L 115.465 720.901 L 115.263 721.987 L 115.087 723.077 L 114.938 724.172 L 114.817 725.269 L 114.722 726.370 L 114.654 727.472 L 114.614 728.576 L 114.600 729.680 L 114.614 730.784 L 114.654 731.888 L 114.722 732.990 L 114.817 734.091 L 114.938 735.188 L 115.087 736.283 L 115.263 737.373 L 115.465 738.459 L 115.693 739.540 L 115.949 740.614 L 116.230 741.682 L 116.538 742.743 L 116.871 743.796 L 117.231 744.840 L 117.615 745.875 L 118.025 746.901 L 118.461 747.916 L 118.920 748.920 L 119.405 749.913 L 119.914 750.893 L 120.446 751.860 L 121.002 752.815 L 121.582 753.755 L 122.184 754.681 L 122.809 755.591 L 123.456 756.486 L 124.124 757.365 L 124.815 758.228 L 125.526 759.073 L 126.257 759.900 L 127.009 760.709 L 127.780 761.500 L 128.571 762.271 L 129.380 763.023 L 130.207 763.754 L 131.052 764.465 L 131.915 765.156 L 132.794 765.824 L 133.689 766.471 L 134.599 767.096 L 135.525 767.698 L 136.465 768.278 L 137.420 768.834 L 138.387 769.366 L 139.367 769.875 L 140.360 770.360 L 141.364 770.819 L 142.379 771.255 L 143.405 771.665 L 144.440 772.049 L 145.484 772.409 L 146.537 772.742 L 147.598 773.050 L 148.666 773.331 L 149.740 773.587 L 150.821 773.815 L 151.907 774.017 L 152.997 774.193 L 154.092 774.342 L 155.189 774.463 L 156.290 774.558 L 157.392 774.626 L 158.496 774.666 L 159.600 774.680 L 444.400 774.680 L 444.644 774.677 L 444.889 774.677 L 446.403 774.661 L 447.380 774.640 L 448.894 774.590 L 449.869 774.548 L 451.383 774.466 L 452.356 774.402 L 453.869 774.287 L 454.838 774.203 L 456.350 774.055 L 457.315 773.950 L 458.825 773.769 L 459.785 773.644 L 461.293 773.431 L 462.246 773.285 L 463.753 773.039 L 464.699 772.874 L 466.203 772.595 L 467.141 772.411 L 468.642 772.099 L 469.572 771.896 L 471.070 771.552 L 471.990 771.330 L 473.485 770.953 L 474.395 770.714 L 475.885 770.305 L 476.785 770.048 L 478.272 769.607 L 479.160 769.333 L 480.642 768.860 L 481.518 768.570 L 482.996 768.064 L 483.859 767.759 L 485.332 767.221 L 486.182 766.901 L 487.649 766.331 L 488.486 765.997 L 489.948 765.395 L 490.771 765.047 L 492.227 764.414 L 493.035 764.053 L 494.485 763.389 L 495.279 763.015 L 496.722 762.319 L 497.501 761.934 L 498.938 761.207 L 499.702 760.811 L 501.132 760.052 L 501.880 759.646 L 503.302 758.857 L 504.036 758.441 L 505.450 757.621 L 506.168 757.196 L 507.575 756.345 L 508.277 755.911 L 509.675 755.030 L 510.362 754.589 L 511.752 753.677 L 512.422 753.229 L 513.804 752.287 L 514.459 751.832 L 515.831 750.860 L 516.471 750.399 L 517.833 749.398 L 518.458 748.931 L 519.811 747.900 L 520.420 747.428 L 521.763 746.368 L 522.356 745.892 L 523.690 744.803 L 524.268 744.322 L 525.591 743.204 L 526.154 742.720 L 527.466 741.573 L 528.015 741.086 L 529.316 739.911 L 529.850 739.420 L 531.140 738.217 L 531.660 737.724 L 532.938 736.494 L 533.444 735.999 L 534.710 734.740 L 535.202 734.243 L 536.457 732.958 L 536.935 732.460 L 538.177 731.147 L 538.642 730.647 L 539.871 729.308 L 540.323 728.808 L 541.540 727.441 L 541.979 726.941 L 543.183 725.548 L 543.609 725.047 L 544.799 723.629 L 545.213 723.128 L 546.390 721.683 L 546.792 721.183 L 547.955 719.713 L 548.345 719.212 L 549.494 717.718 L 549.873 717.218 L 551.007 715.698 L 551.374 715.199 L 552.494 713.655 L 552.851 713.156 L 553.956 711.588 L 554.301 711.091 L 555.392 709.499 L 555.727 709.002 L 556.802 707.387 L 557.126 706.892 L 558.186 705.253 L 558.501 704.759 L 559.545 703.098 L 559.850 702.606 L 560.878 700.922 L 561.173 700.431 L 562.185 698.725 L 562.471 698.235 L 563.467 696.507 L 563.744 696.020 L 564.723 694.270 L 564.991 693.784 L 565.954 692.014 L 566.213 691.530 L 567.159 689.738 L 567.410 689.256 L 568.338 687.445 L 568.581 686.964 L 569.493 685.132 L 569.727 684.654 L 570.621 682.803 L 570.848 682.326 L 571.724 680.455 L 571.943 679.980 L 572.802 678.091 L 573.014 677.618 L 573.854 675.710 L 574.058 675.239 L 574.881 673.313 L 575.078 672.844 L 575.882 670.901 L 576.072 670.433 L 576.858 668.473 L 577.041 668.007 L 577.808 666.030 L 577.985 665.566 L 578.733 663.572 L 578.904 663.110 L 579.633 661.100 L 579.797 660.640 L 580.507 658.614 L 580.664 658.156 L 581.355 656.115 L 581.507 655.658 L 582.178 653.603 L 582.324 653.148 L 582.976 651.078 L 583.116 650.624 L 583.748 648.541 L 583.882 648.089 L 584.494 645.992 L 584.623 645.542 L 585.215 643.431 L 585.339 642.983 L 585.911 640.859 L 586.029 640.412 L 586.581 638.277 L 586.694 637.832 L 587.225 635.685 L 587.333 635.240 L 587.844 633.082 L 587.947 632.639 L 588.438 630.470 L 588.535 630.029 L 589.005 627.849 L 589.098 627.409 L 589.548 625.219 L 589.635 624.780 L 590.064 622.581 L 590.147 622.143 L 590.555 619.935 L 590.633 619.498 L 591.020 617.281 L 591.094 616.846 L 591.460 614.620 L 591.529 614.186 L 591.874 611.953 L 591.938 611.519 L 592.262 609.279 L 592.322 608.847 L 592.624 606.600 L 592.680 606.168 L 592.961 603.915 L 593.013 603.483 L 593.272 601.224 L 593.320 600.794 L 593.558 598.530 L 593.601 598.100 L 593.817 595.830 L 593.856 595.401 L 594.051 593.127 L 594.086 592.699 L 594.259 590.421 L 594.290 589.993 L 594.442 587.711 L 594.468 587.284 L 594.599 584.999 L 594.621 584.572 L 594.729 582.285 L 594.748 581.858 L 594.835 579.568 L 594.849 579.142 L 594.914 576.851 L 594.924 576.424 L 594.967 574.132 L 594.974 573.706 L 594.995 571.413 L 594.997 570.986 L 594.997 568.694 L 594.995 568.267 L 594.974 565.974 L 594.967 565.548 L 594.924 563.256 L 594.914 562.829 L 594.849 560.538 L 594.835 560.112 L 594.748 557.822 L 594.729 557.395 L 594.621 555.108 L 594.599 554.681 L 594.468 552.396 L 594.442 551.969 L 594.290 549.687 L 594.259 549.259 L 594.086 546.981 L 594.051 546.553 L 593.856 544.279 L 593.817 543.850 L 593.601 541.580 L 593.558 541.150 L 593.320 538.886 L 593.272 538.456 L 593.013 536.197 L 592.961 535.765 L 592.680 533.512 L 592.624 533.080 L 592.322 530.833 L 592.262 530.401 L 591.938 528.161 L 591.874 527.727 L 591.529 525.494 L 591.460 525.060 L 591.094 522.834 L 591.020 522.399 L 590.633 520.182 L 590.555 519.745 L 590.147 517.537 L 590.064 517.099 L 589.635 514.900 L 589.548 514.461 L 589.098 512.271 L 589.005 511.831 L 588.535 509.651 L 588.438 509.210 L 587.947 507.041 L 587.844 506.598 L 587.333 504.440 L 587.225 503.995 L 586.694 501.848 L 586.581 501.403 L 586.029 499.268 L 585.911 498.821 L 585.339 496.697 L 585.215 496.249 L 584.623 494.138 L 584.494 493.688 L 583.882 491.591 L 583.748 491.139 L 583.116 489.056 L 582.976 488.602 L 582.324 486.532 L 582.178 486.077 L 581.507 484.022 L 581.355 483.565 L 580.664 481.524 L 580.507 481.066 L 579.797 479.040 L 579.633 478.580 L 578.904 476.570 L 578.733 476.108 L 577.985 474.114 L 577.808 473.650 L 577.041 471.673 L 576.858 471.207 L 576.072 469.247 L 575.882 468.779 L 575.078 466.836 L 574.881 466.367 L 574.058 464.441 L 573.854 463.970 L 573.014 462.062 L 572.802 461.589 L 571.943 459.700 L 571.724 459.225 L 570.848 457.354 L 570.621 456.877 L 569.727 455.026 L 569.493 454.548 L 568.581 452.716 L 568.338 452.235 L 567.410 450.424 L 567.159 449.942 L 566.213 448.150 L 565.954 447.666 L 564.991 445.896 L 564.723 445.410 L 563.744 443.660 L 563.467 443.173 L 562.471 441.445 L 562.185 440.955 L 561.173 439.249 L 560.878 438.758 L 559.850 437.074 L 559.545 436.582 L 558.501 434.921 L 558.186 434.427 L 557.126 432.788 L 556.802 432.293 L 555.727 430.678 L 555.392 430.181 L 554.301 428.589 L 553.956 428.092 L 552.851 426.524 L 552.494 426.025 L 551.374 424.481 L 551.007 423.982 L 549.873 422.462 L 549.494 421.962 L 548.345 420.468 L 547.955 419.967 L 546.792 418.497 L 546.390 417.997 L 545.213 416.552 L 544.799 416.051 L 543.609 414.633 L 543.183 414.132 L 541.979 412.739 L 541.540 412.239 L 540.323 410.872 L 539.871 410.372 L 539.530 410.000 L 539.871 409.628 L 540.323 409.128 L 541.540 407.761 L 541.979 407.261 L 543.183 405.868 L 543.609 405.367 L 544.799 403.949 L 545.213 403.448 L 546.390 402.003 L 546.792 401.503 L 547.955 400.033 L 548.345 399.532 L 549.494 398.038 L 549.873 397.538 L 551.007 396.018 L 551.374 395.519 L 552.494 393.975 L 552.851 393.476 L 553.956 391.908 L 554.301 391.411 L 555.392 389.819 L 555.727 389.322 L 556.802 387.707 L 557.126 387.212 L 558.186 385.573 L 558.501 385.079 L 559.545 383.418 L 559.850 382.926 L 560.878 381.242 L 561.173 380.751 L 562.185 379.045 L 562.471 378.555 L 563.467 376.827 L 563.744 376.340 L 564.723 374.590 L 564.991 374.104 L 565.954 372.334 L 566.213 371.850 L 567.159 370.058 L 567.410 369.576 L 568.338 367.765 L 568.581 367.284 L 569.493 365.452 L 569.727 364.974 L 570.621 363.123 L 570.848 362.646 L 571.724 360.775 L 571.943 360.300 L 572.802 358.411 L 573.014 357.938 L 573.854 356.030 L 574.058 355.559 L 574.881 353.633 L 575.078 353.164 L 575.882 351.221 L 576.072 350.753 L 576.858 348.793 L 577.041 348.327 L 577.808 346.350 L 577.985 345.886 L 578.733 343.892 L 578.904 343.430 L 579.633 341.420 L 579.797 340.960 L 580.507 338.934 L 580.664 338.476 L 581.355 336.435 L 581.507 335.978 L 582.178 333.923 L 582.324 333.468 L 582.976 331.398 L 583.116 330.944 L 583.748 328.861 L 583.882 328.409 L 584.494 326.312 L 584.623 325.862 L 585.215 323.751 L 585.339 323.303 L 585.911 321.179 L 586.029 320.732 L 586.581 318.597 L 586.694 318.152 L 587.225 316.005 L 587.333 315.560 L 587.844 313.402 L 587.947 312.959 L 588.438 310.790 L 588.535 310.349 L 589.005 308.169 L 589.098 307.729 L 589.548 305.539 L 589.635 305.100 L 590.064 302.901 L 590.147 302.463 L 590.555 300.255 L 590.633 299.818 L 591.020 297.601 L 591.094 297.166 L 591.460 294.940 L 591.529 294.506 L 591.874 292.273 L 591.938 291.839 L 592.262 289.599 L 592.322 289.167 L 592.624 286.920 L 592.680 286.488 L 592.961 284.235 L 593.013 283.803 L 593.272 281.544 L 593.320 281.114 L 593.558 278.850 L 593.601 278.420 L 593.817 276.150 L 593.856 275.721 L 594.051 273.447 L 594.086 273.019 L 594.259 270.741 L 594.290 270.313 L 594.442 268.031 L 594.468 267.604 L 594.599 265.319 L 594.621 264.892 L 594.729 262.605 L 594.748 262.178 L 594.835 259.888 L 594.849 259.462 L 594.914 257.171 L 594.924 256.744 L 594.967 254.452 L 594.974 254.026 L 594.995 251.733 L 594.997 251.306 L 594.997 249.014 L 594.995 248.587 L 594.974 246.294 L 594.967 245.868 L 594.924 243.576 L 594.914 243.149 L 594.849 240.858 L 594.835 240.432 L 594.748 238.142 L 594.729 237.715 L 594.621 235.428 L 594.599 235.001 L 594.468 232.716 L 594.442 232.289 L 594.290 230.007 L 594.259 229.579 L 594.086 227.301 L 594.051 226.873 L 593.856 224.599 L 593.817 224.170 L 593.601 221.900 L 593.558 221.470 L 593.320 219.206 L 593.272 218.776 L 593.013 216.517 L 592.961 216.085 L 592.680 213.832 L 592.624 213.400 L 592.322 211.153 L 592.262 210.721 L 591.938 208.481 L 591.874 208.047 L 591.529 205.814 L 591.460 205.380 L 591.094 203.154 L 591.020 202.719 L 590.633 200.502 L 590.555 200.065 L 590.147 197.857 L 590.064 197.419 L 589.635 195.220 L 589.548 194.781 L 589.098 192.591 L 589.005 192.151 L 588.535 189.971 L 588.438 189.530 L 587.947 187.361 L 587.844 186.918 L 587.333 184.760 L 587.225 184.315 L 586.694 182.168 L 586.581 181.723 L 586.029 179.588 L 585.911 179.141 L 585.339 177.017 L 585.215 176.569 L 584.623 174.458 L 584.494 174.008 L 583.882 171.911 L 583.748 171.459 L 583.116 169.376 L 582.976 168.922 L 582.324 166.852 L 582.178 166.397 L 581.507 164.342 L 581.355 163.885 L 580.664 161.844 L 580.507 161.386 L 579.797 159.360 L 579.633 158.900 L 578.904 156.890 L 578.733 156.428 L 577.985 154.434 L 577.808 153.970 L 577.041 151.993 L 576.858 151.527 L 576.072 149.567 L 575.882 149.099 L 575.078 147.156 L 574.881 146.687 L 574.058 144.761 L 573.854 144.290 L 573.014 142.382 L 572.802 141.909 L 571.943 140.020 L 571.724 139.545 L 570.848 137.674 L 570.621 137.197 L 569.727 135.346 L 569.493 134.868 L 568.581 133.036 L 568.338 132.555 L 567.410 130.744 L 567.159 130.262 L 566.213 128.470 L 565.954 127.986 L 564.991 126.216 L 564.723 125.730 L 563.744 123.980 L 563.467 123.493 L 562.471 121.765 L 562.185 121.275 L 561.173 119.569 L 560.878 119.078 L 559.850 117.394 L 559.545 116.902 L 558.501 115.241 L 558.186 114.747 L 557.126 113.108 L 556.802 112.613 L 555.727 110.998 L 555.392 110.501 L 554.301 108.909 L 553.956 108.412 L 552.851 106.844 L 552.494 106.345 L 551.374 104.801 L 551.007 104.302 L 549.873 102.782 L 549.494 102.282 L 548.345 100.788 L 547.955 100.287 L 546.792 98.817 L 546.390 98.317 L 545.213 96.872 L 544.799 96.371 L 543.609 94.953 L 543.183 94.452 L 541.979 93.059 L 541.540 92.559 L 540.323 91.192 L 539.871 90.692 L 538.642 89.353 L 538.177 88.853 L 536.935 87.540 L 536.457 87.042 L 535.202 85.757 L 534.710 85.260 L 533.444 84.001 L 532.938 83.506 L 531.660 82.276 L 531.140 81.783 L 529.850 80.580 L 529.316 80.089 L 528.015 78.914 L 527.466 78.427 L 526.154 77.280 L 525.591 76.796 L 524.268 75.678 L 523.690 75.197 L 522.356 74.108 L 521.763 73.632 L 520.420 72.572 L 519.811 72.100 L 518.458 71.069 L 517.833 70.602 L 516.471 69.601 L 515.831 69.140 L 514.459 68.168 L 513.804 67.713 L 512.422 66.771 L 511.752 66.323 L 510.362 65.411 L 509.675 64.970 L 508.277 64.089 L 507.575 63.655 L 506.168 62.804 L 505.450 62.379 L 504.036 61.559 L 503.302 61.143 L 501.880 60.354 L 501.132 59.948 L 499.702 59.189 L 498.938 58.793 L 497.501 58.066 L 496.722 57.681 L 495.279 56.985 L 494.485 56.611 L 493.035 55.947 L 492.227 55.586 L 490.771 54.953 L 489.948 54.605 L 488.486 54.003 L 487.649 53.669 L 486.182 53.099 L 485.332 52.779 L 483.859 52.241 L 482.996 51.936 L 481.518 51.430 L 480.642 51.140 L 479.160 50.667 L 478.272 50.393 L 476.785 49.952 L 475.885 49.695 L 474.395 49.286 L 473.485 49.047 L 471.990 48.670 L 471.070 48.448 L 469.572 48.104 L 468.642 47.901 L 467.141 47.589 L 466.203 47.405 L 464.699 47.126 L 463.753 46.961 L 462.246 46.715 L 461.293 46.569 L 459.785 46.356 L 458.825 46.231 L 457.315 46.050 L 456.350 45.945 L 454.838 45.797 L 453.869 45.713 L 452.356 45.598 L 451.383 45.534 L 449.869 45.452 L 448.894 45.410 L 447.380 45.360 L 446.403 45.339 L 444.889 45.323 L 444.644 45.323 L 444.400 45.320 L 159.600 45.320 Z" fill="black" fill-rule="evenodd"/>
</svg>
