<svg xmlns="http://www.w3.org/2000/svg" viewBox="0 0 700.000 1000" width="700.000" height="1000">
  <path d="M 232.646 224.305 L 233.944 221.573 L 235.308 218.896 L 236.736 216.272 L 238.229 213.701 L 239.785 211.180 L 241.405 208.709 L 243.086 206.287 L 244.830 203.914 L 246.635 201.588 L 248.502 199.310 L 250.429 197.079 L 252.415 194.895 L 254.462 192.758 L 256.567 190.668 L 258.730 188.625 L 260.950 186.629 L 263.227 184.681 L 265.560 182.781 L 267.947 180.930 L 270.388 179.128 L 272.882 177.375 L 275.427 175.673 L 278.022 174.023 L 280.666 172.424 L 283.358 170.877 L 286.095 169.384 L 288.877 167.944 L 291.701 166.560 L 294.567 165.230 L 297.472 163.957 L 300.415 162.741 L 303.394 161.582 L 306.406 160.481 L 309.451 159.439 L 312.526 158.456 L 315.629 157.534 L 318.758 156.672 L 321.911 155.870 L 325.086 155.131 L 328.281 154.453 L 331.494 153.838 L 334.722 153.286 L 337.964 152.797 L 341.217 152.371 L 344.480 152.009 L 347.749 151.711 L 351.023 151.477 L 354.299 151.308 L 357.576 151.203 L 360.852 151.162 L 364.123 151.187 L 367.388 151.275 L 370.644 151.429 L 373.891 151.647 L 377.124 151.929 L 380.343 152.276 L 383.545 152.687 L 386.729 153.161 L 389.891 153.700 L 393.031 154.301 L 396.146 154.966 L 399.234 155.694 L 402.293 156.483 L 405.322 157.335 L 408.320 158.249 L 411.283 159.224 L 414.210 160.259 L 417.101 161.355 L 419.953 162.510 L 422.765 163.726 L 425.536 165.000 L 428.265 166.332 L 430.949 167.723 L 433.589 169.172 L 436.183 170.679 L 438.729 172.243 L 441.229 173.864 L 443.679 175.542 L 446.081 177.277 L 448.433 179.069 L 450.734 180.919 L 452.985 182.826 L 455.184 184.791 L 457.332 186.815 L 459.428 188.898 L 461.471 191.040 L 463.462 193.244 L 465.170 195.242 L 466.237 196.604 L 467.520 198.322 L 468.742 200.042 L 469.905 201.763 L 471.012 203.487 L 472.063 205.214 L 473.060 206.944 L 474.004 208.678 L 474.897 210.417 L 475.739 212.160 L 476.533 213.910 L 477.279 215.666 L 477.977 217.429 L 478.630 219.201 L 479.237 220.983 L 479.799 222.774 L 480.318 224.577 L 480.793 226.392 L 481.224 228.220 L 481.613 230.062 L 481.959 231.919 L 482.262 233.791 L 482.523 235.680 L 482.741 237.585 L 482.916 239.509 L 483.048 241.450 L 483.137 243.410 L 483.182 245.390 L 483.183 247.388 L 483.140 249.407 L 483.052 251.445 L 482.920 253.504 L 482.741 255.582 L 482.517 257.681 L 482.246 259.799 L 481.928 261.938 L 481.562 264.095 L 481.149 266.273 L 480.687 268.469 L 480.177 270.683 L 479.618 272.916 L 479.009 275.166 L 478.350 277.433 L 477.641 279.717 L 476.882 282.016 L 476.072 284.331 L 475.210 286.660 L 474.298 289.003 L 473.334 291.359 L 472.319 293.727 L 471.252 296.107 L 470.133 298.497 L 468.962 300.898 L 467.739 303.307 L 466.464 305.725 L 465.136 308.151 L 463.757 310.584 L 462.326 313.022 L 460.843 315.465 L 459.308 317.913 L 457.721 320.364 L 456.082 322.818 L 454.391 325.274 L 452.650 327.730 L 450.857 330.187 L 449.012 332.643 L 447.117 335.098 L 445.171 337.550 L 443.175 340.000 L 441.128 342.445 L 439.031 344.886 L 436.885 347.322 L 434.689 349.752 L 432.443 352.174 L 430.149 354.589 L 427.805 356.996 L 425.414 359.393 L 422.974 361.780 L 420.486 364.157 L 417.950 366.523 L 415.368 368.876 L 412.738 371.217 L 410.062 373.544 L 407.339 375.857 L 404.571 378.155 L 401.757 380.438 L 398.897 382.704 L 395.993 384.953 L 392.845 387.335 L 392.717 387.433 L 390.385 389.210 L 388.086 390.959 L 385.799 392.695 L 383.521 394.421 L 381.255 396.135 L 378.998 397.840 L 376.752 399.535 L 374.515 401.221 L 372.288 402.899 L 370.071 404.569 L 367.866 406.231 L 365.669 407.886 L 363.482 409.535 L 361.303 411.180 L 359.133 412.819 L 356.972 414.455 L 354.819 416.088 L 354.781 416.116 L 352.674 417.718 L 352.630 417.751 L 350.537 419.346 L 350.488 419.383 L 348.407 420.972 L 348.353 421.014 L 346.286 422.598 L 346.226 422.644 L 344.172 424.223 L 344.106 424.274 L 342.066 425.849 L 341.994 425.905 L 339.967 427.476 L 339.889 427.537 L 337.875 429.105 L 337.792 429.170 L 335.791 430.736 L 335.701 430.806 L 333.713 432.370 L 333.618 432.445 L 331.643 434.008 L 331.541 434.088 L 329.579 435.649 L 329.472 435.735 L 327.522 437.296 L 327.409 437.387 L 325.472 438.948 L 325.353 439.044 L 323.429 440.606 L 323.304 440.708 L 321.392 442.271 L 321.262 442.378 L 319.362 443.943 L 319.226 444.055 L 317.338 445.623 L 317.197 445.741 L 315.322 447.311 L 315.175 447.435 L 313.311 449.008 L 313.159 449.138 L 311.308 450.715 L 311.150 450.850 L 309.311 452.433 L 309.148 452.573 L 307.320 454.161 L 307.152 454.307 L 305.337 455.900 L 305.164 456.053 L 303.360 457.652 L 303.182 457.810 L 301.390 459.416 L 301.208 459.580 L 299.427 461.193 L 299.240 461.363 L 297.470 462.984 L 297.280 463.160 L 295.521 464.790 L 295.327 464.971 L 293.579 466.609 L 293.381 466.797 L 291.645 468.445 L 291.442 468.638 L 289.718 470.296 L 289.512 470.495 L 287.798 472.163 L 287.589 472.368 L 285.886 474.047 L 285.674 474.258 L 283.982 475.949 L 283.767 476.165 L 282.085 477.868 L 281.868 478.090 L 280.197 479.806 L 279.978 480.033 L 278.318 481.762 L 278.096 481.995 L 276.446 483.738 L 276.223 483.976 L 274.583 485.733 L 274.358 485.976 L 272.729 487.748 L 272.503 487.996 L 270.884 489.784 L 270.657 490.037 L 269.048 491.841 L 268.820 492.098 L 267.222 493.919 L 266.993 494.181 L 265.404 496.018 L 265.176 496.285 L 263.597 498.140 L 263.368 498.411 L 261.799 500.284 L 261.571 500.559 L 260.011 502.451 L 259.784 502.730 L 258.234 504.641 L 258.007 504.924 L 256.466 506.855 L 256.240 507.141 L 254.709 509.092 L 254.484 509.381 L 252.963 511.354 L 252.739 511.646 L 251.227 513.640 L 251.005 513.935 L 249.502 515.951 L 249.282 516.249 L 247.789 518.287 L 247.571 518.587 L 246.086 520.649 L 245.870 520.951 L 244.394 523.036 L 244.181 523.340 L 242.714 525.450 L 242.503 525.755 L 241.045 527.890 L 240.837 528.197 L 239.387 530.356 L 239.182 530.664 L 237.741 532.850 L 237.539 533.159 L 236.106 535.371 L 235.908 535.681 L 234.483 537.919 L 234.288 538.230 L 232.872 540.496 L 232.680 540.806 L 231.272 543.100 L 231.083 543.411 L 229.684 545.734 L 229.499 546.044 L 228.108 548.396 L 227.926 548.706 L 226.543 551.087 L 226.365 551.396 L 224.989 553.808 L 224.815 554.116 L 223.448 556.559 L 223.277 556.866 L 221.917 559.340 L 221.751 559.646 L 220.398 562.151 L 219.677 563.547 L 129.677 745.224 L 129.200 746.217 L 128.748 747.221 L 128.320 748.235 L 127.918 749.260 L 127.540 750.294 L 127.188 751.338 L 126.862 752.389 L 126.562 753.448 L 126.287 754.514 L 126.039 755.587 L 125.817 756.665 L 125.621 757.749 L 125.452 758.837 L 125.310 759.929 L 125.194 761.023 L 125.105 762.121 L 125.044 763.220 L 125.009 764.321 L 125.001 765.421 L 125.019 766.522 L 125.065 767.622 L 125.138 768.721 L 125.238 769.817 L 125.364 770.911 L 125.517 772.001 L 125.697 773.088 L 125.903 774.169 L 126.136 775.245 L 126.394 776.315 L 126.679 777.379 L 126.990 778.435 L 127.327 779.483 L 127.689 780.523 L 128.077 781.553 L 128.489 782.574 L 128.927 783.584 L 129.389 784.584 L 129.875 785.571 L 130.386 786.547 L 130.920 787.510 L 131.477 788.459 L 132.058 789.395 L 132.661 790.316 L 133.287 791.222 L 133.934 792.112 L 134.603 792.986 L 135.294 793.844 L 136.005 794.684 L 136.736 795.507 L 137.488 796.312 L 138.259 797.098 L 139.048 797.865 L 139.857 798.612 L 140.683 799.340 L 141.527 800.047 L 142.388 800.733 L 143.266 801.398 L 144.159 802.041 L 145.068 802.662 L 145.992 803.261 L 146.931 803.837 L 147.883 804.390 L 148.848 804.919 L 149.826 805.425 L 150.816 805.906 L 151.818 806.363 L 152.830 806.796 L 153.853 807.203 L 154.886 807.586 L 155.927 807.943 L 156.977 808.274 L 158.035 808.580 L 159.099 808.860 L 160.171 809.113 L 161.248 809.341 L 162.331 809.542 L 163.418 809.716 L 164.509 809.864 L 165.603 809.985 L 166.700 810.079 L 167.799 810.146 L 168.899 810.187 L 170.000 810.200 L 520.000 810.200 L 521.104 810.186 L 522.208 810.146 L 523.310 810.078 L 524.411 809.983 L 525.508 809.862 L 526.603 809.713 L 527.693 809.537 L 528.779 809.335 L 529.860 809.107 L 530.934 808.851 L 532.002 808.570 L 533.063 808.262 L 534.116 807.929 L 535.160 807.569 L 536.195 807.185 L 537.221 806.775 L 538.236 806.339 L 539.240 805.880 L 540.233 805.395 L 541.213 804.886 L 542.180 804.354 L 543.135 803.798 L 544.075 803.218 L 545.001 802.616 L 545.911 801.991 L 546.806 801.344 L 547.685 800.676 L 548.548 799.985 L 549.393 799.274 L 550.220 798.543 L 551.029 797.791 L 551.820 797.020 L 552.591 796.229 L 553.343 795.420 L 554.074 794.593 L 554.785 793.748 L 555.476 792.885 L 556.144 792.006 L 556.791 791.111 L 557.416 790.201 L 558.018 789.275 L 558.598 788.335 L 559.154 787.380 L 559.686 786.413 L 560.195 785.433 L 560.680 784.440 L 561.139 783.436 L 561.575 782.421 L 561.985 781.395 L 562.369 780.360 L 562.729 779.316 L 563.062 778.263 L 563.370 777.202 L 563.651 776.134 L 563.907 775.060 L 564.135 773.979 L 564.337 772.893 L 564.513 771.803 L 564.662 770.708 L 564.783 769.611 L 564.878 768.510 L 564.946 767.408 L 564.986 766.304 L 565.000 765.200 L 564.986 764.096 L 564.946 762.992 L 564.878 761.890 L 564.783 760.789 L 564.662 759.692 L 564.513 758.597 L 564.337 757.507 L 564.135 756.421 L 563.907 755.340 L 563.651 754.266 L 563.370 753.198 L 563.062 752.137 L 562.729 751.084 L 562.369 750.040 L 561.985 749.005 L 561.575 747.979 L 561.139 746.964 L 560.680 745.960 L 560.195 744.967 L 559.686 743.987 L 559.154 743.020 L 558.598 742.065 L 558.018 741.125 L 557.416 740.199 L 556.791 739.289 L 556.144 738.394 L 555.476 737.515 L 554.785 736.652 L 554.074 735.807 L 553.343 734.980 L 552.591 734.171 L 551.820 733.380 L 551.029 732.609 L 550.220 731.857 L 549.393 731.126 L 548.548 730.415 L 547.685 729.724 L 546.806 729.056 L 545.911 728.409 L 545.001 727.784 L 544.075 727.182 L 543.135 726.602 L 542.180 726.046 L 541.213 725.514 L 540.233 725.005 L 539.240 724.520 L 538.236 724.061 L 537.221 723.625 L 536.195 723.215 L 535.160 722.831 L 534.116 722.471 L 533.063 722.138 L 532.002 721.830 L 530.934 721.549 L 529.860 721.293 L 528.779 721.065 L 527.693 720.863 L 526.603 720.687 L 525.508 720.538 L 524.411 720.417 L 523.310 720.322 L 522.208 720.254 L 521.104 720.214 L 520.000 720.200 L 242.511 720.200 L 299.975 604.202 L 300.871 602.541 L 302.062 600.374 L 303.257 598.240 L 304.456 596.137 L 305.660 594.065 L 306.868 592.023 L 308.080 590.011 L 309.297 588.027 L 310.519 586.071 L 311.746 584.143 L 312.978 582.241 L 314.215 580.364 L 315.459 578.512 L 316.708 576.684 L 317.963 574.879 L 319.224 573.097 L 320.492 571.336 L 321.767 569.597 L 323.049 567.877 L 324.339 566.177 L 325.636 564.495 L 326.941 562.831 L 328.255 561.183 L 329.577 559.553 L 330.909 557.937 L 332.249 556.337 L 333.600 554.750 L 334.960 553.177 L 336.331 551.616 L 337.712 550.067 L 339.104 548.530 L 340.508 547.003 L 341.923 545.486 L 343.351 543.977 L 344.790 542.478 L 346.243 540.986 L 347.708 539.502 L 349.187 538.024 L 350.680 536.552 L 352.186 535.085 L 353.707 533.624 L 355.242 532.166 L 356.793 530.712 L 358.358 529.262 L 359.939 527.813 L 361.536 526.367 L 363.149 524.922 L 364.778 523.478 L 366.423 522.034 L 368.086 520.591 L 369.765 519.146 L 371.461 517.700 L 373.175 516.253 L 374.906 514.804 L 376.655 513.351 L 378.421 511.896 L 380.206 510.437 L 382.009 508.974 L 383.830 507.506 L 385.670 506.033 L 387.528 504.555 L 389.404 503.070 L 391.300 501.579 L 393.214 500.081 L 395.147 498.576 L 397.100 497.062 L 399.071 495.541 L 401.061 494.010 L 403.071 492.470 L 405.099 490.920 L 407.147 489.360 L 409.214 487.789 L 411.301 486.207 L 413.406 484.614 L 415.532 483.008 L 417.676 481.389 L 419.839 479.758 L 422.022 478.113 L 424.225 476.454 L 426.444 474.782 L 428.682 473.095 L 430.940 471.393 L 433.217 469.675 L 435.513 467.940 L 437.829 466.189 L 440.164 464.420 L 442.518 462.633 L 442.554 462.606 L 444.891 460.828 L 444.931 460.797 L 447.219 459.053 L 450.503 456.568 L 450.902 456.263 L 454.204 453.705 L 454.601 453.394 L 457.857 450.814 L 458.253 450.496 L 461.463 447.893 L 461.858 447.569 L 465.020 444.943 L 465.414 444.613 L 468.530 441.966 L 468.922 441.629 L 471.990 438.961 L 472.382 438.616 L 475.402 435.928 L 475.792 435.577 L 478.764 432.868 L 479.153 432.510 L 482.077 429.782 L 482.464 429.416 L 485.339 426.670 L 485.725 426.296 L 488.551 423.531 L 488.936 423.150 L 491.712 420.368 L 492.096 419.978 L 494.822 417.179 L 495.204 416.781 L 497.880 413.965 L 498.261 413.559 L 500.886 410.727 L 501.265 410.313 L 503.840 407.465 L 504.217 407.042 L 506.740 404.179 L 507.116 403.747 L 509.588 400.869 L 509.962 400.428 L 512.382 397.537 L 512.754 397.086 L 515.121 394.182 L 515.491 393.722 L 517.806 390.804 L 518.174 390.334 L 520.436 387.404 L 520.802 386.924 L 523.011 383.982 L 523.374 383.491 L 525.529 380.539 L 525.890 380.037 L 527.991 377.074 L 528.349 376.561 L 530.396 373.588 L 530.751 373.064 L 532.743 370.081 L 533.095 369.546 L 535.032 366.554 L 535.380 366.007 L 537.262 363.007 L 537.607 362.448 L 539.433 359.439 L 539.774 358.868 L 541.544 355.852 L 541.881 355.268 L 543.595 352.246 L 543.928 351.649 L 545.585 348.620 L 545.912 348.010 L 547.513 344.976 L 547.835 344.352 L 549.378 341.312 L 549.695 340.675 L 551.180 337.631 L 551.491 336.980 L 552.918 333.931 L 553.223 333.266 L 554.592 330.214 L 554.890 329.535 L 556.200 326.479 L 556.490 325.785 L 557.741 322.728 L 558.024 322.018 L 559.216 318.959 L 559.491 318.235 L 560.622 315.174 L 560.889 314.435 L 561.960 311.373 L 562.217 310.618 L 563.228 307.556 L 563.475 306.786 L 564.425 303.724 L 564.661 302.938 L 565.551 299.877 L 565.776 299.076 L 566.603 296.016 L 566.816 295.199 L 567.583 292.142 L 567.783 291.309 L 568.487 288.254 L 568.674 287.406 L 569.315 284.353 L 569.488 283.490 L 570.067 280.441 L 570.224 279.562 L 570.740 276.518 L 570.882 275.623 L 571.334 272.584 L 571.460 271.675 L 571.848 268.640 L 571.956 267.717 L 572.281 264.688 L 572.371 263.750 L 572.630 260.728 L 572.702 259.777 L 572.897 256.761 L 572.948 255.797 L 573.078 252.789 L 573.109 251.813 L 573.173 248.812 L 573.183 247.824 L 573.182 244.832 L 573.170 243.834 L 573.102 240.850 L 573.067 239.842 L 572.933 236.868 L 572.875 235.850 L 572.673 232.887 L 572.592 231.861 L 572.323 228.908 L 572.217 227.875 L 571.880 224.934 L 571.749 223.895 L 571.345 220.965 L 571.189 219.922 L 570.716 217.004 L 570.534 215.957 L 569.993 213.052 L 569.784 212.003 L 569.174 209.112 L 568.939 208.062 L 568.260 205.185 L 567.999 204.136 L 567.250 201.273 L 566.963 200.226 L 566.144 197.378 L 565.830 196.335 L 564.941 193.502 L 564.601 192.464 L 563.641 189.648 L 563.275 188.616 L 562.244 185.817 L 561.853 184.793 L 560.751 182.011 L 560.335 180.997 L 559.161 178.232 L 558.721 177.229 L 557.475 174.482 L 557.011 173.491 L 555.692 170.763 L 555.205 169.786 L 553.814 167.078 L 553.305 166.115 L 551.841 163.427 L 551.311 162.481 L 549.774 159.813 L 549.224 158.884 L 547.613 156.237 L 547.043 155.326 L 545.358 152.700 L 544.771 151.809 L 543.011 149.206 L 542.407 148.334 L 540.573 145.754 L 539.954 144.903 L 538.044 142.346 L 537.410 141.517 L 535.426 138.983 L 534.822 138.229 L 534.202 137.488 L 531.467 134.290 L 530.660 133.371 L 527.852 130.263 L 527.025 129.371 L 524.145 126.351 L 523.300 125.488 L 520.350 122.557 L 519.488 121.722 L 516.470 118.879 L 515.593 118.074 L 512.510 115.319 L 511.619 114.544 L 508.471 111.877 L 507.569 111.132 L 504.359 108.553 L 503.446 107.838 L 500.176 105.346 L 499.254 104.662 L 495.926 102.258 L 494.997 101.604 L 491.613 99.286 L 490.677 98.662 L 487.238 96.432 L 486.297 95.838 L 482.807 93.695 L 481.861 93.130 L 478.320 91.074 L 477.372 90.538 L 473.783 88.568 L 472.833 88.061 L 469.197 86.178 L 468.246 85.699 L 464.566 83.901 L 463.614 83.450 L 459.892 81.738 L 458.941 81.314 L 455.178 79.688 L 454.228 79.291 L 450.427 77.751 L 449.478 77.379 L 445.640 75.924 L 444.694 75.577 L 440.821 74.208 L 439.878 73.886 L 435.973 72.601 L 435.032 72.303 L 431.096 71.103 L 430.159 70.829 L 426.194 69.714 L 425.260 69.462 L 421.268 68.431 L 420.338 68.202 L 416.322 67.255 L 415.395 67.047 L 411.356 66.185 L 410.433 65.998 L 406.373 65.220 L 405.454 65.054 L 401.375 64.360 L 400.460 64.214 L 396.364 63.603 L 395.453 63.477 L 391.341 62.949 L 390.434 62.842 L 386.309 62.398 L 385.406 62.310 L 381.270 61.949 L 380.370 61.879 L 376.225 61.601 L 375.328 61.550 L 371.176 61.354 L 370.282 61.321 L 366.125 61.208 L 365.234 61.192 L 361.073 61.162 L 360.185 61.164 L 356.023 61.215 L 355.137 61.235 L 350.976 61.368 L 350.093 61.405 L 345.934 61.620 L 345.053 61.674 L 340.898 61.971 L 340.019 62.043 L 335.871 62.421 L 334.993 62.509 L 330.853 62.969 L 329.977 63.075 L 325.848 63.615 L 324.973 63.738 L 320.856 64.359 L 319.981 64.500 L 315.879 65.202 L 315.005 65.360 L 310.919 66.143 L 310.046 66.319 L 305.978 67.182 L 305.105 67.376 L 301.057 68.319 L 300.185 68.531 L 296.159 69.554 L 295.287 69.785 L 291.285 70.887 L 290.412 71.137 L 286.437 72.319 L 285.564 72.589 L 281.617 73.850 L 280.744 74.139 L 276.826 75.480 L 275.953 75.788 L 272.068 77.208 L 271.195 77.537 L 267.343 79.036 L 266.470 79.386 L 262.654 80.964 L 261.781 81.335 L 258.002 82.991 L 257.130 83.385 L 253.391 85.119 L 252.519 85.535 L 248.822 87.347 L 247.950 87.787 L 244.297 89.677 L 243.426 90.139 L 239.819 92.107 L 238.950 92.594 L 235.390 94.640 L 234.522 95.151 L 231.012 97.274 L 230.147 97.811 L 226.688 100.011 L 225.826 100.573 L 222.421 102.851 L 221.562 103.439 L 218.212 105.793 L 217.358 106.408 L 214.066 108.839 L 213.217 109.481 L 209.983 111.989 L 209.141 112.658 L 205.969 115.242 L 205.133 115.940 L 202.024 118.599 L 201.197 119.325 L 198.153 122.061 L 197.335 122.815 L 194.358 125.626 L 193.550 126.409 L 190.643 129.296 L 189.846 130.107 L 187.010 133.069 L 186.227 133.909 L 183.463 136.946 L 182.694 137.814 L 180.006 140.927 L 179.253 141.822 L 176.641 145.010 L 175.905 145.933 L 173.373 149.195 L 172.655 150.145 L 170.203 153.482 L 169.506 154.458 L 167.137 157.869 L 166.461 158.871 L 164.177 162.356 L 163.524 163.383 L 161.327 166.942 L 160.698 167.992 L 158.589 171.625 L 157.986 172.697 L 155.969 176.403 L 155.393 177.496 L 153.467 181.276 L 152.920 182.388 L 151.089 186.241 L 150.572 187.371 L 148.837 191.297 L 148.403 192.313 L 147.995 193.339 L 147.611 194.374 L 147.253 195.419 L 146.921 196.472 L 146.615 197.534 L 146.335 198.602 L 146.081 199.677 L 145.853 200.758 L 145.653 201.844 L 145.479 202.934 L 145.331 204.029 L 145.211 205.127 L 145.118 206.227 L 145.051 207.330 L 145.012 208.433 L 145.000 209.538 L 145.015 210.642 L 145.057 211.746 L 145.126 212.848 L 145.222 213.948 L 145.346 215.046 L 145.496 216.140 L 145.672 217.230 L 145.876 218.316 L 146.106 219.396 L 146.363 220.470 L 146.646 221.538 L 146.954 222.598 L 147.289 223.650 L 147.650 224.694 L 148.036 225.729 L 148.448 226.754 L 148.884 227.769 L 149.345 228.772 L 149.831 229.764 L 150.341 230.744 L 150.875 231.711 L 151.432 232.664 L 152.012 233.604 L 152.616 234.529 L 153.242 235.439 L 153.890 236.333 L 154.560 237.211 L 155.251 238.072 L 155.963 238.916 L 156.696 239.743 L 157.449 240.551 L 158.221 241.341 L 159.012 242.111 L 159.823 242.862 L 160.651 243.592 L 161.497 244.302 L 162.360 244.991 L 163.240 245.659 L 164.136 246.305 L 165.047 246.928 L 165.974 247.529 L 166.915 248.107 L 167.870 248.662 L 168.838 249.194 L 169.819 249.701 L 170.812 250.184 L 171.817 250.643 L 172.833 251.077 L 173.859 251.485 L 174.894 251.869 L 175.939 252.227 L 176.992 252.559 L 178.054 252.865 L 179.122 253.145 L 180.197 253.399 L 181.278 253.627 L 182.364 253.827 L 183.454 254.001 L 184.549 254.149 L 185.647 254.269 L 186.747 254.362 L 187.850 254.429 L 188.953 254.468 L 190.058 254.480 L 191.162 254.465 L 192.266 254.423 L 193.368 254.354 L 194.468 254.258 L 195.566 254.134 L 196.660 253.984 L 197.750 253.808 L 198.836 253.604 L 199.916 253.374 L 200.990 253.117 L 202.058 252.834 L 203.118 252.526 L 204.170 252.191 L 205.214 251.830 L 206.249 251.444 L 207.274 251.032 L 208.289 250.596 L 209.292 250.135 L 210.284 249.649 L 211.264 249.139 L 212.231 248.605 L 213.184 248.048 L 214.124 247.468 L 215.049 246.864 L 215.959 246.238 L 216.853 245.590 L 217.731 244.920 L 218.592 244.229 L 219.436 243.517 L 220.263 242.784 L 221.071 242.031 L 221.861 241.259 L 222.631 240.468 L 223.382 239.657 L 224.112 238.829 L 224.822 237.983 L 225.511 237.120 L 226.179 236.240 L 226.825 235.344 L 227.448 234.433 L 228.049 233.506 L 228.627 232.565 L 229.182 231.610 L 229.714 230.642 L 230.221 229.661 L 230.704 228.668 L 231.163 227.663 L 232.646 224.305 Z" fill="black" fill-rule="evenodd"/>
</svg>
