<svg xmlns="http://www.w3.org/2000/svg" viewBox="0 0 700.000 1000" width="700.000" height="1000">
  <path d="M 464.583 652.435 L 462.253 656.160 L 459.895 659.804 L 457.510 663.366 L 455.101 666.845 L 452.667 670.240 L 450.212 673.549 L 447.736 676.773 L 445.240 679.910 L 442.727 682.959 L 440.197 685.920 L 437.652 688.793 L 435.095 691.576 L 432.525 694.270 L 429.945 696.874 L 427.356 699.387 L 424.761 701.810 L 422.159 704.143 L 419.554 706.385 L 416.946 708.537 L 414.337 710.598 L 411.727 712.570 L 409.120 714.452 L 406.515 716.244 L 403.914 717.949 L 401.319 719.566 L 398.729 721.095 L 396.147 722.539 L 393.573 723.897 L 391.008 725.171 L 388.452 726.362 L 385.906 727.471 L 383.370 728.498 L 380.845 729.446 L 378.330 730.315 L 375.825 731.107 L 373.331 731.823 L 370.846 732.463 L 368.370 733.029 L 365.902 733.522 L 363.442 733.943 L 360.989 734.292 L 358.541 734.570 L 356.097 734.779 L 353.657 734.918 L 351.219 734.987 L 348.781 734.987 L 346.343 734.918 L 343.903 734.779 L 341.459 734.570 L 339.011 734.292 L 336.558 733.943 L 334.098 733.522 L 331.630 733.029 L 329.154 732.463 L 326.669 731.823 L 324.175 731.107 L 321.670 730.315 L 319.155 729.446 L 316.630 728.498 L 314.094 727.471 L 311.548 726.362 L 308.992 725.171 L 306.427 723.897 L 303.853 722.539 L 301.271 721.095 L 298.681 719.566 L 296.086 717.949 L 293.485 716.244 L 290.880 714.452 L 288.273 712.570 L 285.663 710.598 L 283.054 708.537 L 280.446 706.385 L 277.841 704.143 L 275.239 701.810 L 272.644 699.387 L 270.055 696.874 L 267.475 694.270 L 264.905 691.576 L 262.348 688.793 L 259.803 685.920 L 257.273 682.959 L 254.760 679.910 L 252.264 676.773 L 249.788 673.549 L 247.333 670.240 L 244.899 666.845 L 242.490 663.366 L 240.105 659.804 L 237.747 656.160 L 235.417 652.435 L 233.116 648.629 L 230.845 644.745 L 228.606 640.783 L 226.400 636.745 L 224.227 632.632 L 222.090 628.445 L 219.989 624.185 L 217.925 619.855 L 215.900 615.455 L 213.915 610.987 L 211.970 606.452 L 210.066 601.852 L 208.205 597.189 L 206.387 592.463 L 204.613 587.677 L 202.884 582.832 L 201.201 577.930 L 199.565 572.972 L 197.976 567.960 L 196.436 562.896 L 194.944 557.782 L 193.502 552.618 L 192.110 547.408 L 190.769 542.152 L 189.479 536.852 L 188.241 531.511 L 187.056 526.129 L 185.924 520.709 L 184.846 515.253 L 183.821 509.761 L 182.851 504.237 L 181.936 498.682 L 181.077 493.098 L 180.273 487.487 L 179.525 481.850 L 178.833 476.189 L 178.198 470.506 L 177.620 464.804 L 177.099 459.084 L 176.635 453.347 L 176.229 447.596 L 175.880 441.833 L 175.590 436.060 L 175.357 430.277 L 175.182 424.489 L 175.066 418.695 L 175.008 412.899 L 175.008 407.101 L 175.066 401.305 L 175.182 395.511 L 175.357 389.723 L 175.590 383.940 L 175.880 378.167 L 176.229 372.404 L 176.635 366.653 L 177.099 360.916 L 177.620 355.196 L 178.198 349.494 L 178.833 343.811 L 179.525 338.150 L 180.273 332.513 L 181.077 326.902 L 181.936 321.318 L 182.851 315.763 L 183.821 310.239 L 184.846 304.747 L 185.924 299.291 L 187.056 293.871 L 188.241 288.489 L 189.479 283.148 L 190.769 277.848 L 192.110 272.592 L 193.502 267.382 L 194.944 262.218 L 196.436 257.104 L 197.976 252.040 L 199.565 247.028 L 201.201 242.070 L 202.884 237.168 L 204.613 232.323 L 206.387 227.537 L 208.205 222.811 L 210.066 218.148 L 211.970 213.548 L 213.915 209.013 L 215.900 204.545 L 217.925 200.145 L 219.989 195.815 L 222.090 191.555 L 224.227 187.368 L 226.400 183.255 L 228.606 179.217 L 230.845 175.255 L 233.116 171.371 L 235.417 167.565 L 237.747 163.840 L 240.105 160.196 L 242.490 156.634 L 244.899 153.155 L 247.333 149.760 L 249.788 146.451 L 252.264 143.227 L 254.760 140.090 L 257.273 137.041 L 259.803 134.080 L 262.348 131.207 L 264.905 128.424 L 267.475 125.730 L 270.055 123.126 L 272.644 120.613 L 275.239 118.190 L 277.841 115.857 L 280.446 113.615 L 283.054 111.463 L 285.663 109.402 L 288.273 107.430 L 290.880 105.548 L 293.485 103.756 L 296.086 102.051 L 298.681 100.434 L 301.271 98.905 L 303.853 97.461 L 306.427 96.103 L 308.992 94.829 L 311.548 93.638 L 314.094 92.529 L 316.630 91.502 L 319.155 90.554 L 321.670 89.685 L 324.175 88.893 L 326.669 88.177 L 329.154 87.537 L 331.630 86.971 L 334.098 86.478 L 336.558 86.057 L 339.011 85.708 L 341.459 85.430 L 343.903 85.221 L 346.343 85.082 L 348.781 85.013 L 351.219 85.013 L 353.657 85.082 L 356.097 85.221 L 358.541 85.430 L 360.989 85.708 L 363.442 86.057 L 365.902 86.478 L 368.370 86.971 L 370.846 87.537 L 373.331 88.177 L 375.825 88.893 L 378.330 89.685 L 380.845 90.554 L 383.370 91.502 L 385.906 92.529 L 388.452 93.638 L 391.008 94.829 L 393.573 96.103 L 396.147 97.461 L 398.729 98.905 L 401.319 100.434 L 403.914 102.051 L 406.515 103.756 L 409.120 105.548 L 411.727 107.430 L 414.337 109.402 L 416.946 111.463 L 419.554 113.615 L 422.159 115.857 L 424.761 118.190 L 427.356 120.613 L 429.945 123.126 L 432.525 125.730 L 435.095 128.424 L 437.652 131.207 L 440.197 134.080 L 442.727 137.041 L 445.240 140.090 L 447.736 143.227 L 450.212 146.451 L 452.667 149.760 L 455.101 153.155 L 457.510 156.634 L 459.895 160.196 L 462.253 163.840 L 464.583 167.565 L 467.057 171.656 L 467.640 172.594 L 468.246 173.518 L 468.874 174.426 L 469.525 175.319 L 470.197 176.195 L 470.890 177.054 L 471.605 177.897 L 472.340 178.721 L 473.094 179.527 L 473.869 180.315 L 474.662 181.083 L 475.474 181.832 L 476.305 182.560 L 477.153 183.268 L 478.017 183.954 L 478.899 184.620 L 479.797 185.263 L 480.710 185.884 L 481.638 186.483 L 482.581 187.059 L 483.537 187.611 L 484.507 188.140 L 485.489 188.645 L 486.483 189.125 L 487.489 189.581 L 488.506 190.012 L 489.533 190.418 L 490.570 190.799 L 491.616 191.154 L 492.670 191.484 L 493.732 191.787 L 494.801 192.064 L 495.876 192.315 L 496.958 192.540 L 498.044 192.738 L 499.135 192.909 L 500.230 193.053 L 501.328 193.171 L 502.429 193.261 L 503.532 193.325 L 504.636 193.361 L 505.740 193.370 L 506.844 193.352 L 507.948 193.307 L 509.050 193.235 L 510.150 193.136 L 511.247 193.010 L 512.341 192.857 L 513.431 192.677 L 514.516 192.471 L 515.595 192.238 L 516.669 191.979 L 517.736 191.693 L 518.795 191.381 L 519.847 191.044 L 520.890 190.680 L 521.923 190.291 L 522.947 189.877 L 523.961 189.438 L 524.963 188.974 L 525.954 188.486 L 526.932 187.973 L 527.897 187.437 L 528.849 186.877 L 529.787 186.294 L 530.711 185.688 L 531.619 185.060 L 532.512 184.409 L 533.388 183.737 L 534.247 183.044 L 535.090 182.329 L 535.914 181.594 L 536.720 180.840 L 537.508 180.065 L 538.276 179.272 L 539.025 178.460 L 539.753 177.629 L 540.461 176.781 L 541.147 175.916 L 541.813 175.035 L 542.456 174.137 L 543.077 173.224 L 543.676 172.296 L 544.252 171.353 L 544.804 170.397 L 545.333 169.427 L 545.838 168.445 L 546.318 167.451 L 546.774 166.445 L 547.205 165.428 L 547.611 164.401 L 547.992 163.364 L 548.347 162.318 L 548.677 161.264 L 548.980 160.202 L 549.257 159.133 L 549.508 158.058 L 549.733 156.976 L 549.931 155.890 L 550.102 154.799 L 550.246 153.704 L 550.364 152.605 L 550.454 151.505 L 550.518 150.402 L 550.554 149.298 L 550.563 148.194 L 550.545 147.090 L 550.500 145.986 L 550.428 144.884 L 550.329 143.784 L 550.203 142.687 L 550.050 141.593 L 549.870 140.503 L 549.664 139.418 L 549.431 138.339 L 549.172 137.265 L 548.886 136.198 L 548.574 135.139 L 548.237 134.087 L 547.873 133.044 L 547.484 132.011 L 547.070 130.987 L 546.631 129.973 L 546.167 128.971 L 545.679 127.980 L 545.166 127.002 L 544.630 126.037 L 544.070 125.085 L 541.421 120.703 L 541.065 120.125 L 538.372 115.819 L 538.001 115.237 L 535.265 111.009 L 534.880 110.423 L 532.101 106.272 L 531.700 105.683 L 528.880 101.612 L 528.462 101.018 L 525.602 97.028 L 525.167 96.431 L 522.267 92.523 L 521.814 91.923 L 518.876 88.098 L 518.405 87.495 L 515.428 83.754 L 514.938 83.148 L 511.924 79.492 L 511.414 78.884 L 508.365 75.314 L 507.834 74.705 L 504.749 71.222 L 504.198 70.611 L 501.078 67.216 L 500.506 66.605 L 497.352 63.299 L 496.757 62.687 L 493.571 59.471 L 492.953 58.860 L 489.735 55.735 L 489.094 55.125 L 485.845 52.092 L 485.180 51.483 L 481.901 48.543 L 481.211 47.937 L 477.903 45.091 L 477.188 44.488 L 473.852 41.736 L 473.111 41.138 L 469.748 38.481 L 468.981 37.888 L 465.591 35.327 L 464.798 34.741 L 461.383 32.276 L 460.562 31.698 L 457.124 29.331 L 456.276 28.761 L 452.814 26.492 L 451.938 25.933 L 448.454 23.763 L 447.551 23.215 L 444.045 21.144 L 443.115 20.609 L 439.589 18.638 L 438.631 18.117 L 435.086 16.247 L 434.101 15.742 L 430.537 13.972 L 429.525 13.486 L 425.944 11.817 L 424.906 11.349 L 421.309 9.783 L 420.245 9.336 L 416.633 7.872 L 415.543 7.447 L 411.917 6.086 L 410.804 5.684 L 407.164 4.427 L 406.028 4.051 L 402.376 2.896 L 401.218 2.547 L 397.555 1.497 L 396.377 1.176 L 392.704 0.230 L 391.507 -0.061 L 387.825 -0.903 L 386.610 -1.163 L 382.920 -1.900 L 381.691 -2.128 L 377.994 -2.761 L 376.751 -2.955 L 373.048 -3.483 L 371.793 -3.643 L 368.086 -4.065 L 366.822 -4.191 L 363.111 -4.507 L 361.840 -4.598 L 358.127 -4.809 L 356.851 -4.863 L 353.136 -4.969 L 351.858 -4.987 L 348.142 -4.987 L 346.864 -4.969 L 343.149 -4.863 L 341.873 -4.809 L 338.160 -4.598 L 336.889 -4.507 L 333.178 -4.191 L 331.914 -4.065 L 328.207 -3.643 L 326.952 -3.483 L 323.249 -2.955 L 322.006 -2.761 L 318.309 -2.128 L 317.080 -1.900 L 313.390 -1.163 L 312.175 -0.903 L 308.493 -0.061 L 307.296 0.230 L 303.623 1.176 L 302.445 1.497 L 298.782 2.547 L 297.624 2.896 L 293.972 4.051 L 292.836 4.427 L 289.196 5.684 L 288.083 6.086 L 284.457 7.447 L 283.367 7.872 L 279.755 9.336 L 278.691 9.783 L 275.094 11.349 L 274.056 11.817 L 270.475 13.486 L 269.463 13.972 L 265.899 15.742 L 264.914 16.247 L 261.369 18.117 L 260.411 18.638 L 256.885 20.609 L 255.955 21.144 L 252.449 23.215 L 251.546 23.763 L 248.062 25.933 L 247.186 26.492 L 243.724 28.761 L 242.876 29.331 L 239.438 31.698 L 238.617 32.276 L 235.202 34.741 L 234.409 35.327 L 231.019 37.888 L 230.252 38.481 L 226.889 41.138 L 226.148 41.736 L 222.812 44.488 L 222.097 45.091 L 218.789 47.937 L 218.099 48.543 L 214.820 51.483 L 214.155 52.092 L 210.906 55.125 L 210.265 55.735 L 207.047 58.860 L 206.429 59.471 L 203.243 62.687 L 202.648 63.299 L 199.494 66.605 L 198.922 67.216 L 195.802 70.611 L 195.251 71.222 L 192.166 74.705 L 191.635 75.314 L 188.586 78.884 L 188.076 79.492 L 185.062 83.148 L 184.572 83.754 L 181.595 87.495 L 181.124 88.098 L 178.186 91.923 L 177.733 92.523 L 174.833 96.431 L 174.398 97.028 L 171.538 101.018 L 171.120 101.612 L 168.300 105.683 L 167.899 106.272 L 165.120 110.423 L 164.735 111.009 L 161.999 115.237 L 161.628 115.819 L 158.935 120.125 L 158.579 120.703 L 155.930 125.085 L 155.588 125.659 L 152.983 130.115 L 152.656 130.684 L 150.096 135.214 L 149.781 135.779 L 147.267 140.381 L 146.966 140.942 L 144.498 145.614 L 144.209 146.171 L 141.789 150.913 L 141.511 151.465 L 139.139 156.275 L 138.873 156.823 L 136.549 161.700 L 136.295 162.244 L 134.020 167.186 L 133.776 167.725 L 131.552 172.731 L 131.318 173.266 L 129.144 178.335 L 128.920 178.866 L 126.797 183.995 L 126.583 184.522 L 124.512 189.711 L 124.307 190.234 L 122.288 195.481 L 122.092 196.000 L 120.127 201.304 L 119.939 201.819 L 118.027 207.178 L 117.848 207.690 L 115.990 213.102 L 115.819 213.610 L 114.016 219.074 L 113.853 219.578 L 112.105 225.093 L 111.949 225.594 L 110.256 231.157 L 110.108 231.655 L 108.472 237.265 L 108.331 237.760 L 106.751 243.416 L 106.617 243.908 L 105.094 249.608 L 104.966 250.096 L 103.501 255.839 L 103.380 256.325 L 101.972 262.108 L 101.858 262.591 L 100.509 268.414 L 100.400 268.894 L 99.110 274.754 L 99.007 275.231 L 97.776 281.128 L 97.679 281.603 L 96.507 287.533 L 96.416 288.006 L 95.304 293.968 L 95.219 294.439 L 94.166 300.432 L 94.087 300.901 L 93.095 306.923 L 93.020 307.390 L 92.089 313.440 L 92.020 313.904 L 91.149 319.980 L 91.085 320.443 L 90.276 326.542 L 90.217 327.003 L 89.469 333.125 L 89.416 333.585 L 88.729 339.727 L 88.680 340.185 L 88.056 346.346 L 88.012 346.803 L 87.449 352.980 L 87.410 353.437 L 86.909 359.629 L 86.875 360.084 L 86.436 366.290 L 86.407 366.744 L 86.031 372.962 L 86.005 373.416 L 85.692 379.643 L 85.672 380.096 L 85.421 386.331 L 85.405 386.783 L 85.217 393.025 L 85.205 393.477 L 85.080 399.723 L 85.073 400.175 L 85.010 406.423 L 85.008 406.875 L 85.008 413.125 L 85.010 413.577 L 85.073 419.825 L 85.080 420.277 L 85.205 426.523 L 85.217 426.975 L 85.405 433.217 L 85.421 433.669 L 85.672 439.904 L 85.692 440.357 L 86.005 446.584 L 86.031 447.038 L 86.407 453.256 L 86.436 453.710 L 86.875 459.916 L 86.909 460.371 L 87.410 466.563 L 87.449 467.020 L 88.012 473.197 L 88.056 473.654 L 88.680 479.815 L 88.729 480.273 L 89.416 486.415 L 89.469 486.875 L 90.217 492.997 L 90.276 493.458 L 91.085 499.557 L 91.149 500.020 L 92.020 506.096 L 92.089 506.560 L 93.020 512.610 L 93.095 513.077 L 94.087 519.099 L 94.166 519.568 L 95.219 525.561 L 95.304 526.032 L 96.416 531.994 L 96.507 532.467 L 97.679 538.397 L 97.776 538.872 L 99.007 544.769 L 99.110 545.246 L 100.400 551.106 L 100.509 551.586 L 101.858 557.409 L 101.972 557.892 L 103.380 563.675 L 103.501 564.161 L 104.966 569.904 L 105.094 570.392 L 106.617 576.092 L 106.751 576.584 L 108.331 582.240 L 108.472 582.735 L 110.108 588.345 L 110.256 588.843 L 111.949 594.406 L 112.105 594.907 L 113.853 600.422 L 114.016 600.926 L 115.819 606.390 L 115.990 606.898 L 117.848 612.310 L 118.027 612.822 L 119.939 618.181 L 120.127 618.696 L 122.092 624.000 L 122.288 624.519 L 124.307 629.766 L 124.512 630.289 L 126.583 635.478 L 126.797 636.005 L 128.920 641.134 L 129.144 641.665 L 131.318 646.734 L 131.552 647.269 L 133.776 652.275 L 134.020 652.814 L 136.295 657.756 L 136.549 658.300 L 138.873 663.177 L 139.139 663.725 L 141.511 668.535 L 141.789 669.087 L 144.209 673.829 L 144.498 674.386 L 146.966 679.058 L 147.267 679.619 L 149.781 684.221 L 150.096 684.786 L 152.656 689.316 L 152.983 689.885 L 155.588 694.341 L 155.930 694.915 L 158.579 699.297 L 158.935 699.875 L 161.628 704.181 L 161.999 704.763 L 164.735 708.991 L 165.120 709.577 L 167.899 713.728 L 168.300 714.317 L 171.120 718.388 L 171.538 718.982 L 174.398 722.972 L 174.833 723.569 L 177.733 727.477 L 178.186 728.077 L 181.124 731.902 L 181.595 732.505 L 184.572 736.246 L 185.062 736.852 L 188.076 740.508 L 188.586 741.116 L 191.635 744.686 L 192.166 745.295 L 195.251 748.778 L 195.802 749.389 L 198.922 752.784 L 199.494 753.395 L 202.648 756.701 L 203.243 757.313 L 206.429 760.529 L 207.047 761.140 L 210.265 764.265 L 210.906 764.875 L 214.155 767.908 L 214.820 768.517 L 218.099 771.457 L 218.789 772.063 L 222.097 774.909 L 222.812 775.512 L 226.148 778.264 L 226.889 778.862 L 230.252 781.519 L 231.019 782.112 L 234.409 784.673 L 235.202 785.259 L 238.617 787.724 L 239.438 788.302 L 242.876 790.669 L 243.724 791.239 L 247.186 793.508 L 248.062 794.067 L 251.546 796.237 L 252.449 796.785 L 255.955 798.856 L 256.885 799.391 L 260.411 801.362 L 261.369 801.883 L 264.914 803.753 L 265.899 804.258 L 269.463 806.028 L 270.475 806.514 L 274.056 808.183 L 275.094 808.651 L 278.691 810.217 L 279.755 810.664 L 283.367 812.128 L 284.457 812.553 L 288.083 813.914 L 289.196 814.316 L 292.836 815.573 L 293.972 815.949 L 297.624 817.104 L 298.782 817.453 L 302.445 818.503 L 303.623 818.824 L 307.296 819.770 L 308.493 820.061 L 312.175 820.903 L 313.390 821.163 L 317.080 821.900 L 318.309 822.128 L 322.006 822.761 L 323.249 822.955 L 326.952 823.483 L 328.207 823.643 L 331.914 824.065 L 333.178 824.191 L 336.889 824.507 L 338.160 824.598 L 341.873 824.809 L 343.149 824.863 L 346.864 824.969 L 348.142 824.987 L 351.858 824.987 L 353.136 824.969 L 356.851 824.863 L 358.127 824.809 L 361.840 824.598 L 363.111 824.507 L 366.822 824.191 L 368.086 824.065 L 371.793 823.643 L 373.048 823.483 L 376.751 822.955 L 377.994 822.761 L 381.691 822.128 L 382.920 821.900 L 386.610 821.163 L 387.825 820.903 L 391.507 820.061 L 392.704 819.770 L 396.377 818.824 L 397.555 818.503 L 401.218 817.453 L 402.376 817.104 L 406.028 815.949 L 407.164 815.573 L 410.804 814.316 L 411.917 813.914 L 415.543 812.553 L 416.633 812.128 L 420.245 810.664 L 421.309 810.217 L 424.906 808.651 L 425.944 808.183 L 429.525 806.514 L 430.537 806.028 L 434.101 804.258 L 435.086 803.753 L 438.631 801.883 L 439.589 801.362 L 443.115 799.391 L 444.045 798.856 L 447.551 796.785 L 448.454 796.237 L 451.938 794.067 L 452.814 793.508 L 456.276 791.239 L 457.124 790.669 L 460.562 788.302 L 461.383 787.724 L 464.798 785.259 L 465.591 784.673 L 468.981 782.112 L 469.748 781.519 L 473.111 778.862 L 473.852 778.264 L 477.188 775.512 L 477.903 774.909 L 481.211 772.063 L 481.901 771.457 L 485.180 768.517 L 485.845 767.908 L 489.094 764.875 L 489.735 764.265 L 492.953 761.140 L 493.571 760.529 L 496.757 757.313 L 497.352 756.701 L 500.506 753.395 L 501.078 752.784 L 504.198 749.389 L 504.749 748.778 L 507.834 745.295 L 508.365 744.686 L 511.414 741.116 L 511.924 740.508 L 514.938 736.852 L 515.428 736.246 L 518.405 732.505 L 518.876 731.902 L 521.814 728.077 L 522.267 727.477 L 525.167 723.569 L 525.602 722.972 L 528.462 718.982 L 528.880 718.388 L 531.700 714.317 L 532.101 713.728 L 534.880 709.577 L 535.265 708.991 L 538.001 704.763 L 538.372 704.181 L 541.065 699.875 L 541.421 699.297 L 544.070 694.915 L 544.630 693.963 L 545.166 692.998 L 545.679 692.020 L 546.167 691.029 L 546.631 690.027 L 547.070 689.013 L 547.484 687.989 L 547.873 686.956 L 548.237 685.913 L 548.574 684.861 L 548.886 683.802 L 549.172 682.735 L 549.431 681.661 L 549.664 680.582 L 549.870 679.497 L 550.050 678.407 L 550.203 677.313 L 550.329 676.216 L 550.428 675.116 L 550.500 674.014 L 550.545 672.910 L 550.563 671.806 L 550.554 670.702 L 550.518 669.598 L 550.454 668.495 L 550.364 667.395 L 550.246 666.296 L 550.102 665.201 L 549.931 664.110 L 549.733 663.024 L 549.508 661.942 L 549.257 660.867 L 548.980 659.798 L 548.677 658.736 L 548.347 657.682 L 547.992 656.636 L 547.611 655.599 L 547.205 654.572 L 546.774 653.555 L 546.318 652.549 L 545.838 651.555 L 545.333 650.573 L 544.804 649.603 L 544.252 648.647 L 543.676 647.704 L 543.077 646.776 L 542.456 645.863 L 541.813 644.965 L 541.147 644.084 L 540.461 643.219 L 539.753 642.371 L 539.025 641.540 L 538.276 640.728 L 537.508 639.935 L 536.720 639.160 L 535.914 638.406 L 535.090 637.671 L 534.247 636.956 L 533.388 636.263 L 532.512 635.591 L 531.619 634.940 L 530.711 634.312 L 529.787 633.706 L 528.849 633.123 L 527.897 632.563 L 526.932 632.027 L 525.954 631.514 L 524.963 631.026 L 523.961 630.562 L 522.947 630.123 L 521.923 629.709 L 520.890 629.320 L 519.847 628.956 L 518.795 628.619 L 517.736 628.307 L 516.669 628.021 L 515.595 627.762 L 514.516 627.529 L 513.431 627.323 L 512.341 627.143 L 511.247 626.990 L 510.150 626.864 L 509.050 626.765 L 507.948 626.693 L 506.844 626.648 L 505.740 626.630 L 504.636 626.639 L 503.532 626.675 L 502.429 626.739 L 501.328 626.829 L 500.230 626.947 L 499.135 627.091 L 498.044 627.262 L 496.958 627.460 L 495.876 627.685 L 494.801 627.936 L 493.732 628.213 L 492.670 628.516 L 491.616 628.846 L 490.570 629.201 L 489.533 629.582 L 488.506 629.988 L 487.489 630.419 L 486.483 630.875 L 485.489 631.355 L 484.507 631.860 L 483.537 632.389 L 482.581 632.941 L 481.638 633.517 L 480.710 634.116 L 479.797 634.737 L 478.899 635.380 L 478.017 636.046 L 477.153 636.732 L 476.305 637.440 L 475.474 638.168 L 474.662 638.917 L 473.869 639.685 L 473.094 640.473 L 472.340 641.279 L 471.605 642.103 L 470.890 642.946 L 470.197 643.805 L 469.525 644.681 L 468.874 645.574 L 468.246 646.482 L 467.640 647.406 L 467.057 648.344 L 464.583 652.435 Z" fill="black" fill-rule="evenodd"/>
</svg>
