<svg xmlns="http://www.w3.org/2000/svg" viewBox="0 0 600.000 1000">
  <path d="M 255.014 961.104 L 255.054 962.208 L 255.122 963.310 L 255.217 964.411 L 255.338 965.508 L 255.487 966.603 L 255.663 967.693 L 255.865 968.779 L 256.093 969.860 L 256.349 970.934 L 256.630 972.002 L 256.938 973.063 L 257.271 974.116 L 257.631 975.160 L 258.015 976.195 L 258.425 977.221 L 258.861 978.236 L 259.320 979.240 L 259.805 980.233 L 260.314 981.213 L 260.846 982.180 L 261.402 983.135 L 261.982 984.075 L 262.584 985.001 L 263.209 985.911 L 263.856 986.806 L 264.524 987.685 L 265.215 988.548 L 265.926 989.393 L 266.657 990.220 L 267.409 991.029 L 268.180 991.820 L 268.971 992.591 L 269.780 993.343 L 270.607 994.074 L 271.452 994.785 L 272.315 995.476 L 273.194 996.144 L 274.089 996.791 L 274.999 997.416 L 275.925 998.018 L 276.865 998.598 L 277.820 999.154 L 278.787 999.686 L 279.767 1000.195 L 280.760 1000.680 L 281.764 1001.139 L 282.779 1001.575 L 283.805 1001.985 L 284.840 1002.369 L 285.884 1002.729 L 286.937 1003.062 L 287.998 1003.370 L 289.066 1003.651 L 290.140 1003.907 L 291.221 1004.135 L 292.307 1004.337 L 293.397 1004.513 L 294.492 1004.662 L 295.589 1004.783 L 296.690 1004.878 L 297.792 1004.946 L 298.896 1004.986 L 300.000 1005.000 L 301.104 1004.986 L 302.208 1004.946 L 303.310 1004.878 L 304.411 1004.783 L 305.508 1004.662 L 306.603 1004.513 L 307.693 1004.337 L 308.779 1004.135 L 309.860 1003.907 L 310.934 1003.651 L 312.002 1003.370 L 313.063 1003.062 L 314.116 1002.729 L 315.160 1002.369 L 316.195 1001.985 L 317.221 1001.575 L 318.236 1001.139 L 319.240 1000.680 L 320.233 1000.195 L 321.213 999.686 L 322.180 999.154 L 323.135 998.598 L 324.075 998.018 L 325.001 997.416 L 325.911 996.791 L 326.806 996.144 L 327.685 995.476 L 328.548 994.785 L 329.393 994.074 L 330.220 993.343 L 331.029 992.591 L 331.820 991.820 L 332.591 991.029 L 333.343 990.220 L 334.074 989.393 L 334.785 988.548 L 335.476 987.685 L 336.144 986.806 L 336.791 985.911 L 337.416 985.001 L 338.018 984.075 L 338.598 983.135 L 339.154 982.180 L 339.686 981.213 L 340.195 980.233 L 340.680 979.240 L 341.139 978.236 L 341.575 977.221 L 341.985 976.195 L 342.369 975.160 L 342.729 974.116 L 343.062 973.063 L 343.370 972.002 L 343.651 970.934 L 343.907 969.860 L 344.135 968.779 L 344.337 967.693 L 344.513 966.603 L 344.662 965.508 L 344.783 964.411 L 344.878 963.310 L 344.946 962.208 L 344.986 961.104 L 345.000 960.000 L 345.000 360.000 L 344.986 358.896 L 344.946 357.792 L 344.878 356.690 L 344.783 355.589 L 344.662 354.492 L 344.513 353.397 L 344.337 352.307 L 344.135 351.221 L 343.907 350.140 L 343.651 349.066 L 343.370 347.998 L 343.062 346.937 L 342.729 345.884 L 342.369 344.840 L 341.985 343.805 L 341.575 342.779 L 341.139 341.764 L 340.680 340.760 L 340.195 339.767 L 339.686 338.787 L 339.154 337.820 L 338.598 336.865 L 338.018 335.925 L 337.416 334.999 L 336.791 334.089 L 336.144 333.194 L 335.476 332.315 L 334.785 331.452 L 334.074 330.607 L 333.343 329.780 L 332.591 328.971 L 331.820 328.180 L 331.029 327.409 L 330.220 326.657 L 329.393 325.926 L 328.548 325.215 L 327.685 324.524 L 326.806 323.856 L 325.911 323.209 L 325.001 322.584 L 324.075 321.982 L 323.135 321.402 L 322.180 320.846 L 321.213 320.314 L 320.233 319.805 L 319.240 319.320 L 318.236 318.861 L 317.221 318.425 L 316.195 318.015 L 315.160 317.631 L 314.116 317.271 L 313.063 316.938 L 312.002 316.630 L 310.934 316.349 L 309.860 316.093 L 308.779 315.865 L 307.693 315.663 L 306.603 315.487 L 305.508 315.338 L 304.411 315.217 L 303.310 315.122 L 302.208 315.054 L 301.104 315.014 L 300.000 315.000 L 298.896 315.014 L 297.792 315.054 L 296.690 315.122 L 295.589 315.217 L 294.492 315.338 L 293.397 315.487 L 292.307 315.663 L 291.221 315.865 L 290.140 316.093 L 289.066 316.349 L 287.998 316.630 L 286.937 316.938 L 285.884 317.271 L 284.840 317.631 L 283.805 318.015 L 282.779 318.425 L 281.764 318.861 L 280.760 319.320 L 279.767 319.805 L 278.787 320.314 L 277.820 320.846 L 276.865 321.402 L 275.925 321.982 L 274.999 322.584 L 274.089 323.209 L 273.194 323.856 L 272.315 324.524 L 271.452 325.215 L 270.607 325.926 L 269.780 326.657 L 268.971 327.409 L 268.180 328.180 L 267.409 328.971 L 266.657 329.780 L 265.926 330.607 L 265.215 331.452 L 264.524 332.315 L 263.856 333.194 L 263.209 334.089 L 262.584 334.999 L 261.982 335.925 L 261.402 336.865 L 260.846 337.820 L 260.314 338.787 L 259.805 339.767 L 259.320 340.760 L 258.861 341.764 L 258.425 342.779 L 258.015 343.805 L 257.631 344.840 L 257.271 345.884 L 256.938 346.937 L 256.630 347.998 L 256.349 349.066 L 256.093 350.140 L 255.865 351.221 L 255.663 352.307 L 255.487 353.397 L 255.338 354.492 L 255.217 355.589 L 255.122 356.690 L 255.054 357.792 L 255.014 358.896 L 255.000 360.000 L 255.000 960.000 L 255.014 961.104 Z M 342.737 178.951 L 342.699 177.902 L 342.634 176.855 L 342.544 175.810 L 342.429 174.767 L 342.287 173.727 L 342.121 172.691 L 341.929 171.660 L 341.711 170.633 L 341.469 169.613 L 341.201 168.598 L 340.909 167.590 L 340.592 166.590 L 340.251 165.598 L 339.885 164.614 L 339.496 163.640 L 339.082 162.676 L 338.646 161.722 L 338.185 160.779 L 337.702 159.848 L 337.196 158.929 L 336.668 158.022 L 336.117 157.129 L 335.545 156.249 L 334.952 155.384 L 334.337 154.534 L 333.702 153.699 L 333.046 152.880 L 332.371 152.077 L 331.676 151.291 L 330.962 150.522 L 330.229 149.771 L 329.478 149.038 L 328.709 148.324 L 327.923 147.629 L 327.120 146.954 L 326.301 146.298 L 325.466 145.663 L 324.616 145.048 L 323.751 144.455 L 322.871 143.883 L 321.978 143.332 L 321.071 142.804 L 320.152 142.298 L 319.221 141.815 L 318.278 141.354 L 317.324 140.918 L 316.360 140.504 L 315.386 140.115 L 314.402 139.749 L 313.410 139.408 L 312.410 139.091 L 311.402 138.799 L 310.387 138.531 L 309.367 138.289 L 308.340 138.071 L 307.309 137.879 L 306.273 137.713 L 305.233 137.571 L 304.190 137.456 L 303.145 137.366 L 302.098 137.301 L 301.049 137.263 L 300.000 137.250 L 298.951 137.263 L 297.902 137.301 L 296.855 137.366 L 295.810 137.456 L 294.767 137.571 L 293.727 137.713 L 292.691 137.879 L 291.660 138.071 L 290.633 138.289 L 289.613 138.531 L 288.598 138.799 L 287.590 139.091 L 286.590 139.408 L 285.598 139.749 L 284.614 140.115 L 283.640 140.504 L 282.676 140.918 L 281.722 141.354 L 280.779 141.815 L 279.848 142.298 L 278.929 142.804 L 278.022 143.332 L 277.129 143.883 L 276.249 144.455 L 275.384 145.048 L 274.534 145.663 L 273.699 146.298 L 272.880 146.954 L 272.077 147.629 L 271.291 148.324 L 270.522 149.038 L 269.771 149.771 L 269.038 150.522 L 268.324 151.291 L 267.629 152.077 L 266.954 152.880 L 266.298 153.699 L 265.663 154.534 L 265.048 155.384 L 264.455 156.249 L 263.883 157.129 L 263.332 158.022 L 262.804 158.929 L 262.298 159.848 L 261.815 160.779 L 261.354 161.722 L 260.918 162.676 L 260.504 163.640 L 260.115 164.614 L 259.749 165.598 L 259.408 166.590 L 259.091 167.590 L 258.799 168.598 L 258.531 169.613 L 258.289 170.633 L 258.071 171.660 L 257.879 172.691 L 257.713 173.727 L 257.571 174.767 L 257.456 175.810 L 257.366 176.855 L 257.301 177.902 L 257.263 178.951 L 257.250 180.000 L 257.263 181.049 L 257.301 182.098 L 257.366 183.145 L 257.456 184.190 L 257.571 185.233 L 257.713 186.273 L 257.879 187.309 L 258.071 188.340 L 258.289 189.367 L 258.531 190.387 L 258.799 191.402 L 259.091 192.410 L 259.408 193.410 L 259.749 194.402 L 260.115 195.386 L 260.504 196.360 L 260.918 197.324 L 261.354 198.278 L 261.815 199.221 L 262.298 200.152 L 262.804 201.071 L 263.332 201.978 L 263.883 202.871 L 264.455 203.751 L 265.048 204.616 L 265.663 205.466 L 266.298 206.301 L 266.954 207.120 L 267.629 207.923 L 268.324 208.709 L 269.038 209.478 L 269.771 210.229 L 270.522 210.962 L 271.291 211.676 L 272.077 212.371 L 272.880 213.046 L 273.699 213.702 L 274.534 214.337 L 275.384 214.952 L 276.249 215.545 L 277.129 216.117 L 278.022 216.668 L 278.929 217.196 L 279.848 217.702 L 280.779 218.185 L 281.722 218.646 L 282.676 219.082 L 283.640 219.496 L 284.614 219.885 L 285.598 220.251 L 286.590 220.592 L 287.590 220.909 L 288.598 221.201 L 289.613 221.469 L 290.633 221.711 L 291.660 221.929 L 292.691 222.121 L 293.727 222.287 L 294.767 222.429 L 295.810 222.544 L 296.855 222.634 L 297.902 222.699 L 298.951 222.737 L 300.000 222.750 L 301.049 222.737 L 302.098 222.699 L 303.145 222.634 L 304.190 222.544 L 305.233 222.429 L 306.273 222.287 L 307.309 222.121 L 308.340 221.929 L 309.367 221.711 L 310.387 221.469 L 311.402 221.201 L 312.410 220.909 L 313.410 220.592 L 314.402 220.251 L 315.386 219.885 L 316.360 219.496 L 317.324 219.082 L 318.278 218.646 L 319.221 218.185 L 320.152 217.702 L 321.071 217.196 L 321.978 216.668 L 322.871 216.117 L 323.751 215.545 L 324.616 214.952 L 325.466 214.337 L 326.301 213.702 L 327.120 213.046 L 327.923 212.371 L 328.709 211.676 L 329.478 210.962 L 330.229 210.229 L 330.962 209.478 L 331.676 208.709 L 332.371 207.923 L 333.046 207.120 L 333.702 206.301 L 334.337 205.466 L 334.952 204.616 L 335.545 203.751 L 336.117 202.871 L 336.668 201.978 L 337.196 201.071 L 337.702 200.152 L 338.185 199.221 L 338.646 198.278 L 339.082 197.324 L 339.496 196.360 L 339.885 195.386 L 340.251 194.402 L 340.592 193.410 L 340.909 192.410 L 341.201 191.402 L 341.469 190.387 L 341.711 189.367 L 341.929 188.340 L 342.121 187.309 L 342.287 186.273 L 342.429 185.233 L 342.544 184.190 L 342.634 183.145 L 342.699 182.098 L 342.737 181.049 L 342.750 180.000 L 342.737 178.951 Z" fill="black" fill-rule="evenodd"/>
</svg>
