<svg xmlns="http://www.w3.org/2000/svg" viewBox="0 0 700.000 1000" width="700.000" height="1000">
  <path d="M 594.996 54.165 L 594.989 53.930 L 594.986 53.696 L 594.975 53.378 L 594.966 53.061 L 594.954 52.826 L 594.946 52.592 L 594.926 52.275 L 594.910 51.958 L 594.892 51.724 L 594.878 51.490 L 594.851 51.173 L 594.827 50.856 L 594.803 50.623 L 594.783 50.389 L 594.748 50.073 L 594.717 49.757 L 594.687 49.525 L 594.662 49.292 L 594.619 48.977 L 594.579 48.662 L 594.545 48.430 L 594.513 48.197 L 594.462 47.883 L 594.415 47.569 L 594.375 47.338 L 594.337 47.107 L 594.279 46.794 L 594.224 46.481 L 594.178 46.252 L 594.135 46.021 L 594.070 45.710 L 594.007 45.399 L 593.955 45.170 L 593.907 44.940 L 593.833 44.631 L 593.763 44.322 L 593.706 44.094 L 593.651 43.866 L 593.570 43.559 L 593.493 43.251 L 593.430 43.025 L 593.370 42.798 L 593.281 42.493 L 593.196 42.187 L 593.128 41.962 L 593.062 41.737 L 592.966 41.434 L 592.874 41.131 L 592.800 40.908 L 592.729 40.684 L 592.625 40.384 L 592.525 40.082 L 592.446 39.862 L 592.369 39.640 L 592.259 39.342 L 592.151 39.043 L 592.066 38.825 L 591.985 38.605 L 591.867 38.310 L 591.752 38.014 L 591.662 37.797 L 591.575 37.579 L 591.449 37.287 L 591.327 36.994 L 591.232 36.780 L 591.139 36.564 L 591.007 36.275 L 590.878 35.985 L 590.777 35.773 L 590.680 35.560 L 590.540 35.275 L 590.404 34.988 L 590.298 34.778 L 590.195 34.567 L 590.049 34.286 L 589.905 34.002 L 589.794 33.795 L 589.686 33.587 L 589.533 33.309 L 589.383 33.029 L 589.267 32.825 L 589.154 32.620 L 588.994 32.345 L 588.837 32.069 L 588.716 31.868 L 588.598 31.665 L 588.431 31.395 L 588.267 31.123 L 588.141 30.925 L 588.018 30.725 L 587.845 30.459 L 587.675 30.191 L 587.544 29.996 L 587.416 29.799 L 587.236 29.537 L 587.059 29.274 L 586.924 29.082 L 586.791 28.889 L 586.605 28.631 L 586.422 28.372 L 586.282 28.184 L 586.144 27.994 L 585.952 27.741 L 585.762 27.486 L 585.618 27.301 L 585.476 27.115 L 585.277 26.867 L 585.081 26.616 L 584.932 26.435 L 584.785 26.252 L 584.581 26.009 L 584.379 25.764 L 584.225 25.587 L 584.074 25.407 L 583.864 25.169 L 583.656 24.929 L 583.498 24.756 L 583.343 24.580 L 583.127 24.347 L 582.913 24.112 L 582.751 23.943 L 582.591 23.771 L 582.369 23.543 L 582.150 23.314 L 581.984 23.148 L 581.820 22.980 L 581.592 22.758 L 581.367 22.534 L 581.197 22.373 L 581.029 22.209 L 580.797 21.993 L 580.566 21.774 L 580.392 21.617 L 580.220 21.457 L 579.982 21.247 L 579.746 21.034 L 579.568 20.881 L 579.393 20.726 L 579.150 20.521 L 578.909 20.314 L 578.727 20.166 L 578.548 20.015 L 578.300 19.816 L 578.054 19.615 L 577.869 19.471 L 577.685 19.324 L 577.433 19.132 L 577.182 18.937 L 576.993 18.798 L 576.806 18.656 L 576.549 18.470 L 576.293 18.281 L 576.101 18.146 L 575.911 18.009 L 575.649 17.829 L 575.389 17.647 L 575.194 17.517 L 575.001 17.384 L 574.734 17.211 L 574.470 17.035 L 574.272 16.909 L 574.075 16.782 L 573.804 16.615 L 573.536 16.445 L 573.334 16.325 L 573.135 16.202 L 572.860 16.042 L 572.587 15.879 L 572.383 15.764 L 572.180 15.646 L 571.902 15.493 L 571.625 15.337 L 571.418 15.227 L 571.213 15.114 L 570.931 14.967 L 570.650 14.818 L 570.441 14.713 L 570.233 14.605 L 569.947 14.466 L 569.663 14.323 L 569.451 14.223 L 569.240 14.120 L 568.951 13.988 L 568.664 13.853 L 568.449 13.758 L 568.236 13.661 L 567.944 13.535 L 567.653 13.407 L 567.436 13.318 L 567.221 13.225 L 566.926 13.107 L 566.632 12.986 L 566.413 12.902 L 566.195 12.815 L 565.897 12.705 L 565.601 12.591 L 565.380 12.512 L 565.160 12.431 L 564.860 12.327 L 564.560 12.221 L 564.337 12.148 L 564.116 12.071 L 563.813 11.975 L 563.511 11.876 L 563.286 11.809 L 563.063 11.738 L 562.758 11.649 L 562.454 11.558 L 562.227 11.495 L 562.002 11.430 L 561.695 11.349 L 561.389 11.265 L 561.161 11.208 L 560.934 11.149 L 560.625 11.075 L 560.317 10.999 L 560.088 10.948 L 559.860 10.893 L 559.549 10.828 L 559.239 10.759 L 559.009 10.713 L 558.779 10.665 L 558.467 10.607 L 558.155 10.545 L 557.924 10.505 L 557.693 10.463 L 557.380 10.412 L 557.067 10.358 L 556.834 10.324 L 556.603 10.287 L 556.288 10.244 L 555.974 10.198 L 555.741 10.170 L 555.508 10.138 L 555.193 10.103 L 554.877 10.065 L 554.644 10.043 L 554.411 10.017 L 554.094 9.989 L 553.778 9.959 L 553.544 9.942 L 553.310 9.922 L 552.993 9.902 L 552.676 9.880 L 552.442 9.869 L 552.208 9.854 L 551.891 9.843 L 551.573 9.828 L 551.339 9.822 L 551.104 9.814 L 550.787 9.810 L 550.469 9.802 L 550.235 9.803 L 550.000 9.800 L 549.682 9.804 L 549.365 9.804 L 549.130 9.811 L 548.896 9.814 L 548.578 9.825 L 548.261 9.834 L 548.026 9.846 L 547.792 9.854 L 547.475 9.874 L 547.158 9.890 L 546.924 9.908 L 546.690 9.922 L 546.373 9.949 L 546.056 9.973 L 545.823 9.997 L 545.589 10.017 L 545.273 10.052 L 544.957 10.083 L 544.725 10.113 L 544.492 10.138 L 544.177 10.181 L 543.862 10.221 L 543.630 10.255 L 543.397 10.287 L 543.083 10.338 L 542.769 10.385 L 542.538 10.425 L 542.307 10.463 L 541.994 10.521 L 541.681 10.576 L 541.452 10.622 L 541.221 10.665 L 540.910 10.730 L 540.599 10.793 L 540.370 10.845 L 540.140 10.893 L 539.831 10.967 L 539.522 11.037 L 539.294 11.094 L 539.066 11.149 L 538.759 11.230 L 538.451 11.307 L 538.225 11.370 L 537.998 11.430 L 537.693 11.519 L 537.387 11.604 L 537.162 11.672 L 536.937 11.738 L 536.634 11.834 L 536.331 11.926 L 536.108 12.000 L 535.884 12.071 L 535.584 12.175 L 535.282 12.275 L 535.062 12.354 L 534.840 12.431 L 534.542 12.541 L 534.243 12.649 L 534.025 12.734 L 533.805 12.815 L 533.510 12.933 L 533.214 13.048 L 532.997 13.138 L 532.779 13.225 L 532.487 13.351 L 532.194 13.473 L 531.980 13.568 L 531.764 13.661 L 531.475 13.793 L 531.185 13.922 L 530.973 14.023 L 530.760 14.120 L 530.475 14.260 L 530.188 14.396 L 529.978 14.502 L 529.767 14.605 L 529.486 14.751 L 529.202 14.895 L 528.995 15.006 L 528.787 15.114 L 528.509 15.267 L 528.229 15.417 L 528.025 15.533 L 527.820 15.646 L 527.545 15.806 L 527.269 15.963 L 527.068 16.084 L 526.865 16.202 L 526.595 16.369 L 526.323 16.533 L 526.125 16.659 L 525.925 16.782 L 525.659 16.955 L 525.391 17.125 L 525.196 17.256 L 524.999 17.384 L 524.737 17.564 L 524.474 17.741 L 524.282 17.876 L 524.089 18.009 L 523.831 18.195 L 523.572 18.378 L 523.384 18.518 L 523.194 18.656 L 522.941 18.848 L 522.686 19.038 L 522.501 19.182 L 522.315 19.324 L 522.067 19.523 L 521.816 19.719 L 521.635 19.868 L 521.452 20.015 L 521.209 20.219 L 520.964 20.421 L 520.787 20.575 L 520.607 20.726 L 520.369 20.936 L 520.129 21.144 L 519.956 21.302 L 519.780 21.457 L 519.547 21.673 L 519.312 21.887 L 119.312 394.847 L 119.143 395.009 L 118.971 395.169 L 118.743 395.391 L 118.514 395.610 L 118.348 395.776 L 118.180 395.940 L 117.958 396.168 L 117.734 396.393 L 117.573 396.563 L 117.409 396.731 L 117.193 396.963 L 116.974 397.194 L 116.817 397.368 L 116.657 397.540 L 116.447 397.778 L 116.234 398.014 L 116.081 398.192 L 115.926 398.367 L 115.721 398.610 L 115.514 398.851 L 115.366 399.033 L 115.215 399.212 L 115.016 399.460 L 114.815 399.706 L 114.671 399.891 L 114.524 400.075 L 114.332 400.327 L 114.137 400.578 L 113.998 400.767 L 113.856 400.954 L 113.670 401.211 L 113.481 401.467 L 113.346 401.659 L 113.209 401.849 L 113.029 402.111 L 112.847 402.371 L 112.717 402.566 L 112.584 402.759 L 112.411 403.026 L 112.235 403.290 L 112.109 403.488 L 111.982 403.685 L 111.815 403.956 L 111.645 404.224 L 111.525 404.426 L 111.402 404.625 L 111.242 404.900 L 111.079 405.173 L 110.964 405.377 L 110.846 405.580 L 110.693 405.858 L 110.537 406.135 L 110.427 406.342 L 110.314 406.547 L 110.167 406.829 L 110.018 407.110 L 109.913 407.319 L 109.805 407.527 L 109.666 407.813 L 109.523 408.097 L 109.423 408.309 L 109.320 408.520 L 109.188 408.809 L 109.053 409.096 L 108.958 409.311 L 108.861 409.524 L 108.735 409.816 L 108.607 410.107 L 108.518 410.324 L 108.425 410.539 L 108.307 410.834 L 108.186 411.128 L 108.102 411.347 L 108.015 411.565 L 107.905 411.863 L 107.791 412.159 L 107.712 412.380 L 107.631 412.600 L 107.527 412.900 L 107.421 413.200 L 107.348 413.423 L 107.271 413.644 L 107.175 413.947 L 107.076 414.249 L 107.009 414.474 L 106.938 414.697 L 106.849 415.002 L 106.758 415.306 L 106.695 415.533 L 106.630 415.758 L 106.549 416.065 L 106.465 416.371 L 106.408 416.599 L 106.349 416.826 L 106.275 417.135 L 106.199 417.443 L 106.148 417.672 L 106.093 417.900 L 106.028 418.211 L 105.959 418.521 L 105.913 418.751 L 105.865 418.981 L 105.807 419.293 L 105.745 419.605 L 105.705 419.836 L 105.663 420.067 L 105.612 420.380 L 105.558 420.693 L 105.524 420.926 L 105.487 421.157 L 105.444 421.472 L 105.398 421.786 L 105.370 422.019 L 105.338 422.252 L 105.303 422.567 L 105.265 422.883 L 105.243 423.116 L 105.217 423.349 L 105.189 423.666 L 105.159 423.982 L 105.142 424.216 L 105.122 424.450 L 105.102 424.767 L 105.080 425.084 L 105.069 425.318 L 105.054 425.552 L 105.043 425.869 L 105.028 426.187 L 105.022 426.421 L 105.014 426.656 L 105.010 426.973 L 105.002 427.291 L 105.003 427.525 L 105.000 427.760 L 105.004 428.078 L 105.004 428.395 L 105.011 428.630 L 105.014 428.864 L 105.025 429.182 L 105.034 429.499 L 105.046 429.734 L 105.054 429.968 L 105.074 430.285 L 105.090 430.602 L 105.108 430.836 L 105.122 431.070 L 105.149 431.387 L 105.173 431.704 L 105.197 431.937 L 105.217 432.171 L 105.252 432.487 L 105.283 432.803 L 105.313 433.035 L 105.338 433.268 L 105.381 433.583 L 105.421 433.898 L 105.455 434.130 L 105.487 434.363 L 105.538 434.677 L 105.585 434.991 L 105.625 435.222 L 105.663 435.453 L 105.721 435.766 L 105.776 436.079 L 105.822 436.308 L 105.865 436.539 L 105.930 436.850 L 105.993 437.161 L 106.045 437.390 L 106.093 437.620 L 106.167 437.929 L 106.237 438.238 L 106.294 438.466 L 106.349 438.694 L 106.430 439.001 L 106.507 439.309 L 106.570 439.535 L 106.630 439.762 L 106.719 440.067 L 106.804 440.373 L 106.872 440.598 L 106.938 440.823 L 107.034 441.126 L 107.126 441.429 L 107.200 441.652 L 107.271 441.876 L 107.375 442.176 L 107.475 442.478 L 107.554 442.698 L 107.631 442.920 L 107.741 443.218 L 107.849 443.517 L 107.934 443.735 L 108.015 443.955 L 108.133 444.250 L 108.248 444.546 L 108.338 444.763 L 108.425 444.981 L 108.551 445.273 L 108.673 445.566 L 108.768 445.780 L 108.861 445.996 L 108.993 446.285 L 109.122 446.575 L 109.223 446.787 L 109.320 447.000 L 109.460 447.285 L 109.596 447.572 L 109.702 447.782 L 109.805 447.993 L 109.951 448.274 L 110.095 448.558 L 110.206 448.765 L 110.314 448.973 L 110.467 449.251 L 110.617 449.531 L 110.733 449.735 L 110.846 449.940 L 111.006 450.215 L 111.163 450.491 L 111.284 450.692 L 111.402 450.895 L 111.569 451.165 L 111.733 451.437 L 111.859 451.635 L 111.982 451.835 L 112.155 452.101 L 112.325 452.369 L 112.456 452.564 L 112.584 452.761 L 112.764 453.023 L 112.941 453.286 L 113.076 453.478 L 113.209 453.671 L 113.395 453.929 L 113.578 454.188 L 113.718 454.376 L 113.856 454.566 L 114.048 454.819 L 114.238 455.074 L 114.382 455.259 L 114.524 455.445 L 114.723 455.693 L 114.919 455.944 L 115.068 456.125 L 115.215 456.308 L 115.419 456.551 L 115.621 456.796 L 115.775 456.973 L 115.926 457.153 L 116.136 457.391 L 116.344 457.631 L 116.502 457.804 L 116.657 457.980 L 116.873 458.213 L 117.087 458.448 L 117.249 458.617 L 117.409 458.789 L 117.631 459.017 L 117.850 459.246 L 118.016 459.412 L 118.180 459.580 L 118.408 459.802 L 118.633 460.026 L 118.803 460.187 L 118.971 460.351 L 119.203 460.567 L 119.434 460.786 L 119.608 460.943 L 119.780 461.103 L 120.018 461.313 L 120.254 461.526 L 120.432 461.679 L 120.607 461.834 L 120.850 462.039 L 121.091 462.246 L 121.273 462.394 L 121.452 462.545 L 121.700 462.744 L 121.946 462.945 L 122.131 463.089 L 122.315 463.236 L 122.567 463.428 L 122.818 463.623 L 123.007 463.762 L 123.194 463.904 L 123.451 464.090 L 123.707 464.279 L 123.899 464.414 L 124.089 464.551 L 124.351 464.731 L 124.611 464.913 L 124.806 465.043 L 124.999 465.176 L 125.266 465.349 L 125.530 465.525 L 125.728 465.651 L 125.925 465.778 L 126.196 465.945 L 126.464 466.115 L 126.666 466.235 L 126.865 466.358 L 127.140 466.518 L 127.413 466.681 L 127.617 466.796 L 127.820 466.914 L 128.098 467.067 L 128.375 467.223 L 128.582 467.333 L 128.787 467.446 L 129.069 467.593 L 129.350 467.742 L 129.559 467.847 L 129.767 467.955 L 130.053 468.094 L 130.337 468.237 L 130.549 468.337 L 130.760 468.440 L 131.049 468.572 L 131.336 468.707 L 131.551 468.802 L 131.764 468.899 L 132.056 469.025 L 132.347 469.153 L 132.564 469.242 L 132.779 469.335 L 133.074 469.453 L 133.368 469.574 L 133.587 469.658 L 133.805 469.745 L 134.103 469.855 L 134.399 469.969 L 134.620 470.048 L 134.840 470.129 L 135.140 470.233 L 135.440 470.339 L 135.663 470.412 L 135.884 470.489 L 136.187 470.585 L 136.489 470.684 L 136.714 470.751 L 136.937 470.822 L 137.242 470.911 L 137.546 471.002 L 137.773 471.065 L 137.998 471.130 L 138.305 471.211 L 138.611 471.295 L 138.839 471.352 L 139.066 471.411 L 139.375 471.485 L 139.683 471.561 L 139.912 471.612 L 140.140 471.667 L 140.451 471.732 L 140.761 471.801 L 140.991 471.847 L 141.221 471.895 L 141.533 471.953 L 141.845 472.015 L 142.076 472.055 L 142.307 472.097 L 142.620 472.148 L 142.933 472.202 L 143.166 472.236 L 143.397 472.273 L 143.712 472.316 L 144.026 472.362 L 144.259 472.390 L 144.492 472.422 L 144.807 472.457 L 145.123 472.495 L 145.356 472.517 L 145.589 472.543 L 145.906 472.571 L 146.222 472.601 L 146.456 472.618 L 146.690 472.638 L 147.007 472.658 L 147.324 472.680 L 147.558 472.691 L 147.792 472.706 L 148.109 472.717 L 148.427 472.732 L 148.661 472.738 L 148.896 472.746 L 149.213 472.750 L 149.531 472.758 L 149.765 472.757 L 150.000 472.760 L 505.000 472.760 L 505.000 765.200 L 505.014 766.304 L 505.054 767.408 L 505.122 768.510 L 505.217 769.611 L 505.338 770.708 L 505.487 771.803 L 505.663 772.893 L 505.865 773.979 L 506.093 775.060 L 506.349 776.134 L 506.630 777.202 L 506.938 778.263 L 507.271 779.316 L 507.631 780.360 L 508.015 781.395 L 508.425 782.421 L 508.861 783.436 L 509.320 784.440 L 509.805 785.433 L 510.314 786.413 L 510.846 787.380 L 511.402 788.335 L 511.982 789.275 L 512.584 790.201 L 513.209 791.111 L 513.856 792.006 L 514.524 792.885 L 515.215 793.748 L 515.926 794.593 L 516.657 795.420 L 517.409 796.229 L 518.180 797.020 L 518.971 797.791 L 519.780 798.543 L 520.607 799.274 L 521.452 799.985 L 522.315 800.676 L 523.194 801.344 L 524.089 801.991 L 524.999 802.616 L 525.925 803.218 L 526.865 803.798 L 527.820 804.354 L 528.787 804.886 L 529.767 805.395 L 530.760 805.880 L 531.764 806.339 L 532.779 806.775 L 533.805 807.185 L 534.840 807.569 L 535.884 807.929 L 536.937 808.262 L 537.998 808.570 L 539.066 808.851 L 540.140 809.107 L 541.221 809.335 L 542.307 809.537 L 543.397 809.713 L 544.492 809.862 L 545.589 809.983 L 546.690 810.078 L 547.792 810.146 L 548.896 810.186 L 550.000 810.200 L 551.104 810.186 L 552.208 810.146 L 553.310 810.078 L 554.411 809.983 L 555.508 809.862 L 556.603 809.713 L 557.693 809.537 L 558.779 809.335 L 559.860 809.107 L 560.934 808.851 L 562.002 808.570 L 563.063 808.262 L 564.116 807.929 L 565.160 807.569 L 566.195 807.185 L 567.221 806.775 L 568.236 806.339 L 569.240 805.880 L 570.233 805.395 L 571.213 804.886 L 572.180 804.354 L 573.135 803.798 L 574.075 803.218 L 575.001 802.616 L 575.911 801.991 L 576.806 801.344 L 577.685 800.676 L 578.548 799.985 L 579.393 799.274 L 580.220 798.543 L 581.029 797.791 L 581.820 797.020 L 582.591 796.229 L 583.343 795.420 L 584.074 794.593 L 584.785 793.748 L 585.476 792.885 L 586.144 792.006 L 586.791 791.111 L 587.416 790.201 L 588.018 789.275 L 588.598 788.335 L 589.154 787.380 L 589.686 786.413 L 590.195 785.433 L 590.680 784.440 L 591.139 783.436 L 591.575 782.421 L 591.985 781.395 L 592.369 780.360 L 592.729 779.316 L 593.062 778.263 L 593.370 777.202 L 593.651 776.134 L 593.907 775.060 L 594.135 773.979 L 594.337 772.893 L 594.513 771.803 L 594.662 770.708 L 594.783 769.611 L 594.878 768.510 L 594.946 767.408 L 594.986 766.304 L 595.000 765.200 L 595.000 427.760 L 595.000 54.800 L 594.996 54.482 L 594.996 54.165 Z M 505.000 158.284 L 505.000 382.760 L 264.249 382.760 L 505.000 158.284 Z" fill="black" fill-rule="evenodd"/>
</svg>
