<svg xmlns="http://www.w3.org/2000/svg" viewBox="0 0 420.000 1000">
  <path d="M 28.346 762.973 L 27.940 764.001 L 27.560 765.038 L 27.206 766.084 L 26.877 767.138 L 26.575 768.200 L 26.298 769.270 L 26.048 770.345 L 25.824 771.427 L 25.627 772.514 L 25.457 773.605 L 25.313 774.700 L 25.197 775.798 L 25.107 776.899 L 25.044 778.002 L 25.009 779.106 L 25.000 780.210 L 25.019 781.314 L 25.065 782.418 L 25.138 783.520 L 25.238 784.620 L 25.365 785.717 L 25.518 786.810 L 25.699 787.900 L 25.906 788.985 L 26.140 790.064 L 26.400 791.138 L 26.687 792.204 L 26.999 793.264 L 27.338 794.315 L 27.702 795.358 L 28.091 796.391 L 28.506 797.414 L 28.946 798.428 L 29.411 799.430 L 29.900 800.420 L 30.413 801.398 L 30.950 802.363 L 31.511 803.314 L 32.094 804.252 L 32.701 805.175 L 33.330 806.083 L 33.981 806.975 L 34.654 807.851 L 35.348 808.710 L 36.063 809.551 L 36.799 810.375 L 37.554 811.181 L 38.329 811.968 L 39.123 812.736 L 39.936 813.483 L 40.766 814.211 L 41.615 814.918 L 42.480 815.604 L 43.362 816.269 L 44.261 816.912 L 45.174 817.532 L 46.103 818.130 L 47.046 818.705 L 48.002 819.257 L 48.972 819.785 L 49.955 820.289 L 50.950 820.769 L 51.956 821.224 L 52.973 821.654 L 54.001 822.060 L 55.038 822.440 L 56.084 822.794 L 57.138 823.123 L 58.200 823.425 L 59.270 823.702 L 60.345 823.952 L 61.427 824.176 L 62.514 824.373 L 63.605 824.543 L 64.700 824.687 L 65.798 824.803 L 66.899 824.893 L 68.002 824.956 L 69.106 824.991 L 70.210 825.000 L 71.314 824.981 L 72.418 824.935 L 73.520 824.862 L 74.620 824.762 L 75.717 824.635 L 76.810 824.482 L 77.900 824.301 L 78.985 824.094 L 80.064 823.860 L 81.138 823.600 L 82.204 823.313 L 83.264 823.001 L 84.315 822.662 L 85.358 822.298 L 86.391 821.909 L 87.414 821.494 L 88.428 821.054 L 89.430 820.589 L 90.420 820.100 L 91.398 819.587 L 92.363 819.050 L 93.314 818.489 L 94.252 817.906 L 95.175 817.299 L 96.083 816.670 L 96.975 816.019 L 97.851 815.346 L 98.710 814.652 L 99.551 813.937 L 100.375 813.201 L 101.181 812.446 L 101.968 811.671 L 102.736 810.877 L 103.483 810.064 L 104.211 809.234 L 104.918 808.385 L 105.604 807.520 L 106.269 806.638 L 106.912 805.739 L 107.532 804.826 L 108.130 803.897 L 108.705 802.954 L 109.257 801.998 L 109.785 801.028 L 110.289 800.045 L 110.769 799.050 L 111.224 798.044 L 111.654 797.027 L 391.654 112.027 L 392.060 110.999 L 392.440 109.962 L 392.794 108.916 L 393.123 107.862 L 393.425 106.800 L 393.702 105.730 L 393.952 104.655 L 394.176 103.573 L 394.373 102.486 L 394.543 101.395 L 394.687 100.300 L 394.803 99.202 L 394.893 98.101 L 394.956 96.998 L 394.991 95.894 L 395.000 94.790 L 394.981 93.686 L 394.935 92.582 L 394.862 91.480 L 394.762 90.380 L 394.635 89.283 L 394.482 88.190 L 394.301 87.100 L 394.094 86.015 L 393.860 84.936 L 393.600 83.862 L 393.313 82.796 L 393.001 81.736 L 392.662 80.685 L 392.298 79.642 L 391.909 78.609 L 391.494 77.586 L 391.054 76.572 L 390.589 75.570 L 390.100 74.580 L 389.587 73.602 L 389.050 72.637 L 388.489 71.686 L 387.906 70.748 L 387.299 69.825 L 386.670 68.917 L 386.019 68.025 L 385.346 67.149 L 384.652 66.290 L 383.937 65.449 L 383.201 64.625 L 382.446 63.819 L 381.671 63.032 L 380.877 62.264 L 380.064 61.517 L 379.234 60.789 L 378.385 60.082 L 377.520 59.396 L 376.638 58.731 L 375.739 58.088 L 374.826 57.468 L 373.897 56.870 L 372.954 56.295 L 371.998 55.743 L 371.028 55.215 L 370.045 54.711 L 369.050 54.231 L 368.044 53.776 L 367.027 53.346 L 365.999 52.940 L 364.962 52.560 L 363.916 52.206 L 362.862 51.877 L 361.800 51.575 L 360.730 51.298 L 359.655 51.048 L 358.573 50.824 L 357.486 50.627 L 356.395 50.457 L 355.300 50.313 L 354.202 50.197 L 353.101 50.107 L 351.998 50.044 L 350.894 50.009 L 349.790 50.000 L 348.686 50.019 L 347.582 50.065 L 346.480 50.138 L 345.380 50.238 L 344.283 50.365 L 343.190 50.518 L 342.100 50.699 L 341.015 50.906 L 339.936 51.140 L 338.862 51.400 L 337.796 51.687 L 336.736 51.999 L 335.685 52.338 L 334.642 52.702 L 333.609 53.091 L 332.586 53.506 L 331.572 53.946 L 330.570 54.411 L 329.580 54.900 L 328.602 55.413 L 327.637 55.950 L 326.686 56.511 L 325.748 57.094 L 324.825 57.701 L 323.917 58.330 L 323.025 58.981 L 322.149 59.654 L 321.290 60.348 L 320.449 61.063 L 319.625 61.799 L 318.819 62.554 L 318.032 63.329 L 317.264 64.123 L 316.517 64.936 L 315.789 65.766 L 315.082 66.615 L 314.396 67.480 L 313.731 68.362 L 313.088 69.261 L 312.468 70.174 L 311.870 71.103 L 311.295 72.046 L 310.743 73.002 L 310.215 73.972 L 309.711 74.955 L 309.231 75.950 L 308.776 76.956 L 308.346 77.973 L 28.346 762.973 Z" fill="black" fill-rule="evenodd"/>
</svg>
