<svg xmlns="http://www.w3.org/2000/svg" viewBox="0 0 700.000 1000" width="700.000" height="1000">
  <path d="M 571.638 345.683 L 571.585 339.406 L 571.572 338.643 L 571.413 332.371 L 571.387 331.607 L 571.121 325.343 L 571.082 324.578 L 570.710 318.325 L 570.658 317.560 L 570.180 311.321 L 570.115 310.555 L 569.531 304.336 L 569.453 303.568 L 568.764 297.371 L 568.672 296.602 L 567.878 290.431 L 567.772 289.660 L 566.875 283.519 L 566.755 282.746 L 565.753 276.639 L 565.619 275.864 L 564.514 269.794 L 564.365 269.016 L 563.158 262.988 L 562.994 262.207 L 561.685 256.223 L 561.506 255.439 L 560.095 249.503 L 559.901 248.716 L 558.390 242.833 L 558.180 242.042 L 556.570 236.214 L 556.343 235.420 L 554.635 229.651 L 554.390 228.853 L 552.585 223.146 L 552.323 222.344 L 550.421 216.704 L 550.141 215.898 L 548.145 210.326 L 547.846 209.517 L 545.755 204.018 L 545.437 203.204 L 543.254 197.781 L 542.915 196.963 L 540.641 191.620 L 540.281 190.798 L 537.917 185.536 L 537.536 184.710 L 535.084 179.535 L 534.680 178.705 L 532.140 173.618 L 531.713 172.784 L 529.088 167.789 L 528.637 166.952 L 525.928 162.051 L 525.451 161.211 L 522.660 156.408 L 522.157 155.564 L 519.286 150.862 L 518.756 150.016 L 515.805 145.417 L 515.247 144.569 L 512.220 140.077 L 511.633 139.227 L 508.530 134.843 L 507.913 133.992 L 504.736 129.720 L 504.088 128.869 L 500.840 124.711 L 500.159 123.861 L 496.842 119.820 L 496.127 118.971 L 492.742 115.049 L 491.993 114.203 L 488.543 110.402 L 487.759 109.560 L 484.245 105.883 L 483.424 105.045 L 479.849 101.494 L 478.990 100.664 L 475.356 97.241 L 474.459 96.418 L 470.768 93.126 L 469.832 92.313 L 466.086 89.153 L 465.110 88.352 L 461.312 85.325 L 460.295 84.538 L 456.447 81.648 L 455.389 80.877 L 451.493 78.124 L 450.394 77.371 L 446.452 74.757 L 445.312 74.026 L 441.327 71.553 L 440.145 70.844 L 436.120 68.513 L 434.897 67.831 L 430.834 65.644 L 429.571 64.990 L 425.472 62.948 L 424.170 62.325 L 420.037 60.430 L 418.696 59.841 L 414.533 58.093 L 413.156 57.541 L 408.964 55.941 L 407.552 55.430 L 403.334 53.979 L 401.889 53.510 L 397.648 52.210 L 396.173 51.785 L 391.911 50.636 L 390.408 50.259 L 386.128 49.262 L 384.601 48.934 L 380.305 48.089 L 378.756 47.812 L 374.448 47.121 L 372.881 46.897 L 368.562 46.359 L 366.981 46.190 L 362.654 45.805 L 361.064 45.692 L 356.731 45.461 L 355.134 45.404 L 350.799 45.327 L 349.201 45.327 L 344.866 45.404 L 343.269 45.461 L 338.936 45.692 L 337.346 45.805 L 333.019 46.190 L 331.438 46.359 L 327.119 46.897 L 325.552 47.121 L 321.244 47.812 L 319.695 48.089 L 315.399 48.934 L 313.872 49.262 L 309.592 50.259 L 308.089 50.636 L 303.827 51.785 L 302.352 52.210 L 298.111 53.510 L 296.666 53.979 L 292.448 55.430 L 291.036 55.941 L 286.844 57.541 L 285.467 58.093 L 281.304 59.841 L 279.963 60.430 L 275.830 62.325 L 274.528 62.948 L 270.429 64.990 L 269.166 65.644 L 265.103 67.831 L 263.880 68.513 L 259.855 70.844 L 258.673 71.553 L 254.688 74.026 L 253.548 74.757 L 249.606 77.371 L 248.507 78.124 L 244.611 80.877 L 243.553 81.648 L 239.705 84.538 L 238.688 85.325 L 234.890 88.352 L 233.914 89.153 L 230.168 92.313 L 229.232 93.126 L 225.541 96.418 L 224.644 97.241 L 221.010 100.664 L 220.151 101.494 L 216.576 105.045 L 215.755 105.883 L 212.241 109.560 L 211.457 110.402 L 208.007 114.203 L 207.258 115.049 L 203.873 118.971 L 203.158 119.820 L 199.841 123.861 L 199.160 124.711 L 195.912 128.869 L 195.264 129.720 L 192.087 133.992 L 191.470 134.843 L 188.367 139.227 L 187.780 140.077 L 184.753 144.569 L 184.195 145.417 L 181.244 150.016 L 180.714 150.862 L 177.843 155.564 L 177.340 156.408 L 174.549 161.211 L 174.072 162.051 L 171.363 166.952 L 170.912 167.789 L 168.287 172.784 L 167.860 173.618 L 165.320 178.705 L 164.916 179.535 L 162.464 184.710 L 162.083 185.536 L 159.719 190.798 L 159.359 191.620 L 157.085 196.963 L 156.746 197.781 L 154.563 203.204 L 154.245 204.018 L 152.154 209.517 L 151.855 210.326 L 149.859 215.898 L 149.579 216.704 L 147.677 222.344 L 147.415 223.146 L 145.610 228.853 L 145.365 229.651 L 143.657 235.420 L 143.430 236.214 L 141.820 242.042 L 141.610 242.833 L 140.099 248.716 L 139.905 249.503 L 138.494 255.439 L 138.315 256.223 L 137.006 262.207 L 136.842 262.988 L 135.635 269.016 L 135.486 269.794 L 134.381 275.864 L 134.247 276.639 L 133.245 282.746 L 133.125 283.519 L 132.228 289.660 L 132.122 290.431 L 131.328 296.602 L 131.236 297.371 L 130.547 303.568 L 130.469 304.336 L 129.885 310.555 L 129.820 311.321 L 129.342 317.560 L 129.290 318.325 L 128.918 324.578 L 128.879 325.343 L 128.613 331.607 L 128.587 332.371 L 128.428 338.643 L 128.415 339.406 L 128.362 345.683 L 128.362 346.445 L 128.415 352.722 L 128.428 353.485 L 128.587 359.757 L 128.613 360.521 L 128.879 366.785 L 128.918 367.550 L 129.290 373.803 L 129.342 374.568 L 129.820 380.807 L 129.885 381.573 L 130.469 387.792 L 130.547 388.560 L 131.236 394.757 L 131.328 395.526 L 132.122 401.697 L 132.228 402.468 L 133.125 408.609 L 133.245 409.382 L 134.247 415.489 L 134.381 416.264 L 135.486 422.334 L 135.635 423.112 L 136.842 429.140 L 137.006 429.921 L 138.315 435.905 L 138.494 436.689 L 139.905 442.625 L 140.099 443.412 L 141.610 449.295 L 141.820 450.086 L 143.430 455.914 L 143.657 456.708 L 145.365 462.477 L 145.610 463.275 L 147.415 468.982 L 147.677 469.784 L 149.579 475.424 L 149.859 476.230 L 151.855 481.802 L 152.154 482.611 L 154.245 488.110 L 154.563 488.924 L 156.746 494.347 L 157.085 495.165 L 159.359 500.508 L 159.719 501.330 L 162.083 506.592 L 162.464 507.418 L 164.916 512.593 L 165.320 513.423 L 167.860 518.510 L 168.287 519.344 L 170.912 524.339 L 171.363 525.176 L 174.072 530.077 L 174.549 530.917 L 177.340 535.720 L 177.843 536.564 L 180.714 541.266 L 181.244 542.112 L 184.195 546.711 L 184.753 547.559 L 187.780 552.051 L 188.367 552.901 L 191.470 557.285 L 192.087 558.136 L 195.264 562.408 L 195.912 563.259 L 199.160 567.417 L 199.841 568.267 L 203.158 572.308 L 203.873 573.157 L 207.258 577.079 L 208.007 577.925 L 211.457 581.726 L 212.241 582.568 L 215.755 586.245 L 216.576 587.083 L 220.151 590.634 L 221.010 591.464 L 224.644 594.887 L 225.541 595.710 L 229.232 599.002 L 230.168 599.815 L 233.914 602.975 L 234.890 603.776 L 238.688 606.803 L 239.705 607.590 L 243.553 610.480 L 244.611 611.251 L 248.507 614.004 L 249.606 614.757 L 253.548 617.371 L 254.688 618.102 L 258.673 620.575 L 259.855 621.284 L 263.880 623.615 L 265.103 624.297 L 269.166 626.484 L 270.429 627.138 L 274.528 629.180 L 275.830 629.803 L 279.963 631.698 L 281.304 632.287 L 285.467 634.035 L 286.844 634.587 L 291.036 636.187 L 292.448 636.698 L 296.666 638.149 L 298.111 638.618 L 302.352 639.918 L 303.827 640.343 L 308.089 641.492 L 309.592 641.869 L 313.872 642.866 L 315.399 643.194 L 319.695 644.039 L 321.244 644.316 L 325.552 645.007 L 327.119 645.231 L 331.438 645.769 L 333.019 645.938 L 337.346 646.323 L 338.936 646.436 L 343.269 646.667 L 344.866 646.724 L 349.201 646.801 L 350.799 646.801 L 355.134 646.724 L 356.731 646.667 L 361.064 646.436 L 362.654 646.323 L 366.981 645.938 L 368.562 645.769 L 372.881 645.231 L 374.448 645.007 L 378.756 644.316 L 380.305 644.039 L 384.601 643.194 L 386.128 642.866 L 390.408 641.869 L 391.911 641.492 L 396.173 640.343 L 397.648 639.918 L 401.889 638.618 L 403.334 638.149 L 407.552 636.698 L 408.964 636.187 L 413.156 634.587 L 414.533 634.035 L 418.696 632.287 L 420.037 631.698 L 424.170 629.803 L 425.472 629.180 L 429.571 627.138 L 430.834 626.484 L 434.897 624.297 L 436.120 623.615 L 440.145 621.284 L 441.327 620.575 L 445.312 618.102 L 446.452 617.371 L 450.394 614.757 L 451.493 614.004 L 455.389 611.251 L 456.447 610.480 L 460.295 607.590 L 461.312 606.803 L 465.110 603.776 L 466.086 602.975 L 469.832 599.815 L 470.768 599.002 L 474.459 595.710 L 475.356 594.887 L 478.990 591.464 L 479.849 590.634 L 481.640 588.855 L 481.640 765.200 L 481.654 766.304 L 481.694 767.408 L 481.762 768.510 L 481.857 769.611 L 481.978 770.708 L 482.127 771.803 L 482.303 772.893 L 482.505 773.979 L 482.733 775.060 L 482.989 776.134 L 483.270 777.202 L 483.578 778.263 L 483.911 779.316 L 484.271 780.360 L 484.655 781.395 L 485.065 782.421 L 485.501 783.436 L 485.960 784.440 L 486.445 785.433 L 486.954 786.413 L 487.486 787.380 L 488.042 788.335 L 488.622 789.275 L 489.224 790.201 L 489.849 791.111 L 490.496 792.006 L 491.164 792.885 L 491.855 793.748 L 492.566 794.593 L 493.297 795.420 L 494.049 796.229 L 494.820 797.020 L 495.611 797.791 L 496.420 798.543 L 497.247 799.274 L 498.092 799.985 L 498.955 800.676 L 499.834 801.344 L 500.729 801.991 L 501.639 802.616 L 502.565 803.218 L 503.505 803.798 L 504.460 804.354 L 505.427 804.886 L 506.407 805.395 L 507.400 805.880 L 508.404 806.339 L 509.419 806.775 L 510.445 807.185 L 511.480 807.569 L 512.524 807.929 L 513.577 808.262 L 514.638 808.570 L 515.706 808.851 L 516.780 809.107 L 517.861 809.335 L 518.947 809.537 L 520.037 809.713 L 521.132 809.862 L 522.229 809.983 L 523.330 810.078 L 524.432 810.146 L 525.536 810.186 L 526.640 810.200 L 527.744 810.186 L 528.848 810.146 L 529.950 810.078 L 531.051 809.983 L 532.148 809.862 L 533.243 809.713 L 534.333 809.537 L 535.419 809.335 L 536.500 809.107 L 537.574 808.851 L 538.642 808.570 L 539.703 808.262 L 540.756 807.929 L 541.800 807.569 L 542.835 807.185 L 543.861 806.775 L 544.876 806.339 L 545.880 805.880 L 546.873 805.395 L 547.853 804.886 L 548.820 804.354 L 549.775 803.798 L 550.715 803.218 L 551.641 802.616 L 552.551 801.991 L 553.446 801.344 L 554.325 800.676 L 555.188 799.985 L 556.033 799.274 L 556.860 798.543 L 557.669 797.791 L 558.460 797.020 L 559.231 796.229 L 559.983 795.420 L 560.714 794.593 L 561.425 793.748 L 562.116 792.885 L 562.784 792.006 L 563.431 791.111 L 564.056 790.201 L 564.658 789.275 L 565.238 788.335 L 565.794 787.380 L 566.326 786.413 L 566.835 785.433 L 567.320 784.440 L 567.779 783.436 L 568.215 782.421 L 568.625 781.395 L 569.009 780.360 L 569.369 779.316 L 569.702 778.263 L 570.010 777.202 L 570.291 776.134 L 570.547 775.060 L 570.775 773.979 L 570.977 772.893 L 571.153 771.803 L 571.302 770.708 L 571.423 769.611 L 571.518 768.510 L 571.586 767.408 L 571.626 766.304 L 571.640 765.200 L 571.640 346.064 L 571.638 345.932 L 571.638 345.683 Z M 481.592 351.577 L 481.451 357.087 L 481.218 362.588 L 480.892 368.077 L 480.472 373.550 L 479.961 379.002 L 479.358 384.431 L 478.663 389.832 L 477.878 395.200 L 477.003 400.532 L 476.040 405.825 L 474.989 411.074 L 473.851 416.275 L 472.627 421.424 L 471.319 426.518 L 469.928 431.554 L 468.456 436.527 L 466.904 441.433 L 465.273 446.270 L 463.566 451.034 L 461.784 455.721 L 459.930 460.328 L 458.005 464.852 L 456.011 469.289 L 453.950 473.637 L 451.826 477.892 L 449.640 482.051 L 447.395 486.113 L 445.093 490.073 L 442.738 493.930 L 440.331 497.682 L 437.876 501.325 L 435.375 504.858 L 432.831 508.279 L 430.248 511.585 L 427.629 514.777 L 424.976 517.851 L 422.292 520.807 L 419.582 523.643 L 416.847 526.360 L 414.091 528.956 L 411.317 531.431 L 408.528 533.784 L 405.726 536.017 L 402.915 538.128 L 400.098 540.119 L 397.276 541.990 L 394.453 543.743 L 391.630 545.377 L 388.809 546.895 L 385.992 548.298 L 383.180 549.588 L 380.375 550.766 L 377.578 551.833 L 374.789 552.792 L 372.007 553.645 L 369.234 554.392 L 366.470 555.036 L 363.712 555.578 L 360.961 556.020 L 358.216 556.362 L 355.475 556.606 L 352.737 556.752 L 350.000 556.801 L 347.263 556.752 L 344.525 556.606 L 341.784 556.362 L 339.039 556.020 L 336.288 555.578 L 333.530 555.036 L 330.766 554.392 L 327.993 553.645 L 325.211 552.792 L 322.422 551.833 L 319.625 550.766 L 316.820 549.588 L 314.008 548.298 L 311.191 546.895 L 308.370 545.377 L 305.547 543.743 L 302.724 541.990 L 299.902 540.119 L 297.085 538.128 L 294.274 536.017 L 291.472 533.784 L 288.683 531.431 L 285.909 528.956 L 283.153 526.360 L 280.418 523.643 L 277.708 520.807 L 275.024 517.851 L 272.371 514.777 L 269.752 511.585 L 267.169 508.279 L 264.625 504.858 L 262.124 501.325 L 259.669 497.682 L 257.262 493.930 L 254.907 490.073 L 252.605 486.113 L 250.360 482.051 L 248.174 477.892 L 246.050 473.637 L 243.989 469.289 L 241.995 464.852 L 240.070 460.328 L 238.216 455.721 L 236.434 451.034 L 234.727 446.270 L 233.096 441.433 L 231.544 436.527 L 230.072 431.554 L 228.681 426.518 L 227.373 421.424 L 226.149 416.275 L 225.011 411.074 L 223.960 405.825 L 222.997 400.532 L 222.122 395.200 L 221.337 389.832 L 220.642 384.431 L 220.039 379.002 L 219.528 373.550 L 219.108 368.077 L 218.782 362.588 L 218.549 357.087 L 218.408 351.577 L 218.362 346.064 L 218.408 340.551 L 218.549 335.041 L 218.782 329.540 L 219.108 324.051 L 219.528 318.578 L 220.039 313.126 L 220.642 307.697 L 221.337 302.296 L 222.122 296.928 L 222.997 291.596 L 223.960 286.303 L 225.011 281.054 L 226.149 275.853 L 227.373 270.704 L 228.681 265.610 L 230.072 260.574 L 231.544 255.601 L 233.096 250.695 L 234.727 245.858 L 236.434 241.094 L 238.216 236.407 L 240.070 231.800 L 241.995 227.276 L 243.989 222.839 L 246.050 218.491 L 248.174 214.236 L 250.360 210.077 L 252.605 206.015 L 254.907 202.055 L 257.262 198.198 L 259.669 194.446 L 262.124 190.803 L 264.625 187.270 L 267.169 183.849 L 269.752 180.543 L 272.371 177.351 L 275.024 174.277 L 277.708 171.321 L 280.418 168.485 L 283.153 165.768 L 285.909 163.172 L 288.683 160.697 L 291.472 158.344 L 294.274 156.111 L 297.085 154.000 L 299.902 152.009 L 302.724 150.138 L 305.547 148.385 L 308.370 146.751 L 311.191 145.233 L 314.008 143.830 L 316.820 142.540 L 319.625 141.362 L 322.422 140.295 L 325.211 139.336 L 327.993 138.483 L 330.766 137.736 L 333.530 137.092 L 336.288 136.550 L 339.039 136.108 L 341.784 135.766 L 344.525 135.522 L 347.263 135.376 L 350.000 135.327 L 352.737 135.376 L 355.475 135.522 L 358.216 135.766 L 360.961 136.108 L 363.712 136.550 L 366.470 137.092 L 369.234 137.736 L 372.007 138.483 L 374.789 139.336 L 377.578 140.295 L 380.375 141.362 L 383.180 142.540 L 385.992 143.830 L 388.809 145.233 L 391.630 146.751 L 394.453 148.385 L 397.276 150.138 L 400.098 152.009 L 402.915 154.000 L 405.726 156.111 L 408.528 158.344 L 411.317 160.697 L 414.091 163.172 L 416.847 165.768 L 419.582 168.485 L 422.292 171.321 L 424.976 174.277 L 427.629 177.351 L 430.248 180.543 L 432.831 183.849 L 435.375 187.270 L 437.876 190.803 L 440.331 194.446 L 442.738 198.198 L 445.093 202.055 L 447.395 206.015 L 449.640 210.077 L 451.826 214.236 L 453.950 218.491 L 456.011 222.839 L 458.005 227.276 L 459.930 231.800 L 461.784 236.407 L 463.566 241.094 L 465.273 245.858 L 466.904 250.695 L 468.456 255.601 L 469.928 260.574 L 471.319 265.610 L 472.627 270.704 L 473.851 275.853 L 474.989 281.054 L 476.040 286.303 L 477.003 291.596 L 477.878 296.928 L 478.663 302.296 L 479.358 307.697 L 479.961 313.126 L 480.472 318.578 L 480.892 324.051 L 481.218 329.540 L 481.451 335.041 L 481.592 340.551 L 481.638 346.064 L 481.592 351.577 Z" fill="black" fill-rule="evenodd"/>
</svg>
