<svg xmlns="http://www.w3.org/2000/svg" viewBox="0 0 600.000 1000" width="600.000" height="1000">
  <path d="M 135.000 780.000 L 135.014 781.104 L 135.054 782.208 L 135.122 783.310 L 135.217 784.411 L 135.338 785.508 L 135.487 786.603 L 135.663 787.693 L 135.865 788.779 L 136.093 789.860 L 136.349 790.934 L 136.630 792.002 L 136.938 793.063 L 137.271 794.116 L 137.631 795.160 L 138.015 796.195 L 138.425 797.221 L 138.861 798.236 L 139.320 799.240 L 139.805 800.233 L 140.314 801.213 L 140.846 802.180 L 141.402 803.135 L 141.982 804.075 L 142.584 805.001 L 143.209 805.911 L 143.856 806.806 L 144.524 807.685 L 145.215 808.548 L 145.926 809.393 L 146.657 810.220 L 147.409 811.029 L 148.180 811.820 L 148.971 812.591 L 149.780 813.343 L 150.607 814.074 L 151.452 814.785 L 152.315 815.476 L 153.194 816.144 L 154.089 816.791 L 154.999 817.416 L 155.925 818.018 L 156.865 818.598 L 157.820 819.154 L 158.787 819.686 L 159.767 820.195 L 160.760 820.680 L 161.764 821.139 L 162.779 821.575 L 163.805 821.985 L 164.840 822.369 L 165.884 822.729 L 166.937 823.062 L 167.998 823.370 L 169.066 823.651 L 170.140 823.907 L 171.221 824.135 L 172.307 824.337 L 173.397 824.513 L 174.492 824.662 L 175.589 824.783 L 176.690 824.878 L 177.792 824.946 L 178.896 824.986 L 180.000 825.000 L 181.104 824.986 L 182.208 824.946 L 183.310 824.878 L 184.411 824.783 L 185.508 824.662 L 186.603 824.513 L 187.693 824.337 L 188.779 824.135 L 189.860 823.907 L 190.934 823.651 L 192.002 823.370 L 193.063 823.062 L 194.116 822.729 L 195.160 822.369 L 196.195 821.985 L 197.221 821.575 L 198.236 821.139 L 199.240 820.680 L 200.233 820.195 L 201.213 819.686 L 202.180 819.154 L 203.135 818.598 L 204.075 818.018 L 205.001 817.416 L 205.911 816.791 L 206.806 816.144 L 207.685 815.476 L 208.548 814.785 L 209.393 814.074 L 210.220 813.343 L 211.029 812.591 L 211.820 811.820 L 212.591 811.029 L 213.343 810.220 L 214.074 809.393 L 214.785 808.548 L 215.476 807.685 L 216.144 806.806 L 216.791 805.911 L 217.416 805.001 L 218.018 804.075 L 218.598 803.135 L 219.154 802.180 L 219.686 801.213 L 220.195 800.233 L 220.680 799.240 L 221.139 798.236 L 221.575 797.221 L 221.985 796.195 L 222.369 795.160 L 222.729 794.116 L 223.062 793.063 L 223.370 792.002 L 223.651 790.934 L 223.907 789.860 L 224.135 788.779 L 224.337 787.693 L 224.513 786.603 L 224.662 785.508 L 224.783 784.411 L 224.878 783.310 L 224.946 782.208 L 224.986 781.104 L 225.000 780.000 L 225.000 40.000 L 224.986 38.896 L 224.946 37.792 L 224.878 36.690 L 224.783 35.589 L 224.662 34.492 L 224.513 33.397 L 224.337 32.307 L 224.135 31.221 L 223.907 30.140 L 223.651 29.066 L 223.370 27.998 L 223.062 26.937 L 222.729 25.884 L 222.369 24.840 L 221.985 23.805 L 221.575 22.779 L 221.139 21.764 L 220.680 20.760 L 220.195 19.767 L 219.686 18.787 L 219.154 17.820 L 218.598 16.865 L 218.018 15.925 L 217.416 14.999 L 216.791 14.089 L 216.144 13.194 L 215.476 12.315 L 214.785 11.452 L 214.074 10.607 L 213.343 9.780 L 212.591 8.971 L 211.820 8.180 L 211.029 7.409 L 210.220 6.657 L 209.393 5.926 L 208.548 5.215 L 207.685 4.524 L 206.806 3.856 L 205.911 3.209 L 205.001 2.584 L 204.075 1.982 L 203.135 1.402 L 202.180 0.846 L 201.213 0.314 L 200.233 -0.195 L 199.240 -0.680 L 198.236 -1.139 L 197.221 -1.575 L 196.195 -1.985 L 195.160 -2.369 L 194.116 -2.729 L 193.063 -3.062 L 192.002 -3.370 L 190.934 -3.651 L 189.860 -3.907 L 188.779 -4.135 L 187.693 -4.337 L 186.603 -4.513 L 185.508 -4.662 L 184.411 -4.783 L 183.310 -4.878 L 182.208 -4.946 L 181.104 -4.986 L 180.000 -5.000 L 178.896 -4.986 L 177.792 -4.946 L 176.690 -4.878 L 175.589 -4.783 L 174.492 -4.662 L 173.397 -4.513 L 172.307 -4.337 L 171.221 -4.135 L 170.140 -3.907 L 169.066 -3.651 L 167.998 -3.370 L 166.937 -3.062 L 165.884 -2.729 L 164.840 -2.369 L 163.805 -1.985 L 162.779 -1.575 L 161.764 -1.139 L 160.760 -0.680 L 159.767 -0.195 L 158.787 0.314 L 157.820 0.846 L 156.865 1.402 L 155.925 1.982 L 154.999 2.584 L 154.089 3.209 L 153.194 3.856 L 152.315 4.524 L 151.452 5.215 L 150.607 5.926 L 149.780 6.657 L 148.971 7.409 L 148.180 8.180 L 147.409 8.971 L 146.657 9.780 L 145.926 10.607 L 145.215 11.452 L 144.524 12.315 L 143.856 13.194 L 143.209 14.089 L 142.584 14.999 L 141.982 15.925 L 141.402 16.865 L 140.846 17.820 L 140.314 18.787 L 139.805 19.767 L 139.320 20.760 L 138.861 21.764 L 138.425 22.779 L 138.015 23.805 L 137.631 24.840 L 137.271 25.884 L 136.938 26.937 L 136.630 27.998 L 136.349 29.066 L 136.093 30.140 L 135.865 31.221 L 135.663 32.307 L 135.487 33.397 L 135.338 34.492 L 135.217 35.589 L 135.122 36.690 L 135.054 37.792 L 135.014 38.896 L 135.000 40.000 L 135.000 780.000 Z" fill="black" fill-rule="evenodd"/>
</svg>
