<svg xmlns="http://www.w3.org/2000/svg" viewBox="0 0 700.000 1000" width="700.000" height="1000">
  <path d="M 350.000 -5.000 L 130.000 -5.000 L 128.896 -4.986 L 127.792 -4.946 L 126.690 -4.878 L 125.589 -4.783 L 125.390 -4.761 L 124.492 -4.662 L 123.740 -4.560 L 123.397 -4.513 L 122.307 -4.337 L 121.221 -4.135 L 120.598 -4.003 L 120.140 -3.907 L 119.066 -3.651 L 117.998 -3.370 L 117.383 -3.192 L 116.937 -3.062 L 115.884 -2.729 L 114.840 -2.369 L 113.805 -1.985 L 112.779 -1.575 L 112.054 -1.264 L 111.764 -1.139 L 110.760 -0.680 L 110.246 -0.429 L 109.767 -0.195 L 108.787 0.314 L 107.820 0.846 L 106.865 1.402 L 106.688 1.511 L 105.925 1.982 L 104.999 2.584 L 104.089 3.209 L 103.723 3.473 L 103.194 3.856 L 102.315 4.524 L 101.851 4.896 L 101.452 5.215 L 100.607 5.926 L 99.780 6.657 L 98.971 7.409 L 98.341 8.023 L 98.180 8.180 L 97.813 8.557 L 97.409 8.971 L 96.657 9.780 L 96.146 10.357 L 95.926 10.607 L 95.215 11.452 L 94.524 12.315 L 94.143 12.816 L 93.856 13.194 L 93.392 13.835 L 93.209 14.089 L 92.584 14.999 L 91.982 15.925 L 91.402 16.865 L 91.159 17.282 L 90.846 17.820 L 90.533 18.388 L 90.314 18.787 L 89.805 19.767 L 89.514 20.363 L 89.320 20.760 L 89.137 21.162 L 88.861 21.764 L 88.721 22.090 L 88.425 22.779 L 88.015 23.805 L 87.631 24.840 L 87.463 25.328 L 87.271 25.884 L 87.185 26.156 L 86.938 26.937 L 86.702 27.749 L 86.630 27.998 L 86.349 29.066 L 86.093 30.140 L 85.865 31.221 L 85.743 31.872 L 85.663 32.307 L 85.604 32.670 L 85.487 33.397 L 85.338 34.492 L 85.326 34.607 L 85.217 35.589 L 85.136 36.522 L 85.122 36.690 L 85.054 37.792 L 85.014 38.896 L 85.000 40.000 L 85.000 40.000 L 85.000 780.000 L 85.014 781.104 L 85.054 782.208 L 85.122 783.310 L 85.217 784.411 L 85.338 785.508 L 85.487 786.603 L 85.663 787.693 L 85.865 788.779 L 86.093 789.860 L 86.349 790.934 L 86.630 792.002 L 86.938 793.063 L 87.271 794.116 L 87.631 795.160 L 88.015 796.195 L 88.425 797.221 L 88.861 798.236 L 89.320 799.240 L 89.805 800.233 L 90.314 801.213 L 90.846 802.180 L 91.402 803.135 L 91.982 804.075 L 92.584 805.001 L 93.209 805.911 L 93.856 806.806 L 94.524 807.685 L 95.215 808.548 L 95.926 809.393 L 96.657 810.220 L 97.409 811.029 L 98.180 811.820 L 98.971 812.591 L 99.780 813.343 L 100.607 814.074 L 101.452 814.785 L 102.315 815.476 L 103.194 816.144 L 104.089 816.791 L 104.999 817.416 L 105.925 818.018 L 106.865 818.598 L 107.820 819.154 L 108.787 819.686 L 109.767 820.195 L 110.760 820.680 L 111.764 821.139 L 112.779 821.575 L 113.805 821.985 L 114.840 822.369 L 115.884 822.729 L 116.937 823.062 L 117.998 823.370 L 119.066 823.651 L 120.140 823.907 L 121.221 824.135 L 122.307 824.337 L 123.397 824.513 L 124.492 824.662 L 125.589 824.783 L 126.690 824.878 L 127.792 824.946 L 128.896 824.986 L 130.000 825.000 L 350.000 825.000 L 350.249 824.997 L 350.497 824.997 L 353.389 824.965 L 354.383 824.943 L 357.275 824.847 L 358.267 824.804 L 361.157 824.644 L 362.147 824.578 L 365.036 824.354 L 366.022 824.267 L 368.909 823.980 L 369.890 823.871 L 372.774 823.520 L 373.749 823.390 L 376.630 822.975 L 377.598 822.825 L 380.476 822.346 L 381.436 822.176 L 384.310 821.633 L 385.261 821.443 L 388.131 820.838 L 389.072 820.628 L 391.936 819.959 L 392.867 819.731 L 395.726 818.999 L 396.646 818.753 L 399.498 817.957 L 400.406 817.694 L 403.252 816.835 L 404.147 816.555 L 406.986 815.634 L 407.867 815.338 L 410.699 814.354 L 411.567 814.043 L 414.391 812.996 L 415.243 812.670 L 418.059 811.561 L 418.897 811.222 L 421.703 810.051 L 422.526 809.698 L 425.323 808.465 L 426.130 808.100 L 428.917 806.805 L 429.708 806.428 L 432.485 805.072 L 433.260 804.684 L 436.026 803.267 L 436.784 802.869 L 439.539 801.391 L 440.280 800.984 L 443.024 799.444 L 443.749 799.029 L 446.479 797.429 L 447.188 797.005 L 449.906 795.345 L 450.597 794.914 L 453.302 793.194 L 453.977 792.756 L 456.668 790.977 L 457.327 790.533 L 460.004 788.694 L 460.646 788.245 L 463.308 786.347 L 463.934 785.893 L 466.581 783.936 L 467.190 783.478 L 469.822 781.463 L 470.415 781.000 L 473.031 778.927 L 473.609 778.462 L 476.208 776.331 L 476.770 775.863 L 479.353 773.675 L 479.899 773.205 L 482.464 770.960 L 482.996 770.487 L 485.543 768.186 L 486.059 767.712 L 488.589 765.355 L 489.091 764.880 L 491.601 762.466 L 492.089 761.991 L 494.580 759.522 L 495.054 759.046 L 497.526 756.523 L 497.986 756.046 L 500.438 753.468 L 500.884 752.992 L 503.316 750.361 L 503.749 749.885 L 506.160 747.200 L 506.581 746.725 L 508.970 743.986 L 509.378 743.512 L 511.746 740.721 L 512.142 740.248 L 514.488 737.405 L 514.872 736.934 L 517.196 734.039 L 517.568 733.569 L 519.869 730.623 L 520.230 730.155 L 522.508 727.158 L 522.858 726.691 L 525.112 723.645 L 525.451 723.180 L 527.681 720.084 L 528.010 719.621 L 530.216 716.476 L 530.534 716.016 L 532.715 712.822 L 533.024 712.364 L 535.180 709.122 L 535.479 708.666 L 537.609 705.377 L 537.899 704.924 L 540.004 701.588 L 540.285 701.137 L 542.363 697.755 L 542.635 697.306 L 544.686 693.878 L 544.950 693.432 L 546.974 689.960 L 547.230 689.516 L 549.227 685.999 L 549.474 685.558 L 551.443 681.997 L 551.683 681.559 L 553.624 677.954 L 553.856 677.519 L 555.769 673.872 L 555.993 673.439 L 557.878 669.750 L 558.095 669.319 L 559.951 665.589 L 560.161 665.161 L 561.987 661.390 L 562.190 660.965 L 563.987 657.154 L 564.183 656.732 L 565.950 652.881 L 566.140 652.461 L 567.877 648.572 L 568.060 648.155 L 569.766 644.228 L 569.944 643.813 L 571.619 639.848 L 571.791 639.436 L 573.435 635.434 L 573.601 635.024 L 575.214 630.987 L 575.374 630.580 L 576.955 626.507 L 577.110 626.102 L 578.659 621.995 L 578.809 621.592 L 580.325 617.451 L 580.470 617.050 L 581.954 612.876 L 582.093 612.478 L 583.545 608.271 L 583.679 607.875 L 585.098 603.637 L 585.228 603.243 L 586.613 598.974 L 586.738 598.582 L 588.090 594.283 L 588.210 593.893 L 589.528 589.564 L 589.644 589.176 L 590.928 584.818 L 591.040 584.433 L 592.290 580.047 L 592.397 579.663 L 593.613 575.250 L 593.716 574.868 L 594.897 570.429 L 594.996 570.049 L 596.142 565.583 L 596.238 565.205 L 597.349 560.715 L 597.440 560.338 L 598.516 555.824 L 598.604 555.449 L 599.644 550.911 L 599.728 550.538 L 600.733 545.977 L 600.813 545.605 L 601.782 541.023 L 601.859 540.653 L 602.792 536.050 L 602.866 535.681 L 603.763 531.057 L 603.833 530.690 L 604.694 526.047 L 604.760 525.681 L 605.585 521.019 L 605.648 520.654 L 606.436 515.975 L 606.496 515.611 L 607.247 510.915 L 607.304 510.552 L 608.018 505.839 L 608.072 505.478 L 608.749 500.750 L 608.800 500.389 L 609.441 495.647 L 609.488 495.287 L 610.091 490.531 L 610.135 490.172 L 610.702 485.403 L 610.743 485.045 L 611.272 480.264 L 611.310 479.907 L 611.802 475.114 L 611.837 474.758 L 612.291 469.955 L 612.323 469.600 L 612.740 464.787 L 612.769 464.432 L 613.149 459.610 L 613.175 459.256 L 613.516 454.427 L 613.540 454.073 L 613.843 449.236 L 613.864 448.883 L 614.130 444.040 L 614.148 443.687 L 614.376 438.839 L 614.391 438.486 L 614.581 433.633 L 614.593 433.281 L 614.745 428.424 L 614.755 428.072 L 614.869 423.212 L 614.876 422.860 L 614.952 417.998 L 614.956 417.647 L 614.994 412.783 L 614.995 412.432 L 614.995 407.568 L 614.994 407.217 L 614.956 402.353 L 614.952 402.002 L 614.876 397.140 L 614.869 396.788 L 614.755 391.928 L 614.745 391.576 L 614.593 386.719 L 614.581 386.367 L 614.391 381.514 L 614.376 381.161 L 614.148 376.313 L 614.130 375.960 L 613.864 371.117 L 613.843 370.764 L 613.540 365.927 L 613.516 365.573 L 613.175 360.744 L 613.149 360.390 L 612.769 355.568 L 612.740 355.213 L 612.323 350.400 L 612.291 350.045 L 611.837 345.242 L 611.802 344.886 L 611.310 340.093 L 611.272 339.736 L 610.743 334.955 L 610.702 334.597 L 610.135 329.828 L 610.091 329.469 L 609.488 324.713 L 609.441 324.353 L 608.800 319.611 L 608.749 319.250 L 608.072 314.522 L 608.018 314.161 L 607.304 309.448 L 607.247 309.085 L 606.496 304.389 L 606.436 304.025 L 605.648 299.346 L 605.585 298.981 L 604.760 294.319 L 604.694 293.953 L 603.833 289.310 L 603.763 288.943 L 602.866 284.319 L 602.792 283.950 L 601.859 279.347 L 601.782 278.977 L 600.813 274.395 L 600.733 274.023 L 599.728 269.462 L 599.644 269.089 L 598.604 264.551 L 598.516 264.176 L 597.440 259.662 L 597.349 259.285 L 596.238 254.795 L 596.142 254.417 L 594.996 249.951 L 594.897 249.571 L 593.716 245.132 L 593.613 244.750 L 592.397 240.337 L 592.290 239.953 L 591.040 235.567 L 590.928 235.182 L 589.644 230.824 L 589.528 230.436 L 588.210 226.107 L 588.090 225.717 L 586.738 221.418 L 586.613 221.026 L 585.228 216.757 L 585.098 216.363 L 583.679 212.125 L 583.545 211.729 L 582.093 207.522 L 581.954 207.124 L 580.470 202.950 L 580.325 202.549 L 578.809 198.408 L 578.659 198.005 L 577.110 193.898 L 576.955 193.493 L 575.374 189.420 L 575.214 189.013 L 573.601 184.976 L 573.435 184.566 L 571.791 180.564 L 571.619 180.152 L 569.944 176.187 L 569.766 175.772 L 568.060 171.845 L 567.877 171.428 L 566.140 167.539 L 565.950 167.119 L 564.183 163.268 L 563.987 162.846 L 562.190 159.035 L 561.987 158.610 L 560.161 154.839 L 559.951 154.411 L 558.095 150.681 L 557.878 150.250 L 555.993 146.561 L 555.769 146.128 L 553.856 142.481 L 553.624 142.046 L 551.683 138.441 L 551.443 138.003 L 549.474 134.442 L 549.227 134.001 L 547.230 130.484 L 546.974 130.040 L 544.950 126.568 L 544.686 126.122 L 542.635 122.694 L 542.363 122.245 L 540.285 118.863 L 540.004 118.412 L 537.899 115.076 L 537.609 114.623 L 535.479 111.334 L 535.180 110.878 L 533.024 107.636 L 532.715 107.178 L 530.534 103.984 L 530.216 103.524 L 528.010 100.379 L 527.681 99.916 L 525.451 96.820 L 525.112 96.355 L 522.858 93.309 L 522.508 92.842 L 520.230 89.845 L 519.869 89.377 L 517.568 86.431 L 517.196 85.961 L 514.872 83.066 L 514.488 82.595 L 512.142 79.752 L 511.746 79.279 L 509.378 76.488 L 508.970 76.014 L 506.581 73.275 L 506.160 72.800 L 503.749 70.115 L 503.316 69.639 L 500.884 67.008 L 500.438 66.532 L 497.986 63.954 L 497.526 63.477 L 495.054 60.954 L 494.580 60.478 L 492.089 58.009 L 491.601 57.534 L 489.091 55.120 L 488.589 54.645 L 486.059 52.288 L 485.543 51.814 L 482.996 49.513 L 482.464 49.040 L 479.899 46.795 L 479.353 46.325 L 476.770 44.137 L 476.208 43.669 L 473.609 41.538 L 473.031 41.073 L 470.415 39.000 L 469.822 38.537 L 467.190 36.522 L 466.581 36.064 L 463.934 34.107 L 463.308 33.653 L 460.646 31.755 L 460.004 31.306 L 457.327 29.467 L 456.668 29.023 L 453.977 27.244 L 453.302 26.806 L 450.597 25.086 L 449.906 24.655 L 447.188 22.995 L 446.479 22.571 L 443.749 20.971 L 443.024 20.556 L 440.280 19.016 L 439.539 18.609 L 436.784 17.131 L 436.026 16.733 L 433.260 15.316 L 432.485 14.928 L 429.708 13.572 L 428.917 13.195 L 426.130 11.900 L 425.323 11.535 L 422.526 10.302 L 421.703 9.949 L 418.897 8.778 L 418.059 8.439 L 415.243 7.330 L 414.391 7.004 L 411.567 5.957 L 410.699 5.646 L 407.867 4.662 L 406.986 4.366 L 404.147 3.445 L 403.252 3.165 L 400.406 2.306 L 399.498 2.043 L 396.646 1.247 L 395.726 1.001 L 392.867 0.269 L 391.936 0.041 L 389.072 -0.628 L 388.131 -0.838 L 385.261 -1.443 L 384.310 -1.633 L 381.436 -2.176 L 380.476 -2.346 L 377.598 -2.825 L 376.630 -2.975 L 373.749 -3.390 L 372.774 -3.520 L 369.890 -3.871 L 368.909 -3.980 L 366.022 -4.267 L 365.036 -4.354 L 362.147 -4.578 L 361.157 -4.644 L 358.267 -4.804 L 357.275 -4.847 L 354.383 -4.943 L 353.389 -4.965 L 350.497 -4.997 L 350.249 -4.997 L 350.000 -5.000 Z M 175.000 85.000 L 349.751 85.000 L 351.897 85.024 L 353.795 85.087 L 355.694 85.192 L 357.595 85.339 L 359.498 85.528 L 361.404 85.761 L 363.314 86.036 L 365.227 86.354 L 367.145 86.716 L 369.068 87.122 L 370.996 87.572 L 372.930 88.068 L 374.869 88.608 L 376.814 89.195 L 378.766 89.828 L 380.724 90.509 L 382.688 91.237 L 384.658 92.013 L 386.635 92.837 L 388.618 93.711 L 390.606 94.635 L 392.601 95.609 L 394.601 96.634 L 396.606 97.710 L 398.616 98.838 L 400.630 100.018 L 402.648 101.251 L 404.670 102.536 L 406.695 103.875 L 408.722 105.267 L 410.751 106.714 L 412.781 108.214 L 414.811 109.769 L 416.842 111.378 L 418.872 113.042 L 420.901 114.761 L 422.927 116.534 L 424.951 118.363 L 426.971 120.246 L 428.987 122.184 L 430.999 124.176 L 433.004 126.223 L 435.003 128.325 L 436.996 130.481 L 438.980 132.691 L 440.956 134.955 L 442.922 137.273 L 444.879 139.644 L 446.824 142.068 L 448.759 144.544 L 450.681 147.073 L 452.591 149.654 L 454.487 152.287 L 456.369 154.970 L 458.236 157.705 L 460.088 160.489 L 461.924 163.324 L 463.743 166.207 L 465.545 169.139 L 467.328 172.120 L 469.094 175.148 L 470.840 178.222 L 472.566 181.344 L 474.272 184.511 L 475.958 187.724 L 477.622 190.981 L 479.264 194.282 L 480.884 197.626 L 482.480 201.013 L 484.054 204.442 L 485.603 207.913 L 487.128 211.424 L 488.629 214.974 L 490.104 218.564 L 491.553 222.193 L 492.976 225.859 L 494.372 229.562 L 495.742 233.301 L 497.084 237.076 L 498.398 240.885 L 499.685 244.729 L 500.942 248.605 L 502.171 252.514 L 503.371 256.454 L 504.541 260.425 L 505.681 264.427 L 506.791 268.457 L 507.870 272.515 L 508.919 276.602 L 509.937 280.714 L 510.923 284.853 L 511.878 289.017 L 512.801 293.205 L 513.691 297.416 L 514.550 301.649 L 515.375 305.905 L 516.168 310.181 L 516.928 314.477 L 517.655 318.792 L 518.349 323.125 L 519.009 327.476 L 519.635 331.843 L 520.227 336.225 L 520.785 340.623 L 521.309 345.034 L 521.799 349.458 L 522.254 353.894 L 522.674 358.341 L 523.060 362.799 L 523.411 367.266 L 523.728 371.741 L 524.009 376.224 L 524.255 380.714 L 524.467 385.210 L 524.643 389.710 L 524.784 394.215 L 524.889 398.723 L 524.960 403.233 L 524.995 407.744 L 524.995 412.256 L 524.960 416.767 L 524.889 421.277 L 524.784 425.785 L 524.643 430.290 L 524.467 434.790 L 524.255 439.286 L 524.009 443.776 L 523.728 448.259 L 523.411 452.734 L 523.060 457.201 L 522.674 461.659 L 522.254 466.106 L 521.799 470.542 L 521.309 474.966 L 520.785 479.377 L 520.227 483.775 L 519.635 488.157 L 519.009 492.524 L 518.349 496.875 L 517.655 501.208 L 516.928 505.523 L 516.168 509.819 L 515.375 514.095 L 514.550 518.351 L 513.691 522.584 L 512.801 526.795 L 511.878 530.983 L 510.923 535.147 L 509.937 539.286 L 508.919 543.398 L 507.870 547.485 L 506.791 551.543 L 505.681 555.573 L 504.541 559.575 L 503.371 563.546 L 502.171 567.486 L 500.942 571.395 L 499.685 575.271 L 498.398 579.115 L 497.084 582.924 L 495.742 586.699 L 494.372 590.438 L 492.976 594.141 L 491.553 597.807 L 490.104 601.436 L 488.629 605.026 L 487.128 608.576 L 485.603 612.087 L 484.054 615.558 L 482.480 618.987 L 480.884 622.374 L 479.264 625.718 L 477.622 629.019 L 475.958 632.276 L 474.272 635.489 L 472.566 638.656 L 470.840 641.778 L 469.094 644.852 L 467.328 647.880 L 465.545 650.861 L 463.743 653.793 L 461.924 656.676 L 460.088 659.511 L 458.236 662.295 L 456.369 665.030 L 454.487 667.713 L 452.591 670.346 L 450.681 672.927 L 448.759 675.456 L 446.824 677.932 L 444.879 680.356 L 442.922 682.727 L 440.956 685.045 L 438.980 687.309 L 436.996 689.519 L 435.003 691.675 L 433.004 693.777 L 430.999 695.824 L 428.987 697.816 L 426.971 699.754 L 424.951 701.637 L 422.927 703.466 L 420.901 705.239 L 418.872 706.958 L 416.842 708.622 L 414.811 710.231 L 412.781 711.786 L 410.751 713.286 L 408.722 714.733 L 406.695 716.125 L 404.670 717.464 L 402.648 718.749 L 400.630 719.982 L 398.616 721.162 L 396.606 722.290 L 394.601 723.366 L 392.601 724.391 L 390.606 725.365 L 388.618 726.289 L 386.635 727.163 L 384.658 727.987 L 382.688 728.763 L 380.724 729.491 L 378.766 730.172 L 376.814 730.805 L 374.869 731.392 L 372.930 731.932 L 370.996 732.428 L 369.068 732.878 L 367.145 733.284 L 365.227 733.646 L 363.314 733.964 L 361.404 734.239 L 359.498 734.472 L 357.595 734.661 L 355.694 734.808 L 353.795 734.913 L 351.897 734.976 L 349.751 735.000 L 175.000 735.000 L 175.000 85.000 Z" fill="black" fill-rule="evenodd"/>
</svg>
