<svg xmlns="http://www.w3.org/2000/svg" viewBox="0 0 600.000 1000" width="600.000" height="1000">
  <path d="M 105.000 360.000 L 105.000 480.000 L 105.000 780.000 L 105.014 781.104 L 105.054 782.208 L 105.122 783.310 L 105.217 784.411 L 105.338 785.508 L 105.487 786.603 L 105.663 787.693 L 105.865 788.779 L 106.093 789.860 L 106.349 790.934 L 106.630 792.002 L 106.938 793.063 L 107.271 794.116 L 107.631 795.160 L 108.015 796.195 L 108.425 797.221 L 108.861 798.236 L 109.320 799.240 L 109.805 800.233 L 110.314 801.213 L 110.846 802.180 L 111.402 803.135 L 111.982 804.075 L 112.584 805.001 L 113.209 805.911 L 113.856 806.806 L 114.524 807.685 L 115.215 808.548 L 115.926 809.393 L 116.657 810.220 L 117.409 811.029 L 118.180 811.820 L 118.971 812.591 L 119.780 813.343 L 120.607 814.074 L 121.452 814.785 L 122.315 815.476 L 123.194 816.144 L 124.089 816.791 L 124.999 817.416 L 125.925 818.018 L 126.865 818.598 L 127.820 819.154 L 128.787 819.686 L 129.767 820.195 L 130.760 820.680 L 131.764 821.139 L 132.779 821.575 L 133.805 821.985 L 134.840 822.369 L 135.884 822.729 L 136.937 823.062 L 137.998 823.370 L 139.066 823.651 L 140.140 823.907 L 141.221 824.135 L 142.307 824.337 L 143.397 824.513 L 144.492 824.662 L 145.589 824.783 L 146.690 824.878 L 147.792 824.946 L 148.896 824.986 L 150.000 825.000 L 151.104 824.986 L 152.208 824.946 L 153.310 824.878 L 154.411 824.783 L 155.508 824.662 L 156.603 824.513 L 157.693 824.337 L 158.779 824.135 L 159.860 823.907 L 160.934 823.651 L 162.002 823.370 L 163.063 823.062 L 164.116 822.729 L 165.160 822.369 L 166.195 821.985 L 167.221 821.575 L 168.236 821.139 L 169.240 820.680 L 170.233 820.195 L 171.213 819.686 L 172.180 819.154 L 173.135 818.598 L 174.075 818.018 L 175.001 817.416 L 175.911 816.791 L 176.806 816.144 L 177.685 815.476 L 178.548 814.785 L 179.393 814.074 L 180.220 813.343 L 181.029 812.591 L 181.820 811.820 L 182.591 811.029 L 183.343 810.220 L 184.074 809.393 L 184.785 808.548 L 185.476 807.685 L 186.144 806.806 L 186.791 805.911 L 187.416 805.001 L 188.018 804.075 L 188.598 803.135 L 189.154 802.180 L 189.686 801.213 L 190.195 800.233 L 190.680 799.240 L 191.139 798.236 L 191.575 797.221 L 191.985 796.195 L 192.369 795.160 L 192.729 794.116 L 193.062 793.063 L 193.370 792.002 L 193.651 790.934 L 193.907 789.860 L 194.135 788.779 L 194.337 787.693 L 194.513 786.603 L 194.662 785.508 L 194.783 784.411 L 194.878 783.310 L 194.946 782.208 L 194.986 781.104 L 195.000 780.000 L 195.000 496.087 L 196.917 493.834 L 199.794 490.526 L 202.653 487.308 L 205.495 484.180 L 208.320 481.142 L 211.126 478.194 L 213.913 475.337 L 216.681 472.569 L 219.429 469.890 L 222.156 467.301 L 224.861 464.801 L 227.545 462.390 L 230.206 460.067 L 232.844 457.833 L 235.458 455.686 L 238.047 453.626 L 240.611 451.653 L 243.149 449.765 L 245.661 447.962 L 248.145 446.244 L 250.602 444.609 L 253.030 443.056 L 255.430 441.585 L 257.801 440.194 L 260.143 438.881 L 262.454 437.646 L 264.737 436.487 L 266.989 435.403 L 269.213 434.392 L 271.407 433.452 L 273.572 432.582 L 275.709 431.781 L 277.819 431.045 L 279.902 430.374 L 281.961 429.767 L 283.995 429.220 L 286.008 428.733 L 288.000 428.305 L 289.973 427.933 L 291.931 427.616 L 293.874 427.354 L 295.806 427.145 L 297.729 426.988 L 299.645 426.883 L 301.558 426.830 L 303.470 426.827 L 305.384 426.876 L 307.303 426.977 L 309.229 427.129 L 311.165 427.333 L 313.114 427.591 L 315.078 427.904 L 317.059 428.272 L 319.060 428.696 L 321.082 429.180 L 323.127 429.723 L 325.196 430.327 L 327.292 430.995 L 329.415 431.727 L 331.566 432.526 L 333.746 433.393 L 335.955 434.331 L 338.194 435.339 L 340.463 436.421 L 342.763 437.578 L 345.093 438.811 L 347.453 440.122 L 349.843 441.511 L 352.263 442.981 L 354.712 444.532 L 357.190 446.165 L 359.697 447.881 L 362.231 449.682 L 364.792 451.568 L 367.379 453.539 L 369.993 455.597 L 372.632 457.742 L 375.295 459.975 L 377.982 462.295 L 380.693 464.704 L 383.426 467.202 L 386.181 469.788 L 388.957 472.464 L 391.754 475.230 L 394.572 478.085 L 397.591 481.219 L 398.367 482.005 L 399.162 482.772 L 399.975 483.519 L 400.807 484.246 L 401.656 484.952 L 402.522 485.637 L 403.405 486.300 L 404.304 486.942 L 405.218 487.562 L 406.148 488.158 L 407.091 488.732 L 408.049 489.283 L 409.019 489.810 L 410.003 490.313 L 410.998 490.791 L 412.005 491.245 L 413.022 491.674 L 414.050 492.079 L 415.088 492.457 L 416.134 492.811 L 417.189 493.138 L 418.252 493.439 L 419.321 493.715 L 420.397 493.963 L 421.479 494.186 L 422.566 494.382 L 423.657 494.551 L 424.753 494.693 L 425.851 494.808 L 426.952 494.897 L 428.055 494.958 L 429.159 494.992 L 430.263 494.999 L 431.367 494.979 L 432.471 494.932 L 433.573 494.858 L 434.672 494.757 L 435.769 494.629 L 436.863 494.474 L 437.952 494.292 L 439.037 494.083 L 440.116 493.848 L 441.189 493.587 L 442.255 493.299 L 443.314 492.985 L 444.365 492.646 L 445.407 492.280 L 446.440 491.889 L 447.463 491.473 L 448.476 491.032 L 449.477 490.566 L 450.467 490.076 L 451.444 489.562 L 452.409 489.024 L 453.360 488.462 L 454.297 487.877 L 455.219 487.269 L 456.126 486.639 L 457.017 485.987 L 457.892 485.313 L 458.750 484.618 L 459.591 483.902 L 460.414 483.166 L 461.219 482.409 L 462.005 481.633 L 462.772 480.838 L 463.519 480.025 L 464.246 479.193 L 464.952 478.344 L 465.637 477.478 L 466.300 476.595 L 466.942 475.696 L 467.562 474.782 L 468.158 473.852 L 468.732 472.909 L 469.283 471.951 L 469.810 470.981 L 470.313 469.997 L 470.791 469.002 L 471.245 467.995 L 471.674 466.978 L 472.079 465.950 L 472.457 464.912 L 472.811 463.866 L 473.138 462.811 L 473.439 461.748 L 473.715 460.679 L 473.963 459.603 L 474.186 458.521 L 474.382 457.434 L 474.551 456.343 L 474.693 455.247 L 474.808 454.149 L 474.897 453.048 L 474.958 451.945 L 474.992 450.841 L 474.999 449.737 L 474.979 448.633 L 474.932 447.529 L 474.858 446.427 L 474.757 445.328 L 474.629 444.231 L 474.474 443.137 L 474.292 442.048 L 474.083 440.963 L 473.848 439.884 L 473.587 438.811 L 473.299 437.745 L 472.985 436.686 L 472.646 435.635 L 472.280 434.593 L 471.889 433.560 L 471.473 432.537 L 471.032 431.524 L 470.566 430.523 L 470.076 429.533 L 469.562 428.556 L 469.024 427.591 L 468.462 426.640 L 467.877 425.703 L 467.269 424.781 L 466.639 423.874 L 465.987 422.983 L 465.313 422.108 L 464.618 421.250 L 463.902 420.409 L 463.166 419.586 L 462.409 418.781 L 459.202 415.452 L 458.825 415.064 L 455.622 411.818 L 455.229 411.425 L 452.030 408.262 L 451.620 407.862 L 448.425 404.783 L 447.998 404.377 L 444.807 401.381 L 444.363 400.969 L 441.176 398.056 L 440.712 397.639 L 437.529 394.810 L 437.046 394.387 L 433.866 391.641 L 433.364 391.213 L 430.187 388.551 L 429.664 388.119 L 426.491 385.539 L 425.946 385.103 L 422.776 382.607 L 422.208 382.168 L 419.042 379.755 L 418.452 379.313 L 415.288 376.984 L 414.674 376.539 L 411.513 374.294 L 410.875 373.848 L 407.717 371.685 L 407.053 371.239 L 403.899 369.160 L 403.209 368.714 L 400.057 366.718 L 399.341 366.274 L 396.191 364.362 L 395.448 363.920 L 392.302 362.091 L 391.531 361.653 L 388.387 359.907 L 387.589 359.474 L 384.447 357.812 L 383.621 357.385 L 380.481 355.806 L 379.627 355.388 L 376.489 353.892 L 375.606 353.482 L 372.471 352.070 L 371.560 351.672 L 368.427 350.342 L 367.488 349.957 L 364.357 348.711 L 363.391 348.339 L 360.261 347.176 L 359.268 346.821 L 356.140 345.741 L 355.121 345.404 L 351.995 344.407 L 350.951 344.089 L 347.826 343.176 L 346.758 342.879 L 343.634 342.049 L 342.544 341.774 L 339.421 341.028 L 338.310 340.777 L 335.189 340.115 L 334.058 339.890 L 330.938 339.310 L 329.790 339.112 L 326.671 338.616 L 325.508 338.447 L 322.390 338.034 L 321.214 337.894 L 318.096 337.565 L 316.909 337.455 L 313.792 337.209 L 312.598 337.131 L 309.481 336.968 L 308.281 336.921 L 305.165 336.841 L 303.962 336.827 L 300.847 336.831 L 299.644 336.848 L 296.529 336.935 L 295.328 336.985 L 292.213 337.155 L 291.018 337.237 L 287.903 337.490 L 286.715 337.603 L 283.601 337.940 L 282.423 338.083 L 279.309 338.504 L 278.144 338.677 L 275.029 339.180 L 273.879 339.382 L 270.764 339.969 L 269.632 340.197 L 266.516 340.867 L 265.403 341.122 L 262.287 341.876 L 261.194 342.155 L 258.078 342.992 L 257.007 343.293 L 253.891 344.214 L 252.844 344.536 L 249.726 345.540 L 248.705 345.883 L 245.586 346.970 L 244.591 347.330 L 241.471 348.500 L 240.502 348.876 L 237.382 350.130 L 236.441 350.521 L 233.319 351.858 L 232.406 352.261 L 229.283 353.681 L 228.398 354.096 L 225.274 355.599 L 224.416 356.023 L 221.291 357.610 L 220.462 358.042 L 217.335 359.712 L 216.535 360.150 L 213.406 361.904 L 212.633 362.347 L 209.503 364.184 L 208.758 364.631 L 205.626 366.552 L 204.907 367.001 L 201.774 369.005 L 201.082 369.456 L 197.946 371.543 L 197.280 371.995 L 195.000 373.572 L 195.000 360.000 L 194.986 358.896 L 194.946 357.792 L 194.878 356.690 L 194.783 355.589 L 194.662 354.492 L 194.513 353.397 L 194.337 352.307 L 194.135 351.221 L 193.907 350.140 L 193.651 349.066 L 193.370 347.998 L 193.062 346.937 L 192.729 345.884 L 192.369 344.840 L 191.985 343.805 L 191.575 342.779 L 191.139 341.764 L 190.680 340.760 L 190.195 339.767 L 189.686 338.787 L 189.154 337.820 L 188.598 336.865 L 188.018 335.925 L 187.416 334.999 L 186.791 334.089 L 186.144 333.194 L 185.476 332.315 L 184.785 331.452 L 184.074 330.607 L 183.343 329.780 L 182.591 328.971 L 181.820 328.180 L 181.029 327.409 L 180.220 326.657 L 179.393 325.926 L 178.548 325.215 L 177.685 324.524 L 176.806 323.856 L 175.911 323.209 L 175.001 322.584 L 174.075 321.982 L 173.135 321.402 L 172.180 320.846 L 171.213 320.314 L 170.233 319.805 L 169.240 319.320 L 168.236 318.861 L 167.221 318.425 L 166.195 318.015 L 165.160 317.631 L 164.116 317.271 L 163.063 316.938 L 162.002 316.630 L 160.934 316.349 L 159.860 316.093 L 158.779 315.865 L 157.693 315.663 L 156.603 315.487 L 155.508 315.338 L 154.411 315.217 L 153.310 315.122 L 152.208 315.054 L 151.104 315.014 L 150.000 315.000 L 148.896 315.014 L 147.792 315.054 L 146.690 315.122 L 145.589 315.217 L 144.492 315.338 L 143.397 315.487 L 142.307 315.663 L 141.221 315.865 L 140.140 316.093 L 139.066 316.349 L 137.998 316.630 L 136.937 316.938 L 135.884 317.271 L 134.840 317.631 L 133.805 318.015 L 132.779 318.425 L 131.764 318.861 L 130.760 319.320 L 129.767 319.805 L 128.787 320.314 L 127.820 320.846 L 126.865 321.402 L 125.925 321.982 L 124.999 322.584 L 124.089 323.209 L 123.194 323.856 L 122.315 324.524 L 121.452 325.215 L 120.607 325.926 L 119.780 326.657 L 118.971 327.409 L 118.180 328.180 L 117.409 328.971 L 116.657 329.780 L 115.926 330.607 L 115.215 331.452 L 114.524 332.315 L 113.856 333.194 L 113.209 334.089 L 112.584 334.999 L 111.982 335.925 L 111.402 336.865 L 110.846 337.820 L 110.314 338.787 L 109.805 339.767 L 109.320 340.760 L 108.861 341.764 L 108.425 342.779 L 108.015 343.805 L 107.631 344.840 L 107.271 345.884 L 106.938 346.937 L 106.630 347.998 L 106.349 349.066 L 106.093 350.140 L 105.865 351.221 L 105.663 352.307 L 105.487 353.397 L 105.338 354.492 L 105.217 355.589 L 105.122 356.690 L 105.054 357.792 L 105.014 358.896 L 105.000 360.000 Z" fill="black" fill-rule="evenodd"/>
</svg>
