<svg xmlns="http://www.w3.org/2000/svg" viewBox="0 0 700.000 1000" width="700.000" height="1000">
  <path d="M 268.177 272.638 L 269.256 269.411 L 270.348 266.209 L 271.454 263.034 L 272.573 259.886 L 273.705 256.765 L 274.851 253.672 L 276.009 250.606 L 277.179 247.569 L 278.362 244.560 L 279.558 241.580 L 280.765 238.630 L 281.983 235.709 L 283.213 232.818 L 284.455 229.958 L 285.707 227.128 L 286.970 224.329 L 288.244 221.562 L 289.528 218.826 L 290.822 216.123 L 292.126 213.451 L 293.439 210.813 L 294.761 208.207 L 296.093 205.635 L 297.433 203.096 L 298.781 200.591 L 300.138 198.120 L 301.502 195.684 L 302.874 193.283 L 304.252 190.916 L 305.638 188.585 L 307.030 186.290 L 308.429 184.030 L 309.833 181.806 L 311.242 179.619 L 312.657 177.468 L 314.077 175.354 L 315.501 173.277 L 316.929 171.237 L 318.361 169.235 L 319.796 167.270 L 321.233 165.343 L 322.674 163.454 L 324.116 161.603 L 325.560 159.790 L 327.006 158.016 L 328.452 156.280 L 329.898 154.583 L 331.345 152.925 L 332.791 151.305 L 334.236 149.724 L 335.680 148.183 L 337.122 146.680 L 338.562 145.216 L 339.999 143.790 L 341.433 142.404 L 342.863 141.057 L 344.290 139.748 L 345.711 138.478 L 347.128 137.246 L 348.540 136.053 L 349.946 134.898 L 351.345 133.781 L 352.738 132.702 L 354.124 131.661 L 355.503 130.657 L 356.873 129.689 L 358.236 128.759 L 359.590 127.865 L 360.935 127.007 L 362.271 126.184 L 363.598 125.397 L 364.915 124.644 L 366.223 123.926 L 367.520 123.241 L 368.807 122.590 L 370.084 121.971 L 371.351 121.385 L 372.608 120.831 L 373.854 120.307 L 375.090 119.814 L 376.316 119.351 L 377.532 118.918 L 378.738 118.513 L 379.935 118.136 L 381.122 117.788 L 382.301 117.466 L 383.471 117.171 L 384.633 116.902 L 385.788 116.659 L 386.936 116.441 L 388.078 116.247 L 389.214 116.078 L 390.345 115.933 L 391.472 115.812 L 392.594 115.714 L 393.714 115.639 L 394.832 115.588 L 395.949 115.559 L 397.065 115.553 L 398.181 115.570 L 399.298 115.610 L 400.416 115.673 L 401.538 115.758 L 402.662 115.868 L 403.791 116.000 L 404.924 116.157 L 406.063 116.338 L 407.207 116.543 L 408.359 116.773 L 409.517 117.029 L 410.683 117.310 L 411.858 117.618 L 413.041 117.953 L 414.232 118.315 L 415.434 118.705 L 416.645 119.123 L 417.865 119.571 L 419.096 120.048 L 420.337 120.556 L 421.588 121.094 L 422.849 121.664 L 424.121 122.266 L 425.403 122.900 L 426.695 123.568 L 427.998 124.268 L 429.310 125.003 L 430.632 125.773 L 431.963 126.577 L 433.304 127.417 L 434.653 128.292 L 436.011 129.204 L 437.378 130.152 L 438.752 131.137 L 440.134 132.159 L 441.524 133.219 L 442.920 134.316 L 444.323 135.451 L 445.731 136.624 L 447.145 137.836 L 448.565 139.086 L 449.989 140.375 L 451.417 141.702 L 452.849 143.069 L 454.285 144.474 L 455.723 145.917 L 457.164 147.400 L 458.607 148.922 L 460.052 150.483 L 461.498 152.082 L 462.944 153.721 L 464.390 155.398 L 465.837 157.113 L 467.283 158.868 L 468.727 160.661 L 470.171 162.492 L 471.612 164.361 L 473.051 166.268 L 474.488 168.214 L 475.921 170.197 L 477.351 172.217 L 478.777 174.275 L 480.199 176.370 L 481.617 178.502 L 483.029 180.670 L 484.436 182.875 L 485.838 185.116 L 487.233 187.393 L 488.622 189.706 L 490.005 192.054 L 491.380 194.438 L 492.748 196.856 L 494.109 199.309 L 495.461 201.796 L 496.806 204.317 L 498.141 206.872 L 499.469 209.461 L 500.787 212.083 L 502.095 214.737 L 503.394 217.424 L 504.683 220.143 L 505.963 222.894 L 507.231 225.676 L 508.489 228.490 L 509.736 231.335 L 510.972 234.210 L 512.197 237.115 L 513.410 240.050 L 514.611 243.015 L 515.801 246.009 L 516.978 249.031 L 518.142 252.083 L 519.294 255.162 L 520.433 258.268 L 521.559 261.403 L 522.672 264.564 L 523.772 267.752 L 524.902 271.099 L 525.269 272.141 L 525.660 273.174 L 526.077 274.196 L 526.519 275.209 L 526.986 276.210 L 527.477 277.199 L 527.992 278.176 L 528.531 279.140 L 529.094 280.090 L 529.680 281.026 L 530.288 281.948 L 530.919 282.855 L 531.572 283.745 L 532.247 284.620 L 532.942 285.477 L 533.659 286.318 L 534.396 287.140 L 535.153 287.944 L 535.930 288.730 L 536.726 289.496 L 537.540 290.242 L 538.372 290.968 L 539.222 291.673 L 540.089 292.357 L 540.972 293.020 L 541.872 293.661 L 542.787 294.280 L 543.716 294.876 L 544.661 295.449 L 545.618 295.999 L 546.590 296.525 L 547.573 297.027 L 548.569 297.505 L 549.576 297.958 L 550.594 298.386 L 551.623 298.789 L 552.660 299.167 L 553.707 299.519 L 554.762 299.846 L 555.825 300.146 L 556.895 300.421 L 557.971 300.669 L 559.053 300.890 L 560.140 301.085 L 561.232 301.253 L 562.327 301.394 L 563.426 301.509 L 564.527 301.596 L 565.629 301.656 L 566.733 301.690 L 567.838 301.696 L 568.942 301.675 L 570.045 301.627 L 571.147 301.551 L 572.247 301.449 L 573.344 301.320 L 574.437 301.164 L 575.526 300.981 L 576.611 300.772 L 577.690 300.536 L 578.762 300.274 L 579.829 299.985 L 580.887 299.670 L 581.938 299.330 L 582.980 298.963 L 584.012 298.572 L 585.035 298.155 L 586.047 297.713 L 587.048 297.246 L 588.037 296.755 L 589.014 296.240 L 589.978 295.701 L 590.929 295.138 L 591.865 294.552 L 592.787 293.944 L 593.693 293.313 L 594.584 292.660 L 595.458 291.985 L 596.316 291.290 L 597.156 290.573 L 597.979 289.836 L 598.783 289.079 L 599.568 288.302 L 600.334 287.506 L 601.080 286.692 L 601.806 285.860 L 602.512 285.010 L 603.196 284.143 L 603.859 283.260 L 604.500 282.360 L 605.119 281.445 L 605.715 280.516 L 606.288 279.571 L 606.837 278.614 L 607.363 277.642 L 607.865 276.659 L 608.343 275.663 L 608.796 274.656 L 609.225 273.638 L 609.628 272.609 L 610.006 271.572 L 610.358 270.525 L 610.684 269.470 L 610.985 268.407 L 611.259 267.337 L 611.507 266.261 L 611.729 265.179 L 611.924 264.092 L 612.092 263.000 L 612.233 261.905 L 612.347 260.806 L 612.435 259.705 L 612.495 258.603 L 612.528 257.499 L 612.534 256.394 L 612.513 255.290 L 612.465 254.187 L 612.390 253.085 L 612.288 251.985 L 612.159 250.888 L 612.003 249.795 L 611.820 248.706 L 611.611 247.621 L 611.375 246.542 L 611.112 245.470 L 610.824 244.403 L 610.509 243.345 L 610.168 242.294 L 608.992 238.812 L 608.900 238.543 L 607.708 235.086 L 607.613 234.815 L 606.405 231.381 L 606.308 231.108 L 605.083 227.700 L 604.983 227.425 L 603.743 224.042 L 603.640 223.765 L 602.384 220.407 L 602.278 220.128 L 601.007 216.796 L 600.898 216.514 L 599.611 213.209 L 599.499 212.925 L 598.197 209.646 L 598.082 209.359 L 596.764 206.107 L 596.646 205.818 L 595.313 202.593 L 595.191 202.302 L 593.844 199.105 L 593.719 198.811 L 592.356 195.641 L 592.227 195.345 L 590.850 192.203 L 590.718 191.905 L 589.326 188.791 L 589.190 188.490 L 587.783 185.405 L 587.643 185.102 L 586.223 182.046 L 586.079 181.739 L 584.644 178.713 L 584.496 178.404 L 583.047 175.407 L 582.895 175.095 L 581.432 172.128 L 581.275 171.813 L 579.798 168.876 L 579.637 168.559 L 578.147 165.652 L 577.981 165.332 L 576.477 162.455 L 576.307 162.133 L 574.790 159.287 L 574.615 158.962 L 573.084 156.148 L 572.904 155.819 L 571.360 153.036 L 571.175 152.705 L 569.618 149.954 L 569.427 149.620 L 567.858 146.901 L 567.662 146.563 L 566.080 143.877 L 565.878 143.536 L 564.283 140.882 L 564.075 140.539 L 562.469 137.917 L 562.255 137.572 L 560.636 134.983 L 560.415 134.634 L 558.785 132.079 L 558.558 131.727 L 556.915 129.205 L 556.682 128.850 L 555.028 126.362 L 554.787 126.004 L 553.121 123.550 L 552.874 123.189 L 551.197 120.769 L 550.942 120.406 L 549.254 118.020 L 548.992 117.654 L 547.292 115.303 L 547.023 114.934 L 545.312 112.618 L 545.035 112.245 L 543.314 109.965 L 543.028 109.590 L 541.296 107.344 L 541.002 106.967 L 539.260 104.757 L 538.957 104.377 L 537.205 102.202 L 536.893 101.820 L 535.131 99.681 L 534.810 99.296 L 533.037 97.194 L 532.707 96.807 L 530.925 94.741 L 530.585 94.351 L 528.794 92.322 L 528.444 91.930 L 526.643 89.938 L 526.283 89.544 L 524.473 87.588 L 524.102 87.192 L 522.283 85.274 L 521.901 84.877 L 520.073 82.996 L 519.681 82.597 L 517.844 80.753 L 517.441 80.353 L 515.595 78.547 L 515.180 78.146 L 513.327 76.378 L 512.899 75.975 L 511.038 74.245 L 510.598 73.842 L 508.729 72.151 L 508.277 71.747 L 506.400 70.094 L 505.935 69.690 L 504.050 68.075 L 503.573 67.672 L 501.681 66.096 L 501.190 65.693 L 499.291 64.156 L 498.787 63.754 L 496.880 62.255 L 496.362 61.855 L 494.449 60.395 L 493.917 59.996 L 491.997 58.576 L 491.452 58.179 L 489.525 56.798 L 488.965 56.403 L 487.032 55.062 L 486.458 54.670 L 484.518 53.368 L 483.930 52.980 L 481.984 51.718 L 481.381 51.333 L 479.430 50.111 L 478.812 49.731 L 476.855 48.549 L 476.222 48.173 L 474.260 47.031 L 473.612 46.661 L 471.644 45.559 L 470.981 45.195 L 469.009 44.134 L 468.331 43.776 L 466.354 42.755 L 465.661 42.405 L 463.679 41.425 L 462.971 41.082 L 460.985 40.142 L 460.263 39.808 L 458.272 38.909 L 457.535 38.584 L 455.540 37.725 L 454.789 37.410 L 452.791 36.593 L 452.026 36.288 L 450.023 35.511 L 449.244 35.217 L 447.238 34.482 L 446.446 34.199 L 444.437 33.505 L 443.632 33.235 L 441.619 32.582 L 440.801 32.325 L 438.786 31.712 L 437.956 31.469 L 435.938 30.898 L 435.097 30.669 L 433.076 30.139 L 432.224 29.925 L 430.201 29.437 L 429.339 29.237 L 427.313 28.791 L 426.442 28.607 L 424.414 28.202 L 423.534 28.035 L 421.505 27.671 L 420.616 27.521 L 418.585 27.199 L 417.690 27.066 L 415.657 26.785 L 414.755 26.670 L 412.722 26.430 L 411.814 26.333 L 409.780 26.135 L 408.868 26.056 L 406.832 25.900 L 405.917 25.840 L 403.881 25.725 L 402.962 25.683 L 400.926 25.611 L 400.006 25.587 L 397.969 25.556 L 397.049 25.552 L 395.012 25.563 L 394.091 25.577 L 392.055 25.629 L 391.136 25.662 L 389.100 25.757 L 388.182 25.808 L 386.147 25.944 L 385.233 26.014 L 383.198 26.192 L 382.288 26.281 L 380.254 26.500 L 379.349 26.606 L 377.317 26.867 L 376.418 26.992 L 374.386 27.294 L 373.494 27.436 L 371.464 27.780 L 370.580 27.938 L 368.551 28.324 L 367.675 28.499 L 365.649 28.926 L 364.782 29.118 L 362.758 29.586 L 361.901 29.793 L 359.879 30.303 L 359.032 30.525 L 357.013 31.076 L 356.178 31.312 L 354.161 31.905 L 353.337 32.155 L 351.323 32.789 L 350.512 33.052 L 348.501 33.727 L 347.703 34.003 L 345.695 34.719 L 344.910 35.008 L 342.905 35.765 L 342.134 36.064 L 340.133 36.862 L 339.375 37.172 L 337.378 38.011 L 336.635 38.331 L 334.642 39.211 L 333.913 39.541 L 331.924 40.461 L 331.210 40.799 L 329.225 41.760 L 328.526 42.107 L 326.546 43.108 L 325.861 43.462 L 323.886 44.504 L 323.216 44.865 L 321.246 45.948 L 320.591 46.315 L 318.626 47.438 L 317.986 47.810 L 316.026 48.973 L 315.401 49.351 L 313.447 50.554 L 312.837 50.937 L 310.888 52.179 L 310.293 52.566 L 308.350 53.849 L 307.769 54.239 L 305.833 55.561 L 305.267 55.954 L 303.336 57.316 L 302.784 57.712 L 300.861 59.113 L 300.323 59.512 L 298.406 60.952 L 297.882 61.352 L 295.971 62.832 L 295.461 63.233 L 293.558 64.752 L 293.061 65.154 L 291.165 66.712 L 290.681 67.115 L 288.793 68.711 L 288.322 69.115 L 286.441 70.750 L 285.983 71.153 L 284.110 72.826 L 283.665 73.229 L 281.799 74.941 L 281.366 75.344 L 279.509 77.093 L 279.088 77.495 L 277.239 79.283 L 276.829 79.684 L 274.989 81.509 L 274.591 81.909 L 272.759 83.772 L 272.372 84.170 L 270.548 86.070 L 270.173 86.467 L 268.358 88.404 L 267.993 88.799 L 266.188 90.774 L 265.833 91.166 L 264.037 93.178 L 263.692 93.569 L 261.905 95.617 L 261.570 96.005 L 259.793 98.090 L 259.468 98.476 L 257.701 100.597 L 257.385 100.981 L 255.628 103.138 L 255.320 103.519 L 253.573 105.712 L 253.275 106.091 L 251.538 108.319 L 251.248 108.695 L 249.522 110.959 L 249.241 111.333 L 247.525 113.632 L 247.252 114.002 L 245.547 116.337 L 245.281 116.704 L 243.587 119.073 L 243.329 119.438 L 241.647 121.842 L 241.396 122.204 L 239.724 124.641 L 239.481 125.000 L 237.821 127.472 L 237.584 127.829 L 235.936 130.334 L 235.706 130.687 L 234.069 133.227 L 233.846 133.577 L 232.221 136.150 L 232.004 136.497 L 230.392 139.103 L 230.181 139.447 L 228.581 142.086 L 228.376 142.427 L 226.788 145.098 L 226.589 145.437 L 225.013 148.141 L 224.820 148.476 L 223.257 151.212 L 223.069 151.545 L 221.519 154.312 L 221.336 154.642 L 219.800 157.441 L 219.622 157.768 L 218.098 160.598 L 217.925 160.922 L 216.415 163.784 L 216.247 164.105 L 214.750 166.997 L 214.587 167.316 L 213.104 170.239 L 212.945 170.554 L 211.475 173.507 L 211.321 173.820 L 209.865 176.803 L 209.715 177.113 L 208.273 180.126 L 208.128 180.433 L 206.700 183.475 L 206.558 183.780 L 205.145 186.851 L 205.007 187.153 L 203.608 190.253 L 203.474 190.553 L 202.090 193.681 L 201.959 193.978 L 200.589 197.135 L 200.463 197.429 L 199.108 200.614 L 198.985 200.906 L 197.644 204.118 L 197.525 204.408 L 196.200 207.647 L 196.083 207.934 L 194.773 211.200 L 194.660 211.486 L 193.365 214.778 L 193.255 215.061 L 191.976 218.380 L 191.869 218.661 L 190.605 222.006 L 190.501 222.284 L 189.253 225.655 L 189.152 225.931 L 187.920 229.327 L 187.821 229.601 L 186.605 233.023 L 186.509 233.294 L 185.309 236.740 L 185.216 237.010 L 184.032 240.481 L 183.941 240.749 L 182.774 244.243 L 182.686 244.509 L 181.534 248.027 L 181.449 248.291 L 180.314 251.832 L 180.230 252.095 L 179.112 255.659 L 179.031 255.919 L 177.929 259.507 L 177.851 259.765 L 176.766 263.375 L 176.690 263.631 L 175.621 267.263 L 175.547 267.518 L 174.496 271.171 L 174.424 271.424 L 173.390 275.099 L 173.320 275.351 L 172.303 279.046 L 172.235 279.296 L 171.236 283.013 L 171.170 283.261 L 170.188 286.997 L 170.124 287.244 L 169.159 291.001 L 169.097 291.246 L 168.150 295.022 L 168.089 295.266 L 167.160 299.061 L 167.101 299.303 L 166.189 303.118 L 166.132 303.358 L 165.239 307.191 L 165.183 307.431 L 164.308 311.281 L 164.254 311.519 L 163.396 315.388 L 163.344 315.625 L 162.504 319.511 L 162.454 319.746 L 161.632 323.649 L 161.584 323.883 L 160.780 327.803 L 160.733 328.036 L 159.948 331.972 L 159.903 332.204 L 159.136 336.155 L 159.092 336.386 L 158.343 340.353 L 158.301 340.583 L 157.571 344.565 L 157.530 344.794 L 156.819 348.791 L 156.779 349.019 L 156.086 353.030 L 156.048 353.257 L 155.374 357.282 L 155.337 357.508 L 154.682 361.547 L 154.646 361.771 L 154.010 365.823 L 153.976 366.047 L 153.359 370.112 L 153.326 370.335 L 152.728 374.413 L 152.696 374.635 L 152.117 378.724 L 152.086 378.945 L 151.526 383.046 L 151.496 383.267 L 150.956 387.379 L 150.927 387.599 L 150.406 391.722 L 150.379 391.941 L 149.877 396.075 L 149.851 396.293 L 149.368 400.437 L 149.343 400.655 L 148.879 404.808 L 148.856 405.025 L 148.411 409.188 L 148.389 409.404 L 147.964 413.576 L 147.943 413.792 L 147.537 417.972 L 147.517 418.187 L 147.131 422.375 L 147.112 422.590 L 146.746 426.786 L 146.728 427.000 L 146.381 431.203 L 146.364 431.417 L 146.037 435.627 L 146.021 435.841 L 145.714 440.057 L 145.699 440.270 L 145.411 444.493 L 145.397 444.705 L 145.129 448.934 L 145.116 449.146 L 144.868 453.379 L 144.856 453.591 L 144.628 457.830 L 144.617 458.041 L 144.409 462.284 L 144.399 462.496 L 144.210 466.743 L 144.201 466.954 L 144.032 471.204 L 144.024 471.415 L 143.875 475.669 L 143.868 475.880 L 143.739 480.136 L 143.733 480.347 L 143.624 484.606 L 143.619 484.816 L 143.529 489.078 L 143.525 489.288 L 143.456 493.551 L 143.453 493.761 L 143.403 498.025 L 143.401 498.235 L 143.371 502.500 L 143.370 502.710 L 143.360 506.975 L 143.362 507.197 L 143.362 507.538 L 143.416 512.768 L 143.434 513.683 L 143.594 518.910 L 143.631 519.826 L 143.897 525.047 L 143.953 525.962 L 144.325 531.173 L 144.399 532.088 L 144.877 537.287 L 144.971 538.202 L 145.554 543.385 L 145.667 544.300 L 146.355 549.464 L 146.487 550.378 L 147.281 555.521 L 147.431 556.435 L 148.329 561.552 L 148.499 562.466 L 149.501 567.555 L 149.690 568.468 L 150.795 573.526 L 151.005 574.438 L 152.212 579.462 L 152.441 580.374 L 153.751 585.360 L 154.000 586.271 L 155.410 591.217 L 155.680 592.127 L 157.191 597.030 L 157.481 597.939 L 159.091 602.796 L 159.403 603.703 L 161.111 608.510 L 161.444 609.416 L 163.249 614.172 L 163.603 615.076 L 165.505 619.776 L 165.881 620.678 L 167.878 625.321 L 168.276 626.221 L 170.367 630.803 L 170.788 631.700 L 172.971 636.219 L 173.415 637.113 L 175.689 641.566 L 176.156 642.456 L 178.520 646.841 L 179.011 647.727 L 181.464 652.040 L 181.979 652.922 L 184.519 657.162 L 185.058 658.039 L 187.683 662.202 L 188.247 663.073 L 190.956 667.157 L 191.545 668.023 L 194.336 672.026 L 194.951 672.885 L 197.822 676.803 L 198.463 677.656 L 201.413 681.488 L 202.079 682.332 L 205.107 686.076 L 205.800 686.911 L 208.903 690.564 L 209.622 691.390 L 212.798 694.950 L 213.544 695.766 L 216.792 699.231 L 217.565 700.035 L 220.882 703.403 L 221.682 704.195 L 225.067 707.464 L 225.894 708.243 L 229.344 711.410 L 230.199 712.175 L 233.713 715.239 L 234.595 715.988 L 238.170 718.947 L 239.079 719.681 L 242.713 722.533 L 243.650 723.249 L 247.341 725.993 L 248.305 726.689 L 252.050 729.323 L 253.041 730.000 L 256.839 732.522 L 257.855 733.178 L 261.704 735.587 L 262.747 736.220 L 266.643 738.515 L 267.711 739.124 L 271.652 741.302 L 272.746 741.887 L 276.730 743.948 L 277.848 744.506 L 281.873 746.448 L 283.014 746.979 L 287.077 748.802 L 288.241 749.304 L 292.340 751.005 L 293.525 751.478 L 297.658 753.057 L 298.863 753.498 L 303.026 754.955 L 304.251 755.364 L 308.443 756.697 L 309.685 757.072 L 313.903 758.281 L 315.161 758.622 L 319.403 759.705 L 320.676 760.011 L 324.938 760.968 L 326.226 761.238 L 330.506 762.069 L 331.805 762.301 L 336.100 763.005 L 337.410 763.200 L 341.718 763.776 L 343.036 763.933 L 347.355 764.382 L 348.679 764.499 L 353.006 764.820 L 354.335 764.899 L 358.667 765.091 L 359.999 765.131 L 364.334 765.195 L 365.666 765.195 L 370.001 765.131 L 371.333 765.091 L 375.665 764.899 L 376.994 764.820 L 381.321 764.499 L 382.645 764.382 L 386.964 763.933 L 388.282 763.776 L 392.590 763.200 L 393.900 763.005 L 398.195 762.301 L 399.494 762.069 L 403.774 761.238 L 405.062 760.968 L 409.324 760.011 L 410.597 759.705 L 414.839 758.622 L 416.097 758.281 L 420.315 757.072 L 421.557 756.697 L 425.749 755.364 L 426.974 754.955 L 431.137 753.498 L 432.342 753.057 L 436.475 751.478 L 437.660 751.005 L 441.759 749.304 L 442.923 748.802 L 446.986 746.979 L 448.127 746.448 L 452.152 744.506 L 453.270 743.948 L 457.254 741.887 L 458.348 741.302 L 462.289 739.124 L 463.357 738.515 L 467.253 736.220 L 468.296 735.587 L 472.145 733.178 L 473.161 732.522 L 476.959 730.000 L 477.950 729.323 L 481.695 726.689 L 482.659 725.993 L 486.350 723.249 L 487.287 722.533 L 490.921 719.681 L 491.830 718.947 L 495.405 715.988 L 496.287 715.239 L 499.801 712.175 L 500.656 711.410 L 504.106 708.243 L 504.933 707.464 L 508.318 704.195 L 509.118 703.403 L 512.435 700.035 L 513.208 699.231 L 516.456 695.766 L 517.202 694.950 L 520.378 691.390 L 521.097 690.564 L 524.200 686.911 L 524.893 686.076 L 527.921 682.332 L 528.587 681.488 L 531.537 677.656 L 532.178 676.803 L 535.049 672.885 L 535.664 672.026 L 538.455 668.023 L 539.044 667.157 L 541.753 663.073 L 542.317 662.202 L 544.942 658.039 L 545.481 657.162 L 548.021 652.922 L 548.536 652.040 L 550.989 647.727 L 551.480 646.841 L 553.844 642.456 L 554.311 641.566 L 556.585 637.113 L 557.029 636.219 L 559.212 631.700 L 559.633 630.803 L 561.724 626.221 L 562.122 625.321 L 564.119 620.678 L 564.495 619.776 L 566.397 615.076 L 566.751 614.172 L 568.556 609.416 L 568.889 608.510 L 570.597 603.703 L 570.909 602.796 L 572.519 597.939 L 572.809 597.030 L 574.320 592.127 L 574.590 591.217 L 576.000 586.271 L 576.249 585.360 L 577.559 580.374 L 577.788 579.462 L 578.995 574.438 L 579.205 573.526 L 580.310 568.468 L 580.499 567.555 L 581.501 562.466 L 581.671 561.552 L 582.569 556.435 L 582.719 555.521 L 583.513 550.378 L 583.645 549.464 L 584.333 544.300 L 584.446 543.385 L 585.029 538.202 L 585.123 537.287 L 585.601 532.088 L 585.675 531.173 L 586.047 525.962 L 586.103 525.047 L 586.369 519.826 L 586.406 518.910 L 586.566 513.683 L 586.584 512.768 L 586.638 507.538 L 586.638 506.622 L 586.584 501.392 L 586.566 500.477 L 586.406 495.250 L 586.369 494.334 L 586.103 489.113 L 586.047 488.198 L 585.675 482.987 L 585.601 482.072 L 585.123 476.873 L 585.029 475.958 L 584.446 470.775 L 584.333 469.860 L 583.645 464.696 L 583.513 463.782 L 582.719 458.639 L 582.569 457.725 L 581.671 452.608 L 581.501 451.694 L 580.499 446.605 L 580.310 445.692 L 579.205 440.634 L 578.995 439.722 L 577.788 434.698 L 577.559 433.786 L 576.249 428.800 L 576.000 427.889 L 574.590 422.943 L 574.320 422.033 L 572.809 417.130 L 572.519 416.221 L 570.909 411.364 L 570.597 410.457 L 568.889 405.650 L 568.556 404.744 L 566.751 399.988 L 566.397 399.084 L 564.495 394.384 L 564.119 393.482 L 562.122 388.839 L 561.724 387.939 L 559.633 383.357 L 559.212 382.460 L 557.029 377.941 L 556.585 377.047 L 554.311 372.594 L 553.844 371.704 L 551.480 367.319 L 550.989 366.433 L 548.536 362.120 L 548.021 361.238 L 545.481 356.998 L 544.942 356.121 L 542.317 351.958 L 541.753 351.087 L 539.044 347.003 L 538.455 346.137 L 535.664 342.134 L 535.049 341.275 L 532.178 337.357 L 531.537 336.504 L 528.587 332.672 L 527.921 331.828 L 524.893 328.084 L 524.200 327.249 L 521.097 323.596 L 520.378 322.770 L 517.202 319.210 L 516.456 318.394 L 513.208 314.929 L 512.435 314.125 L 509.118 310.757 L 508.318 309.965 L 504.933 306.696 L 504.106 305.917 L 500.656 302.750 L 499.801 301.985 L 496.287 298.921 L 495.405 298.172 L 491.830 295.213 L 490.921 294.479 L 487.287 291.627 L 486.350 290.911 L 482.659 288.167 L 481.695 287.471 L 477.950 284.837 L 476.959 284.160 L 473.161 281.638 L 472.145 280.982 L 468.296 278.573 L 467.253 277.940 L 463.357 275.645 L 462.289 275.036 L 458.348 272.858 L 457.254 272.273 L 453.270 270.212 L 452.152 269.654 L 448.127 267.712 L 446.986 267.181 L 442.923 265.358 L 441.759 264.856 L 437.660 263.155 L 436.475 262.682 L 432.342 261.103 L 431.137 260.662 L 426.974 259.205 L 425.749 258.796 L 421.557 257.463 L 420.315 257.088 L 416.097 255.879 L 414.839 255.538 L 410.597 254.455 L 409.324 254.149 L 405.062 253.192 L 403.774 252.922 L 399.494 252.091 L 398.195 251.859 L 393.900 251.155 L 392.590 250.960 L 388.282 250.384 L 386.964 250.227 L 382.645 249.778 L 381.321 249.661 L 376.994 249.340 L 375.665 249.261 L 371.333 249.069 L 370.001 249.029 L 365.666 248.965 L 364.334 248.965 L 359.999 249.029 L 358.667 249.069 L 354.335 249.261 L 353.006 249.340 L 348.679 249.661 L 347.355 249.778 L 343.036 250.227 L 341.718 250.384 L 337.410 250.960 L 336.100 251.155 L 331.805 251.859 L 330.506 252.091 L 326.226 252.922 L 324.938 253.192 L 320.676 254.149 L 319.403 254.455 L 315.161 255.538 L 313.903 255.879 L 309.685 257.088 L 308.443 257.463 L 304.251 258.796 L 303.026 259.205 L 298.863 260.662 L 297.658 261.103 L 293.525 262.682 L 292.340 263.155 L 288.241 264.856 L 287.077 265.358 L 283.014 267.181 L 281.873 267.712 L 277.848 269.654 L 276.730 270.212 L 272.746 272.273 L 271.652 272.858 L 267.711 275.036 L 267.319 275.260 L 268.177 272.638 Z M 496.594 511.395 L 496.462 515.706 L 496.243 520.012 L 495.936 524.308 L 495.543 528.591 L 495.062 532.859 L 494.495 537.109 L 493.843 541.337 L 493.105 545.540 L 492.284 549.716 L 491.378 553.861 L 490.390 557.972 L 489.320 562.047 L 488.169 566.082 L 486.939 570.076 L 485.630 574.024 L 484.244 577.925 L 482.783 581.775 L 481.246 585.573 L 479.637 589.315 L 477.957 592.999 L 476.206 596.623 L 474.388 600.184 L 472.502 603.680 L 470.553 607.108 L 468.540 610.468 L 466.467 613.756 L 464.334 616.970 L 462.145 620.110 L 459.901 623.172 L 457.603 626.156 L 455.255 629.059 L 452.858 631.881 L 450.414 634.620 L 447.926 637.275 L 445.395 639.844 L 442.825 642.326 L 440.216 644.721 L 437.571 647.028 L 434.892 649.246 L 432.181 651.373 L 429.440 653.411 L 426.672 655.358 L 423.878 657.213 L 421.060 658.977 L 418.219 660.650 L 415.359 662.231 L 412.479 663.720 L 409.583 665.117 L 406.672 666.423 L 403.747 667.637 L 400.809 668.760 L 397.860 669.792 L 394.901 670.733 L 391.934 671.583 L 388.959 672.343 L 385.977 673.012 L 382.990 673.592 L 379.999 674.082 L 377.003 674.483 L 374.005 674.795 L 371.005 675.017 L 368.003 675.151 L 365.000 675.195 L 361.997 675.151 L 358.995 675.017 L 355.995 674.795 L 352.997 674.483 L 350.001 674.082 L 347.010 673.592 L 344.023 673.012 L 341.041 672.343 L 338.066 671.583 L 335.099 670.733 L 332.140 669.792 L 329.191 668.760 L 326.253 667.637 L 323.328 666.423 L 320.417 665.117 L 317.521 663.720 L 314.641 662.231 L 311.781 660.650 L 308.940 658.977 L 306.122 657.213 L 303.328 655.358 L 300.560 653.411 L 297.819 651.373 L 295.108 649.246 L 292.429 647.028 L 289.784 644.721 L 287.175 642.326 L 284.605 639.844 L 282.074 637.275 L 279.586 634.620 L 277.142 631.881 L 274.745 629.059 L 272.397 626.156 L 270.099 623.172 L 267.855 620.110 L 265.666 616.970 L 263.533 613.756 L 261.460 610.468 L 259.447 607.108 L 257.498 603.680 L 255.612 600.184 L 253.794 596.623 L 252.043 592.999 L 250.363 589.315 L 248.754 585.573 L 247.217 581.775 L 245.756 577.925 L 244.370 574.024 L 243.061 570.076 L 241.831 566.082 L 240.680 562.047 L 239.610 557.972 L 238.622 553.861 L 237.716 549.716 L 236.895 545.540 L 236.157 541.337 L 235.505 537.109 L 234.938 532.859 L 234.457 528.591 L 234.064 524.308 L 233.757 520.012 L 233.538 515.706 L 233.406 511.395 L 233.362 507.080 L 233.406 502.765 L 233.538 498.454 L 233.757 494.148 L 234.064 489.852 L 234.457 485.569 L 234.938 481.301 L 235.505 477.051 L 236.157 472.823 L 236.895 468.620 L 237.716 464.444 L 238.622 460.299 L 239.610 456.188 L 240.680 452.113 L 241.831 448.078 L 243.061 444.084 L 244.370 440.136 L 245.756 436.235 L 247.217 432.385 L 248.754 428.587 L 250.363 424.845 L 252.043 421.161 L 253.794 417.537 L 255.612 413.976 L 257.498 410.480 L 259.447 407.052 L 261.460 403.692 L 263.533 400.404 L 265.666 397.190 L 267.855 394.050 L 270.099 390.988 L 272.397 388.004 L 274.745 385.101 L 277.142 382.279 L 279.586 379.540 L 282.074 376.885 L 284.605 374.316 L 287.175 371.834 L 289.784 369.439 L 292.429 367.132 L 295.108 364.914 L 297.819 362.787 L 300.560 360.749 L 303.328 358.802 L 306.122 356.947 L 308.940 355.183 L 311.781 353.510 L 314.641 351.929 L 317.521 350.440 L 320.417 349.043 L 323.328 347.737 L 326.253 346.523 L 329.191 345.400 L 332.140 344.368 L 335.099 343.427 L 338.066 342.577 L 341.041 341.817 L 344.023 341.148 L 347.010 340.568 L 350.001 340.078 L 352.997 339.677 L 355.995 339.365 L 358.995 339.143 L 361.997 339.009 L 365.000 338.965 L 368.003 339.009 L 371.005 339.143 L 374.005 339.365 L 377.003 339.677 L 379.999 340.078 L 382.990 340.568 L 385.977 341.148 L 388.959 341.817 L 391.934 342.577 L 394.901 343.427 L 397.860 344.368 L 400.809 345.400 L 403.747 346.523 L 406.672 347.737 L 409.583 349.043 L 412.479 350.440 L 415.359 351.929 L 418.219 353.510 L 421.060 355.183 L 423.878 356.947 L 426.672 358.802 L 429.440 360.749 L 432.181 362.787 L 434.892 364.914 L 437.571 367.132 L 440.216 369.439 L 442.825 371.834 L 445.395 374.316 L 447.926 376.885 L 450.414 379.540 L 452.858 382.279 L 455.255 385.101 L 457.603 388.004 L 459.901 390.988 L 462.145 394.050 L 464.334 397.190 L 466.467 400.404 L 468.540 403.692 L 470.553 407.052 L 472.502 410.480 L 474.388 413.976 L 476.206 417.537 L 477.957 421.161 L 479.637 424.845 L 481.246 428.587 L 482.783 432.385 L 484.244 436.235 L 485.630 440.136 L 486.939 444.084 L 488.169 448.078 L 489.320 452.113 L 490.390 456.188 L 491.378 460.299 L 492.284 464.444 L 493.105 468.620 L 493.843 472.823 L 494.495 477.051 L 495.062 481.301 L 495.543 485.569 L 495.936 489.852 L 496.243 494.148 L 496.462 498.454 L 496.594 502.765 L 496.638 507.080 L 496.594 511.395 Z" fill="black" fill-rule="evenodd"/>
</svg>
