<svg xmlns="http://www.w3.org/2000/svg" viewBox="0 0 900.000 1000">
  <path d="M 105.001 614.529 L 105.025 617.771 L 105.035 618.436 L 105.106 621.649 L 105.126 622.323 L 105.244 625.508 L 105.274 626.190 L 105.439 629.345 L 105.481 630.036 L 105.692 633.163 L 105.745 633.861 L 106.003 636.958 L 106.068 637.665 L 106.372 640.733 L 106.449 641.447 L 106.800 644.485 L 106.889 645.207 L 107.286 648.216 L 107.388 648.945 L 107.830 651.923 L 107.946 652.659 L 108.433 655.608 L 108.563 656.350 L 109.096 659.268 L 109.239 660.017 L 109.818 662.904 L 109.975 663.659 L 110.599 666.516 L 110.771 667.276 L 111.439 670.102 L 111.627 670.867 L 112.340 673.662 L 112.544 674.432 L 113.300 677.195 L 113.520 677.969 L 114.321 680.701 L 114.557 681.479 L 115.402 684.179 L 115.654 684.960 L 116.542 687.628 L 116.811 688.412 L 117.744 691.048 L 118.029 691.833 L 119.005 694.437 L 119.308 695.223 L 120.327 697.795 L 120.647 698.582 L 121.709 701.121 L 122.047 701.908 L 123.151 704.414 L 123.507 705.200 L 124.654 707.674 L 125.027 708.458 L 126.217 710.898 L 126.607 711.680 L 127.839 714.087 L 128.247 714.866 L 129.521 717.240 L 129.947 718.015 L 131.263 720.355 L 131.706 721.126 L 133.063 723.431 L 133.524 724.197 L 134.922 726.469 L 135.400 727.228 L 136.840 729.465 L 137.335 730.218 L 138.816 732.421 L 139.327 733.166 L 140.849 735.334 L 141.377 736.071 L 142.939 738.204 L 143.483 738.932 L 145.086 741.030 L 145.645 741.748 L 147.288 743.811 L 147.862 744.518 L 149.545 746.546 L 150.134 747.242 L 151.857 749.234 L 152.460 749.918 L 154.223 751.875 L 154.840 752.546 L 156.641 754.466 L 157.271 755.125 L 159.112 757.009 L 159.754 757.653 L 161.634 759.502 L 162.288 760.132 L 164.207 761.944 L 164.872 762.559 L 166.830 764.334 L 167.505 764.934 L 169.501 766.673 L 170.186 767.257 L 172.220 768.959 L 172.914 769.527 L 174.986 771.191 L 175.688 771.743 L 177.798 773.370 L 178.508 773.906 L 180.655 775.495 L 181.371 776.014 L 183.557 777.565 L 184.279 778.067 L 186.501 779.580 L 187.228 780.065 L 189.488 781.540 L 190.220 782.008 L 192.516 783.444 L 193.251 783.895 L 195.585 785.293 L 196.323 785.726 L 198.693 787.085 L 199.433 787.501 L 201.839 788.822 L 202.582 789.220 L 205.024 790.502 L 205.767 790.883 L 208.245 792.125 L 208.989 792.489 L 211.502 793.692 L 212.245 794.040 L 214.795 795.203 L 215.537 795.533 L 218.121 796.656 L 218.862 796.971 L 221.482 798.054 L 222.221 798.352 L 224.875 799.395 L 225.612 799.677 L 228.301 800.679 L 229.034 800.946 L 231.758 801.908 L 232.488 802.158 L 235.246 803.080 L 235.971 803.315 L 238.764 804.196 L 239.485 804.417 L 242.311 805.256 L 243.028 805.462 L 245.888 806.260 L 246.599 806.452 L 249.493 807.209 L 250.199 807.387 L 253.125 808.102 L 253.826 808.267 L 256.786 808.940 L 257.480 809.092 L 260.473 809.723 L 261.161 809.862 L 264.186 810.451 L 264.868 810.578 L 267.926 811.124 L 268.601 811.239 L 271.691 811.743 L 272.359 811.846 L 275.482 812.307 L 276.143 812.399 L 279.297 812.817 L 279.951 812.899 L 283.137 813.273 L 283.784 813.344 L 287.002 813.676 L 287.641 813.737 L 290.890 814.024 L 291.521 814.076 L 294.802 814.319 L 295.426 814.362 L 298.737 814.561 L 299.353 814.594 L 302.695 814.750 L 303.304 814.774 L 306.676 814.886 L 307.277 814.902 L 310.680 814.969 L 311.273 814.977 L 314.707 814.999 L 315.000 815.000 L 450.000 815.000 L 750.000 815.000 L 751.104 814.986 L 752.208 814.946 L 753.310 814.878 L 754.411 814.783 L 755.508 814.662 L 756.603 814.513 L 757.693 814.337 L 758.779 814.135 L 759.860 813.907 L 760.934 813.651 L 762.002 813.370 L 763.063 813.062 L 764.116 812.729 L 765.160 812.369 L 766.195 811.985 L 767.221 811.575 L 768.236 811.139 L 769.240 810.680 L 770.233 810.195 L 771.213 809.686 L 772.180 809.154 L 773.135 808.598 L 774.075 808.018 L 775.001 807.416 L 775.911 806.791 L 776.806 806.144 L 777.685 805.476 L 778.548 804.785 L 779.393 804.074 L 780.220 803.343 L 781.029 802.591 L 781.820 801.820 L 782.591 801.029 L 783.343 800.220 L 784.074 799.393 L 784.785 798.548 L 785.476 797.685 L 786.144 796.806 L 786.791 795.911 L 787.416 795.001 L 788.018 794.075 L 788.598 793.135 L 789.154 792.180 L 789.686 791.213 L 790.195 790.233 L 790.680 789.240 L 791.139 788.236 L 791.575 787.221 L 791.985 786.195 L 792.369 785.160 L 792.729 784.116 L 793.062 783.063 L 793.370 782.002 L 793.651 780.934 L 793.907 779.860 L 794.135 778.779 L 794.337 777.693 L 794.513 776.603 L 794.662 775.508 L 794.783 774.411 L 794.878 773.310 L 794.946 772.208 L 794.986 771.104 L 795.000 770.000 L 795.000 360.000 L 794.986 358.896 L 794.946 357.792 L 794.878 356.690 L 794.783 355.589 L 794.662 354.492 L 794.513 353.397 L 794.337 352.307 L 794.135 351.221 L 793.907 350.140 L 793.651 349.066 L 793.370 347.998 L 793.062 346.937 L 792.729 345.884 L 792.369 344.840 L 791.985 343.805 L 791.575 342.779 L 791.139 341.764 L 790.680 340.760 L 790.195 339.767 L 789.686 338.787 L 789.154 337.820 L 788.598 336.865 L 788.018 335.925 L 787.416 334.999 L 786.791 334.089 L 786.144 333.194 L 785.476 332.315 L 784.785 331.452 L 784.074 330.607 L 783.343 329.780 L 782.591 328.971 L 781.820 328.180 L 781.029 327.409 L 780.220 326.657 L 779.393 325.926 L 778.548 325.215 L 777.685 324.524 L 776.806 323.856 L 775.911 323.209 L 775.001 322.584 L 774.075 321.982 L 773.135 321.402 L 772.180 320.846 L 771.213 320.314 L 770.233 319.805 L 769.240 319.320 L 768.236 318.861 L 767.221 318.425 L 766.195 318.015 L 765.160 317.631 L 764.116 317.271 L 763.063 316.938 L 762.002 316.630 L 760.934 316.349 L 759.860 316.093 L 758.779 315.865 L 757.693 315.663 L 756.603 315.487 L 755.508 315.338 L 754.411 315.217 L 753.310 315.122 L 752.208 315.054 L 751.104 315.014 L 750.000 315.000 L 748.896 315.014 L 747.792 315.054 L 746.690 315.122 L 745.589 315.217 L 744.492 315.338 L 743.397 315.487 L 742.307 315.663 L 741.221 315.865 L 740.140 316.093 L 739.066 316.349 L 737.998 316.630 L 736.937 316.938 L 735.884 317.271 L 734.840 317.631 L 733.805 318.015 L 732.779 318.425 L 731.764 318.861 L 730.760 319.320 L 729.767 319.805 L 728.787 320.314 L 727.820 320.846 L 726.865 321.402 L 725.925 321.982 L 724.999 322.584 L 724.089 323.209 L 723.194 323.856 L 722.315 324.524 L 721.452 325.215 L 720.607 325.926 L 719.780 326.657 L 718.971 327.409 L 718.180 328.180 L 717.409 328.971 L 716.657 329.780 L 715.926 330.607 L 715.215 331.452 L 714.524 332.315 L 713.856 333.194 L 713.209 334.089 L 712.584 334.999 L 711.982 335.925 L 711.402 336.865 L 710.846 337.820 L 710.314 338.787 L 709.805 339.767 L 709.320 340.760 L 708.861 341.764 L 708.425 342.779 L 708.015 343.805 L 707.631 344.840 L 707.271 345.884 L 706.938 346.937 L 706.630 347.998 L 706.349 349.066 L 706.093 350.140 L 705.865 351.221 L 705.663 352.307 L 705.487 353.397 L 705.338 354.492 L 705.217 355.589 L 705.122 356.690 L 705.054 357.792 L 705.014 358.896 L 705.000 360.000 L 705.000 725.000 L 495.000 725.000 L 495.000 360.000 L 494.986 358.896 L 494.946 357.792 L 494.878 356.690 L 494.783 355.589 L 494.662 354.492 L 494.513 353.397 L 494.337 352.307 L 494.135 351.221 L 493.907 350.140 L 493.651 349.066 L 493.370 347.998 L 493.062 346.937 L 492.729 345.884 L 492.369 344.840 L 491.985 343.805 L 491.575 342.779 L 491.139 341.764 L 490.680 340.760 L 490.195 339.767 L 489.686 338.787 L 489.154 337.820 L 488.598 336.865 L 488.018 335.925 L 487.416 334.999 L 486.791 334.089 L 486.144 333.194 L 485.476 332.315 L 484.785 331.452 L 484.074 330.607 L 483.343 329.780 L 482.591 328.971 L 481.820 328.180 L 481.029 327.409 L 480.220 326.657 L 479.393 325.926 L 478.548 325.215 L 477.685 324.524 L 476.806 323.856 L 475.911 323.209 L 475.001 322.584 L 474.075 321.982 L 473.135 321.402 L 472.180 320.846 L 471.213 320.314 L 470.233 319.805 L 469.240 319.320 L 468.236 318.861 L 467.221 318.425 L 466.195 318.015 L 465.160 317.631 L 464.116 317.271 L 463.063 316.938 L 462.002 316.630 L 460.934 316.349 L 459.860 316.093 L 458.779 315.865 L 457.693 315.663 L 456.603 315.487 L 455.508 315.338 L 454.411 315.217 L 453.310 315.122 L 452.208 315.054 L 451.104 315.014 L 450.000 315.000 L 448.896 315.014 L 447.792 315.054 L 446.690 315.122 L 445.589 315.217 L 444.492 315.338 L 443.397 315.487 L 442.307 315.663 L 441.221 315.865 L 440.140 316.093 L 439.066 316.349 L 437.998 316.630 L 436.937 316.938 L 435.884 317.271 L 434.840 317.631 L 433.805 318.015 L 432.779 318.425 L 431.764 318.861 L 430.760 319.320 L 429.767 319.805 L 428.787 320.314 L 427.820 320.846 L 426.865 321.402 L 425.925 321.982 L 424.999 322.584 L 424.089 323.209 L 423.194 323.856 L 422.315 324.524 L 421.452 325.215 L 420.607 325.926 L 419.780 326.657 L 418.971 327.409 L 418.180 328.180 L 417.409 328.971 L 416.657 329.780 L 415.926 330.607 L 415.215 331.452 L 414.524 332.315 L 413.856 333.194 L 413.209 334.089 L 412.584 334.999 L 411.982 335.925 L 411.402 336.865 L 410.846 337.820 L 410.314 338.787 L 409.805 339.767 L 409.320 340.760 L 408.861 341.764 L 408.425 342.779 L 408.015 343.805 L 407.631 344.840 L 407.271 345.884 L 406.938 346.937 L 406.630 347.998 L 406.349 349.066 L 406.093 350.140 L 405.865 351.221 L 405.663 352.307 L 405.487 353.397 L 405.338 354.492 L 405.217 355.589 L 405.122 356.690 L 405.054 357.792 L 405.014 358.896 L 405.000 360.000 L 405.000 725.000 L 315.147 725.000 L 312.157 724.980 L 309.351 724.925 L 306.582 724.834 L 303.853 724.706 L 301.161 724.544 L 298.509 724.347 L 295.895 724.115 L 293.320 723.850 L 290.784 723.552 L 288.287 723.222 L 285.829 722.859 L 283.410 722.465 L 281.030 722.040 L 278.690 721.585 L 276.389 721.100 L 274.126 720.586 L 271.903 720.043 L 269.719 719.472 L 267.574 718.873 L 265.467 718.248 L 263.399 717.595 L 261.369 716.917 L 259.377 716.214 L 257.422 715.485 L 255.506 714.732 L 253.626 713.955 L 251.784 713.154 L 249.978 712.330 L 248.208 711.483 L 246.474 710.614 L 244.775 709.722 L 243.110 708.809 L 241.480 707.874 L 239.884 706.917 L 238.322 705.939 L 236.792 704.941 L 235.294 703.921 L 233.828 702.880 L 232.393 701.819 L 230.989 700.736 L 229.615 699.633 L 228.270 698.508 L 226.954 697.362 L 225.667 696.195 L 224.408 695.006 L 223.176 693.795 L 221.971 692.561 L 220.793 691.305 L 219.641 690.026 L 218.515 688.724 L 217.414 687.397 L 216.338 686.046 L 215.287 684.670 L 214.261 683.268 L 213.259 681.841 L 212.282 680.386 L 211.329 678.905 L 210.400 677.396 L 209.495 675.858 L 208.614 674.292 L 207.757 672.696 L 206.925 671.069 L 206.117 669.412 L 205.334 667.724 L 204.576 666.004 L 203.844 664.252 L 203.136 662.467 L 202.455 660.648 L 201.800 658.796 L 201.172 656.910 L 200.571 654.989 L 199.997 653.033 L 199.452 651.041 L 198.935 649.014 L 198.447 646.951 L 197.989 644.852 L 197.562 642.716 L 197.165 640.544 L 196.799 638.335 L 196.466 636.089 L 196.165 633.806 L 195.897 631.485 L 195.663 629.128 L 195.463 626.733 L 195.298 624.300 L 195.169 621.831 L 195.076 619.324 L 195.020 616.780 L 195.000 614.035 L 195.000 360.000 L 194.986 358.896 L 194.946 357.792 L 194.878 356.690 L 194.783 355.589 L 194.662 354.492 L 194.513 353.397 L 194.337 352.307 L 194.135 351.221 L 193.907 350.140 L 193.651 349.066 L 193.370 347.998 L 193.062 346.937 L 192.729 345.884 L 192.369 344.840 L 191.985 343.805 L 191.575 342.779 L 191.139 341.764 L 190.680 340.760 L 190.195 339.767 L 189.686 338.787 L 189.154 337.820 L 188.598 336.865 L 188.018 335.925 L 187.416 334.999 L 186.791 334.089 L 186.144 333.194 L 185.476 332.315 L 184.785 331.452 L 184.074 330.607 L 183.343 329.780 L 182.591 328.971 L 181.820 328.180 L 181.029 327.409 L 180.220 326.657 L 179.393 325.926 L 178.548 325.215 L 177.685 324.524 L 176.806 323.856 L 175.911 323.209 L 175.001 322.584 L 174.075 321.982 L 173.135 321.402 L 172.180 320.846 L 171.213 320.314 L 170.233 319.805 L 169.240 319.320 L 168.236 318.861 L 167.221 318.425 L 166.195 318.015 L 165.160 317.631 L 164.116 317.271 L 163.063 316.938 L 162.002 316.630 L 160.934 316.349 L 159.860 316.093 L 158.779 315.865 L 157.693 315.663 L 156.603 315.487 L 155.508 315.338 L 154.411 315.217 L 153.310 315.122 L 152.208 315.054 L 151.104 315.014 L 150.000 315.000 L 148.896 315.014 L 147.792 315.054 L 146.690 315.122 L 145.589 315.217 L 144.492 315.338 L 143.397 315.487 L 142.307 315.663 L 141.221 315.865 L 140.140 316.093 L 139.066 316.349 L 137.998 316.630 L 136.937 316.938 L 135.884 317.271 L 134.840 317.631 L 133.805 318.015 L 132.779 318.425 L 131.764 318.861 L 130.760 319.320 L 129.767 319.805 L 128.787 320.314 L 127.820 320.846 L 126.865 321.402 L 125.925 321.982 L 124.999 322.584 L 124.089 323.209 L 123.194 323.856 L 122.315 324.524 L 121.452 325.215 L 120.607 325.926 L 119.780 326.657 L 118.971 327.409 L 118.180 328.180 L 117.409 328.971 L 116.657 329.780 L 115.926 330.607 L 115.215 331.452 L 114.524 332.315 L 113.856 333.194 L 113.209 334.089 L 112.584 334.999 L 111.982 335.925 L 111.402 336.865 L 110.846 337.820 L 110.314 338.787 L 109.805 339.767 L 109.320 340.760 L 108.861 341.764 L 108.425 342.779 L 108.015 343.805 L 107.631 344.840 L 107.271 345.884 L 106.938 346.937 L 106.630 347.998 L 106.349 349.066 L 106.093 350.140 L 105.865 351.221 L 105.663 352.307 L 105.487 353.397 L 105.338 354.492 L 105.217 355.589 L 105.122 356.690 L 105.054 357.792 L 105.014 358.896 L 105.000 360.000 L 105.000 614.200 L 105.001 614.529 Z" fill="black" fill-rule="evenodd"/>
</svg>
