<svg xmlns="http://www.w3.org/2000/svg" viewBox="0 0 700.000 1000">
  <path d="M 286.153 31.114 L 285.867 31.116 L 285.161 31.123 L 284.875 31.127 L 284.169 31.138 L 283.883 31.143 L 283.177 31.159 L 282.891 31.166 L 282.186 31.186 L 281.900 31.196 L 281.194 31.220 L 280.908 31.231 L 280.203 31.260 L 279.917 31.273 L 279.212 31.307 L 278.926 31.321 L 278.221 31.359 L 277.936 31.376 L 277.231 31.418 L 276.945 31.436 L 276.241 31.483 L 275.955 31.503 L 275.251 31.555 L 274.966 31.577 L 274.262 31.633 L 273.977 31.656 L 273.274 31.717 L 272.989 31.742 L 272.286 31.807 L 272.001 31.834 L 271.298 31.904 L 271.014 31.933 L 270.311 32.007 L 270.027 32.038 L 269.325 32.116 L 269.041 32.149 L 268.340 32.231 L 268.056 32.266 L 267.355 32.353 L 267.072 32.389 L 266.371 32.481 L 266.088 32.519 L 265.388 32.615 L 265.105 32.655 L 264.406 32.756 L 264.123 32.797 L 263.425 32.902 L 263.142 32.946 L 262.444 33.055 L 262.162 33.100 L 261.465 33.214 L 261.183 33.261 L 260.487 33.380 L 260.205 33.428 L 259.509 33.551 L 259.228 33.602 L 258.533 33.729 L 258.253 33.781 L 257.558 33.913 L 257.278 33.967 L 256.584 34.103 L 256.305 34.159 L 255.612 34.299 L 255.332 34.357 L 254.640 34.501 L 254.361 34.561 L 253.670 34.710 L 253.392 34.771 L 252.702 34.925 L 252.423 34.988 L 251.734 35.146 L 251.456 35.210 L 250.768 35.373 L 250.491 35.439 L 249.804 35.606 L 249.527 35.674 L 248.841 35.845 L 248.564 35.915 L 247.879 36.090 L 247.603 36.162 L 246.919 36.342 L 246.644 36.415 L 245.961 36.599 L 245.686 36.674 L 245.004 36.863 L 244.730 36.940 L 244.049 37.132 L 243.775 37.211 L 243.096 37.408 L 242.823 37.488 L 242.144 37.690 L 241.872 37.772 L 241.194 37.977 L 240.922 38.061 L 240.247 38.271 L 239.975 38.357 L 239.300 38.571 L 239.029 38.658 L 238.356 38.877 L 238.086 38.965 L 237.414 39.188 L 237.144 39.279 L 236.474 39.506 L 236.205 39.598 L 235.536 39.829 L 235.267 39.923 L 234.599 40.159 L 234.332 40.254 L 233.665 40.494 L 233.398 40.592 L 232.733 40.836 L 232.467 40.935 L 231.803 41.183 L 231.538 41.283 L 230.876 41.536 L 230.611 41.638 L 229.950 41.895 L 229.686 41.999 L 229.027 42.260 L 228.764 42.365 L 228.106 42.630 L 227.843 42.737 L 227.188 43.007 L 226.926 43.115 L 226.272 43.389 L 226.010 43.499 L 225.358 43.777 L 225.097 43.889 L 224.447 44.170 L 224.187 44.284 L 223.538 44.570 L 223.279 44.685 L 222.632 44.975 L 222.374 45.092 L 221.728 45.386 L 221.471 45.504 L 220.827 45.803 L 220.570 45.923 L 219.929 46.225 L 219.673 46.346 L 219.033 46.653 L 218.778 46.776 L 218.140 47.086 L 217.886 47.211 L 217.250 47.526 L 216.996 47.652 L 216.362 47.970 L 216.109 48.098 L 215.477 48.421 L 215.225 48.550 L 214.595 48.877 L 214.344 49.008 L 213.716 49.338 L 213.466 49.471 L 212.840 49.805 L 212.591 49.939 L 211.967 50.278 L 211.718 50.413 L 211.096 50.756 L 210.849 50.893 L 210.229 51.239 L 209.983 51.378 L 209.365 51.728 L 209.119 51.868 L 208.504 52.222 L 208.259 52.364 L 207.645 52.722 L 207.402 52.865 L 206.790 53.227 L 206.548 53.372 L 205.939 53.738 L 205.697 53.884 L 205.090 54.254 L 204.850 54.401 L 204.245 54.775 L 204.005 54.924 L 203.403 55.301 L 203.164 55.452 L 202.564 55.833 L 202.326 55.985 L 201.728 56.370 L 201.492 56.523 L 200.896 56.912 L 200.661 57.067 L 200.068 57.460 L 199.833 57.616 L 199.242 58.012 L 199.009 58.170 L 198.421 58.570 L 198.188 58.729 L 197.602 59.133 L 197.371 59.293 L 196.787 59.701 L 196.557 59.863 L 195.976 60.274 L 195.747 60.437 L 195.168 60.852 L 194.941 61.017 L 194.364 61.436 L 194.138 61.602 L 193.564 62.024 L 193.338 62.191 L 192.767 62.617 L 192.543 62.786 L 191.974 63.215 L 191.751 63.385 L 191.185 63.819 L 190.962 63.990 L 190.399 64.427 L 190.178 64.599 L 189.617 65.040 L 189.397 65.214 L 188.839 65.658 L 188.621 65.833 L 188.065 66.281 L 187.848 66.457 L 187.295 66.908 L 187.079 67.086 L 186.529 67.541 L 186.313 67.720 L 185.766 68.178 L 185.552 68.358 L 185.008 68.820 L 184.795 69.001 L 184.254 69.466 L 184.042 69.649 L 183.503 70.118 L 183.292 70.302 L 182.757 70.774 L 182.547 70.959 L 182.014 71.434 L 181.806 71.621 L 181.276 72.100 L 181.069 72.288 L 180.542 72.769 L 180.336 72.959 L 179.812 73.444 L 179.608 73.634 L 179.087 74.123 L 178.883 74.314 L 178.365 74.806 L 178.163 74.999 L 177.648 75.494 L 177.447 75.688 L 176.935 76.187 L 176.735 76.382 L 176.226 76.883 L 176.028 77.080 L 175.522 77.585 L 175.325 77.782 L 174.822 78.290 L 174.626 78.489 L 174.126 79.000 L 173.932 79.200 L 173.435 79.714 L 173.242 79.915 L 172.748 80.433 L 172.556 80.635 L 172.065 81.156 L 171.875 81.359 L 171.387 81.883 L 171.198 82.087 L 170.714 82.614 L 170.526 82.820 L 170.045 83.349 L 169.859 83.556 L 169.380 84.089 L 169.195 84.297 L 168.721 84.833 L 168.537 85.041 L 168.065 85.580 L 167.883 85.790 L 167.415 86.332 L 167.234 86.543 L 166.769 87.088 L 166.589 87.300 L 166.127 87.848 L 165.949 88.061 L 165.491 88.611 L 165.314 88.825 L 164.859 89.379 L 164.683 89.594 L 164.232 90.151 L 164.058 90.367 L 163.609 90.926 L 163.436 91.143 L 162.992 91.706 L 162.820 91.924 L 162.379 92.489 L 162.209 92.708 L 161.771 93.276 L 161.602 93.495 L 161.167 94.066 L 161.000 94.287 L 160.569 94.861 L 160.403 95.082 L 159.976 95.659 L 159.811 95.881 L 159.387 96.460 L 159.224 96.684 L 158.803 97.266 L 158.642 97.490 L 158.225 98.075 L 158.065 98.300 L 157.651 98.887 L 157.492 99.114 L 157.082 99.703 L 156.925 99.930 L 156.519 100.523 L 156.363 100.751 L 155.960 101.346 L 155.806 101.575 L 155.406 102.172 L 155.253 102.402 L 154.858 103.002 L 154.706 103.233 L 154.314 103.835 L 154.164 104.067 L 153.776 104.671 L 153.628 104.904 L 153.243 105.511 L 153.096 105.745 L 152.715 106.354 L 152.569 106.589 L 152.192 107.201 L 152.048 107.436 L 151.674 108.050 L 151.531 108.286 L 151.161 108.903 L 151.020 109.140 L 150.654 109.759 L 150.515 109.996 L 150.152 110.618 L 150.014 110.856 L 149.655 111.480 L 149.519 111.719 L 149.164 112.345 L 148.631 113.312 L 148.122 114.292 L 147.637 115.285 L 147.177 116.289 L 146.741 117.304 L 146.330 118.329 L 145.945 119.364 L 145.585 120.408 L 145.251 121.461 L 144.943 122.522 L 144.661 123.589 L 144.406 124.664 L 144.177 125.744 L 143.974 126.830 L 143.798 127.920 L 143.649 129.015 L 143.527 130.112 L 143.431 131.213 L 143.363 132.315 L 143.322 133.419 L 143.308 134.523 L 143.321 135.627 L 143.361 136.731 L 143.429 137.833 L 143.523 138.934 L 143.644 140.032 L 143.792 141.126 L 143.967 142.216 L 144.169 143.302 L 144.397 144.383 L 144.652 145.458 L 144.933 146.526 L 145.240 147.587 L 145.573 148.640 L 145.932 149.684 L 146.316 150.719 L 146.726 151.745 L 147.161 152.760 L 147.620 153.765 L 148.104 154.757 L 148.612 155.738 L 149.145 156.706 L 149.700 157.660 L 150.279 158.601 L 150.881 159.527 L 151.506 160.438 L 152.152 161.333 L 152.820 162.212 L 153.510 163.075 L 154.221 163.920 L 154.952 164.748 L 155.703 165.558 L 156.474 166.348 L 157.265 167.120 L 158.073 167.872 L 158.901 168.604 L 159.745 169.315 L 160.607 170.006 L 161.486 170.675 L 162.381 171.322 L 163.291 171.948 L 164.217 172.550 L 165.157 173.130 L 166.111 173.687 L 167.078 174.220 L 168.058 174.729 L 169.050 175.214 L 170.054 175.674 L 171.069 176.110 L 172.095 176.520 L 173.130 176.905 L 174.174 177.265 L 175.227 177.599 L 176.287 177.907 L 177.355 178.189 L 178.429 178.445 L 179.510 178.674 L 180.596 178.877 L 181.686 179.052 L 182.780 179.202 L 183.878 179.324 L 184.978 179.419 L 186.081 179.487 L 187.184 179.528 L 188.289 179.542 L 189.393 179.529 L 190.497 179.489 L 191.599 179.422 L 192.699 179.328 L 193.797 179.206 L 194.892 179.058 L 195.982 178.883 L 197.068 178.682 L 198.149 178.453 L 199.223 178.199 L 200.291 177.918 L 201.352 177.610 L 202.405 177.277 L 203.450 176.918 L 204.485 176.534 L 205.511 176.124 L 206.526 175.690 L 207.530 175.230 L 208.523 174.746 L 209.504 174.238 L 210.471 173.706 L 211.426 173.150 L 212.366 172.571 L 213.292 171.969 L 214.203 171.345 L 215.099 170.698 L 215.978 170.030 L 216.841 169.340 L 217.686 168.630 L 218.514 167.898 L 219.323 167.147 L 220.114 166.376 L 220.886 165.586 L 221.638 164.777 L 222.370 163.950 L 223.081 163.105 L 223.772 162.243 L 224.441 161.365 L 225.088 160.470 L 225.713 159.559 L 226.316 158.634 L 226.896 157.694 L 227.452 156.740 L 227.739 156.234 L 227.961 155.849 L 228.185 155.465 L 228.410 155.083 L 228.639 154.703 L 228.869 154.324 L 229.102 153.947 L 229.337 153.571 L 229.574 153.197 L 229.813 152.824 L 230.054 152.454 L 230.298 152.084 L 230.544 151.717 L 230.792 151.351 L 231.042 150.987 L 231.294 150.624 L 231.548 150.263 L 231.805 149.904 L 232.063 149.547 L 232.324 149.191 L 232.587 148.837 L 232.851 148.485 L 233.118 148.135 L 233.387 147.787 L 233.658 147.440 L 233.931 147.095 L 234.205 146.752 L 234.482 146.411 L 234.761 146.072 L 235.042 145.734 L 235.324 145.399 L 235.609 145.065 L 235.896 144.733 L 236.184 144.403 L 236.475 144.076 L 236.767 143.750 L 237.061 143.426 L 237.357 143.104 L 237.655 142.784 L 237.955 142.466 L 238.256 142.150 L 238.560 141.836 L 238.865 141.524 L 239.172 141.214 L 239.480 140.906 L 239.791 140.600 L 240.103 140.297 L 240.417 139.995 L 240.733 139.695 L 241.050 139.398 L 241.369 139.102 L 241.690 138.809 L 242.013 138.518 L 242.337 138.229 L 242.662 137.942 L 242.990 137.658 L 243.319 137.375 L 243.649 137.095 L 243.982 136.817 L 244.315 136.541 L 244.651 136.267 L 244.988 135.996 L 245.326 135.726 L 245.666 135.459 L 246.007 135.195 L 246.350 134.932 L 246.695 134.672 L 247.040 134.414 L 247.388 134.158 L 247.737 133.905 L 248.087 133.653 L 248.438 133.405 L 248.791 133.158 L 249.146 132.914 L 249.501 132.672 L 249.858 132.432 L 250.217 132.195 L 250.577 131.960 L 250.938 131.728 L 251.300 131.497 L 251.664 131.270 L 252.029 131.044 L 252.395 130.821 L 252.762 130.601 L 253.131 130.382 L 253.501 130.167 L 253.872 129.953 L 254.244 129.742 L 254.617 129.533 L 254.992 129.327 L 255.368 129.124 L 255.744 128.922 L 256.122 128.723 L 256.501 128.527 L 256.881 128.333 L 257.263 128.142 L 257.645 127.953 L 258.028 127.766 L 258.412 127.582 L 258.798 127.401 L 259.184 127.222 L 259.571 127.045 L 259.960 126.871 L 260.349 126.700 L 260.739 126.531 L 261.130 126.364 L 261.522 126.200 L 261.915 126.039 L 262.309 125.880 L 262.703 125.724 L 263.099 125.570 L 263.495 125.419 L 263.892 125.270 L 264.290 125.124 L 264.689 124.980 L 265.089 124.839 L 265.489 124.701 L 265.890 124.565 L 266.292 124.431 L 266.694 124.301 L 267.098 124.173 L 267.502 124.047 L 267.906 123.924 L 268.311 123.804 L 268.717 123.686 L 269.124 123.571 L 269.531 123.458 L 269.939 123.348 L 270.347 123.241 L 270.756 123.136 L 271.166 123.034 L 271.576 122.934 L 271.986 122.838 L 272.398 122.743 L 272.809 122.652 L 273.221 122.563 L 273.634 122.476 L 274.047 122.393 L 274.460 122.311 L 274.874 122.233 L 275.289 122.157 L 275.703 122.084 L 276.119 122.013 L 276.534 121.945 L 276.950 121.880 L 277.366 121.818 L 277.783 121.758 L 278.200 121.700 L 278.617 121.646 L 279.034 121.594 L 279.452 121.544 L 279.870 121.498 L 280.288 121.454 L 280.707 121.412 L 281.126 121.374 L 281.545 121.338 L 281.964 121.304 L 282.383 121.274 L 282.802 121.246 L 283.222 121.220 L 283.642 121.198 L 284.061 121.178 L 284.481 121.160 L 284.901 121.146 L 285.321 121.134 L 285.742 121.124 L 286.162 121.118 L 286.582 121.114 L 287.074 121.112 L 364.017 121.112 L 365.572 121.122 L 366.987 121.148 L 368.401 121.192 L 369.815 121.254 L 371.228 121.333 L 372.640 121.430 L 374.051 121.544 L 375.460 121.676 L 376.868 121.825 L 378.274 121.992 L 379.679 122.176 L 381.081 122.378 L 382.481 122.598 L 383.878 122.834 L 385.272 123.088 L 386.664 123.360 L 388.052 123.649 L 389.437 123.955 L 390.819 124.278 L 392.197 124.619 L 393.571 124.977 L 394.941 125.351 L 396.307 125.743 L 397.668 126.152 L 399.024 126.578 L 400.376 127.021 L 401.723 127.481 L 403.064 127.958 L 404.400 128.451 L 405.730 128.961 L 407.055 129.488 L 408.373 130.031 L 409.686 130.591 L 410.991 131.167 L 412.291 131.760 L 413.583 132.369 L 414.869 132.994 L 416.148 133.635 L 417.419 134.292 L 418.683 134.965 L 419.939 135.655 L 421.187 136.359 L 422.427 137.080 L 423.659 137.816 L 424.882 138.568 L 426.097 139.335 L 427.303 140.117 L 428.500 140.915 L 429.688 141.727 L 430.867 142.555 L 432.036 143.398 L 433.196 144.255 L 434.346 145.127 L 435.485 146.013 L 436.615 146.914 L 437.734 147.829 L 438.842 148.759 L 439.940 149.702 L 441.027 150.659 L 442.103 151.630 L 443.168 152.615 L 444.222 153.613 L 445.264 154.625 L 446.294 155.650 L 447.312 156.688 L 448.318 157.739 L 449.313 158.802 L 450.295 159.879 L 451.264 160.968 L 452.221 162.069 L 453.165 163.182 L 454.096 164.308 L 455.014 165.445 L 455.919 166.594 L 456.810 167.755 L 457.688 168.927 L 458.552 170.110 L 459.403 171.304 L 460.239 172.509 L 461.062 173.725 L 461.870 174.951 L 462.664 176.188 L 463.443 177.435 L 464.208 178.692 L 464.959 179.958 L 465.694 181.234 L 466.414 182.520 L 467.120 183.815 L 467.810 185.119 L 468.485 186.432 L 469.145 187.753 L 469.789 189.083 L 470.417 190.421 L 471.030 191.767 L 471.627 193.121 L 472.208 194.483 L 472.773 195.852 L 473.321 197.229 L 473.854 198.612 L 474.370 200.002 L 474.870 201.399 L 475.354 202.802 L 475.821 204.212 L 476.271 205.627 L 476.705 207.049 L 477.122 208.475 L 477.522 209.907 L 477.905 211.345 L 478.271 212.787 L 478.620 214.233 L 478.952 215.685 L 479.267 217.140 L 479.565 218.599 L 479.845 220.063 L 480.109 221.529 L 480.354 223.000 L 480.583 224.473 L 480.794 225.949 L 480.987 227.427 L 481.163 228.909 L 481.322 230.392 L 481.463 231.877 L 481.586 233.364 L 481.692 234.853 L 481.780 236.342 L 481.851 237.833 L 481.904 239.325 L 481.939 240.817 L 481.957 242.310 L 481.957 243.802 L 481.939 245.295 L 481.904 246.787 L 481.851 248.279 L 481.780 249.770 L 481.692 251.259 L 481.586 252.748 L 481.463 254.235 L 481.322 255.720 L 481.163 257.203 L 480.987 258.685 L 480.794 260.163 L 480.583 261.639 L 480.354 263.112 L 480.109 264.583 L 479.845 266.049 L 479.565 267.513 L 479.267 268.972 L 478.952 270.427 L 478.620 271.879 L 478.271 273.325 L 477.905 274.767 L 477.522 276.205 L 477.122 277.637 L 476.705 279.063 L 476.271 280.485 L 475.821 281.900 L 475.354 283.310 L 474.870 284.713 L 474.370 286.110 L 473.854 287.500 L 473.321 288.883 L 472.773 290.260 L 472.208 291.629 L 471.627 292.991 L 471.030 294.345 L 470.417 295.691 L 469.789 297.029 L 469.145 298.359 L 468.485 299.680 L 467.810 300.993 L 467.120 302.297 L 466.414 303.592 L 465.694 304.878 L 464.959 306.154 L 464.208 307.420 L 463.443 308.677 L 462.664 309.924 L 461.870 311.161 L 461.062 312.387 L 460.239 313.603 L 459.403 314.808 L 458.552 316.002 L 457.688 317.185 L 456.810 318.357 L 455.919 319.518 L 455.014 320.667 L 454.096 321.804 L 453.165 322.930 L 452.221 324.043 L 451.264 325.144 L 450.295 326.233 L 449.313 327.310 L 448.318 328.373 L 447.312 329.424 L 446.294 330.462 L 445.264 331.487 L 444.222 332.499 L 443.168 333.497 L 442.103 334.482 L 441.027 335.453 L 439.940 336.410 L 438.842 337.353 L 437.734 338.283 L 436.615 339.198 L 435.485 340.099 L 434.346 340.985 L 433.196 341.857 L 432.036 342.714 L 430.867 343.557 L 429.688 344.385 L 428.500 345.197 L 427.303 345.995 L 426.097 346.777 L 424.882 347.544 L 423.659 348.296 L 422.427 349.032 L 421.187 349.753 L 419.939 350.457 L 418.683 351.147 L 417.419 351.820 L 416.148 352.477 L 414.869 353.118 L 413.583 353.743 L 412.291 354.352 L 410.991 354.945 L 409.686 355.521 L 408.373 356.081 L 407.055 356.624 L 405.730 357.151 L 404.400 357.661 L 403.064 358.154 L 401.723 358.631 L 400.376 359.091 L 399.024 359.534 L 397.668 359.960 L 396.307 360.369 L 394.941 360.761 L 393.571 361.135 L 392.197 361.493 L 390.819 361.834 L 389.437 362.157 L 388.052 362.463 L 386.664 362.752 L 385.272 363.024 L 383.878 363.278 L 382.481 363.514 L 381.081 363.734 L 379.679 363.936 L 378.274 364.120 L 376.868 364.287 L 375.460 364.436 L 374.051 364.568 L 372.640 364.682 L 371.228 364.779 L 369.815 364.858 L 368.401 364.920 L 366.987 364.964 L 365.572 364.990 L 364.017 365.000 L 253.309 365.000 L 252.205 365.014 L 251.101 365.054 L 249.999 365.122 L 248.898 365.217 L 247.801 365.338 L 246.706 365.487 L 245.616 365.663 L 244.530 365.865 L 243.450 366.093 L 242.375 366.349 L 241.307 366.630 L 240.246 366.938 L 239.193 367.271 L 238.149 367.631 L 237.114 368.015 L 236.088 368.425 L 235.073 368.861 L 234.069 369.320 L 233.077 369.805 L 232.096 370.314 L 231.129 370.846 L 230.174 371.402 L 229.234 371.982 L 228.308 372.584 L 227.398 373.209 L 226.503 373.856 L 225.624 374.524 L 224.761 375.215 L 223.916 375.926 L 223.089 376.657 L 222.280 377.409 L 221.489 378.180 L 220.718 378.971 L 219.966 379.780 L 219.235 380.607 L 218.524 381.452 L 217.833 382.315 L 217.165 383.194 L 216.518 384.089 L 215.893 384.999 L 215.291 385.925 L 214.711 386.865 L 214.155 387.820 L 213.623 388.787 L 213.114 389.767 L 212.630 390.760 L 212.170 391.764 L 211.734 392.779 L 211.324 393.805 L 210.940 394.840 L 210.580 395.884 L 210.247 396.937 L 209.939 397.998 L 209.658 399.066 L 209.402 400.140 L 209.174 401.221 L 208.972 402.307 L 208.796 403.397 L 208.647 404.492 L 208.526 405.589 L 208.431 406.690 L 208.363 407.792 L 208.323 408.896 L 208.309 410.000 L 208.323 411.104 L 208.363 412.208 L 208.431 413.310 L 208.526 414.411 L 208.647 415.508 L 208.796 416.603 L 208.972 417.693 L 209.174 418.779 L 209.402 419.860 L 209.658 420.934 L 209.939 422.002 L 210.247 423.063 L 210.580 424.116 L 210.940 425.160 L 211.324 426.195 L 211.734 427.221 L 212.170 428.236 L 212.630 429.240 L 213.114 430.233 L 213.623 431.213 L 214.155 432.180 L 214.711 433.135 L 215.291 434.075 L 215.893 435.001 L 216.518 435.911 L 217.165 436.806 L 217.833 437.685 L 218.524 438.548 L 219.235 439.393 L 219.966 440.220 L 220.718 441.029 L 221.489 441.820 L 222.280 442.591 L 223.089 443.343 L 223.916 444.074 L 224.761 444.785 L 225.624 445.476 L 226.503 446.144 L 227.398 446.791 L 228.308 447.416 L 229.234 448.018 L 230.174 448.598 L 231.129 449.154 L 232.096 449.686 L 233.077 450.195 L 234.069 450.680 L 235.073 451.139 L 236.088 451.575 L 237.114 451.985 L 238.149 452.369 L 239.193 452.729 L 240.246 453.062 L 241.307 453.370 L 242.375 453.651 L 243.450 453.907 L 244.530 454.135 L 245.616 454.337 L 246.706 454.513 L 247.801 454.662 L 248.898 454.783 L 249.999 454.878 L 251.101 454.946 L 252.205 454.986 L 253.309 455.000 L 364.017 455.000 L 365.572 455.010 L 366.987 455.036 L 368.401 455.080 L 369.815 455.142 L 371.228 455.221 L 372.640 455.318 L 374.051 455.432 L 375.460 455.564 L 376.868 455.713 L 378.274 455.880 L 379.679 456.064 L 381.081 456.266 L 382.481 456.486 L 383.878 456.722 L 385.272 456.976 L 386.664 457.248 L 388.052 457.537 L 389.437 457.843 L 390.819 458.166 L 392.197 458.507 L 393.571 458.865 L 394.941 459.239 L 396.307 459.631 L 397.668 460.040 L 399.024 460.466 L 400.376 460.909 L 401.723 461.369 L 403.064 461.846 L 404.400 462.339 L 405.730 462.849 L 407.055 463.376 L 408.373 463.919 L 409.686 464.479 L 410.991 465.055 L 412.291 465.648 L 413.583 466.257 L 414.869 466.882 L 416.148 467.523 L 417.419 468.180 L 418.683 468.853 L 419.939 469.543 L 421.187 470.247 L 422.427 470.968 L 423.659 471.704 L 424.882 472.456 L 426.097 473.223 L 427.303 474.005 L 428.500 474.803 L 429.688 475.615 L 430.867 476.443 L 432.036 477.286 L 433.196 478.143 L 434.346 479.015 L 435.485 479.901 L 436.615 480.802 L 437.734 481.717 L 438.842 482.647 L 439.940 483.590 L 441.027 484.547 L 442.103 485.518 L 443.168 486.503 L 444.222 487.501 L 445.264 488.513 L 446.294 489.538 L 447.312 490.576 L 448.318 491.627 L 449.313 492.690 L 450.295 493.767 L 451.264 494.856 L 452.221 495.957 L 453.165 497.070 L 454.096 498.196 L 455.014 499.333 L 455.919 500.482 L 456.810 501.643 L 457.688 502.815 L 458.552 503.998 L 459.403 505.192 L 460.239 506.397 L 461.062 507.613 L 461.870 508.839 L 462.664 510.076 L 463.443 511.323 L 464.208 512.580 L 464.959 513.846 L 465.694 515.122 L 466.414 516.408 L 467.120 517.703 L 467.810 519.007 L 468.485 520.320 L 469.145 521.641 L 469.789 522.971 L 470.417 524.309 L 471.030 525.655 L 471.627 527.009 L 472.208 528.371 L 472.773 529.740 L 473.321 531.117 L 473.854 532.500 L 474.370 533.890 L 474.870 535.287 L 475.354 536.690 L 475.821 538.100 L 476.271 539.515 L 476.705 540.937 L 477.122 542.363 L 477.522 543.795 L 477.905 545.233 L 478.271 546.675 L 478.620 548.121 L 478.952 549.573 L 479.267 551.028 L 479.565 552.487 L 479.845 553.951 L 480.109 555.417 L 480.354 556.888 L 480.583 558.361 L 480.794 559.837 L 480.987 561.315 L 481.163 562.797 L 481.322 564.280 L 481.463 565.765 L 481.586 567.252 L 481.692 568.741 L 481.780 570.230 L 481.851 571.721 L 481.904 573.213 L 481.939 574.705 L 481.957 576.198 L 481.957 577.690 L 481.939 579.183 L 481.904 580.675 L 481.851 582.167 L 481.780 583.658 L 481.692 585.147 L 481.586 586.636 L 481.463 588.123 L 481.322 589.608 L 481.163 591.091 L 480.987 592.573 L 480.794 594.051 L 480.583 595.527 L 480.354 597.000 L 480.109 598.471 L 479.845 599.937 L 479.565 601.401 L 479.267 602.860 L 478.952 604.315 L 478.620 605.767 L 478.271 607.213 L 477.905 608.655 L 477.522 610.093 L 477.122 611.525 L 476.705 612.951 L 476.271 614.373 L 475.821 615.788 L 475.354 617.198 L 474.870 618.601 L 474.370 619.998 L 473.854 621.388 L 473.321 622.771 L 472.773 624.148 L 472.208 625.517 L 471.627 626.879 L 471.030 628.233 L 470.417 629.579 L 469.789 630.917 L 469.145 632.247 L 468.485 633.568 L 467.810 634.881 L 467.120 636.185 L 466.414 637.480 L 465.694 638.766 L 464.959 640.042 L 464.208 641.308 L 463.443 642.565 L 462.664 643.812 L 461.870 645.049 L 461.062 646.275 L 460.239 647.491 L 459.403 648.696 L 458.552 649.890 L 457.688 651.073 L 456.810 652.245 L 455.919 653.406 L 455.014 654.555 L 454.096 655.692 L 453.165 656.818 L 452.221 657.931 L 451.264 659.032 L 450.295 660.121 L 449.313 661.198 L 448.318 662.261 L 447.312 663.312 L 446.294 664.350 L 445.264 665.375 L 444.222 666.387 L 443.168 667.385 L 442.103 668.370 L 441.027 669.341 L 439.940 670.298 L 438.842 671.241 L 437.734 672.171 L 436.615 673.086 L 435.485 673.987 L 434.346 674.873 L 433.196 675.745 L 432.036 676.602 L 430.867 677.445 L 429.688 678.273 L 428.500 679.085 L 427.303 679.883 L 426.097 680.665 L 424.882 681.432 L 423.659 682.184 L 422.427 682.920 L 421.187 683.641 L 419.939 684.345 L 418.683 685.035 L 417.419 685.708 L 416.148 686.365 L 414.869 687.006 L 413.583 687.631 L 412.291 688.240 L 410.991 688.833 L 409.686 689.409 L 408.373 689.969 L 407.055 690.512 L 405.730 691.039 L 404.400 691.549 L 403.064 692.042 L 401.723 692.519 L 400.376 692.979 L 399.024 693.422 L 397.668 693.848 L 396.307 694.257 L 394.941 694.649 L 393.571 695.023 L 392.197 695.381 L 390.819 695.722 L 389.437 696.045 L 388.052 696.351 L 386.664 696.640 L 385.272 696.912 L 383.878 697.166 L 382.481 697.402 L 381.081 697.622 L 379.679 697.824 L 378.274 698.008 L 376.868 698.175 L 375.460 698.324 L 374.051 698.456 L 372.640 698.570 L 371.228 698.667 L 369.815 698.746 L 368.401 698.808 L 366.987 698.852 L 365.572 698.878 L 364.017 698.888 L 287.074 698.888 L 286.582 698.886 L 286.162 698.882 L 285.742 698.876 L 285.321 698.866 L 284.901 698.854 L 284.481 698.840 L 284.061 698.822 L 283.642 698.802 L 283.222 698.780 L 282.802 698.754 L 282.383 698.726 L 281.964 698.696 L 281.545 698.662 L 281.126 698.626 L 280.707 698.588 L 280.288 698.546 L 279.870 698.502 L 279.452 698.456 L 279.034 698.406 L 278.617 698.354 L 278.200 698.300 L 277.783 698.242 L 277.366 698.182 L 276.950 698.120 L 276.534 698.055 L 276.119 697.987 L 275.703 697.916 L 275.289 697.843 L 274.874 697.767 L 274.460 697.689 L 274.047 697.607 L 273.634 697.524 L 273.221 697.437 L 272.809 697.348 L 272.398 697.257 L 271.986 697.162 L 271.576 697.066 L 271.166 696.966 L 270.756 696.864 L 270.347 696.759 L 269.939 696.652 L 269.531 696.542 L 269.124 696.429 L 268.717 696.314 L 268.311 696.196 L 267.906 696.076 L 267.502 695.953 L 267.098 695.827 L 266.694 695.699 L 266.292 695.569 L 265.890 695.435 L 265.489 695.299 L 265.089 695.161 L 264.689 695.020 L 264.290 694.876 L 263.892 694.730 L 263.495 694.581 L 263.099 694.430 L 262.703 694.276 L 262.309 694.120 L 261.915 693.961 L 261.522 693.800 L 261.130 693.636 L 260.739 693.469 L 260.349 693.300 L 259.960 693.129 L 259.571 692.955 L 259.184 692.778 L 258.798 692.599 L 258.412 692.418 L 258.028 692.234 L 257.645 692.047 L 257.263 691.858 L 256.881 691.667 L 256.501 691.473 L 256.122 691.277 L 255.744 691.078 L 255.368 690.876 L 254.992 690.673 L 254.617 690.467 L 254.244 690.258 L 253.872 690.047 L 253.501 689.833 L 253.131 689.618 L 252.762 689.399 L 252.395 689.179 L 252.029 688.956 L 251.664 688.730 L 251.300 688.503 L 250.938 688.272 L 250.577 688.040 L 250.217 687.805 L 249.858 687.568 L 249.501 687.328 L 249.146 687.086 L 248.791 686.842 L 248.438 686.595 L 248.087 686.347 L 247.737 686.095 L 247.388 685.842 L 247.040 685.586 L 246.695 685.328 L 246.350 685.068 L 246.007 684.805 L 245.666 684.541 L 245.326 684.274 L 244.988 684.004 L 244.651 683.733 L 244.315 683.459 L 243.982 683.183 L 243.649 682.905 L 243.319 682.625 L 242.990 682.342 L 242.662 682.058 L 242.337 681.771 L 242.013 681.482 L 241.690 681.191 L 241.369 680.898 L 241.050 680.602 L 240.733 680.305 L 240.417 680.005 L 240.103 679.703 L 239.791 679.400 L 239.480 679.094 L 239.172 678.786 L 238.865 678.476 L 238.560 678.164 L 238.256 677.850 L 237.955 677.534 L 237.655 677.216 L 237.357 676.896 L 237.061 676.574 L 236.767 676.250 L 236.475 675.924 L 236.184 675.597 L 235.896 675.267 L 235.609 674.935 L 235.324 674.601 L 235.042 674.266 L 234.761 673.928 L 234.482 673.589 L 234.205 673.248 L 233.931 672.905 L 233.658 672.560 L 233.387 672.213 L 233.118 671.865 L 232.851 671.515 L 232.587 671.163 L 232.324 670.809 L 232.063 670.453 L 231.805 670.096 L 231.548 669.737 L 231.294 669.376 L 231.042 669.013 L 230.792 668.649 L 230.544 668.283 L 230.298 667.916 L 230.054 667.546 L 229.813 667.176 L 229.574 666.803 L 229.337 666.429 L 229.102 666.053 L 228.869 665.676 L 228.639 665.297 L 228.410 664.917 L 228.185 664.535 L 227.961 664.151 L 227.739 663.766 L 227.452 663.260 L 226.896 662.306 L 226.316 661.366 L 225.713 660.441 L 225.088 659.530 L 224.441 658.635 L 223.772 657.757 L 223.081 656.895 L 222.370 656.050 L 221.638 655.223 L 220.886 654.414 L 220.114 653.624 L 219.323 652.853 L 218.514 652.102 L 217.686 651.370 L 216.841 650.660 L 215.978 649.970 L 215.099 649.302 L 214.203 648.655 L 213.292 648.031 L 212.366 647.429 L 211.426 646.850 L 210.471 646.294 L 209.504 645.762 L 208.523 645.254 L 207.530 644.770 L 206.526 644.310 L 205.511 643.876 L 204.485 643.466 L 203.450 643.082 L 202.405 642.723 L 201.352 642.390 L 200.291 642.082 L 199.223 641.801 L 198.149 641.547 L 197.068 641.318 L 195.982 641.117 L 194.892 640.942 L 193.797 640.794 L 192.699 640.672 L 191.599 640.578 L 190.497 640.511 L 189.393 640.471 L 188.289 640.458 L 187.184 640.472 L 186.081 640.513 L 184.978 640.581 L 183.878 640.676 L 182.780 640.798 L 181.686 640.948 L 180.596 641.123 L 179.510 641.326 L 178.429 641.555 L 177.355 641.811 L 176.287 642.093 L 175.227 642.401 L 174.174 642.735 L 173.130 643.095 L 172.095 643.480 L 171.069 643.890 L 170.054 644.326 L 169.050 644.786 L 168.058 645.271 L 167.078 645.780 L 166.111 646.313 L 165.157 646.870 L 164.217 647.450 L 163.291 648.052 L 162.381 648.678 L 161.486 649.325 L 160.607 649.994 L 159.745 650.685 L 158.901 651.396 L 158.073 652.128 L 157.265 652.880 L 156.474 653.652 L 155.703 654.442 L 154.952 655.252 L 154.221 656.080 L 153.510 656.925 L 152.820 657.788 L 152.152 658.667 L 151.506 659.562 L 150.881 660.473 L 150.279 661.399 L 149.700 662.340 L 149.145 663.294 L 148.612 664.262 L 148.104 665.243 L 147.620 666.235 L 147.161 667.240 L 146.726 668.255 L 146.316 669.281 L 145.932 670.316 L 145.573 671.360 L 145.240 672.413 L 144.933 673.474 L 144.652 674.542 L 144.397 675.617 L 144.169 676.698 L 143.967 677.784 L 143.792 678.874 L 143.644 679.968 L 143.523 681.066 L 143.429 682.167 L 143.361 683.269 L 143.321 684.373 L 143.308 685.477 L 143.322 686.581 L 143.363 687.685 L 143.431 688.787 L 143.527 689.888 L 143.649 690.985 L 143.798 692.080 L 143.974 693.170 L 144.177 694.256 L 144.406 695.336 L 144.661 696.411 L 144.943 697.478 L 145.251 698.539 L 145.585 699.592 L 145.945 700.636 L 146.330 701.671 L 146.741 702.696 L 147.177 703.711 L 147.637 704.715 L 148.122 705.708 L 148.631 706.688 L 149.164 707.655 L 149.519 708.281 L 149.655 708.520 L 150.014 709.144 L 150.152 709.382 L 150.515 710.004 L 150.654 710.241 L 151.020 710.860 L 151.161 711.097 L 151.531 711.714 L 151.674 711.950 L 152.048 712.564 L 152.192 712.799 L 152.569 713.411 L 152.715 713.646 L 153.096 714.255 L 153.243 714.489 L 153.628 715.096 L 153.776 715.329 L 154.164 715.933 L 154.314 716.165 L 154.706 716.767 L 154.858 716.998 L 155.253 717.598 L 155.406 717.828 L 155.806 718.425 L 155.960 718.654 L 156.363 719.249 L 156.519 719.477 L 156.925 720.070 L 157.082 720.297 L 157.492 720.886 L 157.651 721.113 L 158.065 721.700 L 158.225 721.925 L 158.642 722.510 L 158.803 722.734 L 159.224 723.316 L 159.387 723.540 L 159.811 724.119 L 159.976 724.341 L 160.403 724.918 L 160.569 725.139 L 161.000 725.713 L 161.167 725.934 L 161.602 726.505 L 161.771 726.724 L 162.209 727.292 L 162.379 727.511 L 162.820 728.076 L 162.992 728.294 L 163.436 728.857 L 163.609 729.074 L 164.058 729.633 L 164.232 729.849 L 164.683 730.406 L 164.859 730.621 L 165.314 731.175 L 165.491 731.389 L 165.949 731.939 L 166.127 732.152 L 166.589 732.700 L 166.769 732.912 L 167.234 733.457 L 167.415 733.668 L 167.883 734.210 L 168.065 734.420 L 168.537 734.959 L 168.721 735.167 L 169.195 735.703 L 169.380 735.911 L 169.859 736.444 L 170.045 736.651 L 170.526 737.180 L 170.714 737.386 L 171.198 737.913 L 171.387 738.117 L 171.875 738.641 L 172.065 738.844 L 172.556 739.365 L 172.748 739.567 L 173.242 740.085 L 173.435 740.286 L 173.932 740.800 L 174.126 741.000 L 174.626 741.511 L 174.822 741.710 L 175.325 742.218 L 175.522 742.415 L 176.028 742.920 L 176.226 743.117 L 176.735 743.618 L 176.935 743.813 L 177.447 744.312 L 177.648 744.506 L 178.163 745.001 L 178.365 745.194 L 178.883 745.686 L 179.087 745.877 L 179.608 746.366 L 179.812 746.556 L 180.336 747.041 L 180.542 747.231 L 181.069 747.712 L 181.276 747.900 L 181.806 748.379 L 182.014 748.566 L 182.547 749.041 L 182.757 749.226 L 183.292 749.698 L 183.503 749.882 L 184.042 750.351 L 184.254 750.534 L 184.795 750.999 L 185.008 751.180 L 185.552 751.642 L 185.766 751.822 L 186.313 752.280 L 186.529 752.459 L 187.079 752.914 L 187.295 753.092 L 187.848 753.543 L 188.065 753.719 L 188.621 754.167 L 188.839 754.342 L 189.397 754.786 L 189.617 754.960 L 190.178 755.401 L 190.399 755.573 L 190.962 756.010 L 191.185 756.181 L 191.751 756.615 L 191.974 756.785 L 192.543 757.214 L 192.767 757.383 L 193.338 757.809 L 193.564 757.976 L 194.138 758.398 L 194.364 758.564 L 194.941 758.983 L 195.168 759.148 L 195.747 759.563 L 195.976 759.726 L 196.557 760.137 L 196.787 760.299 L 197.371 760.707 L 197.602 760.867 L 198.188 761.271 L 198.421 761.430 L 199.009 761.830 L 199.242 761.988 L 199.833 762.384 L 200.068 762.540 L 200.661 762.933 L 200.896 763.088 L 201.492 763.477 L 201.728 763.630 L 202.326 764.015 L 202.564 764.167 L 203.164 764.548 L 203.403 764.699 L 204.005 765.076 L 204.245 765.225 L 204.850 765.599 L 205.090 765.746 L 205.697 766.116 L 205.939 766.262 L 206.548 766.628 L 206.790 766.773 L 207.402 767.135 L 207.645 767.278 L 208.259 767.636 L 208.504 767.778 L 209.119 768.132 L 209.365 768.272 L 209.983 768.622 L 210.229 768.761 L 210.849 769.107 L 211.096 769.244 L 211.718 769.587 L 211.967 769.722 L 212.591 770.061 L 212.840 770.195 L 213.466 770.529 L 213.716 770.662 L 214.344 770.992 L 214.595 771.123 L 215.225 771.450 L 215.477 771.579 L 216.109 771.902 L 216.362 772.030 L 216.996 772.348 L 217.250 772.474 L 217.886 772.789 L 218.140 772.914 L 218.778 773.224 L 219.033 773.347 L 219.673 773.654 L 219.929 773.775 L 220.570 774.077 L 220.827 774.197 L 221.471 774.496 L 221.728 774.614 L 222.374 774.908 L 222.632 775.025 L 223.279 775.315 L 223.538 775.430 L 224.187 775.716 L 224.447 775.830 L 225.097 776.111 L 225.358 776.223 L 226.010 776.501 L 226.272 776.611 L 226.926 776.885 L 227.188 776.993 L 227.843 777.263 L 228.106 777.370 L 228.764 777.635 L 229.027 777.740 L 229.686 778.001 L 229.950 778.105 L 230.611 778.362 L 230.876 778.464 L 231.538 778.717 L 231.803 778.817 L 232.467 779.065 L 232.733 779.164 L 233.398 779.408 L 233.665 779.506 L 234.332 779.746 L 234.599 779.841 L 235.267 780.077 L 235.536 780.171 L 236.205 780.402 L 236.474 780.494 L 237.144 780.721 L 237.414 780.812 L 238.086 781.035 L 238.356 781.123 L 239.029 781.342 L 239.300 781.429 L 239.975 781.643 L 240.247 781.729 L 240.922 781.939 L 241.194 782.023 L 241.872 782.228 L 242.144 782.310 L 242.823 782.512 L 243.096 782.592 L 243.775 782.789 L 244.049 782.868 L 244.730 783.060 L 245.004 783.137 L 245.686 783.326 L 245.961 783.401 L 246.644 783.585 L 246.919 783.658 L 247.603 783.838 L 247.879 783.910 L 248.564 784.085 L 248.841 784.155 L 249.527 784.326 L 249.804 784.394 L 250.491 784.561 L 250.768 784.627 L 251.456 784.790 L 251.734 784.854 L 252.423 785.012 L 252.702 785.075 L 253.392 785.229 L 253.670 785.290 L 254.361 785.439 L 254.640 785.499 L 255.332 785.643 L 255.612 785.701 L 256.305 785.841 L 256.584 785.897 L 257.278 786.033 L 257.558 786.087 L 258.253 786.219 L 258.533 786.271 L 259.228 786.398 L 259.509 786.449 L 260.205 786.572 L 260.487 786.620 L 261.183 786.739 L 261.465 786.786 L 262.162 786.900 L 262.444 786.945 L 263.142 787.054 L 263.425 787.098 L 264.123 787.203 L 264.406 787.244 L 265.105 787.345 L 265.388 787.385 L 266.088 787.481 L 266.371 787.519 L 267.072 787.611 L 267.355 787.647 L 268.056 787.734 L 268.340 787.769 L 269.041 787.851 L 269.325 787.884 L 270.027 787.962 L 270.311 787.993 L 271.014 788.067 L 271.298 788.096 L 272.001 788.166 L 272.286 788.193 L 272.989 788.258 L 273.274 788.283 L 273.977 788.344 L 274.262 788.367 L 274.966 788.423 L 275.251 788.445 L 275.955 788.497 L 276.241 788.517 L 276.945 788.564 L 277.231 788.582 L 277.936 788.624 L 278.221 788.641 L 278.926 788.679 L 279.212 788.693 L 279.917 788.727 L 280.203 788.740 L 280.908 788.769 L 281.194 788.780 L 281.900 788.804 L 282.186 788.814 L 282.891 788.834 L 283.177 788.841 L 283.883 788.857 L 284.169 788.862 L 284.875 788.873 L 285.161 788.877 L 285.867 788.884 L 286.153 788.886 L 286.859 788.888 L 287.002 788.888 L 364.157 788.888 L 364.297 788.886 L 364.437 788.887 L 366.411 788.875 L 366.971 788.868 L 368.945 788.831 L 369.505 788.817 L 371.479 788.756 L 372.038 788.735 L 374.011 788.649 L 374.570 788.621 L 376.542 788.511 L 377.100 788.476 L 379.071 788.341 L 379.629 788.299 L 381.597 788.140 L 382.155 788.091 L 384.121 787.907 L 384.678 787.851 L 386.642 787.643 L 387.198 787.581 L 389.160 787.348 L 389.715 787.278 L 391.673 787.021 L 392.227 786.945 L 394.183 786.663 L 394.736 786.580 L 396.688 786.274 L 397.240 786.184 L 399.188 785.854 L 399.738 785.758 L 401.683 785.403 L 402.232 785.300 L 404.172 784.921 L 404.719 784.811 L 406.655 784.408 L 407.201 784.291 L 409.131 783.864 L 409.676 783.741 L 411.601 783.290 L 412.144 783.159 L 414.063 782.685 L 414.604 782.548 L 416.518 782.049 L 417.057 781.905 L 418.965 781.383 L 419.502 781.233 L 421.404 780.687 L 421.939 780.530 L 423.834 779.960 L 424.367 779.797 L 426.255 779.204 L 426.785 779.033 L 428.666 778.417 L 429.195 778.240 L 431.068 777.601 L 431.594 777.417 L 433.460 776.754 L 433.983 776.565 L 435.841 775.879 L 436.362 775.683 L 438.211 774.974 L 438.729 774.771 L 440.571 774.039 L 441.086 773.830 L 442.918 773.075 L 443.430 772.861 L 445.254 772.083 L 445.763 771.862 L 447.577 771.061 L 448.084 770.834 L 449.888 770.011 L 450.391 769.778 L 452.186 768.933 L 452.686 768.693 L 454.471 767.826 L 454.968 767.580 L 456.742 766.691 L 457.235 766.439 L 458.999 765.528 L 459.489 765.270 L 461.241 764.337 L 461.728 764.073 L 463.469 763.118 L 463.953 762.849 L 465.683 761.872 L 466.162 761.597 L 467.880 760.599 L 468.357 760.319 L 470.063 759.299 L 470.535 759.013 L 472.229 757.972 L 472.698 757.680 L 474.379 756.619 L 474.844 756.321 L 476.513 755.239 L 476.974 754.936 L 478.630 753.832 L 479.086 753.524 L 480.729 752.400 L 481.182 752.087 L 482.811 750.942 L 483.260 750.623 L 484.876 749.459 L 485.320 749.135 L 486.922 747.950 L 487.362 747.621 L 488.950 746.417 L 489.385 746.082 L 490.959 744.858 L 491.390 744.518 L 492.949 743.275 L 493.376 742.930 L 494.920 741.668 L 495.342 741.318 L 496.871 740.036 L 497.289 739.681 L 498.803 738.381 L 499.216 738.021 L 500.714 736.702 L 501.123 736.338 L 502.605 735.000 L 503.009 734.631 L 504.476 733.274 L 504.875 732.901 L 506.325 731.526 L 506.720 731.148 L 508.154 729.756 L 508.543 729.373 L 509.961 727.963 L 510.345 727.576 L 511.746 726.148 L 512.126 725.756 L 513.509 724.311 L 513.884 723.915 L 515.250 722.453 L 515.620 722.053 L 516.969 720.574 L 517.334 720.170 L 518.665 718.674 L 519.025 718.266 L 520.338 716.754 L 520.692 716.341 L 521.988 714.813 L 522.337 714.396 L 523.615 712.852 L 523.958 712.431 L 525.218 710.871 L 525.556 710.447 L 526.797 708.871 L 527.130 708.443 L 528.352 706.852 L 528.679 706.420 L 529.882 704.814 L 530.205 704.378 L 531.388 702.757 L 531.705 702.318 L 532.870 700.683 L 533.181 700.240 L 534.326 698.590 L 534.632 698.144 L 535.758 696.480 L 536.058 696.030 L 537.164 694.353 L 537.459 693.900 L 538.544 692.208 L 538.834 691.752 L 539.899 690.047 L 540.183 689.588 L 541.228 687.870 L 541.506 687.407 L 542.531 685.677 L 542.803 685.211 L 543.808 683.468 L 544.074 682.999 L 545.058 681.243 L 545.319 680.772 L 546.282 679.004 L 546.537 678.530 L 547.479 676.750 L 547.728 676.273 L 548.648 674.482 L 548.892 674.002 L 549.791 672.199 L 550.029 671.717 L 550.907 669.903 L 551.138 669.418 L 551.995 667.594 L 552.220 667.106 L 553.056 665.271 L 553.275 664.781 L 554.088 662.936 L 554.302 662.444 L 555.093 660.588 L 555.301 660.094 L 556.071 658.229 L 556.272 657.732 L 557.020 655.858 L 557.215 655.359 L 557.940 653.475 L 558.130 652.974 L 558.833 651.082 L 559.016 650.579 L 559.696 648.678 L 559.874 648.173 L 560.532 646.263 L 560.703 645.756 L 561.338 643.839 L 561.503 643.330 L 562.116 641.405 L 562.275 640.895 L 562.865 638.962 L 563.018 638.450 L 563.584 636.510 L 563.731 635.996 L 564.275 634.050 L 564.416 633.534 L 564.936 631.581 L 565.071 631.064 L 565.569 629.105 L 565.697 628.586 L 566.171 626.621 L 566.293 626.101 L 566.745 624.130 L 566.860 623.609 L 567.288 621.632 L 567.398 621.110 L 567.802 619.128 L 567.906 618.605 L 568.287 616.618 L 568.384 616.093 L 568.741 614.102 L 568.832 613.577 L 569.166 611.581 L 569.251 611.055 L 569.561 609.055 L 569.639 608.528 L 569.926 606.524 L 569.998 605.996 L 570.261 603.989 L 570.327 603.461 L 570.566 601.451 L 570.625 600.921 L 570.841 598.908 L 570.894 598.379 L 571.085 596.363 L 571.133 595.833 L 571.300 593.815 L 571.341 593.284 L 571.485 591.265 L 571.519 590.733 L 571.639 588.712 L 571.667 588.180 L 571.763 586.158 L 571.785 585.626 L 571.857 583.602 L 571.873 583.070 L 571.920 581.046 L 571.930 580.514 L 571.954 578.489 L 571.957 577.956 L 571.957 575.932 L 571.954 575.399 L 571.930 573.374 L 571.920 572.842 L 571.873 570.818 L 571.857 570.286 L 571.785 568.262 L 571.763 567.730 L 571.667 565.708 L 571.639 565.176 L 571.519 563.155 L 571.485 562.623 L 571.341 560.604 L 571.300 560.073 L 571.133 558.055 L 571.085 557.525 L 570.894 555.509 L 570.841 554.980 L 570.625 552.967 L 570.566 552.437 L 570.327 550.427 L 570.261 549.899 L 569.998 547.892 L 569.926 547.364 L 569.639 545.360 L 569.561 544.833 L 569.251 542.833 L 569.166 542.307 L 568.832 540.311 L 568.741 539.786 L 568.384 537.795 L 568.287 537.270 L 567.906 535.283 L 567.802 534.760 L 567.398 532.778 L 567.288 532.256 L 566.860 530.279 L 566.745 529.758 L 566.293 527.787 L 566.171 527.267 L 565.697 525.302 L 565.569 524.783 L 565.071 522.824 L 564.936 522.307 L 564.416 520.354 L 564.275 519.838 L 563.731 517.892 L 563.584 517.378 L 563.018 515.438 L 562.865 514.926 L 562.275 512.993 L 562.116 512.483 L 561.503 510.558 L 561.338 510.049 L 560.703 508.132 L 560.532 507.625 L 559.874 505.715 L 559.696 505.210 L 559.016 503.309 L 558.833 502.806 L 558.130 500.914 L 557.940 500.413 L 557.215 498.529 L 557.020 498.030 L 556.272 496.156 L 556.071 495.659 L 555.301 493.794 L 555.093 493.300 L 554.302 491.444 L 554.088 490.952 L 553.275 489.107 L 553.056 488.617 L 552.220 486.782 L 551.995 486.294 L 551.138 484.470 L 550.907 483.985 L 550.029 482.171 L 549.791 481.689 L 548.892 479.886 L 548.648 479.406 L 547.728 477.615 L 547.479 477.138 L 546.537 475.358 L 546.282 474.884 L 545.319 473.116 L 545.058 472.645 L 544.074 470.889 L 543.808 470.420 L 542.803 468.677 L 542.531 468.211 L 541.506 466.481 L 541.228 466.018 L 540.183 464.300 L 539.899 463.841 L 538.834 462.136 L 538.544 461.680 L 537.459 459.988 L 537.164 459.535 L 536.058 457.858 L 535.758 457.408 L 534.632 455.744 L 534.326 455.298 L 533.181 453.648 L 532.870 453.205 L 531.705 451.570 L 531.388 451.131 L 530.205 449.510 L 529.882 449.074 L 528.679 447.468 L 528.352 447.036 L 527.130 445.445 L 526.797 445.017 L 525.556 443.441 L 525.218 443.017 L 523.958 441.457 L 523.615 441.036 L 522.337 439.492 L 521.988 439.075 L 520.692 437.547 L 520.338 437.134 L 519.025 435.622 L 518.665 435.214 L 517.334 433.718 L 516.969 433.314 L 515.620 431.835 L 515.250 431.435 L 513.884 429.973 L 513.509 429.577 L 512.126 428.132 L 511.746 427.740 L 510.345 426.312 L 509.961 425.925 L 508.543 424.515 L 508.154 424.132 L 506.720 422.740 L 506.325 422.362 L 504.875 420.987 L 504.476 420.614 L 503.009 419.257 L 502.605 418.888 L 501.123 417.550 L 500.714 417.186 L 499.216 415.867 L 498.803 415.507 L 497.289 414.207 L 496.871 413.852 L 495.342 412.570 L 494.920 412.220 L 493.376 410.958 L 492.949 410.613 L 492.181 410.000 L 492.949 409.387 L 493.376 409.042 L 494.920 407.780 L 495.342 407.430 L 496.871 406.148 L 497.289 405.793 L 498.803 404.493 L 499.216 404.133 L 500.714 402.814 L 501.123 402.450 L 502.605 401.112 L 503.009 400.743 L 504.476 399.386 L 504.875 399.013 L 506.325 397.638 L 506.720 397.260 L 508.154 395.868 L 508.543 395.485 L 509.961 394.075 L 510.345 393.688 L 511.746 392.260 L 512.126 391.868 L 513.509 390.423 L 513.884 390.027 L 515.250 388.565 L 515.620 388.165 L 516.969 386.686 L 517.334 386.282 L 518.665 384.786 L 519.025 384.378 L 520.338 382.866 L 520.692 382.453 L 521.988 380.925 L 522.337 380.508 L 523.615 378.964 L 523.958 378.543 L 525.218 376.983 L 525.556 376.559 L 526.797 374.983 L 527.130 374.555 L 528.352 372.964 L 528.679 372.532 L 529.882 370.926 L 530.205 370.490 L 531.388 368.869 L 531.705 368.430 L 532.870 366.795 L 533.181 366.352 L 534.326 364.702 L 534.632 364.256 L 535.758 362.592 L 536.058 362.142 L 537.164 360.465 L 537.459 360.012 L 538.544 358.320 L 538.834 357.864 L 539.899 356.159 L 540.183 355.700 L 541.228 353.982 L 541.506 353.519 L 542.531 351.789 L 542.803 351.323 L 543.808 349.580 L 544.074 349.111 L 545.058 347.355 L 545.319 346.884 L 546.282 345.116 L 546.537 344.642 L 547.479 342.862 L 547.728 342.385 L 548.648 340.594 L 548.892 340.114 L 549.791 338.311 L 550.029 337.829 L 550.907 336.015 L 551.138 335.530 L 551.995 333.706 L 552.220 333.218 L 553.056 331.383 L 553.275 330.893 L 554.088 329.048 L 554.302 328.556 L 555.093 326.700 L 555.301 326.206 L 556.071 324.341 L 556.272 323.844 L 557.020 321.970 L 557.215 321.471 L 557.940 319.587 L 558.130 319.086 L 558.833 317.194 L 559.016 316.691 L 559.696 314.790 L 559.874 314.285 L 560.532 312.375 L 560.703 311.868 L 561.338 309.951 L 561.503 309.442 L 562.116 307.517 L 562.275 307.007 L 562.865 305.074 L 563.018 304.562 L 563.584 302.622 L 563.731 302.108 L 564.275 300.162 L 564.416 299.646 L 564.936 297.693 L 565.071 297.176 L 565.569 295.217 L 565.697 294.698 L 566.171 292.733 L 566.293 292.213 L 566.745 290.242 L 566.860 289.721 L 567.288 287.744 L 567.398 287.222 L 567.802 285.240 L 567.906 284.717 L 568.287 282.730 L 568.384 282.205 L 568.741 280.214 L 568.832 279.689 L 569.166 277.693 L 569.251 277.167 L 569.561 275.167 L 569.639 274.640 L 569.926 272.636 L 569.998 272.108 L 570.261 270.101 L 570.327 269.573 L 570.566 267.563 L 570.625 267.033 L 570.841 265.020 L 570.894 264.491 L 571.085 262.475 L 571.133 261.945 L 571.300 259.927 L 571.341 259.396 L 571.485 257.377 L 571.519 256.845 L 571.639 254.824 L 571.667 254.292 L 571.763 252.270 L 571.785 251.738 L 571.857 249.714 L 571.873 249.182 L 571.920 247.158 L 571.930 246.626 L 571.954 244.601 L 571.957 244.068 L 571.957 242.044 L 571.954 241.511 L 571.930 239.486 L 571.920 238.954 L 571.873 236.930 L 571.857 236.398 L 571.785 234.374 L 571.763 233.842 L 571.667 231.820 L 571.639 231.288 L 571.519 229.267 L 571.485 228.735 L 571.341 226.716 L 571.300 226.185 L 571.133 224.167 L 571.085 223.637 L 570.894 221.621 L 570.841 221.092 L 570.625 219.079 L 570.566 218.549 L 570.327 216.539 L 570.261 216.011 L 569.998 214.004 L 569.926 213.476 L 569.639 211.472 L 569.561 210.945 L 569.251 208.945 L 569.166 208.419 L 568.832 206.423 L 568.741 205.898 L 568.384 203.907 L 568.287 203.382 L 567.906 201.395 L 567.802 200.872 L 567.398 198.890 L 567.288 198.368 L 566.860 196.391 L 566.745 195.870 L 566.293 193.899 L 566.171 193.379 L 565.697 191.414 L 565.569 190.895 L 565.071 188.936 L 564.936 188.419 L 564.416 186.466 L 564.275 185.950 L 563.731 184.004 L 563.584 183.490 L 563.018 181.550 L 562.865 181.038 L 562.275 179.105 L 562.116 178.595 L 561.503 176.670 L 561.338 176.161 L 560.703 174.244 L 560.532 173.737 L 559.874 171.827 L 559.696 171.322 L 559.016 169.421 L 558.833 168.918 L 558.130 167.026 L 557.940 166.525 L 557.215 164.641 L 557.020 164.142 L 556.272 162.268 L 556.071 161.771 L 555.301 159.906 L 555.093 159.412 L 554.302 157.556 L 554.088 157.064 L 553.275 155.219 L 553.056 154.729 L 552.220 152.894 L 551.995 152.406 L 551.138 150.582 L 550.907 150.097 L 550.029 148.283 L 549.791 147.801 L 548.892 145.998 L 548.648 145.518 L 547.728 143.727 L 547.479 143.250 L 546.537 141.470 L 546.282 140.996 L 545.319 139.228 L 545.058 138.757 L 544.074 137.001 L 543.808 136.532 L 542.803 134.789 L 542.531 134.323 L 541.506 132.593 L 541.228 132.130 L 540.183 130.412 L 539.899 129.953 L 538.834 128.248 L 538.544 127.792 L 537.459 126.100 L 537.164 125.647 L 536.058 123.970 L 535.758 123.520 L 534.632 121.856 L 534.326 121.410 L 533.181 119.760 L 532.870 119.317 L 531.705 117.682 L 531.388 117.243 L 530.205 115.622 L 529.882 115.186 L 528.679 113.580 L 528.352 113.148 L 527.130 111.557 L 526.797 111.129 L 525.556 109.553 L 525.218 109.129 L 523.958 107.569 L 523.615 107.148 L 522.337 105.604 L 521.988 105.187 L 520.692 103.659 L 520.338 103.246 L 519.025 101.734 L 518.665 101.326 L 517.334 99.830 L 516.969 99.426 L 515.620 97.947 L 515.250 97.547 L 513.884 96.085 L 513.509 95.689 L 512.126 94.244 L 511.746 93.852 L 510.345 92.424 L 509.961 92.037 L 508.543 90.627 L 508.154 90.244 L 506.720 88.852 L 506.325 88.474 L 504.875 87.099 L 504.476 86.726 L 503.009 85.369 L 502.605 85.000 L 501.123 83.662 L 500.714 83.298 L 499.216 81.979 L 498.803 81.619 L 497.289 80.319 L 496.871 79.964 L 495.342 78.682 L 494.920 78.332 L 493.376 77.070 L 492.949 76.725 L 491.390 75.482 L 490.959 75.142 L 489.385 73.918 L 488.950 73.583 L 487.362 72.379 L 486.922 72.050 L 485.320 70.865 L 484.876 70.541 L 483.260 69.377 L 482.811 69.058 L 481.182 67.913 L 480.729 67.600 L 479.086 66.476 L 478.630 66.168 L 476.974 65.064 L 476.513 64.761 L 474.844 63.679 L 474.379 63.381 L 472.698 62.320 L 472.229 62.028 L 470.535 60.987 L 470.063 60.701 L 468.357 59.681 L 467.880 59.401 L 466.162 58.403 L 465.683 58.128 L 463.953 57.151 L 463.469 56.882 L 461.728 55.927 L 461.241 55.663 L 459.489 54.730 L 458.999 54.472 L 457.235 53.561 L 456.742 53.309 L 454.968 52.420 L 454.471 52.174 L 452.686 51.307 L 452.186 51.067 L 450.391 50.222 L 449.888 49.989 L 448.084 49.166 L 447.577 48.939 L 445.763 48.138 L 445.254 47.917 L 443.430 47.139 L 442.918 46.925 L 441.086 46.170 L 440.571 45.961 L 438.729 45.229 L 438.211 45.026 L 436.362 44.317 L 435.841 44.121 L 433.983 43.435 L 433.460 43.246 L 431.594 42.583 L 431.068 42.399 L 429.195 41.760 L 428.666 41.583 L 426.785 40.967 L 426.255 40.796 L 424.367 40.203 L 423.834 40.040 L 421.939 39.470 L 421.404 39.313 L 419.502 38.767 L 418.965 38.617 L 417.057 38.095 L 416.518 37.951 L 414.604 37.452 L 414.063 37.315 L 412.144 36.841 L 411.601 36.710 L 409.676 36.259 L 409.131 36.136 L 407.201 35.709 L 406.655 35.592 L 404.719 35.189 L 404.172 35.079 L 402.232 34.700 L 401.683 34.597 L 399.738 34.242 L 399.188 34.146 L 397.240 33.816 L 396.688 33.726 L 394.736 33.420 L 394.183 33.337 L 392.227 33.055 L 391.673 32.979 L 389.715 32.722 L 389.160 32.652 L 387.198 32.419 L 386.642 32.357 L 384.678 32.149 L 384.121 32.093 L 382.155 31.909 L 381.597 31.860 L 379.629 31.701 L 379.071 31.659 L 377.100 31.524 L 376.542 31.489 L 374.570 31.379 L 374.011 31.351 L 372.038 31.265 L 371.479 31.244 L 369.505 31.183 L 368.945 31.169 L 366.971 31.132 L 366.411 31.125 L 364.437 31.113 L 364.297 31.114 L 364.157 31.112 L 287.002 31.112 L 286.859 31.112 L 286.153 31.114 Z" fill="black" fill-rule="evenodd"/>
</svg>
