<svg xmlns="http://www.w3.org/2000/svg" viewBox="0 0 600.000 1000" width="600.000" height="1000">
  <path d="M 248.550 480.463 L 249.292 479.425 L 250.134 478.324 L 251.071 477.174 L 252.104 475.981 L 253.232 474.747 L 254.457 473.479 L 255.777 472.181 L 257.191 470.856 L 258.698 469.510 L 260.295 468.146 L 261.981 466.767 L 263.753 465.379 L 265.608 463.982 L 267.544 462.582 L 269.559 461.180 L 271.648 459.780 L 273.810 458.383 L 276.040 456.993 L 278.337 455.611 L 280.696 454.239 L 283.115 452.879 L 285.591 451.533 L 288.120 450.202 L 290.699 448.888 L 293.325 447.593 L 295.994 446.317 L 298.705 445.062 L 301.453 443.829 L 304.235 442.619 L 307.049 441.434 L 309.891 440.273 L 312.757 439.138 L 315.646 438.030 L 318.553 436.950 L 321.476 435.898 L 324.412 434.875 L 327.357 433.882 L 330.308 432.920 L 333.262 431.988 L 336.216 431.088 L 339.167 430.221 L 342.112 429.386 L 345.047 428.585 L 347.970 427.817 L 350.876 427.083 L 353.763 426.384 L 356.627 425.721 L 359.465 425.092 L 362.274 424.500 L 365.050 423.944 L 367.789 423.424 L 370.488 422.941 L 373.143 422.495 L 375.750 422.085 L 378.305 421.713 L 380.805 421.379 L 383.244 421.081 L 385.618 420.821 L 387.923 420.598 L 390.153 420.411 L 392.304 420.260 L 394.369 420.145 L 396.344 420.064 L 398.221 420.017 L 400.388 419.998 L 401.492 419.975 L 402.595 419.925 L 403.697 419.848 L 404.796 419.744 L 405.893 419.612 L 406.986 419.454 L 408.075 419.270 L 409.159 419.058 L 410.237 418.820 L 411.310 418.556 L 412.375 418.265 L 413.433 417.948 L 414.483 417.606 L 415.525 417.237 L 416.556 416.844 L 417.578 416.425 L 418.590 415.981 L 419.590 415.512 L 420.578 415.019 L 421.554 414.502 L 422.517 413.961 L 423.466 413.397 L 424.402 412.810 L 425.322 412.199 L 426.227 411.567 L 427.117 410.912 L 427.990 410.236 L 428.846 409.538 L 429.685 408.820 L 430.506 408.081 L 431.309 407.323 L 432.093 406.544 L 432.857 405.747 L 433.602 404.932 L 434.326 404.098 L 435.030 403.247 L 435.713 402.379 L 436.374 401.494 L 437.013 400.593 L 437.630 399.677 L 438.224 398.746 L 438.796 397.801 L 439.344 396.842 L 439.868 395.870 L 440.368 394.885 L 440.844 393.889 L 441.295 392.881 L 441.721 391.862 L 442.123 390.833 L 442.499 389.794 L 442.849 388.747 L 443.173 387.691 L 443.472 386.628 L 443.744 385.558 L 443.990 384.481 L 444.209 383.398 L 444.402 382.311 L 444.568 381.219 L 444.707 380.123 L 444.820 379.025 L 444.905 377.924 L 444.963 376.821 L 444.994 375.717 L 444.998 374.612 L 444.975 373.508 L 444.925 372.405 L 444.848 371.303 L 444.744 370.204 L 444.612 369.107 L 444.454 368.014 L 444.270 366.925 L 444.058 365.841 L 443.820 364.763 L 443.556 363.690 L 443.265 362.625 L 442.948 361.567 L 442.606 360.517 L 442.237 359.475 L 441.844 358.444 L 441.425 357.422 L 440.981 356.410 L 440.512 355.410 L 440.019 354.422 L 439.502 353.446 L 438.961 352.483 L 438.397 351.534 L 437.810 350.598 L 437.199 349.678 L 436.567 348.773 L 435.912 347.883 L 435.236 347.010 L 434.538 346.154 L 433.820 345.315 L 433.081 344.494 L 432.323 343.691 L 431.544 342.907 L 430.747 342.143 L 429.932 341.398 L 429.098 340.674 L 428.247 339.970 L 427.379 339.287 L 426.494 338.626 L 425.593 337.987 L 424.677 337.370 L 423.746 336.776 L 422.801 336.204 L 421.842 335.656 L 420.870 335.132 L 419.885 334.632 L 418.889 334.156 L 417.881 333.705 L 416.862 333.279 L 415.833 332.877 L 414.794 332.501 L 413.747 332.151 L 412.691 331.827 L 411.628 331.528 L 410.558 331.256 L 409.481 331.010 L 408.398 330.791 L 407.311 330.598 L 406.219 330.432 L 405.123 330.293 L 404.025 330.180 L 402.924 330.095 L 401.821 330.037 L 400.717 330.006 L 399.612 330.002 L 397.074 330.024 L 396.330 330.036 L 393.728 330.102 L 393.024 330.125 L 390.362 330.234 L 389.692 330.266 L 386.972 330.418 L 386.333 330.458 L 383.557 330.652 L 382.947 330.699 L 380.118 330.936 L 379.532 330.989 L 376.653 331.268 L 376.090 331.326 L 373.162 331.647 L 372.619 331.710 L 369.646 332.073 L 369.121 332.140 L 366.105 332.544 L 365.596 332.615 L 362.539 333.060 L 362.044 333.135 L 358.948 333.621 L 358.466 333.699 L 355.335 334.225 L 354.864 334.307 L 351.699 334.873 L 351.239 334.958 L 348.043 335.565 L 347.591 335.653 L 344.366 336.299 L 343.922 336.391 L 340.671 337.076 L 340.233 337.171 L 336.959 337.896 L 336.526 337.994 L 333.231 338.757 L 332.803 338.859 L 329.489 339.661 L 329.064 339.766 L 325.735 340.606 L 325.312 340.715 L 321.969 341.594 L 321.548 341.706 L 318.194 342.622 L 317.774 342.739 L 314.411 343.692 L 313.992 343.813 L 310.622 344.804 L 310.202 344.930 L 306.828 345.957 L 306.408 346.088 L 303.033 347.152 L 302.610 347.287 L 299.236 348.388 L 298.811 348.529 L 295.440 349.665 L 295.013 349.812 L 291.647 350.985 L 291.216 351.137 L 287.859 352.345 L 287.423 352.505 L 284.077 353.748 L 283.636 353.915 L 280.303 355.193 L 279.857 355.367 L 276.540 356.680 L 276.086 356.862 L 272.788 358.210 L 272.327 358.401 L 269.049 359.782 L 268.581 359.983 L 265.326 361.398 L 264.849 361.608 L 261.620 363.057 L 261.134 363.279 L 257.933 364.761 L 257.437 364.994 L 254.266 366.509 L 253.760 366.755 L 250.622 368.303 L 250.105 368.562 L 247.003 370.143 L 246.473 370.417 L 243.409 372.029 L 242.867 372.319 L 239.843 373.964 L 239.287 374.271 L 236.306 375.947 L 235.736 376.273 L 232.800 377.980 L 232.216 378.326 L 229.328 380.064 L 228.728 380.431 L 225.890 382.201 L 225.274 382.591 L 222.489 384.391 L 221.856 384.807 L 219.126 386.637 L 218.476 387.081 L 215.803 388.941 L 215.136 389.415 L 212.522 391.304 L 211.837 391.810 L 209.286 393.729 L 208.582 394.270 L 206.096 396.218 L 205.374 396.797 L 202.955 398.774 L 202.214 399.394 L 199.865 401.400 L 199.105 402.064 L 196.829 404.098 L 196.050 404.810 L 193.849 406.872 L 193.053 407.636 L 190.929 409.725 L 190.117 410.545 L 188.073 412.662 L 187.246 413.542 L 185.283 415.686 L 184.444 416.630 L 182.566 418.801 L 181.716 419.813 L 179.925 422.011 L 179.069 423.096 L 177.367 425.321 L 176.507 426.483 L 174.898 428.733 L 174.040 429.977 L 172.525 432.253 L 171.674 433.582 L 170.255 435.884 L 169.418 437.301 L 168.099 439.628 L 167.683 440.377 L 167.282 441.135 L 166.065 443.487 L 165.663 444.282 L 165.278 445.086 L 164.165 447.463 L 163.781 448.304 L 163.415 449.153 L 162.409 451.555 L 162.048 452.442 L 161.707 453.336 L 160.810 455.761 L 160.477 456.692 L 160.165 457.630 L 159.379 460.079 L 159.080 461.052 L 158.802 462.030 L 158.131 464.503 L 157.869 465.513 L 157.631 466.530 L 157.076 469.026 L 156.857 470.070 L 156.663 471.118 L 156.227 473.638 L 156.055 474.710 L 155.909 475.786 L 155.594 478.327 L 155.473 479.421 L 155.378 480.518 L 155.188 483.082 L 155.119 484.190 L 155.078 485.300 L 155.014 487.887 L 155.000 488.888 L 155.009 489.888 L 155.040 490.889 L 155.135 493.158 L 155.186 494.128 L 155.258 495.097 L 155.351 496.063 L 155.465 497.028 L 155.748 499.219 L 155.886 500.201 L 156.045 501.180 L 156.226 502.155 L 156.428 503.126 L 156.894 505.242 L 157.118 506.212 L 157.364 507.176 L 157.632 508.135 L 157.920 509.088 L 158.563 511.131 L 158.868 512.064 L 159.194 512.991 L 159.539 513.911 L 159.905 514.822 L 160.721 516.794 L 161.223 517.961 L 161.758 519.114 L 162.326 520.251 L 163.309 522.154 L 163.881 523.226 L 164.482 524.281 L 165.111 525.319 L 166.258 527.157 L 166.876 528.120 L 167.519 529.067 L 168.185 529.997 L 169.490 531.771 L 170.132 532.622 L 170.794 533.458 L 171.475 534.278 L 172.934 535.990 L 173.579 536.732 L 174.241 537.460 L 174.919 538.173 L 176.526 539.827 L 177.482 540.782 L 178.466 541.708 L 180.216 543.305 L 181.137 544.122 L 182.079 544.914 L 183.968 546.458 L 184.840 547.153 L 185.730 547.826 L 187.753 549.318 L 188.571 549.908 L 189.402 550.479 L 191.554 551.922 L 192.315 552.421 L 193.085 552.904 L 195.361 554.301 L 196.773 555.132 L 199.169 556.484 L 200.464 557.187 L 202.973 558.497 L 204.157 559.093 L 206.776 560.364 L 207.853 560.869 L 210.577 562.103 L 211.555 562.531 L 214.378 563.730 L 215.263 564.095 L 218.181 565.261 L 218.979 565.571 L 221.988 566.708 L 222.705 566.972 L 225.799 568.081 L 226.441 568.306 L 229.615 569.390 L 230.187 569.581 L 233.437 570.643 L 233.944 570.805 L 237.264 571.847 L 237.710 571.984 L 241.096 573.008 L 241.485 573.123 L 244.932 574.131 L 245.267 574.228 L 248.770 575.223 L 249.054 575.303 L 252.608 576.287 L 252.844 576.352 L 256.444 577.328 L 256.634 577.379 L 260.275 578.349 L 260.421 578.387 L 264.099 579.354 L 264.201 579.381 L 267.911 580.347 L 267.972 580.363 L 271.708 581.330 L 275.477 582.304 L 279.214 583.271 L 282.923 584.236 L 286.600 585.202 L 290.241 586.171 L 293.840 587.144 L 297.392 588.123 L 300.892 589.110 L 304.333 590.107 L 307.710 591.113 L 311.017 592.130 L 314.246 593.159 L 317.393 594.199 L 320.451 595.251 L 323.411 596.315 L 326.269 597.389 L 329.016 598.472 L 331.646 599.562 L 334.151 600.656 L 336.526 601.752 L 338.762 602.846 L 340.854 603.932 L 342.795 605.005 L 344.582 606.059 L 346.208 607.086 L 347.672 608.079 L 348.973 609.029 L 350.110 609.927 L 351.087 610.764 L 351.909 611.533 L 352.586 612.226 L 353.130 612.839 L 353.555 613.370 L 353.878 613.822 L 354.120 614.203 L 354.299 614.525 L 354.436 614.809 L 354.546 615.078 L 354.643 615.364 L 354.734 615.699 L 354.821 616.117 L 354.900 616.654 L 354.958 617.342 L 354.986 618.329 L 354.969 619.085 L 354.910 619.980 L 354.808 620.897 L 354.663 621.845 L 354.468 622.831 L 354.221 623.861 L 353.917 624.938 L 353.551 626.065 L 353.118 627.245 L 352.614 628.478 L 352.035 629.763 L 351.377 631.100 L 350.638 632.486 L 349.816 633.918 L 348.907 635.395 L 347.911 636.913 L 346.827 638.469 L 345.654 640.058 L 344.393 641.678 L 343.045 643.324 L 341.609 644.993 L 340.087 646.682 L 338.481 648.387 L 336.792 650.105 L 335.023 651.833 L 333.175 653.568 L 331.251 655.306 L 329.253 657.045 L 327.183 658.782 L 325.045 660.516 L 322.840 662.243 L 320.572 663.961 L 318.244 665.668 L 315.858 667.363 L 313.417 669.043 L 310.924 670.706 L 308.383 672.350 L 305.795 673.975 L 303.165 675.578 L 300.495 677.157 L 297.788 678.713 L 295.047 680.242 L 292.275 681.744 L 289.475 683.218 L 286.651 684.661 L 283.805 686.074 L 280.940 687.455 L 278.060 688.803 L 275.168 690.117 L 272.266 691.395 L 269.359 692.638 L 266.448 693.843 L 263.538 695.011 L 260.632 696.139 L 257.732 697.228 L 254.843 698.276 L 251.966 699.284 L 249.107 700.248 L 246.268 701.171 L 243.453 702.049 L 240.665 702.884 L 237.909 703.674 L 235.187 704.418 L 232.504 705.116 L 229.863 705.769 L 227.269 706.374 L 224.726 706.932 L 222.239 707.443 L 219.811 707.906 L 217.447 708.321 L 215.154 708.689 L 212.935 709.009 L 210.797 709.283 L 208.744 709.510 L 206.785 709.692 L 204.924 709.829 L 203.169 709.925 L 201.528 709.980 L 199.484 710.003 L 198.379 710.029 L 197.276 710.083 L 196.175 710.163 L 195.076 710.270 L 193.979 710.405 L 192.887 710.566 L 191.798 710.754 L 190.715 710.968 L 189.637 711.209 L 188.566 711.477 L 187.501 711.771 L 186.444 712.090 L 185.395 712.436 L 184.355 712.807 L 183.324 713.204 L 182.303 713.626 L 181.293 714.073 L 180.294 714.544 L 179.308 715.040 L 178.333 715.560 L 177.372 716.103 L 176.424 716.670 L 175.490 717.260 L 174.572 717.873 L 173.668 718.508 L 172.781 719.166 L 171.909 719.844 L 171.055 720.544 L 170.218 721.265 L 169.399 722.006 L 168.599 722.767 L 167.817 723.547 L 167.055 724.347 L 166.313 725.164 L 165.591 726.000 L 164.889 726.853 L 164.209 727.724 L 163.550 728.610 L 162.914 729.513 L 162.299 730.430 L 161.708 731.363 L 161.139 732.310 L 160.594 733.270 L 160.073 734.244 L 159.575 735.230 L 159.102 736.228 L 158.654 737.237 L 158.231 738.257 L 157.832 739.288 L 157.459 740.327 L 157.112 741.376 L 156.791 742.432 L 156.495 743.496 L 156.226 744.568 L 155.983 745.645 L 155.767 746.728 L 155.577 747.816 L 155.414 748.908 L 155.278 750.004 L 155.169 751.103 L 155.087 752.205 L 155.032 753.308 L 155.004 754.412 L 155.003 755.516 L 155.029 756.621 L 155.083 757.724 L 155.163 758.825 L 155.270 759.924 L 155.405 761.021 L 155.566 762.113 L 155.754 763.202 L 155.968 764.285 L 156.209 765.363 L 156.477 766.434 L 156.771 767.499 L 157.090 768.556 L 157.436 769.605 L 157.807 770.645 L 158.204 771.676 L 158.626 772.697 L 159.073 773.707 L 159.544 774.706 L 160.040 775.692 L 160.560 776.667 L 161.103 777.628 L 161.670 778.576 L 162.260 779.510 L 162.873 780.428 L 163.508 781.332 L 164.166 782.219 L 164.844 783.091 L 165.544 783.945 L 166.265 784.782 L 167.006 785.601 L 167.767 786.401 L 168.547 787.183 L 169.347 787.945 L 170.164 788.687 L 171.000 789.409 L 171.853 790.111 L 172.724 790.791 L 173.610 791.450 L 174.513 792.086 L 175.430 792.701 L 176.363 793.292 L 177.310 793.861 L 178.270 794.406 L 179.244 794.927 L 180.230 795.425 L 181.228 795.898 L 182.237 796.346 L 183.257 796.769 L 184.288 797.168 L 185.327 797.541 L 186.376 797.888 L 187.432 798.209 L 188.496 798.505 L 189.568 798.774 L 190.645 799.017 L 191.728 799.233 L 192.816 799.423 L 193.908 799.586 L 195.004 799.722 L 196.103 799.831 L 197.205 799.913 L 198.308 799.968 L 199.412 799.996 L 200.516 799.997 L 203.055 799.968 L 204.043 799.946 L 206.645 799.859 L 207.577 799.818 L 210.239 799.673 L 211.121 799.617 L 213.841 799.416 L 214.677 799.346 L 217.453 799.089 L 218.248 799.008 L 221.077 798.695 L 221.834 798.604 L 224.714 798.236 L 225.437 798.138 L 228.365 797.715 L 229.058 797.609 L 232.031 797.132 L 232.697 797.021 L 235.713 796.490 L 236.354 796.373 L 239.411 795.790 L 240.029 795.667 L 243.124 795.032 L 243.722 794.905 L 246.853 794.218 L 247.432 794.087 L 250.597 793.348 L 251.160 793.213 L 254.356 792.424 L 254.903 792.285 L 258.127 791.446 L 258.662 791.303 L 261.912 790.414 L 262.435 790.268 L 265.708 789.330 L 266.220 789.180 L 269.515 788.194 L 270.018 788.040 L 273.332 787.006 L 273.826 786.848 L 277.156 785.766 L 277.643 785.605 L 280.987 784.477 L 281.468 784.311 L 284.823 783.136 L 285.299 782.967 L 288.663 781.746 L 289.135 781.572 L 292.505 780.307 L 292.974 780.128 L 296.348 778.817 L 296.814 778.633 L 300.190 777.279 L 300.654 777.090 L 304.029 775.692 L 304.492 775.497 L 307.864 774.057 L 308.327 773.856 L 311.692 772.373 L 312.156 772.165 L 315.513 770.641 L 315.978 770.426 L 319.324 768.860 L 319.790 768.639 L 323.123 767.032 L 323.592 766.802 L 326.909 765.156 L 327.382 764.918 L 330.680 763.231 L 331.156 762.984 L 334.435 761.259 L 334.915 761.002 L 338.170 759.239 L 338.655 758.972 L 341.885 757.170 L 342.376 756.892 L 345.577 755.053 L 346.074 754.763 L 349.245 752.887 L 349.749 752.584 L 352.887 750.672 L 353.398 750.356 L 356.500 748.408 L 357.019 748.078 L 360.083 746.095 L 360.610 745.748 L 363.635 743.731 L 364.170 743.367 L 367.152 741.316 L 367.697 740.935 L 370.633 738.850 L 371.188 738.449 L 374.077 736.331 L 374.642 735.910 L 377.480 733.759 L 378.056 733.316 L 380.841 731.134 L 381.428 730.666 L 384.158 728.453 L 384.756 727.960 L 387.429 725.716 L 388.038 725.195 L 390.651 722.921 L 391.271 722.371 L 393.822 720.067 L 394.454 719.485 L 396.940 717.152 L 397.583 716.536 L 400.001 714.175 L 400.655 713.523 L 403.004 711.133 L 403.669 710.442 L 405.945 708.025 L 406.620 707.293 L 408.821 704.849 L 409.505 704.072 L 411.630 701.602 L 412.322 700.778 L 414.366 698.282 L 415.065 697.408 L 417.027 694.887 L 417.731 693.959 L 419.609 691.413 L 420.315 690.429 L 422.106 687.860 L 422.812 686.816 L 424.513 684.223 L 425.216 683.116 L 426.826 680.500 L 427.522 679.329 L 429.038 676.691 L 429.723 675.451 L 431.142 672.791 L 431.812 671.482 L 433.131 668.801 L 433.781 667.421 L 434.998 664.718 L 435.622 663.265 L 436.735 660.543 L 437.327 659.018 L 438.333 656.276 L 438.617 655.479 L 438.885 654.678 L 439.782 651.917 L 440.044 651.085 L 440.289 650.249 L 441.074 647.470 L 441.309 646.604 L 441.527 645.734 L 442.199 642.937 L 442.404 642.039 L 442.592 641.137 L 443.146 638.323 L 443.319 637.396 L 443.472 636.466 L 443.908 633.634 L 444.044 632.682 L 444.160 631.726 L 444.474 628.878 L 444.571 627.904 L 444.647 626.927 L 444.837 624.064 L 444.892 623.072 L 444.925 622.079 L 444.989 619.200 L 445.000 618.071 L 444.982 616.942 L 444.887 613.533 L 444.832 612.241 L 444.741 610.952 L 444.458 607.650 L 444.325 606.327 L 444.153 605.008 L 443.688 601.811 L 443.472 600.471 L 443.216 599.138 L 442.573 596.044 L 442.273 594.702 L 441.932 593.370 L 441.116 590.376 L 440.865 589.490 L 440.596 588.609 L 440.308 587.735 L 439.325 584.838 L 438.863 583.542 L 438.361 582.261 L 437.214 579.459 L 436.680 578.209 L 436.109 576.975 L 434.804 574.266 L 434.208 573.075 L 433.577 571.902 L 432.119 569.283 L 431.473 568.160 L 430.794 567.057 L 429.187 564.526 L 428.502 563.480 L 427.788 562.453 L 426.038 560.007 L 425.327 559.041 L 424.590 558.094 L 422.701 555.732 L 421.975 554.848 L 421.227 553.983 L 419.204 551.701 L 418.474 550.898 L 417.725 550.113 L 415.573 547.910 L 414.849 547.185 L 414.108 546.477 L 411.832 544.349 L 411.120 543.699 L 410.395 543.064 L 408.000 541.010 L 407.308 540.429 L 406.604 539.861 L 404.094 537.879 L 403.426 537.361 L 402.749 536.856 L 400.129 534.943 L 398.840 534.035 L 396.116 532.188 L 394.889 531.384 L 392.065 529.601 L 390.901 528.890 L 387.982 527.168 L 386.883 526.540 L 383.875 524.878 L 382.841 524.324 L 379.747 522.718 L 378.778 522.229 L 375.604 520.678 L 374.698 520.247 L 371.449 518.747 L 370.605 518.368 L 367.284 516.918 L 366.500 516.584 L 363.114 515.180 L 362.387 514.886 L 358.940 513.528 L 358.268 513.269 L 354.766 511.953 L 354.147 511.725 L 350.593 510.449 L 350.026 510.249 L 346.426 509.010 L 345.907 508.835 L 342.266 507.631 L 341.795 507.478 L 338.117 506.307 L 337.692 506.174 L 333.982 505.033 L 333.602 504.917 L 329.865 503.804 L 329.527 503.705 L 325.769 502.617 L 325.473 502.532 L 321.697 501.467 L 321.442 501.396 L 317.654 500.352 L 317.439 500.293 L 313.644 499.267 L 313.468 499.220 L 309.671 498.209 L 309.534 498.173 L 305.739 497.176 L 305.641 497.151 L 301.854 496.165 L 301.795 496.150 L 298.020 495.173 L 294.252 494.199 L 290.557 493.242 L 286.929 492.298 L 283.375 491.364 L 279.901 490.438 L 276.513 489.520 L 273.220 488.607 L 270.027 487.700 L 266.942 486.798 L 263.974 485.901 L 261.130 485.009 L 258.421 484.124 L 255.854 483.247 L 253.440 482.382 L 251.189 481.531 L 249.111 480.701 L 248.550 480.463 Z" fill="black" fill-rule="evenodd"/>
</svg>
