<svg xmlns="http://www.w3.org/2000/svg" viewBox="0 0 700.000 1000" width="700.000" height="1000">
  <path d="M 532.208 154.946 L 533.310 154.878 L 534.411 154.783 L 535.508 154.662 L 536.603 154.513 L 537.693 154.337 L 538.779 154.135 L 539.860 153.907 L 540.934 153.651 L 542.002 153.370 L 543.063 153.062 L 544.116 152.729 L 545.160 152.369 L 546.195 151.985 L 547.221 151.575 L 548.236 151.139 L 549.240 150.680 L 550.233 150.195 L 551.213 149.686 L 552.180 149.154 L 553.135 148.598 L 554.075 148.018 L 555.001 147.416 L 555.911 146.791 L 556.806 146.144 L 557.685 145.476 L 558.548 144.785 L 559.393 144.074 L 560.220 143.343 L 561.029 142.591 L 561.820 141.820 L 562.591 141.029 L 563.343 140.220 L 564.074 139.393 L 564.785 138.548 L 565.476 137.685 L 566.144 136.806 L 566.791 135.911 L 567.416 135.001 L 568.018 134.075 L 568.598 133.135 L 569.154 132.180 L 569.686 131.213 L 570.195 130.233 L 570.680 129.240 L 571.139 128.236 L 571.575 127.221 L 571.985 126.195 L 572.369 125.160 L 572.729 124.116 L 573.062 123.063 L 573.370 122.002 L 573.651 120.934 L 573.907 119.860 L 574.135 118.779 L 574.337 117.693 L 574.513 116.603 L 574.662 115.508 L 574.783 114.411 L 574.878 113.310 L 574.946 112.208 L 574.986 111.104 L 575.000 110.000 L 574.986 108.896 L 574.946 107.792 L 574.878 106.690 L 574.783 105.589 L 574.662 104.492 L 574.513 103.397 L 574.337 102.307 L 574.135 101.221 L 573.907 100.140 L 573.651 99.066 L 573.370 97.998 L 573.062 96.937 L 572.729 95.884 L 572.369 94.840 L 571.985 93.805 L 571.575 92.779 L 571.139 91.764 L 570.680 90.760 L 570.195 89.767 L 569.686 88.787 L 569.154 87.820 L 568.598 86.865 L 568.018 85.925 L 567.416 84.999 L 566.791 84.089 L 566.144 83.194 L 565.476 82.315 L 564.785 81.452 L 564.074 80.607 L 563.343 79.780 L 562.591 78.971 L 561.820 78.180 L 561.029 77.409 L 560.220 76.657 L 559.393 75.926 L 558.548 75.215 L 557.685 74.524 L 556.806 73.856 L 555.911 73.209 L 555.001 72.584 L 554.075 71.982 L 553.135 71.402 L 552.180 70.846 L 551.213 70.314 L 550.233 69.805 L 549.240 69.320 L 548.236 68.861 L 547.221 68.425 L 546.195 68.015 L 545.160 67.631 L 544.116 67.271 L 543.063 66.938 L 542.002 66.630 L 540.934 66.349 L 539.860 66.093 L 538.779 65.865 L 537.693 65.663 L 536.603 65.487 L 535.508 65.338 L 534.411 65.217 L 533.310 65.122 L 532.208 65.054 L 531.104 65.014 L 530.000 65.000 L 190.000 65.000 L 188.896 65.014 L 187.792 65.054 L 186.690 65.122 L 185.589 65.217 L 184.492 65.338 L 183.397 65.487 L 183.132 65.530 L 182.307 65.663 L 181.516 65.810 L 181.221 65.865 L 180.140 66.093 L 179.066 66.349 L 177.998 66.630 L 177.609 66.743 L 176.937 66.938 L 175.884 67.271 L 174.840 67.631 L 173.805 68.015 L 172.779 68.425 L 171.764 68.861 L 170.760 69.320 L 169.767 69.805 L 168.787 70.314 L 167.820 70.846 L 166.865 71.402 L 165.925 71.982 L 164.999 72.584 L 164.089 73.209 L 163.194 73.856 L 162.315 74.524 L 161.452 75.215 L 161.109 75.503 L 160.607 75.926 L 159.780 76.657 L 158.971 77.409 L 158.180 78.180 L 157.409 78.971 L 156.657 79.780 L 155.926 80.607 L 155.215 81.452 L 154.524 82.315 L 153.856 83.194 L 153.209 84.089 L 152.584 84.999 L 151.982 85.925 L 151.402 86.865 L 150.846 87.820 L 150.314 88.787 L 149.805 89.767 L 149.320 90.760 L 148.861 91.764 L 148.767 91.982 L 148.425 92.779 L 148.015 93.805 L 147.751 94.515 L 147.631 94.840 L 147.271 95.884 L 147.218 96.051 L 146.938 96.937 L 146.630 97.998 L 146.349 99.066 L 146.093 100.140 L 145.865 101.221 L 145.764 101.764 L 145.663 102.307 L 145.575 102.852 L 145.487 103.397 L 145.338 104.492 L 145.217 105.589 L 145.122 106.690 L 145.054 107.792 L 145.014 108.896 L 145.000 110.000 L 145.000 420.000 L 145.014 421.104 L 145.054 422.208 L 145.122 423.310 L 145.217 424.411 L 145.338 425.508 L 145.487 426.603 L 145.663 427.693 L 145.865 428.779 L 146.093 429.860 L 146.349 430.934 L 146.630 432.002 L 146.938 433.063 L 147.271 434.116 L 147.631 435.160 L 148.015 436.195 L 148.425 437.221 L 148.861 438.236 L 149.320 439.240 L 149.805 440.233 L 150.314 441.213 L 150.846 442.180 L 151.402 443.135 L 151.982 444.075 L 152.584 445.001 L 153.209 445.911 L 153.856 446.806 L 154.524 447.685 L 155.215 448.548 L 155.926 449.393 L 156.657 450.220 L 157.409 451.029 L 158.180 451.820 L 158.971 452.591 L 159.780 453.343 L 160.607 454.074 L 161.452 454.785 L 162.315 455.476 L 163.194 456.144 L 164.089 456.791 L 164.999 457.416 L 165.925 458.018 L 166.865 458.598 L 167.820 459.154 L 168.787 459.686 L 169.767 460.195 L 170.760 460.680 L 171.764 461.139 L 172.779 461.575 L 173.805 461.985 L 174.840 462.369 L 175.884 462.729 L 176.937 463.062 L 177.998 463.370 L 179.066 463.651 L 180.140 463.907 L 181.221 464.135 L 182.307 464.337 L 183.397 464.513 L 184.492 464.662 L 185.589 464.783 L 186.690 464.878 L 187.792 464.946 L 188.896 464.986 L 190.000 465.000 L 349.901 465.000 L 352.760 465.013 L 355.520 465.049 L 358.278 465.109 L 361.035 465.194 L 363.790 465.303 L 366.541 465.435 L 369.289 465.592 L 372.033 465.773 L 374.772 465.978 L 377.505 466.207 L 380.233 466.460 L 382.955 466.736 L 385.669 467.036 L 388.376 467.360 L 391.074 467.707 L 393.764 468.077 L 396.444 468.471 L 399.115 468.888 L 401.775 469.328 L 404.423 469.791 L 407.061 470.276 L 409.685 470.784 L 412.298 471.315 L 414.896 471.868 L 417.481 472.443 L 420.052 473.040 L 422.607 473.658 L 425.147 474.298 L 427.671 474.960 L 430.178 475.643 L 432.668 476.346 L 435.140 477.071 L 437.594 477.815 L 440.030 478.580 L 442.446 479.365 L 444.842 480.170 L 447.218 480.994 L 449.573 481.838 L 451.907 482.700 L 454.219 483.581 L 456.508 484.480 L 458.775 485.398 L 461.019 486.333 L 463.239 487.285 L 465.435 488.254 L 467.606 489.241 L 469.753 490.243 L 471.873 491.262 L 473.968 492.296 L 476.037 493.346 L 478.078 494.411 L 480.093 495.490 L 482.080 496.584 L 484.039 497.691 L 485.970 498.812 L 487.872 499.945 L 489.745 501.092 L 491.588 502.250 L 493.402 503.420 L 495.186 504.602 L 496.940 505.794 L 498.663 506.997 L 500.355 508.210 L 502.016 509.432 L 503.646 510.663 L 505.244 511.903 L 506.810 513.151 L 508.344 514.407 L 509.846 515.670 L 511.315 516.939 L 512.752 518.215 L 514.156 519.496 L 515.528 520.783 L 516.866 522.074 L 518.172 523.370 L 519.445 524.670 L 520.684 525.973 L 521.891 527.278 L 523.064 528.586 L 524.204 529.896 L 525.311 531.208 L 526.386 532.521 L 527.427 533.834 L 528.436 535.147 L 529.412 536.460 L 530.356 537.773 L 531.267 539.084 L 532.146 540.394 L 532.993 541.703 L 533.808 543.009 L 534.592 544.313 L 535.345 545.614 L 536.067 546.912 L 536.758 548.208 L 537.418 549.499 L 538.049 550.787 L 538.650 552.071 L 539.221 553.352 L 539.763 554.628 L 540.277 555.900 L 540.762 557.168 L 541.219 558.432 L 541.649 559.692 L 542.051 560.947 L 542.426 562.199 L 542.774 563.446 L 543.096 564.690 L 543.392 565.929 L 543.662 567.166 L 543.906 568.399 L 544.125 569.629 L 544.320 570.856 L 544.489 572.080 L 544.634 573.303 L 544.755 574.523 L 544.851 575.742 L 544.923 576.959 L 544.971 578.176 L 544.995 579.392 L 544.995 580.608 L 544.971 581.824 L 544.923 583.041 L 544.851 584.258 L 544.755 585.477 L 544.634 586.697 L 544.489 587.920 L 544.320 589.144 L 544.125 590.371 L 543.906 591.601 L 543.662 592.834 L 543.392 594.071 L 543.096 595.310 L 542.774 596.554 L 542.426 597.801 L 542.051 599.053 L 541.649 600.308 L 541.219 601.568 L 540.762 602.832 L 540.277 604.100 L 539.763 605.372 L 539.221 606.648 L 538.650 607.929 L 538.049 609.213 L 537.418 610.501 L 536.758 611.792 L 536.067 613.088 L 535.345 614.386 L 534.592 615.687 L 533.808 616.991 L 532.993 618.297 L 532.146 619.606 L 531.267 620.916 L 530.356 622.227 L 529.412 623.540 L 528.436 624.853 L 527.427 626.166 L 526.386 627.479 L 525.311 628.792 L 524.204 630.104 L 523.064 631.414 L 521.891 632.722 L 520.684 634.027 L 519.445 635.330 L 518.172 636.630 L 516.866 637.926 L 515.528 639.217 L 514.156 640.504 L 512.752 641.785 L 511.315 643.061 L 509.846 644.330 L 508.344 645.593 L 506.810 646.849 L 505.244 648.097 L 503.646 649.337 L 502.016 650.568 L 500.355 651.790 L 498.663 653.003 L 496.940 654.206 L 495.186 655.398 L 493.402 656.580 L 491.588 657.750 L 489.745 658.908 L 487.872 660.055 L 485.970 661.188 L 484.039 662.309 L 482.080 663.416 L 480.093 664.510 L 478.078 665.589 L 476.037 666.654 L 473.968 667.704 L 471.873 668.738 L 469.753 669.757 L 467.606 670.759 L 465.435 671.746 L 463.239 672.715 L 461.019 673.667 L 458.775 674.602 L 456.508 675.520 L 454.219 676.419 L 451.907 677.300 L 449.573 678.162 L 447.218 679.006 L 444.842 679.830 L 442.446 680.635 L 440.030 681.420 L 437.594 682.185 L 435.140 682.929 L 432.668 683.654 L 430.178 684.357 L 427.671 685.040 L 425.147 685.702 L 422.607 686.342 L 420.052 686.960 L 417.481 687.557 L 414.896 688.132 L 412.298 688.685 L 409.685 689.216 L 407.061 689.724 L 404.423 690.209 L 401.775 690.672 L 399.115 691.112 L 396.444 691.529 L 393.764 691.923 L 391.074 692.293 L 388.376 692.640 L 385.669 692.964 L 382.955 693.264 L 380.233 693.540 L 377.505 693.793 L 374.772 694.022 L 372.033 694.227 L 369.289 694.408 L 366.541 694.565 L 363.790 694.697 L 361.035 694.806 L 358.278 694.891 L 355.520 694.951 L 352.760 694.987 L 349.901 695.000 L 190.000 695.000 L 188.896 695.014 L 187.792 695.054 L 186.690 695.122 L 185.589 695.217 L 184.492 695.338 L 183.397 695.487 L 182.307 695.663 L 181.221 695.865 L 180.140 696.093 L 179.066 696.349 L 177.998 696.630 L 176.937 696.938 L 175.884 697.271 L 174.840 697.631 L 173.805 698.015 L 172.779 698.425 L 171.764 698.861 L 170.760 699.320 L 169.767 699.805 L 168.787 700.314 L 167.820 700.846 L 166.865 701.402 L 165.925 701.982 L 164.999 702.584 L 164.089 703.209 L 163.194 703.856 L 162.315 704.524 L 161.452 705.215 L 160.607 705.926 L 159.780 706.657 L 158.971 707.409 L 158.180 708.180 L 157.409 708.971 L 156.657 709.780 L 155.926 710.607 L 155.215 711.452 L 154.524 712.315 L 153.856 713.194 L 153.209 714.089 L 152.584 714.999 L 151.982 715.925 L 151.402 716.865 L 150.846 717.820 L 150.314 718.787 L 149.805 719.767 L 149.320 720.760 L 148.861 721.764 L 148.425 722.779 L 148.015 723.805 L 147.631 724.840 L 147.271 725.884 L 146.938 726.937 L 146.630 727.998 L 146.349 729.066 L 146.093 730.140 L 145.865 731.221 L 145.663 732.307 L 145.487 733.397 L 145.338 734.492 L 145.217 735.589 L 145.122 736.690 L 145.054 737.792 L 145.014 738.896 L 145.000 740.000 L 145.014 741.104 L 145.054 742.208 L 145.122 743.310 L 145.217 744.411 L 145.338 745.508 L 145.487 746.603 L 145.663 747.693 L 145.865 748.779 L 146.093 749.860 L 146.349 750.934 L 146.630 752.002 L 146.938 753.063 L 147.271 754.116 L 147.631 755.160 L 148.015 756.195 L 148.425 757.221 L 148.861 758.236 L 149.320 759.240 L 149.805 760.233 L 150.314 761.213 L 150.846 762.180 L 151.402 763.135 L 151.982 764.075 L 152.584 765.001 L 153.209 765.911 L 153.856 766.806 L 154.524 767.685 L 155.215 768.548 L 155.926 769.393 L 156.657 770.220 L 157.409 771.029 L 158.180 771.820 L 158.971 772.591 L 159.780 773.343 L 160.607 774.074 L 161.452 774.785 L 162.315 775.476 L 163.194 776.144 L 164.089 776.791 L 164.999 777.416 L 165.925 778.018 L 166.865 778.598 L 167.820 779.154 L 168.787 779.686 L 169.767 780.195 L 170.760 780.680 L 171.764 781.139 L 172.779 781.575 L 173.805 781.985 L 174.840 782.369 L 175.884 782.729 L 176.937 783.062 L 177.998 783.370 L 179.066 783.651 L 180.140 783.907 L 181.221 784.135 L 182.307 784.337 L 183.397 784.513 L 184.492 784.662 L 185.589 784.783 L 186.690 784.878 L 187.792 784.946 L 188.896 784.986 L 190.000 785.000 L 350.000 785.000 L 350.099 784.999 L 350.197 785.000 L 353.352 784.986 L 353.746 784.982 L 356.900 784.941 L 357.295 784.934 L 360.448 784.865 L 360.842 784.854 L 363.994 784.758 L 364.388 784.744 L 367.538 784.620 L 367.932 784.602 L 371.079 784.450 L 371.474 784.429 L 374.617 784.250 L 375.013 784.226 L 378.152 784.019 L 378.548 783.991 L 381.683 783.756 L 382.079 783.725 L 385.209 783.463 L 385.606 783.428 L 388.731 783.139 L 389.128 783.100 L 392.246 782.783 L 392.644 782.741 L 395.756 782.397 L 396.154 782.351 L 399.260 781.980 L 399.658 781.931 L 402.756 781.532 L 403.155 781.479 L 406.245 781.054 L 406.645 780.997 L 409.726 780.544 L 410.127 780.483 L 413.198 780.004 L 413.600 779.939 L 416.662 779.433 L 417.064 779.364 L 420.116 778.831 L 420.519 778.759 L 423.560 778.199 L 423.964 778.123 L 426.994 777.536 L 427.399 777.456 L 430.417 776.843 L 430.823 776.758 L 433.828 776.119 L 434.235 776.030 L 437.228 775.365 L 437.636 775.272 L 440.615 774.580 L 441.024 774.483 L 443.989 773.765 L 444.400 773.664 L 447.351 772.920 L 447.762 772.814 L 450.698 772.045 L 451.111 771.934 L 454.031 771.139 L 454.445 771.024 L 457.350 770.203 L 457.765 770.084 L 460.653 769.238 L 461.070 769.114 L 463.941 768.242 L 464.359 768.113 L 467.212 767.217 L 467.631 767.083 L 470.467 766.161 L 470.888 766.022 L 473.705 765.076 L 474.127 764.932 L 476.926 763.961 L 477.349 763.812 L 480.128 762.817 L 480.553 762.663 L 483.312 761.643 L 483.738 761.483 L 486.477 760.440 L 486.905 760.274 L 489.623 759.207 L 490.052 759.036 L 492.749 757.944 L 493.179 757.768 L 495.855 756.653 L 496.287 756.470 L 498.940 755.332 L 499.373 755.143 L 502.003 753.982 L 502.438 753.787 L 505.045 752.603 L 505.482 752.402 L 508.066 751.195 L 508.504 750.987 L 511.063 749.758 L 511.503 749.544 L 514.038 748.292 L 514.479 748.071 L 516.989 746.797 L 517.431 746.570 L 519.916 745.274 L 520.360 745.039 L 522.819 743.722 L 523.264 743.480 L 525.697 742.141 L 526.143 741.892 L 528.550 740.532 L 528.997 740.276 L 531.377 738.895 L 531.826 738.630 L 534.178 737.229 L 534.628 736.957 L 536.952 735.534 L 537.403 735.254 L 539.699 733.812 L 540.152 733.524 L 542.419 732.061 L 542.872 731.765 L 545.110 730.282 L 545.565 729.977 L 547.774 728.476 L 548.229 728.162 L 550.408 726.641 L 550.864 726.318 L 553.012 724.778 L 553.469 724.447 L 555.587 722.888 L 556.045 722.547 L 558.132 720.970 L 558.590 720.619 L 560.646 719.024 L 561.104 718.664 L 563.128 717.051 L 563.586 716.681 L 565.578 715.050 L 566.036 714.670 L 567.996 713.022 L 568.454 712.632 L 570.382 710.967 L 570.839 710.566 L 572.734 708.884 L 573.191 708.473 L 575.052 706.775 L 575.508 706.353 L 577.335 704.638 L 577.791 704.205 L 579.584 702.475 L 580.038 702.030 L 581.797 700.284 L 582.250 699.829 L 583.975 698.068 L 584.426 697.600 L 586.116 695.824 L 586.565 695.345 L 588.219 693.554 L 588.666 693.064 L 590.285 691.259 L 590.730 690.756 L 592.313 688.937 L 592.754 688.421 L 594.302 686.589 L 594.740 686.061 L 596.251 684.215 L 596.686 683.675 L 598.161 681.816 L 598.592 681.264 L 600.030 679.392 L 600.456 678.827 L 601.857 676.942 L 602.279 676.364 L 603.643 674.468 L 604.060 673.877 L 605.386 671.969 L 605.798 671.366 L 607.086 669.446 L 607.492 668.830 L 608.743 666.899 L 609.143 666.270 L 610.355 664.328 L 610.748 663.686 L 611.921 661.734 L 612.308 661.080 L 613.443 659.117 L 613.821 658.450 L 614.917 656.478 L 615.288 655.798 L 616.345 653.816 L 616.707 653.123 L 617.725 651.133 L 618.078 650.428 L 619.057 648.428 L 619.400 647.711 L 620.340 645.703 L 620.673 644.974 L 621.573 642.958 L 621.896 642.216 L 622.755 640.193 L 623.067 639.440 L 623.887 637.409 L 624.188 636.645 L 624.967 634.607 L 625.256 633.831 L 625.995 631.787 L 626.271 631.001 L 626.971 628.950 L 627.234 628.154 L 627.892 626.097 L 628.142 625.291 L 628.760 623.228 L 628.996 622.413 L 629.574 620.345 L 629.795 619.520 L 630.332 617.448 L 630.539 616.615 L 631.035 614.538 L 631.227 613.697 L 631.681 611.615 L 631.858 610.767 L 632.272 608.682 L 632.433 607.826 L 632.805 605.738 L 632.950 604.876 L 633.281 602.785 L 633.410 601.918 L 633.700 599.824 L 633.812 598.951 L 634.060 596.855 L 634.155 595.979 L 634.363 593.880 L 634.441 593.000 L 634.606 590.900 L 634.667 590.017 L 634.792 587.915 L 634.835 587.031 L 634.918 584.928 L 634.945 584.042 L 634.986 581.939 L 634.995 581.052 L 634.995 578.948 L 634.986 578.061 L 634.945 575.958 L 634.918 575.072 L 634.835 572.969 L 634.792 572.085 L 634.667 569.983 L 634.606 569.100 L 634.441 567.000 L 634.363 566.120 L 634.155 564.021 L 634.060 563.145 L 633.812 561.049 L 633.700 560.176 L 633.410 558.082 L 633.281 557.215 L 632.950 555.124 L 632.805 554.262 L 632.433 552.174 L 632.272 551.318 L 631.858 549.233 L 631.681 548.385 L 631.227 546.303 L 631.035 545.462 L 630.539 543.385 L 630.332 542.552 L 629.795 540.480 L 629.574 539.655 L 628.996 537.587 L 628.760 536.772 L 628.142 534.709 L 627.892 533.903 L 627.234 531.846 L 626.971 531.050 L 626.271 528.999 L 625.995 528.213 L 625.256 526.169 L 624.967 525.393 L 624.188 523.355 L 623.887 522.591 L 623.067 520.560 L 622.755 519.807 L 621.896 517.784 L 621.573 517.042 L 620.673 515.026 L 620.340 514.297 L 619.400 512.289 L 619.057 511.572 L 618.078 509.572 L 617.725 508.867 L 616.707 506.877 L 616.345 506.184 L 615.288 504.202 L 614.917 503.522 L 613.821 501.550 L 613.443 500.883 L 612.308 498.920 L 611.921 498.266 L 610.748 496.314 L 610.355 495.672 L 609.143 493.730 L 608.743 493.101 L 607.492 491.170 L 607.086 490.554 L 605.798 488.634 L 605.386 488.031 L 604.060 486.123 L 603.643 485.532 L 602.279 483.636 L 601.857 483.058 L 600.456 481.173 L 600.030 480.608 L 598.592 478.736 L 598.161 478.184 L 596.686 476.325 L 596.251 475.785 L 594.740 473.939 L 594.302 473.411 L 592.754 471.579 L 592.313 471.063 L 590.730 469.244 L 590.285 468.741 L 588.666 466.936 L 588.219 466.446 L 586.565 464.655 L 586.116 464.176 L 584.426 462.400 L 583.975 461.932 L 582.250 460.171 L 581.797 459.716 L 580.038 457.970 L 579.584 457.525 L 577.791 455.795 L 577.335 455.362 L 575.508 453.647 L 575.052 453.225 L 573.191 451.527 L 572.734 451.116 L 570.839 449.434 L 570.382 449.033 L 568.454 447.368 L 567.996 446.978 L 566.036 445.330 L 565.578 444.950 L 563.586 443.319 L 563.128 442.949 L 561.104 441.336 L 560.646 440.976 L 558.590 439.381 L 558.132 439.030 L 556.045 437.453 L 555.587 437.112 L 553.469 435.553 L 553.012 435.222 L 550.864 433.682 L 550.408 433.359 L 548.229 431.838 L 547.774 431.524 L 545.565 430.023 L 545.110 429.718 L 542.872 428.235 L 542.419 427.939 L 540.152 426.476 L 539.699 426.188 L 537.403 424.746 L 536.952 424.466 L 534.628 423.043 L 534.178 422.771 L 531.826 421.370 L 531.377 421.105 L 528.997 419.724 L 528.550 419.468 L 526.143 418.108 L 525.697 417.859 L 523.264 416.520 L 522.819 416.278 L 520.360 414.961 L 519.916 414.726 L 517.431 413.430 L 516.989 413.203 L 514.479 411.929 L 514.038 411.708 L 511.503 410.456 L 511.063 410.242 L 508.504 409.013 L 508.066 408.805 L 505.482 407.598 L 505.045 407.397 L 502.438 406.213 L 502.003 406.018 L 499.373 404.857 L 498.940 404.668 L 496.287 403.530 L 495.855 403.347 L 493.179 402.232 L 492.749 402.056 L 490.052 400.964 L 489.623 400.793 L 486.905 399.726 L 486.477 399.560 L 483.738 398.517 L 483.312 398.357 L 480.553 397.337 L 480.128 397.183 L 477.349 396.188 L 476.926 396.039 L 474.127 395.068 L 473.705 394.924 L 470.888 393.978 L 470.467 393.839 L 467.631 392.917 L 467.212 392.783 L 464.359 391.887 L 463.941 391.758 L 461.070 390.886 L 460.653 390.762 L 457.765 389.916 L 457.350 389.797 L 454.445 388.976 L 454.031 388.861 L 451.111 388.066 L 450.698 387.955 L 447.762 387.186 L 447.351 387.080 L 444.400 386.336 L 443.989 386.235 L 441.024 385.517 L 440.615 385.420 L 437.636 384.728 L 437.228 384.635 L 434.235 383.970 L 433.828 383.881 L 430.823 383.242 L 430.417 383.157 L 427.399 382.544 L 426.994 382.464 L 423.964 381.877 L 423.560 381.801 L 420.519 381.241 L 420.116 381.169 L 417.064 380.636 L 416.662 380.567 L 413.600 380.061 L 413.198 379.996 L 410.127 379.517 L 409.726 379.456 L 406.645 379.003 L 406.245 378.946 L 403.155 378.521 L 402.756 378.468 L 399.658 378.069 L 399.260 378.020 L 396.154 377.649 L 395.756 377.603 L 392.644 377.259 L 392.246 377.217 L 389.128 376.900 L 388.731 376.861 L 385.606 376.572 L 385.209 376.537 L 382.079 376.275 L 381.683 376.244 L 378.548 376.009 L 378.152 375.981 L 375.013 375.774 L 374.617 375.750 L 371.474 375.571 L 371.079 375.550 L 367.932 375.398 L 367.538 375.380 L 364.388 375.256 L 363.994 375.242 L 360.842 375.146 L 360.448 375.135 L 357.295 375.066 L 356.900 375.059 L 353.746 375.018 L 353.352 375.014 L 350.197 375.000 L 350.099 375.001 L 350.000 375.000 L 235.000 375.000 L 235.000 155.000 L 530.000 155.000 L 531.104 154.986 L 532.208 154.946 Z" fill="black" fill-rule="evenodd"/>
</svg>
