<svg xmlns="http://www.w3.org/2000/svg" viewBox="0 0 600.000 1000" width="600.000" height="1000">
  <path d="M 195.000 454.788 L 196.036 454.912 L 198.406 455.247 L 200.900 455.651 L 203.508 456.127 L 206.223 456.673 L 209.036 457.291 L 211.941 457.980 L 214.931 458.738 L 217.999 459.567 L 221.138 460.465 L 224.344 461.430 L 227.610 462.463 L 230.930 463.561 L 234.300 464.724 L 237.715 465.950 L 241.169 467.238 L 244.657 468.586 L 248.176 469.994 L 251.720 471.459 L 255.284 472.980 L 258.865 474.555 L 262.458 476.184 L 266.059 477.864 L 269.663 479.593 L 273.266 481.371 L 276.865 483.195 L 280.454 485.064 L 284.030 486.975 L 287.589 488.928 L 291.127 490.920 L 294.639 492.950 L 298.122 495.015 L 301.572 497.114 L 304.984 499.244 L 308.355 501.404 L 311.680 503.591 L 314.957 505.803 L 318.180 508.038 L 321.345 510.294 L 324.450 512.567 L 327.489 514.856 L 330.459 517.158 L 333.356 519.470 L 336.175 521.788 L 338.914 524.111 L 341.568 526.434 L 344.133 528.755 L 346.605 531.068 L 348.981 533.372 L 351.257 535.661 L 353.430 537.931 L 355.496 540.178 L 357.452 542.396 L 359.294 544.581 L 361.021 546.726 L 362.631 548.826 L 364.120 550.876 L 365.487 552.867 L 366.733 554.794 L 367.856 556.649 L 368.858 558.426 L 370.098 560.805 L 370.621 561.778 L 371.167 562.738 L 371.737 563.684 L 372.330 564.616 L 372.945 565.533 L 373.583 566.435 L 374.243 567.320 L 374.924 568.190 L 375.626 569.042 L 376.349 569.877 L 377.093 570.694 L 377.856 571.492 L 378.638 572.271 L 379.440 573.031 L 380.260 573.771 L 381.097 574.491 L 381.952 575.190 L 382.825 575.868 L 383.713 576.524 L 384.617 577.158 L 385.537 577.770 L 386.471 578.359 L 387.419 578.925 L 388.382 579.467 L 389.357 579.986 L 390.344 580.480 L 391.343 580.950 L 392.354 581.396 L 393.375 581.816 L 394.407 582.212 L 395.447 582.582 L 396.497 582.926 L 397.554 583.245 L 398.619 583.537 L 399.691 583.803 L 400.769 584.043 L 401.853 584.256 L 402.941 584.443 L 404.034 584.603 L 405.130 584.736 L 406.230 584.842 L 407.331 584.921 L 408.435 584.973 L 409.539 584.998 L 410.643 584.995 L 411.747 584.966 L 412.850 584.910 L 413.952 584.826 L 415.050 584.716 L 416.146 584.578 L 417.238 584.414 L 418.326 584.223 L 419.409 584.005 L 420.486 583.761 L 421.557 583.491 L 422.621 583.194 L 423.677 582.871 L 424.725 582.523 L 425.764 582.148 L 426.794 581.749 L 427.813 581.324 L 428.822 580.875 L 429.820 580.400 L 430.805 579.902 L 431.778 579.379 L 432.738 578.833 L 433.684 578.263 L 434.616 577.670 L 435.533 577.055 L 436.435 576.417 L 437.320 575.757 L 438.190 575.076 L 439.042 574.374 L 439.877 573.651 L 440.694 572.907 L 441.492 572.144 L 442.271 571.362 L 443.031 570.560 L 443.771 569.740 L 444.491 568.903 L 445.190 568.048 L 445.868 567.175 L 446.524 566.287 L 447.158 565.383 L 447.770 564.463 L 448.359 563.529 L 448.925 562.581 L 449.467 561.618 L 449.986 560.643 L 450.480 559.656 L 450.950 558.657 L 451.396 557.646 L 451.816 556.625 L 452.212 555.593 L 452.582 554.553 L 452.926 553.503 L 453.245 552.446 L 453.537 551.381 L 453.803 550.309 L 454.043 549.231 L 454.256 548.147 L 454.443 547.059 L 454.603 545.966 L 454.736 544.870 L 454.842 543.770 L 454.921 542.669 L 454.973 541.565 L 454.998 540.461 L 454.995 539.357 L 454.966 538.253 L 454.910 537.150 L 454.826 536.048 L 454.716 534.950 L 454.578 533.854 L 454.414 532.762 L 454.223 531.674 L 454.005 530.591 L 453.761 529.514 L 453.491 528.443 L 453.194 527.379 L 452.871 526.323 L 452.523 525.275 L 452.148 524.236 L 451.749 523.206 L 451.324 522.187 L 450.875 521.178 L 450.400 520.180 L 449.902 519.195 L 448.321 516.163 L 447.619 514.870 L 445.913 511.843 L 445.208 510.637 L 443.380 507.617 L 442.677 506.493 L 440.729 503.480 L 440.031 502.432 L 437.968 499.429 L 437.277 498.451 L 435.102 495.458 L 434.421 494.546 L 432.137 491.564 L 431.468 490.712 L 429.077 487.742 L 428.421 486.946 L 425.928 483.990 L 425.285 483.245 L 422.693 480.305 L 422.064 479.606 L 419.376 476.683 L 418.761 476.027 L 415.980 473.122 L 415.379 472.506 L 412.509 469.619 L 411.922 469.040 L 408.965 466.173 L 408.392 465.627 L 405.352 462.783 L 404.792 462.267 L 401.673 459.446 L 401.126 458.958 L 397.930 456.161 L 397.395 455.700 L 394.126 452.928 L 393.602 452.490 L 390.264 449.745 L 389.751 449.330 L 386.346 446.612 L 385.844 446.217 L 382.376 443.529 L 381.882 443.153 L 378.354 440.495 L 377.870 440.136 L 374.286 437.510 L 373.809 437.166 L 370.171 434.574 L 369.703 434.245 L 366.015 431.687 L 365.553 431.371 L 361.818 428.849 L 361.362 428.546 L 357.583 426.061 L 357.133 425.768 L 353.314 423.321 L 352.869 423.040 L 349.013 420.632 L 348.571 420.360 L 344.681 417.994 L 344.243 417.730 L 340.323 415.406 L 339.887 415.151 L 335.940 412.870 L 335.505 412.622 L 331.534 410.386 L 331.101 410.145 L 327.109 407.955 L 326.676 407.720 L 322.667 405.577 L 322.234 405.349 L 318.210 403.254 L 317.776 403.031 L 313.742 400.986 L 313.305 400.767 L 309.263 398.773 L 308.823 398.559 L 304.777 396.617 L 304.333 396.407 L 300.286 394.519 L 299.838 394.313 L 295.793 392.480 L 295.338 392.277 L 291.299 390.499 L 290.838 390.299 L 286.808 388.580 L 286.338 388.382 L 282.320 386.721 L 281.841 386.527 L 277.838 384.926 L 277.349 384.733 L 273.365 383.193 L 272.864 383.003 L 268.902 381.526 L 268.387 381.337 L 264.450 379.924 L 263.920 379.737 L 260.012 378.389 L 259.465 378.204 L 255.589 376.922 L 255.023 376.739 L 251.182 375.525 L 250.596 375.344 L 246.793 374.198 L 246.184 374.019 L 242.422 372.944 L 241.788 372.767 L 238.071 371.763 L 237.408 371.590 L 233.740 370.658 L 233.045 370.488 L 229.428 369.631 L 228.699 369.464 L 225.137 368.682 L 224.369 368.521 L 220.864 367.815 L 220.053 367.660 L 216.611 367.032 L 215.752 366.884 L 212.374 366.336 L 211.462 366.197 L 208.152 365.729 L 207.182 365.603 L 203.943 365.217 L 202.908 365.105 L 199.743 364.802 L 198.635 364.709 L 195.548 364.490 L 194.360 364.422 L 191.354 364.288 L 190.077 364.249 L 187.155 364.202 L 185.780 364.201 L 182.945 364.242 L 181.461 364.288 L 178.717 364.418 L 177.113 364.523 L 174.463 364.744 L 173.595 364.825 L 172.728 364.923 L 170.176 365.236 L 169.236 365.361 L 168.299 365.506 L 165.847 365.912 L 164.831 366.092 L 163.818 366.296 L 161.470 366.796 L 160.373 367.045 L 159.282 367.320 L 157.041 367.916 L 155.859 368.248 L 154.688 368.612 L 152.557 369.305 L 151.292 369.737 L 150.041 370.207 L 148.024 370.998 L 147.127 371.361 L 146.237 371.744 L 145.356 372.146 L 143.456 373.037 L 142.512 373.493 L 141.578 373.971 L 140.656 374.471 L 138.877 375.463 L 137.897 376.025 L 136.932 376.612 L 135.981 377.222 L 134.325 378.316 L 133.327 378.995 L 132.347 379.700 L 131.387 380.432 L 129.857 381.629 L 128.863 382.431 L 127.891 383.260 L 126.944 384.117 L 125.544 385.419 L 124.818 386.110 L 124.108 386.816 L 123.414 387.539 L 122.735 388.276 L 121.470 389.684 L 120.788 390.460 L 120.124 391.252 L 119.478 392.058 L 118.851 392.880 L 117.722 394.394 L 117.105 395.243 L 116.508 396.105 L 115.931 396.981 L 115.375 397.871 L 114.386 399.494 L 113.851 400.395 L 113.337 401.309 L 112.845 402.234 L 112.374 403.170 L 111.528 404.903 L 111.087 405.834 L 110.667 406.775 L 110.269 407.724 L 109.893 408.683 L 109.193 410.527 L 108.850 411.463 L 108.528 412.407 L 108.226 413.357 L 107.946 414.313 L 107.396 416.270 L 107.070 417.496 L 106.779 418.731 L 106.523 419.973 L 106.126 422.043 L 105.916 423.221 L 105.738 424.404 L 105.591 425.591 L 105.351 427.776 L 105.243 428.888 L 105.162 430.002 L 105.109 431.118 L 105.028 433.419 L 105.000 435.000 L 105.000 780.000 L 105.014 781.104 L 105.054 782.208 L 105.122 783.310 L 105.217 784.411 L 105.338 785.508 L 105.487 786.603 L 105.663 787.693 L 105.865 788.779 L 106.093 789.860 L 106.349 790.934 L 106.630 792.002 L 106.938 793.063 L 107.271 794.116 L 107.631 795.160 L 108.015 796.195 L 108.425 797.221 L 108.861 798.236 L 109.320 799.240 L 109.805 800.233 L 110.314 801.213 L 110.846 802.180 L 111.402 803.135 L 111.982 804.075 L 112.584 805.001 L 113.209 805.911 L 113.856 806.806 L 114.524 807.685 L 115.215 808.548 L 115.926 809.393 L 116.657 810.220 L 117.409 811.029 L 118.180 811.820 L 118.971 812.591 L 119.780 813.343 L 120.607 814.074 L 121.452 814.785 L 122.315 815.476 L 123.194 816.144 L 124.089 816.791 L 124.999 817.416 L 125.925 818.018 L 126.865 818.598 L 127.820 819.154 L 128.787 819.686 L 129.767 820.195 L 130.760 820.680 L 131.764 821.139 L 132.779 821.575 L 133.805 821.985 L 134.840 822.369 L 135.884 822.729 L 136.937 823.062 L 137.998 823.370 L 139.066 823.651 L 140.140 823.907 L 141.221 824.135 L 142.307 824.337 L 143.397 824.513 L 144.492 824.662 L 145.589 824.783 L 146.690 824.878 L 147.792 824.946 L 148.896 824.986 L 150.000 825.000 L 151.104 824.986 L 152.208 824.946 L 153.310 824.878 L 154.411 824.783 L 155.508 824.662 L 156.603 824.513 L 157.693 824.337 L 158.779 824.135 L 159.860 823.907 L 160.934 823.651 L 162.002 823.370 L 163.063 823.062 L 164.116 822.729 L 165.160 822.369 L 166.195 821.985 L 167.221 821.575 L 168.236 821.139 L 169.240 820.680 L 170.233 820.195 L 171.213 819.686 L 172.180 819.154 L 173.135 818.598 L 174.075 818.018 L 175.001 817.416 L 175.911 816.791 L 176.806 816.144 L 177.685 815.476 L 178.548 814.785 L 179.393 814.074 L 180.220 813.343 L 181.029 812.591 L 181.820 811.820 L 182.591 811.029 L 183.343 810.220 L 184.074 809.393 L 184.785 808.548 L 185.476 807.685 L 186.144 806.806 L 186.791 805.911 L 187.416 805.001 L 188.018 804.075 L 188.598 803.135 L 189.154 802.180 L 189.686 801.213 L 190.195 800.233 L 190.680 799.240 L 191.139 798.236 L 191.575 797.221 L 191.985 796.195 L 192.369 795.160 L 192.729 794.116 L 193.062 793.063 L 193.370 792.002 L 193.651 790.934 L 193.907 789.860 L 194.135 788.779 L 194.337 787.693 L 194.513 786.603 L 194.662 785.508 L 194.783 784.411 L 194.878 783.310 L 194.946 782.208 L 194.986 781.104 L 195.000 780.000 L 195.000 454.788 Z" fill="black" fill-rule="evenodd"/>
</svg>
