<svg xmlns="http://www.w3.org/2000/svg" viewBox="0 0 600.000 1000" width="600.000" height="1000">
  <path d="M 105.014 781.104 L 105.054 782.208 L 105.122 783.310 L 105.217 784.411 L 105.338 785.508 L 105.487 786.603 L 105.663 787.693 L 105.865 788.779 L 106.093 789.860 L 106.349 790.934 L 106.630 792.002 L 106.938 793.063 L 107.271 794.116 L 107.631 795.160 L 108.015 796.195 L 108.425 797.221 L 108.861 798.236 L 109.320 799.240 L 109.805 800.233 L 110.314 801.213 L 110.846 802.180 L 111.402 803.135 L 111.982 804.075 L 112.584 805.001 L 113.209 805.911 L 113.856 806.806 L 114.524 807.685 L 115.215 808.548 L 115.926 809.393 L 116.657 810.220 L 117.409 811.029 L 118.180 811.820 L 118.971 812.591 L 119.780 813.343 L 120.607 814.074 L 121.452 814.785 L 122.315 815.476 L 123.194 816.144 L 124.089 816.791 L 124.999 817.416 L 125.925 818.018 L 126.865 818.598 L 127.820 819.154 L 128.787 819.686 L 129.767 820.195 L 130.760 820.680 L 131.764 821.139 L 132.779 821.575 L 133.805 821.985 L 134.840 822.369 L 135.884 822.729 L 136.937 823.062 L 137.998 823.370 L 139.066 823.651 L 140.140 823.907 L 141.221 824.135 L 142.307 824.337 L 143.397 824.513 L 144.492 824.662 L 145.589 824.783 L 146.690 824.878 L 147.792 824.946 L 148.896 824.986 L 150.000 825.000 L 151.104 824.986 L 152.208 824.946 L 153.310 824.878 L 154.411 824.783 L 155.508 824.662 L 156.603 824.513 L 157.693 824.337 L 158.779 824.135 L 159.860 823.907 L 160.934 823.651 L 162.002 823.370 L 163.063 823.062 L 164.116 822.729 L 165.160 822.369 L 166.195 821.985 L 167.221 821.575 L 168.236 821.139 L 169.240 820.680 L 170.233 820.195 L 171.213 819.686 L 172.180 819.154 L 173.135 818.598 L 174.075 818.018 L 175.001 817.416 L 175.911 816.791 L 176.806 816.144 L 177.685 815.476 L 178.548 814.785 L 179.393 814.074 L 180.220 813.343 L 181.029 812.591 L 181.820 811.820 L 182.591 811.029 L 183.343 810.220 L 184.074 809.393 L 184.785 808.548 L 185.476 807.685 L 186.144 806.806 L 186.791 805.911 L 187.416 805.001 L 188.018 804.075 L 188.598 803.135 L 189.154 802.180 L 189.686 801.213 L 190.195 800.233 L 190.680 799.240 L 191.139 798.236 L 191.575 797.221 L 191.985 796.195 L 192.369 795.160 L 192.729 794.116 L 193.062 793.063 L 193.370 792.002 L 193.651 790.934 L 193.907 789.860 L 194.135 788.779 L 194.337 787.693 L 194.513 786.603 L 194.662 785.508 L 194.783 784.411 L 194.878 783.310 L 194.946 782.208 L 194.986 781.104 L 195.000 780.000 L 195.000 639.892 L 456.676 798.484 L 457.628 799.045 L 458.593 799.582 L 459.571 800.095 L 460.561 800.585 L 461.563 801.050 L 462.576 801.490 L 463.599 801.905 L 464.632 802.295 L 465.675 802.659 L 466.726 802.998 L 467.785 803.311 L 468.852 803.597 L 469.925 803.858 L 471.005 804.092 L 472.089 804.299 L 473.179 804.480 L 474.273 804.634 L 475.370 804.761 L 476.470 804.861 L 477.572 804.934 L 478.675 804.980 L 479.779 804.999 L 480.884 804.991 L 481.988 804.956 L 483.090 804.894 L 484.191 804.804 L 485.289 804.688 L 486.385 804.545 L 487.476 804.375 L 488.563 804.178 L 489.644 803.954 L 490.720 803.704 L 491.789 803.428 L 492.852 803.126 L 493.906 802.797 L 494.952 802.443 L 495.989 802.064 L 497.017 801.659 L 498.034 801.228 L 499.040 800.773 L 500.035 800.294 L 501.018 799.790 L 501.988 799.262 L 502.945 798.711 L 503.888 798.136 L 504.817 797.538 L 505.731 796.918 L 506.629 796.275 L 507.511 795.611 L 508.377 794.925 L 509.225 794.218 L 510.056 793.491 L 510.869 792.743 L 511.663 791.975 L 512.439 791.189 L 513.194 790.383 L 513.930 789.559 L 514.645 788.718 L 515.339 787.859 L 516.012 786.983 L 516.664 786.091 L 517.293 785.184 L 517.900 784.261 L 518.484 783.324 L 519.045 782.372 L 519.582 781.407 L 520.095 780.429 L 520.585 779.439 L 521.050 778.437 L 521.490 777.424 L 521.905 776.401 L 522.295 775.368 L 522.659 774.325 L 522.998 773.274 L 523.311 772.215 L 523.597 771.148 L 523.858 770.075 L 524.092 768.995 L 524.299 767.911 L 524.480 766.821 L 524.634 765.727 L 524.761 764.630 L 524.861 763.530 L 524.934 762.428 L 524.980 761.325 L 524.999 760.221 L 524.991 759.116 L 524.956 758.012 L 524.894 756.910 L 524.804 755.809 L 524.688 754.711 L 524.545 753.615 L 524.375 752.524 L 524.178 751.437 L 523.954 750.356 L 523.704 749.280 L 523.428 748.211 L 523.126 747.148 L 522.797 746.094 L 522.443 745.048 L 522.064 744.011 L 521.659 742.983 L 521.228 741.966 L 520.773 740.960 L 520.294 739.965 L 519.790 738.982 L 519.262 738.012 L 518.711 737.055 L 518.136 736.112 L 517.538 735.183 L 516.918 734.269 L 516.275 733.371 L 515.611 732.489 L 514.925 731.623 L 514.218 730.775 L 513.491 729.944 L 512.743 729.131 L 511.975 728.337 L 511.189 727.561 L 510.383 726.806 L 509.559 726.070 L 508.718 725.355 L 507.859 724.661 L 506.983 723.988 L 506.091 723.336 L 505.184 722.707 L 504.261 722.100 L 503.324 721.516 L 236.822 560.000 L 503.324 398.484 L 504.261 397.900 L 505.184 397.293 L 506.091 396.664 L 506.983 396.012 L 507.859 395.339 L 508.718 394.645 L 509.559 393.930 L 510.383 393.194 L 511.189 392.439 L 511.975 391.663 L 512.743 390.869 L 513.491 390.056 L 514.218 389.225 L 514.925 388.377 L 515.611 387.511 L 516.275 386.629 L 516.918 385.731 L 517.538 384.817 L 518.136 383.888 L 518.711 382.945 L 519.262 381.988 L 519.790 381.018 L 520.294 380.035 L 520.773 379.040 L 521.228 378.034 L 521.659 377.017 L 522.064 375.989 L 522.443 374.952 L 522.797 373.906 L 523.126 372.852 L 523.428 371.789 L 523.704 370.720 L 523.954 369.644 L 524.178 368.563 L 524.375 367.476 L 524.545 366.385 L 524.688 365.289 L 524.804 364.191 L 524.894 363.090 L 524.956 361.988 L 524.991 360.884 L 524.999 359.779 L 524.980 358.675 L 524.934 357.572 L 524.861 356.470 L 524.761 355.370 L 524.634 354.273 L 524.480 353.179 L 524.299 352.089 L 524.092 351.005 L 523.858 349.925 L 523.597 348.852 L 523.311 347.785 L 522.998 346.726 L 522.659 345.675 L 522.295 344.632 L 521.905 343.599 L 521.490 342.576 L 521.050 341.563 L 520.585 340.561 L 520.095 339.571 L 519.582 338.593 L 519.045 337.628 L 518.484 336.676 L 517.900 335.739 L 517.293 334.816 L 516.664 333.909 L 516.012 333.017 L 515.339 332.141 L 514.645 331.282 L 513.930 330.441 L 513.194 329.617 L 512.439 328.811 L 511.663 328.025 L 510.869 327.257 L 510.056 326.509 L 509.225 325.782 L 508.377 325.075 L 507.511 324.389 L 506.629 323.725 L 505.731 323.082 L 504.817 322.462 L 503.888 321.864 L 502.945 321.289 L 501.988 320.738 L 501.018 320.210 L 500.035 319.706 L 499.040 319.227 L 498.034 318.772 L 497.017 318.341 L 495.989 317.936 L 494.952 317.557 L 493.906 317.203 L 492.852 316.874 L 491.789 316.572 L 490.720 316.296 L 489.644 316.046 L 488.563 315.822 L 487.476 315.625 L 486.385 315.455 L 485.289 315.312 L 484.191 315.196 L 483.090 315.106 L 481.988 315.044 L 480.884 315.009 L 479.779 315.001 L 478.675 315.020 L 477.572 315.066 L 476.470 315.139 L 475.370 315.239 L 474.273 315.366 L 473.179 315.520 L 472.089 315.701 L 471.005 315.908 L 469.925 316.142 L 468.852 316.403 L 467.785 316.689 L 466.726 317.002 L 465.675 317.341 L 464.632 317.705 L 463.599 318.095 L 462.576 318.510 L 461.563 318.950 L 460.561 319.415 L 459.571 319.905 L 458.593 320.418 L 457.628 320.955 L 456.676 321.516 L 195.000 480.108 L 195.000 40.000 L 194.986 38.896 L 194.946 37.792 L 194.878 36.690 L 194.783 35.589 L 194.662 34.492 L 194.513 33.397 L 194.337 32.307 L 194.135 31.221 L 193.907 30.140 L 193.651 29.066 L 193.370 27.998 L 193.062 26.937 L 192.729 25.884 L 192.369 24.840 L 191.985 23.805 L 191.575 22.779 L 191.139 21.764 L 190.680 20.760 L 190.195 19.767 L 189.686 18.787 L 189.154 17.820 L 188.598 16.865 L 188.018 15.925 L 187.416 14.999 L 186.791 14.089 L 186.144 13.194 L 185.476 12.315 L 184.785 11.452 L 184.074 10.607 L 183.343 9.780 L 182.591 8.971 L 181.820 8.180 L 181.029 7.409 L 180.220 6.657 L 179.393 5.926 L 178.548 5.215 L 177.685 4.524 L 176.806 3.856 L 175.911 3.209 L 175.001 2.584 L 174.075 1.982 L 173.135 1.402 L 172.180 0.846 L 171.213 0.314 L 170.233 -0.195 L 169.240 -0.680 L 168.236 -1.139 L 167.221 -1.575 L 166.195 -1.985 L 165.160 -2.369 L 164.116 -2.729 L 163.063 -3.062 L 162.002 -3.370 L 160.934 -3.651 L 159.860 -3.907 L 158.779 -4.135 L 157.693 -4.337 L 156.603 -4.513 L 155.508 -4.662 L 154.411 -4.783 L 153.310 -4.878 L 152.208 -4.946 L 151.104 -4.986 L 150.000 -5.000 L 148.896 -4.986 L 147.792 -4.946 L 146.690 -4.878 L 145.589 -4.783 L 144.492 -4.662 L 143.397 -4.513 L 142.307 -4.337 L 141.221 -4.135 L 140.140 -3.907 L 139.066 -3.651 L 137.998 -3.370 L 136.937 -3.062 L 135.884 -2.729 L 134.840 -2.369 L 133.805 -1.985 L 132.779 -1.575 L 131.764 -1.139 L 130.760 -0.680 L 129.767 -0.195 L 128.787 0.314 L 127.820 0.846 L 126.865 1.402 L 125.925 1.982 L 124.999 2.584 L 124.089 3.209 L 123.194 3.856 L 122.315 4.524 L 121.452 5.215 L 120.607 5.926 L 119.780 6.657 L 118.971 7.409 L 118.180 8.180 L 117.409 8.971 L 116.657 9.780 L 115.926 10.607 L 115.215 11.452 L 114.524 12.315 L 113.856 13.194 L 113.209 14.089 L 112.584 14.999 L 111.982 15.925 L 111.402 16.865 L 110.846 17.820 L 110.314 18.787 L 109.805 19.767 L 109.320 20.760 L 108.861 21.764 L 108.425 22.779 L 108.015 23.805 L 107.631 24.840 L 107.271 25.884 L 106.938 26.937 L 106.630 27.998 L 106.349 29.066 L 106.093 30.140 L 105.865 31.221 L 105.663 32.307 L 105.487 33.397 L 105.338 34.492 L 105.217 35.589 L 105.122 36.690 L 105.054 37.792 L 105.014 38.896 L 105.000 40.000 L 105.000 780.000 L 105.014 781.104 Z" fill="black" fill-rule="evenodd"/>
</svg>
