<svg xmlns="http://www.w3.org/2000/svg" viewBox="0 0 700.000 1000" width="700.000" height="1000">
  <path d="M 589.686 104.429 L 589.930 103.959 L 590.174 103.490 L 590.184 103.469 L 590.195 103.449 L 590.427 102.973 L 590.659 102.498 L 590.669 102.477 L 590.680 102.456 L 590.900 101.975 L 591.120 101.495 L 591.130 101.473 L 591.139 101.452 L 591.348 100.966 L 591.557 100.480 L 591.565 100.458 L 591.575 100.437 L 591.771 99.946 L 591.968 99.455 L 591.976 99.433 L 591.985 99.411 L 592.169 98.916 L 592.354 98.420 L 592.361 98.398 L 592.369 98.376 L 592.542 97.876 L 592.714 97.376 L 592.721 97.354 L 592.729 97.332 L 592.888 96.828 L 593.049 96.324 L 593.055 96.301 L 593.062 96.279 L 593.210 95.771 L 593.357 95.263 L 593.363 95.241 L 593.370 95.218 L 593.505 94.707 L 593.640 94.195 L 593.645 94.173 L 593.651 94.150 L 593.774 93.636 L 593.896 93.121 L 593.901 93.098 L 593.907 93.076 L 594.016 92.558 L 594.126 92.041 L 594.130 92.018 L 594.135 91.995 L 594.232 91.475 L 594.329 90.955 L 594.333 90.932 L 594.337 90.909 L 594.422 90.387 L 594.506 89.865 L 594.509 89.842 L 594.513 89.819 L 594.584 89.295 L 594.656 88.771 L 594.658 88.748 L 594.662 88.724 L 594.720 88.199 L 594.779 87.673 L 594.781 87.650 L 594.783 87.627 L 594.829 87.100 L 594.875 86.573 L 594.876 86.550 L 594.878 86.526 L 594.910 85.999 L 594.943 85.471 L 594.944 85.447 L 594.946 85.424 L 594.965 84.896 L 594.985 84.367 L 594.986 84.344 L 594.986 84.320 L 594.993 83.792 L 595.000 83.263 L 595.000 83.239 L 595.000 83.216 L 594.994 82.687 L 594.988 82.158 L 594.987 82.135 L 594.986 82.112 L 594.967 81.583 L 594.948 81.055 L 594.947 81.031 L 594.946 81.008 L 594.913 80.480 L 594.881 79.952 L 594.880 79.929 L 594.878 79.906 L 594.833 79.379 L 594.788 78.852 L 594.785 78.829 L 594.783 78.805 L 594.725 78.280 L 594.667 77.754 L 594.664 77.731 L 594.662 77.708 L 594.590 77.183 L 594.520 76.659 L 594.516 76.636 L 594.513 76.613 L 594.429 76.091 L 594.345 75.569 L 594.341 75.546 L 594.337 75.523 L 594.241 75.003 L 594.144 74.483 L 594.140 74.460 L 594.135 74.437 L 594.026 73.920 L 593.917 73.402 L 593.911 73.379 L 593.907 73.356 L 593.784 72.842 L 593.663 72.327 L 593.657 72.305 L 593.651 72.282 L 593.517 71.771 L 593.382 71.259 L 593.376 71.237 L 593.370 71.214 L 593.223 70.706 L 593.076 70.198 L 593.069 70.176 L 593.062 70.153 L 592.903 69.649 L 592.743 69.145 L 592.736 69.123 L 592.729 69.100 L 592.557 68.600 L 592.385 68.100 L 592.377 68.078 L 592.369 68.056 L 592.185 67.560 L 592.001 67.064 L 591.993 67.043 L 591.985 67.021 L 591.788 66.530 L 591.592 66.038 L 591.583 66.017 L 591.575 65.995 L 591.366 65.509 L 591.158 65.023 L 591.149 65.002 L 591.139 64.980 L 590.919 64.499 L 590.699 64.018 L 590.689 63.997 L 590.680 63.976 L 590.448 63.501 L 590.216 63.025 L 590.205 63.005 L 590.195 62.983 L 589.952 62.514 L 589.708 62.044 L 589.697 62.024 L 589.686 62.003 L 589.431 61.540 L 589.177 61.076 L 589.165 61.056 L 589.154 61.036 L 588.888 60.579 L 588.622 60.122 L 588.610 60.102 L 588.598 60.081 L 588.320 59.631 L 588.043 59.181 L 588.031 59.161 L 588.018 59.141 L 587.730 58.698 L 587.442 58.254 L 587.429 58.235 L 587.416 58.215 L 587.117 57.779 L 586.818 57.343 L 586.805 57.324 L 586.791 57.305 L 586.482 56.876 L 586.172 56.447 L 586.158 56.428 L 586.144 56.410 L 585.824 55.989 L 585.504 55.567 L 585.490 55.549 L 585.476 55.531 L 585.145 55.118 L 584.815 54.704 L 584.800 54.687 L 584.785 54.668 L 584.445 54.264 L 584.105 53.859 L 584.089 53.841 L 584.074 53.823 L 583.724 53.427 L 583.374 53.031 L 583.358 53.013 L 583.343 52.996 L 582.983 52.608 L 582.623 52.221 L 582.607 52.204 L 582.591 52.187 L 582.222 51.808 L 581.853 51.429 L 581.836 51.413 L 581.820 51.396 L 581.441 51.027 L 581.063 50.657 L 581.046 50.641 L 581.029 50.625 L 580.642 50.265 L 580.255 49.905 L 580.237 49.889 L 580.220 49.873 L 579.824 49.523 L 579.428 49.172 L 579.410 49.157 L 579.393 49.142 L 578.988 48.801 L 578.584 48.460 L 578.566 48.446 L 578.548 48.431 L 578.135 48.100 L 577.722 47.769 L 577.704 47.755 L 577.685 47.740 L 577.265 47.420 L 576.844 47.100 L 576.825 47.086 L 576.806 47.072 L 576.378 46.762 L 575.950 46.452 L 575.930 46.438 L 575.911 46.425 L 575.475 46.126 L 575.040 45.826 L 575.020 45.813 L 575.001 45.800 L 574.557 45.511 L 574.114 45.223 L 574.094 45.210 L 574.075 45.198 L 573.625 44.920 L 573.175 44.642 L 573.155 44.630 L 573.135 44.618 L 572.678 44.352 L 572.221 44.085 L 572.201 44.074 L 572.180 44.062 L 571.717 43.807 L 571.254 43.552 L 571.233 43.541 L 571.213 43.530 L 570.743 43.286 L 570.274 43.042 L 570.253 43.032 L 570.233 43.021 L 569.757 42.789 L 569.282 42.557 L 569.261 42.547 L 569.240 42.536 L 568.759 42.316 L 568.279 42.096 L 568.257 42.086 L 568.236 42.077 L 567.750 41.868 L 567.264 41.659 L 567.242 41.651 L 567.221 41.641 L 566.730 41.445 L 566.239 41.248 L 566.217 41.240 L 566.195 41.231 L 565.700 41.047 L 565.204 40.862 L 565.182 40.855 L 565.160 40.847 L 564.660 40.674 L 564.160 40.502 L 564.138 40.495 L 564.116 40.487 L 563.612 40.328 L 563.108 40.167 L 563.085 40.161 L 563.063 40.154 L 562.555 40.006 L 562.047 39.859 L 562.025 39.853 L 562.002 39.846 L 561.491 39.711 L 560.979 39.576 L 560.957 39.571 L 560.934 39.565 L 560.420 39.442 L 559.905 39.320 L 559.882 39.315 L 559.860 39.309 L 559.342 39.200 L 558.825 39.090 L 558.802 39.086 L 558.779 39.081 L 558.259 38.984 L 557.739 38.887 L 557.716 38.883 L 557.693 38.879 L 557.171 38.794 L 556.649 38.710 L 556.626 38.707 L 556.603 38.703 L 556.079 38.632 L 555.555 38.560 L 555.532 38.558 L 555.508 38.554 L 554.983 38.496 L 554.457 38.437 L 554.434 38.435 L 554.411 38.433 L 553.884 38.387 L 553.357 38.341 L 553.334 38.340 L 553.310 38.338 L 552.783 38.306 L 552.255 38.273 L 552.231 38.272 L 552.208 38.270 L 551.680 38.251 L 551.151 38.231 L 551.128 38.230 L 551.104 38.230 L 550.576 38.223 L 550.047 38.216 L 550.023 38.216 L 550.000 38.216 L 150.000 38.216 L 148.896 38.230 L 147.792 38.270 L 146.690 38.338 L 145.589 38.433 L 144.492 38.554 L 143.397 38.703 L 142.307 38.879 L 141.221 39.081 L 140.140 39.309 L 139.066 39.565 L 137.998 39.846 L 136.937 40.154 L 135.884 40.487 L 134.840 40.847 L 133.805 41.231 L 132.779 41.641 L 131.764 42.077 L 130.760 42.536 L 129.767 43.021 L 128.787 43.530 L 127.820 44.062 L 126.865 44.618 L 125.925 45.198 L 124.999 45.800 L 124.089 46.425 L 123.194 47.072 L 122.315 47.740 L 121.452 48.431 L 120.607 49.142 L 119.780 49.873 L 118.971 50.625 L 118.180 51.396 L 117.409 52.187 L 116.657 52.996 L 115.926 53.823 L 115.215 54.668 L 114.524 55.531 L 113.856 56.410 L 113.209 57.305 L 112.584 58.215 L 111.982 59.141 L 111.402 60.081 L 110.846 61.036 L 110.314 62.003 L 109.805 62.983 L 109.320 63.976 L 108.861 64.980 L 108.425 65.995 L 108.015 67.021 L 107.631 68.056 L 107.271 69.100 L 106.938 70.153 L 106.630 71.214 L 106.349 72.282 L 106.093 73.356 L 105.865 74.437 L 105.663 75.523 L 105.487 76.613 L 105.338 77.708 L 105.217 78.805 L 105.122 79.906 L 105.054 81.008 L 105.014 82.112 L 105.000 83.216 L 105.014 84.320 L 105.054 85.424 L 105.122 86.526 L 105.217 87.627 L 105.338 88.724 L 105.487 89.819 L 105.663 90.909 L 105.865 91.995 L 106.093 93.076 L 106.349 94.150 L 106.630 95.218 L 106.938 96.279 L 107.271 97.332 L 107.631 98.376 L 108.015 99.411 L 108.425 100.437 L 108.861 101.452 L 109.320 102.456 L 109.805 103.449 L 110.314 104.429 L 110.846 105.396 L 111.402 106.351 L 111.982 107.291 L 112.584 108.217 L 113.209 109.127 L 113.856 110.022 L 114.524 110.901 L 115.215 111.764 L 115.926 112.609 L 116.657 113.436 L 117.409 114.245 L 118.180 115.036 L 118.971 115.807 L 119.780 116.559 L 120.607 117.290 L 121.452 118.001 L 122.315 118.692 L 123.194 119.360 L 124.089 120.007 L 124.999 120.632 L 125.925 121.234 L 126.865 121.814 L 127.820 122.370 L 128.787 122.902 L 129.767 123.411 L 130.760 123.896 L 131.764 124.355 L 132.779 124.791 L 133.805 125.201 L 134.840 125.585 L 135.884 125.945 L 136.937 126.278 L 137.998 126.586 L 139.066 126.867 L 140.140 127.123 L 141.221 127.351 L 142.307 127.553 L 143.397 127.729 L 144.492 127.878 L 145.589 127.999 L 146.690 128.094 L 147.792 128.162 L 148.896 128.202 L 150.000 128.216 L 474.833 128.216 L 144.896 743.946 L 144.386 744.926 L 143.901 745.918 L 143.440 746.921 L 143.003 747.936 L 142.592 748.961 L 142.206 749.996 L 141.846 751.040 L 141.511 752.092 L 141.203 753.153 L 140.920 754.221 L 140.664 755.295 L 140.434 756.375 L 140.231 757.461 L 140.054 758.551 L 139.904 759.645 L 139.781 760.743 L 139.685 761.843 L 139.617 762.945 L 139.575 764.049 L 139.560 765.153 L 139.572 766.258 L 139.612 767.361 L 139.679 768.464 L 139.772 769.564 L 139.893 770.662 L 140.040 771.757 L 140.215 772.847 L 140.416 773.933 L 140.643 775.014 L 140.897 776.089 L 141.178 777.157 L 141.484 778.218 L 141.817 779.271 L 142.175 780.316 L 142.559 781.352 L 142.968 782.378 L 143.402 783.393 L 143.861 784.398 L 144.344 785.391 L 144.852 786.372 L 145.383 787.340 L 145.938 788.294 L 146.517 789.235 L 147.118 790.162 L 147.742 791.073 L 148.388 791.969 L 149.056 792.849 L 149.745 793.712 L 150.455 794.557 L 151.186 795.385 L 151.937 796.195 L 152.707 796.987 L 153.497 797.759 L 154.305 798.511 L 155.132 799.244 L 155.976 799.956 L 156.838 800.647 L 157.716 801.316 L 158.610 801.964 L 159.520 802.590 L 160.446 803.193 L 161.385 803.774 L 162.339 804.331 L 163.306 804.864 L 164.286 805.374 L 165.278 805.859 L 166.281 806.320 L 167.296 806.757 L 168.321 807.168 L 169.356 807.554 L 170.400 807.914 L 171.452 808.249 L 172.513 808.557 L 173.581 808.840 L 174.655 809.096 L 175.735 809.326 L 176.821 809.529 L 177.911 809.706 L 179.005 809.856 L 180.103 809.979 L 181.203 810.075 L 182.305 810.143 L 183.409 810.185 L 184.513 810.200 L 185.618 810.188 L 186.721 810.148 L 187.824 810.081 L 188.924 809.988 L 190.022 809.867 L 191.117 809.720 L 192.207 809.545 L 193.293 809.344 L 194.374 809.117 L 195.449 808.863 L 196.517 808.582 L 197.578 808.276 L 198.631 807.943 L 199.676 807.585 L 200.712 807.201 L 201.738 806.792 L 202.753 806.358 L 203.758 805.899 L 204.751 805.416 L 205.732 804.908 L 206.700 804.377 L 207.654 803.822 L 208.595 803.243 L 209.522 802.642 L 210.433 802.018 L 211.329 801.372 L 212.209 800.704 L 213.072 800.015 L 213.917 799.305 L 214.745 798.574 L 215.555 797.823 L 216.347 797.053 L 217.119 796.263 L 217.871 795.455 L 218.604 794.628 L 219.316 793.784 L 220.007 792.922 L 220.676 792.044 L 221.324 791.150 L 221.950 790.240 L 222.553 789.314 L 223.134 788.375 L 223.691 787.421 L 224.224 786.454 L 589.664 104.470 L 589.675 104.449 L 589.686 104.429 Z" fill="black" fill-rule="evenodd"/>
</svg>
