<svg xmlns="http://www.w3.org/2000/svg" viewBox="0 0 700.000 1000" width="700.000" height="1000">
  <path d="M 552.208 135.266 L 553.310 135.198 L 554.411 135.103 L 555.508 134.982 L 556.603 134.833 L 557.693 134.657 L 558.779 134.455 L 559.860 134.227 L 560.934 133.971 L 562.002 133.690 L 563.063 133.382 L 564.116 133.049 L 565.160 132.689 L 566.195 132.305 L 567.221 131.895 L 568.236 131.459 L 569.240 131.000 L 570.233 130.515 L 571.213 130.006 L 572.180 129.474 L 573.135 128.918 L 574.075 128.338 L 575.001 127.736 L 575.911 127.111 L 576.806 126.464 L 577.685 125.796 L 578.548 125.105 L 579.393 124.394 L 580.220 123.663 L 581.029 122.911 L 581.820 122.140 L 582.591 121.349 L 583.343 120.540 L 584.074 119.713 L 584.785 118.868 L 585.476 118.005 L 586.144 117.126 L 586.791 116.231 L 587.416 115.321 L 588.018 114.395 L 588.598 113.455 L 589.154 112.500 L 589.686 111.533 L 590.195 110.553 L 590.680 109.560 L 591.139 108.556 L 591.575 107.541 L 591.985 106.515 L 592.369 105.480 L 592.729 104.436 L 593.062 103.383 L 593.370 102.322 L 593.651 101.254 L 593.907 100.180 L 594.135 99.099 L 594.337 98.013 L 594.513 96.923 L 594.662 95.828 L 594.783 94.731 L 594.878 93.630 L 594.946 92.528 L 594.986 91.424 L 595.000 90.320 L 594.986 89.216 L 594.946 88.112 L 594.878 87.010 L 594.783 85.909 L 594.662 84.812 L 594.513 83.717 L 594.337 82.627 L 594.135 81.541 L 593.907 80.460 L 593.651 79.386 L 593.370 78.318 L 593.062 77.257 L 592.729 76.204 L 592.369 75.160 L 591.985 74.125 L 591.575 73.099 L 591.139 72.084 L 590.680 71.080 L 590.195 70.087 L 589.686 69.107 L 589.154 68.140 L 588.598 67.185 L 588.018 66.245 L 587.416 65.319 L 586.791 64.409 L 586.144 63.514 L 585.476 62.635 L 584.785 61.772 L 584.074 60.927 L 583.343 60.100 L 582.591 59.291 L 581.820 58.500 L 581.029 57.729 L 580.220 56.977 L 579.393 56.246 L 578.548 55.535 L 577.685 54.844 L 576.806 54.176 L 575.911 53.529 L 575.001 52.904 L 574.075 52.302 L 573.135 51.722 L 572.180 51.166 L 571.213 50.634 L 570.233 50.125 L 569.240 49.640 L 568.236 49.181 L 567.221 48.745 L 566.195 48.335 L 565.160 47.951 L 564.116 47.591 L 563.063 47.258 L 562.002 46.950 L 560.934 46.669 L 559.860 46.413 L 558.779 46.185 L 557.693 45.983 L 556.603 45.807 L 555.508 45.658 L 554.411 45.537 L 553.310 45.442 L 552.208 45.374 L 551.104 45.334 L 550.000 45.320 L 153.840 45.320 L 153.840 45.320 L 152.736 45.334 L 151.632 45.374 L 150.530 45.442 L 149.429 45.537 L 149.092 45.574 L 148.332 45.658 L 147.580 45.760 L 147.237 45.807 L 146.147 45.983 L 145.061 46.185 L 144.895 46.220 L 143.980 46.413 L 142.906 46.669 L 141.838 46.950 L 141.268 47.115 L 140.777 47.258 L 139.724 47.591 L 138.680 47.951 L 137.645 48.335 L 137.132 48.540 L 136.619 48.745 L 136.352 48.860 L 135.604 49.181 L 134.600 49.640 L 133.607 50.125 L 132.627 50.634 L 131.660 51.166 L 131.115 51.484 L 130.705 51.722 L 129.765 52.302 L 128.839 52.904 L 127.929 53.529 L 127.563 53.793 L 127.034 54.176 L 126.155 54.844 L 125.691 55.216 L 125.292 55.535 L 124.447 56.246 L 123.620 56.977 L 122.811 57.729 L 122.020 58.500 L 121.249 59.291 L 120.497 60.100 L 120.131 60.514 L 119.766 60.927 L 119.055 61.772 L 118.364 62.635 L 117.954 63.174 L 117.696 63.514 L 117.516 63.762 L 117.049 64.409 L 116.424 65.319 L 115.822 66.245 L 115.242 67.185 L 114.918 67.742 L 114.686 68.140 L 114.447 68.575 L 114.154 69.107 L 113.645 70.087 L 113.160 71.080 L 112.701 72.084 L 112.514 72.519 L 112.265 73.099 L 111.855 74.125 L 111.471 75.160 L 111.300 75.657 L 111.111 76.204 L 111.006 76.538 L 110.778 77.257 L 110.470 78.318 L 110.189 79.386 L 109.933 80.460 L 109.705 81.541 L 109.604 82.084 L 109.503 82.627 L 109.415 83.172 L 109.327 83.717 L 109.178 84.812 L 109.165 84.933 L 109.057 85.909 L 108.977 86.835 L 108.962 87.010 L 108.894 88.112 L 108.854 89.216 L 108.840 90.320 L 108.840 367.376 L 108.854 368.480 L 108.894 369.584 L 108.962 370.686 L 109.057 371.787 L 109.178 372.884 L 109.327 373.979 L 109.503 375.069 L 109.705 376.155 L 109.933 377.236 L 110.189 378.310 L 110.470 379.378 L 110.778 380.439 L 111.111 381.492 L 111.471 382.536 L 111.855 383.571 L 112.265 384.597 L 112.701 385.612 L 113.160 386.616 L 113.645 387.609 L 114.154 388.589 L 114.686 389.556 L 115.242 390.511 L 115.822 391.451 L 116.424 392.377 L 117.049 393.287 L 117.696 394.182 L 118.364 395.061 L 119.055 395.924 L 119.766 396.769 L 120.497 397.596 L 121.249 398.405 L 122.020 399.196 L 122.811 399.967 L 123.620 400.719 L 124.447 401.450 L 125.292 402.161 L 126.155 402.852 L 127.034 403.520 L 127.929 404.167 L 128.839 404.792 L 129.765 405.394 L 130.705 405.974 L 131.660 406.530 L 132.627 407.062 L 133.607 407.571 L 134.600 408.056 L 135.604 408.515 L 136.619 408.951 L 137.645 409.361 L 138.680 409.745 L 139.724 410.105 L 140.777 410.438 L 141.838 410.746 L 142.906 411.027 L 143.980 411.283 L 145.061 411.511 L 146.147 411.713 L 147.237 411.889 L 148.332 412.038 L 149.429 412.159 L 150.530 412.254 L 151.632 412.322 L 152.736 412.362 L 153.840 412.376 L 434.567 412.376 L 435.384 412.384 L 435.969 412.403 L 436.555 412.433 L 437.143 412.475 L 437.733 412.530 L 438.326 412.598 L 438.923 412.678 L 439.524 412.772 L 440.129 412.879 L 440.740 412.999 L 441.355 413.134 L 441.977 413.282 L 442.605 413.446 L 443.240 413.625 L 443.881 413.820 L 444.530 414.030 L 445.186 414.258 L 445.849 414.502 L 446.521 414.764 L 447.200 415.044 L 447.887 415.342 L 448.582 415.660 L 449.285 415.997 L 449.996 416.353 L 450.714 416.730 L 451.441 417.128 L 452.175 417.547 L 452.916 417.988 L 453.664 418.451 L 454.420 418.936 L 455.182 419.444 L 455.950 419.975 L 456.724 420.529 L 457.505 421.107 L 458.290 421.709 L 459.081 422.336 L 459.876 422.986 L 460.676 423.662 L 461.479 424.362 L 462.286 425.087 L 463.096 425.838 L 463.909 426.613 L 464.724 427.414 L 465.540 428.240 L 466.358 429.092 L 467.177 429.969 L 467.996 430.872 L 468.815 431.800 L 469.634 432.754 L 470.452 433.732 L 471.268 434.737 L 472.082 435.766 L 472.895 436.820 L 473.704 437.900 L 474.511 439.004 L 475.314 440.133 L 476.113 441.286 L 476.907 442.464 L 477.697 443.666 L 478.482 444.892 L 479.261 446.141 L 480.034 447.414 L 480.801 448.710 L 481.561 450.029 L 482.314 451.371 L 483.059 452.735 L 483.796 454.121 L 484.526 455.530 L 485.247 456.959 L 485.959 458.410 L 486.662 459.882 L 487.355 461.374 L 488.038 462.887 L 488.712 464.419 L 489.375 465.971 L 490.027 467.543 L 490.669 469.133 L 491.299 470.741 L 491.917 472.368 L 492.524 474.012 L 493.119 475.674 L 493.701 477.353 L 494.271 479.048 L 494.828 480.759 L 495.373 482.486 L 495.904 484.229 L 496.421 485.986 L 496.925 487.758 L 497.416 489.544 L 497.892 491.344 L 498.354 493.156 L 498.802 494.982 L 499.235 496.821 L 499.653 498.671 L 500.057 500.533 L 500.446 502.406 L 500.820 504.289 L 501.178 506.183 L 501.521 508.087 L 501.848 510.000 L 502.160 511.922 L 502.456 513.852 L 502.736 515.791 L 503.000 517.737 L 503.248 519.690 L 503.480 521.650 L 503.696 523.616 L 503.896 525.587 L 504.079 527.564 L 504.245 529.546 L 504.395 531.533 L 504.529 533.523 L 504.646 535.517 L 504.746 537.513 L 504.830 539.512 L 504.897 541.514 L 504.947 543.517 L 504.981 545.521 L 504.998 547.525 L 504.998 549.531 L 504.981 551.535 L 504.947 553.539 L 504.897 555.542 L 504.830 557.544 L 504.746 559.543 L 504.646 561.539 L 504.529 563.533 L 504.395 565.523 L 504.245 567.510 L 504.079 569.492 L 503.896 571.469 L 503.696 573.440 L 503.480 575.406 L 503.248 577.366 L 503.000 579.319 L 502.736 581.265 L 502.456 583.204 L 502.160 585.134 L 501.848 587.056 L 501.521 588.969 L 501.178 590.873 L 500.820 592.767 L 500.446 594.650 L 500.057 596.523 L 499.653 598.385 L 499.235 600.235 L 498.802 602.074 L 498.354 603.900 L 497.892 605.712 L 497.416 607.512 L 496.925 609.298 L 496.421 611.070 L 495.904 612.827 L 495.373 614.570 L 494.828 616.297 L 494.271 618.008 L 493.701 619.703 L 493.119 621.382 L 492.524 623.044 L 491.917 624.688 L 491.299 626.315 L 490.669 627.923 L 490.027 629.513 L 489.375 631.085 L 488.712 632.637 L 488.038 634.169 L 487.355 635.682 L 486.662 637.174 L 485.959 638.646 L 485.247 640.097 L 484.526 641.526 L 483.796 642.935 L 483.059 644.321 L 482.314 645.685 L 481.561 647.027 L 480.801 648.346 L 480.034 649.642 L 479.261 650.915 L 478.482 652.164 L 477.697 653.390 L 476.907 654.592 L 476.113 655.770 L 475.314 656.923 L 474.511 658.052 L 473.704 659.156 L 472.895 660.236 L 472.082 661.290 L 471.268 662.319 L 470.452 663.324 L 469.634 664.302 L 468.815 665.256 L 467.996 666.184 L 467.177 667.087 L 466.358 667.964 L 465.540 668.816 L 464.724 669.642 L 463.909 670.443 L 463.096 671.218 L 462.286 671.969 L 461.479 672.694 L 460.676 673.394 L 459.876 674.070 L 459.081 674.720 L 458.290 675.347 L 457.505 675.949 L 456.724 676.527 L 455.950 677.081 L 455.182 677.612 L 454.420 678.120 L 453.664 678.605 L 452.916 679.068 L 452.175 679.509 L 451.441 679.928 L 450.714 680.326 L 449.996 680.703 L 449.285 681.059 L 448.582 681.396 L 447.887 681.714 L 447.200 682.012 L 446.521 682.292 L 445.849 682.554 L 445.186 682.798 L 444.530 683.026 L 443.881 683.236 L 443.240 683.431 L 442.605 683.610 L 441.977 683.774 L 441.355 683.922 L 440.740 684.057 L 440.129 684.177 L 439.524 684.284 L 438.923 684.378 L 438.326 684.458 L 437.733 684.526 L 437.143 684.581 L 436.555 684.623 L 435.969 684.653 L 435.384 684.672 L 434.567 684.680 L 153.840 684.680 L 152.736 684.694 L 151.632 684.734 L 150.530 684.802 L 149.429 684.897 L 148.332 685.018 L 147.237 685.167 L 146.147 685.343 L 145.061 685.545 L 143.980 685.773 L 142.906 686.029 L 141.838 686.310 L 140.777 686.618 L 139.724 686.951 L 138.680 687.311 L 137.645 687.695 L 136.619 688.105 L 135.604 688.541 L 134.600 689.000 L 133.607 689.485 L 132.627 689.994 L 131.660 690.526 L 130.705 691.082 L 129.765 691.662 L 128.839 692.264 L 127.929 692.889 L 127.034 693.536 L 126.155 694.204 L 125.292 694.895 L 124.447 695.606 L 123.620 696.337 L 122.811 697.089 L 122.020 697.860 L 121.249 698.651 L 120.497 699.460 L 119.766 700.287 L 119.055 701.132 L 118.364 701.995 L 117.696 702.874 L 117.049 703.769 L 116.424 704.679 L 115.822 705.605 L 115.242 706.545 L 114.686 707.500 L 114.154 708.467 L 113.645 709.447 L 113.160 710.440 L 112.701 711.444 L 112.265 712.459 L 111.855 713.485 L 111.471 714.520 L 111.111 715.564 L 110.778 716.617 L 110.470 717.678 L 110.189 718.746 L 109.933 719.820 L 109.705 720.901 L 109.503 721.987 L 109.327 723.077 L 109.178 724.172 L 109.057 725.269 L 108.962 726.370 L 108.894 727.472 L 108.854 728.576 L 108.840 729.680 L 108.854 730.784 L 108.894 731.888 L 108.962 732.990 L 109.057 734.091 L 109.178 735.188 L 109.327 736.283 L 109.503 737.373 L 109.705 738.459 L 109.933 739.540 L 110.189 740.614 L 110.470 741.682 L 110.778 742.743 L 111.111 743.796 L 111.471 744.840 L 111.855 745.875 L 112.265 746.901 L 112.701 747.916 L 113.160 748.920 L 113.645 749.913 L 114.154 750.893 L 114.686 751.860 L 115.242 752.815 L 115.822 753.755 L 116.424 754.681 L 117.049 755.591 L 117.696 756.486 L 118.364 757.365 L 119.055 758.228 L 119.766 759.073 L 120.497 759.900 L 121.249 760.709 L 122.020 761.500 L 122.811 762.271 L 123.620 763.023 L 124.447 763.754 L 125.292 764.465 L 126.155 765.156 L 127.034 765.824 L 127.929 766.471 L 128.839 767.096 L 129.765 767.698 L 130.705 768.278 L 131.660 768.834 L 132.627 769.366 L 133.607 769.875 L 134.600 770.360 L 135.604 770.819 L 136.619 771.255 L 137.645 771.665 L 138.680 772.049 L 139.724 772.409 L 140.777 772.742 L 141.838 773.050 L 142.906 773.331 L 143.980 773.587 L 145.061 773.815 L 146.147 774.017 L 147.237 774.193 L 148.332 774.342 L 149.429 774.463 L 150.530 774.558 L 151.632 774.626 L 152.736 774.666 L 153.840 774.680 L 434.800 774.680 L 435.033 774.677 L 435.265 774.678 L 436.779 774.662 L 437.709 774.643 L 439.223 774.596 L 440.151 774.557 L 441.665 774.479 L 442.591 774.422 L 444.104 774.312 L 445.027 774.236 L 446.538 774.095 L 447.458 774.000 L 448.968 773.828 L 449.883 773.714 L 451.391 773.511 L 452.301 773.379 L 453.808 773.145 L 454.711 772.995 L 456.215 772.729 L 457.111 772.562 L 458.614 772.265 L 459.502 772.081 L 461.002 771.753 L 461.882 771.552 L 463.379 771.193 L 464.249 770.975 L 465.743 770.586 L 466.604 770.352 L 468.095 769.932 L 468.945 769.683 L 470.432 769.232 L 471.272 768.968 L 472.755 768.486 L 473.584 768.208 L 475.062 767.696 L 475.879 767.404 L 477.354 766.861 L 478.158 766.556 L 479.628 765.982 L 480.420 765.665 L 481.885 765.061 L 482.664 764.731 L 484.123 764.097 L 484.889 763.756 L 486.343 763.092 L 487.096 762.740 L 488.544 762.046 L 489.283 761.684 L 490.726 760.960 L 491.450 760.588 L 492.887 759.834 L 493.598 759.453 L 495.027 758.670 L 495.724 758.281 L 497.147 757.468 L 497.830 757.070 L 499.246 756.228 L 499.914 755.823 L 501.323 754.952 L 501.977 754.540 L 503.379 753.639 L 504.018 753.221 L 505.412 752.292 L 506.037 751.867 L 507.424 750.909 L 508.034 750.480 L 509.413 749.493 L 510.009 749.059 L 511.379 748.044 L 511.962 747.605 L 513.323 746.561 L 513.891 746.118 L 515.244 745.047 L 515.799 744.600 L 517.142 743.501 L 517.683 743.051 L 519.017 741.925 L 519.545 741.472 L 520.869 740.318 L 521.383 739.863 L 522.698 738.681 L 523.199 738.224 L 524.504 737.015 L 524.992 736.556 L 526.287 735.320 L 526.762 734.860 L 528.046 733.598 L 528.509 733.136 L 529.783 731.847 L 530.233 731.385 L 531.496 730.070 L 531.935 729.607 L 533.186 728.266 L 533.613 727.802 L 534.853 726.436 L 535.268 725.972 L 536.497 724.580 L 536.900 724.116 L 538.117 722.699 L 538.510 722.235 L 539.715 720.793 L 540.096 720.330 L 541.289 718.863 L 541.660 718.400 L 542.840 716.908 L 543.201 716.446 L 544.369 714.931 L 544.719 714.470 L 545.874 712.930 L 546.215 712.470 L 547.357 710.906 L 547.687 710.447 L 548.816 708.860 L 549.137 708.403 L 550.253 706.792 L 550.565 706.336 L 551.667 704.703 L 551.970 704.248 L 553.058 702.592 L 553.352 702.139 L 554.426 700.461 L 554.711 700.009 L 555.772 698.309 L 556.048 697.859 L 557.094 696.137 L 557.363 695.689 L 558.394 693.945 L 558.655 693.499 L 559.672 691.734 L 559.924 691.290 L 560.926 689.504 L 561.171 689.061 L 562.158 687.255 L 562.396 686.814 L 563.368 684.988 L 563.598 684.549 L 564.554 682.703 L 564.778 682.265 L 565.719 680.400 L 565.935 679.964 L 566.860 678.079 L 567.070 677.646 L 567.979 675.742 L 568.182 675.311 L 569.076 673.388 L 569.272 672.959 L 570.150 671.018 L 570.340 670.590 L 571.201 668.631 L 571.385 668.206 L 572.230 666.229 L 572.408 665.805 L 573.236 663.812 L 573.408 663.390 L 574.219 661.379 L 574.386 660.959 L 575.180 658.932 L 575.342 658.514 L 576.119 656.470 L 576.275 656.054 L 577.035 653.995 L 577.185 653.580 L 577.928 651.505 L 578.074 651.093 L 578.799 649.002 L 578.939 648.592 L 579.647 646.487 L 579.782 646.078 L 580.472 643.958 L 580.603 643.551 L 581.275 641.417 L 581.401 641.011 L 582.055 638.864 L 582.177 638.460 L 582.813 636.299 L 582.929 635.897 L 583.548 633.723 L 583.660 633.322 L 584.260 631.136 L 584.368 630.737 L 584.949 628.538 L 585.053 628.140 L 585.616 625.930 L 585.715 625.534 L 586.260 623.312 L 586.355 622.917 L 586.881 620.684 L 586.972 620.290 L 587.480 618.047 L 587.567 617.654 L 588.056 615.400 L 588.139 615.009 L 588.608 612.745 L 588.688 612.355 L 589.138 610.082 L 589.214 609.693 L 589.646 607.411 L 589.717 607.023 L 590.130 604.732 L 590.198 604.345 L 590.591 602.046 L 590.656 601.660 L 591.030 599.353 L 591.091 598.968 L 591.446 596.653 L 591.503 596.269 L 591.838 593.947 L 591.892 593.564 L 592.208 591.235 L 592.258 590.853 L 592.555 588.518 L 592.602 588.136 L 592.879 585.795 L 592.922 585.414 L 593.180 583.068 L 593.220 582.688 L 593.458 580.336 L 593.495 579.957 L 593.713 577.600 L 593.746 577.221 L 593.945 574.861 L 593.975 574.482 L 594.154 572.118 L 594.181 571.740 L 594.340 569.372 L 594.363 568.994 L 594.502 566.623 L 594.523 566.246 L 594.642 563.872 L 594.660 563.495 L 594.759 561.119 L 594.773 560.742 L 594.853 558.364 L 594.864 557.988 L 594.924 555.609 L 594.932 555.232 L 594.971 552.852 L 594.976 552.476 L 594.996 550.095 L 594.998 549.719 L 594.998 547.337 L 594.996 546.961 L 594.976 544.580 L 594.971 544.204 L 594.932 541.824 L 594.924 541.447 L 594.864 539.068 L 594.853 538.692 L 594.773 536.314 L 594.759 535.937 L 594.660 533.561 L 594.642 533.184 L 594.523 530.810 L 594.502 530.433 L 594.363 528.062 L 594.340 527.684 L 594.181 525.316 L 594.154 524.938 L 593.975 522.574 L 593.945 522.195 L 593.746 519.835 L 593.713 519.456 L 593.495 517.099 L 593.458 516.720 L 593.220 514.368 L 593.180 513.988 L 592.922 511.642 L 592.879 511.261 L 592.602 508.920 L 592.555 508.538 L 592.258 506.203 L 592.208 505.821 L 591.892 503.492 L 591.838 503.109 L 591.503 500.787 L 591.446 500.403 L 591.091 498.088 L 591.030 497.703 L 590.656 495.396 L 590.591 495.010 L 590.198 492.711 L 590.130 492.324 L 589.717 490.033 L 589.646 489.645 L 589.214 487.363 L 589.138 486.974 L 588.688 484.701 L 588.608 484.311 L 588.139 482.047 L 588.056 481.656 L 587.567 479.402 L 587.480 479.009 L 586.972 476.766 L 586.881 476.372 L 586.355 474.139 L 586.260 473.744 L 585.715 471.522 L 585.616 471.126 L 585.053 468.916 L 584.949 468.518 L 584.368 466.319 L 584.260 465.920 L 583.660 463.734 L 583.548 463.333 L 582.929 461.159 L 582.813 460.757 L 582.177 458.596 L 582.055 458.192 L 581.401 456.045 L 581.275 455.639 L 580.603 453.505 L 580.472 453.098 L 579.782 450.978 L 579.647 450.569 L 578.939 448.464 L 578.799 448.054 L 578.074 445.963 L 577.928 445.551 L 577.185 443.476 L 577.035 443.061 L 576.275 441.002 L 576.119 440.586 L 575.342 438.542 L 575.180 438.124 L 574.386 436.097 L 574.219 435.677 L 573.408 433.666 L 573.236 433.244 L 572.408 431.251 L 572.230 430.827 L 571.385 428.850 L 571.201 428.425 L 570.340 426.466 L 570.150 426.038 L 569.272 424.097 L 569.076 423.668 L 568.182 421.745 L 567.979 421.314 L 567.070 419.410 L 566.860 418.977 L 565.935 417.092 L 565.719 416.656 L 564.778 414.791 L 564.554 414.353 L 563.598 412.507 L 563.368 412.068 L 562.396 410.242 L 562.158 409.801 L 561.171 407.995 L 560.926 407.552 L 559.924 405.766 L 559.672 405.322 L 558.655 403.557 L 558.394 403.111 L 557.363 401.367 L 557.094 400.919 L 556.048 399.197 L 555.772 398.747 L 554.711 397.047 L 554.426 396.595 L 553.352 394.917 L 553.058 394.464 L 551.970 392.808 L 551.667 392.353 L 550.565 390.720 L 550.253 390.264 L 549.137 388.653 L 548.816 388.196 L 547.687 386.609 L 547.357 386.150 L 546.215 384.586 L 545.874 384.126 L 544.719 382.586 L 544.369 382.125 L 543.201 380.610 L 542.840 380.148 L 541.660 378.656 L 541.289 378.193 L 540.096 376.726 L 539.715 376.263 L 538.510 374.821 L 538.117 374.357 L 536.900 372.940 L 536.497 372.476 L 535.268 371.084 L 534.853 370.620 L 533.613 369.254 L 533.186 368.790 L 531.935 367.449 L 531.496 366.986 L 530.233 365.671 L 529.783 365.209 L 528.509 363.920 L 528.046 363.458 L 526.762 362.196 L 526.287 361.736 L 524.992 360.500 L 524.504 360.041 L 523.199 358.832 L 522.698 358.375 L 521.383 357.193 L 520.869 356.738 L 519.545 355.584 L 519.017 355.131 L 517.683 354.005 L 517.142 353.555 L 515.799 352.456 L 515.244 352.009 L 513.891 350.938 L 513.323 350.495 L 511.962 349.451 L 511.379 349.012 L 510.009 347.997 L 509.413 347.563 L 508.034 346.576 L 507.424 346.147 L 506.037 345.189 L 505.412 344.764 L 504.018 343.835 L 503.379 343.417 L 501.977 342.516 L 501.323 342.104 L 499.914 341.233 L 499.246 340.828 L 497.830 339.986 L 497.147 339.588 L 495.724 338.775 L 495.027 338.386 L 493.598 337.603 L 492.887 337.222 L 491.450 336.468 L 490.726 336.096 L 489.283 335.372 L 488.544 335.010 L 487.096 334.316 L 486.343 333.964 L 484.889 333.300 L 484.123 332.959 L 482.664 332.325 L 481.885 331.995 L 480.420 331.391 L 479.628 331.074 L 478.158 330.500 L 477.354 330.195 L 475.879 329.652 L 475.062 329.360 L 473.584 328.848 L 472.755 328.570 L 471.272 328.088 L 470.432 327.824 L 468.945 327.373 L 468.095 327.124 L 466.604 326.704 L 465.743 326.470 L 464.249 326.081 L 463.379 325.863 L 461.882 325.504 L 461.002 325.303 L 459.502 324.975 L 458.614 324.791 L 457.111 324.494 L 456.215 324.327 L 454.711 324.061 L 453.808 323.911 L 452.301 323.677 L 451.391 323.545 L 449.883 323.342 L 448.968 323.228 L 447.458 323.056 L 446.538 322.961 L 445.027 322.820 L 444.104 322.744 L 442.591 322.634 L 441.665 322.577 L 440.151 322.499 L 439.223 322.460 L 437.709 322.413 L 436.779 322.394 L 435.265 322.378 L 435.033 322.379 L 434.800 322.376 L 198.840 322.376 L 198.840 135.320 L 550.000 135.320 L 551.104 135.306 L 552.208 135.266 Z" fill="black" fill-rule="evenodd"/>
</svg>
