<svg xmlns="http://www.w3.org/2000/svg" viewBox="0 0 700.000 1000" width="700.000" height="1000">
  <path d="M 203.050 201.365 L 203.111 200.056 L 203.195 198.746 L 203.304 197.436 L 203.438 196.126 L 203.595 194.816 L 203.778 193.505 L 203.985 192.193 L 204.216 190.881 L 204.472 189.569 L 204.754 188.256 L 205.060 186.943 L 205.392 185.629 L 205.749 184.315 L 206.131 183.001 L 206.539 181.686 L 206.973 180.372 L 207.433 179.057 L 207.919 177.742 L 208.431 176.428 L 208.970 175.113 L 209.536 173.800 L 210.128 172.487 L 210.747 171.174 L 211.394 169.863 L 212.067 168.554 L 212.768 167.246 L 213.496 165.939 L 214.252 164.635 L 215.036 163.334 L 215.847 162.035 L 216.687 160.739 L 217.554 159.446 L 218.449 158.157 L 219.373 156.872 L 220.324 155.592 L 221.304 154.316 L 222.311 153.046 L 223.347 151.780 L 224.411 150.521 L 225.503 149.269 L 226.623 148.023 L 227.771 146.784 L 228.947 145.552 L 230.151 144.329 L 231.382 143.114 L 232.641 141.908 L 233.927 140.711 L 235.241 139.524 L 236.581 138.347 L 237.949 137.180 L 239.343 136.024 L 240.764 134.880 L 242.211 133.748 L 243.684 132.628 L 245.183 131.520 L 246.707 130.425 L 248.257 129.344 L 249.832 128.277 L 251.431 127.224 L 253.055 126.186 L 254.702 125.163 L 256.373 124.155 L 258.068 123.164 L 259.786 122.188 L 261.526 121.229 L 263.288 120.288 L 265.073 119.363 L 266.878 118.456 L 268.705 117.567 L 270.552 116.697 L 272.419 115.845 L 274.306 115.013 L 276.213 114.200 L 278.138 113.406 L 280.081 112.633 L 282.043 111.879 L 284.021 111.147 L 286.017 110.435 L 288.029 109.744 L 290.057 109.075 L 292.101 108.427 L 294.159 107.801 L 296.232 107.198 L 298.318 106.616 L 300.418 106.058 L 302.531 105.522 L 304.656 105.009 L 306.793 104.519 L 308.941 104.052 L 311.099 103.609 L 313.268 103.190 L 315.446 102.795 L 317.633 102.423 L 319.829 102.076 L 322.032 101.753 L 324.243 101.454 L 326.460 101.180 L 328.683 100.931 L 330.912 100.706 L 333.146 100.506 L 335.384 100.330 L 337.627 100.180 L 339.872 100.055 L 342.120 99.954 L 344.370 99.879 L 346.621 99.829 L 348.874 99.804 L 351.126 99.804 L 353.379 99.829 L 355.630 99.879 L 357.880 99.954 L 360.128 100.055 L 362.373 100.180 L 364.616 100.330 L 366.854 100.506 L 369.088 100.706 L 371.317 100.931 L 373.540 101.180 L 375.757 101.454 L 377.968 101.753 L 380.171 102.076 L 382.367 102.423 L 384.554 102.795 L 386.732 103.190 L 388.901 103.609 L 391.059 104.052 L 393.207 104.519 L 395.344 105.009 L 397.469 105.522 L 399.582 106.058 L 401.682 106.616 L 403.768 107.198 L 405.841 107.801 L 407.899 108.427 L 409.943 109.075 L 411.971 109.744 L 413.983 110.435 L 415.979 111.147 L 417.957 111.879 L 419.919 112.633 L 421.862 113.406 L 423.787 114.200 L 425.694 115.013 L 427.581 115.845 L 429.448 116.697 L 431.295 117.567 L 433.122 118.456 L 434.927 119.363 L 436.712 120.288 L 438.474 121.229 L 440.214 122.188 L 441.932 123.164 L 443.627 124.155 L 445.298 125.163 L 446.945 126.186 L 448.569 127.224 L 450.168 128.277 L 451.743 129.344 L 453.293 130.425 L 454.817 131.520 L 456.316 132.628 L 457.789 133.748 L 459.236 134.880 L 460.657 136.024 L 462.051 137.180 L 463.419 138.347 L 464.759 139.524 L 466.073 140.711 L 467.359 141.908 L 468.618 143.114 L 469.849 144.329 L 471.053 145.552 L 472.229 146.784 L 473.377 148.023 L 474.497 149.269 L 475.589 150.521 L 476.653 151.780 L 477.689 153.046 L 478.696 154.316 L 479.676 155.592 L 480.627 156.872 L 481.551 158.157 L 482.446 159.446 L 483.313 160.739 L 484.153 162.035 L 484.964 163.334 L 485.748 164.635 L 486.504 165.939 L 487.232 167.246 L 487.933 168.554 L 488.606 169.863 L 489.253 171.174 L 489.872 172.487 L 490.464 173.800 L 491.030 175.113 L 491.569 176.428 L 492.081 177.742 L 492.567 179.057 L 493.027 180.372 L 493.461 181.686 L 493.869 183.001 L 494.251 184.315 L 494.608 185.629 L 494.940 186.943 L 495.246 188.256 L 495.528 189.569 L 495.784 190.881 L 495.972 191.947 L 144.872 720.496 L 144.492 720.538 L 143.397 720.687 L 142.307 720.863 L 141.221 721.065 L 140.140 721.293 L 139.066 721.549 L 137.998 721.830 L 136.937 722.138 L 135.884 722.471 L 134.840 722.831 L 133.805 723.215 L 132.779 723.625 L 131.764 724.061 L 130.760 724.520 L 129.767 725.005 L 128.787 725.514 L 127.820 726.046 L 126.865 726.602 L 125.925 727.182 L 124.999 727.784 L 124.089 728.409 L 123.194 729.056 L 122.315 729.724 L 121.452 730.415 L 120.607 731.126 L 119.780 731.857 L 118.971 732.609 L 118.180 733.380 L 117.409 734.171 L 116.657 734.980 L 115.926 735.807 L 115.215 736.652 L 114.524 737.515 L 113.856 738.394 L 113.209 739.289 L 112.584 740.199 L 111.982 741.125 L 111.402 742.065 L 110.846 743.020 L 110.314 743.987 L 109.805 744.967 L 109.320 745.960 L 108.861 746.964 L 108.425 747.979 L 108.015 749.005 L 107.631 750.040 L 107.271 751.084 L 106.938 752.137 L 106.630 753.198 L 106.349 754.266 L 106.093 755.340 L 105.865 756.421 L 105.663 757.507 L 105.487 758.597 L 105.338 759.692 L 105.217 760.789 L 105.122 761.890 L 105.054 762.992 L 105.014 764.096 L 105.000 765.200 L 105.014 766.304 L 105.054 767.408 L 105.122 768.510 L 105.217 769.611 L 105.338 770.708 L 105.487 771.803 L 105.663 772.893 L 105.865 773.979 L 106.093 775.060 L 106.349 776.134 L 106.630 777.202 L 106.938 778.263 L 107.271 779.316 L 107.631 780.360 L 108.015 781.395 L 108.425 782.421 L 108.861 783.436 L 109.320 784.440 L 109.805 785.433 L 110.314 786.413 L 110.846 787.380 L 111.402 788.335 L 111.982 789.275 L 112.584 790.201 L 113.209 791.111 L 113.856 792.006 L 114.524 792.885 L 115.215 793.748 L 115.926 794.593 L 116.657 795.420 L 117.409 796.229 L 118.180 797.020 L 118.971 797.791 L 119.780 798.543 L 120.607 799.274 L 121.452 799.985 L 122.315 800.676 L 123.194 801.344 L 124.089 801.991 L 124.999 802.616 L 125.925 803.218 L 126.865 803.798 L 127.820 804.354 L 128.787 804.886 L 129.767 805.395 L 130.760 805.880 L 131.764 806.339 L 132.779 806.775 L 133.805 807.185 L 134.840 807.569 L 135.884 807.929 L 136.937 808.262 L 137.998 808.570 L 139.066 808.851 L 140.140 809.107 L 141.221 809.335 L 142.307 809.537 L 143.397 809.713 L 144.492 809.862 L 145.589 809.983 L 146.690 810.078 L 147.792 810.146 L 148.896 810.186 L 150.000 810.200 L 550.000 810.200 L 551.104 810.186 L 552.208 810.146 L 553.310 810.078 L 554.411 809.983 L 555.508 809.862 L 556.603 809.713 L 557.693 809.537 L 558.779 809.335 L 559.860 809.107 L 560.934 808.851 L 562.002 808.570 L 563.063 808.262 L 564.116 807.929 L 565.160 807.569 L 566.195 807.185 L 567.221 806.775 L 568.236 806.339 L 569.240 805.880 L 570.233 805.395 L 571.213 804.886 L 572.180 804.354 L 573.135 803.798 L 574.075 803.218 L 575.001 802.616 L 575.911 801.991 L 576.806 801.344 L 577.685 800.676 L 578.548 799.985 L 579.393 799.274 L 580.220 798.543 L 581.029 797.791 L 581.820 797.020 L 582.591 796.229 L 583.343 795.420 L 584.074 794.593 L 584.785 793.748 L 585.476 792.885 L 586.144 792.006 L 586.791 791.111 L 587.416 790.201 L 588.018 789.275 L 588.598 788.335 L 589.154 787.380 L 589.686 786.413 L 590.195 785.433 L 590.680 784.440 L 591.139 783.436 L 591.575 782.421 L 591.985 781.395 L 592.369 780.360 L 592.729 779.316 L 593.062 778.263 L 593.370 777.202 L 593.651 776.134 L 593.907 775.060 L 594.135 773.979 L 594.337 772.893 L 594.513 771.803 L 594.662 770.708 L 594.783 769.611 L 594.878 768.510 L 594.946 767.408 L 594.986 766.304 L 595.000 765.200 L 594.986 764.096 L 594.946 762.992 L 594.878 761.890 L 594.783 760.789 L 594.662 759.692 L 594.513 758.597 L 594.337 757.507 L 594.135 756.421 L 593.907 755.340 L 593.651 754.266 L 593.370 753.198 L 593.062 752.137 L 592.729 751.084 L 592.369 750.040 L 591.985 749.005 L 591.575 747.979 L 591.139 746.964 L 590.680 745.960 L 590.195 744.967 L 589.686 743.987 L 589.154 743.020 L 588.598 742.065 L 588.018 741.125 L 587.416 740.199 L 586.791 739.289 L 586.144 738.394 L 585.476 737.515 L 584.785 736.652 L 584.074 735.807 L 583.343 734.980 L 582.591 734.171 L 581.820 733.380 L 581.029 732.609 L 580.220 731.857 L 579.393 731.126 L 578.548 730.415 L 577.685 729.724 L 576.806 729.056 L 575.911 728.409 L 575.001 727.784 L 574.075 727.182 L 573.135 726.602 L 572.180 726.046 L 571.213 725.514 L 570.233 725.005 L 569.240 724.520 L 568.236 724.061 L 567.221 723.625 L 566.195 723.215 L 565.160 722.831 L 564.116 722.471 L 563.063 722.138 L 562.002 721.830 L 560.934 721.549 L 559.860 721.293 L 558.779 721.065 L 557.693 720.863 L 556.603 720.687 L 555.508 720.538 L 554.411 720.417 L 553.310 720.322 L 552.208 720.254 L 551.104 720.214 L 550.000 720.200 L 253.116 720.200 L 579.484 228.883 L 579.563 228.760 L 579.645 228.638 L 579.863 228.296 L 580.083 227.956 L 580.160 227.831 L 580.239 227.707 L 580.449 227.360 L 580.660 227.014 L 580.734 226.887 L 580.810 226.761 L 581.011 226.409 L 581.214 226.058 L 581.284 225.930 L 581.357 225.802 L 581.549 225.445 L 581.744 225.089 L 581.811 224.959 L 581.881 224.830 L 582.064 224.468 L 582.250 224.108 L 582.314 223.976 L 582.380 223.845 L 582.555 223.479 L 582.731 223.114 L 582.792 222.980 L 582.855 222.848 L 583.021 222.478 L 583.189 222.108 L 583.246 221.973 L 583.306 221.839 L 583.462 221.465 L 583.621 221.092 L 583.675 220.956 L 583.732 220.820 L 583.879 220.442 L 584.028 220.066 L 584.079 219.928 L 584.132 219.791 L 584.270 219.410 L 584.410 219.029 L 584.458 218.890 L 584.508 218.752 L 584.636 218.368 L 584.767 217.984 L 584.811 217.844 L 584.857 217.705 L 584.976 217.317 L 585.098 216.930 L 585.138 216.789 L 585.181 216.649 L 585.290 216.258 L 585.402 215.869 L 585.439 215.727 L 585.479 215.585 L 585.579 215.192 L 585.681 214.800 L 585.714 214.657 L 585.750 214.515 L 585.841 214.119 L 585.933 213.725 L 585.963 213.581 L 585.996 213.438 L 586.076 213.040 L 586.159 212.644 L 586.185 212.499 L 586.214 212.355 L 586.285 211.956 L 586.358 211.557 L 586.381 211.412 L 586.407 211.268 L 586.467 210.867 L 586.531 210.466 L 586.550 210.321 L 586.572 210.176 L 586.623 209.773 L 586.676 209.372 L 586.692 209.226 L 586.711 209.080 L 586.751 208.677 L 586.795 208.274 L 586.807 208.127 L 586.822 207.981 L 586.853 207.577 L 586.887 207.173 L 586.895 207.026 L 586.907 206.880 L 586.928 206.475 L 586.952 206.070 L 586.957 205.924 L 586.964 205.777 L 586.975 205.372 L 586.989 204.967 L 586.991 204.820 L 586.995 204.673 L 586.996 204.268 L 587.000 203.862 L 586.998 203.715 L 586.998 203.569 L 586.978 201.429 L 586.963 200.598 L 586.904 198.459 L 586.873 197.629 L 586.774 195.490 L 586.728 194.662 L 586.590 192.524 L 586.529 191.697 L 586.351 189.562 L 586.275 188.737 L 586.058 186.604 L 585.967 185.782 L 585.710 183.652 L 585.604 182.833 L 585.309 180.705 L 585.188 179.891 L 584.853 177.766 L 584.717 176.956 L 584.343 174.836 L 584.193 174.030 L 583.780 171.914 L 583.616 171.113 L 583.164 169.002 L 582.986 168.207 L 582.494 166.101 L 582.303 165.311 L 581.773 163.211 L 581.567 162.428 L 580.999 160.334 L 580.780 159.558 L 580.173 157.470 L 579.941 156.701 L 579.296 154.620 L 579.052 153.858 L 578.367 151.785 L 578.111 151.031 L 577.389 148.966 L 577.120 148.220 L 576.360 146.163 L 576.080 145.425 L 575.281 143.377 L 574.990 142.647 L 574.154 140.608 L 573.851 139.888 L 572.977 137.859 L 572.664 137.147 L 571.753 135.128 L 571.429 134.426 L 570.481 132.417 L 570.147 131.724 L 569.162 129.726 L 568.818 129.043 L 567.796 127.056 L 567.443 126.383 L 566.384 124.408 L 566.022 123.745 L 564.927 121.782 L 564.556 121.129 L 563.425 119.178 L 563.046 118.536 L 561.879 116.598 L 561.492 115.966 L 560.289 114.041 L 559.894 113.420 L 558.656 111.508 L 558.254 110.898 L 556.980 109.000 L 556.571 108.400 L 555.263 106.517 L 554.847 105.928 L 553.504 104.060 L 553.081 103.482 L 551.704 101.628 L 551.276 101.061 L 549.864 99.223 L 549.430 98.666 L 547.985 96.844 L 547.545 96.298 L 546.066 94.493 L 545.621 93.958 L 544.110 92.169 L 543.659 91.644 L 542.115 89.872 L 541.660 89.359 L 540.083 87.604 L 539.624 87.101 L 538.015 85.364 L 537.551 84.872 L 535.910 83.153 L 535.443 82.671 L 533.770 80.971 L 533.299 80.499 L 531.595 78.818 L 531.121 78.357 L 529.386 76.695 L 528.908 76.244 L 527.143 74.601 L 526.663 74.160 L 524.867 72.538 L 524.384 72.107 L 522.559 70.504 L 522.073 70.084 L 520.218 68.502 L 519.730 68.091 L 517.846 66.530 L 517.356 66.129 L 515.443 64.589 L 514.951 64.198 L 513.010 62.679 L 512.516 62.298 L 510.547 60.801 L 510.051 60.429 L 508.056 58.954 L 507.558 58.592 L 505.535 57.139 L 505.036 56.786 L 502.987 55.357 L 502.486 55.013 L 500.411 53.606 L 499.909 53.271 L 497.808 51.887 L 497.305 51.561 L 495.178 50.201 L 494.675 49.884 L 492.523 48.548 L 492.019 48.240 L 489.843 46.928 L 489.338 46.628 L 487.138 45.340 L 486.632 45.049 L 484.408 43.786 L 483.902 43.502 L 481.656 42.265 L 481.149 41.990 L 478.880 40.777 L 478.373 40.510 L 476.081 39.323 L 475.574 39.064 L 473.261 37.902 L 472.753 37.651 L 470.419 36.515 L 469.911 36.272 L 467.556 35.163 L 467.048 34.927 L 464.673 33.844 L 464.165 33.616 L 461.770 32.559 L 461.262 32.339 L 458.847 31.309 L 458.339 31.096 L 455.906 30.093 L 455.398 29.887 L 452.947 28.912 L 452.439 28.713 L 449.970 27.765 L 449.462 27.573 L 446.976 26.653 L 446.469 26.468 L 443.965 25.575 L 443.458 25.398 L 440.939 24.533 L 440.432 24.362 L 437.897 23.526 L 437.390 23.362 L 434.839 22.553 L 434.333 22.396 L 431.768 21.616 L 431.261 21.466 L 428.682 20.714 L 428.176 20.570 L 425.584 19.848 L 425.078 19.710 L 422.472 19.017 L 421.966 18.885 L 419.348 18.221 L 418.843 18.096 L 416.213 17.461 L 415.708 17.342 L 413.066 16.737 L 412.561 16.624 L 409.909 16.048 L 409.404 15.941 L 406.741 15.395 L 406.237 15.294 L 403.564 14.778 L 403.060 14.683 L 400.378 14.196 L 399.874 14.108 L 397.184 13.651 L 396.680 13.568 L 393.981 13.141 L 393.478 13.065 L 390.772 12.668 L 390.269 12.597 L 387.555 12.230 L 387.052 12.165 L 384.332 11.829 L 383.830 11.770 L 381.104 11.464 L 380.601 11.410 L 377.870 11.135 L 377.368 11.087 L 374.631 10.842 L 374.129 10.800 L 371.389 10.585 L 370.887 10.549 L 368.143 10.365 L 367.641 10.334 L 364.894 10.181 L 364.392 10.155 L 361.642 10.033 L 361.141 10.013 L 358.389 9.921 L 357.887 9.907 L 355.134 9.846 L 354.633 9.837 L 351.879 9.807 L 351.377 9.804 L 348.623 9.804 L 348.121 9.807 L 345.367 9.837 L 344.866 9.846 L 342.113 9.907 L 341.611 9.921 L 338.859 10.013 L 338.358 10.033 L 335.608 10.155 L 335.106 10.181 L 332.359 10.334 L 331.857 10.365 L 329.113 10.549 L 328.611 10.585 L 325.871 10.800 L 325.369 10.842 L 322.632 11.087 L 322.130 11.135 L 319.399 11.410 L 318.896 11.464 L 316.170 11.770 L 315.668 11.829 L 312.948 12.165 L 312.445 12.230 L 309.731 12.597 L 309.228 12.668 L 306.522 13.065 L 306.019 13.141 L 303.320 13.568 L 302.816 13.651 L 300.126 14.108 L 299.622 14.196 L 296.940 14.683 L 296.436 14.778 L 293.763 15.294 L 293.259 15.395 L 290.596 15.941 L 290.091 16.048 L 287.439 16.624 L 286.934 16.737 L 284.292 17.342 L 283.787 17.461 L 281.157 18.096 L 280.652 18.221 L 278.034 18.885 L 277.528 19.017 L 274.922 19.710 L 274.416 19.848 L 271.824 20.570 L 271.318 20.714 L 268.739 21.466 L 268.232 21.616 L 265.667 22.396 L 265.161 22.553 L 262.610 23.362 L 262.103 23.526 L 259.568 24.362 L 259.061 24.533 L 256.542 25.398 L 256.035 25.575 L 253.531 26.468 L 253.024 26.653 L 250.538 27.573 L 250.030 27.765 L 247.561 28.713 L 247.053 28.912 L 244.602 29.887 L 244.094 30.093 L 241.661 31.096 L 241.153 31.309 L 238.738 32.339 L 238.230 32.559 L 235.835 33.616 L 235.327 33.844 L 232.952 34.927 L 232.444 35.163 L 230.089 36.272 L 229.581 36.515 L 227.247 37.651 L 226.739 37.902 L 224.426 39.064 L 223.919 39.323 L 221.627 40.510 L 221.120 40.777 L 218.851 41.990 L 218.344 42.265 L 216.098 43.502 L 215.592 43.786 L 213.368 45.049 L 212.862 45.340 L 210.662 46.628 L 210.157 46.928 L 207.981 48.240 L 207.477 48.548 L 205.325 49.884 L 204.822 50.201 L 202.695 51.561 L 202.192 51.887 L 200.091 53.271 L 199.589 53.606 L 197.514 55.013 L 197.013 55.357 L 194.964 56.786 L 194.465 57.139 L 192.442 58.592 L 191.944 58.954 L 189.949 60.429 L 189.453 60.801 L 187.484 62.298 L 186.990 62.679 L 185.049 64.198 L 184.557 64.589 L 182.644 66.129 L 182.154 66.530 L 180.270 68.091 L 179.782 68.502 L 177.927 70.084 L 177.441 70.504 L 175.616 72.107 L 175.133 72.538 L 173.337 74.160 L 172.857 74.601 L 171.092 76.244 L 170.614 76.695 L 168.879 78.357 L 168.405 78.818 L 166.701 80.499 L 166.230 80.971 L 164.557 82.671 L 164.090 83.153 L 162.449 84.872 L 161.985 85.364 L 160.376 87.101 L 159.917 87.604 L 158.340 89.359 L 157.885 89.872 L 156.341 91.644 L 155.890 92.169 L 154.379 93.958 L 153.934 94.493 L 152.455 96.298 L 152.015 96.844 L 150.570 98.666 L 150.136 99.223 L 148.724 101.061 L 148.296 101.628 L 146.919 103.482 L 146.496 104.060 L 145.153 105.928 L 144.737 106.517 L 143.429 108.400 L 143.020 109.000 L 141.746 110.898 L 141.344 111.508 L 140.106 113.420 L 139.711 114.041 L 138.508 115.966 L 138.121 116.598 L 136.954 118.536 L 136.575 119.178 L 135.444 121.129 L 135.073 121.782 L 133.978 123.745 L 133.616 124.408 L 132.557 126.383 L 132.204 127.056 L 131.182 129.043 L 130.838 129.726 L 129.853 131.724 L 129.519 132.417 L 128.571 134.426 L 128.247 135.128 L 127.336 137.147 L 127.023 137.859 L 126.149 139.888 L 125.846 140.608 L 125.010 142.647 L 124.719 143.377 L 123.920 145.425 L 123.640 146.163 L 122.880 148.220 L 122.611 148.966 L 121.889 151.031 L 121.633 151.785 L 120.948 153.858 L 120.704 154.620 L 120.059 156.701 L 119.827 157.470 L 119.220 159.558 L 119.001 160.334 L 118.433 162.428 L 118.227 163.211 L 117.697 165.311 L 117.506 166.101 L 117.014 168.207 L 116.836 169.002 L 116.384 171.113 L 116.220 171.914 L 115.807 174.030 L 115.657 174.836 L 115.283 176.956 L 115.147 177.766 L 114.812 179.891 L 114.691 180.705 L 114.396 182.833 L 114.290 183.652 L 114.033 185.782 L 113.942 186.604 L 113.725 188.737 L 113.649 189.562 L 113.471 191.697 L 113.410 192.524 L 113.272 194.662 L 113.226 195.490 L 113.127 197.629 L 113.096 198.459 L 113.037 200.598 L 113.022 201.429 L 113.002 203.569 L 113.005 204.673 L 113.036 205.777 L 113.093 206.880 L 113.178 207.981 L 113.289 209.080 L 113.428 210.176 L 113.593 211.268 L 113.786 212.355 L 114.004 213.438 L 114.250 214.515 L 114.521 215.585 L 114.819 216.649 L 115.143 217.705 L 115.492 218.752 L 115.868 219.791 L 116.268 220.820 L 116.694 221.839 L 117.145 222.848 L 117.620 223.845 L 118.119 224.830 L 118.643 225.802 L 119.190 226.761 L 119.761 227.707 L 120.355 228.638 L 120.971 229.555 L 121.610 230.456 L 122.270 231.341 L 122.952 232.209 L 123.656 233.061 L 124.380 233.895 L 125.124 234.711 L 125.888 235.509 L 126.671 236.287 L 127.473 237.046 L 128.294 237.786 L 129.132 238.504 L 129.988 239.203 L 130.861 239.879 L 131.750 240.535 L 132.655 241.168 L 133.575 241.779 L 134.510 242.367 L 135.459 242.932 L 136.422 243.473 L 137.397 243.991 L 138.385 244.484 L 139.385 244.953 L 140.396 245.398 L 141.418 245.817 L 142.449 246.212 L 143.490 246.581 L 144.540 246.924 L 145.598 247.241 L 146.663 247.533 L 147.736 247.798 L 148.814 248.036 L 149.898 248.249 L 150.987 248.434 L 152.079 248.593 L 153.176 248.725 L 154.275 248.830 L 155.377 248.907 L 156.480 248.958 L 157.585 248.982 L 158.689 248.979 L 159.793 248.948 L 160.896 248.891 L 161.997 248.806 L 163.096 248.695 L 164.192 248.556 L 165.284 248.391 L 166.371 248.198 L 167.454 247.980 L 168.531 247.734 L 169.601 247.463 L 170.665 247.165 L 171.721 246.841 L 172.768 246.492 L 173.807 246.116 L 174.836 245.716 L 175.855 245.290 L 176.864 244.839 L 177.861 244.364 L 178.846 243.865 L 179.818 243.341 L 180.777 242.794 L 181.723 242.223 L 182.654 241.629 L 183.571 241.013 L 184.472 240.374 L 185.357 239.714 L 186.225 239.032 L 187.077 238.328 L 187.911 237.604 L 188.727 236.860 L 189.525 236.096 L 190.303 235.313 L 191.062 234.511 L 191.802 233.690 L 192.520 232.852 L 193.219 231.996 L 193.895 231.123 L 194.551 230.234 L 195.184 229.329 L 195.795 228.409 L 196.383 227.474 L 196.948 226.525 L 197.489 225.562 L 198.007 224.587 L 198.500 223.599 L 198.969 222.599 L 199.414 221.588 L 199.833 220.566 L 200.228 219.535 L 200.597 218.494 L 200.940 217.444 L 201.257 216.386 L 201.549 215.321 L 201.814 214.248 L 202.052 213.170 L 202.265 212.086 L 202.450 210.997 L 202.609 209.905 L 202.741 208.808 L 202.846 207.709 L 202.923 206.607 L 202.974 205.504 L 202.998 204.399 L 203.014 202.675 L 203.050 201.365 Z" fill="black" fill-rule="evenodd"/>
</svg>
