<svg xmlns="http://www.w3.org/2000/svg" viewBox="0 0 700.000 1000" width="700.000" height="1000">
  <path d="M 113.001 410.018 L 113.000 410.147 L 113.014 414.447 L 113.016 414.742 L 113.058 419.041 L 113.062 419.336 L 113.133 423.634 L 113.138 423.929 L 113.237 428.225 L 113.245 428.520 L 113.371 432.814 L 113.381 433.109 L 113.536 437.399 L 113.547 437.695 L 113.730 441.981 L 113.743 442.277 L 113.954 446.560 L 113.970 446.856 L 114.208 451.133 L 114.226 451.429 L 114.493 455.701 L 114.512 455.998 L 114.807 460.264 L 114.829 460.561 L 115.151 464.820 L 115.175 465.118 L 115.525 469.368 L 115.551 469.667 L 115.929 473.910 L 115.957 474.209 L 116.362 478.443 L 116.392 478.743 L 116.826 482.968 L 116.858 483.269 L 117.319 487.483 L 117.353 487.785 L 117.842 491.989 L 117.878 492.291 L 118.394 496.484 L 118.433 496.787 L 118.976 500.968 L 119.017 501.272 L 119.588 505.441 L 119.631 505.746 L 120.229 509.901 L 120.274 510.208 L 120.899 514.349 L 120.947 514.657 L 121.599 518.784 L 121.649 519.093 L 122.329 523.205 L 122.381 523.515 L 123.087 527.612 L 123.142 527.923 L 123.875 532.004 L 123.932 532.316 L 124.692 536.380 L 124.752 536.694 L 125.538 540.741 L 125.600 541.056 L 126.413 545.085 L 126.478 545.401 L 127.317 549.412 L 127.385 549.730 L 128.250 553.721 L 128.320 554.041 L 129.211 558.013 L 129.285 558.334 L 130.202 562.286 L 130.278 562.609 L 131.221 566.539 L 131.300 566.864 L 132.269 570.773 L 132.351 571.100 L 133.345 574.987 L 133.430 575.316 L 134.450 579.181 L 134.538 579.511 L 135.583 583.353 L 135.675 583.685 L 136.744 587.503 L 136.839 587.837 L 137.934 591.631 L 138.032 591.968 L 139.152 595.736 L 139.254 596.075 L 140.398 599.819 L 140.503 600.160 L 141.672 603.877 L 141.781 604.220 L 142.974 607.911 L 143.087 608.257 L 144.303 611.921 L 144.420 612.269 L 145.661 615.906 L 145.782 616.256 L 147.046 619.864 L 147.171 620.217 L 148.459 623.797 L 148.589 624.152 L 149.900 627.703 L 150.034 628.061 L 151.368 631.582 L 151.506 631.943 L 152.863 635.434 L 153.006 635.797 L 154.386 639.257 L 154.534 639.623 L 155.936 643.052 L 156.089 643.421 L 157.514 646.819 L 157.671 647.190 L 159.118 650.555 L 159.281 650.930 L 160.750 654.262 L 160.918 654.639 L 162.409 657.939 L 162.582 658.319 L 164.094 661.585 L 164.274 661.968 L 165.807 665.200 L 165.992 665.586 L 167.547 668.783 L 167.738 669.172 L 169.313 672.335 L 169.511 672.727 L 171.107 675.854 L 171.311 676.249 L 172.927 679.340 L 173.137 679.738 L 174.774 682.792 L 174.991 683.194 L 176.647 686.211 L 176.872 686.616 L 178.547 689.596 L 178.779 690.004 L 180.474 692.946 L 180.714 693.357 L 182.428 696.261 L 182.675 696.675 L 184.408 699.541 L 184.664 699.958 L 186.415 702.784 L 186.679 703.205 L 188.449 705.992 L 188.721 706.415 L 190.509 709.162 L 190.790 709.589 L 192.596 712.296 L 192.886 712.725 L 194.709 715.392 L 195.008 715.824 L 196.849 718.449 L 197.158 718.884 L 199.016 721.468 L 199.335 721.906 L 201.210 724.449 L 201.539 724.889 L 203.430 727.389 L 203.769 727.832 L 205.677 730.290 L 206.027 730.736 L 207.951 733.150 L 208.312 733.599 L 210.251 735.970 L 210.624 736.420 L 212.579 738.748 L 212.964 739.201 L 214.933 741.484 L 215.330 741.939 L 217.315 744.178 L 217.724 744.634 L 219.723 746.829 L 220.146 747.287 L 222.158 749.437 L 222.594 749.896 L 224.621 752.001 L 225.070 752.460 L 227.111 754.520 L 227.574 754.980 L 229.628 756.994 L 230.105 757.455 L 232.172 759.422 L 232.663 759.883 L 234.743 761.804 L 235.250 762.265 L 237.342 764.139 L 237.863 764.599 L 239.968 766.426 L 240.505 766.885 L 242.621 768.665 L 243.174 769.123 L 245.301 770.855 L 245.870 771.311 L 248.009 772.996 L 248.594 773.449 L 250.744 775.085 L 251.346 775.536 L 253.506 777.124 L 254.124 777.571 L 256.295 779.111 L 256.930 779.554 L 259.110 781.045 L 259.763 781.483 L 261.953 782.925 L 262.623 783.358 L 264.822 784.751 L 265.510 785.178 L 267.718 786.522 L 268.423 786.942 L 270.640 788.236 L 271.362 788.649 L 273.587 789.893 L 274.327 790.298 L 276.560 791.493 L 277.317 791.889 L 279.558 793.033 L 280.333 793.419 L 282.581 794.513 L 283.373 794.889 L 285.627 795.933 L 286.436 796.298 L 288.698 797.291 L 289.523 797.643 L 291.791 798.586 L 292.633 798.926 L 294.907 799.817 L 295.765 800.143 L 298.044 800.984 L 298.917 801.296 L 301.202 802.085 L 302.090 802.382 L 304.380 803.120 L 305.283 803.400 L 307.577 804.087 L 308.493 804.351 L 310.792 804.986 L 311.721 805.232 L 314.024 805.816 L 314.965 806.044 L 317.272 806.576 L 318.224 806.785 L 320.534 807.266 L 321.497 807.455 L 323.809 807.884 L 324.782 808.053 L 327.097 808.430 L 328.078 808.579 L 330.395 808.904 L 331.383 809.031 L 333.703 809.304 L 334.697 809.410 L 337.019 809.631 L 338.018 809.715 L 340.340 809.884 L 341.344 809.946 L 343.667 810.063 L 344.673 810.103 L 346.997 810.168 L 348.005 810.185 L 350.329 810.198 L 351.337 810.192 L 353.661 810.153 L 354.668 810.125 L 356.992 810.034 L 357.997 809.983 L 360.320 809.840 L 361.321 809.767 L 363.643 809.572 L 364.640 809.477 L 366.961 809.230 L 367.952 809.113 L 370.271 808.814 L 371.255 808.676 L 373.572 808.325 L 374.548 808.166 L 376.862 807.763 L 377.830 807.584 L 380.141 807.129 L 381.099 806.930 L 383.407 806.423 L 384.354 806.205 L 386.659 805.647 L 387.594 805.410 L 389.895 804.800 L 390.818 804.545 L 393.114 803.884 L 394.024 803.612 L 396.316 802.899 L 397.211 802.611 L 399.499 801.847 L 400.379 801.543 L 402.662 800.728 L 403.527 800.409 L 405.804 799.543 L 406.654 799.210 L 408.925 798.293 L 409.758 797.946 L 412.023 796.978 L 412.840 796.620 L 415.099 795.601 L 415.899 795.231 L 418.150 794.162 L 418.934 793.781 L 421.178 792.661 L 421.944 792.270 L 424.181 791.101 L 424.930 790.700 L 427.159 789.481 L 427.890 789.072 L 430.111 787.803 L 430.825 787.386 L 433.037 786.067 L 433.733 785.643 L 435.937 784.275 L 436.616 783.845 L 438.810 782.427 L 439.472 781.992 L 441.657 780.525 L 442.301 780.085 L 444.476 778.569 L 445.103 778.124 L 447.268 776.560 L 447.879 776.111 L 450.034 774.499 L 450.627 774.047 L 452.771 772.386 L 453.348 771.932 L 455.481 770.223 L 456.042 769.766 L 458.164 768.010 L 458.709 767.552 L 460.819 765.748 L 461.349 765.288 L 463.447 763.438 L 463.961 762.977 L 466.047 761.080 L 466.546 760.619 L 468.619 758.675 L 469.104 758.214 L 471.164 756.223 L 471.634 755.762 L 473.681 753.726 L 474.137 753.266 L 476.171 751.184 L 476.614 750.724 L 478.634 748.597 L 479.063 748.139 L 481.069 745.966 L 481.485 745.509 L 483.476 743.292 L 483.879 742.837 L 485.856 740.575 L 486.247 740.122 L 488.209 737.816 L 488.588 737.364 L 490.535 735.015 L 490.902 734.565 L 492.834 732.172 L 493.190 731.725 L 495.105 729.289 L 495.450 728.845 L 497.349 726.366 L 497.684 725.924 L 499.567 723.403 L 499.890 722.963 L 501.757 720.400 L 502.071 719.964 L 503.920 717.359 L 504.224 716.925 L 506.056 714.279 L 506.351 713.848 L 508.166 711.162 L 508.451 710.734 L 510.248 708.006 L 510.524 707.582 L 512.304 704.814 L 512.571 704.393 L 514.332 701.586 L 514.592 701.167 L 516.334 698.321 L 516.585 697.905 L 518.309 695.020 L 518.552 694.608 L 520.257 691.684 L 520.492 691.275 L 522.178 688.314 L 522.406 687.908 L 524.072 684.909 L 524.293 684.506 L 525.939 681.470 L 526.153 681.070 L 527.779 677.997 L 527.987 677.601 L 529.593 674.492 L 529.793 674.098 L 531.379 670.954 L 531.573 670.563 L 533.138 667.383 L 533.326 666.996 L 534.870 663.781 L 535.053 663.397 L 536.575 660.147 L 536.752 659.766 L 538.253 656.483 L 538.424 656.105 L 539.904 652.788 L 540.069 652.413 L 541.527 649.063 L 541.688 648.691 L 543.123 645.309 L 543.279 644.939 L 544.692 641.526 L 544.842 641.158 L 546.234 637.713 L 546.379 637.349 L 547.747 633.873 L 547.888 633.511 L 549.234 630.005 L 549.370 629.646 L 550.692 626.110 L 550.824 625.753 L 552.123 622.188 L 552.251 621.834 L 553.527 618.240 L 553.650 617.888 L 554.902 614.266 L 555.021 613.916 L 556.250 610.266 L 556.365 609.919 L 557.570 606.242 L 557.681 605.897 L 558.861 602.193 L 558.969 601.851 L 560.125 598.120 L 560.229 597.780 L 561.360 594.024 L 561.461 593.687 L 562.568 589.905 L 562.664 589.570 L 563.747 585.764 L 563.840 585.430 L 564.897 581.601 L 564.987 581.269 L 566.019 577.416 L 566.106 577.087 L 567.113 573.211 L 567.197 572.883 L 568.178 568.985 L 568.259 568.659 L 569.215 564.739 L 569.292 564.415 L 570.222 560.474 L 570.297 560.152 L 571.201 556.190 L 571.273 555.869 L 572.151 551.888 L 572.220 551.569 L 573.072 547.568 L 573.139 547.250 L 573.965 543.231 L 574.028 542.915 L 574.828 538.877 L 574.889 538.562 L 575.662 534.507 L 575.720 534.194 L 576.467 530.121 L 576.523 529.810 L 577.242 525.721 L 577.296 525.410 L 577.989 521.306 L 578.040 520.996 L 578.706 516.876 L 578.754 516.568 L 579.393 512.434 L 579.439 512.127 L 580.051 507.978 L 580.095 507.673 L 580.680 503.511 L 580.722 503.206 L 581.279 499.031 L 581.318 498.727 L 581.848 494.541 L 581.886 494.238 L 582.388 490.039 L 582.423 489.737 L 582.898 485.528 L 582.931 485.227 L 583.379 481.007 L 583.410 480.707 L 583.829 476.477 L 583.858 476.178 L 584.250 471.939 L 584.277 471.640 L 584.641 467.393 L 584.666 467.095 L 585.002 462.840 L 585.025 462.542 L 585.333 458.280 L 585.354 457.983 L 585.635 453.714 L 585.653 453.418 L 585.906 449.143 L 585.922 448.847 L 586.147 444.567 L 586.162 444.271 L 586.358 439.986 L 586.371 439.691 L 586.540 435.402 L 586.550 435.107 L 586.691 430.815 L 586.700 430.520 L 586.812 426.225 L 586.819 425.930 L 586.903 421.632 L 586.908 421.338 L 586.964 417.039 L 586.967 416.744 L 586.996 412.445 L 586.996 412.150 L 586.996 407.850 L 586.996 407.555 L 586.967 403.256 L 586.964 402.961 L 586.908 398.662 L 586.903 398.368 L 586.819 394.070 L 586.812 393.775 L 586.700 389.480 L 586.691 389.185 L 586.550 384.893 L 586.540 384.598 L 586.371 380.309 L 586.358 380.014 L 586.162 375.729 L 586.147 375.433 L 585.922 371.153 L 585.906 370.857 L 585.653 366.582 L 585.635 366.286 L 585.354 362.017 L 585.333 361.720 L 585.025 357.458 L 585.002 357.160 L 584.666 352.905 L 584.641 352.607 L 584.277 348.360 L 584.250 348.061 L 583.858 343.822 L 583.829 343.523 L 583.410 339.293 L 583.379 338.993 L 582.931 334.773 L 582.898 334.472 L 582.423 330.263 L 582.388 329.961 L 581.886 325.762 L 581.848 325.459 L 581.318 321.273 L 581.279 320.969 L 580.722 316.794 L 580.680 316.489 L 580.095 312.327 L 580.051 312.022 L 579.439 307.873 L 579.393 307.566 L 578.754 303.432 L 578.706 303.124 L 578.040 299.004 L 577.989 298.694 L 577.296 294.590 L 577.242 294.279 L 576.523 290.190 L 576.467 289.879 L 575.720 285.806 L 575.662 285.493 L 574.889 281.438 L 574.828 281.123 L 574.028 277.085 L 573.965 276.769 L 573.139 272.750 L 573.072 272.432 L 572.220 268.431 L 572.151 268.112 L 571.273 264.131 L 571.201 263.810 L 570.297 259.848 L 570.222 259.526 L 569.292 255.585 L 569.215 255.261 L 568.259 251.341 L 568.178 251.015 L 567.197 247.117 L 567.113 246.789 L 566.106 242.913 L 566.019 242.584 L 564.987 238.731 L 564.897 238.399 L 563.840 234.570 L 563.747 234.236 L 562.664 230.430 L 562.568 230.095 L 561.461 226.313 L 561.360 225.976 L 560.229 222.220 L 560.125 221.880 L 558.969 218.149 L 558.861 217.807 L 557.681 214.103 L 557.570 213.758 L 556.365 210.081 L 556.250 209.734 L 555.021 206.084 L 554.902 205.734 L 553.650 202.112 L 553.527 201.760 L 552.251 198.166 L 552.123 197.812 L 550.824 194.247 L 550.692 193.890 L 549.370 190.354 L 549.234 189.995 L 547.888 186.489 L 547.747 186.127 L 546.379 182.651 L 546.234 182.287 L 544.842 178.842 L 544.692 178.474 L 543.279 175.061 L 543.123 174.691 L 541.688 171.309 L 541.527 170.937 L 540.069 167.587 L 539.904 167.212 L 538.424 163.895 L 538.253 163.517 L 536.752 160.234 L 536.575 159.853 L 535.053 156.603 L 534.870 156.219 L 533.326 153.004 L 533.138 152.617 L 531.573 149.437 L 531.379 149.046 L 529.793 145.902 L 529.593 145.508 L 527.987 142.399 L 527.779 142.003 L 526.153 138.930 L 525.939 138.530 L 524.293 135.494 L 524.072 135.091 L 522.406 132.092 L 522.178 131.686 L 520.492 128.725 L 520.257 128.316 L 518.552 125.392 L 518.309 124.980 L 516.585 122.095 L 516.334 121.679 L 514.592 118.833 L 514.332 118.414 L 512.571 115.607 L 512.304 115.186 L 510.524 112.418 L 510.248 111.994 L 508.451 109.266 L 508.166 108.838 L 506.351 106.152 L 506.056 105.721 L 504.224 103.075 L 503.920 102.641 L 502.071 100.036 L 501.757 99.600 L 499.890 97.037 L 499.567 96.597 L 497.684 94.076 L 497.349 93.634 L 495.450 91.155 L 495.105 90.711 L 493.190 88.275 L 492.834 87.828 L 490.902 85.435 L 490.535 84.985 L 489.545 83.790 L 489.631 83.717 L 490.456 82.982 L 491.263 82.228 L 492.050 81.454 L 492.819 80.660 L 493.568 79.849 L 494.296 79.019 L 495.004 78.171 L 495.691 77.306 L 496.357 76.425 L 497.001 75.527 L 497.622 74.614 L 498.221 73.687 L 498.797 72.744 L 499.350 71.788 L 499.879 70.819 L 500.384 69.836 L 500.865 68.842 L 501.321 67.836 L 501.753 66.820 L 502.159 65.793 L 502.540 64.756 L 502.896 63.710 L 503.226 62.656 L 503.529 61.595 L 503.807 60.526 L 504.058 59.450 L 504.283 58.369 L 504.481 57.282 L 504.653 56.191 L 504.798 55.096 L 504.915 53.998 L 505.006 52.898 L 505.070 51.795 L 505.107 50.691 L 505.116 49.587 L 505.099 48.482 L 505.054 47.379 L 504.982 46.277 L 504.884 45.177 L 504.758 44.080 L 504.606 42.986 L 504.426 41.896 L 504.220 40.811 L 503.987 39.731 L 503.728 38.658 L 503.443 37.591 L 503.132 36.531 L 502.794 35.479 L 502.431 34.436 L 502.043 33.402 L 501.629 32.378 L 501.190 31.365 L 500.727 30.362 L 500.239 29.372 L 499.727 28.393 L 499.191 27.427 L 498.631 26.475 L 498.048 25.537 L 497.443 24.613 L 496.815 23.705 L 496.164 22.812 L 495.493 21.936 L 494.799 21.076 L 494.085 20.233 L 493.351 19.409 L 492.596 18.602 L 491.822 17.814 L 491.029 17.046 L 490.217 16.297 L 489.387 15.569 L 488.539 14.861 L 487.674 14.174 L 486.793 13.508 L 485.896 12.864 L 484.983 12.243 L 484.055 11.644 L 483.112 11.068 L 482.156 10.515 L 481.187 9.986 L 480.205 9.481 L 479.210 9.000 L 478.205 8.544 L 477.188 8.112 L 475.409 7.383 L 474.952 7.198 L 473.169 6.490 L 472.709 6.310 L 470.922 5.623 L 470.458 5.447 L 468.668 4.781 L 468.199 4.610 L 466.406 3.965 L 465.933 3.799 L 464.137 3.175 L 463.661 3.013 L 461.862 2.411 L 461.381 2.254 L 459.579 1.674 L 459.095 1.521 L 457.290 0.962 L 456.802 0.814 L 454.995 0.277 L 454.504 0.134 L 452.694 -0.382 L 452.199 -0.519 L 450.386 -1.014 L 449.888 -1.146 L 448.073 -1.619 L 447.572 -1.746 L 445.755 -2.197 L 445.251 -2.319 L 443.431 -2.748 L 442.924 -2.864 L 441.102 -3.272 L 440.592 -3.383 L 438.769 -3.768 L 438.256 -3.874 L 436.431 -4.238 L 435.916 -4.337 L 434.088 -4.680 L 433.571 -4.773 L 431.742 -5.094 L 431.222 -5.182 L 429.392 -5.480 L 428.870 -5.563 L 427.038 -5.839 L 426.514 -5.915 L 424.681 -6.170 L 424.155 -6.240 L 422.321 -6.473 L 421.793 -6.537 L 419.958 -6.749 L 419.428 -6.806 L 417.592 -6.996 L 417.061 -7.047 L 415.224 -7.215 L 414.692 -7.260 L 412.854 -7.406 L 412.321 -7.445 L 410.483 -7.569 L 409.949 -7.601 L 408.109 -7.703 L 407.575 -7.729 L 405.735 -7.809 L 405.200 -7.829 L 403.360 -7.887 L 402.824 -7.901 L 400.984 -7.937 L 400.448 -7.944 L 398.608 -7.958 L 398.071 -7.959 L 396.231 -7.952 L 395.695 -7.946 L 393.855 -7.916 L 393.319 -7.904 L 391.479 -7.853 L 390.943 -7.835 L 389.104 -7.761 L 388.569 -7.736 L 386.730 -7.641 L 386.195 -7.610 L 384.357 -7.492 L 383.823 -7.455 L 381.985 -7.316 L 381.453 -7.272 L 379.616 -7.111 L 379.084 -7.061 L 377.248 -6.878 L 376.718 -6.822 L 374.883 -6.617 L 374.354 -6.555 L 372.520 -6.328 L 371.993 -6.260 L 370.160 -6.011 L 369.635 -5.937 L 367.803 -5.666 L 367.280 -5.586 L 365.450 -5.293 L 364.929 -5.207 L 363.100 -4.893 L 362.582 -4.801 L 360.754 -4.465 L 360.238 -4.367 L 358.412 -4.009 L 357.899 -3.905 L 356.075 -3.526 L 355.564 -3.416 L 353.742 -3.015 L 353.234 -2.900 L 351.414 -2.477 L 350.909 -2.357 L 349.091 -1.912 L 348.589 -1.787 L 346.773 -1.320 L 346.274 -1.189 L 344.461 -0.701 L 343.965 -0.565 L 342.154 -0.055 L 341.662 0.086 L 339.854 0.617 L 339.365 0.764 L 337.559 1.316 L 337.074 1.468 L 335.271 2.042 L 334.790 2.198 L 332.990 2.793 L 332.512 2.955 L 330.715 3.571 L 330.241 3.737 L 328.447 4.375 L 327.978 4.546 L 326.187 5.205 L 325.721 5.380 L 323.934 6.061 L 323.472 6.240 L 321.688 6.942 L 321.230 7.125 L 319.450 7.849 L 318.997 8.036 L 317.220 8.780 L 316.771 8.971 L 314.998 9.737 L 314.553 9.932 L 312.784 10.719 L 312.344 10.918 L 310.578 11.726 L 310.142 11.928 L 308.381 12.757 L 307.950 12.963 L 306.193 13.813 L 305.766 14.022 L 304.013 14.893 L 303.591 15.106 L 301.842 15.997 L 301.425 16.213 L 299.681 17.126 L 299.268 17.345 L 297.528 18.278 L 297.120 18.500 L 295.385 19.454 L 294.982 19.678 L 293.252 20.653 L 292.853 20.880 L 292.245 21.231 L 291.791 21.414 L 289.523 22.357 L 288.698 22.709 L 286.436 23.702 L 285.627 24.067 L 283.373 25.111 L 282.581 25.487 L 280.333 26.581 L 279.558 26.967 L 277.317 28.111 L 276.560 28.507 L 274.327 29.702 L 273.587 30.107 L 271.362 31.351 L 270.640 31.764 L 268.423 33.058 L 267.718 33.478 L 265.510 34.822 L 264.822 35.249 L 262.623 36.642 L 261.953 37.075 L 259.763 38.517 L 259.110 38.955 L 256.930 40.446 L 256.295 40.889 L 254.124 42.429 L 253.506 42.876 L 251.346 44.464 L 250.744 44.915 L 248.594 46.551 L 248.009 47.004 L 245.870 48.689 L 245.301 49.145 L 243.174 50.877 L 242.621 51.335 L 240.505 53.115 L 239.968 53.574 L 237.863 55.401 L 237.342 55.861 L 235.250 57.735 L 234.743 58.196 L 232.663 60.117 L 232.172 60.578 L 230.105 62.545 L 229.628 63.006 L 227.574 65.020 L 227.111 65.480 L 225.070 67.540 L 224.621 67.999 L 222.594 70.104 L 222.158 70.563 L 220.146 72.713 L 219.723 73.171 L 217.724 75.366 L 217.315 75.822 L 215.330 78.061 L 214.933 78.516 L 212.964 80.799 L 212.579 81.252 L 210.624 83.580 L 210.251 84.030 L 208.312 86.401 L 207.951 86.850 L 206.027 89.264 L 205.677 89.710 L 203.769 92.168 L 203.430 92.611 L 201.539 95.111 L 201.210 95.551 L 199.335 98.094 L 199.016 98.532 L 197.158 101.116 L 196.849 101.551 L 195.008 104.176 L 194.709 104.608 L 192.886 107.275 L 192.596 107.704 L 190.790 110.411 L 190.509 110.838 L 188.721 113.585 L 188.449 114.008 L 186.679 116.795 L 186.415 117.216 L 184.664 120.042 L 184.408 120.459 L 182.675 123.325 L 182.428 123.739 L 180.714 126.643 L 180.474 127.054 L 178.779 129.996 L 178.547 130.404 L 176.872 133.384 L 176.647 133.789 L 174.991 136.806 L 174.774 137.208 L 173.137 140.262 L 172.927 140.660 L 171.311 143.751 L 171.107 144.146 L 169.511 147.273 L 169.313 147.665 L 167.738 150.828 L 167.547 151.217 L 165.992 154.414 L 165.807 154.800 L 164.274 158.032 L 164.094 158.415 L 162.582 161.681 L 162.409 162.061 L 160.918 165.361 L 160.750 165.738 L 159.281 169.070 L 159.118 169.445 L 157.671 172.810 L 157.514 173.181 L 156.089 176.579 L 155.936 176.948 L 154.534 180.377 L 154.386 180.743 L 153.006 184.203 L 152.863 184.566 L 151.506 188.057 L 151.368 188.418 L 150.034 191.939 L 149.900 192.297 L 148.589 195.848 L 148.459 196.203 L 147.171 199.783 L 147.046 200.136 L 145.782 203.744 L 145.661 204.094 L 144.420 207.731 L 144.303 208.079 L 143.087 211.743 L 142.974 212.089 L 141.781 215.780 L 141.672 216.123 L 140.503 219.840 L 140.398 220.181 L 139.254 223.925 L 139.152 224.264 L 138.032 228.032 L 137.934 228.369 L 136.839 232.163 L 136.744 232.497 L 135.675 236.315 L 135.583 236.647 L 134.538 240.489 L 134.450 240.819 L 133.430 244.684 L 133.345 245.013 L 132.351 248.900 L 132.269 249.227 L 131.300 253.136 L 131.221 253.461 L 130.278 257.391 L 130.202 257.714 L 129.285 261.666 L 129.211 261.987 L 128.320 265.959 L 128.250 266.279 L 127.385 270.270 L 127.317 270.588 L 126.478 274.599 L 126.413 274.915 L 125.600 278.944 L 125.538 279.259 L 124.752 283.306 L 124.692 283.620 L 123.932 287.684 L 123.875 287.996 L 123.142 292.077 L 123.087 292.388 L 122.381 296.485 L 122.329 296.795 L 121.649 300.907 L 121.599 301.216 L 120.947 305.343 L 120.899 305.651 L 120.274 309.792 L 120.229 310.099 L 119.631 314.254 L 119.588 314.559 L 119.017 318.728 L 118.976 319.032 L 118.433 323.213 L 118.394 323.516 L 117.878 327.709 L 117.842 328.011 L 117.353 332.215 L 117.319 332.517 L 116.858 336.731 L 116.826 337.032 L 116.392 341.257 L 116.362 341.557 L 115.957 345.791 L 115.929 346.090 L 115.551 350.333 L 115.525 350.632 L 115.175 354.882 L 115.151 355.180 L 114.829 359.439 L 114.807 359.736 L 114.512 364.002 L 114.493 364.299 L 114.226 368.571 L 114.208 368.867 L 113.970 373.144 L 113.954 373.440 L 113.743 377.723 L 113.730 378.019 L 113.547 382.305 L 113.536 382.601 L 113.381 386.891 L 113.371 387.186 L 113.245 391.480 L 113.237 391.775 L 113.138 396.071 L 113.133 396.366 L 113.062 400.664 L 113.058 400.959 L 113.016 405.258 L 113.014 405.553 L 113.012 406.343 L 113.008 406.807 L 113.007 407.029 L 113.000 409.889 L 113.001 410.018 Z M 203.011 406.823 L 203.026 404.725 L 203.059 402.088 L 203.104 399.451 L 203.163 396.815 L 203.234 394.180 L 203.319 391.546 L 203.416 388.913 L 203.527 386.282 L 203.650 383.652 L 203.787 381.024 L 203.936 378.399 L 204.099 375.775 L 204.274 373.153 L 204.462 370.534 L 204.663 367.918 L 204.877 365.304 L 205.104 362.694 L 205.343 360.086 L 205.596 357.483 L 205.861 354.882 L 206.139 352.285 L 206.430 349.693 L 206.733 347.104 L 207.049 344.520 L 207.378 341.940 L 207.720 339.364 L 208.074 336.793 L 208.440 334.228 L 208.820 331.667 L 209.211 329.112 L 209.616 326.562 L 210.032 324.018 L 210.461 321.479 L 210.903 318.947 L 211.356 316.421 L 211.823 313.901 L 212.301 311.387 L 212.791 308.881 L 213.294 306.381 L 213.809 303.888 L 214.336 301.402 L 214.875 298.924 L 215.426 296.453 L 215.989 293.989 L 216.563 291.534 L 217.150 289.087 L 217.748 286.647 L 218.358 284.217 L 218.980 281.794 L 219.614 279.381 L 220.259 276.976 L 220.915 274.580 L 221.583 272.193 L 222.262 269.816 L 222.953 267.448 L 223.655 265.090 L 224.368 262.741 L 225.092 260.403 L 225.828 258.074 L 226.574 255.756 L 227.331 253.449 L 228.099 251.152 L 228.878 248.865 L 229.668 246.590 L 230.468 244.326 L 231.279 242.072 L 232.100 239.831 L 232.932 237.600 L 233.774 235.382 L 234.626 233.175 L 235.489 230.980 L 236.362 228.797 L 237.244 226.627 L 238.137 224.469 L 239.039 222.323 L 239.952 220.190 L 240.873 218.070 L 241.805 215.963 L 242.746 213.869 L 243.696 211.788 L 244.656 209.721 L 245.625 207.667 L 246.603 205.627 L 247.590 203.600 L 248.586 201.588 L 249.591 199.589 L 250.604 197.605 L 251.626 195.635 L 252.657 193.680 L 253.696 191.739 L 254.744 189.813 L 255.799 187.901 L 256.863 186.005 L 257.935 184.123 L 259.015 182.257 L 260.102 180.406 L 261.197 178.570 L 262.300 176.750 L 263.410 174.946 L 264.527 173.157 L 265.652 171.384 L 266.784 169.627 L 267.923 167.886 L 269.069 166.162 L 270.221 164.453 L 271.380 162.761 L 272.546 161.085 L 273.718 159.426 L 274.896 157.784 L 276.080 156.158 L 277.271 154.549 L 278.467 152.957 L 279.669 151.382 L 280.876 149.824 L 282.090 148.284 L 283.308 146.760 L 284.532 145.254 L 285.761 143.765 L 286.995 142.294 L 288.234 140.840 L 289.477 139.404 L 290.725 137.985 L 291.978 136.584 L 293.235 135.201 L 294.496 133.835 L 295.761 132.488 L 297.031 131.158 L 298.304 129.847 L 299.580 128.553 L 300.860 127.278 L 302.144 126.020 L 303.431 124.781 L 304.721 123.559 L 306.014 122.356 L 307.310 121.171 L 308.609 120.005 L 309.910 118.856 L 311.214 117.726 L 312.520 116.614 L 313.828 115.521 L 315.139 114.445 L 316.451 113.388 L 317.766 112.349 L 319.082 111.329 L 320.400 110.327 L 321.719 109.343 L 323.040 108.377 L 324.361 107.430 L 325.685 106.501 L 327.009 105.590 L 328.334 104.697 L 329.660 103.822 L 330.986 102.965 L 331.313 102.759 L 331.543 102.685 L 332.929 102.270 L 334.305 101.889 L 335.673 101.543 L 337.032 101.229 L 338.385 100.948 L 339.730 100.698 L 341.069 100.480 L 342.402 100.293 L 343.731 100.137 L 345.055 100.011 L 346.376 99.914 L 347.695 99.848 L 349.012 99.811 L 350.329 99.804 L 351.646 99.826 L 352.964 99.878 L 354.284 99.959 L 355.607 100.070 L 356.933 100.211 L 358.264 100.383 L 359.600 100.585 L 360.942 100.819 L 362.291 101.084 L 363.646 101.382 L 365.010 101.712 L 366.382 102.075 L 367.763 102.473 L 369.153 102.905 L 370.552 103.372 L 371.961 103.875 L 373.380 104.415 L 374.809 104.992 L 376.249 105.607 L 377.698 106.261 L 379.158 106.954 L 380.627 107.687 L 382.107 108.460 L 383.595 109.275 L 385.094 110.131 L 386.601 111.030 L 388.117 111.971 L 389.641 112.956 L 391.174 113.984 L 392.713 115.057 L 394.260 116.174 L 395.813 117.336 L 397.371 118.543 L 398.935 119.796 L 400.504 121.094 L 402.077 122.439 L 403.653 123.829 L 405.232 125.266 L 406.814 126.749 L 408.397 128.278 L 409.981 129.854 L 411.566 131.476 L 413.150 133.145 L 414.734 134.860 L 416.316 136.621 L 417.895 138.428 L 419.472 140.282 L 421.046 142.181 L 422.615 144.126 L 424.180 146.116 L 425.740 148.152 L 427.294 150.233 L 428.841 152.358 L 430.382 154.528 L 431.915 156.742 L 433.440 158.999 L 434.956 161.300 L 436.463 163.645 L 437.960 166.032 L 439.447 168.461 L 440.924 170.932 L 442.389 173.445 L 443.842 175.998 L 445.283 178.593 L 446.712 181.228 L 448.127 183.902 L 449.529 186.616 L 450.917 189.368 L 452.290 192.159 L 453.648 194.988 L 454.991 197.854 L 456.319 200.757 L 457.630 203.696 L 458.925 206.671 L 460.203 209.681 L 461.464 212.726 L 462.708 215.805 L 463.933 218.918 L 465.141 222.064 L 466.330 225.242 L 467.499 228.452 L 468.650 231.694 L 469.781 234.966 L 470.893 238.269 L 471.984 241.601 L 473.055 244.962 L 474.106 248.351 L 475.135 251.769 L 476.144 255.213 L 477.131 258.684 L 478.096 262.181 L 479.039 265.704 L 479.961 269.251 L 480.860 272.822 L 481.736 276.417 L 482.590 280.035 L 483.421 283.675 L 484.228 287.337 L 485.013 291.019 L 485.773 294.722 L 486.510 298.445 L 487.223 302.186 L 487.912 305.946 L 488.577 309.724 L 489.218 313.519 L 489.834 317.330 L 490.425 321.157 L 490.992 324.999 L 491.533 328.856 L 492.050 332.726 L 492.542 336.610 L 493.008 340.506 L 493.449 344.414 L 493.865 348.333 L 494.255 352.262 L 494.619 356.201 L 494.958 360.150 L 495.271 364.107 L 495.558 368.071 L 495.819 372.043 L 496.054 376.021 L 496.263 380.005 L 496.446 383.994 L 496.604 387.988 L 496.734 391.985 L 496.839 395.985 L 496.918 399.988 L 496.970 403.992 L 496.996 407.997 L 496.996 412.003 L 496.970 416.008 L 496.918 420.012 L 496.839 424.015 L 496.734 428.015 L 496.604 432.012 L 496.446 436.006 L 496.263 439.995 L 496.054 443.979 L 495.819 447.957 L 495.558 451.929 L 495.271 455.893 L 494.958 459.850 L 494.619 463.799 L 494.255 467.738 L 493.865 471.667 L 493.449 475.586 L 493.008 479.494 L 492.542 483.390 L 492.050 487.274 L 491.533 491.144 L 490.992 495.001 L 490.425 498.843 L 489.834 502.670 L 489.218 506.481 L 488.577 510.276 L 487.912 514.054 L 487.223 517.814 L 486.510 521.555 L 485.773 525.278 L 485.013 528.981 L 484.228 532.663 L 483.421 536.325 L 482.590 539.965 L 481.736 543.583 L 480.860 547.178 L 479.961 550.749 L 479.039 554.296 L 478.096 557.819 L 477.131 561.316 L 476.144 564.787 L 475.135 568.231 L 474.106 571.649 L 473.055 575.038 L 471.984 578.399 L 470.893 581.731 L 469.781 585.034 L 468.650 588.306 L 467.499 591.548 L 466.330 594.758 L 465.141 597.936 L 463.933 601.082 L 462.708 604.195 L 461.464 607.274 L 460.203 610.319 L 458.925 613.329 L 457.630 616.304 L 456.319 619.243 L 454.991 622.146 L 453.648 625.012 L 452.290 627.841 L 450.917 630.632 L 449.529 633.384 L 448.127 636.098 L 446.712 638.772 L 445.283 641.407 L 443.842 644.002 L 442.389 646.555 L 440.924 649.068 L 439.447 651.539 L 437.960 653.968 L 436.463 656.355 L 434.956 658.700 L 433.440 661.001 L 431.915 663.258 L 430.382 665.472 L 428.841 667.642 L 427.294 669.767 L 425.740 671.848 L 424.180 673.884 L 422.615 675.874 L 421.046 677.819 L 419.472 679.718 L 417.895 681.572 L 416.316 683.379 L 414.734 685.140 L 413.150 686.855 L 411.566 688.524 L 409.981 690.146 L 408.397 691.722 L 406.814 693.251 L 405.232 694.734 L 403.653 696.171 L 402.077 697.561 L 400.504 698.906 L 398.935 700.204 L 397.371 701.457 L 395.813 702.664 L 394.260 703.826 L 392.713 704.943 L 391.174 706.016 L 389.641 707.044 L 388.117 708.029 L 386.601 708.970 L 385.094 709.869 L 383.595 710.725 L 382.107 711.540 L 380.627 712.313 L 379.158 713.046 L 377.698 713.739 L 376.249 714.393 L 374.809 715.008 L 373.380 715.585 L 371.961 716.125 L 370.552 716.628 L 369.153 717.095 L 367.763 717.527 L 366.382 717.925 L 365.010 718.288 L 363.646 718.618 L 362.291 718.916 L 360.942 719.181 L 359.600 719.415 L 358.264 719.617 L 356.933 719.789 L 355.607 719.930 L 354.284 720.041 L 352.964 720.122 L 351.646 720.174 L 350.329 720.196 L 349.012 720.189 L 347.695 720.152 L 346.376 720.086 L 345.055 719.989 L 343.731 719.863 L 342.402 719.707 L 341.069 719.520 L 339.730 719.302 L 338.385 719.052 L 337.032 718.771 L 335.673 718.457 L 334.305 718.111 L 332.929 717.730 L 331.543 717.315 L 330.149 716.866 L 328.745 716.381 L 327.331 715.859 L 325.906 715.301 L 324.472 714.705 L 323.028 714.071 L 321.573 713.398 L 320.109 712.685 L 318.634 711.932 L 317.150 711.138 L 315.657 710.302 L 314.154 709.425 L 312.642 708.505 L 311.122 707.542 L 309.593 706.536 L 308.057 705.485 L 306.514 704.390 L 304.965 703.251 L 303.409 702.066 L 301.847 700.836 L 300.281 699.561 L 298.710 698.239 L 297.135 696.872 L 295.558 695.458 L 293.977 693.999 L 292.395 692.492 L 290.811 690.940 L 289.226 689.341 L 287.642 687.695 L 286.058 686.003 L 284.475 684.265 L 282.894 682.481 L 281.316 680.651 L 279.740 678.774 L 278.169 676.852 L 276.601 674.884 L 275.039 672.871 L 273.482 670.813 L 271.931 668.710 L 270.387 666.563 L 268.851 664.371 L 267.322 662.135 L 265.801 659.856 L 264.289 657.533 L 262.787 655.167 L 261.295 652.759 L 259.813 650.309 L 258.342 647.817 L 256.883 645.284 L 255.436 642.709 L 254.001 640.095 L 252.579 637.440 L 251.170 634.746 L 249.776 632.013 L 248.395 629.241 L 247.029 626.431 L 245.678 623.584 L 244.343 620.699 L 243.023 617.778 L 241.720 614.821 L 240.433 611.828 L 239.164 608.801 L 237.912 605.739 L 236.677 602.643 L 235.461 599.513 L 234.263 596.351 L 233.083 593.157 L 231.923 589.931 L 230.782 586.674 L 229.660 583.386 L 228.559 580.069 L 227.478 576.722 L 226.417 573.347 L 225.377 569.944 L 224.358 566.513 L 223.360 563.055 L 222.384 559.570 L 221.429 556.061 L 220.497 552.526 L 219.587 548.966 L 218.699 545.383 L 217.834 541.777 L 216.992 538.148 L 216.173 534.497 L 215.377 530.825 L 214.604 527.132 L 213.855 523.419 L 213.130 519.687 L 212.429 515.936 L 211.752 512.167 L 211.100 508.381 L 210.471 504.578 L 209.868 500.758 L 209.289 496.924 L 208.734 493.074 L 208.205 489.211 L 207.701 485.334 L 207.222 481.444 L 206.768 477.542 L 206.340 473.628 L 205.937 469.704 L 205.560 465.769 L 205.209 461.826 L 204.883 457.873 L 204.583 453.912 L 204.309 449.944 L 204.060 445.969 L 203.838 441.988 L 203.642 438.001 L 203.472 434.010 L 203.328 430.014 L 203.210 426.015 L 203.118 422.014 L 203.053 418.010 L 203.013 414.006 L 203.000 410.000 L 203.011 406.823 Z" fill="black" fill-rule="evenodd"/>
</svg>
