<svg xmlns="http://www.w3.org/2000/svg" viewBox="0 0 700.000 1000">
  <path d="M 130.000 -5.000 L 128.896 -4.986 L 127.792 -4.946 L 126.690 -4.878 L 125.589 -4.783 L 125.390 -4.761 L 124.492 -4.662 L 123.740 -4.560 L 123.397 -4.513 L 122.307 -4.337 L 121.221 -4.135 L 120.598 -4.003 L 120.140 -3.907 L 119.066 -3.651 L 117.998 -3.370 L 117.383 -3.192 L 116.937 -3.062 L 115.884 -2.729 L 114.840 -2.369 L 113.805 -1.985 L 112.779 -1.575 L 112.054 -1.264 L 111.764 -1.139 L 110.760 -0.680 L 110.246 -0.429 L 109.767 -0.195 L 108.787 0.314 L 107.820 0.846 L 106.865 1.402 L 106.688 1.511 L 105.925 1.982 L 104.999 2.584 L 104.089 3.209 L 103.723 3.473 L 103.194 3.856 L 102.315 4.524 L 101.851 4.896 L 101.452 5.215 L 100.607 5.926 L 99.780 6.657 L 98.971 7.409 L 98.341 8.023 L 98.180 8.180 L 97.813 8.557 L 97.409 8.971 L 96.657 9.780 L 96.146 10.357 L 95.926 10.607 L 95.215 11.452 L 94.524 12.315 L 94.143 12.816 L 93.856 13.194 L 93.392 13.835 L 93.209 14.089 L 92.584 14.999 L 91.982 15.925 L 91.402 16.865 L 91.159 17.282 L 90.846 17.820 L 90.533 18.388 L 90.314 18.787 L 89.805 19.767 L 89.514 20.363 L 89.320 20.760 L 89.137 21.162 L 88.861 21.764 L 88.721 22.090 L 88.425 22.779 L 88.015 23.805 L 87.631 24.840 L 87.463 25.328 L 87.271 25.884 L 87.185 26.156 L 86.938 26.937 L 86.702 27.749 L 86.630 27.998 L 86.349 29.066 L 86.093 30.140 L 85.865 31.221 L 85.743 31.872 L 85.663 32.307 L 85.604 32.670 L 85.487 33.397 L 85.338 34.492 L 85.326 34.607 L 85.217 35.589 L 85.136 36.522 L 85.122 36.690 L 85.054 37.792 L 85.014 38.896 L 85.000 40.000 L 85.000 40.000 L 85.000 410.000 L 85.000 780.000 L 85.014 781.104 L 85.054 782.208 L 85.122 783.310 L 85.217 784.411 L 85.338 785.508 L 85.487 786.603 L 85.663 787.693 L 85.865 788.779 L 86.093 789.860 L 86.349 790.934 L 86.630 792.002 L 86.938 793.063 L 87.271 794.116 L 87.631 795.160 L 88.015 796.195 L 88.425 797.221 L 88.861 798.236 L 89.320 799.240 L 89.805 800.233 L 90.314 801.213 L 90.846 802.180 L 91.402 803.135 L 91.982 804.075 L 92.584 805.001 L 93.209 805.911 L 93.856 806.806 L 94.524 807.685 L 95.215 808.548 L 95.926 809.393 L 96.657 810.220 L 97.409 811.029 L 98.180 811.820 L 98.971 812.591 L 99.780 813.343 L 100.607 814.074 L 101.452 814.785 L 102.315 815.476 L 103.194 816.144 L 104.089 816.791 L 104.999 817.416 L 105.925 818.018 L 106.865 818.598 L 107.820 819.154 L 108.787 819.686 L 109.767 820.195 L 110.760 820.680 L 111.764 821.139 L 112.779 821.575 L 113.805 821.985 L 114.840 822.369 L 115.884 822.729 L 116.937 823.062 L 117.998 823.370 L 119.066 823.651 L 120.140 823.907 L 121.221 824.135 L 122.307 824.337 L 123.397 824.513 L 124.492 824.662 L 125.589 824.783 L 126.690 824.878 L 127.792 824.946 L 128.896 824.986 L 130.000 825.000 L 375.000 825.000 L 375.237 824.997 L 375.474 824.997 L 379.375 824.956 L 380.323 824.936 L 384.222 824.813 L 385.170 824.773 L 389.065 824.568 L 390.012 824.508 L 393.902 824.220 L 394.847 824.140 L 398.730 823.771 L 399.674 823.671 L 403.548 823.219 L 404.489 823.100 L 408.353 822.567 L 409.292 822.427 L 413.144 821.813 L 414.079 821.654 L 417.917 820.958 L 418.849 820.779 L 422.671 820.003 L 423.599 819.805 L 427.405 818.948 L 428.328 818.730 L 432.114 817.794 L 433.033 817.556 L 436.799 816.540 L 437.712 816.283 L 441.456 815.188 L 442.364 814.912 L 446.083 813.738 L 446.985 813.443 L 450.679 812.191 L 451.574 811.877 L 455.241 810.547 L 456.130 810.214 L 459.768 808.807 L 460.649 808.456 L 464.257 806.972 L 465.130 806.602 L 468.706 805.044 L 469.572 804.655 L 473.113 803.021 L 473.971 802.615 L 477.477 800.906 L 478.326 800.482 L 481.796 798.700 L 482.635 798.258 L 486.066 796.403 L 486.896 795.943 L 490.288 794.017 L 491.108 793.540 L 494.458 791.542 L 495.268 791.048 L 498.575 788.980 L 499.375 788.468 L 502.638 786.331 L 503.426 785.803 L 506.643 783.598 L 507.420 783.053 L 510.590 780.781 L 511.355 780.220 L 514.477 777.881 L 515.230 777.304 L 518.301 774.899 L 519.042 774.307 L 522.062 771.838 L 522.790 771.230 L 525.758 768.698 L 526.473 768.075 L 529.386 765.481 L 530.088 764.843 L 532.946 762.189 L 533.635 761.536 L 536.436 758.821 L 537.110 758.154 L 539.854 755.381 L 540.514 754.700 L 543.199 751.870 L 543.844 751.175 L 546.469 748.289 L 547.099 747.581 L 549.662 744.640 L 550.278 743.918 L 552.778 740.924 L 553.379 740.190 L 555.815 737.144 L 556.400 736.397 L 558.772 733.300 L 559.341 732.541 L 561.647 729.395 L 562.200 728.624 L 564.439 725.430 L 564.975 724.648 L 567.147 721.407 L 567.666 720.613 L 569.769 717.328 L 570.272 716.524 L 572.305 713.195 L 572.791 712.380 L 574.753 709.009 L 575.221 708.184 L 577.112 704.772 L 577.563 703.937 L 579.381 700.486 L 579.815 699.642 L 581.560 696.154 L 581.975 695.301 L 583.647 691.777 L 584.044 690.915 L 585.641 687.356 L 586.020 686.486 L 587.541 682.895 L 587.902 682.017 L 589.347 678.394 L 589.689 677.509 L 591.057 673.857 L 591.381 672.965 L 592.672 669.284 L 592.976 668.385 L 594.189 664.678 L 594.475 663.773 L 595.610 660.042 L 595.876 659.131 L 596.932 655.376 L 597.179 654.460 L 598.156 650.684 L 598.383 649.763 L 599.280 645.966 L 599.488 645.041 L 600.305 641.227 L 600.493 640.297 L 601.229 636.466 L 601.398 635.533 L 602.053 631.687 L 602.202 630.751 L 602.776 626.892 L 602.906 625.952 L 603.398 622.083 L 603.508 621.141 L 603.918 617.262 L 604.008 616.317 L 604.337 612.431 L 604.406 611.484 L 604.653 607.592 L 604.703 606.644 L 604.867 602.747 L 604.897 601.799 L 604.980 597.899 L 604.990 596.950 L 604.990 593.050 L 604.980 592.101 L 604.897 588.201 L 604.867 587.253 L 604.703 583.356 L 604.653 582.408 L 604.406 578.516 L 604.337 577.569 L 604.008 573.683 L 603.918 572.738 L 603.508 568.859 L 603.398 567.917 L 602.906 564.048 L 602.776 563.108 L 602.202 559.249 L 602.053 558.313 L 601.398 554.467 L 601.229 553.534 L 600.493 549.703 L 600.305 548.773 L 599.488 544.959 L 599.280 544.034 L 598.383 540.237 L 598.156 539.316 L 597.179 535.540 L 596.932 534.624 L 595.876 530.869 L 595.610 529.958 L 594.475 526.227 L 594.189 525.322 L 592.976 521.615 L 592.672 520.716 L 591.381 517.035 L 591.057 516.143 L 589.689 512.491 L 589.347 511.606 L 587.902 507.983 L 587.541 507.105 L 586.020 503.514 L 585.641 502.644 L 584.044 499.085 L 583.647 498.223 L 581.975 494.699 L 581.560 493.846 L 579.815 490.358 L 579.381 489.514 L 577.563 486.063 L 577.112 485.228 L 575.221 481.816 L 574.753 480.991 L 572.791 477.620 L 572.305 476.805 L 570.272 473.476 L 569.769 472.672 L 567.666 469.387 L 567.147 468.593 L 564.975 465.352 L 564.439 464.570 L 562.200 461.376 L 561.647 460.605 L 559.341 457.459 L 558.772 456.700 L 556.400 453.603 L 555.815 452.856 L 553.379 449.810 L 552.778 449.076 L 550.278 446.082 L 549.662 445.360 L 547.099 442.419 L 546.469 441.711 L 543.844 438.825 L 543.199 438.130 L 540.514 435.300 L 539.854 434.619 L 537.110 431.846 L 536.436 431.179 L 533.635 428.464 L 532.946 427.811 L 530.088 425.157 L 529.386 424.519 L 526.473 421.925 L 525.758 421.302 L 522.790 418.770 L 522.062 418.162 L 519.042 415.693 L 518.301 415.101 L 515.230 412.696 L 514.477 412.119 L 511.648 410.000 L 514.477 407.881 L 515.230 407.304 L 518.301 404.899 L 519.042 404.307 L 522.062 401.838 L 522.790 401.230 L 525.758 398.698 L 526.473 398.075 L 529.386 395.481 L 530.088 394.843 L 532.946 392.189 L 533.635 391.536 L 536.436 388.821 L 537.110 388.154 L 539.854 385.381 L 540.514 384.700 L 543.199 381.870 L 543.844 381.175 L 546.469 378.289 L 547.099 377.581 L 549.662 374.640 L 550.278 373.918 L 552.778 370.924 L 553.379 370.190 L 555.815 367.144 L 556.400 366.397 L 558.772 363.300 L 559.341 362.541 L 561.647 359.395 L 562.200 358.624 L 564.439 355.430 L 564.975 354.648 L 567.147 351.407 L 567.666 350.613 L 569.769 347.328 L 570.272 346.524 L 572.305 343.195 L 572.791 342.380 L 574.753 339.009 L 575.221 338.184 L 577.112 334.772 L 577.563 333.937 L 579.381 330.486 L 579.815 329.642 L 581.560 326.154 L 581.975 325.301 L 583.647 321.777 L 584.044 320.915 L 585.641 317.356 L 586.020 316.486 L 587.541 312.895 L 587.902 312.017 L 589.347 308.394 L 589.689 307.509 L 591.057 303.857 L 591.381 302.965 L 592.672 299.284 L 592.976 298.385 L 594.189 294.678 L 594.475 293.773 L 595.610 290.042 L 595.876 289.131 L 596.932 285.376 L 597.179 284.460 L 598.156 280.684 L 598.383 279.763 L 599.280 275.966 L 599.488 275.041 L 600.305 271.227 L 600.493 270.297 L 601.229 266.466 L 601.398 265.533 L 602.053 261.687 L 602.202 260.751 L 602.776 256.892 L 602.906 255.952 L 603.398 252.083 L 603.508 251.141 L 603.918 247.262 L 604.008 246.317 L 604.337 242.431 L 604.406 241.484 L 604.653 237.592 L 604.703 236.644 L 604.867 232.747 L 604.897 231.799 L 604.980 227.899 L 604.990 226.950 L 604.990 223.050 L 604.980 222.101 L 604.897 218.201 L 604.867 217.253 L 604.703 213.356 L 604.653 212.408 L 604.406 208.516 L 604.337 207.569 L 604.008 203.683 L 603.918 202.738 L 603.508 198.859 L 603.398 197.917 L 602.906 194.048 L 602.776 193.108 L 602.202 189.249 L 602.053 188.313 L 601.398 184.467 L 601.229 183.534 L 600.493 179.703 L 600.305 178.773 L 599.488 174.959 L 599.280 174.034 L 598.383 170.237 L 598.156 169.316 L 597.179 165.540 L 596.932 164.624 L 595.876 160.869 L 595.610 159.958 L 594.475 156.227 L 594.189 155.322 L 592.976 151.615 L 592.672 150.716 L 591.381 147.035 L 591.057 146.143 L 589.689 142.491 L 589.347 141.606 L 587.902 137.983 L 587.541 137.105 L 586.020 133.514 L 585.641 132.644 L 584.044 129.085 L 583.647 128.223 L 581.975 124.699 L 581.560 123.846 L 579.815 120.358 L 579.381 119.514 L 577.563 116.063 L 577.112 115.228 L 575.221 111.816 L 574.753 110.991 L 572.791 107.620 L 572.305 106.805 L 570.272 103.476 L 569.769 102.672 L 567.666 99.387 L 567.147 98.593 L 564.975 95.352 L 564.439 94.570 L 562.200 91.376 L 561.647 90.605 L 559.341 87.459 L 558.772 86.700 L 556.400 83.603 L 555.815 82.856 L 553.379 79.810 L 552.778 79.076 L 550.278 76.082 L 549.662 75.360 L 547.099 72.419 L 546.469 71.711 L 543.844 68.825 L 543.199 68.130 L 540.514 65.300 L 539.854 64.619 L 537.110 61.846 L 536.436 61.179 L 533.635 58.464 L 532.946 57.811 L 530.088 55.157 L 529.386 54.519 L 526.473 51.925 L 525.758 51.302 L 522.790 48.770 L 522.062 48.162 L 519.042 45.693 L 518.301 45.101 L 515.230 42.696 L 514.477 42.119 L 511.355 39.780 L 510.590 39.219 L 507.420 36.947 L 506.643 36.402 L 503.426 34.197 L 502.638 33.669 L 499.375 31.532 L 498.575 31.020 L 495.268 28.952 L 494.458 28.458 L 491.108 26.460 L 490.288 25.983 L 486.896 24.057 L 486.066 23.597 L 482.635 21.742 L 481.796 21.300 L 478.326 19.518 L 477.477 19.094 L 473.971 17.385 L 473.113 16.979 L 469.572 15.345 L 468.706 14.956 L 465.130 13.398 L 464.257 13.028 L 460.649 11.544 L 459.768 11.193 L 456.130 9.786 L 455.241 9.453 L 451.574 8.123 L 450.679 7.809 L 446.985 6.557 L 446.083 6.262 L 442.364 5.088 L 441.456 4.812 L 437.712 3.717 L 436.799 3.460 L 433.033 2.444 L 432.114 2.206 L 428.328 1.270 L 427.405 1.052 L 423.599 0.195 L 422.671 -0.003 L 418.849 -0.779 L 417.917 -0.958 L 414.079 -1.654 L 413.144 -1.813 L 409.292 -2.427 L 408.353 -2.567 L 404.489 -3.100 L 403.548 -3.219 L 399.674 -3.671 L 398.730 -3.771 L 394.847 -4.140 L 393.902 -4.220 L 390.012 -4.508 L 389.065 -4.568 L 385.170 -4.773 L 384.222 -4.813 L 380.323 -4.936 L 379.375 -4.956 L 375.474 -4.997 L 375.237 -4.997 L 375.000 -5.000 L 130.000 -5.000 Z M 175.000 85.000 L 374.763 85.000 L 377.952 85.034 L 380.902 85.127 L 383.849 85.282 L 386.793 85.500 L 389.732 85.780 L 392.663 86.121 L 395.588 86.525 L 398.502 86.989 L 401.407 87.516 L 404.300 88.103 L 407.179 88.751 L 410.045 89.460 L 412.894 90.229 L 415.727 91.058 L 418.542 91.946 L 421.338 92.894 L 424.113 93.900 L 426.866 94.964 L 429.596 96.087 L 432.301 97.267 L 434.982 98.503 L 437.635 99.796 L 440.261 101.144 L 442.858 102.547 L 445.424 104.005 L 447.960 105.517 L 450.462 107.082 L 452.932 108.699 L 455.366 110.368 L 457.765 112.088 L 460.127 113.858 L 462.452 115.677 L 464.737 117.545 L 466.983 119.461 L 469.187 121.424 L 471.350 123.432 L 473.470 125.486 L 475.546 127.585 L 477.578 129.726 L 479.563 131.910 L 481.503 134.135 L 483.395 136.401 L 485.239 138.706 L 487.034 141.049 L 488.779 143.430 L 490.473 145.847 L 492.116 148.299 L 493.707 150.785 L 495.246 153.304 L 496.730 155.855 L 498.161 158.437 L 499.537 161.048 L 500.858 163.688 L 502.122 166.355 L 503.330 169.048 L 504.482 171.766 L 505.575 174.508 L 506.611 177.272 L 507.588 180.058 L 508.506 182.863 L 509.364 185.687 L 510.163 188.528 L 510.902 191.386 L 511.581 194.259 L 512.198 197.145 L 512.755 200.044 L 513.251 202.954 L 513.685 205.873 L 514.057 208.802 L 514.368 211.737 L 514.616 214.678 L 514.803 217.624 L 514.927 220.573 L 514.990 223.524 L 514.990 226.476 L 514.927 229.427 L 514.803 232.376 L 514.616 235.322 L 514.368 238.263 L 514.057 241.198 L 513.685 244.127 L 513.251 247.046 L 512.755 249.956 L 512.198 252.855 L 511.581 255.741 L 510.902 258.614 L 510.163 261.472 L 509.364 264.313 L 508.506 267.137 L 507.588 269.942 L 506.611 272.728 L 505.575 275.492 L 504.482 278.234 L 503.330 280.952 L 502.122 283.645 L 500.858 286.312 L 499.537 288.952 L 498.161 291.563 L 496.730 294.145 L 495.246 296.696 L 493.707 299.215 L 492.116 301.701 L 490.473 304.153 L 488.779 306.570 L 487.034 308.951 L 485.239 311.294 L 483.395 313.599 L 481.503 315.865 L 479.563 318.090 L 477.578 320.274 L 475.546 322.415 L 473.470 324.514 L 471.350 326.568 L 469.187 328.576 L 466.983 330.539 L 464.737 332.455 L 462.452 334.323 L 460.127 336.142 L 457.765 337.912 L 455.366 339.632 L 452.932 341.301 L 450.462 342.918 L 447.960 344.483 L 445.424 345.995 L 442.858 347.453 L 440.261 348.856 L 437.635 350.204 L 434.982 351.497 L 432.301 352.733 L 429.596 353.913 L 426.866 355.036 L 424.113 356.100 L 421.338 357.106 L 418.542 358.054 L 415.727 358.942 L 412.894 359.771 L 410.045 360.540 L 407.179 361.249 L 404.300 361.897 L 401.407 362.484 L 398.502 363.011 L 395.588 363.475 L 392.663 363.879 L 389.732 364.220 L 386.793 364.500 L 383.849 364.718 L 380.902 364.873 L 377.952 364.966 L 374.763 365.000 L 175.000 365.000 L 175.000 85.000 Z M 175.000 455.000 L 374.763 455.000 L 377.952 455.034 L 380.902 455.127 L 383.849 455.282 L 386.793 455.500 L 389.732 455.780 L 392.663 456.121 L 395.588 456.525 L 398.502 456.989 L 401.407 457.516 L 404.300 458.103 L 407.179 458.751 L 410.045 459.460 L 412.894 460.229 L 415.727 461.058 L 418.542 461.946 L 421.338 462.894 L 424.113 463.900 L 426.866 464.964 L 429.596 466.087 L 432.301 467.267 L 434.982 468.503 L 437.635 469.796 L 440.261 471.144 L 442.858 472.547 L 445.424 474.005 L 447.960 475.517 L 450.462 477.082 L 452.932 478.699 L 455.366 480.368 L 457.765 482.088 L 460.127 483.858 L 462.452 485.677 L 464.737 487.545 L 466.983 489.461 L 469.187 491.424 L 471.350 493.432 L 473.470 495.486 L 475.546 497.585 L 477.578 499.726 L 479.563 501.910 L 481.503 504.135 L 483.395 506.401 L 485.239 508.706 L 487.034 511.049 L 488.779 513.430 L 490.473 515.847 L 492.116 518.299 L 493.707 520.785 L 495.246 523.304 L 496.730 525.855 L 498.161 528.437 L 499.537 531.048 L 500.858 533.688 L 502.122 536.355 L 503.330 539.048 L 504.482 541.766 L 505.575 544.508 L 506.611 547.272 L 507.588 550.058 L 508.506 552.863 L 509.364 555.687 L 510.163 558.528 L 510.902 561.386 L 511.581 564.259 L 512.198 567.145 L 512.755 570.044 L 513.251 572.954 L 513.685 575.873 L 514.057 578.802 L 514.368 581.737 L 514.616 584.678 L 514.803 587.624 L 514.927 590.573 L 514.990 593.524 L 514.990 596.476 L 514.927 599.427 L 514.803 602.376 L 514.616 605.322 L 514.368 608.263 L 514.057 611.198 L 513.685 614.127 L 513.251 617.046 L 512.755 619.956 L 512.198 622.855 L 511.581 625.741 L 510.902 628.614 L 510.163 631.472 L 509.364 634.313 L 508.506 637.137 L 507.588 639.942 L 506.611 642.728 L 505.575 645.492 L 504.482 648.234 L 503.330 650.952 L 502.122 653.645 L 500.858 656.312 L 499.537 658.952 L 498.161 661.563 L 496.730 664.145 L 495.246 666.696 L 493.707 669.215 L 492.116 671.701 L 490.473 674.153 L 488.779 676.570 L 487.034 678.951 L 485.239 681.294 L 483.395 683.599 L 481.503 685.865 L 479.563 688.090 L 477.578 690.274 L 475.546 692.415 L 473.470 694.514 L 471.350 696.568 L 469.187 698.576 L 466.983 700.539 L 464.737 702.455 L 462.452 704.323 L 460.127 706.142 L 457.765 707.912 L 455.366 709.632 L 452.932 711.301 L 450.462 712.918 L 447.960 714.483 L 445.424 715.995 L 442.858 717.453 L 440.261 718.856 L 437.635 720.204 L 434.982 721.497 L 432.301 722.733 L 429.596 723.913 L 426.866 725.036 L 424.113 726.100 L 421.338 727.106 L 418.542 728.054 L 415.727 728.942 L 412.894 729.771 L 410.045 730.540 L 407.179 731.249 L 404.300 731.897 L 401.407 732.484 L 398.502 733.011 L 395.588 733.475 L 392.663 733.879 L 389.732 734.220 L 386.793 734.500 L 383.849 734.718 L 380.902 734.873 L 377.952 734.966 L 374.763 735.000 L 175.000 735.000 L 175.000 455.000 Z" fill="black" fill-rule="evenodd"/>
</svg>
