<svg xmlns="http://www.w3.org/2000/svg" viewBox="0 0 600.000 1000" width="600.000" height="1000">
  <path d="M 115.000 630.800 L 115.013 633.700 L 115.017 634.104 L 115.055 636.979 L 115.063 637.388 L 115.127 640.238 L 115.138 640.653 L 115.228 643.476 L 115.243 643.897 L 115.358 646.694 L 115.378 647.120 L 115.518 649.892 L 115.542 650.324 L 115.707 653.069 L 115.736 653.507 L 115.926 656.226 L 115.960 656.670 L 116.175 659.362 L 116.213 659.812 L 116.453 662.478 L 116.497 662.935 L 116.762 665.573 L 116.811 666.036 L 117.100 668.647 L 117.155 669.117 L 117.469 671.701 L 117.530 672.178 L 117.868 674.734 L 117.935 675.217 L 118.297 677.746 L 118.371 678.236 L 118.758 680.737 L 118.837 681.235 L 119.248 683.707 L 119.335 684.212 L 119.770 686.657 L 119.865 687.169 L 120.323 689.585 L 120.425 690.105 L 120.908 692.492 L 121.018 693.019 L 121.524 695.378 L 121.642 695.913 L 122.172 698.243 L 122.299 698.785 L 122.852 701.086 L 122.988 701.636 L 123.565 703.908 L 123.710 704.466 L 124.310 706.708 L 124.465 707.274 L 125.088 709.487 L 125.253 710.060 L 125.899 712.243 L 126.076 712.824 L 126.744 714.978 L 126.932 715.567 L 127.623 717.691 L 127.822 718.287 L 128.537 720.381 L 128.748 720.985 L 129.485 723.048 L 129.709 723.660 L 130.468 725.693 L 130.705 726.313 L 131.487 728.315 L 131.737 728.942 L 132.541 730.913 L 132.806 731.548 L 133.632 733.488 L 133.911 734.130 L 134.759 736.039 L 135.054 736.688 L 135.924 738.566 L 136.235 739.222 L 137.127 741.068 L 137.454 741.730 L 138.367 743.545 L 138.711 744.213 L 139.646 745.996 L 140.008 746.670 L 140.965 748.421 L 141.344 749.101 L 142.322 750.819 L 142.720 751.504 L 143.720 753.190 L 144.137 753.880 L 145.158 755.534 L 145.595 756.227 L 146.637 757.848 L 147.094 758.545 L 148.157 760.134 L 148.635 760.833 L 149.719 762.389 L 150.218 763.091 L 151.322 764.613 L 151.843 765.316 L 152.969 766.805 L 153.512 767.509 L 154.657 768.964 L 155.223 769.668 L 156.389 771.089 L 156.977 771.792 L 158.164 773.180 L 158.775 773.880 L 159.982 775.234 L 160.617 775.931 L 161.844 777.251 L 162.502 777.944 L 163.749 779.229 L 164.431 779.917 L 165.698 781.168 L 166.403 781.849 L 167.689 783.065 L 168.418 783.739 L 169.724 784.920 L 170.476 785.585 L 171.802 786.731 L 172.577 787.386 L 173.922 788.498 L 174.719 789.141 L 176.084 790.217 L 176.904 790.848 L 178.288 791.888 L 179.129 792.506 L 180.532 793.511 L 181.394 794.113 L 182.817 795.082 L 183.699 795.668 L 185.140 796.601 L 186.041 797.169 L 187.502 798.067 L 188.421 798.617 L 189.900 799.477 L 190.837 800.008 L 192.335 800.832 L 193.288 801.342 L 194.804 802.129 L 195.772 802.617 L 197.307 803.368 L 198.288 803.834 L 199.841 804.548 L 200.835 804.990 L 202.406 805.667 L 203.410 806.085 L 205.000 806.725 L 206.013 807.118 L 207.621 807.720 L 208.642 808.089 L 210.267 808.653 L 211.295 808.997 L 212.938 809.523 L 213.971 809.840 L 215.631 810.329 L 216.667 810.620 L 218.345 811.071 L 219.383 811.336 L 221.078 811.748 L 222.116 811.987 L 223.829 812.361 L 224.865 812.574 L 226.595 812.909 L 227.628 813.097 L 229.375 813.393 L 230.404 813.555 L 232.168 813.813 L 233.191 813.950 L 234.973 814.168 L 235.989 814.281 L 237.787 814.460 L 238.795 814.549 L 240.610 814.688 L 241.608 814.754 L 243.439 814.853 L 244.428 814.896 L 246.275 814.956 L 247.252 814.977 L 249.116 814.997 L 249.600 815.000 L 395.000 815.000 L 395.000 1080.000 L 395.014 1081.104 L 395.054 1082.208 L 395.122 1083.310 L 395.217 1084.411 L 395.338 1085.508 L 395.487 1086.603 L 395.663 1087.693 L 395.865 1088.779 L 396.093 1089.860 L 396.349 1090.934 L 396.630 1092.002 L 396.938 1093.063 L 397.271 1094.116 L 397.631 1095.160 L 398.015 1096.195 L 398.425 1097.221 L 398.861 1098.236 L 399.320 1099.240 L 399.805 1100.233 L 400.314 1101.213 L 400.846 1102.180 L 401.402 1103.135 L 401.982 1104.075 L 402.584 1105.001 L 403.209 1105.911 L 403.856 1106.806 L 404.524 1107.685 L 405.215 1108.548 L 405.926 1109.393 L 406.657 1110.220 L 407.409 1111.029 L 408.180 1111.820 L 408.971 1112.591 L 409.780 1113.343 L 410.607 1114.074 L 411.452 1114.785 L 412.315 1115.476 L 413.194 1116.144 L 414.089 1116.791 L 414.999 1117.416 L 415.925 1118.018 L 416.865 1118.598 L 417.820 1119.154 L 418.787 1119.686 L 419.767 1120.195 L 420.760 1120.680 L 421.764 1121.139 L 422.779 1121.575 L 423.805 1121.985 L 424.840 1122.369 L 425.884 1122.729 L 426.937 1123.062 L 427.998 1123.370 L 429.066 1123.651 L 430.140 1123.907 L 431.221 1124.135 L 432.307 1124.337 L 433.397 1124.513 L 434.492 1124.662 L 435.589 1124.783 L 436.690 1124.878 L 437.792 1124.946 L 438.896 1124.986 L 440.000 1125.000 L 441.104 1124.986 L 442.208 1124.946 L 443.310 1124.878 L 444.411 1124.783 L 445.508 1124.662 L 446.603 1124.513 L 447.693 1124.337 L 448.779 1124.135 L 449.860 1123.907 L 450.934 1123.651 L 452.002 1123.370 L 453.063 1123.062 L 454.116 1122.729 L 455.160 1122.369 L 456.195 1121.985 L 457.221 1121.575 L 458.236 1121.139 L 459.240 1120.680 L 460.233 1120.195 L 461.213 1119.686 L 462.180 1119.154 L 463.135 1118.598 L 464.075 1118.018 L 465.001 1117.416 L 465.911 1116.791 L 466.806 1116.144 L 467.685 1115.476 L 468.548 1114.785 L 469.393 1114.074 L 470.220 1113.343 L 471.029 1112.591 L 471.820 1111.820 L 472.591 1111.029 L 473.343 1110.220 L 474.074 1109.393 L 474.785 1108.548 L 475.476 1107.685 L 476.144 1106.806 L 476.791 1105.911 L 477.416 1105.001 L 478.018 1104.075 L 478.598 1103.135 L 479.154 1102.180 L 479.686 1101.213 L 480.195 1100.233 L 480.680 1099.240 L 481.139 1098.236 L 481.575 1097.221 L 481.985 1096.195 L 482.369 1095.160 L 482.729 1094.116 L 483.062 1093.063 L 483.370 1092.002 L 483.651 1090.934 L 483.907 1089.860 L 484.135 1088.779 L 484.337 1087.693 L 484.513 1086.603 L 484.662 1085.508 L 484.783 1084.411 L 484.878 1083.310 L 484.946 1082.208 L 484.986 1081.104 L 485.000 1080.000 L 485.000 770.000 L 485.000 360.000 L 484.986 358.896 L 484.946 357.792 L 484.878 356.690 L 484.783 355.589 L 484.662 354.492 L 484.513 353.397 L 484.337 352.307 L 484.135 351.221 L 483.907 350.140 L 483.651 349.066 L 483.370 347.998 L 483.062 346.937 L 482.729 345.884 L 482.369 344.840 L 481.985 343.805 L 481.575 342.779 L 481.139 341.764 L 480.680 340.760 L 480.195 339.767 L 479.686 338.787 L 479.154 337.820 L 478.598 336.865 L 478.018 335.925 L 477.416 334.999 L 476.791 334.089 L 476.144 333.194 L 475.476 332.315 L 474.785 331.452 L 474.074 330.607 L 473.343 329.780 L 472.591 328.971 L 471.820 328.180 L 471.029 327.409 L 470.220 326.657 L 469.393 325.926 L 468.548 325.215 L 467.685 324.524 L 466.806 323.856 L 465.911 323.209 L 465.001 322.584 L 464.075 321.982 L 463.135 321.402 L 462.180 320.846 L 461.213 320.314 L 460.233 319.805 L 459.240 319.320 L 458.236 318.861 L 457.221 318.425 L 456.195 318.015 L 455.160 317.631 L 454.116 317.271 L 453.063 316.938 L 452.002 316.630 L 450.934 316.349 L 449.860 316.093 L 448.779 315.865 L 447.693 315.663 L 446.603 315.487 L 445.508 315.338 L 444.411 315.217 L 443.310 315.122 L 442.208 315.054 L 441.104 315.014 L 440.000 315.000 L 438.896 315.014 L 437.792 315.054 L 436.690 315.122 L 435.589 315.217 L 434.492 315.338 L 433.397 315.487 L 432.307 315.663 L 431.221 315.865 L 430.140 316.093 L 429.066 316.349 L 427.998 316.630 L 426.937 316.938 L 425.884 317.271 L 424.840 317.631 L 423.805 318.015 L 422.779 318.425 L 421.764 318.861 L 420.760 319.320 L 419.767 319.805 L 418.787 320.314 L 417.820 320.846 L 416.865 321.402 L 415.925 321.982 L 414.999 322.584 L 414.089 323.209 L 413.194 323.856 L 412.315 324.524 L 411.452 325.215 L 410.607 325.926 L 409.780 326.657 L 408.971 327.409 L 408.180 328.180 L 407.409 328.971 L 406.657 329.780 L 405.926 330.607 L 405.215 331.452 L 404.524 332.315 L 403.856 333.194 L 403.209 334.089 L 402.584 334.999 L 401.982 335.925 L 401.402 336.865 L 400.846 337.820 L 400.314 338.787 L 399.805 339.767 L 399.320 340.760 L 398.861 341.764 L 398.425 342.779 L 398.015 343.805 L 397.631 344.840 L 397.271 345.884 L 396.938 346.937 L 396.630 347.998 L 396.349 349.066 L 396.093 350.140 L 395.865 351.221 L 395.663 352.307 L 395.487 353.397 L 395.338 354.492 L 395.217 355.589 L 395.122 356.690 L 395.054 357.792 L 395.014 358.896 L 395.000 360.000 L 395.000 725.000 L 249.842 725.000 L 248.708 724.988 L 247.842 724.960 L 247.004 724.914 L 246.192 724.852 L 245.406 724.774 L 244.645 724.680 L 243.906 724.573 L 243.190 724.451 L 242.494 724.316 L 241.818 724.169 L 241.160 724.009 L 240.519 723.837 L 239.892 723.652 L 239.280 723.456 L 238.680 723.248 L 238.090 723.027 L 237.510 722.794 L 236.938 722.547 L 236.373 722.288 L 235.814 722.014 L 235.258 721.725 L 234.705 721.421 L 234.155 721.100 L 233.605 720.763 L 233.055 720.407 L 232.505 720.032 L 231.953 719.637 L 231.399 719.220 L 230.842 718.781 L 230.283 718.319 L 229.720 717.832 L 229.154 717.320 L 228.584 716.781 L 228.010 716.215 L 227.433 715.620 L 226.852 714.995 L 226.268 714.340 L 225.681 713.654 L 225.092 712.935 L 224.500 712.184 L 223.907 711.399 L 223.312 710.579 L 222.717 709.725 L 222.121 708.835 L 221.526 707.909 L 220.932 706.947 L 220.340 705.948 L 219.750 704.912 L 219.163 703.839 L 218.580 702.728 L 218.002 701.579 L 217.428 700.391 L 216.860 699.166 L 216.299 697.903 L 215.744 696.601 L 215.198 695.261 L 214.659 693.883 L 214.130 692.466 L 213.611 691.012 L 213.101 689.519 L 212.603 687.988 L 212.115 686.420 L 211.640 684.813 L 211.178 683.170 L 210.728 681.489 L 210.292 679.771 L 209.870 678.016 L 209.463 676.224 L 209.070 674.396 L 208.694 672.532 L 208.333 670.632 L 207.988 668.696 L 207.661 666.725 L 207.350 664.719 L 207.057 662.678 L 206.782 660.602 L 206.526 658.492 L 206.288 656.348 L 206.069 654.170 L 205.870 651.959 L 205.691 649.715 L 205.531 647.437 L 205.392 645.128 L 205.273 642.785 L 205.176 640.411 L 205.100 638.005 L 205.045 635.568 L 205.012 633.099 L 205.000 630.500 L 205.000 360.000 L 204.986 358.896 L 204.946 357.792 L 204.878 356.690 L 204.783 355.589 L 204.662 354.492 L 204.513 353.397 L 204.337 352.307 L 204.135 351.221 L 203.907 350.140 L 203.651 349.066 L 203.370 347.998 L 203.062 346.937 L 202.729 345.884 L 202.369 344.840 L 201.985 343.805 L 201.575 342.779 L 201.139 341.764 L 200.680 340.760 L 200.195 339.767 L 199.686 338.787 L 199.154 337.820 L 198.598 336.865 L 198.018 335.925 L 197.416 334.999 L 196.791 334.089 L 196.144 333.194 L 195.476 332.315 L 194.785 331.452 L 194.074 330.607 L 193.343 329.780 L 192.591 328.971 L 191.820 328.180 L 191.029 327.409 L 190.220 326.657 L 189.393 325.926 L 188.548 325.215 L 187.685 324.524 L 186.806 323.856 L 185.911 323.209 L 185.001 322.584 L 184.075 321.982 L 183.135 321.402 L 182.180 320.846 L 181.213 320.314 L 180.233 319.805 L 179.240 319.320 L 178.236 318.861 L 177.221 318.425 L 176.195 318.015 L 175.160 317.631 L 174.116 317.271 L 173.063 316.938 L 172.002 316.630 L 170.934 316.349 L 169.860 316.093 L 168.779 315.865 L 167.693 315.663 L 166.603 315.487 L 165.508 315.338 L 164.411 315.217 L 163.310 315.122 L 162.208 315.054 L 161.104 315.014 L 160.000 315.000 L 158.896 315.014 L 157.792 315.054 L 156.690 315.122 L 155.589 315.217 L 154.492 315.338 L 153.397 315.487 L 152.307 315.663 L 151.221 315.865 L 150.140 316.093 L 149.066 316.349 L 147.998 316.630 L 146.937 316.938 L 145.884 317.271 L 144.840 317.631 L 143.805 318.015 L 142.779 318.425 L 141.764 318.861 L 140.760 319.320 L 139.767 319.805 L 138.787 320.314 L 137.820 320.846 L 136.865 321.402 L 135.925 321.982 L 134.999 322.584 L 134.089 323.209 L 133.194 323.856 L 132.315 324.524 L 131.452 325.215 L 130.607 325.926 L 129.780 326.657 L 128.971 327.409 L 128.180 328.180 L 127.409 328.971 L 126.657 329.780 L 125.926 330.607 L 125.215 331.452 L 124.524 332.315 L 123.856 333.194 L 123.209 334.089 L 122.584 334.999 L 121.982 335.925 L 121.402 336.865 L 120.846 337.820 L 120.314 338.787 L 119.805 339.767 L 119.320 340.760 L 118.861 341.764 L 118.425 342.779 L 118.015 343.805 L 117.631 344.840 L 117.271 345.884 L 116.938 346.937 L 116.630 347.998 L 116.349 349.066 L 116.093 350.140 L 115.865 351.221 L 115.663 352.307 L 115.487 353.397 L 115.338 354.492 L 115.217 355.589 L 115.122 356.690 L 115.054 357.792 L 115.014 358.896 L 115.000 360.000 L 115.000 630.600 L 115.000 630.800 Z" fill="black" fill-rule="evenodd"/>
</svg>
