<svg xmlns="http://www.w3.org/2000/svg" viewBox="0 0 700.000 1000" width="700.000" height="1000">
  <path d="M 394.986 89.216 L 394.946 88.112 L 394.878 87.010 L 394.783 85.909 L 394.662 84.812 L 394.513 83.717 L 394.337 82.627 L 394.135 81.541 L 393.907 80.460 L 393.651 79.386 L 393.370 78.318 L 393.062 77.257 L 392.729 76.204 L 392.369 75.160 L 391.985 74.125 L 391.575 73.099 L 391.139 72.084 L 390.680 71.080 L 390.437 70.584 L 390.195 70.087 L 389.686 69.107 L 389.154 68.140 L 388.598 67.185 L 388.018 66.245 L 387.416 65.319 L 386.791 64.409 L 386.144 63.514 L 385.476 62.635 L 384.785 61.772 L 384.074 60.927 L 383.709 60.514 L 383.343 60.100 L 382.591 59.291 L 381.820 58.500 L 381.029 57.729 L 380.220 56.977 L 379.806 56.611 L 379.393 56.246 L 378.548 55.535 L 377.685 54.844 L 376.806 54.176 L 375.911 53.529 L 375.001 52.904 L 374.075 52.302 L 373.135 51.722 L 372.180 51.166 L 371.213 50.634 L 370.233 50.125 L 369.240 49.640 L 368.236 49.181 L 367.221 48.745 L 366.195 48.335 L 365.160 47.951 L 364.754 47.811 L 364.116 47.591 L 363.063 47.258 L 362.002 46.950 L 360.934 46.669 L 359.860 46.413 L 358.779 46.185 L 357.693 45.983 L 356.603 45.807 L 355.508 45.658 L 354.411 45.537 L 353.310 45.442 L 352.208 45.374 L 351.104 45.334 L 350.000 45.320 L 238.000 45.320 L 236.896 45.334 L 235.792 45.374 L 234.690 45.442 L 233.589 45.537 L 232.492 45.658 L 231.397 45.807 L 230.307 45.983 L 229.221 46.185 L 228.140 46.413 L 227.066 46.669 L 225.998 46.950 L 224.937 47.258 L 223.884 47.591 L 222.840 47.951 L 221.805 48.335 L 220.779 48.745 L 219.764 49.181 L 218.760 49.640 L 217.767 50.125 L 216.787 50.634 L 215.820 51.166 L 214.865 51.722 L 213.925 52.302 L 212.999 52.904 L 212.089 53.529 L 211.194 54.176 L 210.315 54.844 L 209.452 55.535 L 208.607 56.246 L 207.780 56.977 L 206.971 57.729 L 206.180 58.500 L 205.409 59.291 L 204.657 60.100 L 203.926 60.927 L 203.215 61.772 L 202.524 62.635 L 201.856 63.514 L 201.209 64.409 L 200.584 65.319 L 199.982 66.245 L 199.402 67.185 L 198.846 68.140 L 198.314 69.107 L 197.805 70.087 L 197.320 71.080 L 196.861 72.084 L 196.425 73.099 L 196.015 74.125 L 195.631 75.160 L 195.271 76.204 L 194.938 77.257 L 194.630 78.318 L 194.349 79.386 L 194.093 80.460 L 193.865 81.541 L 193.663 82.627 L 193.487 83.717 L 193.338 84.812 L 193.217 85.909 L 193.122 87.010 L 193.054 88.112 L 193.014 89.216 L 193.000 90.320 L 193.014 91.424 L 193.054 92.528 L 193.122 93.630 L 193.217 94.731 L 193.338 95.828 L 193.487 96.923 L 193.663 98.013 L 193.865 99.099 L 194.093 100.180 L 194.349 101.254 L 194.630 102.322 L 194.938 103.383 L 195.271 104.436 L 195.631 105.480 L 196.015 106.515 L 196.425 107.541 L 196.861 108.556 L 197.320 109.560 L 197.805 110.553 L 198.314 111.533 L 198.846 112.500 L 199.402 113.455 L 199.982 114.395 L 200.584 115.321 L 201.209 116.231 L 201.856 117.126 L 202.524 118.005 L 203.215 118.868 L 203.926 119.713 L 204.657 120.540 L 205.409 121.349 L 206.180 122.140 L 206.971 122.911 L 207.780 123.663 L 208.607 124.394 L 209.452 125.105 L 210.315 125.796 L 211.194 126.464 L 212.089 127.111 L 212.999 127.736 L 213.925 128.338 L 214.865 128.918 L 215.820 129.474 L 216.787 130.006 L 217.767 130.515 L 218.760 131.000 L 219.764 131.459 L 220.779 131.895 L 221.805 132.305 L 222.840 132.689 L 223.884 133.049 L 224.937 133.382 L 225.998 133.690 L 227.066 133.971 L 228.140 134.227 L 229.221 134.455 L 230.307 134.657 L 231.397 134.833 L 232.492 134.982 L 233.589 135.103 L 234.690 135.198 L 235.792 135.266 L 236.896 135.306 L 238.000 135.320 L 305.000 135.320 L 305.000 684.680 L 238.000 684.680 L 236.896 684.694 L 235.792 684.734 L 234.690 684.802 L 233.589 684.897 L 232.492 685.018 L 231.397 685.167 L 230.307 685.343 L 229.221 685.545 L 228.140 685.773 L 227.066 686.029 L 225.998 686.310 L 224.937 686.618 L 223.884 686.951 L 222.840 687.311 L 221.805 687.695 L 220.779 688.105 L 219.764 688.541 L 218.760 689.000 L 217.767 689.485 L 216.787 689.994 L 215.820 690.526 L 214.865 691.082 L 213.925 691.662 L 212.999 692.264 L 212.089 692.889 L 211.194 693.536 L 210.315 694.204 L 209.452 694.895 L 208.607 695.606 L 207.780 696.337 L 206.971 697.089 L 206.180 697.860 L 205.409 698.651 L 204.657 699.460 L 203.926 700.287 L 203.215 701.132 L 202.524 701.995 L 201.856 702.874 L 201.209 703.769 L 200.584 704.679 L 199.982 705.605 L 199.402 706.545 L 198.846 707.500 L 198.314 708.467 L 197.805 709.447 L 197.320 710.440 L 196.861 711.444 L 196.425 712.459 L 196.015 713.485 L 195.631 714.520 L 195.271 715.564 L 194.938 716.617 L 194.630 717.678 L 194.349 718.746 L 194.093 719.820 L 193.865 720.901 L 193.663 721.987 L 193.487 723.077 L 193.338 724.172 L 193.217 725.269 L 193.122 726.370 L 193.054 727.472 L 193.014 728.576 L 193.000 729.680 L 193.014 730.784 L 193.054 731.888 L 193.122 732.990 L 193.217 734.091 L 193.338 735.188 L 193.487 736.283 L 193.663 737.373 L 193.865 738.459 L 194.093 739.540 L 194.349 740.614 L 194.630 741.682 L 194.938 742.743 L 195.271 743.796 L 195.631 744.840 L 196.015 745.875 L 196.425 746.901 L 196.861 747.916 L 197.320 748.920 L 197.805 749.913 L 198.314 750.893 L 198.846 751.860 L 199.402 752.815 L 199.982 753.755 L 200.584 754.681 L 201.209 755.591 L 201.856 756.486 L 202.524 757.365 L 203.215 758.228 L 203.926 759.073 L 204.657 759.900 L 205.409 760.709 L 206.180 761.500 L 206.971 762.271 L 207.780 763.023 L 208.607 763.754 L 209.452 764.465 L 210.315 765.156 L 211.194 765.824 L 212.089 766.471 L 212.999 767.096 L 213.925 767.698 L 214.865 768.278 L 215.820 768.834 L 216.787 769.366 L 217.767 769.875 L 218.760 770.360 L 219.764 770.819 L 220.779 771.255 L 221.805 771.665 L 222.840 772.049 L 223.884 772.409 L 224.937 772.742 L 225.998 773.050 L 227.066 773.331 L 228.140 773.587 L 229.221 773.815 L 230.307 774.017 L 231.397 774.193 L 232.492 774.342 L 233.589 774.463 L 234.690 774.558 L 235.792 774.626 L 236.896 774.666 L 238.000 774.680 L 350.000 774.680 L 462.000 774.680 L 463.104 774.666 L 464.208 774.626 L 465.310 774.558 L 466.411 774.463 L 467.508 774.342 L 468.603 774.193 L 469.693 774.017 L 470.779 773.815 L 471.860 773.587 L 472.934 773.331 L 474.002 773.050 L 475.063 772.742 L 476.116 772.409 L 477.160 772.049 L 478.195 771.665 L 479.221 771.255 L 480.236 770.819 L 481.240 770.360 L 482.233 769.875 L 483.213 769.366 L 484.180 768.834 L 485.135 768.278 L 486.075 767.698 L 487.001 767.096 L 487.911 766.471 L 488.806 765.824 L 489.685 765.156 L 490.548 764.465 L 491.393 763.754 L 492.220 763.023 L 493.029 762.271 L 493.820 761.500 L 494.591 760.709 L 495.343 759.900 L 496.074 759.073 L 496.785 758.228 L 497.476 757.365 L 498.144 756.486 L 498.791 755.591 L 499.416 754.681 L 500.018 753.755 L 500.598 752.815 L 501.154 751.860 L 501.686 750.893 L 502.195 749.913 L 502.680 748.920 L 503.139 747.916 L 503.575 746.901 L 503.985 745.875 L 504.369 744.840 L 504.729 743.796 L 505.062 742.743 L 505.370 741.682 L 505.651 740.614 L 505.907 739.540 L 506.135 738.459 L 506.337 737.373 L 506.513 736.283 L 506.662 735.188 L 506.783 734.091 L 506.878 732.990 L 506.946 731.888 L 506.986 730.784 L 507.000 729.680 L 506.986 728.576 L 506.946 727.472 L 506.878 726.370 L 506.783 725.269 L 506.662 724.172 L 506.513 723.077 L 506.337 721.987 L 506.135 720.901 L 505.907 719.820 L 505.651 718.746 L 505.370 717.678 L 505.062 716.617 L 504.729 715.564 L 504.369 714.520 L 503.985 713.485 L 503.575 712.459 L 503.139 711.444 L 502.680 710.440 L 502.195 709.447 L 501.686 708.467 L 501.154 707.500 L 500.598 706.545 L 500.018 705.605 L 499.416 704.679 L 498.791 703.769 L 498.144 702.874 L 497.476 701.995 L 496.785 701.132 L 496.074 700.287 L 495.343 699.460 L 494.591 698.651 L 493.820 697.860 L 493.029 697.089 L 492.220 696.337 L 491.393 695.606 L 490.548 694.895 L 489.685 694.204 L 488.806 693.536 L 487.911 692.889 L 487.001 692.264 L 486.075 691.662 L 485.135 691.082 L 484.180 690.526 L 483.213 689.994 L 482.233 689.485 L 481.240 689.000 L 480.236 688.541 L 479.221 688.105 L 478.195 687.695 L 477.160 687.311 L 476.116 686.951 L 475.063 686.618 L 474.002 686.310 L 472.934 686.029 L 471.860 685.773 L 470.779 685.545 L 469.693 685.343 L 468.603 685.167 L 467.508 685.018 L 466.411 684.897 L 465.310 684.802 L 464.208 684.734 L 463.104 684.694 L 462.000 684.680 L 395.000 684.680 L 395.000 90.320 L 394.986 89.216 Z" fill="black" fill-rule="evenodd"/>
</svg>
