<svg xmlns="http://www.w3.org/2000/svg" viewBox="0 0 700.000 1000" width="700.000" height="1000">
  <path d="M 231.253 45.332 L 230.105 45.362 L 229.433 45.387 L 228.289 45.446 L 227.617 45.488 L 226.478 45.576 L 225.806 45.636 L 224.674 45.751 L 224.003 45.829 L 222.878 45.972 L 222.208 46.066 L 221.094 46.237 L 220.424 46.349 L 219.321 46.546 L 218.652 46.674 L 217.563 46.897 L 216.895 47.043 L 215.821 47.290 L 215.153 47.453 L 214.096 47.723 L 213.429 47.903 L 212.389 48.196 L 211.723 48.393 L 210.702 48.708 L 210.037 48.921 L 209.035 49.256 L 208.371 49.486 L 207.391 49.839 L 206.728 50.087 L 205.769 50.458 L 205.107 50.722 L 204.170 51.109 L 203.509 51.390 L 202.595 51.792 L 201.936 52.090 L 201.044 52.505 L 200.387 52.820 L 199.518 53.248 L 198.863 53.580 L 198.018 54.018 L 197.364 54.367 L 196.542 54.815 L 195.890 55.180 L 195.092 55.638 L 194.441 56.020 L 193.667 56.485 L 193.018 56.883 L 192.267 57.355 L 191.620 57.770 L 190.892 58.247 L 190.248 58.678 L 189.542 59.160 L 188.900 59.608 L 188.217 60.094 L 187.577 60.558 L 186.916 61.046 L 186.279 61.526 L 185.640 62.017 L 185.005 62.514 L 184.387 63.006 L 183.754 63.519 L 183.157 64.011 L 182.527 64.540 L 181.950 65.033 L 181.323 65.578 L 180.765 66.070 L 180.141 66.631 L 179.603 67.122 L 178.982 67.699 L 178.462 68.189 L 177.843 68.781 L 177.342 69.269 L 176.727 69.877 L 176.243 70.363 L 175.630 70.986 L 175.164 71.469 L 174.554 72.109 L 174.104 72.588 L 173.498 73.243 L 173.064 73.719 L 172.461 74.390 L 172.042 74.862 L 171.443 75.548 L 171.039 76.016 L 170.443 76.717 L 170.053 77.182 L 169.461 77.898 L 169.085 78.359 L 168.497 79.090 L 168.134 79.546 L 167.549 80.292 L 167.200 80.744 L 166.619 81.505 L 166.282 81.952 L 165.704 82.728 L 165.379 83.170 L 164.806 83.960 L 164.492 84.398 L 163.923 85.203 L 163.621 85.636 L 163.055 86.456 L 162.764 86.884 L 162.202 87.718 L 161.921 88.141 L 161.364 88.989 L 161.092 89.407 L 160.540 90.270 L 160.278 90.683 L 159.729 91.560 L 159.477 91.968 L 158.933 92.859 L 158.689 93.263 L 158.149 94.167 L 157.914 94.566 L 157.379 95.484 L 157.152 95.879 L 156.621 96.810 L 156.402 97.200 L 155.876 98.145 L 155.664 98.530 L 155.144 99.489 L 154.939 99.869 L 154.423 100.841 L 154.226 101.217 L 153.714 102.202 L 153.524 102.573 L 153.017 103.571 L 152.833 103.938 L 152.332 104.949 L 152.154 105.311 L 151.658 106.335 L 151.486 106.693 L 150.995 107.729 L 150.829 108.084 L 150.343 109.132 L 150.183 109.482 L 149.702 110.543 L 149.547 110.889 L 149.072 111.962 L 148.922 112.305 L 148.453 113.390 L 148.308 113.728 L 147.843 114.825 L 147.703 115.160 L 147.245 116.268 L 147.109 116.599 L 146.656 117.719 L 146.525 118.047 L 146.078 119.178 L 145.951 119.502 L 145.509 120.645 L 145.387 120.965 L 144.951 122.120 L 144.832 122.437 L 144.402 123.602 L 144.288 123.916 L 143.863 125.092 L 143.753 125.402 L 143.334 126.589 L 143.227 126.896 L 142.815 128.094 L 142.711 128.398 L 142.304 129.606 L 142.204 129.907 L 141.804 131.125 L 141.707 131.423 L 141.313 132.652 L 141.219 132.947 L 140.831 134.185 L 140.741 134.477 L 140.359 135.726 L 140.271 136.015 L 139.895 137.273 L 139.811 137.560 L 139.441 138.828 L 139.360 139.112 L 138.997 140.389 L 138.918 140.671 L 138.561 141.957 L 138.485 142.236 L 138.134 143.531 L 138.061 143.808 L 137.717 145.112 L 137.645 145.386 L 137.308 146.699 L 137.239 146.971 L 136.909 148.292 L 136.842 148.562 L 136.518 149.892 L 136.454 150.160 L 136.137 151.497 L 136.075 151.763 L 135.764 153.109 L 135.704 153.373 L 135.400 154.726 L 135.343 154.988 L 135.046 156.349 L 134.990 156.610 L 134.700 157.978 L 134.646 158.236 L 134.362 159.612 L 134.310 159.869 L 134.034 161.252 L 133.984 161.507 L 133.715 162.897 L 133.666 163.150 L 133.404 164.546 L 133.358 164.798 L 133.102 166.201 L 133.057 166.451 L 132.809 167.861 L 132.766 168.109 L 132.525 169.526 L 132.483 169.773 L 132.249 171.195 L 132.209 171.440 L 131.982 172.868 L 131.944 173.113 L 131.724 174.546 L 131.688 174.789 L 131.475 176.228 L 131.440 176.470 L 131.235 177.915 L 131.201 178.155 L 131.003 179.605 L 130.971 179.844 L 130.780 181.299 L 130.749 181.537 L 130.566 182.997 L 130.536 183.234 L 130.360 184.698 L 130.332 184.934 L 130.163 186.403 L 130.137 186.638 L 129.975 188.111 L 129.950 188.345 L 129.796 189.822 L 129.772 190.055 L 129.625 191.536 L 129.603 191.769 L 129.463 193.253 L 129.442 193.485 L 129.310 194.972 L 129.290 195.204 L 129.166 196.695 L 129.147 196.925 L 129.030 198.419 L 129.012 198.649 L 128.903 200.146 L 128.887 200.375 L 128.784 201.875 L 128.769 202.103 L 128.675 203.606 L 128.661 203.834 L 128.574 205.338 L 128.561 205.566 L 128.482 207.072 L 128.470 207.300 L 128.398 208.808 L 128.388 209.035 L 128.324 210.545 L 128.315 210.772 L 128.258 212.284 L 128.250 212.510 L 128.200 214.023 L 128.194 214.249 L 128.152 215.763 L 128.146 215.989 L 128.112 217.504 L 128.108 217.730 L 128.081 219.246 L 128.078 219.471 L 128.059 220.988 L 128.056 221.213 L 128.045 222.731 L 128.044 222.956 L 128.040 224.473 L 128.051 225.577 L 128.089 226.681 L 128.154 227.784 L 128.246 228.884 L 128.365 229.982 L 128.511 231.077 L 128.683 232.168 L 128.883 233.254 L 129.109 234.335 L 129.361 235.410 L 129.640 236.479 L 129.945 237.541 L 130.276 238.594 L 130.633 239.640 L 131.015 240.676 L 131.422 241.702 L 131.855 242.718 L 132.312 243.724 L 132.794 244.717 L 133.301 245.699 L 133.831 246.668 L 134.384 247.624 L 134.961 248.565 L 135.561 249.493 L 136.184 250.405 L 136.829 251.302 L 137.495 252.182 L 138.183 253.046 L 138.892 253.893 L 139.622 254.722 L 140.371 255.533 L 141.141 256.326 L 141.929 257.099 L 142.737 257.853 L 143.562 258.586 L 144.405 259.300 L 145.266 259.992 L 146.143 260.663 L 147.037 261.312 L 147.946 261.939 L 148.870 262.544 L 149.809 263.125 L 150.762 263.684 L 151.728 264.219 L 152.707 264.730 L 153.698 265.217 L 154.701 265.679 L 155.715 266.117 L 156.740 266.530 L 157.774 266.917 L 158.817 267.279 L 159.869 267.615 L 160.929 267.925 L 161.997 268.210 L 163.071 268.467 L 164.151 268.699 L 165.236 268.904 L 166.326 269.082 L 167.420 269.233 L 168.517 269.358 L 169.617 269.455 L 170.719 269.526 L 171.823 269.569 L 172.927 269.585 L 174.032 269.575 L 175.136 269.537 L 176.238 269.472 L 177.339 269.380 L 178.437 269.261 L 179.531 269.115 L 180.622 268.942 L 181.709 268.743 L 182.790 268.517 L 183.865 268.264 L 184.934 267.985 L 185.995 267.680 L 187.049 267.350 L 188.094 266.993 L 189.130 266.611 L 190.157 266.203 L 191.173 265.771 L 192.178 265.313 L 193.172 264.831 L 194.153 264.325 L 195.122 263.795 L 196.078 263.241 L 197.020 262.664 L 197.947 262.064 L 198.859 261.442 L 199.756 260.797 L 200.637 260.130 L 201.501 259.442 L 202.347 258.733 L 203.177 258.004 L 203.988 257.254 L 204.780 256.485 L 205.553 255.696 L 206.307 254.889 L 207.041 254.064 L 207.754 253.220 L 208.446 252.360 L 209.117 251.482 L 209.766 250.589 L 210.393 249.680 L 210.998 248.756 L 211.580 247.817 L 212.138 246.864 L 212.673 245.898 L 213.184 244.919 L 213.671 243.927 L 214.134 242.924 L 214.571 241.910 L 214.984 240.886 L 215.371 239.852 L 215.733 238.808 L 216.069 237.756 L 216.380 236.696 L 216.664 235.629 L 216.922 234.555 L 217.153 233.475 L 217.358 232.390 L 217.536 231.300 L 217.688 230.206 L 217.812 229.108 L 217.910 228.008 L 217.980 226.906 L 218.024 225.803 L 218.040 224.698 L 218.043 223.294 L 218.053 222.002 L 218.069 220.710 L 218.092 219.420 L 218.121 218.130 L 218.156 216.842 L 218.198 215.554 L 218.247 214.269 L 218.302 212.985 L 218.363 211.704 L 218.430 210.425 L 218.504 209.148 L 218.584 207.874 L 218.671 206.604 L 218.764 205.336 L 218.863 204.072 L 218.968 202.812 L 219.079 201.556 L 219.197 200.304 L 219.321 199.056 L 219.451 197.813 L 219.587 196.575 L 219.728 195.343 L 219.876 194.115 L 220.030 192.894 L 220.190 191.678 L 220.355 190.468 L 220.526 189.264 L 220.703 188.067 L 220.886 186.877 L 221.074 185.694 L 221.267 184.518 L 221.466 183.350 L 221.671 182.189 L 221.881 181.036 L 222.096 179.892 L 222.316 178.755 L 222.541 177.628 L 222.771 176.509 L 223.006 175.400 L 223.246 174.300 L 223.491 173.209 L 223.740 172.129 L 223.994 171.058 L 224.253 169.997 L 224.515 168.948 L 224.782 167.908 L 225.053 166.880 L 225.328 165.863 L 225.607 164.858 L 225.889 163.864 L 226.175 162.882 L 226.465 161.912 L 226.758 160.955 L 227.054 160.010 L 227.353 159.078 L 227.655 158.159 L 227.960 157.254 L 228.267 156.362 L 228.577 155.483 L 228.889 154.619 L 229.203 153.769 L 229.518 152.933 L 229.836 152.112 L 230.155 151.306 L 230.475 150.514 L 230.796 149.739 L 231.117 148.978 L 231.440 148.234 L 231.762 147.505 L 232.085 146.793 L 232.407 146.097 L 232.729 145.418 L 233.051 144.755 L 233.371 144.109 L 233.690 143.481 L 234.007 142.870 L 234.322 142.277 L 234.635 141.701 L 234.945 141.144 L 235.252 140.604 L 235.556 140.083 L 235.856 139.580 L 236.151 139.096 L 236.443 138.631 L 236.729 138.184 L 237.010 137.757 L 237.284 137.348 L 237.553 136.959 L 237.815 136.589 L 238.069 136.239 L 238.315 135.907 L 238.554 135.596 L 238.770 135.320 L 371.083 135.320 L 372.675 135.331 L 374.115 135.360 L 375.554 135.408 L 376.992 135.476 L 378.429 135.564 L 379.866 135.671 L 381.301 135.797 L 382.734 135.942 L 384.165 136.107 L 385.595 136.291 L 387.022 136.495 L 388.446 136.717 L 389.868 136.959 L 391.286 137.220 L 392.702 137.501 L 394.114 137.800 L 395.522 138.119 L 396.926 138.456 L 398.327 138.813 L 399.722 139.188 L 401.114 139.583 L 402.500 139.996 L 403.881 140.428 L 405.257 140.879 L 406.627 141.348 L 407.992 141.836 L 409.351 142.342 L 410.703 142.867 L 412.049 143.410 L 413.388 143.972 L 414.721 144.551 L 416.046 145.149 L 417.364 145.765 L 418.674 146.399 L 419.977 147.050 L 421.271 147.720 L 422.558 148.407 L 423.836 149.111 L 425.105 149.833 L 426.365 150.573 L 427.616 151.329 L 428.858 152.103 L 430.090 152.893 L 431.313 153.701 L 432.525 154.525 L 433.728 155.366 L 434.920 156.223 L 436.101 157.097 L 437.272 157.987 L 438.431 158.893 L 439.580 159.815 L 440.716 160.753 L 441.842 161.706 L 442.955 162.675 L 444.056 163.659 L 445.145 164.659 L 446.222 165.673 L 447.286 166.702 L 448.337 167.746 L 449.375 168.805 L 450.400 169.878 L 451.411 170.965 L 452.409 172.066 L 453.393 173.181 L 454.363 174.309 L 455.319 175.451 L 456.261 176.606 L 457.188 177.775 L 458.100 178.956 L 458.998 180.150 L 459.880 181.356 L 460.747 182.574 L 461.599 183.805 L 462.436 185.048 L 463.257 186.302 L 464.061 187.567 L 464.850 188.844 L 465.623 190.132 L 466.380 191.430 L 467.120 192.739 L 467.843 194.059 L 468.550 195.388 L 469.240 196.728 L 469.913 198.077 L 470.569 199.435 L 471.207 200.802 L 471.828 202.179 L 472.432 203.564 L 473.018 204.957 L 473.586 206.359 L 474.137 207.769 L 474.669 209.186 L 475.183 210.611 L 475.680 212.042 L 476.158 213.481 L 476.617 214.927 L 477.058 216.379 L 477.481 217.837 L 477.885 219.300 L 478.270 220.770 L 478.637 222.245 L 478.984 223.725 L 479.313 225.209 L 479.623 226.699 L 479.914 228.192 L 480.185 229.690 L 480.438 231.191 L 480.671 232.696 L 480.885 234.204 L 481.079 235.715 L 481.255 237.228 L 481.410 238.744 L 481.547 240.262 L 481.664 241.782 L 481.761 243.303 L 481.840 244.825 L 481.898 246.349 L 481.937 247.873 L 481.957 249.398 L 481.957 250.922 L 481.937 252.447 L 481.898 253.971 L 481.840 255.495 L 481.761 257.017 L 481.664 258.538 L 481.547 260.058 L 481.410 261.576 L 481.255 263.092 L 481.079 264.605 L 480.885 266.116 L 480.671 267.624 L 480.438 269.129 L 480.185 270.630 L 479.914 272.128 L 479.623 273.621 L 479.313 275.111 L 478.984 276.595 L 478.637 278.075 L 478.270 279.550 L 477.885 281.020 L 477.481 282.483 L 477.058 283.941 L 476.617 285.393 L 476.158 286.839 L 475.680 288.278 L 475.183 289.709 L 474.669 291.134 L 474.137 292.551 L 473.586 293.961 L 473.018 295.363 L 472.432 296.756 L 471.828 298.141 L 471.207 299.518 L 470.569 300.885 L 469.913 302.243 L 469.240 303.592 L 468.550 304.932 L 467.843 306.261 L 467.120 307.581 L 466.380 308.890 L 465.623 310.188 L 464.850 311.476 L 464.061 312.753 L 463.257 314.018 L 462.436 315.272 L 461.599 316.515 L 460.747 317.746 L 459.880 318.964 L 458.998 320.170 L 458.100 321.364 L 457.188 322.545 L 456.261 323.714 L 455.319 324.869 L 454.363 326.011 L 453.393 327.139 L 452.409 328.254 L 451.411 329.355 L 450.400 330.442 L 449.375 331.515 L 448.337 332.574 L 447.286 333.618 L 446.222 334.647 L 445.145 335.661 L 444.056 336.661 L 442.955 337.645 L 441.842 338.614 L 440.716 339.567 L 439.580 340.505 L 438.431 341.427 L 437.272 342.333 L 436.101 343.223 L 434.920 344.097 L 433.728 344.954 L 432.525 345.795 L 431.313 346.619 L 430.090 347.427 L 428.858 348.217 L 427.616 348.991 L 426.365 349.747 L 425.105 350.487 L 423.836 351.209 L 422.558 351.913 L 421.271 352.600 L 419.977 353.270 L 418.674 353.921 L 417.364 354.555 L 416.046 355.171 L 414.721 355.769 L 413.388 356.348 L 412.049 356.910 L 410.703 357.453 L 409.351 357.978 L 407.992 358.484 L 406.627 358.972 L 405.257 359.441 L 403.881 359.892 L 402.500 360.324 L 401.114 360.737 L 399.722 361.132 L 398.327 361.507 L 396.926 361.864 L 395.522 362.201 L 394.114 362.520 L 392.702 362.819 L 391.286 363.100 L 389.868 363.361 L 388.446 363.603 L 387.022 363.825 L 385.595 364.029 L 384.165 364.213 L 382.734 364.378 L 381.301 364.523 L 379.866 364.649 L 378.429 364.756 L 376.992 364.844 L 375.554 364.912 L 374.115 364.960 L 372.675 364.989 L 371.083 365.000 L 252.318 365.000 L 251.214 365.014 L 250.110 365.054 L 249.008 365.122 L 247.907 365.217 L 246.810 365.338 L 245.715 365.487 L 244.625 365.663 L 243.539 365.865 L 242.459 366.093 L 241.384 366.349 L 240.316 366.630 L 239.255 366.938 L 238.202 367.271 L 237.158 367.631 L 236.123 368.015 L 235.097 368.425 L 234.082 368.861 L 233.078 369.320 L 232.086 369.805 L 231.105 370.314 L 230.138 370.846 L 229.183 371.402 L 228.243 371.982 L 227.317 372.584 L 226.407 373.209 L 225.512 373.856 L 224.633 374.524 L 223.770 375.215 L 222.925 375.926 L 222.098 376.657 L 221.289 377.409 L 220.498 378.180 L 219.727 378.971 L 218.975 379.780 L 218.244 380.607 L 217.533 381.452 L 216.842 382.315 L 216.174 383.194 L 215.527 384.089 L 214.902 384.999 L 214.300 385.925 L 213.720 386.865 L 213.164 387.820 L 212.632 388.787 L 212.123 389.767 L 211.639 390.760 L 211.179 391.764 L 210.744 392.779 L 210.333 393.805 L 209.949 394.840 L 209.589 395.884 L 209.256 396.937 L 208.948 397.998 L 208.667 399.066 L 208.411 400.140 L 208.183 401.221 L 207.981 402.307 L 207.805 403.397 L 207.657 404.492 L 207.535 405.589 L 207.440 406.690 L 207.372 407.792 L 207.332 408.896 L 207.318 410.000 L 207.332 411.104 L 207.372 412.208 L 207.440 413.310 L 207.535 414.411 L 207.657 415.508 L 207.805 416.603 L 207.981 417.693 L 208.183 418.779 L 208.411 419.860 L 208.667 420.934 L 208.948 422.002 L 209.256 423.063 L 209.589 424.116 L 209.949 425.160 L 210.333 426.195 L 210.744 427.221 L 211.179 428.236 L 211.639 429.240 L 212.123 430.233 L 212.632 431.213 L 213.164 432.180 L 213.720 433.135 L 214.300 434.075 L 214.902 435.001 L 215.527 435.911 L 216.174 436.806 L 216.842 437.685 L 217.533 438.548 L 218.244 439.393 L 218.975 440.220 L 219.727 441.029 L 220.498 441.820 L 221.289 442.591 L 222.098 443.343 L 222.925 444.074 L 223.770 444.785 L 224.633 445.476 L 225.512 446.144 L 226.407 446.791 L 227.317 447.416 L 228.243 448.018 L 229.183 448.598 L 230.138 449.154 L 231.105 449.686 L 232.086 450.195 L 233.078 450.680 L 234.082 451.139 L 235.097 451.575 L 236.123 451.985 L 237.158 452.369 L 238.202 452.729 L 239.255 453.062 L 240.316 453.370 L 241.384 453.651 L 242.459 453.907 L 243.539 454.135 L 244.625 454.337 L 245.715 454.513 L 246.810 454.662 L 247.907 454.783 L 249.008 454.878 L 250.110 454.946 L 251.214 454.986 L 252.318 455.000 L 371.083 455.000 L 372.675 455.011 L 374.115 455.040 L 375.554 455.088 L 376.992 455.156 L 378.429 455.244 L 379.866 455.351 L 381.301 455.477 L 382.734 455.622 L 384.165 455.787 L 385.595 455.971 L 387.022 456.175 L 388.446 456.397 L 389.868 456.639 L 391.286 456.900 L 392.702 457.181 L 394.114 457.480 L 395.522 457.799 L 396.926 458.136 L 398.327 458.493 L 399.722 458.868 L 401.114 459.263 L 402.500 459.676 L 403.881 460.108 L 405.257 460.559 L 406.627 461.028 L 407.992 461.516 L 409.351 462.022 L 410.703 462.547 L 412.049 463.090 L 413.388 463.652 L 414.721 464.231 L 416.046 464.829 L 417.364 465.445 L 418.674 466.079 L 419.977 466.730 L 421.271 467.400 L 422.558 468.087 L 423.836 468.791 L 425.105 469.513 L 426.365 470.253 L 427.616 471.009 L 428.858 471.783 L 430.090 472.573 L 431.313 473.381 L 432.525 474.205 L 433.728 475.046 L 434.920 475.903 L 436.101 476.777 L 437.272 477.667 L 438.431 478.573 L 439.580 479.495 L 440.716 480.433 L 441.842 481.386 L 442.955 482.355 L 444.056 483.339 L 445.145 484.339 L 446.222 485.353 L 447.286 486.382 L 448.337 487.426 L 449.375 488.485 L 450.400 489.558 L 451.411 490.645 L 452.409 491.746 L 453.393 492.861 L 454.363 493.989 L 455.319 495.131 L 456.261 496.286 L 457.188 497.455 L 458.100 498.636 L 458.998 499.830 L 459.880 501.036 L 460.747 502.254 L 461.599 503.485 L 462.436 504.728 L 463.257 505.982 L 464.061 507.247 L 464.850 508.524 L 465.623 509.812 L 466.380 511.110 L 467.120 512.419 L 467.843 513.739 L 468.550 515.068 L 469.240 516.408 L 469.913 517.757 L 470.569 519.115 L 471.207 520.482 L 471.828 521.859 L 472.432 523.244 L 473.018 524.637 L 473.586 526.039 L 474.137 527.449 L 474.669 528.866 L 475.183 530.291 L 475.680 531.722 L 476.158 533.161 L 476.617 534.607 L 477.058 536.059 L 477.481 537.517 L 477.885 538.980 L 478.270 540.450 L 478.637 541.925 L 478.984 543.405 L 479.313 544.889 L 479.623 546.379 L 479.914 547.872 L 480.185 549.370 L 480.438 550.871 L 480.671 552.376 L 480.885 553.884 L 481.079 555.395 L 481.255 556.908 L 481.410 558.424 L 481.547 559.942 L 481.664 561.462 L 481.761 562.983 L 481.840 564.505 L 481.898 566.029 L 481.937 567.553 L 481.957 569.078 L 481.957 570.602 L 481.937 572.127 L 481.898 573.651 L 481.840 575.175 L 481.761 576.697 L 481.664 578.218 L 481.547 579.738 L 481.410 581.256 L 481.255 582.772 L 481.079 584.285 L 480.885 585.796 L 480.671 587.304 L 480.438 588.809 L 480.185 590.310 L 479.914 591.808 L 479.623 593.301 L 479.313 594.791 L 478.984 596.275 L 478.637 597.755 L 478.270 599.230 L 477.885 600.700 L 477.481 602.163 L 477.058 603.621 L 476.617 605.073 L 476.158 606.519 L 475.680 607.958 L 475.183 609.389 L 474.669 610.814 L 474.137 612.231 L 473.586 613.641 L 473.018 615.043 L 472.432 616.436 L 471.828 617.821 L 471.207 619.198 L 470.569 620.565 L 469.913 621.923 L 469.240 623.272 L 468.550 624.612 L 467.843 625.941 L 467.120 627.261 L 466.380 628.570 L 465.623 629.868 L 464.850 631.156 L 464.061 632.433 L 463.257 633.698 L 462.436 634.952 L 461.599 636.195 L 460.747 637.426 L 459.880 638.644 L 458.998 639.850 L 458.100 641.044 L 457.188 642.225 L 456.261 643.394 L 455.319 644.549 L 454.363 645.691 L 453.393 646.819 L 452.409 647.934 L 451.411 649.035 L 450.400 650.122 L 449.375 651.195 L 448.337 652.254 L 447.286 653.298 L 446.222 654.327 L 445.145 655.341 L 444.056 656.341 L 442.955 657.325 L 441.842 658.294 L 440.716 659.247 L 439.580 660.185 L 438.431 661.107 L 437.272 662.013 L 436.101 662.903 L 434.920 663.777 L 433.728 664.634 L 432.525 665.475 L 431.313 666.299 L 430.090 667.107 L 428.858 667.897 L 427.616 668.671 L 426.365 669.427 L 425.105 670.167 L 423.836 670.889 L 422.558 671.593 L 421.271 672.280 L 419.977 672.950 L 418.674 673.601 L 417.364 674.235 L 416.046 674.851 L 414.721 675.449 L 413.388 676.028 L 412.049 676.590 L 410.703 677.133 L 409.351 677.658 L 407.992 678.164 L 406.627 678.652 L 405.257 679.121 L 403.881 679.572 L 402.500 680.004 L 401.114 680.417 L 399.722 680.812 L 398.327 681.187 L 396.926 681.544 L 395.522 681.881 L 394.114 682.200 L 392.702 682.499 L 391.286 682.780 L 389.868 683.041 L 388.446 683.283 L 387.022 683.505 L 385.595 683.709 L 384.165 683.893 L 382.734 684.058 L 381.301 684.203 L 379.866 684.329 L 378.429 684.436 L 376.992 684.524 L 375.554 684.592 L 374.115 684.640 L 372.675 684.669 L 371.083 684.680 L 238.770 684.680 L 238.554 684.404 L 238.315 684.093 L 238.069 683.761 L 237.815 683.411 L 237.553 683.041 L 237.284 682.652 L 237.010 682.243 L 236.729 681.816 L 236.443 681.369 L 236.151 680.904 L 235.856 680.420 L 235.556 679.917 L 235.252 679.396 L 234.945 678.856 L 234.635 678.299 L 234.322 677.723 L 234.007 677.130 L 233.690 676.519 L 233.371 675.891 L 233.051 675.245 L 232.729 674.582 L 232.407 673.903 L 232.085 673.207 L 231.762 672.495 L 231.440 671.766 L 231.117 671.022 L 230.796 670.261 L 230.475 669.486 L 230.155 668.694 L 229.836 667.888 L 229.518 667.067 L 229.203 666.231 L 228.889 665.381 L 228.577 664.517 L 228.267 663.638 L 227.960 662.746 L 227.655 661.841 L 227.353 660.922 L 227.054 659.990 L 226.758 659.045 L 226.465 658.088 L 226.175 657.118 L 225.889 656.136 L 225.607 655.142 L 225.328 654.137 L 225.053 653.120 L 224.782 652.092 L 224.515 651.052 L 224.253 650.003 L 223.994 648.942 L 223.740 647.871 L 223.491 646.791 L 223.246 645.700 L 223.006 644.600 L 222.771 643.491 L 222.541 642.372 L 222.316 641.245 L 222.096 640.108 L 221.881 638.964 L 221.671 637.811 L 221.466 636.650 L 221.267 635.482 L 221.074 634.306 L 220.886 633.123 L 220.703 631.933 L 220.526 630.736 L 220.355 629.532 L 220.190 628.322 L 220.030 627.106 L 219.876 625.885 L 219.728 624.657 L 219.587 623.425 L 219.451 622.187 L 219.321 620.944 L 219.197 619.696 L 219.079 618.444 L 218.968 617.188 L 218.863 615.928 L 218.764 614.664 L 218.671 613.396 L 218.584 612.126 L 218.504 610.852 L 218.430 609.575 L 218.363 608.296 L 218.302 607.015 L 218.247 605.731 L 218.198 604.446 L 218.156 603.158 L 218.121 601.870 L 218.092 600.580 L 218.069 599.290 L 218.053 597.998 L 218.043 596.706 L 218.040 595.302 L 218.024 594.197 L 217.980 593.094 L 217.910 591.992 L 217.812 590.892 L 217.688 589.794 L 217.536 588.700 L 217.358 587.610 L 217.153 586.525 L 216.922 585.445 L 216.664 584.371 L 216.380 583.304 L 216.069 582.244 L 215.733 581.192 L 215.371 580.148 L 214.984 579.114 L 214.571 578.090 L 214.134 577.076 L 213.671 576.073 L 213.184 575.081 L 212.673 574.102 L 212.138 573.136 L 211.580 572.183 L 210.998 571.244 L 210.393 570.320 L 209.766 569.411 L 209.117 568.518 L 208.446 567.640 L 207.754 566.780 L 207.041 565.936 L 206.307 565.111 L 205.553 564.304 L 204.780 563.515 L 203.988 562.746 L 203.177 561.996 L 202.347 561.267 L 201.501 560.558 L 200.637 559.870 L 199.756 559.203 L 198.859 558.558 L 197.947 557.936 L 197.020 557.336 L 196.078 556.759 L 195.122 556.205 L 194.153 555.675 L 193.172 555.169 L 192.178 554.687 L 191.173 554.229 L 190.157 553.797 L 189.130 553.389 L 188.094 553.007 L 187.049 552.650 L 185.995 552.320 L 184.934 552.015 L 183.865 551.736 L 182.790 551.483 L 181.709 551.257 L 180.622 551.058 L 179.531 550.885 L 178.437 550.739 L 177.339 550.620 L 176.238 550.528 L 175.136 550.463 L 174.032 550.425 L 172.927 550.415 L 171.823 550.431 L 170.719 550.474 L 169.617 550.545 L 168.517 550.642 L 167.420 550.767 L 166.326 550.918 L 165.236 551.096 L 164.151 551.301 L 163.071 551.533 L 161.997 551.790 L 160.929 552.075 L 159.869 552.385 L 158.817 552.721 L 157.774 553.083 L 156.740 553.470 L 155.715 553.883 L 154.701 554.321 L 153.698 554.783 L 152.707 555.270 L 151.728 555.781 L 150.762 556.316 L 149.809 556.875 L 148.870 557.456 L 147.946 558.061 L 147.037 558.688 L 146.143 559.337 L 145.266 560.008 L 144.405 560.700 L 143.562 561.414 L 142.737 562.147 L 141.929 562.901 L 141.141 563.674 L 140.371 564.467 L 139.622 565.278 L 138.892 566.107 L 138.183 566.954 L 137.495 567.818 L 136.829 568.698 L 136.184 569.595 L 135.561 570.507 L 134.961 571.435 L 134.384 572.376 L 133.831 573.332 L 133.301 574.301 L 132.794 575.283 L 132.312 576.276 L 131.855 577.282 L 131.422 578.298 L 131.015 579.324 L 130.633 580.360 L 130.276 581.406 L 129.945 582.459 L 129.640 583.521 L 129.361 584.590 L 129.109 585.665 L 128.883 586.746 L 128.683 587.832 L 128.511 588.923 L 128.365 590.018 L 128.246 591.116 L 128.154 592.216 L 128.089 593.319 L 128.051 594.423 L 128.040 595.527 L 128.044 597.044 L 128.045 597.269 L 128.056 598.787 L 128.059 599.012 L 128.078 600.529 L 128.081 600.754 L 128.108 602.270 L 128.112 602.496 L 128.146 604.011 L 128.152 604.237 L 128.194 605.751 L 128.200 605.977 L 128.250 607.490 L 128.258 607.716 L 128.315 609.228 L 128.324 609.455 L 128.388 610.965 L 128.398 611.192 L 128.470 612.700 L 128.482 612.928 L 128.561 614.434 L 128.574 614.662 L 128.661 616.166 L 128.675 616.394 L 128.769 617.897 L 128.784 618.125 L 128.887 619.625 L 128.903 619.854 L 129.012 621.351 L 129.030 621.581 L 129.147 623.075 L 129.166 623.305 L 129.290 624.796 L 129.310 625.028 L 129.442 626.515 L 129.463 626.747 L 129.603 628.231 L 129.625 628.464 L 129.772 629.945 L 129.796 630.178 L 129.950 631.655 L 129.975 631.889 L 130.137 633.362 L 130.163 633.597 L 130.332 635.066 L 130.360 635.302 L 130.536 636.766 L 130.566 637.003 L 130.749 638.463 L 130.780 638.701 L 130.971 640.156 L 131.003 640.395 L 131.201 641.845 L 131.235 642.085 L 131.440 643.530 L 131.475 643.772 L 131.688 645.211 L 131.724 645.454 L 131.944 646.887 L 131.982 647.132 L 132.209 648.560 L 132.249 648.805 L 132.483 650.227 L 132.525 650.474 L 132.766 651.891 L 132.809 652.139 L 133.057 653.549 L 133.102 653.799 L 133.358 655.202 L 133.404 655.454 L 133.666 656.850 L 133.715 657.103 L 133.984 658.493 L 134.034 658.748 L 134.310 660.131 L 134.362 660.388 L 134.646 661.764 L 134.700 662.022 L 134.990 663.390 L 135.046 663.651 L 135.343 665.012 L 135.400 665.274 L 135.704 666.627 L 135.764 666.891 L 136.075 668.237 L 136.137 668.503 L 136.454 669.840 L 136.518 670.108 L 136.842 671.438 L 136.909 671.708 L 137.239 673.029 L 137.308 673.301 L 137.645 674.614 L 137.717 674.888 L 138.061 676.192 L 138.134 676.469 L 138.485 677.764 L 138.561 678.043 L 138.918 679.329 L 138.997 679.611 L 139.360 680.888 L 139.441 681.172 L 139.811 682.440 L 139.895 682.727 L 140.271 683.985 L 140.359 684.274 L 140.741 685.523 L 140.831 685.815 L 141.219 687.053 L 141.313 687.348 L 141.707 688.577 L 141.804 688.875 L 142.204 690.093 L 142.304 690.394 L 142.711 691.602 L 142.815 691.906 L 143.227 693.104 L 143.334 693.411 L 143.753 694.598 L 143.863 694.908 L 144.288 696.084 L 144.402 696.398 L 144.832 697.563 L 144.951 697.880 L 145.387 699.035 L 145.509 699.355 L 145.951 700.498 L 146.078 700.822 L 146.525 701.953 L 146.656 702.281 L 147.109 703.401 L 147.245 703.732 L 147.703 704.840 L 147.843 705.175 L 148.308 706.272 L 148.453 706.610 L 148.922 707.695 L 149.072 708.038 L 149.547 709.111 L 149.702 709.457 L 150.183 710.518 L 150.343 710.868 L 150.829 711.916 L 150.995 712.271 L 151.486 713.307 L 151.658 713.665 L 152.154 714.689 L 152.332 715.051 L 152.833 716.062 L 153.017 716.429 L 153.524 717.427 L 153.714 717.798 L 154.226 718.783 L 154.423 719.159 L 154.939 720.131 L 155.144 720.511 L 155.664 721.470 L 155.876 721.855 L 156.402 722.800 L 156.621 723.190 L 157.152 724.121 L 157.379 724.516 L 157.914 725.434 L 158.149 725.833 L 158.689 726.737 L 158.933 727.141 L 159.477 728.032 L 159.729 728.440 L 160.278 729.317 L 160.540 729.730 L 161.092 730.593 L 161.364 731.011 L 161.921 731.859 L 162.202 732.282 L 162.764 733.116 L 163.055 733.544 L 163.621 734.364 L 163.923 734.797 L 164.492 735.602 L 164.806 736.040 L 165.379 736.830 L 165.704 737.272 L 166.282 738.048 L 166.619 738.495 L 167.200 739.256 L 167.549 739.708 L 168.134 740.454 L 168.497 740.910 L 169.085 741.641 L 169.461 742.102 L 170.053 742.818 L 170.443 743.283 L 171.039 743.984 L 171.443 744.452 L 172.042 745.138 L 172.461 745.610 L 173.064 746.281 L 173.498 746.757 L 174.104 747.412 L 174.554 747.891 L 175.164 748.531 L 175.630 749.014 L 176.243 749.637 L 176.727 750.123 L 177.342 750.731 L 177.843 751.219 L 178.462 751.811 L 178.982 752.301 L 179.603 752.878 L 180.141 753.369 L 180.765 753.930 L 181.323 754.422 L 181.950 754.967 L 182.527 755.460 L 183.157 755.989 L 183.754 756.481 L 184.387 756.994 L 185.005 757.486 L 185.640 757.983 L 186.279 758.474 L 186.916 758.954 L 187.577 759.442 L 188.217 759.906 L 188.900 760.392 L 189.542 760.840 L 190.248 761.322 L 190.892 761.753 L 191.620 762.230 L 192.267 762.645 L 193.018 763.117 L 193.667 763.515 L 194.441 763.980 L 195.092 764.362 L 195.890 764.820 L 196.542 765.185 L 197.364 765.633 L 198.018 765.982 L 198.863 766.420 L 199.518 766.752 L 200.387 767.180 L 201.044 767.495 L 201.936 767.910 L 202.595 768.208 L 203.509 768.610 L 204.170 768.891 L 205.107 769.278 L 205.769 769.542 L 206.728 769.913 L 207.391 770.161 L 208.371 770.514 L 209.035 770.744 L 210.037 771.079 L 210.702 771.292 L 211.723 771.607 L 212.389 771.804 L 213.429 772.097 L 214.096 772.277 L 215.153 772.547 L 215.821 772.710 L 216.895 772.957 L 217.563 773.103 L 218.652 773.326 L 219.321 773.454 L 220.424 773.651 L 221.094 773.763 L 222.208 773.934 L 222.878 774.028 L 224.003 774.171 L 224.674 774.249 L 225.806 774.364 L 226.478 774.424 L 227.617 774.512 L 228.289 774.554 L 229.433 774.613 L 230.105 774.638 L 231.253 774.668 L 231.924 774.676 L 232.499 774.680 L 371.235 774.680 L 371.387 774.678 L 371.539 774.679 L 373.586 774.665 L 374.193 774.657 L 376.239 774.616 L 376.846 774.599 L 378.892 774.530 L 379.499 774.506 L 381.543 774.409 L 382.150 774.376 L 384.193 774.252 L 384.799 774.211 L 386.840 774.059 L 387.445 774.010 L 389.485 773.831 L 390.089 773.774 L 392.126 773.567 L 392.729 773.502 L 394.763 773.267 L 395.365 773.194 L 397.396 772.932 L 397.998 772.851 L 400.025 772.562 L 400.625 772.472 L 402.648 772.155 L 403.247 772.058 L 405.266 771.714 L 405.863 771.608 L 407.878 771.238 L 408.473 771.124 L 410.483 770.726 L 411.077 770.604 L 413.081 770.179 L 413.673 770.049 L 415.672 769.597 L 416.262 769.460 L 418.255 768.981 L 418.842 768.835 L 420.829 768.329 L 421.414 768.176 L 423.394 767.643 L 423.978 767.482 L 425.951 766.923 L 426.531 766.754 L 428.497 766.168 L 429.075 765.992 L 431.033 765.379 L 431.609 765.195 L 433.559 764.556 L 434.132 764.364 L 436.073 763.699 L 436.643 763.500 L 438.576 762.809 L 439.143 762.602 L 441.067 761.885 L 441.631 761.670 L 443.546 760.927 L 444.106 760.705 L 446.011 759.936 L 446.569 759.707 L 448.464 758.913 L 449.018 758.676 L 450.902 757.856 L 451.453 757.612 L 453.327 756.767 L 453.874 756.516 L 455.736 755.645 L 456.280 755.387 L 458.131 754.491 L 458.671 754.226 L 460.511 753.306 L 461.046 753.033 L 462.874 752.088 L 463.406 751.809 L 465.222 750.839 L 465.749 750.553 L 467.552 749.558 L 468.076 749.265 L 469.866 748.247 L 470.385 747.947 L 472.162 746.904 L 472.677 746.598 L 474.441 745.531 L 474.951 745.218 L 476.701 744.128 L 477.207 743.808 L 478.942 742.695 L 479.443 742.368 L 481.165 741.232 L 481.661 740.899 L 483.368 739.739 L 483.859 739.400 L 485.551 738.217 L 486.038 737.872 L 487.714 736.666 L 488.196 736.314 L 489.857 735.086 L 490.334 734.728 L 491.979 733.478 L 492.450 733.114 L 494.079 731.842 L 494.546 731.472 L 496.158 730.178 L 496.619 729.802 L 498.215 728.486 L 498.671 728.105 L 500.250 726.767 L 500.700 726.380 L 502.261 725.021 L 502.707 724.629 L 504.250 723.249 L 504.690 722.851 L 506.216 721.450 L 506.650 721.047 L 508.158 719.626 L 508.587 719.217 L 510.076 717.776 L 510.499 717.361 L 511.970 715.900 L 512.387 715.481 L 513.839 714.000 L 514.250 713.575 L 515.683 712.075 L 516.089 711.645 L 517.502 710.125 L 517.902 709.691 L 519.296 708.152 L 519.689 707.712 L 521.064 706.155 L 521.451 705.711 L 522.805 704.135 L 523.186 703.686 L 524.520 702.092 L 524.895 701.638 L 526.209 700.027 L 526.577 699.568 L 527.870 697.939 L 528.233 697.476 L 529.504 695.830 L 529.861 695.363 L 531.111 693.699 L 531.461 693.228 L 532.690 691.548 L 533.033 691.072 L 534.241 689.375 L 534.578 688.895 L 535.764 687.183 L 536.094 686.699 L 537.258 684.970 L 537.582 684.482 L 538.723 682.738 L 539.040 682.246 L 540.159 680.487 L 540.470 679.991 L 541.566 678.217 L 541.871 677.718 L 542.944 675.929 L 543.241 675.426 L 544.292 673.622 L 544.583 673.116 L 545.610 671.299 L 545.894 670.789 L 546.898 668.958 L 547.175 668.445 L 548.156 666.600 L 548.426 666.084 L 549.383 664.227 L 549.646 663.707 L 550.579 661.837 L 550.835 661.314 L 551.744 659.431 L 551.994 658.906 L 552.879 657.011 L 553.121 656.482 L 553.982 654.576 L 554.217 654.045 L 555.053 652.127 L 555.282 651.593 L 556.093 649.664 L 556.315 649.127 L 557.101 647.187 L 557.316 646.648 L 558.077 644.697 L 558.285 644.156 L 559.021 642.195 L 559.222 641.651 L 559.933 639.681 L 560.126 639.134 L 560.813 637.155 L 560.999 636.606 L 561.659 634.617 L 561.838 634.067 L 562.474 632.069 L 562.645 631.516 L 563.255 629.511 L 563.420 628.956 L 564.003 626.942 L 564.161 626.385 L 564.719 624.364 L 564.869 623.805 L 565.401 621.776 L 565.544 621.216 L 566.050 619.180 L 566.186 618.619 L 566.666 616.576 L 566.794 616.013 L 567.248 613.964 L 567.369 613.399 L 567.796 611.344 L 567.910 610.778 L 568.311 608.718 L 568.418 608.151 L 568.792 606.085 L 568.892 605.516 L 569.240 603.446 L 569.332 602.876 L 569.653 600.801 L 569.738 600.231 L 570.033 598.152 L 570.110 597.580 L 570.379 595.497 L 570.449 594.924 L 570.690 592.838 L 570.753 592.265 L 570.968 590.175 L 571.023 589.602 L 571.211 587.509 L 571.259 586.935 L 571.420 584.840 L 571.461 584.265 L 571.595 582.169 L 571.629 581.593 L 571.736 579.495 L 571.762 578.920 L 571.843 576.820 L 571.861 576.244 L 571.915 574.144 L 571.926 573.568 L 571.953 571.467 L 571.957 570.891 L 571.957 568.789 L 571.953 568.213 L 571.926 566.112 L 571.915 565.536 L 571.861 563.436 L 571.843 562.860 L 571.762 560.760 L 571.736 560.185 L 571.629 558.087 L 571.595 557.511 L 571.461 555.415 L 571.420 554.840 L 571.259 552.745 L 571.211 552.171 L 571.023 550.078 L 570.968 549.505 L 570.753 547.415 L 570.690 546.842 L 570.449 544.756 L 570.379 544.183 L 570.110 542.100 L 570.033 541.528 L 569.738 539.449 L 569.653 538.879 L 569.332 536.804 L 569.240 536.234 L 568.892 534.164 L 568.792 533.595 L 568.418 531.529 L 568.311 530.962 L 567.910 528.902 L 567.796 528.336 L 567.369 526.281 L 567.248 525.716 L 566.794 523.667 L 566.666 523.104 L 566.186 521.061 L 566.050 520.500 L 565.544 518.464 L 565.401 517.904 L 564.869 515.875 L 564.719 515.316 L 564.161 513.295 L 564.003 512.738 L 563.420 510.724 L 563.255 510.169 L 562.645 508.164 L 562.474 507.611 L 561.838 505.613 L 561.659 505.063 L 560.999 503.074 L 560.813 502.525 L 560.126 500.546 L 559.933 499.999 L 559.222 498.029 L 559.021 497.485 L 558.285 495.524 L 558.077 494.983 L 557.316 493.032 L 557.101 492.493 L 556.315 490.553 L 556.093 490.016 L 555.282 488.087 L 555.053 487.553 L 554.217 485.635 L 553.982 485.104 L 553.121 483.198 L 552.879 482.669 L 551.994 480.774 L 551.744 480.249 L 550.835 478.366 L 550.579 477.843 L 549.646 475.973 L 549.383 475.453 L 548.426 473.596 L 548.156 473.080 L 547.175 471.235 L 546.898 470.722 L 545.894 468.891 L 545.610 468.381 L 544.583 466.564 L 544.292 466.058 L 543.241 464.254 L 542.944 463.751 L 541.871 461.962 L 541.566 461.463 L 540.470 459.689 L 540.159 459.193 L 539.040 457.434 L 538.723 456.942 L 537.582 455.198 L 537.258 454.710 L 536.094 452.981 L 535.764 452.497 L 534.578 450.785 L 534.241 450.305 L 533.033 448.608 L 532.690 448.132 L 531.461 446.452 L 531.111 445.981 L 529.861 444.317 L 529.504 443.850 L 528.233 442.204 L 527.870 441.741 L 526.577 440.112 L 526.209 439.653 L 524.895 438.042 L 524.520 437.588 L 523.186 435.994 L 522.805 435.545 L 521.451 433.969 L 521.064 433.525 L 519.689 431.968 L 519.296 431.528 L 517.902 429.989 L 517.502 429.555 L 516.089 428.035 L 515.683 427.605 L 514.250 426.105 L 513.839 425.680 L 512.387 424.199 L 511.970 423.780 L 510.499 422.319 L 510.076 421.904 L 508.587 420.463 L 508.158 420.054 L 506.650 418.633 L 506.216 418.230 L 504.690 416.829 L 504.250 416.431 L 502.707 415.051 L 502.261 414.659 L 500.700 413.300 L 500.250 412.913 L 498.671 411.575 L 498.215 411.194 L 496.767 410.000 L 498.215 408.806 L 498.671 408.425 L 500.250 407.087 L 500.700 406.700 L 502.261 405.341 L 502.707 404.949 L 504.250 403.569 L 504.690 403.171 L 506.216 401.770 L 506.650 401.367 L 508.158 399.946 L 508.587 399.537 L 510.076 398.096 L 510.499 397.681 L 511.970 396.220 L 512.387 395.801 L 513.839 394.320 L 514.250 393.895 L 515.683 392.395 L 516.089 391.965 L 517.502 390.445 L 517.902 390.011 L 519.296 388.472 L 519.689 388.032 L 521.064 386.475 L 521.451 386.031 L 522.805 384.455 L 523.186 384.006 L 524.520 382.412 L 524.895 381.958 L 526.209 380.347 L 526.577 379.888 L 527.870 378.259 L 528.233 377.796 L 529.504 376.150 L 529.861 375.683 L 531.111 374.019 L 531.461 373.548 L 532.690 371.868 L 533.033 371.392 L 534.241 369.695 L 534.578 369.215 L 535.764 367.503 L 536.094 367.019 L 537.258 365.290 L 537.582 364.802 L 538.723 363.058 L 539.040 362.566 L 540.159 360.807 L 540.470 360.311 L 541.566 358.537 L 541.871 358.038 L 542.944 356.249 L 543.241 355.746 L 544.292 353.942 L 544.583 353.436 L 545.610 351.619 L 545.894 351.109 L 546.898 349.278 L 547.175 348.765 L 548.156 346.920 L 548.426 346.404 L 549.383 344.547 L 549.646 344.027 L 550.579 342.157 L 550.835 341.634 L 551.744 339.751 L 551.994 339.226 L 552.879 337.331 L 553.121 336.802 L 553.982 334.896 L 554.217 334.365 L 555.053 332.447 L 555.282 331.913 L 556.093 329.984 L 556.315 329.447 L 557.101 327.507 L 557.316 326.968 L 558.077 325.017 L 558.285 324.476 L 559.021 322.515 L 559.222 321.971 L 559.933 320.001 L 560.126 319.454 L 560.813 317.475 L 560.999 316.926 L 561.659 314.937 L 561.838 314.387 L 562.474 312.389 L 562.645 311.836 L 563.255 309.831 L 563.420 309.276 L 564.003 307.262 L 564.161 306.705 L 564.719 304.684 L 564.869 304.125 L 565.401 302.096 L 565.544 301.536 L 566.050 299.500 L 566.186 298.939 L 566.666 296.896 L 566.794 296.333 L 567.248 294.284 L 567.369 293.719 L 567.796 291.664 L 567.910 291.098 L 568.311 289.038 L 568.418 288.471 L 568.792 286.405 L 568.892 285.836 L 569.240 283.766 L 569.332 283.196 L 569.653 281.121 L 569.738 280.551 L 570.033 278.472 L 570.110 277.900 L 570.379 275.817 L 570.449 275.244 L 570.690 273.158 L 570.753 272.585 L 570.968 270.495 L 571.023 269.922 L 571.211 267.829 L 571.259 267.255 L 571.420 265.160 L 571.461 264.585 L 571.595 262.489 L 571.629 261.913 L 571.736 259.815 L 571.762 259.240 L 571.843 257.140 L 571.861 256.564 L 571.915 254.464 L 571.926 253.888 L 571.953 251.787 L 571.957 251.211 L 571.957 249.109 L 571.953 248.533 L 571.926 246.432 L 571.915 245.856 L 571.861 243.756 L 571.843 243.180 L 571.762 241.080 L 571.736 240.505 L 571.629 238.407 L 571.595 237.831 L 571.461 235.735 L 571.420 235.160 L 571.259 233.065 L 571.211 232.491 L 571.023 230.398 L 570.968 229.825 L 570.753 227.735 L 570.690 227.162 L 570.449 225.076 L 570.379 224.503 L 570.110 222.420 L 570.033 221.848 L 569.738 219.769 L 569.653 219.199 L 569.332 217.124 L 569.240 216.554 L 568.892 214.484 L 568.792 213.915 L 568.418 211.849 L 568.311 211.282 L 567.910 209.222 L 567.796 208.656 L 567.369 206.601 L 567.248 206.036 L 566.794 203.987 L 566.666 203.424 L 566.186 201.381 L 566.050 200.820 L 565.544 198.784 L 565.401 198.224 L 564.869 196.195 L 564.719 195.636 L 564.161 193.615 L 564.003 193.058 L 563.420 191.044 L 563.255 190.489 L 562.645 188.484 L 562.474 187.931 L 561.838 185.933 L 561.659 185.383 L 560.999 183.394 L 560.813 182.845 L 560.126 180.866 L 559.933 180.319 L 559.222 178.349 L 559.021 177.805 L 558.285 175.844 L 558.077 175.303 L 557.316 173.352 L 557.101 172.813 L 556.315 170.873 L 556.093 170.336 L 555.282 168.407 L 555.053 167.873 L 554.217 165.955 L 553.982 165.424 L 553.121 163.518 L 552.879 162.989 L 551.994 161.094 L 551.744 160.569 L 550.835 158.686 L 550.579 158.163 L 549.646 156.293 L 549.383 155.773 L 548.426 153.916 L 548.156 153.400 L 547.175 151.555 L 546.898 151.042 L 545.894 149.211 L 545.610 148.701 L 544.583 146.884 L 544.292 146.378 L 543.241 144.574 L 542.944 144.071 L 541.871 142.282 L 541.566 141.783 L 540.470 140.009 L 540.159 139.513 L 539.040 137.754 L 538.723 137.262 L 537.582 135.518 L 537.258 135.030 L 536.094 133.301 L 535.764 132.817 L 534.578 131.105 L 534.241 130.625 L 533.033 128.928 L 532.690 128.452 L 531.461 126.772 L 531.111 126.301 L 529.861 124.637 L 529.504 124.170 L 528.233 122.524 L 527.870 122.061 L 526.577 120.432 L 526.209 119.973 L 524.895 118.362 L 524.520 117.908 L 523.186 116.314 L 522.805 115.865 L 521.451 114.289 L 521.064 113.845 L 519.689 112.288 L 519.296 111.848 L 517.902 110.309 L 517.502 109.875 L 516.089 108.355 L 515.683 107.925 L 514.250 106.425 L 513.839 106.000 L 512.387 104.519 L 511.970 104.100 L 510.499 102.639 L 510.076 102.224 L 508.587 100.783 L 508.158 100.374 L 506.650 98.953 L 506.216 98.550 L 504.690 97.149 L 504.250 96.751 L 502.707 95.371 L 502.261 94.979 L 500.700 93.620 L 500.250 93.233 L 498.671 91.895 L 498.215 91.514 L 496.619 90.198 L 496.158 89.822 L 494.546 88.528 L 494.079 88.158 L 492.450 86.886 L 491.979 86.522 L 490.334 85.272 L 489.857 84.914 L 488.196 83.686 L 487.714 83.334 L 486.038 82.128 L 485.551 81.783 L 483.859 80.600 L 483.368 80.261 L 481.661 79.101 L 481.165 78.768 L 479.443 77.632 L 478.942 77.305 L 477.207 76.192 L 476.701 75.872 L 474.951 74.782 L 474.441 74.469 L 472.677 73.402 L 472.162 73.096 L 470.385 72.053 L 469.866 71.753 L 468.076 70.735 L 467.552 70.442 L 465.749 69.447 L 465.222 69.161 L 463.406 68.191 L 462.874 67.912 L 461.046 66.967 L 460.511 66.694 L 458.671 65.774 L 458.131 65.509 L 456.280 64.613 L 455.736 64.355 L 453.874 63.484 L 453.327 63.233 L 451.453 62.388 L 450.902 62.144 L 449.018 61.324 L 448.464 61.087 L 446.569 60.293 L 446.011 60.064 L 444.106 59.295 L 443.546 59.073 L 441.631 58.330 L 441.067 58.115 L 439.143 57.398 L 438.576 57.191 L 436.643 56.500 L 436.073 56.301 L 434.132 55.636 L 433.559 55.444 L 431.609 54.805 L 431.033 54.621 L 429.075 54.008 L 428.497 53.832 L 426.531 53.246 L 425.951 53.077 L 423.978 52.518 L 423.394 52.357 L 421.414 51.824 L 420.829 51.671 L 418.842 51.165 L 418.255 51.019 L 416.262 50.540 L 415.672 50.403 L 413.673 49.951 L 413.081 49.821 L 411.077 49.396 L 410.483 49.274 L 408.473 48.876 L 407.878 48.762 L 405.863 48.392 L 405.266 48.286 L 403.247 47.942 L 402.648 47.845 L 400.625 47.528 L 400.025 47.438 L 397.998 47.149 L 397.396 47.068 L 395.365 46.806 L 394.763 46.733 L 392.729 46.498 L 392.126 46.433 L 390.089 46.226 L 389.485 46.169 L 387.445 45.990 L 386.840 45.941 L 384.799 45.789 L 384.193 45.748 L 382.150 45.624 L 381.543 45.591 L 379.499 45.494 L 378.892 45.470 L 376.846 45.401 L 376.239 45.384 L 374.193 45.343 L 373.586 45.335 L 371.539 45.321 L 371.387 45.322 L 371.235 45.320 L 232.499 45.320 L 231.924 45.324 L 231.253 45.332 Z" fill="black" fill-rule="evenodd"/>
</svg>
