<svg xmlns="http://www.w3.org/2000/svg" viewBox="0 0 700.000 1000" width="700.000" height="1000">
  <path d="M 592.997 339.507 L 592.938 334.059 L 592.916 333.074 L 592.737 327.630 L 592.694 326.645 L 592.396 321.207 L 592.331 320.223 L 591.914 314.794 L 591.828 313.811 L 591.292 308.396 L 591.184 307.413 L 590.530 302.014 L 590.401 301.034 L 589.629 295.654 L 589.477 294.675 L 588.588 289.318 L 588.414 288.341 L 587.408 283.010 L 587.212 282.035 L 586.089 276.734 L 585.872 275.761 L 584.634 270.492 L 584.394 269.522 L 583.041 264.289 L 582.779 263.321 L 581.311 258.127 L 581.027 257.163 L 579.446 252.010 L 579.140 251.050 L 577.446 245.943 L 577.117 244.986 L 575.313 239.927 L 574.961 238.974 L 573.046 233.966 L 572.672 233.018 L 570.648 228.065 L 570.250 227.122 L 568.119 222.225 L 567.698 221.288 L 565.460 216.452 L 565.016 215.520 L 562.673 210.747 L 562.205 209.822 L 559.758 205.114 L 559.267 204.196 L 556.718 199.557 L 556.203 198.646 L 553.553 194.079 L 553.015 193.176 L 550.266 188.683 L 549.704 187.788 L 546.857 183.372 L 546.271 182.487 L 543.329 178.150 L 542.719 177.274 L 539.682 173.020 L 539.048 172.154 L 535.919 167.985 L 535.261 167.130 L 532.042 163.048 L 531.360 162.204 L 528.053 158.212 L 527.346 157.380 L 523.953 153.481 L 523.222 152.662 L 519.744 148.857 L 518.990 148.051 L 515.429 144.343 L 514.651 143.552 L 511.011 139.943 L 510.209 139.167 L 506.490 135.659 L 505.664 134.899 L 501.870 131.495 L 501.021 130.752 L 497.154 127.453 L 496.281 126.727 L 492.343 123.535 L 491.447 122.828 L 487.440 119.746 L 486.522 119.058 L 482.448 116.087 L 481.508 115.419 L 477.371 112.561 L 476.408 111.914 L 472.210 109.170 L 471.226 108.546 L 466.969 105.918 L 465.964 105.316 L 461.651 102.807 L 460.625 102.228 L 456.258 99.839 L 455.213 99.285 L 450.795 97.016 L 449.731 96.487 L 445.265 94.340 L 444.182 93.837 L 439.670 91.814 L 438.570 91.339 L 434.015 89.440 L 432.899 88.992 L 428.304 87.220 L 427.171 86.800 L 422.538 85.155 L 421.391 84.765 L 416.724 83.247 L 415.562 82.887 L 410.863 81.498 L 409.689 81.168 L 404.961 79.909 L 403.775 79.611 L 399.020 78.482 L 397.824 78.215 L 393.046 77.218 L 391.840 76.983 L 387.042 76.118 L 385.827 75.916 L 381.012 75.182 L 379.790 75.013 L 374.960 74.413 L 373.732 74.277 L 368.891 73.810 L 367.658 73.708 L 362.808 73.374 L 361.572 73.306 L 356.716 73.105 L 355.478 73.071 L 350.619 73.004 L 349.381 73.004 L 344.522 73.071 L 343.284 73.105 L 338.428 73.306 L 337.192 73.374 L 332.342 73.708 L 331.109 73.810 L 326.268 74.277 L 325.040 74.413 L 320.210 75.013 L 318.988 75.182 L 314.173 75.916 L 312.958 76.118 L 308.160 76.983 L 306.954 77.218 L 302.176 78.215 L 300.980 78.482 L 296.225 79.611 L 295.039 79.909 L 290.311 81.168 L 289.137 81.498 L 284.438 82.887 L 283.276 83.247 L 278.609 84.765 L 277.462 85.155 L 272.829 86.800 L 271.696 87.220 L 267.101 88.992 L 265.985 89.440 L 261.430 91.339 L 260.330 91.814 L 255.818 93.837 L 254.735 94.340 L 250.269 96.487 L 249.205 97.016 L 244.787 99.285 L 243.742 99.839 L 239.375 102.228 L 238.349 102.807 L 234.036 105.316 L 233.031 105.918 L 228.774 108.546 L 227.790 109.170 L 223.592 111.914 L 222.629 112.561 L 218.492 115.419 L 217.552 116.087 L 213.478 119.058 L 212.560 119.746 L 208.553 122.828 L 207.657 123.535 L 203.719 126.727 L 202.846 127.453 L 198.979 130.752 L 198.130 131.495 L 194.336 134.899 L 193.510 135.659 L 189.791 139.167 L 188.989 139.943 L 185.349 143.552 L 184.571 144.343 L 181.010 148.051 L 180.256 148.857 L 176.778 152.662 L 176.047 153.481 L 172.654 157.380 L 171.947 158.212 L 168.640 162.204 L 167.958 163.048 L 164.739 167.130 L 164.081 167.985 L 160.952 172.154 L 160.318 173.020 L 157.281 177.274 L 156.671 178.150 L 153.729 182.487 L 153.143 183.372 L 150.296 187.788 L 149.734 188.683 L 146.985 193.176 L 146.447 194.079 L 143.797 198.646 L 143.282 199.557 L 140.733 204.196 L 140.242 205.114 L 137.795 209.822 L 137.327 210.747 L 134.984 215.520 L 134.540 216.452 L 132.302 221.288 L 131.881 222.225 L 129.750 227.122 L 129.352 228.065 L 127.328 233.018 L 126.954 233.966 L 125.039 238.974 L 124.687 239.927 L 122.883 244.986 L 122.554 245.943 L 120.860 251.050 L 120.554 252.010 L 118.973 257.163 L 118.689 258.127 L 117.221 263.321 L 116.959 264.289 L 115.606 269.522 L 115.366 270.492 L 114.128 275.761 L 113.911 276.734 L 112.788 282.035 L 112.592 283.010 L 111.586 288.341 L 111.412 289.318 L 110.523 294.675 L 110.371 295.654 L 109.599 301.034 L 109.470 302.014 L 108.816 307.413 L 108.708 308.396 L 108.172 313.811 L 108.086 314.794 L 107.669 320.223 L 107.604 321.207 L 107.306 326.645 L 107.263 327.630 L 107.084 333.074 L 107.062 334.059 L 107.003 339.507 L 107.003 340.493 L 107.062 345.941 L 107.084 346.926 L 107.263 352.370 L 107.306 353.355 L 107.604 358.793 L 107.669 359.777 L 108.086 365.206 L 108.172 366.189 L 108.708 371.604 L 108.816 372.587 L 109.470 377.986 L 109.599 378.966 L 110.371 384.346 L 110.523 385.325 L 111.412 390.682 L 111.586 391.659 L 112.592 396.990 L 112.788 397.965 L 113.911 403.266 L 114.128 404.239 L 115.366 409.508 L 115.606 410.478 L 116.959 415.711 L 117.221 416.679 L 118.689 421.873 L 118.973 422.837 L 120.554 427.990 L 120.860 428.950 L 122.554 434.057 L 122.883 435.014 L 124.687 440.073 L 125.039 441.026 L 126.954 446.034 L 127.328 446.982 L 129.352 451.935 L 129.750 452.878 L 131.881 457.775 L 132.302 458.712 L 134.540 463.548 L 134.984 464.480 L 137.327 469.253 L 137.795 470.178 L 140.242 474.886 L 140.733 475.804 L 143.282 480.443 L 143.797 481.354 L 146.447 485.921 L 146.985 486.824 L 149.734 491.317 L 150.296 492.212 L 153.143 496.628 L 153.729 497.513 L 156.671 501.850 L 157.281 502.726 L 160.318 506.980 L 160.952 507.846 L 164.081 512.015 L 164.739 512.870 L 167.958 516.952 L 168.640 517.796 L 171.947 521.788 L 172.654 522.620 L 176.047 526.519 L 176.778 527.338 L 180.256 531.143 L 181.010 531.949 L 184.571 535.657 L 185.349 536.448 L 188.989 540.057 L 189.791 540.833 L 193.510 544.341 L 194.336 545.101 L 198.130 548.505 L 198.979 549.248 L 202.846 552.547 L 203.719 553.273 L 207.657 556.465 L 208.553 557.172 L 212.560 560.254 L 213.478 560.942 L 217.552 563.913 L 218.492 564.581 L 222.629 567.439 L 223.592 568.086 L 227.790 570.830 L 228.774 571.454 L 233.031 574.082 L 234.036 574.684 L 238.349 577.193 L 239.375 577.772 L 243.742 580.161 L 244.787 580.715 L 249.205 582.984 L 250.269 583.513 L 254.735 585.660 L 255.818 586.163 L 260.330 588.186 L 261.430 588.661 L 265.985 590.560 L 267.101 591.008 L 271.696 592.780 L 272.829 593.200 L 277.462 594.845 L 278.609 595.235 L 283.276 596.753 L 284.438 597.113 L 289.137 598.502 L 290.311 598.832 L 295.039 600.091 L 296.225 600.389 L 300.980 601.518 L 302.176 601.785 L 306.954 602.782 L 308.160 603.017 L 312.958 603.882 L 314.173 604.084 L 318.988 604.818 L 320.210 604.987 L 325.040 605.587 L 326.268 605.723 L 331.109 606.190 L 332.342 606.292 L 337.192 606.626 L 338.428 606.694 L 343.284 606.895 L 344.522 606.929 L 349.381 606.996 L 350.619 606.996 L 355.478 606.929 L 356.716 606.895 L 361.572 606.694 L 362.808 606.626 L 367.658 606.292 L 368.891 606.190 L 373.732 605.723 L 374.960 605.587 L 379.790 604.987 L 381.012 604.818 L 385.827 604.084 L 387.042 603.882 L 391.840 603.017 L 393.046 602.782 L 397.824 601.785 L 399.020 601.518 L 403.775 600.389 L 404.961 600.091 L 409.689 598.832 L 410.863 598.502 L 415.562 597.113 L 416.724 596.753 L 421.391 595.235 L 422.538 594.845 L 427.171 593.200 L 428.304 592.780 L 432.899 591.008 L 434.015 590.560 L 438.570 588.661 L 439.670 588.186 L 444.182 586.163 L 445.265 585.660 L 449.731 583.513 L 450.795 582.984 L 455.213 580.715 L 456.258 580.161 L 460.625 577.772 L 461.651 577.193 L 465.964 574.684 L 466.969 574.082 L 471.226 571.454 L 472.210 570.830 L 476.408 568.086 L 477.371 567.439 L 481.508 564.581 L 482.448 563.913 L 486.522 560.942 L 487.440 560.254 L 491.447 557.172 L 492.343 556.465 L 496.281 553.273 L 497.154 552.547 L 501.021 549.248 L 501.870 548.505 L 503.000 547.491 L 503.000 780.000 L 503.014 781.104 L 503.054 782.208 L 503.122 783.310 L 503.217 784.411 L 503.338 785.508 L 503.487 786.603 L 503.663 787.693 L 503.865 788.779 L 504.093 789.860 L 504.349 790.934 L 504.630 792.002 L 504.938 793.063 L 505.271 794.116 L 505.631 795.160 L 506.015 796.195 L 506.425 797.221 L 506.861 798.236 L 507.320 799.240 L 507.805 800.233 L 508.314 801.213 L 508.846 802.180 L 509.402 803.135 L 509.982 804.075 L 510.584 805.001 L 511.209 805.911 L 511.856 806.806 L 512.524 807.685 L 513.215 808.548 L 513.926 809.393 L 514.657 810.220 L 515.409 811.029 L 516.180 811.820 L 516.971 812.591 L 517.780 813.343 L 518.607 814.074 L 519.452 814.785 L 520.315 815.476 L 521.194 816.144 L 522.089 816.791 L 522.999 817.416 L 523.925 818.018 L 524.865 818.598 L 525.820 819.154 L 526.787 819.686 L 527.767 820.195 L 528.760 820.680 L 529.764 821.139 L 530.779 821.575 L 531.805 821.985 L 532.840 822.369 L 533.884 822.729 L 534.937 823.062 L 535.998 823.370 L 537.066 823.651 L 538.140 823.907 L 539.221 824.135 L 540.307 824.337 L 541.397 824.513 L 542.492 824.662 L 543.589 824.783 L 544.690 824.878 L 545.792 824.946 L 546.896 824.986 L 548.000 825.000 L 549.104 824.986 L 550.208 824.946 L 551.310 824.878 L 552.411 824.783 L 553.508 824.662 L 554.603 824.513 L 555.693 824.337 L 556.779 824.135 L 557.860 823.907 L 558.934 823.651 L 560.002 823.370 L 561.063 823.062 L 562.116 822.729 L 563.160 822.369 L 564.195 821.985 L 565.221 821.575 L 566.236 821.139 L 567.240 820.680 L 568.233 820.195 L 569.213 819.686 L 570.180 819.154 L 571.135 818.598 L 572.075 818.018 L 573.001 817.416 L 573.911 816.791 L 574.806 816.144 L 575.685 815.476 L 576.548 814.785 L 577.393 814.074 L 578.220 813.343 L 579.029 812.591 L 579.820 811.820 L 580.591 811.029 L 581.343 810.220 L 582.074 809.393 L 582.785 808.548 L 583.476 807.685 L 584.144 806.806 L 584.791 805.911 L 585.416 805.001 L 586.018 804.075 L 586.598 803.135 L 587.154 802.180 L 587.686 801.213 L 588.195 800.233 L 588.680 799.240 L 589.139 798.236 L 589.575 797.221 L 589.985 796.195 L 590.369 795.160 L 590.729 794.116 L 591.062 793.063 L 591.370 792.002 L 591.651 790.934 L 591.907 789.860 L 592.135 788.779 L 592.337 787.693 L 592.513 786.603 L 592.662 785.508 L 592.783 784.411 L 592.878 783.310 L 592.946 782.208 L 592.986 781.104 L 593.000 780.000 L 593.000 340.000 L 592.997 339.780 L 592.997 339.507 Z M 502.948 344.463 L 502.802 348.923 L 502.558 353.377 L 502.217 357.822 L 501.778 362.254 L 501.243 366.672 L 500.612 371.071 L 499.885 375.449 L 499.063 379.803 L 498.146 384.129 L 497.136 388.426 L 496.033 392.690 L 494.839 396.918 L 493.553 401.107 L 492.178 405.256 L 490.714 409.360 L 489.163 413.417 L 487.525 417.426 L 485.803 421.382 L 483.998 425.284 L 482.110 429.128 L 480.143 432.914 L 478.096 436.638 L 475.972 440.298 L 473.773 443.891 L 471.501 447.417 L 469.156 450.871 L 466.742 454.254 L 464.259 457.562 L 461.710 460.794 L 459.097 463.948 L 456.422 467.022 L 453.686 470.015 L 450.892 472.925 L 448.042 475.751 L 445.138 478.491 L 442.181 481.144 L 439.175 483.708 L 436.121 486.184 L 433.020 488.569 L 429.877 490.862 L 426.691 493.063 L 423.466 495.170 L 420.203 497.184 L 416.904 499.103 L 413.572 500.926 L 410.209 502.653 L 406.816 504.284 L 403.395 505.818 L 399.948 507.254 L 396.478 508.593 L 392.985 509.833 L 389.473 510.976 L 385.942 512.019 L 382.394 512.964 L 378.832 513.809 L 375.256 514.556 L 371.669 515.203 L 368.073 515.750 L 364.468 516.199 L 360.856 516.547 L 357.240 516.796 L 353.621 516.946 L 350.000 516.996 L 346.379 516.946 L 342.760 516.796 L 339.144 516.547 L 335.532 516.199 L 331.927 515.750 L 328.331 515.203 L 324.744 514.556 L 321.168 513.809 L 317.606 512.964 L 314.058 512.019 L 310.527 510.976 L 307.015 509.833 L 303.522 508.593 L 300.052 507.254 L 296.605 505.818 L 293.184 504.284 L 289.791 502.653 L 286.428 500.926 L 283.096 499.103 L 279.797 497.184 L 276.534 495.170 L 273.309 493.063 L 270.123 490.862 L 266.980 488.569 L 263.879 486.184 L 260.825 483.708 L 257.819 481.144 L 254.862 478.491 L 251.958 475.751 L 249.108 472.925 L 246.314 470.015 L 243.578 467.022 L 240.903 463.948 L 238.290 460.794 L 235.741 457.562 L 233.258 454.254 L 230.844 450.871 L 228.499 447.417 L 226.227 443.891 L 224.028 440.298 L 221.904 436.638 L 219.857 432.914 L 217.890 429.128 L 216.002 425.284 L 214.197 421.382 L 212.475 417.426 L 210.837 413.417 L 209.286 409.360 L 207.822 405.256 L 206.447 401.107 L 205.161 396.918 L 203.967 392.690 L 202.864 388.426 L 201.854 384.129 L 200.937 379.803 L 200.115 375.449 L 199.388 371.071 L 198.757 366.672 L 198.222 362.254 L 197.783 357.822 L 197.442 353.377 L 197.198 348.923 L 197.052 344.463 L 197.003 340.000 L 197.052 335.537 L 197.198 331.077 L 197.442 326.623 L 197.783 322.178 L 198.222 317.746 L 198.757 313.328 L 199.388 308.929 L 200.115 304.551 L 200.937 300.197 L 201.854 295.871 L 202.864 291.574 L 203.967 287.310 L 205.161 283.082 L 206.447 278.893 L 207.822 274.744 L 209.286 270.640 L 210.837 266.583 L 212.475 262.574 L 214.197 258.618 L 216.002 254.716 L 217.890 250.872 L 219.857 247.086 L 221.904 243.362 L 224.028 239.702 L 226.227 236.109 L 228.499 232.583 L 230.844 229.129 L 233.258 225.746 L 235.741 222.438 L 238.290 219.206 L 240.903 216.052 L 243.578 212.978 L 246.314 209.985 L 249.108 207.075 L 251.958 204.249 L 254.862 201.509 L 257.819 198.856 L 260.825 196.292 L 263.879 193.816 L 266.980 191.431 L 270.123 189.138 L 273.309 186.937 L 276.534 184.830 L 279.797 182.816 L 283.096 180.897 L 286.428 179.074 L 289.791 177.347 L 293.184 175.716 L 296.605 174.182 L 300.052 172.746 L 303.522 171.407 L 307.015 170.167 L 310.527 169.024 L 314.058 167.981 L 317.606 167.036 L 321.168 166.191 L 324.744 165.444 L 328.331 164.797 L 331.927 164.250 L 335.532 163.801 L 339.144 163.453 L 342.760 163.204 L 346.379 163.054 L 350.000 163.004 L 353.621 163.054 L 357.240 163.204 L 360.856 163.453 L 364.468 163.801 L 368.073 164.250 L 371.669 164.797 L 375.256 165.444 L 378.832 166.191 L 382.394 167.036 L 385.942 167.981 L 389.473 169.024 L 392.985 170.167 L 396.478 171.407 L 399.948 172.746 L 403.395 174.182 L 406.816 175.716 L 410.209 177.347 L 413.572 179.074 L 416.904 180.897 L 420.203 182.816 L 423.466 184.830 L 426.691 186.937 L 429.877 189.138 L 433.020 191.431 L 436.121 193.816 L 439.175 196.292 L 442.181 198.856 L 445.138 201.509 L 448.042 204.249 L 450.892 207.075 L 453.686 209.985 L 456.422 212.978 L 459.097 216.052 L 461.710 219.206 L 464.259 222.438 L 466.742 225.746 L 469.156 229.129 L 471.501 232.583 L 473.773 236.109 L 475.972 239.702 L 478.096 243.362 L 480.143 247.086 L 482.110 250.872 L 483.998 254.716 L 485.803 258.618 L 487.525 262.574 L 489.163 266.583 L 490.714 270.640 L 492.178 274.744 L 493.553 278.893 L 494.839 283.082 L 496.033 287.310 L 497.136 291.574 L 498.146 295.871 L 499.063 300.197 L 499.885 304.551 L 500.612 308.929 L 501.243 313.328 L 501.778 317.746 L 502.217 322.178 L 502.558 326.623 L 502.802 331.077 L 502.948 335.537 L 502.997 340.000 L 502.948 344.463 Z" fill="black" fill-rule="evenodd"/>
</svg>
