<svg xmlns="http://www.w3.org/2000/svg" viewBox="0 0 700.000 1000" width="700.000" height="1000">
  <path d="M 608.679 62.998 L 609.232 62.042 L 609.761 61.073 L 610.266 60.091 L 610.747 59.096 L 611.203 58.091 L 611.635 57.074 L 612.042 56.047 L 612.423 55.011 L 612.778 53.965 L 613.108 52.911 L 613.412 51.849 L 613.690 50.780 L 613.941 49.705 L 614.166 48.623 L 614.364 47.537 L 614.536 46.446 L 614.681 45.351 L 614.799 44.253 L 614.889 43.152 L 614.953 42.050 L 614.990 40.946 L 615.000 39.841 L 614.982 38.737 L 614.938 37.633 L 614.866 36.531 L 614.767 35.431 L 614.642 34.334 L 614.489 33.240 L 614.310 32.150 L 614.104 31.065 L 613.872 29.986 L 613.613 28.912 L 613.327 27.845 L 613.016 26.785 L 612.679 25.734 L 612.316 24.691 L 611.927 23.657 L 611.514 22.633 L 611.075 21.619 L 610.611 20.617 L 610.124 19.626 L 609.611 18.647 L 609.075 17.682 L 608.516 16.729 L 607.933 15.791 L 607.328 14.868 L 606.700 13.959 L 606.050 13.066 L 605.378 12.190 L 604.685 11.330 L 603.971 10.487 L 603.236 9.662 L 602.482 8.856 L 601.707 8.068 L 600.914 7.300 L 600.102 6.551 L 599.272 5.822 L 598.425 5.114 L 597.560 4.427 L 596.679 3.761 L 595.781 3.118 L 594.869 2.496 L 593.941 1.897 L 592.998 1.321 L 592.042 0.768 L 591.073 0.239 L 590.091 -0.266 L 589.096 -0.747 L 588.091 -1.203 L 587.074 -1.635 L 586.047 -2.042 L 585.011 -2.423 L 583.965 -2.778 L 582.911 -3.108 L 581.849 -3.412 L 580.780 -3.690 L 579.705 -3.941 L 578.623 -4.166 L 577.537 -4.364 L 576.446 -4.536 L 575.351 -4.681 L 574.253 -4.799 L 573.152 -4.889 L 572.050 -4.953 L 570.946 -4.990 L 569.841 -5.000 L 568.737 -4.982 L 567.633 -4.938 L 566.531 -4.866 L 565.431 -4.767 L 564.334 -4.642 L 563.240 -4.489 L 562.150 -4.310 L 561.065 -4.104 L 559.986 -3.872 L 558.912 -3.613 L 557.845 -3.327 L 556.785 -3.016 L 555.734 -2.679 L 554.691 -2.316 L 553.657 -1.927 L 552.633 -1.514 L 551.619 -1.075 L 550.617 -0.611 L 549.626 -0.124 L 548.647 0.389 L 547.682 0.925 L 546.729 1.484 L 545.791 2.067 L 544.868 2.672 L 543.959 3.300 L 543.066 3.950 L 542.190 4.622 L 541.330 5.315 L 540.487 6.029 L 539.662 6.764 L 538.856 7.518 L 538.068 8.293 L 537.300 9.086 L 536.551 9.898 L 535.822 10.728 L 535.114 11.575 L 534.427 12.440 L 533.761 13.321 L 533.118 14.219 L 532.496 15.131 L 531.897 16.059 L 531.321 17.002 L 350.000 321.950 L 168.679 17.002 L 168.103 16.059 L 167.504 15.131 L 166.882 14.219 L 166.239 13.321 L 165.573 12.440 L 164.886 11.575 L 164.178 10.728 L 163.449 9.898 L 162.700 9.086 L 161.932 8.293 L 161.144 7.518 L 160.338 6.764 L 159.513 6.029 L 158.670 5.315 L 157.810 4.622 L 156.934 3.950 L 156.041 3.300 L 155.132 2.672 L 154.209 2.067 L 153.271 1.484 L 152.318 0.925 L 151.353 0.389 L 150.374 -0.124 L 149.383 -0.611 L 148.381 -1.075 L 147.367 -1.514 L 146.343 -1.927 L 145.309 -2.316 L 144.266 -2.679 L 143.215 -3.016 L 142.155 -3.327 L 141.088 -3.613 L 140.014 -3.872 L 138.935 -4.104 L 137.850 -4.310 L 136.760 -4.489 L 135.666 -4.642 L 134.569 -4.767 L 133.469 -4.866 L 132.367 -4.938 L 131.263 -4.982 L 130.159 -5.000 L 129.054 -4.990 L 127.950 -4.953 L 126.848 -4.889 L 125.747 -4.799 L 124.649 -4.681 L 123.554 -4.536 L 122.463 -4.364 L 121.377 -4.166 L 120.295 -3.941 L 119.220 -3.690 L 118.151 -3.412 L 117.089 -3.108 L 116.035 -2.778 L 114.989 -2.423 L 113.953 -2.042 L 112.926 -1.635 L 111.909 -1.203 L 110.904 -0.747 L 109.909 -0.266 L 108.927 0.239 L 107.958 0.768 L 107.002 1.321 L 106.059 1.897 L 105.131 2.496 L 104.219 3.118 L 103.321 3.761 L 102.440 4.427 L 101.575 5.114 L 100.728 5.822 L 99.898 6.551 L 99.086 7.300 L 98.293 8.068 L 97.518 8.856 L 96.764 9.662 L 96.029 10.487 L 95.315 11.330 L 94.622 12.190 L 93.950 13.066 L 93.300 13.959 L 92.672 14.868 L 92.067 15.791 L 91.484 16.729 L 90.925 17.682 L 90.389 18.647 L 89.876 19.626 L 89.389 20.617 L 88.925 21.619 L 88.486 22.633 L 88.073 23.657 L 87.684 24.691 L 87.321 25.734 L 86.984 26.785 L 86.673 27.845 L 86.387 28.912 L 86.128 29.986 L 85.896 31.065 L 85.690 32.150 L 85.511 33.240 L 85.358 34.334 L 85.233 35.431 L 85.134 36.531 L 85.062 37.633 L 85.018 38.737 L 85.000 39.841 L 85.010 40.946 L 85.047 42.050 L 85.111 43.152 L 85.201 44.253 L 85.319 45.351 L 85.464 46.446 L 85.636 47.537 L 85.834 48.623 L 86.059 49.705 L 86.310 50.780 L 86.588 51.849 L 86.892 52.911 L 87.222 53.965 L 87.577 55.011 L 87.958 56.047 L 88.365 57.074 L 88.797 58.091 L 89.253 59.096 L 89.734 60.091 L 90.239 61.073 L 90.768 62.042 L 91.321 62.998 L 305.000 422.368 L 305.000 780.000 L 305.014 781.104 L 305.054 782.208 L 305.122 783.310 L 305.217 784.411 L 305.338 785.508 L 305.487 786.603 L 305.663 787.693 L 305.865 788.779 L 306.093 789.860 L 306.349 790.934 L 306.630 792.002 L 306.938 793.063 L 307.271 794.116 L 307.631 795.160 L 308.015 796.195 L 308.425 797.221 L 308.861 798.236 L 309.320 799.240 L 309.805 800.233 L 310.314 801.213 L 310.846 802.180 L 311.402 803.135 L 311.982 804.075 L 312.584 805.001 L 313.209 805.911 L 313.856 806.806 L 314.524 807.685 L 315.215 808.548 L 315.926 809.393 L 316.657 810.220 L 317.409 811.029 L 318.180 811.820 L 318.971 812.591 L 319.780 813.343 L 320.607 814.074 L 321.452 814.785 L 322.315 815.476 L 323.194 816.144 L 324.089 816.791 L 324.999 817.416 L 325.925 818.018 L 326.865 818.598 L 327.820 819.154 L 328.787 819.686 L 329.767 820.195 L 330.760 820.680 L 331.764 821.139 L 332.779 821.575 L 333.805 821.985 L 334.840 822.369 L 335.884 822.729 L 336.937 823.062 L 337.998 823.370 L 339.066 823.651 L 340.140 823.907 L 341.221 824.135 L 342.307 824.337 L 343.397 824.513 L 344.492 824.662 L 345.589 824.783 L 346.690 824.878 L 347.792 824.946 L 348.896 824.986 L 350.000 825.000 L 351.104 824.986 L 352.208 824.946 L 353.310 824.878 L 354.411 824.783 L 355.508 824.662 L 356.603 824.513 L 357.693 824.337 L 358.779 824.135 L 359.860 823.907 L 360.934 823.651 L 362.002 823.370 L 363.063 823.062 L 364.116 822.729 L 365.160 822.369 L 366.195 821.985 L 367.221 821.575 L 368.236 821.139 L 369.240 820.680 L 370.233 820.195 L 371.213 819.686 L 372.180 819.154 L 373.135 818.598 L 374.075 818.018 L 375.001 817.416 L 375.911 816.791 L 376.806 816.144 L 377.685 815.476 L 378.548 814.785 L 379.393 814.074 L 380.220 813.343 L 381.029 812.591 L 381.820 811.820 L 382.591 811.029 L 383.343 810.220 L 384.074 809.393 L 384.785 808.548 L 385.476 807.685 L 386.144 806.806 L 386.791 805.911 L 387.416 805.001 L 388.018 804.075 L 388.598 803.135 L 389.154 802.180 L 389.686 801.213 L 390.195 800.233 L 390.680 799.240 L 391.139 798.236 L 391.575 797.221 L 391.985 796.195 L 392.369 795.160 L 392.729 794.116 L 393.062 793.063 L 393.370 792.002 L 393.651 790.934 L 393.907 789.860 L 394.135 788.779 L 394.337 787.693 L 394.513 786.603 L 394.662 785.508 L 394.783 784.411 L 394.878 783.310 L 394.946 782.208 L 394.986 781.104 L 395.000 780.000 L 395.000 422.368 L 608.679 62.998 Z" fill="black" fill-rule="evenodd"/>
</svg>
