<svg xmlns="http://www.w3.org/2000/svg" viewBox="0 0 700.000 1000" width="700.000" height="1000">
  <path d="M 552.208 135.266 L 553.310 135.198 L 554.411 135.103 L 555.508 134.982 L 556.603 134.833 L 557.693 134.657 L 558.779 134.455 L 559.860 134.227 L 560.934 133.971 L 562.002 133.690 L 563.063 133.382 L 564.116 133.049 L 565.160 132.689 L 566.195 132.305 L 567.221 131.895 L 568.236 131.459 L 569.240 131.000 L 570.233 130.515 L 571.213 130.006 L 572.180 129.474 L 573.135 128.918 L 574.075 128.338 L 575.001 127.736 L 575.911 127.111 L 576.806 126.464 L 577.685 125.796 L 578.548 125.105 L 579.393 124.394 L 580.220 123.663 L 581.029 122.911 L 581.820 122.140 L 582.591 121.349 L 583.343 120.540 L 584.074 119.713 L 584.785 118.868 L 585.476 118.005 L 586.144 117.126 L 586.791 116.231 L 587.416 115.321 L 588.018 114.395 L 588.598 113.455 L 589.154 112.500 L 589.686 111.533 L 590.195 110.553 L 590.680 109.560 L 591.139 108.556 L 591.575 107.541 L 591.985 106.515 L 592.369 105.480 L 592.729 104.436 L 593.062 103.383 L 593.370 102.322 L 593.651 101.254 L 593.907 100.180 L 594.135 99.099 L 594.337 98.013 L 594.513 96.923 L 594.662 95.828 L 594.783 94.731 L 594.878 93.630 L 594.946 92.528 L 594.986 91.424 L 595.000 90.320 L 594.986 89.216 L 594.946 88.112 L 594.878 87.010 L 594.783 85.909 L 594.662 84.812 L 594.513 83.717 L 594.337 82.627 L 594.135 81.541 L 593.907 80.460 L 593.651 79.386 L 593.370 78.318 L 593.062 77.257 L 592.729 76.204 L 592.369 75.160 L 591.985 74.125 L 591.575 73.099 L 591.139 72.084 L 590.680 71.080 L 590.195 70.087 L 589.686 69.107 L 589.154 68.140 L 588.598 67.185 L 588.018 66.245 L 587.416 65.319 L 586.791 64.409 L 586.144 63.514 L 585.476 62.635 L 584.785 61.772 L 584.074 60.927 L 583.343 60.100 L 582.591 59.291 L 581.820 58.500 L 581.029 57.729 L 580.220 56.977 L 579.393 56.246 L 578.548 55.535 L 577.685 54.844 L 576.806 54.176 L 575.911 53.529 L 575.001 52.904 L 574.075 52.302 L 573.135 51.722 L 572.180 51.166 L 571.213 50.634 L 570.233 50.125 L 569.240 49.640 L 568.236 49.181 L 567.221 48.745 L 566.195 48.335 L 565.160 47.951 L 564.116 47.591 L 563.063 47.258 L 562.002 46.950 L 560.934 46.669 L 559.860 46.413 L 558.779 46.185 L 557.693 45.983 L 556.603 45.807 L 555.508 45.658 L 554.411 45.537 L 553.310 45.442 L 552.208 45.374 L 551.104 45.334 L 550.000 45.320 L 153.840 45.320 L 153.840 45.320 L 152.736 45.334 L 151.632 45.374 L 150.530 45.442 L 149.429 45.537 L 149.092 45.574 L 148.332 45.658 L 147.580 45.760 L 147.237 45.807 L 146.147 45.983 L 145.061 46.185 L 144.895 46.220 L 143.980 46.413 L 142.906 46.669 L 141.838 46.950 L 141.268 47.115 L 140.777 47.258 L 139.724 47.591 L 138.680 47.951 L 137.645 48.335 L 137.132 48.540 L 136.619 48.745 L 136.352 48.860 L 135.604 49.181 L 134.600 49.640 L 133.607 50.125 L 132.627 50.634 L 131.660 51.166 L 131.115 51.484 L 130.705 51.722 L 129.765 52.302 L 128.839 52.904 L 127.929 53.529 L 127.563 53.793 L 127.034 54.176 L 126.155 54.844 L 125.691 55.216 L 125.292 55.535 L 124.447 56.246 L 123.620 56.977 L 122.811 57.729 L 122.020 58.500 L 121.249 59.291 L 120.497 60.100 L 120.131 60.514 L 119.766 60.927 L 119.055 61.772 L 118.364 62.635 L 117.954 63.174 L 117.696 63.514 L 117.516 63.762 L 117.049 64.409 L 116.424 65.319 L 115.822 66.245 L 115.242 67.185 L 114.918 67.742 L 114.686 68.140 L 114.447 68.575 L 114.154 69.107 L 113.645 70.087 L 113.160 71.080 L 112.701 72.084 L 112.514 72.519 L 112.265 73.099 L 111.855 74.125 L 111.471 75.160 L 111.300 75.657 L 111.111 76.204 L 111.006 76.538 L 110.778 77.257 L 110.470 78.318 L 110.189 79.386 L 109.933 80.460 L 109.705 81.541 L 109.604 82.084 L 109.503 82.627 L 109.415 83.172 L 109.327 83.717 L 109.178 84.812 L 109.165 84.933 L 109.057 85.909 L 108.977 86.835 L 108.962 87.010 L 108.894 88.112 L 108.854 89.216 L 108.840 90.320 L 108.840 367.376 L 108.854 368.480 L 108.894 369.584 L 108.962 370.686 L 109.057 371.787 L 109.178 372.884 L 109.327 373.979 L 109.503 375.069 L 109.705 376.155 L 109.933 377.236 L 110.189 378.310 L 110.470 379.378 L 110.778 380.439 L 111.111 381.492 L 111.471 382.536 L 111.855 383.571 L 112.265 384.597 L 112.701 385.612 L 113.160 386.616 L 113.645 387.609 L 114.154 388.589 L 114.686 389.556 L 115.242 390.511 L 115.822 391.451 L 116.424 392.377 L 117.049 393.287 L 117.696 394.182 L 118.364 395.061 L 119.055 395.924 L 119.766 396.769 L 120.497 397.596 L 121.249 398.405 L 122.020 399.196 L 122.811 399.967 L 123.620 400.719 L 124.447 401.450 L 125.292 402.161 L 126.155 402.852 L 127.034 403.520 L 127.929 404.167 L 128.839 404.792 L 129.765 405.394 L 130.705 405.974 L 131.660 406.530 L 132.627 407.062 L 133.607 407.571 L 134.600 408.056 L 135.604 408.515 L 136.619 408.951 L 137.645 409.361 L 138.680 409.745 L 139.724 410.105 L 140.777 410.438 L 141.838 410.746 L 142.906 411.027 L 143.980 411.283 L 145.061 411.511 L 146.147 411.713 L 147.237 411.889 L 148.332 412.038 L 149.429 412.159 L 150.530 412.254 L 151.632 412.322 L 152.736 412.362 L 153.840 412.376 L 368.712 412.376 L 370.499 412.387 L 372.151 412.417 L 373.801 412.467 L 375.451 412.537 L 377.100 412.627 L 378.748 412.737 L 380.394 412.867 L 382.039 413.017 L 383.682 413.187 L 385.322 413.377 L 386.960 413.587 L 388.596 413.817 L 390.228 414.066 L 391.858 414.335 L 393.484 414.624 L 395.106 414.933 L 396.725 415.261 L 398.339 415.609 L 399.949 415.977 L 401.554 416.364 L 403.155 416.770 L 404.751 417.196 L 406.341 417.641 L 407.926 418.105 L 409.505 418.589 L 411.078 419.092 L 412.645 419.613 L 414.205 420.154 L 415.759 420.714 L 417.306 421.292 L 418.846 421.889 L 420.378 422.505 L 421.903 423.139 L 423.420 423.792 L 424.929 424.463 L 426.430 425.153 L 427.922 425.860 L 429.405 426.586 L 430.880 427.329 L 432.345 428.090 L 433.802 428.869 L 435.248 429.666 L 436.685 430.480 L 438.112 431.312 L 439.529 432.161 L 440.935 433.026 L 442.331 433.909 L 443.715 434.809 L 445.089 435.725 L 446.452 436.658 L 447.803 437.608 L 449.143 438.574 L 450.470 439.556 L 451.786 440.554 L 453.090 441.568 L 454.381 442.598 L 455.659 443.643 L 456.925 444.703 L 458.178 445.779 L 459.418 446.871 L 460.644 447.977 L 461.857 449.097 L 463.056 450.233 L 464.242 451.383 L 465.413 452.547 L 466.570 453.725 L 467.713 454.918 L 468.841 456.124 L 469.954 457.343 L 471.053 458.576 L 472.136 459.823 L 473.205 461.082 L 474.258 462.354 L 475.295 463.639 L 476.317 464.937 L 477.323 466.246 L 478.313 467.568 L 479.287 468.902 L 480.245 470.247 L 481.186 471.604 L 482.111 472.972 L 483.019 474.352 L 483.910 475.742 L 484.785 477.143 L 485.642 478.554 L 486.482 479.976 L 487.305 481.408 L 488.110 482.850 L 488.898 484.301 L 489.668 485.762 L 490.421 487.232 L 491.155 488.711 L 491.872 490.199 L 492.570 491.696 L 493.251 493.201 L 493.913 494.714 L 494.556 496.235 L 495.181 497.763 L 495.788 499.299 L 496.375 500.843 L 496.944 502.393 L 497.495 503.950 L 498.026 505.514 L 498.538 507.084 L 499.031 508.660 L 499.505 510.242 L 499.960 511.829 L 500.395 513.422 L 500.812 515.021 L 501.208 516.624 L 501.586 518.232 L 501.943 519.844 L 502.281 521.460 L 502.600 523.081 L 502.899 524.705 L 503.178 526.333 L 503.437 527.964 L 503.677 529.598 L 503.896 531.234 L 504.096 532.874 L 504.276 534.515 L 504.436 536.159 L 504.576 537.805 L 504.696 539.452 L 504.796 541.100 L 504.876 542.750 L 504.937 544.400 L 504.977 546.051 L 504.997 547.702 L 504.997 549.354 L 504.977 551.005 L 504.937 552.656 L 504.876 554.306 L 504.796 555.956 L 504.696 557.604 L 504.576 559.251 L 504.436 560.897 L 504.276 562.541 L 504.096 564.182 L 503.896 565.822 L 503.677 567.458 L 503.437 569.092 L 503.178 570.723 L 502.899 572.351 L 502.600 573.975 L 502.281 575.596 L 501.943 577.212 L 501.586 578.824 L 501.208 580.432 L 500.812 582.035 L 500.395 583.634 L 499.960 585.227 L 499.505 586.814 L 499.031 588.396 L 498.538 589.972 L 498.026 591.542 L 497.495 593.106 L 496.944 594.663 L 496.375 596.213 L 495.788 597.757 L 495.181 599.293 L 494.556 600.821 L 493.913 602.342 L 493.251 603.855 L 492.570 605.360 L 491.872 606.857 L 491.155 608.345 L 490.421 609.824 L 489.668 611.294 L 488.898 612.755 L 488.110 614.206 L 487.305 615.648 L 486.482 617.080 L 485.642 618.502 L 484.785 619.913 L 483.910 621.314 L 483.019 622.704 L 482.111 624.084 L 481.186 625.452 L 480.245 626.809 L 479.287 628.154 L 478.313 629.488 L 477.323 630.810 L 476.317 632.119 L 475.295 633.417 L 474.258 634.702 L 473.205 635.974 L 472.136 637.233 L 471.053 638.480 L 469.954 639.713 L 468.841 640.932 L 467.713 642.138 L 466.570 643.331 L 465.413 644.509 L 464.242 645.673 L 463.056 646.823 L 461.857 647.959 L 460.644 649.079 L 459.418 650.185 L 458.178 651.277 L 456.925 652.353 L 455.659 653.413 L 454.381 654.458 L 453.090 655.488 L 451.786 656.502 L 450.470 657.500 L 449.143 658.482 L 447.803 659.448 L 446.452 660.398 L 445.089 661.331 L 443.715 662.247 L 442.331 663.147 L 440.935 664.030 L 439.529 664.895 L 438.112 665.744 L 436.685 666.576 L 435.248 667.390 L 433.802 668.187 L 432.345 668.966 L 430.880 669.727 L 429.405 670.470 L 427.922 671.196 L 426.430 671.903 L 424.929 672.593 L 423.420 673.264 L 421.903 673.917 L 420.378 674.551 L 418.846 675.167 L 417.306 675.764 L 415.759 676.342 L 414.205 676.902 L 412.645 677.443 L 411.078 677.964 L 409.505 678.467 L 407.926 678.951 L 406.341 679.415 L 404.751 679.860 L 403.155 680.286 L 401.554 680.692 L 399.949 681.079 L 398.339 681.447 L 396.725 681.795 L 395.106 682.123 L 393.484 682.432 L 391.858 682.721 L 390.228 682.990 L 388.596 683.239 L 386.960 683.469 L 385.322 683.679 L 383.682 683.869 L 382.039 684.039 L 380.394 684.189 L 378.748 684.319 L 377.100 684.429 L 375.451 684.519 L 373.801 684.589 L 372.151 684.639 L 370.499 684.669 L 368.712 684.680 L 153.840 684.680 L 152.736 684.694 L 151.632 684.734 L 150.530 684.802 L 149.429 684.897 L 148.332 685.018 L 147.237 685.167 L 146.147 685.343 L 145.061 685.545 L 143.980 685.773 L 142.906 686.029 L 141.838 686.310 L 140.777 686.618 L 139.724 686.951 L 138.680 687.311 L 137.645 687.695 L 136.619 688.105 L 135.604 688.541 L 134.600 689.000 L 133.607 689.485 L 132.627 689.994 L 131.660 690.526 L 130.705 691.082 L 129.765 691.662 L 128.839 692.264 L 127.929 692.889 L 127.034 693.536 L 126.155 694.204 L 125.292 694.895 L 124.447 695.606 L 123.620 696.337 L 122.811 697.089 L 122.020 697.860 L 121.249 698.651 L 120.497 699.460 L 119.766 700.287 L 119.055 701.132 L 118.364 701.995 L 117.696 702.874 L 117.049 703.769 L 116.424 704.679 L 115.822 705.605 L 115.242 706.545 L 114.686 707.500 L 114.154 708.467 L 113.645 709.447 L 113.160 710.440 L 112.701 711.444 L 112.265 712.459 L 111.855 713.485 L 111.471 714.520 L 111.111 715.564 L 110.778 716.617 L 110.470 717.678 L 110.189 718.746 L 109.933 719.820 L 109.705 720.901 L 109.503 721.987 L 109.327 723.077 L 109.178 724.172 L 109.057 725.269 L 108.962 726.370 L 108.894 727.472 L 108.854 728.576 L 108.840 729.680 L 108.854 730.784 L 108.894 731.888 L 108.962 732.990 L 109.057 734.091 L 109.178 735.188 L 109.327 736.283 L 109.503 737.373 L 109.705 738.459 L 109.933 739.540 L 110.189 740.614 L 110.470 741.682 L 110.778 742.743 L 111.111 743.796 L 111.471 744.840 L 111.855 745.875 L 112.265 746.901 L 112.701 747.916 L 113.160 748.920 L 113.645 749.913 L 114.154 750.893 L 114.686 751.860 L 115.242 752.815 L 115.822 753.755 L 116.424 754.681 L 117.049 755.591 L 117.696 756.486 L 118.364 757.365 L 119.055 758.228 L 119.766 759.073 L 120.497 759.900 L 121.249 760.709 L 122.020 761.500 L 122.811 762.271 L 123.620 763.023 L 124.447 763.754 L 125.292 764.465 L 126.155 765.156 L 127.034 765.824 L 127.929 766.471 L 128.839 767.096 L 129.765 767.698 L 130.705 768.278 L 131.660 768.834 L 132.627 769.366 L 133.607 769.875 L 134.600 770.360 L 135.604 770.819 L 136.619 771.255 L 137.645 771.665 L 138.680 772.049 L 139.724 772.409 L 140.777 772.742 L 141.838 773.050 L 142.906 773.331 L 143.980 773.587 L 145.061 773.815 L 146.147 774.017 L 147.237 774.193 L 148.332 774.342 L 149.429 774.463 L 150.530 774.558 L 151.632 774.626 L 152.736 774.666 L 153.840 774.680 L 368.848 774.680 L 368.984 774.678 L 369.121 774.679 L 371.318 774.666 L 371.864 774.659 L 374.061 774.619 L 374.607 774.606 L 376.803 774.539 L 377.348 774.520 L 379.544 774.426 L 380.089 774.400 L 382.283 774.280 L 382.828 774.247 L 385.020 774.100 L 385.565 774.061 L 387.755 773.888 L 388.299 773.841 L 390.487 773.642 L 391.030 773.589 L 393.216 773.363 L 393.759 773.303 L 395.941 773.051 L 396.483 772.985 L 398.663 772.705 L 399.204 772.633 L 401.380 772.327 L 401.920 772.248 L 404.092 771.916 L 404.631 771.831 L 406.799 771.472 L 407.337 771.380 L 409.500 770.996 L 410.037 770.897 L 412.196 770.486 L 412.731 770.381 L 414.885 769.944 L 415.419 769.832 L 417.567 769.369 L 418.100 769.251 L 420.242 768.762 L 420.773 768.637 L 422.909 768.123 L 423.439 767.991 L 425.569 767.451 L 426.097 767.313 L 428.220 766.747 L 428.747 766.603 L 430.863 766.010 L 431.387 765.860 L 433.496 765.242 L 434.019 765.086 L 436.120 764.442 L 436.641 764.279 L 438.734 763.610 L 439.253 763.441 L 441.338 762.747 L 441.854 762.571 L 443.931 761.852 L 444.445 761.670 L 446.513 760.925 L 447.025 760.737 L 449.083 759.968 L 449.593 759.773 L 451.642 758.979 L 452.150 758.779 L 454.188 757.959 L 454.694 757.753 L 456.722 756.909 L 457.225 756.696 L 459.243 755.827 L 459.744 755.609 L 461.751 754.716 L 462.249 754.491 L 464.245 753.574 L 464.740 753.343 L 466.725 752.402 L 467.217 752.165 L 469.191 751.199 L 469.680 750.957 L 471.642 749.967 L 472.128 749.719 L 474.078 748.706 L 474.561 748.451 L 476.498 747.415 L 476.978 747.154 L 478.903 746.094 L 479.379 745.828 L 481.291 744.745 L 481.764 744.473 L 483.663 743.367 L 484.132 743.089 L 486.017 741.960 L 486.484 741.676 L 488.355 740.524 L 488.818 740.235 L 490.675 739.060 L 491.134 738.766 L 492.977 737.569 L 493.433 737.269 L 495.261 736.049 L 495.713 735.744 L 497.526 734.502 L 497.975 734.191 L 499.772 732.928 L 500.217 732.611 L 501.999 731.326 L 502.440 731.004 L 504.207 729.698 L 504.644 729.370 L 506.394 728.042 L 506.827 727.710 L 508.562 726.361 L 508.990 726.023 L 510.708 724.653 L 511.133 724.310 L 512.834 722.920 L 513.255 722.571 L 514.939 721.160 L 515.355 720.807 L 517.022 719.376 L 517.434 719.017 L 519.083 717.566 L 519.491 717.203 L 521.123 715.731 L 521.526 715.363 L 523.140 713.872 L 523.538 713.499 L 525.134 711.988 L 525.528 711.610 L 527.105 710.080 L 527.494 709.698 L 529.053 708.149 L 529.438 707.762 L 530.977 706.194 L 531.357 705.802 L 532.878 704.216 L 533.253 703.820 L 534.754 702.215 L 535.124 701.814 L 536.606 700.191 L 536.971 699.786 L 538.433 698.145 L 538.794 697.735 L 540.235 696.077 L 540.591 695.663 L 542.012 693.988 L 542.363 693.569 L 543.764 691.876 L 544.110 691.454 L 545.490 689.744 L 545.830 689.318 L 547.190 687.591 L 547.525 687.161 L 548.863 685.418 L 549.193 684.983 L 550.511 683.224 L 550.835 682.786 L 552.131 681.011 L 552.450 680.568 L 553.724 678.778 L 554.038 678.332 L 555.291 676.526 L 555.599 676.076 L 556.830 674.255 L 557.132 673.801 L 558.341 671.966 L 558.638 671.508 L 559.824 669.658 L 560.116 669.197 L 561.279 667.333 L 561.565 666.868 L 562.706 664.990 L 562.987 664.522 L 564.104 662.630 L 564.379 662.159 L 565.474 660.254 L 565.743 659.779 L 566.815 657.860 L 567.078 657.382 L 568.126 655.451 L 568.384 654.970 L 569.409 653.026 L 569.660 652.542 L 570.661 650.586 L 570.907 650.098 L 571.884 648.130 L 572.124 647.640 L 573.078 645.660 L 573.311 645.167 L 574.241 643.176 L 574.469 642.680 L 575.374 640.678 L 575.595 640.179 L 576.476 638.166 L 576.692 637.665 L 577.548 635.641 L 577.758 635.137 L 578.589 633.103 L 578.793 632.597 L 579.600 630.553 L 579.797 630.044 L 580.579 627.991 L 580.770 627.479 L 581.528 625.417 L 581.712 624.903 L 582.444 622.831 L 582.623 622.315 L 583.330 620.235 L 583.502 619.717 L 584.184 617.628 L 584.350 617.108 L 585.006 615.011 L 585.166 614.489 L 585.797 612.384 L 585.950 611.861 L 586.555 609.748 L 586.703 609.223 L 587.282 607.103 L 587.423 606.576 L 587.976 604.449 L 588.111 603.920 L 588.639 601.787 L 588.766 601.257 L 589.268 599.117 L 589.390 598.585 L 589.866 596.440 L 589.981 595.907 L 590.431 593.756 L 590.539 593.221 L 590.963 591.065 L 591.065 590.529 L 591.463 588.368 L 591.558 587.830 L 591.929 585.664 L 592.018 585.126 L 592.363 582.956 L 592.446 582.416 L 592.765 580.242 L 592.840 579.702 L 593.133 577.524 L 593.202 576.983 L 593.468 574.801 L 593.531 574.259 L 593.770 572.075 L 593.826 571.532 L 594.039 569.345 L 594.089 568.801 L 594.275 566.612 L 594.318 566.068 L 594.478 563.876 L 594.514 563.332 L 594.647 561.139 L 594.677 560.594 L 594.784 558.399 L 594.807 557.853 L 594.887 555.658 L 594.903 555.112 L 594.957 552.915 L 594.967 552.370 L 594.993 550.172 L 594.997 549.627 L 594.997 547.429 L 594.993 546.884 L 594.967 544.686 L 594.957 544.141 L 594.903 541.944 L 594.887 541.398 L 594.807 539.203 L 594.784 538.657 L 594.677 536.462 L 594.647 535.917 L 594.514 533.724 L 594.478 533.180 L 594.318 530.988 L 594.275 530.444 L 594.089 528.255 L 594.039 527.711 L 593.826 525.524 L 593.770 524.981 L 593.531 522.797 L 593.468 522.255 L 593.202 520.073 L 593.133 519.532 L 592.840 517.354 L 592.765 516.814 L 592.446 514.640 L 592.363 514.100 L 592.018 511.930 L 591.929 511.392 L 591.558 509.226 L 591.463 508.688 L 591.065 506.527 L 590.963 505.991 L 590.539 503.835 L 590.431 503.300 L 589.981 501.149 L 589.866 500.616 L 589.390 498.471 L 589.268 497.939 L 588.766 495.799 L 588.639 495.269 L 588.111 493.136 L 587.976 492.607 L 587.423 490.480 L 587.282 489.953 L 586.703 487.833 L 586.555 487.308 L 585.950 485.195 L 585.797 484.672 L 585.166 482.567 L 585.006 482.045 L 584.350 479.948 L 584.184 479.428 L 583.502 477.339 L 583.330 476.821 L 582.623 474.741 L 582.444 474.225 L 581.712 472.153 L 581.528 471.639 L 580.770 469.577 L 580.579 469.065 L 579.797 467.012 L 579.600 466.503 L 578.793 464.459 L 578.589 463.953 L 577.758 461.919 L 577.548 461.415 L 576.692 459.391 L 576.476 458.890 L 575.595 456.877 L 575.374 456.378 L 574.469 454.376 L 574.241 453.880 L 573.311 451.889 L 573.078 451.396 L 572.124 449.416 L 571.884 448.926 L 570.907 446.958 L 570.661 446.470 L 569.660 444.514 L 569.409 444.030 L 568.384 442.086 L 568.126 441.605 L 567.078 439.674 L 566.815 439.196 L 565.743 437.277 L 565.474 436.802 L 564.379 434.897 L 564.104 434.426 L 562.987 432.534 L 562.706 432.066 L 561.565 430.188 L 561.279 429.723 L 560.116 427.859 L 559.824 427.398 L 558.638 425.548 L 558.341 425.090 L 557.132 423.255 L 556.830 422.801 L 555.599 420.980 L 555.291 420.530 L 554.038 418.724 L 553.724 418.278 L 552.450 416.488 L 552.131 416.045 L 550.835 414.270 L 550.511 413.832 L 549.193 412.073 L 548.863 411.638 L 547.525 409.895 L 547.190 409.465 L 545.830 407.738 L 545.490 407.312 L 544.110 405.602 L 543.764 405.180 L 542.363 403.487 L 542.012 403.068 L 540.591 401.393 L 540.235 400.979 L 538.794 399.321 L 538.433 398.911 L 536.971 397.270 L 536.606 396.865 L 535.124 395.242 L 534.754 394.841 L 533.253 393.236 L 532.878 392.840 L 531.357 391.254 L 530.977 390.862 L 529.438 389.294 L 529.053 388.907 L 527.494 387.358 L 527.105 386.976 L 525.528 385.446 L 525.134 385.068 L 523.538 383.557 L 523.140 383.184 L 521.526 381.693 L 521.123 381.325 L 519.491 379.853 L 519.083 379.490 L 517.434 378.039 L 517.022 377.680 L 515.355 376.249 L 514.939 375.896 L 513.255 374.485 L 512.834 374.136 L 511.133 372.746 L 510.708 372.403 L 508.990 371.033 L 508.562 370.695 L 506.827 369.346 L 506.394 369.014 L 504.644 367.686 L 504.207 367.358 L 502.440 366.052 L 501.999 365.730 L 500.217 364.445 L 499.772 364.128 L 497.975 362.865 L 497.526 362.554 L 495.713 361.312 L 495.261 361.007 L 493.433 359.787 L 492.977 359.487 L 491.134 358.290 L 490.675 357.996 L 488.818 356.821 L 488.355 356.532 L 486.484 355.380 L 486.017 355.096 L 484.132 353.967 L 483.663 353.689 L 481.764 352.583 L 481.291 352.311 L 479.379 351.228 L 478.903 350.962 L 476.978 349.902 L 476.498 349.641 L 474.561 348.605 L 474.078 348.350 L 472.128 347.337 L 471.642 347.089 L 469.680 346.099 L 469.191 345.857 L 467.217 344.891 L 466.725 344.654 L 464.740 343.713 L 464.245 343.482 L 462.249 342.565 L 461.751 342.340 L 459.744 341.447 L 459.243 341.229 L 457.225 340.360 L 456.722 340.147 L 454.694 339.303 L 454.188 339.097 L 452.150 338.277 L 451.642 338.077 L 449.593 337.283 L 449.083 337.088 L 447.025 336.319 L 446.513 336.131 L 444.445 335.386 L 443.931 335.204 L 441.854 334.485 L 441.338 334.309 L 439.253 333.615 L 438.734 333.446 L 436.641 332.777 L 436.120 332.614 L 434.019 331.970 L 433.496 331.814 L 431.387 331.196 L 430.863 331.046 L 428.747 330.453 L 428.220 330.309 L 426.097 329.743 L 425.569 329.605 L 423.439 329.065 L 422.909 328.933 L 420.773 328.419 L 420.242 328.294 L 418.100 327.805 L 417.567 327.687 L 415.419 327.224 L 414.885 327.112 L 412.731 326.675 L 412.196 326.570 L 410.037 326.159 L 409.500 326.060 L 407.337 325.676 L 406.799 325.584 L 404.631 325.225 L 404.092 325.140 L 401.920 324.808 L 401.380 324.729 L 399.204 324.423 L 398.663 324.351 L 396.483 324.071 L 395.941 324.005 L 393.759 323.753 L 393.216 323.693 L 391.030 323.467 L 390.487 323.414 L 388.299 323.215 L 387.755 323.168 L 385.565 322.995 L 385.020 322.956 L 382.828 322.809 L 382.283 322.776 L 380.089 322.656 L 379.544 322.630 L 377.348 322.536 L 376.803 322.517 L 374.607 322.450 L 374.061 322.437 L 371.864 322.397 L 371.318 322.390 L 369.121 322.377 L 368.984 322.378 L 368.848 322.376 L 198.840 322.376 L 198.840 135.320 L 550.000 135.320 L 551.104 135.306 L 552.208 135.266 Z" fill="black" fill-rule="evenodd"/>
</svg>
