<svg xmlns="http://www.w3.org/2000/svg" viewBox="0 0 700.000 1000">
  <path d="M 261.878 221.436 L 262.989 218.594 L 264.151 215.820 L 265.364 213.113 L 266.625 210.472 L 267.934 207.896 L 269.289 205.384 L 270.689 202.934 L 272.132 200.547 L 273.618 198.220 L 275.146 195.955 L 276.714 193.748 L 278.321 191.601 L 279.967 189.512 L 281.650 187.480 L 283.370 185.506 L 285.126 183.588 L 286.917 181.726 L 288.741 179.920 L 290.599 178.170 L 292.489 176.474 L 294.410 174.834 L 296.361 173.248 L 298.342 171.717 L 300.351 170.240 L 302.388 168.817 L 304.452 167.449 L 306.541 166.136 L 308.655 164.876 L 310.792 163.672 L 312.951 162.522 L 315.132 161.426 L 317.333 160.385 L 319.553 159.400 L 321.790 158.469 L 324.045 157.593 L 326.314 156.773 L 328.598 156.009 L 330.895 155.300 L 333.203 154.646 L 335.521 154.049 L 337.848 153.507 L 340.183 153.022 L 342.524 152.592 L 344.870 152.219 L 347.219 151.903 L 349.571 151.642 L 351.924 151.438 L 354.276 151.290 L 356.626 151.199 L 358.973 151.163 L 361.316 151.184 L 363.653 151.262 L 365.983 151.395 L 368.305 151.585 L 370.618 151.830 L 372.920 152.131 L 375.211 152.488 L 377.489 152.901 L 379.754 153.370 L 382.004 153.894 L 384.238 154.473 L 386.456 155.108 L 388.657 155.799 L 390.839 156.545 L 393.003 157.346 L 395.147 158.203 L 397.271 159.116 L 399.374 160.085 L 401.456 161.110 L 403.516 162.192 L 405.553 163.330 L 407.568 164.526 L 409.559 165.780 L 411.526 167.092 L 413.469 168.464 L 415.388 169.895 L 417.281 171.388 L 419.148 172.942 L 420.990 174.559 L 422.805 176.240 L 424.593 177.986 L 426.353 179.798 L 428.085 181.679 L 429.787 183.629 L 431.460 185.649 L 433.102 187.742 L 434.713 189.908 L 436.100 191.880 L 436.974 193.236 L 438.034 194.962 L 439.052 196.701 L 440.026 198.453 L 440.958 200.218 L 441.849 201.997 L 442.699 203.790 L 443.509 205.597 L 444.279 207.419 L 445.009 209.256 L 445.701 211.110 L 446.354 212.979 L 446.969 214.865 L 447.545 216.767 L 448.084 218.687 L 448.584 220.624 L 449.047 222.580 L 449.472 224.553 L 449.858 226.544 L 450.207 228.554 L 450.518 230.582 L 450.791 232.629 L 451.026 234.694 L 451.222 236.778 L 451.379 238.880 L 451.498 241.000 L 451.578 243.139 L 451.618 245.296 L 451.619 247.471 L 451.581 249.663 L 451.503 251.872 L 451.384 254.099 L 451.226 256.342 L 451.027 258.601 L 450.788 260.876 L 450.507 263.166 L 450.186 265.471 L 449.824 267.790 L 449.420 270.123 L 448.976 272.469 L 448.489 274.828 L 447.961 277.199 L 447.392 279.581 L 446.780 281.975 L 446.127 284.378 L 445.432 286.791 L 444.696 289.213 L 443.917 291.643 L 443.096 294.081 L 442.234 296.525 L 441.329 298.976 L 440.383 301.432 L 439.395 303.893 L 438.366 306.359 L 437.295 308.827 L 436.182 311.299 L 435.028 313.773 L 433.832 316.247 L 432.596 318.723 L 431.318 321.199 L 430.000 323.673 L 428.641 326.147 L 427.241 328.618 L 425.801 331.086 L 424.321 333.551 L 422.800 336.012 L 421.240 338.468 L 419.640 340.918 L 418.001 343.362 L 416.323 345.799 L 414.606 348.228 L 412.850 350.649 L 411.056 353.062 L 409.223 355.464 L 407.353 357.857 L 405.444 360.238 L 403.499 362.608 L 401.516 364.966 L 399.496 367.311 L 397.440 369.643 L 395.347 371.961 L 393.218 374.264 L 391.053 376.551 L 388.853 378.823 L 386.617 381.078 L 384.347 383.316 L 382.042 385.536 L 379.702 387.738 L 377.138 390.096 L 377.016 390.209 L 375.100 391.985 L 373.213 393.728 L 371.335 395.461 L 369.466 397.182 L 367.604 398.894 L 365.750 400.596 L 363.904 402.289 L 362.065 403.973 L 360.233 405.651 L 358.409 407.321 L 356.594 408.982 L 354.786 410.638 L 352.985 412.289 L 351.190 413.935 L 349.402 415.577 L 347.619 417.216 L 345.844 418.853 L 345.808 418.886 L 344.074 420.487 L 344.032 420.525 L 342.309 422.120 L 342.263 422.164 L 340.551 423.753 L 340.499 423.801 L 338.798 425.385 L 338.741 425.439 L 337.051 427.018 L 336.988 427.077 L 335.310 428.652 L 335.241 428.716 L 333.573 430.287 L 333.500 430.357 L 331.842 431.925 L 331.763 432.001 L 330.117 433.566 L 330.032 433.647 L 328.396 435.211 L 328.306 435.297 L 326.681 436.860 L 326.585 436.952 L 324.971 438.513 L 324.870 438.611 L 323.265 440.172 L 323.159 440.276 L 321.565 441.837 L 321.454 441.946 L 319.870 443.508 L 319.754 443.624 L 318.180 445.187 L 318.058 445.308 L 316.495 446.873 L 316.369 447.001 L 314.815 448.568 L 314.684 448.701 L 313.141 450.272 L 313.004 450.411 L 311.471 451.985 L 311.330 452.130 L 309.807 453.708 L 309.661 453.859 L 308.148 455.442 L 307.998 455.599 L 306.494 457.186 L 306.340 457.350 L 304.846 458.943 L 304.688 459.112 L 303.204 460.711 L 303.042 460.887 L 301.567 462.493 L 301.401 462.674 L 299.936 464.287 L 299.767 464.474 L 298.311 466.095 L 298.138 466.288 L 296.691 467.917 L 296.516 468.116 L 295.079 469.754 L 294.900 469.959 L 293.472 471.606 L 293.291 471.816 L 291.872 473.474 L 291.689 473.689 L 290.278 475.358 L 290.093 475.579 L 288.692 477.258 L 288.504 477.484 L 287.112 479.175 L 286.923 479.406 L 285.539 481.109 L 285.349 481.346 L 283.974 483.062 L 283.782 483.303 L 282.416 485.032 L 282.223 485.278 L 280.866 487.021 L 280.672 487.271 L 279.323 489.028 L 279.129 489.283 L 277.789 491.055 L 277.594 491.314 L 276.262 493.102 L 276.068 493.365 L 274.744 495.169 L 274.550 495.435 L 273.234 497.256 L 273.041 497.526 L 271.733 499.363 L 271.540 499.637 L 270.241 501.492 L 270.049 501.769 L 268.758 503.642 L 268.567 503.922 L 267.283 505.814 L 267.094 506.096 L 265.818 508.007 L 265.630 508.292 L 264.362 510.223 L 264.176 510.510 L 262.916 512.462 L 262.731 512.751 L 261.479 514.724 L 261.296 515.015 L 260.052 517.009 L 259.871 517.301 L 258.634 519.317 L 258.455 519.611 L 257.226 521.649 L 257.050 521.944 L 255.828 524.006 L 255.654 524.301 L 254.440 526.386 L 254.269 526.683 L 253.062 528.792 L 252.893 529.089 L 251.693 531.223 L 251.528 531.519 L 250.335 533.679 L 250.173 533.976 L 248.987 536.161 L 248.828 536.457 L 247.649 538.669 L 247.493 538.965 L 246.321 541.203 L 246.168 541.498 L 245.003 543.765 L 244.853 544.059 L 243.695 546.353 L 243.548 546.646 L 242.397 548.969 L 242.253 549.260 L 241.109 551.612 L 240.969 551.902 L 239.830 554.284 L 239.694 554.572 L 238.562 556.984 L 238.429 557.271 L 237.304 559.713 L 237.174 559.998 L 236.055 562.471 L 235.928 562.754 L 234.815 565.259 L 234.272 566.536 L 160.215 748.214 L 159.812 749.239 L 159.434 750.273 L 159.081 751.316 L 158.754 752.368 L 158.453 753.427 L 158.178 754.493 L 157.929 755.566 L 157.706 756.645 L 157.510 757.728 L 157.341 758.817 L 157.198 759.909 L 157.082 761.004 L 156.993 762.101 L 156.930 763.201 L 156.895 764.302 L 156.886 765.403 L 156.905 766.504 L 156.950 767.604 L 157.022 768.703 L 157.121 769.800 L 157.247 770.894 L 157.400 771.985 L 157.579 773.071 L 157.785 774.153 L 158.018 775.230 L 158.276 776.300 L 158.561 777.364 L 158.872 778.420 L 159.208 779.469 L 159.570 780.509 L 159.957 781.540 L 160.370 782.561 L 160.807 783.572 L 161.269 784.572 L 161.755 785.560 L 162.265 786.536 L 162.799 787.499 L 163.357 788.449 L 163.937 789.385 L 164.540 790.306 L 165.166 791.212 L 165.813 792.103 L 166.482 792.978 L 167.173 793.836 L 167.884 794.677 L 168.615 795.500 L 169.367 796.305 L 170.138 797.091 L 170.928 797.859 L 171.736 798.607 L 172.563 799.334 L 173.407 800.042 L 174.268 800.728 L 175.145 801.393 L 176.039 802.037 L 176.948 802.658 L 177.872 803.257 L 178.811 803.834 L 179.763 804.387 L 180.729 804.916 L 181.707 805.422 L 182.697 805.904 L 183.699 806.361 L 184.712 806.794 L 185.735 807.202 L 186.767 807.584 L 187.809 807.942 L 188.859 808.273 L 189.917 808.579 L 190.982 808.859 L 192.054 809.113 L 193.132 809.340 L 194.214 809.541 L 195.302 809.716 L 196.393 809.864 L 197.488 809.985 L 198.585 810.079 L 199.684 810.146 L 200.785 810.187 L 201.886 810.200 L 489.886 810.200 L 490.990 810.186 L 492.094 810.146 L 493.196 810.078 L 494.296 809.983 L 495.394 809.862 L 496.489 809.713 L 497.579 809.537 L 498.665 809.335 L 499.745 809.107 L 500.820 808.851 L 501.888 808.570 L 502.949 808.262 L 504.001 807.929 L 505.046 807.569 L 506.081 807.185 L 507.106 806.775 L 508.122 806.339 L 509.126 805.880 L 510.118 805.395 L 511.099 804.886 L 512.066 804.354 L 513.020 803.798 L 513.961 803.218 L 514.886 802.616 L 515.797 801.991 L 516.692 801.344 L 517.571 800.676 L 518.433 799.985 L 519.278 799.274 L 520.106 798.543 L 520.915 797.791 L 521.706 797.020 L 522.477 796.229 L 523.229 795.420 L 523.960 794.593 L 524.671 793.748 L 525.361 792.885 L 526.030 792.006 L 526.677 791.111 L 527.302 790.201 L 527.904 789.275 L 528.484 788.335 L 529.040 787.380 L 529.572 786.413 L 530.081 785.433 L 530.565 784.440 L 531.025 783.436 L 531.460 782.421 L 531.870 781.395 L 532.255 780.360 L 532.614 779.316 L 532.948 778.263 L 533.256 777.202 L 533.537 776.134 L 533.792 775.060 L 534.021 773.979 L 534.223 772.893 L 534.399 771.803 L 534.547 770.708 L 534.669 769.611 L 534.764 768.510 L 534.832 767.408 L 534.872 766.304 L 534.886 765.200 L 534.872 764.096 L 534.832 762.992 L 534.764 761.890 L 534.669 760.789 L 534.547 759.692 L 534.399 758.597 L 534.223 757.507 L 534.021 756.421 L 533.792 755.340 L 533.537 754.266 L 533.256 753.198 L 532.948 752.137 L 532.614 751.084 L 532.255 750.040 L 531.870 749.005 L 531.460 747.979 L 531.025 746.964 L 530.565 745.960 L 530.081 744.967 L 529.572 743.987 L 529.040 743.020 L 528.484 742.065 L 527.904 741.125 L 527.302 740.199 L 526.677 739.289 L 526.030 738.394 L 525.361 737.515 L 524.671 736.652 L 523.960 735.807 L 523.229 734.980 L 522.477 734.171 L 521.706 733.380 L 520.915 732.609 L 520.106 731.857 L 519.278 731.126 L 518.433 730.415 L 517.571 729.724 L 516.692 729.056 L 515.797 728.409 L 514.886 727.784 L 513.961 727.182 L 513.020 726.602 L 512.066 726.046 L 511.099 725.514 L 510.118 725.005 L 509.126 724.520 L 508.122 724.061 L 507.106 723.625 L 506.081 723.215 L 505.046 722.831 L 504.001 722.471 L 502.949 722.138 L 501.888 721.830 L 500.820 721.549 L 499.745 721.293 L 498.665 721.065 L 497.579 720.863 L 496.489 720.687 L 495.394 720.538 L 494.296 720.417 L 493.196 720.322 L 492.094 720.254 L 490.990 720.214 L 489.886 720.200 L 268.824 720.200 L 317.352 601.151 L 318.120 599.421 L 319.111 597.231 L 320.104 595.074 L 321.101 592.950 L 322.101 590.858 L 323.104 588.797 L 324.111 586.767 L 325.121 584.766 L 326.134 582.795 L 327.152 580.852 L 328.173 578.936 L 329.197 577.047 L 330.226 575.184 L 331.260 573.346 L 332.297 571.533 L 333.340 569.744 L 334.386 567.977 L 335.438 566.233 L 336.495 564.510 L 337.558 562.807 L 338.626 561.125 L 339.699 559.461 L 340.779 557.816 L 341.865 556.188 L 342.958 554.577 L 344.057 552.982 L 345.164 551.402 L 346.278 549.836 L 347.400 548.284 L 348.529 546.744 L 349.667 545.217 L 350.814 543.701 L 351.969 542.196 L 353.133 540.701 L 354.307 539.215 L 355.491 537.738 L 356.685 536.268 L 357.889 534.805 L 359.104 533.349 L 360.330 531.899 L 361.568 530.454 L 362.817 529.013 L 364.077 527.576 L 365.351 526.142 L 366.636 524.711 L 367.934 523.282 L 369.246 521.854 L 370.570 520.427 L 371.909 519.000 L 373.260 517.573 L 374.626 516.145 L 376.007 514.716 L 377.401 513.284 L 378.810 511.850 L 380.234 510.413 L 381.674 508.973 L 383.128 507.528 L 384.597 506.078 L 386.083 504.624 L 387.583 503.163 L 389.100 501.697 L 390.632 500.224 L 392.181 498.744 L 393.745 497.256 L 395.326 495.760 L 396.923 494.255 L 398.536 492.742 L 400.166 491.219 L 401.812 489.686 L 403.474 488.142 L 405.153 486.588 L 406.849 485.022 L 408.561 483.444 L 410.290 481.854 L 412.035 480.251 L 413.797 478.635 L 415.576 477.005 L 417.371 475.361 L 419.183 473.702 L 421.009 472.031 L 422.851 470.343 L 424.711 468.640 L 426.586 466.920 L 428.478 465.183 L 430.387 463.429 L 432.311 461.657 L 434.253 459.866 L 434.287 459.834 L 436.210 458.057 L 436.249 458.021 L 438.123 456.284 L 440.817 453.807 L 441.196 453.454 L 443.914 450.896 L 444.290 450.538 L 446.969 447.958 L 447.341 447.595 L 449.982 444.992 L 450.351 444.624 L 452.954 441.999 L 453.319 441.626 L 455.882 438.979 L 456.244 438.601 L 458.769 435.933 L 459.127 435.550 L 461.612 432.862 L 461.967 432.474 L 464.413 429.766 L 464.764 429.372 L 467.169 426.645 L 467.517 426.246 L 469.882 423.499 L 470.226 423.095 L 472.551 420.330 L 472.892 419.921 L 475.176 417.138 L 475.513 416.723 L 477.756 413.923 L 478.089 413.502 L 480.291 410.686 L 480.621 410.259 L 482.781 407.426 L 483.107 406.994 L 485.226 404.146 L 485.548 403.707 L 487.624 400.844 L 487.943 400.399 L 489.977 397.521 L 490.291 397.070 L 492.283 394.179 L 492.594 393.721 L 494.542 390.816 L 494.849 390.352 L 496.754 387.435 L 497.057 386.964 L 498.918 384.034 L 499.217 383.557 L 501.035 380.615 L 501.330 380.131 L 503.103 377.178 L 503.394 376.686 L 505.123 373.723 L 505.410 373.224 L 507.094 370.251 L 507.376 369.745 L 509.016 366.762 L 509.293 366.248 L 510.888 363.256 L 511.161 362.735 L 512.709 359.734 L 512.978 359.205 L 514.481 356.197 L 514.744 355.660 L 516.201 352.644 L 516.460 352.099 L 517.870 349.076 L 518.124 348.523 L 519.487 345.494 L 519.736 344.933 L 521.052 341.898 L 521.295 341.328 L 522.565 338.288 L 522.802 337.709 L 524.024 334.665 L 524.255 334.077 L 525.429 331.028 L 525.654 330.431 L 526.780 327.379 L 526.999 326.773 L 528.077 323.718 L 528.289 323.103 L 529.318 320.045 L 529.523 319.421 L 530.504 316.361 L 530.702 315.727 L 531.633 312.666 L 531.824 312.022 L 532.706 308.961 L 532.889 308.307 L 533.721 305.245 L 533.896 304.582 L 534.678 301.520 L 534.844 300.847 L 535.576 297.786 L 535.734 297.102 L 536.415 294.043 L 536.564 293.349 L 537.194 290.291 L 537.333 289.588 L 537.913 286.532 L 538.042 285.818 L 538.570 282.766 L 538.689 282.042 L 539.165 278.994 L 539.274 278.259 L 539.698 275.215 L 539.795 274.470 L 540.167 271.430 L 540.253 270.675 L 540.573 267.641 L 540.647 266.876 L 540.913 263.847 L 540.975 263.072 L 541.188 260.050 L 541.237 259.265 L 541.397 256.249 L 541.432 255.455 L 541.539 252.447 L 541.560 251.643 L 541.613 248.642 L 541.620 247.829 L 541.618 244.837 L 541.610 244.016 L 541.554 241.032 L 541.531 240.202 L 541.420 237.228 L 541.381 236.390 L 541.215 233.426 L 541.159 232.579 L 540.938 229.627 L 540.866 228.772 L 540.589 225.831 L 540.500 224.969 L 540.167 222.039 L 540.060 221.172 L 539.671 218.254 L 539.546 217.380 L 539.101 214.475 L 538.957 213.596 L 538.455 210.705 L 538.292 209.821 L 537.733 206.943 L 537.551 206.055 L 536.935 203.192 L 536.734 202.301 L 536.060 199.453 L 535.838 198.558 L 535.107 195.726 L 534.865 194.830 L 534.075 192.014 L 533.814 191.117 L 532.966 188.317 L 532.683 187.420 L 531.776 184.638 L 531.474 183.741 L 530.508 180.976 L 530.185 180.082 L 529.160 177.335 L 528.816 176.443 L 527.731 173.716 L 527.367 172.827 L 526.222 170.119 L 525.837 169.235 L 524.633 166.547 L 524.228 165.668 L 522.963 163.000 L 522.538 162.129 L 521.212 159.482 L 520.768 158.617 L 519.381 155.992 L 518.917 155.136 L 517.469 152.533 L 516.986 151.686 L 515.477 149.105 L 514.976 148.269 L 513.405 145.712 L 512.886 144.887 L 511.252 142.353 L 510.750 141.590 L 510.232 140.838 L 507.982 137.640 L 507.296 136.691 L 504.985 133.582 L 504.271 132.647 L 501.901 129.627 L 501.160 128.708 L 498.733 125.776 L 497.966 124.874 L 495.483 122.031 L 494.689 121.146 L 492.152 118.391 L 491.334 117.527 L 488.744 114.859 L 487.903 114.015 L 485.262 111.436 L 484.397 110.614 L 481.707 108.122 L 480.820 107.323 L 478.082 104.918 L 477.175 104.143 L 474.391 101.826 L 473.464 101.076 L 470.635 98.845 L 469.690 98.121 L 466.818 95.977 L 465.856 95.279 L 462.942 93.222 L 461.964 92.551 L 459.010 90.581 L 458.017 89.937 L 455.025 88.053 L 454.018 87.437 L 450.990 85.640 L 449.971 85.052 L 446.908 83.341 L 445.876 82.782 L 442.780 81.156 L 441.739 80.626 L 438.611 79.086 L 437.560 78.585 L 434.402 77.131 L 433.343 76.659 L 430.156 75.289 L 429.090 74.847 L 425.876 73.563 L 424.804 73.150 L 421.565 71.950 L 420.488 71.567 L 417.225 70.451 L 416.143 70.097 L 412.859 69.066 L 411.773 68.741 L 408.468 67.794 L 407.380 67.498 L 404.056 66.635 L 402.966 66.367 L 399.625 65.589 L 398.533 65.349 L 395.176 64.655 L 394.084 64.443 L 390.713 63.832 L 389.621 63.648 L 386.238 63.120 L 385.146 62.964 L 381.752 62.520 L 380.661 62.390 L 377.258 62.029 L 376.169 61.927 L 372.758 61.649 L 371.671 61.573 L 368.254 61.378 L 367.169 61.329 L 363.748 61.216 L 362.666 61.193 L 359.242 61.162 L 358.163 61.165 L 354.738 61.217 L 353.662 61.246 L 350.238 61.379 L 349.166 61.434 L 345.744 61.649 L 344.676 61.729 L 341.257 62.025 L 340.194 62.130 L 336.780 62.508 L 335.721 62.638 L 332.315 63.098 L 331.261 63.253 L 327.863 63.793 L 326.814 63.973 L 323.427 64.594 L 322.383 64.798 L 319.007 65.500 L 317.969 65.728 L 314.607 66.511 L 313.575 66.764 L 310.227 67.627 L 309.202 67.904 L 305.871 68.847 L 304.851 69.148 L 301.539 70.171 L 300.526 70.497 L 297.234 71.599 L 296.228 71.949 L 292.957 73.131 L 291.959 73.505 L 288.711 74.767 L 287.721 75.165 L 284.497 76.506 L 283.516 76.928 L 280.318 78.348 L 279.345 78.794 L 276.176 80.292 L 275.212 80.762 L 272.072 82.339 L 271.117 82.833 L 268.009 84.489 L 267.064 85.007 L 263.988 86.741 L 263.054 87.282 L 260.012 89.094 L 259.090 89.659 L 256.084 91.549 L 255.173 92.137 L 252.204 94.105 L 251.306 94.717 L 248.376 96.763 L 247.491 97.397 L 244.602 99.520 L 243.730 100.178 L 240.884 102.378 L 240.026 103.058 L 237.223 105.335 L 236.380 106.038 L 233.624 108.392 L 232.796 109.116 L 230.087 111.547 L 229.275 112.293 L 226.615 114.800 L 225.820 115.568 L 223.210 118.151 L 222.434 118.939 L 219.876 121.599 L 219.117 122.407 L 216.613 125.142 L 215.874 125.970 L 213.425 128.781 L 212.706 129.628 L 210.313 132.515 L 209.615 133.379 L 207.281 136.341 L 206.604 137.223 L 204.330 140.261 L 203.674 141.159 L 201.462 144.272 L 200.830 145.186 L 198.681 148.374 L 198.071 149.303 L 195.987 152.565 L 195.401 153.508 L 193.384 156.844 L 192.822 157.800 L 190.873 161.211 L 190.336 162.178 L 188.457 165.663 L 187.945 166.641 L 186.137 170.200 L 185.650 171.188 L 183.915 174.821 L 183.454 175.816 L 181.794 179.523 L 181.359 180.526 L 179.775 184.305 L 179.366 185.314 L 177.860 189.167 L 177.477 190.181 L 176.050 194.107 L 175.686 195.150 L 175.347 196.201 L 175.034 197.260 L 174.747 198.327 L 174.486 199.400 L 174.252 200.479 L 174.045 201.564 L 173.864 202.653 L 173.710 203.747 L 173.582 204.844 L 173.482 205.944 L 173.409 207.046 L 173.363 208.150 L 173.343 209.254 L 173.351 210.358 L 173.387 211.462 L 173.449 212.565 L 173.538 213.666 L 173.654 214.764 L 173.797 215.859 L 173.967 216.950 L 174.164 218.037 L 174.387 219.119 L 174.637 220.195 L 174.913 221.264 L 175.215 222.326 L 175.544 223.381 L 175.898 224.427 L 176.277 225.464 L 176.682 226.492 L 177.112 227.509 L 177.567 228.515 L 178.047 229.510 L 178.550 230.493 L 179.078 231.463 L 179.629 232.420 L 180.204 233.364 L 180.802 234.292 L 181.422 235.206 L 182.064 236.104 L 182.729 236.987 L 183.414 237.853 L 184.121 238.701 L 184.849 239.532 L 185.596 240.345 L 186.364 241.139 L 187.150 241.915 L 187.956 242.670 L 188.779 243.406 L 189.621 244.122 L 190.479 244.816 L 191.355 245.489 L 192.247 246.141 L 193.154 246.770 L 194.077 247.377 L 195.015 247.961 L 195.966 248.522 L 196.931 249.059 L 197.909 249.573 L 198.899 250.062 L 199.900 250.527 L 200.913 250.968 L 201.937 251.383 L 202.970 251.773 L 204.013 252.137 L 205.064 252.476 L 206.123 252.789 L 207.189 253.076 L 208.263 253.336 L 209.342 253.571 L 210.427 253.778 L 211.516 253.959 L 212.610 254.113 L 213.707 254.241 L 214.807 254.341 L 215.909 254.414 L 217.012 254.460 L 218.117 254.479 L 219.221 254.471 L 220.325 254.436 L 221.428 254.374 L 222.528 254.285 L 223.627 254.169 L 224.722 254.026 L 225.813 253.856 L 226.900 253.659 L 227.982 253.436 L 229.057 253.186 L 230.127 252.910 L 231.189 252.607 L 232.244 252.279 L 233.290 251.925 L 234.327 251.546 L 235.354 251.141 L 236.372 250.711 L 237.378 250.256 L 238.373 249.776 L 239.356 249.273 L 240.326 248.745 L 241.283 248.194 L 242.226 247.619 L 243.155 247.021 L 244.069 246.401 L 244.967 245.759 L 245.850 245.094 L 246.715 244.409 L 247.564 243.702 L 248.395 242.974 L 249.208 242.227 L 250.002 241.459 L 250.778 240.673 L 251.533 239.867 L 252.269 239.044 L 252.984 238.202 L 253.679 237.343 L 254.352 236.468 L 255.003 235.576 L 255.633 234.668 L 256.240 233.746 L 256.824 232.808 L 257.385 231.857 L 257.922 230.892 L 258.436 229.914 L 258.925 228.924 L 259.390 227.922 L 259.830 226.909 L 260.246 225.886 L 260.636 224.853 L 261.878 221.436 Z" fill="black" fill-rule="evenodd"/>
</svg>
