<svg xmlns="http://www.w3.org/2000/svg" viewBox="0 0 700.000 1000" width="700.000" height="1000">
  <path d="M 594.318 388.240 L 594.262 382.661 L 594.244 381.766 L 594.078 376.190 L 594.042 375.295 L 593.765 369.726 L 593.711 368.830 L 593.323 363.272 L 593.252 362.376 L 592.753 356.831 L 592.663 355.935 L 592.055 350.406 L 591.947 349.511 L 591.228 344.002 L 591.102 343.106 L 590.274 337.621 L 590.130 336.726 L 589.193 331.267 L 589.030 330.371 L 587.984 324.943 L 587.802 324.047 L 586.650 318.652 L 586.449 317.757 L 585.189 312.398 L 584.968 311.503 L 583.602 306.184 L 583.362 305.289 L 581.891 300.013 L 581.631 299.118 L 580.055 293.888 L 579.775 292.994 L 578.095 287.814 L 577.795 286.920 L 576.013 281.792 L 575.692 280.899 L 573.808 275.826 L 573.466 274.934 L 571.482 269.920 L 571.118 269.029 L 569.035 264.077 L 568.649 263.188 L 566.468 258.300 L 566.060 257.412 L 563.783 252.592 L 563.352 251.706 L 560.979 246.956 L 560.525 246.073 L 558.059 241.396 L 557.581 240.516 L 555.022 235.915 L 554.521 235.038 L 551.871 230.516 L 551.346 229.642 L 548.607 225.202 L 548.056 224.333 L 545.230 219.977 L 544.654 219.112 L 541.742 214.843 L 541.141 213.983 L 538.144 209.804 L 537.517 208.950 L 534.438 204.862 L 533.784 204.016 L 530.625 200.022 L 529.944 199.183 L 526.706 195.287 L 525.999 194.455 L 522.684 190.658 L 521.949 189.836 L 518.560 186.140 L 517.797 185.328 L 514.335 181.736 L 513.544 180.935 L 510.012 177.449 L 509.192 176.660 L 505.592 173.282 L 504.744 172.506 L 501.077 169.237 L 500.201 168.476 L 496.470 165.319 L 495.565 164.573 L 491.773 161.531 L 490.839 160.801 L 486.987 157.874 L 486.024 157.163 L 482.116 154.353 L 481.125 153.661 L 477.162 150.970 L 476.142 150.299 L 472.127 147.729 L 471.080 147.079 L 467.015 144.632 L 465.940 144.005 L 461.827 141.682 L 460.727 141.080 L 456.569 138.882 L 455.442 138.306 L 451.241 136.235 L 450.089 135.686 L 445.849 133.742 L 444.672 133.223 L 440.394 131.408 L 439.194 130.919 L 434.882 129.234 L 433.660 128.777 L 429.315 127.223 L 428.072 126.799 L 423.698 125.377 L 422.435 124.987 L 418.034 123.698 L 416.753 123.343 L 412.327 122.188 L 411.030 121.870 L 406.583 120.848 L 405.271 120.568 L 400.805 119.681 L 399.480 119.439 L 394.997 118.688 L 393.661 118.485 L 389.165 117.870 L 387.819 117.706 L 383.312 117.228 L 381.959 117.105 L 377.444 116.762 L 376.086 116.680 L 371.566 116.475 L 370.204 116.434 L 365.681 116.365 L 364.319 116.365 L 359.796 116.434 L 358.434 116.475 L 353.914 116.680 L 352.556 116.762 L 348.041 117.105 L 346.688 117.228 L 342.181 117.706 L 340.835 117.870 L 336.339 118.485 L 335.003 118.688 L 330.520 119.439 L 329.195 119.681 L 324.729 120.568 L 323.417 120.848 L 318.970 121.870 L 317.673 122.188 L 313.247 123.343 L 311.966 123.698 L 307.565 124.987 L 306.302 125.377 L 301.928 126.799 L 300.685 127.223 L 296.340 128.777 L 295.118 129.234 L 290.806 130.919 L 289.606 131.408 L 285.328 133.223 L 284.151 133.742 L 279.911 135.686 L 278.759 136.235 L 274.558 138.306 L 273.431 138.882 L 269.273 141.080 L 268.173 141.682 L 264.060 144.005 L 262.985 144.632 L 258.920 147.079 L 257.873 147.729 L 253.858 150.299 L 252.838 150.970 L 248.875 153.661 L 247.884 154.353 L 243.976 157.163 L 243.013 157.874 L 239.161 160.801 L 238.227 161.531 L 234.435 164.573 L 233.530 165.319 L 229.799 168.476 L 228.923 169.237 L 225.256 172.506 L 224.408 173.282 L 220.808 176.660 L 219.988 177.449 L 216.456 180.935 L 215.665 181.736 L 212.203 185.328 L 211.440 186.140 L 208.051 189.836 L 207.316 190.658 L 204.001 194.455 L 203.294 195.287 L 200.056 199.183 L 199.375 200.022 L 196.216 204.016 L 195.562 204.862 L 192.483 208.950 L 191.856 209.804 L 188.859 213.983 L 188.258 214.843 L 185.346 219.112 L 184.770 219.977 L 181.944 224.333 L 181.393 225.202 L 178.823 229.369 L 178.454 229.152 L 177.490 228.614 L 176.513 228.099 L 175.523 227.609 L 174.522 227.143 L 173.509 226.702 L 172.486 226.286 L 171.453 225.895 L 170.411 225.530 L 169.360 225.190 L 168.301 224.876 L 167.235 224.588 L 166.162 224.327 L 165.083 224.092 L 163.998 223.883 L 162.909 223.701 L 161.815 223.546 L 160.718 223.418 L 159.619 223.317 L 158.517 223.242 L 157.413 223.195 L 156.309 223.175 L 155.205 223.182 L 154.101 223.216 L 152.998 223.278 L 151.897 223.366 L 150.799 223.481 L 149.703 223.623 L 148.612 223.792 L 147.525 223.988 L 146.443 224.210 L 145.367 224.459 L 144.297 224.734 L 143.235 225.036 L 142.180 225.363 L 141.134 225.716 L 140.096 226.095 L 139.068 226.499 L 138.051 226.928 L 137.044 227.382 L 136.048 227.861 L 135.065 228.363 L 134.094 228.890 L 133.137 229.441 L 132.193 230.015 L 131.264 230.611 L 130.350 231.231 L 129.451 231.872 L 128.568 232.536 L 127.701 233.221 L 126.852 233.927 L 126.021 234.654 L 125.207 235.401 L 124.412 236.167 L 123.636 236.953 L 122.880 237.758 L 122.143 238.581 L 121.427 239.422 L 120.732 240.280 L 120.058 241.155 L 119.406 242.046 L 118.775 242.953 L 118.168 243.876 L 117.583 244.812 L 117.021 245.763 L 116.483 246.728 L 115.968 247.705 L 115.478 248.695 L 115.012 249.696 L 114.571 250.709 L 114.155 251.732 L 113.764 252.765 L 113.399 253.807 L 113.059 254.858 L 112.745 255.917 L 112.457 256.983 L 112.196 258.056 L 111.961 259.135 L 111.043 263.608 L 110.969 263.977 L 110.087 268.472 L 110.016 268.839 L 109.169 273.354 L 109.102 273.719 L 108.289 278.254 L 108.225 278.618 L 107.448 283.171 L 107.388 283.534 L 106.646 288.104 L 106.589 288.466 L 105.882 293.053 L 105.828 293.414 L 105.158 298.017 L 105.107 298.377 L 104.472 302.995 L 104.424 303.354 L 103.825 307.987 L 103.780 308.344 L 103.217 312.991 L 103.175 313.347 L 102.648 318.007 L 102.610 318.362 L 102.119 323.033 L 102.083 323.388 L 101.629 328.070 L 101.596 328.424 L 101.177 333.117 L 101.147 333.470 L 100.766 338.172 L 100.738 338.524 L 100.393 343.235 L 100.369 343.586 L 100.060 348.305 L 100.039 348.656 L 99.766 353.381 L 99.748 353.732 L 99.512 358.463 L 99.496 358.813 L 99.298 363.549 L 99.284 363.899 L 99.122 368.639 L 99.112 368.989 L 98.986 373.733 L 98.979 374.082 L 98.890 378.828 L 98.885 379.177 L 98.834 383.926 L 98.831 384.275 L 98.816 389.023 L 98.817 389.372 L 98.839 394.121 L 98.842 394.470 L 98.901 399.218 L 98.906 399.567 L 99.002 404.313 L 99.010 404.662 L 99.143 409.405 L 99.154 409.755 L 99.323 414.495 L 99.337 414.844 L 99.543 419.580 L 99.560 419.930 L 99.803 424.660 L 99.822 425.011 L 100.101 429.735 L 100.124 430.086 L 100.440 434.803 L 100.465 435.154 L 100.817 439.863 L 100.845 440.216 L 101.234 444.916 L 101.265 445.269 L 101.690 449.960 L 101.723 450.314 L 102.185 454.994 L 102.222 455.349 L 102.720 460.018 L 102.759 460.373 L 103.293 465.031 L 103.336 465.387 L 103.906 470.031 L 103.951 470.388 L 104.557 475.019 L 104.606 475.377 L 105.248 479.993 L 105.299 480.353 L 105.977 484.953 L 106.032 485.314 L 106.745 489.898 L 106.803 490.260 L 107.552 494.827 L 107.613 495.190 L 108.398 499.739 L 108.462 500.104 L 109.282 504.634 L 109.349 505.000 L 110.204 509.511 L 110.275 509.879 L 111.165 514.369 L 111.239 514.738 L 112.164 519.207 L 112.242 519.578 L 113.201 524.025 L 113.283 524.397 L 114.276 528.822 L 114.362 529.196 L 115.389 533.596 L 115.478 533.973 L 116.540 538.349 L 116.633 538.727 L 117.729 543.078 L 117.826 543.458 L 118.955 547.782 L 119.057 548.165 L 120.219 552.462 L 120.325 552.847 L 121.520 557.117 L 121.630 557.503 L 122.859 561.745 L 122.973 562.134 L 124.235 566.347 L 124.354 566.738 L 125.648 570.920 L 125.771 571.314 L 127.098 575.466 L 127.226 575.862 L 128.584 579.982 L 128.718 580.381 L 130.108 584.469 L 130.246 584.870 L 131.668 588.925 L 131.811 589.329 L 133.264 593.351 L 133.413 593.757 L 134.898 597.744 L 135.052 598.153 L 136.567 602.105 L 136.727 602.517 L 138.272 606.433 L 138.438 606.848 L 140.014 610.728 L 140.186 611.145 L 141.791 614.988 L 141.969 615.408 L 143.604 619.212 L 143.789 619.635 L 145.453 623.402 L 145.644 623.828 L 147.338 627.554 L 147.536 627.983 L 149.258 631.670 L 149.463 632.102 L 151.214 635.748 L 151.426 636.184 L 153.204 639.788 L 153.424 640.227 L 155.230 643.789 L 155.457 644.231 L 157.292 647.751 L 157.526 648.195 L 159.388 651.672 L 159.631 652.120 L 161.519 655.553 L 161.770 656.004 L 163.685 659.392 L 163.945 659.846 L 165.885 663.189 L 166.154 663.646 L 168.121 666.944 L 168.399 667.404 L 170.390 670.655 L 170.678 671.118 L 172.695 674.322 L 172.992 674.788 L 175.034 677.945 L 175.341 678.414 L 177.407 681.522 L 177.725 681.994 L 179.815 685.054 L 180.144 685.529 L 182.257 688.540 L 182.597 689.017 L 184.733 691.978 L 185.084 692.458 L 187.243 695.369 L 187.606 695.851 L 189.788 698.711 L 190.163 699.196 L 192.366 702.004 L 192.754 702.491 L 194.979 705.247 L 195.380 705.736 L 197.626 708.440 L 198.039 708.931 L 200.306 711.582 L 200.734 712.075 L 203.021 714.673 L 203.462 715.166 L 205.769 717.710 L 206.225 718.205 L 208.552 720.695 L 209.022 721.190 L 211.368 723.626 L 211.853 724.121 L 214.217 726.501 L 214.718 726.997 L 217.101 729.322 L 217.617 729.818 L 220.018 732.086 L 220.551 732.581 L 222.969 734.793 L 223.518 735.287 L 225.953 737.442 L 226.518 737.934 L 228.970 740.032 L 229.553 740.523 L 232.020 742.563 L 232.621 743.051 L 235.104 745.033 L 235.722 745.518 L 238.220 747.442 L 238.857 747.923 L 241.369 749.788 L 242.024 750.265 L 244.551 752.071 L 245.224 752.542 L 247.765 754.289 L 248.456 754.755 L 251.011 756.442 L 251.721 756.902 L 254.288 758.529 L 255.017 758.982 L 257.596 760.548 L 258.344 760.993 L 260.936 762.499 L 261.702 762.935 L 264.305 764.381 L 265.091 764.807 L 267.705 766.191 L 268.509 766.607 L 271.133 767.930 L 271.956 768.334 L 274.590 769.596 L 275.432 769.988 L 278.075 771.188 L 278.935 771.567 L 281.588 772.704 L 282.464 773.070 L 285.126 774.145 L 286.020 774.495 L 288.690 775.508 L 289.600 775.843 L 292.278 776.793 L 293.205 777.111 L 295.889 777.998 L 296.831 778.298 L 299.522 779.123 L 300.480 779.405 L 303.177 780.166 L 304.148 780.429 L 306.851 781.127 L 307.835 781.369 L 310.543 782.004 L 311.539 782.226 L 314.252 782.798 L 315.259 782.998 L 317.976 783.506 L 318.994 783.684 L 321.714 784.128 L 322.741 784.283 L 325.464 784.664 L 326.499 784.796 L 329.225 785.113 L 330.266 785.221 L 332.995 785.474 L 334.040 785.558 L 336.771 785.747 L 337.821 785.807 L 340.552 785.932 L 341.605 785.968 L 344.337 786.029 L 345.391 786.040 L 348.124 786.037 L 349.177 786.023 L 351.910 785.956 L 352.962 785.918 L 355.693 785.787 L 356.743 785.724 L 359.473 785.529 L 360.519 785.442 L 363.247 785.183 L 364.287 785.072 L 367.014 784.749 L 368.047 784.614 L 370.771 784.227 L 371.796 784.070 L 374.516 783.619 L 375.533 783.439 L 378.249 782.924 L 379.256 782.722 L 381.968 782.144 L 382.963 781.920 L 385.671 781.279 L 386.654 781.035 L 389.356 780.330 L 390.326 780.066 L 393.022 779.298 L 393.978 779.014 L 396.668 778.183 L 397.609 777.881 L 400.293 776.987 L 401.218 776.668 L 403.895 775.711 L 404.804 775.375 L 407.473 774.356 L 408.365 774.004 L 411.026 772.923 L 411.901 772.556 L 414.553 771.412 L 415.410 771.032 L 418.053 769.826 L 418.893 769.432 L 421.526 768.165 L 422.347 767.759 L 424.970 766.430 L 425.773 766.013 L 428.385 764.623 L 429.169 764.196 L 431.771 762.744 L 432.536 762.307 L 435.126 760.795 L 435.872 760.350 L 438.450 758.777 L 439.177 758.323 L 441.743 756.690 L 442.451 756.230 L 445.004 754.537 L 445.694 754.070 L 448.234 752.318 L 448.905 751.845 L 451.430 750.033 L 452.083 749.556 L 454.594 747.685 L 455.229 747.204 L 457.726 745.274 L 458.342 744.789 L 460.823 742.801 L 461.422 742.313 L 463.888 740.267 L 464.469 739.776 L 466.919 737.672 L 467.483 737.180 L 469.917 735.019 L 470.464 734.525 L 472.880 732.307 L 473.411 731.812 L 475.810 729.538 L 476.325 729.042 L 478.706 726.712 L 479.205 726.216 L 481.568 723.831 L 482.051 723.335 L 484.395 720.894 L 484.864 720.399 L 487.189 717.904 L 487.643 717.409 L 489.948 714.859 L 490.388 714.366 L 492.673 711.763 L 493.099 711.271 L 495.364 708.614 L 495.776 708.123 L 498.021 705.414 L 498.420 704.925 L 500.643 702.164 L 501.029 701.677 L 503.230 698.863 L 503.604 698.379 L 505.783 695.514 L 506.145 695.032 L 508.302 692.116 L 508.652 691.636 L 510.786 688.670 L 511.125 688.193 L 513.236 685.178 L 513.563 684.703 L 515.651 681.638 L 515.968 681.167 L 518.031 678.053 L 518.338 677.585 L 520.377 674.423 L 520.673 673.957 L 522.687 670.748 L 522.974 670.286 L 524.963 667.030 L 525.241 666.570 L 527.204 663.268 L 527.472 662.811 L 529.410 659.464 L 529.670 659.010 L 531.581 655.617 L 531.832 655.167 L 533.717 651.729 L 533.959 651.282 L 535.818 647.801 L 536.052 647.356 L 537.884 643.832 L 538.110 643.391 L 539.914 639.824 L 540.132 639.386 L 541.908 635.777 L 542.119 635.342 L 543.867 631.692 L 544.071 631.260 L 545.791 627.570 L 545.988 627.141 L 547.679 623.410 L 547.869 622.984 L 549.531 619.214 L 549.714 618.792 L 551.347 614.983 L 551.524 614.563 L 553.127 610.717 L 553.298 610.300 L 554.871 606.416 L 555.036 606.002 L 556.578 602.082 L 556.738 601.671 L 558.250 597.715 L 558.403 597.306 L 559.884 593.315 L 560.033 592.910 L 561.483 588.884 L 561.626 588.481 L 563.044 584.422 L 563.182 584.022 L 564.569 579.930 L 564.702 579.532 L 566.057 575.408 L 566.185 575.013 L 567.508 570.857 L 567.631 570.464 L 568.922 566.279 L 569.041 565.888 L 570.299 561.672 L 570.413 561.284 L 571.638 557.039 L 571.748 556.653 L 572.940 552.380 L 573.045 551.996 L 574.204 547.695 L 574.305 547.313 L 575.431 542.986 L 575.528 542.606 L 576.620 538.252 L 576.713 537.874 L 577.771 533.496 L 577.860 533.120 L 578.884 528.717 L 578.969 528.343 L 579.959 523.916 L 580.041 523.544 L 580.996 519.095 L 581.074 518.724 L 581.995 514.253 L 582.069 513.884 L 582.955 509.392 L 583.026 509.024 L 583.877 504.511 L 583.945 504.145 L 584.761 499.613 L 584.825 499.249 L 585.605 494.698 L 585.666 494.335 L 586.412 489.766 L 586.469 489.404 L 587.179 484.818 L 587.233 484.458 L 587.908 479.856 L 587.959 479.496 L 588.597 474.879 L 588.645 474.521 L 589.248 469.889 L 589.293 469.532 L 589.860 464.886 L 589.902 464.530 L 590.432 459.871 L 590.471 459.516 L 590.966 454.846 L 591.002 454.491 L 591.460 449.810 L 591.493 449.456 L 591.915 444.764 L 591.946 444.411 L 592.331 439.710 L 592.358 439.358 L 592.707 434.648 L 592.732 434.296 L 593.044 429.578 L 593.066 429.227 L 593.342 424.503 L 593.361 424.152 L 593.600 419.422 L 593.616 419.071 L 593.819 414.336 L 593.832 413.986 L 593.998 409.246 L 594.009 408.896 L 594.138 404.153 L 594.146 403.803 L 594.238 399.057 L 594.243 398.708 L 594.299 393.960 L 594.298 392.861 L 594.286 392.369 L 594.318 389.136 L 594.318 388.240 Z M 499.694 434.967 L 498.733 439.466 L 497.683 443.929 L 496.547 448.352 L 495.325 452.733 L 494.019 457.068 L 492.629 461.354 L 491.157 465.589 L 489.605 469.769 L 487.973 473.891 L 486.265 477.954 L 484.480 481.953 L 482.621 485.886 L 480.690 489.752 L 478.688 493.547 L 476.618 497.268 L 474.481 500.914 L 472.280 504.483 L 470.016 507.972 L 467.691 511.378 L 465.309 514.702 L 462.870 517.939 L 460.378 521.089 L 457.835 524.150 L 455.242 527.121 L 452.602 529.999 L 449.918 532.785 L 447.192 535.476 L 444.426 538.071 L 441.622 540.571 L 438.783 542.973 L 435.911 545.277 L 433.008 547.483 L 430.077 549.591 L 427.119 551.598 L 424.137 553.507 L 421.132 555.315 L 418.107 557.024 L 415.063 558.634 L 412.003 560.143 L 408.927 561.553 L 405.838 562.864 L 402.736 564.076 L 399.624 565.189 L 396.503 566.203 L 393.373 567.120 L 390.237 567.939 L 387.094 568.661 L 383.947 569.285 L 380.795 569.813 L 377.640 570.245 L 374.482 570.580 L 371.323 570.819 L 368.162 570.963 L 365.000 571.011 L 361.838 570.963 L 358.677 570.819 L 355.518 570.580 L 352.360 570.245 L 349.205 569.813 L 346.053 569.285 L 342.906 568.661 L 339.763 567.939 L 336.627 567.120 L 333.497 566.203 L 330.376 565.189 L 327.264 564.076 L 324.162 562.864 L 321.073 561.553 L 317.997 560.143 L 314.937 558.634 L 311.893 557.024 L 308.868 555.315 L 305.863 553.507 L 302.881 551.598 L 299.923 549.591 L 296.992 547.483 L 294.089 545.277 L 291.217 542.973 L 288.378 540.571 L 285.574 538.071 L 282.808 535.476 L 280.082 532.785 L 277.398 529.999 L 274.758 527.121 L 272.165 524.150 L 269.622 521.089 L 267.130 517.939 L 264.691 514.702 L 262.309 511.378 L 259.984 507.972 L 257.720 504.483 L 255.519 500.914 L 253.382 497.268 L 251.312 493.547 L 249.310 489.752 L 247.379 485.886 L 245.520 481.953 L 243.735 477.954 L 242.027 473.891 L 240.395 469.769 L 238.843 465.589 L 237.371 461.354 L 235.981 457.068 L 234.675 452.733 L 233.453 448.352 L 232.317 443.929 L 231.267 439.466 L 230.306 434.967 L 229.433 430.434 L 228.650 425.872 L 227.957 421.283 L 227.355 416.670 L 226.845 412.037 L 226.427 407.387 L 226.101 402.724 L 225.869 398.051 L 225.729 393.371 L 225.682 388.688 L 225.729 384.005 L 225.869 379.325 L 226.101 374.652 L 226.427 369.989 L 226.845 365.339 L 227.355 360.706 L 227.957 356.093 L 228.650 351.504 L 229.433 346.942 L 230.306 342.409 L 231.267 337.910 L 232.317 333.447 L 233.453 329.024 L 234.675 324.643 L 235.981 320.308 L 237.371 316.022 L 238.843 311.787 L 240.395 307.607 L 242.027 303.485 L 243.735 299.422 L 245.520 295.423 L 247.379 291.490 L 249.310 287.624 L 251.312 283.829 L 253.382 280.108 L 255.519 276.462 L 257.720 272.893 L 259.984 269.404 L 262.309 265.998 L 264.691 262.674 L 267.130 259.437 L 269.622 256.287 L 272.165 253.226 L 274.758 250.255 L 277.398 247.377 L 280.082 244.591 L 282.808 241.900 L 285.574 239.305 L 288.378 236.805 L 291.217 234.403 L 294.089 232.099 L 296.992 229.893 L 299.923 227.785 L 302.881 225.778 L 305.863 223.869 L 308.868 222.061 L 311.893 220.352 L 314.937 218.742 L 317.997 217.233 L 321.073 215.823 L 324.162 214.512 L 327.264 213.300 L 330.376 212.187 L 333.497 211.173 L 336.627 210.256 L 339.763 209.437 L 342.906 208.715 L 346.053 208.091 L 349.205 207.563 L 352.360 207.131 L 355.518 206.796 L 358.677 206.557 L 361.838 206.413 L 365.000 206.365 L 368.162 206.413 L 371.323 206.557 L 374.482 206.796 L 377.640 207.131 L 380.795 207.563 L 383.947 208.091 L 387.094 208.715 L 390.237 209.437 L 393.373 210.256 L 396.503 211.173 L 399.624 212.187 L 402.736 213.300 L 405.838 214.512 L 408.927 215.823 L 412.003 217.233 L 415.063 218.742 L 418.107 220.352 L 421.132 222.061 L 424.137 223.869 L 427.119 225.778 L 430.077 227.785 L 433.008 229.893 L 435.911 232.099 L 438.783 234.403 L 441.622 236.805 L 444.426 239.305 L 447.192 241.900 L 449.918 244.591 L 452.602 247.377 L 455.242 250.255 L 457.835 253.226 L 460.378 256.287 L 462.870 259.437 L 465.309 262.674 L 467.691 265.998 L 470.016 269.404 L 472.280 272.893 L 474.481 276.462 L 476.618 280.108 L 478.688 283.829 L 480.690 287.624 L 482.621 291.490 L 484.480 295.423 L 486.265 299.422 L 487.973 303.485 L 489.605 307.607 L 491.157 311.787 L 492.629 316.022 L 494.019 320.308 L 495.325 324.643 L 496.547 329.024 L 497.683 333.447 L 498.733 337.910 L 499.694 342.409 L 500.105 344.543 L 499.779 344.606 L 498.700 344.841 L 497.627 345.102 L 496.560 345.390 L 495.501 345.704 L 494.451 346.044 L 493.408 346.409 L 492.375 346.800 L 491.352 347.217 L 490.340 347.658 L 489.338 348.124 L 488.349 348.614 L 487.372 349.128 L 486.407 349.667 L 485.456 350.228 L 484.519 350.813 L 483.597 351.421 L 482.690 352.051 L 481.799 352.704 L 480.924 353.378 L 480.066 354.073 L 479.225 354.789 L 478.402 355.525 L 477.597 356.282 L 476.812 357.058 L 476.045 357.853 L 475.298 358.667 L 474.571 359.498 L 473.865 360.348 L 473.180 361.214 L 472.517 362.097 L 471.875 362.996 L 471.256 363.910 L 470.659 364.840 L 470.085 365.783 L 469.535 366.741 L 469.008 367.711 L 468.505 368.695 L 468.027 369.690 L 467.573 370.697 L 467.144 371.715 L 466.740 372.743 L 466.361 373.780 L 466.008 374.827 L 465.681 375.881 L 465.379 376.944 L 465.104 378.014 L 464.856 379.090 L 464.633 380.172 L 464.438 381.258 L 464.269 382.350 L 464.126 383.445 L 464.011 384.544 L 463.923 385.644 L 463.862 386.747 L 463.828 387.851 L 463.821 388.956 L 463.841 390.060 L 463.888 391.163 L 463.962 392.265 L 464.064 393.365 L 464.192 394.462 L 464.347 395.555 L 464.529 396.645 L 464.738 397.729 L 464.973 398.808 L 465.234 399.881 L 465.522 400.948 L 465.836 402.007 L 466.176 403.057 L 466.541 404.100 L 466.932 405.133 L 467.349 406.156 L 467.790 407.168 L 468.256 408.170 L 468.746 409.159 L 469.260 410.136 L 469.799 411.101 L 470.360 412.052 L 470.945 412.989 L 471.553 413.911 L 472.183 414.818 L 472.836 415.709 L 473.510 416.584 L 474.205 417.442 L 474.921 418.283 L 475.657 419.106 L 476.414 419.911 L 477.190 420.696 L 477.985 421.463 L 478.799 422.210 L 479.630 422.937 L 480.480 423.643 L 481.346 424.328 L 482.229 424.991 L 483.128 425.633 L 484.042 426.252 L 484.972 426.849 L 485.915 427.423 L 486.873 427.973 L 487.843 428.500 L 488.827 429.003 L 489.822 429.481 L 490.829 429.935 L 491.847 430.364 L 492.875 430.768 L 493.912 431.147 L 494.959 431.500 L 496.013 431.827 L 497.076 432.129 L 498.146 432.404 L 499.222 432.652 L 500.105 432.834 L 499.694 434.967 Z M 247.884 623.023 L 248.875 623.715 L 252.838 626.406 L 253.858 627.077 L 257.873 629.647 L 258.920 630.297 L 262.985 632.744 L 264.060 633.371 L 268.173 635.694 L 269.273 636.296 L 273.431 638.494 L 274.558 639.070 L 278.759 641.141 L 279.911 641.690 L 284.151 643.634 L 285.328 644.153 L 289.606 645.968 L 290.806 646.457 L 295.118 648.142 L 296.340 648.599 L 300.685 650.153 L 301.928 650.577 L 306.302 651.999 L 307.565 652.389 L 311.966 653.678 L 313.247 654.033 L 317.673 655.188 L 318.970 655.506 L 323.417 656.528 L 324.729 656.808 L 329.195 657.695 L 330.520 657.937 L 335.003 658.688 L 336.339 658.891 L 340.835 659.506 L 342.181 659.670 L 346.688 660.148 L 348.041 660.271 L 352.556 660.614 L 353.914 660.696 L 358.434 660.901 L 359.796 660.942 L 364.319 661.011 L 365.681 661.011 L 370.204 660.942 L 371.566 660.901 L 376.086 660.696 L 377.444 660.614 L 381.959 660.271 L 383.312 660.148 L 387.819 659.670 L 389.165 659.506 L 393.661 658.891 L 394.997 658.688 L 399.480 657.937 L 400.805 657.695 L 405.271 656.808 L 406.583 656.528 L 411.030 655.506 L 412.327 655.188 L 416.753 654.033 L 418.034 653.678 L 422.435 652.389 L 423.698 651.999 L 426.001 651.250 L 424.823 652.632 L 422.971 654.742 L 421.112 656.797 L 419.248 658.798 L 417.381 660.743 L 415.509 662.632 L 413.635 664.466 L 411.759 666.244 L 409.882 667.967 L 408.004 669.635 L 406.127 671.246 L 404.251 672.803 L 402.377 674.304 L 400.505 675.751 L 398.637 677.143 L 396.773 678.480 L 394.914 679.763 L 393.060 680.993 L 391.212 682.169 L 389.370 683.293 L 387.535 684.364 L 385.707 685.384 L 383.888 686.352 L 382.076 687.270 L 380.273 688.138 L 378.478 688.957 L 376.692 689.727 L 374.915 690.450 L 373.147 691.125 L 371.388 691.754 L 369.638 692.337 L 367.896 692.875 L 366.162 693.369 L 364.436 693.819 L 362.717 694.226 L 361.006 694.590 L 359.301 694.913 L 357.602 695.194 L 355.908 695.435 L 354.219 695.635 L 352.533 695.795 L 350.851 695.915 L 349.170 695.996 L 347.491 696.037 L 345.813 696.039 L 344.134 696.002 L 342.453 695.925 L 340.771 695.809 L 339.086 695.653 L 337.397 695.457 L 335.704 695.220 L 334.005 694.943 L 332.301 694.624 L 330.590 694.264 L 328.872 693.861 L 327.147 693.416 L 325.414 692.926 L 323.673 692.393 L 321.923 691.814 L 320.165 691.190 L 318.398 690.519 L 316.622 689.802 L 314.837 689.036 L 313.043 688.222 L 311.241 687.359 L 309.430 686.446 L 307.611 685.483 L 305.784 684.469 L 303.950 683.402 L 302.109 682.284 L 300.261 681.113 L 298.408 679.889 L 296.549 678.611 L 294.685 677.279 L 292.818 675.892 L 290.947 674.451 L 289.073 672.956 L 287.197 671.405 L 285.320 669.798 L 283.442 668.136 L 281.565 666.419 L 279.689 664.646 L 277.814 662.818 L 275.942 660.934 L 274.074 658.995 L 272.210 657.000 L 270.351 654.950 L 268.498 652.845 L 266.651 650.685 L 264.812 648.471 L 262.980 646.203 L 261.158 643.880 L 259.346 641.504 L 257.544 639.075 L 255.753 636.593 L 253.974 634.058 L 252.207 631.472 L 250.454 628.834 L 248.715 626.145 L 246.991 623.406 L 245.869 621.574 L 247.884 623.023 Z" fill="black" fill-rule="evenodd"/>
</svg>
