<svg xmlns="http://www.w3.org/2000/svg" viewBox="0 0 700.000 1000" width="700.000" height="1000">
  <path d="M 466.589 578.014 L 466.526 580.323 L 466.438 582.631 L 466.325 584.938 L 466.186 587.242 L 466.023 589.543 L 465.835 591.840 L 465.621 594.134 L 465.383 596.424 L 465.120 598.708 L 464.832 600.988 L 464.520 603.262 L 464.183 605.529 L 463.821 607.790 L 463.435 610.044 L 463.025 612.291 L 462.591 614.529 L 462.132 616.759 L 461.650 618.980 L 461.143 621.191 L 460.614 623.393 L 460.060 625.585 L 459.483 627.765 L 458.883 629.935 L 458.260 632.093 L 457.614 634.239 L 456.946 636.372 L 456.255 638.493 L 455.541 640.600 L 454.806 642.693 L 454.049 644.773 L 453.269 646.838 L 452.469 648.888 L 451.647 650.922 L 450.804 652.941 L 449.940 654.944 L 449.056 656.930 L 448.151 658.899 L 447.227 660.851 L 446.282 662.786 L 445.318 664.702 L 444.335 666.601 L 443.332 668.480 L 442.311 670.341 L 441.271 672.182 L 440.213 674.003 L 439.138 675.805 L 438.044 677.586 L 436.933 679.346 L 435.805 681.086 L 434.661 682.805 L 433.500 684.502 L 432.322 686.177 L 431.129 687.830 L 429.921 689.461 L 428.697 691.069 L 427.459 692.655 L 426.205 694.217 L 424.938 695.756 L 423.657 697.272 L 422.362 698.764 L 421.054 700.232 L 419.733 701.676 L 418.399 703.096 L 417.053 704.491 L 415.695 705.862 L 414.326 707.208 L 412.945 708.529 L 411.553 709.824 L 410.151 711.095 L 408.738 712.340 L 407.315 713.560 L 405.883 714.754 L 404.441 715.923 L 402.990 717.065 L 401.531 718.182 L 400.063 719.273 L 398.587 720.338 L 397.103 721.377 L 395.612 722.390 L 394.113 723.376 L 392.608 724.337 L 391.096 725.271 L 389.577 726.178 L 388.053 727.060 L 386.523 727.915 L 384.987 728.744 L 383.446 729.547 L 381.900 730.323 L 380.349 731.073 L 378.794 731.796 L 377.234 732.494 L 375.670 733.165 L 374.103 733.810 L 372.532 734.428 L 370.957 735.021 L 369.379 735.587 L 367.799 736.128 L 366.215 736.642 L 364.629 737.130 L 363.040 737.592 L 361.449 738.028 L 359.856 738.439 L 358.261 738.823 L 356.664 739.182 L 355.066 739.514 L 353.466 739.822 L 351.865 740.103 L 350.262 740.358 L 348.658 740.588 L 347.054 740.793 L 345.448 740.972 L 343.842 741.125 L 342.235 741.252 L 340.628 741.354 L 339.020 741.431 L 337.412 741.482 L 335.804 741.507 L 334.196 741.507 L 332.588 741.482 L 330.980 741.431 L 329.372 741.354 L 327.765 741.252 L 326.158 741.125 L 324.552 740.972 L 322.946 740.793 L 321.342 740.588 L 319.738 740.358 L 318.135 740.103 L 316.534 739.822 L 314.934 739.514 L 313.336 739.182 L 311.739 738.823 L 310.144 738.439 L 308.551 738.028 L 306.960 737.592 L 305.371 737.130 L 303.785 736.642 L 302.201 736.128 L 300.621 735.587 L 299.043 735.021 L 297.468 734.428 L 295.897 733.810 L 294.330 733.165 L 292.766 732.494 L 291.206 731.796 L 289.651 731.073 L 288.100 730.323 L 286.554 729.547 L 285.013 728.744 L 283.477 727.915 L 281.947 727.060 L 280.423 726.178 L 278.904 725.271 L 277.392 724.337 L 275.887 723.376 L 274.388 722.390 L 272.897 721.377 L 271.413 720.338 L 269.937 719.273 L 268.469 718.182 L 267.010 717.065 L 265.559 715.923 L 264.117 714.754 L 262.685 713.560 L 261.262 712.340 L 259.849 711.095 L 258.447 709.824 L 257.055 708.529 L 255.674 707.208 L 254.305 705.862 L 252.947 704.491 L 251.601 703.096 L 250.267 701.676 L 248.946 700.232 L 247.638 698.764 L 246.343 697.272 L 245.062 695.756 L 243.795 694.217 L 242.541 692.655 L 241.303 691.069 L 240.079 689.461 L 238.871 687.830 L 237.678 686.177 L 236.500 684.502 L 235.339 682.805 L 234.195 681.086 L 233.067 679.346 L 231.956 677.586 L 230.862 675.805 L 229.787 674.003 L 228.729 672.182 L 227.689 670.341 L 226.668 668.480 L 225.665 666.601 L 224.682 664.702 L 223.718 662.786 L 222.773 660.851 L 221.849 658.899 L 220.944 656.930 L 220.060 654.944 L 219.196 652.941 L 218.353 650.922 L 217.531 648.888 L 216.731 646.838 L 215.951 644.773 L 215.194 642.693 L 214.459 640.600 L 213.745 638.493 L 213.054 636.372 L 212.386 634.239 L 211.740 632.093 L 211.117 629.935 L 210.517 627.765 L 209.940 625.585 L 209.386 623.393 L 208.857 621.191 L 208.350 618.980 L 207.868 616.759 L 207.409 614.529 L 206.975 612.291 L 206.565 610.044 L 206.179 607.790 L 205.817 605.529 L 205.480 603.262 L 205.168 600.988 L 204.880 598.708 L 204.617 596.424 L 204.379 594.134 L 204.165 591.840 L 203.977 589.543 L 203.814 587.242 L 203.675 584.938 L 203.562 582.631 L 203.474 580.323 L 203.411 578.014 L 203.373 575.703 L 203.359 573.147 L 203.340 572.043 L 203.293 570.939 L 203.219 569.837 L 203.119 568.737 L 202.991 567.640 L 202.836 566.547 L 202.655 565.457 L 202.447 564.373 L 202.212 563.293 L 201.951 562.220 L 201.664 561.154 L 201.351 560.095 L 201.011 559.044 L 200.646 558.001 L 200.256 556.968 L 199.840 555.945 L 199.399 554.932 L 198.934 553.931 L 198.444 552.941 L 197.930 551.963 L 197.393 550.999 L 196.831 550.047 L 196.247 549.110 L 195.639 548.188 L 195.010 547.281 L 194.358 546.389 L 193.684 545.514 L 192.989 544.655 L 192.274 543.814 L 191.538 542.991 L 190.782 542.186 L 190.006 541.399 L 189.211 540.632 L 188.398 539.885 L 187.567 539.158 L 186.718 538.452 L 185.852 537.766 L 184.969 537.102 L 184.071 536.460 L 183.156 535.840 L 182.227 535.243 L 181.284 534.669 L 180.327 534.118 L 179.356 533.591 L 178.373 533.087 L 177.378 532.608 L 176.371 532.154 L 175.354 531.724 L 174.326 531.320 L 173.289 530.941 L 172.243 530.587 L 171.188 530.259 L 170.126 529.957 L 169.056 529.682 L 167.980 529.432 L 166.899 529.209 L 165.812 529.013 L 164.720 528.844 L 163.625 528.701 L 162.527 528.585 L 161.426 528.497 L 160.323 528.435 L 159.219 528.400 L 158.115 528.393 L 157.011 528.412 L 155.907 528.459 L 154.805 528.533 L 153.705 528.633 L 152.608 528.761 L 151.515 528.916 L 150.425 529.097 L 149.341 529.305 L 148.261 529.540 L 147.188 529.801 L 146.122 530.088 L 145.063 530.401 L 144.012 530.741 L 142.969 531.106 L 141.936 531.496 L 140.913 531.912 L 139.900 532.353 L 138.899 532.818 L 137.909 533.308 L 136.931 533.822 L 135.967 534.359 L 135.015 534.921 L 134.078 535.505 L 133.156 536.113 L 132.249 536.742 L 131.357 537.394 L 130.482 538.068 L 129.623 538.763 L 128.782 539.478 L 127.959 540.214 L 127.154 540.970 L 126.367 541.746 L 125.600 542.541 L 124.853 543.354 L 124.126 544.185 L 123.420 545.034 L 122.734 545.900 L 122.070 546.783 L 121.428 547.681 L 120.808 548.596 L 120.211 549.525 L 119.637 550.468 L 119.086 551.425 L 118.559 552.396 L 118.055 553.379 L 117.576 554.374 L 117.122 555.381 L 116.692 556.398 L 116.288 557.426 L 115.909 558.463 L 115.555 559.509 L 115.227 560.564 L 114.925 561.626 L 114.650 562.696 L 114.400 563.772 L 114.177 564.853 L 113.981 565.940 L 113.812 567.032 L 113.669 568.127 L 113.553 569.225 L 113.465 570.326 L 113.403 571.429 L 113.368 572.533 L 113.361 573.637 L 113.376 576.438 L 113.381 576.929 L 113.427 579.730 L 113.438 580.220 L 113.514 583.020 L 113.530 583.510 L 113.637 586.308 L 113.658 586.799 L 113.795 589.595 L 113.822 590.085 L 113.990 592.879 L 114.022 593.369 L 114.220 596.161 L 114.258 596.651 L 114.486 599.439 L 114.529 599.929 L 114.788 602.713 L 114.836 603.203 L 115.125 605.982 L 115.179 606.472 L 115.499 609.247 L 115.558 609.737 L 115.907 612.506 L 115.972 612.996 L 116.352 615.760 L 116.422 616.250 L 116.832 619.007 L 116.907 619.497 L 117.347 622.247 L 117.428 622.737 L 117.898 625.480 L 117.984 625.970 L 118.484 628.705 L 118.576 629.195 L 119.106 631.922 L 119.203 632.412 L 119.763 635.130 L 119.866 635.619 L 120.455 638.329 L 120.564 638.818 L 121.182 641.518 L 121.296 642.007 L 121.944 644.697 L 122.064 645.186 L 122.741 647.866 L 122.867 648.354 L 123.573 651.023 L 123.705 651.511 L 124.440 654.168 L 124.578 654.656 L 125.342 657.301 L 125.485 657.788 L 126.278 660.422 L 126.428 660.909 L 127.249 663.529 L 127.404 664.016 L 128.254 666.623 L 128.415 667.109 L 129.293 669.703 L 129.461 670.188 L 130.367 672.768 L 130.541 673.253 L 131.475 675.818 L 131.655 676.303 L 132.617 678.852 L 132.803 679.337 L 133.793 681.871 L 133.985 682.355 L 135.002 684.873 L 135.201 685.357 L 136.245 687.858 L 136.450 688.341 L 137.522 690.826 L 137.733 691.308 L 138.832 693.776 L 139.049 694.257 L 140.175 696.708 L 140.399 697.188 L 141.551 699.620 L 141.782 700.100 L 142.960 702.514 L 143.198 702.992 L 144.402 705.387 L 144.646 705.865 L 145.877 708.240 L 146.128 708.717 L 147.384 711.073 L 147.641 711.549 L 148.923 713.884 L 149.188 714.359 L 150.495 716.674 L 150.766 717.147 L 152.099 719.441 L 152.377 719.914 L 153.734 722.186 L 154.019 722.657 L 155.401 724.908 L 155.693 725.377 L 157.099 727.606 L 157.398 728.074 L 158.829 730.280 L 159.135 730.746 L 160.590 732.930 L 160.903 733.394 L 162.381 735.555 L 162.702 736.017 L 164.203 738.154 L 164.531 738.615 L 166.056 740.727 L 166.392 741.186 L 167.939 743.274 L 168.282 743.731 L 169.852 745.794 L 170.202 746.249 L 171.795 748.287 L 172.152 748.739 L 173.767 750.752 L 174.132 751.202 L 175.769 753.189 L 176.142 753.636 L 177.799 755.597 L 178.180 756.041 L 179.859 757.976 L 180.247 758.418 L 181.947 760.325 L 182.343 760.764 L 184.064 762.645 L 184.467 763.080 L 186.208 764.933 L 186.619 765.365 L 188.381 767.191 L 188.800 767.620 L 190.580 769.417 L 191.007 769.842 L 192.808 771.612 L 193.242 772.033 L 195.062 773.773 L 195.504 774.191 L 197.342 775.902 L 197.793 776.316 L 199.649 777.998 L 200.107 778.408 L 201.982 780.060 L 202.448 780.465 L 204.341 782.088 L 204.815 782.489 L 206.725 784.081 L 207.207 784.477 L 209.134 786.039 L 209.624 786.430 L 211.568 787.962 L 212.065 788.348 L 214.026 789.848 L 214.531 790.229 L 216.508 791.699 L 217.021 792.074 L 219.014 793.512 L 219.534 793.882 L 221.542 795.288 L 222.071 795.652 L 224.094 797.026 L 224.630 797.385 L 226.668 798.726 L 227.212 799.079 L 229.264 800.388 L 229.815 800.734 L 231.882 802.011 L 232.440 802.350 L 234.521 803.594 L 235.086 803.926 L 237.180 805.137 L 237.753 805.463 L 239.860 806.640 L 240.440 806.959 L 242.560 808.103 L 243.147 808.414 L 245.279 809.524 L 245.873 809.828 L 248.016 810.905 L 248.617 811.201 L 250.773 812.243 L 251.380 812.531 L 253.547 813.539 L 254.161 813.819 L 256.338 814.793 L 256.959 815.065 L 259.147 816.004 L 259.774 816.267 L 261.971 817.171 L 262.604 817.426 L 264.812 818.295 L 265.451 818.541 L 267.667 819.375 L 268.312 819.613 L 270.538 820.411 L 271.188 820.639 L 273.422 821.403 L 274.078 821.621 L 276.320 822.349 L 276.981 822.558 L 279.231 823.251 L 279.897 823.450 L 282.154 824.107 L 282.825 824.296 L 285.089 824.917 L 285.765 825.097 L 288.035 825.682 L 288.715 825.851 L 290.992 826.400 L 291.676 826.559 L 293.959 827.072 L 294.646 827.220 L 296.934 827.697 L 297.626 827.835 L 299.919 828.275 L 300.614 828.403 L 302.911 828.807 L 303.609 828.924 L 305.911 829.291 L 306.612 829.397 L 308.917 829.727 L 309.620 829.823 L 311.929 830.117 L 312.635 830.201 L 314.947 830.458 L 315.655 830.531 L 317.969 830.752 L 318.678 830.814 L 320.995 830.998 L 321.706 831.049 L 324.025 831.196 L 324.737 831.236 L 327.057 831.346 L 327.769 831.374 L 330.090 831.448 L 330.804 831.465 L 333.125 831.502 L 333.839 831.507 L 336.161 831.507 L 336.875 831.502 L 339.196 831.465 L 339.910 831.448 L 342.231 831.374 L 342.943 831.346 L 345.263 831.236 L 345.975 831.196 L 348.294 831.049 L 349.005 830.998 L 351.322 830.814 L 352.031 830.752 L 354.345 830.531 L 355.053 830.458 L 357.365 830.201 L 358.071 830.117 L 360.380 829.823 L 361.083 829.727 L 363.388 829.397 L 364.089 829.291 L 366.391 828.924 L 367.089 828.807 L 369.386 828.403 L 370.081 828.275 L 372.374 827.835 L 373.066 827.697 L 375.354 827.220 L 376.041 827.072 L 378.324 826.559 L 379.008 826.400 L 381.285 825.851 L 381.965 825.682 L 384.235 825.097 L 384.911 824.917 L 387.175 824.296 L 387.846 824.107 L 390.103 823.450 L 390.769 823.251 L 393.019 822.558 L 393.680 822.349 L 395.922 821.621 L 396.578 821.403 L 398.812 820.639 L 399.462 820.411 L 401.688 819.613 L 402.333 819.375 L 404.549 818.541 L 405.188 818.295 L 407.396 817.426 L 408.029 817.171 L 410.226 816.267 L 410.853 816.004 L 413.041 815.065 L 413.662 814.793 L 415.839 813.819 L 416.453 813.539 L 418.620 812.531 L 419.227 812.243 L 421.383 811.201 L 421.984 810.905 L 424.127 809.828 L 424.721 809.524 L 426.853 808.414 L 427.440 808.103 L 429.560 806.959 L 430.140 806.640 L 432.247 805.463 L 432.820 805.137 L 434.914 803.926 L 435.479 803.594 L 437.560 802.350 L 438.118 802.011 L 440.185 800.734 L 440.736 800.388 L 442.788 799.079 L 443.332 798.726 L 445.370 797.385 L 445.906 797.026 L 447.929 795.652 L 448.458 795.288 L 450.466 793.882 L 450.986 793.512 L 452.979 792.074 L 453.492 791.699 L 455.469 790.229 L 455.974 789.848 L 457.935 788.348 L 458.432 787.962 L 460.376 786.430 L 460.866 786.039 L 462.793 784.477 L 463.275 784.081 L 465.185 782.489 L 465.659 782.088 L 467.552 780.465 L 468.018 780.060 L 469.893 778.408 L 470.351 777.998 L 472.207 776.316 L 472.658 775.902 L 474.496 774.191 L 474.938 773.773 L 476.758 772.033 L 477.192 771.612 L 478.993 769.842 L 479.420 769.417 L 481.200 767.620 L 481.619 767.191 L 483.381 765.365 L 483.792 764.933 L 485.533 763.080 L 485.936 762.645 L 487.657 760.764 L 488.053 760.325 L 489.753 758.418 L 490.141 757.976 L 491.820 756.041 L 492.201 755.597 L 493.858 753.636 L 494.231 753.189 L 495.868 751.202 L 496.233 750.752 L 497.848 748.739 L 498.205 748.287 L 499.798 746.249 L 500.148 745.794 L 501.718 743.731 L 502.061 743.274 L 503.608 741.186 L 503.944 740.727 L 505.469 738.615 L 505.797 738.154 L 507.298 736.017 L 507.619 735.555 L 509.097 733.394 L 509.410 732.930 L 510.865 730.746 L 511.171 730.280 L 512.602 728.074 L 512.901 727.606 L 514.307 725.377 L 514.599 724.908 L 515.981 722.657 L 516.266 722.186 L 517.623 719.914 L 517.901 719.441 L 519.234 717.147 L 519.505 716.674 L 520.812 714.359 L 521.077 713.884 L 522.359 711.549 L 522.616 711.073 L 523.872 708.717 L 524.123 708.240 L 525.354 705.865 L 525.598 705.387 L 526.802 702.992 L 527.040 702.514 L 528.218 700.100 L 528.449 699.620 L 529.601 697.188 L 529.825 696.708 L 530.951 694.257 L 531.168 693.776 L 532.267 691.308 L 532.478 690.826 L 533.550 688.341 L 533.755 687.858 L 534.799 685.357 L 534.998 684.873 L 536.015 682.355 L 536.207 681.871 L 537.197 679.337 L 537.383 678.852 L 538.345 676.303 L 538.525 675.818 L 539.459 673.253 L 539.633 672.768 L 540.539 670.188 L 540.707 669.703 L 541.585 667.109 L 541.746 666.623 L 542.596 664.016 L 542.751 663.529 L 543.572 660.909 L 543.722 660.422 L 544.515 657.788 L 544.658 657.301 L 545.422 654.656 L 545.560 654.168 L 546.295 651.511 L 546.427 651.023 L 547.133 648.354 L 547.259 647.866 L 547.936 645.186 L 548.056 644.697 L 548.704 642.007 L 548.818 641.518 L 549.436 638.818 L 549.545 638.329 L 550.134 635.619 L 550.237 635.130 L 550.797 632.412 L 550.894 631.922 L 551.424 629.195 L 551.516 628.705 L 552.016 625.970 L 552.102 625.480 L 552.572 622.737 L 552.653 622.247 L 553.093 619.497 L 553.168 619.007 L 553.578 616.250 L 553.648 615.760 L 554.028 612.996 L 554.093 612.506 L 554.442 609.737 L 554.501 609.247 L 554.821 606.472 L 554.875 605.982 L 555.164 603.203 L 555.212 602.713 L 555.471 599.929 L 555.514 599.439 L 555.742 596.651 L 555.780 596.161 L 555.978 593.369 L 556.010 592.879 L 556.178 590.085 L 556.205 589.595 L 556.342 586.799 L 556.363 586.308 L 556.470 583.510 L 556.486 583.020 L 556.562 580.220 L 556.573 579.730 L 556.619 576.929 L 556.624 576.438 L 556.639 573.637 L 556.638 573.515 L 556.640 573.392 L 556.640 312.920 L 556.638 312.730 L 556.638 312.462 L 556.584 307.232 L 556.566 306.317 L 556.406 301.090 L 556.369 300.174 L 556.103 294.953 L 556.047 294.038 L 555.675 288.827 L 555.601 287.912 L 555.123 282.713 L 555.029 281.798 L 554.446 276.615 L 554.333 275.700 L 553.645 270.536 L 553.513 269.622 L 552.719 264.479 L 552.569 263.565 L 551.671 258.448 L 551.501 257.534 L 550.499 252.445 L 550.310 251.532 L 549.205 246.474 L 548.995 245.562 L 547.788 240.538 L 547.559 239.626 L 546.249 234.640 L 546.000 233.729 L 544.590 228.783 L 544.320 227.873 L 542.809 222.970 L 542.519 222.061 L 540.909 217.204 L 540.597 216.297 L 538.889 211.490 L 538.556 210.584 L 536.751 205.828 L 536.397 204.924 L 534.495 200.224 L 534.119 199.322 L 532.122 194.679 L 531.724 193.779 L 529.633 189.197 L 529.212 188.300 L 527.029 183.781 L 526.585 182.887 L 524.311 178.434 L 523.844 177.544 L 521.480 173.159 L 520.989 172.273 L 518.536 167.960 L 518.021 167.078 L 515.481 162.838 L 514.942 161.961 L 512.317 157.798 L 511.753 156.927 L 509.044 152.843 L 508.455 151.977 L 505.664 147.974 L 505.049 147.115 L 502.178 143.197 L 501.537 142.344 L 498.587 138.512 L 497.921 137.668 L 494.893 133.924 L 494.200 133.089 L 491.097 129.436 L 490.378 128.610 L 487.202 125.050 L 486.456 124.234 L 483.208 120.769 L 482.435 119.965 L 479.118 116.597 L 478.318 115.805 L 474.933 112.536 L 474.106 111.757 L 470.656 108.590 L 469.801 107.825 L 466.287 104.761 L 465.405 104.012 L 461.830 101.053 L 460.921 100.319 L 457.287 97.467 L 456.350 96.751 L 452.659 94.007 L 451.695 93.311 L 447.950 90.677 L 446.959 90.000 L 443.161 87.478 L 442.145 86.822 L 438.296 84.413 L 437.253 83.780 L 433.357 81.485 L 432.289 80.876 L 428.348 78.698 L 427.254 78.113 L 423.270 76.052 L 422.152 75.494 L 418.127 73.552 L 416.986 73.021 L 412.923 71.198 L 411.759 70.696 L 407.660 68.995 L 406.475 68.522 L 402.342 66.943 L 401.137 66.502 L 396.974 65.045 L 395.749 64.636 L 391.557 63.303 L 390.315 62.928 L 386.097 61.719 L 384.839 61.378 L 380.597 60.295 L 379.324 59.989 L 375.062 59.032 L 373.774 58.762 L 369.494 57.931 L 368.195 57.699 L 363.900 56.995 L 362.590 56.800 L 358.282 56.224 L 356.964 56.067 L 352.645 55.618 L 351.321 55.501 L 346.994 55.180 L 345.665 55.101 L 341.333 54.909 L 340.001 54.869 L 335.666 54.805 L 334.334 54.805 L 329.999 54.869 L 328.667 54.909 L 324.335 55.101 L 323.006 55.180 L 318.679 55.501 L 317.355 55.618 L 313.036 56.067 L 311.718 56.224 L 307.410 56.800 L 306.100 56.995 L 301.805 57.699 L 300.506 57.931 L 296.226 58.762 L 294.938 59.032 L 290.676 59.989 L 289.403 60.295 L 285.161 61.378 L 283.903 61.719 L 279.685 62.928 L 278.443 63.303 L 274.251 64.636 L 273.026 65.045 L 268.863 66.502 L 267.658 66.943 L 263.525 68.522 L 262.340 68.995 L 258.241 70.696 L 257.077 71.198 L 253.014 73.021 L 251.873 73.552 L 247.848 75.494 L 246.730 76.052 L 242.746 78.113 L 241.652 78.698 L 237.711 80.876 L 236.643 81.485 L 232.747 83.780 L 231.704 84.413 L 227.855 86.822 L 226.839 87.478 L 223.041 90.000 L 222.050 90.677 L 218.305 93.311 L 217.341 94.007 L 213.650 96.751 L 212.713 97.467 L 209.079 100.319 L 208.170 101.053 L 204.595 104.012 L 203.713 104.761 L 200.199 107.825 L 199.344 108.590 L 195.894 111.757 L 195.067 112.536 L 191.682 115.805 L 190.882 116.597 L 187.565 119.965 L 186.792 120.769 L 183.544 124.234 L 182.798 125.050 L 179.622 128.610 L 178.903 129.436 L 175.800 133.089 L 175.107 133.924 L 172.079 137.668 L 171.413 138.512 L 168.463 142.344 L 167.822 143.197 L 164.951 147.115 L 164.336 147.974 L 161.545 151.977 L 160.956 152.843 L 158.247 156.927 L 157.683 157.798 L 155.058 161.961 L 154.519 162.838 L 151.979 167.078 L 151.464 167.960 L 149.011 172.273 L 148.520 173.159 L 146.156 177.544 L 145.689 178.434 L 143.415 182.887 L 142.971 183.781 L 140.788 188.300 L 140.367 189.197 L 138.276 193.779 L 137.878 194.679 L 135.881 199.322 L 135.505 200.224 L 133.603 204.924 L 133.249 205.828 L 131.444 210.584 L 131.111 211.490 L 129.403 216.297 L 129.091 217.204 L 127.481 222.061 L 127.191 222.970 L 125.680 227.873 L 125.410 228.783 L 124.000 233.729 L 123.751 234.640 L 122.441 239.626 L 122.212 240.538 L 121.005 245.562 L 120.795 246.474 L 119.690 251.532 L 119.501 252.445 L 118.499 257.534 L 118.329 258.448 L 117.431 263.565 L 117.281 264.479 L 116.487 269.622 L 116.355 270.536 L 115.667 275.700 L 115.554 276.615 L 114.971 281.798 L 114.877 282.713 L 114.399 287.912 L 114.325 288.827 L 113.953 294.038 L 113.897 294.953 L 113.631 300.174 L 113.594 301.090 L 113.434 306.317 L 113.416 307.232 L 113.362 312.462 L 113.362 313.378 L 113.416 318.608 L 113.434 319.523 L 113.594 324.750 L 113.631 325.666 L 113.897 330.887 L 113.953 331.802 L 114.325 337.013 L 114.399 337.928 L 114.877 343.127 L 114.971 344.042 L 115.554 349.225 L 115.667 350.140 L 116.355 355.304 L 116.487 356.218 L 117.281 361.361 L 117.431 362.275 L 118.329 367.392 L 118.499 368.306 L 119.501 373.395 L 119.690 374.308 L 120.795 379.366 L 121.005 380.278 L 122.212 385.302 L 122.441 386.214 L 123.751 391.200 L 124.000 392.111 L 125.410 397.057 L 125.680 397.967 L 127.191 402.870 L 127.481 403.779 L 129.091 408.636 L 129.403 409.543 L 131.111 414.350 L 131.444 415.256 L 133.249 420.012 L 133.603 420.916 L 135.505 425.616 L 135.881 426.518 L 137.878 431.161 L 138.276 432.061 L 140.367 436.643 L 140.788 437.540 L 142.971 442.059 L 143.415 442.953 L 145.689 447.406 L 146.156 448.296 L 148.520 452.681 L 149.011 453.567 L 151.464 457.880 L 151.979 458.762 L 154.519 463.002 L 155.058 463.879 L 157.683 468.042 L 158.247 468.913 L 160.956 472.997 L 161.545 473.863 L 164.336 477.866 L 164.951 478.725 L 167.822 482.643 L 168.463 483.496 L 171.413 487.328 L 172.079 488.172 L 175.107 491.916 L 175.800 492.751 L 178.903 496.404 L 179.622 497.230 L 182.798 500.790 L 183.544 501.606 L 186.792 505.071 L 187.565 505.875 L 190.882 509.243 L 191.682 510.035 L 195.067 513.304 L 195.894 514.083 L 199.344 517.250 L 200.199 518.015 L 203.713 521.079 L 204.595 521.828 L 208.170 524.787 L 209.079 525.521 L 212.713 528.373 L 213.650 529.089 L 217.341 531.833 L 218.305 532.529 L 222.050 535.163 L 223.041 535.840 L 226.839 538.362 L 227.855 539.018 L 231.704 541.427 L 232.747 542.060 L 236.643 544.355 L 237.711 544.964 L 241.652 547.142 L 242.746 547.727 L 246.730 549.788 L 247.848 550.346 L 251.873 552.288 L 253.014 552.819 L 257.077 554.642 L 258.241 555.144 L 262.340 556.845 L 263.525 557.318 L 267.658 558.897 L 268.863 559.338 L 273.026 560.795 L 274.251 561.204 L 278.443 562.537 L 279.685 562.912 L 283.903 564.121 L 285.161 564.462 L 289.403 565.545 L 290.676 565.851 L 294.938 566.808 L 296.226 567.078 L 300.506 567.909 L 301.805 568.141 L 306.100 568.845 L 307.410 569.040 L 311.718 569.616 L 313.036 569.773 L 317.355 570.222 L 318.679 570.339 L 323.006 570.660 L 324.335 570.739 L 328.667 570.931 L 329.999 570.971 L 334.334 571.035 L 335.666 571.035 L 340.001 570.971 L 341.333 570.931 L 345.665 570.739 L 346.994 570.660 L 351.321 570.339 L 352.645 570.222 L 356.964 569.773 L 358.282 569.616 L 362.590 569.040 L 363.900 568.845 L 368.195 568.141 L 369.494 567.909 L 373.774 567.078 L 375.062 566.808 L 379.324 565.851 L 380.597 565.545 L 384.839 564.462 L 386.097 564.121 L 390.315 562.912 L 391.557 562.537 L 395.749 561.204 L 396.974 560.795 L 401.137 559.338 L 402.342 558.897 L 406.475 557.318 L 407.660 556.845 L 411.759 555.144 L 412.923 554.642 L 416.986 552.819 L 418.127 552.288 L 422.152 550.346 L 423.270 549.788 L 427.254 547.727 L 428.348 547.142 L 432.289 544.964 L 433.357 544.355 L 437.253 542.060 L 438.296 541.427 L 442.145 539.018 L 443.161 538.362 L 446.959 535.840 L 447.950 535.163 L 451.695 532.529 L 452.659 531.833 L 456.350 529.089 L 457.287 528.373 L 460.921 525.521 L 461.830 524.787 L 465.405 521.828 L 466.287 521.079 L 466.640 520.771 L 466.640 573.269 L 466.627 575.703 L 466.589 578.014 Z M 203.538 304.294 L 203.757 299.988 L 204.064 295.692 L 204.457 291.409 L 204.938 287.141 L 205.505 282.891 L 206.157 278.663 L 206.895 274.460 L 207.716 270.284 L 208.622 266.139 L 209.610 262.028 L 210.680 257.953 L 211.831 253.918 L 213.061 249.924 L 214.370 245.976 L 215.756 242.075 L 217.217 238.225 L 218.754 234.427 L 220.363 230.685 L 222.043 227.001 L 223.794 223.377 L 225.612 219.816 L 227.498 216.320 L 229.447 212.892 L 231.460 209.532 L 233.533 206.244 L 235.666 203.030 L 237.855 199.890 L 240.099 196.828 L 242.397 193.844 L 244.745 190.941 L 247.142 188.119 L 249.586 185.380 L 252.074 182.725 L 254.605 180.156 L 257.175 177.674 L 259.784 175.279 L 262.429 172.972 L 265.108 170.754 L 267.819 168.627 L 270.560 166.589 L 273.328 164.642 L 276.122 162.787 L 278.940 161.023 L 281.781 159.350 L 284.641 157.769 L 287.521 156.280 L 290.417 154.883 L 293.328 153.577 L 296.253 152.363 L 299.191 151.240 L 302.140 150.208 L 305.099 149.267 L 308.066 148.417 L 311.041 147.657 L 314.023 146.988 L 317.010 146.408 L 320.001 145.918 L 322.997 145.517 L 325.995 145.205 L 328.995 144.983 L 331.997 144.849 L 335.000 144.805 L 338.003 144.849 L 341.005 144.983 L 344.005 145.205 L 347.003 145.517 L 349.999 145.918 L 352.990 146.408 L 355.977 146.988 L 358.959 147.657 L 361.934 148.417 L 364.901 149.267 L 367.860 150.208 L 370.809 151.240 L 373.747 152.363 L 376.672 153.577 L 379.583 154.883 L 382.479 156.280 L 385.359 157.769 L 388.219 159.350 L 391.060 161.023 L 393.878 162.787 L 396.672 164.642 L 399.440 166.589 L 402.181 168.627 L 404.892 170.754 L 407.571 172.972 L 410.216 175.279 L 412.825 177.674 L 415.395 180.156 L 417.926 182.725 L 420.414 185.380 L 422.858 188.119 L 425.255 190.941 L 427.603 193.844 L 429.901 196.828 L 432.145 199.890 L 434.334 203.030 L 436.467 206.244 L 438.540 209.532 L 440.553 212.892 L 442.502 216.320 L 444.388 219.816 L 446.206 223.377 L 447.957 227.001 L 449.637 230.685 L 451.246 234.427 L 452.783 238.225 L 454.244 242.075 L 455.630 245.976 L 456.939 249.924 L 458.169 253.918 L 459.320 257.953 L 460.390 262.028 L 461.378 266.139 L 462.284 270.284 L 463.105 274.460 L 463.843 278.663 L 464.495 282.891 L 465.062 287.141 L 465.543 291.409 L 465.936 295.692 L 466.243 299.988 L 466.462 304.294 L 466.594 308.605 L 466.638 312.920 L 466.594 317.235 L 466.462 321.546 L 466.243 325.852 L 465.936 330.148 L 465.543 334.431 L 465.062 338.699 L 464.495 342.949 L 463.843 347.177 L 463.105 351.380 L 462.284 355.556 L 461.378 359.701 L 460.390 363.812 L 459.320 367.887 L 458.169 371.922 L 456.939 375.916 L 455.630 379.864 L 454.244 383.765 L 452.783 387.615 L 451.246 391.413 L 449.637 395.155 L 447.957 398.839 L 446.206 402.463 L 444.388 406.024 L 442.502 409.520 L 440.553 412.948 L 438.540 416.308 L 436.467 419.596 L 434.334 422.810 L 432.145 425.950 L 429.901 429.012 L 427.603 431.996 L 425.255 434.899 L 422.858 437.721 L 420.414 440.460 L 417.926 443.115 L 415.395 445.684 L 412.825 448.166 L 410.216 450.561 L 407.571 452.868 L 404.892 455.086 L 402.181 457.213 L 399.440 459.251 L 396.672 461.198 L 393.878 463.053 L 391.060 464.817 L 388.219 466.490 L 385.359 468.071 L 382.479 469.560 L 379.583 470.957 L 376.672 472.263 L 373.747 473.477 L 370.809 474.600 L 367.860 475.632 L 364.901 476.573 L 361.934 477.423 L 358.959 478.183 L 355.977 478.852 L 352.990 479.432 L 349.999 479.922 L 347.003 480.323 L 344.005 480.635 L 341.005 480.857 L 338.003 480.991 L 335.000 481.035 L 331.997 480.991 L 328.995 480.857 L 325.995 480.635 L 322.997 480.323 L 320.001 479.922 L 317.010 479.432 L 314.023 478.852 L 311.041 478.183 L 308.066 477.423 L 305.099 476.573 L 302.140 475.632 L 299.191 474.600 L 296.253 473.477 L 293.328 472.263 L 290.417 470.957 L 287.521 469.560 L 284.641 468.071 L 281.781 466.490 L 278.940 464.817 L 276.122 463.053 L 273.328 461.198 L 270.560 459.251 L 267.819 457.213 L 265.108 455.086 L 262.429 452.868 L 259.784 450.561 L 257.175 448.166 L 254.605 445.684 L 252.074 443.115 L 249.586 440.460 L 247.142 437.721 L 244.745 434.899 L 242.397 431.996 L 240.099 429.012 L 237.855 425.950 L 235.666 422.810 L 233.533 419.596 L 231.460 416.308 L 229.447 412.948 L 227.498 409.520 L 225.612 406.024 L 223.794 402.463 L 222.043 398.839 L 220.363 395.155 L 218.754 391.413 L 217.217 387.615 L 215.756 383.765 L 214.370 379.864 L 213.061 375.916 L 211.831 371.922 L 210.680 367.887 L 209.610 363.812 L 208.622 359.701 L 207.716 355.556 L 206.895 351.380 L 206.157 347.177 L 205.505 342.949 L 204.938 338.699 L 204.457 334.431 L 204.064 330.148 L 203.757 325.852 L 203.538 321.546 L 203.406 317.235 L 203.362 312.920 L 203.406 308.605 L 203.538 304.294 Z" fill="black" fill-rule="evenodd"/>
</svg>
