<svg xmlns="http://www.w3.org/2000/svg" viewBox="0 0 600.000 1000" width="600.000" height="1000">
  <path d="M 105.014 781.104 L 105.054 782.208 L 105.122 783.310 L 105.217 784.411 L 105.338 785.508 L 105.487 786.603 L 105.663 787.693 L 105.865 788.779 L 106.093 789.860 L 106.349 790.934 L 106.630 792.002 L 106.938 793.063 L 107.271 794.116 L 107.631 795.160 L 108.015 796.195 L 108.425 797.221 L 108.861 798.236 L 109.320 799.240 L 109.805 800.233 L 110.314 801.213 L 110.846 802.180 L 111.402 803.135 L 111.982 804.075 L 112.584 805.001 L 113.209 805.911 L 113.856 806.806 L 114.524 807.685 L 115.215 808.548 L 115.926 809.393 L 116.657 810.220 L 117.409 811.029 L 118.180 811.820 L 118.971 812.591 L 119.780 813.343 L 120.607 814.074 L 121.452 814.785 L 122.315 815.476 L 123.194 816.144 L 124.089 816.791 L 124.999 817.416 L 125.925 818.018 L 126.865 818.598 L 127.820 819.154 L 128.787 819.686 L 129.767 820.195 L 130.760 820.680 L 131.764 821.139 L 132.779 821.575 L 133.805 821.985 L 134.840 822.369 L 135.884 822.729 L 136.937 823.062 L 137.998 823.370 L 139.066 823.651 L 140.140 823.907 L 141.221 824.135 L 142.307 824.337 L 143.397 824.513 L 144.492 824.662 L 145.589 824.783 L 146.690 824.878 L 147.792 824.946 L 148.896 824.986 L 150.000 825.000 L 151.104 824.986 L 152.208 824.946 L 153.310 824.878 L 154.411 824.783 L 155.508 824.662 L 156.603 824.513 L 157.693 824.337 L 158.779 824.135 L 159.860 823.907 L 160.934 823.651 L 162.002 823.370 L 163.063 823.062 L 164.116 822.729 L 165.160 822.369 L 166.195 821.985 L 167.221 821.575 L 168.236 821.139 L 169.240 820.680 L 170.233 820.195 L 171.213 819.686 L 172.180 819.154 L 173.135 818.598 L 174.075 818.018 L 175.001 817.416 L 175.911 816.791 L 176.806 816.144 L 177.685 815.476 L 178.548 814.785 L 179.393 814.074 L 180.220 813.343 L 181.029 812.591 L 181.820 811.820 L 182.591 811.029 L 183.343 810.220 L 184.074 809.393 L 184.785 808.548 L 185.476 807.685 L 186.144 806.806 L 186.791 805.911 L 187.416 805.001 L 188.018 804.075 L 188.598 803.135 L 189.154 802.180 L 189.686 801.213 L 190.195 800.233 L 190.680 799.240 L 191.139 798.236 L 191.575 797.221 L 191.985 796.195 L 192.369 795.160 L 192.729 794.116 L 193.062 793.063 L 193.370 792.002 L 193.651 790.934 L 193.907 789.860 L 194.135 788.779 L 194.337 787.693 L 194.513 786.603 L 194.662 785.508 L 194.783 784.411 L 194.878 783.310 L 194.946 782.208 L 194.986 781.104 L 195.000 780.000 L 195.000 405.000 L 329.848 405.000 L 331.885 405.014 L 333.740 405.052 L 335.566 405.114 L 337.361 405.201 L 339.126 405.312 L 340.860 405.446 L 342.565 405.602 L 344.239 405.781 L 345.882 405.981 L 347.495 406.203 L 349.078 406.445 L 350.631 406.708 L 352.153 406.990 L 353.646 407.291 L 355.108 407.611 L 356.541 407.949 L 357.944 408.305 L 359.318 408.678 L 360.662 409.067 L 361.978 409.473 L 363.265 409.894 L 364.524 410.330 L 365.755 410.782 L 366.959 411.247 L 368.135 411.727 L 369.285 412.221 L 370.409 412.727 L 371.507 413.247 L 372.579 413.780 L 373.627 414.325 L 374.651 414.883 L 375.651 415.452 L 376.628 416.034 L 377.583 416.628 L 378.516 417.234 L 379.427 417.851 L 380.318 418.481 L 381.189 419.123 L 382.041 419.776 L 382.873 420.442 L 383.687 421.121 L 384.484 421.813 L 385.263 422.517 L 386.026 423.235 L 386.773 423.967 L 387.504 424.713 L 388.220 425.473 L 388.921 426.249 L 389.608 427.040 L 390.280 427.848 L 390.939 428.672 L 391.585 429.514 L 392.217 430.373 L 392.837 431.251 L 393.443 432.148 L 394.036 433.064 L 394.617 434.001 L 395.185 434.959 L 395.741 435.938 L 396.283 436.940 L 396.813 437.964 L 397.329 439.012 L 397.833 440.083 L 398.322 441.179 L 398.798 442.299 L 399.260 443.446 L 399.707 444.618 L 400.140 445.816 L 400.557 447.041 L 400.959 448.294 L 401.345 449.574 L 401.715 450.882 L 402.068 452.218 L 402.403 453.583 L 402.720 454.977 L 403.019 456.400 L 403.300 457.852 L 403.560 459.334 L 403.801 460.845 L 404.022 462.386 L 404.221 463.956 L 404.399 465.557 L 404.555 467.188 L 404.689 468.848 L 404.799 470.539 L 404.886 472.260 L 404.948 474.010 L 404.986 475.791 L 405.000 477.759 L 405.000 780.000 L 405.014 781.104 L 405.054 782.208 L 405.122 783.310 L 405.217 784.411 L 405.338 785.508 L 405.487 786.603 L 405.663 787.693 L 405.865 788.779 L 406.093 789.860 L 406.349 790.934 L 406.630 792.002 L 406.938 793.063 L 407.271 794.116 L 407.631 795.160 L 408.015 796.195 L 408.425 797.221 L 408.861 798.236 L 409.320 799.240 L 409.805 800.233 L 410.314 801.213 L 410.846 802.180 L 411.402 803.135 L 411.982 804.075 L 412.584 805.001 L 413.209 805.911 L 413.856 806.806 L 414.524 807.685 L 415.215 808.548 L 415.926 809.393 L 416.657 810.220 L 417.409 811.029 L 418.180 811.820 L 418.971 812.591 L 419.780 813.343 L 420.607 814.074 L 421.452 814.785 L 422.315 815.476 L 423.194 816.144 L 424.089 816.791 L 424.999 817.416 L 425.925 818.018 L 426.865 818.598 L 427.820 819.154 L 428.787 819.686 L 429.767 820.195 L 430.760 820.680 L 431.764 821.139 L 432.779 821.575 L 433.805 821.985 L 434.840 822.369 L 435.884 822.729 L 436.937 823.062 L 437.998 823.370 L 439.066 823.651 L 440.140 823.907 L 441.221 824.135 L 442.307 824.337 L 443.397 824.513 L 444.492 824.662 L 445.589 824.783 L 446.690 824.878 L 447.792 824.946 L 448.896 824.986 L 450.000 825.000 L 451.104 824.986 L 452.208 824.946 L 453.310 824.878 L 454.411 824.783 L 455.508 824.662 L 456.603 824.513 L 457.693 824.337 L 458.779 824.135 L 459.860 823.907 L 460.934 823.651 L 462.002 823.370 L 463.063 823.062 L 464.116 822.729 L 465.160 822.369 L 466.195 821.985 L 467.221 821.575 L 468.236 821.139 L 469.240 820.680 L 470.233 820.195 L 471.213 819.686 L 472.180 819.154 L 473.135 818.598 L 474.075 818.018 L 475.001 817.416 L 475.911 816.791 L 476.806 816.144 L 477.685 815.476 L 478.548 814.785 L 479.393 814.074 L 480.220 813.343 L 481.029 812.591 L 481.820 811.820 L 482.591 811.029 L 483.343 810.220 L 484.074 809.393 L 484.785 808.548 L 485.476 807.685 L 486.144 806.806 L 486.791 805.911 L 487.416 805.001 L 488.018 804.075 L 488.598 803.135 L 489.154 802.180 L 489.686 801.213 L 490.195 800.233 L 490.680 799.240 L 491.139 798.236 L 491.575 797.221 L 491.985 796.195 L 492.369 795.160 L 492.729 794.116 L 493.062 793.063 L 493.370 792.002 L 493.651 790.934 L 493.907 789.860 L 494.135 788.779 L 494.337 787.693 L 494.513 786.603 L 494.662 785.508 L 494.783 784.411 L 494.878 783.310 L 494.946 782.208 L 494.986 781.104 L 495.000 780.000 L 495.000 477.600 L 494.999 477.283 L 494.982 474.836 L 494.973 474.195 L 494.921 471.770 L 494.902 471.120 L 494.817 468.717 L 494.788 468.059 L 494.668 465.677 L 494.630 465.012 L 494.476 462.652 L 494.427 461.978 L 494.239 459.640 L 494.179 458.959 L 493.957 456.643 L 493.886 455.954 L 493.631 453.661 L 493.548 452.965 L 493.260 450.694 L 493.165 449.990 L 492.843 447.742 L 492.736 447.031 L 492.381 444.805 L 492.260 444.088 L 491.873 441.885 L 491.739 441.161 L 491.318 438.981 L 491.171 438.251 L 490.718 436.094 L 490.557 435.358 L 490.071 433.225 L 489.895 432.483 L 489.377 430.374 L 489.187 429.627 L 488.636 427.541 L 488.431 426.789 L 487.848 424.727 L 487.628 423.971 L 487.013 421.932 L 486.777 421.173 L 486.130 419.158 L 485.878 418.395 L 485.200 416.405 L 484.931 415.639 L 484.221 413.673 L 483.936 412.905 L 483.195 410.964 L 482.893 410.194 L 482.121 408.278 L 481.802 407.507 L 480.999 405.615 L 480.663 404.844 L 479.828 402.977 L 479.475 402.206 L 478.610 400.364 L 478.239 399.594 L 477.343 397.777 L 476.955 397.008 L 476.029 395.217 L 475.624 394.451 L 474.667 392.685 L 474.244 391.922 L 473.257 390.181 L 472.817 389.422 L 471.799 387.708 L 471.342 386.953 L 470.295 385.264 L 469.820 384.515 L 468.743 382.852 L 468.251 382.109 L 467.145 380.472 L 466.636 379.736 L 465.500 378.125 L 464.975 377.397 L 463.810 375.813 L 463.268 375.092 L 462.074 373.535 L 461.516 372.824 L 460.293 371.293 L 459.720 370.591 L 458.467 369.087 L 457.880 368.396 L 456.598 366.919 L 455.996 366.239 L 454.686 364.790 L 454.069 364.122 L 452.731 362.699 L 452.101 362.043 L 450.734 360.648 L 450.091 360.006 L 448.696 358.638 L 448.041 358.009 L 446.617 356.669 L 445.950 356.054 L 444.499 354.742 L 443.821 354.142 L 442.342 352.858 L 441.654 352.273 L 440.147 351.017 L 439.450 350.447 L 437.915 349.220 L 437.209 348.666 L 435.647 347.467 L 434.932 346.929 L 433.343 345.758 L 432.621 345.237 L 431.004 344.095 L 430.276 343.591 L 428.632 342.477 L 427.898 341.990 L 426.228 340.906 L 425.488 340.436 L 423.791 339.380 L 423.047 338.927 L 421.323 337.901 L 420.575 337.465 L 418.826 336.469 L 418.075 336.050 L 416.299 335.083 L 415.546 334.682 L 413.743 333.744 L 412.989 333.361 L 411.161 332.453 L 410.405 332.086 L 408.551 331.208 L 407.795 330.859 L 405.915 330.011 L 405.160 329.678 L 403.255 328.861 L 402.500 328.545 L 400.569 327.758 L 399.816 327.459 L 397.861 326.702 L 397.110 326.419 L 395.129 325.693 L 394.380 325.426 L 392.375 324.730 L 391.629 324.479 L 389.599 323.815 L 388.857 323.579 L 386.802 322.946 L 386.065 322.725 L 383.985 322.123 L 383.252 321.918 L 381.148 321.347 L 380.420 321.156 L 378.291 320.616 L 377.569 320.440 L 375.416 319.932 L 374.699 319.769 L 372.523 319.293 L 371.812 319.143 L 369.611 318.699 L 368.907 318.563 L 366.683 318.150 L 365.985 318.027 L 363.737 317.647 L 363.046 317.535 L 360.775 317.188 L 360.090 317.088 L 357.796 316.773 L 357.119 316.685 L 354.801 316.402 L 354.131 316.326 L 351.791 316.076 L 351.129 316.010 L 348.766 315.793 L 348.111 315.738 L 345.725 315.554 L 345.078 315.508 L 342.670 315.357 L 342.030 315.322 L 339.600 315.204 L 338.968 315.178 L 336.515 315.094 L 335.892 315.077 L 333.417 315.026 L 332.802 315.018 L 330.305 315.001 L 330.000 315.000 L 195.000 315.000 L 195.000 40.000 L 194.986 38.896 L 194.946 37.792 L 194.878 36.690 L 194.783 35.589 L 194.662 34.492 L 194.513 33.397 L 194.337 32.307 L 194.135 31.221 L 193.907 30.140 L 193.651 29.066 L 193.370 27.998 L 193.062 26.937 L 192.729 25.884 L 192.369 24.840 L 191.985 23.805 L 191.575 22.779 L 191.139 21.764 L 190.680 20.760 L 190.195 19.767 L 189.686 18.787 L 189.154 17.820 L 188.598 16.865 L 188.018 15.925 L 187.416 14.999 L 186.791 14.089 L 186.144 13.194 L 185.476 12.315 L 184.785 11.452 L 184.074 10.607 L 183.343 9.780 L 182.591 8.971 L 181.820 8.180 L 181.029 7.409 L 180.220 6.657 L 179.393 5.926 L 178.548 5.215 L 177.685 4.524 L 176.806 3.856 L 175.911 3.209 L 175.001 2.584 L 174.075 1.982 L 173.135 1.402 L 172.180 0.846 L 171.213 0.314 L 170.233 -0.195 L 169.240 -0.680 L 168.236 -1.139 L 167.221 -1.575 L 166.195 -1.985 L 165.160 -2.369 L 164.116 -2.729 L 163.063 -3.062 L 162.002 -3.370 L 160.934 -3.651 L 159.860 -3.907 L 158.779 -4.135 L 157.693 -4.337 L 156.603 -4.513 L 155.508 -4.662 L 154.411 -4.783 L 153.310 -4.878 L 152.208 -4.946 L 151.104 -4.986 L 150.000 -5.000 L 148.896 -4.986 L 147.792 -4.946 L 146.690 -4.878 L 145.589 -4.783 L 144.492 -4.662 L 143.397 -4.513 L 142.307 -4.337 L 141.221 -4.135 L 140.140 -3.907 L 139.066 -3.651 L 137.998 -3.370 L 136.937 -3.062 L 135.884 -2.729 L 134.840 -2.369 L 133.805 -1.985 L 132.779 -1.575 L 131.764 -1.139 L 130.760 -0.680 L 129.767 -0.195 L 128.787 0.314 L 127.820 0.846 L 126.865 1.402 L 125.925 1.982 L 124.999 2.584 L 124.089 3.209 L 123.194 3.856 L 122.315 4.524 L 121.452 5.215 L 120.607 5.926 L 119.780 6.657 L 118.971 7.409 L 118.180 8.180 L 117.409 8.971 L 116.657 9.780 L 115.926 10.607 L 115.215 11.452 L 114.524 12.315 L 113.856 13.194 L 113.209 14.089 L 112.584 14.999 L 111.982 15.925 L 111.402 16.865 L 110.846 17.820 L 110.314 18.787 L 109.805 19.767 L 109.320 20.760 L 108.861 21.764 L 108.425 22.779 L 108.015 23.805 L 107.631 24.840 L 107.271 25.884 L 106.938 26.937 L 106.630 27.998 L 106.349 29.066 L 106.093 30.140 L 105.865 31.221 L 105.663 32.307 L 105.487 33.397 L 105.338 34.492 L 105.217 35.589 L 105.122 36.690 L 105.054 37.792 L 105.014 38.896 L 105.000 40.000 L 105.000 360.000 L 105.000 780.000 L 105.014 781.104 Z" fill="black" fill-rule="evenodd"/>
</svg>
