<svg xmlns="http://www.w3.org/2000/svg" viewBox="0 0 700.000 1000" width="700.000" height="1000">
  <path d="M 575.475 229.563 L 575.420 226.076 L 575.376 224.674 L 575.213 221.189 L 575.126 219.791 L 574.855 216.311 L 574.724 214.919 L 574.344 211.444 L 574.171 210.061 L 573.683 206.595 L 573.468 205.221 L 572.871 201.766 L 572.615 200.405 L 571.911 196.963 L 571.615 195.617 L 570.804 192.189 L 570.468 190.859 L 569.551 187.448 L 569.177 186.137 L 568.154 182.745 L 567.743 181.455 L 566.614 178.083 L 566.168 176.815 L 564.935 173.465 L 564.455 172.221 L 563.117 168.896 L 562.605 167.676 L 561.164 164.379 L 560.622 163.185 L 559.079 159.916 L 558.507 158.749 L 556.862 155.512 L 556.263 154.372 L 554.517 151.167 L 553.892 150.057 L 552.048 146.887 L 551.398 145.805 L 549.455 142.671 L 548.783 141.620 L 546.743 138.525 L 546.049 137.503 L 543.913 134.448 L 543.200 133.457 L 540.970 130.445 L 540.239 129.484 L 537.915 126.515 L 537.167 125.585 L 534.752 122.662 L 533.988 121.763 L 531.482 118.888 L 530.705 118.019 L 528.110 115.193 L 527.320 114.354 L 524.638 111.579 L 523.837 110.770 L 521.069 108.048 L 520.257 107.269 L 517.405 104.601 L 516.584 103.851 L 513.650 101.239 L 512.820 100.518 L 509.805 97.964 L 508.968 97.271 L 505.875 94.776 L 505.031 94.111 L 501.861 91.676 L 501.012 91.040 L 497.766 88.666 L 496.912 88.057 L 493.594 85.747 L 492.735 85.164 L 489.346 82.919 L 488.484 82.362 L 485.025 80.183 L 484.160 79.651 L 480.635 77.539 L 479.767 77.033 L 476.177 74.990 L 475.307 74.508 L 471.654 72.535 L 470.782 72.076 L 467.069 70.175 L 466.196 69.739 L 462.425 67.910 L 461.551 67.497 L 457.724 65.742 L 456.849 65.351 L 452.968 63.670 L 452.093 63.302 L 448.161 61.696 L 447.286 61.349 L 443.305 59.819 L 442.429 59.493 L 438.402 58.041 L 437.526 57.735 L 433.455 56.362 L 432.580 56.076 L 428.467 54.781 L 427.592 54.516 L 423.440 53.301 L 422.565 53.054 L 418.377 51.920 L 417.503 51.692 L 413.280 50.639 L 412.406 50.431 L 408.152 49.459 L 407.279 49.269 L 402.995 48.380 L 402.123 48.208 L 397.813 47.403 L 396.941 47.248 L 392.608 46.526 L 391.736 46.390 L 387.381 45.751 L 386.510 45.632 L 382.137 45.079 L 381.266 44.977 L 376.877 44.508 L 376.006 44.423 L 371.604 44.039 L 370.734 43.971 L 366.321 43.672 L 365.451 43.622 L 361.030 43.408 L 360.160 43.374 L 355.733 43.246 L 354.864 43.229 L 350.435 43.186 L 349.565 43.186 L 345.136 43.229 L 344.267 43.246 L 339.840 43.374 L 338.970 43.408 L 334.549 43.622 L 333.679 43.672 L 329.266 43.971 L 328.396 44.039 L 323.994 44.423 L 323.123 44.508 L 318.734 44.977 L 317.863 45.079 L 313.490 45.632 L 312.619 45.751 L 308.264 46.390 L 307.392 46.526 L 303.059 47.248 L 302.187 47.403 L 297.877 48.208 L 297.005 48.380 L 292.721 49.269 L 291.848 49.459 L 287.594 50.431 L 286.720 50.639 L 282.497 51.692 L 281.623 51.920 L 277.435 53.054 L 276.560 53.301 L 272.408 54.516 L 271.533 54.781 L 267.420 56.076 L 266.545 56.362 L 262.474 57.735 L 261.598 58.041 L 257.571 59.493 L 256.695 59.819 L 252.714 61.349 L 251.839 61.696 L 247.907 63.302 L 247.032 63.670 L 243.151 65.351 L 242.276 65.742 L 238.449 67.497 L 237.575 67.910 L 233.804 69.739 L 232.931 70.175 L 229.218 72.076 L 228.346 72.535 L 224.693 74.508 L 223.823 74.990 L 220.233 77.033 L 219.365 77.539 L 215.840 79.651 L 214.975 80.183 L 211.516 82.362 L 210.654 82.919 L 207.265 85.164 L 206.406 85.747 L 203.088 88.057 L 202.234 88.666 L 198.988 91.040 L 198.139 91.676 L 194.969 94.111 L 194.125 94.776 L 191.032 97.271 L 190.195 97.964 L 187.180 100.518 L 186.350 101.239 L 183.416 103.851 L 182.595 104.601 L 179.743 107.269 L 178.931 108.048 L 176.163 110.770 L 175.362 111.579 L 172.680 114.354 L 171.890 115.193 L 169.295 118.019 L 168.518 118.888 L 166.012 121.763 L 165.248 122.662 L 162.833 125.585 L 162.085 126.515 L 159.761 129.484 L 159.030 130.445 L 156.800 133.457 L 156.087 134.448 L 153.951 137.503 L 153.257 138.525 L 151.217 141.620 L 150.545 142.671 L 148.602 145.805 L 147.952 146.887 L 146.108 150.057 L 145.483 151.167 L 143.737 154.372 L 143.138 155.512 L 141.493 158.749 L 140.921 159.916 L 139.378 163.185 L 138.836 164.379 L 137.395 167.676 L 136.883 168.896 L 135.545 172.221 L 135.065 173.465 L 133.832 176.815 L 133.386 178.083 L 132.257 181.455 L 131.846 182.745 L 130.823 186.137 L 130.449 187.448 L 129.532 190.859 L 129.196 192.189 L 128.385 195.617 L 128.089 196.963 L 127.385 200.405 L 127.129 201.766 L 126.532 205.221 L 126.317 206.595 L 125.829 210.061 L 125.656 211.444 L 125.276 214.919 L 125.145 216.311 L 124.874 219.791 L 124.787 221.189 L 124.624 224.674 L 124.580 226.076 L 124.525 229.563 L 124.525 230.965 L 124.580 234.452 L 124.624 235.854 L 124.787 239.339 L 124.874 240.737 L 125.145 244.217 L 125.276 245.609 L 125.656 249.084 L 125.829 250.467 L 126.317 253.933 L 126.532 255.307 L 127.129 258.762 L 127.385 260.123 L 128.089 263.565 L 128.385 264.911 L 129.196 268.339 L 129.532 269.669 L 130.449 273.080 L 130.823 274.391 L 131.846 277.783 L 132.257 279.073 L 133.386 282.445 L 133.832 283.713 L 135.065 287.063 L 135.545 288.307 L 136.883 291.632 L 137.395 292.852 L 138.836 296.149 L 139.378 297.343 L 140.921 300.612 L 141.493 301.779 L 143.138 305.016 L 143.737 306.156 L 145.483 309.361 L 146.108 310.471 L 147.952 313.641 L 148.602 314.723 L 150.545 317.857 L 151.217 318.908 L 153.257 322.003 L 153.951 323.025 L 156.087 326.080 L 156.800 327.071 L 159.030 330.083 L 159.761 331.044 L 162.085 334.013 L 162.833 334.943 L 165.248 337.866 L 166.012 338.765 L 168.518 341.640 L 169.295 342.509 L 171.890 345.335 L 172.680 346.174 L 175.362 348.949 L 176.163 349.758 L 178.931 352.480 L 179.743 353.259 L 182.595 355.927 L 183.416 356.677 L 186.350 359.289 L 187.180 360.010 L 190.195 362.564 L 191.032 363.257 L 194.125 365.752 L 194.969 366.417 L 198.139 368.852 L 198.988 369.488 L 202.234 371.862 L 203.088 372.471 L 206.406 374.781 L 207.265 375.364 L 210.654 377.609 L 211.516 378.166 L 214.975 380.345 L 215.840 380.877 L 219.365 382.989 L 220.233 383.495 L 223.823 385.538 L 224.693 386.020 L 228.346 387.993 L 229.218 388.452 L 232.931 390.353 L 233.804 390.789 L 237.575 392.618 L 238.449 393.031 L 242.276 394.786 L 243.151 395.177 L 247.032 396.858 L 247.907 397.226 L 251.839 398.832 L 252.531 399.107 L 250.204 399.996 L 249.297 400.354 L 244.977 402.113 L 244.072 402.493 L 239.805 404.340 L 238.903 404.743 L 234.692 406.676 L 233.793 407.101 L 229.640 409.121 L 228.744 409.569 L 224.652 411.673 L 223.759 412.144 L 219.730 414.331 L 218.842 414.826 L 214.879 417.095 L 213.995 417.614 L 210.100 419.963 L 209.222 420.506 L 205.396 422.935 L 204.524 423.503 L 200.771 426.009 L 199.905 426.602 L 196.227 429.184 L 195.368 429.802 L 191.767 432.458 L 190.915 433.102 L 187.394 435.832 L 186.550 436.502 L 183.110 439.302 L 182.276 439.998 L 178.919 442.869 L 178.095 443.591 L 174.823 446.529 L 174.010 447.278 L 170.826 450.282 L 170.024 451.058 L 166.929 454.127 L 166.140 454.929 L 163.136 458.060 L 162.360 458.890 L 159.450 462.081 L 158.688 462.938 L 155.873 466.188 L 155.127 467.072 L 152.408 470.378 L 151.678 471.289 L 149.057 474.650 L 148.346 475.588 L 145.824 479.002 L 145.132 479.966 L 142.712 483.430 L 142.040 484.420 L 139.722 487.934 L 139.071 488.950 L 136.857 492.509 L 136.229 493.551 L 134.121 497.155 L 133.516 498.221 L 131.515 501.867 L 130.935 502.958 L 129.041 506.644 L 128.488 507.758 L 126.703 511.481 L 126.178 512.619 L 124.503 516.377 L 124.006 517.537 L 122.442 521.329 L 121.975 522.509 L 120.524 526.332 L 120.087 527.532 L 118.749 531.383 L 118.344 532.602 L 117.119 536.479 L 116.748 537.715 L 115.638 541.617 L 115.301 542.869 L 114.305 546.792 L 114.003 548.059 L 113.124 552.001 L 112.857 553.281 L 112.094 557.240 L 111.864 558.531 L 111.217 562.505 L 111.025 563.806 L 110.495 567.791 L 110.341 569.101 L 109.928 573.096 L 109.812 574.411 L 109.517 578.414 L 109.440 579.734 L 109.263 583.741 L 109.224 585.064 L 109.165 589.074 L 109.165 590.398 L 109.224 594.408 L 109.263 595.731 L 109.440 599.738 L 109.517 601.058 L 109.812 605.061 L 109.928 606.376 L 110.341 610.371 L 110.495 611.681 L 111.025 615.666 L 111.217 616.967 L 111.864 620.941 L 112.094 622.232 L 112.857 626.191 L 113.124 627.471 L 114.003 631.413 L 114.305 632.680 L 115.301 636.603 L 115.638 637.855 L 116.748 641.757 L 117.119 642.993 L 118.344 646.870 L 118.749 648.089 L 120.087 651.940 L 120.524 653.140 L 121.975 656.963 L 122.442 658.143 L 124.006 661.935 L 124.503 663.095 L 126.178 666.853 L 126.703 667.991 L 128.488 671.714 L 129.041 672.828 L 130.935 676.514 L 131.515 677.605 L 133.516 681.251 L 134.121 682.317 L 136.229 685.921 L 136.857 686.963 L 139.071 690.522 L 139.722 691.538 L 142.040 695.052 L 142.712 696.042 L 145.132 699.506 L 145.824 700.470 L 148.346 703.884 L 149.057 704.822 L 151.678 708.183 L 152.408 709.094 L 155.127 712.400 L 155.873 713.284 L 158.688 716.534 L 159.450 717.391 L 162.360 720.582 L 163.136 721.412 L 166.140 724.543 L 166.929 725.345 L 170.024 728.414 L 170.826 729.190 L 174.010 732.194 L 174.823 732.943 L 178.095 735.881 L 178.919 736.603 L 182.276 739.474 L 183.110 740.170 L 186.550 742.970 L 187.394 743.640 L 190.915 746.370 L 191.767 747.014 L 195.368 749.670 L 196.227 750.288 L 199.905 752.870 L 200.771 753.463 L 204.524 755.969 L 205.396 756.537 L 209.222 758.966 L 210.100 759.509 L 213.995 761.858 L 214.879 762.377 L 218.842 764.646 L 219.730 765.141 L 223.759 767.328 L 224.652 767.799 L 228.744 769.903 L 229.640 770.351 L 233.793 772.371 L 234.692 772.796 L 238.903 774.729 L 239.805 775.132 L 244.072 776.979 L 244.977 777.359 L 249.297 779.118 L 250.204 779.476 L 254.574 781.146 L 255.484 781.482 L 259.901 783.062 L 260.813 783.377 L 265.276 784.866 L 266.189 785.160 L 270.694 786.557 L 271.609 786.830 L 276.154 788.135 L 277.070 788.387 L 281.652 789.598 L 282.568 789.830 L 287.185 790.947 L 288.102 791.159 L 292.750 792.181 L 293.669 792.373 L 298.345 793.300 L 299.264 793.472 L 303.967 794.303 L 304.886 794.455 L 309.611 795.189 L 310.532 795.322 L 315.277 795.959 L 316.198 796.073 L 320.960 796.613 L 321.881 796.708 L 326.658 797.150 L 327.580 797.226 L 332.368 797.570 L 333.290 797.626 L 338.087 797.872 L 339.008 797.910 L 343.812 798.058 L 344.733 798.076 L 349.539 798.126 L 350.461 798.126 L 355.267 798.076 L 356.188 798.058 L 360.992 797.910 L 361.913 797.872 L 366.710 797.626 L 367.632 797.570 L 372.420 797.226 L 373.342 797.150 L 378.119 796.708 L 379.040 796.613 L 383.802 796.073 L 384.723 795.959 L 389.468 795.322 L 390.389 795.189 L 395.114 794.455 L 396.033 794.303 L 400.736 793.472 L 401.655 793.300 L 406.331 792.373 L 407.250 792.181 L 411.898 791.159 L 412.815 790.947 L 417.432 789.830 L 418.348 789.598 L 422.930 788.387 L 423.846 788.135 L 428.391 786.830 L 429.306 786.557 L 433.811 785.160 L 434.724 784.866 L 439.187 783.377 L 440.099 783.062 L 444.516 781.482 L 445.426 781.146 L 449.796 779.476 L 450.703 779.118 L 455.023 777.359 L 455.928 776.979 L 460.195 775.132 L 461.097 774.729 L 465.308 772.796 L 466.207 772.371 L 470.360 770.351 L 471.256 769.903 L 475.348 767.799 L 476.241 767.328 L 480.270 765.141 L 481.158 764.646 L 485.121 762.377 L 486.005 761.858 L 489.900 759.509 L 490.778 758.966 L 494.604 756.537 L 495.476 755.969 L 499.229 753.463 L 500.095 752.870 L 503.773 750.288 L 504.632 749.670 L 508.233 747.014 L 509.085 746.370 L 512.606 743.640 L 513.450 742.970 L 516.890 740.170 L 517.724 739.474 L 521.081 736.603 L 521.905 735.881 L 525.177 732.943 L 525.990 732.194 L 529.174 729.190 L 529.976 728.414 L 533.071 725.345 L 533.860 724.543 L 536.864 721.412 L 537.640 720.582 L 540.550 717.391 L 541.312 716.534 L 544.127 713.284 L 544.873 712.400 L 547.592 709.094 L 548.322 708.183 L 550.943 704.822 L 551.654 703.884 L 554.176 700.470 L 554.868 699.506 L 557.288 696.042 L 557.960 695.052 L 560.278 691.538 L 560.929 690.522 L 563.143 686.963 L 563.771 685.921 L 565.879 682.317 L 566.484 681.251 L 568.485 677.605 L 569.065 676.514 L 570.959 672.828 L 571.512 671.714 L 573.297 667.991 L 573.822 666.853 L 575.497 663.095 L 575.994 661.935 L 577.558 658.143 L 578.025 656.963 L 579.476 653.140 L 579.913 651.940 L 581.251 648.089 L 581.656 646.870 L 582.881 642.993 L 583.252 641.757 L 584.362 637.855 L 584.699 636.603 L 585.695 632.680 L 585.997 631.413 L 586.876 627.471 L 587.143 626.191 L 587.906 622.232 L 588.136 620.941 L 588.783 616.967 L 588.975 615.666 L 589.505 611.681 L 589.659 610.371 L 590.072 606.376 L 590.188 605.061 L 590.483 601.058 L 590.560 599.738 L 590.737 595.731 L 590.776 594.408 L 590.835 590.398 L 590.835 589.074 L 590.776 585.064 L 590.737 583.741 L 590.560 579.734 L 590.483 578.414 L 590.188 574.411 L 590.072 573.096 L 589.659 569.101 L 589.505 567.791 L 588.975 563.806 L 588.783 562.505 L 588.136 558.531 L 587.906 557.240 L 587.143 553.281 L 586.876 552.001 L 585.997 548.059 L 585.695 546.792 L 584.699 542.869 L 584.362 541.617 L 583.252 537.715 L 582.881 536.479 L 581.656 532.602 L 581.251 531.383 L 579.913 527.532 L 579.476 526.332 L 578.025 522.509 L 577.558 521.329 L 575.994 517.537 L 575.497 516.377 L 573.822 512.619 L 573.297 511.481 L 571.512 507.758 L 570.959 506.644 L 569.065 502.958 L 568.485 501.867 L 566.484 498.221 L 565.879 497.155 L 563.771 493.551 L 563.143 492.509 L 560.929 488.950 L 560.278 487.934 L 557.960 484.420 L 557.288 483.430 L 554.868 479.966 L 554.176 479.002 L 551.654 475.588 L 550.943 474.650 L 548.322 471.289 L 547.592 470.378 L 544.873 467.072 L 544.127 466.188 L 541.312 462.938 L 540.550 462.081 L 537.640 458.890 L 536.864 458.060 L 533.860 454.929 L 533.071 454.127 L 529.976 451.058 L 529.174 450.282 L 525.990 447.278 L 525.177 446.529 L 521.905 443.591 L 521.081 442.869 L 517.724 439.998 L 516.890 439.302 L 513.450 436.502 L 512.606 435.832 L 509.085 433.102 L 508.233 432.458 L 504.632 429.802 L 503.773 429.184 L 500.095 426.602 L 499.229 426.009 L 495.476 423.503 L 494.604 422.935 L 490.778 420.506 L 489.900 419.963 L 486.005 417.614 L 485.121 417.095 L 481.158 414.826 L 480.270 414.331 L 476.241 412.144 L 475.348 411.673 L 471.256 409.569 L 470.360 409.121 L 466.207 407.101 L 465.308 406.676 L 461.097 404.743 L 460.195 404.340 L 455.928 402.493 L 455.023 402.113 L 450.703 400.354 L 449.796 399.996 L 447.469 399.107 L 448.161 398.832 L 452.093 397.226 L 452.968 396.858 L 456.849 395.177 L 457.724 394.786 L 461.551 393.031 L 462.425 392.618 L 466.196 390.789 L 467.069 390.353 L 470.782 388.452 L 471.654 387.993 L 475.307 386.020 L 476.177 385.538 L 479.767 383.495 L 480.635 382.989 L 484.160 380.877 L 485.025 380.345 L 488.484 378.166 L 489.346 377.609 L 492.735 375.364 L 493.594 374.781 L 496.912 372.471 L 497.766 371.862 L 501.012 369.488 L 501.861 368.852 L 505.031 366.417 L 505.875 365.752 L 508.968 363.257 L 509.805 362.564 L 512.820 360.010 L 513.650 359.289 L 516.584 356.677 L 517.405 355.927 L 520.257 353.259 L 521.069 352.480 L 523.837 349.758 L 524.638 348.949 L 527.320 346.174 L 528.110 345.335 L 530.705 342.509 L 531.482 341.640 L 533.988 338.765 L 534.752 337.866 L 537.167 334.943 L 537.915 334.013 L 540.239 331.044 L 540.970 330.083 L 543.200 327.071 L 543.913 326.080 L 546.049 323.025 L 546.743 322.003 L 548.783 318.908 L 549.455 317.857 L 551.398 314.723 L 552.048 313.641 L 553.892 310.471 L 554.517 309.361 L 556.263 306.156 L 556.862 305.016 L 558.507 301.779 L 559.079 300.612 L 560.622 297.343 L 561.164 296.149 L 562.605 292.852 L 563.117 291.632 L 564.455 288.307 L 564.935 287.063 L 566.168 283.713 L 566.614 282.445 L 567.743 279.073 L 568.154 277.783 L 569.177 274.391 L 569.551 273.080 L 570.468 269.669 L 570.804 268.339 L 571.615 264.911 L 571.911 263.565 L 572.615 260.123 L 572.871 258.762 L 573.468 255.307 L 573.683 253.933 L 574.171 250.467 L 574.344 249.084 L 574.724 245.609 L 574.855 244.217 L 575.126 240.737 L 575.213 239.339 L 575.376 235.854 L 575.420 234.452 L 575.475 230.965 L 575.475 229.563 Z M 500.796 592.422 L 500.677 595.108 L 500.479 597.793 L 500.202 600.475 L 499.846 603.156 L 499.410 605.833 L 498.895 608.507 L 498.299 611.176 L 497.623 613.839 L 496.867 616.497 L 496.030 619.147 L 495.111 621.789 L 494.112 624.422 L 493.030 627.044 L 491.867 629.654 L 490.622 632.252 L 489.295 634.835 L 487.886 637.402 L 486.394 639.952 L 484.821 642.482 L 483.165 644.992 L 481.427 647.480 L 479.608 649.943 L 477.707 652.380 L 475.726 654.790 L 473.664 657.170 L 471.523 659.518 L 469.302 661.833 L 467.004 664.112 L 464.628 666.353 L 462.176 668.556 L 459.648 670.717 L 457.047 672.834 L 454.374 674.906 L 451.629 676.931 L 448.814 678.908 L 445.931 680.833 L 442.981 682.705 L 439.967 684.523 L 436.889 686.284 L 433.751 687.988 L 430.553 689.632 L 427.298 691.214 L 423.989 692.734 L 420.626 694.190 L 417.213 695.580 L 413.752 696.902 L 410.245 698.156 L 406.694 699.341 L 403.103 700.455 L 399.473 701.497 L 395.807 702.466 L 392.108 703.361 L 388.379 704.181 L 384.621 704.925 L 380.839 705.593 L 377.033 706.184 L 373.208 706.698 L 369.366 707.133 L 365.510 707.490 L 361.642 707.768 L 357.766 707.967 L 353.885 708.086 L 350.000 708.126 L 346.115 708.086 L 342.234 707.967 L 338.358 707.768 L 334.490 707.490 L 330.634 707.133 L 326.792 706.698 L 322.967 706.184 L 319.161 705.593 L 315.379 704.925 L 311.621 704.181 L 307.892 703.361 L 304.193 702.466 L 300.527 701.497 L 296.897 700.455 L 293.306 699.341 L 289.755 698.156 L 286.248 696.902 L 282.787 695.580 L 279.374 694.190 L 276.011 692.734 L 272.702 691.214 L 269.447 689.632 L 266.249 687.988 L 263.111 686.284 L 260.033 684.523 L 257.019 682.705 L 254.069 680.833 L 251.186 678.908 L 248.371 676.931 L 245.626 674.906 L 242.953 672.834 L 240.352 670.717 L 237.824 668.556 L 235.372 666.353 L 232.996 664.112 L 230.698 661.833 L 228.477 659.518 L 226.336 657.170 L 224.274 654.790 L 222.293 652.380 L 220.392 649.943 L 218.573 647.480 L 216.835 644.992 L 215.179 642.482 L 213.606 639.952 L 212.114 637.402 L 210.705 634.835 L 209.378 632.252 L 208.133 629.654 L 206.970 627.044 L 205.888 624.422 L 204.889 621.789 L 203.970 619.147 L 203.133 616.497 L 202.377 613.839 L 201.701 611.176 L 201.105 608.507 L 200.590 605.833 L 200.154 603.156 L 199.798 600.475 L 199.521 597.793 L 199.323 595.108 L 199.204 592.422 L 199.165 589.736 L 199.204 587.050 L 199.323 584.364 L 199.521 581.679 L 199.798 578.997 L 200.154 576.316 L 200.590 573.639 L 201.105 570.965 L 201.701 568.296 L 202.377 565.633 L 203.133 562.975 L 203.970 560.325 L 204.889 557.683 L 205.888 555.050 L 206.970 552.428 L 208.133 549.818 L 209.378 547.220 L 210.705 544.637 L 212.114 542.070 L 213.606 539.520 L 215.179 536.990 L 216.835 534.480 L 218.573 531.992 L 220.392 529.529 L 222.293 527.092 L 224.274 524.682 L 226.336 522.302 L 228.477 519.954 L 230.698 517.639 L 232.996 515.360 L 235.372 513.119 L 237.824 510.916 L 240.352 508.755 L 242.953 506.638 L 245.626 504.566 L 248.371 502.541 L 251.186 500.564 L 254.069 498.639 L 257.019 496.767 L 260.033 494.949 L 263.111 493.188 L 266.249 491.484 L 269.447 489.840 L 272.702 488.258 L 276.011 486.738 L 279.374 485.282 L 282.787 483.892 L 286.248 482.570 L 289.755 481.316 L 293.306 480.131 L 296.897 479.017 L 300.527 477.975 L 304.193 477.006 L 307.892 476.111 L 311.621 475.291 L 315.379 474.547 L 319.161 473.879 L 322.967 473.288 L 326.792 472.774 L 330.634 472.339 L 334.490 471.982 L 338.358 471.704 L 342.234 471.505 L 346.115 471.386 L 350.000 471.346 L 353.885 471.386 L 357.766 471.505 L 361.642 471.704 L 365.510 471.982 L 369.366 472.339 L 373.208 472.774 L 377.033 473.288 L 380.839 473.879 L 384.621 474.547 L 388.379 475.291 L 392.108 476.111 L 395.807 477.006 L 399.473 477.975 L 403.103 479.017 L 406.694 480.131 L 410.245 481.316 L 413.752 482.570 L 417.213 483.892 L 420.626 485.282 L 423.989 486.738 L 427.298 488.258 L 430.553 489.840 L 433.751 491.484 L 436.889 493.188 L 439.967 494.949 L 442.981 496.767 L 445.931 498.639 L 448.814 500.564 L 451.629 502.541 L 454.374 504.566 L 457.047 506.638 L 459.648 508.755 L 462.176 510.916 L 464.628 513.119 L 467.004 515.360 L 469.302 517.639 L 471.523 519.954 L 473.664 522.302 L 475.726 524.682 L 477.707 527.092 L 479.608 529.529 L 481.427 531.992 L 483.165 534.480 L 484.821 536.990 L 486.394 539.520 L 487.886 542.070 L 489.295 544.637 L 490.622 547.220 L 491.867 549.818 L 493.030 552.428 L 494.112 555.050 L 495.111 557.683 L 496.030 560.325 L 496.867 562.975 L 497.623 565.633 L 498.299 568.296 L 498.895 570.965 L 499.410 573.639 L 499.846 576.316 L 500.202 578.997 L 500.479 581.679 L 500.677 584.364 L 500.796 587.050 L 500.835 589.736 L 500.796 592.422 Z M 485.442 232.348 L 485.345 234.433 L 485.182 236.518 L 484.954 238.604 L 484.660 240.691 L 484.299 242.779 L 483.872 244.868 L 483.378 246.958 L 482.816 249.050 L 482.184 251.142 L 481.484 253.234 L 480.713 255.327 L 479.871 257.419 L 478.958 259.509 L 477.972 261.597 L 476.913 263.681 L 475.781 265.761 L 474.574 267.835 L 473.292 269.903 L 471.935 271.961 L 470.503 274.010 L 468.995 276.047 L 467.411 278.070 L 465.751 280.079 L 464.016 282.070 L 462.205 284.042 L 460.319 285.994 L 458.358 287.923 L 456.323 289.827 L 454.214 291.704 L 452.033 293.552 L 449.780 295.370 L 447.457 297.155 L 445.063 298.905 L 442.601 300.619 L 440.073 302.294 L 437.478 303.928 L 434.820 305.521 L 432.099 307.069 L 429.318 308.571 L 426.478 310.026 L 423.580 311.431 L 420.628 312.786 L 417.623 314.088 L 414.566 315.336 L 411.462 316.529 L 408.310 317.666 L 405.114 318.744 L 401.877 319.763 L 398.600 320.722 L 395.286 321.620 L 391.937 322.455 L 388.556 323.227 L 385.146 323.934 L 381.709 324.577 L 378.247 325.154 L 374.764 325.664 L 371.262 326.108 L 367.743 326.484 L 364.211 326.792 L 360.668 327.033 L 357.117 327.204 L 353.560 327.308 L 350.000 327.342 L 346.440 327.308 L 342.883 327.204 L 339.332 327.033 L 335.789 326.792 L 332.257 326.484 L 328.738 326.108 L 325.236 325.664 L 321.753 325.154 L 318.291 324.577 L 314.854 323.934 L 311.444 323.227 L 308.063 322.455 L 304.714 321.620 L 301.400 320.722 L 298.123 319.763 L 294.886 318.744 L 291.690 317.666 L 288.538 316.529 L 285.434 315.336 L 282.377 314.088 L 279.372 312.786 L 276.420 311.431 L 273.522 310.026 L 270.682 308.571 L 267.901 307.069 L 265.180 305.521 L 262.522 303.928 L 259.927 302.294 L 257.399 300.619 L 254.937 298.905 L 252.543 297.155 L 250.220 295.370 L 247.967 293.552 L 245.786 291.704 L 243.677 289.827 L 241.642 287.923 L 239.681 285.994 L 237.795 284.042 L 235.984 282.070 L 234.249 280.079 L 232.589 278.070 L 231.005 276.047 L 229.497 274.010 L 228.065 271.961 L 226.708 269.903 L 225.426 267.835 L 224.219 265.761 L 223.087 263.681 L 222.028 261.597 L 221.042 259.509 L 220.129 257.419 L 219.287 255.327 L 218.516 253.234 L 217.816 251.142 L 217.184 249.050 L 216.622 246.958 L 216.128 244.868 L 215.701 242.779 L 215.340 240.691 L 215.046 238.604 L 214.818 236.518 L 214.655 234.433 L 214.558 232.348 L 214.525 230.264 L 214.558 228.180 L 214.655 226.095 L 214.818 224.010 L 215.046 221.924 L 215.340 219.837 L 215.701 217.749 L 216.128 215.660 L 216.622 213.570 L 217.184 211.478 L 217.816 209.386 L 218.516 207.294 L 219.287 205.201 L 220.129 203.109 L 221.042 201.019 L 222.028 198.931 L 223.087 196.847 L 224.219 194.767 L 225.426 192.693 L 226.708 190.625 L 228.065 188.567 L 229.497 186.518 L 231.005 184.481 L 232.589 182.458 L 234.249 180.449 L 235.984 178.458 L 237.795 176.486 L 239.681 174.534 L 241.642 172.605 L 243.677 170.701 L 245.786 168.824 L 247.967 166.976 L 250.220 165.158 L 252.543 163.373 L 254.937 161.623 L 257.399 159.909 L 259.927 158.234 L 262.522 156.600 L 265.180 155.007 L 267.901 153.459 L 270.682 151.957 L 273.522 150.502 L 276.420 149.097 L 279.372 147.742 L 282.377 146.440 L 285.434 145.192 L 288.538 143.999 L 291.690 142.862 L 294.886 141.784 L 298.123 140.765 L 301.400 139.806 L 304.714 138.908 L 308.063 138.073 L 311.444 137.301 L 314.854 136.594 L 318.291 135.951 L 321.753 135.374 L 325.236 134.864 L 328.738 134.420 L 332.257 134.044 L 335.789 133.736 L 339.332 133.495 L 342.883 133.324 L 346.440 133.220 L 350.000 133.186 L 353.560 133.220 L 357.117 133.324 L 360.668 133.495 L 364.211 133.736 L 367.743 134.044 L 371.262 134.420 L 374.764 134.864 L 378.247 135.374 L 381.709 135.951 L 385.146 136.594 L 388.556 137.301 L 391.937 138.073 L 395.286 138.908 L 398.600 139.806 L 401.877 140.765 L 405.114 141.784 L 408.310 142.862 L 411.462 143.999 L 414.566 145.192 L 417.623 146.440 L 420.628 147.742 L 423.580 149.097 L 426.478 150.502 L 429.318 151.957 L 432.099 153.459 L 434.820 155.007 L 437.478 156.600 L 440.073 158.234 L 442.601 159.909 L 445.063 161.623 L 447.457 163.373 L 449.780 165.158 L 452.033 166.976 L 454.214 168.824 L 456.323 170.701 L 458.358 172.605 L 460.319 174.534 L 462.205 176.486 L 464.016 178.458 L 465.751 180.449 L 467.411 182.458 L 468.995 184.481 L 470.503 186.518 L 471.935 188.567 L 473.292 190.625 L 474.574 192.693 L 475.781 194.767 L 476.913 196.847 L 477.972 198.931 L 478.958 201.019 L 479.871 203.109 L 480.713 205.201 L 481.484 207.294 L 482.184 209.386 L 482.816 211.478 L 483.378 213.570 L 483.872 215.660 L 484.299 217.749 L 484.660 219.837 L 484.954 221.924 L 485.182 224.010 L 485.345 226.095 L 485.442 228.180 L 485.475 230.264 L 485.442 232.348 Z" fill="black" fill-rule="evenodd"/>
</svg>
