<svg xmlns="http://www.w3.org/2000/svg" viewBox="0 0 700.000 1000">
  <path d="M 477.763 526.640 L 477.716 528.745 L 477.652 530.848 L 477.568 532.950 L 477.467 535.051 L 477.347 537.149 L 477.208 539.246 L 477.051 541.341 L 476.876 543.433 L 476.682 545.521 L 476.470 547.607 L 476.240 549.689 L 475.992 551.768 L 475.725 553.842 L 475.441 555.912 L 475.138 557.978 L 474.817 560.038 L 474.478 562.093 L 474.122 564.143 L 473.747 566.187 L 473.355 568.225 L 472.945 570.256 L 472.518 572.281 L 472.073 574.299 L 471.610 576.310 L 471.130 578.313 L 470.633 580.309 L 470.119 582.297 L 469.588 584.276 L 469.039 586.247 L 468.474 588.209 L 467.892 590.162 L 467.293 592.106 L 466.678 594.040 L 466.046 595.964 L 465.398 597.878 L 464.734 599.782 L 464.054 601.675 L 463.357 603.557 L 462.645 605.429 L 461.917 607.289 L 461.174 609.137 L 460.415 610.973 L 459.641 612.798 L 458.851 614.610 L 458.047 616.409 L 457.228 618.196 L 456.394 619.970 L 455.545 621.730 L 454.682 623.477 L 453.805 625.210 L 452.914 626.930 L 452.009 628.635 L 451.090 630.326 L 450.157 632.003 L 449.212 633.665 L 448.252 635.312 L 447.280 636.944 L 446.295 638.560 L 445.297 640.161 L 444.287 641.746 L 443.264 643.316 L 442.229 644.869 L 441.183 646.407 L 440.124 647.927 L 439.054 649.432 L 437.972 650.919 L 436.879 652.390 L 435.775 653.844 L 434.661 655.280 L 433.535 656.699 L 432.399 658.101 L 431.253 659.485 L 430.097 660.852 L 428.931 662.200 L 427.756 663.531 L 426.571 664.843 L 425.376 666.137 L 424.173 667.413 L 422.961 668.671 L 421.740 669.909 L 420.511 671.130 L 419.273 672.331 L 418.028 673.514 L 416.774 674.677 L 415.513 675.822 L 414.245 676.948 L 412.969 678.054 L 411.687 679.141 L 410.397 680.209 L 409.101 681.258 L 407.798 682.287 L 406.489 683.296 L 405.174 684.287 L 403.853 685.257 L 402.526 686.208 L 401.194 687.140 L 399.857 688.052 L 398.514 688.944 L 397.166 689.816 L 395.814 690.669 L 394.457 691.502 L 393.095 692.315 L 391.730 693.108 L 390.360 693.882 L 388.986 694.636 L 387.608 695.370 L 386.227 696.085 L 384.842 696.779 L 383.454 697.454 L 382.063 698.109 L 380.668 698.745 L 379.271 699.360 L 377.871 699.956 L 376.468 700.533 L 375.063 701.089 L 373.656 701.626 L 372.246 702.144 L 370.834 702.642 L 369.420 703.120 L 368.004 703.579 L 366.586 704.018 L 365.167 704.438 L 363.746 704.838 L 362.324 705.219 L 360.900 705.580 L 359.475 705.922 L 358.048 706.245 L 356.621 706.548 L 355.192 706.833 L 353.763 707.097 L 352.332 707.343 L 350.901 707.569 L 349.469 707.777 L 348.037 707.965 L 346.604 708.134 L 345.170 708.283 L 343.736 708.414 L 342.301 708.525 L 340.866 708.618 L 339.431 708.691 L 337.996 708.745 L 336.561 708.780 L 335.125 708.796 L 333.689 708.793 L 332.254 708.771 L 330.818 708.729 L 329.383 708.669 L 327.948 708.590 L 326.513 708.491 L 325.079 708.374 L 323.645 708.237 L 322.211 708.081 L 320.778 707.906 L 319.346 707.712 L 317.914 707.498 L 316.484 707.266 L 315.053 707.014 L 313.624 706.743 L 312.196 706.452 L 310.769 706.143 L 309.343 705.813 L 307.918 705.465 L 306.495 705.097 L 305.073 704.710 L 303.652 704.304 L 302.234 703.878 L 300.817 703.432 L 299.401 702.967 L 297.988 702.482 L 296.577 701.978 L 295.168 701.454 L 293.761 700.911 L 292.356 700.348 L 290.955 699.765 L 289.555 699.163 L 288.159 698.541 L 286.766 697.899 L 285.375 697.237 L 283.988 696.556 L 282.605 695.855 L 281.225 695.134 L 279.848 694.394 L 278.476 693.633 L 277.107 692.853 L 275.743 692.053 L 274.382 691.234 L 273.027 690.394 L 271.676 689.535 L 270.330 688.656 L 268.989 687.758 L 267.653 686.840 L 266.323 685.902 L 264.998 684.945 L 263.679 683.968 L 262.366 682.971 L 261.059 681.955 L 259.758 680.920 L 258.464 679.865 L 257.177 678.791 L 255.896 677.697 L 254.623 676.585 L 253.357 675.453 L 252.098 674.302 L 250.847 673.132 L 249.604 671.943 L 248.370 670.736 L 247.143 669.510 L 245.925 668.265 L 244.716 667.001 L 243.515 665.720 L 242.324 664.420 L 241.142 663.101 L 239.969 661.765 L 238.807 660.411 L 237.654 659.038 L 236.511 657.649 L 235.379 656.241 L 234.257 654.816 L 233.145 653.374 L 232.045 651.915 L 230.956 650.439 L 229.878 648.946 L 228.811 647.436 L 227.757 645.910 L 226.714 644.367 L 225.683 642.809 L 224.664 641.234 L 223.658 639.644 L 222.664 638.037 L 221.683 636.416 L 220.715 634.779 L 219.760 633.127 L 218.819 631.461 L 217.891 629.779 L 216.976 628.084 L 216.075 626.374 L 215.089 624.455 L 214.572 623.480 L 214.031 622.517 L 213.466 621.567 L 212.879 620.632 L 212.269 619.712 L 211.636 618.806 L 210.981 617.917 L 210.305 617.044 L 209.607 616.188 L 208.889 615.349 L 208.150 614.528 L 207.391 613.725 L 206.613 612.941 L 205.816 612.177 L 205.000 611.432 L 204.167 610.708 L 203.315 610.004 L 202.447 609.322 L 201.562 608.661 L 200.662 608.021 L 199.746 607.405 L 198.815 606.810 L 197.869 606.239 L 196.910 605.691 L 195.938 605.167 L 194.953 604.667 L 193.957 604.191 L 192.949 603.740 L 191.930 603.314 L 190.901 602.913 L 189.862 602.537 L 188.815 602.187 L 187.759 601.862 L 186.696 601.564 L 185.625 601.292 L 184.549 601.046 L 183.466 600.827 L 182.379 600.634 L 181.287 600.468 L 180.191 600.329 L 179.092 600.217 L 177.991 600.132 L 176.888 600.073 L 175.784 600.042 L 174.680 600.038 L 173.576 600.062 L 172.472 600.112 L 171.371 600.189 L 170.271 600.293 L 169.175 600.425 L 168.081 600.583 L 166.993 600.768 L 165.909 600.979 L 164.830 601.218 L 163.758 601.482 L 162.692 601.773 L 161.634 602.090 L 160.584 602.432 L 159.543 602.801 L 158.511 603.195 L 157.490 603.614 L 156.478 604.057 L 155.478 604.526 L 154.490 605.019 L 153.514 605.536 L 152.551 606.077 L 151.602 606.642 L 150.667 607.229 L 149.746 607.839 L 148.841 608.472 L 147.951 609.127 L 147.078 609.803 L 146.222 610.501 L 145.383 611.219 L 144.562 611.958 L 143.760 612.717 L 142.976 613.495 L 142.211 614.292 L 141.467 615.108 L 140.743 615.941 L 140.039 616.793 L 139.356 617.661 L 138.695 618.546 L 138.056 619.446 L 137.439 620.362 L 136.845 621.293 L 136.274 622.239 L 135.726 623.198 L 135.202 624.170 L 134.702 625.155 L 134.226 626.151 L 133.775 627.159 L 133.348 628.178 L 132.947 629.207 L 132.572 630.246 L 132.221 631.293 L 131.897 632.349 L 131.599 633.412 L 131.326 634.483 L 131.081 635.559 L 130.861 636.642 L 130.669 637.729 L 130.503 638.821 L 130.363 639.917 L 130.251 641.016 L 130.166 642.117 L 130.108 643.220 L 130.077 644.324 L 130.073 645.428 L 130.096 646.532 L 130.146 647.636 L 130.224 648.737 L 130.328 649.837 L 130.459 650.933 L 130.617 652.027 L 130.802 653.115 L 131.014 654.199 L 131.252 655.278 L 131.517 656.350 L 131.807 657.416 L 132.124 658.474 L 132.467 659.524 L 132.835 660.565 L 133.229 661.597 L 133.648 662.618 L 134.092 663.630 L 134.561 664.630 L 135.054 665.618 L 136.141 667.732 L 136.343 668.121 L 137.449 670.220 L 137.656 670.608 L 138.780 672.692 L 138.991 673.080 L 140.133 675.149 L 140.350 675.536 L 141.510 677.590 L 141.731 677.977 L 142.909 680.015 L 143.135 680.401 L 144.331 682.423 L 144.561 682.809 L 145.775 684.815 L 146.010 685.199 L 147.242 687.190 L 147.482 687.573 L 148.730 689.547 L 148.975 689.929 L 150.241 691.886 L 150.491 692.268 L 151.774 694.208 L 152.029 694.589 L 153.329 696.512 L 153.588 696.892 L 154.905 698.797 L 155.170 699.176 L 156.504 701.063 L 156.773 701.441 L 158.123 703.311 L 158.398 703.687 L 159.764 705.539 L 160.044 705.914 L 161.427 707.748 L 161.712 708.122 L 163.111 709.937 L 163.401 710.309 L 164.815 712.106 L 165.110 712.477 L 166.541 714.254 L 166.841 714.624 L 168.287 716.382 L 168.593 716.750 L 170.054 718.489 L 170.365 718.855 L 171.841 720.575 L 172.158 720.939 L 173.649 722.639 L 173.971 723.002 L 175.477 724.682 L 175.804 725.042 L 177.325 726.702 L 177.657 727.061 L 179.193 728.701 L 179.530 729.057 L 181.080 730.676 L 181.423 731.031 L 182.987 732.629 L 183.336 732.982 L 184.914 734.559 L 185.268 734.909 L 186.859 736.466 L 187.219 736.814 L 188.824 738.349 L 189.189 738.694 L 190.808 740.208 L 191.178 740.550 L 192.810 742.043 L 193.186 742.383 L 194.831 743.853 L 195.213 744.190 L 196.870 745.639 L 197.258 745.973 L 198.928 747.399 L 199.321 747.731 L 201.003 749.135 L 201.401 749.463 L 203.096 750.845 L 203.500 751.170 L 205.207 752.529 L 205.616 752.851 L 207.335 754.187 L 207.750 754.506 L 209.480 755.819 L 209.901 756.134 L 211.643 757.424 L 212.068 757.736 L 213.822 759.003 L 214.253 759.310 L 216.017 760.554 L 216.453 760.858 L 218.229 762.078 L 218.671 762.378 L 220.456 763.574 L 220.904 763.870 L 222.700 765.043 L 223.153 765.335 L 224.959 766.483 L 225.417 766.771 L 227.233 767.896 L 227.697 768.179 L 229.523 769.279 L 229.991 769.558 L 231.827 770.634 L 232.301 770.908 L 234.146 771.959 L 234.625 772.228 L 236.479 773.256 L 236.963 773.520 L 238.826 774.522 L 239.315 774.782 L 241.187 775.759 L 241.681 776.013 L 243.561 776.966 L 244.060 777.215 L 245.949 778.142 L 246.453 778.386 L 248.349 779.288 L 248.858 779.527 L 250.762 780.404 L 251.276 780.636 L 253.188 781.488 L 253.706 781.715 L 255.625 782.541 L 256.147 782.762 L 258.074 783.563 L 258.601 783.778 L 260.534 784.553 L 261.065 784.763 L 263.006 785.512 L 263.541 785.715 L 265.488 786.438 L 266.027 786.635 L 267.980 787.333 L 268.524 787.523 L 270.482 788.195 L 271.030 788.379 L 272.995 789.024 L 273.546 789.201 L 275.516 789.821 L 276.071 789.991 L 278.047 790.585 L 278.605 790.748 L 280.586 791.315 L 281.148 791.472 L 283.133 792.013 L 283.698 792.163 L 285.688 792.677 L 286.257 792.820 L 288.251 793.308 L 288.823 793.443 L 290.821 793.905 L 291.395 794.033 L 293.398 794.468 L 293.975 794.589 L 295.981 794.997 L 296.561 795.111 L 298.571 795.492 L 299.152 795.598 L 301.165 795.953 L 301.750 796.052 L 303.766 796.380 L 304.352 796.471 L 306.371 796.772 L 306.959 796.856 L 308.980 797.130 L 309.570 797.206 L 311.593 797.453 L 312.185 797.521 L 314.211 797.741 L 314.803 797.802 L 316.831 797.995 L 317.425 798.048 L 319.454 798.214 L 320.049 798.259 L 322.080 798.399 L 322.676 798.436 L 324.708 798.548 L 325.304 798.577 L 327.337 798.663 L 327.934 798.684 L 329.967 798.742 L 330.565 798.755 L 332.598 798.787 L 333.196 798.792 L 335.230 798.796 L 335.828 798.794 L 337.862 798.771 L 338.459 798.760 L 340.493 798.711 L 341.090 798.692 L 343.123 798.616 L 343.720 798.589 L 345.752 798.485 L 346.348 798.451 L 348.379 798.320 L 348.974 798.278 L 351.004 798.120 L 351.599 798.070 L 353.627 797.886 L 354.220 797.828 L 356.246 797.616 L 356.838 797.550 L 358.862 797.312 L 359.453 797.238 L 361.475 796.973 L 362.064 796.892 L 364.083 796.599 L 364.670 796.511 L 366.687 796.191 L 367.272 796.095 L 369.286 795.749 L 369.868 795.645 L 371.879 795.273 L 372.460 795.161 L 374.467 794.762 L 375.045 794.643 L 377.049 794.217 L 377.624 794.091 L 379.624 793.638 L 380.196 793.505 L 382.192 793.026 L 382.761 792.885 L 384.753 792.380 L 385.319 792.232 L 387.306 791.700 L 387.869 791.545 L 389.851 790.987 L 390.411 790.825 L 392.388 790.241 L 392.944 790.072 L 394.916 789.461 L 395.469 789.286 L 397.435 788.649 L 397.984 788.467 L 399.945 787.804 L 400.489 787.616 L 402.444 786.927 L 402.985 786.732 L 404.934 786.017 L 405.471 785.816 L 407.413 785.075 L 407.945 784.868 L 409.881 784.101 L 410.409 783.888 L 412.338 783.095 L 412.862 782.876 L 414.784 782.058 L 415.303 781.833 L 417.218 780.990 L 417.732 780.759 L 419.639 779.890 L 420.149 779.654 L 422.048 778.759 L 422.554 778.517 L 424.445 777.598 L 424.946 777.351 L 426.829 776.406 L 427.324 776.154 L 429.199 775.184 L 429.690 774.927 L 431.556 773.932 L 432.041 773.670 L 433.898 772.651 L 434.379 772.383 L 436.227 771.339 L 436.702 771.067 L 438.541 769.999 L 439.012 769.722 L 440.841 768.629 L 441.306 768.347 L 443.125 767.231 L 443.585 766.945 L 445.395 765.804 L 445.849 765.513 L 447.649 764.348 L 448.098 764.054 L 449.887 762.865 L 450.331 762.566 L 452.109 761.354 L 452.548 761.051 L 454.315 759.815 L 454.748 759.509 L 456.505 758.249 L 456.933 757.939 L 458.678 756.656 L 459.100 756.342 L 460.834 755.037 L 461.251 754.719 L 462.974 753.390 L 463.385 753.070 L 465.095 751.718 L 465.501 751.394 L 467.200 750.019 L 467.600 749.692 L 469.287 748.295 L 469.681 747.965 L 471.355 746.546 L 471.744 746.212 L 473.406 744.771 L 473.789 744.435 L 475.438 742.971 L 475.816 742.632 L 477.452 741.147 L 477.825 740.805 L 479.448 739.299 L 479.814 738.954 L 481.424 737.426 L 481.785 737.079 L 483.381 735.530 L 483.737 735.180 L 485.320 733.610 L 485.670 733.258 L 487.239 731.666 L 487.583 731.312 L 489.138 729.700 L 489.477 729.344 L 491.017 727.711 L 491.352 727.353 L 492.877 725.700 L 493.206 725.339 L 494.717 723.666 L 495.040 723.304 L 496.537 721.611 L 496.855 721.247 L 498.336 719.533 L 498.649 719.168 L 500.115 717.435 L 500.422 717.068 L 501.873 715.315 L 502.175 714.947 L 503.611 713.175 L 503.907 712.805 L 505.327 711.014 L 505.619 710.642 L 507.023 708.833 L 507.309 708.460 L 508.697 706.632 L 508.979 706.258 L 510.350 704.412 L 510.627 704.036 L 511.982 702.172 L 512.253 701.794 L 513.592 699.912 L 513.859 699.534 L 515.181 697.634 L 515.442 697.255 L 516.748 695.338 L 517.004 694.957 L 518.293 693.023 L 518.544 692.641 L 519.816 690.690 L 520.062 690.307 L 521.316 688.339 L 521.558 687.956 L 522.795 685.971 L 523.032 685.587 L 524.251 683.586 L 524.483 683.201 L 525.685 681.184 L 525.912 680.798 L 527.096 678.765 L 527.319 678.378 L 528.485 676.330 L 528.703 675.943 L 529.851 673.879 L 530.064 673.491 L 531.194 671.412 L 531.402 671.023 L 532.514 668.929 L 532.718 668.540 L 533.811 666.431 L 534.010 666.042 L 535.084 663.919 L 535.279 663.529 L 536.335 661.391 L 536.526 661.001 L 537.562 658.850 L 537.749 658.459 L 538.766 656.294 L 538.948 655.903 L 539.947 653.725 L 540.124 653.333 L 541.104 651.141 L 541.277 650.749 L 542.237 648.545 L 542.406 648.153 L 543.346 645.936 L 543.511 645.543 L 544.432 643.314 L 544.592 642.921 L 545.494 640.679 L 545.650 640.286 L 546.532 638.033 L 546.684 637.640 L 547.546 635.375 L 547.694 634.981 L 548.536 632.705 L 548.679 632.311 L 549.501 630.024 L 549.641 629.630 L 550.443 627.332 L 550.578 626.937 L 551.360 624.629 L 551.491 624.234 L 552.252 621.916 L 552.380 621.521 L 553.121 619.192 L 553.244 618.797 L 553.965 616.459 L 554.084 616.064 L 554.784 613.716 L 554.900 613.321 L 555.579 610.964 L 555.691 610.569 L 556.349 608.203 L 556.457 607.808 L 557.094 605.434 L 557.199 605.038 L 557.815 602.656 L 557.915 602.260 L 558.511 599.869 L 558.608 599.474 L 559.182 597.075 L 559.275 596.680 L 559.828 594.274 L 559.917 593.878 L 560.450 591.465 L 560.535 591.070 L 561.046 588.649 L 561.128 588.254 L 561.617 585.827 L 561.695 585.431 L 562.163 582.998 L 562.238 582.602 L 562.685 580.163 L 562.755 579.767 L 563.181 577.322 L 563.248 576.927 L 563.652 574.476 L 563.715 574.080 L 564.097 571.624 L 564.157 571.229 L 564.518 568.768 L 564.574 568.372 L 564.913 565.907 L 564.966 565.511 L 565.283 563.041 L 565.332 562.646 L 565.628 560.171 L 565.673 559.776 L 565.947 557.298 L 565.989 556.903 L 566.241 554.421 L 566.280 554.026 L 566.510 551.541 L 566.545 551.146 L 566.753 548.658 L 566.785 548.263 L 566.971 545.773 L 566.999 545.377 L 567.164 542.885 L 567.188 542.489 L 567.331 539.995 L 567.352 539.599 L 567.473 537.103 L 567.490 536.708 L 567.589 534.210 L 567.603 533.814 L 567.680 531.316 L 567.690 530.920 L 567.745 528.420 L 567.752 528.025 L 567.785 525.525 L 567.789 525.129 L 567.800 522.629 L 567.799 522.530 L 567.800 522.431 L 567.800 304.673 L 567.798 304.491 L 567.798 304.224 L 567.741 298.546 L 567.723 297.648 L 567.553 291.973 L 567.517 291.075 L 567.234 285.407 L 567.180 284.509 L 566.784 278.852 L 566.712 277.953 L 566.203 272.309 L 566.113 271.411 L 565.491 265.784 L 565.383 264.886 L 564.649 259.280 L 564.523 258.381 L 563.677 252.799 L 563.532 251.901 L 562.576 246.345 L 562.412 245.447 L 561.345 239.922 L 561.162 239.024 L 559.985 233.533 L 559.783 232.635 L 558.496 227.181 L 558.275 226.284 L 556.880 220.870 L 556.639 219.973 L 555.137 214.604 L 554.876 213.707 L 553.267 208.384 L 552.986 207.488 L 551.271 202.215 L 550.969 201.320 L 549.150 196.100 L 548.827 195.206 L 546.904 190.043 L 546.560 189.149 L 544.535 184.046 L 544.169 183.154 L 542.043 178.113 L 541.655 177.223 L 539.429 172.248 L 539.019 171.359 L 536.694 166.453 L 536.262 165.566 L 533.839 160.732 L 533.384 159.848 L 530.865 155.088 L 530.386 154.207 L 527.774 149.524 L 527.271 148.646 L 524.566 144.044 L 524.038 143.170 L 521.242 138.651 L 520.690 137.781 L 517.804 133.347 L 517.227 132.483 L 514.254 128.138 L 513.651 127.278 L 510.592 123.024 L 509.963 122.171 L 506.820 118.011 L 506.164 117.164 L 502.939 113.100 L 502.257 112.261 L 498.952 108.295 L 498.242 107.465 L 494.859 103.600 L 494.122 102.779 L 490.663 99.017 L 489.898 98.206 L 486.364 94.550 L 485.572 93.751 L 481.966 90.202 L 481.145 89.415 L 477.470 85.976 L 476.621 85.202 L 472.878 81.876 L 472.001 81.116 L 468.193 77.903 L 467.287 77.159 L 463.416 74.062 L 462.481 73.334 L 458.549 70.355 L 457.587 69.646 L 453.597 66.786 L 452.606 66.096 L 448.560 63.358 L 447.541 62.688 L 443.442 60.073 L 442.395 59.426 L 438.245 56.935 L 437.172 56.311 L 432.973 53.946 L 431.873 53.347 L 427.629 51.109 L 426.503 50.536 L 422.215 48.427 L 421.064 47.882 L 416.736 45.903 L 415.561 45.386 L 411.194 43.539 L 409.996 43.053 L 405.594 41.338 L 404.374 40.883 L 399.939 39.301 L 398.698 38.879 L 394.233 37.432 L 392.973 37.044 L 388.480 35.732 L 387.202 35.379 L 382.685 34.203 L 381.391 33.886 L 376.851 32.847 L 375.542 32.568 L 370.983 31.666 L 369.661 31.425 L 365.085 30.661 L 363.753 30.459 L 359.163 29.833 L 357.821 29.670 L 353.220 29.183 L 351.872 29.061 L 347.262 28.712 L 345.909 28.631 L 341.294 28.422 L 339.937 28.381 L 335.319 28.311 L 333.961 28.311 L 329.343 28.381 L 327.986 28.422 L 323.371 28.631 L 322.018 28.712 L 317.408 29.061 L 316.060 29.183 L 311.459 29.670 L 310.117 29.833 L 305.527 30.459 L 304.195 30.661 L 299.619 31.425 L 298.297 31.666 L 293.738 32.568 L 292.429 32.847 L 287.889 33.886 L 286.595 34.203 L 282.078 35.379 L 280.800 35.732 L 276.307 37.044 L 275.047 37.432 L 270.582 38.879 L 269.341 39.301 L 264.906 40.883 L 263.686 41.338 L 259.284 43.053 L 258.086 43.539 L 253.719 45.386 L 252.544 45.903 L 248.216 47.882 L 247.065 48.427 L 242.777 50.536 L 241.651 51.109 L 237.407 53.347 L 236.307 53.946 L 232.108 56.311 L 231.035 56.935 L 226.885 59.426 L 225.838 60.073 L 221.739 62.688 L 220.720 63.358 L 216.674 66.096 L 215.683 66.786 L 211.693 69.646 L 210.731 70.355 L 206.799 73.334 L 205.864 74.062 L 201.993 77.159 L 201.087 77.903 L 197.279 81.116 L 196.402 81.876 L 192.659 85.202 L 191.810 85.976 L 188.135 89.415 L 187.314 90.202 L 183.708 93.751 L 182.916 94.550 L 179.382 98.206 L 178.617 99.017 L 175.158 102.779 L 174.421 103.600 L 171.038 107.465 L 170.328 108.295 L 167.023 112.261 L 166.341 113.100 L 163.116 117.164 L 162.460 118.011 L 159.317 122.171 L 158.688 123.024 L 155.629 127.278 L 155.026 128.138 L 152.053 132.483 L 151.476 133.347 L 148.590 137.781 L 148.038 138.651 L 145.242 143.170 L 144.714 144.044 L 142.009 148.646 L 141.506 149.524 L 138.894 154.207 L 138.415 155.088 L 135.896 159.848 L 135.441 160.732 L 133.018 165.566 L 132.586 166.453 L 130.261 171.359 L 129.851 172.248 L 127.625 177.223 L 127.237 178.113 L 125.111 183.154 L 124.745 184.046 L 122.720 189.149 L 122.376 190.043 L 120.453 195.206 L 120.130 196.100 L 118.311 201.320 L 118.009 202.215 L 116.294 207.488 L 116.013 208.384 L 114.404 213.707 L 114.143 214.604 L 112.641 219.973 L 112.400 220.870 L 111.005 226.284 L 110.784 227.181 L 109.497 232.635 L 109.295 233.533 L 108.118 239.024 L 107.935 239.922 L 106.868 245.447 L 106.704 246.345 L 105.748 251.901 L 105.603 252.799 L 104.757 258.381 L 104.631 259.280 L 103.897 264.886 L 103.789 265.784 L 103.167 271.411 L 103.077 272.309 L 102.568 277.953 L 102.496 278.852 L 102.100 284.509 L 102.046 285.407 L 101.763 291.075 L 101.727 291.973 L 101.557 297.648 L 101.539 298.546 L 101.482 304.224 L 101.482 305.122 L 101.539 310.800 L 101.557 311.699 L 101.727 317.373 L 101.763 318.271 L 102.046 323.939 L 102.100 324.837 L 102.496 330.495 L 102.568 331.393 L 103.077 337.037 L 103.167 337.935 L 103.789 343.562 L 103.897 344.461 L 104.631 350.067 L 104.757 350.965 L 105.603 356.548 L 105.748 357.446 L 106.704 363.001 L 106.868 363.899 L 107.935 369.424 L 108.118 370.322 L 109.295 375.813 L 109.497 376.711 L 110.784 382.165 L 111.005 383.063 L 112.400 388.476 L 112.641 389.373 L 114.143 394.743 L 114.404 395.640 L 116.013 400.963 L 116.294 401.859 L 118.009 407.131 L 118.311 408.027 L 120.130 413.246 L 120.453 414.141 L 122.376 419.304 L 122.720 420.197 L 124.745 425.300 L 125.111 426.193 L 127.237 431.233 L 127.625 432.124 L 129.851 437.099 L 130.261 437.987 L 132.586 442.893 L 133.018 443.780 L 135.441 448.615 L 135.896 449.499 L 138.415 454.259 L 138.894 455.140 L 141.506 459.822 L 142.009 460.700 L 144.714 465.302 L 145.242 466.177 L 148.038 470.696 L 148.590 471.566 L 151.476 475.999 L 152.053 476.864 L 155.026 481.209 L 155.629 482.068 L 158.688 486.322 L 159.317 487.176 L 162.460 491.336 L 163.116 492.182 L 166.341 496.247 L 167.023 497.086 L 170.328 501.051 L 171.038 501.882 L 174.421 505.746 L 175.158 506.568 L 178.617 510.329 L 179.382 511.140 L 182.916 514.796 L 183.708 515.596 L 187.314 519.144 L 188.135 519.932 L 191.810 523.370 L 192.659 524.145 L 196.402 527.471 L 197.279 528.231 L 201.087 531.443 L 201.993 532.188 L 205.864 535.285 L 206.799 536.012 L 210.731 538.991 L 211.693 539.701 L 215.683 542.560 L 216.674 543.250 L 220.720 545.988 L 221.739 546.658 L 225.838 549.273 L 226.885 549.921 L 231.035 552.412 L 232.108 553.036 L 236.307 555.400 L 237.407 556.000 L 241.651 558.237 L 242.777 558.811 L 247.065 560.919 L 248.216 561.465 L 252.544 563.443 L 253.719 563.960 L 258.086 565.807 L 259.284 566.294 L 263.686 568.009 L 264.906 568.464 L 269.341 570.045 L 270.582 570.467 L 275.047 571.915 L 276.307 572.303 L 280.800 573.615 L 282.078 573.968 L 286.595 575.144 L 287.889 575.460 L 292.429 576.499 L 293.738 576.779 L 298.297 577.681 L 299.619 577.922 L 304.195 578.686 L 305.527 578.888 L 310.117 579.514 L 311.459 579.676 L 316.060 580.164 L 317.408 580.286 L 322.018 580.634 L 323.371 580.716 L 327.986 580.925 L 329.343 580.966 L 333.961 581.035 L 335.319 581.035 L 339.937 580.966 L 341.294 580.925 L 345.909 580.716 L 347.262 580.634 L 351.872 580.286 L 353.220 580.164 L 357.821 579.676 L 359.163 579.514 L 363.753 578.888 L 365.085 578.686 L 369.661 577.922 L 370.983 577.681 L 375.542 576.779 L 376.851 576.499 L 381.391 575.460 L 382.685 575.144 L 387.202 573.968 L 388.480 573.615 L 392.973 572.303 L 394.233 571.915 L 398.698 570.467 L 399.939 570.045 L 404.374 568.464 L 405.594 568.009 L 409.996 566.294 L 411.194 565.807 L 415.561 563.960 L 416.736 563.443 L 421.064 561.465 L 422.215 560.919 L 426.503 558.811 L 427.629 558.237 L 431.873 556.000 L 432.973 555.400 L 437.172 553.036 L 438.245 552.412 L 442.395 549.921 L 443.442 549.273 L 447.541 546.658 L 448.560 545.988 L 452.606 543.250 L 453.597 542.560 L 457.587 539.701 L 458.549 538.991 L 462.481 536.012 L 463.416 535.285 L 467.287 532.188 L 468.193 531.443 L 472.001 528.231 L 472.878 527.471 L 476.621 524.145 L 477.470 523.370 L 477.797 523.065 L 477.790 524.536 L 477.763 526.640 Z M 191.673 295.117 L 191.911 290.348 L 192.245 285.589 L 192.673 280.843 L 193.195 276.115 L 193.811 271.407 L 194.520 266.723 L 195.322 262.065 L 196.216 257.439 L 197.200 252.846 L 198.274 248.290 L 199.438 243.775 L 200.689 239.302 L 202.027 234.876 L 203.450 230.500 L 204.958 226.176 L 206.548 221.908 L 208.219 217.698 L 209.969 213.549 L 211.798 209.464 L 213.702 205.446 L 215.681 201.497 L 217.732 197.620 L 219.854 193.818 L 222.044 190.092 L 224.301 186.445 L 226.621 182.879 L 229.005 179.396 L 231.448 175.999 L 233.948 172.689 L 236.505 169.467 L 239.114 166.337 L 241.774 163.298 L 244.483 160.353 L 247.238 157.502 L 250.037 154.748 L 252.877 152.091 L 255.756 149.532 L 258.672 147.072 L 261.623 144.711 L 264.606 142.452 L 267.618 140.292 L 270.659 138.235 L 273.725 136.278 L 276.815 134.424 L 279.927 132.671 L 283.058 131.021 L 286.208 129.472 L 289.374 128.025 L 292.554 126.680 L 295.747 125.436 L 298.952 124.293 L 302.168 123.251 L 305.392 122.309 L 308.624 121.468 L 311.862 120.727 L 315.106 120.085 L 318.355 119.542 L 321.608 119.099 L 324.863 118.754 L 328.121 118.508 L 331.380 118.360 L 334.640 118.311 L 337.900 118.360 L 341.159 118.508 L 344.417 118.754 L 347.672 119.099 L 350.925 119.542 L 354.174 120.085 L 357.418 120.727 L 360.656 121.468 L 363.888 122.309 L 367.112 123.251 L 370.328 124.293 L 373.533 125.436 L 376.726 126.680 L 379.906 128.025 L 383.072 129.472 L 386.222 131.021 L 389.353 132.671 L 392.465 134.424 L 395.555 136.278 L 398.621 138.235 L 401.662 140.292 L 404.674 142.452 L 407.657 144.711 L 410.608 147.072 L 413.524 149.532 L 416.403 152.091 L 419.243 154.748 L 422.042 157.502 L 424.797 160.353 L 427.506 163.298 L 430.166 166.337 L 432.775 169.467 L 435.332 172.689 L 437.832 175.999 L 440.275 179.396 L 442.659 182.879 L 444.979 186.445 L 447.236 190.092 L 449.426 193.818 L 451.548 197.620 L 453.599 201.497 L 455.578 205.446 L 457.482 209.464 L 459.311 213.549 L 461.061 217.698 L 462.732 221.908 L 464.322 226.176 L 465.830 230.500 L 467.253 234.876 L 468.591 239.302 L 469.842 243.775 L 471.006 248.290 L 472.080 252.846 L 473.064 257.439 L 473.958 262.065 L 474.760 266.723 L 475.469 271.407 L 476.085 276.115 L 476.607 280.843 L 477.035 285.589 L 477.369 290.348 L 477.607 295.117 L 477.750 299.894 L 477.798 304.673 L 477.750 309.453 L 477.607 314.229 L 477.369 318.999 L 477.035 323.758 L 476.607 328.503 L 476.085 333.232 L 475.469 337.940 L 474.760 342.624 L 473.958 347.281 L 473.064 351.908 L 472.080 356.500 L 471.006 361.056 L 469.842 365.572 L 468.591 370.044 L 467.253 374.470 L 465.830 378.847 L 464.322 383.171 L 462.732 387.439 L 461.061 391.649 L 459.311 395.798 L 457.482 399.882 L 455.578 403.900 L 453.599 407.849 L 451.548 411.726 L 449.426 415.529 L 447.236 419.255 L 444.979 422.902 L 442.659 426.467 L 440.275 429.950 L 437.832 433.347 L 435.332 436.658 L 432.775 439.879 L 430.166 443.010 L 427.506 446.049 L 424.797 448.994 L 422.042 451.844 L 419.243 454.599 L 416.403 457.256 L 413.524 459.815 L 410.608 462.275 L 407.657 464.635 L 404.674 466.895 L 401.662 469.054 L 398.621 471.112 L 395.555 473.068 L 392.465 474.923 L 389.353 476.675 L 386.222 478.326 L 383.072 479.875 L 379.906 481.321 L 376.726 482.667 L 373.533 483.911 L 370.328 485.054 L 367.112 486.096 L 363.888 487.037 L 360.656 487.878 L 357.418 488.620 L 354.174 489.262 L 350.925 489.804 L 347.672 490.248 L 344.417 490.593 L 341.159 490.839 L 337.900 490.986 L 334.640 491.035 L 331.380 490.986 L 328.121 490.839 L 324.863 490.593 L 321.608 490.248 L 318.355 489.804 L 315.106 489.262 L 311.862 488.620 L 308.624 487.878 L 305.392 487.037 L 302.168 486.096 L 298.952 485.054 L 295.747 483.911 L 292.554 482.667 L 289.374 481.321 L 286.208 479.875 L 283.058 478.326 L 279.927 476.675 L 276.815 474.923 L 273.725 473.068 L 270.659 471.112 L 267.618 469.054 L 264.606 466.895 L 261.623 464.635 L 258.672 462.275 L 255.756 459.815 L 252.877 457.256 L 250.037 454.599 L 247.238 451.844 L 244.483 448.994 L 241.774 446.049 L 239.114 443.010 L 236.505 439.879 L 233.948 436.658 L 231.448 433.347 L 229.005 429.950 L 226.621 426.467 L 224.301 422.902 L 222.044 419.255 L 219.854 415.529 L 217.732 411.726 L 215.681 407.849 L 213.702 403.900 L 211.798 399.882 L 209.969 395.798 L 208.219 391.649 L 206.548 387.439 L 204.958 383.171 L 203.450 378.847 L 202.027 374.470 L 200.689 370.044 L 199.438 365.572 L 198.274 361.056 L 197.200 356.500 L 196.216 351.908 L 195.322 347.281 L 194.520 342.624 L 193.811 337.940 L 193.195 333.232 L 192.673 328.503 L 192.245 323.758 L 191.911 318.999 L 191.673 314.229 L 191.530 309.453 L 191.482 304.673 L 191.530 299.894 L 191.673 295.117 Z" fill="black" fill-rule="evenodd"/>
</svg>
