<svg xmlns="http://www.w3.org/2000/svg" viewBox="0 0 700.000 1000" width="700.000" height="1000">
  <path d="M 175.110 233.859 L 175.244 230.790 L 175.433 227.725 L 175.675 224.663 L 175.971 221.606 L 176.321 218.555 L 176.724 215.510 L 177.180 212.473 L 177.690 209.444 L 178.253 206.425 L 178.869 203.416 L 179.537 200.418 L 180.258 197.432 L 181.031 194.460 L 181.856 191.502 L 182.733 188.558 L 183.662 185.631 L 184.642 182.720 L 185.672 179.827 L 186.754 176.952 L 187.885 174.097 L 189.067 171.262 L 190.298 168.448 L 191.578 165.656 L 192.908 162.887 L 194.285 160.142 L 195.711 157.422 L 197.184 154.727 L 198.704 152.058 L 200.270 149.416 L 201.883 146.802 L 203.542 144.217 L 205.245 141.662 L 206.993 139.136 L 208.785 136.642 L 210.621 134.180 L 212.500 131.750 L 214.421 129.354 L 216.383 126.991 L 218.387 124.664 L 220.432 122.372 L 222.516 120.116 L 224.639 117.897 L 226.802 115.716 L 229.002 113.573 L 231.239 111.469 L 233.513 109.404 L 235.823 107.380 L 238.168 105.397 L 240.548 103.455 L 242.961 101.555 L 245.407 99.698 L 247.885 97.884 L 250.395 96.114 L 252.936 94.388 L 255.506 92.707 L 258.106 91.071 L 260.734 89.481 L 263.389 87.938 L 266.071 86.441 L 268.779 84.992 L 271.512 83.590 L 274.269 82.237 L 277.049 80.932 L 279.852 79.676 L 282.677 78.470 L 285.522 77.313 L 288.387 76.207 L 291.271 75.151 L 294.173 74.145 L 297.092 73.191 L 300.028 72.288 L 302.979 71.437 L 305.944 70.638 L 308.924 69.891 L 311.915 69.196 L 314.919 68.554 L 317.933 67.965 L 320.957 67.429 L 323.990 66.945 L 327.031 66.516 L 330.079 66.139 L 333.134 65.816 L 336.193 65.547 L 339.257 65.332 L 342.324 65.170 L 345.393 65.062 L 348.464 65.008 L 351.536 65.008 L 354.607 65.062 L 357.676 65.170 L 360.743 65.332 L 363.807 65.547 L 366.866 65.816 L 369.921 66.139 L 372.969 66.516 L 376.010 66.945 L 379.043 67.429 L 382.067 67.965 L 385.081 68.554 L 388.085 69.196 L 391.076 69.891 L 394.056 70.638 L 397.021 71.437 L 399.972 72.288 L 402.908 73.191 L 405.827 74.145 L 408.729 75.151 L 411.613 76.207 L 414.478 77.313 L 417.323 78.470 L 420.148 79.676 L 422.951 80.932 L 425.731 82.237 L 428.488 83.590 L 431.221 84.992 L 433.929 86.441 L 436.611 87.938 L 439.266 89.481 L 441.894 91.071 L 444.494 92.707 L 447.064 94.388 L 449.605 96.114 L 452.115 97.884 L 454.593 99.698 L 457.039 101.555 L 459.452 103.455 L 461.832 105.397 L 464.177 107.380 L 466.487 109.404 L 468.761 111.469 L 470.998 113.573 L 473.198 115.716 L 475.361 117.897 L 477.484 120.116 L 479.568 122.372 L 481.613 124.664 L 483.617 126.991 L 485.579 129.354 L 487.500 131.750 L 489.379 134.180 L 491.215 136.642 L 493.007 139.136 L 494.755 141.662 L 496.458 144.217 L 498.117 146.802 L 499.730 149.416 L 501.296 152.058 L 502.816 154.727 L 504.289 157.422 L 505.715 160.142 L 507.092 162.887 L 508.422 165.656 L 509.702 168.448 L 510.933 171.262 L 512.115 174.097 L 513.246 176.952 L 514.328 179.827 L 515.358 182.720 L 516.338 185.631 L 517.267 188.558 L 518.144 191.502 L 518.969 194.460 L 519.742 197.432 L 520.463 200.418 L 521.131 203.416 L 521.747 206.425 L 522.310 209.444 L 522.820 212.473 L 523.276 215.510 L 523.679 218.555 L 524.029 221.606 L 524.325 224.663 L 524.336 224.803 L 95.114 751.575 L 94.820 751.945 L 94.524 752.315 L 94.477 752.378 L 94.427 752.439 L 94.142 752.817 L 93.856 753.194 L 93.809 753.258 L 93.762 753.321 L 93.486 753.705 L 93.209 754.089 L 93.164 754.154 L 93.118 754.218 L 92.852 754.609 L 92.584 754.999 L 92.541 755.066 L 92.496 755.131 L 92.240 755.528 L 91.982 755.925 L 91.940 755.992 L 91.897 756.059 L 91.650 756.463 L 91.402 756.865 L 91.362 756.934 L 91.321 757.001 L 91.084 757.411 L 90.846 757.820 L 90.808 757.889 L 90.768 757.957 L 90.542 758.373 L 90.314 758.787 L 90.277 758.857 L 90.239 758.927 L 90.023 759.347 L 89.805 759.767 L 89.770 759.839 L 89.734 759.909 L 89.528 760.335 L 89.320 760.760 L 89.288 760.832 L 89.253 760.903 L 89.058 761.334 L 88.861 761.764 L 88.829 761.837 L 88.797 761.909 L 88.612 762.344 L 88.425 762.779 L 88.396 762.853 L 88.365 762.925 L 88.191 763.365 L 88.015 763.805 L 87.988 763.879 L 87.959 763.952 L 87.795 764.396 L 87.631 764.840 L 87.605 764.915 L 87.578 764.989 L 87.425 765.437 L 87.271 765.884 L 87.247 765.960 L 87.222 766.035 L 87.081 766.486 L 86.938 766.937 L 86.916 767.013 L 86.892 767.089 L 86.762 767.543 L 86.630 767.998 L 86.610 768.074 L 86.588 768.150 L 86.469 768.608 L 86.349 769.066 L 86.330 769.143 L 86.310 769.219 L 86.203 769.680 L 86.093 770.140 L 86.077 770.218 L 86.059 770.295 L 85.963 770.758 L 85.865 771.221 L 85.850 771.299 L 85.834 771.376 L 85.749 771.842 L 85.663 772.307 L 85.650 772.385 L 85.636 772.463 L 85.562 772.930 L 85.487 773.397 L 85.476 773.475 L 85.464 773.554 L 85.402 774.023 L 85.338 774.492 L 85.330 774.570 L 85.319 774.648 L 85.269 775.119 L 85.217 775.589 L 85.210 775.668 L 85.201 775.747 L 85.163 776.218 L 85.122 776.690 L 85.117 776.769 L 85.111 776.847 L 85.083 777.320 L 85.054 777.792 L 85.051 777.871 L 85.047 777.950 L 85.031 778.423 L 85.014 778.896 L 85.013 778.975 L 85.010 779.054 L 85.006 779.527 L 85.000 780.000 L 85.001 780.079 L 85.000 780.158 L 85.008 780.631 L 85.014 781.104 L 85.016 781.183 L 85.018 781.262 L 85.037 781.735 L 85.054 782.208 L 85.059 782.287 L 85.062 782.366 L 85.093 782.838 L 85.122 783.310 L 85.129 783.389 L 85.134 783.468 L 85.176 783.939 L 85.217 784.411 L 85.225 784.489 L 85.232 784.568 L 85.286 785.038 L 85.338 785.508 L 85.349 785.587 L 85.358 785.665 L 85.423 786.134 L 85.487 786.603 L 85.500 786.681 L 85.511 786.759 L 85.587 787.226 L 85.663 787.693 L 85.677 787.771 L 85.690 787.849 L 85.778 788.314 L 85.865 788.779 L 85.881 788.856 L 85.896 788.934 L 85.995 789.397 L 86.093 789.860 L 86.112 789.936 L 86.128 790.014 L 86.239 790.474 L 86.349 790.934 L 86.369 791.011 L 86.387 791.087 L 86.509 791.545 L 86.630 792.002 L 86.652 792.078 L 86.673 792.154 L 86.806 792.608 L 86.938 793.063 L 86.962 793.138 L 86.984 793.214 L 87.128 793.665 L 87.271 794.116 L 87.297 794.190 L 87.321 794.266 L 87.477 794.713 L 87.631 795.160 L 87.658 795.234 L 87.684 795.309 L 87.850 795.752 L 88.015 796.195 L 88.045 796.269 L 88.072 796.343 L 88.250 796.781 L 88.425 797.221 L 88.457 797.293 L 88.486 797.367 L 88.674 797.801 L 88.861 798.236 L 88.893 798.308 L 88.925 798.380 L 89.123 798.810 L 89.320 799.240 L 89.355 799.311 L 89.388 799.383 L 89.597 799.807 L 89.805 800.233 L 89.841 800.303 L 89.876 800.374 L 90.096 800.793 L 90.314 801.213 L 90.352 801.282 L 90.388 801.352 L 90.618 801.766 L 90.846 802.180 L 90.886 802.249 L 90.924 802.318 L 91.164 802.726 L 91.402 803.135 L 91.444 803.202 L 91.484 803.270 L 91.733 803.672 L 91.982 804.075 L 92.025 804.141 L 92.066 804.208 L 92.326 804.604 L 92.584 805.001 L 92.629 805.066 L 92.672 805.132 L 92.941 805.521 L 93.209 805.911 L 93.255 805.975 L 93.300 806.040 L 93.578 806.423 L 93.856 806.806 L 93.904 806.869 L 93.950 806.933 L 94.238 807.309 L 94.524 807.685 L 94.574 807.747 L 94.622 807.810 L 94.919 808.178 L 95.215 808.548 L 95.265 808.608 L 95.315 808.670 L 95.621 809.031 L 95.926 809.393 L 95.978 809.452 L 96.029 809.512 L 96.344 809.866 L 96.657 810.220 L 96.711 810.278 L 96.764 810.337 L 97.087 810.683 L 97.409 811.029 L 97.464 811.086 L 97.518 811.144 L 97.850 811.481 L 98.180 811.820 L 98.237 811.875 L 98.292 811.931 L 98.632 812.261 L 98.971 812.591 L 99.029 812.645 L 99.085 812.700 L 99.433 813.021 L 99.780 813.343 L 99.839 813.395 L 99.897 813.449 L 100.253 813.761 L 100.607 814.074 L 100.668 814.125 L 100.727 814.177 L 101.090 814.481 L 101.452 814.785 L 101.514 814.835 L 101.575 814.886 L 101.945 815.180 L 102.315 815.476 L 102.378 815.523 L 102.439 815.573 L 102.817 815.858 L 103.194 816.144 L 103.258 816.191 L 103.321 816.238 L 103.705 816.514 L 104.089 816.791 L 104.154 816.836 L 104.218 816.882 L 104.609 817.148 L 104.999 817.416 L 105.066 817.459 L 105.131 817.504 L 105.528 817.760 L 105.925 818.018 L 105.992 818.060 L 106.059 818.103 L 106.463 818.350 L 106.865 818.598 L 106.934 818.638 L 107.001 818.679 L 107.411 818.916 L 107.820 819.154 L 107.889 819.192 L 107.957 819.232 L 108.373 819.458 L 108.787 819.686 L 108.857 819.723 L 108.927 819.761 L 109.347 819.977 L 109.767 820.195 L 109.839 820.230 L 109.909 820.266 L 110.335 820.472 L 110.760 820.680 L 110.832 820.712 L 110.903 820.747 L 111.334 820.942 L 111.764 821.139 L 111.837 821.171 L 111.909 821.203 L 112.344 821.388 L 112.779 821.575 L 112.853 821.604 L 112.925 821.635 L 113.365 821.809 L 113.805 821.985 L 113.879 822.012 L 113.952 822.041 L 114.396 822.205 L 114.840 822.369 L 114.915 822.395 L 114.989 822.422 L 115.437 822.575 L 115.884 822.729 L 115.960 822.753 L 116.035 822.778 L 116.486 822.919 L 116.937 823.062 L 117.013 823.084 L 117.089 823.108 L 117.543 823.238 L 117.998 823.370 L 118.074 823.390 L 118.150 823.412 L 118.608 823.531 L 119.066 823.651 L 119.143 823.670 L 119.219 823.690 L 119.680 823.797 L 120.140 823.907 L 120.218 823.923 L 120.295 823.941 L 120.758 824.037 L 121.221 824.135 L 121.299 824.150 L 121.376 824.166 L 121.842 824.251 L 122.307 824.337 L 122.385 824.350 L 122.463 824.364 L 122.930 824.438 L 123.397 824.513 L 123.475 824.524 L 123.554 824.536 L 124.023 824.598 L 124.492 824.662 L 124.570 824.670 L 124.648 824.681 L 125.119 824.731 L 125.589 824.783 L 125.668 824.790 L 125.747 824.799 L 126.218 824.837 L 126.690 824.878 L 126.769 824.883 L 126.847 824.889 L 127.320 824.917 L 127.792 824.946 L 127.871 824.949 L 127.950 824.953 L 128.423 824.969 L 128.896 824.986 L 128.975 824.987 L 129.054 824.990 L 129.527 824.994 L 130.000 825.000 L 570.000 825.000 L 571.104 824.986 L 572.208 824.946 L 573.310 824.878 L 574.411 824.783 L 575.508 824.662 L 576.603 824.513 L 577.693 824.337 L 578.779 824.135 L 579.860 823.907 L 580.934 823.651 L 582.002 823.370 L 583.063 823.062 L 584.116 822.729 L 585.160 822.369 L 586.195 821.985 L 587.221 821.575 L 588.236 821.139 L 589.240 820.680 L 590.233 820.195 L 591.213 819.686 L 592.180 819.154 L 593.135 818.598 L 594.075 818.018 L 595.001 817.416 L 595.911 816.791 L 596.806 816.144 L 597.685 815.476 L 598.548 814.785 L 599.393 814.074 L 600.220 813.343 L 601.029 812.591 L 601.820 811.820 L 602.591 811.029 L 603.343 810.220 L 604.074 809.393 L 604.785 808.548 L 605.476 807.685 L 606.144 806.806 L 606.791 805.911 L 607.416 805.001 L 608.018 804.075 L 608.598 803.135 L 609.154 802.180 L 609.686 801.213 L 610.195 800.233 L 610.680 799.240 L 611.139 798.236 L 611.575 797.221 L 611.985 796.195 L 612.369 795.160 L 612.729 794.116 L 613.062 793.063 L 613.370 792.002 L 613.651 790.934 L 613.907 789.860 L 614.135 788.779 L 614.337 787.693 L 614.513 786.603 L 614.662 785.508 L 614.783 784.411 L 614.878 783.310 L 614.946 782.208 L 614.986 781.104 L 615.000 780.000 L 614.986 778.896 L 614.946 777.792 L 614.878 776.690 L 614.783 775.589 L 614.662 774.492 L 614.513 773.397 L 614.337 772.307 L 614.135 771.221 L 613.907 770.140 L 613.651 769.066 L 613.370 767.998 L 613.062 766.937 L 612.729 765.884 L 612.369 764.840 L 611.985 763.805 L 611.575 762.779 L 611.139 761.764 L 610.680 760.760 L 610.195 759.767 L 609.686 758.787 L 609.154 757.820 L 608.598 756.865 L 608.018 755.925 L 607.416 754.999 L 606.791 754.089 L 606.144 753.194 L 605.476 752.315 L 604.785 751.452 L 604.074 750.607 L 603.343 749.780 L 602.591 748.971 L 601.820 748.180 L 601.029 747.409 L 600.220 746.657 L 599.393 745.926 L 598.548 745.215 L 597.685 744.524 L 596.806 743.856 L 595.911 743.209 L 595.001 742.584 L 594.075 741.982 L 593.135 741.402 L 592.180 740.846 L 591.213 740.314 L 590.233 739.805 L 589.240 739.320 L 588.236 738.861 L 587.221 738.425 L 586.195 738.015 L 585.160 737.631 L 584.116 737.271 L 583.063 736.938 L 582.002 736.630 L 580.934 736.349 L 579.860 736.093 L 578.779 735.865 L 577.693 735.663 L 576.603 735.487 L 575.508 735.338 L 574.411 735.217 L 573.310 735.122 L 572.208 735.054 L 571.104 735.014 L 570.000 735.000 L 224.714 735.000 L 604.886 268.425 L 604.959 268.333 L 605.035 268.241 L 605.303 267.900 L 605.573 267.561 L 605.644 267.466 L 605.717 267.373 L 605.977 267.025 L 606.238 266.679 L 606.307 266.583 L 606.378 266.488 L 606.629 266.134 L 606.882 265.782 L 606.949 265.684 L 607.017 265.588 L 607.260 265.228 L 607.504 264.869 L 607.568 264.770 L 607.634 264.671 L 607.867 264.306 L 608.103 263.941 L 608.165 263.840 L 608.228 263.740 L 608.453 263.369 L 608.679 262.999 L 608.738 262.896 L 608.799 262.795 L 609.014 262.418 L 609.232 262.043 L 609.288 261.939 L 609.347 261.836 L 609.553 261.454 L 609.761 261.073 L 609.815 260.968 L 609.871 260.864 L 610.067 260.477 L 610.266 260.091 L 610.317 259.985 L 610.371 259.879 L 610.558 259.487 L 610.747 259.097 L 610.796 258.989 L 610.847 258.882 L 611.024 258.486 L 611.203 258.091 L 611.250 257.982 L 611.298 257.874 L 611.465 257.474 L 611.635 257.075 L 611.678 256.964 L 611.724 256.855 L 611.882 256.451 L 612.041 256.048 L 612.082 255.937 L 612.125 255.826 L 612.273 255.418 L 612.422 255.011 L 612.461 254.899 L 612.501 254.788 L 612.638 254.376 L 612.778 253.965 L 612.813 253.852 L 612.851 253.740 L 612.978 253.325 L 613.108 252.911 L 613.141 252.798 L 613.175 252.684 L 613.292 252.267 L 613.412 251.850 L 613.442 251.735 L 613.474 251.621 L 613.580 251.201 L 613.690 250.781 L 613.717 250.665 L 613.746 250.551 L 613.842 250.128 L 613.941 249.705 L 613.965 249.589 L 613.991 249.474 L 614.078 249.049 L 614.166 248.624 L 614.187 248.507 L 614.211 248.391 L 614.286 247.964 L 614.364 247.537 L 614.383 247.420 L 614.403 247.304 L 614.468 246.875 L 614.536 246.446 L 614.551 246.329 L 614.569 246.212 L 614.624 245.782 L 614.681 245.352 L 614.693 245.234 L 614.708 245.116 L 614.752 244.685 L 614.799 244.253 L 614.808 244.135 L 614.820 244.018 L 614.854 243.585 L 614.889 243.153 L 614.896 243.034 L 614.905 242.916 L 614.928 242.483 L 614.953 242.050 L 614.957 241.932 L 614.963 241.814 L 614.976 241.380 L 614.990 240.946 L 614.991 240.828 L 614.994 240.710 L 614.996 240.276 L 615.000 239.842 L 614.998 239.723 L 614.998 239.605 L 614.964 235.744 L 614.951 234.954 L 614.849 231.095 L 614.821 230.305 L 614.652 226.448 L 614.610 225.659 L 614.373 221.805 L 614.318 221.018 L 614.013 217.169 L 613.944 216.382 L 613.572 212.539 L 613.489 211.753 L 613.049 207.917 L 612.953 207.133 L 612.446 203.306 L 612.335 202.524 L 611.761 198.705 L 611.637 197.925 L 610.996 194.118 L 610.858 193.340 L 610.151 189.545 L 609.999 188.769 L 609.225 184.987 L 609.060 184.214 L 608.220 180.446 L 608.041 179.676 L 607.135 175.923 L 606.943 175.157 L 605.971 171.420 L 605.765 170.658 L 604.728 166.939 L 604.509 166.180 L 603.406 162.479 L 603.174 161.725 L 602.007 158.044 L 601.762 157.293 L 600.530 153.634 L 600.271 152.888 L 598.975 149.251 L 598.704 148.509 L 597.344 144.895 L 597.060 144.158 L 595.637 140.569 L 595.340 139.837 L 593.854 136.273 L 593.544 135.547 L 591.997 132.010 L 591.674 131.289 L 590.064 127.779 L 589.729 127.064 L 588.058 123.583 L 587.710 122.874 L 585.978 119.423 L 585.617 118.721 L 583.825 115.301 L 583.453 114.604 L 581.601 111.216 L 581.216 110.527 L 579.305 107.172 L 578.908 106.489 L 576.939 103.168 L 576.530 102.492 L 574.502 99.206 L 574.082 98.538 L 571.997 95.288 L 571.565 94.627 L 569.423 91.414 L 568.979 90.761 L 566.781 87.586 L 566.326 86.941 L 564.073 83.805 L 563.607 83.168 L 561.299 80.072 L 560.822 79.443 L 558.460 76.388 L 557.971 75.768 L 555.556 72.755 L 555.057 72.143 L 552.590 69.173 L 552.080 68.570 L 549.560 65.644 L 549.040 65.050 L 546.470 62.169 L 545.939 61.584 L 543.319 58.748 L 542.778 58.173 L 540.108 55.383 L 539.557 54.818 L 536.839 52.076 L 536.278 51.520 L 533.512 48.826 L 532.941 48.279 L 530.128 45.634 L 529.548 45.098 L 526.690 42.503 L 526.100 41.977 L 523.196 39.433 L 522.598 38.917 L 519.650 36.424 L 519.042 35.919 L 516.051 33.478 L 515.435 32.984 L 512.401 30.596 L 511.776 30.112 L 508.701 27.778 L 508.068 27.306 L 504.952 25.025 L 504.310 24.564 L 501.155 22.339 L 500.506 21.889 L 497.312 19.720 L 496.655 19.282 L 493.423 17.168 L 492.759 16.742 L 489.491 14.686 L 488.818 14.271 L 485.515 12.272 L 484.836 11.869 L 481.497 9.929 L 480.811 9.538 L 477.439 7.657 L 476.746 7.278 L 473.342 5.456 L 472.643 5.089 L 469.207 3.327 L 468.501 2.973 L 465.035 1.272 L 464.323 0.930 L 460.828 -0.710 L 460.110 -1.040 L 456.586 -2.618 L 455.863 -2.935 L 452.312 -4.451 L 451.583 -4.755 L 448.006 -6.209 L 447.272 -6.500 L 443.670 -7.891 L 442.931 -8.170 L 439.305 -9.497 L 438.561 -9.762 L 434.913 -11.026 L 434.164 -11.278 L 430.494 -12.478 L 429.741 -12.716 L 426.051 -13.851 L 425.294 -14.077 L 421.584 -15.147 L 420.823 -15.359 L 417.095 -16.364 L 416.331 -16.563 L 412.586 -17.502 L 411.818 -17.687 L 408.057 -18.561 L 407.286 -18.733 L 403.510 -19.540 L 402.736 -19.698 L 398.947 -20.439 L 398.171 -20.584 L 394.369 -21.258 L 393.590 -21.389 L 389.777 -21.996 L 388.996 -22.114 L 385.173 -22.654 L 384.390 -22.758 L 380.558 -23.231 L 379.773 -23.321 L 375.933 -23.727 L 375.147 -23.803 L 371.301 -24.141 L 370.514 -24.203 L 366.662 -24.474 L 365.874 -24.523 L 362.018 -24.726 L 361.229 -24.761 L 357.370 -24.896 L 356.581 -24.917 L 352.720 -24.985 L 351.931 -24.992 L 348.069 -24.992 L 347.280 -24.985 L 343.419 -24.917 L 342.630 -24.896 L 338.771 -24.761 L 337.982 -24.726 L 334.126 -24.523 L 333.338 -24.474 L 329.486 -24.203 L 328.699 -24.141 L 324.853 -23.803 L 324.067 -23.727 L 320.227 -23.321 L 319.442 -23.231 L 315.610 -22.758 L 314.827 -22.654 L 311.004 -22.114 L 310.223 -21.996 L 306.410 -21.389 L 305.631 -21.258 L 301.829 -20.584 L 301.053 -20.439 L 297.264 -19.698 L 296.490 -19.540 L 292.714 -18.733 L 291.943 -18.561 L 288.182 -17.687 L 287.414 -17.502 L 283.669 -16.563 L 282.905 -16.364 L 279.177 -15.359 L 278.416 -15.147 L 274.706 -14.077 L 273.949 -13.851 L 270.259 -12.716 L 269.506 -12.478 L 265.836 -11.278 L 265.087 -11.026 L 261.439 -9.762 L 260.695 -9.497 L 257.069 -8.170 L 256.330 -7.891 L 252.728 -6.500 L 251.994 -6.209 L 248.417 -4.755 L 247.688 -4.451 L 244.137 -2.935 L 243.414 -2.618 L 239.890 -1.040 L 239.172 -0.710 L 235.677 0.930 L 234.965 1.272 L 231.499 2.973 L 230.793 3.327 L 227.357 5.089 L 226.658 5.456 L 223.254 7.278 L 222.561 7.657 L 219.189 9.538 L 218.503 9.929 L 215.164 11.869 L 214.485 12.272 L 211.182 14.271 L 210.509 14.686 L 207.241 16.742 L 206.577 17.168 L 203.345 19.282 L 202.688 19.720 L 199.494 21.889 L 198.845 22.339 L 195.690 24.564 L 195.048 25.025 L 191.932 27.306 L 191.299 27.778 L 188.224 30.112 L 187.599 30.596 L 184.565 32.984 L 183.949 33.478 L 180.958 35.919 L 180.350 36.424 L 177.402 38.917 L 176.804 39.433 L 173.900 41.977 L 173.310 42.503 L 170.452 45.098 L 169.872 45.634 L 167.059 48.279 L 166.488 48.826 L 163.722 51.520 L 163.161 52.076 L 160.443 54.818 L 159.892 55.383 L 157.222 58.173 L 156.681 58.748 L 154.061 61.584 L 153.530 62.169 L 150.960 65.050 L 150.440 65.644 L 147.920 68.570 L 147.410 69.173 L 144.943 72.143 L 144.444 72.755 L 142.029 75.768 L 141.540 76.388 L 139.178 79.443 L 138.701 80.072 L 136.393 83.168 L 135.927 83.805 L 133.674 86.941 L 133.219 87.586 L 131.021 90.761 L 130.577 91.414 L 128.435 94.627 L 128.003 95.288 L 125.918 98.538 L 125.498 99.206 L 123.470 102.492 L 123.061 103.168 L 121.092 106.489 L 120.695 107.172 L 118.784 110.527 L 118.399 111.216 L 116.547 114.604 L 116.175 115.301 L 114.383 118.721 L 114.022 119.423 L 112.290 122.874 L 111.942 123.583 L 110.271 127.064 L 109.936 127.779 L 108.326 131.289 L 108.003 132.010 L 106.456 135.547 L 106.146 136.273 L 104.660 139.837 L 104.363 140.569 L 102.940 144.158 L 102.656 144.895 L 101.296 148.509 L 101.025 149.251 L 99.729 152.888 L 99.470 153.634 L 98.238 157.293 L 97.993 158.044 L 96.826 161.725 L 96.594 162.479 L 95.491 166.180 L 95.272 166.939 L 94.235 170.658 L 94.029 171.420 L 93.057 175.157 L 92.865 175.923 L 91.959 179.676 L 91.780 180.446 L 90.940 184.214 L 90.775 184.987 L 90.001 188.769 L 89.849 189.545 L 89.142 193.340 L 89.004 194.118 L 88.363 197.925 L 88.239 198.705 L 87.665 202.524 L 87.554 203.306 L 87.047 207.133 L 86.951 207.917 L 86.511 211.753 L 86.428 212.539 L 86.056 216.382 L 85.987 217.169 L 85.682 221.018 L 85.627 221.805 L 85.390 225.659 L 85.348 226.448 L 85.179 230.305 L 85.151 231.095 L 85.049 234.954 L 85.036 235.744 L 85.002 239.605 L 85.006 240.710 L 85.037 241.814 L 85.095 242.916 L 85.180 244.018 L 85.292 245.116 L 85.431 246.212 L 85.597 247.304 L 85.789 248.391 L 86.009 249.474 L 86.254 250.551 L 86.526 251.621 L 86.825 252.684 L 87.149 253.740 L 87.499 254.788 L 87.875 255.826 L 88.276 256.855 L 88.702 257.874 L 89.153 258.882 L 89.629 259.879 L 90.129 260.864 L 90.653 261.836 L 91.201 262.795 L 91.772 263.740 L 92.366 264.671 L 92.983 265.588 L 93.622 266.488 L 94.283 267.373 L 94.965 268.241 L 95.669 269.093 L 96.393 269.926 L 97.138 270.742 L 97.902 271.539 L 98.686 272.318 L 99.488 273.076 L 100.309 273.815 L 101.148 274.534 L 102.004 275.231 L 102.877 275.908 L 103.767 276.563 L 104.672 277.195 L 105.592 277.806 L 106.528 278.393 L 107.477 278.958 L 108.440 279.499 L 109.416 280.016 L 110.404 280.509 L 111.404 280.978 L 112.415 281.422 L 113.437 281.841 L 114.469 282.235 L 115.510 282.603 L 116.560 282.946 L 117.618 283.263 L 118.683 283.554 L 119.756 283.818 L 120.834 284.057 L 121.918 284.268 L 123.007 284.453 L 124.100 284.612 L 125.196 284.743 L 126.296 284.847 L 127.398 284.925 L 128.501 284.975 L 129.605 284.998 L 130.710 284.994 L 131.814 284.963 L 132.916 284.905 L 134.018 284.820 L 135.116 284.708 L 136.212 284.569 L 137.304 284.403 L 138.391 284.211 L 139.474 283.991 L 140.551 283.746 L 141.621 283.474 L 142.684 283.175 L 143.740 282.851 L 144.788 282.501 L 145.826 282.125 L 146.855 281.724 L 147.874 281.298 L 148.882 280.847 L 149.879 280.371 L 150.864 279.871 L 151.836 279.347 L 152.795 278.799 L 153.740 278.228 L 154.671 277.634 L 155.588 277.017 L 156.488 276.378 L 157.373 275.717 L 158.241 275.035 L 159.093 274.331 L 159.926 273.607 L 160.742 272.862 L 161.539 272.098 L 162.318 271.314 L 163.076 270.512 L 163.815 269.691 L 164.534 268.852 L 165.231 267.996 L 165.908 267.123 L 166.563 266.233 L 167.195 265.328 L 167.806 264.408 L 168.393 263.472 L 168.958 262.523 L 169.499 261.560 L 170.016 260.584 L 170.509 259.596 L 170.978 258.596 L 171.422 257.585 L 171.841 256.563 L 172.235 255.531 L 172.603 254.490 L 172.946 253.440 L 173.263 252.382 L 173.554 251.317 L 173.818 250.244 L 174.057 249.166 L 174.268 248.082 L 174.453 246.993 L 174.612 245.900 L 174.743 244.804 L 174.847 243.704 L 174.925 242.602 L 174.975 241.499 L 174.998 240.395 L 175.029 236.929 L 175.110 233.859 Z" fill="black" fill-rule="evenodd"/>
</svg>
