<svg xmlns="http://www.w3.org/2000/svg" viewBox="0 0 700.000 1000" width="700.000" height="1000">
  <path d="M 410.357 54.255 L 410.350 53.975 L 410.346 53.696 L 410.336 53.423 L 410.330 53.151 L 410.316 52.871 L 410.306 52.592 L 410.289 52.320 L 410.276 52.048 L 410.255 51.769 L 410.238 51.490 L 410.215 51.218 L 410.195 50.946 L 410.167 50.668 L 410.143 50.389 L 410.113 50.118 L 410.087 49.847 L 410.052 49.569 L 410.022 49.292 L 409.985 49.021 L 409.952 48.751 L 409.911 48.474 L 409.873 48.197 L 409.830 47.928 L 409.790 47.658 L 409.742 47.383 L 409.697 47.107 L 409.648 46.839 L 409.601 46.570 L 409.547 46.296 L 409.495 46.021 L 409.439 45.754 L 409.386 45.487 L 409.325 45.214 L 409.267 44.940 L 409.204 44.675 L 409.144 44.409 L 409.076 44.138 L 409.011 43.866 L 408.942 43.602 L 408.876 43.338 L 408.801 43.068 L 408.730 42.798 L 408.654 42.536 L 408.581 42.273 L 408.500 42.006 L 408.422 41.737 L 408.340 41.477 L 408.261 41.217 L 408.173 40.951 L 408.089 40.684 L 408.000 40.427 L 407.915 40.168 L 407.820 39.904 L 407.729 39.640 L 407.635 39.384 L 407.543 39.128 L 407.442 38.867 L 407.345 38.605 L 407.243 38.352 L 407.145 38.097 L 407.038 37.839 L 406.935 37.579 L 406.827 37.329 L 406.723 37.077 L 406.610 36.821 L 406.499 36.564 L 406.386 36.316 L 406.276 36.067 L 406.156 35.814 L 406.040 35.560 L 405.920 35.315 L 405.803 35.069 L 405.678 34.819 L 405.555 34.567 L 405.430 34.326 L 405.307 34.082 L 405.175 33.835 L 405.046 33.587 L 404.915 33.348 L 404.787 33.108 L 404.649 32.865 L 404.514 32.620 L 404.377 32.384 L 404.242 32.147 L 404.099 31.907 L 403.958 31.665 L 403.815 31.433 L 403.675 31.200 L 403.525 30.963 L 403.378 30.725 L 403.230 30.497 L 403.084 30.266 L 402.929 30.034 L 402.776 29.799 L 402.622 29.575 L 402.471 29.348 L 402.310 29.119 L 402.151 28.889 L 401.992 28.668 L 401.835 28.445 L 401.668 28.220 L 401.504 27.994 L 401.339 27.777 L 401.177 27.558 L 401.005 27.337 L 400.836 27.115 L 400.665 26.902 L 400.498 26.687 L 400.320 26.471 L 400.145 26.252 L 399.970 26.044 L 399.797 25.833 L 399.614 25.621 L 399.434 25.407 L 399.254 25.203 L 399.076 24.997 L 398.888 24.789 L 398.703 24.580 L 398.517 24.380 L 398.334 24.178 L 398.141 23.976 L 397.951 23.771 L 397.761 23.576 L 397.573 23.378 L 397.375 23.180 L 397.180 22.980 L 396.985 22.790 L 396.792 22.597 L 396.589 22.404 L 396.389 22.209 L 396.190 22.023 L 395.992 21.835 L 395.785 21.648 L 395.580 21.457 L 395.376 21.277 L 395.174 21.094 L 394.962 20.911 L 394.753 20.726 L 394.544 20.550 L 394.338 20.372 L 394.122 20.195 L 393.908 20.015 L 393.695 19.844 L 393.484 19.671 L 393.264 19.499 L 393.045 19.324 L 392.829 19.159 L 392.614 18.992 L 392.389 18.825 L 392.166 18.656 L 391.946 18.496 L 391.727 18.334 L 391.498 18.173 L 391.271 18.009 L 391.047 17.854 L 390.824 17.698 L 390.591 17.542 L 390.361 17.384 L 390.132 17.235 L 389.906 17.084 L 389.669 16.934 L 389.435 16.782 L 389.203 16.639 L 388.973 16.493 L 388.733 16.349 L 388.495 16.202 L 388.259 16.065 L 388.025 15.925 L 387.782 15.787 L 387.540 15.646 L 387.302 15.515 L 387.065 15.380 L 386.818 15.248 L 386.573 15.114 L 386.331 14.988 L 386.091 14.859 L 385.841 14.734 L 385.593 14.605 L 385.348 14.485 L 385.104 14.363 L 384.851 14.243 L 384.600 14.120 L 384.352 14.007 L 384.106 13.890 L 383.850 13.777 L 383.596 13.661 L 383.345 13.553 L 383.096 13.443 L 382.838 13.336 L 382.581 13.225 L 382.328 13.124 L 382.076 13.020 L 381.815 12.919 L 381.555 12.815 L 381.300 12.720 L 381.046 12.622 L 380.782 12.528 L 380.520 12.431 L 380.262 12.342 L 380.006 12.250 L 379.740 12.162 L 379.476 12.071 L 379.216 11.989 L 378.957 11.903 L 378.689 11.822 L 378.423 11.738 L 378.161 11.662 L 377.900 11.583 L 377.631 11.508 L 377.362 11.430 L 377.099 11.361 L 376.836 11.288 L 376.565 11.220 L 376.294 11.149 L 376.029 11.086 L 375.765 11.019 L 375.492 10.958 L 375.220 10.893 L 374.953 10.837 L 374.687 10.777 L 374.413 10.723 L 374.139 10.665 L 373.871 10.615 L 373.604 10.562 L 373.328 10.514 L 373.053 10.463 L 372.784 10.419 L 372.516 10.373 L 372.239 10.331 L 371.963 10.287 L 371.693 10.250 L 371.423 10.210 L 371.146 10.176 L 370.868 10.138 L 370.598 10.108 L 370.327 10.075 L 370.049 10.048 L 369.771 10.017 L 369.499 9.993 L 369.228 9.967 L 368.949 9.946 L 368.670 9.922 L 368.398 9.905 L 368.127 9.885 L 367.847 9.871 L 367.568 9.854 L 367.296 9.844 L 367.023 9.831 L 366.744 9.824 L 366.464 9.814 L 366.192 9.810 L 365.919 9.803 L 365.640 9.803 L 365.360 9.800 L 365.087 9.803 L 364.815 9.803 L 364.535 9.810 L 364.256 9.814 L 363.983 9.824 L 363.711 9.830 L 363.431 9.844 L 363.152 9.854 L 362.880 9.871 L 362.608 9.884 L 362.329 9.905 L 362.050 9.922 L 361.778 9.945 L 361.506 9.965 L 361.228 9.993 L 360.949 10.017 L 360.678 10.047 L 360.407 10.073 L 360.129 10.108 L 359.852 10.138 L 359.581 10.175 L 359.311 10.208 L 359.034 10.249 L 358.757 10.287 L 358.488 10.330 L 358.218 10.370 L 357.943 10.418 L 357.667 10.463 L 357.399 10.512 L 357.130 10.559 L 356.856 10.613 L 356.581 10.665 L 356.314 10.721 L 356.047 10.774 L 355.774 10.835 L 355.500 10.893 L 355.235 10.956 L 354.969 11.016 L 354.698 11.084 L 354.426 11.149 L 354.162 11.218 L 353.898 11.284 L 353.628 11.359 L 353.358 11.430 L 353.096 11.506 L 352.833 11.579 L 352.566 11.660 L 352.297 11.738 L 352.037 11.820 L 351.777 11.899 L 351.511 11.987 L 351.244 12.071 L 350.987 12.160 L 350.728 12.245 L 350.464 12.340 L 350.200 12.431 L 349.944 12.525 L 349.688 12.617 L 349.427 12.718 L 349.165 12.815 L 348.912 12.917 L 348.657 13.015 L 348.399 13.122 L 348.139 13.225 L 347.889 13.333 L 347.637 13.437 L 347.381 13.550 L 347.124 13.661 L 346.876 13.774 L 346.627 13.884 L 346.374 14.004 L 346.120 14.120 L 345.875 14.240 L 345.629 14.357 L 345.379 14.482 L 345.127 14.605 L 344.886 14.730 L 344.642 14.853 L 344.395 14.985 L 344.147 15.114 L 343.908 15.245 L 343.668 15.373 L 343.425 15.511 L 343.180 15.646 L 342.944 15.783 L 342.707 15.918 L 342.467 16.061 L 342.225 16.202 L 341.993 16.345 L 341.760 16.485 L 341.523 16.635 L 341.285 16.782 L 341.057 16.930 L 340.826 17.076 L 340.594 17.231 L 340.359 17.384 L 340.135 17.538 L 339.908 17.689 L 339.679 17.850 L 339.449 18.009 L 339.228 18.168 L 339.005 18.325 L 338.780 18.492 L 338.554 18.656 L 338.337 18.821 L 338.118 18.983 L 337.897 19.155 L 337.675 19.324 L 337.462 19.495 L 337.247 19.662 L 337.031 19.840 L 336.812 20.015 L 336.604 20.190 L 336.393 20.363 L 336.181 20.546 L 335.967 20.726 L 335.763 20.906 L 335.557 21.084 L 335.349 21.272 L 335.140 21.457 L 334.940 21.643 L 334.738 21.826 L 334.536 22.019 L 334.331 22.209 L 334.136 22.399 L 333.938 22.587 L 333.740 22.785 L 333.540 22.980 L 333.350 23.175 L 333.157 23.368 L 332.964 23.571 L 332.769 23.771 L 332.583 23.970 L 332.395 24.168 L 332.208 24.375 L 332.017 24.580 L 331.837 24.784 L 331.654 24.986 L 262.534 103.130 L 261.812 103.966 L 261.111 104.820 L 260.432 105.690 L 259.774 106.577 L 259.138 107.480 L 258.524 108.398 L 257.933 109.331 L 257.365 110.279 L 256.820 111.239 L 256.299 112.213 L 255.803 113.200 L 255.330 114.198 L 254.883 115.208 L 254.460 116.228 L 254.062 117.258 L 253.690 118.298 L 253.343 119.347 L 253.023 120.404 L 252.728 121.468 L 252.459 122.539 L 252.217 123.617 L 252.002 124.700 L 251.813 125.788 L 251.650 126.881 L 251.515 127.977 L 251.407 129.076 L 251.325 130.177 L 251.271 131.281 L 251.243 132.385 L 251.243 133.489 L 251.270 134.593 L 251.324 135.696 L 251.405 136.798 L 251.513 137.897 L 251.648 138.993 L 251.810 140.086 L 251.999 141.174 L 252.214 142.257 L 252.456 143.335 L 252.724 144.406 L 253.019 145.471 L 253.339 146.527 L 253.685 147.576 L 254.057 148.616 L 254.455 149.647 L 254.877 150.667 L 255.324 151.677 L 255.797 152.675 L 256.293 153.662 L 256.813 154.636 L 257.358 155.597 L 257.925 156.544 L 258.516 157.478 L 259.129 158.396 L 259.765 159.299 L 260.423 160.186 L 261.102 161.057 L 261.803 161.911 L 262.524 162.747 L 263.266 163.566 L 264.027 164.366 L 264.808 165.147 L 265.608 165.909 L 266.426 166.650 L 267.262 167.372 L 268.116 168.073 L 268.986 168.752 L 269.873 169.410 L 270.776 170.046 L 271.694 170.660 L 272.627 171.251 L 273.575 171.819 L 274.535 172.364 L 275.509 172.885 L 276.496 173.381 L 277.494 173.854 L 278.504 174.301 L 279.524 174.724 L 280.554 175.122 L 281.594 175.494 L 282.643 175.841 L 283.700 176.161 L 284.764 176.456 L 285.835 176.725 L 286.913 176.967 L 287.996 177.182 L 289.084 177.371 L 290.177 177.534 L 291.273 177.669 L 292.372 177.777 L 293.473 177.859 L 294.577 177.913 L 295.681 177.941 L 296.785 177.941 L 297.889 177.914 L 298.992 177.860 L 300.094 177.779 L 301.193 177.671 L 302.289 177.536 L 303.382 177.374 L 304.470 177.185 L 305.553 176.970 L 306.631 176.728 L 307.702 176.460 L 308.767 176.165 L 309.823 175.845 L 310.872 175.499 L 311.912 175.127 L 312.943 174.729 L 313.963 174.307 L 314.973 173.860 L 315.971 173.387 L 316.958 172.891 L 317.932 172.371 L 318.893 171.826 L 319.840 171.259 L 320.360 170.930 L 320.360 720.200 L 263.600 720.200 L 262.496 720.214 L 261.392 720.254 L 260.290 720.322 L 259.189 720.417 L 258.092 720.538 L 256.997 720.687 L 255.907 720.863 L 254.821 721.065 L 253.740 721.293 L 252.666 721.549 L 251.598 721.830 L 250.537 722.138 L 249.484 722.471 L 248.440 722.831 L 247.405 723.215 L 246.379 723.625 L 245.364 724.061 L 244.360 724.520 L 243.367 725.005 L 242.387 725.514 L 241.420 726.046 L 240.465 726.602 L 239.525 727.182 L 238.599 727.784 L 237.689 728.409 L 236.794 729.056 L 235.915 729.724 L 235.052 730.415 L 234.207 731.126 L 233.380 731.857 L 232.571 732.609 L 231.780 733.380 L 231.009 734.171 L 230.257 734.980 L 229.526 735.807 L 228.815 736.652 L 228.124 737.515 L 227.456 738.394 L 226.809 739.289 L 226.184 740.199 L 225.582 741.125 L 225.002 742.065 L 224.446 743.020 L 223.914 743.987 L 223.405 744.967 L 222.920 745.960 L 222.461 746.964 L 222.025 747.979 L 221.615 749.005 L 221.231 750.040 L 220.871 751.084 L 220.538 752.137 L 220.230 753.198 L 219.949 754.266 L 219.693 755.340 L 219.465 756.421 L 219.263 757.507 L 219.087 758.597 L 218.938 759.692 L 218.817 760.789 L 218.722 761.890 L 218.654 762.992 L 218.614 764.096 L 218.600 765.200 L 218.614 766.304 L 218.654 767.408 L 218.722 768.510 L 218.817 769.611 L 218.938 770.708 L 219.087 771.803 L 219.263 772.893 L 219.465 773.979 L 219.693 775.060 L 219.949 776.134 L 220.230 777.202 L 220.538 778.263 L 220.871 779.316 L 221.231 780.360 L 221.615 781.395 L 222.025 782.421 L 222.461 783.436 L 222.920 784.440 L 223.405 785.433 L 223.914 786.413 L 224.446 787.380 L 225.002 788.335 L 225.582 789.275 L 226.184 790.201 L 226.809 791.111 L 227.456 792.006 L 228.124 792.885 L 228.815 793.748 L 229.526 794.593 L 230.257 795.420 L 231.009 796.229 L 231.780 797.020 L 232.571 797.791 L 233.380 798.543 L 234.207 799.274 L 235.052 799.985 L 235.915 800.676 L 236.794 801.344 L 237.689 801.991 L 238.599 802.616 L 239.525 803.218 L 240.465 803.798 L 241.420 804.354 L 242.387 804.886 L 243.367 805.395 L 244.360 805.880 L 245.364 806.339 L 246.379 806.775 L 247.405 807.185 L 248.440 807.569 L 249.484 807.929 L 250.537 808.262 L 251.598 808.570 L 252.666 808.851 L 253.740 809.107 L 254.821 809.335 L 255.907 809.537 L 256.997 809.713 L 258.092 809.862 L 259.189 809.983 L 260.290 810.078 L 261.392 810.146 L 262.496 810.186 L 263.600 810.200 L 365.360 810.200 L 417.200 810.200 L 418.304 810.186 L 419.408 810.146 L 420.510 810.078 L 421.611 809.983 L 422.708 809.862 L 423.803 809.713 L 424.893 809.537 L 425.979 809.335 L 427.060 809.107 L 428.134 808.851 L 429.202 808.570 L 430.263 808.262 L 431.316 807.929 L 432.360 807.569 L 433.395 807.185 L 434.421 806.775 L 435.436 806.339 L 436.440 805.880 L 437.433 805.395 L 438.413 804.886 L 439.380 804.354 L 440.335 803.798 L 441.275 803.218 L 442.201 802.616 L 443.111 801.991 L 444.006 801.344 L 444.885 800.676 L 445.748 799.985 L 446.593 799.274 L 447.420 798.543 L 448.229 797.791 L 449.020 797.020 L 449.791 796.229 L 450.543 795.420 L 451.274 794.593 L 451.985 793.748 L 452.676 792.885 L 453.344 792.006 L 453.991 791.111 L 454.616 790.201 L 455.218 789.275 L 455.798 788.335 L 456.354 787.380 L 456.886 786.413 L 457.395 785.433 L 457.880 784.440 L 458.339 783.436 L 458.775 782.421 L 459.185 781.395 L 459.569 780.360 L 459.929 779.316 L 460.262 778.263 L 460.570 777.202 L 460.851 776.134 L 461.107 775.060 L 461.335 773.979 L 461.537 772.893 L 461.713 771.803 L 461.862 770.708 L 461.983 769.611 L 462.078 768.510 L 462.146 767.408 L 462.186 766.304 L 462.200 765.200 L 462.186 764.096 L 462.146 762.992 L 462.078 761.890 L 461.983 760.789 L 461.862 759.692 L 461.713 758.597 L 461.537 757.507 L 461.335 756.421 L 461.107 755.340 L 460.851 754.266 L 460.570 753.198 L 460.262 752.137 L 459.929 751.084 L 459.569 750.040 L 459.185 749.005 L 458.775 747.979 L 458.339 746.964 L 457.880 745.960 L 457.395 744.967 L 456.886 743.987 L 456.354 743.020 L 455.798 742.065 L 455.218 741.125 L 454.616 740.199 L 453.991 739.289 L 453.344 738.394 L 452.676 737.515 L 451.985 736.652 L 451.274 735.807 L 450.543 734.980 L 449.791 734.171 L 449.020 733.380 L 448.229 732.609 L 447.420 731.857 L 446.593 731.126 L 445.748 730.415 L 444.885 729.724 L 444.006 729.056 L 443.111 728.409 L 442.201 727.784 L 441.275 727.182 L 440.335 726.602 L 439.380 726.046 L 438.413 725.514 L 437.433 725.005 L 436.440 724.520 L 435.436 724.061 L 434.421 723.625 L 433.395 723.215 L 432.360 722.831 L 431.316 722.471 L 430.263 722.138 L 429.202 721.830 L 428.134 721.549 L 427.060 721.293 L 425.979 721.065 L 424.893 720.863 L 423.803 720.687 L 422.708 720.538 L 421.611 720.417 L 420.510 720.322 L 419.408 720.254 L 418.304 720.214 L 417.200 720.200 L 410.360 720.200 L 410.360 54.800 L 410.357 54.527 L 410.357 54.255 Z" fill="black" fill-rule="evenodd"/>
</svg>
