<svg xmlns="http://www.w3.org/2000/svg" viewBox="0 0 600.000 1000" width="600.000" height="1000">
  <path d="M 185.354 422.534 L 188.470 418.536 L 191.564 414.712 L 194.633 411.060 L 197.677 407.576 L 200.694 404.256 L 203.684 401.095 L 206.644 398.090 L 209.575 395.237 L 212.474 392.531 L 215.342 389.968 L 218.178 387.544 L 220.982 385.254 L 223.752 383.094 L 226.490 381.059 L 229.195 379.144 L 231.867 377.346 L 234.507 375.659 L 237.115 374.079 L 239.693 372.601 L 242.241 371.223 L 244.760 369.938 L 247.251 368.743 L 249.717 367.635 L 252.158 366.608 L 254.577 365.661 L 256.974 364.788 L 259.352 363.988 L 261.712 363.257 L 264.056 362.591 L 266.385 361.989 L 268.702 361.448 L 271.008 360.965 L 273.305 360.538 L 275.593 360.166 L 277.874 359.847 L 280.149 359.578 L 282.420 359.357 L 284.687 359.185 L 286.951 359.058 L 289.212 358.976 L 291.471 358.936 L 293.729 358.939 L 295.985 358.981 L 298.240 359.062 L 300.493 359.181 L 302.745 359.336 L 304.996 359.526 L 307.375 359.762 L 309.774 360.020 L 311.426 360.255 L 312.872 360.514 L 314.112 360.786 L 315.000 361.019 L 315.000 515.000 L 256.000 515.000 L 254.978 515.012 L 249.649 515.133 L 248.626 515.168 L 247.604 515.226 L 242.340 515.585 L 241.322 515.666 L 240.305 515.771 L 235.113 516.363 L 234.101 516.490 L 233.092 516.640 L 227.977 517.460 L 226.974 517.632 L 225.976 517.827 L 220.943 518.869 L 219.952 519.086 L 218.966 519.325 L 214.022 520.583 L 213.045 520.844 L 212.074 521.126 L 207.223 522.595 L 206.262 522.898 L 205.307 523.223 L 200.557 524.898 L 199.612 525.243 L 198.676 525.609 L 194.031 527.483 L 193.105 527.869 L 192.188 528.276 L 187.655 530.345 L 186.749 530.771 L 185.852 531.217 L 181.437 533.475 L 180.551 533.940 L 179.677 534.425 L 175.384 536.867 L 174.521 537.370 L 173.669 537.893 L 169.506 540.513 L 168.666 541.054 L 167.838 541.615 L 163.809 544.407 L 162.993 544.986 L 162.190 545.583 L 158.301 548.542 L 157.510 549.158 L 156.733 549.791 L 152.991 552.912 L 152.226 553.564 L 151.476 554.233 L 147.885 557.510 L 147.148 558.199 L 146.426 558.903 L 142.993 562.331 L 142.284 563.055 L 141.591 563.795 L 138.321 567.367 L 137.642 568.127 L 136.979 568.901 L 133.879 572.613 L 133.230 573.408 L 132.600 574.217 L 129.675 578.063 L 129.059 578.892 L 128.462 579.735 L 125.717 583.709 L 125.136 584.572 L 124.575 585.449 L 122.016 589.546 L 121.471 590.443 L 120.947 591.351 L 118.581 595.566 L 118.074 596.495 L 117.589 597.435 L 115.420 601.762 L 114.954 602.722 L 114.510 603.692 L 112.546 608.126 L 112.121 609.115 L 111.721 610.114 L 109.966 614.649 L 109.587 615.665 L 109.232 616.691 L 107.692 621.321 L 107.360 622.363 L 107.053 623.413 L 105.734 628.133 L 105.451 629.198 L 105.194 630.270 L 104.102 635.074 L 103.870 636.159 L 103.664 637.248 L 102.805 642.132 L 102.625 643.233 L 102.473 644.337 L 101.852 649.295 L 101.727 650.407 L 101.629 651.523 L 101.253 656.548 L 101.183 657.669 L 101.141 658.790 L 101.014 663.878 L 101.000 665.000 L 101.014 666.122 L 101.141 671.210 L 101.183 672.331 L 101.253 673.452 L 101.629 678.477 L 101.727 679.593 L 101.852 680.705 L 102.473 685.663 L 102.625 686.767 L 102.805 687.868 L 103.664 692.752 L 103.870 693.841 L 104.102 694.926 L 105.194 699.730 L 105.451 700.802 L 105.734 701.867 L 107.053 706.587 L 107.360 707.637 L 107.692 708.679 L 109.232 713.309 L 109.587 714.335 L 109.966 715.351 L 111.721 719.886 L 112.121 720.885 L 112.546 721.874 L 114.510 726.308 L 114.954 727.278 L 115.420 728.238 L 117.589 732.565 L 118.074 733.505 L 118.581 734.434 L 120.947 738.649 L 121.471 739.557 L 122.016 740.454 L 124.575 744.551 L 125.136 745.428 L 125.717 746.291 L 128.462 750.265 L 129.059 751.108 L 129.675 751.937 L 132.600 755.783 L 133.230 756.592 L 133.879 757.387 L 136.979 761.099 L 137.642 761.873 L 138.321 762.633 L 141.591 766.205 L 142.284 766.945 L 142.993 767.669 L 146.426 771.097 L 147.148 771.801 L 147.885 772.490 L 151.476 775.767 L 152.226 776.436 L 152.991 777.088 L 156.733 780.209 L 157.510 780.842 L 158.301 781.458 L 162.190 784.417 L 162.993 785.014 L 163.809 785.593 L 167.838 788.385 L 168.666 788.946 L 169.506 789.487 L 173.669 792.107 L 174.521 792.630 L 175.384 793.133 L 179.677 795.575 L 180.551 796.060 L 181.437 796.525 L 185.852 798.783 L 186.749 799.229 L 187.655 799.655 L 192.188 801.724 L 193.105 802.131 L 194.031 802.517 L 198.676 804.391 L 199.612 804.757 L 200.557 805.102 L 205.307 806.777 L 206.262 807.102 L 207.223 807.405 L 212.074 808.874 L 213.045 809.156 L 214.022 809.417 L 218.966 810.675 L 219.952 810.914 L 220.943 811.131 L 225.976 812.173 L 226.974 812.368 L 227.977 812.540 L 233.092 813.360 L 234.101 813.510 L 235.113 813.637 L 240.305 814.229 L 241.322 814.334 L 242.340 814.415 L 247.604 814.774 L 248.626 814.832 L 249.649 814.867 L 254.978 814.988 L 256.000 815.000 L 360.000 815.000 L 361.104 814.986 L 362.208 814.946 L 363.310 814.878 L 364.411 814.783 L 365.508 814.662 L 366.603 814.513 L 367.693 814.337 L 368.779 814.135 L 369.860 813.907 L 370.934 813.651 L 372.002 813.370 L 373.063 813.062 L 374.116 812.729 L 375.160 812.369 L 376.195 811.985 L 377.221 811.575 L 378.236 811.139 L 379.240 810.680 L 380.233 810.195 L 381.213 809.686 L 382.180 809.154 L 383.135 808.598 L 384.075 808.018 L 385.001 807.416 L 385.911 806.791 L 386.806 806.144 L 387.685 805.476 L 388.548 804.785 L 389.393 804.074 L 390.220 803.343 L 391.029 802.591 L 391.820 801.820 L 392.591 801.029 L 393.343 800.220 L 394.074 799.393 L 394.785 798.548 L 395.476 797.685 L 396.144 796.806 L 396.791 795.911 L 397.416 795.001 L 398.018 794.075 L 398.598 793.135 L 399.154 792.180 L 399.686 791.213 L 400.195 790.233 L 400.680 789.240 L 401.139 788.236 L 401.575 787.221 L 401.985 786.195 L 402.369 785.160 L 402.729 784.116 L 403.062 783.063 L 403.370 782.002 L 403.651 780.934 L 403.907 779.860 L 404.135 778.779 L 404.337 777.693 L 404.513 776.603 L 404.662 775.508 L 404.783 774.411 L 404.878 773.310 L 404.946 772.208 L 404.986 771.104 L 405.000 770.000 L 405.000 560.000 L 405.000 360.000 L 404.990 359.057 L 404.936 356.499 L 404.905 355.520 L 404.853 354.542 L 404.691 352.044 L 404.613 351.018 L 404.512 349.994 L 404.242 347.555 L 404.111 346.485 L 403.954 345.418 L 403.575 343.041 L 403.383 341.930 L 403.164 340.824 L 402.675 338.509 L 402.416 337.362 L 402.128 336.222 L 401.529 333.972 L 401.198 332.796 L 400.835 331.629 L 400.124 329.445 L 399.716 328.249 L 399.274 327.064 L 398.451 324.948 L 397.961 323.741 L 397.437 322.550 L 396.501 320.502 L 395.928 319.297 L 395.320 318.110 L 394.270 316.133 L 393.615 314.943 L 392.925 313.774 L 391.760 311.868 L 391.026 310.706 L 390.256 309.567 L 388.976 307.735 L 388.441 306.985 L 387.890 306.245 L 387.324 305.518 L 385.929 303.760 L 385.349 303.045 L 384.754 302.342 L 384.145 301.650 L 382.633 299.969 L 381.701 298.964 L 380.738 297.987 L 379.109 296.384 L 378.131 295.450 L 377.125 294.546 L 375.378 293.022 L 374.366 292.165 L 373.330 291.339 L 371.463 289.895 L 370.431 289.120 L 369.376 288.374 L 367.390 287.013 L 366.348 286.319 L 365.286 285.655 L 363.180 284.378 L 362.139 283.765 L 361.082 283.181 L 358.855 281.988 L 357.825 281.454 L 356.782 280.946 L 354.433 279.840 L 353.422 279.379 L 352.401 278.944 L 349.929 277.926 L 348.945 277.534 L 347.952 277.165 L 345.357 276.237 L 344.403 275.908 L 343.443 275.600 L 340.724 274.763 L 339.806 274.491 L 338.882 274.238 L 336.038 273.493 L 335.157 273.272 L 334.272 273.068 L 331.303 272.418 L 330.460 272.241 L 329.615 272.081 L 326.519 271.526 L 324.911 271.267 L 321.689 270.809 L 320.159 270.618 L 316.809 270.258 L 316.440 270.220 L 313.546 269.933 L 312.887 269.872 L 309.961 269.626 L 309.271 269.573 L 306.315 269.369 L 305.596 269.325 L 302.609 269.168 L 301.861 269.135 L 298.845 269.026 L 298.069 269.004 L 295.024 268.947 L 294.221 268.939 L 291.147 268.936 L 290.318 268.943 L 287.217 268.997 L 286.363 269.020 L 283.235 269.134 L 282.356 269.174 L 279.202 269.351 L 278.301 269.411 L 275.122 269.653 L 274.199 269.733 L 270.995 270.043 L 270.052 270.145 L 266.824 270.526 L 265.862 270.650 L 262.611 271.106 L 261.633 271.254 L 258.360 271.787 L 257.367 271.959 L 254.072 272.571 L 253.067 272.770 L 249.751 273.464 L 248.735 273.689 L 245.399 274.468 L 244.375 274.720 L 241.019 275.588 L 239.989 275.867 L 236.614 276.825 L 235.581 277.132 L 232.188 278.184 L 231.154 278.518 L 227.743 279.666 L 226.710 280.027 L 223.283 281.275 L 222.254 281.663 L 218.811 283.013 L 217.788 283.428 L 214.329 284.882 L 213.316 285.323 L 209.842 286.885 L 208.840 287.350 L 205.352 289.022 L 204.363 289.512 L 200.862 291.297 L 199.888 291.809 L 196.374 293.710 L 195.417 294.243 L 191.892 296.264 L 190.954 296.817 L 187.418 298.958 L 186.500 299.529 L 182.954 301.796 L 182.058 302.383 L 178.502 304.777 L 177.629 305.379 L 174.064 307.903 L 173.216 308.518 L 169.642 311.175 L 168.819 311.802 L 165.238 314.594 L 164.441 315.230 L 160.853 318.161 L 160.082 318.805 L 156.488 321.877 L 155.744 322.528 L 152.145 325.744 L 151.427 326.399 L 147.823 329.762 L 147.133 330.420 L 143.525 333.933 L 142.861 334.592 L 139.250 338.257 L 138.613 338.918 L 135.000 342.738 L 134.389 343.397 L 130.774 347.375 L 130.189 348.032 L 126.572 352.171 L 126.013 352.824 L 122.396 357.127 L 121.861 357.776 L 118.245 362.246 L 117.734 362.889 L 114.119 367.528 L 113.632 368.164 L 110.019 372.975 L 109.366 373.867 L 108.736 374.773 L 108.128 375.696 L 107.543 376.632 L 106.981 377.583 L 106.443 378.547 L 105.928 379.525 L 105.438 380.514 L 104.972 381.516 L 104.530 382.528 L 104.114 383.551 L 103.723 384.584 L 103.357 385.626 L 103.018 386.677 L 102.703 387.736 L 102.416 388.802 L 102.154 389.875 L 101.919 390.954 L 101.710 392.039 L 101.528 393.128 L 101.373 394.221 L 101.244 395.318 L 101.143 396.418 L 101.068 397.520 L 101.021 398.623 L 101.001 399.728 L 101.008 400.832 L 101.042 401.936 L 101.103 403.039 L 101.191 404.140 L 101.306 405.238 L 101.448 406.333 L 101.617 407.425 L 101.812 408.512 L 102.035 409.594 L 102.283 410.670 L 102.558 411.739 L 102.859 412.802 L 103.187 413.857 L 103.540 414.903 L 103.918 415.941 L 104.322 416.969 L 104.751 417.987 L 105.205 418.994 L 105.683 419.989 L 106.186 420.972 L 106.713 421.943 L 107.263 422.901 L 107.837 423.844 L 108.433 424.774 L 109.053 425.688 L 109.694 426.587 L 110.358 427.470 L 111.042 428.337 L 111.748 429.186 L 112.475 430.018 L 113.222 430.832 L 113.988 431.627 L 114.774 432.403 L 115.579 433.159 L 116.402 433.896 L 117.242 434.612 L 118.100 435.307 L 118.975 435.981 L 119.867 436.634 L 120.773 437.264 L 121.696 437.872 L 122.632 438.457 L 123.583 439.019 L 124.547 439.557 L 125.525 440.072 L 126.514 440.562 L 127.516 441.028 L 128.528 441.470 L 129.551 441.886 L 130.584 442.277 L 131.626 442.643 L 132.677 442.982 L 133.736 443.297 L 134.802 443.584 L 135.875 443.846 L 136.954 444.081 L 138.039 444.290 L 139.128 444.472 L 140.221 444.627 L 141.318 444.756 L 142.418 444.857 L 143.520 444.932 L 144.623 444.979 L 145.728 444.999 L 146.832 444.992 L 147.936 444.958 L 149.039 444.897 L 150.140 444.809 L 151.238 444.694 L 152.333 444.552 L 153.425 444.383 L 154.512 444.188 L 155.594 443.965 L 156.670 443.717 L 157.739 443.442 L 158.802 443.141 L 159.857 442.813 L 160.903 442.460 L 161.941 442.082 L 162.969 441.678 L 163.987 441.249 L 164.994 440.795 L 165.989 440.317 L 166.972 439.814 L 167.943 439.287 L 168.901 438.737 L 169.844 438.163 L 170.774 437.567 L 171.688 436.947 L 172.587 436.306 L 173.470 435.642 L 174.337 434.958 L 175.186 434.252 L 176.018 433.525 L 176.832 432.778 L 177.627 432.012 L 178.403 431.226 L 179.159 430.421 L 179.896 429.598 L 180.612 428.758 L 181.307 427.900 L 181.981 427.025 L 185.354 422.534 Z M 315.000 605.000 L 315.000 725.000 L 256.511 725.000 L 252.716 724.914 L 249.492 724.694 L 246.328 724.333 L 243.224 723.835 L 240.180 723.205 L 237.199 722.446 L 234.281 721.563 L 231.431 720.558 L 228.649 719.435 L 225.940 718.198 L 223.306 716.851 L 220.752 715.398 L 218.280 713.843 L 215.895 712.190 L 213.601 710.444 L 211.400 708.609 L 209.298 706.690 L 207.296 704.692 L 205.399 702.620 L 203.610 700.478 L 201.931 698.270 L 200.364 696.002 L 198.913 693.678 L 197.579 691.301 L 196.363 688.874 L 195.267 686.401 L 194.292 683.882 L 193.440 681.320 L 192.713 678.715 L 192.111 676.066 L 191.637 673.373 L 191.294 670.633 L 191.085 667.844 L 191.014 665.000 L 191.085 662.156 L 191.294 659.367 L 191.637 656.627 L 192.111 653.934 L 192.713 651.285 L 193.440 648.680 L 194.292 646.118 L 195.267 643.599 L 196.363 641.126 L 197.579 638.699 L 198.913 636.322 L 200.364 633.998 L 201.931 631.730 L 203.610 629.522 L 205.399 627.380 L 207.296 625.308 L 209.298 623.310 L 211.400 621.391 L 213.601 619.556 L 215.895 617.810 L 218.280 616.157 L 220.752 614.602 L 223.306 613.149 L 225.940 611.802 L 228.649 610.565 L 231.431 609.442 L 234.281 608.437 L 237.199 607.554 L 240.180 606.795 L 243.224 606.165 L 246.328 605.667 L 249.492 605.306 L 252.716 605.086 L 256.511 605.000 L 315.000 605.000 Z" fill="black" fill-rule="evenodd"/>
</svg>
