<svg xmlns="http://www.w3.org/2000/svg" viewBox="0 0 700.000 1000">
  <path d="M 466.605 577.244 L 466.561 579.169 L 466.500 581.093 L 466.421 583.016 L 466.325 584.938 L 466.211 586.858 L 466.081 588.776 L 465.932 590.692 L 465.767 592.605 L 465.584 594.516 L 465.383 596.424 L 465.166 598.328 L 464.931 600.229 L 464.679 602.126 L 464.411 604.018 L 464.125 605.907 L 463.822 607.791 L 463.502 609.669 L 463.165 611.543 L 462.811 613.411 L 462.441 615.273 L 462.054 617.130 L 461.650 618.980 L 461.230 620.824 L 460.793 622.660 L 460.340 624.490 L 459.871 626.313 L 459.385 628.128 L 458.884 629.935 L 458.366 631.734 L 457.832 633.525 L 457.283 635.307 L 456.718 637.080 L 456.138 638.845 L 455.542 640.600 L 454.930 642.346 L 454.304 644.081 L 453.662 645.807 L 453.005 647.523 L 452.334 649.228 L 451.647 650.922 L 450.946 652.606 L 450.231 654.278 L 449.501 655.939 L 448.757 657.588 L 447.999 659.226 L 447.227 660.852 L 446.441 662.465 L 445.642 664.066 L 444.829 665.654 L 444.003 667.229 L 443.164 668.792 L 442.311 670.341 L 441.446 671.876 L 440.568 673.398 L 439.678 674.907 L 438.775 676.401 L 437.860 677.881 L 436.933 679.347 L 435.995 680.798 L 435.044 682.234 L 434.082 683.656 L 433.109 685.063 L 432.125 686.454 L 431.130 687.830 L 430.124 689.191 L 429.107 690.536 L 428.080 691.865 L 427.043 693.178 L 425.995 694.475 L 424.938 695.757 L 423.871 697.021 L 422.795 698.270 L 421.710 699.501 L 420.615 700.716 L 419.511 701.915 L 418.399 703.096 L 417.278 704.261 L 416.149 705.408 L 415.012 706.538 L 413.867 707.651 L 412.714 708.747 L 411.553 709.825 L 410.385 710.885 L 409.210 711.928 L 408.028 712.954 L 406.839 713.961 L 405.643 714.951 L 404.441 715.923 L 403.233 716.877 L 402.018 717.813 L 400.798 718.731 L 399.572 719.631 L 398.340 720.513 L 397.103 721.377 L 395.861 722.223 L 394.614 723.051 L 393.361 723.860 L 392.105 724.651 L 390.843 725.424 L 389.577 726.179 L 388.308 726.915 L 387.033 727.633 L 385.756 728.333 L 384.474 729.015 L 383.189 729.678 L 381.900 730.323 L 380.608 730.950 L 379.313 731.559 L 378.014 732.149 L 376.713 732.721 L 375.409 733.275 L 374.103 733.810 L 372.794 734.328 L 371.482 734.827 L 370.169 735.308 L 368.853 735.771 L 367.535 736.216 L 366.215 736.642 L 364.893 737.051 L 363.570 737.441 L 362.245 737.814 L 360.918 738.168 L 359.590 738.505 L 358.261 738.824 L 356.931 739.124 L 355.599 739.407 L 354.266 739.672 L 352.932 739.919 L 351.598 740.148 L 350.262 740.359 L 348.926 740.552 L 347.589 740.728 L 346.251 740.886 L 344.913 741.026 L 343.574 741.148 L 342.235 741.253 L 340.896 741.340 L 339.556 741.409 L 338.216 741.460 L 336.876 741.494 L 335.536 741.510 L 334.196 741.508 L 332.856 741.488 L 331.516 741.451 L 330.176 741.396 L 328.836 741.324 L 327.497 741.233 L 326.158 741.125 L 324.819 740.999 L 323.481 740.856 L 322.144 740.694 L 320.807 740.515 L 319.471 740.318 L 318.135 740.103 L 316.801 739.871 L 315.467 739.620 L 314.135 739.352 L 312.803 739.065 L 311.473 738.761 L 310.144 738.439 L 308.816 738.099 L 307.490 737.741 L 306.165 737.365 L 304.842 736.971 L 303.521 736.558 L 302.201 736.128 L 300.884 735.680 L 299.568 735.213 L 298.255 734.728 L 296.944 734.226 L 295.636 733.705 L 294.330 733.165 L 293.026 732.608 L 291.726 732.032 L 290.428 731.438 L 289.134 730.826 L 287.842 730.196 L 286.554 729.547 L 285.269 728.880 L 283.989 728.195 L 282.711 727.491 L 281.438 726.769 L 280.169 726.029 L 278.904 725.271 L 277.644 724.494 L 276.388 723.700 L 275.137 722.887 L 273.890 722.055 L 272.649 721.206 L 271.413 720.339 L 270.182 719.453 L 268.957 718.549 L 267.738 717.627 L 266.525 716.688 L 265.318 715.730 L 264.117 714.755 L 262.923 713.761 L 261.735 712.750 L 260.554 711.721 L 259.381 710.675 L 258.214 709.611 L 257.055 708.529 L 255.904 707.430 L 254.760 706.314 L 253.624 705.180 L 252.497 704.029 L 251.378 702.861 L 250.267 701.676 L 249.165 700.475 L 248.073 699.256 L 246.989 698.021 L 245.914 696.770 L 244.850 695.502 L 243.794 694.217 L 242.749 692.917 L 241.714 691.600 L 240.689 690.268 L 239.674 688.920 L 238.670 687.556 L 237.677 686.177 L 236.695 684.782 L 235.724 683.373 L 234.765 681.948 L 233.817 680.509 L 232.880 679.055 L 231.956 677.586 L 231.043 676.103 L 230.143 674.606 L 229.255 673.095 L 228.380 671.570 L 227.517 670.032 L 226.668 668.480 L 225.831 666.915 L 225.007 665.337 L 224.197 663.747 L 223.401 662.143 L 222.521 660.328 L 222.027 659.340 L 221.509 658.365 L 220.968 657.402 L 220.402 656.453 L 219.814 655.518 L 219.203 654.598 L 218.570 653.694 L 217.914 652.805 L 217.237 651.932 L 216.539 651.076 L 215.820 650.238 L 215.081 649.418 L 214.321 648.616 L 213.543 647.833 L 212.745 647.069 L 211.929 646.325 L 211.094 645.601 L 210.243 644.898 L 209.374 644.216 L 208.489 643.556 L 207.587 642.917 L 206.671 642.301 L 205.739 641.707 L 204.794 641.137 L 203.834 640.590 L 202.862 640.067 L 201.877 639.567 L 200.879 639.092 L 199.871 638.642 L 198.852 638.216 L 197.823 637.816 L 196.784 637.441 L 195.736 637.092 L 194.680 636.768 L 193.616 636.470 L 192.546 636.199 L 191.469 635.954 L 190.386 635.736 L 189.299 635.544 L 188.207 635.379 L 187.111 635.240 L 186.012 635.129 L 184.911 635.045 L 183.808 634.987 L 182.704 634.957 L 181.599 634.954 L 180.495 634.978 L 179.392 635.029 L 178.290 635.107 L 177.191 635.212 L 176.094 635.345 L 175.001 635.504 L 173.913 635.689 L 172.829 635.902 L 171.751 636.141 L 170.679 636.406 L 169.613 636.698 L 168.556 637.015 L 167.506 637.359 L 166.465 637.728 L 165.433 638.122 L 164.412 638.542 L 163.401 638.987 L 162.401 639.456 L 161.413 639.950 L 160.438 640.468 L 159.475 641.010 L 158.526 641.575 L 157.592 642.163 L 156.672 642.774 L 155.767 643.408 L 154.878 644.063 L 154.005 644.740 L 153.150 645.438 L 152.311 646.157 L 151.491 646.897 L 150.689 647.656 L 149.906 648.435 L 149.142 649.232 L 148.398 650.049 L 147.674 650.883 L 146.971 651.735 L 146.289 652.604 L 145.629 653.489 L 144.990 654.390 L 144.374 655.307 L 143.781 656.238 L 143.210 657.184 L 142.663 658.143 L 142.140 659.116 L 141.641 660.101 L 141.166 661.098 L 140.715 662.106 L 140.290 663.125 L 139.889 664.155 L 139.514 665.194 L 139.165 666.241 L 138.841 667.297 L 138.544 668.361 L 138.272 669.431 L 138.027 670.508 L 137.809 671.591 L 137.617 672.679 L 137.452 673.771 L 137.314 674.866 L 137.202 675.965 L 137.118 677.066 L 137.061 678.169 L 137.030 679.273 L 137.027 680.378 L 137.051 681.482 L 137.102 682.585 L 137.181 683.687 L 137.286 684.786 L 137.418 685.883 L 137.577 686.976 L 137.763 688.064 L 137.975 689.148 L 138.214 690.227 L 138.479 691.299 L 138.771 692.364 L 139.088 693.422 L 139.432 694.471 L 139.801 695.512 L 140.196 696.544 L 140.616 697.565 L 141.060 698.576 L 141.530 699.576 L 142.506 701.591 L 142.702 701.991 L 143.697 703.993 L 143.897 704.391 L 144.910 706.380 L 145.116 706.778 L 146.147 708.754 L 146.356 709.151 L 147.405 711.113 L 147.620 711.509 L 148.686 713.457 L 148.905 713.853 L 149.990 715.786 L 150.214 716.181 L 151.315 718.100 L 151.544 718.494 L 152.663 720.398 L 152.897 720.791 L 154.033 722.681 L 154.272 723.073 L 155.425 724.947 L 155.668 725.338 L 156.839 727.197 L 157.087 727.587 L 158.274 729.431 L 158.527 729.820 L 159.731 731.647 L 159.989 732.035 L 161.209 733.847 L 161.473 734.233 L 162.709 736.028 L 162.978 736.414 L 164.231 738.193 L 164.504 738.576 L 165.773 740.339 L 166.051 740.721 L 167.336 742.467 L 167.620 742.847 L 168.920 744.576 L 169.209 744.955 L 170.525 746.666 L 170.819 747.044 L 172.151 748.738 L 172.450 749.114 L 173.797 750.790 L 174.102 751.164 L 175.464 752.822 L 175.773 753.195 L 177.151 754.835 L 177.465 755.206 L 178.857 756.827 L 179.178 757.196 L 180.584 758.799 L 180.910 759.166 L 182.331 760.751 L 182.662 761.116 L 184.097 762.681 L 184.433 763.044 L 185.883 764.590 L 186.224 764.951 L 187.688 766.478 L 188.035 766.836 L 189.512 768.344 L 189.864 768.700 L 191.355 770.188 L 191.713 770.541 L 193.217 772.009 L 193.581 772.360 L 195.098 773.808 L 195.467 774.156 L 196.997 775.585 L 197.372 775.930 L 198.915 777.338 L 199.295 777.680 L 200.851 779.068 L 201.236 779.407 L 202.804 780.774 L 203.195 781.110 L 204.776 782.456 L 205.172 782.789 L 206.765 784.114 L 207.166 784.444 L 208.771 785.748 L 209.178 786.075 L 210.795 787.358 L 211.207 787.681 L 212.835 788.942 L 213.253 789.261 L 214.893 790.501 L 215.316 790.817 L 216.967 792.035 L 217.395 792.347 L 219.057 793.543 L 219.491 793.851 L 221.163 795.025 L 221.602 795.330 L 223.285 796.481 L 223.730 796.782 L 225.423 797.911 L 225.873 798.207 L 227.576 799.314 L 228.031 799.606 L 229.745 800.690 L 230.205 800.977 L 231.928 802.039 L 232.393 802.322 L 234.126 803.361 L 234.597 803.639 L 236.339 804.655 L 236.814 804.928 L 238.565 805.921 L 239.046 806.189 L 240.806 807.159 L 241.291 807.422 L 243.060 808.369 L 243.551 808.627 L 245.328 809.550 L 245.823 809.803 L 247.609 810.702 L 248.109 810.950 L 249.902 811.826 L 250.407 812.068 L 252.208 812.920 L 252.717 813.157 L 254.526 813.985 L 255.040 814.216 L 256.857 815.020 L 257.375 815.246 L 259.199 816.026 L 259.721 816.246 L 261.552 817.001 L 262.078 817.215 L 263.916 817.947 L 264.447 818.154 L 266.291 818.861 L 266.826 819.063 L 268.676 819.746 L 269.215 819.941 L 271.071 820.599 L 271.614 820.788 L 273.476 821.421 L 274.023 821.604 L 275.891 822.213 L 276.441 822.388 L 278.314 822.973 L 278.868 823.141 L 280.747 823.701 L 281.304 823.863 L 283.187 824.398 L 283.747 824.553 L 285.636 825.063 L 286.199 825.211 L 288.092 825.696 L 288.658 825.837 L 290.555 826.297 L 291.125 826.431 L 293.026 826.866 L 293.598 826.993 L 295.503 827.402 L 296.077 827.522 L 297.986 827.907 L 298.563 828.019 L 300.475 828.378 L 301.054 828.483 L 302.969 828.817 L 303.551 828.914 L 305.469 829.223 L 306.052 829.313 L 307.973 829.596 L 308.558 829.678 L 310.481 829.936 L 311.068 830.011 L 312.993 830.243 L 313.582 830.310 L 315.509 830.517 L 316.099 830.576 L 318.028 830.758 L 318.619 830.809 L 320.550 830.965 L 321.142 831.009 L 323.074 831.139 L 323.667 831.175 L 325.600 831.280 L 326.193 831.309 L 328.127 831.388 L 328.721 831.408 L 330.656 831.462 L 331.250 831.475 L 333.185 831.503 L 333.780 831.507 L 335.714 831.510 L 336.309 831.507 L 338.244 831.484 L 338.839 831.473 L 340.773 831.424 L 341.367 831.405 L 343.301 831.331 L 343.895 831.304 L 345.828 831.205 L 346.421 831.170 L 348.353 831.045 L 348.946 831.003 L 350.876 830.852 L 351.468 830.802 L 353.397 830.626 L 353.987 830.568 L 355.915 830.366 L 356.504 830.300 L 358.429 830.073 L 359.017 830.000 L 360.940 829.747 L 361.526 829.666 L 363.447 829.388 L 364.031 829.300 L 365.949 828.996 L 366.531 828.901 L 368.447 828.572 L 369.027 828.468 L 370.939 828.114 L 371.517 828.003 L 373.426 827.624 L 374.001 827.506 L 375.907 827.101 L 376.479 826.976 L 378.381 826.546 L 378.951 826.414 L 380.849 825.959 L 381.416 825.819 L 383.310 825.339 L 383.874 825.192 L 385.763 824.687 L 386.324 824.534 L 388.208 824.004 L 388.766 823.843 L 390.645 823.288 L 391.200 823.121 L 393.074 822.541 L 393.625 822.367 L 395.494 821.763 L 396.041 821.582 L 397.905 820.953 L 398.448 820.766 L 400.306 820.112 L 400.846 819.919 L 402.697 819.241 L 403.233 819.041 L 405.078 818.338 L 405.610 818.132 L 407.449 817.405 L 407.976 817.193 L 409.808 816.442 L 410.332 816.223 L 412.157 815.448 L 412.676 815.224 L 414.494 814.425 L 415.008 814.195 L 416.819 813.371 L 417.329 813.136 L 419.132 812.289 L 419.638 812.047 L 421.433 811.176 L 421.934 810.929 L 423.721 810.035 L 424.217 809.783 L 425.996 808.865 L 426.487 808.607 L 428.258 807.666 L 428.744 807.403 L 430.506 806.438 L 430.988 806.171 L 432.741 805.183 L 433.217 804.910 L 434.961 803.899 L 435.432 803.622 L 437.167 802.587 L 437.633 802.306 L 439.359 801.248 L 439.820 800.962 L 441.535 799.882 L 441.991 799.591 L 443.697 798.489 L 444.147 798.194 L 445.843 797.069 L 446.288 796.769 L 447.974 795.622 L 448.414 795.318 L 450.088 794.149 L 450.523 793.841 L 452.187 792.650 L 452.617 792.339 L 454.270 791.125 L 454.694 790.810 L 456.336 789.575 L 456.755 789.256 L 458.385 787.999 L 458.798 787.676 L 460.417 786.398 L 460.825 786.072 L 462.433 784.772 L 462.835 784.443 L 464.431 783.122 L 464.828 782.790 L 466.411 781.448 L 466.803 781.112 L 468.374 779.750 L 468.760 779.411 L 470.319 778.027 L 470.699 777.686 L 472.245 776.282 L 472.621 775.937 L 474.154 774.513 L 474.524 774.165 L 476.044 772.721 L 476.408 772.371 L 477.915 770.907 L 478.274 770.554 L 479.767 769.070 L 480.121 768.714 L 481.601 767.211 L 481.949 766.853 L 483.415 765.330 L 483.758 764.970 L 485.210 763.427 L 485.547 763.065 L 486.986 761.503 L 487.318 761.139 L 488.742 759.558 L 489.068 759.191 L 490.478 757.592 L 490.799 757.223 L 492.194 755.606 L 492.510 755.235 L 493.890 753.599 L 494.201 753.226 L 495.566 751.572 L 495.871 751.198 L 497.221 749.526 L 497.521 749.150 L 498.856 747.460 L 499.151 747.082 L 500.470 745.375 L 500.760 744.995 L 502.064 743.271 L 502.349 742.890 L 503.637 741.148 L 503.916 740.766 L 505.188 739.007 L 505.463 738.623 L 506.719 736.848 L 506.988 736.463 L 508.228 734.670 L 508.492 734.284 L 509.716 732.476 L 509.975 732.088 L 511.182 730.264 L 511.436 729.875 L 512.627 728.035 L 512.876 727.645 L 514.050 725.789 L 514.294 725.399 L 515.451 723.527 L 515.690 723.135 L 516.830 721.249 L 517.065 720.856 L 518.187 718.955 L 518.417 718.561 L 519.522 716.645 L 519.747 716.250 L 520.835 714.319 L 521.055 713.924 L 522.125 711.979 L 522.340 711.583 L 523.393 709.624 L 523.604 709.227 L 524.638 707.254 L 524.844 706.856 L 525.861 704.870 L 526.062 704.471 L 527.061 702.472 L 527.257 702.073 L 528.238 700.060 L 528.430 699.660 L 529.392 697.635 L 529.580 697.234 L 530.523 695.196 L 530.706 694.795 L 531.631 692.745 L 531.810 692.344 L 532.716 690.281 L 532.890 689.879 L 533.778 687.805 L 533.948 687.402 L 534.816 685.316 L 534.982 684.914 L 535.831 682.816 L 535.992 682.413 L 536.823 680.304 L 536.980 679.901 L 537.791 677.782 L 537.943 677.378 L 538.735 675.248 L 538.883 674.843 L 539.656 672.703 L 539.800 672.298 L 540.553 670.148 L 540.693 669.743 L 541.426 667.583 L 541.562 667.178 L 542.276 665.008 L 542.407 664.602 L 543.101 662.423 L 543.228 662.018 L 543.903 659.829 L 544.026 659.423 L 544.680 657.227 L 544.799 656.820 L 545.434 654.615 L 545.549 654.209 L 546.163 651.995 L 546.274 651.588 L 546.868 649.367 L 546.975 648.960 L 547.549 646.730 L 547.652 646.324 L 548.206 644.087 L 548.304 643.680 L 548.838 641.436 L 548.933 641.028 L 549.446 638.777 L 549.537 638.370 L 550.029 636.113 L 550.116 635.705 L 550.588 633.441 L 550.671 633.033 L 551.123 630.763 L 551.202 630.356 L 551.633 628.080 L 551.708 627.672 L 552.118 625.391 L 552.189 624.983 L 552.579 622.696 L 552.646 622.288 L 553.015 619.996 L 553.079 619.588 L 553.427 617.292 L 553.486 616.884 L 553.813 614.583 L 553.870 614.175 L 554.176 611.869 L 554.228 611.461 L 554.513 609.152 L 554.561 608.744 L 554.826 606.431 L 554.870 606.023 L 555.113 603.707 L 555.154 603.299 L 555.376 600.980 L 555.414 600.571 L 555.615 598.249 L 555.648 597.841 L 555.828 595.517 L 555.858 595.108 L 556.017 592.781 L 556.043 592.373 L 556.180 590.044 L 556.202 589.636 L 556.319 587.306 L 556.338 586.897 L 556.433 584.565 L 556.448 584.157 L 556.522 581.824 L 556.533 581.416 L 556.586 579.082 L 556.593 578.673 L 556.625 576.339 L 556.629 575.931 L 556.640 573.596 L 556.639 573.494 L 556.640 573.392 L 556.640 267.920 L 556.638 267.730 L 556.638 267.462 L 556.584 262.232 L 556.566 261.317 L 556.406 256.090 L 556.369 255.174 L 556.103 249.953 L 556.047 249.038 L 555.675 243.827 L 555.601 242.912 L 555.123 237.713 L 555.029 236.798 L 554.446 231.615 L 554.333 230.700 L 553.645 225.536 L 553.513 224.622 L 552.719 219.479 L 552.569 218.565 L 551.671 213.448 L 551.501 212.534 L 550.499 207.445 L 550.310 206.532 L 549.205 201.474 L 548.995 200.562 L 547.788 195.538 L 547.559 194.626 L 546.249 189.640 L 546.000 188.729 L 544.590 183.783 L 544.320 182.873 L 542.809 177.970 L 542.519 177.061 L 540.909 172.204 L 540.597 171.297 L 538.889 166.490 L 538.556 165.584 L 536.751 160.828 L 536.397 159.924 L 534.495 155.224 L 534.119 154.322 L 532.122 149.679 L 531.724 148.779 L 529.633 144.197 L 529.212 143.300 L 527.029 138.781 L 526.585 137.887 L 524.311 133.434 L 523.844 132.544 L 521.480 128.159 L 520.989 127.273 L 518.536 122.960 L 518.021 122.078 L 515.481 117.838 L 514.942 116.961 L 512.317 112.798 L 511.753 111.927 L 509.044 107.843 L 508.455 106.977 L 505.664 102.974 L 505.049 102.115 L 502.178 98.197 L 501.537 97.344 L 498.587 93.512 L 497.921 92.668 L 494.893 88.924 L 494.200 88.089 L 491.097 84.436 L 490.378 83.610 L 487.202 80.050 L 486.456 79.234 L 483.208 75.769 L 482.435 74.965 L 479.118 71.597 L 478.318 70.805 L 474.933 67.536 L 474.106 66.757 L 470.656 63.590 L 469.801 62.825 L 466.287 59.761 L 465.405 59.012 L 461.830 56.053 L 460.921 55.319 L 457.287 52.467 L 456.350 51.751 L 452.659 49.007 L 451.695 48.311 L 447.950 45.677 L 446.959 45.000 L 443.161 42.478 L 442.145 41.822 L 438.296 39.413 L 437.253 38.780 L 433.357 36.485 L 432.289 35.876 L 428.348 33.698 L 427.254 33.113 L 423.270 31.052 L 422.152 30.494 L 418.127 28.552 L 416.986 28.021 L 412.923 26.198 L 411.759 25.696 L 407.660 23.995 L 406.475 23.522 L 402.342 21.943 L 401.137 21.502 L 396.974 20.045 L 395.749 19.636 L 391.557 18.303 L 390.315 17.928 L 386.097 16.719 L 384.839 16.378 L 380.597 15.295 L 379.324 14.989 L 375.062 14.032 L 373.774 13.762 L 369.494 12.931 L 368.195 12.699 L 363.900 11.995 L 362.590 11.800 L 358.282 11.224 L 356.964 11.067 L 352.645 10.618 L 351.321 10.501 L 346.994 10.180 L 345.665 10.101 L 341.333 9.909 L 340.001 9.869 L 335.666 9.805 L 334.334 9.805 L 329.999 9.869 L 328.667 9.909 L 324.335 10.101 L 323.006 10.180 L 318.679 10.501 L 317.355 10.618 L 313.036 11.067 L 311.718 11.224 L 307.410 11.800 L 306.100 11.995 L 301.805 12.699 L 300.506 12.931 L 296.226 13.762 L 294.938 14.032 L 290.676 14.989 L 289.403 15.295 L 285.161 16.378 L 283.903 16.719 L 279.685 17.928 L 278.443 18.303 L 274.251 19.636 L 273.026 20.045 L 268.863 21.502 L 267.658 21.943 L 263.525 23.522 L 262.340 23.995 L 258.241 25.696 L 257.077 26.198 L 253.014 28.021 L 251.873 28.552 L 247.848 30.494 L 246.730 31.052 L 242.746 33.113 L 241.652 33.698 L 237.711 35.876 L 236.643 36.485 L 232.747 38.780 L 231.704 39.413 L 227.855 41.822 L 226.839 42.478 L 223.041 45.000 L 222.050 45.677 L 218.305 48.311 L 217.341 49.007 L 213.650 51.751 L 212.713 52.467 L 209.079 55.319 L 208.170 56.053 L 204.595 59.012 L 203.713 59.761 L 200.199 62.825 L 199.344 63.590 L 195.894 66.757 L 195.067 67.536 L 191.682 70.805 L 190.882 71.597 L 187.565 74.965 L 186.792 75.769 L 183.544 79.234 L 182.798 80.050 L 179.622 83.610 L 178.903 84.436 L 175.800 88.089 L 175.107 88.924 L 172.079 92.668 L 171.413 93.512 L 168.463 97.344 L 167.822 98.197 L 164.951 102.115 L 164.336 102.974 L 161.545 106.977 L 160.956 107.843 L 158.247 111.927 L 157.683 112.798 L 155.058 116.961 L 154.519 117.838 L 151.979 122.078 L 151.464 122.960 L 149.011 127.273 L 148.520 128.159 L 146.156 132.544 L 145.689 133.434 L 143.415 137.887 L 142.971 138.781 L 140.788 143.300 L 140.367 144.197 L 138.276 148.779 L 137.878 149.679 L 135.881 154.322 L 135.505 155.224 L 133.603 159.924 L 133.249 160.828 L 131.444 165.584 L 131.111 166.490 L 129.403 171.297 L 129.091 172.204 L 127.481 177.061 L 127.191 177.970 L 125.680 182.873 L 125.410 183.783 L 124.000 188.729 L 123.751 189.640 L 122.441 194.626 L 122.212 195.538 L 121.005 200.562 L 120.795 201.474 L 119.690 206.532 L 119.501 207.445 L 118.499 212.534 L 118.329 213.448 L 117.431 218.565 L 117.281 219.479 L 116.487 224.622 L 116.355 225.536 L 115.667 230.700 L 115.554 231.615 L 114.971 236.798 L 114.877 237.713 L 114.399 242.912 L 114.325 243.827 L 113.953 249.038 L 113.897 249.953 L 113.631 255.174 L 113.594 256.090 L 113.434 261.317 L 113.416 262.232 L 113.362 267.462 L 113.362 268.378 L 113.416 273.608 L 113.434 274.523 L 113.594 279.750 L 113.631 280.666 L 113.897 285.887 L 113.953 286.802 L 114.325 292.013 L 114.399 292.928 L 114.877 298.127 L 114.971 299.042 L 115.554 304.225 L 115.667 305.140 L 116.355 310.304 L 116.487 311.218 L 117.281 316.361 L 117.431 317.275 L 118.329 322.392 L 118.499 323.306 L 119.501 328.395 L 119.690 329.308 L 120.795 334.366 L 121.005 335.278 L 122.212 340.302 L 122.441 341.214 L 123.751 346.200 L 124.000 347.111 L 125.410 352.057 L 125.680 352.967 L 127.191 357.870 L 127.481 358.779 L 129.091 363.636 L 129.403 364.543 L 131.111 369.350 L 131.444 370.256 L 133.249 375.012 L 133.603 375.916 L 135.505 380.616 L 135.881 381.518 L 137.878 386.161 L 138.276 387.061 L 140.367 391.643 L 140.788 392.540 L 142.971 397.059 L 143.415 397.953 L 145.689 402.406 L 146.156 403.296 L 148.520 407.681 L 149.011 408.567 L 151.464 412.880 L 151.979 413.762 L 154.519 418.002 L 155.058 418.879 L 157.683 423.042 L 158.247 423.913 L 160.956 427.997 L 161.545 428.863 L 164.336 432.866 L 164.951 433.725 L 167.822 437.643 L 168.463 438.496 L 171.413 442.328 L 172.079 443.172 L 175.107 446.916 L 175.800 447.751 L 178.903 451.404 L 179.622 452.230 L 182.798 455.790 L 183.544 456.606 L 186.792 460.071 L 187.565 460.875 L 190.882 464.243 L 191.682 465.035 L 195.067 468.304 L 195.894 469.083 L 199.344 472.250 L 200.199 473.015 L 203.713 476.079 L 204.595 476.828 L 208.170 479.787 L 209.079 480.521 L 212.713 483.373 L 213.650 484.089 L 217.341 486.833 L 218.305 487.529 L 222.050 490.163 L 223.041 490.840 L 226.839 493.362 L 227.855 494.018 L 231.704 496.427 L 232.747 497.060 L 236.643 499.355 L 237.711 499.964 L 241.652 502.142 L 242.746 502.727 L 246.730 504.788 L 247.848 505.346 L 251.873 507.288 L 253.014 507.819 L 257.077 509.642 L 258.241 510.144 L 262.340 511.845 L 263.525 512.318 L 267.658 513.897 L 268.863 514.338 L 273.026 515.795 L 274.251 516.204 L 278.443 517.537 L 279.685 517.912 L 283.903 519.121 L 285.161 519.462 L 289.403 520.545 L 290.676 520.851 L 294.938 521.808 L 296.226 522.078 L 300.506 522.909 L 301.805 523.141 L 306.100 523.845 L 307.410 524.040 L 311.718 524.616 L 313.036 524.773 L 317.355 525.222 L 318.679 525.339 L 323.006 525.660 L 324.335 525.739 L 328.667 525.931 L 329.999 525.971 L 334.334 526.035 L 335.666 526.035 L 340.001 525.971 L 341.333 525.931 L 345.665 525.739 L 346.994 525.660 L 351.321 525.339 L 352.645 525.222 L 356.964 524.773 L 358.282 524.616 L 362.590 524.040 L 363.900 523.845 L 368.195 523.141 L 369.494 522.909 L 373.774 522.078 L 375.062 521.808 L 379.324 520.851 L 380.597 520.545 L 384.839 519.462 L 386.097 519.121 L 390.315 517.912 L 391.557 517.537 L 395.749 516.204 L 396.974 515.795 L 401.137 514.338 L 402.342 513.897 L 406.475 512.318 L 407.660 511.845 L 411.759 510.144 L 412.923 509.642 L 416.986 507.819 L 418.127 507.288 L 422.152 505.346 L 423.270 504.788 L 427.254 502.727 L 428.348 502.142 L 432.289 499.964 L 433.357 499.355 L 437.253 497.060 L 438.296 496.427 L 442.145 494.018 L 443.161 493.362 L 446.959 490.840 L 447.950 490.163 L 451.695 487.529 L 452.659 486.833 L 456.350 484.089 L 457.287 483.373 L 460.921 480.521 L 461.830 479.787 L 465.405 476.828 L 466.287 476.079 L 466.640 475.771 L 466.640 573.290 L 466.631 575.318 L 466.605 577.244 Z M 203.538 259.294 L 203.757 254.988 L 204.064 250.692 L 204.457 246.409 L 204.938 242.141 L 205.505 237.891 L 206.157 233.663 L 206.895 229.460 L 207.716 225.284 L 208.622 221.139 L 209.610 217.028 L 210.680 212.953 L 211.831 208.918 L 213.061 204.924 L 214.370 200.976 L 215.756 197.075 L 217.217 193.225 L 218.754 189.427 L 220.363 185.685 L 222.043 182.001 L 223.794 178.377 L 225.612 174.816 L 227.498 171.320 L 229.447 167.892 L 231.460 164.532 L 233.533 161.244 L 235.666 158.030 L 237.855 154.890 L 240.099 151.828 L 242.397 148.844 L 244.745 145.941 L 247.142 143.119 L 249.586 140.380 L 252.074 137.725 L 254.605 135.156 L 257.175 132.674 L 259.784 130.279 L 262.429 127.972 L 265.108 125.754 L 267.819 123.627 L 270.560 121.589 L 273.328 119.642 L 276.122 117.787 L 278.940 116.023 L 281.781 114.350 L 284.641 112.769 L 287.521 111.280 L 290.417 109.883 L 293.328 108.577 L 296.253 107.363 L 299.191 106.240 L 302.140 105.208 L 305.099 104.267 L 308.066 103.417 L 311.041 102.657 L 314.023 101.988 L 317.010 101.408 L 320.001 100.918 L 322.997 100.517 L 325.995 100.205 L 328.995 99.983 L 331.997 99.849 L 335.000 99.805 L 338.003 99.849 L 341.005 99.983 L 344.005 100.205 L 347.003 100.517 L 349.999 100.918 L 352.990 101.408 L 355.977 101.988 L 358.959 102.657 L 361.934 103.417 L 364.901 104.267 L 367.860 105.208 L 370.809 106.240 L 373.747 107.363 L 376.672 108.577 L 379.583 109.883 L 382.479 111.280 L 385.359 112.769 L 388.219 114.350 L 391.060 116.023 L 393.878 117.787 L 396.672 119.642 L 399.440 121.589 L 402.181 123.627 L 404.892 125.754 L 407.571 127.972 L 410.216 130.279 L 412.825 132.674 L 415.395 135.156 L 417.926 137.725 L 420.414 140.380 L 422.858 143.119 L 425.255 145.941 L 427.603 148.844 L 429.901 151.828 L 432.145 154.890 L 434.334 158.030 L 436.467 161.244 L 438.540 164.532 L 440.553 167.892 L 442.502 171.320 L 444.388 174.816 L 446.206 178.377 L 447.957 182.001 L 449.637 185.685 L 451.246 189.427 L 452.783 193.225 L 454.244 197.075 L 455.630 200.976 L 456.939 204.924 L 458.169 208.918 L 459.320 212.953 L 460.390 217.028 L 461.378 221.139 L 462.284 225.284 L 463.105 229.460 L 463.843 233.663 L 464.495 237.891 L 465.062 242.141 L 465.543 246.409 L 465.936 250.692 L 466.243 254.988 L 466.462 259.294 L 466.594 263.605 L 466.638 267.920 L 466.594 272.235 L 466.462 276.546 L 466.243 280.852 L 465.936 285.148 L 465.543 289.431 L 465.062 293.699 L 464.495 297.949 L 463.843 302.177 L 463.105 306.380 L 462.284 310.556 L 461.378 314.701 L 460.390 318.812 L 459.320 322.887 L 458.169 326.922 L 456.939 330.916 L 455.630 334.864 L 454.244 338.765 L 452.783 342.615 L 451.246 346.413 L 449.637 350.155 L 447.957 353.839 L 446.206 357.463 L 444.388 361.024 L 442.502 364.520 L 440.553 367.948 L 438.540 371.308 L 436.467 374.596 L 434.334 377.810 L 432.145 380.950 L 429.901 384.012 L 427.603 386.996 L 425.255 389.899 L 422.858 392.721 L 420.414 395.460 L 417.926 398.115 L 415.395 400.684 L 412.825 403.166 L 410.216 405.561 L 407.571 407.868 L 404.892 410.086 L 402.181 412.213 L 399.440 414.251 L 396.672 416.198 L 393.878 418.053 L 391.060 419.817 L 388.219 421.490 L 385.359 423.071 L 382.479 424.560 L 379.583 425.957 L 376.672 427.263 L 373.747 428.477 L 370.809 429.600 L 367.860 430.632 L 364.901 431.573 L 361.934 432.423 L 358.959 433.183 L 355.977 433.852 L 352.990 434.432 L 349.999 434.922 L 347.003 435.323 L 344.005 435.635 L 341.005 435.857 L 338.003 435.991 L 335.000 436.035 L 331.997 435.991 L 328.995 435.857 L 325.995 435.635 L 322.997 435.323 L 320.001 434.922 L 317.010 434.432 L 314.023 433.852 L 311.041 433.183 L 308.066 432.423 L 305.099 431.573 L 302.140 430.632 L 299.191 429.600 L 296.253 428.477 L 293.328 427.263 L 290.417 425.957 L 287.521 424.560 L 284.641 423.071 L 281.781 421.490 L 278.940 419.817 L 276.122 418.053 L 273.328 416.198 L 270.560 414.251 L 267.819 412.213 L 265.108 410.086 L 262.429 407.868 L 259.784 405.561 L 257.175 403.166 L 254.605 400.684 L 252.074 398.115 L 249.586 395.460 L 247.142 392.721 L 244.745 389.899 L 242.397 386.996 L 240.099 384.012 L 237.855 380.950 L 235.666 377.810 L 233.533 374.596 L 231.460 371.308 L 229.447 367.948 L 227.498 364.520 L 225.612 361.024 L 223.794 357.463 L 222.043 353.839 L 220.363 350.155 L 218.754 346.413 L 217.217 342.615 L 215.756 338.765 L 214.370 334.864 L 213.061 330.916 L 211.831 326.922 L 210.680 322.887 L 209.610 318.812 L 208.622 314.701 L 207.716 310.556 L 206.895 306.380 L 206.157 302.177 L 205.505 297.949 L 204.938 293.699 L 204.457 289.431 L 204.064 285.148 L 203.757 280.852 L 203.538 276.546 L 203.406 272.235 L 203.362 267.920 L 203.406 263.605 L 203.538 259.294 Z" fill="black" fill-rule="evenodd"/>
</svg>
