<svg xmlns="http://www.w3.org/2000/svg" viewBox="0 0 700.000 1000" width="700.000" height="1000">
  <path d="M 599.799 73.720 L 600.617 72.979 L 601.417 72.217 L 602.198 71.437 L 602.960 70.637 L 603.702 69.819 L 604.424 68.983 L 605.125 68.129 L 605.804 67.259 L 606.463 66.372 L 607.099 65.469 L 607.713 64.551 L 608.304 63.618 L 608.872 62.671 L 609.417 61.710 L 609.938 60.736 L 610.434 59.750 L 610.907 58.752 L 611.355 57.742 L 611.778 56.722 L 612.176 55.692 L 612.548 54.652 L 612.895 53.603 L 613.216 52.546 L 613.510 51.482 L 613.779 50.411 L 614.021 49.333 L 614.237 48.250 L 614.426 47.162 L 614.589 46.070 L 614.724 44.974 L 614.833 43.874 L 614.914 42.773 L 614.969 41.670 L 614.996 40.566 L 614.997 39.461 L 614.970 38.357 L 614.916 37.254 L 614.835 36.153 L 614.727 35.054 L 614.592 33.957 L 614.431 32.865 L 614.242 31.777 L 614.027 30.693 L 613.785 29.616 L 613.517 28.544 L 613.223 27.480 L 612.903 26.423 L 612.557 25.374 L 612.185 24.334 L 611.788 23.303 L 611.365 22.283 L 610.918 21.273 L 610.446 20.275 L 609.950 19.288 L 609.430 18.314 L 608.886 17.353 L 608.318 16.405 L 607.728 15.472 L 607.114 14.553 L 606.479 13.650 L 605.821 12.763 L 605.142 11.892 L 604.441 11.038 L 603.720 10.201 L 602.979 9.383 L 602.217 8.583 L 601.437 7.802 L 600.637 7.040 L 599.819 6.298 L 598.983 5.576 L 598.129 4.875 L 597.259 4.196 L 596.372 3.537 L 595.469 2.901 L 594.551 2.287 L 593.618 1.696 L 592.671 1.128 L 591.710 0.583 L 590.736 0.062 L 589.750 -0.434 L 588.752 -0.907 L 587.742 -1.355 L 586.722 -1.778 L 585.692 -2.176 L 584.652 -2.548 L 583.603 -2.895 L 582.546 -3.216 L 581.482 -3.510 L 580.411 -3.779 L 579.333 -4.021 L 578.250 -4.237 L 577.162 -4.426 L 576.070 -4.589 L 574.974 -4.724 L 573.874 -4.833 L 572.773 -4.914 L 571.670 -4.969 L 570.566 -4.996 L 569.461 -4.997 L 568.357 -4.970 L 567.254 -4.916 L 566.153 -4.835 L 565.054 -4.727 L 563.957 -4.592 L 562.865 -4.431 L 561.777 -4.242 L 560.693 -4.027 L 559.616 -3.785 L 558.544 -3.517 L 557.480 -3.223 L 556.423 -2.903 L 555.374 -2.557 L 554.334 -2.185 L 553.303 -1.788 L 552.283 -1.365 L 551.273 -0.918 L 550.275 -0.446 L 549.288 0.050 L 548.314 0.570 L 547.353 1.114 L 546.405 1.682 L 545.472 2.272 L 544.553 2.886 L 543.650 3.521 L 542.763 4.179 L 541.892 4.858 L 541.038 5.559 L 175.000 313.363 L 175.000 40.000 L 174.986 38.896 L 174.946 37.792 L 174.878 36.690 L 174.783 35.589 L 174.662 34.492 L 174.513 33.397 L 174.337 32.307 L 174.135 31.221 L 173.907 30.140 L 173.651 29.066 L 173.370 27.998 L 173.062 26.937 L 172.729 25.884 L 172.369 24.840 L 171.985 23.805 L 171.575 22.779 L 171.139 21.764 L 170.680 20.760 L 170.195 19.767 L 169.686 18.787 L 169.154 17.820 L 168.598 16.865 L 168.018 15.925 L 167.416 14.999 L 166.791 14.089 L 166.144 13.194 L 165.476 12.315 L 164.785 11.452 L 164.074 10.607 L 163.343 9.780 L 162.591 8.971 L 161.820 8.180 L 161.029 7.409 L 160.220 6.657 L 159.393 5.926 L 158.548 5.215 L 157.685 4.524 L 156.806 3.856 L 155.911 3.209 L 155.001 2.584 L 154.075 1.982 L 153.135 1.402 L 152.180 0.846 L 151.213 0.314 L 150.233 -0.195 L 149.240 -0.680 L 148.236 -1.139 L 147.221 -1.575 L 146.195 -1.985 L 145.160 -2.369 L 144.116 -2.729 L 143.063 -3.062 L 142.002 -3.370 L 140.934 -3.651 L 139.860 -3.907 L 138.779 -4.135 L 137.693 -4.337 L 136.603 -4.513 L 135.508 -4.662 L 134.411 -4.783 L 133.310 -4.878 L 132.208 -4.946 L 131.104 -4.986 L 130.000 -5.000 L 128.896 -4.986 L 127.792 -4.946 L 126.690 -4.878 L 125.589 -4.783 L 124.492 -4.662 L 123.397 -4.513 L 122.307 -4.337 L 121.221 -4.135 L 120.140 -3.907 L 119.066 -3.651 L 117.998 -3.370 L 116.937 -3.062 L 115.884 -2.729 L 114.840 -2.369 L 113.805 -1.985 L 112.779 -1.575 L 111.764 -1.139 L 110.760 -0.680 L 109.767 -0.195 L 108.787 0.314 L 107.820 0.846 L 106.865 1.402 L 105.925 1.982 L 104.999 2.584 L 104.089 3.209 L 103.194 3.856 L 102.315 4.524 L 101.452 5.215 L 100.607 5.926 L 99.780 6.657 L 98.971 7.409 L 98.180 8.180 L 97.409 8.971 L 96.657 9.780 L 95.926 10.607 L 95.215 11.452 L 94.524 12.315 L 93.856 13.194 L 93.209 14.089 L 92.584 14.999 L 91.982 15.925 L 91.402 16.865 L 90.846 17.820 L 90.314 18.787 L 89.805 19.767 L 89.320 20.760 L 88.861 21.764 L 88.425 22.779 L 88.015 23.805 L 87.631 24.840 L 87.271 25.884 L 86.938 26.937 L 86.630 27.998 L 86.349 29.066 L 86.093 30.140 L 85.865 31.221 L 85.663 32.307 L 85.487 33.397 L 85.338 34.492 L 85.217 35.589 L 85.122 36.690 L 85.054 37.792 L 85.014 38.896 L 85.000 40.000 L 85.000 780.000 L 85.014 781.104 L 85.054 782.208 L 85.122 783.310 L 85.217 784.411 L 85.338 785.508 L 85.487 786.603 L 85.663 787.693 L 85.865 788.779 L 86.093 789.860 L 86.349 790.934 L 86.630 792.002 L 86.938 793.063 L 87.271 794.116 L 87.631 795.160 L 88.015 796.195 L 88.425 797.221 L 88.861 798.236 L 89.320 799.240 L 89.805 800.233 L 90.314 801.213 L 90.846 802.180 L 91.402 803.135 L 91.982 804.075 L 92.584 805.001 L 93.209 805.911 L 93.856 806.806 L 94.524 807.685 L 95.215 808.548 L 95.926 809.393 L 96.657 810.220 L 97.409 811.029 L 98.180 811.820 L 98.971 812.591 L 99.780 813.343 L 100.607 814.074 L 101.452 814.785 L 102.315 815.476 L 103.194 816.144 L 104.089 816.791 L 104.999 817.416 L 105.925 818.018 L 106.865 818.598 L 107.820 819.154 L 108.787 819.686 L 109.767 820.195 L 110.760 820.680 L 111.764 821.139 L 112.779 821.575 L 113.805 821.985 L 114.840 822.369 L 115.884 822.729 L 116.937 823.062 L 117.998 823.370 L 119.066 823.651 L 120.140 823.907 L 121.221 824.135 L 122.307 824.337 L 123.397 824.513 L 124.492 824.662 L 125.589 824.783 L 126.690 824.878 L 127.792 824.946 L 128.896 824.986 L 130.000 825.000 L 131.104 824.986 L 132.208 824.946 L 133.310 824.878 L 134.411 824.783 L 135.508 824.662 L 136.603 824.513 L 137.693 824.337 L 138.779 824.135 L 139.860 823.907 L 140.934 823.651 L 142.002 823.370 L 143.063 823.062 L 144.116 822.729 L 145.160 822.369 L 146.195 821.985 L 147.221 821.575 L 148.236 821.139 L 149.240 820.680 L 150.233 820.195 L 151.213 819.686 L 152.180 819.154 L 153.135 818.598 L 154.075 818.018 L 155.001 817.416 L 155.911 816.791 L 156.806 816.144 L 157.685 815.476 L 158.548 814.785 L 159.393 814.074 L 160.220 813.343 L 161.029 812.591 L 161.820 811.820 L 162.591 811.029 L 163.343 810.220 L 164.074 809.393 L 164.785 808.548 L 165.476 807.685 L 166.144 806.806 L 166.791 805.911 L 167.416 805.001 L 168.018 804.075 L 168.598 803.135 L 169.154 802.180 L 169.686 801.213 L 170.195 800.233 L 170.680 799.240 L 171.139 798.236 L 171.575 797.221 L 171.985 796.195 L 172.369 795.160 L 172.729 794.116 L 173.062 793.063 L 173.370 792.002 L 173.651 790.934 L 173.907 789.860 L 174.135 788.779 L 174.337 787.693 L 174.513 786.603 L 174.662 785.508 L 174.783 784.411 L 174.878 783.310 L 174.946 782.208 L 174.986 781.104 L 175.000 780.000 L 175.000 506.637 L 541.038 814.441 L 541.892 815.142 L 542.763 815.821 L 543.650 816.479 L 544.553 817.114 L 545.472 817.728 L 546.405 818.318 L 547.353 818.886 L 548.314 819.430 L 549.288 819.950 L 550.275 820.446 L 551.273 820.918 L 552.283 821.365 L 553.303 821.788 L 554.334 822.185 L 555.374 822.557 L 556.423 822.903 L 557.480 823.223 L 558.544 823.517 L 559.616 823.785 L 560.693 824.027 L 561.777 824.242 L 562.865 824.431 L 563.957 824.592 L 565.054 824.727 L 566.153 824.835 L 567.254 824.916 L 568.357 824.970 L 569.461 824.997 L 570.566 824.996 L 571.670 824.969 L 572.773 824.914 L 573.874 824.833 L 574.974 824.724 L 576.070 824.589 L 577.162 824.426 L 578.250 824.237 L 579.333 824.021 L 580.411 823.779 L 581.482 823.510 L 582.546 823.216 L 583.603 822.895 L 584.652 822.548 L 585.692 822.176 L 586.722 821.778 L 587.742 821.355 L 588.752 820.907 L 589.750 820.434 L 590.736 819.938 L 591.710 819.417 L 592.671 818.872 L 593.618 818.304 L 594.551 817.713 L 595.469 817.099 L 596.372 816.463 L 597.259 815.804 L 598.129 815.125 L 598.983 814.424 L 599.819 813.702 L 600.637 812.960 L 601.437 812.198 L 602.217 811.417 L 602.979 810.617 L 603.720 809.799 L 604.441 808.962 L 605.142 808.108 L 605.821 807.237 L 606.479 806.350 L 607.114 805.447 L 607.728 804.528 L 608.318 803.595 L 608.886 802.647 L 609.430 801.686 L 609.950 800.712 L 610.446 799.725 L 610.918 798.727 L 611.365 797.717 L 611.788 796.697 L 612.185 795.666 L 612.557 794.626 L 612.903 793.577 L 613.223 792.520 L 613.517 791.456 L 613.785 790.384 L 614.027 789.307 L 614.242 788.223 L 614.431 787.135 L 614.592 786.043 L 614.727 784.946 L 614.835 783.847 L 614.916 782.746 L 614.970 781.643 L 614.997 780.539 L 614.996 779.434 L 614.969 778.330 L 614.914 777.227 L 614.833 776.126 L 614.724 775.026 L 614.589 773.930 L 614.426 772.838 L 614.237 771.750 L 614.021 770.667 L 613.779 769.589 L 613.510 768.518 L 613.216 767.454 L 612.895 766.397 L 612.548 765.348 L 612.176 764.308 L 611.778 763.278 L 611.355 762.258 L 610.907 761.248 L 610.434 760.250 L 609.938 759.264 L 609.417 758.290 L 608.872 757.329 L 608.304 756.382 L 607.713 755.449 L 607.099 754.531 L 606.463 753.628 L 605.804 752.741 L 605.125 751.871 L 604.424 751.017 L 603.702 750.181 L 602.960 749.363 L 602.198 748.563 L 601.417 747.783 L 600.617 747.021 L 599.799 746.280 L 598.962 745.559 L 199.919 410.000 L 598.962 74.441 L 599.799 73.720 Z" fill="black" fill-rule="evenodd"/>
</svg>
