<svg xmlns="http://www.w3.org/2000/svg" viewBox="0 0 700.000 1000" width="700.000" height="1000">
  <path d="M 557.658 581.172 L 558.669 581.616 L 559.691 582.035 L 560.723 582.429 L 561.764 582.798 L 562.814 583.141 L 563.872 583.458 L 564.937 583.749 L 566.009 584.014 L 567.088 584.252 L 568.172 584.464 L 569.261 584.649 L 570.354 584.807 L 571.450 584.939 L 572.550 585.043 L 573.651 585.121 L 574.755 585.172 L 575.859 585.195 L 576.963 585.191 L 578.067 585.160 L 579.170 585.103 L 580.271 585.018 L 581.370 584.906 L 582.466 584.767 L 583.558 584.601 L 584.645 584.409 L 585.728 584.190 L 586.805 583.944 L 587.875 583.672 L 588.938 583.374 L 589.994 583.050 L 591.042 582.700 L 592.080 582.324 L 593.109 581.923 L 594.128 581.497 L 595.137 581.046 L 596.133 580.571 L 597.118 580.071 L 598.091 579.547 L 599.050 579.000 L 599.995 578.429 L 600.926 577.835 L 601.842 577.218 L 602.743 576.579 L 603.628 575.918 L 604.497 575.236 L 605.348 574.532 L 606.182 573.808 L 606.998 573.064 L 607.795 572.299 L 608.573 571.516 L 609.332 570.713 L 610.071 569.893 L 610.790 569.054 L 611.488 568.198 L 612.164 567.325 L 612.819 566.436 L 613.452 565.530 L 614.063 564.610 L 614.650 563.675 L 615.215 562.726 L 615.756 561.763 L 616.273 560.787 L 616.767 559.799 L 617.236 558.799 L 617.680 557.788 L 618.099 556.766 L 618.493 555.734 L 618.862 554.693 L 619.205 553.644 L 619.522 552.586 L 619.813 551.520 L 620.077 550.448 L 620.316 549.370 L 620.528 548.286 L 621.346 543.805 L 621.411 543.443 L 622.195 538.944 L 622.256 538.584 L 623.006 534.067 L 623.064 533.708 L 623.779 529.174 L 623.834 528.817 L 624.514 524.266 L 624.566 523.910 L 625.211 519.344 L 625.260 518.989 L 625.870 514.409 L 625.915 514.055 L 626.490 509.461 L 626.533 509.108 L 627.072 504.501 L 627.112 504.149 L 627.616 499.530 L 627.653 499.179 L 628.122 494.548 L 628.156 494.198 L 628.589 489.557 L 628.620 489.207 L 629.017 484.557 L 629.045 484.208 L 629.407 479.549 L 629.433 479.201 L 629.758 474.533 L 629.781 474.186 L 630.071 469.511 L 630.091 469.164 L 630.345 464.483 L 630.363 464.137 L 630.581 459.451 L 630.595 459.104 L 630.777 454.413 L 630.789 454.067 L 630.935 449.373 L 630.945 449.027 L 631.055 444.329 L 631.062 443.984 L 631.135 439.284 L 631.139 438.938 L 631.177 434.238 L 631.179 433.892 L 631.180 429.191 L 631.179 428.845 L 631.145 424.144 L 631.141 423.799 L 631.070 419.099 L 631.064 418.753 L 630.957 414.056 L 630.948 413.710 L 630.805 409.015 L 630.793 408.669 L 630.615 403.978 L 630.600 403.631 L 630.385 398.945 L 630.368 398.598 L 630.118 393.917 L 630.098 393.570 L 629.811 388.895 L 629.788 388.547 L 629.466 383.879 L 629.440 383.531 L 629.082 378.871 L 629.054 378.522 L 628.660 373.871 L 628.629 373.521 L 628.199 368.879 L 628.166 368.529 L 627.700 363.898 L 627.664 363.547 L 627.163 358.927 L 627.123 358.575 L 626.587 353.967 L 626.545 353.614 L 625.973 349.018 L 625.928 348.664 L 625.321 344.083 L 625.272 343.728 L 624.631 339.161 L 624.579 338.805 L 623.902 334.253 L 623.848 333.896 L 623.136 329.360 L 623.078 329.001 L 622.331 324.483 L 622.271 324.123 L 621.489 319.622 L 621.425 319.260 L 620.610 314.778 L 620.542 314.415 L 619.692 309.952 L 619.621 309.588 L 618.737 305.145 L 618.663 304.779 L 617.744 300.357 L 617.666 299.989 L 616.714 295.589 L 616.633 295.220 L 615.647 290.842 L 615.562 290.471 L 614.543 286.116 L 614.454 285.743 L 613.401 281.412 L 613.308 281.038 L 612.223 276.732 L 612.126 276.355 L 611.007 272.075 L 610.906 271.697 L 609.755 267.442 L 609.650 267.062 L 608.466 262.835 L 608.357 262.452 L 607.141 258.253 L 607.027 257.868 L 605.779 253.697 L 605.661 253.310 L 604.380 249.169 L 604.258 248.779 L 602.946 244.668 L 602.819 244.276 L 601.475 240.196 L 601.343 239.802 L 599.969 235.753 L 599.832 235.356 L 598.426 231.339 L 598.284 230.940 L 596.848 226.956 L 596.701 226.554 L 595.234 222.604 L 595.081 222.200 L 593.584 218.284 L 593.426 217.877 L 591.899 213.996 L 591.735 213.586 L 590.179 209.741 L 590.009 209.328 L 588.423 205.520 L 588.248 205.104 L 586.632 201.333 L 586.451 200.914 L 584.807 197.181 L 584.618 196.759 L 582.946 193.064 L 582.751 192.640 L 581.050 188.984 L 580.849 188.556 L 579.120 184.940 L 578.912 184.510 L 577.155 180.934 L 576.940 180.500 L 575.156 176.966 L 574.933 176.529 L 573.122 173.036 L 572.891 172.597 L 571.054 169.146 L 570.815 168.703 L 568.952 165.295 L 568.705 164.850 L 566.815 161.485 L 566.560 161.036 L 564.645 157.716 L 564.381 157.264 L 562.440 153.989 L 562.167 153.534 L 560.202 150.304 L 559.919 149.846 L 557.929 146.661 L 557.637 146.201 L 555.623 143.063 L 555.321 142.599 L 553.283 139.508 L 552.971 139.042 L 550.909 135.998 L 550.587 135.529 L 548.502 132.533 L 548.169 132.062 L 546.061 129.115 L 545.717 128.640 L 543.587 125.743 L 543.232 125.266 L 541.079 122.418 L 540.712 121.939 L 538.538 119.141 L 538.159 118.659 L 535.963 115.912 L 535.572 115.429 L 533.355 112.733 L 532.951 112.247 L 530.714 109.603 L 530.296 109.116 L 528.040 106.524 L 527.608 106.036 L 525.332 103.496 L 524.887 103.007 L 522.591 100.520 L 522.131 100.030 L 519.817 97.596 L 519.343 97.105 L 517.010 94.726 L 516.521 94.235 L 514.169 91.910 L 513.665 91.419 L 511.296 89.148 L 510.776 88.658 L 508.390 86.443 L 507.854 85.953 L 505.451 83.793 L 504.899 83.305 L 502.480 81.201 L 501.911 80.715 L 499.476 78.667 L 498.890 78.183 L 496.439 76.192 L 495.836 75.711 L 493.370 73.777 L 492.749 73.298 L 490.269 71.422 L 489.631 70.948 L 487.136 69.129 L 486.480 68.659 L 483.971 66.898 L 483.297 66.434 L 480.775 64.731 L 480.082 64.273 L 477.548 62.629 L 476.837 62.177 L 474.290 60.592 L 473.560 60.147 L 471.001 58.622 L 470.253 58.185 L 467.683 56.719 L 466.916 56.291 L 464.335 54.885 L 463.550 54.467 L 460.958 53.120 L 460.154 52.713 L 457.552 51.426 L 456.731 51.031 L 454.119 49.805 L 453.280 49.421 L 450.659 48.256 L 449.802 47.885 L 447.173 46.781 L 446.299 46.424 L 443.661 45.381 L 442.770 45.040 L 440.124 44.057 L 439.217 43.732 L 436.565 42.811 L 435.642 42.502 L 432.982 41.643 L 432.045 41.351 L 429.379 40.554 L 428.427 40.281 L 425.755 39.545 L 424.790 39.291 L 422.112 38.618 L 421.135 38.383 L 418.452 37.772 L 417.463 37.558 L 414.776 37.009 L 413.776 36.817 L 411.085 36.330 L 410.076 36.159 L 407.382 35.735 L 406.363 35.586 L 403.666 35.225 L 402.641 35.099 L 399.941 34.800 L 398.910 34.698 L 396.208 34.461 L 395.171 34.382 L 392.468 34.208 L 391.428 34.154 L 388.723 34.042 L 387.681 34.012 L 384.976 33.963 L 383.933 33.957 L 381.227 33.971 L 380.184 33.988 L 377.480 34.065 L 376.438 34.107 L 373.734 34.247 L 372.695 34.312 L 369.993 34.515 L 368.958 34.604 L 366.257 34.869 L 365.229 34.982 L 362.530 35.310 L 361.508 35.446 L 358.812 35.836 L 357.797 35.995 L 355.105 36.447 L 354.099 36.628 L 351.410 37.143 L 350.415 37.346 L 347.730 37.923 L 346.746 38.146 L 344.066 38.786 L 343.094 39.029 L 340.419 39.731 L 339.459 39.994 L 336.790 40.757 L 335.845 41.039 L 333.182 41.865 L 332.251 42.164 L 329.594 43.051 L 328.678 43.368 L 326.029 44.317 L 325.129 44.650 L 322.487 45.660 L 321.604 46.008 L 318.970 47.079 L 318.103 47.442 L 315.478 48.574 L 314.629 48.951 L 312.012 50.144 L 311.181 50.533 L 308.574 51.786 L 307.760 52.187 L 305.163 53.501 L 304.368 53.913 L 301.781 55.287 L 301.004 55.710 L 298.428 57.144 L 297.669 57.575 L 295.104 59.069 L 294.364 59.509 L 291.811 61.062 L 291.090 61.510 L 288.548 63.121 L 287.845 63.576 L 285.317 65.247 L 284.632 65.708 L 282.117 67.438 L 281.450 67.904 L 278.948 69.692 L 278.300 70.163 L 275.812 72.009 L 275.181 72.485 L 272.708 74.387 L 272.095 74.867 L 269.636 76.827 L 269.041 77.310 L 266.597 79.326 L 266.019 79.812 L 263.591 81.885 L 263.029 82.372 L 260.618 84.502 L 260.073 84.991 L 257.677 87.176 L 257.149 87.666 L 254.770 89.906 L 254.258 90.397 L 251.897 92.692 L 251.400 93.183 L 249.056 95.533 L 248.574 96.024 L 246.249 98.428 L 245.782 98.919 L 243.476 101.376 L 243.023 101.866 L 240.736 104.377 L 240.297 104.866 L 238.030 107.430 L 237.605 107.917 L 235.357 110.533 L 234.945 111.019 L 232.718 113.687 L 232.319 114.172 L 230.112 116.891 L 229.726 117.374 L 227.541 120.144 L 227.167 120.624 L 225.003 123.445 L 224.641 123.923 L 222.498 126.794 L 222.148 127.270 L 220.028 130.190 L 219.689 130.663 L 217.591 133.632 L 217.263 134.103 L 215.189 137.120 L 214.871 137.588 L 212.820 140.653 L 212.513 141.118 L 210.486 144.231 L 210.189 144.693 L 208.185 147.852 L 207.898 148.312 L 205.919 151.517 L 205.641 151.973 L 203.686 155.224 L 203.418 155.678 L 201.488 158.974 L 201.228 159.424 L 199.325 162.765 L 199.073 163.212 L 197.196 166.596 L 196.952 167.040 L 195.101 170.468 L 194.866 170.909 L 193.040 174.379 L 192.813 174.817 L 191.015 178.330 L 190.795 178.765 L 189.024 182.318 L 188.811 182.750 L 187.067 186.345 L 186.862 186.773 L 185.146 190.408 L 184.948 190.834 L 183.260 194.508 L 183.068 194.931 L 181.408 198.644 L 181.223 199.064 L 179.592 202.814 L 179.413 203.232 L 177.811 207.020 L 177.639 207.434 L 176.066 211.259 L 175.899 211.671 L 174.356 215.532 L 174.195 215.941 L 172.681 219.838 L 172.526 220.244 L 171.042 224.175 L 170.892 224.578 L 169.439 228.544 L 169.294 228.945 L 167.872 232.943 L 167.732 233.342 L 166.341 237.373 L 166.206 237.769 L 164.845 241.832 L 164.716 242.225 L 163.386 246.320 L 163.262 246.710 L 161.964 250.835 L 161.844 251.224 L 160.578 255.379 L 160.462 255.765 L 159.228 259.948 L 159.116 260.332 L 157.915 264.544 L 157.808 264.926 L 156.638 269.165 L 156.535 269.545 L 155.399 273.811 L 155.300 274.189 L 154.196 278.481 L 154.101 278.857 L 153.030 283.174 L 152.939 283.548 L 151.902 287.889 L 151.815 288.261 L 150.811 292.627 L 150.727 292.997 L 149.757 297.385 L 149.677 297.753 L 148.740 302.164 L 148.664 302.531 L 147.761 306.962 L 147.688 307.327 L 146.820 311.780 L 146.750 312.143 L 145.916 316.615 L 145.850 316.977 L 145.050 321.469 L 144.987 321.829 L 144.222 326.338 L 144.162 326.698 L 143.431 331.224 L 143.375 331.582 L 142.679 336.125 L 142.626 336.482 L 141.965 341.041 L 141.915 341.396 L 141.289 345.970 L 141.242 346.325 L 140.651 350.913 L 140.607 351.266 L 140.052 355.867 L 140.010 356.220 L 139.490 360.833 L 139.452 361.185 L 138.967 365.810 L 138.932 366.161 L 138.483 370.797 L 138.450 371.147 L 138.037 375.793 L 138.007 376.142 L 137.630 380.798 L 137.603 381.146 L 137.261 385.810 L 137.236 386.158 L 136.930 390.829 L 136.909 391.177 L 136.639 395.854 L 136.620 396.201 L 136.386 400.885 L 136.370 401.232 L 136.171 405.921 L 136.158 406.267 L 135.996 410.960 L 135.985 411.306 L 135.859 416.002 L 135.851 416.348 L 135.760 421.046 L 135.755 421.392 L 135.701 426.092 L 135.702 427.192 L 135.714 427.675 L 135.682 430.864 L 135.682 431.760 L 135.738 437.339 L 135.756 438.234 L 135.922 443.810 L 135.958 444.705 L 136.235 450.274 L 136.289 451.170 L 136.677 456.728 L 136.748 457.624 L 137.247 463.169 L 137.337 464.065 L 137.945 469.594 L 138.053 470.489 L 138.772 475.998 L 138.898 476.894 L 139.726 482.379 L 139.870 483.274 L 140.807 488.733 L 140.970 489.629 L 142.016 495.057 L 142.198 495.953 L 143.350 501.348 L 143.551 502.243 L 144.811 507.602 L 145.032 508.497 L 146.398 513.816 L 146.638 514.711 L 148.109 519.987 L 148.369 520.882 L 149.945 526.112 L 150.225 527.006 L 151.905 532.186 L 152.205 533.080 L 153.987 538.208 L 154.308 539.101 L 156.192 544.174 L 156.534 545.066 L 158.518 550.080 L 158.882 550.971 L 160.965 555.923 L 161.351 556.812 L 163.532 561.700 L 163.940 562.588 L 166.217 567.408 L 166.648 568.294 L 169.021 573.044 L 169.475 573.927 L 171.941 578.604 L 172.419 579.484 L 174.978 584.085 L 175.479 584.962 L 178.129 589.484 L 178.654 590.358 L 181.393 594.798 L 181.944 595.667 L 184.770 600.023 L 185.346 600.888 L 188.258 605.157 L 188.859 606.017 L 191.856 610.196 L 192.483 611.050 L 195.562 615.138 L 196.216 615.984 L 199.375 619.978 L 200.056 620.817 L 203.294 624.713 L 204.001 625.545 L 207.316 629.342 L 208.051 630.164 L 211.440 633.860 L 212.203 634.672 L 215.665 638.264 L 216.456 639.065 L 219.988 642.551 L 220.808 643.340 L 224.408 646.718 L 225.256 647.494 L 228.923 650.763 L 229.799 651.524 L 233.530 654.681 L 234.435 655.427 L 238.227 658.469 L 239.161 659.199 L 243.013 662.126 L 243.976 662.837 L 247.884 665.647 L 248.875 666.339 L 252.838 669.030 L 253.858 669.701 L 257.873 672.271 L 258.920 672.921 L 262.985 675.368 L 264.060 675.995 L 268.173 678.318 L 269.273 678.920 L 273.431 681.118 L 274.558 681.694 L 278.759 683.765 L 279.911 684.314 L 284.151 686.258 L 285.328 686.777 L 289.606 688.592 L 290.806 689.081 L 295.118 690.766 L 296.340 691.223 L 300.685 692.777 L 301.928 693.201 L 306.302 694.623 L 307.565 695.013 L 311.966 696.302 L 313.247 696.657 L 317.673 697.812 L 318.970 698.130 L 323.417 699.152 L 324.729 699.432 L 329.195 700.319 L 330.520 700.561 L 335.003 701.312 L 336.339 701.515 L 340.835 702.130 L 342.181 702.294 L 346.688 702.772 L 348.041 702.895 L 352.556 703.238 L 353.914 703.320 L 358.434 703.525 L 359.796 703.566 L 364.319 703.635 L 365.681 703.635 L 370.204 703.566 L 371.566 703.525 L 376.086 703.320 L 377.444 703.238 L 381.959 702.895 L 383.312 702.772 L 387.819 702.294 L 389.165 702.130 L 393.661 701.515 L 394.997 701.312 L 399.480 700.561 L 400.805 700.319 L 405.271 699.432 L 406.583 699.152 L 411.030 698.130 L 412.327 697.812 L 416.753 696.657 L 418.034 696.302 L 422.435 695.013 L 423.698 694.623 L 428.072 693.201 L 429.315 692.777 L 433.660 691.223 L 434.882 690.766 L 439.194 689.081 L 440.394 688.592 L 444.672 686.777 L 445.849 686.258 L 450.089 684.314 L 451.241 683.765 L 455.442 681.694 L 456.569 681.118 L 460.727 678.920 L 461.827 678.318 L 465.940 675.995 L 467.015 675.368 L 471.080 672.921 L 472.127 672.271 L 476.142 669.701 L 477.162 669.030 L 481.125 666.339 L 482.116 665.647 L 486.024 662.837 L 486.987 662.126 L 490.839 659.199 L 491.773 658.469 L 495.565 655.427 L 496.470 654.681 L 500.201 651.524 L 501.077 650.763 L 504.744 647.494 L 505.592 646.718 L 509.192 643.340 L 510.012 642.551 L 513.544 639.065 L 514.335 638.264 L 517.797 634.672 L 518.560 633.860 L 521.949 630.164 L 522.684 629.342 L 525.999 625.545 L 526.706 624.713 L 529.944 620.817 L 530.625 619.978 L 533.784 615.984 L 534.438 615.138 L 537.517 611.050 L 538.144 610.196 L 541.141 606.017 L 541.742 605.157 L 544.654 600.888 L 545.230 600.023 L 548.056 595.667 L 548.607 594.798 L 551.346 590.358 L 551.871 589.484 L 554.521 584.962 L 555.022 584.085 L 556.853 580.794 L 557.658 581.172 Z M 230.272 475.384 L 231.351 475.147 L 232.424 474.885 L 233.490 474.596 L 234.548 474.280 L 235.599 473.939 L 236.641 473.573 L 237.673 473.181 L 238.696 472.763 L 239.708 472.321 L 240.708 471.854 L 241.698 471.362 L 242.674 470.847 L 243.638 470.307 L 244.588 469.744 L 245.524 469.158 L 246.446 468.550 L 247.352 467.918 L 248.243 467.265 L 249.117 466.590 L 249.974 465.894 L 250.814 465.177 L 251.636 464.439 L 252.440 463.682 L 253.225 462.905 L 253.991 462.109 L 254.737 461.295 L 255.462 460.462 L 256.167 459.612 L 256.851 458.745 L 257.514 457.861 L 258.154 456.961 L 258.773 456.046 L 259.368 455.116 L 259.941 454.172 L 260.490 453.214 L 261.016 452.242 L 261.518 451.258 L 261.995 450.263 L 262.448 449.255 L 262.876 448.237 L 263.279 447.209 L 263.656 446.171 L 264.008 445.124 L 264.334 444.069 L 264.634 443.006 L 264.908 441.936 L 265.156 440.859 L 265.377 439.777 L 265.571 438.690 L 265.739 437.598 L 265.880 436.503 L 265.994 435.405 L 266.080 434.304 L 266.140 433.201 L 266.173 432.097 L 266.179 430.992 L 266.157 429.888 L 266.109 428.785 L 266.033 427.683 L 265.931 426.583 L 265.801 425.486 L 265.645 424.393 L 265.462 423.304 L 265.252 422.220 L 265.015 421.141 L 264.753 420.068 L 264.464 419.002 L 264.148 417.944 L 263.807 416.893 L 263.441 415.851 L 263.049 414.819 L 262.631 413.796 L 262.189 412.784 L 261.722 411.784 L 261.230 410.794 L 260.715 409.818 L 260.175 408.854 L 259.612 407.904 L 259.026 406.968 L 258.418 406.046 L 257.786 405.140 L 257.133 404.249 L 256.458 403.375 L 255.762 402.518 L 255.045 401.678 L 254.307 400.856 L 253.550 400.052 L 252.773 399.267 L 251.977 398.501 L 251.163 397.755 L 250.330 397.030 L 249.480 396.325 L 248.613 395.641 L 247.729 394.978 L 246.829 394.338 L 245.914 393.719 L 244.984 393.124 L 244.040 392.551 L 243.082 392.002 L 242.110 391.476 L 241.126 390.974 L 240.131 390.497 L 239.123 390.044 L 238.105 389.616 L 237.077 389.213 L 236.039 388.836 L 234.992 388.484 L 233.937 388.158 L 232.874 387.858 L 231.804 387.584 L 230.727 387.336 L 229.895 387.166 L 230.306 385.033 L 231.267 380.534 L 232.317 376.071 L 233.453 371.648 L 234.675 367.267 L 235.981 362.932 L 237.371 358.646 L 238.843 354.411 L 240.395 350.231 L 242.027 346.109 L 243.735 342.046 L 245.520 338.047 L 247.379 334.114 L 249.310 330.248 L 251.312 326.453 L 253.382 322.732 L 255.519 319.086 L 257.720 315.517 L 259.984 312.028 L 262.309 308.622 L 264.691 305.298 L 267.130 302.061 L 269.622 298.911 L 272.165 295.850 L 274.758 292.879 L 277.398 290.001 L 280.082 287.215 L 282.808 284.524 L 285.574 281.929 L 288.378 279.429 L 291.217 277.027 L 294.089 274.723 L 296.992 272.517 L 299.923 270.409 L 302.881 268.402 L 305.863 266.493 L 308.868 264.685 L 311.893 262.976 L 314.937 261.366 L 317.997 259.857 L 321.073 258.447 L 324.162 257.136 L 327.264 255.924 L 330.376 254.811 L 333.497 253.797 L 336.627 252.880 L 339.763 252.061 L 342.906 251.339 L 346.053 250.715 L 349.205 250.187 L 352.360 249.755 L 355.518 249.420 L 358.677 249.181 L 361.838 249.037 L 365.000 248.989 L 368.162 249.037 L 371.323 249.181 L 374.482 249.420 L 377.640 249.755 L 380.795 250.187 L 383.947 250.715 L 387.094 251.339 L 390.237 252.061 L 393.373 252.880 L 396.503 253.797 L 399.624 254.811 L 402.736 255.924 L 405.838 257.136 L 408.927 258.447 L 412.003 259.857 L 415.063 261.366 L 418.107 262.976 L 421.132 264.685 L 424.137 266.493 L 427.119 268.402 L 430.077 270.409 L 433.008 272.517 L 435.911 274.723 L 438.783 277.027 L 441.622 279.429 L 444.426 281.929 L 447.192 284.524 L 449.918 287.215 L 452.602 290.001 L 455.242 292.879 L 457.835 295.850 L 460.378 298.911 L 462.870 302.061 L 465.309 305.298 L 467.691 308.622 L 470.016 312.028 L 472.280 315.517 L 474.481 319.086 L 476.618 322.732 L 478.688 326.453 L 480.690 330.248 L 482.621 334.114 L 484.480 338.047 L 486.265 342.046 L 487.973 346.109 L 489.605 350.231 L 491.157 354.411 L 492.629 358.646 L 494.019 362.932 L 495.325 367.267 L 496.547 371.648 L 497.683 376.071 L 498.733 380.534 L 499.694 385.033 L 500.567 389.566 L 501.350 394.128 L 502.043 398.717 L 502.645 403.330 L 503.155 407.963 L 503.573 412.613 L 503.899 417.276 L 504.131 421.949 L 504.271 426.629 L 504.318 431.312 L 504.271 435.995 L 504.131 440.675 L 503.899 445.348 L 503.573 450.011 L 503.155 454.661 L 502.645 459.294 L 502.043 463.907 L 501.350 468.496 L 500.567 473.058 L 499.694 477.591 L 498.733 482.090 L 497.683 486.553 L 496.547 490.976 L 495.325 495.357 L 494.019 499.692 L 492.629 503.978 L 491.157 508.213 L 489.605 512.393 L 487.973 516.515 L 486.265 520.578 L 484.480 524.577 L 482.621 528.510 L 480.690 532.376 L 478.688 536.171 L 476.618 539.892 L 474.481 543.538 L 472.280 547.107 L 470.016 550.596 L 467.691 554.002 L 465.309 557.326 L 462.870 560.563 L 460.378 563.713 L 457.835 566.774 L 455.242 569.745 L 452.602 572.623 L 449.918 575.409 L 447.192 578.100 L 444.426 580.695 L 441.622 583.195 L 438.783 585.597 L 435.911 587.901 L 433.008 590.107 L 430.077 592.215 L 427.119 594.222 L 424.137 596.131 L 421.132 597.939 L 418.107 599.648 L 415.063 601.258 L 412.003 602.767 L 408.927 604.177 L 405.838 605.488 L 402.736 606.700 L 399.624 607.813 L 396.503 608.827 L 393.373 609.744 L 390.237 610.563 L 387.094 611.285 L 383.947 611.909 L 380.795 612.437 L 377.640 612.869 L 374.482 613.204 L 371.323 613.443 L 368.162 613.587 L 365.000 613.635 L 361.838 613.587 L 358.677 613.443 L 355.518 613.204 L 352.360 612.869 L 349.205 612.437 L 346.053 611.909 L 342.906 611.285 L 339.763 610.563 L 336.627 609.744 L 333.497 608.827 L 330.376 607.813 L 327.264 606.700 L 324.162 605.488 L 321.073 604.177 L 317.997 602.767 L 314.937 601.258 L 311.893 599.648 L 308.868 597.939 L 305.863 596.131 L 302.881 594.222 L 299.923 592.215 L 296.992 590.107 L 294.089 587.901 L 291.217 585.597 L 288.378 583.195 L 285.574 580.695 L 282.808 578.100 L 280.082 575.409 L 277.398 572.623 L 274.758 569.745 L 272.165 566.774 L 269.622 563.713 L 267.130 560.563 L 264.691 557.326 L 262.309 554.002 L 259.984 550.596 L 257.720 547.107 L 255.519 543.538 L 253.382 539.892 L 251.312 536.171 L 249.310 532.376 L 247.379 528.510 L 245.520 524.577 L 243.735 520.578 L 242.027 516.515 L 240.395 512.393 L 238.843 508.213 L 237.371 503.978 L 235.981 499.692 L 234.675 495.357 L 233.453 490.976 L 232.317 486.553 L 231.267 482.090 L 230.306 477.591 L 229.895 475.457 L 230.272 475.384 Z M 305.658 166.814 L 307.493 164.739 L 309.335 162.717 L 311.181 160.750 L 313.031 158.837 L 314.884 156.978 L 316.740 155.174 L 318.598 153.424 L 320.456 151.728 L 322.315 150.087 L 324.173 148.501 L 326.030 146.968 L 327.885 145.490 L 329.738 144.065 L 331.587 142.694 L 333.432 141.376 L 335.272 140.111 L 337.107 138.899 L 338.936 137.739 L 340.759 136.630 L 342.575 135.573 L 344.384 134.566 L 346.185 133.610 L 347.978 132.703 L 349.763 131.845 L 351.540 131.035 L 353.308 130.272 L 355.067 129.557 L 356.817 128.888 L 358.559 128.264 L 360.293 127.685 L 362.018 127.151 L 363.734 126.660 L 365.444 126.211 L 367.145 125.805 L 368.840 125.441 L 370.529 125.117 L 372.211 124.835 L 373.889 124.592 L 375.562 124.389 L 377.231 124.225 L 378.897 124.100 L 380.561 124.014 L 382.223 123.967 L 383.885 123.958 L 385.547 123.988 L 387.210 124.056 L 388.876 124.163 L 390.543 124.309 L 392.214 124.495 L 393.890 124.719 L 395.570 124.984 L 397.256 125.289 L 398.947 125.634 L 400.646 126.022 L 402.352 126.451 L 404.065 126.922 L 405.786 127.437 L 407.516 127.996 L 409.254 128.599 L 411.000 129.247 L 412.756 129.942 L 414.520 130.682 L 416.292 131.471 L 418.074 132.307 L 419.863 133.192 L 421.661 134.125 L 423.466 135.109 L 425.279 136.143 L 427.099 137.229 L 428.925 138.365 L 430.757 139.554 L 432.595 140.795 L 434.438 142.088 L 436.285 143.435 L 438.136 144.836 L 439.990 146.290 L 441.846 147.797 L 443.704 149.360 L 445.563 150.976 L 447.421 152.647 L 449.280 154.372 L 451.136 156.151 L 452.991 157.985 L 454.843 159.874 L 456.691 161.816 L 458.534 163.813 L 460.373 165.864 L 462.205 167.969 L 464.031 170.127 L 465.849 172.339 L 467.658 174.604 L 469.459 176.922 L 471.250 179.291 L 473.031 181.713 L 474.800 184.187 L 476.558 186.712 L 478.303 189.288 L 480.034 191.914 L 481.752 194.590 L 483.455 197.315 L 484.131 198.426 L 482.116 196.977 L 481.125 196.285 L 477.162 193.594 L 476.142 192.923 L 472.127 190.353 L 471.080 189.703 L 467.015 187.256 L 465.940 186.629 L 461.827 184.306 L 460.727 183.704 L 456.569 181.506 L 455.442 180.930 L 451.241 178.859 L 450.089 178.310 L 445.849 176.366 L 444.672 175.847 L 440.394 174.032 L 439.194 173.543 L 434.882 171.858 L 433.660 171.401 L 429.315 169.847 L 428.072 169.423 L 423.698 168.001 L 422.435 167.611 L 418.034 166.322 L 416.753 165.967 L 412.327 164.812 L 411.030 164.494 L 406.583 163.472 L 405.271 163.192 L 400.805 162.305 L 399.480 162.063 L 394.997 161.312 L 393.661 161.109 L 389.165 160.494 L 387.819 160.330 L 383.312 159.852 L 381.959 159.729 L 377.444 159.386 L 376.086 159.304 L 371.566 159.099 L 370.204 159.058 L 365.681 158.989 L 364.319 158.989 L 359.796 159.058 L 358.434 159.099 L 353.914 159.304 L 352.556 159.386 L 348.041 159.729 L 346.688 159.852 L 342.181 160.330 L 340.835 160.494 L 336.339 161.109 L 335.003 161.312 L 330.520 162.063 L 329.195 162.305 L 324.729 163.192 L 323.417 163.472 L 318.970 164.494 L 317.673 164.812 L 313.247 165.967 L 311.966 166.322 L 307.565 167.611 L 306.302 168.001 L 303.993 168.752 L 305.658 166.814 Z" fill="black" fill-rule="evenodd"/>
</svg>
