<svg xmlns="http://www.w3.org/2000/svg" viewBox="0 0 700.000 1000" width="700.000" height="1000">
  <path d="M 203.040 201.656 L 203.087 200.492 L 203.154 199.328 L 203.240 198.164 L 203.346 197.000 L 203.470 195.835 L 203.614 194.670 L 203.777 193.505 L 203.960 192.339 L 204.162 191.173 L 204.384 190.006 L 204.625 188.840 L 204.886 187.673 L 205.167 186.505 L 205.468 185.337 L 205.789 184.169 L 206.131 183.001 L 206.492 181.832 L 206.874 180.664 L 207.276 179.495 L 207.699 178.326 L 208.143 177.158 L 208.608 175.989 L 209.093 174.821 L 209.600 173.654 L 210.128 172.487 L 210.677 171.320 L 211.247 170.155 L 211.839 168.990 L 212.453 167.827 L 213.088 166.665 L 213.745 165.504 L 214.424 164.346 L 215.124 163.189 L 215.847 162.035 L 216.592 160.882 L 217.358 159.733 L 218.147 158.586 L 218.958 157.443 L 219.792 156.302 L 220.647 155.166 L 221.525 154.033 L 222.425 152.905 L 223.347 151.780 L 224.291 150.661 L 225.258 149.546 L 226.246 148.437 L 227.257 147.333 L 228.290 146.235 L 229.345 145.144 L 230.422 144.058 L 231.520 142.980 L 232.641 141.908 L 233.783 140.843 L 234.946 139.787 L 236.131 138.738 L 237.337 137.697 L 238.565 136.665 L 239.814 135.642 L 241.083 134.627 L 242.373 133.623 L 243.684 132.627 L 245.015 131.642 L 246.366 130.667 L 247.737 129.703 L 249.129 128.750 L 250.539 127.807 L 251.969 126.877 L 253.418 125.957 L 254.887 125.050 L 256.373 124.155 L 257.879 123.273 L 259.402 122.403 L 260.943 121.547 L 262.502 120.704 L 264.078 119.874 L 265.672 119.059 L 267.282 118.257 L 268.909 117.470 L 270.552 116.697 L 272.211 115.939 L 273.885 115.196 L 275.575 114.468 L 277.280 113.756 L 278.999 113.060 L 280.733 112.379 L 282.481 111.715 L 284.242 111.066 L 286.017 110.435 L 287.805 109.820 L 289.605 109.222 L 291.418 108.641 L 293.242 108.077 L 295.078 107.530 L 296.926 107.001 L 298.784 106.490 L 300.652 105.997 L 302.531 105.521 L 304.419 105.064 L 306.317 104.625 L 308.223 104.205 L 310.138 103.803 L 312.062 103.420 L 313.993 103.055 L 315.931 102.710 L 317.877 102.383 L 319.828 102.076 L 321.787 101.787 L 323.751 101.518 L 325.720 101.269 L 327.694 101.038 L 329.673 100.827 L 331.656 100.636 L 333.643 100.464 L 335.633 100.312 L 337.627 100.180 L 339.622 100.067 L 341.620 99.974 L 343.620 99.901 L 345.621 99.848 L 347.622 99.815 L 349.625 99.801 L 351.627 99.807 L 353.629 99.833 L 355.630 99.879 L 357.630 99.945 L 359.629 100.030 L 361.625 100.135 L 363.620 100.260 L 365.611 100.405 L 367.599 100.569 L 369.584 100.753 L 371.564 100.957 L 373.540 101.180 L 375.511 101.422 L 377.478 101.684 L 379.438 101.965 L 381.392 102.266 L 383.340 102.585 L 385.281 102.924 L 387.215 103.281 L 389.141 103.657 L 391.059 104.052 L 392.969 104.466 L 394.870 104.898 L 396.762 105.348 L 398.644 105.816 L 400.517 106.303 L 402.379 106.808 L 404.230 107.330 L 406.071 107.870 L 407.899 108.427 L 409.717 109.002 L 411.522 109.593 L 413.314 110.202 L 415.094 110.828 L 416.860 111.470 L 418.613 112.128 L 420.352 112.803 L 422.077 113.493 L 423.787 114.200 L 425.483 114.921 L 427.163 115.659 L 428.828 116.411 L 430.477 117.178 L 432.110 117.960 L 433.726 118.756 L 435.326 119.567 L 436.909 120.391 L 438.474 121.229 L 440.022 122.081 L 441.552 122.945 L 443.064 123.823 L 444.558 124.713 L 446.033 125.616 L 447.490 126.530 L 448.927 127.457 L 450.345 128.395 L 451.743 129.344 L 453.122 130.305 L 454.481 131.275 L 455.819 132.257 L 457.138 133.248 L 458.436 134.249 L 459.713 135.260 L 460.969 136.280 L 462.205 137.309 L 463.419 138.347 L 464.612 139.392 L 465.784 140.446 L 466.934 141.508 L 468.062 142.577 L 469.169 143.653 L 470.254 144.736 L 471.317 145.825 L 472.358 146.921 L 473.377 148.023 L 474.374 149.130 L 475.349 150.242 L 476.302 151.360 L 477.232 152.482 L 478.140 153.609 L 479.026 154.741 L 479.890 155.876 L 480.732 157.015 L 481.551 158.157 L 482.348 159.303 L 483.123 160.451 L 483.876 161.602 L 484.607 162.756 L 485.316 163.912 L 486.003 165.070 L 486.668 166.229 L 487.312 167.391 L 487.933 168.554 L 488.533 169.718 L 489.112 170.883 L 489.504 171.705 L 489.727 172.211 L 489.880 172.610 L 490.102 173.268 L 490.371 174.175 L 490.666 175.318 L 490.972 176.685 L 491.277 178.264 L 491.571 180.042 L 491.845 182.009 L 492.093 184.154 L 492.309 186.467 L 492.490 188.938 L 492.632 191.560 L 492.733 194.324 L 492.790 197.223 L 492.801 200.249 L 492.766 203.397 L 492.684 206.659 L 492.553 210.031 L 492.374 213.506 L 492.146 217.080 L 491.869 220.746 L 491.542 224.501 L 491.167 228.340 L 490.743 232.258 L 490.271 236.251 L 489.750 240.314 L 489.181 244.444 L 488.564 248.637 L 487.900 252.888 L 487.190 257.194 L 486.433 261.550 L 485.630 265.955 L 484.783 270.403 L 483.890 274.891 L 482.954 279.415 L 481.973 283.973 L 480.950 288.561 L 479.885 293.174 L 478.778 297.811 L 477.630 302.467 L 476.441 307.139 L 475.213 311.824 L 473.945 316.518 L 472.640 321.219 L 471.296 325.922 L 469.915 330.626 L 468.498 335.325 L 467.046 340.017 L 465.559 344.699 L 464.037 349.368 L 462.483 354.020 L 460.896 358.652 L 459.277 363.261 L 457.628 367.843 L 455.948 372.395 L 454.240 376.914 L 452.503 381.396 L 450.739 385.839 L 448.949 390.238 L 447.134 394.591 L 445.295 398.894 L 443.432 403.144 L 441.548 407.337 L 439.643 411.470 L 437.718 415.540 L 435.775 419.542 L 433.816 423.473 L 431.841 427.331 L 429.852 431.111 L 427.852 434.809 L 425.841 438.423 L 423.822 441.947 L 421.796 445.380 L 419.766 448.716 L 417.734 451.953 L 415.703 455.086 L 413.675 458.112 L 411.654 461.026 L 409.642 463.826 L 407.643 466.508 L 405.661 469.067 L 403.700 471.500 L 401.765 473.804 L 399.861 475.976 L 397.992 478.012 L 396.165 479.910 L 394.386 481.668 L 392.426 483.503 L 119.697 731.933 L 119.334 732.271 L 118.971 732.609 L 118.930 732.648 L 118.889 732.686 L 118.535 733.034 L 118.180 733.380 L 118.141 733.420 L 118.101 733.460 L 117.755 733.816 L 117.409 734.171 L 117.371 734.212 L 117.332 734.252 L 116.995 734.616 L 116.657 734.980 L 116.620 735.022 L 116.582 735.063 L 116.254 735.436 L 115.926 735.807 L 115.889 735.850 L 115.852 735.892 L 115.534 736.273 L 115.215 736.652 L 115.179 736.696 L 115.143 736.739 L 114.834 737.127 L 114.524 737.515 L 114.490 737.559 L 114.455 737.603 L 114.156 737.999 L 113.856 738.394 L 113.823 738.439 L 113.789 738.484 L 113.499 738.887 L 113.209 739.289 L 113.177 739.335 L 113.144 739.381 L 112.865 739.790 L 112.584 740.199 L 112.553 740.246 L 112.522 740.293 L 112.252 740.709 L 111.982 741.125 L 111.952 741.173 L 111.922 741.220 L 111.662 741.643 L 111.402 742.065 L 111.374 742.114 L 111.345 742.162 L 111.096 742.591 L 110.846 743.020 L 110.819 743.069 L 110.791 743.117 L 110.553 743.553 L 110.314 743.987 L 110.288 744.037 L 110.261 744.086 L 110.033 744.527 L 109.805 744.967 L 109.780 745.018 L 109.755 745.068 L 109.538 745.514 L 109.320 745.960 L 109.297 746.011 L 109.273 746.062 L 109.067 746.513 L 108.861 746.964 L 108.838 747.016 L 108.815 747.067 L 108.621 747.523 L 108.425 747.979 L 108.405 748.031 L 108.383 748.083 L 108.200 748.544 L 108.015 749.005 L 107.996 749.057 L 107.975 749.110 L 107.803 749.575 L 107.631 750.040 L 107.612 750.093 L 107.593 750.146 L 107.433 750.615 L 107.271 751.084 L 107.254 751.138 L 107.236 751.191 L 107.088 751.664 L 106.938 752.137 L 106.922 752.191 L 106.905 752.245 L 106.768 752.721 L 106.630 753.198 L 106.616 753.252 L 106.600 753.306 L 106.475 753.786 L 106.349 754.266 L 106.336 754.321 L 106.321 754.375 L 106.208 754.858 L 106.093 755.340 L 106.082 755.395 L 106.069 755.450 L 105.967 755.936 L 105.865 756.421 L 105.854 756.476 L 105.843 756.531 L 105.753 757.019 L 105.663 757.507 L 105.654 757.562 L 105.643 757.617 L 105.566 758.107 L 105.487 758.597 L 105.480 758.653 L 105.471 758.708 L 105.405 759.200 L 105.338 759.692 L 105.332 759.747 L 105.325 759.803 L 105.271 760.296 L 105.217 760.789 L 105.212 760.845 L 105.206 760.901 L 105.164 761.395 L 105.122 761.890 L 105.118 761.946 L 105.114 762.002 L 105.085 762.497 L 105.054 762.992 L 105.052 763.048 L 105.049 763.104 L 105.032 763.600 L 105.014 764.096 L 105.013 764.152 L 105.011 764.208 L 105.006 764.704 L 105.000 765.200 L 105.001 765.256 L 105.000 765.312 L 105.007 765.808 L 105.014 766.304 L 105.016 766.360 L 105.016 766.417 L 105.036 766.912 L 105.054 767.408 L 105.058 767.464 L 105.060 767.520 L 105.092 768.015 L 105.122 768.510 L 105.127 768.566 L 105.130 768.622 L 105.174 769.117 L 105.217 769.611 L 105.223 769.667 L 105.228 769.723 L 105.284 770.215 L 105.338 770.708 L 105.346 770.764 L 105.352 770.820 L 105.420 771.311 L 105.487 771.803 L 105.496 771.858 L 105.504 771.914 L 105.584 772.404 L 105.663 772.893 L 105.673 772.948 L 105.682 773.004 L 105.774 773.491 L 105.865 773.979 L 105.876 774.034 L 105.887 774.089 L 105.991 774.574 L 106.093 775.060 L 106.106 775.114 L 106.118 775.169 L 106.234 775.651 L 106.349 776.134 L 106.363 776.188 L 106.376 776.243 L 106.504 776.722 L 106.630 777.202 L 106.646 777.256 L 106.660 777.310 L 106.800 777.786 L 106.938 778.263 L 106.955 778.316 L 106.970 778.370 L 107.121 778.843 L 107.271 779.316 L 107.289 779.369 L 107.307 779.422 L 107.469 779.891 L 107.631 780.360 L 107.650 780.413 L 107.668 780.466 L 107.842 780.930 L 108.015 781.395 L 108.036 781.447 L 108.056 781.500 L 108.241 781.960 L 108.425 782.421 L 108.448 782.472 L 108.469 782.524 L 108.665 782.980 L 108.861 783.436 L 108.884 783.487 L 108.906 783.538 L 109.114 783.989 L 109.320 784.440 L 109.345 784.490 L 109.369 784.541 L 109.587 784.987 L 109.805 785.433 L 109.831 785.482 L 109.856 785.533 L 110.085 785.973 L 110.314 786.413 L 110.341 786.462 L 110.367 786.512 L 110.607 786.946 L 110.846 787.380 L 110.874 787.429 L 110.902 787.478 L 111.152 787.906 L 111.402 788.335 L 111.432 788.382 L 111.460 788.431 L 111.721 788.853 L 111.982 789.275 L 112.012 789.322 L 112.042 789.370 L 112.313 789.785 L 112.584 790.201 L 112.616 790.247 L 112.646 790.294 L 112.928 790.702 L 113.209 791.111 L 113.242 791.157 L 113.273 791.203 L 113.565 791.604 L 113.856 792.006 L 113.890 792.051 L 113.923 792.097 L 114.224 792.491 L 114.524 792.885 L 114.559 792.929 L 114.594 792.974 L 114.905 793.360 L 115.215 793.748 L 115.251 793.791 L 115.286 793.834 L 115.606 794.213 L 115.926 794.593 L 115.963 794.635 L 115.999 794.678 L 116.329 795.049 L 116.657 795.420 L 116.695 795.461 L 116.733 795.503 L 117.071 795.866 L 117.409 796.229 L 117.448 796.270 L 117.486 796.311 L 117.834 796.665 L 118.180 797.020 L 118.220 797.059 L 118.260 797.099 L 118.616 797.445 L 118.971 797.791 L 119.012 797.829 L 119.052 797.868 L 119.416 798.205 L 119.780 798.543 L 119.822 798.580 L 119.863 798.618 L 120.236 798.946 L 120.607 799.274 L 120.650 799.311 L 120.692 799.348 L 121.073 799.666 L 121.452 799.985 L 121.496 800.021 L 121.539 800.057 L 121.927 800.366 L 122.315 800.676 L 122.359 800.710 L 122.403 800.745 L 122.799 801.044 L 123.194 801.344 L 123.239 801.377 L 123.284 801.411 L 123.687 801.701 L 124.089 801.991 L 124.135 802.023 L 124.181 802.056 L 124.590 802.335 L 124.999 802.616 L 125.046 802.647 L 125.093 802.678 L 125.509 802.948 L 125.925 803.218 L 125.973 803.248 L 126.020 803.278 L 126.443 803.538 L 126.865 803.798 L 126.914 803.826 L 126.962 803.855 L 127.391 804.104 L 127.820 804.354 L 127.869 804.381 L 127.917 804.409 L 128.353 804.647 L 128.787 804.886 L 128.837 804.912 L 128.886 804.939 L 129.327 805.167 L 129.767 805.395 L 129.818 805.420 L 129.868 805.445 L 130.314 805.662 L 130.760 805.880 L 130.811 805.903 L 130.862 805.927 L 131.313 806.133 L 131.764 806.339 L 131.816 806.362 L 131.867 806.385 L 132.323 806.579 L 132.779 806.775 L 132.831 806.795 L 132.883 806.817 L 133.344 807.000 L 133.805 807.185 L 133.857 807.204 L 133.910 807.225 L 134.375 807.397 L 134.840 807.569 L 134.893 807.588 L 134.946 807.607 L 135.415 807.767 L 135.884 807.929 L 135.938 807.946 L 135.991 807.964 L 136.464 808.112 L 136.937 808.262 L 136.991 808.278 L 137.045 808.295 L 137.521 808.432 L 137.998 808.570 L 138.052 808.584 L 138.106 808.600 L 138.586 808.725 L 139.066 808.851 L 139.121 808.864 L 139.175 808.879 L 139.658 808.992 L 140.140 809.107 L 140.195 809.118 L 140.250 809.131 L 140.736 809.233 L 141.221 809.335 L 141.276 809.346 L 141.331 809.357 L 141.819 809.447 L 142.307 809.537 L 142.362 809.546 L 142.417 809.557 L 142.907 809.634 L 143.397 809.713 L 143.453 809.720 L 143.508 809.729 L 144.000 809.795 L 144.492 809.862 L 144.547 809.868 L 144.603 809.875 L 145.096 809.929 L 145.589 809.983 L 145.645 809.988 L 145.701 809.994 L 146.195 810.036 L 146.690 810.078 L 146.746 810.082 L 146.802 810.086 L 147.297 810.115 L 147.792 810.146 L 147.848 810.148 L 147.904 810.151 L 148.400 810.168 L 148.896 810.186 L 148.952 810.187 L 149.008 810.189 L 149.504 810.194 L 150.000 810.200 L 550.000 810.200 L 551.104 810.186 L 552.208 810.146 L 553.310 810.078 L 554.411 809.983 L 555.508 809.862 L 556.603 809.713 L 557.693 809.537 L 558.779 809.335 L 559.860 809.107 L 560.934 808.851 L 562.002 808.570 L 563.063 808.262 L 564.116 807.929 L 565.160 807.569 L 566.195 807.185 L 567.221 806.775 L 568.236 806.339 L 569.240 805.880 L 570.233 805.395 L 571.213 804.886 L 572.180 804.354 L 573.135 803.798 L 574.075 803.218 L 575.001 802.616 L 575.911 801.991 L 576.806 801.344 L 577.685 800.676 L 578.548 799.985 L 579.393 799.274 L 580.220 798.543 L 581.029 797.791 L 581.820 797.020 L 582.591 796.229 L 583.343 795.420 L 584.074 794.593 L 584.785 793.748 L 585.476 792.885 L 586.144 792.006 L 586.791 791.111 L 587.416 790.201 L 588.018 789.275 L 588.598 788.335 L 589.154 787.380 L 589.686 786.413 L 590.195 785.433 L 590.680 784.440 L 591.139 783.436 L 591.575 782.421 L 591.985 781.395 L 592.369 780.360 L 592.729 779.316 L 593.062 778.263 L 593.370 777.202 L 593.651 776.134 L 593.907 775.060 L 594.135 773.979 L 594.337 772.893 L 594.513 771.803 L 594.662 770.708 L 594.783 769.611 L 594.878 768.510 L 594.946 767.408 L 594.986 766.304 L 595.000 765.200 L 594.986 764.096 L 594.946 762.992 L 594.878 761.890 L 594.783 760.789 L 594.662 759.692 L 594.513 758.597 L 594.337 757.507 L 594.135 756.421 L 593.907 755.340 L 593.651 754.266 L 593.370 753.198 L 593.062 752.137 L 592.729 751.084 L 592.369 750.040 L 591.985 749.005 L 591.575 747.979 L 591.139 746.964 L 590.680 745.960 L 590.195 744.967 L 589.686 743.987 L 589.154 743.020 L 588.598 742.065 L 588.018 741.125 L 587.416 740.199 L 586.791 739.289 L 586.144 738.394 L 585.476 737.515 L 584.785 736.652 L 584.074 735.807 L 583.343 734.980 L 582.591 734.171 L 581.820 733.380 L 581.029 732.609 L 580.220 731.857 L 579.393 731.126 L 578.548 730.415 L 577.685 729.724 L 576.806 729.056 L 575.911 728.409 L 575.001 727.784 L 574.075 727.182 L 573.135 726.602 L 572.180 726.046 L 571.213 725.514 L 570.233 725.005 L 569.240 724.520 L 568.236 724.061 L 567.221 723.625 L 566.195 723.215 L 565.160 722.831 L 564.116 722.471 L 563.063 722.138 L 562.002 721.830 L 560.934 721.549 L 559.860 721.293 L 558.779 721.065 L 557.693 720.863 L 556.603 720.687 L 555.508 720.538 L 554.411 720.417 L 553.310 720.322 L 552.208 720.254 L 551.104 720.214 L 550.000 720.200 L 266.226 720.200 L 453.263 549.827 L 453.721 549.404 L 456.345 546.947 L 457.208 546.117 L 459.816 543.541 L 460.611 542.735 L 463.203 540.043 L 463.937 539.262 L 466.511 536.457 L 467.190 535.701 L 469.747 532.785 L 470.374 532.055 L 472.913 529.032 L 473.494 528.325 L 476.014 525.198 L 476.553 524.516 L 479.054 521.286 L 479.554 520.628 L 482.035 517.299 L 482.500 516.664 L 484.961 513.239 L 485.394 512.625 L 487.834 509.107 L 488.239 508.514 L 490.657 504.905 L 491.035 504.333 L 493.431 500.636 L 493.784 500.082 L 496.158 496.301 L 496.489 495.765 L 498.840 491.902 L 499.151 491.383 L 501.478 487.440 L 501.770 486.938 L 504.072 482.919 L 504.347 482.432 L 506.625 478.339 L 506.884 477.867 L 509.137 473.703 L 509.381 473.244 L 511.607 469.013 L 511.839 468.567 L 514.039 464.270 L 514.258 463.836 L 516.430 459.477 L 516.638 459.055 L 518.783 454.636 L 518.980 454.225 L 521.097 449.749 L 521.284 449.348 L 523.372 444.818 L 523.551 444.426 L 525.609 439.845 L 525.779 439.462 L 527.808 434.833 L 527.970 434.458 L 529.969 429.783 L 530.124 429.416 L 532.091 424.698 L 532.239 424.338 L 534.175 419.581 L 534.317 419.227 L 536.221 414.433 L 536.357 414.084 L 538.228 409.256 L 538.359 408.913 L 540.196 404.054 L 540.323 403.716 L 542.126 398.828 L 542.248 398.494 L 544.017 393.580 L 544.134 393.250 L 545.868 388.314 L 545.981 387.987 L 547.679 383.031 L 547.789 382.707 L 549.451 377.733 L 549.557 377.413 L 551.182 372.424 L 551.285 372.105 L 552.873 367.105 L 552.972 366.788 L 554.523 361.779 L 554.619 361.463 L 556.131 356.449 L 556.225 356.133 L 557.698 351.115 L 557.789 350.801 L 559.223 345.782 L 559.312 345.467 L 560.705 340.451 L 560.792 340.136 L 562.144 335.125 L 562.229 334.808 L 563.540 329.806 L 563.622 329.487 L 564.892 324.496 L 564.973 324.175 L 566.200 319.198 L 566.279 318.875 L 567.463 313.913 L 567.540 313.587 L 568.681 308.645 L 568.756 308.315 L 569.853 303.396 L 569.926 303.061 L 570.979 298.167 L 571.050 297.828 L 572.058 292.961 L 572.128 292.616 L 573.089 287.780 L 573.158 287.429 L 574.073 282.626 L 574.140 282.268 L 575.008 277.502 L 575.073 277.136 L 575.894 272.409 L 575.958 272.034 L 576.731 267.349 L 576.793 266.965 L 577.517 262.325 L 577.577 261.930 L 578.253 257.337 L 578.310 256.931 L 578.936 252.389 L 578.992 251.970 L 579.567 247.481 L 579.621 247.048 L 580.146 242.615 L 580.196 242.167 L 580.670 237.792 L 580.718 237.328 L 581.139 233.015 L 581.184 232.532 L 581.553 228.284 L 581.594 227.781 L 581.910 223.600 L 581.946 223.075 L 582.209 218.965 L 582.240 218.416 L 582.449 214.378 L 582.475 213.802 L 582.628 209.841 L 582.647 209.236 L 582.746 205.353 L 582.757 204.716 L 582.799 200.914 L 582.802 200.243 L 582.788 196.525 L 582.779 195.815 L 582.708 192.184 L 582.687 191.431 L 582.559 187.891 L 582.522 187.091 L 582.336 183.643 L 582.281 182.791 L 582.036 179.438 L 581.960 178.529 L 581.655 175.275 L 581.553 174.302 L 581.189 171.149 L 581.056 170.106 L 580.631 167.057 L 580.460 165.937 L 579.974 162.995 L 579.758 161.789 L 579.211 158.956 L 578.940 157.656 L 578.330 154.936 L 577.992 153.532 L 577.320 150.927 L 576.900 149.410 L 576.165 146.923 L 575.913 146.101 L 575.646 145.284 L 574.846 142.918 L 574.536 142.029 L 574.207 141.147 L 573.343 138.904 L 572.961 137.945 L 572.557 136.994 L 571.629 134.879 L 571.025 133.562 L 570.173 131.778 L 569.874 131.165 L 568.993 129.390 L 568.687 128.784 L 567.776 127.018 L 567.463 126.421 L 566.523 124.664 L 566.202 124.074 L 565.235 122.327 L 564.907 121.745 L 563.910 120.007 L 563.575 119.433 L 562.550 117.706 L 562.209 117.140 L 561.156 115.423 L 560.809 114.866 L 559.727 113.159 L 559.374 112.610 L 558.265 110.915 L 557.906 110.374 L 556.769 108.690 L 556.404 108.158 L 555.240 106.484 L 554.870 105.961 L 553.678 104.299 L 553.303 103.784 L 552.084 102.134 L 551.704 101.628 L 550.458 99.990 L 550.074 99.492 L 548.801 97.867 L 548.412 97.378 L 547.113 95.765 L 546.719 95.284 L 545.394 93.685 L 544.996 93.213 L 543.645 91.627 L 543.244 91.163 L 541.866 89.590 L 541.461 89.134 L 540.058 87.576 L 539.649 87.129 L 538.221 85.584 L 537.809 85.145 L 536.355 83.615 L 535.940 83.184 L 534.461 81.668 L 534.044 81.246 L 532.540 79.745 L 532.120 79.331 L 530.591 77.845 L 530.168 77.439 L 528.616 75.968 L 528.190 75.571 L 526.614 74.115 L 526.186 73.726 L 524.585 72.286 L 524.156 71.904 L 522.532 70.481 L 522.100 70.107 L 520.453 68.700 L 520.019 68.334 L 518.349 66.943 L 517.913 66.585 L 516.220 65.210 L 515.783 64.860 L 514.068 63.503 L 513.629 63.160 L 511.892 61.819 L 511.452 61.484 L 509.693 60.161 L 509.251 59.833 L 507.470 58.528 L 507.028 58.208 L 505.226 56.920 L 504.782 56.607 L 502.959 55.337 L 502.514 55.031 L 500.670 53.780 L 500.225 53.481 L 498.360 52.248 L 497.914 51.956 L 496.030 50.742 L 495.582 50.457 L 493.678 49.261 L 493.230 48.984 L 491.307 47.807 L 490.858 47.536 L 488.916 46.378 L 488.467 46.114 L 486.505 44.975 L 486.056 44.718 L 484.076 43.599 L 483.626 43.348 L 481.627 42.249 L 481.177 42.005 L 479.161 40.925 L 478.710 40.687 L 476.677 39.628 L 476.226 39.397 L 474.175 38.358 L 473.724 38.132 L 471.656 37.114 L 471.205 36.894 L 469.121 35.896 L 468.669 35.683 L 466.569 34.706 L 466.117 34.499 L 464.001 33.543 L 463.549 33.342 L 461.418 32.406 L 460.966 32.211 L 458.819 31.297 L 458.368 31.108 L 456.206 30.215 L 455.754 30.031 L 453.578 29.160 L 453.127 28.982 L 450.936 28.132 L 450.485 27.960 L 448.281 27.132 L 447.829 26.965 L 445.612 26.159 L 445.161 25.998 L 442.930 25.214 L 442.479 25.058 L 440.236 24.297 L 439.785 24.146 L 437.529 23.407 L 437.079 23.262 L 434.811 22.545 L 434.361 22.405 L 432.082 21.710 L 431.632 21.575 L 429.341 20.904 L 428.891 20.774 L 426.590 20.125 L 426.140 20.001 L 423.828 19.374 L 423.379 19.255 L 421.057 18.651 L 420.608 18.537 L 418.276 17.957 L 417.827 17.848 L 415.486 17.290 L 415.037 17.186 L 412.688 16.652 L 412.239 16.552 L 409.881 16.042 L 409.432 15.947 L 407.066 15.460 L 406.617 15.370 L 404.243 14.906 L 403.795 14.821 L 401.413 14.381 L 400.965 14.300 L 398.577 13.884 L 398.129 13.808 L 395.733 13.415 L 395.286 13.344 L 392.884 12.975 L 392.437 12.909 L 390.029 12.564 L 389.582 12.502 L 387.169 12.180 L 386.722 12.123 L 384.304 11.826 L 383.858 11.773 L 381.435 11.500 L 380.988 11.451 L 378.561 11.202 L 378.115 11.158 L 375.684 10.933 L 375.237 10.894 L 372.803 10.693 L 372.356 10.658 L 369.919 10.481 L 369.473 10.451 L 367.032 10.298 L 366.586 10.272 L 364.144 10.143 L 363.698 10.122 L 361.253 10.017 L 360.807 10.000 L 358.361 9.920 L 357.915 9.908 L 355.468 9.852 L 355.022 9.844 L 352.574 9.812 L 352.128 9.808 L 349.680 9.801 L 349.234 9.801 L 346.786 9.818 L 346.340 9.823 L 343.893 9.864 L 343.447 9.874 L 341.000 9.939 L 340.554 9.953 L 338.109 10.043 L 337.663 10.061 L 335.219 10.175 L 334.773 10.198 L 332.331 10.336 L 331.885 10.363 L 329.446 10.525 L 328.999 10.557 L 326.563 10.743 L 326.117 10.779 L 323.683 10.990 L 323.237 11.031 L 320.807 11.265 L 320.361 11.310 L 317.935 11.569 L 317.489 11.619 L 315.068 11.901 L 314.621 11.955 L 312.205 12.262 L 311.758 12.321 L 309.346 12.651 L 308.899 12.715 L 306.494 13.069 L 306.047 13.137 L 303.647 13.515 L 303.200 13.588 L 300.807 13.990 L 300.359 14.067 L 297.973 14.492 L 297.525 14.575 L 295.146 15.024 L 294.698 15.111 L 292.326 15.583 L 291.878 15.675 L 289.514 16.171 L 289.066 16.267 L 286.711 16.787 L 286.262 16.888 L 283.915 17.431 L 283.466 17.537 L 281.129 18.103 L 280.680 18.214 L 278.352 18.803 L 277.903 18.919 L 275.584 19.531 L 275.135 19.652 L 272.827 20.287 L 272.377 20.414 L 270.080 21.071 L 269.630 21.203 L 267.344 21.883 L 266.893 22.020 L 264.619 22.723 L 264.168 22.865 L 261.905 23.590 L 261.454 23.737 L 259.203 24.485 L 258.752 24.637 L 256.514 25.408 L 256.063 25.565 L 253.837 26.358 L 253.386 26.521 L 251.173 27.335 L 250.722 27.504 L 248.523 28.340 L 248.072 28.514 L 245.886 29.372 L 245.435 29.552 L 243.264 30.432 L 242.813 30.617 L 240.656 31.518 L 240.205 31.710 L 238.063 32.632 L 237.612 32.829 L 235.486 33.772 L 235.034 33.976 L 232.924 34.940 L 232.472 35.149 L 230.378 36.134 L 229.927 36.350 L 227.849 37.355 L 227.397 37.577 L 225.336 38.603 L 224.885 38.831 L 222.840 39.877 L 222.390 40.112 L 220.363 41.178 L 219.912 41.419 L 217.903 42.505 L 217.452 42.752 L 215.461 43.859 L 215.011 44.112 L 213.038 45.238 L 212.589 45.498 L 210.634 46.644 L 210.185 46.911 L 208.250 48.076 L 207.801 48.349 L 205.885 49.533 L 205.438 49.813 L 203.541 51.016 L 203.094 51.304 L 201.217 52.525 L 200.771 52.819 L 198.914 54.060 L 198.469 54.361 L 196.633 55.619 L 196.189 55.928 L 194.373 57.204 L 193.930 57.520 L 192.136 58.814 L 191.694 59.138 L 189.921 60.450 L 189.480 60.780 L 187.729 62.110 L 187.289 62.448 L 185.560 63.794 L 185.122 64.140 L 183.415 65.504 L 182.979 65.857 L 181.294 67.238 L 180.859 67.599 L 179.198 68.996 L 178.765 69.365 L 177.126 70.778 L 176.695 71.155 L 175.080 72.584 L 174.651 72.969 L 173.059 74.415 L 172.633 74.807 L 171.065 76.268 L 170.640 76.669 L 169.097 78.146 L 168.675 78.555 L 167.156 80.046 L 166.736 80.463 L 165.242 81.970 L 164.825 82.395 L 163.356 83.917 L 162.942 84.350 L 161.497 85.886 L 161.087 86.328 L 159.668 87.878 L 159.261 88.329 L 157.867 89.892 L 157.464 90.351 L 156.096 91.929 L 155.696 92.396 L 154.354 93.987 L 153.958 94.463 L 152.642 96.067 L 152.251 96.551 L 150.961 98.168 L 150.574 98.661 L 149.311 100.291 L 148.928 100.792 L 147.693 102.434 L 147.314 102.944 L 146.106 104.598 L 145.732 105.116 L 144.551 106.782 L 144.183 107.309 L 143.029 108.986 L 142.666 109.522 L 141.540 111.211 L 141.183 111.754 L 140.084 113.454 L 139.733 114.006 L 138.662 115.717 L 138.317 116.277 L 137.274 117.998 L 136.936 118.567 L 135.921 120.298 L 135.589 120.875 L 134.603 122.616 L 134.278 123.201 L 133.321 124.952 L 133.002 125.545 L 132.074 127.305 L 131.763 127.906 L 130.864 129.675 L 130.560 130.284 L 129.690 132.062 L 129.394 132.678 L 128.553 134.465 L 128.265 135.088 L 127.453 136.883 L 127.174 137.514 L 126.392 139.317 L 126.120 139.956 L 125.368 141.766 L 125.105 142.411 L 124.383 144.229 L 124.129 144.881 L 123.436 146.706 L 123.192 147.365 L 122.529 149.196 L 122.294 149.862 L 121.661 151.700 L 121.436 152.372 L 120.833 154.216 L 120.618 154.894 L 120.045 156.743 L 119.840 157.427 L 119.298 159.282 L 119.102 159.972 L 118.591 161.832 L 118.406 162.527 L 117.925 164.392 L 117.751 165.092 L 117.301 166.962 L 117.137 167.667 L 116.718 169.541 L 116.565 170.250 L 116.177 172.129 L 116.035 172.842 L 115.677 174.724 L 115.547 175.441 L 115.220 177.326 L 115.101 178.047 L 114.805 179.936 L 114.698 180.660 L 114.433 182.551 L 114.337 183.278 L 114.103 185.172 L 114.019 185.902 L 113.817 187.797 L 113.744 188.530 L 113.573 190.427 L 113.513 191.161 L 113.372 193.060 L 113.324 193.796 L 113.215 195.696 L 113.178 196.433 L 113.100 198.335 L 113.076 199.072 L 113.029 200.974 L 113.017 201.713 L 113.002 203.615 L 113.006 204.719 L 113.038 205.823 L 113.096 206.926 L 113.182 208.027 L 113.295 209.126 L 113.434 210.221 L 113.601 211.313 L 113.794 212.401 L 114.014 213.483 L 114.260 214.560 L 114.533 215.630 L 114.832 216.693 L 115.157 217.749 L 115.508 218.796 L 115.884 219.834 L 116.286 220.863 L 116.712 221.882 L 117.164 222.890 L 117.640 223.886 L 118.141 224.871 L 118.665 225.842 L 119.214 226.801 L 119.785 227.746 L 120.380 228.677 L 120.997 229.593 L 121.637 230.493 L 122.298 231.377 L 122.981 232.245 L 123.686 233.096 L 124.410 233.930 L 125.155 234.745 L 125.920 235.542 L 126.704 236.319 L 127.507 237.078 L 128.329 237.816 L 129.168 238.534 L 130.024 239.231 L 130.898 239.907 L 131.788 240.561 L 132.693 241.194 L 133.614 241.804 L 134.549 242.391 L 135.499 242.955 L 136.462 243.495 L 137.438 244.012 L 138.427 244.504 L 139.427 244.972 L 140.439 245.416 L 141.461 245.834 L 142.493 246.228 L 143.534 246.596 L 144.584 246.938 L 145.642 247.254 L 146.708 247.544 L 147.781 247.808 L 148.859 248.046 L 149.943 248.257 L 151.032 248.441 L 152.125 248.599 L 153.222 248.730 L 154.321 248.833 L 155.423 248.910 L 156.527 248.960 L 157.631 248.982 L 158.735 248.978 L 159.839 248.946 L 160.942 248.888 L 162.043 248.802 L 163.142 248.689 L 164.237 248.550 L 165.329 248.383 L 166.417 248.190 L 167.499 247.970 L 168.576 247.724 L 169.646 247.451 L 170.709 247.152 L 171.765 246.827 L 172.812 246.476 L 173.850 246.100 L 174.879 245.698 L 175.898 245.272 L 176.906 244.820 L 177.902 244.344 L 178.887 243.843 L 179.858 243.319 L 180.817 242.770 L 181.762 242.199 L 182.693 241.604 L 183.609 240.987 L 184.509 240.347 L 185.393 239.686 L 186.261 239.003 L 187.112 238.298 L 187.946 237.574 L 188.761 236.829 L 189.558 236.064 L 190.335 235.280 L 191.094 234.477 L 191.832 233.655 L 192.550 232.816 L 193.247 231.960 L 193.923 231.086 L 194.577 230.196 L 195.210 229.291 L 195.820 228.370 L 196.407 227.435 L 196.971 226.485 L 197.511 225.522 L 198.028 224.546 L 198.520 223.557 L 198.988 222.557 L 199.432 221.545 L 199.850 220.523 L 200.244 219.491 L 200.612 218.450 L 200.954 217.400 L 201.270 216.342 L 201.560 215.276 L 201.824 214.203 L 202.062 213.125 L 202.273 212.041 L 202.457 210.952 L 202.615 209.859 L 202.746 208.762 L 202.849 207.663 L 202.926 206.561 L 202.976 205.457 L 202.998 204.353 L 203.011 202.820 L 203.040 201.656 Z" fill="black" fill-rule="evenodd"/>
</svg>
