<svg xmlns="http://www.w3.org/2000/svg" viewBox="0 0 650.000 1000" width="650.000" height="1000">
  <path d="M 305.061 156.907 L 305.217 153.985 L 305.466 151.233 L 305.800 148.644 L 306.210 146.208 L 306.691 143.918 L 307.234 141.761 L 307.836 139.729 L 308.491 137.810 L 309.198 135.992 L 309.955 134.264 L 310.761 132.616 L 311.617 131.038 L 312.525 129.518 L 313.487 128.049 L 314.507 126.624 L 315.587 125.235 L 316.732 123.877 L 317.944 122.546 L 319.228 121.240 L 320.587 119.956 L 322.022 118.694 L 323.537 117.452 L 325.132 116.232 L 326.808 115.034 L 328.565 113.859 L 330.402 112.709 L 332.318 111.587 L 334.312 110.492 L 336.381 109.428 L 338.522 108.396 L 340.733 107.398 L 343.008 106.435 L 345.346 105.509 L 347.741 104.621 L 350.190 103.771 L 352.687 102.962 L 355.229 102.193 L 357.809 101.464 L 360.425 100.777 L 363.070 100.132 L 365.740 99.527 L 368.430 98.964 L 371.134 98.442 L 373.848 97.961 L 376.566 97.519 L 379.284 97.117 L 381.996 96.753 L 384.698 96.427 L 387.384 96.138 L 390.049 95.885 L 392.688 95.666 L 395.296 95.481 L 397.868 95.328 L 400.398 95.206 L 402.882 95.114 L 405.314 95.050 L 407.689 95.013 L 410.000 95.001 L 412.311 95.013 L 414.686 95.050 L 417.118 95.114 L 419.602 95.206 L 422.132 95.328 L 424.704 95.481 L 427.312 95.666 L 429.951 95.885 L 432.616 96.138 L 435.302 96.427 L 438.004 96.753 L 440.716 97.117 L 443.434 97.519 L 446.152 97.961 L 448.866 98.442 L 451.570 98.964 L 454.260 99.527 L 456.930 100.132 L 459.575 100.777 L 462.191 101.464 L 464.771 102.193 L 467.313 102.962 L 469.810 103.771 L 472.259 104.621 L 474.654 105.509 L 476.992 106.435 L 479.267 107.398 L 481.478 108.396 L 483.619 109.428 L 485.688 110.492 L 487.682 111.587 L 489.598 112.709 L 491.435 113.859 L 493.192 115.034 L 494.868 116.232 L 496.463 117.452 L 497.978 118.694 L 499.413 119.956 L 500.772 121.240 L 502.056 122.546 L 503.268 123.877 L 504.413 125.235 L 505.493 126.624 L 506.513 128.049 L 507.475 129.518 L 508.383 131.038 L 509.239 132.616 L 510.045 134.264 L 510.802 135.992 L 511.509 137.810 L 512.164 139.729 L 512.766 141.761 L 513.309 143.918 L 513.790 146.208 L 514.200 148.644 L 514.534 151.233 L 514.783 153.985 L 514.939 156.907 L 515.007 160.788 L 515.040 161.892 L 515.100 162.994 L 515.187 164.095 L 515.301 165.194 L 515.442 166.289 L 515.609 167.381 L 515.804 168.468 L 516.025 169.550 L 516.273 170.626 L 516.547 171.696 L 516.847 172.759 L 517.173 173.814 L 517.525 174.861 L 517.902 175.899 L 518.305 176.928 L 518.733 177.946 L 519.186 178.953 L 519.663 179.949 L 520.165 180.933 L 520.691 181.904 L 521.240 182.862 L 521.813 183.807 L 522.409 184.737 L 523.027 185.652 L 523.668 186.551 L 524.330 187.435 L 525.014 188.302 L 525.719 189.152 L 526.445 189.985 L 527.191 190.799 L 527.957 191.595 L 528.742 192.372 L 529.546 193.129 L 530.368 193.867 L 531.208 194.584 L 532.065 195.280 L 532.940 195.955 L 533.830 196.608 L 534.737 197.239 L 535.658 197.848 L 536.594 198.434 L 537.544 198.997 L 538.508 199.536 L 539.485 200.052 L 540.474 200.543 L 541.475 201.010 L 542.487 201.452 L 543.510 201.870 L 544.542 202.262 L 545.584 202.628 L 546.634 202.969 L 547.693 203.284 L 548.759 203.573 L 549.832 203.836 L 550.910 204.072 L 551.995 204.282 L 553.084 204.465 L 554.177 204.622 L 555.274 204.751 L 556.374 204.854 L 557.476 204.929 L 558.579 204.978 L 559.683 204.999 L 560.788 204.993 L 561.892 204.960 L 562.994 204.900 L 564.095 204.813 L 565.194 204.699 L 566.289 204.558 L 567.381 204.391 L 568.468 204.196 L 569.550 203.975 L 570.626 203.727 L 571.696 203.453 L 572.759 203.153 L 573.814 202.827 L 574.861 202.475 L 575.899 202.098 L 576.928 201.695 L 577.946 201.267 L 578.953 200.814 L 579.949 200.337 L 580.933 199.835 L 581.904 199.309 L 582.862 198.760 L 583.807 198.187 L 584.737 197.591 L 585.652 196.973 L 586.551 196.332 L 587.435 195.670 L 588.302 194.986 L 589.152 194.281 L 589.985 193.555 L 590.799 192.809 L 591.595 192.043 L 592.372 191.258 L 593.129 190.454 L 593.867 189.632 L 594.584 188.792 L 595.280 187.935 L 595.955 187.060 L 596.608 186.170 L 597.239 185.263 L 597.848 184.342 L 598.434 183.406 L 598.997 182.456 L 599.536 181.492 L 600.052 180.515 L 600.543 179.526 L 601.010 178.525 L 601.452 177.513 L 601.870 176.490 L 602.262 175.458 L 602.628 174.416 L 602.969 173.366 L 603.284 172.307 L 603.573 171.241 L 603.836 170.168 L 604.072 169.090 L 604.282 168.005 L 604.465 166.916 L 604.622 165.823 L 604.751 164.726 L 604.854 163.626 L 604.929 162.524 L 604.978 161.421 L 604.999 160.317 L 604.993 159.212 L 604.911 154.524 L 604.854 152.911 L 604.610 148.354 L 604.558 147.525 L 604.491 146.697 L 604.090 142.269 L 604.005 141.421 L 603.904 140.574 L 603.350 136.274 L 603.230 135.409 L 603.093 134.547 L 602.390 130.372 L 602.233 129.495 L 602.059 128.621 L 601.210 124.570 L 601.015 123.684 L 600.802 122.802 L 599.812 118.873 L 599.578 117.983 L 599.326 117.098 L 598.198 113.289 L 597.924 112.398 L 597.632 111.514 L 596.372 107.824 L 596.059 106.938 L 595.727 106.059 L 594.338 102.486 L 593.986 101.610 L 593.616 100.742 L 592.101 97.283 L 591.713 96.422 L 591.307 95.568 L 589.670 92.223 L 589.247 91.380 L 588.806 90.546 L 587.053 87.313 L 586.597 86.493 L 586.124 85.682 L 584.258 82.558 L 583.773 81.765 L 583.271 80.982 L 581.296 77.966 L 580.784 77.203 L 580.258 76.450 L 578.177 73.540 L 577.644 72.810 L 577.095 72.090 L 574.914 69.285 L 574.362 68.589 L 573.796 67.904 L 571.518 65.201 L 570.950 64.542 L 570.371 63.893 L 567.999 61.292 L 567.421 60.669 L 566.831 60.058 L 564.371 57.555 L 563.190 56.397 L 560.645 53.992 L 559.456 52.908 L 556.830 50.599 L 555.641 49.588 L 552.938 47.373 L 551.754 46.435 L 548.979 44.311 L 547.804 43.442 L 544.961 41.409 L 543.801 40.607 L 540.892 38.663 L 539.750 37.924 L 536.781 36.066 L 535.660 35.387 L 532.635 33.615 L 531.538 32.992 L 528.459 31.303 L 527.388 30.734 L 524.261 29.125 L 523.217 28.606 L 520.046 27.077 L 519.030 26.603 L 515.818 25.153 L 514.831 24.721 L 511.583 23.347 L 510.625 22.955 L 507.344 21.655 L 506.416 21.299 L 503.107 20.071 L 502.207 19.749 L 498.874 18.592 L 498.003 18.300 L 494.649 17.213 L 493.807 16.949 L 490.437 15.929 L 489.622 15.690 L 486.239 14.736 L 485.451 14.521 L 482.061 13.631 L 481.298 13.437 L 477.903 12.609 L 477.166 12.435 L 473.771 11.667 L 473.058 11.512 L 469.667 10.802 L 468.977 10.663 L 465.593 10.010 L 464.925 9.886 L 461.554 9.288 L 460.907 9.178 L 457.551 8.633 L 456.924 8.535 L 453.589 8.042 L 452.980 7.956 L 449.669 7.512 L 449.079 7.437 L 445.795 7.041 L 445.222 6.975 L 441.970 6.625 L 441.413 6.569 L 438.197 6.263 L 437.654 6.215 L 434.479 5.952 L 433.950 5.911 L 430.819 5.689 L 430.302 5.655 L 427.220 5.472 L 426.714 5.444 L 423.684 5.298 L 423.189 5.277 L 420.215 5.167 L 419.729 5.152 L 416.815 5.075 L 416.337 5.065 L 413.487 5.020 L 413.016 5.015 L 410.235 5.001 L 409.765 5.001 L 406.984 5.015 L 406.513 5.020 L 403.663 5.065 L 403.185 5.075 L 400.271 5.152 L 399.785 5.167 L 396.811 5.277 L 396.316 5.298 L 393.286 5.444 L 392.780 5.472 L 389.698 5.655 L 389.181 5.689 L 386.050 5.911 L 385.521 5.952 L 382.346 6.215 L 381.803 6.263 L 378.587 6.569 L 378.030 6.625 L 374.778 6.975 L 374.205 7.041 L 370.921 7.437 L 370.331 7.512 L 367.020 7.956 L 366.411 8.042 L 363.076 8.535 L 362.449 8.633 L 359.093 9.178 L 358.446 9.288 L 355.075 9.886 L 354.407 10.010 L 351.023 10.663 L 350.333 10.802 L 346.942 11.512 L 346.229 11.667 L 342.834 12.435 L 342.097 12.609 L 338.702 13.437 L 337.939 13.631 L 334.549 14.521 L 333.761 14.736 L 330.378 15.690 L 329.563 15.929 L 326.193 16.949 L 325.351 17.213 L 321.997 18.300 L 321.126 18.592 L 317.793 19.749 L 316.893 20.071 L 313.584 21.299 L 312.656 21.655 L 309.375 22.955 L 308.417 23.347 L 305.169 24.721 L 304.182 25.153 L 300.970 26.603 L 299.954 27.077 L 296.783 28.606 L 295.739 29.125 L 292.612 30.734 L 291.541 31.303 L 288.462 32.992 L 287.365 33.615 L 284.340 35.387 L 283.219 36.066 L 280.250 37.924 L 279.108 38.663 L 276.199 40.607 L 275.039 41.409 L 272.196 43.442 L 271.021 44.311 L 268.246 46.435 L 267.062 47.373 L 264.359 49.588 L 263.170 50.599 L 260.544 52.908 L 259.355 53.992 L 256.810 56.397 L 255.629 57.555 L 253.169 60.058 L 252.579 60.669 L 252.001 61.292 L 249.629 63.893 L 249.050 64.542 L 248.482 65.201 L 246.204 67.904 L 245.638 68.589 L 245.086 69.285 L 242.905 72.090 L 242.356 72.810 L 241.823 73.540 L 239.742 76.450 L 239.216 77.203 L 238.704 77.966 L 236.729 80.982 L 236.227 81.765 L 235.742 82.558 L 233.876 85.682 L 233.403 86.493 L 232.947 87.313 L 231.194 90.546 L 230.753 91.380 L 230.330 92.223 L 228.693 95.568 L 228.287 96.422 L 227.899 97.283 L 226.384 100.742 L 226.014 101.610 L 225.662 102.486 L 224.273 106.059 L 223.941 106.938 L 223.628 107.824 L 222.368 111.514 L 222.076 112.398 L 221.802 113.289 L 220.674 117.098 L 220.422 117.983 L 220.188 118.873 L 219.198 122.802 L 218.985 123.684 L 218.790 124.570 L 217.941 128.621 L 217.767 129.495 L 217.610 130.372 L 216.907 134.547 L 216.770 135.409 L 216.650 136.274 L 216.096 140.574 L 215.995 141.421 L 215.910 142.269 L 215.509 146.697 L 215.442 147.525 L 215.390 148.354 L 215.146 152.911 L 215.089 154.524 L 215.007 159.212 L 215.000 160.000 L 215.000 435.000 L 215.000 770.000 L 215.014 771.104 L 215.054 772.208 L 215.122 773.310 L 215.217 774.411 L 215.338 775.508 L 215.487 776.603 L 215.663 777.693 L 215.865 778.779 L 216.093 779.860 L 216.349 780.934 L 216.630 782.002 L 216.938 783.063 L 217.271 784.116 L 217.631 785.160 L 218.015 786.195 L 218.425 787.221 L 218.861 788.236 L 219.320 789.240 L 219.805 790.233 L 220.314 791.213 L 220.846 792.180 L 221.402 793.135 L 221.982 794.075 L 222.584 795.001 L 223.209 795.911 L 223.856 796.806 L 224.524 797.685 L 225.215 798.548 L 225.926 799.393 L 226.657 800.220 L 227.409 801.029 L 228.180 801.820 L 228.971 802.591 L 229.780 803.343 L 230.607 804.074 L 231.452 804.785 L 232.315 805.476 L 233.194 806.144 L 234.089 806.791 L 234.999 807.416 L 235.925 808.018 L 236.865 808.598 L 237.820 809.154 L 238.787 809.686 L 239.767 810.195 L 240.760 810.680 L 241.764 811.139 L 242.779 811.575 L 243.805 811.985 L 244.840 812.369 L 245.884 812.729 L 246.937 813.062 L 247.998 813.370 L 249.066 813.651 L 250.140 813.907 L 251.221 814.135 L 252.307 814.337 L 253.397 814.513 L 254.492 814.662 L 255.589 814.783 L 256.690 814.878 L 257.792 814.946 L 258.896 814.986 L 260.000 815.000 L 261.104 814.986 L 262.208 814.946 L 263.310 814.878 L 264.411 814.783 L 265.508 814.662 L 266.603 814.513 L 267.693 814.337 L 268.779 814.135 L 269.860 813.907 L 270.934 813.651 L 272.002 813.370 L 273.063 813.062 L 274.116 812.729 L 275.160 812.369 L 276.195 811.985 L 277.221 811.575 L 278.236 811.139 L 279.240 810.680 L 280.233 810.195 L 281.213 809.686 L 282.180 809.154 L 283.135 808.598 L 284.075 808.018 L 285.001 807.416 L 285.911 806.791 L 286.806 806.144 L 287.685 805.476 L 288.548 804.785 L 289.393 804.074 L 290.220 803.343 L 291.029 802.591 L 291.820 801.820 L 292.591 801.029 L 293.343 800.220 L 294.074 799.393 L 294.785 798.548 L 295.476 797.685 L 296.144 796.806 L 296.791 795.911 L 297.416 795.001 L 298.018 794.075 L 298.598 793.135 L 299.154 792.180 L 299.686 791.213 L 300.195 790.233 L 300.680 789.240 L 301.139 788.236 L 301.575 787.221 L 301.985 786.195 L 302.369 785.160 L 302.729 784.116 L 303.062 783.063 L 303.370 782.002 L 303.651 780.934 L 303.907 779.860 L 304.135 778.779 L 304.337 777.693 L 304.513 776.603 L 304.662 775.508 L 304.783 774.411 L 304.878 773.310 L 304.946 772.208 L 304.986 771.104 L 305.000 770.000 L 305.000 480.000 L 430.000 480.000 L 431.104 479.986 L 432.208 479.946 L 433.310 479.878 L 434.411 479.783 L 435.508 479.662 L 436.603 479.513 L 437.693 479.337 L 438.779 479.135 L 439.860 478.907 L 440.934 478.651 L 442.002 478.370 L 443.063 478.062 L 444.116 477.729 L 445.160 477.369 L 446.195 476.985 L 447.221 476.575 L 448.236 476.139 L 449.240 475.680 L 450.233 475.195 L 451.213 474.686 L 452.180 474.154 L 453.135 473.598 L 454.075 473.018 L 455.001 472.416 L 455.911 471.791 L 456.806 471.144 L 457.685 470.476 L 458.548 469.785 L 459.393 469.074 L 460.220 468.343 L 461.029 467.591 L 461.820 466.820 L 462.591 466.029 L 463.343 465.220 L 464.074 464.393 L 464.785 463.548 L 465.476 462.685 L 466.144 461.806 L 466.791 460.911 L 467.416 460.001 L 468.018 459.075 L 468.598 458.135 L 469.154 457.180 L 469.686 456.213 L 470.195 455.233 L 470.680 454.240 L 471.139 453.236 L 471.575 452.221 L 471.985 451.195 L 472.369 450.160 L 472.729 449.116 L 473.062 448.063 L 473.370 447.002 L 473.651 445.934 L 473.907 444.860 L 474.135 443.779 L 474.337 442.693 L 474.513 441.603 L 474.662 440.508 L 474.783 439.411 L 474.878 438.310 L 474.946 437.208 L 474.986 436.104 L 475.000 435.000 L 474.986 433.896 L 474.946 432.792 L 474.878 431.690 L 474.783 430.589 L 474.662 429.492 L 474.513 428.397 L 474.337 427.307 L 474.135 426.221 L 473.907 425.140 L 473.651 424.066 L 473.370 422.998 L 473.062 421.937 L 472.729 420.884 L 472.369 419.840 L 471.985 418.805 L 471.575 417.779 L 471.139 416.764 L 470.680 415.760 L 470.195 414.767 L 469.686 413.787 L 469.154 412.820 L 468.598 411.865 L 468.018 410.925 L 467.416 409.999 L 466.791 409.089 L 466.144 408.194 L 465.476 407.315 L 464.785 406.452 L 464.074 405.607 L 463.343 404.780 L 462.591 403.971 L 461.820 403.180 L 461.029 402.409 L 460.220 401.657 L 459.393 400.926 L 458.548 400.215 L 457.685 399.524 L 456.806 398.856 L 455.911 398.209 L 455.001 397.584 L 454.075 396.982 L 453.135 396.402 L 452.180 395.846 L 451.213 395.314 L 450.233 394.805 L 449.240 394.320 L 448.236 393.861 L 447.221 393.425 L 446.195 393.015 L 445.160 392.631 L 444.116 392.271 L 443.063 391.938 L 442.002 391.630 L 440.934 391.349 L 439.860 391.093 L 438.779 390.865 L 437.693 390.663 L 436.603 390.487 L 435.508 390.338 L 434.411 390.217 L 433.310 390.122 L 432.208 390.054 L 431.104 390.014 L 430.000 390.000 L 305.000 390.000 L 305.000 160.394 L 305.061 156.907 Z" fill="black" fill-rule="evenodd"/>
</svg>
