<svg xmlns="http://www.w3.org/2000/svg" viewBox="0 0 220.000 1000">
  <path d="M 85.778 135.285 L 60.829 191.836 L 60.395 192.852 L 59.987 193.878 L 59.604 194.914 L 59.247 195.959 L 58.915 197.013 L 58.609 198.074 L 58.330 199.142 L 58.076 200.217 L 57.849 201.298 L 57.649 202.384 L 57.476 203.475 L 57.329 204.570 L 57.209 205.668 L 57.116 206.768 L 57.050 207.871 L 57.012 208.974 L 57.000 210.079 L 57.016 211.183 L 57.058 212.287 L 57.128 213.389 L 57.224 214.489 L 57.348 215.587 L 57.499 216.681 L 57.676 217.771 L 57.880 218.856 L 58.111 219.936 L 58.368 221.011 L 58.651 222.078 L 58.961 223.138 L 59.296 224.190 L 59.657 225.234 L 60.044 226.269 L 60.456 227.294 L 60.893 228.308 L 61.354 229.311 L 61.840 230.303 L 62.351 231.282 L 62.885 232.249 L 63.443 233.202 L 64.024 234.141 L 64.628 235.066 L 65.254 235.976 L 65.903 236.870 L 66.573 237.747 L 67.265 238.609 L 67.977 239.452 L 68.710 240.278 L 69.463 241.086 L 70.236 241.875 L 71.028 242.645 L 71.838 243.396 L 72.667 244.126 L 73.513 244.835 L 74.377 245.524 L 75.257 246.191 L 76.153 246.837 L 77.065 247.460 L 77.992 248.060 L 78.933 248.638 L 79.888 249.193 L 80.857 249.724 L 81.838 250.230 L 82.831 250.713 L 83.836 251.171 L 84.852 251.605 L 85.878 252.013 L 86.914 252.396 L 87.959 252.753 L 89.013 253.085 L 90.074 253.391 L 91.142 253.670 L 92.217 253.924 L 93.298 254.151 L 94.384 254.351 L 95.475 254.524 L 96.570 254.671 L 97.668 254.791 L 98.768 254.884 L 99.871 254.950 L 100.974 254.988 L 102.079 255.000 L 103.183 254.984 L 104.287 254.942 L 105.389 254.872 L 106.489 254.776 L 107.587 254.652 L 108.681 254.501 L 109.771 254.324 L 110.856 254.120 L 111.936 253.889 L 113.011 253.632 L 114.078 253.349 L 115.138 253.039 L 116.190 252.704 L 117.234 252.343 L 118.269 251.956 L 119.294 251.544 L 120.308 251.107 L 121.311 250.646 L 122.303 250.160 L 123.282 249.649 L 124.249 249.115 L 125.202 248.557 L 126.141 247.976 L 127.066 247.372 L 127.976 246.746 L 128.870 246.097 L 129.747 245.427 L 130.609 244.735 L 131.452 244.023 L 132.278 243.290 L 133.086 242.537 L 133.875 241.764 L 134.645 240.972 L 135.396 240.162 L 136.126 239.333 L 136.835 238.487 L 137.524 237.623 L 138.191 236.743 L 138.837 235.847 L 139.460 234.935 L 140.060 234.008 L 140.638 233.067 L 141.193 232.112 L 141.724 231.143 L 142.230 230.162 L 142.713 229.169 L 143.171 228.164 L 173.171 160.164 L 173.607 159.143 L 174.017 158.112 L 174.401 157.071 L 174.760 156.021 L 175.093 154.963 L 175.399 153.896 L 175.679 152.823 L 175.933 151.743 L 176.160 150.657 L 176.360 149.565 L 176.533 148.469 L 176.679 147.369 L 176.797 146.266 L 176.889 145.160 L 176.953 144.053 L 176.990 142.944 L 177.000 141.834 L 176.982 140.725 L 176.937 139.616 L 176.864 138.509 L 176.765 137.404 L 176.638 136.302 L 170.638 89.302 L 170.484 88.208 L 170.304 87.118 L 170.098 86.033 L 169.864 84.954 L 169.604 83.880 L 169.318 82.814 L 169.006 81.754 L 168.668 80.703 L 168.305 79.660 L 167.915 78.626 L 167.501 77.603 L 167.061 76.589 L 166.597 75.587 L 166.109 74.597 L 165.596 73.619 L 165.059 72.653 L 164.499 71.701 L 163.916 70.764 L 163.309 69.840 L 162.681 68.932 L 162.030 68.040 L 161.357 67.164 L 160.664 66.305 L 159.949 65.463 L 159.214 64.638 L 158.459 63.832 L 157.684 63.045 L 156.890 62.277 L 156.078 61.529 L 155.248 60.801 L 154.399 60.093 L 153.534 59.407 L 152.652 58.742 L 151.755 58.099 L 150.841 57.478 L 149.913 56.880 L 148.970 56.304 L 148.014 55.752 L 147.044 55.224 L 146.061 54.719 L 145.067 54.239 L 144.061 53.783 L 143.044 53.353 L 142.017 52.947 L 140.980 52.566 L 139.934 52.212 L 138.879 51.883 L 137.817 51.579 L 136.748 51.302 L 135.673 51.052 L 134.591 50.828 L 133.505 50.630 L 132.413 50.459 L 131.318 50.315 L 130.220 50.198 L 129.119 50.108 L 128.017 50.045 L 126.913 50.009 L 125.809 50.000 L 124.704 50.019 L 123.601 50.064 L 122.499 50.136 L 121.399 50.236 L 120.302 50.362 L 119.208 50.516 L 118.118 50.696 L 117.033 50.902 L 115.954 51.136 L 114.880 51.396 L 113.814 51.682 L 112.754 51.994 L 111.703 52.332 L 110.660 52.695 L 109.626 53.085 L 108.603 53.499 L 107.589 53.939 L 106.587 54.403 L 105.597 54.891 L 104.619 55.404 L 103.653 55.941 L 102.701 56.501 L 101.764 57.084 L 100.840 57.691 L 99.932 58.319 L 99.040 58.970 L 98.164 59.643 L 97.305 60.336 L 96.463 61.051 L 95.638 61.786 L 94.832 62.541 L 94.045 63.316 L 93.277 64.110 L 92.529 64.922 L 91.801 65.752 L 91.093 66.601 L 90.407 67.466 L 89.742 68.348 L 89.099 69.245 L 88.478 70.159 L 87.880 71.087 L 87.304 72.030 L 86.752 72.986 L 86.224 73.956 L 85.719 74.939 L 85.239 75.933 L 84.783 76.939 L 84.353 77.956 L 83.947 78.983 L 83.566 80.020 L 83.212 81.066 L 82.883 82.121 L 82.579 83.183 L 82.302 84.252 L 82.052 85.327 L 81.828 86.409 L 81.630 87.495 L 81.459 88.587 L 81.315 89.682 L 81.198 90.780 L 81.108 91.881 L 81.045 92.983 L 81.009 94.087 L 81.000 95.191 L 81.019 96.296 L 81.064 97.399 L 81.136 98.501 L 81.236 99.601 L 81.362 100.698 L 85.778 135.285 Z" fill="black" fill-rule="evenodd"/>
</svg>
