<svg xmlns="http://www.w3.org/2000/svg" viewBox="0 0 700.000 1000" width="700.000" height="1000">
  <path d="M 445.863 480.014 L 444.863 485.091 L 443.841 490.135 L 442.798 495.145 L 441.733 500.121 L 440.648 505.062 L 439.542 509.968 L 438.415 514.837 L 437.268 519.668 L 436.100 524.462 L 434.913 529.218 L 433.706 533.934 L 432.480 538.610 L 431.235 543.246 L 429.970 547.840 L 428.687 552.392 L 427.386 556.901 L 426.066 561.366 L 424.728 565.788 L 423.373 570.164 L 422.001 574.495 L 420.612 578.779 L 419.206 583.017 L 417.784 587.207 L 416.346 591.348 L 414.892 595.441 L 413.423 599.484 L 411.939 603.476 L 410.440 607.418 L 408.927 611.308 L 407.401 615.145 L 405.861 618.930 L 404.308 622.661 L 402.742 626.338 L 401.165 629.960 L 399.576 633.527 L 397.975 637.037 L 396.364 640.491 L 394.743 643.888 L 393.112 647.227 L 391.472 650.507 L 389.824 653.728 L 388.167 656.889 L 386.503 659.991 L 384.832 663.031 L 383.155 666.011 L 381.473 668.928 L 379.785 671.784 L 378.093 674.576 L 376.398 677.305 L 374.700 679.970 L 373.000 682.571 L 371.299 685.108 L 369.598 687.579 L 367.897 689.985 L 366.197 692.326 L 364.499 694.600 L 362.805 696.807 L 361.114 698.949 L 359.429 701.023 L 357.749 703.030 L 356.077 704.970 L 354.412 706.843 L 352.757 708.649 L 351.111 710.387 L 349.477 712.058 L 347.856 713.663 L 346.247 715.200 L 344.654 716.671 L 343.076 718.076 L 341.515 719.416 L 339.971 720.691 L 338.447 721.901 L 336.943 723.047 L 335.459 724.131 L 333.998 725.154 L 332.559 726.115 L 331.144 727.017 L 329.753 727.861 L 328.387 728.647 L 327.046 729.379 L 325.731 730.056 L 324.442 730.682 L 323.179 731.257 L 321.941 731.783 L 320.729 732.262 L 319.542 732.696 L 318.378 733.087 L 317.238 733.437 L 316.120 733.747 L 315.022 734.019 L 313.942 734.254 L 312.880 734.455 L 311.833 734.623 L 310.798 734.758 L 309.774 734.863 L 308.757 734.937 L 307.746 734.981 L 306.527 734.998 L 306.379 734.998 L 306.021 734.992 L 305.662 734.983 L 305.303 734.970 L 304.943 734.953 L 304.583 734.933 L 304.222 734.908 L 303.860 734.880 L 303.498 734.848 L 303.134 734.813 L 302.769 734.773 L 302.403 734.730 L 302.035 734.682 L 301.666 734.630 L 301.295 734.575 L 300.923 734.515 L 300.549 734.451 L 300.173 734.383 L 299.794 734.311 L 299.414 734.234 L 299.032 734.153 L 298.647 734.067 L 298.260 733.977 L 297.871 733.882 L 297.479 733.783 L 297.085 733.678 L 296.688 733.569 L 296.288 733.455 L 295.885 733.336 L 295.480 733.212 L 295.072 733.083 L 294.661 732.948 L 294.247 732.808 L 293.830 732.663 L 293.409 732.512 L 292.986 732.356 L 292.560 732.194 L 292.130 732.027 L 291.698 731.853 L 291.262 731.674 L 290.823 731.488 L 290.380 731.297 L 289.935 731.099 L 289.486 730.895 L 289.034 730.685 L 288.578 730.469 L 288.120 730.246 L 287.658 730.016 L 287.193 729.780 L 286.724 729.537 L 286.252 729.288 L 285.778 729.032 L 285.299 728.768 L 284.818 728.498 L 284.333 728.221 L 283.846 727.936 L 283.355 727.645 L 282.861 727.346 L 282.363 727.040 L 281.863 726.726 L 281.360 726.405 L 280.854 726.077 L 280.344 725.741 L 279.832 725.397 L 279.317 725.046 L 278.799 724.687 L 278.278 724.321 L 277.755 723.946 L 277.228 723.564 L 276.699 723.174 L 276.168 722.776 L 275.633 722.370 L 275.096 721.956 L 274.557 721.534 L 274.015 721.104 L 273.471 720.666 L 272.924 720.220 L 272.375 719.765 L 271.823 719.302 L 271.270 718.831 L 270.714 718.352 L 270.156 717.865 L 269.596 717.369 L 269.033 716.865 L 268.469 716.353 L 267.903 715.832 L 267.335 715.303 L 266.765 714.765 L 266.194 714.219 L 265.620 713.665 L 265.045 713.102 L 264.468 712.531 L 263.890 711.951 L 263.310 711.363 L 262.728 710.767 L 262.146 710.161 L 261.561 709.548 L 260.976 708.926 L 260.389 708.295 L 259.800 707.656 L 259.211 707.008 L 258.621 706.352 L 258.029 705.688 L 257.436 705.015 L 256.842 704.333 L 256.248 703.643 L 255.652 702.944 L 255.055 702.237 L 254.458 701.522 L 253.860 700.798 L 253.261 700.065 L 252.661 699.324 L 252.061 698.575 L 251.460 697.817 L 250.859 697.050 L 250.257 696.276 L 249.654 695.493 L 249.052 694.701 L 248.448 693.901 L 247.845 693.093 L 247.241 692.276 L 246.637 691.451 L 246.032 690.617 L 245.428 689.776 L 244.823 688.926 L 244.218 688.067 L 243.613 687.201 L 243.008 686.326 L 242.403 685.443 L 241.798 684.551 L 241.193 683.652 L 240.588 682.744 L 239.984 681.828 L 239.379 680.904 L 238.775 679.972 L 238.171 679.031 L 237.567 678.083 L 236.964 677.126 L 236.313 676.085 L 235.716 675.156 L 235.097 674.242 L 234.455 673.343 L 233.791 672.460 L 233.106 671.594 L 232.400 670.745 L 231.673 669.913 L 230.926 669.100 L 230.159 668.305 L 229.373 667.529 L 228.569 666.772 L 227.746 666.036 L 226.905 665.320 L 226.046 664.625 L 225.171 663.951 L 224.280 663.299 L 223.373 662.669 L 222.451 662.061 L 221.514 661.476 L 220.563 660.915 L 219.598 660.377 L 218.621 659.862 L 217.631 659.372 L 216.630 658.906 L 215.617 658.465 L 214.594 658.049 L 213.561 657.659 L 212.519 657.293 L 211.468 656.954 L 210.409 656.640 L 209.343 656.352 L 208.270 656.091 L 207.190 655.856 L 206.106 655.647 L 205.016 655.466 L 203.923 655.311 L 202.826 655.183 L 201.726 655.081 L 200.624 655.007 L 199.521 654.960 L 198.417 654.940 L 197.312 654.947 L 196.208 654.982 L 195.105 655.043 L 194.005 655.131 L 192.906 655.247 L 191.811 655.389 L 190.720 655.558 L 189.633 655.754 L 188.551 655.977 L 187.475 656.226 L 186.405 656.501 L 185.343 656.802 L 184.288 657.130 L 183.241 657.483 L 182.204 657.862 L 181.176 658.266 L 180.159 658.695 L 179.152 659.149 L 178.157 659.628 L 177.173 660.131 L 176.203 660.658 L 175.245 661.208 L 174.302 661.782 L 173.372 662.379 L 172.458 662.999 L 171.559 663.641 L 170.676 664.304 L 169.810 664.989 L 168.961 665.696 L 168.129 666.422 L 167.316 667.169 L 166.521 667.936 L 165.745 668.722 L 164.989 669.527 L 164.252 670.350 L 163.536 671.191 L 162.841 672.049 L 162.167 672.924 L 161.515 673.816 L 160.885 674.723 L 160.278 675.645 L 159.693 676.582 L 159.131 677.533 L 158.593 678.497 L 158.079 679.475 L 157.588 680.464 L 157.123 681.466 L 156.682 682.478 L 156.266 683.501 L 155.875 684.534 L 155.510 685.577 L 155.170 686.628 L 154.856 687.686 L 154.569 688.753 L 154.307 689.826 L 154.072 690.905 L 153.864 691.990 L 153.682 693.079 L 153.527 694.173 L 153.399 695.269 L 153.298 696.369 L 153.224 697.471 L 153.177 698.575 L 153.157 699.679 L 153.164 700.783 L 153.198 701.887 L 153.259 702.990 L 153.348 704.091 L 153.463 705.189 L 153.605 706.285 L 153.775 707.376 L 153.970 708.463 L 154.193 709.545 L 154.442 710.621 L 154.717 711.690 L 155.019 712.753 L 155.346 713.808 L 155.699 714.854 L 156.078 715.891 L 156.482 716.919 L 156.911 717.937 L 157.366 718.944 L 157.844 719.939 L 158.347 720.922 L 158.874 721.893 L 159.425 722.850 L 159.999 723.794 L 160.698 724.912 L 160.794 725.066 L 161.495 726.177 L 161.593 726.332 L 162.296 727.436 L 162.396 727.592 L 163.100 728.688 L 163.201 728.845 L 163.907 729.934 L 164.009 730.091 L 164.717 731.173 L 164.821 731.331 L 165.530 732.406 L 165.636 732.565 L 166.347 733.632 L 166.454 733.792 L 167.166 734.852 L 167.275 735.013 L 167.989 736.065 L 168.100 736.227 L 168.816 737.272 L 168.927 737.434 L 169.645 738.472 L 169.758 738.635 L 170.478 739.666 L 170.593 739.830 L 171.314 740.853 L 171.430 741.017 L 172.153 742.033 L 172.271 742.199 L 172.995 743.207 L 173.116 743.373 L 173.841 744.374 L 173.963 744.541 L 174.690 745.534 L 174.814 745.702 L 175.543 746.688 L 175.668 746.857 L 176.399 747.835 L 176.526 748.005 L 177.258 748.975 L 177.387 749.146 L 178.121 750.109 L 178.252 750.280 L 178.987 751.235 L 179.120 751.408 L 179.856 752.355 L 179.991 752.529 L 180.729 753.469 L 180.866 753.643 L 181.606 754.575 L 181.745 754.750 L 182.485 755.674 L 182.627 755.850 L 183.369 756.767 L 183.512 756.944 L 184.256 757.853 L 184.402 758.030 L 185.146 758.932 L 185.294 759.110 L 186.041 760.004 L 186.191 760.183 L 186.938 761.069 L 187.091 761.248 L 187.840 762.127 L 187.994 762.307 L 188.745 763.178 L 188.901 763.359 L 189.653 764.222 L 189.812 764.404 L 190.566 765.259 L 190.727 765.441 L 191.482 766.289 L 191.646 766.472 L 192.401 767.312 L 192.568 767.496 L 193.325 768.327 L 193.494 768.512 L 194.252 769.336 L 194.424 769.521 L 195.183 770.337 L 195.357 770.523 L 196.118 771.332 L 196.295 771.518 L 197.057 772.319 L 197.236 772.506 L 198.000 773.298 L 198.182 773.486 L 198.946 774.271 L 199.131 774.459 L 199.897 775.236 L 200.084 775.425 L 200.851 776.193 L 201.041 776.383 L 201.809 777.144 L 202.002 777.334 L 202.772 778.087 L 202.968 778.277 L 203.738 779.022 L 203.937 779.213 L 204.709 779.950 L 204.910 780.141 L 205.683 780.870 L 205.888 781.062 L 206.662 781.783 L 206.869 781.975 L 207.645 782.688 L 207.855 782.881 L 208.632 783.586 L 208.845 783.779 L 209.623 784.476 L 209.839 784.669 L 210.618 785.358 L 210.838 785.551 L 211.617 786.232 L 211.841 786.426 L 212.621 787.099 L 212.848 787.292 L 213.629 787.957 L 213.859 788.151 L 214.641 788.808 L 214.874 789.002 L 215.658 789.651 L 215.894 789.845 L 216.679 790.485 L 216.919 790.680 L 217.704 791.312 L 217.947 791.506 L 218.734 792.130 L 218.981 792.325 L 219.768 792.941 L 220.018 793.135 L 220.807 793.743 L 221.060 793.937 L 221.850 794.537 L 222.107 794.731 L 222.897 795.322 L 223.158 795.516 L 223.949 796.099 L 224.213 796.293 L 225.006 796.868 L 225.274 797.061 L 226.067 797.628 L 226.338 797.821 L 227.132 798.380 L 227.407 798.572 L 228.202 799.123 L 228.481 799.314 L 229.277 799.857 L 229.560 800.048 L 230.356 800.582 L 230.643 800.773 L 231.440 801.299 L 231.730 801.488 L 232.528 802.006 L 232.822 802.195 L 233.621 802.705 L 233.919 802.893 L 234.719 803.394 L 235.021 803.582 L 235.821 804.075 L 236.127 804.261 L 236.928 804.746 L 237.237 804.931 L 238.040 805.408 L 238.353 805.592 L 239.156 806.060 L 239.473 806.244 L 240.276 806.703 L 240.597 806.885 L 241.402 807.337 L 241.727 807.518 L 242.532 807.961 L 242.861 808.140 L 243.666 808.575 L 243.999 808.753 L 244.805 809.180 L 245.142 809.356 L 245.949 809.774 L 246.290 809.949 L 247.097 810.359 L 247.442 810.532 L 248.250 810.933 L 248.599 811.105 L 249.408 811.498 L 249.760 811.667 L 250.569 812.052 L 250.926 812.219 L 251.736 812.596 L 252.096 812.761 L 252.907 813.129 L 253.270 813.293 L 254.082 813.652 L 254.449 813.813 L 255.261 814.165 L 255.633 814.324 L 256.445 814.667 L 256.820 814.823 L 257.633 815.158 L 258.012 815.312 L 258.826 815.638 L 259.208 815.789 L 260.022 816.107 L 260.409 816.256 L 261.223 816.565 L 261.613 816.711 L 262.428 817.012 L 262.821 817.155 L 263.637 817.448 L 264.034 817.588 L 264.850 817.872 L 265.250 818.010 L 266.067 818.285 L 266.470 818.420 L 267.287 818.687 L 267.694 818.818 L 268.512 819.077 L 268.922 819.205 L 269.740 819.455 L 270.153 819.579 L 270.971 819.821 L 271.388 819.943 L 272.207 820.176 L 272.627 820.294 L 273.445 820.519 L 273.868 820.633 L 274.687 820.849 L 275.113 820.960 L 275.933 821.168 L 276.362 821.274 L 277.181 821.474 L 277.613 821.577 L 278.433 821.768 L 278.867 821.867 L 279.687 822.050 L 280.124 822.145 L 280.945 822.319 L 281.384 822.410 L 282.205 822.575 L 282.647 822.662 L 283.468 822.820 L 283.912 822.902 L 284.733 823.051 L 285.179 823.130 L 286.001 823.270 L 286.449 823.344 L 287.271 823.476 L 287.721 823.546 L 288.543 823.669 L 288.995 823.734 L 289.817 823.849 L 290.271 823.910 L 291.093 824.016 L 291.549 824.073 L 292.371 824.171 L 292.828 824.223 L 293.651 824.312 L 294.109 824.359 L 294.932 824.440 L 295.391 824.483 L 296.214 824.555 L 296.675 824.593 L 297.498 824.657 L 297.959 824.690 L 298.782 824.746 L 299.245 824.774 L 300.068 824.821 L 300.531 824.845 L 301.354 824.883 L 301.818 824.903 L 302.641 824.932 L 303.106 824.947 L 303.929 824.968 L 304.394 824.978 L 305.217 824.990 L 305.682 824.995 L 306.505 824.999 L 307.391 824.995 L 309.707 824.962 L 311.013 824.924 L 313.328 824.823 L 314.630 824.747 L 316.944 824.579 L 318.238 824.466 L 320.552 824.231 L 321.836 824.081 L 324.149 823.779 L 325.420 823.594 L 327.731 823.224 L 328.987 823.005 L 331.296 822.568 L 332.534 822.316 L 334.841 821.811 L 336.059 821.528 L 338.363 820.957 L 339.559 820.643 L 341.861 820.005 L 343.033 819.663 L 345.332 818.958 L 346.478 818.590 L 348.774 817.819 L 349.893 817.426 L 352.186 816.588 L 353.276 816.173 L 355.565 815.268 L 356.627 814.832 L 358.911 813.861 L 359.943 813.407 L 362.224 812.369 L 363.225 811.899 L 365.501 810.795 L 366.471 810.309 L 368.742 809.139 L 369.682 808.641 L 371.947 807.405 L 372.856 806.896 L 375.115 805.594 L 375.993 805.075 L 378.247 803.708 L 379.095 803.181 L 381.342 801.749 L 382.159 801.215 L 384.401 799.717 L 385.188 799.179 L 387.422 797.616 L 388.181 797.074 L 390.408 795.447 L 391.138 794.902 L 393.358 793.210 L 394.060 792.664 L 396.272 790.907 L 396.947 790.361 L 399.151 788.541 L 399.799 787.995 L 401.996 786.110 L 402.618 785.566 L 404.806 783.618 L 405.404 783.076 L 407.584 781.064 L 408.157 780.525 L 410.328 778.450 L 410.878 777.914 L 413.039 775.776 L 413.568 775.245 L 415.719 773.044 L 416.226 772.517 L 418.368 770.255 L 418.854 769.733 L 420.986 767.407 L 421.452 766.891 L 423.574 764.504 L 424.021 763.993 L 426.132 761.545 L 426.561 761.039 L 428.661 758.530 L 429.072 758.031 L 431.161 755.460 L 431.556 754.967 L 433.633 752.336 L 434.011 751.850 L 436.077 749.159 L 436.440 748.679 L 438.494 745.928 L 438.843 745.454 L 440.884 742.644 L 441.218 742.177 L 443.247 739.308 L 443.568 738.847 L 445.585 735.919 L 445.893 735.466 L 447.896 732.479 L 448.192 732.032 L 450.182 728.987 L 450.466 728.547 L 452.442 725.444 L 452.715 725.011 L 454.677 721.851 L 454.940 721.424 L 456.888 718.207 L 457.140 717.787 L 459.074 714.514 L 459.316 714.099 L 461.236 710.770 L 461.469 710.362 L 463.374 706.978 L 463.597 706.576 L 465.487 703.136 L 465.702 702.740 L 467.577 699.246 L 467.784 698.856 L 469.643 695.308 L 469.842 694.924 L 471.686 691.321 L 471.877 690.943 L 473.705 687.287 L 473.889 686.915 L 475.700 683.206 L 475.878 682.839 L 477.673 679.078 L 477.843 678.717 L 479.622 674.904 L 479.786 674.548 L 481.548 670.683 L 481.706 670.332 L 483.451 666.417 L 483.603 666.071 L 485.330 662.105 L 485.477 661.764 L 487.187 657.748 L 487.328 657.412 L 489.020 653.347 L 489.157 653.016 L 490.831 648.902 L 490.962 648.575 L 492.618 644.412 L 492.745 644.090 L 494.382 639.880 L 494.504 639.562 L 496.123 635.304 L 496.241 634.991 L 497.841 630.686 L 497.955 630.377 L 499.535 626.026 L 499.645 625.721 L 501.207 621.325 L 501.313 621.023 L 502.855 616.582 L 502.957 616.284 L 504.480 611.798 L 504.579 611.504 L 506.081 606.975 L 506.177 606.684 L 507.659 602.111 L 507.751 601.824 L 509.214 597.208 L 509.303 596.925 L 510.745 592.267 L 510.831 591.987 L 512.252 587.287 L 512.335 587.011 L 513.736 582.270 L 513.816 581.996 L 515.196 577.215 L 515.273 576.945 L 516.632 572.124 L 516.707 571.856 L 518.044 566.996 L 518.116 566.732 L 519.432 561.833 L 519.502 561.571 L 520.796 556.635 L 520.864 556.376 L 522.136 551.402 L 522.201 551.145 L 523.452 546.135 L 523.515 545.881 L 524.743 540.835 L 524.804 540.583 L 526.010 535.501 L 526.069 535.253 L 527.253 530.136 L 527.309 529.889 L 528.471 524.739 L 528.525 524.494 L 529.664 519.310 L 529.716 519.068 L 530.832 513.851 L 530.883 513.611 L 531.976 508.362 L 532.025 508.125 L 533.094 502.844 L 533.142 502.609 L 534.188 497.297 L 534.234 497.064 L 535.257 491.722 L 535.301 491.490 L 536.300 486.120 L 536.342 485.890 L 537.318 480.490 L 537.359 480.262 L 538.311 474.835 L 538.350 474.608 L 539.278 469.153 L 539.316 468.928 L 540.220 463.447 L 540.257 463.224 L 541.137 457.716 L 541.172 457.495 L 542.027 451.962 L 542.061 451.742 L 542.892 446.185 L 542.925 445.966 L 543.732 440.385 L 543.762 440.167 L 544.545 434.564 L 544.575 434.347 L 545.332 428.721 L 545.361 428.506 L 546.094 422.858 L 546.121 422.644 L 546.829 416.975 L 546.855 416.763 L 547.538 411.074 L 547.563 410.862 L 548.221 405.154 L 548.245 404.943 L 548.878 399.216 L 548.900 399.007 L 549.508 393.261 L 549.530 393.053 L 550.112 387.290 L 550.132 387.083 L 550.690 381.304 L 550.709 381.097 L 551.241 375.302 L 551.259 375.096 L 551.765 369.286 L 551.783 369.081 L 552.263 363.257 L 552.279 363.053 L 552.734 357.215 L 552.750 357.011 L 553.179 351.160 L 553.194 350.957 L 553.597 345.094 L 553.610 344.892 L 553.988 339.018 L 554.001 338.816 L 554.353 332.931 L 554.364 332.730 L 554.690 326.835 L 554.701 326.635 L 555.001 320.731 L 555.011 320.531 L 555.285 314.619 L 555.294 314.419 L 555.542 308.499 L 555.550 308.300 L 555.772 302.373 L 555.779 302.174 L 555.975 296.241 L 555.981 296.043 L 556.151 290.105 L 556.156 289.906 L 556.300 283.964 L 556.304 283.765 L 556.422 277.819 L 556.425 277.621 L 556.517 271.671 L 556.520 271.473 L 556.585 265.522 L 556.587 265.324 L 556.626 259.371 L 556.627 259.173 L 556.640 253.219 L 556.638 252.999 L 556.638 252.662 L 556.584 247.432 L 556.566 246.517 L 556.406 241.290 L 556.369 240.374 L 556.103 235.153 L 556.047 234.238 L 555.675 229.027 L 555.601 228.112 L 555.123 222.913 L 555.029 221.998 L 554.446 216.815 L 554.333 215.900 L 553.645 210.736 L 553.513 209.822 L 552.719 204.679 L 552.569 203.765 L 551.671 198.648 L 551.501 197.734 L 550.499 192.645 L 550.310 191.732 L 549.205 186.674 L 548.995 185.762 L 547.788 180.738 L 547.559 179.826 L 546.249 174.840 L 546.000 173.929 L 544.590 168.983 L 544.320 168.073 L 542.809 163.170 L 542.519 162.261 L 540.909 157.404 L 540.597 156.497 L 538.889 151.690 L 538.556 150.784 L 536.751 146.028 L 536.397 145.124 L 534.495 140.424 L 534.119 139.522 L 532.122 134.879 L 531.724 133.979 L 529.633 129.397 L 529.212 128.500 L 527.029 123.981 L 526.585 123.087 L 524.311 118.634 L 523.844 117.744 L 521.480 113.359 L 520.989 112.473 L 518.536 108.160 L 518.021 107.278 L 515.481 103.038 L 514.942 102.161 L 512.317 97.998 L 511.753 97.127 L 509.044 93.043 L 508.455 92.177 L 505.664 88.174 L 505.049 87.315 L 502.178 83.397 L 501.537 82.544 L 498.587 78.712 L 497.921 77.868 L 494.893 74.124 L 494.200 73.289 L 491.097 69.636 L 490.378 68.810 L 487.202 65.250 L 486.456 64.434 L 483.208 60.969 L 482.435 60.165 L 479.118 56.797 L 478.318 56.005 L 474.933 52.736 L 474.106 51.957 L 470.656 48.790 L 469.801 48.025 L 466.287 44.961 L 465.405 44.212 L 461.830 41.253 L 460.921 40.519 L 457.287 37.667 L 456.350 36.951 L 452.659 34.207 L 451.695 33.511 L 447.950 30.877 L 446.959 30.200 L 443.161 27.678 L 442.145 27.022 L 438.296 24.613 L 437.253 23.980 L 433.357 21.685 L 432.289 21.076 L 428.348 18.898 L 427.254 18.313 L 423.270 16.252 L 422.152 15.694 L 418.127 13.752 L 416.986 13.221 L 412.923 11.398 L 411.759 10.896 L 407.660 9.195 L 406.475 8.722 L 402.342 7.143 L 401.137 6.702 L 396.974 5.245 L 395.749 4.836 L 391.557 3.503 L 390.315 3.128 L 386.097 1.919 L 384.839 1.578 L 380.597 0.495 L 379.324 0.189 L 375.062 -0.768 L 373.774 -1.038 L 369.494 -1.869 L 368.195 -2.101 L 363.900 -2.805 L 362.590 -3.000 L 358.282 -3.576 L 356.964 -3.733 L 352.645 -4.182 L 351.321 -4.299 L 346.994 -4.620 L 345.665 -4.699 L 341.333 -4.891 L 340.001 -4.931 L 335.666 -4.995 L 334.334 -4.995 L 329.999 -4.931 L 328.667 -4.891 L 324.335 -4.699 L 323.006 -4.620 L 318.679 -4.299 L 317.355 -4.182 L 313.036 -3.733 L 311.718 -3.576 L 307.410 -3.000 L 306.100 -2.805 L 301.805 -2.101 L 300.506 -1.869 L 296.226 -1.038 L 294.938 -0.768 L 290.676 0.189 L 289.403 0.495 L 285.161 1.578 L 283.903 1.919 L 279.685 3.128 L 278.443 3.503 L 274.251 4.836 L 273.026 5.245 L 268.863 6.702 L 267.658 7.143 L 263.525 8.722 L 262.340 9.195 L 258.241 10.896 L 257.077 11.398 L 253.014 13.221 L 251.873 13.752 L 247.848 15.694 L 246.730 16.252 L 242.746 18.313 L 241.652 18.898 L 237.711 21.076 L 236.643 21.685 L 232.747 23.980 L 231.704 24.613 L 227.855 27.022 L 226.839 27.678 L 223.041 30.200 L 222.050 30.877 L 218.305 33.511 L 217.341 34.207 L 213.650 36.951 L 212.713 37.667 L 209.079 40.519 L 208.170 41.253 L 204.595 44.212 L 203.713 44.961 L 200.199 48.025 L 199.344 48.790 L 195.894 51.957 L 195.067 52.736 L 191.682 56.005 L 190.882 56.797 L 187.565 60.165 L 186.792 60.969 L 183.544 64.434 L 182.798 65.250 L 179.622 68.810 L 178.903 69.636 L 175.800 73.289 L 175.107 74.124 L 172.079 77.868 L 171.413 78.712 L 168.463 82.544 L 167.822 83.397 L 164.951 87.315 L 164.336 88.174 L 161.545 92.177 L 160.956 93.043 L 158.247 97.127 L 157.683 97.998 L 155.058 102.161 L 154.519 103.038 L 151.979 107.278 L 151.464 108.160 L 149.011 112.473 L 148.520 113.359 L 146.156 117.744 L 145.689 118.634 L 143.415 123.087 L 142.971 123.981 L 140.788 128.500 L 140.367 129.397 L 138.276 133.979 L 137.878 134.879 L 135.881 139.522 L 135.505 140.424 L 133.603 145.124 L 133.249 146.028 L 131.444 150.784 L 131.111 151.690 L 129.403 156.497 L 129.091 157.404 L 127.481 162.261 L 127.191 163.170 L 125.680 168.073 L 125.410 168.983 L 124.000 173.929 L 123.751 174.840 L 122.441 179.826 L 122.212 180.738 L 121.005 185.762 L 120.795 186.674 L 119.690 191.732 L 119.501 192.645 L 118.499 197.734 L 118.329 198.648 L 117.431 203.765 L 117.281 204.679 L 116.487 209.822 L 116.355 210.736 L 115.667 215.900 L 115.554 216.815 L 114.971 221.998 L 114.877 222.913 L 114.399 228.112 L 114.325 229.027 L 113.953 234.238 L 113.897 235.153 L 113.631 240.374 L 113.594 241.290 L 113.434 246.517 L 113.416 247.432 L 113.362 252.662 L 113.362 253.578 L 113.416 258.808 L 113.434 259.723 L 113.594 264.950 L 113.631 265.866 L 113.897 271.087 L 113.953 272.002 L 114.325 277.213 L 114.399 278.128 L 114.877 283.327 L 114.971 284.242 L 115.554 289.425 L 115.667 290.340 L 116.355 295.504 L 116.487 296.418 L 117.281 301.561 L 117.431 302.475 L 118.329 307.592 L 118.499 308.506 L 119.501 313.595 L 119.690 314.508 L 120.795 319.566 L 121.005 320.478 L 122.212 325.502 L 122.441 326.414 L 123.751 331.400 L 124.000 332.311 L 125.410 337.257 L 125.680 338.167 L 127.191 343.070 L 127.481 343.979 L 129.091 348.836 L 129.403 349.743 L 131.111 354.550 L 131.444 355.456 L 133.249 360.212 L 133.603 361.116 L 135.505 365.816 L 135.881 366.718 L 137.878 371.361 L 138.276 372.261 L 140.367 376.843 L 140.788 377.740 L 142.971 382.259 L 143.415 383.153 L 145.689 387.606 L 146.156 388.496 L 148.520 392.881 L 149.011 393.767 L 151.464 398.080 L 151.979 398.962 L 154.519 403.202 L 155.058 404.079 L 157.683 408.242 L 158.247 409.113 L 160.956 413.197 L 161.545 414.063 L 164.336 418.066 L 164.951 418.925 L 167.822 422.843 L 168.463 423.696 L 171.413 427.528 L 172.079 428.372 L 175.107 432.116 L 175.800 432.951 L 178.903 436.604 L 179.622 437.430 L 182.798 440.990 L 183.544 441.806 L 186.792 445.271 L 187.565 446.075 L 190.882 449.443 L 191.682 450.235 L 195.067 453.504 L 195.894 454.283 L 199.344 457.450 L 200.199 458.215 L 203.713 461.279 L 204.595 462.028 L 208.170 464.987 L 209.079 465.721 L 212.713 468.573 L 213.650 469.289 L 217.341 472.033 L 218.305 472.729 L 222.050 475.363 L 223.041 476.040 L 226.839 478.562 L 227.855 479.218 L 231.704 481.627 L 232.747 482.260 L 236.643 484.555 L 237.711 485.164 L 241.652 487.342 L 242.746 487.927 L 246.730 489.988 L 247.848 490.546 L 251.873 492.488 L 253.014 493.019 L 257.077 494.842 L 258.241 495.344 L 262.340 497.045 L 263.525 497.518 L 267.658 499.097 L 268.863 499.538 L 273.026 500.995 L 274.251 501.404 L 278.443 502.737 L 279.685 503.112 L 283.903 504.321 L 285.161 504.662 L 289.403 505.745 L 290.676 506.051 L 294.938 507.008 L 296.226 507.278 L 300.506 508.109 L 301.805 508.341 L 306.100 509.045 L 307.410 509.240 L 311.718 509.816 L 313.036 509.973 L 317.355 510.422 L 318.679 510.539 L 323.006 510.860 L 324.335 510.939 L 328.667 511.131 L 329.999 511.171 L 334.334 511.235 L 335.666 511.235 L 340.001 511.171 L 341.333 511.131 L 345.665 510.939 L 346.994 510.860 L 351.321 510.539 L 352.645 510.422 L 356.964 509.973 L 358.282 509.816 L 362.590 509.240 L 363.900 509.045 L 368.195 508.341 L 369.494 508.109 L 373.774 507.278 L 375.062 507.008 L 379.324 506.051 L 380.597 505.745 L 384.839 504.662 L 386.097 504.321 L 390.315 503.112 L 391.557 502.737 L 395.749 501.404 L 396.974 500.995 L 401.137 499.538 L 402.342 499.097 L 406.475 497.518 L 407.660 497.045 L 411.759 495.344 L 412.923 494.842 L 416.986 493.019 L 418.127 492.488 L 422.152 490.546 L 423.270 489.988 L 427.254 487.927 L 428.348 487.342 L 432.289 485.164 L 433.357 484.555 L 437.253 482.260 L 438.296 481.627 L 442.145 479.218 L 443.161 478.562 L 446.576 476.295 L 445.863 480.014 Z M 203.406 248.805 L 203.538 244.494 L 203.757 240.188 L 204.064 235.892 L 204.457 231.609 L 204.938 227.341 L 205.505 223.091 L 206.157 218.863 L 206.895 214.660 L 207.716 210.484 L 208.622 206.339 L 209.610 202.228 L 210.680 198.153 L 211.831 194.118 L 213.061 190.124 L 214.370 186.176 L 215.756 182.275 L 217.217 178.425 L 218.754 174.627 L 220.363 170.885 L 222.043 167.201 L 223.794 163.577 L 225.612 160.016 L 227.498 156.520 L 229.447 153.092 L 231.460 149.732 L 233.533 146.444 L 235.666 143.230 L 237.855 140.090 L 240.099 137.028 L 242.397 134.044 L 244.745 131.141 L 247.142 128.319 L 249.586 125.580 L 252.074 122.925 L 254.605 120.356 L 257.175 117.874 L 259.784 115.479 L 262.429 113.172 L 265.108 110.954 L 267.819 108.827 L 270.560 106.789 L 273.328 104.842 L 276.122 102.987 L 278.940 101.223 L 281.781 99.550 L 284.641 97.969 L 287.521 96.480 L 290.417 95.083 L 293.328 93.777 L 296.253 92.563 L 299.191 91.440 L 302.140 90.408 L 305.099 89.467 L 308.066 88.617 L 311.041 87.857 L 314.023 87.188 L 317.010 86.608 L 320.001 86.118 L 322.997 85.717 L 325.995 85.405 L 328.995 85.183 L 331.997 85.049 L 335.000 85.005 L 338.003 85.049 L 341.005 85.183 L 344.005 85.405 L 347.003 85.717 L 349.999 86.118 L 352.990 86.608 L 355.977 87.188 L 358.959 87.857 L 361.934 88.617 L 364.901 89.467 L 367.860 90.408 L 370.809 91.440 L 373.747 92.563 L 376.672 93.777 L 379.583 95.083 L 382.479 96.480 L 385.359 97.969 L 388.219 99.550 L 391.060 101.223 L 393.878 102.987 L 396.672 104.842 L 399.440 106.789 L 402.181 108.827 L 404.892 110.954 L 407.571 113.172 L 410.216 115.479 L 412.825 117.874 L 415.395 120.356 L 417.926 122.925 L 420.414 125.580 L 422.858 128.319 L 425.255 131.141 L 427.603 134.044 L 429.901 137.028 L 432.145 140.090 L 434.334 143.230 L 436.467 146.444 L 438.540 149.732 L 440.553 153.092 L 442.502 156.520 L 444.388 160.016 L 446.206 163.577 L 447.957 167.201 L 449.637 170.885 L 451.246 174.627 L 452.783 178.425 L 454.244 182.275 L 455.630 186.176 L 456.939 190.124 L 458.169 194.118 L 459.320 198.153 L 460.390 202.228 L 461.378 206.339 L 462.284 210.484 L 463.105 214.660 L 463.843 218.863 L 464.495 223.091 L 465.062 227.341 L 465.543 231.609 L 465.936 235.892 L 466.243 240.188 L 466.462 244.494 L 466.594 248.805 L 466.638 253.120 L 466.594 257.435 L 466.462 261.746 L 466.243 266.052 L 465.936 270.348 L 465.543 274.631 L 465.062 278.899 L 464.495 283.149 L 463.843 287.377 L 463.105 291.580 L 462.284 295.756 L 461.378 299.901 L 460.390 304.012 L 459.320 308.087 L 458.169 312.122 L 456.939 316.116 L 455.630 320.064 L 454.244 323.965 L 452.783 327.815 L 451.246 331.613 L 449.637 335.355 L 447.957 339.039 L 446.206 342.663 L 444.388 346.224 L 442.502 349.720 L 440.553 353.148 L 438.540 356.508 L 436.467 359.796 L 434.334 363.010 L 432.145 366.150 L 429.901 369.212 L 427.603 372.196 L 425.255 375.099 L 422.858 377.921 L 420.414 380.660 L 417.926 383.315 L 415.395 385.884 L 412.825 388.366 L 410.216 390.761 L 407.571 393.068 L 404.892 395.286 L 402.181 397.413 L 399.440 399.451 L 396.672 401.398 L 393.878 403.253 L 391.060 405.017 L 388.219 406.690 L 385.359 408.271 L 382.479 409.760 L 379.583 411.157 L 376.672 412.463 L 373.747 413.677 L 370.809 414.800 L 367.860 415.832 L 364.901 416.773 L 361.934 417.623 L 358.959 418.383 L 355.977 419.052 L 352.990 419.632 L 349.999 420.122 L 347.003 420.523 L 344.005 420.835 L 341.005 421.057 L 338.003 421.191 L 335.000 421.235 L 331.997 421.191 L 328.995 421.057 L 325.995 420.835 L 322.997 420.523 L 320.001 420.122 L 317.010 419.632 L 314.023 419.052 L 311.041 418.383 L 308.066 417.623 L 305.099 416.773 L 302.140 415.832 L 299.191 414.800 L 296.253 413.677 L 293.328 412.463 L 290.417 411.157 L 287.521 409.760 L 284.641 408.271 L 281.781 406.690 L 278.940 405.017 L 276.122 403.253 L 273.328 401.398 L 270.560 399.451 L 267.819 397.413 L 265.108 395.286 L 262.429 393.068 L 259.784 390.761 L 257.175 388.366 L 254.605 385.884 L 252.074 383.315 L 249.586 380.660 L 247.142 377.921 L 244.745 375.099 L 242.397 372.196 L 240.099 369.212 L 237.855 366.150 L 235.666 363.010 L 233.533 359.796 L 231.460 356.508 L 229.447 353.148 L 227.498 349.720 L 225.612 346.224 L 223.794 342.663 L 222.043 339.039 L 220.363 335.355 L 218.754 331.613 L 217.217 327.815 L 215.756 323.965 L 214.370 320.064 L 213.061 316.116 L 211.831 312.122 L 210.680 308.087 L 209.610 304.012 L 208.622 299.901 L 207.716 295.756 L 206.895 291.580 L 206.157 287.377 L 205.505 283.149 L 204.938 278.899 L 204.457 274.631 L 204.064 270.348 L 203.757 266.052 L 203.538 261.746 L 203.406 257.435 L 203.362 253.120 L 203.406 248.805 Z" fill="black" fill-rule="evenodd"/>
</svg>
