<svg xmlns="http://www.w3.org/2000/svg" viewBox="0 0 780.000 1000">
  <path d="M 694.000 605.000 L 695.104 604.986 L 696.208 604.946 L 697.310 604.878 L 698.411 604.783 L 699.508 604.662 L 700.603 604.513 L 701.693 604.337 L 702.779 604.135 L 703.860 603.907 L 704.934 603.651 L 706.002 603.370 L 707.063 603.062 L 708.116 602.729 L 709.160 602.369 L 710.195 601.985 L 711.221 601.575 L 712.236 601.139 L 713.240 600.680 L 714.233 600.195 L 715.213 599.686 L 716.180 599.154 L 717.135 598.598 L 718.075 598.018 L 719.001 597.416 L 719.911 596.791 L 720.806 596.144 L 721.685 595.476 L 722.548 594.785 L 723.393 594.074 L 724.220 593.343 L 725.029 592.591 L 725.820 591.820 L 726.591 591.029 L 727.343 590.220 L 728.074 589.393 L 728.785 588.548 L 729.476 587.685 L 730.144 586.806 L 730.791 585.911 L 731.416 585.001 L 732.018 584.075 L 732.598 583.135 L 733.154 582.180 L 733.686 581.213 L 734.195 580.233 L 734.680 579.240 L 735.139 578.236 L 735.575 577.221 L 735.985 576.195 L 736.369 575.160 L 736.729 574.116 L 737.062 573.063 L 737.370 572.002 L 737.651 570.934 L 737.907 569.860 L 738.135 568.779 L 738.337 567.693 L 738.513 566.603 L 738.662 565.508 L 738.783 564.411 L 738.878 563.310 L 738.946 562.208 L 738.986 561.104 L 739.000 560.000 L 738.986 558.896 L 738.946 557.792 L 738.878 556.690 L 738.783 555.589 L 738.662 554.492 L 738.513 553.397 L 738.337 552.307 L 738.135 551.221 L 737.907 550.140 L 737.651 549.066 L 737.370 547.998 L 737.062 546.937 L 736.729 545.884 L 736.369 544.840 L 735.985 543.805 L 735.575 542.779 L 735.139 541.764 L 734.680 540.760 L 734.195 539.767 L 733.686 538.787 L 733.154 537.820 L 732.598 536.865 L 732.018 535.925 L 731.416 534.999 L 730.791 534.089 L 730.144 533.194 L 729.476 532.315 L 728.785 531.452 L 728.074 530.607 L 727.343 529.780 L 726.591 528.971 L 725.820 528.180 L 725.029 527.409 L 724.220 526.657 L 723.393 525.926 L 722.548 525.215 L 721.685 524.524 L 720.806 523.856 L 719.911 523.209 L 719.001 522.584 L 718.075 521.982 L 717.135 521.402 L 716.180 520.846 L 715.213 520.314 L 714.233 519.805 L 713.240 519.320 L 712.236 518.861 L 711.221 518.425 L 710.195 518.015 L 709.160 517.631 L 708.116 517.271 L 707.063 516.938 L 706.002 516.630 L 704.934 516.349 L 703.860 516.093 L 702.779 515.865 L 701.693 515.663 L 700.603 515.487 L 699.508 515.338 L 698.411 515.217 L 697.310 515.122 L 696.208 515.054 L 695.104 515.014 L 694.000 515.000 L 86.000 515.000 L 84.896 515.014 L 83.792 515.054 L 82.690 515.122 L 81.589 515.217 L 80.492 515.338 L 79.397 515.487 L 78.307 515.663 L 77.221 515.865 L 76.140 516.093 L 75.066 516.349 L 73.998 516.630 L 72.937 516.938 L 71.884 517.271 L 70.840 517.631 L 69.805 518.015 L 68.779 518.425 L 67.764 518.861 L 66.760 519.320 L 65.767 519.805 L 64.787 520.314 L 63.820 520.846 L 62.865 521.402 L 61.925 521.982 L 60.999 522.584 L 60.089 523.209 L 59.194 523.856 L 58.315 524.524 L 57.452 525.215 L 56.607 525.926 L 55.780 526.657 L 54.971 527.409 L 54.180 528.180 L 53.409 528.971 L 52.657 529.780 L 51.926 530.607 L 51.215 531.452 L 50.524 532.315 L 49.856 533.194 L 49.209 534.089 L 48.584 534.999 L 47.982 535.925 L 47.402 536.865 L 46.846 537.820 L 46.314 538.787 L 45.805 539.767 L 45.320 540.760 L 44.861 541.764 L 44.425 542.779 L 44.015 543.805 L 43.631 544.840 L 43.271 545.884 L 42.938 546.937 L 42.630 547.998 L 42.349 549.066 L 42.093 550.140 L 41.865 551.221 L 41.663 552.307 L 41.487 553.397 L 41.338 554.492 L 41.217 555.589 L 41.122 556.690 L 41.054 557.792 L 41.014 558.896 L 41.000 560.000 L 41.014 561.104 L 41.054 562.208 L 41.122 563.310 L 41.217 564.411 L 41.338 565.508 L 41.487 566.603 L 41.663 567.693 L 41.865 568.779 L 42.093 569.860 L 42.349 570.934 L 42.630 572.002 L 42.938 573.063 L 43.271 574.116 L 43.631 575.160 L 44.015 576.195 L 44.425 577.221 L 44.861 578.236 L 45.320 579.240 L 45.805 580.233 L 46.314 581.213 L 46.846 582.180 L 47.402 583.135 L 47.982 584.075 L 48.584 585.001 L 49.209 585.911 L 49.856 586.806 L 50.524 587.685 L 51.215 588.548 L 51.926 589.393 L 52.657 590.220 L 53.409 591.029 L 54.180 591.820 L 54.971 592.591 L 55.780 593.343 L 56.607 594.074 L 57.452 594.785 L 58.315 595.476 L 59.194 596.144 L 60.089 596.791 L 60.999 597.416 L 61.925 598.018 L 62.865 598.598 L 63.820 599.154 L 64.787 599.686 L 65.767 600.195 L 66.760 600.680 L 67.764 601.139 L 68.779 601.575 L 69.805 601.985 L 70.840 602.369 L 71.884 602.729 L 72.937 603.062 L 73.998 603.370 L 75.066 603.651 L 76.140 603.907 L 77.221 604.135 L 78.307 604.337 L 79.397 604.513 L 80.492 604.662 L 81.589 604.783 L 82.690 604.878 L 83.792 604.946 L 84.896 604.986 L 86.000 605.000 L 694.000 605.000 Z" fill="black" fill-rule="evenodd"/>
</svg>
