<svg xmlns="http://www.w3.org/2000/svg" viewBox="0 0 700.000 1000" width="700.000" height="1000">
  <path d="M 275.390 268.506 L 276.714 265.275 L 278.055 262.081 L 279.410 258.922 L 280.781 255.801 L 282.166 252.717 L 283.566 249.670 L 284.980 246.663 L 286.408 243.694 L 287.849 240.764 L 289.302 237.875 L 290.769 235.025 L 292.247 232.217 L 293.737 229.449 L 295.239 226.723 L 296.751 224.039 L 298.274 221.397 L 299.806 218.798 L 301.348 216.243 L 302.900 213.730 L 304.459 211.262 L 306.027 208.838 L 307.603 206.459 L 309.185 204.124 L 310.774 201.835 L 312.369 199.591 L 313.969 197.393 L 315.575 195.242 L 317.185 193.136 L 318.798 191.077 L 320.415 189.065 L 322.034 187.100 L 323.656 185.182 L 325.279 183.312 L 326.903 181.489 L 328.527 179.713 L 330.150 177.985 L 331.773 176.305 L 333.394 174.672 L 335.013 173.087 L 336.629 171.550 L 338.242 170.060 L 339.851 168.617 L 341.454 167.222 L 343.053 165.874 L 344.646 164.573 L 346.232 163.319 L 347.812 162.111 L 349.384 160.950 L 350.948 159.834 L 352.503 158.763 L 354.049 157.737 L 355.586 156.756 L 357.113 155.819 L 358.630 154.926 L 360.136 154.075 L 361.632 153.266 L 363.116 152.500 L 364.589 151.774 L 366.051 151.088 L 367.501 150.443 L 368.940 149.836 L 370.367 149.267 L 371.783 148.736 L 373.188 148.242 L 374.582 147.784 L 375.966 147.361 L 377.340 146.973 L 378.704 146.619 L 380.058 146.298 L 381.405 146.009 L 382.743 145.753 L 384.074 145.528 L 385.399 145.334 L 386.718 145.171 L 388.033 145.038 L 389.344 144.935 L 390.652 144.861 L 391.957 144.817 L 393.417 144.801 L 393.770 144.803 L 394.277 144.809 L 394.785 144.820 L 395.293 144.836 L 395.801 144.856 L 396.309 144.880 L 396.817 144.909 L 397.326 144.943 L 397.836 144.980 L 398.346 145.023 L 398.856 145.070 L 399.368 145.121 L 399.879 145.177 L 400.392 145.237 L 400.905 145.303 L 401.419 145.372 L 401.934 145.447 L 402.450 145.526 L 402.967 145.609 L 403.485 145.698 L 404.004 145.791 L 404.524 145.889 L 405.045 145.992 L 405.568 146.099 L 406.091 146.212 L 406.616 146.329 L 407.142 146.452 L 407.670 146.579 L 408.199 146.711 L 408.729 146.849 L 409.261 146.991 L 409.794 147.139 L 410.329 147.292 L 410.865 147.450 L 411.403 147.613 L 411.942 147.782 L 412.483 147.956 L 413.026 148.135 L 413.570 148.320 L 414.116 148.510 L 414.663 148.706 L 415.212 148.907 L 415.763 149.114 L 416.315 149.327 L 416.870 149.545 L 417.426 149.769 L 417.983 149.998 L 418.543 150.234 L 419.104 150.475 L 419.667 150.723 L 420.231 150.976 L 420.798 151.235 L 421.366 151.500 L 421.936 151.772 L 422.507 152.049 L 423.080 152.333 L 423.655 152.622 L 424.232 152.918 L 424.810 153.221 L 425.390 153.529 L 425.972 153.844 L 426.555 154.165 L 427.140 154.493 L 427.727 154.827 L 428.315 155.167 L 428.905 155.515 L 429.496 155.868 L 430.089 156.228 L 430.683 156.595 L 431.279 156.969 L 431.876 157.349 L 432.475 157.736 L 433.075 158.129 L 433.677 158.529 L 434.280 158.936 L 434.885 159.350 L 435.490 159.771 L 436.097 160.199 L 436.706 160.633 L 437.315 161.075 L 437.926 161.523 L 438.538 161.978 L 439.151 162.440 L 439.765 162.910 L 440.380 163.386 L 440.996 163.869 L 441.614 164.359 L 442.232 164.857 L 442.851 165.361 L 443.471 165.873 L 444.092 166.391 L 444.714 166.917 L 445.337 167.450 L 445.961 167.990 L 446.585 168.537 L 447.210 169.091 L 447.835 169.653 L 448.462 170.221 L 449.089 170.797 L 449.716 171.380 L 450.344 171.970 L 450.972 172.568 L 451.601 173.172 L 452.231 173.784 L 452.860 174.403 L 453.491 175.029 L 454.121 175.663 L 454.752 176.303 L 455.383 176.951 L 456.014 177.606 L 456.645 178.268 L 457.276 178.938 L 457.908 179.614 L 458.539 180.298 L 459.171 180.989 L 459.803 181.688 L 460.434 182.393 L 461.066 183.106 L 461.697 183.825 L 462.328 184.552 L 462.959 185.286 L 463.590 186.028 L 464.220 186.776 L 464.851 187.532 L 465.480 188.294 L 466.110 189.064 L 466.739 189.841 L 467.368 190.625 L 467.996 191.416 L 468.624 192.214 L 469.251 193.019 L 469.877 193.832 L 470.503 194.651 L 471.129 195.477 L 471.753 196.311 L 472.377 197.151 L 473.000 197.998 L 473.623 198.852 L 474.303 199.794 L 474.960 200.682 L 475.639 201.553 L 476.339 202.407 L 477.060 203.244 L 477.801 204.063 L 478.563 204.863 L 479.343 205.644 L 480.142 206.407 L 480.960 207.149 L 481.796 207.871 L 482.649 208.572 L 483.520 209.252 L 484.406 209.910 L 485.309 210.547 L 486.227 211.161 L 487.160 211.752 L 488.107 212.321 L 489.067 212.866 L 490.041 213.387 L 491.027 213.884 L 492.025 214.357 L 493.035 214.805 L 494.055 215.228 L 495.085 215.626 L 496.125 215.999 L 497.173 216.346 L 498.230 216.667 L 499.294 216.963 L 500.365 217.232 L 501.443 217.474 L 502.526 217.690 L 503.614 217.880 L 504.706 218.043 L 505.802 218.179 L 506.901 218.287 L 508.003 218.369 L 509.106 218.424 L 510.210 218.452 L 511.314 218.453 L 512.418 218.426 L 513.522 218.373 L 514.623 218.292 L 515.722 218.185 L 516.819 218.050 L 517.911 217.889 L 518.999 217.701 L 520.083 217.486 L 521.161 217.244 L 522.232 216.977 L 523.297 216.683 L 524.354 216.363 L 525.403 216.017 L 526.443 215.646 L 527.473 215.249 L 528.494 214.827 L 529.504 214.380 L 530.503 213.908 L 531.489 213.412 L 532.464 212.892 L 533.425 212.348 L 534.373 211.781 L 535.306 211.191 L 536.225 210.578 L 537.128 209.942 L 538.016 209.285 L 538.887 208.606 L 539.741 207.906 L 540.578 207.185 L 541.397 206.444 L 542.197 205.683 L 542.978 204.902 L 543.740 204.103 L 544.483 203.285 L 545.204 202.449 L 545.906 201.596 L 546.586 200.726 L 547.244 199.839 L 547.881 198.936 L 548.495 198.018 L 549.086 197.086 L 549.655 196.139 L 550.200 195.178 L 550.721 194.204 L 551.218 193.218 L 551.691 192.220 L 552.139 191.211 L 552.562 190.190 L 552.960 189.160 L 553.333 188.121 L 553.680 187.072 L 554.001 186.015 L 554.297 184.951 L 554.566 183.880 L 554.808 182.803 L 555.024 181.720 L 555.214 180.631 L 555.377 179.539 L 555.512 178.443 L 555.621 177.344 L 555.703 176.243 L 555.758 175.139 L 555.786 174.035 L 555.787 172.931 L 555.760 171.827 L 555.707 170.724 L 555.626 169.622 L 555.518 168.523 L 555.384 167.427 L 555.223 166.334 L 555.034 165.246 L 554.820 164.163 L 554.578 163.085 L 554.311 162.013 L 554.017 160.949 L 553.697 159.892 L 553.351 158.843 L 552.979 157.803 L 552.583 156.772 L 552.161 155.751 L 551.714 154.741 L 551.242 153.743 L 550.746 152.756 L 550.226 151.782 L 549.682 150.820 L 549.115 149.873 L 548.525 148.939 L 547.912 148.020 L 547.276 147.117 L 546.537 146.094 L 546.420 145.931 L 545.679 144.914 L 545.559 144.751 L 544.816 143.741 L 544.695 143.577 L 543.950 142.573 L 543.827 142.410 L 543.080 141.412 L 542.956 141.248 L 542.206 140.257 L 542.081 140.092 L 541.329 139.108 L 541.202 138.942 L 540.448 137.965 L 540.319 137.799 L 539.563 136.828 L 539.433 136.662 L 538.674 135.697 L 538.542 135.531 L 537.782 134.573 L 537.648 134.406 L 536.886 133.454 L 536.751 133.287 L 535.986 132.342 L 535.849 132.174 L 535.082 131.236 L 534.944 131.068 L 534.175 130.137 L 534.035 129.968 L 533.264 129.044 L 533.122 128.875 L 532.349 127.957 L 532.205 127.788 L 531.430 126.877 L 531.285 126.707 L 530.508 125.803 L 530.361 125.632 L 529.582 124.735 L 529.433 124.564 L 528.652 123.674 L 528.501 123.503 L 527.718 122.619 L 527.565 122.448 L 526.780 121.571 L 526.626 121.399 L 525.839 120.529 L 525.683 120.357 L 524.894 119.494 L 524.736 119.322 L 523.945 118.466 L 523.785 118.293 L 522.992 117.444 L 522.830 117.271 L 522.035 116.429 L 521.871 116.256 L 521.075 115.420 L 520.909 115.247 L 520.110 114.419 L 519.942 114.245 L 519.142 113.424 L 518.972 113.250 L 518.170 112.435 L 517.998 112.261 L 517.194 111.454 L 517.020 111.280 L 516.215 110.479 L 516.038 110.305 L 515.231 109.511 L 515.053 109.337 L 514.244 108.551 L 514.063 108.376 L 513.252 107.597 L 513.070 107.422 L 512.257 106.650 L 512.072 106.475 L 511.258 105.710 L 511.071 105.535 L 510.255 104.777 L 510.066 104.602 L 509.248 103.851 L 509.057 103.676 L 508.238 102.932 L 508.044 102.757 L 507.223 102.021 L 507.027 101.846 L 506.204 101.116 L 506.006 100.941 L 505.182 100.219 L 504.981 100.044 L 504.155 99.329 L 503.952 99.154 L 503.125 98.447 L 502.920 98.272 L 502.091 97.571 L 501.883 97.397 L 501.053 96.703 L 500.842 96.529 L 500.011 95.843 L 499.798 95.668 L 498.965 94.990 L 498.750 94.815 L 497.915 94.144 L 497.697 93.970 L 496.861 93.306 L 496.641 93.132 L 495.803 92.475 L 495.581 92.302 L 494.741 91.652 L 494.516 91.479 L 493.676 90.837 L 493.448 90.664 L 492.606 90.030 L 492.376 89.857 L 491.533 89.230 L 491.300 89.058 L 490.455 88.438 L 490.220 88.266 L 489.374 87.653 L 489.136 87.482 L 488.289 86.877 L 488.048 86.706 L 487.199 86.108 L 486.956 85.938 L 486.106 85.348 L 485.861 85.179 L 485.009 84.595 L 484.761 84.427 L 483.908 83.851 L 483.657 83.683 L 482.803 83.115 L 482.550 82.947 L 481.695 82.387 L 481.438 82.220 L 480.582 81.667 L 480.323 81.501 L 479.465 80.955 L 479.204 80.790 L 478.345 80.251 L 478.081 80.087 L 477.221 79.556 L 476.954 79.393 L 476.093 78.870 L 475.823 78.707 L 474.961 78.191 L 474.688 78.030 L 473.825 77.522 L 473.550 77.361 L 472.685 76.861 L 472.408 76.701 L 471.542 76.208 L 471.262 76.050 L 470.395 75.564 L 470.112 75.407 L 469.244 74.929 L 468.958 74.773 L 468.089 74.303 L 467.801 74.148 L 466.931 73.685 L 466.640 73.532 L 465.769 73.077 L 465.475 72.924 L 464.603 72.477 L 464.306 72.326 L 463.433 71.886 L 463.134 71.737 L 462.260 71.304 L 461.958 71.156 L 461.084 70.732 L 460.779 70.585 L 459.903 70.168 L 459.596 70.024 L 458.719 69.614 L 458.410 69.471 L 457.532 69.069 L 457.220 68.928 L 456.341 68.534 L 456.026 68.394 L 455.147 68.008 L 454.829 67.870 L 453.949 67.491 L 453.629 67.355 L 452.748 66.984 L 452.425 66.849 L 451.543 66.486 L 451.218 66.353 L 450.335 65.998 L 450.008 65.867 L 449.124 65.520 L 448.794 65.391 L 447.910 65.051 L 447.577 64.924 L 446.692 64.592 L 446.357 64.468 L 445.471 64.143 L 445.134 64.021 L 444.248 63.704 L 443.908 63.584 L 443.021 63.275 L 442.678 63.157 L 441.791 62.856 L 441.446 62.740 L 440.558 62.446 L 440.211 62.333 L 439.322 62.047 L 438.973 61.937 L 438.083 61.659 L 437.732 61.550 L 436.842 61.280 L 436.488 61.174 L 435.598 60.912 L 435.242 60.808 L 434.351 60.554 L 433.993 60.453 L 433.101 60.206 L 432.741 60.108 L 431.849 59.869 L 431.487 59.774 L 430.594 59.542 L 430.231 59.449 L 429.337 59.226 L 428.972 59.136 L 428.078 58.920 L 427.711 58.833 L 426.816 58.625 L 426.447 58.541 L 425.552 58.341 L 425.182 58.260 L 424.286 58.067 L 423.914 57.989 L 423.018 57.804 L 422.644 57.729 L 421.748 57.552 L 421.372 57.480 L 420.476 57.311 L 420.099 57.242 L 419.202 57.081 L 418.823 57.014 L 417.926 56.861 L 417.546 56.798 L 416.649 56.652 L 416.267 56.592 L 415.370 56.455 L 414.987 56.398 L 414.089 56.268 L 413.705 56.215 L 412.807 56.093 L 412.422 56.042 L 411.523 55.928 L 411.138 55.881 L 410.239 55.775 L 409.852 55.731 L 408.953 55.633 L 408.565 55.592 L 407.666 55.502 L 407.277 55.464 L 406.377 55.382 L 405.988 55.348 L 405.088 55.273 L 404.698 55.242 L 403.798 55.175 L 403.408 55.148 L 402.508 55.089 L 402.116 55.065 L 401.216 55.014 L 400.825 54.993 L 399.924 54.950 L 399.532 54.933 L 398.632 54.898 L 398.239 54.884 L 397.339 54.856 L 396.946 54.846 L 396.046 54.826 L 395.653 54.820 L 394.752 54.808 L 394.359 54.804 L 393.459 54.800 L 392.757 54.803 L 390.442 54.829 L 389.431 54.852 L 387.116 54.930 L 386.108 54.975 L 383.793 55.105 L 382.788 55.173 L 380.475 55.355 L 379.474 55.445 L 377.161 55.679 L 376.166 55.790 L 373.855 56.076 L 372.867 56.210 L 370.558 56.547 L 369.577 56.702 L 367.270 57.091 L 366.299 57.266 L 363.994 57.708 L 363.033 57.903 L 360.730 58.396 L 359.780 58.610 L 357.481 59.155 L 356.543 59.388 L 354.247 59.985 L 353.321 60.236 L 351.028 60.884 L 350.116 61.152 L 347.828 61.851 L 346.930 62.136 L 344.646 62.887 L 343.763 63.187 L 341.483 63.989 L 340.615 64.304 L 338.340 65.158 L 337.489 65.487 L 335.218 66.391 L 334.384 66.733 L 332.119 67.688 L 331.301 68.043 L 329.041 69.049 L 328.241 69.415 L 325.987 70.471 L 325.204 70.848 L 322.956 71.955 L 322.191 72.342 L 319.949 73.499 L 319.202 73.895 L 316.967 75.103 L 316.237 75.506 L 314.010 76.764 L 313.298 77.175 L 311.078 78.483 L 310.383 78.901 L 308.171 80.258 L 307.494 80.682 L 305.290 82.089 L 304.631 82.518 L 302.434 83.975 L 301.793 84.408 L 299.605 85.914 L 298.981 86.352 L 296.801 87.907 L 296.194 88.348 L 294.024 89.952 L 293.434 90.395 L 291.273 92.048 L 290.700 92.494 L 288.548 94.195 L 287.991 94.642 L 285.849 96.392 L 285.308 96.841 L 283.177 98.638 L 282.652 99.088 L 280.530 100.933 L 280.021 101.383 L 277.910 103.275 L 277.415 103.725 L 275.316 105.665 L 274.836 106.115 L 272.747 108.102 L 272.282 108.551 L 270.205 110.585 L 269.753 111.033 L 267.688 113.113 L 267.250 113.560 L 265.197 115.686 L 264.772 116.132 L 262.731 118.304 L 262.320 118.748 L 260.291 120.966 L 259.893 121.407 L 257.877 123.671 L 257.490 124.110 L 255.487 126.419 L 255.113 126.856 L 253.123 129.210 L 252.761 129.644 L 250.784 132.042 L 250.433 132.474 L 248.470 134.916 L 248.130 135.345 L 246.181 137.831 L 245.852 138.257 L 243.917 140.787 L 243.598 141.210 L 241.678 143.784 L 241.368 144.203 L 239.463 146.820 L 239.164 147.236 L 237.273 149.895 L 236.983 150.309 L 235.108 153.010 L 234.827 153.420 L 232.967 156.163 L 232.695 156.570 L 230.851 159.354 L 230.587 159.758 L 228.760 162.584 L 228.504 162.984 L 226.692 165.850 L 226.444 166.247 L 224.649 169.154 L 224.409 169.548 L 222.631 172.495 L 222.398 172.885 L 220.637 175.872 L 220.411 176.259 L 218.667 179.285 L 218.448 179.668 L 216.721 182.734 L 216.510 183.113 L 214.800 186.217 L 214.595 186.594 L 212.903 189.736 L 212.705 190.109 L 211.031 193.289 L 210.838 193.659 L 209.183 196.876 L 208.996 197.243 L 207.359 200.497 L 207.178 200.860 L 205.560 204.151 L 205.384 204.511 L 203.785 207.838 L 203.615 208.195 L 202.034 211.558 L 201.870 211.912 L 200.308 215.310 L 200.149 215.661 L 198.607 219.094 L 198.452 219.441 L 196.930 222.909 L 196.780 223.253 L 195.277 226.755 L 195.132 227.096 L 193.649 230.631 L 193.509 230.970 L 192.046 234.538 L 191.910 234.874 L 190.468 238.474 L 190.336 238.807 L 188.914 242.440 L 188.787 242.771 L 187.386 246.435 L 187.262 246.763 L 185.882 250.458 L 185.762 250.783 L 184.403 254.510 L 184.287 254.832 L 182.949 258.589 L 182.837 258.909 L 181.521 262.696 L 181.412 263.013 L 180.117 266.829 L 180.012 267.144 L 178.739 270.989 L 178.637 271.301 L 177.386 275.174 L 177.287 275.484 L 176.058 279.385 L 175.962 279.693 L 174.756 283.622 L 174.663 283.927 L 173.479 287.883 L 173.389 288.186 L 172.228 292.168 L 172.141 292.469 L 171.002 296.476 L 170.918 296.776 L 169.802 300.808 L 169.721 301.106 L 168.628 305.163 L 168.550 305.459 L 167.480 309.541 L 167.404 309.834 L 166.357 313.940 L 166.284 314.231 L 165.261 318.360 L 165.190 318.650 L 164.190 322.801 L 164.122 323.090 L 163.146 327.263 L 163.080 327.550 L 162.128 331.745 L 162.064 332.030 L 161.136 336.246 L 161.075 336.529 L 160.171 340.767 L 160.111 341.048 L 159.231 345.305 L 159.174 345.585 L 158.319 349.862 L 158.264 350.141 L 157.432 354.436 L 157.379 354.714 L 156.572 359.027 L 156.522 359.303 L 155.739 363.635 L 155.691 363.910 L 154.933 368.259 L 154.886 368.532 L 154.153 372.898 L 154.108 373.170 L 153.400 377.552 L 153.357 377.823 L 152.674 382.221 L 152.633 382.491 L 151.975 386.904 L 151.936 387.172 L 151.303 391.600 L 151.266 391.867 L 150.658 396.308 L 150.622 396.575 L 150.040 401.030 L 150.006 401.296 L 149.449 405.763 L 149.416 406.028 L 148.885 410.507 L 148.854 410.771 L 148.348 415.263 L 148.319 415.526 L 147.839 420.028 L 147.811 420.291 L 147.356 424.803 L 147.331 425.065 L 146.902 429.588 L 146.878 429.849 L 146.474 434.381 L 146.452 434.642 L 146.074 439.182 L 146.053 439.442 L 145.701 443.991 L 145.682 444.251 L 145.356 448.807 L 145.338 449.066 L 145.038 453.630 L 145.022 453.888 L 144.748 458.458 L 144.733 458.716 L 144.485 463.292 L 144.472 463.550 L 144.250 468.131 L 144.238 468.388 L 144.042 472.974 L 144.032 473.231 L 143.862 477.821 L 143.853 478.078 L 143.709 482.671 L 143.702 482.928 L 143.584 487.524 L 143.578 487.780 L 143.487 492.379 L 143.482 492.635 L 143.417 497.236 L 143.414 497.492 L 143.375 502.094 L 143.373 502.350 L 143.360 506.952 L 143.362 507.180 L 143.362 507.538 L 143.416 512.768 L 143.434 513.683 L 143.594 518.910 L 143.631 519.826 L 143.897 525.047 L 143.953 525.962 L 144.325 531.173 L 144.399 532.088 L 144.877 537.287 L 144.971 538.202 L 145.554 543.385 L 145.667 544.300 L 146.355 549.464 L 146.487 550.378 L 147.281 555.521 L 147.431 556.435 L 148.329 561.552 L 148.499 562.466 L 149.501 567.555 L 149.690 568.468 L 150.795 573.526 L 151.005 574.438 L 152.212 579.462 L 152.441 580.374 L 153.751 585.360 L 154.000 586.271 L 155.410 591.217 L 155.680 592.127 L 157.191 597.030 L 157.481 597.939 L 159.091 602.796 L 159.403 603.703 L 161.111 608.510 L 161.444 609.416 L 163.249 614.172 L 163.603 615.076 L 165.505 619.776 L 165.881 620.678 L 167.878 625.321 L 168.276 626.221 L 170.367 630.803 L 170.788 631.700 L 172.971 636.219 L 173.415 637.113 L 175.689 641.566 L 176.156 642.456 L 178.520 646.841 L 179.011 647.727 L 181.464 652.040 L 181.979 652.922 L 184.519 657.162 L 185.058 658.039 L 187.683 662.202 L 188.247 663.073 L 190.956 667.157 L 191.545 668.023 L 194.336 672.026 L 194.951 672.885 L 197.822 676.803 L 198.463 677.656 L 201.413 681.488 L 202.079 682.332 L 205.107 686.076 L 205.800 686.911 L 208.903 690.564 L 209.622 691.390 L 212.798 694.950 L 213.544 695.766 L 216.792 699.231 L 217.565 700.035 L 220.882 703.403 L 221.682 704.195 L 225.067 707.464 L 225.894 708.243 L 229.344 711.410 L 230.199 712.175 L 233.713 715.239 L 234.595 715.988 L 238.170 718.947 L 239.079 719.681 L 242.713 722.533 L 243.650 723.249 L 247.341 725.993 L 248.305 726.689 L 252.050 729.323 L 253.041 730.000 L 256.839 732.522 L 257.855 733.178 L 261.704 735.587 L 262.747 736.220 L 266.643 738.515 L 267.711 739.124 L 271.652 741.302 L 272.746 741.887 L 276.730 743.948 L 277.848 744.506 L 281.873 746.448 L 283.014 746.979 L 287.077 748.802 L 288.241 749.304 L 292.340 751.005 L 293.525 751.478 L 297.658 753.057 L 298.863 753.498 L 303.026 754.955 L 304.251 755.364 L 308.443 756.697 L 309.685 757.072 L 313.903 758.281 L 315.161 758.622 L 319.403 759.705 L 320.676 760.011 L 324.938 760.968 L 326.226 761.238 L 330.506 762.069 L 331.805 762.301 L 336.100 763.005 L 337.410 763.200 L 341.718 763.776 L 343.036 763.933 L 347.355 764.382 L 348.679 764.499 L 353.006 764.820 L 354.335 764.899 L 358.667 765.091 L 359.999 765.131 L 364.334 765.195 L 365.666 765.195 L 370.001 765.131 L 371.333 765.091 L 375.665 764.899 L 376.994 764.820 L 381.321 764.499 L 382.645 764.382 L 386.964 763.933 L 388.282 763.776 L 392.590 763.200 L 393.900 763.005 L 398.195 762.301 L 399.494 762.069 L 403.774 761.238 L 405.062 760.968 L 409.324 760.011 L 410.597 759.705 L 414.839 758.622 L 416.097 758.281 L 420.315 757.072 L 421.557 756.697 L 425.749 755.364 L 426.974 754.955 L 431.137 753.498 L 432.342 753.057 L 436.475 751.478 L 437.660 751.005 L 441.759 749.304 L 442.923 748.802 L 446.986 746.979 L 448.127 746.448 L 452.152 744.506 L 453.270 743.948 L 457.254 741.887 L 458.348 741.302 L 462.289 739.124 L 463.357 738.515 L 467.253 736.220 L 468.296 735.587 L 472.145 733.178 L 473.161 732.522 L 476.959 730.000 L 477.950 729.323 L 481.695 726.689 L 482.659 725.993 L 486.350 723.249 L 487.287 722.533 L 490.921 719.681 L 491.830 718.947 L 495.405 715.988 L 496.287 715.239 L 499.801 712.175 L 500.656 711.410 L 504.106 708.243 L 504.933 707.464 L 508.318 704.195 L 509.118 703.403 L 512.435 700.035 L 513.208 699.231 L 516.456 695.766 L 517.202 694.950 L 520.378 691.390 L 521.097 690.564 L 524.200 686.911 L 524.893 686.076 L 527.921 682.332 L 528.587 681.488 L 531.537 677.656 L 532.178 676.803 L 535.049 672.885 L 535.664 672.026 L 538.455 668.023 L 539.044 667.157 L 541.753 663.073 L 542.317 662.202 L 544.942 658.039 L 545.481 657.162 L 548.021 652.922 L 548.536 652.040 L 550.989 647.727 L 551.480 646.841 L 553.844 642.456 L 554.311 641.566 L 556.585 637.113 L 557.029 636.219 L 559.212 631.700 L 559.633 630.803 L 561.724 626.221 L 562.122 625.321 L 564.119 620.678 L 564.495 619.776 L 566.397 615.076 L 566.751 614.172 L 568.556 609.416 L 568.889 608.510 L 570.597 603.703 L 570.909 602.796 L 572.519 597.939 L 572.809 597.030 L 574.320 592.127 L 574.590 591.217 L 576.000 586.271 L 576.249 585.360 L 577.559 580.374 L 577.788 579.462 L 578.995 574.438 L 579.205 573.526 L 580.310 568.468 L 580.499 567.555 L 581.501 562.466 L 581.671 561.552 L 582.569 556.435 L 582.719 555.521 L 583.513 550.378 L 583.645 549.464 L 584.333 544.300 L 584.446 543.385 L 585.029 538.202 L 585.123 537.287 L 585.601 532.088 L 585.675 531.173 L 586.047 525.962 L 586.103 525.047 L 586.369 519.826 L 586.406 518.910 L 586.566 513.683 L 586.584 512.768 L 586.638 507.538 L 586.638 506.622 L 586.584 501.392 L 586.566 500.477 L 586.406 495.250 L 586.369 494.334 L 586.103 489.113 L 586.047 488.198 L 585.675 482.987 L 585.601 482.072 L 585.123 476.873 L 585.029 475.958 L 584.446 470.775 L 584.333 469.860 L 583.645 464.696 L 583.513 463.782 L 582.719 458.639 L 582.569 457.725 L 581.671 452.608 L 581.501 451.694 L 580.499 446.605 L 580.310 445.692 L 579.205 440.634 L 578.995 439.722 L 577.788 434.698 L 577.559 433.786 L 576.249 428.800 L 576.000 427.889 L 574.590 422.943 L 574.320 422.033 L 572.809 417.130 L 572.519 416.221 L 570.909 411.364 L 570.597 410.457 L 568.889 405.650 L 568.556 404.744 L 566.751 399.988 L 566.397 399.084 L 564.495 394.384 L 564.119 393.482 L 562.122 388.839 L 561.724 387.939 L 559.633 383.357 L 559.212 382.460 L 557.029 377.941 L 556.585 377.047 L 554.311 372.594 L 553.844 371.704 L 551.480 367.319 L 550.989 366.433 L 548.536 362.120 L 548.021 361.238 L 545.481 356.998 L 544.942 356.121 L 542.317 351.958 L 541.753 351.087 L 539.044 347.003 L 538.455 346.137 L 535.664 342.134 L 535.049 341.275 L 532.178 337.357 L 531.537 336.504 L 528.587 332.672 L 527.921 331.828 L 524.893 328.084 L 524.200 327.249 L 521.097 323.596 L 520.378 322.770 L 517.202 319.210 L 516.456 318.394 L 513.208 314.929 L 512.435 314.125 L 509.118 310.757 L 508.318 309.965 L 504.933 306.696 L 504.106 305.917 L 500.656 302.750 L 499.801 301.985 L 496.287 298.921 L 495.405 298.172 L 491.830 295.213 L 490.921 294.479 L 487.287 291.627 L 486.350 290.911 L 482.659 288.167 L 481.695 287.471 L 477.950 284.837 L 476.959 284.160 L 473.161 281.638 L 472.145 280.982 L 468.296 278.573 L 467.253 277.940 L 463.357 275.645 L 462.289 275.036 L 458.348 272.858 L 457.254 272.273 L 453.270 270.212 L 452.152 269.654 L 448.127 267.712 L 446.986 267.181 L 442.923 265.358 L 441.759 264.856 L 437.660 263.155 L 436.475 262.682 L 432.342 261.103 L 431.137 260.662 L 426.974 259.205 L 425.749 258.796 L 421.557 257.463 L 420.315 257.088 L 416.097 255.879 L 414.839 255.538 L 410.597 254.455 L 409.324 254.149 L 405.062 253.192 L 403.774 252.922 L 399.494 252.091 L 398.195 251.859 L 393.900 251.155 L 392.590 250.960 L 388.282 250.384 L 386.964 250.227 L 382.645 249.778 L 381.321 249.661 L 376.994 249.340 L 375.665 249.261 L 371.333 249.069 L 370.001 249.029 L 365.666 248.965 L 364.334 248.965 L 359.999 249.029 L 358.667 249.069 L 354.335 249.261 L 353.006 249.340 L 348.679 249.661 L 347.355 249.778 L 343.036 250.227 L 341.718 250.384 L 337.410 250.960 L 336.100 251.155 L 331.805 251.859 L 330.506 252.091 L 326.226 252.922 L 324.938 253.192 L 320.676 254.149 L 319.403 254.455 L 315.161 255.538 L 313.903 255.879 L 309.685 257.088 L 308.443 257.463 L 304.251 258.796 L 303.026 259.205 L 298.863 260.662 L 297.658 261.103 L 293.525 262.682 L 292.340 263.155 L 288.241 264.856 L 287.077 265.358 L 283.014 267.181 L 281.873 267.712 L 277.848 269.654 L 276.730 270.212 L 274.178 271.532 L 275.390 268.506 Z M 496.594 511.395 L 496.462 515.706 L 496.243 520.012 L 495.936 524.308 L 495.543 528.591 L 495.062 532.859 L 494.495 537.109 L 493.843 541.337 L 493.105 545.540 L 492.284 549.716 L 491.378 553.861 L 490.390 557.972 L 489.320 562.047 L 488.169 566.082 L 486.939 570.076 L 485.630 574.024 L 484.244 577.925 L 482.783 581.775 L 481.246 585.573 L 479.637 589.315 L 477.957 592.999 L 476.206 596.623 L 474.388 600.184 L 472.502 603.680 L 470.553 607.108 L 468.540 610.468 L 466.467 613.756 L 464.334 616.970 L 462.145 620.110 L 459.901 623.172 L 457.603 626.156 L 455.255 629.059 L 452.858 631.881 L 450.414 634.620 L 447.926 637.275 L 445.395 639.844 L 442.825 642.326 L 440.216 644.721 L 437.571 647.028 L 434.892 649.246 L 432.181 651.373 L 429.440 653.411 L 426.672 655.358 L 423.878 657.213 L 421.060 658.977 L 418.219 660.650 L 415.359 662.231 L 412.479 663.720 L 409.583 665.117 L 406.672 666.423 L 403.747 667.637 L 400.809 668.760 L 397.860 669.792 L 394.901 670.733 L 391.934 671.583 L 388.959 672.343 L 385.977 673.012 L 382.990 673.592 L 379.999 674.082 L 377.003 674.483 L 374.005 674.795 L 371.005 675.017 L 368.003 675.151 L 365.000 675.195 L 361.997 675.151 L 358.995 675.017 L 355.995 674.795 L 352.997 674.483 L 350.001 674.082 L 347.010 673.592 L 344.023 673.012 L 341.041 672.343 L 338.066 671.583 L 335.099 670.733 L 332.140 669.792 L 329.191 668.760 L 326.253 667.637 L 323.328 666.423 L 320.417 665.117 L 317.521 663.720 L 314.641 662.231 L 311.781 660.650 L 308.940 658.977 L 306.122 657.213 L 303.328 655.358 L 300.560 653.411 L 297.819 651.373 L 295.108 649.246 L 292.429 647.028 L 289.784 644.721 L 287.175 642.326 L 284.605 639.844 L 282.074 637.275 L 279.586 634.620 L 277.142 631.881 L 274.745 629.059 L 272.397 626.156 L 270.099 623.172 L 267.855 620.110 L 265.666 616.970 L 263.533 613.756 L 261.460 610.468 L 259.447 607.108 L 257.498 603.680 L 255.612 600.184 L 253.794 596.623 L 252.043 592.999 L 250.363 589.315 L 248.754 585.573 L 247.217 581.775 L 245.756 577.925 L 244.370 574.024 L 243.061 570.076 L 241.831 566.082 L 240.680 562.047 L 239.610 557.972 L 238.622 553.861 L 237.716 549.716 L 236.895 545.540 L 236.157 541.337 L 235.505 537.109 L 234.938 532.859 L 234.457 528.591 L 234.064 524.308 L 233.757 520.012 L 233.538 515.706 L 233.406 511.395 L 233.362 507.080 L 233.406 502.765 L 233.538 498.454 L 233.757 494.148 L 234.064 489.852 L 234.457 485.569 L 234.938 481.301 L 235.505 477.051 L 236.157 472.823 L 236.895 468.620 L 237.716 464.444 L 238.622 460.299 L 239.610 456.188 L 240.680 452.113 L 241.831 448.078 L 243.061 444.084 L 244.370 440.136 L 245.756 436.235 L 247.217 432.385 L 248.754 428.587 L 250.363 424.845 L 252.043 421.161 L 253.794 417.537 L 255.612 413.976 L 257.498 410.480 L 259.447 407.052 L 261.460 403.692 L 263.533 400.404 L 265.666 397.190 L 267.855 394.050 L 270.099 390.988 L 272.397 388.004 L 274.745 385.101 L 277.142 382.279 L 279.586 379.540 L 282.074 376.885 L 284.605 374.316 L 287.175 371.834 L 289.784 369.439 L 292.429 367.132 L 295.108 364.914 L 297.819 362.787 L 300.560 360.749 L 303.328 358.802 L 306.122 356.947 L 308.940 355.183 L 311.781 353.510 L 314.641 351.929 L 317.521 350.440 L 320.417 349.043 L 323.328 347.737 L 326.253 346.523 L 329.191 345.400 L 332.140 344.368 L 335.099 343.427 L 338.066 342.577 L 341.041 341.817 L 344.023 341.148 L 347.010 340.568 L 350.001 340.078 L 352.997 339.677 L 355.995 339.365 L 358.995 339.143 L 361.997 339.009 L 365.000 338.965 L 368.003 339.009 L 371.005 339.143 L 374.005 339.365 L 377.003 339.677 L 379.999 340.078 L 382.990 340.568 L 385.977 341.148 L 388.959 341.817 L 391.934 342.577 L 394.901 343.427 L 397.860 344.368 L 400.809 345.400 L 403.747 346.523 L 406.672 347.737 L 409.583 349.043 L 412.479 350.440 L 415.359 351.929 L 418.219 353.510 L 421.060 355.183 L 423.878 356.947 L 426.672 358.802 L 429.440 360.749 L 432.181 362.787 L 434.892 364.914 L 437.571 367.132 L 440.216 369.439 L 442.825 371.834 L 445.395 374.316 L 447.926 376.885 L 450.414 379.540 L 452.858 382.279 L 455.255 385.101 L 457.603 388.004 L 459.901 390.988 L 462.145 394.050 L 464.334 397.190 L 466.467 400.404 L 468.540 403.692 L 470.553 407.052 L 472.502 410.480 L 474.388 413.976 L 476.206 417.537 L 477.957 421.161 L 479.637 424.845 L 481.246 428.587 L 482.783 432.385 L 484.244 436.235 L 485.630 440.136 L 486.939 444.084 L 488.169 448.078 L 489.320 452.113 L 490.390 456.188 L 491.378 460.299 L 492.284 464.444 L 493.105 468.620 L 493.843 472.823 L 494.495 477.051 L 495.062 481.301 L 495.543 485.569 L 495.936 489.852 L 496.243 494.148 L 496.462 498.454 L 496.594 502.765 L 496.638 507.080 L 496.594 511.395 Z" fill="black" fill-rule="evenodd"/>
</svg>
