<svg xmlns="http://www.w3.org/2000/svg" viewBox="0 0 600.000 1000" width="600.000" height="1000">
  <path d="M 257.012 793.306 L 257.350 794.352 L 257.713 795.390 L 258.102 796.418 L 258.516 797.437 L 258.954 798.446 L 259.417 799.443 L 259.904 800.429 L 260.415 801.402 L 260.950 802.363 L 261.508 803.310 L 262.089 804.244 L 262.693 805.163 L 263.319 806.067 L 263.967 806.955 L 264.636 807.828 L 265.326 808.683 L 266.038 809.522 L 266.769 810.343 L 267.520 811.146 L 268.291 811.930 L 269.081 812.695 L 269.889 813.441 L 270.715 814.167 L 271.558 814.872 L 272.419 815.557 L 273.296 816.220 L 274.189 816.862 L 275.097 817.481 L 276.020 818.078 L 276.958 818.653 L 277.909 819.204 L 278.873 819.732 L 279.850 820.237 L 280.840 820.717 L 281.840 821.173 L 282.852 821.604 L 283.873 822.011 L 284.904 822.392 L 285.945 822.749 L 286.993 823.079 L 288.050 823.384 L 289.113 823.663 L 290.183 823.916 L 291.259 824.143 L 292.340 824.343 L 293.426 824.517 L 294.516 824.665 L 295.609 824.785 L 296.704 824.879 L 297.802 824.946 L 298.901 824.987 L 300.000 825.000 L 301.099 824.987 L 302.198 824.946 L 303.296 824.879 L 304.391 824.785 L 305.484 824.665 L 306.574 824.517 L 307.660 824.343 L 308.741 824.143 L 309.817 823.916 L 310.887 823.663 L 311.950 823.384 L 313.007 823.079 L 314.055 822.749 L 315.096 822.392 L 316.127 822.011 L 317.148 821.604 L 318.160 821.173 L 319.160 820.717 L 320.150 820.237 L 321.127 819.732 L 322.091 819.204 L 323.042 818.653 L 323.980 818.078 L 324.903 817.481 L 325.811 816.862 L 326.704 816.220 L 327.581 815.557 L 328.442 814.872 L 329.285 814.167 L 330.111 813.441 L 330.919 812.695 L 331.709 811.930 L 332.480 811.146 L 333.231 810.343 L 333.962 809.522 L 334.674 808.683 L 335.364 807.828 L 336.033 806.955 L 336.681 806.067 L 337.307 805.163 L 337.911 804.244 L 338.492 803.310 L 339.050 802.363 L 339.585 801.402 L 340.096 800.429 L 340.583 799.443 L 341.046 798.446 L 341.484 797.437 L 341.898 796.418 L 342.287 795.390 L 342.650 794.352 L 342.988 793.306 L 472.988 373.306 L 473.301 372.247 L 473.589 371.180 L 473.850 370.107 L 474.085 369.028 L 474.293 367.944 L 474.475 366.854 L 474.630 365.761 L 474.758 364.664 L 474.859 363.564 L 474.933 362.462 L 474.979 361.358 L 474.999 360.254 L 474.992 359.150 L 474.958 358.046 L 474.896 356.943 L 474.808 355.842 L 474.692 354.744 L 474.550 353.649 L 474.380 352.557 L 474.184 351.470 L 473.962 350.389 L 473.712 349.313 L 473.437 348.243 L 473.135 347.181 L 472.808 346.126 L 472.454 345.079 L 472.075 344.042 L 471.671 343.014 L 471.242 341.997 L 470.788 340.990 L 470.309 339.995 L 469.806 339.012 L 469.279 338.041 L 468.728 337.084 L 468.154 336.140 L 467.557 335.211 L 466.937 334.297 L 466.295 333.398 L 465.631 332.515 L 464.946 331.649 L 464.240 330.800 L 463.513 329.969 L 462.766 329.155 L 461.999 328.360 L 461.213 327.585 L 460.408 326.828 L 459.585 326.092 L 458.744 325.376 L 457.885 324.681 L 457.010 324.008 L 456.119 323.356 L 455.212 322.726 L 454.289 322.118 L 453.352 321.533 L 452.401 320.972 L 451.437 320.434 L 450.459 319.920 L 449.469 319.430 L 448.468 318.964 L 447.455 318.523 L 446.432 318.107 L 445.399 317.717 L 444.357 317.352 L 443.306 317.012 L 442.247 316.699 L 441.180 316.411 L 440.107 316.150 L 439.028 315.915 L 437.944 315.707 L 436.854 315.525 L 435.761 315.370 L 434.664 315.242 L 433.564 315.141 L 432.462 315.067 L 431.358 315.021 L 430.254 315.001 L 429.150 315.008 L 428.046 315.042 L 426.943 315.104 L 425.842 315.192 L 424.744 315.308 L 423.649 315.450 L 422.557 315.620 L 421.470 315.816 L 420.389 316.038 L 419.313 316.288 L 418.243 316.563 L 417.181 316.865 L 416.126 317.192 L 415.079 317.546 L 414.042 317.925 L 413.014 318.329 L 411.997 318.758 L 410.990 319.212 L 409.995 319.691 L 409.012 320.194 L 408.041 320.721 L 407.084 321.272 L 406.140 321.846 L 405.211 322.443 L 404.297 323.063 L 403.398 323.705 L 402.515 324.369 L 401.649 325.054 L 400.800 325.760 L 399.969 326.487 L 399.155 327.234 L 398.360 328.001 L 397.585 328.787 L 396.828 329.592 L 396.092 330.415 L 395.376 331.256 L 394.681 332.115 L 394.008 332.990 L 393.356 333.881 L 392.726 334.788 L 392.118 335.711 L 391.533 336.648 L 390.972 337.599 L 390.434 338.563 L 389.920 339.541 L 389.430 340.531 L 388.964 341.532 L 388.523 342.545 L 388.107 343.568 L 387.717 344.601 L 387.352 345.643 L 387.012 346.694 L 300.000 627.810 L 212.988 346.694 L 212.648 345.643 L 212.283 344.601 L 211.893 343.568 L 211.477 342.545 L 211.036 341.532 L 210.570 340.531 L 210.080 339.541 L 209.566 338.563 L 209.028 337.599 L 208.467 336.648 L 207.882 335.711 L 207.274 334.788 L 206.644 333.881 L 205.992 332.990 L 205.319 332.115 L 204.624 331.256 L 203.908 330.415 L 203.172 329.592 L 202.415 328.787 L 201.640 328.001 L 200.845 327.234 L 200.031 326.487 L 199.200 325.760 L 198.351 325.054 L 197.485 324.369 L 196.602 323.705 L 195.703 323.063 L 194.789 322.443 L 193.860 321.846 L 192.916 321.272 L 191.959 320.721 L 190.988 320.194 L 190.005 319.691 L 189.010 319.212 L 188.003 318.758 L 186.986 318.329 L 185.958 317.925 L 184.921 317.546 L 183.874 317.192 L 182.819 316.865 L 181.757 316.563 L 180.687 316.288 L 179.611 316.038 L 178.530 315.816 L 177.443 315.620 L 176.351 315.450 L 175.256 315.308 L 174.158 315.192 L 173.057 315.104 L 171.954 315.042 L 170.850 315.008 L 169.746 315.001 L 168.642 315.021 L 167.538 315.067 L 166.436 315.141 L 165.336 315.242 L 164.239 315.370 L 163.146 315.525 L 162.056 315.707 L 160.972 315.915 L 159.893 316.150 L 158.820 316.411 L 157.753 316.699 L 156.694 317.012 L 155.643 317.352 L 154.601 317.717 L 153.568 318.107 L 152.545 318.523 L 151.532 318.964 L 150.531 319.430 L 149.541 319.920 L 148.563 320.434 L 147.599 320.972 L 146.648 321.533 L 145.711 322.118 L 144.788 322.726 L 143.881 323.356 L 142.990 324.008 L 142.115 324.681 L 141.256 325.376 L 140.415 326.092 L 139.592 326.828 L 138.787 327.585 L 138.001 328.360 L 137.234 329.155 L 136.487 329.969 L 135.760 330.800 L 135.054 331.649 L 134.369 332.515 L 133.705 333.398 L 133.063 334.297 L 132.443 335.211 L 131.846 336.140 L 131.272 337.084 L 130.721 338.041 L 130.194 339.012 L 129.691 339.995 L 129.212 340.990 L 128.758 341.997 L 128.329 343.014 L 127.925 344.042 L 127.546 345.079 L 127.192 346.126 L 126.865 347.181 L 126.563 348.243 L 126.288 349.313 L 126.038 350.389 L 125.816 351.470 L 125.620 352.557 L 125.450 353.649 L 125.308 354.744 L 125.192 355.842 L 125.104 356.943 L 125.042 358.046 L 125.008 359.150 L 125.001 360.254 L 125.021 361.358 L 125.067 362.462 L 125.141 363.564 L 125.242 364.664 L 125.370 365.761 L 125.525 366.854 L 125.707 367.944 L 125.915 369.028 L 126.150 370.107 L 126.411 371.180 L 126.699 372.247 L 127.012 373.306 L 257.012 793.306 Z" fill="black" fill-rule="evenodd"/>
</svg>
