<svg xmlns="http://www.w3.org/2000/svg" viewBox="0 0 600.000 1000">
  <path d="M 185.743 557.494 L 186.549 558.018 L 187.489 558.598 L 188.444 559.154 L 189.411 559.686 L 190.391 560.195 L 191.384 560.680 L 192.388 561.139 L 193.403 561.575 L 194.429 561.985 L 195.464 562.369 L 196.508 562.729 L 197.561 563.062 L 198.622 563.370 L 199.690 563.651 L 200.764 563.907 L 201.845 564.135 L 202.931 564.337 L 204.021 564.513 L 205.116 564.662 L 206.213 564.783 L 207.314 564.878 L 208.416 564.946 L 209.520 564.986 L 210.624 565.000 L 455.063 565.000 L 456.164 564.987 L 457.264 564.946 L 458.363 564.879 L 459.460 564.785 L 460.554 564.664 L 461.645 564.516 L 462.732 564.342 L 463.814 564.141 L 464.891 563.914 L 465.962 563.660 L 467.027 563.380 L 468.085 563.075 L 469.135 562.743 L 470.176 562.386 L 471.208 562.004 L 472.231 561.596 L 473.243 561.164 L 474.245 560.707 L 475.235 560.226 L 476.213 559.720 L 477.178 559.191 L 478.130 558.638 L 479.068 558.062 L 479.992 557.464 L 480.901 556.843 L 481.795 556.200 L 482.672 555.535 L 483.533 554.849 L 484.377 554.142 L 485.204 553.415 L 486.012 552.667 L 486.802 551.901 L 487.573 551.115 L 488.324 550.310 L 489.056 549.487 L 489.767 548.647 L 490.457 547.790 L 491.126 546.915 L 491.774 546.025 L 492.399 545.119 L 493.003 544.199 L 493.583 543.263 L 494.141 542.314 L 494.675 541.351 L 495.185 540.376 L 495.672 539.388 L 496.134 538.389 L 496.572 537.379 L 496.984 536.359 L 497.372 535.328 L 497.734 534.289 L 498.071 533.241 L 498.382 532.185 L 498.667 531.121 L 498.926 530.051 L 499.159 528.975 L 499.365 527.894 L 499.545 526.808 L 499.698 525.718 L 499.825 524.624 L 499.924 523.528 L 499.997 522.429 L 500.043 521.329 L 500.062 520.229 L 500.055 519.128 L 500.020 518.028 L 499.958 516.928 L 499.869 515.831 L 499.754 514.736 L 499.612 513.645 L 499.443 512.557 L 499.248 511.473 L 498.378 506.967 L 498.226 506.212 L 497.281 501.732 L 497.115 500.976 L 496.096 496.525 L 495.916 495.767 L 494.824 491.347 L 494.629 490.588 L 493.463 486.200 L 493.254 485.440 L 492.016 481.088 L 491.792 480.327 L 490.481 476.011 L 490.242 475.249 L 488.860 470.973 L 488.606 470.209 L 487.153 465.975 L 486.883 465.210 L 485.360 461.019 L 485.074 460.253 L 483.481 456.107 L 483.179 455.340 L 481.518 451.241 L 481.198 450.473 L 479.470 446.424 L 479.133 445.655 L 477.337 441.658 L 476.983 440.888 L 475.121 436.944 L 474.749 436.174 L 472.822 432.284 L 472.431 431.514 L 470.440 427.682 L 470.030 426.911 L 467.975 423.138 L 467.546 422.368 L 465.429 418.655 L 464.980 417.885 L 462.802 414.235 L 462.332 413.466 L 460.094 409.880 L 459.603 409.112 L 457.306 405.592 L 456.794 404.825 L 454.439 401.374 L 453.905 400.609 L 451.493 397.226 L 450.937 396.464 L 448.469 393.153 L 447.890 392.393 L 445.367 389.154 L 444.765 388.398 L 442.189 385.234 L 441.563 384.481 L 438.935 381.393 L 438.285 380.645 L 435.607 377.634 L 434.931 376.892 L 432.203 373.960 L 431.503 373.224 L 428.727 370.372 L 428.001 369.643 L 425.178 366.873 L 424.426 366.152 L 421.558 363.464 L 420.780 362.752 L 417.868 360.149 L 417.063 359.446 L 414.108 356.929 L 413.277 356.237 L 410.281 353.806 L 409.423 353.127 L 406.387 350.784 L 405.502 350.118 L 402.428 347.863 L 401.515 347.212 L 398.405 345.048 L 397.465 344.412 L 394.320 342.339 L 393.353 341.720 L 390.174 339.739 L 389.181 339.138 L 385.969 337.250 L 384.950 336.669 L 381.707 334.876 L 380.662 334.316 L 377.391 332.617 L 376.320 332.079 L 373.021 330.476 L 371.926 329.962 L 368.601 328.456 L 367.482 327.967 L 364.133 326.558 L 362.991 326.096 L 359.619 324.785 L 358.455 324.350 L 355.063 323.138 L 353.878 322.733 L 350.465 321.619 L 349.261 321.245 L 345.831 320.231 L 344.608 319.888 L 341.162 318.974 L 339.922 318.664 L 336.462 317.851 L 335.206 317.575 L 331.733 316.863 L 330.465 316.622 L 326.981 316.011 L 325.700 315.806 L 322.207 315.297 L 320.916 315.128 L 317.415 314.721 L 316.116 314.589 L 312.609 314.284 L 311.305 314.190 L 307.794 313.987 L 306.485 313.930 L 302.971 313.830 L 301.660 313.812 L 298.146 313.814 L 296.835 313.834 L 293.321 313.938 L 292.013 313.996 L 288.502 314.203 L 287.197 314.299 L 283.690 314.608 L 282.392 314.741 L 278.891 315.153 L 277.601 315.323 L 274.108 315.836 L 272.828 316.043 L 269.344 316.658 L 268.076 316.900 L 264.604 317.616 L 263.349 317.894 L 259.889 318.711 L 258.650 319.022 L 255.205 319.940 L 253.982 320.284 L 250.553 321.302 L 249.349 321.678 L 245.938 322.795 L 244.753 323.201 L 241.361 324.418 L 240.198 324.853 L 236.827 326.169 L 235.686 326.632 L 232.338 328.045 L 231.220 328.535 L 227.896 330.045 L 226.802 330.560 L 223.504 332.167 L 222.435 332.706 L 219.164 334.408 L 218.120 334.969 L 214.879 336.766 L 213.861 337.348 L 210.650 339.240 L 209.658 339.841 L 206.480 341.826 L 205.515 342.446 L 202.370 344.522 L 201.432 345.159 L 198.323 347.327 L 197.412 347.979 L 194.339 350.237 L 193.455 350.903 L 190.421 353.250 L 189.564 353.930 L 186.569 356.364 L 185.739 357.056 L 182.786 359.577 L 181.982 360.280 L 179.072 362.887 L 178.295 363.599 L 175.429 366.290 L 174.678 367.012 L 171.857 369.785 L 171.132 370.515 L 168.358 373.370 L 167.658 374.106 L 164.932 377.041 L 164.258 377.784 L 161.582 380.798 L 160.932 381.546 L 158.307 384.637 L 157.681 385.390 L 155.108 388.557 L 154.506 389.314 L 151.986 392.555 L 151.408 393.315 L 148.942 396.629 L 148.387 397.392 L 145.977 400.777 L 145.444 401.542 L 143.091 404.996 L 142.580 405.763 L 140.285 409.286 L 139.796 410.054 L 137.560 413.642 L 137.091 414.412 L 134.915 418.064 L 134.467 418.834 L 132.353 422.549 L 131.924 423.320 L 129.872 427.095 L 129.463 427.866 L 127.474 431.700 L 127.084 432.471 L 125.160 436.362 L 124.788 437.132 L 122.929 441.079 L 122.575 441.848 L 120.782 445.848 L 120.446 446.617 L 118.720 450.668 L 118.402 451.436 L 116.743 455.536 L 116.441 456.303 L 114.852 460.451 L 114.566 461.217 L 113.046 465.410 L 112.777 466.175 L 111.327 470.411 L 111.073 471.175 L 109.694 475.452 L 109.455 476.215 L 108.148 480.532 L 107.924 481.293 L 106.689 485.647 L 106.480 486.407 L 105.317 490.795 L 105.123 491.554 L 104.034 495.976 L 103.854 496.734 L 102.839 501.186 L 102.673 501.942 L 101.731 506.423 L 101.580 507.179 L 100.713 511.686 L 100.575 512.440 L 99.783 516.971 L 99.658 517.725 L 98.942 522.278 L 98.831 523.031 L 98.191 527.604 L 98.092 528.355 L 97.529 532.946 L 97.443 533.697 L 96.956 538.303 L 96.883 539.053 L 96.472 543.672 L 96.412 544.422 L 96.079 549.052 L 96.031 549.801 L 95.775 554.439 L 95.740 555.189 L 95.561 559.833 L 95.538 560.582 L 95.436 565.231 L 95.426 565.980 L 95.402 570.630 L 95.404 571.379 L 95.457 576.029 L 95.472 576.778 L 95.603 581.425 L 95.630 582.174 L 95.838 586.817 L 95.877 587.566 L 96.162 592.202 L 96.215 592.951 L 96.577 597.577 L 96.642 598.327 L 97.081 602.941 L 97.158 603.692 L 97.674 608.293 L 97.765 609.044 L 98.357 613.628 L 98.460 614.380 L 99.128 618.946 L 99.245 619.699 L 99.989 624.244 L 100.119 624.998 L 100.938 629.521 L 101.082 630.276 L 101.976 634.773 L 102.133 635.529 L 103.102 639.999 L 103.273 640.756 L 104.316 645.197 L 104.501 645.956 L 105.618 650.365 L 105.818 651.124 L 107.007 655.500 L 107.221 656.261 L 108.484 660.601 L 108.713 661.363 L 110.047 665.665 L 110.291 666.428 L 111.697 670.690 L 111.956 671.455 L 113.433 675.675 L 113.708 676.440 L 115.254 680.617 L 115.546 681.383 L 117.161 685.513 L 117.469 686.281 L 119.153 690.363 L 119.478 691.131 L 121.229 695.164 L 121.571 695.933 L 123.389 699.913 L 123.749 700.683 L 125.633 704.609 L 126.011 705.379 L 127.960 709.250 L 128.357 710.020 L 130.369 713.833 L 130.786 714.604 L 132.861 718.357 L 133.297 719.127 L 135.434 722.819 L 135.890 723.589 L 138.088 727.218 L 138.565 727.987 L 140.823 731.551 L 141.320 732.318 L 143.637 735.816 L 144.156 736.582 L 146.530 740.011 L 147.071 740.775 L 149.502 744.134 L 150.066 744.896 L 152.552 748.183 L 153.139 748.942 L 155.679 752.156 L 156.289 752.911 L 158.882 756.050 L 159.517 756.801 L 162.161 759.864 L 162.820 760.610 L 165.515 763.595 L 166.198 764.335 L 168.942 767.241 L 169.651 767.974 L 172.443 770.799 L 173.177 771.526 L 176.015 774.269 L 176.776 774.987 L 179.659 777.647 L 180.446 778.356 L 183.372 780.931 L 184.186 781.630 L 187.154 784.119 L 187.995 784.806 L 191.004 787.208 L 191.871 787.883 L 194.920 790.197 L 195.814 790.859 L 198.900 793.083 L 199.822 793.730 L 202.944 795.863 L 203.893 796.494 L 207.050 798.536 L 208.025 799.150 L 211.215 801.099 L 212.217 801.694 L 215.439 803.550 L 216.467 804.125 L 219.719 805.887 L 220.773 806.440 L 224.054 808.107 L 225.132 808.637 L 228.440 810.208 L 229.543 810.713 L 232.876 812.188 L 234.003 812.668 L 237.360 814.045 L 238.509 814.498 L 241.888 815.776 L 243.060 816.201 L 246.459 817.381 L 247.651 817.776 L 251.069 818.856 L 252.280 819.220 L 255.715 820.201 L 256.944 820.533 L 260.395 821.413 L 261.640 821.712 L 265.105 822.492 L 266.365 822.756 L 269.842 823.435 L 271.115 823.664 L 274.602 824.241 L 275.886 824.434 L 279.382 824.910 L 280.676 825.066 L 284.179 825.440 L 285.480 825.559 L 288.988 825.830 L 290.294 825.912 L 293.806 826.081 L 295.116 826.125 L 298.630 826.191 L 299.941 826.197 L 303.456 826.160 L 304.766 826.128 L 308.279 825.989 L 309.587 825.919 L 313.096 825.678 L 314.399 825.570 L 317.904 825.227 L 319.200 825.081 L 322.698 824.636 L 323.985 824.453 L 327.475 823.906 L 328.752 823.688 L 332.232 823.039 L 333.496 822.785 L 336.964 822.035 L 338.214 821.747 L 341.669 820.896 L 342.903 820.574 L 346.343 819.623 L 347.560 819.268 L 350.983 818.217 L 352.181 817.831 L 355.586 816.680 L 356.763 816.264 L 360.148 815.015 L 361.304 814.570 L 364.668 813.222 L 365.801 812.750 L 369.142 811.305 L 370.252 810.806 L 373.567 809.264 L 374.563 808.786 L 375.547 808.284 L 376.518 807.757 L 377.475 807.207 L 378.419 806.634 L 379.349 806.037 L 380.263 805.418 L 381.163 804.777 L 382.046 804.114 L 382.912 803.429 L 383.762 802.724 L 384.594 801.997 L 385.408 801.251 L 386.203 800.484 L 386.980 799.699 L 387.736 798.895 L 388.473 798.072 L 389.190 797.231 L 389.885 796.373 L 390.560 795.499 L 391.212 794.608 L 391.843 793.701 L 392.451 792.779 L 393.036 791.843 L 393.599 790.892 L 394.137 789.928 L 394.652 788.951 L 395.143 787.961 L 395.609 786.960 L 396.051 785.948 L 396.467 784.925 L 396.859 783.892 L 397.225 782.850 L 397.565 781.799 L 397.879 780.741 L 398.167 779.674 L 398.429 778.602 L 398.665 777.522 L 398.874 776.438 L 399.056 775.349 L 399.212 774.255 L 399.341 773.158 L 399.443 772.059 L 399.517 770.957 L 399.565 769.853 L 399.586 768.749 L 399.579 767.645 L 399.545 766.541 L 399.485 765.438 L 399.397 764.337 L 399.282 763.239 L 399.140 762.143 L 398.972 761.052 L 398.777 759.965 L 398.555 758.883 L 398.306 757.807 L 398.032 756.737 L 397.731 755.674 L 397.404 754.619 L 397.051 753.573 L 396.673 752.535 L 396.270 751.507 L 395.841 750.489 L 395.387 749.482 L 394.909 748.486 L 394.407 747.503 L 393.881 746.532 L 393.330 745.574 L 392.757 744.630 L 392.161 743.701 L 391.542 742.786 L 390.900 741.887 L 390.237 741.004 L 389.553 740.137 L 388.847 739.287 L 388.121 738.455 L 387.374 737.642 L 386.608 736.846 L 385.822 736.070 L 385.018 735.313 L 384.195 734.576 L 383.355 733.860 L 382.497 733.164 L 381.622 732.490 L 380.731 731.837 L 379.824 731.207 L 378.902 730.598 L 377.966 730.013 L 377.015 729.451 L 376.051 728.912 L 375.074 728.397 L 374.085 727.907 L 373.083 727.440 L 372.071 726.999 L 371.048 726.582 L 370.015 726.191 L 368.973 725.825 L 367.923 725.485 L 366.864 725.170 L 365.798 724.882 L 364.725 724.620 L 363.646 724.384 L 362.561 724.175 L 361.472 723.993 L 360.379 723.837 L 359.282 723.709 L 358.182 723.607 L 357.080 723.532 L 355.977 723.485 L 354.872 723.464 L 353.768 723.471 L 352.664 723.504 L 351.561 723.565 L 350.460 723.653 L 349.362 723.767 L 348.267 723.909 L 347.175 724.078 L 346.088 724.273 L 345.006 724.495 L 343.930 724.743 L 342.860 725.018 L 341.798 725.319 L 340.743 725.645 L 339.696 725.998 L 338.658 726.376 L 337.630 726.780 L 336.612 727.209 L 335.605 727.662 L 332.842 728.948 L 330.623 729.908 L 328.405 730.797 L 326.186 731.615 L 323.969 732.365 L 321.753 733.045 L 319.538 733.657 L 317.325 734.202 L 315.114 734.680 L 312.904 735.092 L 310.696 735.437 L 308.490 735.718 L 306.285 735.934 L 304.081 736.085 L 301.877 736.172 L 299.674 736.195 L 297.471 736.153 L 295.267 736.047 L 293.063 735.877 L 290.857 735.642 L 288.650 735.342 L 286.442 734.977 L 284.232 734.545 L 282.020 734.048 L 279.807 733.483 L 277.591 732.851 L 275.375 732.150 L 273.157 731.380 L 270.939 730.541 L 268.720 729.631 L 266.502 728.650 L 264.285 727.597 L 262.070 726.472 L 259.859 725.274 L 257.651 724.002 L 255.449 722.656 L 253.254 721.236 L 251.066 719.741 L 248.887 718.171 L 246.720 716.525 L 244.564 714.805 L 242.422 713.009 L 240.296 711.138 L 238.187 709.192 L 236.097 707.172 L 234.027 705.077 L 231.979 702.909 L 229.955 700.667 L 227.957 698.353 L 225.986 695.967 L 224.045 693.511 L 222.134 690.984 L 220.255 688.389 L 218.411 685.725 L 216.603 682.996 L 214.832 680.201 L 213.100 677.342 L 211.409 674.420 L 209.760 671.438 L 208.154 668.396 L 206.594 665.296 L 205.080 662.139 L 203.613 658.929 L 202.196 655.665 L 200.829 652.351 L 199.514 648.987 L 198.252 645.577 L 197.043 642.121 L 195.889 638.622 L 194.791 635.083 L 193.750 631.504 L 192.767 627.888 L 191.842 624.237 L 190.977 620.554 L 190.172 616.840 L 189.428 613.098 L 188.745 609.330 L 188.125 605.538 L 187.567 601.725 L 187.072 597.893 L 186.641 594.044 L 186.273 590.180 L 185.970 586.304 L 185.731 582.419 L 185.557 578.525 L 185.447 574.627 L 185.403 570.726 L 185.423 566.824 L 185.508 562.925 L 185.658 559.029 L 185.743 557.494 Z M 206.355 475.204 L 207.568 472.751 L 209.157 469.688 L 210.790 466.683 L 212.466 463.738 L 214.183 460.856 L 215.939 458.037 L 217.734 455.283 L 219.565 452.595 L 221.431 449.974 L 223.330 447.421 L 225.260 444.939 L 227.220 442.526 L 229.209 440.186 L 231.223 437.917 L 233.262 435.721 L 235.324 433.599 L 237.407 431.551 L 239.509 429.577 L 241.629 427.678 L 243.766 425.855 L 245.916 424.106 L 248.079 422.433 L 250.254 420.835 L 252.439 419.312 L 254.631 417.864 L 256.831 416.490 L 259.037 415.191 L 261.247 413.965 L 263.461 412.813 L 265.677 411.733 L 267.895 410.726 L 270.113 409.789 L 272.332 408.924 L 274.550 408.128 L 276.767 407.402 L 278.982 406.744 L 281.197 406.155 L 283.409 405.632 L 285.620 405.176 L 287.829 404.786 L 290.036 404.462 L 292.242 404.203 L 294.447 404.009 L 296.651 403.879 L 298.854 403.813 L 301.057 403.812 L 303.261 403.875 L 305.464 404.002 L 307.669 404.194 L 309.875 404.451 L 312.082 404.772 L 314.291 405.159 L 316.502 405.612 L 318.714 406.132 L 320.928 406.719 L 323.144 407.374 L 325.361 408.098 L 327.579 408.891 L 329.798 409.753 L 332.016 410.687 L 334.234 411.691 L 336.450 412.768 L 338.664 413.918 L 340.874 415.140 L 343.080 416.437 L 345.280 417.807 L 347.473 419.252 L 349.658 420.772 L 351.833 422.367 L 353.997 424.037 L 356.148 425.783 L 358.285 427.604 L 360.406 429.499 L 362.509 431.470 L 364.593 433.515 L 366.655 435.634 L 368.695 437.827 L 370.711 440.093 L 372.700 442.431 L 374.662 444.840 L 376.593 447.320 L 378.493 449.870 L 380.361 452.488 L 382.193 455.173 L 383.989 457.925 L 385.747 460.741 L 387.466 463.621 L 389.143 466.563 L 390.778 469.566 L 392.369 472.627 L 393.545 475.000 L 210.624 475.000 L 209.520 475.014 L 208.416 475.054 L 207.314 475.122 L 206.355 475.204 Z" fill="black" fill-rule="evenodd"/>
</svg>
