<svg xmlns="http://www.w3.org/2000/svg" viewBox="0 0 1800.000 1000.000">
  <path d="M 1544.946,782.208 L 1544.783,784.411 L 1544.513,786.603 L 1544.135,788.779 L 1543.651,790.934 L 1543.062,793.063 L 1542.369,795.160 L 1541.575,797.221 L 1540.680,799.240 L 1539.686,801.213 L 1538.598,803.135 L 1537.416,805.001 L 1536.144,806.806 L 1534.785,808.548 L 1533.343,810.220 L 1531.820,811.820 L 1530.220,813.343 L 1528.548,814.785 L 1526.806,816.144 L 1525.001,817.416 L 1523.135,818.598 L 1521.213,819.686 L 1519.240,820.680 L 1517.221,821.575 L 1515.160,822.369 L 1513.063,823.062 L 1510.934,823.651 L 1508.779,824.135 L 1506.603,824.513 L 1504.411,824.783 L 1502.208,824.946 L 1500.000,825.000 L 1497.792,824.946 L 1495.589,824.783 L 1493.397,824.513 L 1491.221,824.135 L 1489.066,823.651 L 1486.937,823.062 L 1484.840,822.369 L 1482.779,821.575 L 1480.760,820.680 L 1478.787,819.686 L 1476.865,818.598 L 1474.999,817.416 L 1473.194,816.144 L 1471.452,814.785 L 1469.780,813.343 L 1468.180,811.820 L 1466.657,810.220 L 1465.215,808.548 L 1463.856,806.806 L 1462.584,805.001 L 1461.402,803.135 L 1460.314,801.213 L 1459.320,799.240 L 1458.425,797.221 L 1457.631,795.160 L 1456.938,793.063 L 1456.349,790.934 L 1455.865,788.779 L 1455.487,786.603 L 1455.217,784.411 L 1455.054,782.208 L 1455.000,780.000 L 1455.000,305.000 L 1370.000,305.000 L 1370.000,780.000 L 1369.946,782.208 L 1369.783,784.411 L 1369.513,786.603 L 1369.135,788.779 L 1368.651,790.934 L 1368.062,793.063 L 1367.369,795.160 L 1366.575,797.221 L 1365.680,799.240 L 1364.686,801.213 L 1363.598,803.135 L 1362.416,805.001 L 1361.144,806.806 L 1359.785,808.548 L 1358.343,810.220 L 1356.820,811.820 L 1355.220,813.343 L 1353.548,814.785 L 1351.806,816.144 L 1350.001,817.416 L 1348.135,818.598 L 1346.213,819.686 L 1344.240,820.680 L 1342.221,821.575 L 1340.160,822.369 L 1338.063,823.062 L 1335.934,823.651 L 1333.779,824.135 L 1331.603,824.513 L 1329.411,824.783 L 1327.208,824.946 L 1325.000,825.000 L 1322.792,824.946 L 1320.589,824.783 L 1318.397,824.513 L 1316.221,824.135 L 1314.066,823.651 L 1311.937,823.062 L 1309.840,822.369 L 1307.779,821.575 L 1305.760,820.680 L 1303.787,819.686 L 1301.865,818.598 L 1299.999,817.416 L 1298.194,816.144 L 1296.452,814.785 L 1294.780,813.343 L 1293.180,811.820 L 1291.657,810.220 L 1290.215,808.548 L 1288.856,806.806 L 1287.584,805.001 L 1286.402,803.135 L 1285.314,801.213 L 1284.320,799.240 L 1283.425,797.221 L 1282.631,795.160 L 1281.938,793.063 L 1281.349,790.934 L 1280.865,788.779 L 1280.487,786.603 L 1280.217,784.411 L 1280.054,782.208 L 1280.000,780.000 L 1280.000,279.000 L 80.000,279.000 L 77.792,278.946 L 75.589,278.783 L 73.397,278.513 L 71.221,278.135 L 69.066,277.651 L 66.937,277.062 L 64.840,276.369 L 62.779,275.575 L 60.760,274.680 L 58.787,273.686 L 56.865,272.598 L 54.999,271.416 L 53.194,270.144 L 51.452,268.785 L 49.780,267.343 L 48.180,265.820 L 46.657,264.220 L 45.215,262.548 L 43.856,260.806 L 42.584,259.001 L 41.402,257.135 L 40.314,255.213 L 39.320,253.240 L 38.425,251.221 L 37.631,249.160 L 36.938,247.063 L 36.349,244.934 L 35.865,242.779 L 35.487,240.603 L 35.217,238.411 L 35.054,236.208 L 35.000,234.000 L 35.054,231.792 L 35.217,229.589 L 35.487,227.397 L 35.865,225.221 L 36.349,223.066 L 36.938,220.937 L 37.631,218.840 L 38.425,216.779 L 39.320,214.760 L 40.314,212.787 L 41.402,210.865 L 42.584,208.999 L 43.856,207.194 L 45.215,205.452 L 46.657,203.780 L 48.180,202.180 L 49.780,200.657 L 51.452,199.215 L 53.194,197.856 L 54.999,196.584 L 56.865,195.402 L 58.787,194.314 L 60.760,193.320 L 62.779,192.425 L 64.840,191.631 L 66.937,190.938 L 69.066,190.349 L 71.221,189.865 L 73.397,189.487 L 75.589,189.217 L 77.792,189.054 L 80.000,189.000 L 1720.000,189.000 L 1722.208,189.054 L 1724.411,189.217 L 1726.603,189.487 L 1728.779,189.865 L 1730.934,190.349 L 1733.063,190.938 L 1735.160,191.631 L 1737.221,192.425 L 1739.240,193.320 L 1741.213,194.314 L 1743.135,195.402 L 1745.001,196.584 L 1746.806,197.856 L 1748.548,199.215 L 1750.220,200.657 L 1751.820,202.180 L 1753.343,203.780 L 1754.785,205.452 L 1756.144,207.194 L 1757.416,208.999 L 1758.598,210.865 L 1759.686,212.787 L 1760.680,214.760 L 1761.575,216.779 L 1762.369,218.840 L 1763.062,220.937 L 1763.651,223.066 L 1764.135,225.221 L 1764.513,227.397 L 1764.783,229.589 L 1764.946,231.792 L 1765.000,234.000 L 1764.946,236.208 L 1764.783,238.411 L 1764.513,240.603 L 1764.135,242.779 L 1763.651,244.934 L 1763.062,247.063 L 1762.369,249.160 L 1761.575,251.221 L 1760.680,253.240 L 1759.686,255.213 L 1758.598,257.135 L 1757.416,259.001 L 1756.144,260.806 L 1754.785,262.548 L 1753.343,264.220 L 1751.820,265.820 L 1750.220,267.343 L 1748.548,268.785 L 1746.806,270.144 L 1745.001,271.416 L 1743.135,272.598 L 1741.213,273.686 L 1739.240,274.680 L 1737.221,275.575 L 1735.160,276.369 L 1733.063,277.062 L 1730.934,277.651 L 1728.779,278.135 L 1726.603,278.513 L 1724.411,278.783 L 1722.208,278.946 L 1720.000,279.000 L 1545.000,279.000 L 1545.000,780.000 L 1544.946,782.208 Z M 1280.487,-6.603 L 1280.865,-8.779 L 1281.349,-10.934 L 1281.938,-13.063 L 1282.631,-15.160 L 1283.425,-17.221 L 1284.320,-19.240 L 1285.314,-21.213 L 1286.402,-23.135 L 1287.584,-25.001 L 1288.856,-26.806 L 1290.215,-28.548 L 1291.657,-30.220 L 1293.180,-31.820 L 1294.780,-33.343 L 1296.452,-34.785 L 1298.194,-36.144 L 1299.999,-37.416 L 1301.865,-38.598 L 1303.787,-39.686 L 1305.760,-40.680 L 1307.779,-41.575 L 1309.840,-42.369 L 1311.937,-43.062 L 1314.066,-43.651 L 1316.221,-44.135 L 1318.397,-44.513 L 1320.589,-44.783 L 1322.792,-44.946 L 1325.000,-45.000 L 1327.208,-44.946 L 1329.411,-44.783 L 1331.603,-44.513 L 1333.779,-44.135 L 1335.934,-43.651 L 1338.063,-43.062 L 1340.160,-42.369 L 1342.221,-41.575 L 1344.240,-40.680 L 1346.213,-39.686 L 1348.135,-38.598 L 1350.001,-37.416 L 1351.806,-36.144 L 1353.548,-34.785 L 1355.220,-33.343 L 1356.820,-31.820 L 1358.343,-30.220 L 1359.785,-28.548 L 1361.144,-26.806 L 1362.416,-25.001 L 1363.598,-23.135 L 1364.686,-21.213 L 1365.680,-19.240 L 1366.575,-17.221 L 1367.369,-15.160 L 1368.062,-13.063 L 1368.651,-10.934 L 1369.135,-8.779 L 1369.513,-6.603 L 1369.783,-4.411 L 1369.946,-2.208 L 1370.000,0.000 L 1370.000,40.000 L 1280.000,40.000 L 1280.000,0.000 L 1280.054,-2.208 L 1280.217,-4.411 L 1280.487,-6.603 Z M 970.105,481.228 L 961.571,476.301 L 952.693,472.026 L 943.520,468.426 L 934.104,465.521 L 924.497,463.329 L 914.753,461.860 L 904.927,461.124 L 895.073,461.124 L 885.247,461.860 L 875.503,463.329 L 865.896,465.521 L 856.480,468.426 L 847.307,472.026 L 838.429,476.301 L 829.895,481.228 L 821.753,486.779 L 814.049,492.923 L 806.826,499.626 L 800.123,506.849 L 793.979,514.553 L 788.428,522.695 L 783.501,531.229 L 779.226,540.107 L 775.626,549.280 L 772.721,558.696 L 770.529,568.303 L 769.060,578.047 L 768.324,587.873 L 768.324,597.727 L 769.060,607.553 L 770.529,617.297 L 772.721,626.904 L 775.626,636.320 L 779.226,645.493 L 783.501,654.371 L 788.428,662.905 L 793.979,671.047 L 800.123,678.751 L 806.826,685.974 L 814.049,692.677 L 821.753,698.821 L 829.895,704.372 L 838.429,709.299 L 847.307,713.574 L 856.480,717.174 L 865.896,720.079 L 875.503,722.271 L 885.247,723.740 L 895.073,724.476 L 904.927,724.476 L 914.753,723.740 L 924.497,722.271 L 934.104,720.079 L 943.520,717.174 L 952.693,713.574 L 961.571,709.299 L 970.105,704.372 L 978.247,698.821 L 985.951,692.677 L 994.409,684.829 L 996.064,683.367 L 997.789,681.988 L 999.580,680.695 L 1001.432,679.492 L 1003.341,678.381 L 1005.302,677.365 L 1007.311,676.446 L 1009.362,675.627 L 1011.451,674.910 L 1013.573,674.296 L 1015.722,673.787 L 1017.894,673.384 L 1020.083,673.088 L 1022.283,672.900 L 1024.491,672.820 L 1026.699,672.848 L 1028.904,672.985 L 1031.099,673.229 L 1033.279,673.582 L 1035.440,674.040 L 1037.575,674.604 L 1039.680,675.273 L 1041.750,676.043 L 1043.780,676.915 L 1045.764,677.885 L 1047.698,678.951 L 1049.578,680.111 L 1051.399,681.361 L 1053.156,682.700 L 1054.845,684.123 L 1056.462,685.627 L 1058.004,687.209 L 1059.466,688.864 L 1060.845,690.589 L 1062.138,692.380 L 1063.341,694.232 L 1064.452,696.141 L 1065.468,698.102 L 1066.387,700.111 L 1067.206,702.162 L 1067.923,704.251 L 1068.537,706.373 L 1069.046,708.522 L 1069.449,710.694 L 1069.745,712.883 L 1069.933,715.083 L 1070.013,717.291 L 1069.985,719.499 L 1069.848,721.704 L 1069.604,723.899 L 1069.251,726.079 L 1068.793,728.240 L 1068.229,730.375 L 1067.560,732.480 L 1066.789,734.550 L 1065.918,736.580 L 1064.948,738.564 L 1063.882,740.498 L 1062.722,742.378 L 1061.472,744.199 L 1060.133,745.956 L 1058.710,747.645 L 1057.206,749.262 L 1055.624,750.804 L 1045.932,759.797 L 1044.677,760.918 L 1043.381,761.992 L 1033.044,770.235 L 1031.709,771.260 L 1030.337,772.234 L 1019.413,779.682 L 1018.005,780.603 L 1016.563,781.472 L 1005.113,788.083 L 1003.640,788.897 L 1002.138,789.655 L 990.226,795.392 L 988.696,796.094 L 987.141,796.738 L 974.834,801.568 L 973.256,802.153 L 971.657,802.679 L 959.023,806.576 L 957.406,807.042 L 955.773,807.447 L 942.883,810.390 L 941.235,810.733 L 939.576,811.015 L 926.502,812.986 L 924.834,813.205 L 923.158,813.362 L 909.974,814.351 L 908.293,814.445 L 906.611,814.476 L 893.389,814.476 L 891.707,814.445 L 890.026,814.351 L 876.842,813.362 L 875.166,813.205 L 873.498,812.986 L 860.424,811.015 L 858.765,810.733 L 857.117,810.390 L 844.227,807.447 L 842.594,807.042 L 840.977,806.576 L 828.343,802.679 L 826.744,802.153 L 825.166,801.568 L 812.859,796.738 L 811.304,796.094 L 809.774,795.392 L 797.862,789.655 L 796.360,788.897 L 794.887,788.083 L 783.437,781.472 L 781.995,780.603 L 780.587,779.682 L 769.663,772.234 L 768.291,771.260 L 766.956,770.235 L 756.619,761.992 L 755.323,760.918 L 754.068,759.797 L 744.376,750.804 L 743.164,749.636 L 741.996,748.424 L 733.003,738.732 L 731.882,737.477 L 730.808,736.181 L 722.565,725.844 L 721.540,724.509 L 720.566,723.137 L 713.118,712.213 L 712.197,710.805 L 711.328,709.363 L 704.717,697.913 L 703.903,696.440 L 703.145,694.938 L 697.408,683.026 L 696.706,681.496 L 696.062,679.941 L 691.232,667.634 L 690.647,666.056 L 690.121,664.457 L 686.224,651.823 L 685.758,650.206 L 685.353,648.573 L 682.410,635.683 L 682.067,634.035 L 681.785,632.376 L 679.814,619.302 L 679.595,617.634 L 679.438,615.958 L 678.449,602.774 L 678.355,601.093 L 678.324,599.411 L 678.324,586.189 L 678.355,584.507 L 678.449,582.826 L 679.438,569.642 L 679.595,567.966 L 679.814,566.298 L 681.785,553.224 L 682.067,551.565 L 682.410,549.917 L 685.353,537.027 L 685.758,535.394 L 686.224,533.777 L 690.121,521.143 L 690.647,519.544 L 691.232,517.966 L 696.062,505.659 L 696.706,504.104 L 697.408,502.574 L 703.145,490.662 L 703.903,489.160 L 704.717,487.687 L 711.328,476.237 L 712.197,474.795 L 713.118,473.387 L 720.566,462.463 L 721.540,461.091 L 722.565,459.756 L 730.808,449.419 L 731.882,448.123 L 733.003,446.868 L 741.996,437.176 L 743.164,435.964 L 744.376,434.796 L 754.068,425.803 L 755.323,424.682 L 756.619,423.608 L 766.956,415.365 L 768.291,414.340 L 769.663,413.366 L 780.587,405.918 L 781.995,404.997 L 783.437,404.128 L 794.887,397.517 L 796.360,396.703 L 797.862,395.945 L 809.774,390.208 L 811.304,389.506 L 812.859,388.862 L 825.166,384.032 L 826.744,383.447 L 828.343,382.921 L 840.977,379.024 L 842.594,378.558 L 844.227,378.153 L 857.117,375.210 L 858.765,374.867 L 860.424,374.585 L 873.498,372.614 L 875.166,372.395 L 876.842,372.238 L 890.026,371.249 L 891.707,371.155 L 893.389,371.124 L 906.611,371.124 L 908.293,371.155 L 909.974,371.249 L 923.158,372.238 L 924.834,372.395 L 926.502,372.614 L 939.576,374.585 L 941.235,374.867 L 942.883,375.210 L 955.773,378.153 L 957.406,378.558 L 959.023,379.024 L 971.657,382.921 L 973.256,383.447 L 974.834,384.032 L 987.141,388.862 L 988.696,389.506 L 990.226,390.208 L 1002.138,395.945 L 1003.640,396.703 L 1005.113,397.517 L 1016.563,404.128 L 1018.005,404.997 L 1019.413,405.918 L 1030.337,413.366 L 1031.709,414.340 L 1033.044,415.365 L 1043.381,423.608 L 1044.677,424.682 L 1045.932,425.803 L 1055.624,434.796 L 1057.206,436.338 L 1058.710,437.955 L 1060.133,439.644 L 1061.472,441.401 L 1062.722,443.222 L 1063.882,445.102 L 1064.948,447.036 L 1065.918,449.020 L 1066.789,451.050 L 1067.560,453.120 L 1068.229,455.225 L 1068.793,457.360 L 1069.251,459.521 L 1069.604,461.701 L 1069.848,463.896 L 1069.985,466.101 L 1070.013,468.309 L 1069.933,470.517 L 1069.745,472.717 L 1069.449,474.906 L 1069.046,477.078 L 1068.537,479.227 L 1067.923,481.349 L 1067.206,483.438 L 1066.387,485.489 L 1065.468,487.498 L 1064.452,489.459 L 1063.341,491.368 L 1062.138,493.220 L 1060.845,495.011 L 1059.466,496.736 L 1058.004,498.391 L 1056.462,499.973 L 1054.845,501.477 L 1053.156,502.900 L 1051.399,504.239 L 1049.578,505.489 L 1047.698,506.649 L 1045.764,507.715 L 1043.780,508.685 L 1041.750,509.557 L 1039.680,510.327 L 1037.575,510.996 L 1035.440,511.560 L 1033.279,512.018 L 1031.099,512.371 L 1028.904,512.615 L 1026.699,512.752 L 1024.491,512.780 L 1022.283,512.700 L 1020.083,512.512 L 1017.894,512.216 L 1015.722,511.813 L 1013.573,511.304 L 1011.451,510.690 L 1009.362,509.973 L 1007.311,509.154 L 1005.302,508.235 L 1003.341,507.219 L 1001.432,506.108 L 999.580,504.905 L 997.789,503.612 L 996.064,502.233 L 994.409,500.771 L 985.951,492.923 L 978.247,486.779 L 970.105,481.228 Z M 389.330,591.841 L 383.331,584.883 L 376.791,578.431 L 369.753,572.525 L 362.263,567.205 L 354.369,562.505 L 346.122,558.455 L 337.576,555.082 L 331.338,553.184 L 333.135,554.202 L 335.001,555.384 L 336.806,556.656 L 338.548,558.015 L 340.220,559.457 L 341.820,560.980 L 343.343,562.580 L 344.785,564.252 L 346.144,565.994 L 347.416,567.799 L 348.598,569.665 L 349.686,571.587 L 350.680,573.560 L 351.575,575.579 L 352.369,577.640 L 353.062,579.737 L 353.651,581.866 L 354.135,584.021 L 354.513,586.197 L 354.783,588.389 L 354.946,590.592 L 355.000,592.800 L 354.946,595.008 L 354.783,597.211 L 354.513,599.403 L 354.135,601.579 L 353.651,603.734 L 353.062,605.863 L 352.369,607.960 L 351.575,610.021 L 350.680,612.040 L 349.686,614.013 L 348.598,615.935 L 347.416,617.801 L 346.144,619.606 L 344.785,621.348 L 343.343,623.020 L 341.820,624.620 L 340.220,626.143 L 338.548,627.585 L 336.806,628.944 L 335.001,630.216 L 333.135,631.398 L 331.213,632.486 L 329.240,633.480 L 327.221,634.375 L 325.160,635.169 L 323.063,635.862 L 320.934,636.451 L 318.779,636.935 L 316.603,637.313 L 314.411,637.583 L 312.208,637.746 L 310.000,637.800 L 290.000,637.800 L 287.792,637.746 L 285.589,637.583 L 283.397,637.313 L 281.221,636.935 L 279.066,636.451 L 276.937,635.862 L 274.840,635.169 L 272.779,634.375 L 270.760,633.480 L 268.787,632.486 L 266.865,631.398 L 264.999,630.216 L 263.194,628.944 L 261.452,627.585 L 259.780,626.143 L 258.180,624.620 L 256.657,623.020 L 255.215,621.348 L 253.856,619.606 L 252.584,617.801 L 251.402,615.935 L 250.314,614.013 L 249.320,612.040 L 248.425,610.021 L 247.631,607.960 L 246.938,605.863 L 246.349,603.734 L 245.865,601.579 L 245.487,599.403 L 245.217,597.211 L 245.054,595.008 L 245.000,592.800 L 245.054,590.592 L 245.217,588.389 L 245.487,586.197 L 245.865,584.021 L 246.349,581.866 L 246.938,579.737 L 247.631,577.640 L 248.425,575.579 L 249.320,573.560 L 250.314,571.587 L 251.402,569.665 L 252.584,567.799 L 253.856,565.994 L 255.215,564.252 L 256.657,562.580 L 258.180,560.980 L 259.780,559.457 L 261.452,558.015 L 263.194,556.656 L 264.999,555.384 L 266.865,554.202 L 268.624,553.206 L 265.329,554.112 L 256.696,557.255 L 248.344,561.081 L 240.326,565.568 L 232.696,570.685 L 225.502,576.399 L 218.791,582.674 L 212.607,589.469 L 206.990,596.739 L 201.976,604.437 L 197.597,612.514 L 193.883,620.917 L 190.857,629.592 L 188.539,638.482 L 186.943,647.530 L 186.081,656.676 L 185.958,665.863 L 186.574,675.030 L 187.926,684.117 L 190.005,693.066 L 193.348,703.547 L 193.967,705.667 L 194.482,707.815 L 194.890,709.985 L 195.192,712.173 L 195.386,714.373 L 195.472,716.580 L 195.449,718.789 L 195.318,720.994 L 195.079,723.190 L 194.732,725.371 L 194.279,727.533 L 193.720,729.669 L 193.058,731.776 L 192.292,733.848 L 191.426,735.880 L 190.461,737.867 L 189.400,739.804 L 188.245,741.687 L 186.999,743.510 L 185.665,745.271 L 184.247,746.964 L 182.747,748.585 L 181.169,750.131 L 179.517,751.597 L 177.795,752.981 L 176.008,754.278 L 174.159,755.486 L 172.253,756.602 L 170.294,757.623 L 168.288,758.547 L 166.239,759.371 L 164.152,760.094 L 162.032,760.713 L 159.884,761.228 L 157.713,761.636 L 155.525,761.938 L 153.325,762.132 L 151.118,762.218 L 148.909,762.195 L 146.705,762.064 L 144.509,761.825 L 142.327,761.478 L 140.166,761.025 L 138.029,760.467 L 135.922,759.804 L 133.850,759.038 L 131.818,758.172 L 129.832,757.207 L 127.894,756.146 L 126.012,754.991 L 124.188,753.745 L 122.428,752.411 L 120.735,750.993 L 119.113,749.493 L 117.568,747.915 L 116.101,746.263 L 114.718,744.542 L 113.420,742.754 L 112.212,740.905 L 111.096,738.999 L 110.075,737.041 L 109.151,735.034 L 108.327,732.985 L 107.605,730.898 L 103.710,718.690 L 103.194,716.952 L 102.749,715.196 L 99.849,702.714 L 99.475,700.941 L 99.172,699.154 L 97.287,686.479 L 97.056,684.681 L 96.898,682.876 L 96.039,670.091 L 95.954,668.280 L 95.941,666.468 L 96.113,653.655 L 96.174,651.844 L 96.308,650.036 L 97.510,637.278 L 97.717,635.478 L 97.996,633.687 L 100.221,621.068 L 100.571,619.289 L 100.993,617.527 L 104.227,605.127 L 104.719,603.383 L 105.281,601.660 L 108.317,592.957 L 107.605,590.898 L 103.710,578.690 L 103.194,576.952 L 102.749,575.196 L 99.849,562.714 L 99.475,560.941 L 99.172,559.154 L 97.287,546.479 L 97.056,544.681 L 96.898,542.876 L 96.039,530.091 L 95.954,528.280 L 95.941,526.468 L 96.113,513.655 L 96.174,511.844 L 96.308,510.036 L 97.510,497.278 L 97.717,495.478 L 97.996,493.687 L 100.221,481.068 L 100.571,479.289 L 100.993,477.527 L 104.227,465.127 L 104.719,463.383 L 105.281,461.660 L 109.502,449.561 L 110.133,447.862 L 110.833,446.190 L 116.013,434.470 L 116.779,432.827 L 117.611,431.217 L 123.717,419.952 L 124.613,418.376 L 125.571,416.838 L 132.565,406.100 L 133.584,404.602 L 134.663,403.146 L 142.498,393.006 L 143.635,391.594 L 144.828,390.230 L 153.453,380.753 L 154.700,379.437 L 155.998,378.173 L 165.358,369.421 L 166.707,368.211 L 168.103,367.055 L 178.137,359.085 L 179.578,357.986 L 181.063,356.947 L 191.706,349.810 L 193.231,348.831 L 194.794,347.914 L 205.977,341.656 L 207.576,340.803 L 209.208,340.016 L 220.858,334.678 L 222.520,333.957 L 224.210,333.303 L 236.252,328.920 L 237.967,328.334 L 239.704,327.819 L 252.059,324.419 L 253.816,323.973 L 255.589,323.599 L 268.178,321.205 L 269.965,320.902 L 271.762,320.671 L 284.503,319.298 L 286.308,319.140 L 288.118,319.055 L 300.928,318.711 L 302.740,318.698 L 304.552,318.759 L 317.347,319.447 L 319.155,319.581 L 320.955,319.787 L 333.654,321.502 L 335.445,321.781 L 337.223,322.132 L 349.743,324.863 L 351.505,325.285 L 353.250,325.778 L 365.509,329.508 L 367.232,330.070 L 368.931,330.701 L 380.850,335.406 L 382.522,336.105 L 384.165,336.871 L 395.667,342.519 L 397.277,343.351 L 398.853,344.246 L 409.863,350.802 L 411.401,351.760 L 412.900,352.779 L 423.347,360.200 L 424.803,361.279 L 426.215,362.415 L 436.031,370.652 L 437.396,371.845 L 438.711,373.092 L 447.833,382.092 L 449.097,383.390 L 450.308,384.739 L 458.676,394.443 L 459.831,395.840 L 460.930,397.281 L 468.490,407.628 L 469.529,409.112 L 470.508,410.638 L 477.211,421.559 L 478.127,423.122 L 478.980,424.721 L 484.783,436.147 L 485.570,437.779 L 486.292,439.441 L 491.156,451.297 L 491.944,453.360 L 492.630,455.460 L 493.212,457.590 L 493.688,459.747 L 494.059,461.924 L 494.322,464.117 L 494.477,466.321 L 494.524,468.529 L 494.462,470.737 L 494.292,472.939 L 494.014,475.130 L 493.630,477.305 L 493.138,479.458 L 492.542,481.585 L 491.842,483.680 L 491.040,485.738 L 490.139,487.754 L 489.139,489.724 L 488.044,491.642 L 486.856,493.504 L 485.578,495.305 L 484.213,497.042 L 482.765,498.710 L 481.237,500.304 L 479.632,501.822 L 477.955,503.259 L 476.209,504.612 L 474.399,505.878 L 472.529,507.053 L 470.603,508.135 L 468.627,509.122 L 466.605,510.010 L 464.542,510.798 L 462.442,511.484 L 460.311,512.066 L 458.155,512.542 L 455.977,512.913 L 453.784,513.176 L 451.581,513.331 L 449.373,513.378 L 447.165,513.316 L 444.963,513.146 L 442.772,512.868 L 440.597,512.483 L 438.443,511.992 L 437.149,511.629 L 437.396,511.845 L 438.711,513.092 L 447.833,522.092 L 449.097,523.390 L 450.308,524.739 L 458.676,534.443 L 459.831,535.840 L 460.930,537.281 L 468.490,547.628 L 469.529,549.112 L 470.508,550.638 L 477.211,561.559 L 478.127,563.122 L 478.980,564.721 L 484.783,576.147 L 485.570,577.779 L 486.292,579.441 L 491.156,591.297 L 491.944,593.360 L 492.630,595.460 L 493.212,597.590 L 493.688,599.747 L 494.059,601.924 L 494.322,604.117 L 494.477,606.321 L 494.524,608.529 L 494.462,610.737 L 494.292,612.939 L 494.014,615.130 L 493.630,617.305 L 493.138,619.458 L 492.542,621.585 L 491.842,623.680 L 491.040,625.738 L 490.139,627.754 L 489.139,629.724 L 488.044,631.642 L 486.856,633.504 L 485.578,635.305 L 484.213,637.042 L 482.765,638.710 L 481.237,640.304 L 479.632,641.822 L 477.955,643.259 L 476.209,644.612 L 474.399,645.878 L 472.529,647.053 L 470.603,648.135 L 468.627,649.122 L 466.605,650.010 L 464.542,650.798 L 462.442,651.484 L 460.311,652.066 L 458.155,652.542 L 455.977,652.913 L 453.784,653.176 L 451.581,653.331 L 449.373,653.378 L 447.165,653.316 L 444.963,653.146 L 442.772,652.868 L 440.597,652.483 L 438.443,651.992 L 436.317,651.396 L 434.222,650.696 L 432.164,649.894 L 430.147,648.992 L 428.178,647.993 L 426.260,646.898 L 424.398,645.710 L 422.596,644.432 L 420.860,643.067 L 419.192,641.619 L 417.597,640.091 L 416.080,638.486 L 414.643,636.809 L 413.290,635.063 L 412.024,633.253 L 410.849,631.383 L 409.766,629.457 L 408.780,627.481 L 407.892,625.459 L 403.716,615.281 L 399.556,607.090 L 394.750,599.260 L 389.330,591.841 Z M 194.794,487.914 L 205.977,481.656 L 207.576,480.803 L 209.208,480.016 L 220.858,474.678 L 222.520,473.957 L 224.210,473.303 L 236.252,468.920 L 237.967,468.334 L 239.704,467.819 L 252.059,464.419 L 253.816,463.973 L 255.589,463.599 L 268.178,461.205 L 269.965,460.902 L 271.762,460.671 L 284.503,459.298 L 286.308,459.140 L 288.118,459.055 L 300.928,458.711 L 302.740,458.698 L 304.552,458.759 L 317.347,459.447 L 319.155,459.581 L 320.955,459.787 L 333.654,461.502 L 335.445,461.781 L 337.223,462.132 L 349.743,464.863 L 351.505,465.285 L 353.250,465.778 L 365.509,469.508 L 367.232,470.070 L 368.931,470.701 L 380.850,475.406 L 382.522,476.105 L 384.165,476.871 L 395.667,482.519 L 397.277,483.351 L 398.853,484.246 L 409.863,490.802 L 410.883,491.437 L 410.849,491.383 L 409.766,489.457 L 408.780,487.481 L 407.892,485.459 L 403.716,475.281 L 399.556,467.090 L 394.750,459.260 L 389.330,451.841 L 383.331,444.883 L 376.791,438.431 L 369.753,432.525 L 362.263,427.205 L 354.369,422.505 L 346.122,418.455 L 337.576,415.082 L 328.787,412.408 L 319.810,410.450 L 310.706,409.220 L 301.532,408.727 L 292.348,408.973 L 283.213,409.958 L 274.188,411.675 L 265.329,414.112 L 256.696,417.255 L 248.344,421.081 L 240.326,425.568 L 232.696,430.685 L 225.502,436.399 L 218.791,442.674 L 212.607,449.469 L 206.990,456.739 L 201.976,464.437 L 197.597,472.514 L 193.883,480.917 L 190.857,489.592 L 190.608,490.546 L 191.706,489.810 L 193.231,488.831 L 194.794,487.914 Z" fill="black" fill-rule="evenodd"/>
</svg>
