<svg xmlns="http://www.w3.org/2000/svg" viewBox="0 0 1000 1000" width="1000" height="1000">
  <path d="M 657.002 352.021 L 655.991 350.884 L 655.293 350.112 L 654.581 349.352 L 653.858 348.603 L 653.122 347.867 L 652.373 347.143 L 651.613 346.432 L 650.841 345.733 L 650.058 345.048 L 649.263 344.376 L 648.457 343.716 L 647.640 343.071 L 646.813 342.439 L 645.975 341.821 L 645.127 341.217 L 644.269 340.627 L 642.855 339.673 L 641.971 339.086 L 641.076 338.515 L 640.172 337.959 L 639.259 337.418 L 638.337 336.893 L 637.405 336.384 L 636.466 335.890 L 635.518 335.413 L 634.562 334.952 L 633.598 334.507 L 632.627 334.078 L 630.827 333.302 L 629.842 332.887 L 628.850 332.489 L 627.852 332.109 L 626.847 331.745 L 625.837 331.399 L 624.820 331.069 L 623.798 330.758 L 622.771 330.464 L 620.600 329.862 L 619.579 329.588 L 618.553 329.332 L 617.524 329.093 L 616.490 328.871 L 615.453 328.667 L 614.412 328.481 L 611.887 328.050 L 610.933 327.895 L 609.978 327.755 L 609.020 327.630 L 608.061 327.519 L 607.100 327.423 L 604.236 327.160 L 603.294 327.081 L 602.352 327.016 L 601.408 326.965 L 600.464 326.928 L 597.278 326.829 L 596.265 326.806 L 595.252 326.799 L 594.240 326.808 L 590.747 326.870 L 589.497 326.904 L 588.248 326.963 L 584.466 327.181 L 583.416 327.250 L 582.368 327.337 L 578.312 327.708 L 577.415 327.797 L 576.519 327.898 L 572.205 328.418 L 571.425 328.517 L 570.646 328.626 L 566.090 329.292 L 564.714 329.509 L 559.933 330.318 L 558.700 330.539 L 553.709 331.485 L 552.591 331.708 L 547.407 332.790 L 546.381 333.013 L 541.019 334.227 L 540.066 334.450 L 534.543 335.791 L 533.648 336.016 L 527.981 337.481 L 527.132 337.707 L 521.336 339.293 L 520.523 339.521 L 514.614 341.224 L 513.829 341.455 L 507.824 343.271 L 507.060 343.508 L 500.973 345.434 L 500.223 345.676 L 494.072 347.708 L 493.330 347.959 L 487.131 350.093 L 486.392 350.353 L 480.161 352.586 L 479.419 352.857 L 473.171 355.186 L 472.422 355.471 L 466.175 357.891 L 465.414 358.191 L 459.183 360.700 L 458.405 361.019 L 452.206 363.611 L 451.407 363.952 L 445.256 366.626 L 444.431 366.992 L 438.345 369.743 L 437.487 370.138 L 431.481 372.962 L 430.587 373.392 L 424.678 376.286 L 423.740 376.756 L 417.943 379.716 L 416.955 380.232 L 411.288 383.256 L 410.243 383.826 L 404.721 386.909 L 403.611 387.543 L 398.250 390.681 L 397.067 391.392 L 391.883 394.582 L 390.618 395.382 L 385.627 398.620 L 384.945 399.069 L 384.269 399.527 L 379.488 402.810 L 378.753 403.322 L 378.026 403.845 L 373.471 407.169 L 372.678 407.758 L 371.894 408.358 L 367.580 411.720 L 366.723 412.400 L 365.878 413.095 L 361.822 416.491 L 360.895 417.283 L 359.984 418.092 L 356.201 421.518 L 355.531 422.134 L 354.870 422.760 L 354.218 423.395 L 350.726 426.847 L 350.004 427.573 L 349.294 428.311 L 348.596 429.059 L 345.410 432.535 L 344.636 433.395 L 343.879 434.268 L 343.138 435.156 L 340.274 438.651 L 339.657 439.416 L 339.053 440.190 L 338.461 440.974 L 337.881 441.767 L 335.355 445.278 L 334.713 446.188 L 334.086 447.110 L 333.477 448.042 L 332.884 448.986 L 330.712 452.509 L 330.190 453.373 L 329.681 454.245 L 329.186 455.126 L 328.705 456.014 L 328.239 456.910 L 326.439 460.442 L 326.014 461.292 L 325.602 462.147 L 325.203 463.009 L 324.817 463.877 L 324.445 464.750 L 324.086 465.629 L 322.672 469.166 L 322.286 470.155 L 321.917 471.151 L 321.565 472.153 L 321.230 473.161 L 320.912 474.174 L 320.612 475.193 L 319.601 478.731 L 319.333 479.698 L 319.080 480.669 L 318.843 481.645 L 318.622 482.624 L 318.417 483.606 L 318.227 484.591 L 318.054 485.580 L 317.461 489.116 L 317.291 490.187 L 317.140 491.260 L 317.008 492.336 L 316.894 493.415 L 316.799 494.495 L 316.722 495.576 L 316.664 496.659 L 316.507 500.189 L 316.471 501.187 L 316.450 502.185 L 316.446 503.183 L 316.457 504.181 L 316.484 505.179 L 316.527 506.177 L 316.587 507.173 L 316.662 508.169 L 316.955 511.690 L 317.048 512.704 L 317.158 513.717 L 317.284 514.728 L 317.426 515.736 L 317.585 516.742 L 317.760 517.746 L 317.952 518.746 L 318.160 519.744 L 318.921 523.251 L 319.146 524.250 L 319.388 525.245 L 319.646 526.236 L 319.920 527.222 L 320.210 528.204 L 320.516 529.181 L 320.838 530.152 L 321.176 531.119 L 321.530 532.079 L 321.899 533.034 L 322.284 533.983 L 322.685 534.925 L 323.101 535.860 L 323.532 536.789 L 323.979 537.710 L 324.440 538.624 L 324.916 539.530 L 325.407 540.428 L 325.913 541.318 L 326.433 542.200 L 326.968 543.073 L 327.517 543.937 L 329.401 546.851 L 329.952 547.689 L 330.516 548.517 L 332.419 551.262 L 333.026 552.122 L 333.647 552.972 L 335.568 555.553 L 336.234 556.432 L 336.916 557.299 L 338.854 559.721 L 339.583 560.613 L 340.327 561.493 L 342.283 563.759 L 343.075 564.660 L 343.885 565.545 L 345.858 567.662 L 346.715 568.564 L 347.591 569.448 L 349.580 571.419 L 350.193 572.018 L 350.815 572.608 L 351.444 573.190 L 353.450 575.020 L 354.105 575.609 L 354.768 576.189 L 355.440 576.760 L 357.462 578.453 L 358.157 579.027 L 358.860 579.591 L 359.572 580.144 L 361.609 581.706 L 362.341 582.258 L 363.081 582.800 L 363.829 583.331 L 365.881 584.765 L 366.645 585.290 L 367.417 585.805 L 368.197 586.307 L 370.264 587.619 L 371.055 588.112 L 371.853 588.594 L 372.658 589.064 L 374.739 590.257 L 375.550 590.714 L 376.368 591.159 L 377.192 591.592 L 379.288 592.672 L 380.111 593.089 L 380.941 593.494 L 381.776 593.886 L 383.886 594.858 L 384.715 595.233 L 385.549 595.595 L 386.388 595.945 L 388.512 596.813 L 389.338 597.144 L 390.168 597.463 L 391.004 597.770 L 393.140 598.539 L 393.956 598.826 L 394.776 599.102 L 395.599 599.366 L 397.748 600.040 L 398.947 600.403 L 400.153 600.741 L 402.314 601.325 L 403.477 601.627 L 404.644 601.906 L 406.818 602.405 L 407.936 602.650 L 409.057 602.875 L 411.243 603.292 L 412.308 603.486 L 413.376 603.662 L 415.573 604.003 L 416.580 604.151 L 417.590 604.282 L 419.798 604.552 L 420.742 604.660 L 421.688 604.754 L 423.907 604.956 L 424.786 605.030 L 425.666 605.092 L 427.895 605.232 L 428.706 605.278 L 429.517 605.313 L 431.756 605.395 L 433.240 605.432 L 435.488 605.462 L 436.833 605.465 L 439.091 605.446 L 440.296 605.424 L 442.563 605.361 L 443.631 605.322 L 445.906 605.220 L 446.839 605.172 L 449.122 605.035 L 449.921 604.982 L 452.212 604.815 L 452.879 604.763 L 455.178 604.571 L 455.716 604.524 L 458.022 604.312 L 458.433 604.272 L 460.746 604.044 L 461.032 604.015 L 463.351 603.775 L 463.514 603.758 L 465.839 603.511 L 468.172 603.262 L 470.368 603.030 L 472.449 602.817 L 474.415 602.626 L 476.265 602.460 L 477.999 602.320 L 479.616 602.207 L 481.115 602.121 L 482.496 602.063 L 483.758 602.031 L 484.902 602.023 L 485.928 602.037 L 486.838 602.070 L 487.633 602.118 L 488.319 602.178 L 488.900 602.245 L 489.384 602.315 L 489.777 602.385 L 490.092 602.452 L 490.339 602.513 L 490.532 602.569 L 490.686 602.619 L 490.816 602.667 L 490.940 602.719 L 491.074 602.780 L 491.233 602.861 L 491.433 602.973 L 491.688 603.129 L 492.010 603.345 L 492.409 603.634 L 492.894 604.015 L 493.469 604.503 L 493.598 604.621 L 492.750 604.939 L 490.281 605.846 L 487.720 606.769 L 485.075 607.706 L 482.348 608.659 L 479.546 609.627 L 476.672 610.610 L 473.730 611.610 L 470.725 612.628 L 467.669 613.661 L 464.570 614.710 L 464.509 614.731 L 461.419 615.781 L 461.314 615.816 L 458.218 616.874 L 458.070 616.925 L 454.971 617.992 L 454.780 618.059 L 451.681 619.137 L 451.446 619.219 L 448.351 620.311 L 448.073 620.409 L 444.984 621.515 L 444.661 621.631 L 441.582 622.753 L 441.215 622.887 L 438.147 624.026 L 437.735 624.181 L 434.683 625.338 L 434.225 625.514 L 431.191 626.691 L 430.687 626.890 L 427.674 628.089 L 427.122 628.313 L 424.134 629.535 L 423.532 629.785 L 420.572 631.033 L 419.921 631.312 L 416.991 632.587 L 416.288 632.898 L 413.393 634.200 L 412.637 634.545 L 409.778 635.877 L 408.969 636.261 L 406.150 637.624 L 405.285 638.050 L 402.509 639.445 L 401.589 639.917 L 398.858 641.346 L 397.881 641.868 L 395.199 643.333 L 394.164 643.911 L 391.535 645.413 L 390.442 646.052 L 387.867 647.592 L 386.715 648.298 L 384.198 649.879 L 382.989 650.658 L 380.533 652.280 L 379.267 653.139 L 376.875 654.804 L 376.211 655.273 L 375.553 655.751 L 373.229 657.461 L 372.538 657.976 L 371.854 658.501 L 369.600 660.258 L 368.884 660.824 L 368.176 661.401 L 365.995 663.205 L 365.256 663.825 L 364.527 664.458 L 362.422 666.311 L 361.664 666.990 L 360.916 667.681 L 358.891 669.585 L 358.116 670.326 L 357.355 671.080 L 355.412 673.036 L 354.626 673.842 L 353.855 674.661 L 351.997 676.671 L 351.206 677.544 L 350.430 678.432 L 348.661 680.498 L 347.870 681.440 L 347.098 682.398 L 345.420 684.521 L 344.895 685.194 L 344.380 685.875 L 343.873 686.562 L 342.290 688.743 L 341.775 689.463 L 341.271 690.190 L 340.776 690.924 L 339.291 693.165 L 338.792 693.931 L 338.303 694.704 L 337.826 695.484 L 336.442 697.786 L 335.922 698.666 L 335.416 699.555 L 334.926 700.452 L 334.450 701.357 L 333.988 702.270 L 333.542 703.190 L 333.111 704.118 L 332.695 705.052 L 332.295 705.993 L 331.910 706.940 L 331.540 707.894 L 331.186 708.853 L 330.848 709.818 L 330.526 710.789 L 330.219 711.765 L 329.929 712.745 L 329.655 713.730 L 329.397 714.720 L 329.155 715.714 L 328.929 716.711 L 328.720 717.712 L 328.527 718.716 L 328.351 719.724 L 328.191 720.734 L 328.047 721.746 L 327.921 722.761 L 327.811 723.778 L 327.717 724.796 L 327.640 725.816 L 327.580 726.837 L 327.537 727.858 L 327.510 728.881 L 327.500 729.903 L 327.507 730.926 L 327.530 731.948 L 327.571 732.970 L 327.628 733.991 L 327.701 735.011 L 327.792 736.030 L 327.899 737.047 L 328.022 738.062 L 328.162 739.075 L 328.319 740.085 L 328.492 741.093 L 328.682 742.098 L 328.888 743.100 L 329.111 744.098 L 329.350 745.092 L 329.605 746.083 L 329.876 747.069 L 330.163 748.050 L 330.467 749.027 L 330.786 749.998 L 331.121 750.964 L 331.472 751.925 L 331.838 752.880 L 332.221 753.828 L 332.618 754.770 L 333.031 755.706 L 333.459 756.635 L 333.903 757.556 L 334.361 758.470 L 334.834 759.377 L 335.322 760.276 L 335.825 761.166 L 336.342 762.048 L 336.874 762.922 L 337.420 763.787 L 337.979 764.643 L 338.553 765.489 L 339.141 766.326 L 339.742 767.153 L 340.357 767.971 L 340.984 768.778 L 341.626 769.575 L 342.280 770.361 L 342.946 771.136 L 343.626 771.901 L 344.317 772.654 L 345.021 773.396 L 345.737 774.126 L 346.465 774.844 L 347.205 775.550 L 347.956 776.244 L 348.718 776.926 L 349.492 777.595 L 350.276 778.252 L 351.070 778.895 L 351.876 779.526 L 352.691 780.143 L 353.517 780.746 L 354.352 781.337 L 355.196 781.913 L 356.050 782.476 L 356.914 783.024 L 357.786 783.558 L 358.666 784.078 L 359.555 784.584 L 360.452 785.074 L 361.357 785.550 L 362.270 786.012 L 363.190 786.458 L 364.118 786.889 L 365.052 787.305 L 365.993 787.705 L 366.940 788.090 L 367.894 788.460 L 368.853 788.814 L 369.818 789.152 L 370.789 789.474 L 371.765 789.781 L 372.745 790.071 L 373.730 790.345 L 374.720 790.603 L 375.714 790.845 L 376.711 791.071 L 377.712 791.280 L 378.716 791.473 L 379.724 791.649 L 380.734 791.809 L 381.746 791.953 L 382.761 792.079 L 383.778 792.189 L 384.796 792.283 L 385.816 792.360 L 386.837 792.420 L 387.858 792.463 L 388.881 792.490 L 389.903 792.500 L 390.926 792.493 L 391.948 792.470 L 392.970 792.429 L 393.991 792.372 L 395.011 792.299 L 396.030 792.208 L 397.047 792.101 L 398.062 791.978 L 399.075 791.838 L 400.085 791.681 L 401.093 791.508 L 402.098 791.318 L 403.100 791.112 L 404.098 790.889 L 405.092 790.650 L 406.083 790.395 L 407.069 790.124 L 408.050 789.837 L 409.027 789.533 L 409.998 789.214 L 410.964 788.879 L 411.925 788.528 L 412.880 788.162 L 413.828 787.779 L 414.770 787.382 L 415.706 786.969 L 416.635 786.541 L 417.556 786.097 L 418.470 785.639 L 419.377 785.166 L 420.276 784.678 L 421.166 784.175 L 422.048 783.658 L 422.922 783.126 L 423.787 782.580 L 424.643 782.021 L 425.489 781.447 L 426.326 780.859 L 427.153 780.258 L 427.971 779.643 L 428.778 779.016 L 429.575 778.374 L 430.361 777.720 L 431.136 777.054 L 431.901 776.374 L 432.654 775.683 L 433.396 774.979 L 434.126 774.263 L 434.844 773.535 L 435.550 772.795 L 436.244 772.044 L 436.926 771.282 L 437.595 770.508 L 438.252 769.724 L 438.895 768.930 L 439.526 768.124 L 440.143 767.309 L 440.746 766.483 L 441.337 765.648 L 441.913 764.804 L 442.476 763.950 L 443.024 763.086 L 443.558 762.214 L 444.233 761.092 L 444.280 761.028 L 444.400 760.876 L 444.602 760.640 L 444.895 760.322 L 445.290 759.925 L 445.793 759.453 L 446.409 758.910 L 447.142 758.303 L 447.996 757.638 L 448.971 756.921 L 450.068 756.157 L 451.285 755.353 L 452.620 754.515 L 454.072 753.646 L 455.637 752.752 L 457.313 751.837 L 459.094 750.905 L 460.978 749.958 L 462.961 749.000 L 465.037 748.033 L 467.203 747.059 L 469.455 746.079 L 471.788 745.096 L 474.198 744.109 L 476.681 743.120 L 479.233 742.130 L 481.850 741.137 L 484.528 740.144 L 487.263 739.148 L 490.052 738.150 L 492.890 737.149 L 495.776 736.145 L 498.704 735.136 L 501.674 734.122 L 504.680 733.100 L 507.721 732.071 L 510.781 731.036 L 513.861 729.993 L 513.932 729.969 L 516.968 728.937 L 517.085 728.897 L 520.100 727.865 L 520.264 727.809 L 523.254 726.776 L 523.466 726.703 L 526.429 725.668 L 526.690 725.576 L 529.623 724.536 L 529.936 724.425 L 532.835 723.380 L 533.201 723.247 L 536.064 722.195 L 536.485 722.039 L 539.309 720.979 L 539.787 720.797 L 542.568 719.726 L 543.107 719.516 L 545.843 718.434 L 546.444 718.192 L 549.132 717.097 L 549.800 716.820 L 552.435 715.710 L 553.173 715.394 L 555.754 714.268 L 556.564 713.907 L 559.088 712.763 L 559.975 712.352 L 562.438 711.189 L 563.406 710.721 L 565.805 709.537 L 566.858 709.005 L 569.190 707.798 L 570.333 707.192 L 572.595 705.962 L 573.829 705.272 L 576.018 704.017 L 576.686 703.628 L 577.349 703.232 L 579.462 701.949 L 580.180 701.507 L 580.892 701.055 L 582.926 699.745 L 583.694 699.241 L 584.455 698.727 L 586.407 697.386 L 587.227 696.814 L 588.037 696.228 L 589.904 694.856 L 590.773 694.205 L 591.631 693.540 L 593.410 692.134 L 594.327 691.396 L 595.231 690.640 L 596.918 689.200 L 597.879 688.363 L 598.823 687.507 L 600.417 686.031 L 601.085 685.403 L 601.744 684.765 L 602.394 684.118 L 603.890 682.605 L 604.578 681.898 L 605.254 681.180 L 605.920 680.452 L 607.315 678.900 L 608.015 678.108 L 608.702 677.304 L 609.375 676.489 L 610.667 674.897 L 611.369 674.015 L 612.055 673.122 L 612.725 672.216 L 613.910 670.581 L 614.431 669.852 L 614.941 669.116 L 615.441 668.373 L 615.930 667.623 L 617.006 665.944 L 617.509 665.147 L 618.000 664.342 L 618.478 663.530 L 618.945 662.711 L 619.909 660.987 L 620.383 660.124 L 620.843 659.253 L 621.289 658.376 L 621.722 657.491 L 622.570 655.721 L 623.003 654.798 L 623.421 653.868 L 623.824 652.931 L 624.212 651.988 L 624.941 650.169 L 625.323 649.195 L 625.688 648.215 L 626.037 647.229 L 626.369 646.237 L 626.977 644.369 L 627.297 643.357 L 627.600 642.339 L 627.885 641.316 L 628.153 640.288 L 628.637 638.369 L 628.889 637.332 L 629.123 636.291 L 629.339 635.246 L 629.537 634.198 L 629.893 632.225 L 630.072 631.180 L 630.234 630.131 L 630.378 629.080 L 630.504 628.026 L 630.729 626.000 L 630.835 624.961 L 630.925 623.921 L 630.996 622.880 L 631.051 621.837 L 631.142 619.755 L 631.178 618.738 L 631.198 617.721 L 631.201 616.703 L 631.187 615.686 L 631.141 613.547 L 631.113 612.565 L 631.068 611.583 L 631.009 610.602 L 630.934 609.623 L 630.755 607.500 L 657.500 607.500 L 657.500 820.000 L 657.508 821.023 L 657.533 822.045 L 657.575 823.067 L 657.634 824.088 L 657.709 825.108 L 657.801 826.126 L 657.910 827.143 L 658.035 828.158 L 658.176 829.171 L 658.335 830.181 L 658.510 831.189 L 658.701 832.193 L 658.909 833.194 L 659.133 834.192 L 659.373 835.186 L 659.630 836.176 L 659.902 837.162 L 660.191 838.143 L 660.496 839.119 L 660.817 840.090 L 661.153 841.056 L 661.506 842.016 L 661.874 842.970 L 662.258 843.918 L 662.657 844.859 L 663.071 845.794 L 663.501 846.722 L 663.945 847.643 L 664.405 848.556 L 664.880 849.462 L 665.369 850.360 L 665.873 851.250 L 666.392 852.131 L 666.925 853.004 L 667.472 853.868 L 668.033 854.723 L 668.608 855.569 L 669.197 856.405 L 669.800 857.231 L 670.415 858.048 L 671.045 858.854 L 671.687 859.650 L 672.342 860.435 L 673.010 861.209 L 673.691 861.972 L 674.383 862.725 L 675.089 863.465 L 675.806 864.194 L 676.535 864.911 L 677.275 865.617 L 678.028 866.309 L 678.791 866.990 L 679.565 867.658 L 680.350 868.313 L 681.146 868.955 L 681.952 869.585 L 682.769 870.200 L 683.595 870.803 L 684.431 871.392 L 685.277 871.967 L 686.132 872.528 L 686.996 873.075 L 687.869 873.608 L 688.750 874.127 L 689.640 874.631 L 690.538 875.120 L 691.444 875.595 L 692.357 876.055 L 693.278 876.499 L 694.206 876.929 L 695.141 877.343 L 696.082 877.742 L 697.030 878.126 L 697.984 878.494 L 698.944 878.847 L 699.910 879.183 L 700.881 879.504 L 701.857 879.809 L 702.838 880.098 L 703.824 880.370 L 704.814 880.627 L 705.808 880.867 L 706.806 881.091 L 707.807 881.299 L 708.811 881.490 L 709.819 881.665 L 710.829 881.824 L 711.842 881.965 L 712.857 882.090 L 713.874 882.199 L 714.892 882.291 L 715.912 882.366 L 716.933 882.425 L 717.955 882.467 L 718.977 882.492 L 720.000 882.500 L 721.023 882.492 L 722.045 882.467 L 723.067 882.425 L 724.088 882.366 L 725.108 882.291 L 726.126 882.199 L 727.143 882.090 L 728.158 881.965 L 729.171 881.824 L 730.181 881.665 L 731.189 881.490 L 732.193 881.299 L 733.194 881.091 L 734.192 880.867 L 735.186 880.627 L 736.176 880.370 L 737.162 880.098 L 738.143 879.809 L 739.119 879.504 L 740.090 879.183 L 741.056 878.847 L 742.016 878.494 L 742.970 878.126 L 743.918 877.742 L 744.859 877.343 L 745.794 876.929 L 746.722 876.499 L 747.643 876.055 L 748.556 875.595 L 749.462 875.120 L 750.360 874.631 L 751.250 874.127 L 752.131 873.608 L 753.004 873.075 L 753.868 872.528 L 754.723 871.967 L 755.569 871.392 L 756.405 870.803 L 757.231 870.200 L 758.048 869.585 L 758.854 868.955 L 759.650 868.313 L 760.435 867.658 L 761.209 866.990 L 761.972 866.309 L 762.725 865.617 L 763.465 864.911 L 764.194 864.194 L 764.911 863.465 L 765.617 862.725 L 766.309 861.972 L 766.990 861.209 L 767.658 860.435 L 768.313 859.650 L 768.955 858.854 L 769.585 858.048 L 770.200 857.231 L 770.803 856.405 L 771.392 855.569 L 771.967 854.723 L 772.528 853.868 L 773.075 853.004 L 773.608 852.131 L 774.127 851.250 L 774.631 850.360 L 775.120 849.462 L 775.595 848.556 L 776.055 847.643 L 776.499 846.722 L 776.929 845.794 L 777.343 844.859 L 777.742 843.918 L 778.126 842.970 L 778.494 842.016 L 778.847 841.056 L 779.183 840.090 L 779.504 839.119 L 779.809 838.143 L 780.098 837.162 L 780.370 836.176 L 780.627 835.186 L 780.867 834.192 L 781.091 833.194 L 781.299 832.193 L 781.490 831.189 L 781.665 830.181 L 781.824 829.171 L 781.965 828.158 L 782.090 827.143 L 782.199 826.126 L 782.291 825.108 L 782.366 824.088 L 782.425 823.067 L 782.467 822.045 L 782.492 821.023 L 782.500 820.000 L 782.500 607.500 L 890.000 607.500 L 891.023 607.492 L 892.045 607.467 L 893.067 607.425 L 894.088 607.366 L 895.108 607.291 L 896.126 607.199 L 897.143 607.090 L 898.158 606.965 L 899.171 606.824 L 900.181 606.665 L 901.189 606.490 L 902.193 606.299 L 903.194 606.091 L 904.192 605.867 L 905.186 605.627 L 906.176 605.370 L 907.162 605.098 L 908.143 604.809 L 909.119 604.504 L 910.090 604.183 L 911.056 603.847 L 912.016 603.494 L 912.970 603.126 L 913.918 602.742 L 914.859 602.343 L 915.794 601.929 L 916.722 601.499 L 917.643 601.055 L 918.556 600.595 L 919.462 600.120 L 920.360 599.631 L 921.250 599.127 L 922.131 598.608 L 923.004 598.075 L 923.868 597.528 L 924.723 596.967 L 925.569 596.392 L 926.405 595.803 L 927.231 595.200 L 928.048 594.585 L 928.854 593.955 L 929.650 593.313 L 930.435 592.658 L 931.209 591.990 L 931.972 591.309 L 932.725 590.617 L 933.465 589.911 L 934.194 589.194 L 934.911 588.465 L 935.617 587.725 L 936.309 586.972 L 936.990 586.209 L 937.658 585.435 L 938.313 584.650 L 938.955 583.854 L 939.585 583.048 L 940.200 582.231 L 940.803 581.405 L 941.392 580.569 L 941.967 579.723 L 942.528 578.868 L 943.075 578.004 L 943.608 577.131 L 944.127 576.250 L 944.631 575.360 L 945.120 574.462 L 945.595 573.556 L 946.055 572.643 L 946.499 571.722 L 946.929 570.794 L 947.343 569.859 L 947.742 568.918 L 948.126 567.970 L 948.494 567.016 L 948.847 566.056 L 949.183 565.090 L 949.504 564.119 L 949.809 563.143 L 950.098 562.162 L 950.370 561.176 L 950.627 560.186 L 950.867 559.192 L 951.091 558.194 L 951.299 557.193 L 951.490 556.189 L 951.665 555.181 L 951.824 554.171 L 951.965 553.158 L 952.090 552.143 L 952.199 551.126 L 952.291 550.108 L 952.366 549.088 L 952.425 548.067 L 952.467 547.045 L 952.492 546.023 L 952.500 545.000 L 952.492 543.977 L 952.467 542.955 L 952.425 541.933 L 952.366 540.912 L 952.291 539.892 L 952.199 538.874 L 952.090 537.857 L 951.965 536.842 L 951.824 535.829 L 951.665 534.819 L 951.490 533.811 L 951.299 532.807 L 951.091 531.806 L 950.867 530.808 L 950.627 529.814 L 950.370 528.824 L 950.098 527.838 L 949.809 526.857 L 949.504 525.881 L 949.183 524.910 L 948.847 523.944 L 948.494 522.984 L 948.126 522.030 L 947.742 521.082 L 947.343 520.141 L 946.929 519.206 L 946.499 518.278 L 946.055 517.357 L 945.595 516.444 L 945.120 515.538 L 944.631 514.640 L 944.127 513.750 L 943.608 512.869 L 943.075 511.996 L 942.528 511.132 L 941.967 510.277 L 941.392 509.431 L 940.803 508.595 L 940.200 507.769 L 939.585 506.952 L 938.955 506.146 L 938.313 505.350 L 937.658 504.565 L 936.990 503.791 L 936.309 503.028 L 935.617 502.275 L 934.911 501.535 L 934.194 500.806 L 933.465 500.089 L 932.725 499.383 L 931.972 498.691 L 931.209 498.010 L 930.435 497.342 L 929.650 496.687 L 928.854 496.045 L 928.048 495.415 L 927.231 494.800 L 926.405 494.197 L 925.569 493.608 L 924.723 493.033 L 923.868 492.472 L 923.004 491.925 L 922.131 491.392 L 921.250 490.873 L 920.360 490.369 L 919.462 489.880 L 918.556 489.405 L 917.643 488.945 L 916.722 488.501 L 915.794 488.071 L 914.859 487.657 L 913.918 487.258 L 912.970 486.874 L 912.016 486.506 L 911.056 486.153 L 910.090 485.817 L 909.119 485.496 L 908.143 485.191 L 907.162 484.902 L 906.176 484.630 L 905.186 484.373 L 904.192 484.133 L 903.194 483.909 L 902.193 483.701 L 901.189 483.510 L 900.181 483.335 L 899.171 483.176 L 898.158 483.035 L 897.143 482.910 L 896.126 482.801 L 895.108 482.709 L 894.088 482.634 L 893.067 482.575 L 892.045 482.533 L 891.023 482.508 L 890.000 482.500 L 782.500 482.500 L 782.500 320.000 L 782.492 318.977 L 782.467 317.955 L 782.425 316.933 L 782.366 315.912 L 782.291 314.892 L 782.199 313.874 L 782.090 312.857 L 781.965 311.842 L 781.824 310.829 L 781.665 309.819 L 781.490 308.811 L 781.299 307.807 L 781.091 306.806 L 780.867 305.808 L 780.627 304.814 L 780.370 303.824 L 780.098 302.838 L 779.809 301.857 L 779.504 300.881 L 779.183 299.910 L 778.847 298.944 L 778.494 297.984 L 778.126 297.030 L 777.742 296.082 L 777.343 295.141 L 776.929 294.206 L 776.499 293.278 L 776.055 292.357 L 775.595 291.444 L 775.120 290.538 L 774.631 289.640 L 774.127 288.750 L 773.608 287.869 L 773.075 286.996 L 772.528 286.132 L 771.967 285.277 L 771.392 284.431 L 770.803 283.595 L 770.200 282.769 L 769.585 281.952 L 768.955 281.146 L 768.313 280.350 L 767.658 279.565 L 766.990 278.791 L 766.309 278.028 L 765.617 277.275 L 764.911 276.535 L 764.194 275.806 L 763.465 275.089 L 762.725 274.383 L 761.972 273.691 L 761.209 273.010 L 760.435 272.342 L 759.650 271.687 L 758.854 271.045 L 758.048 270.415 L 757.231 269.800 L 756.405 269.197 L 755.569 268.608 L 754.723 268.033 L 753.868 267.472 L 753.004 266.925 L 752.131 266.392 L 751.250 265.873 L 750.360 265.369 L 749.462 264.880 L 748.556 264.405 L 747.643 263.945 L 746.722 263.501 L 745.794 263.071 L 744.859 262.657 L 743.918 262.258 L 742.970 261.874 L 742.016 261.506 L 741.056 261.153 L 740.090 260.817 L 739.119 260.496 L 738.143 260.191 L 737.162 259.902 L 736.176 259.630 L 735.186 259.373 L 734.192 259.133 L 733.194 258.909 L 732.193 258.701 L 731.189 258.510 L 730.181 258.335 L 729.171 258.176 L 728.158 258.035 L 727.143 257.910 L 726.126 257.801 L 725.108 257.709 L 724.088 257.634 L 723.067 257.575 L 722.045 257.533 L 721.023 257.508 L 720.000 257.500 L 718.977 257.508 L 717.955 257.533 L 716.933 257.575 L 715.912 257.634 L 714.892 257.709 L 713.874 257.801 L 712.857 257.910 L 711.842 258.035 L 710.829 258.176 L 709.819 258.335 L 708.811 258.510 L 707.807 258.701 L 706.806 258.909 L 705.808 259.133 L 704.814 259.373 L 703.824 259.630 L 702.838 259.902 L 701.857 260.191 L 700.881 260.496 L 699.910 260.817 L 698.944 261.153 L 697.984 261.506 L 697.030 261.874 L 696.082 262.258 L 695.141 262.657 L 694.206 263.071 L 693.278 263.501 L 692.357 263.945 L 691.444 264.405 L 690.538 264.880 L 689.640 265.369 L 688.750 265.873 L 687.869 266.392 L 686.996 266.925 L 686.132 267.472 L 685.277 268.033 L 684.431 268.608 L 683.595 269.197 L 682.769 269.800 L 681.952 270.415 L 681.146 271.045 L 680.350 271.687 L 679.565 272.342 L 678.791 273.010 L 678.028 273.691 L 677.275 274.383 L 676.535 275.089 L 675.806 275.806 L 675.089 276.535 L 674.383 277.275 L 673.691 278.028 L 673.010 278.791 L 672.342 279.565 L 671.687 280.350 L 671.045 281.146 L 670.415 281.952 L 669.800 282.769 L 669.197 283.595 L 668.608 284.431 L 668.033 285.277 L 667.472 286.132 L 666.925 286.996 L 666.392 287.869 L 665.873 288.750 L 665.369 289.640 L 664.880 290.538 L 664.405 291.444 L 663.945 292.357 L 663.501 293.278 L 663.071 294.206 L 662.657 295.141 L 662.258 296.082 L 661.874 297.030 L 661.506 297.984 L 661.153 298.944 L 660.817 299.910 L 660.496 300.881 L 660.191 301.857 L 659.902 302.838 L 659.630 303.824 L 659.373 304.814 L 659.133 305.808 L 658.909 306.806 L 658.701 307.807 L 658.510 308.811 L 658.335 309.819 L 658.176 310.829 L 658.035 311.842 L 657.910 312.857 L 657.801 313.874 L 657.709 314.892 L 657.634 315.912 L 657.575 316.933 L 657.533 317.955 L 657.508 318.977 L 657.500 320.000 L 657.500 352.589 L 657.002 352.021 Z M 506.250 476.501 L 511.712 474.302 L 517.204 472.174 L 522.706 470.124 L 528.196 468.156 L 533.654 466.276 L 539.059 464.491 L 544.388 462.805 L 549.619 461.223 L 554.729 459.750 L 559.695 458.392 L 564.490 457.152 L 569.088 456.036 L 573.459 455.046 L 577.571 454.188 L 578.540 454.004 L 579.393 454.493 L 580.289 454.986 L 581.192 455.465 L 582.104 455.929 L 583.023 456.378 L 583.949 456.812 L 584.882 457.230 L 585.821 457.634 L 586.768 458.022 L 587.720 458.394 L 588.678 458.751 L 589.643 459.092 L 590.612 459.417 L 591.587 459.726 L 592.567 460.019 L 593.551 460.297 L 594.540 460.558 L 595.533 460.803 L 596.529 461.031 L 597.530 461.243 L 598.533 461.439 L 599.540 461.619 L 600.550 461.781 L 601.562 461.928 L 602.576 462.058 L 603.593 462.171 L 604.611 462.267 L 605.630 462.347 L 606.651 462.410 L 607.673 462.457 L 608.695 462.486 L 609.717 462.499 L 610.740 462.496 L 611.762 462.475 L 612.784 462.438 L 613.806 462.384 L 614.826 462.313 L 615.845 462.226 L 616.862 462.122 L 617.878 462.002 L 618.891 461.864 L 619.902 461.711 L 620.910 461.540 L 621.916 461.354 L 622.918 461.150 L 623.917 460.931 L 624.912 460.695 L 625.903 460.443 L 626.890 460.175 L 627.872 459.890 L 628.850 459.590 L 629.822 459.273 L 630.789 458.941 L 631.751 458.593 L 632.707 458.229 L 633.656 457.850 L 634.600 457.455 L 635.536 457.045 L 636.466 456.620 L 637.389 456.179 L 638.305 455.723 L 639.213 455.253 L 640.113 454.767 L 641.005 454.267 L 641.889 453.753 L 642.764 453.224 L 643.630 452.681 L 644.488 452.123 L 645.336 451.552 L 646.175 450.967 L 647.004 450.368 L 647.823 449.756 L 648.632 449.131 L 649.431 448.492 L 650.219 447.840 L 650.996 447.176 L 651.763 446.499 L 652.518 445.809 L 653.262 445.107 L 653.994 444.394 L 654.714 443.668 L 655.423 442.930 L 656.119 442.181 L 656.803 441.421 L 657.475 440.650 L 657.500 440.620 L 657.500 482.500 L 550.000 482.500 L 548.977 482.508 L 547.955 482.533 L 546.933 482.575 L 545.912 482.634 L 544.892 482.709 L 543.874 482.801 L 542.857 482.910 L 541.842 483.035 L 540.829 483.176 L 539.819 483.335 L 538.811 483.510 L 537.807 483.701 L 536.806 483.909 L 535.808 484.133 L 534.814 484.373 L 533.824 484.630 L 532.838 484.902 L 532.788 484.917 L 531.762 484.549 L 530.643 484.172 L 528.273 483.397 L 527.175 483.049 L 526.072 482.722 L 523.700 482.042 L 522.625 481.745 L 521.545 481.466 L 519.172 480.877 L 518.126 480.627 L 517.076 480.395 L 514.702 479.891 L 513.693 479.686 L 512.680 479.497 L 510.305 479.075 L 509.337 478.910 L 508.367 478.761 L 505.992 478.416 L 505.071 478.288 L 504.148 478.175 L 502.658 478.003 L 506.250 476.501 Z" fill="#000" fill-rule="evenodd"/>
</svg>
