<svg xmlns="http://www.w3.org/2000/svg" viewBox="0 0 1000 1000" width="1000" height="1000">
  <path d="M 522.533 822.045 L 522.575 823.067 L 522.634 824.088 L 522.709 825.108 L 522.801 826.126 L 522.910 827.143 L 523.035 828.158 L 523.176 829.171 L 523.335 830.181 L 523.510 831.189 L 523.701 832.193 L 523.909 833.194 L 524.133 834.192 L 524.373 835.186 L 524.630 836.176 L 524.902 837.162 L 525.191 838.143 L 525.496 839.119 L 525.817 840.090 L 526.153 841.056 L 526.506 842.016 L 526.874 842.970 L 527.258 843.918 L 527.657 844.859 L 528.071 845.794 L 528.501 846.722 L 528.945 847.643 L 529.405 848.556 L 529.880 849.462 L 530.369 850.360 L 530.873 851.250 L 531.392 852.131 L 531.925 853.004 L 532.472 853.868 L 533.033 854.723 L 533.608 855.569 L 534.197 856.405 L 534.800 857.231 L 535.415 858.048 L 536.045 858.854 L 536.687 859.650 L 537.342 860.435 L 538.010 861.209 L 538.691 861.972 L 539.383 862.725 L 540.089 863.465 L 540.806 864.194 L 541.535 864.911 L 542.275 865.617 L 543.028 866.309 L 543.791 866.990 L 544.565 867.658 L 545.350 868.313 L 546.146 868.955 L 546.952 869.585 L 547.769 870.200 L 548.595 870.803 L 549.431 871.392 L 550.277 871.967 L 551.132 872.528 L 551.996 873.075 L 552.869 873.608 L 553.750 874.127 L 554.640 874.631 L 555.538 875.120 L 556.444 875.595 L 557.357 876.055 L 558.278 876.499 L 559.206 876.929 L 560.141 877.343 L 561.082 877.742 L 562.030 878.126 L 562.984 878.494 L 563.944 878.847 L 564.910 879.183 L 565.881 879.504 L 566.857 879.809 L 567.838 880.098 L 568.824 880.370 L 569.814 880.627 L 570.808 880.867 L 571.806 881.091 L 572.807 881.299 L 573.811 881.490 L 574.819 881.665 L 575.829 881.824 L 576.842 881.965 L 577.857 882.090 L 578.874 882.199 L 579.892 882.291 L 580.912 882.366 L 581.933 882.425 L 582.955 882.467 L 583.977 882.492 L 585.000 882.500 L 586.023 882.492 L 587.045 882.467 L 588.067 882.425 L 589.088 882.366 L 590.108 882.291 L 591.126 882.199 L 592.143 882.090 L 593.158 881.965 L 594.171 881.824 L 595.181 881.665 L 596.189 881.490 L 597.193 881.299 L 598.194 881.091 L 599.192 880.867 L 600.186 880.627 L 601.176 880.370 L 602.162 880.098 L 603.143 879.809 L 604.119 879.504 L 605.090 879.183 L 606.056 878.847 L 607.016 878.494 L 607.970 878.126 L 608.918 877.742 L 609.859 877.343 L 610.794 876.929 L 611.722 876.499 L 612.643 876.055 L 613.556 875.595 L 614.462 875.120 L 615.360 874.631 L 616.250 874.127 L 617.131 873.608 L 618.004 873.075 L 618.868 872.528 L 619.723 871.967 L 620.569 871.392 L 621.405 870.803 L 622.231 870.200 L 623.048 869.585 L 623.854 868.955 L 624.650 868.313 L 625.435 867.658 L 626.209 866.990 L 626.972 866.309 L 627.725 865.617 L 628.465 864.911 L 629.194 864.194 L 629.911 863.465 L 630.617 862.725 L 631.309 861.972 L 631.990 861.209 L 632.658 860.435 L 633.313 859.650 L 633.955 858.854 L 634.585 858.048 L 635.200 857.231 L 635.803 856.405 L 636.392 855.569 L 636.967 854.723 L 637.528 853.868 L 638.075 853.004 L 638.608 852.131 L 639.127 851.250 L 639.631 850.360 L 640.120 849.462 L 640.595 848.556 L 641.055 847.643 L 641.499 846.722 L 641.929 845.794 L 642.343 844.859 L 642.742 843.918 L 643.126 842.970 L 643.494 842.016 L 643.847 841.056 L 644.183 840.090 L 644.504 839.119 L 644.809 838.143 L 645.098 837.162 L 645.370 836.176 L 645.627 835.186 L 645.867 834.192 L 646.091 833.194 L 646.299 832.193 L 646.490 831.189 L 646.665 830.181 L 646.824 829.171 L 646.965 828.158 L 647.090 827.143 L 647.199 826.126 L 647.291 825.108 L 647.366 824.088 L 647.425 823.067 L 647.467 822.045 L 647.492 821.023 L 647.500 820.000 L 647.500 467.500 L 837.500 467.500 L 837.500 820.000 L 837.508 821.023 L 837.533 822.045 L 837.575 823.067 L 837.634 824.088 L 837.709 825.108 L 837.801 826.126 L 837.910 827.143 L 838.035 828.158 L 838.176 829.171 L 838.335 830.181 L 838.510 831.189 L 838.701 832.193 L 838.909 833.194 L 839.133 834.192 L 839.373 835.186 L 839.630 836.176 L 839.902 837.162 L 840.191 838.143 L 840.496 839.119 L 840.817 840.090 L 841.153 841.056 L 841.506 842.016 L 841.874 842.970 L 842.258 843.918 L 842.657 844.859 L 843.071 845.794 L 843.501 846.722 L 843.945 847.643 L 844.405 848.556 L 844.880 849.462 L 845.369 850.360 L 845.873 851.250 L 846.392 852.131 L 846.925 853.004 L 847.472 853.868 L 848.033 854.723 L 848.608 855.569 L 849.197 856.405 L 849.800 857.231 L 850.415 858.048 L 851.045 858.854 L 851.687 859.650 L 852.342 860.435 L 853.010 861.209 L 853.691 861.972 L 854.383 862.725 L 855.089 863.465 L 855.806 864.194 L 856.535 864.911 L 857.275 865.617 L 858.028 866.309 L 858.791 866.990 L 859.565 867.658 L 860.350 868.313 L 861.146 868.955 L 861.952 869.585 L 862.769 870.200 L 863.595 870.803 L 864.431 871.392 L 865.277 871.967 L 866.132 872.528 L 866.996 873.075 L 867.869 873.608 L 868.750 874.127 L 869.640 874.631 L 870.538 875.120 L 871.444 875.595 L 872.357 876.055 L 873.278 876.499 L 874.206 876.929 L 875.141 877.343 L 876.082 877.742 L 877.030 878.126 L 877.984 878.494 L 878.944 878.847 L 879.910 879.183 L 880.881 879.504 L 881.857 879.809 L 882.838 880.098 L 883.824 880.370 L 884.814 880.627 L 885.808 880.867 L 886.806 881.091 L 887.807 881.299 L 888.811 881.490 L 889.819 881.665 L 890.829 881.824 L 891.842 881.965 L 892.857 882.090 L 893.874 882.199 L 894.892 882.291 L 895.912 882.366 L 896.933 882.425 L 897.955 882.467 L 898.977 882.492 L 900.000 882.500 L 901.023 882.492 L 902.045 882.467 L 903.067 882.425 L 904.088 882.366 L 905.108 882.291 L 906.126 882.199 L 907.143 882.090 L 908.158 881.965 L 909.171 881.824 L 910.181 881.665 L 911.189 881.490 L 912.193 881.299 L 913.194 881.091 L 914.192 880.867 L 915.186 880.627 L 916.176 880.370 L 917.162 880.098 L 918.143 879.809 L 919.119 879.504 L 920.090 879.183 L 921.056 878.847 L 922.016 878.494 L 922.970 878.126 L 923.918 877.742 L 924.859 877.343 L 925.794 876.929 L 926.722 876.499 L 927.643 876.055 L 928.556 875.595 L 929.462 875.120 L 930.360 874.631 L 931.250 874.127 L 932.131 873.608 L 933.004 873.075 L 933.868 872.528 L 934.723 871.967 L 935.569 871.392 L 936.405 870.803 L 937.231 870.200 L 938.048 869.585 L 938.854 868.955 L 939.650 868.313 L 940.435 867.658 L 941.209 866.990 L 941.972 866.309 L 942.725 865.617 L 943.465 864.911 L 944.194 864.194 L 944.911 863.465 L 945.617 862.725 L 946.309 861.972 L 946.990 861.209 L 947.658 860.435 L 948.313 859.650 L 948.955 858.854 L 949.585 858.048 L 950.200 857.231 L 950.803 856.405 L 951.392 855.569 L 951.967 854.723 L 952.528 853.868 L 953.075 853.004 L 953.608 852.131 L 954.127 851.250 L 954.631 850.360 L 955.120 849.462 L 955.595 848.556 L 956.055 847.643 L 956.499 846.722 L 956.929 845.794 L 957.343 844.859 L 957.742 843.918 L 958.126 842.970 L 958.494 842.016 L 958.847 841.056 L 959.183 840.090 L 959.504 839.119 L 959.809 838.143 L 960.098 837.162 L 960.370 836.176 L 960.627 835.186 L 960.867 834.192 L 961.091 833.194 L 961.299 832.193 L 961.490 831.189 L 961.665 830.181 L 961.824 829.171 L 961.965 828.158 L 962.090 827.143 L 962.199 826.126 L 962.291 825.108 L 962.366 824.088 L 962.425 823.067 L 962.467 822.045 L 962.492 821.023 L 962.500 820.000 L 962.500 405.000 L 962.492 403.977 L 962.467 402.955 L 962.425 401.933 L 962.366 400.912 L 962.291 399.892 L 962.199 398.874 L 962.090 397.857 L 961.965 396.842 L 961.824 395.829 L 961.665 394.819 L 961.490 393.811 L 961.299 392.807 L 961.091 391.806 L 960.867 390.808 L 960.627 389.814 L 960.370 388.824 L 960.098 387.838 L 959.809 386.857 L 959.504 385.881 L 959.183 384.910 L 958.847 383.944 L 958.494 382.984 L 958.126 382.030 L 957.742 381.082 L 957.343 380.141 L 956.929 379.206 L 956.499 378.278 L 956.055 377.357 L 955.595 376.444 L 955.120 375.538 L 954.631 374.640 L 954.127 373.750 L 953.608 372.869 L 953.075 371.996 L 952.528 371.132 L 951.967 370.277 L 951.392 369.431 L 950.803 368.595 L 950.200 367.769 L 949.585 366.952 L 948.955 366.146 L 948.313 365.350 L 947.658 364.565 L 946.990 363.791 L 946.309 363.028 L 945.617 362.275 L 944.911 361.535 L 944.194 360.806 L 943.465 360.089 L 942.725 359.383 L 941.972 358.691 L 941.209 358.010 L 940.435 357.342 L 939.650 356.687 L 938.854 356.045 L 938.048 355.415 L 937.231 354.800 L 936.405 354.197 L 935.569 353.608 L 934.723 353.033 L 933.868 352.472 L 933.004 351.925 L 932.131 351.392 L 931.250 350.873 L 930.360 350.369 L 929.462 349.880 L 928.556 349.405 L 927.643 348.945 L 926.722 348.501 L 925.794 348.071 L 924.859 347.657 L 923.918 347.258 L 922.970 346.874 L 922.016 346.506 L 921.056 346.153 L 920.090 345.817 L 919.119 345.496 L 918.143 345.191 L 917.162 344.902 L 916.176 344.630 L 915.186 344.373 L 914.192 344.133 L 913.194 343.909 L 912.193 343.701 L 911.189 343.510 L 910.181 343.335 L 909.171 343.176 L 908.158 343.035 L 907.143 342.910 L 906.126 342.801 L 905.108 342.709 L 904.088 342.634 L 903.067 342.575 L 902.045 342.533 L 901.023 342.508 L 900.000 342.500 L 647.500 342.500 L 647.500 150.000 L 647.492 148.977 L 647.467 147.955 L 647.425 146.933 L 647.366 145.912 L 647.291 144.892 L 647.199 143.874 L 647.090 142.857 L 646.965 141.842 L 646.824 140.829 L 646.665 139.819 L 646.490 138.811 L 646.299 137.807 L 646.091 136.806 L 645.867 135.808 L 645.627 134.814 L 645.370 133.824 L 645.098 132.838 L 644.809 131.857 L 644.504 130.881 L 644.183 129.910 L 643.847 128.944 L 643.494 127.984 L 643.126 127.030 L 642.742 126.082 L 642.343 125.141 L 641.929 124.206 L 641.499 123.278 L 641.055 122.357 L 640.595 121.444 L 640.120 120.538 L 639.631 119.640 L 639.127 118.750 L 638.608 117.869 L 638.075 116.996 L 637.528 116.132 L 636.967 115.277 L 636.392 114.431 L 635.803 113.595 L 635.200 112.769 L 634.585 111.952 L 633.955 111.146 L 633.313 110.350 L 632.658 109.565 L 631.990 108.791 L 631.309 108.028 L 630.617 107.275 L 629.911 106.535 L 629.194 105.806 L 628.465 105.089 L 627.725 104.383 L 626.972 103.691 L 626.209 103.010 L 625.435 102.342 L 624.650 101.687 L 623.854 101.045 L 623.048 100.415 L 622.231 99.800 L 621.405 99.197 L 620.569 98.608 L 619.723 98.033 L 618.868 97.472 L 618.004 96.925 L 617.131 96.392 L 616.250 95.873 L 615.360 95.369 L 614.462 94.880 L 613.556 94.405 L 612.643 93.945 L 611.722 93.501 L 610.794 93.071 L 609.859 92.657 L 608.918 92.258 L 607.970 91.874 L 607.016 91.506 L 606.056 91.153 L 605.090 90.817 L 604.119 90.496 L 603.143 90.191 L 602.162 89.902 L 601.176 89.630 L 600.186 89.373 L 599.192 89.133 L 598.194 88.909 L 597.193 88.701 L 596.189 88.510 L 595.181 88.335 L 594.171 88.176 L 593.158 88.035 L 592.143 87.910 L 591.126 87.801 L 590.108 87.709 L 589.088 87.634 L 588.067 87.575 L 587.045 87.533 L 586.023 87.508 L 585.000 87.500 L 583.977 87.508 L 582.955 87.533 L 581.933 87.575 L 580.912 87.634 L 579.892 87.709 L 578.874 87.801 L 577.857 87.910 L 576.842 88.035 L 575.829 88.176 L 574.819 88.335 L 573.811 88.510 L 572.807 88.701 L 571.806 88.909 L 570.808 89.133 L 569.814 89.373 L 568.824 89.630 L 567.838 89.902 L 566.857 90.191 L 565.881 90.496 L 564.910 90.817 L 563.944 91.153 L 562.984 91.506 L 562.030 91.874 L 561.082 92.258 L 560.141 92.657 L 559.206 93.071 L 558.278 93.501 L 557.357 93.945 L 556.444 94.405 L 555.538 94.880 L 554.640 95.369 L 553.750 95.873 L 552.869 96.392 L 551.996 96.925 L 551.132 97.472 L 550.277 98.033 L 549.431 98.608 L 548.595 99.197 L 547.769 99.800 L 546.952 100.415 L 546.146 101.045 L 545.350 101.687 L 544.565 102.342 L 543.791 103.010 L 543.028 103.691 L 542.275 104.383 L 541.535 105.089 L 540.806 105.806 L 540.089 106.535 L 539.383 107.275 L 538.691 108.028 L 538.010 108.791 L 537.342 109.565 L 536.687 110.350 L 536.045 111.146 L 535.415 111.952 L 534.800 112.769 L 534.197 113.595 L 533.608 114.431 L 533.033 115.277 L 532.472 116.132 L 531.925 116.996 L 531.392 117.869 L 530.873 118.750 L 530.369 119.640 L 529.880 120.538 L 529.405 121.444 L 528.945 122.357 L 528.501 123.278 L 528.071 124.206 L 527.657 125.141 L 527.258 126.082 L 526.874 127.030 L 526.506 127.984 L 526.153 128.944 L 525.817 129.910 L 525.496 130.881 L 525.191 131.857 L 524.902 132.838 L 524.630 133.824 L 524.373 134.814 L 524.133 135.808 L 523.909 136.806 L 523.701 137.807 L 523.510 138.811 L 523.335 139.819 L 523.176 140.829 L 523.035 141.842 L 522.910 142.857 L 522.801 143.874 L 522.709 144.892 L 522.634 145.912 L 522.575 146.933 L 522.533 147.955 L 522.508 148.977 L 522.500 150.000 L 522.500 338.974 L 521.336 339.293 L 520.523 339.521 L 514.614 341.224 L 513.829 341.455 L 507.824 343.271 L 507.060 343.508 L 500.973 345.434 L 500.223 345.676 L 494.072 347.708 L 493.330 347.959 L 487.131 350.093 L 486.392 350.353 L 480.161 352.586 L 479.419 352.857 L 473.171 355.186 L 472.422 355.471 L 466.175 357.891 L 465.414 358.191 L 459.183 360.700 L 458.405 361.019 L 452.206 363.611 L 451.407 363.952 L 445.256 366.626 L 444.431 366.992 L 438.345 369.743 L 437.487 370.138 L 431.481 372.962 L 430.587 373.392 L 424.678 376.286 L 423.740 376.756 L 417.943 379.716 L 416.955 380.232 L 411.288 383.256 L 410.243 383.826 L 404.721 386.909 L 403.611 387.543 L 398.250 390.681 L 397.067 391.392 L 391.883 394.582 L 390.618 395.382 L 385.627 398.620 L 384.945 399.069 L 384.269 399.527 L 379.488 402.810 L 378.753 403.322 L 378.026 403.845 L 373.471 407.169 L 372.678 407.758 L 371.894 408.358 L 367.580 411.720 L 366.723 412.400 L 365.878 413.095 L 361.822 416.491 L 360.895 417.283 L 359.984 418.092 L 356.201 421.518 L 355.531 422.134 L 354.870 422.760 L 354.218 423.395 L 350.726 426.847 L 350.004 427.573 L 349.294 428.311 L 348.596 429.059 L 345.410 432.535 L 344.636 433.395 L 343.879 434.268 L 343.138 435.156 L 340.274 438.651 L 339.657 439.416 L 339.053 440.190 L 338.461 440.974 L 337.881 441.767 L 335.355 445.278 L 334.713 446.188 L 334.086 447.110 L 333.477 448.042 L 332.884 448.986 L 330.712 452.509 L 330.190 453.373 L 329.681 454.245 L 329.186 455.126 L 328.705 456.014 L 328.239 456.910 L 326.439 460.442 L 326.014 461.292 L 325.602 462.147 L 325.203 463.009 L 324.817 463.877 L 324.445 464.750 L 324.086 465.629 L 322.672 469.166 L 322.286 470.155 L 321.917 471.151 L 321.565 472.153 L 321.230 473.161 L 320.912 474.174 L 320.612 475.193 L 319.601 478.731 L 319.333 479.698 L 319.080 480.669 L 318.843 481.645 L 318.622 482.624 L 318.417 483.606 L 318.227 484.591 L 318.054 485.580 L 317.461 489.116 L 317.291 490.187 L 317.140 491.260 L 317.008 492.336 L 316.894 493.415 L 316.799 494.495 L 316.722 495.576 L 316.664 496.659 L 316.507 500.189 L 316.471 501.187 L 316.450 502.185 L 316.446 503.183 L 316.457 504.181 L 316.484 505.179 L 316.527 506.177 L 316.587 507.173 L 316.662 508.169 L 316.955 511.690 L 317.048 512.704 L 317.158 513.717 L 317.284 514.728 L 317.426 515.736 L 317.585 516.742 L 317.760 517.746 L 317.952 518.746 L 318.160 519.744 L 318.921 523.251 L 319.146 524.250 L 319.388 525.245 L 319.646 526.236 L 319.920 527.222 L 320.210 528.204 L 320.516 529.181 L 320.838 530.152 L 321.176 531.119 L 321.530 532.079 L 321.899 533.034 L 322.284 533.983 L 322.685 534.925 L 323.101 535.860 L 323.532 536.789 L 323.979 537.710 L 324.440 538.624 L 324.916 539.530 L 325.407 540.428 L 325.913 541.318 L 326.433 542.200 L 326.968 543.073 L 327.517 543.937 L 329.401 546.851 L 329.952 547.689 L 330.516 548.517 L 332.419 551.262 L 333.026 552.122 L 333.647 552.972 L 335.568 555.553 L 336.234 556.432 L 336.916 557.299 L 338.854 559.721 L 339.583 560.613 L 340.327 561.493 L 342.283 563.759 L 343.075 564.660 L 343.885 565.545 L 345.858 567.662 L 346.715 568.564 L 347.591 569.448 L 349.580 571.419 L 350.193 572.018 L 350.815 572.608 L 351.444 573.190 L 353.450 575.020 L 354.105 575.609 L 354.768 576.189 L 355.440 576.760 L 357.462 578.453 L 358.157 579.027 L 358.860 579.591 L 359.572 580.144 L 361.609 581.706 L 362.341 582.258 L 363.081 582.800 L 363.829 583.331 L 365.881 584.765 L 366.645 585.290 L 367.417 585.805 L 368.197 586.307 L 370.264 587.619 L 371.055 588.112 L 371.853 588.594 L 372.658 589.064 L 374.739 590.257 L 375.550 590.714 L 376.368 591.159 L 377.192 591.592 L 379.288 592.672 L 380.111 593.089 L 380.941 593.494 L 381.776 593.886 L 383.886 594.858 L 384.715 595.233 L 385.549 595.595 L 386.388 595.945 L 388.512 596.813 L 389.338 597.144 L 390.168 597.463 L 391.004 597.770 L 393.140 598.539 L 393.956 598.826 L 394.776 599.102 L 395.599 599.366 L 397.748 600.040 L 398.947 600.403 L 400.153 600.741 L 402.314 601.325 L 403.477 601.627 L 404.644 601.906 L 406.818 602.405 L 407.936 602.650 L 409.057 602.875 L 411.243 603.292 L 412.308 603.486 L 413.376 603.662 L 415.573 604.003 L 416.580 604.151 L 417.590 604.282 L 419.798 604.552 L 420.742 604.660 L 421.688 604.754 L 423.907 604.956 L 424.786 605.030 L 425.666 605.092 L 427.895 605.232 L 428.706 605.278 L 429.517 605.313 L 431.756 605.395 L 433.240 605.432 L 435.488 605.462 L 436.833 605.465 L 439.091 605.446 L 440.296 605.424 L 442.563 605.361 L 443.631 605.322 L 445.906 605.220 L 446.839 605.172 L 449.122 605.035 L 449.921 604.982 L 452.212 604.815 L 452.879 604.763 L 455.178 604.571 L 455.716 604.524 L 458.022 604.312 L 458.433 604.272 L 460.746 604.044 L 461.032 604.015 L 463.351 603.775 L 463.514 603.758 L 465.839 603.511 L 468.172 603.262 L 470.368 603.030 L 472.449 602.817 L 474.415 602.626 L 476.265 602.460 L 477.999 602.320 L 479.616 602.207 L 481.115 602.121 L 482.496 602.063 L 483.758 602.031 L 484.902 602.023 L 485.928 602.037 L 486.838 602.070 L 487.633 602.118 L 488.319 602.178 L 488.900 602.245 L 489.384 602.315 L 489.777 602.385 L 490.092 602.452 L 490.339 602.513 L 490.532 602.569 L 490.686 602.619 L 490.816 602.667 L 490.940 602.719 L 491.074 602.780 L 491.233 602.861 L 491.433 602.973 L 491.688 603.129 L 492.010 603.345 L 492.409 603.634 L 492.894 604.015 L 493.469 604.503 L 493.598 604.621 L 492.750 604.939 L 490.281 605.846 L 487.720 606.769 L 485.075 607.706 L 482.348 608.659 L 479.546 609.627 L 476.672 610.610 L 473.730 611.610 L 470.725 612.628 L 467.669 613.661 L 464.570 614.710 L 464.509 614.731 L 461.419 615.781 L 461.314 615.816 L 458.218 616.874 L 458.070 616.925 L 454.971 617.992 L 454.780 618.059 L 451.681 619.137 L 451.446 619.219 L 448.351 620.311 L 448.073 620.409 L 444.984 621.515 L 444.661 621.631 L 441.582 622.753 L 441.215 622.887 L 438.147 624.026 L 437.735 624.181 L 434.683 625.338 L 434.225 625.514 L 431.191 626.691 L 430.687 626.890 L 427.674 628.089 L 427.122 628.313 L 424.134 629.535 L 423.532 629.785 L 420.572 631.033 L 419.921 631.312 L 416.991 632.587 L 416.288 632.898 L 413.393 634.200 L 412.637 634.545 L 409.778 635.877 L 408.969 636.261 L 406.150 637.624 L 405.285 638.050 L 402.509 639.445 L 401.589 639.917 L 398.858 641.346 L 397.881 641.868 L 395.199 643.333 L 394.164 643.911 L 391.535 645.413 L 390.442 646.052 L 387.867 647.592 L 386.715 648.298 L 384.198 649.879 L 382.989 650.658 L 380.533 652.280 L 379.267 653.139 L 376.875 654.804 L 376.211 655.273 L 375.553 655.751 L 373.229 657.461 L 372.538 657.976 L 371.854 658.501 L 369.600 660.258 L 368.884 660.824 L 368.176 661.401 L 365.995 663.205 L 365.256 663.825 L 364.527 664.458 L 362.422 666.311 L 361.664 666.990 L 360.916 667.681 L 358.891 669.585 L 358.116 670.326 L 357.355 671.080 L 355.412 673.036 L 354.626 673.842 L 353.855 674.661 L 351.997 676.671 L 351.206 677.544 L 350.430 678.432 L 348.661 680.498 L 347.870 681.440 L 347.098 682.398 L 345.420 684.521 L 344.895 685.194 L 344.380 685.875 L 343.873 686.562 L 342.290 688.743 L 341.775 689.463 L 341.271 690.190 L 340.776 690.924 L 339.291 693.165 L 338.792 693.931 L 338.303 694.704 L 337.826 695.484 L 336.442 697.786 L 335.922 698.666 L 335.416 699.555 L 334.926 700.452 L 334.450 701.357 L 333.988 702.270 L 333.542 703.190 L 333.111 704.118 L 332.695 705.052 L 332.295 705.993 L 331.910 706.940 L 331.540 707.894 L 331.186 708.853 L 330.848 709.818 L 330.526 710.789 L 330.219 711.765 L 329.929 712.745 L 329.655 713.730 L 329.397 714.720 L 329.155 715.714 L 328.929 716.711 L 328.720 717.712 L 328.527 718.716 L 328.351 719.724 L 328.191 720.734 L 328.047 721.746 L 327.921 722.761 L 327.811 723.778 L 327.717 724.796 L 327.640 725.816 L 327.580 726.837 L 327.537 727.858 L 327.510 728.881 L 327.500 729.903 L 327.507 730.926 L 327.530 731.948 L 327.571 732.970 L 327.628 733.991 L 327.701 735.011 L 327.792 736.030 L 327.899 737.047 L 328.022 738.062 L 328.162 739.075 L 328.319 740.085 L 328.492 741.093 L 328.682 742.098 L 328.888 743.100 L 329.111 744.098 L 329.350 745.092 L 329.605 746.083 L 329.876 747.069 L 330.163 748.050 L 330.467 749.027 L 330.786 749.998 L 331.121 750.964 L 331.472 751.925 L 331.838 752.880 L 332.221 753.828 L 332.618 754.770 L 333.031 755.706 L 333.459 756.635 L 333.903 757.556 L 334.361 758.470 L 334.834 759.377 L 335.322 760.276 L 335.825 761.166 L 336.342 762.048 L 336.874 762.922 L 337.420 763.787 L 337.979 764.643 L 338.553 765.489 L 339.141 766.326 L 339.742 767.153 L 340.357 767.971 L 340.984 768.778 L 341.626 769.575 L 342.280 770.361 L 342.946 771.136 L 343.626 771.901 L 344.317 772.654 L 345.021 773.396 L 345.737 774.126 L 346.465 774.844 L 347.205 775.550 L 347.956 776.244 L 348.718 776.926 L 349.492 777.595 L 350.276 778.252 L 351.070 778.895 L 351.876 779.526 L 352.691 780.143 L 353.517 780.746 L 354.352 781.337 L 355.196 781.913 L 356.050 782.476 L 356.914 783.024 L 357.786 783.558 L 358.666 784.078 L 359.555 784.584 L 360.452 785.074 L 361.357 785.550 L 362.270 786.012 L 363.190 786.458 L 364.118 786.889 L 365.052 787.305 L 365.993 787.705 L 366.940 788.090 L 367.894 788.460 L 368.853 788.814 L 369.818 789.152 L 370.789 789.474 L 371.765 789.781 L 372.745 790.071 L 373.730 790.345 L 374.720 790.603 L 375.714 790.845 L 376.711 791.071 L 377.712 791.280 L 378.716 791.473 L 379.724 791.649 L 380.734 791.809 L 381.746 791.953 L 382.761 792.079 L 383.778 792.189 L 384.796 792.283 L 385.816 792.360 L 386.837 792.420 L 387.858 792.463 L 388.881 792.490 L 389.903 792.500 L 390.926 792.493 L 391.948 792.470 L 392.970 792.429 L 393.991 792.372 L 395.011 792.299 L 396.030 792.208 L 397.047 792.101 L 398.062 791.978 L 399.075 791.838 L 400.085 791.681 L 401.093 791.508 L 402.098 791.318 L 403.100 791.112 L 404.098 790.889 L 405.092 790.650 L 406.083 790.395 L 407.069 790.124 L 408.050 789.837 L 409.027 789.533 L 409.998 789.214 L 410.964 788.879 L 411.925 788.528 L 412.880 788.162 L 413.828 787.779 L 414.770 787.382 L 415.706 786.969 L 416.635 786.541 L 417.556 786.097 L 418.470 785.639 L 419.377 785.166 L 420.276 784.678 L 421.166 784.175 L 422.048 783.658 L 422.922 783.126 L 423.787 782.580 L 424.643 782.021 L 425.489 781.447 L 426.326 780.859 L 427.153 780.258 L 427.971 779.643 L 428.778 779.016 L 429.575 778.374 L 430.361 777.720 L 431.136 777.054 L 431.901 776.374 L 432.654 775.683 L 433.396 774.979 L 434.126 774.263 L 434.844 773.535 L 435.550 772.795 L 436.244 772.044 L 436.926 771.282 L 437.595 770.508 L 438.252 769.724 L 438.895 768.930 L 439.526 768.124 L 440.143 767.309 L 440.746 766.483 L 441.337 765.648 L 441.913 764.804 L 442.476 763.950 L 443.024 763.086 L 443.558 762.214 L 444.233 761.092 L 444.280 761.028 L 444.400 760.876 L 444.602 760.640 L 444.895 760.322 L 445.290 759.925 L 445.793 759.453 L 446.409 758.910 L 447.142 758.303 L 447.996 757.638 L 448.971 756.921 L 450.068 756.157 L 451.285 755.353 L 452.620 754.515 L 454.072 753.646 L 455.637 752.752 L 457.313 751.837 L 459.094 750.905 L 460.978 749.958 L 462.961 749.000 L 465.037 748.033 L 467.203 747.059 L 469.455 746.079 L 471.788 745.096 L 474.198 744.109 L 476.681 743.120 L 479.233 742.130 L 481.850 741.137 L 484.528 740.144 L 487.263 739.148 L 490.052 738.150 L 492.890 737.149 L 495.776 736.145 L 498.704 735.136 L 501.674 734.122 L 504.680 733.100 L 507.721 732.071 L 510.781 731.036 L 513.861 729.993 L 513.932 729.969 L 516.968 728.937 L 517.085 728.897 L 520.100 727.865 L 520.264 727.809 L 522.500 727.037 L 522.500 820.000 L 522.508 821.023 L 522.533 822.045 Z M 522.500 481.712 L 521.545 481.466 L 519.172 480.877 L 518.126 480.627 L 517.076 480.395 L 514.702 479.891 L 513.693 479.686 L 512.680 479.497 L 510.305 479.075 L 509.337 478.910 L 508.367 478.761 L 505.992 478.416 L 505.071 478.288 L 504.148 478.175 L 502.658 478.003 L 506.250 476.501 L 511.712 474.302 L 517.204 472.174 L 522.500 470.200 L 522.500 481.712 Z" fill="#000" fill-rule="evenodd"/>
</svg>
