<svg xmlns="http://www.w3.org/2000/svg" viewBox="0 0 1800.000 1000.000">
  <path d="M 1455.623,972.496 L 1454.231,974.211 L 1452.756,975.855 L 1451.203,977.425 L 1449.574,978.917 L 1447.874,980.327 L 1446.107,981.653 L 1444.277,982.889 L 1442.389,984.035 L 1440.447,985.087 L 1438.455,986.042 L 1436.419,986.898 L 1434.343,987.653 L 1432.233,988.305 L 1430.094,988.853 L 1427.930,989.296 L 1425.747,989.632 L 1423.550,989.860 L 1421.344,989.980 L 1419.136,989.992 L 1416.929,989.895 L 1414.730,989.690 L 1412.543,989.378 L 1410.375,988.959 L 1408.229,988.433 L 1406.113,987.803 L 1404.029,987.070 L 1401.984,986.236 L 1399.982,985.302 L 1398.029,984.272 L 1396.128,983.146 L 1394.285,981.929 L 1392.504,980.623 L 1390.789,979.231 L 1389.145,977.756 L 1387.575,976.203 L 1386.083,974.574 L 1384.673,972.874 L 1383.347,971.107 L 1382.111,969.277 L 1380.965,967.389 L 1379.913,965.447 L 1378.958,963.455 L 1378.102,961.419 L 1377.347,959.343 L 1376.695,957.233 L 1376.147,955.094 L 1375.704,952.930 L 1375.368,950.747 L 1375.140,948.550 L 1375.020,946.344 L 1375.008,944.136 L 1375.105,941.929 L 1375.477,936.482 L 1375.664,934.442 L 1375.943,932.413 L 1376.314,930.398 L 1377.425,925.053 L 1377.887,923.057 L 1378.440,921.084 L 1379.082,919.139 L 1380.910,913.994 L 1381.640,912.080 L 1382.456,910.201 L 1383.357,908.361 L 1385.868,903.514 L 1386.852,901.717 L 1387.917,899.966 L 1389.060,898.266 L 1392.208,893.806 L 1393.427,892.159 L 1394.720,890.570 L 1396.084,889.042 L 1399.810,885.052 L 1401.242,883.587 L 1402.740,882.188 L 1404.299,880.860 L 1408.534,877.414 L 1410.152,876.158 L 1411.826,874.976 L 1413.552,873.872 L 1418.216,871.036 L 1419.990,870.011 L 1421.809,869.069 L 1423.669,868.210 L 1428.677,866.035 L 1430.574,865.262 L 1432.504,864.576 L 1434.464,863.978 L 1439.721,862.505 L 1441.706,861.998 L 1443.712,861.581 L 1445.734,861.256 L 1451.143,860.512 L 1453.178,860.280 L 1455.000,860.155 L 1455.000,279.000 L 945.000,279.000 L 945.000,780.000 L 944.946,782.208 L 944.783,784.411 L 944.513,786.603 L 944.135,788.779 L 943.651,790.934 L 943.062,793.063 L 942.369,795.160 L 941.575,797.221 L 940.680,799.240 L 939.686,801.213 L 938.598,803.135 L 937.416,805.001 L 936.144,806.806 L 934.785,808.548 L 933.343,810.220 L 931.820,811.820 L 930.220,813.343 L 928.548,814.785 L 926.806,816.144 L 925.001,817.416 L 923.135,818.598 L 921.213,819.686 L 919.240,820.680 L 917.221,821.575 L 915.160,822.369 L 913.063,823.062 L 910.934,823.651 L 908.779,824.135 L 906.603,824.513 L 904.411,824.783 L 902.208,824.946 L 900.000,825.000 L 897.792,824.946 L 895.589,824.783 L 893.397,824.513 L 891.221,824.135 L 889.066,823.651 L 886.937,823.062 L 884.840,822.369 L 882.779,821.575 L 880.760,820.680 L 878.787,819.686 L 876.865,818.598 L 874.999,817.416 L 873.194,816.144 L 871.452,814.785 L 869.780,813.343 L 868.180,811.820 L 866.657,810.220 L 865.215,808.548 L 863.856,806.806 L 862.584,805.001 L 861.402,803.135 L 860.314,801.213 L 859.320,799.240 L 858.425,797.221 L 857.631,795.160 L 856.938,793.063 L 856.349,790.934 L 855.865,788.779 L 855.487,786.603 L 855.217,784.411 L 855.054,782.208 L 855.000,780.000 L 855.000,279.000 L 345.000,279.000 L 345.000,780.000 L 344.946,782.208 L 344.783,784.411 L 344.513,786.603 L 344.135,788.779 L 343.651,790.934 L 343.062,793.063 L 342.369,795.160 L 341.575,797.221 L 340.680,799.240 L 339.686,801.213 L 338.598,803.135 L 337.416,805.001 L 336.144,806.806 L 334.785,808.548 L 333.343,810.220 L 331.820,811.820 L 330.220,813.343 L 328.548,814.785 L 326.806,816.144 L 325.001,817.416 L 323.135,818.598 L 321.213,819.686 L 319.240,820.680 L 317.221,821.575 L 315.160,822.369 L 313.063,823.062 L 310.934,823.651 L 308.779,824.135 L 306.603,824.513 L 304.411,824.783 L 302.208,824.946 L 300.000,825.000 L 297.792,824.946 L 295.589,824.783 L 293.397,824.513 L 291.221,824.135 L 289.066,823.651 L 286.937,823.062 L 284.840,822.369 L 282.779,821.575 L 280.760,820.680 L 278.787,819.686 L 276.865,818.598 L 274.999,817.416 L 273.194,816.144 L 271.452,814.785 L 269.780,813.343 L 268.180,811.820 L 266.657,810.220 L 265.215,808.548 L 263.856,806.806 L 262.584,805.001 L 261.402,803.135 L 260.314,801.213 L 259.320,799.240 L 258.425,797.221 L 257.631,795.160 L 256.938,793.063 L 256.349,790.934 L 255.865,788.779 L 255.487,786.603 L 255.217,784.411 L 255.054,782.208 L 255.000,780.000 L 255.000,305.000 L 170.000,305.000 L 170.000,780.000 L 169.946,782.208 L 169.783,784.411 L 169.513,786.603 L 169.135,788.779 L 168.651,790.934 L 168.062,793.063 L 167.369,795.160 L 166.575,797.221 L 165.680,799.240 L 164.686,801.213 L 163.598,803.135 L 162.416,805.001 L 161.144,806.806 L 159.785,808.548 L 158.343,810.220 L 156.820,811.820 L 155.220,813.343 L 153.548,814.785 L 151.806,816.144 L 150.001,817.416 L 148.135,818.598 L 146.213,819.686 L 144.240,820.680 L 142.221,821.575 L 140.160,822.369 L 138.063,823.062 L 135.934,823.651 L 133.779,824.135 L 131.603,824.513 L 129.411,824.783 L 127.208,824.946 L 125.000,825.000 L 122.792,824.946 L 120.589,824.783 L 118.397,824.513 L 116.221,824.135 L 114.066,823.651 L 111.937,823.062 L 109.840,822.369 L 107.779,821.575 L 105.760,820.680 L 103.787,819.686 L 101.865,818.598 L 99.999,817.416 L 98.194,816.144 L 96.452,814.785 L 94.780,813.343 L 93.180,811.820 L 91.657,810.220 L 90.215,808.548 L 88.856,806.806 L 87.584,805.001 L 86.402,803.135 L 85.314,801.213 L 84.320,799.240 L 83.425,797.221 L 82.631,795.160 L 81.938,793.063 L 81.349,790.934 L 80.865,788.779 L 80.487,786.603 L 80.217,784.411 L 80.054,782.208 L 80.000,780.000 L 80.000,279.000 L 77.792,278.946 L 75.589,278.783 L 73.397,278.513 L 71.221,278.135 L 69.066,277.651 L 66.937,277.062 L 64.840,276.369 L 62.779,275.575 L 60.760,274.680 L 58.787,273.686 L 56.865,272.598 L 54.999,271.416 L 53.194,270.144 L 51.452,268.785 L 49.780,267.343 L 48.180,265.820 L 46.657,264.220 L 45.215,262.548 L 43.856,260.806 L 42.584,259.001 L 41.402,257.135 L 40.314,255.213 L 39.320,253.240 L 38.425,251.221 L 37.631,249.160 L 36.938,247.063 L 36.349,244.934 L 35.865,242.779 L 35.487,240.603 L 35.217,238.411 L 35.054,236.208 L 35.000,234.000 L 35.054,231.792 L 35.217,229.589 L 35.487,227.397 L 35.865,225.221 L 36.349,223.066 L 36.938,220.937 L 37.631,218.840 L 38.425,216.779 L 39.320,214.760 L 40.314,212.787 L 41.402,210.865 L 42.584,208.999 L 43.856,207.194 L 45.215,205.452 L 46.657,203.780 L 48.180,202.180 L 49.780,200.657 L 51.452,199.215 L 53.194,197.856 L 54.999,196.584 L 56.865,195.402 L 58.787,194.314 L 60.760,193.320 L 62.779,192.425 L 64.840,191.631 L 66.937,190.938 L 69.066,190.349 L 71.221,189.865 L 73.397,189.487 L 75.589,189.217 L 77.792,189.054 L 80.000,189.000 L 1720.000,189.000 L 1722.208,189.054 L 1724.411,189.217 L 1726.603,189.487 L 1728.779,189.865 L 1730.934,190.349 L 1733.063,190.938 L 1735.160,191.631 L 1737.221,192.425 L 1739.240,193.320 L 1741.213,194.314 L 1743.135,195.402 L 1745.001,196.584 L 1746.806,197.856 L 1748.548,199.215 L 1750.220,200.657 L 1751.820,202.180 L 1753.343,203.780 L 1754.785,205.452 L 1756.144,207.194 L 1757.416,208.999 L 1758.598,210.865 L 1759.686,212.787 L 1760.680,214.760 L 1761.575,216.779 L 1762.369,218.840 L 1763.062,220.937 L 1763.651,223.066 L 1764.135,225.221 L 1764.513,227.397 L 1764.783,229.589 L 1764.946,231.792 L 1765.000,234.000 L 1764.946,236.208 L 1764.783,238.411 L 1764.513,240.603 L 1764.135,242.779 L 1763.651,244.934 L 1763.062,247.063 L 1762.369,249.160 L 1761.575,251.221 L 1760.680,253.240 L 1759.686,255.213 L 1758.598,257.135 L 1757.416,259.001 L 1756.144,260.806 L 1754.785,262.548 L 1753.343,264.220 L 1751.820,265.820 L 1750.220,267.343 L 1748.548,268.785 L 1746.806,270.144 L 1745.001,271.416 L 1743.135,272.598 L 1741.213,273.686 L 1739.240,274.680 L 1737.221,275.575 L 1735.160,276.369 L 1733.063,277.062 L 1730.934,277.651 L 1728.779,278.135 L 1726.603,278.513 L 1724.411,278.783 L 1722.208,278.946 L 1720.000,279.000 L 1545.000,279.000 L 1545.000,945.000 L 1544.984,945.672 L 1544.980,946.344 L 1544.956,946.776 L 1544.946,947.208 L 1544.896,947.879 L 1544.860,948.550 L 1544.815,948.980 L 1544.783,949.411 L 1544.701,950.078 L 1544.632,950.747 L 1544.566,951.174 L 1544.513,951.603 L 1544.398,952.265 L 1544.296,952.930 L 1544.209,953.353 L 1544.135,953.779 L 1543.988,954.435 L 1543.853,955.094 L 1543.746,955.512 L 1543.651,955.934 L 1543.472,956.582 L 1543.305,957.233 L 1543.178,957.646 L 1543.062,958.063 L 1542.851,958.701 L 1542.653,959.343 L 1542.505,959.750 L 1542.369,960.160 L 1542.128,960.787 L 1541.898,961.419 L 1541.730,961.817 L 1541.575,962.221 L 1541.302,962.835 L 1541.042,963.455 L 1540.855,963.845 L 1540.680,964.240 L 1540.377,964.840 L 1540.087,965.447 L 1539.881,965.827 L 1539.686,966.213 L 1539.355,966.798 L 1539.035,967.389 L 1538.811,967.759 L 1538.598,968.135 L 1538.238,968.703 L 1537.889,969.277 L 1537.647,969.635 L 1537.416,970.001 L 1537.029,970.550 L 1536.653,971.107 L 1536.393,971.453 L 1536.144,971.806 L 1535.731,972.336 L 1535.327,972.874 L 1535.051,973.207 L 1534.785,973.548 L 1534.346,974.057 L 1533.917,974.574 L 1533.625,974.893 L 1533.343,975.220 L 1532.879,975.707 L 1532.425,976.203 L 1532.118,976.507 L 1531.820,976.820 L 1531.333,977.283 L 1530.855,977.756 L 1530.533,978.045 L 1530.220,978.343 L 1529.711,978.782 L 1529.211,979.231 L 1528.875,979.503 L 1528.548,979.785 L 1528.018,980.199 L 1527.496,980.623 L 1527.147,980.878 L 1526.806,981.144 L 1526.257,981.531 L 1525.715,981.929 L 1525.354,982.167 L 1525.001,982.416 L 1524.433,982.776 L 1523.872,983.146 L 1523.500,983.367 L 1523.135,983.598 L 1522.550,983.929 L 1521.971,984.272 L 1521.589,984.473 L 1521.213,984.686 L 1520.612,984.989 L 1520.018,985.302 L 1519.626,985.485 L 1519.240,985.680 L 1518.625,985.952 L 1518.016,986.236 L 1517.616,986.399 L 1517.221,986.575 L 1516.594,986.817 L 1515.971,987.070 L 1515.563,987.214 L 1515.160,987.369 L 1514.522,987.580 L 1513.887,987.803 L 1513.473,987.927 L 1513.063,988.062 L 1512.415,988.242 L 1511.771,988.433 L 1511.351,988.536 L 1510.934,988.651 L 1510.278,988.799 L 1509.625,988.959 L 1509.201,989.041 L 1508.779,989.135 L 1508.117,989.250 L 1507.457,989.378 L 1507.029,989.439 L 1506.603,989.513 L 1505.936,989.595 L 1505.270,989.690 L 1504.840,989.730 L 1504.411,989.783 L 1503.740,989.833 L 1503.071,989.895 L 1502.639,989.914 L 1502.208,989.946 L 1501.536,989.962 L 1500.864,989.992 L 1500.432,989.989 L 1500.000,990.000 L 1499.328,989.984 L 1498.656,989.980 L 1498.224,989.956 L 1497.792,989.946 L 1497.121,989.896 L 1496.450,989.860 L 1496.020,989.815 L 1495.589,989.783 L 1494.922,989.701 L 1494.253,989.632 L 1493.826,989.566 L 1493.397,989.513 L 1492.735,989.398 L 1492.070,989.296 L 1491.647,989.209 L 1491.221,989.135 L 1490.565,988.988 L 1489.906,988.853 L 1489.488,988.746 L 1489.066,988.651 L 1488.418,988.472 L 1487.767,988.305 L 1487.354,988.178 L 1486.937,988.062 L 1486.299,987.851 L 1485.657,987.653 L 1485.250,987.505 L 1484.840,987.369 L 1484.213,987.128 L 1483.581,986.898 L 1483.183,986.730 L 1482.779,986.575 L 1482.165,986.302 L 1481.545,986.042 L 1481.155,985.855 L 1480.760,985.680 L 1480.160,985.377 L 1479.553,985.087 L 1479.173,984.881 L 1478.787,984.686 L 1478.202,984.355 L 1477.611,984.035 L 1477.241,983.811 L 1476.865,983.598 L 1476.297,983.238 L 1475.723,982.889 L 1475.365,982.647 L 1474.999,982.416 L 1474.450,982.029 L 1473.893,981.653 L 1473.547,981.393 L 1473.194,981.144 L 1472.664,980.731 L 1472.126,980.327 L 1471.793,980.051 L 1471.452,979.785 L 1470.943,979.346 L 1470.426,978.917 L 1470.107,978.625 L 1469.780,978.343 L 1469.293,977.879 L 1468.797,977.425 L 1468.493,977.118 L 1468.180,976.820 L 1467.717,976.333 L 1467.244,975.855 L 1466.955,975.533 L 1466.657,975.220 L 1466.218,974.711 L 1465.769,974.211 L 1465.497,973.875 L 1465.215,973.548 L 1464.801,973.018 L 1464.377,972.496 L 1464.122,972.147 L 1463.856,971.806 L 1463.469,971.257 L 1463.071,970.715 L 1462.833,970.354 L 1462.584,970.001 L 1462.224,969.433 L 1461.854,968.872 L 1461.633,968.500 L 1461.402,968.135 L 1461.071,967.550 L 1460.728,966.971 L 1460.527,966.589 L 1460.314,966.213 L 1460.011,965.612 L 1460.000,965.591 L 1459.272,966.971 L 1458.146,968.872 L 1456.929,970.715 L 1455.623,972.496 Z M 80.487,-6.603 L 80.865,-8.779 L 81.349,-10.934 L 81.938,-13.063 L 82.631,-15.160 L 83.425,-17.221 L 84.320,-19.240 L 85.314,-21.213 L 86.402,-23.135 L 87.584,-25.001 L 88.856,-26.806 L 90.215,-28.548 L 91.657,-30.220 L 93.180,-31.820 L 94.780,-33.343 L 96.452,-34.785 L 98.194,-36.144 L 99.999,-37.416 L 101.865,-38.598 L 103.787,-39.686 L 105.760,-40.680 L 107.779,-41.575 L 109.840,-42.369 L 111.937,-43.062 L 114.066,-43.651 L 116.221,-44.135 L 118.397,-44.513 L 120.589,-44.783 L 122.792,-44.946 L 125.000,-45.000 L 127.208,-44.946 L 129.411,-44.783 L 131.603,-44.513 L 133.779,-44.135 L 135.934,-43.651 L 138.063,-43.062 L 140.160,-42.369 L 142.221,-41.575 L 144.240,-40.680 L 146.213,-39.686 L 148.135,-38.598 L 150.001,-37.416 L 151.806,-36.144 L 153.548,-34.785 L 155.220,-33.343 L 156.820,-31.820 L 158.343,-30.220 L 159.785,-28.548 L 161.144,-26.806 L 162.416,-25.001 L 163.598,-23.135 L 164.686,-21.213 L 165.680,-19.240 L 166.575,-17.221 L 167.369,-15.160 L 168.062,-13.063 L 168.651,-10.934 L 169.135,-8.779 L 169.513,-6.603 L 169.783,-4.411 L 169.946,-2.208 L 170.000,0.000 L 170.000,40.000 L 80.000,40.000 L 80.000,0.000 L 80.054,-2.208 L 80.217,-4.411 L 80.487,-6.603 Z" fill="black" fill-rule="evenodd"/>
</svg>
