<svg xmlns="http://www.w3.org/2000/svg" viewBox="0 0 1200.000 1000.000">
  <path d="M 1148.937,745.538 L 1150.593,746.999 L 1152.175,748.540 L 1153.680,750.156 L 1155.104,751.845 L 1156.443,753.601 L 1157.695,755.421 L 1158.855,757.301 L 1159.922,759.234 L 1160.893,761.218 L 1161.765,763.248 L 1162.537,765.317 L 1163.206,767.422 L 1163.772,769.557 L 1164.231,771.717 L 1164.584,773.898 L 1164.830,776.093 L 1164.968,778.297 L 1164.997,780.506 L 1164.918,782.713 L 1164.731,784.914 L 1164.436,787.103 L 1164.034,789.274 L 1163.526,791.424 L 1162.913,793.546 L 1162.196,795.635 L 1161.378,797.687 L 1160.461,799.696 L 1159.446,801.657 L 1158.335,803.567 L 1157.133,805.420 L 1155.841,807.211 L 1154.462,808.937 L 1153.001,810.593 L 1151.460,812.175 L 1149.844,813.680 L 1148.155,815.104 L 1146.399,816.443 L 1144.579,817.695 L 1142.699,818.855 L 1140.766,819.922 L 1138.782,820.893 L 1136.752,821.765 L 1134.683,822.537 L 1132.578,823.206 L 1130.443,823.772 L 1128.283,824.231 L 1126.102,824.584 L 1123.907,824.830 L 1121.703,824.968 L 1119.494,824.997 L 1117.287,824.918 L 1115.086,824.731 L 1112.897,824.436 L 1110.726,824.034 L 1108.576,823.526 L 1106.454,822.913 L 1104.365,822.196 L 1102.313,821.378 L 1100.304,820.461 L 1098.343,819.446 L 1096.433,818.335 L 1094.580,817.133 L 770.000,594.939 L 770.000,780.000 L 769.946,782.208 L 769.783,784.411 L 769.513,786.603 L 769.135,788.779 L 768.651,790.934 L 768.062,793.063 L 767.369,795.160 L 766.575,797.221 L 765.680,799.240 L 764.686,801.213 L 763.598,803.135 L 762.416,805.001 L 761.144,806.806 L 759.785,808.548 L 758.343,810.220 L 756.820,811.820 L 755.220,813.343 L 753.548,814.785 L 751.806,816.144 L 750.001,817.416 L 748.135,818.598 L 746.213,819.686 L 744.240,820.680 L 742.221,821.575 L 740.160,822.369 L 738.063,823.062 L 735.934,823.651 L 733.779,824.135 L 731.603,824.513 L 729.411,824.783 L 727.208,824.946 L 725.000,825.000 L 722.792,824.946 L 720.589,824.783 L 718.397,824.513 L 716.221,824.135 L 714.066,823.651 L 711.937,823.062 L 709.840,822.369 L 707.779,821.575 L 705.760,820.680 L 703.787,819.686 L 701.865,818.598 L 699.999,817.416 L 698.194,816.144 L 696.452,814.785 L 694.780,813.343 L 693.180,811.820 L 691.657,810.220 L 690.215,808.548 L 688.856,806.806 L 687.584,805.001 L 686.402,803.135 L 685.314,801.213 L 684.320,799.240 L 683.425,797.221 L 682.631,795.160 L 681.938,793.063 L 681.349,790.934 L 680.865,788.779 L 680.487,786.603 L 680.217,784.411 L 680.054,782.208 L 680.000,780.000 L 680.000,0.000 L 680.054,-2.208 L 680.217,-4.411 L 680.487,-6.603 L 680.865,-8.779 L 681.349,-10.934 L 681.938,-13.063 L 682.631,-15.160 L 683.425,-17.221 L 684.320,-19.240 L 685.314,-21.213 L 686.402,-23.135 L 687.584,-25.001 L 688.856,-26.806 L 690.215,-28.548 L 691.657,-30.220 L 693.180,-31.820 L 694.780,-33.343 L 696.452,-34.785 L 698.194,-36.144 L 699.999,-37.416 L 701.865,-38.598 L 703.787,-39.686 L 705.760,-40.680 L 707.779,-41.575 L 709.840,-42.369 L 711.937,-43.062 L 714.066,-43.651 L 716.221,-44.135 L 718.397,-44.513 L 720.589,-44.783 L 722.792,-44.946 L 725.000,-45.000 L 727.208,-44.946 L 729.411,-44.783 L 731.603,-44.513 L 733.779,-44.135 L 735.934,-43.651 L 738.063,-43.062 L 740.160,-42.369 L 742.221,-41.575 L 744.240,-40.680 L 746.213,-39.686 L 748.135,-38.598 L 750.001,-37.416 L 751.806,-36.144 L 753.548,-34.785 L 755.220,-33.343 L 756.820,-31.820 L 758.343,-30.220 L 759.785,-28.548 L 761.144,-26.806 L 762.416,-25.001 L 763.598,-23.135 L 764.686,-21.213 L 765.680,-19.240 L 766.575,-17.221 L 767.369,-15.160 L 768.062,-13.063 L 768.651,-10.934 L 769.135,-8.779 L 769.513,-6.603 L 769.783,-4.411 L 769.946,-2.208 L 770.000,0.000 L 770.000,427.933 L 1095.962,221.958 L 1097.857,220.825 L 1099.806,219.785 L 1101.804,218.843 L 1103.845,218.000 L 1105.925,217.258 L 1108.040,216.619 L 1110.183,216.084 L 1112.349,215.655 L 1114.534,215.333 L 1116.733,215.119 L 1118.939,215.013 L 1121.148,215.015 L 1123.353,215.125 L 1125.551,215.344 L 1127.736,215.670 L 1129.902,216.103 L 1132.044,216.642 L 1134.157,217.285 L 1136.236,218.031 L 1138.275,218.878 L 1140.271,219.824 L 1142.218,220.867 L 1144.111,222.005 L 1145.947,223.234 L 1147.719,224.551 L 1149.425,225.954 L 1151.061,227.439 L 1152.621,229.002 L 1154.103,230.640 L 1155.502,232.349 L 1156.816,234.124 L 1158.042,235.962 L 1159.175,237.857 L 1160.215,239.806 L 1161.157,241.804 L 1162.000,243.845 L 1162.742,245.925 L 1163.381,248.040 L 1163.916,250.183 L 1164.345,252.349 L 1164.667,254.534 L 1164.881,256.733 L 1164.987,258.939 L 1164.985,261.148 L 1164.875,263.353 L 1164.656,265.551 L 1164.330,267.736 L 1163.897,269.902 L 1163.358,272.044 L 1162.715,274.157 L 1161.969,276.236 L 1161.122,278.275 L 1160.176,280.271 L 1159.133,282.218 L 1157.995,284.111 L 1156.766,285.947 L 1155.449,287.719 L 1154.046,289.425 L 1152.561,291.061 L 1150.998,292.621 L 1149.360,294.103 L 1147.651,295.502 L 1145.876,296.816 L 1144.038,298.042 L 806.860,511.104 L 1145.420,742.867 L 1147.211,744.159 L 1148.937,745.538 Z M 255.487,253.397 L 255.865,251.221 L 256.349,249.066 L 256.938,246.937 L 257.631,244.840 L 258.425,242.779 L 259.320,240.760 L 260.314,238.787 L 261.402,236.865 L 262.584,234.999 L 263.856,233.194 L 265.215,231.452 L 266.657,229.780 L 268.180,228.180 L 269.780,226.657 L 271.452,225.215 L 273.194,223.856 L 274.999,222.584 L 276.865,221.402 L 278.787,220.314 L 280.760,219.320 L 282.779,218.425 L 284.840,217.631 L 286.937,216.938 L 289.066,216.349 L 291.221,215.865 L 293.397,215.487 L 295.589,215.217 L 297.792,215.054 L 300.000,215.000 L 302.208,215.054 L 304.411,215.217 L 306.603,215.487 L 308.779,215.865 L 310.934,216.349 L 313.063,216.938 L 315.160,217.631 L 317.221,218.425 L 319.240,219.320 L 321.213,220.314 L 323.135,221.402 L 325.001,222.584 L 326.806,223.856 L 328.548,225.215 L 330.220,226.657 L 331.820,228.180 L 333.343,229.780 L 334.785,231.452 L 336.144,233.194 L 337.416,234.999 L 338.598,236.865 L 339.686,238.787 L 340.680,240.760 L 341.575,242.779 L 342.369,244.840 L 343.062,246.937 L 343.651,249.066 L 344.135,251.221 L 344.513,253.397 L 344.783,255.589 L 344.946,257.792 L 345.000,260.000 L 345.000,780.000 L 344.946,782.208 L 344.783,784.411 L 344.513,786.603 L 344.135,788.779 L 343.651,790.934 L 343.062,793.063 L 342.369,795.160 L 341.575,797.221 L 340.680,799.240 L 339.686,801.213 L 338.598,803.135 L 337.416,805.001 L 336.144,806.806 L 334.785,808.548 L 333.343,810.220 L 331.820,811.820 L 330.220,813.343 L 328.548,814.785 L 326.806,816.144 L 325.001,817.416 L 323.135,818.598 L 321.213,819.686 L 319.240,820.680 L 317.221,821.575 L 315.160,822.369 L 313.063,823.062 L 310.934,823.651 L 308.779,824.135 L 306.603,824.513 L 304.411,824.783 L 302.208,824.946 L 300.000,825.000 L 297.792,824.946 L 295.589,824.783 L 293.397,824.513 L 291.221,824.135 L 289.066,823.651 L 286.937,823.062 L 284.840,822.369 L 282.779,821.575 L 280.760,820.680 L 278.787,819.686 L 276.865,818.598 L 274.999,817.416 L 273.194,816.144 L 271.452,814.785 L 269.780,813.343 L 268.180,811.820 L 266.657,810.220 L 265.215,808.548 L 263.856,806.806 L 262.584,805.001 L 261.402,803.135 L 260.314,801.213 L 259.320,799.240 L 258.425,797.221 L 257.631,795.160 L 256.938,793.063 L 256.349,790.934 L 255.865,788.779 L 255.487,786.603 L 255.217,784.411 L 255.054,782.208 L 255.000,780.000 L 255.000,260.000 L 255.054,257.792 L 255.217,255.589 L 255.487,253.397 Z" fill="black" fill-rule="evenodd"/>
</svg>
