<svg xmlns="http://www.w3.org/2000/svg" viewBox="0 0 700.000 1000" width="700.000" height="1000">
  <path d="M 308.587 106.848 L 308.007 105.908 L 307.405 104.982 L 306.779 104.072 L 306.132 103.177 L 305.463 102.298 L 304.772 101.436 L 304.061 100.592 L 303.329 99.765 L 302.577 98.956 L 301.805 98.166 L 301.014 97.395 L 300.205 96.643 L 299.377 95.912 L 298.532 95.201 L 297.669 94.512 L 296.790 93.843 L 295.895 93.197 L 294.984 92.572 L 294.057 91.971 L 293.117 91.392 L 292.162 90.836 L 291.195 90.304 L 290.214 89.796 L 289.221 89.312 L 288.217 88.852 L 287.202 88.418 L 286.176 88.008 L 285.141 87.624 L 284.096 87.265 L 283.043 86.932 L 281.982 86.625 L 280.914 86.344 L 279.839 86.089 L 278.759 85.861 L 277.673 85.659 L 276.582 85.484 L 275.488 85.336 L 274.390 85.215 L 273.290 85.120 L 272.187 85.053 L 271.084 85.013 L 269.979 85.000 L 268.875 85.014 L 267.771 85.055 L 266.669 85.123 L 265.569 85.219 L 264.471 85.341 L 263.377 85.490 L 262.286 85.666 L 261.201 85.869 L 260.120 86.098 L 259.046 86.354 L 257.978 86.636 L 256.917 86.944 L 255.865 87.278 L 254.821 87.637 L 253.785 88.023 L 252.760 88.433 L 251.745 88.869 L 250.741 89.329 L 249.749 89.814 L 248.769 90.323 L 247.802 90.856 L 246.848 91.413 L 245.908 91.993 L 244.982 92.595 L 244.072 93.221 L 243.177 93.868 L 242.298 94.537 L 241.436 95.228 L 240.592 95.939 L 239.765 96.671 L 238.956 97.423 L 238.166 98.195 L 237.395 98.986 L 236.643 99.795 L 235.912 100.623 L 235.201 101.468 L 234.512 102.331 L 233.843 103.210 L 233.197 104.105 L 232.572 105.016 L 231.971 105.943 L 231.392 106.883 L 230.836 107.838 L 230.304 108.805 L 229.796 109.786 L 229.312 110.779 L 228.852 111.783 L 228.418 112.798 L 228.008 113.824 L 227.624 114.859 L 227.265 115.904 L 226.932 116.957 L 226.625 118.018 L 226.344 119.086 L 226.089 120.161 L 225.861 121.241 L 225.659 122.327 L 225.484 123.418 L 225.336 124.512 L 225.215 125.610 L 225.120 126.710 L 225.053 127.813 L 225.013 128.916 L 225.000 130.021 L 225.014 131.125 L 225.055 132.229 L 225.123 133.331 L 225.219 134.431 L 225.341 135.529 L 225.490 136.623 L 225.666 137.714 L 225.869 138.799 L 226.098 139.880 L 226.354 140.954 L 226.636 142.022 L 226.944 143.083 L 227.278 144.135 L 227.637 145.179 L 228.023 146.215 L 228.433 147.240 L 228.869 148.255 L 229.329 149.259 L 229.814 150.251 L 230.323 151.231 L 230.856 152.198 L 231.413 153.152 L 370.521 385.000 L 220.000 385.000 L 218.896 385.014 L 217.792 385.054 L 216.690 385.122 L 215.589 385.217 L 214.492 385.338 L 213.397 385.487 L 212.307 385.663 L 211.221 385.865 L 210.140 386.093 L 209.066 386.349 L 207.998 386.630 L 206.937 386.938 L 205.884 387.271 L 204.840 387.631 L 203.805 388.015 L 202.779 388.425 L 201.764 388.861 L 200.760 389.320 L 199.767 389.805 L 198.787 390.314 L 197.820 390.846 L 196.865 391.402 L 195.925 391.982 L 194.999 392.584 L 194.089 393.209 L 193.194 393.856 L 192.315 394.524 L 191.452 395.215 L 190.607 395.926 L 189.780 396.657 L 188.971 397.409 L 188.180 398.180 L 187.409 398.971 L 186.657 399.780 L 185.926 400.607 L 185.215 401.452 L 184.524 402.315 L 183.856 403.194 L 183.209 404.089 L 182.584 404.999 L 181.982 405.925 L 181.402 406.865 L 180.846 407.820 L 180.314 408.787 L 179.805 409.767 L 179.320 410.760 L 178.861 411.764 L 178.425 412.779 L 178.015 413.805 L 177.631 414.840 L 177.271 415.884 L 176.938 416.937 L 176.630 417.998 L 176.349 419.066 L 176.093 420.140 L 175.865 421.221 L 175.663 422.307 L 175.487 423.397 L 175.338 424.492 L 175.217 425.589 L 175.122 426.690 L 175.054 427.792 L 175.014 428.896 L 175.000 430.000 L 175.014 431.104 L 175.054 432.208 L 175.122 433.310 L 175.217 434.411 L 175.338 435.508 L 175.487 436.603 L 175.663 437.693 L 175.865 438.779 L 176.093 439.860 L 176.349 440.934 L 176.630 442.002 L 176.938 443.063 L 177.271 444.116 L 177.631 445.160 L 178.015 446.195 L 178.425 447.221 L 178.861 448.236 L 179.320 449.240 L 179.805 450.233 L 180.314 451.213 L 180.846 452.180 L 181.402 453.135 L 181.982 454.075 L 182.584 455.001 L 183.209 455.911 L 183.856 456.806 L 184.524 457.685 L 185.215 458.548 L 185.926 459.393 L 186.657 460.220 L 187.409 461.029 L 188.180 461.820 L 188.971 462.591 L 189.780 463.343 L 190.607 464.074 L 191.452 464.785 L 192.315 465.476 L 193.194 466.144 L 194.089 466.791 L 194.999 467.416 L 195.925 468.018 L 196.865 468.598 L 197.820 469.154 L 198.787 469.686 L 199.767 470.195 L 200.760 470.680 L 201.764 471.139 L 202.779 471.575 L 203.805 471.985 L 204.840 472.369 L 205.884 472.729 L 206.937 473.062 L 207.998 473.370 L 209.066 473.651 L 210.140 473.907 L 211.221 474.135 L 212.307 474.337 L 213.397 474.513 L 214.492 474.662 L 215.589 474.783 L 216.690 474.878 L 217.792 474.946 L 218.896 474.986 L 220.000 475.000 L 405.000 475.000 L 405.000 780.000 L 405.014 781.104 L 405.054 782.208 L 405.122 783.310 L 405.217 784.411 L 405.338 785.508 L 405.487 786.603 L 405.663 787.693 L 405.865 788.779 L 406.093 789.860 L 406.349 790.934 L 406.630 792.002 L 406.938 793.063 L 407.271 794.116 L 407.631 795.160 L 408.015 796.195 L 408.425 797.221 L 408.861 798.236 L 409.320 799.240 L 409.805 800.233 L 410.314 801.213 L 410.846 802.180 L 411.402 803.135 L 411.982 804.075 L 412.584 805.001 L 413.209 805.911 L 413.856 806.806 L 414.524 807.685 L 415.215 808.548 L 415.926 809.393 L 416.657 810.220 L 417.409 811.029 L 418.180 811.820 L 418.971 812.591 L 419.780 813.343 L 420.607 814.074 L 421.452 814.785 L 422.315 815.476 L 423.194 816.144 L 424.089 816.791 L 424.999 817.416 L 425.925 818.018 L 426.865 818.598 L 427.820 819.154 L 428.787 819.686 L 429.767 820.195 L 430.760 820.680 L 431.764 821.139 L 432.779 821.575 L 433.805 821.985 L 434.840 822.369 L 435.884 822.729 L 436.937 823.062 L 437.998 823.370 L 439.066 823.651 L 440.140 823.907 L 441.221 824.135 L 442.307 824.337 L 443.397 824.513 L 444.492 824.662 L 445.589 824.783 L 446.690 824.878 L 447.792 824.946 L 448.896 824.986 L 450.000 825.000 L 451.104 824.986 L 452.208 824.946 L 453.310 824.878 L 454.411 824.783 L 455.508 824.662 L 456.603 824.513 L 457.693 824.337 L 458.779 824.135 L 459.860 823.907 L 460.934 823.651 L 462.002 823.370 L 463.063 823.062 L 464.116 822.729 L 465.160 822.369 L 466.195 821.985 L 467.221 821.575 L 468.236 821.139 L 469.240 820.680 L 470.233 820.195 L 471.213 819.686 L 472.180 819.154 L 473.135 818.598 L 474.075 818.018 L 475.001 817.416 L 475.911 816.791 L 476.806 816.144 L 477.685 815.476 L 478.548 814.785 L 479.393 814.074 L 480.220 813.343 L 481.029 812.591 L 481.820 811.820 L 482.591 811.029 L 483.343 810.220 L 484.074 809.393 L 484.785 808.548 L 485.476 807.685 L 486.144 806.806 L 486.791 805.911 L 487.416 805.001 L 488.018 804.075 L 488.598 803.135 L 489.154 802.180 L 489.686 801.213 L 490.195 800.233 L 490.680 799.240 L 491.139 798.236 L 491.575 797.221 L 491.985 796.195 L 492.369 795.160 L 492.729 794.116 L 493.062 793.063 L 493.370 792.002 L 493.651 790.934 L 493.907 789.860 L 494.135 788.779 L 494.337 787.693 L 494.513 786.603 L 494.662 785.508 L 494.783 784.411 L 494.878 783.310 L 494.946 782.208 L 494.986 781.104 L 495.000 780.000 L 495.000 475.000 L 530.000 475.000 L 531.104 474.986 L 532.208 474.946 L 533.310 474.878 L 534.411 474.783 L 535.508 474.662 L 536.603 474.513 L 537.693 474.337 L 538.779 474.135 L 539.860 473.907 L 540.934 473.651 L 542.002 473.370 L 543.063 473.062 L 544.116 472.729 L 545.160 472.369 L 546.195 471.985 L 547.221 471.575 L 548.236 471.139 L 549.240 470.680 L 550.233 470.195 L 551.213 469.686 L 552.180 469.154 L 553.135 468.598 L 554.075 468.018 L 555.001 467.416 L 555.911 466.791 L 556.806 466.144 L 557.685 465.476 L 558.548 464.785 L 559.393 464.074 L 560.220 463.343 L 561.029 462.591 L 561.820 461.820 L 562.591 461.029 L 563.343 460.220 L 564.074 459.393 L 564.785 458.548 L 565.476 457.685 L 566.144 456.806 L 566.791 455.911 L 567.416 455.001 L 568.018 454.075 L 568.598 453.135 L 569.154 452.180 L 569.686 451.213 L 570.195 450.233 L 570.680 449.240 L 571.139 448.236 L 571.575 447.221 L 571.985 446.195 L 572.369 445.160 L 572.729 444.116 L 573.062 443.063 L 573.370 442.002 L 573.651 440.934 L 573.907 439.860 L 574.135 438.779 L 574.337 437.693 L 574.513 436.603 L 574.662 435.508 L 574.783 434.411 L 574.878 433.310 L 574.946 432.208 L 574.986 431.104 L 575.000 430.000 L 574.986 428.896 L 574.946 427.792 L 574.878 426.690 L 574.783 425.589 L 574.662 424.492 L 574.513 423.397 L 574.337 422.307 L 574.135 421.221 L 573.907 420.140 L 573.651 419.066 L 573.370 417.998 L 573.062 416.937 L 572.729 415.884 L 572.369 414.840 L 571.985 413.805 L 571.575 412.779 L 571.139 411.764 L 570.680 410.760 L 570.195 409.767 L 569.686 408.787 L 569.154 407.820 L 568.598 406.865 L 568.018 405.925 L 567.416 404.999 L 566.791 404.089 L 566.144 403.194 L 565.476 402.315 L 564.785 401.452 L 564.074 400.607 L 563.343 399.780 L 562.591 398.971 L 561.820 398.180 L 561.029 397.409 L 560.220 396.657 L 559.393 395.926 L 558.548 395.215 L 557.685 394.524 L 556.806 393.856 L 555.911 393.209 L 555.001 392.584 L 554.075 391.982 L 553.135 391.402 L 552.180 390.846 L 551.213 390.314 L 550.233 389.805 L 549.240 389.320 L 548.236 388.861 L 547.221 388.425 L 546.195 388.015 L 545.160 387.631 L 544.116 387.271 L 543.063 386.938 L 542.002 386.630 L 540.934 386.349 L 539.860 386.093 L 538.779 385.865 L 537.693 385.663 L 536.603 385.487 L 535.508 385.338 L 534.411 385.217 L 533.310 385.122 L 532.208 385.054 L 531.104 385.014 L 530.000 385.000 L 495.000 385.000 L 495.000 40.000 L 494.986 38.896 L 494.946 37.792 L 494.878 36.690 L 494.783 35.589 L 494.662 34.492 L 494.513 33.397 L 494.337 32.307 L 494.135 31.221 L 493.907 30.140 L 493.651 29.066 L 493.370 27.998 L 493.062 26.937 L 492.729 25.884 L 492.369 24.840 L 491.985 23.805 L 491.575 22.779 L 491.139 21.764 L 490.680 20.760 L 490.195 19.767 L 489.686 18.787 L 489.154 17.820 L 488.598 16.865 L 488.018 15.925 L 487.416 14.999 L 486.791 14.089 L 486.144 13.194 L 485.476 12.315 L 484.785 11.452 L 484.074 10.607 L 483.343 9.780 L 482.591 8.971 L 481.820 8.180 L 481.029 7.409 L 480.220 6.657 L 479.393 5.926 L 478.548 5.215 L 477.685 4.524 L 476.806 3.856 L 475.911 3.209 L 475.001 2.584 L 474.075 1.982 L 473.135 1.402 L 472.180 0.846 L 471.213 0.314 L 470.233 -0.195 L 469.240 -0.680 L 468.236 -1.139 L 467.221 -1.575 L 466.195 -1.985 L 465.160 -2.369 L 464.116 -2.729 L 463.063 -3.062 L 462.002 -3.370 L 460.934 -3.651 L 459.860 -3.907 L 458.779 -4.135 L 457.693 -4.337 L 456.603 -4.513 L 455.508 -4.662 L 454.411 -4.783 L 453.310 -4.878 L 452.208 -4.946 L 451.104 -4.986 L 450.000 -5.000 L 448.896 -4.986 L 447.792 -4.946 L 446.690 -4.878 L 445.589 -4.783 L 444.492 -4.662 L 443.397 -4.513 L 442.307 -4.337 L 441.221 -4.135 L 440.140 -3.907 L 439.066 -3.651 L 437.998 -3.370 L 436.937 -3.062 L 435.884 -2.729 L 434.840 -2.369 L 433.805 -1.985 L 432.779 -1.575 L 431.764 -1.139 L 430.760 -0.680 L 429.767 -0.195 L 428.787 0.314 L 427.820 0.846 L 426.865 1.402 L 425.925 1.982 L 424.999 2.584 L 424.089 3.209 L 423.194 3.856 L 422.315 4.524 L 421.452 5.215 L 420.607 5.926 L 419.780 6.657 L 418.971 7.409 L 418.180 8.180 L 417.409 8.971 L 416.657 9.780 L 415.926 10.607 L 415.215 11.452 L 414.524 12.315 L 413.856 13.194 L 413.209 14.089 L 412.584 14.999 L 411.982 15.925 L 411.402 16.865 L 410.846 17.820 L 410.314 18.787 L 409.805 19.767 L 409.320 20.760 L 408.861 21.764 L 408.425 22.779 L 408.015 23.805 L 407.631 24.840 L 407.271 25.884 L 406.938 26.937 L 406.630 27.998 L 406.349 29.066 L 406.093 30.140 L 405.865 31.221 L 405.663 32.307 L 405.487 33.397 L 405.338 34.492 L 405.217 35.589 L 405.122 36.690 L 405.054 37.792 L 405.014 38.896 L 405.000 40.000 L 405.000 267.536 L 308.587 106.848 Z" fill="black" fill-rule="evenodd"/>
</svg>
