<svg xmlns="http://www.w3.org/2000/svg" viewBox="0 0 700.000 1000" width="700.000" height="1000">
  <path d="M 572.208 84.946 L 573.310 84.878 L 574.411 84.783 L 575.508 84.662 L 576.603 84.513 L 577.693 84.337 L 578.779 84.135 L 579.860 83.907 L 580.934 83.651 L 582.002 83.370 L 583.063 83.062 L 584.116 82.729 L 585.160 82.369 L 586.195 81.985 L 587.221 81.575 L 588.236 81.139 L 589.240 80.680 L 590.233 80.195 L 591.213 79.686 L 592.180 79.154 L 593.135 78.598 L 594.075 78.018 L 595.001 77.416 L 595.911 76.791 L 596.806 76.144 L 597.685 75.476 L 598.548 74.785 L 599.393 74.074 L 600.220 73.343 L 601.029 72.591 L 601.820 71.820 L 602.591 71.029 L 603.343 70.220 L 604.074 69.393 L 604.785 68.548 L 605.476 67.685 L 606.144 66.806 L 606.791 65.911 L 607.416 65.001 L 608.018 64.075 L 608.598 63.135 L 609.154 62.180 L 609.686 61.213 L 610.195 60.233 L 610.680 59.240 L 611.139 58.236 L 611.575 57.221 L 611.985 56.195 L 612.369 55.160 L 612.729 54.116 L 613.062 53.063 L 613.370 52.002 L 613.651 50.934 L 613.907 49.860 L 614.135 48.779 L 614.337 47.693 L 614.513 46.603 L 614.662 45.508 L 614.783 44.411 L 614.878 43.310 L 614.946 42.208 L 614.986 41.104 L 615.000 40.000 L 614.986 38.896 L 614.946 37.792 L 614.878 36.690 L 614.783 35.589 L 614.662 34.492 L 614.513 33.397 L 614.337 32.307 L 614.135 31.221 L 613.907 30.140 L 613.651 29.066 L 613.370 27.998 L 613.062 26.937 L 612.729 25.884 L 612.369 24.840 L 611.985 23.805 L 611.575 22.779 L 611.139 21.764 L 610.680 20.760 L 610.195 19.767 L 609.686 18.787 L 609.154 17.820 L 608.598 16.865 L 608.018 15.925 L 607.416 14.999 L 606.791 14.089 L 606.144 13.194 L 605.476 12.315 L 604.785 11.452 L 604.074 10.607 L 603.343 9.780 L 602.591 8.971 L 601.820 8.180 L 601.029 7.409 L 600.220 6.657 L 599.393 5.926 L 598.548 5.215 L 597.685 4.524 L 596.806 3.856 L 595.911 3.209 L 595.001 2.584 L 594.075 1.982 L 593.135 1.402 L 592.180 0.846 L 591.213 0.314 L 590.233 -0.195 L 589.240 -0.680 L 588.236 -1.139 L 587.221 -1.575 L 586.195 -1.985 L 585.160 -2.369 L 584.116 -2.729 L 583.063 -3.062 L 582.002 -3.370 L 580.934 -3.651 L 579.860 -3.907 L 578.779 -4.135 L 577.693 -4.337 L 576.603 -4.513 L 575.508 -4.662 L 574.411 -4.783 L 573.310 -4.878 L 572.208 -4.946 L 571.104 -4.986 L 570.000 -5.000 L 130.000 -5.000 L 128.896 -4.986 L 127.792 -4.946 L 126.690 -4.878 L 125.589 -4.783 L 125.390 -4.761 L 124.492 -4.662 L 123.740 -4.560 L 123.397 -4.513 L 122.307 -4.337 L 121.221 -4.135 L 120.598 -4.003 L 120.140 -3.907 L 119.066 -3.651 L 117.998 -3.370 L 117.383 -3.192 L 116.937 -3.062 L 115.884 -2.729 L 114.840 -2.369 L 113.805 -1.985 L 112.779 -1.575 L 112.054 -1.264 L 111.764 -1.139 L 110.760 -0.680 L 110.246 -0.429 L 109.767 -0.195 L 108.787 0.314 L 107.820 0.846 L 106.865 1.402 L 106.688 1.511 L 105.925 1.982 L 104.999 2.584 L 104.089 3.209 L 103.723 3.473 L 103.194 3.856 L 102.315 4.524 L 101.851 4.896 L 101.452 5.215 L 100.607 5.926 L 99.780 6.657 L 98.971 7.409 L 98.341 8.023 L 98.180 8.180 L 97.813 8.557 L 97.409 8.971 L 96.657 9.780 L 96.146 10.357 L 95.926 10.607 L 95.215 11.452 L 94.524 12.315 L 94.143 12.816 L 93.856 13.194 L 93.392 13.835 L 93.209 14.089 L 92.584 14.999 L 91.982 15.925 L 91.402 16.865 L 91.159 17.282 L 90.846 17.820 L 90.533 18.388 L 90.314 18.787 L 89.805 19.767 L 89.514 20.363 L 89.320 20.760 L 89.137 21.162 L 88.861 21.764 L 88.721 22.090 L 88.425 22.779 L 88.015 23.805 L 87.631 24.840 L 87.463 25.328 L 87.271 25.884 L 87.185 26.156 L 86.938 26.937 L 86.702 27.749 L 86.630 27.998 L 86.349 29.066 L 86.093 30.140 L 85.865 31.221 L 85.743 31.872 L 85.663 32.307 L 85.604 32.670 L 85.487 33.397 L 85.338 34.492 L 85.326 34.607 L 85.217 35.589 L 85.136 36.522 L 85.122 36.690 L 85.054 37.792 L 85.014 38.896 L 85.000 40.000 L 85.000 40.000 L 85.000 410.000 L 85.014 411.104 L 85.054 412.208 L 85.122 413.310 L 85.217 414.411 L 85.338 415.508 L 85.487 416.603 L 85.663 417.693 L 85.865 418.779 L 86.093 419.860 L 86.349 420.934 L 86.630 422.002 L 86.938 423.063 L 87.271 424.116 L 87.631 425.160 L 88.015 426.195 L 88.425 427.221 L 88.861 428.236 L 89.320 429.240 L 89.805 430.233 L 90.314 431.213 L 90.846 432.180 L 91.402 433.135 L 91.982 434.075 L 92.584 435.001 L 93.209 435.911 L 93.856 436.806 L 94.524 437.685 L 95.215 438.548 L 95.926 439.393 L 96.657 440.220 L 97.409 441.029 L 98.180 441.820 L 98.971 442.591 L 99.780 443.343 L 100.607 444.074 L 101.452 444.785 L 102.315 445.476 L 103.194 446.144 L 104.089 446.791 L 104.999 447.416 L 105.925 448.018 L 106.865 448.598 L 107.820 449.154 L 108.787 449.686 L 109.767 450.195 L 110.760 450.680 L 111.764 451.139 L 112.779 451.575 L 113.805 451.985 L 114.840 452.369 L 115.884 452.729 L 116.937 453.062 L 117.998 453.370 L 119.066 453.651 L 120.140 453.907 L 121.221 454.135 L 122.307 454.337 L 123.397 454.513 L 124.492 454.662 L 125.589 454.783 L 126.690 454.878 L 127.792 454.946 L 128.896 454.986 L 130.000 455.000 L 145.077 455.000 L 145.004 455.080 L 143.301 456.985 L 142.895 457.444 L 141.222 459.368 L 140.820 459.835 L 139.177 461.777 L 138.781 462.252 L 137.168 464.212 L 136.776 464.694 L 135.194 466.671 L 134.808 467.162 L 133.257 469.156 L 132.875 469.654 L 131.355 471.666 L 130.979 472.171 L 129.491 474.199 L 129.120 474.712 L 127.664 476.756 L 127.299 477.276 L 125.875 479.337 L 125.516 479.864 L 124.124 481.940 L 123.771 482.475 L 122.412 484.566 L 122.065 485.108 L 120.738 487.214 L 120.398 487.763 L 119.105 489.884 L 118.771 490.440 L 117.510 492.575 L 117.183 493.138 L 115.957 495.287 L 115.636 495.857 L 114.443 498.019 L 114.130 498.596 L 112.971 500.770 L 112.666 501.354 L 111.541 503.542 L 111.242 504.132 L 110.152 506.332 L 109.861 506.929 L 108.805 509.140 L 108.522 509.743 L 107.500 511.966 L 107.226 512.576 L 106.239 514.810 L 105.805 515.826 L 105.396 516.852 L 105.013 517.887 L 104.655 518.932 L 104.323 519.985 L 104.017 521.047 L 103.737 522.115 L 103.483 523.190 L 103.255 524.271 L 103.055 525.357 L 102.881 526.447 L 102.734 527.542 L 102.613 528.640 L 102.520 529.740 L 102.454 530.843 L 102.414 531.946 L 102.402 533.051 L 102.417 534.155 L 102.459 535.259 L 102.529 536.361 L 102.625 537.461 L 102.748 538.559 L 102.898 539.653 L 103.075 540.743 L 103.278 541.829 L 103.509 542.909 L 103.765 543.983 L 104.048 545.051 L 104.357 546.111 L 104.692 547.163 L 105.053 548.207 L 105.439 549.242 L 105.850 550.267 L 106.287 551.282 L 106.748 552.285 L 107.234 553.277 L 107.744 554.257 L 108.277 555.223 L 108.835 556.177 L 109.415 557.116 L 110.019 558.041 L 110.645 558.951 L 111.293 559.846 L 111.963 560.724 L 112.654 561.585 L 113.366 562.429 L 114.099 563.256 L 114.852 564.064 L 115.624 564.853 L 116.416 565.624 L 117.226 566.374 L 118.054 567.105 L 118.900 567.815 L 119.763 568.504 L 120.643 569.171 L 121.539 569.817 L 122.451 570.441 L 123.377 571.042 L 124.318 571.620 L 125.273 572.175 L 126.241 572.706 L 127.222 573.213 L 128.216 573.696 L 129.220 574.155 L 130.236 574.589 L 131.262 574.998 L 132.298 575.381 L 133.343 575.739 L 134.396 576.071 L 135.457 576.377 L 136.525 576.657 L 137.600 576.911 L 138.681 577.139 L 139.767 577.339 L 140.858 577.513 L 141.952 577.661 L 143.050 577.781 L 144.151 577.874 L 145.253 577.940 L 146.357 577.980 L 147.461 577.992 L 148.566 577.977 L 149.669 577.935 L 150.772 577.865 L 151.872 577.769 L 152.969 577.646 L 154.063 577.496 L 155.154 577.319 L 156.239 577.116 L 157.319 576.885 L 158.394 576.629 L 159.461 576.346 L 160.522 576.037 L 161.574 575.702 L 162.618 575.341 L 163.653 574.955 L 164.678 574.544 L 165.692 574.107 L 166.696 573.646 L 167.687 573.160 L 168.667 572.650 L 169.634 572.117 L 170.587 571.559 L 171.527 570.979 L 172.452 570.375 L 173.362 569.749 L 174.256 569.101 L 175.134 568.431 L 175.996 567.740 L 176.840 567.028 L 177.666 566.295 L 178.474 565.542 L 179.264 564.770 L 180.034 563.978 L 180.785 563.168 L 181.515 562.340 L 182.225 561.494 L 182.914 560.631 L 183.582 559.751 L 184.228 558.855 L 184.851 557.943 L 185.452 557.017 L 186.030 556.076 L 186.585 555.121 L 187.117 554.153 L 187.624 553.172 L 188.107 552.178 L 188.566 551.174 L 189.417 549.245 L 190.160 547.629 L 190.930 546.018 L 191.726 544.412 L 192.549 542.812 L 193.399 541.218 L 194.275 539.630 L 195.178 538.049 L 196.108 536.474 L 197.064 534.906 L 198.047 533.346 L 199.056 531.793 L 200.092 530.249 L 201.154 528.712 L 202.242 527.184 L 203.357 525.665 L 204.497 524.155 L 205.664 522.654 L 206.857 521.164 L 208.075 519.683 L 209.320 518.213 L 210.590 516.753 L 211.885 515.305 L 213.206 513.867 L 214.552 512.442 L 215.923 511.029 L 217.319 509.627 L 218.740 508.239 L 220.185 506.864 L 221.655 505.501 L 223.149 504.153 L 224.667 502.819 L 226.208 501.498 L 227.773 500.193 L 229.362 498.902 L 230.973 497.627 L 232.607 496.367 L 234.264 495.123 L 235.944 493.895 L 237.645 492.684 L 239.368 491.490 L 241.112 490.313 L 242.878 489.153 L 244.665 488.011 L 246.472 486.887 L 248.300 485.781 L 250.148 484.694 L 252.015 483.626 L 253.902 482.577 L 255.807 481.547 L 257.732 480.538 L 259.675 479.548 L 261.635 478.578 L 263.614 477.629 L 265.609 476.700 L 267.621 475.793 L 269.650 474.907 L 271.695 474.042 L 273.756 473.199 L 275.832 472.378 L 277.923 471.579 L 280.029 470.803 L 282.148 470.049 L 284.281 469.317 L 286.428 468.609 L 288.588 467.924 L 290.759 467.262 L 292.943 466.624 L 295.139 466.010 L 297.346 465.419 L 299.563 464.852 L 301.791 464.310 L 304.028 463.792 L 306.275 463.298 L 308.531 462.829 L 310.795 462.385 L 313.067 461.965 L 315.347 461.570 L 317.634 461.201 L 319.927 460.856 L 322.227 460.537 L 324.532 460.243 L 326.842 459.975 L 329.158 459.732 L 331.477 459.515 L 333.800 459.323 L 336.127 459.157 L 338.457 459.016 L 340.788 458.902 L 343.122 458.813 L 345.457 458.750 L 347.793 458.712 L 350.130 458.701 L 352.466 458.715 L 354.802 458.755 L 357.137 458.821 L 359.471 458.913 L 361.802 459.031 L 364.132 459.174 L 366.458 459.343 L 368.781 459.537 L 371.100 459.758 L 373.415 460.003 L 375.724 460.275 L 378.029 460.571 L 380.328 460.893 L 382.621 461.241 L 384.907 461.613 L 387.186 462.010 L 389.457 462.433 L 391.720 462.880 L 393.975 463.352 L 396.221 463.848 L 398.457 464.369 L 400.684 464.914 L 402.900 465.484 L 405.106 466.077 L 407.300 466.694 L 409.482 467.335 L 411.653 467.999 L 413.811 468.687 L 415.956 469.398 L 418.088 470.131 L 420.206 470.888 L 422.310 471.667 L 424.399 472.468 L 426.474 473.292 L 428.533 474.137 L 430.576 475.004 L 432.603 475.893 L 434.614 476.803 L 436.607 477.733 L 438.583 478.685 L 440.542 479.657 L 442.483 480.649 L 444.405 481.661 L 446.309 482.693 L 448.193 483.744 L 450.059 484.814 L 451.904 485.903 L 453.729 487.011 L 455.535 488.137 L 457.319 489.281 L 459.082 490.443 L 460.825 491.622 L 462.545 492.818 L 464.244 494.031 L 465.921 495.261 L 467.575 496.506 L 469.207 497.768 L 470.816 499.045 L 472.402 500.337 L 473.964 501.644 L 475.503 502.966 L 477.018 504.302 L 478.509 505.652 L 479.976 507.016 L 481.419 508.393 L 482.837 509.782 L 484.230 511.185 L 485.599 512.600 L 486.942 514.027 L 488.260 515.465 L 489.553 516.915 L 490.820 518.376 L 492.061 519.847 L 493.277 521.329 L 494.467 522.821 L 495.631 524.322 L 496.769 525.833 L 497.880 527.353 L 498.966 528.882 L 500.025 530.420 L 501.058 531.965 L 502.064 533.519 L 503.044 535.080 L 503.997 536.648 L 504.924 538.224 L 505.824 539.806 L 506.697 541.395 L 507.544 542.990 L 508.364 544.590 L 509.157 546.197 L 509.924 547.808 L 510.664 549.425 L 511.377 551.047 L 512.063 552.674 L 512.723 554.305 L 513.356 555.940 L 513.962 557.579 L 514.542 559.222 L 515.095 560.868 L 515.622 562.518 L 516.121 564.171 L 516.595 565.826 L 517.041 567.485 L 517.462 569.146 L 517.855 570.809 L 518.222 572.475 L 518.563 574.143 L 518.877 575.812 L 519.165 577.483 L 519.427 579.156 L 519.662 580.830 L 519.871 582.505 L 520.053 584.181 L 520.209 585.859 L 520.339 587.537 L 520.443 589.215 L 520.520 590.894 L 520.571 592.574 L 520.596 594.253 L 520.595 595.933 L 520.567 597.613 L 520.513 599.292 L 520.433 600.971 L 520.326 602.650 L 520.193 604.328 L 520.034 606.005 L 519.849 607.681 L 519.637 609.356 L 519.399 611.030 L 519.135 612.703 L 518.844 614.374 L 518.527 616.043 L 518.183 617.710 L 517.813 619.376 L 517.416 621.039 L 516.993 622.700 L 516.543 624.358 L 516.067 626.013 L 515.564 627.666 L 515.035 629.315 L 514.479 630.961 L 513.896 632.603 L 513.287 634.242 L 512.651 635.877 L 511.988 637.507 L 511.168 639.442 L 510.749 640.464 L 510.356 641.496 L 509.988 642.537 L 509.646 643.587 L 509.329 644.646 L 509.039 645.711 L 508.775 646.784 L 508.537 647.862 L 508.326 648.946 L 508.141 650.035 L 507.984 651.128 L 507.853 652.225 L 507.749 653.324 L 507.672 654.426 L 507.622 655.529 L 507.599 656.634 L 507.604 657.738 L 507.635 658.842 L 507.694 659.945 L 507.779 661.046 L 507.892 662.145 L 508.031 663.240 L 508.198 664.332 L 508.391 665.420 L 508.611 666.502 L 508.857 667.579 L 509.129 668.649 L 509.428 669.712 L 509.753 670.768 L 510.104 671.815 L 510.480 672.854 L 510.881 673.882 L 511.308 674.901 L 511.759 675.909 L 512.236 676.905 L 512.736 677.890 L 513.261 678.862 L 513.809 679.821 L 514.380 680.766 L 514.975 681.697 L 515.592 682.612 L 516.232 683.513 L 516.893 684.397 L 517.576 685.265 L 518.280 686.116 L 519.005 686.950 L 519.749 687.765 L 520.514 688.562 L 521.298 689.340 L 522.101 690.098 L 522.922 690.837 L 523.761 691.555 L 524.618 692.252 L 525.491 692.928 L 526.381 693.583 L 527.286 694.215 L 528.207 694.825 L 529.143 695.412 L 530.092 695.976 L 531.055 696.517 L 532.031 697.034 L 533.020 697.526 L 534.020 697.994 L 535.032 698.438 L 536.054 698.857 L 537.086 699.250 L 538.127 699.618 L 539.177 699.960 L 540.235 700.277 L 541.301 700.567 L 542.373 700.831 L 543.452 701.069 L 544.536 701.280 L 545.625 701.465 L 546.718 701.622 L 547.814 701.753 L 548.914 701.857 L 550.016 701.934 L 551.119 701.984 L 552.223 702.007 L 553.328 702.002 L 554.432 701.971 L 555.534 701.912 L 556.636 701.827 L 557.734 701.714 L 558.830 701.575 L 559.922 701.408 L 561.009 701.215 L 562.091 700.995 L 563.168 700.749 L 564.238 700.477 L 565.302 700.178 L 566.357 699.853 L 567.405 699.502 L 568.443 699.126 L 569.472 698.725 L 570.491 698.298 L 571.498 697.847 L 572.495 697.370 L 573.480 696.870 L 574.451 696.345 L 575.410 695.797 L 576.355 695.226 L 577.286 694.631 L 578.202 694.014 L 579.102 693.374 L 579.987 692.713 L 580.855 692.030 L 581.706 691.326 L 582.539 690.601 L 583.355 689.857 L 584.152 689.092 L 584.929 688.308 L 585.688 687.505 L 586.426 686.684 L 587.144 685.844 L 587.842 684.988 L 588.518 684.115 L 589.172 683.225 L 589.804 682.319 L 590.414 681.399 L 591.002 680.463 L 591.566 679.514 L 592.106 678.551 L 592.623 677.575 L 593.116 676.586 L 593.584 675.586 L 594.028 674.574 L 594.979 672.330 L 595.237 671.708 L 596.154 669.453 L 596.404 668.826 L 597.285 666.561 L 597.526 665.928 L 598.371 663.653 L 598.603 663.014 L 599.414 660.731 L 599.637 660.087 L 600.411 657.794 L 600.625 657.146 L 601.363 654.845 L 601.568 654.191 L 602.270 651.882 L 602.465 651.224 L 603.131 648.907 L 603.316 648.244 L 603.947 645.921 L 604.122 645.253 L 604.716 642.923 L 604.881 642.251 L 605.438 639.915 L 605.594 639.240 L 606.115 636.897 L 606.260 636.218 L 606.744 633.870 L 606.879 633.187 L 607.326 630.834 L 607.451 630.149 L 607.862 627.791 L 607.976 627.102 L 608.349 624.740 L 608.453 624.049 L 608.790 621.683 L 608.883 620.989 L 609.182 618.619 L 609.265 617.924 L 609.527 615.551 L 609.599 614.853 L 609.824 612.477 L 609.885 611.778 L 610.073 609.400 L 610.123 608.700 L 610.274 606.320 L 610.313 605.618 L 610.427 603.237 L 610.455 602.535 L 610.532 600.152 L 610.549 599.449 L 610.588 597.066 L 610.594 596.363 L 610.596 593.980 L 610.591 593.277 L 610.556 590.894 L 610.540 590.190 L 610.468 587.808 L 610.441 587.106 L 610.331 584.724 L 610.294 584.022 L 610.147 581.642 L 610.098 580.942 L 609.914 578.564 L 609.854 577.864 L 609.633 575.488 L 609.563 574.791 L 609.304 572.417 L 609.223 571.722 L 608.928 569.351 L 608.836 568.658 L 608.503 566.291 L 608.401 565.600 L 608.031 563.237 L 607.918 562.548 L 607.512 560.189 L 607.388 559.504 L 606.945 557.150 L 606.811 556.467 L 606.331 554.118 L 606.187 553.439 L 605.670 551.096 L 605.516 550.420 L 604.963 548.083 L 604.798 547.411 L 604.209 545.080 L 604.034 544.412 L 603.408 542.088 L 603.224 541.424 L 602.562 539.107 L 602.368 538.448 L 601.669 536.138 L 601.466 535.484 L 600.732 533.182 L 600.519 532.533 L 599.749 530.239 L 599.527 529.595 L 598.720 527.310 L 598.489 526.671 L 597.648 524.395 L 597.408 523.762 L 596.530 521.496 L 596.282 520.868 L 595.369 518.611 L 595.112 517.989 L 594.164 515.743 L 593.899 515.127 L 592.916 512.892 L 592.642 512.281 L 591.624 510.057 L 591.342 509.453 L 590.290 507.240 L 590.000 506.643 L 588.913 504.442 L 588.616 503.851 L 587.495 501.662 L 587.190 501.077 L 586.034 498.901 L 585.722 498.323 L 584.533 496.160 L 584.214 495.589 L 582.991 493.439 L 582.664 492.875 L 581.408 490.739 L 581.075 490.182 L 579.785 488.060 L 579.445 487.510 L 578.122 485.402 L 577.776 484.859 L 576.421 482.766 L 576.068 482.231 L 574.680 480.153 L 574.321 479.625 L 572.901 477.563 L 572.536 477.042 L 571.084 474.996 L 570.714 474.482 L 569.229 472.452 L 568.854 471.946 L 567.337 469.932 L 566.956 469.434 L 565.409 467.437 L 565.023 466.946 L 563.444 464.967 L 563.053 464.484 L 561.444 462.522 L 561.048 462.046 L 559.408 460.102 L 559.007 459.634 L 557.337 457.709 L 556.932 457.248 L 555.232 455.341 L 554.822 454.888 L 553.093 453.000 L 552.679 452.555 L 550.920 450.687 L 550.502 450.249 L 550.377 450.120 L 551.213 449.686 L 552.180 449.154 L 553.135 448.598 L 554.075 448.018 L 555.001 447.416 L 555.911 446.791 L 556.806 446.144 L 557.685 445.476 L 558.548 444.785 L 559.393 444.074 L 560.220 443.343 L 561.029 442.591 L 561.820 441.820 L 562.591 441.029 L 563.343 440.220 L 564.074 439.393 L 564.785 438.548 L 565.476 437.685 L 566.144 436.806 L 566.791 435.911 L 567.416 435.001 L 568.018 434.075 L 568.598 433.135 L 569.154 432.180 L 569.686 431.213 L 570.195 430.233 L 570.680 429.240 L 571.139 428.236 L 571.575 427.221 L 571.985 426.195 L 572.369 425.160 L 572.729 424.116 L 573.062 423.063 L 573.370 422.002 L 573.651 420.934 L 573.907 419.860 L 574.135 418.779 L 574.337 417.693 L 574.513 416.603 L 574.662 415.508 L 574.783 414.411 L 574.878 413.310 L 574.946 412.208 L 574.986 411.104 L 575.000 410.000 L 574.986 408.896 L 574.946 407.792 L 574.878 406.690 L 574.783 405.589 L 574.662 404.492 L 574.513 403.397 L 574.337 402.307 L 574.135 401.221 L 573.907 400.140 L 573.651 399.066 L 573.370 397.998 L 573.062 396.937 L 572.729 395.884 L 572.369 394.840 L 571.985 393.805 L 571.575 392.779 L 571.139 391.764 L 570.680 390.760 L 570.195 389.767 L 569.686 388.787 L 569.154 387.820 L 568.598 386.865 L 568.018 385.925 L 567.416 384.999 L 566.791 384.089 L 566.144 383.194 L 565.476 382.315 L 564.785 381.452 L 564.074 380.607 L 563.343 379.780 L 562.591 378.971 L 561.820 378.180 L 561.029 377.409 L 560.220 376.657 L 559.393 375.926 L 558.548 375.215 L 557.685 374.524 L 556.806 373.856 L 555.911 373.209 L 555.001 372.584 L 554.075 371.982 L 553.135 371.402 L 552.180 370.846 L 551.213 370.314 L 550.233 369.805 L 549.240 369.320 L 548.236 368.861 L 547.221 368.425 L 546.195 368.015 L 545.160 367.631 L 544.116 367.271 L 543.063 366.938 L 542.002 366.630 L 540.934 366.349 L 539.860 366.093 L 538.779 365.865 L 537.693 365.663 L 536.603 365.487 L 535.508 365.338 L 534.411 365.217 L 533.310 365.122 L 532.208 365.054 L 531.104 365.014 L 530.000 365.000 L 175.000 365.000 L 175.000 85.000 L 570.000 85.000 L 571.104 84.986 L 572.208 84.946 Z M 573.310 824.878 L 574.411 824.783 L 575.508 824.662 L 576.603 824.513 L 577.693 824.337 L 578.779 824.135 L 579.860 823.907 L 580.934 823.651 L 582.002 823.370 L 583.063 823.062 L 584.116 822.729 L 585.160 822.369 L 586.195 821.985 L 587.221 821.575 L 588.236 821.139 L 589.240 820.680 L 590.233 820.195 L 591.213 819.686 L 592.180 819.154 L 593.135 818.598 L 594.075 818.018 L 595.001 817.416 L 595.911 816.791 L 596.806 816.144 L 597.685 815.476 L 598.548 814.785 L 599.393 814.074 L 600.220 813.343 L 601.029 812.591 L 601.820 811.820 L 602.591 811.029 L 603.343 810.220 L 604.074 809.393 L 604.785 808.548 L 605.476 807.685 L 606.144 806.806 L 606.791 805.911 L 607.416 805.001 L 608.018 804.075 L 608.598 803.135 L 609.154 802.180 L 609.686 801.213 L 610.195 800.233 L 610.680 799.240 L 611.139 798.236 L 611.575 797.221 L 611.985 796.195 L 612.369 795.160 L 612.729 794.116 L 613.062 793.063 L 613.370 792.002 L 613.651 790.934 L 613.907 789.860 L 614.135 788.779 L 614.337 787.693 L 614.513 786.603 L 614.662 785.508 L 614.783 784.411 L 614.878 783.310 L 614.946 782.208 L 614.986 781.104 L 615.000 780.000 L 614.986 778.896 L 614.946 777.792 L 614.878 776.690 L 614.783 775.589 L 614.662 774.492 L 614.513 773.397 L 614.337 772.307 L 614.135 771.221 L 613.907 770.140 L 613.651 769.066 L 613.370 767.998 L 613.062 766.937 L 612.729 765.884 L 612.369 764.840 L 611.985 763.805 L 611.575 762.779 L 611.139 761.764 L 610.680 760.760 L 610.195 759.767 L 609.686 758.787 L 609.154 757.820 L 608.598 756.865 L 608.018 755.925 L 607.416 754.999 L 606.791 754.089 L 606.144 753.194 L 605.476 752.315 L 604.785 751.452 L 604.074 750.607 L 603.343 749.780 L 602.591 748.971 L 601.820 748.180 L 601.029 747.409 L 600.220 746.657 L 599.393 745.926 L 598.548 745.215 L 597.685 744.524 L 596.806 743.856 L 595.911 743.209 L 595.001 742.584 L 594.075 741.982 L 593.135 741.402 L 592.180 740.846 L 591.213 740.314 L 590.233 739.805 L 589.240 739.320 L 588.236 738.861 L 587.221 738.425 L 586.195 738.015 L 585.160 737.631 L 584.116 737.271 L 583.063 736.938 L 582.002 736.630 L 580.934 736.349 L 579.860 736.093 L 578.779 735.865 L 577.693 735.663 L 576.603 735.487 L 575.508 735.338 L 574.411 735.217 L 573.310 735.122 L 572.208 735.054 L 571.104 735.014 L 570.000 735.000 L 130.000 735.000 L 128.896 735.014 L 127.792 735.054 L 126.690 735.122 L 125.589 735.217 L 124.492 735.338 L 123.397 735.487 L 122.307 735.663 L 121.221 735.865 L 120.140 736.093 L 119.066 736.349 L 117.998 736.630 L 116.937 736.938 L 115.884 737.271 L 114.840 737.631 L 113.805 738.015 L 112.779 738.425 L 111.764 738.861 L 110.760 739.320 L 109.767 739.805 L 108.787 740.314 L 107.820 740.846 L 106.865 741.402 L 105.925 741.982 L 104.999 742.584 L 104.089 743.209 L 103.194 743.856 L 102.315 744.524 L 101.452 745.215 L 100.607 745.926 L 99.780 746.657 L 98.971 747.409 L 98.180 748.180 L 97.409 748.971 L 96.657 749.780 L 95.926 750.607 L 95.215 751.452 L 94.524 752.315 L 93.856 753.194 L 93.209 754.089 L 92.584 754.999 L 91.982 755.925 L 91.402 756.865 L 90.846 757.820 L 90.314 758.787 L 89.805 759.767 L 89.320 760.760 L 88.861 761.764 L 88.425 762.779 L 88.015 763.805 L 87.631 764.840 L 87.271 765.884 L 86.938 766.937 L 86.630 767.998 L 86.349 769.066 L 86.093 770.140 L 85.865 771.221 L 85.663 772.307 L 85.487 773.397 L 85.338 774.492 L 85.217 775.589 L 85.122 776.690 L 85.054 777.792 L 85.014 778.896 L 85.000 780.000 L 85.014 781.104 L 85.054 782.208 L 85.122 783.310 L 85.217 784.411 L 85.338 785.508 L 85.487 786.603 L 85.663 787.693 L 85.865 788.779 L 86.093 789.860 L 86.349 790.934 L 86.630 792.002 L 86.938 793.063 L 87.271 794.116 L 87.631 795.160 L 88.015 796.195 L 88.425 797.221 L 88.861 798.236 L 89.320 799.240 L 89.805 800.233 L 90.314 801.213 L 90.846 802.180 L 91.402 803.135 L 91.982 804.075 L 92.584 805.001 L 93.209 805.911 L 93.856 806.806 L 94.524 807.685 L 95.215 808.548 L 95.926 809.393 L 96.657 810.220 L 97.409 811.029 L 98.180 811.820 L 98.971 812.591 L 99.780 813.343 L 100.607 814.074 L 101.452 814.785 L 102.315 815.476 L 103.194 816.144 L 104.089 816.791 L 104.999 817.416 L 105.925 818.018 L 106.865 818.598 L 107.820 819.154 L 108.787 819.686 L 109.767 820.195 L 110.760 820.680 L 111.764 821.139 L 112.779 821.575 L 113.805 821.985 L 114.840 822.369 L 115.884 822.729 L 116.937 823.062 L 117.998 823.370 L 119.066 823.651 L 120.140 823.907 L 121.221 824.135 L 122.307 824.337 L 123.397 824.513 L 124.492 824.662 L 125.589 824.783 L 126.690 824.878 L 127.792 824.946 L 128.896 824.986 L 130.000 825.000 L 570.000 825.000 L 571.104 824.986 L 572.208 824.946 L 573.310 824.878 Z" fill="black" fill-rule="evenodd"/>
</svg>
