<svg xmlns="http://www.w3.org/2000/svg" viewBox="0 0 700.000 1000" width="700.000" height="1000">
  <path d="M 609.686 61.213 L 609.892 60.816 L 610.100 60.420 L 610.147 60.326 L 610.195 60.233 L 610.391 59.831 L 610.589 59.430 L 610.633 59.335 L 610.680 59.240 L 610.866 58.834 L 611.054 58.428 L 611.096 58.332 L 611.139 58.236 L 611.316 57.825 L 611.494 57.415 L 611.533 57.317 L 611.575 57.221 L 611.741 56.806 L 611.908 56.391 L 611.946 56.293 L 611.985 56.195 L 612.140 55.776 L 612.298 55.358 L 612.333 55.259 L 612.369 55.160 L 612.515 54.737 L 612.662 54.315 L 612.695 54.215 L 612.729 54.116 L 612.864 53.690 L 613.001 53.264 L 613.031 53.163 L 613.062 53.063 L 613.187 52.634 L 613.313 52.205 L 613.341 52.103 L 613.370 52.002 L 613.484 51.570 L 613.600 51.138 L 613.625 51.036 L 613.651 50.934 L 613.755 50.499 L 613.860 50.065 L 613.882 49.962 L 613.907 49.860 L 613.999 49.422 L 614.094 48.985 L 614.114 48.882 L 614.135 48.779 L 614.217 48.340 L 614.301 47.901 L 614.318 47.797 L 614.337 47.693 L 614.408 47.252 L 614.482 46.811 L 614.496 46.707 L 614.513 46.603 L 614.573 46.160 L 614.635 45.717 L 614.647 45.613 L 614.662 45.508 L 614.711 45.064 L 614.762 44.620 L 614.772 44.515 L 614.783 44.411 L 614.822 43.965 L 614.862 43.520 L 614.869 43.415 L 614.878 43.310 L 614.905 42.864 L 614.935 42.418 L 614.939 42.313 L 614.946 42.208 L 614.962 41.761 L 614.981 41.315 L 614.983 41.210 L 614.986 41.104 L 614.992 40.657 L 615.000 40.211 L 614.999 40.105 L 615.000 40.000 L 614.995 39.553 L 614.991 39.106 L 614.988 39.001 L 614.986 38.896 L 614.970 38.449 L 614.956 38.002 L 614.950 37.897 L 614.946 37.792 L 614.918 37.346 L 614.893 36.900 L 614.885 36.795 L 614.878 36.690 L 614.840 36.244 L 614.803 35.799 L 614.792 35.694 L 614.783 35.589 L 614.734 35.145 L 614.687 34.700 L 614.673 34.596 L 614.662 34.492 L 614.601 34.049 L 614.543 33.605 L 614.527 33.501 L 614.513 33.397 L 614.442 32.956 L 614.373 32.514 L 614.354 32.411 L 614.337 32.307 L 614.256 31.867 L 614.176 31.427 L 614.155 31.324 L 614.135 31.221 L 614.043 30.784 L 613.952 30.346 L 613.928 30.243 L 613.907 30.140 L 613.803 29.706 L 613.702 29.270 L 613.676 29.168 L 613.651 29.066 L 613.537 28.634 L 613.426 28.201 L 613.397 28.100 L 613.370 27.998 L 613.245 27.569 L 613.123 27.139 L 613.092 27.038 L 613.062 26.937 L 612.927 26.511 L 612.794 26.084 L 612.761 25.985 L 612.729 25.884 L 612.583 25.462 L 612.440 25.038 L 612.404 24.939 L 612.369 24.840 L 612.214 24.421 L 612.060 24.001 L 612.021 23.903 L 611.985 23.805 L 611.819 23.390 L 611.655 22.974 L 611.614 22.877 L 611.575 22.779 L 611.398 22.368 L 611.224 21.957 L 611.181 21.861 L 611.139 21.764 L 610.953 21.358 L 610.769 20.951 L 610.723 20.856 L 610.680 20.760 L 610.483 20.358 L 610.289 19.956 L 610.241 19.862 L 610.195 19.767 L 609.989 19.371 L 609.785 18.973 L 609.735 18.881 L 609.686 18.787 L 609.471 18.396 L 609.257 18.003 L 609.205 17.912 L 609.154 17.820 L 608.929 17.433 L 608.706 17.046 L 608.651 16.956 L 608.598 16.865 L 608.363 16.485 L 608.131 16.103 L 608.074 16.015 L 608.018 15.925 L 607.775 15.550 L 607.533 15.175 L 607.474 15.088 L 607.416 14.999 L 607.163 14.631 L 606.912 14.261 L 606.851 14.175 L 606.791 14.089 L 606.529 13.726 L 606.269 13.363 L 606.206 13.279 L 606.144 13.194 L 605.874 12.838 L 605.605 12.481 L 605.539 12.398 L 605.476 12.315 L 605.196 11.966 L 604.919 11.615 L 604.851 11.534 L 604.785 11.452 L 604.498 11.110 L 604.212 10.767 L 604.142 10.688 L 604.074 10.607 L 603.778 10.272 L 603.484 9.936 L 603.413 9.859 L 603.343 9.780 L 603.039 9.452 L 602.736 9.123 L 602.663 9.048 L 602.591 8.971 L 602.279 8.651 L 601.968 8.329 L 601.893 8.256 L 601.820 8.180 L 601.500 7.868 L 601.181 7.554 L 601.105 7.482 L 601.029 7.409 L 600.702 7.105 L 600.376 6.799 L 600.297 6.729 L 600.220 6.657 L 599.885 6.361 L 599.552 6.063 L 599.472 5.995 L 599.393 5.926 L 599.051 5.638 L 598.710 5.348 L 598.628 5.282 L 598.548 5.215 L 598.199 4.935 L 597.851 4.654 L 597.768 4.590 L 597.685 4.524 L 597.330 4.254 L 596.975 3.981 L 596.890 3.919 L 596.806 3.856 L 596.444 3.594 L 596.083 3.330 L 595.997 3.270 L 595.911 3.209 L 595.543 2.956 L 595.175 2.701 L 595.087 2.643 L 595.001 2.584 L 594.626 2.340 L 594.252 2.095 L 594.163 2.039 L 594.075 1.982 L 593.694 1.747 L 593.315 1.511 L 593.224 1.457 L 593.135 1.402 L 592.748 1.177 L 592.363 0.950 L 592.271 0.899 L 592.180 0.846 L 591.789 0.631 L 591.398 0.413 L 591.305 0.364 L 591.213 0.314 L 590.816 0.108 L 590.420 -0.100 L 590.326 -0.147 L 590.233 -0.195 L 589.831 -0.391 L 589.430 -0.589 L 589.335 -0.633 L 589.240 -0.680 L 588.834 -0.866 L 588.428 -1.054 L 588.332 -1.096 L 588.236 -1.139 L 587.825 -1.316 L 587.415 -1.494 L 587.317 -1.533 L 587.221 -1.575 L 586.806 -1.741 L 586.391 -1.908 L 586.293 -1.946 L 586.195 -1.985 L 585.776 -2.140 L 585.358 -2.298 L 585.259 -2.333 L 585.160 -2.369 L 584.737 -2.515 L 584.315 -2.662 L 584.215 -2.695 L 584.116 -2.729 L 583.690 -2.864 L 583.264 -3.001 L 583.163 -3.031 L 583.063 -3.062 L 582.634 -3.187 L 582.205 -3.313 L 582.103 -3.341 L 582.002 -3.370 L 581.570 -3.484 L 581.138 -3.600 L 581.036 -3.625 L 580.934 -3.651 L 580.499 -3.755 L 580.065 -3.860 L 579.962 -3.882 L 579.860 -3.907 L 579.422 -3.999 L 578.985 -4.094 L 578.882 -4.114 L 578.779 -4.135 L 578.340 -4.217 L 577.901 -4.301 L 577.797 -4.318 L 577.693 -4.337 L 577.252 -4.408 L 576.811 -4.482 L 576.707 -4.496 L 576.603 -4.513 L 576.160 -4.573 L 575.717 -4.635 L 575.613 -4.647 L 575.508 -4.662 L 575.064 -4.711 L 574.620 -4.762 L 574.515 -4.772 L 574.411 -4.783 L 573.965 -4.822 L 573.520 -4.862 L 573.415 -4.869 L 573.310 -4.878 L 572.864 -4.905 L 572.418 -4.935 L 572.313 -4.939 L 572.208 -4.946 L 571.761 -4.962 L 571.315 -4.981 L 571.210 -4.983 L 571.104 -4.986 L 570.657 -4.992 L 570.211 -5.000 L 570.105 -4.999 L 570.000 -5.000 L 130.000 -5.000 L 128.896 -4.986 L 127.792 -4.946 L 126.690 -4.878 L 125.589 -4.783 L 124.492 -4.662 L 123.397 -4.513 L 122.307 -4.337 L 121.221 -4.135 L 120.140 -3.907 L 119.066 -3.651 L 117.998 -3.370 L 116.937 -3.062 L 115.884 -2.729 L 114.840 -2.369 L 113.805 -1.985 L 112.779 -1.575 L 111.764 -1.139 L 110.760 -0.680 L 109.767 -0.195 L 108.787 0.314 L 107.820 0.846 L 106.865 1.402 L 105.925 1.982 L 104.999 2.584 L 104.089 3.209 L 103.194 3.856 L 102.315 4.524 L 101.452 5.215 L 100.607 5.926 L 99.780 6.657 L 98.971 7.409 L 98.180 8.180 L 97.409 8.971 L 96.657 9.780 L 95.926 10.607 L 95.215 11.452 L 94.524 12.315 L 93.856 13.194 L 93.209 14.089 L 92.584 14.999 L 91.982 15.925 L 91.402 16.865 L 90.846 17.820 L 90.314 18.787 L 89.805 19.767 L 89.320 20.760 L 88.861 21.764 L 88.425 22.779 L 88.015 23.805 L 87.631 24.840 L 87.271 25.884 L 86.938 26.937 L 86.630 27.998 L 86.349 29.066 L 86.093 30.140 L 85.865 31.221 L 85.663 32.307 L 85.487 33.397 L 85.338 34.492 L 85.217 35.589 L 85.122 36.690 L 85.054 37.792 L 85.014 38.896 L 85.000 40.000 L 85.014 41.104 L 85.054 42.208 L 85.122 43.310 L 85.217 44.411 L 85.338 45.508 L 85.487 46.603 L 85.663 47.693 L 85.865 48.779 L 86.093 49.860 L 86.349 50.934 L 86.630 52.002 L 86.938 53.063 L 87.271 54.116 L 87.631 55.160 L 88.015 56.195 L 88.425 57.221 L 88.861 58.236 L 89.320 59.240 L 89.805 60.233 L 90.314 61.213 L 90.846 62.180 L 91.402 63.135 L 91.982 64.075 L 92.584 65.001 L 93.209 65.911 L 93.856 66.806 L 94.524 67.685 L 95.215 68.548 L 95.926 69.393 L 96.657 70.220 L 97.409 71.029 L 98.180 71.820 L 98.971 72.591 L 99.780 73.343 L 100.607 74.074 L 101.452 74.785 L 102.315 75.476 L 103.194 76.144 L 104.089 76.791 L 104.999 77.416 L 105.925 78.018 L 106.865 78.598 L 107.820 79.154 L 108.787 79.686 L 109.767 80.195 L 110.760 80.680 L 111.764 81.139 L 112.779 81.575 L 113.805 81.985 L 114.840 82.369 L 115.884 82.729 L 116.937 83.062 L 117.998 83.370 L 119.066 83.651 L 120.140 83.907 L 121.221 84.135 L 122.307 84.337 L 123.397 84.513 L 124.492 84.662 L 125.589 84.783 L 126.690 84.878 L 127.792 84.946 L 128.896 84.986 L 130.000 85.000 L 494.522 85.000 L 130.413 758.602 L 129.900 759.580 L 129.411 760.570 L 128.946 761.572 L 128.506 762.585 L 128.092 763.609 L 127.702 764.642 L 127.338 765.685 L 126.999 766.736 L 126.687 767.795 L 126.400 768.862 L 126.140 769.935 L 125.906 771.015 L 125.699 772.099 L 125.518 773.189 L 125.365 774.283 L 125.238 775.380 L 125.138 776.480 L 125.065 777.582 L 125.019 778.685 L 125.000 779.789 L 125.009 780.894 L 125.044 781.998 L 125.107 783.100 L 125.197 784.201 L 125.313 785.300 L 125.457 786.395 L 125.627 787.486 L 125.824 788.573 L 126.048 789.654 L 126.298 790.730 L 126.574 791.799 L 126.877 792.861 L 127.206 793.916 L 127.560 794.962 L 127.940 795.999 L 128.345 797.026 L 128.776 798.043 L 129.231 799.049 L 129.711 800.044 L 130.215 801.027 L 130.743 801.997 L 131.294 802.954 L 131.869 803.897 L 132.467 804.825 L 133.088 805.739 L 133.731 806.637 L 134.395 807.519 L 135.081 808.385 L 135.788 809.233 L 136.516 810.064 L 137.264 810.877 L 138.032 811.671 L 138.819 812.446 L 139.624 813.201 L 140.448 813.937 L 141.290 814.652 L 142.149 815.346 L 143.025 816.019 L 143.917 816.670 L 144.825 817.299 L 145.748 817.905 L 146.685 818.489 L 147.637 819.050 L 148.602 819.587 L 149.580 820.100 L 150.570 820.589 L 151.572 821.054 L 152.585 821.494 L 153.609 821.908 L 154.642 822.298 L 155.685 822.662 L 156.736 823.001 L 157.795 823.313 L 158.862 823.600 L 159.935 823.860 L 161.015 824.094 L 162.099 824.301 L 163.189 824.482 L 164.283 824.635 L 165.380 824.762 L 166.480 824.862 L 167.582 824.935 L 168.685 824.981 L 169.789 825.000 L 170.894 824.991 L 171.998 824.956 L 173.100 824.893 L 174.201 824.803 L 175.300 824.687 L 176.395 824.543 L 177.486 824.373 L 178.573 824.176 L 179.654 823.952 L 180.730 823.702 L 181.799 823.426 L 182.861 823.123 L 183.916 822.794 L 184.962 822.440 L 185.999 822.060 L 187.026 821.655 L 188.043 821.224 L 189.049 820.769 L 190.044 820.289 L 191.027 819.785 L 191.997 819.257 L 192.954 818.706 L 193.897 818.131 L 194.825 817.533 L 195.739 816.912 L 196.637 816.269 L 197.519 815.605 L 198.385 814.919 L 199.233 814.212 L 200.064 813.484 L 200.877 812.736 L 201.671 811.968 L 202.446 811.181 L 203.201 810.376 L 203.937 809.552 L 204.652 808.710 L 205.346 807.851 L 206.019 806.975 L 206.670 806.083 L 207.299 805.175 L 207.905 804.252 L 208.489 803.315 L 209.050 802.363 L 209.587 801.398 L 609.587 61.398 L 609.636 61.305 L 609.686 61.213 Z" fill="black" fill-rule="evenodd"/>
</svg>
