<svg xmlns="http://www.w3.org/2000/svg" viewBox="0 0 700.000 1000" width="700.000" height="1000">
  <path d="M 566.527 346.966 L 566.535 346.534 L 566.578 343.779 L 566.583 343.347 L 566.599 340.591 L 566.600 340.159 L 566.589 337.403 L 566.586 336.971 L 566.549 334.216 L 566.541 333.784 L 566.478 331.029 L 566.466 330.597 L 566.377 327.844 L 566.361 327.412 L 566.245 324.660 L 566.225 324.228 L 566.083 321.478 L 566.058 321.046 L 565.890 318.299 L 565.861 317.866 L 565.666 315.122 L 565.633 314.690 L 565.412 311.949 L 565.375 311.516 L 565.127 308.779 L 565.086 308.347 L 564.812 305.613 L 564.767 305.181 L 564.467 302.452 L 564.417 302.019 L 564.091 299.296 L 564.037 298.863 L 563.685 296.145 L 563.626 295.712 L 563.248 293.000 L 563.185 292.566 L 562.781 289.861 L 562.714 289.427 L 562.284 286.728 L 562.213 286.294 L 561.756 283.602 L 561.681 283.168 L 561.199 280.484 L 561.119 280.050 L 560.611 277.373 L 560.526 276.939 L 559.993 274.271 L 559.904 273.836 L 559.345 271.177 L 559.251 270.742 L 558.667 268.092 L 558.569 267.657 L 557.959 265.016 L 557.856 264.581 L 557.221 261.950 L 557.114 261.514 L 556.454 258.894 L 556.342 258.458 L 555.656 255.849 L 555.540 255.413 L 554.829 252.815 L 554.708 252.379 L 553.972 249.792 L 553.846 249.356 L 553.086 246.781 L 552.955 246.344 L 552.170 243.782 L 552.034 243.345 L 551.225 240.796 L 551.084 240.359 L 550.250 237.822 L 550.104 237.385 L 549.246 234.862 L 549.095 234.425 L 548.213 231.916 L 548.057 231.478 L 547.151 228.984 L 546.989 228.546 L 546.059 226.067 L 545.892 225.629 L 544.939 223.164 L 544.767 222.726 L 543.790 220.277 L 543.612 219.839 L 542.612 217.406 L 542.429 216.967 L 541.405 214.550 L 541.216 214.112 L 540.169 211.712 L 539.975 211.273 L 538.906 208.890 L 538.706 208.452 L 537.613 206.086 L 537.408 205.647 L 536.293 203.299 L 536.081 202.861 L 534.944 200.531 L 534.727 200.092 L 533.567 197.781 L 533.344 197.343 L 532.162 195.050 L 531.933 194.612 L 530.729 192.338 L 530.494 191.900 L 529.268 189.646 L 529.027 189.209 L 527.780 186.975 L 527.533 186.537 L 526.264 184.323 L 526.010 183.886 L 524.721 181.693 L 524.461 181.256 L 523.150 179.084 L 522.884 178.648 L 521.552 176.496 L 521.279 176.061 L 519.927 173.931 L 519.648 173.496 L 518.275 171.388 L 517.989 170.954 L 516.597 168.869 L 516.304 168.435 L 514.892 166.372 L 514.592 165.939 L 513.160 163.899 L 512.853 163.468 L 511.402 161.450 L 511.088 161.020 L 509.617 159.026 L 509.296 158.596 L 507.807 156.626 L 507.479 156.198 L 505.970 154.252 L 505.635 153.825 L 504.108 151.904 L 503.766 151.478 L 502.220 149.581 L 501.870 149.157 L 500.307 147.286 L 499.950 146.863 L 498.368 145.017 L 498.004 144.596 L 496.405 142.775 L 496.032 142.356 L 494.416 140.561 L 494.036 140.144 L 492.403 138.375 L 492.015 137.960 L 490.365 136.218 L 489.970 135.805 L 488.303 134.089 L 487.900 133.679 L 486.216 131.990 L 485.805 131.583 L 484.106 129.921 L 483.687 129.516 L 481.972 127.881 L 481.545 127.480 L 479.815 125.873 L 479.380 125.474 L 477.634 123.895 L 477.191 123.500 L 475.430 121.949 L 474.979 121.557 L 473.203 120.034 L 472.744 119.646 L 470.954 118.152 L 470.486 117.767 L 468.682 116.302 L 468.207 115.921 L 466.388 114.486 L 465.905 114.109 L 464.073 112.702 L 463.581 112.330 L 461.736 110.953 L 461.236 110.585 L 459.378 109.238 L 458.869 108.875 L 456.998 107.557 L 456.482 107.199 L 454.598 105.912 L 454.074 105.559 L 452.178 104.302 L 451.646 103.955 L 449.738 102.728 L 449.198 102.386 L 447.278 101.191 L 446.730 100.854 L 444.799 99.690 L 444.243 99.359 L 442.301 98.226 L 441.737 97.902 L 439.785 96.799 L 439.213 96.482 L 437.250 95.411 L 436.670 95.100 L 434.697 94.061 L 434.110 93.757 L 432.127 92.750 L 431.532 92.453 L 429.540 91.477 L 428.937 91.188 L 426.936 90.244 L 426.326 89.962 L 424.316 89.051 L 423.699 88.777 L 421.680 87.898 L 421.056 87.632 L 419.029 86.786 L 418.399 86.528 L 416.363 85.714 L 415.726 85.465 L 413.683 84.684 L 413.040 84.443 L 410.989 83.695 L 410.339 83.464 L 408.282 82.748 L 407.626 82.526 L 405.562 81.844 L 404.900 81.631 L 402.830 80.982 L 402.162 80.778 L 400.085 80.163 L 399.412 79.969 L 397.330 79.386 L 396.652 79.202 L 394.564 78.654 L 393.881 78.480 L 391.788 77.965 L 391.100 77.801 L 389.003 77.319 L 388.310 77.166 L 386.208 76.718 L 385.512 76.576 L 383.406 76.162 L 382.705 76.030 L 380.595 75.650 L 379.891 75.529 L 377.778 75.182 L 377.071 75.072 L 374.954 74.760 L 374.244 74.661 L 372.124 74.383 L 371.411 74.295 L 369.289 74.051 L 368.574 73.974 L 366.450 73.764 L 365.733 73.699 L 363.607 73.523 L 362.887 73.469 L 360.760 73.327 L 360.039 73.285 L 357.911 73.177 L 357.189 73.147 L 355.060 73.073 L 354.337 73.054 L 352.207 73.015 L 351.485 73.007 L 349.354 73.002 L 348.632 73.006 L 346.502 73.036 L 345.779 73.051 L 343.649 73.115 L 342.928 73.142 L 340.799 73.239 L 340.078 73.278 L 337.950 73.410 L 337.230 73.460 L 335.104 73.626 L 334.386 73.688 L 332.261 73.888 L 331.545 73.961 L 329.423 74.196 L 328.709 74.280 L 326.589 74.548 L 325.878 74.644 L 323.760 74.946 L 323.052 75.053 L 320.938 75.390 L 320.233 75.507 L 318.122 75.878 L 317.420 76.006 L 315.313 76.411 L 314.615 76.550 L 312.512 76.988 L 311.818 77.138 L 309.719 77.610 L 309.030 77.770 L 306.936 78.276 L 306.251 78.446 L 304.162 78.985 L 303.482 79.166 L 301.398 79.739 L 300.724 79.930 L 298.646 80.536 L 297.976 80.736 L 295.904 81.376 L 295.240 81.586 L 293.175 82.258 L 292.517 82.478 L 290.457 83.184 L 289.806 83.412 L 287.753 84.151 L 287.108 84.389 L 285.063 85.160 L 284.424 85.407 L 282.386 86.211 L 281.753 86.466 L 279.724 87.303 L 279.098 87.567 L 277.077 88.436 L 276.458 88.708 L 274.445 89.610 L 273.833 89.889 L 271.829 90.823 L 271.225 91.110 L 269.229 92.077 L 268.632 92.371 L 266.647 93.369 L 266.057 93.671 L 264.081 94.701 L 263.499 95.010 L 261.533 96.072 L 260.959 96.387 L 259.004 97.480 L 258.437 97.802 L 256.492 98.927 L 255.933 99.255 L 253.999 100.411 L 253.449 100.745 L 251.526 101.932 L 250.983 102.272 L 249.072 103.490 L 248.537 103.835 L 246.638 105.083 L 246.111 105.435 L 244.224 106.713 L 243.705 107.070 L 241.831 108.378 L 241.320 108.740 L 239.458 110.079 L 238.956 110.445 L 237.106 111.813 L 236.612 112.184 L 234.776 113.582 L 234.290 113.958 L 232.468 115.385 L 231.990 115.764 L 230.182 117.221 L 229.712 117.604 L 227.918 119.090 L 227.456 119.477 L 225.676 120.991 L 225.223 121.382 L 223.458 122.925 L 223.012 123.319 L 221.262 124.890 L 220.825 125.288 L 219.089 126.887 L 218.660 127.287 L 216.940 128.914 L 216.519 129.318 L 214.815 130.972 L 214.402 131.378 L 212.714 133.060 L 212.308 133.469 L 210.637 135.177 L 210.239 135.589 L 208.584 137.324 L 208.194 137.737 L 206.556 139.499 L 206.173 139.915 L 204.552 141.703 L 204.178 142.121 L 202.573 143.934 L 202.207 144.354 L 200.620 146.194 L 200.261 146.615 L 198.692 148.480 L 198.340 148.903 L 196.789 150.793 L 196.445 151.218 L 194.912 153.132 L 194.575 153.559 L 193.061 155.498 L 192.731 155.926 L 191.235 157.889 L 190.913 158.318 L 189.436 160.304 L 189.121 160.735 L 187.663 162.745 L 187.355 163.176 L 185.917 165.210 L 185.615 165.642 L 184.197 167.699 L 183.902 168.132 L 182.504 170.211 L 182.215 170.645 L 180.837 172.746 L 180.556 173.181 L 179.198 175.304 L 178.923 175.740 L 177.585 177.885 L 177.317 178.321 L 176.000 180.487 L 175.738 180.923 L 174.443 183.111 L 174.187 183.547 L 172.912 185.755 L 172.663 186.193 L 171.410 188.421 L 171.167 188.858 L 169.935 191.107 L 169.698 191.544 L 168.487 193.812 L 168.257 194.250 L 167.068 196.538 L 166.844 196.976 L 165.677 199.282 L 165.458 199.720 L 164.314 202.045 L 164.101 202.483 L 162.979 204.826 L 162.772 205.264 L 161.673 207.625 L 161.472 208.064 L 160.395 210.442 L 159.952 211.453 L 159.534 212.476 L 159.141 213.508 L 158.773 214.549 L 158.432 215.599 L 158.116 216.658 L 157.826 217.724 L 157.562 218.796 L 157.325 219.875 L 157.114 220.959 L 156.930 222.048 L 156.773 223.141 L 156.643 224.238 L 156.539 225.337 L 156.463 226.439 L 156.414 227.542 L 156.391 228.647 L 156.396 229.751 L 156.428 230.855 L 156.487 231.958 L 156.573 233.059 L 156.687 234.158 L 156.827 235.253 L 156.994 236.345 L 157.187 237.432 L 157.407 238.515 L 157.654 239.591 L 157.927 240.661 L 158.226 241.724 L 158.552 242.780 L 158.903 243.827 L 159.280 244.865 L 159.682 245.894 L 160.109 246.912 L 160.561 247.920 L 161.037 248.916 L 161.538 249.901 L 162.063 250.872 L 162.612 251.831 L 163.184 252.776 L 163.779 253.706 L 164.396 254.622 L 165.036 255.522 L 165.698 256.406 L 166.382 257.274 L 167.086 258.124 L 167.811 258.957 L 168.556 259.772 L 169.321 260.569 L 170.106 261.346 L 170.909 262.105 L 171.731 262.843 L 172.570 263.560 L 173.427 264.257 L 174.301 264.933 L 175.191 265.587 L 176.096 266.219 L 177.017 266.828 L 177.953 267.415 L 178.903 267.979 L 179.866 268.519 L 180.843 269.035 L 181.831 269.527 L 182.788 269.975 L 179.945 273.284 L 179.243 274.121 L 175.604 278.571 L 174.931 279.414 L 171.376 283.980 L 170.732 284.828 L 167.263 289.507 L 166.647 290.358 L 163.266 295.148 L 162.678 296.002 L 159.388 300.900 L 158.826 301.757 L 155.628 306.760 L 155.093 307.618 L 151.989 312.722 L 151.480 313.582 L 148.472 318.785 L 147.987 319.645 L 145.077 324.944 L 144.617 325.804 L 141.806 331.196 L 141.369 332.056 L 138.661 337.537 L 138.247 338.397 L 135.641 343.964 L 135.249 344.823 L 132.748 350.472 L 132.378 351.331 L 129.983 357.059 L 129.634 357.917 L 127.347 363.721 L 127.019 364.578 L 124.840 370.454 L 124.532 371.309 L 122.464 377.254 L 122.176 378.108 L 120.219 384.118 L 119.950 384.971 L 118.106 391.042 L 117.856 391.894 L 116.125 398.022 L 115.894 398.873 L 114.278 405.056 L 114.065 405.905 L 112.565 412.138 L 112.369 412.986 L 110.986 419.265 L 110.808 420.112 L 109.542 426.434 L 109.381 427.280 L 108.233 433.641 L 108.089 434.485 L 107.060 440.882 L 106.933 441.725 L 106.023 448.153 L 105.912 448.995 L 105.123 455.451 L 105.028 456.292 L 104.360 462.771 L 104.281 463.612 L 103.733 470.110 L 103.671 470.950 L 103.244 477.464 L 103.197 478.304 L 102.893 484.830 L 102.861 485.670 L 102.679 492.203 L 102.663 493.043 L 102.602 499.580 L 102.602 500.420 L 102.663 506.957 L 102.679 507.797 L 102.861 514.330 L 102.893 515.170 L 103.197 521.696 L 103.244 522.536 L 103.671 529.050 L 103.733 529.890 L 104.281 536.388 L 104.360 537.229 L 105.028 543.708 L 105.123 544.549 L 105.912 551.005 L 106.023 551.847 L 106.933 558.275 L 107.060 559.118 L 108.089 565.515 L 108.233 566.359 L 109.381 572.720 L 109.542 573.566 L 110.808 579.888 L 110.986 580.735 L 112.369 587.014 L 112.565 587.862 L 114.065 594.095 L 114.278 594.944 L 115.894 601.127 L 116.125 601.978 L 117.856 608.106 L 118.106 608.958 L 119.950 615.029 L 120.219 615.882 L 122.176 621.892 L 122.464 622.746 L 124.532 628.691 L 124.840 629.546 L 127.019 635.422 L 127.347 636.279 L 129.634 642.083 L 129.983 642.941 L 132.378 648.669 L 132.748 649.528 L 135.249 655.177 L 135.641 656.036 L 138.247 661.603 L 138.661 662.463 L 141.369 667.944 L 141.806 668.804 L 144.617 674.196 L 145.077 675.056 L 147.987 680.355 L 148.472 681.215 L 151.480 686.418 L 151.989 687.278 L 155.093 692.382 L 155.628 693.240 L 158.826 698.243 L 159.388 699.100 L 162.678 703.998 L 163.266 704.852 L 166.647 709.642 L 167.263 710.493 L 170.732 715.172 L 171.376 716.020 L 174.931 720.586 L 175.604 721.429 L 179.243 725.879 L 179.945 726.716 L 183.666 731.047 L 184.399 731.878 L 188.199 736.088 L 188.962 736.912 L 192.841 740.997 L 193.635 741.813 L 197.588 745.772 L 198.414 746.577 L 202.440 750.408 L 203.297 751.203 L 207.394 754.902 L 208.284 755.685 L 212.448 759.250 L 213.371 760.019 L 217.600 763.449 L 218.556 764.204 L 222.848 767.496 L 223.837 768.233 L 228.189 771.386 L 229.212 772.105 L 233.621 775.117 L 234.677 775.816 L 239.141 778.684 L 240.229 779.361 L 244.746 782.084 L 245.866 782.738 L 250.432 785.314 L 251.585 785.942 L 256.197 788.370 L 257.381 788.971 L 262.037 791.249 L 263.252 791.821 L 267.949 793.948 L 269.192 794.488 L 273.928 796.463 L 275.199 796.970 L 279.970 798.792 L 281.269 799.264 L 286.072 800.931 L 287.395 801.367 L 292.228 802.878 L 293.575 803.276 L 298.435 804.630 L 299.803 804.988 L 304.687 806.185 L 306.074 806.502 L 310.978 807.540 L 312.383 807.814 L 317.305 808.694 L 318.725 808.925 L 323.662 809.645 L 325.093 809.831 L 330.042 810.392 L 331.484 810.532 L 336.442 810.933 L 337.890 811.026 L 342.854 811.267 L 344.306 811.314 L 349.273 811.394 L 350.727 811.394 L 355.694 811.314 L 357.146 811.267 L 362.110 811.026 L 363.558 810.933 L 368.516 810.532 L 369.958 810.392 L 374.907 809.831 L 376.338 809.645 L 381.275 808.925 L 382.695 808.694 L 387.617 807.814 L 389.022 807.540 L 393.926 806.502 L 395.313 806.185 L 400.197 804.988 L 401.565 804.630 L 406.425 803.276 L 407.772 802.878 L 412.605 801.367 L 413.928 800.931 L 418.731 799.264 L 420.030 798.792 L 424.801 796.970 L 426.072 796.463 L 430.808 794.488 L 432.051 793.948 L 436.748 791.821 L 437.963 791.249 L 442.619 788.971 L 443.803 788.370 L 448.415 785.942 L 449.568 785.314 L 454.134 782.738 L 455.254 782.084 L 459.771 779.361 L 460.859 778.684 L 465.323 775.816 L 466.379 775.117 L 470.788 772.105 L 471.811 771.386 L 476.163 768.233 L 477.152 767.496 L 481.444 764.204 L 482.400 763.449 L 486.629 760.019 L 487.552 759.250 L 491.716 755.685 L 492.606 754.902 L 496.703 751.203 L 497.560 750.408 L 501.586 746.577 L 502.412 745.772 L 506.365 741.813 L 507.159 740.997 L 511.038 736.912 L 511.801 736.088 L 515.601 731.878 L 516.334 731.047 L 520.055 726.716 L 520.757 725.879 L 524.396 721.429 L 525.069 720.586 L 528.624 716.020 L 529.268 715.172 L 532.737 710.493 L 533.353 709.642 L 536.734 704.852 L 537.322 703.998 L 540.612 699.100 L 541.174 698.243 L 544.372 693.240 L 544.907 692.382 L 548.011 687.278 L 548.520 686.418 L 551.528 681.215 L 552.013 680.355 L 554.923 675.056 L 555.383 674.196 L 558.194 668.804 L 558.631 667.944 L 561.339 662.463 L 561.753 661.603 L 564.359 656.036 L 564.751 655.177 L 567.252 649.528 L 567.622 648.669 L 570.017 642.941 L 570.366 642.083 L 572.653 636.279 L 572.981 635.422 L 575.160 629.546 L 575.468 628.691 L 577.536 622.746 L 577.824 621.892 L 579.781 615.882 L 580.050 615.029 L 581.894 608.958 L 582.144 608.106 L 583.875 601.978 L 584.106 601.127 L 585.722 594.944 L 585.935 594.095 L 587.435 587.862 L 587.631 587.014 L 589.014 580.735 L 589.192 579.888 L 590.458 573.566 L 590.619 572.720 L 591.767 566.359 L 591.911 565.515 L 592.940 559.118 L 593.067 558.275 L 593.977 551.847 L 594.088 551.005 L 594.877 544.549 L 594.972 543.708 L 595.640 537.229 L 595.719 536.388 L 596.267 529.890 L 596.329 529.050 L 596.756 522.536 L 596.803 521.696 L 597.107 515.170 L 597.139 514.330 L 597.321 507.797 L 597.337 506.957 L 597.398 500.420 L 597.398 499.580 L 597.337 493.043 L 597.321 492.203 L 597.139 485.670 L 597.107 484.830 L 596.803 478.304 L 596.756 477.464 L 596.329 470.950 L 596.267 470.110 L 595.719 463.612 L 595.640 462.771 L 594.972 456.292 L 594.877 455.451 L 594.088 448.995 L 593.977 448.153 L 593.067 441.725 L 592.940 440.882 L 591.911 434.485 L 591.767 433.641 L 590.619 427.280 L 590.458 426.434 L 589.192 420.112 L 589.014 419.265 L 587.631 412.986 L 587.435 412.138 L 585.935 405.905 L 585.722 405.056 L 584.106 398.873 L 583.875 398.022 L 582.144 391.894 L 581.894 391.042 L 580.050 384.971 L 579.781 384.118 L 577.824 378.108 L 577.536 377.254 L 575.468 371.309 L 575.160 370.454 L 572.981 364.578 L 572.653 363.721 L 570.366 357.917 L 570.017 357.059 L 567.622 351.331 L 567.252 350.472 L 566.482 348.733 L 566.527 346.966 Z M 474.967 368.034 L 474.688 370.323 L 474.386 372.607 L 474.063 374.884 L 473.719 377.155 L 473.352 379.419 L 472.965 381.676 L 472.556 383.924 L 472.125 386.165 L 471.674 388.397 L 471.202 390.619 L 470.708 392.832 L 470.194 395.035 L 469.659 397.228 L 469.104 399.411 L 468.528 401.582 L 467.872 403.959 L 467.592 405.028 L 467.337 406.102 L 467.109 407.183 L 466.908 408.269 L 466.733 409.359 L 466.585 410.454 L 466.465 411.552 L 466.371 412.652 L 466.304 413.755 L 466.264 414.858 L 466.251 415.963 L 466.266 417.067 L 466.307 418.171 L 466.376 419.273 L 466.471 420.373 L 466.594 421.471 L 466.743 422.565 L 466.920 423.656 L 467.123 424.741 L 467.352 425.821 L 467.608 426.896 L 467.890 427.964 L 468.199 429.024 L 468.533 430.077 L 468.893 431.121 L 469.279 432.156 L 469.690 433.181 L 470.126 434.196 L 470.586 435.199 L 471.072 436.192 L 471.581 437.172 L 472.114 438.139 L 472.671 439.092 L 473.251 440.032 L 473.854 440.958 L 474.480 441.868 L 475.127 442.762 L 475.797 443.641 L 476.488 444.503 L 477.199 445.347 L 477.931 446.174 L 478.684 446.983 L 479.456 447.772 L 480.247 448.543 L 481.056 449.294 L 481.884 450.025 L 482.730 450.736 L 483.593 451.425 L 484.472 452.093 L 485.368 452.740 L 486.279 453.364 L 487.205 453.965 L 488.146 454.544 L 489.101 455.099 L 490.069 455.631 L 491.049 456.139 L 492.042 456.623 L 493.047 457.082 L 494.062 457.516 L 495.088 457.925 L 496.123 458.309 L 497.168 458.668 L 498.221 459.001 L 499.282 459.308 L 500.350 459.588 L 501.425 459.843 L 502.506 460.070 L 503.592 460.272 L 504.682 460.446 L 504.820 460.465 L 505.490 465.951 L 506.072 471.589 L 506.549 477.247 L 506.920 482.921 L 507.186 488.607 L 507.345 494.301 L 507.398 500.000 L 507.345 505.699 L 507.186 511.393 L 506.920 517.079 L 506.549 522.753 L 506.072 528.411 L 505.490 534.049 L 504.804 539.662 L 504.014 545.247 L 503.121 550.800 L 502.126 556.316 L 501.029 561.792 L 499.832 567.224 L 498.536 572.609 L 497.143 577.941 L 495.652 583.219 L 494.067 588.437 L 492.388 593.592 L 490.617 598.681 L 488.756 603.701 L 486.806 608.647 L 484.770 613.516 L 482.649 618.305 L 480.446 623.012 L 478.162 627.632 L 475.800 632.162 L 473.363 636.601 L 470.852 640.944 L 468.270 645.190 L 465.620 649.336 L 462.904 653.379 L 460.125 657.316 L 457.286 661.147 L 454.388 664.868 L 451.436 668.477 L 448.432 671.974 L 445.378 675.356 L 442.278 678.621 L 439.135 681.769 L 435.950 684.799 L 432.728 687.708 L 429.471 690.497 L 426.182 693.165 L 422.863 695.711 L 419.517 698.135 L 416.147 700.436 L 412.755 702.615 L 409.343 704.672 L 405.914 706.607 L 402.470 708.419 L 399.013 710.111 L 395.545 711.681 L 392.067 713.131 L 388.581 714.462 L 385.089 715.674 L 381.591 716.767 L 378.089 717.743 L 374.583 718.602 L 371.075 719.345 L 367.565 719.972 L 364.053 720.485 L 360.541 720.883 L 357.028 721.167 L 353.514 721.337 L 350.000 721.394 L 346.486 721.337 L 342.972 721.167 L 339.459 720.883 L 335.947 720.485 L 332.435 719.972 L 328.925 719.345 L 325.417 718.602 L 321.911 717.743 L 318.409 716.767 L 314.911 715.674 L 311.419 714.462 L 307.933 713.131 L 304.455 711.681 L 300.987 710.111 L 297.530 708.419 L 294.086 706.607 L 290.657 704.672 L 287.245 702.615 L 283.853 700.436 L 280.483 698.135 L 277.137 695.711 L 273.818 693.165 L 270.529 690.497 L 267.272 687.708 L 264.050 684.799 L 260.865 681.769 L 257.722 678.621 L 254.622 675.356 L 251.568 671.974 L 248.564 668.477 L 245.612 664.868 L 242.714 661.147 L 239.875 657.316 L 237.096 653.379 L 234.380 649.336 L 231.730 645.190 L 229.148 640.944 L 226.637 636.601 L 224.200 632.162 L 221.838 627.632 L 219.554 623.012 L 217.351 618.305 L 215.230 613.516 L 213.194 608.647 L 211.244 603.701 L 209.383 598.681 L 207.612 593.592 L 205.933 588.437 L 204.348 583.219 L 202.857 577.941 L 201.464 572.609 L 200.168 567.224 L 198.971 561.792 L 197.874 556.316 L 196.879 550.800 L 195.986 545.247 L 195.196 539.662 L 194.510 534.049 L 193.928 528.411 L 193.451 522.753 L 193.080 517.079 L 192.814 511.393 L 192.655 505.699 L 192.602 500.000 L 192.655 494.301 L 192.814 488.607 L 193.080 482.921 L 193.451 477.247 L 193.928 471.589 L 194.510 465.951 L 195.196 460.338 L 195.986 454.753 L 196.879 449.200 L 197.874 443.684 L 198.971 438.208 L 200.168 432.776 L 201.464 427.391 L 202.857 422.059 L 204.348 416.781 L 205.933 411.563 L 207.612 406.408 L 209.383 401.319 L 211.244 396.299 L 213.194 391.353 L 215.230 386.484 L 217.351 381.695 L 219.554 376.988 L 221.838 372.368 L 224.200 367.838 L 226.637 363.399 L 229.148 359.056 L 231.730 354.810 L 234.380 350.664 L 237.096 346.621 L 239.875 342.684 L 242.714 338.853 L 245.612 335.132 L 248.564 331.523 L 251.568 328.026 L 254.622 324.644 L 257.722 321.379 L 260.865 318.231 L 264.050 315.201 L 267.272 312.292 L 270.529 309.503 L 273.818 306.835 L 277.137 304.289 L 280.483 301.865 L 283.853 299.564 L 287.245 297.385 L 290.657 295.328 L 294.086 293.393 L 297.530 291.581 L 300.987 289.889 L 304.455 288.319 L 307.933 286.869 L 311.419 285.538 L 314.911 284.326 L 318.409 283.233 L 321.911 282.257 L 325.417 281.398 L 328.925 280.655 L 332.435 280.028 L 335.947 279.515 L 339.459 279.117 L 342.972 278.833 L 346.486 278.663 L 350.000 278.606 L 353.514 278.663 L 357.028 278.833 L 360.541 279.117 L 364.053 279.515 L 367.565 280.028 L 371.075 280.655 L 374.583 281.398 L 378.089 282.257 L 381.591 283.233 L 385.089 284.326 L 388.581 285.538 L 392.067 286.869 L 395.545 288.319 L 399.013 289.889 L 402.470 291.581 L 405.914 293.393 L 409.343 295.328 L 412.755 297.385 L 416.147 299.564 L 419.517 301.865 L 422.863 304.289 L 426.182 306.835 L 429.471 309.503 L 432.728 312.292 L 435.950 315.201 L 439.135 318.231 L 442.278 321.379 L 445.378 324.644 L 448.432 328.026 L 451.436 331.523 L 454.388 335.132 L 457.286 338.853 L 460.125 342.684 L 462.904 346.621 L 465.620 350.664 L 468.270 354.810 L 470.852 359.056 L 473.363 363.399 L 475.127 366.611 L 474.967 368.034 Z M 268.948 204.771 L 270.172 203.353 L 271.405 201.958 L 272.648 200.588 L 273.901 199.241 L 275.162 197.919 L 276.432 196.621 L 277.711 195.347 L 278.997 194.098 L 280.292 192.874 L 281.594 191.674 L 282.903 190.500 L 284.219 189.350 L 285.541 188.225 L 286.870 187.125 L 288.205 186.050 L 289.545 185.000 L 290.891 183.975 L 292.242 182.975 L 293.598 182.001 L 294.958 181.051 L 296.323 180.127 L 297.692 179.228 L 299.064 178.353 L 300.440 177.504 L 301.819 176.680 L 303.202 175.881 L 304.587 175.107 L 305.974 174.357 L 307.365 173.632 L 308.757 172.933 L 310.151 172.257 L 311.548 171.607 L 312.945 170.980 L 314.345 170.379 L 315.745 169.801 L 317.147 169.248 L 318.550 168.719 L 319.954 168.213 L 321.358 167.732 L 322.763 167.275 L 324.169 166.841 L 325.575 166.431 L 326.982 166.045 L 328.389 165.682 L 329.796 165.342 L 331.204 165.026 L 332.611 164.733 L 334.019 164.463 L 335.426 164.216 L 336.834 163.993 L 338.242 163.792 L 339.650 163.613 L 341.057 163.458 L 342.465 163.326 L 343.873 163.216 L 345.280 163.129 L 346.688 163.064 L 348.096 163.022 L 349.503 163.003 L 350.911 163.006 L 352.318 163.032 L 353.726 163.081 L 355.134 163.152 L 356.541 163.246 L 357.949 163.362 L 359.357 163.501 L 360.764 163.663 L 362.172 163.848 L 363.580 164.056 L 364.988 164.287 L 366.395 164.540 L 367.803 164.817 L 369.210 165.117 L 370.618 165.440 L 372.025 165.786 L 373.432 166.156 L 374.838 166.549 L 376.244 166.966 L 377.650 167.407 L 379.055 167.871 L 380.459 168.359 L 381.863 168.872 L 383.265 169.408 L 384.667 169.968 L 386.067 170.553 L 387.466 171.162 L 388.863 171.795 L 390.259 172.453 L 391.653 173.136 L 393.044 173.843 L 394.434 174.575 L 395.821 175.332 L 397.205 176.113 L 398.587 176.920 L 399.965 177.751 L 401.340 178.608 L 402.711 179.489 L 404.079 180.396 L 405.442 181.328 L 406.801 182.285 L 408.156 183.267 L 409.505 184.274 L 410.850 185.306 L 412.188 186.363 L 413.521 187.446 L 414.848 188.553 L 416.169 189.685 L 417.483 190.843 L 418.790 192.025 L 420.090 193.232 L 421.382 194.463 L 422.666 195.719 L 423.942 197.000 L 425.210 198.305 L 426.469 199.635 L 427.718 200.988 L 428.958 202.366 L 430.189 203.767 L 431.409 205.192 L 432.174 206.108 L 432.051 206.052 L 430.808 205.512 L 426.072 203.537 L 424.801 203.030 L 420.030 201.208 L 418.731 200.736 L 413.928 199.069 L 412.605 198.633 L 407.772 197.122 L 406.425 196.724 L 401.565 195.370 L 400.197 195.012 L 395.313 193.815 L 393.926 193.498 L 389.022 192.460 L 387.617 192.186 L 382.695 191.306 L 381.275 191.075 L 376.338 190.355 L 374.907 190.169 L 369.958 189.608 L 368.516 189.468 L 363.558 189.067 L 362.110 188.974 L 357.146 188.733 L 355.694 188.686 L 350.727 188.606 L 349.273 188.606 L 344.306 188.686 L 342.854 188.733 L 337.890 188.974 L 336.442 189.067 L 331.484 189.468 L 330.042 189.608 L 325.093 190.169 L 323.662 190.355 L 318.725 191.075 L 317.305 191.306 L 312.383 192.186 L 310.978 192.460 L 306.074 193.498 L 304.687 193.815 L 299.803 195.012 L 298.435 195.370 L 293.575 196.724 L 292.228 197.122 L 287.395 198.633 L 286.072 199.069 L 281.269 200.736 L 279.970 201.208 L 275.199 203.030 L 273.928 203.537 L 269.192 205.512 L 267.949 206.052 L 267.822 206.110 L 268.948 204.771 Z" fill="black" fill-rule="evenodd"/>
</svg>
