<svg xmlns="http://www.w3.org/2000/svg" viewBox="0 0 700.000 1000" width="700.000" height="1000">
  <path d="M 330.000 365.000 L 328.896 365.014 L 327.792 365.054 L 326.690 365.122 L 325.589 365.217 L 324.492 365.338 L 323.397 365.487 L 322.307 365.663 L 321.221 365.865 L 320.140 366.093 L 319.066 366.349 L 317.998 366.630 L 316.937 366.938 L 315.884 367.271 L 314.840 367.631 L 313.805 368.015 L 312.779 368.425 L 311.764 368.861 L 310.760 369.320 L 309.767 369.805 L 308.787 370.314 L 307.820 370.846 L 306.865 371.402 L 305.925 371.982 L 304.999 372.584 L 304.089 373.209 L 303.194 373.856 L 302.315 374.524 L 301.452 375.215 L 300.607 375.926 L 299.780 376.657 L 298.971 377.409 L 298.180 378.180 L 297.409 378.971 L 296.657 379.780 L 295.926 380.607 L 295.215 381.452 L 294.524 382.315 L 293.856 383.194 L 293.209 384.089 L 292.584 384.999 L 291.982 385.925 L 291.402 386.865 L 290.846 387.820 L 290.314 388.787 L 289.805 389.767 L 289.320 390.760 L 288.861 391.764 L 288.425 392.779 L 288.015 393.805 L 287.631 394.840 L 287.271 395.884 L 286.938 396.937 L 286.630 397.998 L 286.349 399.066 L 286.093 400.140 L 285.865 401.221 L 285.663 402.307 L 285.487 403.397 L 285.338 404.492 L 285.217 405.589 L 285.122 406.690 L 285.054 407.792 L 285.014 408.896 L 285.000 410.000 L 285.014 411.104 L 285.054 412.208 L 285.122 413.310 L 285.217 414.411 L 285.338 415.508 L 285.487 416.603 L 285.663 417.693 L 285.865 418.779 L 286.093 419.860 L 286.349 420.934 L 286.630 422.002 L 286.938 423.063 L 287.271 424.116 L 287.631 425.160 L 288.015 426.195 L 288.425 427.221 L 288.861 428.236 L 289.320 429.240 L 289.805 430.233 L 290.314 431.213 L 290.846 432.180 L 291.402 433.135 L 291.982 434.075 L 292.584 435.001 L 293.209 435.911 L 293.856 436.806 L 294.524 437.685 L 295.215 438.548 L 295.926 439.393 L 296.657 440.220 L 297.409 441.029 L 298.180 441.820 L 298.971 442.591 L 299.780 443.343 L 300.607 444.074 L 301.452 444.785 L 302.315 445.476 L 303.194 446.144 L 304.089 446.791 L 304.999 447.416 L 305.925 448.018 L 306.865 448.598 L 307.820 449.154 L 308.787 449.686 L 309.767 450.195 L 310.760 450.680 L 311.764 451.139 L 312.779 451.575 L 313.805 451.985 L 314.840 452.369 L 315.884 452.729 L 316.937 453.062 L 317.998 453.370 L 319.066 453.651 L 320.140 453.907 L 321.221 454.135 L 322.307 454.337 L 323.397 454.513 L 324.492 454.662 L 325.589 454.783 L 326.690 454.878 L 327.792 454.946 L 328.896 454.986 L 330.000 455.000 L 412.800 455.000 L 412.800 755.215 L 412.806 755.733 L 412.812 756.250 L 412.813 756.285 L 412.814 756.319 L 412.833 756.837 L 412.851 757.354 L 412.853 757.388 L 412.854 757.423 L 412.886 757.940 L 412.917 758.457 L 412.920 758.491 L 412.922 758.525 L 412.966 759.041 L 413.010 759.557 L 413.014 759.591 L 413.017 759.625 L 413.074 760.140 L 413.130 760.655 L 413.135 760.689 L 413.138 760.723 L 413.208 761.236 L 413.277 761.750 L 413.282 761.784 L 413.287 761.818 L 413.369 762.329 L 413.451 762.840 L 413.457 762.874 L 413.463 762.908 L 413.557 763.417 L 413.651 763.926 L 413.658 763.960 L 413.665 763.994 L 413.772 764.500 L 413.878 765.007 L 413.886 765.041 L 413.893 765.074 L 414.013 765.578 L 414.132 766.082 L 414.141 766.115 L 414.149 766.149 L 414.281 766.650 L 414.412 767.151 L 414.421 767.184 L 414.430 767.217 L 414.574 767.714 L 414.718 768.212 L 414.728 768.245 L 414.738 768.278 L 414.894 768.771 L 415.050 769.265 L 415.061 769.298 L 415.071 769.330 L 415.240 769.820 L 415.407 770.310 L 415.419 770.342 L 415.431 770.375 L 415.611 770.860 L 415.791 771.346 L 415.803 771.378 L 415.815 771.410 L 416.008 771.891 L 416.199 772.372 L 416.213 772.404 L 416.225 772.435 L 416.429 772.911 L 416.633 773.388 L 416.647 773.419 L 416.661 773.451 L 416.876 773.921 L 417.091 774.393 L 417.106 774.423 L 417.120 774.455 L 417.348 774.920 L 417.574 775.386 L 417.590 775.416 L 417.605 775.447 L 417.843 775.907 L 418.081 776.367 L 418.098 776.397 L 418.114 776.428 L 418.363 776.881 L 418.612 777.335 L 418.630 777.365 L 418.646 777.395 L 418.907 777.843 L 419.167 778.290 L 419.185 778.320 L 419.202 778.349 L 419.474 778.790 L 419.745 779.232 L 419.764 779.260 L 419.782 779.290 L 420.064 779.724 L 420.346 780.158 L 420.365 780.187 L 420.384 780.215 L 420.677 780.642 L 420.969 781.070 L 420.989 781.098 L 421.009 781.126 L 421.312 781.546 L 421.615 781.966 L 421.636 781.993 L 421.656 782.021 L 421.969 782.433 L 422.282 782.846 L 422.304 782.873 L 422.324 782.900 L 422.648 783.304 L 422.971 783.709 L 422.993 783.736 L 423.015 783.762 L 423.348 784.159 L 423.681 784.555 L 423.703 784.581 L 423.726 784.607 L 424.069 784.995 L 424.411 785.384 L 424.434 785.409 L 424.457 785.435 L 424.810 785.814 L 425.162 786.194 L 425.186 786.219 L 425.209 786.244 L 425.571 786.615 L 425.932 786.986 L 425.956 787.010 L 425.980 787.035 L 426.351 787.396 L 426.721 787.758 L 426.746 787.782 L 426.771 787.806 L 427.150 788.158 L 427.529 788.511 L 427.555 788.534 L 427.580 788.558 L 427.968 788.901 L 428.355 789.244 L 428.381 789.266 L 428.407 789.289 L 428.803 789.623 L 429.199 789.957 L 429.226 789.978 L 429.252 790.000 L 429.657 790.324 L 430.060 790.648 L 430.088 790.669 L 430.115 790.690 L 430.527 791.004 L 430.938 791.318 L 430.966 791.338 L 430.994 791.359 L 431.413 791.662 L 431.833 791.966 L 431.861 791.986 L 431.889 792.006 L 432.316 792.299 L 432.742 792.593 L 432.771 792.611 L 432.799 792.631 L 433.233 792.913 L 433.667 793.196 L 433.696 793.214 L 433.725 793.233 L 434.166 793.505 L 434.606 793.777 L 434.636 793.794 L 434.665 793.812 L 435.113 794.073 L 435.560 794.335 L 435.590 794.351 L 435.620 794.369 L 436.073 794.618 L 436.527 794.869 L 436.557 794.885 L 436.587 794.901 L 437.047 795.140 L 437.506 795.379 L 437.537 795.394 L 437.567 795.410 L 438.033 795.637 L 438.498 795.865 L 438.529 795.879 L 438.560 795.894 L 439.031 796.110 L 439.501 796.326 L 439.533 796.340 L 439.564 796.354 L 440.040 796.558 L 440.516 796.763 L 440.548 796.776 L 440.579 796.789 L 441.060 796.982 L 441.541 797.175 L 441.573 797.187 L 441.605 797.199 L 442.090 797.380 L 442.575 797.561 L 442.608 797.572 L 442.640 797.584 L 443.130 797.753 L 443.619 797.922 L 443.652 797.932 L 443.684 797.943 L 444.178 798.100 L 444.671 798.257 L 444.704 798.267 L 444.737 798.277 L 445.235 798.421 L 445.732 798.566 L 445.765 798.575 L 445.798 798.585 L 446.299 798.717 L 446.799 798.849 L 446.833 798.857 L 446.866 798.866 L 447.370 798.986 L 447.873 799.106 L 447.907 799.113 L 447.940 799.121 L 448.447 799.229 L 448.954 799.337 L 448.987 799.343 L 449.021 799.350 L 449.530 799.445 L 450.039 799.540 L 450.073 799.546 L 450.107 799.552 L 450.618 799.634 L 451.129 799.718 L 451.163 799.722 L 451.197 799.728 L 451.710 799.797 L 452.223 799.868 L 452.257 799.872 L 452.292 799.876 L 452.806 799.933 L 453.321 799.991 L 453.355 799.994 L 453.389 799.998 L 453.905 800.042 L 454.421 800.088 L 454.455 800.090 L 454.490 800.093 L 455.007 800.125 L 455.523 800.157 L 455.558 800.158 L 455.592 800.160 L 456.109 800.180 L 456.627 800.199 L 456.661 800.200 L 456.696 800.201 L 457.213 800.208 L 457.731 800.215 L 457.766 800.214 L 457.800 800.215 L 458.318 800.208 L 458.836 800.203 L 458.870 800.202 L 458.904 800.201 L 459.422 800.182 L 459.939 800.164 L 459.974 800.162 L 460.008 800.160 L 460.525 800.129 L 461.042 800.098 L 461.076 800.095 L 461.110 800.093 L 461.626 800.048 L 462.142 800.005 L 462.177 800.001 L 462.211 799.998 L 462.725 799.941 L 463.240 799.885 L 463.274 799.880 L 463.308 799.876 L 463.822 799.807 L 464.335 799.738 L 464.369 799.732 L 464.403 799.728 L 464.914 799.645 L 465.426 799.564 L 465.459 799.558 L 465.493 799.552 L 466.002 799.457 L 466.512 799.363 L 466.545 799.356 L 466.579 799.350 L 467.086 799.243 L 467.593 799.136 L 467.626 799.128 L 467.660 799.121 L 468.163 799.002 L 468.667 798.883 L 468.701 798.874 L 468.734 798.866 L 469.235 798.734 L 469.736 798.603 L 469.769 798.593 L 469.802 798.585 L 470.299 798.440 L 470.797 798.297 L 470.830 798.287 L 470.863 798.277 L 471.357 798.121 L 471.850 797.965 L 471.883 797.954 L 471.916 797.943 L 472.405 797.775 L 472.895 797.607 L 472.928 797.595 L 472.960 797.584 L 473.445 797.404 L 473.931 797.224 L 473.963 797.211 L 473.995 797.199 L 474.476 797.007 L 474.957 796.816 L 474.989 796.802 L 475.021 796.789 L 475.497 796.585 L 475.973 796.382 L 476.004 796.368 L 476.036 796.354 L 476.507 796.138 L 476.978 795.924 L 477.009 795.909 L 477.040 795.894 L 477.505 795.667 L 477.971 795.441 L 479.930 794.458 L 480.319 794.261 L 482.266 793.261 L 482.654 793.059 L 484.589 792.042 L 484.976 791.836 L 486.898 790.801 L 487.284 790.590 L 489.193 789.538 L 489.578 789.323 L 491.474 788.254 L 491.858 788.035 L 493.741 786.948 L 494.124 786.725 L 495.994 785.621 L 496.376 785.393 L 498.231 784.273 L 498.612 784.041 L 500.454 782.904 L 500.833 782.667 L 502.661 781.514 L 503.040 781.272 L 504.853 780.102 L 505.230 779.857 L 507.029 778.670 L 507.405 778.420 L 509.189 777.218 L 509.563 776.963 L 511.333 775.744 L 511.706 775.485 L 513.460 774.251 L 513.831 773.987 L 515.571 772.737 L 515.940 772.468 L 517.665 771.202 L 518.032 770.929 L 519.741 769.648 L 520.107 769.370 L 521.800 768.074 L 522.164 767.791 L 523.841 766.479 L 524.203 766.193 L 525.864 764.866 L 526.225 764.574 L 527.869 763.232 L 528.228 762.936 L 529.855 761.579 L 530.212 761.279 L 531.823 759.907 L 532.178 759.602 L 533.772 758.216 L 534.125 757.906 L 535.702 756.506 L 536.053 756.191 L 537.612 754.777 L 537.961 754.457 L 539.503 753.029 L 539.849 752.705 L 541.374 751.263 L 541.718 750.934 L 543.224 749.478 L 543.566 749.145 L 545.055 747.675 L 545.394 747.337 L 546.865 745.854 L 547.201 745.511 L 548.654 744.016 L 548.988 743.668 L 550.422 742.159 L 550.753 741.807 L 552.168 740.285 L 552.497 739.928 L 553.894 738.393 L 554.219 738.031 L 555.597 736.484 L 555.920 736.118 L 557.279 734.559 L 557.598 734.187 L 558.938 732.616 L 559.255 732.240 L 560.575 730.657 L 560.889 730.276 L 562.189 728.681 L 562.500 728.296 L 563.781 726.689 L 564.088 726.299 L 565.349 724.680 L 565.653 724.286 L 566.894 722.656 L 567.194 722.257 L 568.416 720.616 L 568.713 720.213 L 569.914 718.561 L 570.207 718.153 L 571.388 716.490 L 571.677 716.078 L 572.837 714.405 L 573.123 713.988 L 574.263 712.304 L 574.544 711.883 L 575.663 710.189 L 575.941 709.763 L 577.040 708.059 L 577.313 707.629 L 578.391 705.915 L 578.660 705.481 L 579.716 703.758 L 579.982 703.319 L 581.017 701.586 L 581.278 701.143 L 582.292 699.401 L 582.549 698.953 L 583.541 697.202 L 583.793 696.751 L 584.764 694.991 L 585.012 694.535 L 585.961 692.767 L 586.204 692.307 L 587.131 690.530 L 587.370 690.066 L 588.275 688.281 L 588.509 687.813 L 589.393 686.020 L 589.622 685.548 L 590.483 683.747 L 590.707 683.272 L 591.546 681.463 L 591.765 680.984 L 592.582 679.167 L 592.796 678.684 L 593.591 676.861 L 593.799 676.374 L 594.572 674.543 L 594.775 674.053 L 595.525 672.216 L 595.723 671.722 L 596.450 669.878 L 596.643 669.381 L 597.347 667.530 L 597.534 667.030 L 598.216 665.173 L 598.398 664.669 L 599.057 662.806 L 599.233 662.300 L 599.869 660.431 L 600.039 659.921 L 600.652 658.046 L 600.816 657.534 L 601.407 655.654 L 601.565 655.138 L 602.132 653.253 L 602.285 652.734 L 602.828 650.844 L 602.975 650.323 L 603.496 648.428 L 603.636 647.904 L 604.134 646.005 L 604.268 645.478 L 604.742 643.574 L 604.870 643.046 L 605.321 641.138 L 605.443 640.607 L 605.870 638.695 L 605.986 638.162 L 606.390 636.246 L 606.499 635.711 L 606.880 633.791 L 606.983 633.254 L 607.339 631.331 L 607.436 630.793 L 607.769 628.867 L 607.859 628.326 L 608.169 626.397 L 608.252 625.855 L 608.538 623.924 L 608.615 623.380 L 608.877 621.446 L 608.948 620.901 L 609.186 618.965 L 609.250 618.418 L 609.465 616.480 L 609.522 615.933 L 609.713 613.992 L 609.763 613.444 L 609.930 611.502 L 609.974 610.953 L 610.117 609.010 L 610.154 608.460 L 610.274 606.516 L 610.304 605.965 L 610.400 604.020 L 610.423 603.468 L 610.495 601.522 L 610.512 600.971 L 610.560 599.024 L 610.570 598.472 L 610.594 596.525 L 610.597 595.974 L 610.597 594.026 L 610.594 593.475 L 610.570 591.528 L 610.560 590.976 L 610.512 589.029 L 610.495 588.478 L 610.423 586.532 L 610.400 585.980 L 610.304 584.035 L 610.274 583.484 L 610.154 581.540 L 610.117 580.990 L 609.974 579.047 L 609.930 578.498 L 609.763 576.556 L 609.713 576.008 L 609.522 574.067 L 609.465 573.520 L 609.250 571.582 L 609.186 571.035 L 608.948 569.099 L 608.877 568.554 L 608.615 566.620 L 608.538 566.076 L 608.252 564.145 L 608.169 563.603 L 607.859 561.674 L 607.769 561.133 L 607.436 559.207 L 607.339 558.669 L 606.983 556.746 L 606.880 556.209 L 606.499 554.289 L 606.390 553.754 L 605.986 551.838 L 605.870 551.305 L 605.443 549.393 L 605.321 548.862 L 604.870 546.954 L 604.742 546.426 L 604.268 544.522 L 604.134 543.995 L 603.636 542.096 L 603.496 541.572 L 602.975 539.677 L 602.828 539.156 L 602.285 537.266 L 602.132 536.747 L 601.565 534.862 L 601.407 534.346 L 600.816 532.466 L 600.652 531.954 L 600.039 530.079 L 599.869 529.569 L 599.233 527.700 L 599.057 527.194 L 598.398 525.331 L 598.216 524.827 L 597.534 522.970 L 597.347 522.470 L 596.643 520.619 L 596.450 520.122 L 595.723 518.278 L 595.525 517.784 L 594.775 515.947 L 594.572 515.457 L 593.799 513.626 L 593.591 513.139 L 592.796 511.316 L 592.582 510.833 L 591.765 509.016 L 591.546 508.537 L 590.707 506.728 L 590.483 506.253 L 589.622 504.452 L 589.393 503.980 L 588.509 502.187 L 588.275 501.719 L 587.370 499.934 L 587.131 499.470 L 586.204 497.693 L 585.961 497.233 L 585.012 495.465 L 584.764 495.009 L 583.793 493.249 L 583.541 492.798 L 582.549 491.047 L 582.292 490.599 L 581.278 488.857 L 581.017 488.414 L 579.982 486.681 L 579.716 486.242 L 578.660 484.519 L 578.391 484.085 L 577.313 482.371 L 577.040 481.941 L 575.941 480.237 L 575.663 479.811 L 574.544 478.117 L 574.263 477.696 L 573.123 476.012 L 572.837 475.595 L 571.677 473.922 L 571.388 473.510 L 570.207 471.847 L 569.914 471.439 L 568.713 469.787 L 568.416 469.384 L 567.194 467.743 L 566.894 467.344 L 565.653 465.714 L 565.349 465.320 L 564.088 463.701 L 563.781 463.311 L 562.500 461.704 L 562.189 461.319 L 560.889 459.724 L 560.575 459.343 L 559.255 457.760 L 558.938 457.384 L 557.598 455.813 L 557.279 455.441 L 556.894 455.000 L 570.000 455.000 L 571.104 454.986 L 572.208 454.946 L 573.310 454.878 L 574.411 454.783 L 575.508 454.662 L 576.603 454.513 L 577.693 454.337 L 578.779 454.135 L 579.860 453.907 L 580.934 453.651 L 582.002 453.370 L 583.063 453.062 L 584.116 452.729 L 585.160 452.369 L 586.195 451.985 L 587.221 451.575 L 588.236 451.139 L 589.240 450.680 L 590.233 450.195 L 591.213 449.686 L 592.180 449.154 L 593.135 448.598 L 594.075 448.018 L 595.001 447.416 L 595.911 446.791 L 596.806 446.144 L 597.685 445.476 L 598.548 444.785 L 599.393 444.074 L 600.220 443.343 L 601.029 442.591 L 601.820 441.820 L 602.591 441.029 L 603.343 440.220 L 604.074 439.393 L 604.785 438.548 L 605.476 437.685 L 606.144 436.806 L 606.791 435.911 L 607.416 435.001 L 608.018 434.075 L 608.598 433.135 L 609.154 432.180 L 609.686 431.213 L 610.195 430.233 L 610.680 429.240 L 611.139 428.236 L 611.575 427.221 L 611.985 426.195 L 612.369 425.160 L 612.729 424.116 L 613.062 423.063 L 613.370 422.002 L 613.651 420.934 L 613.907 419.860 L 614.135 418.779 L 614.337 417.693 L 614.513 416.603 L 614.662 415.508 L 614.783 414.411 L 614.878 413.310 L 614.946 412.208 L 614.986 411.104 L 615.000 410.000 L 614.986 408.896 L 614.946 407.792 L 614.878 406.690 L 614.783 405.589 L 614.662 404.492 L 614.513 403.397 L 614.337 402.307 L 614.135 401.221 L 613.907 400.140 L 613.651 399.066 L 613.370 397.998 L 613.062 396.937 L 612.729 395.884 L 612.369 394.840 L 611.985 393.805 L 611.575 392.779 L 611.139 391.764 L 610.680 390.760 L 610.195 389.767 L 609.686 388.787 L 609.154 387.820 L 608.598 386.865 L 608.018 385.925 L 607.416 384.999 L 606.791 384.089 L 606.144 383.194 L 605.476 382.315 L 604.785 381.452 L 604.074 380.607 L 603.343 379.780 L 602.591 378.971 L 601.820 378.180 L 601.029 377.409 L 600.220 376.657 L 599.393 375.926 L 598.548 375.215 L 597.685 374.524 L 596.806 373.856 L 595.911 373.209 L 595.001 372.584 L 594.075 371.982 L 593.135 371.402 L 592.180 370.846 L 591.213 370.314 L 590.233 369.805 L 589.240 369.320 L 588.236 368.861 L 587.221 368.425 L 586.195 368.015 L 585.160 367.631 L 584.116 367.271 L 583.063 366.938 L 582.002 366.630 L 580.934 366.349 L 579.860 366.093 L 578.779 365.865 L 577.693 365.663 L 576.603 365.487 L 575.508 365.338 L 574.411 365.217 L 573.310 365.122 L 572.208 365.054 L 571.104 365.014 L 570.000 365.000 L 556.894 365.000 L 557.279 364.559 L 557.598 364.187 L 558.938 362.616 L 559.255 362.240 L 560.575 360.657 L 560.889 360.276 L 562.189 358.681 L 562.500 358.296 L 563.781 356.689 L 564.088 356.299 L 565.349 354.680 L 565.653 354.286 L 566.894 352.656 L 567.194 352.257 L 568.416 350.616 L 568.713 350.213 L 569.914 348.561 L 570.207 348.153 L 571.388 346.490 L 571.677 346.078 L 572.837 344.405 L 573.123 343.988 L 574.263 342.304 L 574.544 341.883 L 575.663 340.189 L 575.941 339.763 L 577.040 338.059 L 577.313 337.629 L 578.391 335.915 L 578.660 335.481 L 579.716 333.758 L 579.982 333.319 L 581.017 331.586 L 581.278 331.143 L 582.292 329.401 L 582.549 328.953 L 583.541 327.202 L 583.793 326.751 L 584.764 324.991 L 585.012 324.535 L 585.961 322.767 L 586.204 322.307 L 587.131 320.530 L 587.370 320.066 L 588.275 318.281 L 588.509 317.813 L 589.393 316.020 L 589.622 315.548 L 590.483 313.747 L 590.707 313.272 L 591.546 311.463 L 591.765 310.984 L 592.582 309.167 L 592.796 308.684 L 593.591 306.861 L 593.799 306.374 L 594.572 304.543 L 594.775 304.053 L 595.525 302.216 L 595.723 301.722 L 596.450 299.878 L 596.643 299.381 L 597.347 297.530 L 597.534 297.030 L 598.216 295.173 L 598.398 294.669 L 599.057 292.806 L 599.233 292.300 L 599.869 290.431 L 600.039 289.921 L 600.652 288.046 L 600.816 287.534 L 601.407 285.654 L 601.565 285.138 L 602.132 283.253 L 602.285 282.734 L 602.828 280.844 L 602.975 280.323 L 603.496 278.428 L 603.636 277.904 L 604.134 276.005 L 604.268 275.478 L 604.742 273.574 L 604.870 273.046 L 605.321 271.138 L 605.443 270.607 L 605.870 268.695 L 605.986 268.162 L 606.390 266.246 L 606.499 265.711 L 606.880 263.791 L 606.983 263.254 L 607.339 261.331 L 607.436 260.793 L 607.769 258.867 L 607.859 258.326 L 608.169 256.397 L 608.252 255.855 L 608.538 253.924 L 608.615 253.380 L 608.877 251.446 L 608.948 250.901 L 609.186 248.965 L 609.250 248.418 L 609.465 246.480 L 609.522 245.933 L 609.713 243.992 L 609.763 243.444 L 609.930 241.502 L 609.974 240.953 L 610.117 239.010 L 610.154 238.460 L 610.274 236.516 L 610.304 235.965 L 610.400 234.020 L 610.423 233.468 L 610.495 231.522 L 610.512 230.971 L 610.560 229.024 L 610.570 228.472 L 610.594 226.525 L 610.597 225.974 L 610.597 224.026 L 610.594 223.475 L 610.570 221.528 L 610.560 220.976 L 610.512 219.029 L 610.495 218.478 L 610.423 216.532 L 610.400 215.980 L 610.304 214.035 L 610.274 213.484 L 610.154 211.540 L 610.117 210.990 L 609.974 209.047 L 609.930 208.498 L 609.763 206.556 L 609.713 206.008 L 609.522 204.067 L 609.465 203.520 L 609.250 201.582 L 609.186 201.035 L 608.948 199.099 L 608.877 198.554 L 608.615 196.620 L 608.538 196.076 L 608.252 194.145 L 608.169 193.603 L 607.859 191.674 L 607.769 191.133 L 607.436 189.207 L 607.339 188.669 L 606.983 186.746 L 606.880 186.209 L 606.499 184.289 L 606.390 183.754 L 605.986 181.838 L 605.870 181.305 L 605.443 179.393 L 605.321 178.862 L 604.870 176.954 L 604.742 176.426 L 604.268 174.522 L 604.134 173.995 L 603.636 172.096 L 603.496 171.572 L 602.975 169.677 L 602.828 169.156 L 602.285 167.266 L 602.132 166.747 L 601.565 164.862 L 601.407 164.346 L 600.816 162.466 L 600.652 161.954 L 600.039 160.079 L 599.869 159.569 L 599.233 157.700 L 599.057 157.194 L 598.398 155.331 L 598.216 154.827 L 597.534 152.970 L 597.347 152.470 L 596.643 150.619 L 596.450 150.122 L 595.723 148.278 L 595.525 147.784 L 594.775 145.947 L 594.572 145.457 L 593.799 143.626 L 593.591 143.139 L 592.796 141.316 L 592.582 140.833 L 591.765 139.016 L 591.546 138.537 L 590.707 136.728 L 590.483 136.253 L 589.622 134.452 L 589.393 133.980 L 588.509 132.187 L 588.275 131.719 L 587.370 129.934 L 587.131 129.470 L 586.204 127.693 L 585.961 127.233 L 585.012 125.465 L 584.764 125.009 L 583.793 123.249 L 583.541 122.798 L 582.549 121.047 L 582.292 120.599 L 581.278 118.857 L 581.017 118.414 L 579.982 116.681 L 579.716 116.242 L 578.660 114.519 L 578.391 114.085 L 577.313 112.371 L 577.040 111.941 L 575.941 110.237 L 575.663 109.811 L 574.544 108.117 L 574.263 107.696 L 573.123 106.012 L 572.837 105.595 L 571.677 103.922 L 571.388 103.510 L 570.207 101.847 L 569.914 101.439 L 568.713 99.787 L 568.416 99.384 L 567.194 97.743 L 566.894 97.344 L 565.653 95.714 L 565.349 95.320 L 564.088 93.701 L 563.781 93.311 L 562.500 91.704 L 562.189 91.319 L 560.889 89.724 L 560.575 89.343 L 559.255 87.760 L 558.938 87.384 L 557.598 85.813 L 557.279 85.441 L 555.920 83.882 L 555.597 83.516 L 554.219 81.969 L 553.894 81.607 L 552.497 80.072 L 552.168 79.715 L 550.753 78.193 L 550.422 77.841 L 548.988 76.332 L 548.654 75.984 L 547.201 74.489 L 546.865 74.146 L 545.394 72.663 L 545.055 72.325 L 543.566 70.855 L 543.224 70.522 L 541.718 69.066 L 541.374 68.737 L 539.849 67.295 L 539.503 66.971 L 537.961 65.543 L 537.612 65.223 L 536.053 63.809 L 535.702 63.494 L 534.125 62.094 L 533.772 61.784 L 532.178 60.398 L 531.823 60.093 L 530.212 58.721 L 529.855 58.421 L 528.228 57.064 L 527.869 56.768 L 526.225 55.426 L 525.864 55.134 L 524.203 53.807 L 523.841 53.521 L 522.164 52.209 L 521.800 51.926 L 520.107 50.630 L 519.741 50.352 L 518.032 49.071 L 517.665 48.798 L 515.940 47.532 L 515.571 47.263 L 513.831 46.013 L 513.460 45.749 L 511.706 44.515 L 511.333 44.256 L 509.563 43.037 L 509.189 42.782 L 507.405 41.580 L 507.029 41.330 L 505.230 40.143 L 504.853 39.898 L 503.040 38.728 L 502.661 38.486 L 500.833 37.333 L 500.454 37.096 L 498.612 35.959 L 498.231 35.727 L 496.376 34.607 L 495.994 34.379 L 494.124 33.275 L 493.741 33.052 L 491.858 31.965 L 491.474 31.746 L 489.578 30.677 L 489.193 30.462 L 487.284 29.410 L 486.898 29.199 L 484.976 28.164 L 484.589 27.958 L 482.654 26.941 L 482.266 26.739 L 480.319 25.739 L 479.930 25.542 L 477.971 24.559 L 477.505 24.333 L 477.040 24.106 L 477.009 24.091 L 476.978 24.076 L 476.507 23.862 L 476.036 23.646 L 476.004 23.632 L 475.973 23.618 L 475.497 23.415 L 475.021 23.211 L 474.989 23.198 L 474.957 23.184 L 474.476 22.993 L 473.995 22.801 L 473.963 22.789 L 473.931 22.776 L 473.445 22.596 L 472.960 22.416 L 472.928 22.405 L 472.895 22.393 L 472.405 22.225 L 471.916 22.057 L 471.883 22.046 L 471.850 22.035 L 471.357 21.879 L 470.863 21.723 L 470.830 21.713 L 470.797 21.703 L 470.299 21.560 L 469.802 21.415 L 469.769 21.407 L 469.736 21.397 L 469.235 21.266 L 468.734 21.134 L 468.701 21.126 L 468.667 21.117 L 468.163 20.998 L 467.660 20.879 L 467.626 20.872 L 467.593 20.864 L 467.086 20.757 L 466.579 20.650 L 466.545 20.644 L 466.512 20.637 L 466.002 20.543 L 465.493 20.448 L 465.459 20.442 L 465.426 20.436 L 464.914 20.355 L 464.403 20.272 L 464.369 20.268 L 464.335 20.262 L 463.822 20.193 L 463.308 20.124 L 463.274 20.120 L 463.240 20.115 L 462.725 20.059 L 462.211 20.002 L 462.177 19.999 L 462.142 19.995 L 461.626 19.952 L 461.110 19.907 L 461.076 19.905 L 461.042 19.902 L 460.525 19.871 L 460.008 19.840 L 459.974 19.838 L 459.939 19.836 L 459.422 19.818 L 458.904 19.799 L 458.870 19.798 L 458.836 19.797 L 458.318 19.792 L 457.800 19.785 L 457.766 19.786 L 457.731 19.785 L 457.213 19.792 L 456.696 19.799 L 456.661 19.800 L 456.627 19.801 L 456.109 19.820 L 455.592 19.840 L 455.558 19.842 L 455.523 19.843 L 455.007 19.875 L 454.490 19.907 L 454.455 19.910 L 454.421 19.912 L 453.905 19.958 L 453.389 20.002 L 453.355 20.006 L 453.321 20.009 L 452.806 20.067 L 452.292 20.124 L 452.257 20.128 L 452.223 20.132 L 451.710 20.203 L 451.197 20.272 L 451.163 20.278 L 451.129 20.282 L 450.618 20.366 L 450.107 20.448 L 450.073 20.454 L 450.039 20.460 L 449.530 20.555 L 449.021 20.650 L 448.987 20.657 L 448.954 20.663 L 448.447 20.771 L 447.940 20.879 L 447.907 20.887 L 447.873 20.894 L 447.370 21.014 L 446.866 21.134 L 446.833 21.143 L 446.799 21.151 L 446.299 21.283 L 445.798 21.415 L 445.765 21.425 L 445.732 21.434 L 445.235 21.579 L 444.737 21.723 L 444.704 21.733 L 444.671 21.743 L 444.178 21.900 L 443.684 22.057 L 443.652 22.068 L 443.619 22.078 L 443.130 22.247 L 442.640 22.416 L 442.608 22.428 L 442.575 22.439 L 442.090 22.620 L 441.605 22.801 L 441.573 22.813 L 441.541 22.825 L 441.060 23.018 L 440.579 23.211 L 440.548 23.224 L 440.516 23.237 L 440.040 23.442 L 439.564 23.646 L 439.533 23.660 L 439.501 23.674 L 439.031 23.890 L 438.560 24.106 L 438.529 24.121 L 438.498 24.135 L 438.033 24.363 L 437.567 24.590 L 437.537 24.606 L 437.506 24.621 L 437.047 24.860 L 436.587 25.099 L 436.557 25.115 L 436.527 25.131 L 436.073 25.382 L 435.620 25.631 L 435.590 25.649 L 435.560 25.665 L 435.113 25.927 L 434.665 26.188 L 434.636 26.206 L 434.606 26.223 L 434.166 26.495 L 433.725 26.767 L 433.696 26.786 L 433.667 26.804 L 433.233 27.087 L 432.799 27.369 L 432.771 27.389 L 432.742 27.407 L 432.316 27.701 L 431.889 27.994 L 431.861 28.014 L 431.833 28.034 L 431.413 28.338 L 430.994 28.641 L 430.966 28.662 L 430.938 28.682 L 430.527 28.996 L 430.115 29.310 L 430.088 29.331 L 430.060 29.352 L 429.657 29.676 L 429.252 30.000 L 429.226 30.022 L 429.199 30.043 L 428.803 30.377 L 428.407 30.711 L 428.381 30.734 L 428.355 30.756 L 427.968 31.099 L 427.580 31.442 L 427.555 31.466 L 427.529 31.489 L 427.150 31.842 L 426.771 32.194 L 426.746 32.218 L 426.721 32.242 L 426.351 32.604 L 425.980 32.965 L 425.956 32.990 L 425.932 33.014 L 425.571 33.385 L 425.209 33.756 L 425.186 33.781 L 425.162 33.806 L 424.810 34.186 L 424.457 34.565 L 424.434 34.591 L 424.411 34.616 L 424.069 35.005 L 423.726 35.393 L 423.703 35.419 L 423.681 35.445 L 423.348 35.841 L 423.015 36.238 L 422.993 36.264 L 422.971 36.291 L 422.648 36.696 L 422.324 37.100 L 422.304 37.127 L 422.282 37.154 L 421.969 37.567 L 421.656 37.979 L 421.636 38.007 L 421.615 38.034 L 421.312 38.454 L 421.009 38.874 L 420.989 38.902 L 420.969 38.930 L 420.677 39.358 L 420.384 39.785 L 420.365 39.813 L 420.346 39.842 L 420.064 40.276 L 419.782 40.710 L 419.764 40.740 L 419.745 40.768 L 419.474 41.210 L 419.202 41.651 L 419.185 41.680 L 419.167 41.710 L 418.907 42.157 L 418.646 42.605 L 418.630 42.635 L 418.612 42.665 L 418.363 43.119 L 418.114 43.572 L 418.098 43.603 L 418.081 43.633 L 417.843 44.093 L 417.605 44.553 L 417.590 44.584 L 417.574 44.614 L 417.348 45.080 L 417.120 45.545 L 417.106 45.577 L 417.091 45.607 L 416.876 46.079 L 416.661 46.549 L 416.647 46.581 L 416.633 46.612 L 416.429 47.089 L 416.225 47.565 L 416.213 47.596 L 416.199 47.628 L 416.008 48.109 L 415.815 48.590 L 415.803 48.622 L 415.791 48.654 L 415.611 49.140 L 415.431 49.625 L 415.419 49.658 L 415.407 49.690 L 415.240 50.180 L 415.071 50.670 L 415.061 50.702 L 415.050 50.735 L 414.894 51.229 L 414.738 51.722 L 414.728 51.755 L 414.718 51.788 L 414.574 52.286 L 414.430 52.783 L 414.421 52.816 L 414.412 52.849 L 414.281 53.350 L 414.149 53.851 L 414.141 53.885 L 414.132 53.918 L 414.013 54.422 L 413.893 54.926 L 413.886 54.959 L 413.878 54.993 L 413.772 55.500 L 413.665 56.006 L 413.658 56.040 L 413.651 56.074 L 413.557 56.583 L 413.463 57.092 L 413.457 57.126 L 413.451 57.160 L 413.369 57.671 L 413.287 58.182 L 413.282 58.216 L 413.277 58.250 L 413.208 58.764 L 413.138 59.277 L 413.135 59.311 L 413.130 59.345 L 413.074 59.860 L 413.017 60.375 L 413.014 60.409 L 413.010 60.443 L 412.966 60.959 L 412.922 61.475 L 412.920 61.509 L 412.917 61.543 L 412.886 62.060 L 412.854 62.577 L 412.853 62.612 L 412.851 62.646 L 412.833 63.163 L 412.814 63.681 L 412.813 63.715 L 412.812 63.750 L 412.806 64.267 L 412.800 64.785 L 412.800 365.000 L 330.000 365.000 Z M 502.847 163.052 L 503.618 164.343 L 504.373 165.640 L 505.110 166.942 L 505.831 168.248 L 506.534 169.559 L 507.221 170.874 L 507.890 172.194 L 508.542 173.518 L 509.177 174.846 L 509.795 176.177 L 510.396 177.513 L 510.979 178.852 L 511.545 180.194 L 512.095 181.540 L 512.627 182.889 L 513.141 184.241 L 513.639 185.596 L 514.119 186.954 L 514.582 188.315 L 515.028 189.679 L 515.457 191.044 L 515.869 192.413 L 516.263 193.783 L 516.640 195.156 L 517.000 196.531 L 517.343 197.907 L 517.669 199.286 L 517.977 200.666 L 518.268 202.048 L 518.542 203.432 L 518.799 204.817 L 519.039 206.203 L 519.262 207.590 L 519.467 208.979 L 519.656 210.369 L 519.827 211.759 L 519.981 213.151 L 520.118 214.543 L 520.238 215.936 L 520.340 217.329 L 520.426 218.723 L 520.494 220.118 L 520.546 221.512 L 520.580 222.907 L 520.597 224.302 L 520.597 225.698 L 520.580 227.093 L 520.546 228.488 L 520.494 229.882 L 520.426 231.277 L 520.340 232.671 L 520.238 234.064 L 520.118 235.457 L 519.981 236.849 L 519.827 238.241 L 519.656 239.631 L 519.467 241.021 L 519.262 242.410 L 519.039 243.797 L 518.799 245.183 L 518.542 246.568 L 518.268 247.952 L 517.977 249.334 L 517.669 250.714 L 517.343 252.093 L 517.000 253.469 L 516.640 254.844 L 516.263 256.217 L 515.869 257.587 L 515.457 258.956 L 515.028 260.321 L 514.582 261.685 L 514.119 263.046 L 513.639 264.404 L 513.141 265.759 L 512.627 267.111 L 512.095 268.460 L 511.545 269.806 L 510.979 271.148 L 510.396 272.487 L 509.795 273.823 L 509.177 275.154 L 508.542 276.482 L 507.890 277.806 L 507.221 279.126 L 506.534 280.441 L 505.831 281.752 L 505.110 283.058 L 504.373 284.360 L 503.618 285.657 L 502.847 286.948 L 502.800 287.024 L 502.800 162.976 L 502.847 163.052 Z M 502.847 533.052 L 503.618 534.343 L 504.373 535.640 L 505.110 536.942 L 505.831 538.248 L 506.534 539.559 L 507.221 540.874 L 507.890 542.194 L 508.542 543.518 L 509.177 544.846 L 509.795 546.177 L 510.396 547.513 L 510.979 548.852 L 511.545 550.194 L 512.095 551.540 L 512.627 552.889 L 513.141 554.241 L 513.639 555.596 L 514.119 556.954 L 514.582 558.315 L 515.028 559.679 L 515.457 561.044 L 515.869 562.413 L 516.263 563.783 L 516.640 565.156 L 517.000 566.531 L 517.343 567.907 L 517.669 569.286 L 517.977 570.666 L 518.268 572.048 L 518.542 573.432 L 518.799 574.817 L 519.039 576.203 L 519.262 577.590 L 519.467 578.979 L 519.656 580.369 L 519.827 581.759 L 519.981 583.151 L 520.118 584.543 L 520.238 585.936 L 520.340 587.329 L 520.426 588.723 L 520.494 590.118 L 520.546 591.512 L 520.580 592.907 L 520.597 594.302 L 520.597 595.698 L 520.580 597.093 L 520.546 598.488 L 520.494 599.882 L 520.426 601.277 L 520.340 602.671 L 520.238 604.064 L 520.118 605.457 L 519.981 606.849 L 519.827 608.241 L 519.656 609.631 L 519.467 611.021 L 519.262 612.410 L 519.039 613.797 L 518.799 615.183 L 518.542 616.568 L 518.268 617.952 L 517.977 619.334 L 517.669 620.714 L 517.343 622.093 L 517.000 623.469 L 516.640 624.844 L 516.263 626.217 L 515.869 627.587 L 515.457 628.956 L 515.028 630.321 L 514.582 631.685 L 514.119 633.046 L 513.639 634.404 L 513.141 635.759 L 512.627 637.111 L 512.095 638.460 L 511.545 639.806 L 510.979 641.148 L 510.396 642.487 L 509.795 643.823 L 509.177 645.154 L 508.542 646.482 L 507.890 647.806 L 507.221 649.126 L 506.534 650.441 L 505.831 651.752 L 505.110 653.058 L 504.373 654.360 L 503.618 655.657 L 502.847 656.948 L 502.800 657.024 L 502.800 532.976 L 502.847 533.052 Z" fill="black" fill-rule="evenodd"/>
</svg>
