<svg xmlns="http://www.w3.org/2000/svg" viewBox="0 0 700.000 1000" width="700.000" height="1000">
  <path d="M 526.603 454.513 L 527.693 454.337 L 528.779 454.135 L 529.860 453.907 L 530.934 453.651 L 532.002 453.370 L 533.063 453.062 L 534.116 452.729 L 535.160 452.369 L 536.195 451.985 L 537.221 451.575 L 538.236 451.139 L 539.240 450.680 L 540.233 450.195 L 541.213 449.686 L 542.180 449.154 L 543.135 448.598 L 544.075 448.018 L 545.001 447.416 L 545.911 446.791 L 546.806 446.144 L 547.685 445.476 L 548.548 444.785 L 549.393 444.074 L 550.220 443.343 L 551.029 442.591 L 551.820 441.820 L 552.591 441.029 L 553.343 440.220 L 554.074 439.393 L 554.785 438.548 L 555.476 437.685 L 556.144 436.806 L 556.791 435.911 L 557.416 435.001 L 558.018 434.075 L 558.598 433.135 L 559.154 432.180 L 559.686 431.213 L 560.195 430.233 L 560.680 429.240 L 561.139 428.236 L 561.575 427.221 L 561.985 426.195 L 562.369 425.160 L 562.729 424.116 L 563.062 423.063 L 563.370 422.002 L 563.651 420.934 L 563.907 419.860 L 564.135 418.779 L 564.337 417.693 L 564.513 416.603 L 564.662 415.508 L 564.783 414.411 L 564.878 413.310 L 564.946 412.208 L 564.986 411.104 L 565.000 410.000 L 564.986 408.896 L 564.946 407.792 L 564.878 406.690 L 564.783 405.589 L 564.662 404.492 L 564.513 403.397 L 564.337 402.307 L 564.135 401.221 L 563.907 400.140 L 563.651 399.066 L 563.370 397.998 L 563.062 396.937 L 562.729 395.884 L 562.369 394.840 L 561.985 393.805 L 561.575 392.779 L 561.139 391.764 L 560.680 390.760 L 560.195 389.767 L 559.686 388.787 L 559.154 387.820 L 558.598 386.865 L 558.018 385.925 L 557.416 384.999 L 556.791 384.089 L 556.144 383.194 L 555.476 382.315 L 554.785 381.452 L 554.074 380.607 L 553.343 379.780 L 552.591 378.971 L 551.820 378.180 L 551.029 377.409 L 550.220 376.657 L 549.393 375.926 L 548.548 375.215 L 547.685 374.524 L 546.806 373.856 L 545.911 373.209 L 545.001 372.584 L 544.075 371.982 L 543.135 371.402 L 542.180 370.846 L 541.213 370.314 L 540.233 369.805 L 539.240 369.320 L 539.166 369.287 L 538.365 367.134 L 538.012 366.215 L 537.638 365.304 L 537.245 364.401 L 536.832 363.508 L 535.037 359.733 L 534.609 358.857 L 534.162 357.991 L 533.696 357.134 L 533.212 356.288 L 531.115 352.713 L 530.459 351.629 L 529.772 350.564 L 529.056 349.520 L 526.667 346.137 L 525.952 345.153 L 525.211 344.189 L 524.443 343.245 L 521.773 340.049 L 521.023 339.174 L 520.251 338.319 L 519.457 337.484 L 516.517 334.469 L 515.754 333.705 L 514.973 332.960 L 514.175 332.234 L 510.975 329.393 L 510.219 328.737 L 509.448 328.097 L 508.663 327.475 L 505.215 324.803 L 504.480 324.246 L 503.734 323.703 L 502.978 323.177 L 499.291 320.666 L 498.235 319.969 L 497.159 319.301 L 493.245 316.947 L 492.249 316.365 L 491.238 315.808 L 487.107 313.604 L 486.176 313.121 L 485.235 312.660 L 480.898 310.599 L 480.035 310.200 L 479.164 309.820 L 474.633 307.897 L 473.837 307.568 L 473.035 307.254 L 468.320 305.463 L 466.855 304.935 L 461.966 303.269 L 460.626 302.835 L 455.575 301.289 L 454.354 300.933 L 449.151 299.500 L 448.039 299.208 L 442.696 297.882 L 441.687 297.643 L 436.213 296.417 L 435.299 296.223 L 429.705 295.091 L 428.880 294.932 L 423.177 293.890 L 422.433 293.760 L 416.633 292.800 L 415.965 292.694 L 410.078 291.810 L 409.481 291.725 L 403.517 290.911 L 402.987 290.841 L 396.958 290.091 L 396.489 290.036 L 390.405 289.344 L 389.996 289.299 L 383.868 288.659 L 383.515 288.623 L 377.354 288.028 L 377.055 288.000 L 370.872 287.445 L 370.625 287.424 L 364.430 286.902 L 364.234 286.886 L 358.038 286.391 L 357.892 286.379 L 351.706 285.906 L 351.609 285.898 L 345.443 285.439 L 345.397 285.436 L 339.264 284.986 L 333.201 284.541 L 327.243 284.096 L 321.403 283.646 L 315.694 283.185 L 310.130 282.708 L 304.726 282.210 L 299.497 281.688 L 294.461 281.137 L 289.634 280.555 L 285.038 279.940 L 280.691 279.290 L 276.618 278.608 L 272.843 277.896 L 269.393 277.161 L 266.416 276.443 L 266.708 275.045 L 267.438 272.195 L 268.298 269.369 L 269.290 266.556 L 270.417 263.751 L 271.681 260.947 L 273.087 258.142 L 274.638 255.332 L 276.335 252.517 L 278.182 249.696 L 280.181 246.871 L 282.332 244.043 L 284.636 241.215 L 287.093 238.390 L 289.702 235.571 L 292.461 232.761 L 295.367 229.965 L 298.419 227.186 L 301.613 224.428 L 304.946 221.693 L 308.412 218.987 L 312.009 216.311 L 315.730 213.670 L 319.573 211.066 L 323.530 208.502 L 327.597 205.981 L 331.770 203.504 L 336.041 201.075 L 340.406 198.696 L 344.859 196.368 L 349.394 194.093 L 354.006 191.873 L 358.688 189.710 L 363.435 187.604 L 368.241 185.558 L 373.101 183.572 L 378.007 181.647 L 382.955 179.785 L 387.939 177.986 L 392.952 176.252 L 397.989 174.582 L 403.043 172.978 L 408.110 171.441 L 413.182 169.970 L 418.254 168.567 L 423.320 167.232 L 428.374 165.965 L 433.410 164.766 L 438.422 163.637 L 443.403 162.577 L 448.347 161.587 L 453.248 160.666 L 458.100 159.815 L 462.897 159.034 L 467.631 158.323 L 472.296 157.682 L 476.886 157.111 L 481.393 156.609 L 485.810 156.177 L 490.130 155.813 L 494.345 155.518 L 498.448 155.290 L 502.429 155.129 L 506.281 155.033 L 510.381 154.998 L 511.485 154.975 L 512.588 154.925 L 513.690 154.848 L 514.790 154.744 L 515.886 154.613 L 516.979 154.455 L 518.068 154.271 L 519.152 154.059 L 520.231 153.822 L 521.303 153.557 L 522.369 153.267 L 523.427 152.950 L 524.477 152.608 L 525.518 152.240 L 526.550 151.846 L 527.572 151.427 L 528.583 150.984 L 529.584 150.515 L 530.572 150.022 L 531.548 149.506 L 532.511 148.965 L 533.460 148.401 L 534.396 147.813 L 535.316 147.203 L 536.222 146.571 L 537.111 145.916 L 537.985 145.240 L 538.841 144.543 L 539.680 143.824 L 540.501 143.086 L 541.304 142.327 L 542.088 141.549 L 542.853 140.752 L 543.597 139.937 L 544.322 139.103 L 545.026 138.252 L 545.709 137.384 L 546.370 136.500 L 547.009 135.599 L 547.626 134.683 L 548.221 133.752 L 548.792 132.807 L 549.340 131.848 L 549.865 130.876 L 550.365 129.892 L 550.841 128.895 L 551.292 127.887 L 551.719 126.868 L 552.120 125.839 L 552.496 124.801 L 552.847 123.754 L 553.171 122.698 L 553.470 121.635 L 553.742 120.564 L 553.988 119.488 L 554.208 118.405 L 554.401 117.318 L 554.567 116.226 L 554.707 115.130 L 554.819 114.032 L 554.904 112.930 L 554.963 111.828 L 554.994 110.724 L 554.998 109.619 L 554.975 108.515 L 554.925 107.412 L 554.848 106.310 L 554.744 105.210 L 554.613 104.114 L 554.455 103.021 L 554.271 101.932 L 554.059 100.848 L 553.822 99.769 L 553.557 98.697 L 553.267 97.631 L 552.950 96.573 L 552.608 95.523 L 552.240 94.482 L 551.846 93.450 L 551.427 92.428 L 550.984 91.417 L 550.515 90.416 L 550.022 89.428 L 549.506 88.452 L 548.965 87.489 L 548.401 86.540 L 547.813 85.604 L 547.203 84.684 L 546.571 83.778 L 545.916 82.889 L 545.240 82.015 L 544.543 81.159 L 543.824 80.320 L 543.086 79.499 L 542.327 78.696 L 541.549 77.912 L 540.752 77.147 L 539.937 76.403 L 539.103 75.678 L 538.252 74.974 L 537.384 74.291 L 536.500 73.630 L 535.599 72.991 L 534.683 72.374 L 533.752 71.779 L 532.807 71.208 L 531.848 70.660 L 530.876 70.135 L 529.892 69.635 L 528.895 69.159 L 527.887 68.708 L 526.868 68.281 L 525.839 67.880 L 524.801 67.504 L 523.754 67.153 L 522.698 66.829 L 521.635 66.530 L 520.564 66.258 L 519.488 66.012 L 518.405 65.792 L 517.318 65.599 L 516.226 65.433 L 515.130 65.293 L 514.032 65.181 L 512.930 65.096 L 511.828 65.037 L 510.724 65.006 L 509.619 65.002 L 505.152 65.039 L 504.417 65.052 L 499.845 65.165 L 499.142 65.188 L 494.471 65.377 L 493.795 65.409 L 489.029 65.674 L 488.378 65.715 L 483.523 66.055 L 482.894 66.104 L 477.954 66.520 L 477.344 66.575 L 472.325 67.067 L 471.731 67.129 L 466.637 67.696 L 466.058 67.764 L 460.895 68.407 L 460.327 68.481 L 455.100 69.200 L 454.543 69.280 L 449.256 70.074 L 448.708 70.159 L 443.367 71.029 L 442.826 71.121 L 437.436 72.066 L 436.901 72.163 L 431.466 73.184 L 430.936 73.287 L 425.462 74.383 L 424.934 74.492 L 419.426 75.664 L 418.901 75.779 L 413.364 77.027 L 412.838 77.149 L 407.277 78.472 L 406.752 78.600 L 401.172 79.999 L 400.645 80.135 L 395.051 81.609 L 394.522 81.752 L 388.918 83.302 L 388.386 83.453 L 382.779 85.079 L 382.242 85.238 L 376.636 86.939 L 376.093 87.108 L 370.493 88.885 L 369.945 89.062 L 364.356 90.915 L 363.801 91.103 L 358.228 93.031 L 357.664 93.230 L 352.113 95.234 L 351.541 95.445 L 346.015 97.525 L 345.433 97.748 L 339.939 99.903 L 339.347 100.141 L 333.889 102.371 L 333.285 102.623 L 327.868 104.930 L 327.252 105.197 L 321.882 107.579 L 321.252 107.864 L 315.934 110.322 L 315.290 110.625 L 310.028 113.158 L 309.370 113.481 L 304.169 116.090 L 303.496 116.435 L 298.362 119.119 L 297.672 119.487 L 292.609 122.247 L 291.903 122.641 L 286.917 125.476 L 286.193 125.896 L 281.289 128.808 L 280.547 129.257 L 275.729 132.244 L 274.969 132.725 L 270.243 135.788 L 269.465 136.304 L 264.835 139.442 L 264.038 139.994 L 259.510 143.208 L 258.694 143.800 L 254.273 147.090 L 253.439 147.725 L 249.129 151.090 L 248.278 151.772 L 244.085 155.212 L 243.216 155.943 L 239.145 159.460 L 238.261 160.244 L 234.316 163.836 L 233.417 164.677 L 229.605 168.344 L 228.694 169.246 L 225.019 172.989 L 224.098 173.955 L 220.564 177.773 L 219.637 178.807 L 216.251 182.701 L 215.320 183.806 L 212.086 187.776 L 211.157 188.955 L 208.080 193.000 L 207.158 194.257 L 204.243 198.378 L 203.333 199.713 L 200.585 203.910 L 200.133 204.614 L 199.695 205.326 L 197.119 209.598 L 196.679 210.343 L 196.254 211.096 L 193.855 215.444 L 193.432 216.229 L 193.025 217.022 L 190.808 221.446 L 190.405 222.270 L 190.019 223.103 L 187.990 227.602 L 187.612 228.465 L 187.251 229.335 L 185.414 233.910 L 185.064 234.809 L 184.734 235.715 L 183.094 240.365 L 182.777 241.296 L 182.480 242.235 L 181.043 246.960 L 180.762 247.921 L 180.503 248.888 L 179.273 253.689 L 179.032 254.674 L 178.814 255.665 L 177.796 260.542 L 177.598 261.547 L 177.423 262.556 L 176.623 267.509 L 176.470 268.528 L 176.341 269.550 L 175.763 274.578 L 175.657 275.605 L 175.574 276.634 L 175.224 281.738 L 175.165 282.766 L 175.130 283.796 L 175.012 288.976 L 175.000 290.209 L 175.023 291.441 L 175.079 292.673 L 175.260 295.714 L 175.342 296.839 L 175.451 297.962 L 175.588 299.082 L 175.754 300.198 L 175.947 301.309 L 176.483 304.175 L 176.714 305.327 L 176.975 306.472 L 177.265 307.610 L 177.586 308.741 L 177.935 309.862 L 178.815 312.558 L 179.196 313.676 L 179.606 314.783 L 180.044 315.878 L 180.512 316.962 L 181.008 318.033 L 182.220 320.567 L 182.727 321.592 L 183.260 322.604 L 183.818 323.602 L 184.402 324.585 L 185.010 325.554 L 186.545 327.930 L 187.137 328.823 L 187.751 329.702 L 188.385 330.566 L 189.039 331.415 L 189.714 332.248 L 191.561 334.473 L 192.353 335.402 L 193.170 336.309 L 194.011 337.193 L 194.877 338.055 L 197.024 340.136 L 197.816 340.884 L 198.625 341.613 L 199.452 342.322 L 200.295 343.011 L 202.733 344.954 L 203.742 345.735 L 204.774 346.488 L 205.827 347.211 L 208.543 349.020 L 209.477 349.626 L 210.425 350.208 L 211.387 350.766 L 214.372 352.450 L 215.216 352.914 L 216.071 353.360 L 216.935 353.788 L 220.178 355.352 L 221.311 355.879 L 222.459 356.375 L 225.949 357.824 L 226.952 358.227 L 227.965 358.605 L 231.691 359.947 L 232.574 360.255 L 233.463 360.544 L 237.414 361.784 L 238.968 362.241 L 243.134 363.385 L 244.493 363.736 L 248.863 364.791 L 250.051 365.061 L 254.613 366.032 L 255.650 366.240 L 260.395 367.135 L 261.298 367.296 L 266.214 368.119 L 266.998 368.243 L 272.076 369.002 L 272.754 369.098 L 277.981 369.798 L 278.564 369.872 L 283.931 370.520 L 284.428 370.577 L 289.923 371.178 L 290.343 371.222 L 295.955 371.782 L 296.303 371.816 L 302.023 372.342 L 302.305 372.367 L 308.120 372.865 L 308.341 372.884 L 313.915 373.334 L 313.194 373.856 L 312.315 374.524 L 311.452 375.215 L 310.607 375.926 L 309.780 376.657 L 308.971 377.409 L 308.180 378.180 L 307.409 378.971 L 306.657 379.780 L 305.926 380.607 L 305.215 381.452 L 304.524 382.315 L 303.856 383.194 L 303.209 384.089 L 302.584 384.999 L 301.982 385.925 L 301.402 386.865 L 300.846 387.820 L 300.314 388.787 L 299.805 389.767 L 299.320 390.760 L 298.861 391.764 L 298.425 392.779 L 298.015 393.805 L 297.631 394.840 L 297.271 395.884 L 296.938 396.937 L 296.630 397.998 L 296.349 399.066 L 296.093 400.140 L 295.865 401.221 L 295.663 402.307 L 295.487 403.397 L 295.338 404.492 L 295.217 405.589 L 295.122 406.690 L 295.054 407.792 L 295.014 408.896 L 295.000 410.000 L 295.014 411.104 L 295.054 412.208 L 295.122 413.310 L 295.217 414.411 L 295.338 415.508 L 295.487 416.603 L 295.663 417.693 L 295.865 418.779 L 296.093 419.860 L 296.349 420.934 L 296.630 422.002 L 296.743 422.391 L 295.079 422.813 L 294.501 422.964 L 288.781 424.496 L 288.146 424.672 L 282.534 426.264 L 281.836 426.468 L 276.341 428.123 L 275.575 428.361 L 270.209 430.083 L 269.369 430.361 L 264.142 432.152 L 263.223 432.478 L 258.145 434.341 L 257.139 434.724 L 252.222 436.663 L 251.121 437.114 L 246.376 439.132 L 245.173 439.665 L 240.610 441.765 L 239.296 442.395 L 234.927 444.581 L 233.496 445.329 L 229.330 447.602 L 228.548 448.039 L 227.775 448.491 L 223.824 450.857 L 222.977 451.376 L 222.142 451.915 L 218.416 454.375 L 217.504 454.993 L 216.607 455.634 L 213.117 458.192 L 212.142 458.927 L 211.187 459.689 L 207.944 462.348 L 206.912 463.220 L 205.907 464.123 L 202.922 466.887 L 202.201 467.569 L 201.496 468.266 L 200.806 468.980 L 198.089 471.851 L 197.352 472.649 L 196.633 473.466 L 195.935 474.299 L 193.498 477.281 L 192.762 478.206 L 192.050 479.150 L 191.364 480.112 L 189.216 483.208 L 188.506 484.263 L 187.826 485.338 L 187.176 486.432 L 185.330 489.644 L 184.835 490.529 L 184.360 491.424 L 183.905 492.329 L 183.471 493.245 L 181.936 496.577 L 181.504 497.545 L 181.095 498.522 L 180.709 499.509 L 180.347 500.504 L 179.134 503.960 L 178.786 504.991 L 178.463 506.031 L 178.166 507.077 L 177.894 508.131 L 177.014 511.713 L 176.766 512.781 L 176.544 513.855 L 176.347 514.933 L 176.178 516.016 L 175.642 519.729 L 175.500 520.802 L 175.384 521.879 L 175.295 522.958 L 175.231 524.039 L 175.050 527.885 L 175.013 528.901 L 175.000 529.917 L 175.010 530.933 L 175.128 536.619 L 175.157 537.563 L 175.206 538.507 L 175.557 544.088 L 175.627 545.040 L 175.717 545.990 L 176.295 551.467 L 176.406 552.422 L 176.538 553.375 L 177.338 558.748 L 177.491 559.701 L 177.663 560.651 L 178.681 565.921 L 178.875 566.867 L 179.088 567.809 L 180.319 572.976 L 180.552 573.911 L 180.805 574.840 L 182.242 579.905 L 182.514 580.823 L 182.804 581.735 L 184.444 586.698 L 184.751 587.595 L 185.076 588.485 L 186.914 593.348 L 187.253 594.220 L 187.611 595.084 L 189.640 599.847 L 190.010 600.690 L 190.396 601.525 L 192.613 606.189 L 193.009 607.001 L 193.421 607.804 L 195.820 612.370 L 196.238 613.147 L 196.672 613.917 L 199.248 618.384 L 199.686 619.127 L 200.138 619.861 L 202.886 624.231 L 203.340 624.937 L 203.806 625.635 L 206.721 629.908 L 207.665 631.238 L 210.742 635.416 L 211.702 636.672 L 214.937 640.754 L 215.908 641.938 L 219.294 645.925 L 220.271 647.037 L 223.804 650.930 L 224.781 651.973 L 228.457 655.773 L 229.430 656.749 L 233.243 660.456 L 234.209 661.368 L 238.153 664.983 L 239.108 665.834 L 243.179 669.358 L 244.122 670.152 L 248.315 673.585 L 249.242 674.323 L 253.552 677.666 L 254.462 678.354 L 258.883 681.608 L 259.775 682.247 L 264.304 685.412 L 265.176 686.007 L 269.806 689.084 L 270.659 689.637 L 275.386 692.626 L 276.219 693.140 L 281.037 696.042 L 281.849 696.520 L 286.754 699.336 L 287.546 699.781 L 292.533 702.512 L 293.305 702.925 L 298.368 705.571 L 299.120 705.955 L 304.254 708.517 L 304.987 708.874 L 310.188 711.352 L 310.902 711.685 L 316.165 714.080 L 316.861 714.390 L 322.179 716.703 L 322.858 716.992 L 328.228 719.224 L 328.889 719.492 L 334.306 721.643 L 334.951 721.894 L 340.409 723.964 L 341.039 724.198 L 346.533 726.189 L 347.148 726.407 L 352.674 728.319 L 353.275 728.523 L 358.827 730.357 L 359.416 730.547 L 364.988 732.303 L 365.565 732.480 L 371.154 734.160 L 371.719 734.326 L 377.319 735.929 L 377.874 736.084 L 383.480 737.611 L 384.025 737.756 L 389.632 739.209 L 390.168 739.344 L 395.771 740.722 L 396.300 740.849 L 401.894 742.154 L 402.415 742.272 L 407.995 743.504 L 408.511 743.614 L 414.072 744.774 L 414.582 744.877 L 420.119 745.964 L 420.624 746.061 L 426.132 747.077 L 426.634 747.167 L 432.108 748.113 L 432.608 748.197 L 438.042 749.073 L 438.541 749.151 L 443.931 749.959 L 444.430 750.030 L 449.771 750.770 L 450.270 750.836 L 455.556 751.507 L 456.058 751.568 L 461.285 752.172 L 461.790 752.228 L 466.953 752.766 L 467.463 752.816 L 472.556 753.288 L 473.072 753.333 L 478.091 753.740 L 478.615 753.780 L 483.555 754.122 L 484.088 754.156 L 488.944 754.435 L 489.489 754.463 L 494.255 754.679 L 494.814 754.701 L 499.485 754.854 L 500.061 754.869 L 504.632 754.961 L 505.227 754.969 L 509.694 754.999 L 510.799 754.993 L 511.903 754.960 L 513.005 754.900 L 514.106 754.812 L 515.205 754.698 L 516.300 754.557 L 517.392 754.389 L 518.479 754.194 L 519.561 753.973 L 520.637 753.725 L 521.707 753.450 L 522.770 753.150 L 523.825 752.824 L 524.872 752.472 L 525.910 752.094 L 526.938 751.691 L 527.956 751.262 L 528.963 750.809 L 529.959 750.332 L 530.943 749.830 L 531.914 749.304 L 532.872 748.754 L 533.816 748.181 L 534.746 747.585 L 535.661 746.967 L 536.560 746.326 L 537.444 745.663 L 538.311 744.979 L 539.161 744.273 L 539.993 743.547 L 540.807 742.801 L 541.603 742.035 L 542.380 741.250 L 543.137 740.446 L 543.874 739.624 L 544.591 738.783 L 545.287 737.926 L 545.961 737.051 L 546.614 736.161 L 547.245 735.254 L 547.854 734.333 L 548.440 733.396 L 549.002 732.446 L 549.541 731.482 L 550.057 730.505 L 550.548 729.516 L 551.015 728.515 L 551.457 727.503 L 551.874 726.480 L 552.265 725.448 L 552.632 724.406 L 552.973 723.355 L 553.287 722.297 L 553.576 721.230 L 553.839 720.158 L 554.075 719.079 L 554.284 717.994 L 554.467 716.905 L 554.623 715.812 L 554.752 714.715 L 554.855 713.615 L 554.930 712.513 L 554.978 711.410 L 554.999 710.306 L 554.993 709.201 L 554.960 708.097 L 554.900 706.995 L 554.812 705.894 L 554.698 704.795 L 554.557 703.700 L 554.389 702.608 L 554.194 701.521 L 553.973 700.439 L 553.725 699.363 L 553.450 698.293 L 553.150 697.230 L 552.824 696.175 L 552.472 695.128 L 552.094 694.090 L 551.691 693.062 L 551.262 692.044 L 550.809 691.037 L 550.332 690.041 L 549.830 689.057 L 549.304 688.086 L 548.754 687.128 L 548.181 686.184 L 547.585 685.254 L 546.967 684.339 L 546.326 683.440 L 545.663 682.556 L 544.979 681.689 L 544.273 680.839 L 543.547 680.007 L 542.801 679.193 L 542.035 678.397 L 541.250 677.620 L 540.446 676.863 L 539.624 676.126 L 538.783 675.409 L 537.926 674.713 L 537.051 674.039 L 536.161 673.386 L 535.254 672.755 L 534.333 672.146 L 533.396 671.560 L 532.446 670.998 L 531.482 670.459 L 530.505 669.943 L 529.516 669.452 L 528.515 668.985 L 527.503 668.543 L 526.480 668.126 L 525.448 667.735 L 524.406 667.368 L 523.355 667.027 L 522.297 666.713 L 521.230 666.424 L 520.158 666.161 L 519.079 665.925 L 517.994 665.716 L 516.905 665.533 L 515.812 665.377 L 514.715 665.248 L 513.615 665.145 L 512.513 665.070 L 511.410 665.022 L 510.306 665.001 L 506.136 664.973 L 502.150 664.893 L 498.046 664.758 L 493.832 664.567 L 489.517 664.320 L 485.106 664.014 L 480.606 663.649 L 476.025 663.224 L 471.370 662.739 L 466.645 662.193 L 461.859 661.585 L 457.017 660.915 L 452.125 660.182 L 447.190 659.386 L 442.217 658.526 L 437.214 657.602 L 432.184 656.615 L 427.136 655.562 L 422.074 654.445 L 417.005 653.263 L 411.934 652.015 L 406.868 650.703 L 401.812 649.325 L 396.772 647.882 L 391.754 646.375 L 386.764 644.802 L 381.808 643.165 L 376.891 641.463 L 372.020 639.698 L 367.200 637.869 L 362.437 635.978 L 357.737 634.024 L 353.105 632.010 L 348.548 629.936 L 344.071 627.802 L 339.679 625.611 L 335.379 623.364 L 331.175 621.061 L 327.073 618.706 L 323.077 616.299 L 319.194 613.843 L 315.427 611.340 L 311.782 608.793 L 308.262 606.203 L 304.872 603.573 L 301.614 600.905 L 298.492 598.204 L 295.510 595.470 L 292.668 592.706 L 289.968 589.915 L 287.413 587.099 L 285.001 584.260 L 282.733 581.397 L 280.608 578.513 L 278.625 575.607 L 276.783 572.677 L 275.079 569.722 L 273.511 566.739 L 272.077 563.722 L 270.775 560.666 L 269.603 557.565 L 268.561 554.410 L 267.648 551.193 L 266.865 547.903 L 266.213 544.531 L 265.697 541.065 L 265.320 537.494 L 265.089 533.809 L 265.052 532.029 L 265.155 531.919 L 266.056 531.085 L 267.309 530.058 L 268.925 528.873 L 270.902 527.568 L 273.232 526.173 L 275.903 524.715 L 278.899 523.217 L 282.203 521.697 L 285.795 520.169 L 289.657 518.646 L 293.771 517.136 L 298.119 515.647 L 302.683 514.183 L 307.446 512.748 L 312.392 511.345 L 317.504 509.975 L 322.769 508.639 L 328.171 507.337 L 333.695 506.069 L 339.328 504.833 L 345.058 503.628 L 350.869 502.453 L 356.751 501.306 L 362.691 500.185 L 368.676 499.087 L 374.696 498.009 L 380.738 496.950 L 386.792 495.906 L 392.847 494.875 L 398.893 493.853 L 404.912 492.838 L 410.890 491.829 L 410.942 491.820 L 416.829 490.818 L 416.919 490.803 L 422.719 489.804 L 422.851 489.781 L 428.553 488.782 L 428.728 488.751 L 434.321 487.748 L 434.543 487.707 L 440.017 486.697 L 440.290 486.646 L 445.633 485.626 L 445.962 485.562 L 451.165 484.529 L 451.555 484.450 L 456.606 483.400 L 457.066 483.302 L 461.954 482.232 L 462.492 482.111 L 467.207 481.019 L 467.834 480.869 L 472.365 479.751 L 473.094 479.565 L 477.430 478.417 L 478.277 478.184 L 482.408 477.005 L 483.393 476.711 L 487.307 475.496 L 488.453 475.123 L 492.140 473.869 L 493.477 473.391 L 496.926 472.095 L 497.710 471.792 L 498.489 471.475 L 501.689 470.134 L 502.608 469.736 L 503.519 469.319 L 506.460 467.930 L 507.539 467.402 L 508.604 466.846 L 511.274 465.406 L 512.120 464.938 L 512.955 464.452 L 513.780 463.948 L 516.169 462.453 L 517.155 461.818 L 518.124 461.158 L 519.075 460.472 L 521.172 458.920 L 522.024 458.273 L 522.860 457.607 L 523.681 456.921 L 524.484 456.215 L 526.279 454.602 L 526.336 454.549 L 526.603 454.513 Z" fill="black" fill-rule="evenodd"/>
</svg>
