<svg xmlns="http://www.w3.org/2000/svg" viewBox="0 0 700.000 1000" width="700.000" height="1000">
  <path d="M 202.862 89.258 L 202.098 88.461 L 201.314 87.682 L 200.512 86.924 L 199.691 86.185 L 198.852 85.466 L 197.996 84.769 L 197.123 84.092 L 196.233 83.438 L 195.328 82.805 L 194.408 82.194 L 193.473 81.607 L 192.523 81.042 L 191.560 80.501 L 190.585 79.984 L 189.596 79.491 L 188.596 79.022 L 187.585 78.578 L 186.563 78.159 L 185.531 77.765 L 184.490 77.397 L 183.440 77.054 L 182.382 76.737 L 181.317 76.446 L 180.245 76.182 L 179.166 75.943 L 178.082 75.732 L 176.993 75.547 L 175.900 75.388 L 174.804 75.257 L 173.704 75.153 L 172.602 75.075 L 171.499 75.025 L 170.395 75.002 L 169.291 75.006 L 168.187 75.037 L 167.084 75.095 L 165.982 75.180 L 164.884 75.292 L 163.788 75.431 L 162.696 75.597 L 161.609 75.789 L 160.526 76.009 L 159.449 76.254 L 158.379 76.526 L 157.316 76.825 L 156.260 77.149 L 155.212 77.499 L 154.174 77.875 L 153.145 78.276 L 152.126 78.702 L 151.118 79.153 L 150.121 79.629 L 149.136 80.129 L 148.164 80.653 L 147.205 81.201 L 146.260 81.772 L 145.329 82.366 L 144.413 82.983 L 143.512 83.622 L 142.627 84.283 L 141.759 84.965 L 140.907 85.669 L 140.074 86.393 L 139.258 87.138 L 138.461 87.902 L 137.682 88.686 L 136.924 89.488 L 136.185 90.309 L 135.466 91.148 L 134.769 92.004 L 134.092 92.877 L 133.438 93.767 L 132.805 94.672 L 132.194 95.592 L 131.607 96.527 L 131.042 97.477 L 130.501 98.440 L 129.984 99.415 L 129.491 100.404 L 129.022 101.404 L 128.578 102.415 L 128.159 103.437 L 127.765 104.469 L 127.397 105.510 L 127.054 106.560 L 126.737 107.618 L 126.446 108.683 L 126.182 109.755 L 125.943 110.834 L 125.732 111.918 L 125.547 113.007 L 125.388 114.100 L 125.257 115.196 L 125.153 116.296 L 125.075 117.398 L 125.025 118.501 L 125.002 119.605 L 125.006 120.709 L 125.037 121.813 L 125.095 122.916 L 125.180 124.018 L 125.292 125.116 L 125.431 126.212 L 125.597 127.304 L 125.789 128.391 L 126.009 129.474 L 126.254 130.551 L 126.526 131.621 L 126.825 132.684 L 127.149 133.740 L 127.499 134.788 L 127.875 135.826 L 128.276 136.855 L 128.702 137.874 L 129.153 138.882 L 129.629 139.879 L 130.129 140.864 L 130.653 141.836 L 131.201 142.795 L 131.772 143.740 L 132.366 144.671 L 132.983 145.587 L 133.622 146.488 L 134.283 147.373 L 134.965 148.241 L 135.669 149.093 L 136.393 149.926 L 137.138 150.742 L 356.282 385.000 L 170.000 385.000 L 168.896 385.014 L 167.792 385.054 L 166.690 385.122 L 165.589 385.217 L 164.492 385.338 L 163.397 385.487 L 162.307 385.663 L 161.221 385.865 L 160.140 386.093 L 159.066 386.349 L 157.998 386.630 L 156.937 386.938 L 155.884 387.271 L 154.840 387.631 L 153.805 388.015 L 152.779 388.425 L 151.764 388.861 L 150.760 389.320 L 149.767 389.805 L 148.787 390.314 L 147.820 390.846 L 146.865 391.402 L 145.925 391.982 L 144.999 392.584 L 144.089 393.209 L 143.194 393.856 L 142.315 394.524 L 141.452 395.215 L 140.607 395.926 L 139.780 396.657 L 138.971 397.409 L 138.180 398.180 L 137.409 398.971 L 136.657 399.780 L 135.926 400.607 L 135.215 401.452 L 134.524 402.315 L 133.856 403.194 L 133.209 404.089 L 132.584 404.999 L 131.982 405.925 L 131.402 406.865 L 130.846 407.820 L 130.314 408.787 L 129.805 409.767 L 129.320 410.760 L 128.861 411.764 L 128.425 412.779 L 128.015 413.805 L 127.631 414.840 L 127.271 415.884 L 126.938 416.937 L 126.630 417.998 L 126.349 419.066 L 126.093 420.140 L 125.865 421.221 L 125.663 422.307 L 125.487 423.397 L 125.338 424.492 L 125.217 425.589 L 125.122 426.690 L 125.054 427.792 L 125.014 428.896 L 125.000 430.000 L 125.014 431.104 L 125.054 432.208 L 125.122 433.310 L 125.217 434.411 L 125.338 435.508 L 125.487 436.603 L 125.663 437.693 L 125.865 438.779 L 126.093 439.860 L 126.349 440.934 L 126.630 442.002 L 126.938 443.063 L 127.271 444.116 L 127.631 445.160 L 128.015 446.195 L 128.425 447.221 L 128.861 448.236 L 129.320 449.240 L 129.805 450.233 L 130.314 451.213 L 130.846 452.180 L 131.402 453.135 L 131.982 454.075 L 132.584 455.001 L 133.209 455.911 L 133.856 456.806 L 134.524 457.685 L 135.215 458.548 L 135.926 459.393 L 136.657 460.220 L 137.409 461.029 L 138.180 461.820 L 138.971 462.591 L 139.780 463.343 L 140.607 464.074 L 141.452 464.785 L 142.315 465.476 L 143.194 466.144 L 144.089 466.791 L 144.999 467.416 L 145.925 468.018 L 146.865 468.598 L 147.820 469.154 L 148.787 469.686 L 149.767 470.195 L 150.760 470.680 L 151.764 471.139 L 152.779 471.575 L 153.805 471.985 L 154.840 472.369 L 155.884 472.729 L 156.937 473.062 L 157.998 473.370 L 159.066 473.651 L 160.140 473.907 L 161.221 474.135 L 162.307 474.337 L 163.397 474.513 L 164.492 474.662 L 165.589 474.783 L 166.690 474.878 L 167.792 474.946 L 168.896 474.986 L 170.000 475.000 L 415.000 475.000 L 415.000 780.000 L 415.014 781.104 L 415.054 782.208 L 415.122 783.310 L 415.217 784.411 L 415.338 785.508 L 415.487 786.603 L 415.663 787.693 L 415.865 788.779 L 416.093 789.860 L 416.349 790.934 L 416.630 792.002 L 416.938 793.063 L 417.271 794.116 L 417.631 795.160 L 418.015 796.195 L 418.425 797.221 L 418.861 798.236 L 419.320 799.240 L 419.805 800.233 L 420.314 801.213 L 420.846 802.180 L 421.402 803.135 L 421.982 804.075 L 422.584 805.001 L 423.209 805.911 L 423.856 806.806 L 424.524 807.685 L 425.215 808.548 L 425.926 809.393 L 426.657 810.220 L 427.409 811.029 L 428.180 811.820 L 428.971 812.591 L 429.780 813.343 L 430.607 814.074 L 431.452 814.785 L 432.315 815.476 L 433.194 816.144 L 434.089 816.791 L 434.999 817.416 L 435.925 818.018 L 436.865 818.598 L 437.820 819.154 L 438.787 819.686 L 439.767 820.195 L 440.760 820.680 L 441.764 821.139 L 442.779 821.575 L 443.805 821.985 L 444.840 822.369 L 445.884 822.729 L 446.937 823.062 L 447.998 823.370 L 449.066 823.651 L 450.140 823.907 L 451.221 824.135 L 452.307 824.337 L 453.397 824.513 L 454.492 824.662 L 455.589 824.783 L 456.690 824.878 L 457.792 824.946 L 458.896 824.986 L 460.000 825.000 L 461.104 824.986 L 462.208 824.946 L 463.310 824.878 L 464.411 824.783 L 465.508 824.662 L 466.603 824.513 L 467.693 824.337 L 468.779 824.135 L 469.860 823.907 L 470.934 823.651 L 472.002 823.370 L 473.063 823.062 L 474.116 822.729 L 475.160 822.369 L 476.195 821.985 L 477.221 821.575 L 478.236 821.139 L 479.240 820.680 L 480.233 820.195 L 481.213 819.686 L 482.180 819.154 L 483.135 818.598 L 484.075 818.018 L 485.001 817.416 L 485.911 816.791 L 486.806 816.144 L 487.685 815.476 L 488.548 814.785 L 489.393 814.074 L 490.220 813.343 L 491.029 812.591 L 491.820 811.820 L 492.591 811.029 L 493.343 810.220 L 494.074 809.393 L 494.785 808.548 L 495.476 807.685 L 496.144 806.806 L 496.791 805.911 L 497.416 805.001 L 498.018 804.075 L 498.598 803.135 L 499.154 802.180 L 499.686 801.213 L 500.195 800.233 L 500.680 799.240 L 501.139 798.236 L 501.575 797.221 L 501.985 796.195 L 502.369 795.160 L 502.729 794.116 L 503.062 793.063 L 503.370 792.002 L 503.651 790.934 L 503.907 789.860 L 504.135 788.779 L 504.337 787.693 L 504.513 786.603 L 504.662 785.508 L 504.783 784.411 L 504.878 783.310 L 504.946 782.208 L 504.986 781.104 L 505.000 780.000 L 505.000 475.000 L 570.000 475.000 L 571.104 474.986 L 572.208 474.946 L 573.310 474.878 L 574.411 474.783 L 575.508 474.662 L 576.603 474.513 L 577.693 474.337 L 578.779 474.135 L 579.860 473.907 L 580.934 473.651 L 582.002 473.370 L 583.063 473.062 L 584.116 472.729 L 585.160 472.369 L 586.195 471.985 L 587.221 471.575 L 588.236 471.139 L 589.240 470.680 L 590.233 470.195 L 591.213 469.686 L 592.180 469.154 L 593.135 468.598 L 594.075 468.018 L 595.001 467.416 L 595.911 466.791 L 596.806 466.144 L 597.685 465.476 L 598.548 464.785 L 599.393 464.074 L 600.220 463.343 L 601.029 462.591 L 601.820 461.820 L 602.591 461.029 L 603.343 460.220 L 604.074 459.393 L 604.785 458.548 L 605.476 457.685 L 606.144 456.806 L 606.791 455.911 L 607.416 455.001 L 608.018 454.075 L 608.598 453.135 L 609.154 452.180 L 609.686 451.213 L 610.195 450.233 L 610.680 449.240 L 611.139 448.236 L 611.575 447.221 L 611.985 446.195 L 612.369 445.160 L 612.729 444.116 L 613.062 443.063 L 613.370 442.002 L 613.651 440.934 L 613.907 439.860 L 614.135 438.779 L 614.337 437.693 L 614.513 436.603 L 614.662 435.508 L 614.783 434.411 L 614.878 433.310 L 614.946 432.208 L 614.986 431.104 L 615.000 430.000 L 614.986 428.896 L 614.946 427.792 L 614.878 426.690 L 614.783 425.589 L 614.662 424.492 L 614.513 423.397 L 614.337 422.307 L 614.135 421.221 L 613.907 420.140 L 613.651 419.066 L 613.370 417.998 L 613.062 416.937 L 612.729 415.884 L 612.369 414.840 L 611.985 413.805 L 611.575 412.779 L 611.139 411.764 L 610.680 410.760 L 610.195 409.767 L 609.686 408.787 L 609.154 407.820 L 608.598 406.865 L 608.018 405.925 L 607.416 404.999 L 606.791 404.089 L 606.144 403.194 L 605.476 402.315 L 604.785 401.452 L 604.074 400.607 L 603.343 399.780 L 602.591 398.971 L 601.820 398.180 L 601.029 397.409 L 600.220 396.657 L 599.393 395.926 L 598.548 395.215 L 597.685 394.524 L 596.806 393.856 L 595.911 393.209 L 595.001 392.584 L 594.075 391.982 L 593.135 391.402 L 592.180 390.846 L 591.213 390.314 L 590.233 389.805 L 589.240 389.320 L 588.236 388.861 L 587.221 388.425 L 586.195 388.015 L 585.160 387.631 L 584.116 387.271 L 583.063 386.938 L 582.002 386.630 L 580.934 386.349 L 579.860 386.093 L 578.779 385.865 L 577.693 385.663 L 576.603 385.487 L 575.508 385.338 L 574.411 385.217 L 573.310 385.122 L 572.208 385.054 L 571.104 385.014 L 570.000 385.000 L 505.000 385.000 L 505.000 40.000 L 504.986 38.896 L 504.946 37.792 L 504.878 36.690 L 504.783 35.589 L 504.662 34.492 L 504.513 33.397 L 504.337 32.307 L 504.135 31.221 L 503.907 30.140 L 503.651 29.066 L 503.370 27.998 L 503.062 26.937 L 502.729 25.884 L 502.369 24.840 L 501.985 23.805 L 501.575 22.779 L 501.139 21.764 L 500.680 20.760 L 500.195 19.767 L 499.686 18.787 L 499.154 17.820 L 498.598 16.865 L 498.018 15.925 L 497.416 14.999 L 496.791 14.089 L 496.144 13.194 L 495.476 12.315 L 494.785 11.452 L 494.074 10.607 L 493.343 9.780 L 492.591 8.971 L 491.820 8.180 L 491.029 7.409 L 490.220 6.657 L 489.393 5.926 L 488.548 5.215 L 487.685 4.524 L 486.806 3.856 L 485.911 3.209 L 485.001 2.584 L 484.075 1.982 L 483.135 1.402 L 482.180 0.846 L 481.213 0.314 L 480.233 -0.195 L 479.240 -0.680 L 478.236 -1.139 L 477.221 -1.575 L 476.195 -1.985 L 475.160 -2.369 L 474.116 -2.729 L 473.063 -3.062 L 472.002 -3.370 L 470.934 -3.651 L 469.860 -3.907 L 468.779 -4.135 L 467.693 -4.337 L 466.603 -4.513 L 465.508 -4.662 L 464.411 -4.783 L 463.310 -4.878 L 462.208 -4.946 L 461.104 -4.986 L 460.000 -5.000 L 458.896 -4.986 L 457.792 -4.946 L 456.690 -4.878 L 455.589 -4.783 L 454.492 -4.662 L 453.397 -4.513 L 452.307 -4.337 L 451.221 -4.135 L 450.140 -3.907 L 449.066 -3.651 L 447.998 -3.370 L 446.937 -3.062 L 445.884 -2.729 L 444.840 -2.369 L 443.805 -1.985 L 442.779 -1.575 L 441.764 -1.139 L 440.760 -0.680 L 439.767 -0.195 L 438.787 0.314 L 437.820 0.846 L 436.865 1.402 L 435.925 1.982 L 434.999 2.584 L 434.089 3.209 L 433.194 3.856 L 432.315 4.524 L 431.452 5.215 L 430.607 5.926 L 429.780 6.657 L 428.971 7.409 L 428.180 8.180 L 427.409 8.971 L 426.657 9.780 L 425.926 10.607 L 425.215 11.452 L 424.524 12.315 L 423.856 13.194 L 423.209 14.089 L 422.584 14.999 L 421.982 15.925 L 421.402 16.865 L 420.846 17.820 L 420.314 18.787 L 419.805 19.767 L 419.320 20.760 L 418.861 21.764 L 418.425 22.779 L 418.015 23.805 L 417.631 24.840 L 417.271 25.884 L 416.938 26.937 L 416.630 27.998 L 416.349 29.066 L 416.093 30.140 L 415.865 31.221 L 415.663 32.307 L 415.487 33.397 L 415.338 34.492 L 415.217 35.589 L 415.122 36.690 L 415.054 37.792 L 415.014 38.896 L 415.000 40.000 L 415.000 316.026 L 202.862 89.258 Z" fill="black" fill-rule="evenodd"/>
</svg>
