<svg xmlns="http://www.w3.org/2000/svg" viewBox="0 0 700.000 1000" width="700.000" height="1000">
  <path d="M 494.999 59.638 L 494.991 59.267 L 494.986 58.896 L 494.980 58.715 L 494.976 58.534 L 494.959 58.163 L 494.946 57.792 L 494.935 57.611 L 494.927 57.430 L 494.901 57.060 L 494.878 56.690 L 494.863 56.509 L 494.850 56.329 L 494.815 55.959 L 494.783 55.589 L 494.763 55.409 L 494.746 55.229 L 494.702 54.860 L 494.662 54.492 L 494.637 54.312 L 494.616 54.132 L 494.563 53.765 L 494.513 53.397 L 494.484 53.218 L 494.458 53.039 L 494.396 52.673 L 494.337 52.307 L 494.304 52.129 L 494.274 51.950 L 494.203 51.586 L 494.135 51.221 L 494.098 51.044 L 494.063 50.866 L 493.983 50.504 L 493.907 50.140 L 493.865 49.964 L 493.826 49.787 L 493.737 49.427 L 493.651 49.066 L 493.605 48.891 L 493.562 48.715 L 493.465 48.357 L 493.370 47.998 L 493.319 47.824 L 493.272 47.649 L 493.166 47.294 L 493.062 46.937 L 493.008 46.765 L 492.956 46.591 L 492.841 46.238 L 492.729 45.884 L 492.670 45.713 L 492.614 45.541 L 492.490 45.191 L 492.369 44.840 L 492.306 44.670 L 492.246 44.499 L 492.114 44.153 L 491.985 43.805 L 491.917 43.637 L 491.853 43.467 L 491.712 43.124 L 491.575 42.779 L 491.503 42.613 L 491.435 42.445 L 491.286 42.105 L 491.139 41.764 L 491.064 41.600 L 490.991 41.434 L 490.834 41.097 L 490.680 40.760 L 490.600 40.597 L 490.523 40.433 L 490.358 40.101 L 490.195 39.767 L 490.112 39.607 L 490.031 39.445 L 489.857 39.117 L 489.686 38.787 L 489.599 38.629 L 489.514 38.468 L 489.333 38.145 L 489.154 37.820 L 489.063 37.663 L 488.974 37.505 L 488.785 37.186 L 488.598 36.865 L 488.503 36.711 L 488.410 36.556 L 488.213 36.241 L 488.018 35.925 L 487.920 35.773 L 487.823 35.620 L 487.619 35.310 L 487.416 34.999 L 487.314 34.850 L 487.214 34.699 L 487.001 34.395 L 486.791 34.089 L 486.685 33.942 L 486.582 33.793 L 486.362 33.494 L 486.144 33.194 L 486.035 33.049 L 485.927 32.904 L 485.700 32.610 L 485.476 32.315 L 485.362 32.173 L 485.252 32.030 L 485.017 31.742 L 484.785 31.452 L 484.669 31.314 L 484.555 31.173 L 484.313 30.891 L 484.074 30.607 L 483.954 30.472 L 483.837 30.334 L 483.589 30.058 L 483.343 29.780 L 483.220 29.647 L 483.099 29.512 L 482.844 29.243 L 482.591 28.971 L 482.465 28.841 L 482.340 28.709 L 482.079 28.446 L 481.820 28.180 L 481.690 28.054 L 481.563 27.925 L 481.295 27.668 L 481.029 27.409 L 480.897 27.286 L 480.766 27.160 L 480.492 26.910 L 480.220 26.657 L 480.085 26.537 L 479.951 26.415 L 479.671 26.171 L 479.393 25.926 L 479.254 25.809 L 479.118 25.690 L 478.832 25.453 L 478.548 25.215 L 478.406 25.101 L 478.267 24.986 L 477.975 24.756 L 477.685 24.524 L 477.541 24.415 L 477.399 24.303 L 477.102 24.080 L 476.806 23.856 L 476.660 23.750 L 476.515 23.641 L 476.212 23.426 L 475.911 23.209 L 475.762 23.106 L 475.614 23.001 L 475.307 22.794 L 475.001 22.584 L 474.849 22.485 L 474.699 22.384 L 474.386 22.184 L 474.075 21.982 L 473.921 21.887 L 473.768 21.789 L 473.451 21.597 L 473.135 21.402 L 472.978 21.311 L 472.823 21.217 L 472.501 21.033 L 472.180 20.846 L 472.022 20.759 L 471.865 20.669 L 471.538 20.493 L 471.213 20.314 L 471.052 20.230 L 470.893 20.144 L 470.562 19.976 L 470.233 19.805 L 470.070 19.725 L 469.908 19.643 L 469.574 19.483 L 469.240 19.320 L 469.075 19.245 L 468.912 19.167 L 468.573 19.015 L 468.236 18.861 L 468.069 18.789 L 467.904 18.715 L 467.562 18.572 L 467.221 18.425 L 467.053 18.358 L 466.886 18.288 L 466.540 18.153 L 466.195 18.015 L 466.026 17.952 L 465.857 17.886 L 465.508 17.760 L 465.160 17.631 L 464.989 17.572 L 464.819 17.510 L 464.467 17.392 L 464.116 17.271 L 463.943 17.217 L 463.771 17.159 L 463.417 17.050 L 463.063 16.938 L 462.889 16.887 L 462.716 16.834 L 462.359 16.733 L 462.002 16.630 L 461.827 16.584 L 461.653 16.535 L 461.293 16.443 L 460.934 16.349 L 460.758 16.307 L 460.582 16.262 L 460.221 16.179 L 459.860 16.093 L 459.682 16.056 L 459.506 16.015 L 459.142 15.942 L 458.779 15.865 L 458.601 15.832 L 458.424 15.795 L 458.058 15.730 L 457.693 15.663 L 457.515 15.634 L 457.336 15.602 L 456.969 15.546 L 456.603 15.487 L 456.423 15.463 L 456.244 15.435 L 455.876 15.388 L 455.508 15.338 L 455.329 15.318 L 455.149 15.296 L 454.780 15.258 L 454.411 15.217 L 454.230 15.201 L 454.050 15.183 L 453.680 15.154 L 453.310 15.122 L 453.130 15.111 L 452.949 15.097 L 452.579 15.077 L 452.208 15.054 L 452.027 15.048 L 451.846 15.038 L 451.475 15.027 L 451.104 15.014 L 450.923 15.011 L 450.742 15.006 L 450.371 15.005 L 450.000 15.000 L 449.819 15.002 L 449.638 15.001 L 449.267 15.009 L 448.896 15.014 L 448.715 15.020 L 448.534 15.024 L 448.163 15.041 L 447.792 15.054 L 447.611 15.065 L 447.430 15.073 L 447.060 15.099 L 446.690 15.122 L 446.509 15.137 L 446.329 15.150 L 445.959 15.185 L 445.589 15.217 L 445.409 15.237 L 445.229 15.254 L 444.860 15.298 L 444.492 15.338 L 444.312 15.363 L 444.132 15.384 L 443.765 15.437 L 443.397 15.487 L 443.218 15.516 L 443.039 15.542 L 442.673 15.604 L 442.307 15.663 L 442.129 15.696 L 441.950 15.726 L 441.586 15.797 L 441.221 15.865 L 441.044 15.902 L 440.866 15.937 L 440.504 16.017 L 440.140 16.093 L 439.964 16.135 L 439.787 16.174 L 439.427 16.263 L 439.066 16.349 L 438.891 16.395 L 438.715 16.438 L 438.357 16.535 L 437.998 16.630 L 437.824 16.681 L 437.649 16.728 L 437.294 16.834 L 436.937 16.938 L 436.765 16.992 L 436.591 17.044 L 436.238 17.159 L 435.884 17.271 L 435.713 17.330 L 435.541 17.386 L 435.191 17.510 L 434.840 17.631 L 434.670 17.694 L 434.499 17.754 L 434.153 17.886 L 433.805 18.015 L 433.637 18.083 L 433.467 18.147 L 433.124 18.288 L 432.779 18.425 L 432.613 18.497 L 432.445 18.565 L 432.105 18.714 L 431.764 18.861 L 431.600 18.936 L 431.434 19.009 L 431.097 19.166 L 430.760 19.320 L 430.597 19.400 L 430.433 19.477 L 430.101 19.642 L 429.767 19.805 L 429.607 19.888 L 429.445 19.969 L 429.117 20.143 L 428.787 20.314 L 428.629 20.401 L 428.468 20.486 L 428.145 20.667 L 427.820 20.846 L 427.663 20.937 L 427.505 21.026 L 427.186 21.215 L 426.865 21.402 L 426.711 21.497 L 426.556 21.590 L 426.241 21.787 L 425.925 21.982 L 425.773 22.080 L 425.620 22.177 L 425.310 22.381 L 424.999 22.584 L 424.850 22.686 L 424.699 22.786 L 424.395 22.999 L 424.089 23.209 L 423.942 23.315 L 423.793 23.418 L 423.494 23.638 L 423.194 23.856 L 423.049 23.965 L 422.904 24.073 L 422.610 24.300 L 422.315 24.524 L 422.173 24.638 L 422.030 24.748 L 421.742 24.983 L 421.452 25.215 L 421.314 25.331 L 421.173 25.445 L 420.891 25.687 L 420.607 25.926 L 420.472 26.046 L 420.334 26.163 L 420.058 26.411 L 419.780 26.657 L 419.647 26.780 L 419.512 26.901 L 419.243 27.156 L 418.971 27.409 L 418.841 27.535 L 418.709 27.660 L 418.446 27.921 L 418.180 28.180 L 418.054 28.310 L 417.925 28.437 L 417.668 28.705 L 417.409 28.971 L 417.286 29.103 L 417.160 29.234 L 416.910 29.508 L 416.657 29.780 L 416.537 29.915 L 416.415 30.049 L 416.171 30.329 L 415.926 30.607 L 415.809 30.746 L 415.690 30.882 L 415.453 31.168 L 415.215 31.452 L 415.101 31.594 L 414.986 31.733 L 414.756 32.025 L 414.524 32.315 L 414.415 32.459 L 414.303 32.601 L 414.080 32.898 L 413.856 33.194 L 413.750 33.340 L 413.641 33.485 L 413.426 33.788 L 413.209 34.089 L 413.106 34.238 L 413.001 34.386 L 143.001 424.386 L 142.794 424.693 L 142.584 424.999 L 142.485 425.151 L 142.384 425.301 L 142.184 425.614 L 141.982 425.925 L 141.887 426.079 L 141.789 426.232 L 141.597 426.549 L 141.402 426.865 L 141.311 427.022 L 141.217 427.177 L 141.033 427.499 L 140.846 427.820 L 140.759 427.978 L 140.669 428.135 L 140.493 428.462 L 140.314 428.787 L 140.230 428.948 L 140.144 429.107 L 139.976 429.438 L 139.805 429.767 L 139.725 429.930 L 139.643 430.092 L 139.483 430.426 L 139.320 430.760 L 139.245 430.925 L 139.167 431.088 L 139.015 431.427 L 138.861 431.764 L 138.789 431.931 L 138.715 432.096 L 138.572 432.438 L 138.425 432.779 L 138.358 432.947 L 138.288 433.114 L 138.153 433.460 L 138.015 433.805 L 137.952 433.974 L 137.886 434.143 L 137.760 434.492 L 137.631 434.840 L 137.572 435.011 L 137.510 435.181 L 137.392 435.533 L 137.271 435.884 L 137.217 436.057 L 137.159 436.229 L 137.050 436.583 L 136.938 436.937 L 136.887 437.111 L 136.834 437.284 L 136.733 437.641 L 136.630 437.998 L 136.584 438.173 L 136.535 438.347 L 136.443 438.707 L 136.349 439.066 L 136.307 439.242 L 136.262 439.418 L 136.179 439.779 L 136.093 440.140 L 136.056 440.318 L 136.015 440.494 L 135.942 440.858 L 135.865 441.221 L 135.832 441.399 L 135.795 441.576 L 135.730 441.942 L 135.663 442.307 L 135.634 442.485 L 135.602 442.664 L 135.546 443.031 L 135.487 443.397 L 135.463 443.577 L 135.435 443.756 L 135.388 444.124 L 135.338 444.492 L 135.318 444.671 L 135.296 444.851 L 135.258 445.220 L 135.217 445.589 L 135.201 445.770 L 135.183 445.950 L 135.154 446.320 L 135.122 446.690 L 135.111 446.870 L 135.097 447.051 L 135.077 447.421 L 135.054 447.792 L 135.048 447.973 L 135.038 448.154 L 135.027 448.525 L 135.014 448.896 L 135.011 449.077 L 135.006 449.258 L 135.005 449.629 L 135.000 450.000 L 135.002 450.181 L 135.001 450.362 L 135.009 450.733 L 135.014 451.104 L 135.020 451.285 L 135.024 451.466 L 135.041 451.837 L 135.054 452.208 L 135.065 452.389 L 135.073 452.570 L 135.099 452.940 L 135.122 453.310 L 135.137 453.491 L 135.150 453.671 L 135.185 454.041 L 135.217 454.411 L 135.237 454.591 L 135.254 454.771 L 135.298 455.140 L 135.338 455.508 L 135.363 455.688 L 135.384 455.868 L 135.437 456.235 L 135.487 456.603 L 135.516 456.782 L 135.542 456.961 L 135.604 457.327 L 135.663 457.693 L 135.696 457.871 L 135.726 458.050 L 135.797 458.414 L 135.865 458.779 L 135.902 458.956 L 135.937 459.134 L 136.017 459.496 L 136.093 459.860 L 136.135 460.036 L 136.174 460.213 L 136.263 460.573 L 136.349 460.934 L 136.395 461.109 L 136.438 461.285 L 136.535 461.643 L 136.630 462.002 L 136.681 462.176 L 136.728 462.351 L 136.834 462.706 L 136.938 463.063 L 136.992 463.235 L 137.044 463.409 L 137.159 463.762 L 137.271 464.116 L 137.330 464.287 L 137.386 464.459 L 137.510 464.809 L 137.631 465.160 L 137.694 465.330 L 137.754 465.501 L 137.886 465.847 L 138.015 466.195 L 138.083 466.363 L 138.147 466.533 L 138.288 466.876 L 138.425 467.221 L 138.497 467.387 L 138.565 467.555 L 138.714 467.895 L 138.861 468.236 L 138.936 468.400 L 139.009 468.566 L 139.166 468.903 L 139.320 469.240 L 139.400 469.403 L 139.477 469.567 L 139.642 469.899 L 139.805 470.233 L 139.888 470.393 L 139.969 470.555 L 140.143 470.883 L 140.314 471.213 L 140.401 471.371 L 140.486 471.532 L 140.667 471.855 L 140.846 472.180 L 140.937 472.337 L 141.026 472.495 L 141.215 472.814 L 141.402 473.135 L 141.497 473.289 L 141.590 473.444 L 141.787 473.759 L 141.982 474.075 L 142.080 474.227 L 142.177 474.380 L 142.381 474.690 L 142.584 475.001 L 142.686 475.150 L 142.786 475.301 L 142.999 475.605 L 143.209 475.911 L 143.315 476.058 L 143.418 476.207 L 143.638 476.506 L 143.856 476.806 L 143.965 476.951 L 144.073 477.096 L 144.300 477.390 L 144.524 477.685 L 144.638 477.827 L 144.748 477.970 L 144.983 478.258 L 145.215 478.548 L 145.331 478.686 L 145.445 478.827 L 145.687 479.109 L 145.926 479.393 L 146.046 479.528 L 146.163 479.666 L 146.411 479.942 L 146.657 480.220 L 146.780 480.353 L 146.901 480.488 L 147.156 480.757 L 147.409 481.029 L 147.535 481.159 L 147.660 481.291 L 147.921 481.554 L 148.180 481.820 L 148.310 481.946 L 148.437 482.075 L 148.705 482.332 L 148.971 482.591 L 149.103 482.714 L 149.234 482.840 L 149.508 483.090 L 149.780 483.343 L 149.915 483.463 L 150.049 483.585 L 150.329 483.829 L 150.607 484.074 L 150.746 484.191 L 150.882 484.310 L 151.168 484.547 L 151.452 484.785 L 151.594 484.899 L 151.733 485.014 L 152.025 485.244 L 152.315 485.476 L 152.459 485.585 L 152.601 485.697 L 152.898 485.920 L 153.194 486.144 L 153.340 486.250 L 153.485 486.359 L 153.788 486.574 L 154.089 486.791 L 154.238 486.894 L 154.386 486.999 L 154.693 487.206 L 154.999 487.416 L 155.151 487.515 L 155.301 487.616 L 155.614 487.816 L 155.925 488.018 L 156.079 488.113 L 156.232 488.211 L 156.549 488.403 L 156.865 488.598 L 157.022 488.689 L 157.177 488.783 L 157.499 488.967 L 157.820 489.154 L 157.978 489.241 L 158.135 489.331 L 158.462 489.507 L 158.787 489.686 L 158.948 489.770 L 159.107 489.856 L 159.438 490.024 L 159.767 490.195 L 159.930 490.275 L 160.092 490.357 L 160.426 490.517 L 160.760 490.680 L 160.925 490.755 L 161.088 490.833 L 161.427 490.985 L 161.764 491.139 L 161.931 491.211 L 162.096 491.285 L 162.438 491.428 L 162.779 491.575 L 162.947 491.642 L 163.114 491.712 L 163.460 491.847 L 163.805 491.985 L 163.974 492.048 L 164.143 492.114 L 164.492 492.240 L 164.840 492.369 L 165.011 492.428 L 165.181 492.490 L 165.533 492.608 L 165.884 492.729 L 166.057 492.783 L 166.229 492.841 L 166.583 492.950 L 166.937 493.062 L 167.111 493.113 L 167.284 493.166 L 167.641 493.267 L 167.998 493.370 L 168.173 493.416 L 168.347 493.465 L 168.707 493.557 L 169.066 493.651 L 169.242 493.693 L 169.418 493.738 L 169.779 493.821 L 170.140 493.907 L 170.318 493.944 L 170.494 493.985 L 170.858 494.058 L 171.221 494.135 L 171.399 494.168 L 171.576 494.205 L 171.942 494.270 L 172.307 494.337 L 172.485 494.366 L 172.664 494.398 L 173.031 494.454 L 173.397 494.513 L 173.577 494.537 L 173.756 494.565 L 174.124 494.612 L 174.492 494.662 L 174.671 494.682 L 174.851 494.704 L 175.220 494.742 L 175.589 494.783 L 175.770 494.799 L 175.950 494.817 L 176.320 494.846 L 176.690 494.878 L 176.870 494.889 L 177.051 494.903 L 177.421 494.923 L 177.792 494.946 L 177.973 494.952 L 178.154 494.962 L 178.525 494.973 L 178.896 494.986 L 179.077 494.989 L 179.258 494.994 L 179.629 494.995 L 180.000 495.000 L 405.000 495.000 L 405.000 780.000 L 405.014 781.104 L 405.054 782.208 L 405.122 783.310 L 405.217 784.411 L 405.338 785.508 L 405.487 786.603 L 405.663 787.693 L 405.865 788.779 L 406.093 789.860 L 406.349 790.934 L 406.630 792.002 L 406.938 793.063 L 407.271 794.116 L 407.631 795.160 L 408.015 796.195 L 408.425 797.221 L 408.861 798.236 L 409.320 799.240 L 409.805 800.233 L 410.314 801.213 L 410.846 802.180 L 411.402 803.135 L 411.982 804.075 L 412.584 805.001 L 413.209 805.911 L 413.856 806.806 L 414.524 807.685 L 415.215 808.548 L 415.926 809.393 L 416.657 810.220 L 417.409 811.029 L 418.180 811.820 L 418.971 812.591 L 419.780 813.343 L 420.607 814.074 L 421.452 814.785 L 422.315 815.476 L 423.194 816.144 L 424.089 816.791 L 424.999 817.416 L 425.925 818.018 L 426.865 818.598 L 427.820 819.154 L 428.787 819.686 L 429.767 820.195 L 430.760 820.680 L 431.764 821.139 L 432.779 821.575 L 433.805 821.985 L 434.840 822.369 L 435.884 822.729 L 436.937 823.062 L 437.998 823.370 L 439.066 823.651 L 440.140 823.907 L 441.221 824.135 L 442.307 824.337 L 443.397 824.513 L 444.492 824.662 L 445.589 824.783 L 446.690 824.878 L 447.792 824.946 L 448.896 824.986 L 450.000 825.000 L 451.104 824.986 L 452.208 824.946 L 453.310 824.878 L 454.411 824.783 L 455.508 824.662 L 456.603 824.513 L 457.693 824.337 L 458.779 824.135 L 459.860 823.907 L 460.934 823.651 L 462.002 823.370 L 463.063 823.062 L 464.116 822.729 L 465.160 822.369 L 466.195 821.985 L 467.221 821.575 L 468.236 821.139 L 469.240 820.680 L 470.233 820.195 L 471.213 819.686 L 472.180 819.154 L 473.135 818.598 L 474.075 818.018 L 475.001 817.416 L 475.911 816.791 L 476.806 816.144 L 477.685 815.476 L 478.548 814.785 L 479.393 814.074 L 480.220 813.343 L 481.029 812.591 L 481.820 811.820 L 482.591 811.029 L 483.343 810.220 L 484.074 809.393 L 484.785 808.548 L 485.476 807.685 L 486.144 806.806 L 486.791 805.911 L 487.416 805.001 L 488.018 804.075 L 488.598 803.135 L 489.154 802.180 L 489.686 801.213 L 490.195 800.233 L 490.680 799.240 L 491.139 798.236 L 491.575 797.221 L 491.985 796.195 L 492.369 795.160 L 492.729 794.116 L 493.062 793.063 L 493.370 792.002 L 493.651 790.934 L 493.907 789.860 L 494.135 788.779 L 494.337 787.693 L 494.513 786.603 L 494.662 785.508 L 494.783 784.411 L 494.878 783.310 L 494.946 782.208 L 494.986 781.104 L 495.000 780.000 L 495.000 450.000 L 495.000 60.000 L 494.998 59.819 L 494.999 59.638 Z M 405.000 204.057 L 405.000 405.000 L 265.886 405.000 L 405.000 204.057 Z" fill="black" fill-rule="evenodd"/>
</svg>
