<svg xmlns="http://www.w3.org/2000/svg" viewBox="0 0 700.000 1000" width="700.000" height="1000">
  <path d="M 256.672 298.767 L 258.254 294.828 L 259.895 290.880 L 261.593 286.928 L 263.347 282.979 L 265.156 279.036 L 267.018 275.106 L 268.933 271.192 L 270.900 267.301 L 272.915 263.436 L 274.980 259.604 L 277.091 255.808 L 279.248 252.054 L 281.448 248.347 L 283.691 244.692 L 285.974 241.093 L 288.295 237.555 L 290.652 234.084 L 293.044 230.683 L 295.468 227.357 L 297.921 224.111 L 300.402 220.950 L 302.906 217.878 L 305.433 214.898 L 307.978 212.017 L 310.539 209.236 L 313.113 206.560 L 315.695 203.993 L 318.284 201.537 L 320.875 199.197 L 323.464 196.974 L 326.048 194.870 L 328.624 192.889 L 331.187 191.030 L 333.735 189.295 L 336.265 187.684 L 338.772 186.197 L 341.257 184.833 L 343.715 183.591 L 346.147 182.469 L 348.553 181.465 L 350.933 180.575 L 353.289 179.798 L 355.624 179.129 L 357.944 178.567 L 360.254 178.109 L 362.560 177.754 L 364.872 177.499 L 367.199 177.346 L 369.550 177.295 L 371.937 177.349 L 374.370 177.513 L 376.860 177.793 L 379.418 178.195 L 382.052 178.727 L 384.772 179.400 L 387.586 180.224 L 390.498 181.211 L 393.516 182.370 L 396.641 183.716 L 400.633 185.619 L 401.636 186.082 L 402.649 186.521 L 403.674 186.934 L 404.708 187.322 L 405.751 187.684 L 406.803 188.021 L 407.862 188.332 L 408.930 188.617 L 410.003 188.876 L 411.083 189.108 L 412.168 189.313 L 413.258 189.492 L 414.352 189.644 L 415.449 189.769 L 416.549 189.868 L 417.652 189.939 L 418.755 189.983 L 419.859 190.000 L 420.964 189.990 L 422.068 189.952 L 423.170 189.888 L 424.271 189.797 L 425.369 189.679 L 426.464 189.533 L 427.555 189.361 L 428.641 189.163 L 429.722 188.937 L 430.798 188.685 L 431.866 188.407 L 432.928 188.103 L 433.982 187.773 L 435.028 187.417 L 436.064 187.035 L 437.091 186.628 L 438.107 186.196 L 439.113 185.739 L 440.107 185.258 L 441.089 184.753 L 442.058 184.223 L 443.014 183.670 L 443.956 183.093 L 444.884 182.494 L 445.796 181.872 L 446.693 181.228 L 447.574 180.562 L 448.439 179.875 L 449.286 179.166 L 450.116 178.437 L 450.927 177.688 L 451.720 176.919 L 452.494 176.131 L 453.248 175.324 L 453.982 174.499 L 454.696 173.656 L 455.389 172.796 L 456.060 171.919 L 456.710 171.026 L 457.338 170.117 L 457.943 169.194 L 458.525 168.255 L 459.084 167.303 L 459.620 166.337 L 460.132 165.358 L 460.619 164.367 L 461.082 163.364 L 461.521 162.351 L 461.934 161.326 L 462.322 160.292 L 462.684 159.249 L 463.021 158.197 L 463.332 157.138 L 463.617 156.070 L 463.876 154.997 L 464.108 153.917 L 464.313 152.832 L 464.492 151.742 L 464.644 150.648 L 464.769 149.551 L 464.868 148.451 L 464.939 147.348 L 464.983 146.245 L 465.000 145.141 L 464.990 144.036 L 464.952 142.932 L 464.888 141.830 L 464.797 140.729 L 464.679 139.631 L 464.533 138.536 L 464.361 137.445 L 464.163 136.359 L 463.937 135.278 L 463.685 134.202 L 463.407 133.134 L 463.103 132.072 L 462.773 131.018 L 462.417 129.972 L 462.035 128.936 L 461.628 127.909 L 461.196 126.893 L 460.739 125.887 L 460.258 124.893 L 459.753 123.911 L 459.223 122.942 L 458.670 121.986 L 458.093 121.044 L 457.494 120.116 L 456.872 119.204 L 456.228 118.307 L 455.562 117.426 L 454.875 116.561 L 454.166 115.714 L 453.437 114.884 L 452.688 114.073 L 451.919 113.280 L 451.131 112.506 L 450.324 111.752 L 449.499 111.018 L 448.656 110.304 L 447.796 109.611 L 446.919 108.940 L 446.026 108.290 L 445.117 107.662 L 444.194 107.057 L 443.255 106.475 L 442.303 105.916 L 441.337 105.380 L 440.358 104.868 L 439.367 104.381 L 434.595 102.106 L 433.811 101.741 L 433.021 101.392 L 428.285 99.353 L 427.465 99.010 L 426.638 98.682 L 421.939 96.876 L 421.084 96.557 L 420.223 96.256 L 415.561 94.678 L 414.673 94.387 L 413.780 94.116 L 409.155 92.761 L 408.238 92.503 L 407.315 92.264 L 402.729 91.129 L 401.786 90.907 L 400.838 90.705 L 396.291 89.785 L 395.326 89.601 L 394.357 89.438 L 389.848 88.730 L 388.867 88.586 L 387.882 88.465 L 383.413 87.963 L 382.420 87.863 L 381.424 87.785 L 376.996 87.486 L 375.996 87.430 L 374.995 87.396 L 370.607 87.295 L 369.607 87.284 L 368.607 87.294 L 364.260 87.388 L 363.265 87.421 L 362.272 87.475 L 357.966 87.759 L 356.982 87.835 L 356.000 87.932 L 351.737 88.401 L 350.769 88.519 L 349.803 88.657 L 345.583 89.308 L 344.635 89.465 L 343.691 89.641 L 339.513 90.470 L 338.590 90.663 L 337.672 90.875 L 333.538 91.877 L 332.643 92.103 L 331.753 92.348 L 327.664 93.518 L 326.800 93.774 L 325.942 94.048 L 321.898 95.383 L 321.067 95.666 L 320.243 95.965 L 316.243 97.460 L 315.448 97.765 L 314.659 98.086 L 310.705 99.737 L 309.193 100.401 L 305.286 102.204 L 303.847 102.899 L 299.986 104.850 L 298.620 105.570 L 294.806 107.663 L 293.513 108.402 L 289.747 110.635 L 288.524 111.387 L 284.806 113.754 L 283.651 114.515 L 279.982 117.013 L 278.893 117.778 L 275.273 120.403 L 274.248 121.169 L 270.678 123.916 L 269.713 124.680 L 266.193 127.545 L 265.285 128.304 L 261.816 131.282 L 260.962 132.034 L 257.544 135.122 L 256.742 135.865 L 253.375 139.059 L 252.621 139.791 L 249.306 143.086 L 248.597 143.807 L 245.335 147.198 L 244.668 147.908 L 241.459 151.391 L 240.831 152.088 L 237.676 155.660 L 237.085 156.343 L 233.984 160.000 L 233.427 160.670 L 230.381 164.406 L 229.855 165.063 L 226.865 168.874 L 226.369 169.518 L 223.434 173.401 L 222.966 174.032 L 220.087 177.982 L 219.644 178.600 L 216.822 182.613 L 216.404 183.219 L 213.639 187.290 L 213.242 187.884 L 210.535 192.010 L 210.159 192.593 L 207.510 196.769 L 207.153 197.341 L 204.563 201.563 L 204.224 202.125 L 201.693 206.389 L 201.371 206.941 L 198.899 211.242 L 198.592 211.785 L 196.181 216.120 L 195.888 216.655 L 193.538 221.018 L 193.258 221.546 L 190.969 225.934 L 190.702 226.455 L 188.474 230.863 L 188.218 231.378 L 186.053 235.803 L 185.808 236.312 L 183.705 240.749 L 183.470 241.254 L 181.431 245.699 L 181.205 246.199 L 179.229 250.648 L 179.012 251.146 L 177.100 255.594 L 176.891 256.090 L 175.044 260.533 L 174.842 261.027 L 173.061 265.461 L 172.865 265.956 L 171.150 270.376 L 170.961 270.872 L 169.311 275.275 L 169.128 275.772 L 167.546 280.153 L 167.368 280.653 L 165.853 285.009 L 165.681 285.513 L 164.233 289.838 L 164.066 290.348 L 162.686 294.638 L 162.523 295.155 L 161.212 299.407 L 161.054 299.932 L 159.812 304.140 L 159.658 304.676 L 158.486 308.837 L 158.336 309.384 L 157.234 313.494 L 157.088 314.055 L 156.057 318.109 L 155.914 318.687 L 154.955 322.681 L 154.816 323.277 L 153.928 327.207 L 153.793 327.824 L 152.977 331.685 L 152.847 332.327 L 152.104 336.116 L 151.978 336.785 L 151.308 340.497 L 151.188 341.198 L 150.592 344.829 L 150.477 345.567 L 149.955 349.113 L 149.848 349.892 L 149.401 353.348 L 149.302 354.175 L 148.930 357.537 L 148.842 358.418 L 148.546 361.682 L 148.470 362.627 L 148.251 365.789 L 148.192 366.805 L 148.049 369.860 L 148.011 370.960 L 147.945 373.904 L 147.935 375.100 L 147.947 377.929 L 147.972 379.237 L 148.062 381.947 L 148.133 383.384 L 148.302 385.970 L 148.434 387.557 L 148.683 390.016 L 148.781 390.898 L 148.896 391.777 L 149.224 394.104 L 149.374 395.088 L 149.546 396.068 L 149.954 398.259 L 150.174 399.360 L 150.421 400.455 L 150.910 402.505 L 151.224 403.741 L 151.572 404.967 L 152.143 406.873 L 152.431 407.799 L 152.739 408.718 L 153.067 409.630 L 153.719 411.387 L 154.118 412.423 L 154.543 413.449 L 154.993 414.464 L 155.728 416.068 L 156.274 417.217 L 156.853 418.351 L 157.463 419.467 L 158.281 420.914 L 158.830 421.858 L 159.401 422.788 L 159.995 423.704 L 160.611 424.605 L 161.511 425.890 L 162.066 426.659 L 161.942 426.959 L 161.615 427.766 L 159.331 433.572 L 159.025 434.374 L 156.838 440.261 L 156.550 441.059 L 154.461 447.024 L 154.191 447.817 L 152.202 453.856 L 151.950 454.644 L 150.062 460.754 L 149.827 461.538 L 148.040 467.715 L 147.822 468.495 L 146.138 474.734 L 145.936 475.510 L 144.355 481.809 L 144.169 482.581 L 142.693 488.936 L 142.522 489.705 L 141.152 496.111 L 140.995 496.876 L 139.732 503.330 L 139.590 504.093 L 138.434 510.590 L 138.305 511.350 L 137.257 517.888 L 137.143 518.645 L 136.203 525.219 L 136.102 525.973 L 135.272 532.580 L 135.184 533.332 L 134.463 539.967 L 134.388 540.717 L 133.778 547.376 L 133.715 548.125 L 133.215 554.804 L 133.166 555.552 L 132.777 562.247 L 132.739 562.994 L 132.461 569.701 L 132.436 570.447 L 132.270 577.162 L 132.257 577.908 L 132.202 584.627 L 132.202 585.373 L 132.257 592.092 L 132.270 592.838 L 132.436 599.553 L 132.461 600.299 L 132.739 607.006 L 132.777 607.753 L 133.166 614.448 L 133.215 615.196 L 133.715 621.875 L 133.778 622.624 L 134.388 629.283 L 134.463 630.033 L 135.184 636.668 L 135.272 637.420 L 136.102 644.027 L 136.203 644.781 L 137.143 651.355 L 137.257 652.112 L 138.305 658.650 L 138.434 659.410 L 139.590 665.907 L 139.732 666.670 L 140.995 673.124 L 141.152 673.889 L 142.522 680.295 L 142.693 681.064 L 144.169 687.419 L 144.355 688.191 L 145.936 694.490 L 146.138 695.266 L 147.822 701.505 L 148.040 702.285 L 149.827 708.462 L 150.062 709.246 L 151.950 715.356 L 152.202 716.144 L 154.191 722.183 L 154.461 722.976 L 156.550 728.941 L 156.838 729.739 L 159.025 735.626 L 159.331 736.428 L 161.615 742.234 L 161.942 743.041 L 164.321 748.763 L 164.668 749.575 L 167.142 755.207 L 167.510 756.024 L 170.076 761.565 L 170.466 762.387 L 173.123 767.833 L 173.537 768.659 L 176.283 774.007 L 176.721 774.838 L 179.555 780.084 L 180.018 780.919 L 182.938 786.061 L 183.426 786.900 L 186.431 791.935 L 186.946 792.777 L 190.033 797.701 L 190.577 798.547 L 193.745 803.357 L 194.318 804.206 L 197.564 808.899 L 198.168 809.750 L 201.491 814.323 L 202.126 815.176 L 205.523 819.627 L 206.191 820.481 L 209.662 824.807 L 210.364 825.661 L 213.905 829.860 L 214.642 830.712 L 218.251 834.781 L 219.025 835.631 L 222.701 839.567 L 223.512 840.413 L 227.252 844.215 L 228.101 845.056 L 231.903 848.720 L 232.792 849.555 L 236.654 853.080 L 237.584 853.905 L 241.502 857.289 L 242.474 858.104 L 246.447 861.345 L 247.461 862.147 L 251.487 865.242 L 252.543 866.030 L 256.619 868.977 L 257.719 869.748 L 261.843 872.546 L 262.986 873.297 L 267.155 875.945 L 268.342 876.673 L 272.553 879.168 L 273.783 879.871 L 278.034 882.212 L 279.307 882.887 L 283.596 885.073 L 284.911 885.717 L 289.235 887.746 L 290.591 888.356 L 294.947 890.227 L 296.343 890.799 L 300.728 892.512 L 302.161 893.044 L 306.574 894.596 L 308.042 895.085 L 312.480 896.476 L 313.981 896.919 L 318.440 898.149 L 319.971 898.542 L 324.449 899.610 L 326.007 899.952 L 330.501 900.857 L 332.083 901.146 L 336.590 901.886 L 338.191 902.120 L 342.710 902.696 L 344.326 902.873 L 348.853 903.285 L 350.480 903.403 L 355.013 903.651 L 356.647 903.710 L 361.182 903.793 L 362.818 903.793 L 367.353 903.710 L 368.987 903.651 L 373.520 903.403 L 375.147 903.285 L 379.674 902.873 L 381.290 902.696 L 385.809 902.120 L 387.410 901.886 L 391.917 901.146 L 393.499 900.857 L 397.993 899.952 L 399.551 899.610 L 404.029 898.542 L 405.560 898.149 L 410.019 896.919 L 411.520 896.476 L 415.958 895.085 L 417.426 894.596 L 421.839 893.044 L 423.272 892.512 L 427.657 890.799 L 429.053 890.227 L 433.409 888.356 L 434.765 887.746 L 439.089 885.717 L 440.404 885.073 L 444.693 882.887 L 445.966 882.212 L 450.217 879.871 L 451.447 879.168 L 455.658 876.673 L 456.845 875.945 L 461.014 873.297 L 462.157 872.546 L 466.281 869.748 L 467.381 868.977 L 471.457 866.030 L 472.513 865.242 L 476.539 862.147 L 477.553 861.345 L 481.526 858.104 L 482.498 857.289 L 486.416 853.905 L 487.346 853.080 L 491.208 849.555 L 492.097 848.720 L 495.899 845.056 L 496.748 844.215 L 500.488 840.413 L 501.299 839.567 L 504.975 835.631 L 505.749 834.781 L 509.358 830.712 L 510.095 829.860 L 513.636 825.661 L 514.338 824.807 L 517.809 820.481 L 518.477 819.627 L 521.874 815.176 L 522.509 814.323 L 525.832 809.750 L 526.436 808.899 L 529.682 804.206 L 530.255 803.357 L 533.423 798.547 L 533.967 797.701 L 537.054 792.777 L 537.569 791.935 L 540.574 786.900 L 541.062 786.061 L 543.982 780.919 L 544.445 780.084 L 547.279 774.838 L 547.717 774.007 L 550.463 768.659 L 550.877 767.833 L 553.534 762.387 L 553.924 761.565 L 556.490 756.024 L 556.858 755.207 L 559.332 749.575 L 559.679 748.763 L 562.058 743.041 L 562.385 742.234 L 564.669 736.428 L 564.975 735.626 L 567.162 729.739 L 567.450 728.941 L 569.539 722.976 L 569.809 722.183 L 571.798 716.144 L 572.050 715.356 L 573.938 709.246 L 574.173 708.462 L 575.960 702.285 L 576.178 701.505 L 577.862 695.266 L 578.064 694.490 L 579.645 688.191 L 579.831 687.419 L 581.307 681.064 L 581.478 680.295 L 582.848 673.889 L 583.005 673.124 L 584.268 666.670 L 584.410 665.907 L 585.566 659.410 L 585.695 658.650 L 586.743 652.112 L 586.857 651.355 L 587.797 644.781 L 587.898 644.027 L 588.728 637.420 L 588.816 636.668 L 589.537 630.033 L 589.612 629.283 L 590.222 622.624 L 590.285 621.875 L 590.785 615.196 L 590.834 614.448 L 591.223 607.753 L 591.261 607.006 L 591.539 600.299 L 591.564 599.553 L 591.730 592.838 L 591.743 592.092 L 591.798 585.373 L 591.798 584.627 L 591.743 577.908 L 591.730 577.162 L 591.564 570.447 L 591.539 569.701 L 591.261 562.994 L 591.223 562.247 L 590.834 555.552 L 590.785 554.804 L 590.285 548.125 L 590.222 547.376 L 589.612 540.717 L 589.537 539.967 L 588.816 533.332 L 588.728 532.580 L 587.898 525.973 L 587.797 525.219 L 586.857 518.645 L 586.743 517.888 L 585.695 511.350 L 585.566 510.590 L 584.410 504.093 L 584.268 503.330 L 583.005 496.876 L 582.848 496.111 L 581.478 489.705 L 581.307 488.936 L 579.831 482.581 L 579.645 481.809 L 578.064 475.510 L 577.862 474.734 L 576.178 468.495 L 575.960 467.715 L 574.173 461.538 L 573.938 460.754 L 572.050 454.644 L 571.798 453.856 L 569.809 447.817 L 569.539 447.024 L 567.450 441.059 L 567.162 440.261 L 564.975 434.374 L 564.669 433.572 L 562.385 427.766 L 562.058 426.959 L 559.679 421.237 L 559.332 420.425 L 556.858 414.793 L 556.490 413.976 L 553.924 408.435 L 553.534 407.613 L 550.877 402.167 L 550.463 401.341 L 547.717 395.993 L 547.279 395.162 L 544.445 389.916 L 543.982 389.081 L 541.062 383.939 L 540.574 383.100 L 537.569 378.065 L 537.054 377.223 L 533.967 372.299 L 533.423 371.453 L 530.255 366.643 L 529.682 365.794 L 526.436 361.101 L 525.832 360.250 L 522.509 355.677 L 521.874 354.824 L 518.477 350.373 L 517.809 349.519 L 514.338 345.193 L 513.636 344.339 L 510.095 340.140 L 509.358 339.288 L 505.749 335.219 L 504.975 334.369 L 501.299 330.433 L 500.488 329.587 L 496.748 325.785 L 495.899 324.944 L 492.097 321.280 L 491.208 320.445 L 487.346 316.920 L 486.416 316.095 L 482.498 312.711 L 481.526 311.896 L 477.553 308.655 L 476.539 307.853 L 472.513 304.758 L 471.457 303.970 L 467.381 301.023 L 466.281 300.252 L 462.157 297.454 L 461.014 296.703 L 456.845 294.055 L 455.658 293.327 L 451.447 290.832 L 450.217 290.129 L 445.966 287.788 L 444.693 287.113 L 440.404 284.927 L 439.089 284.283 L 434.765 282.254 L 433.409 281.644 L 429.053 279.773 L 427.657 279.201 L 423.272 277.488 L 421.839 276.956 L 417.426 275.404 L 415.958 274.915 L 411.520 273.524 L 410.019 273.081 L 405.560 271.851 L 404.029 271.458 L 399.551 270.390 L 397.993 270.048 L 393.499 269.143 L 391.917 268.854 L 387.410 268.114 L 385.809 267.880 L 381.290 267.304 L 379.674 267.127 L 375.147 266.715 L 373.520 266.597 L 368.987 266.349 L 367.353 266.290 L 362.818 266.207 L 361.182 266.207 L 356.647 266.290 L 355.013 266.349 L 350.480 266.597 L 348.853 266.715 L 344.326 267.127 L 342.710 267.304 L 338.191 267.880 L 336.590 268.114 L 332.083 268.854 L 330.501 269.143 L 326.007 270.048 L 324.449 270.390 L 319.971 271.458 L 318.440 271.851 L 313.981 273.081 L 312.480 273.524 L 308.042 274.915 L 306.574 275.404 L 302.161 276.956 L 300.728 277.488 L 296.343 279.201 L 294.947 279.773 L 290.591 281.644 L 289.235 282.254 L 284.911 284.283 L 283.596 284.927 L 279.307 287.113 L 278.034 287.788 L 273.783 290.129 L 272.553 290.832 L 268.342 293.327 L 267.155 294.055 L 262.986 296.703 L 261.843 297.454 L 257.719 300.252 L 256.619 301.023 L 255.475 301.850 L 256.672 298.767 Z M 501.749 590.974 L 501.601 596.943 L 501.353 602.904 L 501.008 608.852 L 500.564 614.782 L 500.022 620.691 L 499.383 626.574 L 498.648 632.427 L 497.816 638.246 L 496.890 644.026 L 495.869 649.763 L 494.756 655.453 L 493.550 661.092 L 492.253 666.675 L 490.867 672.200 L 489.393 677.661 L 487.833 683.055 L 486.187 688.378 L 484.458 693.626 L 482.648 698.795 L 480.758 703.882 L 478.791 708.883 L 476.749 713.794 L 474.633 718.613 L 472.446 723.335 L 470.191 727.957 L 467.871 732.476 L 465.487 736.889 L 463.042 741.194 L 460.540 745.387 L 457.982 749.466 L 455.373 753.427 L 452.715 757.270 L 450.011 760.991 L 447.265 764.589 L 444.479 768.062 L 441.658 771.408 L 438.803 774.626 L 435.919 777.714 L 433.010 780.672 L 430.077 783.498 L 427.125 786.193 L 424.157 788.756 L 421.176 791.187 L 418.185 793.486 L 415.188 795.654 L 412.186 797.691 L 409.182 799.599 L 406.180 801.378 L 403.180 803.030 L 400.185 804.556 L 397.197 805.958 L 394.217 807.239 L 391.246 808.399 L 388.284 809.441 L 385.332 810.367 L 382.389 811.179 L 379.457 811.878 L 376.532 812.467 L 373.616 812.946 L 370.706 813.317 L 367.801 813.582 L 364.900 813.740 L 362.000 813.793 L 359.100 813.740 L 356.199 813.582 L 353.294 813.317 L 350.384 812.946 L 347.468 812.467 L 344.543 811.878 L 341.611 811.179 L 338.668 810.367 L 335.716 809.441 L 332.754 808.399 L 329.783 807.239 L 326.803 805.958 L 323.815 804.556 L 320.820 803.030 L 317.820 801.378 L 314.818 799.599 L 311.814 797.691 L 308.812 795.654 L 305.815 793.486 L 302.824 791.187 L 299.843 788.756 L 296.875 786.193 L 293.923 783.498 L 290.990 780.672 L 288.081 777.714 L 285.197 774.626 L 282.342 771.408 L 279.521 768.062 L 276.735 764.589 L 273.989 760.991 L 271.285 757.270 L 268.627 753.427 L 266.018 749.466 L 263.460 745.387 L 260.958 741.194 L 258.513 736.889 L 256.129 732.476 L 253.809 727.957 L 251.554 723.335 L 249.367 718.613 L 247.251 713.794 L 245.209 708.883 L 243.242 703.882 L 241.352 698.795 L 239.542 693.626 L 237.813 688.378 L 236.167 683.055 L 234.607 677.661 L 233.133 672.200 L 231.747 666.675 L 230.450 661.092 L 229.244 655.453 L 228.131 649.763 L 227.110 644.026 L 226.184 638.246 L 225.352 632.427 L 224.617 626.574 L 223.978 620.691 L 223.436 614.782 L 222.992 608.852 L 222.647 602.904 L 222.399 596.943 L 222.251 590.974 L 222.202 585.000 L 222.251 579.026 L 222.399 573.057 L 222.647 567.096 L 222.992 561.148 L 223.436 555.218 L 223.978 549.309 L 224.617 543.426 L 225.352 537.573 L 226.184 531.754 L 227.110 525.974 L 228.131 520.237 L 229.244 514.547 L 230.450 508.908 L 231.747 503.325 L 233.133 497.800 L 234.607 492.339 L 236.167 486.945 L 237.813 481.622 L 239.542 476.374 L 241.352 471.205 L 243.242 466.118 L 245.209 461.117 L 247.251 456.206 L 249.367 451.387 L 251.554 446.665 L 253.809 442.043 L 256.129 437.524 L 258.513 433.111 L 260.958 428.806 L 263.460 424.613 L 266.018 420.534 L 268.627 416.573 L 271.285 412.730 L 273.989 409.009 L 276.735 405.411 L 279.521 401.938 L 282.342 398.592 L 285.197 395.374 L 288.081 392.286 L 290.990 389.328 L 293.923 386.502 L 296.875 383.807 L 299.843 381.244 L 302.824 378.813 L 305.815 376.514 L 308.812 374.346 L 311.814 372.309 L 314.818 370.401 L 317.820 368.622 L 320.820 366.970 L 323.815 365.444 L 326.803 364.042 L 329.783 362.761 L 332.754 361.601 L 335.716 360.559 L 338.668 359.633 L 341.611 358.821 L 344.543 358.122 L 347.468 357.533 L 350.384 357.054 L 353.294 356.683 L 356.199 356.418 L 359.100 356.260 L 362.000 356.207 L 364.900 356.260 L 367.801 356.418 L 370.706 356.683 L 373.616 357.054 L 376.532 357.533 L 379.457 358.122 L 382.389 358.821 L 385.332 359.633 L 388.284 360.559 L 391.246 361.601 L 394.217 362.761 L 397.197 364.042 L 400.185 365.444 L 403.180 366.970 L 406.180 368.622 L 409.182 370.401 L 412.186 372.309 L 415.188 374.346 L 418.185 376.514 L 421.176 378.813 L 424.157 381.244 L 427.125 383.807 L 430.077 386.502 L 433.010 389.328 L 435.919 392.286 L 438.803 395.374 L 441.658 398.592 L 444.479 401.938 L 447.265 405.411 L 450.011 409.009 L 452.715 412.730 L 455.373 416.573 L 457.982 420.534 L 460.540 424.613 L 463.042 428.806 L 465.487 433.111 L 467.871 437.524 L 470.191 442.043 L 472.446 446.665 L 474.633 451.387 L 476.749 456.206 L 478.791 461.117 L 480.758 466.118 L 482.648 471.205 L 484.458 476.374 L 486.187 481.622 L 487.833 486.945 L 489.393 492.339 L 490.867 497.800 L 492.253 503.325 L 493.550 508.908 L 494.756 514.547 L 495.869 520.237 L 496.890 525.974 L 497.816 531.754 L 498.648 537.573 L 499.383 543.426 L 500.022 549.309 L 500.564 555.218 L 501.008 561.148 L 501.353 567.096 L 501.601 573.057 L 501.749 579.026 L 501.798 585.000 L 501.749 590.974 Z" fill="black" fill-rule="evenodd"/>
</svg>
