<svg xmlns="http://www.w3.org/2000/svg" viewBox="0 0 700.000 1000" width="700.000" height="1000">
  <path d="M 288.484 76.676 L 288.250 76.301 L 288.018 75.925 L 287.958 75.833 L 287.900 75.739 L 287.657 75.370 L 287.416 74.999 L 287.354 74.908 L 287.293 74.816 L 287.041 74.453 L 286.791 74.089 L 286.727 73.999 L 286.664 73.909 L 286.403 73.552 L 286.144 73.194 L 286.078 73.106 L 286.012 73.017 L 285.743 72.666 L 285.476 72.315 L 285.407 72.228 L 285.339 72.141 L 285.062 71.797 L 284.785 71.452 L 284.714 71.368 L 284.645 71.282 L 284.359 70.945 L 284.074 70.607 L 284.001 70.525 L 283.930 70.441 L 283.636 70.111 L 283.343 69.780 L 283.268 69.699 L 283.194 69.617 L 282.892 69.294 L 282.591 68.971 L 282.514 68.892 L 282.439 68.811 L 282.128 68.496 L 281.820 68.180 L 281.741 68.103 L 281.663 68.025 L 281.346 67.718 L 281.029 67.409 L 280.949 67.334 L 280.869 67.257 L 280.544 66.958 L 280.220 66.657 L 280.138 66.584 L 280.056 66.509 L 279.724 66.218 L 279.393 65.926 L 279.308 65.855 L 279.225 65.782 L 278.886 65.499 L 278.548 65.215 L 278.462 65.146 L 278.377 65.075 L 278.030 64.801 L 277.685 64.524 L 277.598 64.458 L 277.511 64.389 L 277.158 64.123 L 276.806 63.856 L 276.717 63.791 L 276.629 63.725 L 276.270 63.468 L 275.911 63.209 L 275.820 63.146 L 275.731 63.082 L 275.365 62.834 L 275.001 62.584 L 274.908 62.524 L 274.817 62.462 L 274.445 62.223 L 274.075 61.982 L 273.981 61.924 L 273.888 61.864 L 273.511 61.634 L 273.135 61.402 L 273.039 61.347 L 272.945 61.289 L 272.562 61.069 L 272.180 60.846 L 272.084 60.793 L 271.988 60.738 L 271.600 60.527 L 271.213 60.314 L 271.115 60.263 L 271.018 60.210 L 270.625 60.008 L 270.233 59.805 L 270.133 59.757 L 270.035 59.706 L 269.637 59.514 L 269.240 59.320 L 269.140 59.275 L 269.040 59.227 L 268.638 59.045 L 268.236 58.861 L 268.134 58.817 L 268.034 58.772 L 267.627 58.600 L 267.221 58.425 L 267.118 58.384 L 267.017 58.341 L 266.606 58.179 L 266.195 58.015 L 266.092 57.977 L 265.989 57.936 L 265.574 57.784 L 265.160 57.631 L 265.056 57.595 L 264.952 57.557 L 264.534 57.415 L 264.116 57.271 L 264.011 57.238 L 263.906 57.203 L 263.484 57.071 L 263.063 56.938 L 262.957 56.907 L 262.852 56.874 L 262.427 56.753 L 262.002 56.630 L 261.895 56.602 L 261.789 56.572 L 261.361 56.461 L 260.934 56.349 L 260.827 56.323 L 260.720 56.296 L 260.290 56.196 L 259.860 56.093 L 259.752 56.071 L 259.644 56.046 L 259.211 55.956 L 258.779 55.865 L 258.671 55.844 L 258.563 55.822 L 258.128 55.743 L 257.693 55.663 L 257.584 55.645 L 257.476 55.625 L 257.039 55.557 L 256.603 55.487 L 256.494 55.472 L 256.385 55.455 L 255.946 55.398 L 255.508 55.338 L 255.399 55.326 L 255.289 55.312 L 254.850 55.265 L 254.411 55.217 L 254.301 55.207 L 254.191 55.196 L 253.751 55.160 L 253.310 55.122 L 253.200 55.115 L 253.090 55.106 L 252.649 55.081 L 252.208 55.054 L 252.098 55.050 L 251.988 55.044 L 251.546 55.030 L 251.104 55.014 L 250.994 55.012 L 250.884 55.009 L 250.442 55.005 L 250.000 55.000 L 249.890 55.001 L 249.779 55.001 L 249.338 55.008 L 248.896 55.014 L 248.785 55.018 L 248.675 55.020 L 248.234 55.038 L 247.792 55.054 L 247.682 55.061 L 247.572 55.066 L 247.131 55.095 L 246.690 55.122 L 246.580 55.131 L 246.470 55.139 L 246.030 55.179 L 245.589 55.217 L 245.480 55.229 L 245.370 55.239 L 244.931 55.290 L 244.492 55.338 L 244.382 55.353 L 244.273 55.366 L 243.835 55.428 L 243.397 55.487 L 243.288 55.505 L 243.179 55.520 L 242.743 55.592 L 242.307 55.663 L 242.198 55.683 L 242.089 55.701 L 241.655 55.784 L 241.221 55.865 L 241.113 55.888 L 241.005 55.908 L 240.573 56.002 L 240.140 56.093 L 240.033 56.119 L 239.925 56.142 L 239.496 56.246 L 239.066 56.349 L 238.959 56.377 L 238.852 56.403 L 238.425 56.517 L 237.998 56.630 L 237.892 56.661 L 237.785 56.689 L 237.362 56.815 L 236.937 56.938 L 236.832 56.971 L 236.726 57.002 L 236.306 57.138 L 235.884 57.271 L 235.780 57.307 L 235.675 57.341 L 235.258 57.487 L 234.840 57.631 L 234.737 57.669 L 234.632 57.705 L 234.219 57.861 L 233.805 58.015 L 233.702 58.056 L 233.599 58.095 L 233.190 58.261 L 232.779 58.425 L 232.678 58.469 L 232.576 58.510 L 232.170 58.686 L 231.764 58.861 L 231.664 58.906 L 231.563 58.950 L 231.162 59.136 L 230.760 59.320 L 230.661 59.369 L 230.561 59.415 L 230.165 59.611 L 229.767 59.805 L 229.670 59.856 L 229.571 59.905 L 229.179 60.110 L 228.787 60.314 L 228.691 60.367 L 228.593 60.418 L 228.207 60.633 L 227.820 60.846 L 227.724 60.902 L 227.628 60.955 L 227.247 61.180 L 226.865 61.402 L 226.771 61.460 L 226.676 61.516 L 226.301 61.750 L 225.925 61.982 L 225.833 62.042 L 225.739 62.100 L 225.370 62.343 L 224.999 62.584 L 224.908 62.646 L 224.816 62.707 L 224.453 62.959 L 224.089 63.209 L 223.999 63.273 L 223.909 63.336 L 223.552 63.597 L 223.194 63.856 L 223.106 63.922 L 223.017 63.988 L 222.666 64.257 L 222.315 64.524 L 222.228 64.593 L 222.141 64.661 L 221.797 64.938 L 221.452 65.215 L 221.368 65.286 L 221.282 65.355 L 220.945 65.641 L 220.607 65.926 L 220.525 65.999 L 220.441 66.070 L 220.111 66.364 L 219.780 66.657 L 219.699 66.732 L 219.617 66.806 L 219.294 67.108 L 218.971 67.409 L 218.892 67.486 L 218.811 67.561 L 218.496 67.872 L 218.180 68.180 L 218.103 68.259 L 218.025 68.337 L 217.718 68.654 L 217.409 68.971 L 217.334 69.051 L 217.257 69.131 L 216.958 69.456 L 216.657 69.780 L 216.584 69.862 L 216.509 69.944 L 216.218 70.276 L 215.926 70.607 L 215.855 70.692 L 215.782 70.775 L 215.499 71.114 L 215.215 71.452 L 215.146 71.538 L 215.075 71.623 L 214.801 71.970 L 214.524 72.315 L 214.458 72.402 L 214.389 72.489 L 214.123 72.842 L 213.856 73.194 L 213.791 73.283 L 213.725 73.371 L 213.468 73.730 L 213.209 74.089 L 213.146 74.180 L 213.082 74.269 L 212.834 74.635 L 212.584 74.999 L 212.524 75.092 L 212.462 75.183 L 212.223 75.555 L 211.982 75.925 L 211.924 76.019 L 211.864 76.112 L 211.634 76.489 L 211.402 76.865 L 211.347 76.961 L 211.289 77.055 L 211.069 77.438 L 210.846 77.820 L 210.793 77.916 L 210.738 78.012 L 210.527 78.400 L 210.314 78.787 L 210.263 78.885 L 210.210 78.982 L 210.008 79.375 L 209.805 79.767 L 209.757 79.867 L 209.706 79.965 L 209.514 80.363 L 209.320 80.760 L 209.275 80.860 L 209.227 80.960 L 209.045 81.362 L 208.861 81.764 L 208.817 81.866 L 208.772 81.966 L 208.600 82.373 L 208.425 82.779 L 208.384 82.882 L 208.341 82.983 L 208.179 83.394 L 208.015 83.805 L 207.977 83.908 L 207.936 84.011 L 207.784 84.426 L 207.631 84.840 L 207.595 84.944 L 207.557 85.048 L 207.415 85.466 L 207.271 85.884 L 207.238 85.989 L 207.203 86.094 L 207.071 86.516 L 206.938 86.937 L 206.907 87.043 L 206.874 87.148 L 206.753 87.573 L 206.630 87.998 L 206.602 88.105 L 206.572 88.211 L 206.461 88.639 L 206.349 89.066 L 206.323 89.173 L 206.296 89.280 L 206.196 89.710 L 206.093 90.140 L 206.071 90.248 L 206.046 90.356 L 205.956 90.789 L 205.865 91.221 L 205.844 91.329 L 205.822 91.437 L 205.743 91.872 L 205.663 92.307 L 205.645 92.416 L 205.625 92.524 L 205.557 92.961 L 205.487 93.397 L 205.472 93.506 L 205.455 93.615 L 205.398 94.054 L 205.338 94.492 L 205.326 94.601 L 205.312 94.711 L 205.265 95.150 L 205.217 95.589 L 205.207 95.699 L 205.196 95.809 L 205.160 96.249 L 205.122 96.690 L 205.115 96.800 L 205.106 96.910 L 205.081 97.351 L 205.054 97.792 L 205.050 97.902 L 205.044 98.012 L 205.030 98.454 L 205.014 98.896 L 205.012 99.006 L 205.009 99.116 L 205.005 99.558 L 205.000 100.000 L 205.000 385.000 L 190.000 385.000 L 188.896 385.014 L 187.792 385.054 L 186.690 385.122 L 185.589 385.217 L 184.492 385.338 L 183.397 385.487 L 182.307 385.663 L 181.221 385.865 L 180.140 386.093 L 179.066 386.349 L 177.998 386.630 L 176.937 386.938 L 175.884 387.271 L 174.840 387.631 L 173.805 388.015 L 172.779 388.425 L 171.764 388.861 L 170.760 389.320 L 169.767 389.805 L 168.787 390.314 L 167.820 390.846 L 166.865 391.402 L 165.925 391.982 L 164.999 392.584 L 164.089 393.209 L 163.194 393.856 L 162.315 394.524 L 161.452 395.215 L 160.607 395.926 L 159.780 396.657 L 158.971 397.409 L 158.180 398.180 L 157.409 398.971 L 156.657 399.780 L 155.926 400.607 L 155.215 401.452 L 154.524 402.315 L 153.856 403.194 L 153.209 404.089 L 152.584 404.999 L 151.982 405.925 L 151.402 406.865 L 150.846 407.820 L 150.314 408.787 L 149.805 409.767 L 149.320 410.760 L 148.861 411.764 L 148.425 412.779 L 148.015 413.805 L 147.631 414.840 L 147.271 415.884 L 146.938 416.937 L 146.630 417.998 L 146.349 419.066 L 146.093 420.140 L 145.865 421.221 L 145.663 422.307 L 145.487 423.397 L 145.338 424.492 L 145.217 425.589 L 145.122 426.690 L 145.054 427.792 L 145.014 428.896 L 145.000 430.000 L 145.014 431.104 L 145.054 432.208 L 145.122 433.310 L 145.217 434.411 L 145.338 435.508 L 145.487 436.603 L 145.663 437.693 L 145.865 438.779 L 146.093 439.860 L 146.349 440.934 L 146.630 442.002 L 146.938 443.063 L 147.271 444.116 L 147.631 445.160 L 148.015 446.195 L 148.425 447.221 L 148.861 448.236 L 149.320 449.240 L 149.805 450.233 L 150.314 451.213 L 150.846 452.180 L 151.402 453.135 L 151.982 454.075 L 152.584 455.001 L 153.209 455.911 L 153.856 456.806 L 154.524 457.685 L 155.215 458.548 L 155.926 459.393 L 156.657 460.220 L 157.409 461.029 L 158.180 461.820 L 158.971 462.591 L 159.780 463.343 L 160.607 464.074 L 161.452 464.785 L 162.315 465.476 L 163.194 466.144 L 164.089 466.791 L 164.999 467.416 L 165.925 468.018 L 166.865 468.598 L 167.820 469.154 L 168.787 469.686 L 169.767 470.195 L 170.760 470.680 L 171.764 471.139 L 172.779 471.575 L 173.805 471.985 L 174.840 472.369 L 175.884 472.729 L 176.937 473.062 L 177.998 473.370 L 179.066 473.651 L 180.140 473.907 L 181.221 474.135 L 182.307 474.337 L 183.397 474.513 L 184.492 474.662 L 185.589 474.783 L 186.690 474.878 L 187.792 474.946 L 188.896 474.986 L 190.000 475.000 L 250.000 475.000 L 405.000 475.000 L 405.000 780.000 L 405.014 781.104 L 405.054 782.208 L 405.122 783.310 L 405.217 784.411 L 405.338 785.508 L 405.487 786.603 L 405.663 787.693 L 405.865 788.779 L 406.093 789.860 L 406.349 790.934 L 406.630 792.002 L 406.938 793.063 L 407.271 794.116 L 407.631 795.160 L 408.015 796.195 L 408.425 797.221 L 408.861 798.236 L 409.320 799.240 L 409.805 800.233 L 410.314 801.213 L 410.846 802.180 L 411.402 803.135 L 411.982 804.075 L 412.584 805.001 L 413.209 805.911 L 413.856 806.806 L 414.524 807.685 L 415.215 808.548 L 415.926 809.393 L 416.657 810.220 L 417.409 811.029 L 418.180 811.820 L 418.971 812.591 L 419.780 813.343 L 420.607 814.074 L 421.452 814.785 L 422.315 815.476 L 423.194 816.144 L 424.089 816.791 L 424.999 817.416 L 425.925 818.018 L 426.865 818.598 L 427.820 819.154 L 428.787 819.686 L 429.767 820.195 L 430.760 820.680 L 431.764 821.139 L 432.779 821.575 L 433.805 821.985 L 434.840 822.369 L 435.884 822.729 L 436.937 823.062 L 437.998 823.370 L 439.066 823.651 L 440.140 823.907 L 441.221 824.135 L 442.307 824.337 L 443.397 824.513 L 444.492 824.662 L 445.589 824.783 L 446.690 824.878 L 447.792 824.946 L 448.896 824.986 L 450.000 825.000 L 451.104 824.986 L 452.208 824.946 L 453.310 824.878 L 454.411 824.783 L 455.508 824.662 L 456.603 824.513 L 457.693 824.337 L 458.779 824.135 L 459.860 823.907 L 460.934 823.651 L 462.002 823.370 L 463.063 823.062 L 464.116 822.729 L 465.160 822.369 L 466.195 821.985 L 467.221 821.575 L 468.236 821.139 L 469.240 820.680 L 470.233 820.195 L 471.213 819.686 L 472.180 819.154 L 473.135 818.598 L 474.075 818.018 L 475.001 817.416 L 475.911 816.791 L 476.806 816.144 L 477.685 815.476 L 478.548 814.785 L 479.393 814.074 L 480.220 813.343 L 481.029 812.591 L 481.820 811.820 L 482.591 811.029 L 483.343 810.220 L 484.074 809.393 L 484.785 808.548 L 485.476 807.685 L 486.144 806.806 L 486.791 805.911 L 487.416 805.001 L 488.018 804.075 L 488.598 803.135 L 489.154 802.180 L 489.686 801.213 L 490.195 800.233 L 490.680 799.240 L 491.139 798.236 L 491.575 797.221 L 491.985 796.195 L 492.369 795.160 L 492.729 794.116 L 493.062 793.063 L 493.370 792.002 L 493.651 790.934 L 493.907 789.860 L 494.135 788.779 L 494.337 787.693 L 494.513 786.603 L 494.662 785.508 L 494.783 784.411 L 494.878 783.310 L 494.946 782.208 L 494.986 781.104 L 495.000 780.000 L 495.000 475.000 L 530.000 475.000 L 531.104 474.986 L 532.208 474.946 L 533.310 474.878 L 534.411 474.783 L 535.508 474.662 L 536.603 474.513 L 537.693 474.337 L 538.779 474.135 L 539.860 473.907 L 540.934 473.651 L 542.002 473.370 L 543.063 473.062 L 544.116 472.729 L 545.160 472.369 L 546.195 471.985 L 547.221 471.575 L 548.236 471.139 L 549.240 470.680 L 550.233 470.195 L 551.213 469.686 L 552.180 469.154 L 553.135 468.598 L 554.075 468.018 L 555.001 467.416 L 555.911 466.791 L 556.806 466.144 L 557.685 465.476 L 558.548 464.785 L 559.393 464.074 L 560.220 463.343 L 561.029 462.591 L 561.820 461.820 L 562.591 461.029 L 563.343 460.220 L 564.074 459.393 L 564.785 458.548 L 565.476 457.685 L 566.144 456.806 L 566.791 455.911 L 567.416 455.001 L 568.018 454.075 L 568.598 453.135 L 569.154 452.180 L 569.686 451.213 L 570.195 450.233 L 570.680 449.240 L 571.139 448.236 L 571.575 447.221 L 571.985 446.195 L 572.369 445.160 L 572.729 444.116 L 573.062 443.063 L 573.370 442.002 L 573.651 440.934 L 573.907 439.860 L 574.135 438.779 L 574.337 437.693 L 574.513 436.603 L 574.662 435.508 L 574.783 434.411 L 574.878 433.310 L 574.946 432.208 L 574.986 431.104 L 575.000 430.000 L 574.986 428.896 L 574.946 427.792 L 574.878 426.690 L 574.783 425.589 L 574.662 424.492 L 574.513 423.397 L 574.337 422.307 L 574.135 421.221 L 573.907 420.140 L 573.651 419.066 L 573.370 417.998 L 573.062 416.937 L 572.729 415.884 L 572.369 414.840 L 571.985 413.805 L 571.575 412.779 L 571.139 411.764 L 570.680 410.760 L 570.195 409.767 L 569.686 408.787 L 569.154 407.820 L 568.598 406.865 L 568.018 405.925 L 567.416 404.999 L 566.791 404.089 L 566.144 403.194 L 565.476 402.315 L 564.785 401.452 L 564.074 400.607 L 563.343 399.780 L 562.591 398.971 L 561.820 398.180 L 561.029 397.409 L 560.220 396.657 L 559.393 395.926 L 558.548 395.215 L 557.685 394.524 L 556.806 393.856 L 555.911 393.209 L 555.001 392.584 L 554.075 391.982 L 553.135 391.402 L 552.180 390.846 L 551.213 390.314 L 550.233 389.805 L 549.240 389.320 L 548.236 388.861 L 547.221 388.425 L 546.195 388.015 L 545.160 387.631 L 544.116 387.271 L 543.063 386.938 L 542.002 386.630 L 540.934 386.349 L 539.860 386.093 L 538.779 385.865 L 537.693 385.663 L 536.603 385.487 L 535.508 385.338 L 534.411 385.217 L 533.310 385.122 L 532.208 385.054 L 531.104 385.014 L 530.000 385.000 L 495.000 385.000 L 495.000 40.000 L 494.986 38.896 L 494.946 37.792 L 494.878 36.690 L 494.783 35.589 L 494.662 34.492 L 494.513 33.397 L 494.337 32.307 L 494.135 31.221 L 493.907 30.140 L 493.651 29.066 L 493.370 27.998 L 493.062 26.937 L 492.729 25.884 L 492.369 24.840 L 491.985 23.805 L 491.575 22.779 L 491.139 21.764 L 490.680 20.760 L 490.195 19.767 L 489.686 18.787 L 489.154 17.820 L 488.598 16.865 L 488.018 15.925 L 487.416 14.999 L 486.791 14.089 L 486.144 13.194 L 485.476 12.315 L 484.785 11.452 L 484.074 10.607 L 483.343 9.780 L 482.591 8.971 L 481.820 8.180 L 481.029 7.409 L 480.220 6.657 L 479.393 5.926 L 478.548 5.215 L 477.685 4.524 L 476.806 3.856 L 475.911 3.209 L 475.001 2.584 L 474.075 1.982 L 473.135 1.402 L 472.180 0.846 L 471.213 0.314 L 470.233 -0.195 L 469.240 -0.680 L 468.236 -1.139 L 467.221 -1.575 L 466.195 -1.985 L 465.160 -2.369 L 464.116 -2.729 L 463.063 -3.062 L 462.002 -3.370 L 460.934 -3.651 L 459.860 -3.907 L 458.779 -4.135 L 457.693 -4.337 L 456.603 -4.513 L 455.508 -4.662 L 454.411 -4.783 L 453.310 -4.878 L 452.208 -4.946 L 451.104 -4.986 L 450.000 -5.000 L 448.896 -4.986 L 447.792 -4.946 L 446.690 -4.878 L 445.589 -4.783 L 444.492 -4.662 L 443.397 -4.513 L 442.307 -4.337 L 441.221 -4.135 L 440.140 -3.907 L 439.066 -3.651 L 437.998 -3.370 L 436.937 -3.062 L 435.884 -2.729 L 434.840 -2.369 L 433.805 -1.985 L 432.779 -1.575 L 431.764 -1.139 L 430.760 -0.680 L 429.767 -0.195 L 428.787 0.314 L 427.820 0.846 L 426.865 1.402 L 425.925 1.982 L 424.999 2.584 L 424.089 3.209 L 423.194 3.856 L 422.315 4.524 L 421.452 5.215 L 420.607 5.926 L 419.780 6.657 L 418.971 7.409 L 418.180 8.180 L 417.409 8.971 L 416.657 9.780 L 415.926 10.607 L 415.215 11.452 L 414.524 12.315 L 413.856 13.194 L 413.209 14.089 L 412.584 14.999 L 411.982 15.925 L 411.402 16.865 L 410.846 17.820 L 410.314 18.787 L 409.805 19.767 L 409.320 20.760 L 408.861 21.764 L 408.425 22.779 L 408.015 23.805 L 407.631 24.840 L 407.271 25.884 L 406.938 26.937 L 406.630 27.998 L 406.349 29.066 L 406.093 30.140 L 405.865 31.221 L 405.663 32.307 L 405.487 33.397 L 405.338 34.492 L 405.217 35.589 L 405.122 36.690 L 405.054 37.792 L 405.014 38.896 L 405.000 40.000 L 405.000 268.928 L 288.484 76.676 Z M 295.000 261.072 L 370.108 385.000 L 295.000 385.000 L 295.000 261.072 Z" fill="black" fill-rule="evenodd"/>
</svg>
