<svg xmlns="http://www.w3.org/2000/svg" viewBox="0 0 700.000 1000" width="700.000" height="1000">
  <path d="M 572.208 84.946 L 573.310 84.878 L 574.411 84.783 L 575.508 84.662 L 576.603 84.513 L 577.693 84.337 L 578.779 84.135 L 579.860 83.907 L 580.934 83.651 L 582.002 83.370 L 583.063 83.062 L 584.116 82.729 L 585.160 82.369 L 586.195 81.985 L 587.221 81.575 L 588.236 81.139 L 589.240 80.680 L 590.233 80.195 L 591.213 79.686 L 592.180 79.154 L 593.135 78.598 L 594.075 78.018 L 595.001 77.416 L 595.911 76.791 L 596.806 76.144 L 597.685 75.476 L 598.548 74.785 L 599.393 74.074 L 600.220 73.343 L 601.029 72.591 L 601.820 71.820 L 602.591 71.029 L 603.343 70.220 L 604.074 69.393 L 604.785 68.548 L 605.476 67.685 L 606.144 66.806 L 606.791 65.911 L 607.416 65.001 L 608.018 64.075 L 608.598 63.135 L 609.154 62.180 L 609.686 61.213 L 610.195 60.233 L 610.680 59.240 L 611.139 58.236 L 611.575 57.221 L 611.985 56.195 L 612.369 55.160 L 612.729 54.116 L 613.062 53.063 L 613.370 52.002 L 613.651 50.934 L 613.907 49.860 L 614.135 48.779 L 614.337 47.693 L 614.513 46.603 L 614.662 45.508 L 614.783 44.411 L 614.878 43.310 L 614.946 42.208 L 614.986 41.104 L 615.000 40.000 L 614.986 38.896 L 614.946 37.792 L 614.878 36.690 L 614.783 35.589 L 614.662 34.492 L 614.513 33.397 L 614.337 32.307 L 614.135 31.221 L 613.907 30.140 L 613.651 29.066 L 613.370 27.998 L 613.062 26.937 L 612.729 25.884 L 612.369 24.840 L 611.985 23.805 L 611.575 22.779 L 611.139 21.764 L 610.680 20.760 L 610.195 19.767 L 609.686 18.787 L 609.154 17.820 L 608.598 16.865 L 608.018 15.925 L 607.416 14.999 L 606.791 14.089 L 606.144 13.194 L 605.476 12.315 L 604.785 11.452 L 604.074 10.607 L 603.343 9.780 L 602.591 8.971 L 601.820 8.180 L 601.029 7.409 L 600.220 6.657 L 599.393 5.926 L 598.548 5.215 L 597.685 4.524 L 596.806 3.856 L 595.911 3.209 L 595.001 2.584 L 594.075 1.982 L 593.135 1.402 L 592.180 0.846 L 591.213 0.314 L 590.233 -0.195 L 589.240 -0.680 L 588.236 -1.139 L 587.221 -1.575 L 586.195 -1.985 L 585.160 -2.369 L 584.116 -2.729 L 583.063 -3.062 L 582.002 -3.370 L 580.934 -3.651 L 579.860 -3.907 L 578.779 -4.135 L 577.693 -4.337 L 576.603 -4.513 L 575.508 -4.662 L 574.411 -4.783 L 573.310 -4.878 L 572.208 -4.946 L 571.104 -4.986 L 570.000 -5.000 L 130.000 -5.000 L 128.896 -4.986 L 127.792 -4.946 L 126.690 -4.878 L 125.589 -4.783 L 125.390 -4.761 L 124.492 -4.662 L 123.740 -4.560 L 123.397 -4.513 L 122.307 -4.337 L 121.221 -4.135 L 120.598 -4.003 L 120.140 -3.907 L 119.066 -3.651 L 117.998 -3.370 L 117.383 -3.192 L 116.937 -3.062 L 115.884 -2.729 L 114.840 -2.369 L 113.805 -1.985 L 112.779 -1.575 L 112.054 -1.264 L 111.764 -1.139 L 110.760 -0.680 L 110.246 -0.429 L 109.767 -0.195 L 108.787 0.314 L 107.820 0.846 L 106.865 1.402 L 106.688 1.511 L 105.925 1.982 L 104.999 2.584 L 104.089 3.209 L 103.723 3.473 L 103.194 3.856 L 102.315 4.524 L 101.851 4.896 L 101.452 5.215 L 100.607 5.926 L 99.780 6.657 L 98.971 7.409 L 98.341 8.023 L 98.180 8.180 L 97.813 8.557 L 97.409 8.971 L 96.657 9.780 L 96.146 10.357 L 95.926 10.607 L 95.215 11.452 L 94.524 12.315 L 94.143 12.816 L 93.856 13.194 L 93.392 13.835 L 93.209 14.089 L 92.584 14.999 L 91.982 15.925 L 91.402 16.865 L 91.159 17.282 L 90.846 17.820 L 90.533 18.388 L 90.314 18.787 L 89.805 19.767 L 89.514 20.363 L 89.320 20.760 L 89.137 21.162 L 88.861 21.764 L 88.721 22.090 L 88.425 22.779 L 88.015 23.805 L 87.631 24.840 L 87.463 25.328 L 87.271 25.884 L 87.185 26.156 L 86.938 26.937 L 86.702 27.749 L 86.630 27.998 L 86.349 29.066 L 86.093 30.140 L 85.865 31.221 L 85.743 31.872 L 85.663 32.307 L 85.604 32.670 L 85.487 33.397 L 85.338 34.492 L 85.326 34.607 L 85.217 35.589 L 85.136 36.522 L 85.122 36.690 L 85.054 37.792 L 85.014 38.896 L 85.000 40.000 L 85.000 40.000 L 85.000 410.000 L 85.014 411.104 L 85.054 412.208 L 85.122 413.310 L 85.217 414.411 L 85.338 415.508 L 85.487 416.603 L 85.663 417.693 L 85.865 418.779 L 86.093 419.860 L 86.349 420.934 L 86.630 422.002 L 86.938 423.063 L 87.271 424.116 L 87.631 425.160 L 88.015 426.195 L 88.425 427.221 L 88.861 428.236 L 89.320 429.240 L 89.805 430.233 L 90.314 431.213 L 90.846 432.180 L 91.402 433.135 L 91.982 434.075 L 92.584 435.001 L 93.209 435.911 L 93.856 436.806 L 94.524 437.685 L 95.215 438.548 L 95.926 439.393 L 96.657 440.220 L 97.409 441.029 L 98.180 441.820 L 98.971 442.591 L 99.780 443.343 L 100.607 444.074 L 101.452 444.785 L 102.315 445.476 L 103.194 446.144 L 104.089 446.791 L 104.999 447.416 L 105.925 448.018 L 106.865 448.598 L 107.820 449.154 L 108.787 449.686 L 109.767 450.195 L 110.760 450.680 L 111.764 451.139 L 112.779 451.575 L 113.805 451.985 L 114.840 452.369 L 115.884 452.729 L 116.937 453.062 L 117.998 453.370 L 119.066 453.651 L 120.140 453.907 L 121.221 454.135 L 122.307 454.337 L 123.397 454.513 L 124.492 454.662 L 125.589 454.783 L 126.690 454.878 L 127.792 454.946 L 128.896 454.986 L 130.000 455.000 L 500.000 455.000 L 500.300 454.996 L 500.599 454.996 L 500.852 454.990 L 501.104 454.986 L 501.404 454.975 L 501.703 454.968 L 567.703 452.468 L 567.810 452.462 L 567.917 452.459 L 568.361 452.435 L 568.806 452.412 L 568.913 452.404 L 569.019 452.399 L 569.463 452.363 L 569.907 452.330 L 570.014 452.319 L 570.120 452.311 L 570.563 452.265 L 571.006 452.221 L 571.112 452.207 L 571.219 452.196 L 571.660 452.139 L 572.102 452.084 L 572.208 452.068 L 572.314 452.055 L 572.754 451.987 L 573.194 451.921 L 573.300 451.903 L 573.406 451.886 L 573.844 451.808 L 574.282 451.731 L 574.387 451.710 L 574.493 451.691 L 574.929 451.602 L 575.365 451.515 L 575.470 451.491 L 575.575 451.469 L 576.009 451.369 L 576.443 451.271 L 576.547 451.245 L 576.651 451.221 L 577.082 451.111 L 577.514 451.002 L 577.617 450.973 L 577.721 450.947 L 578.149 450.825 L 578.578 450.706 L 578.680 450.675 L 578.783 450.646 L 579.209 450.514 L 579.634 450.385 L 579.736 450.351 L 579.838 450.319 L 580.260 450.177 L 580.683 450.037 L 580.784 450.001 L 580.885 449.967 L 581.303 449.814 L 581.722 449.664 L 581.822 449.625 L 581.923 449.589 L 582.337 449.426 L 582.752 449.265 L 582.851 449.224 L 582.951 449.185 L 583.361 449.012 L 583.772 448.842 L 583.870 448.798 L 583.969 448.756 L 584.375 448.574 L 584.781 448.393 L 584.878 448.347 L 584.976 448.303 L 585.377 448.110 L 585.779 447.920 L 585.875 447.871 L 585.972 447.825 L 586.368 447.623 L 586.765 447.422 L 586.860 447.371 L 586.955 447.323 L 587.346 447.111 L 587.739 446.900 L 587.832 446.848 L 587.926 446.797 L 588.312 446.575 L 588.699 446.355 L 588.791 446.300 L 588.884 446.247 L 589.264 446.016 L 589.646 445.786 L 589.736 445.729 L 589.828 445.673 L 590.203 445.433 L 590.578 445.194 L 590.667 445.135 L 590.758 445.077 L 591.126 444.828 L 591.496 444.580 L 591.584 444.518 L 591.672 444.458 L 592.035 444.200 L 592.398 443.943 L 592.484 443.879 L 592.572 443.817 L 592.927 443.550 L 593.285 443.284 L 593.369 443.218 L 593.455 443.154 L 593.804 442.878 L 594.155 442.604 L 594.237 442.536 L 594.322 442.469 L 594.664 442.185 L 595.008 441.902 L 595.089 441.832 L 595.171 441.764 L 595.507 441.471 L 595.843 441.180 L 595.923 441.108 L 596.003 441.037 L 596.331 440.737 L 596.661 440.437 L 596.738 440.363 L 596.817 440.291 L 597.138 439.982 L 597.460 439.675 L 597.536 439.599 L 597.613 439.525 L 597.926 439.208 L 598.240 438.893 L 598.314 438.816 L 598.389 438.739 L 598.694 438.415 L 599.001 438.093 L 599.073 438.013 L 599.146 437.935 L 599.443 437.604 L 599.742 437.273 L 599.811 437.192 L 599.883 437.112 L 600.172 436.774 L 600.462 436.436 L 600.530 436.354 L 600.599 436.272 L 600.880 435.926 L 601.162 435.582 L 601.228 435.497 L 601.295 435.414 L 601.567 435.062 L 601.840 434.711 L 601.904 434.624 L 601.970 434.540 L 602.233 434.181 L 602.497 433.823 L 602.559 433.735 L 602.622 433.649 L 602.877 433.283 L 603.132 432.919 L 603.192 432.830 L 603.253 432.742 L 603.498 432.371 L 603.745 432.000 L 603.802 431.910 L 603.861 431.820 L 604.097 431.443 L 604.335 431.066 L 604.390 430.975 L 604.447 430.884 L 604.673 430.501 L 604.902 430.119 L 604.954 430.025 L 605.009 429.933 L 605.226 429.545 L 605.445 429.157 L 605.496 429.063 L 605.548 428.969 L 605.755 428.575 L 605.965 428.182 L 606.013 428.087 L 606.063 427.992 L 606.261 427.593 L 606.460 427.195 L 606.506 427.099 L 606.554 427.003 L 606.742 426.599 L 606.931 426.197 L 606.975 426.099 L 607.020 426.001 L 607.198 425.594 L 607.378 425.186 L 607.419 425.087 L 607.462 424.989 L 607.630 424.577 L 607.800 424.166 L 607.838 424.066 L 607.878 423.966 L 608.036 423.550 L 608.196 423.135 L 608.232 423.034 L 608.270 422.934 L 608.417 422.514 L 608.567 422.094 L 608.600 421.993 L 608.636 421.892 L 608.773 421.468 L 608.912 421.045 L 608.943 420.943 L 608.976 420.841 L 609.103 420.414 L 609.232 419.988 L 609.260 419.885 L 609.291 419.782 L 609.407 419.353 L 609.525 418.923 L 609.551 418.820 L 609.579 418.716 L 609.685 418.284 L 609.792 417.852 L 609.816 417.747 L 609.841 417.643 L 609.936 417.208 L 610.033 416.774 L 610.054 416.669 L 610.077 416.564 L 610.161 416.127 L 610.248 415.691 L 610.266 415.585 L 610.286 415.480 L 610.360 415.041 L 610.435 414.602 L 610.451 414.496 L 610.469 414.391 L 610.531 413.950 L 610.596 413.510 L 610.609 413.403 L 610.624 413.297 L 610.676 412.855 L 610.730 412.413 L 610.741 412.307 L 610.753 412.200 L 610.794 411.757 L 610.837 411.314 L 610.845 411.207 L 610.855 411.100 L 610.885 410.656 L 610.917 410.212 L 610.923 410.105 L 610.930 409.999 L 610.949 409.554 L 610.971 409.109 L 610.973 409.002 L 610.978 408.895 L 610.986 408.450 L 610.996 408.005 L 610.996 407.898 L 610.998 407.791 L 610.996 407.346 L 610.995 406.901 L 610.993 406.794 L 610.992 406.687 L 610.978 406.242 L 610.967 405.797 L 610.962 405.690 L 610.958 405.583 L 610.934 405.138 L 610.912 404.694 L 610.904 404.587 L 610.898 404.480 L 610.863 404.036 L 610.829 403.592 L 610.819 403.486 L 610.810 403.379 L 610.764 402.936 L 610.720 402.493 L 610.707 402.387 L 610.696 402.280 L 610.639 401.839 L 610.584 401.397 L 610.568 401.291 L 610.554 401.185 L 610.486 400.745 L 610.420 400.305 L 610.402 400.199 L 610.386 400.094 L 610.307 399.655 L 610.230 399.217 L 610.209 399.112 L 610.190 399.006 L 610.101 398.570 L 610.014 398.134 L 609.990 398.029 L 609.969 397.925 L 609.869 397.491 L 609.771 397.057 L 609.745 396.953 L 609.720 396.848 L 609.610 396.417 L 609.501 395.986 L 609.473 395.882 L 609.446 395.779 L 609.325 395.350 L 609.206 394.921 L 609.174 394.819 L 609.145 394.716 L 609.014 394.291 L 608.884 393.865 L 608.850 393.763 L 608.818 393.661 L 608.676 393.239 L 608.536 392.817 L 608.500 392.716 L 608.466 392.614 L 608.314 392.196 L 608.163 391.777 L 608.124 391.677 L 608.088 391.577 L 607.925 391.162 L 607.765 390.747 L 607.723 390.648 L 607.684 390.548 L 607.512 390.138 L 607.341 389.727 L 607.297 389.629 L 607.256 389.531 L 607.073 389.125 L 606.892 388.718 L 606.846 388.621 L 606.802 388.523 L 606.610 388.122 L 606.419 387.720 L 606.371 387.624 L 606.324 387.528 L 606.122 387.131 L 605.921 386.734 L 605.871 386.640 L 605.822 386.544 L 605.610 386.153 L 605.400 385.761 L 605.347 385.667 L 605.296 385.573 L 605.074 385.187 L 604.854 384.800 L 604.799 384.708 L 604.746 384.615 L 604.515 384.235 L 604.286 383.853 L 604.228 383.763 L 604.173 383.671 L 603.932 383.297 L 603.694 382.921 L 603.634 382.832 L 603.576 382.742 L 602.654 381.341 L 602.423 380.995 L 601.487 379.602 L 601.254 379.259 L 600.303 377.873 L 600.067 377.532 L 599.103 376.154 L 598.865 375.816 L 597.887 374.445 L 597.646 374.110 L 596.655 372.747 L 596.412 372.415 L 595.407 371.059 L 595.161 370.730 L 594.143 369.383 L 593.894 369.057 L 592.863 367.717 L 592.612 367.394 L 591.568 366.062 L 591.314 365.742 L 590.257 364.418 L 590.001 364.101 L 588.930 362.786 L 588.672 362.472 L 587.588 361.165 L 587.328 360.853 L 586.231 359.555 L 585.969 359.247 L 584.859 357.957 L 584.594 357.652 L 583.472 356.370 L 583.205 356.068 L 582.071 354.796 L 581.802 354.497 L 580.654 353.233 L 580.383 352.937 L 579.223 351.682 L 578.950 351.389 L 577.778 350.143 L 577.503 349.853 L 576.318 348.617 L 576.041 348.330 L 574.844 347.103 L 574.565 346.819 L 573.357 345.601 L 573.075 345.320 L 571.855 344.112 L 571.572 343.834 L 570.339 342.635 L 570.054 342.360 L 568.810 341.171 L 568.523 340.900 L 567.267 339.720 L 566.979 339.451 L 565.711 338.282 L 565.421 338.016 L 564.142 336.856 L 563.850 336.594 L 562.559 335.444 L 562.266 335.185 L 560.964 334.045 L 560.669 333.789 L 559.356 332.659 L 559.059 332.406 L 557.735 331.286 L 557.437 331.037 L 556.101 329.927 L 555.802 329.681 L 554.455 328.582 L 554.154 328.338 L 552.797 327.250 L 552.494 327.009 L 551.126 325.931 L 550.822 325.694 L 549.444 324.627 L 549.138 324.393 L 547.749 323.336 L 547.443 323.105 L 546.043 322.059 L 545.735 321.831 L 544.325 320.796 L 544.016 320.571 L 542.596 319.548 L 542.285 319.326 L 540.855 318.313 L 540.544 318.094 L 539.103 317.092 L 538.790 316.877 L 537.340 315.886 L 537.026 315.674 L 535.567 314.694 L 535.251 314.485 L 533.782 313.517 L 533.466 313.311 L 531.987 312.354 L 531.669 312.151 L 530.181 311.206 L 529.862 311.006 L 528.365 310.072 L 528.045 309.875 L 526.538 308.953 L 526.218 308.759 L 524.702 307.849 L 524.380 307.658 L 522.855 306.760 L 522.533 306.571 L 520.999 305.685 L 520.675 305.500 L 519.133 304.626 L 518.809 304.444 L 517.258 303.581 L 516.932 303.402 L 515.373 302.552 L 515.046 302.376 L 513.479 301.538 L 513.152 301.364 L 511.576 300.538 L 511.248 300.368 L 509.663 299.555 L 509.335 299.387 L 507.743 298.586 L 507.413 298.422 L 505.813 297.633 L 505.483 297.472 L 503.875 296.695 L 503.544 296.537 L 501.928 295.773 L 501.597 295.618 L 499.974 294.866 L 499.641 294.714 L 498.011 293.975 L 497.678 293.825 L 496.040 293.099 L 495.706 292.953 L 494.062 292.239 L 493.727 292.096 L 492.076 291.395 L 491.740 291.255 L 490.082 290.567 L 489.746 290.429 L 488.081 289.754 L 487.744 289.619 L 486.073 288.957 L 485.736 288.826 L 484.057 288.177 L 483.720 288.048 L 482.035 287.412 L 481.697 287.286 L 480.006 286.663 L 479.667 286.539 L 477.970 285.930 L 477.631 285.809 L 475.928 285.213 L 475.589 285.095 L 473.880 284.512 L 473.540 284.398 L 471.825 283.828 L 471.485 283.716 L 469.764 283.159 L 469.423 283.050 L 467.698 282.507 L 467.356 282.401 L 465.625 281.871 L 465.284 281.768 L 463.548 281.251 L 463.205 281.151 L 461.464 280.648 L 461.121 280.550 L 459.375 280.061 L 459.032 279.966 L 457.282 279.490 L 456.938 279.398 L 455.183 278.936 L 454.839 278.847 L 453.079 278.398 L 452.735 278.312 L 450.971 277.877 L 450.626 277.794 L 448.858 277.372 L 448.513 277.292 L 446.740 276.884 L 446.395 276.806 L 444.618 276.412 L 444.273 276.337 L 442.493 275.957 L 442.147 275.885 L 440.363 275.519 L 440.017 275.449 L 438.229 275.097 L 437.883 275.030 L 436.092 274.691 L 435.746 274.627 L 433.951 274.303 L 433.605 274.242 L 431.807 273.931 L 431.460 273.872 L 429.660 273.576 L 429.313 273.520 L 427.509 273.237 L 427.162 273.184 L 425.356 272.916 L 425.008 272.865 L 423.200 272.611 L 422.852 272.563 L 421.041 272.322 L 420.693 272.278 L 418.880 272.051 L 418.532 272.009 L 416.716 271.796 L 416.368 271.757 L 414.550 271.559 L 414.202 271.522 L 412.382 271.338 L 412.034 271.304 L 410.213 271.134 L 409.864 271.103 L 408.041 270.947 L 407.693 270.918 L 405.868 270.776 L 405.520 270.750 L 403.694 270.623 L 403.345 270.600 L 401.518 270.486 L 401.169 270.466 L 399.341 270.366 L 398.992 270.349 L 397.163 270.264 L 396.814 270.249 L 394.985 270.178 L 394.636 270.165 L 392.805 270.109 L 392.456 270.099 L 390.626 270.057 L 390.276 270.050 L 388.445 270.021 L 388.096 270.017 L 386.265 270.003 L 385.916 270.002 L 384.084 270.002 L 383.735 270.003 L 381.904 270.017 L 381.555 270.021 L 379.724 270.050 L 379.374 270.057 L 377.544 270.099 L 377.195 270.109 L 375.364 270.165 L 375.015 270.178 L 373.186 270.249 L 372.837 270.264 L 371.008 270.349 L 370.659 270.366 L 368.831 270.466 L 368.482 270.486 L 366.655 270.600 L 366.306 270.623 L 364.480 270.750 L 364.132 270.776 L 362.307 270.918 L 361.959 270.947 L 360.136 271.103 L 359.787 271.134 L 357.966 271.304 L 357.618 271.338 L 355.798 271.522 L 355.450 271.559 L 353.632 271.757 L 353.284 271.796 L 351.468 272.009 L 351.120 272.051 L 349.307 272.278 L 348.959 272.322 L 347.148 272.563 L 346.800 272.611 L 344.992 272.865 L 344.644 272.916 L 342.838 273.184 L 342.491 273.237 L 340.687 273.520 L 340.340 273.576 L 338.540 273.872 L 338.193 273.931 L 336.395 274.242 L 336.049 274.303 L 334.254 274.627 L 333.908 274.691 L 332.117 275.030 L 331.771 275.097 L 329.983 275.449 L 329.637 275.519 L 327.853 275.885 L 327.507 275.957 L 325.727 276.337 L 325.382 276.412 L 323.605 276.806 L 323.260 276.884 L 321.487 277.292 L 321.142 277.372 L 319.374 277.794 L 319.029 277.877 L 317.265 278.312 L 316.921 278.398 L 315.161 278.847 L 314.817 278.936 L 313.062 279.398 L 312.718 279.490 L 310.968 279.966 L 310.625 280.061 L 308.879 280.550 L 308.536 280.648 L 306.795 281.151 L 306.452 281.251 L 304.716 281.768 L 304.375 281.871 L 302.644 282.401 L 302.302 282.507 L 300.577 283.050 L 300.236 283.159 L 298.515 283.716 L 298.175 283.828 L 296.460 284.398 L 296.120 284.512 L 294.411 285.095 L 294.072 285.213 L 292.369 285.809 L 292.030 285.930 L 290.333 286.539 L 289.994 286.663 L 288.303 287.286 L 287.965 287.412 L 286.280 288.048 L 285.943 288.177 L 284.264 288.826 L 283.927 288.957 L 282.256 289.619 L 281.919 289.754 L 280.254 290.429 L 279.918 290.567 L 278.260 291.255 L 277.924 291.395 L 276.273 292.096 L 275.938 292.239 L 274.294 292.953 L 273.960 293.099 L 272.322 293.825 L 271.989 293.975 L 270.359 294.714 L 270.026 294.866 L 268.403 295.618 L 268.072 295.773 L 266.456 296.537 L 266.125 296.695 L 264.517 297.472 L 264.187 297.633 L 262.587 298.422 L 262.257 298.586 L 260.665 299.387 L 260.337 299.555 L 258.752 300.368 L 258.424 300.538 L 256.848 301.364 L 256.521 301.538 L 254.954 302.376 L 254.627 302.552 L 253.068 303.402 L 252.742 303.581 L 251.191 304.444 L 250.867 304.626 L 249.325 305.500 L 249.001 305.685 L 247.467 306.571 L 247.145 306.760 L 245.620 307.658 L 245.298 307.849 L 243.782 308.759 L 243.462 308.953 L 241.955 309.875 L 241.635 310.072 L 240.138 311.006 L 239.819 311.206 L 238.331 312.151 L 238.013 312.354 L 236.534 313.311 L 236.218 313.517 L 234.749 314.485 L 234.433 314.694 L 232.974 315.674 L 232.660 315.886 L 231.210 316.877 L 230.897 317.092 L 229.456 318.094 L 229.145 318.313 L 227.715 319.326 L 227.404 319.548 L 225.984 320.571 L 225.675 320.796 L 224.265 321.831 L 223.957 322.059 L 222.557 323.105 L 222.251 323.336 L 220.862 324.393 L 220.556 324.627 L 219.178 325.694 L 218.874 325.931 L 217.506 327.009 L 217.203 327.250 L 215.846 328.338 L 215.545 328.582 L 214.198 329.681 L 213.899 329.927 L 212.563 331.037 L 212.265 331.286 L 210.941 332.406 L 210.644 332.659 L 209.331 333.789 L 209.036 334.045 L 207.734 335.185 L 207.441 335.444 L 206.150 336.594 L 205.858 336.856 L 204.579 338.016 L 204.289 338.282 L 203.021 339.451 L 202.733 339.720 L 201.477 340.900 L 201.190 341.171 L 199.946 342.360 L 199.661 342.635 L 198.428 343.834 L 198.145 344.112 L 196.925 345.320 L 196.643 345.601 L 195.435 346.819 L 195.156 347.103 L 193.959 348.330 L 193.682 348.617 L 192.497 349.853 L 192.222 350.143 L 191.050 351.389 L 190.777 351.682 L 189.617 352.937 L 189.346 353.233 L 188.198 354.497 L 187.929 354.796 L 186.795 356.068 L 186.528 356.370 L 185.406 357.652 L 185.141 357.957 L 184.031 359.247 L 183.769 359.555 L 182.672 360.853 L 182.412 361.165 L 181.328 362.472 L 181.070 362.786 L 179.999 364.101 L 179.743 364.418 L 179.279 365.000 L 175.000 365.000 L 175.000 85.000 L 570.000 85.000 L 571.104 84.986 L 572.208 84.946 Z M 341.826 364.963 L 343.254 364.635 L 344.686 364.318 L 346.121 364.012 L 347.559 363.716 L 349.001 363.432 L 350.446 363.159 L 351.893 362.897 L 353.344 362.647 L 354.798 362.407 L 356.254 362.179 L 357.713 361.962 L 359.174 361.756 L 360.638 361.562 L 362.104 361.379 L 363.571 361.207 L 365.041 361.046 L 366.512 360.897 L 367.985 360.760 L 369.460 360.634 L 370.936 360.519 L 372.413 360.415 L 373.891 360.324 L 375.370 360.243 L 376.850 360.174 L 378.331 360.117 L 379.812 360.071 L 381.294 360.036 L 382.776 360.013 L 384.259 360.002 L 385.741 360.002 L 387.224 360.013 L 388.706 360.036 L 390.188 360.071 L 391.669 360.117 L 393.150 360.174 L 394.630 360.243 L 396.109 360.324 L 397.587 360.415 L 399.064 360.519 L 400.540 360.634 L 402.015 360.760 L 403.488 360.897 L 404.959 361.046 L 406.429 361.207 L 407.896 361.379 L 409.362 361.562 L 410.826 361.756 L 412.287 361.962 L 413.746 362.179 L 415.202 362.407 L 416.656 362.647 L 418.107 362.897 L 419.554 363.159 L 420.999 363.432 L 422.441 363.716 L 423.879 364.012 L 425.314 364.318 L 426.746 364.635 L 428.174 364.963 L 428.327 365.000 L 341.673 365.000 L 341.826 364.963 Z M 573.310 824.878 L 574.411 824.783 L 575.508 824.662 L 576.603 824.513 L 577.693 824.337 L 578.779 824.135 L 579.860 823.907 L 580.934 823.651 L 582.002 823.370 L 583.063 823.062 L 584.116 822.729 L 585.160 822.369 L 586.195 821.985 L 587.221 821.575 L 588.236 821.139 L 589.240 820.680 L 590.233 820.195 L 591.213 819.686 L 592.180 819.154 L 593.135 818.598 L 594.075 818.018 L 595.001 817.416 L 595.911 816.791 L 596.806 816.144 L 597.685 815.476 L 598.548 814.785 L 599.393 814.074 L 600.220 813.343 L 601.029 812.591 L 601.820 811.820 L 602.591 811.029 L 603.343 810.220 L 604.074 809.393 L 604.785 808.548 L 605.476 807.685 L 606.144 806.806 L 606.791 805.911 L 607.416 805.001 L 608.018 804.075 L 608.598 803.135 L 609.154 802.180 L 609.686 801.213 L 610.195 800.233 L 610.680 799.240 L 611.139 798.236 L 611.575 797.221 L 611.985 796.195 L 612.369 795.160 L 612.729 794.116 L 613.062 793.063 L 613.370 792.002 L 613.651 790.934 L 613.907 789.860 L 614.135 788.779 L 614.337 787.693 L 614.513 786.603 L 614.662 785.508 L 614.783 784.411 L 614.878 783.310 L 614.946 782.208 L 614.986 781.104 L 615.000 780.000 L 614.986 778.896 L 614.946 777.792 L 614.878 776.690 L 614.783 775.589 L 614.662 774.492 L 614.513 773.397 L 614.337 772.307 L 614.135 771.221 L 613.907 770.140 L 613.651 769.066 L 613.370 767.998 L 613.062 766.937 L 612.729 765.884 L 612.369 764.840 L 611.985 763.805 L 611.575 762.779 L 611.139 761.764 L 610.680 760.760 L 610.195 759.767 L 609.686 758.787 L 609.154 757.820 L 608.598 756.865 L 608.018 755.925 L 607.416 754.999 L 606.791 754.089 L 606.144 753.194 L 605.476 752.315 L 604.785 751.452 L 604.074 750.607 L 603.343 749.780 L 602.591 748.971 L 601.820 748.180 L 601.029 747.409 L 600.220 746.657 L 599.393 745.926 L 598.548 745.215 L 597.685 744.524 L 596.806 743.856 L 595.911 743.209 L 595.001 742.584 L 594.075 741.982 L 593.135 741.402 L 592.180 740.846 L 591.213 740.314 L 590.233 739.805 L 589.240 739.320 L 588.236 738.861 L 587.221 738.425 L 586.195 738.015 L 585.160 737.631 L 584.116 737.271 L 583.063 736.938 L 582.002 736.630 L 580.934 736.349 L 579.860 736.093 L 578.779 735.865 L 577.693 735.663 L 576.603 735.487 L 575.508 735.338 L 574.411 735.217 L 573.310 735.122 L 572.208 735.054 L 571.104 735.014 L 570.000 735.000 L 130.000 735.000 L 128.896 735.014 L 127.792 735.054 L 126.690 735.122 L 125.589 735.217 L 124.492 735.338 L 123.397 735.487 L 122.307 735.663 L 121.221 735.865 L 120.140 736.093 L 119.066 736.349 L 117.998 736.630 L 116.937 736.938 L 115.884 737.271 L 114.840 737.631 L 113.805 738.015 L 112.779 738.425 L 111.764 738.861 L 110.760 739.320 L 109.767 739.805 L 108.787 740.314 L 107.820 740.846 L 106.865 741.402 L 105.925 741.982 L 104.999 742.584 L 104.089 743.209 L 103.194 743.856 L 102.315 744.524 L 101.452 745.215 L 100.607 745.926 L 99.780 746.657 L 98.971 747.409 L 98.180 748.180 L 97.409 748.971 L 96.657 749.780 L 95.926 750.607 L 95.215 751.452 L 94.524 752.315 L 93.856 753.194 L 93.209 754.089 L 92.584 754.999 L 91.982 755.925 L 91.402 756.865 L 90.846 757.820 L 90.314 758.787 L 89.805 759.767 L 89.320 760.760 L 88.861 761.764 L 88.425 762.779 L 88.015 763.805 L 87.631 764.840 L 87.271 765.884 L 86.938 766.937 L 86.630 767.998 L 86.349 769.066 L 86.093 770.140 L 85.865 771.221 L 85.663 772.307 L 85.487 773.397 L 85.338 774.492 L 85.217 775.589 L 85.122 776.690 L 85.054 777.792 L 85.014 778.896 L 85.000 780.000 L 85.014 781.104 L 85.054 782.208 L 85.122 783.310 L 85.217 784.411 L 85.338 785.508 L 85.487 786.603 L 85.663 787.693 L 85.865 788.779 L 86.093 789.860 L 86.349 790.934 L 86.630 792.002 L 86.938 793.063 L 87.271 794.116 L 87.631 795.160 L 88.015 796.195 L 88.425 797.221 L 88.861 798.236 L 89.320 799.240 L 89.805 800.233 L 90.314 801.213 L 90.846 802.180 L 91.402 803.135 L 91.982 804.075 L 92.584 805.001 L 93.209 805.911 L 93.856 806.806 L 94.524 807.685 L 95.215 808.548 L 95.926 809.393 L 96.657 810.220 L 97.409 811.029 L 98.180 811.820 L 98.971 812.591 L 99.780 813.343 L 100.607 814.074 L 101.452 814.785 L 102.315 815.476 L 103.194 816.144 L 104.089 816.791 L 104.999 817.416 L 105.925 818.018 L 106.865 818.598 L 107.820 819.154 L 108.787 819.686 L 109.767 820.195 L 110.760 820.680 L 111.764 821.139 L 112.779 821.575 L 113.805 821.985 L 114.840 822.369 L 115.884 822.729 L 116.937 823.062 L 117.998 823.370 L 119.066 823.651 L 120.140 823.907 L 121.221 824.135 L 122.307 824.337 L 123.397 824.513 L 124.492 824.662 L 125.589 824.783 L 126.690 824.878 L 127.792 824.946 L 128.896 824.986 L 130.000 825.000 L 570.000 825.000 L 571.104 824.986 L 572.208 824.946 L 573.310 824.878 Z" fill="black" fill-rule="evenodd"/>
</svg>
