<svg xmlns="http://www.w3.org/2000/svg" viewBox="0 0 700.000 1000" width="700.000" height="1000">
  <path d="M 217.006 441.715 L 216.693 442.774 L 216.406 443.841 L 216.145 444.914 L 215.911 445.993 L 215.703 447.078 L 215.522 448.168 L 215.367 449.261 L 215.240 450.358 L 215.140 451.458 L 215.066 452.560 L 215.020 453.664 L 215.001 454.768 L 215.008 455.872 L 215.043 456.976 L 215.105 458.079 L 215.195 459.180 L 215.311 460.278 L 215.454 461.373 L 215.623 462.464 L 215.820 463.551 L 216.043 464.633 L 216.293 465.709 L 216.569 466.778 L 216.871 467.840 L 217.199 468.895 L 217.553 469.941 L 217.932 470.978 L 218.337 472.006 L 218.767 473.023 L 219.222 474.030 L 219.701 475.025 L 220.205 476.008 L 220.732 476.978 L 221.283 477.935 L 221.858 478.878 L 222.455 479.807 L 223.075 480.721 L 223.718 481.620 L 224.382 482.502 L 225.068 483.368 L 225.774 484.217 L 226.502 485.048 L 227.249 485.861 L 228.016 486.655 L 228.803 487.431 L 229.608 488.186 L 230.432 488.922 L 231.273 489.638 L 232.132 490.332 L 233.007 491.006 L 233.899 491.657 L 234.807 492.287 L 235.729 492.894 L 236.667 493.478 L 237.618 494.039 L 238.583 494.576 L 239.560 495.090 L 240.550 495.580 L 241.552 496.045 L 242.565 496.485 L 243.588 496.901 L 244.622 497.291 L 245.664 497.655 L 246.715 497.994 L 247.774 498.307 L 248.841 498.594 L 249.914 498.855 L 250.993 499.089 L 252.078 499.297 L 253.168 499.478 L 254.261 499.633 L 255.358 499.760 L 256.458 499.860 L 257.560 499.934 L 258.664 499.980 L 259.768 499.999 L 260.872 499.992 L 261.976 499.957 L 263.079 499.895 L 264.180 499.805 L 265.278 499.689 L 266.373 499.546 L 267.464 499.377 L 268.551 499.180 L 269.633 498.957 L 270.709 498.707 L 271.778 498.431 L 272.840 498.129 L 273.895 497.801 L 274.941 497.447 L 275.978 497.068 L 277.006 496.663 L 278.023 496.233 L 279.030 495.778 L 280.025 495.299 L 281.008 494.795 L 281.978 494.268 L 282.935 493.717 L 283.878 493.142 L 284.807 492.545 L 285.721 491.925 L 286.620 491.282 L 287.502 490.618 L 288.368 489.932 L 289.217 489.226 L 290.048 488.498 L 290.861 487.751 L 291.655 486.984 L 292.431 486.197 L 293.186 485.392 L 293.922 484.568 L 294.638 483.727 L 295.332 482.868 L 296.006 481.993 L 296.657 481.101 L 297.287 480.193 L 297.894 479.271 L 298.478 478.333 L 299.039 477.382 L 299.576 476.417 L 300.090 475.440 L 300.580 474.450 L 301.045 473.448 L 301.485 472.435 L 301.901 471.412 L 302.291 470.378 L 315.000 435.428 L 315.000 455.000 L 315.014 456.104 L 315.054 457.208 L 315.122 458.310 L 315.217 459.411 L 315.338 460.508 L 315.487 461.603 L 315.663 462.693 L 315.865 463.779 L 316.093 464.860 L 316.349 465.934 L 316.630 467.002 L 316.938 468.063 L 317.271 469.116 L 317.631 470.160 L 318.015 471.195 L 318.425 472.221 L 318.861 473.236 L 319.320 474.240 L 319.805 475.233 L 320.314 476.213 L 320.846 477.180 L 321.402 478.135 L 321.982 479.075 L 322.584 480.001 L 323.209 480.911 L 323.856 481.806 L 324.524 482.685 L 325.215 483.548 L 325.926 484.393 L 326.657 485.220 L 327.409 486.029 L 328.180 486.820 L 328.971 487.591 L 329.780 488.343 L 330.607 489.074 L 331.452 489.785 L 332.315 490.476 L 333.194 491.144 L 334.089 491.791 L 334.999 492.416 L 335.925 493.018 L 336.865 493.598 L 337.820 494.154 L 338.787 494.686 L 339.767 495.195 L 340.760 495.680 L 341.764 496.139 L 342.779 496.575 L 343.805 496.985 L 344.840 497.369 L 345.362 497.549 L 345.884 497.729 L 346.937 498.062 L 347.998 498.370 L 349.066 498.651 L 350.140 498.907 L 351.221 499.135 L 352.307 499.337 L 353.397 499.513 L 354.492 499.662 L 355.589 499.783 L 356.690 499.878 L 357.792 499.946 L 358.896 499.986 L 360.000 500.000 L 405.000 500.000 L 405.000 780.000 L 405.014 781.104 L 405.054 782.208 L 405.122 783.310 L 405.217 784.411 L 405.338 785.508 L 405.487 786.603 L 405.663 787.693 L 405.865 788.779 L 406.093 789.860 L 406.349 790.934 L 406.630 792.002 L 406.938 793.063 L 407.271 794.116 L 407.631 795.160 L 408.015 796.195 L 408.425 797.221 L 408.861 798.236 L 409.320 799.240 L 409.805 800.233 L 410.314 801.213 L 410.846 802.180 L 411.402 803.135 L 411.982 804.075 L 412.584 805.001 L 413.209 805.911 L 413.856 806.806 L 414.524 807.685 L 415.215 808.548 L 415.926 809.393 L 416.657 810.220 L 417.409 811.029 L 418.180 811.820 L 418.971 812.591 L 419.780 813.343 L 420.607 814.074 L 421.452 814.785 L 422.315 815.476 L 423.194 816.144 L 424.089 816.791 L 424.999 817.416 L 425.925 818.018 L 426.865 818.598 L 427.820 819.154 L 428.787 819.686 L 429.767 820.195 L 430.760 820.680 L 431.764 821.139 L 432.779 821.575 L 433.805 821.985 L 434.840 822.369 L 435.884 822.729 L 436.937 823.062 L 437.998 823.370 L 439.066 823.651 L 440.140 823.907 L 441.221 824.135 L 442.307 824.337 L 443.397 824.513 L 444.492 824.662 L 445.589 824.783 L 446.690 824.878 L 447.792 824.946 L 448.896 824.986 L 450.000 825.000 L 451.104 824.986 L 452.208 824.946 L 453.310 824.878 L 454.411 824.783 L 455.508 824.662 L 456.603 824.513 L 457.693 824.337 L 458.779 824.135 L 459.860 823.907 L 460.934 823.651 L 462.002 823.370 L 463.063 823.062 L 464.116 822.729 L 465.160 822.369 L 466.195 821.985 L 467.221 821.575 L 468.236 821.139 L 469.240 820.680 L 470.233 820.195 L 471.213 819.686 L 472.180 819.154 L 473.135 818.598 L 474.075 818.018 L 475.001 817.416 L 475.911 816.791 L 476.806 816.144 L 477.685 815.476 L 478.548 814.785 L 479.393 814.074 L 480.220 813.343 L 481.029 812.591 L 481.820 811.820 L 482.591 811.029 L 483.343 810.220 L 484.074 809.393 L 484.785 808.548 L 485.476 807.685 L 486.144 806.806 L 486.791 805.911 L 487.416 805.001 L 488.018 804.075 L 488.598 803.135 L 489.154 802.180 L 489.686 801.213 L 490.195 800.233 L 490.680 799.240 L 491.139 798.236 L 491.575 797.221 L 491.985 796.195 L 492.369 795.160 L 492.729 794.116 L 493.062 793.063 L 493.370 792.002 L 493.651 790.934 L 493.907 789.860 L 494.135 788.779 L 494.337 787.693 L 494.513 786.603 L 494.662 785.508 L 494.783 784.411 L 494.878 783.310 L 494.946 782.208 L 494.986 781.104 L 495.000 780.000 L 495.000 455.000 L 495.000 40.000 L 494.986 38.896 L 494.946 37.792 L 494.878 36.690 L 494.783 35.589 L 494.662 34.492 L 494.513 33.397 L 494.337 32.307 L 494.135 31.221 L 493.907 30.140 L 493.651 29.066 L 493.370 27.998 L 493.062 26.937 L 492.729 25.884 L 492.369 24.840 L 491.985 23.805 L 491.575 22.779 L 491.139 21.764 L 490.680 20.760 L 490.195 19.767 L 489.686 18.787 L 489.154 17.820 L 488.598 16.865 L 488.018 15.925 L 487.416 14.999 L 486.791 14.089 L 486.144 13.194 L 485.476 12.315 L 484.785 11.452 L 484.074 10.607 L 483.343 9.780 L 482.591 8.971 L 481.820 8.180 L 481.029 7.409 L 480.220 6.657 L 479.393 5.926 L 478.548 5.215 L 477.685 4.524 L 476.806 3.856 L 475.911 3.209 L 475.001 2.584 L 474.075 1.982 L 473.135 1.402 L 472.180 0.846 L 471.213 0.314 L 470.233 -0.195 L 469.240 -0.680 L 468.236 -1.139 L 467.221 -1.575 L 466.195 -1.985 L 465.160 -2.369 L 464.116 -2.729 L 463.063 -3.062 L 462.002 -3.370 L 460.934 -3.651 L 459.860 -3.907 L 458.779 -4.135 L 457.693 -4.337 L 456.603 -4.513 L 455.508 -4.662 L 454.411 -4.783 L 453.310 -4.878 L 452.208 -4.946 L 451.104 -4.986 L 450.000 -5.000 L 448.896 -4.986 L 447.792 -4.946 L 446.690 -4.878 L 445.589 -4.783 L 444.492 -4.662 L 443.397 -4.513 L 442.307 -4.337 L 441.221 -4.135 L 440.140 -3.907 L 439.066 -3.651 L 437.998 -3.370 L 436.937 -3.062 L 435.884 -2.729 L 434.840 -2.369 L 433.805 -1.985 L 432.779 -1.575 L 431.764 -1.139 L 430.760 -0.680 L 429.767 -0.195 L 428.787 0.314 L 427.820 0.846 L 426.865 1.402 L 425.925 1.982 L 424.999 2.584 L 424.089 3.209 L 423.194 3.856 L 422.315 4.524 L 421.452 5.215 L 420.607 5.926 L 419.780 6.657 L 418.971 7.409 L 418.180 8.180 L 417.409 8.971 L 416.657 9.780 L 415.926 10.607 L 415.215 11.452 L 414.524 12.315 L 413.856 13.194 L 413.209 14.089 L 412.584 14.999 L 411.982 15.925 L 411.402 16.865 L 410.846 17.820 L 410.314 18.787 L 409.805 19.767 L 409.320 20.760 L 408.861 21.764 L 408.425 22.779 L 408.015 23.805 L 407.631 24.840 L 407.271 25.884 L 406.938 26.937 L 406.630 27.998 L 406.349 29.066 L 406.093 30.140 L 405.865 31.221 L 405.663 32.307 L 405.487 33.397 L 405.338 34.492 L 405.217 35.589 L 405.122 36.690 L 405.054 37.792 L 405.014 38.896 L 405.000 40.000 L 405.000 180.000 L 404.995 179.564 L 404.992 179.128 L 404.988 179.012 L 404.986 178.896 L 404.970 178.460 L 404.957 178.024 L 404.950 177.908 L 404.946 177.792 L 404.919 177.357 L 404.895 176.921 L 404.885 176.805 L 404.878 176.690 L 404.841 176.255 L 404.805 175.820 L 404.793 175.705 L 404.783 175.589 L 404.735 175.156 L 404.689 174.722 L 404.674 174.607 L 404.662 174.492 L 404.603 174.059 L 404.546 173.627 L 404.529 173.512 L 404.513 173.397 L 404.444 172.967 L 404.377 172.536 L 404.356 172.421 L 404.337 172.307 L 404.258 171.878 L 404.180 171.449 L 404.157 171.335 L 404.135 171.221 L 404.045 170.794 L 403.957 170.367 L 403.931 170.254 L 403.907 170.140 L 403.806 169.716 L 403.707 169.291 L 403.678 169.179 L 403.651 169.066 L 403.540 168.644 L 403.431 168.222 L 403.400 168.110 L 403.370 167.998 L 403.248 167.579 L 403.129 167.160 L 403.095 167.049 L 403.062 166.937 L 402.931 166.521 L 402.801 166.105 L 402.764 165.995 L 402.729 165.884 L 402.587 165.472 L 402.447 165.059 L 402.407 164.950 L 402.369 164.840 L 402.218 164.431 L 402.068 164.022 L 402.025 163.914 L 401.985 163.805 L 401.823 163.400 L 401.663 162.994 L 401.618 162.887 L 401.575 162.779 L 401.403 162.378 L 401.233 161.977 L 401.185 161.871 L 401.139 161.764 L 400.958 161.368 L 400.778 160.970 L 400.728 160.866 L 400.680 160.760 L 400.488 160.368 L 400.299 159.975 L 400.246 159.872 L 400.195 159.767 L 399.994 159.380 L 399.795 158.992 L 399.740 158.890 L 399.686 158.787 L 399.476 158.405 L 399.268 158.022 L 399.210 157.921 L 399.154 157.820 L 398.934 157.443 L 398.717 157.065 L 398.656 156.966 L 398.598 156.865 L 398.369 156.494 L 398.142 156.122 L 398.079 156.024 L 398.018 155.925 L 397.781 155.560 L 397.545 155.193 L 397.479 155.097 L 397.416 154.999 L 397.169 154.640 L 396.925 154.279 L 396.857 154.184 L 396.791 154.089 L 396.536 153.735 L 396.282 153.380 L 396.212 153.288 L 396.144 153.194 L 395.880 152.846 L 395.618 152.498 L 395.546 152.407 L 395.476 152.315 L 395.203 151.974 L 394.932 151.632 L 394.858 151.543 L 394.785 151.452 L 394.505 151.119 L 394.226 150.783 L 394.149 150.696 L 394.074 150.607 L 393.785 150.280 L 393.498 149.952 L 393.420 149.867 L 393.343 149.780 L 393.046 149.460 L 392.751 149.139 L 392.670 149.056 L 392.591 148.971 L 392.287 148.659 L 391.984 148.345 L 391.901 148.263 L 391.820 148.180 L 391.508 147.876 L 391.197 147.569 L 391.112 147.490 L 391.029 147.409 L 390.710 147.112 L 390.392 146.814 L 390.305 146.736 L 390.220 146.657 L 389.893 146.368 L 389.568 146.078 L 389.480 146.003 L 389.393 145.926 L 389.059 145.645 L 388.727 145.362 L 388.637 145.289 L 388.548 145.215 L 388.207 144.942 L 387.868 144.668 L 387.776 144.597 L 387.685 144.524 L 387.338 144.260 L 386.993 143.994 L 386.899 143.926 L 386.806 143.856 L 386.453 143.600 L 386.101 143.343 L 386.005 143.277 L 385.911 143.209 L 385.552 142.962 L 385.193 142.713 L 385.096 142.650 L 385.001 142.584 L 384.635 142.346 L 384.271 142.106 L 384.172 142.045 L 384.075 141.982 L 383.704 141.753 L 383.333 141.522 L 383.233 141.463 L 383.135 141.402 L 382.758 141.183 L 382.382 140.961 L 382.281 140.905 L 382.180 140.846 L 381.798 140.636 L 381.417 140.424 L 381.315 140.370 L 381.213 140.314 L 380.826 140.113 L 380.440 139.910 L 380.336 139.858 L 380.233 139.805 L 379.841 139.614 L 379.450 139.420 L 379.344 139.371 L 379.240 139.320 L 378.843 139.139 L 378.448 138.955 L 378.341 138.909 L 378.236 138.861 L 377.835 138.689 L 377.435 138.515 L 377.327 138.471 L 377.221 138.425 L 376.816 138.263 L 376.412 138.099 L 376.303 138.058 L 376.195 138.015 L 375.786 137.863 L 375.378 137.709 L 375.269 137.671 L 375.160 137.631 L 374.748 137.489 L 374.336 137.345 L 374.225 137.309 L 374.116 137.271 L 373.700 137.140 L 373.285 137.006 L 373.173 136.973 L 373.063 136.938 L 372.644 136.816 L 372.226 136.693 L 372.114 136.662 L 372.002 136.630 L 371.580 136.519 L 371.159 136.406 L 371.046 136.378 L 370.934 136.349 L 370.510 136.248 L 370.086 136.145 L 369.973 136.120 L 369.860 136.093 L 369.433 136.003 L 369.007 135.911 L 368.893 135.889 L 368.779 135.865 L 368.350 135.785 L 367.922 135.703 L 367.807 135.684 L 367.693 135.663 L 367.263 135.593 L 366.832 135.522 L 366.717 135.505 L 366.603 135.487 L 366.171 135.428 L 365.739 135.367 L 365.624 135.354 L 365.508 135.338 L 365.075 135.290 L 364.642 135.240 L 364.526 135.229 L 364.411 135.217 L 363.976 135.179 L 363.542 135.140 L 363.426 135.132 L 363.310 135.122 L 362.875 135.095 L 362.440 135.066 L 362.324 135.061 L 362.208 135.054 L 361.772 135.038 L 361.336 135.020 L 361.220 135.018 L 361.104 135.014 L 360.668 135.008 L 360.232 135.001 L 360.116 135.001 L 360.000 135.000 L 359.564 135.005 L 359.128 135.008 L 359.012 135.012 L 358.896 135.014 L 358.460 135.030 L 358.024 135.043 L 357.908 135.050 L 357.792 135.054 L 357.357 135.081 L 356.921 135.105 L 356.805 135.115 L 356.690 135.122 L 356.255 135.159 L 355.820 135.195 L 355.705 135.207 L 355.589 135.217 L 355.156 135.265 L 354.722 135.311 L 354.607 135.326 L 354.492 135.338 L 354.059 135.397 L 353.627 135.454 L 353.512 135.471 L 353.397 135.487 L 352.967 135.556 L 352.536 135.623 L 352.421 135.644 L 352.307 135.663 L 351.878 135.742 L 351.449 135.820 L 351.335 135.843 L 351.221 135.865 L 350.794 135.955 L 350.367 136.043 L 350.254 136.069 L 350.140 136.093 L 349.716 136.194 L 349.291 136.293 L 349.179 136.322 L 349.066 136.349 L 348.644 136.460 L 348.222 136.569 L 348.110 136.600 L 347.998 136.630 L 347.579 136.752 L 347.160 136.871 L 347.049 136.905 L 346.937 136.938 L 346.521 137.069 L 346.105 137.199 L 345.995 137.236 L 345.884 137.271 L 345.472 137.413 L 345.059 137.553 L 344.950 137.593 L 344.840 137.631 L 344.431 137.782 L 344.022 137.932 L 343.914 137.975 L 343.805 138.015 L 343.400 138.177 L 342.994 138.337 L 342.887 138.382 L 342.779 138.425 L 342.378 138.597 L 341.977 138.767 L 341.871 138.815 L 341.764 138.861 L 341.368 139.042 L 340.970 139.222 L 340.866 139.272 L 340.760 139.320 L 340.368 139.512 L 339.975 139.701 L 339.872 139.754 L 339.767 139.805 L 339.380 140.006 L 338.992 140.205 L 338.890 140.260 L 338.787 140.314 L 338.405 140.524 L 338.022 140.732 L 337.921 140.790 L 337.820 140.846 L 337.443 141.066 L 337.065 141.283 L 336.966 141.344 L 336.865 141.402 L 336.494 141.631 L 336.122 141.858 L 336.024 141.921 L 335.925 141.982 L 335.560 142.219 L 335.193 142.455 L 335.097 142.521 L 334.999 142.584 L 334.640 142.831 L 334.279 143.075 L 334.184 143.143 L 334.089 143.209 L 333.735 143.464 L 333.380 143.718 L 333.288 143.788 L 333.194 143.856 L 332.846 144.120 L 332.498 144.382 L 332.407 144.454 L 332.315 144.524 L 331.974 144.797 L 331.632 145.068 L 331.543 145.142 L 331.452 145.215 L 331.119 145.495 L 330.783 145.774 L 330.696 145.851 L 330.607 145.926 L 330.280 146.215 L 329.952 146.502 L 329.867 146.580 L 329.780 146.657 L 329.460 146.954 L 329.139 147.249 L 329.056 147.330 L 328.971 147.409 L 328.659 147.713 L 328.345 148.016 L 328.263 148.099 L 328.180 148.180 L 327.876 148.492 L 327.569 148.803 L 327.490 148.888 L 327.409 148.971 L 327.112 149.290 L 326.814 149.608 L 326.736 149.695 L 326.657 149.780 L 326.368 150.107 L 326.078 150.432 L 326.003 150.520 L 325.926 150.607 L 325.645 150.941 L 325.362 151.273 L 325.289 151.363 L 325.215 151.452 L 324.942 151.793 L 324.668 152.132 L 324.597 152.224 L 324.524 152.315 L 324.260 152.662 L 323.994 153.007 L 323.926 153.101 L 323.856 153.194 L 323.600 153.547 L 323.343 153.899 L 323.277 153.995 L 323.209 154.089 L 322.962 154.448 L 322.713 154.807 L 322.650 154.904 L 322.584 154.999 L 322.346 155.365 L 322.106 155.729 L 322.045 155.828 L 321.982 155.925 L 321.753 156.296 L 321.522 156.667 L 321.463 156.767 L 321.402 156.865 L 321.183 157.242 L 320.961 157.618 L 320.905 157.719 L 320.846 157.820 L 320.636 158.202 L 320.424 158.583 L 320.370 158.685 L 320.314 158.787 L 320.113 159.174 L 319.910 159.560 L 319.858 159.664 L 319.805 159.767 L 319.614 160.159 L 319.420 160.550 L 319.371 160.656 L 319.320 160.760 L 319.139 161.157 L 318.955 161.552 L 318.909 161.659 L 318.861 161.764 L 318.689 162.165 L 318.515 162.565 L 318.471 162.673 L 318.425 162.779 L 318.263 163.184 L 318.099 163.588 L 318.058 163.697 L 318.015 163.805 L 317.863 164.214 L 317.709 164.622 L 217.709 439.622 L 217.345 440.664 L 217.006 441.715 Z" fill="black" fill-rule="evenodd"/>
</svg>
