<svg xmlns="http://www.w3.org/2000/svg" viewBox="0 0 700.000 1000" width="700.000" height="1000">
  <path d="M 499.946 119.128 L 499.188 118.642 L 494.412 115.644 L 493.625 115.160 L 492.828 114.693 L 488.017 111.942 L 487.191 111.481 L 486.355 111.037 L 481.513 108.532 L 480.650 108.097 L 479.777 107.681 L 474.906 105.419 L 474.007 105.014 L 473.100 104.629 L 468.201 102.611 L 467.270 102.240 L 466.331 101.889 L 461.408 100.113 L 460.448 99.779 L 459.480 99.466 L 454.535 97.931 L 453.549 97.638 L 452.556 97.366 L 447.592 96.071 L 446.584 95.820 L 445.571 95.593 L 440.590 94.536 L 439.566 94.331 L 438.537 94.150 L 433.542 93.330 L 432.505 93.173 L 431.466 93.039 L 426.459 92.455 L 425.416 92.346 L 424.371 92.261 L 419.356 91.912 L 418.311 91.852 L 417.266 91.816 L 412.244 91.700 L 411.203 91.688 L 410.163 91.701 L 405.138 91.818 L 404.106 91.854 L 403.075 91.913 L 398.049 92.262 L 397.031 92.344 L 396.015 92.449 L 390.990 93.027 L 389.990 93.154 L 388.993 93.302 L 383.972 94.110 L 382.994 94.278 L 382.020 94.468 L 377.006 95.502 L 376.054 95.710 L 375.106 95.937 L 370.101 97.198 L 369.177 97.442 L 368.258 97.705 L 363.264 99.191 L 362.371 99.467 L 361.484 99.761 L 356.504 101.471 L 355.644 101.777 L 354.789 102.100 L 349.827 104.033 L 349.000 104.364 L 348.179 104.712 L 343.236 106.866 L 342.444 107.221 L 341.659 107.591 L 336.738 109.965 L 335.980 110.340 L 335.230 110.728 L 330.333 113.322 L 328.896 114.118 L 324.027 116.929 L 322.658 117.752 L 317.819 120.781 L 316.519 121.626 L 311.711 124.870 L 310.478 125.733 L 305.706 129.191 L 304.536 130.067 L 299.802 133.739 L 298.695 134.625 L 294.000 138.508 L 292.953 139.402 L 288.301 143.495 L 287.311 144.393 L 282.704 148.696 L 281.770 149.595 L 277.211 154.106 L 276.328 155.004 L 271.819 159.723 L 270.987 160.618 L 266.531 165.543 L 265.745 166.434 L 261.344 171.563 L 260.604 172.450 L 256.261 177.782 L 255.563 178.662 L 251.281 184.197 L 250.622 185.070 L 246.404 190.806 L 245.783 191.671 L 241.630 197.606 L 241.045 198.463 L 236.961 204.597 L 236.410 205.445 L 232.396 211.776 L 231.877 212.615 L 227.937 219.143 L 227.449 219.972 L 223.585 226.695 L 223.125 227.515 L 219.339 234.432 L 218.906 235.242 L 215.202 242.351 L 214.795 243.153 L 211.175 250.453 L 210.792 251.245 L 209.117 254.794 L 208.676 255.245 L 208.212 255.727 L 205.907 258.156 L 205.454 258.640 L 203.174 261.116 L 202.733 261.601 L 200.477 264.123 L 200.048 264.609 L 197.817 267.176 L 197.399 267.664 L 195.194 270.276 L 194.787 270.764 L 192.608 273.420 L 192.212 273.910 L 190.060 276.609 L 189.675 277.099 L 187.550 279.842 L 187.175 280.332 L 185.077 283.118 L 184.713 283.608 L 182.643 286.436 L 182.289 286.927 L 180.247 289.796 L 179.903 290.286 L 177.890 293.196 L 177.556 293.687 L 175.572 296.637 L 175.247 297.127 L 173.293 300.117 L 172.977 300.606 L 171.053 303.636 L 170.746 304.125 L 168.852 307.193 L 168.555 307.681 L 166.691 310.787 L 166.403 311.274 L 164.570 314.417 L 164.291 314.904 L 162.490 318.084 L 162.218 318.570 L 160.449 321.786 L 160.186 322.271 L 158.449 325.522 L 158.194 326.007 L 156.489 329.292 L 156.242 329.776 L 154.570 333.096 L 154.331 333.578 L 152.692 336.931 L 152.461 337.412 L 150.855 340.798 L 150.631 341.278 L 149.060 344.697 L 148.843 345.175 L 147.306 348.625 L 147.096 349.103 L 145.593 352.583 L 145.391 353.059 L 143.923 356.570 L 143.727 357.045 L 142.294 360.585 L 142.105 361.059 L 140.707 364.627 L 140.525 365.100 L 139.162 368.696 L 138.987 369.167 L 137.660 372.791 L 137.491 373.261 L 136.201 376.911 L 136.038 377.380 L 134.784 381.055 L 134.627 381.523 L 133.410 385.224 L 133.259 385.691 L 132.078 389.415 L 131.933 389.881 L 130.790 393.629 L 130.651 394.093 L 129.545 397.864 L 129.412 398.328 L 128.343 402.120 L 128.216 402.583 L 127.185 406.397 L 127.063 406.858 L 126.070 410.692 L 125.954 411.153 L 124.999 415.007 L 124.888 415.466 L 123.972 419.339 L 123.866 419.797 L 122.988 423.688 L 122.888 424.145 L 122.049 428.054 L 121.953 428.510 L 121.153 432.435 L 121.063 432.891 L 120.302 436.831 L 120.216 437.286 L 119.495 441.242 L 119.414 441.696 L 118.732 445.665 L 118.657 446.119 L 118.014 450.102 L 117.943 450.554 L 117.340 454.550 L 117.274 455.002 L 116.710 459.009 L 116.649 459.460 L 116.126 463.479 L 116.069 463.930 L 115.586 467.958 L 115.534 468.408 L 115.090 472.446 L 115.043 472.896 L 114.640 476.942 L 114.597 477.392 L 114.234 481.446 L 114.196 481.894 L 113.873 485.956 L 113.840 486.404 L 113.557 490.471 L 113.529 490.919 L 113.286 494.992 L 113.262 495.440 L 113.060 499.517 L 113.041 499.964 L 112.879 504.045 L 112.864 504.492 L 112.743 508.576 L 112.733 509.023 L 112.653 513.109 L 112.646 513.556 L 112.607 517.643 L 112.604 518.090 L 112.606 522.177 L 112.608 522.624 L 112.650 526.711 L 112.657 527.158 L 112.739 531.243 L 112.750 531.691 L 112.873 535.774 L 112.889 536.221 L 113.052 540.302 L 113.073 540.749 L 113.277 544.826 L 113.301 545.274 L 113.546 549.346 L 113.575 549.794 L 113.860 553.861 L 113.893 554.310 L 114.219 558.371 L 114.257 558.819 L 114.622 562.873 L 114.665 563.322 L 115.071 567.368 L 115.118 567.818 L 115.564 571.855 L 115.616 572.305 L 116.102 576.334 L 116.159 576.784 L 116.685 580.802 L 116.746 581.253 L 117.312 585.260 L 117.378 585.712 L 117.984 589.707 L 118.055 590.160 L 118.700 594.142 L 118.776 594.595 L 119.460 598.564 L 119.541 599.018 L 120.265 602.973 L 120.351 603.428 L 121.114 607.367 L 121.205 607.823 L 122.007 611.747 L 122.103 612.204 L 122.944 616.111 L 123.045 616.568 L 123.925 620.458 L 124.031 620.917 L 124.949 624.788 L 125.061 625.248 L 126.018 629.101 L 126.135 629.561 L 127.130 633.394 L 127.252 633.855 L 128.285 637.668 L 128.413 638.131 L 129.483 641.922 L 129.617 642.385 L 130.725 646.155 L 130.865 646.620 L 132.010 650.366 L 132.155 650.832 L 133.338 654.555 L 133.489 655.022 L 134.709 658.721 L 134.866 659.189 L 136.122 662.863 L 136.285 663.332 L 137.578 666.980 L 137.747 667.451 L 139.076 671.073 L 139.252 671.544 L 140.617 675.139 L 140.799 675.612 L 142.199 679.178 L 142.388 679.652 L 143.824 683.190 L 144.020 683.666 L 145.490 687.174 L 145.693 687.651 L 147.198 691.129 L 147.408 691.607 L 148.947 695.055 L 149.164 695.534 L 150.738 698.950 L 150.962 699.430 L 152.570 702.814 L 152.802 703.295 L 154.442 706.647 L 154.682 707.129 L 156.356 710.447 L 156.603 710.930 L 158.310 714.214 L 158.565 714.698 L 160.304 717.948 L 160.568 718.433 L 162.339 721.646 L 162.611 722.133 L 164.414 725.310 L 164.694 725.797 L 165.884 727.835 L 165.989 728.021 L 166.231 728.429 L 166.528 728.938 L 166.817 729.426 L 168.683 732.529 L 168.980 733.018 L 170.876 736.083 L 171.183 736.572 L 173.109 739.599 L 173.426 740.089 L 175.382 743.077 L 175.707 743.567 L 177.693 746.515 L 178.028 747.005 L 180.042 749.913 L 180.387 750.403 L 182.430 753.270 L 182.785 753.760 L 184.857 756.585 L 185.222 757.076 L 187.321 759.859 L 187.696 760.349 L 189.823 763.090 L 190.209 763.580 L 192.363 766.277 L 192.759 766.766 L 194.940 769.419 L 195.347 769.908 L 197.554 772.517 L 197.972 773.005 L 200.205 775.569 L 200.634 776.056 L 202.892 778.574 L 203.333 779.060 L 205.616 781.533 L 206.069 782.016 L 208.375 784.443 L 208.840 784.925 L 211.171 787.305 L 211.648 787.784 L 214.001 790.117 L 214.491 790.594 L 216.867 792.879 L 217.369 793.354 L 219.768 795.590 L 220.282 796.062 L 222.703 798.250 L 223.230 798.718 L 225.673 800.857 L 226.212 801.322 L 228.676 803.411 L 229.228 803.871 L 231.712 805.911 L 232.277 806.367 L 234.782 808.356 L 235.360 808.808 L 237.884 810.746 L 238.475 811.192 L 241.018 813.079 L 241.623 813.520 L 244.184 815.355 L 244.802 815.790 L 247.381 817.574 L 248.012 818.003 L 250.609 819.734 L 251.253 820.156 L 253.867 821.834 L 254.525 822.249 L 257.155 823.874 L 257.826 824.281 L 260.472 825.853 L 261.156 826.252 L 263.817 827.771 L 264.514 828.161 L 267.190 829.625 L 267.900 830.006 L 270.591 831.417 L 271.314 831.788 L 274.018 833.144 L 274.753 833.504 L 277.471 834.806 L 278.219 835.156 L 280.949 836.402 L 281.709 836.741 L 284.451 837.932 L 285.223 838.259 L 287.977 839.395 L 288.760 839.710 L 291.525 840.790 L 292.320 841.092 L 295.095 842.116 L 295.901 842.405 L 298.686 843.373 L 299.503 843.648 L 302.297 844.559 L 303.124 844.820 L 305.927 845.675 L 306.763 845.922 L 309.574 846.720 L 310.420 846.951 L 313.239 847.693 L 314.093 847.909 L 316.919 848.593 L 317.781 848.793 L 320.614 849.421 L 321.483 849.604 L 324.322 850.175 L 325.199 850.342 L 328.043 850.854 L 328.926 851.005 L 331.774 851.460 L 332.663 851.593 L 335.516 851.991 L 336.409 852.106 L 339.266 852.446 L 340.164 852.544 L 343.024 852.826 L 343.925 852.906 L 346.787 853.131 L 347.692 853.193 L 350.556 853.360 L 351.463 853.403 L 354.328 853.512 L 355.236 853.538 L 358.102 853.589 L 359.011 853.596 L 361.877 853.589 L 362.786 853.577 L 365.652 853.513 L 366.560 853.483 L 369.425 853.361 L 370.331 853.313 L 373.195 853.132 L 374.099 853.066 L 376.960 852.828 L 377.861 852.744 L 380.720 852.448 L 381.617 852.346 L 384.473 851.992 L 385.365 851.873 L 388.217 851.461 L 389.105 851.324 L 391.952 850.855 L 392.834 850.701 L 395.677 850.175 L 396.552 850.004 L 399.389 849.420 L 400.257 849.233 L 403.088 848.592 L 403.948 848.388 L 406.773 847.690 L 407.625 847.471 L 410.442 846.716 L 411.285 846.481 L 414.095 845.669 L 414.929 845.419 L 417.730 844.551 L 418.554 844.286 L 421.346 843.361 L 422.161 843.083 L 424.943 842.102 L 425.747 841.810 L 428.519 840.773 L 429.312 840.468 L 432.074 839.374 L 432.855 839.057 L 435.606 837.908 L 436.375 837.578 L 439.114 836.374 L 439.872 836.033 L 442.599 834.773 L 443.344 834.421 L 446.058 833.106 L 446.791 832.743 L 449.492 831.374 L 450.212 831.001 L 452.899 829.577 L 453.606 829.195 L 456.278 827.717 L 456.973 827.325 L 459.630 825.794 L 460.311 825.393 L 462.954 823.808 L 463.621 823.400 L 466.248 821.762 L 466.902 821.345 L 469.512 819.654 L 470.153 819.231 L 472.746 817.487 L 473.374 817.057 L 475.949 815.261 L 476.564 814.825 L 479.121 812.977 L 479.722 812.535 L 482.261 810.636 L 482.849 810.188 L 485.368 808.238 L 485.943 807.786 L 488.443 805.785 L 489.005 805.327 L 491.485 803.276 L 492.034 802.815 L 494.493 800.714 L 495.029 800.248 L 497.467 798.098 L 497.990 797.629 L 500.406 795.429 L 500.917 794.957 L 503.312 792.709 L 503.810 792.234 L 506.182 789.938 L 506.668 789.460 L 509.016 787.116 L 509.490 786.636 L 511.815 784.245 L 512.277 783.763 L 514.578 781.325 L 515.029 780.841 L 517.305 778.357 L 517.744 777.871 L 519.995 775.342 L 520.422 774.855 L 522.649 772.280 L 523.065 771.792 L 525.265 769.173 L 525.670 768.684 L 527.844 766.020 L 528.238 765.531 L 530.386 762.823 L 530.769 762.333 L 532.889 759.583 L 533.262 759.093 L 535.355 756.300 L 535.718 755.809 L 537.783 752.974 L 538.135 752.484 L 540.172 749.607 L 540.514 749.117 L 542.522 746.200 L 542.855 745.709 L 544.833 742.752 L 545.157 742.262 L 547.106 739.265 L 547.419 738.775 L 549.339 735.739 L 549.643 735.250 L 551.532 732.176 L 551.828 731.688 L 553.686 728.575 L 554.240 727.620 L 554.771 726.652 L 555.278 725.670 L 555.761 724.677 L 556.219 723.672 L 556.652 722.656 L 557.060 721.630 L 557.443 720.594 L 557.801 719.549 L 558.133 718.496 L 558.438 717.434 L 558.718 716.366 L 558.971 715.291 L 559.198 714.210 L 559.398 713.124 L 559.572 712.033 L 559.719 710.938 L 559.838 709.840 L 559.931 708.740 L 559.997 707.637 L 560.036 706.534 L 560.047 705.429 L 560.032 704.325 L 559.989 703.221 L 559.920 702.119 L 559.823 701.019 L 559.699 699.921 L 559.549 698.827 L 559.371 697.737 L 559.167 696.652 L 558.937 695.572 L 558.679 694.498 L 558.396 693.430 L 558.087 692.370 L 557.751 691.318 L 557.390 690.274 L 557.004 689.239 L 556.592 688.215 L 556.155 687.200 L 555.693 686.197 L 555.207 685.205 L 554.696 684.226 L 554.162 683.259 L 553.604 682.306 L 553.023 681.367 L 552.419 680.442 L 551.793 679.532 L 551.145 678.638 L 550.474 677.761 L 549.783 676.900 L 549.070 676.056 L 548.337 675.230 L 547.584 674.422 L 546.811 673.633 L 546.019 672.863 L 545.209 672.113 L 544.380 671.382 L 543.534 670.673 L 542.670 669.984 L 541.790 669.317 L 540.894 668.672 L 539.982 668.048 L 539.055 667.448 L 538.114 666.870 L 537.159 666.316 L 536.190 665.785 L 535.209 665.278 L 534.216 664.795 L 533.211 664.337 L 532.195 663.904 L 531.169 663.495 L 530.133 663.112 L 529.088 662.755 L 528.034 662.423 L 526.973 662.118 L 525.905 661.838 L 524.830 661.585 L 523.749 661.358 L 522.663 661.158 L 521.572 660.984 L 520.477 660.837 L 519.379 660.718 L 518.279 660.625 L 517.176 660.559 L 516.073 660.520 L 514.968 660.509 L 513.864 660.524 L 512.760 660.567 L 511.658 660.636 L 510.558 660.733 L 509.460 660.857 L 508.366 661.007 L 507.276 661.185 L 506.191 661.389 L 505.111 661.619 L 504.037 661.876 L 502.969 662.160 L 501.909 662.469 L 500.857 662.805 L 499.813 663.166 L 498.778 663.552 L 497.754 663.964 L 496.739 664.401 L 495.736 664.863 L 494.744 665.349 L 493.765 665.859 L 492.798 666.394 L 491.845 666.951 L 490.906 667.533 L 489.981 668.136 L 489.071 668.763 L 488.177 669.411 L 487.300 670.082 L 486.439 670.773 L 485.595 671.486 L 484.769 672.219 L 483.961 672.972 L 483.172 673.745 L 482.402 674.537 L 481.651 675.347 L 480.921 676.176 L 480.212 677.022 L 479.523 677.886 L 478.856 678.766 L 478.211 679.662 L 477.587 680.574 L 476.987 681.501 L 476.409 682.442 L 474.697 685.309 L 473.109 687.895 L 471.499 690.442 L 469.868 692.949 L 468.218 695.416 L 466.547 697.843 L 464.858 700.228 L 463.151 702.573 L 461.425 704.875 L 459.683 707.135 L 457.924 709.352 L 456.149 711.526 L 454.359 713.657 L 452.555 715.745 L 450.736 717.788 L 448.904 719.787 L 447.059 721.741 L 445.202 723.650 L 443.334 725.515 L 441.455 727.334 L 439.566 729.108 L 437.667 730.837 L 435.759 732.519 L 433.843 734.156 L 431.919 735.748 L 429.988 737.293 L 428.051 738.793 L 426.108 740.247 L 424.159 741.655 L 422.205 743.017 L 420.247 744.334 L 418.286 745.605 L 416.321 746.831 L 414.353 748.011 L 412.383 749.146 L 410.411 750.237 L 408.438 751.282 L 406.463 752.283 L 404.488 753.239 L 402.512 754.152 L 400.537 755.021 L 398.561 755.846 L 396.586 756.627 L 394.611 757.366 L 392.637 758.062 L 390.664 758.716 L 388.693 759.327 L 386.722 759.896 L 384.753 760.424 L 382.785 760.911 L 380.818 761.356 L 378.853 761.760 L 376.889 762.124 L 374.926 762.447 L 372.964 762.730 L 371.003 762.973 L 369.043 763.176 L 367.084 763.339 L 365.125 763.462 L 363.167 763.546 L 361.209 763.590 L 359.251 763.595 L 357.294 763.560 L 355.336 763.485 L 353.377 763.371 L 351.418 763.218 L 349.458 763.024 L 347.498 762.791 L 345.536 762.517 L 343.573 762.203 L 341.610 761.849 L 339.644 761.455 L 337.678 761.019 L 335.710 760.542 L 333.741 760.024 L 331.771 759.465 L 329.800 758.863 L 327.827 758.220 L 325.853 757.534 L 323.879 756.805 L 321.904 756.034 L 319.928 755.219 L 317.953 754.360 L 315.977 753.458 L 314.001 752.512 L 312.027 751.521 L 310.053 750.487 L 308.081 749.407 L 306.110 748.282 L 304.142 747.113 L 302.176 745.898 L 300.214 744.637 L 298.255 743.331 L 296.300 741.980 L 294.351 740.582 L 292.406 739.139 L 290.467 737.650 L 288.535 736.116 L 286.609 734.535 L 284.691 732.909 L 282.781 731.237 L 280.880 729.519 L 278.989 727.756 L 277.107 725.947 L 275.236 724.093 L 273.377 722.194 L 271.529 720.250 L 269.694 718.262 L 267.872 716.229 L 266.064 714.152 L 264.271 712.032 L 262.492 709.868 L 260.729 707.660 L 258.983 705.410 L 257.254 703.118 L 255.542 700.784 L 253.848 698.408 L 252.174 695.991 L 250.518 693.533 L 248.883 691.035 L 248.315 690.142 L 247.758 685.923 L 246.166 672.638 L 244.752 659.502 L 243.514 646.516 L 242.448 633.682 L 241.553 621.001 L 240.824 608.474 L 240.261 596.102 L 239.859 583.887 L 239.616 571.829 L 239.529 559.931 L 239.596 548.193 L 239.813 536.617 L 240.178 525.204 L 240.689 513.955 L 241.341 502.872 L 242.133 491.955 L 243.062 481.207 L 244.124 470.629 L 245.318 460.221 L 246.639 449.985 L 248.085 439.923 L 249.653 430.036 L 251.341 420.325 L 253.144 410.792 L 255.061 401.437 L 257.088 392.263 L 259.222 383.271 L 261.460 374.462 L 263.798 365.837 L 266.234 357.398 L 268.765 349.147 L 271.386 341.084 L 274.095 333.211 L 276.889 325.530 L 279.764 318.042 L 282.716 310.747 L 284.026 307.673 L 284.579 307.188 L 286.496 305.559 L 288.421 303.976 L 290.353 302.439 L 292.292 300.947 L 294.236 299.501 L 296.186 298.101 L 298.140 296.747 L 300.098 295.438 L 302.061 294.175 L 304.026 292.958 L 305.994 291.785 L 307.965 290.658 L 309.937 289.576 L 311.910 288.538 L 313.885 287.545 L 315.861 286.596 L 317.836 285.692 L 319.812 284.831 L 321.788 284.013 L 323.763 283.239 L 325.737 282.508 L 327.711 281.819 L 329.684 281.173 L 331.655 280.569 L 333.626 280.007 L 335.595 279.487 L 337.562 279.008 L 339.529 278.570 L 341.494 278.173 L 343.458 277.816 L 345.421 277.500 L 347.382 277.224 L 349.343 276.988 L 351.303 276.793 L 353.262 276.637 L 355.220 276.520 L 357.178 276.443 L 359.136 276.406 L 361.094 276.408 L 363.052 276.450 L 365.010 276.532 L 366.969 276.653 L 368.928 276.814 L 370.888 277.014 L 372.848 277.255 L 374.810 277.535 L 376.773 277.856 L 378.737 278.217 L 380.702 278.619 L 382.669 279.062 L 384.637 279.546 L 386.606 280.071 L 388.577 280.638 L 390.548 281.247 L 392.521 281.898 L 394.495 282.592 L 396.469 283.328 L 398.445 284.107 L 400.420 284.930 L 402.396 285.796 L 404.372 286.706 L 406.347 287.660 L 408.322 288.658 L 410.295 289.701 L 412.267 290.788 L 414.237 291.921 L 416.205 293.099 L 418.170 294.322 L 420.132 295.590 L 422.090 296.904 L 424.044 298.264 L 425.993 299.669 L 427.937 301.120 L 429.875 302.617 L 431.806 304.160 L 433.730 305.749 L 435.647 307.383 L 437.555 309.063 L 439.454 310.789 L 441.344 312.560 L 443.224 314.377 L 445.093 316.239 L 446.950 318.146 L 448.796 320.097 L 450.628 322.094 L 452.448 324.134 L 454.253 326.219 L 456.044 328.347 L 457.820 330.519 L 459.580 332.734 L 461.323 334.991 L 463.050 337.291 L 464.758 339.633 L 466.449 342.016 L 468.120 344.440 L 469.772 346.905 L 471.403 349.410 L 473.015 351.954 L 474.604 354.538 L 476.172 357.160 L 477.718 359.820 L 479.241 362.518 L 480.740 365.252 L 482.216 368.023 L 483.666 370.829 L 485.092 373.671 L 486.493 376.547 L 487.867 379.456 L 489.215 382.399 L 490.536 385.374 L 491.830 388.382 L 493.096 391.420 L 494.334 394.488 L 495.543 397.587 L 496.723 400.714 L 497.873 403.870 L 498.994 407.053 L 500.085 410.263 L 501.145 413.499 L 502.174 416.760 L 503.171 420.046 L 504.138 423.355 L 505.072 426.688 L 505.974 430.042 L 506.844 433.418 L 507.680 436.815 L 508.484 440.231 L 509.255 443.667 L 509.991 447.120 L 510.695 450.591 L 511.364 454.078 L 511.998 457.582 L 512.599 461.099 L 513.164 464.631 L 513.695 468.176 L 514.191 471.734 L 514.652 475.303 L 515.077 478.882 L 515.467 482.472 L 515.822 486.070 L 516.140 489.677 L 516.423 493.290 L 516.671 496.910 L 516.882 500.536 L 517.057 504.166 L 517.196 507.800 L 517.299 511.436 L 517.366 515.075 L 517.397 518.715 L 517.392 522.355 L 517.350 525.995 L 517.273 529.634 L 517.159 533.270 L 517.009 536.902 L 516.823 540.531 L 516.602 544.155 L 516.344 547.773 L 516.050 551.385 L 515.721 554.989 L 515.356 558.585 L 514.956 562.171 L 514.520 565.748 L 514.049 569.314 L 513.543 572.868 L 513.001 576.409 L 512.426 579.937 L 511.815 583.450 L 511.170 586.949 L 510.491 590.432 L 509.778 593.897 L 509.032 597.346 L 508.251 600.776 L 507.438 604.186 L 506.534 607.807 L 506.279 608.882 L 506.052 609.963 L 505.850 611.049 L 505.676 612.139 L 505.528 613.234 L 505.407 614.332 L 505.313 615.432 L 505.246 616.534 L 505.206 617.638 L 505.194 618.743 L 505.208 619.847 L 505.250 620.951 L 505.318 622.053 L 505.414 623.153 L 505.537 624.251 L 505.686 625.345 L 505.862 626.435 L 506.065 627.521 L 506.295 628.601 L 506.551 629.676 L 506.833 630.743 L 507.142 631.804 L 507.476 632.856 L 507.836 633.900 L 508.222 634.935 L 508.633 635.961 L 509.069 636.975 L 509.529 637.979 L 510.015 638.971 L 510.524 639.951 L 511.057 640.918 L 511.614 641.872 L 512.194 642.812 L 512.797 643.737 L 513.423 644.647 L 514.071 645.542 L 514.740 646.420 L 515.431 647.282 L 516.143 648.127 L 516.875 648.953 L 517.627 649.762 L 518.399 650.552 L 519.190 651.323 L 520.000 652.074 L 520.828 652.805 L 521.674 653.515 L 522.536 654.204 L 523.416 654.872 L 524.311 655.519 L 525.223 656.143 L 526.149 656.744 L 527.090 657.323 L 528.044 657.878 L 529.012 658.410 L 529.993 658.918 L 530.986 659.402 L 531.990 659.861 L 533.006 660.295 L 534.032 660.704 L 535.067 661.088 L 536.112 661.447 L 537.165 661.780 L 538.226 662.086 L 539.294 662.367 L 540.369 662.621 L 541.450 662.849 L 542.535 663.051 L 543.626 663.225 L 544.721 663.373 L 545.818 663.494 L 546.919 663.588 L 548.021 663.655 L 549.125 663.694 L 550.229 663.707 L 551.334 663.693 L 552.437 663.651 L 553.540 663.582 L 554.640 663.487 L 555.738 663.364 L 556.832 663.215 L 557.922 663.038 L 559.008 662.835 L 560.088 662.606 L 561.162 662.350 L 562.230 662.067 L 563.291 661.759 L 564.343 661.425 L 565.387 661.065 L 566.422 660.679 L 567.447 660.268 L 568.462 659.832 L 569.466 659.371 L 570.458 658.886 L 571.438 658.377 L 572.405 657.843 L 573.359 657.287 L 574.299 656.706 L 575.224 656.103 L 576.134 655.478 L 577.029 654.830 L 577.907 654.161 L 578.769 653.470 L 579.613 652.758 L 580.440 652.026 L 581.249 651.274 L 582.039 650.502 L 582.809 649.711 L 583.560 648.901 L 584.291 648.073 L 585.002 647.227 L 585.691 646.364 L 586.359 645.485 L 587.006 644.589 L 587.630 643.678 L 588.231 642.752 L 588.810 641.811 L 589.365 640.857 L 589.897 639.889 L 590.405 638.908 L 590.888 637.915 L 591.348 636.910 L 591.782 635.895 L 592.191 634.869 L 592.575 633.834 L 592.934 632.789 L 593.266 631.736 L 593.573 630.675 L 593.854 629.607 L 594.815 625.756 L 594.927 625.297 L 595.850 621.427 L 595.957 620.969 L 596.841 617.081 L 596.943 616.623 L 597.789 612.718 L 597.885 612.261 L 598.692 608.339 L 598.783 607.883 L 599.551 603.946 L 599.637 603.491 L 600.366 599.538 L 600.447 599.084 L 601.137 595.116 L 601.213 594.663 L 601.863 590.682 L 601.934 590.229 L 602.545 586.236 L 602.611 585.784 L 603.182 581.778 L 603.244 581.327 L 603.774 577.310 L 603.832 576.860 L 604.322 572.833 L 604.375 572.383 L 604.825 568.346 L 604.873 567.897 L 605.284 563.852 L 605.327 563.402 L 605.697 559.349 L 605.736 558.901 L 606.066 554.841 L 606.100 554.392 L 606.390 550.326 L 606.420 549.878 L 606.669 545.806 L 606.694 545.358 L 606.903 541.282 L 606.924 540.834 L 607.092 536.754 L 607.108 536.307 L 607.236 532.224 L 607.248 531.777 L 607.335 527.691 L 607.342 527.244 L 607.389 523.157 L 607.391 522.710 L 607.397 518.623 L 607.396 518.176 L 607.361 514.089 L 607.355 513.642 L 607.280 509.556 L 607.270 509.109 L 607.154 505.025 L 607.139 504.578 L 606.983 500.497 L 606.963 500.049 L 606.766 495.972 L 606.742 495.524 L 606.505 491.451 L 606.477 491.003 L 606.199 486.935 L 606.166 486.487 L 605.848 482.425 L 605.811 481.976 L 605.452 477.921 L 605.410 477.472 L 605.011 473.424 L 604.965 472.975 L 604.526 468.936 L 604.475 468.486 L 603.996 464.456 L 603.940 464.005 L 603.421 459.986 L 603.361 459.535 L 602.802 455.526 L 602.737 455.074 L 602.138 451.077 L 602.068 450.624 L 601.430 446.640 L 601.355 446.187 L 600.677 442.215 L 600.597 441.761 L 599.880 437.804 L 599.795 437.349 L 599.039 433.407 L 598.949 432.952 L 598.154 429.025 L 598.059 428.568 L 597.225 424.658 L 597.125 424.201 L 596.252 420.308 L 596.146 419.850 L 595.235 415.974 L 595.124 415.515 L 594.174 411.659 L 594.058 411.199 L 593.070 407.362 L 592.948 406.901 L 591.922 403.085 L 591.795 402.622 L 590.731 398.827 L 590.599 398.364 L 589.497 394.590 L 589.359 394.126 L 588.220 390.375 L 588.076 389.910 L 586.899 386.182 L 586.749 385.716 L 585.536 382.012 L 585.380 381.545 L 584.130 377.866 L 583.968 377.397 L 582.682 373.744 L 582.514 373.274 L 581.191 369.648 L 581.016 369.176 L 579.658 365.577 L 579.477 365.104 L 578.083 361.533 L 577.895 361.059 L 576.466 357.516 L 576.271 357.041 L 574.807 353.527 L 574.605 353.051 L 573.107 349.567 L 572.898 349.089 L 571.365 345.636 L 571.149 345.157 L 569.581 341.735 L 569.358 341.255 L 567.757 337.865 L 567.526 337.385 L 565.891 334.027 L 565.653 333.545 L 563.985 330.221 L 563.739 329.738 L 562.038 326.448 L 561.784 325.964 L 560.051 322.709 L 559.789 322.224 L 558.023 319.004 L 557.753 318.518 L 555.955 315.334 L 555.676 314.847 L 553.848 311.700 L 553.560 311.212 L 551.700 308.102 L 551.404 307.613 L 549.514 304.541 L 549.208 304.052 L 547.287 301.018 L 546.973 300.529 L 545.022 297.534 L 544.698 297.044 L 542.718 294.089 L 542.385 293.599 L 540.375 290.684 L 540.032 290.194 L 537.994 287.320 L 537.641 286.829 L 535.574 283.997 L 535.211 283.506 L 533.117 280.716 L 532.743 280.225 L 530.621 277.477 L 530.237 276.987 L 528.088 274.283 L 527.694 273.793 L 525.518 271.132 L 525.112 270.643 L 522.910 268.026 L 522.494 267.538 L 520.266 264.966 L 519.838 264.479 L 517.585 261.953 L 517.146 261.467 L 514.868 258.986 L 514.417 258.502 L 512.114 256.067 L 511.652 255.585 L 509.325 253.197 L 508.850 252.717 L 506.501 250.376 L 506.014 249.898 L 503.641 247.605 L 503.142 247.130 L 500.746 244.885 L 500.235 244.412 L 497.817 242.216 L 497.293 241.747 L 494.854 239.599 L 494.317 239.134 L 491.857 237.036 L 491.307 236.575 L 488.826 234.526 L 488.263 234.069 L 485.762 232.072 L 485.186 231.619 L 482.666 229.672 L 482.077 229.225 L 479.537 227.329 L 478.935 226.887 L 476.377 225.042 L 475.762 224.606 L 473.185 222.813 L 472.557 222.384 L 469.963 220.643 L 469.321 220.220 L 466.710 218.532 L 466.055 218.116 L 463.428 216.481 L 462.759 216.073 L 460.116 214.491 L 459.434 214.091 L 456.775 212.563 L 456.080 212.172 L 453.407 210.697 L 452.699 210.315 L 450.011 208.895 L 449.290 208.522 L 446.589 207.156 L 445.855 206.794 L 443.140 205.483 L 442.395 205.131 L 439.667 203.875 L 438.909 203.534 L 436.169 202.333 L 435.399 202.004 L 432.647 200.858 L 431.865 200.541 L 429.103 199.451 L 428.310 199.147 L 425.536 198.113 L 424.732 197.822 L 421.949 196.844 L 421.134 196.567 L 418.342 195.645 L 417.517 195.382 L 414.715 194.516 L 413.880 194.268 L 411.071 193.459 L 410.227 193.225 L 407.409 192.474 L 406.556 192.255 L 403.732 191.560 L 402.871 191.358 L 400.039 190.720 L 399.171 190.533 L 396.333 189.953 L 395.458 189.783 L 392.615 189.260 L 391.733 189.107 L 388.885 188.641 L 387.997 188.505 L 385.145 188.098 L 384.252 187.979 L 382.798 187.801 L 383.322 187.572 L 386.603 186.294 L 389.833 185.185 L 393.015 184.238 L 396.148 183.449 L 399.236 182.811 L 402.281 182.322 L 405.290 181.976 L 408.267 181.769 L 411.219 181.700 L 414.154 181.768 L 417.078 181.971 L 420.001 182.312 L 422.930 182.793 L 425.872 183.417 L 428.836 184.190 L 431.826 185.119 L 434.850 186.209 L 437.910 187.470 L 441.011 188.909 L 444.155 190.536 L 447.342 192.359 L 450.572 194.386 L 454.567 197.124 L 455.486 197.737 L 456.419 198.327 L 457.367 198.894 L 458.328 199.438 L 459.303 199.958 L 460.289 200.454 L 461.288 200.925 L 462.298 201.372 L 463.319 201.794 L 464.350 202.191 L 465.390 202.562 L 466.439 202.908 L 467.496 203.228 L 468.560 203.522 L 469.632 203.789 L 470.710 204.031 L 471.793 204.245 L 472.881 204.433 L 473.974 204.595 L 475.070 204.729 L 476.169 204.837 L 477.271 204.917 L 478.374 204.971 L 479.478 204.997 L 480.582 204.996 L 481.687 204.968 L 482.790 204.913 L 483.891 204.831 L 484.990 204.722 L 486.086 204.587 L 487.178 204.424 L 488.267 204.234 L 489.350 204.018 L 490.427 203.775 L 491.498 203.506 L 492.562 203.211 L 493.619 202.890 L 494.668 202.542 L 495.707 202.170 L 496.737 201.772 L 497.757 201.348 L 498.767 200.900 L 499.765 200.427 L 500.751 199.930 L 501.725 199.409 L 502.685 198.864 L 503.632 198.295 L 504.565 197.704 L 505.483 197.089 L 506.385 196.453 L 507.272 195.794 L 508.142 195.114 L 508.996 194.413 L 509.831 193.691 L 510.649 192.949 L 511.449 192.187 L 512.229 191.405 L 512.990 190.605 L 513.731 189.786 L 514.452 188.949 L 515.152 188.095 L 515.831 187.224 L 516.488 186.336 L 517.124 185.433 L 517.737 184.514 L 518.327 183.581 L 518.894 182.633 L 519.438 181.672 L 519.958 180.697 L 520.454 179.711 L 520.925 178.712 L 521.372 177.702 L 521.794 176.681 L 522.191 175.650 L 522.562 174.610 L 522.908 173.561 L 523.228 172.504 L 523.522 171.440 L 523.789 170.368 L 524.031 169.290 L 524.245 168.207 L 524.433 167.119 L 524.595 166.026 L 524.729 164.930 L 524.837 163.831 L 524.917 162.729 L 524.971 161.626 L 524.997 160.522 L 524.996 159.418 L 524.968 158.313 L 524.913 157.210 L 524.831 156.109 L 524.722 155.010 L 524.587 153.914 L 524.424 152.822 L 524.234 151.733 L 524.018 150.650 L 523.775 149.573 L 523.506 148.502 L 523.211 147.438 L 522.890 146.381 L 522.542 145.332 L 522.170 144.293 L 521.772 143.263 L 521.348 142.243 L 520.900 141.233 L 520.427 140.235 L 519.930 139.249 L 519.409 138.275 L 518.864 137.315 L 518.295 136.368 L 517.704 135.435 L 517.089 134.517 L 516.453 133.615 L 515.794 132.728 L 515.114 131.858 L 514.413 131.004 L 513.691 130.169 L 512.949 129.351 L 512.187 128.551 L 511.405 127.771 L 510.605 127.010 L 509.786 126.269 L 508.949 125.548 L 508.095 124.848 L 507.224 124.169 L 506.336 123.512 L 505.433 122.876 L 500.694 119.630 L 499.946 119.128 Z M 473.528 574.946 L 474.630 574.878 L 475.731 574.783 L 476.828 574.662 L 477.923 574.513 L 479.013 574.337 L 480.099 574.135 L 481.180 573.907 L 482.254 573.651 L 483.322 573.370 L 484.383 573.062 L 485.436 572.729 L 486.480 572.369 L 487.515 571.985 L 488.541 571.575 L 489.556 571.139 L 490.560 570.680 L 491.553 570.195 L 492.533 569.686 L 493.500 569.154 L 494.455 568.598 L 495.395 568.018 L 496.321 567.416 L 497.231 566.791 L 498.126 566.144 L 499.005 565.476 L 499.868 564.785 L 500.713 564.074 L 501.540 563.343 L 502.349 562.591 L 503.140 561.820 L 503.911 561.029 L 504.663 560.220 L 505.394 559.393 L 506.105 558.548 L 506.796 557.685 L 507.464 556.806 L 508.111 555.911 L 508.736 555.001 L 509.338 554.075 L 509.918 553.135 L 510.474 552.180 L 511.006 551.213 L 511.515 550.233 L 512.000 549.240 L 512.459 548.236 L 512.895 547.221 L 513.305 546.195 L 513.689 545.160 L 514.049 544.116 L 514.382 543.063 L 514.690 542.002 L 514.971 540.934 L 515.227 539.860 L 515.455 538.779 L 515.657 537.693 L 515.833 536.603 L 515.982 535.508 L 516.103 534.411 L 516.198 533.310 L 516.266 532.208 L 516.306 531.104 L 516.320 530.000 L 516.306 528.896 L 516.266 527.792 L 516.198 526.690 L 516.103 525.589 L 515.982 524.492 L 515.833 523.397 L 515.657 522.307 L 515.455 521.221 L 515.227 520.140 L 514.971 519.066 L 514.690 517.998 L 514.382 516.937 L 514.049 515.884 L 513.689 514.840 L 513.305 513.805 L 512.895 512.779 L 512.459 511.764 L 512.000 510.760 L 511.515 509.767 L 511.006 508.787 L 510.474 507.820 L 509.918 506.865 L 509.338 505.925 L 508.736 504.999 L 508.111 504.089 L 507.464 503.194 L 506.796 502.315 L 506.105 501.452 L 505.394 500.607 L 504.663 499.780 L 503.911 498.971 L 503.140 498.180 L 502.349 497.409 L 501.540 496.657 L 500.713 495.926 L 499.868 495.215 L 499.005 494.524 L 498.126 493.856 L 497.231 493.209 L 496.321 492.584 L 495.395 491.982 L 494.455 491.402 L 493.500 490.846 L 492.533 490.314 L 491.553 489.805 L 490.560 489.320 L 489.556 488.861 L 488.541 488.425 L 487.515 488.015 L 486.480 487.631 L 485.436 487.271 L 484.383 486.938 L 483.322 486.630 L 482.254 486.349 L 481.180 486.093 L 480.099 485.865 L 479.013 485.663 L 477.923 485.487 L 476.828 485.338 L 475.731 485.217 L 474.630 485.122 L 473.528 485.054 L 472.424 485.014 L 471.320 485.000 L 319.520 485.000 L 318.416 485.014 L 317.312 485.054 L 316.210 485.122 L 315.109 485.217 L 314.012 485.338 L 312.917 485.487 L 311.827 485.663 L 310.741 485.865 L 309.660 486.093 L 308.586 486.349 L 307.518 486.630 L 306.457 486.938 L 305.404 487.271 L 304.360 487.631 L 303.325 488.015 L 302.299 488.425 L 301.284 488.861 L 300.280 489.320 L 299.287 489.805 L 298.307 490.314 L 297.340 490.846 L 296.385 491.402 L 295.445 491.982 L 294.519 492.584 L 293.609 493.209 L 292.714 493.856 L 291.835 494.524 L 290.972 495.215 L 290.127 495.926 L 289.300 496.657 L 288.491 497.409 L 287.700 498.180 L 286.929 498.971 L 286.177 499.780 L 285.446 500.607 L 284.735 501.452 L 284.044 502.315 L 283.376 503.194 L 282.729 504.089 L 282.104 504.999 L 281.502 505.925 L 280.922 506.865 L 280.366 507.820 L 279.834 508.787 L 279.325 509.767 L 278.840 510.760 L 278.381 511.764 L 277.945 512.779 L 277.535 513.805 L 277.151 514.840 L 276.791 515.884 L 276.458 516.937 L 276.150 517.998 L 275.869 519.066 L 275.613 520.140 L 275.385 521.221 L 275.183 522.307 L 275.007 523.397 L 274.858 524.492 L 274.737 525.589 L 274.642 526.690 L 274.574 527.792 L 274.534 528.896 L 274.520 530.000 L 274.534 531.104 L 274.574 532.208 L 274.642 533.310 L 274.737 534.411 L 274.858 535.508 L 275.007 536.603 L 275.183 537.693 L 275.385 538.779 L 275.613 539.860 L 275.869 540.934 L 276.150 542.002 L 276.458 543.063 L 276.791 544.116 L 277.151 545.160 L 277.535 546.195 L 277.945 547.221 L 278.381 548.236 L 278.840 549.240 L 279.325 550.233 L 279.834 551.213 L 280.366 552.180 L 280.922 553.135 L 281.502 554.075 L 282.104 555.001 L 282.729 555.911 L 283.376 556.806 L 284.044 557.685 L 284.735 558.548 L 285.446 559.393 L 286.177 560.220 L 286.929 561.029 L 287.700 561.820 L 288.491 562.591 L 289.300 563.343 L 290.127 564.074 L 290.972 564.785 L 291.835 565.476 L 292.714 566.144 L 293.609 566.791 L 294.519 567.416 L 295.445 568.018 L 296.385 568.598 L 297.340 569.154 L 298.307 569.686 L 299.287 570.195 L 300.280 570.680 L 301.284 571.139 L 302.299 571.575 L 303.325 571.985 L 304.360 572.369 L 305.404 572.729 L 306.457 573.062 L 307.518 573.370 L 308.586 573.651 L 309.660 573.907 L 310.741 574.135 L 311.827 574.337 L 312.917 574.513 L 314.012 574.662 L 315.109 574.783 L 316.210 574.878 L 317.312 574.946 L 318.416 574.986 L 319.520 575.000 L 471.320 575.000 L 472.424 574.986 L 473.528 574.946 Z" fill="black" fill-rule="evenodd"/>
</svg>
