<svg xmlns="http://www.w3.org/2000/svg" viewBox="0 0 700.000 1000" width="700.000" height="1000">
  <path d="M 139.602 530.058 L 139.601 530.214 L 139.614 532.991 L 139.618 533.420 L 139.657 536.196 L 139.666 536.625 L 139.732 539.401 L 139.744 539.829 L 139.836 542.604 L 139.853 543.032 L 139.972 545.806 L 139.992 546.234 L 140.137 549.005 L 140.162 549.434 L 140.334 552.202 L 140.362 552.631 L 140.560 555.397 L 140.593 555.825 L 140.817 558.588 L 140.854 559.017 L 141.105 561.775 L 141.146 562.204 L 141.423 564.959 L 141.468 565.388 L 141.771 568.138 L 141.820 568.567 L 142.150 571.313 L 142.203 571.742 L 142.559 574.482 L 142.616 574.911 L 142.998 577.646 L 143.060 578.075 L 143.467 580.804 L 143.533 581.233 L 143.967 583.955 L 144.037 584.385 L 144.497 587.100 L 144.571 587.529 L 145.056 590.237 L 145.136 590.667 L 145.646 593.367 L 145.730 593.797 L 146.266 596.489 L 146.354 596.919 L 146.916 599.603 L 147.009 600.033 L 147.596 602.708 L 147.693 603.139 L 148.306 605.804 L 148.407 606.235 L 149.046 608.890 L 149.151 609.321 L 149.815 611.967 L 149.925 612.398 L 150.614 615.033 L 150.729 615.464 L 151.443 618.089 L 151.562 618.520 L 152.301 621.133 L 152.425 621.565 L 153.188 624.167 L 153.317 624.598 L 154.105 627.188 L 154.239 627.619 L 155.052 630.197 L 155.190 630.628 L 156.028 633.193 L 156.171 633.625 L 157.033 636.177 L 157.181 636.608 L 158.067 639.147 L 158.220 639.578 L 159.130 642.103 L 159.288 642.534 L 160.222 645.045 L 160.385 645.477 L 161.343 647.972 L 161.511 648.404 L 162.492 650.885 L 162.666 651.317 L 163.671 653.782 L 163.849 654.214 L 164.878 656.664 L 165.061 657.095 L 166.113 659.529 L 166.302 659.961 L 167.377 662.378 L 167.571 662.810 L 168.669 665.210 L 168.869 665.642 L 169.989 668.025 L 170.195 668.456 L 171.338 670.823 L 171.549 671.253 L 172.714 673.602 L 172.931 674.032 L 174.119 676.363 L 174.341 676.793 L 175.551 679.105 L 175.778 679.535 L 177.010 681.828 L 177.244 682.257 L 178.498 684.532 L 178.737 684.960 L 180.012 687.215 L 180.258 687.644 L 181.554 689.878 L 181.805 690.306 L 183.123 692.521 L 183.381 692.948 L 184.719 695.143 L 184.983 695.569 L 186.342 697.743 L 186.612 698.169 L 187.992 700.321 L 188.268 700.746 L 189.668 702.877 L 189.951 703.301 L 191.371 705.411 L 191.660 705.834 L 193.100 707.921 L 193.395 708.343 L 194.856 710.408 L 195.157 710.830 L 196.637 712.872 L 196.945 713.292 L 198.445 715.311 L 198.759 715.730 L 200.278 717.726 L 200.599 718.144 L 202.136 720.116 L 202.464 720.532 L 204.020 722.481 L 204.355 722.896 L 205.930 724.820 L 206.271 725.233 L 207.864 727.134 L 208.213 727.545 L 209.823 729.420 L 210.179 729.830 L 211.807 731.680 L 212.170 732.088 L 213.816 733.913 L 214.186 734.318 L 215.849 736.118 L 216.225 736.521 L 217.906 738.296 L 218.290 738.696 L 219.986 740.445 L 220.378 740.843 L 222.091 742.565 L 222.490 742.961 L 224.219 744.656 L 224.625 745.049 L 226.371 746.718 L 226.784 747.108 L 228.545 748.750 L 228.966 749.137 L 230.743 750.752 L 231.171 751.136 L 232.963 752.723 L 233.398 753.103 L 235.205 754.663 L 235.648 755.040 L 237.470 756.572 L 237.920 756.945 L 239.757 758.448 L 240.214 758.818 L 242.065 760.293 L 242.530 760.659 L 244.394 762.105 L 244.867 762.467 L 246.745 763.885 L 247.225 764.242 L 249.116 765.631 L 249.604 765.984 L 251.508 767.343 L 252.003 767.691 L 253.920 769.021 L 254.423 769.365 L 256.353 770.665 L 256.862 771.003 L 258.804 772.274 L 259.321 772.607 L 261.275 773.848 L 261.800 774.176 L 263.765 775.386 L 264.297 775.708 L 266.274 776.888 L 266.813 777.205 L 268.801 778.354 L 269.347 778.665 L 271.346 779.784 L 271.899 780.088 L 273.908 781.176 L 274.468 781.474 L 276.488 782.531 L 277.055 782.823 L 279.084 783.849 L 279.658 784.134 L 281.697 785.128 L 282.277 785.406 L 284.326 786.369 L 284.913 786.640 L 286.970 787.571 L 287.563 787.835 L 289.630 788.734 L 290.229 788.990 L 292.304 789.858 L 292.910 790.106 L 294.993 790.942 L 295.604 791.182 L 297.695 791.986 L 298.313 792.218 L 300.411 792.990 L 301.034 793.214 L 303.139 793.953 L 303.768 794.168 L 305.881 794.875 L 306.515 795.082 L 308.634 795.756 L 309.273 795.954 L 311.398 796.596 L 312.043 796.785 L 314.174 797.394 L 314.823 797.574 L 316.959 798.150 L 317.613 798.321 L 319.755 798.863 L 320.413 799.025 L 322.560 799.535 L 323.222 799.687 L 325.374 800.163 L 326.040 800.306 L 328.196 800.749 L 328.866 800.882 L 331.026 801.292 L 331.699 801.415 L 333.863 801.792 L 334.539 801.904 L 336.706 802.248 L 337.385 802.351 L 339.556 802.661 L 340.238 802.753 L 342.411 803.030 L 343.095 803.112 L 345.270 803.355 L 345.957 803.427 L 348.134 803.637 L 348.822 803.698 L 351.002 803.874 L 351.691 803.925 L 353.872 804.067 L 354.563 804.107 L 356.745 804.217 L 357.437 804.246 L 359.620 804.322 L 360.312 804.340 L 362.496 804.382 L 363.189 804.390 L 365.373 804.399 L 366.066 804.396 L 368.249 804.371 L 368.942 804.357 L 371.125 804.299 L 371.817 804.275 L 374.000 804.182 L 374.691 804.148 L 376.873 804.022 L 377.563 803.976 L 379.744 803.817 L 380.432 803.761 L 382.611 803.568 L 383.298 803.502 L 385.475 803.275 L 386.160 803.198 L 388.334 802.938 L 389.017 802.851 L 391.189 802.557 L 391.870 802.460 L 394.038 802.133 L 394.716 802.025 L 396.882 801.665 L 397.557 801.547 L 399.718 801.154 L 400.390 801.026 L 402.548 800.599 L 403.216 800.462 L 405.370 800.002 L 406.034 799.854 L 408.183 799.361 L 408.844 799.204 L 410.988 798.678 L 411.644 798.512 L 413.783 797.952 L 414.435 797.777 L 416.569 797.185 L 417.216 797.000 L 419.343 796.375 L 419.986 796.181 L 422.107 795.523 L 422.744 795.321 L 424.860 794.630 L 425.492 794.419 L 427.600 793.696 L 428.226 793.476 L 430.328 792.721 L 430.949 792.493 L 433.043 791.705 L 433.658 791.469 L 435.745 790.649 L 436.354 790.405 L 438.432 789.553 L 439.035 789.301 L 441.105 788.417 L 441.702 788.158 L 443.764 787.242 L 444.354 786.975 L 446.407 786.028 L 446.991 785.753 L 449.034 784.775 L 449.611 784.493 L 451.646 783.483 L 452.216 783.195 L 454.241 782.153 L 454.804 781.859 L 456.819 780.786 L 457.375 780.485 L 459.379 779.381 L 459.929 779.074 L 461.922 777.940 L 462.465 777.626 L 464.447 776.461 L 464.983 776.142 L 466.954 774.947 L 467.482 774.621 L 469.442 773.396 L 469.963 773.065 L 471.911 771.810 L 472.424 771.474 L 474.360 770.188 L 474.866 769.847 L 476.790 768.532 L 477.288 768.186 L 479.199 766.842 L 479.690 766.491 L 481.588 765.117 L 482.072 764.762 L 483.957 763.359 L 484.433 762.999 L 486.304 761.567 L 486.773 761.203 L 488.631 759.743 L 489.092 759.375 L 490.936 757.886 L 491.389 757.514 L 493.219 755.997 L 493.665 755.621 L 495.480 754.076 L 495.919 753.697 L 497.718 752.123 L 498.150 751.741 L 499.935 750.140 L 500.359 749.755 L 502.128 748.126 L 502.545 747.738 L 504.298 746.082 L 504.708 745.691 L 506.446 744.009 L 506.848 743.614 L 508.569 741.905 L 508.964 741.509 L 510.669 739.773 L 511.057 739.374 L 512.745 737.612 L 513.126 737.211 L 514.798 735.423 L 515.171 735.019 L 516.825 733.206 L 517.192 732.800 L 518.829 730.962 L 519.188 730.554 L 520.807 728.690 L 521.159 728.280 L 522.761 726.392 L 523.106 725.980 L 524.690 724.068 L 525.028 723.654 L 526.593 721.717 L 526.925 721.302 L 528.471 719.341 L 528.796 718.924 L 530.324 716.940 L 530.642 716.522 L 532.151 714.514 L 532.462 714.095 L 533.952 712.064 L 534.257 711.643 L 535.727 709.590 L 536.025 709.168 L 537.476 707.092 L 537.767 706.669 L 539.198 704.570 L 539.484 704.147 L 540.894 702.026 L 541.173 701.602 L 542.563 699.460 L 542.836 699.035 L 544.206 696.872 L 544.473 696.445 L 545.822 694.261 L 546.082 693.834 L 547.410 691.630 L 547.665 691.202 L 548.972 688.977 L 549.220 688.549 L 550.506 686.304 L 550.749 685.876 L 552.013 683.611 L 552.250 683.182 L 553.492 680.899 L 553.723 680.469 L 554.944 678.166 L 555.169 677.736 L 556.368 675.415 L 556.587 674.985 L 557.764 672.645 L 557.977 672.215 L 559.132 669.857 L 559.340 669.426 L 560.472 667.051 L 560.674 666.620 L 561.783 664.228 L 561.981 663.796 L 563.067 661.387 L 563.259 660.956 L 564.322 658.530 L 564.508 658.099 L 565.548 655.657 L 565.729 655.225 L 566.746 652.767 L 566.922 652.336 L 567.915 649.862 L 568.086 649.431 L 569.056 646.942 L 569.221 646.510 L 570.167 644.007 L 570.328 643.576 L 571.250 641.058 L 571.405 640.626 L 572.303 638.095 L 572.454 637.663 L 573.328 635.118 L 573.474 634.687 L 574.323 632.128 L 574.464 631.697 L 575.289 629.125 L 575.425 628.694 L 576.225 626.110 L 576.357 625.679 L 577.133 623.083 L 577.259 622.651 L 578.010 620.044 L 578.132 619.613 L 578.858 616.993 L 578.976 616.562 L 579.677 613.932 L 579.789 613.501 L 580.465 610.861 L 580.573 610.430 L 581.224 607.779 L 581.328 607.348 L 581.954 604.688 L 582.053 604.257 L 582.653 601.587 L 582.747 601.157 L 583.322 598.477 L 583.412 598.047 L 583.962 595.359 L 584.047 594.929 L 584.571 592.233 L 584.652 591.803 L 585.150 589.099 L 585.227 588.669 L 585.699 585.958 L 585.772 585.528 L 586.218 582.810 L 586.287 582.380 L 586.707 579.655 L 586.771 579.225 L 587.166 576.494 L 587.226 576.065 L 587.594 573.327 L 587.650 572.898 L 587.992 570.155 L 588.043 569.726 L 588.360 566.978 L 588.407 566.549 L 588.697 563.797 L 588.740 563.368 L 589.004 560.611 L 589.043 560.182 L 589.280 557.421 L 589.315 556.993 L 589.526 554.228 L 589.557 553.800 L 589.742 551.033 L 589.768 550.604 L 589.927 547.834 L 589.949 547.406 L 590.081 544.633 L 590.100 544.205 L 590.205 541.431 L 590.220 541.003 L 590.299 538.227 L 590.309 537.799 L 590.362 535.022 L 590.368 534.594 L 590.395 531.817 L 590.397 531.389 L 590.397 528.611 L 590.395 528.183 L 590.368 525.406 L 590.362 524.978 L 590.309 522.201 L 590.299 521.773 L 590.220 518.997 L 590.205 518.569 L 590.100 515.795 L 590.081 515.367 L 589.949 512.594 L 589.927 512.166 L 589.768 509.396 L 589.742 508.967 L 589.557 506.200 L 589.526 505.772 L 589.315 503.007 L 589.280 502.579 L 589.043 499.818 L 589.004 499.389 L 588.740 496.632 L 588.697 496.203 L 588.407 493.451 L 588.360 493.022 L 588.043 490.274 L 587.992 489.845 L 587.650 487.102 L 587.594 486.673 L 587.226 483.935 L 587.166 483.506 L 586.771 480.775 L 586.707 480.345 L 586.287 477.620 L 586.218 477.190 L 585.772 474.472 L 585.699 474.042 L 585.227 471.331 L 585.150 470.901 L 584.652 468.197 L 584.571 467.767 L 584.047 465.071 L 583.962 464.641 L 583.412 461.953 L 583.322 461.523 L 582.747 458.843 L 582.653 458.413 L 582.053 455.743 L 581.954 455.312 L 581.328 452.652 L 581.224 452.221 L 580.573 449.570 L 580.465 449.139 L 579.789 446.499 L 579.677 446.068 L 578.976 443.438 L 578.858 443.007 L 578.132 440.387 L 578.010 439.956 L 577.259 437.349 L 577.133 436.917 L 576.357 434.321 L 576.225 433.890 L 575.425 431.306 L 575.289 430.875 L 574.464 428.303 L 574.323 427.872 L 573.474 425.313 L 573.328 424.882 L 572.454 422.337 L 572.303 421.905 L 571.405 419.374 L 571.250 418.942 L 570.328 416.424 L 570.167 415.993 L 569.221 413.490 L 569.056 413.058 L 568.086 410.569 L 567.915 410.138 L 566.922 407.664 L 566.746 407.233 L 565.729 404.775 L 565.548 404.343 L 564.508 401.901 L 564.322 401.470 L 563.259 399.044 L 563.067 398.613 L 561.981 396.204 L 561.783 395.772 L 560.674 393.380 L 560.472 392.949 L 559.340 390.574 L 559.132 390.143 L 557.977 387.785 L 557.764 387.355 L 556.587 385.015 L 556.368 384.585 L 555.169 382.264 L 554.944 381.834 L 553.723 379.531 L 553.492 379.101 L 552.250 376.818 L 552.013 376.389 L 550.749 374.124 L 550.506 373.696 L 549.220 371.451 L 548.972 371.023 L 547.665 368.798 L 547.410 368.370 L 546.082 366.166 L 545.822 365.739 L 544.473 363.555 L 544.206 363.128 L 542.836 360.965 L 542.563 360.540 L 541.173 358.398 L 540.894 357.974 L 539.484 355.853 L 539.198 355.430 L 537.767 353.331 L 537.476 352.908 L 536.025 350.832 L 535.727 350.410 L 534.257 348.357 L 533.952 347.936 L 532.462 345.905 L 532.151 345.486 L 530.642 343.478 L 530.324 343.060 L 528.796 341.076 L 528.471 340.659 L 526.925 338.698 L 526.593 338.283 L 525.028 336.346 L 524.690 335.932 L 523.106 334.020 L 522.761 333.608 L 521.159 331.720 L 520.807 331.310 L 519.188 329.446 L 518.829 329.038 L 517.192 327.200 L 516.825 326.794 L 515.171 324.981 L 514.798 324.577 L 513.126 322.789 L 512.745 322.388 L 511.057 320.626 L 510.669 320.227 L 508.964 318.491 L 508.569 318.095 L 506.848 316.386 L 506.446 315.991 L 504.708 314.309 L 504.298 313.918 L 502.545 312.262 L 502.128 311.874 L 500.359 310.245 L 499.935 309.860 L 498.150 308.259 L 497.718 307.877 L 495.919 306.303 L 495.480 305.924 L 493.665 304.379 L 493.219 304.003 L 491.389 302.486 L 490.936 302.114 L 489.092 300.625 L 488.631 300.257 L 486.773 298.797 L 486.304 298.433 L 484.433 297.001 L 483.957 296.641 L 482.072 295.238 L 481.588 294.883 L 479.690 293.509 L 479.199 293.158 L 477.288 291.814 L 476.790 291.468 L 474.866 290.153 L 474.360 289.812 L 472.424 288.526 L 471.911 288.190 L 469.963 286.935 L 469.442 286.604 L 467.482 285.379 L 466.954 285.053 L 464.983 283.858 L 464.447 283.539 L 462.465 282.374 L 461.922 282.060 L 459.929 280.926 L 459.379 280.619 L 457.375 279.515 L 456.819 279.214 L 454.804 278.141 L 454.241 277.847 L 452.216 276.805 L 451.646 276.517 L 449.611 275.507 L 449.034 275.225 L 446.991 274.247 L 446.407 273.972 L 444.354 273.025 L 443.764 272.758 L 441.702 271.842 L 441.105 271.583 L 439.035 270.699 L 438.432 270.447 L 436.354 269.595 L 435.745 269.351 L 433.658 268.531 L 433.043 268.295 L 430.949 267.507 L 430.328 267.279 L 428.226 266.524 L 427.600 266.304 L 425.492 265.581 L 424.860 265.370 L 422.744 264.679 L 422.107 264.477 L 419.986 263.819 L 419.343 263.625 L 417.216 263.000 L 416.569 262.815 L 414.435 262.223 L 413.783 262.048 L 411.644 261.488 L 410.988 261.322 L 408.844 260.796 L 408.183 260.639 L 406.034 260.146 L 405.370 259.998 L 403.216 259.538 L 402.548 259.401 L 400.390 258.974 L 399.718 258.846 L 397.557 258.453 L 396.882 258.335 L 394.716 257.975 L 394.038 257.867 L 391.870 257.540 L 391.189 257.443 L 389.017 257.149 L 388.334 257.062 L 386.160 256.802 L 385.475 256.725 L 383.298 256.498 L 382.611 256.432 L 380.432 256.239 L 379.744 256.183 L 377.563 256.024 L 376.873 255.978 L 374.691 255.852 L 374.000 255.818 L 371.817 255.725 L 371.125 255.701 L 368.942 255.643 L 368.249 255.629 L 366.066 255.604 L 365.373 255.601 L 363.189 255.610 L 362.496 255.618 L 360.312 255.660 L 359.620 255.678 L 357.437 255.754 L 356.745 255.783 L 354.563 255.893 L 353.872 255.933 L 351.691 256.075 L 351.002 256.126 L 348.822 256.302 L 348.134 256.363 L 345.957 256.573 L 345.270 256.645 L 343.095 256.888 L 342.411 256.970 L 340.238 257.247 L 339.556 257.339 L 337.385 257.649 L 336.706 257.752 L 334.539 258.096 L 333.863 258.208 L 331.699 258.585 L 331.026 258.708 L 328.866 259.118 L 328.196 259.251 L 326.040 259.694 L 325.374 259.837 L 323.222 260.313 L 322.560 260.465 L 320.413 260.975 L 319.755 261.137 L 317.613 261.679 L 316.959 261.850 L 314.823 262.426 L 314.174 262.606 L 312.043 263.215 L 311.398 263.404 L 309.273 264.046 L 308.634 264.244 L 306.515 264.918 L 305.881 265.125 L 303.768 265.832 L 303.139 266.047 L 301.034 266.786 L 300.411 267.010 L 298.313 267.782 L 297.695 268.014 L 295.604 268.818 L 294.993 269.058 L 292.910 269.894 L 292.304 270.142 L 290.229 271.010 L 289.630 271.266 L 287.563 272.165 L 286.970 272.429 L 284.913 273.360 L 284.326 273.631 L 282.277 274.594 L 281.697 274.872 L 279.866 275.765 L 280.471 274.421 L 281.557 272.045 L 282.652 269.685 L 283.756 267.341 L 284.870 265.014 L 285.992 262.703 L 287.123 260.409 L 288.263 258.131 L 289.411 255.871 L 290.568 253.627 L 291.734 251.401 L 292.907 249.192 L 294.089 247.001 L 295.279 244.827 L 296.477 242.671 L 297.682 240.533 L 298.896 238.413 L 300.117 236.311 L 301.345 234.227 L 302.581 232.162 L 303.824 230.115 L 305.074 228.086 L 306.331 226.077 L 307.595 224.086 L 308.865 222.115 L 310.143 220.162 L 311.426 218.229 L 312.716 216.315 L 314.012 214.420 L 315.315 212.545 L 316.623 210.689 L 317.937 208.854 L 319.257 207.038 L 320.582 205.241 L 321.913 203.465 L 323.249 201.709 L 324.590 199.974 L 325.935 198.258 L 327.286 196.563 L 328.642 194.888 L 330.002 193.233 L 331.366 191.600 L 332.735 189.986 L 334.108 188.394 L 335.484 186.822 L 336.865 185.271 L 338.249 183.741 L 339.637 182.232 L 341.028 180.744 L 342.422 179.277 L 343.820 177.831 L 345.220 176.406 L 346.623 175.003 L 348.029 173.620 L 349.437 172.259 L 350.848 170.919 L 352.260 169.600 L 353.675 168.302 L 355.092 167.026 L 356.510 165.771 L 357.930 164.538 L 359.351 163.326 L 360.774 162.135 L 362.198 160.965 L 363.623 159.817 L 365.049 158.690 L 366.475 157.584 L 367.902 156.500 L 369.330 155.436 L 370.758 154.394 L 372.186 153.374 L 373.614 152.374 L 375.043 151.395 L 376.471 150.438 L 377.899 149.501 L 379.326 148.586 L 380.753 147.691 L 382.179 146.817 L 383.605 145.964 L 385.030 145.132 L 386.454 144.320 L 387.876 143.529 L 389.298 142.758 L 390.719 142.008 L 392.138 141.278 L 393.556 140.568 L 394.973 139.879 L 396.388 139.209 L 397.802 138.560 L 399.214 137.930 L 400.625 137.320 L 402.033 136.730 L 403.441 136.159 L 404.846 135.608 L 406.250 135.076 L 407.652 134.564 L 409.052 134.071 L 410.450 133.596 L 411.847 133.141 L 413.242 132.705 L 414.635 132.287 L 416.026 131.888 L 417.416 131.508 L 418.804 131.146 L 420.190 130.803 L 421.575 130.477 L 422.958 130.170 L 424.340 129.882 L 425.720 129.611 L 427.099 129.358 L 428.476 129.123 L 429.853 128.906 L 431.228 128.707 L 432.602 128.525 L 433.975 128.361 L 435.347 128.214 L 436.719 128.086 L 438.089 127.974 L 439.460 127.880 L 440.829 127.804 L 442.198 127.744 L 443.567 127.703 L 444.936 127.678 L 446.304 127.671 L 447.673 127.681 L 449.042 127.709 L 450.411 127.754 L 451.780 127.816 L 453.150 127.896 L 454.520 127.993 L 455.891 128.108 L 457.262 128.240 L 458.634 128.389 L 460.008 128.557 L 461.382 128.742 L 462.757 128.944 L 464.134 129.164 L 465.512 129.403 L 466.891 129.659 L 468.271 129.933 L 469.653 130.225 L 471.037 130.535 L 472.422 130.864 L 473.808 131.210 L 475.197 131.576 L 476.587 131.959 L 477.978 132.362 L 479.372 132.783 L 480.767 133.222 L 482.164 133.681 L 483.563 134.159 L 484.963 134.656 L 486.365 135.172 L 487.769 135.707 L 489.175 136.261 L 490.583 136.836 L 491.992 137.429 L 493.403 138.043 L 494.815 138.676 L 496.229 139.329 L 497.644 140.002 L 499.061 140.696 L 500.480 141.409 L 501.899 142.143 L 503.320 142.897 L 504.742 143.671 L 506.165 144.466 L 507.589 145.281 L 509.014 146.118 L 510.440 146.974 L 512.065 147.974 L 513.012 148.541 L 513.974 149.085 L 514.948 149.605 L 515.935 150.101 L 516.934 150.572 L 517.944 151.019 L 518.964 151.441 L 519.995 151.838 L 521.035 152.209 L 522.084 152.555 L 523.141 152.875 L 524.206 153.169 L 525.277 153.437 L 526.355 153.678 L 527.438 153.893 L 528.527 154.081 L 529.619 154.242 L 530.716 154.376 L 531.815 154.484 L 532.916 154.564 L 534.019 154.618 L 535.123 154.644 L 536.228 154.644 L 537.332 154.616 L 538.435 154.561 L 539.536 154.479 L 540.636 154.370 L 541.732 154.234 L 542.824 154.071 L 543.912 153.882 L 544.995 153.665 L 546.073 153.423 L 547.144 153.154 L 548.208 152.858 L 549.265 152.537 L 550.313 152.190 L 551.353 151.817 L 552.383 151.419 L 553.403 150.996 L 554.412 150.547 L 555.410 150.074 L 556.397 149.577 L 557.370 149.056 L 558.331 148.511 L 559.278 147.942 L 560.210 147.351 L 561.128 146.737 L 562.031 146.100 L 562.918 145.442 L 563.788 144.762 L 564.641 144.060 L 565.477 143.339 L 566.295 142.596 L 567.094 141.834 L 567.875 141.053 L 568.636 140.252 L 569.377 139.433 L 570.098 138.597 L 570.798 137.742 L 571.476 136.871 L 572.134 135.984 L 572.769 135.080 L 573.382 134.162 L 573.972 133.228 L 574.540 132.281 L 575.083 131.319 L 575.603 130.345 L 576.099 129.358 L 576.571 128.359 L 577.018 127.349 L 577.440 126.329 L 577.836 125.298 L 578.208 124.258 L 578.553 123.209 L 578.873 122.152 L 579.167 121.087 L 579.435 120.016 L 579.676 118.938 L 579.891 117.855 L 580.079 116.766 L 580.240 115.674 L 580.375 114.577 L 580.482 113.478 L 580.563 112.377 L 580.616 111.274 L 580.643 110.169 L 580.642 109.065 L 580.614 107.961 L 580.559 106.858 L 580.477 105.756 L 580.368 104.657 L 580.232 103.561 L 580.069 102.469 L 579.880 101.381 L 579.664 100.298 L 579.421 99.220 L 579.152 98.149 L 578.857 97.085 L 578.535 96.028 L 578.188 94.980 L 577.815 93.940 L 577.417 92.910 L 576.994 91.890 L 576.546 90.881 L 576.073 89.883 L 575.576 88.896 L 575.054 87.923 L 574.509 86.962 L 573.941 86.015 L 573.349 85.082 L 572.735 84.165 L 572.099 83.262 L 571.440 82.375 L 570.760 81.505 L 570.059 80.652 L 569.337 79.816 L 568.595 78.998 L 567.833 78.199 L 567.051 77.418 L 566.251 76.657 L 565.432 75.916 L 564.595 75.195 L 563.741 74.495 L 562.870 73.816 L 561.982 73.159 L 561.079 72.524 L 560.160 71.911 L 559.227 71.321 L 557.402 70.198 L 557.001 69.954 L 555.172 68.855 L 554.766 68.614 L 552.932 67.537 L 552.520 67.299 L 550.681 66.246 L 550.264 66.010 L 548.421 64.980 L 547.998 64.747 L 546.150 63.741 L 545.722 63.511 L 543.870 62.528 L 543.436 62.301 L 541.580 61.342 L 541.141 61.118 L 539.281 60.182 L 538.836 59.961 L 536.972 59.049 L 536.522 58.832 L 534.654 57.944 L 534.199 57.731 L 532.327 56.866 L 531.866 56.656 L 529.991 55.815 L 529.525 55.610 L 527.646 54.793 L 527.175 54.591 L 525.292 53.798 L 524.816 53.600 L 522.930 52.831 L 522.449 52.638 L 520.560 51.892 L 520.074 51.704 L 518.181 50.982 L 517.690 50.798 L 515.794 50.101 L 515.299 49.922 L 513.400 49.248 L 512.900 49.074 L 510.998 48.425 L 510.493 48.256 L 508.589 47.630 L 508.080 47.466 L 506.173 46.865 L 505.659 46.707 L 503.750 46.130 L 503.231 45.977 L 501.320 45.424 L 500.797 45.277 L 498.883 44.748 L 498.357 44.606 L 496.441 44.102 L 495.910 43.966 L 493.992 43.486 L 493.458 43.356 L 491.537 42.901 L 491.000 42.777 L 489.078 42.346 L 488.537 42.228 L 486.613 41.821 L 486.069 41.710 L 484.142 41.327 L 483.595 41.222 L 481.668 40.864 L 481.118 40.766 L 479.189 40.432 L 478.636 40.340 L 476.705 40.031 L 476.150 39.946 L 474.218 39.661 L 473.661 39.583 L 471.728 39.323 L 471.168 39.251 L 469.234 39.015 L 468.672 38.950 L 466.737 38.739 L 466.173 38.682 L 464.238 38.495 L 463.672 38.444 L 461.736 38.282 L 461.169 38.239 L 459.232 38.101 L 458.664 38.065 L 456.726 37.952 L 456.158 37.922 L 454.219 37.834 L 453.650 37.812 L 451.711 37.748 L 451.141 37.733 L 449.203 37.694 L 448.632 37.686 L 446.693 37.671 L 446.123 37.671 L 444.184 37.681 L 443.614 37.687 L 441.675 37.722 L 441.105 37.736 L 439.166 37.795 L 438.596 37.816 L 436.658 37.900 L 436.089 37.928 L 434.151 38.036 L 433.583 38.072 L 431.646 38.205 L 431.079 38.247 L 429.143 38.405 L 428.577 38.454 L 426.641 38.636 L 426.077 38.693 L 424.142 38.899 L 423.580 38.963 L 421.646 39.194 L 421.085 39.264 L 419.152 39.520 L 418.594 39.597 L 416.662 39.877 L 416.107 39.962 L 414.176 40.266 L 413.623 40.357 L 411.693 40.686 L 411.143 40.783 L 409.215 41.137 L 408.667 41.241 L 406.741 41.619 L 406.196 41.729 L 404.272 42.131 L 403.730 42.248 L 401.807 42.675 L 401.269 42.798 L 399.348 43.249 L 398.814 43.378 L 396.895 43.853 L 396.364 43.988 L 394.447 44.488 L 393.920 44.628 L 392.006 45.152 L 391.483 45.299 L 389.571 45.847 L 389.052 45.999 L 387.142 46.572 L 386.627 46.729 L 384.720 47.326 L 384.210 47.489 L 382.305 48.110 L 381.799 48.278 L 379.897 48.923 L 379.396 49.096 L 377.497 49.766 L 377.000 49.944 L 375.104 50.637 L 374.612 50.820 L 372.719 51.537 L 372.232 51.725 L 370.342 52.466 L 369.860 52.658 L 367.974 53.423 L 367.497 53.620 L 365.613 54.409 L 365.142 54.610 L 363.262 55.422 L 362.795 55.627 L 360.919 56.464 L 360.457 56.673 L 358.585 57.533 L 358.128 57.746 L 356.260 58.630 L 355.809 58.846 L 353.944 59.754 L 353.498 59.974 L 351.637 60.905 L 351.197 61.129 L 349.340 62.084 L 348.905 62.310 L 347.053 63.289 L 346.624 63.518 L 344.775 64.520 L 344.351 64.753 L 342.507 65.778 L 342.089 66.014 L 340.250 67.062 L 339.837 67.301 L 338.002 68.373 L 337.595 68.613 L 335.764 69.709 L 335.363 69.952 L 333.537 71.070 L 333.141 71.316 L 331.320 72.457 L 330.930 72.705 L 329.114 73.870 L 328.729 74.120 L 326.919 75.307 L 326.539 75.559 L 324.734 76.769 L 324.359 77.023 L 322.559 78.256 L 322.190 78.512 L 320.396 79.768 L 320.032 80.025 L 318.243 81.304 L 317.885 81.562 L 316.102 82.864 L 315.749 83.124 L 313.971 84.448 L 313.624 84.709 L 311.852 86.055 L 311.510 86.318 L 309.744 87.687 L 309.407 87.951 L 307.647 89.342 L 307.315 89.607 L 305.561 91.020 L 305.235 91.286 L 303.487 92.721 L 303.165 92.988 L 301.424 94.446 L 301.108 94.713 L 299.372 96.193 L 299.061 96.461 L 297.332 97.962 L 297.026 98.231 L 295.304 99.755 L 295.003 100.024 L 293.287 101.569 L 292.991 101.838 L 291.282 103.406 L 290.990 103.675 L 289.289 105.264 L 289.002 105.534 L 287.307 107.145 L 287.025 107.415 L 285.337 109.047 L 285.059 109.317 L 283.378 110.970 L 283.106 111.241 L 281.432 112.915 L 281.164 113.186 L 279.497 114.881 L 279.234 115.152 L 277.575 116.869 L 277.315 117.139 L 275.664 118.877 L 275.409 119.147 L 273.765 120.906 L 273.515 121.176 L 271.878 122.955 L 271.632 123.225 L 270.004 125.025 L 269.761 125.295 L 268.141 127.116 L 267.903 127.385 L 266.290 129.226 L 266.056 129.495 L 264.452 131.357 L 264.222 131.626 L 262.625 133.507 L 262.400 133.776 L 260.811 135.677 L 260.589 135.945 L 259.009 137.867 L 258.791 138.135 L 257.219 140.077 L 257.005 140.343 L 255.442 142.305 L 255.231 142.572 L 253.677 144.553 L 253.470 144.819 L 251.924 146.820 L 251.721 147.085 L 250.183 149.106 L 249.984 149.370 L 248.455 151.411 L 248.259 151.674 L 246.740 153.734 L 246.547 153.997 L 245.036 156.076 L 244.847 156.338 L 243.345 158.436 L 243.160 158.698 L 241.667 160.814 L 241.485 161.075 L 240.001 163.211 L 239.822 163.471 L 238.348 165.626 L 238.172 165.885 L 236.707 168.058 L 236.534 168.317 L 235.079 170.508 L 234.909 170.766 L 233.464 172.976 L 233.297 173.233 L 231.861 175.461 L 231.697 175.717 L 230.271 177.963 L 230.110 178.219 L 228.694 180.483 L 228.536 180.738 L 227.129 183.020 L 226.974 183.273 L 225.577 185.573 L 225.425 185.826 L 224.038 188.144 L 223.888 188.396 L 222.512 190.731 L 222.365 190.982 L 220.999 193.334 L 220.854 193.585 L 219.498 195.954 L 219.357 196.204 L 218.011 198.591 L 217.872 198.839 L 216.536 201.243 L 216.400 201.490 L 215.075 203.911 L 214.941 204.158 L 213.626 206.595 L 213.495 206.841 L 212.191 209.295 L 212.062 209.540 L 210.768 212.010 L 210.642 212.254 L 209.359 214.741 L 209.235 214.984 L 207.963 217.487 L 207.841 217.729 L 206.580 220.249 L 206.460 220.490 L 205.210 223.025 L 205.093 223.265 L 203.854 225.816 L 203.739 226.055 L 202.511 228.622 L 202.398 228.861 L 201.181 231.442 L 201.070 231.680 L 199.865 234.278 L 199.755 234.514 L 198.561 237.127 L 198.454 237.363 L 197.272 239.990 L 197.167 240.226 L 195.995 242.868 L 195.892 243.102 L 194.732 245.760 L 194.631 245.993 L 193.483 248.665 L 193.384 248.897 L 192.247 251.584 L 192.150 251.816 L 191.025 254.516 L 190.930 254.747 L 189.816 257.462 L 189.723 257.692 L 188.621 260.421 L 188.530 260.650 L 187.440 263.393 L 187.350 263.622 L 186.272 266.378 L 186.184 266.606 L 185.118 269.376 L 185.032 269.603 L 183.978 272.386 L 183.893 272.612 L 182.852 275.409 L 182.769 275.635 L 181.739 278.445 L 181.658 278.669 L 180.641 281.492 L 180.561 281.716 L 179.556 284.551 L 179.477 284.774 L 178.485 287.623 L 178.408 287.845 L 177.428 290.706 L 177.353 290.927 L 176.385 293.801 L 176.311 294.022 L 175.356 296.907 L 175.284 297.127 L 174.341 300.025 L 174.270 300.244 L 173.340 303.153 L 173.271 303.372 L 172.353 306.293 L 172.285 306.511 L 171.380 309.443 L 171.314 309.661 L 170.422 312.605 L 170.357 312.821 L 169.477 315.777 L 169.414 315.992 L 168.547 318.959 L 168.485 319.174 L 167.631 322.151 L 167.570 322.366 L 166.730 325.354 L 166.670 325.568 L 165.842 328.566 L 165.784 328.780 L 164.969 331.789 L 164.912 332.001 L 164.110 335.021 L 164.055 335.233 L 163.266 338.262 L 163.212 338.474 L 162.436 341.513 L 162.383 341.724 L 161.621 344.773 L 161.569 344.983 L 160.820 348.042 L 160.769 348.251 L 160.033 351.319 L 159.984 351.528 L 159.261 354.606 L 159.213 354.814 L 158.504 357.901 L 158.457 358.109 L 157.761 361.204 L 157.715 361.412 L 157.033 364.515 L 156.988 364.723 L 156.319 367.835 L 156.275 368.042 L 155.620 371.163 L 155.577 371.369 L 154.935 374.498 L 154.894 374.703 L 154.266 377.841 L 154.225 378.046 L 153.611 381.191 L 153.571 381.396 L 152.970 384.548 L 152.932 384.753 L 152.345 387.913 L 152.307 388.117 L 151.734 391.284 L 151.698 391.488 L 151.138 394.662 L 151.103 394.865 L 150.557 398.047 L 150.523 398.250 L 149.990 401.438 L 149.957 401.641 L 149.439 404.836 L 149.407 405.038 L 148.902 408.239 L 148.871 408.441 L 148.381 411.649 L 148.350 411.850 L 147.874 415.064 L 147.844 415.265 L 147.382 418.485 L 147.353 418.685 L 146.905 421.911 L 146.877 422.111 L 146.443 425.343 L 146.416 425.543 L 145.996 428.780 L 145.970 428.979 L 145.564 432.221 L 145.539 432.420 L 145.147 435.668 L 145.123 435.866 L 144.745 439.119 L 144.722 439.317 L 144.358 442.574 L 144.336 442.772 L 143.986 446.034 L 143.965 446.232 L 143.629 449.497 L 143.609 449.695 L 143.287 452.965 L 143.268 453.163 L 142.960 456.436 L 142.942 456.634 L 142.649 459.911 L 142.631 460.109 L 142.352 463.390 L 142.336 463.587 L 142.071 466.872 L 142.055 467.068 L 141.805 470.356 L 141.790 470.553 L 141.553 473.844 L 141.540 474.040 L 141.317 477.334 L 141.305 477.531 L 141.097 480.827 L 141.085 481.023 L 140.891 484.323 L 140.880 484.519 L 140.700 487.820 L 140.690 488.016 L 140.525 491.320 L 140.516 491.516 L 140.365 494.821 L 140.357 495.017 L 140.220 498.325 L 140.212 498.520 L 140.090 501.829 L 140.084 502.025 L 139.976 505.336 L 139.970 505.531 L 139.877 508.843 L 139.871 509.038 L 139.792 512.351 L 139.788 512.547 L 139.724 515.861 L 139.720 516.056 L 139.670 519.370 L 139.667 519.566 L 139.631 522.881 L 139.630 523.076 L 139.608 526.392 L 139.607 526.587 L 139.600 529.902 L 139.602 530.058 Z M 229.601 530.000 L 229.612 527.651 L 229.645 525.303 L 229.701 522.956 L 229.779 520.609 L 229.880 518.265 L 230.003 515.922 L 230.148 513.582 L 230.315 511.245 L 230.505 508.912 L 230.716 506.582 L 230.950 504.256 L 231.206 501.934 L 231.484 499.618 L 231.783 497.307 L 232.105 495.002 L 232.448 492.703 L 232.813 490.411 L 233.200 488.125 L 233.608 485.847 L 234.037 483.577 L 234.488 481.315 L 234.960 479.062 L 235.453 476.817 L 235.967 474.582 L 236.502 472.357 L 237.057 470.142 L 237.634 467.937 L 238.230 465.743 L 238.847 463.561 L 239.484 461.390 L 240.141 459.231 L 240.818 457.085 L 241.514 454.952 L 242.230 452.831 L 242.965 450.725 L 243.720 448.632 L 244.493 446.553 L 245.285 444.489 L 246.096 442.439 L 246.925 440.405 L 247.772 438.387 L 248.637 436.384 L 249.520 434.398 L 250.421 432.428 L 251.339 430.476 L 252.274 428.540 L 253.226 426.622 L 254.194 424.722 L 255.179 422.840 L 256.180 420.976 L 257.197 419.131 L 258.230 417.305 L 259.278 415.498 L 260.341 413.711 L 261.420 411.944 L 262.512 410.196 L 263.620 408.470 L 264.741 406.763 L 265.876 405.078 L 267.025 403.413 L 268.187 401.770 L 269.362 400.148 L 270.550 398.548 L 271.751 396.970 L 272.963 395.414 L 274.188 393.881 L 275.424 392.369 L 276.671 390.881 L 277.929 389.415 L 279.198 387.973 L 280.478 386.554 L 281.768 385.158 L 283.067 383.785 L 284.376 382.436 L 285.695 381.111 L 287.022 379.810 L 288.359 378.532 L 289.703 377.279 L 291.056 376.050 L 292.416 374.845 L 293.784 373.664 L 295.160 372.508 L 296.542 371.376 L 297.931 370.269 L 299.327 369.186 L 300.728 368.128 L 302.136 367.095 L 303.549 366.086 L 304.968 365.102 L 306.391 364.143 L 307.820 363.208 L 309.253 362.298 L 310.691 361.413 L 312.133 360.552 L 313.578 359.717 L 315.028 358.905 L 316.481 358.119 L 317.937 357.357 L 319.396 356.619 L 320.858 355.906 L 322.323 355.217 L 323.790 354.553 L 325.260 353.913 L 326.732 353.298 L 328.206 352.706 L 329.681 352.139 L 331.159 351.596 L 332.638 351.076 L 334.118 350.581 L 335.600 350.110 L 337.083 349.662 L 338.566 349.238 L 340.051 348.838 L 341.537 348.462 L 343.024 348.109 L 344.511 347.779 L 345.999 347.473 L 347.487 347.190 L 348.976 346.931 L 350.466 346.694 L 351.955 346.481 L 353.446 346.292 L 354.936 346.125 L 356.426 345.981 L 357.917 345.860 L 359.408 345.763 L 360.899 345.688 L 362.390 345.636 L 363.882 345.608 L 365.373 345.602 L 366.864 345.619 L 368.355 345.659 L 369.846 345.723 L 371.337 345.809 L 372.828 345.918 L 374.319 346.050 L 375.809 346.205 L 377.300 346.384 L 378.789 346.585 L 380.279 346.810 L 381.768 347.058 L 383.257 347.329 L 384.745 347.623 L 386.233 347.941 L 387.720 348.282 L 389.206 348.647 L 390.691 349.035 L 392.176 349.447 L 393.659 349.883 L 395.141 350.342 L 396.622 350.826 L 398.102 351.333 L 399.580 351.864 L 401.057 352.419 L 402.531 352.999 L 404.004 353.602 L 405.475 354.230 L 406.944 354.882 L 408.410 355.559 L 409.873 356.259 L 411.334 356.985 L 412.792 357.735 L 414.246 358.509 L 415.697 359.308 L 417.145 360.131 L 418.589 360.980 L 420.029 361.853 L 421.464 362.750 L 422.895 363.672 L 424.321 364.619 L 425.742 365.591 L 427.158 366.588 L 428.569 367.609 L 429.973 368.654 L 431.372 369.725 L 432.764 370.820 L 434.150 371.939 L 435.529 373.083 L 436.901 374.251 L 438.265 375.444 L 439.622 376.661 L 440.970 377.902 L 442.311 379.168 L 443.642 380.457 L 444.965 381.771 L 446.279 383.108 L 447.584 384.468 L 448.878 385.853 L 450.163 387.260 L 451.437 388.691 L 452.701 390.145 L 453.954 391.622 L 455.196 393.122 L 456.426 394.645 L 457.645 396.189 L 458.851 397.756 L 460.045 399.345 L 461.227 400.956 L 462.396 402.589 L 463.551 404.243 L 464.693 405.918 L 465.821 407.614 L 466.936 409.330 L 468.036 411.068 L 469.121 412.825 L 470.192 414.602 L 471.248 416.399 L 472.288 418.216 L 473.313 420.051 L 474.322 421.905 L 475.315 423.778 L 476.292 425.670 L 477.252 427.579 L 478.196 429.506 L 479.122 431.450 L 480.031 433.411 L 480.923 435.389 L 481.797 437.384 L 482.654 439.394 L 483.492 441.420 L 484.312 443.462 L 485.113 445.519 L 485.896 447.590 L 486.660 449.676 L 487.405 451.776 L 488.130 453.890 L 488.837 456.017 L 489.523 458.157 L 490.190 460.309 L 490.837 462.474 L 491.464 464.651 L 492.071 466.839 L 492.657 469.038 L 493.223 471.248 L 493.768 473.468 L 494.293 475.698 L 494.796 477.938 L 495.279 480.187 L 495.740 482.445 L 496.180 484.711 L 496.599 486.985 L 496.996 489.267 L 497.372 491.556 L 497.726 493.852 L 498.059 496.154 L 498.369 498.462 L 498.658 500.776 L 498.925 503.095 L 499.170 505.418 L 499.392 507.746 L 499.593 510.078 L 499.771 512.414 L 499.928 514.752 L 500.061 517.093 L 500.173 519.437 L 500.263 521.782 L 500.330 524.129 L 500.374 526.477 L 500.397 528.826 L 500.397 531.174 L 500.374 533.523 L 500.330 535.871 L 500.263 538.218 L 500.173 540.563 L 500.061 542.907 L 499.928 545.248 L 499.771 547.586 L 499.593 549.922 L 499.392 552.254 L 499.170 554.582 L 498.925 556.905 L 498.658 559.224 L 498.369 561.538 L 498.059 563.846 L 497.726 566.148 L 497.372 568.444 L 496.996 570.733 L 496.599 573.015 L 496.180 575.289 L 495.740 577.555 L 495.279 579.813 L 494.796 582.062 L 494.293 584.302 L 493.768 586.532 L 493.223 588.752 L 492.657 590.962 L 492.071 593.161 L 491.464 595.349 L 490.837 597.526 L 490.190 599.691 L 489.523 601.843 L 488.837 603.983 L 488.130 606.110 L 487.405 608.224 L 486.660 610.324 L 485.896 612.410 L 485.113 614.481 L 484.312 616.538 L 483.492 618.580 L 482.654 620.606 L 481.797 622.616 L 480.923 624.611 L 480.031 626.589 L 479.122 628.550 L 478.196 630.494 L 477.252 632.421 L 476.292 634.330 L 475.315 636.222 L 474.322 638.095 L 473.313 639.949 L 472.288 641.784 L 471.248 643.601 L 470.192 645.398 L 469.121 647.175 L 468.036 648.932 L 466.936 650.670 L 465.821 652.386 L 464.693 654.082 L 463.551 655.757 L 462.396 657.411 L 461.227 659.044 L 460.045 660.655 L 458.851 662.244 L 457.645 663.811 L 456.426 665.355 L 455.196 666.878 L 453.954 668.378 L 452.701 669.855 L 451.437 671.309 L 450.163 672.740 L 448.878 674.147 L 447.584 675.532 L 446.279 676.892 L 444.965 678.229 L 443.642 679.543 L 442.311 680.832 L 440.970 682.098 L 439.622 683.339 L 438.265 684.556 L 436.901 685.749 L 435.529 686.917 L 434.150 688.061 L 432.764 689.180 L 431.372 690.275 L 429.973 691.346 L 428.569 692.391 L 427.158 693.412 L 425.742 694.409 L 424.321 695.381 L 422.895 696.328 L 421.464 697.250 L 420.029 698.147 L 418.589 699.020 L 417.145 699.869 L 415.697 700.692 L 414.246 701.491 L 412.792 702.265 L 411.334 703.015 L 409.873 703.741 L 408.410 704.441 L 406.944 705.118 L 405.475 705.770 L 404.004 706.398 L 402.531 707.001 L 401.057 707.581 L 399.580 708.136 L 398.102 708.667 L 396.622 709.174 L 395.141 709.658 L 393.659 710.117 L 392.176 710.553 L 390.691 710.965 L 389.206 711.353 L 387.720 711.718 L 386.233 712.059 L 384.745 712.377 L 383.257 712.671 L 381.768 712.942 L 380.279 713.190 L 378.789 713.415 L 377.300 713.616 L 375.809 713.795 L 374.319 713.950 L 372.828 714.082 L 371.337 714.191 L 369.846 714.277 L 368.355 714.341 L 366.864 714.381 L 365.373 714.398 L 363.882 714.392 L 362.390 714.364 L 360.899 714.312 L 359.408 714.237 L 357.917 714.140 L 356.426 714.019 L 354.936 713.875 L 353.446 713.708 L 351.955 713.519 L 350.466 713.306 L 348.976 713.069 L 347.487 712.810 L 345.999 712.527 L 344.511 712.221 L 343.024 711.891 L 341.537 711.538 L 340.051 711.162 L 338.566 710.762 L 337.083 710.338 L 335.600 709.890 L 334.118 709.419 L 332.638 708.924 L 331.159 708.404 L 329.681 707.861 L 328.206 707.294 L 326.732 706.702 L 325.260 706.087 L 323.790 705.447 L 322.323 704.783 L 320.858 704.094 L 319.396 703.381 L 317.937 702.643 L 316.481 701.881 L 315.028 701.095 L 313.578 700.283 L 312.133 699.448 L 310.691 698.587 L 309.253 697.702 L 307.820 696.792 L 306.391 695.857 L 304.968 694.898 L 303.549 693.914 L 302.136 692.905 L 300.728 691.872 L 299.327 690.814 L 297.931 689.731 L 296.542 688.624 L 295.160 687.492 L 293.784 686.336 L 292.416 685.155 L 291.056 683.950 L 289.703 682.721 L 288.359 681.468 L 287.022 680.190 L 285.695 678.889 L 284.376 677.564 L 283.067 676.215 L 281.768 674.842 L 280.478 673.446 L 279.198 672.027 L 277.929 670.585 L 276.671 669.119 L 275.424 667.631 L 274.188 666.119 L 272.963 664.586 L 271.751 663.030 L 270.550 661.452 L 269.362 659.852 L 268.187 658.230 L 267.025 656.587 L 265.876 654.922 L 264.741 653.237 L 263.620 651.530 L 262.512 649.804 L 261.420 648.056 L 260.341 646.289 L 259.278 644.502 L 258.230 642.695 L 257.197 640.869 L 256.180 639.024 L 255.179 637.160 L 254.194 635.278 L 253.226 633.378 L 252.274 631.460 L 251.339 629.524 L 250.421 627.572 L 249.520 625.602 L 248.637 623.616 L 247.772 621.613 L 246.925 619.595 L 246.096 617.561 L 245.285 615.511 L 244.493 613.447 L 243.720 611.368 L 242.965 609.275 L 242.230 607.169 L 241.514 605.048 L 240.818 602.915 L 240.141 600.769 L 239.484 598.610 L 238.847 596.439 L 238.230 594.257 L 237.634 592.063 L 237.057 589.858 L 236.502 587.643 L 235.967 585.418 L 235.453 583.183 L 234.960 580.938 L 234.488 578.685 L 234.037 576.423 L 233.608 574.153 L 233.200 571.875 L 232.813 569.589 L 232.448 567.297 L 232.105 564.998 L 231.783 562.693 L 231.484 560.382 L 231.206 558.066 L 230.950 555.744 L 230.716 553.418 L 230.505 551.088 L 230.315 548.755 L 230.148 546.418 L 230.003 544.078 L 229.880 541.735 L 229.779 539.391 L 229.701 537.044 L 229.645 534.697 L 229.612 532.349 L 229.601 530.000 Z" fill="black" fill-rule="evenodd"/>
</svg>
