<svg xmlns="http://www.w3.org/2000/svg" viewBox="0 0 700.000 1000" width="700.000" height="1000">
  <path d="M 305.141 286.558 L 308.021 282.412 L 310.941 278.328 L 313.896 274.311 L 316.885 270.367 L 319.905 266.501 L 322.953 262.719 L 326.026 259.026 L 329.120 255.428 L 332.233 251.929 L 335.360 248.537 L 338.498 245.254 L 341.644 242.088 L 344.792 239.042 L 347.939 236.121 L 351.080 233.330 L 354.210 230.672 L 357.325 228.153 L 360.418 225.774 L 363.485 223.541 L 366.521 221.454 L 369.520 219.516 L 372.475 217.728 L 375.384 216.091 L 378.239 214.605 L 381.037 213.269 L 383.773 212.081 L 386.445 211.037 L 389.050 210.135 L 391.588 209.370 L 394.061 208.738 L 396.470 208.232 L 398.821 207.849 L 401.120 207.583 L 403.378 207.430 L 405.605 207.388 L 407.815 207.456 L 410.022 207.636 L 412.241 207.929 L 414.489 208.344 L 416.780 208.888 L 419.130 209.573 L 421.551 210.411 L 424.054 211.417 L 426.649 212.608 L 429.343 214.000 L 432.138 215.610 L 435.847 217.969 L 436.786 218.550 L 437.739 219.108 L 438.705 219.642 L 439.684 220.153 L 440.676 220.640 L 441.679 221.102 L 442.693 221.539 L 443.718 221.951 L 444.752 222.338 L 445.796 222.699 L 446.848 223.035 L 447.908 223.345 L 448.976 223.629 L 450.050 223.886 L 451.130 224.117 L 452.215 224.321 L 453.305 224.499 L 454.399 224.650 L 455.497 224.774 L 456.597 224.871 L 457.699 224.941 L 458.803 224.984 L 459.907 225.000 L 461.011 224.989 L 462.115 224.950 L 463.218 224.885 L 464.318 224.792 L 465.416 224.673 L 466.511 224.527 L 467.602 224.353 L 468.688 224.153 L 469.769 223.927 L 470.844 223.674 L 471.912 223.395 L 472.974 223.089 L 474.027 222.758 L 475.072 222.401 L 476.108 222.018 L 477.135 221.610 L 478.151 221.177 L 479.156 220.719 L 480.149 220.237 L 481.131 219.730 L 482.099 219.200 L 483.055 218.646 L 483.996 218.068 L 484.923 217.468 L 485.835 216.845 L 486.732 216.200 L 487.612 215.533 L 488.476 214.844 L 489.322 214.135 L 490.151 213.405 L 490.962 212.655 L 491.754 211.886 L 492.527 211.097 L 493.280 210.289 L 494.014 209.463 L 494.726 208.620 L 495.418 207.759 L 496.089 206.881 L 496.738 205.987 L 497.364 205.078 L 497.969 204.153 L 498.550 203.214 L 499.108 202.261 L 499.642 201.295 L 500.153 200.316 L 500.640 199.324 L 501.102 198.321 L 501.539 197.307 L 501.951 196.282 L 502.338 195.248 L 502.699 194.204 L 503.035 193.152 L 503.345 192.092 L 503.629 191.024 L 503.886 189.950 L 504.117 188.870 L 504.321 187.785 L 504.499 186.695 L 504.650 185.601 L 504.774 184.503 L 504.871 183.403 L 504.941 182.301 L 504.984 181.197 L 505.000 180.093 L 504.989 178.989 L 504.950 177.885 L 504.885 176.782 L 504.792 175.682 L 504.673 174.584 L 504.527 173.489 L 504.353 172.398 L 504.153 171.312 L 503.927 170.231 L 503.674 169.156 L 503.395 168.088 L 503.089 167.026 L 502.758 165.973 L 502.401 164.928 L 502.018 163.892 L 501.610 162.865 L 501.177 161.849 L 500.719 160.844 L 500.237 159.851 L 499.730 158.869 L 499.200 157.901 L 498.646 156.945 L 498.068 156.004 L 497.468 155.077 L 496.845 154.165 L 496.200 153.268 L 495.533 152.388 L 494.844 151.524 L 494.135 150.678 L 493.405 149.849 L 492.655 149.038 L 491.886 148.246 L 491.097 147.473 L 490.289 146.720 L 489.463 145.986 L 488.620 145.274 L 487.759 144.582 L 486.881 143.911 L 485.987 143.262 L 485.078 142.636 L 484.153 142.031 L 479.609 139.140 L 478.766 138.617 L 477.913 138.113 L 473.370 135.497 L 472.478 134.997 L 471.574 134.516 L 467.035 132.171 L 466.093 131.698 L 465.141 131.247 L 460.607 129.167 L 459.620 128.728 L 458.624 128.314 L 454.095 126.493 L 453.068 126.095 L 452.031 125.722 L 447.510 124.157 L 446.447 123.804 L 445.376 123.477 L 440.862 122.163 L 439.771 121.859 L 438.672 121.584 L 434.168 120.515 L 433.056 120.265 L 431.937 120.044 L 427.444 119.215 L 426.318 119.022 L 425.187 118.858 L 420.706 118.265 L 419.575 118.130 L 418.442 118.023 L 413.973 117.660 L 412.846 117.583 L 411.717 117.534 L 407.263 117.397 L 406.148 117.376 L 405.033 117.383 L 400.594 117.467 L 399.498 117.500 L 398.403 117.561 L 393.981 117.860 L 392.911 117.945 L 391.844 118.056 L 387.439 118.565 L 386.402 118.697 L 385.368 118.854 L 380.982 119.569 L 379.981 119.744 L 378.984 119.941 L 374.618 120.857 L 373.658 121.070 L 372.703 121.303 L 368.358 122.415 L 367.441 122.660 L 366.529 122.924 L 362.207 124.227 L 361.334 124.499 L 360.468 124.789 L 356.169 126.278 L 355.342 126.573 L 354.521 126.885 L 350.247 128.554 L 349.465 128.868 L 348.690 129.196 L 344.441 131.041 L 342.974 131.710 L 338.753 133.726 L 337.373 134.415 L 333.180 136.597 L 331.884 137.299 L 327.720 139.642 L 326.505 140.351 L 322.371 142.851 L 321.232 143.563 L 317.131 146.214 L 316.064 146.925 L 311.996 149.722 L 310.997 150.429 L 306.963 153.367 L 306.027 154.067 L 302.029 157.141 L 301.153 157.832 L 297.190 161.037 L 296.370 161.717 L 292.445 165.049 L 291.676 165.717 L 287.790 169.170 L 287.069 169.825 L 283.223 173.395 L 282.546 174.037 L 278.741 177.718 L 278.105 178.346 L 274.343 182.133 L 273.745 182.747 L 270.026 186.636 L 269.463 187.236 L 265.790 191.221 L 265.259 191.807 L 261.631 195.885 L 261.130 196.457 L 257.549 200.621 L 257.077 201.180 L 253.544 205.426 L 253.097 205.972 L 249.613 210.294 L 249.190 210.828 L 245.757 215.222 L 245.355 215.745 L 241.975 220.206 L 241.593 220.717 L 238.265 225.240 L 237.902 225.740 L 234.629 230.320 L 234.283 230.811 L 231.065 235.442 L 230.735 235.924 L 227.573 240.602 L 227.258 241.075 L 224.154 245.796 L 223.852 246.260 L 220.807 251.018 L 220.518 251.476 L 217.533 256.266 L 217.255 256.717 L 214.331 261.534 L 214.065 261.979 L 211.203 266.818 L 210.946 267.258 L 208.148 272.115 L 207.900 272.551 L 205.167 277.419 L 204.927 277.852 L 202.260 282.728 L 202.028 283.158 L 199.428 288.036 L 199.203 288.464 L 196.671 293.339 L 196.452 293.766 L 193.990 298.634 L 193.777 299.061 L 191.385 303.917 L 191.177 304.345 L 188.857 309.183 L 188.654 309.612 L 186.407 314.428 L 186.208 314.860 L 184.036 319.648 L 183.840 320.085 L 181.743 324.841 L 181.551 325.282 L 179.530 330.001 L 179.341 330.449 L 177.398 335.125 L 177.211 335.582 L 175.347 340.211 L 175.162 340.677 L 173.378 345.254 L 173.195 345.732 L 171.492 350.251 L 171.310 350.743 L 169.690 355.200 L 169.509 355.707 L 167.973 360.097 L 167.792 360.622 L 166.340 364.940 L 166.161 365.487 L 164.795 369.727 L 164.615 370.298 L 163.336 374.457 L 163.157 375.055 L 161.967 379.127 L 161.787 379.757 L 160.686 383.737 L 160.507 384.404 L 159.497 388.287 L 159.319 388.997 L 158.400 392.778 L 158.223 393.537 L 157.397 397.211 L 157.222 398.027 L 156.491 401.590 L 156.319 402.472 L 155.683 405.918 L 155.517 406.878 L 154.978 410.202 L 154.820 411.253 L 154.379 414.451 L 154.234 415.609 L 153.892 418.675 L 153.767 419.960 L 153.524 422.890 L 153.429 424.326 L 153.287 427.114 L 153.235 428.730 L 153.196 431.372 L 153.192 432.288 L 153.206 433.204 L 153.271 435.694 L 153.311 436.741 L 153.375 437.786 L 153.545 440.120 L 153.648 441.322 L 153.784 442.522 L 154.060 444.694 L 154.187 445.621 L 154.334 446.544 L 154.500 447.465 L 154.883 449.471 L 155.101 450.544 L 155.346 451.611 L 155.616 452.672 L 156.107 454.507 L 156.263 455.066 L 154.357 460.764 L 154.088 461.595 L 152.258 467.438 L 152.007 468.266 L 150.283 474.169 L 150.050 474.995 L 148.432 480.953 L 148.217 481.778 L 146.706 487.789 L 146.508 488.611 L 145.106 494.670 L 144.924 495.490 L 143.631 501.595 L 143.465 502.413 L 142.282 508.560 L 142.132 509.376 L 141.059 515.561 L 140.926 516.375 L 139.964 522.594 L 139.846 523.407 L 138.996 529.656 L 138.893 530.468 L 138.155 536.744 L 138.068 537.554 L 137.443 543.853 L 137.370 544.662 L 136.858 550.980 L 136.800 551.788 L 136.401 558.122 L 136.358 558.929 L 136.073 565.274 L 136.044 566.081 L 135.873 572.433 L 135.859 573.240 L 135.802 579.597 L 135.802 580.403 L 135.859 586.760 L 135.873 587.567 L 136.044 593.919 L 136.073 594.726 L 136.358 601.071 L 136.401 601.878 L 136.800 608.212 L 136.858 609.020 L 137.370 615.338 L 137.443 616.147 L 138.068 622.446 L 138.155 623.256 L 138.893 629.532 L 138.996 630.344 L 139.846 636.593 L 139.964 637.406 L 140.926 643.625 L 141.059 644.439 L 142.132 650.624 L 142.282 651.440 L 143.465 657.587 L 143.631 658.405 L 144.924 664.510 L 145.106 665.330 L 146.508 671.389 L 146.706 672.211 L 148.217 678.222 L 148.432 679.047 L 150.050 685.005 L 150.283 685.831 L 152.007 691.734 L 152.258 692.562 L 154.088 698.405 L 154.357 699.236 L 156.291 705.015 L 156.579 705.849 L 158.615 711.562 L 158.923 712.398 L 161.061 718.040 L 161.389 718.879 L 163.628 724.447 L 163.976 725.288 L 166.314 730.780 L 166.683 731.623 L 169.119 737.035 L 169.510 737.880 L 172.042 743.208 L 172.456 744.055 L 175.083 749.297 L 175.519 750.146 L 178.240 755.297 L 178.700 756.147 L 181.512 761.206 L 181.997 762.057 L 184.899 767.020 L 185.409 767.872 L 188.399 772.736 L 188.936 773.588 L 192.012 778.350 L 192.576 779.202 L 195.737 783.859 L 196.329 784.710 L 199.571 789.260 L 200.192 790.110 L 203.516 794.549 L 204.166 795.396 L 207.568 799.723 L 208.249 800.567 L 211.727 804.778 L 212.439 805.618 L 215.992 809.711 L 216.736 810.546 L 220.361 814.518 L 221.138 815.348 L 224.833 819.197 L 225.643 820.019 L 229.406 823.742 L 230.250 824.556 L 234.079 828.152 L 234.958 828.956 L 238.850 832.422 L 239.764 833.214 L 243.717 836.549 L 244.667 837.328 L 248.679 840.529 L 249.664 841.293 L 253.733 844.358 L 254.754 845.106 L 258.876 848.033 L 259.934 848.762 L 264.107 851.550 L 265.201 852.259 L 269.423 854.906 L 270.554 855.592 L 274.822 858.096 L 275.987 858.757 L 280.299 861.117 L 281.500 861.752 L 285.853 863.966 L 287.088 864.571 L 291.479 866.639 L 292.747 867.213 L 297.174 869.132 L 298.475 869.672 L 302.934 871.443 L 304.265 871.947 L 308.756 873.567 L 310.115 874.033 L 314.633 875.502 L 316.020 875.928 L 320.563 877.245 L 321.975 877.629 L 326.540 878.793 L 327.974 879.133 L 332.559 880.143 L 334.013 880.439 L 338.614 881.294 L 340.086 881.542 L 344.701 882.243 L 346.187 882.443 L 350.813 882.989 L 352.310 883.140 L 356.945 883.530 L 358.450 883.631 L 363.091 883.865 L 364.601 883.916 L 369.244 883.994 L 370.756 883.994 L 375.399 883.916 L 376.909 883.865 L 381.550 883.631 L 383.055 883.530 L 387.690 883.140 L 389.187 882.989 L 393.813 882.443 L 395.299 882.243 L 399.914 881.542 L 401.386 881.294 L 405.987 880.439 L 407.441 880.143 L 412.026 879.133 L 413.460 878.793 L 418.025 877.629 L 419.437 877.245 L 423.980 875.928 L 425.367 875.502 L 429.885 874.033 L 431.244 873.567 L 435.735 871.947 L 437.066 871.443 L 441.525 869.672 L 442.826 869.132 L 447.253 867.213 L 448.521 866.639 L 452.912 864.571 L 454.147 863.966 L 458.500 861.752 L 459.701 861.117 L 464.013 858.757 L 465.178 858.096 L 469.446 855.592 L 470.577 854.906 L 474.799 852.259 L 475.893 851.550 L 480.066 848.762 L 481.124 848.033 L 485.246 845.106 L 486.267 844.358 L 490.336 841.293 L 491.321 840.529 L 495.333 837.328 L 496.283 836.549 L 500.236 833.214 L 501.150 832.422 L 505.042 828.956 L 505.921 828.152 L 509.750 824.556 L 510.594 823.742 L 514.357 820.019 L 515.167 819.197 L 518.862 815.348 L 519.639 814.518 L 523.264 810.546 L 524.008 809.711 L 527.561 805.618 L 528.273 804.778 L 531.751 800.567 L 532.432 799.723 L 535.834 795.396 L 536.484 794.549 L 539.808 790.110 L 540.429 789.260 L 543.671 784.710 L 544.263 783.859 L 547.424 779.202 L 547.988 778.350 L 551.064 773.588 L 551.601 772.736 L 554.591 767.872 L 555.101 767.020 L 558.003 762.057 L 558.488 761.206 L 561.300 756.147 L 561.760 755.297 L 564.481 750.146 L 564.917 749.297 L 567.544 744.055 L 567.958 743.208 L 570.490 737.880 L 570.881 737.035 L 573.317 731.623 L 573.686 730.780 L 576.024 725.288 L 576.372 724.447 L 578.611 718.879 L 578.939 718.040 L 581.077 712.398 L 581.385 711.562 L 583.421 705.849 L 583.709 705.015 L 585.643 699.236 L 585.912 698.405 L 587.742 692.562 L 587.993 691.734 L 589.717 685.831 L 589.950 685.005 L 591.568 679.047 L 591.783 678.222 L 593.294 672.211 L 593.492 671.389 L 594.894 665.330 L 595.076 664.510 L 596.369 658.405 L 596.535 657.587 L 597.718 651.440 L 597.868 650.624 L 598.941 644.439 L 599.074 643.625 L 600.036 637.406 L 600.154 636.593 L 601.004 630.344 L 601.107 629.532 L 601.845 623.256 L 601.932 622.446 L 602.557 616.147 L 602.630 615.338 L 603.142 609.020 L 603.200 608.212 L 603.599 601.878 L 603.642 601.071 L 603.927 594.726 L 603.956 593.919 L 604.127 587.567 L 604.141 586.760 L 604.198 580.403 L 604.198 579.597 L 604.141 573.240 L 604.127 572.433 L 603.956 566.081 L 603.927 565.274 L 603.642 558.929 L 603.599 558.122 L 603.200 551.788 L 603.142 550.980 L 602.630 544.662 L 602.557 543.853 L 601.932 537.554 L 601.845 536.744 L 601.107 530.468 L 601.004 529.656 L 600.154 523.407 L 600.036 522.594 L 599.074 516.375 L 598.941 515.561 L 597.868 509.376 L 597.718 508.560 L 596.535 502.413 L 596.369 501.595 L 595.076 495.490 L 594.894 494.670 L 593.492 488.611 L 593.294 487.789 L 591.783 481.778 L 591.568 480.953 L 589.950 474.995 L 589.717 474.169 L 587.993 468.266 L 587.742 467.438 L 585.912 461.595 L 585.643 460.764 L 583.709 454.985 L 583.421 454.151 L 581.385 448.438 L 581.077 447.602 L 578.939 441.960 L 578.611 441.121 L 576.372 435.553 L 576.024 434.712 L 573.686 429.220 L 573.317 428.377 L 570.881 422.965 L 570.490 422.120 L 567.958 416.792 L 567.544 415.945 L 564.917 410.703 L 564.481 409.854 L 561.760 404.703 L 561.300 403.853 L 558.488 398.794 L 558.003 397.943 L 555.101 392.980 L 554.591 392.128 L 551.601 387.264 L 551.064 386.412 L 547.988 381.650 L 547.424 380.798 L 544.263 376.141 L 543.671 375.290 L 540.429 370.740 L 539.808 369.890 L 536.484 365.451 L 535.834 364.604 L 532.432 360.277 L 531.751 359.433 L 528.273 355.222 L 527.561 354.382 L 524.008 350.289 L 523.264 349.454 L 519.639 345.482 L 518.862 344.652 L 515.167 340.803 L 514.357 339.981 L 510.594 336.258 L 509.750 335.444 L 505.921 331.848 L 505.042 331.044 L 501.150 327.578 L 500.236 326.786 L 496.283 323.451 L 495.333 322.672 L 491.321 319.471 L 490.336 318.707 L 486.267 315.642 L 485.246 314.894 L 481.124 311.967 L 480.066 311.238 L 475.893 308.450 L 474.799 307.741 L 470.577 305.094 L 469.446 304.408 L 465.178 301.904 L 464.013 301.243 L 459.701 298.883 L 458.500 298.248 L 454.147 296.034 L 452.912 295.429 L 448.521 293.361 L 447.253 292.787 L 442.826 290.868 L 441.525 290.328 L 437.066 288.557 L 435.735 288.053 L 431.244 286.433 L 429.885 285.967 L 425.367 284.498 L 423.980 284.072 L 419.437 282.755 L 418.025 282.371 L 413.460 281.207 L 412.026 280.867 L 407.441 279.857 L 405.987 279.561 L 401.386 278.706 L 399.914 278.458 L 395.299 277.757 L 393.813 277.557 L 389.187 277.011 L 387.690 276.860 L 383.055 276.470 L 381.550 276.369 L 376.909 276.135 L 375.399 276.084 L 370.756 276.006 L 369.244 276.006 L 364.601 276.084 L 363.091 276.135 L 358.450 276.369 L 356.945 276.470 L 352.310 276.860 L 350.813 277.011 L 346.187 277.557 L 344.701 277.757 L 340.086 278.458 L 338.614 278.706 L 334.013 279.561 L 332.559 279.857 L 327.974 280.867 L 326.540 281.207 L 321.975 282.371 L 320.563 282.755 L 316.020 284.072 L 314.633 284.498 L 310.115 285.967 L 308.756 286.433 L 304.265 288.053 L 304.084 288.122 L 305.141 286.558 Z M 513.746 584.687 L 513.214 583.720 L 512.658 582.765 L 512.078 581.825 L 511.476 580.899 L 510.851 579.989 L 510.204 579.094 L 509.536 578.215 L 508.845 577.352 L 508.134 576.507 L 507.403 575.680 L 506.651 574.871 L 505.880 574.080 L 505.089 573.309 L 504.280 572.557 L 503.453 571.826 L 502.608 571.115 L 501.745 570.424 L 500.866 569.756 L 499.971 569.109 L 499.061 568.484 L 498.135 567.882 L 497.195 567.302 L 496.240 566.746 L 495.273 566.214 L 494.293 565.705 L 493.300 565.220 L 492.296 564.761 L 491.281 564.325 L 490.255 563.915 L 489.220 563.531 L 488.176 563.171 L 487.123 562.838 L 486.062 562.530 L 484.994 562.249 L 483.920 561.993 L 482.839 561.765 L 481.753 561.563 L 480.663 561.387 L 479.568 561.238 L 478.471 561.117 L 477.370 561.022 L 476.268 560.954 L 475.164 560.914 L 474.060 560.900 L 398.380 560.900 L 397.276 560.914 L 396.172 560.954 L 395.070 561.022 L 393.969 561.117 L 392.872 561.238 L 391.777 561.387 L 390.687 561.563 L 389.601 561.765 L 388.520 561.993 L 387.446 562.249 L 386.378 562.530 L 385.317 562.838 L 384.264 563.171 L 383.220 563.531 L 382.185 563.915 L 381.159 564.325 L 380.144 564.761 L 379.140 565.220 L 378.147 565.705 L 377.167 566.214 L 376.200 566.746 L 375.245 567.302 L 374.305 567.882 L 373.379 568.484 L 372.469 569.109 L 371.574 569.756 L 370.695 570.424 L 369.832 571.115 L 368.987 571.826 L 368.160 572.557 L 367.351 573.309 L 366.560 574.080 L 365.789 574.871 L 365.037 575.680 L 364.306 576.507 L 363.595 577.352 L 362.904 578.215 L 362.236 579.094 L 361.589 579.989 L 360.964 580.899 L 360.362 581.825 L 359.782 582.765 L 359.226 583.720 L 358.694 584.687 L 358.185 585.667 L 357.700 586.660 L 357.241 587.664 L 356.805 588.679 L 356.395 589.705 L 356.011 590.740 L 355.651 591.784 L 355.318 592.837 L 355.010 593.898 L 354.729 594.966 L 354.473 596.040 L 354.245 597.121 L 354.043 598.207 L 353.867 599.297 L 353.718 600.392 L 353.597 601.489 L 353.502 602.590 L 353.434 603.692 L 353.394 604.796 L 353.380 605.900 L 353.394 607.004 L 353.434 608.108 L 353.502 609.210 L 353.597 610.311 L 353.718 611.408 L 353.867 612.503 L 354.043 613.593 L 354.245 614.679 L 354.473 615.760 L 354.729 616.834 L 355.010 617.902 L 355.318 618.963 L 355.651 620.016 L 356.011 621.060 L 356.395 622.095 L 356.805 623.121 L 357.241 624.136 L 357.700 625.140 L 358.185 626.133 L 358.694 627.113 L 359.226 628.080 L 359.782 629.035 L 360.362 629.975 L 360.964 630.901 L 361.589 631.811 L 362.236 632.706 L 362.904 633.585 L 363.595 634.448 L 364.306 635.293 L 365.037 636.120 L 365.789 636.929 L 366.560 637.720 L 367.351 638.491 L 368.160 639.243 L 368.987 639.974 L 369.832 640.685 L 370.695 641.376 L 371.574 642.044 L 372.469 642.691 L 373.379 643.316 L 374.305 643.918 L 375.245 644.498 L 376.200 645.054 L 377.167 645.586 L 378.147 646.095 L 379.140 646.580 L 380.144 647.039 L 381.159 647.475 L 382.185 647.885 L 383.220 648.269 L 384.264 648.629 L 385.317 648.962 L 386.378 649.270 L 387.446 649.551 L 388.520 649.807 L 389.601 650.035 L 390.687 650.237 L 391.777 650.413 L 392.872 650.562 L 393.969 650.683 L 395.070 650.778 L 396.172 650.846 L 397.276 650.886 L 398.380 650.900 L 474.060 650.900 L 475.164 650.886 L 476.268 650.846 L 477.370 650.778 L 478.471 650.683 L 479.568 650.562 L 480.663 650.413 L 481.753 650.237 L 482.839 650.035 L 483.920 649.807 L 484.994 649.551 L 486.062 649.270 L 487.123 648.962 L 488.176 648.629 L 489.220 648.269 L 490.255 647.885 L 491.281 647.475 L 492.296 647.039 L 493.300 646.580 L 494.293 646.095 L 495.273 645.586 L 496.240 645.054 L 497.195 644.498 L 498.135 643.918 L 499.061 643.316 L 499.971 642.691 L 500.866 642.044 L 501.745 641.376 L 502.608 640.685 L 503.453 639.974 L 504.280 639.243 L 505.089 638.491 L 505.880 637.720 L 506.651 636.929 L 507.403 636.120 L 508.134 635.293 L 508.845 634.448 L 509.464 633.675 L 509.263 634.831 L 508.237 640.161 L 507.117 645.447 L 505.905 650.686 L 504.601 655.873 L 503.207 661.006 L 501.725 666.081 L 500.155 671.093 L 498.500 676.040 L 496.761 680.917 L 494.940 685.722 L 493.039 690.452 L 491.059 695.102 L 489.003 699.669 L 486.873 704.151 L 484.671 708.545 L 482.399 712.847 L 480.060 717.055 L 477.657 721.167 L 475.191 725.178 L 472.665 729.088 L 470.083 732.894 L 467.446 736.593 L 464.758 740.183 L 462.021 743.664 L 459.239 747.032 L 456.413 750.286 L 453.548 753.426 L 450.645 756.449 L 447.709 759.354 L 444.741 762.141 L 441.745 764.810 L 438.723 767.358 L 435.679 769.787 L 432.615 772.096 L 429.533 774.285 L 426.436 776.354 L 423.327 778.304 L 420.207 780.134 L 417.079 781.847 L 413.945 783.442 L 410.806 784.920 L 407.664 786.282 L 404.520 787.531 L 401.376 788.665 L 398.231 789.687 L 395.088 790.598 L 391.946 791.399 L 388.806 792.091 L 385.668 792.674 L 382.532 793.150 L 379.397 793.520 L 376.264 793.783 L 373.132 793.941 L 370.000 793.994 L 366.868 793.941 L 363.736 793.783 L 360.603 793.520 L 357.468 793.150 L 354.332 792.674 L 351.194 792.091 L 348.054 791.399 L 344.912 790.598 L 341.769 789.687 L 338.624 788.665 L 335.480 787.531 L 332.336 786.282 L 329.194 784.920 L 326.055 783.442 L 322.921 781.847 L 319.793 780.134 L 316.673 778.304 L 313.564 776.354 L 310.467 774.285 L 307.385 772.096 L 304.321 769.787 L 301.277 767.358 L 298.255 764.810 L 295.259 762.141 L 292.291 759.354 L 289.355 756.449 L 286.452 753.426 L 283.587 750.286 L 280.761 747.032 L 277.979 743.664 L 275.242 740.183 L 272.554 736.593 L 269.917 732.894 L 267.335 729.088 L 264.809 725.178 L 262.343 721.167 L 259.940 717.055 L 257.601 712.847 L 255.329 708.545 L 253.127 704.151 L 250.997 699.669 L 248.941 695.102 L 246.961 690.452 L 245.060 685.722 L 243.239 680.917 L 241.500 676.040 L 239.845 671.093 L 238.275 666.081 L 236.793 661.006 L 235.399 655.873 L 234.095 650.686 L 232.883 645.447 L 231.763 640.161 L 230.737 634.831 L 229.805 629.462 L 228.970 624.057 L 228.230 618.620 L 227.588 613.155 L 227.043 607.666 L 226.597 602.157 L 226.249 596.632 L 226.001 591.094 L 225.852 585.549 L 225.802 580.000 L 225.852 574.451 L 226.001 568.906 L 226.249 563.368 L 226.597 557.843 L 227.043 552.334 L 227.588 546.845 L 228.230 541.380 L 228.970 535.943 L 229.805 530.538 L 230.737 525.169 L 231.763 519.839 L 232.883 514.553 L 234.095 509.314 L 235.399 504.127 L 236.793 498.994 L 238.275 493.919 L 239.845 488.907 L 241.500 483.960 L 243.239 479.083 L 245.060 474.278 L 246.961 469.548 L 248.941 464.898 L 250.997 460.331 L 253.127 455.849 L 255.329 451.455 L 257.601 447.153 L 259.940 442.945 L 262.343 438.833 L 264.809 434.822 L 267.335 430.912 L 269.917 427.106 L 272.554 423.407 L 275.242 419.817 L 277.979 416.336 L 280.761 412.968 L 283.587 409.714 L 286.452 406.574 L 289.355 403.551 L 292.291 400.646 L 295.259 397.859 L 298.255 395.190 L 301.277 392.642 L 304.321 390.213 L 307.385 387.904 L 310.467 385.715 L 313.564 383.646 L 316.673 381.696 L 319.793 379.866 L 322.921 378.153 L 326.055 376.558 L 329.194 375.080 L 332.336 373.718 L 335.480 372.469 L 338.624 371.335 L 341.769 370.313 L 344.912 369.402 L 348.054 368.601 L 351.194 367.909 L 354.332 367.326 L 357.468 366.850 L 360.603 366.480 L 363.736 366.217 L 366.868 366.059 L 370.000 366.006 L 373.132 366.059 L 376.264 366.217 L 379.397 366.480 L 382.532 366.850 L 385.668 367.326 L 388.806 367.909 L 391.946 368.601 L 395.088 369.402 L 398.231 370.313 L 401.376 371.335 L 404.520 372.469 L 407.664 373.718 L 410.806 375.080 L 413.945 376.558 L 417.079 378.153 L 420.207 379.866 L 423.327 381.696 L 426.436 383.646 L 429.533 385.715 L 432.615 387.904 L 435.679 390.213 L 438.723 392.642 L 441.745 395.190 L 444.741 397.859 L 447.709 400.646 L 450.645 403.551 L 453.548 406.574 L 456.413 409.714 L 459.239 412.968 L 462.021 416.336 L 464.758 419.817 L 467.446 423.407 L 470.083 427.106 L 472.665 430.912 L 475.191 434.822 L 477.657 438.833 L 480.060 442.945 L 482.399 447.153 L 484.671 451.455 L 486.873 455.849 L 489.003 460.331 L 491.059 464.898 L 493.039 469.548 L 494.940 474.278 L 496.761 479.083 L 498.500 483.960 L 500.155 488.907 L 501.725 493.919 L 503.207 498.994 L 504.601 504.127 L 505.905 509.314 L 507.117 514.553 L 508.237 519.839 L 509.263 525.169 L 510.195 530.538 L 511.030 535.943 L 511.770 541.380 L 512.412 546.845 L 512.957 552.334 L 513.403 557.843 L 513.751 563.368 L 513.999 568.906 L 514.148 574.451 L 514.198 580.000 L 514.149 585.463 L 513.746 584.687 Z" fill="black" fill-rule="evenodd"/>
</svg>
