<svg xmlns="http://www.w3.org/2000/svg" viewBox="0 0 700.000 1000" width="700.000" height="1000">
  <path d="M 425.000 59.859 L 424.992 59.377 L 424.986 58.896 L 424.984 58.825 L 424.983 58.754 L 424.964 58.273 L 424.946 57.792 L 424.941 57.721 L 424.939 57.651 L 424.908 57.170 L 424.878 56.690 L 424.872 56.619 L 424.867 56.549 L 424.825 56.069 L 424.783 55.589 L 424.776 55.519 L 424.769 55.449 L 424.715 54.970 L 424.662 54.492 L 424.652 54.421 L 424.644 54.351 L 424.578 53.874 L 424.513 53.397 L 424.502 53.327 L 424.492 53.257 L 424.414 52.782 L 424.337 52.307 L 424.325 52.237 L 424.313 52.167 L 424.223 51.694 L 424.135 51.221 L 424.121 51.152 L 424.108 51.082 L 424.006 50.612 L 423.907 50.140 L 423.890 50.072 L 423.875 50.003 L 423.763 49.534 L 423.651 49.066 L 423.633 48.998 L 423.617 48.929 L 423.493 48.464 L 423.370 47.998 L 423.350 47.930 L 423.332 47.862 L 423.196 47.400 L 423.062 46.937 L 423.041 46.870 L 423.021 46.802 L 422.874 46.343 L 422.729 45.884 L 422.706 45.817 L 422.684 45.750 L 422.526 45.295 L 422.369 44.840 L 422.345 44.774 L 422.322 44.707 L 422.152 44.256 L 421.985 43.805 L 421.958 43.739 L 421.934 43.673 L 421.753 43.226 L 421.575 42.779 L 421.547 42.714 L 421.520 42.649 L 421.329 42.207 L 421.139 41.764 L 421.110 41.700 L 421.082 41.635 L 420.880 41.198 L 420.680 40.760 L 420.649 40.697 L 420.619 40.632 L 420.406 40.200 L 420.195 39.767 L 420.163 39.705 L 420.131 39.641 L 419.908 39.215 L 419.686 38.787 L 419.652 38.725 L 419.620 38.663 L 419.386 38.241 L 419.154 37.820 L 419.118 37.759 L 419.084 37.697 L 418.840 37.281 L 418.598 36.865 L 418.561 36.805 L 418.525 36.744 L 418.271 36.335 L 418.018 35.925 L 417.980 35.866 L 417.943 35.806 L 417.679 35.403 L 417.416 34.999 L 417.376 34.941 L 417.337 34.882 L 417.064 34.486 L 416.791 34.089 L 416.750 34.031 L 416.710 33.973 L 416.426 33.584 L 416.144 33.194 L 416.102 33.137 L 416.060 33.080 L 415.767 32.698 L 415.476 32.315 L 415.431 32.259 L 415.388 32.203 L 415.086 31.828 L 414.785 31.452 L 414.740 31.398 L 414.696 31.343 L 414.384 30.976 L 414.074 30.607 L 414.028 30.554 L 413.982 30.500 L 413.662 30.141 L 413.343 29.780 L 413.295 29.728 L 413.248 29.675 L 412.919 29.323 L 412.591 28.971 L 412.542 28.920 L 412.494 28.868 L 412.156 28.525 L 411.820 28.180 L 411.769 28.131 L 411.720 28.080 L 411.374 27.745 L 411.029 27.409 L 410.978 27.361 L 410.927 27.312 L 410.573 26.985 L 410.220 26.657 L 410.167 26.610 L 410.115 26.562 L 409.754 26.245 L 409.393 25.926 L 409.339 25.880 L 409.286 25.833 L 408.916 25.525 L 408.548 25.215 L 408.493 25.170 L 408.438 25.125 L 408.061 24.825 L 407.685 24.524 L 407.629 24.482 L 407.574 24.438 L 407.190 24.147 L 406.806 23.856 L 406.749 23.814 L 406.693 23.772 L 406.302 23.491 L 405.911 23.209 L 405.853 23.169 L 405.796 23.127 L 405.398 22.856 L 405.001 22.584 L 404.941 22.545 L 404.883 22.506 L 404.479 22.244 L 404.075 21.982 L 404.015 21.945 L 403.955 21.906 L 403.545 21.655 L 403.135 21.402 L 403.074 21.367 L 403.013 21.330 L 402.596 21.089 L 402.180 20.846 L 402.119 20.812 L 402.057 20.777 L 401.635 20.546 L 401.213 20.314 L 401.150 20.281 L 401.088 20.247 L 400.660 20.027 L 400.233 19.805 L 400.169 19.774 L 400.106 19.742 L 399.673 19.532 L 399.240 19.320 L 399.176 19.291 L 399.112 19.260 L 398.674 19.061 L 398.236 18.861 L 398.171 18.833 L 398.107 18.803 L 397.663 18.615 L 397.221 18.425 L 397.155 18.399 L 397.090 18.372 L 396.642 18.194 L 396.195 18.015 L 396.129 17.991 L 396.063 17.965 L 395.611 17.798 L 395.160 17.631 L 395.093 17.608 L 395.027 17.583 L 394.571 17.428 L 394.116 17.271 L 394.048 17.250 L 393.981 17.227 L 393.522 17.083 L 393.063 16.938 L 392.995 16.918 L 392.927 16.897 L 392.465 16.764 L 392.002 16.630 L 391.934 16.612 L 391.866 16.593 L 391.400 16.471 L 390.934 16.349 L 390.865 16.332 L 390.797 16.314 L 390.328 16.205 L 389.860 16.093 L 389.790 16.079 L 389.722 16.063 L 389.250 15.964 L 388.779 15.865 L 388.710 15.852 L 388.640 15.837 L 388.167 15.751 L 387.693 15.663 L 387.624 15.651 L 387.554 15.639 L 387.078 15.564 L 386.603 15.487 L 386.533 15.478 L 386.463 15.467 L 385.986 15.403 L 385.508 15.338 L 385.438 15.331 L 385.368 15.321 L 384.889 15.270 L 384.411 15.217 L 384.340 15.211 L 384.270 15.203 L 383.790 15.163 L 383.310 15.122 L 383.240 15.118 L 383.169 15.112 L 382.689 15.084 L 382.208 15.054 L 382.137 15.052 L 382.067 15.047 L 381.586 15.031 L 381.104 15.014 L 381.034 15.013 L 380.963 15.010 L 380.482 15.006 L 380.000 15.000 L 379.929 15.001 L 379.859 15.000 L 379.377 15.008 L 378.896 15.014 L 378.825 15.016 L 378.754 15.017 L 378.273 15.036 L 377.792 15.054 L 377.721 15.059 L 377.651 15.061 L 377.170 15.092 L 376.690 15.122 L 376.619 15.128 L 376.549 15.133 L 376.069 15.175 L 375.589 15.217 L 375.519 15.224 L 375.449 15.231 L 374.970 15.285 L 374.492 15.338 L 374.421 15.348 L 374.351 15.356 L 373.874 15.422 L 373.397 15.487 L 373.327 15.498 L 373.257 15.508 L 372.782 15.586 L 372.307 15.663 L 372.237 15.675 L 372.167 15.687 L 371.694 15.777 L 371.221 15.865 L 371.152 15.879 L 371.082 15.892 L 370.612 15.994 L 370.140 16.093 L 370.072 16.110 L 370.003 16.125 L 369.534 16.237 L 369.066 16.349 L 368.998 16.367 L 368.929 16.383 L 368.464 16.507 L 367.998 16.630 L 367.930 16.650 L 367.862 16.668 L 367.400 16.804 L 366.937 16.938 L 366.870 16.959 L 366.802 16.979 L 366.343 17.126 L 365.884 17.271 L 365.817 17.294 L 365.750 17.316 L 365.295 17.474 L 364.840 17.631 L 364.774 17.655 L 364.707 17.678 L 364.256 17.848 L 363.805 18.015 L 363.739 18.042 L 363.673 18.066 L 363.226 18.247 L 362.779 18.425 L 362.714 18.453 L 362.649 18.480 L 362.207 18.671 L 361.764 18.861 L 361.700 18.890 L 361.635 18.918 L 361.198 19.120 L 360.760 19.320 L 360.697 19.351 L 360.632 19.381 L 360.200 19.594 L 359.767 19.805 L 359.705 19.837 L 359.641 19.869 L 359.215 20.092 L 358.787 20.314 L 358.725 20.348 L 358.663 20.380 L 358.241 20.614 L 357.820 20.846 L 357.759 20.882 L 357.697 20.916 L 357.281 21.160 L 356.865 21.402 L 356.805 21.439 L 356.744 21.475 L 356.335 21.729 L 355.925 21.982 L 355.866 22.020 L 355.806 22.057 L 355.403 22.321 L 354.999 22.584 L 354.941 22.624 L 354.882 22.663 L 354.486 22.936 L 354.089 23.209 L 354.031 23.250 L 353.973 23.290 L 353.584 23.574 L 353.194 23.856 L 353.137 23.898 L 353.080 23.940 L 352.698 24.233 L 352.315 24.524 L 352.259 24.569 L 352.203 24.612 L 351.828 24.914 L 351.452 25.215 L 351.398 25.260 L 351.343 25.304 L 350.976 25.616 L 350.607 25.926 L 350.554 25.972 L 350.500 26.018 L 350.141 26.338 L 349.780 26.657 L 349.728 26.705 L 349.675 26.752 L 349.323 27.081 L 348.971 27.409 L 348.920 27.458 L 348.868 27.506 L 348.525 27.844 L 348.180 28.180 L 348.131 28.231 L 348.080 28.280 L 347.745 28.626 L 347.409 28.971 L 347.361 29.022 L 347.312 29.073 L 346.985 29.427 L 346.657 29.780 L 346.610 29.833 L 346.562 29.885 L 346.245 30.246 L 345.926 30.607 L 345.880 30.661 L 345.833 30.714 L 285.833 100.714 L 285.125 101.562 L 284.438 102.426 L 283.772 103.307 L 283.127 104.204 L 282.506 105.117 L 281.906 106.045 L 281.330 106.987 L 280.777 107.943 L 280.247 108.912 L 279.742 109.894 L 279.260 110.888 L 278.803 111.893 L 278.372 112.910 L 277.965 113.937 L 277.583 114.973 L 277.227 116.019 L 276.897 117.073 L 276.593 118.134 L 276.314 119.203 L 276.063 120.278 L 275.837 121.360 L 275.639 122.446 L 275.467 123.537 L 275.321 124.632 L 275.203 125.730 L 275.112 126.831 L 275.047 127.933 L 275.010 129.037 L 275.000 130.141 L 275.017 131.246 L 275.061 132.349 L 275.133 133.451 L 275.231 134.551 L 275.356 135.649 L 275.508 136.743 L 275.687 137.833 L 275.892 138.918 L 276.125 139.997 L 276.383 141.071 L 276.668 142.138 L 276.979 143.198 L 277.316 144.250 L 277.678 145.293 L 278.066 146.327 L 278.480 147.351 L 278.918 148.365 L 279.381 149.368 L 279.869 150.359 L 280.380 151.337 L 280.916 152.303 L 281.475 153.256 L 282.057 154.194 L 282.663 155.118 L 283.290 156.027 L 283.940 156.920 L 284.612 157.797 L 285.304 158.657 L 286.018 159.500 L 286.752 160.325 L 287.506 161.132 L 288.280 161.920 L 289.073 162.688 L 289.885 163.438 L 290.714 164.167 L 291.562 164.875 L 292.426 165.562 L 293.307 166.228 L 294.204 166.873 L 295.117 167.494 L 296.045 168.094 L 296.987 168.670 L 297.943 169.223 L 298.912 169.753 L 299.894 170.258 L 300.888 170.740 L 301.893 171.197 L 302.910 171.628 L 303.937 172.035 L 304.973 172.417 L 306.019 172.773 L 307.073 173.103 L 308.134 173.407 L 309.203 173.686 L 310.278 173.937 L 311.360 174.163 L 312.446 174.361 L 313.537 174.533 L 314.632 174.679 L 315.730 174.797 L 316.831 174.888 L 317.933 174.953 L 319.037 174.990 L 320.141 175.000 L 321.246 174.983 L 322.349 174.939 L 323.451 174.867 L 324.551 174.769 L 325.649 174.644 L 326.743 174.492 L 327.833 174.313 L 328.918 174.108 L 329.997 173.875 L 331.071 173.617 L 332.138 173.332 L 333.198 173.021 L 334.250 172.684 L 335.000 172.424 L 335.000 735.000 L 270.000 735.000 L 268.896 735.014 L 267.792 735.054 L 266.690 735.122 L 265.589 735.217 L 264.492 735.338 L 263.397 735.487 L 262.307 735.663 L 261.221 735.865 L 260.140 736.093 L 259.066 736.349 L 257.998 736.630 L 256.937 736.938 L 255.884 737.271 L 254.840 737.631 L 253.805 738.015 L 252.779 738.425 L 251.764 738.861 L 250.760 739.320 L 249.767 739.805 L 248.787 740.314 L 247.820 740.846 L 246.865 741.402 L 245.925 741.982 L 244.999 742.584 L 244.089 743.209 L 243.194 743.856 L 242.315 744.524 L 241.452 745.215 L 240.607 745.926 L 239.780 746.657 L 238.971 747.409 L 238.180 748.180 L 237.409 748.971 L 236.657 749.780 L 235.926 750.607 L 235.215 751.452 L 234.524 752.315 L 233.856 753.194 L 233.209 754.089 L 232.584 754.999 L 231.982 755.925 L 231.402 756.865 L 230.846 757.820 L 230.314 758.787 L 229.805 759.767 L 229.320 760.760 L 228.861 761.764 L 228.425 762.779 L 228.015 763.805 L 227.631 764.840 L 227.271 765.884 L 226.938 766.937 L 226.630 767.998 L 226.349 769.066 L 226.093 770.140 L 225.865 771.221 L 225.663 772.307 L 225.487 773.397 L 225.338 774.492 L 225.217 775.589 L 225.122 776.690 L 225.054 777.792 L 225.014 778.896 L 225.000 780.000 L 225.014 781.104 L 225.054 782.208 L 225.122 783.310 L 225.217 784.411 L 225.338 785.508 L 225.487 786.603 L 225.663 787.693 L 225.865 788.779 L 226.093 789.860 L 226.349 790.934 L 226.630 792.002 L 226.938 793.063 L 227.271 794.116 L 227.631 795.160 L 228.015 796.195 L 228.425 797.221 L 228.861 798.236 L 229.320 799.240 L 229.805 800.233 L 230.314 801.213 L 230.846 802.180 L 231.402 803.135 L 231.982 804.075 L 232.584 805.001 L 233.209 805.911 L 233.856 806.806 L 234.524 807.685 L 235.215 808.548 L 235.926 809.393 L 236.657 810.220 L 237.409 811.029 L 238.180 811.820 L 238.971 812.591 L 239.780 813.343 L 240.607 814.074 L 241.452 814.785 L 242.315 815.476 L 243.194 816.144 L 244.089 816.791 L 244.999 817.416 L 245.925 818.018 L 246.865 818.598 L 247.820 819.154 L 248.787 819.686 L 249.767 820.195 L 250.760 820.680 L 251.764 821.139 L 252.779 821.575 L 253.805 821.985 L 254.840 822.369 L 255.884 822.729 L 256.937 823.062 L 257.998 823.370 L 259.066 823.651 L 260.140 823.907 L 261.221 824.135 L 262.307 824.337 L 263.397 824.513 L 264.492 824.662 L 265.589 824.783 L 266.690 824.878 L 267.792 824.946 L 268.896 824.986 L 270.000 825.000 L 380.000 825.000 L 470.000 825.000 L 471.104 824.986 L 472.208 824.946 L 473.310 824.878 L 474.411 824.783 L 475.508 824.662 L 476.603 824.513 L 477.693 824.337 L 478.779 824.135 L 479.860 823.907 L 480.934 823.651 L 482.002 823.370 L 483.063 823.062 L 484.116 822.729 L 485.160 822.369 L 486.195 821.985 L 487.221 821.575 L 488.236 821.139 L 489.240 820.680 L 490.233 820.195 L 491.213 819.686 L 492.180 819.154 L 493.135 818.598 L 494.075 818.018 L 495.001 817.416 L 495.911 816.791 L 496.806 816.144 L 497.685 815.476 L 498.548 814.785 L 499.393 814.074 L 500.220 813.343 L 501.029 812.591 L 501.820 811.820 L 502.591 811.029 L 503.343 810.220 L 504.074 809.393 L 504.785 808.548 L 505.476 807.685 L 506.144 806.806 L 506.791 805.911 L 507.416 805.001 L 508.018 804.075 L 508.598 803.135 L 509.154 802.180 L 509.686 801.213 L 510.195 800.233 L 510.680 799.240 L 511.139 798.236 L 511.575 797.221 L 511.985 796.195 L 512.369 795.160 L 512.729 794.116 L 513.062 793.063 L 513.370 792.002 L 513.651 790.934 L 513.907 789.860 L 514.135 788.779 L 514.337 787.693 L 514.513 786.603 L 514.662 785.508 L 514.783 784.411 L 514.878 783.310 L 514.946 782.208 L 514.986 781.104 L 515.000 780.000 L 514.986 778.896 L 514.946 777.792 L 514.878 776.690 L 514.783 775.589 L 514.662 774.492 L 514.513 773.397 L 514.337 772.307 L 514.135 771.221 L 513.907 770.140 L 513.651 769.066 L 513.370 767.998 L 513.062 766.937 L 512.729 765.884 L 512.369 764.840 L 511.985 763.805 L 511.575 762.779 L 511.139 761.764 L 510.680 760.760 L 510.195 759.767 L 509.686 758.787 L 509.154 757.820 L 508.598 756.865 L 508.018 755.925 L 507.416 754.999 L 506.791 754.089 L 506.144 753.194 L 505.476 752.315 L 504.785 751.452 L 504.074 750.607 L 503.343 749.780 L 502.591 748.971 L 501.820 748.180 L 501.029 747.409 L 500.220 746.657 L 499.393 745.926 L 498.548 745.215 L 497.685 744.524 L 496.806 743.856 L 495.911 743.209 L 495.001 742.584 L 494.075 741.982 L 493.135 741.402 L 492.180 740.846 L 491.213 740.314 L 490.233 739.805 L 489.240 739.320 L 488.236 738.861 L 487.221 738.425 L 486.195 738.015 L 485.160 737.631 L 484.116 737.271 L 483.063 736.938 L 482.002 736.630 L 480.934 736.349 L 479.860 736.093 L 478.779 735.865 L 477.693 735.663 L 476.603 735.487 L 475.508 735.338 L 474.411 735.217 L 473.310 735.122 L 472.208 735.054 L 471.104 735.014 L 470.000 735.000 L 425.000 735.000 L 425.000 60.000 L 424.999 59.929 L 425.000 59.859 Z" fill="black" fill-rule="evenodd"/>
</svg>
