<svg xmlns="http://www.w3.org/2000/svg" viewBox="0 0 700.000 1000.000">
  <path d="M 45.014,39.424 L 45.015,38.848 L 45.041,38.320 L 45.054,37.792 L 45.097,37.218 L 45.125,36.642 L 45.178,36.116 L 45.217,35.589 L 45.287,35.018 L 45.344,34.444 L 45.422,33.922 L 45.487,33.397 L 45.586,32.830 L 45.671,32.260 L 45.774,31.742 L 45.865,31.221 L 45.991,30.659 L 46.104,30.094 L 46.233,29.582 L 46.349,29.066 L 46.502,28.511 L 46.643,27.952 L 46.797,27.447 L 46.938,26.937 L 47.118,26.390 L 47.286,25.839 L 47.465,25.342 L 47.631,24.840 L 47.838,24.303 L 48.032,23.760 L 48.235,23.272 L 48.425,22.779 L 48.659,22.253 L 48.880,21.721 L 49.106,21.243 L 49.320,20.760 L 49.579,20.246 L 49.826,19.725 L 50.076,19.259 L 50.314,18.787 L 50.597,18.286 L 50.870,17.778 L 51.142,17.325 L 51.402,16.865 L 51.710,16.379 L 52.007,15.885 L 52.301,15.446 L 52.584,14.999 L 52.916,14.528 L 53.236,14.050 L 53.551,13.626 L 53.856,13.194 L 54.210,12.739 L 54.554,12.277 L 54.889,11.869 L 55.215,11.452 L 55.591,11.016 L 55.957,10.571 L 56.312,10.180 L 56.657,9.780 L 57.054,9.363 L 57.442,8.936 L 57.816,8.563 L 58.180,8.180 L 58.597,7.783 L 59.005,7.376 L 59.397,7.022 L 59.780,6.657 L 60.216,6.281 L 60.643,5.895 L 61.052,5.560 L 61.452,5.215 L 61.906,4.860 L 62.352,4.495 L 62.777,4.181 L 63.194,3.856 L 63.664,3.524 L 64.127,3.181 L 64.567,2.888 L 64.999,2.584 L 65.486,2.276 L 65.965,1.956 L 66.419,1.685 L 66.865,1.402 L 67.367,1.118 L 67.861,0.823 L 68.327,0.574 L 68.787,0.314 L 69.302,0.055 L 69.810,-0.216 L 70.288,-0.442 L 70.760,-0.680 L 71.287,-0.913 L 71.808,-1.159 L 72.296,-1.360 L 72.779,-1.575 L 73.317,-1.782 L 73.849,-2.002 L 74.347,-2.179 L 74.840,-2.369 L 75.387,-2.550 L 75.929,-2.744 L 76.435,-2.897 L 76.937,-3.062 L 77.492,-3.216 L 78.044,-3.383 L 78.557,-3.510 L 79.066,-3.651 L 79.628,-3.778 L 80.187,-3.917 L 80.705,-4.020 L 81.221,-4.135 L 81.788,-4.234 L 82.353,-4.346 L 82.876,-4.423 L 83.397,-4.513 L 83.969,-4.583 L 84.539,-4.667 L 85.065,-4.719 L 85.589,-4.783 L 86.164,-4.826 L 86.737,-4.882 L 87.265,-4.907 L 87.792,-4.946 L 88.368,-4.960 L 88.943,-4.988 L 89.472,-4.987 L 90.000,-5.000 L 90.576,-4.986 L 91.152,-4.985 L 91.680,-4.959 L 92.208,-4.946 L 92.782,-4.903 L 93.358,-4.875 L 93.884,-4.822 L 94.411,-4.783 L 94.982,-4.713 L 95.556,-4.656 L 96.078,-4.578 L 96.603,-4.513 L 97.170,-4.414 L 97.740,-4.329 L 98.258,-4.226 L 98.779,-4.135 L 99.341,-4.009 L 99.906,-3.896 L 100.418,-3.767 L 100.934,-3.651 L 101.489,-3.498 L 102.048,-3.357 L 102.553,-3.203 L 103.063,-3.062 L 103.610,-2.882 L 104.161,-2.714 L 104.658,-2.535 L 105.160,-2.369 L 105.697,-2.162 L 106.240,-1.968 L 106.728,-1.765 L 107.221,-1.575 L 107.747,-1.341 L 108.279,-1.120 L 108.757,-0.894 L 109.240,-0.680 L 109.754,-0.421 L 110.275,-0.174 L 110.741,0.076 L 111.213,0.314 L 111.714,0.597 L 112.222,0.870 L 112.675,1.142 L 113.135,1.402 L 113.621,1.710 L 114.115,2.007 L 114.554,2.301 L 115.001,2.584 L 115.472,2.916 L 115.950,3.236 L 116.374,3.551 L 116.806,3.856 L 117.261,4.210 L 117.723,4.554 L 118.131,4.889 L 118.548,5.215 L 118.984,5.591 L 119.429,5.957 L 119.820,6.312 L 120.220,6.657 L 120.637,7.054 L 121.064,7.442 L 121.437,7.816 L 121.820,8.180 L 122.217,8.597 L 122.624,9.005 L 122.978,9.397 L 123.343,9.780 L 123.719,10.216 L 124.105,10.643 L 124.440,11.052 L 124.785,11.452 L 125.140,11.906 L 125.505,12.352 L 125.819,12.777 L 126.144,13.194 L 126.476,13.664 L 126.819,14.127 L 565.000,637.693 L 565.000,40.000 L 565.054,37.792 L 565.217,35.589 L 565.487,33.397 L 565.865,31.221 L 566.349,29.066 L 566.938,26.937 L 567.631,24.840 L 568.425,22.779 L 569.320,20.760 L 570.314,18.787 L 571.402,16.865 L 572.584,14.999 L 573.856,13.194 L 575.215,11.452 L 576.657,9.780 L 578.180,8.180 L 579.780,6.657 L 581.452,5.215 L 583.194,3.856 L 584.999,2.584 L 586.865,1.402 L 588.787,0.314 L 590.760,-0.680 L 592.779,-1.575 L 594.840,-2.369 L 596.937,-3.062 L 599.066,-3.651 L 601.221,-4.135 L 603.397,-4.513 L 605.589,-4.783 L 607.792,-4.946 L 610.000,-5.000 L 612.208,-4.946 L 614.411,-4.783 L 616.603,-4.513 L 618.779,-4.135 L 620.934,-3.651 L 623.063,-3.062 L 625.160,-2.369 L 627.221,-1.575 L 629.240,-0.680 L 631.213,0.314 L 633.135,1.402 L 635.001,2.584 L 636.806,3.856 L 638.548,5.215 L 640.220,6.657 L 641.820,8.180 L 643.343,9.780 L 644.785,11.452 L 646.144,13.194 L 647.416,14.999 L 648.598,16.865 L 649.686,18.787 L 650.680,20.760 L 651.575,22.779 L 652.369,24.840 L 653.062,26.937 L 653.651,29.066 L 654.135,31.221 L 654.513,33.397 L 654.783,35.589 L 654.946,37.792 L 655.000,40.000 L 655.000,780.000 L 654.986,780.576 L 654.985,781.152 L 654.959,781.680 L 654.946,782.208 L 654.903,782.782 L 654.875,783.358 L 654.822,783.884 L 654.783,784.411 L 654.713,784.982 L 654.656,785.556 L 654.578,786.078 L 654.513,786.603 L 654.414,787.170 L 654.329,787.740 L 654.226,788.258 L 654.135,788.779 L 654.009,789.341 L 653.896,789.906 L 653.767,790.418 L 653.651,790.934 L 653.498,791.489 L 653.357,792.048 L 653.203,792.553 L 653.062,793.063 L 652.882,793.610 L 652.714,794.161 L 652.535,794.658 L 652.369,795.160 L 652.162,795.697 L 651.968,796.240 L 651.765,796.728 L 651.575,797.221 L 651.341,797.747 L 651.120,798.279 L 650.894,798.757 L 650.680,799.240 L 650.421,799.754 L 650.174,800.275 L 649.924,800.741 L 649.686,801.213 L 649.403,801.714 L 649.130,802.222 L 648.858,802.675 L 648.598,803.135 L 648.290,803.621 L 647.993,804.115 L 647.699,804.554 L 647.416,805.001 L 647.084,805.472 L 646.764,805.950 L 646.449,806.374 L 646.144,806.806 L 645.790,807.261 L 645.446,807.723 L 645.111,808.131 L 644.785,808.548 L 644.409,808.984 L 644.043,809.429 L 643.688,809.820 L 643.343,810.220 L 642.946,810.637 L 642.558,811.064 L 642.184,811.437 L 641.820,811.820 L 641.403,812.217 L 640.995,812.624 L 640.603,812.978 L 640.220,813.343 L 639.784,813.719 L 639.357,814.105 L 638.948,814.440 L 638.548,814.785 L 638.094,815.140 L 637.648,815.505 L 637.223,815.819 L 636.806,816.144 L 636.336,816.476 L 635.873,816.819 L 635.433,817.112 L 635.001,817.416 L 634.514,817.724 L 634.035,818.044 L 633.581,818.315 L 633.135,818.598 L 632.633,818.882 L 632.139,819.177 L 631.673,819.426 L 631.213,819.686 L 630.698,819.945 L 630.190,820.216 L 629.712,820.442 L 629.240,820.680 L 628.713,820.913 L 628.192,821.159 L 627.704,821.360 L 627.221,821.575 L 626.683,821.782 L 626.151,822.002 L 625.653,822.179 L 625.160,822.369 L 624.613,822.550 L 624.071,822.744 L 623.565,822.897 L 623.063,823.062 L 622.508,823.216 L 621.956,823.383 L 621.443,823.510 L 620.934,823.651 L 620.372,823.778 L 619.813,823.917 L 619.295,824.020 L 618.779,824.135 L 618.212,824.234 L 617.647,824.346 L 617.124,824.423 L 616.603,824.513 L 616.031,824.583 L 615.461,824.667 L 614.935,824.719 L 614.411,824.783 L 613.836,824.826 L 613.263,824.882 L 612.735,824.907 L 612.208,824.946 L 611.632,824.960 L 611.057,824.988 L 610.528,824.987 L 610.000,825.000 L 609.424,824.986 L 608.848,824.985 L 608.320,824.959 L 607.792,824.946 L 607.218,824.903 L 606.642,824.875 L 606.116,824.822 L 605.589,824.783 L 605.018,824.713 L 604.444,824.656 L 603.922,824.578 L 603.397,824.513 L 602.830,824.414 L 602.260,824.329 L 601.742,824.226 L 601.221,824.135 L 600.659,824.009 L 600.094,823.896 L 599.582,823.767 L 599.066,823.651 L 598.511,823.498 L 597.952,823.357 L 597.447,823.203 L 596.937,823.062 L 596.390,822.882 L 595.839,822.714 L 595.342,822.535 L 594.840,822.369 L 594.303,822.162 L 593.760,821.968 L 593.272,821.765 L 592.779,821.575 L 592.253,821.341 L 591.721,821.120 L 591.243,820.894 L 590.760,820.680 L 590.246,820.421 L 589.725,820.174 L 589.259,819.924 L 588.787,819.686 L 588.286,819.403 L 587.778,819.130 L 587.325,818.858 L 586.865,818.598 L 586.379,818.290 L 585.885,817.993 L 585.446,817.699 L 584.999,817.416 L 584.528,817.084 L 584.050,816.764 L 583.626,816.449 L 583.194,816.144 L 582.739,815.790 L 582.277,815.446 L 581.869,815.111 L 581.452,814.785 L 581.016,814.409 L 580.571,814.043 L 580.180,813.688 L 579.780,813.343 L 579.363,812.946 L 578.936,812.558 L 578.563,812.184 L 578.180,811.820 L 577.783,811.403 L 577.376,810.995 L 577.022,810.603 L 576.657,810.220 L 576.281,809.784 L 575.895,809.357 L 575.560,808.948 L 575.215,808.548 L 574.860,808.094 L 574.495,807.648 L 574.181,807.223 L 573.856,806.806 L 573.524,806.336 L 573.181,805.873 L 135.000,182.307 L 135.000,780.000 L 134.946,782.208 L 134.783,784.411 L 134.513,786.603 L 134.135,788.779 L 133.651,790.934 L 133.062,793.063 L 132.369,795.160 L 131.575,797.221 L 130.680,799.240 L 129.686,801.213 L 128.598,803.135 L 127.416,805.001 L 126.144,806.806 L 124.785,808.548 L 123.343,810.220 L 121.820,811.820 L 120.220,813.343 L 118.548,814.785 L 116.806,816.144 L 115.001,817.416 L 113.135,818.598 L 111.213,819.686 L 109.240,820.680 L 107.221,821.575 L 105.160,822.369 L 103.063,823.062 L 100.934,823.651 L 98.779,824.135 L 96.603,824.513 L 94.411,824.783 L 92.208,824.946 L 90.000,825.000 L 87.792,824.946 L 85.589,824.783 L 83.397,824.513 L 81.221,824.135 L 79.066,823.651 L 76.937,823.062 L 74.840,822.369 L 72.779,821.575 L 70.760,820.680 L 68.787,819.686 L 66.865,818.598 L 64.999,817.416 L 63.194,816.144 L 61.452,814.785 L 59.780,813.343 L 58.180,811.820 L 56.657,810.220 L 55.215,808.548 L 53.856,806.806 L 52.584,805.001 L 51.402,803.135 L 50.314,801.213 L 49.320,799.240 L 48.425,797.221 L 47.631,795.160 L 46.938,793.063 L 46.349,790.934 L 45.865,788.779 L 45.487,786.603 L 45.217,784.411 L 45.054,782.208 L 45.000,780.000 L 45.000,40.000 L 45.014,39.424 Z" fill="black" fill-rule="evenodd"/>
</svg>
