<svg xmlns="http://www.w3.org/2000/svg" viewBox="0 0 700.000 1000.000">
  <path d="M 45.011,39.537 L 45.010,39.074 L 45.038,38.433 L 45.054,37.792 L 45.088,37.330 L 45.109,36.868 L 45.169,36.229 L 45.217,35.589 L 45.273,35.130 L 45.317,34.669 L 45.409,34.034 L 45.487,33.397 L 45.566,32.941 L 45.632,32.483 L 45.755,31.853 L 45.865,31.221 L 45.966,30.769 L 46.055,30.315 L 46.208,29.692 L 46.349,29.066 L 46.472,28.620 L 46.583,28.170 L 46.767,27.556 L 46.938,26.937 L 47.083,26.498 L 47.216,26.054 L 47.429,25.449 L 47.631,24.840 L 47.797,24.408 L 47.951,23.972 L 48.195,23.378 L 48.425,22.779 L 48.613,22.356 L 48.788,21.928 L 49.060,21.347 L 49.320,20.760 L 49.529,20.347 L 49.725,19.927 L 50.025,19.360 L 50.314,18.787 L 50.542,18.384 L 50.758,17.975 L 51.086,17.424 L 51.402,16.865 L 51.650,16.474 L 51.886,16.076 L 52.241,15.541 L 52.584,14.999 L 52.850,14.621 L 53.106,14.235 L 53.486,13.718 L 53.856,13.194 L 54.140,12.829 L 54.415,12.456 L 54.820,11.958 L 55.215,11.452 L 55.517,11.102 L 55.809,10.743 L 56.238,10.266 L 56.657,9.780 L 56.976,9.445 L 57.286,9.100 L 57.738,8.645 L 58.180,8.180 L 58.515,7.861 L 58.841,7.532 L 59.315,7.100 L 59.780,6.657 L 60.130,6.355 L 60.472,6.043 L 60.966,5.634 L 61.452,5.215 L 61.817,4.930 L 62.174,4.635 L 62.688,4.250 L 63.194,3.856 L 63.572,3.589 L 63.943,3.312 L 64.475,2.953 L 64.999,2.584 L 65.390,2.336 L 65.774,2.077 L 66.323,1.745 L 66.865,1.402 L 67.268,1.174 L 67.664,0.934 L 68.229,0.630 L 68.787,0.314 L 69.201,0.105 L 69.608,-0.114 L 70.187,-0.391 L 70.760,-0.680 L 71.183,-0.867 L 71.601,-1.067 L 72.193,-1.315 L 72.779,-1.575 L 73.211,-1.741 L 73.638,-1.920 L 74.241,-2.139 L 74.840,-2.369 L 75.280,-2.515 L 75.715,-2.672 L 76.328,-2.861 L 76.937,-3.062 L 77.383,-3.186 L 77.826,-3.322 L 78.448,-3.480 L 79.066,-3.651 L 79.518,-3.753 L 79.966,-3.867 L 80.595,-3.995 L 81.221,-4.135 L 81.677,-4.214 L 82.131,-4.307 L 82.765,-4.403 L 83.397,-4.513 L 83.857,-4.570 L 84.314,-4.639 L 84.952,-4.705 L 85.589,-4.783 L 86.051,-4.817 L 86.511,-4.865 L 87.152,-4.899 L 87.792,-4.946 L 88.255,-4.957 L 88.717,-4.982 L 89.359,-4.984 L 90.000,-5.000 L 90.463,-4.989 L 90.926,-4.990 L 91.567,-4.962 L 92.208,-4.946 L 92.670,-4.912 L 93.132,-4.891 L 93.771,-4.831 L 94.411,-4.783 L 94.870,-4.727 L 95.331,-4.683 L 95.966,-4.591 L 96.603,-4.513 L 97.059,-4.434 L 97.517,-4.368 L 98.147,-4.245 L 98.779,-4.135 L 99.231,-4.034 L 99.685,-3.945 L 100.308,-3.792 L 100.934,-3.651 L 101.380,-3.528 L 101.830,-3.417 L 102.444,-3.233 L 103.063,-3.062 L 103.502,-2.917 L 103.946,-2.784 L 104.551,-2.571 L 105.160,-2.369 L 105.592,-2.203 L 106.028,-2.049 L 106.622,-1.805 L 107.221,-1.575 L 107.644,-1.387 L 108.072,-1.212 L 108.653,-0.940 L 109.240,-0.680 L 109.653,-0.471 L 110.073,-0.275 L 110.640,0.025 L 111.213,0.314 L 111.616,0.542 L 112.025,0.758 L 112.576,1.086 L 113.135,1.402 L 113.526,1.650 L 113.924,1.886 L 114.459,2.241 L 115.001,2.584 L 115.379,2.850 L 115.765,3.106 L 116.282,3.486 L 116.806,3.856 L 117.171,4.140 L 117.544,4.415 L 118.042,4.820 L 118.548,5.215 L 118.898,5.517 L 119.257,5.809 L 119.734,6.238 L 120.220,6.657 L 120.555,6.976 L 120.900,7.286 L 121.355,7.738 L 121.820,8.180 L 122.139,8.515 L 122.468,8.841 L 122.900,9.315 L 123.343,9.780 L 123.645,10.130 L 123.957,10.472 L 124.366,10.966 L 124.785,11.452 L 125.070,11.817 L 125.365,12.174 L 125.750,12.688 L 126.144,13.194 L 126.411,13.572 L 126.688,13.943 L 127.047,14.475 L 127.416,14.999 L 127.664,15.390 L 127.923,15.774 L 350.000,363.411 L 572.077,15.774 L 572.336,15.390 L 572.584,14.999 L 572.953,14.475 L 573.312,13.943 L 573.589,13.572 L 573.856,13.194 L 574.250,12.688 L 574.635,12.174 L 574.930,11.817 L 575.215,11.452 L 575.634,10.966 L 576.043,10.472 L 576.355,10.130 L 576.657,9.780 L 577.100,9.315 L 577.532,8.841 L 577.861,8.515 L 578.180,8.180 L 578.645,7.738 L 579.100,7.286 L 579.445,6.976 L 579.780,6.657 L 580.266,6.238 L 580.743,5.809 L 581.102,5.517 L 581.452,5.215 L 581.958,4.820 L 582.456,4.415 L 582.829,4.140 L 583.194,3.856 L 583.718,3.486 L 584.235,3.106 L 584.621,2.850 L 584.999,2.584 L 585.541,2.241 L 586.076,1.886 L 586.474,1.650 L 586.865,1.402 L 587.424,1.086 L 587.975,0.758 L 588.384,0.542 L 588.787,0.314 L 589.360,0.025 L 589.927,-0.275 L 590.347,-0.471 L 590.760,-0.680 L 591.347,-0.940 L 591.928,-1.212 L 592.356,-1.387 L 592.779,-1.575 L 593.378,-1.805 L 593.972,-2.049 L 594.408,-2.203 L 594.840,-2.369 L 595.449,-2.571 L 596.054,-2.784 L 596.498,-2.917 L 596.937,-3.062 L 597.556,-3.233 L 598.170,-3.417 L 598.620,-3.528 L 599.066,-3.651 L 599.692,-3.792 L 600.315,-3.945 L 600.769,-4.034 L 601.221,-4.135 L 601.853,-4.245 L 602.483,-4.368 L 602.941,-4.434 L 603.397,-4.513 L 604.034,-4.591 L 604.669,-4.683 L 605.130,-4.727 L 605.589,-4.783 L 606.229,-4.831 L 606.868,-4.891 L 607.330,-4.912 L 607.792,-4.946 L 608.433,-4.962 L 609.074,-4.990 L 609.537,-4.989 L 610.000,-5.000 L 610.641,-4.984 L 611.283,-4.982 L 611.745,-4.957 L 612.208,-4.946 L 612.848,-4.899 L 613.489,-4.865 L 613.949,-4.817 L 614.411,-4.783 L 615.048,-4.705 L 615.686,-4.639 L 616.143,-4.570 L 616.603,-4.513 L 617.235,-4.403 L 617.869,-4.307 L 618.323,-4.214 L 618.779,-4.135 L 619.405,-3.995 L 620.034,-3.867 L 620.482,-3.753 L 620.934,-3.651 L 621.552,-3.480 L 622.174,-3.322 L 622.617,-3.186 L 623.063,-3.062 L 623.672,-2.861 L 624.285,-2.672 L 624.720,-2.515 L 625.160,-2.369 L 625.759,-2.139 L 626.362,-1.920 L 626.789,-1.741 L 627.221,-1.575 L 627.807,-1.315 L 628.399,-1.067 L 628.817,-0.867 L 629.240,-0.680 L 629.813,-0.391 L 630.392,-0.114 L 630.799,0.105 L 631.213,0.314 L 631.771,0.630 L 632.336,0.934 L 632.732,1.174 L 633.135,1.402 L 633.677,1.745 L 634.226,2.077 L 634.610,2.336 L 635.001,2.584 L 635.525,2.953 L 636.057,3.312 L 636.428,3.589 L 636.806,3.856 L 637.312,4.250 L 637.826,4.635 L 638.183,4.930 L 638.548,5.215 L 639.034,5.634 L 639.528,6.043 L 639.870,6.355 L 640.220,6.657 L 640.685,7.100 L 641.159,7.532 L 641.485,7.861 L 641.820,8.180 L 642.262,8.645 L 642.714,9.100 L 643.024,9.445 L 643.343,9.780 L 643.762,10.266 L 644.191,10.743 L 644.483,11.102 L 644.785,11.452 L 645.180,11.958 L 645.585,12.456 L 645.860,12.829 L 646.144,13.194 L 646.514,13.718 L 646.894,14.235 L 647.150,14.621 L 647.416,14.999 L 647.759,15.541 L 648.114,16.076 L 648.350,16.474 L 648.598,16.865 L 648.914,17.424 L 649.242,17.975 L 649.458,18.384 L 649.686,18.787 L 649.975,19.360 L 650.275,19.927 L 650.471,20.347 L 650.680,20.760 L 650.940,21.347 L 651.212,21.928 L 651.387,22.356 L 651.575,22.779 L 651.805,23.378 L 652.049,23.972 L 652.203,24.408 L 652.369,24.840 L 652.571,25.449 L 652.784,26.054 L 652.917,26.498 L 653.062,26.937 L 653.233,27.556 L 653.417,28.170 L 653.528,28.620 L 653.651,29.066 L 653.792,29.692 L 653.945,30.315 L 654.034,30.769 L 654.135,31.221 L 654.245,31.853 L 654.368,32.483 L 654.434,32.941 L 654.513,33.397 L 654.591,34.034 L 654.683,34.669 L 654.727,35.130 L 654.783,35.589 L 654.831,36.229 L 654.891,36.868 L 654.912,37.330 L 654.946,37.792 L 654.962,38.433 L 654.990,39.074 L 654.989,39.537 L 655.000,40.000 L 655.000,780.000 L 654.946,782.208 L 654.783,784.411 L 654.513,786.603 L 654.135,788.779 L 653.651,790.934 L 653.062,793.063 L 652.369,795.160 L 651.575,797.221 L 650.680,799.240 L 649.686,801.213 L 648.598,803.135 L 647.416,805.001 L 646.144,806.806 L 644.785,808.548 L 643.343,810.220 L 641.820,811.820 L 640.220,813.343 L 638.548,814.785 L 636.806,816.144 L 635.001,817.416 L 633.135,818.598 L 631.213,819.686 L 629.240,820.680 L 627.221,821.575 L 625.160,822.369 L 623.063,823.062 L 620.934,823.651 L 618.779,824.135 L 616.603,824.513 L 614.411,824.783 L 612.208,824.946 L 610.000,825.000 L 607.792,824.946 L 605.589,824.783 L 603.397,824.513 L 601.221,824.135 L 599.066,823.651 L 596.937,823.062 L 594.840,822.369 L 592.779,821.575 L 590.760,820.680 L 588.787,819.686 L 586.865,818.598 L 584.999,817.416 L 583.194,816.144 L 581.452,814.785 L 579.780,813.343 L 578.180,811.820 L 576.657,810.220 L 575.215,808.548 L 573.856,806.806 L 572.584,805.001 L 571.402,803.135 L 570.314,801.213 L 569.320,799.240 L 568.425,797.221 L 567.631,795.160 L 566.938,793.063 L 566.349,790.934 L 565.865,788.779 L 565.487,786.603 L 565.217,784.411 L 565.054,782.208 L 565.000,780.000 L 565.000,194.031 L 387.923,471.226 L 386.693,473.050 L 385.376,474.812 L 383.975,476.508 L 382.492,478.133 L 380.931,479.684 L 379.297,481.157 L 377.593,482.548 L 375.822,483.854 L 373.990,485.072 L 372.101,486.199 L 370.159,487.232 L 368.168,488.169 L 366.134,489.008 L 364.062,489.747 L 361.956,490.383 L 359.821,490.915 L 357.663,491.343 L 355.487,491.664 L 353.297,491.879 L 351.100,491.987 L 348.900,491.987 L 346.703,491.879 L 344.513,491.664 L 342.337,491.343 L 340.179,490.915 L 338.044,490.383 L 335.938,489.747 L 333.866,489.008 L 331.832,488.169 L 329.841,487.232 L 327.899,486.199 L 326.010,485.072 L 324.178,483.854 L 322.407,482.548 L 320.703,481.157 L 319.069,479.684 L 317.508,478.133 L 316.025,476.508 L 314.624,474.812 L 313.307,473.050 L 312.077,471.226 L 135.000,194.031 L 135.000,780.000 L 134.946,782.208 L 134.783,784.411 L 134.513,786.603 L 134.135,788.779 L 133.651,790.934 L 133.062,793.063 L 132.369,795.160 L 131.575,797.221 L 130.680,799.240 L 129.686,801.213 L 128.598,803.135 L 127.416,805.001 L 126.144,806.806 L 124.785,808.548 L 123.343,810.220 L 121.820,811.820 L 120.220,813.343 L 118.548,814.785 L 116.806,816.144 L 115.001,817.416 L 113.135,818.598 L 111.213,819.686 L 109.240,820.680 L 107.221,821.575 L 105.160,822.369 L 103.063,823.062 L 100.934,823.651 L 98.779,824.135 L 96.603,824.513 L 94.411,824.783 L 92.208,824.946 L 90.000,825.000 L 87.792,824.946 L 85.589,824.783 L 83.397,824.513 L 81.221,824.135 L 79.066,823.651 L 76.937,823.062 L 74.840,822.369 L 72.779,821.575 L 70.760,820.680 L 68.787,819.686 L 66.865,818.598 L 64.999,817.416 L 63.194,816.144 L 61.452,814.785 L 59.780,813.343 L 58.180,811.820 L 56.657,810.220 L 55.215,808.548 L 53.856,806.806 L 52.584,805.001 L 51.402,803.135 L 50.314,801.213 L 49.320,799.240 L 48.425,797.221 L 47.631,795.160 L 46.938,793.063 L 46.349,790.934 L 45.865,788.779 L 45.487,786.603 L 45.217,784.411 L 45.054,782.208 L 45.000,780.000 L 45.000,40.000 L 45.011,39.537 Z" fill="black" fill-rule="evenodd"/>
</svg>
