<svg xmlns="http://www.w3.org/2000/svg" viewBox="0 0 700.000 1000">
  <path d="M 495.000 630.000 L 495.000 40.000 L 494.986 38.896 L 494.946 37.792 L 494.878 36.690 L 494.783 35.589 L 494.662 34.492 L 494.513 33.397 L 494.337 32.307 L 494.135 31.221 L 493.907 30.140 L 493.651 29.066 L 493.370 27.998 L 493.062 26.937 L 492.729 25.884 L 492.369 24.840 L 491.985 23.805 L 491.575 22.779 L 491.139 21.764 L 490.680 20.760 L 490.195 19.767 L 489.686 18.787 L 489.154 17.820 L 488.598 16.865 L 488.018 15.925 L 487.416 14.999 L 486.791 14.089 L 486.144 13.194 L 485.476 12.315 L 484.785 11.452 L 484.074 10.607 L 483.343 9.780 L 482.591 8.971 L 481.820 8.180 L 481.029 7.409 L 480.220 6.657 L 479.393 5.926 L 478.548 5.215 L 477.685 4.524 L 476.806 3.856 L 475.911 3.209 L 475.001 2.584 L 474.075 1.982 L 473.135 1.402 L 472.180 0.846 L 471.213 0.314 L 470.233 -0.195 L 469.240 -0.680 L 468.236 -1.139 L 467.221 -1.575 L 466.195 -1.985 L 465.160 -2.369 L 464.116 -2.729 L 463.063 -3.062 L 462.002 -3.370 L 460.934 -3.651 L 459.860 -3.907 L 458.779 -4.135 L 457.693 -4.337 L 456.603 -4.513 L 455.508 -4.662 L 454.411 -4.783 L 453.310 -4.878 L 452.208 -4.946 L 451.104 -4.986 L 450.000 -5.000 L 448.896 -4.986 L 447.792 -4.946 L 446.690 -4.878 L 445.589 -4.783 L 444.492 -4.662 L 443.397 -4.513 L 442.307 -4.337 L 441.221 -4.135 L 440.140 -3.907 L 439.066 -3.651 L 437.998 -3.370 L 436.937 -3.062 L 435.884 -2.729 L 434.840 -2.369 L 433.805 -1.985 L 432.779 -1.575 L 431.764 -1.139 L 430.760 -0.680 L 429.767 -0.195 L 428.787 0.314 L 427.820 0.846 L 426.865 1.402 L 425.925 1.982 L 424.999 2.584 L 424.089 3.209 L 423.194 3.856 L 422.315 4.524 L 421.452 5.215 L 420.607 5.926 L 419.780 6.657 L 418.971 7.409 L 418.180 8.180 L 417.409 8.971 L 416.657 9.780 L 415.926 10.607 L 415.215 11.452 L 414.524 12.315 L 413.856 13.194 L 413.209 14.089 L 412.584 14.999 L 411.982 15.925 L 411.402 16.865 L 410.846 17.820 L 410.314 18.787 L 409.805 19.767 L 409.320 20.760 L 408.861 21.764 L 408.425 22.779 L 408.015 23.805 L 407.631 24.840 L 407.271 25.884 L 406.938 26.937 L 406.630 27.998 L 406.349 29.066 L 406.093 30.140 L 405.865 31.221 L 405.663 32.307 L 405.487 33.397 L 405.338 34.492 L 405.217 35.589 L 405.122 36.690 L 405.054 37.792 L 405.014 38.896 L 405.000 40.000 L 405.000 629.746 L 404.970 632.373 L 404.890 634.745 L 404.756 637.114 L 404.568 639.479 L 404.327 641.840 L 404.033 644.195 L 403.686 646.542 L 403.285 648.881 L 402.832 651.211 L 402.327 653.529 L 401.769 655.836 L 401.159 658.129 L 400.497 660.408 L 399.785 662.672 L 399.021 664.918 L 398.206 667.147 L 397.342 669.357 L 396.427 671.547 L 395.464 673.715 L 394.452 675.862 L 393.391 677.985 L 392.283 680.083 L 391.127 682.156 L 389.925 684.202 L 388.677 686.220 L 387.384 688.210 L 386.046 690.170 L 384.665 692.099 L 383.240 693.997 L 381.772 695.861 L 380.263 697.693 L 378.712 699.489 L 377.122 701.250 L 375.492 702.975 L 373.823 704.662 L 372.117 706.312 L 370.374 707.922 L 368.595 709.493 L 366.781 711.023 L 364.933 712.511 L 363.052 713.957 L 361.138 715.361 L 359.194 716.721 L 357.219 718.036 L 355.215 719.307 L 353.182 720.532 L 351.123 721.711 L 349.037 722.843 L 346.926 723.927 L 344.791 724.964 L 342.634 725.952 L 340.455 726.891 L 338.255 727.780 L 336.035 728.620 L 333.797 729.409 L 331.542 730.147 L 329.270 730.835 L 326.984 731.470 L 324.684 732.054 L 322.371 732.586 L 320.047 733.066 L 317.713 733.492 L 315.370 733.866 L 313.018 734.187 L 310.660 734.455 L 308.297 734.669 L 305.930 734.830 L 303.559 734.937 L 301.187 734.990 L 298.813 734.990 L 296.441 734.937 L 294.070 734.830 L 291.703 734.669 L 289.340 734.455 L 286.982 734.187 L 284.630 733.866 L 282.287 733.492 L 279.953 733.066 L 277.629 732.586 L 275.316 732.054 L 273.016 731.470 L 270.730 730.835 L 268.458 730.147 L 266.203 729.409 L 263.965 728.620 L 261.745 727.780 L 259.545 726.891 L 257.366 725.952 L 255.209 724.964 L 253.074 723.927 L 250.963 722.843 L 248.877 721.711 L 246.818 720.532 L 244.785 719.307 L 242.781 718.036 L 240.806 716.721 L 238.862 715.361 L 236.948 713.957 L 235.067 712.511 L 233.219 711.023 L 231.405 709.493 L 229.626 707.922 L 227.883 706.312 L 226.177 704.662 L 224.508 702.975 L 222.878 701.250 L 221.288 699.489 L 219.737 697.693 L 218.228 695.861 L 216.760 693.997 L 215.335 692.099 L 213.954 690.170 L 212.616 688.210 L 211.323 686.220 L 210.075 684.202 L 208.873 682.156 L 207.717 680.083 L 206.609 677.985 L 205.548 675.862 L 204.536 673.715 L 203.573 671.547 L 202.658 669.357 L 201.794 667.147 L 200.979 664.918 L 200.215 662.672 L 199.503 660.408 L 198.841 658.129 L 198.231 655.836 L 197.673 653.529 L 197.168 651.211 L 196.715 648.881 L 196.314 646.542 L 195.967 644.195 L 195.673 641.840 L 195.432 639.479 L 195.244 637.114 L 195.110 634.745 L 195.030 632.373 L 194.997 629.491 L 194.971 628.387 L 194.918 627.284 L 194.838 626.183 L 194.731 625.083 L 194.596 623.987 L 194.435 622.895 L 194.248 621.806 L 194.033 620.723 L 193.792 619.645 L 193.525 618.573 L 193.232 617.509 L 192.912 616.451 L 192.567 615.402 L 192.195 614.362 L 191.799 613.331 L 191.377 612.311 L 190.931 611.300 L 190.460 610.302 L 189.964 609.315 L 189.444 608.340 L 188.901 607.379 L 188.334 606.431 L 187.744 605.497 L 187.131 604.578 L 186.496 603.675 L 185.839 602.787 L 185.160 601.915 L 184.461 601.061 L 183.740 600.224 L 182.999 599.405 L 182.238 598.604 L 181.458 597.823 L 180.659 597.060 L 179.841 596.318 L 179.006 595.596 L 178.153 594.894 L 177.283 594.214 L 176.396 593.555 L 175.494 592.918 L 174.576 592.304 L 173.644 591.712 L 172.697 591.143 L 171.737 590.598 L 170.763 590.076 L 169.777 589.579 L 168.779 589.106 L 167.770 588.657 L 166.750 588.233 L 165.720 587.835 L 164.680 587.462 L 163.632 587.114 L 162.575 586.793 L 161.511 586.497 L 160.440 586.228 L 159.363 585.985 L 158.280 585.768 L 157.192 585.578 L 156.099 585.415 L 155.003 585.279 L 153.904 585.170 L 152.803 585.087 L 151.700 585.032 L 150.596 585.004 L 149.491 585.003 L 148.387 585.029 L 147.284 585.082 L 146.183 585.162 L 145.083 585.269 L 143.987 585.404 L 142.895 585.565 L 141.806 585.752 L 140.723 585.967 L 139.645 586.208 L 138.573 586.475 L 137.509 586.768 L 136.451 587.088 L 135.402 587.433 L 134.362 587.805 L 133.331 588.201 L 132.311 588.623 L 131.300 589.069 L 130.302 589.540 L 129.315 590.036 L 128.340 590.556 L 127.379 591.099 L 126.431 591.666 L 125.497 592.256 L 124.578 592.869 L 123.675 593.504 L 122.787 594.161 L 121.915 594.840 L 121.061 595.539 L 120.224 596.260 L 119.405 597.001 L 118.604 597.762 L 117.823 598.542 L 117.060 599.341 L 116.318 600.159 L 115.596 600.994 L 114.894 601.847 L 114.214 602.717 L 113.555 603.604 L 112.918 604.506 L 112.304 605.424 L 111.712 606.356 L 111.143 607.303 L 110.598 608.263 L 110.076 609.237 L 109.579 610.223 L 109.106 611.221 L 108.657 612.230 L 108.233 613.250 L 107.835 614.280 L 107.462 615.320 L 107.114 616.368 L 106.793 617.425 L 106.497 618.489 L 106.228 619.560 L 105.985 620.637 L 105.768 621.720 L 105.578 622.808 L 105.415 623.901 L 105.279 624.997 L 105.170 626.096 L 105.087 627.197 L 105.032 628.300 L 105.004 629.404 L 105.003 630.509 L 105.041 633.898 L 105.064 634.915 L 105.179 638.303 L 105.225 639.319 L 105.416 642.704 L 105.485 643.719 L 105.753 647.098 L 105.845 648.111 L 106.189 651.484 L 106.304 652.494 L 106.724 655.858 L 106.862 656.866 L 107.358 660.220 L 107.518 661.224 L 108.090 664.566 L 108.273 665.566 L 108.920 668.894 L 109.126 669.890 L 109.848 673.202 L 110.076 674.193 L 110.873 677.489 L 111.123 678.474 L 111.995 681.751 L 112.267 682.730 L 113.212 685.986 L 113.507 686.960 L 114.525 690.193 L 114.842 691.160 L 115.933 694.369 L 116.271 695.329 L 117.435 698.513 L 117.794 699.464 L 119.030 702.621 L 119.411 703.564 L 120.717 706.692 L 121.119 707.626 L 122.496 710.725 L 122.919 711.649 L 124.366 714.715 L 124.810 715.630 L 126.325 718.663 L 126.790 719.568 L 128.373 722.565 L 128.858 723.459 L 130.509 726.420 L 131.014 727.303 L 132.731 730.226 L 133.256 731.097 L 135.039 733.981 L 135.584 734.840 L 137.431 737.682 L 137.995 738.529 L 139.906 741.329 L 140.489 742.162 L 142.463 744.918 L 143.064 745.738 L 145.100 748.449 L 145.720 749.256 L 147.817 751.920 L 148.455 752.712 L 150.611 755.328 L 151.267 756.105 L 153.481 758.672 L 154.155 759.434 L 156.427 761.950 L 157.117 762.697 L 159.445 765.161 L 160.152 765.892 L 162.536 768.303 L 163.259 769.018 L 165.697 771.374 L 166.436 772.073 L 168.926 774.374 L 169.681 775.055 L 172.222 777.299 L 172.992 777.963 L 175.584 780.149 L 176.368 780.796 L 179.009 782.922 L 179.808 783.551 L 182.496 785.618 L 183.309 786.228 L 186.042 788.233 L 186.869 788.826 L 189.648 790.768 L 190.488 791.342 L 193.309 793.221 L 194.162 793.775 L 197.025 795.591 L 197.890 796.126 L 200.794 797.876 L 201.670 798.391 L 204.613 800.075 L 205.501 800.570 L 208.481 802.187 L 209.380 802.662 L 212.395 804.211 L 213.305 804.666 L 216.355 806.147 L 217.275 806.580 L 220.357 807.992 L 221.286 808.405 L 224.400 809.746 L 225.338 810.138 L 228.481 811.409 L 229.429 811.780 L 232.599 812.979 L 233.555 813.328 L 236.752 814.455 L 237.715 814.783 L 240.937 815.838 L 241.907 816.143 L 245.151 817.125 L 246.128 817.409 L 249.394 818.317 L 250.377 818.578 L 253.663 819.412 L 254.652 819.651 L 257.956 820.411 L 258.949 820.628 L 262.270 821.313 L 263.268 821.507 L 266.603 822.117 L 267.605 822.288 L 270.953 822.822 L 271.959 822.971 L 275.318 823.429 L 276.327 823.556 L 279.696 823.938 L 280.708 824.041 L 284.084 824.347 L 285.098 824.428 L 288.480 824.657 L 289.496 824.715 L 292.882 824.868 L 293.899 824.902 L 297.288 824.979 L 298.305 824.990 L 301.695 824.990 L 302.712 824.979 L 306.101 824.902 L 307.118 824.868 L 310.504 824.715 L 311.520 824.657 L 314.902 824.428 L 315.916 824.347 L 319.292 824.041 L 320.304 823.938 L 323.673 823.556 L 324.682 823.429 L 328.041 822.971 L 329.047 822.822 L 332.395 822.288 L 333.397 822.117 L 336.732 821.507 L 337.730 821.313 L 341.051 820.628 L 342.044 820.411 L 345.348 819.651 L 346.337 819.412 L 349.623 818.578 L 350.606 818.317 L 353.872 817.409 L 354.849 817.125 L 358.093 816.143 L 359.063 815.838 L 362.285 814.783 L 363.248 814.455 L 366.445 813.328 L 367.401 812.979 L 370.571 811.780 L 371.519 811.409 L 374.662 810.138 L 375.600 809.746 L 378.714 808.405 L 379.643 807.992 L 382.725 806.580 L 383.645 806.147 L 386.695 804.666 L 387.605 804.211 L 390.620 802.662 L 391.519 802.187 L 394.499 800.570 L 395.387 800.075 L 398.330 798.391 L 399.206 797.876 L 402.110 796.126 L 402.975 795.591 L 405.838 793.775 L 406.691 793.221 L 409.512 791.342 L 410.352 790.768 L 413.131 788.826 L 413.958 788.233 L 416.691 786.228 L 417.504 785.618 L 420.192 783.551 L 420.991 782.922 L 423.632 780.796 L 424.416 780.149 L 427.008 777.963 L 427.778 777.299 L 430.319 775.055 L 431.074 774.374 L 433.564 772.073 L 434.303 771.374 L 436.741 769.018 L 437.464 768.303 L 439.848 765.892 L 440.555 765.161 L 442.883 762.697 L 443.573 761.950 L 445.845 759.434 L 446.519 758.672 L 448.733 756.105 L 449.389 755.328 L 451.545 752.712 L 452.183 751.920 L 454.280 749.256 L 454.900 748.449 L 456.936 745.738 L 457.537 744.918 L 459.511 742.162 L 460.094 741.329 L 462.005 738.529 L 462.569 737.682 L 464.416 734.840 L 464.961 733.981 L 466.744 731.097 L 467.269 730.226 L 468.986 727.303 L 469.491 726.420 L 471.142 723.459 L 471.627 722.565 L 473.210 719.568 L 473.675 718.663 L 475.190 715.630 L 475.634 714.715 L 477.081 711.649 L 477.504 710.725 L 478.881 707.626 L 479.283 706.692 L 480.589 703.564 L 480.970 702.621 L 482.206 699.464 L 482.565 698.513 L 483.729 695.329 L 484.067 694.369 L 485.158 691.160 L 485.475 690.193 L 486.493 686.960 L 486.788 685.986 L 487.733 682.730 L 488.005 681.751 L 488.877 678.474 L 489.127 677.489 L 489.924 674.193 L 490.152 673.202 L 490.874 669.890 L 491.080 668.894 L 491.727 665.566 L 491.910 664.566 L 492.482 661.224 L 492.642 660.220 L 493.138 656.866 L 493.276 655.858 L 493.696 652.494 L 493.811 651.484 L 494.155 648.111 L 494.247 647.098 L 494.515 643.719 L 494.584 642.704 L 494.775 639.319 L 494.821 638.303 L 494.936 634.915 L 494.959 633.898 L 494.997 630.509 L 494.997 630.254 L 495.000 630.000 Z" fill="black" fill-rule="evenodd"/>
</svg>
