<svg xmlns="http://www.w3.org/2000/svg" viewBox="0 0 700.000 1000">
  <path d="M 452.168 670.922 L 449.616 674.335 L 447.042 677.656 L 444.448 680.883 L 441.835 684.015 L 439.205 687.053 L 436.559 689.995 L 433.900 692.841 L 431.230 695.590 L 428.548 698.242 L 425.859 700.797 L 423.163 703.254 L 420.461 705.615 L 417.757 707.877 L 415.050 710.043 L 412.343 712.112 L 409.638 714.084 L 406.935 715.961 L 404.237 717.742 L 401.544 719.428 L 398.858 721.021 L 396.179 722.521 L 393.509 723.930 L 390.848 725.248 L 388.198 726.476 L 385.558 727.616 L 382.929 728.669 L 380.312 729.636 L 377.705 730.519 L 375.110 731.319 L 372.525 732.038 L 369.951 732.675 L 367.386 733.234 L 364.830 733.714 L 362.281 734.116 L 359.739 734.442 L 357.202 734.693 L 354.670 734.868 L 352.140 734.968 L 349.611 734.994 L 347.082 734.946 L 344.551 734.822 L 342.018 734.624 L 339.479 734.350 L 336.936 734.001 L 334.385 733.574 L 331.826 733.070 L 329.258 732.488 L 326.681 731.825 L 324.093 731.082 L 321.494 730.257 L 318.884 729.348 L 316.263 728.354 L 313.631 727.274 L 310.988 726.107 L 308.334 724.852 L 305.671 723.506 L 302.998 722.070 L 300.317 720.541 L 297.628 718.919 L 294.933 717.204 L 292.233 715.393 L 289.530 713.488 L 286.824 711.486 L 284.117 709.387 L 281.411 707.191 L 278.707 704.899 L 276.007 702.509 L 273.313 700.021 L 270.626 697.436 L 267.948 694.754 L 265.280 691.975 L 262.625 689.100 L 259.984 686.128 L 257.359 683.061 L 254.752 679.900 L 252.163 676.644 L 249.596 673.295 L 247.051 669.853 L 244.530 666.320 L 242.035 662.696 L 239.567 658.983 L 237.128 655.182 L 234.720 651.294 L 232.342 647.321 L 229.998 643.263 L 227.689 639.122 L 225.415 634.899 L 223.179 630.596 L 220.981 626.214 L 218.822 621.756 L 216.705 617.221 L 214.629 612.613 L 212.597 607.933 L 210.609 603.182 L 208.666 598.362 L 206.770 593.475 L 204.921 588.522 L 203.121 583.506 L 201.369 578.428 L 199.668 573.289 L 198.018 568.093 L 196.419 562.841 L 194.873 557.534 L 193.381 552.174 L 191.942 546.764 L 190.559 541.305 L 189.230 535.800 L 187.958 530.250 L 186.743 524.657 L 185.585 519.024 L 184.484 513.352 L 183.442 507.643 L 182.459 501.900 L 181.535 496.124 L 180.671 490.317 L 179.867 484.483 L 179.123 478.621 L 178.440 472.736 L 177.818 466.828 L 177.258 460.900 L 176.759 454.954 L 176.322 448.993 L 175.947 443.017 L 175.634 437.030 L 175.384 431.033 L 175.196 425.029 L 175.071 419.020 L 175.008 413.007 L 175.008 406.993 L 175.071 400.980 L 175.196 394.971 L 175.384 388.967 L 175.634 382.970 L 175.947 376.983 L 176.322 371.007 L 176.759 365.046 L 177.258 359.100 L 177.818 353.172 L 178.440 347.264 L 179.123 341.379 L 179.867 335.517 L 180.671 329.683 L 181.535 323.876 L 182.459 318.100 L 183.442 312.357 L 184.484 306.648 L 185.585 300.976 L 186.743 295.343 L 187.958 289.750 L 189.230 284.200 L 190.559 278.695 L 191.942 273.236 L 193.381 267.826 L 194.873 262.466 L 196.419 257.159 L 198.018 251.907 L 199.668 246.711 L 201.369 241.572 L 203.121 236.494 L 204.921 231.478 L 206.770 226.525 L 208.666 221.638 L 210.609 216.818 L 212.597 212.067 L 214.629 207.387 L 216.705 202.779 L 218.822 198.244 L 220.981 193.786 L 223.179 189.404 L 225.415 185.101 L 227.689 180.878 L 229.998 176.737 L 232.342 172.679 L 234.720 168.706 L 237.128 164.818 L 239.567 161.017 L 242.035 157.304 L 244.530 153.680 L 247.051 150.147 L 249.596 146.705 L 252.163 143.356 L 254.752 140.100 L 257.359 136.939 L 259.984 133.872 L 262.625 130.900 L 265.280 128.025 L 267.948 125.246 L 270.626 122.564 L 273.313 119.979 L 276.007 117.491 L 278.707 115.101 L 281.411 112.809 L 284.117 110.613 L 286.824 108.514 L 289.530 106.512 L 292.233 104.607 L 294.933 102.796 L 297.628 101.081 L 300.317 99.459 L 302.998 97.930 L 305.671 96.494 L 308.334 95.148 L 310.988 93.893 L 313.631 92.726 L 316.263 91.646 L 318.884 90.652 L 321.494 89.743 L 324.093 88.918 L 326.681 88.175 L 329.258 87.512 L 331.826 86.930 L 334.385 86.426 L 336.936 85.999 L 339.479 85.650 L 342.018 85.376 L 344.551 85.178 L 347.082 85.054 L 349.611 85.006 L 352.140 85.032 L 354.670 85.132 L 357.202 85.307 L 359.739 85.558 L 362.281 85.884 L 364.830 86.286 L 367.386 86.766 L 369.951 87.325 L 372.525 87.962 L 375.110 88.681 L 377.705 89.481 L 380.312 90.364 L 382.929 91.331 L 385.558 92.384 L 388.198 93.524 L 390.848 94.752 L 393.509 96.070 L 396.179 97.479 L 398.858 98.979 L 401.544 100.572 L 404.237 102.258 L 406.935 104.039 L 409.638 105.916 L 412.343 107.888 L 415.050 109.957 L 417.757 112.123 L 420.461 114.385 L 423.163 116.746 L 425.859 119.203 L 428.548 121.758 L 431.230 124.410 L 433.900 127.159 L 436.559 130.005 L 439.205 132.947 L 441.835 135.985 L 444.448 139.117 L 447.042 142.344 L 449.616 145.665 L 452.168 149.078 L 454.918 152.890 L 455.575 153.777 L 456.253 154.649 L 456.953 155.503 L 457.674 156.340 L 458.415 157.159 L 459.175 157.960 L 459.956 158.742 L 460.755 159.504 L 461.572 160.246 L 462.408 160.968 L 463.261 161.670 L 464.131 162.350 L 465.018 163.009 L 465.920 163.646 L 466.838 164.260 L 467.770 164.852 L 468.717 165.421 L 469.677 165.966 L 470.651 166.488 L 471.637 166.985 L 472.635 167.458 L 473.644 167.907 L 474.664 168.330 L 475.694 168.729 L 476.734 169.102 L 477.782 169.449 L 478.839 169.771 L 479.903 170.067 L 480.974 170.336 L 482.051 170.579 L 483.134 170.795 L 484.222 170.985 L 485.315 171.148 L 486.411 171.285 L 487.510 171.394 L 488.611 171.476 L 489.714 171.531 L 490.818 171.560 L 491.923 171.561 L 493.027 171.535 L 494.130 171.481 L 495.231 171.401 L 496.331 171.294 L 497.427 171.160 L 498.520 170.999 L 499.608 170.811 L 500.691 170.597 L 501.769 170.356 L 502.841 170.088 L 503.905 169.795 L 504.963 169.475 L 506.012 169.130 L 507.052 168.759 L 508.083 168.362 L 509.104 167.941 L 510.114 167.494 L 511.112 167.023 L 512.099 166.527 L 513.074 166.007 L 514.035 165.464 L 514.983 164.897 L 515.917 164.307 L 516.836 163.694 L 517.739 163.059 L 518.627 162.402 L 519.498 161.723 L 520.353 161.024 L 521.190 160.303 L 522.009 159.562 L 522.810 158.801 L 523.591 158.021 L 524.354 157.222 L 525.096 156.404 L 525.818 155.569 L 526.520 154.716 L 527.200 153.846 L 527.859 152.959 L 528.496 152.057 L 529.110 151.139 L 529.702 150.207 L 530.270 149.260 L 530.816 148.299 L 531.337 147.326 L 531.835 146.340 L 532.308 145.342 L 532.756 144.333 L 533.180 143.313 L 533.579 142.283 L 533.952 141.243 L 534.299 140.195 L 534.621 139.138 L 534.916 138.074 L 535.186 137.003 L 535.429 135.925 L 535.645 134.842 L 535.835 133.754 L 535.998 132.662 L 536.134 131.566 L 536.244 130.467 L 536.326 129.366 L 536.381 128.263 L 536.409 127.159 L 536.410 126.054 L 536.384 124.950 L 536.331 123.847 L 536.251 122.745 L 536.144 121.646 L 536.010 120.550 L 535.849 119.457 L 535.661 118.369 L 535.446 117.285 L 535.205 116.208 L 534.938 115.136 L 534.645 114.071 L 534.325 113.014 L 533.980 111.965 L 533.608 110.925 L 533.212 109.894 L 532.790 108.873 L 532.344 107.863 L 531.872 106.864 L 531.377 105.877 L 530.857 104.903 L 530.314 103.941 L 529.747 102.994 L 529.157 102.060 L 528.544 101.141 L 527.909 100.237 L 524.935 96.114 L 524.479 95.494 L 521.463 91.459 L 520.988 90.836 L 517.930 86.891 L 517.435 86.264 L 514.336 82.410 L 513.821 81.781 L 510.683 78.018 L 510.146 77.387 L 506.969 73.717 L 506.410 73.084 L 503.195 69.508 L 502.614 68.874 L 499.362 65.394 L 498.757 64.759 L 495.470 61.375 L 494.841 60.741 L 491.518 57.454 L 490.865 56.820 L 487.508 53.632 L 486.829 53.000 L 483.440 49.911 L 482.734 49.281 L 479.314 46.293 L 478.581 45.666 L 475.130 42.779 L 474.370 42.157 L 470.889 39.372 L 470.101 38.756 L 466.592 36.073 L 465.775 35.464 L 462.239 32.886 L 461.393 32.284 L 457.830 29.810 L 456.956 29.218 L 453.368 26.849 L 452.463 26.268 L 448.851 24.006 L 447.917 23.436 L 444.282 21.281 L 443.318 20.726 L 439.661 18.678 L 438.668 18.138 L 434.990 16.198 L 433.968 15.675 L 430.270 13.844 L 429.219 13.340 L 425.503 11.618 L 424.423 11.135 L 420.690 9.522 L 419.583 9.061 L 415.833 7.559 L 414.699 7.123 L 410.934 5.731 L 409.775 5.321 L 405.996 4.040 L 404.812 3.657 L 401.020 2.489 L 399.813 2.135 L 396.010 1.078 L 394.781 0.755 L 390.968 -0.189 L 389.719 -0.480 L 385.897 -1.312 L 384.630 -1.568 L 380.800 -2.288 L 379.518 -2.509 L 375.680 -3.116 L 374.384 -3.301 L 370.541 -3.794 L 369.235 -3.943 L 365.387 -4.322 L 364.071 -4.433 L 360.220 -4.699 L 358.899 -4.771 L 355.045 -4.924 L 353.720 -4.957 L 349.866 -4.996 L 348.540 -4.990 L 344.686 -4.916 L 343.362 -4.871 L 339.509 -4.683 L 338.189 -4.599 L 334.339 -4.298 L 333.026 -4.176 L 329.179 -3.761 L 327.876 -3.601 L 324.034 -3.073 L 322.743 -2.877 L 318.907 -2.236 L 317.630 -2.003 L 313.801 -1.249 L 312.540 -0.982 L 308.720 -0.115 L 307.478 0.185 L 303.667 1.164 L 302.445 1.497 L 298.645 2.588 L 297.445 2.951 L 293.657 4.154 L 292.480 4.546 L 288.706 5.860 L 287.554 6.279 L 283.794 7.705 L 282.668 8.149 L 278.923 9.685 L 277.824 10.153 L 274.096 11.799 L 273.025 12.289 L 269.315 14.045 L 268.272 14.554 L 264.581 16.419 L 263.567 16.947 L 259.896 18.921 L 258.912 19.466 L 255.261 21.547 L 254.307 22.107 L 250.678 24.295 L 249.754 24.868 L 246.149 27.163 L 245.254 27.748 L 241.673 30.149 L 240.807 30.744 L 237.252 33.250 L 236.416 33.855 L 232.888 36.465 L 232.080 37.077 L 228.579 39.791 L 227.800 40.409 L 224.328 43.226 L 223.576 43.849 L 220.135 46.767 L 219.410 47.395 L 216.000 50.414 L 215.302 51.045 L 211.923 54.165 L 211.251 54.797 L 207.906 58.016 L 207.260 58.650 L 203.948 61.967 L 203.326 62.602 L 200.050 66.015 L 199.452 66.650 L 196.211 70.160 L 195.637 70.793 L 192.434 74.398 L 191.882 75.030 L 188.717 78.729 L 188.187 79.360 L 185.060 83.151 L 184.552 83.779 L 181.465 87.662 L 180.977 88.287 L 177.931 92.260 L 177.463 92.882 L 174.459 96.945 L 174.009 97.564 L 171.048 101.714 L 170.617 102.329 L 167.700 106.566 L 167.286 107.177 L 164.413 111.499 L 164.017 112.106 L 161.190 116.512 L 160.810 117.115 L 158.029 121.603 L 157.664 122.202 L 154.930 126.772 L 154.581 127.366 L 151.895 132.016 L 151.561 132.605 L 148.924 137.333 L 148.604 137.918 L 146.016 142.723 L 145.709 143.303 L 143.173 148.184 L 142.879 148.759 L 140.393 153.714 L 140.112 154.285 L 137.678 159.312 L 137.409 159.878 L 135.028 164.976 L 134.771 165.538 L 132.443 170.705 L 132.197 171.262 L 129.924 176.497 L 129.688 177.050 L 127.470 182.351 L 127.245 182.899 L 125.082 188.265 L 124.867 188.809 L 122.761 194.238 L 122.555 194.777 L 120.506 200.268 L 120.310 200.803 L 118.318 206.353 L 118.131 206.884 L 116.197 212.491 L 116.018 213.019 L 114.143 218.682 L 113.973 219.206 L 112.157 224.924 L 111.996 225.444 L 110.239 231.214 L 110.086 231.731 L 108.390 237.552 L 108.244 238.065 L 106.609 243.935 L 106.470 244.445 L 104.897 250.363 L 104.765 250.869 L 103.254 256.832 L 103.129 257.335 L 101.680 263.342 L 101.563 263.842 L 100.176 269.891 L 100.065 270.388 L 98.742 276.477 L 98.637 276.971 L 97.378 283.098 L 97.280 283.590 L 96.084 289.753 L 95.992 290.242 L 94.861 296.440 L 94.775 296.927 L 93.708 303.156 L 93.628 303.641 L 92.626 309.901 L 92.552 310.384 L 91.616 316.673 L 91.547 317.154 L 90.676 323.469 L 90.613 323.949 L 89.809 330.288 L 89.751 330.766 L 89.012 337.129 L 88.960 337.605 L 88.288 343.988 L 88.240 344.463 L 87.635 350.865 L 87.593 351.339 L 87.054 357.758 L 87.017 358.231 L 86.545 364.664 L 86.513 365.136 L 86.109 371.583 L 86.082 372.054 L 85.745 378.511 L 85.723 378.982 L 85.453 385.448 L 85.436 385.918 L 85.233 392.392 L 85.221 392.861 L 85.086 399.339 L 85.078 399.808 L 85.011 406.290 L 85.008 406.759 L 85.008 413.241 L 85.011 413.710 L 85.078 420.192 L 85.086 420.661 L 85.221 427.139 L 85.233 427.608 L 85.436 434.082 L 85.453 434.552 L 85.723 441.018 L 85.745 441.489 L 86.082 447.946 L 86.109 448.417 L 86.513 454.864 L 86.545 455.336 L 87.017 461.769 L 87.054 462.242 L 87.593 468.661 L 87.635 469.135 L 88.240 475.537 L 88.288 476.012 L 88.960 482.395 L 89.012 482.871 L 89.751 489.234 L 89.809 489.712 L 90.613 496.051 L 90.676 496.531 L 91.547 502.846 L 91.616 503.327 L 92.552 509.616 L 92.626 510.099 L 93.628 516.359 L 93.708 516.844 L 94.775 523.073 L 94.861 523.560 L 95.992 529.758 L 96.084 530.247 L 97.280 536.410 L 97.378 536.902 L 98.637 543.029 L 98.742 543.523 L 100.065 549.612 L 100.176 550.109 L 101.563 556.158 L 101.680 556.658 L 103.129 562.665 L 103.254 563.168 L 104.765 569.131 L 104.897 569.637 L 106.470 575.555 L 106.609 576.065 L 108.244 581.935 L 108.390 582.448 L 110.086 588.269 L 110.239 588.786 L 111.996 594.556 L 112.157 595.076 L 113.973 600.794 L 114.143 601.318 L 116.018 606.981 L 116.197 607.509 L 118.131 613.116 L 118.318 613.647 L 120.310 619.197 L 120.506 619.732 L 122.555 625.223 L 122.761 625.762 L 124.867 631.191 L 125.082 631.735 L 127.245 637.101 L 127.470 637.649 L 129.688 642.950 L 129.924 643.503 L 132.197 648.738 L 132.443 649.295 L 134.771 654.462 L 135.028 655.024 L 137.409 660.122 L 137.678 660.688 L 140.112 665.715 L 140.393 666.286 L 142.879 671.241 L 143.173 671.816 L 145.709 676.697 L 146.016 677.277 L 148.604 682.082 L 148.924 682.667 L 151.561 687.395 L 151.895 687.984 L 154.581 692.634 L 154.930 693.228 L 157.664 697.798 L 158.029 698.397 L 160.810 702.885 L 161.190 703.488 L 164.017 707.894 L 164.413 708.501 L 167.286 712.823 L 167.700 713.434 L 170.617 717.671 L 171.048 718.286 L 174.009 722.436 L 174.459 723.055 L 177.463 727.118 L 177.931 727.740 L 180.977 731.713 L 181.465 732.338 L 184.552 736.221 L 185.060 736.849 L 188.187 740.640 L 188.717 741.271 L 191.882 744.970 L 192.434 745.602 L 195.637 749.207 L 196.211 749.840 L 199.452 753.350 L 200.050 753.985 L 203.326 757.398 L 203.948 758.033 L 207.260 761.350 L 207.906 761.984 L 211.251 765.203 L 211.923 765.835 L 215.302 768.955 L 216.000 769.586 L 219.410 772.605 L 220.135 773.233 L 223.576 776.151 L 224.328 776.774 L 227.800 779.591 L 228.579 780.209 L 232.080 782.923 L 232.888 783.535 L 236.416 786.145 L 237.252 786.750 L 240.807 789.256 L 241.673 789.851 L 245.254 792.252 L 246.149 792.837 L 249.754 795.132 L 250.678 795.705 L 254.307 797.893 L 255.261 798.453 L 258.912 800.534 L 259.896 801.079 L 263.567 803.053 L 264.581 803.581 L 268.272 805.446 L 269.315 805.955 L 273.025 807.711 L 274.096 808.201 L 277.824 809.847 L 278.923 810.315 L 282.668 811.851 L 283.794 812.295 L 287.554 813.721 L 288.706 814.140 L 292.480 815.454 L 293.657 815.846 L 297.445 817.049 L 298.645 817.412 L 302.445 818.503 L 303.667 818.836 L 307.478 819.815 L 308.720 820.115 L 312.540 820.982 L 313.801 821.249 L 317.630 822.003 L 318.907 822.236 L 322.743 822.877 L 324.034 823.073 L 327.876 823.601 L 329.179 823.761 L 333.026 824.176 L 334.339 824.298 L 338.189 824.599 L 339.509 824.683 L 343.362 824.871 L 344.686 824.916 L 348.540 824.990 L 349.866 824.996 L 353.720 824.957 L 355.045 824.924 L 358.899 824.771 L 360.220 824.699 L 364.071 824.433 L 365.387 824.322 L 369.235 823.943 L 370.541 823.794 L 374.384 823.301 L 375.680 823.116 L 379.518 822.509 L 380.800 822.288 L 384.630 821.568 L 385.897 821.312 L 389.719 820.480 L 390.968 820.189 L 394.781 819.245 L 396.010 818.922 L 399.813 817.865 L 401.020 817.511 L 404.812 816.343 L 405.996 815.960 L 409.775 814.679 L 410.934 814.269 L 414.699 812.877 L 415.833 812.441 L 419.583 810.939 L 420.690 810.478 L 424.423 808.865 L 425.503 808.382 L 429.219 806.660 L 430.270 806.156 L 433.968 804.325 L 434.990 803.802 L 438.668 801.862 L 439.661 801.322 L 443.318 799.274 L 444.282 798.719 L 447.917 796.564 L 448.851 795.994 L 452.463 793.732 L 453.368 793.151 L 456.956 790.782 L 457.830 790.190 L 461.393 787.716 L 462.239 787.114 L 465.775 784.536 L 466.592 783.927 L 470.101 781.244 L 470.889 780.628 L 474.370 777.843 L 475.130 777.221 L 478.581 774.334 L 479.314 773.707 L 482.734 770.719 L 483.440 770.089 L 486.829 767.000 L 487.508 766.368 L 490.865 763.180 L 491.518 762.546 L 494.841 759.259 L 495.470 758.625 L 498.757 755.241 L 499.362 754.606 L 502.614 751.126 L 503.195 750.492 L 506.410 746.916 L 506.969 746.283 L 510.146 742.613 L 510.683 741.982 L 513.821 738.219 L 514.336 737.590 L 517.435 733.736 L 517.930 733.109 L 520.988 729.164 L 521.463 728.541 L 524.479 724.506 L 524.935 723.886 L 527.909 719.763 L 528.544 718.859 L 529.157 717.940 L 529.747 717.006 L 530.314 716.059 L 530.857 715.097 L 531.377 714.123 L 531.872 713.136 L 532.344 712.137 L 532.790 711.127 L 533.212 710.106 L 533.608 709.075 L 533.980 708.035 L 534.325 706.986 L 534.645 705.929 L 534.938 704.864 L 535.205 703.792 L 535.446 702.715 L 535.661 701.631 L 535.849 700.543 L 536.010 699.450 L 536.144 698.354 L 536.251 697.255 L 536.331 696.153 L 536.384 695.050 L 536.410 693.946 L 536.409 692.841 L 536.381 691.737 L 536.326 690.634 L 536.244 689.533 L 536.134 688.434 L 535.998 687.338 L 535.835 686.246 L 535.645 685.158 L 535.429 684.075 L 535.186 682.997 L 534.916 681.926 L 534.621 680.862 L 534.299 679.805 L 533.952 678.757 L 533.579 677.717 L 533.180 676.687 L 532.756 675.667 L 532.308 674.658 L 531.835 673.660 L 531.337 672.674 L 530.816 671.701 L 530.270 670.740 L 529.702 669.793 L 529.110 668.861 L 528.496 667.943 L 527.859 667.041 L 527.200 666.154 L 526.520 665.284 L 525.818 664.431 L 525.096 663.596 L 524.354 662.778 L 523.591 661.979 L 522.810 661.199 L 522.009 660.438 L 521.190 659.697 L 520.353 658.976 L 519.498 658.277 L 518.627 657.598 L 517.739 656.941 L 516.836 656.306 L 515.917 655.693 L 514.983 655.103 L 514.035 654.536 L 513.074 653.993 L 512.099 653.473 L 511.112 652.977 L 510.114 652.506 L 509.104 652.059 L 508.083 651.638 L 507.052 651.241 L 506.012 650.870 L 504.963 650.525 L 503.905 650.205 L 502.841 649.912 L 501.769 649.644 L 500.691 649.403 L 499.608 649.189 L 498.520 649.001 L 497.427 648.840 L 496.331 648.706 L 495.231 648.599 L 494.130 648.519 L 493.027 648.465 L 491.923 648.439 L 490.818 648.440 L 489.714 648.469 L 488.611 648.524 L 487.510 648.606 L 486.411 648.715 L 485.315 648.852 L 484.222 649.015 L 483.134 649.205 L 482.051 649.421 L 480.974 649.664 L 479.903 649.933 L 478.839 650.229 L 477.782 650.551 L 476.734 650.898 L 475.694 651.271 L 474.664 651.670 L 473.644 652.093 L 472.635 652.542 L 471.637 653.015 L 470.651 653.512 L 469.677 654.034 L 468.717 654.579 L 467.770 655.148 L 466.838 655.740 L 465.920 656.354 L 465.018 656.991 L 464.131 657.650 L 463.261 658.330 L 462.408 659.032 L 461.572 659.754 L 460.755 660.496 L 459.956 661.258 L 459.175 662.040 L 458.415 662.841 L 457.674 663.660 L 456.953 664.497 L 456.253 665.351 L 455.575 666.223 L 454.918 667.110 L 452.168 670.922 Z" fill="black" fill-rule="evenodd"/>
</svg>
