<svg xmlns="http://www.w3.org/2000/svg" viewBox="0 0 700.000 1000">
  <path d="M 461.890 656.728 L 459.344 660.636 L 456.768 664.449 L 454.164 668.165 L 451.532 671.783 L 448.876 675.302 L 446.196 678.721 L 443.495 682.038 L 440.775 685.253 L 438.036 688.366 L 435.283 691.375 L 432.515 694.280 L 429.735 697.081 L 426.946 699.777 L 424.149 702.367 L 421.345 704.853 L 418.537 707.234 L 415.727 709.510 L 412.916 711.682 L 410.106 713.749 L 407.299 715.713 L 404.496 717.574 L 401.699 719.333 L 398.909 720.991 L 396.127 722.549 L 393.355 724.008 L 390.593 725.369 L 387.842 726.634 L 385.102 727.804 L 382.375 728.880 L 379.659 729.865 L 376.956 730.758 L 374.264 731.563 L 371.584 732.280 L 368.914 732.910 L 366.254 733.455 L 363.603 733.916 L 360.960 734.295 L 358.324 734.591 L 355.692 734.806 L 353.064 734.940 L 350.438 734.994 L 347.812 734.967 L 345.184 734.860 L 342.554 734.672 L 339.919 734.403 L 337.278 734.052 L 334.630 733.618 L 331.974 733.101 L 329.307 732.499 L 326.631 731.811 L 323.943 731.036 L 321.243 730.172 L 318.532 729.219 L 315.808 728.173 L 313.073 727.034 L 310.325 725.801 L 307.567 724.472 L 304.798 723.046 L 302.019 721.522 L 299.232 719.897 L 296.437 718.172 L 293.636 716.345 L 290.830 714.415 L 288.021 712.383 L 285.210 710.246 L 282.399 708.005 L 279.591 705.659 L 276.785 703.208 L 273.986 700.652 L 271.193 697.991 L 268.410 695.225 L 265.638 692.355 L 262.880 689.380 L 260.136 686.302 L 257.410 683.121 L 254.702 679.838 L 252.015 676.453 L 249.350 672.967 L 246.710 669.382 L 244.097 665.699 L 241.511 661.918 L 238.955 658.041 L 236.430 654.070 L 233.939 650.005 L 231.482 645.848 L 229.062 641.600 L 226.679 637.264 L 224.335 632.840 L 222.033 628.330 L 219.772 623.737 L 217.555 619.061 L 215.383 614.305 L 213.257 609.471 L 211.178 604.559 L 209.148 599.573 L 207.167 594.514 L 205.238 589.384 L 203.360 584.185 L 201.535 578.918 L 199.765 573.587 L 198.049 568.194 L 196.389 562.739 L 194.786 557.226 L 193.240 551.656 L 191.753 546.032 L 190.325 540.356 L 188.957 534.630 L 187.649 528.856 L 186.403 523.036 L 185.219 517.174 L 184.097 511.270 L 183.038 505.328 L 182.043 499.349 L 181.112 493.336 L 180.246 487.291 L 179.444 481.217 L 178.709 475.115 L 178.038 468.989 L 177.434 462.840 L 176.897 456.671 L 176.425 450.484 L 176.021 444.282 L 175.684 438.067 L 175.414 431.841 L 175.212 425.607 L 175.077 419.366 L 175.009 413.123 L 175.009 406.877 L 175.077 400.634 L 175.212 394.393 L 175.414 388.159 L 175.684 381.933 L 176.021 375.718 L 176.425 369.516 L 176.897 363.329 L 177.434 357.160 L 178.038 351.011 L 178.709 344.885 L 179.444 338.783 L 180.246 332.709 L 181.112 326.664 L 182.043 320.651 L 183.038 314.672 L 184.097 308.730 L 185.219 302.826 L 186.403 296.964 L 187.649 291.144 L 188.957 285.370 L 190.325 279.644 L 191.753 273.968 L 193.240 268.344 L 194.786 262.774 L 196.389 257.261 L 198.049 251.806 L 199.765 246.413 L 201.535 241.082 L 203.360 235.815 L 205.238 230.616 L 207.167 225.486 L 209.148 220.427 L 211.178 215.441 L 213.257 210.529 L 215.383 205.695 L 217.555 200.939 L 219.772 196.263 L 222.033 191.670 L 224.335 187.160 L 226.679 182.736 L 229.062 178.400 L 231.482 174.152 L 233.939 169.995 L 236.430 165.930 L 238.955 161.959 L 241.511 158.082 L 244.097 154.301 L 246.710 150.618 L 249.350 147.033 L 252.015 143.547 L 254.702 140.162 L 257.410 136.879 L 260.136 133.698 L 262.880 130.620 L 265.638 127.645 L 268.410 124.775 L 271.193 122.009 L 273.986 119.348 L 276.785 116.792 L 279.591 114.341 L 282.399 111.995 L 285.210 109.754 L 288.021 107.617 L 290.830 105.585 L 293.636 103.655 L 296.437 101.828 L 299.232 100.103 L 302.019 98.478 L 304.798 96.954 L 307.567 95.528 L 310.325 94.199 L 313.073 92.966 L 315.808 91.827 L 318.532 90.781 L 321.243 89.828 L 323.943 88.964 L 326.631 88.189 L 329.307 87.501 L 331.974 86.899 L 334.630 86.382 L 337.278 85.948 L 339.919 85.597 L 342.554 85.328 L 345.184 85.140 L 347.812 85.033 L 350.438 85.006 L 353.064 85.060 L 355.692 85.194 L 358.324 85.409 L 360.960 85.705 L 363.603 86.084 L 366.254 86.545 L 368.914 87.090 L 371.584 87.720 L 374.264 88.437 L 376.956 89.242 L 379.659 90.135 L 382.375 91.120 L 385.102 92.196 L 387.842 93.366 L 390.593 94.631 L 393.355 95.992 L 396.127 97.451 L 398.909 99.009 L 401.699 100.667 L 404.496 102.426 L 407.299 104.287 L 410.106 106.251 L 412.916 108.318 L 415.727 110.490 L 418.537 112.766 L 421.345 115.147 L 424.149 117.633 L 426.946 120.223 L 429.735 122.919 L 432.515 125.720 L 435.283 128.625 L 438.036 131.634 L 440.775 134.747 L 443.495 137.962 L 446.196 141.279 L 448.876 144.698 L 451.532 148.217 L 454.164 151.835 L 456.768 155.551 L 459.344 159.364 L 461.890 163.272 L 464.404 167.275 L 467.070 171.679 L 467.654 172.616 L 468.260 173.539 L 468.889 174.447 L 469.540 175.339 L 470.213 176.215 L 470.907 177.074 L 471.622 177.916 L 472.357 178.740 L 473.112 179.546 L 473.887 180.333 L 474.681 181.101 L 475.494 181.849 L 476.324 182.577 L 477.173 183.284 L 478.038 183.970 L 478.920 184.635 L 479.818 185.278 L 480.732 185.899 L 481.660 186.497 L 482.603 187.072 L 483.560 187.624 L 484.530 188.152 L 485.512 188.656 L 486.507 189.136 L 487.513 189.592 L 488.530 190.022 L 489.557 190.428 L 490.594 190.808 L 491.640 191.162 L 492.695 191.491 L 493.757 191.794 L 494.826 192.071 L 495.902 192.321 L 496.983 192.545 L 498.070 192.742 L 499.161 192.913 L 500.256 193.056 L 501.354 193.173 L 502.455 193.263 L 503.558 193.326 L 504.662 193.361 L 505.766 193.370 L 506.870 193.352 L 507.974 193.306 L 509.076 193.233 L 510.176 193.133 L 511.273 193.007 L 512.367 192.853 L 513.456 192.673 L 514.541 192.466 L 515.621 192.232 L 516.694 191.972 L 517.761 191.686 L 518.820 191.374 L 519.871 191.035 L 520.914 190.671 L 521.948 190.282 L 522.971 189.867 L 523.984 189.427 L 524.986 188.963 L 525.977 188.474 L 526.955 187.961 L 527.920 187.424 L 528.872 186.864 L 529.809 186.280 L 530.732 185.674 L 531.640 185.045 L 532.532 184.394 L 533.408 183.721 L 534.267 183.027 L 535.109 182.312 L 535.933 181.577 L 536.739 180.822 L 537.526 180.047 L 538.294 179.253 L 539.042 178.440 L 539.770 177.610 L 540.477 176.761 L 541.163 175.896 L 541.828 175.014 L 542.471 174.116 L 543.092 173.202 L 543.690 172.274 L 544.265 171.331 L 544.817 170.374 L 545.345 169.404 L 545.849 168.422 L 546.329 167.427 L 546.785 166.421 L 547.215 165.404 L 547.621 164.377 L 548.001 163.340 L 548.355 162.294 L 548.684 161.239 L 548.987 160.177 L 549.264 159.108 L 549.514 158.032 L 549.738 156.951 L 549.935 155.864 L 550.106 154.773 L 550.249 153.678 L 550.366 152.580 L 550.456 151.479 L 550.519 150.376 L 550.554 149.272 L 550.563 148.168 L 550.545 147.064 L 550.499 145.960 L 550.426 144.858 L 550.326 143.758 L 550.200 142.661 L 550.046 141.567 L 549.866 140.478 L 549.659 139.393 L 549.425 138.313 L 549.165 137.240 L 548.879 136.173 L 548.567 135.114 L 548.228 134.063 L 547.864 133.020 L 547.475 131.986 L 547.060 130.963 L 546.620 129.950 L 546.156 128.948 L 545.667 127.957 L 545.154 126.979 L 544.617 126.014 L 544.057 125.062 L 541.201 120.346 L 540.816 119.723 L 537.910 115.094 L 537.508 114.466 L 534.552 109.927 L 534.133 109.295 L 531.128 104.848 L 530.690 104.211 L 527.638 99.856 L 527.180 99.215 L 524.081 94.954 L 523.603 94.310 L 520.459 90.144 L 519.960 89.496 L 516.771 85.428 L 516.251 84.777 L 513.018 80.807 L 512.475 80.153 L 509.200 76.282 L 508.634 75.626 L 505.318 71.856 L 504.728 71.198 L 501.371 67.531 L 500.756 66.872 L 497.360 63.308 L 496.719 62.648 L 493.286 59.189 L 492.618 58.530 L 489.148 55.176 L 488.453 54.518 L 484.946 51.271 L 484.224 50.616 L 480.683 47.476 L 479.931 46.825 L 476.357 43.794 L 475.576 43.147 L 471.970 40.226 L 471.158 39.584 L 467.521 36.774 L 466.679 36.139 L 463.012 33.441 L 462.139 32.815 L 458.444 30.229 L 457.539 29.613 L 453.816 27.140 L 452.880 26.535 L 449.131 24.178 L 448.163 23.586 L 444.388 21.343 L 443.388 20.766 L 439.591 18.639 L 438.559 18.079 L 434.739 16.069 L 433.675 15.527 L 429.834 13.634 L 428.739 13.113 L 424.878 11.337 L 423.753 10.839 L 419.874 9.182 L 418.719 8.708 L 414.822 7.170 L 413.638 6.722 L 409.726 5.304 L 408.515 4.884 L 404.587 3.586 L 403.350 3.197 L 399.409 2.019 L 398.148 1.662 L 394.195 0.605 L 392.911 0.281 L 388.947 -0.655 L 387.643 -0.942 L 383.669 -1.757 L 382.347 -2.007 L 378.366 -2.700 L 377.027 -2.912 L 373.039 -3.483 L 371.687 -3.656 L 367.693 -4.105 L 366.331 -4.237 L 362.333 -4.563 L 360.963 -4.654 L 356.962 -4.858 L 355.587 -4.907 L 351.585 -4.989 L 350.208 -4.996 L 346.205 -4.955 L 344.830 -4.920 L 340.828 -4.757 L 339.456 -4.680 L 335.457 -4.394 L 334.092 -4.276 L 330.097 -3.868 L 328.741 -3.708 L 324.751 -3.178 L 323.408 -2.979 L 319.424 -2.327 L 318.096 -2.089 L 314.120 -1.315 L 312.809 -1.039 L 308.842 -0.144 L 307.551 0.168 L 303.594 1.184 L 302.325 1.530 L 298.380 2.668 L 297.135 3.047 L 293.202 4.305 L 291.983 4.715 L 288.065 6.093 L 286.872 6.531 L 282.970 8.029 L 281.805 8.495 L 277.920 10.112 L 276.785 10.603 L 272.917 12.339 L 271.812 12.853 L 267.964 14.707 L 266.890 15.242 L 263.063 17.213 L 262.021 17.767 L 258.215 19.855 L 257.205 20.427 L 253.423 22.631 L 252.444 23.218 L 248.686 25.538 L 247.739 26.139 L 244.007 28.573 L 243.092 29.186 L 239.388 31.733 L 238.504 32.357 L 234.827 35.018 L 233.975 35.650 L 230.328 38.423 L 229.506 39.062 L 225.890 41.946 L 225.099 42.592 L 221.514 45.586 L 220.752 46.236 L 217.200 49.340 L 216.468 49.994 L 212.950 53.205 L 212.246 53.862 L 208.763 57.181 L 208.087 57.839 L 204.641 61.264 L 203.991 61.923 L 200.583 65.453 L 199.959 66.112 L 196.589 69.745 L 195.991 70.403 L 192.661 74.139 L 192.087 74.796 L 188.798 78.633 L 188.247 79.287 L 185.000 83.225 L 184.473 83.877 L 181.269 87.913 L 180.763 88.562 L 177.604 92.695 L 177.119 93.341 L 174.005 97.570 L 173.541 98.212 L 170.473 102.536 L 170.028 103.174 L 167.007 107.591 L 166.582 108.224 L 163.609 112.733 L 163.202 113.362 L 160.279 117.961 L 159.889 118.586 L 157.016 123.273 L 156.643 123.893 L 153.821 128.668 L 153.464 129.283 L 150.694 134.143 L 150.353 134.753 L 147.636 139.697 L 147.310 140.302 L 144.647 145.328 L 144.335 145.929 L 141.727 151.036 L 141.429 151.631 L 138.877 156.817 L 138.592 157.407 L 136.096 162.670 L 135.824 163.255 L 133.385 168.594 L 133.125 169.174 L 130.745 174.586 L 130.497 175.161 L 128.176 180.646 L 127.939 181.216 L 125.677 186.771 L 125.451 187.336 L 123.250 192.959 L 123.035 193.520 L 120.895 199.210 L 120.690 199.766 L 118.612 205.520 L 118.416 206.072 L 116.401 211.889 L 116.215 212.437 L 114.263 218.314 L 114.086 218.858 L 112.198 224.793 L 112.030 225.333 L 110.206 231.326 L 110.047 231.862 L 108.288 237.909 L 108.137 238.442 L 106.444 244.542 L 106.301 245.070 L 104.674 251.221 L 104.539 251.747 L 102.979 257.946 L 102.851 258.468 L 101.359 264.715 L 101.238 265.233 L 99.813 271.524 L 99.700 272.040 L 98.343 278.374 L 98.237 278.886 L 96.949 285.261 L 96.849 285.771 L 95.631 292.183 L 95.537 292.691 L 94.388 299.139 L 94.301 299.644 L 93.222 306.127 L 93.142 306.630 L 92.133 313.144 L 92.058 313.645 L 91.120 320.190 L 91.052 320.688 L 90.185 327.260 L 90.122 327.757 L 89.326 334.355 L 89.269 334.850 L 88.545 341.471 L 88.494 341.964 L 87.841 348.606 L 87.796 349.098 L 87.215 355.759 L 87.175 356.250 L 86.667 362.928 L 86.632 363.418 L 86.196 370.109 L 86.167 370.599 L 85.803 377.303 L 85.779 377.791 L 85.488 384.505 L 85.470 384.993 L 85.251 391.715 L 85.238 392.202 L 85.092 398.929 L 85.085 399.416 L 85.012 406.147 L 85.009 406.634 L 85.009 413.366 L 85.012 413.853 L 85.085 420.584 L 85.092 421.071 L 85.238 427.798 L 85.251 428.285 L 85.470 435.007 L 85.488 435.495 L 85.779 442.209 L 85.803 442.697 L 86.167 449.401 L 86.196 449.891 L 86.632 456.582 L 86.667 457.072 L 87.175 463.750 L 87.215 464.241 L 87.796 470.902 L 87.841 471.394 L 88.494 478.036 L 88.545 478.529 L 89.269 485.150 L 89.326 485.645 L 90.122 492.243 L 90.185 492.740 L 91.052 499.312 L 91.120 499.810 L 92.058 506.355 L 92.133 506.856 L 93.142 513.370 L 93.222 513.873 L 94.301 520.356 L 94.388 520.861 L 95.537 527.309 L 95.631 527.817 L 96.849 534.229 L 96.949 534.739 L 98.237 541.114 L 98.343 541.626 L 99.700 547.960 L 99.813 548.476 L 101.238 554.767 L 101.359 555.285 L 102.851 561.532 L 102.979 562.054 L 104.539 568.253 L 104.674 568.779 L 106.301 574.930 L 106.444 575.458 L 108.137 581.558 L 108.288 582.091 L 110.047 588.138 L 110.206 588.674 L 112.030 594.667 L 112.198 595.207 L 114.086 601.142 L 114.263 601.686 L 116.215 607.563 L 116.401 608.111 L 118.416 613.928 L 118.612 614.480 L 120.690 620.234 L 120.895 620.790 L 123.035 626.480 L 123.250 627.041 L 125.451 632.664 L 125.677 633.229 L 127.939 638.784 L 128.176 639.354 L 130.497 644.839 L 130.745 645.414 L 133.125 650.826 L 133.385 651.406 L 135.824 656.745 L 136.096 657.330 L 138.592 662.593 L 138.877 663.183 L 141.429 668.369 L 141.727 668.964 L 144.335 674.071 L 144.647 674.672 L 147.310 679.698 L 147.636 680.303 L 150.353 685.247 L 150.694 685.857 L 153.464 690.717 L 153.821 691.332 L 156.643 696.107 L 157.016 696.727 L 159.889 701.414 L 160.279 702.039 L 163.202 706.638 L 163.609 707.267 L 166.582 711.776 L 167.007 712.409 L 170.028 716.826 L 170.473 717.464 L 173.541 721.788 L 174.005 722.430 L 177.119 726.659 L 177.604 727.305 L 180.763 731.438 L 181.269 732.087 L 184.473 736.123 L 185.000 736.775 L 188.247 740.713 L 188.798 741.367 L 192.087 745.204 L 192.661 745.861 L 195.991 749.597 L 196.589 750.255 L 199.959 753.888 L 200.583 754.547 L 203.991 758.077 L 204.641 758.736 L 208.087 762.161 L 208.763 762.819 L 212.246 766.138 L 212.950 766.795 L 216.468 770.006 L 217.200 770.660 L 220.752 773.764 L 221.514 774.414 L 225.099 777.408 L 225.890 778.054 L 229.506 780.938 L 230.328 781.577 L 233.975 784.350 L 234.827 784.982 L 238.504 787.643 L 239.388 788.267 L 243.092 790.814 L 244.007 791.427 L 247.739 793.861 L 248.686 794.462 L 252.444 796.782 L 253.423 797.369 L 257.205 799.573 L 258.215 800.145 L 262.021 802.233 L 263.063 802.787 L 266.890 804.758 L 267.964 805.293 L 271.812 807.147 L 272.917 807.661 L 276.785 809.397 L 277.920 809.888 L 281.805 811.505 L 282.970 811.971 L 286.872 813.469 L 288.065 813.907 L 291.983 815.285 L 293.202 815.695 L 297.135 816.953 L 298.380 817.332 L 302.325 818.470 L 303.594 818.816 L 307.551 819.832 L 308.842 820.144 L 312.809 821.039 L 314.120 821.315 L 318.096 822.089 L 319.424 822.327 L 323.408 822.979 L 324.751 823.178 L 328.741 823.708 L 330.097 823.868 L 334.092 824.276 L 335.457 824.394 L 339.456 824.680 L 340.828 824.757 L 344.830 824.920 L 346.205 824.955 L 350.208 824.996 L 351.585 824.989 L 355.587 824.907 L 356.962 824.858 L 360.963 824.654 L 362.333 824.563 L 366.331 824.237 L 367.693 824.105 L 371.687 823.656 L 373.039 823.483 L 377.027 822.912 L 378.366 822.700 L 382.347 822.007 L 383.669 821.757 L 387.643 820.942 L 388.947 820.655 L 392.911 819.719 L 394.195 819.395 L 398.148 818.338 L 399.409 817.981 L 403.350 816.803 L 404.587 816.414 L 408.515 815.116 L 409.726 814.696 L 413.638 813.278 L 414.822 812.830 L 418.719 811.292 L 419.874 810.818 L 423.753 809.161 L 424.878 808.663 L 428.739 806.887 L 429.834 806.366 L 433.675 804.473 L 434.739 803.931 L 438.559 801.921 L 439.591 801.361 L 443.388 799.234 L 444.388 798.657 L 448.163 796.414 L 449.131 795.822 L 452.880 793.465 L 453.816 792.860 L 457.539 790.387 L 458.444 789.771 L 462.139 787.185 L 463.012 786.559 L 466.679 783.861 L 467.521 783.226 L 471.158 780.416 L 471.970 779.774 L 475.576 776.853 L 476.357 776.206 L 479.931 773.175 L 480.683 772.524 L 484.224 769.384 L 484.946 768.729 L 488.453 765.482 L 489.148 764.824 L 492.618 761.470 L 493.286 760.811 L 496.719 757.352 L 497.360 756.692 L 500.756 753.128 L 501.371 752.469 L 504.728 748.802 L 505.318 748.144 L 508.634 744.374 L 509.200 743.718 L 512.475 739.847 L 513.018 739.193 L 516.251 735.223 L 516.771 734.572 L 519.960 730.504 L 520.459 729.856 L 523.603 725.690 L 524.081 725.046 L 527.180 720.785 L 527.638 720.144 L 530.690 715.789 L 531.128 715.152 L 534.133 710.705 L 534.552 710.073 L 537.508 705.534 L 537.910 704.906 L 540.816 700.277 L 541.201 699.654 L 544.057 694.938 L 544.617 693.986 L 545.154 693.021 L 545.667 692.043 L 546.156 691.052 L 546.620 690.050 L 547.060 689.037 L 547.475 688.014 L 547.864 686.980 L 548.228 685.937 L 548.567 684.886 L 548.879 683.827 L 549.165 682.760 L 549.425 681.687 L 549.659 680.607 L 549.866 679.522 L 550.046 678.433 L 550.200 677.339 L 550.326 676.242 L 550.426 675.142 L 550.499 674.040 L 550.545 672.936 L 550.563 671.832 L 550.554 670.728 L 550.519 669.624 L 550.456 668.521 L 550.366 667.420 L 550.249 666.322 L 550.106 665.227 L 549.935 664.136 L 549.738 663.049 L 549.514 661.968 L 549.264 660.892 L 548.987 659.823 L 548.684 658.761 L 548.355 657.706 L 548.001 656.660 L 547.621 655.623 L 547.215 654.596 L 546.785 653.579 L 546.329 652.573 L 545.849 651.578 L 545.345 650.596 L 544.817 649.626 L 544.265 648.669 L 543.690 647.726 L 543.092 646.798 L 542.471 645.884 L 541.828 644.986 L 541.163 644.104 L 540.477 643.239 L 539.770 642.390 L 539.042 641.560 L 538.294 640.747 L 537.526 639.953 L 536.739 639.178 L 535.933 638.423 L 535.109 637.688 L 534.267 636.973 L 533.408 636.279 L 532.532 635.606 L 531.640 634.955 L 530.732 634.326 L 529.809 633.720 L 528.872 633.136 L 527.920 632.576 L 526.955 632.039 L 525.977 631.526 L 524.986 631.037 L 523.984 630.573 L 522.971 630.133 L 521.948 629.718 L 520.914 629.329 L 519.871 628.965 L 518.820 628.626 L 517.761 628.314 L 516.694 628.028 L 515.621 627.768 L 514.541 627.534 L 513.456 627.327 L 512.367 627.147 L 511.273 626.993 L 510.176 626.867 L 509.076 626.767 L 507.974 626.694 L 506.870 626.648 L 505.766 626.630 L 504.662 626.639 L 503.558 626.674 L 502.455 626.737 L 501.354 626.827 L 500.256 626.944 L 499.161 627.087 L 498.070 627.258 L 496.983 627.455 L 495.902 627.679 L 494.826 627.929 L 493.757 628.206 L 492.695 628.509 L 491.640 628.838 L 490.594 629.192 L 489.557 629.572 L 488.530 629.978 L 487.513 630.408 L 486.507 630.864 L 485.512 631.344 L 484.530 631.848 L 483.560 632.376 L 482.603 632.928 L 481.660 633.503 L 480.732 634.101 L 479.818 634.722 L 478.920 635.365 L 478.038 636.030 L 477.173 636.716 L 476.324 637.423 L 475.494 638.151 L 474.681 638.899 L 473.887 639.667 L 473.112 640.454 L 472.357 641.260 L 471.622 642.084 L 470.907 642.926 L 470.213 643.785 L 469.540 644.661 L 468.889 645.553 L 468.260 646.461 L 467.654 647.384 L 467.070 648.321 L 464.404 652.725 L 461.890 656.728 Z M 472.104 464.986 L 473.208 464.946 L 474.310 464.878 L 475.411 464.783 L 476.508 464.662 L 477.603 464.513 L 478.693 464.337 L 479.779 464.135 L 480.860 463.907 L 481.934 463.651 L 483.002 463.370 L 484.063 463.062 L 485.116 462.729 L 486.160 462.369 L 487.195 461.985 L 488.221 461.575 L 489.236 461.139 L 490.240 460.680 L 491.233 460.195 L 492.213 459.686 L 493.180 459.154 L 494.135 458.598 L 495.075 458.018 L 496.001 457.416 L 496.911 456.791 L 497.806 456.144 L 498.685 455.476 L 499.548 454.785 L 500.393 454.074 L 501.220 453.343 L 502.029 452.591 L 502.820 451.820 L 503.591 451.029 L 504.343 450.220 L 505.074 449.393 L 505.785 448.548 L 506.476 447.685 L 507.144 446.806 L 507.791 445.911 L 508.416 445.001 L 509.018 444.075 L 509.598 443.135 L 510.154 442.180 L 510.686 441.213 L 511.195 440.233 L 511.680 439.240 L 512.139 438.236 L 512.575 437.221 L 512.985 436.195 L 513.369 435.160 L 513.729 434.116 L 514.062 433.063 L 514.370 432.002 L 514.651 430.934 L 514.907 429.860 L 515.135 428.779 L 515.337 427.693 L 515.513 426.603 L 515.662 425.508 L 515.783 424.411 L 515.878 423.310 L 515.946 422.208 L 515.986 421.104 L 516.000 420.000 L 515.986 418.896 L 515.946 417.792 L 515.878 416.690 L 515.783 415.589 L 515.662 414.492 L 515.513 413.397 L 515.337 412.307 L 515.135 411.221 L 514.907 410.140 L 514.651 409.066 L 514.370 407.998 L 514.062 406.937 L 513.729 405.884 L 513.369 404.840 L 512.985 403.805 L 512.575 402.779 L 512.139 401.764 L 511.680 400.760 L 511.195 399.767 L 510.686 398.787 L 510.154 397.820 L 509.598 396.865 L 509.018 395.925 L 508.416 394.999 L 507.791 394.089 L 507.144 393.194 L 506.476 392.315 L 505.785 391.452 L 505.074 390.607 L 504.343 389.780 L 503.591 388.971 L 502.820 388.180 L 502.029 387.409 L 501.220 386.657 L 500.393 385.926 L 499.548 385.215 L 498.685 384.524 L 497.806 383.856 L 496.911 383.209 L 496.001 382.584 L 495.075 381.982 L 494.135 381.402 L 493.180 380.846 L 492.213 380.314 L 491.233 379.805 L 490.240 379.320 L 489.236 378.861 L 488.221 378.425 L 487.195 378.015 L 486.160 377.631 L 485.116 377.271 L 484.063 376.938 L 483.002 376.630 L 481.934 376.349 L 480.860 376.093 L 479.779 375.865 L 478.693 375.663 L 477.603 375.487 L 476.508 375.338 L 475.411 375.217 L 474.310 375.122 L 473.208 375.054 L 472.104 375.014 L 471.000 375.000 L 340.000 375.000 L 338.896 375.014 L 337.792 375.054 L 336.690 375.122 L 335.589 375.217 L 334.492 375.338 L 333.397 375.487 L 332.307 375.663 L 331.221 375.865 L 330.140 376.093 L 329.066 376.349 L 327.998 376.630 L 326.937 376.938 L 325.884 377.271 L 324.840 377.631 L 323.805 378.015 L 322.779 378.425 L 321.764 378.861 L 320.760 379.320 L 319.767 379.805 L 318.787 380.314 L 317.820 380.846 L 316.865 381.402 L 315.925 381.982 L 314.999 382.584 L 314.089 383.209 L 313.194 383.856 L 312.315 384.524 L 311.452 385.215 L 310.607 385.926 L 309.780 386.657 L 308.971 387.409 L 308.180 388.180 L 307.409 388.971 L 306.657 389.780 L 305.926 390.607 L 305.215 391.452 L 304.524 392.315 L 303.856 393.194 L 303.209 394.089 L 302.584 394.999 L 301.982 395.925 L 301.402 396.865 L 300.846 397.820 L 300.314 398.787 L 299.805 399.767 L 299.320 400.760 L 298.861 401.764 L 298.425 402.779 L 298.015 403.805 L 297.631 404.840 L 297.271 405.884 L 296.938 406.937 L 296.630 407.998 L 296.349 409.066 L 296.093 410.140 L 295.865 411.221 L 295.663 412.307 L 295.487 413.397 L 295.338 414.492 L 295.217 415.589 L 295.122 416.690 L 295.054 417.792 L 295.014 418.896 L 295.000 420.000 L 295.014 421.104 L 295.054 422.208 L 295.122 423.310 L 295.217 424.411 L 295.338 425.508 L 295.487 426.603 L 295.663 427.693 L 295.865 428.779 L 296.093 429.860 L 296.349 430.934 L 296.630 432.002 L 296.938 433.063 L 297.271 434.116 L 297.631 435.160 L 298.015 436.195 L 298.425 437.221 L 298.861 438.236 L 299.320 439.240 L 299.805 440.233 L 300.314 441.213 L 300.846 442.180 L 301.402 443.135 L 301.982 444.075 L 302.584 445.001 L 303.209 445.911 L 303.856 446.806 L 304.524 447.685 L 305.215 448.548 L 305.926 449.393 L 306.657 450.220 L 307.409 451.029 L 308.180 451.820 L 308.971 452.591 L 309.780 453.343 L 310.607 454.074 L 311.452 454.785 L 312.315 455.476 L 313.194 456.144 L 314.089 456.791 L 314.999 457.416 L 315.925 458.018 L 316.865 458.598 L 317.820 459.154 L 318.787 459.686 L 319.767 460.195 L 320.760 460.680 L 321.764 461.139 L 322.779 461.575 L 323.805 461.985 L 324.840 462.369 L 325.884 462.729 L 326.937 463.062 L 327.998 463.370 L 329.066 463.651 L 330.140 463.907 L 331.221 464.135 L 332.307 464.337 L 333.397 464.513 L 334.492 464.662 L 335.589 464.783 L 336.690 464.878 L 337.792 464.946 L 338.896 464.986 L 340.000 465.000 L 471.000 465.000 L 472.104 464.986 Z" fill="black" fill-rule="evenodd"/>
</svg>
