<svg xmlns="http://www.w3.org/2000/svg" viewBox="0 0 700.000 1000.000">
  <path d="M 614.411,735.217 L 616.603,735.487 L 618.779,735.865 L 620.934,736.349 L 623.063,736.938 L 625.160,737.631 L 627.221,738.425 L 629.240,739.320 L 631.213,740.314 L 633.135,741.402 L 635.001,742.584 L 636.806,743.856 L 638.548,745.215 L 640.220,746.657 L 641.820,748.180 L 643.343,749.780 L 644.785,751.452 L 646.144,753.194 L 647.416,754.999 L 648.598,756.865 L 649.686,758.787 L 650.680,760.760 L 651.575,762.779 L 652.369,764.840 L 653.062,766.937 L 653.651,769.066 L 654.135,771.221 L 654.513,773.397 L 654.783,775.589 L 654.946,777.792 L 655.000,780.000 L 654.946,782.208 L 654.783,784.411 L 654.513,786.603 L 654.135,788.779 L 653.651,790.934 L 653.062,793.063 L 652.369,795.160 L 651.575,797.221 L 650.680,799.240 L 649.686,801.213 L 648.598,803.135 L 647.416,805.001 L 646.144,806.806 L 644.785,808.548 L 643.343,810.220 L 641.820,811.820 L 640.220,813.343 L 638.548,814.785 L 636.806,816.144 L 635.001,817.416 L 633.135,818.598 L 631.213,819.686 L 629.240,820.680 L 627.221,821.575 L 625.160,822.369 L 623.063,823.062 L 620.934,823.651 L 618.779,824.135 L 616.603,824.513 L 614.411,824.783 L 612.208,824.946 L 610.000,825.000 L 90.000,825.000 L 87.792,824.946 L 85.589,824.783 L 83.397,824.513 L 81.221,824.135 L 79.066,823.651 L 76.937,823.062 L 74.840,822.369 L 72.779,821.575 L 70.760,820.680 L 68.787,819.686 L 66.865,818.598 L 64.999,817.416 L 63.194,816.144 L 61.452,814.785 L 59.780,813.343 L 58.180,811.820 L 56.657,810.220 L 55.215,808.548 L 53.856,806.806 L 52.584,805.001 L 51.402,803.135 L 50.314,801.213 L 49.320,799.240 L 48.425,797.221 L 47.631,795.160 L 46.938,793.063 L 46.349,790.934 L 45.865,788.779 L 45.487,786.603 L 45.217,784.411 L 45.054,782.208 L 45.000,780.000 L 45.000,40.000 L 45.054,37.792 L 45.217,35.589 L 45.487,33.397 L 45.865,31.221 L 46.349,29.066 L 46.938,26.937 L 47.631,24.840 L 48.425,22.779 L 49.320,20.760 L 50.314,18.787 L 51.402,16.865 L 52.584,14.999 L 53.856,13.194 L 55.215,11.452 L 56.657,9.780 L 58.180,8.180 L 59.780,6.657 L 61.452,5.215 L 63.194,3.856 L 64.999,2.584 L 66.865,1.402 L 68.787,0.314 L 70.760,-0.680 L 72.779,-1.575 L 74.840,-2.369 L 76.937,-3.062 L 79.066,-3.651 L 81.221,-4.135 L 83.397,-4.513 L 85.589,-4.783 L 87.792,-4.946 L 90.000,-5.000 L 610.000,-5.000 L 612.208,-4.946 L 614.411,-4.783 L 616.603,-4.513 L 618.779,-4.135 L 620.934,-3.651 L 623.063,-3.062 L 625.160,-2.369 L 627.221,-1.575 L 629.240,-0.680 L 631.213,0.314 L 633.135,1.402 L 635.001,2.584 L 636.806,3.856 L 638.548,5.215 L 640.220,6.657 L 641.820,8.180 L 643.343,9.780 L 644.785,11.452 L 646.144,13.194 L 647.416,14.999 L 648.598,16.865 L 649.686,18.787 L 650.680,20.760 L 651.575,22.779 L 652.369,24.840 L 653.062,26.937 L 653.651,29.066 L 654.135,31.221 L 654.513,33.397 L 654.783,35.589 L 654.946,37.792 L 655.000,40.000 L 654.946,42.208 L 654.783,44.411 L 654.513,46.603 L 654.135,48.779 L 653.651,50.934 L 653.062,53.063 L 652.369,55.160 L 651.575,57.221 L 650.680,59.240 L 649.686,61.213 L 648.598,63.135 L 647.416,65.001 L 646.144,66.806 L 644.785,68.548 L 643.343,70.220 L 641.820,71.820 L 640.220,73.343 L 638.548,74.785 L 636.806,76.144 L 635.001,77.416 L 633.135,78.598 L 631.213,79.686 L 629.240,80.680 L 627.221,81.575 L 625.160,82.369 L 623.063,83.062 L 620.934,83.651 L 618.779,84.135 L 616.603,84.513 L 614.411,84.783 L 612.208,84.946 L 610.000,85.000 L 550.221,85.000 L 551.072,85.461 L 552.627,86.346 L 563.247,92.666 L 564.767,93.612 L 575.127,100.350 L 576.607,101.355 L 586.692,108.500 L 588.131,109.563 L 597.923,117.103 L 599.319,118.222 L 608.804,126.145 L 610.154,127.320 L 619.317,135.614 L 620.619,136.841 L 629.445,145.492 L 630.697,146.770 L 639.172,155.766 L 640.373,157.092 L 648.483,166.418 L 649.630,167.791 L 657.363,177.432 L 658.455,178.850 L 665.798,188.790 L 666.833,190.250 L 673.775,200.475 L 674.751,201.975 L 681.281,212.467 L 682.197,214.005 L 688.305,224.748 L 689.158,226.321 L 694.835,237.299 L 695.625,238.905 L 700.860,250.100 L 701.586,251.736 L 706.372,263.130 L 707.032,264.793 L 711.361,276.369 L 711.955,278.057 L 715.821,289.795 L 716.346,291.506 L 719.742,303.389 L 720.200,305.119 L 723.121,317.127 L 723.509,318.874 L 725.950,330.990 L 726.269,332.750 L 728.226,344.953 L 728.475,346.725 L 729.945,358.996 L 730.123,360.777 L 731.105,373.096 L 731.212,374.883 L 731.703,387.232 L 731.739,389.021 L 731.739,401.379 L 731.703,403.168 L 731.212,415.517 L 731.105,417.304 L 730.123,429.623 L 729.945,431.404 L 728.475,443.675 L 728.226,445.447 L 726.269,457.650 L 725.950,459.410 L 723.509,471.526 L 723.121,473.273 L 720.200,485.281 L 719.742,487.011 L 716.346,498.894 L 715.821,500.605 L 711.955,512.343 L 711.361,514.031 L 707.032,525.607 L 706.372,527.270 L 701.586,538.664 L 700.860,540.300 L 695.625,551.495 L 694.835,553.101 L 689.158,564.079 L 688.305,565.652 L 682.197,576.395 L 681.281,577.933 L 674.751,588.425 L 673.775,589.925 L 666.833,600.150 L 665.798,601.610 L 658.455,611.550 L 657.363,612.968 L 649.630,622.609 L 648.483,623.982 L 640.373,633.308 L 639.172,634.634 L 630.697,643.630 L 629.445,644.908 L 620.619,653.559 L 619.317,654.786 L 610.154,663.080 L 608.804,664.255 L 599.319,672.178 L 597.923,673.297 L 588.131,680.837 L 586.692,681.900 L 576.607,689.045 L 575.127,690.050 L 564.767,696.788 L 563.247,697.734 L 552.627,704.054 L 551.072,704.939 L 540.209,710.832 L 538.619,711.654 L 527.530,717.111 L 525.909,717.869 L 514.613,722.881 L 512.963,723.574 L 501.475,728.132 L 499.799,728.759 L 488.140,732.858 L 486.440,733.417 L 481.293,735.000 L 610.000,735.000 L 612.208,735.054 L 614.411,735.217 Z M 135.000,735.000 L 341.599,735.000 L 340.396,733.520 L 339.088,731.740 L 337.870,729.897 L 336.743,727.998 L 335.711,726.045 L 334.776,724.044 L 333.940,721.999 L 333.206,719.916 L 332.575,717.800 L 332.048,715.655 L 331.627,713.487 L 331.313,711.300 L 331.107,709.101 L 331.009,706.895 L 331.019,704.686 L 331.138,702.480 L 331.365,700.283 L 331.699,698.100 L 332.140,695.936 L 332.686,693.796 L 333.337,691.685 L 334.091,689.609 L 334.946,687.573 L 335.900,685.580 L 336.950,683.637 L 338.094,681.748 L 339.330,679.917 L 340.654,678.150 L 342.063,676.449 L 343.554,674.819 L 345.123,673.265 L 346.766,671.789 L 348.480,670.396 L 350.260,669.088 L 352.103,667.870 L 354.002,666.743 L 355.955,665.711 L 357.956,664.776 L 360.001,663.940 L 362.084,663.206 L 364.200,662.575 L 366.345,662.048 L 368.513,661.627 L 370.700,661.313 L 372.899,661.107 L 375.105,661.009 L 386.567,660.781 L 397.117,660.151 L 407.634,659.102 L 418.101,657.636 L 428.501,655.754 L 438.818,653.461 L 449.036,650.759 L 459.139,647.654 L 469.110,644.149 L 478.933,640.250 L 488.594,635.964 L 498.077,631.298 L 507.367,626.258 L 516.449,620.852 L 525.309,615.090 L 533.933,608.980 L 542.308,602.532 L 550.419,595.757 L 558.254,588.664 L 565.802,581.265 L 573.049,573.572 L 579.985,565.597 L 586.598,557.353 L 592.878,548.852 L 598.815,540.108 L 604.400,531.135 L 609.624,521.947 L 614.478,512.559 L 618.955,502.985 L 623.048,493.241 L 626.751,483.341 L 630.057,473.303 L 632.961,463.141 L 635.459,452.871 L 637.547,442.510 L 639.221,432.075 L 640.479,421.581 L 641.318,411.045 L 641.739,400.485 L 641.739,389.915 L 641.318,379.355 L 640.479,368.819 L 639.221,358.325 L 637.547,347.890 L 635.459,337.529 L 632.961,327.259 L 630.057,317.097 L 626.751,307.059 L 623.048,297.159 L 618.955,287.415 L 614.478,277.841 L 609.624,268.453 L 604.400,259.265 L 598.815,250.292 L 592.878,241.548 L 586.598,233.047 L 579.985,224.803 L 573.049,216.828 L 565.802,209.135 L 558.254,201.736 L 550.419,194.643 L 542.308,187.868 L 533.933,181.420 L 525.309,175.310 L 516.449,169.548 L 507.367,164.142 L 498.077,159.102 L 488.594,154.436 L 478.933,150.150 L 469.110,146.251 L 459.139,142.746 L 449.036,139.641 L 438.818,136.939 L 428.501,134.646 L 418.101,132.764 L 407.634,131.298 L 397.117,130.249 L 386.567,129.619 L 375.105,129.391 L 372.899,129.293 L 370.700,129.087 L 368.513,128.773 L 366.345,128.352 L 364.200,127.825 L 362.084,127.194 L 360.001,126.460 L 357.956,125.624 L 355.955,124.689 L 354.002,123.657 L 352.103,122.530 L 350.260,121.312 L 348.480,120.004 L 346.766,118.611 L 345.123,117.135 L 343.554,115.581 L 342.063,113.951 L 340.654,112.250 L 339.330,110.483 L 338.094,108.652 L 336.950,106.763 L 335.900,104.820 L 334.946,102.827 L 334.091,100.791 L 333.337,98.715 L 332.686,96.604 L 332.140,94.464 L 331.699,92.300 L 331.365,90.117 L 331.138,87.920 L 331.019,85.714 L 331.016,85.000 L 135.000,85.000 L 135.000,735.000 Z" fill="black" fill-rule="evenodd"/>
</svg>
