<svg xmlns="http://www.w3.org/2000/svg" viewBox="0 0 700.000 1000">
  <path d="M 350.000 -5.000 L 130.000 -5.000 L 128.896 -4.986 L 127.792 -4.946 L 126.690 -4.878 L 125.589 -4.783 L 125.390 -4.761 L 124.492 -4.662 L 123.740 -4.560 L 123.397 -4.513 L 122.307 -4.337 L 121.221 -4.135 L 120.598 -4.003 L 120.140 -3.907 L 119.066 -3.651 L 117.998 -3.370 L 117.383 -3.192 L 116.937 -3.062 L 115.884 -2.729 L 114.840 -2.369 L 113.805 -1.985 L 112.779 -1.575 L 112.054 -1.264 L 111.764 -1.139 L 110.760 -0.680 L 110.246 -0.429 L 109.767 -0.195 L 108.787 0.314 L 107.820 0.846 L 106.865 1.402 L 106.688 1.511 L 105.925 1.982 L 104.999 2.584 L 104.089 3.209 L 103.723 3.473 L 103.194 3.856 L 102.315 4.524 L 101.851 4.896 L 101.452 5.215 L 100.607 5.926 L 99.780 6.657 L 98.971 7.409 L 98.341 8.023 L 98.180 8.180 L 97.813 8.557 L 97.409 8.971 L 96.657 9.780 L 96.146 10.357 L 95.926 10.607 L 95.215 11.452 L 94.524 12.315 L 94.143 12.816 L 93.856 13.194 L 93.392 13.835 L 93.209 14.089 L 92.584 14.999 L 91.982 15.925 L 91.402 16.865 L 91.159 17.282 L 90.846 17.820 L 90.533 18.388 L 90.314 18.787 L 89.805 19.767 L 89.514 20.363 L 89.320 20.760 L 89.137 21.162 L 88.861 21.764 L 88.721 22.090 L 88.425 22.779 L 88.015 23.805 L 87.631 24.840 L 87.463 25.328 L 87.271 25.884 L 87.185 26.156 L 86.938 26.937 L 86.702 27.749 L 86.630 27.998 L 86.349 29.066 L 86.093 30.140 L 85.865 31.221 L 85.743 31.872 L 85.663 32.307 L 85.604 32.670 L 85.487 33.397 L 85.338 34.492 L 85.326 34.607 L 85.217 35.589 L 85.136 36.522 L 85.122 36.690 L 85.054 37.792 L 85.014 38.896 L 85.000 40.000 L 85.000 40.000 L 85.000 780.000 L 85.014 781.104 L 85.054 782.208 L 85.122 783.310 L 85.217 784.411 L 85.338 785.508 L 85.487 786.603 L 85.663 787.693 L 85.865 788.779 L 86.093 789.860 L 86.349 790.934 L 86.630 792.002 L 86.938 793.063 L 87.271 794.116 L 87.631 795.160 L 88.015 796.195 L 88.425 797.221 L 88.861 798.236 L 89.320 799.240 L 89.805 800.233 L 90.314 801.213 L 90.846 802.180 L 91.402 803.135 L 91.982 804.075 L 92.584 805.001 L 93.209 805.911 L 93.856 806.806 L 94.524 807.685 L 95.215 808.548 L 95.926 809.393 L 96.657 810.220 L 97.409 811.029 L 98.180 811.820 L 98.971 812.591 L 99.780 813.343 L 100.607 814.074 L 101.452 814.785 L 102.315 815.476 L 103.194 816.144 L 104.089 816.791 L 104.999 817.416 L 105.925 818.018 L 106.865 818.598 L 107.820 819.154 L 108.787 819.686 L 109.767 820.195 L 110.760 820.680 L 111.764 821.139 L 112.779 821.575 L 113.805 821.985 L 114.840 822.369 L 115.884 822.729 L 116.937 823.062 L 117.998 823.370 L 119.066 823.651 L 120.140 823.907 L 121.221 824.135 L 122.307 824.337 L 123.397 824.513 L 124.492 824.662 L 125.589 824.783 L 126.690 824.878 L 127.792 824.946 L 128.896 824.986 L 130.000 825.000 L 350.000 825.000 L 350.271 824.997 L 350.543 824.997 L 353.699 824.959 L 354.784 824.932 L 357.939 824.818 L 359.021 824.766 L 362.175 824.576 L 363.254 824.498 L 366.406 824.231 L 367.480 824.127 L 370.630 823.785 L 371.698 823.656 L 374.844 823.238 L 375.904 823.084 L 379.046 822.590 L 380.097 822.412 L 383.235 821.842 L 384.275 821.640 L 387.408 820.994 L 388.437 820.770 L 391.564 820.048 L 392.581 819.801 L 395.701 819.005 L 396.705 818.737 L 399.818 817.865 L 400.807 817.576 L 403.912 816.629 L 404.885 816.320 L 407.982 815.299 L 408.940 814.971 L 412.028 813.875 L 412.968 813.529 L 416.046 812.359 L 416.969 811.996 L 420.037 810.751 L 420.942 810.373 L 423.999 809.054 L 424.886 808.661 L 427.931 807.268 L 428.799 806.861 L 431.832 805.395 L 432.680 804.974 L 435.701 803.436 L 436.530 803.003 L 439.537 801.392 L 440.346 800.947 L 443.339 799.264 L 444.128 798.809 L 447.106 797.054 L 447.876 796.590 L 450.839 794.762 L 451.588 794.290 L 454.535 792.391 L 455.265 791.911 L 458.196 789.942 L 458.906 789.455 L 461.819 787.415 L 462.510 786.922 L 465.405 784.812 L 466.077 784.313 L 468.954 782.133 L 469.606 781.630 L 472.465 779.381 L 473.098 778.874 L 475.937 776.556 L 476.551 776.046 L 479.370 773.660 L 479.966 773.146 L 482.765 770.693 L 483.343 770.177 L 486.120 767.656 L 486.680 767.139 L 489.436 764.551 L 489.979 764.033 L 492.712 761.379 L 493.238 760.859 L 495.948 758.140 L 496.458 757.620 L 499.145 754.836 L 499.638 754.316 L 502.301 751.467 L 502.778 750.948 L 505.416 748.035 L 505.879 747.516 L 508.492 744.540 L 508.939 744.022 L 511.526 740.983 L 511.959 740.467 L 514.520 737.366 L 514.939 736.851 L 517.473 733.688 L 517.878 733.176 L 520.385 729.952 L 520.777 729.441 L 523.256 726.158 L 523.635 725.649 L 526.086 722.306 L 526.452 721.800 L 528.874 718.398 L 529.228 717.894 L 531.621 714.434 L 531.962 713.933 L 534.326 710.415 L 534.656 709.917 L 536.989 706.343 L 537.308 705.847 L 539.610 702.217 L 539.918 701.724 L 542.190 698.039 L 542.487 697.550 L 544.727 693.810 L 545.014 693.323 L 547.221 689.530 L 547.499 689.046 L 549.674 685.200 L 549.942 684.720 L 552.084 680.821 L 552.342 680.344 L 554.450 676.394 L 554.700 675.920 L 556.775 671.920 L 557.015 671.449 L 559.056 667.399 L 559.288 666.931 L 561.293 662.833 L 561.518 662.368 L 563.488 658.222 L 563.704 657.760 L 565.639 653.566 L 565.847 653.107 L 567.746 648.868 L 567.947 648.412 L 569.809 644.127 L 570.003 643.674 L 571.829 639.345 L 572.016 638.895 L 573.804 634.522 L 573.984 634.075 L 575.735 629.659 L 575.908 629.215 L 577.621 624.757 L 577.788 624.316 L 579.463 619.818 L 579.624 619.379 L 581.260 614.841 L 581.415 614.405 L 583.012 609.828 L 583.161 609.395 L 584.719 604.779 L 584.862 604.349 L 586.381 599.696 L 586.518 599.268 L 587.997 594.580 L 588.129 594.154 L 589.568 589.430 L 589.695 589.007 L 591.093 584.249 L 591.214 583.829 L 592.572 579.037 L 592.688 578.619 L 594.005 573.795 L 594.116 573.379 L 595.392 568.524 L 595.498 568.110 L 596.732 563.225 L 596.834 562.813 L 598.026 557.898 L 598.124 557.488 L 599.274 552.546 L 599.367 552.138 L 600.474 547.168 L 600.563 546.761 L 601.628 541.765 L 601.712 541.361 L 602.735 536.340 L 602.815 535.937 L 603.794 530.891 L 603.870 530.490 L 604.807 525.422 L 604.879 525.022 L 605.772 519.932 L 605.840 519.534 L 606.689 514.422 L 606.753 514.025 L 607.559 508.894 L 607.619 508.498 L 608.381 503.348 L 608.438 502.954 L 609.156 497.785 L 609.209 497.393 L 609.883 492.207 L 609.932 491.816 L 610.561 486.615 L 610.607 486.224 L 611.192 481.008 L 611.234 480.619 L 611.775 475.390 L 611.813 475.001 L 612.309 469.759 L 612.344 469.371 L 612.795 464.118 L 612.827 463.731 L 613.233 458.467 L 613.261 458.081 L 613.623 452.808 L 613.647 452.422 L 613.964 447.141 L 613.985 446.756 L 614.257 441.468 L 614.275 441.083 L 614.501 435.789 L 614.516 435.404 L 614.697 430.105 L 614.708 429.721 L 614.844 424.418 L 614.852 424.034 L 614.943 418.729 L 614.947 418.345 L 614.993 413.038 L 614.994 412.654 L 614.994 407.346 L 614.993 406.962 L 614.947 401.655 L 614.943 401.271 L 614.852 395.966 L 614.844 395.582 L 614.708 390.279 L 614.697 389.895 L 614.516 384.596 L 614.501 384.211 L 614.275 378.917 L 614.257 378.532 L 613.985 373.244 L 613.964 372.859 L 613.647 367.578 L 613.623 367.192 L 613.261 361.919 L 613.233 361.533 L 612.827 356.269 L 612.795 355.882 L 612.344 350.629 L 612.309 350.241 L 611.813 344.999 L 611.775 344.610 L 611.234 339.381 L 611.192 338.992 L 610.607 333.776 L 610.561 333.385 L 609.932 328.184 L 609.883 327.793 L 609.209 322.607 L 609.156 322.215 L 608.438 317.046 L 608.381 316.652 L 607.619 311.502 L 607.559 311.106 L 606.753 305.975 L 606.689 305.578 L 605.840 300.466 L 605.772 300.068 L 604.879 294.978 L 604.807 294.578 L 603.870 289.510 L 603.794 289.109 L 602.815 284.063 L 602.735 283.660 L 601.712 278.639 L 601.628 278.235 L 600.563 273.239 L 600.474 272.832 L 599.367 267.862 L 599.274 267.454 L 598.124 262.512 L 598.026 262.102 L 596.834 257.187 L 596.732 256.775 L 595.498 251.890 L 595.392 251.476 L 594.116 246.621 L 594.005 246.205 L 592.688 241.381 L 592.572 240.963 L 591.214 236.171 L 591.093 235.751 L 589.695 230.993 L 589.568 230.570 L 588.129 225.846 L 587.997 225.420 L 586.518 220.732 L 586.381 220.304 L 584.862 215.651 L 584.719 215.221 L 583.161 210.605 L 583.012 210.172 L 581.415 205.595 L 581.260 205.159 L 579.624 200.621 L 579.463 200.182 L 577.788 195.684 L 577.621 195.243 L 575.908 190.785 L 575.735 190.341 L 573.984 185.925 L 573.804 185.478 L 572.016 181.105 L 571.829 180.655 L 570.003 176.326 L 569.809 175.873 L 567.947 171.588 L 567.746 171.132 L 565.847 166.893 L 565.639 166.434 L 563.704 162.240 L 563.488 161.778 L 561.518 157.632 L 561.293 157.167 L 559.288 153.069 L 559.056 152.601 L 557.015 148.551 L 556.775 148.080 L 554.700 144.080 L 554.450 143.606 L 552.342 139.656 L 552.084 139.179 L 549.942 135.280 L 549.674 134.800 L 547.499 130.954 L 547.221 130.470 L 545.014 126.677 L 544.727 126.190 L 542.487 122.450 L 542.190 121.961 L 539.918 118.276 L 539.610 117.783 L 537.308 114.153 L 536.989 113.657 L 534.656 110.083 L 534.326 109.585 L 531.962 106.067 L 531.621 105.566 L 529.228 102.106 L 528.874 101.602 L 526.452 98.200 L 526.086 97.694 L 523.635 94.351 L 523.256 93.842 L 520.777 90.559 L 520.385 90.048 L 517.878 86.824 L 517.473 86.312 L 514.939 83.149 L 514.520 82.634 L 511.959 79.533 L 511.526 79.017 L 508.939 75.978 L 508.492 75.460 L 505.879 72.484 L 505.416 71.965 L 502.778 69.052 L 502.301 68.533 L 499.638 65.684 L 499.145 65.164 L 496.458 62.380 L 495.948 61.860 L 493.238 59.141 L 492.712 58.621 L 489.979 55.967 L 489.436 55.449 L 486.680 52.861 L 486.120 52.344 L 483.343 49.823 L 482.765 49.307 L 479.966 46.854 L 479.370 46.340 L 476.551 43.954 L 475.937 43.444 L 473.098 41.126 L 472.465 40.619 L 469.606 38.370 L 468.954 37.867 L 466.077 35.687 L 465.405 35.188 L 462.510 33.078 L 461.819 32.585 L 458.906 30.545 L 458.196 30.058 L 455.265 28.089 L 454.535 27.609 L 451.588 25.710 L 450.839 25.238 L 447.876 23.410 L 447.106 22.946 L 444.128 21.191 L 443.339 20.736 L 440.346 19.053 L 439.537 18.608 L 436.530 16.997 L 435.701 16.564 L 432.680 15.026 L 431.832 14.605 L 428.799 13.139 L 427.931 12.732 L 424.886 11.339 L 423.999 10.946 L 420.942 9.627 L 420.037 9.249 L 416.969 8.004 L 416.046 7.641 L 412.968 6.471 L 412.028 6.125 L 408.940 5.029 L 407.982 4.701 L 404.885 3.680 L 403.912 3.371 L 400.807 2.424 L 399.818 2.135 L 396.705 1.263 L 395.701 0.995 L 392.581 0.199 L 391.564 -0.048 L 388.437 -0.770 L 387.408 -0.994 L 384.275 -1.640 L 383.235 -1.842 L 380.097 -2.412 L 379.046 -2.590 L 375.904 -3.084 L 374.844 -3.238 L 371.698 -3.656 L 370.630 -3.785 L 367.480 -4.127 L 366.406 -4.231 L 363.254 -4.498 L 362.175 -4.576 L 359.021 -4.766 L 357.939 -4.818 L 354.784 -4.932 L 353.699 -4.959 L 350.543 -4.997 L 350.271 -4.997 L 350.000 -5.000 Z M 175.000 85.000 L 349.729 85.000 L 352.070 85.028 L 354.142 85.103 L 356.214 85.228 L 358.290 85.404 L 360.368 85.630 L 362.450 85.906 L 364.536 86.235 L 366.628 86.615 L 368.725 87.047 L 370.829 87.532 L 372.939 88.070 L 375.055 88.663 L 377.179 89.311 L 379.311 90.014 L 381.449 90.773 L 383.596 91.589 L 385.749 92.463 L 387.911 93.395 L 390.079 94.386 L 392.254 95.437 L 394.436 96.548 L 396.624 97.721 L 398.818 98.955 L 401.017 100.251 L 403.220 101.610 L 405.428 103.032 L 407.638 104.517 L 409.852 106.067 L 412.067 107.681 L 414.283 109.360 L 416.499 111.103 L 418.715 112.912 L 420.928 114.785 L 423.140 116.724 L 425.348 118.728 L 427.552 120.798 L 429.750 122.933 L 431.943 125.133 L 434.128 127.397 L 436.305 129.727 L 438.473 132.121 L 440.631 134.580 L 442.779 137.102 L 444.914 139.688 L 447.037 142.337 L 449.146 145.048 L 451.241 147.822 L 453.320 150.658 L 455.382 153.555 L 457.428 156.513 L 459.456 159.530 L 461.464 162.607 L 463.453 165.743 L 465.422 168.937 L 467.369 172.188 L 469.294 175.496 L 471.196 178.860 L 473.075 182.279 L 474.929 185.753 L 476.758 189.280 L 478.562 192.860 L 480.339 196.492 L 482.089 200.174 L 483.811 203.907 L 485.505 207.690 L 487.170 211.520 L 488.805 215.399 L 490.410 219.323 L 491.984 223.294 L 493.527 227.309 L 495.039 231.367 L 496.517 235.469 L 497.963 239.612 L 499.376 243.796 L 500.755 248.019 L 502.099 252.281 L 503.409 256.581 L 504.683 260.917 L 505.922 265.289 L 507.124 269.696 L 508.291 274.136 L 509.420 278.608 L 510.513 283.111 L 511.567 287.645 L 512.584 292.208 L 513.563 296.799 L 514.503 301.417 L 515.405 306.061 L 516.267 310.729 L 517.091 315.421 L 517.874 320.135 L 518.618 324.871 L 519.321 329.627 L 519.985 334.402 L 520.608 339.195 L 521.190 344.005 L 521.731 348.831 L 522.232 353.671 L 522.691 358.524 L 523.109 363.390 L 523.485 368.266 L 523.820 373.153 L 524.113 378.048 L 524.365 382.951 L 524.575 387.860 L 524.742 392.775 L 524.868 397.693 L 524.952 402.615 L 524.994 407.538 L 524.994 412.462 L 524.952 417.385 L 524.868 422.307 L 524.742 427.225 L 524.575 432.140 L 524.365 437.049 L 524.113 441.952 L 523.820 446.847 L 523.485 451.734 L 523.109 456.610 L 522.691 461.476 L 522.232 466.329 L 521.731 471.169 L 521.190 475.995 L 520.608 480.805 L 519.985 485.598 L 519.321 490.373 L 518.618 495.129 L 517.874 499.865 L 517.091 504.579 L 516.267 509.271 L 515.405 513.939 L 514.503 518.583 L 513.563 523.201 L 512.584 527.792 L 511.567 532.355 L 510.513 536.889 L 509.420 541.392 L 508.291 545.864 L 507.124 550.304 L 505.922 554.711 L 504.683 559.083 L 503.409 563.419 L 502.099 567.719 L 500.755 571.981 L 499.376 576.204 L 497.963 580.388 L 496.517 584.531 L 495.039 588.633 L 493.527 592.691 L 491.984 596.706 L 490.410 600.677 L 488.805 604.601 L 487.170 608.480 L 485.505 612.310 L 483.811 616.093 L 482.089 619.826 L 480.339 623.508 L 478.562 627.140 L 476.758 630.720 L 474.929 634.247 L 473.075 637.721 L 471.196 641.140 L 469.294 644.504 L 467.369 647.812 L 465.422 651.063 L 463.453 654.257 L 461.464 657.393 L 459.456 660.470 L 457.428 663.487 L 455.382 666.445 L 453.320 669.342 L 451.241 672.178 L 449.146 674.952 L 447.037 677.663 L 444.914 680.312 L 442.779 682.898 L 440.631 685.420 L 438.473 687.879 L 436.305 690.273 L 434.128 692.603 L 431.943 694.867 L 429.750 697.067 L 427.552 699.202 L 425.348 701.272 L 423.140 703.276 L 420.928 705.215 L 418.715 707.088 L 416.499 708.897 L 414.283 710.640 L 412.067 712.319 L 409.852 713.933 L 407.638 715.483 L 405.428 716.968 L 403.220 718.390 L 401.017 719.749 L 398.818 721.045 L 396.624 722.279 L 394.436 723.452 L 392.254 724.563 L 390.079 725.614 L 387.911 726.605 L 385.749 727.537 L 383.596 728.411 L 381.449 729.227 L 379.311 729.986 L 377.179 730.689 L 375.055 731.337 L 372.939 731.930 L 370.829 732.468 L 368.725 732.953 L 366.628 733.385 L 364.536 733.765 L 362.450 734.094 L 360.368 734.370 L 358.290 734.596 L 356.214 734.772 L 354.142 734.897 L 352.070 734.972 L 349.729 735.000 L 175.000 735.000 L 175.000 85.000 Z" fill="black" fill-rule="evenodd"/>
</svg>
