<svg xmlns="http://www.w3.org/2000/svg" viewBox="0 0 700.000 1000.000">
  <path d="M 45.054,37.792 L 45.217,35.589 L 45.487,33.397 L 45.865,31.221 L 46.349,29.066 L 46.938,26.937 L 47.631,24.840 L 48.425,22.779 L 49.320,20.760 L 50.314,18.787 L 51.402,16.865 L 52.584,14.999 L 53.856,13.194 L 55.215,11.452 L 56.657,9.780 L 58.180,8.180 L 59.780,6.657 L 61.452,5.215 L 63.194,3.856 L 64.999,2.584 L 66.865,1.402 L 68.787,0.314 L 70.760,-0.680 L 72.779,-1.575 L 74.840,-2.369 L 76.937,-3.062 L 79.066,-3.651 L 81.221,-4.135 L 83.397,-4.513 L 85.589,-4.783 L 87.792,-4.946 L 90.000,-5.000 L 92.208,-4.946 L 94.411,-4.783 L 96.603,-4.513 L 98.779,-4.135 L 100.934,-3.651 L 103.063,-3.062 L 105.160,-2.369 L 107.221,-1.575 L 109.240,-0.680 L 111.213,0.314 L 113.135,1.402 L 115.001,2.584 L 116.806,3.856 L 118.548,5.215 L 120.220,6.657 L 121.820,8.180 L 123.343,9.780 L 124.785,11.452 L 126.144,13.194 L 127.416,14.999 L 128.598,16.865 L 129.686,18.787 L 130.680,20.760 L 131.575,22.779 L 132.369,24.840 L 133.062,26.937 L 133.651,29.066 L 134.135,31.221 L 134.513,33.397 L 134.783,35.589 L 134.946,37.792 L 135.000,40.000 L 135.000,350.200 L 565.000,350.200 L 565.000,40.000 L 565.054,37.792 L 565.217,35.589 L 565.487,33.397 L 565.865,31.221 L 566.349,29.066 L 566.938,26.937 L 567.631,24.840 L 568.425,22.779 L 569.320,20.760 L 570.314,18.787 L 571.402,16.865 L 572.584,14.999 L 573.856,13.194 L 575.215,11.452 L 576.657,9.780 L 578.180,8.180 L 579.780,6.657 L 581.452,5.215 L 583.194,3.856 L 584.999,2.584 L 586.865,1.402 L 588.787,0.314 L 590.760,-0.680 L 592.779,-1.575 L 594.840,-2.369 L 596.937,-3.062 L 599.066,-3.651 L 601.221,-4.135 L 603.397,-4.513 L 605.589,-4.783 L 607.792,-4.946 L 610.000,-5.000 L 612.208,-4.946 L 614.411,-4.783 L 616.603,-4.513 L 618.779,-4.135 L 620.934,-3.651 L 623.063,-3.062 L 625.160,-2.369 L 627.221,-1.575 L 629.240,-0.680 L 631.213,0.314 L 633.135,1.402 L 635.001,2.584 L 636.806,3.856 L 638.548,5.215 L 640.220,6.657 L 641.820,8.180 L 643.343,9.780 L 644.785,11.452 L 646.144,13.194 L 647.416,14.999 L 648.598,16.865 L 649.686,18.787 L 650.680,20.760 L 651.575,22.779 L 652.369,24.840 L 653.062,26.937 L 653.651,29.066 L 654.135,31.221 L 654.513,33.397 L 654.783,35.589 L 654.946,37.792 L 655.000,40.000 L 655.000,395.200 L 655.000,780.000 L 654.946,782.208 L 654.783,784.411 L 654.513,786.603 L 654.135,788.779 L 653.651,790.934 L 653.062,793.063 L 652.369,795.160 L 651.575,797.221 L 650.680,799.240 L 649.686,801.213 L 648.598,803.135 L 647.416,805.001 L 646.144,806.806 L 644.785,808.548 L 643.343,810.220 L 641.820,811.820 L 640.220,813.343 L 638.548,814.785 L 636.806,816.144 L 635.001,817.416 L 633.135,818.598 L 631.213,819.686 L 629.240,820.680 L 627.221,821.575 L 625.160,822.369 L 623.063,823.062 L 620.934,823.651 L 618.779,824.135 L 616.603,824.513 L 614.411,824.783 L 612.208,824.946 L 610.000,825.000 L 607.792,824.946 L 605.589,824.783 L 603.397,824.513 L 601.221,824.135 L 599.066,823.651 L 596.937,823.062 L 594.840,822.369 L 592.779,821.575 L 590.760,820.680 L 588.787,819.686 L 586.865,818.598 L 584.999,817.416 L 583.194,816.144 L 581.452,814.785 L 579.780,813.343 L 578.180,811.820 L 576.657,810.220 L 575.215,808.548 L 573.856,806.806 L 572.584,805.001 L 571.402,803.135 L 570.314,801.213 L 569.320,799.240 L 568.425,797.221 L 567.631,795.160 L 566.938,793.063 L 566.349,790.934 L 565.865,788.779 L 565.487,786.603 L 565.217,784.411 L 565.054,782.208 L 565.000,780.000 L 565.000,440.200 L 135.000,440.200 L 135.000,780.000 L 134.946,782.208 L 134.783,784.411 L 134.513,786.603 L 134.135,788.779 L 133.651,790.934 L 133.062,793.063 L 132.369,795.160 L 131.575,797.221 L 130.680,799.240 L 129.686,801.213 L 128.598,803.135 L 127.416,805.001 L 126.144,806.806 L 124.785,808.548 L 123.343,810.220 L 121.820,811.820 L 120.220,813.343 L 118.548,814.785 L 116.806,816.144 L 115.001,817.416 L 113.135,818.598 L 111.213,819.686 L 109.240,820.680 L 107.221,821.575 L 105.160,822.369 L 103.063,823.062 L 100.934,823.651 L 98.779,824.135 L 96.603,824.513 L 94.411,824.783 L 92.208,824.946 L 90.000,825.000 L 87.792,824.946 L 85.589,824.783 L 83.397,824.513 L 81.221,824.135 L 79.066,823.651 L 76.937,823.062 L 74.840,822.369 L 72.779,821.575 L 70.760,820.680 L 68.787,819.686 L 66.865,818.598 L 64.999,817.416 L 63.194,816.144 L 61.452,814.785 L 59.780,813.343 L 58.180,811.820 L 56.657,810.220 L 55.215,808.548 L 53.856,806.806 L 52.584,805.001 L 51.402,803.135 L 50.314,801.213 L 49.320,799.240 L 48.425,797.221 L 47.631,795.160 L 46.938,793.063 L 46.349,790.934 L 45.865,788.779 L 45.487,786.603 L 45.217,784.411 L 45.054,782.208 L 45.000,780.000 L 45.000,395.200 L 45.000,40.000 L 45.054,37.792 Z" fill="black" fill-rule="evenodd"/>
</svg>
