<svg xmlns="http://www.w3.org/2000/svg" viewBox="0 0 700.000 1000">
  <path d="M 514.926 303.567 L 515.937 308.915 L 516.897 314.296 L 517.804 319.706 L 518.659 325.144 L 519.461 330.609 L 520.210 336.099 L 520.905 341.613 L 521.547 347.147 L 522.135 352.701 L 522.668 358.273 L 523.147 363.862 L 523.233 365.000 L 367.600 365.000 L 366.496 365.014 L 365.392 365.054 L 364.290 365.122 L 363.189 365.217 L 362.092 365.338 L 360.997 365.487 L 359.907 365.663 L 358.821 365.865 L 357.740 366.093 L 356.666 366.349 L 355.598 366.630 L 354.537 366.938 L 353.484 367.271 L 352.440 367.631 L 351.405 368.015 L 350.379 368.425 L 349.364 368.861 L 348.360 369.320 L 347.367 369.805 L 346.387 370.314 L 345.420 370.846 L 344.465 371.402 L 343.525 371.982 L 342.599 372.584 L 341.689 373.209 L 340.794 373.856 L 339.915 374.524 L 339.052 375.215 L 338.207 375.926 L 337.380 376.657 L 336.571 377.409 L 335.780 378.180 L 335.009 378.971 L 334.257 379.780 L 333.526 380.607 L 332.815 381.452 L 332.124 382.315 L 331.456 383.194 L 330.809 384.089 L 330.184 384.999 L 329.582 385.925 L 329.002 386.865 L 328.446 387.820 L 327.914 388.787 L 327.405 389.767 L 326.920 390.760 L 326.461 391.764 L 326.025 392.779 L 325.615 393.805 L 325.231 394.840 L 324.871 395.884 L 324.538 396.937 L 324.230 397.998 L 323.949 399.066 L 323.693 400.140 L 323.465 401.221 L 323.263 402.307 L 323.087 403.397 L 322.938 404.492 L 322.817 405.589 L 322.722 406.690 L 322.654 407.792 L 322.614 408.896 L 322.600 410.000 L 322.614 411.104 L 322.654 412.208 L 322.722 413.310 L 322.817 414.411 L 322.938 415.508 L 323.087 416.603 L 323.263 417.693 L 323.465 418.779 L 323.693 419.860 L 323.949 420.934 L 324.230 422.002 L 324.538 423.063 L 324.871 424.116 L 325.231 425.160 L 325.615 426.195 L 326.025 427.221 L 326.461 428.236 L 326.920 429.240 L 327.405 430.233 L 327.914 431.213 L 328.446 432.180 L 329.002 433.135 L 329.582 434.075 L 330.184 435.001 L 330.809 435.911 L 331.456 436.806 L 332.124 437.685 L 332.815 438.548 L 333.526 439.393 L 334.257 440.220 L 335.009 441.029 L 335.780 441.820 L 336.571 442.591 L 337.380 443.343 L 338.207 444.074 L 339.052 444.785 L 339.915 445.476 L 340.794 446.144 L 341.689 446.791 L 342.599 447.416 L 343.525 448.018 L 344.465 448.598 L 345.420 449.154 L 346.387 449.686 L 347.367 450.195 L 348.360 450.680 L 349.364 451.139 L 350.379 451.575 L 351.405 451.985 L 352.440 452.369 L 353.484 452.729 L 354.537 453.062 L 355.598 453.370 L 356.666 453.651 L 357.740 453.907 L 358.821 454.135 L 359.907 454.337 L 360.997 454.513 L 362.092 454.662 L 363.189 454.783 L 364.290 454.878 L 365.392 454.946 L 366.496 454.986 L 367.600 455.000 L 523.234 455.000 L 522.854 459.633 L 522.341 465.211 L 521.774 470.772 L 521.152 476.314 L 520.477 481.836 L 519.748 487.335 L 518.966 492.809 L 518.131 498.258 L 517.243 503.679 L 516.303 509.071 L 515.311 514.431 L 514.268 519.759 L 513.174 525.053 L 512.028 530.310 L 510.833 535.530 L 509.588 540.710 L 508.295 545.849 L 506.952 550.945 L 505.562 555.997 L 504.124 561.004 L 502.639 565.962 L 501.109 570.872 L 499.533 575.731 L 497.912 580.537 L 496.247 585.290 L 494.539 589.988 L 492.789 594.629 L 490.996 599.212 L 489.163 603.735 L 487.290 608.197 L 485.378 612.596 L 483.428 616.932 L 481.441 621.202 L 479.417 625.405 L 477.358 629.541 L 475.264 633.607 L 473.138 637.603 L 470.979 641.527 L 468.790 645.379 L 466.570 649.156 L 464.322 652.858 L 462.046 656.484 L 459.744 660.033 L 457.417 663.503 L 455.066 666.894 L 452.693 670.205 L 450.298 673.435 L 447.884 676.584 L 445.451 679.650 L 443.001 682.632 L 440.535 685.531 L 438.055 688.346 L 435.562 691.076 L 433.058 693.720 L 430.543 696.279 L 428.020 698.752 L 425.490 701.140 L 422.954 703.441 L 420.414 705.656 L 417.871 707.784 L 415.326 709.827 L 412.780 711.785 L 410.236 713.657 L 407.694 715.444 L 405.155 717.146 L 402.621 718.765 L 400.092 720.301 L 397.569 721.754 L 395.054 723.126 L 392.547 724.417 L 390.048 725.628 L 387.559 726.760 L 385.078 727.815 L 382.608 728.792 L 380.148 729.695 L 377.697 730.522 L 375.257 731.277 L 372.825 731.959 L 370.403 732.569 L 367.989 733.110 L 365.584 733.581 L 363.185 733.983 L 360.792 734.317 L 358.405 734.584 L 356.022 734.784 L 353.642 734.918 L 351.263 734.986 L 348.885 734.988 L 346.507 734.925 L 344.127 734.795 L 341.744 734.599 L 339.357 734.336 L 336.965 734.006 L 334.566 733.608 L 332.161 733.141 L 329.748 732.605 L 327.326 731.999 L 324.896 731.322 L 322.456 730.572 L 320.006 729.749 L 317.546 728.851 L 315.076 727.878 L 312.597 726.828 L 310.108 725.701 L 307.610 724.495 L 305.103 723.209 L 302.588 721.842 L 300.066 720.394 L 297.537 718.864 L 295.003 717.250 L 292.465 715.553 L 289.923 713.771 L 287.379 711.904 L 284.833 709.952 L 282.288 707.915 L 279.745 705.791 L 277.205 703.582 L 274.668 701.286 L 272.138 698.904 L 269.614 696.436 L 267.099 693.883 L 264.594 691.243 L 262.100 688.519 L 259.620 685.710 L 257.153 682.816 L 254.702 679.838 L 252.268 676.778 L 249.852 673.635 L 247.456 670.410 L 245.082 667.104 L 242.729 663.717 L 240.401 660.252 L 238.097 656.708 L 235.820 653.087 L 233.570 649.390 L 231.348 645.617 L 229.157 641.770 L 226.996 637.851 L 224.868 633.859 L 222.772 629.797 L 220.711 625.666 L 218.685 621.466 L 216.695 617.200 L 214.742 612.869 L 212.828 608.474 L 210.953 604.015 L 209.117 599.496 L 207.322 594.917 L 205.569 590.280 L 203.858 585.586 L 202.191 580.836 L 200.567 576.033 L 198.988 571.177 L 197.455 566.271 L 195.968 561.315 L 194.527 556.312 L 193.133 551.262 L 191.788 546.169 L 190.491 541.032 L 189.243 535.855 L 188.045 530.637 L 186.897 525.382 L 185.799 520.091 L 184.752 514.765 L 183.757 509.407 L 182.814 504.017 L 181.923 498.598 L 181.084 493.151 L 180.299 487.677 L 179.567 482.180 L 178.888 476.660 L 178.264 471.119 L 177.693 465.559 L 177.177 459.982 L 176.715 454.389 L 176.308 448.782 L 175.955 443.163 L 175.658 437.534 L 175.416 431.896 L 175.229 426.251 L 175.098 420.601 L 175.022 414.948 L 175.001 409.293 L 175.036 403.639 L 175.126 397.986 L 175.271 392.337 L 175.472 386.694 L 175.727 381.058 L 176.038 375.431 L 176.404 369.815 L 176.825 364.211 L 177.301 358.622 L 177.830 353.049 L 178.415 347.494 L 179.053 341.958 L 179.745 336.443 L 180.490 330.952 L 181.289 325.485 L 182.141 320.045 L 183.045 314.633 L 184.001 309.251 L 185.009 303.900 L 186.069 298.583 L 187.179 293.300 L 188.340 288.055 L 189.550 282.847 L 190.811 277.680 L 192.120 272.554 L 193.477 267.471 L 194.883 262.433 L 196.335 257.442 L 197.834 252.498 L 199.379 247.604 L 200.969 242.762 L 202.604 237.971 L 204.282 233.236 L 206.003 228.555 L 207.767 223.933 L 209.572 219.368 L 211.418 214.864 L 213.303 210.422 L 215.227 206.042 L 217.189 201.727 L 219.188 197.477 L 221.223 193.295 L 223.293 189.181 L 225.397 185.136 L 227.533 181.163 L 229.702 177.261 L 231.901 173.433 L 234.129 169.679 L 236.386 166.000 L 238.670 162.399 L 240.980 158.874 L 243.315 155.429 L 245.673 152.062 L 248.053 148.777 L 250.454 145.572 L 252.875 142.449 L 255.313 139.409 L 257.768 136.453 L 260.239 133.580 L 262.723 130.792 L 265.219 128.089 L 267.727 125.471 L 270.244 122.939 L 272.770 120.492 L 275.302 118.132 L 277.839 115.858 L 280.381 113.670 L 282.925 111.568 L 285.470 109.552 L 288.015 107.621 L 290.559 105.776 L 293.100 104.015 L 295.637 102.339 L 298.170 100.746 L 300.697 99.236 L 303.217 97.809 L 305.730 96.462 L 308.235 95.196 L 310.731 94.010 L 313.218 92.902 L 315.695 91.872 L 318.162 90.918 L 320.619 90.039 L 323.066 89.234 L 325.504 88.502 L 327.933 87.843 L 330.352 87.254 L 332.763 86.736 L 335.167 86.286 L 337.563 85.906 L 339.954 85.592 L 342.340 85.346 L 344.722 85.167 L 347.102 85.053 L 349.480 85.006 L 351.858 85.024 L 354.236 85.109 L 356.617 85.259 L 359.001 85.476 L 361.390 85.760 L 363.784 86.111 L 366.184 86.531 L 368.592 87.019 L 371.008 87.577 L 373.432 88.205 L 375.866 88.905 L 378.309 89.678 L 380.762 90.524 L 383.225 91.445 L 385.698 92.442 L 388.180 93.516 L 390.672 94.668 L 393.173 95.899 L 395.682 97.210 L 398.199 98.602 L 400.724 100.075 L 403.254 101.632 L 405.790 103.271 L 408.329 104.995 L 410.872 106.803 L 413.417 108.697 L 415.962 110.675 L 418.507 112.740 L 421.049 114.890 L 423.589 117.127 L 426.123 119.449 L 428.962 122.153 L 429.771 122.905 L 430.598 123.637 L 431.443 124.348 L 432.305 125.038 L 433.183 125.707 L 434.078 126.355 L 434.989 126.980 L 435.914 127.582 L 436.855 128.162 L 437.809 128.718 L 438.776 129.251 L 439.756 129.760 L 440.749 130.245 L 441.753 130.705 L 442.768 131.140 L 443.793 131.551 L 444.828 131.936 L 445.872 132.295 L 446.925 132.629 L 447.986 132.937 L 449.054 133.219 L 450.128 133.474 L 451.209 133.703 L 452.294 133.906 L 453.385 134.082 L 454.479 134.231 L 455.577 134.353 L 456.677 134.448 L 457.779 134.516 L 458.883 134.557 L 459.987 134.571 L 461.092 134.557 L 462.195 134.517 L 463.298 134.450 L 464.398 134.355 L 465.496 134.234 L 466.590 134.085 L 467.681 133.910 L 468.767 133.708 L 469.847 133.480 L 470.922 133.225 L 471.990 132.944 L 473.051 132.637 L 474.104 132.303 L 475.148 131.944 L 476.184 131.560 L 477.209 131.150 L 478.224 130.715 L 479.229 130.256 L 480.221 129.771 L 481.202 129.263 L 482.169 128.731 L 483.124 128.175 L 484.064 127.596 L 484.990 126.994 L 485.901 126.369 L 486.796 125.722 L 487.675 125.054 L 488.538 124.364 L 489.383 123.653 L 490.211 122.922 L 491.020 122.170 L 491.811 121.399 L 492.582 120.609 L 493.334 119.800 L 494.066 118.973 L 494.777 118.128 L 495.468 117.266 L 496.137 116.387 L 496.784 115.492 L 497.409 114.582 L 498.012 113.656 L 498.591 112.716 L 499.148 111.762 L 499.681 110.795 L 500.189 109.814 L 500.674 108.822 L 501.134 107.818 L 501.570 106.803 L 501.980 105.778 L 502.365 104.743 L 502.725 103.698 L 503.059 102.645 L 503.367 101.585 L 503.648 100.517 L 503.904 99.442 L 504.133 98.362 L 504.335 97.276 L 504.511 96.186 L 504.660 95.092 L 504.782 93.994 L 504.877 92.894 L 504.945 91.791 L 504.986 90.688 L 505.000 89.583 L 504.987 88.479 L 504.946 87.375 L 504.879 86.273 L 504.785 85.172 L 504.663 84.075 L 504.515 82.980 L 504.340 81.890 L 504.138 80.804 L 503.909 79.723 L 503.654 78.649 L 503.373 77.581 L 503.066 76.520 L 502.733 75.467 L 502.374 74.422 L 501.989 73.387 L 501.579 72.361 L 501.145 71.346 L 500.685 70.342 L 500.201 69.349 L 499.692 68.369 L 499.160 67.401 L 498.604 66.447 L 498.025 65.506 L 497.423 64.580 L 496.799 63.670 L 496.152 62.774 L 495.483 61.895 L 494.793 61.033 L 494.083 60.187 L 493.351 59.360 L 492.600 58.550 L 491.829 57.760 L 491.038 56.988 L 487.885 53.984 L 487.248 53.389 L 484.065 50.473 L 483.406 49.880 L 480.195 47.052 L 479.512 46.462 L 476.273 43.724 L 475.566 43.138 L 472.301 40.489 L 471.569 39.908 L 468.279 37.350 L 467.522 36.774 L 464.207 34.308 L 463.425 33.738 L 460.086 31.365 L 459.278 30.803 L 455.917 28.522 L 455.082 27.969 L 451.699 25.781 L 450.839 25.238 L 447.435 23.145 L 446.548 22.613 L 443.124 20.614 L 442.211 20.095 L 438.768 18.191 L 437.829 17.686 L 434.368 15.878 L 433.403 15.389 L 429.924 13.677 L 428.934 13.204 L 425.439 11.589 L 424.424 11.134 L 420.914 9.616 L 419.874 9.181 L 416.349 7.760 L 415.285 7.347 L 411.747 6.024 L 410.661 5.633 L 407.110 4.408 L 406.002 4.042 L 402.440 2.916 L 401.311 2.575 L 397.738 1.547 L 396.590 1.233 L 393.007 0.305 L 391.841 0.019 L 388.250 -0.810 L 387.067 -1.067 L 383.468 -1.796 L 382.270 -2.022 L 378.665 -2.652 L 377.454 -2.846 L 373.844 -3.376 L 372.621 -3.538 L 369.006 -3.968 L 367.775 -4.097 L 364.156 -4.426 L 362.917 -4.522 L 359.295 -4.751 L 358.052 -4.812 L 354.428 -4.941 L 353.182 -4.968 L 349.558 -4.996 L 348.311 -4.989 L 344.687 -4.916 L 343.442 -4.874 L 339.819 -4.702 L 338.577 -4.626 L 334.956 -4.353 L 333.721 -4.242 L 330.103 -3.869 L 328.876 -3.725 L 325.262 -3.252 L 324.045 -3.075 L 320.436 -2.502 L 319.231 -2.294 L 315.629 -1.620 L 314.437 -1.381 L 310.842 -0.608 L 309.666 -0.338 L 306.078 0.534 L 304.920 0.833 L 301.341 1.805 L 300.201 2.130 L 296.633 3.201 L 295.513 3.553 L 291.956 4.723 L 290.857 5.100 L 287.312 6.368 L 286.235 6.769 L 282.703 8.135 L 281.649 8.558 L 278.131 10.021 L 277.102 10.465 L 273.598 12.026 L 272.593 12.488 L 269.106 14.146 L 268.126 14.626 L 264.655 16.380 L 263.702 16.877 L 260.248 18.727 L 259.321 19.238 L 255.886 21.184 L 254.984 21.708 L 251.569 23.749 L 250.694 24.285 L 247.299 26.420 L 246.450 26.967 L 243.076 29.196 L 242.253 29.753 L 238.902 32.075 L 238.105 32.640 L 234.777 35.054 L 234.005 35.627 L 230.701 38.133 L 229.955 38.712 L 226.676 41.309 L 225.955 41.893 L 222.702 44.581 L 222.005 45.168 L 218.778 47.946 L 218.105 48.537 L 214.907 51.404 L 214.257 51.998 L 211.087 54.953 L 210.461 55.548 L 207.320 58.591 L 206.716 59.187 L 203.605 62.316 L 203.023 62.913 L 199.943 66.128 L 199.382 66.724 L 196.334 70.024 L 195.794 70.620 L 192.779 74.004 L 192.258 74.598 L 189.277 78.065 L 188.776 78.658 L 185.829 82.207 L 185.346 82.798 L 182.435 86.428 L 181.970 87.017 L 179.095 90.727 L 178.648 91.314 L 175.809 95.103 L 175.379 95.686 L 172.578 99.554 L 172.165 100.134 L 169.401 104.078 L 169.004 104.655 L 166.280 108.676 L 165.898 109.249 L 163.213 113.344 L 162.846 113.914 L 160.202 118.083 L 159.849 118.649 L 157.246 122.891 L 156.907 123.453 L 154.347 127.766 L 154.021 128.324 L 151.503 132.708 L 151.190 133.261 L 148.715 137.715 L 148.414 138.264 L 145.983 142.785 L 145.695 143.331 L 143.308 147.919 L 143.031 148.460 L 140.690 153.113 L 140.424 153.651 L 138.129 158.368 L 137.874 158.901 L 135.625 163.682 L 135.381 164.211 L 133.179 169.053 L 132.944 169.578 L 130.790 174.481 L 130.565 175.002 L 128.460 179.963 L 128.244 180.480 L 126.188 185.500 L 125.981 186.013 L 123.974 191.088 L 123.776 191.598 L 121.818 196.728 L 121.629 197.234 L 119.722 202.418 L 119.541 202.920 L 117.685 208.156 L 117.512 208.655 L 115.708 213.942 L 115.542 214.437 L 113.790 219.773 L 113.632 220.265 L 111.932 225.649 L 111.781 226.137 L 110.134 231.567 L 109.990 232.053 L 108.397 237.528 L 108.259 238.010 L 106.720 243.529 L 106.589 244.008 L 105.104 249.568 L 104.980 250.045 L 103.549 255.645 L 103.431 256.119 L 102.056 261.759 L 101.943 262.230 L 100.624 267.907 L 100.517 268.375 L 99.253 274.088 L 99.153 274.554 L 97.945 280.301 L 97.850 280.765 L 96.698 286.545 L 96.609 287.006 L 95.514 292.817 L 95.430 293.276 L 94.392 299.117 L 94.313 299.574 L 93.333 305.443 L 93.259 305.898 L 92.336 311.793 L 92.268 312.247 L 91.403 318.166 L 91.339 318.619 L 90.532 324.561 L 90.474 325.012 L 89.725 330.976 L 89.671 331.425 L 88.981 337.410 L 88.932 337.857 L 88.300 343.860 L 88.256 344.306 L 87.683 350.326 L 87.643 350.771 L 87.130 356.805 L 87.094 357.250 L 86.640 363.298 L 86.609 363.741 L 86.214 369.801 L 86.188 370.244 L 85.852 376.313 L 85.830 376.756 L 85.554 382.834 L 85.536 383.275 L 85.320 389.360 L 85.306 389.802 L 85.150 395.892 L 85.141 396.333 L 85.043 402.426 L 85.039 402.867 L 85.001 408.963 L 85.001 409.403 L 85.023 415.499 L 85.027 415.940 L 85.109 422.034 L 85.117 422.475 L 85.259 428.566 L 85.271 429.007 L 85.473 435.094 L 85.490 435.535 L 85.751 441.615 L 85.772 442.057 L 86.092 448.129 L 86.118 448.572 L 86.498 454.634 L 86.528 455.078 L 86.967 461.128 L 87.002 461.573 L 87.500 467.610 L 87.539 468.056 L 88.097 474.079 L 88.140 474.525 L 88.757 480.532 L 88.805 480.979 L 89.480 486.968 L 89.533 487.417 L 90.267 493.387 L 90.325 493.837 L 91.117 499.785 L 91.179 500.237 L 92.030 506.162 L 92.097 506.616 L 93.005 512.517 L 93.078 512.972 L 94.044 518.847 L 94.121 519.304 L 95.145 525.152 L 95.228 525.610 L 96.308 531.429 L 96.396 531.890 L 97.534 537.678 L 97.627 538.141 L 98.821 543.896 L 98.920 544.361 L 100.170 550.083 L 100.275 550.551 L 101.581 556.237 L 101.692 556.707 L 103.053 562.357 L 103.170 562.830 L 104.587 568.440 L 104.710 568.916 L 106.181 574.487 L 106.310 574.965 L 107.836 580.494 L 107.972 580.976 L 109.552 586.462 L 109.694 586.946 L 111.328 592.388 L 111.477 592.876 L 113.163 598.271 L 113.320 598.762 L 115.059 604.110 L 115.223 604.605 L 117.014 609.904 L 117.185 610.402 L 119.028 615.651 L 119.207 616.152 L 121.102 621.349 L 121.289 621.854 L 123.234 626.998 L 123.429 627.506 L 125.424 632.596 L 125.629 633.108 L 127.673 638.141 L 127.886 638.658 L 129.980 643.634 L 130.202 644.154 L 132.344 649.071 L 132.576 649.595 L 134.766 654.453 L 135.008 654.981 L 137.245 659.777 L 137.498 660.309 L 139.781 665.042 L 140.045 665.578 L 142.374 670.248 L 142.648 670.788 L 145.024 675.393 L 145.309 675.937 L 147.729 680.475 L 148.027 681.024 L 150.491 685.494 L 150.800 686.047 L 153.308 690.448 L 153.630 691.005 L 156.181 695.336 L 156.516 695.897 L 159.109 700.157 L 159.458 700.721 L 162.092 704.909 L 162.455 705.477 L 165.130 709.592 L 165.508 710.164 L 168.222 714.203 L 168.616 714.779 L 171.369 718.743 L 171.778 719.322 L 174.570 723.209 L 174.996 723.791 L 177.826 727.600 L 178.268 728.186 L 181.135 731.916 L 181.595 732.504 L 184.497 736.154 L 184.975 736.745 L 187.913 740.314 L 188.410 740.907 L 191.383 744.394 L 191.898 744.989 L 194.905 748.393 L 195.441 748.989 L 198.480 752.310 L 199.036 752.906 L 202.108 756.142 L 202.685 756.739 L 205.787 759.890 L 206.386 760.486 L 209.519 763.550 L 210.140 764.146 L 213.303 767.123 L 213.947 767.717 L 217.139 770.606 L 217.806 771.198 L 221.025 773.998 L 221.716 774.587 L 224.962 777.297 L 225.678 777.882 L 228.950 780.502 L 229.690 781.082 L 232.988 783.611 L 233.753 784.185 L 237.075 786.623 L 237.866 787.190 L 241.212 789.535 L 242.028 790.094 L 245.396 792.346 L 246.239 792.896 L 249.628 795.054 L 250.497 795.593 L 253.907 797.658 L 254.802 798.185 L 258.232 800.155 L 259.153 800.669 L 262.602 802.543 L 263.549 803.044 L 267.016 804.822 L 267.989 805.306 L 271.473 806.988 L 272.471 807.455 L 275.971 809.040 L 276.994 809.489 L 280.509 810.977 L 281.556 811.405 L 285.085 812.795 L 286.156 813.201 L 289.698 814.494 L 290.791 814.877 L 294.346 816.071 L 295.461 816.430 L 299.026 817.526 L 300.162 817.858 L 303.737 818.855 L 304.892 819.160 L 308.477 820.057 L 309.649 820.334 L 313.242 821.132 L 314.430 821.379 L 318.030 822.078 L 319.233 822.294 L 322.840 822.892 L 324.054 823.077 L 327.667 823.575 L 328.892 823.727 L 332.509 824.126 L 333.742 824.244 L 337.362 824.542 L 338.602 824.627 L 342.225 824.825 L 343.469 824.875 L 347.093 824.973 L 348.340 824.989 L 351.964 824.986 L 353.211 824.967 L 356.835 824.864 L 358.079 824.811 L 361.702 824.607 L 362.941 824.520 L 366.561 824.216 L 367.794 824.095 L 371.411 823.691 L 372.636 823.537 L 376.248 823.032 L 377.462 822.845 L 381.068 822.241 L 382.269 822.022 L 385.870 821.318 L 387.057 821.069 L 390.649 820.265 L 391.820 819.986 L 395.405 819.082 L 396.558 818.775 L 400.133 817.773 L 401.267 817.438 L 404.832 816.337 L 405.946 815.976 L 409.499 814.776 L 410.591 814.391 L 414.133 813.093 L 415.202 812.685 L 418.730 811.288 L 419.776 810.859 L 423.290 809.365 L 424.311 808.916 L 427.810 807.324 L 428.807 806.856 L 432.290 805.168 L 433.261 804.683 L 436.727 802.898 L 437.672 802.397 L 441.120 800.517 L 442.039 800.002 L 445.468 798.026 L 446.361 797.498 L 449.771 795.428 L 450.638 794.888 L 454.026 792.724 L 454.867 792.173 L 458.234 789.915 L 459.048 789.356 L 462.393 787.005 L 463.182 786.437 L 466.502 783.994 L 467.266 783.420 L 470.562 780.885 L 471.300 780.305 L 474.571 777.679 L 475.285 777.094 L 478.530 774.378 L 479.219 773.789 L 482.437 770.983 L 483.103 770.391 L 486.292 767.497 L 486.935 766.902 L 490.096 763.920 L 490.715 763.324 L 493.847 760.255 L 494.444 759.658 L 497.545 756.502 L 498.121 755.905 L 501.190 752.664 L 501.745 752.067 L 504.782 748.741 L 505.317 748.146 L 508.321 744.736 L 508.836 744.141 L 511.806 740.649 L 512.302 740.056 L 515.238 736.482 L 515.714 735.892 L 518.615 732.236 L 519.074 731.648 L 521.938 727.913 L 522.379 727.328 L 525.207 723.514 L 525.631 722.932 L 528.421 719.040 L 528.829 718.461 L 531.580 714.493 L 531.973 713.917 L 534.685 709.873 L 535.062 709.301 L 537.734 705.182 L 538.096 704.614 L 540.728 700.422 L 541.076 699.857 L 543.666 695.593 L 544.001 695.032 L 546.548 690.697 L 546.870 690.140 L 549.375 685.734 L 549.684 685.182 L 552.145 680.708 L 552.442 680.159 L 554.859 675.617 L 555.144 675.073 L 557.516 670.465 L 557.789 669.925 L 560.116 665.251 L 560.379 664.715 L 562.660 659.978 L 562.911 659.446 L 565.145 654.646 L 565.387 654.118 L 567.574 649.257 L 567.805 648.733 L 569.944 643.812 L 570.166 643.292 L 572.257 638.312 L 572.469 637.796 L 574.511 632.759 L 574.714 632.247 L 576.706 627.154 L 576.901 626.646 L 578.843 621.499 L 579.030 620.994 L 580.921 615.794 L 581.099 615.293 L 582.939 610.041 L 583.110 609.543 L 584.898 604.241 L 585.061 603.747 L 586.797 598.396 L 586.953 597.905 L 588.636 592.506 L 588.785 592.019 L 590.415 586.574 L 590.557 586.090 L 592.134 580.601 L 592.269 580.120 L 593.791 574.588 L 593.920 574.110 L 595.388 568.537 L 595.511 568.061 L 596.924 562.448 L 597.040 561.975 L 598.399 556.324 L 598.509 555.853 L 599.811 550.165 L 599.916 549.697 L 601.162 543.974 L 601.261 543.508 L 602.452 537.751 L 602.545 537.288 L 603.679 531.498 L 603.766 531.037 L 604.843 525.217 L 604.926 524.758 L 605.946 518.909 L 606.023 518.452 L 606.985 512.575 L 607.057 512.120 L 607.962 506.218 L 608.029 505.764 L 608.876 499.837 L 608.938 499.386 L 609.727 493.436 L 609.784 492.986 L 610.514 487.015 L 610.567 486.567 L 611.238 480.577 L 611.286 480.129 L 611.899 474.121 L 611.942 473.675 L 612.496 467.651 L 612.535 467.206 L 613.030 461.167 L 613.064 460.723 L 613.500 454.671 L 613.529 454.228 L 613.906 448.165 L 613.931 447.722 L 614.248 441.650 L 614.269 441.208 L 614.526 435.127 L 614.542 434.686 L 614.740 428.599 L 614.752 428.158 L 614.890 422.067 L 614.898 421.626 L 614.977 415.531 L 614.980 415.090 L 614.999 408.995 L 614.998 408.554 L 614.957 402.459 L 614.952 402.018 L 614.851 395.924 L 614.842 395.483 L 614.681 389.394 L 614.667 388.952 L 614.447 382.868 L 614.429 382.426 L 614.149 376.348 L 614.127 375.906 L 613.788 369.837 L 613.761 369.394 L 613.362 363.335 L 613.331 362.892 L 612.873 356.845 L 612.837 356.400 L 612.320 350.367 L 612.280 349.921 L 611.704 343.903 L 611.659 343.456 L 611.024 337.455 L 610.974 337.007 L 610.281 331.024 L 610.226 330.575 L 609.474 324.612 L 609.415 324.161 L 608.605 318.220 L 608.541 317.768 L 607.672 311.849 L 607.603 311.396 L 606.677 305.502 L 606.603 305.047 L 605.619 299.180 L 605.540 298.723 L 604.498 292.884 L 604.414 292.424 L 603.316 286.615 L 603.226 286.154 L 602.071 280.376 L 601.975 279.912 L 600.764 274.167 L 600.523 273.089 L 600.255 272.018 L 599.962 270.953 L 599.642 269.896 L 599.296 268.847 L 598.925 267.807 L 598.528 266.776 L 598.106 265.755 L 597.660 264.745 L 597.188 263.746 L 596.692 262.760 L 596.172 261.785 L 595.629 260.824 L 595.062 259.876 L 594.472 258.942 L 593.859 258.024 L 593.224 257.120 L 592.566 256.233 L 591.888 255.361 L 591.188 254.507 L 590.467 253.670 L 589.726 252.851 L 588.965 252.051 L 588.184 251.269 L 587.385 250.507 L 586.567 249.765 L 585.732 249.043 L 584.879 248.341 L 584.008 247.661 L 583.122 247.003 L 582.219 246.366 L 581.302 245.752 L 580.369 245.160 L 579.422 244.592 L 578.461 244.046 L 577.488 243.525 L 576.502 243.028 L 575.504 242.555 L 574.494 242.106 L 573.474 241.683 L 572.444 241.285 L 571.405 240.912 L 570.356 240.564 L 569.300 240.243 L 568.235 239.948 L 567.164 239.678 L 566.087 239.436 L 565.004 239.219 L 563.916 239.030 L 562.823 238.867 L 561.727 238.731 L 560.628 238.622 L 559.527 238.539 L 558.424 238.484 L 557.320 238.456 L 556.215 238.456 L 555.111 238.482 L 554.008 238.535 L 552.907 238.615 L 551.807 238.723 L 550.711 238.857 L 549.619 239.018 L 548.530 239.206 L 547.447 239.421 L 546.369 239.662 L 545.297 239.930 L 544.233 240.223 L 543.176 240.543 L 542.127 240.889 L 541.087 241.260 L 540.056 241.657 L 539.035 242.079 L 538.025 242.525 L 537.026 242.997 L 536.039 243.493 L 535.065 244.012 L 534.104 244.556 L 533.156 245.123 L 532.222 245.713 L 531.303 246.326 L 530.400 246.961 L 529.512 247.619 L 528.641 248.297 L 527.787 248.997 L 526.950 249.718 L 526.131 250.459 L 525.331 251.220 L 524.549 252.000 L 523.787 252.800 L 523.045 253.617 L 522.323 254.453 L 521.621 255.306 L 520.941 256.177 L 520.282 257.063 L 519.646 257.966 L 519.031 258.883 L 518.440 259.816 L 517.871 260.763 L 517.326 261.723 L 516.805 262.697 L 516.307 263.683 L 515.834 264.681 L 515.386 265.691 L 514.963 266.711 L 514.564 267.741 L 514.192 268.780 L 513.844 269.829 L 513.523 270.885 L 513.227 271.950 L 512.958 273.021 L 512.715 274.098 L 512.499 275.181 L 512.309 276.269 L 512.147 277.362 L 512.010 278.458 L 511.901 279.557 L 511.819 280.658 L 511.764 281.761 L 511.736 282.865 L 511.735 283.970 L 511.762 285.074 L 511.815 286.177 L 511.895 287.278 L 512.003 288.378 L 512.137 289.474 L 512.298 290.566 L 512.486 291.655 L 512.701 292.738 L 513.864 298.252 L 514.926 303.567 Z" fill="black" fill-rule="evenodd"/>
</svg>
