<svg xmlns="http://www.w3.org/2000/svg" viewBox="0 0 700.000 1000.000">
  <path d="M 303.993,619.975 L 302.785,614.060 L 301.106,608.261 L 298.965,602.617 L 296.377,597.163 L 293.358,591.935 L 289.929,586.966 L 286.111,582.290 L 281.929,577.936 L 277.410,573.933 L 272.584,570.306 L 267.482,567.080 L 262.136,564.274 L 256.582,561.908 L 250.856,559.996 L 244.995,558.551 L 239.036,557.583 L 233.018,557.097 L 226.982,557.097 L 220.964,557.583 L 215.005,558.551 L 209.144,559.996 L 203.418,561.908 L 197.864,564.274 L 192.518,567.080 L 187.416,570.306 L 182.590,573.933 L 178.071,577.936 L 173.889,582.290 L 170.071,586.966 L 166.642,591.935 L 163.623,597.163 L 161.035,602.617 L 158.894,608.261 L 157.215,614.060 L 156.007,619.975 L 155.280,625.968 L 154.964,633.812 L 154.820,636.016 L 154.569,638.210 L 154.211,640.390 L 153.746,642.549 L 153.176,644.683 L 152.501,646.786 L 151.725,648.854 L 150.847,650.881 L 149.872,652.862 L 148.800,654.794 L 147.635,656.670 L 146.379,658.487 L 145.036,660.240 L 143.608,661.925 L 142.099,663.538 L 140.513,665.075 L 138.853,666.533 L 137.124,667.907 L 135.329,669.194 L 133.474,670.392 L 131.562,671.498 L 129.598,672.508 L 127.586,673.421 L 125.533,674.234 L 123.442,674.946 L 121.318,675.553 L 119.168,676.056 L 116.995,676.453 L 114.805,676.743 L 112.604,676.925 L 110.396,676.998 L 108.188,676.964 L 105.984,676.820 L 103.790,676.569 L 101.610,676.211 L 99.451,675.746 L 97.317,675.176 L 95.214,674.501 L 93.146,673.725 L 91.119,672.847 L 89.138,671.872 L 87.206,670.800 L 85.330,669.635 L 83.513,668.379 L 81.760,667.036 L 80.075,665.608 L 78.462,664.099 L 76.925,662.513 L 75.467,660.853 L 74.093,659.124 L 72.806,657.329 L 71.608,655.474 L 70.502,653.562 L 69.492,651.598 L 68.579,649.586 L 67.766,647.533 L 67.054,645.442 L 66.447,643.318 L 65.944,641.168 L 65.547,638.995 L 65.257,636.805 L 65.075,634.604 L 65.002,632.396 L 65.036,630.188 L 65.426,620.532 L 65.535,618.723 L 65.717,616.920 L 66.882,607.326 L 67.137,605.532 L 67.463,603.749 L 69.396,594.281 L 69.795,592.513 L 70.264,590.762 L 72.952,581.480 L 73.491,579.750 L 74.100,578.043 L 77.527,569.007 L 78.203,567.326 L 78.947,565.673 L 83.090,556.942 L 83.900,555.321 L 84.774,553.733 L 89.606,545.364 L 90.544,543.813 L 91.543,542.301 L 97.033,534.348 L 98.092,532.878 L 99.210,531.451 L 105.321,523.965 L 106.496,522.585 L 107.725,521.253 L 114.419,514.283 L 115.700,513.002 L 117.033,511.773 L 124.266,505.364 L 125.647,504.190 L 127.073,503.072 L 134.799,497.267 L 136.269,496.208 L 137.781,495.208 L 145.949,490.043 L 147.500,489.106 L 149.087,488.231 L 157.644,483.740 L 159.266,482.931 L 160.918,482.187 L 169.809,478.399 L 171.490,477.722 L 173.197,477.114 L 182.364,474.054 L 184.094,473.515 L 185.845,473.045 L 195.228,470.733 L 196.996,470.335 L 198.778,470.008 L 208.317,468.458 L 210.111,468.203 L 211.915,468.021 L 221.547,467.243 L 223.356,467.134 L 225.168,467.097 L 234.832,467.097 L 236.644,467.134 L 238.453,467.243 L 248.085,468.021 L 249.889,468.203 L 251.683,468.458 L 261.222,470.008 L 263.004,470.335 L 264.772,470.733 L 274.155,473.045 L 275.906,473.515 L 277.636,474.054 L 286.803,477.114 L 288.510,477.722 L 290.191,478.399 L 299.082,482.187 L 300.734,482.931 L 302.356,483.740 L 305.000,485.128 L 305.000,40.000 L 305.054,37.792 L 305.217,35.589 L 305.487,33.397 L 305.865,31.221 L 306.349,29.066 L 306.938,26.937 L 307.631,24.840 L 308.425,22.779 L 309.320,20.760 L 310.314,18.787 L 311.402,16.865 L 312.584,14.999 L 313.856,13.194 L 315.215,11.452 L 316.657,9.780 L 318.180,8.180 L 319.780,6.657 L 321.452,5.215 L 323.194,3.856 L 324.999,2.584 L 326.865,1.402 L 328.787,0.314 L 330.760,-0.680 L 332.779,-1.575 L 334.840,-2.369 L 336.937,-3.062 L 339.066,-3.651 L 341.221,-4.135 L 343.397,-4.513 L 345.589,-4.783 L 347.792,-4.946 L 350.000,-5.000 L 352.208,-4.946 L 354.411,-4.783 L 356.603,-4.513 L 358.779,-4.135 L 360.934,-3.651 L 363.063,-3.062 L 365.160,-2.369 L 367.221,-1.575 L 369.240,-0.680 L 371.213,0.314 L 373.135,1.402 L 375.001,2.584 L 376.806,3.856 L 378.548,5.215 L 380.220,6.657 L 381.820,8.180 L 383.343,9.780 L 384.785,11.452 L 386.144,13.194 L 387.416,14.999 L 388.598,16.865 L 389.686,18.787 L 390.680,20.760 L 391.575,22.779 L 392.369,24.840 L 393.062,26.937 L 393.651,29.066 L 394.135,31.221 L 394.513,33.397 L 394.783,35.589 L 394.946,37.792 L 395.000,40.000 L 395.000,632.000 L 394.995,632.198 L 394.998,632.396 L 394.968,633.302 L 394.946,634.208 L 394.931,634.406 L 394.925,634.604 L 394.850,635.507 L 394.783,636.411 L 394.759,636.608 L 394.743,636.805 L 394.624,637.704 L 394.513,638.603 L 394.479,638.798 L 394.453,638.995 L 394.290,639.886 L 394.135,640.779 L 394.092,640.973 L 394.056,641.168 L 393.850,642.050 L 393.651,642.934 L 393.599,643.125 L 393.553,643.318 L 393.304,644.189 L 393.062,645.063 L 393.000,645.251 L 392.946,645.442 L 392.654,646.300 L 392.369,647.160 L 392.298,647.345 L 392.234,647.533 L 391.901,648.375 L 391.575,649.221 L 391.494,649.402 L 391.421,649.586 L 391.047,650.412 L 390.680,651.240 L 390.590,651.417 L 390.508,651.598 L 390.094,652.403 L 389.686,653.213 L 389.589,653.385 L 389.498,653.562 L 389.044,654.346 L 388.598,655.135 L 388.492,655.302 L 388.392,655.474 L 387.901,656.235 L 387.416,657.001 L 387.302,657.163 L 387.194,657.329 L 386.666,658.066 L 386.144,658.806 L 386.022,658.963 L 385.907,659.124 L 385.343,659.833 L 384.785,660.548 L 384.656,660.698 L 384.533,660.853 L 383.935,661.534 L 383.343,662.220 L 383.206,662.364 L 383.075,662.513 L 382.445,663.164 L 381.820,663.820 L 381.676,663.957 L 381.538,664.099 L 380.876,664.718 L 380.220,665.343 L 380.070,665.472 L 379.925,665.608 L 379.234,666.194 L 378.548,666.785 L 378.391,666.907 L 378.240,667.036 L 377.521,667.587 L 376.806,668.144 L 376.644,668.259 L 376.487,668.379 L 375.742,668.894 L 375.001,669.416 L 374.833,669.522 L 374.670,669.635 L 373.900,670.113 L 373.135,670.598 L 372.962,670.696 L 372.794,670.800 L 372.001,671.240 L 371.213,671.686 L 371.036,671.776 L 370.862,671.872 L 370.049,672.272 L 369.240,672.680 L 369.059,672.760 L 368.881,672.847 L 368.049,673.207 L 367.221,673.575 L 367.036,673.646 L 366.854,673.725 L 366.005,674.043 L 365.160,674.369 L 364.972,674.432 L 364.786,674.501 L 363.923,674.778 L 363.063,675.062 L 362.872,675.115 L 362.683,675.176 L 361.807,675.410 L 360.934,675.651 L 360.741,675.695 L 360.549,675.746 L 359.663,675.937 L 358.779,676.135 L 358.584,676.169 L 358.390,676.211 L 357.496,676.358 L 356.603,676.513 L 356.406,676.537 L 356.210,676.569 L 355.310,676.672 L 354.411,676.783 L 354.213,676.798 L 354.016,676.820 L 353.112,676.879 L 352.208,676.946 L 352.010,676.951 L 351.812,676.964 L 350.906,676.978 L 350.000,677.000 L 349.802,676.995 L 349.604,676.998 L 348.698,676.968 L 347.792,676.946 L 347.594,676.931 L 347.396,676.925 L 346.493,676.850 L 345.589,676.783 L 345.392,676.759 L 345.195,676.743 L 344.296,676.624 L 343.397,676.513 L 343.202,676.479 L 343.005,676.453 L 342.114,676.290 L 341.221,676.135 L 341.027,676.092 L 340.832,676.056 L 339.950,675.850 L 339.066,675.651 L 338.875,675.599 L 338.682,675.553 L 337.811,675.304 L 336.937,675.062 L 336.749,675.000 L 336.558,674.946 L 335.700,674.654 L 334.840,674.369 L 334.655,674.298 L 334.467,674.234 L 333.625,673.901 L 332.779,673.575 L 332.598,673.494 L 332.414,673.421 L 331.588,673.047 L 330.760,672.680 L 330.583,672.590 L 330.402,672.508 L 329.597,672.094 L 328.787,671.686 L 328.615,671.589 L 328.438,671.498 L 327.654,671.044 L 326.865,670.598 L 326.698,670.492 L 326.526,670.392 L 325.765,669.901 L 324.999,669.416 L 324.837,669.302 L 324.671,669.194 L 323.934,668.666 L 323.194,668.144 L 323.037,668.022 L 322.876,667.907 L 322.167,667.343 L 321.452,666.785 L 321.302,666.656 L 321.147,666.533 L 320.466,665.935 L 319.780,665.343 L 319.636,665.206 L 319.487,665.075 L 318.836,664.445 L 318.180,663.820 L 318.043,663.676 L 317.901,663.538 L 317.282,662.876 L 316.657,662.220 L 316.528,662.070 L 316.392,661.925 L 315.806,661.234 L 315.215,660.548 L 315.093,660.391 L 314.964,660.240 L 314.413,659.521 L 313.856,658.806 L 313.741,658.644 L 313.621,658.487 L 313.106,657.742 L 312.584,657.001 L 312.478,656.833 L 312.365,656.670 L 311.887,655.900 L 311.402,655.135 L 311.304,654.962 L 311.200,654.794 L 310.760,654.001 L 310.314,653.213 L 310.224,653.036 L 310.128,652.862 L 309.728,652.049 L 309.320,651.240 L 309.240,651.059 L 309.153,650.881 L 308.793,650.049 L 308.425,649.221 L 308.354,649.036 L 308.275,648.854 L 307.957,648.005 L 307.631,647.160 L 307.568,646.972 L 307.499,646.786 L 307.222,645.923 L 306.938,645.063 L 306.885,644.872 L 306.824,644.683 L 306.590,643.807 L 306.349,642.934 L 306.305,642.741 L 306.254,642.549 L 306.063,641.663 L 305.865,640.779 L 305.831,640.584 L 305.789,640.390 L 305.642,639.496 L 305.487,638.603 L 305.463,638.406 L 305.431,638.210 L 305.328,637.310 L 305.217,636.411 L 305.202,636.213 L 305.180,636.016 L 305.121,635.112 L 305.054,634.208 L 305.049,634.010 L 305.036,633.812 L 304.720,625.968 L 303.993,619.975 Z" fill="black" fill-rule="evenodd"/>
</svg>
