<svg xmlns="http://www.w3.org/2000/svg" viewBox="0 0 700.000 1000.000">
  <path d="M 614.411,735.217 L 616.603,735.487 L 618.779,735.865 L 620.934,736.349 L 623.063,736.938 L 625.160,737.631 L 627.221,738.425 L 629.240,739.320 L 631.213,740.314 L 633.135,741.402 L 635.001,742.584 L 636.806,743.856 L 638.548,745.215 L 640.220,746.657 L 641.820,748.180 L 643.343,749.780 L 644.785,751.452 L 646.144,753.194 L 647.416,754.999 L 648.598,756.865 L 649.686,758.787 L 650.680,760.760 L 651.575,762.779 L 652.369,764.840 L 653.062,766.937 L 653.651,769.066 L 654.135,771.221 L 654.513,773.397 L 654.783,775.589 L 654.946,777.792 L 655.000,780.000 L 654.946,782.208 L 654.783,784.411 L 654.513,786.603 L 654.135,788.779 L 653.651,790.934 L 653.062,793.063 L 652.369,795.160 L 651.575,797.221 L 650.680,799.240 L 649.686,801.213 L 648.598,803.135 L 647.416,805.001 L 646.144,806.806 L 644.785,808.548 L 643.343,810.220 L 641.820,811.820 L 640.220,813.343 L 638.548,814.785 L 636.806,816.144 L 635.001,817.416 L 633.135,818.598 L 631.213,819.686 L 629.240,820.680 L 627.221,821.575 L 625.160,822.369 L 623.063,823.062 L 620.934,823.651 L 618.779,824.135 L 616.603,824.513 L 614.411,824.783 L 612.208,824.946 L 610.000,825.000 L 90.000,825.000 L 87.792,824.946 L 85.589,824.783 L 83.397,824.513 L 81.221,824.135 L 79.066,823.651 L 76.937,823.062 L 74.840,822.369 L 72.779,821.575 L 70.760,820.680 L 68.787,819.686 L 66.865,818.598 L 64.999,817.416 L 63.194,816.144 L 61.452,814.785 L 59.780,813.343 L 58.180,811.820 L 56.657,810.220 L 55.215,808.548 L 53.856,806.806 L 52.584,805.001 L 51.402,803.135 L 50.314,801.213 L 49.320,799.240 L 48.425,797.221 L 47.631,795.160 L 46.938,793.063 L 46.349,790.934 L 45.865,788.779 L 45.487,786.603 L 45.217,784.411 L 45.054,782.208 L 45.000,780.000 L 45.000,395.200 L 45.000,40.000 L 45.054,37.792 L 45.217,35.589 L 45.487,33.397 L 45.865,31.221 L 46.349,29.066 L 46.938,26.937 L 47.631,24.840 L 48.425,22.779 L 49.320,20.760 L 50.314,18.787 L 51.402,16.865 L 52.584,14.999 L 53.856,13.194 L 55.215,11.452 L 56.657,9.780 L 58.180,8.180 L 59.780,6.657 L 61.452,5.215 L 63.194,3.856 L 64.999,2.584 L 66.865,1.402 L 68.787,0.314 L 70.760,-0.680 L 72.779,-1.575 L 74.840,-2.369 L 76.937,-3.062 L 79.066,-3.651 L 81.221,-4.135 L 83.397,-4.513 L 85.589,-4.783 L 87.792,-4.946 L 90.000,-5.000 L 610.000,-5.000 L 612.208,-4.946 L 614.411,-4.783 L 616.603,-4.513 L 618.779,-4.135 L 620.934,-3.651 L 623.063,-3.062 L 625.160,-2.369 L 627.221,-1.575 L 629.240,-0.680 L 631.213,0.314 L 633.135,1.402 L 635.001,2.584 L 636.806,3.856 L 638.548,5.215 L 640.220,6.657 L 641.820,8.180 L 643.343,9.780 L 644.785,11.452 L 646.144,13.194 L 647.416,14.999 L 648.598,16.865 L 649.686,18.787 L 650.680,20.760 L 651.575,22.779 L 652.369,24.840 L 653.062,26.937 L 653.651,29.066 L 654.135,31.221 L 654.513,33.397 L 654.783,35.589 L 654.946,37.792 L 655.000,40.000 L 654.946,42.208 L 654.783,44.411 L 654.513,46.603 L 654.135,48.779 L 653.651,50.934 L 653.062,53.063 L 652.369,55.160 L 651.575,57.221 L 650.680,59.240 L 649.686,61.213 L 648.598,63.135 L 647.416,65.001 L 646.144,66.806 L 644.785,68.548 L 643.343,70.220 L 641.820,71.820 L 640.220,73.343 L 638.548,74.785 L 636.806,76.144 L 635.001,77.416 L 633.135,78.598 L 631.213,79.686 L 629.240,80.680 L 627.221,81.575 L 625.160,82.369 L 623.063,83.062 L 620.934,83.651 L 618.779,84.135 L 616.603,84.513 L 614.411,84.783 L 612.208,84.946 L 610.000,85.000 L 135.000,85.000 L 135.000,350.200 L 592.000,350.200 L 594.208,350.254 L 596.411,350.417 L 598.603,350.687 L 600.779,351.065 L 602.934,351.549 L 605.063,352.138 L 607.160,352.831 L 609.221,353.625 L 611.240,354.520 L 613.213,355.514 L 615.135,356.602 L 617.001,357.784 L 618.806,359.056 L 620.548,360.415 L 622.220,361.857 L 623.820,363.380 L 625.343,364.980 L 626.785,366.652 L 628.144,368.394 L 629.416,370.199 L 630.598,372.065 L 631.686,373.987 L 632.680,375.960 L 633.575,377.979 L 634.369,380.040 L 635.062,382.137 L 635.651,384.266 L 636.135,386.421 L 636.513,388.597 L 636.783,390.789 L 636.946,392.992 L 637.000,395.200 L 636.946,397.408 L 636.783,399.611 L 636.513,401.803 L 636.135,403.979 L 635.651,406.134 L 635.062,408.263 L 634.369,410.360 L 633.575,412.421 L 632.680,414.440 L 631.686,416.413 L 630.598,418.335 L 629.416,420.201 L 628.144,422.006 L 626.785,423.748 L 625.343,425.420 L 623.820,427.020 L 622.220,428.543 L 620.548,429.985 L 618.806,431.344 L 617.001,432.616 L 615.135,433.798 L 613.213,434.886 L 611.240,435.880 L 609.221,436.775 L 607.160,437.569 L 605.063,438.262 L 602.934,438.851 L 600.779,439.335 L 598.603,439.713 L 596.411,439.983 L 594.208,440.146 L 592.000,440.200 L 135.000,440.200 L 135.000,735.000 L 610.000,735.000 L 612.208,735.054 L 614.411,735.217 Z" fill="black" fill-rule="evenodd"/>
</svg>
