<svg xmlns="http://www.w3.org/2000/svg" viewBox="0 0 700.000 1000">
  <path d="M 130.000 -5.000 L 128.896 -4.986 L 127.792 -4.946 L 126.690 -4.878 L 125.589 -4.783 L 125.390 -4.761 L 124.492 -4.662 L 123.740 -4.560 L 123.397 -4.513 L 122.307 -4.337 L 121.221 -4.135 L 120.598 -4.003 L 120.140 -3.907 L 119.066 -3.651 L 117.998 -3.370 L 117.383 -3.192 L 116.937 -3.062 L 115.884 -2.729 L 114.840 -2.369 L 113.805 -1.985 L 112.779 -1.575 L 112.054 -1.264 L 111.764 -1.139 L 110.760 -0.680 L 110.246 -0.429 L 109.767 -0.195 L 108.787 0.314 L 107.820 0.846 L 106.865 1.402 L 106.688 1.511 L 105.925 1.982 L 104.999 2.584 L 104.089 3.209 L 103.723 3.473 L 103.194 3.856 L 102.315 4.524 L 101.851 4.896 L 101.452 5.215 L 100.607 5.926 L 99.780 6.657 L 98.971 7.409 L 98.341 8.023 L 98.180 8.180 L 97.813 8.557 L 97.409 8.971 L 96.657 9.780 L 96.146 10.357 L 95.926 10.607 L 95.215 11.452 L 94.524 12.315 L 94.143 12.816 L 93.856 13.194 L 93.392 13.835 L 93.209 14.089 L 92.584 14.999 L 91.982 15.925 L 91.402 16.865 L 91.159 17.282 L 90.846 17.820 L 90.533 18.388 L 90.314 18.787 L 89.805 19.767 L 89.514 20.363 L 89.320 20.760 L 89.137 21.162 L 88.861 21.764 L 88.721 22.090 L 88.425 22.779 L 88.015 23.805 L 87.631 24.840 L 87.463 25.328 L 87.271 25.884 L 87.185 26.156 L 86.938 26.937 L 86.702 27.749 L 86.630 27.998 L 86.349 29.066 L 86.093 30.140 L 85.865 31.221 L 85.743 31.872 L 85.663 32.307 L 85.604 32.670 L 85.487 33.397 L 85.338 34.492 L 85.326 34.607 L 85.217 35.589 L 85.136 36.522 L 85.122 36.690 L 85.054 37.792 L 85.014 38.896 L 85.000 40.000 L 85.000 40.000 L 85.000 410.000 L 85.000 780.000 L 85.014 781.104 L 85.054 782.208 L 85.122 783.310 L 85.217 784.411 L 85.338 785.508 L 85.487 786.603 L 85.663 787.693 L 85.865 788.779 L 86.093 789.860 L 86.349 790.934 L 86.630 792.002 L 86.938 793.063 L 87.271 794.116 L 87.631 795.160 L 88.015 796.195 L 88.425 797.221 L 88.861 798.236 L 89.320 799.240 L 89.805 800.233 L 90.314 801.213 L 90.846 802.180 L 91.402 803.135 L 91.982 804.075 L 92.584 805.001 L 93.209 805.911 L 93.856 806.806 L 94.524 807.685 L 95.215 808.548 L 95.926 809.393 L 96.657 810.220 L 97.409 811.029 L 98.180 811.820 L 98.971 812.591 L 99.780 813.343 L 100.607 814.074 L 101.452 814.785 L 102.315 815.476 L 103.194 816.144 L 104.089 816.791 L 104.999 817.416 L 105.925 818.018 L 106.865 818.598 L 107.820 819.154 L 108.787 819.686 L 109.767 820.195 L 110.760 820.680 L 111.764 821.139 L 112.779 821.575 L 113.805 821.985 L 114.840 822.369 L 115.884 822.729 L 116.937 823.062 L 117.998 823.370 L 119.066 823.651 L 120.140 823.907 L 121.221 824.135 L 122.307 824.337 L 123.397 824.513 L 124.492 824.662 L 125.589 824.783 L 126.690 824.878 L 127.792 824.946 L 128.896 824.986 L 130.000 825.000 L 375.000 825.000 L 375.254 824.997 L 375.509 824.997 L 379.689 824.950 L 380.706 824.927 L 384.885 824.785 L 385.901 824.739 L 390.075 824.503 L 391.090 824.434 L 395.258 824.104 L 396.271 824.012 L 400.431 823.587 L 401.441 823.473 L 405.590 822.954 L 406.598 822.817 L 410.734 822.205 L 411.738 822.045 L 415.860 821.339 L 416.860 821.156 L 420.964 820.358 L 421.960 820.153 L 426.046 819.262 L 427.037 819.034 L 431.101 818.051 L 432.086 817.801 L 436.127 816.726 L 437.107 816.454 L 441.122 815.288 L 442.096 814.993 L 446.084 813.737 L 447.050 813.421 L 451.009 812.075 L 451.968 811.737 L 455.896 810.302 L 456.847 809.942 L 460.741 808.419 L 461.683 808.037 L 465.542 806.426 L 466.476 806.024 L 470.297 804.326 L 471.221 803.903 L 475.003 802.119 L 475.918 801.675 L 479.658 799.806 L 480.563 799.341 L 484.260 797.389 L 485.154 796.904 L 488.806 794.868 L 489.689 794.363 L 493.294 792.245 L 494.165 791.720 L 497.721 789.521 L 498.580 788.976 L 502.086 786.698 L 502.933 786.134 L 506.386 783.777 L 507.219 783.194 L 510.619 780.759 L 511.439 780.158 L 514.782 777.647 L 515.588 777.027 L 518.874 774.441 L 519.666 773.803 L 522.893 771.144 L 523.670 770.488 L 526.836 767.757 L 527.598 767.084 L 530.701 764.281 L 531.448 763.591 L 534.487 760.719 L 535.218 760.012 L 538.191 757.073 L 538.906 756.349 L 541.812 753.343 L 542.511 752.604 L 545.348 749.533 L 546.030 748.778 L 548.797 745.644 L 549.462 744.874 L 552.157 741.677 L 552.804 740.893 L 555.427 737.636 L 556.056 736.837 L 558.604 733.522 L 559.215 732.709 L 561.688 729.338 L 562.280 728.511 L 564.676 725.084 L 565.249 724.244 L 567.568 720.764 L 568.122 719.912 L 570.361 716.380 L 570.895 715.515 L 573.054 711.934 L 573.569 711.057 L 575.646 707.429 L 576.141 706.540 L 578.135 702.865 L 578.610 701.966 L 580.521 698.247 L 580.976 697.337 L 582.802 693.576 L 583.236 692.656 L 584.977 688.855 L 585.390 687.925 L 587.044 684.085 L 587.436 683.147 L 589.003 679.270 L 589.374 678.323 L 590.853 674.413 L 591.202 673.457 L 592.593 669.514 L 592.920 668.551 L 594.221 664.578 L 594.527 663.608 L 595.738 659.606 L 596.021 658.629 L 597.141 654.601 L 597.403 653.618 L 598.431 649.565 L 598.671 648.577 L 599.607 644.502 L 599.824 643.508 L 600.669 639.413 L 600.863 638.415 L 601.615 634.302 L 601.786 633.299 L 602.445 629.170 L 602.594 628.164 L 603.159 624.021 L 603.285 623.012 L 603.757 618.858 L 603.860 617.846 L 604.238 613.682 L 604.318 612.668 L 604.601 608.496 L 604.659 607.481 L 604.848 603.304 L 604.882 602.288 L 604.977 598.108 L 604.988 597.091 L 604.988 592.909 L 604.977 591.892 L 604.882 587.712 L 604.848 586.696 L 604.659 582.519 L 604.601 581.504 L 604.318 577.332 L 604.238 576.318 L 603.860 572.154 L 603.757 571.142 L 603.285 566.988 L 603.159 565.979 L 602.594 561.836 L 602.445 560.830 L 601.786 556.701 L 601.615 555.698 L 600.863 551.585 L 600.669 550.587 L 599.824 546.492 L 599.607 545.498 L 598.671 541.423 L 598.431 540.435 L 597.403 536.382 L 597.141 535.399 L 596.021 531.371 L 595.738 530.394 L 594.527 526.392 L 594.221 525.422 L 592.920 521.449 L 592.593 520.486 L 591.202 516.543 L 590.853 515.587 L 589.374 511.677 L 589.003 510.730 L 587.436 506.853 L 587.044 505.915 L 585.390 502.075 L 584.977 501.145 L 583.236 497.344 L 582.802 496.424 L 580.976 492.663 L 580.521 491.753 L 578.610 488.034 L 578.135 487.135 L 576.141 483.460 L 575.646 482.571 L 573.569 478.943 L 573.054 478.066 L 570.895 474.485 L 570.361 473.620 L 568.122 470.088 L 567.568 469.236 L 565.249 465.756 L 564.676 464.916 L 562.280 461.489 L 561.688 460.662 L 559.215 457.291 L 558.604 456.478 L 556.056 453.163 L 555.427 452.364 L 552.804 449.107 L 552.157 448.323 L 549.462 445.126 L 548.797 444.356 L 546.030 441.222 L 545.348 440.467 L 542.511 437.396 L 541.812 436.657 L 538.906 433.651 L 538.191 432.927 L 535.218 429.988 L 534.487 429.281 L 531.448 426.409 L 530.701 425.719 L 527.598 422.916 L 526.836 422.243 L 523.670 419.512 L 522.893 418.856 L 519.666 416.197 L 518.874 415.559 L 515.588 412.973 L 514.782 412.353 L 511.649 410.000 L 514.782 407.647 L 515.588 407.027 L 518.874 404.441 L 519.666 403.803 L 522.893 401.144 L 523.670 400.488 L 526.836 397.757 L 527.598 397.084 L 530.701 394.281 L 531.448 393.591 L 534.487 390.719 L 535.218 390.012 L 538.191 387.073 L 538.906 386.349 L 541.812 383.343 L 542.511 382.604 L 545.348 379.533 L 546.030 378.778 L 548.797 375.644 L 549.462 374.874 L 552.157 371.677 L 552.804 370.893 L 555.427 367.636 L 556.056 366.837 L 558.604 363.522 L 559.215 362.709 L 561.688 359.338 L 562.280 358.511 L 564.676 355.084 L 565.249 354.244 L 567.568 350.764 L 568.122 349.912 L 570.361 346.380 L 570.895 345.515 L 573.054 341.934 L 573.569 341.057 L 575.646 337.429 L 576.141 336.540 L 578.135 332.865 L 578.610 331.966 L 580.521 328.247 L 580.976 327.337 L 582.802 323.576 L 583.236 322.656 L 584.977 318.855 L 585.390 317.925 L 587.044 314.085 L 587.436 313.147 L 589.003 309.270 L 589.374 308.323 L 590.853 304.413 L 591.202 303.457 L 592.593 299.514 L 592.920 298.551 L 594.221 294.578 L 594.527 293.608 L 595.738 289.606 L 596.021 288.629 L 597.141 284.601 L 597.403 283.618 L 598.431 279.565 L 598.671 278.577 L 599.607 274.502 L 599.824 273.508 L 600.669 269.413 L 600.863 268.415 L 601.615 264.302 L 601.786 263.299 L 602.445 259.170 L 602.594 258.164 L 603.159 254.021 L 603.285 253.012 L 603.757 248.858 L 603.860 247.846 L 604.238 243.682 L 604.318 242.668 L 604.601 238.496 L 604.659 237.481 L 604.848 233.304 L 604.882 232.288 L 604.977 228.108 L 604.988 227.091 L 604.988 222.909 L 604.977 221.892 L 604.882 217.712 L 604.848 216.696 L 604.659 212.519 L 604.601 211.504 L 604.318 207.332 L 604.238 206.318 L 603.860 202.154 L 603.757 201.142 L 603.285 196.988 L 603.159 195.979 L 602.594 191.836 L 602.445 190.830 L 601.786 186.701 L 601.615 185.698 L 600.863 181.585 L 600.669 180.587 L 599.824 176.492 L 599.607 175.498 L 598.671 171.423 L 598.431 170.435 L 597.403 166.382 L 597.141 165.399 L 596.021 161.371 L 595.738 160.394 L 594.527 156.392 L 594.221 155.422 L 592.920 151.449 L 592.593 150.486 L 591.202 146.543 L 590.853 145.587 L 589.374 141.677 L 589.003 140.730 L 587.436 136.853 L 587.044 135.915 L 585.390 132.075 L 584.977 131.145 L 583.236 127.344 L 582.802 126.424 L 580.976 122.663 L 580.521 121.753 L 578.610 118.034 L 578.135 117.135 L 576.141 113.460 L 575.646 112.571 L 573.569 108.943 L 573.054 108.066 L 570.895 104.485 L 570.361 103.620 L 568.122 100.088 L 567.568 99.236 L 565.249 95.756 L 564.676 94.916 L 562.280 91.489 L 561.688 90.662 L 559.215 87.291 L 558.604 86.478 L 556.056 83.163 L 555.427 82.364 L 552.804 79.107 L 552.157 78.323 L 549.462 75.126 L 548.797 74.356 L 546.030 71.222 L 545.348 70.467 L 542.511 67.396 L 541.812 66.657 L 538.906 63.651 L 538.191 62.927 L 535.218 59.988 L 534.487 59.281 L 531.448 56.409 L 530.701 55.719 L 527.598 52.916 L 526.836 52.243 L 523.670 49.512 L 522.893 48.856 L 519.666 46.197 L 518.874 45.559 L 515.588 42.973 L 514.782 42.353 L 511.439 39.842 L 510.619 39.241 L 507.219 36.806 L 506.386 36.223 L 502.933 33.866 L 502.086 33.302 L 498.580 31.024 L 497.721 30.479 L 494.165 28.280 L 493.294 27.755 L 489.689 25.637 L 488.806 25.132 L 485.154 23.096 L 484.260 22.611 L 480.563 20.659 L 479.658 20.194 L 475.918 18.325 L 475.003 17.881 L 471.221 16.097 L 470.297 15.674 L 466.476 13.976 L 465.542 13.574 L 461.683 11.963 L 460.741 11.581 L 456.847 10.058 L 455.896 9.698 L 451.968 8.263 L 451.009 7.925 L 447.050 6.579 L 446.084 6.263 L 442.096 5.007 L 441.122 4.712 L 437.107 3.546 L 436.127 3.274 L 432.086 2.199 L 431.101 1.949 L 427.037 0.966 L 426.046 0.738 L 421.960 -0.153 L 420.964 -0.358 L 416.860 -1.156 L 415.860 -1.339 L 411.738 -2.045 L 410.734 -2.205 L 406.598 -2.817 L 405.590 -2.954 L 401.441 -3.473 L 400.431 -3.587 L 396.271 -4.012 L 395.258 -4.104 L 391.090 -4.434 L 390.075 -4.503 L 385.901 -4.739 L 384.885 -4.785 L 380.706 -4.927 L 379.689 -4.950 L 375.509 -4.997 L 375.254 -4.997 L 375.000 -5.000 L 130.000 -5.000 Z M 175.000 85.000 L 374.746 85.000 L 378.164 85.039 L 381.326 85.146 L 384.485 85.325 L 387.639 85.575 L 390.787 85.896 L 393.927 86.288 L 397.057 86.751 L 400.175 87.285 L 403.281 87.889 L 406.373 88.563 L 409.448 89.307 L 412.506 90.120 L 415.544 91.002 L 418.562 91.953 L 421.558 92.971 L 424.530 94.057 L 427.476 95.210 L 430.396 96.429 L 433.288 97.714 L 436.149 99.064 L 438.980 100.478 L 441.778 101.956 L 444.541 103.496 L 447.270 105.099 L 449.961 106.763 L 452.614 108.487 L 455.227 110.271 L 457.799 112.113 L 460.329 114.013 L 462.816 115.970 L 465.257 117.982 L 467.653 120.049 L 470.001 122.170 L 472.301 124.343 L 474.551 126.568 L 476.750 128.843 L 478.897 131.167 L 480.991 133.539 L 483.031 135.958 L 485.016 138.422 L 486.944 140.930 L 488.815 143.482 L 490.629 146.075 L 492.383 148.708 L 494.077 151.380 L 495.710 154.090 L 497.282 156.836 L 498.791 159.617 L 500.237 162.431 L 501.619 165.278 L 502.937 168.154 L 504.189 171.060 L 505.375 173.994 L 506.494 176.953 L 507.546 179.937 L 508.531 182.944 L 509.447 185.972 L 510.295 189.021 L 511.073 192.088 L 511.782 195.171 L 512.422 198.270 L 512.991 201.383 L 513.489 204.507 L 513.917 207.642 L 514.274 210.786 L 514.559 213.937 L 514.774 217.094 L 514.917 220.255 L 514.988 223.418 L 514.988 226.582 L 514.917 229.745 L 514.774 232.906 L 514.559 236.063 L 514.274 239.214 L 513.917 242.358 L 513.489 245.493 L 512.991 248.617 L 512.422 251.730 L 511.782 254.829 L 511.073 257.912 L 510.295 260.979 L 509.447 264.028 L 508.531 267.056 L 507.546 270.063 L 506.494 273.047 L 505.375 276.006 L 504.189 278.940 L 502.937 281.846 L 501.619 284.722 L 500.237 287.569 L 498.791 290.383 L 497.282 293.164 L 495.710 295.910 L 494.077 298.620 L 492.383 301.292 L 490.629 303.925 L 488.815 306.518 L 486.944 309.070 L 485.016 311.578 L 483.031 314.042 L 480.991 316.461 L 478.897 318.833 L 476.750 321.157 L 474.551 323.432 L 472.301 325.657 L 470.001 327.830 L 467.653 329.951 L 465.257 332.018 L 462.816 334.030 L 460.329 335.987 L 457.799 337.887 L 455.227 339.729 L 452.614 341.513 L 449.961 343.237 L 447.270 344.901 L 444.541 346.504 L 441.778 348.044 L 438.980 349.522 L 436.149 350.936 L 433.288 352.286 L 430.396 353.571 L 427.476 354.790 L 424.530 355.943 L 421.558 357.029 L 418.562 358.047 L 415.544 358.998 L 412.506 359.880 L 409.448 360.693 L 406.373 361.437 L 403.281 362.111 L 400.175 362.715 L 397.057 363.249 L 393.927 363.712 L 390.787 364.104 L 387.639 364.425 L 384.485 364.675 L 381.326 364.854 L 378.164 364.961 L 374.746 365.000 L 175.000 365.000 L 175.000 85.000 Z M 175.000 455.000 L 374.746 455.000 L 378.164 455.039 L 381.326 455.146 L 384.485 455.325 L 387.639 455.575 L 390.787 455.896 L 393.927 456.288 L 397.057 456.751 L 400.175 457.285 L 403.281 457.889 L 406.373 458.563 L 409.448 459.307 L 412.506 460.120 L 415.544 461.002 L 418.562 461.953 L 421.558 462.971 L 424.530 464.057 L 427.476 465.210 L 430.396 466.429 L 433.288 467.714 L 436.149 469.064 L 438.980 470.478 L 441.778 471.956 L 444.541 473.496 L 447.270 475.099 L 449.961 476.763 L 452.614 478.487 L 455.227 480.271 L 457.799 482.113 L 460.329 484.013 L 462.816 485.970 L 465.257 487.982 L 467.653 490.049 L 470.001 492.170 L 472.301 494.343 L 474.551 496.568 L 476.750 498.843 L 478.897 501.167 L 480.991 503.539 L 483.031 505.958 L 485.016 508.422 L 486.944 510.930 L 488.815 513.482 L 490.629 516.075 L 492.383 518.708 L 494.077 521.380 L 495.710 524.090 L 497.282 526.836 L 498.791 529.617 L 500.237 532.431 L 501.619 535.278 L 502.937 538.154 L 504.189 541.060 L 505.375 543.994 L 506.494 546.953 L 507.546 549.937 L 508.531 552.944 L 509.447 555.972 L 510.295 559.021 L 511.073 562.088 L 511.782 565.171 L 512.422 568.270 L 512.991 571.383 L 513.489 574.507 L 513.917 577.642 L 514.274 580.786 L 514.559 583.937 L 514.774 587.094 L 514.917 590.255 L 514.988 593.418 L 514.988 596.582 L 514.917 599.745 L 514.774 602.906 L 514.559 606.063 L 514.274 609.214 L 513.917 612.358 L 513.489 615.493 L 512.991 618.617 L 512.422 621.730 L 511.782 624.829 L 511.073 627.912 L 510.295 630.979 L 509.447 634.028 L 508.531 637.056 L 507.546 640.063 L 506.494 643.047 L 505.375 646.006 L 504.189 648.940 L 502.937 651.846 L 501.619 654.722 L 500.237 657.569 L 498.791 660.383 L 497.282 663.164 L 495.710 665.910 L 494.077 668.620 L 492.383 671.292 L 490.629 673.925 L 488.815 676.518 L 486.944 679.070 L 485.016 681.578 L 483.031 684.042 L 480.991 686.461 L 478.897 688.833 L 476.750 691.157 L 474.551 693.432 L 472.301 695.657 L 470.001 697.830 L 467.653 699.951 L 465.257 702.018 L 462.816 704.030 L 460.329 705.987 L 457.799 707.887 L 455.227 709.729 L 452.614 711.513 L 449.961 713.237 L 447.270 714.901 L 444.541 716.504 L 441.778 718.044 L 438.980 719.522 L 436.149 720.936 L 433.288 722.286 L 430.396 723.571 L 427.476 724.790 L 424.530 725.943 L 421.558 727.029 L 418.562 728.047 L 415.544 728.998 L 412.506 729.880 L 409.448 730.693 L 406.373 731.437 L 403.281 732.111 L 400.175 732.715 L 397.057 733.249 L 393.927 733.712 L 390.787 734.104 L 387.639 734.425 L 384.485 734.675 L 381.326 734.854 L 378.164 734.961 L 374.746 735.000 L 175.000 735.000 L 175.000 455.000 Z" fill="black" fill-rule="evenodd"/>
</svg>
