<svg xmlns="http://www.w3.org/2000/svg" viewBox="0 0 700.000 1000">
  <path d="M 85.024 781.472 L 85.096 782.943 L 85.217 784.411 L 85.385 785.874 L 85.601 787.330 L 85.865 788.779 L 86.176 790.218 L 86.533 791.647 L 86.938 793.063 L 87.388 794.465 L 87.884 795.851 L 88.425 797.221 L 89.011 798.572 L 89.641 799.903 L 90.314 801.213 L 91.029 802.500 L 91.786 803.763 L 92.584 805.001 L 93.422 806.211 L 94.299 807.394 L 95.215 808.548 L 96.167 809.671 L 97.156 810.762 L 98.180 811.820 L 99.238 812.844 L 100.329 813.833 L 101.452 814.785 L 102.606 815.701 L 103.789 816.578 L 104.999 817.416 L 106.237 818.214 L 107.500 818.971 L 108.787 819.686 L 110.097 820.359 L 111.428 820.989 L 112.779 821.575 L 114.149 822.116 L 115.535 822.612 L 116.937 823.062 L 118.353 823.467 L 119.782 823.824 L 121.221 824.135 L 122.670 824.399 L 124.126 824.615 L 125.589 824.783 L 127.057 824.904 L 128.528 824.976 L 130.000 825.000 L 570.000 825.000 L 571.472 824.976 L 572.943 824.904 L 574.411 824.783 L 575.874 824.615 L 577.330 824.399 L 578.779 824.135 L 580.218 823.824 L 581.647 823.467 L 583.063 823.062 L 584.465 822.612 L 585.851 822.116 L 587.221 821.575 L 588.572 820.989 L 589.903 820.359 L 591.213 819.686 L 592.500 818.971 L 593.763 818.214 L 595.001 817.416 L 596.211 816.578 L 597.394 815.701 L 598.548 814.785 L 599.671 813.833 L 600.762 812.844 L 601.820 811.820 L 602.844 810.762 L 603.833 809.671 L 604.785 808.548 L 605.701 807.394 L 606.578 806.211 L 607.416 805.001 L 608.214 803.763 L 608.971 802.500 L 609.686 801.213 L 610.359 799.903 L 610.989 798.572 L 611.575 797.221 L 612.116 795.851 L 612.612 794.465 L 613.062 793.063 L 613.467 791.647 L 613.824 790.218 L 614.135 788.779 L 614.399 787.330 L 614.615 785.874 L 614.783 784.411 L 614.904 782.943 L 614.976 781.472 L 615.000 780.000 L 614.976 778.528 L 614.904 777.057 L 614.783 775.589 L 614.615 774.126 L 614.399 772.670 L 614.135 771.221 L 613.824 769.782 L 613.467 768.353 L 613.062 766.937 L 612.612 765.535 L 612.116 764.149 L 611.575 762.779 L 610.989 761.428 L 610.359 760.097 L 609.686 758.787 L 608.971 757.500 L 608.214 756.237 L 607.416 754.999 L 606.578 753.789 L 605.701 752.606 L 604.785 751.452 L 603.833 750.329 L 602.844 749.238 L 601.820 748.180 L 600.762 747.156 L 599.671 746.167 L 598.548 745.215 L 597.394 744.299 L 596.211 743.422 L 595.001 742.584 L 593.763 741.786 L 592.500 741.029 L 591.213 740.314 L 589.903 739.641 L 588.572 739.011 L 587.221 738.425 L 585.851 737.884 L 584.465 737.388 L 583.063 736.938 L 581.647 736.533 L 580.218 736.176 L 578.779 735.865 L 577.330 735.601 L 575.874 735.385 L 574.411 735.217 L 572.943 735.096 L 571.472 735.024 L 570.000 735.000 L 175.000 735.000 L 175.000 40.000 L 174.976 38.528 L 174.904 37.057 L 174.783 35.589 L 174.615 34.126 L 174.399 32.670 L 174.135 31.221 L 173.824 29.782 L 173.467 28.353 L 173.062 26.937 L 172.612 25.535 L 172.116 24.149 L 171.575 22.779 L 170.989 21.428 L 170.359 20.097 L 169.686 18.787 L 168.971 17.500 L 168.214 16.237 L 167.416 14.999 L 166.578 13.789 L 165.701 12.606 L 164.785 11.452 L 163.833 10.329 L 162.844 9.238 L 161.820 8.180 L 160.762 7.156 L 159.671 6.167 L 158.548 5.215 L 157.394 4.299 L 156.211 3.422 L 155.001 2.584 L 153.763 1.786 L 152.500 1.029 L 151.213 0.314 L 149.903 -0.359 L 148.572 -0.989 L 147.221 -1.575 L 145.851 -2.116 L 144.465 -2.612 L 143.063 -3.062 L 141.647 -3.467 L 140.218 -3.824 L 138.779 -4.135 L 137.330 -4.399 L 135.874 -4.615 L 134.411 -4.783 L 132.943 -4.904 L 131.472 -4.976 L 130.000 -5.000 L 128.528 -4.976 L 127.057 -4.904 L 125.589 -4.783 L 124.126 -4.615 L 122.670 -4.399 L 121.221 -4.135 L 119.782 -3.824 L 118.353 -3.467 L 116.937 -3.062 L 115.535 -2.612 L 114.149 -2.116 L 112.779 -1.575 L 111.428 -0.989 L 110.097 -0.359 L 108.787 0.314 L 107.500 1.029 L 106.237 1.786 L 104.999 2.584 L 103.789 3.422 L 102.606 4.299 L 101.452 5.215 L 100.329 6.167 L 99.238 7.156 L 98.180 8.180 L 97.156 9.238 L 96.167 10.329 L 95.215 11.452 L 94.299 12.606 L 93.422 13.789 L 92.584 14.999 L 91.786 16.237 L 91.029 17.500 L 90.314 18.787 L 89.641 20.097 L 89.011 21.428 L 88.425 22.779 L 87.884 24.149 L 87.388 25.535 L 86.938 26.937 L 86.533 28.353 L 86.176 29.782 L 85.865 31.221 L 85.601 32.670 L 85.385 34.126 L 85.217 35.589 L 85.096 37.057 L 85.024 38.528 L 85.000 40.000 L 85.000 780.000 L 85.024 781.472 Z" fill="black" fill-rule="evenodd"/>
</svg>
