<svg xmlns="http://www.w3.org/2000/svg" viewBox="0 0 700.000 1000">
  <path d="M 305.000 780.000 L 305.024 781.472 L 305.096 782.943 L 305.217 784.411 L 305.385 785.874 L 305.601 787.330 L 305.865 788.779 L 306.176 790.218 L 306.533 791.647 L 306.938 793.063 L 307.388 794.465 L 307.884 795.851 L 308.425 797.221 L 309.011 798.572 L 309.641 799.903 L 310.314 801.213 L 311.029 802.500 L 311.786 803.763 L 312.584 805.001 L 313.422 806.211 L 314.299 807.394 L 315.215 808.548 L 316.167 809.671 L 317.156 810.762 L 318.180 811.820 L 319.238 812.844 L 320.329 813.833 L 321.452 814.785 L 322.606 815.701 L 323.789 816.578 L 324.999 817.416 L 326.237 818.214 L 327.500 818.971 L 328.787 819.686 L 330.097 820.359 L 331.428 820.989 L 332.779 821.575 L 334.149 822.116 L 335.535 822.612 L 336.937 823.062 L 338.353 823.467 L 339.782 823.824 L 341.221 824.135 L 342.670 824.399 L 344.126 824.615 L 345.589 824.783 L 347.057 824.904 L 348.528 824.976 L 350.000 825.000 L 351.472 824.976 L 352.943 824.904 L 354.411 824.783 L 355.874 824.615 L 357.330 824.399 L 358.779 824.135 L 360.218 823.824 L 361.647 823.467 L 363.063 823.062 L 364.465 822.612 L 365.851 822.116 L 367.221 821.575 L 368.572 820.989 L 369.903 820.359 L 371.213 819.686 L 372.500 818.971 L 373.763 818.214 L 375.001 817.416 L 376.211 816.578 L 377.394 815.701 L 378.548 814.785 L 379.671 813.833 L 380.762 812.844 L 381.820 811.820 L 382.844 810.762 L 383.833 809.671 L 384.785 808.548 L 385.701 807.394 L 386.578 806.211 L 387.416 805.001 L 388.214 803.763 L 388.971 802.500 L 389.686 801.213 L 390.359 799.903 L 390.989 798.572 L 391.575 797.221 L 392.116 795.851 L 392.612 794.465 L 393.062 793.063 L 393.467 791.647 L 393.824 790.218 L 394.135 788.779 L 394.399 787.330 L 394.615 785.874 L 394.783 784.411 L 394.904 782.943 L 394.976 781.472 L 395.000 780.000 L 395.000 40.000 L 394.976 38.528 L 394.904 37.057 L 394.783 35.589 L 394.615 34.126 L 394.399 32.670 L 394.135 31.221 L 393.824 29.782 L 393.467 28.353 L 393.062 26.937 L 392.612 25.535 L 392.116 24.149 L 391.575 22.779 L 390.989 21.428 L 390.359 20.097 L 389.686 18.787 L 388.971 17.500 L 388.214 16.237 L 387.416 14.999 L 386.578 13.789 L 385.701 12.606 L 384.785 11.452 L 383.833 10.329 L 382.844 9.238 L 381.820 8.180 L 380.762 7.156 L 379.671 6.167 L 378.548 5.215 L 377.394 4.299 L 376.211 3.422 L 375.001 2.584 L 373.763 1.786 L 372.500 1.029 L 371.213 0.314 L 369.903 -0.359 L 368.572 -0.989 L 367.221 -1.575 L 365.851 -2.116 L 364.465 -2.612 L 363.063 -3.062 L 361.647 -3.467 L 360.218 -3.824 L 358.779 -4.135 L 357.330 -4.399 L 355.874 -4.615 L 354.411 -4.783 L 352.943 -4.904 L 351.472 -4.976 L 350.000 -5.000 L 348.528 -4.976 L 347.057 -4.904 L 345.589 -4.783 L 344.126 -4.615 L 342.670 -4.399 L 341.221 -4.135 L 339.782 -3.824 L 338.353 -3.467 L 336.937 -3.062 L 335.535 -2.612 L 334.149 -2.116 L 332.779 -1.575 L 331.428 -0.989 L 330.097 -0.359 L 328.787 0.314 L 327.500 1.029 L 326.237 1.786 L 324.999 2.584 L 323.789 3.422 L 322.606 4.299 L 321.452 5.215 L 320.329 6.167 L 319.238 7.156 L 318.180 8.180 L 317.156 9.238 L 316.167 10.329 L 315.215 11.452 L 314.299 12.606 L 313.422 13.789 L 312.584 14.999 L 311.786 16.237 L 311.029 17.500 L 310.314 18.787 L 309.641 20.097 L 309.011 21.428 L 308.425 22.779 L 307.884 24.149 L 307.388 25.535 L 306.938 26.937 L 306.533 28.353 L 306.176 29.782 L 305.865 31.221 L 305.601 32.670 L 305.385 34.126 L 305.217 35.589 L 305.096 37.057 L 305.024 38.528 L 305.000 40.000 L 305.000 780.000 Z" fill="black" fill-rule="evenodd"/>
</svg>
