<svg xmlns="http://www.w3.org/2000/svg" viewBox="0 0 700.000 1000.000">
  <path d="M 705.786,394.096 L 705.786,396.304 L 705.412,411.555 L 705.304,413.761 L 704.181,428.974 L 703.965,431.172 L 702.098,446.312 L 701.774,448.497 L 699.166,463.527 L 698.735,465.694 L 695.392,480.578 L 694.856,482.720 L 690.787,497.423 L 690.146,499.536 L 685.361,514.021 L 684.617,516.101 L 679.126,530.333 L 678.281,532.374 L 672.099,546.320 L 671.155,548.317 L 664.296,561.943 L 663.255,563.891 L 655.736,577.164 L 654.600,579.058 L 646.439,591.946 L 645.212,593.783 L 636.428,606.255 L 635.112,608.029 L 625.727,620.055 L 624.326,621.762 L 614.362,633.313 L 612.879,634.950 L 602.360,645.998 L 600.798,647.560 L 589.750,658.079 L 588.113,659.562 L 576.562,669.526 L 574.855,670.927 L 562.829,680.312 L 561.055,681.628 L 548.583,690.412 L 546.746,691.639 L 533.858,699.800 L 531.964,700.936 L 518.691,708.455 L 516.743,709.496 L 503.117,716.355 L 501.120,717.299 L 487.174,723.481 L 485.133,724.326 L 470.901,729.817 L 468.821,730.561 L 454.336,735.346 L 452.223,735.987 L 437.520,740.056 L 435.378,740.592 L 420.494,743.935 L 418.327,744.366 L 403.297,746.974 L 401.112,747.298 L 385.972,749.165 L 383.774,749.381 L 368.561,750.504 L 366.355,750.612 L 351.104,750.986 L 348.896,750.986 L 333.645,750.612 L 331.439,750.504 L 316.226,749.381 L 314.028,749.165 L 298.888,747.298 L 296.703,746.974 L 281.673,744.366 L 279.506,743.935 L 264.622,740.592 L 262.480,740.056 L 247.777,735.987 L 245.664,735.346 L 231.179,730.561 L 229.099,729.817 L 214.867,724.326 L 212.826,723.481 L 198.880,717.299 L 196.883,716.355 L 183.257,709.496 L 181.309,708.455 L 168.036,700.936 L 166.142,699.800 L 153.254,691.639 L 151.417,690.412 L 138.945,681.628 L 137.171,680.312 L 125.145,670.927 L 123.438,669.526 L 111.887,659.562 L 110.250,658.079 L 99.202,647.560 L 97.640,645.998 L 87.121,634.950 L 85.638,633.313 L 75.674,621.762 L 74.273,620.055 L 64.888,608.029 L 63.572,606.255 L 54.788,593.783 L 53.561,591.946 L 45.400,579.058 L 44.264,577.164 L 36.745,563.891 L 35.704,561.943 L 28.845,548.317 L 27.901,546.320 L 21.719,532.374 L 20.874,530.333 L 15.383,516.101 L 14.639,514.021 L 9.854,499.536 L 9.213,497.423 L 5.144,482.720 L 4.608,480.578 L 1.265,465.694 L 0.834,463.527 L -1.774,448.497 L -2.098,446.312 L -3.965,431.172 L -4.181,428.974 L -5.304,413.761 L -5.412,411.555 L -5.786,396.304 L -5.786,394.096 L -5.412,378.845 L -5.304,376.639 L -4.181,361.426 L -3.965,359.228 L -2.098,344.088 L -1.774,341.903 L 0.834,326.873 L 1.265,324.706 L 4.608,309.822 L 5.144,307.680 L 9.213,292.977 L 9.854,290.864 L 14.639,276.379 L 15.383,274.299 L 20.874,260.067 L 21.719,258.026 L 27.901,244.080 L 28.845,242.083 L 35.704,228.457 L 36.745,226.509 L 44.264,213.236 L 45.400,211.342 L 53.561,198.454 L 54.788,196.617 L 63.572,184.145 L 64.888,182.371 L 74.273,170.345 L 75.674,168.638 L 85.638,157.087 L 87.121,155.450 L 97.640,144.402 L 99.202,142.840 L 110.250,132.321 L 111.887,130.838 L 123.438,120.874 L 125.145,119.473 L 137.171,110.088 L 138.945,108.772 L 151.417,99.988 L 153.254,98.761 L 166.142,90.600 L 168.036,89.464 L 181.309,81.945 L 183.257,80.904 L 196.883,74.045 L 198.880,73.101 L 212.826,66.919 L 214.867,66.074 L 229.099,60.583 L 231.179,59.839 L 245.664,55.054 L 247.777,54.413 L 262.480,50.344 L 264.622,49.808 L 279.506,46.465 L 281.673,46.034 L 296.703,43.426 L 298.888,43.102 L 314.028,41.235 L 316.226,41.019 L 331.439,39.896 L 333.645,39.788 L 348.896,39.414 L 351.104,39.414 L 366.355,39.788 L 368.561,39.896 L 383.774,41.019 L 385.972,41.235 L 401.112,43.102 L 403.297,43.426 L 418.327,46.034 L 420.494,46.465 L 435.378,49.808 L 437.520,50.344 L 452.223,54.413 L 454.336,55.054 L 468.821,59.839 L 470.901,60.583 L 485.133,66.074 L 487.174,66.919 L 501.120,73.101 L 503.117,74.045 L 516.743,80.904 L 518.691,81.945 L 531.964,89.464 L 533.858,90.600 L 546.746,98.761 L 548.583,99.988 L 561.055,108.772 L 562.829,110.088 L 574.855,119.473 L 576.562,120.874 L 588.113,130.838 L 589.750,132.321 L 600.798,142.840 L 602.360,144.402 L 612.879,155.450 L 614.362,157.087 L 624.326,168.638 L 625.727,170.345 L 635.112,182.371 L 636.428,184.145 L 645.212,196.617 L 646.439,198.454 L 654.600,211.342 L 655.736,213.236 L 663.255,226.509 L 664.296,228.457 L 671.155,242.083 L 672.099,244.080 L 678.281,258.026 L 679.126,260.067 L 684.617,274.299 L 685.361,276.379 L 690.146,290.864 L 690.787,292.977 L 694.856,307.680 L 695.392,309.822 L 698.735,324.706 L 699.166,326.873 L 701.774,341.903 L 702.098,344.088 L 703.965,359.228 L 704.181,361.426 L 705.304,376.639 L 705.412,378.845 L 705.786,394.096 Z M 615.786,395.200 L 615.466,382.158 L 614.507,369.148 L 612.910,356.201 L 610.679,343.348 L 607.821,330.619 L 604.342,318.046 L 600.250,305.659 L 595.555,293.488 L 590.268,281.562 L 584.403,269.909 L 577.973,258.558 L 570.993,247.537 L 563.482,236.871 L 555.456,226.587 L 546.935,216.709 L 537.939,207.261 L 528.491,198.265 L 518.613,189.744 L 508.329,181.718 L 497.663,174.207 L 486.642,167.227 L 475.291,160.797 L 463.638,154.932 L 451.712,149.645 L 439.541,144.950 L 427.154,140.858 L 414.581,137.379 L 401.852,134.521 L 388.999,132.290 L 376.052,130.693 L 363.042,129.734 L 350.000,129.414 L 336.958,129.734 L 323.948,130.693 L 311.001,132.290 L 298.148,134.521 L 285.419,137.379 L 272.846,140.858 L 260.459,144.950 L 248.288,149.645 L 236.362,154.932 L 224.709,160.797 L 213.358,167.227 L 202.337,174.207 L 191.671,181.718 L 181.387,189.744 L 171.509,198.265 L 162.061,207.261 L 153.065,216.709 L 144.544,226.587 L 136.518,236.871 L 129.007,247.537 L 122.027,258.558 L 115.597,269.909 L 109.732,281.562 L 104.445,293.488 L 99.750,305.659 L 95.658,318.046 L 92.179,330.619 L 89.321,343.348 L 87.090,356.201 L 85.493,369.148 L 84.534,382.158 L 84.214,395.200 L 84.534,408.242 L 85.493,421.252 L 87.090,434.199 L 89.321,447.052 L 92.179,459.781 L 95.658,472.354 L 99.750,484.741 L 104.445,496.912 L 109.732,508.838 L 115.597,520.491 L 122.027,531.842 L 129.007,542.863 L 136.518,553.529 L 144.544,563.813 L 153.065,573.691 L 162.061,583.139 L 171.509,592.135 L 181.387,600.656 L 191.671,608.682 L 202.337,616.193 L 213.358,623.173 L 224.709,629.603 L 236.362,635.468 L 248.288,640.755 L 260.459,645.450 L 272.846,649.542 L 285.419,653.021 L 298.148,655.879 L 311.001,658.110 L 323.948,659.707 L 336.958,660.666 L 350.000,660.986 L 363.042,660.666 L 376.052,659.707 L 388.999,658.110 L 401.852,655.879 L 414.581,653.021 L 427.154,649.542 L 439.541,645.450 L 451.712,640.755 L 463.638,635.468 L 475.291,629.603 L 486.642,623.173 L 497.663,616.193 L 508.329,608.682 L 518.613,600.656 L 528.491,592.135 L 537.939,583.139 L 546.935,573.691 L 555.456,563.813 L 563.482,553.529 L 570.993,542.863 L 577.973,531.842 L 584.403,520.491 L 590.268,508.838 L 595.555,496.912 L 600.250,484.741 L 604.342,472.354 L 607.821,459.781 L 610.679,447.052 L 612.910,434.199 L 614.507,421.252 L 615.466,408.242 L 615.786,395.200 Z" fill="black" fill-rule="evenodd"/>
</svg>
