<svg xmlns="http://www.w3.org/2000/svg" viewBox="0 0 700.000 1000">
  <path d="M 471.213 689.686 L 472.500 688.971 L 473.763 688.214 L 475.001 687.416 L 476.211 686.578 L 477.394 685.701 L 478.548 684.785 L 479.671 683.833 L 480.762 682.844 L 481.820 681.820 L 482.844 680.762 L 483.833 679.671 L 484.785 678.548 L 485.701 677.394 L 486.578 676.211 L 487.416 675.001 L 488.214 673.763 L 488.971 672.500 L 489.686 671.213 L 490.359 669.903 L 490.989 668.572 L 491.575 667.221 L 492.116 665.851 L 492.612 664.465 L 493.062 663.063 L 493.467 661.647 L 493.824 660.218 L 494.135 658.779 L 494.399 657.330 L 494.615 655.874 L 494.783 654.411 L 494.904 652.943 L 494.976 651.472 L 495.000 650.000 L 495.000 40.000 L 494.976 38.528 L 494.904 37.057 L 494.783 35.589 L 494.615 34.126 L 494.399 32.670 L 494.135 31.221 L 493.824 29.782 L 493.467 28.353 L 493.062 26.937 L 492.612 25.535 L 492.116 24.149 L 491.575 22.779 L 490.989 21.428 L 490.359 20.097 L 489.686 18.787 L 488.971 17.500 L 488.214 16.237 L 487.416 14.999 L 486.578 13.789 L 485.701 12.606 L 484.785 11.452 L 483.833 10.329 L 482.844 9.238 L 481.820 8.180 L 480.762 7.156 L 479.671 6.167 L 478.548 5.215 L 477.394 4.299 L 476.211 3.422 L 475.001 2.584 L 473.763 1.786 L 472.500 1.029 L 471.213 0.314 L 469.903 -0.359 L 468.572 -0.989 L 467.221 -1.575 L 465.851 -2.116 L 464.465 -2.612 L 463.063 -3.062 L 461.647 -3.467 L 460.218 -3.824 L 458.779 -4.135 L 457.330 -4.399 L 455.874 -4.615 L 454.411 -4.783 L 452.943 -4.904 L 451.472 -4.976 L 450.000 -5.000 L 448.528 -4.976 L 447.057 -4.904 L 445.589 -4.783 L 444.126 -4.615 L 442.670 -4.399 L 441.221 -4.135 L 439.782 -3.824 L 438.353 -3.467 L 436.937 -3.062 L 435.535 -2.612 L 434.149 -2.116 L 432.779 -1.575 L 431.428 -0.989 L 430.097 -0.359 L 428.787 0.314 L 427.500 1.029 L 426.237 1.786 L 424.999 2.584 L 423.789 3.422 L 422.606 4.299 L 421.452 5.215 L 420.329 6.167 L 419.238 7.156 L 418.180 8.180 L 417.156 9.238 L 416.167 10.329 L 415.215 11.452 L 414.299 12.606 L 413.422 13.789 L 412.584 14.999 L 411.786 16.237 L 411.029 17.500 L 410.314 18.787 L 409.641 20.097 L 409.011 21.428 L 408.425 22.779 L 407.884 24.149 L 407.388 25.535 L 406.938 26.937 L 406.533 28.353 L 406.176 29.782 L 405.865 31.221 L 405.601 32.670 L 405.385 34.126 L 405.217 35.589 L 405.096 37.057 L 405.024 38.528 L 405.000 40.000 L 405.000 612.591 L 404.438 612.965 L 403.240 613.821 L 402.071 614.716 L 400.931 615.649 L 399.823 616.618 L 398.747 617.624 L 397.704 618.663 L 396.696 619.737 L 395.724 620.843 L 394.788 621.980 L 393.890 623.147 L 393.031 624.343 L 392.211 625.566 L 391.432 626.816 L 390.694 628.090 L 389.998 629.388 L 389.345 630.708 L 388.736 632.048 L 388.171 633.408 L 387.650 634.785 L 387.175 636.179 L 386.746 637.588 L 386.363 639.010 L 386.026 640.443 L 385.737 641.887 L 385.496 643.340 L 385.302 644.800 L 385.155 646.265 L 385.057 647.734 L 385.007 649.206 L 384.928 653.705 L 384.731 657.406 L 384.405 661.098 L 383.948 664.775 L 383.362 668.435 L 382.647 672.071 L 381.804 675.680 L 380.834 679.257 L 379.739 682.797 L 378.520 686.296 L 377.177 689.751 L 375.714 693.155 L 374.131 696.506 L 372.431 699.800 L 370.616 703.031 L 368.688 706.195 L 366.650 709.290 L 364.503 712.311 L 362.252 715.255 L 359.897 718.117 L 357.444 720.894 L 354.894 723.583 L 352.250 726.180 L 349.516 728.683 L 346.696 731.087 L 343.793 733.390 L 340.810 735.590 L 337.752 737.683 L 334.621 739.666 L 331.423 741.538 L 328.160 743.296 L 324.838 744.937 L 321.460 746.461 L 318.029 747.864 L 314.552 749.145 L 311.032 750.302 L 307.472 751.335 L 303.879 752.241 L 300.256 753.021 L 296.608 753.671 L 292.938 754.193 L 289.253 754.584 L 285.557 754.846 L 281.853 754.977 L 278.147 754.977 L 274.443 754.846 L 270.747 754.584 L 267.062 754.193 L 263.392 753.671 L 259.744 753.021 L 256.121 752.241 L 252.528 751.335 L 248.968 750.302 L 245.448 749.145 L 241.971 747.864 L 238.540 746.461 L 235.162 744.937 L 231.840 743.296 L 228.577 741.538 L 225.379 739.666 L 222.248 737.683 L 219.190 735.590 L 216.207 733.390 L 213.304 731.087 L 210.484 728.683 L 207.750 726.180 L 205.106 723.583 L 202.556 720.894 L 200.103 718.117 L 197.748 715.255 L 195.497 712.311 L 193.350 709.290 L 191.312 706.195 L 189.384 703.031 L 187.569 699.800 L 185.869 696.506 L 184.286 693.155 L 182.823 689.751 L 181.480 686.296 L 180.261 682.797 L 179.166 679.257 L 178.196 675.680 L 177.353 672.071 L 176.638 668.435 L 176.052 664.775 L 175.595 661.098 L 175.269 657.406 L 175.072 653.705 L 174.993 649.206 L 174.943 647.734 L 174.845 646.265 L 174.698 644.800 L 174.504 643.340 L 174.263 641.887 L 173.974 640.443 L 173.637 639.010 L 173.254 637.588 L 172.825 636.179 L 172.350 634.785 L 171.829 633.408 L 171.264 632.048 L 170.655 630.708 L 170.002 629.388 L 169.306 628.090 L 168.568 626.816 L 167.789 625.566 L 166.969 624.343 L 166.110 623.147 L 165.212 621.980 L 164.276 620.843 L 163.304 619.737 L 162.296 618.663 L 161.253 617.624 L 160.177 616.618 L 159.069 615.649 L 157.929 614.716 L 156.760 613.821 L 155.562 612.965 L 154.336 612.148 L 153.085 611.372 L 151.809 610.638 L 150.509 609.945 L 149.188 609.296 L 147.846 608.690 L 146.484 608.128 L 145.106 607.611 L 143.710 607.139 L 142.301 606.714 L 140.878 606.335 L 139.443 606.002 L 137.999 605.717 L 136.546 605.479 L 135.085 605.288 L 133.620 605.146 L 132.150 605.051 L 130.678 605.005 L 129.206 605.007 L 127.734 605.057 L 126.265 605.155 L 124.800 605.302 L 123.340 605.496 L 121.887 605.737 L 120.443 606.026 L 119.010 606.363 L 117.588 606.746 L 116.179 607.175 L 114.785 607.650 L 113.408 608.171 L 112.048 608.736 L 110.708 609.345 L 109.388 609.998 L 108.090 610.694 L 106.816 611.432 L 105.566 612.211 L 104.343 613.031 L 103.147 613.890 L 101.980 614.788 L 100.843 615.724 L 99.737 616.696 L 98.663 617.704 L 97.624 618.747 L 96.618 619.823 L 95.649 620.931 L 94.716 622.071 L 93.821 623.240 L 92.965 624.438 L 92.148 625.664 L 91.372 626.915 L 90.638 628.191 L 89.945 629.491 L 89.296 630.812 L 88.690 632.154 L 88.128 633.516 L 87.611 634.894 L 87.139 636.290 L 86.714 637.699 L 86.335 639.122 L 86.002 640.557 L 85.717 642.001 L 85.479 643.454 L 85.288 644.915 L 85.146 646.380 L 85.051 647.850 L 85.005 649.322 L 85.007 650.794 L 85.100 656.088 L 85.157 657.675 L 85.437 662.962 L 85.549 664.547 L 86.015 669.821 L 86.183 671.400 L 86.836 676.654 L 87.059 678.227 L 87.897 683.455 L 88.176 685.019 L 89.197 690.214 L 89.531 691.766 L 90.735 696.922 L 91.124 698.462 L 92.509 703.572 L 92.952 705.098 L 94.516 710.156 L 95.013 711.665 L 96.755 716.664 L 97.304 718.155 L 99.222 723.090 L 99.823 724.560 L 101.914 729.424 L 102.567 730.872 L 104.828 735.660 L 105.531 737.084 L 107.960 741.788 L 108.713 743.187 L 111.306 747.803 L 112.109 749.174 L 114.863 753.695 L 115.713 755.037 L 118.626 759.459 L 119.523 760.770 L 122.589 765.086 L 123.532 766.364 L 126.749 770.569 L 127.736 771.814 L 131.099 775.903 L 132.130 777.111 L 135.635 781.079 L 136.708 782.251 L 140.351 786.092 L 141.464 787.225 L 145.241 790.936 L 146.394 792.029 L 150.299 795.604 L 151.489 796.656 L 155.518 800.091 L 156.745 801.100 L 160.893 804.390 L 162.154 805.355 L 166.416 808.498 L 167.710 809.417 L 172.080 812.407 L 173.406 813.281 L 177.879 816.115 L 179.235 816.941 L 183.805 819.615 L 185.190 820.393 L 189.851 822.905 L 191.262 823.633 L 196.009 825.978 L 197.445 826.657 L 202.272 828.833 L 203.731 829.460 L 208.631 831.465 L 210.112 832.040 L 215.080 833.870 L 216.580 834.393 L 221.610 836.047 L 223.127 836.516 L 228.212 837.992 L 229.745 838.407 L 234.879 839.702 L 236.425 840.064 L 241.602 841.176 L 243.160 841.483 L 248.372 842.413 L 249.941 842.664 L 255.183 843.409 L 256.759 843.605 L 262.024 844.164 L 263.606 844.304 L 268.887 844.678 L 270.473 844.762 L 275.765 844.949 L 277.353 844.977 L 282.647 844.977 L 284.235 844.949 L 289.527 844.762 L 291.113 844.678 L 296.394 844.304 L 297.976 844.164 L 303.241 843.605 L 304.817 843.409 L 310.059 842.664 L 311.628 842.413 L 316.840 841.483 L 318.398 841.176 L 323.575 840.064 L 325.121 839.702 L 330.255 838.407 L 331.788 837.992 L 336.873 836.516 L 338.390 836.047 L 343.420 834.393 L 344.920 833.870 L 349.888 832.040 L 351.369 831.465 L 356.269 829.460 L 357.728 828.833 L 362.555 826.657 L 363.991 825.978 L 368.738 823.633 L 370.149 822.905 L 374.810 820.393 L 376.195 819.615 L 380.765 816.941 L 382.121 816.115 L 386.594 813.281 L 387.920 812.407 L 392.290 809.417 L 393.584 808.498 L 397.846 805.355 L 399.107 804.390 L 403.255 801.100 L 404.482 800.091 L 408.511 796.656 L 409.701 795.604 L 413.606 792.029 L 414.759 790.936 L 418.536 787.225 L 419.649 786.092 L 423.292 782.251 L 424.365 781.079 L 427.870 777.111 L 428.901 775.903 L 432.264 771.814 L 433.251 770.569 L 436.468 766.364 L 437.411 765.086 L 440.477 760.770 L 441.374 759.459 L 444.287 755.037 L 445.137 753.695 L 447.891 749.174 L 448.694 747.803 L 451.287 743.187 L 452.040 741.788 L 454.469 737.084 L 455.172 735.660 L 457.433 730.872 L 458.086 729.424 L 460.177 724.560 L 460.778 723.090 L 462.696 718.155 L 463.245 716.664 L 464.987 711.665 L 465.484 710.156 L 467.048 705.098 L 467.491 703.572 L 468.876 698.462 L 469.265 696.922 L 470.469 691.766 L 470.803 690.214 L 470.872 689.861 L 471.213 689.686 Z" fill="black" fill-rule="evenodd"/>
</svg>
