<svg xmlns="http://www.w3.org/2000/svg" viewBox="0 0 700.000 1000">
  <path d="M 495.000 630.000 L 495.000 40.000 L 494.986 38.896 L 494.946 37.792 L 494.878 36.690 L 494.783 35.589 L 494.662 34.492 L 494.513 33.397 L 494.337 32.307 L 494.135 31.221 L 493.907 30.140 L 493.651 29.066 L 493.370 27.998 L 493.062 26.937 L 492.729 25.884 L 492.369 24.840 L 491.985 23.805 L 491.575 22.779 L 491.139 21.764 L 490.680 20.760 L 490.195 19.767 L 489.686 18.787 L 489.154 17.820 L 488.598 16.865 L 488.018 15.925 L 487.416 14.999 L 486.791 14.089 L 486.144 13.194 L 485.476 12.315 L 484.785 11.452 L 484.074 10.607 L 483.343 9.780 L 482.591 8.971 L 481.820 8.180 L 481.029 7.409 L 480.220 6.657 L 479.393 5.926 L 478.548 5.215 L 477.685 4.524 L 476.806 3.856 L 475.911 3.209 L 475.001 2.584 L 474.075 1.982 L 473.135 1.402 L 472.180 0.846 L 471.213 0.314 L 470.233 -0.195 L 469.240 -0.680 L 468.236 -1.139 L 467.221 -1.575 L 466.195 -1.985 L 465.160 -2.369 L 464.116 -2.729 L 463.063 -3.062 L 462.002 -3.370 L 460.934 -3.651 L 459.860 -3.907 L 458.779 -4.135 L 457.693 -4.337 L 456.603 -4.513 L 455.508 -4.662 L 454.411 -4.783 L 453.310 -4.878 L 452.208 -4.946 L 451.104 -4.986 L 450.000 -5.000 L 448.896 -4.986 L 447.792 -4.946 L 446.690 -4.878 L 445.589 -4.783 L 444.492 -4.662 L 443.397 -4.513 L 442.307 -4.337 L 441.221 -4.135 L 440.140 -3.907 L 439.066 -3.651 L 437.998 -3.370 L 436.937 -3.062 L 435.884 -2.729 L 434.840 -2.369 L 433.805 -1.985 L 432.779 -1.575 L 431.764 -1.139 L 430.760 -0.680 L 429.767 -0.195 L 428.787 0.314 L 427.820 0.846 L 426.865 1.402 L 425.925 1.982 L 424.999 2.584 L 424.089 3.209 L 423.194 3.856 L 422.315 4.524 L 421.452 5.215 L 420.607 5.926 L 419.780 6.657 L 418.971 7.409 L 418.180 8.180 L 417.409 8.971 L 416.657 9.780 L 415.926 10.607 L 415.215 11.452 L 414.524 12.315 L 413.856 13.194 L 413.209 14.089 L 412.584 14.999 L 411.982 15.925 L 411.402 16.865 L 410.846 17.820 L 410.314 18.787 L 409.805 19.767 L 409.320 20.760 L 408.861 21.764 L 408.425 22.779 L 408.015 23.805 L 407.631 24.840 L 407.271 25.884 L 406.938 26.937 L 406.630 27.998 L 406.349 29.066 L 406.093 30.140 L 405.865 31.221 L 405.663 32.307 L 405.487 33.397 L 405.338 34.492 L 405.217 35.589 L 405.122 36.690 L 405.054 37.792 L 405.014 38.896 L 405.000 40.000 L 405.000 629.763 L 404.974 632.214 L 404.904 634.426 L 404.788 636.637 L 404.624 638.845 L 404.415 641.049 L 404.158 643.248 L 403.856 645.441 L 403.507 647.627 L 403.113 649.805 L 402.672 651.975 L 402.186 654.134 L 401.655 656.283 L 401.078 658.421 L 400.456 660.545 L 399.790 662.656 L 399.079 664.753 L 398.325 666.834 L 397.526 668.899 L 396.684 670.947 L 395.800 672.976 L 394.872 674.986 L 393.903 676.976 L 392.891 678.945 L 391.839 680.893 L 390.745 682.818 L 389.612 684.719 L 388.438 686.597 L 387.225 688.448 L 385.974 690.274 L 384.684 692.074 L 383.356 693.845 L 381.992 695.588 L 380.591 697.302 L 379.154 698.987 L 377.682 700.640 L 376.175 702.262 L 374.635 703.852 L 373.061 705.409 L 371.455 706.933 L 369.817 708.422 L 368.148 709.877 L 366.449 711.296 L 364.720 712.679 L 362.963 714.025 L 361.177 715.333 L 359.365 716.604 L 357.526 717.837 L 355.661 719.030 L 353.772 720.184 L 351.858 721.297 L 349.922 722.370 L 347.964 723.402 L 345.984 724.393 L 343.983 725.341 L 341.964 726.247 L 339.925 727.111 L 337.869 727.931 L 335.796 728.707 L 333.707 729.440 L 331.603 730.129 L 329.485 730.773 L 327.354 731.372 L 325.210 731.926 L 323.056 732.435 L 320.891 732.898 L 318.717 733.316 L 316.535 733.687 L 314.345 734.013 L 312.149 734.292 L 309.947 734.525 L 307.741 734.712 L 305.532 734.852 L 303.320 734.945 L 301.107 734.992 L 298.893 734.992 L 296.680 734.945 L 294.468 734.852 L 292.259 734.712 L 290.053 734.525 L 287.851 734.292 L 285.655 734.013 L 283.465 733.687 L 281.283 733.316 L 279.109 732.898 L 276.944 732.435 L 274.790 731.926 L 272.646 731.372 L 270.515 730.773 L 268.397 730.129 L 266.293 729.440 L 264.204 728.707 L 262.131 727.931 L 260.075 727.111 L 258.036 726.247 L 256.017 725.341 L 254.016 724.393 L 252.036 723.402 L 250.078 722.370 L 248.142 721.297 L 246.228 720.184 L 244.339 719.030 L 242.474 717.837 L 240.635 716.604 L 238.823 715.333 L 237.037 714.025 L 235.280 712.679 L 233.551 711.296 L 231.852 709.877 L 230.183 708.422 L 228.545 706.933 L 226.939 705.409 L 225.365 703.852 L 223.825 702.262 L 222.318 700.640 L 220.846 698.987 L 219.409 697.302 L 218.008 695.588 L 216.644 693.845 L 215.316 692.074 L 214.026 690.274 L 212.775 688.448 L 211.562 686.597 L 210.388 684.719 L 209.255 682.818 L 208.161 680.893 L 207.109 678.945 L 206.097 676.976 L 205.128 674.986 L 204.200 672.976 L 203.316 670.947 L 202.474 668.899 L 201.675 666.834 L 200.921 664.753 L 200.210 662.656 L 199.544 660.545 L 198.922 658.421 L 198.345 656.283 L 197.814 654.134 L 197.328 651.975 L 196.887 649.805 L 196.493 647.627 L 196.144 645.441 L 195.842 643.248 L 195.585 641.049 L 195.376 638.845 L 195.212 636.637 L 195.096 634.426 L 195.026 632.214 L 194.997 629.526 L 194.972 628.421 L 194.920 627.318 L 194.841 626.217 L 194.734 625.117 L 194.601 624.021 L 194.441 622.928 L 194.254 621.840 L 194.040 620.756 L 193.800 619.678 L 193.534 618.606 L 193.241 617.541 L 192.922 616.484 L 192.578 615.435 L 192.207 614.394 L 191.812 613.363 L 191.391 612.342 L 190.945 611.331 L 190.474 610.332 L 189.980 609.345 L 189.461 608.370 L 188.918 607.408 L 188.352 606.460 L 187.762 605.526 L 187.150 604.606 L 186.516 603.702 L 185.860 602.814 L 185.182 601.942 L 184.483 601.087 L 183.763 600.250 L 183.022 599.430 L 182.262 598.629 L 181.483 597.847 L 180.684 597.084 L 179.867 596.340 L 179.032 595.618 L 178.179 594.916 L 177.310 594.235 L 176.424 593.575 L 175.522 592.938 L 174.605 592.322 L 173.673 591.730 L 172.726 591.160 L 171.766 590.614 L 170.793 590.092 L 169.808 589.594 L 168.810 589.120 L 167.801 588.671 L 166.782 588.246 L 165.752 587.847 L 164.713 587.473 L 163.664 587.125 L 162.608 586.802 L 161.544 586.506 L 160.473 586.236 L 159.396 585.992 L 158.313 585.775 L 157.225 585.584 L 156.133 585.420 L 155.037 585.283 L 153.938 585.173 L 152.837 585.090 L 151.734 585.033 L 150.630 585.004 L 149.526 585.003 L 148.421 585.028 L 147.318 585.080 L 146.217 585.159 L 145.117 585.266 L 144.021 585.399 L 142.928 585.559 L 141.840 585.746 L 140.756 585.960 L 139.678 586.200 L 138.606 586.466 L 137.541 586.759 L 136.484 587.078 L 135.435 587.422 L 134.394 587.793 L 133.363 588.188 L 132.342 588.609 L 131.331 589.055 L 130.332 589.526 L 129.345 590.020 L 128.370 590.539 L 127.408 591.082 L 126.460 591.648 L 125.526 592.238 L 124.606 592.850 L 123.702 593.484 L 122.814 594.140 L 121.942 594.818 L 121.087 595.517 L 120.250 596.237 L 119.430 596.978 L 118.629 597.738 L 117.847 598.517 L 117.084 599.316 L 116.340 600.133 L 115.618 600.968 L 114.916 601.821 L 114.235 602.690 L 113.575 603.576 L 112.938 604.478 L 112.322 605.395 L 111.730 606.327 L 111.160 607.274 L 110.614 608.234 L 110.092 609.207 L 109.594 610.192 L 109.120 611.190 L 108.671 612.199 L 108.246 613.218 L 107.847 614.248 L 107.473 615.287 L 107.125 616.336 L 106.802 617.392 L 106.506 618.456 L 106.236 619.527 L 105.992 620.604 L 105.775 621.687 L 105.584 622.775 L 105.420 623.867 L 105.283 624.963 L 105.173 626.062 L 105.090 627.163 L 105.033 628.266 L 105.004 629.370 L 105.003 630.474 L 105.036 633.637 L 105.056 634.585 L 105.156 637.746 L 105.196 638.694 L 105.362 641.853 L 105.422 642.800 L 105.656 645.954 L 105.736 646.899 L 106.035 650.047 L 106.135 650.991 L 106.501 654.132 L 106.621 655.073 L 107.053 658.206 L 107.192 659.145 L 107.690 662.268 L 107.850 663.203 L 108.413 666.315 L 108.592 667.247 L 109.222 670.346 L 109.420 671.274 L 110.115 674.360 L 110.333 675.283 L 111.092 678.353 L 111.330 679.272 L 112.153 682.325 L 112.410 683.238 L 113.298 686.274 L 113.574 687.182 L 114.526 690.198 L 114.821 691.099 L 115.837 694.095 L 116.151 694.990 L 117.229 697.963 L 117.562 698.851 L 118.702 701.801 L 119.054 702.682 L 120.256 705.608 L 120.626 706.481 L 121.890 709.380 L 122.279 710.246 L 123.604 713.118 L 124.010 713.975 L 125.395 716.818 L 125.820 717.667 L 127.264 720.480 L 127.707 721.319 L 129.210 724.102 L 129.670 724.932 L 131.232 727.682 L 131.710 728.502 L 133.329 731.218 L 133.824 732.028 L 135.500 734.709 L 136.012 735.509 L 137.744 738.154 L 138.272 738.942 L 140.061 741.551 L 140.605 742.328 L 142.448 744.898 L 143.009 745.663 L 144.905 748.194 L 145.482 748.948 L 147.432 751.438 L 148.024 752.179 L 150.026 754.628 L 150.634 755.356 L 152.687 757.762 L 153.310 758.477 L 155.413 760.839 L 156.051 761.541 L 158.204 763.858 L 158.857 764.547 L 161.057 766.818 L 161.725 767.493 L 163.973 769.717 L 164.654 770.377 L 166.949 772.554 L 167.644 773.200 L 169.984 775.327 L 170.692 775.958 L 173.077 778.036 L 173.798 778.652 L 176.226 780.679 L 176.960 781.280 L 179.430 783.255 L 180.177 783.840 L 182.688 785.763 L 183.447 786.332 L 185.998 788.202 L 186.769 788.755 L 189.359 790.570 L 190.141 791.106 L 192.769 792.867 L 193.562 793.387 L 196.226 795.092 L 197.031 795.595 L 199.730 797.243 L 200.545 797.729 L 203.278 799.320 L 204.103 799.788 L 206.869 801.321 L 207.704 801.772 L 210.502 803.246 L 211.346 803.680 L 214.174 805.095 L 215.027 805.510 L 217.885 806.865 L 218.746 807.263 L 221.632 808.557 L 222.502 808.937 L 225.414 810.170 L 226.292 810.531 L 229.229 811.702 L 230.114 812.044 L 233.076 813.154 L 233.968 813.477 L 236.952 814.524 L 237.851 814.829 L 240.856 815.812 L 241.761 816.098 L 244.787 817.018 L 245.697 817.285 L 248.742 818.141 L 249.658 818.388 L 252.720 819.179 L 253.641 819.407 L 256.719 820.134 L 257.645 820.343 L 260.737 821.004 L 261.667 821.193 L 264.773 821.790 L 265.706 821.959 L 268.824 822.490 L 269.761 822.639 L 272.889 823.104 L 273.829 823.234 L 276.967 823.633 L 277.909 823.743 L 281.054 824.076 L 281.999 824.165 L 285.150 824.432 L 286.096 824.502 L 289.252 824.702 L 290.200 824.752 L 293.360 824.885 L 294.308 824.915 L 297.470 824.982 L 298.419 824.992 L 301.581 824.992 L 302.530 824.982 L 305.692 824.915 L 306.640 824.885 L 309.800 824.752 L 310.748 824.702 L 313.904 824.502 L 314.850 824.432 L 318.001 824.165 L 318.946 824.076 L 322.091 823.743 L 323.033 823.633 L 326.171 823.234 L 327.111 823.104 L 330.239 822.639 L 331.176 822.490 L 334.294 821.959 L 335.227 821.790 L 338.333 821.193 L 339.263 821.004 L 342.355 820.343 L 343.281 820.134 L 346.359 819.407 L 347.280 819.179 L 350.342 818.388 L 351.258 818.141 L 354.303 817.285 L 355.213 817.018 L 358.239 816.098 L 359.144 815.812 L 362.149 814.829 L 363.048 814.524 L 366.032 813.477 L 366.924 813.154 L 369.886 812.044 L 370.771 811.702 L 373.708 810.531 L 374.586 810.170 L 377.498 808.937 L 378.368 808.557 L 381.254 807.263 L 382.115 806.865 L 384.973 805.510 L 385.826 805.095 L 388.654 803.680 L 389.498 803.246 L 392.296 801.772 L 393.131 801.321 L 395.897 799.788 L 396.722 799.320 L 399.455 797.729 L 400.270 797.243 L 402.969 795.595 L 403.774 795.092 L 406.438 793.387 L 407.231 792.867 L 409.859 791.106 L 410.641 790.570 L 413.231 788.755 L 414.002 788.202 L 416.553 786.332 L 417.312 785.763 L 419.823 783.840 L 420.570 783.255 L 423.040 781.280 L 423.774 780.679 L 426.202 778.652 L 426.923 778.036 L 429.308 775.958 L 430.016 775.327 L 432.356 773.200 L 433.051 772.554 L 435.346 770.377 L 436.027 769.717 L 438.275 767.493 L 438.943 766.818 L 441.143 764.547 L 441.796 763.858 L 443.949 761.541 L 444.587 760.839 L 446.690 758.477 L 447.313 757.762 L 449.366 755.356 L 449.974 754.628 L 451.976 752.179 L 452.568 751.438 L 454.518 748.948 L 455.095 748.194 L 456.991 745.663 L 457.552 744.898 L 459.395 742.328 L 459.939 741.551 L 461.728 738.942 L 462.256 738.154 L 463.988 735.509 L 464.500 734.709 L 466.176 732.028 L 466.671 731.218 L 468.290 728.502 L 468.768 727.682 L 470.330 724.932 L 470.790 724.102 L 472.293 721.319 L 472.736 720.480 L 474.180 717.667 L 474.605 716.818 L 475.990 713.975 L 476.396 713.118 L 477.721 710.246 L 478.110 709.380 L 479.374 706.481 L 479.744 705.608 L 480.946 702.682 L 481.298 701.801 L 482.438 698.851 L 482.771 697.963 L 483.849 694.990 L 484.163 694.095 L 485.179 691.099 L 485.474 690.198 L 486.426 687.182 L 486.702 686.274 L 487.590 683.238 L 487.847 682.325 L 488.670 679.272 L 488.908 678.353 L 489.667 675.283 L 489.885 674.360 L 490.580 671.274 L 490.778 670.346 L 491.408 667.247 L 491.587 666.315 L 492.150 663.203 L 492.310 662.268 L 492.808 659.145 L 492.947 658.206 L 493.379 655.073 L 493.499 654.132 L 493.865 650.991 L 493.965 650.047 L 494.264 646.899 L 494.344 645.954 L 494.578 642.800 L 494.638 641.853 L 494.804 638.694 L 494.844 637.746 L 494.944 634.585 L 494.964 633.637 L 494.997 630.474 L 494.997 630.237 L 495.000 630.000 Z" fill="black" fill-rule="evenodd"/>
</svg>
