<svg xmlns="http://www.w3.org/2000/svg" viewBox="0 0 700.000 1000">
  <path d="M 85.014 781.104 L 85.054 782.208 L 85.122 783.310 L 85.217 784.411 L 85.338 785.508 L 85.487 786.603 L 85.663 787.693 L 85.865 788.779 L 86.093 789.860 L 86.349 790.934 L 86.630 792.002 L 86.938 793.063 L 87.271 794.116 L 87.631 795.160 L 88.015 796.195 L 88.425 797.221 L 88.861 798.236 L 89.320 799.240 L 89.805 800.233 L 90.314 801.213 L 90.846 802.180 L 91.402 803.135 L 91.982 804.075 L 92.584 805.001 L 93.209 805.911 L 93.856 806.806 L 94.524 807.685 L 95.215 808.548 L 95.926 809.393 L 96.657 810.220 L 97.409 811.029 L 98.180 811.820 L 98.971 812.591 L 99.780 813.343 L 100.607 814.074 L 101.452 814.785 L 102.315 815.476 L 103.194 816.144 L 104.089 816.791 L 104.999 817.416 L 105.925 818.018 L 106.865 818.598 L 107.820 819.154 L 108.787 819.686 L 109.767 820.195 L 110.760 820.680 L 111.764 821.139 L 112.779 821.575 L 113.805 821.985 L 114.840 822.369 L 115.884 822.729 L 116.937 823.062 L 117.998 823.370 L 119.066 823.651 L 120.140 823.907 L 121.221 824.135 L 122.307 824.337 L 123.397 824.513 L 124.492 824.662 L 125.589 824.783 L 126.690 824.878 L 127.792 824.946 L 128.896 824.986 L 130.000 825.000 L 131.104 824.986 L 132.208 824.946 L 133.310 824.878 L 134.411 824.783 L 135.508 824.662 L 136.603 824.513 L 137.693 824.337 L 138.779 824.135 L 139.860 823.907 L 140.934 823.651 L 142.002 823.370 L 143.063 823.062 L 144.116 822.729 L 145.160 822.369 L 146.195 821.985 L 147.221 821.575 L 148.236 821.139 L 149.240 820.680 L 150.233 820.195 L 151.213 819.686 L 152.180 819.154 L 153.135 818.598 L 154.075 818.018 L 155.001 817.416 L 155.911 816.791 L 156.806 816.144 L 157.685 815.476 L 158.548 814.785 L 159.393 814.074 L 160.220 813.343 L 161.029 812.591 L 161.820 811.820 L 162.591 811.029 L 163.343 810.220 L 164.074 809.393 L 164.785 808.548 L 165.476 807.685 L 166.144 806.806 L 166.791 805.911 L 167.416 805.001 L 168.018 804.075 L 168.598 803.135 L 169.154 802.180 L 169.686 801.213 L 170.195 800.233 L 170.680 799.240 L 171.139 798.236 L 171.575 797.221 L 171.985 796.195 L 172.369 795.160 L 172.729 794.116 L 173.062 793.063 L 173.370 792.002 L 173.651 790.934 L 173.907 789.860 L 174.135 788.779 L 174.337 787.693 L 174.513 786.603 L 174.662 785.508 L 174.783 784.411 L 174.878 783.310 L 174.946 782.208 L 174.986 781.104 L 175.000 780.000 L 175.000 455.000 L 525.000 455.000 L 525.000 780.000 L 525.014 781.104 L 525.054 782.208 L 525.122 783.310 L 525.217 784.411 L 525.338 785.508 L 525.487 786.603 L 525.663 787.693 L 525.865 788.779 L 526.093 789.860 L 526.349 790.934 L 526.630 792.002 L 526.938 793.063 L 527.271 794.116 L 527.631 795.160 L 528.015 796.195 L 528.425 797.221 L 528.861 798.236 L 529.320 799.240 L 529.805 800.233 L 530.314 801.213 L 530.846 802.180 L 531.402 803.135 L 531.982 804.075 L 532.584 805.001 L 533.209 805.911 L 533.856 806.806 L 534.524 807.685 L 535.215 808.548 L 535.926 809.393 L 536.657 810.220 L 537.409 811.029 L 538.180 811.820 L 538.971 812.591 L 539.780 813.343 L 540.607 814.074 L 541.452 814.785 L 542.315 815.476 L 543.194 816.144 L 544.089 816.791 L 544.999 817.416 L 545.925 818.018 L 546.865 818.598 L 547.820 819.154 L 548.787 819.686 L 549.767 820.195 L 550.760 820.680 L 551.764 821.139 L 552.779 821.575 L 553.805 821.985 L 554.840 822.369 L 555.884 822.729 L 556.937 823.062 L 557.998 823.370 L 559.066 823.651 L 560.140 823.907 L 561.221 824.135 L 562.307 824.337 L 563.397 824.513 L 564.492 824.662 L 565.589 824.783 L 566.690 824.878 L 567.792 824.946 L 568.896 824.986 L 570.000 825.000 L 571.104 824.986 L 572.208 824.946 L 573.310 824.878 L 574.411 824.783 L 575.508 824.662 L 576.603 824.513 L 577.693 824.337 L 578.779 824.135 L 579.860 823.907 L 580.934 823.651 L 582.002 823.370 L 583.063 823.062 L 584.116 822.729 L 585.160 822.369 L 586.195 821.985 L 587.221 821.575 L 588.236 821.139 L 589.240 820.680 L 590.233 820.195 L 591.213 819.686 L 592.180 819.154 L 593.135 818.598 L 594.075 818.018 L 595.001 817.416 L 595.911 816.791 L 596.806 816.144 L 597.685 815.476 L 598.548 814.785 L 599.393 814.074 L 600.220 813.343 L 601.029 812.591 L 601.820 811.820 L 602.591 811.029 L 603.343 810.220 L 604.074 809.393 L 604.785 808.548 L 605.476 807.685 L 606.144 806.806 L 606.791 805.911 L 607.416 805.001 L 608.018 804.075 L 608.598 803.135 L 609.154 802.180 L 609.686 801.213 L 610.195 800.233 L 610.680 799.240 L 611.139 798.236 L 611.575 797.221 L 611.985 796.195 L 612.369 795.160 L 612.729 794.116 L 613.062 793.063 L 613.370 792.002 L 613.651 790.934 L 613.907 789.860 L 614.135 788.779 L 614.337 787.693 L 614.513 786.603 L 614.662 785.508 L 614.783 784.411 L 614.878 783.310 L 614.946 782.208 L 614.986 781.104 L 615.000 780.000 L 615.000 410.000 L 615.000 40.000 L 614.986 38.896 L 614.946 37.792 L 614.878 36.690 L 614.783 35.589 L 614.662 34.492 L 614.513 33.397 L 614.337 32.307 L 614.135 31.221 L 613.907 30.140 L 613.651 29.066 L 613.370 27.998 L 613.062 26.937 L 612.729 25.884 L 612.369 24.840 L 611.985 23.805 L 611.575 22.779 L 611.139 21.764 L 610.680 20.760 L 610.195 19.767 L 609.686 18.787 L 609.154 17.820 L 608.598 16.865 L 608.018 15.925 L 607.416 14.999 L 606.791 14.089 L 606.144 13.194 L 605.476 12.315 L 604.785 11.452 L 604.074 10.607 L 603.343 9.780 L 602.591 8.971 L 601.820 8.180 L 601.029 7.409 L 600.220 6.657 L 599.393 5.926 L 598.548 5.215 L 597.685 4.524 L 596.806 3.856 L 595.911 3.209 L 595.001 2.584 L 594.075 1.982 L 593.135 1.402 L 592.180 0.846 L 591.213 0.314 L 590.233 -0.195 L 589.240 -0.680 L 588.236 -1.139 L 587.221 -1.575 L 586.195 -1.985 L 585.160 -2.369 L 584.116 -2.729 L 583.063 -3.062 L 582.002 -3.370 L 580.934 -3.651 L 579.860 -3.907 L 578.779 -4.135 L 577.693 -4.337 L 576.603 -4.513 L 575.508 -4.662 L 574.411 -4.783 L 573.310 -4.878 L 572.208 -4.946 L 571.104 -4.986 L 570.000 -5.000 L 568.896 -4.986 L 567.792 -4.946 L 566.690 -4.878 L 565.589 -4.783 L 564.492 -4.662 L 563.397 -4.513 L 562.307 -4.337 L 561.221 -4.135 L 560.140 -3.907 L 559.066 -3.651 L 557.998 -3.370 L 556.937 -3.062 L 555.884 -2.729 L 554.840 -2.369 L 553.805 -1.985 L 552.779 -1.575 L 551.764 -1.139 L 550.760 -0.680 L 549.767 -0.195 L 548.787 0.314 L 547.820 0.846 L 546.865 1.402 L 545.925 1.982 L 544.999 2.584 L 544.089 3.209 L 543.194 3.856 L 542.315 4.524 L 541.452 5.215 L 540.607 5.926 L 539.780 6.657 L 538.971 7.409 L 538.180 8.180 L 537.409 8.971 L 536.657 9.780 L 535.926 10.607 L 535.215 11.452 L 534.524 12.315 L 533.856 13.194 L 533.209 14.089 L 532.584 14.999 L 531.982 15.925 L 531.402 16.865 L 530.846 17.820 L 530.314 18.787 L 529.805 19.767 L 529.320 20.760 L 528.861 21.764 L 528.425 22.779 L 528.015 23.805 L 527.631 24.840 L 527.271 25.884 L 526.938 26.937 L 526.630 27.998 L 526.349 29.066 L 526.093 30.140 L 525.865 31.221 L 525.663 32.307 L 525.487 33.397 L 525.338 34.492 L 525.217 35.589 L 525.122 36.690 L 525.054 37.792 L 525.014 38.896 L 525.000 40.000 L 525.000 365.000 L 175.000 365.000 L 175.000 40.000 L 174.986 38.896 L 174.946 37.792 L 174.878 36.690 L 174.783 35.589 L 174.662 34.492 L 174.513 33.397 L 174.337 32.307 L 174.135 31.221 L 173.907 30.140 L 173.651 29.066 L 173.370 27.998 L 173.062 26.937 L 172.729 25.884 L 172.369 24.840 L 171.985 23.805 L 171.575 22.779 L 171.139 21.764 L 170.680 20.760 L 170.195 19.767 L 169.686 18.787 L 169.154 17.820 L 168.598 16.865 L 168.018 15.925 L 167.416 14.999 L 166.791 14.089 L 166.144 13.194 L 165.476 12.315 L 164.785 11.452 L 164.074 10.607 L 163.343 9.780 L 162.591 8.971 L 161.820 8.180 L 161.029 7.409 L 160.220 6.657 L 159.393 5.926 L 158.548 5.215 L 157.685 4.524 L 156.806 3.856 L 155.911 3.209 L 155.001 2.584 L 154.075 1.982 L 153.135 1.402 L 152.180 0.846 L 151.213 0.314 L 150.233 -0.195 L 149.240 -0.680 L 148.236 -1.139 L 147.221 -1.575 L 146.195 -1.985 L 145.160 -2.369 L 144.116 -2.729 L 143.063 -3.062 L 142.002 -3.370 L 140.934 -3.651 L 139.860 -3.907 L 138.779 -4.135 L 137.693 -4.337 L 136.603 -4.513 L 135.508 -4.662 L 134.411 -4.783 L 133.310 -4.878 L 132.208 -4.946 L 131.104 -4.986 L 130.000 -5.000 L 128.896 -4.986 L 127.792 -4.946 L 126.690 -4.878 L 125.589 -4.783 L 124.492 -4.662 L 123.397 -4.513 L 122.307 -4.337 L 121.221 -4.135 L 120.140 -3.907 L 119.066 -3.651 L 117.998 -3.370 L 116.937 -3.062 L 115.884 -2.729 L 114.840 -2.369 L 113.805 -1.985 L 112.779 -1.575 L 111.764 -1.139 L 110.760 -0.680 L 109.767 -0.195 L 108.787 0.314 L 107.820 0.846 L 106.865 1.402 L 105.925 1.982 L 104.999 2.584 L 104.089 3.209 L 103.194 3.856 L 102.315 4.524 L 101.452 5.215 L 100.607 5.926 L 99.780 6.657 L 98.971 7.409 L 98.180 8.180 L 97.409 8.971 L 96.657 9.780 L 95.926 10.607 L 95.215 11.452 L 94.524 12.315 L 93.856 13.194 L 93.209 14.089 L 92.584 14.999 L 91.982 15.925 L 91.402 16.865 L 90.846 17.820 L 90.314 18.787 L 89.805 19.767 L 89.320 20.760 L 88.861 21.764 L 88.425 22.779 L 88.015 23.805 L 87.631 24.840 L 87.271 25.884 L 86.938 26.937 L 86.630 27.998 L 86.349 29.066 L 86.093 30.140 L 85.865 31.221 L 85.663 32.307 L 85.487 33.397 L 85.338 34.492 L 85.217 35.589 L 85.122 36.690 L 85.054 37.792 L 85.014 38.896 L 85.000 40.000 L 85.000 410.000 L 85.000 780.000 L 85.014 781.104 Z" fill="black" fill-rule="evenodd"/>
</svg>
