<svg xmlns="http://www.w3.org/2000/svg" viewBox="0 0 700.000 1000" width="700.000" height="1000">
  <path d="M 614.998 259.605 L 614.964 255.744 L 614.951 254.954 L 614.849 251.095 L 614.821 250.305 L 614.652 246.448 L 614.610 245.659 L 614.373 241.805 L 614.318 241.018 L 614.013 237.169 L 613.944 236.382 L 613.572 232.539 L 613.489 231.753 L 613.049 227.917 L 612.953 227.133 L 612.446 223.306 L 612.335 222.524 L 611.761 218.705 L 611.637 217.925 L 610.996 214.118 L 610.858 213.340 L 610.151 209.545 L 609.999 208.769 L 609.225 204.987 L 609.060 204.214 L 608.220 200.446 L 608.041 199.676 L 607.135 195.923 L 606.943 195.157 L 605.971 191.420 L 605.765 190.658 L 604.728 186.939 L 604.509 186.180 L 603.406 182.479 L 603.174 181.725 L 602.007 178.044 L 601.762 177.293 L 600.530 173.634 L 600.271 172.888 L 598.975 169.251 L 598.704 168.509 L 597.344 164.895 L 597.060 164.158 L 595.637 160.569 L 595.340 159.837 L 593.854 156.273 L 593.544 155.547 L 591.997 152.010 L 591.674 151.289 L 590.064 147.779 L 589.729 147.064 L 588.058 143.583 L 587.710 142.874 L 585.978 139.423 L 585.617 138.721 L 583.825 135.301 L 583.453 134.604 L 581.601 131.216 L 581.216 130.527 L 579.305 127.172 L 578.908 126.489 L 576.939 123.168 L 576.530 122.492 L 574.502 119.206 L 574.082 118.538 L 571.997 115.288 L 571.565 114.627 L 569.423 111.414 L 568.979 110.761 L 566.781 107.586 L 566.326 106.941 L 564.073 103.805 L 563.607 103.168 L 561.299 100.072 L 560.822 99.443 L 558.460 96.388 L 557.971 95.768 L 555.556 92.755 L 555.057 92.143 L 552.590 89.173 L 552.080 88.570 L 549.560 85.644 L 549.040 85.050 L 546.470 82.169 L 545.939 81.584 L 543.319 78.748 L 542.778 78.173 L 540.108 75.383 L 539.557 74.818 L 536.839 72.076 L 536.278 71.520 L 533.512 68.826 L 532.941 68.279 L 530.128 65.634 L 529.548 65.098 L 526.690 62.503 L 526.100 61.977 L 523.196 59.433 L 522.598 58.917 L 519.650 56.424 L 519.042 55.919 L 516.051 53.478 L 515.435 52.984 L 512.401 50.596 L 511.776 50.112 L 508.701 47.778 L 508.068 47.306 L 504.952 45.025 L 504.310 44.564 L 501.155 42.339 L 500.506 41.889 L 497.312 39.720 L 496.655 39.282 L 493.423 37.168 L 492.759 36.742 L 489.491 34.686 L 488.818 34.271 L 485.515 32.272 L 484.836 31.869 L 481.497 29.929 L 480.811 29.538 L 477.439 27.657 L 476.746 27.278 L 473.342 25.456 L 472.643 25.089 L 469.207 23.327 L 468.501 22.973 L 465.035 21.272 L 464.323 20.930 L 460.828 19.290 L 460.110 18.960 L 456.586 17.382 L 455.863 17.065 L 452.312 15.549 L 451.583 15.245 L 448.006 13.791 L 447.272 13.500 L 443.670 12.109 L 442.931 11.830 L 439.305 10.503 L 438.561 10.238 L 434.913 8.974 L 434.164 8.722 L 430.494 7.522 L 429.741 7.284 L 426.051 6.149 L 425.294 5.923 L 421.584 4.853 L 420.823 4.641 L 417.095 3.636 L 416.331 3.437 L 412.586 2.498 L 411.818 2.313 L 408.057 1.439 L 407.286 1.267 L 403.510 0.460 L 402.736 0.302 L 398.947 -0.439 L 398.171 -0.584 L 394.369 -1.258 L 393.590 -1.389 L 389.777 -1.996 L 388.996 -2.114 L 385.173 -2.654 L 384.390 -2.758 L 380.558 -3.231 L 379.773 -3.321 L 375.933 -3.727 L 375.147 -3.803 L 371.301 -4.141 L 370.514 -4.203 L 366.662 -4.474 L 365.874 -4.523 L 362.018 -4.726 L 361.229 -4.761 L 357.370 -4.896 L 356.581 -4.917 L 352.720 -4.985 L 351.931 -4.992 L 348.069 -4.992 L 347.280 -4.985 L 343.419 -4.917 L 342.630 -4.896 L 338.771 -4.761 L 337.982 -4.726 L 334.126 -4.523 L 333.338 -4.474 L 329.486 -4.203 L 328.699 -4.141 L 324.853 -3.803 L 324.067 -3.727 L 320.227 -3.321 L 319.442 -3.231 L 315.610 -2.758 L 314.827 -2.654 L 311.004 -2.114 L 310.223 -1.996 L 306.410 -1.389 L 305.631 -1.258 L 301.829 -0.584 L 301.053 -0.439 L 297.264 0.302 L 296.490 0.460 L 292.714 1.267 L 291.943 1.439 L 288.182 2.313 L 287.414 2.498 L 283.669 3.437 L 282.905 3.636 L 279.177 4.641 L 278.416 4.853 L 274.706 5.923 L 273.949 6.149 L 270.259 7.284 L 269.506 7.522 L 265.836 8.722 L 265.087 8.974 L 261.439 10.238 L 260.695 10.503 L 257.069 11.830 L 256.330 12.109 L 252.728 13.500 L 251.994 13.791 L 248.417 15.245 L 247.688 15.549 L 244.137 17.065 L 243.414 17.382 L 239.890 18.960 L 239.172 19.290 L 235.677 20.930 L 234.965 21.272 L 231.499 22.973 L 230.793 23.327 L 227.357 25.089 L 226.658 25.456 L 223.254 27.278 L 222.561 27.657 L 219.189 29.538 L 218.503 29.929 L 215.164 31.869 L 214.485 32.272 L 211.182 34.271 L 210.509 34.686 L 207.241 36.742 L 206.577 37.168 L 203.345 39.282 L 202.688 39.720 L 199.494 41.889 L 198.845 42.339 L 195.690 44.564 L 195.048 45.025 L 191.932 47.306 L 191.299 47.778 L 188.224 50.112 L 187.599 50.596 L 184.565 52.984 L 183.949 53.478 L 180.958 55.919 L 180.350 56.424 L 177.402 58.917 L 176.804 59.433 L 173.900 61.977 L 173.310 62.503 L 170.452 65.098 L 169.872 65.634 L 167.059 68.279 L 166.488 68.826 L 163.722 71.520 L 163.161 72.076 L 160.443 74.818 L 159.892 75.383 L 157.222 78.173 L 156.681 78.748 L 154.061 81.584 L 153.530 82.169 L 150.960 85.050 L 150.440 85.644 L 147.920 88.570 L 147.410 89.173 L 144.943 92.143 L 144.444 92.755 L 142.029 95.768 L 141.540 96.388 L 139.178 99.443 L 138.701 100.072 L 136.393 103.168 L 135.927 103.805 L 133.674 106.941 L 133.219 107.586 L 131.021 110.761 L 130.577 111.414 L 128.435 114.627 L 128.003 115.288 L 125.918 118.538 L 125.498 119.206 L 123.470 122.492 L 123.061 123.168 L 121.092 126.489 L 120.695 127.172 L 118.784 130.527 L 118.399 131.216 L 116.547 134.604 L 116.175 135.301 L 114.383 138.721 L 114.022 139.423 L 112.290 142.874 L 111.942 143.583 L 110.271 147.064 L 109.936 147.779 L 108.326 151.289 L 108.003 152.010 L 106.456 155.547 L 106.146 156.273 L 104.660 159.837 L 104.363 160.569 L 102.940 164.158 L 102.656 164.895 L 101.296 168.509 L 101.025 169.251 L 99.729 172.888 L 99.470 173.634 L 98.238 177.293 L 97.993 178.044 L 96.826 181.725 L 96.594 182.479 L 95.491 186.180 L 95.272 186.939 L 94.235 190.658 L 94.029 191.420 L 93.057 195.157 L 92.865 195.923 L 91.959 199.676 L 91.780 200.446 L 90.940 204.214 L 90.775 204.987 L 90.001 208.769 L 89.849 209.545 L 89.142 213.340 L 89.004 214.118 L 88.363 217.925 L 88.239 218.705 L 87.665 222.524 L 87.554 223.306 L 87.047 227.133 L 86.951 227.917 L 86.511 231.753 L 86.428 232.539 L 86.056 236.382 L 85.987 237.169 L 85.682 241.018 L 85.627 241.805 L 85.390 245.659 L 85.348 246.448 L 85.179 250.305 L 85.151 251.095 L 85.049 254.954 L 85.036 255.744 L 85.002 259.605 L 85.002 259.803 L 85.000 260.000 L 85.000 450.000 L 85.000 780.000 L 85.014 781.104 L 85.054 782.208 L 85.122 783.310 L 85.217 784.411 L 85.338 785.508 L 85.487 786.603 L 85.663 787.693 L 85.865 788.779 L 86.093 789.860 L 86.349 790.934 L 86.630 792.002 L 86.938 793.063 L 87.271 794.116 L 87.631 795.160 L 88.015 796.195 L 88.425 797.221 L 88.861 798.236 L 89.320 799.240 L 89.805 800.233 L 90.314 801.213 L 90.846 802.180 L 91.402 803.135 L 91.982 804.075 L 92.584 805.001 L 93.209 805.911 L 93.856 806.806 L 94.524 807.685 L 95.215 808.548 L 95.926 809.393 L 96.657 810.220 L 97.409 811.029 L 98.180 811.820 L 98.971 812.591 L 99.780 813.343 L 100.607 814.074 L 101.452 814.785 L 102.315 815.476 L 103.194 816.144 L 104.089 816.791 L 104.999 817.416 L 105.925 818.018 L 106.865 818.598 L 107.820 819.154 L 108.787 819.686 L 109.767 820.195 L 110.760 820.680 L 111.764 821.139 L 112.779 821.575 L 113.805 821.985 L 114.840 822.369 L 115.884 822.729 L 116.937 823.062 L 117.998 823.370 L 119.066 823.651 L 120.140 823.907 L 121.221 824.135 L 122.307 824.337 L 123.397 824.513 L 124.492 824.662 L 125.589 824.783 L 126.690 824.878 L 127.792 824.946 L 128.896 824.986 L 130.000 825.000 L 131.104 824.986 L 132.208 824.946 L 133.310 824.878 L 134.411 824.783 L 135.508 824.662 L 136.603 824.513 L 137.693 824.337 L 138.779 824.135 L 139.860 823.907 L 140.934 823.651 L 142.002 823.370 L 143.063 823.062 L 144.116 822.729 L 145.160 822.369 L 146.195 821.985 L 147.221 821.575 L 148.236 821.139 L 149.240 820.680 L 150.233 820.195 L 151.213 819.686 L 152.180 819.154 L 153.135 818.598 L 154.075 818.018 L 155.001 817.416 L 155.911 816.791 L 156.806 816.144 L 157.685 815.476 L 158.548 814.785 L 159.393 814.074 L 160.220 813.343 L 161.029 812.591 L 161.820 811.820 L 162.591 811.029 L 163.343 810.220 L 164.074 809.393 L 164.785 808.548 L 165.476 807.685 L 166.144 806.806 L 166.791 805.911 L 167.416 805.001 L 168.018 804.075 L 168.598 803.135 L 169.154 802.180 L 169.686 801.213 L 170.195 800.233 L 170.680 799.240 L 171.139 798.236 L 171.575 797.221 L 171.985 796.195 L 172.369 795.160 L 172.729 794.116 L 173.062 793.063 L 173.370 792.002 L 173.651 790.934 L 173.907 789.860 L 174.135 788.779 L 174.337 787.693 L 174.513 786.603 L 174.662 785.508 L 174.783 784.411 L 174.878 783.310 L 174.946 782.208 L 174.986 781.104 L 175.000 780.000 L 175.000 495.000 L 525.000 495.000 L 525.000 780.000 L 525.014 781.104 L 525.054 782.208 L 525.122 783.310 L 525.217 784.411 L 525.338 785.508 L 525.487 786.603 L 525.663 787.693 L 525.865 788.779 L 526.093 789.860 L 526.349 790.934 L 526.630 792.002 L 526.938 793.063 L 527.271 794.116 L 527.631 795.160 L 528.015 796.195 L 528.425 797.221 L 528.861 798.236 L 529.320 799.240 L 529.805 800.233 L 530.314 801.213 L 530.846 802.180 L 531.402 803.135 L 531.982 804.075 L 532.584 805.001 L 533.209 805.911 L 533.856 806.806 L 534.524 807.685 L 535.215 808.548 L 535.926 809.393 L 536.657 810.220 L 537.409 811.029 L 538.180 811.820 L 538.971 812.591 L 539.780 813.343 L 540.607 814.074 L 541.452 814.785 L 542.315 815.476 L 543.194 816.144 L 544.089 816.791 L 544.999 817.416 L 545.925 818.018 L 546.865 818.598 L 547.820 819.154 L 548.787 819.686 L 549.767 820.195 L 550.760 820.680 L 551.764 821.139 L 552.779 821.575 L 553.805 821.985 L 554.840 822.369 L 555.884 822.729 L 556.937 823.062 L 557.998 823.370 L 559.066 823.651 L 560.140 823.907 L 561.221 824.135 L 562.307 824.337 L 563.397 824.513 L 564.492 824.662 L 565.589 824.783 L 566.690 824.878 L 567.792 824.946 L 568.896 824.986 L 570.000 825.000 L 571.104 824.986 L 572.208 824.946 L 573.310 824.878 L 574.411 824.783 L 575.508 824.662 L 576.603 824.513 L 577.693 824.337 L 578.779 824.135 L 579.860 823.907 L 580.934 823.651 L 582.002 823.370 L 583.063 823.062 L 584.116 822.729 L 585.160 822.369 L 586.195 821.985 L 587.221 821.575 L 588.236 821.139 L 589.240 820.680 L 590.233 820.195 L 591.213 819.686 L 592.180 819.154 L 593.135 818.598 L 594.075 818.018 L 595.001 817.416 L 595.911 816.791 L 596.806 816.144 L 597.685 815.476 L 598.548 814.785 L 599.393 814.074 L 600.220 813.343 L 601.029 812.591 L 601.820 811.820 L 602.591 811.029 L 603.343 810.220 L 604.074 809.393 L 604.785 808.548 L 605.476 807.685 L 606.144 806.806 L 606.791 805.911 L 607.416 805.001 L 608.018 804.075 L 608.598 803.135 L 609.154 802.180 L 609.686 801.213 L 610.195 800.233 L 610.680 799.240 L 611.139 798.236 L 611.575 797.221 L 611.985 796.195 L 612.369 795.160 L 612.729 794.116 L 613.062 793.063 L 613.370 792.002 L 613.651 790.934 L 613.907 789.860 L 614.135 788.779 L 614.337 787.693 L 614.513 786.603 L 614.662 785.508 L 614.783 784.411 L 614.878 783.310 L 614.946 782.208 L 614.986 781.104 L 615.000 780.000 L 615.000 450.000 L 615.000 260.000 L 614.998 259.803 L 614.998 259.605 Z M 175.244 250.790 L 175.433 247.725 L 175.675 244.663 L 175.971 241.606 L 176.321 238.555 L 176.724 235.510 L 177.180 232.473 L 177.690 229.444 L 178.253 226.425 L 178.869 223.416 L 179.537 220.418 L 180.258 217.432 L 181.031 214.460 L 181.856 211.502 L 182.733 208.558 L 183.662 205.631 L 184.642 202.720 L 185.672 199.827 L 186.754 196.952 L 187.885 194.097 L 189.067 191.262 L 190.298 188.448 L 191.578 185.656 L 192.908 182.887 L 194.285 180.142 L 195.711 177.422 L 197.184 174.727 L 198.704 172.058 L 200.270 169.416 L 201.883 166.802 L 203.542 164.217 L 205.245 161.662 L 206.993 159.136 L 208.785 156.642 L 210.621 154.180 L 212.500 151.750 L 214.421 149.354 L 216.383 146.991 L 218.387 144.664 L 220.432 142.372 L 222.516 140.116 L 224.639 137.897 L 226.802 135.716 L 229.002 133.573 L 231.239 131.469 L 233.513 129.404 L 235.823 127.380 L 238.168 125.397 L 240.548 123.455 L 242.961 121.555 L 245.407 119.698 L 247.885 117.884 L 250.395 116.114 L 252.936 114.388 L 255.506 112.707 L 258.106 111.071 L 260.734 109.481 L 263.389 107.938 L 266.071 106.441 L 268.779 104.992 L 271.512 103.590 L 274.269 102.237 L 277.049 100.932 L 279.852 99.676 L 282.677 98.470 L 285.522 97.313 L 288.387 96.207 L 291.271 95.151 L 294.173 94.145 L 297.092 93.191 L 300.028 92.288 L 302.979 91.437 L 305.944 90.638 L 308.924 89.891 L 311.915 89.196 L 314.919 88.554 L 317.933 87.965 L 320.957 87.429 L 323.990 86.945 L 327.031 86.516 L 330.079 86.139 L 333.134 85.816 L 336.193 85.547 L 339.257 85.332 L 342.324 85.170 L 345.393 85.062 L 348.464 85.008 L 351.536 85.008 L 354.607 85.062 L 357.676 85.170 L 360.743 85.332 L 363.807 85.547 L 366.866 85.816 L 369.921 86.139 L 372.969 86.516 L 376.010 86.945 L 379.043 87.429 L 382.067 87.965 L 385.081 88.554 L 388.085 89.196 L 391.076 89.891 L 394.056 90.638 L 397.021 91.437 L 399.972 92.288 L 402.908 93.191 L 405.827 94.145 L 408.729 95.151 L 411.613 96.207 L 414.478 97.313 L 417.323 98.470 L 420.148 99.676 L 422.951 100.932 L 425.731 102.237 L 428.488 103.590 L 431.221 104.992 L 433.929 106.441 L 436.611 107.938 L 439.266 109.481 L 441.894 111.071 L 444.494 112.707 L 447.064 114.388 L 449.605 116.114 L 452.115 117.884 L 454.593 119.698 L 457.039 121.555 L 459.452 123.455 L 461.832 125.397 L 464.177 127.380 L 466.487 129.404 L 468.761 131.469 L 470.998 133.573 L 473.198 135.716 L 475.361 137.897 L 477.484 140.116 L 479.568 142.372 L 481.613 144.664 L 483.617 146.991 L 485.579 149.354 L 487.500 151.750 L 489.379 154.180 L 491.215 156.642 L 493.007 159.136 L 494.755 161.662 L 496.458 164.217 L 498.117 166.802 L 499.730 169.416 L 501.296 172.058 L 502.816 174.727 L 504.289 177.422 L 505.715 180.142 L 507.092 182.887 L 508.422 185.656 L 509.702 188.448 L 510.933 191.262 L 512.115 194.097 L 513.246 196.952 L 514.328 199.827 L 515.358 202.720 L 516.338 205.631 L 517.267 208.558 L 518.144 211.502 L 518.969 214.460 L 519.742 217.432 L 520.463 220.418 L 521.131 223.416 L 521.747 226.425 L 522.310 229.444 L 522.820 232.473 L 523.276 235.510 L 523.679 238.555 L 524.029 241.606 L 524.325 244.663 L 524.567 247.725 L 524.756 250.790 L 524.890 253.859 L 524.971 256.929 L 525.000 260.197 L 525.000 405.000 L 175.000 405.000 L 175.000 260.197 L 175.029 256.929 L 175.110 253.859 L 175.244 250.790 Z" fill="black" fill-rule="evenodd"/>
</svg>
