<svg xmlns="http://www.w3.org/2000/svg" width="700.000" height="1000" viewBox="0 0 700.000 1000">
  <path d="M 305.000 780.000 L 305.014 781.104 L 305.054 782.208 L 305.122 783.310 L 305.217 784.411 L 305.338 785.508 L 305.487 786.603 L 305.663 787.693 L 305.865 788.779 L 306.093 789.860 L 306.349 790.934 L 306.630 792.002 L 306.938 793.063 L 307.271 794.116 L 307.631 795.160 L 308.015 796.195 L 308.425 797.221 L 308.861 798.236 L 309.320 799.240 L 309.805 800.233 L 310.314 801.213 L 310.846 802.180 L 311.402 803.135 L 311.982 804.075 L 312.584 805.001 L 313.209 805.911 L 313.856 806.806 L 314.524 807.685 L 315.215 808.548 L 315.926 809.393 L 316.657 810.220 L 317.409 811.029 L 318.180 811.820 L 318.971 812.591 L 319.780 813.343 L 320.607 814.074 L 321.452 814.785 L 322.315 815.476 L 323.194 816.144 L 324.089 816.791 L 324.999 817.416 L 325.925 818.018 L 326.865 818.598 L 327.820 819.154 L 328.787 819.686 L 329.767 820.195 L 330.760 820.680 L 331.764 821.139 L 332.779 821.575 L 333.805 821.985 L 334.840 822.369 L 335.884 822.729 L 336.937 823.062 L 337.998 823.370 L 339.066 823.651 L 340.140 823.907 L 341.221 824.135 L 342.307 824.337 L 343.397 824.513 L 344.492 824.662 L 345.589 824.783 L 346.690 824.878 L 347.792 824.946 L 348.896 824.986 L 350.000 825.000 L 351.104 824.986 L 352.208 824.946 L 353.310 824.878 L 354.411 824.783 L 355.508 824.662 L 356.603 824.513 L 357.693 824.337 L 358.779 824.135 L 359.860 823.907 L 360.934 823.651 L 362.002 823.370 L 363.063 823.062 L 364.116 822.729 L 365.160 822.369 L 366.195 821.985 L 367.221 821.575 L 368.236 821.139 L 369.240 820.680 L 370.233 820.195 L 371.213 819.686 L 372.180 819.154 L 373.135 818.598 L 374.075 818.018 L 375.001 817.416 L 375.911 816.791 L 376.806 816.144 L 377.685 815.476 L 378.548 814.785 L 379.393 814.074 L 380.220 813.343 L 381.029 812.591 L 381.820 811.820 L 382.591 811.029 L 383.343 810.220 L 384.074 809.393 L 384.785 808.548 L 385.476 807.685 L 386.144 806.806 L 386.791 805.911 L 387.416 805.001 L 388.018 804.075 L 388.598 803.135 L 389.154 802.180 L 389.686 801.213 L 390.195 800.233 L 390.680 799.240 L 391.139 798.236 L 391.575 797.221 L 391.985 796.195 L 392.369 795.160 L 392.729 794.116 L 393.062 793.063 L 393.370 792.002 L 393.651 790.934 L 393.907 789.860 L 394.135 788.779 L 394.337 787.693 L 394.513 786.603 L 394.662 785.508 L 394.783 784.411 L 394.878 783.310 L 394.946 782.208 L 394.986 781.104 L 395.000 780.000 L 395.000 40.000 L 394.986 38.896 L 394.946 37.792 L 394.878 36.690 L 394.783 35.589 L 394.662 34.492 L 394.513 33.397 L 394.337 32.307 L 394.135 31.221 L 393.907 30.140 L 393.651 29.066 L 393.370 27.998 L 393.062 26.937 L 392.729 25.884 L 392.369 24.840 L 391.985 23.805 L 391.575 22.779 L 391.139 21.764 L 390.680 20.760 L 390.195 19.767 L 389.686 18.787 L 389.154 17.820 L 388.598 16.865 L 388.018 15.925 L 387.416 14.999 L 386.791 14.089 L 386.144 13.194 L 385.476 12.315 L 384.785 11.452 L 384.074 10.607 L 383.343 9.780 L 382.591 8.971 L 381.820 8.180 L 381.029 7.409 L 380.220 6.657 L 379.393 5.926 L 378.548 5.215 L 377.685 4.524 L 376.806 3.856 L 375.911 3.209 L 375.001 2.584 L 374.075 1.982 L 373.135 1.402 L 372.180 0.846 L 371.213 0.314 L 370.233 -0.195 L 369.240 -0.680 L 368.236 -1.139 L 367.221 -1.575 L 366.195 -1.985 L 365.160 -2.369 L 364.116 -2.729 L 363.063 -3.062 L 362.002 -3.370 L 360.934 -3.651 L 359.860 -3.907 L 358.779 -4.135 L 357.693 -4.337 L 356.603 -4.513 L 355.508 -4.662 L 354.411 -4.783 L 353.310 -4.878 L 352.208 -4.946 L 351.104 -4.986 L 350.000 -5.000 L 348.896 -4.986 L 347.792 -4.946 L 346.690 -4.878 L 345.589 -4.783 L 344.492 -4.662 L 343.397 -4.513 L 342.307 -4.337 L 341.221 -4.135 L 340.140 -3.907 L 339.066 -3.651 L 337.998 -3.370 L 336.937 -3.062 L 335.884 -2.729 L 334.840 -2.369 L 333.805 -1.985 L 332.779 -1.575 L 331.764 -1.139 L 330.760 -0.680 L 329.767 -0.195 L 328.787 0.314 L 327.820 0.846 L 326.865 1.402 L 325.925 1.982 L 324.999 2.584 L 324.089 3.209 L 323.194 3.856 L 322.315 4.524 L 321.452 5.215 L 320.607 5.926 L 319.780 6.657 L 318.971 7.409 L 318.180 8.180 L 317.409 8.971 L 316.657 9.780 L 315.926 10.607 L 315.215 11.452 L 314.524 12.315 L 313.856 13.194 L 313.209 14.089 L 312.584 14.999 L 311.982 15.925 L 311.402 16.865 L 310.846 17.820 L 310.314 18.787 L 309.805 19.767 L 309.320 20.760 L 308.861 21.764 L 308.425 22.779 L 308.015 23.805 L 307.631 24.840 L 307.271 25.884 L 306.938 26.937 L 306.630 27.998 L 306.349 29.066 L 306.093 30.140 L 305.865 31.221 L 305.663 32.307 L 305.487 33.397 L 305.338 34.492 L 305.217 35.589 L 305.122 36.690 L 305.054 37.792 L 305.014 38.896 L 305.000 40.000 L 305.000 780.000 Z" fill="black" fill-rule="evenodd"/>
</svg>
