<svg xmlns="http://www.w3.org/2000/svg" viewBox="0 0 700.000 1000">
  <path d="M 462.566 655.667 L 460.370 659.080 L 458.151 662.422 L 455.909 665.691 L 453.647 668.888 L 451.364 672.011 L 449.063 675.059 L 446.745 678.032 L 444.410 680.929 L 442.060 683.751 L 439.696 686.495 L 437.320 689.162 L 434.932 691.751 L 432.534 694.262 L 430.127 696.694 L 427.712 699.048 L 425.291 701.324 L 422.865 703.520 L 420.434 705.638 L 418.002 707.677 L 415.567 709.638 L 413.132 711.520 L 410.698 713.323 L 408.266 715.049 L 405.836 716.698 L 403.410 718.270 L 400.989 719.765 L 398.574 721.185 L 396.165 722.530 L 393.762 723.801 L 391.368 724.998 L 388.981 726.122 L 386.603 727.175 L 384.234 728.157 L 381.874 729.069 L 379.523 729.913 L 377.181 730.688 L 374.848 731.397 L 372.523 732.039 L 370.207 732.616 L 367.899 733.129 L 365.597 733.578 L 363.302 733.965 L 361.013 734.289 L 358.729 734.552 L 356.449 734.754 L 354.171 734.895 L 351.896 734.975 L 349.621 734.995 L 347.346 734.955 L 345.070 734.854 L 342.792 734.693 L 340.510 734.471 L 338.224 734.188 L 335.933 733.843 L 333.636 733.436 L 331.333 732.965 L 329.022 732.431 L 326.703 731.832 L 324.375 731.168 L 322.039 730.437 L 319.694 729.639 L 317.340 728.773 L 314.977 727.838 L 312.605 726.832 L 310.224 725.755 L 307.835 724.607 L 305.438 723.385 L 303.033 722.090 L 300.622 720.720 L 298.204 719.275 L 295.782 717.754 L 293.354 716.157 L 290.924 714.483 L 288.491 712.731 L 286.056 710.901 L 283.621 708.993 L 281.187 707.006 L 278.755 704.941 L 276.326 702.797 L 273.902 700.574 L 271.482 698.273 L 269.070 695.892 L 266.666 693.433 L 264.271 690.896 L 261.887 688.281 L 259.514 685.589 L 257.155 682.819 L 254.810 679.972 L 252.480 677.049 L 250.168 674.051 L 247.873 670.978 L 245.597 667.830 L 243.341 664.609 L 241.107 661.316 L 238.895 657.950 L 236.707 654.513 L 234.544 651.006 L 232.406 647.430 L 230.295 643.785 L 228.212 640.073 L 226.158 636.295 L 224.133 632.452 L 222.139 628.544 L 220.177 624.573 L 218.247 620.541 L 216.351 616.447 L 214.488 612.294 L 212.661 608.083 L 210.869 603.814 L 209.114 599.489 L 207.397 595.110 L 205.717 590.677 L 204.076 586.193 L 202.475 581.657 L 200.913 577.072 L 199.393 572.438 L 197.913 567.758 L 196.476 563.033 L 195.081 558.263 L 193.730 553.450 L 192.422 548.597 L 191.158 543.703 L 189.939 538.771 L 188.765 533.802 L 187.636 528.798 L 186.554 523.759 L 185.517 518.688 L 184.528 513.585 L 183.586 508.453 L 182.691 503.292 L 181.845 498.105 L 181.046 492.892 L 180.296 487.656 L 179.595 482.397 L 178.942 477.118 L 178.339 471.820 L 177.786 466.503 L 177.282 461.171 L 176.828 455.824 L 176.424 450.464 L 176.070 445.092 L 175.767 439.710 L 175.513 434.320 L 175.311 428.923 L 175.159 423.520 L 175.058 418.114 L 175.007 412.705 L 175.007 407.295 L 175.058 401.886 L 175.159 396.480 L 175.311 391.077 L 175.513 385.680 L 175.767 380.290 L 176.070 374.908 L 176.424 369.536 L 176.828 364.176 L 177.282 358.829 L 177.786 353.497 L 178.339 348.180 L 178.942 342.882 L 179.595 337.603 L 180.296 332.344 L 181.046 327.108 L 181.845 321.895 L 182.691 316.708 L 183.586 311.547 L 184.528 306.415 L 185.517 301.312 L 186.554 296.241 L 187.636 291.202 L 188.765 286.198 L 189.939 281.229 L 191.158 276.297 L 192.422 271.403 L 193.730 266.550 L 195.081 261.737 L 196.476 256.967 L 197.913 252.242 L 199.393 247.562 L 200.913 242.928 L 202.475 238.343 L 204.076 233.807 L 205.717 229.323 L 207.397 224.890 L 209.114 220.511 L 210.869 216.186 L 212.661 211.917 L 214.488 207.706 L 216.351 203.553 L 218.247 199.459 L 220.177 195.427 L 222.139 191.456 L 224.133 187.548 L 226.158 183.705 L 228.212 179.927 L 230.295 176.215 L 232.406 172.570 L 234.544 168.994 L 236.707 165.487 L 238.895 162.050 L 241.107 158.684 L 243.341 155.391 L 245.597 152.170 L 247.873 149.022 L 250.168 145.949 L 252.480 142.951 L 254.810 140.028 L 257.155 137.181 L 259.514 134.411 L 261.887 131.719 L 264.271 129.104 L 266.666 126.567 L 269.070 124.108 L 271.482 121.727 L 273.902 119.426 L 276.326 117.203 L 278.755 115.059 L 281.187 112.994 L 283.621 111.007 L 286.056 109.099 L 288.491 107.269 L 290.924 105.517 L 293.354 103.843 L 295.782 102.246 L 298.204 100.725 L 300.622 99.280 L 303.033 97.910 L 305.438 96.615 L 307.835 95.393 L 310.224 94.245 L 312.605 93.168 L 314.977 92.162 L 317.340 91.227 L 319.694 90.361 L 322.039 89.563 L 324.375 88.832 L 326.703 88.168 L 329.022 87.569 L 331.333 87.035 L 333.636 86.564 L 335.933 86.157 L 338.224 85.812 L 340.510 85.529 L 342.792 85.307 L 345.070 85.146 L 347.346 85.045 L 349.621 85.005 L 351.896 85.025 L 354.171 85.105 L 356.449 85.246 L 358.729 85.448 L 361.013 85.711 L 363.302 86.035 L 365.597 86.422 L 367.899 86.871 L 370.207 87.384 L 372.523 87.961 L 374.848 88.603 L 377.181 89.312 L 379.523 90.087 L 381.874 90.931 L 384.234 91.843 L 386.603 92.825 L 388.981 93.878 L 391.368 95.002 L 393.762 96.199 L 396.165 97.470 L 398.574 98.815 L 400.989 100.235 L 403.410 101.730 L 405.836 103.302 L 408.266 104.951 L 410.698 106.677 L 413.132 108.480 L 415.567 110.362 L 418.002 112.323 L 420.434 114.362 L 422.865 116.480 L 425.291 118.676 L 427.712 120.952 L 430.127 123.306 L 432.534 125.738 L 434.932 128.249 L 437.320 130.838 L 439.696 133.505 L 442.060 136.249 L 444.410 139.071 L 446.745 141.968 L 449.063 144.941 L 451.364 147.989 L 453.647 151.112 L 455.909 154.309 L 458.151 157.578 L 460.370 160.920 L 462.566 164.333 L 464.738 167.817 L 467.045 171.637 L 467.628 172.575 L 468.233 173.499 L 468.861 174.408 L 469.511 175.301 L 470.183 176.177 L 470.876 177.037 L 471.590 177.880 L 472.324 178.705 L 473.079 179.511 L 473.853 180.299 L 474.646 181.068 L 475.458 181.817 L 476.288 182.545 L 477.135 183.253 L 478.000 183.941 L 478.881 184.606 L 479.778 185.250 L 480.691 185.872 L 481.619 186.471 L 482.561 187.047 L 483.517 187.600 L 484.487 188.129 L 485.469 188.635 L 486.463 189.116 L 487.469 189.572 L 488.485 190.004 L 489.512 190.410 L 490.549 190.792 L 491.594 191.147 L 492.648 191.477 L 493.710 191.781 L 494.779 192.059 L 495.854 192.311 L 496.936 192.536 L 498.022 192.734 L 499.113 192.906 L 500.208 193.051 L 501.306 193.169 L 502.407 193.260 L 503.509 193.324 L 504.613 193.360 L 505.718 193.370 L 506.822 193.353 L 507.925 193.308 L 509.028 193.237 L 510.128 193.138 L 511.225 193.013 L 512.319 192.861 L 513.409 192.681 L 514.494 192.476 L 515.573 192.243 L 516.647 191.984 L 517.714 191.699 L 518.774 191.388 L 519.825 191.051 L 520.869 190.688 L 521.902 190.299 L 522.926 189.886 L 523.940 189.447 L 524.943 188.984 L 525.934 188.496 L 526.912 187.984 L 527.878 187.448 L 528.830 186.889 L 529.768 186.306 L 530.692 185.701 L 531.601 185.073 L 532.494 184.423 L 533.370 183.751 L 534.230 183.058 L 535.073 182.344 L 535.898 181.610 L 536.704 180.855 L 537.492 180.081 L 538.261 179.288 L 539.010 178.476 L 539.738 177.646 L 540.446 176.799 L 541.134 175.934 L 541.799 175.053 L 542.443 174.156 L 543.065 173.243 L 543.664 172.315 L 544.240 171.373 L 544.793 170.417 L 545.322 169.447 L 545.828 168.465 L 546.309 167.471 L 546.765 166.465 L 547.197 165.449 L 547.603 164.422 L 547.985 163.385 L 548.340 162.340 L 548.670 161.286 L 548.974 160.224 L 549.252 159.155 L 549.504 158.080 L 549.729 156.998 L 549.927 155.912 L 550.099 154.821 L 550.244 153.726 L 550.362 152.628 L 550.453 151.527 L 550.517 150.425 L 550.553 149.321 L 550.563 148.216 L 550.546 147.112 L 550.501 146.009 L 550.430 144.906 L 550.331 143.806 L 550.206 142.709 L 550.054 141.615 L 549.874 140.525 L 549.669 139.440 L 549.436 138.361 L 549.177 137.287 L 548.892 136.220 L 548.581 135.160 L 548.244 134.109 L 547.881 133.065 L 547.492 132.032 L 547.079 131.007 L 546.640 129.994 L 546.177 128.991 L 545.689 128.000 L 545.177 127.022 L 544.641 126.056 L 544.082 125.104 L 541.611 121.013 L 541.280 120.474 L 538.771 116.449 L 538.427 115.906 L 535.881 111.949 L 535.524 111.402 L 532.941 107.513 L 532.570 106.963 L 529.950 103.142 L 529.565 102.590 L 526.911 98.839 L 526.511 98.283 L 523.821 94.603 L 523.406 94.044 L 520.683 90.436 L 520.252 89.875 L 517.495 86.339 L 517.048 85.775 L 514.258 82.313 L 513.794 81.747 L 510.972 78.360 L 510.492 77.792 L 507.638 74.480 L 507.139 73.911 L 504.255 70.674 L 503.738 70.104 L 500.824 66.944 L 500.289 66.373 L 497.345 63.291 L 496.790 62.720 L 493.818 59.717 L 493.243 59.146 L 490.244 56.222 L 489.648 55.652 L 486.622 52.807 L 486.005 52.239 L 482.952 49.475 L 482.315 48.908 L 479.236 46.226 L 478.577 45.662 L 475.474 43.061 L 474.792 42.501 L 471.665 39.983 L 470.961 39.428 L 467.810 36.993 L 467.083 36.442 L 463.910 34.091 L 463.160 33.547 L 459.965 31.280 L 459.191 30.743 L 455.976 28.561 L 455.178 28.032 L 451.943 25.935 L 451.121 25.415 L 447.866 23.405 L 447.021 22.895 L 443.748 20.972 L 442.878 20.473 L 439.587 18.636 L 438.694 18.151 L 435.386 16.401 L 434.469 15.930 L 431.145 14.268 L 430.205 13.811 L 426.866 12.238 L 425.902 11.798 L 422.549 10.313 L 421.563 9.891 L 418.197 8.495 L 417.188 8.091 L 413.809 6.785 L 412.779 6.402 L 409.388 5.185 L 408.338 4.823 L 404.936 3.697 L 403.867 3.357 L 400.455 2.321 L 399.367 2.006 L 395.945 1.060 L 394.840 0.770 L 391.410 -0.085 L 390.289 -0.349 L 386.851 -1.113 L 385.715 -1.350 L 382.271 -2.022 L 381.122 -2.231 L 377.672 -2.812 L 376.511 -2.992 L 373.056 -3.482 L 371.885 -3.632 L 368.426 -4.030 L 367.247 -4.150 L 363.785 -4.456 L 362.600 -4.545 L 359.135 -4.760 L 357.945 -4.817 L 354.479 -4.940 L 353.287 -4.966 L 349.820 -4.997 L 348.627 -4.992 L 345.160 -4.930 L 343.969 -4.894 L 340.502 -4.740 L 339.314 -4.672 L 335.850 -4.427 L 334.667 -4.328 L 331.205 -3.991 L 330.029 -3.861 L 326.571 -3.432 L 325.404 -3.272 L 321.950 -2.752 L 320.793 -2.562 L 317.345 -1.951 L 316.200 -1.732 L 312.758 -1.030 L 311.627 -0.783 L 308.192 0.011 L 307.076 0.284 L 303.648 1.169 L 302.549 1.468 L 299.130 2.443 L 298.048 2.767 L 294.639 3.833 L 293.576 4.180 L 290.178 5.337 L 289.134 5.706 L 285.747 6.952 L 284.725 7.343 L 281.350 8.679 L 280.349 9.089 L 276.986 10.514 L 276.008 10.943 L 272.659 12.457 L 271.703 12.903 L 268.369 14.506 L 267.437 14.968 L 264.118 16.659 L 263.209 17.135 L 259.907 18.914 L 259.021 19.404 L 255.736 21.270 L 254.875 21.772 L 251.608 23.725 L 250.770 24.238 L 247.522 26.277 L 246.708 26.800 L 243.479 28.925 L 242.689 29.457 L 239.481 31.667 L 238.715 32.207 L 235.527 34.502 L 234.785 35.048 L 231.619 37.427 L 230.900 37.980 L 227.757 40.442 L 227.060 41.000 L 223.941 43.545 L 223.267 44.107 L 220.172 46.735 L 219.520 47.299 L 216.450 50.009 L 215.819 50.576 L 212.775 53.367 L 212.166 53.936 L 209.148 56.808 L 208.560 57.378 L 205.569 60.329 L 205.001 60.900 L 202.038 63.929 L 201.490 64.500 L 198.556 67.608 L 198.027 68.179 L 195.122 71.364 L 194.612 71.934 L 191.738 75.196 L 191.245 75.765 L 188.402 79.102 L 187.927 79.669 L 185.116 83.082 L 184.658 83.647 L 181.878 87.134 L 181.437 87.697 L 178.691 91.257 L 178.266 91.817 L 175.553 95.450 L 175.143 96.007 L 172.465 99.711 L 172.071 100.266 L 169.428 104.040 L 169.047 104.592 L 166.440 108.436 L 166.074 108.984 L 163.503 112.897 L 163.150 113.442 L 160.616 117.422 L 160.277 117.963 L 157.780 122.010 L 157.454 122.548 L 154.996 126.661 L 154.681 127.195 L 152.262 131.372 L 151.959 131.903 L 149.579 136.144 L 149.288 136.671 L 146.948 140.974 L 146.668 141.497 L 144.369 145.862 L 144.100 146.381 L 141.842 150.807 L 141.583 151.322 L 139.367 155.807 L 139.118 156.319 L 136.944 160.861 L 136.704 161.369 L 134.573 165.969 L 134.343 166.474 L 132.255 171.129 L 132.035 171.630 L 129.991 176.341 L 129.778 176.838 L 127.779 181.602 L 127.575 182.095 L 125.621 186.912 L 125.425 187.402 L 123.516 192.269 L 123.328 192.756 L 121.465 197.673 L 121.285 198.157 L 119.468 203.123 L 119.295 203.603 L 117.525 208.617 L 117.360 209.094 L 115.637 214.154 L 115.478 214.627 L 113.803 219.733 L 113.651 220.203 L 112.024 225.352 L 111.879 225.819 L 110.300 231.011 L 110.161 231.475 L 108.631 236.708 L 108.499 237.170 L 107.018 242.443 L 106.892 242.901 L 105.461 248.213 L 105.340 248.669 L 103.959 254.018 L 103.844 254.471 L 102.513 259.856 L 102.404 260.307 L 101.123 265.726 L 101.020 266.175 L 99.790 271.628 L 99.692 272.074 L 98.514 277.558 L 98.421 278.003 L 97.294 283.518 L 97.206 283.960 L 96.131 289.504 L 96.048 289.945 L 95.025 295.517 L 94.947 295.955 L 93.976 301.553 L 93.903 301.990 L 92.985 307.613 L 92.916 308.049 L 92.051 313.695 L 91.987 314.129 L 91.174 319.798 L 91.115 320.230 L 90.356 325.920 L 90.301 326.351 L 89.595 332.060 L 89.544 332.490 L 88.892 338.217 L 88.846 338.645 L 88.248 344.389 L 88.205 344.816 L 87.661 350.575 L 87.623 351.001 L 87.133 356.774 L 87.098 357.199 L 86.662 362.984 L 86.632 363.409 L 86.251 369.205 L 86.225 369.629 L 85.897 375.434 L 85.876 375.857 L 85.603 381.670 L 85.585 382.093 L 85.366 387.913 L 85.352 388.335 L 85.189 394.160 L 85.179 394.582 L 85.069 400.410 L 85.063 400.832 L 85.009 406.663 L 85.007 407.084 L 85.007 412.916 L 85.009 413.337 L 85.063 419.168 L 85.069 419.590 L 85.179 425.418 L 85.189 425.840 L 85.352 431.665 L 85.366 432.087 L 85.585 437.907 L 85.603 438.330 L 85.876 444.143 L 85.897 444.566 L 86.225 450.371 L 86.251 450.795 L 86.632 456.591 L 86.662 457.016 L 87.098 462.801 L 87.133 463.226 L 87.623 468.999 L 87.661 469.425 L 88.205 475.184 L 88.248 475.611 L 88.846 481.355 L 88.892 481.783 L 89.544 487.510 L 89.595 487.940 L 90.301 493.649 L 90.356 494.080 L 91.115 499.770 L 91.174 500.202 L 91.987 505.871 L 92.051 506.305 L 92.916 511.951 L 92.985 512.387 L 93.903 518.010 L 93.976 518.447 L 94.947 524.045 L 95.025 524.483 L 96.048 530.055 L 96.131 530.496 L 97.206 536.040 L 97.294 536.482 L 98.421 541.997 L 98.514 542.442 L 99.692 547.926 L 99.790 548.372 L 101.020 553.825 L 101.123 554.274 L 102.404 559.693 L 102.513 560.144 L 103.844 565.529 L 103.959 565.982 L 105.340 571.331 L 105.461 571.787 L 106.892 577.099 L 107.018 577.557 L 108.499 582.830 L 108.631 583.292 L 110.161 588.525 L 110.300 588.989 L 111.879 594.181 L 112.024 594.648 L 113.651 599.797 L 113.803 600.267 L 115.478 605.373 L 115.637 605.846 L 117.360 610.906 L 117.525 611.383 L 119.295 616.397 L 119.468 616.877 L 121.285 621.843 L 121.465 622.327 L 123.328 627.244 L 123.516 627.731 L 125.425 632.598 L 125.621 633.088 L 127.575 637.905 L 127.779 638.398 L 129.778 643.162 L 129.991 643.659 L 132.035 648.370 L 132.255 648.871 L 134.343 653.526 L 134.573 654.031 L 136.704 658.631 L 136.944 659.139 L 139.118 663.681 L 139.367 664.193 L 141.583 668.678 L 141.842 669.193 L 144.100 673.619 L 144.369 674.138 L 146.668 678.503 L 146.948 679.026 L 149.288 683.329 L 149.579 683.856 L 151.959 688.097 L 152.262 688.628 L 154.681 692.805 L 154.996 693.339 L 157.454 697.452 L 157.780 697.990 L 160.277 702.037 L 160.616 702.578 L 163.150 706.558 L 163.503 707.103 L 166.074 711.016 L 166.440 711.564 L 169.047 715.408 L 169.428 715.960 L 172.071 719.734 L 172.465 720.289 L 175.143 723.993 L 175.553 724.550 L 178.266 728.183 L 178.691 728.743 L 181.437 732.303 L 181.878 732.866 L 184.658 736.353 L 185.116 736.918 L 187.927 740.331 L 188.402 740.898 L 191.245 744.235 L 191.738 744.804 L 194.612 748.066 L 195.122 748.636 L 198.027 751.821 L 198.556 752.392 L 201.490 755.500 L 202.038 756.071 L 205.001 759.100 L 205.569 759.671 L 208.560 762.622 L 209.148 763.192 L 212.166 766.064 L 212.775 766.633 L 215.819 769.424 L 216.450 769.991 L 219.520 772.701 L 220.172 773.265 L 223.267 775.893 L 223.941 776.455 L 227.060 779.000 L 227.757 779.558 L 230.900 782.020 L 231.619 782.573 L 234.785 784.952 L 235.527 785.498 L 238.715 787.793 L 239.481 788.333 L 242.689 790.543 L 243.479 791.075 L 246.708 793.200 L 247.522 793.723 L 250.770 795.762 L 251.608 796.275 L 254.875 798.228 L 255.736 798.730 L 259.021 800.596 L 259.907 801.086 L 263.209 802.865 L 264.118 803.341 L 267.437 805.032 L 268.369 805.494 L 271.703 807.097 L 272.659 807.543 L 276.008 809.057 L 276.986 809.486 L 280.349 810.911 L 281.350 811.321 L 284.725 812.657 L 285.747 813.048 L 289.134 814.294 L 290.178 814.663 L 293.576 815.820 L 294.639 816.167 L 298.048 817.233 L 299.130 817.557 L 302.549 818.532 L 303.648 818.831 L 307.076 819.716 L 308.192 819.989 L 311.627 820.783 L 312.758 821.030 L 316.200 821.732 L 317.345 821.951 L 320.793 822.562 L 321.950 822.752 L 325.404 823.272 L 326.571 823.432 L 330.029 823.861 L 331.205 823.991 L 334.667 824.328 L 335.850 824.427 L 339.314 824.672 L 340.502 824.740 L 343.969 824.894 L 345.160 824.930 L 348.627 824.992 L 349.820 824.997 L 353.287 824.966 L 354.479 824.940 L 357.945 824.817 L 359.135 824.760 L 362.600 824.545 L 363.785 824.456 L 367.247 824.150 L 368.426 824.030 L 371.885 823.632 L 373.056 823.482 L 376.511 822.992 L 377.672 822.812 L 381.122 822.231 L 382.271 822.022 L 385.715 821.350 L 386.851 821.113 L 390.289 820.349 L 391.410 820.085 L 394.840 819.230 L 395.945 818.940 L 399.367 817.994 L 400.455 817.679 L 403.867 816.643 L 404.936 816.303 L 408.338 815.177 L 409.388 814.815 L 412.779 813.598 L 413.809 813.215 L 417.188 811.909 L 418.197 811.505 L 421.563 810.109 L 422.549 809.687 L 425.902 808.202 L 426.866 807.762 L 430.205 806.189 L 431.145 805.732 L 434.469 804.070 L 435.386 803.599 L 438.694 801.849 L 439.587 801.364 L 442.878 799.527 L 443.748 799.028 L 447.021 797.105 L 447.866 796.595 L 451.121 794.585 L 451.943 794.065 L 455.178 791.968 L 455.976 791.439 L 459.191 789.257 L 459.965 788.720 L 463.160 786.453 L 463.910 785.909 L 467.083 783.558 L 467.810 783.007 L 470.961 780.572 L 471.665 780.017 L 474.792 777.499 L 475.474 776.939 L 478.577 774.338 L 479.236 773.774 L 482.315 771.092 L 482.952 770.525 L 486.005 767.761 L 486.622 767.193 L 489.648 764.348 L 490.244 763.778 L 493.243 760.854 L 493.818 760.283 L 496.790 757.280 L 497.345 756.709 L 500.289 753.627 L 500.824 753.056 L 503.738 749.896 L 504.255 749.326 L 507.139 746.089 L 507.638 745.520 L 510.492 742.208 L 510.972 741.640 L 513.794 738.253 L 514.258 737.687 L 517.048 734.225 L 517.495 733.661 L 520.252 730.125 L 520.683 729.564 L 523.406 725.956 L 523.821 725.397 L 526.511 721.717 L 526.911 721.161 L 529.565 717.410 L 529.950 716.858 L 532.570 713.037 L 532.941 712.487 L 535.524 708.598 L 535.881 708.051 L 538.427 704.094 L 538.771 703.551 L 541.280 699.526 L 541.611 698.987 L 544.082 694.896 L 544.641 693.944 L 545.177 692.978 L 545.689 692.000 L 546.177 691.009 L 546.640 690.006 L 547.079 688.993 L 547.492 687.968 L 547.881 686.935 L 548.244 685.891 L 548.581 684.840 L 548.892 683.780 L 549.177 682.713 L 549.436 681.639 L 549.669 680.560 L 549.874 679.475 L 550.054 678.385 L 550.206 677.291 L 550.331 676.194 L 550.430 675.094 L 550.501 673.991 L 550.546 672.888 L 550.563 671.784 L 550.553 670.679 L 550.517 669.575 L 550.453 668.473 L 550.362 667.372 L 550.244 666.274 L 550.099 665.179 L 549.927 664.088 L 549.729 663.002 L 549.504 661.920 L 549.252 660.845 L 548.974 659.776 L 548.670 658.714 L 548.340 657.660 L 547.985 656.615 L 547.603 655.578 L 547.197 654.551 L 546.765 653.535 L 546.309 652.529 L 545.828 651.535 L 545.322 650.553 L 544.793 649.583 L 544.240 648.627 L 543.664 647.685 L 543.065 646.757 L 542.443 645.844 L 541.799 644.947 L 541.134 644.066 L 540.446 643.201 L 539.738 642.354 L 539.010 641.524 L 538.261 640.712 L 537.492 639.919 L 536.704 639.145 L 535.898 638.390 L 535.073 637.656 L 534.230 636.942 L 533.370 636.249 L 532.494 635.577 L 531.601 634.927 L 530.692 634.299 L 529.768 633.694 L 528.830 633.111 L 527.878 632.552 L 526.912 632.016 L 525.934 631.504 L 524.943 631.016 L 523.940 630.553 L 522.926 630.114 L 521.902 629.701 L 520.869 629.312 L 519.825 628.949 L 518.774 628.612 L 517.714 628.301 L 516.647 628.016 L 515.573 627.757 L 514.494 627.524 L 513.409 627.319 L 512.319 627.139 L 511.225 626.987 L 510.128 626.862 L 509.028 626.763 L 507.925 626.692 L 506.822 626.647 L 505.718 626.630 L 504.613 626.640 L 503.509 626.676 L 502.407 626.740 L 501.306 626.831 L 500.208 626.949 L 499.113 627.094 L 498.022 627.266 L 496.936 627.464 L 495.854 627.689 L 494.779 627.941 L 493.710 628.219 L 492.648 628.523 L 491.594 628.853 L 490.549 629.208 L 489.512 629.590 L 488.485 629.996 L 487.469 630.428 L 486.463 630.884 L 485.469 631.365 L 484.487 631.871 L 483.517 632.400 L 482.561 632.953 L 481.619 633.529 L 480.691 634.128 L 479.778 634.750 L 478.881 635.394 L 478.000 636.059 L 477.135 636.747 L 476.288 637.455 L 475.458 638.183 L 474.646 638.932 L 473.853 639.701 L 473.079 640.489 L 472.324 641.295 L 471.590 642.120 L 470.876 642.963 L 470.183 643.823 L 469.511 644.699 L 468.861 645.592 L 468.233 646.501 L 467.628 647.425 L 467.045 648.363 L 464.738 652.183 L 462.566 655.667 Z M 518.146 407.792 L 518.078 406.690 L 517.983 405.589 L 517.862 404.492 L 517.713 403.397 L 517.537 402.307 L 517.335 401.221 L 517.107 400.140 L 516.851 399.066 L 516.570 397.998 L 516.262 396.937 L 515.929 395.884 L 515.569 394.840 L 515.185 393.805 L 514.775 392.779 L 514.339 391.764 L 513.880 390.760 L 513.395 389.767 L 512.886 388.787 L 512.354 387.820 L 511.798 386.865 L 511.218 385.925 L 510.616 384.999 L 509.991 384.089 L 509.344 383.194 L 508.676 382.315 L 507.985 381.452 L 507.274 380.607 L 506.543 379.780 L 505.791 378.971 L 505.020 378.180 L 504.229 377.409 L 503.420 376.657 L 502.593 375.926 L 501.748 375.215 L 500.885 374.524 L 500.006 373.856 L 499.111 373.209 L 498.201 372.584 L 497.275 371.982 L 496.335 371.402 L 495.380 370.846 L 494.413 370.314 L 493.433 369.805 L 492.440 369.320 L 491.436 368.861 L 490.421 368.425 L 489.395 368.015 L 488.360 367.631 L 487.838 367.451 L 487.316 367.271 L 486.263 366.938 L 485.202 366.630 L 484.134 366.349 L 483.060 366.093 L 481.979 365.865 L 480.893 365.663 L 479.803 365.487 L 478.708 365.338 L 477.611 365.217 L 476.510 365.122 L 475.408 365.054 L 474.304 365.014 L 473.200 365.000 L 336.800 365.000 L 335.696 365.014 L 334.592 365.054 L 333.490 365.122 L 332.389 365.217 L 331.292 365.338 L 330.197 365.487 L 329.107 365.663 L 328.021 365.865 L 326.940 366.093 L 325.866 366.349 L 324.798 366.630 L 323.737 366.938 L 322.684 367.271 L 321.640 367.631 L 320.605 368.015 L 319.579 368.425 L 318.564 368.861 L 317.560 369.320 L 316.567 369.805 L 315.587 370.314 L 314.620 370.846 L 313.665 371.402 L 312.725 371.982 L 311.799 372.584 L 310.889 373.209 L 309.994 373.856 L 309.115 374.524 L 308.252 375.215 L 307.407 375.926 L 306.580 376.657 L 305.771 377.409 L 304.980 378.180 L 304.209 378.971 L 303.457 379.780 L 302.726 380.607 L 302.015 381.452 L 301.324 382.315 L 300.656 383.194 L 300.009 384.089 L 299.384 384.999 L 298.782 385.925 L 298.202 386.865 L 297.646 387.820 L 297.114 388.787 L 296.605 389.767 L 296.120 390.760 L 295.661 391.764 L 295.225 392.779 L 294.815 393.805 L 294.431 394.840 L 294.071 395.884 L 293.738 396.937 L 293.430 397.998 L 293.149 399.066 L 292.893 400.140 L 292.665 401.221 L 292.463 402.307 L 292.287 403.397 L 292.138 404.492 L 292.017 405.589 L 291.922 406.690 L 291.854 407.792 L 291.814 408.896 L 291.800 410.000 L 291.814 411.104 L 291.854 412.208 L 291.922 413.310 L 292.017 414.411 L 292.138 415.508 L 292.287 416.603 L 292.463 417.693 L 292.665 418.779 L 292.893 419.860 L 293.149 420.934 L 293.430 422.002 L 293.738 423.063 L 294.071 424.116 L 294.431 425.160 L 294.815 426.195 L 295.225 427.221 L 295.661 428.236 L 296.120 429.240 L 296.605 430.233 L 297.114 431.213 L 297.646 432.180 L 298.202 433.135 L 298.782 434.075 L 299.384 435.001 L 300.009 435.911 L 300.656 436.806 L 301.324 437.685 L 302.015 438.548 L 302.726 439.393 L 303.457 440.220 L 304.209 441.029 L 304.980 441.820 L 305.771 442.591 L 306.580 443.343 L 307.407 444.074 L 308.252 444.785 L 309.115 445.476 L 309.994 446.144 L 310.889 446.791 L 311.799 447.416 L 312.725 448.018 L 313.665 448.598 L 314.620 449.154 L 315.587 449.686 L 316.567 450.195 L 317.560 450.680 L 318.564 451.139 L 319.579 451.575 L 320.605 451.985 L 321.640 452.369 L 322.684 452.729 L 323.737 453.062 L 324.798 453.370 L 325.866 453.651 L 326.940 453.907 L 328.021 454.135 L 329.107 454.337 L 330.197 454.513 L 331.292 454.662 L 332.389 454.783 L 333.490 454.878 L 334.592 454.946 L 335.696 454.986 L 336.800 455.000 L 428.200 455.000 L 428.200 543.200 L 428.214 544.304 L 428.254 545.408 L 428.322 546.510 L 428.417 547.611 L 428.538 548.708 L 428.687 549.803 L 428.863 550.893 L 429.065 551.979 L 429.293 553.060 L 429.549 554.134 L 429.830 555.202 L 430.138 556.263 L 430.471 557.316 L 430.831 558.360 L 431.215 559.395 L 431.625 560.421 L 432.061 561.436 L 432.520 562.440 L 433.005 563.433 L 433.514 564.413 L 434.046 565.380 L 434.602 566.335 L 435.182 567.275 L 435.784 568.201 L 436.409 569.111 L 437.056 570.006 L 437.724 570.885 L 438.415 571.748 L 439.126 572.593 L 439.857 573.420 L 440.609 574.229 L 441.380 575.020 L 442.171 575.791 L 442.980 576.543 L 443.807 577.274 L 444.652 577.985 L 445.515 578.676 L 446.394 579.344 L 447.289 579.991 L 448.199 580.616 L 449.125 581.218 L 450.065 581.798 L 451.020 582.354 L 451.987 582.886 L 452.967 583.395 L 453.960 583.880 L 454.964 584.339 L 455.979 584.775 L 457.005 585.185 L 458.040 585.569 L 459.084 585.929 L 460.137 586.262 L 461.198 586.570 L 462.266 586.851 L 463.340 587.107 L 464.421 587.335 L 465.507 587.537 L 466.597 587.713 L 467.692 587.862 L 468.789 587.983 L 469.890 588.078 L 470.992 588.146 L 472.096 588.186 L 473.200 588.200 L 474.304 588.186 L 475.408 588.146 L 476.510 588.078 L 477.611 587.983 L 478.708 587.862 L 479.803 587.713 L 480.893 587.537 L 481.979 587.335 L 483.060 587.107 L 484.134 586.851 L 485.202 586.570 L 486.263 586.262 L 487.316 585.929 L 488.360 585.569 L 489.395 585.185 L 490.421 584.775 L 491.436 584.339 L 492.440 583.880 L 493.433 583.395 L 494.413 582.886 L 495.380 582.354 L 496.335 581.798 L 497.275 581.218 L 498.201 580.616 L 499.111 579.991 L 500.006 579.344 L 500.885 578.676 L 501.748 577.985 L 502.593 577.274 L 503.420 576.543 L 504.229 575.791 L 505.020 575.020 L 505.791 574.229 L 506.543 573.420 L 507.274 572.593 L 507.985 571.748 L 508.676 570.885 L 509.344 570.006 L 509.991 569.111 L 510.616 568.201 L 511.218 567.275 L 511.798 566.335 L 512.354 565.380 L 512.886 564.413 L 513.395 563.433 L 513.880 562.440 L 514.339 561.436 L 514.775 560.421 L 515.185 559.395 L 515.569 558.360 L 515.929 557.316 L 516.262 556.263 L 516.570 555.202 L 516.851 554.134 L 517.107 553.060 L 517.335 551.979 L 517.537 550.893 L 517.713 549.803 L 517.862 548.708 L 517.983 547.611 L 518.078 546.510 L 518.146 545.408 L 518.186 544.304 L 518.200 543.200 L 518.200 410.000 L 518.186 408.896 L 518.146 407.792 Z" fill="black" fill-rule="evenodd"/>
</svg>
