<svg xmlns="http://www.w3.org/2000/svg" viewBox="0 0 700.000 1000">
  <path d="M 85.024 781.472 L 85.096 782.943 L 85.217 784.411 L 85.385 785.874 L 85.601 787.330 L 85.865 788.779 L 86.176 790.218 L 86.533 791.647 L 86.938 793.063 L 87.388 794.465 L 87.884 795.851 L 88.425 797.221 L 89.011 798.572 L 89.641 799.903 L 90.314 801.213 L 91.029 802.500 L 91.786 803.763 L 92.584 805.001 L 93.422 806.211 L 94.299 807.394 L 95.215 808.548 L 96.167 809.671 L 97.156 810.762 L 98.180 811.820 L 99.238 812.844 L 100.329 813.833 L 101.452 814.785 L 102.606 815.701 L 103.789 816.578 L 104.999 817.416 L 106.237 818.214 L 107.500 818.971 L 108.787 819.686 L 110.097 820.359 L 111.428 820.989 L 112.779 821.575 L 114.149 822.116 L 115.535 822.612 L 116.937 823.062 L 118.353 823.467 L 119.782 823.824 L 121.221 824.135 L 122.670 824.399 L 124.126 824.615 L 125.589 824.783 L 127.057 824.904 L 128.528 824.976 L 130.000 825.000 L 131.472 824.976 L 132.943 824.904 L 134.411 824.783 L 135.874 824.615 L 137.330 824.399 L 138.779 824.135 L 140.218 823.824 L 141.647 823.467 L 143.063 823.062 L 144.465 822.612 L 145.851 822.116 L 147.221 821.575 L 148.572 820.989 L 149.903 820.359 L 151.213 819.686 L 152.500 818.971 L 153.763 818.214 L 155.001 817.416 L 156.211 816.578 L 157.394 815.701 L 158.548 814.785 L 159.671 813.833 L 160.762 812.844 L 161.820 811.820 L 162.844 810.762 L 163.833 809.671 L 164.785 808.548 L 165.701 807.394 L 166.578 806.211 L 167.416 805.001 L 168.214 803.763 L 168.971 802.500 L 169.686 801.213 L 170.359 799.903 L 170.989 798.572 L 171.575 797.221 L 172.116 795.851 L 172.612 794.465 L 173.062 793.063 L 173.467 791.647 L 173.824 790.218 L 174.135 788.779 L 174.399 787.330 L 174.615 785.874 L 174.783 784.411 L 174.904 782.943 L 174.976 781.472 L 175.000 780.000 L 175.000 203.731 L 531.321 802.998 L 531.556 803.379 L 531.786 803.763 L 531.942 804.006 L 532.094 804.252 L 532.341 804.625 L 532.584 805.001 L 532.748 805.238 L 532.908 805.479 L 533.167 805.844 L 533.422 806.211 L 533.594 806.443 L 533.761 806.679 L 534.033 807.035 L 534.299 807.394 L 534.479 807.621 L 534.654 807.850 L 534.936 808.197 L 535.215 808.548 L 535.401 808.768 L 535.584 808.992 L 535.878 809.329 L 536.167 809.671 L 536.361 809.885 L 536.551 810.102 L 536.856 810.430 L 537.156 810.762 L 537.357 810.969 L 537.554 811.181 L 537.869 811.498 L 538.180 811.820 L 538.388 812.021 L 538.591 812.226 L 538.917 812.533 L 539.238 812.844 L 539.452 813.038 L 539.662 813.236 L 539.998 813.532 L 540.329 813.833 L 540.550 814.020 L 540.766 814.211 L 541.111 814.496 L 541.452 814.785 L 541.679 814.965 L 541.901 815.149 L 542.255 815.423 L 542.606 815.701 L 542.838 815.873 L 543.066 816.050 L 543.429 816.312 L 543.789 816.578 L 544.026 816.742 L 544.260 816.912 L 544.631 817.161 L 544.999 817.416 L 545.242 817.573 L 545.482 817.734 L 545.861 817.972 L 546.237 818.214 L 546.485 818.363 L 546.729 818.516 L 547.116 818.741 L 547.500 818.971 L 547.752 819.111 L 548.002 819.257 L 548.396 819.469 L 548.787 819.686 L 549.044 819.818 L 549.298 819.955 L 549.699 820.155 L 550.097 820.359 L 550.358 820.483 L 550.617 820.611 L 551.024 820.798 L 551.428 820.989 L 551.693 821.104 L 551.956 821.224 L 552.369 821.397 L 552.779 821.575 L 553.048 821.681 L 553.314 821.792 L 553.733 821.951 L 554.149 822.116 L 554.421 822.213 L 554.691 822.316 L 555.114 822.461 L 555.535 822.612 L 555.810 822.700 L 556.083 822.794 L 556.511 822.925 L 556.937 823.062 L 557.215 823.142 L 557.491 823.226 L 557.923 823.344 L 558.353 823.467 L 558.633 823.537 L 558.912 823.613 L 559.347 823.716 L 559.782 823.824 L 560.064 823.885 L 560.345 823.952 L 560.784 824.041 L 561.221 824.135 L 561.505 824.187 L 561.788 824.244 L 562.229 824.319 L 562.670 824.399 L 562.955 824.441 L 563.240 824.489 L 563.684 824.549 L 564.126 824.615 L 564.413 824.648 L 564.699 824.687 L 565.145 824.732 L 565.589 824.783 L 565.877 824.807 L 566.164 824.836 L 566.611 824.867 L 567.057 824.904 L 567.345 824.918 L 567.633 824.938 L 568.081 824.954 L 568.528 824.976 L 568.816 824.981 L 569.105 824.991 L 569.553 824.993 L 570.000 825.000 L 570.289 824.995 L 570.578 824.996 L 571.025 824.983 L 571.472 824.976 L 571.761 824.962 L 572.050 824.953 L 572.496 824.926 L 572.943 824.904 L 573.231 824.880 L 573.519 824.862 L 573.965 824.820 L 574.411 824.783 L 574.698 824.750 L 574.985 824.723 L 575.429 824.666 L 575.874 824.615 L 576.159 824.573 L 576.446 824.536 L 576.888 824.465 L 577.330 824.399 L 577.614 824.347 L 577.900 824.301 L 578.339 824.215 L 578.779 824.135 L 579.061 824.074 L 579.345 824.019 L 579.781 823.919 L 580.218 823.824 L 580.499 823.754 L 580.780 823.690 L 581.213 823.575 L 581.647 823.467 L 581.925 823.387 L 582.204 823.314 L 582.633 823.185 L 583.063 823.062 L 583.338 822.974 L 583.614 822.891 L 584.039 822.749 L 584.465 822.612 L 584.737 822.515 L 585.011 822.423 L 585.430 822.267 L 585.851 822.116 L 586.120 822.010 L 586.391 821.909 L 586.805 821.739 L 587.221 821.575 L 587.486 821.460 L 587.753 821.350 L 588.161 821.167 L 588.572 820.989 L 588.833 820.865 L 589.096 820.747 L 589.498 820.551 L 589.903 820.359 L 590.160 820.227 L 590.419 820.100 L 590.815 819.891 L 591.213 819.686 L 591.465 819.546 L 591.721 819.411 L 592.109 819.189 L 592.500 818.971 L 592.748 818.823 L 592.998 818.679 L 593.379 818.444 L 593.763 818.214 L 594.006 818.058 L 594.252 817.906 L 594.625 817.659 L 595.001 817.416 L 595.238 817.252 L 595.479 817.092 L 595.844 816.833 L 596.211 816.578 L 596.443 816.406 L 596.679 816.239 L 597.035 815.967 L 597.394 815.701 L 597.621 815.521 L 597.850 815.346 L 598.197 815.064 L 598.548 814.785 L 598.768 814.599 L 598.992 814.416 L 599.329 814.122 L 599.671 813.833 L 599.885 813.639 L 600.102 813.449 L 600.430 813.144 L 600.762 812.844 L 600.969 812.643 L 601.181 812.446 L 601.498 812.131 L 601.820 811.820 L 602.021 811.612 L 602.226 811.409 L 602.533 811.083 L 602.844 810.762 L 603.038 810.548 L 603.236 810.338 L 603.532 810.002 L 603.833 809.671 L 604.020 809.450 L 604.211 809.234 L 604.496 808.889 L 604.785 808.548 L 604.965 808.321 L 605.149 808.099 L 605.423 807.745 L 605.701 807.394 L 605.873 807.162 L 606.050 806.934 L 606.312 806.571 L 606.578 806.211 L 606.742 805.974 L 606.912 805.740 L 607.161 805.369 L 607.416 805.001 L 607.573 804.758 L 607.734 804.518 L 607.972 804.139 L 608.214 803.763 L 608.363 803.515 L 608.516 803.271 L 608.741 802.884 L 608.971 802.500 L 609.111 802.248 L 609.257 801.998 L 609.469 801.604 L 609.686 801.213 L 609.818 800.956 L 609.955 800.702 L 610.155 800.301 L 610.359 799.903 L 610.483 799.642 L 610.611 799.383 L 610.798 798.976 L 610.989 798.572 L 611.104 798.307 L 611.224 798.044 L 611.397 797.631 L 611.575 797.221 L 611.681 796.952 L 611.792 796.686 L 611.951 796.267 L 612.116 795.851 L 612.213 795.579 L 612.316 795.309 L 612.461 794.886 L 612.612 794.465 L 612.700 794.190 L 612.794 793.917 L 612.925 793.489 L 613.062 793.063 L 613.142 792.785 L 613.226 792.509 L 613.344 792.077 L 613.467 791.647 L 613.537 791.367 L 613.613 791.088 L 613.716 790.653 L 613.824 790.218 L 613.885 789.936 L 613.952 789.655 L 614.041 789.216 L 614.135 788.779 L 614.187 788.495 L 614.244 788.212 L 614.319 787.771 L 614.399 787.330 L 614.441 787.045 L 614.489 786.760 L 614.549 786.316 L 614.615 785.874 L 614.648 785.587 L 614.687 785.301 L 614.732 784.855 L 614.783 784.411 L 614.807 784.123 L 614.836 783.836 L 614.867 783.389 L 614.904 782.943 L 614.918 782.655 L 614.938 782.367 L 614.954 781.919 L 614.976 781.472 L 614.981 781.184 L 614.991 780.895 L 614.993 780.447 L 615.000 780.000 L 615.000 40.000 L 614.976 38.528 L 614.904 37.057 L 614.783 35.589 L 614.615 34.126 L 614.399 32.670 L 614.135 31.221 L 613.824 29.782 L 613.467 28.353 L 613.062 26.937 L 612.612 25.535 L 612.116 24.149 L 611.575 22.779 L 610.989 21.428 L 610.359 20.097 L 609.686 18.787 L 608.971 17.500 L 608.214 16.237 L 607.416 14.999 L 606.578 13.789 L 605.701 12.606 L 604.785 11.452 L 603.833 10.329 L 602.844 9.238 L 601.820 8.180 L 600.762 7.156 L 599.671 6.167 L 598.548 5.215 L 597.394 4.299 L 596.211 3.422 L 595.001 2.584 L 593.763 1.786 L 592.500 1.029 L 591.213 0.314 L 589.903 -0.359 L 588.572 -0.989 L 587.221 -1.575 L 585.851 -2.116 L 584.465 -2.612 L 583.063 -3.062 L 581.647 -3.467 L 580.218 -3.824 L 578.779 -4.135 L 577.330 -4.399 L 575.874 -4.615 L 574.411 -4.783 L 572.943 -4.904 L 571.472 -4.976 L 570.000 -5.000 L 568.528 -4.976 L 567.057 -4.904 L 565.589 -4.783 L 564.126 -4.615 L 562.670 -4.399 L 561.221 -4.135 L 559.782 -3.824 L 558.353 -3.467 L 556.937 -3.062 L 555.535 -2.612 L 554.149 -2.116 L 552.779 -1.575 L 551.428 -0.989 L 550.097 -0.359 L 548.787 0.314 L 547.500 1.029 L 546.237 1.786 L 544.999 2.584 L 543.789 3.422 L 542.606 4.299 L 541.452 5.215 L 540.329 6.167 L 539.238 7.156 L 538.180 8.180 L 537.156 9.238 L 536.167 10.329 L 535.215 11.452 L 534.299 12.606 L 533.422 13.789 L 532.584 14.999 L 531.786 16.237 L 531.029 17.500 L 530.314 18.787 L 529.641 20.097 L 529.011 21.428 L 528.425 22.779 L 527.884 24.149 L 527.388 25.535 L 526.938 26.937 L 526.533 28.353 L 526.176 29.782 L 525.865 31.221 L 525.601 32.670 L 525.385 34.126 L 525.217 35.589 L 525.096 37.057 L 525.024 38.528 L 525.000 40.000 L 525.000 616.269 L 168.679 17.002 L 168.444 16.621 L 168.214 16.237 L 168.058 15.994 L 167.906 15.748 L 167.659 15.375 L 167.416 14.999 L 167.252 14.762 L 167.092 14.521 L 166.833 14.156 L 166.578 13.789 L 166.406 13.557 L 166.239 13.321 L 165.967 12.965 L 165.701 12.606 L 165.521 12.379 L 165.346 12.150 L 165.064 11.803 L 164.785 11.452 L 164.599 11.232 L 164.416 11.008 L 164.122 10.671 L 163.833 10.329 L 163.639 10.115 L 163.449 9.898 L 163.144 9.570 L 162.844 9.238 L 162.643 9.031 L 162.446 8.819 L 162.131 8.502 L 161.820 8.180 L 161.612 7.979 L 161.409 7.774 L 161.083 7.467 L 160.762 7.156 L 160.548 6.962 L 160.338 6.764 L 160.002 6.468 L 159.671 6.167 L 159.450 5.980 L 159.234 5.789 L 158.889 5.504 L 158.548 5.215 L 158.321 5.035 L 158.099 4.851 L 157.745 4.577 L 157.394 4.299 L 157.162 4.127 L 156.934 3.950 L 156.571 3.688 L 156.211 3.422 L 155.974 3.258 L 155.740 3.088 L 155.369 2.839 L 155.001 2.584 L 154.758 2.427 L 154.518 2.266 L 154.139 2.028 L 153.763 1.786 L 153.515 1.637 L 153.271 1.484 L 152.884 1.259 L 152.500 1.029 L 152.248 0.889 L 151.998 0.743 L 151.604 0.531 L 151.213 0.314 L 150.956 0.182 L 150.702 0.045 L 150.301 -0.155 L 149.903 -0.359 L 149.642 -0.483 L 149.383 -0.611 L 148.976 -0.798 L 148.572 -0.989 L 148.307 -1.104 L 148.044 -1.224 L 147.631 -1.397 L 147.221 -1.575 L 146.952 -1.681 L 146.686 -1.792 L 146.267 -1.951 L 145.851 -2.116 L 145.579 -2.213 L 145.309 -2.316 L 144.886 -2.461 L 144.465 -2.612 L 144.190 -2.700 L 143.917 -2.794 L 143.489 -2.925 L 143.063 -3.062 L 142.785 -3.142 L 142.509 -3.226 L 142.077 -3.344 L 141.647 -3.467 L 141.367 -3.537 L 141.088 -3.613 L 140.653 -3.716 L 140.218 -3.824 L 139.936 -3.885 L 139.655 -3.952 L 139.216 -4.041 L 138.779 -4.135 L 138.495 -4.187 L 138.212 -4.244 L 137.771 -4.319 L 137.330 -4.399 L 137.045 -4.441 L 136.760 -4.489 L 136.316 -4.549 L 135.874 -4.615 L 135.587 -4.648 L 135.301 -4.687 L 134.855 -4.732 L 134.411 -4.783 L 134.123 -4.807 L 133.836 -4.836 L 133.389 -4.867 L 132.943 -4.904 L 132.655 -4.918 L 132.367 -4.938 L 131.919 -4.954 L 131.472 -4.976 L 131.184 -4.981 L 130.895 -4.991 L 130.447 -4.993 L 130.000 -5.000 L 129.711 -4.995 L 129.422 -4.996 L 128.975 -4.983 L 128.528 -4.976 L 128.239 -4.962 L 127.950 -4.953 L 127.504 -4.926 L 127.057 -4.904 L 126.769 -4.880 L 126.481 -4.862 L 126.035 -4.820 L 125.589 -4.783 L 125.302 -4.750 L 125.015 -4.723 L 124.571 -4.666 L 124.126 -4.615 L 123.841 -4.573 L 123.554 -4.536 L 123.112 -4.465 L 122.670 -4.399 L 122.386 -4.347 L 122.100 -4.301 L 121.661 -4.215 L 121.221 -4.135 L 120.939 -4.074 L 120.655 -4.019 L 120.219 -3.919 L 119.782 -3.824 L 119.501 -3.754 L 119.220 -3.690 L 118.787 -3.575 L 118.353 -3.467 L 118.075 -3.387 L 117.796 -3.314 L 117.367 -3.185 L 116.937 -3.062 L 116.662 -2.974 L 116.386 -2.891 L 115.961 -2.749 L 115.535 -2.612 L 115.263 -2.515 L 114.989 -2.423 L 114.570 -2.267 L 114.149 -2.116 L 113.880 -2.010 L 113.609 -1.909 L 113.195 -1.739 L 112.779 -1.575 L 112.514 -1.460 L 112.247 -1.350 L 111.839 -1.167 L 111.428 -0.989 L 111.167 -0.865 L 110.904 -0.747 L 110.502 -0.551 L 110.097 -0.359 L 109.840 -0.227 L 109.581 -0.100 L 109.185 0.109 L 108.787 0.314 L 108.535 0.454 L 108.279 0.589 L 107.891 0.811 L 107.500 1.029 L 107.252 1.177 L 107.002 1.321 L 106.621 1.556 L 106.237 1.786 L 105.994 1.942 L 105.748 2.094 L 105.375 2.341 L 104.999 2.584 L 104.762 2.748 L 104.521 2.908 L 104.156 3.167 L 103.789 3.422 L 103.557 3.594 L 103.321 3.761 L 102.965 4.033 L 102.606 4.299 L 102.379 4.479 L 102.150 4.654 L 101.803 4.936 L 101.452 5.215 L 101.232 5.401 L 101.008 5.584 L 100.671 5.878 L 100.329 6.167 L 100.115 6.361 L 99.898 6.551 L 99.570 6.856 L 99.238 7.156 L 99.031 7.357 L 98.819 7.554 L 98.502 7.869 L 98.180 8.180 L 97.979 8.388 L 97.774 8.591 L 97.467 8.917 L 97.156 9.238 L 96.962 9.452 L 96.764 9.662 L 96.468 9.998 L 96.167 10.329 L 95.980 10.550 L 95.789 10.766 L 95.504 11.111 L 95.215 11.452 L 95.035 11.679 L 94.851 11.901 L 94.577 12.255 L 94.299 12.606 L 94.127 12.838 L 93.950 13.066 L 93.688 13.429 L 93.422 13.789 L 93.258 14.026 L 93.088 14.260 L 92.839 14.631 L 92.584 14.999 L 92.427 15.242 L 92.266 15.482 L 92.028 15.861 L 91.786 16.237 L 91.637 16.485 L 91.484 16.729 L 91.259 17.116 L 91.029 17.500 L 90.889 17.752 L 90.743 18.002 L 90.531 18.396 L 90.314 18.787 L 90.182 19.044 L 90.045 19.298 L 89.845 19.699 L 89.641 20.097 L 89.517 20.358 L 89.389 20.617 L 89.202 21.024 L 89.011 21.428 L 88.896 21.693 L 88.776 21.956 L 88.603 22.369 L 88.425 22.779 L 88.319 23.048 L 88.208 23.314 L 88.049 23.733 L 87.884 24.149 L 87.787 24.421 L 87.684 24.691 L 87.539 25.114 L 87.388 25.535 L 87.300 25.810 L 87.206 26.083 L 87.075 26.511 L 86.938 26.937 L 86.858 27.215 L 86.774 27.491 L 86.656 27.923 L 86.533 28.353 L 86.463 28.633 L 86.387 28.912 L 86.284 29.347 L 86.176 29.782 L 86.115 30.064 L 86.048 30.345 L 85.959 30.784 L 85.865 31.221 L 85.813 31.505 L 85.756 31.788 L 85.681 32.229 L 85.601 32.670 L 85.559 32.955 L 85.511 33.240 L 85.451 33.684 L 85.385 34.126 L 85.352 34.413 L 85.313 34.699 L 85.268 35.145 L 85.217 35.589 L 85.193 35.877 L 85.164 36.164 L 85.133 36.611 L 85.096 37.057 L 85.082 37.345 L 85.062 37.633 L 85.046 38.081 L 85.024 38.528 L 85.019 38.816 L 85.009 39.105 L 85.007 39.553 L 85.000 40.000 L 85.000 780.000 L 85.024 781.472 Z" fill="black" fill-rule="evenodd"/>
</svg>
