<svg xmlns="http://www.w3.org/2000/svg" viewBox="0 0 700.000 1000">
  <path d="M 85.024 781.472 L 85.096 782.943 L 85.217 784.411 L 85.385 785.874 L 85.601 787.330 L 85.865 788.779 L 86.176 790.218 L 86.533 791.647 L 86.938 793.063 L 87.388 794.465 L 87.884 795.851 L 88.425 797.221 L 89.011 798.572 L 89.641 799.903 L 90.314 801.213 L 91.029 802.500 L 91.786 803.763 L 92.584 805.001 L 93.422 806.211 L 94.299 807.394 L 95.215 808.548 L 96.167 809.671 L 97.156 810.762 L 98.180 811.820 L 99.238 812.844 L 100.329 813.833 L 101.452 814.785 L 102.606 815.701 L 103.789 816.578 L 104.999 817.416 L 106.237 818.214 L 107.500 818.971 L 108.787 819.686 L 110.097 820.359 L 111.428 820.989 L 112.779 821.575 L 114.149 822.116 L 115.535 822.612 L 116.937 823.062 L 118.353 823.467 L 119.782 823.824 L 121.221 824.135 L 122.670 824.399 L 124.126 824.615 L 125.589 824.783 L 127.057 824.904 L 128.528 824.976 L 130.000 825.000 L 131.472 824.976 L 132.943 824.904 L 134.411 824.783 L 135.874 824.615 L 137.330 824.399 L 138.779 824.135 L 140.218 823.824 L 141.647 823.467 L 143.063 823.062 L 144.465 822.612 L 145.851 822.116 L 147.221 821.575 L 148.572 820.989 L 149.903 820.359 L 151.213 819.686 L 152.500 818.971 L 153.763 818.214 L 155.001 817.416 L 156.211 816.578 L 157.394 815.701 L 158.548 814.785 L 159.671 813.833 L 160.762 812.844 L 161.820 811.820 L 162.844 810.762 L 163.833 809.671 L 164.785 808.548 L 165.701 807.394 L 166.578 806.211 L 167.416 805.001 L 168.214 803.763 L 168.971 802.500 L 169.686 801.213 L 170.359 799.903 L 170.989 798.572 L 171.575 797.221 L 172.116 795.851 L 172.612 794.465 L 173.062 793.063 L 173.467 791.647 L 173.824 790.218 L 174.135 788.779 L 174.399 787.330 L 174.615 785.874 L 174.783 784.411 L 174.904 782.943 L 174.976 781.472 L 175.000 780.000 L 175.000 455.000 L 525.000 455.000 L 525.000 780.000 L 525.024 781.472 L 525.096 782.943 L 525.217 784.411 L 525.385 785.874 L 525.601 787.330 L 525.865 788.779 L 526.176 790.218 L 526.533 791.647 L 526.938 793.063 L 527.388 794.465 L 527.884 795.851 L 528.425 797.221 L 529.011 798.572 L 529.641 799.903 L 530.314 801.213 L 531.029 802.500 L 531.786 803.763 L 532.584 805.001 L 533.422 806.211 L 534.299 807.394 L 535.215 808.548 L 536.167 809.671 L 537.156 810.762 L 538.180 811.820 L 539.238 812.844 L 540.329 813.833 L 541.452 814.785 L 542.606 815.701 L 543.789 816.578 L 544.999 817.416 L 546.237 818.214 L 547.500 818.971 L 548.787 819.686 L 550.097 820.359 L 551.428 820.989 L 552.779 821.575 L 554.149 822.116 L 555.535 822.612 L 556.937 823.062 L 558.353 823.467 L 559.782 823.824 L 561.221 824.135 L 562.670 824.399 L 564.126 824.615 L 565.589 824.783 L 567.057 824.904 L 568.528 824.976 L 570.000 825.000 L 571.472 824.976 L 572.943 824.904 L 574.411 824.783 L 575.874 824.615 L 577.330 824.399 L 578.779 824.135 L 580.218 823.824 L 581.647 823.467 L 583.063 823.062 L 584.465 822.612 L 585.851 822.116 L 587.221 821.575 L 588.572 820.989 L 589.903 820.359 L 591.213 819.686 L 592.500 818.971 L 593.763 818.214 L 595.001 817.416 L 596.211 816.578 L 597.394 815.701 L 598.548 814.785 L 599.671 813.833 L 600.762 812.844 L 601.820 811.820 L 602.844 810.762 L 603.833 809.671 L 604.785 808.548 L 605.701 807.394 L 606.578 806.211 L 607.416 805.001 L 608.214 803.763 L 608.971 802.500 L 609.686 801.213 L 610.359 799.903 L 610.989 798.572 L 611.575 797.221 L 612.116 795.851 L 612.612 794.465 L 613.062 793.063 L 613.467 791.647 L 613.824 790.218 L 614.135 788.779 L 614.399 787.330 L 614.615 785.874 L 614.783 784.411 L 614.904 782.943 L 614.976 781.472 L 615.000 780.000 L 615.000 410.000 L 615.000 40.000 L 614.976 38.528 L 614.904 37.057 L 614.783 35.589 L 614.615 34.126 L 614.399 32.670 L 614.135 31.221 L 613.824 29.782 L 613.467 28.353 L 613.062 26.937 L 612.612 25.535 L 612.116 24.149 L 611.575 22.779 L 610.989 21.428 L 610.359 20.097 L 609.686 18.787 L 608.971 17.500 L 608.214 16.237 L 607.416 14.999 L 606.578 13.789 L 605.701 12.606 L 604.785 11.452 L 603.833 10.329 L 602.844 9.238 L 601.820 8.180 L 600.762 7.156 L 599.671 6.167 L 598.548 5.215 L 597.394 4.299 L 596.211 3.422 L 595.001 2.584 L 593.763 1.786 L 592.500 1.029 L 591.213 0.314 L 589.903 -0.359 L 588.572 -0.989 L 587.221 -1.575 L 585.851 -2.116 L 584.465 -2.612 L 583.063 -3.062 L 581.647 -3.467 L 580.218 -3.824 L 578.779 -4.135 L 577.330 -4.399 L 575.874 -4.615 L 574.411 -4.783 L 572.943 -4.904 L 571.472 -4.976 L 570.000 -5.000 L 568.528 -4.976 L 567.057 -4.904 L 565.589 -4.783 L 564.126 -4.615 L 562.670 -4.399 L 561.221 -4.135 L 559.782 -3.824 L 558.353 -3.467 L 556.937 -3.062 L 555.535 -2.612 L 554.149 -2.116 L 552.779 -1.575 L 551.428 -0.989 L 550.097 -0.359 L 548.787 0.314 L 547.500 1.029 L 546.237 1.786 L 544.999 2.584 L 543.789 3.422 L 542.606 4.299 L 541.452 5.215 L 540.329 6.167 L 539.238 7.156 L 538.180 8.180 L 537.156 9.238 L 536.167 10.329 L 535.215 11.452 L 534.299 12.606 L 533.422 13.789 L 532.584 14.999 L 531.786 16.237 L 531.029 17.500 L 530.314 18.787 L 529.641 20.097 L 529.011 21.428 L 528.425 22.779 L 527.884 24.149 L 527.388 25.535 L 526.938 26.937 L 526.533 28.353 L 526.176 29.782 L 525.865 31.221 L 525.601 32.670 L 525.385 34.126 L 525.217 35.589 L 525.096 37.057 L 525.024 38.528 L 525.000 40.000 L 525.000 365.000 L 175.000 365.000 L 175.000 40.000 L 174.976 38.528 L 174.904 37.057 L 174.783 35.589 L 174.615 34.126 L 174.399 32.670 L 174.135 31.221 L 173.824 29.782 L 173.467 28.353 L 173.062 26.937 L 172.612 25.535 L 172.116 24.149 L 171.575 22.779 L 170.989 21.428 L 170.359 20.097 L 169.686 18.787 L 168.971 17.500 L 168.214 16.237 L 167.416 14.999 L 166.578 13.789 L 165.701 12.606 L 164.785 11.452 L 163.833 10.329 L 162.844 9.238 L 161.820 8.180 L 160.762 7.156 L 159.671 6.167 L 158.548 5.215 L 157.394 4.299 L 156.211 3.422 L 155.001 2.584 L 153.763 1.786 L 152.500 1.029 L 151.213 0.314 L 149.903 -0.359 L 148.572 -0.989 L 147.221 -1.575 L 145.851 -2.116 L 144.465 -2.612 L 143.063 -3.062 L 141.647 -3.467 L 140.218 -3.824 L 138.779 -4.135 L 137.330 -4.399 L 135.874 -4.615 L 134.411 -4.783 L 132.943 -4.904 L 131.472 -4.976 L 130.000 -5.000 L 128.528 -4.976 L 127.057 -4.904 L 125.589 -4.783 L 124.126 -4.615 L 122.670 -4.399 L 121.221 -4.135 L 119.782 -3.824 L 118.353 -3.467 L 116.937 -3.062 L 115.535 -2.612 L 114.149 -2.116 L 112.779 -1.575 L 111.428 -0.989 L 110.097 -0.359 L 108.787 0.314 L 107.500 1.029 L 106.237 1.786 L 104.999 2.584 L 103.789 3.422 L 102.606 4.299 L 101.452 5.215 L 100.329 6.167 L 99.238 7.156 L 98.180 8.180 L 97.156 9.238 L 96.167 10.329 L 95.215 11.452 L 94.299 12.606 L 93.422 13.789 L 92.584 14.999 L 91.786 16.237 L 91.029 17.500 L 90.314 18.787 L 89.641 20.097 L 89.011 21.428 L 88.425 22.779 L 87.884 24.149 L 87.388 25.535 L 86.938 26.937 L 86.533 28.353 L 86.176 29.782 L 85.865 31.221 L 85.601 32.670 L 85.385 34.126 L 85.217 35.589 L 85.096 37.057 L 85.024 38.528 L 85.000 40.000 L 85.000 410.000 L 85.000 780.000 L 85.024 781.472 Z" fill="black" fill-rule="evenodd"/>
</svg>
