<svg xmlns="http://www.w3.org/2000/svg" viewBox="0 0 700.000 1000">
  <path d="M 600.073 73.475 L 601.153 72.473 L 602.198 71.437 L 603.210 70.366 L 604.185 69.263 L 605.125 68.129 L 606.026 66.965 L 606.889 65.772 L 607.713 64.551 L 608.496 63.304 L 609.238 62.032 L 609.938 60.736 L 610.595 59.419 L 611.208 58.080 L 611.778 56.722 L 612.302 55.346 L 612.782 53.954 L 613.216 52.546 L 613.603 51.126 L 613.944 49.693 L 614.237 48.250 L 614.484 46.798 L 614.682 45.339 L 614.833 43.874 L 614.936 42.405 L 614.990 40.934 L 614.997 39.461 L 614.955 37.989 L 614.865 36.520 L 614.727 35.054 L 614.542 33.593 L 614.308 32.139 L 614.027 30.693 L 613.699 29.258 L 613.324 27.834 L 612.903 26.423 L 612.436 25.026 L 611.923 23.646 L 611.365 22.283 L 610.764 20.939 L 610.118 19.615 L 609.430 18.314 L 608.699 17.035 L 607.927 15.781 L 607.114 14.553 L 606.262 13.353 L 605.370 12.180 L 604.441 11.038 L 603.475 9.927 L 602.473 8.847 L 601.437 7.802 L 600.366 6.790 L 599.263 5.815 L 598.129 4.875 L 596.965 3.974 L 595.772 3.111 L 594.551 2.287 L 593.304 1.504 L 592.032 0.762 L 590.736 0.062 L 589.419 -0.595 L 588.080 -1.208 L 586.722 -1.778 L 585.346 -2.302 L 583.954 -2.782 L 582.546 -3.216 L 581.126 -3.603 L 579.693 -3.944 L 578.250 -4.237 L 576.798 -4.484 L 575.339 -4.682 L 573.874 -4.833 L 572.405 -4.936 L 570.934 -4.990 L 569.461 -4.997 L 567.989 -4.955 L 566.520 -4.865 L 565.054 -4.727 L 563.593 -4.542 L 562.139 -4.308 L 560.693 -4.027 L 559.258 -3.699 L 557.834 -3.324 L 556.423 -2.903 L 555.026 -2.436 L 553.646 -1.923 L 552.283 -1.365 L 550.939 -0.764 L 549.615 -0.118 L 548.314 0.570 L 547.035 1.301 L 545.781 2.073 L 544.553 2.886 L 543.353 3.738 L 542.180 4.630 L 541.038 5.559 L 175.000 313.363 L 175.000 40.000 L 174.976 38.528 L 174.904 37.057 L 174.783 35.589 L 174.615 34.126 L 174.399 32.670 L 174.135 31.221 L 173.824 29.782 L 173.467 28.353 L 173.062 26.937 L 172.612 25.535 L 172.116 24.149 L 171.575 22.779 L 170.989 21.428 L 170.359 20.097 L 169.686 18.787 L 168.971 17.500 L 168.214 16.237 L 167.416 14.999 L 166.578 13.789 L 165.701 12.606 L 164.785 11.452 L 163.833 10.329 L 162.844 9.238 L 161.820 8.180 L 160.762 7.156 L 159.671 6.167 L 158.548 5.215 L 157.394 4.299 L 156.211 3.422 L 155.001 2.584 L 153.763 1.786 L 152.500 1.029 L 151.213 0.314 L 149.903 -0.359 L 148.572 -0.989 L 147.221 -1.575 L 145.851 -2.116 L 144.465 -2.612 L 143.063 -3.062 L 141.647 -3.467 L 140.218 -3.824 L 138.779 -4.135 L 137.330 -4.399 L 135.874 -4.615 L 134.411 -4.783 L 132.943 -4.904 L 131.472 -4.976 L 130.000 -5.000 L 128.528 -4.976 L 127.057 -4.904 L 125.589 -4.783 L 124.126 -4.615 L 122.670 -4.399 L 121.221 -4.135 L 119.782 -3.824 L 118.353 -3.467 L 116.937 -3.062 L 115.535 -2.612 L 114.149 -2.116 L 112.779 -1.575 L 111.428 -0.989 L 110.097 -0.359 L 108.787 0.314 L 107.500 1.029 L 106.237 1.786 L 104.999 2.584 L 103.789 3.422 L 102.606 4.299 L 101.452 5.215 L 100.329 6.167 L 99.238 7.156 L 98.180 8.180 L 97.156 9.238 L 96.167 10.329 L 95.215 11.452 L 94.299 12.606 L 93.422 13.789 L 92.584 14.999 L 91.786 16.237 L 91.029 17.500 L 90.314 18.787 L 89.641 20.097 L 89.011 21.428 L 88.425 22.779 L 87.884 24.149 L 87.388 25.535 L 86.938 26.937 L 86.533 28.353 L 86.176 29.782 L 85.865 31.221 L 85.601 32.670 L 85.385 34.126 L 85.217 35.589 L 85.096 37.057 L 85.024 38.528 L 85.000 40.000 L 85.000 780.000 L 85.024 781.472 L 85.096 782.943 L 85.217 784.411 L 85.385 785.874 L 85.601 787.330 L 85.865 788.779 L 86.176 790.218 L 86.533 791.647 L 86.938 793.063 L 87.388 794.465 L 87.884 795.851 L 88.425 797.221 L 89.011 798.572 L 89.641 799.903 L 90.314 801.213 L 91.029 802.500 L 91.786 803.763 L 92.584 805.001 L 93.422 806.211 L 94.299 807.394 L 95.215 808.548 L 96.167 809.671 L 97.156 810.762 L 98.180 811.820 L 99.238 812.844 L 100.329 813.833 L 101.452 814.785 L 102.606 815.701 L 103.789 816.578 L 104.999 817.416 L 106.237 818.214 L 107.500 818.971 L 108.787 819.686 L 110.097 820.359 L 111.428 820.989 L 112.779 821.575 L 114.149 822.116 L 115.535 822.612 L 116.937 823.062 L 118.353 823.467 L 119.782 823.824 L 121.221 824.135 L 122.670 824.399 L 124.126 824.615 L 125.589 824.783 L 127.057 824.904 L 128.528 824.976 L 130.000 825.000 L 131.472 824.976 L 132.943 824.904 L 134.411 824.783 L 135.874 824.615 L 137.330 824.399 L 138.779 824.135 L 140.218 823.824 L 141.647 823.467 L 143.063 823.062 L 144.465 822.612 L 145.851 822.116 L 147.221 821.575 L 148.572 820.989 L 149.903 820.359 L 151.213 819.686 L 152.500 818.971 L 153.763 818.214 L 155.001 817.416 L 156.211 816.578 L 157.394 815.701 L 158.548 814.785 L 159.671 813.833 L 160.762 812.844 L 161.820 811.820 L 162.844 810.762 L 163.833 809.671 L 164.785 808.548 L 165.701 807.394 L 166.578 806.211 L 167.416 805.001 L 168.214 803.763 L 168.971 802.500 L 169.686 801.213 L 170.359 799.903 L 170.989 798.572 L 171.575 797.221 L 172.116 795.851 L 172.612 794.465 L 173.062 793.063 L 173.467 791.647 L 173.824 790.218 L 174.135 788.779 L 174.399 787.330 L 174.615 785.874 L 174.783 784.411 L 174.904 782.943 L 174.976 781.472 L 175.000 780.000 L 175.000 506.637 L 541.038 814.441 L 542.180 815.370 L 543.353 816.262 L 544.553 817.114 L 545.781 817.927 L 547.035 818.699 L 548.314 819.430 L 549.615 820.118 L 550.939 820.764 L 552.283 821.365 L 553.646 821.923 L 555.026 822.436 L 556.423 822.903 L 557.834 823.324 L 559.258 823.699 L 560.693 824.027 L 562.139 824.308 L 563.593 824.542 L 565.054 824.727 L 566.520 824.865 L 567.989 824.955 L 569.461 824.997 L 570.934 824.990 L 572.405 824.936 L 573.874 824.833 L 575.339 824.682 L 576.798 824.484 L 578.250 824.237 L 579.693 823.944 L 581.126 823.603 L 582.546 823.216 L 583.954 822.782 L 585.346 822.302 L 586.722 821.778 L 588.080 821.208 L 589.419 820.595 L 590.736 819.938 L 592.032 819.238 L 593.304 818.496 L 594.551 817.713 L 595.772 816.889 L 596.965 816.026 L 598.129 815.125 L 599.263 814.185 L 600.366 813.210 L 601.437 812.198 L 602.473 811.153 L 603.475 810.073 L 604.441 808.962 L 605.370 807.820 L 606.262 806.647 L 607.114 805.447 L 607.927 804.219 L 608.699 802.965 L 609.430 801.686 L 610.118 800.385 L 610.764 799.061 L 611.365 797.717 L 611.923 796.354 L 612.436 794.974 L 612.903 793.577 L 613.324 792.166 L 613.699 790.742 L 614.027 789.307 L 614.308 787.861 L 614.542 786.407 L 614.727 784.946 L 614.865 783.480 L 614.955 782.011 L 614.997 780.539 L 614.990 779.066 L 614.936 777.595 L 614.833 776.126 L 614.682 774.661 L 614.484 773.202 L 614.237 771.750 L 613.944 770.307 L 613.603 768.874 L 613.216 767.454 L 612.782 766.046 L 612.302 764.654 L 611.778 763.278 L 611.208 761.920 L 610.595 760.581 L 609.938 759.264 L 609.238 757.968 L 608.496 756.696 L 607.713 755.449 L 606.889 754.228 L 606.026 753.035 L 605.125 751.871 L 604.185 750.737 L 603.210 749.634 L 602.198 748.563 L 601.153 747.527 L 600.073 746.525 L 598.962 745.559 L 199.919 410.000 L 598.962 74.441 L 600.073 73.475 Z" fill="black" fill-rule="evenodd"/>
</svg>
