<svg xmlns="http://www.w3.org/2000/svg" viewBox="0 0 700.000 1000">
  <path d="M 320.000 -5.000 L 130.000 -5.000 L 128.528 -4.976 L 127.057 -4.904 L 125.589 -4.783 L 124.126 -4.615 L 122.670 -4.399 L 121.221 -4.135 L 119.782 -3.824 L 119.782 -3.824 L 118.353 -3.467 L 116.937 -3.062 L 116.436 -2.901 L 115.535 -2.612 L 114.763 -2.335 L 114.149 -2.116 L 112.779 -1.575 L 111.428 -0.989 L 110.097 -0.359 L 108.787 0.314 L 107.500 1.029 L 106.237 1.786 L 104.999 2.584 L 103.789 3.422 L 102.606 4.299 L 102.606 4.299 L 102.606 4.299 L 101.452 5.215 L 100.329 6.167 L 99.238 7.156 L 98.549 7.824 L 98.180 8.180 L 97.156 9.238 L 96.167 10.329 L 95.215 11.452 L 94.670 12.139 L 94.299 12.606 L 93.422 13.789 L 92.584 14.999 L 91.786 16.237 L 91.369 16.932 L 91.029 17.500 L 90.314 18.787 L 89.641 20.097 L 89.011 21.428 L 88.821 21.867 L 88.425 22.779 L 88.045 23.743 L 87.884 24.149 L 87.388 25.535 L 87.223 26.050 L 86.938 26.937 L 86.533 28.353 L 86.176 29.782 L 85.918 30.974 L 85.865 31.221 L 85.601 32.670 L 85.563 32.923 L 85.385 34.126 L 85.217 35.589 L 85.101 36.997 L 85.096 37.057 L 85.024 38.528 L 85.000 40.000 L 85.000 40.000 L 85.000 780.000 L 85.024 781.472 L 85.096 782.943 L 85.217 784.411 L 85.385 785.874 L 85.601 787.330 L 85.865 788.779 L 86.176 790.218 L 86.533 791.647 L 86.938 793.063 L 87.388 794.465 L 87.884 795.851 L 88.425 797.221 L 89.011 798.572 L 89.641 799.903 L 90.314 801.213 L 91.029 802.500 L 91.786 803.763 L 92.584 805.001 L 93.422 806.211 L 94.299 807.394 L 95.215 808.548 L 96.167 809.671 L 97.156 810.762 L 98.180 811.820 L 99.238 812.844 L 100.329 813.833 L 101.452 814.785 L 102.606 815.701 L 103.789 816.578 L 104.999 817.416 L 106.237 818.214 L 107.500 818.971 L 108.787 819.686 L 110.097 820.359 L 111.428 820.989 L 112.779 821.575 L 114.149 822.116 L 115.535 822.612 L 116.937 823.062 L 118.353 823.467 L 119.782 823.824 L 121.221 824.135 L 122.670 824.399 L 124.126 824.615 L 125.589 824.783 L 127.057 824.904 L 128.528 824.976 L 130.000 825.000 L 320.000 825.000 L 320.254 824.996 L 320.509 824.997 L 328.870 824.903 L 329.887 824.880 L 338.245 824.596 L 339.261 824.550 L 347.610 824.078 L 348.624 824.009 L 356.961 823.348 L 357.973 823.256 L 366.293 822.407 L 367.303 822.293 L 375.601 821.256 L 376.609 821.118 L 384.881 819.894 L 385.885 819.734 L 394.128 818.323 L 395.128 818.140 L 403.337 816.544 L 404.333 816.338 L 412.503 814.557 L 413.494 814.329 L 421.622 812.363 L 422.608 812.113 L 430.689 809.963 L 431.669 809.691 L 439.700 807.360 L 440.674 807.065 L 448.650 804.553 L 449.616 804.237 L 457.533 801.545 L 458.493 801.207 L 466.347 798.337 L 467.298 797.977 L 475.086 794.930 L 476.029 794.549 L 483.745 791.327 L 484.679 790.925 L 492.321 787.529 L 493.246 787.106 L 500.809 783.538 L 501.724 783.094 L 509.205 779.357 L 510.110 778.892 L 517.504 774.986 L 518.398 774.501 L 525.702 770.430 L 526.585 769.925 L 533.795 765.689 L 534.666 765.164 L 541.779 760.766 L 542.638 760.222 L 549.649 755.665 L 550.496 755.101 L 557.402 750.387 L 558.236 749.804 L 565.034 744.934 L 565.854 744.333 L 572.541 739.311 L 573.347 738.691 L 579.919 733.520 L 580.711 732.882 L 587.164 727.563 L 587.941 726.908 L 594.272 721.444 L 595.035 720.771 L 601.241 715.166 L 601.988 714.476 L 608.066 708.733 L 608.797 708.026 L 614.743 702.146 L 615.458 701.423 L 621.270 695.410 L 621.969 694.671 L 627.643 688.529 L 628.325 687.774 L 633.859 681.505 L 634.524 680.735 L 639.915 674.343 L 640.562 673.558 L 645.807 667.046 L 646.436 666.246 L 651.533 659.617 L 652.144 658.804 L 657.090 652.061 L 657.682 651.234 L 662.474 644.381 L 663.048 643.541 L 667.684 636.581 L 668.238 635.728 L 672.715 628.666 L 673.250 627.801 L 677.567 620.639 L 678.082 619.762 L 682.236 612.504 L 682.731 611.616 L 686.720 604.266 L 687.195 603.367 L 691.017 595.929 L 691.471 595.019 L 695.124 587.497 L 695.558 586.577 L 699.039 578.974 L 699.452 578.044 L 702.761 570.364 L 703.153 569.426 L 706.288 561.673 L 706.658 560.726 L 709.617 552.905 L 709.966 551.949 L 712.747 544.063 L 713.074 543.100 L 715.676 535.153 L 715.982 534.183 L 718.404 526.179 L 718.687 525.202 L 720.927 517.145 L 721.189 516.163 L 723.246 508.057 L 723.485 507.069 L 725.359 498.919 L 725.576 497.925 L 727.265 489.736 L 727.460 488.737 L 728.963 480.511 L 729.135 479.509 L 730.452 471.251 L 730.601 470.245 L 731.732 461.959 L 731.858 460.950 L 732.801 452.641 L 732.904 451.629 L 733.659 443.301 L 733.740 442.287 L 734.306 433.944 L 734.364 432.929 L 734.741 424.575 L 734.776 423.558 L 734.965 415.198 L 734.976 414.181 L 734.976 405.819 L 734.965 404.802 L 734.776 396.442 L 734.741 395.425 L 734.364 387.071 L 734.306 386.056 L 733.740 377.713 L 733.659 376.699 L 732.904 368.371 L 732.801 367.359 L 731.858 359.050 L 731.732 358.041 L 730.601 349.755 L 730.452 348.749 L 729.135 340.491 L 728.963 339.489 L 727.460 331.263 L 727.265 330.264 L 725.576 322.075 L 725.359 321.081 L 723.485 312.931 L 723.246 311.943 L 721.189 303.837 L 720.927 302.855 L 718.687 294.798 L 718.404 293.821 L 715.982 285.817 L 715.676 284.847 L 713.074 276.900 L 712.747 275.937 L 709.966 268.051 L 709.617 267.095 L 706.658 259.274 L 706.288 258.327 L 703.153 250.574 L 702.761 249.636 L 699.452 241.956 L 699.039 241.026 L 695.558 233.423 L 695.124 232.503 L 691.471 224.981 L 691.017 224.071 L 687.195 216.633 L 686.720 215.734 L 682.731 208.384 L 682.236 207.496 L 678.082 200.238 L 677.567 199.361 L 673.250 192.199 L 672.715 191.334 L 668.238 184.272 L 667.684 183.419 L 663.048 176.459 L 662.474 175.619 L 657.682 168.766 L 657.090 167.939 L 652.144 161.196 L 651.533 160.383 L 646.436 153.754 L 645.807 152.954 L 640.562 146.442 L 639.915 145.657 L 634.524 139.265 L 633.859 138.495 L 628.325 132.226 L 627.643 131.471 L 621.969 125.329 L 621.270 124.590 L 615.458 118.577 L 614.743 117.854 L 608.797 111.974 L 608.066 111.267 L 601.988 105.524 L 601.241 104.834 L 595.035 99.229 L 594.272 98.556 L 587.941 93.092 L 587.164 92.437 L 580.711 87.118 L 579.919 86.480 L 573.347 81.309 L 572.541 80.689 L 565.854 75.667 L 565.034 75.066 L 558.236 70.196 L 557.402 69.613 L 550.496 64.899 L 549.649 64.335 L 542.638 59.778 L 541.779 59.234 L 534.666 54.836 L 533.795 54.311 L 526.585 50.075 L 525.702 49.570 L 518.398 45.499 L 517.504 45.014 L 510.110 41.108 L 509.205 40.643 L 501.724 36.906 L 500.809 36.462 L 493.246 32.894 L 492.321 32.471 L 484.679 29.075 L 483.745 28.673 L 476.029 25.451 L 475.086 25.070 L 467.298 22.023 L 466.347 21.663 L 458.493 18.793 L 457.533 18.455 L 449.616 15.763 L 448.650 15.447 L 440.674 12.935 L 439.700 12.640 L 431.669 10.309 L 430.689 10.037 L 422.608 7.887 L 421.622 7.637 L 413.494 5.671 L 412.503 5.443 L 404.333 3.662 L 403.337 3.456 L 395.128 1.860 L 394.128 1.677 L 385.885 0.266 L 384.881 0.106 L 376.609 -1.118 L 375.601 -1.256 L 367.303 -2.293 L 366.293 -2.407 L 357.973 -3.256 L 356.961 -3.348 L 348.624 -4.009 L 347.610 -4.078 L 339.261 -4.550 L 338.245 -4.596 L 329.887 -4.880 L 328.870 -4.903 L 320.509 -4.997 L 320.254 -4.996 L 320.000 -5.000 Z M 175.000 85.000 L 319.746 85.000 L 327.345 85.086 L 334.686 85.335 L 342.019 85.750 L 349.342 86.330 L 356.649 87.076 L 363.937 87.987 L 371.203 89.062 L 378.443 90.301 L 385.654 91.703 L 392.830 93.268 L 399.969 94.995 L 407.068 96.883 L 414.122 98.931 L 421.128 101.137 L 428.082 103.501 L 434.981 106.022 L 441.822 108.698 L 448.600 111.529 L 455.312 114.511 L 461.956 117.645 L 468.526 120.927 L 475.021 124.358 L 481.437 127.934 L 487.771 131.655 L 494.018 135.517 L 500.177 139.520 L 506.244 143.661 L 512.215 147.938 L 518.088 152.349 L 523.861 156.891 L 529.529 161.563 L 535.090 166.362 L 540.541 171.285 L 545.879 176.330 L 551.102 181.494 L 556.208 186.776 L 561.192 192.171 L 566.053 197.677 L 570.789 203.292 L 575.396 209.013 L 579.873 214.836 L 584.217 220.759 L 588.427 226.778 L 592.499 232.891 L 596.432 239.095 L 600.224 245.386 L 603.872 251.761 L 607.376 258.216 L 610.733 264.750 L 613.941 271.357 L 616.999 278.035 L 619.906 284.781 L 622.659 291.591 L 625.258 298.461 L 627.700 305.388 L 629.986 312.369 L 632.113 319.399 L 634.081 326.476 L 635.888 333.595 L 637.534 340.754 L 639.018 347.948 L 640.339 355.173 L 641.496 362.427 L 642.489 369.704 L 643.318 377.003 L 643.981 384.318 L 644.478 391.646 L 644.810 398.984 L 644.976 406.327 L 644.976 413.673 L 644.810 421.016 L 644.478 428.354 L 643.981 435.682 L 643.318 442.997 L 642.489 450.296 L 641.496 457.573 L 640.339 464.827 L 639.018 472.052 L 637.534 479.246 L 635.888 486.405 L 634.081 493.524 L 632.113 500.601 L 629.986 507.631 L 627.700 514.612 L 625.258 521.539 L 622.659 528.409 L 619.906 535.219 L 616.999 541.965 L 613.941 548.643 L 610.733 555.250 L 607.376 561.784 L 603.872 568.239 L 600.224 574.614 L 596.432 580.905 L 592.499 587.109 L 588.427 593.222 L 584.217 599.241 L 579.873 605.164 L 575.396 610.987 L 570.789 616.708 L 566.053 622.323 L 561.192 627.829 L 556.208 633.224 L 551.102 638.506 L 545.879 643.670 L 540.541 648.715 L 535.090 653.638 L 529.529 658.437 L 523.861 663.109 L 518.088 667.651 L 512.215 672.062 L 506.244 676.339 L 500.177 680.480 L 494.018 684.483 L 487.771 688.345 L 481.437 692.066 L 475.021 695.642 L 468.526 699.073 L 461.956 702.355 L 455.312 705.489 L 448.600 708.471 L 441.822 711.302 L 434.981 713.978 L 428.082 716.499 L 421.128 718.863 L 414.122 721.069 L 407.068 723.117 L 399.969 725.005 L 392.830 726.732 L 385.654 728.297 L 378.443 729.699 L 371.203 730.938 L 363.937 732.013 L 356.649 732.924 L 349.342 733.670 L 342.019 734.250 L 334.686 734.665 L 327.345 734.914 L 319.746 735.000 L 175.000 735.000 L 175.000 85.000 Z" fill="black" fill-rule="evenodd"/>
</svg>
