<svg xmlns="http://www.w3.org/2000/svg" viewBox="0 0 700.000 1000.000">
  <path d="M 639.441,745.967 L 641.076,747.453 L 642.635,749.017 L 644.116,750.656 L 645.515,752.365 L 646.828,754.141 L 648.053,755.979 L 649.185,757.875 L 650.224,759.825 L 651.165,761.823 L 652.008,763.864 L 652.749,765.945 L 653.387,768.059 L 653.921,770.203 L 654.348,772.370 L 654.669,774.555 L 654.883,776.753 L 654.988,778.959 L 654.985,781.168 L 654.873,783.374 L 654.654,785.572 L 654.327,787.756 L 653.893,789.922 L 653.353,792.064 L 652.709,794.176 L 651.962,796.255 L 651.114,798.294 L 650.166,800.289 L 649.122,802.236 L 647.984,804.129 L 646.755,805.964 L 645.436,807.736 L 644.033,809.441 L 642.547,811.076 L 640.983,812.635 L 639.344,814.116 L 637.635,815.515 L 635.859,816.828 L 634.021,818.053 L 632.125,819.185 L 630.175,820.224 L 628.177,821.165 L 626.136,822.008 L 624.055,822.749 L 621.941,823.387 L 619.797,823.921 L 617.630,824.348 L 615.445,824.669 L 613.247,824.883 L 611.041,824.988 L 608.832,824.985 L 606.626,824.873 L 604.428,824.654 L 602.244,824.327 L 600.078,823.893 L 597.936,823.353 L 595.824,822.709 L 593.745,821.962 L 591.706,821.114 L 589.711,820.166 L 587.764,819.122 L 585.871,817.984 L 584.036,816.755 L 582.264,815.436 L 135.000,465.366 L 135.000,780.000 L 134.946,782.208 L 134.783,784.411 L 134.513,786.603 L 134.135,788.779 L 133.651,790.934 L 133.062,793.063 L 132.369,795.160 L 131.575,797.221 L 130.680,799.240 L 129.686,801.213 L 128.598,803.135 L 127.416,805.001 L 126.144,806.806 L 124.785,808.548 L 123.343,810.220 L 121.820,811.820 L 120.220,813.343 L 118.548,814.785 L 116.806,816.144 L 115.001,817.416 L 113.135,818.598 L 111.213,819.686 L 109.240,820.680 L 107.221,821.575 L 105.160,822.369 L 103.063,823.062 L 100.934,823.651 L 98.779,824.135 L 96.603,824.513 L 94.411,824.783 L 92.208,824.946 L 90.000,825.000 L 87.792,824.946 L 85.589,824.783 L 83.397,824.513 L 81.221,824.135 L 79.066,823.651 L 76.937,823.062 L 74.840,822.369 L 72.779,821.575 L 70.760,820.680 L 68.787,819.686 L 66.865,818.598 L 64.999,817.416 L 63.194,816.144 L 61.452,814.785 L 59.780,813.343 L 58.180,811.820 L 56.657,810.220 L 55.215,808.548 L 53.856,806.806 L 52.584,805.001 L 51.402,803.135 L 50.314,801.213 L 49.320,799.240 L 48.425,797.221 L 47.631,795.160 L 46.938,793.063 L 46.349,790.934 L 45.865,788.779 L 45.487,786.603 L 45.217,784.411 L 45.054,782.208 L 45.000,780.000 L 45.000,40.000 L 45.054,37.792 L 45.217,35.589 L 45.487,33.397 L 45.865,31.221 L 46.349,29.066 L 46.938,26.937 L 47.631,24.840 L 48.425,22.779 L 49.320,20.760 L 50.314,18.787 L 51.402,16.865 L 52.584,14.999 L 53.856,13.194 L 55.215,11.452 L 56.657,9.780 L 58.180,8.180 L 59.780,6.657 L 61.452,5.215 L 63.194,3.856 L 64.999,2.584 L 66.865,1.402 L 68.787,0.314 L 70.760,-0.680 L 72.779,-1.575 L 74.840,-2.369 L 76.937,-3.062 L 79.066,-3.651 L 81.221,-4.135 L 83.397,-4.513 L 85.589,-4.783 L 87.792,-4.946 L 90.000,-5.000 L 92.208,-4.946 L 94.411,-4.783 L 96.603,-4.513 L 98.779,-4.135 L 100.934,-3.651 L 103.063,-3.062 L 105.160,-2.369 L 107.221,-1.575 L 109.240,-0.680 L 111.213,0.314 L 113.135,1.402 L 115.001,2.584 L 116.806,3.856 L 118.548,5.215 L 120.220,6.657 L 121.820,8.180 L 123.343,9.780 L 124.785,11.452 L 126.144,13.194 L 127.416,14.999 L 128.598,16.865 L 129.686,18.787 L 130.680,20.760 L 131.575,22.779 L 132.369,24.840 L 133.062,26.937 L 133.651,29.066 L 134.135,31.221 L 134.513,33.397 L 134.783,35.589 L 134.946,37.792 L 135.000,40.000 L 135.000,290.746 L 585.732,2.104 L 587.621,0.959 L 589.564,-0.092 L 591.555,-1.046 L 593.592,-1.902 L 595.667,-2.656 L 597.778,-3.308 L 599.917,-3.856 L 602.082,-4.298 L 604.265,-4.633 L 606.462,-4.861 L 608.667,-4.980 L 610.876,-4.991 L 613.082,-4.894 L 615.281,-4.689 L 617.468,-4.376 L 619.636,-3.956 L 621.782,-3.430 L 623.898,-2.800 L 625.982,-2.066 L 628.027,-1.232 L 630.028,-0.297 L 631.981,0.734 L 633.881,1.860 L 635.724,3.078 L 637.505,4.384 L 639.219,5.777 L 640.863,7.252 L 642.433,8.805 L 643.925,10.434 L 645.334,12.135 L 646.659,13.902 L 647.896,15.732 L 649.041,17.621 L 650.092,19.564 L 651.046,21.555 L 651.902,23.592 L 652.656,25.667 L 653.308,27.778 L 653.856,29.917 L 654.298,32.082 L 654.633,34.265 L 654.861,36.462 L 654.980,38.667 L 654.991,40.876 L 654.894,43.082 L 654.689,45.281 L 654.376,47.468 L 653.956,49.636 L 653.430,51.782 L 652.800,53.898 L 652.066,55.982 L 651.232,58.027 L 650.297,60.028 L 649.266,61.981 L 648.140,63.881 L 646.922,65.724 L 645.616,67.505 L 644.223,69.219 L 642.748,70.863 L 641.195,72.433 L 639.566,73.925 L 637.865,75.334 L 636.098,76.659 L 634.268,77.896 L 167.706,376.675 L 637.736,744.564 L 639.441,745.967 Z" fill="black" fill-rule="evenodd"/>
</svg>
