<svg xmlns="http://www.w3.org/2000/svg" viewBox="0 0 700.000 1000">
  <path d="M 480.000 -5.000 L 130.000 -5.000 L 128.896 -4.986 L 127.792 -4.946 L 126.690 -4.878 L 125.589 -4.783 L 125.390 -4.761 L 124.492 -4.662 L 123.740 -4.560 L 123.397 -4.513 L 122.307 -4.337 L 121.221 -4.135 L 120.598 -4.003 L 120.140 -3.907 L 119.066 -3.651 L 117.998 -3.370 L 117.383 -3.192 L 116.937 -3.062 L 115.884 -2.729 L 114.840 -2.369 L 113.805 -1.985 L 112.779 -1.575 L 112.054 -1.264 L 111.764 -1.139 L 110.760 -0.680 L 110.246 -0.429 L 109.767 -0.195 L 108.787 0.314 L 107.820 0.846 L 106.865 1.402 L 106.688 1.511 L 105.925 1.982 L 104.999 2.584 L 104.089 3.209 L 103.723 3.473 L 103.194 3.856 L 102.315 4.524 L 101.851 4.896 L 101.452 5.215 L 100.607 5.926 L 99.780 6.657 L 98.971 7.409 L 98.341 8.023 L 98.180 8.180 L 97.813 8.557 L 97.409 8.971 L 96.657 9.780 L 96.146 10.357 L 95.926 10.607 L 95.215 11.452 L 94.524 12.315 L 94.143 12.816 L 93.856 13.194 L 93.392 13.835 L 93.209 14.089 L 92.584 14.999 L 91.982 15.925 L 91.402 16.865 L 91.159 17.282 L 90.846 17.820 L 90.533 18.388 L 90.314 18.787 L 89.805 19.767 L 89.514 20.363 L 89.320 20.760 L 89.137 21.162 L 88.861 21.764 L 88.721 22.090 L 88.425 22.779 L 88.015 23.805 L 87.631 24.840 L 87.463 25.328 L 87.271 25.884 L 87.185 26.156 L 86.938 26.937 L 86.702 27.749 L 86.630 27.998 L 86.349 29.066 L 86.093 30.140 L 85.865 31.221 L 85.743 31.872 L 85.663 32.307 L 85.604 32.670 L 85.487 33.397 L 85.338 34.492 L 85.326 34.607 L 85.217 35.589 L 85.136 36.522 L 85.122 36.690 L 85.054 37.792 L 85.014 38.896 L 85.000 40.000 L 85.000 40.000 L 85.000 780.000 L 85.014 781.104 L 85.054 782.208 L 85.122 783.310 L 85.217 784.411 L 85.338 785.508 L 85.487 786.603 L 85.663 787.693 L 85.865 788.779 L 86.093 789.860 L 86.349 790.934 L 86.630 792.002 L 86.938 793.063 L 87.271 794.116 L 87.631 795.160 L 88.015 796.195 L 88.425 797.221 L 88.861 798.236 L 89.320 799.240 L 89.805 800.233 L 90.314 801.213 L 90.846 802.180 L 91.402 803.135 L 91.982 804.075 L 92.584 805.001 L 93.209 805.911 L 93.856 806.806 L 94.524 807.685 L 95.215 808.548 L 95.926 809.393 L 96.657 810.220 L 97.409 811.029 L 98.180 811.820 L 98.971 812.591 L 99.780 813.343 L 100.607 814.074 L 101.452 814.785 L 102.315 815.476 L 103.194 816.144 L 104.089 816.791 L 104.999 817.416 L 105.925 818.018 L 106.865 818.598 L 107.820 819.154 L 108.787 819.686 L 109.767 820.195 L 110.760 820.680 L 111.764 821.139 L 112.779 821.575 L 113.805 821.985 L 114.840 822.369 L 115.884 822.729 L 116.937 823.062 L 117.998 823.370 L 119.066 823.651 L 120.140 823.907 L 121.221 824.135 L 122.307 824.337 L 123.397 824.513 L 124.492 824.662 L 125.589 824.783 L 126.690 824.878 L 127.792 824.946 L 128.896 824.986 L 130.000 825.000 L 480.000 825.000 L 480.213 824.997 L 480.427 824.998 L 484.443 824.960 L 485.296 824.944 L 489.311 824.830 L 490.163 824.797 L 494.177 824.607 L 495.028 824.559 L 499.039 824.292 L 499.888 824.228 L 503.896 823.885 L 504.742 823.805 L 508.746 823.387 L 509.589 823.291 L 513.588 822.796 L 514.427 822.685 L 518.421 822.115 L 519.256 821.988 L 523.243 821.342 L 524.073 821.200 L 528.052 820.478 L 528.878 820.321 L 532.849 819.524 L 533.669 819.352 L 537.631 818.480 L 538.444 818.294 L 542.396 817.347 L 543.203 817.146 L 547.145 816.124 L 547.945 815.909 L 551.875 814.813 L 552.667 814.584 L 556.585 813.414 L 557.370 813.171 L 561.275 811.927 L 562.051 811.671 L 565.942 810.353 L 566.710 810.085 L 570.586 808.693 L 571.345 808.412 L 575.205 806.947 L 575.955 806.655 L 579.800 805.116 L 580.540 804.812 L 584.367 803.201 L 585.098 802.886 L 588.907 801.202 L 589.628 800.876 L 593.418 799.121 L 594.129 798.784 L 597.900 796.957 L 598.600 796.610 L 602.351 794.711 L 603.040 794.355 L 606.770 792.385 L 607.449 792.020 L 611.157 789.980 L 611.824 789.605 L 615.510 787.495 L 616.167 787.112 L 619.829 784.932 L 620.474 784.540 L 624.113 782.292 L 624.747 781.892 L 628.360 779.575 L 628.983 779.168 L 632.571 776.782 L 633.183 776.368 L 636.744 773.914 L 637.345 773.494 L 640.879 770.973 L 641.468 770.546 L 644.975 767.958 L 645.552 767.525 L 649.031 764.871 L 649.597 764.432 L 653.046 761.713 L 653.600 761.268 L 657.020 758.484 L 657.563 758.034 L 660.952 755.185 L 661.483 754.731 L 664.841 751.818 L 665.361 751.359 L 668.687 748.383 L 669.196 747.920 L 672.489 744.881 L 672.987 744.414 L 676.247 741.313 L 676.734 740.843 L 679.960 737.680 L 680.436 737.206 L 683.627 733.983 L 684.092 733.506 L 687.248 730.222 L 687.702 729.742 L 690.822 726.399 L 691.265 725.916 L 694.348 722.515 L 694.782 722.030 L 697.827 718.569 L 698.250 718.082 L 701.258 714.565 L 701.670 714.076 L 704.640 710.501 L 705.042 710.010 L 707.973 706.380 L 708.365 705.887 L 711.255 702.202 L 711.638 701.708 L 714.488 697.968 L 714.860 697.473 L 717.670 693.679 L 718.033 693.182 L 720.801 689.336 L 721.154 688.838 L 723.880 684.940 L 724.224 684.441 L 726.907 680.492 L 727.242 679.992 L 729.882 675.992 L 730.207 675.492 L 732.804 671.442 L 733.120 670.941 L 735.673 666.843 L 735.980 666.342 L 738.488 662.195 L 738.787 661.694 L 741.249 657.500 L 741.540 656.998 L 743.956 652.759 L 744.238 652.257 L 746.608 647.972 L 746.882 647.469 L 749.205 643.140 L 749.471 642.638 L 751.747 638.264 L 752.005 637.762 L 754.233 633.346 L 754.483 632.844 L 756.663 628.387 L 756.905 627.885 L 759.036 623.386 L 759.270 622.885 L 761.353 618.346 L 761.579 617.845 L 763.613 613.267 L 763.832 612.766 L 765.815 608.151 L 766.027 607.650 L 767.960 602.997 L 768.164 602.497 L 770.046 597.808 L 770.244 597.308 L 772.075 592.584 L 772.265 592.084 L 774.045 587.326 L 774.228 586.827 L 775.956 582.035 L 776.133 581.536 L 777.808 576.713 L 777.978 576.214 L 779.601 571.359 L 779.765 570.862 L 781.335 565.976 L 781.492 565.479 L 783.009 560.565 L 783.159 560.068 L 784.623 555.125 L 784.766 554.629 L 786.176 549.659 L 786.314 549.163 L 787.669 544.167 L 787.801 543.671 L 789.102 538.650 L 789.227 538.155 L 790.474 533.109 L 790.593 532.615 L 791.785 527.546 L 791.898 527.053 L 793.035 521.962 L 793.142 521.468 L 794.223 516.357 L 794.325 515.864 L 795.351 510.732 L 795.446 510.239 L 796.416 505.089 L 796.506 504.597 L 797.420 499.428 L 797.504 498.936 L 798.361 493.751 L 798.440 493.260 L 799.241 488.059 L 799.314 487.568 L 800.059 482.352 L 800.126 481.862 L 800.814 476.632 L 800.876 476.142 L 801.507 470.900 L 801.563 470.410 L 802.137 465.157 L 802.188 464.667 L 802.705 459.404 L 802.751 458.914 L 803.211 453.642 L 803.251 453.152 L 803.653 447.871 L 803.688 447.382 L 804.033 442.094 L 804.063 441.605 L 804.350 436.311 L 804.374 435.822 L 804.605 430.524 L 804.623 430.035 L 804.796 424.732 L 804.809 424.244 L 804.925 418.938 L 804.933 418.449 L 804.990 413.142 L 804.993 412.654 L 804.993 407.346 L 804.990 406.858 L 804.933 401.551 L 804.925 401.062 L 804.809 395.756 L 804.796 395.268 L 804.623 389.965 L 804.605 389.476 L 804.374 384.178 L 804.350 383.689 L 804.063 378.395 L 804.033 377.906 L 803.688 372.618 L 803.653 372.129 L 803.251 366.848 L 803.211 366.358 L 802.751 361.086 L 802.705 360.596 L 802.188 355.333 L 802.137 354.843 L 801.563 349.590 L 801.507 349.100 L 800.876 343.858 L 800.814 343.368 L 800.126 338.138 L 800.059 337.648 L 799.314 332.432 L 799.241 331.941 L 798.440 326.740 L 798.361 326.249 L 797.504 321.064 L 797.420 320.572 L 796.506 315.403 L 796.416 314.911 L 795.446 309.761 L 795.351 309.268 L 794.325 304.136 L 794.223 303.643 L 793.142 298.532 L 793.035 298.038 L 791.898 292.947 L 791.785 292.454 L 790.593 287.385 L 790.474 286.891 L 789.227 281.845 L 789.102 281.350 L 787.801 276.329 L 787.669 275.833 L 786.314 270.837 L 786.176 270.341 L 784.766 265.371 L 784.623 264.875 L 783.159 259.932 L 783.009 259.435 L 781.492 254.521 L 781.335 254.024 L 779.765 249.138 L 779.601 248.641 L 777.978 243.786 L 777.808 243.287 L 776.133 238.464 L 775.956 237.965 L 774.228 233.173 L 774.045 232.674 L 772.265 227.916 L 772.075 227.416 L 770.244 222.692 L 770.046 222.192 L 768.164 217.503 L 767.960 217.003 L 766.027 212.350 L 765.815 211.849 L 763.832 207.234 L 763.613 206.733 L 761.579 202.155 L 761.353 201.654 L 759.270 197.115 L 759.036 196.614 L 756.905 192.115 L 756.663 191.613 L 754.483 187.156 L 754.233 186.654 L 752.005 182.238 L 751.747 181.736 L 749.471 177.362 L 749.205 176.860 L 746.882 172.531 L 746.608 172.028 L 744.238 167.743 L 743.956 167.241 L 741.540 163.002 L 741.249 162.500 L 738.787 158.306 L 738.488 157.805 L 735.980 153.658 L 735.673 153.157 L 733.120 149.059 L 732.804 148.558 L 730.207 144.508 L 729.882 144.008 L 727.242 140.008 L 726.907 139.508 L 724.224 135.559 L 723.880 135.060 L 721.154 131.162 L 720.801 130.664 L 718.033 126.818 L 717.670 126.321 L 714.860 122.527 L 714.488 122.032 L 711.638 118.292 L 711.255 117.798 L 708.365 114.113 L 707.973 113.620 L 705.042 109.990 L 704.640 109.499 L 701.670 105.924 L 701.258 105.435 L 698.250 101.918 L 697.827 101.431 L 694.782 97.970 L 694.348 97.485 L 691.265 94.084 L 690.822 93.601 L 687.702 90.258 L 687.248 89.778 L 684.092 86.494 L 683.627 86.017 L 680.436 82.794 L 679.960 82.320 L 676.734 79.157 L 676.247 78.687 L 672.987 75.586 L 672.489 75.119 L 669.196 72.080 L 668.687 71.617 L 665.361 68.641 L 664.841 68.182 L 661.483 65.269 L 660.952 64.815 L 657.563 61.966 L 657.020 61.516 L 653.600 58.732 L 653.046 58.287 L 649.597 55.568 L 649.031 55.129 L 645.552 52.475 L 644.975 52.042 L 641.468 49.454 L 640.879 49.027 L 637.345 46.506 L 636.744 46.086 L 633.183 43.632 L 632.571 43.218 L 628.983 40.832 L 628.360 40.425 L 624.747 38.108 L 624.113 37.708 L 620.474 35.460 L 619.829 35.068 L 616.167 32.888 L 615.510 32.505 L 611.824 30.395 L 611.157 30.020 L 607.449 27.980 L 606.770 27.615 L 603.040 25.645 L 602.351 25.289 L 598.600 23.390 L 597.900 23.043 L 594.129 21.216 L 593.418 20.879 L 589.628 19.124 L 588.907 18.798 L 585.098 17.114 L 584.367 16.799 L 580.540 15.188 L 579.800 14.884 L 575.955 13.345 L 575.205 13.053 L 571.345 11.588 L 570.586 11.307 L 566.710 9.915 L 565.942 9.647 L 562.051 8.329 L 561.275 8.073 L 557.370 6.829 L 556.585 6.586 L 552.667 5.416 L 551.875 5.187 L 547.945 4.091 L 547.145 3.876 L 543.203 2.854 L 542.396 2.653 L 538.444 1.706 L 537.631 1.520 L 533.669 0.648 L 532.849 0.476 L 528.878 -0.321 L 528.052 -0.478 L 524.073 -1.200 L 523.243 -1.342 L 519.256 -1.988 L 518.421 -2.115 L 514.427 -2.685 L 513.588 -2.796 L 509.589 -3.291 L 508.746 -3.387 L 504.742 -3.805 L 503.896 -3.885 L 499.888 -4.228 L 499.039 -4.292 L 495.028 -4.559 L 494.177 -4.607 L 490.163 -4.797 L 489.311 -4.830 L 485.296 -4.944 L 484.443 -4.960 L 480.427 -4.998 L 480.213 -4.997 L 480.000 -5.000 Z M 175.000 85.000 L 479.787 85.000 L 483.164 85.032 L 486.327 85.122 L 489.490 85.272 L 492.652 85.482 L 495.813 85.752 L 498.972 86.082 L 502.130 86.472 L 505.286 86.923 L 508.440 87.433 L 511.592 88.004 L 514.740 88.636 L 517.886 89.328 L 521.028 90.080 L 524.166 90.894 L 527.299 91.768 L 530.429 92.703 L 533.552 93.698 L 536.671 94.755 L 539.783 95.873 L 542.889 97.052 L 545.988 98.292 L 549.080 99.594 L 552.163 100.956 L 555.238 102.381 L 558.304 103.866 L 561.360 105.413 L 564.406 107.021 L 567.441 108.691 L 570.464 110.422 L 573.475 112.214 L 576.473 114.067 L 579.458 115.982 L 582.429 117.957 L 585.385 119.993 L 588.325 122.090 L 591.249 124.248 L 594.156 126.465 L 597.045 128.743 L 599.916 131.081 L 602.767 133.478 L 605.599 135.935 L 608.409 138.451 L 611.199 141.025 L 613.966 143.658 L 616.710 146.348 L 619.430 149.096 L 622.126 151.902 L 624.797 154.763 L 627.442 157.682 L 630.059 160.656 L 632.650 163.685 L 635.212 166.769 L 637.745 169.907 L 640.248 173.098 L 642.721 176.343 L 645.163 179.640 L 647.573 182.988 L 649.951 186.388 L 652.295 189.838 L 654.605 193.338 L 656.880 196.887 L 659.121 200.484 L 661.325 204.129 L 663.492 207.820 L 665.623 211.558 L 667.715 215.341 L 669.769 219.168 L 671.784 223.039 L 673.759 226.952 L 675.694 230.908 L 677.588 234.904 L 679.440 238.941 L 681.251 243.017 L 683.019 247.132 L 684.744 251.284 L 686.425 255.472 L 688.062 259.696 L 689.655 263.955 L 691.203 268.247 L 692.706 272.572 L 694.162 276.929 L 695.573 281.317 L 696.936 285.734 L 698.253 290.181 L 699.522 294.654 L 700.743 299.155 L 701.916 303.681 L 703.041 308.232 L 704.116 312.807 L 705.143 317.404 L 706.120 322.022 L 707.047 326.661 L 707.924 331.319 L 708.751 335.996 L 709.527 340.690 L 710.253 345.399 L 710.927 350.124 L 711.551 354.863 L 712.123 359.614 L 712.644 364.378 L 713.113 369.152 L 713.530 373.935 L 713.895 378.727 L 714.209 383.526 L 714.470 388.331 L 714.679 393.141 L 714.836 397.955 L 714.940 402.772 L 714.993 407.590 L 714.993 412.410 L 714.940 417.228 L 714.836 422.045 L 714.679 426.859 L 714.470 431.669 L 714.209 436.474 L 713.895 441.273 L 713.530 446.065 L 713.113 450.848 L 712.644 455.622 L 712.123 460.386 L 711.551 465.137 L 710.927 469.876 L 710.253 474.601 L 709.527 479.310 L 708.751 484.004 L 707.924 488.681 L 707.047 493.339 L 706.120 497.978 L 705.143 502.596 L 704.116 507.193 L 703.041 511.768 L 701.916 516.319 L 700.743 520.845 L 699.522 525.346 L 698.253 529.819 L 696.936 534.266 L 695.573 538.683 L 694.162 543.071 L 692.706 547.428 L 691.203 551.753 L 689.655 556.045 L 688.062 560.304 L 686.425 564.528 L 684.744 568.716 L 683.019 572.868 L 681.251 576.983 L 679.440 581.059 L 677.588 585.096 L 675.694 589.092 L 673.759 593.048 L 671.784 596.961 L 669.769 600.832 L 667.715 604.659 L 665.623 608.442 L 663.492 612.180 L 661.325 615.871 L 659.121 619.516 L 656.880 623.113 L 654.605 626.662 L 652.295 630.162 L 649.951 633.612 L 647.573 637.012 L 645.163 640.360 L 642.721 643.657 L 640.248 646.902 L 637.745 650.093 L 635.212 653.231 L 632.650 656.315 L 630.059 659.344 L 627.442 662.318 L 624.797 665.237 L 622.126 668.098 L 619.430 670.904 L 616.710 673.652 L 613.966 676.342 L 611.199 678.975 L 608.409 681.549 L 605.599 684.065 L 602.767 686.522 L 599.916 688.919 L 597.045 691.257 L 594.156 693.535 L 591.249 695.752 L 588.325 697.910 L 585.385 700.007 L 582.429 702.043 L 579.458 704.018 L 576.473 705.933 L 573.475 707.786 L 570.464 709.578 L 567.441 711.309 L 564.406 712.979 L 561.360 714.587 L 558.304 716.134 L 555.238 717.619 L 552.163 719.044 L 549.080 720.406 L 545.988 721.708 L 542.889 722.948 L 539.783 724.127 L 536.671 725.245 L 533.552 726.302 L 530.429 727.297 L 527.299 728.232 L 524.166 729.106 L 521.028 729.920 L 517.886 730.672 L 514.740 731.364 L 511.592 731.996 L 508.440 732.567 L 505.286 733.077 L 502.130 733.528 L 498.972 733.918 L 495.813 734.248 L 492.652 734.518 L 489.490 734.728 L 486.327 734.878 L 483.164 734.968 L 479.787 735.000 L 175.000 735.000 L 175.000 85.000 Z" fill="black" fill-rule="evenodd"/>
</svg>
