<svg xmlns="http://www.w3.org/2000/svg" viewBox="0 0 700.000 1000">
  <path d="M 572.943 84.904 L 574.411 84.783 L 575.874 84.615 L 577.330 84.399 L 578.779 84.135 L 580.218 83.824 L 581.647 83.467 L 583.063 83.062 L 584.465 82.612 L 585.851 82.116 L 587.221 81.575 L 588.572 80.989 L 589.903 80.359 L 591.213 79.686 L 592.500 78.971 L 593.763 78.214 L 595.001 77.416 L 596.211 76.578 L 597.394 75.701 L 598.548 74.785 L 599.671 73.833 L 600.762 72.844 L 601.820 71.820 L 602.844 70.762 L 603.833 69.671 L 604.785 68.548 L 605.701 67.394 L 606.578 66.211 L 607.416 65.001 L 608.214 63.763 L 608.971 62.500 L 609.686 61.213 L 610.359 59.903 L 610.989 58.572 L 611.575 57.221 L 612.116 55.851 L 612.612 54.465 L 613.062 53.063 L 613.467 51.647 L 613.824 50.218 L 614.135 48.779 L 614.399 47.330 L 614.615 45.874 L 614.783 44.411 L 614.904 42.943 L 614.976 41.472 L 615.000 40.000 L 614.976 38.528 L 614.904 37.057 L 614.783 35.589 L 614.615 34.126 L 614.399 32.670 L 614.135 31.221 L 613.824 29.782 L 613.467 28.353 L 613.062 26.937 L 612.612 25.535 L 612.116 24.149 L 611.575 22.779 L 610.989 21.428 L 610.359 20.097 L 609.686 18.787 L 608.971 17.500 L 608.214 16.237 L 607.416 14.999 L 606.578 13.789 L 605.701 12.606 L 604.785 11.452 L 603.833 10.329 L 602.844 9.238 L 601.820 8.180 L 600.762 7.156 L 599.671 6.167 L 598.548 5.215 L 597.394 4.299 L 596.211 3.422 L 595.001 2.584 L 593.763 1.786 L 592.500 1.029 L 591.213 0.314 L 589.903 -0.359 L 588.572 -0.989 L 587.221 -1.575 L 585.851 -2.116 L 584.465 -2.612 L 583.063 -3.062 L 581.647 -3.467 L 580.218 -3.824 L 578.779 -4.135 L 577.330 -4.399 L 575.874 -4.615 L 574.411 -4.783 L 572.943 -4.904 L 571.472 -4.976 L 570.000 -5.000 L 130.000 -5.000 L 128.528 -4.976 L 127.057 -4.904 L 125.589 -4.783 L 124.126 -4.615 L 122.670 -4.399 L 121.221 -4.135 L 119.782 -3.824 L 119.782 -3.824 L 118.353 -3.467 L 116.937 -3.062 L 116.436 -2.901 L 115.535 -2.612 L 114.763 -2.335 L 114.149 -2.116 L 112.779 -1.575 L 111.428 -0.989 L 110.097 -0.359 L 108.787 0.314 L 107.500 1.029 L 106.237 1.786 L 104.999 2.584 L 103.789 3.422 L 102.606 4.299 L 102.606 4.299 L 102.606 4.299 L 101.452 5.215 L 100.329 6.167 L 99.238 7.156 L 98.549 7.824 L 98.180 8.180 L 97.156 9.238 L 96.167 10.329 L 95.215 11.452 L 94.670 12.139 L 94.299 12.606 L 93.422 13.789 L 92.584 14.999 L 91.786 16.237 L 91.369 16.932 L 91.029 17.500 L 90.314 18.787 L 89.641 20.097 L 89.011 21.428 L 88.821 21.867 L 88.425 22.779 L 88.045 23.743 L 87.884 24.149 L 87.388 25.535 L 87.223 26.050 L 86.938 26.937 L 86.533 28.353 L 86.176 29.782 L 85.918 30.974 L 85.865 31.221 L 85.601 32.670 L 85.563 32.923 L 85.385 34.126 L 85.217 35.589 L 85.101 36.997 L 85.096 37.057 L 85.024 38.528 L 85.000 40.000 L 85.000 40.000 L 85.000 410.000 L 85.000 780.000 L 85.024 781.472 L 85.096 782.943 L 85.217 784.411 L 85.385 785.874 L 85.601 787.330 L 85.865 788.779 L 86.176 790.218 L 86.533 791.647 L 86.938 793.063 L 87.388 794.465 L 87.884 795.851 L 88.425 797.221 L 89.011 798.572 L 89.641 799.903 L 90.314 801.213 L 91.029 802.500 L 91.786 803.763 L 92.584 805.001 L 93.422 806.211 L 94.299 807.394 L 95.215 808.548 L 96.167 809.671 L 97.156 810.762 L 98.180 811.820 L 99.238 812.844 L 100.329 813.833 L 101.452 814.785 L 102.606 815.701 L 103.789 816.578 L 104.999 817.416 L 106.237 818.214 L 107.500 818.971 L 108.787 819.686 L 110.097 820.359 L 111.428 820.989 L 112.779 821.575 L 114.149 822.116 L 115.535 822.612 L 116.937 823.062 L 118.353 823.467 L 119.782 823.824 L 121.221 824.135 L 122.670 824.399 L 124.126 824.615 L 125.589 824.783 L 127.057 824.904 L 128.528 824.976 L 130.000 825.000 L 570.000 825.000 L 571.472 824.976 L 572.943 824.904 L 574.411 824.783 L 575.874 824.615 L 577.330 824.399 L 578.779 824.135 L 580.218 823.824 L 581.647 823.467 L 583.063 823.062 L 584.465 822.612 L 585.851 822.116 L 587.221 821.575 L 588.572 820.989 L 589.903 820.359 L 591.213 819.686 L 592.500 818.971 L 593.763 818.214 L 595.001 817.416 L 596.211 816.578 L 597.394 815.701 L 598.548 814.785 L 599.671 813.833 L 600.762 812.844 L 601.820 811.820 L 602.844 810.762 L 603.833 809.671 L 604.785 808.548 L 605.701 807.394 L 606.578 806.211 L 607.416 805.001 L 608.214 803.763 L 608.971 802.500 L 609.686 801.213 L 610.359 799.903 L 610.989 798.572 L 611.575 797.221 L 612.116 795.851 L 612.612 794.465 L 613.062 793.063 L 613.467 791.647 L 613.824 790.218 L 614.135 788.779 L 614.399 787.330 L 614.615 785.874 L 614.783 784.411 L 614.904 782.943 L 614.976 781.472 L 615.000 780.000 L 614.976 778.528 L 614.904 777.057 L 614.783 775.589 L 614.615 774.126 L 614.399 772.670 L 614.135 771.221 L 613.824 769.782 L 613.467 768.353 L 613.062 766.937 L 612.612 765.535 L 612.116 764.149 L 611.575 762.779 L 610.989 761.428 L 610.359 760.097 L 609.686 758.787 L 608.971 757.500 L 608.214 756.237 L 607.416 754.999 L 606.578 753.789 L 605.701 752.606 L 604.785 751.452 L 603.833 750.329 L 602.844 749.238 L 601.820 748.180 L 600.762 747.156 L 599.671 746.167 L 598.548 745.215 L 597.394 744.299 L 596.211 743.422 L 595.001 742.584 L 593.763 741.786 L 592.500 741.029 L 591.213 740.314 L 589.903 739.641 L 588.572 739.011 L 587.221 738.425 L 585.851 737.884 L 584.465 737.388 L 583.063 736.938 L 581.647 736.533 L 580.218 736.176 L 578.779 735.865 L 577.330 735.601 L 575.874 735.385 L 574.411 735.217 L 572.943 735.096 L 571.472 735.024 L 570.000 735.000 L 175.000 735.000 L 175.000 455.000 L 520.000 455.000 L 521.472 454.976 L 522.943 454.904 L 524.411 454.783 L 525.874 454.615 L 527.330 454.399 L 528.779 454.135 L 530.218 453.824 L 531.647 453.467 L 533.063 453.062 L 534.465 452.612 L 535.851 452.116 L 537.221 451.575 L 538.572 450.989 L 539.903 450.359 L 541.213 449.686 L 542.500 448.971 L 543.763 448.214 L 545.001 447.416 L 546.211 446.578 L 547.394 445.701 L 548.548 444.785 L 549.671 443.833 L 550.762 442.844 L 551.820 441.820 L 552.844 440.762 L 553.833 439.671 L 554.785 438.548 L 555.701 437.394 L 556.578 436.211 L 557.416 435.001 L 558.214 433.763 L 558.971 432.500 L 559.686 431.213 L 560.359 429.903 L 560.989 428.572 L 561.575 427.221 L 562.116 425.851 L 562.612 424.465 L 563.062 423.063 L 563.467 421.647 L 563.824 420.218 L 564.135 418.779 L 564.399 417.330 L 564.615 415.874 L 564.783 414.411 L 564.904 412.943 L 564.976 411.472 L 565.000 410.000 L 564.976 408.528 L 564.904 407.057 L 564.783 405.589 L 564.615 404.126 L 564.399 402.670 L 564.135 401.221 L 563.824 399.782 L 563.467 398.353 L 563.062 396.937 L 562.612 395.535 L 562.116 394.149 L 561.575 392.779 L 560.989 391.428 L 560.359 390.097 L 559.686 388.787 L 558.971 387.500 L 558.214 386.237 L 557.416 384.999 L 556.578 383.789 L 555.701 382.606 L 554.785 381.452 L 553.833 380.329 L 552.844 379.238 L 551.820 378.180 L 550.762 377.156 L 549.671 376.167 L 548.548 375.215 L 547.394 374.299 L 546.211 373.422 L 545.001 372.584 L 543.763 371.786 L 542.500 371.029 L 541.213 370.314 L 539.903 369.641 L 538.572 369.011 L 537.221 368.425 L 535.851 367.884 L 534.465 367.388 L 533.063 366.938 L 531.647 366.533 L 530.218 366.176 L 528.779 365.865 L 527.330 365.601 L 525.874 365.385 L 524.411 365.217 L 522.943 365.096 L 521.472 365.024 L 520.000 365.000 L 175.000 365.000 L 175.000 85.000 L 570.000 85.000 L 571.472 84.976 L 572.943 84.904 Z" fill="black" fill-rule="evenodd"/>
</svg>
