<svg xmlns="http://www.w3.org/2000/svg" viewBox="0 0 700.000 1000.000">
  <path d="M 597.590,567.093 L 597.482,569.299 L 596.894,577.268 L 596.678,579.466 L 595.700,587.396 L 595.375,589.581 L 594.009,597.454 L 593.578,599.620 L 591.828,607.417 L 591.291,609.559 L 589.160,617.260 L 588.519,619.374 L 586.012,626.961 L 585.268,629.041 L 582.392,636.496 L 581.547,638.537 L 578.309,645.842 L 577.365,647.838 L 573.772,654.976 L 572.731,656.924 L 568.792,663.876 L 567.657,665.771 L 563.382,672.522 L 562.155,674.358 L 557.554,680.891 L 556.238,682.665 L 551.322,688.965 L 549.920,690.672 L 544.701,696.723 L 543.218,698.359 L 537.708,704.146 L 536.146,705.708 L 530.359,711.218 L 528.723,712.701 L 522.672,717.920 L 520.965,719.322 L 514.665,724.238 L 512.891,725.554 L 506.358,730.155 L 504.522,731.382 L 497.771,735.657 L 495.876,736.792 L 488.924,740.731 L 486.976,741.772 L 479.838,745.365 L 477.842,746.309 L 470.537,749.547 L 468.496,750.392 L 461.041,753.268 L 458.961,754.012 L 451.374,756.519 L 449.260,757.160 L 441.559,759.291 L 439.417,759.828 L 431.620,761.578 L 429.454,762.009 L 421.581,763.375 L 419.396,763.700 L 411.466,764.678 L 409.268,764.894 L 401.299,765.482 L 399.093,765.590 L 391.104,765.786 L 388.896,765.786 L 380.907,765.590 L 378.701,765.482 L 370.732,764.894 L 368.534,764.678 L 360.604,763.700 L 358.419,763.375 L 350.546,762.009 L 348.380,761.578 L 340.583,759.828 L 338.441,759.291 L 330.740,757.160 L 328.626,756.519 L 321.039,754.012 L 318.959,753.268 L 311.504,750.392 L 309.463,749.547 L 302.158,746.309 L 300.162,745.365 L 293.024,741.772 L 291.076,740.731 L 284.124,736.792 L 282.229,735.657 L 275.478,731.382 L 273.642,730.155 L 267.109,725.554 L 265.335,724.238 L 259.035,719.322 L 257.328,717.920 L 251.277,712.701 L 249.641,711.218 L 243.854,705.708 L 242.292,704.146 L 236.782,698.359 L 235.299,696.723 L 230.080,690.672 L 228.678,688.965 L 223.762,682.665 L 222.446,680.891 L 217.845,674.358 L 216.618,672.522 L 212.343,665.771 L 211.208,663.876 L 207.269,656.924 L 206.228,654.976 L 202.635,647.838 L 201.691,645.842 L 198.453,638.537 L 197.608,636.496 L 194.732,629.041 L 193.988,626.961 L 191.481,619.374 L 190.840,617.260 L 188.709,609.559 L 188.172,607.417 L 186.422,599.620 L 185.991,597.454 L 184.625,589.581 L 184.300,587.396 L 183.322,579.466 L 183.106,577.268 L 182.518,569.299 L 182.410,567.093 L 182.214,559.104 L 182.214,556.896 L 182.410,548.907 L 182.518,546.701 L 182.732,543.800 L 135.000,543.800 L 135.000,780.000 L 134.946,782.208 L 134.783,784.411 L 134.513,786.603 L 134.135,788.779 L 133.651,790.934 L 133.062,793.063 L 132.369,795.160 L 131.575,797.221 L 130.680,799.240 L 129.686,801.213 L 128.598,803.135 L 127.416,805.001 L 126.144,806.806 L 124.785,808.548 L 123.343,810.220 L 121.820,811.820 L 120.220,813.343 L 118.548,814.785 L 116.806,816.144 L 115.001,817.416 L 113.135,818.598 L 111.213,819.686 L 109.240,820.680 L 107.221,821.575 L 105.160,822.369 L 103.063,823.062 L 100.934,823.651 L 98.779,824.135 L 96.603,824.513 L 94.411,824.783 L 92.208,824.946 L 90.000,825.000 L 87.792,824.946 L 85.589,824.783 L 83.397,824.513 L 81.221,824.135 L 79.066,823.651 L 76.937,823.062 L 74.840,822.369 L 72.779,821.575 L 70.760,820.680 L 68.787,819.686 L 66.865,818.598 L 64.999,817.416 L 63.194,816.144 L 61.452,814.785 L 59.780,813.343 L 58.180,811.820 L 56.657,810.220 L 55.215,808.548 L 53.856,806.806 L 52.584,805.001 L 51.402,803.135 L 50.314,801.213 L 49.320,799.240 L 48.425,797.221 L 47.631,795.160 L 46.938,793.063 L 46.349,790.934 L 45.865,788.779 L 45.487,786.603 L 45.217,784.411 L 45.054,782.208 L 45.000,780.000 L 45.000,498.800 L 45.000,202.800 L 45.000,40.000 L 45.054,37.792 L 45.217,35.589 L 45.487,33.397 L 45.865,31.221 L 46.349,29.066 L 46.938,26.937 L 47.631,24.840 L 48.425,22.779 L 49.320,20.760 L 50.314,18.787 L 51.402,16.865 L 52.584,14.999 L 53.856,13.194 L 55.215,11.452 L 56.657,9.780 L 58.180,8.180 L 59.780,6.657 L 61.452,5.215 L 63.194,3.856 L 64.999,2.584 L 66.865,1.402 L 68.787,0.314 L 70.760,-0.680 L 72.779,-1.575 L 74.840,-2.369 L 76.937,-3.062 L 79.066,-3.651 L 81.221,-4.135 L 83.397,-4.513 L 85.589,-4.783 L 87.792,-4.946 L 90.000,-5.000 L 92.208,-4.946 L 94.411,-4.783 L 96.603,-4.513 L 98.779,-4.135 L 100.934,-3.651 L 103.063,-3.062 L 105.160,-2.369 L 107.221,-1.575 L 109.240,-0.680 L 111.213,0.314 L 113.135,1.402 L 115.001,2.584 L 116.806,3.856 L 118.548,5.215 L 120.220,6.657 L 121.820,8.180 L 123.343,9.780 L 124.785,11.452 L 126.144,13.194 L 127.416,14.999 L 128.598,16.865 L 129.686,18.787 L 130.680,20.760 L 131.575,22.779 L 132.369,24.840 L 133.062,26.937 L 133.651,29.066 L 134.135,31.221 L 134.513,33.397 L 134.783,35.589 L 134.946,37.792 L 135.000,40.000 L 135.000,157.800 L 210.258,157.800 L 211.208,156.124 L 212.343,154.229 L 216.618,147.478 L 217.845,145.642 L 222.446,139.109 L 223.762,137.335 L 228.678,131.035 L 230.080,129.328 L 235.299,123.277 L 236.782,121.641 L 242.292,115.854 L 243.854,114.292 L 249.641,108.782 L 251.277,107.299 L 257.328,102.080 L 259.035,100.678 L 265.335,95.762 L 267.109,94.446 L 273.642,89.845 L 275.478,88.618 L 282.229,84.343 L 284.124,83.208 L 291.076,79.269 L 293.024,78.228 L 300.162,74.635 L 302.158,73.691 L 309.463,70.453 L 311.504,69.608 L 318.959,66.732 L 321.039,65.988 L 328.626,63.481 L 330.740,62.840 L 338.441,60.709 L 340.583,60.172 L 348.380,58.422 L 350.546,57.991 L 358.419,56.625 L 360.604,56.300 L 368.534,55.322 L 370.732,55.106 L 378.701,54.518 L 380.907,54.410 L 388.896,54.214 L 391.104,54.214 L 399.093,54.410 L 401.299,54.518 L 409.268,55.106 L 411.466,55.322 L 419.396,56.300 L 421.581,56.625 L 429.454,57.991 L 431.620,58.422 L 439.417,60.172 L 441.559,60.709 L 449.260,62.840 L 451.374,63.481 L 458.961,65.988 L 461.041,66.732 L 468.496,69.608 L 470.537,70.453 L 477.842,73.691 L 479.838,74.635 L 486.976,78.228 L 488.924,79.269 L 495.876,83.208 L 497.771,84.343 L 504.522,88.618 L 506.358,89.845 L 512.891,94.446 L 514.665,95.762 L 520.965,100.678 L 522.672,102.080 L 528.723,107.299 L 530.359,108.782 L 536.146,114.292 L 537.708,115.854 L 543.218,121.641 L 544.701,123.277 L 549.920,129.328 L 551.322,131.035 L 556.238,137.335 L 557.554,139.109 L 562.155,145.642 L 563.382,147.478 L 567.657,154.229 L 568.792,156.124 L 572.731,163.076 L 573.772,165.024 L 577.365,172.162 L 578.309,174.158 L 581.547,181.463 L 582.392,183.504 L 585.268,190.959 L 586.012,193.039 L 588.519,200.626 L 589.160,202.740 L 591.291,210.441 L 591.828,212.583 L 593.578,220.380 L 594.009,222.546 L 595.375,230.419 L 595.700,232.604 L 596.678,240.534 L 596.894,242.732 L 597.482,250.701 L 597.590,252.907 L 597.786,260.896 L 597.786,263.104 L 597.590,271.093 L 597.482,273.299 L 596.894,281.268 L 596.678,283.466 L 595.700,291.396 L 595.375,293.581 L 594.009,301.454 L 593.578,303.620 L 591.828,311.417 L 591.291,313.559 L 589.160,321.260 L 588.519,323.374 L 586.012,330.961 L 585.268,333.041 L 582.392,340.496 L 581.547,342.537 L 578.309,349.842 L 577.365,351.838 L 573.772,358.976 L 572.731,360.924 L 568.792,367.876 L 567.657,369.771 L 563.382,376.522 L 562.155,378.358 L 557.554,384.891 L 556.238,386.665 L 551.322,392.965 L 549.920,394.672 L 544.701,400.723 L 543.218,402.359 L 537.708,408.146 L 536.146,409.708 L 535.840,410.000 L 536.146,410.292 L 537.708,411.854 L 543.218,417.641 L 544.701,419.277 L 549.920,425.328 L 551.322,427.035 L 556.238,433.335 L 557.554,435.109 L 562.155,441.642 L 563.382,443.478 L 567.657,450.229 L 568.792,452.124 L 572.731,459.076 L 573.772,461.024 L 577.365,468.162 L 578.309,470.158 L 581.547,477.463 L 582.392,479.504 L 585.268,486.959 L 586.012,489.039 L 588.519,496.626 L 589.160,498.740 L 591.291,506.441 L 591.828,508.583 L 593.578,516.380 L 594.009,518.546 L 595.375,526.419 L 595.700,528.604 L 596.678,536.534 L 596.894,538.732 L 597.482,546.701 L 597.590,548.907 L 597.786,556.896 L 597.786,559.104 L 597.590,567.093 Z M 328.626,359.481 L 330.740,358.840 L 338.441,356.709 L 340.583,356.172 L 348.380,354.422 L 350.546,353.991 L 358.419,352.625 L 360.604,352.300 L 368.534,351.322 L 370.732,351.106 L 378.701,350.518 L 380.907,350.410 L 388.896,350.214 L 391.104,350.214 L 399.093,350.410 L 401.299,350.518 L 409.268,351.106 L 411.466,351.322 L 419.396,352.300 L 421.581,352.625 L 429.454,353.991 L 431.620,354.422 L 439.417,356.172 L 441.559,356.709 L 449.260,358.840 L 451.374,359.481 L 454.517,360.520 L 455.439,359.936 L 460.165,356.607 L 464.723,353.050 L 469.101,349.274 L 473.288,345.288 L 477.274,341.101 L 481.050,336.723 L 484.607,332.165 L 487.936,327.439 L 491.029,322.554 L 493.878,317.524 L 496.478,312.360 L 498.820,307.075 L 500.901,301.681 L 502.715,296.192 L 504.257,290.620 L 505.523,284.979 L 506.512,279.283 L 507.219,273.545 L 507.645,267.780 L 507.786,262.000 L 507.645,256.220 L 507.219,250.455 L 506.512,244.717 L 505.523,239.021 L 504.257,233.380 L 502.715,227.808 L 500.901,222.319 L 498.820,216.925 L 496.478,211.640 L 493.878,206.476 L 491.029,201.446 L 487.936,196.561 L 484.607,191.835 L 481.050,187.277 L 477.274,182.899 L 473.288,178.712 L 469.101,174.726 L 464.723,170.950 L 460.165,167.393 L 455.439,164.064 L 450.554,160.971 L 445.524,158.122 L 440.360,155.522 L 435.075,153.180 L 429.681,151.099 L 424.192,149.285 L 418.620,147.743 L 412.979,146.477 L 407.283,145.488 L 401.545,144.781 L 395.780,144.355 L 390.000,144.214 L 384.220,144.355 L 378.455,144.781 L 372.717,145.488 L 367.021,146.477 L 361.380,147.743 L 355.808,149.285 L 350.319,151.099 L 344.925,153.180 L 339.640,155.522 L 335.115,157.800 L 390.000,157.800 L 392.208,157.854 L 394.411,158.017 L 396.603,158.287 L 398.779,158.665 L 400.934,159.149 L 403.063,159.738 L 405.160,160.431 L 407.221,161.225 L 409.240,162.120 L 411.213,163.114 L 413.135,164.202 L 415.001,165.384 L 416.806,166.656 L 418.548,168.015 L 420.220,169.457 L 421.820,170.980 L 423.343,172.580 L 424.785,174.252 L 426.144,175.994 L 427.416,177.799 L 428.598,179.665 L 429.686,181.587 L 430.680,183.560 L 431.575,185.579 L 432.369,187.640 L 433.062,189.737 L 433.651,191.866 L 434.135,194.021 L 434.513,196.197 L 434.783,198.389 L 434.946,200.592 L 435.000,202.800 L 434.946,205.008 L 434.783,207.211 L 434.513,209.403 L 434.135,211.579 L 433.651,213.734 L 433.062,215.863 L 432.369,217.960 L 431.575,220.021 L 430.680,222.040 L 429.686,224.013 L 428.598,225.935 L 427.416,227.801 L 426.144,229.606 L 424.785,231.348 L 423.343,233.020 L 421.820,234.620 L 420.220,236.143 L 418.548,237.585 L 416.806,238.944 L 415.001,240.216 L 413.135,241.398 L 411.213,242.486 L 409.240,243.480 L 407.221,244.375 L 405.160,245.169 L 403.063,245.862 L 400.934,246.451 L 398.779,246.935 L 396.603,247.313 L 394.411,247.583 L 392.208,247.746 L 390.000,247.800 L 273.108,247.800 L 272.781,250.455 L 272.355,256.220 L 272.214,262.000 L 272.355,267.780 L 272.781,273.545 L 273.488,279.283 L 274.477,284.979 L 275.743,290.620 L 277.285,296.192 L 279.099,301.681 L 281.180,307.075 L 283.522,312.360 L 286.122,317.524 L 288.971,322.554 L 292.064,327.439 L 295.393,332.165 L 298.950,336.723 L 302.726,341.101 L 306.712,345.288 L 310.899,349.274 L 315.277,353.050 L 319.835,356.607 L 324.561,359.936 L 325.483,360.520 L 328.626,359.481 Z M 507.219,546.455 L 506.512,540.717 L 505.523,535.021 L 504.257,529.380 L 502.715,523.808 L 500.901,518.319 L 498.820,512.925 L 496.478,507.640 L 493.878,502.476 L 491.029,497.446 L 487.936,492.561 L 484.607,487.835 L 481.050,483.277 L 477.274,478.899 L 473.288,474.712 L 469.101,470.726 L 464.723,466.950 L 460.165,463.393 L 455.439,460.064 L 454.517,459.480 L 451.374,460.519 L 449.260,461.160 L 441.559,463.291 L 439.417,463.828 L 431.620,465.578 L 429.454,466.009 L 422.109,467.284 L 423.343,468.580 L 424.785,470.252 L 426.144,471.994 L 427.416,473.799 L 428.598,475.665 L 429.686,477.587 L 430.680,479.560 L 431.575,481.579 L 432.369,483.640 L 433.062,485.737 L 433.651,487.866 L 434.135,490.021 L 434.513,492.197 L 434.783,494.389 L 434.946,496.592 L 435.000,498.800 L 434.946,501.008 L 434.783,503.211 L 434.513,505.403 L 434.135,507.579 L 433.651,509.734 L 433.062,511.863 L 432.369,513.960 L 431.575,516.021 L 430.680,518.040 L 429.686,520.013 L 428.598,521.935 L 427.416,523.801 L 426.144,525.606 L 424.785,527.348 L 423.343,529.020 L 421.820,530.620 L 420.220,532.143 L 418.548,533.585 L 416.806,534.944 L 415.001,536.216 L 413.135,537.398 L 411.213,538.486 L 409.240,539.480 L 407.221,540.375 L 405.160,541.169 L 403.063,541.862 L 400.934,542.451 L 398.779,542.935 L 396.603,543.313 L 394.411,543.583 L 392.208,543.746 L 390.000,543.800 L 273.108,543.800 L 272.781,546.455 L 272.355,552.220 L 272.214,558.000 L 272.355,563.780 L 272.781,569.545 L 273.488,575.283 L 274.477,580.979 L 275.743,586.620 L 277.285,592.192 L 279.099,597.681 L 281.180,603.075 L 283.522,608.360 L 286.122,613.524 L 288.971,618.554 L 292.064,623.439 L 295.393,628.165 L 298.950,632.723 L 302.726,637.101 L 306.712,641.288 L 310.899,645.274 L 315.277,649.050 L 319.835,652.607 L 324.561,655.936 L 329.446,659.029 L 334.476,661.878 L 339.640,664.478 L 344.925,666.820 L 350.319,668.901 L 355.808,670.715 L 361.380,672.257 L 367.021,673.523 L 372.717,674.512 L 378.455,675.219 L 384.220,675.645 L 390.000,675.786 L 395.780,675.645 L 401.545,675.219 L 407.283,674.512 L 412.979,673.523 L 418.620,672.257 L 424.192,670.715 L 429.681,668.901 L 435.075,666.820 L 440.360,664.478 L 445.524,661.878 L 450.554,659.029 L 455.439,655.936 L 460.165,652.607 L 464.723,649.050 L 469.101,645.274 L 473.288,641.288 L 477.274,637.101 L 481.050,632.723 L 484.607,628.165 L 487.936,623.439 L 491.029,618.554 L 493.878,613.524 L 496.478,608.360 L 498.820,603.075 L 500.901,597.681 L 502.715,592.192 L 504.257,586.620 L 505.523,580.979 L 506.512,575.283 L 507.219,569.545 L 507.645,563.780 L 507.786,558.000 L 507.645,552.220 L 507.219,546.455 Z M 210.258,453.800 L 211.208,452.124 L 212.343,450.229 L 216.618,443.478 L 217.845,441.642 L 222.446,435.109 L 223.762,433.335 L 228.678,427.035 L 230.080,425.328 L 235.299,419.277 L 236.782,417.641 L 242.292,411.854 L 243.854,410.292 L 244.160,410.000 L 243.854,409.708 L 242.292,408.146 L 236.782,402.359 L 235.299,400.723 L 230.080,394.672 L 228.678,392.965 L 223.762,386.665 L 222.446,384.891 L 217.845,378.358 L 216.618,376.522 L 212.343,369.771 L 211.208,367.876 L 207.269,360.924 L 206.228,358.976 L 202.635,351.838 L 201.691,349.842 L 198.453,342.537 L 197.608,340.496 L 194.732,333.041 L 193.988,330.961 L 191.481,323.374 L 190.840,321.260 L 188.709,313.559 L 188.172,311.417 L 186.422,303.620 L 185.991,301.454 L 184.625,293.581 L 184.300,291.396 L 183.322,283.466 L 183.106,281.268 L 182.518,273.299 L 182.410,271.093 L 182.214,263.104 L 182.214,260.896 L 182.410,252.907 L 182.518,250.701 L 182.732,247.800 L 135.000,247.800 L 135.000,453.800 L 210.258,453.800 Z" fill="black" fill-rule="evenodd"/>
</svg>
