<svg xmlns="http://www.w3.org/2000/svg" width="700.000" height="1000" viewBox="0 0 700.000 1000">
  <path d="M 486.581 52.770 L 482.878 49.409 L 482.103 48.722 L 478.363 45.481 L 477.556 44.798 L 473.779 41.677 L 472.939 41.000 L 469.128 38.002 L 468.254 37.332 L 464.409 34.457 L 463.502 33.795 L 459.625 31.044 L 458.682 30.393 L 454.775 27.767 L 453.798 27.129 L 449.861 24.629 L 448.848 24.005 L 444.884 21.632 L 443.836 21.024 L 439.846 18.779 L 438.762 18.189 L 434.747 16.073 L 433.629 15.504 L 429.590 13.517 L 428.438 12.971 L 424.377 11.115 L 423.191 10.593 L 419.110 8.868 L 417.891 8.373 L 413.792 6.780 L 412.541 6.315 L 408.424 4.854 L 407.144 4.421 L 403.011 3.092 L 401.703 2.693 L 397.555 1.498 L 396.220 1.135 L 392.060 0.073 L 390.701 -0.251 L 386.530 -1.179 L 385.150 -1.464 L 380.968 -2.257 L 379.569 -2.500 L 375.380 -3.159 L 373.964 -3.358 L 369.768 -3.883 L 368.340 -4.038 L 364.139 -4.427 L 362.701 -4.537 L 358.496 -4.790 L 357.051 -4.854 L 352.844 -4.973 L 351.397 -4.990 L 347.189 -4.973 L 345.742 -4.944 L 341.536 -4.792 L 340.093 -4.716 L 335.888 -4.429 L 334.453 -4.308 L 330.252 -3.885 L 328.827 -3.718 L 324.632 -3.161 L 323.221 -2.950 L 319.033 -2.258 L 317.639 -2.004 L 313.460 -1.177 L 312.084 -0.882 L 307.916 0.079 L 306.563 0.413 L 302.405 1.509 L 301.077 1.880 L 296.933 3.109 L 295.632 3.517 L 291.502 4.879 L 290.230 5.320 L 286.117 6.814 L 284.874 7.287 L 280.779 8.913 L 279.568 9.415 L 275.492 11.173 L 274.314 11.701 L 270.259 13.590 L 269.115 14.142 L 265.082 16.161 L 263.973 16.736 L 259.964 18.884 L 258.889 19.479 L 254.905 21.755 L 253.866 22.368 L 249.908 24.772 L 248.905 25.401 L 244.975 27.932 L 244.006 28.574 L 240.107 31.231 L 239.173 31.885 L 235.304 34.667 L 234.405 35.331 L 230.568 38.237 L 229.703 38.909 L 225.900 41.938 L 225.069 42.616 L 221.301 45.767 L 220.502 46.451 L 216.771 49.723 L 216.004 50.411 L 212.311 53.802 L 211.575 54.492 L 207.921 58.001 L 207.216 58.694 L 203.602 62.320 L 202.926 63.013 L 199.355 66.754 L 198.707 67.447 L 195.179 71.303 L 194.559 71.994 L 191.075 75.963 L 190.482 76.652 L 187.044 80.732 L 186.476 81.419 L 183.085 85.609 L 182.542 86.293 L 179.199 90.591 L 178.680 91.272 L 175.387 95.676 L 174.891 96.353 L 171.648 100.863 L 171.174 101.535 L 167.983 106.148 L 167.530 106.816 L 164.393 111.531 L 163.960 112.194 L 160.876 117.009 L 160.463 117.667 L 157.435 122.580 L 157.040 123.233 L 154.069 128.243 L 153.692 128.890 L 150.778 133.994 L 150.418 134.636 L 147.563 139.833 L 147.220 140.469 L 144.424 145.758 L 144.097 146.388 L 141.361 151.766 L 141.050 152.390 L 138.376 157.855 L 138.079 158.474 L 135.467 164.024 L 135.184 164.637 L 132.637 170.270 L 132.367 170.878 L 129.884 176.592 L 129.627 177.195 L 127.209 182.987 L 126.965 183.585 L 124.613 189.453 L 124.381 190.046 L 122.097 195.989 L 121.876 196.577 L 119.659 202.593 L 119.449 203.176 L 117.302 209.262 L 117.102 209.840 L 115.025 215.994 L 114.835 216.567 L 112.828 222.786 L 112.649 223.355 L 110.712 229.638 L 110.542 230.203 L 108.678 236.547 L 108.517 237.107 L 106.725 243.510 L 106.573 244.067 L 104.855 250.526 L 104.711 251.079 L 103.066 257.592 L 102.931 258.141 L 101.361 264.706 L 101.234 265.252 L 99.738 271.866 L 99.619 272.408 L 98.199 279.070 L 98.087 279.609 L 96.743 286.315 L 96.639 286.850 L 95.371 293.598 L 95.274 294.131 L 94.084 300.919 L 93.994 301.449 L 92.881 308.274 L 92.798 308.802 L 91.762 315.661 L 91.686 316.186 L 90.729 323.078 L 90.659 323.601 L 89.780 330.522 L 89.717 331.043 L 88.917 337.991 L 88.860 338.511 L 88.140 345.483 L 88.089 346.001 L 87.448 352.996 L 87.403 353.512 L 86.842 360.526 L 86.803 361.041 L 86.322 368.072 L 86.289 368.586 L 85.887 375.630 L 85.861 376.144 L 85.539 383.200 L 85.519 383.713 L 85.278 390.778 L 85.263 391.291 L 85.102 398.362 L 85.093 398.874 L 85.013 405.950 L 85.010 406.462 L 85.010 413.538 L 85.013 414.050 L 85.093 421.126 L 85.102 421.638 L 85.263 428.709 L 85.278 429.222 L 85.519 436.287 L 85.539 436.800 L 85.861 443.856 L 85.887 444.370 L 86.289 451.414 L 86.322 451.928 L 86.803 458.959 L 86.842 459.474 L 87.403 466.488 L 87.448 467.004 L 88.089 473.999 L 88.140 474.517 L 88.860 481.489 L 88.917 482.009 L 89.717 488.957 L 89.780 489.478 L 90.659 496.399 L 90.729 496.922 L 91.686 503.814 L 91.762 504.339 L 92.798 511.198 L 92.881 511.726 L 93.994 518.551 L 94.084 519.081 L 95.274 525.869 L 95.371 526.402 L 96.639 533.150 L 96.743 533.685 L 98.087 540.391 L 98.199 540.930 L 99.619 547.592 L 99.738 548.134 L 101.234 554.748 L 101.361 555.294 L 102.931 561.859 L 103.066 562.408 L 104.711 568.921 L 104.855 569.474 L 106.573 575.933 L 106.725 576.490 L 108.517 582.893 L 108.678 583.453 L 110.542 589.797 L 110.712 590.362 L 112.649 596.645 L 112.828 597.214 L 114.835 603.433 L 115.025 604.006 L 117.102 610.160 L 117.302 610.738 L 119.449 616.824 L 119.659 617.407 L 121.876 623.423 L 122.097 624.011 L 124.381 629.954 L 124.613 630.547 L 126.965 636.415 L 127.209 637.013 L 129.627 642.805 L 129.884 643.408 L 132.367 649.122 L 132.637 649.730 L 135.184 655.363 L 135.467 655.976 L 138.079 661.526 L 138.376 662.145 L 141.050 667.610 L 141.361 668.234 L 144.097 673.612 L 144.424 674.242 L 147.220 679.531 L 147.563 680.167 L 150.418 685.364 L 150.778 686.006 L 153.692 691.110 L 154.069 691.757 L 157.040 696.767 L 157.435 697.420 L 160.463 702.333 L 160.876 702.991 L 163.960 707.806 L 164.393 708.469 L 167.530 713.184 L 167.983 713.852 L 171.174 718.465 L 171.648 719.137 L 174.891 723.647 L 175.387 724.324 L 178.680 728.728 L 179.199 729.409 L 182.542 733.707 L 183.085 734.391 L 186.476 738.581 L 187.044 739.268 L 190.482 743.348 L 191.075 744.037 L 194.559 748.006 L 195.179 748.697 L 198.707 752.553 L 199.355 753.246 L 202.926 756.987 L 203.602 757.680 L 207.216 761.306 L 207.921 761.999 L 211.575 765.508 L 212.311 766.198 L 216.004 769.589 L 216.771 770.277 L 220.502 773.549 L 221.301 774.233 L 225.069 777.384 L 225.900 778.062 L 229.703 781.091 L 230.568 781.763 L 234.405 784.669 L 235.304 785.333 L 239.173 788.115 L 240.107 788.769 L 244.006 791.426 L 244.975 792.068 L 248.905 794.599 L 249.908 795.228 L 253.866 797.632 L 254.905 798.245 L 258.889 800.521 L 259.964 801.116 L 263.973 803.264 L 265.082 803.839 L 269.115 805.858 L 270.259 806.410 L 274.314 808.299 L 275.492 808.827 L 279.568 810.585 L 280.779 811.087 L 284.874 812.713 L 286.117 813.186 L 290.230 814.680 L 291.502 815.121 L 295.632 816.483 L 296.933 816.891 L 301.077 818.120 L 302.405 818.491 L 306.563 819.587 L 307.916 819.921 L 312.084 820.882 L 313.460 821.177 L 317.639 822.004 L 319.033 822.258 L 323.221 822.950 L 324.632 823.161 L 328.827 823.718 L 330.252 823.885 L 334.453 824.308 L 335.888 824.429 L 340.093 824.716 L 341.536 824.792 L 345.742 824.944 L 347.189 824.973 L 351.397 824.990 L 352.844 824.973 L 357.051 824.854 L 358.496 824.790 L 362.701 824.537 L 364.139 824.427 L 368.340 824.038 L 369.768 823.883 L 373.964 823.358 L 375.380 823.159 L 379.569 822.500 L 380.968 822.257 L 385.150 821.464 L 386.530 821.179 L 390.701 820.251 L 392.060 819.927 L 396.220 818.865 L 397.555 818.502 L 401.703 817.307 L 403.011 816.908 L 407.144 815.579 L 408.424 815.146 L 412.541 813.685 L 413.792 813.220 L 417.891 811.627 L 419.110 811.132 L 423.191 809.407 L 424.377 808.885 L 428.438 807.029 L 429.590 806.483 L 433.629 804.496 L 434.747 803.927 L 438.762 801.811 L 439.846 801.221 L 443.836 798.976 L 444.884 798.368 L 448.848 795.995 L 449.861 795.371 L 453.798 792.871 L 454.775 792.233 L 458.682 789.607 L 459.625 788.956 L 463.502 786.205 L 464.409 785.543 L 468.254 782.668 L 469.128 781.998 L 472.939 779.000 L 473.779 778.323 L 477.556 775.202 L 478.363 774.519 L 482.103 771.278 L 482.878 770.591 L 486.581 767.230 L 487.324 766.539 L 490.988 763.060 L 491.504 762.562 L 493.095 761.002 L 493.402 760.699 L 494.985 759.116 L 495.286 758.812 L 496.862 757.207 L 497.157 756.904 L 498.725 755.277 L 499.015 754.973 L 500.574 753.324 L 500.858 753.021 L 502.410 751.349 L 502.689 751.046 L 504.232 749.353 L 504.505 749.050 L 506.040 747.336 L 506.308 747.033 L 507.834 745.297 L 508.098 744.995 L 509.615 743.237 L 509.873 742.935 L 511.382 741.156 L 511.635 740.855 L 513.135 739.055 L 513.383 738.754 L 514.874 736.933 L 515.117 736.632 L 516.599 734.790 L 516.838 734.490 L 518.310 732.628 L 518.544 732.328 L 520.007 730.445 L 520.237 730.146 L 521.690 728.242 L 521.916 727.945 L 523.359 726.020 L 523.580 725.723 L 525.015 723.778 L 525.231 723.482 L 526.656 721.517 L 526.868 721.222 L 528.283 719.237 L 528.491 718.943 L 529.896 716.938 L 530.100 716.644 L 531.494 714.620 L 531.694 714.327 L 533.079 712.283 L 533.275 711.991 L 534.649 709.928 L 534.841 709.637 L 536.205 707.554 L 536.394 707.264 L 537.747 705.162 L 537.932 704.873 L 539.275 702.753 L 539.456 702.465 L 540.788 700.325 L 540.966 700.038 L 542.287 697.879 L 542.461 697.594 L 543.772 695.417 L 543.942 695.132 L 545.242 692.936 L 545.409 692.652 L 546.698 690.439 L 546.862 690.156 L 548.140 687.924 L 548.300 687.643 L 549.567 685.393 L 549.723 685.112 L 550.979 682.845 L 551.133 682.565 L 552.377 680.280 L 552.528 680.002 L 553.760 677.699 L 553.908 677.422 L 555.129 675.102 L 555.274 674.826 L 556.483 672.489 L 556.625 672.213 L 557.823 669.859 L 557.961 669.585 L 559.148 667.215 L 559.283 666.941 L 560.458 664.554 L 560.591 664.282 L 561.753 661.878 L 561.884 661.607 L 563.034 659.187 L 563.161 658.917 L 564.300 656.481 L 564.425 656.212 L 565.551 653.760 L 565.673 653.492 L 566.787 651.024 L 566.907 650.757 L 568.008 648.274 L 568.125 648.008 L 569.215 645.509 L 569.329 645.244 L 570.406 642.730 L 570.518 642.466 L 571.583 639.937 L 571.692 639.674 L 572.744 637.130 L 572.851 636.868 L 573.890 634.309 L 573.995 634.048 L 575.021 631.475 L 575.124 631.215 L 576.137 628.627 L 576.238 628.368 L 577.238 625.766 L 577.337 625.508 L 578.324 622.893 L 578.420 622.636 L 579.395 620.006 L 579.489 619.750 L 580.450 617.106 L 580.542 616.851 L 581.490 614.194 L 581.580 613.940 L 582.515 611.270 L 582.602 611.017 L 583.524 608.334 L 583.610 608.081 L 584.518 605.385 L 584.602 605.134 L 585.496 602.425 L 585.578 602.175 L 586.460 599.453 L 586.540 599.204 L 587.407 596.470 L 587.485 596.221 L 588.339 593.475 L 588.416 593.227 L 589.256 590.470 L 589.330 590.223 L 590.157 587.453 L 590.230 587.207 L 591.042 584.426 L 591.113 584.180 L 591.912 581.388 L 591.981 581.143 L 592.766 578.340 L 592.834 578.096 L 593.605 575.281 L 593.670 575.038 L 594.427 572.213 L 594.491 571.970 L 595.234 569.135 L 595.297 568.893 L 596.025 566.047 L 596.086 565.806 L 596.801 562.949 L 596.860 562.709 L 597.560 559.843 L 597.618 559.603 L 598.304 556.727 L 598.360 556.488 L 599.032 553.603 L 599.087 553.364 L 599.744 550.469 L 599.797 550.232 L 600.440 547.328 L 600.491 547.091 L 601.119 544.178 L 601.170 543.941 L 601.783 541.019 L 601.832 540.783 L 602.431 537.853 L 602.479 537.618 L 603.063 534.679 L 603.109 534.445 L 603.679 531.498 L 603.724 531.264 L 604.279 528.309 L 604.470 527.221 L 604.523 526.867 L 604.641 526.280 L 604.848 525.186 L 605.308 522.574 L 605.355 522.307 L 605.796 519.711 L 605.843 519.433 L 606.265 516.852 L 606.312 516.561 L 606.714 513.998 L 606.760 513.694 L 607.142 511.149 L 607.188 510.831 L 607.549 508.304 L 607.595 507.973 L 607.934 505.464 L 607.979 505.118 L 608.296 502.629 L 608.340 502.268 L 608.634 499.799 L 608.677 499.422 L 608.947 496.974 L 608.989 496.580 L 609.235 494.154 L 609.275 493.742 L 609.497 491.339 L 609.534 490.909 L 609.731 488.528 L 609.766 488.078 L 609.936 485.722 L 609.968 485.252 L 610.112 482.920 L 610.140 482.428 L 610.258 480.121 L 610.281 479.607 L 610.371 477.326 L 610.389 476.788 L 610.451 474.534 L 610.463 473.971 L 610.496 471.744 L 610.501 471.155 L 610.505 468.957 L 610.502 468.340 L 610.477 466.170 L 610.464 465.525 L 610.408 463.385 L 610.386 462.709 L 610.299 460.599 L 610.264 459.892 L 610.146 457.813 L 610.097 457.073 L 609.947 455.025 L 609.883 454.251 L 609.700 452.235 L 609.619 451.425 L 609.403 449.442 L 609.302 448.595 L 609.052 446.645 L 608.929 445.759 L 608.645 443.844 L 608.497 442.918 L 608.177 441.038 L 608.002 440.071 L 607.647 438.227 L 607.441 437.217 L 607.049 435.409 L 606.808 434.356 L 606.380 432.586 L 606.101 431.489 L 605.635 429.756 L 605.313 428.616 L 604.810 426.921 L 604.440 425.737 L 603.899 424.082 L 603.478 422.855 L 602.897 421.240 L 602.419 419.971 L 601.799 418.396 L 601.260 417.087 L 600.600 415.554 L 599.994 414.208 L 599.293 412.717 L 598.616 411.338 L 597.874 409.890 L 597.120 408.482 L 596.336 407.077 L 595.503 405.646 L 594.676 404.285 L 594.225 403.557 L 593.759 402.838 L 592.890 401.522 L 592.395 400.789 L 591.886 400.066 L 590.973 398.795 L 590.434 398.062 L 589.881 397.339 L 588.923 396.115 L 588.340 395.385 L 587.743 394.668 L 586.740 393.490 L 586.114 392.769 L 585.472 392.062 L 584.424 390.932 L 583.755 390.225 L 583.070 389.534 L 581.977 388.452 L 581.266 387.765 L 580.541 387.093 L 579.401 386.060 L 578.653 385.398 L 577.891 384.752 L 576.703 383.769 L 575.921 383.135 L 575.124 382.520 L 573.889 381.587 L 573.077 380.988 L 572.251 380.406 L 570.968 379.525 L 570.130 378.963 L 569.280 378.420 L 567.948 377.590 L 567.090 377.069 L 566.221 376.567 L 564.840 375.790 L 563.968 375.312 L 563.085 374.853 L 561.654 374.129 L 560.774 373.696 L 559.884 373.282 L 558.402 372.612 L 557.519 372.223 L 556.627 371.854 L 555.095 371.239 L 554.214 370.896 L 553.326 370.571 L 551.742 370.011 L 550.869 369.713 L 549.990 369.432 L 548.353 368.928 L 547.492 368.672 L 546.626 368.433 L 544.937 367.986 L 544.092 367.771 L 543.244 367.573 L 541.501 367.182 L 540.676 367.006 L 539.848 366.845 L 538.051 366.513 L 536.444 366.246 L 534.592 365.973 L 533.036 365.771 L 531.129 365.557 L 529.626 365.414 L 527.664 365.261 L 526.217 365.171 L 524.198 365.078 L 522.808 365.036 L 520.733 365.005 L 520.060 365.000 L 385.000 365.000 L 383.896 365.014 L 382.792 365.054 L 381.690 365.122 L 380.589 365.217 L 379.492 365.338 L 378.397 365.487 L 377.307 365.663 L 376.221 365.865 L 375.140 366.093 L 374.066 366.349 L 372.998 366.630 L 371.937 366.938 L 370.884 367.271 L 369.840 367.631 L 368.805 368.015 L 367.779 368.425 L 366.764 368.861 L 365.760 369.320 L 364.767 369.805 L 363.787 370.314 L 362.820 370.846 L 361.865 371.402 L 360.925 371.982 L 359.999 372.584 L 359.089 373.209 L 358.194 373.856 L 357.315 374.524 L 356.452 375.215 L 355.607 375.926 L 354.780 376.657 L 353.971 377.409 L 353.180 378.180 L 352.409 378.971 L 351.657 379.780 L 350.926 380.607 L 350.215 381.452 L 349.524 382.315 L 348.856 383.194 L 348.209 384.089 L 347.584 384.999 L 346.982 385.925 L 346.402 386.865 L 345.846 387.820 L 345.314 388.787 L 344.805 389.767 L 344.320 390.760 L 343.861 391.764 L 343.425 392.779 L 343.015 393.805 L 342.631 394.840 L 342.271 395.884 L 341.938 396.937 L 341.630 397.998 L 341.349 399.066 L 341.093 400.140 L 340.865 401.221 L 340.663 402.307 L 340.487 403.397 L 340.338 404.492 L 340.217 405.589 L 340.122 406.690 L 340.054 407.792 L 340.014 408.896 L 340.000 410.000 L 340.014 411.104 L 340.054 412.208 L 340.122 413.310 L 340.217 414.411 L 340.338 415.508 L 340.487 416.603 L 340.663 417.693 L 340.865 418.779 L 341.093 419.860 L 341.349 420.934 L 341.630 422.002 L 341.938 423.063 L 342.271 424.116 L 342.631 425.160 L 343.015 426.195 L 343.425 427.221 L 343.861 428.236 L 344.320 429.240 L 344.805 430.233 L 345.314 431.213 L 345.846 432.180 L 346.402 433.135 L 346.982 434.075 L 347.584 435.001 L 348.209 435.911 L 348.856 436.806 L 349.524 437.685 L 350.215 438.548 L 350.926 439.393 L 351.657 440.220 L 352.409 441.029 L 353.180 441.820 L 353.971 442.591 L 354.780 443.343 L 355.607 444.074 L 356.452 444.785 L 357.315 445.476 L 358.194 446.144 L 359.089 446.791 L 359.999 447.416 L 360.925 448.018 L 361.865 448.598 L 362.820 449.154 L 363.787 449.686 L 364.767 450.195 L 365.760 450.680 L 366.764 451.139 L 367.779 451.575 L 368.805 451.985 L 369.840 452.369 L 370.884 452.729 L 371.937 453.062 L 372.998 453.370 L 374.066 453.651 L 375.140 453.907 L 376.221 454.135 L 377.307 454.337 L 378.397 454.513 L 379.492 454.662 L 380.589 454.783 L 381.690 454.878 L 382.792 454.946 L 383.896 454.986 L 385.000 455.000 L 519.206 455.000 L 519.368 455.751 L 519.533 456.606 L 519.691 457.539 L 519.841 458.548 L 519.980 459.631 L 520.106 460.785 L 520.217 462.009 L 520.312 463.300 L 520.390 464.656 L 520.448 466.075 L 520.487 467.556 L 520.505 469.095 L 520.502 470.691 L 520.477 472.342 L 520.430 474.045 L 520.361 475.800 L 520.269 477.603 L 520.155 479.454 L 520.017 481.350 L 519.857 483.290 L 519.674 485.272 L 519.469 487.295 L 519.241 489.356 L 518.992 491.455 L 518.720 493.591 L 518.427 495.761 L 518.113 497.964 L 517.778 500.199 L 517.422 502.465 L 517.047 504.760 L 516.652 507.083 L 516.311 509.013 L 511.857 531.073 L 511.346 533.323 L 510.730 535.970 L 510.102 538.607 L 509.460 541.233 L 508.806 543.848 L 508.139 546.452 L 507.460 549.046 L 506.768 551.628 L 506.064 554.199 L 505.348 556.758 L 504.619 559.305 L 503.878 561.840 L 503.126 564.362 L 502.361 566.872 L 501.584 569.369 L 500.796 571.853 L 499.996 574.325 L 499.184 576.782 L 498.361 579.226 L 497.526 581.657 L 496.680 584.073 L 495.823 586.475 L 494.954 588.863 L 494.075 591.236 L 493.185 593.595 L 492.284 595.938 L 491.372 598.267 L 490.449 600.580 L 489.517 602.877 L 488.573 605.159 L 487.620 607.425 L 486.656 609.675 L 485.682 611.908 L 484.699 614.125 L 483.705 616.326 L 482.702 618.509 L 481.690 620.676 L 480.668 622.825 L 479.637 624.957 L 478.596 627.072 L 477.547 629.168 L 476.489 631.247 L 475.422 633.308 L 474.346 635.351 L 473.262 637.376 L 472.169 639.382 L 471.069 641.369 L 469.960 643.337 L 468.844 645.287 L 467.720 647.217 L 466.588 649.128 L 465.449 651.020 L 464.302 652.892 L 463.149 654.744 L 461.988 656.577 L 460.821 658.389 L 459.647 660.182 L 458.467 661.954 L 457.280 663.706 L 456.087 665.437 L 454.888 667.148 L 453.684 668.838 L 452.474 670.507 L 451.258 672.156 L 450.037 673.783 L 448.811 675.389 L 447.580 676.974 L 446.344 678.537 L 445.104 680.079 L 443.860 681.600 L 442.611 683.099 L 441.358 684.576 L 440.102 686.032 L 438.842 687.466 L 437.578 688.878 L 436.311 690.268 L 435.041 691.636 L 433.768 692.982 L 432.493 694.305 L 431.215 695.607 L 429.934 696.887 L 428.752 698.046 L 425.716 700.929 L 422.772 703.602 L 419.822 706.158 L 416.868 708.598 L 413.914 710.923 L 410.959 713.132 L 408.007 715.227 L 405.060 717.208 L 402.118 719.076 L 399.184 720.832 L 396.259 722.477 L 393.345 724.013 L 390.441 725.441 L 387.550 726.762 L 384.672 727.979 L 381.807 729.093 L 378.955 730.105 L 376.117 731.018 L 373.291 731.832 L 370.478 732.550 L 367.676 733.173 L 364.885 733.703 L 362.103 734.141 L 359.328 734.487 L 356.560 734.743 L 353.796 734.910 L 351.035 734.988 L 348.275 734.977 L 345.513 734.877 L 342.748 734.688 L 339.979 734.409 L 337.203 734.040 L 334.418 733.579 L 331.625 733.026 L 328.820 732.380 L 326.004 731.638 L 323.175 730.799 L 320.333 729.861 L 317.478 728.824 L 314.610 727.685 L 311.728 726.442 L 308.834 725.094 L 305.928 723.639 L 303.010 722.076 L 300.083 720.403 L 297.147 718.619 L 294.204 716.723 L 291.255 714.714 L 288.302 712.591 L 285.348 710.352 L 282.393 707.999 L 279.440 705.530 L 276.492 702.945 L 273.550 700.243 L 270.616 697.426 L 267.693 694.493 L 264.783 691.444 L 261.888 688.281 L 259.010 685.003 L 256.152 681.612 L 253.316 678.108 L 250.504 674.492 L 247.718 670.766 L 244.960 666.931 L 242.233 662.987 L 239.538 658.938 L 236.877 654.783 L 234.252 650.524 L 231.666 646.164 L 229.120 641.703 L 226.615 637.145 L 224.153 632.489 L 221.737 627.740 L 219.368 622.897 L 217.047 617.964 L 214.776 612.943 L 212.556 607.836 L 210.389 602.644 L 208.276 597.370 L 206.219 592.017 L 204.218 586.587 L 202.276 581.081 L 200.392 575.503 L 198.569 569.854 L 196.808 564.138 L 195.108 558.356 L 193.473 552.511 L 191.901 546.606 L 190.395 540.643 L 188.956 534.625 L 187.583 528.554 L 186.278 522.433 L 185.041 516.264 L 183.874 510.051 L 182.776 503.795 L 181.749 497.499 L 180.793 491.167 L 179.909 484.800 L 179.096 478.401 L 178.356 471.974 L 177.689 465.521 L 177.095 459.044 L 176.575 452.547 L 176.129 446.032 L 175.756 439.501 L 175.458 432.958 L 175.234 426.406 L 175.085 419.846 L 175.010 413.283 L 175.010 406.717 L 175.085 400.154 L 175.234 393.594 L 175.458 387.042 L 175.756 380.499 L 176.129 373.968 L 176.575 367.453 L 177.095 360.956 L 177.689 354.479 L 178.356 348.026 L 179.096 341.599 L 179.909 335.200 L 180.793 328.833 L 181.749 322.501 L 182.776 316.205 L 183.874 309.949 L 185.041 303.736 L 186.278 297.567 L 187.583 291.446 L 188.956 285.375 L 190.395 279.357 L 191.901 273.394 L 193.473 267.489 L 195.108 261.644 L 196.808 255.862 L 198.569 250.146 L 200.392 244.497 L 202.276 238.919 L 204.218 233.413 L 206.219 227.983 L 208.276 222.630 L 210.389 217.356 L 212.556 212.164 L 214.776 207.057 L 217.047 202.036 L 219.368 197.103 L 221.737 192.260 L 224.153 187.511 L 226.615 182.855 L 229.120 178.297 L 231.666 173.836 L 234.252 169.476 L 236.877 165.217 L 239.538 161.062 L 242.233 157.013 L 244.960 153.069 L 247.718 149.234 L 250.504 145.508 L 253.316 141.892 L 256.152 138.388 L 259.010 134.997 L 261.888 131.719 L 264.783 128.556 L 267.693 125.507 L 270.616 122.574 L 273.550 119.757 L 276.492 117.055 L 279.440 114.470 L 282.393 112.001 L 285.348 109.648 L 288.302 107.409 L 291.255 105.286 L 294.204 103.277 L 297.147 101.381 L 300.083 99.597 L 303.010 97.924 L 305.928 96.361 L 308.834 94.906 L 311.728 93.558 L 314.610 92.315 L 317.478 91.176 L 320.333 90.139 L 323.175 89.201 L 326.004 88.362 L 328.820 87.620 L 331.625 86.974 L 334.418 86.421 L 337.203 85.960 L 339.979 85.591 L 342.748 85.312 L 345.513 85.123 L 348.275 85.023 L 351.035 85.012 L 353.796 85.090 L 356.560 85.257 L 359.328 85.513 L 362.103 85.859 L 364.885 86.297 L 367.676 86.827 L 370.478 87.450 L 373.291 88.168 L 376.117 88.982 L 378.955 89.895 L 381.807 90.907 L 384.672 92.021 L 387.550 93.238 L 390.441 94.559 L 393.345 95.987 L 396.259 97.523 L 399.184 99.168 L 402.118 100.924 L 405.060 102.792 L 408.007 104.773 L 410.959 106.868 L 413.914 109.077 L 416.868 111.402 L 419.822 113.842 L 422.772 116.398 L 425.716 119.071 L 429.012 122.201 L 429.822 122.952 L 430.650 123.682 L 431.496 124.392 L 432.359 125.081 L 433.239 125.749 L 434.135 126.395 L 435.047 127.018 L 435.973 127.619 L 436.914 128.198 L 437.869 128.753 L 438.837 129.284 L 439.818 129.791 L 440.812 130.274 L 441.816 130.733 L 442.832 131.167 L 443.858 131.576 L 444.894 131.959 L 445.938 132.317 L 446.992 132.649 L 448.053 132.956 L 449.121 133.236 L 450.196 133.490 L 451.277 133.717 L 452.363 133.918 L 453.453 134.092 L 454.548 134.239 L 455.646 134.359 L 456.746 134.453 L 457.849 134.519 L 458.953 134.558 L 460.057 134.571 L 461.161 134.556 L 462.265 134.514 L 463.367 134.444 L 464.467 134.348 L 465.565 134.225 L 466.659 134.075 L 467.749 133.898 L 468.835 133.695 L 469.915 133.465 L 470.989 133.208 L 472.057 132.925 L 473.117 132.616 L 474.170 132.281 L 475.214 131.921 L 476.248 131.535 L 477.273 131.123 L 478.288 130.687 L 479.291 130.226 L 480.283 129.740 L 481.263 129.230 L 482.230 128.696 L 483.183 128.139 L 484.123 127.559 L 485.048 126.955 L 485.958 126.329 L 486.852 125.681 L 487.730 125.011 L 488.592 124.320 L 489.436 123.608 L 490.262 122.875 L 491.071 122.122 L 491.860 121.350 L 492.630 120.559 L 493.381 119.749 L 494.112 118.920 L 494.822 118.074 L 495.511 117.211 L 496.178 116.331 L 496.824 115.435 L 497.448 114.524 L 498.049 113.597 L 498.627 112.656 L 499.182 111.701 L 499.713 110.733 L 500.221 109.752 L 500.704 108.759 L 501.162 107.754 L 501.596 106.739 L 502.005 105.713 L 502.389 104.677 L 502.747 103.632 L 503.079 102.579 L 503.385 101.518 L 503.665 100.449 L 503.919 99.375 L 504.146 98.294 L 504.347 97.208 L 504.521 96.117 L 504.669 95.023 L 504.789 93.925 L 504.882 92.824 L 504.949 91.722 L 504.988 90.618 L 505.000 89.514 L 504.985 88.409 L 504.943 87.306 L 504.874 86.203 L 504.778 85.103 L 504.655 84.006 L 504.505 82.911 L 504.328 81.821 L 504.124 80.736 L 503.894 79.656 L 503.638 78.581 L 503.355 77.514 L 503.046 76.453 L 502.711 75.401 L 502.350 74.357 L 501.964 73.322 L 501.553 72.297 L 501.116 71.283 L 500.655 70.279 L 500.169 69.287 L 499.660 68.308 L 499.126 67.341 L 498.568 66.387 L 497.988 65.448 L 497.384 64.523 L 496.759 63.613 L 496.110 62.718 L 495.441 61.840 L 494.749 60.979 L 494.037 60.135 L 493.305 59.308 L 492.552 58.500 L 491.780 57.711 L 490.988 56.940 L 487.324 53.461 L 486.581 52.770 Z" fill="black" fill-rule="evenodd"/>
</svg>
