<svg xmlns="http://www.w3.org/2000/svg" viewBox="0 0 700.000 1000.000">
  <path d="M 612.208,453.854 L 614.411,454.017 L 616.603,454.287 L 618.779,454.665 L 620.934,455.149 L 623.063,455.738 L 625.160,456.431 L 627.221,457.225 L 629.240,458.120 L 631.213,459.114 L 633.135,460.202 L 635.001,461.384 L 636.806,462.656 L 638.548,464.015 L 640.220,465.457 L 641.820,466.980 L 643.343,468.580 L 644.785,470.252 L 646.144,471.994 L 647.416,473.799 L 648.598,475.665 L 649.686,477.587 L 650.680,479.560 L 651.575,481.579 L 652.369,483.640 L 653.062,485.737 L 653.651,487.866 L 654.135,490.021 L 654.513,492.197 L 654.783,494.389 L 654.946,496.592 L 655.000,498.800 L 654.946,501.008 L 654.783,503.211 L 654.513,505.403 L 654.135,507.579 L 653.651,509.734 L 653.062,511.863 L 652.369,513.960 L 651.575,516.021 L 650.680,518.040 L 649.686,520.013 L 648.598,521.935 L 647.416,523.801 L 646.144,525.606 L 644.785,527.348 L 643.343,529.020 L 641.820,530.620 L 640.220,532.143 L 638.548,533.585 L 636.806,534.944 L 635.001,536.216 L 633.135,537.398 L 631.213,538.486 L 629.240,539.480 L 627.221,540.375 L 625.160,541.169 L 623.063,541.862 L 620.934,542.451 L 618.779,542.935 L 616.603,543.313 L 614.411,543.583 L 612.208,543.746 L 610.000,543.800 L 350.000,543.800 L 347.792,543.746 L 345.589,543.583 L 343.397,543.313 L 341.221,542.935 L 339.066,542.451 L 336.937,541.862 L 334.840,541.169 L 332.779,540.375 L 330.760,539.480 L 328.787,538.486 L 326.865,537.398 L 324.999,536.216 L 323.194,534.944 L 321.452,533.585 L 319.780,532.143 L 318.180,530.620 L 316.657,529.020 L 315.215,527.348 L 313.856,525.606 L 312.584,523.801 L 311.402,521.935 L 310.314,520.013 L 309.320,518.040 L 308.425,516.021 L 307.631,513.960 L 306.938,511.863 L 306.349,509.734 L 305.865,507.579 L 305.487,505.403 L 305.217,503.211 L 305.054,501.008 L 305.000,498.800 L 305.054,496.592 L 305.217,494.389 L 305.487,492.197 L 305.865,490.021 L 306.349,487.866 L 306.938,485.737 L 307.631,483.640 L 308.425,481.579 L 309.320,479.560 L 310.314,477.587 L 311.402,475.665 L 312.584,473.799 L 313.856,471.994 L 315.215,470.252 L 316.657,468.580 L 318.180,466.980 L 319.780,465.457 L 321.452,464.015 L 323.194,462.656 L 324.999,461.384 L 326.865,460.202 L 328.787,459.114 L 330.760,458.120 L 332.779,457.225 L 334.840,456.431 L 336.937,455.738 L 339.066,455.149 L 341.221,454.665 L 343.397,454.287 L 345.589,454.017 L 347.792,453.854 L 350.000,453.800 L 610.000,453.800 L 612.208,453.854 Z M 514.231,186.233 L 501.482,176.814 L 488.193,168.172 L 474.413,160.338 L 460.190,153.338 L 445.576,147.199 L 430.621,141.943 L 415.380,137.587 L 399.906,134.148 L 384.255,131.637 L 368.481,130.063 L 352.642,129.433 L 336.794,129.748 L 320.992,131.008 L 305.294,133.207 L 289.755,136.338 L 274.430,140.390 L 259.374,145.348 L 244.640,151.195 L 230.281,157.910 L 216.348,165.469 L 202.890,173.846 L 189.956,183.009 L 177.591,192.928 L 165.839,203.566 L 154.742,214.885 L 144.340,226.846 L 134.669,239.406 L 125.765,252.520 L 117.658,266.142 L 110.377,280.223 L 103.949,294.712 L 98.396,309.559 L 93.738,324.711 L 89.991,340.114 L 87.170,355.712 L 85.283,371.451 L 84.338,387.274 L 84.338,403.126 L 85.283,418.949 L 87.170,434.688 L 89.991,450.286 L 93.738,465.689 L 98.396,480.841 L 103.949,495.688 L 110.377,510.177 L 117.658,524.258 L 125.765,537.880 L 134.669,550.994 L 144.340,563.554 L 154.742,575.515 L 165.839,586.834 L 177.591,597.472 L 189.956,607.391 L 202.890,616.554 L 216.348,624.931 L 230.281,632.490 L 244.640,639.205 L 259.374,645.052 L 274.430,650.010 L 289.755,654.062 L 305.294,657.193 L 320.992,659.392 L 336.794,660.652 L 352.642,660.967 L 368.481,660.337 L 384.255,658.763 L 399.906,656.252 L 415.380,652.813 L 430.621,648.457 L 445.576,643.201 L 460.190,637.062 L 474.413,630.062 L 488.193,622.228 L 501.482,613.586 L 514.231,604.167 L 526.397,594.004 L 538.912,582.214 L 540.556,580.740 L 542.271,579.347 L 544.052,578.041 L 545.895,576.824 L 547.795,575.698 L 549.749,574.667 L 551.750,573.734 L 553.795,572.899 L 555.879,572.166 L 557.996,571.536 L 560.141,571.011 L 562.310,570.591 L 564.496,570.279 L 566.695,570.074 L 568.902,569.977 L 571.111,569.989 L 573.316,570.109 L 575.513,570.337 L 577.696,570.673 L 579.860,571.115 L 582.000,571.663 L 584.110,572.315 L 586.186,573.070 L 588.222,573.926 L 590.213,574.881 L 592.156,575.933 L 594.044,577.078 L 595.874,578.315 L 597.641,579.640 L 599.341,581.050 L 600.970,582.542 L 602.523,584.112 L 603.998,585.756 L 605.390,587.471 L 606.696,589.252 L 607.914,591.095 L 609.039,592.995 L 610.070,594.949 L 611.004,596.950 L 611.838,598.995 L 612.572,601.079 L 613.201,603.196 L 613.727,605.341 L 614.146,607.510 L 614.459,609.696 L 614.664,611.895 L 614.760,614.102 L 614.749,616.311 L 614.629,618.516 L 614.401,620.713 L 614.065,622.896 L 613.623,625.060 L 613.075,627.200 L 612.422,629.310 L 611.667,631.386 L 610.811,633.422 L 609.856,635.413 L 608.805,637.356 L 607.660,639.244 L 606.423,641.074 L 605.098,642.841 L 603.687,644.541 L 602.196,646.170 L 600.626,647.723 L 587.133,660.434 L 585.126,662.215 L 570.899,674.099 L 568.789,675.757 L 553.880,686.772 L 551.675,688.302 L 536.135,698.408 L 533.843,699.803 L 517.728,708.965 L 515.357,710.221 L 498.725,718.406 L 496.283,719.519 L 479.192,726.697 L 476.688,727.662 L 459.200,733.810 L 456.643,734.624 L 438.820,739.717 L 436.219,740.378 L 418.124,744.400 L 415.487,744.904 L 397.185,747.840 L 394.523,748.186 L 376.078,750.025 L 373.401,750.212 L 354.879,750.949 L 352.195,750.976 L 333.662,750.607 L 330.982,750.474 L 312.504,749.001 L 309.836,748.708 L 291.478,746.136 L 288.833,745.685 L 270.661,742.024 L 268.047,741.415 L 250.127,736.677 L 247.553,735.914 L 229.947,730.116 L 227.424,729.200 L 210.194,722.363 L 207.730,721.299 L 190.939,713.447 L 188.543,712.238 L 172.250,703.398 L 169.930,702.048 L 154.193,692.253 L 151.957,690.768 L 136.832,680.052 L 134.689,678.436 L 120.230,666.837 L 118.187,665.096 L 104.445,652.656 L 102.510,650.797 L 89.533,637.560 L 87.712,635.588 L 75.548,621.601 L 73.848,619.524 L 62.539,604.837 L 60.966,602.662 L 50.553,587.327 L 49.112,585.063 L 39.632,569.134 L 38.329,566.787 L 29.815,550.322 L 28.654,547.902 L 21.137,530.958 L 20.122,528.473 L 13.628,511.111 L 12.764,508.570 L 7.317,490.852 L 6.605,488.264 L 2.224,470.253 L 1.668,467.627 L -1.632,449.387 L -2.031,446.733 L -4.237,428.328 L -4.477,425.655 L -5.582,407.151 L -5.662,404.468 L -5.662,385.932 L -5.582,383.249 L -4.477,364.745 L -4.237,362.072 L -2.031,343.667 L -1.632,341.013 L 1.668,322.773 L 2.224,320.147 L 6.605,302.136 L 7.317,299.548 L 12.764,281.830 L 13.628,279.289 L 20.122,261.927 L 21.137,259.442 L 28.654,242.498 L 29.815,240.078 L 38.329,223.613 L 39.632,221.266 L 49.112,205.337 L 50.553,203.073 L 60.966,187.738 L 62.539,185.563 L 73.848,170.876 L 75.548,168.799 L 87.712,154.812 L 89.533,152.840 L 102.510,139.603 L 104.445,137.744 L 118.187,125.304 L 120.230,123.563 L 134.689,111.964 L 136.832,110.348 L 151.957,99.632 L 154.193,98.147 L 169.930,88.352 L 172.250,87.002 L 188.543,78.162 L 190.939,76.953 L 207.730,69.101 L 210.194,68.037 L 227.424,61.200 L 229.947,60.284 L 247.553,54.486 L 250.127,53.723 L 268.047,48.985 L 270.661,48.376 L 288.833,44.715 L 291.478,44.264 L 309.836,41.692 L 312.504,41.399 L 330.982,39.926 L 333.662,39.793 L 352.195,39.424 L 354.879,39.451 L 373.401,40.188 L 376.078,40.375 L 394.523,42.214 L 397.185,42.560 L 415.487,45.496 L 418.124,46.000 L 436.219,50.022 L 438.820,50.683 L 456.643,55.776 L 459.200,56.590 L 476.688,62.738 L 479.192,63.703 L 496.283,70.881 L 498.725,71.994 L 515.357,80.179 L 517.728,81.435 L 533.843,90.597 L 536.135,91.992 L 551.675,102.098 L 553.880,103.628 L 568.789,114.643 L 570.899,116.301 L 585.126,128.185 L 587.133,129.966 L 600.626,142.677 L 602.196,144.230 L 603.687,145.859 L 605.098,147.559 L 606.423,149.326 L 607.660,151.156 L 608.805,153.044 L 609.856,154.987 L 610.811,156.978 L 611.667,159.014 L 612.422,161.090 L 613.075,163.200 L 613.623,165.340 L 614.065,167.504 L 614.401,169.687 L 614.629,171.884 L 614.749,174.089 L 614.760,176.298 L 614.664,178.505 L 614.459,180.704 L 614.146,182.890 L 613.727,185.059 L 613.201,187.204 L 612.572,189.321 L 611.838,191.405 L 611.004,193.450 L 610.070,195.451 L 609.039,197.405 L 607.914,199.305 L 606.696,201.148 L 605.390,202.929 L 603.998,204.644 L 602.523,206.288 L 600.970,207.858 L 599.341,209.350 L 597.641,210.760 L 595.874,212.085 L 594.044,213.322 L 592.156,214.467 L 590.213,215.519 L 588.222,216.474 L 586.186,217.330 L 584.110,218.085 L 582.000,218.737 L 579.860,219.285 L 577.696,219.727 L 575.513,220.063 L 573.316,220.291 L 571.111,220.411 L 568.902,220.423 L 566.695,220.326 L 564.496,220.121 L 562.310,219.809 L 560.141,219.389 L 557.996,218.864 L 555.879,218.234 L 553.795,217.501 L 551.750,216.666 L 549.749,215.733 L 547.795,214.702 L 545.895,213.576 L 544.052,212.359 L 542.271,211.053 L 540.556,209.660 L 538.912,208.186 L 526.397,196.396 L 514.231,186.233 Z" fill="black" fill-rule="evenodd"/>
</svg>
