<svg xmlns="http://www.w3.org/2000/svg" viewBox="0 0 700.000 1000.000">
  <path d="M 305.000,40.000 L 305.054,37.792 L 305.217,35.589 L 305.487,33.397 L 305.865,31.221 L 306.349,29.066 L 306.938,26.937 L 307.631,24.840 L 308.425,22.779 L 309.320,20.760 L 310.314,18.787 L 311.402,16.865 L 312.584,14.999 L 313.856,13.194 L 315.215,11.452 L 316.657,9.780 L 318.180,8.180 L 319.780,6.657 L 321.452,5.215 L 323.194,3.856 L 324.999,2.584 L 326.865,1.402 L 328.787,0.314 L 330.760,-0.680 L 332.779,-1.575 L 334.840,-2.369 L 336.937,-3.062 L 339.066,-3.651 L 341.221,-4.135 L 343.397,-4.513 L 345.589,-4.783 L 347.792,-4.946 L 350.000,-5.000 L 352.208,-4.946 L 354.411,-4.783 L 356.603,-4.513 L 358.779,-4.135 L 360.934,-3.651 L 363.063,-3.062 L 365.160,-2.369 L 367.221,-1.575 L 369.240,-0.680 L 371.213,0.314 L 373.135,1.402 L 375.001,2.584 L 376.806,3.856 L 378.548,5.215 L 380.220,6.657 L 381.820,8.180 L 383.343,9.780 L 384.785,11.452 L 386.144,13.194 L 387.416,14.999 L 388.598,16.865 L 389.686,18.787 L 390.680,20.760 L 391.575,22.779 L 392.369,24.840 L 393.062,26.937 L 393.651,29.066 L 394.135,31.221 L 394.513,33.397 L 394.783,35.589 L 394.946,37.792 L 395.000,40.000 L 395.000,780.000 L 394.946,782.208 L 394.783,784.411 L 394.513,786.603 L 394.135,788.779 L 393.651,790.934 L 393.062,793.063 L 392.369,795.160 L 391.575,797.221 L 390.680,799.240 L 389.686,801.213 L 388.598,803.135 L 387.416,805.001 L 386.144,806.806 L 384.785,808.548 L 383.343,810.220 L 381.820,811.820 L 380.220,813.343 L 378.548,814.785 L 376.806,816.144 L 375.001,817.416 L 373.135,818.598 L 371.213,819.686 L 369.240,820.680 L 367.221,821.575 L 365.160,822.369 L 363.063,823.062 L 360.934,823.651 L 358.779,824.135 L 356.603,824.513 L 354.411,824.783 L 352.208,824.946 L 350.000,825.000 L 347.792,824.946 L 345.589,824.783 L 343.397,824.513 L 341.221,824.135 L 339.066,823.651 L 336.937,823.062 L 334.840,822.369 L 332.779,821.575 L 330.760,820.680 L 328.787,819.686 L 326.865,818.598 L 324.999,817.416 L 323.194,816.144 L 321.452,814.785 L 319.780,813.343 L 318.180,811.820 L 316.657,810.220 L 315.215,808.548 L 313.856,806.806 L 312.584,805.001 L 311.402,803.135 L 310.314,801.213 L 309.320,799.240 L 308.425,797.221 L 307.631,795.160 L 306.938,793.063 L 306.349,790.934 L 305.865,788.779 L 305.487,786.603 L 305.217,784.411 L 305.054,782.208 L 305.000,780.000 L 305.000,40.000 Z" fill="black" fill-rule="evenodd"/>
</svg>
