<svg xmlns="http://www.w3.org/2000/svg" width="700.000" height="1000" viewBox="0 0 700.000 1000">
  <path d="M 571.104 84.986 L 572.208 84.946 L 573.310 84.878 L 574.411 84.783 L 575.508 84.662 L 576.603 84.513 L 577.693 84.337 L 578.779 84.135 L 579.860 83.907 L 580.934 83.651 L 582.002 83.370 L 583.063 83.062 L 584.116 82.729 L 585.160 82.369 L 586.195 81.985 L 587.221 81.575 L 588.236 81.139 L 589.240 80.680 L 590.233 80.195 L 591.213 79.686 L 592.180 79.154 L 593.135 78.598 L 594.075 78.018 L 595.001 77.416 L 595.911 76.791 L 596.806 76.144 L 597.685 75.476 L 598.548 74.785 L 599.393 74.074 L 600.220 73.343 L 601.029 72.591 L 601.820 71.820 L 602.591 71.029 L 603.343 70.220 L 604.074 69.393 L 604.785 68.548 L 605.476 67.685 L 606.144 66.806 L 606.791 65.911 L 607.416 65.001 L 608.018 64.075 L 608.598 63.135 L 609.154 62.180 L 609.686 61.213 L 610.195 60.233 L 610.680 59.240 L 611.139 58.236 L 611.575 57.221 L 611.985 56.195 L 612.369 55.160 L 612.729 54.116 L 613.062 53.063 L 613.370 52.002 L 613.651 50.934 L 613.907 49.860 L 614.135 48.779 L 614.337 47.693 L 614.513 46.603 L 614.662 45.508 L 614.783 44.411 L 614.878 43.310 L 614.946 42.208 L 614.986 41.104 L 615.000 40.000 L 614.986 38.896 L 614.946 37.792 L 614.878 36.690 L 614.783 35.589 L 614.662 34.492 L 614.513 33.397 L 614.337 32.307 L 614.135 31.221 L 613.907 30.140 L 613.651 29.066 L 613.370 27.998 L 613.062 26.937 L 612.729 25.884 L 612.369 24.840 L 611.985 23.805 L 611.575 22.779 L 611.139 21.764 L 610.680 20.760 L 610.195 19.767 L 609.686 18.787 L 609.154 17.820 L 608.598 16.865 L 608.018 15.925 L 607.416 14.999 L 606.791 14.089 L 606.144 13.194 L 605.476 12.315 L 604.785 11.452 L 604.074 10.607 L 603.343 9.780 L 602.591 8.971 L 601.820 8.180 L 601.029 7.409 L 600.220 6.657 L 599.393 5.926 L 598.548 5.215 L 597.685 4.524 L 596.806 3.856 L 595.911 3.209 L 595.001 2.584 L 594.075 1.982 L 593.135 1.402 L 592.180 0.846 L 591.213 0.314 L 590.233 -0.195 L 589.240 -0.680 L 588.236 -1.139 L 587.221 -1.575 L 586.195 -1.985 L 585.160 -2.369 L 584.116 -2.729 L 583.063 -3.062 L 582.002 -3.370 L 580.934 -3.651 L 579.860 -3.907 L 578.779 -4.135 L 577.693 -4.337 L 576.603 -4.513 L 575.508 -4.662 L 574.411 -4.783 L 573.310 -4.878 L 572.208 -4.946 L 571.104 -4.986 L 570.000 -5.000 L 130.000 -5.000 L 128.896 -4.986 L 127.792 -4.946 L 126.690 -4.878 L 125.589 -4.783 L 125.390 -4.761 L 124.492 -4.662 L 123.740 -4.560 L 123.397 -4.513 L 122.307 -4.337 L 121.221 -4.135 L 120.598 -4.003 L 120.140 -3.907 L 119.066 -3.651 L 117.998 -3.370 L 117.383 -3.192 L 116.937 -3.062 L 115.884 -2.729 L 114.840 -2.369 L 113.805 -1.985 L 112.779 -1.575 L 112.054 -1.264 L 111.764 -1.139 L 110.760 -0.680 L 110.246 -0.429 L 109.767 -0.195 L 108.787 0.314 L 107.820 0.846 L 106.865 1.402 L 106.688 1.511 L 105.925 1.982 L 104.999 2.584 L 104.089 3.209 L 103.723 3.473 L 103.194 3.856 L 102.315 4.524 L 101.851 4.896 L 101.452 5.215 L 100.607 5.926 L 99.780 6.657 L 98.971 7.409 L 98.341 8.023 L 98.180 8.180 L 97.813 8.557 L 97.409 8.971 L 96.657 9.780 L 96.146 10.357 L 95.926 10.607 L 95.215 11.452 L 94.524 12.315 L 94.143 12.816 L 93.856 13.194 L 93.392 13.835 L 93.209 14.089 L 92.584 14.999 L 91.982 15.925 L 91.402 16.865 L 91.159 17.282 L 90.846 17.820 L 90.533 18.388 L 90.314 18.787 L 89.805 19.767 L 89.514 20.363 L 89.320 20.760 L 89.137 21.162 L 88.861 21.764 L 88.721 22.090 L 88.425 22.779 L 88.015 23.805 L 87.631 24.840 L 87.463 25.328 L 87.271 25.884 L 87.185 26.156 L 86.938 26.937 L 86.702 27.749 L 86.630 27.998 L 86.349 29.066 L 86.093 30.140 L 85.865 31.221 L 85.743 31.872 L 85.663 32.307 L 85.604 32.670 L 85.487 33.397 L 85.338 34.492 L 85.326 34.607 L 85.217 35.589 L 85.136 36.522 L 85.122 36.690 L 85.054 37.792 L 85.014 38.896 L 85.000 40.000 L 85.000 40.000 L 85.000 410.000 L 85.000 780.000 L 85.014 781.104 L 85.054 782.208 L 85.122 783.310 L 85.217 784.411 L 85.338 785.508 L 85.487 786.603 L 85.663 787.693 L 85.865 788.779 L 86.093 789.860 L 86.349 790.934 L 86.630 792.002 L 86.938 793.063 L 87.271 794.116 L 87.631 795.160 L 88.015 796.195 L 88.425 797.221 L 88.861 798.236 L 89.320 799.240 L 89.805 800.233 L 90.314 801.213 L 90.846 802.180 L 91.402 803.135 L 91.982 804.075 L 92.584 805.001 L 93.209 805.911 L 93.856 806.806 L 94.524 807.685 L 95.215 808.548 L 95.926 809.393 L 96.657 810.220 L 97.409 811.029 L 98.180 811.820 L 98.971 812.591 L 99.780 813.343 L 100.607 814.074 L 101.452 814.785 L 102.315 815.476 L 103.194 816.144 L 104.089 816.791 L 104.999 817.416 L 105.925 818.018 L 106.865 818.598 L 107.820 819.154 L 108.787 819.686 L 109.767 820.195 L 110.760 820.680 L 111.764 821.139 L 112.779 821.575 L 113.805 821.985 L 114.840 822.369 L 115.884 822.729 L 116.937 823.062 L 117.998 823.370 L 119.066 823.651 L 120.140 823.907 L 121.221 824.135 L 122.307 824.337 L 123.397 824.513 L 124.492 824.662 L 125.589 824.783 L 126.690 824.878 L 127.792 824.946 L 128.896 824.986 L 130.000 825.000 L 131.104 824.986 L 132.208 824.946 L 133.310 824.878 L 134.411 824.783 L 135.508 824.662 L 136.603 824.513 L 137.693 824.337 L 138.779 824.135 L 139.860 823.907 L 140.934 823.651 L 142.002 823.370 L 143.063 823.062 L 144.116 822.729 L 145.160 822.369 L 146.195 821.985 L 147.221 821.575 L 148.236 821.139 L 149.240 820.680 L 150.233 820.195 L 151.213 819.686 L 152.180 819.154 L 153.135 818.598 L 154.075 818.018 L 155.001 817.416 L 155.911 816.791 L 156.806 816.144 L 157.685 815.476 L 158.548 814.785 L 159.393 814.074 L 160.220 813.343 L 161.029 812.591 L 161.820 811.820 L 162.591 811.029 L 163.343 810.220 L 164.074 809.393 L 164.785 808.548 L 165.476 807.685 L 166.144 806.806 L 166.791 805.911 L 167.416 805.001 L 168.018 804.075 L 168.598 803.135 L 169.154 802.180 L 169.686 801.213 L 170.195 800.233 L 170.680 799.240 L 171.139 798.236 L 171.575 797.221 L 171.985 796.195 L 172.369 795.160 L 172.729 794.116 L 173.062 793.063 L 173.370 792.002 L 173.651 790.934 L 173.907 789.860 L 174.135 788.779 L 174.337 787.693 L 174.513 786.603 L 174.662 785.508 L 174.783 784.411 L 174.878 783.310 L 174.946 782.208 L 174.986 781.104 L 175.000 780.000 L 175.000 455.000 L 500.000 455.000 L 501.104 454.986 L 502.208 454.946 L 503.310 454.878 L 504.411 454.783 L 505.508 454.662 L 506.603 454.513 L 507.693 454.337 L 508.779 454.135 L 509.860 453.907 L 510.934 453.651 L 512.002 453.370 L 513.063 453.062 L 514.116 452.729 L 515.160 452.369 L 516.195 451.985 L 517.221 451.575 L 518.236 451.139 L 519.240 450.680 L 520.233 450.195 L 521.213 449.686 L 522.180 449.154 L 523.135 448.598 L 524.075 448.018 L 525.001 447.416 L 525.911 446.791 L 526.806 446.144 L 527.685 445.476 L 528.548 444.785 L 529.393 444.074 L 530.220 443.343 L 531.029 442.591 L 531.820 441.820 L 532.591 441.029 L 533.343 440.220 L 534.074 439.393 L 534.785 438.548 L 535.476 437.685 L 536.144 436.806 L 536.791 435.911 L 537.416 435.001 L 538.018 434.075 L 538.598 433.135 L 539.154 432.180 L 539.686 431.213 L 540.195 430.233 L 540.680 429.240 L 541.139 428.236 L 541.575 427.221 L 541.985 426.195 L 542.369 425.160 L 542.729 424.116 L 543.062 423.063 L 543.370 422.002 L 543.651 420.934 L 543.907 419.860 L 544.135 418.779 L 544.337 417.693 L 544.513 416.603 L 544.662 415.508 L 544.783 414.411 L 544.878 413.310 L 544.946 412.208 L 544.986 411.104 L 545.000 410.000 L 544.986 408.896 L 544.946 407.792 L 544.878 406.690 L 544.783 405.589 L 544.662 404.492 L 544.513 403.397 L 544.337 402.307 L 544.135 401.221 L 543.907 400.140 L 543.651 399.066 L 543.370 397.998 L 543.062 396.937 L 542.729 395.884 L 542.369 394.840 L 541.985 393.805 L 541.575 392.779 L 541.139 391.764 L 540.680 390.760 L 540.195 389.767 L 539.686 388.787 L 539.154 387.820 L 538.598 386.865 L 538.018 385.925 L 537.416 384.999 L 536.791 384.089 L 536.144 383.194 L 535.476 382.315 L 534.785 381.452 L 534.074 380.607 L 533.343 379.780 L 532.591 378.971 L 531.820 378.180 L 531.029 377.409 L 530.220 376.657 L 529.393 375.926 L 528.548 375.215 L 527.685 374.524 L 526.806 373.856 L 525.911 373.209 L 525.001 372.584 L 524.075 371.982 L 523.135 371.402 L 522.180 370.846 L 521.213 370.314 L 520.233 369.805 L 519.240 369.320 L 518.236 368.861 L 517.221 368.425 L 516.195 368.015 L 515.160 367.631 L 514.116 367.271 L 513.063 366.938 L 512.002 366.630 L 510.934 366.349 L 509.860 366.093 L 508.779 365.865 L 507.693 365.663 L 506.603 365.487 L 505.508 365.338 L 504.411 365.217 L 503.310 365.122 L 502.208 365.054 L 501.104 365.014 L 500.000 365.000 L 175.000 365.000 L 175.000 85.000 L 570.000 85.000 L 571.104 84.986 Z" fill="black" fill-rule="evenodd"/>
</svg>
