<svg xmlns="http://www.w3.org/2000/svg" viewBox="0 0 700.000 1000">
  <path d="M 614.998 259.555 L 614.955 255.209 L 614.937 254.320 L 614.808 249.975 L 614.773 249.087 L 614.559 244.745 L 614.506 243.858 L 614.206 239.521 L 614.136 238.635 L 613.750 234.305 L 613.662 233.420 L 613.190 229.099 L 613.085 228.216 L 612.529 223.905 L 612.406 223.025 L 611.764 218.726 L 611.624 217.848 L 610.898 213.562 L 610.740 212.687 L 609.929 208.416 L 609.755 207.545 L 608.859 203.291 L 608.668 202.423 L 607.688 198.188 L 607.480 197.324 L 606.417 193.109 L 606.191 192.249 L 605.045 188.056 L 604.802 187.200 L 603.574 183.031 L 603.314 182.180 L 602.004 178.036 L 601.727 177.191 L 600.335 173.073 L 600.042 172.234 L 598.569 168.144 L 598.259 167.311 L 596.706 163.251 L 596.380 162.424 L 594.746 158.396 L 594.404 157.575 L 592.691 153.580 L 592.332 152.766 L 590.541 148.806 L 590.166 147.999 L 588.297 144.075 L 587.907 143.276 L 585.960 139.390 L 585.554 138.599 L 583.531 134.751 L 583.110 133.969 L 581.011 130.162 L 580.574 129.388 L 578.401 125.623 L 577.949 124.858 L 575.701 121.137 L 575.234 120.380 L 572.914 116.705 L 572.432 115.958 L 570.039 112.329 L 569.542 111.591 L 567.079 108.010 L 566.567 107.283 L 564.033 103.751 L 563.508 103.034 L 560.904 99.553 L 560.365 98.846 L 557.693 95.417 L 557.140 94.721 L 554.401 91.346 L 553.834 90.661 L 551.029 87.340 L 550.449 86.667 L 547.579 83.402 L 546.985 82.740 L 544.051 79.533 L 543.444 78.883 L 540.448 75.734 L 539.828 75.097 L 536.770 72.008 L 536.138 71.382 L 533.019 68.354 L 532.375 67.741 L 529.197 64.776 L 528.541 64.176 L 525.305 61.274 L 524.637 60.686 L 521.344 57.849 L 520.665 57.275 L 517.317 54.503 L 516.627 53.943 L 513.224 51.237 L 512.523 50.691 L 509.068 48.053 L 508.356 47.521 L 504.849 44.952 L 504.127 44.434 L 500.571 41.935 L 499.838 41.431 L 496.233 39.002 L 495.490 38.513 L 491.838 36.156 L 491.086 35.682 L 487.388 33.398 L 486.627 32.938 L 482.884 30.727 L 482.114 30.283 L 478.328 28.147 L 477.550 27.718 L 473.722 25.657 L 472.935 25.243 L 469.068 23.258 L 468.273 22.860 L 464.368 20.952 L 463.565 20.569 L 459.622 18.739 L 458.812 18.372 L 454.834 16.620 L 454.017 16.270 L 450.005 14.596 L 449.182 14.262 L 445.137 12.668 L 444.307 12.351 L 440.232 10.837 L 439.396 10.536 L 435.292 9.103 L 434.450 8.818 L 430.318 7.467 L 429.471 7.199 L 425.313 5.929 L 424.460 5.678 L 420.279 4.491 L 419.421 4.257 L 415.217 3.152 L 414.355 2.935 L 410.130 1.914 L 409.263 1.714 L 405.019 0.776 L 404.149 0.593 L 399.887 -0.260 L 399.013 -0.426 L 394.735 -1.195 L 393.858 -1.344 L 389.566 -2.028 L 388.686 -2.159 L 384.381 -2.758 L 383.499 -2.872 L 379.183 -3.386 L 378.299 -3.483 L 373.974 -3.912 L 373.088 -3.990 L 368.755 -4.334 L 367.868 -4.395 L 363.529 -4.653 L 362.641 -4.697 L 358.297 -4.868 L 357.408 -4.895 L 353.062 -4.980 L 352.173 -4.989 L 347.827 -4.989 L 346.938 -4.980 L 342.592 -4.895 L 341.703 -4.868 L 337.359 -4.697 L 336.471 -4.653 L 332.132 -4.395 L 331.245 -4.334 L 326.912 -3.990 L 326.026 -3.912 L 321.701 -3.483 L 320.817 -3.386 L 316.501 -2.872 L 315.619 -2.758 L 311.314 -2.159 L 310.434 -2.028 L 306.142 -1.344 L 305.265 -1.195 L 300.987 -0.426 L 300.113 -0.260 L 295.851 0.593 L 294.981 0.776 L 290.737 1.714 L 289.870 1.914 L 285.645 2.935 L 284.783 3.152 L 280.579 4.257 L 279.721 4.491 L 275.540 5.678 L 274.687 5.929 L 270.529 7.199 L 269.682 7.467 L 265.550 8.818 L 264.708 9.103 L 260.604 10.536 L 259.768 10.837 L 255.693 12.351 L 254.863 12.668 L 250.818 14.262 L 249.995 14.596 L 245.983 16.270 L 245.166 16.620 L 241.188 18.372 L 240.378 18.739 L 236.435 20.569 L 235.632 20.952 L 231.727 22.860 L 230.932 23.258 L 227.065 25.243 L 226.278 25.657 L 222.450 27.718 L 221.672 28.147 L 217.886 30.283 L 217.116 30.727 L 213.373 32.938 L 212.612 33.398 L 208.914 35.682 L 208.162 36.156 L 204.510 38.513 L 203.767 39.002 L 200.162 41.431 L 199.429 41.935 L 195.873 44.434 L 195.151 44.952 L 191.644 47.521 L 190.932 48.053 L 187.477 50.691 L 186.776 51.237 L 183.373 53.943 L 182.683 54.503 L 179.335 57.275 L 178.656 57.849 L 175.363 60.686 L 174.695 61.274 L 171.459 64.176 L 170.803 64.776 L 167.625 67.741 L 166.981 68.354 L 163.862 71.382 L 163.230 72.008 L 160.172 75.097 L 159.552 75.734 L 156.556 78.883 L 155.949 79.533 L 153.015 82.740 L 152.421 83.402 L 149.551 86.667 L 148.971 87.340 L 146.166 90.661 L 145.599 91.346 L 142.860 94.721 L 142.307 95.417 L 139.635 98.846 L 139.096 99.553 L 136.492 103.034 L 135.967 103.751 L 133.433 107.283 L 132.921 108.010 L 130.458 111.591 L 129.961 112.329 L 127.568 115.958 L 127.086 116.705 L 124.766 120.380 L 124.299 121.137 L 122.051 124.858 L 121.599 125.623 L 119.426 129.388 L 118.989 130.162 L 116.890 133.969 L 116.469 134.751 L 114.446 138.599 L 114.040 139.390 L 112.093 143.276 L 111.703 144.075 L 109.834 147.999 L 109.459 148.806 L 107.668 152.766 L 107.309 153.580 L 105.596 157.575 L 105.254 158.396 L 103.620 162.424 L 103.294 163.251 L 101.741 167.311 L 101.431 168.144 L 99.958 172.234 L 99.665 173.073 L 98.273 177.191 L 97.996 178.036 L 96.686 182.180 L 96.426 183.031 L 95.198 187.200 L 94.955 188.056 L 93.809 192.249 L 93.583 193.109 L 92.520 197.324 L 92.312 198.188 L 91.332 202.423 L 91.141 203.291 L 90.245 207.545 L 90.071 208.416 L 89.260 212.687 L 89.102 213.562 L 88.376 217.848 L 88.236 218.726 L 87.594 223.025 L 87.471 223.905 L 86.915 228.216 L 86.810 229.099 L 86.338 233.420 L 86.250 234.305 L 85.864 238.635 L 85.794 239.521 L 85.494 243.858 L 85.441 244.745 L 85.227 249.087 L 85.192 249.975 L 85.063 254.320 L 85.045 255.209 L 85.002 259.555 L 85.004 259.778 L 85.000 260.000 L 85.000 450.000 L 85.000 780.000 L 85.024 781.472 L 85.096 782.943 L 85.217 784.411 L 85.385 785.874 L 85.601 787.330 L 85.865 788.779 L 86.176 790.218 L 86.533 791.647 L 86.938 793.063 L 87.388 794.465 L 87.884 795.851 L 88.425 797.221 L 89.011 798.572 L 89.641 799.903 L 90.314 801.213 L 91.029 802.500 L 91.786 803.763 L 92.584 805.001 L 93.422 806.211 L 94.299 807.394 L 95.215 808.548 L 96.167 809.671 L 97.156 810.762 L 98.180 811.820 L 99.238 812.844 L 100.329 813.833 L 101.452 814.785 L 102.606 815.701 L 103.789 816.578 L 104.999 817.416 L 106.237 818.214 L 107.500 818.971 L 108.787 819.686 L 110.097 820.359 L 111.428 820.989 L 112.779 821.575 L 114.149 822.116 L 115.535 822.612 L 116.937 823.062 L 118.353 823.467 L 119.782 823.824 L 121.221 824.135 L 122.670 824.399 L 124.126 824.615 L 125.589 824.783 L 127.057 824.904 L 128.528 824.976 L 130.000 825.000 L 131.472 824.976 L 132.943 824.904 L 134.411 824.783 L 135.874 824.615 L 137.330 824.399 L 138.779 824.135 L 140.218 823.824 L 141.647 823.467 L 143.063 823.062 L 144.465 822.612 L 145.851 822.116 L 147.221 821.575 L 148.572 820.989 L 149.903 820.359 L 151.213 819.686 L 152.500 818.971 L 153.763 818.214 L 155.001 817.416 L 156.211 816.578 L 157.394 815.701 L 158.548 814.785 L 159.671 813.833 L 160.762 812.844 L 161.820 811.820 L 162.844 810.762 L 163.833 809.671 L 164.785 808.548 L 165.701 807.394 L 166.578 806.211 L 167.416 805.001 L 168.214 803.763 L 168.971 802.500 L 169.686 801.213 L 170.359 799.903 L 170.989 798.572 L 171.575 797.221 L 172.116 795.851 L 172.612 794.465 L 173.062 793.063 L 173.467 791.647 L 173.824 790.218 L 174.135 788.779 L 174.399 787.330 L 174.615 785.874 L 174.783 784.411 L 174.904 782.943 L 174.976 781.472 L 175.000 780.000 L 175.000 495.000 L 525.000 495.000 L 525.000 780.000 L 525.024 781.472 L 525.096 782.943 L 525.217 784.411 L 525.385 785.874 L 525.601 787.330 L 525.865 788.779 L 526.176 790.218 L 526.533 791.647 L 526.938 793.063 L 527.388 794.465 L 527.884 795.851 L 528.425 797.221 L 529.011 798.572 L 529.641 799.903 L 530.314 801.213 L 531.029 802.500 L 531.786 803.763 L 532.584 805.001 L 533.422 806.211 L 534.299 807.394 L 535.215 808.548 L 536.167 809.671 L 537.156 810.762 L 538.180 811.820 L 539.238 812.844 L 540.329 813.833 L 541.452 814.785 L 542.606 815.701 L 543.789 816.578 L 544.999 817.416 L 546.237 818.214 L 547.500 818.971 L 548.787 819.686 L 550.097 820.359 L 551.428 820.989 L 552.779 821.575 L 554.149 822.116 L 555.535 822.612 L 556.937 823.062 L 558.353 823.467 L 559.782 823.824 L 561.221 824.135 L 562.670 824.399 L 564.126 824.615 L 565.589 824.783 L 567.057 824.904 L 568.528 824.976 L 570.000 825.000 L 571.472 824.976 L 572.943 824.904 L 574.411 824.783 L 575.874 824.615 L 577.330 824.399 L 578.779 824.135 L 580.218 823.824 L 581.647 823.467 L 583.063 823.062 L 584.465 822.612 L 585.851 822.116 L 587.221 821.575 L 588.572 820.989 L 589.903 820.359 L 591.213 819.686 L 592.500 818.971 L 593.763 818.214 L 595.001 817.416 L 596.211 816.578 L 597.394 815.701 L 598.548 814.785 L 599.671 813.833 L 600.762 812.844 L 601.820 811.820 L 602.844 810.762 L 603.833 809.671 L 604.785 808.548 L 605.701 807.394 L 606.578 806.211 L 607.416 805.001 L 608.214 803.763 L 608.971 802.500 L 609.686 801.213 L 610.359 799.903 L 610.989 798.572 L 611.575 797.221 L 612.116 795.851 L 612.612 794.465 L 613.062 793.063 L 613.467 791.647 L 613.824 790.218 L 614.135 788.779 L 614.399 787.330 L 614.615 785.874 L 614.783 784.411 L 614.904 782.943 L 614.976 781.472 L 615.000 780.000 L 615.000 450.000 L 615.000 260.000 L 614.996 259.778 L 614.998 259.555 Z M 175.310 249.633 L 175.548 246.184 L 175.855 242.740 L 176.230 239.302 L 176.673 235.873 L 177.184 232.454 L 177.762 229.045 L 178.407 225.648 L 179.119 222.264 L 179.898 218.895 L 180.743 215.543 L 181.655 212.207 L 182.632 208.891 L 183.674 205.594 L 184.782 202.318 L 185.954 199.065 L 187.190 195.836 L 188.489 192.632 L 189.852 189.454 L 191.277 186.304 L 192.764 183.182 L 194.312 180.091 L 195.921 177.031 L 197.590 174.003 L 199.319 171.008 L 201.107 168.049 L 202.953 165.125 L 204.856 162.238 L 206.816 159.389 L 208.831 156.580 L 210.902 153.811 L 213.027 151.084 L 215.206 148.399 L 217.437 145.758 L 219.720 143.161 L 222.054 140.610 L 224.438 138.105 L 226.871 135.648 L 229.351 133.240 L 231.879 130.881 L 234.454 128.572 L 237.073 126.315 L 239.736 124.110 L 242.442 121.958 L 245.191 119.860 L 247.980 117.817 L 250.809 115.829 L 253.677 113.897 L 256.582 112.023 L 259.524 110.206 L 262.501 108.447 L 265.512 106.748 L 268.557 105.109 L 271.633 103.530 L 274.740 102.012 L 277.876 100.556 L 281.040 99.162 L 284.231 97.831 L 287.448 96.564 L 290.689 95.360 L 293.953 94.220 L 297.240 93.145 L 300.547 92.135 L 303.873 91.191 L 307.217 90.312 L 310.578 89.500 L 313.954 88.755 L 317.345 88.076 L 320.748 87.464 L 324.162 86.920 L 327.587 86.443 L 331.020 86.034 L 334.461 85.693 L 337.908 85.420 L 341.359 85.216 L 344.814 85.079 L 348.271 85.011 L 351.729 85.011 L 355.186 85.079 L 358.641 85.216 L 362.092 85.420 L 365.539 85.693 L 368.980 86.034 L 372.413 86.443 L 375.838 86.920 L 379.252 87.464 L 382.655 88.076 L 386.046 88.755 L 389.422 89.500 L 392.783 90.312 L 396.127 91.191 L 399.453 92.135 L 402.760 93.145 L 406.047 94.220 L 409.311 95.360 L 412.552 96.564 L 415.769 97.831 L 418.960 99.162 L 422.124 100.556 L 425.260 102.012 L 428.367 103.530 L 431.443 105.109 L 434.488 106.748 L 437.499 108.447 L 440.476 110.206 L 443.418 112.023 L 446.323 113.897 L 449.191 115.829 L 452.020 117.817 L 454.809 119.860 L 457.558 121.958 L 460.264 124.110 L 462.927 126.315 L 465.546 128.572 L 468.121 130.881 L 470.649 133.240 L 473.129 135.648 L 475.562 138.105 L 477.946 140.610 L 480.280 143.161 L 482.563 145.758 L 484.794 148.399 L 486.973 151.084 L 489.098 153.811 L 491.169 156.580 L 493.184 159.389 L 495.144 162.238 L 497.047 165.125 L 498.893 168.049 L 500.681 171.008 L 502.410 174.003 L 504.079 177.031 L 505.688 180.091 L 507.236 183.182 L 508.723 186.304 L 510.148 189.454 L 511.511 192.632 L 512.810 195.836 L 514.046 199.065 L 515.218 202.318 L 516.326 205.594 L 517.368 208.891 L 518.345 212.207 L 519.257 215.543 L 520.102 218.895 L 520.881 222.264 L 521.593 225.648 L 522.238 229.045 L 522.816 232.454 L 523.327 235.873 L 523.770 239.302 L 524.145 242.740 L 524.452 246.184 L 524.690 249.633 L 524.861 253.086 L 524.964 256.543 L 525.000 260.222 L 525.000 405.000 L 175.000 405.000 L 175.000 260.222 L 175.036 256.543 L 175.139 253.086 L 175.310 249.633 Z" fill="black" fill-rule="evenodd"/>
</svg>
