<svg xmlns="http://www.w3.org/2000/svg" viewBox="0 0 700.000 1000.000">
  <path d="M 649.761,758.927 L 650.747,760.904 L 651.635,762.926 L 652.423,764.989 L 653.108,767.089 L 653.690,769.220 L 654.166,771.377 L 654.536,773.554 L 654.799,775.747 L 654.953,777.950 L 655.000,780.159 L 654.938,782.367 L 654.767,784.569 L 654.489,786.760 L 654.104,788.935 L 653.613,791.088 L 653.016,793.215 L 652.316,795.309 L 651.514,797.367 L 650.611,799.383 L 649.611,801.353 L 648.516,803.271 L 647.328,805.132 L 646.050,806.934 L 644.685,808.670 L 643.236,810.338 L 641.707,811.932 L 640.102,813.449 L 638.425,814.886 L 636.679,816.239 L 634.869,817.504 L 632.998,818.679 L 631.073,819.761 L 629.096,820.747 L 627.074,821.635 L 625.011,822.423 L 622.911,823.108 L 620.780,823.690 L 618.623,824.166 L 616.446,824.536 L 614.253,824.799 L 612.050,824.953 L 609.841,825.000 L 607.633,824.938 L 605.431,824.767 L 603.240,824.489 L 601.065,824.104 L 598.912,823.613 L 596.785,823.016 L 594.691,822.316 L 592.633,821.514 L 590.617,820.611 L 588.647,819.611 L 586.729,818.516 L 584.868,817.328 L 583.066,816.050 L 581.330,814.685 L 579.662,813.236 L 578.068,811.707 L 576.551,810.102 L 575.114,808.425 L 573.761,806.679 L 572.496,804.869 L 571.321,802.998 L 363.356,453.239 L 360.604,452.900 L 358.419,452.575 L 350.546,451.209 L 348.380,450.778 L 340.583,449.028 L 338.441,448.491 L 330.740,446.360 L 328.626,445.719 L 321.039,443.212 L 318.959,442.468 L 311.504,439.592 L 309.463,438.747 L 302.158,435.509 L 300.162,434.565 L 293.024,430.972 L 291.076,429.931 L 284.124,425.992 L 282.229,424.857 L 275.478,420.582 L 273.642,419.355 L 267.109,414.754 L 265.335,413.438 L 259.035,408.522 L 257.328,407.120 L 251.277,401.901 L 249.641,400.418 L 243.854,394.908 L 242.292,393.346 L 236.782,387.559 L 235.299,385.923 L 230.080,379.872 L 228.678,378.165 L 223.762,371.865 L 222.446,370.091 L 217.845,363.558 L 216.618,361.722 L 212.343,354.971 L 211.208,353.076 L 207.269,346.124 L 206.228,344.176 L 202.635,337.038 L 201.691,335.042 L 198.453,327.737 L 197.608,325.696 L 194.732,318.241 L 193.988,316.161 L 191.481,308.574 L 190.840,306.460 L 188.709,298.759 L 188.172,296.617 L 186.422,288.820 L 185.991,286.654 L 184.625,278.781 L 184.300,276.596 L 183.322,268.666 L 183.106,266.468 L 182.518,258.499 L 182.410,256.293 L 182.214,248.304 L 182.214,246.096 L 182.410,238.107 L 182.518,235.901 L 182.732,233.000 L 135.000,233.000 L 135.000,780.000 L 134.946,782.208 L 134.783,784.411 L 134.513,786.603 L 134.135,788.779 L 133.651,790.934 L 133.062,793.063 L 132.369,795.160 L 131.575,797.221 L 130.680,799.240 L 129.686,801.213 L 128.598,803.135 L 127.416,805.001 L 126.144,806.806 L 124.785,808.548 L 123.343,810.220 L 121.820,811.820 L 120.220,813.343 L 118.548,814.785 L 116.806,816.144 L 115.001,817.416 L 113.135,818.598 L 111.213,819.686 L 109.240,820.680 L 107.221,821.575 L 105.160,822.369 L 103.063,823.062 L 100.934,823.651 L 98.779,824.135 L 96.603,824.513 L 94.411,824.783 L 92.208,824.946 L 90.000,825.000 L 87.792,824.946 L 85.589,824.783 L 83.397,824.513 L 81.221,824.135 L 79.066,823.651 L 76.937,823.062 L 74.840,822.369 L 72.779,821.575 L 70.760,820.680 L 68.787,819.686 L 66.865,818.598 L 64.999,817.416 L 63.194,816.144 L 61.452,814.785 L 59.780,813.343 L 58.180,811.820 L 56.657,810.220 L 55.215,808.548 L 53.856,806.806 L 52.584,805.001 L 51.402,803.135 L 50.314,801.213 L 49.320,799.240 L 48.425,797.221 L 47.631,795.160 L 46.938,793.063 L 46.349,790.934 L 45.865,788.779 L 45.487,786.603 L 45.217,784.411 L 45.054,782.208 L 45.000,780.000 L 45.000,188.000 L 45.000,40.000 L 45.054,37.792 L 45.217,35.589 L 45.487,33.397 L 45.865,31.221 L 46.349,29.066 L 46.938,26.937 L 47.631,24.840 L 48.425,22.779 L 49.320,20.760 L 50.314,18.787 L 51.402,16.865 L 52.584,14.999 L 53.856,13.194 L 55.215,11.452 L 56.657,9.780 L 58.180,8.180 L 59.780,6.657 L 61.452,5.215 L 63.194,3.856 L 64.999,2.584 L 66.865,1.402 L 68.787,0.314 L 70.760,-0.680 L 72.779,-1.575 L 74.840,-2.369 L 76.937,-3.062 L 79.066,-3.651 L 81.221,-4.135 L 83.397,-4.513 L 85.589,-4.783 L 87.792,-4.946 L 90.000,-5.000 L 92.208,-4.946 L 94.411,-4.783 L 96.603,-4.513 L 98.779,-4.135 L 100.934,-3.651 L 103.063,-3.062 L 105.160,-2.369 L 107.221,-1.575 L 109.240,-0.680 L 111.213,0.314 L 113.135,1.402 L 115.001,2.584 L 116.806,3.856 L 118.548,5.215 L 120.220,6.657 L 121.820,8.180 L 123.343,9.780 L 124.785,11.452 L 126.144,13.194 L 127.416,14.999 L 128.598,16.865 L 129.686,18.787 L 130.680,20.760 L 131.575,22.779 L 132.369,24.840 L 133.062,26.937 L 133.651,29.066 L 134.135,31.221 L 134.513,33.397 L 134.783,35.589 L 134.946,37.792 L 135.000,40.000 L 135.000,143.000 L 210.258,143.000 L 211.208,141.324 L 212.343,139.429 L 216.618,132.678 L 217.845,130.842 L 222.446,124.309 L 223.762,122.535 L 228.678,116.235 L 230.080,114.528 L 235.299,108.477 L 236.782,106.841 L 242.292,101.054 L 243.854,99.492 L 249.641,93.982 L 251.277,92.499 L 257.328,87.280 L 259.035,85.878 L 265.335,80.962 L 267.109,79.646 L 273.642,75.045 L 275.478,73.818 L 282.229,69.543 L 284.124,68.408 L 291.076,64.469 L 293.024,63.428 L 300.162,59.835 L 302.158,58.891 L 309.463,55.653 L 311.504,54.808 L 318.959,51.932 L 321.039,51.188 L 328.626,48.681 L 330.740,48.040 L 338.441,45.909 L 340.583,45.372 L 348.380,43.622 L 350.546,43.191 L 358.419,41.825 L 360.604,41.500 L 368.534,40.522 L 370.732,40.306 L 378.701,39.718 L 380.907,39.610 L 388.896,39.414 L 391.104,39.414 L 399.093,39.610 L 401.299,39.718 L 409.268,40.306 L 411.466,40.522 L 419.396,41.500 L 421.581,41.825 L 429.454,43.191 L 431.620,43.622 L 439.417,45.372 L 441.559,45.909 L 449.260,48.040 L 451.374,48.681 L 458.961,51.188 L 461.041,51.932 L 468.496,54.808 L 470.537,55.653 L 477.842,58.891 L 479.838,59.835 L 486.976,63.428 L 488.924,64.469 L 495.876,68.408 L 497.771,69.543 L 504.522,73.818 L 506.358,75.045 L 512.891,79.646 L 514.665,80.962 L 520.965,85.878 L 522.672,87.280 L 528.723,92.499 L 530.359,93.982 L 536.146,99.492 L 537.708,101.054 L 543.218,106.841 L 544.701,108.477 L 549.920,114.528 L 551.322,116.235 L 556.238,122.535 L 557.554,124.309 L 562.155,130.842 L 563.382,132.678 L 567.657,139.429 L 568.792,141.324 L 572.731,148.276 L 573.772,150.224 L 577.365,157.362 L 578.309,159.358 L 581.547,166.663 L 582.392,168.704 L 585.268,176.159 L 586.012,178.239 L 588.519,185.826 L 589.160,187.940 L 591.291,195.641 L 591.828,197.783 L 593.578,205.580 L 594.009,207.746 L 595.375,215.619 L 595.700,217.804 L 596.678,225.734 L 596.894,227.932 L 597.482,235.901 L 597.590,238.107 L 597.786,246.096 L 597.786,248.304 L 597.590,256.293 L 597.482,258.499 L 596.894,266.468 L 596.678,268.666 L 595.700,276.596 L 595.375,278.781 L 594.009,286.654 L 593.578,288.820 L 591.828,296.617 L 591.291,298.759 L 589.160,306.460 L 588.519,308.574 L 586.012,316.161 L 585.268,318.241 L 582.392,325.696 L 581.547,327.737 L 578.309,335.042 L 577.365,337.038 L 573.772,344.176 L 572.731,346.124 L 568.792,353.076 L 567.657,354.971 L 563.382,361.722 L 562.155,363.558 L 557.554,370.091 L 556.238,371.865 L 551.322,378.165 L 549.920,379.872 L 544.701,385.923 L 543.218,387.559 L 537.708,393.346 L 536.146,394.908 L 530.359,400.418 L 528.723,401.901 L 522.672,407.120 L 520.965,408.522 L 514.665,413.438 L 512.891,414.754 L 506.358,419.355 L 504.522,420.582 L 497.771,424.857 L 495.876,425.992 L 488.924,429.931 L 486.976,430.972 L 479.838,434.565 L 477.842,435.509 L 470.537,438.747 L 468.496,439.592 L 461.544,442.274 L 648.679,757.002 L 649.761,758.927 Z M 506.512,229.917 L 505.523,224.221 L 504.257,218.580 L 502.715,213.008 L 500.901,207.519 L 498.820,202.125 L 496.478,196.840 L 493.878,191.676 L 491.029,186.646 L 487.936,181.761 L 484.607,177.035 L 481.050,172.477 L 477.274,168.099 L 473.288,163.912 L 469.101,159.926 L 464.723,156.150 L 460.165,152.593 L 455.439,149.264 L 450.554,146.171 L 445.524,143.322 L 440.360,140.722 L 435.075,138.380 L 429.681,136.299 L 424.192,134.485 L 418.620,132.943 L 412.979,131.677 L 407.283,130.688 L 401.545,129.981 L 395.780,129.555 L 390.000,129.414 L 384.220,129.555 L 378.455,129.981 L 372.717,130.688 L 367.021,131.677 L 361.380,132.943 L 355.808,134.485 L 350.319,136.299 L 344.925,138.380 L 339.640,140.722 L 335.115,143.000 L 390.000,143.000 L 392.208,143.054 L 394.411,143.217 L 396.603,143.487 L 398.779,143.865 L 400.934,144.349 L 403.063,144.938 L 405.160,145.631 L 407.221,146.425 L 409.240,147.320 L 411.213,148.314 L 413.135,149.402 L 415.001,150.584 L 416.806,151.856 L 418.548,153.215 L 420.220,154.657 L 421.820,156.180 L 423.343,157.780 L 424.785,159.452 L 426.144,161.194 L 427.416,162.999 L 428.598,164.865 L 429.686,166.787 L 430.680,168.760 L 431.575,170.779 L 432.369,172.840 L 433.062,174.937 L 433.651,177.066 L 434.135,179.221 L 434.513,181.397 L 434.783,183.589 L 434.946,185.792 L 435.000,188.000 L 434.946,190.208 L 434.783,192.411 L 434.513,194.603 L 434.135,196.779 L 433.651,198.934 L 433.062,201.063 L 432.369,203.160 L 431.575,205.221 L 430.680,207.240 L 429.686,209.213 L 428.598,211.135 L 427.416,213.001 L 426.144,214.806 L 424.785,216.548 L 423.343,218.220 L 421.820,219.820 L 420.220,221.343 L 418.548,222.785 L 416.806,224.144 L 415.001,225.416 L 413.135,226.598 L 411.213,227.686 L 409.240,228.680 L 407.221,229.575 L 405.160,230.369 L 403.063,231.062 L 400.934,231.651 L 398.779,232.135 L 396.603,232.513 L 394.411,232.783 L 392.208,232.946 L 390.000,233.000 L 273.108,233.000 L 272.781,235.655 L 272.355,241.420 L 272.214,247.200 L 272.355,252.980 L 272.781,258.745 L 273.488,264.483 L 274.477,270.179 L 275.743,275.820 L 277.285,281.392 L 279.099,286.881 L 281.180,292.275 L 283.522,297.560 L 286.122,302.724 L 288.971,307.754 L 292.064,312.639 L 295.393,317.365 L 298.950,321.923 L 302.726,326.301 L 306.712,330.488 L 310.899,334.474 L 315.277,338.250 L 319.835,341.807 L 324.561,345.136 L 329.446,348.229 L 334.476,351.078 L 339.640,353.678 L 344.925,356.020 L 350.319,358.101 L 355.808,359.915 L 361.380,361.457 L 367.021,362.723 L 372.717,363.712 L 378.455,364.419 L 384.220,364.845 L 390.000,364.986 L 395.780,364.845 L 401.545,364.419 L 407.283,363.712 L 412.979,362.723 L 418.620,361.457 L 424.192,359.915 L 429.681,358.101 L 435.075,356.020 L 440.360,353.678 L 445.524,351.078 L 450.554,348.229 L 455.439,345.136 L 460.165,341.807 L 464.723,338.250 L 469.101,334.474 L 473.288,330.488 L 477.274,326.301 L 481.050,321.923 L 484.607,317.365 L 487.936,312.639 L 491.029,307.754 L 493.878,302.724 L 496.478,297.560 L 498.820,292.275 L 500.901,286.881 L 502.715,281.392 L 504.257,275.820 L 505.523,270.179 L 506.512,264.483 L 507.219,258.745 L 507.645,252.980 L 507.786,247.200 L 507.645,241.420 L 507.219,235.655 L 506.512,229.917 Z" fill="black" fill-rule="evenodd"/>
</svg>
