<svg xmlns="http://www.w3.org/2000/svg" width="700.000" height="1000" viewBox="0 0 700.000 1000">
  <path d="M 516.016 45.026 L 515.428 45.034 L 511.679 45.108 L 511.113 45.123 L 507.298 45.246 L 506.752 45.267 L 502.875 45.440 L 502.347 45.467 L 498.410 45.688 L 497.898 45.720 L 493.903 45.991 L 493.406 46.027 L 489.355 46.347 L 488.872 46.388 L 484.769 46.756 L 484.298 46.801 L 480.145 47.218 L 479.685 47.267 L 475.484 47.732 L 475.033 47.784 L 470.787 48.298 L 470.346 48.354 L 466.057 48.916 L 465.624 48.974 L 461.295 49.585 L 460.869 49.647 L 456.502 50.305 L 456.083 50.370 L 451.680 51.076 L 451.267 51.144 L 446.832 51.898 L 446.423 51.969 L 441.957 52.770 L 441.552 52.845 L 437.059 53.694 L 436.658 53.771 L 432.140 54.667 L 431.742 54.748 L 427.201 55.692 L 426.804 55.776 L 422.243 56.766 L 421.849 56.854 L 417.270 57.891 L 416.877 57.982 L 412.282 59.066 L 411.890 59.161 L 407.283 60.292 L 406.891 60.390 L 402.273 61.567 L 401.881 61.669 L 397.256 62.893 L 396.862 62.999 L 392.232 64.270 L 391.837 64.380 L 387.204 65.697 L 386.808 65.811 L 382.175 67.174 L 381.776 67.293 L 377.145 68.702 L 376.744 68.826 L 372.117 70.281 L 371.713 70.410 L 367.094 71.910 L 366.686 72.045 L 362.077 73.591 L 361.665 73.731 L 357.068 75.323 L 356.652 75.469 L 352.069 77.106 L 351.649 77.259 L 347.083 78.941 L 346.657 79.100 L 342.112 80.827 L 341.680 80.994 L 337.157 82.766 L 336.719 82.940 L 332.220 84.757 L 331.776 84.940 L 327.305 86.802 L 326.854 86.992 L 322.412 88.899 L 321.953 89.099 L 317.544 91.050 L 317.078 91.259 L 312.703 93.255 L 312.228 93.474 L 307.891 95.514 L 307.408 95.745 L 303.110 97.829 L 302.618 98.071 L 298.362 100.199 L 297.860 100.454 L 293.650 102.625 L 293.138 102.893 L 288.975 105.109 L 288.453 105.391 L 284.339 107.650 L 283.806 107.947 L 279.745 110.250 L 279.201 110.563 L 275.194 112.909 L 274.639 113.239 L 270.690 115.628 L 270.123 115.977 L 266.233 118.409 L 265.654 118.777 L 261.827 121.253 L 261.236 121.641 L 257.473 124.160 L 256.870 124.571 L 253.174 127.132 L 252.558 127.566 L 248.932 130.170 L 248.304 130.629 L 244.750 133.276 L 244.109 133.762 L 240.630 136.451 L 239.976 136.965 L 236.574 139.696 L 235.908 140.242 L 232.586 143.015 L 231.908 143.592 L 228.668 146.407 L 227.978 147.019 L 224.823 149.876 L 224.122 150.524 L 221.054 153.423 L 220.343 154.109 L 217.365 157.049 L 216.645 157.776 L 213.759 160.758 L 213.031 161.528 L 210.240 164.551 L 209.506 165.366 L 206.812 168.431 L 206.073 169.292 L 203.479 172.398 L 202.738 173.309 L 200.245 176.456 L 199.504 177.418 L 197.117 180.606 L 196.378 181.621 L 194.098 184.850 L 193.365 185.919 L 191.194 189.189 L 190.471 190.314 L 188.412 193.624 L 187.701 194.807 L 185.758 198.157 L 185.064 199.397 L 183.237 202.788 L 182.565 204.085 L 180.858 207.516 L 180.212 208.871 L 178.627 212.341 L 178.012 213.752 L 176.552 217.263 L 175.973 218.727 L 174.640 222.278 L 174.101 223.794 L 172.898 227.384 L 172.405 228.949 L 171.334 232.578 L 171.106 233.380 L 170.892 234.187 L 169.956 237.856 L 169.754 238.678 L 169.568 239.503 L 168.769 243.212 L 168.597 244.051 L 168.440 244.893 L 167.781 248.640 L 167.639 249.493 L 167.514 250.348 L 166.997 254.135 L 166.887 254.998 L 166.795 255.864 L 166.422 259.689 L 166.346 260.559 L 166.286 261.431 L 166.061 265.295 L 166.019 266.169 L 165.993 267.043 L 165.918 270.946 L 165.909 271.868 L 165.920 272.790 L 166.024 277.632 L 166.056 278.623 L 166.111 279.613 L 166.421 284.337 L 166.499 285.346 L 166.599 286.352 L 167.111 290.961 L 167.236 291.981 L 167.384 292.998 L 168.093 297.493 L 168.266 298.518 L 168.464 299.538 L 169.364 303.922 L 169.586 304.944 L 169.831 305.960 L 170.919 310.236 L 171.188 311.247 L 171.481 312.251 L 172.750 316.423 L 173.065 317.415 L 173.402 318.400 L 174.849 322.469 L 175.206 323.436 L 175.584 324.394 L 177.204 328.363 L 177.598 329.299 L 178.013 330.226 L 179.801 334.097 L 180.229 334.996 L 180.675 335.885 L 182.627 339.662 L 183.081 340.520 L 183.555 341.367 L 185.665 345.053 L 186.141 345.865 L 186.635 346.668 L 188.899 350.264 L 189.392 351.030 L 189.900 351.786 L 192.313 355.295 L 192.817 356.013 L 193.335 356.721 L 195.892 360.146 L 196.401 360.815 L 196.923 361.475 L 199.620 364.819 L 200.652 366.052 L 203.484 369.318 L 204.507 370.458 L 207.469 373.647 L 208.476 374.697 L 211.564 377.814 L 212.549 378.778 L 215.757 381.824 L 216.715 382.706 L 220.039 385.684 L 220.965 386.491 L 224.401 389.403 L 225.291 390.139 L 228.834 392.989 L 229.687 393.658 L 233.331 396.448 L 234.144 397.056 L 237.885 399.789 L 238.657 400.340 L 242.491 403.018 L 243.221 403.518 L 247.142 406.144 L 247.830 406.595 L 251.834 409.172 L 252.480 409.580 L 256.562 412.110 L 257.166 412.477 L 261.322 414.963 L 261.884 415.294 L 266.108 417.739 L 266.629 418.035 L 270.917 420.441 L 271.397 420.707 L 275.745 423.077 L 276.185 423.314 L 280.587 425.650 L 280.988 425.860 L 285.439 428.166 L 285.801 428.352 L 290.298 430.629 L 290.622 430.792 L 295.159 433.044 L 295.446 433.186 L 300.018 435.415 L 300.268 435.536 L 304.871 437.746 L 305.085 437.848 L 309.714 440.040 L 309.892 440.124 L 314.542 442.301 L 314.684 442.367 L 319.351 444.533 L 319.458 444.582 L 324.137 446.738 L 324.209 446.772 L 328.895 448.921 L 333.621 451.083 L 338.293 453.220 L 342.922 455.343 L 347.504 457.452 L 352.033 459.552 L 356.506 461.643 L 360.917 463.729 L 365.259 465.810 L 369.529 467.888 L 373.721 469.965 L 377.829 472.042 L 381.847 474.120 L 385.771 476.199 L 389.594 478.280 L 393.311 480.364 L 396.917 482.449 L 400.405 484.536 L 403.771 486.623 L 407.010 488.710 L 410.116 490.795 L 413.085 492.876 L 415.913 494.951 L 418.595 497.017 L 421.130 499.072 L 423.514 501.113 L 425.746 503.136 L 427.826 505.139 L 429.754 507.118 L 431.532 509.072 L 433.164 510.998 L 434.653 512.897 L 436.006 514.769 L 437.230 516.617 L 438.331 518.446 L 439.318 520.262 L 440.200 522.077 L 440.984 523.900 L 441.676 525.749 L 442.281 527.638 L 442.803 529.588 L 443.241 531.616 L 443.594 533.744 L 443.857 535.990 L 444.022 538.374 L 444.083 541.062 L 444.038 543.854 L 443.900 546.735 L 443.672 549.556 L 443.359 552.319 L 442.961 555.032 L 442.481 557.696 L 441.920 560.318 L 441.278 562.902 L 440.556 565.452 L 439.755 567.971 L 438.873 570.463 L 437.910 572.932 L 436.867 575.381 L 435.741 577.812 L 434.532 580.226 L 433.239 582.627 L 431.861 585.015 L 430.398 587.391 L 428.847 589.757 L 427.209 592.111 L 425.483 594.455 L 423.668 596.788 L 421.764 599.109 L 419.771 601.418 L 417.690 603.715 L 415.520 605.998 L 413.261 608.265 L 410.916 610.517 L 408.483 612.752 L 405.965 614.968 L 403.362 617.165 L 400.677 619.341 L 397.909 621.494 L 395.061 623.624 L 392.135 625.730 L 389.131 627.810 L 386.053 629.862 L 382.902 631.887 L 379.679 633.883 L 376.388 635.848 L 373.030 637.783 L 369.607 639.685 L 366.122 641.555 L 362.576 643.391 L 358.973 645.193 L 355.314 646.959 L 351.602 648.690 L 347.839 650.385 L 344.028 652.042 L 340.170 653.662 L 336.269 655.244 L 332.326 656.788 L 328.345 658.292 L 324.327 659.758 L 320.275 661.183 L 316.192 662.569 L 312.080 663.915 L 307.941 665.219 L 303.778 666.483 L 299.593 667.706 L 295.389 668.888 L 291.168 670.028 L 286.933 671.127 L 282.686 672.184 L 278.430 673.199 L 274.167 674.172 L 269.899 675.104 L 265.629 675.993 L 261.360 676.840 L 257.094 677.645 L 252.833 678.407 L 248.580 679.128 L 244.338 679.806 L 240.109 680.442 L 235.896 681.036 L 231.700 681.588 L 227.525 682.098 L 223.374 682.566 L 219.248 682.993 L 215.151 683.377 L 211.085 683.721 L 207.053 684.023 L 203.057 684.284 L 199.100 684.504 L 195.185 684.683 L 191.315 684.822 L 187.493 684.921 L 183.720 684.980 L 179.763 685.001 L 178.659 685.020 L 177.555 685.066 L 176.453 685.140 L 175.354 685.241 L 174.257 685.368 L 173.163 685.522 L 172.073 685.704 L 170.989 685.911 L 169.909 686.146 L 168.836 686.407 L 167.770 686.694 L 166.711 687.007 L 165.660 687.346 L 164.617 687.711 L 163.584 688.101 L 162.561 688.517 L 161.548 688.957 L 160.546 689.422 L 159.556 689.912 L 158.579 690.426 L 157.614 690.963 L 156.663 691.525 L 155.725 692.109 L 154.803 692.716 L 153.895 693.346 L 153.004 693.997 L 152.128 694.671 L 151.270 695.365 L 150.428 696.081 L 149.605 696.817 L 148.800 697.573 L 148.013 698.348 L 147.246 699.143 L 146.499 699.956 L 145.771 700.787 L 145.065 701.636 L 144.379 702.502 L 143.715 703.384 L 143.073 704.283 L 142.453 705.197 L 141.855 706.126 L 141.281 707.069 L 140.730 708.026 L 140.202 708.996 L 139.699 709.979 L 139.220 710.974 L 138.765 711.981 L 138.335 712.998 L 137.931 714.026 L 137.551 715.063 L 137.198 716.109 L 136.870 717.164 L 136.568 718.226 L 136.292 719.296 L 136.042 720.372 L 135.819 721.453 L 135.623 722.540 L 135.453 723.632 L 135.310 724.727 L 135.194 725.825 L 135.105 726.926 L 135.043 728.029 L 135.008 729.132 L 135.001 730.237 L 135.020 731.341 L 135.066 732.445 L 135.140 733.547 L 135.241 734.646 L 135.368 735.743 L 135.522 736.837 L 135.704 737.927 L 135.911 739.011 L 136.146 740.091 L 136.407 741.164 L 136.694 742.230 L 137.007 743.289 L 137.346 744.340 L 137.711 745.383 L 138.101 746.416 L 138.517 747.439 L 138.957 748.452 L 139.422 749.454 L 139.912 750.444 L 140.426 751.421 L 140.963 752.386 L 141.525 753.337 L 142.109 754.275 L 142.716 755.197 L 143.346 756.105 L 143.997 756.996 L 144.671 757.872 L 145.365 758.730 L 146.081 759.572 L 146.817 760.395 L 147.573 761.200 L 148.348 761.987 L 149.143 762.754 L 149.956 763.501 L 150.787 764.229 L 151.636 764.935 L 152.502 765.621 L 153.384 766.285 L 154.283 766.927 L 155.197 767.547 L 156.126 768.145 L 157.069 768.719 L 158.026 769.270 L 158.996 769.798 L 159.979 770.301 L 160.974 770.780 L 161.981 771.235 L 162.998 771.665 L 164.026 772.069 L 165.063 772.449 L 166.109 772.802 L 167.164 773.130 L 168.226 773.432 L 169.296 773.708 L 170.372 773.958 L 171.453 774.181 L 172.540 774.377 L 173.632 774.547 L 174.727 774.690 L 175.825 774.806 L 176.926 774.895 L 178.029 774.957 L 179.132 774.992 L 180.237 774.999 L 184.427 774.977 L 184.894 774.972 L 189.130 774.906 L 189.589 774.897 L 193.867 774.786 L 194.318 774.772 L 198.637 774.617 L 199.081 774.599 L 203.438 774.399 L 203.877 774.377 L 208.270 774.133 L 208.704 774.107 L 213.132 773.818 L 213.561 773.787 L 218.020 773.453 L 218.445 773.420 L 222.935 773.040 L 223.356 773.003 L 227.874 772.579 L 228.292 772.537 L 232.835 772.068 L 233.252 772.023 L 237.818 771.508 L 238.233 771.459 L 242.821 770.898 L 243.234 770.846 L 247.842 770.240 L 248.254 770.184 L 252.879 769.532 L 253.290 769.472 L 257.931 768.774 L 258.342 768.710 L 262.995 767.966 L 263.407 767.898 L 268.072 767.108 L 268.484 767.036 L 273.158 766.200 L 273.571 766.124 L 278.251 765.241 L 278.666 765.160 L 283.352 764.231 L 283.768 764.146 L 288.456 763.170 L 288.875 763.081 L 293.564 762.058 L 293.986 761.963 L 298.672 760.894 L 299.097 760.794 L 303.780 759.678 L 304.209 759.573 L 308.886 758.409 L 309.318 758.299 L 313.987 757.088 L 314.424 756.972 L 319.083 755.714 L 319.524 755.592 L 324.171 754.286 L 324.617 754.158 L 329.250 752.804 L 329.701 752.670 L 334.317 751.268 L 334.774 751.127 L 339.372 749.677 L 339.835 749.528 L 344.412 748.031 L 344.881 747.875 L 349.436 746.329 L 349.911 746.164 L 354.442 744.570 L 354.924 744.398 L 359.428 742.755 L 359.917 742.573 L 364.392 740.882 L 364.889 740.691 L 369.333 738.951 L 369.838 738.750 L 374.248 736.961 L 374.762 736.750 L 379.137 734.912 L 379.659 734.689 L 383.997 732.803 L 384.528 732.568 L 388.826 730.632 L 389.366 730.385 L 393.623 728.400 L 394.172 728.139 L 398.385 726.105 L 398.945 725.830 L 403.112 723.746 L 403.681 723.457 L 407.800 721.323 L 408.380 721.018 L 412.449 718.835 L 413.038 718.513 L 417.056 716.280 L 417.656 715.941 L 421.619 713.658 L 422.229 713.300 L 426.136 710.966 L 426.757 710.589 L 430.606 708.205 L 431.237 707.807 L 435.025 705.373 L 435.667 704.953 L 439.393 702.469 L 440.045 702.025 L 443.706 699.490 L 444.368 699.023 L 447.962 696.437 L 448.634 695.944 L 452.159 693.307 L 452.841 692.787 L 456.295 690.100 L 456.985 689.551 L 460.366 686.812 L 461.065 686.234 L 464.371 683.444 L 465.077 682.835 L 468.306 679.994 L 469.019 679.353 L 472.168 676.460 L 472.887 675.784 L 475.954 672.840 L 476.678 672.130 L 479.661 669.133 L 480.388 668.387 L 483.286 665.338 L 484.014 664.554 L 486.824 661.454 L 487.552 660.631 L 490.272 657.479 L 490.998 656.616 L 493.626 653.411 L 494.347 652.508 L 496.881 649.251 L 497.596 648.306 L 500.034 644.997 L 500.740 644.010 L 503.079 640.648 L 503.774 639.620 L 506.013 636.205 L 506.693 635.134 L 508.829 631.667 L 509.492 630.555 L 511.524 627.034 L 512.167 625.881 L 514.091 622.308 L 514.711 621.115 L 516.526 617.488 L 517.119 616.257 L 518.824 612.577 L 519.387 611.309 L 520.979 607.575 L 521.510 606.273 L 522.986 602.486 L 523.482 601.152 L 524.841 597.311 L 525.299 595.948 L 526.538 592.053 L 526.956 590.665 L 528.073 586.716 L 528.448 585.306 L 529.442 581.303 L 529.772 579.875 L 530.641 575.818 L 530.925 574.376 L 531.666 570.265 L 531.903 568.814 L 532.514 564.648 L 532.703 563.192 L 533.182 558.971 L 533.323 557.514 L 533.667 553.239 L 533.761 551.786 L 533.969 547.456 L 534.015 546.011 L 534.085 541.626 L 534.091 540.756 L 534.079 539.886 L 533.975 535.286 L 533.939 534.243 L 533.879 533.202 L 533.568 528.714 L 533.482 527.654 L 533.371 526.595 L 532.859 522.218 L 532.721 521.147 L 532.557 520.079 L 531.849 515.810 L 531.657 514.736 L 531.440 513.668 L 530.540 509.504 L 530.296 508.437 L 530.026 507.376 L 528.938 503.314 L 528.643 502.263 L 528.323 501.219 L 527.053 497.257 L 526.710 496.229 L 526.343 495.209 L 524.896 491.344 L 524.509 490.347 L 524.098 489.360 L 522.479 485.589 L 522.053 484.630 L 521.606 483.681 L 519.818 480.002 L 519.360 479.086 L 518.881 478.181 L 516.930 474.592 L 516.446 473.723 L 515.942 472.866 L 513.832 469.363 L 513.328 468.545 L 512.806 467.739 L 510.542 464.319 L 510.024 463.554 L 509.491 462.799 L 507.078 459.460 L 506.552 458.748 L 506.013 458.046 L 503.455 454.786 L 502.928 454.126 L 502.388 453.476 L 499.691 450.292 L 498.630 449.084 L 495.798 445.973 L 494.754 444.864 L 491.791 441.823 L 490.770 440.807 L 487.682 437.834 L 486.690 436.907 L 483.481 433.999 L 482.523 433.155 L 479.199 430.309 L 478.278 429.542 L 474.842 426.756 L 473.962 426.061 L 470.419 423.332 L 469.582 422.702 L 465.938 420.028 L 465.144 419.458 L 461.402 416.836 L 460.653 416.322 L 456.819 413.748 L 456.115 413.285 L 452.194 410.758 L 451.534 410.341 L 447.530 407.858 L 446.914 407.483 L 442.832 405.042 L 442.261 404.706 L 438.105 402.302 L 437.577 402.002 L 433.353 399.634 L 432.867 399.366 L 428.579 397.032 L 428.135 396.793 L 423.788 394.489 L 423.385 394.278 L 418.983 392.002 L 418.620 391.817 L 414.168 389.566 L 413.844 389.404 L 409.348 387.176 L 409.062 387.035 L 404.525 384.827 L 404.277 384.707 L 399.705 382.516 L 399.494 382.416 L 394.891 380.239 L 394.717 380.157 L 390.088 377.993 L 389.950 377.928 L 385.299 375.773 L 385.197 375.726 L 380.530 373.577 L 380.462 373.546 L 375.783 371.401 L 371.066 369.243 L 366.398 367.107 L 361.767 364.982 L 357.178 362.868 L 352.635 360.760 L 348.145 358.658 L 343.712 356.558 L 339.341 354.460 L 335.037 352.361 L 330.806 350.261 L 326.653 348.157 L 322.583 346.049 L 318.602 343.936 L 314.715 341.817 L 310.928 339.692 L 307.245 337.561 L 303.673 335.424 L 300.216 333.281 L 296.879 331.134 L 293.668 328.983 L 290.586 326.831 L 287.638 324.677 L 284.827 322.526 L 282.157 320.378 L 279.630 318.235 L 277.248 316.102 L 275.012 313.979 L 272.921 311.869 L 270.975 309.774 L 269.172 307.694 L 267.507 305.630 L 265.978 303.581 L 264.578 301.545 L 263.301 299.518 L 262.142 297.493 L 261.093 295.462 L 260.148 293.416 L 259.301 291.341 L 258.549 289.225 L 257.887 287.050 L 257.315 284.800 L 256.834 282.458 L 256.448 280.005 L 256.161 277.424 L 255.982 274.698 L 255.919 271.769 L 255.959 269.662 L 256.083 267.543 L 256.286 265.453 L 256.569 263.385 L 256.930 261.333 L 257.370 259.289 L 257.891 257.249 L 258.494 255.206 L 259.181 253.156 L 259.954 251.096 L 260.816 249.024 L 261.769 246.936 L 262.817 244.831 L 263.960 242.710 L 265.201 240.571 L 266.541 238.415 L 267.983 236.244 L 269.527 234.058 L 271.175 231.858 L 272.925 229.648 L 274.780 227.428 L 276.737 225.202 L 278.797 222.970 L 280.959 220.736 L 283.222 218.502 L 285.584 216.271 L 288.044 214.043 L 290.600 211.823 L 293.250 209.611 L 295.992 207.410 L 298.823 205.222 L 301.742 203.048 L 304.746 200.891 L 307.832 198.753 L 310.998 196.634 L 314.240 194.537 L 317.558 192.463 L 320.946 190.413 L 324.404 188.389 L 327.927 186.391 L 331.513 184.422 L 335.160 182.481 L 338.864 180.571 L 342.622 178.692 L 346.432 176.845 L 350.290 175.030 L 354.194 173.250 L 358.141 171.503 L 362.128 169.792 L 366.151 168.117 L 370.208 166.478 L 374.297 164.876 L 378.413 163.312 L 382.555 161.786 L 386.719 160.298 L 390.902 158.850 L 395.102 157.442 L 399.315 156.073 L 403.538 154.745 L 407.770 153.458 L 412.005 152.212 L 416.243 151.008 L 420.479 149.846 L 424.711 148.726 L 428.936 147.648 L 433.151 146.614 L 437.352 145.622 L 441.537 144.674 L 445.703 143.769 L 449.847 142.909 L 453.965 142.092 L 458.055 141.319 L 462.114 140.591 L 466.137 139.907 L 470.123 139.268 L 474.067 138.674 L 477.967 138.124 L 481.819 137.620 L 485.619 137.160 L 489.365 136.745 L 493.053 136.375 L 496.678 136.049 L 500.238 135.768 L 503.729 135.531 L 507.146 135.339 L 510.486 135.190 L 513.744 135.085 L 516.916 135.022 L 520.303 134.999 L 521.407 134.978 L 522.510 134.930 L 523.612 134.855 L 524.712 134.753 L 525.809 134.624 L 526.902 134.468 L 527.991 134.285 L 529.076 134.075 L 530.155 133.839 L 531.228 133.577 L 532.294 133.288 L 533.352 132.973 L 534.403 132.633 L 535.445 132.267 L 536.477 131.875 L 537.500 131.458 L 538.512 131.016 L 539.513 130.549 L 540.502 130.058 L 541.479 129.543 L 542.443 129.004 L 543.394 128.441 L 544.330 127.856 L 545.252 127.247 L 546.158 126.616 L 547.049 125.963 L 547.923 125.289 L 548.781 124.593 L 549.621 123.876 L 550.444 123.139 L 551.248 122.382 L 552.033 121.605 L 552.799 120.809 L 553.545 119.995 L 554.271 119.163 L 554.977 118.313 L 555.661 117.446 L 556.324 116.563 L 556.965 115.663 L 557.583 114.748 L 558.180 113.819 L 558.753 112.874 L 559.302 111.916 L 559.828 110.945 L 560.330 109.962 L 560.808 108.966 L 561.261 107.959 L 561.690 106.941 L 562.093 105.912 L 562.471 104.875 L 562.823 103.828 L 563.149 102.773 L 563.450 101.710 L 563.724 100.640 L 563.972 99.564 L 564.193 98.482 L 564.388 97.395 L 564.556 96.303 L 564.698 95.208 L 564.812 94.109 L 564.899 93.008 L 564.960 91.906 L 564.993 90.802 L 564.999 89.697 L 564.978 88.593 L 564.930 87.490 L 564.855 86.388 L 564.753 85.288 L 564.624 84.191 L 564.468 83.098 L 564.285 82.009 L 564.075 80.924 L 563.839 79.845 L 563.577 78.772 L 563.288 77.706 L 562.973 76.648 L 562.633 75.597 L 562.267 74.555 L 561.875 73.523 L 561.458 72.500 L 561.016 71.488 L 560.549 70.487 L 560.058 69.498 L 559.543 68.521 L 559.004 67.557 L 558.441 66.606 L 557.856 65.670 L 557.247 64.748 L 556.616 63.842 L 555.963 62.951 L 555.289 62.077 L 554.593 61.219 L 553.876 60.379 L 553.139 59.556 L 552.382 58.752 L 551.605 57.967 L 550.809 57.201 L 549.995 56.455 L 549.163 55.729 L 548.313 55.023 L 547.446 54.339 L 546.563 53.676 L 545.663 53.035 L 544.748 52.417 L 543.819 51.820 L 542.874 51.247 L 541.916 50.698 L 540.945 50.172 L 539.962 49.670 L 538.966 49.192 L 537.959 48.739 L 536.941 48.310 L 535.912 47.907 L 534.875 47.529 L 533.828 47.177 L 532.773 46.851 L 531.710 46.550 L 530.640 46.276 L 529.564 46.028 L 528.482 45.807 L 527.395 45.612 L 526.303 45.444 L 525.208 45.302 L 524.109 45.188 L 523.008 45.101 L 521.906 45.040 L 520.802 45.007 L 519.697 45.001 L 516.016 45.026 Z" fill="black" fill-rule="evenodd"/>
</svg>
