<svg xmlns="http://www.w3.org/2000/svg" viewBox="0 0 700.000 1000">
  <path d="M 532.094 804.252 L 532.908 805.479 L 533.761 806.679 L 534.654 807.850 L 535.584 808.992 L 536.551 810.102 L 537.554 811.181 L 538.591 812.226 L 539.662 813.236 L 540.766 814.211 L 541.901 815.149 L 543.066 816.050 L 544.260 816.912 L 545.482 817.734 L 546.729 818.516 L 548.002 819.257 L 549.298 819.955 L 550.617 820.611 L 551.956 821.224 L 553.314 821.792 L 554.691 822.316 L 556.083 822.794 L 557.491 823.226 L 558.912 823.613 L 560.345 823.952 L 561.788 824.244 L 563.240 824.489 L 564.699 824.687 L 566.164 824.836 L 567.633 824.938 L 569.105 824.991 L 570.578 824.996 L 572.050 824.953 L 573.519 824.862 L 574.985 824.723 L 576.446 824.536 L 577.900 824.301 L 579.345 824.019 L 580.780 823.690 L 582.204 823.314 L 583.614 822.891 L 585.011 822.423 L 586.391 821.909 L 587.753 821.350 L 589.096 820.747 L 590.419 820.100 L 591.721 819.411 L 592.998 818.679 L 594.252 817.906 L 595.479 817.092 L 596.679 816.239 L 597.850 815.346 L 598.992 814.416 L 600.102 813.449 L 601.181 812.446 L 602.226 811.409 L 603.236 810.338 L 604.211 809.234 L 605.149 808.099 L 606.050 806.934 L 606.912 805.740 L 607.734 804.518 L 608.516 803.271 L 609.257 801.998 L 609.955 800.702 L 610.611 799.383 L 611.224 798.044 L 611.792 796.686 L 612.316 795.309 L 612.794 793.917 L 613.226 792.509 L 613.613 791.088 L 613.952 789.655 L 614.244 788.212 L 614.489 786.760 L 614.687 785.301 L 614.836 783.836 L 614.938 782.367 L 614.991 780.895 L 614.996 779.422 L 614.953 777.950 L 614.862 776.481 L 614.723 775.015 L 614.536 773.554 L 614.301 772.100 L 614.019 770.655 L 613.690 769.220 L 613.314 767.796 L 612.891 766.386 L 612.423 764.989 L 611.909 763.609 L 611.350 762.247 L 610.747 760.904 L 610.100 759.581 L 609.411 758.279 L 608.679 757.002 L 402.354 410.000 L 608.679 62.998 L 609.411 61.721 L 610.100 60.419 L 610.747 59.096 L 611.350 57.753 L 611.909 56.391 L 612.423 55.011 L 612.891 53.614 L 613.314 52.204 L 613.690 50.780 L 614.019 49.345 L 614.301 47.900 L 614.536 46.446 L 614.723 44.985 L 614.862 43.519 L 614.953 42.050 L 614.996 40.578 L 614.991 39.105 L 614.938 37.633 L 614.836 36.164 L 614.687 34.699 L 614.489 33.240 L 614.244 31.788 L 613.952 30.345 L 613.613 28.912 L 613.226 27.491 L 612.794 26.083 L 612.316 24.691 L 611.792 23.314 L 611.224 21.956 L 610.611 20.617 L 609.955 19.298 L 609.257 18.002 L 608.516 16.729 L 607.734 15.482 L 606.912 14.260 L 606.050 13.066 L 605.149 11.901 L 604.211 10.766 L 603.236 9.662 L 602.226 8.591 L 601.181 7.554 L 600.102 6.551 L 598.992 5.584 L 597.850 4.654 L 596.679 3.761 L 595.479 2.908 L 594.252 2.094 L 592.998 1.321 L 591.721 0.589 L 590.419 -0.100 L 589.096 -0.747 L 587.753 -1.350 L 586.391 -1.909 L 585.011 -2.423 L 583.614 -2.891 L 582.204 -3.314 L 580.780 -3.690 L 579.345 -4.019 L 577.900 -4.301 L 576.446 -4.536 L 574.985 -4.723 L 573.519 -4.862 L 572.050 -4.953 L 570.578 -4.996 L 569.105 -4.991 L 567.633 -4.938 L 566.164 -4.836 L 564.699 -4.687 L 563.240 -4.489 L 561.788 -4.244 L 560.345 -3.952 L 558.912 -3.613 L 557.491 -3.226 L 556.083 -2.794 L 554.691 -2.316 L 553.314 -1.792 L 551.956 -1.224 L 550.617 -0.611 L 549.298 0.045 L 548.002 0.743 L 546.729 1.484 L 545.482 2.266 L 544.260 3.088 L 543.066 3.950 L 541.901 4.851 L 540.766 5.789 L 539.662 6.764 L 538.591 7.774 L 537.554 8.819 L 536.551 9.898 L 535.584 11.008 L 534.654 12.150 L 533.761 13.321 L 532.908 14.521 L 532.094 15.748 L 531.321 17.002 L 350.000 321.950 L 168.679 17.002 L 167.906 15.748 L 167.092 14.521 L 166.239 13.321 L 165.346 12.150 L 164.416 11.008 L 163.449 9.898 L 162.446 8.819 L 161.409 7.774 L 160.338 6.764 L 159.234 5.789 L 158.099 4.851 L 156.934 3.950 L 155.740 3.088 L 154.518 2.266 L 153.271 1.484 L 151.998 0.743 L 150.702 0.045 L 149.383 -0.611 L 148.044 -1.224 L 146.686 -1.792 L 145.309 -2.316 L 143.917 -2.794 L 142.509 -3.226 L 141.088 -3.613 L 139.655 -3.952 L 138.212 -4.244 L 136.760 -4.489 L 135.301 -4.687 L 133.836 -4.836 L 132.367 -4.938 L 130.895 -4.991 L 129.422 -4.996 L 127.950 -4.953 L 126.481 -4.862 L 125.015 -4.723 L 123.554 -4.536 L 122.100 -4.301 L 120.655 -4.019 L 119.220 -3.690 L 117.796 -3.314 L 116.386 -2.891 L 114.989 -2.423 L 113.609 -1.909 L 112.247 -1.350 L 110.904 -0.747 L 109.581 -0.100 L 108.279 0.589 L 107.002 1.321 L 105.748 2.094 L 104.521 2.908 L 103.321 3.761 L 102.150 4.654 L 101.008 5.584 L 99.898 6.551 L 98.819 7.554 L 97.774 8.591 L 96.764 9.662 L 95.789 10.766 L 94.851 11.901 L 93.950 13.066 L 93.088 14.260 L 92.266 15.482 L 91.484 16.729 L 90.743 18.002 L 90.045 19.298 L 89.389 20.617 L 88.776 21.956 L 88.208 23.314 L 87.684 24.691 L 87.206 26.083 L 86.774 27.491 L 86.387 28.912 L 86.048 30.345 L 85.756 31.788 L 85.511 33.240 L 85.313 34.699 L 85.164 36.164 L 85.062 37.633 L 85.009 39.105 L 85.004 40.578 L 85.047 42.050 L 85.138 43.519 L 85.277 44.985 L 85.464 46.446 L 85.699 47.900 L 85.981 49.345 L 86.310 50.780 L 86.686 52.204 L 87.109 53.614 L 87.577 55.011 L 88.091 56.391 L 88.650 57.753 L 89.253 59.096 L 89.900 60.419 L 90.589 61.721 L 91.321 62.998 L 297.646 410.000 L 91.321 757.002 L 90.589 758.279 L 89.900 759.581 L 89.253 760.904 L 88.650 762.247 L 88.091 763.609 L 87.577 764.989 L 87.109 766.386 L 86.686 767.796 L 86.310 769.220 L 85.981 770.655 L 85.699 772.100 L 85.464 773.554 L 85.277 775.015 L 85.138 776.481 L 85.047 777.950 L 85.004 779.422 L 85.009 780.895 L 85.062 782.367 L 85.164 783.836 L 85.313 785.301 L 85.511 786.760 L 85.756 788.212 L 86.048 789.655 L 86.387 791.088 L 86.774 792.509 L 87.206 793.917 L 87.684 795.309 L 88.208 796.686 L 88.776 798.044 L 89.389 799.383 L 90.045 800.702 L 90.743 801.998 L 91.484 803.271 L 92.266 804.518 L 93.088 805.740 L 93.950 806.934 L 94.851 808.099 L 95.789 809.234 L 96.764 810.338 L 97.774 811.409 L 98.819 812.446 L 99.898 813.449 L 101.008 814.416 L 102.150 815.346 L 103.321 816.239 L 104.521 817.092 L 105.748 817.906 L 107.002 818.679 L 108.279 819.411 L 109.581 820.100 L 110.904 820.747 L 112.247 821.350 L 113.609 821.909 L 114.989 822.423 L 116.386 822.891 L 117.796 823.314 L 119.220 823.690 L 120.655 824.019 L 122.100 824.301 L 123.554 824.536 L 125.015 824.723 L 126.481 824.862 L 127.950 824.953 L 129.422 824.996 L 130.895 824.991 L 132.367 824.938 L 133.836 824.836 L 135.301 824.687 L 136.760 824.489 L 138.212 824.244 L 139.655 823.952 L 141.088 823.613 L 142.509 823.226 L 143.917 822.794 L 145.309 822.316 L 146.686 821.792 L 148.044 821.224 L 149.383 820.611 L 150.702 819.955 L 151.998 819.257 L 153.271 818.516 L 154.518 817.734 L 155.740 816.912 L 156.934 816.050 L 158.099 815.149 L 159.234 814.211 L 160.338 813.236 L 161.409 812.226 L 162.446 811.181 L 163.449 810.102 L 164.416 808.992 L 165.346 807.850 L 166.239 806.679 L 167.092 805.479 L 167.906 804.252 L 168.679 802.998 L 350.000 498.050 L 531.321 802.998 L 532.094 804.252 Z" fill="black" fill-rule="evenodd"/>
</svg>
