<svg xmlns="http://www.w3.org/2000/svg" viewBox="0 0 700.000 1000" width="700.000" height="1000">
  <path d="M 491.139 20.033 L 490.350 20.047 L 486.832 20.141 L 486.078 20.167 L 482.499 20.322 L 481.775 20.360 L 478.137 20.576 L 477.442 20.623 L 473.748 20.901 L 473.079 20.956 L 469.331 21.294 L 468.686 21.357 L 464.886 21.754 L 464.263 21.824 L 460.414 22.281 L 459.812 22.357 L 455.915 22.873 L 455.332 22.954 L 451.391 23.528 L 450.825 23.615 L 446.841 24.247 L 446.291 24.338 L 442.267 25.028 L 441.732 25.123 L 437.670 25.870 L 437.149 25.970 L 433.051 26.774 L 432.542 26.877 L 428.412 27.737 L 427.913 27.843 L 423.752 28.759 L 423.264 28.869 L 419.075 29.840 L 418.596 29.954 L 414.381 30.979 L 413.910 31.097 L 409.671 32.176 L 409.208 32.297 L 404.948 33.431 L 404.492 33.555 L 400.212 34.742 L 399.762 34.869 L 395.466 36.109 L 395.021 36.240 L 390.711 37.532 L 390.271 37.666 L 385.948 39.010 L 385.512 39.149 L 381.180 40.544 L 380.747 40.686 L 376.408 42.133 L 375.978 42.278 L 371.634 43.775 L 371.206 43.925 L 366.859 45.472 L 366.433 45.626 L 362.086 47.223 L 361.661 47.381 L 357.316 49.027 L 356.892 49.190 L 352.551 50.885 L 352.128 51.053 L 347.794 52.795 L 347.370 52.968 L 343.045 54.758 L 342.620 54.937 L 338.307 56.774 L 337.881 56.959 L 333.581 58.843 L 333.153 59.033 L 328.870 60.963 L 328.440 61.160 L 324.176 63.136 L 323.743 63.339 L 319.499 65.361 L 319.064 65.571 L 314.843 67.638 L 314.405 67.855 L 310.210 69.966 L 309.767 70.192 L 305.600 72.347 L 305.154 72.581 L 301.017 74.779 L 300.565 75.022 L 296.461 77.263 L 296.005 77.516 L 291.936 79.800 L 291.474 80.062 L 287.442 82.388 L 286.975 82.661 L 282.982 85.028 L 282.509 85.313 L 278.559 87.721 L 278.079 88.018 L 274.173 90.467 L 273.686 90.776 L 269.827 93.266 L 269.333 93.588 L 265.523 96.117 L 265.022 96.455 L 261.263 99.023 L 260.754 99.375 L 257.049 101.982 L 256.532 102.351 L 252.883 104.996 L 252.358 105.382 L 248.767 108.065 L 248.234 108.470 L 244.703 111.190 L 244.162 111.614 L 240.694 114.372 L 240.144 114.816 L 236.742 117.610 L 236.183 118.077 L 232.849 120.906 L 232.281 121.397 L 229.016 124.262 L 228.440 124.777 L 225.248 127.677 L 224.663 128.218 L 221.546 131.153 L 220.952 131.722 L 217.912 134.691 L 217.310 135.290 L 214.350 138.292 L 213.740 138.923 L 210.862 141.958 L 210.245 142.622 L 207.451 145.690 L 206.827 146.389 L 204.119 149.489 L 203.491 150.224 L 200.872 153.356 L 200.239 154.131 L 197.711 157.294 L 197.075 158.109 L 194.640 161.303 L 194.002 162.162 L 191.664 165.386 L 191.026 166.289 L 188.786 169.543 L 188.150 170.492 L 186.010 173.775 L 185.379 174.773 L 183.342 178.085 L 182.718 179.133 L 180.786 182.474 L 180.171 183.572 L 178.348 186.941 L 177.746 188.092 L 176.032 191.488 L 175.447 192.692 L 173.845 196.116 L 173.280 197.373 L 171.793 200.823 L 171.252 202.134 L 169.882 205.610 L 169.370 206.975 L 168.120 210.476 L 167.640 211.893 L 166.511 215.420 L 166.069 216.887 L 165.064 220.438 L 164.664 221.953 L 163.785 225.528 L 163.431 227.088 L 162.682 230.687 L 162.378 232.288 L 161.760 235.911 L 161.511 237.549 L 161.026 241.194 L 160.922 242.027 L 160.835 242.863 L 160.485 246.530 L 160.413 247.377 L 160.356 248.225 L 160.145 251.914 L 160.104 252.771 L 160.079 253.628 L 160.008 257.339 L 160.001 258.439 L 160.020 259.538 L 160.129 263.202 L 160.191 264.577 L 160.295 265.948 L 160.618 269.501 L 160.714 270.439 L 160.829 271.374 L 160.963 272.307 L 161.497 275.750 L 161.654 276.698 L 161.831 277.641 L 162.029 278.581 L 162.767 281.918 L 162.986 282.862 L 163.226 283.801 L 163.486 284.734 L 164.424 287.969 L 164.704 288.896 L 165.004 289.817 L 165.323 290.731 L 166.456 293.866 L 166.792 294.764 L 167.146 295.654 L 167.519 296.537 L 168.843 299.575 L 169.227 300.432 L 169.629 301.282 L 170.048 302.122 L 171.557 305.067 L 172.199 306.276 L 172.878 307.464 L 174.567 310.319 L 175.255 311.443 L 175.975 312.548 L 177.839 315.315 L 178.557 316.350 L 179.305 317.364 L 181.339 320.046 L 182.074 320.990 L 182.834 321.913 L 185.033 324.514 L 185.772 325.366 L 186.532 326.199 L 188.892 328.722 L 189.624 329.486 L 190.374 330.233 L 192.889 332.680 L 193.605 333.361 L 194.336 334.027 L 197.002 336.402 L 197.694 337.006 L 198.399 337.596 L 201.211 339.902 L 201.875 340.437 L 202.549 340.958 L 205.501 343.198 L 206.773 344.128 L 209.861 346.305 L 211.063 347.123 L 214.282 349.240 L 215.410 349.959 L 218.755 352.018 L 219.810 352.648 L 223.276 354.654 L 224.258 355.206 L 227.839 357.161 L 228.749 357.645 L 232.442 359.552 L 233.283 359.975 L 237.082 361.838 L 237.855 362.208 L 241.755 364.028 L 242.464 364.352 L 246.460 366.134 L 247.107 366.416 L 251.194 368.163 L 251.782 368.409 L 255.956 370.123 L 256.487 370.337 L 260.742 372.022 L 261.219 372.207 L 265.551 373.865 L 265.976 374.026 L 270.380 375.660 L 270.755 375.798 L 275.226 377.412 L 275.554 377.530 L 280.086 379.127 L 280.368 379.225 L 284.957 380.808 L 285.196 380.890 L 289.836 382.462 L 290.032 382.528 L 294.720 384.091 L 294.875 384.143 L 299.604 385.701 L 299.719 385.739 L 304.486 387.296 L 304.562 387.321 L 309.360 388.878 L 314.224 390.452 L 319.054 392.015 L 323.864 393.577 L 328.650 395.139 L 333.406 396.706 L 338.129 398.279 L 342.814 399.862 L 347.454 401.457 L 352.045 403.065 L 356.581 404.690 L 361.058 406.333 L 365.469 407.996 L 369.809 409.680 L 374.073 411.386 L 378.255 413.117 L 382.348 414.872 L 386.349 416.653 L 390.250 418.460 L 394.047 420.293 L 397.733 422.152 L 401.305 424.036 L 404.756 425.945 L 408.083 427.877 L 411.280 429.832 L 414.344 431.808 L 417.272 433.802 L 420.061 435.814 L 422.709 437.842 L 425.215 439.882 L 427.579 441.935 L 429.802 443.999 L 431.886 446.073 L 433.834 448.159 L 435.650 450.256 L 437.338 452.369 L 438.905 454.501 L 440.355 456.660 L 441.696 458.853 L 442.932 461.091 L 444.069 463.385 L 445.111 465.749 L 446.059 468.198 L 446.916 470.749 L 447.679 473.418 L 448.346 476.222 L 448.911 479.177 L 449.367 482.299 L 449.706 485.603 L 449.918 489.101 L 449.993 492.902 L 449.945 496.077 L 449.795 499.359 L 449.546 502.651 L 449.198 505.954 L 448.752 509.270 L 448.207 512.599 L 447.563 515.942 L 446.821 519.300 L 445.981 522.672 L 445.042 526.058 L 444.005 529.457 L 442.870 532.869 L 441.637 536.293 L 440.306 539.728 L 438.879 543.171 L 437.356 546.623 L 435.738 550.081 L 434.025 553.544 L 432.218 557.009 L 430.319 560.476 L 428.329 563.942 L 426.249 567.406 L 424.081 570.865 L 421.827 574.317 L 419.487 577.761 L 417.064 581.195 L 414.559 584.617 L 411.975 588.025 L 409.314 591.417 L 406.577 594.791 L 403.766 598.145 L 400.884 601.478 L 397.933 604.788 L 394.915 608.073 L 391.832 611.331 L 388.688 614.561 L 385.483 617.761 L 382.221 620.929 L 378.904 624.064 L 375.535 627.163 L 372.115 630.227 L 368.648 633.252 L 365.136 636.238 L 361.582 639.183 L 357.988 642.086 L 354.356 644.944 L 350.690 647.758 L 346.992 650.524 L 343.265 653.243 L 339.511 655.912 L 335.733 658.531 L 331.934 661.098 L 328.116 663.611 L 324.283 666.070 L 320.437 668.473 L 316.582 670.819 L 312.719 673.107 L 308.851 675.336 L 304.983 677.503 L 301.116 679.610 L 297.253 681.653 L 293.399 683.632 L 289.555 685.546 L 285.724 687.394 L 281.911 689.174 L 278.118 690.887 L 274.348 692.530 L 270.605 694.103 L 266.892 695.605 L 263.212 697.035 L 259.570 698.392 L 255.968 699.676 L 252.411 700.886 L 248.902 702.020 L 245.445 703.079 L 242.044 704.062 L 238.704 704.969 L 235.428 705.799 L 232.221 706.553 L 229.087 707.229 L 226.032 707.830 L 223.059 708.354 L 220.174 708.803 L 217.383 709.178 L 214.689 709.480 L 212.100 709.710 L 209.619 709.871 L 207.253 709.965 L 204.389 710.004 L 203.285 710.033 L 202.182 710.088 L 201.081 710.171 L 199.982 710.281 L 198.886 710.417 L 197.794 710.581 L 196.706 710.771 L 195.623 710.988 L 194.545 711.231 L 193.474 711.501 L 192.410 711.797 L 191.354 712.119 L 190.306 712.467 L 189.266 712.840 L 188.236 713.239 L 187.217 713.663 L 186.207 714.112 L 185.210 714.585 L 184.224 715.083 L 183.250 715.605 L 182.290 716.151 L 181.344 716.720 L 180.411 717.312 L 179.494 717.927 L 178.592 718.564 L 177.705 719.223 L 176.836 719.903 L 175.983 720.605 L 175.147 721.328 L 174.330 722.070 L 173.531 722.833 L 172.751 723.615 L 171.991 724.416 L 171.250 725.235 L 170.530 726.072 L 169.830 726.927 L 169.152 727.799 L 168.495 728.687 L 167.860 729.590 L 167.248 730.509 L 166.658 731.443 L 166.092 732.391 L 165.549 733.353 L 165.029 734.328 L 164.534 735.315 L 164.063 736.314 L 163.617 737.324 L 163.196 738.345 L 162.799 739.376 L 162.429 740.416 L 162.084 741.466 L 161.764 742.523 L 161.471 743.588 L 161.204 744.659 L 160.964 745.737 L 160.750 746.821 L 160.562 747.909 L 160.402 749.002 L 160.268 750.098 L 160.161 751.197 L 160.081 752.299 L 160.028 753.402 L 160.003 754.506 L 160.004 755.611 L 160.033 756.715 L 160.088 757.818 L 160.171 758.919 L 160.281 760.018 L 160.417 761.114 L 160.581 762.206 L 160.771 763.294 L 160.988 764.377 L 161.231 765.455 L 161.501 766.526 L 161.797 767.590 L 162.119 768.646 L 162.467 769.694 L 162.840 770.734 L 163.239 771.764 L 163.663 772.783 L 164.112 773.793 L 164.585 774.790 L 165.083 775.776 L 165.605 776.750 L 166.151 777.710 L 166.720 778.656 L 167.312 779.589 L 167.927 780.506 L 168.564 781.408 L 169.223 782.295 L 169.903 783.164 L 170.605 784.017 L 171.328 784.853 L 172.070 785.670 L 172.833 786.469 L 173.615 787.249 L 174.416 788.009 L 175.235 788.750 L 176.072 789.470 L 176.927 790.170 L 177.799 790.848 L 178.687 791.505 L 179.590 792.140 L 180.509 792.752 L 181.443 793.342 L 182.391 793.908 L 183.353 794.451 L 184.328 794.971 L 185.315 795.466 L 186.314 795.937 L 187.324 796.383 L 188.345 796.804 L 189.376 797.201 L 190.416 797.571 L 191.466 797.916 L 192.523 798.236 L 193.588 798.529 L 194.659 798.796 L 195.737 799.036 L 196.821 799.250 L 197.909 799.438 L 199.002 799.598 L 200.098 799.732 L 201.197 799.839 L 202.299 799.919 L 203.402 799.972 L 204.506 799.997 L 205.611 799.996 L 209.065 799.949 L 210.244 799.918 L 213.761 799.777 L 214.885 799.719 L 218.464 799.486 L 219.536 799.404 L 223.174 799.081 L 224.197 798.978 L 227.891 798.564 L 228.869 798.443 L 232.617 797.940 L 233.552 797.805 L 237.353 797.213 L 238.248 797.064 L 242.098 796.385 L 242.956 796.225 L 246.853 795.460 L 247.677 795.290 L 251.618 794.438 L 252.410 794.260 L 256.394 793.324 L 257.156 793.138 L 261.180 792.118 L 261.914 791.925 L 265.976 790.823 L 266.684 790.624 L 270.781 789.440 L 271.466 789.236 L 275.596 787.971 L 276.259 787.762 L 280.420 786.417 L 281.061 786.204 L 285.251 784.780 L 285.873 784.563 L 290.089 783.061 L 290.694 782.840 L 294.933 781.260 L 295.522 781.036 L 299.782 779.381 L 300.356 779.153 L 304.635 777.422 L 305.195 777.191 L 309.491 775.386 L 310.038 775.152 L 314.348 773.273 L 314.883 773.036 L 319.205 771.084 L 319.729 770.844 L 324.061 768.821 L 324.575 768.577 L 328.914 766.484 L 329.419 766.236 L 333.763 764.073 L 334.259 763.822 L 338.606 761.591 L 339.094 761.336 L 343.441 759.036 L 343.922 758.778 L 348.267 756.412 L 348.742 756.149 L 353.083 753.717 L 353.552 753.450 L 357.886 750.953 L 358.350 750.682 L 362.675 748.121 L 363.134 747.845 L 367.447 745.221 L 367.903 744.940 L 372.202 742.253 L 372.654 741.967 L 376.937 739.220 L 377.386 738.928 L 381.650 736.120 L 382.096 735.823 L 386.340 732.955 L 386.784 732.652 L 391.004 729.726 L 391.446 729.416 L 395.641 726.433 L 396.082 726.116 L 400.249 723.076 L 400.688 722.752 L 404.825 719.657 L 405.264 719.324 L 409.368 716.175 L 409.806 715.834 L 413.876 712.631 L 414.313 712.282 L 418.346 709.025 L 418.784 708.667 L 422.776 705.359 L 423.214 704.991 L 427.165 701.633 L 427.604 701.255 L 431.510 697.846 L 431.950 697.457 L 435.809 694.000 L 436.250 693.600 L 440.061 690.094 L 440.502 689.682 L 444.262 686.129 L 444.705 685.705 L 448.410 682.106 L 448.855 681.668 L 452.504 678.024 L 452.950 677.573 L 456.541 673.884 L 456.989 673.418 L 460.519 669.686 L 460.968 669.205 L 464.436 665.431 L 464.886 664.933 L 468.288 661.118 L 468.739 660.603 L 472.074 656.747 L 472.527 656.215 L 475.791 652.319 L 476.245 651.769 L 479.437 647.834 L 479.892 647.264 L 483.009 643.292 L 483.464 642.701 L 486.504 638.693 L 486.960 638.081 L 489.920 634.036 L 490.376 633.402 L 493.254 629.322 L 493.709 628.665 L 496.504 624.552 L 496.958 623.870 L 499.666 619.724 L 500.118 619.017 L 502.737 614.838 L 503.186 614.106 L 505.714 609.896 L 506.160 609.136 L 508.595 604.896 L 509.037 604.108 L 511.375 599.839 L 511.812 599.022 L 514.052 594.725 L 514.482 593.878 L 516.622 589.553 L 517.044 588.675 L 519.081 584.324 L 519.494 583.415 L 521.425 579.038 L 521.828 578.097 L 523.652 573.696 L 524.042 572.722 L 525.756 568.297 L 526.132 567.290 L 527.733 562.843 L 528.094 561.802 L 529.581 557.333 L 529.923 556.259 L 531.293 551.769 L 531.615 550.662 L 532.866 546.152 L 533.166 545.011 L 534.295 540.483 L 534.571 539.309 L 535.576 534.763 L 535.825 533.558 L 536.703 528.994 L 536.923 527.758 L 537.673 523.178 L 537.862 521.913 L 538.480 517.318 L 538.635 516.025 L 539.121 511.416 L 539.240 510.097 L 539.589 505.474 L 539.671 504.132 L 539.882 499.497 L 539.924 498.134 L 539.995 493.488 L 539.991 491.909 L 539.882 486.405 L 539.855 485.491 L 539.809 484.578 L 539.485 479.228 L 539.418 478.289 L 539.332 477.352 L 538.799 472.152 L 538.690 471.194 L 538.561 470.238 L 537.822 465.186 L 537.669 464.212 L 537.495 463.243 L 536.556 458.335 L 536.357 457.353 L 536.136 456.376 L 535.003 451.610 L 534.757 450.626 L 534.489 449.647 L 533.166 445.020 L 532.874 444.040 L 532.559 443.068 L 531.051 438.575 L 530.713 437.607 L 530.354 436.647 L 528.665 432.288 L 528.285 431.338 L 527.883 430.397 L 526.019 426.167 L 525.599 425.242 L 525.158 424.327 L 523.124 420.222 L 522.668 419.328 L 522.193 418.444 L 519.993 414.463 L 519.506 413.604 L 519.000 412.756 L 516.640 408.895 L 516.127 408.076 L 515.597 407.267 L 513.081 403.524 L 512.547 402.747 L 511.997 401.982 L 509.331 398.352 L 508.782 397.620 L 508.219 396.900 L 505.407 393.381 L 504.848 392.696 L 504.276 392.021 L 501.323 388.611 L 500.760 387.972 L 500.184 387.344 L 497.096 384.038 L 495.957 382.863 L 492.738 379.659 L 491.609 378.573 L 488.264 375.468 L 487.152 374.470 L 483.687 371.460 L 482.598 370.544 L 479.016 367.628 L 477.956 366.790 L 474.263 363.963 L 473.235 363.200 L 469.436 360.459 L 468.445 359.764 L 464.545 357.107 L 463.593 356.476 L 459.597 353.899 L 458.685 353.327 L 454.598 350.828 L 453.729 350.310 L 449.555 347.885 L 448.729 347.417 L 444.474 345.063 L 443.691 344.641 L 439.359 342.356 L 438.621 341.975 L 434.217 339.754 L 433.522 339.412 L 429.052 337.254 L 428.400 336.945 L 423.868 334.846 L 423.259 334.570 L 418.670 332.527 L 418.103 332.279 L 413.462 330.289 L 412.936 330.067 L 408.248 328.127 L 407.763 327.929 L 403.033 326.036 L 402.588 325.861 L 397.821 324.011 L 397.415 323.856 L 392.616 322.047 L 392.248 321.910 L 387.422 320.139 L 387.092 320.020 L 382.244 318.283 L 381.952 318.180 L 377.086 316.475 L 376.831 316.386 L 371.953 314.710 L 371.734 314.635 L 366.849 312.985 L 366.667 312.924 L 361.779 311.295 L 361.633 311.247 L 356.748 309.638 L 356.638 309.602 L 351.761 308.009 L 351.687 307.986 L 346.822 306.406 L 341.937 304.825 L 337.130 303.270 L 332.389 301.730 L 327.718 300.205 L 323.123 298.691 L 318.611 297.186 L 314.188 295.687 L 309.860 294.194 L 305.633 292.705 L 301.515 291.217 L 297.512 289.731 L 293.630 288.246 L 289.879 286.760 L 286.264 285.276 L 282.794 283.793 L 279.475 282.313 L 276.316 280.839 L 273.324 279.372 L 270.507 277.917 L 267.872 276.479 L 265.426 275.062 L 263.174 273.676 L 261.121 272.326 L 259.271 271.022 L 257.626 269.773 L 256.184 268.591 L 254.942 267.485 L 253.894 266.464 L 253.027 265.538 L 252.328 264.712 L 251.778 263.987 L 251.355 263.359 L 251.035 262.818 L 250.794 262.346 L 250.608 261.918 L 250.457 261.502 L 250.328 261.058 L 250.215 260.547 L 250.119 259.924 L 250.048 259.151 L 250.013 257.961 L 250.046 256.208 L 250.160 254.223 L 250.349 252.238 L 250.614 250.246 L 250.956 248.244 L 251.377 246.225 L 251.878 244.187 L 252.460 242.127 L 253.128 240.043 L 253.882 237.932 L 254.724 235.794 L 255.657 233.629 L 256.683 231.436 L 257.803 229.218 L 259.018 226.973 L 260.329 224.706 L 261.737 222.415 L 263.242 220.105 L 264.845 217.777 L 266.545 215.433 L 268.342 213.075 L 270.235 210.707 L 272.222 208.330 L 274.304 205.946 L 276.478 203.559 L 278.743 201.170 L 281.098 198.783 L 283.540 196.398 L 286.067 194.019 L 288.678 191.646 L 291.369 189.284 L 294.140 186.932 L 296.987 184.594 L 299.909 182.271 L 302.902 179.965 L 305.964 177.677 L 309.093 175.409 L 312.287 173.162 L 315.541 170.939 L 318.855 168.740 L 322.225 166.566 L 325.648 164.420 L 329.122 162.302 L 332.645 160.213 L 336.213 158.155 L 339.823 156.129 L 343.474 154.135 L 347.162 152.176 L 350.885 150.251 L 354.640 148.361 L 358.423 146.509 L 362.233 144.694 L 366.067 142.917 L 369.921 141.180 L 373.794 139.483 L 377.681 137.827 L 381.581 136.212 L 385.491 134.640 L 389.408 133.112 L 393.328 131.627 L 397.250 130.186 L 401.170 128.791 L 405.086 127.442 L 408.994 126.139 L 412.891 124.883 L 416.776 123.675 L 420.644 122.516 L 424.493 121.405 L 428.319 120.343 L 432.120 119.332 L 435.893 118.371 L 439.634 117.461 L 443.340 116.602 L 447.008 115.795 L 450.634 115.040 L 454.216 114.337 L 457.749 113.687 L 461.231 113.090 L 464.657 112.546 L 468.024 112.055 L 471.328 111.617 L 474.566 111.233 L 477.732 110.901 L 480.824 110.623 L 483.835 110.396 L 486.763 110.222 L 489.602 110.099 L 492.348 110.026 L 495.408 109.998 L 496.512 109.975 L 497.615 109.924 L 498.717 109.846 L 499.816 109.742 L 500.913 109.610 L 502.006 109.451 L 503.095 109.266 L 504.178 109.054 L 505.257 108.816 L 506.329 108.551 L 507.394 108.259 L 508.452 107.942 L 509.502 107.599 L 510.543 107.230 L 511.575 106.836 L 512.597 106.417 L 513.608 105.973 L 514.608 105.504 L 515.596 105.010 L 516.571 104.493 L 517.534 103.951 L 518.483 103.387 L 519.418 102.799 L 520.338 102.188 L 521.244 101.555 L 522.133 100.900 L 523.006 100.223 L 523.862 99.526 L 524.700 98.807 L 525.521 98.068 L 526.323 97.309 L 527.107 96.530 L 527.871 95.733 L 528.615 94.917 L 529.339 94.083 L 530.043 93.231 L 530.725 92.363 L 531.386 91.478 L 532.024 90.577 L 532.641 89.661 L 533.235 88.730 L 533.806 87.784 L 534.353 86.825 L 534.877 85.853 L 535.377 84.868 L 535.852 83.871 L 536.303 82.863 L 536.729 81.844 L 537.130 80.814 L 537.505 79.776 L 537.855 78.728 L 538.179 77.672 L 538.477 76.609 L 538.749 75.538 L 538.994 74.462 L 539.213 73.379 L 539.405 72.291 L 539.571 71.199 L 539.710 70.104 L 539.821 69.005 L 539.906 67.904 L 539.964 66.801 L 539.995 65.697 L 539.998 64.592 L 539.975 63.488 L 539.924 62.385 L 539.846 61.283 L 539.742 60.184 L 539.610 59.087 L 539.451 57.994 L 539.266 56.905 L 539.054 55.822 L 538.816 54.743 L 538.551 53.671 L 538.259 52.606 L 537.942 51.548 L 537.599 50.498 L 537.230 49.457 L 536.836 48.425 L 536.417 47.403 L 535.973 46.392 L 535.504 45.392 L 535.010 44.404 L 534.493 43.429 L 533.951 42.466 L 533.387 41.517 L 532.799 40.582 L 532.188 39.662 L 531.555 38.756 L 530.900 37.867 L 530.223 36.994 L 529.526 36.138 L 528.807 35.300 L 528.068 34.479 L 527.309 33.677 L 526.530 32.893 L 525.733 32.129 L 524.917 31.385 L 524.083 30.661 L 523.231 29.957 L 522.363 29.275 L 521.478 28.614 L 520.577 27.976 L 519.661 27.359 L 518.730 26.765 L 517.784 26.194 L 516.825 25.647 L 515.853 25.123 L 514.868 24.623 L 513.871 24.148 L 512.863 23.697 L 511.844 23.271 L 510.814 22.870 L 509.776 22.495 L 508.728 22.145 L 507.672 21.821 L 506.609 21.523 L 505.538 21.251 L 504.462 21.006 L 503.379 20.787 L 502.291 20.595 L 501.199 20.429 L 500.104 20.290 L 499.005 20.179 L 497.904 20.094 L 496.801 20.036 L 495.697 20.005 L 494.592 20.002 L 491.139 20.033 Z" fill="black" fill-rule="evenodd"/>
</svg>
