<svg xmlns="http://www.w3.org/2000/svg" viewBox="0 0 700.000 1000">
  <path d="M 128.896 -4.986 L 127.792 -4.946 L 126.690 -4.878 L 125.589 -4.783 L 125.390 -4.761 L 124.492 -4.662 L 123.740 -4.560 L 123.397 -4.513 L 122.307 -4.337 L 121.221 -4.135 L 120.598 -4.003 L 120.140 -3.907 L 119.066 -3.651 L 117.998 -3.370 L 117.383 -3.192 L 116.937 -3.062 L 115.884 -2.729 L 114.840 -2.369 L 113.805 -1.985 L 112.779 -1.575 L 112.054 -1.264 L 111.764 -1.139 L 110.760 -0.680 L 110.246 -0.429 L 109.767 -0.195 L 108.787 0.314 L 107.820 0.846 L 106.865 1.402 L 106.688 1.511 L 105.925 1.982 L 104.999 2.584 L 104.089 3.209 L 103.723 3.473 L 103.194 3.856 L 102.315 4.524 L 101.851 4.896 L 101.452 5.215 L 100.607 5.926 L 99.780 6.657 L 98.971 7.409 L 98.341 8.023 L 98.180 8.180 L 97.813 8.557 L 97.409 8.971 L 96.657 9.780 L 96.146 10.357 L 95.926 10.607 L 95.215 11.452 L 94.524 12.315 L 94.143 12.816 L 93.856 13.194 L 93.392 13.835 L 93.209 14.089 L 92.584 14.999 L 91.982 15.925 L 91.402 16.865 L 91.159 17.282 L 90.846 17.820 L 90.533 18.388 L 90.314 18.787 L 89.805 19.767 L 89.514 20.363 L 89.320 20.760 L 89.137 21.162 L 88.861 21.764 L 88.721 22.090 L 88.425 22.779 L 88.015 23.805 L 87.631 24.840 L 87.463 25.328 L 87.271 25.884 L 87.185 26.156 L 86.938 26.937 L 86.702 27.749 L 86.630 27.998 L 86.349 29.066 L 86.093 30.140 L 85.865 31.221 L 85.743 31.872 L 85.663 32.307 L 85.604 32.670 L 85.487 33.397 L 85.338 34.492 L 85.326 34.607 L 85.217 35.589 L 85.136 36.522 L 85.122 36.690 L 85.054 37.792 L 85.014 38.896 L 85.000 40.000 L 85.000 40.000 L 85.000 410.000 L 85.000 780.000 L 85.014 781.104 L 85.054 782.208 L 85.122 783.310 L 85.217 784.411 L 85.338 785.508 L 85.487 786.603 L 85.663 787.693 L 85.865 788.779 L 86.093 789.860 L 86.349 790.934 L 86.630 792.002 L 86.938 793.063 L 87.271 794.116 L 87.631 795.160 L 88.015 796.195 L 88.425 797.221 L 88.861 798.236 L 89.320 799.240 L 89.805 800.233 L 90.314 801.213 L 90.846 802.180 L 91.402 803.135 L 91.982 804.075 L 92.584 805.001 L 93.209 805.911 L 93.856 806.806 L 94.524 807.685 L 95.215 808.548 L 95.926 809.393 L 96.657 810.220 L 97.409 811.029 L 98.180 811.820 L 98.971 812.591 L 99.780 813.343 L 100.607 814.074 L 101.452 814.785 L 102.315 815.476 L 103.194 816.144 L 104.089 816.791 L 104.999 817.416 L 105.925 818.018 L 106.865 818.598 L 107.820 819.154 L 108.787 819.686 L 109.767 820.195 L 110.760 820.680 L 111.764 821.139 L 112.779 821.575 L 113.805 821.985 L 114.840 822.369 L 115.884 822.729 L 116.937 823.062 L 117.998 823.370 L 119.066 823.651 L 120.140 823.907 L 121.221 824.135 L 122.307 824.337 L 123.397 824.513 L 124.492 824.662 L 125.589 824.783 L 126.690 824.878 L 127.792 824.946 L 128.896 824.986 L 130.000 825.000 L 131.104 824.986 L 132.208 824.946 L 133.310 824.878 L 134.411 824.783 L 135.508 824.662 L 136.603 824.513 L 137.693 824.337 L 138.779 824.135 L 139.860 823.907 L 140.934 823.651 L 142.002 823.370 L 143.063 823.062 L 144.116 822.729 L 145.160 822.369 L 146.195 821.985 L 147.221 821.575 L 148.236 821.139 L 149.240 820.680 L 150.233 820.195 L 151.213 819.686 L 152.180 819.154 L 153.135 818.598 L 154.075 818.018 L 155.001 817.416 L 155.911 816.791 L 156.806 816.144 L 157.685 815.476 L 158.548 814.785 L 159.393 814.074 L 160.220 813.343 L 161.029 812.591 L 161.820 811.820 L 162.591 811.029 L 163.343 810.220 L 164.074 809.393 L 164.785 808.548 L 165.476 807.685 L 166.144 806.806 L 166.791 805.911 L 167.416 805.001 L 168.018 804.075 L 168.598 803.135 L 169.154 802.180 L 169.686 801.213 L 170.195 800.233 L 170.680 799.240 L 171.139 798.236 L 171.575 797.221 L 171.985 796.195 L 172.369 795.160 L 172.729 794.116 L 173.062 793.063 L 173.370 792.002 L 173.651 790.934 L 173.907 789.860 L 174.135 788.779 L 174.337 787.693 L 174.513 786.603 L 174.662 785.508 L 174.783 784.411 L 174.878 783.310 L 174.946 782.208 L 174.986 781.104 L 175.000 780.000 L 175.000 455.000 L 347.849 455.000 L 530.190 800.981 L 530.717 801.951 L 531.268 802.909 L 531.842 803.852 L 532.439 804.782 L 533.058 805.696 L 533.700 806.595 L 534.363 807.478 L 535.048 808.344 L 535.755 809.193 L 536.481 810.025 L 537.228 810.838 L 537.995 811.633 L 538.781 812.409 L 539.586 813.166 L 540.409 813.902 L 541.250 814.618 L 542.108 815.313 L 542.983 815.987 L 543.874 816.639 L 544.781 817.270 L 545.704 817.877 L 546.640 818.462 L 547.591 819.024 L 548.556 819.562 L 549.533 820.076 L 550.523 820.566 L 551.524 821.032 L 552.537 821.473 L 553.560 821.889 L 554.593 822.280 L 555.635 822.646 L 556.686 822.985 L 557.745 823.299 L 558.811 823.587 L 559.884 823.848 L 560.963 824.083 L 562.048 824.292 L 563.137 824.474 L 564.231 824.629 L 565.328 824.757 L 566.428 824.858 L 567.530 824.932 L 568.633 824.979 L 569.737 824.999 L 570.842 824.992 L 571.946 824.958 L 573.048 824.897 L 574.149 824.808 L 575.248 824.693 L 576.343 824.551 L 577.434 824.382 L 578.521 824.186 L 579.603 823.963 L 580.679 823.715 L 581.749 823.439 L 582.811 823.138 L 583.866 822.810 L 584.912 822.457 L 585.950 822.079 L 586.978 821.674 L 587.995 821.245 L 589.002 820.791 L 589.997 820.313 L 590.981 819.810 L 591.951 819.283 L 592.909 818.732 L 593.852 818.158 L 594.782 817.561 L 595.696 816.942 L 596.595 816.300 L 597.478 815.637 L 598.344 814.952 L 599.193 814.245 L 600.025 813.519 L 600.838 812.772 L 601.633 812.005 L 602.409 811.219 L 603.166 810.414 L 603.902 809.591 L 604.618 808.750 L 605.313 807.892 L 605.987 807.017 L 606.639 806.126 L 607.270 805.219 L 607.877 804.296 L 608.462 803.360 L 609.024 802.409 L 609.562 801.444 L 610.076 800.467 L 610.566 799.477 L 611.032 798.476 L 611.473 797.463 L 611.889 796.440 L 612.280 795.407 L 612.646 794.365 L 612.985 793.314 L 613.299 792.255 L 613.587 791.189 L 613.848 790.116 L 614.083 789.037 L 614.292 787.952 L 614.474 786.863 L 614.629 785.769 L 614.757 784.672 L 614.858 783.572 L 614.932 782.470 L 614.979 781.367 L 614.999 780.263 L 614.992 779.158 L 614.958 778.054 L 614.897 776.952 L 614.808 775.851 L 614.693 774.752 L 614.551 773.657 L 614.382 772.566 L 614.186 771.479 L 613.963 770.397 L 613.715 769.321 L 613.439 768.251 L 613.138 767.189 L 612.810 766.134 L 612.457 765.088 L 612.079 764.050 L 611.674 763.022 L 611.245 762.005 L 610.791 760.998 L 610.313 760.003 L 609.810 759.019 L 443.994 444.395 L 446.084 443.737 L 447.050 443.421 L 451.009 442.075 L 451.968 441.737 L 455.896 440.302 L 456.847 439.942 L 460.741 438.419 L 461.683 438.037 L 465.542 436.426 L 466.476 436.024 L 470.297 434.326 L 471.221 433.903 L 475.003 432.119 L 475.918 431.675 L 479.658 429.806 L 480.563 429.341 L 484.260 427.389 L 485.154 426.904 L 488.806 424.868 L 489.689 424.363 L 493.294 422.245 L 494.165 421.720 L 497.721 419.521 L 498.580 418.976 L 502.086 416.698 L 502.933 416.134 L 506.386 413.777 L 507.219 413.194 L 510.619 410.759 L 511.439 410.158 L 514.782 407.647 L 515.588 407.027 L 518.874 404.441 L 519.666 403.803 L 522.893 401.144 L 523.670 400.488 L 526.836 397.757 L 527.598 397.084 L 530.701 394.281 L 531.448 393.591 L 534.487 390.719 L 535.218 390.012 L 538.191 387.073 L 538.906 386.349 L 541.812 383.343 L 542.511 382.604 L 545.348 379.533 L 546.030 378.778 L 548.797 375.644 L 549.462 374.874 L 552.157 371.677 L 552.804 370.893 L 555.427 367.636 L 556.056 366.837 L 558.604 363.522 L 559.215 362.709 L 561.688 359.338 L 562.280 358.511 L 564.676 355.084 L 565.249 354.244 L 567.568 350.764 L 568.122 349.912 L 570.361 346.380 L 570.895 345.515 L 573.054 341.934 L 573.569 341.057 L 575.646 337.429 L 576.141 336.540 L 578.135 332.865 L 578.610 331.966 L 580.521 328.247 L 580.976 327.337 L 582.802 323.576 L 583.236 322.656 L 584.977 318.855 L 585.390 317.925 L 587.044 314.085 L 587.436 313.147 L 589.003 309.270 L 589.374 308.323 L 590.853 304.413 L 591.202 303.457 L 592.593 299.514 L 592.920 298.551 L 594.221 294.578 L 594.527 293.608 L 595.738 289.606 L 596.021 288.629 L 597.141 284.601 L 597.403 283.618 L 598.431 279.565 L 598.671 278.577 L 599.607 274.502 L 599.824 273.508 L 600.669 269.413 L 600.863 268.415 L 601.615 264.302 L 601.786 263.299 L 602.445 259.170 L 602.594 258.164 L 603.159 254.021 L 603.285 253.012 L 603.757 248.858 L 603.860 247.846 L 604.238 243.682 L 604.318 242.668 L 604.601 238.496 L 604.659 237.481 L 604.848 233.304 L 604.882 232.288 L 604.977 228.108 L 604.988 227.091 L 604.988 222.909 L 604.977 221.892 L 604.882 217.712 L 604.848 216.696 L 604.659 212.519 L 604.601 211.504 L 604.318 207.332 L 604.238 206.318 L 603.860 202.154 L 603.757 201.142 L 603.285 196.988 L 603.159 195.979 L 602.594 191.836 L 602.445 190.830 L 601.786 186.701 L 601.615 185.698 L 600.863 181.585 L 600.669 180.587 L 599.824 176.492 L 599.607 175.498 L 598.671 171.423 L 598.431 170.435 L 597.403 166.382 L 597.141 165.399 L 596.021 161.371 L 595.738 160.394 L 594.527 156.392 L 594.221 155.422 L 592.920 151.449 L 592.593 150.486 L 591.202 146.543 L 590.853 145.587 L 589.374 141.677 L 589.003 140.730 L 587.436 136.853 L 587.044 135.915 L 585.390 132.075 L 584.977 131.145 L 583.236 127.344 L 582.802 126.424 L 580.976 122.663 L 580.521 121.753 L 578.610 118.034 L 578.135 117.135 L 576.141 113.460 L 575.646 112.571 L 573.569 108.943 L 573.054 108.066 L 570.895 104.485 L 570.361 103.620 L 568.122 100.088 L 567.568 99.236 L 565.249 95.756 L 564.676 94.916 L 562.280 91.489 L 561.688 90.662 L 559.215 87.291 L 558.604 86.478 L 556.056 83.163 L 555.427 82.364 L 552.804 79.107 L 552.157 78.323 L 549.462 75.126 L 548.797 74.356 L 546.030 71.222 L 545.348 70.467 L 542.511 67.396 L 541.812 66.657 L 538.906 63.651 L 538.191 62.927 L 535.218 59.988 L 534.487 59.281 L 531.448 56.409 L 530.701 55.719 L 527.598 52.916 L 526.836 52.243 L 523.670 49.512 L 522.893 48.856 L 519.666 46.197 L 518.874 45.559 L 515.588 42.973 L 514.782 42.353 L 511.439 39.842 L 510.619 39.241 L 507.219 36.806 L 506.386 36.223 L 502.933 33.866 L 502.086 33.302 L 498.580 31.024 L 497.721 30.479 L 494.165 28.280 L 493.294 27.755 L 489.689 25.637 L 488.806 25.132 L 485.154 23.096 L 484.260 22.611 L 480.563 20.659 L 479.658 20.194 L 475.918 18.325 L 475.003 17.881 L 471.221 16.097 L 470.297 15.674 L 466.476 13.976 L 465.542 13.574 L 461.683 11.963 L 460.741 11.581 L 456.847 10.058 L 455.896 9.698 L 451.968 8.263 L 451.009 7.925 L 447.050 6.579 L 446.084 6.263 L 442.096 5.007 L 441.122 4.712 L 437.107 3.546 L 436.127 3.274 L 432.086 2.199 L 431.101 1.949 L 427.037 0.966 L 426.046 0.738 L 421.960 -0.153 L 420.964 -0.358 L 416.860 -1.156 L 415.860 -1.339 L 411.738 -2.045 L 410.734 -2.205 L 406.598 -2.817 L 405.590 -2.954 L 401.441 -3.473 L 400.431 -3.587 L 396.271 -4.012 L 395.258 -4.104 L 391.090 -4.434 L 390.075 -4.503 L 385.901 -4.739 L 384.885 -4.785 L 380.706 -4.927 L 379.689 -4.950 L 375.509 -4.997 L 375.254 -4.997 L 375.000 -5.000 L 130.000 -5.000 L 128.896 -4.986 Z M 378.164 85.039 L 381.326 85.146 L 384.485 85.325 L 387.639 85.575 L 390.787 85.896 L 393.927 86.288 L 397.057 86.751 L 400.175 87.285 L 403.281 87.889 L 406.373 88.563 L 409.448 89.307 L 412.506 90.120 L 415.544 91.002 L 418.562 91.953 L 421.558 92.971 L 424.530 94.057 L 427.476 95.210 L 430.396 96.429 L 433.288 97.714 L 436.149 99.064 L 438.980 100.478 L 441.778 101.956 L 444.541 103.496 L 447.270 105.099 L 449.961 106.763 L 452.614 108.487 L 455.227 110.271 L 457.799 112.113 L 460.329 114.013 L 462.816 115.970 L 465.257 117.982 L 467.653 120.049 L 470.001 122.170 L 472.301 124.343 L 474.551 126.568 L 476.750 128.843 L 478.897 131.167 L 480.991 133.539 L 483.031 135.958 L 485.016 138.422 L 486.944 140.930 L 488.815 143.482 L 490.629 146.075 L 492.383 148.708 L 494.077 151.380 L 495.710 154.090 L 497.282 156.836 L 498.791 159.617 L 500.237 162.431 L 501.619 165.278 L 502.937 168.154 L 504.189 171.060 L 505.375 173.994 L 506.494 176.953 L 507.546 179.937 L 508.531 182.944 L 509.447 185.972 L 510.295 189.021 L 511.073 192.088 L 511.782 195.171 L 512.422 198.270 L 512.991 201.383 L 513.489 204.507 L 513.917 207.642 L 514.274 210.786 L 514.559 213.937 L 514.774 217.094 L 514.917 220.255 L 514.988 223.418 L 514.988 226.582 L 514.917 229.745 L 514.774 232.906 L 514.559 236.063 L 514.274 239.214 L 513.917 242.358 L 513.489 245.493 L 512.991 248.617 L 512.422 251.730 L 511.782 254.829 L 511.073 257.912 L 510.295 260.979 L 509.447 264.028 L 508.531 267.056 L 507.546 270.063 L 506.494 273.047 L 505.375 276.006 L 504.189 278.940 L 502.937 281.846 L 501.619 284.722 L 500.237 287.569 L 498.791 290.383 L 497.282 293.164 L 495.710 295.910 L 494.077 298.620 L 492.383 301.292 L 490.629 303.925 L 488.815 306.518 L 486.944 309.070 L 485.016 311.578 L 483.031 314.042 L 480.991 316.461 L 478.897 318.833 L 476.750 321.157 L 474.551 323.432 L 472.301 325.657 L 470.001 327.830 L 467.653 329.951 L 465.257 332.018 L 462.816 334.030 L 460.329 335.987 L 457.799 337.887 L 455.227 339.729 L 452.614 341.513 L 449.961 343.237 L 447.270 344.901 L 444.541 346.504 L 441.778 348.044 L 438.980 349.522 L 436.149 350.936 L 433.288 352.286 L 430.396 353.571 L 427.476 354.790 L 424.530 355.943 L 421.558 357.029 L 418.562 358.047 L 415.544 358.998 L 412.506 359.880 L 409.448 360.693 L 406.373 361.437 L 403.281 362.111 L 400.175 362.715 L 397.057 363.249 L 393.927 363.712 L 390.787 364.104 L 387.639 364.425 L 384.485 364.675 L 381.326 364.854 L 378.164 364.961 L 374.746 365.000 L 175.000 365.000 L 175.000 85.000 L 374.746 85.000 L 378.164 85.039 Z" fill="black" fill-rule="evenodd"/>
</svg>
