<svg xmlns="http://www.w3.org/2000/svg" viewBox="0 0 700.000 1000">
  <path d="M 128.528 -4.976 L 127.057 -4.904 L 125.589 -4.783 L 124.126 -4.615 L 122.670 -4.399 L 121.221 -4.135 L 119.782 -3.824 L 119.782 -3.824 L 118.353 -3.467 L 116.937 -3.062 L 116.436 -2.901 L 115.535 -2.612 L 114.763 -2.335 L 114.149 -2.116 L 112.779 -1.575 L 111.428 -0.989 L 110.097 -0.359 L 108.787 0.314 L 107.500 1.029 L 106.237 1.786 L 104.999 2.584 L 103.789 3.422 L 102.606 4.299 L 102.606 4.299 L 102.606 4.299 L 101.452 5.215 L 100.329 6.167 L 99.238 7.156 L 98.549 7.824 L 98.180 8.180 L 97.156 9.238 L 96.167 10.329 L 95.215 11.452 L 94.670 12.139 L 94.299 12.606 L 93.422 13.789 L 92.584 14.999 L 91.786 16.237 L 91.369 16.932 L 91.029 17.500 L 90.314 18.787 L 89.641 20.097 L 89.011 21.428 L 88.821 21.867 L 88.425 22.779 L 88.045 23.743 L 87.884 24.149 L 87.388 25.535 L 87.223 26.050 L 86.938 26.937 L 86.533 28.353 L 86.176 29.782 L 85.918 30.974 L 85.865 31.221 L 85.601 32.670 L 85.563 32.923 L 85.385 34.126 L 85.217 35.589 L 85.101 36.997 L 85.096 37.057 L 85.024 38.528 L 85.000 40.000 L 85.000 40.000 L 85.000 410.000 L 85.000 780.000 L 85.024 781.472 L 85.096 782.943 L 85.217 784.411 L 85.385 785.874 L 85.601 787.330 L 85.865 788.779 L 86.176 790.218 L 86.533 791.647 L 86.938 793.063 L 87.388 794.465 L 87.884 795.851 L 88.425 797.221 L 89.011 798.572 L 89.641 799.903 L 90.314 801.213 L 91.029 802.500 L 91.786 803.763 L 92.584 805.001 L 93.422 806.211 L 94.299 807.394 L 95.215 808.548 L 96.167 809.671 L 97.156 810.762 L 98.180 811.820 L 99.238 812.844 L 100.329 813.833 L 101.452 814.785 L 102.606 815.701 L 103.789 816.578 L 104.999 817.416 L 106.237 818.214 L 107.500 818.971 L 108.787 819.686 L 110.097 820.359 L 111.428 820.989 L 112.779 821.575 L 114.149 822.116 L 115.535 822.612 L 116.937 823.062 L 118.353 823.467 L 119.782 823.824 L 121.221 824.135 L 122.670 824.399 L 124.126 824.615 L 125.589 824.783 L 127.057 824.904 L 128.528 824.976 L 130.000 825.000 L 131.472 824.976 L 132.943 824.904 L 134.411 824.783 L 135.874 824.615 L 137.330 824.399 L 138.779 824.135 L 140.218 823.824 L 141.647 823.467 L 143.063 823.062 L 144.465 822.612 L 145.851 822.116 L 147.221 821.575 L 148.572 820.989 L 149.903 820.359 L 151.213 819.686 L 152.500 818.971 L 153.763 818.214 L 155.001 817.416 L 156.211 816.578 L 157.394 815.701 L 158.548 814.785 L 159.671 813.833 L 160.762 812.844 L 161.820 811.820 L 162.844 810.762 L 163.833 809.671 L 164.785 808.548 L 165.701 807.394 L 166.578 806.211 L 167.416 805.001 L 168.214 803.763 L 168.971 802.500 L 169.686 801.213 L 170.359 799.903 L 170.989 798.572 L 171.575 797.221 L 172.116 795.851 L 172.612 794.465 L 173.062 793.063 L 173.467 791.647 L 173.824 790.218 L 174.135 788.779 L 174.399 787.330 L 174.615 785.874 L 174.783 784.411 L 174.904 782.943 L 174.976 781.472 L 175.000 780.000 L 175.000 455.000 L 347.849 455.000 L 530.190 800.981 L 530.898 802.272 L 531.648 803.540 L 532.439 804.782 L 533.269 805.997 L 534.140 807.185 L 535.048 808.344 L 535.995 809.473 L 536.977 810.569 L 537.995 811.633 L 539.047 812.664 L 540.132 813.659 L 541.250 814.618 L 542.398 815.540 L 543.575 816.424 L 544.781 817.270 L 546.014 818.075 L 547.273 818.839 L 548.556 819.562 L 549.862 820.242 L 551.189 820.880 L 552.537 821.473 L 553.903 822.022 L 555.287 822.527 L 556.686 822.985 L 558.100 823.398 L 559.526 823.764 L 560.963 824.083 L 562.411 824.355 L 563.866 824.580 L 565.328 824.757 L 566.795 824.886 L 568.265 824.967 L 569.737 824.999 L 571.210 824.984 L 572.681 824.920 L 574.149 824.808 L 575.613 824.649 L 577.071 824.441 L 578.521 824.186 L 579.962 823.883 L 581.393 823.534 L 582.811 823.138 L 584.216 822.696 L 585.605 822.208 L 586.978 821.674 L 588.332 821.097 L 589.667 820.475 L 590.981 819.810 L 592.272 819.102 L 593.540 818.352 L 594.782 817.561 L 595.997 816.731 L 597.185 815.860 L 598.344 814.952 L 599.473 814.005 L 600.569 813.023 L 601.633 812.005 L 602.664 810.953 L 603.659 809.868 L 604.618 808.750 L 605.540 807.602 L 606.424 806.425 L 607.270 805.219 L 608.075 803.986 L 608.839 802.727 L 609.562 801.444 L 610.242 800.138 L 610.880 798.811 L 611.473 797.463 L 612.022 796.097 L 612.527 794.713 L 612.985 793.314 L 613.398 791.900 L 613.764 790.474 L 614.083 789.037 L 614.355 787.589 L 614.580 786.134 L 614.757 784.672 L 614.886 783.205 L 614.967 781.735 L 614.999 780.263 L 614.984 778.790 L 614.920 777.319 L 614.808 775.851 L 614.649 774.387 L 614.441 772.929 L 614.186 771.479 L 613.883 770.038 L 613.534 768.607 L 613.138 767.189 L 612.696 765.784 L 612.208 764.395 L 611.674 763.022 L 611.097 761.668 L 610.475 760.333 L 609.810 759.019 L 443.992 444.392 L 446.085 443.736 L 447.214 443.366 L 451.835 441.783 L 452.953 441.384 L 457.530 439.680 L 458.638 439.250 L 463.168 437.426 L 464.264 436.968 L 468.745 435.025 L 469.829 434.538 L 474.256 432.477 L 475.327 431.962 L 479.699 429.785 L 480.755 429.241 L 485.068 426.950 L 486.109 426.378 L 490.360 423.974 L 491.386 423.375 L 495.572 420.859 L 496.582 420.234 L 500.700 417.608 L 501.694 416.956 L 505.741 414.223 L 506.716 413.545 L 510.690 410.706 L 511.648 410.003 L 515.545 407.060 L 516.483 406.331 L 520.302 403.286 L 521.221 402.533 L 524.957 399.388 L 525.856 398.612 L 529.508 395.369 L 530.386 394.569 L 533.952 391.231 L 534.808 390.408 L 538.284 386.978 L 539.119 386.132 L 542.503 382.611 L 543.315 381.744 L 546.605 378.135 L 547.394 377.246 L 550.588 373.551 L 551.353 372.642 L 554.448 368.865 L 555.189 367.936 L 558.183 364.078 L 558.899 363.130 L 561.790 359.194 L 562.481 358.227 L 565.267 354.216 L 565.932 353.232 L 568.612 349.149 L 569.251 348.147 L 571.822 343.995 L 572.434 342.977 L 574.894 338.758 L 575.479 337.724 L 577.827 333.442 L 578.385 332.393 L 580.619 328.050 L 581.149 326.986 L 583.268 322.586 L 583.769 321.509 L 585.771 317.055 L 586.244 315.965 L 588.128 311.459 L 588.571 310.357 L 590.336 305.803 L 590.750 304.689 L 592.394 300.090 L 592.779 298.967 L 594.300 294.326 L 594.655 293.192 L 596.054 288.513 L 596.379 287.370 L 597.653 282.655 L 597.948 281.505 L 599.097 276.758 L 599.362 275.600 L 600.386 270.825 L 600.619 269.660 L 601.517 264.859 L 601.720 263.689 L 602.490 258.866 L 602.662 257.690 L 603.305 252.849 L 603.445 251.669 L 603.960 246.813 L 604.070 245.630 L 604.456 240.761 L 604.535 239.576 L 604.792 234.699 L 604.839 233.512 L 604.968 228.630 L 604.984 227.442 L 604.984 222.558 L 604.968 221.370 L 604.839 216.488 L 604.792 215.301 L 604.535 210.424 L 604.456 209.239 L 604.070 204.370 L 603.960 203.187 L 603.445 198.331 L 603.305 197.151 L 602.662 192.310 L 602.490 191.134 L 601.720 186.311 L 601.517 185.141 L 600.619 180.340 L 600.386 179.175 L 599.362 174.400 L 599.097 173.242 L 597.948 168.495 L 597.653 167.345 L 596.379 162.630 L 596.054 161.487 L 594.655 156.808 L 594.300 155.674 L 592.779 151.033 L 592.394 149.910 L 590.750 145.311 L 590.336 144.197 L 588.571 139.643 L 588.128 138.541 L 586.244 134.035 L 585.771 132.945 L 583.769 128.491 L 583.268 127.414 L 581.149 123.014 L 580.619 121.950 L 578.385 117.607 L 577.827 116.558 L 575.479 112.276 L 574.894 111.242 L 572.434 107.023 L 571.822 106.005 L 569.251 101.853 L 568.612 100.851 L 565.932 96.768 L 565.267 95.784 L 562.481 91.773 L 561.790 90.806 L 558.899 86.870 L 558.183 85.922 L 555.189 82.064 L 554.448 81.135 L 551.353 77.358 L 550.588 76.449 L 547.394 72.754 L 546.605 71.865 L 543.315 68.256 L 542.503 67.389 L 539.119 63.868 L 538.284 63.022 L 534.808 59.592 L 533.952 58.769 L 530.386 55.431 L 529.508 54.631 L 525.856 51.388 L 524.957 50.612 L 521.221 47.467 L 520.302 46.714 L 516.483 43.669 L 515.545 42.940 L 511.648 39.997 L 510.690 39.294 L 506.716 36.455 L 505.741 35.777 L 501.694 33.044 L 500.700 32.392 L 496.582 29.766 L 495.572 29.141 L 491.386 26.625 L 490.360 26.026 L 486.109 23.622 L 485.068 23.050 L 480.755 20.759 L 479.699 20.215 L 475.327 18.038 L 474.256 17.523 L 469.829 15.462 L 468.745 14.975 L 464.264 13.032 L 463.168 12.574 L 458.638 10.750 L 457.530 10.320 L 452.953 8.616 L 451.835 8.217 L 447.214 6.634 L 446.085 6.264 L 441.425 4.804 L 440.287 4.464 L 435.589 3.127 L 434.443 2.817 L 429.712 1.605 L 428.557 1.326 L 423.796 0.239 L 422.634 -0.010 L 417.846 -0.971 L 416.678 -1.189 L 411.866 -2.023 L 410.693 -2.210 L 405.860 -2.917 L 404.683 -3.073 L 399.833 -3.652 L 398.652 -3.778 L 393.789 -4.228 L 392.604 -4.322 L 387.731 -4.644 L 386.545 -4.707 L 381.665 -4.900 L 380.477 -4.932 L 375.594 -4.996 L 375.297 -4.995 L 375.000 -5.000 L 130.000 -5.000 L 128.528 -4.976 Z M 378.695 85.053 L 382.388 85.199 L 386.076 85.443 L 389.756 85.784 L 393.426 86.222 L 397.083 86.757 L 400.724 87.388 L 404.348 88.115 L 407.951 88.937 L 411.531 89.854 L 415.086 90.866 L 418.613 91.970 L 422.109 93.168 L 425.572 94.458 L 429.001 95.838 L 432.391 97.308 L 435.742 98.868 L 439.050 100.515 L 442.314 102.249 L 445.531 104.069 L 448.698 105.973 L 451.815 107.960 L 454.877 110.028 L 457.884 112.177 L 460.834 114.404 L 463.723 116.708 L 466.551 119.088 L 469.315 121.542 L 472.013 124.067 L 474.643 126.663 L 477.204 129.328 L 479.694 132.059 L 482.111 134.855 L 484.453 137.714 L 486.719 140.634 L 488.907 143.612 L 491.016 146.647 L 493.044 149.737 L 494.989 152.879 L 496.851 156.072 L 498.628 159.312 L 500.319 162.598 L 501.923 165.928 L 503.438 169.299 L 504.864 172.709 L 506.199 176.155 L 507.442 179.635 L 508.594 183.147 L 509.652 186.688 L 510.616 190.256 L 511.486 193.848 L 512.261 197.462 L 512.940 201.094 L 513.523 204.744 L 514.009 208.408 L 514.399 212.083 L 514.691 215.767 L 514.886 219.458 L 514.984 223.152 L 514.984 226.848 L 514.886 230.542 L 514.691 234.233 L 514.399 237.917 L 514.009 241.592 L 513.523 245.256 L 512.940 248.906 L 512.261 252.538 L 511.486 256.152 L 510.616 259.744 L 509.652 263.312 L 508.594 266.853 L 507.442 270.365 L 506.199 273.845 L 504.864 277.291 L 503.438 280.701 L 501.923 284.072 L 500.319 287.402 L 498.628 290.688 L 496.851 293.928 L 494.989 297.121 L 493.044 300.263 L 491.016 303.353 L 488.907 306.388 L 486.719 309.366 L 484.453 312.286 L 482.111 315.145 L 479.694 317.941 L 477.204 320.672 L 474.643 323.337 L 472.013 325.933 L 469.315 328.458 L 466.551 330.912 L 463.723 333.292 L 460.834 335.596 L 457.884 337.823 L 454.877 339.972 L 451.815 342.040 L 448.698 344.027 L 445.531 345.931 L 442.314 347.751 L 439.050 349.485 L 435.742 351.132 L 432.391 352.692 L 429.001 354.162 L 425.572 355.542 L 422.109 356.832 L 418.613 358.030 L 415.086 359.134 L 411.531 360.146 L 407.951 361.063 L 404.348 361.885 L 400.724 362.612 L 397.083 363.243 L 393.426 363.778 L 389.756 364.216 L 386.076 364.557 L 382.388 364.801 L 378.695 364.947 L 374.703 365.000 L 175.000 365.000 L 175.000 85.000 L 374.703 85.000 L 378.695 85.053 Z" fill="black" fill-rule="evenodd"/>
</svg>
