<svg xmlns="http://www.w3.org/2000/svg" viewBox="0 0 700.000 1000.000">
  <path d="M 177.476,649.264 L 178.551,657.842 L 180.052,666.356 L 181.976,674.784 L 184.317,683.106 L 187.070,691.302 L 190.229,699.349 L 193.785,707.229 L 197.729,714.923 L 202.051,722.410 L 206.742,729.672 L 211.788,736.691 L 217.179,743.450 L 222.899,749.932 L 228.936,756.121 L 235.273,762.002 L 241.896,767.559 L 248.787,772.779 L 255.930,777.649 L 263.307,782.157 L 270.899,786.291 L 278.689,790.042 L 286.655,793.400 L 294.779,796.357 L 303.040,798.906 L 311.418,801.039 L 319.892,802.752 L 328.441,804.040 L 337.043,804.901 L 345.677,805.332 L 354.323,805.332 L 362.957,804.901 L 371.559,804.040 L 380.108,802.752 L 388.582,801.039 L 396.960,798.906 L 405.221,796.357 L 413.345,793.400 L 421.311,790.042 L 429.101,786.291 L 436.693,782.157 L 444.070,777.649 L 451.213,772.779 L 458.104,767.559 L 464.727,762.002 L 471.064,756.121 L 477.101,749.932 L 482.821,743.450 L 488.212,736.691 L 493.258,729.672 L 497.949,722.410 L 502.271,714.923 L 506.215,707.229 L 509.771,699.349 L 512.930,691.302 L 515.683,683.106 L 518.024,674.784 L 519.948,666.356 L 521.449,657.842 L 522.524,649.264 L 523.170,640.643 L 523.414,630.878 L 523.523,628.672 L 523.741,626.474 L 524.066,624.289 L 524.497,622.123 L 525.035,619.981 L 525.677,617.868 L 526.422,615.788 L 527.268,613.748 L 528.213,611.752 L 529.255,609.804 L 530.391,607.910 L 531.619,606.074 L 532.935,604.301 L 534.337,602.594 L 535.821,600.958 L 537.383,599.397 L 539.020,597.914 L 540.728,596.514 L 542.503,595.199 L 544.340,593.972 L 546.235,592.837 L 548.183,591.797 L 550.180,590.853 L 552.221,590.009 L 554.301,589.266 L 556.415,588.625 L 558.558,588.090 L 560.724,587.660 L 562.909,587.336 L 565.000,587.131 L 565.000,40.000 L 565.054,37.792 L 565.217,35.589 L 565.487,33.397 L 565.865,31.221 L 566.349,29.066 L 566.938,26.937 L 567.631,24.840 L 568.425,22.779 L 569.320,20.760 L 570.314,18.787 L 571.402,16.865 L 572.584,14.999 L 573.856,13.194 L 575.215,11.452 L 576.657,9.780 L 578.180,8.180 L 579.780,6.657 L 581.452,5.215 L 583.194,3.856 L 584.999,2.584 L 586.865,1.402 L 588.787,0.314 L 590.760,-0.680 L 592.779,-1.575 L 594.840,-2.369 L 596.937,-3.062 L 599.066,-3.651 L 601.221,-4.135 L 603.397,-4.513 L 605.589,-4.783 L 607.792,-4.946 L 610.000,-5.000 L 612.208,-4.946 L 614.411,-4.783 L 616.603,-4.513 L 618.779,-4.135 L 620.934,-3.651 L 623.063,-3.062 L 625.160,-2.369 L 627.221,-1.575 L 629.240,-0.680 L 631.213,0.314 L 633.135,1.402 L 635.001,2.584 L 636.806,3.856 L 638.548,5.215 L 640.220,6.657 L 641.820,8.180 L 643.343,9.780 L 644.785,11.452 L 646.144,13.194 L 647.416,14.999 L 648.598,16.865 L 649.686,18.787 L 650.680,20.760 L 651.575,22.779 L 652.369,24.840 L 653.062,26.937 L 653.651,29.066 L 654.135,31.221 L 654.513,33.397 L 654.783,35.589 L 654.946,37.792 L 655.000,40.000 L 655.000,632.000 L 654.946,634.208 L 654.783,636.411 L 654.513,638.603 L 654.135,640.779 L 653.651,642.934 L 653.062,645.063 L 652.369,647.160 L 651.575,649.221 L 650.680,651.240 L 649.686,653.213 L 648.598,655.135 L 647.416,657.001 L 646.144,658.806 L 644.785,660.548 L 643.343,662.220 L 641.820,663.820 L 640.220,665.343 L 638.548,666.785 L 636.806,668.144 L 635.001,669.416 L 633.135,670.598 L 631.213,671.686 L 629.240,672.680 L 627.221,673.575 L 625.160,674.369 L 623.063,675.062 L 620.934,675.651 L 618.779,676.135 L 616.603,676.513 L 614.411,676.783 L 612.208,676.946 L 610.000,677.000 L 609.462,676.987 L 608.386,683.089 L 607.941,685.289 L 605.518,695.905 L 604.965,698.080 L 602.015,708.562 L 601.354,710.706 L 597.886,721.029 L 597.118,723.138 L 593.140,733.275 L 592.268,735.342 L 587.789,745.268 L 586.816,747.290 L 581.848,756.980 L 580.775,758.951 L 575.330,768.381 L 574.160,770.296 L 568.252,779.444 L 566.988,781.298 L 560.631,790.139 L 559.276,791.928 L 552.487,800.442 L 551.044,802.161 L 543.839,810.326 L 542.313,811.970 L 534.709,819.766 L 533.103,821.333 L 525.120,828.740 L 523.438,830.224 L 515.096,837.224 L 513.341,838.623 L 504.661,845.198 L 502.839,846.508 L 493.842,852.642 L 491.957,853.860 L 482.665,859.538 L 480.721,860.660 L 471.158,865.868 L 469.161,866.892 L 459.350,871.616 L 457.305,872.539 L 447.270,876.769 L 445.181,877.589 L 434.948,881.314 L 432.821,882.028 L 422.416,885.238 L 420.256,885.846 L 409.703,888.533 L 407.515,889.032 L 396.841,891.190 L 394.632,891.579 L 383.864,893.202 L 381.637,893.481 L 370.802,894.566 L 368.564,894.733 L 357.688,895.276 L 355.445,895.332 L 344.555,895.332 L 342.312,895.276 L 331.436,894.733 L 329.198,894.566 L 318.363,893.481 L 316.136,893.202 L 305.368,891.579 L 303.159,891.190 L 292.485,889.032 L 290.297,888.533 L 279.744,885.846 L 277.584,885.238 L 267.179,882.028 L 265.052,881.314 L 254.819,877.589 L 252.730,876.769 L 242.695,872.539 L 240.650,871.616 L 230.839,866.892 L 228.842,865.868 L 219.279,860.660 L 217.335,859.538 L 208.043,853.860 L 206.158,852.642 L 197.161,846.508 L 195.339,845.198 L 186.659,838.623 L 184.904,837.224 L 176.562,830.224 L 174.880,828.740 L 166.897,821.333 L 165.291,819.766 L 157.687,811.970 L 156.161,810.326 L 148.956,802.161 L 147.513,800.442 L 140.724,791.928 L 139.369,790.139 L 133.012,781.298 L 131.748,779.444 L 125.840,770.296 L 124.670,768.381 L 119.225,758.951 L 118.152,756.980 L 113.184,747.290 L 112.211,745.268 L 107.732,735.342 L 106.860,733.275 L 102.882,723.138 L 102.114,721.029 L 98.646,710.706 L 97.985,708.562 L 95.035,698.080 L 94.482,695.905 L 92.059,685.289 L 91.614,683.089 L 90.538,676.987 L 90.000,677.000 L 87.792,676.946 L 85.589,676.783 L 83.397,676.513 L 81.221,676.135 L 79.066,675.651 L 76.937,675.062 L 74.840,674.369 L 72.779,673.575 L 70.760,672.680 L 68.787,671.686 L 66.865,670.598 L 64.999,669.416 L 63.194,668.144 L 61.452,666.785 L 59.780,665.343 L 58.180,663.820 L 56.657,662.220 L 55.215,660.548 L 53.856,658.806 L 52.584,657.001 L 51.402,655.135 L 50.314,653.213 L 49.320,651.240 L 48.425,649.221 L 47.631,647.160 L 46.938,645.063 L 46.349,642.934 L 45.865,640.779 L 45.487,638.603 L 45.217,636.411 L 45.054,634.208 L 45.000,632.000 L 45.000,40.000 L 45.054,37.792 L 45.217,35.589 L 45.487,33.397 L 45.865,31.221 L 46.349,29.066 L 46.938,26.937 L 47.631,24.840 L 48.425,22.779 L 49.320,20.760 L 50.314,18.787 L 51.402,16.865 L 52.584,14.999 L 53.856,13.194 L 55.215,11.452 L 56.657,9.780 L 58.180,8.180 L 59.780,6.657 L 61.452,5.215 L 63.194,3.856 L 64.999,2.584 L 66.865,1.402 L 68.787,0.314 L 70.760,-0.680 L 72.779,-1.575 L 74.840,-2.369 L 76.937,-3.062 L 79.066,-3.651 L 81.221,-4.135 L 83.397,-4.513 L 85.589,-4.783 L 87.792,-4.946 L 90.000,-5.000 L 92.208,-4.946 L 94.411,-4.783 L 96.603,-4.513 L 98.779,-4.135 L 100.934,-3.651 L 103.063,-3.062 L 105.160,-2.369 L 107.221,-1.575 L 109.240,-0.680 L 111.213,0.314 L 113.135,1.402 L 115.001,2.584 L 116.806,3.856 L 118.548,5.215 L 120.220,6.657 L 121.820,8.180 L 123.343,9.780 L 124.785,11.452 L 126.144,13.194 L 127.416,14.999 L 128.598,16.865 L 129.686,18.787 L 130.680,20.760 L 131.575,22.779 L 132.369,24.840 L 133.062,26.937 L 133.651,29.066 L 134.135,31.221 L 134.513,33.397 L 134.783,35.589 L 134.946,37.792 L 135.000,40.000 L 135.000,587.131 L 137.091,587.336 L 139.276,587.660 L 141.442,588.090 L 143.585,588.625 L 145.699,589.266 L 147.779,590.009 L 149.820,590.853 L 151.817,591.797 L 153.765,592.837 L 155.660,593.972 L 157.497,595.199 L 159.272,596.514 L 160.980,597.914 L 162.617,599.397 L 164.179,600.958 L 165.663,602.594 L 167.065,604.301 L 168.381,606.074 L 169.609,607.910 L 170.745,609.804 L 171.787,611.752 L 172.732,613.748 L 173.578,615.788 L 174.323,617.868 L 174.965,619.981 L 175.503,622.123 L 175.934,624.289 L 176.259,626.474 L 176.477,628.672 L 176.586,630.878 L 176.830,640.643 L 177.476,649.264 Z" fill="black" fill-rule="evenodd"/>
</svg>
