<svg xmlns="http://www.w3.org/2000/svg" viewBox="0 0 700.000 1000">
  <path d="M 571.472 84.976 L 572.943 84.904 L 574.411 84.783 L 575.874 84.615 L 577.330 84.399 L 578.779 84.135 L 580.218 83.824 L 581.647 83.467 L 583.063 83.062 L 584.465 82.612 L 585.851 82.116 L 587.221 81.575 L 588.572 80.989 L 589.903 80.359 L 591.213 79.686 L 592.500 78.971 L 593.763 78.214 L 595.001 77.416 L 596.211 76.578 L 597.394 75.701 L 598.548 74.785 L 599.671 73.833 L 600.762 72.844 L 601.820 71.820 L 602.844 70.762 L 603.833 69.671 L 604.785 68.548 L 605.701 67.394 L 606.578 66.211 L 607.416 65.001 L 608.214 63.763 L 608.971 62.500 L 609.686 61.213 L 610.359 59.903 L 610.989 58.572 L 611.575 57.221 L 612.116 55.851 L 612.612 54.465 L 613.062 53.063 L 613.467 51.647 L 613.824 50.218 L 614.135 48.779 L 614.399 47.330 L 614.615 45.874 L 614.783 44.411 L 614.904 42.943 L 614.976 41.472 L 615.000 40.000 L 614.976 38.528 L 614.904 37.057 L 614.783 35.589 L 614.615 34.126 L 614.399 32.670 L 614.135 31.221 L 613.824 29.782 L 613.467 28.353 L 613.062 26.937 L 612.612 25.535 L 612.116 24.149 L 611.575 22.779 L 610.989 21.428 L 610.359 20.097 L 609.686 18.787 L 608.971 17.500 L 608.214 16.237 L 607.416 14.999 L 606.578 13.789 L 605.701 12.606 L 604.785 11.452 L 603.833 10.329 L 602.844 9.238 L 601.820 8.180 L 600.762 7.156 L 599.671 6.167 L 598.548 5.215 L 597.394 4.299 L 596.211 3.422 L 595.001 2.584 L 593.763 1.786 L 592.500 1.029 L 591.213 0.314 L 589.903 -0.359 L 588.572 -0.989 L 587.221 -1.575 L 585.851 -2.116 L 584.465 -2.612 L 583.063 -3.062 L 581.647 -3.467 L 580.218 -3.824 L 578.779 -4.135 L 577.330 -4.399 L 575.874 -4.615 L 574.411 -4.783 L 572.943 -4.904 L 571.472 -4.976 L 570.000 -5.000 L 350.000 -5.000 L 130.000 -5.000 L 128.528 -4.976 L 127.057 -4.904 L 125.589 -4.783 L 124.126 -4.615 L 122.670 -4.399 L 121.221 -4.135 L 119.782 -3.824 L 118.353 -3.467 L 116.937 -3.062 L 115.535 -2.612 L 114.149 -2.116 L 112.779 -1.575 L 111.428 -0.989 L 110.097 -0.359 L 108.787 0.314 L 107.500 1.029 L 106.237 1.786 L 104.999 2.584 L 103.789 3.422 L 102.606 4.299 L 101.452 5.215 L 100.329 6.167 L 99.238 7.156 L 98.180 8.180 L 97.156 9.238 L 96.167 10.329 L 95.215 11.452 L 94.299 12.606 L 93.422 13.789 L 92.584 14.999 L 91.786 16.237 L 91.029 17.500 L 90.314 18.787 L 89.641 20.097 L 89.011 21.428 L 88.425 22.779 L 87.884 24.149 L 87.388 25.535 L 86.938 26.937 L 86.533 28.353 L 86.176 29.782 L 85.865 31.221 L 85.601 32.670 L 85.385 34.126 L 85.217 35.589 L 85.096 37.057 L 85.024 38.528 L 85.000 40.000 L 85.024 41.472 L 85.096 42.943 L 85.217 44.411 L 85.385 45.874 L 85.601 47.330 L 85.865 48.779 L 86.176 50.218 L 86.533 51.647 L 86.938 53.063 L 87.388 54.465 L 87.884 55.851 L 88.425 57.221 L 89.011 58.572 L 89.641 59.903 L 90.314 61.213 L 91.029 62.500 L 91.786 63.763 L 92.584 65.001 L 93.422 66.211 L 94.299 67.394 L 95.215 68.548 L 96.167 69.671 L 97.156 70.762 L 98.180 71.820 L 99.238 72.844 L 100.329 73.833 L 101.452 74.785 L 102.606 75.701 L 103.789 76.578 L 104.999 77.416 L 106.237 78.214 L 107.500 78.971 L 108.787 79.686 L 110.097 80.359 L 111.428 80.989 L 112.779 81.575 L 114.149 82.116 L 115.535 82.612 L 116.937 83.062 L 118.353 83.467 L 119.782 83.824 L 121.221 84.135 L 122.670 84.399 L 124.126 84.615 L 125.589 84.783 L 127.057 84.904 L 128.528 84.976 L 130.000 85.000 L 305.000 85.000 L 305.000 780.000 L 305.024 781.472 L 305.096 782.943 L 305.217 784.411 L 305.385 785.874 L 305.601 787.330 L 305.865 788.779 L 306.176 790.218 L 306.533 791.647 L 306.938 793.063 L 307.388 794.465 L 307.884 795.851 L 308.425 797.221 L 309.011 798.572 L 309.641 799.903 L 310.314 801.213 L 311.029 802.500 L 311.786 803.763 L 312.584 805.001 L 313.422 806.211 L 314.299 807.394 L 315.215 808.548 L 316.167 809.671 L 317.156 810.762 L 318.180 811.820 L 319.238 812.844 L 320.329 813.833 L 321.452 814.785 L 322.606 815.701 L 323.789 816.578 L 324.999 817.416 L 326.237 818.214 L 327.500 818.971 L 328.787 819.686 L 330.097 820.359 L 331.428 820.989 L 332.779 821.575 L 334.149 822.116 L 335.535 822.612 L 336.937 823.062 L 338.353 823.467 L 339.782 823.824 L 341.221 824.135 L 342.670 824.399 L 344.126 824.615 L 345.589 824.783 L 347.057 824.904 L 348.528 824.976 L 350.000 825.000 L 351.472 824.976 L 352.943 824.904 L 354.411 824.783 L 355.874 824.615 L 357.330 824.399 L 358.779 824.135 L 360.218 823.824 L 361.647 823.467 L 363.063 823.062 L 364.465 822.612 L 365.851 822.116 L 367.221 821.575 L 368.572 820.989 L 369.903 820.359 L 371.213 819.686 L 372.500 818.971 L 373.763 818.214 L 375.001 817.416 L 376.211 816.578 L 377.394 815.701 L 378.548 814.785 L 379.671 813.833 L 380.762 812.844 L 381.820 811.820 L 382.844 810.762 L 383.833 809.671 L 384.785 808.548 L 385.701 807.394 L 386.578 806.211 L 387.416 805.001 L 388.214 803.763 L 388.971 802.500 L 389.686 801.213 L 390.359 799.903 L 390.989 798.572 L 391.575 797.221 L 392.116 795.851 L 392.612 794.465 L 393.062 793.063 L 393.467 791.647 L 393.824 790.218 L 394.135 788.779 L 394.399 787.330 L 394.615 785.874 L 394.783 784.411 L 394.904 782.943 L 394.976 781.472 L 395.000 780.000 L 395.000 85.000 L 570.000 85.000 L 571.472 84.976 Z" fill="black" fill-rule="evenodd"/>
</svg>
