<svg xmlns="http://www.w3.org/2000/svg" viewBox="0 0 700.000 1000.000">
  <path d="M 253.792,602.475 L 307.083,433.468 L 307.792,431.396 L 308.601,429.361 L 309.508,427.368 L 310.511,425.421 L 311.608,423.526 L 312.795,421.686 L 314.071,419.906 L 315.431,418.190 L 316.874,416.542 L 318.395,414.967 L 319.991,413.467 L 321.657,412.047 L 323.391,410.710 L 325.188,409.458 L 327.044,408.296 L 328.954,407.225 L 330.914,406.248 L 332.919,405.368 L 334.965,404.586 L 337.046,403.905 L 339.158,403.326 L 341.295,402.850 L 343.453,402.479 L 345.627,402.213 L 347.811,402.053 L 350.000,402.000 L 352.189,402.053 L 354.373,402.213 L 356.547,402.479 L 358.705,402.850 L 360.842,403.326 L 362.954,403.905 L 365.035,404.586 L 367.081,405.368 L 369.086,406.248 L 371.046,407.225 L 372.956,408.296 L 374.812,409.458 L 376.609,410.710 L 378.343,412.047 L 380.009,413.467 L 381.605,414.967 L 383.126,416.542 L 384.569,418.190 L 385.929,419.906 L 387.205,421.686 L 388.392,423.526 L 389.489,425.421 L 390.492,427.368 L 391.399,429.361 L 392.208,431.396 L 392.917,433.468 L 446.208,602.475 L 565.956,30.775 L 566.462,28.624 L 567.072,26.502 L 567.786,24.412 L 568.602,22.359 L 569.517,20.349 L 570.530,18.386 L 571.638,16.476 L 572.839,14.622 L 574.129,12.829 L 575.505,11.102 L 576.965,9.444 L 578.504,7.860 L 580.119,6.353 L 581.806,4.927 L 583.561,3.586 L 585.379,2.333 L 587.257,1.170 L 589.190,0.101 L 591.173,-0.872 L 593.201,-1.747 L 595.270,-2.521 L 597.374,-3.192 L 599.508,-3.760 L 601.668,-4.222 L 603.848,-4.578 L 606.043,-4.826 L 608.247,-4.966 L 610.456,-4.998 L 612.663,-4.921 L 614.864,-4.736 L 617.053,-4.444 L 619.225,-4.044 L 621.376,-3.538 L 623.498,-2.928 L 625.588,-2.214 L 627.641,-1.398 L 629.651,-0.483 L 631.614,0.530 L 633.524,1.638 L 635.378,2.839 L 637.171,4.129 L 638.898,5.505 L 640.556,6.965 L 642.140,8.504 L 643.647,10.119 L 645.073,11.806 L 646.414,13.561 L 647.667,15.379 L 648.830,17.257 L 649.899,19.190 L 650.872,21.173 L 651.747,23.201 L 652.521,25.270 L 653.192,27.374 L 653.760,29.508 L 654.222,31.668 L 654.578,33.848 L 654.826,36.043 L 654.966,38.247 L 654.998,40.456 L 654.921,42.663 L 654.736,44.864 L 654.444,47.053 L 654.044,49.225 L 499.044,789.225 L 498.543,791.359 L 497.938,793.465 L 497.232,795.539 L 496.426,797.576 L 495.521,799.572 L 494.520,801.521 L 493.426,803.419 L 492.240,805.262 L 490.966,807.045 L 489.607,808.764 L 488.166,810.414 L 486.646,811.993 L 485.051,813.495 L 483.385,814.918 L 481.652,816.259 L 479.855,817.513 L 477.999,818.678 L 476.089,819.752 L 474.129,820.732 L 472.124,821.615 L 470.078,822.399 L 467.996,823.083 L 465.883,823.664 L 463.745,824.142 L 461.586,824.515 L 459.411,824.783 L 457.226,824.945 L 455.036,825.000 L 452.845,824.948 L 450.659,824.790 L 448.484,824.526 L 446.325,824.156 L 444.185,823.681 L 442.072,823.103 L 439.989,822.423 L 437.942,821.642 L 435.935,820.762 L 433.973,819.785 L 432.062,818.715 L 430.204,817.552 L 428.406,816.301 L 426.670,814.963 L 425.002,813.543 L 423.405,812.043 L 421.882,810.467 L 420.438,808.818 L 419.077,807.102 L 417.800,805.321 L 416.611,803.480 L 415.514,801.584 L 414.510,799.636 L 413.602,797.642 L 412.793,795.605 L 412.083,793.532 L 350.000,596.641 L 287.917,793.532 L 287.207,795.605 L 286.398,797.642 L 285.490,799.636 L 284.486,801.584 L 283.389,803.480 L 282.200,805.321 L 280.923,807.102 L 279.562,808.818 L 278.118,810.467 L 276.595,812.043 L 274.998,813.543 L 273.330,814.963 L 271.594,816.301 L 269.796,817.552 L 267.938,818.715 L 266.027,819.785 L 264.065,820.762 L 262.058,821.642 L 260.011,822.423 L 257.928,823.103 L 255.815,823.681 L 253.675,824.156 L 251.516,824.526 L 249.341,824.790 L 247.155,824.948 L 244.964,825.000 L 242.774,824.945 L 240.589,824.783 L 238.414,824.515 L 236.255,824.142 L 234.117,823.664 L 232.004,823.083 L 229.922,822.399 L 227.876,821.615 L 225.871,820.732 L 223.911,819.752 L 222.001,818.678 L 220.145,817.513 L 218.348,816.259 L 216.615,814.918 L 214.949,813.495 L 213.354,811.993 L 211.834,810.414 L 210.393,808.764 L 209.034,807.045 L 207.760,805.262 L 206.574,803.419 L 205.480,801.521 L 204.479,799.572 L 203.574,797.576 L 202.768,795.539 L 202.062,793.465 L 201.457,791.359 L 200.956,789.225 L 45.956,49.225 L 45.556,47.053 L 45.264,44.864 L 45.079,42.663 L 45.002,40.456 L 45.034,38.247 L 45.174,36.043 L 45.422,33.848 L 45.778,31.668 L 46.240,29.508 L 46.808,27.374 L 47.479,25.270 L 48.253,23.201 L 49.128,21.173 L 50.101,19.190 L 51.170,17.257 L 52.333,15.379 L 53.586,13.561 L 54.927,11.806 L 56.353,10.119 L 57.860,8.504 L 59.444,6.965 L 61.102,5.505 L 62.829,4.129 L 64.622,2.839 L 66.476,1.638 L 68.386,0.530 L 70.349,-0.483 L 72.359,-1.398 L 74.412,-2.214 L 76.502,-2.928 L 78.624,-3.538 L 80.775,-4.044 L 82.947,-4.444 L 85.136,-4.736 L 87.337,-4.921 L 89.544,-4.998 L 91.753,-4.966 L 93.957,-4.826 L 96.152,-4.578 L 98.332,-4.222 L 100.492,-3.760 L 102.626,-3.192 L 104.730,-2.521 L 106.799,-1.747 L 108.827,-0.872 L 110.810,0.101 L 112.743,1.170 L 114.621,2.333 L 116.439,3.586 L 118.194,4.927 L 119.881,6.353 L 121.496,7.860 L 123.035,9.444 L 124.495,11.102 L 125.871,12.829 L 127.161,14.622 L 128.362,16.476 L 129.470,18.386 L 130.483,20.349 L 131.398,22.359 L 132.214,24.412 L 132.928,26.502 L 133.538,28.624 L 134.044,30.775 L 253.792,602.475 Z" fill="black" fill-rule="evenodd"/>
</svg>
