<svg xmlns="http://www.w3.org/2000/svg" viewBox="0 0 700.000 1000">
  <path d="M 704.994 409.264 L 704.828 399.121 L 704.780 397.649 L 704.282 387.517 L 704.186 386.048 L 703.357 375.937 L 703.212 374.472 L 702.053 364.394 L 701.861 362.934 L 700.372 352.900 L 700.133 351.447 L 698.317 341.466 L 698.029 340.022 L 695.888 330.106 L 695.553 328.672 L 693.088 318.832 L 692.707 317.410 L 689.922 307.655 L 689.494 306.246 L 686.391 296.588 L 685.918 295.194 L 682.500 285.642 L 681.982 284.264 L 678.253 274.830 L 677.690 273.469 L 673.655 264.162 L 673.047 262.821 L 668.710 253.651 L 668.059 252.330 L 663.424 243.306 L 662.730 242.008 L 657.802 233.141 L 657.066 231.865 L 651.850 223.164 L 651.073 221.914 L 645.576 213.388 L 644.758 212.164 L 638.985 203.822 L 638.127 202.625 L 632.084 194.477 L 631.187 193.309 L 624.881 185.363 L 623.947 184.225 L 617.384 176.490 L 616.413 175.383 L 609.601 167.866 L 608.594 166.791 L 601.539 159.502 L 600.498 158.461 L 593.209 151.406 L 592.134 150.399 L 584.617 143.587 L 583.510 142.616 L 575.775 136.053 L 574.637 135.119 L 566.691 128.813 L 565.523 127.916 L 557.375 121.873 L 556.178 121.015 L 547.836 115.242 L 546.612 114.424 L 538.086 108.927 L 536.836 108.150 L 528.135 102.934 L 526.859 102.198 L 517.992 97.270 L 516.694 96.576 L 507.670 91.941 L 506.349 91.290 L 497.179 86.953 L 495.838 86.345 L 486.531 82.310 L 485.170 81.747 L 475.736 78.018 L 474.358 77.500 L 464.806 74.082 L 463.412 73.609 L 453.754 70.506 L 452.345 70.078 L 442.590 67.293 L 441.168 66.912 L 431.328 64.447 L 429.894 64.112 L 419.978 61.971 L 418.534 61.683 L 408.553 59.867 L 407.100 59.628 L 397.066 58.139 L 395.606 57.947 L 385.528 56.788 L 384.063 56.643 L 373.952 55.814 L 372.483 55.718 L 362.351 55.220 L 360.879 55.172 L 350.736 55.006 L 349.264 55.006 L 339.121 55.172 L 337.649 55.220 L 327.517 55.718 L 326.048 55.814 L 315.937 56.643 L 314.472 56.788 L 304.394 57.947 L 302.934 58.139 L 292.900 59.628 L 291.447 59.867 L 281.466 61.683 L 280.022 61.971 L 270.106 64.112 L 268.672 64.447 L 258.832 66.912 L 257.410 67.293 L 247.655 70.078 L 246.246 70.506 L 236.588 73.609 L 235.194 74.082 L 225.642 77.500 L 224.264 78.018 L 214.830 81.747 L 213.469 82.310 L 204.162 86.345 L 202.821 86.953 L 193.651 91.290 L 192.330 91.941 L 183.306 96.576 L 182.008 97.270 L 173.141 102.198 L 171.865 102.934 L 163.164 108.150 L 161.914 108.927 L 153.388 114.424 L 152.164 115.242 L 143.822 121.015 L 142.625 121.873 L 134.477 127.916 L 133.309 128.813 L 125.363 135.119 L 124.225 136.053 L 116.490 142.616 L 115.383 143.587 L 107.866 150.399 L 106.791 151.406 L 99.502 158.461 L 98.461 159.502 L 91.406 166.791 L 90.399 167.866 L 83.587 175.383 L 82.616 176.490 L 76.053 184.225 L 75.119 185.363 L 68.813 193.309 L 67.916 194.477 L 61.873 202.625 L 61.015 203.822 L 55.242 212.164 L 54.424 213.388 L 48.927 221.914 L 48.150 223.164 L 42.934 231.865 L 42.198 233.141 L 37.270 242.008 L 36.576 243.306 L 31.941 252.330 L 31.290 253.651 L 26.953 262.821 L 26.345 264.162 L 22.310 273.469 L 21.747 274.830 L 18.018 284.264 L 17.500 285.642 L 14.082 295.194 L 13.609 296.588 L 10.506 306.246 L 10.078 307.655 L 7.293 317.410 L 6.912 318.832 L 4.447 328.672 L 4.112 330.106 L 1.971 340.022 L 1.683 341.466 L -0.133 351.447 L -0.372 352.900 L -1.861 362.934 L -2.053 364.394 L -3.212 374.472 L -3.357 375.937 L -4.186 386.048 L -4.282 387.517 L -4.780 397.649 L -4.828 399.121 L -4.994 409.264 L -4.994 410.736 L -4.828 420.879 L -4.780 422.351 L -4.282 432.483 L -4.186 433.952 L -3.357 444.063 L -3.212 445.528 L -2.053 455.606 L -1.861 457.066 L -0.372 467.100 L -0.133 468.553 L 1.683 478.534 L 1.971 479.978 L 4.112 489.894 L 4.447 491.328 L 6.912 501.168 L 7.293 502.590 L 10.078 512.345 L 10.506 513.754 L 13.609 523.412 L 14.082 524.806 L 17.500 534.358 L 18.018 535.736 L 21.747 545.170 L 22.310 546.531 L 26.345 555.838 L 26.953 557.179 L 31.290 566.349 L 31.941 567.670 L 36.576 576.694 L 37.270 577.992 L 42.198 586.859 L 42.934 588.135 L 48.150 596.836 L 48.927 598.086 L 54.424 606.612 L 55.242 607.836 L 61.015 616.178 L 61.873 617.375 L 67.916 625.523 L 68.813 626.691 L 75.119 634.637 L 76.053 635.775 L 82.616 643.510 L 83.587 644.617 L 90.399 652.134 L 91.406 653.209 L 98.461 660.498 L 99.502 661.539 L 106.791 668.594 L 107.866 669.601 L 115.383 676.413 L 116.490 677.384 L 124.225 683.947 L 125.363 684.881 L 133.309 691.187 L 134.477 692.084 L 142.625 698.127 L 143.822 698.985 L 152.164 704.758 L 153.388 705.576 L 161.914 711.073 L 163.164 711.850 L 171.865 717.066 L 173.141 717.802 L 182.008 722.730 L 183.306 723.424 L 192.330 728.059 L 193.651 728.710 L 202.821 733.047 L 204.162 733.655 L 213.469 737.690 L 214.830 738.253 L 224.264 741.982 L 225.642 742.500 L 235.194 745.918 L 236.588 746.391 L 246.246 749.494 L 247.655 749.922 L 257.410 752.707 L 258.832 753.088 L 268.672 755.553 L 270.106 755.888 L 280.022 758.029 L 281.466 758.317 L 291.447 760.133 L 292.900 760.372 L 302.934 761.861 L 304.394 762.053 L 314.472 763.212 L 315.937 763.357 L 326.048 764.186 L 327.517 764.282 L 337.649 764.780 L 339.121 764.828 L 349.264 764.994 L 350.736 764.994 L 360.879 764.828 L 362.351 764.780 L 372.483 764.282 L 373.952 764.186 L 384.063 763.357 L 385.528 763.212 L 395.606 762.053 L 397.066 761.861 L 407.100 760.372 L 408.553 760.133 L 418.534 758.317 L 419.978 758.029 L 429.894 755.888 L 431.328 755.553 L 441.168 753.088 L 442.590 752.707 L 452.345 749.922 L 453.754 749.494 L 463.412 746.391 L 464.806 745.918 L 474.358 742.500 L 475.736 741.982 L 485.170 738.253 L 485.696 738.036 L 533.135 805.806 L 533.999 806.998 L 534.901 808.162 L 535.841 809.295 L 536.818 810.397 L 537.831 811.466 L 538.877 812.502 L 539.957 813.503 L 541.070 814.468 L 542.213 815.396 L 543.386 816.286 L 544.588 817.138 L 545.816 817.949 L 547.071 818.720 L 548.350 819.450 L 549.652 820.137 L 550.976 820.781 L 552.321 821.382 L 553.684 821.938 L 555.065 822.449 L 556.462 822.915 L 557.874 823.335 L 559.298 823.709 L 560.734 824.036 L 562.180 824.315 L 563.634 824.547 L 565.095 824.732 L 566.561 824.868 L 568.031 824.957 L 569.503 824.997 L 570.975 824.989 L 572.447 824.933 L 573.916 824.829 L 575.380 824.677 L 576.839 824.477 L 578.291 824.230 L 579.734 823.935 L 581.166 823.593 L 582.586 823.204 L 583.993 822.769 L 585.385 822.288 L 586.760 821.762 L 588.118 821.192 L 589.456 820.577 L 590.773 819.918 L 592.068 819.217 L 593.339 818.474 L 594.586 817.690 L 595.806 816.865 L 596.998 816.001 L 598.162 815.099 L 599.295 814.159 L 600.397 813.182 L 601.466 812.169 L 602.502 811.123 L 603.503 810.043 L 604.468 808.930 L 605.396 807.787 L 606.286 806.614 L 607.138 805.412 L 607.949 804.184 L 608.720 802.929 L 609.450 801.650 L 610.137 800.348 L 610.781 799.024 L 611.382 797.679 L 611.938 796.316 L 612.449 794.935 L 612.915 793.538 L 613.335 792.126 L 613.709 790.702 L 614.036 789.266 L 614.315 787.820 L 614.547 786.366 L 614.732 784.905 L 614.868 783.439 L 614.957 781.969 L 614.997 780.497 L 614.989 779.025 L 614.933 777.553 L 614.829 776.084 L 614.677 774.620 L 614.477 773.161 L 614.230 771.709 L 613.935 770.266 L 613.593 768.834 L 613.204 767.414 L 612.769 766.007 L 612.288 764.615 L 611.762 763.240 L 611.192 761.882 L 610.577 760.544 L 609.918 759.227 L 609.217 757.932 L 608.474 756.661 L 607.690 755.414 L 606.865 754.194 L 564.118 693.126 L 565.523 692.084 L 566.691 691.187 L 574.637 684.881 L 575.775 683.947 L 583.510 677.384 L 584.617 676.413 L 592.134 669.601 L 593.209 668.594 L 600.498 661.539 L 601.539 660.498 L 608.594 653.209 L 609.601 652.134 L 616.413 644.617 L 617.384 643.510 L 623.947 635.775 L 624.881 634.637 L 631.187 626.691 L 632.084 625.523 L 638.127 617.375 L 638.985 616.178 L 644.758 607.836 L 645.576 606.612 L 651.073 598.086 L 651.850 596.836 L 657.066 588.135 L 657.802 586.859 L 662.730 577.992 L 663.424 576.694 L 668.059 567.670 L 668.710 566.349 L 673.047 557.179 L 673.655 555.838 L 677.690 546.531 L 678.253 545.170 L 681.982 535.736 L 682.500 534.358 L 685.918 524.806 L 686.391 523.412 L 689.494 513.754 L 689.922 512.345 L 692.707 502.590 L 693.088 501.168 L 695.553 491.328 L 695.888 489.894 L 698.029 479.978 L 698.317 478.534 L 700.133 468.553 L 700.372 467.100 L 701.861 457.066 L 702.053 455.606 L 703.212 445.528 L 703.357 444.063 L 704.186 433.952 L 704.282 432.483 L 704.780 422.351 L 704.828 420.879 L 704.994 410.736 L 704.994 409.264 Z M 614.852 418.670 L 614.427 427.331 L 613.718 435.974 L 612.727 444.589 L 611.455 453.166 L 609.902 461.698 L 608.072 470.174 L 605.965 478.585 L 603.583 486.924 L 600.931 495.180 L 598.009 503.344 L 594.823 511.409 L 591.373 519.365 L 587.666 527.204 L 583.704 534.917 L 579.492 542.497 L 575.033 549.935 L 570.334 557.223 L 565.399 564.353 L 560.234 571.318 L 554.843 578.110 L 549.233 584.723 L 543.410 591.148 L 537.379 597.379 L 531.148 603.410 L 524.723 609.233 L 518.110 614.843 L 512.459 619.328 L 466.865 554.194 L 466.001 553.002 L 465.099 551.838 L 464.159 550.705 L 463.182 549.603 L 462.169 548.534 L 461.123 547.498 L 460.043 546.497 L 458.930 545.532 L 457.787 544.604 L 456.614 543.714 L 455.412 542.862 L 454.184 542.051 L 452.929 541.280 L 451.650 540.550 L 450.348 539.863 L 449.024 539.219 L 447.679 538.618 L 446.316 538.062 L 444.935 537.551 L 443.538 537.085 L 442.126 536.665 L 440.702 536.291 L 439.266 535.964 L 437.820 535.685 L 436.366 535.453 L 434.905 535.268 L 433.439 535.132 L 431.969 535.043 L 430.497 535.003 L 429.025 535.011 L 427.553 535.067 L 426.084 535.171 L 424.620 535.323 L 423.161 535.523 L 421.709 535.770 L 420.266 536.065 L 418.834 536.407 L 417.414 536.796 L 416.007 537.231 L 414.615 537.712 L 413.240 538.238 L 411.882 538.808 L 410.544 539.423 L 409.227 540.082 L 407.932 540.783 L 406.661 541.526 L 405.414 542.310 L 404.194 543.135 L 403.002 543.999 L 401.838 544.901 L 400.705 545.841 L 399.603 546.818 L 398.534 547.831 L 397.498 548.877 L 396.497 549.957 L 395.532 551.070 L 394.604 552.213 L 393.714 553.386 L 392.862 554.588 L 392.051 555.816 L 391.280 557.071 L 390.550 558.350 L 389.863 559.652 L 389.219 560.976 L 388.618 562.321 L 388.062 563.684 L 387.551 565.065 L 387.085 566.462 L 386.665 567.874 L 386.291 569.298 L 385.964 570.734 L 385.685 572.180 L 385.453 573.634 L 385.268 575.095 L 385.132 576.561 L 385.043 578.031 L 385.003 579.503 L 385.011 580.975 L 385.067 582.447 L 385.171 583.916 L 385.323 585.380 L 385.523 586.839 L 385.770 588.291 L 386.065 589.734 L 386.407 591.166 L 386.796 592.586 L 387.231 593.993 L 387.712 595.385 L 388.238 596.760 L 388.808 598.118 L 389.423 599.456 L 390.082 600.773 L 390.783 602.068 L 391.526 603.339 L 392.310 604.586 L 393.135 605.806 L 432.357 661.838 L 426.924 663.583 L 418.585 665.965 L 410.174 668.072 L 401.698 669.902 L 393.166 671.455 L 384.589 672.727 L 375.974 673.718 L 367.331 674.427 L 358.670 674.852 L 350.000 674.994 L 341.330 674.852 L 332.669 674.427 L 324.026 673.718 L 315.411 672.727 L 306.834 671.455 L 298.302 669.902 L 289.826 668.072 L 281.415 665.965 L 273.076 663.583 L 264.820 660.931 L 256.656 658.009 L 248.591 654.823 L 240.635 651.373 L 232.796 647.666 L 225.083 643.704 L 217.503 639.492 L 210.065 635.033 L 202.777 630.334 L 195.647 625.399 L 188.682 620.234 L 181.890 614.843 L 175.277 609.233 L 168.852 603.410 L 162.621 597.379 L 156.590 591.148 L 150.767 584.723 L 145.157 578.110 L 139.766 571.318 L 134.601 564.353 L 129.666 557.223 L 124.967 549.935 L 120.508 542.497 L 116.296 534.917 L 112.334 527.204 L 108.627 519.365 L 105.177 511.409 L 101.991 503.344 L 99.069 495.180 L 96.417 486.924 L 94.035 478.585 L 91.928 470.174 L 90.098 461.698 L 88.545 453.166 L 87.273 444.589 L 86.282 435.974 L 85.573 427.331 L 85.148 418.670 L 85.006 410.000 L 85.148 401.330 L 85.573 392.669 L 86.282 384.026 L 87.273 375.411 L 88.545 366.834 L 90.098 358.302 L 91.928 349.826 L 94.035 341.415 L 96.417 333.076 L 99.069 324.820 L 101.991 316.656 L 105.177 308.591 L 108.627 300.635 L 112.334 292.796 L 116.296 285.083 L 120.508 277.503 L 124.967 270.065 L 129.666 262.777 L 134.601 255.647 L 139.766 248.682 L 145.157 241.890 L 150.767 235.277 L 156.590 228.852 L 162.621 222.621 L 168.852 216.590 L 175.277 210.767 L 181.890 205.157 L 188.682 199.766 L 195.647 194.601 L 202.777 189.666 L 210.065 184.967 L 217.503 180.508 L 225.083 176.296 L 232.796 172.334 L 240.635 168.627 L 248.591 165.177 L 256.656 161.991 L 264.820 159.069 L 273.076 156.417 L 281.415 154.035 L 289.826 151.928 L 298.302 150.098 L 306.834 148.545 L 315.411 147.273 L 324.026 146.282 L 332.669 145.573 L 341.330 145.148 L 350.000 145.006 L 358.670 145.148 L 367.331 145.573 L 375.974 146.282 L 384.589 147.273 L 393.166 148.545 L 401.698 150.098 L 410.174 151.928 L 418.585 154.035 L 426.924 156.417 L 435.180 159.069 L 443.344 161.991 L 451.409 165.177 L 459.365 168.627 L 467.204 172.334 L 474.917 176.296 L 482.497 180.508 L 489.935 184.967 L 497.223 189.666 L 504.353 194.601 L 511.318 199.766 L 518.110 205.157 L 524.723 210.767 L 531.148 216.590 L 537.379 222.621 L 543.410 228.852 L 549.233 235.277 L 554.843 241.890 L 560.234 248.682 L 565.399 255.647 L 570.334 262.777 L 575.033 270.065 L 579.492 277.503 L 583.704 285.083 L 587.666 292.796 L 591.373 300.635 L 594.823 308.591 L 598.009 316.656 L 600.931 324.820 L 603.583 333.076 L 605.965 341.415 L 608.072 349.826 L 609.902 358.302 L 611.455 366.834 L 612.727 375.411 L 613.718 384.026 L 614.427 392.669 L 614.852 401.330 L 614.994 410.000 L 614.852 418.670 Z" fill="black" fill-rule="evenodd"/>
</svg>
