<svg xmlns="http://www.w3.org/2000/svg" viewBox="0 0 700.000 1000">
  <path d="M 219.600 196.485 L 227.791 194.562 L 235.798 192.807 L 243.619 191.218 L 251.255 189.790 L 258.706 188.521 L 265.972 187.407 L 273.052 186.445 L 279.946 185.630 L 286.655 184.959 L 293.179 184.429 L 299.517 184.035 L 305.669 183.773 L 311.636 183.640 L 317.417 183.631 L 323.013 183.742 L 328.425 183.969 L 333.651 184.306 L 338.694 184.750 L 343.553 185.295 L 348.230 185.937 L 352.725 186.671 L 357.039 187.492 L 361.174 188.394 L 365.132 189.373 L 368.914 190.423 L 372.523 191.539 L 375.961 192.716 L 379.231 193.948 L 382.336 195.232 L 385.280 196.561 L 388.067 197.931 L 390.701 199.339 L 393.186 200.779 L 395.529 202.248 L 397.733 203.743 L 399.804 205.260 L 401.749 206.798 L 403.572 208.354 L 405.280 209.928 L 406.879 211.518 L 408.373 213.124 L 409.770 214.748 L 411.073 216.388 L 412.287 218.049 L 413.418 219.729 L 414.469 221.433 L 415.444 223.162 L 416.345 224.919 L 417.175 226.707 L 417.935 228.527 L 418.627 230.384 L 419.252 232.278 L 419.809 234.213 L 420.299 236.190 L 420.720 238.211 L 421.072 240.277 L 421.354 242.390 L 421.564 244.549 L 421.700 246.756 L 421.760 249.009 L 421.744 251.308 L 421.648 253.653 L 421.471 256.042 L 421.212 258.475 L 420.867 260.948 L 420.437 263.460 L 419.918 266.010 L 419.310 268.594 L 418.610 271.211 L 417.819 273.857 L 416.933 276.529 L 415.954 279.226 L 414.879 281.944 L 413.707 284.680 L 412.439 287.432 L 411.072 290.195 L 409.608 292.968 L 408.045 295.746 L 406.383 298.527 L 404.622 301.309 L 402.761 304.087 L 400.801 306.859 L 398.741 309.621 L 396.582 312.372 L 394.323 315.108 L 391.964 317.825 L 389.506 320.522 L 386.948 323.195 L 384.291 325.842 L 381.535 328.459 L 378.680 331.045 L 375.726 333.595 L 372.673 336.108 L 369.522 338.581 L 366.272 341.011 L 362.924 343.396 L 359.479 345.732 L 355.935 348.018 L 352.294 350.251 L 348.555 352.428 L 344.718 354.546 L 340.784 356.603 L 336.752 358.597 L 332.623 360.525 L 328.397 362.384 L 324.073 364.172 L 319.652 365.886 L 314.667 367.693 L 313.631 368.083 L 312.604 368.498 L 311.589 368.939 L 310.584 369.404 L 309.591 369.894 L 308.611 370.408 L 307.643 370.946 L 306.689 371.508 L 305.750 372.093 L 304.824 372.701 L 303.914 373.332 L 303.020 373.985 L 302.142 374.659 L 301.281 375.355 L 300.438 376.072 L 299.612 376.810 L 298.805 377.568 L 298.016 378.345 L 297.247 379.141 L 296.498 379.956 L 295.769 380.789 L 295.061 381.640 L 294.374 382.508 L 293.708 383.393 L 293.065 384.294 L 292.444 385.210 L 291.845 386.142 L 291.270 387.088 L 290.718 388.047 L 290.190 389.020 L 289.686 390.006 L 289.206 391.004 L 288.751 392.013 L 288.321 393.033 L 287.916 394.064 L 287.537 395.104 L 287.183 396.153 L 286.856 397.211 L 286.554 398.276 L 286.279 399.348 L 286.030 400.427 L 285.808 401.512 L 285.612 402.601 L 285.444 403.695 L 285.302 404.793 L 285.188 405.895 L 285.100 406.998 L 285.040 408.104 L 285.007 409.210 L 285.001 410.317 L 285.023 411.424 L 285.071 412.530 L 285.147 413.635 L 285.250 414.737 L 285.380 415.837 L 285.537 416.932 L 285.721 418.024 L 285.932 419.111 L 286.169 420.192 L 286.433 421.268 L 286.724 422.336 L 287.040 423.397 L 287.383 424.450 L 287.751 425.494 L 288.145 426.528 L 288.565 427.553 L 289.009 428.567 L 289.478 429.570 L 289.972 430.561 L 290.490 431.539 L 291.031 432.505 L 291.597 433.456 L 292.186 434.394 L 292.797 435.317 L 293.431 436.224 L 294.087 437.116 L 294.765 437.991 L 295.465 438.850 L 296.185 439.691 L 296.925 440.513 L 297.686 441.318 L 298.466 442.103 L 299.266 442.869 L 300.083 443.615 L 300.919 444.341 L 301.773 445.046 L 302.644 445.730 L 303.531 446.392 L 304.434 447.032 L 305.353 447.650 L 306.287 448.245 L 307.235 448.817 L 308.197 449.365 L 309.171 449.890 L 310.159 450.390 L 311.159 450.866 L 316.237 453.207 L 320.842 455.434 L 325.348 457.716 L 329.754 460.053 L 334.061 462.440 L 338.267 464.876 L 342.372 467.358 L 346.376 469.884 L 350.278 472.452 L 354.079 475.059 L 357.776 477.703 L 361.371 480.381 L 364.862 483.090 L 368.249 485.829 L 371.533 488.593 L 374.711 491.382 L 377.785 494.192 L 380.753 497.020 L 383.616 499.865 L 386.374 502.722 L 389.025 505.589 L 391.569 508.463 L 394.008 511.342 L 396.339 514.223 L 398.565 517.102 L 400.683 519.976 L 402.695 522.843 L 404.601 525.699 L 406.401 528.542 L 408.095 531.367 L 409.684 534.173 L 411.169 536.955 L 412.549 539.712 L 413.827 542.438 L 415.003 545.133 L 416.077 547.792 L 417.052 550.412 L 417.930 552.991 L 418.710 555.525 L 419.397 558.013 L 419.991 560.452 L 420.494 562.839 L 420.910 565.172 L 421.240 567.450 L 421.487 569.671 L 421.654 571.835 L 421.744 573.941 L 421.760 575.988 L 421.704 577.977 L 421.578 579.908 L 421.386 581.784 L 421.130 583.605 L 420.811 585.375 L 420.431 587.096 L 419.991 588.771 L 419.491 590.405 L 418.932 592.001 L 418.311 593.563 L 417.628 595.097 L 416.881 596.605 L 416.065 598.093 L 415.178 599.565 L 414.214 601.024 L 413.169 602.473 L 412.036 603.915 L 410.810 605.353 L 409.484 606.786 L 408.052 608.217 L 406.507 609.644 L 404.842 611.067 L 403.052 612.484 L 401.128 613.894 L 399.066 615.292 L 396.860 616.677 L 394.505 618.043 L 391.996 619.387 L 389.328 620.705 L 386.497 621.992 L 383.500 623.242 L 380.334 624.451 L 376.997 625.613 L 373.485 626.724 L 369.797 627.779 L 365.931 628.772 L 361.886 629.698 L 357.660 630.554 L 353.254 631.332 L 348.665 632.031 L 343.894 632.644 L 338.939 633.167 L 333.802 633.596 L 328.481 633.927 L 322.976 634.157 L 317.288 634.280 L 311.416 634.294 L 305.360 634.194 L 299.121 633.978 L 292.699 633.642 L 286.093 633.182 L 279.304 632.596 L 272.332 631.879 L 265.176 631.030 L 257.838 630.044 L 250.317 628.920 L 242.613 627.654 L 234.727 626.244 L 226.658 624.686 L 218.406 622.978 L 209.693 621.056 L 208.612 620.832 L 207.525 620.634 L 206.434 620.462 L 205.339 620.318 L 204.241 620.200 L 203.140 620.110 L 202.038 620.046 L 200.934 620.010 L 199.829 620.000 L 198.725 620.018 L 197.621 620.063 L 196.519 620.135 L 195.419 620.234 L 194.322 620.360 L 193.228 620.512 L 192.139 620.692 L 191.054 620.898 L 189.974 621.131 L 188.900 621.390 L 187.833 621.676 L 186.774 621.988 L 185.722 622.325 L 184.679 622.688 L 183.646 623.077 L 182.622 623.491 L 181.608 623.930 L 180.606 624.394 L 179.615 624.882 L 178.637 625.394 L 177.671 625.931 L 176.719 626.490 L 175.781 627.073 L 174.858 627.679 L 173.949 628.307 L 173.057 628.958 L 172.180 629.630 L 171.321 630.323 L 170.478 631.037 L 169.654 631.772 L 168.847 632.527 L 168.060 633.301 L 167.291 634.095 L 166.543 634.907 L 165.814 635.737 L 165.106 636.584 L 164.420 637.449 L 163.754 638.331 L 163.111 639.228 L 162.489 640.141 L 161.891 641.070 L 161.315 642.012 L 160.762 642.968 L 160.233 643.938 L 159.728 644.920 L 159.248 645.914 L 158.792 646.920 L 158.360 647.937 L 157.954 648.964 L 157.573 650.001 L 157.218 651.047 L 156.888 652.101 L 156.585 653.163 L 156.307 654.232 L 156.056 655.307 L 155.832 656.388 L 155.634 657.475 L 155.462 658.566 L 155.318 659.661 L 155.200 660.759 L 155.110 661.860 L 155.046 662.962 L 155.010 664.066 L 155.000 665.171 L 155.018 666.275 L 155.063 667.379 L 155.135 668.481 L 155.234 669.581 L 155.360 670.678 L 155.512 671.772 L 155.692 672.861 L 155.898 673.946 L 156.131 675.026 L 156.390 676.100 L 156.676 677.167 L 156.988 678.226 L 157.325 679.278 L 157.688 680.321 L 158.077 681.354 L 158.491 682.378 L 158.930 683.392 L 159.394 684.394 L 159.882 685.385 L 160.394 686.363 L 160.931 687.329 L 161.490 688.281 L 162.073 689.219 L 162.679 690.142 L 163.307 691.051 L 163.958 691.943 L 164.630 692.820 L 165.323 693.679 L 166.037 694.522 L 166.772 695.346 L 167.527 696.153 L 168.301 696.940 L 169.095 697.709 L 169.907 698.457 L 170.737 699.186 L 171.584 699.894 L 172.449 700.580 L 173.331 701.246 L 174.228 701.889 L 175.141 702.511 L 176.070 703.109 L 177.012 703.685 L 177.968 704.238 L 178.938 704.767 L 179.920 705.272 L 180.914 705.752 L 181.920 706.208 L 182.937 706.640 L 183.964 707.046 L 185.001 707.427 L 186.047 707.782 L 187.101 708.112 L 188.163 708.415 L 189.232 708.693 L 190.307 708.944 L 199.306 710.929 L 199.880 711.051 L 208.713 712.879 L 209.303 712.997 L 217.971 714.671 L 218.578 714.784 L 227.081 716.304 L 227.707 716.412 L 236.045 717.782 L 236.690 717.883 L 244.865 719.105 L 245.529 719.199 L 253.541 720.275 L 254.225 720.362 L 262.074 721.293 L 262.779 721.371 L 270.467 722.161 L 271.193 722.230 L 278.720 722.880 L 279.468 722.939 L 286.834 723.452 L 287.606 723.499 L 294.812 723.876 L 295.607 723.911 L 302.654 724.155 L 303.473 724.176 L 310.361 724.289 L 311.205 724.295 L 317.935 724.279 L 318.805 724.268 L 325.377 724.126 L 326.274 724.097 L 332.688 723.830 L 333.612 723.782 L 339.870 723.393 L 340.821 723.323 L 346.924 722.813 L 347.903 722.721 L 353.850 722.093 L 354.857 721.975 L 360.650 721.231 L 361.685 721.085 L 367.324 720.227 L 368.388 720.052 L 373.874 719.083 L 374.966 718.876 L 380.299 717.797 L 381.420 717.555 L 386.600 716.368 L 387.749 716.089 L 392.778 714.798 L 393.954 714.478 L 398.832 713.084 L 400.035 712.722 L 404.762 711.226 L 405.990 710.818 L 410.567 709.223 L 411.819 708.767 L 416.247 707.076 L 417.520 706.567 L 421.800 704.782 L 423.092 704.219 L 427.224 702.341 L 428.533 701.720 L 432.517 699.753 L 433.840 699.072 L 437.678 697.016 L 439.010 696.273 L 442.702 694.131 L 444.040 693.323 L 447.586 691.098 L 448.926 690.223 L 452.327 687.916 L 453.664 686.974 L 456.920 684.587 L 457.589 684.088 L 458.248 683.576 L 461.361 681.112 L 462.023 680.578 L 462.675 680.031 L 465.645 677.493 L 466.298 676.924 L 466.939 676.343 L 469.766 673.731 L 470.406 673.128 L 471.035 672.513 L 473.720 669.831 L 474.344 669.194 L 474.956 668.546 L 477.500 665.795 L 478.106 665.126 L 478.698 664.446 L 481.101 661.629 L 481.685 660.929 L 482.256 660.219 L 484.518 657.337 L 485.078 656.609 L 485.623 655.870 L 487.747 652.926 L 488.279 652.171 L 488.796 651.406 L 490.781 648.402 L 491.284 647.623 L 491.771 646.834 L 493.617 643.772 L 494.089 642.972 L 494.543 642.162 L 496.252 639.045 L 496.689 638.226 L 497.110 637.399 L 498.681 634.228 L 499.084 633.394 L 499.470 632.552 L 500.904 629.330 L 501.271 628.484 L 501.620 627.630 L 502.918 624.359 L 503.248 623.504 L 503.560 622.643 L 504.723 619.324 L 505.015 618.464 L 505.290 617.598 L 506.318 614.235 L 506.573 613.372 L 506.810 612.504 L 507.704 609.098 L 507.922 608.236 L 508.122 607.369 L 508.883 603.923 L 509.064 603.064 L 509.228 602.202 L 509.856 598.717 L 510.001 597.864 L 510.130 597.009 L 510.626 593.488 L 510.737 592.644 L 510.831 591.798 L 511.195 588.243 L 511.273 587.409 L 511.335 586.575 L 511.568 582.987 L 511.644 581.345 L 511.747 577.728 L 511.763 576.115 L 511.736 572.470 L 511.696 570.889 L 511.539 567.219 L 511.446 565.671 L 511.161 561.978 L 511.018 560.466 L 510.605 556.751 L 510.416 555.277 L 509.875 551.543 L 509.643 550.107 L 508.975 546.356 L 508.703 544.958 L 507.909 541.193 L 507.600 539.834 L 506.680 536.056 L 506.337 534.736 L 505.292 530.948 L 504.918 529.667 L 503.749 525.870 L 503.346 524.627 L 502.052 520.824 L 501.623 519.619 L 500.206 515.812 L 499.753 514.645 L 498.214 510.836 L 497.738 509.704 L 496.077 505.896 L 495.581 504.800 L 493.798 500.994 L 493.283 499.933 L 491.380 496.132 L 490.848 495.104 L 488.824 491.309 L 488.276 490.314 L 486.133 486.529 L 485.571 485.565 L 483.308 481.791 L 482.733 480.857 L 480.351 477.096 L 479.764 476.193 L 477.265 472.447 L 476.666 471.572 L 474.049 467.844 L 473.440 466.997 L 470.707 463.289 L 470.087 462.469 L 467.238 458.782 L 466.610 457.988 L 463.645 454.326 L 463.008 453.556 L 459.928 449.920 L 459.283 449.175 L 456.090 445.568 L 455.437 444.846 L 452.129 441.269 L 451.470 440.571 L 448.049 437.026 L 447.382 436.350 L 443.849 432.840 L 443.176 432.185 L 439.532 428.712 L 438.852 428.079 L 435.096 424.645 L 434.411 424.031 L 430.544 420.639 L 429.854 420.045 L 425.877 416.697 L 425.181 416.122 L 421.095 412.819 L 420.820 412.601 L 423.840 410.343 L 424.671 409.706 L 428.648 406.586 L 429.468 405.927 L 433.334 402.744 L 434.142 402.062 L 437.898 398.819 L 438.694 398.116 L 442.339 394.815 L 443.122 394.089 L 446.655 390.734 L 447.425 389.985 L 450.846 386.578 L 451.602 385.806 L 454.910 382.349 L 455.652 381.554 L 458.846 378.051 L 459.574 377.232 L 462.654 373.684 L 463.367 372.842 L 466.332 369.252 L 467.029 368.385 L 469.879 364.756 L 470.560 363.865 L 473.293 360.199 L 473.958 359.284 L 476.575 355.584 L 477.222 354.643 L 479.721 350.911 L 480.351 349.945 L 482.732 346.184 L 483.343 345.191 L 485.606 341.404 L 486.197 340.385 L 488.341 336.574 L 488.911 335.528 L 490.935 331.696 L 491.484 330.622 L 493.388 326.771 L 493.914 325.670 L 495.697 321.802 L 496.199 320.672 L 497.861 316.792 L 498.338 315.633 L 499.878 311.741 L 500.328 310.553 L 501.745 306.652 L 502.168 305.434 L 503.461 301.528 L 503.855 300.280 L 505.024 296.371 L 505.386 295.093 L 506.431 291.183 L 506.760 289.874 L 507.680 285.966 L 507.974 284.627 L 508.768 280.723 L 509.025 279.354 L 509.693 275.457 L 509.910 274.058 L 510.451 270.171 L 510.627 268.743 L 511.041 264.868 L 511.172 263.411 L 511.458 259.550 L 511.543 258.066 L 511.700 254.223 L 511.736 252.712 L 511.764 248.888 L 511.748 247.353 L 511.646 243.552 L 511.577 241.993 L 511.344 238.217 L 511.219 236.638 L 510.855 232.890 L 510.671 231.292 L 510.175 227.574 L 509.930 225.962 L 509.302 222.276 L 508.994 220.652 L 508.233 217.002 L 508.055 216.184 L 507.861 215.369 L 506.967 211.757 L 506.755 210.937 L 506.529 210.120 L 505.500 206.549 L 505.255 205.728 L 504.995 204.912 L 503.831 201.384 L 503.553 200.565 L 503.259 199.752 L 501.960 196.269 L 501.648 195.455 L 501.319 194.648 L 499.885 191.213 L 499.539 190.406 L 499.177 189.606 L 497.606 186.222 L 497.226 185.425 L 496.831 184.636 L 495.123 181.304 L 494.711 180.520 L 494.283 179.744 L 492.437 176.468 L 491.993 175.699 L 491.534 174.938 L 489.550 171.721 L 489.076 170.969 L 488.586 170.226 L 486.463 167.070 L 485.960 166.338 L 485.442 165.616 L 483.179 162.524 L 482.649 161.814 L 482.105 161.115 L 479.702 158.088 L 479.146 157.403 L 478.577 156.728 L 476.034 153.771 L 475.455 153.111 L 474.864 152.463 L 472.179 149.577 L 471.580 148.945 L 470.969 148.326 L 468.142 145.513 L 467.524 144.911 L 466.896 144.321 L 463.926 141.585 L 463.293 141.013 L 462.650 140.453 L 459.537 137.796 L 458.891 137.255 L 458.236 136.727 L 454.979 134.151 L 454.323 133.642 L 453.658 133.146 L 450.257 130.654 L 448.921 129.712 L 445.375 127.308 L 444.029 126.430 L 440.337 124.115 L 438.986 123.300 L 435.148 121.076 L 433.797 120.324 L 429.812 118.195 L 428.464 117.504 L 424.332 115.472 L 422.992 114.840 L 418.712 112.907 L 417.382 112.332 L 412.954 110.502 L 411.638 109.982 L 407.061 108.257 L 405.762 107.790 L 401.034 106.172 L 399.755 105.755 L 394.877 104.247 L 393.620 103.878 L 388.591 102.482 L 387.356 102.158 L 382.176 100.877 L 380.966 100.595 L 375.633 99.432 L 374.449 99.190 L 368.964 98.147 L 367.806 97.942 L 362.168 97.021 L 361.038 96.852 L 355.245 96.056 L 354.143 95.919 L 348.195 95.251 L 347.122 95.144 L 341.019 94.607 L 339.973 94.527 L 333.715 94.123 L 332.697 94.069 L 326.283 93.800 L 325.293 93.770 L 318.721 93.639 L 317.760 93.631 L 311.030 93.641 L 310.096 93.652 L 303.208 93.806 L 302.301 93.835 L 295.255 94.135 L 294.374 94.181 L 287.168 94.629 L 286.313 94.690 L 278.947 95.289 L 278.117 95.364 L 270.590 96.116 L 269.785 96.204 L 262.097 97.113 L 261.316 97.212 L 253.467 98.279 L 252.709 98.389 L 244.697 99.618 L 243.962 99.737 L 235.786 101.129 L 235.073 101.256 L 226.734 102.815 L 226.042 102.950 L 217.539 104.678 L 216.868 104.820 L 208.200 106.719 L 207.549 106.867 L 198.716 108.941 L 198.083 109.094 L 189.084 111.344 L 188.016 111.625 L 186.955 111.932 L 185.902 112.265 L 184.858 112.624 L 183.822 113.009 L 182.797 113.418 L 181.781 113.853 L 180.777 114.312 L 179.784 114.796 L 178.804 115.305 L 177.836 115.837 L 176.881 116.393 L 175.941 116.972 L 175.015 117.573 L 174.104 118.198 L 173.209 118.845 L 172.329 119.513 L 171.467 120.203 L 170.621 120.913 L 169.794 121.645 L 168.984 122.396 L 168.193 123.167 L 167.422 123.957 L 166.670 124.766 L 165.938 125.593 L 165.226 126.438 L 164.536 127.300 L 163.867 128.178 L 163.219 129.073 L 162.594 129.984 L 161.992 130.909 L 161.412 131.849 L 160.855 132.803 L 160.322 133.771 L 159.813 134.751 L 159.328 135.743 L 158.868 136.747 L 158.433 137.762 L 158.022 138.787 L 157.637 139.822 L 157.277 140.867 L 156.943 141.919 L 156.635 142.980 L 156.353 144.048 L 156.098 145.122 L 155.868 146.203 L 155.666 147.288 L 155.490 148.379 L 155.341 149.473 L 155.219 150.571 L 155.123 151.671 L 155.055 152.773 L 155.014 153.877 L 155.000 154.981 L 155.013 156.086 L 155.053 157.189 L 155.121 158.292 L 155.215 159.392 L 155.336 160.490 L 155.484 161.584 L 155.659 162.675 L 155.861 163.761 L 156.089 164.841 L 156.344 165.916 L 156.625 166.984 L 156.932 168.045 L 157.265 169.098 L 157.624 170.142 L 158.009 171.178 L 158.418 172.203 L 158.853 173.219 L 159.312 174.223 L 159.796 175.216 L 160.305 176.196 L 160.837 177.164 L 161.393 178.119 L 161.972 179.059 L 162.573 179.985 L 163.198 180.896 L 163.845 181.791 L 164.513 182.671 L 165.203 183.533 L 165.913 184.379 L 166.645 185.206 L 167.396 186.016 L 168.167 186.807 L 168.957 187.578 L 169.766 188.330 L 170.593 189.062 L 171.438 189.774 L 172.300 190.464 L 173.178 191.133 L 174.073 191.781 L 174.984 192.406 L 175.909 193.008 L 176.849 193.588 L 177.803 194.145 L 178.771 194.678 L 179.751 195.187 L 180.743 195.672 L 181.747 196.132 L 182.762 196.567 L 183.787 196.978 L 184.822 197.363 L 185.867 197.723 L 186.919 198.057 L 187.980 198.365 L 189.048 198.647 L 190.122 198.902 L 191.203 199.132 L 192.288 199.334 L 193.379 199.510 L 194.473 199.659 L 195.571 199.781 L 196.671 199.877 L 197.773 199.945 L 198.877 199.986 L 199.981 200.000 L 201.086 199.987 L 202.189 199.947 L 203.292 199.879 L 204.392 199.785 L 205.490 199.664 L 206.584 199.516 L 207.675 199.341 L 208.761 199.139 L 209.841 198.911 L 210.916 198.656 L 219.600 196.485 Z" fill="black" fill-rule="evenodd"/>
</svg>
