<svg xmlns="http://www.w3.org/2000/svg" viewBox="0 0 700.000 1000.000">
  <path d="M 574.495,12.352 L 575.895,10.643 L 577.376,9.005 L 578.936,7.442 L 580.571,5.957 L 582.277,4.554 L 584.050,3.236 L 585.885,2.007 L 587.778,0.870 L 589.725,-0.174 L 591.721,-1.120 L 593.760,-1.968 L 595.839,-2.714 L 597.952,-3.357 L 600.094,-3.896 L 602.260,-4.329 L 604.444,-4.656 L 606.642,-4.875 L 608.848,-4.985 L 611.057,-4.988 L 613.263,-4.882 L 615.461,-4.667 L 617.647,-4.346 L 619.813,-3.917 L 621.956,-3.383 L 624.071,-2.744 L 626.151,-2.002 L 628.192,-1.159 L 630.190,-0.216 L 632.139,0.823 L 634.035,1.956 L 635.873,3.181 L 637.648,4.495 L 639.357,5.895 L 640.995,7.376 L 642.558,8.936 L 644.043,10.571 L 645.446,12.277 L 646.764,14.050 L 647.993,15.885 L 649.130,17.778 L 650.174,19.725 L 651.120,21.721 L 651.968,23.760 L 652.714,25.839 L 653.357,27.952 L 653.896,30.094 L 654.329,32.260 L 654.656,34.444 L 654.875,36.642 L 654.985,38.848 L 654.988,41.057 L 654.882,43.263 L 654.667,45.461 L 654.346,47.647 L 653.917,49.813 L 653.383,51.956 L 652.744,54.071 L 652.002,56.151 L 651.159,58.192 L 650.216,60.190 L 649.177,62.139 L 648.044,64.035 L 646.819,65.873 L 404.999,410.000 L 646.819,754.127 L 648.044,755.965 L 649.177,757.861 L 650.216,759.810 L 651.159,761.808 L 652.002,763.849 L 652.744,765.929 L 653.383,768.044 L 653.917,770.187 L 654.346,772.353 L 654.667,774.539 L 654.882,776.737 L 654.988,778.943 L 654.985,781.152 L 654.875,783.358 L 654.656,785.556 L 654.329,787.740 L 653.896,789.906 L 653.357,792.048 L 652.714,794.161 L 651.968,796.240 L 651.120,798.279 L 650.174,800.275 L 649.130,802.222 L 647.993,804.115 L 646.764,805.950 L 645.446,807.723 L 644.043,809.429 L 642.558,811.064 L 640.995,812.624 L 639.357,814.105 L 637.648,815.505 L 635.873,816.819 L 634.035,818.044 L 632.139,819.177 L 630.190,820.216 L 628.192,821.159 L 626.151,822.002 L 624.071,822.744 L 621.956,823.383 L 619.813,823.917 L 617.647,824.346 L 615.461,824.667 L 613.263,824.882 L 611.057,824.988 L 608.848,824.985 L 606.642,824.875 L 604.444,824.656 L 602.260,824.329 L 600.094,823.896 L 597.952,823.357 L 595.839,822.714 L 593.760,821.968 L 591.721,821.120 L 589.725,820.174 L 587.778,819.130 L 585.885,817.993 L 584.050,816.764 L 582.277,815.446 L 580.571,814.043 L 578.936,812.558 L 577.376,810.995 L 575.895,809.357 L 574.495,807.648 L 573.181,805.873 L 350.000,488.268 L 126.819,805.873 L 125.505,807.648 L 124.105,809.357 L 122.624,810.995 L 121.064,812.558 L 119.429,814.043 L 117.723,815.446 L 115.950,816.764 L 114.115,817.993 L 112.222,819.130 L 110.275,820.174 L 108.279,821.120 L 106.240,821.968 L 104.161,822.714 L 102.048,823.357 L 99.906,823.896 L 97.740,824.329 L 95.556,824.656 L 93.358,824.875 L 91.152,824.985 L 88.943,824.988 L 86.737,824.882 L 84.539,824.667 L 82.353,824.346 L 80.187,823.917 L 78.044,823.383 L 75.929,822.744 L 73.849,822.002 L 71.808,821.159 L 69.810,820.216 L 67.861,819.177 L 65.965,818.044 L 64.127,816.819 L 62.352,815.505 L 60.643,814.105 L 59.005,812.624 L 57.442,811.064 L 55.957,809.429 L 54.554,807.723 L 53.236,805.950 L 52.007,804.115 L 50.870,802.222 L 49.826,800.275 L 48.880,798.279 L 48.032,796.240 L 47.286,794.161 L 46.643,792.048 L 46.104,789.906 L 45.671,787.740 L 45.344,785.556 L 45.125,783.358 L 45.015,781.152 L 45.012,778.943 L 45.118,776.737 L 45.333,774.539 L 45.654,772.353 L 46.083,770.187 L 46.617,768.044 L 47.256,765.929 L 47.998,763.849 L 48.841,761.808 L 49.784,759.810 L 50.823,757.861 L 51.956,755.965 L 53.181,754.127 L 295.001,410.000 L 53.181,65.873 L 51.956,64.035 L 50.823,62.139 L 49.784,60.190 L 48.841,58.192 L 47.998,56.151 L 47.256,54.071 L 46.617,51.956 L 46.083,49.813 L 45.654,47.647 L 45.333,45.461 L 45.118,43.263 L 45.012,41.057 L 45.015,38.848 L 45.125,36.642 L 45.344,34.444 L 45.671,32.260 L 46.104,30.094 L 46.643,27.952 L 47.286,25.839 L 48.032,23.760 L 48.880,21.721 L 49.826,19.725 L 50.870,17.778 L 52.007,15.885 L 53.236,14.050 L 54.554,12.277 L 55.957,10.571 L 57.442,8.936 L 59.005,7.376 L 60.643,5.895 L 62.352,4.495 L 64.127,3.181 L 65.965,1.956 L 67.861,0.823 L 69.810,-0.216 L 71.808,-1.159 L 73.849,-2.002 L 75.929,-2.744 L 78.044,-3.383 L 80.187,-3.917 L 82.353,-4.346 L 84.539,-4.667 L 86.737,-4.882 L 88.943,-4.988 L 91.152,-4.985 L 93.358,-4.875 L 95.556,-4.656 L 97.740,-4.329 L 99.906,-3.896 L 102.048,-3.357 L 104.161,-2.714 L 106.240,-1.968 L 108.279,-1.120 L 110.275,-0.174 L 112.222,0.870 L 114.115,2.007 L 115.950,3.236 L 117.723,4.554 L 119.429,5.957 L 121.064,7.442 L 122.624,9.005 L 124.105,10.643 L 125.505,12.352 L 126.819,14.127 L 350.000,331.732 L 573.181,14.127 L 574.495,12.352 Z" fill="black" fill-rule="evenodd"/>
</svg>
