<svg xmlns="http://www.w3.org/2000/svg" viewBox="0 0 700.000 1000">
  <path d="M 85.008 560.482 L 85.010 560.964 L 85.020 561.218 L 85.024 561.472 L 85.048 561.954 L 85.066 562.436 L 85.084 562.689 L 85.096 562.943 L 85.136 563.424 L 85.170 563.904 L 85.196 564.157 L 85.217 564.411 L 85.272 564.890 L 85.321 565.369 L 85.356 565.621 L 85.385 565.874 L 85.456 566.351 L 85.521 566.828 L 85.564 567.079 L 85.601 567.330 L 85.687 567.805 L 85.768 568.280 L 85.819 568.529 L 85.865 568.779 L 85.966 569.250 L 86.063 569.723 L 86.122 569.970 L 86.176 570.218 L 86.293 570.686 L 86.404 571.155 L 86.472 571.400 L 86.533 571.647 L 86.666 572.110 L 86.793 572.575 L 86.868 572.818 L 86.938 573.063 L 87.085 573.522 L 87.227 573.982 L 87.310 574.223 L 87.388 574.465 L 87.551 574.919 L 87.708 575.374 L 87.799 575.612 L 87.884 575.851 L 88.061 576.300 L 88.233 576.750 L 88.332 576.984 L 88.425 577.221 L 88.617 577.663 L 88.804 578.107 L 88.910 578.339 L 89.011 578.572 L 89.217 579.008 L 89.418 579.446 L 89.532 579.673 L 89.641 579.903 L 89.861 580.332 L 90.076 580.763 L 90.197 580.987 L 90.314 581.213 L 90.548 581.634 L 90.777 582.058 L 90.905 582.278 L 91.029 582.500 L 91.277 582.913 L 91.520 583.330 L 91.655 583.545 L 91.786 583.763 L 92.047 584.168 L 92.304 584.576 L 92.446 584.787 L 92.584 585.001 L 92.858 585.397 L 93.128 585.796 L 93.277 586.002 L 93.422 586.211 L 93.709 586.599 L 93.992 586.989 L 94.148 587.190 L 94.299 587.394 L 94.599 587.772 L 94.894 588.153 L 95.056 588.349 L 95.215 588.548 L 95.526 588.915 L 95.834 589.286 L 96.003 589.477 L 96.167 589.671 L 96.491 590.028 L 96.811 590.389 L 96.985 590.573 L 97.156 590.762 L 97.491 591.108 L 97.823 591.458 L 98.003 591.637 L 98.180 591.820 L 98.527 592.155 L 98.869 592.494 L 99.056 592.667 L 99.238 592.844 L 99.596 593.168 L 99.949 593.495 L 100.141 593.662 L 100.329 593.833 L 100.697 594.145 L 101.061 594.461 L 101.258 594.621 L 101.452 594.785 L 101.830 595.085 L 102.204 595.389 L 102.407 595.543 L 102.606 595.701 L 102.993 595.988 L 103.377 596.280 L 103.584 596.427 L 103.789 596.578 L 104.185 596.852 L 104.578 597.131 L 104.790 597.271 L 104.999 597.416 L 105.404 597.677 L 105.807 597.943 L 106.023 598.076 L 106.237 598.214 L 106.650 598.462 L 107.061 598.714 L 107.282 598.840 L 107.500 598.971 L 107.921 599.205 L 108.340 599.444 L 108.565 599.563 L 108.787 599.686 L 109.216 599.907 L 109.642 600.132 L 109.871 600.243 L 110.097 600.359 L 110.533 600.565 L 110.966 600.776 L 111.198 600.880 L 111.428 600.989 L 111.870 601.181 L 112.311 601.377 L 112.546 601.473 L 112.779 601.575 L 113.228 601.752 L 113.674 601.934 L 113.912 602.022 L 114.149 602.116 L 114.603 602.278 L 115.055 602.446 L 115.296 602.526 L 115.535 602.612 L 115.994 602.759 L 116.451 602.912 L 116.695 602.985 L 116.937 603.062 L 117.401 603.195 L 117.863 603.332 L 118.109 603.397 L 118.353 603.467 L 118.821 603.584 L 119.287 603.706 L 119.535 603.763 L 119.782 603.824 L 120.253 603.926 L 120.723 604.033 L 120.972 604.082 L 121.221 604.135 L 121.695 604.222 L 122.168 604.313 L 122.420 604.353 L 122.670 604.399 L 123.147 604.470 L 123.623 604.546 L 123.875 604.578 L 124.126 604.615 L 124.605 604.670 L 125.083 604.731 L 125.337 604.754 L 125.589 604.783 L 126.070 604.823 L 126.550 604.868 L 126.803 604.883 L 127.057 604.904 L 127.538 604.927 L 128.019 604.956 L 128.274 604.963 L 128.528 604.976 L 129.010 604.984 L 129.491 604.997 L 129.746 604.996 L 130.000 605.000 L 130.482 604.992 L 130.964 604.990 L 131.218 604.980 L 131.472 604.976 L 131.954 604.952 L 132.436 604.934 L 132.689 604.916 L 132.943 604.904 L 133.424 604.864 L 133.904 604.830 L 134.157 604.804 L 134.411 604.783 L 134.890 604.728 L 135.369 604.679 L 135.621 604.644 L 135.874 604.615 L 136.351 604.544 L 136.828 604.479 L 137.079 604.436 L 137.330 604.399 L 137.805 604.313 L 138.280 604.232 L 138.529 604.181 L 138.779 604.135 L 139.250 604.034 L 139.723 603.937 L 139.970 603.878 L 140.218 603.824 L 140.686 603.707 L 141.155 603.596 L 141.400 603.528 L 141.647 603.467 L 142.110 603.334 L 142.575 603.207 L 142.818 603.132 L 143.063 603.062 L 143.522 602.915 L 143.982 602.773 L 144.223 602.690 L 144.465 602.612 L 144.919 602.449 L 145.374 602.292 L 145.612 602.201 L 145.851 602.116 L 146.300 601.939 L 146.750 601.767 L 146.984 601.668 L 147.221 601.575 L 147.663 601.383 L 148.107 601.196 L 148.339 601.090 L 148.572 600.989 L 149.008 600.783 L 149.446 600.582 L 149.673 600.468 L 149.903 600.359 L 150.332 600.139 L 150.763 599.924 L 150.987 599.803 L 151.213 599.686 L 151.634 599.452 L 152.058 599.223 L 152.278 599.095 L 152.500 598.971 L 152.913 598.723 L 153.330 598.480 L 153.545 598.345 L 153.763 598.214 L 154.168 597.953 L 154.576 597.696 L 154.787 597.554 L 155.001 597.416 L 155.397 597.142 L 155.796 596.872 L 156.002 596.723 L 156.211 596.578 L 156.599 596.291 L 156.989 596.008 L 157.190 595.852 L 157.394 595.701 L 157.772 595.401 L 158.153 595.106 L 158.349 594.944 L 158.548 594.785 L 158.915 594.474 L 159.286 594.166 L 159.477 593.997 L 159.671 593.833 L 160.028 593.509 L 160.389 593.189 L 160.573 593.015 L 160.762 592.844 L 161.108 592.509 L 161.458 592.177 L 161.637 591.997 L 161.820 591.820 L 162.155 591.473 L 162.494 591.131 L 162.667 590.944 L 162.844 590.762 L 163.168 590.404 L 163.495 590.051 L 163.662 589.859 L 163.833 589.671 L 164.145 589.303 L 164.461 588.939 L 164.621 588.742 L 164.785 588.548 L 165.085 588.170 L 165.389 587.796 L 165.543 587.593 L 165.701 587.394 L 165.988 587.007 L 166.280 586.623 L 166.427 586.416 L 166.578 586.211 L 166.852 585.815 L 167.131 585.422 L 167.271 585.210 L 167.416 585.001 L 167.677 584.596 L 167.943 584.193 L 168.076 583.977 L 168.214 583.763 L 168.462 583.350 L 168.714 582.939 L 168.840 582.718 L 168.971 582.500 L 169.205 582.079 L 169.444 581.660 L 169.563 581.435 L 169.686 581.213 L 169.907 580.784 L 170.132 580.358 L 170.243 580.129 L 170.359 579.903 L 170.565 579.467 L 170.776 579.034 L 170.880 578.802 L 170.989 578.572 L 171.181 578.130 L 171.377 577.689 L 171.473 577.454 L 171.575 577.221 L 171.752 576.772 L 171.934 576.326 L 172.022 576.088 L 172.116 575.851 L 172.278 575.397 L 172.446 574.945 L 172.526 574.704 L 172.612 574.465 L 172.759 574.006 L 172.912 573.549 L 172.985 573.305 L 173.062 573.063 L 173.195 572.599 L 173.332 572.137 L 173.397 571.891 L 173.467 571.647 L 173.584 571.179 L 173.706 570.713 L 173.763 570.465 L 173.824 570.218 L 173.926 569.747 L 174.033 569.277 L 174.082 569.028 L 174.135 568.779 L 174.222 568.305 L 174.313 567.832 L 174.353 567.580 L 174.399 567.330 L 174.470 566.853 L 174.546 566.377 L 174.578 566.125 L 174.615 565.874 L 174.670 565.395 L 174.731 564.917 L 174.754 564.663 L 174.783 564.411 L 174.823 563.930 L 174.868 563.450 L 174.883 563.197 L 174.904 562.943 L 174.927 562.462 L 174.956 561.981 L 174.963 561.726 L 174.976 561.472 L 174.984 560.990 L 174.997 560.509 L 175.048 556.045 L 175.182 552.092 L 175.405 548.144 L 175.718 544.201 L 176.119 540.266 L 176.609 536.342 L 177.188 532.429 L 177.856 528.531 L 178.611 524.648 L 179.454 520.784 L 180.383 516.940 L 181.400 513.118 L 182.502 509.319 L 183.690 505.547 L 184.964 501.802 L 186.321 498.087 L 187.762 494.404 L 189.286 490.754 L 190.892 487.140 L 192.579 483.563 L 194.347 480.025 L 196.194 476.528 L 198.120 473.073 L 200.123 469.663 L 202.203 466.299 L 204.358 462.982 L 206.588 459.716 L 208.891 456.500 L 211.266 453.338 L 213.712 450.230 L 216.227 447.178 L 218.811 444.183 L 221.462 441.248 L 224.179 438.374 L 226.959 435.561 L 229.803 432.812 L 232.708 430.128 L 235.673 427.511 L 238.697 424.961 L 241.777 422.480 L 244.912 420.069 L 248.102 417.730 L 251.343 415.464 L 254.634 413.271 L 257.975 411.153 L 261.362 409.112 L 264.795 407.147 L 268.271 405.260 L 271.789 403.453 L 275.347 401.725 L 278.943 400.079 L 282.575 398.514 L 286.242 397.031 L 289.941 395.632 L 293.671 394.316 L 297.430 393.086 L 301.215 391.940 L 305.026 390.881 L 308.859 389.908 L 312.714 389.021 L 316.587 388.222 L 320.478 387.511 L 324.384 386.888 L 328.303 386.353 L 332.232 385.907 L 336.171 385.550 L 340.117 385.282 L 344.068 385.103 L 348.022 385.014 L 351.978 385.014 L 355.932 385.103 L 359.883 385.282 L 363.829 385.550 L 367.768 385.907 L 371.697 386.353 L 375.616 386.888 L 379.522 387.511 L 383.413 388.222 L 387.286 389.021 L 391.141 389.908 L 394.974 390.881 L 398.785 391.940 L 402.570 393.086 L 406.329 394.316 L 410.059 395.632 L 413.758 397.031 L 417.425 398.514 L 421.057 400.079 L 424.653 401.725 L 428.211 403.453 L 431.729 405.260 L 435.205 407.147 L 438.638 409.112 L 442.025 411.153 L 445.366 413.271 L 448.657 415.464 L 451.898 417.730 L 455.088 420.069 L 458.223 422.480 L 461.303 424.961 L 464.327 427.511 L 467.292 430.128 L 470.197 432.812 L 473.041 435.561 L 475.821 438.374 L 478.538 441.248 L 481.189 444.183 L 483.773 447.178 L 486.288 450.230 L 488.734 453.338 L 491.109 456.500 L 493.412 459.716 L 495.642 462.982 L 497.797 466.299 L 499.877 469.663 L 501.880 473.073 L 503.806 476.528 L 505.653 480.025 L 507.421 483.563 L 509.108 487.140 L 510.714 490.754 L 512.238 494.404 L 513.679 498.087 L 515.036 501.802 L 516.310 505.547 L 517.498 509.319 L 518.600 513.118 L 519.617 516.940 L 520.546 520.784 L 521.389 524.648 L 522.144 528.531 L 522.812 532.429 L 523.391 536.342 L 523.881 540.266 L 524.282 544.201 L 524.595 548.144 L 524.818 552.092 L 524.952 556.045 L 525.003 560.509 L 525.016 560.990 L 525.024 561.472 L 525.037 561.726 L 525.044 561.981 L 525.073 562.462 L 525.096 562.943 L 525.117 563.197 L 525.132 563.450 L 525.177 563.930 L 525.217 564.411 L 525.246 564.663 L 525.269 564.917 L 525.330 565.395 L 525.385 565.874 L 525.422 566.125 L 525.454 566.377 L 525.530 566.853 L 525.601 567.330 L 525.647 567.580 L 525.687 567.832 L 525.778 568.305 L 525.865 568.779 L 525.918 569.028 L 525.967 569.277 L 526.074 569.747 L 526.176 570.218 L 526.237 570.465 L 526.294 570.713 L 526.416 571.179 L 526.533 571.647 L 526.603 571.891 L 526.668 572.137 L 526.805 572.599 L 526.938 573.063 L 527.015 573.305 L 527.088 573.549 L 527.241 574.006 L 527.388 574.465 L 527.474 574.704 L 527.554 574.945 L 527.722 575.397 L 527.884 575.851 L 527.978 576.088 L 528.066 576.326 L 528.248 576.772 L 528.425 577.221 L 528.527 577.454 L 528.623 577.689 L 528.819 578.130 L 529.011 578.572 L 529.120 578.802 L 529.224 579.034 L 529.435 579.467 L 529.641 579.903 L 529.757 580.129 L 529.868 580.358 L 530.093 580.784 L 530.314 581.213 L 530.437 581.435 L 530.556 581.660 L 530.795 582.079 L 531.029 582.500 L 531.160 582.718 L 531.286 582.939 L 531.538 583.350 L 531.786 583.763 L 531.924 583.977 L 532.057 584.193 L 532.323 584.596 L 532.584 585.001 L 532.729 585.210 L 532.869 585.422 L 533.148 585.815 L 533.422 586.211 L 533.573 586.416 L 533.720 586.623 L 534.012 587.007 L 534.299 587.394 L 534.457 587.593 L 534.611 587.796 L 534.915 588.170 L 535.215 588.548 L 535.379 588.742 L 535.539 588.939 L 535.855 589.303 L 536.167 589.671 L 536.338 589.859 L 536.505 590.051 L 536.832 590.404 L 537.156 590.762 L 537.333 590.944 L 537.506 591.131 L 537.845 591.473 L 538.180 591.820 L 538.363 591.997 L 538.542 592.177 L 538.892 592.509 L 539.238 592.844 L 539.427 593.015 L 539.611 593.189 L 539.972 593.509 L 540.329 593.833 L 540.523 593.997 L 540.714 594.166 L 541.085 594.474 L 541.452 594.785 L 541.651 594.944 L 541.847 595.106 L 542.228 595.401 L 542.606 595.701 L 542.810 595.852 L 543.011 596.008 L 543.401 596.291 L 543.789 596.578 L 543.998 596.723 L 544.204 596.872 L 544.603 597.142 L 544.999 597.416 L 545.213 597.554 L 545.424 597.696 L 545.832 597.953 L 546.237 598.214 L 546.455 598.345 L 546.670 598.480 L 547.087 598.723 L 547.500 598.971 L 547.722 599.095 L 547.942 599.223 L 548.366 599.452 L 548.787 599.686 L 549.013 599.803 L 549.237 599.924 L 549.668 600.139 L 550.097 600.359 L 550.327 600.468 L 550.554 600.582 L 550.992 600.783 L 551.428 600.989 L 551.661 601.090 L 551.893 601.196 L 552.337 601.383 L 552.779 601.575 L 553.016 601.668 L 553.250 601.767 L 553.700 601.939 L 554.149 602.116 L 554.388 602.201 L 554.626 602.292 L 555.081 602.449 L 555.535 602.612 L 555.777 602.690 L 556.018 602.773 L 556.478 602.915 L 556.937 603.062 L 557.182 603.132 L 557.425 603.207 L 557.890 603.334 L 558.353 603.467 L 558.600 603.528 L 558.845 603.596 L 559.314 603.707 L 559.782 603.824 L 560.030 603.878 L 560.277 603.937 L 560.750 604.034 L 561.221 604.135 L 561.471 604.181 L 561.720 604.232 L 562.195 604.313 L 562.670 604.399 L 562.921 604.436 L 563.172 604.479 L 563.649 604.544 L 564.126 604.615 L 564.379 604.644 L 564.631 604.679 L 565.110 604.728 L 565.589 604.783 L 565.843 604.804 L 566.096 604.830 L 566.576 604.864 L 567.057 604.904 L 567.311 604.916 L 567.564 604.934 L 568.046 604.952 L 568.528 604.976 L 568.782 604.980 L 569.036 604.990 L 569.518 604.992 L 570.000 605.000 L 570.254 604.996 L 570.509 604.997 L 570.990 604.984 L 571.472 604.976 L 571.726 604.963 L 571.981 604.956 L 572.462 604.927 L 572.943 604.904 L 573.197 604.883 L 573.450 604.868 L 573.930 604.823 L 574.411 604.783 L 574.663 604.754 L 574.917 604.731 L 575.395 604.670 L 575.874 604.615 L 576.125 604.578 L 576.377 604.546 L 576.853 604.470 L 577.330 604.399 L 577.580 604.353 L 577.832 604.313 L 578.305 604.222 L 578.779 604.135 L 579.028 604.082 L 579.277 604.033 L 579.747 603.926 L 580.218 603.824 L 580.465 603.763 L 580.713 603.706 L 581.179 603.584 L 581.647 603.467 L 581.891 603.397 L 582.137 603.332 L 582.599 603.195 L 583.063 603.062 L 583.305 602.985 L 583.549 602.912 L 584.006 602.759 L 584.465 602.612 L 584.704 602.526 L 584.945 602.446 L 585.397 602.278 L 585.851 602.116 L 586.088 602.022 L 586.326 601.934 L 586.772 601.752 L 587.221 601.575 L 587.454 601.473 L 587.689 601.377 L 588.130 601.181 L 588.572 600.989 L 588.802 600.880 L 589.034 600.776 L 589.467 600.565 L 589.903 600.359 L 590.129 600.243 L 590.358 600.132 L 590.784 599.907 L 591.213 599.686 L 591.435 599.563 L 591.660 599.444 L 592.079 599.205 L 592.500 598.971 L 592.718 598.840 L 592.939 598.714 L 593.350 598.462 L 593.763 598.214 L 593.977 598.076 L 594.193 597.943 L 594.596 597.677 L 595.001 597.416 L 595.210 597.271 L 595.422 597.131 L 595.815 596.852 L 596.211 596.578 L 596.416 596.427 L 596.623 596.280 L 597.007 595.988 L 597.394 595.701 L 597.593 595.543 L 597.796 595.389 L 598.170 595.085 L 598.548 594.785 L 598.742 594.621 L 598.939 594.461 L 599.303 594.145 L 599.671 593.833 L 599.859 593.662 L 600.051 593.495 L 600.404 593.168 L 600.762 592.844 L 600.944 592.667 L 601.131 592.494 L 601.473 592.155 L 601.820 591.820 L 601.997 591.637 L 602.177 591.458 L 602.509 591.108 L 602.844 590.762 L 603.015 590.573 L 603.189 590.389 L 603.509 590.028 L 603.833 589.671 L 603.997 589.477 L 604.166 589.286 L 604.474 588.915 L 604.785 588.548 L 604.944 588.349 L 605.106 588.153 L 605.401 587.772 L 605.701 587.394 L 605.852 587.190 L 606.008 586.989 L 606.291 586.599 L 606.578 586.211 L 606.723 586.002 L 606.872 585.796 L 607.142 585.397 L 607.416 585.001 L 607.554 584.787 L 607.696 584.576 L 607.953 584.168 L 608.214 583.763 L 608.345 583.545 L 608.480 583.330 L 608.723 582.913 L 608.971 582.500 L 609.095 582.278 L 609.223 582.058 L 609.452 581.634 L 609.686 581.213 L 609.803 580.987 L 609.924 580.763 L 610.139 580.332 L 610.359 579.903 L 610.468 579.673 L 610.582 579.446 L 610.783 579.008 L 610.989 578.572 L 611.090 578.339 L 611.196 578.107 L 611.383 577.663 L 611.575 577.221 L 611.668 576.984 L 611.767 576.750 L 611.939 576.300 L 612.116 575.851 L 612.201 575.612 L 612.292 575.374 L 612.449 574.919 L 612.612 574.465 L 612.690 574.223 L 612.773 573.982 L 612.915 573.522 L 613.062 573.063 L 613.132 572.818 L 613.207 572.575 L 613.334 572.110 L 613.467 571.647 L 613.528 571.400 L 613.596 571.155 L 613.707 570.686 L 613.824 570.218 L 613.878 569.970 L 613.937 569.723 L 614.034 569.250 L 614.135 568.779 L 614.181 568.529 L 614.232 568.280 L 614.313 567.805 L 614.399 567.330 L 614.436 567.079 L 614.479 566.828 L 614.544 566.351 L 614.615 565.874 L 614.644 565.621 L 614.679 565.369 L 614.728 564.890 L 614.783 564.411 L 614.804 564.157 L 614.830 563.904 L 614.864 563.424 L 614.904 562.943 L 614.916 562.689 L 614.934 562.436 L 614.952 561.954 L 614.976 561.472 L 614.980 561.218 L 614.990 560.964 L 614.992 560.482 L 615.000 560.000 L 615.000 40.000 L 614.976 38.528 L 614.904 37.057 L 614.783 35.589 L 614.615 34.126 L 614.399 32.670 L 614.135 31.221 L 613.824 29.782 L 613.467 28.353 L 613.062 26.937 L 612.612 25.535 L 612.116 24.149 L 611.575 22.779 L 610.989 21.428 L 610.359 20.097 L 609.686 18.787 L 608.971 17.500 L 608.214 16.237 L 607.416 14.999 L 606.578 13.789 L 605.701 12.606 L 604.785 11.452 L 603.833 10.329 L 602.844 9.238 L 601.820 8.180 L 600.762 7.156 L 599.671 6.167 L 598.548 5.215 L 597.394 4.299 L 596.211 3.422 L 595.001 2.584 L 593.763 1.786 L 592.500 1.029 L 591.213 0.314 L 589.903 -0.359 L 588.572 -0.989 L 587.221 -1.575 L 585.851 -2.116 L 584.465 -2.612 L 583.063 -3.062 L 581.647 -3.467 L 580.218 -3.824 L 578.779 -4.135 L 577.330 -4.399 L 575.874 -4.615 L 574.411 -4.783 L 572.943 -4.904 L 571.472 -4.976 L 570.000 -5.000 L 568.528 -4.976 L 567.057 -4.904 L 565.589 -4.783 L 564.126 -4.615 L 562.670 -4.399 L 561.221 -4.135 L 559.782 -3.824 L 558.353 -3.467 L 556.937 -3.062 L 555.535 -2.612 L 554.149 -2.116 L 552.779 -1.575 L 551.428 -0.989 L 550.097 -0.359 L 548.787 0.314 L 547.500 1.029 L 546.237 1.786 L 544.999 2.584 L 543.789 3.422 L 542.606 4.299 L 541.452 5.215 L 540.329 6.167 L 539.238 7.156 L 538.180 8.180 L 537.156 9.238 L 536.167 10.329 L 535.215 11.452 L 534.299 12.606 L 533.422 13.789 L 532.584 14.999 L 531.786 16.237 L 531.029 17.500 L 530.314 18.787 L 529.641 20.097 L 529.011 21.428 L 528.425 22.779 L 527.884 24.149 L 527.388 25.535 L 526.938 26.937 L 526.533 28.353 L 526.176 29.782 L 525.865 31.221 L 525.601 32.670 L 525.385 34.126 L 525.217 35.589 L 525.096 37.057 L 525.024 38.528 L 525.000 40.000 L 525.000 361.021 L 523.509 359.705 L 522.739 359.040 L 518.938 355.835 L 518.154 355.188 L 514.281 352.069 L 513.482 351.440 L 509.540 348.409 L 508.727 347.798 L 504.718 344.858 L 503.891 344.266 L 499.816 341.416 L 498.976 340.843 L 494.838 338.086 L 493.985 337.532 L 489.786 334.870 L 488.921 334.335 L 484.662 331.768 L 483.785 331.253 L 479.470 328.783 L 478.582 328.288 L 474.211 325.916 L 473.312 325.441 L 468.890 323.169 L 467.980 322.714 L 463.507 320.542 L 462.587 320.109 L 458.066 318.038 L 457.137 317.625 L 452.571 315.658 L 451.632 315.266 L 447.022 313.402 L 446.075 313.032 L 441.425 311.273 L 440.469 310.924 L 435.780 309.270 L 434.817 308.943 L 430.092 307.396 L 429.122 307.090 L 424.363 305.650 L 423.386 305.366 L 418.596 304.034 L 417.613 303.773 L 412.793 302.550 L 411.805 302.310 L 406.959 301.196 L 405.965 300.980 L 401.096 299.975 L 400.097 299.781 L 395.206 298.887 L 394.204 298.715 L 389.294 297.932 L 388.288 297.783 L 383.361 297.111 L 382.352 296.985 L 377.411 296.424 L 376.400 296.321 L 371.448 295.872 L 370.434 295.791 L 365.473 295.454 L 364.458 295.397 L 359.490 295.172 L 358.474 295.138 L 353.503 295.026 L 352.486 295.014 L 347.514 295.014 L 346.497 295.026 L 341.526 295.138 L 340.510 295.172 L 335.542 295.397 L 334.527 295.454 L 329.566 295.791 L 328.552 295.872 L 323.600 296.321 L 322.589 296.424 L 317.648 296.985 L 316.639 297.111 L 311.712 297.783 L 310.706 297.932 L 305.796 298.715 L 304.794 298.887 L 299.903 299.781 L 298.904 299.975 L 294.035 300.980 L 293.041 301.196 L 288.195 302.310 L 287.207 302.550 L 282.387 303.773 L 281.404 304.034 L 276.614 305.366 L 275.637 305.650 L 270.878 307.090 L 269.908 307.396 L 265.183 308.943 L 264.220 309.270 L 259.531 310.924 L 258.575 311.273 L 253.925 313.032 L 252.978 313.402 L 248.368 315.266 L 247.429 315.658 L 242.863 317.625 L 241.934 318.038 L 237.413 320.109 L 236.493 320.542 L 232.020 322.714 L 231.110 323.169 L 226.688 325.441 L 225.789 325.916 L 221.418 328.288 L 220.530 328.783 L 216.215 331.253 L 215.338 331.768 L 211.079 334.335 L 210.214 334.870 L 206.015 337.532 L 205.162 338.086 L 201.024 340.843 L 200.184 341.416 L 196.109 344.266 L 195.282 344.858 L 191.273 347.798 L 190.460 348.409 L 186.518 351.440 L 185.719 352.069 L 181.846 355.188 L 181.062 355.835 L 177.261 359.040 L 176.491 359.705 L 175.000 361.021 L 175.000 40.000 L 174.976 38.528 L 174.904 37.057 L 174.783 35.589 L 174.615 34.126 L 174.399 32.670 L 174.135 31.221 L 173.824 29.782 L 173.467 28.353 L 173.062 26.937 L 172.612 25.535 L 172.116 24.149 L 171.575 22.779 L 170.989 21.428 L 170.359 20.097 L 169.686 18.787 L 168.971 17.500 L 168.214 16.237 L 167.416 14.999 L 166.578 13.789 L 165.701 12.606 L 164.785 11.452 L 163.833 10.329 L 162.844 9.238 L 161.820 8.180 L 160.762 7.156 L 159.671 6.167 L 158.548 5.215 L 157.394 4.299 L 156.211 3.422 L 155.001 2.584 L 153.763 1.786 L 152.500 1.029 L 151.213 0.314 L 149.903 -0.359 L 148.572 -0.989 L 147.221 -1.575 L 145.851 -2.116 L 144.465 -2.612 L 143.063 -3.062 L 141.647 -3.467 L 140.218 -3.824 L 138.779 -4.135 L 137.330 -4.399 L 135.874 -4.615 L 134.411 -4.783 L 132.943 -4.904 L 131.472 -4.976 L 130.000 -5.000 L 128.528 -4.976 L 127.057 -4.904 L 125.589 -4.783 L 124.126 -4.615 L 122.670 -4.399 L 121.221 -4.135 L 119.782 -3.824 L 118.353 -3.467 L 116.937 -3.062 L 115.535 -2.612 L 114.149 -2.116 L 112.779 -1.575 L 111.428 -0.989 L 110.097 -0.359 L 108.787 0.314 L 107.500 1.029 L 106.237 1.786 L 104.999 2.584 L 103.789 3.422 L 102.606 4.299 L 101.452 5.215 L 100.329 6.167 L 99.238 7.156 L 98.180 8.180 L 97.156 9.238 L 96.167 10.329 L 95.215 11.452 L 94.299 12.606 L 93.422 13.789 L 92.584 14.999 L 91.786 16.237 L 91.029 17.500 L 90.314 18.787 L 89.641 20.097 L 89.011 21.428 L 88.425 22.779 L 87.884 24.149 L 87.388 25.535 L 86.938 26.937 L 86.533 28.353 L 86.176 29.782 L 85.865 31.221 L 85.601 32.670 L 85.385 34.126 L 85.217 35.589 L 85.096 37.057 L 85.024 38.528 L 85.000 40.000 L 85.000 560.000 L 85.008 560.482 Z" fill="black" fill-rule="evenodd"/>
</svg>
