<svg xmlns="http://www.w3.org/2000/svg" viewBox="0 0 700.000 1000.000">
  <path d="M 612.208,735.054 L 614.411,735.217 L 616.603,735.487 L 618.779,735.865 L 620.934,736.349 L 623.063,736.938 L 625.160,737.631 L 627.221,738.425 L 629.240,739.320 L 631.213,740.314 L 633.135,741.402 L 635.001,742.584 L 636.806,743.856 L 638.548,745.215 L 640.220,746.657 L 641.820,748.180 L 643.343,749.780 L 644.785,751.452 L 646.144,753.194 L 647.416,754.999 L 648.598,756.865 L 649.686,758.787 L 650.680,760.760 L 651.575,762.779 L 652.369,764.840 L 653.062,766.937 L 653.651,769.066 L 654.135,771.221 L 654.513,773.397 L 654.783,775.589 L 654.946,777.792 L 655.000,780.000 L 654.946,782.208 L 654.783,784.411 L 654.513,786.603 L 654.135,788.779 L 653.651,790.934 L 653.062,793.063 L 652.369,795.160 L 651.575,797.221 L 650.680,799.240 L 649.686,801.213 L 648.598,803.135 L 647.416,805.001 L 646.144,806.806 L 644.785,808.548 L 643.343,810.220 L 641.820,811.820 L 640.220,813.343 L 638.548,814.785 L 636.806,816.144 L 635.001,817.416 L 633.135,818.598 L 631.213,819.686 L 629.240,820.680 L 627.221,821.575 L 625.160,822.369 L 623.063,823.062 L 620.934,823.651 L 618.779,824.135 L 616.603,824.513 L 614.411,824.783 L 612.208,824.946 L 610.000,825.000 L 90.000,825.000 L 89.472,824.987 L 88.943,824.988 L 88.368,824.960 L 87.792,824.946 L 87.265,824.907 L 86.737,824.882 L 86.164,824.826 L 85.589,824.783 L 85.065,824.719 L 84.539,824.667 L 83.969,824.583 L 83.397,824.513 L 82.876,824.423 L 82.353,824.346 L 81.788,824.234 L 81.221,824.135 L 80.705,824.020 L 80.187,823.917 L 79.628,823.778 L 79.066,823.651 L 78.557,823.510 L 78.044,823.383 L 77.492,823.216 L 76.937,823.062 L 76.435,822.897 L 75.929,822.744 L 75.387,822.550 L 74.840,822.369 L 74.347,822.179 L 73.849,822.002 L 73.317,821.782 L 72.779,821.575 L 72.296,821.360 L 71.808,821.159 L 71.287,820.913 L 70.760,820.680 L 70.288,820.442 L 69.810,820.216 L 69.302,819.945 L 68.787,819.686 L 68.327,819.426 L 67.861,819.177 L 67.367,818.882 L 66.865,818.598 L 66.419,818.315 L 65.965,818.044 L 65.486,817.724 L 64.999,817.416 L 64.567,817.112 L 64.127,816.819 L 63.664,816.476 L 63.194,816.144 L 62.777,815.819 L 62.352,815.505 L 61.906,815.140 L 61.452,814.785 L 61.052,814.440 L 60.643,814.105 L 60.216,813.719 L 59.780,813.343 L 59.397,812.978 L 59.005,812.624 L 58.597,812.217 L 58.180,811.820 L 57.816,811.437 L 57.442,811.064 L 57.054,810.637 L 56.657,810.220 L 56.312,809.820 L 55.957,809.429 L 55.591,808.984 L 55.215,808.548 L 54.889,808.131 L 54.554,807.723 L 54.210,807.261 L 53.856,806.806 L 53.551,806.374 L 53.236,805.950 L 52.916,805.472 L 52.584,805.001 L 52.301,804.554 L 52.007,804.115 L 51.710,803.621 L 51.402,803.135 L 51.142,802.675 L 50.870,802.222 L 50.597,801.714 L 50.314,801.213 L 50.076,800.741 L 49.826,800.275 L 49.579,799.754 L 49.320,799.240 L 49.106,798.757 L 48.880,798.279 L 48.659,797.747 L 48.425,797.221 L 48.235,796.728 L 48.032,796.240 L 47.838,795.697 L 47.631,795.160 L 47.465,794.658 L 47.286,794.161 L 47.118,793.610 L 46.938,793.063 L 46.797,792.553 L 46.643,792.048 L 46.502,791.489 L 46.349,790.934 L 46.233,790.418 L 46.104,789.906 L 45.991,789.341 L 45.865,788.779 L 45.774,788.258 L 45.671,787.740 L 45.586,787.170 L 45.487,786.603 L 45.422,786.078 L 45.344,785.556 L 45.287,784.982 L 45.217,784.411 L 45.178,783.884 L 45.125,783.358 L 45.097,782.782 L 45.054,782.208 L 45.041,781.680 L 45.015,781.152 L 45.014,780.576 L 45.000,780.000 L 45.013,779.472 L 45.012,778.943 L 45.040,778.368 L 45.054,777.792 L 45.093,777.265 L 45.118,776.737 L 45.174,776.164 L 45.217,775.589 L 45.281,775.065 L 45.333,774.539 L 45.417,773.969 L 45.487,773.397 L 45.577,772.876 L 45.654,772.353 L 45.766,771.788 L 45.865,771.221 L 45.980,770.705 L 46.083,770.187 L 46.222,769.628 L 46.349,769.066 L 46.490,768.557 L 46.617,768.044 L 46.784,767.492 L 46.938,766.937 L 47.103,766.435 L 47.256,765.929 L 47.450,765.387 L 47.631,764.840 L 47.821,764.347 L 47.998,763.849 L 48.218,763.317 L 48.425,762.779 L 48.640,762.296 L 48.841,761.808 L 49.087,761.287 L 49.320,760.760 L 49.558,760.288 L 49.784,759.810 L 50.055,759.302 L 50.314,758.787 L 50.574,758.327 L 50.823,757.861 L 51.118,757.367 L 51.402,756.865 L 51.685,756.419 L 51.956,755.965 L 52.276,755.486 L 52.584,754.999 L 52.888,754.567 L 53.181,754.127 L 523.379,85.000 L 90.000,85.000 L 87.792,84.946 L 85.589,84.783 L 83.397,84.513 L 81.221,84.135 L 79.066,83.651 L 76.937,83.062 L 74.840,82.369 L 72.779,81.575 L 70.760,80.680 L 68.787,79.686 L 66.865,78.598 L 64.999,77.416 L 63.194,76.144 L 61.452,74.785 L 59.780,73.343 L 58.180,71.820 L 56.657,70.220 L 55.215,68.548 L 53.856,66.806 L 52.584,65.001 L 51.402,63.135 L 50.314,61.213 L 49.320,59.240 L 48.425,57.221 L 47.631,55.160 L 46.938,53.063 L 46.349,50.934 L 45.865,48.779 L 45.487,46.603 L 45.217,44.411 L 45.054,42.208 L 45.000,40.000 L 45.054,37.792 L 45.217,35.589 L 45.487,33.397 L 45.865,31.221 L 46.349,29.066 L 46.938,26.937 L 47.631,24.840 L 48.425,22.779 L 49.320,20.760 L 50.314,18.787 L 51.402,16.865 L 52.584,14.999 L 53.856,13.194 L 55.215,11.452 L 56.657,9.780 L 58.180,8.180 L 59.780,6.657 L 61.452,5.215 L 63.194,3.856 L 64.999,2.584 L 66.865,1.402 L 68.787,0.314 L 70.760,-0.680 L 72.779,-1.575 L 74.840,-2.369 L 76.937,-3.062 L 79.066,-3.651 L 81.221,-4.135 L 83.397,-4.513 L 85.589,-4.783 L 87.792,-4.946 L 90.000,-5.000 L 610.000,-5.000 L 610.528,-4.987 L 611.057,-4.988 L 611.632,-4.960 L 612.208,-4.946 L 612.735,-4.907 L 613.263,-4.882 L 613.836,-4.826 L 614.411,-4.783 L 614.935,-4.719 L 615.461,-4.667 L 616.031,-4.583 L 616.603,-4.513 L 617.124,-4.423 L 617.647,-4.346 L 618.212,-4.234 L 618.779,-4.135 L 619.295,-4.020 L 619.813,-3.917 L 620.372,-3.778 L 620.934,-3.651 L 621.443,-3.510 L 621.956,-3.383 L 622.508,-3.216 L 623.063,-3.062 L 623.565,-2.897 L 624.071,-2.744 L 624.613,-2.550 L 625.160,-2.369 L 625.653,-2.179 L 626.151,-2.002 L 626.683,-1.782 L 627.221,-1.575 L 627.704,-1.360 L 628.192,-1.159 L 628.713,-0.913 L 629.240,-0.680 L 629.712,-0.442 L 630.190,-0.216 L 630.698,0.055 L 631.213,0.314 L 631.673,0.574 L 632.139,0.823 L 632.633,1.118 L 633.135,1.402 L 633.581,1.685 L 634.035,1.956 L 634.514,2.276 L 635.001,2.584 L 635.433,2.888 L 635.873,3.181 L 636.336,3.524 L 636.806,3.856 L 637.223,4.181 L 637.648,4.495 L 638.094,4.860 L 638.548,5.215 L 638.948,5.560 L 639.357,5.895 L 639.784,6.281 L 640.220,6.657 L 640.603,7.022 L 640.995,7.376 L 641.403,7.783 L 641.820,8.180 L 642.184,8.563 L 642.558,8.936 L 642.946,9.363 L 643.343,9.780 L 643.688,10.180 L 644.043,10.571 L 644.409,11.016 L 644.785,11.452 L 645.111,11.869 L 645.446,12.277 L 645.790,12.739 L 646.144,13.194 L 646.449,13.626 L 646.764,14.050 L 647.084,14.528 L 647.416,14.999 L 647.699,15.446 L 647.993,15.885 L 648.290,16.379 L 648.598,16.865 L 648.858,17.325 L 649.130,17.778 L 649.403,18.286 L 649.686,18.787 L 649.924,19.259 L 650.174,19.725 L 650.421,20.246 L 650.680,20.760 L 650.894,21.243 L 651.120,21.721 L 651.341,22.253 L 651.575,22.779 L 651.765,23.272 L 651.968,23.760 L 652.162,24.303 L 652.369,24.840 L 652.535,25.342 L 652.714,25.839 L 652.882,26.390 L 653.062,26.937 L 653.203,27.447 L 653.357,27.952 L 653.498,28.511 L 653.651,29.066 L 653.767,29.582 L 653.896,30.094 L 654.009,30.659 L 654.135,31.221 L 654.226,31.742 L 654.329,32.260 L 654.414,32.830 L 654.513,33.397 L 654.578,33.922 L 654.656,34.444 L 654.713,35.018 L 654.783,35.589 L 654.822,36.116 L 654.875,36.642 L 654.903,37.218 L 654.946,37.792 L 654.959,38.320 L 654.985,38.848 L 654.986,39.424 L 655.000,40.000 L 654.987,40.528 L 654.988,41.057 L 654.960,41.632 L 654.946,42.208 L 654.907,42.735 L 654.882,43.263 L 654.826,43.836 L 654.783,44.411 L 654.719,44.935 L 654.667,45.461 L 654.583,46.031 L 654.513,46.603 L 654.423,47.124 L 654.346,47.647 L 654.234,48.212 L 654.135,48.779 L 654.020,49.295 L 653.917,49.813 L 653.778,50.372 L 653.651,50.934 L 653.510,51.443 L 653.383,51.956 L 653.216,52.508 L 653.062,53.063 L 652.897,53.565 L 652.744,54.071 L 652.550,54.613 L 652.369,55.160 L 652.179,55.653 L 652.002,56.151 L 651.782,56.683 L 651.575,57.221 L 651.360,57.704 L 651.159,58.192 L 650.913,58.713 L 650.680,59.240 L 650.442,59.712 L 650.216,60.190 L 649.945,60.698 L 649.686,61.213 L 649.426,61.673 L 649.177,62.139 L 648.882,62.633 L 648.598,63.135 L 648.315,63.581 L 648.044,64.035 L 647.724,64.514 L 647.416,65.001 L 647.112,65.433 L 646.819,65.873 L 176.621,735.000 L 610.000,735.000 L 612.208,735.054 Z" fill="black" fill-rule="evenodd"/>
</svg>
