<svg xmlns="http://www.w3.org/2000/svg" viewBox="0 0 700.000 1000.000">
  <path d="M 548.806,460.599 L 543.340,450.156 L 537.327,440.019 L 530.782,430.216 L 523.725,420.775 L 516.175,411.724 L 508.155,403.087 L 499.686,394.889 L 490.792,387.154 L 481.500,379.903 L 471.835,373.156 L 461.824,366.934 L 451.497,361.253 L 440.882,356.130 L 430.009,351.579 L 418.910,347.614 L 407.615,344.244 L 396.156,341.481 L 384.567,339.331 L 372.880,337.801 L 361.129,336.896 L 349.345,336.617 L 337.564,336.966 L 325.817,337.941 L 314.139,339.540 L 302.563,341.758 L 291.122,344.589 L 279.847,348.025 L 268.771,352.056 L 257.925,356.671 L 247.341,361.857 L 237.047,367.599 L 227.074,373.880 L 217.449,380.684 L 208.199,387.990 L 199.352,395.778 L 190.932,404.025 L 182.962,412.710 L 175.466,421.806 L 168.465,431.288 L 161.979,441.129 L 156.025,451.302 L 150.621,461.777 L 145.782,472.524 L 141.523,483.514 L 137.854,494.715 L 134.786,506.096 L 132.329,517.624 L 130.489,529.266 L 129.270,540.990 L 128.678,552.761 L 128.713,564.548 L 129.375,576.316 L 130.662,588.032 L 132.572,599.663 L 135.097,611.176 L 138.232,622.539 L 142.347,634.854 L 142.995,636.966 L 143.539,639.107 L 143.977,641.271 L 144.309,643.455 L 144.533,645.652 L 144.648,647.858 L 144.656,650.067 L 144.555,652.273 L 144.346,654.472 L 144.029,656.658 L 143.605,658.826 L 143.076,660.970 L 142.442,663.086 L 141.705,665.168 L 140.867,667.211 L 139.929,669.211 L 138.894,671.162 L 137.765,673.061 L 136.544,674.901 L 135.235,676.680 L 133.839,678.392 L 132.362,680.033 L 130.805,681.600 L 129.173,683.089 L 127.471,684.496 L 125.701,685.818 L 123.869,687.051 L 121.978,688.193 L 120.034,689.241 L 118.040,690.192 L 116.003,691.044 L 113.926,691.795 L 111.814,692.443 L 109.674,692.987 L 107.509,693.425 L 105.325,693.757 L 103.128,693.981 L 100.922,694.097 L 98.713,694.104 L 96.507,694.003 L 94.308,693.794 L 92.122,693.477 L 89.955,693.054 L 87.810,692.524 L 85.694,691.890 L 83.612,691.153 L 81.569,690.315 L 79.569,689.377 L 77.618,688.343 L 75.719,687.214 L 73.879,685.993 L 72.100,684.683 L 70.388,683.288 L 68.747,681.810 L 67.180,680.253 L 65.691,678.622 L 64.284,676.919 L 62.962,675.150 L 61.729,673.317 L 60.587,671.427 L 59.539,669.482 L 58.588,667.489 L 57.736,665.451 L 56.985,663.374 L 52.490,649.921 L 51.792,647.630 L 48.020,633.957 L 47.444,631.631 L 44.405,617.777 L 43.954,615.424 L 41.657,601.428 L 41.332,599.055 L 39.783,584.956 L 39.584,582.568 L 38.788,568.407 L 38.717,566.013 L 38.675,551.829 L 38.731,549.434 L 39.444,535.269 L 39.629,532.880 L 41.094,518.772 L 41.405,516.397 L 43.620,502.387 L 44.057,500.032 L 47.014,486.160 L 47.576,483.831 L 51.267,470.136 L 51.952,467.840 L 56.367,454.361 L 57.173,452.105 L 62.299,438.881 L 63.224,436.670 L 69.046,423.737 L 70.088,421.580 L 76.590,408.975 L 77.745,406.875 L 84.435,395.444 L 83.612,395.153 L 81.569,394.315 L 79.569,393.377 L 77.618,392.343 L 75.719,391.214 L 73.879,389.993 L 72.100,388.683 L 70.388,387.288 L 68.747,385.810 L 67.180,384.253 L 65.691,382.622 L 64.284,380.919 L 62.962,379.150 L 61.729,377.317 L 60.587,375.427 L 59.539,373.482 L 58.588,371.489 L 57.736,369.451 L 56.985,367.374 L 52.490,353.921 L 51.792,351.630 L 48.020,337.957 L 47.444,335.631 L 44.405,321.777 L 43.954,319.424 L 41.657,305.428 L 41.332,303.055 L 39.783,288.956 L 39.584,286.568 L 38.788,272.407 L 38.717,270.013 L 38.675,255.829 L 38.731,253.434 L 39.444,239.269 L 39.629,236.880 L 41.094,222.772 L 41.405,220.397 L 43.620,206.387 L 44.057,204.032 L 47.014,190.160 L 47.576,187.831 L 51.267,174.136 L 51.952,171.840 L 56.367,158.361 L 57.173,156.105 L 62.299,142.881 L 63.224,140.670 L 69.046,127.737 L 70.088,125.580 L 76.590,112.975 L 77.745,110.875 L 84.909,98.634 L 86.174,96.600 L 93.980,84.757 L 95.351,82.793 L 103.776,71.382 L 105.250,69.494 L 114.270,58.548 L 115.842,56.740 L 125.432,46.290 L 127.098,44.569 L 137.231,34.644 L 138.986,33.014 L 149.633,23.642 L 151.473,22.108 L 162.603,13.316 L 164.522,11.882 L 176.104,3.695 L 178.096,2.365 L 190.098,-5.194 L 192.158,-6.417 L 204.545,-13.326 L 206.668,-14.437 L 219.405,-20.677 L 221.583,-21.674 L 234.634,-27.227 L 236.863,-28.106 L 250.191,-32.957 L 252.464,-33.716 L 266.031,-37.851 L 268.341,-38.488 L 282.109,-41.895 L 284.449,-42.408 L 298.379,-45.078 L 300.743,-45.466 L 314.795,-47.390 L 317.177,-47.652 L 331.312,-48.825 L 333.704,-48.960 L 347.881,-49.379 L 350.277,-49.386 L 364.456,-49.051 L 366.849,-48.930 L 380.991,-47.840 L 383.374,-47.593 L 397.437,-45.752 L 399.803,-45.378 L 413.749,-42.791 L 416.092,-42.291 L 429.880,-38.966 L 432.194,-38.343 L 445.785,-34.288 L 448.062,-33.542 L 461.418,-28.770 L 463.652,-27.904 L 476.736,-22.428 L 478.921,-21.445 L 491.694,-15.280 L 493.823,-14.182 L 506.251,-7.346 L 508.319,-6.136 L 520.365,1.352 L 522.365,2.671 L 533.995,10.789 L 535.923,12.212 L 547.105,20.937 L 548.954,22.461 L 559.655,31.769 L 561.420,33.389 L 571.611,43.254 L 573.288,44.965 L 582.939,55.359 L 584.522,57.157 L 593.607,68.049 L 595.092,69.929 L 603.584,81.289 L 604.967,83.246 L 612.843,95.042 L 614.120,97.069 L 621.356,109.267 L 622.523,111.360 L 629.100,123.926 L 630.154,126.077 L 636.053,138.976 L 636.991,141.181 L 642.196,154.375 L 642.955,156.449 L 643.612,158.557 L 644.165,160.696 L 644.612,162.859 L 644.953,165.041 L 645.186,167.237 L 645.311,169.443 L 645.328,171.651 L 645.236,173.858 L 645.036,176.058 L 644.728,178.245 L 644.314,180.414 L 643.793,182.561 L 643.168,184.679 L 642.440,186.764 L 641.610,188.811 L 640.680,190.815 L 639.654,192.771 L 638.533,194.674 L 637.320,196.519 L 636.017,198.303 L 634.629,200.021 L 633.158,201.669 L 631.608,203.242 L 629.983,204.738 L 628.286,206.152 L 626.522,207.481 L 624.695,208.722 L 622.809,209.872 L 620.869,210.927 L 618.879,211.887 L 616.845,212.747 L 614.771,213.507 L 612.663,214.164 L 610.524,214.717 L 608.361,215.164 L 606.179,215.505 L 603.983,215.738 L 601.777,215.863 L 599.569,215.879 L 597.362,215.788 L 595.162,215.588 L 592.975,215.280 L 590.806,214.865 L 588.659,214.345 L 586.541,213.720 L 584.456,212.991 L 582.409,212.161 L 580.405,211.232 L 578.449,210.206 L 576.546,209.085 L 574.701,207.871 L 572.917,206.569 L 571.199,205.181 L 569.551,203.710 L 567.978,202.160 L 566.482,200.534 L 565.068,198.838 L 563.739,197.074 L 562.498,195.246 L 561.348,193.361 L 560.293,191.421 L 559.333,189.431 L 558.473,187.397 L 553.708,175.318 L 548.806,164.599 L 543.340,154.156 L 537.327,144.019 L 530.782,134.216 L 523.725,124.775 L 516.175,115.724 L 508.155,107.087 L 499.686,98.889 L 490.792,91.154 L 481.500,83.903 L 471.835,77.156 L 461.824,70.934 L 451.497,65.253 L 440.882,60.130 L 430.009,55.579 L 418.910,51.614 L 407.615,48.244 L 396.156,45.481 L 384.567,43.331 L 372.880,41.801 L 361.129,40.896 L 349.345,40.617 L 337.564,40.966 L 325.817,41.941 L 314.139,43.540 L 302.563,45.758 L 291.122,48.589 L 279.847,52.025 L 268.771,56.056 L 257.925,60.671 L 247.341,65.857 L 237.047,71.599 L 227.074,77.880 L 217.449,84.684 L 208.199,91.990 L 199.352,99.778 L 190.932,108.025 L 182.962,116.710 L 175.466,125.806 L 168.465,135.288 L 161.979,145.129 L 156.025,155.302 L 150.621,165.777 L 145.782,176.524 L 141.523,187.514 L 137.854,198.715 L 134.786,210.096 L 132.329,221.624 L 130.489,233.266 L 129.270,244.990 L 128.678,256.761 L 128.713,268.548 L 129.375,280.316 L 130.662,292.032 L 132.572,303.663 L 135.097,315.176 L 138.232,326.539 L 139.042,328.964 L 149.633,319.642 L 151.473,318.108 L 162.603,309.316 L 164.522,307.882 L 176.104,299.695 L 178.096,298.365 L 190.098,290.806 L 192.158,289.583 L 204.545,282.674 L 206.668,281.563 L 219.405,275.323 L 221.583,274.326 L 234.634,268.773 L 236.863,267.894 L 250.191,263.043 L 252.464,262.284 L 266.031,258.149 L 268.341,257.512 L 282.109,254.105 L 284.449,253.592 L 298.379,250.922 L 300.743,250.534 L 314.795,248.610 L 317.177,248.348 L 331.312,247.175 L 333.704,247.040 L 347.881,246.621 L 350.277,246.614 L 364.456,246.949 L 366.849,247.070 L 380.991,248.160 L 383.374,248.407 L 397.437,250.248 L 399.803,250.622 L 413.749,253.209 L 416.092,253.709 L 429.880,257.034 L 432.194,257.657 L 445.785,261.712 L 448.062,262.458 L 461.418,267.230 L 463.652,268.096 L 476.736,273.572 L 478.921,274.555 L 491.694,280.720 L 493.823,281.818 L 506.251,288.654 L 508.319,289.864 L 520.365,297.352 L 522.365,298.671 L 533.995,306.789 L 535.923,308.212 L 547.105,316.937 L 548.954,318.461 L 559.655,327.769 L 561.420,329.389 L 571.611,339.254 L 573.288,340.965 L 582.939,351.359 L 584.522,353.157 L 593.607,364.049 L 595.092,365.929 L 603.584,377.289 L 604.967,379.246 L 612.843,391.042 L 614.120,393.069 L 621.356,405.267 L 622.523,407.360 L 629.100,419.926 L 630.154,422.077 L 636.053,434.976 L 636.991,437.181 L 642.196,450.375 L 642.955,452.449 L 643.612,454.557 L 644.165,456.696 L 644.612,458.859 L 644.953,461.041 L 645.186,463.237 L 645.311,465.443 L 645.328,467.651 L 645.236,469.858 L 645.036,472.058 L 644.728,474.245 L 644.314,476.414 L 643.793,478.561 L 643.168,480.679 L 642.440,482.764 L 641.610,484.811 L 640.680,486.815 L 639.654,488.771 L 638.533,490.674 L 637.320,492.519 L 636.017,494.303 L 634.629,496.021 L 633.158,497.669 L 631.608,499.242 L 629.983,500.738 L 628.286,502.152 L 626.522,503.481 L 624.695,504.722 L 622.809,505.872 L 620.869,506.927 L 618.879,507.887 L 616.845,508.747 L 614.771,509.507 L 612.663,510.164 L 610.524,510.717 L 608.361,511.164 L 606.179,511.505 L 603.983,511.738 L 601.777,511.863 L 599.569,511.879 L 597.362,511.788 L 595.162,511.588 L 592.975,511.280 L 590.806,510.865 L 588.659,510.345 L 586.541,509.720 L 584.456,508.991 L 582.409,508.161 L 580.405,507.232 L 578.449,506.206 L 576.546,505.085 L 574.701,503.871 L 572.917,502.569 L 571.199,501.181 L 569.551,499.710 L 567.978,498.160 L 566.482,496.534 L 565.068,494.838 L 563.739,493.074 L 562.498,491.246 L 561.348,489.361 L 560.293,487.421 L 559.333,485.431 L 558.473,483.397 L 553.708,471.318 L 548.806,460.599 Z" fill="black" fill-rule="evenodd"/>
</svg>
