<svg xmlns="http://www.w3.org/2000/svg" viewBox="0 0 700.000 1000">
  <path d="M 608.679 62.998 L 609.411 61.721 L 610.100 60.419 L 610.747 59.096 L 611.350 57.753 L 611.909 56.391 L 612.423 55.011 L 612.891 53.614 L 613.314 52.204 L 613.690 50.780 L 614.019 49.345 L 614.301 47.900 L 614.536 46.446 L 614.723 44.985 L 614.862 43.519 L 614.953 42.050 L 614.996 40.578 L 614.991 39.105 L 614.938 37.633 L 614.836 36.164 L 614.687 34.699 L 614.489 33.240 L 614.244 31.788 L 613.952 30.345 L 613.613 28.912 L 613.226 27.491 L 612.794 26.083 L 612.316 24.691 L 611.792 23.314 L 611.224 21.956 L 610.611 20.617 L 609.955 19.298 L 609.257 18.002 L 608.516 16.729 L 607.734 15.482 L 606.912 14.260 L 606.050 13.066 L 605.149 11.901 L 604.211 10.766 L 603.236 9.662 L 602.226 8.591 L 601.181 7.554 L 600.102 6.551 L 598.992 5.584 L 597.850 4.654 L 596.679 3.761 L 595.479 2.908 L 594.252 2.094 L 592.998 1.321 L 591.721 0.589 L 590.419 -0.100 L 589.096 -0.747 L 587.753 -1.350 L 586.391 -1.909 L 585.011 -2.423 L 583.614 -2.891 L 582.204 -3.314 L 580.780 -3.690 L 579.345 -4.019 L 577.900 -4.301 L 576.446 -4.536 L 574.985 -4.723 L 573.519 -4.862 L 572.050 -4.953 L 570.578 -4.996 L 569.105 -4.991 L 567.633 -4.938 L 566.164 -4.836 L 564.699 -4.687 L 563.240 -4.489 L 561.788 -4.244 L 560.345 -3.952 L 558.912 -3.613 L 557.491 -3.226 L 556.083 -2.794 L 554.691 -2.316 L 553.314 -1.792 L 551.956 -1.224 L 550.617 -0.611 L 549.298 0.045 L 548.002 0.743 L 546.729 1.484 L 545.482 2.266 L 544.260 3.088 L 543.066 3.950 L 541.901 4.851 L 540.766 5.789 L 539.662 6.764 L 538.591 7.774 L 537.554 8.819 L 536.551 9.898 L 535.584 11.008 L 534.654 12.150 L 533.761 13.321 L 532.908 14.521 L 532.094 15.748 L 531.321 17.002 L 350.000 321.950 L 168.679 17.002 L 167.906 15.748 L 167.092 14.521 L 166.239 13.321 L 165.346 12.150 L 164.416 11.008 L 163.449 9.898 L 162.446 8.819 L 161.409 7.774 L 160.338 6.764 L 159.234 5.789 L 158.099 4.851 L 156.934 3.950 L 155.740 3.088 L 154.518 2.266 L 153.271 1.484 L 151.998 0.743 L 150.702 0.045 L 149.383 -0.611 L 148.044 -1.224 L 146.686 -1.792 L 145.309 -2.316 L 143.917 -2.794 L 142.509 -3.226 L 141.088 -3.613 L 139.655 -3.952 L 138.212 -4.244 L 136.760 -4.489 L 135.301 -4.687 L 133.836 -4.836 L 132.367 -4.938 L 130.895 -4.991 L 129.422 -4.996 L 127.950 -4.953 L 126.481 -4.862 L 125.015 -4.723 L 123.554 -4.536 L 122.100 -4.301 L 120.655 -4.019 L 119.220 -3.690 L 117.796 -3.314 L 116.386 -2.891 L 114.989 -2.423 L 113.609 -1.909 L 112.247 -1.350 L 110.904 -0.747 L 109.581 -0.100 L 108.279 0.589 L 107.002 1.321 L 105.748 2.094 L 104.521 2.908 L 103.321 3.761 L 102.150 4.654 L 101.008 5.584 L 99.898 6.551 L 98.819 7.554 L 97.774 8.591 L 96.764 9.662 L 95.789 10.766 L 94.851 11.901 L 93.950 13.066 L 93.088 14.260 L 92.266 15.482 L 91.484 16.729 L 90.743 18.002 L 90.045 19.298 L 89.389 20.617 L 88.776 21.956 L 88.208 23.314 L 87.684 24.691 L 87.206 26.083 L 86.774 27.491 L 86.387 28.912 L 86.048 30.345 L 85.756 31.788 L 85.511 33.240 L 85.313 34.699 L 85.164 36.164 L 85.062 37.633 L 85.009 39.105 L 85.004 40.578 L 85.047 42.050 L 85.138 43.519 L 85.277 44.985 L 85.464 46.446 L 85.699 47.900 L 85.981 49.345 L 86.310 50.780 L 86.686 52.204 L 87.109 53.614 L 87.577 55.011 L 88.091 56.391 L 88.650 57.753 L 89.253 59.096 L 89.900 60.419 L 90.589 61.721 L 91.321 62.998 L 305.000 422.368 L 305.000 780.000 L 305.024 781.472 L 305.096 782.943 L 305.217 784.411 L 305.385 785.874 L 305.601 787.330 L 305.865 788.779 L 306.176 790.218 L 306.533 791.647 L 306.938 793.063 L 307.388 794.465 L 307.884 795.851 L 308.425 797.221 L 309.011 798.572 L 309.641 799.903 L 310.314 801.213 L 311.029 802.500 L 311.786 803.763 L 312.584 805.001 L 313.422 806.211 L 314.299 807.394 L 315.215 808.548 L 316.167 809.671 L 317.156 810.762 L 318.180 811.820 L 319.238 812.844 L 320.329 813.833 L 321.452 814.785 L 322.606 815.701 L 323.789 816.578 L 324.999 817.416 L 326.237 818.214 L 327.500 818.971 L 328.787 819.686 L 330.097 820.359 L 331.428 820.989 L 332.779 821.575 L 334.149 822.116 L 335.535 822.612 L 336.937 823.062 L 338.353 823.467 L 339.782 823.824 L 341.221 824.135 L 342.670 824.399 L 344.126 824.615 L 345.589 824.783 L 347.057 824.904 L 348.528 824.976 L 350.000 825.000 L 351.472 824.976 L 352.943 824.904 L 354.411 824.783 L 355.874 824.615 L 357.330 824.399 L 358.779 824.135 L 360.218 823.824 L 361.647 823.467 L 363.063 823.062 L 364.465 822.612 L 365.851 822.116 L 367.221 821.575 L 368.572 820.989 L 369.903 820.359 L 371.213 819.686 L 372.500 818.971 L 373.763 818.214 L 375.001 817.416 L 376.211 816.578 L 377.394 815.701 L 378.548 814.785 L 379.671 813.833 L 380.762 812.844 L 381.820 811.820 L 382.844 810.762 L 383.833 809.671 L 384.785 808.548 L 385.701 807.394 L 386.578 806.211 L 387.416 805.001 L 388.214 803.763 L 388.971 802.500 L 389.686 801.213 L 390.359 799.903 L 390.989 798.572 L 391.575 797.221 L 392.116 795.851 L 392.612 794.465 L 393.062 793.063 L 393.467 791.647 L 393.824 790.218 L 394.135 788.779 L 394.399 787.330 L 394.615 785.874 L 394.783 784.411 L 394.904 782.943 L 394.976 781.472 L 395.000 780.000 L 395.000 422.368 L 608.679 62.998 Z" fill="black" fill-rule="evenodd"/>
</svg>
