<svg xmlns="http://www.w3.org/2000/svg" viewBox="0 0 700.000 1000">
  <path d="M 498.578 111.176 L 498.525 112.356 L 498.437 113.545 L 498.312 114.746 L 498.150 115.963 L 497.949 117.201 L 497.706 118.462 L 497.421 119.749 L 497.092 121.065 L 496.715 122.412 L 496.289 123.793 L 495.812 125.208 L 495.281 126.660 L 494.695 128.149 L 494.050 129.675 L 493.347 131.239 L 492.582 132.841 L 491.754 134.481 L 490.862 136.157 L 489.905 137.871 L 488.882 139.620 L 487.791 141.405 L 486.632 143.223 L 485.406 145.074 L 484.111 146.958 L 482.747 148.872 L 481.316 150.816 L 479.816 152.788 L 478.248 154.788 L 476.613 156.813 L 474.911 158.864 L 473.144 160.939 L 471.311 163.036 L 469.415 165.155 L 467.455 167.295 L 465.433 169.455 L 463.351 171.634 L 461.209 173.831 L 459.009 176.045 L 456.752 178.276 L 454.440 180.522 L 452.074 182.783 L 449.655 185.059 L 447.185 187.348 L 444.666 189.650 L 442.098 191.965 L 439.485 194.291 L 436.827 196.630 L 434.126 198.979 L 431.383 201.338 L 428.601 203.708 L 425.780 206.088 L 422.924 208.477 L 420.032 210.876 L 417.108 213.283 L 414.153 215.699 L 411.167 218.123 L 408.155 220.555 L 405.116 222.995 L 402.052 225.443 L 398.966 227.898 L 395.859 230.360 L 392.733 232.830 L 389.589 235.307 L 386.430 237.791 L 383.256 240.282 L 380.069 242.780 L 376.872 245.284 L 373.668 247.794 L 370.458 250.308 L 367.242 252.830 L 364.022 255.358 L 360.799 257.893 L 360.759 257.924 L 357.575 260.434 L 357.527 260.472 L 354.351 262.983 L 354.294 263.027 L 351.129 265.538 L 351.064 265.590 L 347.911 268.100 L 347.837 268.159 L 344.697 270.669 L 344.615 270.735 L 341.490 273.246 L 341.400 273.319 L 338.291 275.829 L 338.192 275.909 L 335.102 278.420 L 334.994 278.508 L 331.923 281.018 L 331.807 281.113 L 328.757 283.624 L 328.632 283.727 L 325.604 286.238 L 325.471 286.349 L 322.466 288.859 L 322.324 288.979 L 319.345 291.489 L 319.194 291.617 L 316.242 294.127 L 316.082 294.264 L 313.157 296.774 L 312.989 296.919 L 310.093 299.430 L 309.916 299.584 L 307.051 302.094 L 306.865 302.258 L 304.031 304.769 L 303.837 304.942 L 301.036 307.452 L 300.833 307.636 L 298.066 310.146 L 297.854 310.340 L 295.122 312.850 L 294.901 313.054 L 292.206 315.565 L 291.976 315.780 L 289.319 318.291 L 289.080 318.517 L 286.461 321.028 L 286.214 321.266 L 283.635 323.777 L 283.379 324.027 L 280.841 326.538 L 280.577 326.801 L 278.080 329.311 L 277.807 329.588 L 275.353 332.098 L 275.072 332.388 L 272.661 334.898 L 272.373 335.202 L 270.006 337.712 L 269.710 338.030 L 267.389 340.541 L 267.084 340.874 L 264.810 343.384 L 264.497 343.732 L 262.270 346.243 L 261.950 346.607 L 259.771 349.117 L 259.444 349.497 L 257.313 352.008 L 256.980 352.405 L 254.898 354.915 L 254.559 355.330 L 252.527 357.840 L 252.182 358.272 L 250.200 360.783 L 249.850 361.233 L 247.919 363.744 L 247.564 364.213 L 245.685 366.723 L 245.325 367.211 L 243.499 369.721 L 243.135 370.229 L 241.362 372.739 L 240.995 373.267 L 239.275 375.777 L 238.906 376.325 L 237.239 378.835 L 236.868 379.403 L 235.256 381.913 L 234.884 382.502 L 233.326 385.012 L 232.954 385.621 L 231.451 388.132 L 231.080 388.761 L 229.631 391.272 L 229.263 391.922 L 227.869 394.433 L 227.504 395.104 L 226.165 397.615 L 225.804 398.307 L 224.521 400.817 L 224.165 401.529 L 222.937 404.040 L 222.588 404.771 L 221.416 407.282 L 221.073 408.033 L 219.957 410.544 L 219.623 411.314 L 218.562 413.824 L 218.238 414.612 L 217.233 417.122 L 216.920 417.927 L 215.970 420.438 L 215.668 421.259 L 214.774 423.769 L 214.485 424.605 L 213.646 427.116 L 213.372 427.966 L 212.588 430.476 L 212.328 431.339 L 211.598 433.849 L 211.354 434.722 L 210.680 437.233 L 210.452 438.116 L 209.831 440.626 L 209.621 441.517 L 209.054 444.027 L 208.862 444.924 L 208.349 447.435 L 208.174 448.336 L 207.714 450.847 L 207.558 451.751 L 207.151 454.261 L 207.014 455.166 L 206.659 457.677 L 206.540 458.581 L 206.237 461.091 L 206.138 461.992 L 205.886 464.503 L 205.805 465.399 L 205.604 467.909 L 205.541 468.799 L 205.390 471.310 L 205.345 472.192 L 205.243 474.702 L 205.216 475.575 L 205.163 478.085 L 205.153 478.946 L 205.148 481.456 L 205.154 482.304 L 205.197 484.815 L 205.218 485.648 L 205.307 488.159 L 205.343 488.977 L 205.478 491.487 L 205.528 492.289 L 205.708 494.799 L 205.770 495.582 L 205.994 498.093 L 206.069 498.858 L 206.336 501.368 L 206.421 502.113 L 206.730 504.623 L 206.826 505.348 L 207.176 507.858 L 207.280 508.562 L 207.672 511.072 L 207.783 511.754 L 208.214 514.264 L 208.332 514.924 L 208.802 517.435 L 208.926 518.072 L 209.433 520.582 L 209.561 521.197 L 210.105 523.707 L 210.237 524.299 L 210.816 526.810 L 210.952 527.378 L 211.565 529.889 L 211.702 530.435 L 212.349 532.945 L 212.487 533.468 L 213.166 535.979 L 213.305 536.478 L 214.015 538.989 L 214.153 539.466 L 214.893 541.977 L 215.030 542.431 L 215.799 544.942 L 215.934 545.374 L 216.731 547.884 L 216.864 548.294 L 217.687 550.805 L 217.816 551.193 L 218.665 553.704 L 218.791 554.070 L 219.664 556.581 L 219.786 556.926 L 220.682 559.436 L 220.799 559.760 L 221.717 562.271 L 221.829 562.574 L 222.767 565.085 L 222.874 565.368 L 223.831 567.878 L 223.933 568.141 L 224.908 570.651 L 225.003 570.894 L 225.996 573.405 L 226.085 573.628 L 227.093 576.139 L 227.175 576.343 L 228.197 578.853 L 228.273 579.038 L 229.309 581.549 L 229.378 581.715 L 230.425 584.226 L 230.487 584.373 L 231.544 586.884 L 231.599 587.014 L 232.666 589.524 L 232.713 589.636 L 233.788 592.146 L 233.829 592.240 L 234.910 594.750 L 234.943 594.827 L 236.030 597.337 L 236.056 597.396 L 237.147 599.906 L 237.165 599.948 L 238.259 602.459 L 239.366 604.993 L 240.464 607.507 L 241.552 609.999 L 242.631 612.475 L 243.700 614.935 L 244.757 617.378 L 245.802 619.804 L 246.834 622.214 L 247.851 624.607 L 248.853 626.985 L 249.838 629.346 L 250.806 631.690 L 251.756 634.018 L 252.687 636.330 L 253.598 638.626 L 254.489 640.905 L 255.359 643.168 L 256.207 645.415 L 257.032 647.646 L 257.834 649.861 L 258.613 652.059 L 259.367 654.241 L 260.097 656.408 L 260.802 658.558 L 261.481 660.693 L 262.135 662.812 L 262.762 664.916 L 263.363 667.004 L 263.938 669.078 L 264.486 671.137 L 265.007 673.181 L 265.501 675.211 L 265.969 677.228 L 266.409 679.232 L 266.822 681.222 L 267.208 683.201 L 267.567 685.167 L 267.898 687.123 L 268.203 689.068 L 268.481 691.003 L 268.732 692.930 L 268.957 694.848 L 269.155 696.759 L 269.326 698.663 L 269.471 700.561 L 269.589 702.455 L 269.681 704.344 L 269.746 706.231 L 269.786 708.116 L 269.801 710.313 L 269.822 711.418 L 269.871 712.521 L 269.946 713.623 L 270.048 714.723 L 270.178 715.819 L 270.334 716.913 L 270.517 718.002 L 270.727 719.086 L 270.963 720.165 L 271.226 721.238 L 271.515 722.304 L 271.830 723.362 L 272.171 724.413 L 272.537 725.455 L 272.929 726.487 L 273.346 727.510 L 273.789 728.522 L 274.255 729.523 L 274.747 730.512 L 275.262 731.489 L 275.802 732.453 L 276.364 733.403 L 276.950 734.339 L 277.559 735.261 L 278.190 736.167 L 278.843 737.058 L 279.518 737.932 L 280.214 738.789 L 280.931 739.629 L 281.668 740.452 L 282.426 741.256 L 283.203 742.041 L 283.998 742.806 L 284.813 743.552 L 285.645 744.278 L 286.495 744.983 L 287.362 745.668 L 288.246 746.330 L 289.145 746.971 L 290.061 747.589 L 290.990 748.185 L 291.935 748.758 L 292.893 749.307 L 293.864 749.833 L 294.848 750.335 L 295.844 750.813 L 296.851 751.265 L 297.869 751.694 L 298.898 752.096 L 299.935 752.474 L 300.982 752.826 L 302.037 753.152 L 303.100 753.452 L 304.170 753.726 L 305.246 753.974 L 306.329 754.195 L 307.416 754.390 L 308.507 754.558 L 309.603 754.699 L 310.701 754.813 L 311.802 754.900 L 312.905 754.960 L 314.009 754.993 L 315.113 754.999 L 316.218 754.978 L 317.321 754.929 L 318.423 754.854 L 319.523 754.752 L 320.619 754.622 L 321.713 754.466 L 322.802 754.283 L 323.886 754.073 L 324.965 753.837 L 326.038 753.574 L 327.104 753.285 L 328.162 752.970 L 329.213 752.629 L 330.255 752.263 L 331.287 751.871 L 332.310 751.454 L 333.322 751.011 L 334.323 750.545 L 335.312 750.053 L 336.289 749.538 L 337.253 748.998 L 338.203 748.436 L 339.139 747.850 L 340.061 747.241 L 340.967 746.610 L 341.858 745.957 L 342.732 745.282 L 343.589 744.586 L 344.429 743.869 L 345.252 743.132 L 346.056 742.374 L 346.841 741.597 L 347.606 740.802 L 348.352 739.987 L 349.078 739.155 L 349.783 738.305 L 350.468 737.438 L 351.130 736.554 L 351.771 735.655 L 352.389 734.739 L 352.985 733.810 L 353.558 732.865 L 354.107 731.907 L 354.633 730.936 L 355.135 729.952 L 355.613 728.956 L 356.065 727.949 L 356.494 726.931 L 356.896 725.902 L 357.274 724.865 L 357.626 723.818 L 357.952 722.763 L 358.252 721.700 L 358.526 720.630 L 358.774 719.554 L 358.995 718.471 L 359.190 717.384 L 359.358 716.293 L 359.499 715.197 L 359.613 714.099 L 359.700 712.998 L 359.760 711.895 L 359.793 710.791 L 359.799 709.687 L 359.781 707.176 L 359.773 706.550 L 359.720 704.039 L 359.703 703.415 L 359.616 700.904 L 359.590 700.282 L 359.467 697.771 L 359.433 697.152 L 359.276 694.642 L 359.234 694.027 L 359.042 691.517 L 358.992 690.907 L 358.766 688.397 L 358.707 687.794 L 358.448 685.283 L 358.382 684.687 L 358.088 682.176 L 358.015 681.588 L 357.688 679.078 L 357.609 678.498 L 357.248 675.987 L 357.162 675.417 L 356.769 672.907 L 356.677 672.346 L 356.252 669.836 L 356.155 669.286 L 355.697 666.776 L 355.595 666.238 L 355.105 663.727 L 355.000 663.201 L 354.479 660.691 L 354.369 660.177 L 353.817 657.667 L 353.705 657.166 L 353.123 654.656 L 353.007 654.169 L 352.396 651.658 L 352.278 651.185 L 351.638 648.675 L 351.519 648.216 L 350.850 645.705 L 350.730 645.261 L 350.034 642.750 L 349.913 642.321 L 349.190 639.810 L 349.068 639.396 L 348.320 636.886 L 348.198 636.487 L 347.424 633.976 L 347.304 633.593 L 346.505 631.082 L 346.386 630.714 L 345.564 628.204 L 345.447 627.852 L 344.601 625.341 L 344.486 625.005 L 343.618 622.495 L 343.506 622.175 L 342.617 619.664 L 342.508 619.360 L 341.599 616.850 L 341.494 616.562 L 340.565 614.051 L 340.463 613.780 L 339.516 611.269 L 339.419 611.014 L 338.454 608.503 L 338.362 608.264 L 337.380 605.754 L 337.293 605.531 L 336.296 603.020 L 336.213 602.813 L 335.202 600.303 L 335.125 600.113 L 334.101 597.602 L 334.029 597.428 L 332.993 594.918 L 332.927 594.760 L 331.880 592.249 L 331.820 592.108 L 330.762 589.597 L 330.709 589.472 L 329.643 586.962 L 329.596 586.853 L 328.522 584.343 L 328.482 584.250 L 327.401 581.740 L 327.368 581.664 L 326.281 579.153 L 326.256 579.094 L 325.165 576.584 L 325.146 576.541 L 324.052 574.030 L 322.945 571.494 L 321.846 568.978 L 320.757 566.483 L 319.677 564.006 L 318.607 561.546 L 317.549 559.103 L 316.504 556.677 L 315.474 554.269 L 314.458 551.880 L 313.459 549.508 L 312.477 547.155 L 311.515 544.820 L 310.572 542.504 L 309.650 540.207 L 308.749 537.930 L 307.872 535.672 L 307.019 533.435 L 306.190 531.217 L 305.387 529.021 L 304.610 526.845 L 303.861 524.690 L 303.140 522.557 L 302.447 520.446 L 301.784 518.356 L 301.150 516.289 L 300.547 514.245 L 299.975 512.223 L 299.434 510.224 L 298.925 508.248 L 298.448 506.295 L 298.002 504.364 L 297.589 502.457 L 297.209 500.573 L 296.861 498.711 L 296.545 496.871 L 296.261 495.053 L 296.011 493.257 L 295.792 491.481 L 295.605 489.725 L 295.450 487.989 L 295.328 486.271 L 295.236 484.570 L 295.177 482.886 L 295.149 481.216 L 295.152 479.560 L 295.187 477.916 L 295.253 476.283 L 295.351 474.658 L 295.481 473.041 L 295.643 471.430 L 295.837 469.822 L 296.064 468.216 L 296.324 466.610 L 296.619 465.002 L 296.948 463.391 L 297.313 461.775 L 297.714 460.151 L 298.153 458.519 L 298.630 456.876 L 299.146 455.222 L 299.704 453.555 L 300.303 451.873 L 300.945 450.175 L 301.631 448.461 L 302.363 446.730 L 303.141 444.980 L 303.967 443.211 L 304.841 441.423 L 305.766 439.614 L 306.741 437.785 L 307.768 435.936 L 308.847 434.066 L 309.980 432.174 L 311.166 430.263 L 312.408 428.330 L 313.704 426.377 L 315.056 424.404 L 316.464 422.411 L 317.928 420.398 L 319.449 418.366 L 321.026 416.315 L 322.659 414.246 L 324.348 412.159 L 326.093 410.054 L 327.895 407.932 L 329.751 405.794 L 331.663 403.639 L 333.629 401.469 L 335.649 399.284 L 337.722 397.084 L 339.848 394.871 L 342.026 392.643 L 344.255 390.402 L 346.534 388.149 L 348.862 385.883 L 351.239 383.605 L 353.663 381.315 L 356.133 379.015 L 358.648 376.703 L 361.207 374.381 L 363.809 372.049 L 366.453 369.707 L 369.137 367.355 L 371.860 364.995 L 374.621 362.625 L 377.418 360.246 L 380.250 357.859 L 383.116 355.464 L 386.015 353.061 L 388.944 350.650 L 391.903 348.231 L 394.890 345.805 L 397.903 343.371 L 400.942 340.930 L 404.004 338.482 L 407.088 336.026 L 410.192 333.564 L 413.316 331.095 L 416.456 328.619 L 419.613 326.136 L 422.784 323.647 L 425.968 321.151 L 429.163 318.648 L 432.366 316.139 L 435.574 313.626 L 438.788 311.107 L 442.008 308.580 L 445.231 306.047 L 445.269 306.017 L 448.455 303.506 L 448.502 303.469 L 451.680 300.959 L 451.735 300.914 L 454.903 298.404 L 454.968 298.353 L 458.123 295.842 L 458.197 295.783 L 461.339 293.273 L 461.422 293.206 L 464.549 290.696 L 464.641 290.621 L 467.751 288.111 L 467.852 288.029 L 470.944 285.518 L 471.055 285.428 L 474.126 282.917 L 474.247 282.818 L 477.297 280.308 L 477.427 280.200 L 480.453 277.690 L 480.593 277.573 L 483.595 275.063 L 483.745 274.937 L 486.720 272.426 L 486.880 272.291 L 489.827 269.780 L 489.997 269.635 L 492.915 267.124 L 493.095 266.968 L 495.982 264.458 L 496.173 264.291 L 499.027 261.780 L 499.228 261.603 L 502.048 259.092 L 502.260 258.902 L 505.044 256.392 L 505.267 256.190 L 508.014 253.680 L 508.247 253.465 L 510.956 250.954 L 511.200 250.726 L 513.869 248.216 L 514.124 247.974 L 516.751 245.463 L 517.018 245.207 L 519.602 242.696 L 519.879 242.424 L 522.420 239.914 L 522.708 239.626 L 525.203 237.115 L 525.503 236.811 L 527.950 234.300 L 528.261 233.978 L 530.661 231.467 L 530.983 231.126 L 533.333 228.616 L 533.666 228.256 L 535.965 225.745 L 536.309 225.365 L 538.556 222.854 L 538.911 222.452 L 541.105 219.942 L 541.471 219.518 L 543.610 217.007 L 543.986 216.560 L 546.069 214.049 L 546.455 213.577 L 548.482 211.067 L 548.877 210.569 L 550.846 208.058 L 551.251 207.534 L 553.160 205.024 L 553.573 204.471 L 555.423 201.961 L 555.844 201.380 L 557.632 198.869 L 558.060 198.258 L 559.786 195.747 L 560.220 195.104 L 561.883 192.594 L 562.322 191.918 L 563.921 189.408 L 564.364 188.699 L 565.898 186.189 L 566.343 185.445 L 567.812 182.935 L 568.257 182.156 L 569.660 179.645 L 570.104 178.830 L 571.439 176.320 L 571.881 175.468 L 573.148 172.957 L 573.585 172.067 L 574.784 169.557 L 575.214 168.630 L 576.343 166.119 L 576.764 165.154 L 577.823 162.643 L 578.233 161.640 L 579.222 159.130 L 579.617 158.089 L 580.535 155.579 L 580.913 154.502 L 581.759 151.991 L 582.118 150.879 L 582.893 148.368 L 583.230 147.221 L 583.932 144.711 L 584.244 143.532 L 584.873 141.021 L 585.159 139.812 L 585.715 137.302 L 585.970 136.065 L 586.453 133.554 L 586.677 132.292 L 587.085 129.782 L 587.275 128.498 L 587.610 125.988 L 587.764 124.686 L 588.025 122.175 L 588.142 120.859 L 588.328 118.349 L 588.407 117.022 L 588.518 114.511 L 588.558 113.178 L 588.595 110.668 L 588.598 109.563 L 588.574 108.459 L 588.522 107.356 L 588.444 106.254 L 588.338 105.155 L 588.206 104.058 L 588.047 102.965 L 587.861 101.877 L 587.648 100.793 L 587.409 99.715 L 587.143 98.643 L 586.851 97.578 L 586.533 96.520 L 586.190 95.470 L 585.820 94.429 L 585.425 93.398 L 585.005 92.377 L 584.560 91.366 L 584.091 90.366 L 583.597 89.378 L 583.079 88.403 L 582.537 87.441 L 581.971 86.492 L 581.383 85.557 L 580.772 84.637 L 580.138 83.733 L 579.482 82.844 L 578.805 81.972 L 578.107 81.116 L 577.387 80.278 L 576.648 79.458 L 575.888 78.656 L 575.109 77.873 L 574.312 77.109 L 573.495 76.365 L 572.661 75.642 L 571.809 74.939 L 570.940 74.257 L 570.054 73.597 L 569.153 72.959 L 568.236 72.343 L 567.305 71.750 L 566.359 71.179 L 565.399 70.633 L 564.427 70.110 L 563.441 69.610 L 562.444 69.136 L 561.436 68.685 L 560.416 68.260 L 559.387 67.860 L 558.348 67.485 L 557.300 67.136 L 556.244 66.813 L 555.181 66.516 L 554.110 66.245 L 553.033 66.000 L 551.950 65.782 L 550.863 65.590 L 549.770 65.425 L 548.675 65.287 L 547.576 65.176 L 546.475 65.092 L 545.372 65.035 L 544.268 65.005 L 543.163 65.002 L 542.059 65.026 L 540.956 65.078 L 539.854 65.156 L 538.755 65.262 L 537.658 65.394 L 536.565 65.553 L 535.477 65.739 L 534.393 65.952 L 533.315 66.191 L 532.243 66.457 L 531.178 66.749 L 530.120 67.067 L 529.070 67.410 L 528.029 67.780 L 526.998 68.175 L 525.977 68.595 L 524.966 69.040 L 523.966 69.509 L 522.978 70.003 L 522.003 70.521 L 521.041 71.063 L 520.092 71.629 L 519.157 72.217 L 518.237 72.828 L 517.333 73.462 L 516.444 74.118 L 515.572 74.795 L 514.716 75.493 L 513.878 76.213 L 513.058 76.952 L 512.256 77.712 L 511.473 78.491 L 510.709 79.288 L 509.965 80.105 L 509.242 80.939 L 508.539 81.791 L 507.857 82.660 L 507.197 83.546 L 506.559 84.447 L 505.943 85.364 L 505.350 86.295 L 504.779 87.241 L 504.233 88.201 L 503.710 89.173 L 503.210 90.159 L 502.736 91.156 L 502.285 92.164 L 501.860 93.184 L 501.460 94.213 L 501.085 95.252 L 500.736 96.300 L 500.413 97.356 L 500.116 98.419 L 499.845 99.490 L 499.600 100.567 L 499.382 101.650 L 499.190 102.737 L 499.025 103.830 L 498.887 104.925 L 498.776 106.024 L 498.692 107.125 L 498.635 108.228 L 498.605 109.332 L 498.578 111.176 Z" fill="black" fill-rule="evenodd"/>
</svg>
