<svg xmlns="http://www.w3.org/2000/svg" viewBox="0 0 700.000 1000">
  <path d="M 481.719 65.025 L 481.025 65.036 L 478.048 65.105 L 477.380 65.126 L 474.351 65.242 L 473.706 65.271 L 470.628 65.433 L 470.005 65.470 L 466.878 65.678 L 466.275 65.722 L 463.103 65.976 L 462.518 66.027 L 459.302 66.326 L 458.733 66.383 L 455.475 66.728 L 454.922 66.790 L 451.623 67.181 L 451.084 67.248 L 447.748 67.685 L 447.221 67.757 L 443.849 68.239 L 443.333 68.315 L 439.927 68.842 L 439.421 68.923 L 435.983 69.495 L 435.486 69.581 L 432.018 70.198 L 431.530 70.287 L 428.034 70.949 L 427.553 71.043 L 424.031 71.749 L 423.557 71.847 L 420.011 72.598 L 419.542 72.700 L 415.974 73.496 L 415.510 73.602 L 411.922 74.442 L 411.463 74.552 L 407.856 75.437 L 407.401 75.551 L 403.778 76.479 L 403.325 76.598 L 399.689 77.571 L 399.239 77.694 L 395.590 78.710 L 395.142 78.838 L 391.483 79.898 L 391.036 80.030 L 387.369 81.134 L 386.922 81.271 L 383.249 82.419 L 382.803 82.561 L 379.126 83.752 L 378.679 83.899 L 375.000 85.133 L 374.553 85.286 L 370.873 86.564 L 370.425 86.722 L 366.747 88.043 L 366.297 88.207 L 362.623 89.571 L 362.171 89.741 L 358.502 91.148 L 358.048 91.325 L 354.387 92.775 L 353.930 92.959 L 350.279 94.451 L 349.818 94.642 L 346.179 96.177 L 345.714 96.376 L 342.089 97.953 L 341.620 98.160 L 338.011 99.779 L 337.538 99.994 L 333.946 101.656 L 333.468 101.880 L 329.896 103.584 L 329.413 103.818 L 325.862 105.563 L 325.374 105.807 L 321.846 107.594 L 321.352 107.849 L 317.851 109.678 L 317.351 109.943 L 313.877 111.814 L 313.370 112.091 L 309.926 114.003 L 309.412 114.292 L 306.000 116.246 L 305.479 116.548 L 302.100 118.543 L 301.573 118.859 L 298.229 120.895 L 297.694 121.225 L 294.388 123.302 L 293.846 123.648 L 290.579 125.766 L 290.029 126.128 L 286.804 128.287 L 286.246 128.666 L 283.064 130.866 L 282.499 131.263 L 279.362 133.503 L 278.789 133.920 L 275.700 136.200 L 275.118 136.636 L 272.078 138.957 L 271.489 139.415 L 268.501 141.776 L 267.904 142.256 L 264.969 144.657 L 264.364 145.160 L 261.485 147.601 L 260.873 148.129 L 258.051 150.610 L 257.432 151.164 L 254.669 153.685 L 254.044 154.266 L 251.343 156.827 L 250.712 157.436 L 248.073 160.036 L 247.437 160.676 L 244.864 163.315 L 244.224 163.986 L 241.718 166.664 L 241.074 167.367 L 238.638 170.085 L 237.991 170.822 L 235.626 173.578 L 234.979 174.350 L 232.687 177.146 L 232.040 177.954 L 229.823 180.788 L 229.178 181.634 L 227.038 184.507 L 226.397 185.390 L 224.336 188.302 L 223.700 189.225 L 221.721 192.175 L 221.093 193.138 L 219.197 196.126 L 218.579 197.130 L 216.768 200.157 L 216.162 201.201 L 214.438 204.266 L 213.847 205.351 L 212.212 208.454 L 211.639 209.580 L 210.095 212.721 L 209.543 213.887 L 208.092 217.065 L 207.563 218.271 L 206.208 221.487 L 205.705 222.731 L 204.447 225.985 L 203.974 227.266 L 202.814 230.557 L 202.373 231.872 L 201.315 235.201 L 200.909 236.549 L 199.954 239.914 L 199.586 241.292 L 198.736 244.695 L 198.409 246.099 L 197.665 249.539 L 197.381 250.966 L 196.746 254.442 L 196.506 255.889 L 195.983 259.402 L 195.789 260.864 L 195.379 264.414 L 195.233 265.887 L 194.937 269.473 L 194.839 270.952 L 194.660 274.575 L 194.612 276.056 L 194.552 279.716 L 194.553 281.277 L 194.636 285.818 L 194.659 286.657 L 194.698 287.496 L 194.945 291.925 L 195.001 292.783 L 195.073 293.638 L 195.479 297.959 L 195.570 298.829 L 195.677 299.697 L 196.240 303.912 L 196.366 304.791 L 196.509 305.667 L 197.224 309.778 L 197.387 310.661 L 197.567 311.541 L 198.430 315.551 L 198.630 316.433 L 198.846 317.311 L 199.855 321.222 L 200.090 322.097 L 200.343 322.968 L 201.492 326.783 L 201.762 327.648 L 202.049 328.507 L 203.335 332.227 L 203.638 333.076 L 203.958 333.917 L 205.377 337.547 L 205.710 338.374 L 206.060 339.194 L 207.609 342.736 L 207.969 343.537 L 208.345 344.332 L 210.021 347.787 L 210.405 348.559 L 210.803 349.325 L 212.601 352.696 L 213.005 353.437 L 213.423 354.169 L 215.339 357.460 L 216.191 358.864 L 218.222 362.075 L 219.098 363.407 L 221.240 366.543 L 222.131 367.800 L 224.380 370.861 L 225.278 372.043 L 227.631 375.033 L 228.530 376.140 L 230.982 379.061 L 231.874 380.093 L 234.422 382.948 L 235.303 383.907 L 237.943 386.699 L 238.807 387.587 L 241.535 390.318 L 242.377 391.139 L 245.190 393.810 L 246.006 394.567 L 248.900 397.182 L 249.688 397.877 L 252.659 400.439 L 253.414 401.076 L 256.459 403.587 L 257.181 404.170 L 260.295 406.632 L 260.981 407.164 L 264.161 409.580 L 264.811 410.064 L 268.053 412.436 L 268.665 412.876 L 271.965 415.207 L 272.539 415.606 L 275.894 417.897 L 276.430 418.258 L 279.835 420.513 L 280.331 420.837 L 283.784 423.059 L 284.241 423.350 L 287.737 425.540 L 288.156 425.800 L 291.691 427.961 L 292.071 428.191 L 295.642 430.327 L 295.983 430.529 L 299.586 432.640 L 299.889 432.816 L 303.520 434.907 L 303.785 435.058 L 307.440 437.129 L 307.667 437.257 L 311.343 439.312 L 311.533 439.418 L 315.225 441.459 L 315.377 441.543 L 319.083 443.573 L 319.198 443.635 L 322.913 445.656 L 322.990 445.698 L 326.712 447.713 L 326.751 447.735 L 330.474 449.746 L 334.181 451.748 L 337.843 453.730 L 341.458 455.695 L 345.022 457.645 L 348.532 459.582 L 351.982 461.509 L 355.370 463.425 L 358.690 465.333 L 361.939 467.234 L 365.113 469.128 L 368.207 471.017 L 371.218 472.900 L 374.141 474.779 L 376.972 476.652 L 379.708 478.520 L 382.346 480.383 L 384.881 482.239 L 387.311 484.087 L 389.633 485.927 L 391.845 487.758 L 393.945 489.577 L 395.932 491.384 L 397.805 493.176 L 399.564 494.954 L 401.210 496.715 L 402.745 498.460 L 404.171 500.188 L 405.491 501.901 L 406.711 503.601 L 407.833 505.289 L 408.863 506.972 L 409.806 508.654 L 410.668 510.344 L 411.453 512.050 L 412.167 513.782 L 412.811 515.553 L 413.389 517.375 L 413.901 519.262 L 414.347 521.228 L 414.724 523.288 L 415.028 525.455 L 415.255 527.743 L 415.397 530.165 L 415.449 532.857 L 415.411 535.619 L 415.296 538.449 L 415.107 541.221 L 414.846 543.937 L 414.515 546.600 L 414.117 549.213 L 413.651 551.778 L 413.121 554.298 L 412.527 556.776 L 411.869 559.216 L 411.149 561.618 L 410.367 563.987 L 409.524 566.323 L 408.618 568.631 L 407.652 570.910 L 406.624 573.164 L 405.534 575.394 L 404.382 577.602 L 403.168 579.787 L 401.892 581.953 L 400.553 584.098 L 399.152 586.225 L 397.688 588.333 L 396.160 590.422 L 394.570 592.494 L 392.917 594.547 L 391.201 596.581 L 389.422 598.597 L 387.581 600.594 L 385.678 602.571 L 383.714 604.528 L 381.690 606.464 L 379.605 608.379 L 377.461 610.272 L 375.260 612.142 L 373.001 613.989 L 370.686 615.811 L 368.316 617.609 L 365.893 619.381 L 363.417 621.126 L 360.890 622.844 L 358.314 624.534 L 355.691 626.196 L 353.020 627.829 L 350.305 629.432 L 347.547 631.004 L 344.747 632.545 L 341.908 634.054 L 339.030 635.532 L 336.117 636.976 L 333.168 638.388 L 330.188 639.765 L 327.176 641.109 L 324.136 642.418 L 321.068 643.692 L 317.976 644.931 L 314.860 646.135 L 311.723 647.302 L 308.567 648.433 L 305.393 649.528 L 302.204 650.587 L 299.002 651.608 L 295.788 652.592 L 292.564 653.539 L 289.334 654.449 L 286.097 655.321 L 282.858 656.156 L 279.617 656.952 L 276.376 657.711 L 273.139 658.432 L 269.906 659.116 L 266.680 659.761 L 263.463 660.368 L 260.258 660.937 L 257.065 661.468 L 253.888 661.962 L 250.728 662.418 L 247.589 662.836 L 244.471 663.216 L 241.377 663.559 L 238.309 663.865 L 235.271 664.134 L 232.263 664.366 L 229.289 664.561 L 226.350 664.720 L 223.449 664.843 L 220.589 664.930 L 217.773 664.982 L 214.720 665.001 L 213.616 665.021 L 212.513 665.069 L 211.411 665.143 L 210.311 665.245 L 209.214 665.374 L 208.121 665.529 L 207.031 665.711 L 205.947 665.920 L 204.868 666.156 L 203.795 666.417 L 202.729 666.705 L 201.670 667.020 L 200.619 667.360 L 199.577 667.726 L 198.544 668.117 L 197.521 668.533 L 196.509 668.975 L 195.508 669.441 L 194.518 669.931 L 193.541 670.446 L 192.577 670.985 L 191.626 671.547 L 190.689 672.132 L 189.767 672.740 L 188.861 673.370 L 187.969 674.023 L 187.095 674.697 L 186.237 675.393 L 185.396 676.109 L 184.573 676.846 L 183.769 677.602 L 182.983 678.379 L 182.217 679.174 L 181.470 679.988 L 180.744 680.820 L 180.038 681.669 L 179.353 682.536 L 178.690 683.419 L 178.048 684.318 L 177.429 685.232 L 176.833 686.162 L 176.259 687.106 L 175.709 688.063 L 175.183 689.034 L 174.680 690.018 L 174.202 691.013 L 173.748 692.020 L 173.319 693.038 L 172.916 694.066 L 172.537 695.104 L 172.184 696.150 L 171.857 697.205 L 171.556 698.268 L 171.281 699.337 L 171.033 700.413 L 170.811 701.495 L 170.616 702.582 L 170.447 703.674 L 170.305 704.769 L 170.190 705.868 L 170.102 706.969 L 170.041 708.071 L 170.008 709.175 L 170.001 710.280 L 170.021 711.384 L 170.069 712.487 L 170.143 713.589 L 170.245 714.689 L 170.374 715.786 L 170.529 716.879 L 170.711 717.969 L 170.920 719.053 L 171.156 720.132 L 171.417 721.205 L 171.705 722.271 L 172.020 723.330 L 172.360 724.381 L 172.726 725.423 L 173.117 726.456 L 173.533 727.479 L 173.975 728.491 L 174.441 729.492 L 174.931 730.482 L 175.446 731.459 L 175.985 732.423 L 176.547 733.374 L 177.132 734.311 L 177.740 735.233 L 178.370 736.139 L 179.023 737.031 L 179.697 737.905 L 180.393 738.763 L 181.109 739.604 L 181.846 740.427 L 182.602 741.231 L 183.379 742.017 L 184.174 742.783 L 184.988 743.530 L 185.820 744.256 L 186.669 744.962 L 187.536 745.647 L 188.419 746.310 L 189.318 746.952 L 190.232 747.571 L 191.162 748.167 L 192.106 748.741 L 193.063 749.291 L 194.034 749.817 L 195.018 750.320 L 196.013 750.798 L 197.020 751.252 L 198.038 751.681 L 199.066 752.084 L 200.104 752.463 L 201.150 752.816 L 202.205 753.143 L 203.268 753.444 L 204.337 753.719 L 205.413 753.967 L 206.495 754.189 L 207.582 754.384 L 208.674 754.553 L 209.769 754.695 L 210.868 754.810 L 211.969 754.898 L 213.071 754.959 L 214.175 754.992 L 215.280 754.999 L 218.607 754.978 L 219.159 754.972 L 222.522 754.910 L 223.064 754.896 L 226.461 754.793 L 226.994 754.773 L 230.423 754.628 L 230.948 754.603 L 234.408 754.415 L 234.925 754.384 L 238.414 754.155 L 238.925 754.119 L 242.441 753.848 L 242.946 753.806 L 246.487 753.493 L 246.987 753.446 L 250.552 753.091 L 251.048 753.038 L 254.635 752.641 L 255.126 752.583 L 258.734 752.143 L 259.222 752.081 L 262.849 751.598 L 263.334 751.531 L 266.978 751.005 L 267.461 750.933 L 271.120 750.365 L 271.601 750.287 L 275.274 749.676 L 275.753 749.593 L 279.438 748.939 L 279.917 748.851 L 283.613 748.154 L 284.091 748.061 L 287.795 747.320 L 288.274 747.222 L 291.985 746.437 L 292.464 746.333 L 296.181 745.506 L 296.660 745.396 L 300.381 744.525 L 300.862 744.409 L 304.585 743.494 L 305.067 743.373 L 308.790 742.414 L 309.274 742.286 L 312.996 741.283 L 313.483 741.149 L 317.202 740.102 L 317.691 739.961 L 321.406 738.870 L 321.898 738.722 L 325.606 737.586 L 326.102 737.431 L 329.802 736.251 L 330.301 736.089 L 333.992 734.864 L 334.495 734.694 L 338.174 733.424 L 338.682 733.246 L 342.348 731.932 L 342.860 731.745 L 346.512 730.386 L 347.029 730.189 L 350.664 728.785 L 351.187 728.580 L 354.804 727.131 L 355.331 726.915 L 358.929 725.421 L 359.462 725.196 L 363.039 723.656 L 363.577 723.419 L 367.131 721.834 L 367.676 721.587 L 371.205 719.956 L 371.756 719.696 L 375.258 718.020 L 375.816 717.748 L 379.290 716.025 L 379.854 715.741 L 383.299 713.972 L 383.869 713.674 L 387.283 711.860 L 387.860 711.547 L 391.240 709.687 L 391.825 709.359 L 395.170 707.452 L 395.761 707.109 L 399.071 705.156 L 399.668 704.797 L 402.940 702.797 L 403.544 702.421 L 406.776 700.374 L 407.387 699.980 L 410.577 697.887 L 411.195 697.474 L 414.342 695.334 L 414.966 694.902 L 418.068 692.714 L 418.698 692.262 L 421.754 690.028 L 422.390 689.554 L 425.398 687.272 L 426.039 686.777 L 428.998 684.448 L 429.644 683.930 L 432.551 681.553 L 433.201 681.012 L 436.055 678.587 L 436.709 678.021 L 439.508 675.549 L 440.165 674.957 L 442.908 672.438 L 443.567 671.820 L 446.252 669.252 L 446.913 668.607 L 449.538 665.992 L 450.199 665.319 L 452.762 662.655 L 453.422 661.954 L 455.923 659.242 L 456.581 658.512 L 459.017 655.752 L 459.672 654.992 L 462.042 652.183 L 462.693 651.394 L 464.994 648.536 L 465.638 647.716 L 467.870 644.810 L 468.507 643.960 L 470.667 641.004 L 471.295 640.123 L 473.382 637.119 L 473.999 636.208 L 476.011 633.154 L 476.615 632.212 L 478.550 629.110 L 479.140 628.138 L 480.997 624.986 L 481.570 623.985 L 483.348 620.784 L 483.902 619.754 L 485.599 616.503 L 486.133 615.446 L 487.746 612.146 L 488.258 611.062 L 489.786 607.712 L 490.274 606.603 L 491.716 603.203 L 492.178 602.071 L 493.531 598.620 L 493.966 597.467 L 495.230 593.966 L 495.635 592.793 L 496.807 589.243 L 497.182 588.052 L 498.261 584.451 L 498.604 583.245 L 499.589 579.594 L 499.899 578.375 L 500.787 574.673 L 501.063 573.445 L 501.853 569.692 L 502.095 568.456 L 502.785 564.652 L 502.992 563.412 L 503.580 559.557 L 503.752 558.314 L 504.237 554.408 L 504.374 553.166 L 504.754 549.209 L 504.856 547.971 L 505.129 543.962 L 505.196 542.730 L 505.362 538.670 L 505.395 537.446 L 505.450 533.335 L 505.446 531.861 L 505.363 527.548 L 505.337 526.664 L 505.294 525.781 L 505.048 521.574 L 504.986 520.672 L 504.906 519.772 L 504.499 515.669 L 504.399 514.754 L 504.281 513.842 L 503.718 509.839 L 503.579 508.917 L 503.420 507.997 L 502.705 504.093 L 502.526 503.169 L 502.328 502.248 L 501.464 498.440 L 501.245 497.519 L 501.007 496.603 L 499.999 492.889 L 499.741 491.978 L 499.465 491.072 L 498.316 487.449 L 498.021 486.553 L 497.708 485.664 L 496.422 482.129 L 496.093 481.254 L 495.746 480.386 L 494.327 476.937 L 493.967 476.089 L 493.590 475.247 L 492.041 471.882 L 491.654 471.063 L 491.251 470.253 L 489.575 466.968 L 489.165 466.184 L 488.740 465.408 L 486.942 462.202 L 486.514 461.454 L 486.071 460.715 L 484.155 457.585 L 483.712 456.877 L 483.256 456.177 L 481.225 453.121 L 480.308 451.793 L 478.167 448.808 L 477.240 447.562 L 474.991 444.645 L 474.063 443.482 L 471.711 440.631 L 470.788 439.549 L 468.336 436.761 L 467.427 435.758 L 464.879 433.032 L 463.987 432.104 L 461.347 429.437 L 460.478 428.582 L 457.750 425.971 L 456.909 425.186 L 454.096 422.628 L 453.285 421.909 L 450.391 419.401 L 449.615 418.744 L 446.644 416.285 L 445.903 415.686 L 442.859 413.273 L 442.156 412.728 L 439.042 410.359 L 438.379 409.863 L 435.199 407.536 L 434.575 407.087 L 431.333 404.798 L 430.749 404.392 L 427.449 402.139 L 426.906 401.774 L 423.552 399.555 L 423.049 399.227 L 419.644 397.039 L 419.182 396.746 L 415.730 394.586 L 415.309 394.326 L 411.813 392.192 L 411.432 391.962 L 407.897 389.852 L 407.556 389.650 L 403.985 387.561 L 403.683 387.386 L 400.080 385.316 L 399.818 385.166 L 396.187 383.112 L 395.963 382.986 L 392.307 380.946 L 392.122 380.843 L 388.446 378.813 L 388.298 378.732 L 384.605 376.712 L 384.495 376.652 L 380.789 374.637 L 380.717 374.598 L 377.002 372.587 L 373.247 370.559 L 369.545 368.560 L 365.883 366.577 L 362.263 364.607 L 358.690 362.650 L 355.168 360.703 L 351.700 358.764 L 348.291 356.832 L 344.944 354.906 L 341.664 352.983 L 338.454 351.063 L 335.318 349.146 L 332.261 347.230 L 329.286 345.316 L 326.397 343.402 L 323.598 341.490 L 320.892 339.579 L 318.282 337.669 L 315.771 335.761 L 313.362 333.857 L 311.057 331.956 L 308.858 330.060 L 306.767 328.170 L 304.783 326.286 L 302.908 324.410 L 301.141 322.541 L 299.481 320.681 L 297.926 318.828 L 296.473 316.981 L 295.120 315.139 L 293.862 313.298 L 292.697 311.455 L 291.619 309.604 L 290.624 307.738 L 289.708 305.851 L 288.869 303.932 L 288.102 301.971 L 287.406 299.957 L 286.779 297.878 L 286.223 295.722 L 285.740 293.475 L 285.331 291.124 L 285.002 288.658 L 284.758 286.064 L 284.606 283.332 L 284.552 280.413 L 284.587 278.275 L 284.693 276.133 L 284.867 274.023 L 285.108 271.941 L 285.415 269.882 L 285.787 267.842 L 286.225 265.819 L 286.728 263.807 L 287.296 261.804 L 287.931 259.807 L 288.633 257.814 L 289.403 255.823 L 290.243 253.832 L 291.152 251.839 L 292.132 249.845 L 293.185 247.847 L 294.310 245.847 L 295.508 243.844 L 296.780 241.839 L 298.127 239.831 L 299.548 237.823 L 301.044 235.814 L 302.614 233.806 L 304.259 231.800 L 305.977 229.798 L 307.768 227.800 L 309.631 225.809 L 311.565 223.825 L 313.569 221.850 L 315.643 219.885 L 317.783 217.932 L 319.990 215.992 L 322.261 214.067 L 324.595 212.158 L 326.990 210.265 L 329.444 208.392 L 331.955 206.538 L 334.522 204.705 L 337.142 202.894 L 339.814 201.106 L 342.534 199.342 L 345.302 197.603 L 348.115 195.891 L 350.970 194.205 L 353.867 192.547 L 356.801 190.918 L 359.771 189.319 L 362.776 187.750 L 365.812 186.211 L 368.877 184.705 L 371.968 183.230 L 375.085 181.789 L 378.224 180.381 L 381.382 179.007 L 384.559 177.667 L 387.750 176.363 L 390.954 175.094 L 394.169 173.862 L 397.391 172.665 L 400.619 171.506 L 403.851 170.384 L 407.083 169.300 L 410.313 168.253 L 413.539 167.245 L 416.759 166.276 L 419.969 165.346 L 423.168 164.454 L 426.353 163.603 L 429.520 162.791 L 432.669 162.019 L 435.795 161.287 L 438.897 160.595 L 441.971 159.944 L 445.015 159.333 L 448.026 158.763 L 451.001 158.234 L 453.938 157.745 L 456.833 157.297 L 459.684 156.890 L 462.486 156.524 L 465.238 156.198 L 467.935 155.912 L 470.575 155.666 L 473.154 155.459 L 475.667 155.292 L 478.112 155.163 L 480.485 155.073 L 482.781 155.019 L 485.357 154.999 L 486.462 154.976 L 487.565 154.927 L 488.667 154.850 L 489.766 154.747 L 490.863 154.616 L 491.956 154.459 L 493.045 154.275 L 494.129 154.064 L 495.208 153.827 L 496.280 153.563 L 497.346 153.273 L 498.404 152.957 L 499.455 152.615 L 500.496 152.248 L 501.528 151.855 L 502.550 151.436 L 503.562 150.993 L 504.562 150.525 L 505.551 150.033 L 506.527 149.517 L 507.491 148.976 L 508.440 148.413 L 509.376 147.826 L 510.297 147.216 L 511.203 146.584 L 512.093 145.930 L 512.966 145.255 L 513.823 144.558 L 514.663 143.840 L 515.484 143.102 L 516.287 142.344 L 517.072 141.566 L 517.837 140.769 L 518.582 139.954 L 519.307 139.121 L 520.011 138.270 L 520.694 137.403 L 521.356 136.519 L 521.996 135.618 L 522.614 134.703 L 523.208 133.772 L 523.780 132.827 L 524.329 131.869 L 524.854 130.897 L 525.355 129.913 L 525.831 128.916 L 526.283 127.909 L 526.710 126.890 L 527.112 125.861 L 527.489 124.823 L 527.840 123.776 L 528.165 122.720 L 528.464 121.657 L 528.737 120.587 L 528.984 119.510 L 529.204 118.428 L 529.397 117.341 L 529.564 116.249 L 529.704 115.154 L 529.817 114.055 L 529.903 112.954 L 529.962 111.851 L 529.994 110.747 L 529.999 109.643 L 529.976 108.538 L 529.927 107.435 L 529.850 106.333 L 529.747 105.234 L 529.616 104.137 L 529.459 103.044 L 529.275 101.955 L 529.064 100.871 L 528.827 99.792 L 528.563 98.720 L 528.273 97.654 L 527.957 96.596 L 527.615 95.545 L 527.248 94.504 L 526.855 93.472 L 526.436 92.450 L 525.993 91.438 L 525.525 90.438 L 525.033 89.449 L 524.517 88.473 L 523.976 87.509 L 523.413 86.560 L 522.826 85.624 L 522.216 84.703 L 521.584 83.797 L 520.930 82.907 L 520.255 82.034 L 519.558 81.177 L 518.840 80.337 L 518.102 79.516 L 517.344 78.713 L 516.566 77.928 L 515.769 77.163 L 514.954 76.418 L 514.121 75.693 L 513.270 74.989 L 512.403 74.306 L 511.519 73.644 L 510.618 73.004 L 509.703 72.386 L 508.772 71.792 L 507.827 71.220 L 506.869 70.671 L 505.897 70.146 L 504.913 69.645 L 503.916 69.169 L 502.909 68.717 L 501.890 68.290 L 500.861 67.888 L 499.823 67.511 L 498.776 67.160 L 497.720 66.835 L 496.657 66.536 L 495.587 66.263 L 494.510 66.016 L 493.428 65.796 L 492.341 65.603 L 491.249 65.436 L 490.154 65.296 L 489.055 65.183 L 487.954 65.097 L 486.851 65.038 L 485.747 65.006 L 484.643 65.001 L 481.719 65.025 Z" fill="black" fill-rule="evenodd"/>
</svg>
