<svg xmlns="http://www.w3.org/2000/svg" viewBox="0 0 700.000 1000.000">
  <path d="M 395.000,780.000 L 394.946,782.208 L 394.783,784.411 L 394.513,786.603 L 394.135,788.779 L 393.651,790.934 L 393.062,793.063 L 392.369,795.160 L 391.575,797.221 L 390.680,799.240 L 389.686,801.213 L 388.598,803.135 L 387.416,805.001 L 386.144,806.806 L 384.785,808.548 L 383.343,810.220 L 381.820,811.820 L 380.220,813.343 L 378.548,814.785 L 376.806,816.144 L 375.001,817.416 L 373.135,818.598 L 371.213,819.686 L 369.240,820.680 L 367.221,821.575 L 365.160,822.369 L 363.063,823.062 L 360.934,823.651 L 358.779,824.135 L 356.603,824.513 L 354.411,824.783 L 352.208,824.946 L 350.000,825.000 L 347.792,824.946 L 345.589,824.783 L 343.397,824.513 L 341.221,824.135 L 339.066,823.651 L 336.937,823.062 L 334.840,822.369 L 332.779,821.575 L 330.760,820.680 L 328.787,819.686 L 326.865,818.598 L 324.999,817.416 L 323.194,816.144 L 321.452,814.785 L 319.780,813.343 L 318.180,811.820 L 316.657,810.220 L 315.215,808.548 L 313.856,806.806 L 312.584,805.001 L 311.402,803.135 L 310.314,801.213 L 309.320,799.240 L 308.425,797.221 L 307.631,795.160 L 306.938,793.063 L 306.349,790.934 L 305.865,788.779 L 305.487,786.603 L 305.217,784.411 L 305.054,782.208 L 305.000,780.000 L 305.000,85.000 L 90.000,85.000 L 87.792,84.946 L 85.589,84.783 L 83.397,84.513 L 81.221,84.135 L 79.066,83.651 L 76.937,83.062 L 74.840,82.369 L 72.779,81.575 L 70.760,80.680 L 68.787,79.686 L 66.865,78.598 L 64.999,77.416 L 63.194,76.144 L 61.452,74.785 L 59.780,73.343 L 58.180,71.820 L 56.657,70.220 L 55.215,68.548 L 53.856,66.806 L 52.584,65.001 L 51.402,63.135 L 50.314,61.213 L 49.320,59.240 L 48.425,57.221 L 47.631,55.160 L 46.938,53.063 L 46.349,50.934 L 45.865,48.779 L 45.487,46.603 L 45.217,44.411 L 45.054,42.208 L 45.000,40.000 L 45.054,37.792 L 45.217,35.589 L 45.487,33.397 L 45.865,31.221 L 46.349,29.066 L 46.938,26.937 L 47.631,24.840 L 48.425,22.779 L 49.320,20.760 L 50.314,18.787 L 51.402,16.865 L 52.584,14.999 L 53.856,13.194 L 55.215,11.452 L 56.657,9.780 L 58.180,8.180 L 59.780,6.657 L 61.452,5.215 L 63.194,3.856 L 64.999,2.584 L 66.865,1.402 L 68.787,0.314 L 70.760,-0.680 L 72.779,-1.575 L 74.840,-2.369 L 76.937,-3.062 L 79.066,-3.651 L 81.221,-4.135 L 83.397,-4.513 L 85.589,-4.783 L 87.792,-4.946 L 90.000,-5.000 L 350.000,-5.000 L 610.000,-5.000 L 612.208,-4.946 L 614.411,-4.783 L 616.603,-4.513 L 618.779,-4.135 L 620.934,-3.651 L 623.063,-3.062 L 625.160,-2.369 L 627.221,-1.575 L 629.240,-0.680 L 631.213,0.314 L 633.135,1.402 L 635.001,2.584 L 636.806,3.856 L 638.548,5.215 L 640.220,6.657 L 641.820,8.180 L 643.343,9.780 L 644.785,11.452 L 646.144,13.194 L 647.416,14.999 L 648.598,16.865 L 649.686,18.787 L 650.680,20.760 L 651.575,22.779 L 652.369,24.840 L 653.062,26.937 L 653.651,29.066 L 654.135,31.221 L 654.513,33.397 L 654.783,35.589 L 654.946,37.792 L 655.000,40.000 L 654.946,42.208 L 654.783,44.411 L 654.513,46.603 L 654.135,48.779 L 653.651,50.934 L 653.062,53.063 L 652.369,55.160 L 651.575,57.221 L 650.680,59.240 L 649.686,61.213 L 648.598,63.135 L 647.416,65.001 L 646.144,66.806 L 644.785,68.548 L 643.343,70.220 L 641.820,71.820 L 640.220,73.343 L 638.548,74.785 L 636.806,76.144 L 635.001,77.416 L 633.135,78.598 L 631.213,79.686 L 629.240,80.680 L 627.221,81.575 L 625.160,82.369 L 623.063,83.062 L 620.934,83.651 L 618.779,84.135 L 616.603,84.513 L 614.411,84.783 L 612.208,84.946 L 610.000,85.000 L 395.000,85.000 L 395.000,780.000 Z" fill="black" fill-rule="evenodd"/>
</svg>
