<svg xmlns="http://www.w3.org/2000/svg" width="700.000" height="1000" viewBox="0 0 700.000 1000">
  <path d="M 306.866 792.824 L 307.195 793.883 L 307.550 794.934 L 307.931 795.976 L 308.338 797.008 L 308.770 798.029 L 309.227 799.040 L 309.708 800.039 L 310.214 801.026 L 310.745 802.001 L 311.299 802.961 L 311.877 803.908 L 312.477 804.841 L 313.101 805.758 L 313.747 806.660 L 314.415 807.545 L 315.105 808.414 L 315.816 809.265 L 316.548 810.099 L 317.300 810.914 L 318.072 811.711 L 318.863 812.488 L 319.673 813.246 L 320.502 813.983 L 321.348 814.700 L 322.212 815.396 L 323.093 816.070 L 323.991 816.722 L 324.904 817.352 L 325.832 817.959 L 326.775 818.543 L 327.732 819.104 L 328.702 819.641 L 329.686 820.154 L 330.682 820.642 L 331.690 821.106 L 332.708 821.545 L 333.738 821.959 L 334.777 822.347 L 335.825 822.709 L 336.882 823.046 L 337.947 823.356 L 339.019 823.640 L 340.098 823.897 L 341.183 824.128 L 342.274 824.332 L 343.369 824.509 L 344.468 824.659 L 345.570 824.781 L 346.675 824.877 L 347.782 824.945 L 348.891 824.986 L 350.000 825.000 L 351.109 824.986 L 352.218 824.945 L 353.325 824.877 L 354.430 824.781 L 355.532 824.659 L 356.631 824.509 L 357.726 824.332 L 358.817 824.128 L 359.902 823.897 L 360.981 823.640 L 362.053 823.356 L 363.118 823.046 L 364.175 822.709 L 365.223 822.347 L 366.262 821.959 L 367.292 821.545 L 368.310 821.106 L 369.318 820.642 L 370.314 820.154 L 371.298 819.641 L 372.268 819.104 L 373.225 818.543 L 374.168 817.959 L 375.096 817.352 L 376.009 816.722 L 376.907 816.070 L 377.788 815.396 L 378.652 814.700 L 379.498 813.983 L 380.327 813.246 L 381.137 812.488 L 381.928 811.711 L 382.700 810.914 L 383.452 810.099 L 384.184 809.265 L 384.895 808.414 L 385.585 807.545 L 386.253 806.660 L 386.899 805.758 L 387.523 804.841 L 388.123 803.908 L 388.701 802.961 L 389.255 802.001 L 389.786 801.026 L 390.292 800.039 L 390.773 799.040 L 391.230 798.029 L 391.662 797.008 L 392.069 795.976 L 392.450 794.934 L 392.805 793.883 L 393.134 792.824 L 613.134 52.824 L 613.436 51.761 L 613.711 50.692 L 613.961 49.616 L 614.183 48.534 L 614.380 47.447 L 614.549 46.356 L 614.691 45.261 L 614.807 44.162 L 614.896 43.061 L 614.957 41.959 L 614.992 40.855 L 614.999 39.750 L 614.980 38.646 L 614.933 37.543 L 614.859 36.441 L 614.758 35.341 L 614.630 34.244 L 614.476 33.150 L 614.294 32.061 L 614.086 30.976 L 613.851 29.897 L 613.590 28.824 L 613.303 27.757 L 612.989 26.698 L 612.650 25.647 L 612.285 24.605 L 611.894 23.572 L 611.478 22.549 L 611.038 21.536 L 610.572 20.535 L 610.082 19.545 L 609.568 18.567 L 609.030 17.603 L 608.469 16.652 L 607.884 15.715 L 607.277 14.792 L 606.647 13.885 L 605.995 12.993 L 605.321 12.118 L 604.627 11.260 L 603.911 10.419 L 603.175 9.595 L 602.418 8.790 L 601.643 8.004 L 600.848 7.237 L 600.035 6.490 L 599.203 5.763 L 598.354 5.057 L 597.488 4.371 L 596.605 3.707 L 595.707 3.065 L 594.793 2.446 L 593.864 1.849 L 592.920 1.274 L 591.963 0.724 L 590.992 0.196 L 590.009 -0.307 L 589.014 -0.786 L 588.007 -1.240 L 586.990 -1.669 L 585.962 -2.074 L 584.925 -2.453 L 583.878 -2.806 L 582.824 -3.134 L 581.761 -3.436 L 580.692 -3.711 L 579.616 -3.961 L 578.534 -4.183 L 577.447 -4.380 L 576.356 -4.549 L 575.261 -4.691 L 574.162 -4.807 L 573.061 -4.896 L 571.959 -4.957 L 570.855 -4.992 L 569.750 -4.999 L 568.646 -4.980 L 567.543 -4.933 L 566.441 -4.859 L 565.341 -4.758 L 564.244 -4.630 L 563.150 -4.476 L 562.061 -4.294 L 560.976 -4.086 L 559.897 -3.851 L 558.824 -3.590 L 557.757 -3.303 L 556.698 -2.989 L 555.647 -2.650 L 554.605 -2.285 L 553.572 -1.894 L 552.549 -1.478 L 551.536 -1.038 L 550.535 -0.572 L 549.545 -0.082 L 548.567 0.432 L 547.603 0.970 L 546.652 1.531 L 545.715 2.116 L 544.792 2.723 L 543.885 3.353 L 542.993 4.005 L 542.118 4.679 L 541.260 5.373 L 540.419 6.089 L 539.595 6.825 L 538.790 7.582 L 538.004 8.357 L 537.237 9.152 L 536.490 9.965 L 535.763 10.797 L 535.057 11.646 L 534.371 12.512 L 533.707 13.395 L 533.065 14.293 L 532.446 15.207 L 531.849 16.136 L 531.274 17.080 L 530.724 18.037 L 530.196 19.008 L 529.693 19.991 L 529.214 20.986 L 528.760 21.993 L 528.331 23.010 L 527.926 24.038 L 527.547 25.075 L 527.194 26.122 L 526.866 27.176 L 350.000 622.089 L 173.134 27.176 L 172.806 26.122 L 172.453 25.075 L 172.074 24.038 L 171.669 23.010 L 171.240 21.993 L 170.786 20.986 L 170.307 19.991 L 169.804 19.008 L 169.276 18.037 L 168.726 17.080 L 168.151 16.136 L 167.554 15.207 L 166.935 14.293 L 166.293 13.395 L 165.629 12.512 L 164.943 11.646 L 164.237 10.797 L 163.510 9.965 L 162.763 9.152 L 161.996 8.357 L 161.210 7.582 L 160.405 6.825 L 159.581 6.089 L 158.740 5.373 L 157.882 4.679 L 157.007 4.005 L 156.115 3.353 L 155.208 2.723 L 154.285 2.116 L 153.348 1.531 L 152.397 0.970 L 151.433 0.432 L 150.455 -0.082 L 149.465 -0.572 L 148.464 -1.038 L 147.451 -1.478 L 146.428 -1.894 L 145.395 -2.285 L 144.353 -2.650 L 143.302 -2.989 L 142.243 -3.303 L 141.176 -3.590 L 140.103 -3.851 L 139.024 -4.086 L 137.939 -4.294 L 136.850 -4.476 L 135.756 -4.630 L 134.659 -4.758 L 133.559 -4.859 L 132.457 -4.933 L 131.354 -4.980 L 130.250 -4.999 L 129.145 -4.992 L 128.041 -4.957 L 126.939 -4.896 L 125.838 -4.807 L 124.739 -4.691 L 123.644 -4.549 L 122.553 -4.380 L 121.466 -4.183 L 120.384 -3.961 L 119.308 -3.711 L 118.239 -3.436 L 117.176 -3.134 L 116.122 -2.806 L 115.075 -2.453 L 114.038 -2.074 L 113.010 -1.669 L 111.993 -1.240 L 110.986 -0.786 L 109.991 -0.307 L 109.008 0.196 L 108.037 0.724 L 107.080 1.274 L 106.136 1.849 L 105.207 2.446 L 104.293 3.065 L 103.395 3.707 L 102.512 4.371 L 101.646 5.057 L 100.797 5.763 L 99.965 6.490 L 99.152 7.237 L 98.357 8.004 L 97.582 8.790 L 96.825 9.595 L 96.089 10.419 L 95.373 11.260 L 94.679 12.118 L 94.005 12.993 L 93.353 13.885 L 92.723 14.792 L 92.116 15.715 L 91.531 16.652 L 90.970 17.603 L 90.432 18.567 L 89.918 19.545 L 89.428 20.535 L 88.962 21.536 L 88.522 22.549 L 88.106 23.572 L 87.715 24.605 L 87.350 25.647 L 87.011 26.698 L 86.697 27.757 L 86.410 28.824 L 86.149 29.897 L 85.914 30.976 L 85.706 32.061 L 85.524 33.150 L 85.370 34.244 L 85.242 35.341 L 85.141 36.441 L 85.067 37.543 L 85.020 38.646 L 85.001 39.750 L 85.008 40.855 L 85.043 41.959 L 85.104 43.061 L 85.193 44.162 L 85.309 45.261 L 85.451 46.356 L 85.620 47.447 L 85.817 48.534 L 86.039 49.616 L 86.289 50.692 L 86.564 51.761 L 86.866 52.824 L 306.866 792.824 Z" fill="black" fill-rule="evenodd"/>
</svg>
