<svg xmlns="http://www.w3.org/2000/svg" viewBox="0 0 700.000 1000">
  <path d="M 614.999 409.672 L 614.933 400.591 L 614.923 399.934 L 614.724 390.860 L 614.705 390.202 L 614.374 381.138 L 614.345 380.480 L 613.882 371.433 L 613.843 370.773 L 613.248 361.747 L 613.199 361.086 L 612.473 352.088 L 612.414 351.424 L 611.557 342.458 L 611.488 341.793 L 610.500 332.865 L 610.420 332.196 L 609.302 323.312 L 609.212 322.641 L 607.965 313.805 L 607.864 313.130 L 606.488 304.349 L 606.376 303.670 L 604.872 294.948 L 604.749 294.265 L 603.118 285.608 L 602.983 284.920 L 601.227 276.333 L 601.079 275.639 L 599.198 267.127 L 599.038 266.429 L 597.033 257.997 L 596.859 257.293 L 594.732 248.946 L 594.545 248.236 L 592.296 239.980 L 592.095 239.263 L 589.726 231.102 L 589.510 230.378 L 587.023 222.318 L 586.791 221.587 L 584.187 213.631 L 583.938 212.893 L 581.220 205.047 L 580.954 204.301 L 578.121 196.570 L 577.837 195.816 L 574.893 188.204 L 574.590 187.442 L 571.535 179.954 L 571.212 179.183 L 568.049 171.823 L 567.705 171.043 L 564.436 163.816 L 564.070 163.028 L 560.696 155.938 L 560.307 155.140 L 556.830 148.192 L 556.416 147.385 L 552.840 140.582 L 552.400 139.766 L 548.725 133.113 L 548.258 132.288 L 544.487 125.788 L 543.991 124.954 L 540.126 118.612 L 539.600 117.769 L 535.644 111.589 L 535.085 110.738 L 531.041 104.722 L 530.448 103.863 L 526.317 98.017 L 525.689 97.150 L 521.473 91.476 L 520.808 90.603 L 516.511 85.104 L 515.806 84.225 L 511.430 78.905 L 510.684 78.022 L 506.232 72.885 L 505.442 71.998 L 500.916 67.046 L 500.081 66.157 L 495.485 61.393 L 494.603 60.504 L 489.938 55.931 L 489.006 55.044 L 484.276 50.666 L 483.294 49.783 L 478.501 45.601 L 477.466 44.724 L 472.613 40.741 L 471.524 39.875 L 466.615 36.093 L 465.469 35.240 L 460.507 31.662 L 459.304 30.824 L 454.291 27.452 L 453.031 26.635 L 447.970 23.471 L 446.652 22.678 L 441.546 19.724 L 440.170 18.960 L 435.023 16.217 L 433.589 15.486 L 428.403 12.957 L 426.913 12.264 L 421.692 9.949 L 420.922 9.617 L 420.147 9.298 L 414.893 7.200 L 414.098 6.891 L 413.296 6.597 L 408.014 4.716 L 407.193 4.433 L 406.367 4.166 L 401.059 2.503 L 400.215 2.248 L 399.366 2.010 L 394.035 0.567 L 393.170 0.342 L 392.301 0.135 L 386.951 -1.088 L 386.068 -1.280 L 385.181 -1.455 L 379.814 -2.456 L 378.916 -2.614 L 378.014 -2.754 L 372.634 -3.533 L 371.723 -3.655 L 370.809 -3.759 L 365.420 -4.316 L 364.499 -4.402 L 363.577 -4.468 L 358.181 -4.802 L 357.255 -4.850 L 356.328 -4.879 L 350.929 -4.990 L 350.000 -5.000 L 349.071 -4.990 L 343.672 -4.879 L 342.745 -4.850 L 341.819 -4.802 L 336.423 -4.468 L 335.501 -4.402 L 334.580 -4.316 L 329.191 -3.759 L 328.277 -3.655 L 327.366 -3.533 L 321.986 -2.754 L 321.084 -2.614 L 320.186 -2.456 L 314.819 -1.455 L 313.932 -1.280 L 313.049 -1.088 L 307.699 0.135 L 306.830 0.342 L 305.965 0.567 L 300.634 2.010 L 299.785 2.248 L 298.941 2.503 L 293.633 4.166 L 292.807 4.433 L 291.986 4.716 L 286.704 6.597 L 285.902 6.891 L 285.107 7.200 L 279.853 9.298 L 279.078 9.617 L 278.308 9.949 L 273.087 12.264 L 271.597 12.957 L 266.411 15.486 L 264.977 16.217 L 259.830 18.960 L 258.454 19.724 L 253.348 22.678 L 252.030 23.471 L 246.969 26.635 L 245.709 27.452 L 240.696 30.824 L 239.493 31.662 L 234.531 35.240 L 233.385 36.093 L 228.476 39.875 L 227.387 40.741 L 222.534 44.724 L 221.499 45.601 L 216.706 49.783 L 215.724 50.666 L 210.994 55.044 L 210.062 55.931 L 205.397 60.504 L 204.515 61.393 L 199.919 66.157 L 199.084 67.046 L 194.558 71.998 L 193.768 72.885 L 189.316 78.022 L 188.570 78.905 L 184.194 84.225 L 183.489 85.104 L 179.192 90.603 L 178.527 91.476 L 174.311 97.150 L 173.683 98.017 L 169.552 103.863 L 168.959 104.722 L 164.915 110.738 L 164.356 111.589 L 160.400 117.769 L 159.874 118.612 L 156.009 124.954 L 155.513 125.788 L 151.742 132.288 L 151.275 133.113 L 147.600 139.766 L 147.160 140.582 L 143.584 147.385 L 143.170 148.192 L 139.693 155.140 L 139.304 155.938 L 135.930 163.028 L 135.564 163.816 L 132.295 171.043 L 131.951 171.823 L 128.788 179.183 L 128.465 179.954 L 125.410 187.442 L 125.107 188.204 L 122.163 195.816 L 121.879 196.570 L 119.046 204.301 L 118.780 205.047 L 116.062 212.893 L 115.813 213.631 L 113.209 221.587 L 112.977 222.318 L 110.490 230.378 L 110.274 231.102 L 107.905 239.263 L 107.704 239.980 L 105.455 248.236 L 105.268 248.946 L 103.141 257.293 L 102.967 257.997 L 100.962 266.429 L 100.802 267.127 L 98.921 275.639 L 98.773 276.333 L 97.017 284.920 L 96.882 285.608 L 95.251 294.265 L 95.128 294.948 L 93.624 303.670 L 93.512 304.349 L 92.136 313.130 L 92.035 313.805 L 90.788 322.641 L 90.698 323.312 L 89.580 332.196 L 89.500 332.865 L 88.512 341.793 L 88.443 342.458 L 87.586 351.424 L 87.527 352.088 L 86.801 361.086 L 86.752 361.747 L 86.157 370.773 L 86.118 371.433 L 85.655 380.480 L 85.626 381.138 L 85.295 390.202 L 85.276 390.860 L 85.077 399.934 L 85.067 400.591 L 85.001 409.672 L 85.001 410.328 L 85.067 419.409 L 85.077 420.066 L 85.276 429.140 L 85.295 429.798 L 85.626 438.862 L 85.655 439.520 L 86.118 448.567 L 86.157 449.227 L 86.752 458.253 L 86.801 458.914 L 87.527 467.912 L 87.586 468.576 L 88.443 477.542 L 88.512 478.207 L 89.500 487.135 L 89.580 487.804 L 90.698 496.688 L 90.788 497.359 L 92.035 506.195 L 92.136 506.870 L 93.512 515.651 L 93.624 516.330 L 95.128 525.052 L 95.251 525.735 L 96.882 534.392 L 97.017 535.080 L 98.773 543.667 L 98.921 544.361 L 100.802 552.873 L 100.962 553.571 L 102.967 562.003 L 103.141 562.707 L 105.268 571.054 L 105.455 571.764 L 107.704 580.020 L 107.905 580.737 L 110.274 588.898 L 110.490 589.622 L 112.977 597.682 L 113.209 598.413 L 115.813 606.369 L 116.062 607.107 L 118.780 614.953 L 119.046 615.699 L 121.879 623.430 L 122.163 624.184 L 125.107 631.796 L 125.410 632.558 L 128.465 640.046 L 128.788 640.817 L 131.951 648.177 L 132.295 648.957 L 135.564 656.184 L 135.930 656.972 L 139.304 664.062 L 139.693 664.860 L 143.170 671.808 L 143.584 672.615 L 147.160 679.418 L 147.600 680.234 L 151.275 686.887 L 151.742 687.712 L 155.513 694.212 L 156.009 695.046 L 159.874 701.388 L 160.400 702.231 L 164.356 708.411 L 164.915 709.262 L 168.959 715.278 L 169.552 716.137 L 173.683 721.983 L 174.311 722.850 L 178.527 728.524 L 179.192 729.397 L 183.489 734.896 L 184.194 735.775 L 188.570 741.095 L 189.316 741.978 L 193.768 747.115 L 194.558 748.002 L 199.084 752.954 L 199.919 753.843 L 204.515 758.607 L 205.397 759.496 L 210.062 764.069 L 210.994 764.956 L 215.724 769.334 L 216.706 770.217 L 221.499 774.399 L 222.534 775.276 L 227.387 779.259 L 228.476 780.125 L 233.385 783.907 L 234.531 784.760 L 239.493 788.338 L 240.696 789.176 L 245.709 792.548 L 246.969 793.365 L 252.030 796.529 L 253.348 797.322 L 258.454 800.276 L 259.830 801.040 L 264.977 803.783 L 266.411 804.514 L 271.597 807.043 L 273.087 807.736 L 278.308 810.051 L 279.078 810.383 L 279.853 810.702 L 285.107 812.800 L 285.902 813.109 L 286.704 813.403 L 291.986 815.284 L 292.807 815.567 L 293.633 815.834 L 298.941 817.497 L 299.785 817.752 L 300.634 817.990 L 305.965 819.433 L 306.830 819.658 L 307.699 819.865 L 313.049 821.088 L 313.932 821.280 L 314.819 821.455 L 320.186 822.456 L 321.084 822.614 L 321.986 822.754 L 327.366 823.533 L 328.277 823.655 L 329.191 823.759 L 334.580 824.316 L 335.501 824.402 L 336.423 824.468 L 341.819 824.802 L 342.745 824.850 L 343.672 824.879 L 349.071 824.990 L 350.000 825.000 L 350.929 824.990 L 356.328 824.879 L 357.255 824.850 L 358.181 824.802 L 363.577 824.468 L 364.499 824.402 L 365.420 824.316 L 370.809 823.759 L 371.723 823.655 L 372.634 823.533 L 378.014 822.754 L 378.916 822.614 L 379.814 822.456 L 385.181 821.455 L 386.068 821.280 L 386.951 821.088 L 392.301 819.865 L 393.170 819.658 L 394.035 819.433 L 399.366 817.990 L 400.215 817.752 L 401.059 817.497 L 406.367 815.834 L 407.193 815.567 L 408.014 815.284 L 413.296 813.403 L 414.098 813.109 L 414.893 812.800 L 420.147 810.702 L 420.922 810.383 L 421.692 810.051 L 426.913 807.736 L 428.403 807.043 L 433.589 804.514 L 435.023 803.783 L 440.170 801.040 L 441.546 800.276 L 446.652 797.322 L 447.970 796.529 L 453.031 793.365 L 454.291 792.548 L 454.634 792.317 L 454.733 792.357 L 455.767 792.743 L 456.811 793.105 L 457.863 793.440 L 458.924 793.749 L 459.991 794.033 L 461.065 794.290 L 462.145 794.520 L 463.231 794.724 L 464.321 794.902 L 465.415 795.052 L 466.513 795.176 L 467.613 795.272 L 468.715 795.342 L 469.819 795.384 L 470.923 795.400 L 472.027 795.388 L 473.131 795.350 L 474.234 795.284 L 475.334 795.191 L 476.432 795.071 L 477.527 794.924 L 478.617 794.751 L 479.704 794.550 L 480.784 794.323 L 481.859 794.070 L 482.928 793.790 L 483.989 793.485 L 485.043 793.153 L 486.087 792.795 L 487.123 792.412 L 488.150 792.004 L 489.165 791.571 L 490.170 791.112 L 491.164 790.630 L 492.145 790.123 L 493.113 789.592 L 494.069 789.037 L 495.010 788.460 L 495.937 787.859 L 496.848 787.236 L 497.745 786.590 L 498.625 785.923 L 499.488 785.234 L 500.334 784.525 L 501.163 783.794 L 501.973 783.044 L 502.765 782.274 L 503.538 781.485 L 504.291 780.677 L 505.024 779.851 L 505.737 779.007 L 506.428 778.146 L 507.098 777.268 L 507.747 776.374 L 508.373 775.465 L 508.977 774.540 L 509.558 773.601 L 510.116 772.647 L 510.650 771.681 L 511.160 770.701 L 511.647 769.710 L 512.108 768.706 L 512.545 767.692 L 512.957 766.667 L 513.343 765.633 L 513.705 764.589 L 514.040 763.537 L 514.349 762.476 L 514.633 761.409 L 514.890 760.335 L 515.120 759.255 L 515.324 758.169 L 515.502 757.079 L 515.652 755.985 L 515.776 754.887 L 515.872 753.787 L 515.942 752.685 L 515.984 751.581 L 516.000 750.477 L 515.988 749.373 L 515.950 748.269 L 515.884 747.166 L 515.791 746.066 L 515.671 744.968 L 515.524 743.873 L 515.351 742.783 L 515.150 741.696 L 514.923 740.616 L 514.670 739.541 L 514.390 738.472 L 514.182 737.749 L 515.806 735.775 L 516.511 734.896 L 520.808 729.397 L 521.473 728.524 L 525.689 722.850 L 526.317 721.983 L 530.448 716.137 L 531.041 715.278 L 535.085 709.262 L 535.644 708.411 L 539.600 702.231 L 540.126 701.388 L 543.991 695.046 L 544.487 694.212 L 548.258 687.712 L 548.725 686.887 L 552.400 680.234 L 552.840 679.418 L 556.416 672.615 L 556.830 671.808 L 560.307 664.860 L 560.696 664.062 L 564.070 656.972 L 564.436 656.184 L 567.705 648.957 L 568.049 648.177 L 571.212 640.817 L 571.535 640.046 L 574.590 632.558 L 574.893 631.796 L 577.837 624.184 L 578.121 623.430 L 580.954 615.699 L 581.220 614.953 L 583.938 607.107 L 584.187 606.369 L 586.791 598.413 L 587.023 597.682 L 589.510 589.622 L 589.726 588.898 L 592.095 580.737 L 592.296 580.020 L 594.545 571.764 L 594.732 571.054 L 596.859 562.707 L 597.033 562.003 L 599.038 553.571 L 599.198 552.873 L 601.079 544.361 L 601.227 543.667 L 602.983 535.080 L 603.118 534.392 L 604.749 525.735 L 604.872 525.052 L 606.376 516.330 L 606.488 515.651 L 607.864 506.870 L 607.965 506.195 L 609.212 497.359 L 609.302 496.688 L 610.420 487.804 L 610.500 487.135 L 611.488 478.207 L 611.557 477.542 L 612.414 468.576 L 612.473 467.912 L 613.199 458.914 L 613.248 458.253 L 613.843 449.227 L 613.882 448.567 L 614.345 439.520 L 614.374 438.862 L 614.705 429.798 L 614.724 429.140 L 614.923 420.066 L 614.933 419.409 L 614.999 410.328 L 614.999 409.672 Z M 524.937 418.423 L 524.753 426.841 L 524.446 435.247 L 524.016 443.635 L 523.465 452.000 L 522.792 460.336 L 521.997 468.637 L 521.083 476.897 L 520.049 485.111 L 518.897 493.273 L 517.627 501.376 L 516.240 509.417 L 514.739 517.388 L 513.124 525.284 L 511.396 533.100 L 509.558 540.830 L 507.611 548.469 L 505.557 556.011 L 503.398 563.452 L 501.135 570.785 L 498.772 578.006 L 496.311 585.109 L 493.753 592.090 L 491.102 598.944 L 488.360 605.665 L 485.530 612.249 L 482.616 618.692 L 479.619 624.988 L 476.545 631.134 L 473.395 637.125 L 470.173 642.958 L 466.884 648.627 L 463.530 654.131 L 460.116 659.464 L 456.647 664.624 L 454.512 667.644 L 338.644 545.527 L 337.874 544.735 L 337.085 543.962 L 336.277 543.209 L 335.451 542.476 L 334.607 541.763 L 333.746 541.072 L 332.868 540.402 L 331.974 539.753 L 331.065 539.127 L 330.140 538.523 L 329.201 537.942 L 328.247 537.384 L 327.281 536.850 L 326.301 536.340 L 325.310 535.853 L 324.306 535.392 L 323.292 534.955 L 322.267 534.543 L 321.233 534.157 L 320.189 533.795 L 319.137 533.460 L 318.076 533.151 L 317.009 532.867 L 315.935 532.610 L 314.855 532.380 L 313.769 532.176 L 312.679 531.998 L 311.585 531.848 L 310.487 531.724 L 309.387 531.628 L 308.285 531.558 L 307.181 531.516 L 306.077 531.500 L 304.973 531.512 L 303.869 531.550 L 302.766 531.616 L 301.666 531.709 L 300.568 531.829 L 299.473 531.976 L 298.383 532.149 L 297.296 532.350 L 296.216 532.577 L 295.141 532.830 L 294.072 533.110 L 293.011 533.415 L 291.957 533.747 L 290.913 534.105 L 289.877 534.488 L 288.850 534.896 L 287.835 535.329 L 286.830 535.788 L 285.836 536.270 L 284.855 536.777 L 283.887 537.308 L 282.931 537.863 L 281.990 538.440 L 281.063 539.041 L 280.152 539.664 L 279.255 540.310 L 278.375 540.977 L 277.512 541.666 L 276.666 542.375 L 275.837 543.106 L 275.027 543.856 L 274.235 544.626 L 273.462 545.415 L 272.709 546.223 L 271.976 547.049 L 271.263 547.893 L 270.572 548.754 L 269.902 549.632 L 269.253 550.526 L 268.627 551.435 L 268.023 552.360 L 267.442 553.299 L 266.884 554.253 L 266.350 555.219 L 265.840 556.199 L 265.353 557.190 L 264.892 558.194 L 264.455 559.208 L 264.043 560.233 L 263.657 561.267 L 263.295 562.311 L 262.960 563.363 L 262.651 564.424 L 262.367 565.491 L 262.110 566.565 L 261.880 567.645 L 261.676 568.731 L 261.498 569.821 L 261.348 570.915 L 261.224 572.013 L 261.128 573.113 L 261.058 574.215 L 261.016 575.319 L 261.000 576.423 L 261.012 577.527 L 261.050 578.631 L 261.116 579.734 L 261.209 580.834 L 261.329 581.932 L 261.476 583.027 L 261.649 584.117 L 261.850 585.204 L 262.077 586.284 L 262.330 587.359 L 262.610 588.428 L 262.915 589.489 L 263.247 590.543 L 263.605 591.587 L 263.988 592.623 L 264.396 593.650 L 264.829 594.665 L 265.288 595.670 L 265.770 596.664 L 266.277 597.645 L 266.808 598.613 L 267.363 599.569 L 267.940 600.510 L 268.541 601.437 L 269.164 602.348 L 269.810 603.245 L 270.477 604.125 L 271.166 604.988 L 271.875 605.834 L 272.606 606.663 L 273.356 607.473 L 386.823 727.061 L 385.986 727.432 L 382.304 728.903 L 378.644 730.206 L 375.006 731.345 L 371.389 732.324 L 367.791 733.146 L 364.210 733.814 L 360.644 734.330 L 357.090 734.698 L 353.543 734.917 L 350.000 734.990 L 346.457 734.917 L 342.910 734.698 L 339.356 734.330 L 335.790 733.814 L 332.209 733.146 L 328.611 732.324 L 324.994 731.345 L 321.356 730.206 L 317.696 728.903 L 314.014 727.432 L 310.311 725.791 L 306.587 723.975 L 302.845 721.981 L 299.086 719.806 L 295.314 717.448 L 291.532 714.904 L 287.743 712.173 L 283.951 709.252 L 280.161 706.141 L 276.377 702.839 L 272.603 699.346 L 268.845 695.661 L 265.106 691.787 L 261.392 687.723 L 257.707 683.472 L 254.056 679.034 L 250.444 674.411 L 246.875 669.607 L 243.353 664.624 L 239.884 659.464 L 236.470 654.131 L 233.116 648.627 L 229.827 642.958 L 226.605 637.125 L 223.455 631.134 L 220.381 624.988 L 217.384 618.692 L 214.470 612.249 L 211.640 605.665 L 208.898 598.944 L 206.247 592.090 L 203.689 585.109 L 201.228 578.006 L 198.865 570.785 L 196.602 563.452 L 194.443 556.011 L 192.389 548.469 L 190.442 540.830 L 188.604 533.100 L 186.876 525.284 L 185.261 517.388 L 183.760 509.417 L 182.373 501.376 L 181.103 493.273 L 179.951 485.111 L 178.917 476.897 L 178.003 468.637 L 177.208 460.336 L 176.535 452.000 L 175.984 443.635 L 175.554 435.247 L 175.247 426.841 L 175.063 418.423 L 175.001 410.000 L 175.063 401.577 L 175.247 393.159 L 175.554 384.753 L 175.984 376.365 L 176.535 368.000 L 177.208 359.664 L 178.003 351.363 L 178.917 343.103 L 179.951 334.889 L 181.103 326.727 L 182.373 318.624 L 183.760 310.583 L 185.261 302.612 L 186.876 294.716 L 188.604 286.900 L 190.442 279.170 L 192.389 271.531 L 194.443 263.989 L 196.602 256.548 L 198.865 249.215 L 201.228 241.994 L 203.689 234.891 L 206.247 227.910 L 208.898 221.056 L 211.640 214.335 L 214.470 207.751 L 217.384 201.308 L 220.381 195.012 L 223.455 188.866 L 226.605 182.875 L 229.827 177.042 L 233.116 171.373 L 236.470 165.869 L 239.884 160.536 L 243.353 155.376 L 246.875 150.393 L 250.444 145.589 L 254.056 140.966 L 257.707 136.528 L 261.392 132.277 L 265.106 128.213 L 268.845 124.339 L 272.603 120.654 L 276.377 117.161 L 280.161 113.859 L 283.951 110.748 L 287.743 107.827 L 291.532 105.096 L 295.314 102.552 L 299.086 100.194 L 302.845 98.019 L 306.587 96.025 L 310.311 94.209 L 314.014 92.568 L 317.696 91.097 L 321.356 89.794 L 324.994 88.655 L 328.611 87.676 L 332.209 86.854 L 335.790 86.186 L 339.356 85.670 L 342.910 85.302 L 346.457 85.083 L 350.000 85.010 L 353.543 85.083 L 357.090 85.302 L 360.644 85.670 L 364.210 86.186 L 367.791 86.854 L 371.389 87.676 L 375.006 88.655 L 378.644 89.794 L 382.304 91.097 L 385.986 92.568 L 389.689 94.209 L 393.413 96.025 L 397.155 98.019 L 400.914 100.194 L 404.686 102.552 L 408.468 105.096 L 412.257 107.827 L 416.049 110.748 L 419.839 113.859 L 423.623 117.161 L 427.397 120.654 L 431.155 124.339 L 434.894 128.213 L 438.608 132.277 L 442.293 136.528 L 445.944 140.966 L 449.556 145.589 L 453.125 150.393 L 456.647 155.376 L 460.116 160.536 L 463.530 165.869 L 466.884 171.373 L 470.173 177.042 L 473.395 182.875 L 476.545 188.866 L 479.619 195.012 L 482.616 201.308 L 485.530 207.751 L 488.360 214.335 L 491.102 221.056 L 493.753 227.910 L 496.311 234.891 L 498.772 241.994 L 501.135 249.215 L 503.398 256.548 L 505.557 263.989 L 507.611 271.531 L 509.558 279.170 L 511.396 286.900 L 513.124 294.716 L 514.739 302.612 L 516.240 310.583 L 517.627 318.624 L 518.897 326.727 L 520.049 334.889 L 521.083 343.103 L 521.997 351.363 L 522.792 359.664 L 523.465 368.000 L 524.016 376.365 L 524.446 384.753 L 524.753 393.159 L 524.937 401.577 L 524.999 410.000 L 524.937 418.423 Z" fill="black" fill-rule="evenodd"/>
</svg>
