<svg xmlns="http://www.w3.org/2000/svg" viewBox="0 0 700.000 1000">
  <path d="M 306.866 792.824 L 307.311 794.234 L 307.801 795.629 L 308.338 797.008 L 308.919 798.367 L 309.545 799.708 L 310.214 801.026 L 310.927 802.322 L 311.681 803.594 L 312.477 804.841 L 313.314 806.060 L 314.190 807.252 L 315.105 808.414 L 316.058 809.545 L 317.047 810.645 L 318.072 811.711 L 319.131 812.743 L 320.224 813.740 L 321.348 814.700 L 322.504 815.623 L 323.690 816.507 L 324.904 817.352 L 326.145 818.157 L 327.411 818.920 L 328.702 819.641 L 330.017 820.320 L 331.352 820.954 L 332.708 821.545 L 334.083 822.091 L 335.475 822.591 L 336.882 823.046 L 338.304 823.453 L 339.738 823.814 L 341.183 824.128 L 342.638 824.394 L 344.101 824.612 L 345.570 824.781 L 347.044 824.903 L 348.521 824.976 L 350.000 825.000 L 351.479 824.976 L 352.956 824.903 L 354.430 824.781 L 355.899 824.612 L 357.362 824.394 L 358.817 824.128 L 360.262 823.814 L 361.696 823.453 L 363.118 823.046 L 364.525 822.591 L 365.917 822.091 L 367.292 821.545 L 368.648 820.954 L 369.983 820.320 L 371.298 819.641 L 372.589 818.920 L 373.855 818.157 L 375.096 817.352 L 376.310 816.507 L 377.496 815.623 L 378.652 814.700 L 379.776 813.740 L 380.869 812.743 L 381.928 811.711 L 382.953 810.645 L 383.942 809.545 L 384.895 808.414 L 385.810 807.252 L 386.686 806.060 L 387.523 804.841 L 388.319 803.594 L 389.073 802.322 L 389.786 801.026 L 390.455 799.708 L 391.081 798.367 L 391.662 797.008 L 392.199 795.629 L 392.689 794.234 L 393.134 792.824 L 613.134 52.824 L 613.531 51.405 L 613.880 49.975 L 614.183 48.534 L 614.439 47.084 L 614.647 45.626 L 614.807 44.162 L 614.919 42.694 L 614.983 41.223 L 614.999 39.750 L 614.967 38.278 L 614.887 36.808 L 614.758 35.341 L 614.582 33.879 L 614.358 32.423 L 614.086 30.976 L 613.767 29.539 L 613.401 28.112 L 612.989 26.698 L 612.531 25.299 L 612.027 23.915 L 611.478 22.549 L 610.885 21.201 L 610.248 19.873 L 609.568 18.567 L 608.846 17.284 L 608.082 16.025 L 607.277 14.792 L 606.432 13.586 L 605.548 12.408 L 604.627 11.260 L 603.668 10.142 L 602.673 9.057 L 601.643 8.004 L 600.579 6.986 L 599.482 6.003 L 598.354 5.057 L 597.196 4.148 L 596.008 3.277 L 594.793 2.446 L 593.551 1.655 L 592.283 0.905 L 590.992 0.196 L 589.679 -0.469 L 588.344 -1.091 L 586.990 -1.669 L 585.617 -2.203 L 584.228 -2.691 L 582.824 -3.134 L 581.405 -3.531 L 579.975 -3.880 L 578.534 -4.183 L 577.084 -4.439 L 575.626 -4.647 L 574.162 -4.807 L 572.694 -4.919 L 571.223 -4.983 L 569.750 -4.999 L 568.278 -4.967 L 566.808 -4.887 L 565.341 -4.758 L 563.879 -4.582 L 562.423 -4.358 L 560.976 -4.086 L 559.539 -3.767 L 558.112 -3.401 L 556.698 -2.989 L 555.299 -2.531 L 553.915 -2.027 L 552.549 -1.478 L 551.201 -0.885 L 549.873 -0.248 L 548.567 0.432 L 547.284 1.154 L 546.025 1.918 L 544.792 2.723 L 543.586 3.568 L 542.408 4.452 L 541.260 5.373 L 540.142 6.332 L 539.057 7.327 L 538.004 8.357 L 536.986 9.421 L 536.003 10.518 L 535.057 11.646 L 534.148 12.804 L 533.277 13.992 L 532.446 15.207 L 531.655 16.449 L 530.905 17.717 L 530.196 19.008 L 529.531 20.321 L 528.909 21.656 L 528.331 23.010 L 527.797 24.383 L 527.309 25.772 L 526.866 27.176 L 350.000 622.089 L 173.134 27.176 L 172.691 25.772 L 172.203 24.383 L 171.669 23.010 L 171.091 21.656 L 170.469 20.321 L 169.804 19.008 L 169.095 17.717 L 168.345 16.449 L 167.554 15.207 L 166.723 13.992 L 165.852 12.804 L 164.943 11.646 L 163.997 10.518 L 163.014 9.421 L 161.996 8.357 L 160.943 7.327 L 159.858 6.332 L 158.740 5.373 L 157.592 4.452 L 156.414 3.568 L 155.208 2.723 L 153.975 1.918 L 152.716 1.154 L 151.433 0.432 L 150.127 -0.248 L 148.799 -0.885 L 147.451 -1.478 L 146.085 -2.027 L 144.701 -2.531 L 143.302 -2.989 L 141.888 -3.401 L 140.461 -3.767 L 139.024 -4.086 L 137.577 -4.358 L 136.121 -4.582 L 134.659 -4.758 L 133.192 -4.887 L 131.722 -4.967 L 130.250 -4.999 L 128.777 -4.983 L 127.306 -4.919 L 125.838 -4.807 L 124.374 -4.647 L 122.916 -4.439 L 121.466 -4.183 L 120.025 -3.880 L 118.595 -3.531 L 117.176 -3.134 L 115.772 -2.691 L 114.383 -2.203 L 113.010 -1.669 L 111.656 -1.091 L 110.321 -0.469 L 109.008 0.196 L 107.717 0.905 L 106.449 1.655 L 105.207 2.446 L 103.992 3.277 L 102.804 4.148 L 101.646 5.057 L 100.518 6.003 L 99.421 6.986 L 98.357 8.004 L 97.327 9.057 L 96.332 10.142 L 95.373 11.260 L 94.452 12.408 L 93.568 13.586 L 92.723 14.792 L 91.918 16.025 L 91.154 17.284 L 90.432 18.567 L 89.752 19.873 L 89.115 21.201 L 88.522 22.549 L 87.973 23.915 L 87.469 25.299 L 87.011 26.698 L 86.599 28.112 L 86.233 29.539 L 85.914 30.976 L 85.642 32.423 L 85.418 33.879 L 85.242 35.341 L 85.113 36.808 L 85.033 38.278 L 85.001 39.750 L 85.017 41.223 L 85.081 42.694 L 85.193 44.162 L 85.353 45.626 L 85.561 47.084 L 85.817 48.534 L 86.120 49.975 L 86.469 51.405 L 86.866 52.824 L 306.866 792.824 Z" fill="black" fill-rule="evenodd"/>
</svg>
