<svg xmlns="http://www.w3.org/2000/svg" viewBox="0 0 700.000 1000.000">
  <path d="M 350.000,644.248 L 567.544,25.083 L 568.327,23.018 L 569.211,20.994 L 570.193,19.015 L 571.270,17.087 L 572.441,15.214 L 573.703,13.401 L 575.051,11.652 L 576.484,9.972 L 577.998,8.363 L 579.589,6.831 L 581.253,5.379 L 582.987,4.010 L 584.785,2.728 L 586.644,1.535 L 588.560,0.436 L 590.527,-0.569 L 592.541,-1.475 L 594.597,-2.282 L 596.691,-2.987 L 598.816,-3.588 L 600.968,-4.084 L 603.142,-4.474 L 605.333,-4.757 L 607.534,-4.932 L 609.742,-4.999 L 611.950,-4.958 L 614.154,-4.808 L 616.348,-4.550 L 618.526,-4.185 L 620.684,-3.713 L 622.816,-3.137 L 624.917,-2.456 L 626.982,-1.673 L 629.006,-0.789 L 630.985,0.193 L 632.913,1.270 L 634.786,2.441 L 636.599,3.703 L 638.348,5.051 L 640.028,6.484 L 641.637,7.998 L 643.169,9.589 L 644.621,11.253 L 645.990,12.987 L 647.272,14.785 L 648.465,16.644 L 649.564,18.560 L 650.569,20.527 L 651.475,22.541 L 652.282,24.597 L 652.987,26.691 L 653.588,28.816 L 654.084,30.968 L 654.474,33.142 L 654.757,35.333 L 654.932,37.534 L 654.999,39.742 L 654.958,41.950 L 654.808,44.154 L 654.550,46.348 L 654.185,48.526 L 653.713,50.684 L 653.137,52.816 L 652.456,54.917 L 392.456,794.917 L 391.669,796.992 L 390.780,799.025 L 389.793,801.012 L 388.709,802.948 L 387.530,804.829 L 386.261,806.649 L 384.903,808.404 L 383.460,810.090 L 381.936,811.703 L 380.335,813.239 L 378.659,814.694 L 376.914,816.064 L 375.104,817.347 L 373.232,818.539 L 371.304,819.638 L 369.324,820.640 L 367.297,821.543 L 365.228,822.345 L 363.122,823.044 L 360.984,823.639 L 358.820,824.127 L 356.633,824.508 L 354.431,824.781 L 352.218,824.945 L 350.000,825.000 L 347.782,824.945 L 345.569,824.781 L 343.367,824.508 L 341.180,824.127 L 339.016,823.639 L 336.878,823.044 L 334.772,822.345 L 332.703,821.543 L 330.676,820.640 L 328.696,819.638 L 326.768,818.539 L 324.896,817.347 L 323.086,816.064 L 321.341,814.694 L 319.665,813.239 L 318.064,811.703 L 316.540,810.090 L 315.097,808.404 L 313.739,806.649 L 312.470,804.829 L 311.291,802.948 L 310.207,801.012 L 309.220,799.025 L 308.331,796.992 L 307.544,794.917 L 47.544,54.917 L 46.863,52.816 L 46.287,50.684 L 45.815,48.526 L 45.450,46.348 L 45.192,44.154 L 45.042,41.950 L 45.001,39.742 L 45.068,37.534 L 45.243,35.333 L 45.526,33.142 L 45.916,30.968 L 46.412,28.816 L 47.013,26.691 L 47.718,24.597 L 48.525,22.541 L 49.431,20.527 L 50.436,18.560 L 51.535,16.644 L 52.728,14.785 L 54.010,12.987 L 55.379,11.253 L 56.831,9.589 L 58.363,7.998 L 59.972,6.484 L 61.652,5.051 L 63.401,3.703 L 65.214,2.441 L 67.087,1.270 L 69.015,0.193 L 70.994,-0.789 L 73.018,-1.673 L 75.083,-2.456 L 77.184,-3.137 L 79.316,-3.713 L 81.474,-4.185 L 83.652,-4.550 L 85.846,-4.808 L 88.050,-4.958 L 90.258,-4.999 L 92.466,-4.932 L 94.667,-4.757 L 96.858,-4.474 L 99.032,-4.084 L 101.184,-3.588 L 103.309,-2.987 L 105.403,-2.282 L 107.459,-1.475 L 109.473,-0.569 L 111.440,0.436 L 113.356,1.535 L 115.215,2.728 L 117.013,4.010 L 118.747,5.379 L 120.411,6.831 L 122.002,8.363 L 123.516,9.972 L 124.949,11.652 L 126.297,13.401 L 127.559,15.214 L 128.730,17.087 L 129.807,19.015 L 130.789,20.994 L 131.673,23.018 L 132.456,25.083 L 350.000,644.248 Z" fill="black" fill-rule="evenodd"/>
</svg>
