<svg xmlns="http://www.w3.org/2000/svg" viewBox="0 0 700.000 1000.000">
  <path d="M 395.000,780.000 L 394.946,782.208 L 394.783,784.411 L 394.513,786.603 L 394.135,788.779 L 393.651,790.934 L 393.062,793.063 L 392.369,795.160 L 391.575,797.221 L 390.680,799.240 L 389.686,801.213 L 388.598,803.135 L 387.416,805.001 L 386.144,806.806 L 384.785,808.548 L 383.343,810.220 L 381.820,811.820 L 380.220,813.343 L 378.548,814.785 L 376.806,816.144 L 375.001,817.416 L 373.135,818.598 L 371.213,819.686 L 369.240,820.680 L 367.221,821.575 L 365.160,822.369 L 363.063,823.062 L 360.934,823.651 L 358.779,824.135 L 356.603,824.513 L 354.411,824.783 L 352.208,824.946 L 350.000,825.000 L 347.792,824.946 L 345.589,824.783 L 343.397,824.513 L 341.221,824.135 L 339.066,823.651 L 336.937,823.062 L 334.840,822.369 L 332.779,821.575 L 330.760,820.680 L 328.787,819.686 L 326.865,818.598 L 324.999,817.416 L 323.194,816.144 L 321.452,814.785 L 319.780,813.343 L 318.180,811.820 L 316.657,810.220 L 315.215,808.548 L 313.856,806.806 L 312.584,805.001 L 311.402,803.135 L 310.314,801.213 L 309.320,799.240 L 308.425,797.221 L 307.631,795.160 L 306.938,793.063 L 306.349,790.934 L 305.865,788.779 L 305.487,786.603 L 305.217,784.411 L 305.054,782.208 L 305.000,780.000 L 305.000,409.910 L 53.688,66.579 L 52.428,64.766 L 51.258,62.892 L 50.181,60.964 L 49.201,58.985 L 48.318,56.960 L 47.536,54.894 L 46.857,52.793 L 46.281,50.660 L 45.811,48.502 L 45.447,46.324 L 45.190,44.130 L 45.041,41.926 L 45.001,39.718 L 45.069,37.510 L 45.245,35.309 L 45.529,33.118 L 45.921,30.945 L 46.418,28.793 L 47.020,26.668 L 47.726,24.575 L 48.534,22.519 L 49.442,20.505 L 50.447,18.539 L 51.548,16.624 L 52.741,14.765 L 54.024,12.968 L 55.394,11.235 L 56.847,9.571 L 58.380,7.981 L 59.989,6.468 L 61.671,5.036 L 63.421,3.688 L 65.234,2.428 L 67.108,1.258 L 69.036,0.181 L 71.015,-0.799 L 73.040,-1.682 L 75.106,-2.464 L 77.207,-3.143 L 79.340,-3.719 L 81.498,-4.189 L 83.676,-4.553 L 85.870,-4.810 L 88.074,-4.959 L 90.282,-4.999 L 92.490,-4.931 L 94.691,-4.755 L 96.882,-4.471 L 99.055,-4.079 L 101.207,-3.582 L 103.332,-2.980 L 105.425,-2.274 L 107.481,-1.466 L 109.495,-0.558 L 111.461,0.447 L 113.376,1.548 L 115.235,2.741 L 117.032,4.024 L 118.765,5.394 L 120.429,6.847 L 122.019,8.380 L 123.532,9.989 L 124.964,11.671 L 126.312,13.421 L 350.000,319.013 L 573.688,13.421 L 575.036,11.671 L 576.468,9.989 L 577.981,8.380 L 579.571,6.847 L 581.235,5.394 L 582.968,4.024 L 584.765,2.741 L 586.624,1.548 L 588.539,0.447 L 590.505,-0.558 L 592.519,-1.466 L 594.575,-2.274 L 596.668,-2.980 L 598.793,-3.582 L 600.945,-4.079 L 603.118,-4.471 L 605.309,-4.755 L 607.510,-4.931 L 609.718,-4.999 L 611.926,-4.959 L 614.130,-4.810 L 616.324,-4.553 L 618.502,-4.189 L 620.660,-3.719 L 622.793,-3.143 L 624.894,-2.464 L 626.960,-1.682 L 628.985,-0.799 L 630.964,0.181 L 632.892,1.258 L 634.766,2.428 L 636.579,3.688 L 638.329,5.036 L 640.011,6.468 L 641.620,7.981 L 643.153,9.571 L 644.606,11.235 L 645.976,12.968 L 647.259,14.765 L 648.452,16.624 L 649.553,18.539 L 650.558,20.505 L 651.466,22.519 L 652.274,24.575 L 652.980,26.668 L 653.582,28.793 L 654.079,30.945 L 654.471,33.118 L 654.755,35.309 L 654.931,37.510 L 654.999,39.718 L 654.959,41.926 L 654.810,44.130 L 654.553,46.324 L 654.189,48.502 L 653.719,50.660 L 653.143,52.793 L 652.464,54.894 L 651.682,56.960 L 650.799,58.985 L 649.819,60.964 L 648.742,62.892 L 647.572,64.766 L 646.312,66.579 L 395.000,409.910 L 395.000,780.000 Z" fill="black" fill-rule="evenodd"/>
</svg>
