<svg xmlns="http://www.w3.org/2000/svg" viewBox="0 0 700.000 1000" width="700.000" height="1000">
  <path d="M 571.104 84.986 L 572.208 84.946 L 573.310 84.878 L 574.411 84.783 L 575.508 84.662 L 576.603 84.513 L 577.693 84.337 L 578.779 84.135 L 579.860 83.907 L 580.934 83.651 L 582.002 83.370 L 583.063 83.062 L 584.116 82.729 L 585.160 82.369 L 586.195 81.985 L 587.221 81.575 L 588.236 81.139 L 589.240 80.680 L 590.233 80.195 L 591.213 79.686 L 592.180 79.154 L 593.135 78.598 L 594.075 78.018 L 595.001 77.416 L 595.911 76.791 L 596.806 76.144 L 597.685 75.476 L 598.548 74.785 L 599.393 74.074 L 600.220 73.343 L 601.029 72.591 L 601.820 71.820 L 602.591 71.029 L 603.343 70.220 L 604.074 69.393 L 604.785 68.548 L 605.476 67.685 L 606.144 66.806 L 606.791 65.911 L 607.416 65.001 L 608.018 64.075 L 608.598 63.135 L 609.154 62.180 L 609.686 61.213 L 610.195 60.233 L 610.680 59.240 L 611.139 58.236 L 611.575 57.221 L 611.985 56.195 L 612.369 55.160 L 612.729 54.116 L 613.062 53.063 L 613.370 52.002 L 613.651 50.934 L 613.907 49.860 L 614.135 48.779 L 614.337 47.693 L 614.513 46.603 L 614.662 45.508 L 614.783 44.411 L 614.878 43.310 L 614.946 42.208 L 614.986 41.104 L 615.000 40.000 L 614.986 38.896 L 614.946 37.792 L 614.878 36.690 L 614.783 35.589 L 614.662 34.492 L 614.513 33.397 L 614.337 32.307 L 614.135 31.221 L 613.907 30.140 L 613.651 29.066 L 613.370 27.998 L 613.062 26.937 L 612.729 25.884 L 612.369 24.840 L 611.985 23.805 L 611.575 22.779 L 611.139 21.764 L 610.680 20.760 L 610.195 19.767 L 609.686 18.787 L 609.154 17.820 L 608.598 16.865 L 608.018 15.925 L 607.416 14.999 L 606.791 14.089 L 606.144 13.194 L 605.476 12.315 L 604.785 11.452 L 604.074 10.607 L 603.343 9.780 L 602.591 8.971 L 601.820 8.180 L 601.029 7.409 L 600.220 6.657 L 599.393 5.926 L 598.548 5.215 L 597.685 4.524 L 596.806 3.856 L 595.911 3.209 L 595.001 2.584 L 594.075 1.982 L 593.135 1.402 L 592.180 0.846 L 591.213 0.314 L 590.233 -0.195 L 589.240 -0.680 L 588.236 -1.139 L 587.221 -1.575 L 586.195 -1.985 L 585.160 -2.369 L 584.116 -2.729 L 583.063 -3.062 L 582.002 -3.370 L 580.934 -3.651 L 579.860 -3.907 L 578.779 -4.135 L 577.693 -4.337 L 576.603 -4.513 L 575.508 -4.662 L 574.411 -4.783 L 573.310 -4.878 L 572.208 -4.946 L 571.104 -4.986 L 570.000 -5.000 L 350.000 -5.000 L 130.000 -5.000 L 128.896 -4.986 L 127.792 -4.946 L 126.690 -4.878 L 125.589 -4.783 L 124.492 -4.662 L 123.397 -4.513 L 122.307 -4.337 L 121.221 -4.135 L 120.140 -3.907 L 119.066 -3.651 L 117.998 -3.370 L 116.937 -3.062 L 115.884 -2.729 L 114.840 -2.369 L 113.805 -1.985 L 112.779 -1.575 L 111.764 -1.139 L 110.760 -0.680 L 109.767 -0.195 L 108.787 0.314 L 107.820 0.846 L 106.865 1.402 L 105.925 1.982 L 104.999 2.584 L 104.089 3.209 L 103.194 3.856 L 102.315 4.524 L 101.452 5.215 L 100.607 5.926 L 99.780 6.657 L 98.971 7.409 L 98.180 8.180 L 97.409 8.971 L 96.657 9.780 L 95.926 10.607 L 95.215 11.452 L 94.524 12.315 L 93.856 13.194 L 93.209 14.089 L 92.584 14.999 L 91.982 15.925 L 91.402 16.865 L 90.846 17.820 L 90.314 18.787 L 89.805 19.767 L 89.320 20.760 L 88.861 21.764 L 88.425 22.779 L 88.015 23.805 L 87.631 24.840 L 87.271 25.884 L 86.938 26.937 L 86.630 27.998 L 86.349 29.066 L 86.093 30.140 L 85.865 31.221 L 85.663 32.307 L 85.487 33.397 L 85.338 34.492 L 85.217 35.589 L 85.122 36.690 L 85.054 37.792 L 85.014 38.896 L 85.000 40.000 L 85.014 41.104 L 85.054 42.208 L 85.122 43.310 L 85.217 44.411 L 85.338 45.508 L 85.487 46.603 L 85.663 47.693 L 85.865 48.779 L 86.093 49.860 L 86.349 50.934 L 86.630 52.002 L 86.938 53.063 L 87.271 54.116 L 87.631 55.160 L 88.015 56.195 L 88.425 57.221 L 88.861 58.236 L 89.320 59.240 L 89.805 60.233 L 90.314 61.213 L 90.846 62.180 L 91.402 63.135 L 91.982 64.075 L 92.584 65.001 L 93.209 65.911 L 93.856 66.806 L 94.524 67.685 L 95.215 68.548 L 95.926 69.393 L 96.657 70.220 L 97.409 71.029 L 98.180 71.820 L 98.971 72.591 L 99.780 73.343 L 100.607 74.074 L 101.452 74.785 L 102.315 75.476 L 103.194 76.144 L 104.089 76.791 L 104.999 77.416 L 105.925 78.018 L 106.865 78.598 L 107.820 79.154 L 108.787 79.686 L 109.767 80.195 L 110.760 80.680 L 111.764 81.139 L 112.779 81.575 L 113.805 81.985 L 114.840 82.369 L 115.884 82.729 L 116.937 83.062 L 117.998 83.370 L 119.066 83.651 L 120.140 83.907 L 121.221 84.135 L 122.307 84.337 L 123.397 84.513 L 124.492 84.662 L 125.589 84.783 L 126.690 84.878 L 127.792 84.946 L 128.896 84.986 L 130.000 85.000 L 305.000 85.000 L 305.000 780.000 L 305.014 781.104 L 305.054 782.208 L 305.122 783.310 L 305.217 784.411 L 305.338 785.508 L 305.487 786.603 L 305.663 787.693 L 305.865 788.779 L 306.093 789.860 L 306.349 790.934 L 306.630 792.002 L 306.938 793.063 L 307.271 794.116 L 307.631 795.160 L 308.015 796.195 L 308.425 797.221 L 308.861 798.236 L 309.320 799.240 L 309.805 800.233 L 310.314 801.213 L 310.846 802.180 L 311.402 803.135 L 311.982 804.075 L 312.584 805.001 L 313.209 805.911 L 313.856 806.806 L 314.524 807.685 L 315.215 808.548 L 315.926 809.393 L 316.657 810.220 L 317.409 811.029 L 318.180 811.820 L 318.971 812.591 L 319.780 813.343 L 320.607 814.074 L 321.452 814.785 L 322.315 815.476 L 323.194 816.144 L 324.089 816.791 L 324.999 817.416 L 325.925 818.018 L 326.865 818.598 L 327.820 819.154 L 328.787 819.686 L 329.767 820.195 L 330.760 820.680 L 331.764 821.139 L 332.779 821.575 L 333.805 821.985 L 334.840 822.369 L 335.884 822.729 L 336.937 823.062 L 337.998 823.370 L 339.066 823.651 L 340.140 823.907 L 341.221 824.135 L 342.307 824.337 L 343.397 824.513 L 344.492 824.662 L 345.589 824.783 L 346.690 824.878 L 347.792 824.946 L 348.896 824.986 L 350.000 825.000 L 351.104 824.986 L 352.208 824.946 L 353.310 824.878 L 354.411 824.783 L 355.508 824.662 L 356.603 824.513 L 357.693 824.337 L 358.779 824.135 L 359.860 823.907 L 360.934 823.651 L 362.002 823.370 L 363.063 823.062 L 364.116 822.729 L 365.160 822.369 L 366.195 821.985 L 367.221 821.575 L 368.236 821.139 L 369.240 820.680 L 370.233 820.195 L 371.213 819.686 L 372.180 819.154 L 373.135 818.598 L 374.075 818.018 L 375.001 817.416 L 375.911 816.791 L 376.806 816.144 L 377.685 815.476 L 378.548 814.785 L 379.393 814.074 L 380.220 813.343 L 381.029 812.591 L 381.820 811.820 L 382.591 811.029 L 383.343 810.220 L 384.074 809.393 L 384.785 808.548 L 385.476 807.685 L 386.144 806.806 L 386.791 805.911 L 387.416 805.001 L 388.018 804.075 L 388.598 803.135 L 389.154 802.180 L 389.686 801.213 L 390.195 800.233 L 390.680 799.240 L 391.139 798.236 L 391.575 797.221 L 391.985 796.195 L 392.369 795.160 L 392.729 794.116 L 393.062 793.063 L 393.370 792.002 L 393.651 790.934 L 393.907 789.860 L 394.135 788.779 L 394.337 787.693 L 394.513 786.603 L 394.662 785.508 L 394.783 784.411 L 394.878 783.310 L 394.946 782.208 L 394.986 781.104 L 395.000 780.000 L 395.000 85.000 L 570.000 85.000 L 571.104 84.986 Z" fill="black" fill-rule="evenodd"/>
</svg>
