<svg xmlns="http://www.w3.org/2000/svg" viewBox="0 0 700.000 1000.000">
  <path d="M 643.754,750.239 L 645.173,751.931 L 646.508,753.691 L 647.755,755.514 L 648.911,757.396 L 649.973,759.333 L 650.939,761.319 L 651.807,763.350 L 652.573,765.422 L 653.237,767.528 L 653.797,769.665 L 654.251,771.826 L 654.599,774.007 L 654.840,776.203 L 654.972,778.408 L 654.996,780.616 L 654.911,782.823 L 654.719,785.024 L 654.418,787.212 L 654.011,789.383 L 653.498,791.531 L 652.879,793.651 L 652.158,795.739 L 651.335,797.789 L 650.412,799.795 L 649.392,801.754 L 648.277,803.661 L 647.070,805.511 L 645.774,807.299 L 644.391,809.021 L 642.926,810.674 L 641.381,812.253 L 639.761,813.754 L 638.069,815.173 L 636.309,816.508 L 634.486,817.755 L 632.604,818.911 L 630.667,819.973 L 628.681,820.939 L 626.650,821.807 L 624.578,822.573 L 622.472,823.237 L 620.335,823.797 L 618.174,824.251 L 615.993,824.599 L 613.797,824.840 L 611.592,824.972 L 609.384,824.996 L 607.177,824.911 L 604.976,824.719 L 602.788,824.418 L 600.617,824.011 L 598.469,823.498 L 596.349,822.879 L 594.261,822.158 L 592.211,821.335 L 590.205,820.412 L 588.246,819.392 L 586.339,818.277 L 584.489,817.070 L 582.701,815.774 L 580.979,814.391 L 579.326,812.926 L 577.747,811.381 L 490.702,721.917 L 487.174,723.481 L 485.133,724.326 L 470.901,729.817 L 468.821,730.561 L 454.336,735.346 L 452.223,735.987 L 437.520,740.056 L 435.378,740.592 L 420.494,743.935 L 418.327,744.366 L 403.297,746.974 L 401.112,747.298 L 385.972,749.165 L 383.774,749.381 L 368.561,750.504 L 366.355,750.612 L 351.104,750.986 L 348.896,750.986 L 333.645,750.612 L 331.439,750.504 L 316.226,749.381 L 314.028,749.165 L 298.888,747.298 L 296.703,746.974 L 281.673,744.366 L 279.506,743.935 L 264.622,740.592 L 262.480,740.056 L 247.777,735.987 L 245.664,735.346 L 231.179,730.561 L 229.099,729.817 L 214.867,724.326 L 212.826,723.481 L 198.880,717.299 L 196.883,716.355 L 183.257,709.496 L 181.309,708.455 L 168.036,700.936 L 166.142,699.800 L 153.254,691.639 L 151.417,690.412 L 138.945,681.628 L 137.171,680.312 L 125.145,670.927 L 123.438,669.526 L 111.887,659.562 L 110.250,658.079 L 99.202,647.560 L 97.640,645.998 L 87.121,634.950 L 85.638,633.313 L 75.674,621.762 L 74.273,620.055 L 64.888,608.029 L 63.572,606.255 L 54.788,593.783 L 53.561,591.946 L 45.400,579.058 L 44.264,577.164 L 36.745,563.891 L 35.704,561.943 L 28.845,548.317 L 27.901,546.320 L 21.719,532.374 L 20.874,530.333 L 15.383,516.101 L 14.639,514.021 L 9.854,499.536 L 9.213,497.423 L 5.144,482.720 L 4.608,480.578 L 1.265,465.694 L 0.834,463.527 L -1.774,448.497 L -2.098,446.312 L -3.965,431.172 L -4.181,428.974 L -5.304,413.761 L -5.412,411.555 L -5.786,396.304 L -5.786,394.096 L -5.412,378.845 L -5.304,376.639 L -4.181,361.426 L -3.965,359.228 L -2.098,344.088 L -1.774,341.903 L 0.834,326.873 L 1.265,324.706 L 4.608,309.822 L 5.144,307.680 L 9.213,292.977 L 9.854,290.864 L 14.639,276.379 L 15.383,274.299 L 20.874,260.067 L 21.719,258.026 L 27.901,244.080 L 28.845,242.083 L 35.704,228.457 L 36.745,226.509 L 44.264,213.236 L 45.400,211.342 L 53.561,198.454 L 54.788,196.617 L 63.572,184.145 L 64.888,182.371 L 74.273,170.345 L 75.674,168.638 L 85.638,157.087 L 87.121,155.450 L 97.640,144.402 L 99.202,142.840 L 110.250,132.321 L 111.887,130.838 L 123.438,120.874 L 125.145,119.473 L 137.171,110.088 L 138.945,108.772 L 151.417,99.988 L 153.254,98.761 L 166.142,90.600 L 168.036,89.464 L 181.309,81.945 L 183.257,80.904 L 196.883,74.045 L 198.880,73.101 L 212.826,66.919 L 214.867,66.074 L 229.099,60.583 L 231.179,59.839 L 245.664,55.054 L 247.777,54.413 L 262.480,50.344 L 264.622,49.808 L 279.506,46.465 L 281.673,46.034 L 296.703,43.426 L 298.888,43.102 L 314.028,41.235 L 316.226,41.019 L 331.439,39.896 L 333.645,39.788 L 348.896,39.414 L 351.104,39.414 L 366.355,39.788 L 368.561,39.896 L 383.774,41.019 L 385.972,41.235 L 401.112,43.102 L 403.297,43.426 L 418.327,46.034 L 420.494,46.465 L 435.378,49.808 L 437.520,50.344 L 452.223,54.413 L 454.336,55.054 L 468.821,59.839 L 470.901,60.583 L 485.133,66.074 L 487.174,66.919 L 501.120,73.101 L 503.117,74.045 L 516.743,80.904 L 518.691,81.945 L 531.964,89.464 L 533.858,90.600 L 546.746,98.761 L 548.583,99.988 L 561.055,108.772 L 562.829,110.088 L 574.855,119.473 L 576.562,120.874 L 588.113,130.838 L 589.750,132.321 L 600.798,142.840 L 602.360,144.402 L 612.879,155.450 L 614.362,157.087 L 624.326,168.638 L 625.727,170.345 L 635.112,182.371 L 636.428,184.145 L 645.212,196.617 L 646.439,198.454 L 654.600,211.342 L 655.736,213.236 L 663.255,226.509 L 664.296,228.457 L 671.155,242.083 L 672.099,244.080 L 678.281,258.026 L 679.126,260.067 L 684.617,274.299 L 685.361,276.379 L 690.146,290.864 L 690.787,292.977 L 694.856,307.680 L 695.392,309.822 L 698.735,324.706 L 699.166,326.873 L 701.774,341.903 L 702.098,344.088 L 703.965,359.228 L 704.181,361.426 L 705.304,376.639 L 705.412,378.845 L 705.786,394.096 L 705.786,396.304 L 705.412,411.555 L 705.304,413.761 L 704.181,428.974 L 703.965,431.172 L 702.098,446.312 L 701.774,448.497 L 699.166,463.527 L 698.735,465.694 L 695.392,480.578 L 694.856,482.720 L 690.787,497.423 L 690.146,499.536 L 685.361,514.021 L 684.617,516.101 L 679.126,530.333 L 678.281,532.374 L 672.099,546.320 L 671.155,548.317 L 664.296,561.943 L 663.255,563.891 L 655.736,577.164 L 654.600,579.058 L 646.439,591.946 L 645.212,593.783 L 636.428,606.255 L 635.112,608.029 L 625.727,620.055 L 624.326,621.762 L 614.362,633.313 L 612.879,634.950 L 602.360,645.998 L 600.798,647.560 L 589.750,658.079 L 588.113,659.562 L 576.562,669.526 L 574.855,670.927 L 570.197,674.562 L 642.253,748.619 L 643.754,750.239 Z M 397.747,626.381 L 396.246,624.761 L 394.827,623.069 L 393.492,621.309 L 392.245,619.486 L 391.089,617.604 L 390.027,615.667 L 389.061,613.681 L 388.193,611.650 L 387.427,609.578 L 386.763,607.472 L 386.203,605.335 L 385.749,603.174 L 385.401,600.993 L 385.160,598.797 L 385.028,596.592 L 385.004,594.384 L 385.089,592.177 L 385.281,589.976 L 385.582,587.788 L 385.989,585.617 L 386.502,583.469 L 387.121,581.349 L 387.842,579.261 L 388.665,577.211 L 389.588,575.205 L 390.608,573.246 L 391.723,571.339 L 392.930,569.489 L 394.226,567.701 L 395.609,565.979 L 397.074,564.326 L 398.619,562.747 L 400.239,561.246 L 401.931,559.827 L 403.691,558.492 L 405.514,557.245 L 407.396,556.089 L 409.333,555.027 L 411.319,554.061 L 413.350,553.193 L 415.422,552.427 L 417.528,551.763 L 419.665,551.203 L 421.826,550.749 L 424.007,550.401 L 426.203,550.160 L 428.408,550.028 L 430.616,550.004 L 432.823,550.089 L 435.024,550.281 L 437.212,550.582 L 439.383,550.989 L 441.531,551.502 L 443.651,552.121 L 445.739,552.842 L 447.789,553.665 L 449.795,554.588 L 451.754,555.608 L 453.661,556.723 L 455.511,557.930 L 457.299,559.226 L 459.021,560.609 L 460.674,562.074 L 462.253,563.619 L 507.005,609.614 L 508.329,608.682 L 518.613,600.656 L 528.491,592.135 L 537.939,583.139 L 546.935,573.691 L 555.456,563.813 L 563.482,553.529 L 570.993,542.863 L 577.973,531.842 L 584.403,520.491 L 590.268,508.838 L 595.555,496.912 L 600.250,484.741 L 604.342,472.354 L 607.821,459.781 L 610.679,447.052 L 612.910,434.199 L 614.507,421.252 L 615.466,408.242 L 615.786,395.200 L 615.466,382.158 L 614.507,369.148 L 612.910,356.201 L 610.679,343.348 L 607.821,330.619 L 604.342,318.046 L 600.250,305.659 L 595.555,293.488 L 590.268,281.562 L 584.403,269.909 L 577.973,258.558 L 570.993,247.537 L 563.482,236.871 L 555.456,226.587 L 546.935,216.709 L 537.939,207.261 L 528.491,198.265 L 518.613,189.744 L 508.329,181.718 L 497.663,174.207 L 486.642,167.227 L 475.291,160.797 L 463.638,154.932 L 451.712,149.645 L 439.541,144.950 L 427.154,140.858 L 414.581,137.379 L 401.852,134.521 L 388.999,132.290 L 376.052,130.693 L 363.042,129.734 L 350.000,129.414 L 336.958,129.734 L 323.948,130.693 L 311.001,132.290 L 298.148,134.521 L 285.419,137.379 L 272.846,140.858 L 260.459,144.950 L 248.288,149.645 L 236.362,154.932 L 224.709,160.797 L 213.358,167.227 L 202.337,174.207 L 191.671,181.718 L 181.387,189.744 L 171.509,198.265 L 162.061,207.261 L 153.065,216.709 L 144.544,226.587 L 136.518,236.871 L 129.007,247.537 L 122.027,258.558 L 115.597,269.909 L 109.732,281.562 L 104.445,293.488 L 99.750,305.659 L 95.658,318.046 L 92.179,330.619 L 89.321,343.348 L 87.090,356.201 L 85.493,369.148 L 84.534,382.158 L 84.214,395.200 L 84.534,408.242 L 85.493,421.252 L 87.090,434.199 L 89.321,447.052 L 92.179,459.781 L 95.658,472.354 L 99.750,484.741 L 104.445,496.912 L 109.732,508.838 L 115.597,520.491 L 122.027,531.842 L 129.007,542.863 L 136.518,553.529 L 144.544,563.813 L 153.065,573.691 L 162.061,583.139 L 171.509,592.135 L 181.387,600.656 L 191.671,608.682 L 202.337,616.193 L 213.358,623.173 L 224.709,629.603 L 236.362,635.468 L 248.288,640.755 L 260.459,645.450 L 272.846,649.542 L 285.419,653.021 L 298.148,655.879 L 311.001,658.110 L 323.948,659.707 L 336.958,660.666 L 350.000,660.986 L 363.042,660.666 L 376.052,659.707 L 388.999,658.110 L 401.852,655.879 L 414.581,653.021 L 421.740,651.040 L 397.747,626.381 Z" fill="black" fill-rule="evenodd"/>
</svg>
