<svg xmlns="http://www.w3.org/2000/svg" width="700.000" height="1000" viewBox="0 0 700.000 1000">
  <path d="M 85.002 560.197 L 85.002 560.395 L 85.036 564.256 L 85.049 565.046 L 85.151 568.905 L 85.179 569.695 L 85.348 573.552 L 85.390 574.341 L 85.627 578.195 L 85.682 578.982 L 85.987 582.831 L 86.056 583.618 L 86.428 587.461 L 86.511 588.247 L 86.951 592.083 L 87.047 592.867 L 87.554 596.694 L 87.665 597.476 L 88.239 601.295 L 88.363 602.075 L 89.004 605.882 L 89.142 606.660 L 89.849 610.455 L 90.001 611.231 L 90.775 615.013 L 90.940 615.786 L 91.780 619.554 L 91.959 620.324 L 92.865 624.077 L 93.057 624.843 L 94.029 628.580 L 94.235 629.342 L 95.272 633.061 L 95.491 633.820 L 96.594 637.521 L 96.826 638.275 L 97.993 641.956 L 98.238 642.707 L 99.470 646.366 L 99.729 647.112 L 101.025 650.749 L 101.296 651.491 L 102.656 655.105 L 102.940 655.842 L 104.363 659.431 L 104.660 660.163 L 106.146 663.727 L 106.456 664.453 L 108.003 667.990 L 108.326 668.711 L 109.936 672.221 L 110.271 672.936 L 111.942 676.417 L 112.290 677.126 L 114.022 680.577 L 114.383 681.279 L 116.175 684.699 L 116.547 685.396 L 118.399 688.784 L 118.784 689.473 L 120.695 692.828 L 121.092 693.511 L 123.061 696.832 L 123.470 697.508 L 125.498 700.794 L 125.918 701.462 L 128.003 704.712 L 128.435 705.373 L 130.577 708.586 L 131.021 709.239 L 133.219 712.414 L 133.674 713.059 L 135.927 716.195 L 136.393 716.832 L 138.701 719.928 L 139.178 720.557 L 141.540 723.612 L 142.029 724.232 L 144.444 727.245 L 144.943 727.857 L 147.410 730.827 L 147.920 731.430 L 150.440 734.356 L 150.960 734.950 L 153.530 737.831 L 154.061 738.416 L 156.681 741.252 L 157.222 741.827 L 159.892 744.617 L 160.443 745.182 L 163.161 747.924 L 163.722 748.480 L 166.488 751.174 L 167.059 751.721 L 169.872 754.366 L 170.452 754.902 L 173.310 757.497 L 173.900 758.023 L 176.804 760.567 L 177.402 761.083 L 180.350 763.576 L 180.958 764.081 L 183.949 766.522 L 184.565 767.016 L 187.599 769.404 L 188.224 769.888 L 191.299 772.222 L 191.932 772.694 L 195.048 774.975 L 195.690 775.436 L 198.845 777.661 L 199.494 778.111 L 202.688 780.280 L 203.345 780.718 L 206.577 782.832 L 207.241 783.258 L 210.509 785.314 L 211.182 785.729 L 214.485 787.728 L 215.164 788.131 L 218.503 790.071 L 219.189 790.462 L 222.561 792.343 L 223.254 792.722 L 226.658 794.544 L 227.357 794.911 L 230.793 796.673 L 231.499 797.027 L 234.965 798.728 L 235.677 799.070 L 239.172 800.710 L 239.890 801.040 L 243.414 802.618 L 244.137 802.935 L 247.688 804.451 L 248.417 804.755 L 251.994 806.209 L 252.728 806.500 L 256.330 807.891 L 257.069 808.170 L 260.695 809.497 L 261.439 809.762 L 265.087 811.026 L 265.836 811.278 L 269.506 812.478 L 270.259 812.716 L 273.949 813.851 L 274.706 814.077 L 278.416 815.147 L 279.177 815.359 L 282.905 816.364 L 283.669 816.563 L 287.414 817.502 L 288.182 817.687 L 291.943 818.561 L 292.714 818.733 L 296.490 819.540 L 297.264 819.698 L 301.053 820.439 L 301.829 820.584 L 305.631 821.258 L 306.410 821.389 L 310.223 821.996 L 311.004 822.114 L 314.827 822.654 L 315.610 822.758 L 319.442 823.231 L 320.227 823.321 L 324.067 823.727 L 324.853 823.803 L 328.699 824.141 L 329.486 824.203 L 333.338 824.474 L 334.126 824.523 L 337.982 824.726 L 338.771 824.761 L 342.630 824.896 L 343.419 824.917 L 347.280 824.985 L 348.069 824.992 L 351.931 824.992 L 352.720 824.985 L 356.581 824.917 L 357.370 824.896 L 361.229 824.761 L 362.018 824.726 L 365.874 824.523 L 366.662 824.474 L 370.514 824.203 L 371.301 824.141 L 375.147 823.803 L 375.933 823.727 L 379.773 823.321 L 380.558 823.231 L 384.390 822.758 L 385.173 822.654 L 388.996 822.114 L 389.777 821.996 L 393.590 821.389 L 394.369 821.258 L 398.171 820.584 L 398.947 820.439 L 402.736 819.698 L 403.510 819.540 L 407.286 818.733 L 408.057 818.561 L 411.818 817.687 L 412.586 817.502 L 416.331 816.563 L 417.095 816.364 L 420.823 815.359 L 421.584 815.147 L 425.294 814.077 L 426.051 813.851 L 429.741 812.716 L 430.494 812.478 L 434.164 811.278 L 434.913 811.026 L 438.561 809.762 L 439.305 809.497 L 442.931 808.170 L 443.670 807.891 L 447.272 806.500 L 448.006 806.209 L 451.583 804.755 L 452.312 804.451 L 455.863 802.935 L 456.586 802.618 L 460.110 801.040 L 460.828 800.710 L 464.323 799.070 L 465.035 798.728 L 468.501 797.027 L 469.207 796.673 L 472.643 794.911 L 473.342 794.544 L 476.746 792.722 L 477.439 792.343 L 480.811 790.462 L 481.497 790.071 L 484.836 788.131 L 485.515 787.728 L 488.818 785.729 L 489.491 785.314 L 492.759 783.258 L 493.423 782.832 L 496.655 780.718 L 497.312 780.280 L 500.506 778.111 L 501.155 777.661 L 504.310 775.436 L 504.952 774.975 L 508.068 772.694 L 508.701 772.222 L 511.776 769.888 L 512.401 769.404 L 515.435 767.016 L 516.051 766.522 L 519.042 764.081 L 519.650 763.576 L 522.598 761.083 L 523.196 760.567 L 526.100 758.023 L 526.690 757.497 L 529.548 754.902 L 530.128 754.366 L 532.941 751.721 L 533.512 751.174 L 536.278 748.480 L 536.839 747.924 L 539.557 745.182 L 540.108 744.617 L 542.778 741.827 L 543.319 741.252 L 545.939 738.416 L 546.470 737.831 L 549.040 734.950 L 549.560 734.356 L 552.080 731.430 L 552.590 730.827 L 555.057 727.857 L 555.556 727.245 L 557.971 724.232 L 558.460 723.612 L 560.822 720.557 L 561.299 719.928 L 563.607 716.832 L 564.073 716.195 L 566.326 713.059 L 566.781 712.414 L 568.979 709.239 L 569.423 708.586 L 571.565 705.373 L 571.997 704.712 L 574.082 701.462 L 574.502 700.794 L 576.530 697.508 L 576.939 696.832 L 578.908 693.511 L 579.305 692.828 L 581.216 689.473 L 581.601 688.784 L 583.453 685.396 L 583.825 684.699 L 585.617 681.279 L 585.978 680.577 L 587.710 677.126 L 588.058 676.417 L 589.729 672.936 L 590.064 672.221 L 591.674 668.711 L 591.997 667.990 L 593.544 664.453 L 593.854 663.727 L 595.340 660.163 L 595.637 659.431 L 597.060 655.842 L 597.344 655.105 L 598.704 651.491 L 598.975 650.749 L 600.271 647.112 L 600.530 646.366 L 601.762 642.707 L 602.007 641.956 L 603.174 638.275 L 603.406 637.521 L 604.509 633.820 L 604.728 633.061 L 605.765 629.342 L 605.971 628.580 L 606.943 624.843 L 607.135 624.077 L 608.041 620.324 L 608.220 619.554 L 609.060 615.786 L 609.225 615.013 L 609.999 611.231 L 610.151 610.455 L 610.858 606.660 L 610.996 605.882 L 611.637 602.075 L 611.761 601.295 L 612.335 597.476 L 612.446 596.694 L 612.953 592.867 L 613.049 592.083 L 613.489 588.247 L 613.572 587.461 L 613.944 583.618 L 614.013 582.831 L 614.318 578.982 L 614.373 578.195 L 614.610 574.341 L 614.652 573.552 L 614.821 569.695 L 614.849 568.905 L 614.951 565.046 L 614.964 564.256 L 614.998 560.395 L 614.998 560.197 L 615.000 560.000 L 615.000 40.000 L 614.986 38.896 L 614.946 37.792 L 614.878 36.690 L 614.783 35.589 L 614.662 34.492 L 614.513 33.397 L 614.337 32.307 L 614.135 31.221 L 613.907 30.140 L 613.651 29.066 L 613.370 27.998 L 613.062 26.937 L 612.729 25.884 L 612.369 24.840 L 611.985 23.805 L 611.575 22.779 L 611.139 21.764 L 610.680 20.760 L 610.195 19.767 L 609.686 18.787 L 609.154 17.820 L 608.598 16.865 L 608.018 15.925 L 607.416 14.999 L 606.791 14.089 L 606.144 13.194 L 605.476 12.315 L 604.785 11.452 L 604.074 10.607 L 603.343 9.780 L 602.591 8.971 L 601.820 8.180 L 601.029 7.409 L 600.220 6.657 L 599.393 5.926 L 598.548 5.215 L 597.685 4.524 L 596.806 3.856 L 595.911 3.209 L 595.001 2.584 L 594.075 1.982 L 593.135 1.402 L 592.180 0.846 L 591.213 0.314 L 590.233 -0.195 L 589.240 -0.680 L 588.236 -1.139 L 587.221 -1.575 L 586.195 -1.985 L 585.160 -2.369 L 584.116 -2.729 L 583.063 -3.062 L 582.002 -3.370 L 580.934 -3.651 L 579.860 -3.907 L 578.779 -4.135 L 577.693 -4.337 L 576.603 -4.513 L 575.508 -4.662 L 574.411 -4.783 L 573.310 -4.878 L 572.208 -4.946 L 571.104 -4.986 L 570.000 -5.000 L 568.896 -4.986 L 567.792 -4.946 L 566.690 -4.878 L 565.589 -4.783 L 564.492 -4.662 L 563.397 -4.513 L 562.307 -4.337 L 561.221 -4.135 L 560.140 -3.907 L 559.066 -3.651 L 557.998 -3.370 L 556.937 -3.062 L 555.884 -2.729 L 554.840 -2.369 L 553.805 -1.985 L 552.779 -1.575 L 551.764 -1.139 L 550.760 -0.680 L 549.767 -0.195 L 548.787 0.314 L 547.820 0.846 L 546.865 1.402 L 545.925 1.982 L 544.999 2.584 L 544.089 3.209 L 543.194 3.856 L 542.315 4.524 L 541.452 5.215 L 540.607 5.926 L 539.780 6.657 L 538.971 7.409 L 538.180 8.180 L 537.409 8.971 L 536.657 9.780 L 535.926 10.607 L 535.215 11.452 L 534.524 12.315 L 533.856 13.194 L 533.209 14.089 L 532.584 14.999 L 531.982 15.925 L 531.402 16.865 L 530.846 17.820 L 530.314 18.787 L 529.805 19.767 L 529.320 20.760 L 528.861 21.764 L 528.425 22.779 L 528.015 23.805 L 527.631 24.840 L 527.271 25.884 L 526.938 26.937 L 526.630 27.998 L 526.349 29.066 L 526.093 30.140 L 525.865 31.221 L 525.663 32.307 L 525.487 33.397 L 525.338 34.492 L 525.217 35.589 L 525.122 36.690 L 525.054 37.792 L 525.014 38.896 L 525.000 40.000 L 525.000 559.803 L 524.971 563.071 L 524.890 566.141 L 524.756 569.210 L 524.567 572.275 L 524.325 575.337 L 524.029 578.394 L 523.679 581.445 L 523.276 584.490 L 522.820 587.527 L 522.310 590.556 L 521.747 593.575 L 521.131 596.584 L 520.463 599.582 L 519.742 602.568 L 518.969 605.540 L 518.144 608.498 L 517.267 611.442 L 516.338 614.369 L 515.358 617.280 L 514.328 620.173 L 513.246 623.048 L 512.115 625.903 L 510.933 628.738 L 509.702 631.552 L 508.422 634.344 L 507.092 637.113 L 505.715 639.858 L 504.289 642.578 L 502.816 645.273 L 501.296 647.942 L 499.730 650.584 L 498.117 653.198 L 496.458 655.783 L 494.755 658.338 L 493.007 660.864 L 491.215 663.358 L 489.379 665.820 L 487.500 668.250 L 485.579 670.646 L 483.617 673.009 L 481.613 675.336 L 479.568 677.628 L 477.484 679.884 L 475.361 682.103 L 473.198 684.284 L 470.998 686.427 L 468.761 688.531 L 466.487 690.596 L 464.177 692.620 L 461.832 694.603 L 459.452 696.545 L 457.039 698.445 L 454.593 700.302 L 452.115 702.116 L 449.605 703.886 L 447.064 705.612 L 444.494 707.293 L 441.894 708.929 L 439.266 710.519 L 436.611 712.062 L 433.929 713.559 L 431.221 715.008 L 428.488 716.410 L 425.731 717.763 L 422.951 719.068 L 420.148 720.324 L 417.323 721.530 L 414.478 722.687 L 411.613 723.793 L 408.729 724.849 L 405.827 725.855 L 402.908 726.809 L 399.972 727.712 L 397.021 728.563 L 394.056 729.362 L 391.076 730.109 L 388.085 730.804 L 385.081 731.446 L 382.067 732.035 L 379.043 732.571 L 376.010 733.055 L 372.969 733.484 L 369.921 733.861 L 366.866 734.184 L 363.807 734.453 L 360.743 734.668 L 357.676 734.830 L 354.607 734.938 L 351.536 734.992 L 348.464 734.992 L 345.393 734.938 L 342.324 734.830 L 339.257 734.668 L 336.193 734.453 L 333.134 734.184 L 330.079 733.861 L 327.031 733.484 L 323.990 733.055 L 320.957 732.571 L 317.933 732.035 L 314.919 731.446 L 311.915 730.804 L 308.924 730.109 L 305.944 729.362 L 302.979 728.563 L 300.028 727.712 L 297.092 726.809 L 294.173 725.855 L 291.271 724.849 L 288.387 723.793 L 285.522 722.687 L 282.677 721.530 L 279.852 720.324 L 277.049 719.068 L 274.269 717.763 L 271.512 716.410 L 268.779 715.008 L 266.071 713.559 L 263.389 712.062 L 260.734 710.519 L 258.106 708.929 L 255.506 707.293 L 252.936 705.612 L 250.395 703.886 L 247.885 702.116 L 245.407 700.302 L 242.961 698.445 L 240.548 696.545 L 238.168 694.603 L 235.823 692.620 L 233.513 690.596 L 231.239 688.531 L 229.002 686.427 L 226.802 684.284 L 224.639 682.103 L 222.516 679.884 L 220.432 677.628 L 218.387 675.336 L 216.383 673.009 L 214.421 670.646 L 212.500 668.250 L 210.621 665.820 L 208.785 663.358 L 206.993 660.864 L 205.245 658.338 L 203.542 655.783 L 201.883 653.198 L 200.270 650.584 L 198.704 647.942 L 197.184 645.273 L 195.711 642.578 L 194.285 639.858 L 192.908 637.113 L 191.578 634.344 L 190.298 631.552 L 189.067 628.738 L 187.885 625.903 L 186.754 623.048 L 185.672 620.173 L 184.642 617.280 L 183.662 614.369 L 182.733 611.442 L 181.856 608.498 L 181.031 605.540 L 180.258 602.568 L 179.537 599.582 L 178.869 596.584 L 178.253 593.575 L 177.690 590.556 L 177.180 587.527 L 176.724 584.490 L 176.321 581.445 L 175.971 578.394 L 175.675 575.337 L 175.433 572.275 L 175.244 569.210 L 175.110 566.141 L 175.029 563.071 L 175.000 559.803 L 175.000 40.000 L 174.986 38.896 L 174.946 37.792 L 174.878 36.690 L 174.783 35.589 L 174.662 34.492 L 174.513 33.397 L 174.337 32.307 L 174.135 31.221 L 173.907 30.140 L 173.651 29.066 L 173.370 27.998 L 173.062 26.937 L 172.729 25.884 L 172.369 24.840 L 171.985 23.805 L 171.575 22.779 L 171.139 21.764 L 170.680 20.760 L 170.195 19.767 L 169.686 18.787 L 169.154 17.820 L 168.598 16.865 L 168.018 15.925 L 167.416 14.999 L 166.791 14.089 L 166.144 13.194 L 165.476 12.315 L 164.785 11.452 L 164.074 10.607 L 163.343 9.780 L 162.591 8.971 L 161.820 8.180 L 161.029 7.409 L 160.220 6.657 L 159.393 5.926 L 158.548 5.215 L 157.685 4.524 L 156.806 3.856 L 155.911 3.209 L 155.001 2.584 L 154.075 1.982 L 153.135 1.402 L 152.180 0.846 L 151.213 0.314 L 150.233 -0.195 L 149.240 -0.680 L 148.236 -1.139 L 147.221 -1.575 L 146.195 -1.985 L 145.160 -2.369 L 144.116 -2.729 L 143.063 -3.062 L 142.002 -3.370 L 140.934 -3.651 L 139.860 -3.907 L 138.779 -4.135 L 137.693 -4.337 L 136.603 -4.513 L 135.508 -4.662 L 134.411 -4.783 L 133.310 -4.878 L 132.208 -4.946 L 131.104 -4.986 L 130.000 -5.000 L 128.896 -4.986 L 127.792 -4.946 L 126.690 -4.878 L 125.589 -4.783 L 124.492 -4.662 L 123.397 -4.513 L 122.307 -4.337 L 121.221 -4.135 L 120.140 -3.907 L 119.066 -3.651 L 117.998 -3.370 L 116.937 -3.062 L 115.884 -2.729 L 114.840 -2.369 L 113.805 -1.985 L 112.779 -1.575 L 111.764 -1.139 L 110.760 -0.680 L 109.767 -0.195 L 108.787 0.314 L 107.820 0.846 L 106.865 1.402 L 105.925 1.982 L 104.999 2.584 L 104.089 3.209 L 103.194 3.856 L 102.315 4.524 L 101.452 5.215 L 100.607 5.926 L 99.780 6.657 L 98.971 7.409 L 98.180 8.180 L 97.409 8.971 L 96.657 9.780 L 95.926 10.607 L 95.215 11.452 L 94.524 12.315 L 93.856 13.194 L 93.209 14.089 L 92.584 14.999 L 91.982 15.925 L 91.402 16.865 L 90.846 17.820 L 90.314 18.787 L 89.805 19.767 L 89.320 20.760 L 88.861 21.764 L 88.425 22.779 L 88.015 23.805 L 87.631 24.840 L 87.271 25.884 L 86.938 26.937 L 86.630 27.998 L 86.349 29.066 L 86.093 30.140 L 85.865 31.221 L 85.663 32.307 L 85.487 33.397 L 85.338 34.492 L 85.217 35.589 L 85.122 36.690 L 85.054 37.792 L 85.014 38.896 L 85.000 40.000 L 85.000 560.000 L 85.002 560.197 Z" fill="black" fill-rule="evenodd"/>
</svg>
