<svg xmlns="http://www.w3.org/2000/svg" viewBox="0 0 700.000 1000">
  <path d="M 456.820 65.032 L 455.865 65.053 L 453.123 65.141 L 452.209 65.180 L 449.413 65.327 L 448.536 65.382 L 445.690 65.587 L 444.846 65.656 L 441.952 65.920 L 441.138 66.001 L 438.198 66.323 L 437.412 66.416 L 434.428 66.796 L 433.668 66.900 L 430.642 67.337 L 429.905 67.450 L 426.840 67.946 L 426.123 68.068 L 423.021 68.620 L 422.324 68.751 L 419.188 69.361 L 418.507 69.499 L 415.338 70.166 L 414.673 70.311 L 411.475 71.036 L 410.824 71.188 L 407.598 71.970 L 406.959 72.129 L 403.707 72.967 L 403.080 73.134 L 399.805 74.028 L 399.188 74.202 L 395.893 75.153 L 395.284 75.333 L 391.970 76.340 L 391.369 76.527 L 388.039 77.590 L 387.445 77.785 L 384.101 78.904 L 383.512 79.105 L 380.158 80.280 L 379.573 80.489 L 376.210 81.719 L 375.629 81.935 L 372.259 83.221 L 371.682 83.445 L 368.307 84.786 L 367.732 85.018 L 364.355 86.414 L 363.783 86.655 L 360.405 88.106 L 359.834 88.356 L 356.459 89.861 L 355.889 90.120 L 352.518 91.679 L 351.948 91.948 L 348.585 93.562 L 348.014 93.841 L 344.660 95.509 L 344.088 95.799 L 340.746 97.521 L 340.173 97.822 L 336.845 99.598 L 336.269 99.910 L 332.958 101.740 L 332.380 102.065 L 329.087 103.948 L 328.507 104.285 L 325.235 106.222 L 324.652 106.573 L 321.403 108.563 L 320.817 108.928 L 317.593 110.970 L 317.004 111.350 L 313.808 113.446 L 313.215 113.842 L 310.050 115.990 L 309.453 116.402 L 306.320 118.603 L 305.720 119.032 L 302.622 121.285 L 302.017 121.733 L 298.956 124.038 L 298.348 124.505 L 295.326 126.862 L 294.714 127.348 L 291.735 129.757 L 291.119 130.264 L 288.183 132.725 L 287.564 133.254 L 284.675 135.766 L 284.052 136.318 L 281.212 138.882 L 280.587 139.457 L 277.797 142.072 L 277.169 142.671 L 274.433 145.337 L 273.804 145.963 L 271.123 148.679 L 270.493 149.331 L 267.870 152.099 L 267.239 152.779 L 264.676 155.597 L 264.046 156.305 L 261.546 159.173 L 260.917 159.911 L 258.482 162.830 L 257.855 163.598 L 255.487 166.566 L 254.865 167.365 L 252.566 170.384 L 251.948 171.215 L 249.722 174.283 L 249.110 175.147 L 246.958 178.265 L 246.354 179.161 L 244.278 182.329 L 243.685 183.259 L 241.687 186.475 L 241.105 187.439 L 239.189 190.704 L 238.621 191.702 L 236.788 195.016 L 236.235 196.047 L 234.487 199.410 L 233.952 200.475 L 232.293 203.887 L 231.777 204.984 L 230.208 208.444 L 229.714 209.574 L 228.238 213.082 L 227.768 214.242 L 226.387 217.798 L 225.944 218.989 L 224.659 222.593 L 224.245 223.811 L 223.060 227.463 L 222.676 228.707 L 221.593 232.407 L 221.242 233.676 L 220.263 237.422 L 219.946 238.713 L 219.074 242.507 L 218.793 243.817 L 218.030 247.658 L 217.787 248.984 L 217.134 252.872 L 216.930 254.212 L 216.391 258.146 L 216.227 259.496 L 215.804 263.477 L 215.681 264.834 L 215.375 268.862 L 215.293 270.222 L 215.108 274.296 L 215.067 275.657 L 215.005 279.776 L 215.006 281.210 L 215.092 286.317 L 215.145 287.864 L 215.399 292.830 L 215.508 294.415 L 215.927 299.244 L 216.097 300.861 L 216.676 305.556 L 216.784 306.378 L 216.908 307.197 L 217.643 311.762 L 217.784 312.592 L 217.941 313.419 L 218.826 317.858 L 219.001 318.692 L 219.191 319.522 L 220.223 323.839 L 220.430 324.671 L 220.654 325.500 L 221.828 329.697 L 222.068 330.524 L 222.324 331.347 L 223.636 335.428 L 223.908 336.245 L 224.194 337.056 L 225.641 341.026 L 225.941 341.827 L 226.257 342.622 L 227.832 346.483 L 228.160 347.265 L 228.502 348.040 L 230.202 351.796 L 230.554 352.554 L 230.919 353.305 L 232.740 356.960 L 233.498 358.414 L 235.434 361.971 L 236.225 363.364 L 238.274 366.826 L 239.090 368.154 L 241.246 371.525 L 242.080 372.783 L 244.339 376.068 L 245.183 377.254 L 247.540 380.455 L 248.387 381.567 L 250.838 384.689 L 251.680 385.728 L 254.221 388.773 L 255.051 389.739 L 257.678 392.711 L 258.490 393.606 L 261.198 396.508 L 261.988 397.334 L 264.772 400.170 L 265.534 400.929 L 268.391 403.703 L 269.121 404.397 L 272.046 407.113 L 272.741 407.745 L 275.729 410.407 L 276.386 410.980 L 279.433 413.590 L 280.050 414.108 L 283.152 416.670 L 283.725 417.136 L 286.878 419.654 L 287.407 420.070 L 290.606 422.547 L 291.090 422.916 L 294.330 425.356 L 294.767 425.681 L 298.044 428.087 L 298.435 428.370 L 301.745 430.746 L 302.087 430.990 L 305.426 433.339 L 305.720 433.545 L 309.083 435.871 L 309.328 436.040 L 312.711 438.347 L 312.908 438.481 L 316.306 440.773 L 316.454 440.872 L 319.862 443.151 L 319.961 443.217 L 323.376 445.488 L 323.426 445.521 L 326.844 447.787 L 330.235 450.035 L 333.570 452.252 L 336.844 454.441 L 340.054 456.606 L 343.194 458.748 L 346.260 460.869 L 349.248 462.973 L 352.154 465.060 L 354.974 467.132 L 357.704 469.190 L 360.340 471.234 L 362.878 473.267 L 365.317 475.287 L 367.652 477.295 L 369.883 479.291 L 372.006 481.276 L 374.022 483.249 L 375.930 485.212 L 377.731 487.163 L 379.425 489.105 L 381.014 491.040 L 382.501 492.968 L 383.890 494.895 L 385.184 496.824 L 386.387 498.761 L 387.503 500.713 L 388.537 502.689 L 389.494 504.699 L 390.375 506.753 L 391.185 508.865 L 391.923 511.047 L 392.591 513.314 L 393.186 515.680 L 393.707 518.159 L 394.148 520.766 L 394.505 523.515 L 394.770 526.418 L 394.936 529.486 L 394.995 532.846 L 394.953 536.234 L 394.825 539.666 L 394.614 543.024 L 394.324 546.309 L 393.956 549.524 L 393.513 552.672 L 392.998 555.753 L 392.412 558.772 L 391.757 561.730 L 391.034 564.629 L 390.246 567.471 L 389.394 570.260 L 388.478 572.996 L 387.500 575.683 L 386.461 578.321 L 385.361 580.914 L 384.202 583.462 L 382.984 585.967 L 381.707 588.431 L 380.373 590.855 L 378.981 593.240 L 377.532 595.588 L 376.027 597.899 L 374.465 600.173 L 372.848 602.412 L 371.176 604.616 L 369.450 606.785 L 367.669 608.919 L 365.836 611.019 L 363.950 613.085 L 362.012 615.116 L 360.023 617.112 L 357.985 619.073 L 355.897 620.999 L 353.762 622.889 L 351.581 624.744 L 349.354 626.562 L 347.083 628.343 L 344.769 630.086 L 342.415 631.792 L 340.021 633.459 L 337.589 635.088 L 335.120 636.677 L 332.618 638.226 L 330.082 639.735 L 327.516 641.203 L 324.921 642.630 L 322.299 644.015 L 319.651 645.358 L 316.981 646.658 L 314.290 647.915 L 311.580 649.129 L 308.854 650.300 L 306.113 651.426 L 303.360 652.508 L 300.597 653.545 L 297.826 654.538 L 295.050 655.486 L 292.271 656.389 L 289.492 657.246 L 286.714 658.058 L 283.941 658.824 L 281.174 659.545 L 278.417 660.220 L 275.671 660.850 L 272.940 661.435 L 270.226 661.973 L 267.532 662.467 L 264.860 662.916 L 262.213 663.319 L 259.594 663.678 L 257.006 663.993 L 254.452 664.264 L 251.934 664.492 L 249.456 664.676 L 247.020 664.818 L 244.631 664.919 L 242.290 664.979 L 239.614 665.002 L 238.509 665.025 L 237.406 665.075 L 236.304 665.152 L 235.205 665.256 L 234.108 665.387 L 233.015 665.545 L 231.926 665.730 L 230.842 665.942 L 229.764 666.180 L 228.692 666.444 L 227.626 666.735 L 226.568 667.051 L 225.518 667.394 L 224.477 667.762 L 223.445 668.156 L 222.423 668.575 L 221.412 669.019 L 220.411 669.487 L 219.423 669.980 L 218.447 670.497 L 217.484 671.038 L 216.535 671.602 L 215.600 672.190 L 214.679 672.800 L 213.774 673.433 L 212.884 674.087 L 212.011 674.763 L 211.155 675.461 L 210.316 676.179 L 209.495 676.918 L 208.692 677.676 L 207.908 678.455 L 207.144 679.252 L 206.399 680.067 L 205.674 680.901 L 204.971 681.752 L 204.288 682.620 L 203.627 683.505 L 202.988 684.405 L 202.371 685.322 L 201.776 686.252 L 201.205 687.198 L 200.657 688.157 L 200.133 689.129 L 199.633 690.113 L 199.157 691.110 L 198.706 692.118 L 198.279 693.137 L 197.878 694.166 L 197.502 695.204 L 197.152 696.252 L 196.827 697.307 L 196.529 698.371 L 196.256 699.441 L 196.010 700.518 L 195.791 701.600 L 195.598 702.688 L 195.432 703.780 L 195.293 704.875 L 195.180 705.974 L 195.095 707.075 L 195.037 708.178 L 195.006 709.282 L 195.002 710.386 L 195.025 711.491 L 195.075 712.594 L 195.152 713.696 L 195.256 714.795 L 195.387 715.892 L 195.545 716.985 L 195.730 718.074 L 195.942 719.158 L 196.180 720.236 L 196.444 721.308 L 196.735 722.374 L 197.051 723.432 L 197.394 724.482 L 197.762 725.523 L 198.156 726.555 L 198.575 727.577 L 199.019 728.588 L 199.487 729.589 L 199.980 730.577 L 200.497 731.553 L 201.038 732.516 L 201.602 733.465 L 202.190 734.400 L 202.800 735.321 L 203.433 736.226 L 204.087 737.116 L 204.763 737.989 L 205.461 738.845 L 206.179 739.684 L 206.918 740.505 L 207.676 741.308 L 208.455 742.092 L 209.252 742.856 L 210.067 743.601 L 210.901 744.326 L 211.752 745.029 L 212.620 745.712 L 213.505 746.373 L 214.405 747.012 L 215.322 747.629 L 216.252 748.224 L 217.198 748.795 L 218.157 749.343 L 219.129 749.867 L 220.113 750.367 L 221.110 750.843 L 222.118 751.294 L 223.137 751.721 L 224.166 752.122 L 225.204 752.498 L 226.252 752.848 L 227.307 753.173 L 228.371 753.471 L 229.441 753.744 L 230.518 753.990 L 231.600 754.209 L 232.688 754.402 L 233.780 754.568 L 234.875 754.707 L 235.974 754.820 L 237.075 754.905 L 238.178 754.963 L 239.282 754.994 L 240.386 754.998 L 243.443 754.972 L 244.204 754.959 L 247.297 754.880 L 248.042 754.855 L 251.170 754.723 L 251.902 754.687 L 255.062 754.502 L 255.781 754.454 L 258.972 754.217 L 259.679 754.158 L 262.899 753.868 L 263.596 753.799 L 266.843 753.455 L 267.531 753.376 L 270.802 752.978 L 271.481 752.891 L 274.776 752.439 L 275.448 752.342 L 278.763 751.836 L 279.428 751.729 L 282.763 751.170 L 283.422 751.054 L 286.774 750.440 L 287.428 750.315 L 290.794 749.646 L 291.445 749.512 L 294.824 748.789 L 295.471 748.646 L 298.862 747.868 L 299.506 747.715 L 302.906 746.883 L 303.547 746.721 L 306.955 745.833 L 307.594 745.661 L 311.007 744.718 L 311.646 744.536 L 315.062 743.538 L 315.700 743.346 L 319.118 742.292 L 319.756 742.090 L 323.173 740.980 L 323.811 740.767 L 327.226 739.602 L 327.865 739.378 L 331.275 738.156 L 331.915 737.921 L 335.319 736.643 L 335.961 736.397 L 339.356 735.062 L 340.000 734.803 L 343.385 733.412 L 344.031 733.141 L 347.404 731.693 L 348.052 731.409 L 351.411 729.904 L 352.062 729.607 L 355.405 728.045 L 356.058 727.733 L 359.383 726.114 L 360.040 725.788 L 363.345 724.111 L 364.004 723.770 L 367.288 722.035 L 367.950 721.678 L 371.209 719.886 L 371.875 719.513 L 375.109 717.663 L 375.777 717.273 L 378.983 715.365 L 379.655 714.957 L 382.831 712.991 L 383.506 712.565 L 386.651 710.540 L 387.328 710.096 L 390.439 708.012 L 391.119 707.548 L 394.194 705.406 L 394.877 704.921 L 397.915 702.721 L 398.599 702.215 L 401.597 699.955 L 402.283 699.428 L 405.240 697.109 L 405.926 696.560 L 408.840 694.181 L 409.527 693.609 L 412.395 691.171 L 413.082 690.575 L 415.903 688.077 L 416.589 687.458 L 419.361 684.900 L 420.044 684.256 L 422.765 681.638 L 423.446 680.969 L 426.114 678.291 L 426.792 677.596 L 429.405 674.858 L 430.077 674.137 L 432.633 671.338 L 433.300 670.591 L 435.797 667.732 L 436.457 666.959 L 438.893 664.038 L 439.544 663.238 L 441.918 660.257 L 442.560 659.431 L 444.869 656.388 L 445.500 655.535 L 447.742 652.431 L 448.360 651.552 L 450.534 648.386 L 451.138 647.482 L 453.241 644.254 L 453.831 643.325 L 455.861 640.035 L 456.434 639.081 L 458.390 635.729 L 458.944 634.751 L 460.824 631.337 L 461.358 630.336 L 463.159 626.860 L 463.673 625.837 L 465.394 622.298 L 465.885 621.254 L 467.523 617.652 L 467.990 616.589 L 469.544 612.925 L 469.986 611.844 L 471.454 608.117 L 471.870 607.020 L 473.250 603.229 L 473.638 602.118 L 474.928 598.264 L 475.288 597.140 L 476.486 593.222 L 476.816 592.088 L 477.920 588.106 L 478.221 586.963 L 479.229 582.918 L 479.499 581.769 L 480.410 577.659 L 480.649 576.506 L 481.460 572.332 L 481.669 571.176 L 482.377 566.938 L 482.555 565.782 L 483.160 561.480 L 483.307 560.326 L 483.807 555.959 L 483.923 554.809 L 484.315 550.377 L 484.401 549.233 L 484.683 544.736 L 484.740 543.601 L 484.911 539.038 L 484.939 537.913 L 484.997 533.285 L 484.993 531.932 L 484.907 527.080 L 484.849 525.452 L 484.594 520.735 L 484.542 519.901 L 484.473 519.068 L 484.055 514.481 L 483.969 513.631 L 483.867 512.782 L 483.288 508.322 L 483.168 507.460 L 483.031 506.601 L 482.297 502.264 L 482.141 501.395 L 481.968 500.529 L 481.083 496.313 L 480.891 495.442 L 480.682 494.575 L 479.649 490.475 L 479.422 489.608 L 479.177 488.746 L 478.003 484.758 L 477.741 483.900 L 477.462 483.048 L 476.149 479.169 L 475.855 478.326 L 475.543 477.488 L 474.097 473.715 L 473.772 472.892 L 473.431 472.075 L 471.855 468.404 L 471.503 467.604 L 471.136 466.812 L 469.435 463.240 L 469.060 462.469 L 468.669 461.706 L 466.849 458.228 L 466.453 457.490 L 466.044 456.759 L 464.107 453.372 L 463.273 451.974 L 461.225 448.675 L 460.370 447.350 L 458.214 444.136 L 457.347 442.889 L 455.088 439.755 L 454.217 438.587 L 451.860 435.530 L 450.993 434.441 L 448.541 431.457 L 447.686 430.447 L 445.144 427.533 L 444.307 426.599 L 441.680 423.752 L 440.867 422.893 L 438.159 420.108 L 437.374 419.321 L 434.590 416.596 L 433.839 415.877 L 430.982 413.207 L 430.268 412.555 L 427.344 409.937 L 426.670 409.346 L 423.682 406.776 L 423.051 406.244 L 420.004 403.719 L 419.417 403.242 L 416.315 400.759 L 415.775 400.333 L 412.623 397.887 L 412.130 397.511 L 408.932 395.099 L 408.487 394.769 L 405.247 392.388 L 404.851 392.101 L 401.574 389.747 L 401.228 389.501 L 397.917 387.170 L 397.620 386.963 L 394.282 384.653 L 394.034 384.483 L 390.672 382.189 L 390.474 382.055 L 387.091 379.774 L 386.943 379.674 L 383.545 377.402 L 383.447 377.337 L 380.038 375.070 L 379.989 375.038 L 376.574 372.774 L 373.181 370.525 L 369.840 368.303 L 366.555 366.106 L 363.329 363.931 L 360.168 361.775 L 357.075 359.635 L 354.055 357.509 L 351.111 355.396 L 348.248 353.294 L 345.469 351.202 L 342.777 349.117 L 340.177 347.041 L 337.670 344.970 L 335.260 342.906 L 332.948 340.847 L 330.736 338.793 L 328.627 336.744 L 326.619 334.698 L 324.713 332.655 L 322.908 330.613 L 321.203 328.571 L 319.596 326.525 L 318.085 324.473 L 316.666 322.410 L 315.337 320.330 L 314.093 318.228 L 312.931 316.094 L 311.849 313.922 L 310.843 311.699 L 309.911 309.415 L 309.052 307.058 L 308.267 304.616 L 307.556 302.075 L 306.922 299.421 L 306.367 296.643 L 305.898 293.726 L 305.521 290.660 L 305.241 287.432 L 305.066 284.032 L 305.006 280.416 L 305.047 277.694 L 305.170 274.981 L 305.372 272.313 L 305.651 269.685 L 306.006 267.096 L 306.434 264.542 L 306.936 262.019 L 307.509 259.526 L 308.153 257.059 L 308.868 254.617 L 309.653 252.197 L 310.509 249.797 L 311.433 247.416 L 312.428 245.053 L 313.492 242.707 L 314.625 240.377 L 315.828 238.062 L 317.100 235.762 L 318.441 233.477 L 319.850 231.208 L 321.328 228.954 L 322.873 226.716 L 324.485 224.495 L 326.162 222.291 L 327.905 220.106 L 329.713 217.940 L 331.583 215.795 L 333.514 213.670 L 335.506 211.568 L 337.557 209.490 L 339.665 207.436 L 341.828 205.409 L 344.045 203.408 L 346.313 201.435 L 348.631 199.492 L 350.997 197.580 L 353.408 195.698 L 355.862 193.850 L 358.357 192.035 L 360.891 190.255 L 363.462 188.511 L 366.066 186.803 L 368.701 185.133 L 371.365 183.501 L 374.056 181.909 L 376.770 180.356 L 379.505 178.845 L 382.259 177.376 L 385.028 175.949 L 387.810 174.565 L 390.603 173.225 L 393.402 171.930 L 396.206 170.679 L 399.011 169.474 L 401.815 168.316 L 404.615 167.204 L 407.407 166.139 L 410.189 165.122 L 412.957 164.153 L 415.709 163.232 L 418.441 162.360 L 421.149 161.537 L 423.831 160.763 L 426.483 160.039 L 429.101 159.364 L 431.682 158.739 L 434.223 158.163 L 436.718 157.638 L 439.166 157.161 L 441.561 156.734 L 443.899 156.356 L 446.175 156.027 L 448.387 155.746 L 450.527 155.511 L 452.593 155.323 L 454.578 155.180 L 456.477 155.080 L 458.284 155.022 L 460.494 154.997 L 461.598 154.972 L 462.701 154.919 L 463.802 154.839 L 464.902 154.732 L 465.998 154.598 L 467.091 154.438 L 468.179 154.250 L 469.263 154.036 L 470.341 153.796 L 471.412 153.529 L 472.477 153.236 L 473.534 152.916 L 474.583 152.571 L 475.624 152.201 L 476.655 151.805 L 477.676 151.383 L 478.686 150.937 L 479.685 150.466 L 480.672 149.971 L 481.647 149.451 L 482.609 148.908 L 483.557 148.342 L 484.490 147.752 L 485.410 147.140 L 486.313 146.505 L 487.201 145.848 L 488.073 145.170 L 488.928 144.470 L 489.765 143.750 L 490.584 143.009 L 491.385 142.249 L 492.167 141.469 L 492.929 140.670 L 493.672 139.853 L 494.395 139.017 L 495.096 138.164 L 495.777 137.295 L 496.436 136.408 L 497.073 135.506 L 497.688 134.589 L 498.280 133.656 L 498.849 132.710 L 499.395 131.750 L 499.917 130.776 L 500.415 129.790 L 500.888 128.793 L 501.337 127.784 L 501.761 126.764 L 502.160 125.734 L 502.533 124.694 L 502.881 123.646 L 503.203 122.590 L 503.499 121.526 L 503.769 120.455 L 504.012 119.377 L 504.229 118.294 L 504.419 117.207 L 504.583 116.114 L 504.719 115.018 L 504.829 113.919 L 504.912 112.818 L 504.967 111.715 L 504.996 110.611 L 504.997 109.506 L 504.972 108.402 L 504.919 107.299 L 504.839 106.198 L 504.732 105.098 L 504.598 104.002 L 504.438 102.909 L 504.250 101.821 L 504.036 100.737 L 503.796 99.659 L 503.529 98.588 L 503.236 97.523 L 502.916 96.466 L 502.571 95.417 L 502.201 94.376 L 501.805 93.345 L 501.383 92.324 L 500.937 91.314 L 500.466 90.315 L 499.971 89.328 L 499.451 88.353 L 498.908 87.391 L 498.342 86.443 L 497.752 85.510 L 497.140 84.590 L 496.505 83.687 L 495.848 82.799 L 495.170 81.927 L 494.470 81.072 L 493.750 80.235 L 493.009 79.416 L 492.249 78.615 L 491.469 77.833 L 490.670 77.071 L 489.853 76.328 L 489.017 75.605 L 488.164 74.904 L 487.295 74.223 L 486.408 73.564 L 485.506 72.927 L 484.589 72.312 L 483.656 71.720 L 482.710 71.151 L 481.750 70.605 L 480.776 70.083 L 479.790 69.585 L 478.793 69.112 L 477.784 68.663 L 476.764 68.239 L 475.734 67.840 L 474.694 67.467 L 473.646 67.119 L 472.590 66.797 L 471.526 66.501 L 470.455 66.231 L 469.377 65.988 L 468.294 65.771 L 467.207 65.581 L 466.114 65.417 L 465.018 65.281 L 463.919 65.171 L 462.818 65.088 L 461.715 65.033 L 460.611 65.004 L 459.506 65.003 L 456.820 65.032 Z" fill="black" fill-rule="evenodd"/>
</svg>
