<svg xmlns="http://www.w3.org/2000/svg" viewBox="0 0 700.000 1000">
  <path d="M 205.580 787.203 L 205.770 788.288 L 205.986 789.368 L 206.228 790.443 L 206.497 791.511 L 206.792 792.572 L 207.112 793.626 L 207.459 794.671 L 207.831 795.708 L 208.228 796.735 L 208.650 797.753 L 209.097 798.759 L 209.568 799.755 L 210.064 800.738 L 210.583 801.709 L 211.126 802.668 L 211.693 803.612 L 212.282 804.543 L 212.894 805.458 L 213.528 806.359 L 214.184 807.244 L 214.862 808.112 L 215.560 808.964 L 216.279 809.798 L 217.019 810.614 L 217.778 811.412 L 218.556 812.191 L 219.353 812.951 L 220.169 813.691 L 221.003 814.411 L 221.853 815.111 L 222.721 815.789 L 223.605 816.446 L 224.505 817.081 L 225.420 817.694 L 226.350 818.284 L 227.294 818.852 L 228.252 819.396 L 229.223 819.916 L 230.206 820.413 L 231.201 820.885 L 232.207 821.333 L 233.224 821.756 L 234.251 822.154 L 235.287 822.527 L 236.332 822.874 L 237.386 823.196 L 238.447 823.492 L 239.515 823.761 L 240.589 824.005 L 241.668 824.222 L 242.753 824.413 L 243.842 824.577 L 244.935 824.714 L 246.031 824.825 L 247.129 824.908 L 248.229 824.965 L 249.330 824.995 L 250.432 824.998 L 251.533 824.974 L 252.633 824.923 L 253.732 824.845 L 254.828 824.740 L 255.921 824.609 L 257.011 824.450 L 258.097 824.266 L 259.178 824.054 L 260.254 823.816 L 261.323 823.552 L 262.385 823.262 L 263.440 822.946 L 264.487 822.604 L 265.526 822.237 L 266.555 821.844 L 267.574 821.427 L 268.583 820.984 L 269.580 820.517 L 270.566 820.026 L 271.539 819.510 L 272.500 818.971 L 273.447 818.409 L 274.380 817.824 L 275.298 817.216 L 276.201 816.585 L 277.089 815.933 L 277.960 815.259 L 278.815 814.565 L 279.652 813.849 L 280.472 813.113 L 281.273 812.357 L 282.055 811.582 L 282.819 810.788 L 283.562 809.976 L 284.286 809.146 L 284.989 808.298 L 285.671 807.433 L 286.332 806.552 L 286.971 805.655 L 287.588 804.742 L 288.182 803.815 L 288.753 802.873 L 289.301 801.918 L 289.826 800.950 L 290.327 799.969 L 290.804 798.976 L 291.256 797.971 L 291.683 796.956 L 292.086 795.931 L 292.463 794.896 L 292.815 793.853 L 293.141 792.801 L 293.441 791.741 L 350.000 582.474 L 406.559 791.741 L 406.859 792.801 L 407.185 793.853 L 407.537 794.896 L 407.914 795.931 L 408.317 796.956 L 408.744 797.971 L 409.196 798.976 L 409.673 799.969 L 410.174 800.950 L 410.699 801.918 L 411.247 802.873 L 411.818 803.815 L 412.412 804.742 L 413.029 805.655 L 413.668 806.552 L 414.329 807.433 L 415.011 808.298 L 415.714 809.146 L 416.438 809.976 L 417.181 810.788 L 417.945 811.582 L 418.727 812.357 L 419.528 813.113 L 420.348 813.849 L 421.185 814.565 L 422.040 815.259 L 422.911 815.933 L 423.799 816.585 L 424.702 817.216 L 425.620 817.824 L 426.553 818.409 L 427.500 818.971 L 428.461 819.510 L 429.434 820.026 L 430.420 820.517 L 431.417 820.984 L 432.426 821.427 L 433.445 821.844 L 434.474 822.237 L 435.513 822.604 L 436.560 822.946 L 437.615 823.262 L 438.677 823.552 L 439.746 823.816 L 440.822 824.054 L 441.903 824.266 L 442.989 824.450 L 444.079 824.609 L 445.172 824.740 L 446.268 824.845 L 447.367 824.923 L 448.467 824.974 L 449.568 824.998 L 450.670 824.995 L 451.771 824.965 L 452.871 824.908 L 453.969 824.825 L 455.065 824.714 L 456.158 824.577 L 457.247 824.413 L 458.332 824.222 L 459.411 824.005 L 460.485 823.761 L 461.553 823.492 L 462.614 823.196 L 463.668 822.874 L 464.713 822.527 L 465.749 822.154 L 466.776 821.756 L 467.793 821.333 L 468.799 820.885 L 469.794 820.413 L 470.777 819.916 L 471.748 819.396 L 472.706 818.852 L 473.650 818.284 L 474.580 817.694 L 475.495 817.081 L 476.395 816.446 L 477.279 815.789 L 478.147 815.111 L 478.997 814.411 L 479.831 813.691 L 480.647 812.951 L 481.444 812.191 L 482.222 811.412 L 482.981 810.614 L 483.721 809.798 L 484.440 808.964 L 485.138 808.112 L 485.816 807.244 L 486.472 806.359 L 487.106 805.458 L 487.718 804.543 L 488.307 803.612 L 488.874 802.668 L 489.417 801.709 L 489.936 800.738 L 490.432 799.755 L 490.903 798.759 L 491.350 797.753 L 491.772 796.735 L 492.169 795.708 L 492.541 794.671 L 492.888 793.626 L 493.208 792.572 L 493.503 791.511 L 493.772 790.443 L 494.014 789.368 L 494.230 788.288 L 494.420 787.203 L 614.420 47.203 L 614.583 46.111 L 614.720 45.015 L 614.829 43.916 L 614.912 42.815 L 614.967 41.712 L 614.996 40.608 L 614.997 39.503 L 614.972 38.399 L 614.919 37.296 L 614.839 36.194 L 614.732 35.095 L 614.598 33.999 L 614.437 32.906 L 614.250 31.818 L 614.036 30.734 L 613.795 29.656 L 613.528 28.585 L 613.235 27.520 L 612.915 26.462 L 612.570 25.413 L 612.199 24.373 L 611.803 23.342 L 611.382 22.321 L 610.936 21.311 L 610.465 20.312 L 609.969 19.325 L 609.450 18.350 L 608.907 17.389 L 608.340 16.441 L 607.750 15.507 L 607.138 14.588 L 606.503 13.684 L 605.846 12.796 L 605.168 11.925 L 604.468 11.070 L 603.748 10.233 L 603.007 9.413 L 602.246 8.613 L 601.466 7.831 L 600.668 7.068 L 599.850 6.326 L 599.015 5.603 L 598.162 4.901 L 597.292 4.221 L 596.406 3.562 L 595.504 2.925 L 594.586 2.310 L 593.654 1.718 L 592.707 1.149 L 591.747 0.604 L 590.773 0.082 L 589.787 -0.416 L 588.790 -0.890 L 587.780 -1.338 L 586.761 -1.762 L 585.731 -2.161 L 584.691 -2.534 L 583.643 -2.882 L 582.586 -3.204 L 581.522 -3.500 L 580.451 -3.769 L 579.374 -4.013 L 578.291 -4.230 L 577.203 -4.420 L 576.111 -4.583 L 575.015 -4.720 L 573.916 -4.829 L 572.815 -4.912 L 571.712 -4.967 L 570.608 -4.996 L 569.503 -4.997 L 568.399 -4.972 L 567.296 -4.919 L 566.194 -4.839 L 565.095 -4.732 L 563.999 -4.598 L 562.906 -4.437 L 561.818 -4.250 L 560.734 -4.036 L 559.656 -3.795 L 558.585 -3.528 L 557.520 -3.235 L 556.462 -2.915 L 555.413 -2.570 L 554.373 -2.199 L 553.342 -1.803 L 552.321 -1.382 L 551.311 -0.936 L 550.312 -0.465 L 549.325 0.031 L 548.350 0.550 L 547.389 1.093 L 546.441 1.660 L 545.507 2.250 L 544.588 2.862 L 543.684 3.497 L 542.796 4.154 L 541.925 4.832 L 541.070 5.532 L 540.233 6.252 L 539.413 6.993 L 538.613 7.754 L 537.831 8.534 L 537.068 9.332 L 536.326 10.150 L 535.603 10.985 L 534.901 11.838 L 534.221 12.708 L 533.562 13.594 L 532.925 14.496 L 532.310 15.414 L 531.718 16.346 L 531.149 17.293 L 530.604 18.253 L 530.082 19.227 L 529.584 20.213 L 529.110 21.210 L 528.662 22.220 L 528.238 23.239 L 527.839 24.269 L 527.466 25.309 L 527.118 26.357 L 526.796 27.414 L 526.500 28.478 L 526.231 29.549 L 525.987 30.626 L 525.770 31.709 L 525.580 32.797 L 438.988 566.782 L 393.441 398.259 L 393.139 397.192 L 392.810 396.132 L 392.455 395.081 L 392.074 394.039 L 391.668 393.006 L 391.236 391.984 L 390.779 390.973 L 390.298 389.973 L 389.792 388.986 L 389.262 388.011 L 388.708 387.050 L 388.130 386.102 L 387.529 385.170 L 386.906 384.252 L 386.260 383.350 L 385.592 382.464 L 384.902 381.595 L 384.191 380.743 L 383.459 379.909 L 382.707 379.093 L 381.935 378.296 L 381.144 377.518 L 380.334 376.760 L 379.505 376.023 L 378.658 375.305 L 377.794 374.609 L 376.913 373.935 L 376.016 373.282 L 375.103 372.652 L 374.174 372.045 L 373.231 371.460 L 372.274 370.899 L 371.303 370.362 L 370.319 369.849 L 369.323 369.360 L 368.315 368.896 L 367.296 368.457 L 366.267 368.043 L 365.227 367.655 L 364.179 367.292 L 363.121 366.956 L 362.056 366.645 L 360.984 366.361 L 359.904 366.104 L 358.819 365.873 L 357.729 365.669 L 356.633 365.492 L 355.534 365.342 L 354.431 365.219 L 353.326 365.123 L 352.218 365.055 L 351.109 365.014 L 350.000 365.000 L 348.891 365.014 L 347.782 365.055 L 346.674 365.123 L 345.569 365.219 L 344.466 365.342 L 343.367 365.492 L 342.271 365.669 L 341.181 365.873 L 340.096 366.104 L 339.016 366.361 L 337.944 366.645 L 336.879 366.956 L 335.821 367.292 L 334.773 367.655 L 333.733 368.043 L 332.704 368.457 L 331.685 368.896 L 330.677 369.360 L 329.681 369.849 L 328.697 370.362 L 327.726 370.899 L 326.769 371.460 L 325.826 372.045 L 324.897 372.652 L 323.984 373.282 L 323.087 373.935 L 322.206 374.609 L 321.342 375.305 L 320.495 376.023 L 319.666 376.760 L 318.856 377.518 L 318.065 378.296 L 317.293 379.093 L 316.541 379.909 L 315.809 380.743 L 315.098 381.595 L 314.408 382.464 L 313.740 383.350 L 313.094 384.252 L 312.471 385.170 L 311.870 386.102 L 311.292 387.050 L 310.738 388.011 L 310.208 388.986 L 309.702 389.973 L 309.221 390.973 L 308.764 391.984 L 308.332 393.006 L 307.926 394.039 L 307.545 395.081 L 307.190 396.132 L 306.861 397.192 L 306.559 398.259 L 261.012 566.782 L 174.420 32.797 L 174.230 31.709 L 174.013 30.626 L 173.769 29.549 L 173.500 28.478 L 173.204 27.414 L 172.882 26.357 L 172.534 25.309 L 172.161 24.269 L 171.762 23.239 L 171.338 22.220 L 170.890 21.210 L 170.416 20.213 L 169.918 19.227 L 169.396 18.253 L 168.851 17.293 L 168.282 16.346 L 167.690 15.414 L 167.075 14.496 L 166.438 13.594 L 165.779 12.708 L 165.099 11.838 L 164.397 10.985 L 163.674 10.150 L 162.932 9.332 L 162.169 8.534 L 161.387 7.754 L 160.587 6.993 L 159.767 6.252 L 158.930 5.532 L 158.075 4.832 L 157.204 4.154 L 156.316 3.497 L 155.412 2.862 L 154.493 2.250 L 153.559 1.660 L 152.611 1.093 L 151.650 0.550 L 150.675 0.031 L 149.688 -0.465 L 148.689 -0.936 L 147.679 -1.382 L 146.658 -1.803 L 145.627 -2.199 L 144.587 -2.570 L 143.538 -2.915 L 142.480 -3.235 L 141.415 -3.528 L 140.344 -3.795 L 139.266 -4.036 L 138.182 -4.250 L 137.094 -4.437 L 136.001 -4.598 L 134.905 -4.732 L 133.806 -4.839 L 132.704 -4.919 L 131.601 -4.972 L 130.497 -4.997 L 129.392 -4.996 L 128.288 -4.967 L 127.185 -4.912 L 126.084 -4.829 L 124.985 -4.720 L 123.889 -4.583 L 122.797 -4.420 L 121.709 -4.230 L 120.626 -4.013 L 119.549 -3.769 L 118.478 -3.500 L 117.414 -3.204 L 116.357 -2.882 L 115.309 -2.534 L 114.269 -2.161 L 113.239 -1.762 L 112.220 -1.338 L 111.210 -0.890 L 110.213 -0.416 L 109.227 0.082 L 108.253 0.604 L 107.293 1.149 L 106.346 1.718 L 105.414 2.310 L 104.496 2.925 L 103.594 3.562 L 102.708 4.221 L 101.838 4.901 L 100.985 5.603 L 100.150 6.326 L 99.332 7.068 L 98.534 7.831 L 97.754 8.613 L 96.993 9.413 L 96.252 10.233 L 95.532 11.070 L 94.832 11.925 L 94.154 12.796 L 93.497 13.684 L 92.862 14.588 L 92.250 15.507 L 91.660 16.441 L 91.093 17.389 L 90.550 18.350 L 90.031 19.325 L 89.535 20.312 L 89.064 21.311 L 88.618 22.321 L 88.197 23.342 L 87.801 24.373 L 87.430 25.413 L 87.085 26.462 L 86.765 27.520 L 86.472 28.585 L 86.205 29.656 L 85.964 30.734 L 85.750 31.818 L 85.563 32.906 L 85.402 33.999 L 85.268 35.095 L 85.161 36.194 L 85.081 37.296 L 85.028 38.399 L 85.003 39.503 L 85.004 40.608 L 85.033 41.712 L 85.088 42.815 L 85.171 43.916 L 85.280 45.015 L 85.417 46.111 L 85.580 47.203 L 205.580 787.203 Z" fill="black" fill-rule="evenodd"/>
</svg>
