<svg xmlns="http://www.w3.org/2000/svg" viewBox="0 0 700.000 1000">
  <path d="M 518.896 137.904 L 518.542 138.037 L 517.746 138.334 L 517.199 138.537 L 516.532 138.784 L 515.755 139.071 L 514.869 139.398 L 513.874 139.763 L 512.771 140.168 L 511.560 140.611 L 510.243 141.093 L 508.820 141.613 L 507.292 142.170 L 505.660 142.764 L 503.925 143.396 L 502.087 144.064 L 500.149 144.768 L 498.110 145.508 L 495.973 146.285 L 493.739 147.096 L 491.409 147.942 L 488.985 148.823 L 486.467 149.738 L 483.857 150.688 L 481.156 151.671 L 478.367 152.688 L 475.490 153.739 L 472.528 154.822 L 469.482 155.938 L 466.353 157.086 L 463.144 158.266 L 459.857 159.478 L 456.493 160.721 L 453.054 161.995 L 449.542 163.301 L 449.499 163.317 L 445.960 164.637 L 445.913 164.654 L 442.309 166.003 L 442.259 166.021 L 438.591 167.399 L 438.538 167.419 L 434.808 168.824 L 434.752 168.846 L 430.964 170.279 L 430.904 170.302 L 427.058 171.764 L 426.996 171.788 L 423.095 173.277 L 423.029 173.302 L 419.076 174.818 L 419.006 174.845 L 415.003 176.388 L 414.930 176.417 L 410.880 177.986 L 410.803 178.016 L 406.707 179.612 L 406.626 179.643 L 402.487 181.265 L 402.403 181.298 L 398.223 182.946 L 398.135 182.980 L 393.918 184.653 L 393.826 184.690 L 389.572 186.387 L 389.477 186.426 L 385.190 188.148 L 385.090 188.188 L 380.773 189.935 L 380.669 189.977 L 376.324 191.747 L 376.215 191.792 L 371.845 193.586 L 371.732 193.632 L 367.338 195.450 L 367.221 195.499 L 362.807 197.339 L 362.685 197.390 L 358.253 199.254 L 358.126 199.307 L 353.679 201.193 L 353.548 201.249 L 349.088 203.157 L 348.951 203.216 L 344.482 205.145 L 344.340 205.207 L 339.864 207.158 L 339.716 207.223 L 335.235 209.195 L 335.082 209.262 L 330.599 211.255 L 330.440 211.326 L 325.958 213.340 L 325.793 213.414 L 321.315 215.448 L 321.144 215.526 L 316.671 217.579 L 316.494 217.661 L 312.029 219.734 L 311.846 219.819 L 307.392 221.912 L 307.202 222.002 L 302.763 224.113 L 302.565 224.207 L 298.142 226.337 L 297.938 226.436 L 293.534 228.584 L 293.322 228.687 L 288.940 230.853 L 288.721 230.962 L 284.363 233.146 L 284.135 233.261 L 279.804 235.461 L 279.569 235.582 L 275.267 237.800 L 275.023 237.926 L 270.753 240.161 L 270.500 240.294 L 266.264 242.545 L 266.003 242.685 L 261.804 244.952 L 261.533 245.099 L 257.373 247.382 L 257.092 247.537 L 252.974 249.835 L 252.684 249.999 L 248.610 252.312 L 248.309 252.485 L 244.282 254.812 L 243.970 254.994 L 239.992 257.337 L 239.669 257.529 L 235.742 259.885 L 235.408 260.088 L 231.535 262.458 L 231.189 262.672 L 227.371 265.056 L 227.013 265.282 L 223.254 267.679 L 222.883 267.918 L 219.184 270.328 L 218.800 270.581 L 215.163 273.003 L 214.766 273.271 L 211.194 275.706 L 210.783 275.990 L 207.278 278.436 L 206.852 278.737 L 203.416 281.195 L 202.976 281.514 L 199.611 283.983 L 199.156 284.321 L 195.864 286.802 L 195.394 287.161 L 192.176 289.652 L 191.690 290.033 L 188.549 292.535 L 188.048 292.940 L 184.985 295.451 L 184.468 295.882 L 181.486 298.403 L 180.952 298.862 L 178.052 301.392 L 177.503 301.880 L 174.686 304.419 L 174.121 304.938 L 171.390 307.486 L 170.808 308.038 L 168.165 310.595 L 167.568 311.183 L 165.012 313.748 L 164.400 314.374 L 161.935 316.947 L 161.309 317.614 L 158.935 320.194 L 158.296 320.904 L 156.015 323.491 L 155.364 324.247 L 153.177 326.841 L 152.515 327.646 L 150.424 330.247 L 149.753 331.103 L 147.759 333.709 L 147.081 334.619 L 145.185 337.232 L 144.503 338.198 L 142.706 340.816 L 142.022 341.842 L 140.326 344.465 L 139.645 345.552 L 138.049 348.180 L 137.374 349.330 L 135.881 351.963 L 135.216 353.177 L 133.826 355.814 L 133.177 357.094 L 131.890 359.735 L 131.262 361.081 L 130.080 363.726 L 129.478 365.137 L 128.401 367.785 L 127.831 369.260 L 126.860 371.911 L 126.328 373.449 L 125.464 376.103 L 124.976 377.699 L 124.219 380.355 L 123.781 382.006 L 123.131 384.665 L 122.750 386.365 L 122.207 389.025 L 121.888 390.769 L 121.453 393.430 L 121.199 395.210 L 120.873 397.872 L 120.689 399.679 L 120.472 402.343 L 120.360 404.169 L 120.251 406.833 L 120.214 408.668 L 120.214 411.332 L 120.251 413.167 L 120.360 415.831 L 120.472 417.657 L 120.689 420.321 L 120.873 422.128 L 121.199 424.790 L 121.453 426.570 L 121.888 429.231 L 122.207 430.975 L 122.750 433.635 L 123.131 435.335 L 123.781 437.994 L 124.219 439.645 L 124.976 442.301 L 125.464 443.897 L 126.328 446.551 L 126.860 448.089 L 127.831 450.740 L 128.401 452.215 L 129.478 454.863 L 130.080 456.274 L 131.262 458.919 L 131.890 460.265 L 133.177 462.906 L 133.826 464.186 L 135.216 466.823 L 135.881 468.037 L 137.374 470.670 L 138.049 471.820 L 139.645 474.448 L 140.326 475.535 L 142.022 478.158 L 142.706 479.184 L 144.503 481.802 L 145.185 482.768 L 147.081 485.381 L 147.759 486.291 L 149.753 488.897 L 150.424 489.753 L 152.515 492.354 L 153.177 493.159 L 155.364 495.753 L 156.015 496.509 L 158.296 499.096 L 158.935 499.806 L 161.309 502.386 L 161.935 503.053 L 164.400 505.626 L 165.012 506.252 L 167.568 508.817 L 168.165 509.405 L 170.808 511.962 L 171.390 512.514 L 174.121 515.062 L 174.686 515.581 L 177.503 518.120 L 178.052 518.608 L 180.952 521.138 L 181.486 521.597 L 184.468 524.118 L 184.985 524.549 L 188.048 527.060 L 188.549 527.465 L 191.690 529.967 L 192.176 530.348 L 195.394 532.839 L 195.864 533.198 L 199.156 535.679 L 199.611 536.017 L 202.976 538.486 L 203.416 538.805 L 206.852 541.263 L 207.278 541.564 L 210.783 544.010 L 211.194 544.294 L 214.766 546.729 L 215.163 546.997 L 218.800 549.419 L 219.184 549.672 L 222.883 552.082 L 223.254 552.321 L 227.013 554.718 L 227.371 554.944 L 231.189 557.328 L 231.535 557.542 L 235.408 559.912 L 235.742 560.115 L 239.669 562.471 L 239.992 562.663 L 243.970 565.006 L 244.282 565.188 L 248.309 567.515 L 248.610 567.688 L 252.684 570.001 L 252.974 570.165 L 257.092 572.463 L 257.373 572.618 L 261.533 574.901 L 261.804 575.048 L 266.003 577.315 L 266.264 577.455 L 270.500 579.706 L 270.753 579.839 L 275.023 582.074 L 275.267 582.200 L 279.569 584.418 L 279.804 584.539 L 284.135 586.739 L 284.363 586.854 L 288.721 589.038 L 288.940 589.147 L 293.322 591.313 L 293.534 591.416 L 297.938 593.564 L 298.142 593.663 L 302.565 595.793 L 302.763 595.887 L 307.202 597.998 L 307.392 598.088 L 311.846 600.181 L 312.029 600.266 L 316.494 602.339 L 316.671 602.421 L 321.144 604.474 L 321.315 604.552 L 325.793 606.586 L 325.958 606.660 L 330.440 608.674 L 330.599 608.745 L 335.082 610.738 L 335.235 610.805 L 339.716 612.777 L 339.864 612.842 L 344.340 614.793 L 344.482 614.855 L 348.951 616.784 L 349.088 616.843 L 353.548 618.751 L 353.679 618.807 L 358.126 620.693 L 358.253 620.746 L 362.685 622.610 L 362.807 622.661 L 367.221 624.501 L 367.338 624.550 L 371.732 626.368 L 371.845 626.414 L 376.215 628.208 L 376.324 628.253 L 380.669 630.023 L 380.773 630.065 L 385.090 631.812 L 385.190 631.852 L 389.477 633.574 L 389.572 633.613 L 393.826 635.310 L 393.918 635.347 L 398.135 637.020 L 398.223 637.054 L 402.403 638.702 L 402.487 638.735 L 406.626 640.357 L 406.707 640.388 L 410.803 641.984 L 410.880 642.014 L 414.930 643.583 L 415.003 643.612 L 419.006 645.155 L 419.076 645.182 L 423.029 646.698 L 423.095 646.723 L 426.996 648.212 L 427.058 648.236 L 430.904 649.698 L 430.964 649.721 L 434.752 651.154 L 434.808 651.176 L 438.538 652.581 L 438.591 652.601 L 442.259 653.979 L 442.309 653.997 L 445.913 655.346 L 445.960 655.363 L 449.499 656.683 L 449.542 656.699 L 453.013 657.989 L 456.455 659.265 L 459.822 660.509 L 463.112 661.722 L 466.324 662.904 L 469.455 664.053 L 472.504 665.169 L 475.469 666.254 L 478.349 667.305 L 481.141 668.323 L 483.844 669.307 L 486.456 670.258 L 488.977 671.174 L 491.404 672.056 L 493.737 672.903 L 495.973 673.715 L 498.110 674.492 L 500.149 675.232 L 502.087 675.936 L 503.925 676.604 L 505.660 677.236 L 507.292 677.830 L 508.820 678.387 L 510.243 678.907 L 511.560 679.389 L 512.771 679.832 L 513.874 680.237 L 514.869 680.602 L 515.755 680.929 L 516.532 681.216 L 517.199 681.463 L 517.756 681.670 L 518.193 681.833 L 518.771 682.049 L 518.946 682.115 L 520.333 682.611 L 521.735 683.062 L 523.151 683.466 L 524.579 683.824 L 526.019 684.135 L 527.467 684.399 L 528.924 684.615 L 530.387 684.783 L 531.854 684.903 L 533.325 684.976 L 534.798 685.000 L 536.270 684.976 L 537.741 684.904 L 539.208 684.784 L 540.671 684.615 L 542.128 684.399 L 543.577 684.136 L 545.016 683.825 L 546.444 683.467 L 547.860 683.063 L 549.262 682.613 L 550.649 682.117 L 552.018 681.576 L 553.370 680.990 L 554.701 680.360 L 556.011 679.688 L 557.298 678.972 L 558.561 678.215 L 559.799 677.418 L 561.009 676.580 L 562.192 675.702 L 563.346 674.787 L 564.469 673.834 L 565.560 672.846 L 566.618 671.822 L 567.642 670.763 L 568.631 669.672 L 569.584 668.550 L 570.499 667.396 L 571.377 666.214 L 572.215 665.003 L 573.013 663.765 L 573.770 662.502 L 574.485 661.215 L 575.158 659.905 L 575.788 658.574 L 576.374 657.223 L 576.915 655.854 L 577.411 654.467 L 577.862 653.065 L 578.266 651.649 L 578.624 650.221 L 578.935 648.781 L 579.199 647.333 L 579.415 645.876 L 579.583 644.413 L 579.703 642.946 L 579.776 641.475 L 579.800 640.002 L 579.776 638.530 L 579.704 637.059 L 579.584 635.592 L 579.415 634.129 L 579.199 632.672 L 578.936 631.223 L 578.625 629.784 L 578.267 628.356 L 577.863 626.940 L 577.413 625.538 L 576.917 624.151 L 576.376 622.782 L 575.790 621.430 L 575.160 620.099 L 574.488 618.789 L 573.772 617.502 L 573.015 616.239 L 572.218 615.001 L 571.380 613.791 L 570.502 612.608 L 569.587 611.454 L 568.634 610.331 L 567.646 609.240 L 566.622 608.182 L 565.563 607.158 L 564.472 606.169 L 563.350 605.216 L 562.196 604.301 L 561.014 603.423 L 559.803 602.585 L 558.565 601.787 L 557.302 601.030 L 556.015 600.315 L 554.705 599.642 L 553.374 599.012 L 552.023 598.426 L 550.654 597.885 L 550.633 597.877 L 550.588 597.860 L 550.425 597.799 L 550.377 597.781 L 550.106 597.679 L 550.060 597.662 L 549.680 597.520 L 549.637 597.504 L 549.149 597.322 L 548.512 597.086 L 547.770 596.811 L 546.923 596.498 L 545.972 596.148 L 544.918 595.760 L 543.760 595.335 L 542.500 594.874 L 541.139 594.376 L 539.676 593.842 L 538.114 593.272 L 536.452 592.667 L 534.692 592.027 L 532.835 591.352 L 530.883 590.642 L 528.835 589.898 L 526.693 589.121 L 524.461 588.310 L 522.137 587.466 L 519.724 586.589 L 517.223 585.680 L 514.635 584.738 L 511.961 583.765 L 509.204 582.760 L 506.366 581.723 L 503.447 580.656 L 500.449 579.558 L 497.375 578.430 L 494.226 577.272 L 491.004 576.084 L 487.712 574.867 L 484.350 573.621 L 480.921 572.347 L 477.428 571.044 L 473.872 569.714 L 470.256 568.356 L 466.581 566.971 L 462.850 565.559 L 459.066 564.120 L 455.230 562.656 L 451.345 561.165 L 447.413 559.650 L 443.437 558.109 L 439.420 556.544 L 435.363 554.954 L 431.269 553.341 L 427.141 551.704 L 422.981 550.043 L 418.793 548.361 L 414.578 546.655 L 410.339 544.928 L 406.079 543.179 L 401.801 541.409 L 397.507 539.619 L 393.199 537.808 L 388.882 535.977 L 384.557 534.127 L 380.228 532.258 L 375.896 530.370 L 371.566 528.464 L 367.239 526.540 L 362.918 524.600 L 358.607 522.642 L 354.308 520.669 L 350.024 518.679 L 345.757 516.675 L 341.511 514.656 L 337.289 512.623 L 333.093 510.576 L 328.926 508.517 L 324.791 506.445 L 320.691 504.362 L 316.628 502.268 L 312.606 500.163 L 308.627 498.049 L 304.694 495.925 L 300.810 493.794 L 296.978 491.655 L 293.200 489.510 L 289.479 487.359 L 285.818 485.204 L 282.220 483.044 L 278.687 480.882 L 275.221 478.718 L 271.827 476.554 L 268.505 474.390 L 265.260 472.228 L 262.092 470.069 L 259.006 467.914 L 256.003 465.766 L 253.085 463.624 L 250.255 461.493 L 247.515 459.372 L 244.868 457.263 L 242.315 455.170 L 239.858 453.093 L 237.500 451.035 L 235.242 448.999 L 233.084 446.986 L 231.030 444.999 L 229.079 443.041 L 227.234 441.115 L 225.493 439.223 L 223.859 437.369 L 222.330 435.555 L 220.907 433.785 L 219.588 432.061 L 218.373 430.386 L 217.259 428.764 L 216.245 427.196 L 215.329 425.686 L 214.505 424.235 L 213.772 422.844 L 213.125 421.516 L 212.559 420.249 L 212.069 419.044 L 211.650 417.900 L 211.296 416.813 L 211.001 415.781 L 210.761 414.798 L 210.570 413.861 L 210.423 412.961 L 210.317 412.093 L 210.248 411.246 L 210.214 410.414 L 210.214 409.586 L 210.248 408.754 L 210.317 407.907 L 210.423 407.039 L 210.570 406.139 L 210.761 405.202 L 211.001 404.219 L 211.296 403.187 L 211.650 402.100 L 212.069 400.956 L 212.559 399.751 L 213.125 398.484 L 213.772 397.156 L 214.505 395.765 L 215.329 394.314 L 216.245 392.804 L 217.259 391.236 L 218.373 389.614 L 219.588 387.939 L 220.907 386.215 L 222.330 384.445 L 223.859 382.631 L 225.493 380.777 L 227.234 378.885 L 229.079 376.959 L 231.030 375.001 L 233.084 373.014 L 235.242 371.001 L 237.500 368.965 L 239.858 366.907 L 242.315 364.830 L 244.868 362.737 L 247.515 360.628 L 250.255 358.507 L 253.085 356.376 L 256.003 354.234 L 259.006 352.086 L 262.092 349.931 L 265.260 347.772 L 268.505 345.610 L 271.827 343.446 L 275.221 341.282 L 278.687 339.118 L 282.220 336.956 L 285.818 334.796 L 289.479 332.641 L 293.200 330.490 L 296.978 328.345 L 300.810 326.206 L 304.694 324.075 L 308.627 321.951 L 312.606 319.837 L 316.628 317.732 L 320.691 315.638 L 324.791 313.555 L 328.926 311.483 L 333.093 309.424 L 337.289 307.377 L 341.511 305.344 L 345.757 303.325 L 350.024 301.321 L 354.308 299.331 L 358.607 297.358 L 362.918 295.400 L 367.239 293.460 L 371.566 291.536 L 375.896 289.630 L 380.228 287.742 L 384.557 285.873 L 388.882 284.023 L 393.199 282.192 L 397.507 280.381 L 401.801 278.591 L 406.079 276.821 L 410.339 275.072 L 414.578 273.345 L 418.793 271.639 L 422.981 269.957 L 427.141 268.296 L 431.269 266.659 L 435.363 265.046 L 439.420 263.456 L 443.437 261.891 L 447.413 260.350 L 451.345 258.835 L 455.230 257.344 L 459.066 255.880 L 462.850 254.441 L 466.581 253.029 L 470.256 251.644 L 473.872 250.286 L 477.428 248.956 L 480.921 247.653 L 484.350 246.379 L 487.712 245.133 L 491.004 243.916 L 494.226 242.728 L 497.375 241.570 L 500.449 240.442 L 503.447 239.344 L 506.366 238.277 L 509.204 237.240 L 511.961 236.235 L 514.635 235.262 L 517.223 234.320 L 519.724 233.411 L 522.137 232.534 L 524.461 231.690 L 526.693 230.879 L 528.832 230.102 L 530.877 229.360 L 532.828 228.651 L 534.682 227.977 L 536.439 227.337 L 538.098 226.733 L 539.658 226.164 L 541.118 225.631 L 542.477 225.134 L 543.735 224.674 L 544.890 224.250 L 545.942 223.863 L 546.890 223.514 L 547.734 223.202 L 548.474 222.928 L 549.108 222.693 L 549.637 222.496 L 549.680 222.480 L 550.060 222.338 L 550.106 222.321 L 550.377 222.219 L 550.425 222.201 L 550.588 222.140 L 550.633 222.123 L 550.687 222.102 L 552.056 221.560 L 553.407 220.973 L 554.738 220.342 L 556.047 219.668 L 557.333 218.952 L 558.596 218.194 L 559.833 217.395 L 561.043 216.556 L 562.225 215.677 L 563.378 214.761 L 564.500 213.807 L 565.590 212.817 L 566.647 211.792 L 567.670 210.733 L 568.658 209.641 L 569.610 208.518 L 570.524 207.364 L 571.401 206.180 L 572.238 204.969 L 573.034 203.730 L 573.790 202.467 L 574.505 201.179 L 575.176 199.868 L 575.805 198.537 L 576.389 197.185 L 576.929 195.815 L 577.424 194.428 L 577.874 193.026 L 578.277 191.610 L 578.633 190.181 L 578.943 188.741 L 579.205 187.292 L 579.420 185.835 L 579.587 184.372 L 579.706 182.905 L 579.777 181.434 L 579.800 179.961 L 579.775 178.489 L 579.701 177.018 L 579.580 175.551 L 579.410 174.088 L 579.193 172.632 L 578.928 171.183 L 578.616 169.744 L 578.257 168.316 L 577.851 166.900 L 577.399 165.499 L 576.902 164.113 L 576.360 162.744 L 575.773 161.393 L 575.142 160.062 L 574.468 158.753 L 573.752 157.467 L 572.994 156.204 L 572.195 154.967 L 571.356 153.757 L 570.477 152.575 L 569.561 151.422 L 568.607 150.300 L 567.617 149.210 L 566.592 148.153 L 565.533 147.130 L 564.441 146.142 L 563.318 145.190 L 562.164 144.276 L 560.980 143.399 L 559.769 142.562 L 558.530 141.766 L 557.267 141.010 L 555.979 140.295 L 554.668 139.624 L 553.337 138.995 L 551.985 138.411 L 550.615 137.871 L 549.228 137.376 L 547.826 136.926 L 546.410 136.523 L 544.981 136.167 L 543.541 135.857 L 542.092 135.595 L 540.635 135.380 L 539.172 135.213 L 537.705 135.094 L 536.234 135.023 L 534.761 135.000 L 533.289 135.025 L 531.818 135.099 L 530.351 135.220 L 528.888 135.390 L 527.432 135.607 L 525.983 135.872 L 524.544 136.184 L 523.116 136.543 L 521.700 136.949 L 520.299 137.401 L 518.913 137.898 L 518.896 137.904 Z" fill="black" fill-rule="evenodd"/>
</svg>
