<svg xmlns="http://www.w3.org/2000/svg" viewBox="0 0 700.000 1000">
  <path d="M 456.507 165.030 L 455.710 165.045 L 452.558 165.129 L 451.798 165.156 L 448.578 165.298 L 447.851 165.335 L 444.566 165.533 L 443.868 165.580 L 440.521 165.833 L 439.849 165.889 L 436.444 166.199 L 435.795 166.262 L 432.334 166.627 L 431.706 166.698 L 428.194 167.118 L 427.583 167.195 L 424.023 167.671 L 423.427 167.754 L 419.823 168.285 L 419.241 168.374 L 415.596 168.960 L 415.025 169.055 L 411.343 169.695 L 410.782 169.797 L 407.066 170.491 L 406.513 170.598 L 402.766 171.347 L 402.220 171.460 L 398.446 172.263 L 397.905 172.381 L 394.107 173.238 L 393.571 173.363 L 389.753 174.274 L 389.220 174.404 L 385.385 175.369 L 384.853 175.506 L 381.005 176.524 L 380.474 176.668 L 376.616 177.739 L 376.084 177.890 L 372.221 179.015 L 371.687 179.173 L 367.821 180.350 L 367.285 180.517 L 363.419 181.747 L 362.879 181.922 L 359.018 183.205 L 358.473 183.389 L 354.619 184.724 L 354.070 184.918 L 350.227 186.305 L 349.671 186.509 L 345.843 187.948 L 345.280 188.164 L 341.470 189.655 L 340.899 189.882 L 337.110 191.424 L 336.530 191.665 L 332.766 193.259 L 332.176 193.513 L 328.441 195.158 L 327.840 195.428 L 324.137 197.124 L 323.525 197.410 L 319.857 199.156 L 319.232 199.459 L 315.603 201.257 L 314.965 201.579 L 311.378 203.427 L 310.727 203.769 L 307.186 205.667 L 306.520 206.032 L 303.028 207.980 L 302.346 208.368 L 298.907 210.366 L 298.210 210.780 L 294.827 212.828 L 294.113 213.270 L 290.790 215.367 L 290.058 215.839 L 286.798 217.986 L 286.049 218.490 L 282.856 220.687 L 282.089 221.226 L 278.966 223.471 L 278.181 224.049 L 275.131 226.343 L 274.328 226.961 L 271.356 229.304 L 270.535 229.966 L 267.644 232.358 L 266.806 233.068 L 263.998 235.507 L 263.144 236.268 L 260.424 238.756 L 259.555 239.572 L 256.925 242.108 L 256.043 242.983 L 253.508 245.566 L 252.614 246.503 L 250.177 249.134 L 249.275 250.138 L 246.939 252.816 L 246.032 253.890 L 243.801 256.616 L 242.892 257.764 L 240.769 260.537 L 239.864 261.762 L 237.853 264.581 L 236.956 265.887 L 235.061 268.753 L 234.179 270.141 L 232.402 273.054 L 231.965 273.786 L 231.542 274.526 L 229.887 277.485 L 229.464 278.259 L 229.056 279.042 L 227.527 282.047 L 227.122 282.863 L 226.734 283.688 L 225.334 286.739 L 224.951 287.596 L 224.587 288.461 L 223.319 291.558 L 222.963 292.455 L 222.627 293.360 L 221.496 296.502 L 221.171 297.436 L 220.867 298.377 L 219.875 301.565 L 219.586 302.533 L 219.319 303.507 L 218.470 306.739 L 218.221 307.737 L 217.994 308.740 L 217.292 312.017 L 217.085 313.039 L 216.902 314.066 L 216.350 317.389 L 216.190 318.430 L 216.054 319.474 L 215.655 322.842 L 215.543 323.895 L 215.456 324.952 L 215.214 328.364 L 215.151 329.424 L 215.114 330.485 L 215.032 333.941 L 215.020 335.061 L 215.035 336.181 L 215.148 340.460 L 215.196 341.670 L 215.276 342.878 L 215.609 347.023 L 215.725 348.259 L 215.876 349.491 L 216.422 353.505 L 216.610 354.755 L 216.833 355.999 L 217.586 359.885 L 217.847 361.135 L 218.143 362.377 L 219.097 366.141 L 219.428 367.377 L 219.795 368.603 L 220.943 372.248 L 221.342 373.456 L 221.775 374.652 L 223.110 378.182 L 223.570 379.349 L 224.063 380.502 L 225.579 383.921 L 226.091 385.036 L 226.634 386.137 L 228.324 389.449 L 228.880 390.503 L 229.463 391.542 L 231.321 394.750 L 231.909 395.737 L 232.522 396.708 L 234.541 399.817 L 235.151 400.732 L 235.784 401.632 L 237.957 404.645 L 238.579 405.487 L 239.220 406.314 L 241.541 409.236 L 242.165 410.004 L 242.806 410.758 L 245.269 413.593 L 245.887 414.290 L 246.519 414.973 L 249.116 417.724 L 249.722 418.353 L 250.339 418.969 L 253.064 421.640 L 254.246 422.758 L 257.093 425.353 L 258.227 426.352 L 261.189 428.875 L 262.266 429.765 L 265.337 432.220 L 266.354 433.010 L 269.526 435.401 L 270.479 436.100 L 273.746 438.431 L 274.632 439.047 L 277.989 441.323 L 278.808 441.865 L 282.246 444.087 L 282.997 444.563 L 286.511 446.737 L 287.195 447.152 L 290.778 449.282 L 291.395 449.642 L 295.041 451.732 L 295.592 452.042 L 299.293 454.096 L 299.779 454.361 L 303.530 456.382 L 303.952 456.606 L 307.745 458.598 L 308.104 458.785 L 311.934 460.752 L 312.231 460.903 L 316.091 462.849 L 316.327 462.968 L 320.209 464.897 L 320.385 464.984 L 324.284 466.901 L 324.400 466.957 L 328.308 468.865 L 328.364 468.892 L 332.275 470.794 L 336.150 472.679 L 339.955 474.537 L 343.684 476.372 L 347.328 478.186 L 350.881 479.982 L 354.335 481.761 L 357.682 483.525 L 360.914 485.273 L 364.023 487.007 L 367.001 488.725 L 369.841 490.426 L 372.535 492.108 L 375.074 493.768 L 377.454 495.401 L 379.667 497.004 L 381.709 498.570 L 383.576 500.093 L 385.267 501.567 L 386.782 502.985 L 388.123 504.340 L 389.296 505.628 L 390.310 506.844 L 391.177 507.987 L 391.909 509.060 L 392.524 510.070 L 393.039 511.029 L 393.471 511.955 L 393.836 512.873 L 394.147 513.811 L 394.412 514.802 L 394.632 515.883 L 394.805 517.088 L 394.920 518.452 L 394.968 520.186 L 394.930 522.133 L 394.810 524.189 L 394.615 526.175 L 394.349 528.098 L 394.014 529.968 L 393.612 531.792 L 393.144 533.577 L 392.609 535.331 L 392.006 537.062 L 391.334 538.774 L 390.591 540.474 L 389.775 542.165 L 388.882 543.852 L 387.911 545.538 L 386.859 547.223 L 385.723 548.910 L 384.502 550.599 L 383.193 552.291 L 381.794 553.983 L 380.305 555.675 L 378.725 557.367 L 377.054 559.055 L 375.292 560.738 L 373.439 562.414 L 371.496 564.080 L 369.464 565.735 L 367.345 567.376 L 365.141 569.000 L 362.854 570.606 L 360.485 572.191 L 358.039 573.753 L 355.516 575.290 L 352.921 576.801 L 350.255 578.283 L 347.523 579.735 L 344.727 581.156 L 341.871 582.543 L 338.958 583.896 L 335.991 585.213 L 332.973 586.493 L 329.909 587.735 L 326.802 588.938 L 323.655 590.101 L 320.472 591.224 L 317.256 592.305 L 314.012 593.345 L 310.742 594.341 L 307.451 595.295 L 304.142 596.205 L 300.818 597.071 L 297.484 597.893 L 294.142 598.670 L 290.798 599.402 L 287.454 600.089 L 284.115 600.731 L 280.783 601.328 L 277.463 601.879 L 274.160 602.385 L 270.875 602.845 L 267.614 603.260 L 264.381 603.630 L 261.179 603.955 L 258.013 604.235 L 254.887 604.471 L 251.804 604.663 L 248.770 604.811 L 245.789 604.916 L 242.864 604.978 L 239.676 605.001 L 238.572 605.023 L 237.469 605.071 L 236.367 605.147 L 235.267 605.250 L 234.170 605.379 L 233.077 605.536 L 231.988 605.719 L 230.904 605.929 L 229.825 606.165 L 228.752 606.428 L 227.686 606.718 L 226.628 607.033 L 225.577 607.374 L 224.535 607.741 L 223.503 608.133 L 222.480 608.550 L 221.469 608.993 L 220.468 609.460 L 219.479 609.952 L 218.502 610.467 L 217.538 611.007 L 216.588 611.570 L 215.652 612.156 L 214.731 612.765 L 213.825 613.396 L 212.934 614.050 L 212.060 614.725 L 211.203 615.421 L 210.363 616.138 L 209.541 616.876 L 208.737 617.633 L 207.952 618.410 L 207.186 619.206 L 206.441 620.021 L 205.715 620.853 L 205.010 621.703 L 204.326 622.571 L 203.664 623.454 L 203.023 624.354 L 202.405 625.269 L 201.809 626.199 L 201.237 627.144 L 200.687 628.102 L 200.162 629.073 L 199.660 630.057 L 199.183 631.053 L 198.730 632.061 L 198.303 633.079 L 197.900 634.107 L 197.523 635.145 L 197.171 636.192 L 196.845 637.247 L 196.545 638.310 L 196.271 639.380 L 196.024 640.457 L 195.803 641.539 L 195.608 642.626 L 195.441 643.718 L 195.300 644.813 L 195.186 645.912 L 195.099 647.013 L 195.039 648.115 L 195.007 649.219 L 195.001 650.324 L 195.023 651.428 L 195.071 652.531 L 195.147 653.633 L 195.250 654.733 L 195.379 655.830 L 195.536 656.923 L 195.719 658.012 L 195.929 659.096 L 196.165 660.175 L 196.428 661.248 L 196.718 662.314 L 197.033 663.372 L 197.374 664.423 L 197.741 665.465 L 198.133 666.497 L 198.550 667.520 L 198.993 668.531 L 199.460 669.532 L 199.952 670.521 L 200.467 671.498 L 201.007 672.462 L 201.570 673.412 L 202.156 674.348 L 202.765 675.269 L 203.396 676.175 L 204.050 677.066 L 204.725 677.940 L 205.421 678.797 L 206.138 679.637 L 206.876 680.459 L 207.633 681.263 L 208.410 682.048 L 209.206 682.814 L 210.021 683.559 L 210.853 684.285 L 211.703 684.990 L 212.571 685.674 L 213.454 686.336 L 214.354 686.977 L 215.269 687.595 L 216.199 688.191 L 217.144 688.763 L 218.102 689.313 L 219.073 689.838 L 220.057 690.340 L 221.053 690.817 L 222.061 691.270 L 223.079 691.697 L 224.107 692.100 L 225.145 692.477 L 226.192 692.829 L 227.247 693.155 L 228.310 693.455 L 229.380 693.729 L 230.457 693.976 L 231.539 694.197 L 232.626 694.392 L 233.718 694.559 L 234.813 694.700 L 235.912 694.814 L 237.013 694.901 L 238.115 694.961 L 239.219 694.993 L 240.324 694.999 L 243.830 694.974 L 244.466 694.965 L 248.020 694.889 L 248.642 694.871 L 252.240 694.745 L 252.851 694.719 L 256.490 694.541 L 257.090 694.508 L 260.768 694.279 L 261.359 694.239 L 265.072 693.959 L 265.656 693.911 L 269.402 693.579 L 269.979 693.525 L 273.754 693.141 L 274.326 693.080 L 278.129 692.645 L 278.696 692.576 L 282.523 692.089 L 283.087 692.013 L 286.935 691.474 L 287.498 691.392 L 291.363 690.800 L 291.925 690.710 L 295.806 690.066 L 296.367 689.969 L 300.260 689.272 L 300.822 689.167 L 304.725 688.417 L 305.289 688.305 L 309.198 687.502 L 309.764 687.382 L 313.677 686.525 L 314.247 686.396 L 318.160 685.486 L 318.734 685.349 L 322.645 684.385 L 323.223 684.238 L 327.129 683.220 L 327.714 683.064 L 331.611 681.992 L 332.202 681.825 L 336.089 680.699 L 336.687 680.521 L 340.560 679.341 L 341.166 679.151 L 345.022 677.916 L 345.637 677.714 L 349.472 676.424 L 350.097 676.209 L 353.910 674.864 L 354.545 674.635 L 358.332 673.235 L 358.977 672.991 L 362.736 671.535 L 363.393 671.275 L 367.120 669.764 L 367.789 669.487 L 371.482 667.920 L 372.163 667.624 L 375.819 666.002 L 376.513 665.686 L 380.128 664.008 L 380.837 663.671 L 384.409 661.937 L 385.131 661.578 L 388.657 659.786 L 389.394 659.403 L 392.871 657.556 L 393.623 657.147 L 397.048 655.242 L 397.815 654.806 L 401.185 652.844 L 401.967 652.378 L 405.279 650.360 L 406.076 649.862 L 409.328 647.786 L 410.140 647.255 L 413.328 645.121 L 414.155 644.555 L 417.276 642.363 L 418.117 641.758 L 421.169 639.509 L 422.024 638.864 L 425.004 636.556 L 425.870 635.868 L 428.775 633.502 L 429.653 632.768 L 432.479 630.344 L 433.367 629.562 L 436.112 627.080 L 437.008 626.247 L 439.669 623.706 L 440.570 622.821 L 443.145 620.220 L 444.049 619.280 L 446.533 616.620 L 447.437 615.623 L 449.829 612.904 L 450.730 611.848 L 453.026 609.069 L 453.919 607.953 L 456.116 605.115 L 456.998 603.936 L 459.094 601.038 L 459.960 599.798 L 461.951 596.840 L 462.795 595.538 L 464.680 592.519 L 465.498 591.155 L 467.272 588.076 L 468.058 586.653 L 469.719 583.513 L 470.100 582.776 L 470.468 582.032 L 472.012 578.831 L 472.372 578.067 L 472.718 577.295 L 474.144 574.034 L 474.480 573.243 L 474.802 572.447 L 476.106 569.124 L 476.416 568.311 L 476.710 567.491 L 477.889 564.107 L 478.170 563.273 L 478.435 562.434 L 479.487 558.988 L 479.737 558.137 L 479.971 557.280 L 480.891 553.773 L 481.109 552.908 L 481.310 552.038 L 482.097 548.469 L 482.281 547.593 L 482.447 546.714 L 483.098 543.082 L 483.247 542.200 L 483.378 541.315 L 483.889 537.622 L 484.002 536.737 L 484.098 535.850 L 484.467 532.094 L 484.545 531.211 L 484.605 530.327 L 484.828 526.508 L 484.871 525.630 L 484.897 524.752 L 484.972 520.870 L 484.980 519.814 L 484.963 518.757 L 484.851 514.692 L 484.797 513.419 L 484.708 512.147 L 484.375 508.211 L 484.247 506.912 L 484.080 505.616 L 483.534 501.804 L 483.327 500.494 L 483.081 499.190 L 482.327 495.498 L 482.041 494.192 L 481.715 492.895 L 480.761 489.320 L 480.398 488.035 L 479.996 486.761 L 478.849 483.299 L 478.414 482.050 L 477.943 480.814 L 476.608 477.460 L 476.111 476.261 L 475.579 475.077 L 474.063 471.828 L 473.513 470.691 L 472.931 469.569 L 471.241 466.422 L 470.649 465.355 L 470.029 464.304 L 468.171 461.254 L 467.550 460.263 L 466.904 459.289 L 464.885 456.332 L 464.247 455.421 L 463.586 454.526 L 461.413 451.657 L 460.768 450.827 L 460.104 450.011 L 457.783 447.228 L 457.142 446.475 L 456.484 445.737 L 454.021 443.035 L 453.391 442.358 L 452.748 441.694 L 450.151 439.070 L 449.539 438.464 L 448.917 437.870 L 446.192 435.318 L 445.008 434.249 L 442.161 431.767 L 441.036 430.818 L 438.074 428.402 L 437.013 427.563 L 433.942 425.208 L 432.949 424.468 L 429.776 422.171 L 428.853 421.520 L 425.586 419.277 L 424.734 418.707 L 421.378 416.514 L 420.597 416.015 L 417.159 413.868 L 416.450 413.434 L 412.935 411.329 L 412.296 410.953 L 408.713 408.886 L 408.143 408.563 L 404.498 406.530 L 403.995 406.254 L 400.294 404.251 L 399.857 404.018 L 396.106 402.041 L 395.735 401.848 L 391.941 399.894 L 391.634 399.737 L 387.804 397.801 L 387.558 397.678 L 383.699 395.757 L 383.515 395.666 L 379.633 393.755 L 379.510 393.695 L 375.611 391.791 L 375.548 391.760 L 371.639 389.859 L 367.752 387.968 L 363.929 386.103 L 360.176 384.258 L 356.500 382.431 L 352.908 380.619 L 349.406 378.821 L 346.003 377.034 L 342.707 375.258 L 339.524 373.493 L 336.462 371.738 L 333.530 369.994 L 330.733 368.264 L 328.080 366.549 L 325.577 364.852 L 323.230 363.177 L 321.043 361.529 L 319.021 359.912 L 317.166 358.332 L 315.478 356.794 L 313.957 355.303 L 312.599 353.864 L 311.397 352.481 L 310.343 351.153 L 309.425 349.881 L 308.631 348.658 L 307.947 347.476 L 307.357 346.320 L 306.847 345.171 L 306.406 344.005 L 306.025 342.794 L 305.699 341.509 L 305.430 340.117 L 305.221 338.587 L 305.085 336.888 L 305.034 334.939 L 305.064 333.665 L 305.156 332.370 L 305.306 331.101 L 305.514 329.846 L 305.783 328.594 L 306.114 327.333 L 306.511 326.054 L 306.981 324.750 L 307.527 323.416 L 308.155 322.047 L 308.870 320.641 L 309.678 319.197 L 310.582 317.714 L 311.587 316.195 L 312.696 314.640 L 313.910 313.054 L 315.232 311.439 L 316.662 309.799 L 318.200 308.139 L 319.847 306.461 L 321.600 304.770 L 323.458 303.071 L 325.420 301.367 L 327.482 299.661 L 329.642 297.959 L 331.897 296.262 L 334.244 294.575 L 336.679 292.900 L 339.198 291.241 L 341.798 289.600 L 344.474 287.980 L 347.223 286.382 L 350.041 284.810 L 352.923 283.265 L 355.865 281.750 L 358.863 280.265 L 361.913 278.813 L 365.010 277.394 L 368.150 276.012 L 371.329 274.666 L 374.542 273.358 L 377.785 272.090 L 381.054 270.861 L 384.344 269.674 L 387.652 268.529 L 390.972 267.426 L 394.300 266.368 L 397.631 265.353 L 400.962 264.384 L 404.288 263.461 L 407.604 262.583 L 410.906 261.753 L 414.189 260.970 L 417.448 260.234 L 420.679 259.547 L 423.877 258.908 L 427.036 258.317 L 430.153 257.775 L 433.222 257.282 L 436.236 256.839 L 439.193 256.444 L 442.084 256.098 L 444.905 255.800 L 447.650 255.551 L 450.312 255.350 L 452.885 255.195 L 455.361 255.087 L 457.734 255.023 L 460.414 254.998 L 461.518 254.974 L 462.621 254.924 L 463.723 254.846 L 464.823 254.741 L 465.919 254.609 L 467.012 254.450 L 468.101 254.265 L 469.185 254.053 L 470.263 253.814 L 471.335 253.549 L 472.401 253.258 L 473.458 252.940 L 474.508 252.597 L 475.549 252.228 L 476.581 251.834 L 477.602 251.414 L 478.614 250.970 L 479.613 250.501 L 480.601 250.007 L 481.577 249.490 L 482.540 248.948 L 483.489 248.383 L 484.424 247.795 L 485.344 247.185 L 486.249 246.551 L 487.138 245.896 L 488.011 245.219 L 488.866 244.521 L 489.705 243.803 L 490.526 243.063 L 491.328 242.304 L 492.111 241.526 L 492.875 240.728 L 493.619 239.912 L 494.343 239.078 L 495.047 238.226 L 495.729 237.358 L 496.389 236.473 L 497.028 235.572 L 497.645 234.655 L 498.238 233.724 L 498.809 232.779 L 499.356 231.819 L 499.880 230.847 L 500.380 229.862 L 500.855 228.865 L 501.305 227.857 L 501.731 226.838 L 502.132 225.808 L 502.507 224.770 L 502.857 223.722 L 503.181 222.666 L 503.478 221.603 L 503.750 220.532 L 503.995 219.455 L 504.214 218.373 L 504.406 217.285 L 504.572 216.193 L 504.710 215.097 L 504.822 213.999 L 504.907 212.897 L 504.964 211.794 L 504.995 210.690 L 504.998 209.586 L 504.974 208.482 L 504.924 207.379 L 504.846 206.277 L 504.741 205.177 L 504.609 204.081 L 504.450 202.988 L 504.265 201.899 L 504.053 200.815 L 503.814 199.737 L 503.549 198.665 L 503.258 197.599 L 502.940 196.542 L 502.597 195.492 L 502.228 194.451 L 501.834 193.419 L 501.414 192.398 L 500.970 191.386 L 500.501 190.387 L 500.007 189.399 L 499.490 188.423 L 498.948 187.460 L 498.383 186.511 L 497.795 185.576 L 497.185 184.656 L 496.551 183.751 L 495.896 182.862 L 495.219 181.989 L 494.521 181.134 L 493.803 180.295 L 493.063 179.474 L 492.304 178.672 L 491.526 177.889 L 490.728 177.125 L 489.912 176.381 L 489.078 175.657 L 488.226 174.953 L 487.358 174.271 L 486.473 173.611 L 485.572 172.972 L 484.655 172.355 L 483.724 171.762 L 482.779 171.191 L 481.819 170.644 L 480.847 170.120 L 479.862 169.620 L 478.865 169.145 L 477.857 168.695 L 476.838 168.269 L 475.808 167.868 L 474.770 167.493 L 473.722 167.143 L 472.666 166.819 L 471.603 166.522 L 470.532 166.250 L 469.455 166.005 L 468.373 165.786 L 467.285 165.594 L 466.193 165.428 L 465.097 165.290 L 463.999 165.178 L 462.897 165.093 L 461.794 165.036 L 460.690 165.005 L 459.586 165.002 L 456.507 165.030 Z" fill="black" fill-rule="evenodd"/>
</svg>
