<svg xmlns="http://www.w3.org/2000/svg" viewBox="0 0 700.000 1000">
  <path d="M 608.971 62.500 L 609.189 62.109 L 609.411 61.721 L 609.546 61.465 L 609.686 61.213 L 609.891 60.815 L 610.100 60.419 L 610.227 60.160 L 610.359 59.903 L 610.551 59.498 L 610.747 59.096 L 610.865 58.833 L 610.989 58.572 L 611.167 58.161 L 611.350 57.753 L 611.460 57.486 L 611.575 57.221 L 611.739 56.805 L 611.909 56.391 L 612.010 56.120 L 612.116 55.851 L 612.267 55.430 L 612.423 55.011 L 612.515 54.737 L 612.612 54.465 L 612.749 54.039 L 612.891 53.614 L 612.974 53.338 L 613.062 53.063 L 613.185 52.633 L 613.314 52.204 L 613.387 51.925 L 613.467 51.647 L 613.575 51.213 L 613.690 50.780 L 613.754 50.499 L 613.824 50.218 L 613.919 49.781 L 614.019 49.345 L 614.074 49.061 L 614.135 48.779 L 614.215 48.339 L 614.301 47.900 L 614.347 47.614 L 614.399 47.330 L 614.465 46.888 L 614.536 46.446 L 614.573 46.159 L 614.615 45.874 L 614.666 45.429 L 614.723 44.985 L 614.750 44.698 L 614.783 44.411 L 614.820 43.965 L 614.862 43.519 L 614.880 43.231 L 614.904 42.943 L 614.926 42.496 L 614.953 42.050 L 614.962 41.761 L 614.976 41.472 L 614.983 41.025 L 614.996 40.578 L 614.995 40.289 L 615.000 40.000 L 614.993 39.553 L 614.991 39.105 L 614.981 38.816 L 614.976 38.528 L 614.954 38.081 L 614.938 37.633 L 614.918 37.345 L 614.904 37.057 L 614.867 36.611 L 614.836 36.164 L 614.807 35.877 L 614.783 35.589 L 614.732 35.145 L 614.687 34.699 L 614.648 34.413 L 614.615 34.126 L 614.549 33.684 L 614.489 33.240 L 614.441 32.955 L 614.399 32.670 L 614.319 32.229 L 614.244 31.788 L 614.187 31.505 L 614.135 31.221 L 614.041 30.784 L 613.952 30.345 L 613.885 30.064 L 613.824 29.782 L 613.716 29.347 L 613.613 28.912 L 613.537 28.633 L 613.467 28.353 L 613.344 27.923 L 613.226 27.491 L 613.142 27.215 L 613.062 26.937 L 612.925 26.511 L 612.794 26.083 L 612.700 25.810 L 612.612 25.535 L 612.461 25.114 L 612.316 24.691 L 612.213 24.421 L 612.116 24.149 L 611.951 23.733 L 611.792 23.314 L 611.681 23.048 L 611.575 22.779 L 611.397 22.369 L 611.224 21.956 L 611.104 21.693 L 610.989 21.428 L 610.798 21.024 L 610.611 20.617 L 610.483 20.358 L 610.359 20.097 L 610.155 19.699 L 609.955 19.298 L 609.818 19.044 L 609.686 18.787 L 609.469 18.396 L 609.257 18.002 L 609.111 17.752 L 608.971 17.500 L 608.741 17.116 L 608.516 16.729 L 608.363 16.485 L 608.214 16.237 L 607.972 15.861 L 607.734 15.482 L 607.573 15.242 L 607.416 14.999 L 607.161 14.631 L 606.912 14.260 L 606.742 14.026 L 606.578 13.789 L 606.312 13.429 L 606.050 13.066 L 605.873 12.838 L 605.701 12.606 L 605.423 12.255 L 605.149 11.901 L 604.965 11.679 L 604.785 11.452 L 604.496 11.111 L 604.211 10.766 L 604.020 10.550 L 603.833 10.329 L 603.532 9.998 L 603.236 9.662 L 603.038 9.452 L 602.844 9.238 L 602.533 8.917 L 602.226 8.591 L 602.021 8.388 L 601.820 8.180 L 601.498 7.869 L 601.181 7.554 L 600.969 7.357 L 600.762 7.156 L 600.430 6.856 L 600.102 6.551 L 599.885 6.361 L 599.671 6.167 L 599.329 5.878 L 598.992 5.584 L 598.768 5.401 L 598.548 5.215 L 598.197 4.936 L 597.850 4.654 L 597.621 4.479 L 597.394 4.299 L 597.035 4.033 L 596.679 3.761 L 596.443 3.594 L 596.211 3.422 L 595.844 3.167 L 595.479 2.908 L 595.238 2.748 L 595.001 2.584 L 594.625 2.341 L 594.252 2.094 L 594.006 1.942 L 593.763 1.786 L 593.379 1.556 L 592.998 1.321 L 592.748 1.177 L 592.500 1.029 L 592.109 0.811 L 591.721 0.589 L 591.465 0.454 L 591.213 0.314 L 590.815 0.109 L 590.419 -0.100 L 590.160 -0.227 L 589.903 -0.359 L 589.498 -0.551 L 589.096 -0.747 L 588.833 -0.865 L 588.572 -0.989 L 588.161 -1.167 L 587.753 -1.350 L 587.486 -1.460 L 587.221 -1.575 L 586.805 -1.739 L 586.391 -1.909 L 586.120 -2.010 L 585.851 -2.116 L 585.430 -2.267 L 585.011 -2.423 L 584.737 -2.515 L 584.465 -2.612 L 584.039 -2.749 L 583.614 -2.891 L 583.338 -2.974 L 583.063 -3.062 L 582.633 -3.185 L 582.204 -3.314 L 581.925 -3.387 L 581.647 -3.467 L 581.213 -3.575 L 580.780 -3.690 L 580.499 -3.754 L 580.218 -3.824 L 579.781 -3.919 L 579.345 -4.019 L 579.061 -4.074 L 578.779 -4.135 L 578.339 -4.215 L 577.900 -4.301 L 577.614 -4.347 L 577.330 -4.399 L 576.888 -4.465 L 576.446 -4.536 L 576.159 -4.573 L 575.874 -4.615 L 575.429 -4.666 L 574.985 -4.723 L 574.698 -4.750 L 574.411 -4.783 L 573.965 -4.820 L 573.519 -4.862 L 573.231 -4.880 L 572.943 -4.904 L 572.496 -4.926 L 572.050 -4.953 L 571.761 -4.962 L 571.472 -4.976 L 571.025 -4.983 L 570.578 -4.996 L 570.289 -4.995 L 570.000 -5.000 L 130.000 -5.000 L 128.528 -4.976 L 127.057 -4.904 L 125.589 -4.783 L 124.126 -4.615 L 122.670 -4.399 L 121.221 -4.135 L 119.782 -3.824 L 118.353 -3.467 L 116.937 -3.062 L 115.535 -2.612 L 114.149 -2.116 L 112.779 -1.575 L 111.428 -0.989 L 110.097 -0.359 L 108.787 0.314 L 107.500 1.029 L 106.237 1.786 L 104.999 2.584 L 103.789 3.422 L 102.606 4.299 L 101.452 5.215 L 100.329 6.167 L 99.238 7.156 L 98.180 8.180 L 97.156 9.238 L 96.167 10.329 L 95.215 11.452 L 94.299 12.606 L 93.422 13.789 L 92.584 14.999 L 91.786 16.237 L 91.029 17.500 L 90.314 18.787 L 89.641 20.097 L 89.011 21.428 L 88.425 22.779 L 87.884 24.149 L 87.388 25.535 L 86.938 26.937 L 86.533 28.353 L 86.176 29.782 L 85.865 31.221 L 85.601 32.670 L 85.385 34.126 L 85.217 35.589 L 85.096 37.057 L 85.024 38.528 L 85.000 40.000 L 85.024 41.472 L 85.096 42.943 L 85.217 44.411 L 85.385 45.874 L 85.601 47.330 L 85.865 48.779 L 86.176 50.218 L 86.533 51.647 L 86.938 53.063 L 87.388 54.465 L 87.884 55.851 L 88.425 57.221 L 89.011 58.572 L 89.641 59.903 L 90.314 61.213 L 91.029 62.500 L 91.786 63.763 L 92.584 65.001 L 93.422 66.211 L 94.299 67.394 L 95.215 68.548 L 96.167 69.671 L 97.156 70.762 L 98.180 71.820 L 99.238 72.844 L 100.329 73.833 L 101.452 74.785 L 102.606 75.701 L 103.789 76.578 L 104.999 77.416 L 106.237 78.214 L 107.500 78.971 L 108.787 79.686 L 110.097 80.359 L 111.428 80.989 L 112.779 81.575 L 114.149 82.116 L 115.535 82.612 L 116.937 83.062 L 118.353 83.467 L 119.782 83.824 L 121.221 84.135 L 122.670 84.399 L 124.126 84.615 L 125.589 84.783 L 127.057 84.904 L 128.528 84.976 L 130.000 85.000 L 490.889 85.000 L 91.321 757.002 L 91.177 757.252 L 91.029 757.500 L 90.811 757.891 L 90.589 758.279 L 90.454 758.535 L 90.314 758.787 L 90.109 759.185 L 89.900 759.581 L 89.773 759.840 L 89.641 760.097 L 89.449 760.502 L 89.253 760.904 L 89.135 761.167 L 89.011 761.428 L 88.833 761.839 L 88.650 762.247 L 88.540 762.514 L 88.425 762.779 L 88.261 763.195 L 88.091 763.609 L 87.990 763.880 L 87.884 764.149 L 87.733 764.570 L 87.577 764.989 L 87.485 765.263 L 87.388 765.535 L 87.251 765.961 L 87.109 766.386 L 87.026 766.662 L 86.938 766.937 L 86.815 767.367 L 86.686 767.796 L 86.613 768.075 L 86.533 768.353 L 86.425 768.787 L 86.310 769.220 L 86.246 769.501 L 86.176 769.782 L 86.081 770.219 L 85.981 770.655 L 85.926 770.939 L 85.865 771.221 L 85.785 771.661 L 85.699 772.100 L 85.653 772.386 L 85.601 772.670 L 85.535 773.112 L 85.464 773.554 L 85.427 773.841 L 85.385 774.126 L 85.334 774.571 L 85.277 775.015 L 85.250 775.302 L 85.217 775.589 L 85.180 776.035 L 85.138 776.481 L 85.120 776.769 L 85.096 777.057 L 85.074 777.504 L 85.047 777.950 L 85.038 778.239 L 85.024 778.528 L 85.017 778.975 L 85.004 779.422 L 85.005 779.711 L 85.000 780.000 L 85.007 780.447 L 85.009 780.895 L 85.019 781.184 L 85.024 781.472 L 85.046 781.919 L 85.062 782.367 L 85.082 782.655 L 85.096 782.943 L 85.133 783.389 L 85.164 783.836 L 85.193 784.123 L 85.217 784.411 L 85.268 784.855 L 85.313 785.301 L 85.352 785.587 L 85.385 785.874 L 85.451 786.316 L 85.511 786.760 L 85.559 787.045 L 85.601 787.330 L 85.681 787.771 L 85.756 788.212 L 85.813 788.495 L 85.865 788.779 L 85.959 789.216 L 86.048 789.655 L 86.115 789.936 L 86.176 790.218 L 86.284 790.653 L 86.387 791.088 L 86.463 791.367 L 86.533 791.647 L 86.656 792.077 L 86.774 792.509 L 86.858 792.785 L 86.938 793.063 L 87.075 793.489 L 87.206 793.917 L 87.300 794.190 L 87.388 794.465 L 87.539 794.886 L 87.684 795.309 L 87.787 795.579 L 87.884 795.851 L 88.049 796.267 L 88.208 796.686 L 88.319 796.952 L 88.425 797.221 L 88.603 797.631 L 88.776 798.044 L 88.896 798.307 L 89.011 798.572 L 89.202 798.976 L 89.389 799.383 L 89.517 799.642 L 89.641 799.903 L 89.845 800.301 L 90.045 800.702 L 90.182 800.956 L 90.314 801.213 L 90.531 801.604 L 90.743 801.998 L 90.889 802.248 L 91.029 802.500 L 91.259 802.884 L 91.484 803.271 L 91.637 803.515 L 91.786 803.763 L 92.028 804.139 L 92.266 804.518 L 92.427 804.758 L 92.584 805.001 L 92.839 805.369 L 93.088 805.740 L 93.258 805.974 L 93.422 806.211 L 93.688 806.571 L 93.950 806.934 L 94.127 807.162 L 94.299 807.394 L 94.577 807.745 L 94.851 808.099 L 95.035 808.321 L 95.215 808.548 L 95.504 808.889 L 95.789 809.234 L 95.980 809.450 L 96.167 809.671 L 96.468 810.002 L 96.764 810.338 L 96.962 810.548 L 97.156 810.762 L 97.467 811.083 L 97.774 811.409 L 97.979 811.612 L 98.180 811.820 L 98.502 812.131 L 98.819 812.446 L 99.031 812.643 L 99.238 812.844 L 99.570 813.144 L 99.898 813.449 L 100.115 813.639 L 100.329 813.833 L 100.671 814.122 L 101.008 814.416 L 101.232 814.599 L 101.452 814.785 L 101.803 815.064 L 102.150 815.346 L 102.379 815.521 L 102.606 815.701 L 102.965 815.967 L 103.321 816.239 L 103.557 816.406 L 103.789 816.578 L 104.156 816.833 L 104.521 817.092 L 104.762 817.252 L 104.999 817.416 L 105.375 817.659 L 105.748 817.906 L 105.994 818.058 L 106.237 818.214 L 106.621 818.444 L 107.002 818.679 L 107.252 818.823 L 107.500 818.971 L 107.891 819.189 L 108.279 819.411 L 108.535 819.546 L 108.787 819.686 L 109.185 819.891 L 109.581 820.100 L 109.840 820.227 L 110.097 820.359 L 110.502 820.551 L 110.904 820.747 L 111.167 820.865 L 111.428 820.989 L 111.839 821.167 L 112.247 821.350 L 112.514 821.460 L 112.779 821.575 L 113.195 821.739 L 113.609 821.909 L 113.880 822.010 L 114.149 822.116 L 114.570 822.267 L 114.989 822.423 L 115.263 822.515 L 115.535 822.612 L 115.961 822.749 L 116.386 822.891 L 116.662 822.974 L 116.937 823.062 L 117.367 823.185 L 117.796 823.314 L 118.075 823.387 L 118.353 823.467 L 118.787 823.575 L 119.220 823.690 L 119.501 823.754 L 119.782 823.824 L 120.219 823.919 L 120.655 824.019 L 120.939 824.074 L 121.221 824.135 L 121.661 824.215 L 122.100 824.301 L 122.386 824.347 L 122.670 824.399 L 123.112 824.465 L 123.554 824.536 L 123.841 824.573 L 124.126 824.615 L 124.571 824.666 L 125.015 824.723 L 125.302 824.750 L 125.589 824.783 L 126.035 824.820 L 126.481 824.862 L 126.769 824.880 L 127.057 824.904 L 127.504 824.926 L 127.950 824.953 L 128.239 824.962 L 128.528 824.976 L 128.975 824.983 L 129.422 824.996 L 129.711 824.995 L 130.000 825.000 L 570.000 825.000 L 571.472 824.976 L 572.943 824.904 L 574.411 824.783 L 575.874 824.615 L 577.330 824.399 L 578.779 824.135 L 580.218 823.824 L 581.647 823.467 L 583.063 823.062 L 584.465 822.612 L 585.851 822.116 L 587.221 821.575 L 588.572 820.989 L 589.903 820.359 L 591.213 819.686 L 592.500 818.971 L 593.763 818.214 L 595.001 817.416 L 596.211 816.578 L 597.394 815.701 L 598.548 814.785 L 599.671 813.833 L 600.762 812.844 L 601.820 811.820 L 602.844 810.762 L 603.833 809.671 L 604.785 808.548 L 605.701 807.394 L 606.578 806.211 L 607.416 805.001 L 608.214 803.763 L 608.971 802.500 L 609.686 801.213 L 610.359 799.903 L 610.989 798.572 L 611.575 797.221 L 612.116 795.851 L 612.612 794.465 L 613.062 793.063 L 613.467 791.647 L 613.824 790.218 L 614.135 788.779 L 614.399 787.330 L 614.615 785.874 L 614.783 784.411 L 614.904 782.943 L 614.976 781.472 L 615.000 780.000 L 614.976 778.528 L 614.904 777.057 L 614.783 775.589 L 614.615 774.126 L 614.399 772.670 L 614.135 771.221 L 613.824 769.782 L 613.467 768.353 L 613.062 766.937 L 612.612 765.535 L 612.116 764.149 L 611.575 762.779 L 610.989 761.428 L 610.359 760.097 L 609.686 758.787 L 608.971 757.500 L 608.214 756.237 L 607.416 754.999 L 606.578 753.789 L 605.701 752.606 L 604.785 751.452 L 603.833 750.329 L 602.844 749.238 L 601.820 748.180 L 600.762 747.156 L 599.671 746.167 L 598.548 745.215 L 597.394 744.299 L 596.211 743.422 L 595.001 742.584 L 593.763 741.786 L 592.500 741.029 L 591.213 740.314 L 589.903 739.641 L 588.572 739.011 L 587.221 738.425 L 585.851 737.884 L 584.465 737.388 L 583.063 736.938 L 581.647 736.533 L 580.218 736.176 L 578.779 735.865 L 577.330 735.601 L 575.874 735.385 L 574.411 735.217 L 572.943 735.096 L 571.472 735.024 L 570.000 735.000 L 209.111 735.000 L 608.679 62.998 L 608.823 62.748 L 608.971 62.500 Z" fill="black" fill-rule="evenodd"/>
</svg>
