<svg xmlns="http://www.w3.org/2000/svg" width="700.000" height="1000" viewBox="0 0 700.000 1000">
  <path d="M 531.897 803.941 L 532.496 804.869 L 533.118 805.781 L 533.761 806.679 L 534.427 807.560 L 535.114 808.425 L 535.822 809.272 L 536.551 810.102 L 537.300 810.914 L 538.068 811.707 L 538.856 812.482 L 539.662 813.236 L 540.487 813.971 L 541.330 814.685 L 542.190 815.378 L 543.066 816.050 L 543.959 816.700 L 544.868 817.328 L 545.791 817.933 L 546.729 818.516 L 547.682 819.075 L 548.647 819.611 L 549.626 820.124 L 550.617 820.611 L 551.619 821.075 L 552.633 821.514 L 553.657 821.927 L 554.691 822.316 L 555.734 822.679 L 556.785 823.016 L 557.845 823.327 L 558.912 823.613 L 559.986 823.872 L 561.065 824.104 L 562.150 824.310 L 563.240 824.489 L 564.334 824.642 L 565.431 824.767 L 566.531 824.866 L 567.633 824.938 L 568.737 824.982 L 569.841 825.000 L 570.946 824.990 L 572.050 824.953 L 573.152 824.889 L 574.253 824.799 L 575.351 824.681 L 576.446 824.536 L 577.537 824.364 L 578.623 824.166 L 579.705 823.941 L 580.780 823.690 L 581.849 823.412 L 582.911 823.108 L 583.965 822.778 L 585.011 822.423 L 586.047 822.042 L 587.074 821.635 L 588.091 821.203 L 589.096 820.747 L 590.091 820.266 L 591.073 819.761 L 592.042 819.232 L 592.998 818.679 L 593.941 818.103 L 594.869 817.504 L 595.781 816.882 L 596.679 816.239 L 597.560 815.573 L 598.425 814.886 L 599.272 814.178 L 600.102 813.449 L 600.914 812.700 L 601.707 811.932 L 602.482 811.144 L 603.236 810.338 L 603.971 809.513 L 604.685 808.670 L 605.378 807.810 L 606.050 806.934 L 606.700 806.041 L 607.328 805.132 L 607.933 804.209 L 608.516 803.271 L 609.075 802.318 L 609.611 801.353 L 610.124 800.374 L 610.611 799.383 L 611.075 798.381 L 611.514 797.367 L 611.927 796.343 L 612.316 795.309 L 612.679 794.266 L 613.016 793.215 L 613.327 792.155 L 613.613 791.088 L 613.872 790.014 L 614.104 788.935 L 614.310 787.850 L 614.489 786.760 L 614.642 785.666 L 614.767 784.569 L 614.866 783.469 L 614.938 782.367 L 614.982 781.263 L 615.000 780.159 L 614.990 779.054 L 614.953 777.950 L 614.889 776.848 L 614.799 775.747 L 614.681 774.649 L 614.536 773.554 L 614.364 772.463 L 614.166 771.377 L 613.941 770.295 L 613.690 769.220 L 613.412 768.151 L 613.108 767.089 L 612.778 766.035 L 612.423 764.989 L 612.042 763.953 L 611.635 762.926 L 611.203 761.909 L 610.747 760.904 L 610.266 759.909 L 609.761 758.927 L 609.232 757.958 L 608.679 757.002 L 402.354 410.000 L 608.679 62.998 L 609.232 62.042 L 609.761 61.073 L 610.266 60.091 L 610.747 59.096 L 611.203 58.091 L 611.635 57.074 L 612.042 56.047 L 612.423 55.011 L 612.778 53.965 L 613.108 52.911 L 613.412 51.849 L 613.690 50.780 L 613.941 49.705 L 614.166 48.623 L 614.364 47.537 L 614.536 46.446 L 614.681 45.351 L 614.799 44.253 L 614.889 43.152 L 614.953 42.050 L 614.990 40.946 L 615.000 39.841 L 614.982 38.737 L 614.938 37.633 L 614.866 36.531 L 614.767 35.431 L 614.642 34.334 L 614.489 33.240 L 614.310 32.150 L 614.104 31.065 L 613.872 29.986 L 613.613 28.912 L 613.327 27.845 L 613.016 26.785 L 612.679 25.734 L 612.316 24.691 L 611.927 23.657 L 611.514 22.633 L 611.075 21.619 L 610.611 20.617 L 610.124 19.626 L 609.611 18.647 L 609.075 17.682 L 608.516 16.729 L 607.933 15.791 L 607.328 14.868 L 606.700 13.959 L 606.050 13.066 L 605.378 12.190 L 604.685 11.330 L 603.971 10.487 L 603.236 9.662 L 602.482 8.856 L 601.707 8.068 L 600.914 7.300 L 600.102 6.551 L 599.272 5.822 L 598.425 5.114 L 597.560 4.427 L 596.679 3.761 L 595.781 3.118 L 594.869 2.496 L 593.941 1.897 L 592.998 1.321 L 592.042 0.768 L 591.073 0.239 L 590.091 -0.266 L 589.096 -0.747 L 588.091 -1.203 L 587.074 -1.635 L 586.047 -2.042 L 585.011 -2.423 L 583.965 -2.778 L 582.911 -3.108 L 581.849 -3.412 L 580.780 -3.690 L 579.705 -3.941 L 578.623 -4.166 L 577.537 -4.364 L 576.446 -4.536 L 575.351 -4.681 L 574.253 -4.799 L 573.152 -4.889 L 572.050 -4.953 L 570.946 -4.990 L 569.841 -5.000 L 568.737 -4.982 L 567.633 -4.938 L 566.531 -4.866 L 565.431 -4.767 L 564.334 -4.642 L 563.240 -4.489 L 562.150 -4.310 L 561.065 -4.104 L 559.986 -3.872 L 558.912 -3.613 L 557.845 -3.327 L 556.785 -3.016 L 555.734 -2.679 L 554.691 -2.316 L 553.657 -1.927 L 552.633 -1.514 L 551.619 -1.075 L 550.617 -0.611 L 549.626 -0.124 L 548.647 0.389 L 547.682 0.925 L 546.729 1.484 L 545.791 2.067 L 544.868 2.672 L 543.959 3.300 L 543.066 3.950 L 542.190 4.622 L 541.330 5.315 L 540.487 6.029 L 539.662 6.764 L 538.856 7.518 L 538.068 8.293 L 537.300 9.086 L 536.551 9.898 L 535.822 10.728 L 535.114 11.575 L 534.427 12.440 L 533.761 13.321 L 533.118 14.219 L 532.496 15.131 L 531.897 16.059 L 531.321 17.002 L 350.000 321.950 L 168.679 17.002 L 168.103 16.059 L 167.504 15.131 L 166.882 14.219 L 166.239 13.321 L 165.573 12.440 L 164.886 11.575 L 164.178 10.728 L 163.449 9.898 L 162.700 9.086 L 161.932 8.293 L 161.144 7.518 L 160.338 6.764 L 159.513 6.029 L 158.670 5.315 L 157.810 4.622 L 156.934 3.950 L 156.041 3.300 L 155.132 2.672 L 154.209 2.067 L 153.271 1.484 L 152.318 0.925 L 151.353 0.389 L 150.374 -0.124 L 149.383 -0.611 L 148.381 -1.075 L 147.367 -1.514 L 146.343 -1.927 L 145.309 -2.316 L 144.266 -2.679 L 143.215 -3.016 L 142.155 -3.327 L 141.088 -3.613 L 140.014 -3.872 L 138.935 -4.104 L 137.850 -4.310 L 136.760 -4.489 L 135.666 -4.642 L 134.569 -4.767 L 133.469 -4.866 L 132.367 -4.938 L 131.263 -4.982 L 130.159 -5.000 L 129.054 -4.990 L 127.950 -4.953 L 126.848 -4.889 L 125.747 -4.799 L 124.649 -4.681 L 123.554 -4.536 L 122.463 -4.364 L 121.377 -4.166 L 120.295 -3.941 L 119.220 -3.690 L 118.151 -3.412 L 117.089 -3.108 L 116.035 -2.778 L 114.989 -2.423 L 113.953 -2.042 L 112.926 -1.635 L 111.909 -1.203 L 110.904 -0.747 L 109.909 -0.266 L 108.927 0.239 L 107.958 0.768 L 107.002 1.321 L 106.059 1.897 L 105.131 2.496 L 104.219 3.118 L 103.321 3.761 L 102.440 4.427 L 101.575 5.114 L 100.728 5.822 L 99.898 6.551 L 99.086 7.300 L 98.293 8.068 L 97.518 8.856 L 96.764 9.662 L 96.029 10.487 L 95.315 11.330 L 94.622 12.190 L 93.950 13.066 L 93.300 13.959 L 92.672 14.868 L 92.067 15.791 L 91.484 16.729 L 90.925 17.682 L 90.389 18.647 L 89.876 19.626 L 89.389 20.617 L 88.925 21.619 L 88.486 22.633 L 88.073 23.657 L 87.684 24.691 L 87.321 25.734 L 86.984 26.785 L 86.673 27.845 L 86.387 28.912 L 86.128 29.986 L 85.896 31.065 L 85.690 32.150 L 85.511 33.240 L 85.358 34.334 L 85.233 35.431 L 85.134 36.531 L 85.062 37.633 L 85.018 38.737 L 85.000 39.841 L 85.010 40.946 L 85.047 42.050 L 85.111 43.152 L 85.201 44.253 L 85.319 45.351 L 85.464 46.446 L 85.636 47.537 L 85.834 48.623 L 86.059 49.705 L 86.310 50.780 L 86.588 51.849 L 86.892 52.911 L 87.222 53.965 L 87.577 55.011 L 87.958 56.047 L 88.365 57.074 L 88.797 58.091 L 89.253 59.096 L 89.734 60.091 L 90.239 61.073 L 90.768 62.042 L 91.321 62.998 L 297.646 410.000 L 91.321 757.002 L 90.768 757.958 L 90.239 758.927 L 89.734 759.909 L 89.253 760.904 L 88.797 761.909 L 88.365 762.926 L 87.958 763.953 L 87.577 764.989 L 87.222 766.035 L 86.892 767.089 L 86.588 768.151 L 86.310 769.220 L 86.059 770.295 L 85.834 771.377 L 85.636 772.463 L 85.464 773.554 L 85.319 774.649 L 85.201 775.747 L 85.111 776.848 L 85.047 777.950 L 85.010 779.054 L 85.000 780.159 L 85.018 781.263 L 85.062 782.367 L 85.134 783.469 L 85.233 784.569 L 85.358 785.666 L 85.511 786.760 L 85.690 787.850 L 85.896 788.935 L 86.128 790.014 L 86.387 791.088 L 86.673 792.155 L 86.984 793.215 L 87.321 794.266 L 87.684 795.309 L 88.073 796.343 L 88.486 797.367 L 88.925 798.381 L 89.389 799.383 L 89.876 800.374 L 90.389 801.353 L 90.925 802.318 L 91.484 803.271 L 92.067 804.209 L 92.672 805.132 L 93.300 806.041 L 93.950 806.934 L 94.622 807.810 L 95.315 808.670 L 96.029 809.513 L 96.764 810.338 L 97.518 811.144 L 98.293 811.932 L 99.086 812.700 L 99.898 813.449 L 100.728 814.178 L 101.575 814.886 L 102.440 815.573 L 103.321 816.239 L 104.219 816.882 L 105.131 817.504 L 106.059 818.103 L 107.002 818.679 L 107.958 819.232 L 108.927 819.761 L 109.909 820.266 L 110.904 820.747 L 111.909 821.203 L 112.926 821.635 L 113.953 822.042 L 114.989 822.423 L 116.035 822.778 L 117.089 823.108 L 118.151 823.412 L 119.220 823.690 L 120.295 823.941 L 121.377 824.166 L 122.463 824.364 L 123.554 824.536 L 124.649 824.681 L 125.747 824.799 L 126.848 824.889 L 127.950 824.953 L 129.054 824.990 L 130.159 825.000 L 131.263 824.982 L 132.367 824.938 L 133.469 824.866 L 134.569 824.767 L 135.666 824.642 L 136.760 824.489 L 137.850 824.310 L 138.935 824.104 L 140.014 823.872 L 141.088 823.613 L 142.155 823.327 L 143.215 823.016 L 144.266 822.679 L 145.309 822.316 L 146.343 821.927 L 147.367 821.514 L 148.381 821.075 L 149.383 820.611 L 150.374 820.124 L 151.353 819.611 L 152.318 819.075 L 153.271 818.516 L 154.209 817.933 L 155.132 817.328 L 156.041 816.700 L 156.934 816.050 L 157.810 815.378 L 158.670 814.685 L 159.513 813.971 L 160.338 813.236 L 161.144 812.482 L 161.932 811.707 L 162.700 810.914 L 163.449 810.102 L 164.178 809.272 L 164.886 808.425 L 165.573 807.560 L 166.239 806.679 L 166.882 805.781 L 167.504 804.869 L 168.103 803.941 L 168.679 802.998 L 350.000 498.050 L 531.321 802.998 L 531.897 803.941 Z" fill="black" fill-rule="evenodd"/>
</svg>
