<svg xmlns="http://www.w3.org/2000/svg" width="700.000" height="1000" viewBox="0 0 700.000 1000">
  <path d="M 609.154 62.180 L 609.192 62.111 L 609.232 62.042 L 609.458 61.627 L 609.686 61.213 L 609.723 61.142 L 609.761 61.073 L 609.977 60.652 L 610.195 60.233 L 610.230 60.161 L 610.266 60.091 L 610.472 59.665 L 610.680 59.240 L 610.713 59.168 L 610.747 59.096 L 610.943 58.666 L 611.139 58.236 L 611.171 58.163 L 611.203 58.091 L 611.388 57.655 L 611.575 57.221 L 611.604 57.147 L 611.635 57.074 L 611.809 56.634 L 611.985 56.195 L 612.012 56.121 L 612.042 56.047 L 612.205 55.603 L 612.369 55.160 L 612.395 55.085 L 612.423 55.011 L 612.575 54.563 L 612.729 54.116 L 612.753 54.040 L 612.778 53.965 L 612.919 53.514 L 613.062 53.063 L 613.084 52.987 L 613.108 52.911 L 613.238 52.456 L 613.370 52.002 L 613.390 51.925 L 613.412 51.849 L 613.531 51.391 L 613.651 50.934 L 613.670 50.857 L 613.690 50.780 L 613.797 50.320 L 613.907 49.860 L 613.923 49.782 L 613.941 49.705 L 614.037 49.242 L 614.135 48.779 L 614.150 48.701 L 614.166 48.623 L 614.251 48.158 L 614.337 47.693 L 614.350 47.615 L 614.364 47.537 L 614.438 47.070 L 614.513 46.603 L 614.524 46.524 L 614.536 46.446 L 614.598 45.977 L 614.662 45.508 L 614.670 45.430 L 614.681 45.351 L 614.731 44.881 L 614.783 44.411 L 614.790 44.332 L 614.799 44.253 L 614.837 43.782 L 614.878 43.310 L 614.883 43.231 L 614.889 43.152 L 614.917 42.680 L 614.946 42.208 L 614.949 42.129 L 614.953 42.050 L 614.969 41.577 L 614.986 41.104 L 614.987 41.025 L 614.990 40.946 L 614.994 40.473 L 615.000 40.000 L 614.999 39.921 L 615.000 39.841 L 614.992 39.369 L 614.986 38.896 L 614.984 38.816 L 614.982 38.737 L 614.963 38.265 L 614.946 37.792 L 614.941 37.713 L 614.938 37.633 L 614.907 37.162 L 614.878 36.690 L 614.871 36.611 L 614.866 36.531 L 614.824 36.060 L 614.783 35.589 L 614.775 35.510 L 614.767 35.431 L 614.714 34.962 L 614.662 34.492 L 614.651 34.413 L 614.642 34.334 L 614.577 33.866 L 614.513 33.397 L 614.500 33.319 L 614.489 33.240 L 614.413 32.774 L 614.337 32.307 L 614.323 32.229 L 614.310 32.150 L 614.222 31.686 L 614.135 31.221 L 614.119 31.143 L 614.104 31.065 L 614.005 30.603 L 613.907 30.140 L 613.888 30.063 L 613.872 29.986 L 613.761 29.526 L 613.651 29.066 L 613.631 28.989 L 613.613 28.912 L 613.490 28.455 L 613.370 27.998 L 613.348 27.922 L 613.327 27.845 L 613.194 27.391 L 613.062 26.937 L 613.038 26.862 L 613.016 26.785 L 612.872 26.335 L 612.729 25.884 L 612.703 25.809 L 612.679 25.734 L 612.523 25.287 L 612.369 24.840 L 612.342 24.766 L 612.316 24.691 L 612.149 24.248 L 611.985 23.805 L 611.955 23.731 L 611.927 23.657 L 611.750 23.218 L 611.575 22.779 L 611.543 22.706 L 611.514 22.633 L 611.326 22.199 L 611.139 21.764 L 611.106 21.692 L 611.075 21.619 L 610.876 21.190 L 610.680 20.760 L 610.645 20.689 L 610.611 20.617 L 610.403 20.192 L 610.195 19.767 L 610.159 19.697 L 610.124 19.626 L 609.904 19.207 L 609.686 18.787 L 609.648 18.718 L 609.611 18.647 L 609.382 18.234 L 609.154 17.820 L 609.114 17.751 L 609.075 17.682 L 608.836 17.274 L 608.598 16.865 L 608.556 16.798 L 608.516 16.729 L 608.266 16.328 L 608.018 15.925 L 607.975 15.859 L 607.933 15.791 L 607.674 15.396 L 607.416 14.999 L 607.371 14.934 L 607.328 14.868 L 607.059 14.479 L 606.791 14.089 L 606.745 14.024 L 606.700 13.959 L 606.421 13.577 L 606.144 13.194 L 606.096 13.130 L 606.050 13.066 L 605.762 12.691 L 605.476 12.315 L 605.426 12.253 L 605.378 12.190 L 605.081 11.822 L 604.785 11.452 L 604.734 11.392 L 604.685 11.330 L 604.379 10.969 L 604.074 10.607 L 604.022 10.548 L 603.971 10.487 L 603.656 10.134 L 603.343 9.780 L 603.289 9.722 L 603.236 9.662 L 602.913 9.317 L 602.591 8.971 L 602.536 8.914 L 602.482 8.856 L 602.150 8.519 L 601.820 8.180 L 601.763 8.125 L 601.707 8.068 L 601.368 7.739 L 601.029 7.409 L 600.971 7.355 L 600.914 7.300 L 600.567 6.979 L 600.220 6.657 L 600.161 6.605 L 600.102 6.551 L 599.747 6.239 L 599.393 5.926 L 599.332 5.875 L 599.272 5.822 L 598.910 5.519 L 598.548 5.215 L 598.486 5.165 L 598.425 5.114 L 598.055 4.820 L 597.685 4.524 L 597.622 4.476 L 597.560 4.427 L 597.183 4.142 L 596.806 3.856 L 596.742 3.809 L 596.679 3.761 L 596.295 3.486 L 595.911 3.209 L 595.846 3.164 L 595.781 3.118 L 595.391 2.851 L 595.001 2.584 L 594.934 2.541 L 594.869 2.496 L 594.471 2.239 L 594.075 1.982 L 594.007 1.940 L 593.941 1.897 L 593.537 1.650 L 593.135 1.402 L 593.066 1.362 L 592.998 1.321 L 592.589 1.084 L 592.180 0.846 L 592.111 0.808 L 592.042 0.768 L 591.627 0.542 L 591.213 0.314 L 591.142 0.277 L 591.073 0.239 L 590.652 0.023 L 590.233 -0.195 L 590.161 -0.230 L 590.091 -0.266 L 589.665 -0.472 L 589.240 -0.680 L 589.168 -0.713 L 589.096 -0.747 L 588.666 -0.943 L 588.236 -1.139 L 588.163 -1.171 L 588.091 -1.203 L 587.655 -1.388 L 587.221 -1.575 L 587.147 -1.604 L 587.074 -1.635 L 586.634 -1.809 L 586.195 -1.985 L 586.121 -2.012 L 586.047 -2.042 L 585.603 -2.205 L 585.160 -2.369 L 585.085 -2.395 L 585.011 -2.423 L 584.563 -2.575 L 584.116 -2.729 L 584.040 -2.753 L 583.965 -2.778 L 583.514 -2.919 L 583.063 -3.062 L 582.987 -3.084 L 582.911 -3.108 L 582.456 -3.238 L 582.002 -3.370 L 581.925 -3.390 L 581.849 -3.412 L 581.391 -3.531 L 580.934 -3.651 L 580.857 -3.670 L 580.780 -3.690 L 580.320 -3.797 L 579.860 -3.907 L 579.782 -3.923 L 579.705 -3.941 L 579.242 -4.037 L 578.779 -4.135 L 578.701 -4.150 L 578.623 -4.166 L 578.158 -4.251 L 577.693 -4.337 L 577.615 -4.350 L 577.537 -4.364 L 577.070 -4.438 L 576.603 -4.513 L 576.524 -4.524 L 576.446 -4.536 L 575.977 -4.598 L 575.508 -4.662 L 575.430 -4.670 L 575.351 -4.681 L 574.881 -4.731 L 574.411 -4.783 L 574.332 -4.790 L 574.253 -4.799 L 573.782 -4.837 L 573.310 -4.878 L 573.231 -4.883 L 573.152 -4.889 L 572.680 -4.917 L 572.208 -4.946 L 572.129 -4.949 L 572.050 -4.953 L 571.577 -4.969 L 571.104 -4.986 L 571.025 -4.987 L 570.946 -4.990 L 570.473 -4.994 L 570.000 -5.000 L 130.000 -5.000 L 128.896 -4.986 L 127.792 -4.946 L 126.690 -4.878 L 125.589 -4.783 L 124.492 -4.662 L 123.397 -4.513 L 122.307 -4.337 L 121.221 -4.135 L 120.140 -3.907 L 119.066 -3.651 L 117.998 -3.370 L 116.937 -3.062 L 115.884 -2.729 L 114.840 -2.369 L 113.805 -1.985 L 112.779 -1.575 L 111.764 -1.139 L 110.760 -0.680 L 109.767 -0.195 L 108.787 0.314 L 107.820 0.846 L 106.865 1.402 L 105.925 1.982 L 104.999 2.584 L 104.089 3.209 L 103.194 3.856 L 102.315 4.524 L 101.452 5.215 L 100.607 5.926 L 99.780 6.657 L 98.971 7.409 L 98.180 8.180 L 97.409 8.971 L 96.657 9.780 L 95.926 10.607 L 95.215 11.452 L 94.524 12.315 L 93.856 13.194 L 93.209 14.089 L 92.584 14.999 L 91.982 15.925 L 91.402 16.865 L 90.846 17.820 L 90.314 18.787 L 89.805 19.767 L 89.320 20.760 L 88.861 21.764 L 88.425 22.779 L 88.015 23.805 L 87.631 24.840 L 87.271 25.884 L 86.938 26.937 L 86.630 27.998 L 86.349 29.066 L 86.093 30.140 L 85.865 31.221 L 85.663 32.307 L 85.487 33.397 L 85.338 34.492 L 85.217 35.589 L 85.122 36.690 L 85.054 37.792 L 85.014 38.896 L 85.000 40.000 L 85.014 41.104 L 85.054 42.208 L 85.122 43.310 L 85.217 44.411 L 85.338 45.508 L 85.487 46.603 L 85.663 47.693 L 85.865 48.779 L 86.093 49.860 L 86.349 50.934 L 86.630 52.002 L 86.938 53.063 L 87.271 54.116 L 87.631 55.160 L 88.015 56.195 L 88.425 57.221 L 88.861 58.236 L 89.320 59.240 L 89.805 60.233 L 90.314 61.213 L 90.846 62.180 L 91.402 63.135 L 91.982 64.075 L 92.584 65.001 L 93.209 65.911 L 93.856 66.806 L 94.524 67.685 L 95.215 68.548 L 95.926 69.393 L 96.657 70.220 L 97.409 71.029 L 98.180 71.820 L 98.971 72.591 L 99.780 73.343 L 100.607 74.074 L 101.452 74.785 L 102.315 75.476 L 103.194 76.144 L 104.089 76.791 L 104.999 77.416 L 105.925 78.018 L 106.865 78.598 L 107.820 79.154 L 108.787 79.686 L 109.767 80.195 L 110.760 80.680 L 111.764 81.139 L 112.779 81.575 L 113.805 81.985 L 114.840 82.369 L 115.884 82.729 L 116.937 83.062 L 117.998 83.370 L 119.066 83.651 L 120.140 83.907 L 121.221 84.135 L 122.307 84.337 L 123.397 84.513 L 124.492 84.662 L 125.589 84.783 L 126.690 84.878 L 127.792 84.946 L 128.896 84.986 L 130.000 85.000 L 490.889 85.000 L 91.321 757.002 L 91.084 757.411 L 90.846 757.820 L 90.808 757.889 L 90.768 757.958 L 90.542 758.373 L 90.314 758.787 L 90.277 758.858 L 90.239 758.927 L 90.023 759.348 L 89.805 759.767 L 89.770 759.839 L 89.734 759.909 L 89.528 760.335 L 89.320 760.760 L 89.287 760.832 L 89.253 760.904 L 89.057 761.334 L 88.861 761.764 L 88.829 761.837 L 88.797 761.909 L 88.612 762.345 L 88.425 762.779 L 88.396 762.853 L 88.365 762.926 L 88.191 763.366 L 88.015 763.805 L 87.988 763.879 L 87.958 763.953 L 87.795 764.397 L 87.631 764.840 L 87.605 764.915 L 87.577 764.989 L 87.425 765.437 L 87.271 765.884 L 87.247 765.960 L 87.222 766.035 L 87.081 766.486 L 86.938 766.937 L 86.916 767.013 L 86.892 767.089 L 86.762 767.544 L 86.630 767.998 L 86.610 768.075 L 86.588 768.151 L 86.469 768.609 L 86.349 769.066 L 86.330 769.143 L 86.310 769.220 L 86.203 769.680 L 86.093 770.140 L 86.077 770.218 L 86.059 770.295 L 85.963 770.758 L 85.865 771.221 L 85.850 771.299 L 85.834 771.377 L 85.749 771.842 L 85.663 772.307 L 85.650 772.385 L 85.636 772.463 L 85.562 772.930 L 85.487 773.397 L 85.476 773.476 L 85.464 773.554 L 85.402 774.023 L 85.338 774.492 L 85.330 774.570 L 85.319 774.649 L 85.269 775.119 L 85.217 775.589 L 85.210 775.668 L 85.201 775.747 L 85.163 776.218 L 85.122 776.690 L 85.117 776.769 L 85.111 776.848 L 85.083 777.320 L 85.054 777.792 L 85.051 777.871 L 85.047 777.950 L 85.031 778.423 L 85.014 778.896 L 85.013 778.975 L 85.010 779.054 L 85.006 779.527 L 85.000 780.000 L 85.001 780.079 L 85.000 780.159 L 85.008 780.631 L 85.014 781.104 L 85.016 781.184 L 85.018 781.263 L 85.037 781.735 L 85.054 782.208 L 85.059 782.287 L 85.062 782.367 L 85.093 782.838 L 85.122 783.310 L 85.129 783.389 L 85.134 783.469 L 85.176 783.940 L 85.217 784.411 L 85.225 784.490 L 85.233 784.569 L 85.286 785.038 L 85.338 785.508 L 85.349 785.587 L 85.358 785.666 L 85.423 786.134 L 85.487 786.603 L 85.500 786.681 L 85.511 786.760 L 85.587 787.226 L 85.663 787.693 L 85.677 787.771 L 85.690 787.850 L 85.778 788.314 L 85.865 788.779 L 85.881 788.857 L 85.896 788.935 L 85.995 789.397 L 86.093 789.860 L 86.112 789.937 L 86.128 790.014 L 86.239 790.474 L 86.349 790.934 L 86.369 791.011 L 86.387 791.088 L 86.510 791.545 L 86.630 792.002 L 86.652 792.078 L 86.673 792.155 L 86.806 792.609 L 86.938 793.063 L 86.962 793.138 L 86.984 793.215 L 87.128 793.665 L 87.271 794.116 L 87.297 794.191 L 87.321 794.266 L 87.477 794.713 L 87.631 795.160 L 87.658 795.234 L 87.684 795.309 L 87.851 795.752 L 88.015 796.195 L 88.045 796.269 L 88.073 796.343 L 88.250 796.782 L 88.425 797.221 L 88.457 797.294 L 88.486 797.367 L 88.674 797.801 L 88.861 798.236 L 88.894 798.308 L 88.925 798.381 L 89.124 798.810 L 89.320 799.240 L 89.355 799.311 L 89.389 799.383 L 89.597 799.808 L 89.805 800.233 L 89.841 800.303 L 89.876 800.374 L 90.096 800.793 L 90.314 801.213 L 90.352 801.282 L 90.389 801.353 L 90.618 801.766 L 90.846 802.180 L 90.886 802.249 L 90.925 802.318 L 91.164 802.726 L 91.402 803.135 L 91.444 803.202 L 91.484 803.271 L 91.734 803.672 L 91.982 804.075 L 92.025 804.141 L 92.067 804.209 L 92.326 804.604 L 92.584 805.001 L 92.629 805.066 L 92.672 805.132 L 92.941 805.521 L 93.209 805.911 L 93.255 805.976 L 93.300 806.041 L 93.579 806.423 L 93.856 806.806 L 93.904 806.870 L 93.950 806.934 L 94.238 807.309 L 94.524 807.685 L 94.574 807.747 L 94.622 807.810 L 94.919 808.178 L 95.215 808.548 L 95.266 808.608 L 95.315 808.670 L 95.621 809.031 L 95.926 809.393 L 95.978 809.452 L 96.029 809.513 L 96.344 809.866 L 96.657 810.220 L 96.711 810.278 L 96.764 810.338 L 97.087 810.683 L 97.409 811.029 L 97.464 811.086 L 97.518 811.144 L 97.850 811.481 L 98.180 811.820 L 98.237 811.875 L 98.293 811.932 L 98.632 812.261 L 98.971 812.591 L 99.029 812.645 L 99.086 812.700 L 99.433 813.021 L 99.780 813.343 L 99.839 813.395 L 99.898 813.449 L 100.253 813.761 L 100.607 814.074 L 100.668 814.125 L 100.728 814.178 L 101.090 814.481 L 101.452 814.785 L 101.514 814.835 L 101.575 814.886 L 101.945 815.180 L 102.315 815.476 L 102.378 815.524 L 102.440 815.573 L 102.817 815.858 L 103.194 816.144 L 103.258 816.191 L 103.321 816.239 L 103.705 816.514 L 104.089 816.791 L 104.154 816.836 L 104.219 816.882 L 104.609 817.149 L 104.999 817.416 L 105.066 817.459 L 105.131 817.504 L 105.529 817.761 L 105.925 818.018 L 105.993 818.060 L 106.059 818.103 L 106.463 818.350 L 106.865 818.598 L 106.934 818.638 L 107.002 818.679 L 107.411 818.916 L 107.820 819.154 L 107.889 819.192 L 107.958 819.232 L 108.373 819.458 L 108.787 819.686 L 108.858 819.723 L 108.927 819.761 L 109.348 819.977 L 109.767 820.195 L 109.839 820.230 L 109.909 820.266 L 110.335 820.472 L 110.760 820.680 L 110.832 820.713 L 110.904 820.747 L 111.334 820.943 L 111.764 821.139 L 111.837 821.171 L 111.909 821.203 L 112.345 821.388 L 112.779 821.575 L 112.853 821.604 L 112.926 821.635 L 113.366 821.809 L 113.805 821.985 L 113.879 822.012 L 113.953 822.042 L 114.397 822.205 L 114.840 822.369 L 114.915 822.395 L 114.989 822.423 L 115.437 822.575 L 115.884 822.729 L 115.960 822.753 L 116.035 822.778 L 116.486 822.919 L 116.937 823.062 L 117.013 823.084 L 117.089 823.108 L 117.544 823.238 L 117.998 823.370 L 118.075 823.390 L 118.151 823.412 L 118.609 823.531 L 119.066 823.651 L 119.143 823.670 L 119.220 823.690 L 119.680 823.797 L 120.140 823.907 L 120.218 823.923 L 120.295 823.941 L 120.758 824.037 L 121.221 824.135 L 121.299 824.150 L 121.377 824.166 L 121.842 824.251 L 122.307 824.337 L 122.385 824.350 L 122.463 824.364 L 122.930 824.438 L 123.397 824.513 L 123.476 824.524 L 123.554 824.536 L 124.023 824.598 L 124.492 824.662 L 124.570 824.670 L 124.649 824.681 L 125.119 824.731 L 125.589 824.783 L 125.668 824.790 L 125.747 824.799 L 126.218 824.837 L 126.690 824.878 L 126.769 824.883 L 126.848 824.889 L 127.320 824.917 L 127.792 824.946 L 127.871 824.949 L 127.950 824.953 L 128.423 824.969 L 128.896 824.986 L 128.975 824.987 L 129.054 824.990 L 129.527 824.994 L 130.000 825.000 L 570.000 825.000 L 571.104 824.986 L 572.208 824.946 L 573.310 824.878 L 574.411 824.783 L 575.508 824.662 L 576.603 824.513 L 577.693 824.337 L 578.779 824.135 L 579.860 823.907 L 580.934 823.651 L 582.002 823.370 L 583.063 823.062 L 584.116 822.729 L 585.160 822.369 L 586.195 821.985 L 587.221 821.575 L 588.236 821.139 L 589.240 820.680 L 590.233 820.195 L 591.213 819.686 L 592.180 819.154 L 593.135 818.598 L 594.075 818.018 L 595.001 817.416 L 595.911 816.791 L 596.806 816.144 L 597.685 815.476 L 598.548 814.785 L 599.393 814.074 L 600.220 813.343 L 601.029 812.591 L 601.820 811.820 L 602.591 811.029 L 603.343 810.220 L 604.074 809.393 L 604.785 808.548 L 605.476 807.685 L 606.144 806.806 L 606.791 805.911 L 607.416 805.001 L 608.018 804.075 L 608.598 803.135 L 609.154 802.180 L 609.686 801.213 L 610.195 800.233 L 610.680 799.240 L 611.139 798.236 L 611.575 797.221 L 611.985 796.195 L 612.369 795.160 L 612.729 794.116 L 613.062 793.063 L 613.370 792.002 L 613.651 790.934 L 613.907 789.860 L 614.135 788.779 L 614.337 787.693 L 614.513 786.603 L 614.662 785.508 L 614.783 784.411 L 614.878 783.310 L 614.946 782.208 L 614.986 781.104 L 615.000 780.000 L 614.986 778.896 L 614.946 777.792 L 614.878 776.690 L 614.783 775.589 L 614.662 774.492 L 614.513 773.397 L 614.337 772.307 L 614.135 771.221 L 613.907 770.140 L 613.651 769.066 L 613.370 767.998 L 613.062 766.937 L 612.729 765.884 L 612.369 764.840 L 611.985 763.805 L 611.575 762.779 L 611.139 761.764 L 610.680 760.760 L 610.195 759.767 L 609.686 758.787 L 609.154 757.820 L 608.598 756.865 L 608.018 755.925 L 607.416 754.999 L 606.791 754.089 L 606.144 753.194 L 605.476 752.315 L 604.785 751.452 L 604.074 750.607 L 603.343 749.780 L 602.591 748.971 L 601.820 748.180 L 601.029 747.409 L 600.220 746.657 L 599.393 745.926 L 598.548 745.215 L 597.685 744.524 L 596.806 743.856 L 595.911 743.209 L 595.001 742.584 L 594.075 741.982 L 593.135 741.402 L 592.180 740.846 L 591.213 740.314 L 590.233 739.805 L 589.240 739.320 L 588.236 738.861 L 587.221 738.425 L 586.195 738.015 L 585.160 737.631 L 584.116 737.271 L 583.063 736.938 L 582.002 736.630 L 580.934 736.349 L 579.860 736.093 L 578.779 735.865 L 577.693 735.663 L 576.603 735.487 L 575.508 735.338 L 574.411 735.217 L 573.310 735.122 L 572.208 735.054 L 571.104 735.014 L 570.000 735.000 L 209.111 735.000 L 608.679 62.998 L 608.916 62.589 L 609.154 62.180 Z" fill="black" fill-rule="evenodd"/>
</svg>
