<svg xmlns="http://www.w3.org/2000/svg" viewBox="0 0 600.000 1000.000">
  <path d="M 224.448,553.054 L 226.651,553.217 L 228.843,553.487 L 231.019,553.865 L 233.174,554.349 L 235.303,554.938 L 237.400,555.631 L 239.461,556.425 L 241.480,557.320 L 243.453,558.314 L 245.375,559.402 L 247.241,560.584 L 249.046,561.856 L 250.788,563.215 L 252.460,564.657 L 254.060,566.180 L 255.583,567.780 L 257.025,569.452 L 258.384,571.194 L 259.656,572.999 L 260.838,574.865 L 261.926,576.787 L 262.920,578.760 L 263.815,580.779 L 264.609,582.840 L 265.302,584.937 L 265.891,587.066 L 266.375,589.221 L 266.753,591.397 L 267.023,593.589 L 267.186,595.792 L 267.240,598.000 L 267.186,600.208 L 267.023,602.411 L 266.753,604.603 L 266.375,606.779 L 265.891,608.934 L 265.302,611.063 L 264.609,613.160 L 263.815,615.221 L 262.920,617.240 L 261.926,619.213 L 260.838,621.135 L 259.656,623.001 L 258.384,624.806 L 257.025,626.548 L 255.583,628.220 L 254.060,629.820 L 252.460,631.343 L 250.788,632.785 L 249.046,634.144 L 247.241,635.416 L 245.375,636.598 L 243.453,637.686 L 241.480,638.680 L 239.461,639.575 L 237.400,640.369 L 235.303,641.062 L 233.174,641.651 L 231.019,642.135 L 228.843,642.513 L 226.651,642.783 L 224.448,642.946 L 222.240,643.000 L 170.000,643.000 L 170.000,780.000 L 169.946,782.208 L 169.783,784.411 L 169.513,786.603 L 169.135,788.779 L 168.651,790.934 L 168.062,793.063 L 167.369,795.160 L 166.575,797.221 L 165.680,799.240 L 164.686,801.213 L 163.598,803.135 L 162.416,805.001 L 161.144,806.806 L 159.785,808.548 L 158.343,810.220 L 156.820,811.820 L 155.220,813.343 L 153.548,814.785 L 151.806,816.144 L 150.001,817.416 L 148.135,818.598 L 146.213,819.686 L 144.240,820.680 L 142.221,821.575 L 140.160,822.369 L 138.063,823.062 L 135.934,823.651 L 133.779,824.135 L 131.603,824.513 L 129.411,824.783 L 127.208,824.946 L 125.000,825.000 L 122.792,824.946 L 120.589,824.783 L 118.397,824.513 L 116.221,824.135 L 114.066,823.651 L 111.937,823.062 L 109.840,822.369 L 107.779,821.575 L 105.760,820.680 L 103.787,819.686 L 101.865,818.598 L 99.999,817.416 L 98.194,816.144 L 96.452,814.785 L 94.780,813.343 L 93.180,811.820 L 91.657,810.220 L 90.215,808.548 L 88.856,806.806 L 87.584,805.001 L 86.402,803.135 L 85.314,801.213 L 84.320,799.240 L 83.425,797.221 L 82.631,795.160 L 81.938,793.063 L 81.349,790.934 L 80.865,788.779 L 80.487,786.603 L 80.217,784.411 L 80.054,782.208 L 80.000,780.000 L 80.000,626.273 L 78.856,624.806 L 77.584,623.001 L 76.402,621.135 L 75.314,619.213 L 74.320,617.240 L 73.425,615.221 L 72.631,613.160 L 71.938,611.063 L 71.349,608.934 L 70.865,606.779 L 70.487,604.603 L 70.217,602.411 L 70.054,600.208 L 70.000,598.000 L 70.054,595.792 L 70.217,593.589 L 70.487,591.397 L 70.865,589.221 L 71.349,587.066 L 71.938,584.937 L 72.631,582.840 L 73.425,580.779 L 74.320,578.760 L 75.314,576.787 L 76.402,574.865 L 77.584,572.999 L 78.856,571.194 L 80.000,569.727 L 80.000,418.273 L 78.856,416.806 L 77.584,415.001 L 76.402,413.135 L 75.314,411.213 L 74.320,409.240 L 73.425,407.221 L 72.631,405.160 L 71.938,403.063 L 71.349,400.934 L 70.865,398.779 L 70.487,396.603 L 70.217,394.411 L 70.054,392.208 L 70.000,390.000 L 70.054,387.792 L 70.217,385.589 L 70.487,383.397 L 70.865,381.221 L 71.349,379.066 L 71.938,376.937 L 72.631,374.840 L 73.425,372.779 L 74.320,370.760 L 75.314,368.787 L 76.402,366.865 L 77.584,364.999 L 78.856,363.194 L 80.000,361.727 L 80.000,0.000 L 80.054,-2.208 L 80.217,-4.411 L 80.487,-6.603 L 80.865,-8.779 L 81.349,-10.934 L 81.938,-13.063 L 82.631,-15.160 L 83.425,-17.221 L 84.320,-19.240 L 85.314,-21.213 L 86.402,-23.135 L 87.584,-25.001 L 88.856,-26.806 L 90.215,-28.548 L 91.657,-30.220 L 93.180,-31.820 L 94.780,-33.343 L 96.452,-34.785 L 98.194,-36.144 L 99.999,-37.416 L 101.865,-38.598 L 103.787,-39.686 L 105.760,-40.680 L 107.779,-41.575 L 109.840,-42.369 L 111.937,-43.062 L 114.066,-43.651 L 116.221,-44.135 L 118.397,-44.513 L 120.589,-44.783 L 122.792,-44.946 L 125.000,-45.000 L 127.208,-44.946 L 129.411,-44.783 L 131.603,-44.513 L 133.779,-44.135 L 135.934,-43.651 L 138.063,-43.062 L 140.160,-42.369 L 142.221,-41.575 L 144.240,-40.680 L 146.213,-39.686 L 148.135,-38.598 L 150.001,-37.416 L 151.806,-36.144 L 153.548,-34.785 L 155.220,-33.343 L 156.820,-31.820 L 158.343,-30.220 L 159.785,-28.548 L 161.144,-26.806 L 162.416,-25.001 L 163.598,-23.135 L 164.686,-21.213 L 165.680,-19.240 L 166.575,-17.221 L 167.369,-15.160 L 168.062,-13.063 L 168.651,-10.934 L 169.135,-8.779 L 169.513,-6.603 L 169.783,-4.411 L 169.946,-2.208 L 170.000,0.000 L 170.000,345.000 L 275.280,345.000 L 277.488,345.054 L 279.691,345.217 L 281.883,345.487 L 284.059,345.865 L 286.214,346.349 L 288.343,346.938 L 290.440,347.631 L 292.501,348.425 L 294.520,349.320 L 296.493,350.314 L 298.415,351.402 L 300.281,352.584 L 302.086,353.856 L 303.828,355.215 L 305.500,356.657 L 307.100,358.180 L 308.623,359.780 L 310.065,361.452 L 311.424,363.194 L 312.696,364.999 L 313.878,366.865 L 314.966,368.787 L 315.960,370.760 L 316.855,372.779 L 317.649,374.840 L 318.342,376.937 L 318.931,379.066 L 319.415,381.221 L 319.793,383.397 L 320.063,385.589 L 320.226,387.792 L 320.280,390.000 L 320.226,392.208 L 320.063,394.411 L 319.793,396.603 L 319.415,398.779 L 318.931,400.934 L 318.342,403.063 L 317.649,405.160 L 316.855,407.221 L 315.960,409.240 L 314.966,411.213 L 313.878,413.135 L 312.696,415.001 L 311.424,416.806 L 310.065,418.548 L 308.623,420.220 L 307.100,421.820 L 305.500,423.343 L 303.828,424.785 L 302.086,426.144 L 300.281,427.416 L 298.415,428.598 L 296.493,429.686 L 294.520,430.680 L 292.501,431.575 L 290.440,432.369 L 288.343,433.062 L 286.214,433.651 L 284.059,434.135 L 281.883,434.513 L 279.691,434.783 L 277.488,434.946 L 275.280,435.000 L 170.000,435.000 L 170.000,553.000 L 222.240,553.000 L 224.448,553.054 Z" fill="black" fill-rule="evenodd"/>
</svg>
