<svg xmlns="http://www.w3.org/2000/svg" viewBox="0 0 600.000 1000">
  <path d="M 499.986 358.896 L 499.946 357.792 L 499.878 356.690 L 499.783 355.589 L 499.662 354.492 L 499.513 353.397 L 499.337 352.307 L 499.135 351.221 L 498.907 350.140 L 498.651 349.066 L 498.370 347.998 L 498.062 346.937 L 497.729 345.884 L 497.369 344.840 L 496.985 343.805 L 496.575 342.779 L 496.139 341.764 L 495.680 340.760 L 495.195 339.767 L 494.686 338.787 L 494.154 337.820 L 493.598 336.865 L 493.018 335.925 L 492.416 334.999 L 491.791 334.089 L 491.144 333.194 L 490.476 332.315 L 489.785 331.452 L 489.074 330.607 L 488.343 329.780 L 487.591 328.971 L 486.820 328.180 L 486.029 327.409 L 485.220 326.657 L 484.393 325.926 L 483.548 325.215 L 482.685 324.524 L 481.806 323.856 L 480.911 323.209 L 480.001 322.584 L 479.075 321.982 L 478.135 321.402 L 477.180 320.846 L 476.213 320.314 L 475.233 319.805 L 474.240 319.320 L 473.236 318.861 L 472.221 318.425 L 471.195 318.015 L 470.160 317.631 L 469.638 317.451 L 469.116 317.271 L 468.063 316.938 L 467.002 316.630 L 465.934 316.349 L 464.860 316.093 L 463.779 315.865 L 462.693 315.663 L 461.603 315.487 L 460.508 315.338 L 459.411 315.217 L 458.310 315.122 L 457.208 315.054 L 456.104 315.014 L 455.000 315.000 L 145.000 315.000 L 143.896 315.014 L 142.792 315.054 L 141.690 315.122 L 140.589 315.217 L 139.492 315.338 L 138.397 315.487 L 137.307 315.663 L 136.221 315.865 L 135.255 316.069 L 135.140 316.093 L 134.066 316.349 L 132.998 316.630 L 131.937 316.938 L 130.884 317.271 L 129.840 317.631 L 128.805 318.015 L 127.779 318.425 L 126.764 318.861 L 125.760 319.320 L 124.905 319.738 L 124.767 319.805 L 123.787 320.314 L 122.820 320.846 L 121.865 321.402 L 120.925 321.982 L 119.999 322.584 L 119.089 323.209 L 118.194 323.856 L 117.315 324.524 L 116.740 324.984 L 116.452 325.215 L 115.607 325.926 L 114.780 326.657 L 113.971 327.409 L 113.816 327.560 L 113.180 328.180 L 112.566 328.809 L 112.409 328.971 L 111.657 329.780 L 111.291 330.194 L 110.926 330.607 L 110.215 331.452 L 109.524 332.315 L 108.856 333.194 L 108.209 334.089 L 107.584 334.999 L 106.982 335.925 L 106.402 336.865 L 105.846 337.820 L 105.314 338.787 L 104.805 339.767 L 104.320 340.760 L 103.861 341.764 L 103.425 342.779 L 103.015 343.805 L 102.757 344.501 L 102.631 344.840 L 102.271 345.884 L 102.085 346.473 L 101.938 346.937 L 101.630 347.998 L 101.349 349.066 L 101.093 350.140 L 100.865 351.221 L 100.663 352.307 L 100.487 353.397 L 100.338 354.492 L 100.217 355.589 L 100.122 356.690 L 100.054 357.792 L 100.014 358.896 L 100.000 360.000 L 100.000 780.000 L 100.014 781.104 L 100.054 782.208 L 100.122 783.310 L 100.217 784.411 L 100.338 785.508 L 100.487 786.603 L 100.663 787.693 L 100.865 788.779 L 101.093 789.860 L 101.349 790.934 L 101.630 792.002 L 101.938 793.063 L 102.271 794.116 L 102.631 795.160 L 103.015 796.195 L 103.425 797.221 L 103.861 798.236 L 104.320 799.240 L 104.805 800.233 L 105.314 801.213 L 105.846 802.180 L 106.402 803.135 L 106.982 804.075 L 107.584 805.001 L 108.209 805.911 L 108.856 806.806 L 109.524 807.685 L 110.215 808.548 L 110.926 809.393 L 111.657 810.220 L 112.409 811.029 L 113.180 811.820 L 113.971 812.591 L 114.780 813.343 L 115.607 814.074 L 116.452 814.785 L 117.315 815.476 L 118.194 816.144 L 119.089 816.791 L 119.999 817.416 L 120.925 818.018 L 121.865 818.598 L 122.820 819.154 L 123.787 819.686 L 124.767 820.195 L 125.760 820.680 L 126.764 821.139 L 127.779 821.575 L 128.805 821.985 L 129.840 822.369 L 130.884 822.729 L 131.937 823.062 L 132.998 823.370 L 134.066 823.651 L 135.140 823.907 L 136.221 824.135 L 137.307 824.337 L 138.397 824.513 L 139.492 824.662 L 140.589 824.783 L 141.690 824.878 L 142.792 824.946 L 143.896 824.986 L 145.000 825.000 L 146.104 824.986 L 147.208 824.946 L 148.310 824.878 L 149.411 824.783 L 150.508 824.662 L 151.603 824.513 L 152.693 824.337 L 153.779 824.135 L 154.860 823.907 L 155.934 823.651 L 157.002 823.370 L 158.063 823.062 L 159.116 822.729 L 160.160 822.369 L 161.195 821.985 L 162.221 821.575 L 163.236 821.139 L 164.240 820.680 L 165.233 820.195 L 166.213 819.686 L 167.180 819.154 L 168.135 818.598 L 169.075 818.018 L 170.001 817.416 L 170.911 816.791 L 171.806 816.144 L 172.685 815.476 L 173.548 814.785 L 174.393 814.074 L 175.220 813.343 L 176.029 812.591 L 176.820 811.820 L 177.591 811.029 L 178.343 810.220 L 179.074 809.393 L 179.785 808.548 L 180.476 807.685 L 181.144 806.806 L 181.791 805.911 L 182.416 805.001 L 183.018 804.075 L 183.598 803.135 L 184.154 802.180 L 184.686 801.213 L 185.195 800.233 L 185.680 799.240 L 186.139 798.236 L 186.575 797.221 L 186.985 796.195 L 187.369 795.160 L 187.729 794.116 L 188.062 793.063 L 188.370 792.002 L 188.651 790.934 L 188.907 789.860 L 189.135 788.779 L 189.337 787.693 L 189.513 786.603 L 189.662 785.508 L 189.783 784.411 L 189.878 783.310 L 189.946 782.208 L 189.986 781.104 L 190.000 780.000 L 190.000 405.000 L 410.000 405.000 L 410.000 780.000 L 410.014 781.104 L 410.054 782.208 L 410.122 783.310 L 410.217 784.411 L 410.338 785.508 L 410.487 786.603 L 410.663 787.693 L 410.865 788.779 L 411.093 789.860 L 411.349 790.934 L 411.630 792.002 L 411.938 793.063 L 412.271 794.116 L 412.631 795.160 L 413.015 796.195 L 413.425 797.221 L 413.861 798.236 L 414.320 799.240 L 414.805 800.233 L 415.314 801.213 L 415.846 802.180 L 416.402 803.135 L 416.982 804.075 L 417.584 805.001 L 418.209 805.911 L 418.856 806.806 L 419.524 807.685 L 420.215 808.548 L 420.926 809.393 L 421.657 810.220 L 422.409 811.029 L 423.180 811.820 L 423.971 812.591 L 424.780 813.343 L 425.607 814.074 L 426.452 814.785 L 427.315 815.476 L 428.194 816.144 L 429.089 816.791 L 429.999 817.416 L 430.925 818.018 L 431.865 818.598 L 432.820 819.154 L 433.787 819.686 L 434.767 820.195 L 435.760 820.680 L 436.764 821.139 L 437.779 821.575 L 438.805 821.985 L 439.840 822.369 L 440.884 822.729 L 441.937 823.062 L 442.998 823.370 L 444.066 823.651 L 445.140 823.907 L 446.221 824.135 L 447.307 824.337 L 448.397 824.513 L 449.492 824.662 L 450.589 824.783 L 451.690 824.878 L 452.792 824.946 L 453.896 824.986 L 455.000 825.000 L 456.104 824.986 L 457.208 824.946 L 458.310 824.878 L 459.411 824.783 L 460.508 824.662 L 461.603 824.513 L 462.693 824.337 L 463.779 824.135 L 464.860 823.907 L 465.934 823.651 L 467.002 823.370 L 468.063 823.062 L 469.116 822.729 L 470.160 822.369 L 471.195 821.985 L 472.221 821.575 L 473.236 821.139 L 474.240 820.680 L 475.233 820.195 L 476.213 819.686 L 477.180 819.154 L 478.135 818.598 L 479.075 818.018 L 480.001 817.416 L 480.911 816.791 L 481.806 816.144 L 482.685 815.476 L 483.548 814.785 L 484.393 814.074 L 485.220 813.343 L 486.029 812.591 L 486.820 811.820 L 487.591 811.029 L 488.343 810.220 L 489.074 809.393 L 489.785 808.548 L 490.476 807.685 L 491.144 806.806 L 491.791 805.911 L 492.416 805.001 L 493.018 804.075 L 493.598 803.135 L 494.154 802.180 L 494.686 801.213 L 495.195 800.233 L 495.680 799.240 L 496.139 798.236 L 496.575 797.221 L 496.985 796.195 L 497.369 795.160 L 497.729 794.116 L 498.062 793.063 L 498.370 792.002 L 498.651 790.934 L 498.907 789.860 L 499.135 788.779 L 499.337 787.693 L 499.513 786.603 L 499.662 785.508 L 499.783 784.411 L 499.878 783.310 L 499.946 782.208 L 499.986 781.104 L 500.000 780.000 L 500.000 360.000 L 499.986 358.896 Z" fill="black" fill-rule="evenodd"/>
</svg>
