<svg xmlns="http://www.w3.org/2000/svg" viewBox="0 0 600.000 1000">
  <path d="M 329.234 189.043 L 329.187 188.087 L 329.109 187.133 L 329.000 186.182 L 328.859 185.235 L 328.688 184.294 L 328.486 183.358 L 328.253 182.430 L 327.991 181.509 L 327.698 180.598 L 327.375 179.697 L 327.023 178.807 L 326.643 177.928 L 326.234 177.063 L 325.796 176.212 L 325.331 175.375 L 324.839 174.554 L 324.320 173.750 L 323.776 172.963 L 323.206 172.194 L 322.611 171.444 L 321.991 170.714 L 321.349 170.005 L 320.683 169.317 L 319.995 168.651 L 319.286 168.009 L 318.556 167.389 L 317.806 166.794 L 317.037 166.224 L 316.250 165.680 L 315.446 165.161 L 314.625 164.669 L 313.788 164.204 L 312.937 163.766 L 312.072 163.357 L 311.193 162.977 L 310.303 162.625 L 309.402 162.302 L 308.491 162.009 L 307.570 161.747 L 306.642 161.514 L 305.706 161.312 L 304.765 161.141 L 303.818 161.000 L 302.867 160.891 L 301.913 160.813 L 300.957 160.766 L 300.000 160.750 L 299.043 160.766 L 298.087 160.813 L 297.133 160.891 L 296.182 161.000 L 295.235 161.141 L 294.294 161.312 L 293.358 161.514 L 292.430 161.747 L 291.509 162.009 L 290.598 162.302 L 289.697 162.625 L 288.807 162.977 L 287.928 163.357 L 287.063 163.766 L 286.212 164.204 L 285.375 164.669 L 284.554 165.161 L 283.750 165.680 L 282.963 166.224 L 282.194 166.794 L 281.444 167.389 L 280.714 168.009 L 280.005 168.651 L 279.317 169.317 L 278.651 170.005 L 278.009 170.714 L 277.389 171.444 L 276.794 172.194 L 276.224 172.963 L 275.680 173.750 L 275.161 174.554 L 274.669 175.375 L 274.204 176.212 L 273.766 177.063 L 273.357 177.928 L 272.977 178.807 L 272.625 179.697 L 272.302 180.598 L 272.009 181.509 L 271.747 182.430 L 271.514 183.358 L 271.312 184.294 L 271.141 185.235 L 271.000 186.182 L 270.891 187.133 L 270.813 188.087 L 270.766 189.043 L 270.750 190.000 L 270.766 190.957 L 270.813 191.913 L 270.891 192.867 L 271.000 193.818 L 271.141 194.765 L 271.312 195.706 L 271.514 196.642 L 271.747 197.570 L 272.009 198.491 L 272.302 199.402 L 272.625 200.303 L 272.977 201.193 L 273.357 202.072 L 273.766 202.937 L 274.204 203.788 L 274.669 204.625 L 275.161 205.446 L 275.680 206.250 L 276.224 207.037 L 276.794 207.806 L 277.389 208.556 L 278.009 209.286 L 278.651 209.995 L 279.317 210.683 L 280.005 211.349 L 280.714 211.991 L 281.444 212.611 L 282.194 213.206 L 282.963 213.776 L 283.750 214.320 L 284.554 214.839 L 285.375 215.331 L 286.212 215.796 L 287.063 216.234 L 287.928 216.643 L 287.945 216.650 L 286.937 216.938 L 285.535 217.388 L 284.149 217.884 L 282.779 218.425 L 281.428 219.011 L 280.097 219.641 L 278.787 220.314 L 277.500 221.029 L 276.237 221.786 L 274.999 222.584 L 273.789 223.422 L 272.606 224.299 L 271.452 225.215 L 270.329 226.167 L 269.238 227.156 L 268.180 228.180 L 267.156 229.238 L 266.167 230.329 L 265.215 231.452 L 264.299 232.606 L 263.422 233.789 L 262.584 234.999 L 261.786 236.237 L 261.029 237.500 L 260.314 238.787 L 259.641 240.097 L 259.011 241.428 L 258.425 242.779 L 257.884 244.149 L 257.388 245.535 L 256.938 246.937 L 256.533 248.353 L 256.176 249.782 L 255.865 251.221 L 255.601 252.670 L 255.385 254.126 L 255.217 255.589 L 255.096 257.057 L 255.024 258.528 L 255.000 260.000 L 255.000 780.000 L 255.024 781.472 L 255.096 782.943 L 255.217 784.411 L 255.385 785.874 L 255.601 787.330 L 255.865 788.779 L 256.176 790.218 L 256.533 791.647 L 256.938 793.063 L 257.388 794.465 L 257.884 795.851 L 258.425 797.221 L 259.011 798.572 L 259.641 799.903 L 260.314 801.213 L 261.029 802.500 L 261.786 803.763 L 262.584 805.001 L 263.422 806.211 L 264.299 807.394 L 265.215 808.548 L 266.167 809.671 L 267.156 810.762 L 268.180 811.820 L 269.238 812.844 L 270.329 813.833 L 271.452 814.785 L 272.606 815.701 L 273.789 816.578 L 274.999 817.416 L 276.237 818.214 L 277.500 818.971 L 278.787 819.686 L 280.097 820.359 L 281.428 820.989 L 282.779 821.575 L 284.149 822.116 L 285.535 822.612 L 286.937 823.062 L 288.353 823.467 L 289.782 823.824 L 291.221 824.135 L 292.670 824.399 L 294.126 824.615 L 295.589 824.783 L 297.057 824.904 L 298.528 824.976 L 300.000 825.000 L 301.472 824.976 L 302.943 824.904 L 304.411 824.783 L 305.874 824.615 L 307.330 824.399 L 308.779 824.135 L 310.218 823.824 L 311.647 823.467 L 313.063 823.062 L 314.465 822.612 L 315.851 822.116 L 317.221 821.575 L 318.572 820.989 L 319.903 820.359 L 321.213 819.686 L 322.500 818.971 L 323.763 818.214 L 325.001 817.416 L 326.211 816.578 L 327.394 815.701 L 328.548 814.785 L 329.671 813.833 L 330.762 812.844 L 331.820 811.820 L 332.844 810.762 L 333.833 809.671 L 334.785 808.548 L 335.701 807.394 L 336.578 806.211 L 337.416 805.001 L 338.214 803.763 L 338.971 802.500 L 339.686 801.213 L 340.359 799.903 L 340.989 798.572 L 341.575 797.221 L 342.116 795.851 L 342.612 794.465 L 343.062 793.063 L 343.467 791.647 L 343.824 790.218 L 344.135 788.779 L 344.399 787.330 L 344.615 785.874 L 344.783 784.411 L 344.904 782.943 L 344.976 781.472 L 345.000 780.000 L 345.000 260.000 L 344.976 258.528 L 344.904 257.057 L 344.783 255.589 L 344.615 254.126 L 344.399 252.670 L 344.135 251.221 L 343.824 249.782 L 343.467 248.353 L 343.062 246.937 L 342.612 245.535 L 342.116 244.149 L 341.575 242.779 L 340.989 241.428 L 340.359 240.097 L 339.686 238.787 L 338.971 237.500 L 338.214 236.237 L 337.416 234.999 L 336.578 233.789 L 335.701 232.606 L 334.785 231.452 L 333.833 230.329 L 332.844 229.238 L 331.820 228.180 L 330.762 227.156 L 329.671 226.167 L 328.548 225.215 L 327.394 224.299 L 326.211 223.422 L 325.001 222.584 L 323.763 221.786 L 322.500 221.029 L 321.213 220.314 L 319.903 219.641 L 318.572 219.011 L 317.221 218.425 L 315.851 217.884 L 314.465 217.388 L 313.063 216.938 L 312.055 216.650 L 312.072 216.643 L 312.937 216.234 L 313.788 215.796 L 314.625 215.331 L 315.446 214.839 L 316.250 214.320 L 317.037 213.776 L 317.806 213.206 L 318.556 212.611 L 319.286 211.991 L 319.995 211.349 L 320.683 210.683 L 321.349 209.995 L 321.991 209.286 L 322.611 208.556 L 323.206 207.806 L 323.776 207.037 L 324.320 206.250 L 324.839 205.446 L 325.331 204.625 L 325.796 203.788 L 326.234 202.937 L 326.643 202.072 L 327.023 201.193 L 327.375 200.303 L 327.698 199.402 L 327.991 198.491 L 328.253 197.570 L 328.486 196.642 L 328.688 195.706 L 328.859 194.765 L 329.000 193.818 L 329.109 192.867 L 329.187 191.913 L 329.234 190.957 L 329.250 190.000 L 329.234 189.043 Z" fill="black" fill-rule="evenodd"/>
</svg>
