<svg xmlns="http://www.w3.org/2000/svg" viewBox="0 0 600.000 1000">
  <path d="M 305.513 113.075 L 306.316 112.316 L 307.099 111.538 L 307.864 110.741 L 308.608 109.925 L 309.332 109.091 L 310.036 108.240 L 310.719 107.371 L 311.379 106.486 L 312.019 105.586 L 312.635 104.670 L 313.229 103.738 L 313.800 102.793 L 314.348 101.834 L 314.872 100.862 L 315.372 99.877 L 315.848 98.880 L 316.299 97.872 L 316.725 96.853 L 317.126 95.824 L 317.502 94.786 L 317.852 93.738 L 318.176 92.682 L 318.474 91.619 L 318.746 90.548 L 318.992 89.472 L 319.211 88.389 L 319.404 87.302 L 319.569 86.210 L 319.708 85.114 L 319.820 84.015 L 319.906 82.914 L 319.964 81.811 L 319.994 80.707 L 319.998 79.603 L 319.975 78.499 L 319.925 77.395 L 319.847 76.294 L 319.743 75.194 L 319.611 74.098 L 319.453 73.005 L 319.268 71.916 L 319.056 70.832 L 318.818 69.753 L 318.553 68.681 L 318.262 67.616 L 317.945 66.558 L 317.603 65.508 L 317.234 64.467 L 316.840 63.435 L 316.421 62.413 L 315.977 61.402 L 315.508 60.402 L 315.015 59.414 L 314.498 58.438 L 313.957 57.475 L 313.392 56.526 L 312.804 55.591 L 312.194 54.670 L 311.561 53.765 L 310.906 52.876 L 310.230 52.003 L 309.532 51.146 L 308.814 50.308 L 308.075 49.487 L 307.316 48.684 L 306.538 47.901 L 305.741 47.136 L 304.925 46.392 L 304.847 46.324 L 304.783 45.589 L 304.662 44.492 L 304.513 43.397 L 304.337 42.307 L 304.135 41.221 L 303.907 40.140 L 303.651 39.066 L 303.370 37.998 L 303.062 36.937 L 302.729 35.884 L 302.369 34.840 L 301.985 33.805 L 301.575 32.779 L 301.139 31.764 L 300.680 30.760 L 300.195 29.767 L 299.686 28.787 L 299.154 27.820 L 298.598 26.865 L 298.018 25.925 L 297.416 24.999 L 296.791 24.089 L 296.144 23.194 L 295.476 22.315 L 294.785 21.452 L 294.074 20.607 L 293.343 19.780 L 292.591 18.971 L 291.820 18.180 L 291.029 17.409 L 290.220 16.657 L 289.393 15.926 L 288.548 15.215 L 287.685 14.524 L 286.806 13.856 L 285.911 13.209 L 285.001 12.584 L 284.075 11.982 L 283.135 11.402 L 282.180 10.846 L 281.213 10.314 L 280.233 9.805 L 279.240 9.320 L 278.236 8.861 L 277.221 8.425 L 276.195 8.015 L 275.160 7.631 L 274.116 7.271 L 273.063 6.938 L 272.002 6.630 L 270.934 6.349 L 269.860 6.093 L 268.779 5.865 L 267.693 5.663 L 266.603 5.487 L 265.508 5.338 L 264.411 5.217 L 263.310 5.122 L 262.208 5.054 L 261.104 5.014 L 260.000 5.000 L 258.896 5.014 L 257.792 5.054 L 256.690 5.122 L 255.589 5.217 L 254.492 5.338 L 253.397 5.487 L 252.307 5.663 L 251.221 5.865 L 250.140 6.093 L 249.066 6.349 L 247.998 6.630 L 246.937 6.938 L 245.884 7.271 L 244.840 7.631 L 243.805 8.015 L 242.779 8.425 L 241.764 8.861 L 240.760 9.320 L 239.767 9.805 L 238.787 10.314 L 237.820 10.846 L 236.865 11.402 L 235.925 11.982 L 234.999 12.584 L 234.089 13.209 L 233.194 13.856 L 232.315 14.524 L 231.452 15.215 L 230.607 15.926 L 229.780 16.657 L 228.971 17.409 L 228.180 18.180 L 227.409 18.971 L 226.657 19.780 L 225.926 20.607 L 225.215 21.452 L 224.524 22.315 L 223.856 23.194 L 223.209 24.089 L 222.584 24.999 L 221.982 25.925 L 221.402 26.865 L 220.846 27.820 L 220.314 28.787 L 219.805 29.767 L 219.320 30.760 L 218.861 31.764 L 218.425 32.779 L 218.015 33.805 L 217.631 34.840 L 217.271 35.884 L 216.938 36.937 L 216.630 37.998 L 216.349 39.066 L 216.093 40.140 L 215.865 41.221 L 215.663 42.307 L 215.487 43.397 L 215.338 44.492 L 215.217 45.589 L 215.122 46.690 L 215.054 47.792 L 215.014 48.896 L 215.000 50.000 L 215.000 51.895 L 214.834 51.996 L 213.785 52.648 L 213.114 53.073 L 212.076 53.743 L 211.413 54.180 L 210.387 54.869 L 209.732 55.317 L 208.718 56.024 L 208.071 56.484 L 207.070 57.208 L 206.431 57.680 L 205.443 58.422 L 204.812 58.904 L 203.838 59.663 L 203.216 60.157 L 202.255 60.933 L 201.641 61.438 L 200.694 62.231 L 200.090 62.746 L 199.157 63.556 L 198.561 64.082 L 197.643 64.908 L 197.057 65.444 L 196.153 66.287 L 195.577 66.833 L 194.688 67.691 L 194.121 68.248 L 193.248 69.121 L 192.691 69.688 L 191.833 70.577 L 191.287 71.153 L 190.444 72.057 L 189.908 72.643 L 189.082 73.561 L 188.556 74.157 L 187.746 75.090 L 187.231 75.694 L 186.438 76.641 L 185.933 77.255 L 185.157 78.216 L 184.663 78.838 L 183.904 79.812 L 183.422 80.443 L 182.680 81.431 L 182.208 82.070 L 181.484 83.071 L 181.024 83.718 L 180.317 84.732 L 179.869 85.387 L 179.180 86.413 L 178.743 87.076 L 178.073 88.114 L 177.648 88.785 L 176.996 89.834 L 176.583 90.513 L 175.949 91.573 L 175.548 92.259 L 174.933 93.330 L 174.544 94.023 L 173.949 95.105 L 173.572 95.804 L 172.996 96.897 L 172.632 97.603 L 172.075 98.706 L 171.723 99.418 L 171.185 100.530 L 170.846 101.248 L 170.328 102.370 L 170.002 103.094 L 169.504 104.225 L 169.190 104.954 L 168.713 106.094 L 168.412 106.829 L 167.954 107.976 L 167.667 108.717 L 167.229 109.872 L 166.955 110.617 L 166.538 111.780 L 166.277 112.530 L 165.880 113.701 L 165.632 114.455 L 165.257 115.632 L 165.022 116.391 L 164.667 117.574 L 164.446 118.337 L 164.112 119.526 L 163.904 120.293 L 163.592 121.488 L 163.397 122.258 L 163.106 123.459 L 162.925 124.232 L 162.655 125.438 L 162.488 126.214 L 162.239 127.424 L 162.086 128.203 L 161.858 129.418 L 161.718 130.200 L 161.512 131.418 L 161.387 132.202 L 161.202 133.424 L 161.090 134.210 L 160.927 135.434 L 160.829 136.223 L 160.688 137.450 L 160.604 138.240 L 160.484 139.469 L 160.414 140.260 L 160.316 141.492 L 160.260 142.284 L 160.184 143.517 L 160.142 144.310 L 160.087 145.545 L 160.059 146.338 L 160.027 147.573 L 160.013 148.368 L 160.002 149.603 L 160.006 150.707 L 160.036 151.811 L 160.094 152.914 L 160.180 154.015 L 160.292 155.114 L 160.431 156.210 L 160.596 157.302 L 160.789 158.389 L 161.008 159.472 L 161.254 160.548 L 161.526 161.619 L 161.824 162.682 L 162.148 163.738 L 162.498 164.786 L 162.874 165.824 L 163.275 166.853 L 163.701 167.872 L 164.152 168.880 L 164.628 169.877 L 165.128 170.862 L 165.652 171.834 L 166.200 172.793 L 166.771 173.738 L 167.365 174.670 L 167.981 175.586 L 168.621 176.486 L 169.281 177.371 L 169.964 178.240 L 170.668 179.091 L 171.392 179.925 L 172.136 180.741 L 172.901 181.538 L 173.684 182.316 L 174.487 183.075 L 175.308 183.814 L 176.146 184.532 L 177.003 185.230 L 177.876 185.906 L 178.765 186.561 L 179.670 187.194 L 180.591 187.804 L 181.526 188.392 L 182.475 188.957 L 183.438 189.498 L 184.414 190.015 L 185.402 190.508 L 186.402 190.977 L 187.413 191.421 L 188.435 191.840 L 189.467 192.234 L 190.508 192.603 L 191.558 192.945 L 192.616 193.262 L 193.681 193.553 L 194.753 193.818 L 195.832 194.056 L 196.916 194.268 L 198.005 194.453 L 199.098 194.611 L 200.194 194.743 L 201.294 194.847 L 202.395 194.925 L 203.499 194.975 L 204.603 194.998 L 205.707 194.994 L 206.811 194.964 L 207.914 194.906 L 209.015 194.820 L 210.114 194.708 L 211.210 194.569 L 212.302 194.404 L 213.389 194.211 L 214.472 193.992 L 215.000 193.871 L 215.000 390.282 L 214.492 390.338 L 213.397 390.487 L 212.307 390.663 L 211.221 390.865 L 210.140 391.093 L 209.066 391.349 L 207.998 391.630 L 206.937 391.938 L 205.884 392.271 L 204.840 392.631 L 203.805 393.015 L 202.779 393.425 L 201.764 393.861 L 200.760 394.320 L 199.767 394.805 L 198.787 395.314 L 197.820 395.846 L 196.865 396.402 L 195.925 396.982 L 194.999 397.584 L 194.089 398.209 L 193.194 398.856 L 192.315 399.524 L 191.452 400.215 L 190.607 400.926 L 189.780 401.657 L 188.971 402.409 L 188.180 403.180 L 187.409 403.971 L 186.657 404.780 L 185.926 405.607 L 185.215 406.452 L 184.524 407.315 L 183.856 408.194 L 183.209 409.089 L 182.584 409.999 L 181.982 410.925 L 181.402 411.865 L 180.846 412.820 L 180.314 413.787 L 179.805 414.767 L 179.320 415.760 L 178.861 416.764 L 178.425 417.779 L 178.015 418.805 L 177.631 419.840 L 177.271 420.884 L 176.938 421.937 L 176.630 422.998 L 176.349 424.066 L 176.093 425.140 L 175.865 426.221 L 175.663 427.307 L 175.487 428.397 L 175.338 429.492 L 175.217 430.589 L 175.122 431.690 L 175.054 432.792 L 175.014 433.896 L 175.000 435.000 L 175.014 436.104 L 175.054 437.208 L 175.122 438.310 L 175.217 439.411 L 175.338 440.508 L 175.487 441.603 L 175.663 442.693 L 175.865 443.779 L 176.093 444.860 L 176.349 445.934 L 176.630 447.002 L 176.938 448.063 L 177.271 449.116 L 177.631 450.160 L 178.015 451.195 L 178.425 452.221 L 178.861 453.236 L 179.320 454.240 L 179.805 455.233 L 180.314 456.213 L 180.846 457.180 L 181.402 458.135 L 181.982 459.075 L 182.584 460.001 L 183.209 460.911 L 183.856 461.806 L 184.524 462.685 L 185.215 463.548 L 185.926 464.393 L 186.657 465.220 L 187.409 466.029 L 188.180 466.820 L 188.971 467.591 L 189.780 468.343 L 190.607 469.074 L 191.452 469.785 L 192.315 470.476 L 193.194 471.144 L 194.089 471.791 L 194.999 472.416 L 195.925 473.018 L 196.865 473.598 L 197.820 474.154 L 198.787 474.686 L 199.767 475.195 L 200.760 475.680 L 201.764 476.139 L 202.779 476.575 L 203.805 476.985 L 204.840 477.369 L 205.884 477.729 L 206.937 478.062 L 207.998 478.370 L 209.066 478.651 L 210.140 478.907 L 211.221 479.135 L 212.307 479.337 L 213.397 479.513 L 214.492 479.662 L 215.000 479.718 L 215.000 780.000 L 215.014 781.104 L 215.054 782.208 L 215.122 783.310 L 215.217 784.411 L 215.338 785.508 L 215.487 786.603 L 215.663 787.693 L 215.865 788.779 L 216.093 789.860 L 216.349 790.934 L 216.630 792.002 L 216.938 793.063 L 217.271 794.116 L 217.631 795.160 L 218.015 796.195 L 218.425 797.221 L 218.861 798.236 L 219.320 799.240 L 219.805 800.233 L 220.314 801.213 L 220.846 802.180 L 221.402 803.135 L 221.982 804.075 L 222.584 805.001 L 223.209 805.911 L 223.856 806.806 L 224.524 807.685 L 225.215 808.548 L 225.926 809.393 L 226.657 810.220 L 227.409 811.029 L 228.180 811.820 L 228.971 812.591 L 229.780 813.343 L 230.607 814.074 L 231.452 814.785 L 232.315 815.476 L 233.194 816.144 L 234.089 816.791 L 234.999 817.416 L 235.925 818.018 L 236.865 818.598 L 237.820 819.154 L 238.787 819.686 L 239.767 820.195 L 240.760 820.680 L 241.764 821.139 L 242.779 821.575 L 243.805 821.985 L 244.840 822.369 L 245.884 822.729 L 246.937 823.062 L 247.998 823.370 L 249.066 823.651 L 250.140 823.907 L 251.221 824.135 L 252.307 824.337 L 253.397 824.513 L 254.492 824.662 L 255.589 824.783 L 256.690 824.878 L 257.792 824.946 L 258.896 824.986 L 260.000 825.000 L 261.104 824.986 L 262.208 824.946 L 263.310 824.878 L 264.411 824.783 L 265.508 824.662 L 266.603 824.513 L 267.693 824.337 L 268.779 824.135 L 269.860 823.907 L 270.934 823.651 L 272.002 823.370 L 273.063 823.062 L 274.116 822.729 L 275.160 822.369 L 276.195 821.985 L 277.221 821.575 L 278.236 821.139 L 279.240 820.680 L 280.233 820.195 L 281.213 819.686 L 282.180 819.154 L 283.135 818.598 L 284.075 818.018 L 285.001 817.416 L 285.911 816.791 L 286.806 816.144 L 287.685 815.476 L 288.548 814.785 L 289.393 814.074 L 290.220 813.343 L 291.029 812.591 L 291.820 811.820 L 292.591 811.029 L 293.343 810.220 L 294.074 809.393 L 294.785 808.548 L 295.476 807.685 L 296.144 806.806 L 296.791 805.911 L 297.416 805.001 L 298.018 804.075 L 298.598 803.135 L 299.154 802.180 L 299.686 801.213 L 300.195 800.233 L 300.680 799.240 L 301.139 798.236 L 301.575 797.221 L 301.985 796.195 L 302.369 795.160 L 302.729 794.116 L 303.062 793.063 L 303.370 792.002 L 303.651 790.934 L 303.907 789.860 L 304.135 788.779 L 304.337 787.693 L 304.513 786.603 L 304.662 785.508 L 304.783 784.411 L 304.878 783.310 L 304.946 782.208 L 304.986 781.104 L 305.000 780.000 L 305.000 480.000 L 500.000 480.000 L 501.104 479.986 L 502.208 479.946 L 503.310 479.878 L 504.411 479.783 L 505.508 479.662 L 506.603 479.513 L 507.693 479.337 L 508.779 479.135 L 509.860 478.907 L 510.934 478.651 L 512.002 478.370 L 513.063 478.062 L 514.116 477.729 L 515.160 477.369 L 516.195 476.985 L 517.221 476.575 L 518.236 476.139 L 519.240 475.680 L 520.233 475.195 L 521.213 474.686 L 522.180 474.154 L 523.135 473.598 L 524.075 473.018 L 525.001 472.416 L 525.911 471.791 L 526.806 471.144 L 527.685 470.476 L 528.548 469.785 L 529.393 469.074 L 530.220 468.343 L 531.029 467.591 L 531.820 466.820 L 532.591 466.029 L 533.343 465.220 L 534.074 464.393 L 534.785 463.548 L 535.476 462.685 L 536.144 461.806 L 536.791 460.911 L 537.416 460.001 L 538.018 459.075 L 538.598 458.135 L 539.154 457.180 L 539.686 456.213 L 540.195 455.233 L 540.680 454.240 L 541.139 453.236 L 541.575 452.221 L 541.985 451.195 L 542.369 450.160 L 542.729 449.116 L 543.062 448.063 L 543.370 447.002 L 543.651 445.934 L 543.907 444.860 L 544.135 443.779 L 544.337 442.693 L 544.513 441.603 L 544.662 440.508 L 544.783 439.411 L 544.878 438.310 L 544.946 437.208 L 544.986 436.104 L 545.000 435.000 L 544.986 433.896 L 544.946 432.792 L 544.878 431.690 L 544.783 430.589 L 544.662 429.492 L 544.513 428.397 L 544.337 427.307 L 544.135 426.221 L 543.907 425.140 L 543.651 424.066 L 543.370 422.998 L 543.062 421.937 L 542.729 420.884 L 542.369 419.840 L 541.985 418.805 L 541.575 417.779 L 541.139 416.764 L 540.680 415.760 L 540.195 414.767 L 539.686 413.787 L 539.154 412.820 L 538.598 411.865 L 538.018 410.925 L 537.416 409.999 L 536.791 409.089 L 536.144 408.194 L 535.476 407.315 L 534.785 406.452 L 534.074 405.607 L 533.343 404.780 L 532.591 403.971 L 531.820 403.180 L 531.029 402.409 L 530.220 401.657 L 529.393 400.926 L 528.548 400.215 L 527.685 399.524 L 526.806 398.856 L 525.911 398.209 L 525.001 397.584 L 524.075 396.982 L 523.135 396.402 L 522.180 395.846 L 521.213 395.314 L 520.233 394.805 L 519.240 394.320 L 518.236 393.861 L 517.221 393.425 L 516.195 393.015 L 515.160 392.631 L 514.116 392.271 L 513.063 391.938 L 512.002 391.630 L 510.934 391.349 L 509.860 391.093 L 508.779 390.865 L 507.693 390.663 L 506.603 390.487 L 505.508 390.338 L 504.411 390.217 L 503.310 390.122 L 502.208 390.054 L 501.104 390.014 L 500.000 390.000 L 305.000 390.000 L 305.000 113.537 L 305.513 113.075 Z" fill="black" fill-rule="evenodd"/>
</svg>
