<svg xmlns="http://www.w3.org/2000/svg" viewBox="0 0 600.000 1000">
  <path d="M 494.986 358.896 L 494.946 357.792 L 494.878 356.690 L 494.783 355.589 L 494.662 354.492 L 494.513 353.397 L 494.337 352.307 L 494.135 351.221 L 493.907 350.140 L 493.651 349.066 L 493.370 347.998 L 493.062 346.937 L 492.729 345.884 L 492.369 344.840 L 491.985 343.805 L 491.575 342.779 L 491.139 341.764 L 490.680 340.760 L 490.195 339.767 L 489.686 338.787 L 489.154 337.820 L 488.598 336.865 L 488.018 335.925 L 487.416 334.999 L 486.791 334.089 L 486.144 333.194 L 485.476 332.315 L 484.785 331.452 L 484.074 330.607 L 483.343 329.780 L 482.591 328.971 L 481.820 328.180 L 481.029 327.409 L 480.220 326.657 L 479.393 325.926 L 478.548 325.215 L 477.685 324.524 L 476.806 323.856 L 475.911 323.209 L 475.001 322.584 L 474.075 321.982 L 473.135 321.402 L 472.180 320.846 L 471.213 320.314 L 470.233 319.805 L 469.240 319.320 L 468.236 318.861 L 467.221 318.425 L 466.195 318.015 L 465.160 317.631 L 464.638 317.451 L 464.116 317.271 L 463.063 316.938 L 462.002 316.630 L 460.934 316.349 L 459.860 316.093 L 458.779 315.865 L 457.693 315.663 L 456.603 315.487 L 455.508 315.338 L 454.411 315.217 L 453.310 315.122 L 452.208 315.054 L 451.104 315.014 L 450.000 315.000 L 195.000 315.000 L 195.000 40.000 L 194.986 38.896 L 194.946 37.792 L 194.878 36.690 L 194.783 35.589 L 194.662 34.492 L 194.513 33.397 L 194.337 32.307 L 194.135 31.221 L 193.907 30.140 L 193.651 29.066 L 193.370 27.998 L 193.062 26.937 L 192.729 25.884 L 192.369 24.840 L 191.985 23.805 L 191.575 22.779 L 191.139 21.764 L 190.680 20.760 L 190.195 19.767 L 189.686 18.787 L 189.154 17.820 L 188.598 16.865 L 188.018 15.925 L 187.416 14.999 L 186.791 14.089 L 186.144 13.194 L 185.476 12.315 L 184.785 11.452 L 184.074 10.607 L 183.343 9.780 L 182.591 8.971 L 181.820 8.180 L 181.029 7.409 L 180.220 6.657 L 179.393 5.926 L 178.548 5.215 L 177.685 4.524 L 176.806 3.856 L 175.911 3.209 L 175.001 2.584 L 174.075 1.982 L 173.135 1.402 L 172.180 0.846 L 171.213 0.314 L 170.233 -0.195 L 169.240 -0.680 L 168.236 -1.139 L 167.221 -1.575 L 166.195 -1.985 L 165.160 -2.369 L 164.116 -2.729 L 163.063 -3.062 L 162.002 -3.370 L 160.934 -3.651 L 159.860 -3.907 L 158.779 -4.135 L 157.693 -4.337 L 156.603 -4.513 L 155.508 -4.662 L 154.411 -4.783 L 153.310 -4.878 L 152.208 -4.946 L 151.104 -4.986 L 150.000 -5.000 L 148.896 -4.986 L 147.792 -4.946 L 146.690 -4.878 L 145.589 -4.783 L 144.492 -4.662 L 143.397 -4.513 L 142.307 -4.337 L 141.221 -4.135 L 140.140 -3.907 L 139.066 -3.651 L 137.998 -3.370 L 136.937 -3.062 L 135.884 -2.729 L 134.840 -2.369 L 133.805 -1.985 L 132.779 -1.575 L 131.764 -1.139 L 130.760 -0.680 L 129.767 -0.195 L 128.787 0.314 L 127.820 0.846 L 126.865 1.402 L 125.925 1.982 L 124.999 2.584 L 124.089 3.209 L 123.194 3.856 L 122.315 4.524 L 121.452 5.215 L 120.607 5.926 L 119.780 6.657 L 118.971 7.409 L 118.180 8.180 L 117.409 8.971 L 116.657 9.780 L 115.926 10.607 L 115.215 11.452 L 114.524 12.315 L 113.856 13.194 L 113.209 14.089 L 112.584 14.999 L 111.982 15.925 L 111.402 16.865 L 110.846 17.820 L 110.314 18.787 L 109.805 19.767 L 109.320 20.760 L 108.861 21.764 L 108.425 22.779 L 108.015 23.805 L 107.631 24.840 L 107.271 25.884 L 106.938 26.937 L 106.630 27.998 L 106.349 29.066 L 106.093 30.140 L 105.865 31.221 L 105.663 32.307 L 105.487 33.397 L 105.338 34.492 L 105.217 35.589 L 105.122 36.690 L 105.054 37.792 L 105.014 38.896 L 105.000 40.000 L 105.000 360.000 L 105.000 780.000 L 105.014 781.104 L 105.054 782.208 L 105.122 783.310 L 105.217 784.411 L 105.338 785.508 L 105.487 786.603 L 105.663 787.693 L 105.865 788.779 L 106.093 789.860 L 106.349 790.934 L 106.630 792.002 L 106.938 793.063 L 107.271 794.116 L 107.631 795.160 L 108.015 796.195 L 108.425 797.221 L 108.861 798.236 L 109.320 799.240 L 109.805 800.233 L 110.314 801.213 L 110.846 802.180 L 111.402 803.135 L 111.982 804.075 L 112.584 805.001 L 113.209 805.911 L 113.856 806.806 L 114.524 807.685 L 115.215 808.548 L 115.926 809.393 L 116.657 810.220 L 117.409 811.029 L 118.180 811.820 L 118.971 812.591 L 119.780 813.343 L 120.607 814.074 L 121.452 814.785 L 122.315 815.476 L 123.194 816.144 L 124.089 816.791 L 124.999 817.416 L 125.925 818.018 L 126.865 818.598 L 127.820 819.154 L 128.787 819.686 L 129.767 820.195 L 130.760 820.680 L 131.764 821.139 L 132.779 821.575 L 133.805 821.985 L 134.840 822.369 L 135.884 822.729 L 136.937 823.062 L 137.998 823.370 L 139.066 823.651 L 140.140 823.907 L 141.221 824.135 L 142.307 824.337 L 143.397 824.513 L 144.492 824.662 L 145.589 824.783 L 146.690 824.878 L 147.792 824.946 L 148.896 824.986 L 150.000 825.000 L 151.104 824.986 L 152.208 824.946 L 153.310 824.878 L 154.411 824.783 L 155.508 824.662 L 156.603 824.513 L 157.693 824.337 L 158.779 824.135 L 159.860 823.907 L 160.934 823.651 L 162.002 823.370 L 163.063 823.062 L 164.116 822.729 L 165.160 822.369 L 166.195 821.985 L 167.221 821.575 L 168.236 821.139 L 169.240 820.680 L 170.233 820.195 L 171.213 819.686 L 172.180 819.154 L 173.135 818.598 L 174.075 818.018 L 175.001 817.416 L 175.911 816.791 L 176.806 816.144 L 177.685 815.476 L 178.548 814.785 L 179.393 814.074 L 180.220 813.343 L 181.029 812.591 L 181.820 811.820 L 182.591 811.029 L 183.343 810.220 L 184.074 809.393 L 184.785 808.548 L 185.476 807.685 L 186.144 806.806 L 186.791 805.911 L 187.416 805.001 L 188.018 804.075 L 188.598 803.135 L 189.154 802.180 L 189.686 801.213 L 190.195 800.233 L 190.680 799.240 L 191.139 798.236 L 191.575 797.221 L 191.985 796.195 L 192.369 795.160 L 192.729 794.116 L 193.062 793.063 L 193.370 792.002 L 193.651 790.934 L 193.907 789.860 L 194.135 788.779 L 194.337 787.693 L 194.513 786.603 L 194.662 785.508 L 194.783 784.411 L 194.878 783.310 L 194.946 782.208 L 194.986 781.104 L 195.000 780.000 L 195.000 405.000 L 405.000 405.000 L 405.000 780.000 L 405.014 781.104 L 405.054 782.208 L 405.122 783.310 L 405.217 784.411 L 405.338 785.508 L 405.487 786.603 L 405.663 787.693 L 405.865 788.779 L 406.093 789.860 L 406.349 790.934 L 406.630 792.002 L 406.938 793.063 L 407.271 794.116 L 407.631 795.160 L 408.015 796.195 L 408.425 797.221 L 408.861 798.236 L 409.320 799.240 L 409.805 800.233 L 410.314 801.213 L 410.846 802.180 L 411.402 803.135 L 411.982 804.075 L 412.584 805.001 L 413.209 805.911 L 413.856 806.806 L 414.524 807.685 L 415.215 808.548 L 415.926 809.393 L 416.657 810.220 L 417.409 811.029 L 418.180 811.820 L 418.971 812.591 L 419.780 813.343 L 420.607 814.074 L 421.452 814.785 L 422.315 815.476 L 423.194 816.144 L 424.089 816.791 L 424.999 817.416 L 425.925 818.018 L 426.865 818.598 L 427.820 819.154 L 428.787 819.686 L 429.767 820.195 L 430.760 820.680 L 431.764 821.139 L 432.779 821.575 L 433.805 821.985 L 434.840 822.369 L 435.884 822.729 L 436.937 823.062 L 437.998 823.370 L 439.066 823.651 L 440.140 823.907 L 441.221 824.135 L 442.307 824.337 L 443.397 824.513 L 444.492 824.662 L 445.589 824.783 L 446.690 824.878 L 447.792 824.946 L 448.896 824.986 L 450.000 825.000 L 451.104 824.986 L 452.208 824.946 L 453.310 824.878 L 454.411 824.783 L 455.508 824.662 L 456.603 824.513 L 457.693 824.337 L 458.779 824.135 L 459.860 823.907 L 460.934 823.651 L 462.002 823.370 L 463.063 823.062 L 464.116 822.729 L 465.160 822.369 L 466.195 821.985 L 467.221 821.575 L 468.236 821.139 L 469.240 820.680 L 470.233 820.195 L 471.213 819.686 L 472.180 819.154 L 473.135 818.598 L 474.075 818.018 L 475.001 817.416 L 475.911 816.791 L 476.806 816.144 L 477.685 815.476 L 478.548 814.785 L 479.393 814.074 L 480.220 813.343 L 481.029 812.591 L 481.820 811.820 L 482.591 811.029 L 483.343 810.220 L 484.074 809.393 L 484.785 808.548 L 485.476 807.685 L 486.144 806.806 L 486.791 805.911 L 487.416 805.001 L 488.018 804.075 L 488.598 803.135 L 489.154 802.180 L 489.686 801.213 L 490.195 800.233 L 490.680 799.240 L 491.139 798.236 L 491.575 797.221 L 491.985 796.195 L 492.369 795.160 L 492.729 794.116 L 493.062 793.063 L 493.370 792.002 L 493.651 790.934 L 493.907 789.860 L 494.135 788.779 L 494.337 787.693 L 494.513 786.603 L 494.662 785.508 L 494.783 784.411 L 494.878 783.310 L 494.946 782.208 L 494.986 781.104 L 495.000 780.000 L 495.000 360.000 L 494.986 358.896 Z" fill="black" fill-rule="evenodd"/>
</svg>
