<svg xmlns="http://www.w3.org/2000/svg" viewBox="0 0 600.000 1000">
  <path d="M 461.472 824.976 L 462.943 824.904 L 464.411 824.783 L 465.874 824.615 L 467.330 824.399 L 468.779 824.135 L 470.218 823.824 L 471.647 823.467 L 473.063 823.062 L 474.465 822.612 L 475.851 822.116 L 477.221 821.575 L 478.572 820.989 L 479.903 820.359 L 481.213 819.686 L 482.500 818.971 L 483.763 818.214 L 485.001 817.416 L 486.211 816.578 L 487.394 815.701 L 488.548 814.785 L 489.671 813.833 L 490.762 812.844 L 491.820 811.820 L 492.844 810.762 L 493.833 809.671 L 494.785 808.548 L 495.701 807.394 L 496.578 806.211 L 497.416 805.001 L 498.214 803.763 L 498.971 802.500 L 499.686 801.213 L 500.359 799.903 L 500.989 798.572 L 501.575 797.221 L 502.116 795.851 L 502.612 794.465 L 503.062 793.063 L 503.467 791.647 L 503.824 790.218 L 504.135 788.779 L 504.399 787.330 L 504.615 785.874 L 504.783 784.411 L 504.904 782.943 L 504.976 781.472 L 505.000 780.000 L 505.000 320.000 L 505.000 40.000 L 504.976 38.528 L 504.904 37.057 L 504.783 35.589 L 504.615 34.126 L 504.399 32.670 L 504.135 31.221 L 503.824 29.782 L 503.467 28.353 L 503.062 26.937 L 502.612 25.535 L 502.116 24.149 L 501.575 22.779 L 500.989 21.428 L 500.359 20.097 L 499.686 18.787 L 498.971 17.500 L 498.214 16.237 L 497.416 14.999 L 496.578 13.789 L 495.701 12.606 L 494.785 11.452 L 493.833 10.329 L 492.844 9.238 L 491.820 8.180 L 490.762 7.156 L 489.671 6.167 L 488.548 5.215 L 487.394 4.299 L 486.211 3.422 L 485.001 2.584 L 483.763 1.786 L 482.500 1.029 L 481.213 0.314 L 479.903 -0.359 L 478.572 -0.989 L 477.221 -1.575 L 475.851 -2.116 L 474.465 -2.612 L 473.063 -3.062 L 471.647 -3.467 L 470.218 -3.824 L 468.779 -4.135 L 467.330 -4.399 L 465.874 -4.615 L 464.411 -4.783 L 462.943 -4.904 L 461.472 -4.976 L 460.000 -5.000 L 458.528 -4.976 L 457.057 -4.904 L 455.589 -4.783 L 454.126 -4.615 L 452.670 -4.399 L 451.221 -4.135 L 449.782 -3.824 L 448.353 -3.467 L 446.937 -3.062 L 445.535 -2.612 L 444.149 -2.116 L 442.779 -1.575 L 441.428 -0.989 L 440.097 -0.359 L 438.787 0.314 L 437.500 1.029 L 436.237 1.786 L 434.999 2.584 L 433.789 3.422 L 432.606 4.299 L 431.452 5.215 L 430.329 6.167 L 429.238 7.156 L 428.180 8.180 L 427.156 9.238 L 426.167 10.329 L 425.215 11.452 L 424.299 12.606 L 423.422 13.789 L 422.584 14.999 L 421.786 16.237 L 421.029 17.500 L 420.314 18.787 L 419.641 20.097 L 419.011 21.428 L 418.425 22.779 L 417.884 24.149 L 417.388 25.535 L 416.938 26.937 L 416.533 28.353 L 416.176 29.782 L 415.865 31.221 L 415.601 32.670 L 415.385 34.126 L 415.217 35.589 L 415.096 37.057 L 415.024 38.528 L 415.000 40.000 L 415.000 275.000 L 337.410 275.000 L 337.083 274.508 L 336.229 273.308 L 335.336 272.137 L 334.406 270.996 L 333.438 269.885 L 332.435 268.808 L 331.397 267.763 L 330.325 266.753 L 329.221 265.779 L 328.086 264.841 L 326.921 263.941 L 325.726 263.079 L 324.505 262.257 L 323.257 261.476 L 321.984 260.735 L 320.687 260.037 L 319.369 259.382 L 318.029 258.770 L 316.670 258.202 L 315.294 257.679 L 313.901 257.201 L 312.493 256.769 L 311.072 256.383 L 309.639 256.044 L 308.196 255.753 L 306.744 255.508 L 305.284 255.311 L 303.819 255.162 L 302.350 255.061 L 300.879 255.009 L 299.406 255.004 L 293.599 255.081 L 292.411 255.112 L 286.608 255.342 L 285.422 255.405 L 279.626 255.788 L 278.442 255.882 L 272.659 256.417 L 271.478 256.543 L 265.711 257.231 L 264.533 257.387 L 258.787 258.228 L 257.613 258.415 L 251.891 259.407 L 250.723 259.625 L 245.029 260.768 L 243.867 261.017 L 238.205 262.309 L 237.051 262.589 L 231.424 264.030 L 230.278 264.340 L 224.691 265.929 L 223.553 266.269 L 218.011 268.006 L 216.882 268.376 L 211.388 270.258 L 210.269 270.658 L 204.826 272.684 L 203.719 273.113 L 198.331 275.282 L 197.235 275.741 L 191.907 278.051 L 190.823 278.538 L 185.558 280.989 L 184.487 281.505 L 179.288 284.093 L 178.232 284.637 L 173.103 287.362 L 172.062 287.933 L 167.007 290.793 L 165.980 291.391 L 161.003 294.383 L 159.993 295.008 L 155.095 298.131 L 154.102 298.783 L 149.289 302.033 L 148.314 302.711 L 143.588 306.087 L 142.631 306.791 L 137.996 310.291 L 137.058 311.019 L 132.517 314.640 L 131.598 315.393 L 127.154 319.133 L 126.256 319.910 L 121.912 323.765 L 121.034 324.566 L 116.794 328.535 L 115.938 329.358 L 111.804 333.437 L 110.970 334.283 L 106.945 338.470 L 106.133 339.338 L 102.220 343.630 L 101.432 344.518 L 97.634 348.912 L 96.869 349.821 L 93.188 354.313 L 92.447 355.242 L 88.887 359.830 L 88.171 360.778 L 84.732 365.459 L 84.041 366.425 L 80.728 371.195 L 80.063 372.179 L 76.876 377.035 L 76.237 378.037 L 73.180 382.975 L 72.568 383.993 L 69.642 389.010 L 69.057 390.044 L 66.265 395.136 L 65.707 396.185 L 63.050 401.349 L 62.520 402.413 L 60.001 407.645 L 59.499 408.722 L 57.118 414.020 L 56.646 415.110 L 54.405 420.468 L 53.962 421.570 L 51.864 426.986 L 51.449 428.099 L 49.495 433.568 L 49.110 434.692 L 47.301 440.211 L 46.946 441.344 L 45.283 446.909 L 44.957 448.052 L 43.442 453.658 L 43.147 454.809 L 41.780 460.454 L 41.516 461.612 L 40.298 467.291 L 40.065 468.455 L 38.997 474.164 L 38.795 475.335 L 37.878 481.070 L 37.707 482.245 L 36.942 488.003 L 36.801 489.182 L 36.189 494.958 L 36.080 496.141 L 35.620 501.930 L 35.542 503.116 L 35.235 508.915 L 35.188 510.102 L 35.035 515.908 L 35.019 517.096 L 35.019 522.904 L 35.035 524.092 L 35.188 529.898 L 35.235 531.085 L 35.542 536.884 L 35.620 538.070 L 36.080 543.859 L 36.189 545.042 L 36.801 550.818 L 36.942 551.997 L 37.707 557.755 L 37.878 558.930 L 38.795 564.665 L 38.997 565.836 L 40.065 571.545 L 40.298 572.709 L 41.516 578.388 L 41.780 579.546 L 43.147 585.191 L 43.442 586.342 L 44.957 591.948 L 45.283 593.091 L 46.946 598.656 L 47.301 599.789 L 49.110 605.308 L 49.495 606.432 L 51.449 611.901 L 51.864 613.014 L 53.962 618.430 L 54.405 619.532 L 56.646 624.890 L 57.118 625.980 L 59.499 631.278 L 60.001 632.355 L 62.520 637.587 L 63.050 638.651 L 65.707 643.815 L 66.265 644.864 L 69.057 649.956 L 69.642 650.990 L 72.568 656.007 L 73.180 657.025 L 76.237 661.963 L 76.876 662.965 L 80.063 667.821 L 80.728 668.805 L 84.041 673.575 L 84.732 674.541 L 88.171 679.222 L 88.887 680.170 L 92.447 684.758 L 93.188 685.687 L 96.869 690.179 L 97.634 691.088 L 101.432 695.482 L 102.220 696.370 L 106.133 700.662 L 106.945 701.530 L 110.970 705.717 L 111.804 706.563 L 115.938 710.642 L 116.794 711.465 L 121.034 715.434 L 121.912 716.235 L 126.256 720.090 L 127.154 720.867 L 131.598 724.607 L 132.517 725.360 L 137.058 728.981 L 137.996 729.709 L 142.631 733.209 L 143.588 733.913 L 148.314 737.289 L 149.289 737.967 L 154.102 741.217 L 155.095 741.869 L 159.993 744.992 L 161.003 745.617 L 165.980 748.609 L 167.007 749.207 L 172.062 752.067 L 173.103 752.638 L 178.232 755.363 L 179.288 755.907 L 184.487 758.495 L 185.558 759.011 L 190.823 761.462 L 191.907 761.949 L 197.235 764.259 L 198.331 764.718 L 203.719 766.887 L 204.826 767.316 L 210.269 769.342 L 211.388 769.742 L 216.882 771.624 L 218.011 771.994 L 223.553 773.731 L 224.691 774.071 L 230.278 775.660 L 231.424 775.970 L 237.051 777.411 L 238.205 777.691 L 243.867 778.983 L 245.029 779.232 L 250.723 780.375 L 251.891 780.593 L 255.019 781.135 L 255.024 781.472 L 255.096 782.943 L 255.217 784.411 L 255.385 785.874 L 255.601 787.330 L 255.865 788.779 L 256.176 790.218 L 256.533 791.647 L 256.938 793.063 L 257.388 794.465 L 257.884 795.851 L 258.425 797.221 L 259.011 798.572 L 259.641 799.903 L 260.314 801.213 L 261.029 802.500 L 261.786 803.763 L 262.584 805.001 L 263.422 806.211 L 264.299 807.394 L 265.215 808.548 L 266.167 809.671 L 267.156 810.762 L 268.180 811.820 L 269.238 812.844 L 270.329 813.833 L 271.452 814.785 L 272.606 815.701 L 273.789 816.578 L 274.999 817.416 L 276.237 818.214 L 277.500 818.971 L 278.787 819.686 L 280.097 820.359 L 281.428 820.989 L 282.779 821.575 L 284.149 822.116 L 285.535 822.612 L 286.937 823.062 L 288.353 823.467 L 289.782 823.824 L 291.221 824.135 L 292.670 824.399 L 294.126 824.615 L 295.589 824.783 L 297.057 824.904 L 298.528 824.976 L 300.000 825.000 L 460.000 825.000 L 461.472 824.976 Z M 265.215 348.548 L 266.167 349.671 L 267.156 350.762 L 268.180 351.820 L 269.238 352.844 L 270.329 353.833 L 271.452 354.785 L 272.606 355.701 L 273.789 356.578 L 274.999 357.416 L 276.237 358.214 L 277.500 358.971 L 278.787 359.686 L 280.097 360.359 L 281.428 360.989 L 282.779 361.575 L 284.149 362.116 L 285.535 362.612 L 286.937 363.062 L 288.353 363.467 L 289.782 363.824 L 291.221 364.135 L 292.670 364.399 L 294.126 364.615 L 295.589 364.783 L 297.057 364.904 L 298.528 364.976 L 300.000 365.000 L 415.000 365.000 L 415.000 735.000 L 344.718 735.000 L 344.689 734.716 L 344.492 733.256 L 344.247 731.804 L 343.956 730.361 L 343.617 728.928 L 343.231 727.507 L 342.799 726.099 L 342.321 724.706 L 341.798 723.330 L 341.230 721.971 L 340.618 720.631 L 339.963 719.313 L 339.265 718.016 L 338.524 716.743 L 337.743 715.495 L 336.921 714.274 L 336.059 713.079 L 335.159 711.914 L 334.221 710.779 L 333.247 709.675 L 332.237 708.603 L 331.192 707.565 L 330.115 706.562 L 329.004 705.594 L 327.863 704.664 L 326.692 703.771 L 325.492 702.917 L 324.265 702.103 L 323.012 701.329 L 321.735 700.597 L 320.434 699.907 L 319.111 699.260 L 317.768 698.656 L 316.406 698.097 L 315.026 697.583 L 313.630 697.114 L 312.220 696.691 L 310.796 696.314 L 309.361 695.984 L 307.916 695.702 L 306.462 695.466 L 305.002 695.279 L 303.536 695.139 L 302.066 695.047 L 300.594 695.004 L 295.381 694.935 L 290.765 694.752 L 286.155 694.448 L 281.555 694.021 L 276.968 693.474 L 272.396 692.805 L 267.845 692.016 L 263.315 691.108 L 258.811 690.080 L 254.336 688.933 L 249.893 687.669 L 245.484 686.288 L 241.114 684.791 L 236.784 683.179 L 232.499 681.453 L 228.260 679.615 L 224.072 677.666 L 219.937 675.607 L 215.857 673.439 L 211.836 671.165 L 207.876 668.785 L 203.981 666.301 L 200.153 663.715 L 196.394 661.030 L 192.707 658.246 L 189.095 655.365 L 185.561 652.391 L 182.106 649.324 L 178.733 646.167 L 175.445 642.922 L 172.244 639.591 L 169.131 636.177 L 166.110 632.682 L 163.183 629.108 L 160.350 625.459 L 157.615 621.736 L 154.979 617.942 L 152.444 614.079 L 150.012 610.152 L 147.685 606.161 L 145.464 602.110 L 143.350 598.002 L 141.345 593.840 L 139.452 589.626 L 137.670 585.364 L 136.001 581.056 L 134.446 576.706 L 133.007 572.316 L 131.684 567.890 L 130.479 563.430 L 129.391 558.940 L 128.423 554.423 L 127.574 549.882 L 126.845 545.320 L 126.237 540.741 L 125.750 536.147 L 125.385 531.541 L 125.141 526.928 L 125.019 522.310 L 125.019 517.690 L 125.141 513.072 L 125.385 508.459 L 125.750 503.853 L 126.237 499.259 L 126.845 494.680 L 127.574 490.118 L 128.423 485.577 L 129.391 481.060 L 130.479 476.570 L 131.684 472.110 L 133.007 467.684 L 134.446 463.294 L 136.001 458.944 L 137.670 454.636 L 139.452 450.374 L 141.345 446.160 L 143.350 441.998 L 145.464 437.890 L 147.685 433.839 L 150.012 429.848 L 152.444 425.921 L 154.979 422.058 L 157.615 418.264 L 160.350 414.541 L 163.183 410.892 L 166.110 407.318 L 169.131 403.823 L 172.244 400.409 L 175.445 397.078 L 178.733 393.833 L 182.106 390.676 L 185.561 387.609 L 189.095 384.635 L 192.707 381.754 L 196.394 378.970 L 200.153 376.285 L 203.981 373.699 L 207.876 371.215 L 211.836 368.835 L 215.857 366.561 L 219.937 364.393 L 224.072 362.334 L 228.260 360.385 L 232.499 358.547 L 236.784 356.821 L 241.114 355.209 L 245.484 353.712 L 249.893 352.331 L 254.336 351.067 L 258.811 349.920 L 263.315 348.892 L 265.190 348.516 L 265.215 348.548 Z" fill="black" fill-rule="evenodd"/>
</svg>
