<svg xmlns="http://www.w3.org/2000/svg" viewBox="0 0 600.000 1000">
  <path d="M 415.014 781.104 L 415.054 782.208 L 415.122 783.310 L 415.217 784.411 L 415.338 785.508 L 415.487 786.603 L 415.663 787.693 L 415.865 788.779 L 416.093 789.860 L 416.349 790.934 L 416.630 792.002 L 416.938 793.063 L 417.271 794.116 L 417.631 795.160 L 418.015 796.195 L 418.425 797.221 L 418.861 798.236 L 419.320 799.240 L 419.805 800.233 L 420.314 801.213 L 420.846 802.180 L 421.402 803.135 L 421.982 804.075 L 422.584 805.001 L 423.209 805.911 L 423.856 806.806 L 424.524 807.685 L 425.215 808.548 L 425.926 809.393 L 426.657 810.220 L 427.409 811.029 L 428.180 811.820 L 428.971 812.591 L 429.780 813.343 L 430.607 814.074 L 431.452 814.785 L 432.315 815.476 L 433.194 816.144 L 434.089 816.791 L 434.999 817.416 L 435.925 818.018 L 436.865 818.598 L 437.820 819.154 L 438.787 819.686 L 439.767 820.195 L 440.760 820.680 L 441.764 821.139 L 442.779 821.575 L 443.805 821.985 L 444.840 822.369 L 445.884 822.729 L 446.937 823.062 L 447.998 823.370 L 449.066 823.651 L 450.140 823.907 L 451.221 824.135 L 452.307 824.337 L 453.397 824.513 L 454.492 824.662 L 455.589 824.783 L 456.690 824.878 L 457.792 824.946 L 458.896 824.986 L 460.000 825.000 L 461.104 824.986 L 462.208 824.946 L 463.310 824.878 L 464.411 824.783 L 465.508 824.662 L 466.603 824.513 L 467.693 824.337 L 468.779 824.135 L 469.860 823.907 L 470.934 823.651 L 472.002 823.370 L 473.063 823.062 L 474.116 822.729 L 475.160 822.369 L 476.195 821.985 L 477.221 821.575 L 478.236 821.139 L 479.240 820.680 L 480.233 820.195 L 481.213 819.686 L 482.180 819.154 L 483.135 818.598 L 484.075 818.018 L 485.001 817.416 L 485.911 816.791 L 486.806 816.144 L 487.685 815.476 L 488.548 814.785 L 489.393 814.074 L 490.220 813.343 L 491.029 812.591 L 491.820 811.820 L 492.591 811.029 L 493.343 810.220 L 494.074 809.393 L 494.785 808.548 L 495.476 807.685 L 496.144 806.806 L 496.791 805.911 L 497.416 805.001 L 498.018 804.075 L 498.598 803.135 L 499.154 802.180 L 499.686 801.213 L 500.195 800.233 L 500.680 799.240 L 501.139 798.236 L 501.575 797.221 L 501.985 796.195 L 502.369 795.160 L 502.729 794.116 L 503.062 793.063 L 503.370 792.002 L 503.651 790.934 L 503.907 789.860 L 504.135 788.779 L 504.337 787.693 L 504.513 786.603 L 504.662 785.508 L 504.783 784.411 L 504.878 783.310 L 504.946 782.208 L 504.986 781.104 L 505.000 780.000 L 505.000 40.000 L 504.986 38.896 L 504.946 37.792 L 504.878 36.690 L 504.783 35.589 L 504.662 34.492 L 504.513 33.397 L 504.337 32.307 L 504.135 31.221 L 503.907 30.140 L 503.651 29.066 L 503.370 27.998 L 503.062 26.937 L 502.729 25.884 L 502.369 24.840 L 501.985 23.805 L 501.575 22.779 L 501.139 21.764 L 500.680 20.760 L 500.195 19.767 L 499.686 18.787 L 499.154 17.820 L 498.598 16.865 L 498.018 15.925 L 497.416 14.999 L 496.791 14.089 L 496.144 13.194 L 495.476 12.315 L 494.785 11.452 L 494.074 10.607 L 493.343 9.780 L 492.591 8.971 L 491.820 8.180 L 491.029 7.409 L 490.220 6.657 L 489.393 5.926 L 488.548 5.215 L 487.685 4.524 L 486.806 3.856 L 485.911 3.209 L 485.001 2.584 L 484.075 1.982 L 483.135 1.402 L 482.180 0.846 L 481.213 0.314 L 480.233 -0.195 L 479.240 -0.680 L 478.236 -1.139 L 477.221 -1.575 L 476.195 -1.985 L 475.160 -2.369 L 474.116 -2.729 L 473.063 -3.062 L 472.002 -3.370 L 470.934 -3.651 L 469.860 -3.907 L 468.779 -4.135 L 467.693 -4.337 L 466.603 -4.513 L 465.508 -4.662 L 464.411 -4.783 L 463.310 -4.878 L 462.208 -4.946 L 461.104 -4.986 L 460.000 -5.000 L 458.896 -4.986 L 457.792 -4.946 L 456.690 -4.878 L 455.589 -4.783 L 454.492 -4.662 L 453.397 -4.513 L 452.307 -4.337 L 451.221 -4.135 L 450.140 -3.907 L 449.066 -3.651 L 447.998 -3.370 L 446.937 -3.062 L 445.884 -2.729 L 444.840 -2.369 L 443.805 -1.985 L 442.779 -1.575 L 441.764 -1.139 L 440.760 -0.680 L 439.767 -0.195 L 438.787 0.314 L 437.820 0.846 L 436.865 1.402 L 435.925 1.982 L 434.999 2.584 L 434.089 3.209 L 433.194 3.856 L 432.315 4.524 L 431.452 5.215 L 430.607 5.926 L 429.780 6.657 L 428.971 7.409 L 428.180 8.180 L 427.409 8.971 L 426.657 9.780 L 425.926 10.607 L 425.215 11.452 L 424.524 12.315 L 423.856 13.194 L 423.209 14.089 L 422.584 14.999 L 421.982 15.925 L 421.402 16.865 L 420.846 17.820 L 420.314 18.787 L 419.805 19.767 L 419.320 20.760 L 418.861 21.764 L 418.425 22.779 L 418.015 23.805 L 417.631 24.840 L 417.271 25.884 L 416.938 26.937 L 416.630 27.998 L 416.349 29.066 L 416.093 30.140 L 415.865 31.221 L 415.663 32.307 L 415.487 33.397 L 415.338 34.492 L 415.217 35.589 L 415.122 36.690 L 415.054 37.792 L 415.014 38.896 L 415.000 40.000 L 415.000 295.923 L 413.790 294.459 L 413.078 293.618 L 409.510 289.510 L 408.766 288.675 L 405.125 284.687 L 404.349 283.858 L 400.638 279.994 L 399.828 279.172 L 396.048 275.434 L 395.204 274.621 L 391.359 271.011 L 390.480 270.207 L 386.572 266.727 L 385.658 265.936 L 381.688 262.588 L 380.738 261.809 L 376.709 258.596 L 375.724 257.832 L 371.638 254.755 L 370.617 254.008 L 366.477 251.069 L 365.419 250.340 L 361.229 247.542 L 360.134 246.833 L 355.895 244.176 L 354.764 243.491 L 350.478 240.976 L 349.313 240.316 L 344.983 237.946 L 343.782 237.312 L 339.411 235.089 L 338.176 234.485 L 333.766 232.409 L 332.498 231.835 L 328.053 229.908 L 326.752 229.369 L 322.274 227.591 L 320.943 227.087 L 316.434 225.461 L 315.074 224.995 L 310.537 223.521 L 309.151 223.095 L 304.589 221.773 L 303.177 221.389 L 298.593 220.221 L 297.159 219.880 L 292.555 218.867 L 291.101 218.572 L 286.481 217.713 L 285.010 217.465 L 280.375 216.761 L 278.890 216.561 L 274.244 216.014 L 272.747 215.863 L 268.093 215.471 L 266.588 215.370 L 261.928 215.135 L 260.418 215.085 L 255.756 215.006 L 254.244 215.006 L 249.582 215.085 L 248.072 215.135 L 243.412 215.370 L 241.907 215.471 L 237.253 215.863 L 235.756 216.014 L 231.110 216.561 L 229.625 216.761 L 224.990 217.465 L 223.519 217.713 L 218.899 218.572 L 217.445 218.867 L 212.841 219.880 L 211.407 220.221 L 206.823 221.389 L 205.411 221.773 L 200.849 223.095 L 199.463 223.521 L 194.926 224.995 L 193.566 225.461 L 189.057 227.087 L 187.726 227.591 L 183.248 229.369 L 181.947 229.908 L 177.502 231.835 L 176.234 232.409 L 171.824 234.485 L 170.589 235.089 L 166.218 237.312 L 165.017 237.946 L 160.687 240.316 L 159.522 240.976 L 155.236 243.491 L 154.105 244.176 L 149.866 246.833 L 148.771 247.542 L 144.581 250.340 L 143.523 251.069 L 139.383 254.008 L 138.362 254.755 L 134.276 257.832 L 133.291 258.596 L 129.262 261.809 L 128.312 262.588 L 124.342 265.936 L 123.428 266.727 L 119.520 270.207 L 118.641 271.011 L 114.796 274.621 L 113.952 275.434 L 110.172 279.172 L 109.362 279.994 L 105.651 283.858 L 104.875 284.687 L 101.234 288.675 L 100.490 289.510 L 96.922 293.618 L 96.210 294.459 L 92.717 298.686 L 92.036 299.530 L 88.619 303.873 L 87.969 304.720 L 84.631 309.177 L 84.010 310.027 L 80.754 314.594 L 80.161 315.445 L 76.988 320.120 L 76.423 320.972 L 73.334 325.752 L 72.797 326.604 L 69.795 331.487 L 69.284 332.339 L 66.370 337.321 L 65.885 338.172 L 63.061 343.251 L 62.600 344.101 L 59.868 349.273 L 59.432 350.121 L 56.794 355.383 L 56.380 356.230 L 53.837 361.579 L 53.446 362.424 L 51.000 367.857 L 50.630 368.700 L 48.282 374.213 L 47.934 375.054 L 45.685 380.645 L 45.358 381.483 L 43.210 387.148 L 42.903 387.984 L 40.857 393.718 L 40.569 394.552 L 38.627 400.354 L 38.358 401.185 L 36.521 407.050 L 36.270 407.879 L 34.538 413.804 L 34.305 414.631 L 32.680 420.613 L 32.465 421.437 L 30.948 427.471 L 30.749 428.293 L 29.341 434.377 L 29.159 435.197 L 27.860 441.326 L 27.695 442.144 L 26.506 448.314 L 26.357 449.131 L 25.279 455.339 L 25.146 456.154 L 24.180 462.397 L 24.062 463.210 L 23.208 469.483 L 23.105 470.295 L 22.364 476.595 L 22.276 477.406 L 21.649 483.729 L 21.576 484.538 L 21.062 490.881 L 21.004 491.689 L 20.604 498.047 L 20.560 498.855 L 20.274 505.224 L 20.245 506.032 L 20.074 512.409 L 20.059 513.216 L 20.002 519.596 L 20.002 520.404 L 20.059 526.784 L 20.074 527.591 L 20.245 533.968 L 20.274 534.776 L 20.560 541.145 L 20.604 541.953 L 21.004 548.311 L 21.062 549.119 L 21.576 555.462 L 21.649 556.271 L 22.276 562.594 L 22.364 563.405 L 23.105 569.705 L 23.208 570.517 L 24.062 576.790 L 24.180 577.603 L 25.146 583.846 L 25.279 584.661 L 26.357 590.869 L 26.506 591.686 L 27.695 597.856 L 27.860 598.674 L 29.159 604.803 L 29.341 605.623 L 30.749 611.707 L 30.948 612.529 L 32.465 618.563 L 32.680 619.387 L 34.305 625.369 L 34.538 626.196 L 36.270 632.121 L 36.521 632.950 L 38.358 638.815 L 38.627 639.646 L 40.569 645.448 L 40.857 646.282 L 42.903 652.016 L 43.210 652.852 L 45.358 658.517 L 45.685 659.355 L 47.934 664.946 L 48.282 665.787 L 50.630 671.300 L 51.000 672.143 L 53.446 677.576 L 53.837 678.421 L 56.380 683.770 L 56.794 684.617 L 59.432 689.879 L 59.868 690.727 L 62.600 695.899 L 63.061 696.749 L 65.885 701.828 L 66.370 702.679 L 69.284 707.661 L 69.795 708.513 L 72.797 713.396 L 73.334 714.248 L 76.423 719.028 L 76.988 719.880 L 80.161 724.555 L 80.754 725.406 L 84.010 729.973 L 84.631 730.823 L 87.969 735.280 L 88.619 736.127 L 92.036 740.470 L 92.717 741.314 L 96.210 745.541 L 96.922 746.382 L 100.490 750.490 L 101.234 751.325 L 104.875 755.313 L 105.651 756.142 L 109.362 760.006 L 110.172 760.828 L 113.952 764.566 L 114.796 765.379 L 118.641 768.989 L 119.520 769.793 L 123.428 773.273 L 124.342 774.064 L 128.312 777.412 L 129.262 778.191 L 133.291 781.404 L 134.276 782.168 L 138.362 785.245 L 139.383 785.992 L 143.523 788.931 L 144.581 789.660 L 148.771 792.458 L 149.866 793.167 L 154.105 795.824 L 155.236 796.509 L 159.522 799.024 L 160.687 799.684 L 165.017 802.054 L 166.218 802.688 L 170.589 804.911 L 171.824 805.515 L 176.234 807.591 L 177.502 808.165 L 181.947 810.092 L 183.248 810.631 L 187.726 812.409 L 189.057 812.913 L 193.566 814.539 L 194.926 815.005 L 199.463 816.479 L 200.849 816.905 L 205.411 818.227 L 206.823 818.611 L 211.407 819.779 L 212.841 820.120 L 217.445 821.133 L 218.899 821.428 L 223.519 822.287 L 224.990 822.535 L 229.625 823.239 L 231.110 823.439 L 235.756 823.986 L 237.253 824.137 L 241.907 824.529 L 243.412 824.630 L 248.072 824.865 L 249.582 824.915 L 254.244 824.994 L 255.756 824.994 L 260.418 824.915 L 261.928 824.865 L 266.588 824.630 L 268.093 824.529 L 272.747 824.137 L 274.244 823.986 L 278.890 823.439 L 280.375 823.239 L 285.010 822.535 L 286.481 822.287 L 291.101 821.428 L 292.555 821.133 L 297.159 820.120 L 298.593 819.779 L 303.177 818.611 L 304.589 818.227 L 309.151 816.905 L 310.537 816.479 L 315.074 815.005 L 316.434 814.539 L 320.943 812.913 L 322.274 812.409 L 326.752 810.631 L 328.053 810.092 L 332.498 808.165 L 333.766 807.591 L 338.176 805.515 L 339.411 804.911 L 343.782 802.688 L 344.983 802.054 L 349.313 799.684 L 350.478 799.024 L 354.764 796.509 L 355.895 795.824 L 360.134 793.167 L 361.229 792.458 L 365.419 789.660 L 366.477 788.931 L 370.617 785.992 L 371.638 785.245 L 375.724 782.168 L 376.709 781.404 L 380.738 778.191 L 381.688 777.412 L 385.658 774.064 L 386.572 773.273 L 390.480 769.793 L 391.359 768.989 L 395.204 765.379 L 396.048 764.566 L 399.828 760.828 L 400.638 760.006 L 404.349 756.142 L 405.125 755.313 L 408.766 751.325 L 409.510 750.490 L 413.078 746.382 L 413.790 745.541 L 415.000 744.077 L 415.000 780.000 L 415.014 781.104 Z M 399.948 525.573 L 399.798 531.143 L 399.549 536.704 L 399.199 542.254 L 398.751 547.787 L 398.204 553.300 L 397.558 558.789 L 396.815 564.250 L 395.976 569.678 L 395.040 575.071 L 394.009 580.424 L 392.883 585.734 L 391.665 590.996 L 390.355 596.206 L 388.955 601.362 L 387.465 606.459 L 385.888 611.494 L 384.225 616.463 L 382.478 621.362 L 380.648 626.189 L 378.737 630.939 L 376.747 635.610 L 374.681 640.199 L 372.541 644.701 L 370.328 649.115 L 368.045 653.437 L 365.694 657.665 L 363.279 661.795 L 360.800 665.825 L 358.262 669.753 L 355.667 673.577 L 353.016 677.294 L 350.314 680.901 L 347.563 684.398 L 344.766 687.783 L 341.926 691.053 L 339.046 694.208 L 336.128 697.246 L 333.175 700.166 L 330.192 702.967 L 327.179 705.649 L 324.141 708.211 L 321.080 710.653 L 317.998 712.973 L 314.899 715.174 L 311.784 717.254 L 308.657 719.214 L 305.519 721.055 L 302.373 722.777 L 299.220 724.380 L 296.062 725.867 L 292.901 727.237 L 289.738 728.492 L 286.575 729.633 L 283.411 730.662 L 280.248 731.578 L 277.087 732.383 L 273.927 733.079 L 270.769 733.666 L 267.613 734.145 L 264.458 734.517 L 261.304 734.782 L 258.152 734.941 L 255.000 734.994 L 251.848 734.941 L 248.696 734.782 L 245.542 734.517 L 242.387 734.145 L 239.231 733.666 L 236.073 733.079 L 232.913 732.383 L 229.752 731.578 L 226.589 730.662 L 223.425 729.633 L 220.262 728.492 L 217.099 727.237 L 213.938 725.867 L 210.780 724.380 L 207.627 722.777 L 204.481 721.055 L 201.343 719.214 L 198.216 717.254 L 195.101 715.174 L 192.002 712.973 L 188.920 710.653 L 185.859 708.211 L 182.821 705.649 L 179.808 702.967 L 176.825 700.166 L 173.872 697.246 L 170.954 694.208 L 168.074 691.053 L 165.234 687.783 L 162.437 684.398 L 159.686 680.901 L 156.984 677.294 L 154.333 673.577 L 151.738 669.753 L 149.200 665.825 L 146.721 661.795 L 144.306 657.665 L 141.955 653.437 L 139.672 649.115 L 137.459 644.701 L 135.319 640.199 L 133.253 635.610 L 131.263 630.939 L 129.352 626.189 L 127.522 621.362 L 125.775 616.463 L 124.112 611.494 L 122.535 606.459 L 121.045 601.362 L 119.645 596.206 L 118.335 590.996 L 117.117 585.734 L 115.991 580.424 L 114.960 575.071 L 114.024 569.678 L 113.185 564.250 L 112.442 558.789 L 111.796 553.300 L 111.249 547.787 L 110.801 542.254 L 110.451 536.704 L 110.202 531.143 L 110.052 525.573 L 110.002 520.000 L 110.052 514.427 L 110.202 508.857 L 110.451 503.296 L 110.801 497.746 L 111.249 492.213 L 111.796 486.700 L 112.442 481.211 L 113.185 475.750 L 114.024 470.322 L 114.960 464.929 L 115.991 459.576 L 117.117 454.266 L 118.335 449.004 L 119.645 443.794 L 121.045 438.638 L 122.535 433.541 L 124.112 428.506 L 125.775 423.537 L 127.522 418.638 L 129.352 413.811 L 131.263 409.061 L 133.253 404.390 L 135.319 399.801 L 137.459 395.299 L 139.672 390.885 L 141.955 386.563 L 144.306 382.335 L 146.721 378.205 L 149.200 374.175 L 151.738 370.247 L 154.333 366.423 L 156.984 362.706 L 159.686 359.099 L 162.437 355.602 L 165.234 352.217 L 168.074 348.947 L 170.954 345.792 L 173.872 342.754 L 176.825 339.834 L 179.808 337.033 L 182.821 334.351 L 185.859 331.789 L 188.920 329.347 L 192.002 327.027 L 195.101 324.826 L 198.216 322.746 L 201.343 320.786 L 204.481 318.945 L 207.627 317.223 L 210.780 315.620 L 213.938 314.133 L 217.099 312.763 L 220.262 311.508 L 223.425 310.367 L 226.589 309.338 L 229.752 308.422 L 232.913 307.617 L 236.073 306.921 L 239.231 306.334 L 242.387 305.855 L 245.542 305.483 L 248.696 305.218 L 251.848 305.059 L 255.000 305.006 L 258.152 305.059 L 261.304 305.218 L 264.458 305.483 L 267.613 305.855 L 270.769 306.334 L 273.927 306.921 L 277.087 307.617 L 280.248 308.422 L 283.411 309.338 L 286.575 310.367 L 289.738 311.508 L 292.901 312.763 L 296.062 314.133 L 299.220 315.620 L 302.373 317.223 L 305.519 318.945 L 308.657 320.786 L 311.784 322.746 L 314.899 324.826 L 317.998 327.027 L 321.080 329.347 L 324.141 331.789 L 327.179 334.351 L 330.192 337.033 L 333.175 339.834 L 336.128 342.754 L 339.046 345.792 L 341.926 348.947 L 344.766 352.217 L 347.563 355.602 L 350.314 359.099 L 353.016 362.706 L 355.667 366.423 L 358.262 370.247 L 360.800 374.175 L 363.279 378.205 L 365.694 382.335 L 368.045 386.563 L 370.328 390.885 L 372.541 395.299 L 374.681 399.801 L 376.747 404.390 L 378.737 409.061 L 380.648 413.811 L 382.478 418.638 L 384.225 423.537 L 385.888 428.506 L 387.465 433.541 L 388.955 438.638 L 390.355 443.794 L 391.665 449.004 L 392.883 454.266 L 394.009 459.576 L 395.040 464.929 L 395.976 470.322 L 396.815 475.750 L 397.558 481.211 L 398.204 486.700 L 398.751 492.213 L 399.199 497.746 L 399.549 503.296 L 399.798 508.857 L 399.948 514.427 L 399.998 520.000 L 399.948 525.573 Z" fill="black" fill-rule="evenodd"/>
</svg>
