<svg xmlns="http://www.w3.org/2000/svg" viewBox="0 0 600.000 1000">
  <path d="M 100.014 781.104 L 100.054 782.208 L 100.122 783.310 L 100.217 784.411 L 100.338 785.508 L 100.487 786.603 L 100.663 787.693 L 100.865 788.779 L 101.093 789.860 L 101.349 790.934 L 101.630 792.002 L 101.938 793.063 L 102.271 794.116 L 102.631 795.160 L 103.015 796.195 L 103.425 797.221 L 103.861 798.236 L 104.320 799.240 L 104.805 800.233 L 105.314 801.213 L 105.846 802.180 L 106.402 803.135 L 106.982 804.075 L 107.584 805.001 L 108.209 805.911 L 108.856 806.806 L 109.524 807.685 L 110.215 808.548 L 110.926 809.393 L 111.657 810.220 L 112.409 811.029 L 113.180 811.820 L 113.971 812.591 L 114.780 813.343 L 115.607 814.074 L 116.452 814.785 L 117.315 815.476 L 118.194 816.144 L 119.089 816.791 L 119.999 817.416 L 120.925 818.018 L 121.865 818.598 L 122.820 819.154 L 123.787 819.686 L 124.767 820.195 L 125.760 820.680 L 126.764 821.139 L 127.779 821.575 L 128.805 821.985 L 129.840 822.369 L 130.884 822.729 L 131.937 823.062 L 132.998 823.370 L 134.066 823.651 L 135.140 823.907 L 136.221 824.135 L 137.307 824.337 L 138.397 824.513 L 139.492 824.662 L 140.589 824.783 L 141.690 824.878 L 142.792 824.946 L 143.896 824.986 L 145.000 825.000 L 146.104 824.986 L 147.208 824.946 L 148.310 824.878 L 149.411 824.783 L 150.508 824.662 L 151.603 824.513 L 152.693 824.337 L 153.779 824.135 L 154.860 823.907 L 155.934 823.651 L 157.002 823.370 L 158.063 823.062 L 159.116 822.729 L 160.160 822.369 L 161.195 821.985 L 162.221 821.575 L 163.236 821.139 L 164.240 820.680 L 165.233 820.195 L 166.213 819.686 L 167.180 819.154 L 168.135 818.598 L 169.075 818.018 L 170.001 817.416 L 170.911 816.791 L 171.806 816.144 L 172.685 815.476 L 173.548 814.785 L 174.393 814.074 L 175.220 813.343 L 176.029 812.591 L 176.820 811.820 L 177.591 811.029 L 178.343 810.220 L 179.074 809.393 L 179.785 808.548 L 180.476 807.685 L 181.144 806.806 L 181.791 805.911 L 182.416 805.001 L 183.018 804.075 L 183.598 803.135 L 184.154 802.180 L 184.686 801.213 L 185.195 800.233 L 185.680 799.240 L 186.139 798.236 L 186.575 797.221 L 186.985 796.195 L 187.369 795.160 L 187.729 794.116 L 188.062 793.063 L 188.370 792.002 L 188.651 790.934 L 188.907 789.860 L 189.135 788.779 L 189.337 787.693 L 189.513 786.603 L 189.662 785.508 L 189.783 784.411 L 189.878 783.310 L 189.946 782.208 L 189.986 781.104 L 190.000 780.000 L 190.000 639.275 L 456.933 798.638 L 457.888 799.192 L 458.856 799.723 L 459.837 800.230 L 460.831 800.713 L 461.836 801.171 L 462.852 801.604 L 463.878 802.013 L 464.914 802.396 L 465.959 802.753 L 467.012 803.085 L 468.073 803.391 L 469.142 803.670 L 470.217 803.924 L 471.298 804.151 L 472.384 804.351 L 473.475 804.524 L 474.569 804.671 L 475.667 804.791 L 476.768 804.884 L 477.870 804.950 L 478.974 804.988 L 480.078 805.000 L 481.183 804.984 L 482.286 804.942 L 483.388 804.872 L 484.489 804.776 L 485.586 804.652 L 486.680 804.501 L 487.770 804.324 L 488.856 804.120 L 489.936 803.889 L 491.010 803.632 L 492.077 803.349 L 493.138 803.040 L 494.190 802.704 L 495.234 802.343 L 496.268 801.956 L 497.293 801.545 L 498.307 801.108 L 499.311 800.646 L 500.302 800.160 L 501.282 799.649 L 502.248 799.115 L 503.202 798.557 L 504.141 797.976 L 505.066 797.373 L 505.975 796.746 L 506.869 796.098 L 507.747 795.427 L 508.608 794.736 L 509.452 794.023 L 510.278 793.290 L 511.086 792.537 L 511.875 791.764 L 512.645 790.973 L 513.395 790.162 L 514.125 789.333 L 514.835 788.487 L 515.524 787.624 L 516.191 786.744 L 516.836 785.847 L 517.460 784.936 L 518.060 784.009 L 518.638 783.067 L 519.192 782.112 L 519.723 781.144 L 520.230 780.163 L 520.713 779.169 L 521.171 778.164 L 521.604 777.148 L 522.013 776.122 L 522.396 775.086 L 522.753 774.041 L 523.085 772.988 L 523.391 771.927 L 523.670 770.858 L 523.924 769.783 L 524.151 768.702 L 524.351 767.616 L 524.524 766.525 L 524.671 765.431 L 524.791 764.333 L 524.884 763.232 L 524.950 762.130 L 524.988 761.026 L 525.000 759.922 L 524.984 758.817 L 524.942 757.714 L 524.872 756.612 L 524.776 755.511 L 524.652 754.414 L 524.501 753.320 L 524.324 752.230 L 524.120 751.144 L 523.889 750.064 L 523.632 748.990 L 523.349 747.923 L 523.040 746.862 L 522.704 745.810 L 522.343 744.766 L 521.956 743.732 L 521.545 742.707 L 521.108 741.693 L 520.646 740.689 L 520.160 739.698 L 519.649 738.718 L 519.115 737.752 L 518.557 736.798 L 517.976 735.859 L 517.373 734.934 L 516.746 734.025 L 516.098 733.131 L 515.427 732.253 L 514.736 731.392 L 514.023 730.548 L 513.290 729.722 L 512.537 728.914 L 511.764 728.125 L 510.973 727.355 L 510.162 726.605 L 509.333 725.875 L 508.487 725.165 L 507.624 724.476 L 506.744 723.809 L 505.847 723.164 L 504.936 722.540 L 504.009 721.940 L 503.067 721.362 L 232.786 560.000 L 503.067 398.638 L 504.009 398.060 L 504.936 397.460 L 505.847 396.836 L 506.744 396.191 L 507.624 395.524 L 508.487 394.835 L 509.333 394.125 L 510.162 393.395 L 510.973 392.645 L 511.764 391.875 L 512.537 391.086 L 513.290 390.278 L 514.023 389.452 L 514.736 388.608 L 515.427 387.747 L 516.098 386.869 L 516.746 385.975 L 517.373 385.066 L 517.976 384.141 L 518.557 383.202 L 519.115 382.248 L 519.649 381.282 L 520.160 380.302 L 520.646 379.311 L 521.108 378.307 L 521.545 377.293 L 521.956 376.268 L 522.343 375.234 L 522.704 374.190 L 523.040 373.138 L 523.349 372.077 L 523.632 371.010 L 523.889 369.936 L 524.120 368.856 L 524.324 367.770 L 524.501 366.680 L 524.652 365.586 L 524.776 364.489 L 524.872 363.388 L 524.942 362.286 L 524.984 361.183 L 525.000 360.078 L 524.988 358.974 L 524.950 357.870 L 524.884 356.768 L 524.791 355.667 L 524.671 354.569 L 524.524 353.475 L 524.351 352.384 L 524.151 351.298 L 523.924 350.217 L 523.670 349.142 L 523.391 348.073 L 523.085 347.012 L 522.753 345.959 L 522.396 344.914 L 522.013 343.878 L 521.604 342.852 L 521.171 341.836 L 520.713 340.831 L 520.230 339.837 L 519.723 338.856 L 519.192 337.888 L 518.638 336.933 L 518.060 335.991 L 517.460 335.064 L 516.836 334.153 L 516.191 333.256 L 515.524 332.376 L 514.835 331.513 L 514.125 330.667 L 513.395 329.838 L 512.645 329.027 L 511.875 328.236 L 511.086 327.463 L 510.278 326.710 L 509.452 325.977 L 508.608 325.264 L 507.747 324.573 L 506.869 323.902 L 505.975 323.254 L 505.066 322.627 L 504.141 322.024 L 503.202 321.443 L 502.248 320.885 L 501.282 320.351 L 500.302 319.840 L 499.311 319.354 L 498.307 318.892 L 497.293 318.455 L 496.268 318.044 L 495.234 317.657 L 494.190 317.296 L 493.138 316.960 L 492.077 316.651 L 491.010 316.368 L 489.936 316.111 L 488.856 315.880 L 487.770 315.676 L 486.680 315.499 L 485.586 315.348 L 484.489 315.224 L 483.388 315.128 L 482.286 315.058 L 481.183 315.016 L 480.078 315.000 L 478.974 315.012 L 477.870 315.050 L 476.768 315.116 L 475.667 315.209 L 474.569 315.329 L 473.475 315.476 L 472.384 315.649 L 471.298 315.849 L 470.217 316.076 L 469.142 316.330 L 468.073 316.609 L 467.012 316.915 L 465.959 317.247 L 464.914 317.604 L 463.878 317.987 L 462.852 318.396 L 461.836 318.829 L 460.831 319.287 L 459.837 319.770 L 458.856 320.277 L 457.888 320.808 L 456.933 321.362 L 190.000 480.725 L 190.000 40.000 L 189.986 38.896 L 189.946 37.792 L 189.878 36.690 L 189.783 35.589 L 189.662 34.492 L 189.513 33.397 L 189.337 32.307 L 189.135 31.221 L 188.907 30.140 L 188.651 29.066 L 188.370 27.998 L 188.062 26.937 L 187.729 25.884 L 187.369 24.840 L 186.985 23.805 L 186.575 22.779 L 186.139 21.764 L 185.680 20.760 L 185.195 19.767 L 184.686 18.787 L 184.154 17.820 L 183.598 16.865 L 183.018 15.925 L 182.416 14.999 L 181.791 14.089 L 181.144 13.194 L 180.476 12.315 L 179.785 11.452 L 179.074 10.607 L 178.343 9.780 L 177.591 8.971 L 176.820 8.180 L 176.029 7.409 L 175.220 6.657 L 174.393 5.926 L 173.548 5.215 L 172.685 4.524 L 171.806 3.856 L 170.911 3.209 L 170.001 2.584 L 169.075 1.982 L 168.135 1.402 L 167.180 0.846 L 166.213 0.314 L 165.233 -0.195 L 164.240 -0.680 L 163.236 -1.139 L 162.221 -1.575 L 161.195 -1.985 L 160.160 -2.369 L 159.116 -2.729 L 158.063 -3.062 L 157.002 -3.370 L 155.934 -3.651 L 154.860 -3.907 L 153.779 -4.135 L 152.693 -4.337 L 151.603 -4.513 L 150.508 -4.662 L 149.411 -4.783 L 148.310 -4.878 L 147.208 -4.946 L 146.104 -4.986 L 145.000 -5.000 L 143.896 -4.986 L 142.792 -4.946 L 141.690 -4.878 L 140.589 -4.783 L 139.492 -4.662 L 138.397 -4.513 L 137.307 -4.337 L 136.221 -4.135 L 135.140 -3.907 L 134.066 -3.651 L 132.998 -3.370 L 131.937 -3.062 L 130.884 -2.729 L 129.840 -2.369 L 128.805 -1.985 L 127.779 -1.575 L 126.764 -1.139 L 125.760 -0.680 L 124.767 -0.195 L 123.787 0.314 L 122.820 0.846 L 121.865 1.402 L 120.925 1.982 L 119.999 2.584 L 119.089 3.209 L 118.194 3.856 L 117.315 4.524 L 116.452 5.215 L 115.607 5.926 L 114.780 6.657 L 113.971 7.409 L 113.180 8.180 L 112.409 8.971 L 111.657 9.780 L 110.926 10.607 L 110.215 11.452 L 109.524 12.315 L 108.856 13.194 L 108.209 14.089 L 107.584 14.999 L 106.982 15.925 L 106.402 16.865 L 105.846 17.820 L 105.314 18.787 L 104.805 19.767 L 104.320 20.760 L 103.861 21.764 L 103.425 22.779 L 103.015 23.805 L 102.631 24.840 L 102.271 25.884 L 101.938 26.937 L 101.630 27.998 L 101.349 29.066 L 101.093 30.140 L 100.865 31.221 L 100.663 32.307 L 100.487 33.397 L 100.338 34.492 L 100.217 35.589 L 100.122 36.690 L 100.054 37.792 L 100.014 38.896 L 100.000 40.000 L 100.000 780.000 L 100.014 781.104 Z" fill="black" fill-rule="evenodd"/>
</svg>
