<svg xmlns="http://www.w3.org/2000/svg" viewBox="0 0 600.000 1000">
  <path d="M 461.224 781.472 L 461.296 782.943 L 461.417 784.411 L 461.585 785.874 L 461.801 787.330 L 462.065 788.779 L 462.376 790.218 L 462.733 791.647 L 463.138 793.063 L 463.588 794.465 L 464.084 795.851 L 464.625 797.221 L 465.211 798.572 L 465.841 799.903 L 466.514 801.213 L 467.229 802.500 L 467.986 803.763 L 468.784 805.001 L 469.622 806.211 L 470.499 807.394 L 471.415 808.548 L 472.367 809.671 L 473.356 810.762 L 474.380 811.820 L 475.438 812.844 L 476.529 813.833 L 477.652 814.785 L 478.806 815.701 L 479.989 816.578 L 481.199 817.416 L 482.437 818.214 L 483.700 818.971 L 484.987 819.686 L 486.297 820.359 L 487.628 820.989 L 488.979 821.575 L 490.349 822.116 L 491.735 822.612 L 493.137 823.062 L 494.553 823.467 L 495.982 823.824 L 497.421 824.135 L 498.870 824.399 L 500.326 824.615 L 501.789 824.783 L 503.257 824.904 L 504.728 824.976 L 506.200 825.000 L 507.672 824.976 L 509.143 824.904 L 510.611 824.783 L 512.074 824.615 L 513.530 824.399 L 514.979 824.135 L 516.418 823.824 L 517.847 823.467 L 519.263 823.062 L 520.665 822.612 L 522.051 822.116 L 523.421 821.575 L 524.772 820.989 L 526.103 820.359 L 527.413 819.686 L 528.700 818.971 L 529.963 818.214 L 531.201 817.416 L 532.411 816.578 L 533.594 815.701 L 534.748 814.785 L 535.871 813.833 L 536.962 812.844 L 538.020 811.820 L 539.044 810.762 L 540.033 809.671 L 540.985 808.548 L 541.901 807.394 L 542.778 806.211 L 543.616 805.001 L 544.414 803.763 L 545.171 802.500 L 545.886 801.213 L 546.559 799.903 L 547.189 798.572 L 547.775 797.221 L 548.316 795.851 L 548.812 794.465 L 549.262 793.063 L 549.667 791.647 L 550.024 790.218 L 550.335 788.779 L 550.599 787.330 L 550.815 785.874 L 550.983 784.411 L 551.104 782.943 L 551.176 781.472 L 551.200 780.000 L 551.200 629.845 L 552.316 626.721 L 552.755 625.432 L 555.345 617.421 L 555.743 616.124 L 558.096 608.024 L 558.453 606.720 L 560.565 598.539 L 560.882 597.230 L 562.750 588.976 L 563.027 587.662 L 564.651 579.345 L 564.888 578.026 L 566.265 569.655 L 566.462 568.333 L 567.590 559.917 L 567.748 558.591 L 568.627 550.138 L 568.745 548.810 L 569.374 540.331 L 569.453 539.001 L 569.830 530.503 L 569.869 529.172 L 569.995 520.665 L 569.995 519.335 L 569.869 510.828 L 569.830 509.497 L 569.453 500.999 L 569.374 499.669 L 568.745 491.190 L 568.627 489.862 L 567.748 481.409 L 567.590 480.083 L 566.462 471.667 L 566.265 470.345 L 564.888 461.974 L 564.651 460.655 L 563.027 452.338 L 562.750 451.024 L 560.882 442.770 L 560.565 441.461 L 558.453 433.280 L 558.096 431.976 L 555.743 423.876 L 555.345 422.579 L 552.755 414.568 L 552.316 413.279 L 551.200 410.155 L 551.200 180.000 L 551.176 178.528 L 551.104 177.057 L 550.983 175.589 L 550.815 174.126 L 550.599 172.670 L 550.335 171.221 L 550.024 169.782 L 549.667 168.353 L 549.262 166.937 L 548.812 165.535 L 548.316 164.149 L 547.775 162.779 L 547.189 161.428 L 546.559 160.097 L 545.886 158.787 L 545.171 157.500 L 544.414 156.237 L 543.616 154.999 L 542.778 153.789 L 541.901 152.606 L 540.985 151.452 L 540.033 150.329 L 539.044 149.238 L 538.020 148.180 L 536.962 147.156 L 535.871 146.167 L 534.748 145.215 L 533.594 144.299 L 532.411 143.422 L 531.201 142.584 L 529.963 141.786 L 528.700 141.029 L 527.413 140.314 L 526.103 139.641 L 524.772 139.011 L 523.421 138.425 L 522.051 137.884 L 520.665 137.388 L 519.263 136.938 L 517.847 136.533 L 516.418 136.176 L 514.979 135.865 L 513.530 135.601 L 512.074 135.385 L 510.611 135.217 L 509.143 135.096 L 507.672 135.024 L 506.200 135.000 L 504.728 135.024 L 503.257 135.096 L 501.789 135.217 L 500.326 135.385 L 498.870 135.601 L 497.421 135.865 L 495.982 136.176 L 494.553 136.533 L 493.137 136.938 L 491.735 137.388 L 490.349 137.884 L 488.979 138.425 L 487.628 139.011 L 486.297 139.641 L 484.987 140.314 L 483.700 141.029 L 482.437 141.786 L 481.199 142.584 L 479.989 143.422 L 478.806 144.299 L 477.652 145.215 L 476.529 146.167 L 475.438 147.156 L 474.380 148.180 L 473.356 149.238 L 472.367 150.329 L 471.415 151.452 L 470.499 152.606 L 469.622 153.789 L 468.784 154.999 L 467.986 156.237 L 467.229 157.500 L 466.514 158.787 L 465.841 160.097 L 465.211 161.428 L 464.625 162.779 L 464.084 164.149 L 463.588 165.535 L 463.138 166.937 L 462.733 168.353 L 462.376 169.782 L 462.065 171.221 L 461.801 172.670 L 461.585 174.126 L 461.417 175.589 L 461.296 177.057 L 461.224 178.528 L 461.200 180.000 L 461.200 278.609 L 455.427 273.872 L 454.241 272.932 L 447.918 268.090 L 446.692 267.184 L 440.229 262.573 L 438.966 261.704 L 432.370 257.330 L 431.070 256.500 L 424.348 252.367 L 423.012 251.577 L 416.172 247.690 L 414.802 246.942 L 407.850 243.304 L 406.447 242.601 L 399.391 239.217 L 397.957 238.560 L 390.806 235.433 L 389.342 234.824 L 382.102 231.957 L 380.611 231.398 L 373.290 228.795 L 371.774 228.286 L 364.379 225.950 L 362.841 225.494 L 355.381 223.426 L 353.821 223.024 L 346.305 221.228 L 344.727 220.881 L 337.161 219.358 L 335.568 219.067 L 327.961 217.818 L 326.355 217.584 L 318.716 216.612 L 317.100 216.436 L 309.435 215.741 L 307.812 215.623 L 300.131 215.206 L 298.504 215.147 L 290.815 215.007 L 289.185 215.007 L 281.496 215.147 L 279.869 215.206 L 272.188 215.623 L 270.565 215.741 L 262.900 216.436 L 261.284 216.612 L 253.645 217.584 L 252.039 217.818 L 244.432 219.067 L 242.839 219.358 L 235.273 220.881 L 233.695 221.228 L 226.179 223.024 L 224.619 223.426 L 217.159 225.494 L 215.621 225.950 L 208.226 228.286 L 206.710 228.795 L 199.389 231.398 L 197.898 231.957 L 190.658 234.824 L 189.194 235.433 L 182.043 238.560 L 180.609 239.217 L 173.553 242.601 L 172.150 243.304 L 165.198 246.942 L 163.828 247.690 L 156.988 251.577 L 155.652 252.367 L 148.930 256.500 L 147.630 257.330 L 141.034 261.704 L 139.771 262.573 L 133.308 267.184 L 132.082 268.090 L 125.759 272.932 L 124.573 273.872 L 118.396 278.940 L 117.249 279.914 L 111.226 285.203 L 110.119 286.208 L 104.256 291.712 L 103.190 292.746 L 97.492 298.460 L 96.468 299.521 L 90.942 305.438 L 89.960 306.524 L 84.612 312.638 L 83.671 313.749 L 78.507 320.053 L 77.609 321.186 L 72.634 327.674 L 71.777 328.828 L 66.997 335.492 L 66.183 336.666 L 61.602 343.499 L 60.831 344.690 L 56.454 351.686 L 55.725 352.894 L 51.558 360.045 L 50.871 361.267 L 46.917 368.565 L 46.272 369.801 L 42.536 377.238 L 41.933 378.488 L 38.419 386.056 L 37.857 387.316 L 34.569 395.008 L 34.049 396.279 L 30.990 404.085 L 30.510 405.366 L 27.684 413.279 L 27.245 414.568 L 24.655 422.579 L 24.257 423.876 L 21.904 431.976 L 21.547 433.280 L 19.435 441.461 L 19.118 442.770 L 17.250 451.024 L 16.973 452.338 L 15.349 460.655 L 15.112 461.974 L 13.735 470.345 L 13.538 471.667 L 12.410 480.083 L 12.252 481.409 L 11.373 489.862 L 11.255 491.190 L 10.626 499.669 L 10.547 500.999 L 10.170 509.497 L 10.131 510.828 L 10.005 519.335 L 10.005 520.665 L 10.131 529.172 L 10.170 530.503 L 10.547 539.001 L 10.626 540.331 L 11.255 548.810 L 11.373 550.138 L 12.252 558.591 L 12.410 559.917 L 13.538 568.333 L 13.735 569.655 L 15.112 578.026 L 15.349 579.345 L 16.973 587.662 L 17.250 588.976 L 19.118 597.230 L 19.435 598.539 L 21.547 606.720 L 21.904 608.024 L 24.257 616.124 L 24.655 617.421 L 27.245 625.432 L 27.684 626.721 L 30.510 634.634 L 30.990 635.915 L 34.049 643.721 L 34.569 644.992 L 37.857 652.684 L 38.419 653.944 L 41.933 661.512 L 42.536 662.762 L 46.272 670.199 L 46.917 671.435 L 50.871 678.733 L 51.558 679.955 L 55.725 687.106 L 56.454 688.314 L 60.831 695.310 L 61.602 696.501 L 66.183 703.334 L 66.997 704.508 L 71.777 711.172 L 72.634 712.326 L 77.609 718.814 L 78.507 719.947 L 83.671 726.251 L 84.612 727.362 L 89.960 733.476 L 90.942 734.562 L 96.468 740.479 L 97.492 741.540 L 103.190 747.254 L 104.256 748.288 L 110.119 753.792 L 111.226 754.797 L 117.249 760.086 L 118.396 761.060 L 124.573 766.128 L 125.759 767.068 L 132.082 771.910 L 133.308 772.816 L 139.771 777.427 L 141.034 778.296 L 147.630 782.670 L 148.930 783.500 L 155.652 787.633 L 156.988 788.423 L 163.828 792.310 L 165.198 793.058 L 172.150 796.696 L 173.553 797.399 L 180.609 800.783 L 182.043 801.440 L 189.194 804.567 L 190.658 805.176 L 197.898 808.043 L 199.389 808.602 L 206.710 811.205 L 208.226 811.714 L 215.621 814.050 L 217.159 814.506 L 224.619 816.574 L 226.179 816.976 L 233.695 818.772 L 235.273 819.119 L 242.839 820.642 L 244.432 820.933 L 252.039 822.182 L 253.645 822.416 L 261.284 823.388 L 262.900 823.564 L 270.565 824.259 L 272.188 824.377 L 279.869 824.794 L 281.496 824.853 L 289.185 824.993 L 290.815 824.993 L 298.504 824.853 L 300.131 824.794 L 307.812 824.377 L 309.435 824.259 L 317.100 823.564 L 318.716 823.388 L 326.355 822.416 L 327.961 822.182 L 335.568 820.933 L 337.161 820.642 L 344.727 819.119 L 346.305 818.772 L 353.821 816.976 L 355.381 816.574 L 362.841 814.506 L 364.379 814.050 L 371.774 811.714 L 373.290 811.205 L 380.611 808.602 L 382.102 808.043 L 389.342 805.176 L 390.806 804.567 L 397.957 801.440 L 399.391 800.783 L 406.447 797.399 L 407.850 796.696 L 414.802 793.058 L 416.172 792.310 L 423.012 788.423 L 424.348 787.633 L 431.070 783.500 L 432.370 782.670 L 438.966 778.296 L 440.229 777.427 L 446.692 772.816 L 447.918 771.910 L 454.241 767.068 L 455.427 766.128 L 461.200 761.391 L 461.200 780.000 L 461.224 781.472 Z M 461.200 475.000 L 250.000 475.000 L 248.528 475.024 L 247.057 475.096 L 245.589 475.217 L 244.126 475.385 L 242.670 475.601 L 241.221 475.865 L 239.782 476.176 L 238.353 476.533 L 236.937 476.938 L 235.535 477.388 L 234.149 477.884 L 232.779 478.425 L 231.428 479.011 L 230.097 479.641 L 228.787 480.314 L 227.500 481.029 L 226.237 481.786 L 224.999 482.584 L 223.789 483.422 L 222.606 484.299 L 221.452 485.215 L 220.329 486.167 L 219.238 487.156 L 218.180 488.180 L 217.156 489.238 L 216.167 490.329 L 215.215 491.452 L 214.299 492.606 L 213.422 493.789 L 212.584 494.999 L 211.786 496.237 L 211.029 497.500 L 210.314 498.787 L 209.641 500.097 L 209.011 501.428 L 208.425 502.779 L 207.884 504.149 L 207.388 505.535 L 206.938 506.937 L 206.533 508.353 L 206.176 509.782 L 205.865 511.221 L 205.601 512.670 L 205.385 514.126 L 205.217 515.589 L 205.096 517.057 L 205.024 518.528 L 205.000 520.000 L 205.024 521.472 L 205.096 522.943 L 205.217 524.411 L 205.385 525.874 L 205.601 527.330 L 205.865 528.779 L 206.176 530.218 L 206.533 531.647 L 206.938 533.063 L 207.388 534.465 L 207.884 535.851 L 208.425 537.221 L 209.011 538.572 L 209.641 539.903 L 210.314 541.213 L 211.029 542.500 L 211.786 543.763 L 212.584 545.001 L 213.422 546.211 L 214.299 547.394 L 215.215 548.548 L 216.167 549.671 L 217.156 550.762 L 218.180 551.820 L 219.238 552.844 L 220.329 553.833 L 221.452 554.785 L 222.606 555.701 L 223.789 556.578 L 224.999 557.416 L 226.237 558.214 L 227.500 558.971 L 228.787 559.686 L 230.097 560.359 L 231.428 560.989 L 232.779 561.575 L 234.149 562.116 L 235.535 562.612 L 236.937 563.062 L 238.353 563.467 L 239.782 563.824 L 241.221 564.135 L 242.670 564.399 L 244.126 564.615 L 245.589 564.783 L 247.057 564.904 L 248.528 564.976 L 250.000 565.000 L 461.200 565.000 L 461.200 613.066 L 459.659 616.672 L 456.728 622.985 L 453.617 629.178 L 450.330 635.246 L 446.871 641.181 L 443.245 646.977 L 439.457 652.628 L 435.511 658.129 L 431.413 663.472 L 427.169 668.654 L 422.782 673.669 L 418.260 678.511 L 413.607 683.177 L 408.829 687.662 L 403.932 691.961 L 398.923 696.072 L 393.805 699.991 L 388.587 703.713 L 383.273 707.237 L 377.870 710.559 L 372.383 713.678 L 366.818 716.590 L 361.181 719.293 L 355.478 721.787 L 349.715 724.068 L 343.897 726.136 L 338.031 727.990 L 332.121 729.627 L 326.173 731.049 L 320.193 732.252 L 314.187 733.238 L 308.159 734.006 L 302.115 734.554 L 296.060 734.883 L 290.000 734.993 L 283.940 734.883 L 277.885 734.554 L 271.841 734.006 L 265.813 733.238 L 259.807 732.252 L 253.827 731.049 L 247.879 729.627 L 241.969 727.990 L 236.103 726.136 L 230.285 724.068 L 224.522 721.787 L 218.819 719.293 L 213.182 716.590 L 207.617 713.678 L 202.130 710.559 L 196.727 707.237 L 191.413 703.713 L 186.195 699.991 L 181.077 696.072 L 176.068 691.961 L 171.171 687.662 L 166.393 683.177 L 161.740 678.511 L 157.218 673.669 L 152.831 668.654 L 148.587 663.472 L 144.489 658.129 L 140.543 652.628 L 136.755 646.977 L 133.129 641.181 L 129.670 635.246 L 126.383 629.178 L 123.272 622.985 L 120.341 616.672 L 117.595 610.247 L 115.036 603.717 L 112.669 597.090 L 110.497 590.373 L 108.522 583.573 L 106.748 576.699 L 105.177 569.759 L 103.810 562.760 L 102.651 555.710 L 101.700 548.619 L 100.959 541.494 L 100.429 534.343 L 100.111 527.176 L 100.005 520.000 L 100.111 512.824 L 100.429 505.657 L 100.959 498.506 L 101.700 491.381 L 102.651 484.290 L 103.810 477.240 L 105.177 470.241 L 106.748 463.301 L 108.522 456.427 L 110.497 449.627 L 112.669 442.910 L 115.036 436.283 L 117.595 429.753 L 120.341 423.328 L 123.272 417.015 L 126.383 410.822 L 129.670 404.754 L 133.129 398.819 L 136.755 393.023 L 140.543 387.372 L 144.489 381.871 L 148.587 376.528 L 152.831 371.346 L 157.218 366.331 L 161.740 361.489 L 166.393 356.823 L 171.171 352.338 L 176.068 348.039 L 181.077 343.928 L 186.195 340.009 L 191.413 336.287 L 196.727 332.763 L 202.130 329.441 L 207.617 326.322 L 213.182 323.410 L 218.819 320.707 L 224.522 318.213 L 230.285 315.932 L 236.103 313.864 L 241.969 312.010 L 247.879 310.373 L 253.827 308.951 L 259.807 307.748 L 265.813 306.762 L 271.841 305.994 L 277.885 305.446 L 283.940 305.117 L 290.000 305.007 L 296.060 305.117 L 302.115 305.446 L 308.159 305.994 L 314.187 306.762 L 320.193 307.748 L 326.173 308.951 L 332.121 310.373 L 338.031 312.010 L 343.897 313.864 L 349.715 315.932 L 355.478 318.213 L 361.181 320.707 L 366.818 323.410 L 372.383 326.322 L 377.870 329.441 L 383.273 332.763 L 388.587 336.287 L 393.805 340.009 L 398.923 343.928 L 403.932 348.039 L 408.829 352.338 L 413.607 356.823 L 418.260 361.489 L 422.782 366.331 L 427.169 371.346 L 431.413 376.528 L 435.511 381.871 L 439.457 387.372 L 443.245 393.023 L 446.871 398.819 L 450.330 404.754 L 453.617 410.822 L 456.728 417.015 L 459.659 423.328 L 461.200 426.934 L 461.200 475.000 Z" fill="black" fill-rule="evenodd"/>
</svg>
