<svg xmlns="http://www.w3.org/2000/svg" viewBox="0 0 600.000 1000">
  <path d="M 319.240 1010.680 L 320.233 1010.195 L 321.213 1009.686 L 322.180 1009.154 L 323.135 1008.598 L 324.075 1008.018 L 325.001 1007.416 L 325.911 1006.791 L 326.806 1006.144 L 327.685 1005.476 L 328.548 1004.785 L 329.393 1004.074 L 330.220 1003.343 L 331.029 1002.591 L 331.820 1001.820 L 332.591 1001.029 L 333.343 1000.220 L 334.074 999.393 L 334.785 998.548 L 335.476 997.685 L 336.144 996.806 L 336.791 995.911 L 337.416 995.001 L 338.018 994.075 L 338.598 993.135 L 339.154 992.180 L 339.686 991.213 L 340.195 990.233 L 340.680 989.240 L 341.139 988.236 L 341.575 987.221 L 341.985 986.195 L 342.369 985.160 L 342.729 984.116 L 343.062 983.063 L 343.370 982.002 L 343.651 980.934 L 343.907 979.860 L 344.135 978.779 L 344.337 977.693 L 344.513 976.603 L 344.662 975.508 L 344.783 974.411 L 344.878 973.310 L 344.946 972.208 L 344.986 971.104 L 345.000 970.000 L 345.000 260.000 L 344.986 258.896 L 344.946 257.792 L 344.878 256.690 L 344.783 255.589 L 344.662 254.492 L 344.513 253.397 L 344.337 252.307 L 344.135 251.221 L 343.907 250.140 L 343.651 249.066 L 343.370 247.998 L 343.062 246.937 L 342.729 245.884 L 342.369 244.840 L 341.985 243.805 L 341.575 242.779 L 341.139 241.764 L 340.680 240.760 L 340.195 239.767 L 339.686 238.787 L 339.154 237.820 L 338.598 236.865 L 338.018 235.925 L 337.416 234.999 L 336.791 234.089 L 336.144 233.194 L 335.476 232.315 L 334.785 231.452 L 334.074 230.607 L 333.343 229.780 L 332.591 228.971 L 331.820 228.180 L 331.029 227.409 L 330.220 226.657 L 329.393 225.926 L 328.548 225.215 L 327.685 224.524 L 326.806 223.856 L 325.911 223.209 L 325.001 222.584 L 324.075 221.982 L 323.135 221.402 L 322.180 220.846 L 321.213 220.314 L 320.233 219.805 L 319.240 219.320 L 318.236 218.861 L 317.221 218.425 L 316.195 218.015 L 315.160 217.631 L 314.116 217.271 L 313.063 216.938 L 312.002 216.630 L 310.934 216.349 L 309.860 216.093 L 308.779 215.865 L 307.693 215.663 L 306.603 215.487 L 305.508 215.338 L 304.411 215.217 L 303.310 215.122 L 302.208 215.054 L 301.104 215.014 L 300.000 215.000 L 298.896 215.014 L 297.792 215.054 L 296.690 215.122 L 295.589 215.217 L 294.492 215.338 L 293.397 215.487 L 292.307 215.663 L 291.221 215.865 L 290.140 216.093 L 289.066 216.349 L 287.998 216.630 L 286.937 216.938 L 285.884 217.271 L 284.840 217.631 L 283.805 218.015 L 282.779 218.425 L 281.764 218.861 L 280.760 219.320 L 279.767 219.805 L 278.787 220.314 L 277.820 220.846 L 276.865 221.402 L 275.925 221.982 L 274.999 222.584 L 274.089 223.209 L 273.194 223.856 L 272.315 224.524 L 271.452 225.215 L 270.607 225.926 L 269.780 226.657 L 268.971 227.409 L 268.180 228.180 L 267.409 228.971 L 266.657 229.780 L 265.926 230.607 L 265.215 231.452 L 264.524 232.315 L 263.856 233.194 L 263.209 234.089 L 262.584 234.999 L 261.982 235.925 L 261.402 236.865 L 260.846 237.820 L 260.314 238.787 L 259.805 239.767 L 259.320 240.760 L 258.861 241.764 L 258.425 242.779 L 258.015 243.805 L 257.631 244.840 L 257.271 245.884 L 256.938 246.937 L 256.630 247.998 L 256.349 249.066 L 256.093 250.140 L 255.865 251.221 L 255.663 252.307 L 255.487 253.397 L 255.338 254.492 L 255.217 255.589 L 255.122 256.690 L 255.054 257.792 L 255.014 258.896 L 255.000 260.000 L 255.000 919.603 L 254.946 922.647 L 254.806 925.290 L 254.573 927.927 L 254.247 930.554 L 253.828 933.167 L 253.317 935.764 L 252.715 938.342 L 252.023 940.897 L 251.240 943.426 L 250.369 945.925 L 249.410 948.393 L 248.365 950.824 L 247.235 953.218 L 246.021 955.570 L 244.724 957.878 L 243.347 960.139 L 241.891 962.349 L 240.358 964.507 L 238.750 966.609 L 237.068 968.654 L 235.315 970.637 L 233.494 972.558 L 231.606 974.413 L 229.653 976.201 L 227.639 977.918 L 225.565 979.563 L 223.435 981.134 L 221.250 982.629 L 219.014 984.046 L 216.730 985.383 L 214.399 986.638 L 212.026 987.811 L 209.613 988.899 L 207.163 989.901 L 204.679 990.816 L 202.165 991.643 L 199.623 992.380 L 197.056 993.028 L 194.468 993.584 L 191.862 994.049 L 189.242 994.421 L 186.609 994.701 L 183.969 994.888 L 181.324 994.981 L 178.676 994.981 L 176.031 994.888 L 173.391 994.701 L 170.758 994.421 L 168.138 994.049 L 165.532 993.584 L 162.944 993.028 L 160.377 992.380 L 157.835 991.643 L 155.321 990.816 L 152.837 989.901 L 150.387 988.899 L 147.974 987.811 L 145.601 986.638 L 143.270 985.383 L 140.986 984.046 L 138.750 982.629 L 136.565 981.134 L 134.435 979.563 L 132.361 977.918 L 130.347 976.201 L 128.394 974.413 L 126.506 972.558 L 124.685 970.637 L 122.932 968.654 L 121.250 966.609 L 119.642 964.507 L 118.109 962.349 L 116.653 960.139 L 115.276 957.878 L 113.979 955.570 L 112.765 953.218 L 111.635 950.824 L 110.590 948.393 L 109.631 945.925 L 108.760 943.426 L 107.977 940.897 L 107.285 938.342 L 106.683 935.764 L 106.172 933.167 L 105.753 930.554 L 105.427 927.927 L 105.194 925.290 L 105.054 922.647 L 104.993 919.206 L 104.960 918.102 L 104.900 916.999 L 104.813 915.898 L 104.698 914.800 L 104.557 913.704 L 104.389 912.613 L 104.195 911.525 L 103.974 910.443 L 103.726 909.367 L 103.452 908.297 L 103.151 907.234 L 102.825 906.179 L 102.473 905.132 L 102.095 904.095 L 101.692 903.066 L 101.264 902.048 L 100.811 901.041 L 100.334 900.045 L 99.832 899.061 L 99.306 898.090 L 98.756 897.132 L 98.183 896.188 L 97.588 895.258 L 96.969 894.343 L 96.328 893.443 L 95.666 892.560 L 94.981 891.693 L 94.276 890.843 L 93.550 890.010 L 92.804 889.196 L 92.038 888.400 L 91.253 887.624 L 90.449 886.866 L 89.627 886.129 L 88.787 885.412 L 87.929 884.716 L 87.055 884.041 L 86.164 883.388 L 85.258 882.757 L 84.336 882.148 L 83.400 881.563 L 82.450 881.000 L 81.486 880.461 L 80.509 879.945 L 79.520 879.454 L 78.519 878.987 L 77.507 878.545 L 76.484 878.128 L 75.452 877.736 L 74.410 877.370 L 73.359 877.029 L 72.301 876.714 L 71.235 876.425 L 70.162 876.162 L 69.083 875.926 L 67.999 875.717 L 66.910 875.534 L 65.816 875.377 L 64.719 875.248 L 63.620 875.146 L 62.518 875.070 L 61.414 875.022 L 60.310 875.001 L 59.206 875.007 L 58.102 875.040 L 56.999 875.100 L 55.898 875.187 L 54.800 875.302 L 53.704 875.443 L 52.613 875.611 L 51.525 875.805 L 50.443 876.026 L 49.367 876.274 L 48.297 876.548 L 47.234 876.849 L 46.179 877.175 L 45.132 877.527 L 44.095 877.905 L 43.066 878.308 L 42.048 878.736 L 41.041 879.189 L 40.045 879.666 L 39.061 880.168 L 38.090 880.694 L 37.132 881.244 L 36.188 881.817 L 35.258 882.412 L 34.343 883.031 L 33.443 883.672 L 32.560 884.334 L 31.693 885.019 L 30.843 885.724 L 30.010 886.450 L 29.196 887.196 L 28.400 887.962 L 27.624 888.747 L 26.866 889.551 L 26.129 890.373 L 25.412 891.213 L 24.716 892.071 L 24.041 892.945 L 23.388 893.836 L 22.757 894.742 L 22.148 895.664 L 21.563 896.600 L 21.000 897.550 L 20.461 898.514 L 19.945 899.491 L 19.454 900.480 L 18.987 901.481 L 18.545 902.493 L 18.128 903.516 L 17.736 904.548 L 17.370 905.590 L 17.029 906.641 L 16.714 907.699 L 16.425 908.765 L 16.162 909.838 L 15.926 910.917 L 15.717 912.001 L 15.534 913.090 L 15.377 914.184 L 15.248 915.281 L 15.146 916.380 L 15.070 917.482 L 15.022 918.586 L 15.001 919.690 L 15.007 920.794 L 15.082 925.029 L 15.138 926.617 L 15.362 930.846 L 15.474 932.431 L 15.847 936.650 L 16.015 938.229 L 16.537 942.433 L 16.761 944.005 L 17.431 948.187 L 17.710 949.751 L 18.527 953.907 L 18.861 955.460 L 19.824 959.585 L 20.212 961.125 L 21.321 965.213 L 21.763 966.738 L 23.015 970.785 L 23.511 972.294 L 24.905 976.293 L 25.454 977.784 L 26.989 981.732 L 27.590 983.202 L 29.262 987.093 L 29.915 988.541 L 31.724 992.371 L 32.428 993.795 L 34.371 997.559 L 35.124 998.957 L 37.199 1002.650 L 38.001 1004.021 L 40.204 1007.638 L 41.055 1008.980 L 43.384 1012.517 L 44.281 1013.828 L 46.735 1017.281 L 47.677 1018.560 L 50.251 1021.924 L 51.238 1023.168 L 53.929 1026.439 L 54.959 1027.648 L 57.764 1030.822 L 58.836 1031.994 L 61.751 1035.067 L 62.864 1036.200 L 65.885 1039.169 L 67.038 1040.262 L 70.162 1043.122 L 71.352 1044.173 L 74.576 1046.921 L 75.802 1047.930 L 79.120 1050.563 L 80.382 1051.528 L 83.791 1054.042 L 85.086 1054.962 L 88.582 1057.353 L 89.908 1058.227 L 93.486 1060.494 L 94.842 1061.321 L 98.498 1063.460 L 99.883 1064.238 L 103.612 1066.247 L 105.023 1066.975 L 108.821 1068.852 L 110.257 1069.530 L 114.118 1071.271 L 115.577 1071.898 L 119.498 1073.502 L 120.978 1074.077 L 124.953 1075.541 L 126.453 1076.064 L 130.476 1077.387 L 131.994 1077.857 L 136.062 1079.037 L 137.595 1079.452 L 141.702 1080.488 L 143.248 1080.850 L 147.389 1081.740 L 148.948 1082.047 L 153.118 1082.790 L 154.686 1083.041 L 158.880 1083.638 L 160.456 1083.833 L 164.668 1084.281 L 166.250 1084.421 L 170.475 1084.720 L 172.061 1084.804 L 176.294 1084.953 L 177.882 1084.981 L 182.118 1084.981 L 183.706 1084.953 L 187.939 1084.804 L 189.525 1084.720 L 193.750 1084.421 L 195.332 1084.281 L 199.544 1083.833 L 201.120 1083.638 L 205.314 1083.041 L 206.882 1082.790 L 211.052 1082.047 L 212.611 1081.740 L 216.752 1080.850 L 218.298 1080.488 L 222.405 1079.452 L 223.938 1079.037 L 228.006 1077.857 L 229.524 1077.387 L 233.547 1076.064 L 235.047 1075.541 L 239.022 1074.077 L 240.502 1073.502 L 244.423 1071.898 L 245.882 1071.271 L 249.743 1069.530 L 251.179 1068.852 L 254.977 1066.975 L 256.388 1066.247 L 260.117 1064.238 L 261.502 1063.460 L 265.158 1061.321 L 266.514 1060.494 L 270.092 1058.227 L 271.418 1057.353 L 274.914 1054.962 L 276.209 1054.042 L 279.618 1051.528 L 280.880 1050.563 L 284.198 1047.930 L 285.424 1046.921 L 288.648 1044.173 L 289.838 1043.122 L 292.962 1040.262 L 294.115 1039.169 L 297.136 1036.200 L 298.249 1035.067 L 301.164 1031.994 L 302.236 1030.822 L 305.041 1027.648 L 306.071 1026.439 L 308.762 1023.168 L 309.749 1021.924 L 312.323 1018.560 L 313.265 1017.281 L 315.719 1013.828 L 316.616 1012.517 L 317.243 1011.565 L 318.236 1011.139 L 319.240 1010.680 Z M 312.596 179.691 L 312.585 179.382 L 312.566 179.073 L 312.539 178.765 L 312.505 178.458 L 312.464 178.151 L 312.414 177.846 L 312.358 177.542 L 312.294 177.239 L 312.222 176.938 L 312.144 176.639 L 312.057 176.342 L 311.964 176.048 L 311.863 175.755 L 311.756 175.465 L 311.641 175.178 L 311.519 174.894 L 311.390 174.613 L 311.255 174.335 L 311.112 174.060 L 310.963 173.789 L 310.807 173.522 L 310.645 173.259 L 310.477 173.000 L 310.302 172.745 L 310.120 172.494 L 309.933 172.248 L 309.740 172.007 L 309.541 171.770 L 309.336 171.538 L 309.126 171.312 L 308.910 171.090 L 308.688 170.874 L 308.462 170.664 L 308.230 170.459 L 307.993 170.260 L 307.752 170.067 L 307.506 169.880 L 307.255 169.698 L 307.000 169.523 L 306.741 169.355 L 306.478 169.193 L 306.211 169.037 L 305.940 168.888 L 305.665 168.745 L 305.387 168.610 L 305.106 168.481 L 304.822 168.359 L 304.535 168.244 L 304.245 168.137 L 303.952 168.036 L 303.658 167.943 L 303.361 167.856 L 303.062 167.778 L 302.761 167.706 L 302.458 167.642 L 302.154 167.586 L 301.849 167.536 L 301.542 167.495 L 301.235 167.461 L 300.927 167.434 L 300.618 167.415 L 300.309 167.404 L 300.000 167.400 L 299.691 167.404 L 299.382 167.415 L 299.073 167.434 L 298.765 167.461 L 298.458 167.495 L 298.151 167.536 L 297.846 167.586 L 297.542 167.642 L 297.239 167.706 L 296.938 167.778 L 296.639 167.856 L 296.342 167.943 L 296.048 168.036 L 295.755 168.137 L 295.465 168.244 L 295.178 168.359 L 294.894 168.481 L 294.613 168.610 L 294.335 168.745 L 294.060 168.888 L 293.789 169.037 L 293.522 169.193 L 293.259 169.355 L 293.000 169.523 L 292.745 169.698 L 292.494 169.880 L 292.248 170.067 L 292.007 170.260 L 291.770 170.459 L 291.538 170.664 L 291.312 170.874 L 291.090 171.090 L 290.874 171.312 L 290.664 171.538 L 290.459 171.770 L 290.260 172.007 L 290.067 172.248 L 289.880 172.494 L 289.698 172.745 L 289.523 173.000 L 289.355 173.259 L 289.193 173.522 L 289.037 173.789 L 288.888 174.060 L 288.745 174.335 L 288.610 174.613 L 288.481 174.894 L 288.359 175.178 L 288.244 175.465 L 288.137 175.755 L 288.036 176.048 L 287.943 176.342 L 287.856 176.639 L 287.778 176.938 L 287.706 177.239 L 287.642 177.542 L 287.586 177.846 L 287.536 178.151 L 287.495 178.458 L 287.461 178.765 L 287.434 179.073 L 287.415 179.382 L 287.404 179.691 L 287.400 180.000 L 287.404 180.309 L 287.415 180.618 L 287.434 180.927 L 287.461 181.235 L 287.495 181.542 L 287.536 181.849 L 287.586 182.154 L 287.642 182.458 L 287.706 182.761 L 287.778 183.062 L 287.856 183.361 L 287.943 183.658 L 288.036 183.952 L 288.137 184.245 L 288.244 184.535 L 288.359 184.822 L 288.481 185.106 L 288.610 185.387 L 288.745 185.665 L 288.888 185.940 L 289.037 186.211 L 289.193 186.478 L 289.355 186.741 L 289.523 187.000 L 289.698 187.255 L 289.880 187.506 L 290.067 187.752 L 290.260 187.993 L 290.459 188.230 L 290.664 188.462 L 290.874 188.688 L 291.090 188.910 L 291.312 189.126 L 291.538 189.336 L 291.770 189.541 L 292.007 189.740 L 292.248 189.933 L 292.494 190.120 L 292.745 190.302 L 293.000 190.477 L 293.259 190.645 L 293.522 190.807 L 293.789 190.963 L 294.060 191.112 L 294.335 191.255 L 294.613 191.390 L 294.894 191.519 L 295.178 191.641 L 295.465 191.756 L 295.755 191.863 L 296.048 191.964 L 296.342 192.057 L 296.639 192.144 L 296.938 192.222 L 297.239 192.294 L 297.542 192.358 L 297.846 192.414 L 298.151 192.464 L 298.458 192.505 L 298.765 192.539 L 299.073 192.566 L 299.382 192.585 L 299.691 192.596 L 300.000 192.600 L 300.309 192.596 L 300.618 192.585 L 300.927 192.566 L 301.235 192.539 L 301.542 192.505 L 301.849 192.464 L 302.154 192.414 L 302.458 192.358 L 302.761 192.294 L 303.062 192.222 L 303.361 192.144 L 303.658 192.057 L 303.952 191.964 L 304.245 191.863 L 304.535 191.756 L 304.822 191.641 L 305.106 191.519 L 305.387 191.390 L 305.665 191.255 L 305.940 191.112 L 306.211 190.963 L 306.478 190.807 L 306.741 190.645 L 307.000 190.477 L 307.255 190.302 L 307.506 190.120 L 307.752 189.933 L 307.993 189.740 L 308.230 189.541 L 308.462 189.336 L 308.688 189.126 L 308.910 188.910 L 309.126 188.688 L 309.336 188.462 L 309.541 188.230 L 309.740 187.993 L 309.933 187.752 L 310.120 187.506 L 310.302 187.255 L 310.477 187.000 L 310.645 186.741 L 310.807 186.478 L 310.963 186.211 L 311.112 185.940 L 311.255 185.665 L 311.390 185.387 L 311.519 185.106 L 311.641 184.822 L 311.756 184.535 L 311.863 184.245 L 311.964 183.952 L 312.057 183.658 L 312.144 183.361 L 312.222 183.062 L 312.294 182.761 L 312.358 182.458 L 312.414 182.154 L 312.464 181.849 L 312.505 181.542 L 312.539 181.235 L 312.566 180.927 L 312.585 180.618 L 312.596 180.309 L 312.600 180.000 L 312.596 179.691 Z" fill="black" fill-rule="evenodd"/>
</svg>
