<svg xmlns="http://www.w3.org/2000/svg" viewBox="0 0 600.000 1000">
  <path d="M 379.959 786.063 L 380.293 787.116 L 380.652 788.160 L 381.037 789.195 L 381.447 790.221 L 381.882 791.236 L 382.342 792.240 L 382.827 793.233 L 383.335 794.213 L 383.868 795.180 L 384.424 796.135 L 385.003 797.075 L 385.605 798.001 L 386.230 798.911 L 386.877 799.806 L 387.546 800.685 L 388.236 801.548 L 388.947 802.393 L 389.679 803.220 L 390.430 804.029 L 391.202 804.820 L 391.992 805.591 L 392.801 806.343 L 393.629 807.074 L 394.474 807.785 L 395.336 808.476 L 396.215 809.144 L 397.110 809.791 L 398.021 810.416 L 398.947 811.018 L 399.887 811.598 L 400.841 812.154 L 401.809 812.686 L 402.789 813.195 L 403.782 813.680 L 404.786 814.139 L 405.801 814.575 L 406.826 814.985 L 407.862 815.369 L 408.906 815.729 L 409.959 816.062 L 411.020 816.370 L 412.087 816.651 L 413.162 816.907 L 414.243 817.135 L 415.328 817.337 L 416.419 817.513 L 417.513 817.662 L 418.611 817.783 L 419.711 817.878 L 420.814 817.946 L 421.917 817.986 L 423.022 818.000 L 424.126 817.986 L 425.230 817.946 L 426.332 817.878 L 427.432 817.783 L 428.530 817.662 L 429.624 817.513 L 430.715 817.337 L 431.801 817.135 L 432.881 816.907 L 433.956 816.651 L 435.024 816.370 L 436.084 816.062 L 437.137 815.729 L 438.182 815.369 L 439.217 814.985 L 440.242 814.575 L 441.257 814.139 L 442.262 813.680 L 443.254 813.195 L 444.234 812.686 L 445.202 812.154 L 446.156 811.598 L 447.096 811.018 L 448.022 810.416 L 448.933 809.791 L 449.828 809.144 L 450.707 808.476 L 451.569 807.785 L 452.414 807.074 L 453.242 806.343 L 454.051 805.591 L 454.841 804.820 L 455.613 804.029 L 456.364 803.220 L 457.096 802.393 L 457.807 801.548 L 458.497 800.685 L 459.166 799.806 L 459.813 798.911 L 460.438 798.001 L 461.040 797.075 L 461.619 796.135 L 462.176 795.180 L 462.708 794.213 L 463.217 793.233 L 463.701 792.240 L 464.161 791.236 L 464.596 790.221 L 465.006 789.195 L 465.391 788.160 L 465.750 787.116 L 466.084 786.063 L 466.392 785.002 L 466.673 783.934 L 466.928 782.860 L 467.157 781.779 L 467.359 780.693 L 467.535 779.603 L 467.683 778.508 L 467.805 777.411 L 467.900 776.310 L 467.967 775.208 L 468.008 774.104 L 468.022 773.000 L 468.022 664.139 L 469.414 659.841 L 469.680 658.991 L 471.047 654.467 L 471.295 653.619 L 472.578 649.051 L 472.807 648.204 L 474.004 643.597 L 474.215 642.752 L 475.327 638.107 L 475.521 637.263 L 476.546 632.583 L 476.723 631.740 L 477.661 627.029 L 477.820 626.187 L 478.671 621.447 L 478.814 620.606 L 479.576 615.840 L 479.702 615.001 L 480.376 610.210 L 480.486 609.372 L 481.071 604.562 L 481.165 603.724 L 481.661 598.896 L 481.739 598.060 L 482.144 593.217 L 482.207 592.381 L 482.523 587.527 L 482.569 586.692 L 482.795 581.828 L 482.826 580.993 L 482.961 576.124 L 482.977 575.289 L 483.022 570.417 L 483.022 569.583 L 482.977 564.711 L 482.961 563.876 L 482.826 559.007 L 482.795 558.172 L 482.569 553.308 L 482.523 552.473 L 482.207 547.619 L 482.144 546.783 L 481.739 541.940 L 481.661 541.104 L 481.165 536.276 L 481.071 535.438 L 480.486 530.628 L 480.376 529.790 L 479.702 524.999 L 479.576 524.160 L 478.814 519.394 L 478.671 518.553 L 477.820 513.813 L 477.661 512.971 L 476.723 508.260 L 476.546 507.417 L 475.521 502.737 L 475.327 501.893 L 474.215 497.248 L 474.004 496.403 L 472.807 491.796 L 472.578 490.949 L 471.295 486.381 L 471.047 485.533 L 469.680 481.009 L 469.414 480.159 L 468.022 475.861 L 468.022 352.000 L 468.008 350.896 L 467.967 349.792 L 467.900 348.690 L 467.805 347.589 L 467.683 346.492 L 467.535 345.397 L 467.359 344.307 L 467.157 343.221 L 466.928 342.140 L 466.673 341.066 L 466.392 339.998 L 466.084 338.937 L 465.750 337.884 L 465.391 336.840 L 465.006 335.805 L 464.596 334.779 L 464.161 333.764 L 463.701 332.760 L 463.217 331.767 L 462.708 330.787 L 462.176 329.820 L 461.619 328.865 L 461.040 327.925 L 460.438 326.999 L 459.813 326.089 L 459.166 325.194 L 458.497 324.315 L 457.807 323.452 L 457.096 322.607 L 456.364 321.780 L 455.613 320.971 L 454.841 320.180 L 454.051 319.409 L 453.242 318.657 L 452.414 317.926 L 451.569 317.215 L 450.707 316.524 L 449.828 315.856 L 448.933 315.209 L 448.022 314.584 L 447.096 313.982 L 446.156 313.402 L 445.202 312.846 L 444.234 312.314 L 443.254 311.805 L 442.262 311.320 L 441.257 310.861 L 440.242 310.425 L 439.217 310.015 L 438.182 309.631 L 437.137 309.271 L 436.084 308.938 L 435.024 308.630 L 433.956 308.349 L 432.881 308.093 L 431.801 307.865 L 430.715 307.663 L 429.624 307.487 L 428.530 307.338 L 427.432 307.217 L 426.332 307.122 L 425.230 307.054 L 424.126 307.014 L 423.022 307.000 L 421.917 307.014 L 420.814 307.054 L 419.711 307.122 L 418.611 307.217 L 417.513 307.338 L 416.419 307.487 L 415.328 307.663 L 414.243 307.865 L 413.162 308.093 L 412.087 308.349 L 411.020 308.630 L 409.959 308.938 L 408.906 309.271 L 407.862 309.631 L 406.826 310.015 L 405.801 310.425 L 404.786 310.861 L 403.782 311.320 L 402.789 311.805 L 401.809 312.314 L 400.841 312.846 L 399.887 313.402 L 398.947 313.982 L 398.021 314.584 L 397.110 315.209 L 396.215 315.856 L 395.336 316.524 L 394.474 317.215 L 393.629 317.926 L 392.801 318.657 L 391.992 319.409 L 391.202 320.180 L 390.430 320.971 L 389.679 321.780 L 388.947 322.607 L 388.236 323.452 L 387.546 324.315 L 386.877 325.194 L 386.230 326.089 L 385.605 326.999 L 385.003 327.925 L 384.424 328.865 L 383.868 329.820 L 383.335 330.787 L 382.827 331.767 L 382.342 332.760 L 381.882 333.764 L 381.447 334.779 L 381.037 335.805 L 380.652 336.840 L 380.293 337.884 L 379.959 338.937 L 379.652 339.998 L 379.370 341.066 L 379.115 342.140 L 378.886 343.221 L 378.684 344.307 L 378.509 345.397 L 378.360 346.492 L 378.238 347.589 L 378.144 348.690 L 378.076 349.792 L 378.035 350.896 L 378.022 352.000 L 378.022 353.677 L 376.558 352.732 L 375.469 352.050 L 372.121 350.021 L 370.999 349.363 L 367.615 347.443 L 366.460 346.810 L 363.041 345.001 L 361.855 344.395 L 358.404 342.698 L 357.187 342.121 L 353.705 340.536 L 352.458 339.991 L 348.948 338.520 L 347.672 338.008 L 344.136 336.651 L 342.833 336.174 L 339.273 334.932 L 337.944 334.492 L 334.362 333.366 L 333.010 332.964 L 329.407 331.955 L 328.033 331.593 L 324.414 330.701 L 323.020 330.381 L 319.385 329.607 L 317.973 329.330 L 314.325 328.675 L 312.898 328.442 L 309.239 327.905 L 307.800 327.717 L 304.132 327.299 L 302.683 327.158 L 299.008 326.859 L 297.552 326.764 L 293.872 326.585 L 292.412 326.538 L 288.731 326.478 L 287.269 326.478 L 283.588 326.538 L 282.128 326.585 L 278.448 326.764 L 276.992 326.859 L 273.317 327.158 L 271.868 327.299 L 268.200 327.717 L 266.761 327.905 L 263.102 328.442 L 261.675 328.675 L 258.027 329.330 L 256.615 329.607 L 252.980 330.381 L 251.586 330.701 L 247.967 331.593 L 246.593 331.955 L 242.990 332.964 L 241.638 333.366 L 238.056 334.492 L 236.727 334.932 L 233.167 336.174 L 231.864 336.651 L 228.328 338.008 L 227.052 338.520 L 223.542 339.991 L 222.295 340.536 L 218.813 342.121 L 217.596 342.698 L 214.145 344.395 L 212.959 345.001 L 209.540 346.810 L 208.385 347.443 L 205.001 349.363 L 203.879 350.021 L 200.531 352.050 L 199.442 352.732 L 196.133 354.869 L 195.077 355.572 L 191.809 357.816 L 190.786 358.539 L 187.560 360.889 L 186.571 361.630 L 183.390 364.084 L 182.435 364.841 L 179.300 367.397 L 178.378 368.170 L 175.292 370.827 L 174.403 371.613 L 171.367 374.369 L 170.511 375.167 L 167.526 378.021 L 166.703 378.830 L 163.772 381.780 L 162.981 382.597 L 160.106 385.642 L 159.346 386.468 L 156.528 389.605 L 155.799 390.437 L 153.041 393.665 L 152.342 394.503 L 149.644 397.819 L 148.974 398.663 L 146.339 402.066 L 145.698 402.913 L 143.127 406.401 L 142.515 407.252 L 140.009 410.822 L 139.424 411.675 L 136.985 415.326 L 136.427 416.181 L 134.056 419.910 L 133.525 420.767 L 131.224 424.571 L 130.718 425.429 L 128.488 429.307 L 128.007 430.166 L 125.850 434.115 L 125.393 434.974 L 123.310 438.991 L 122.876 439.850 L 120.868 443.934 L 120.457 444.793 L 118.526 448.941 L 118.137 449.798 L 116.283 454.008 L 115.917 454.865 L 114.141 459.133 L 113.796 459.989 L 112.100 464.314 L 111.775 465.168 L 110.160 469.547 L 109.855 470.399 L 108.322 474.829 L 108.037 475.681 L 106.586 480.159 L 106.320 481.009 L 104.953 485.533 L 104.705 486.381 L 103.422 490.949 L 103.193 491.796 L 101.996 496.403 L 101.785 497.248 L 100.673 501.893 L 100.479 502.737 L 99.454 507.417 L 99.277 508.260 L 98.339 512.971 L 98.180 513.813 L 97.329 518.553 L 97.186 519.394 L 96.424 524.160 L 96.298 524.999 L 95.624 529.790 L 95.514 530.628 L 94.929 535.438 L 94.835 536.276 L 94.339 541.104 L 94.261 541.940 L 93.856 546.783 L 93.793 547.619 L 93.477 552.473 L 93.431 553.308 L 93.205 558.172 L 93.174 559.007 L 93.039 563.876 L 93.023 564.711 L 92.978 569.583 L 92.978 570.417 L 93.023 575.289 L 93.039 576.124 L 93.174 580.993 L 93.205 581.828 L 93.431 586.692 L 93.477 587.527 L 93.793 592.381 L 93.856 593.217 L 94.261 598.060 L 94.339 598.896 L 94.835 603.724 L 94.929 604.562 L 95.514 609.372 L 95.624 610.210 L 96.298 615.001 L 96.424 615.840 L 97.186 620.606 L 97.329 621.447 L 98.180 626.187 L 98.339 627.029 L 99.277 631.740 L 99.454 632.583 L 100.479 637.263 L 100.673 638.107 L 101.785 642.752 L 101.996 643.597 L 103.193 648.204 L 103.422 649.051 L 104.705 653.619 L 104.953 654.467 L 106.320 658.991 L 106.586 659.841 L 108.037 664.319 L 108.322 665.171 L 109.855 669.601 L 110.160 670.453 L 111.775 674.832 L 112.100 675.686 L 113.796 680.011 L 114.141 680.867 L 115.917 685.135 L 116.283 685.992 L 118.137 690.202 L 118.526 691.059 L 120.457 695.207 L 120.868 696.066 L 122.876 700.150 L 123.310 701.009 L 125.393 705.026 L 125.850 705.885 L 128.007 709.834 L 128.488 710.693 L 130.718 714.571 L 131.224 715.429 L 133.525 719.233 L 134.056 720.090 L 136.427 723.819 L 136.985 724.674 L 139.424 728.325 L 140.009 729.178 L 142.515 732.748 L 143.127 733.599 L 145.698 737.087 L 146.339 737.934 L 148.974 741.337 L 149.644 742.181 L 152.342 745.497 L 153.041 746.335 L 155.799 749.563 L 156.528 750.395 L 159.346 753.532 L 160.106 754.358 L 162.981 757.403 L 163.772 758.220 L 166.703 761.170 L 167.526 761.979 L 170.511 764.833 L 171.367 765.631 L 174.403 768.387 L 175.292 769.173 L 178.378 771.830 L 179.300 772.603 L 182.435 775.159 L 183.390 775.916 L 186.571 778.370 L 187.560 779.111 L 190.786 781.461 L 191.809 782.184 L 195.077 784.428 L 196.133 785.131 L 199.442 787.268 L 200.531 787.950 L 203.879 789.979 L 205.001 790.637 L 208.385 792.557 L 209.540 793.190 L 212.959 794.999 L 214.145 795.605 L 217.596 797.302 L 218.813 797.879 L 222.295 799.464 L 223.542 800.009 L 227.052 801.480 L 228.328 801.992 L 231.864 803.349 L 233.167 803.826 L 236.727 805.068 L 238.056 805.508 L 241.638 806.634 L 242.990 807.036 L 246.593 808.045 L 247.967 808.407 L 251.586 809.299 L 252.980 809.619 L 256.615 810.393 L 258.027 810.670 L 261.675 811.325 L 263.102 811.558 L 266.761 812.095 L 268.200 812.283 L 271.868 812.701 L 273.317 812.842 L 276.992 813.141 L 278.448 813.236 L 282.128 813.415 L 283.588 813.462 L 287.269 813.522 L 288.731 813.522 L 292.412 813.462 L 293.872 813.415 L 297.552 813.236 L 299.008 813.141 L 302.683 812.842 L 304.132 812.701 L 307.800 812.283 L 309.239 812.095 L 312.898 811.558 L 314.325 811.325 L 317.973 810.670 L 319.385 810.393 L 323.020 809.619 L 324.414 809.299 L 328.033 808.407 L 329.407 808.045 L 333.010 807.036 L 334.362 806.634 L 337.944 805.508 L 339.273 805.068 L 342.833 803.826 L 344.136 803.349 L 347.672 801.992 L 348.948 801.480 L 352.458 800.009 L 353.705 799.464 L 357.187 797.879 L 358.404 797.302 L 361.855 795.605 L 363.041 794.999 L 366.460 793.190 L 367.615 792.557 L 370.999 790.637 L 372.121 789.979 L 375.469 787.950 L 376.558 787.268 L 379.717 785.228 L 379.959 786.063 Z M 231.012 571.104 L 231.052 572.208 L 231.120 573.310 L 231.215 574.411 L 231.337 575.508 L 231.485 576.603 L 231.661 577.693 L 231.863 578.779 L 232.091 579.860 L 232.347 580.934 L 232.628 582.002 L 232.936 583.063 L 233.269 584.116 L 233.629 585.160 L 234.013 586.195 L 234.424 587.221 L 234.859 588.236 L 235.319 589.240 L 235.803 590.233 L 236.312 591.213 L 236.844 592.180 L 237.400 593.135 L 237.980 594.075 L 238.582 595.001 L 239.207 595.911 L 239.854 596.806 L 240.522 597.685 L 241.213 598.548 L 241.924 599.393 L 242.655 600.220 L 243.407 601.029 L 244.178 601.820 L 244.969 602.591 L 245.778 603.343 L 246.605 604.074 L 247.450 604.785 L 248.313 605.476 L 249.192 606.144 L 250.087 606.791 L 250.997 607.416 L 251.923 608.018 L 252.863 608.598 L 253.818 609.154 L 254.785 609.686 L 255.766 610.195 L 256.758 610.680 L 257.762 611.139 L 258.777 611.575 L 259.803 611.985 L 260.838 612.369 L 261.882 612.729 L 262.935 613.062 L 263.996 613.370 L 265.064 613.651 L 266.139 613.907 L 267.219 614.135 L 268.305 614.337 L 269.395 614.513 L 270.490 614.662 L 271.587 614.783 L 272.688 614.878 L 273.790 614.946 L 274.894 614.986 L 275.998 615.000 L 378.022 615.000 L 378.022 648.079 L 377.163 650.143 L 375.687 653.495 L 374.155 656.785 L 372.569 660.011 L 370.931 663.170 L 369.244 666.260 L 367.508 669.279 L 365.726 672.225 L 363.900 675.097 L 362.032 677.892 L 360.125 680.609 L 358.180 683.247 L 356.199 685.804 L 354.186 688.279 L 352.142 690.671 L 350.069 692.979 L 347.970 695.201 L 345.848 697.339 L 343.703 699.390 L 341.540 701.354 L 339.359 703.232 L 337.163 705.022 L 334.954 706.726 L 332.734 708.343 L 330.505 709.873 L 328.269 711.317 L 326.027 712.676 L 323.781 713.950 L 321.533 715.140 L 319.284 716.246 L 317.034 717.270 L 314.786 718.213 L 312.539 719.075 L 310.294 719.858 L 308.052 720.563 L 305.813 721.190 L 303.578 721.741 L 301.345 722.216 L 299.116 722.617 L 296.889 722.944 L 294.665 723.197 L 292.442 723.378 L 290.221 723.486 L 288.000 723.522 L 285.779 723.486 L 283.558 723.378 L 281.335 723.197 L 279.111 722.944 L 276.884 722.617 L 274.655 722.216 L 272.422 721.741 L 270.187 721.190 L 267.948 720.563 L 265.706 719.858 L 263.461 719.075 L 261.214 718.213 L 258.966 717.270 L 256.716 716.246 L 254.467 715.140 L 252.219 713.950 L 249.973 712.676 L 247.731 711.317 L 245.495 709.873 L 243.266 708.343 L 241.046 706.726 L 238.837 705.022 L 236.641 703.232 L 234.460 701.354 L 232.297 699.390 L 230.152 697.339 L 228.030 695.201 L 225.931 692.979 L 223.858 690.671 L 221.814 688.279 L 219.801 685.804 L 217.820 683.247 L 215.875 680.609 L 213.968 677.892 L 212.100 675.097 L 210.274 672.225 L 208.492 669.279 L 206.756 666.260 L 205.069 663.170 L 203.431 660.011 L 201.845 656.785 L 200.313 653.495 L 198.837 650.143 L 197.417 646.730 L 196.057 643.260 L 194.757 639.735 L 193.518 636.157 L 192.343 632.529 L 191.232 628.855 L 190.188 625.135 L 189.210 621.374 L 188.300 617.574 L 187.459 613.738 L 186.689 609.868 L 185.989 605.968 L 185.361 602.041 L 184.805 598.090 L 184.322 594.117 L 183.912 590.125 L 183.576 586.119 L 183.315 582.100 L 183.128 578.072 L 183.015 574.037 L 182.978 570.000 L 183.015 565.963 L 183.128 561.928 L 183.315 557.900 L 183.576 553.881 L 183.912 549.875 L 184.322 545.883 L 184.805 541.910 L 185.361 537.959 L 185.989 534.032 L 186.689 530.132 L 187.459 526.262 L 188.300 522.426 L 189.210 518.626 L 190.188 514.865 L 191.232 511.145 L 192.343 507.471 L 193.518 503.843 L 194.757 500.265 L 196.057 496.740 L 197.417 493.270 L 198.837 489.857 L 200.313 486.505 L 201.845 483.215 L 203.431 479.989 L 205.069 476.830 L 206.756 473.740 L 208.492 470.721 L 210.274 467.775 L 212.100 464.903 L 213.968 462.108 L 215.875 459.391 L 217.820 456.753 L 219.801 454.196 L 221.814 451.721 L 223.858 449.329 L 225.931 447.021 L 228.030 444.799 L 230.152 442.661 L 232.297 440.610 L 234.460 438.646 L 236.641 436.768 L 238.837 434.978 L 241.046 433.274 L 243.266 431.657 L 245.495 430.127 L 247.731 428.683 L 249.973 427.324 L 252.219 426.050 L 254.467 424.860 L 256.716 423.754 L 258.966 422.730 L 261.214 421.787 L 263.461 420.925 L 265.706 420.142 L 267.948 419.437 L 270.187 418.810 L 272.422 418.259 L 274.655 417.784 L 276.884 417.383 L 279.111 417.056 L 281.335 416.803 L 283.558 416.622 L 285.779 416.514 L 288.000 416.478 L 290.221 416.514 L 292.442 416.622 L 294.665 416.803 L 296.889 417.056 L 299.116 417.383 L 301.345 417.784 L 303.578 418.259 L 305.813 418.810 L 308.052 419.437 L 310.294 420.142 L 312.539 420.925 L 314.786 421.787 L 317.034 422.730 L 319.284 423.754 L 321.533 424.860 L 323.781 426.050 L 326.027 427.324 L 328.269 428.683 L 330.505 430.127 L 332.734 431.657 L 334.954 433.274 L 337.163 434.978 L 339.359 436.768 L 341.540 438.646 L 343.703 440.610 L 345.848 442.661 L 347.970 444.799 L 350.069 447.021 L 352.142 449.329 L 354.186 451.721 L 356.199 454.196 L 358.180 456.753 L 360.125 459.391 L 362.032 462.108 L 363.900 464.903 L 365.726 467.775 L 367.508 470.721 L 369.244 473.740 L 370.931 476.830 L 372.569 479.989 L 374.155 483.215 L 375.687 486.505 L 377.163 489.857 L 378.022 491.921 L 378.022 525.000 L 275.998 525.000 L 274.894 525.014 L 273.790 525.054 L 272.688 525.122 L 271.587 525.217 L 270.490 525.338 L 269.395 525.487 L 268.305 525.663 L 267.219 525.865 L 266.139 526.093 L 265.064 526.349 L 263.996 526.630 L 262.935 526.938 L 261.882 527.271 L 260.838 527.631 L 259.803 528.015 L 258.777 528.425 L 257.762 528.861 L 256.758 529.320 L 255.766 529.805 L 254.785 530.314 L 253.818 530.846 L 252.863 531.402 L 251.923 531.982 L 250.997 532.584 L 250.087 533.209 L 249.192 533.856 L 248.313 534.524 L 247.450 535.215 L 246.605 535.926 L 245.778 536.657 L 244.969 537.409 L 244.178 538.180 L 243.407 538.971 L 242.655 539.780 L 241.924 540.607 L 241.213 541.452 L 240.522 542.315 L 239.854 543.194 L 239.207 544.089 L 238.582 544.999 L 237.980 545.925 L 237.400 546.865 L 236.844 547.820 L 236.312 548.787 L 235.803 549.767 L 235.319 550.760 L 234.859 551.764 L 234.424 552.779 L 234.013 553.805 L 233.629 554.840 L 233.269 555.884 L 232.936 556.937 L 232.628 557.998 L 232.347 559.066 L 232.091 560.140 L 231.863 561.221 L 231.661 562.307 L 231.485 563.397 L 231.337 564.492 L 231.215 565.589 L 231.120 566.690 L 231.052 567.792 L 231.012 568.896 L 230.998 570.000 L 231.012 571.104 Z" fill="black" fill-rule="evenodd"/>
</svg>
