<svg xmlns="http://www.w3.org/2000/svg" viewBox="0 0 600.000 1000">
  <path d="M 205.066 257.481 L 205.144 256.220 L 205.253 254.959 L 205.393 253.697 L 205.566 252.434 L 205.770 251.170 L 206.006 249.904 L 206.274 248.637 L 206.576 247.368 L 206.910 246.098 L 207.278 244.826 L 207.679 243.552 L 208.114 242.278 L 208.584 241.001 L 209.089 239.724 L 209.629 238.446 L 210.205 237.167 L 210.817 235.888 L 211.465 234.609 L 212.150 233.331 L 212.873 232.054 L 213.632 230.778 L 214.429 229.505 L 215.264 228.234 L 216.138 226.967 L 217.049 225.704 L 217.999 224.446 L 218.988 223.193 L 220.016 221.946 L 221.082 220.706 L 222.186 219.475 L 223.330 218.251 L 224.512 217.038 L 225.732 215.835 L 226.991 214.643 L 228.288 213.463 L 229.622 212.296 L 230.994 211.143 L 232.403 210.004 L 233.849 208.881 L 235.331 207.775 L 236.849 206.686 L 238.402 205.615 L 239.990 204.563 L 241.612 203.531 L 243.268 202.520 L 244.957 201.530 L 246.678 200.563 L 248.431 199.618 L 250.214 198.698 L 252.028 197.802 L 253.870 196.931 L 255.742 196.086 L 257.640 195.269 L 259.565 194.478 L 261.516 193.716 L 263.492 192.982 L 265.492 192.277 L 267.514 191.602 L 269.559 190.958 L 271.624 190.344 L 273.709 189.761 L 275.813 189.211 L 277.934 188.693 L 280.073 188.207 L 282.226 187.754 L 284.395 187.335 L 286.576 186.950 L 288.770 186.598 L 290.975 186.281 L 293.190 185.999 L 295.413 185.751 L 297.644 185.539 L 299.882 185.361 L 302.125 185.219 L 304.372 185.113 L 306.622 185.041 L 308.874 185.006 L 311.126 185.006 L 313.378 185.041 L 315.628 185.113 L 317.875 185.219 L 320.118 185.361 L 322.356 185.539 L 324.587 185.751 L 326.810 185.999 L 329.025 186.281 L 331.230 186.598 L 333.424 186.950 L 335.605 187.335 L 337.774 187.754 L 339.927 188.207 L 342.066 188.693 L 344.187 189.211 L 346.291 189.761 L 348.376 190.344 L 350.441 190.958 L 352.486 191.602 L 354.508 192.277 L 356.508 192.982 L 358.484 193.716 L 360.435 194.478 L 362.360 195.269 L 364.258 196.086 L 366.130 196.931 L 367.972 197.802 L 369.786 198.698 L 371.569 199.618 L 373.322 200.563 L 375.043 201.530 L 376.732 202.520 L 378.388 203.531 L 380.010 204.563 L 381.598 205.615 L 383.151 206.686 L 384.669 207.775 L 386.151 208.881 L 387.597 210.004 L 389.006 211.143 L 390.378 212.296 L 391.712 213.463 L 393.009 214.643 L 394.268 215.835 L 395.488 217.038 L 396.670 218.251 L 397.814 219.475 L 398.918 220.706 L 399.984 221.946 L 401.012 223.193 L 402.001 224.446 L 402.951 225.704 L 403.862 226.967 L 404.736 228.234 L 405.571 229.505 L 406.368 230.778 L 407.127 232.054 L 407.850 233.331 L 408.535 234.609 L 409.183 235.888 L 409.795 237.167 L 410.371 238.446 L 410.911 239.724 L 411.416 241.001 L 411.886 242.278 L 412.321 243.552 L 412.722 244.826 L 413.090 246.098 L 413.424 247.368 L 413.726 248.637 L 413.994 249.904 L 414.230 251.170 L 414.434 252.434 L 414.607 253.697 L 414.747 254.959 L 414.856 256.220 L 414.934 257.481 L 414.981 258.740 L 415.000 260.278 L 415.000 780.000 L 415.014 781.104 L 415.054 782.208 L 415.122 783.310 L 415.217 784.411 L 415.338 785.508 L 415.487 786.603 L 415.663 787.693 L 415.865 788.779 L 416.093 789.860 L 416.349 790.934 L 416.630 792.002 L 416.938 793.063 L 417.271 794.116 L 417.631 795.160 L 418.015 796.195 L 418.425 797.221 L 418.861 798.236 L 419.320 799.240 L 419.805 800.233 L 420.314 801.213 L 420.846 802.180 L 421.402 803.135 L 421.982 804.075 L 422.584 805.001 L 423.209 805.911 L 423.856 806.806 L 424.524 807.685 L 425.215 808.548 L 425.926 809.393 L 426.657 810.220 L 427.409 811.029 L 428.180 811.820 L 428.971 812.591 L 429.780 813.343 L 430.607 814.074 L 431.452 814.785 L 432.315 815.476 L 433.194 816.144 L 434.089 816.791 L 434.999 817.416 L 435.925 818.018 L 436.865 818.598 L 437.820 819.154 L 438.787 819.686 L 439.767 820.195 L 440.760 820.680 L 441.764 821.139 L 442.779 821.575 L 443.805 821.985 L 444.840 822.369 L 445.884 822.729 L 446.937 823.062 L 447.998 823.370 L 449.066 823.651 L 450.140 823.907 L 451.221 824.135 L 452.307 824.337 L 453.397 824.513 L 454.492 824.662 L 455.589 824.783 L 456.690 824.878 L 457.792 824.946 L 458.896 824.986 L 460.000 825.000 L 461.104 824.986 L 462.208 824.946 L 463.310 824.878 L 464.411 824.783 L 465.508 824.662 L 466.603 824.513 L 467.693 824.337 L 468.779 824.135 L 469.860 823.907 L 470.934 823.651 L 472.002 823.370 L 473.063 823.062 L 474.116 822.729 L 475.160 822.369 L 476.195 821.985 L 477.221 821.575 L 478.236 821.139 L 479.240 820.680 L 480.233 820.195 L 481.213 819.686 L 482.180 819.154 L 483.135 818.598 L 484.075 818.018 L 485.001 817.416 L 485.911 816.791 L 486.806 816.144 L 487.685 815.476 L 488.548 814.785 L 489.393 814.074 L 490.220 813.343 L 491.029 812.591 L 491.820 811.820 L 492.591 811.029 L 493.343 810.220 L 494.074 809.393 L 494.785 808.548 L 495.476 807.685 L 496.144 806.806 L 496.791 805.911 L 497.416 805.001 L 498.018 804.075 L 498.598 803.135 L 499.154 802.180 L 499.686 801.213 L 500.195 800.233 L 500.680 799.240 L 501.139 798.236 L 501.575 797.221 L 501.985 796.195 L 502.369 795.160 L 502.729 794.116 L 503.062 793.063 L 503.370 792.002 L 503.651 790.934 L 503.907 789.860 L 504.135 788.779 L 504.337 787.693 L 504.513 786.603 L 504.662 785.508 L 504.783 784.411 L 504.878 783.310 L 504.946 782.208 L 504.986 781.104 L 505.000 780.000 L 505.000 260.000 L 504.997 259.722 L 504.997 259.444 L 504.967 257.073 L 504.940 255.963 L 504.852 253.593 L 504.797 252.484 L 504.651 250.116 L 504.569 249.009 L 504.364 246.644 L 504.255 245.542 L 503.992 243.180 L 503.856 242.084 L 503.534 239.727 L 503.372 238.636 L 502.992 236.284 L 502.804 235.201 L 502.366 232.856 L 502.152 231.781 L 501.657 229.444 L 501.417 228.378 L 500.864 226.049 L 500.600 224.993 L 499.990 222.673 L 499.702 221.629 L 499.034 219.319 L 498.722 218.287 L 497.998 215.988 L 497.663 214.969 L 496.882 212.682 L 496.525 211.677 L 495.688 209.403 L 495.310 208.412 L 494.416 206.151 L 494.017 205.176 L 493.068 202.930 L 492.649 201.970 L 491.645 199.739 L 491.207 198.795 L 490.147 196.581 L 489.691 195.654 L 488.577 193.457 L 488.103 192.547 L 486.935 190.368 L 486.443 189.476 L 485.222 187.316 L 484.715 186.442 L 483.440 184.301 L 482.918 183.446 L 481.590 181.326 L 481.053 180.488 L 479.674 178.390 L 479.123 177.571 L 477.692 175.495 L 477.128 174.695 L 475.646 172.642 L 475.070 171.861 L 473.538 169.832 L 472.950 169.070 L 471.368 167.066 L 470.769 166.323 L 469.138 164.344 L 468.529 163.620 L 466.849 161.667 L 466.231 160.963 L 464.503 159.037 L 463.876 158.352 L 462.101 156.453 L 461.465 155.787 L 459.643 153.916 L 459.000 153.269 L 457.133 151.428 L 456.482 150.800 L 454.570 148.988 L 453.913 148.378 L 451.956 146.598 L 451.293 146.006 L 449.292 144.257 L 448.624 143.684 L 446.580 141.966 L 445.907 141.411 L 443.821 139.726 L 443.143 139.189 L 441.016 137.537 L 440.334 137.017 L 438.167 135.400 L 437.480 134.897 L 435.274 133.314 L 434.584 132.829 L 432.339 131.281 L 431.645 130.812 L 429.362 129.300 L 428.666 128.848 L 426.347 127.373 L 425.648 126.937 L 423.292 125.499 L 422.591 125.079 L 420.201 123.678 L 419.498 123.274 L 417.073 121.911 L 416.368 121.524 L 413.910 120.199 L 413.204 119.827 L 410.713 118.541 L 410.006 118.184 L 407.484 116.938 L 406.776 116.596 L 404.224 115.390 L 403.514 115.062 L 400.933 113.897 L 400.223 113.584 L 397.613 112.459 L 396.902 112.160 L 394.265 111.078 L 393.554 110.792 L 390.891 109.752 L 390.179 109.480 L 387.491 108.482 L 386.778 108.224 L 384.066 107.268 L 383.353 107.024 L 380.618 106.111 L 379.905 105.880 L 377.148 105.010 L 376.435 104.792 L 373.657 103.967 L 372.944 103.761 L 370.146 102.980 L 369.433 102.787 L 366.616 102.050 L 365.903 101.869 L 363.068 101.177 L 362.356 101.009 L 359.505 100.361 L 358.792 100.205 L 355.925 99.603 L 355.213 99.459 L 352.332 98.902 L 351.619 98.771 L 348.725 98.259 L 348.013 98.139 L 345.107 97.674 L 344.395 97.566 L 341.478 97.146 L 340.766 97.050 L 337.839 96.677 L 337.127 96.592 L 334.192 96.265 L 333.480 96.191 L 330.537 95.911 L 329.826 95.849 L 326.876 95.615 L 326.165 95.564 L 323.210 95.377 L 322.499 95.337 L 319.540 95.197 L 318.829 95.169 L 315.868 95.075 L 315.156 95.058 L 312.193 95.011 L 311.482 95.006 L 308.518 95.006 L 307.807 95.011 L 304.844 95.058 L 304.132 95.075 L 301.171 95.169 L 300.460 95.197 L 297.501 95.337 L 296.790 95.377 L 293.835 95.564 L 293.124 95.615 L 290.174 95.849 L 289.463 95.911 L 286.520 96.191 L 285.808 96.265 L 282.873 96.592 L 282.161 96.677 L 279.234 97.050 L 278.522 97.146 L 275.605 97.566 L 274.893 97.674 L 271.987 98.139 L 271.275 98.259 L 268.381 98.771 L 267.668 98.902 L 264.787 99.459 L 264.075 99.603 L 261.208 100.205 L 260.495 100.361 L 257.644 101.009 L 256.932 101.177 L 254.097 101.869 L 253.384 102.050 L 250.567 102.787 L 249.854 102.980 L 247.056 103.761 L 246.343 103.967 L 243.565 104.792 L 242.852 105.010 L 240.095 105.880 L 239.382 106.111 L 236.647 107.024 L 235.934 107.268 L 233.222 108.224 L 232.509 108.482 L 229.821 109.480 L 229.109 109.752 L 226.446 110.792 L 225.735 111.078 L 223.098 112.160 L 222.387 112.459 L 219.777 113.584 L 219.067 113.897 L 216.486 115.062 L 215.776 115.390 L 213.224 116.596 L 212.516 116.938 L 209.994 118.184 L 209.287 118.541 L 206.796 119.827 L 206.090 120.199 L 205.000 120.786 L 205.000 40.000 L 204.986 38.896 L 204.946 37.792 L 204.878 36.690 L 204.783 35.589 L 204.662 34.492 L 204.513 33.397 L 204.337 32.307 L 204.135 31.221 L 203.907 30.140 L 203.651 29.066 L 203.370 27.998 L 203.062 26.937 L 202.729 25.884 L 202.369 24.840 L 201.985 23.805 L 201.575 22.779 L 201.139 21.764 L 200.680 20.760 L 200.195 19.767 L 199.686 18.787 L 199.154 17.820 L 198.598 16.865 L 198.018 15.925 L 197.416 14.999 L 196.791 14.089 L 196.144 13.194 L 195.476 12.315 L 194.785 11.452 L 194.074 10.607 L 193.343 9.780 L 192.591 8.971 L 191.820 8.180 L 191.029 7.409 L 190.220 6.657 L 189.393 5.926 L 188.548 5.215 L 187.685 4.524 L 186.806 3.856 L 185.911 3.209 L 185.001 2.584 L 184.075 1.982 L 183.135 1.402 L 182.180 0.846 L 181.213 0.314 L 180.233 -0.195 L 179.240 -0.680 L 178.236 -1.139 L 177.221 -1.575 L 176.195 -1.985 L 175.160 -2.369 L 174.116 -2.729 L 173.063 -3.062 L 172.002 -3.370 L 170.934 -3.651 L 169.860 -3.907 L 168.779 -4.135 L 167.693 -4.337 L 166.603 -4.513 L 165.508 -4.662 L 164.411 -4.783 L 163.310 -4.878 L 162.208 -4.946 L 161.104 -4.986 L 160.000 -5.000 L 158.896 -4.986 L 157.792 -4.946 L 156.690 -4.878 L 155.589 -4.783 L 154.492 -4.662 L 153.397 -4.513 L 152.307 -4.337 L 151.221 -4.135 L 150.140 -3.907 L 149.066 -3.651 L 147.998 -3.370 L 146.937 -3.062 L 145.884 -2.729 L 144.840 -2.369 L 143.805 -1.985 L 142.779 -1.575 L 141.764 -1.139 L 140.760 -0.680 L 139.767 -0.195 L 138.787 0.314 L 137.820 0.846 L 136.865 1.402 L 135.925 1.982 L 134.999 2.584 L 134.089 3.209 L 133.194 3.856 L 132.315 4.524 L 131.452 5.215 L 130.607 5.926 L 129.780 6.657 L 128.971 7.409 L 128.180 8.180 L 127.409 8.971 L 126.657 9.780 L 125.926 10.607 L 125.215 11.452 L 124.524 12.315 L 123.856 13.194 L 123.209 14.089 L 122.584 14.999 L 121.982 15.925 L 121.402 16.865 L 120.846 17.820 L 120.314 18.787 L 119.805 19.767 L 119.320 20.760 L 118.861 21.764 L 118.425 22.779 L 118.015 23.805 L 117.631 24.840 L 117.271 25.884 L 116.938 26.937 L 116.630 27.998 L 116.349 29.066 L 116.093 30.140 L 115.865 31.221 L 115.663 32.307 L 115.487 33.397 L 115.338 34.492 L 115.217 35.589 L 115.122 36.690 L 115.054 37.792 L 115.014 38.896 L 115.000 40.000 L 115.000 780.000 L 115.014 781.104 L 115.054 782.208 L 115.122 783.310 L 115.217 784.411 L 115.338 785.508 L 115.487 786.603 L 115.663 787.693 L 115.865 788.779 L 116.093 789.860 L 116.349 790.934 L 116.630 792.002 L 116.938 793.063 L 117.271 794.116 L 117.631 795.160 L 118.015 796.195 L 118.425 797.221 L 118.861 798.236 L 119.320 799.240 L 119.805 800.233 L 120.314 801.213 L 120.846 802.180 L 121.402 803.135 L 121.982 804.075 L 122.584 805.001 L 123.209 805.911 L 123.856 806.806 L 124.524 807.685 L 125.215 808.548 L 125.926 809.393 L 126.657 810.220 L 127.409 811.029 L 128.180 811.820 L 128.971 812.591 L 129.780 813.343 L 130.607 814.074 L 131.452 814.785 L 132.315 815.476 L 133.194 816.144 L 134.089 816.791 L 134.999 817.416 L 135.925 818.018 L 136.865 818.598 L 137.820 819.154 L 138.787 819.686 L 139.767 820.195 L 140.760 820.680 L 141.764 821.139 L 142.779 821.575 L 143.805 821.985 L 144.840 822.369 L 145.884 822.729 L 146.937 823.062 L 147.998 823.370 L 149.066 823.651 L 150.140 823.907 L 151.221 824.135 L 152.307 824.337 L 153.397 824.513 L 154.492 824.662 L 155.589 824.783 L 156.690 824.878 L 157.792 824.946 L 158.896 824.986 L 160.000 825.000 L 161.104 824.986 L 162.208 824.946 L 163.310 824.878 L 164.411 824.783 L 165.508 824.662 L 166.603 824.513 L 167.693 824.337 L 168.779 824.135 L 169.860 823.907 L 170.934 823.651 L 172.002 823.370 L 173.063 823.062 L 174.116 822.729 L 175.160 822.369 L 176.195 821.985 L 177.221 821.575 L 178.236 821.139 L 179.240 820.680 L 180.233 820.195 L 181.213 819.686 L 182.180 819.154 L 183.135 818.598 L 184.075 818.018 L 185.001 817.416 L 185.911 816.791 L 186.806 816.144 L 187.685 815.476 L 188.548 814.785 L 189.393 814.074 L 190.220 813.343 L 191.029 812.591 L 191.820 811.820 L 192.591 811.029 L 193.343 810.220 L 194.074 809.393 L 194.785 808.548 L 195.476 807.685 L 196.144 806.806 L 196.791 805.911 L 197.416 805.001 L 198.018 804.075 L 198.598 803.135 L 199.154 802.180 L 199.686 801.213 L 200.195 800.233 L 200.680 799.240 L 201.139 798.236 L 201.575 797.221 L 201.985 796.195 L 202.369 795.160 L 202.729 794.116 L 203.062 793.063 L 203.370 792.002 L 203.651 790.934 L 203.907 789.860 L 204.135 788.779 L 204.337 787.693 L 204.513 786.603 L 204.662 785.508 L 204.783 784.411 L 204.878 783.310 L 204.946 782.208 L 204.986 781.104 L 205.000 780.000 L 205.000 260.278 L 205.019 258.740 L 205.066 257.481 Z" fill="black" fill-rule="evenodd"/>
</svg>
