<svg xmlns="http://www.w3.org/2000/svg" width="600.000" height="1000" viewBox="0 0 600.000 1000">
  <path d="M 255.014 961.104 L 255.054 962.208 L 255.122 963.310 L 255.217 964.411 L 255.338 965.508 L 255.487 966.603 L 255.663 967.693 L 255.865 968.779 L 256.093 969.860 L 256.349 970.934 L 256.630 972.002 L 256.938 973.063 L 257.271 974.116 L 257.631 975.160 L 258.015 976.195 L 258.425 977.221 L 258.861 978.236 L 259.320 979.240 L 259.805 980.233 L 260.314 981.213 L 260.846 982.180 L 261.402 983.135 L 261.982 984.075 L 262.584 985.001 L 263.209 985.911 L 263.856 986.806 L 264.524 987.685 L 265.215 988.548 L 265.926 989.393 L 266.657 990.220 L 267.409 991.029 L 268.180 991.820 L 268.971 992.591 L 269.780 993.343 L 270.607 994.074 L 271.452 994.785 L 272.315 995.476 L 273.194 996.144 L 274.089 996.791 L 274.999 997.416 L 275.925 998.018 L 276.865 998.598 L 277.820 999.154 L 278.787 999.686 L 279.767 1000.195 L 280.760 1000.680 L 281.764 1001.139 L 282.779 1001.575 L 283.805 1001.985 L 284.840 1002.369 L 285.884 1002.729 L 286.937 1003.062 L 287.998 1003.370 L 289.066 1003.651 L 290.140 1003.907 L 291.221 1004.135 L 292.307 1004.337 L 293.397 1004.513 L 294.492 1004.662 L 295.589 1004.783 L 296.690 1004.878 L 297.792 1004.946 L 298.896 1004.986 L 300.000 1005.000 L 301.104 1004.986 L 302.208 1004.946 L 303.310 1004.878 L 304.411 1004.783 L 305.508 1004.662 L 306.603 1004.513 L 307.693 1004.337 L 308.779 1004.135 L 309.860 1003.907 L 310.934 1003.651 L 312.002 1003.370 L 313.063 1003.062 L 314.116 1002.729 L 315.160 1002.369 L 316.195 1001.985 L 317.221 1001.575 L 318.236 1001.139 L 319.240 1000.680 L 320.233 1000.195 L 321.213 999.686 L 322.180 999.154 L 323.135 998.598 L 324.075 998.018 L 325.001 997.416 L 325.911 996.791 L 326.806 996.144 L 327.685 995.476 L 328.548 994.785 L 329.393 994.074 L 330.220 993.343 L 331.029 992.591 L 331.820 991.820 L 332.591 991.029 L 333.343 990.220 L 334.074 989.393 L 334.785 988.548 L 335.476 987.685 L 336.144 986.806 L 336.791 985.911 L 337.416 985.001 L 338.018 984.075 L 338.598 983.135 L 339.154 982.180 L 339.686 981.213 L 340.195 980.233 L 340.680 979.240 L 341.139 978.236 L 341.575 977.221 L 341.985 976.195 L 342.369 975.160 L 342.729 974.116 L 343.062 973.063 L 343.370 972.002 L 343.651 970.934 L 343.907 969.860 L 344.135 968.779 L 344.337 967.693 L 344.513 966.603 L 344.662 965.508 L 344.783 964.411 L 344.878 963.310 L 344.946 962.208 L 344.986 961.104 L 345.000 960.000 L 345.000 360.000 L 344.986 358.896 L 344.946 357.792 L 344.878 356.690 L 344.783 355.589 L 344.662 354.492 L 344.513 353.397 L 344.337 352.307 L 344.135 351.221 L 343.907 350.140 L 343.651 349.066 L 343.370 347.998 L 343.062 346.937 L 342.729 345.884 L 342.369 344.840 L 341.985 343.805 L 341.575 342.779 L 341.139 341.764 L 340.680 340.760 L 340.195 339.767 L 339.686 338.787 L 339.154 337.820 L 338.598 336.865 L 338.018 335.925 L 337.416 334.999 L 336.791 334.089 L 336.144 333.194 L 335.476 332.315 L 334.785 331.452 L 334.074 330.607 L 333.343 329.780 L 332.591 328.971 L 331.820 328.180 L 331.029 327.409 L 330.220 326.657 L 329.393 325.926 L 328.548 325.215 L 327.685 324.524 L 326.806 323.856 L 325.911 323.209 L 325.001 322.584 L 324.075 321.982 L 323.135 321.402 L 322.180 320.846 L 321.213 320.314 L 320.233 319.805 L 319.240 319.320 L 318.236 318.861 L 317.221 318.425 L 316.195 318.015 L 315.160 317.631 L 314.116 317.271 L 313.063 316.938 L 312.002 316.630 L 310.934 316.349 L 309.860 316.093 L 308.779 315.865 L 307.693 315.663 L 306.603 315.487 L 305.508 315.338 L 304.411 315.217 L 303.310 315.122 L 302.208 315.054 L 301.104 315.014 L 300.000 315.000 L 298.896 315.014 L 297.792 315.054 L 296.690 315.122 L 295.589 315.217 L 294.492 315.338 L 293.397 315.487 L 292.307 315.663 L 291.221 315.865 L 290.140 316.093 L 289.066 316.349 L 287.998 316.630 L 286.937 316.938 L 285.884 317.271 L 284.840 317.631 L 283.805 318.015 L 282.779 318.425 L 281.764 318.861 L 280.760 319.320 L 279.767 319.805 L 278.787 320.314 L 277.820 320.846 L 276.865 321.402 L 275.925 321.982 L 274.999 322.584 L 274.089 323.209 L 273.194 323.856 L 272.315 324.524 L 271.452 325.215 L 270.607 325.926 L 269.780 326.657 L 268.971 327.409 L 268.180 328.180 L 267.409 328.971 L 266.657 329.780 L 265.926 330.607 L 265.215 331.452 L 264.524 332.315 L 263.856 333.194 L 263.209 334.089 L 262.584 334.999 L 261.982 335.925 L 261.402 336.865 L 260.846 337.820 L 260.314 338.787 L 259.805 339.767 L 259.320 340.760 L 258.861 341.764 L 258.425 342.779 L 258.015 343.805 L 257.631 344.840 L 257.271 345.884 L 256.938 346.937 L 256.630 347.998 L 256.349 349.066 L 256.093 350.140 L 255.865 351.221 L 255.663 352.307 L 255.487 353.397 L 255.338 354.492 L 255.217 355.589 L 255.122 356.690 L 255.054 357.792 L 255.014 358.896 L 255.000 360.000 L 255.000 960.000 L 255.014 961.104 Z M 335.989 174.117 L 335.957 173.234 L 335.902 172.352 L 335.827 171.471 L 335.729 170.593 L 335.610 169.718 L 335.470 168.845 L 335.308 167.977 L 335.125 167.112 L 334.921 166.253 L 334.696 165.398 L 334.450 164.550 L 334.183 163.707 L 333.896 162.872 L 333.588 162.044 L 333.260 161.223 L 332.912 160.411 L 332.544 159.608 L 332.156 158.814 L 331.749 158.030 L 331.323 157.256 L 330.878 156.492 L 330.415 155.740 L 329.933 154.999 L 329.433 154.271 L 328.915 153.555 L 328.380 152.852 L 327.828 152.162 L 327.260 151.486 L 326.674 150.824 L 326.073 150.177 L 325.456 149.544 L 324.823 148.927 L 324.176 148.326 L 323.514 147.740 L 322.838 147.172 L 322.148 146.620 L 321.445 146.085 L 320.729 145.567 L 320.001 145.067 L 319.260 144.585 L 318.508 144.122 L 317.744 143.677 L 316.970 143.251 L 316.186 142.844 L 315.392 142.456 L 314.589 142.088 L 313.777 141.740 L 312.956 141.412 L 312.128 141.104 L 311.293 140.817 L 310.450 140.550 L 309.602 140.304 L 308.747 140.079 L 307.888 139.875 L 307.023 139.692 L 306.155 139.530 L 305.282 139.390 L 304.407 139.271 L 303.529 139.173 L 302.648 139.098 L 301.766 139.043 L 300.883 139.011 L 300.000 139.000 L 299.117 139.011 L 298.234 139.043 L 297.352 139.098 L 296.471 139.173 L 295.593 139.271 L 294.718 139.390 L 293.845 139.530 L 292.977 139.692 L 292.112 139.875 L 291.253 140.079 L 290.398 140.304 L 289.550 140.550 L 288.707 140.817 L 287.872 141.104 L 287.044 141.412 L 286.223 141.740 L 285.411 142.088 L 284.608 142.456 L 283.814 142.844 L 283.030 143.251 L 282.256 143.677 L 281.492 144.122 L 280.740 144.585 L 279.999 145.067 L 279.271 145.567 L 278.555 146.085 L 277.852 146.620 L 277.162 147.172 L 276.486 147.740 L 275.824 148.326 L 275.177 148.927 L 274.544 149.544 L 273.927 150.177 L 273.326 150.824 L 272.740 151.486 L 272.172 152.162 L 271.620 152.852 L 271.085 153.555 L 270.567 154.271 L 270.067 154.999 L 269.585 155.740 L 269.122 156.492 L 268.677 157.256 L 268.251 158.030 L 267.844 158.814 L 267.456 159.608 L 267.088 160.411 L 266.740 161.223 L 266.412 162.044 L 266.104 162.872 L 265.817 163.707 L 265.550 164.550 L 265.304 165.398 L 265.079 166.253 L 264.875 167.112 L 264.692 167.977 L 264.530 168.845 L 264.390 169.718 L 264.271 170.593 L 264.173 171.471 L 264.098 172.352 L 264.043 173.234 L 264.011 174.117 L 264.000 175.000 L 264.011 175.883 L 264.043 176.766 L 264.098 177.648 L 264.173 178.529 L 264.271 179.407 L 264.390 180.282 L 264.530 181.155 L 264.692 182.023 L 264.875 182.888 L 265.079 183.747 L 265.304 184.602 L 265.550 185.450 L 265.817 186.293 L 266.104 187.128 L 266.412 187.956 L 266.740 188.777 L 267.088 189.589 L 267.456 190.392 L 267.844 191.186 L 268.251 191.970 L 268.677 192.744 L 269.122 193.508 L 269.585 194.260 L 270.067 195.001 L 270.567 195.729 L 271.085 196.445 L 271.620 197.148 L 272.172 197.838 L 272.740 198.514 L 273.326 199.176 L 273.927 199.823 L 274.544 200.456 L 275.177 201.073 L 275.824 201.674 L 276.486 202.260 L 277.162 202.828 L 277.852 203.380 L 278.555 203.915 L 279.271 204.433 L 279.999 204.933 L 280.740 205.415 L 281.492 205.878 L 282.256 206.323 L 283.030 206.749 L 283.814 207.156 L 284.608 207.544 L 285.411 207.912 L 286.223 208.260 L 287.044 208.588 L 287.872 208.896 L 288.707 209.183 L 289.550 209.450 L 290.398 209.696 L 291.253 209.921 L 292.112 210.125 L 292.977 210.308 L 293.845 210.470 L 294.718 210.610 L 295.593 210.729 L 296.471 210.827 L 297.352 210.902 L 298.234 210.957 L 299.117 210.989 L 300.000 211.000 L 300.883 210.989 L 301.766 210.957 L 302.648 210.902 L 303.529 210.827 L 304.407 210.729 L 305.282 210.610 L 306.155 210.470 L 307.023 210.308 L 307.888 210.125 L 308.747 209.921 L 309.602 209.696 L 310.450 209.450 L 311.293 209.183 L 312.128 208.896 L 312.956 208.588 L 313.777 208.260 L 314.589 207.912 L 315.392 207.544 L 316.186 207.156 L 316.970 206.749 L 317.744 206.323 L 318.508 205.878 L 319.260 205.415 L 320.001 204.933 L 320.729 204.433 L 321.445 203.915 L 322.148 203.380 L 322.838 202.828 L 323.514 202.260 L 324.176 201.674 L 324.823 201.073 L 325.456 200.456 L 326.073 199.823 L 326.674 199.176 L 327.260 198.514 L 327.828 197.838 L 328.380 197.148 L 328.915 196.445 L 329.433 195.729 L 329.933 195.001 L 330.415 194.260 L 330.878 193.508 L 331.323 192.744 L 331.749 191.970 L 332.156 191.186 L 332.544 190.392 L 332.912 189.589 L 333.260 188.777 L 333.588 187.956 L 333.896 187.128 L 334.183 186.293 L 334.450 185.450 L 334.696 184.602 L 334.921 183.747 L 335.125 182.888 L 335.308 182.023 L 335.470 181.155 L 335.610 180.282 L 335.729 179.407 L 335.827 178.529 L 335.902 177.648 L 335.957 176.766 L 335.989 175.883 L 336.000 175.000 L 335.989 174.117 Z" fill="black" fill-rule="evenodd"/>
</svg>
