<svg xmlns="http://www.w3.org/2000/svg" viewBox="0 0 600.000 1000">
  <path d="M 475.446 559.583 L 475.404 555.022 L 475.388 554.187 L 475.261 549.628 L 475.230 548.794 L 475.019 544.241 L 474.972 543.405 L 474.677 538.861 L 474.615 538.025 L 474.235 533.491 L 474.157 532.655 L 473.693 528.135 L 473.599 527.298 L 473.051 522.794 L 472.941 521.956 L 472.310 517.472 L 472.184 516.633 L 471.470 512.170 L 471.328 511.330 L 470.531 506.892 L 470.372 506.050 L 469.494 501.640 L 469.317 500.797 L 468.357 496.416 L 468.164 495.572 L 467.123 491.223 L 466.912 490.378 L 465.790 486.065 L 465.561 485.218 L 464.360 480.942 L 464.113 480.094 L 462.833 475.858 L 462.567 475.008 L 461.209 470.816 L 460.924 469.964 L 459.488 465.817 L 459.183 464.965 L 457.671 460.865 L 457.347 460.011 L 455.759 455.962 L 455.414 455.107 L 453.751 451.111 L 453.385 450.254 L 451.649 446.313 L 451.261 445.456 L 449.452 441.572 L 449.042 440.714 L 447.162 436.890 L 446.728 436.032 L 444.778 432.270 L 444.321 431.411 L 442.302 427.714 L 441.820 426.856 L 439.733 423.226 L 439.227 422.367 L 437.073 418.806 L 436.541 417.949 L 434.322 414.458 L 433.764 413.603 L 431.481 410.185 L 430.896 409.332 L 428.550 405.990 L 427.938 405.139 L 425.530 401.874 L 424.890 401.026 L 422.423 397.841 L 421.753 396.997 L 419.228 393.893 L 418.528 393.054 L 415.946 390.033 L 415.217 389.200 L 412.579 386.263 L 411.819 385.438 L 409.128 382.587 L 408.336 381.770 L 405.593 379.008 L 404.769 378.200 L 401.976 375.527 L 401.119 374.730 L 398.277 372.149 L 397.388 371.363 L 394.499 368.876 L 393.577 368.103 L 390.642 365.710 L 389.687 364.953 L 386.709 362.656 L 385.720 361.914 L 382.700 359.715 L 381.677 358.992 L 378.618 356.891 L 377.562 356.188 L 374.464 354.187 L 373.374 353.505 L 370.241 351.606 L 369.118 350.948 L 365.950 349.150 L 364.796 348.518 L 361.595 346.824 L 360.409 346.218 L 357.178 344.629 L 355.960 344.053 L 352.701 342.569 L 351.454 342.024 L 348.168 340.646 L 346.892 340.134 L 343.582 338.864 L 342.279 338.387 L 338.946 337.224 L 337.617 336.784 L 334.264 335.730 L 332.912 335.328 L 329.539 334.383 L 328.165 334.022 L 324.776 333.187 L 323.383 332.867 L 319.979 332.142 L 318.568 331.865 L 315.152 331.251 L 313.726 331.019 L 310.300 330.516 L 308.861 330.328 L 305.427 329.937 L 303.978 329.796 L 300.538 329.516 L 299.082 329.421 L 295.637 329.253 L 294.177 329.206 L 290.731 329.150 L 289.269 329.150 L 285.823 329.206 L 284.363 329.253 L 280.918 329.421 L 279.462 329.516 L 276.022 329.796 L 274.573 329.937 L 271.139 330.328 L 269.700 330.516 L 266.274 331.019 L 264.848 331.251 L 261.432 331.865 L 260.021 332.142 L 256.617 332.867 L 255.224 333.187 L 251.835 334.022 L 250.461 334.383 L 247.088 335.328 L 245.736 335.730 L 242.383 336.784 L 241.054 337.224 L 237.721 338.387 L 236.418 338.864 L 233.108 340.134 L 231.832 340.646 L 228.546 342.024 L 227.299 342.569 L 224.040 344.053 L 222.822 344.629 L 219.591 346.218 L 218.405 346.824 L 215.204 348.518 L 214.050 349.150 L 210.882 350.948 L 209.759 351.606 L 206.626 353.505 L 205.536 354.187 L 202.438 356.188 L 201.382 356.891 L 198.323 358.992 L 197.300 359.715 L 194.280 361.914 L 193.291 362.656 L 190.313 364.953 L 189.358 365.710 L 186.423 368.103 L 185.501 368.876 L 182.612 371.363 L 181.723 372.149 L 178.881 374.730 L 178.024 375.527 L 175.231 378.200 L 174.407 379.008 L 171.664 381.770 L 170.872 382.587 L 168.181 385.438 L 167.421 386.263 L 164.783 389.200 L 164.054 390.033 L 161.472 393.054 L 160.772 393.893 L 158.247 396.997 L 157.577 397.841 L 155.110 401.026 L 154.470 401.874 L 152.062 405.139 L 151.450 405.990 L 149.104 409.332 L 148.519 410.185 L 146.236 413.603 L 145.678 414.458 L 143.459 417.949 L 142.927 418.806 L 140.773 422.367 L 140.267 423.226 L 138.180 426.856 L 137.698 427.714 L 135.679 431.411 L 135.222 432.270 L 133.272 436.032 L 132.838 436.890 L 130.958 440.714 L 130.548 441.572 L 128.739 445.456 L 128.351 446.313 L 126.615 450.254 L 126.249 451.111 L 124.586 455.107 L 124.241 455.962 L 122.653 460.011 L 122.329 460.865 L 120.817 464.965 L 120.512 465.817 L 119.076 469.964 L 118.791 470.816 L 117.433 475.008 L 117.167 475.858 L 115.887 480.094 L 115.640 480.942 L 114.439 485.218 L 114.210 486.065 L 113.088 490.378 L 112.877 491.223 L 111.836 495.572 L 111.643 496.416 L 110.683 500.797 L 110.506 501.640 L 109.628 506.050 L 109.469 506.892 L 108.672 511.330 L 108.530 512.170 L 107.816 516.633 L 107.690 517.472 L 107.059 521.956 L 106.949 522.794 L 106.401 527.298 L 106.307 528.135 L 105.843 532.655 L 105.765 533.491 L 105.385 538.025 L 105.323 538.861 L 105.028 543.405 L 104.981 544.241 L 104.770 548.794 L 104.739 549.628 L 104.612 554.187 L 104.596 555.022 L 104.554 559.583 L 104.554 560.417 L 104.596 564.978 L 104.612 565.813 L 104.739 570.372 L 104.770 571.206 L 104.981 575.759 L 105.028 576.595 L 105.323 581.139 L 105.385 581.975 L 105.765 586.509 L 105.843 587.345 L 106.307 591.865 L 106.401 592.702 L 106.949 597.206 L 107.059 598.044 L 107.690 602.528 L 107.816 603.367 L 108.530 607.830 L 108.672 608.670 L 109.469 613.108 L 109.628 613.950 L 110.506 618.360 L 110.683 619.203 L 111.643 623.584 L 111.836 624.428 L 112.877 628.777 L 113.088 629.622 L 114.210 633.935 L 114.439 634.782 L 115.640 639.058 L 115.887 639.906 L 117.167 644.142 L 117.433 644.992 L 118.791 649.184 L 119.076 650.036 L 120.512 654.183 L 120.817 655.035 L 122.329 659.135 L 122.653 659.989 L 124.241 664.038 L 124.586 664.893 L 126.249 668.889 L 126.615 669.746 L 128.351 673.687 L 128.739 674.544 L 130.548 678.428 L 130.958 679.286 L 132.838 683.110 L 133.272 683.968 L 135.222 687.730 L 135.679 688.589 L 137.698 692.286 L 138.180 693.144 L 140.267 696.774 L 140.773 697.633 L 142.927 701.194 L 143.459 702.051 L 145.678 705.542 L 146.236 706.397 L 148.519 709.815 L 149.104 710.668 L 151.450 714.010 L 152.062 714.861 L 154.470 718.126 L 155.110 718.974 L 157.577 722.159 L 158.247 723.003 L 160.772 726.107 L 161.472 726.946 L 164.054 729.967 L 164.783 730.800 L 167.421 733.737 L 168.181 734.562 L 170.872 737.413 L 171.664 738.230 L 174.407 740.992 L 175.231 741.800 L 178.024 744.473 L 178.881 745.270 L 181.723 747.851 L 182.612 748.637 L 185.501 751.124 L 186.423 751.897 L 189.358 754.290 L 190.313 755.047 L 193.291 757.344 L 194.280 758.086 L 197.300 760.285 L 198.323 761.008 L 201.382 763.109 L 202.438 763.812 L 205.536 765.813 L 206.626 766.495 L 209.759 768.394 L 210.882 769.052 L 214.050 770.850 L 215.204 771.482 L 218.405 773.176 L 219.591 773.782 L 222.822 775.371 L 224.040 775.947 L 227.299 777.431 L 228.546 777.976 L 231.832 779.354 L 233.108 779.866 L 236.418 781.136 L 237.721 781.613 L 241.054 782.776 L 242.383 783.216 L 245.736 784.270 L 247.088 784.672 L 250.461 785.617 L 251.835 785.978 L 255.224 786.813 L 256.617 787.133 L 260.021 787.858 L 261.432 788.135 L 264.848 788.749 L 266.274 788.981 L 269.700 789.484 L 271.139 789.672 L 274.573 790.063 L 276.022 790.204 L 279.462 790.484 L 280.918 790.579 L 284.363 790.747 L 285.823 790.794 L 289.269 790.850 L 290.731 790.850 L 294.177 790.794 L 295.637 790.747 L 299.082 790.579 L 300.538 790.484 L 303.978 790.204 L 305.427 790.063 L 308.861 789.672 L 310.300 789.484 L 313.726 788.981 L 315.152 788.749 L 318.568 788.135 L 319.979 787.858 L 323.383 787.133 L 324.776 786.813 L 328.165 785.978 L 329.539 785.617 L 332.912 784.672 L 334.264 784.270 L 337.617 783.216 L 338.946 782.776 L 342.279 781.613 L 343.582 781.136 L 346.892 779.866 L 348.168 779.354 L 351.454 777.976 L 352.701 777.431 L 355.960 775.947 L 357.178 775.371 L 360.409 773.782 L 361.595 773.176 L 364.796 771.482 L 365.950 770.850 L 369.118 769.052 L 370.241 768.394 L 371.403 767.690 L 371.403 899.803 L 371.391 901.228 L 371.358 902.457 L 371.304 903.684 L 371.229 904.910 L 371.132 906.135 L 371.014 907.358 L 370.874 908.578 L 370.713 909.796 L 370.530 911.011 L 370.326 912.222 L 370.101 913.430 L 369.855 914.634 L 369.587 915.833 L 369.299 917.027 L 368.990 918.216 L 368.660 919.399 L 368.309 920.576 L 367.937 921.747 L 367.546 922.912 L 367.133 924.069 L 366.701 925.219 L 366.248 926.361 L 365.775 927.495 L 365.283 928.620 L 364.771 929.737 L 364.239 930.845 L 363.688 931.943 L 363.118 933.031 L 362.529 934.109 L 361.921 935.176 L 361.294 936.233 L 360.649 937.278 L 359.986 938.312 L 359.304 939.335 L 358.605 940.345 L 357.888 941.342 L 357.154 942.327 L 356.403 943.299 L 355.634 944.258 L 354.849 945.203 L 354.048 946.134 L 353.230 947.051 L 352.396 947.953 L 351.547 948.840 L 350.682 949.713 L 349.802 950.570 L 348.907 951.412 L 347.997 952.237 L 347.073 953.047 L 346.135 953.841 L 345.183 954.617 L 344.218 955.377 L 343.240 956.120 L 342.248 956.846 L 341.244 957.554 L 340.228 958.244 L 339.200 958.916 L 338.160 959.571 L 337.109 960.207 L 336.047 960.824 L 334.974 961.423 L 333.891 962.002 L 332.798 962.563 L 331.695 963.104 L 330.583 963.626 L 329.462 964.128 L 328.332 964.611 L 327.194 965.074 L 326.048 965.516 L 324.895 965.939 L 323.734 966.341 L 322.566 966.723 L 321.392 967.084 L 320.211 967.424 L 319.025 967.744 L 317.834 968.043 L 316.637 968.321 L 315.436 968.577 L 314.230 968.813 L 313.020 969.028 L 311.807 969.221 L 310.591 969.393 L 309.371 969.543 L 308.150 969.672 L 306.926 969.780 L 305.700 969.866 L 304.474 969.931 L 303.246 969.974 L 302.017 969.996 L 300.789 969.996 L 299.561 969.974 L 298.333 969.931 L 297.106 969.866 L 295.881 969.780 L 294.657 969.672 L 293.435 969.543 L 292.216 969.393 L 290.999 969.221 L 289.786 969.028 L 288.577 968.813 L 287.371 968.577 L 286.170 968.321 L 284.973 968.043 L 283.781 967.744 L 282.595 967.424 L 281.415 967.084 L 280.240 966.723 L 279.073 966.341 L 277.912 965.939 L 276.758 965.516 L 275.612 965.074 L 274.474 964.611 L 273.344 964.128 L 272.223 963.626 L 271.111 963.104 L 270.008 962.563 L 268.915 962.002 L 267.832 961.423 L 266.759 960.824 L 265.697 960.207 L 264.646 959.571 L 263.606 958.916 L 262.578 958.244 L 261.562 957.554 L 260.558 956.846 L 259.567 956.120 L 258.588 955.377 L 257.623 954.617 L 256.671 953.841 L 255.733 953.047 L 254.809 952.237 L 253.900 951.412 L 253.005 950.570 L 252.125 949.713 L 251.260 948.840 L 250.410 947.953 L 249.577 947.051 L 248.759 946.134 L 247.957 945.203 L 247.172 944.258 L 246.404 943.299 L 245.652 942.327 L 244.918 941.342 L 244.201 940.345 L 243.502 939.335 L 242.821 938.312 L 242.157 937.278 L 241.512 936.233 L 240.886 935.176 L 240.278 934.109 L 239.688 933.031 L 239.118 931.943 L 238.567 930.845 L 238.036 929.737 L 237.523 928.620 L 237.031 927.495 L 236.558 926.361 L 236.106 925.219 L 235.673 924.069 L 235.261 922.912 L 234.869 921.747 L 234.498 920.576 L 234.147 919.399 L 233.817 918.216 L 233.507 917.027 L 233.219 915.833 L 232.952 914.634 L 232.705 913.430 L 232.480 912.222 L 232.276 911.011 L 232.094 909.796 L 231.933 908.578 L 231.793 907.358 L 231.674 906.135 L 231.577 904.910 L 231.502 903.684 L 231.448 902.457 L 231.416 901.228 L 231.401 899.605 L 231.378 898.501 L 231.328 897.398 L 231.250 896.296 L 231.146 895.196 L 231.015 894.100 L 230.856 893.007 L 230.671 891.918 L 230.460 890.834 L 230.222 889.756 L 229.957 888.683 L 229.666 887.618 L 229.349 886.560 L 229.006 885.510 L 228.638 884.469 L 228.244 883.437 L 227.825 882.415 L 227.381 881.404 L 226.912 880.404 L 226.419 879.416 L 225.902 878.440 L 225.361 877.477 L 224.796 876.528 L 224.209 875.592 L 223.599 874.672 L 222.966 873.767 L 222.311 872.877 L 221.634 872.004 L 220.937 871.148 L 220.218 870.309 L 219.480 869.488 L 218.721 868.686 L 217.943 867.902 L 217.145 867.138 L 216.330 866.393 L 215.496 865.669 L 214.645 864.965 L 213.776 864.283 L 212.891 863.622 L 211.991 862.983 L 211.075 862.366 L 210.144 861.772 L 209.198 861.201 L 208.239 860.653 L 207.267 860.129 L 206.282 859.629 L 205.285 859.153 L 204.277 858.702 L 203.258 858.276 L 202.229 857.875 L 201.191 857.499 L 200.143 857.149 L 199.088 856.825 L 198.024 856.526 L 196.954 856.254 L 195.877 856.009 L 194.795 855.789 L 193.707 855.597 L 192.615 855.431 L 191.520 855.292 L 190.421 855.180 L 189.320 855.095 L 188.217 855.037 L 187.113 855.006 L 186.008 855.002 L 184.904 855.025 L 183.801 855.075 L 182.699 855.153 L 181.600 855.257 L 180.503 855.388 L 179.410 855.547 L 178.321 855.732 L 177.237 855.943 L 176.159 856.182 L 175.086 856.446 L 174.021 856.737 L 172.963 857.054 L 171.913 857.397 L 170.872 857.765 L 169.840 858.159 L 168.818 858.578 L 167.807 859.022 L 166.807 859.491 L 165.819 859.984 L 164.843 860.501 L 163.880 861.042 L 162.931 861.607 L 161.996 862.194 L 161.075 862.805 L 160.170 863.437 L 159.281 864.092 L 158.408 864.769 L 157.551 865.466 L 156.713 866.185 L 155.892 866.924 L 155.089 867.682 L 154.305 868.461 L 153.541 869.258 L 152.796 870.074 L 152.072 870.907 L 151.369 871.759 L 150.686 872.627 L 150.025 873.512 L 149.386 874.412 L 148.769 875.329 L 148.175 876.260 L 147.604 877.205 L 147.056 878.164 L 146.532 879.136 L 146.032 880.121 L 145.556 881.118 L 145.105 882.126 L 144.679 883.145 L 144.278 884.174 L 143.902 885.212 L 143.552 886.260 L 143.228 887.316 L 142.930 888.379 L 142.658 889.449 L 142.412 890.526 L 142.193 891.609 L 142.000 892.696 L 141.834 893.788 L 141.695 894.884 L 141.583 895.982 L 141.498 897.084 L 141.440 898.186 L 141.409 899.290 L 141.405 900.395 L 141.423 902.413 L 141.437 903.203 L 141.490 905.220 L 141.517 906.010 L 141.606 908.026 L 141.647 908.815 L 141.771 910.829 L 141.827 911.617 L 141.986 913.629 L 142.055 914.416 L 142.250 916.425 L 142.333 917.210 L 142.562 919.215 L 142.659 919.999 L 142.924 922.000 L 143.035 922.782 L 143.335 924.778 L 143.459 925.558 L 143.794 927.548 L 143.932 928.326 L 144.302 930.310 L 144.453 931.085 L 144.858 933.062 L 145.023 933.835 L 145.462 935.805 L 145.641 936.574 L 146.114 938.536 L 146.307 939.302 L 146.815 941.255 L 147.020 942.018 L 147.563 943.962 L 147.781 944.721 L 148.358 946.655 L 148.590 947.410 L 149.200 949.334 L 149.446 950.085 L 150.089 951.997 L 150.348 952.744 L 151.025 954.645 L 151.297 955.387 L 152.007 957.276 L 152.292 958.012 L 153.036 959.889 L 153.333 960.620 L 154.109 962.483 L 154.420 963.210 L 155.229 965.059 L 155.552 965.779 L 156.393 967.614 L 156.729 968.329 L 157.602 970.148 L 157.950 970.857 L 158.855 972.661 L 159.216 973.364 L 160.152 975.152 L 160.525 975.848 L 161.493 977.619 L 161.878 978.309 L 162.877 980.063 L 163.274 980.746 L 164.303 982.481 L 164.712 983.157 L 165.772 984.875 L 166.192 985.543 L 167.282 987.242 L 167.715 987.903 L 168.834 989.582 L 169.278 990.236 L 170.427 991.895 L 170.882 992.541 L 172.060 994.180 L 172.526 994.817 L 173.732 996.435 L 174.210 997.064 L 175.444 998.661 L 175.933 999.282 L 177.195 1000.856 L 177.695 1001.468 L 178.984 1003.021 L 179.494 1003.624 L 180.811 1005.153 L 181.332 1005.747 L 182.675 1007.253 L 183.206 1007.838 L 184.576 1009.321 L 185.117 1009.896 L 186.512 1011.354 L 187.063 1011.920 L 188.484 1013.353 L 189.045 1013.909 L 190.491 1015.317 L 191.062 1015.864 L 192.532 1017.246 L 193.112 1017.782 L 194.606 1019.139 L 195.196 1019.664 L 196.714 1020.995 L 197.312 1021.510 L 198.853 1022.813 L 199.461 1023.318 L 201.024 1024.594 L 201.641 1025.088 L 203.227 1026.337 L 203.851 1026.820 L 205.459 1028.040 L 206.092 1028.512 L 207.721 1029.704 L 208.362 1030.165 L 210.011 1031.328 L 210.661 1031.778 L 212.330 1032.912 L 212.987 1033.350 L 214.677 1034.455 L 215.341 1034.881 L 217.050 1035.956 L 217.722 1036.371 L 219.449 1037.416 L 220.128 1037.819 L 221.873 1038.833 L 222.559 1039.224 L 224.322 1040.207 L 225.015 1040.586 L 226.794 1041.538 L 227.494 1041.905 L 229.290 1042.826 L 229.996 1043.180 L 231.807 1044.069 L 232.519 1044.411 L 234.346 1045.269 L 235.064 1045.598 L 236.906 1046.423 L 237.630 1046.740 L 239.486 1047.533 L 240.215 1047.836 L 242.085 1048.596 L 242.819 1048.887 L 244.702 1049.615 L 245.441 1049.893 L 247.336 1050.587 L 248.080 1050.852 L 249.987 1051.512 L 250.736 1051.764 L 252.654 1052.391 L 253.407 1052.630 L 255.336 1053.223 L 256.093 1053.449 L 258.032 1054.008 L 258.793 1054.221 L 260.742 1054.746 L 261.506 1054.945 L 263.464 1055.436 L 264.231 1055.621 L 266.197 1056.077 L 266.968 1056.249 L 268.942 1056.671 L 269.716 1056.830 L 271.697 1057.217 L 272.473 1057.362 L 274.460 1057.714 L 275.239 1057.845 L 277.232 1058.162 L 278.013 1058.280 L 280.012 1058.562 L 280.795 1058.666 L 282.798 1058.913 L 283.582 1059.003 L 285.590 1059.215 L 286.376 1059.291 L 288.386 1059.468 L 289.174 1059.531 L 291.187 1059.672 L 291.975 1059.721 L 293.991 1059.827 L 294.780 1059.862 L 296.797 1059.932 L 297.586 1059.953 L 299.604 1059.989 L 300.394 1059.996 L 302.412 1059.996 L 303.202 1059.989 L 305.220 1059.953 L 306.010 1059.932 L 308.027 1059.862 L 308.816 1059.827 L 310.831 1059.721 L 311.620 1059.672 L 313.633 1059.531 L 314.420 1059.468 L 316.431 1059.291 L 317.217 1059.215 L 319.224 1059.003 L 320.009 1058.913 L 322.012 1058.666 L 322.795 1058.562 L 324.793 1058.280 L 325.574 1058.162 L 327.567 1057.845 L 328.346 1057.714 L 330.333 1057.362 L 331.110 1057.217 L 333.091 1056.830 L 333.864 1056.671 L 335.838 1056.249 L 336.609 1056.077 L 338.575 1055.621 L 339.343 1055.436 L 341.300 1054.945 L 342.065 1054.746 L 344.013 1054.221 L 344.774 1054.008 L 346.713 1053.449 L 347.470 1053.223 L 349.400 1052.630 L 350.152 1052.391 L 352.071 1051.764 L 352.819 1051.512 L 354.726 1050.852 L 355.470 1050.587 L 357.366 1049.893 L 358.105 1049.615 L 359.988 1048.887 L 360.722 1048.596 L 362.592 1047.836 L 363.321 1047.533 L 365.177 1046.740 L 365.900 1046.423 L 367.742 1045.598 L 368.460 1045.269 L 370.287 1044.411 L 370.999 1044.069 L 372.811 1043.180 L 373.517 1042.826 L 375.313 1041.905 L 376.012 1041.538 L 377.792 1040.586 L 378.485 1040.207 L 380.247 1039.224 L 380.933 1038.833 L 382.678 1037.819 L 383.358 1037.416 L 385.085 1036.371 L 385.757 1035.956 L 387.465 1034.881 L 388.130 1034.455 L 389.819 1033.350 L 390.476 1032.912 L 392.146 1031.778 L 392.795 1031.328 L 394.444 1030.165 L 395.086 1029.704 L 396.714 1028.512 L 397.348 1028.040 L 398.955 1026.820 L 399.580 1026.337 L 401.166 1025.088 L 401.782 1024.594 L 403.346 1023.318 L 403.953 1022.813 L 405.494 1021.510 L 406.093 1020.995 L 407.611 1019.664 L 408.200 1019.139 L 409.694 1017.782 L 410.274 1017.246 L 411.745 1015.864 L 412.315 1015.317 L 413.761 1013.909 L 414.322 1013.353 L 415.743 1011.920 L 416.294 1011.354 L 417.689 1009.896 L 418.231 1009.321 L 419.600 1007.838 L 420.131 1007.253 L 421.475 1005.747 L 421.995 1005.153 L 423.312 1003.624 L 423.822 1003.021 L 425.112 1001.468 L 425.611 1000.856 L 426.873 999.282 L 427.362 998.661 L 428.597 997.064 L 429.074 996.435 L 430.280 994.817 L 430.747 994.180 L 431.925 992.541 L 432.380 991.895 L 433.529 990.236 L 433.972 989.582 L 435.092 987.903 L 435.524 987.242 L 436.614 985.543 L 437.035 984.875 L 438.094 983.157 L 438.503 982.481 L 439.533 980.746 L 439.930 980.063 L 440.929 978.309 L 441.313 977.619 L 442.281 975.848 L 442.654 975.152 L 443.591 973.364 L 443.951 972.661 L 444.856 970.857 L 445.204 970.148 L 446.078 968.329 L 446.413 967.614 L 447.255 965.779 L 447.578 965.059 L 448.387 963.210 L 448.697 962.483 L 449.473 960.620 L 449.771 959.889 L 450.514 958.012 L 450.799 957.276 L 451.510 955.387 L 451.781 954.645 L 452.459 952.744 L 452.717 951.997 L 453.361 950.085 L 453.606 949.334 L 454.216 947.410 L 454.449 946.655 L 455.025 944.721 L 455.244 943.962 L 455.786 942.018 L 455.992 941.255 L 456.500 939.302 L 456.692 938.536 L 457.166 936.574 L 457.344 935.805 L 457.784 933.835 L 457.949 933.062 L 458.353 931.085 L 458.505 930.310 L 458.875 928.326 L 459.013 927.548 L 459.347 925.558 L 459.472 924.778 L 459.772 922.782 L 459.882 922.000 L 460.147 919.999 L 460.244 919.215 L 460.474 917.210 L 460.557 916.425 L 460.751 914.416 L 460.820 913.629 L 460.980 911.617 L 461.035 910.829 L 461.159 908.815 L 461.201 908.026 L 461.289 906.010 L 461.317 905.220 L 461.370 903.203 L 461.384 902.413 L 461.401 900.395 L 461.401 900.197 L 461.403 900.000 L 461.403 648.584 L 462.567 644.992 L 462.833 644.142 L 464.113 639.906 L 464.360 639.058 L 465.561 634.782 L 465.790 633.935 L 466.912 629.622 L 467.123 628.777 L 468.164 624.428 L 468.357 623.584 L 469.317 619.203 L 469.494 618.360 L 470.372 613.950 L 470.531 613.108 L 471.328 608.670 L 471.470 607.830 L 472.184 603.367 L 472.310 602.528 L 472.941 598.044 L 473.051 597.206 L 473.599 592.702 L 473.693 591.865 L 474.157 587.345 L 474.235 586.509 L 474.615 581.975 L 474.677 581.139 L 474.972 576.595 L 475.019 575.759 L 475.230 571.206 L 475.261 570.372 L 475.388 565.813 L 475.404 564.978 L 475.446 560.417 L 475.446 559.583 Z M 370.831 633.897 L 369.473 636.980 L 368.064 640.006 L 366.607 642.971 L 365.102 645.873 L 363.552 648.711 L 361.959 651.483 L 360.324 654.186 L 358.649 656.820 L 356.937 659.382 L 355.189 661.871 L 353.408 664.286 L 351.596 666.626 L 349.755 668.890 L 347.887 671.075 L 345.994 673.183 L 344.079 675.211 L 342.143 677.160 L 340.190 679.029 L 338.220 680.818 L 336.236 682.526 L 334.240 684.153 L 332.234 685.700 L 330.220 687.167 L 328.199 688.554 L 326.174 689.862 L 324.146 691.091 L 322.117 692.243 L 320.087 693.317 L 318.058 694.315 L 316.030 695.238 L 314.006 696.087 L 311.984 696.862 L 309.967 697.566 L 307.954 698.199 L 305.945 698.761 L 303.940 699.255 L 301.940 699.681 L 299.943 700.040 L 297.950 700.333 L 295.960 700.559 L 293.972 700.721 L 291.986 700.818 L 290.000 700.850 L 288.014 700.818 L 286.028 700.721 L 284.040 700.559 L 282.050 700.333 L 280.057 700.040 L 278.060 699.681 L 276.060 699.255 L 274.055 698.761 L 272.046 698.199 L 270.033 697.566 L 268.016 696.862 L 265.994 696.087 L 263.970 695.238 L 261.942 694.315 L 259.913 693.317 L 257.883 692.243 L 255.854 691.091 L 253.826 689.862 L 251.801 688.554 L 249.780 687.167 L 247.766 685.700 L 245.760 684.153 L 243.764 682.526 L 241.780 680.818 L 239.810 679.029 L 237.857 677.160 L 235.921 675.211 L 234.006 673.183 L 232.113 671.075 L 230.245 668.890 L 228.404 666.626 L 226.592 664.286 L 224.811 661.871 L 223.063 659.382 L 221.351 656.820 L 219.676 654.186 L 218.041 651.483 L 216.448 648.711 L 214.898 645.873 L 213.393 642.971 L 211.936 640.006 L 210.527 636.980 L 209.169 633.897 L 207.863 630.756 L 206.610 627.562 L 205.413 624.317 L 204.273 621.022 L 203.190 617.680 L 202.167 614.294 L 201.204 610.866 L 200.303 607.399 L 199.464 603.895 L 198.689 600.358 L 197.978 596.789 L 197.332 593.192 L 196.753 589.569 L 196.240 585.923 L 195.794 582.257 L 195.416 578.574 L 195.106 574.877 L 194.865 571.168 L 194.692 567.450 L 194.588 563.726 L 194.554 560.000 L 194.588 556.274 L 194.692 552.550 L 194.865 548.832 L 195.106 545.123 L 195.416 541.426 L 195.794 537.743 L 196.240 534.077 L 196.753 530.431 L 197.332 526.808 L 197.978 523.211 L 198.689 519.642 L 199.464 516.105 L 200.303 512.601 L 201.204 509.134 L 202.167 505.706 L 203.190 502.320 L 204.273 498.978 L 205.413 495.683 L 206.610 492.438 L 207.863 489.244 L 209.169 486.103 L 210.527 483.020 L 211.936 479.994 L 213.393 477.029 L 214.898 474.127 L 216.448 471.289 L 218.041 468.517 L 219.676 465.814 L 221.351 463.180 L 223.063 460.618 L 224.811 458.129 L 226.592 455.714 L 228.404 453.374 L 230.245 451.110 L 232.113 448.925 L 234.006 446.817 L 235.921 444.789 L 237.857 442.840 L 239.810 440.971 L 241.780 439.182 L 243.764 437.474 L 245.760 435.847 L 247.766 434.300 L 249.780 432.833 L 251.801 431.446 L 253.826 430.138 L 255.854 428.909 L 257.883 427.757 L 259.913 426.683 L 261.942 425.685 L 263.970 424.762 L 265.994 423.913 L 268.016 423.138 L 270.033 422.434 L 272.046 421.801 L 274.055 421.239 L 276.060 420.745 L 278.060 420.319 L 280.057 419.960 L 282.050 419.667 L 284.040 419.441 L 286.028 419.279 L 288.014 419.182 L 290.000 419.150 L 291.986 419.182 L 293.972 419.279 L 295.960 419.441 L 297.950 419.667 L 299.943 419.960 L 301.940 420.319 L 303.940 420.745 L 305.945 421.239 L 307.954 421.801 L 309.967 422.434 L 311.984 423.138 L 314.006 423.913 L 316.030 424.762 L 318.058 425.685 L 320.087 426.683 L 322.117 427.757 L 324.146 428.909 L 326.174 430.138 L 328.199 431.446 L 330.220 432.833 L 332.234 434.300 L 334.240 435.847 L 336.236 437.474 L 338.220 439.182 L 340.190 440.971 L 342.143 442.840 L 344.079 444.789 L 345.994 446.817 L 347.887 448.925 L 349.755 451.110 L 351.596 453.374 L 353.408 455.714 L 355.189 458.129 L 356.937 460.618 L 358.649 463.180 L 360.324 465.814 L 361.959 468.517 L 363.552 471.289 L 365.102 474.127 L 366.607 477.029 L 368.064 479.994 L 369.473 483.020 L 370.831 486.103 L 372.137 489.244 L 373.390 492.438 L 374.587 495.683 L 375.727 498.978 L 376.810 502.320 L 377.833 505.706 L 378.796 509.134 L 379.697 512.601 L 380.536 516.105 L 381.311 519.642 L 382.022 523.211 L 382.668 526.808 L 383.247 530.431 L 383.760 534.077 L 384.206 537.743 L 384.584 541.426 L 384.894 545.123 L 385.135 548.832 L 385.308 552.550 L 385.384 555.278 L 385.374 555.287 L 384.583 556.059 L 383.812 556.849 L 383.060 557.658 L 382.329 558.486 L 381.618 559.331 L 380.928 560.193 L 380.259 561.072 L 379.612 561.967 L 378.987 562.878 L 378.385 563.804 L 377.805 564.744 L 377.249 565.698 L 376.717 566.666 L 376.208 567.646 L 375.724 568.638 L 375.264 569.643 L 374.829 570.658 L 374.419 571.683 L 374.034 572.718 L 373.674 573.763 L 373.341 574.816 L 373.033 575.876 L 372.752 576.944 L 372.497 578.019 L 372.268 579.099 L 372.066 580.185 L 371.890 581.276 L 371.742 582.370 L 371.620 583.468 L 371.525 584.568 L 371.457 585.670 L 371.417 586.774 L 371.403 587.878 L 371.403 632.522 L 370.831 633.897 Z" fill="black" fill-rule="evenodd"/>
</svg>
