<svg xmlns="http://www.w3.org/2000/svg" viewBox="0 0 600.000 1000" width="600.000" height="1000">
  <path d="M 374.869 774.411 L 374.991 775.508 L 375.139 776.603 L 375.315 777.693 L 375.517 778.779 L 375.746 779.860 L 376.001 780.934 L 376.282 782.002 L 376.590 783.063 L 376.924 784.116 L 377.283 785.160 L 377.668 786.195 L 378.078 787.221 L 378.513 788.236 L 378.973 789.240 L 379.457 790.233 L 379.966 791.213 L 380.498 792.180 L 381.055 793.135 L 381.634 794.075 L 382.236 795.001 L 382.861 795.911 L 383.508 796.806 L 384.177 797.685 L 384.867 798.548 L 385.578 799.393 L 386.310 800.220 L 387.061 801.029 L 387.833 801.820 L 388.623 802.591 L 389.432 803.343 L 390.260 804.074 L 391.105 804.785 L 391.967 805.476 L 392.846 806.144 L 393.741 806.791 L 394.652 807.416 L 395.578 808.018 L 396.518 808.598 L 397.472 809.154 L 398.440 809.686 L 399.420 810.195 L 400.412 810.680 L 401.417 811.139 L 402.432 811.575 L 403.457 811.985 L 404.492 812.369 L 405.537 812.729 L 406.590 813.062 L 407.650 813.370 L 408.718 813.651 L 409.793 813.907 L 410.873 814.135 L 411.959 814.337 L 413.050 814.513 L 414.144 814.662 L 415.242 814.783 L 416.342 814.878 L 417.444 814.946 L 418.548 814.986 L 419.652 815.000 L 420.757 814.986 L 421.860 814.946 L 422.963 814.878 L 424.063 814.783 L 425.161 814.662 L 426.255 814.513 L 427.346 814.337 L 428.431 814.135 L 429.512 813.907 L 430.587 813.651 L 431.654 813.370 L 432.715 813.062 L 433.768 812.729 L 434.812 812.369 L 435.848 811.985 L 436.873 811.575 L 437.888 811.139 L 438.892 810.680 L 439.885 810.195 L 440.865 809.686 L 441.833 809.154 L 442.787 808.598 L 443.727 808.018 L 444.653 807.416 L 445.564 806.791 L 446.459 806.144 L 447.338 805.476 L 448.200 804.785 L 449.045 804.074 L 449.873 803.343 L 450.682 802.591 L 451.472 801.820 L 452.244 801.029 L 452.995 800.220 L 453.727 799.393 L 454.438 798.548 L 455.128 797.685 L 455.797 796.806 L 456.444 795.911 L 457.069 795.001 L 457.671 794.075 L 458.250 793.135 L 458.806 792.180 L 459.339 791.213 L 459.847 790.233 L 460.332 789.240 L 460.792 788.236 L 461.227 787.221 L 461.637 786.195 L 462.022 785.160 L 462.381 784.116 L 462.715 783.063 L 463.022 782.002 L 463.304 780.934 L 463.559 779.860 L 463.788 778.779 L 463.990 777.693 L 464.165 776.603 L 464.314 775.508 L 464.436 774.411 L 464.530 773.310 L 464.598 772.208 L 464.639 771.104 L 464.652 770.000 L 464.652 360.000 L 464.639 358.896 L 464.598 357.792 L 464.530 356.690 L 464.436 355.589 L 464.314 354.492 L 464.165 353.397 L 463.990 352.307 L 463.788 351.221 L 463.559 350.140 L 463.304 349.066 L 463.022 347.998 L 462.715 346.937 L 462.381 345.884 L 462.022 344.840 L 461.637 343.805 L 461.227 342.779 L 460.792 341.764 L 460.332 340.760 L 459.847 339.767 L 459.339 338.787 L 458.806 337.820 L 458.250 336.865 L 457.671 335.925 L 457.069 334.999 L 456.444 334.089 L 455.797 333.194 L 455.128 332.315 L 454.438 331.452 L 453.727 330.607 L 452.995 329.780 L 452.244 328.971 L 451.472 328.180 L 450.682 327.409 L 449.873 326.657 L 449.045 325.926 L 448.200 325.215 L 447.338 324.524 L 446.459 323.856 L 445.564 323.209 L 444.653 322.584 L 443.727 321.982 L 442.787 321.402 L 441.833 320.846 L 440.865 320.314 L 439.885 319.805 L 438.892 319.320 L 437.888 318.861 L 436.873 318.425 L 435.848 318.015 L 434.812 317.631 L 433.768 317.271 L 432.715 316.938 L 431.654 316.630 L 430.587 316.349 L 429.512 316.093 L 428.431 315.865 L 427.346 315.663 L 426.255 315.487 L 425.161 315.338 L 424.063 315.217 L 422.963 315.122 L 421.860 315.054 L 420.757 315.014 L 419.652 315.000 L 418.548 315.014 L 417.444 315.054 L 416.342 315.122 L 415.242 315.217 L 414.144 315.338 L 413.050 315.487 L 411.959 315.663 L 410.873 315.865 L 409.793 316.093 L 408.718 316.349 L 407.650 316.630 L 406.590 316.938 L 405.537 317.271 L 404.492 317.631 L 403.457 318.015 L 402.432 318.425 L 401.417 318.861 L 400.412 319.320 L 399.420 319.805 L 398.440 320.314 L 397.472 320.846 L 396.518 321.402 L 395.578 321.982 L 394.652 322.584 L 393.741 323.209 L 392.846 323.856 L 391.967 324.524 L 391.105 325.215 L 390.260 325.926 L 389.432 326.657 L 388.623 327.409 L 387.833 328.180 L 387.061 328.971 L 386.310 329.780 L 385.578 330.607 L 384.867 331.452 L 384.177 332.315 L 383.508 333.194 L 382.861 334.089 L 382.236 334.999 L 381.634 335.925 L 381.055 336.865 L 380.498 337.820 L 379.966 338.787 L 379.457 339.767 L 378.973 340.760 L 378.513 341.764 L 378.078 342.779 L 377.668 343.805 L 377.283 344.840 L 376.924 345.884 L 376.590 346.937 L 376.282 347.998 L 376.001 349.066 L 375.746 350.140 L 375.517 351.221 L 375.315 352.307 L 375.139 353.397 L 374.991 354.492 L 374.869 355.589 L 374.774 356.690 L 374.707 357.792 L 374.666 358.896 L 374.652 360.000 L 374.652 365.698 L 372.759 364.135 L 372.060 363.569 L 369.694 361.693 L 368.976 361.135 L 366.584 359.316 L 365.848 358.768 L 363.432 357.007 L 362.677 356.469 L 360.237 354.767 L 359.464 354.239 L 357.001 352.596 L 356.209 352.080 L 353.724 350.496 L 352.914 349.992 L 350.408 348.468 L 349.580 347.977 L 347.052 346.514 L 346.207 346.037 L 343.660 344.634 L 342.797 344.171 L 340.231 342.831 L 339.350 342.383 L 336.766 341.104 L 335.869 340.673 L 333.268 339.456 L 332.353 339.041 L 329.736 337.888 L 328.806 337.491 L 326.173 336.400 L 325.227 336.021 L 322.580 334.995 L 321.619 334.635 L 318.958 333.672 L 317.983 333.332 L 315.309 332.433 L 314.320 332.114 L 311.634 331.280 L 310.632 330.981 L 307.935 330.212 L 306.921 329.936 L 304.214 329.232 L 303.188 328.978 L 300.472 328.339 L 299.436 328.108 L 296.712 327.535 L 295.666 327.328 L 292.935 326.820 L 291.881 326.638 L 289.142 326.196 L 288.081 326.038 L 285.337 325.662 L 284.269 325.529 L 281.520 325.219 L 280.447 325.111 L 277.694 324.868 L 276.616 324.786 L 273.861 324.608 L 272.780 324.552 L 270.023 324.441 L 268.940 324.411 L 266.182 324.367 L 265.099 324.362 L 262.340 324.385 L 261.257 324.406 L 258.499 324.495 L 257.418 324.543 L 254.662 324.697 L 253.583 324.771 L 250.829 324.992 L 249.754 325.092 L 247.004 325.379 L 245.934 325.504 L 243.189 325.858 L 242.125 326.008 L 239.385 326.427 L 238.328 326.602 L 235.594 327.088 L 234.545 327.287 L 231.818 327.838 L 230.779 328.061 L 228.060 328.678 L 227.031 328.924 L 224.321 329.607 L 223.303 329.876 L 220.603 330.623 L 219.596 330.914 L 216.907 331.727 L 215.913 332.039 L 213.236 332.916 L 212.256 333.250 L 209.590 334.191 L 208.624 334.545 L 205.972 335.550 L 205.021 335.923 L 202.384 336.992 L 201.448 337.383 L 198.826 338.515 L 197.906 338.925 L 195.299 340.120 L 194.396 340.546 L 191.807 341.804 L 190.920 342.247 L 188.348 343.567 L 187.479 344.025 L 184.926 345.406 L 184.074 345.879 L 181.540 347.322 L 180.707 347.809 L 178.193 349.312 L 177.377 349.812 L 174.885 351.376 L 174.087 351.888 L 171.616 353.512 L 170.837 354.035 L 168.389 355.718 L 167.629 356.253 L 165.204 357.994 L 164.462 358.539 L 162.062 360.339 L 161.338 360.893 L 158.963 362.750 L 158.258 363.313 L 155.908 365.227 L 155.221 365.799 L 152.899 367.769 L 152.230 368.348 L 149.935 370.373 L 149.285 370.959 L 147.018 373.040 L 146.386 373.632 L 144.148 375.767 L 143.533 376.365 L 141.325 378.553 L 140.728 379.156 L 138.551 381.398 L 137.971 382.005 L 135.825 384.299 L 135.262 384.911 L 133.148 387.256 L 132.602 387.872 L 130.520 390.267 L 129.992 390.886 L 127.943 393.331 L 127.431 393.954 L 125.416 396.448 L 124.920 397.073 L 122.940 399.615 L 122.460 400.243 L 120.515 402.832 L 120.051 403.461 L 118.142 406.097 L 117.693 406.728 L 115.821 409.409 L 115.387 410.042 L 113.552 412.768 L 113.132 413.402 L 111.335 416.171 L 110.931 416.806 L 109.172 419.618 L 108.781 420.254 L 107.061 423.108 L 106.685 423.744 L 105.005 426.639 L 104.642 427.276 L 103.002 430.211 L 102.652 430.848 L 101.053 433.822 L 100.717 434.458 L 99.158 437.470 L 98.835 438.107 L 97.318 441.156 L 97.008 441.792 L 95.533 444.878 L 95.235 445.514 L 93.803 448.634 L 93.517 449.269 L 92.128 452.423 L 91.854 453.058 L 90.509 456.245 L 90.247 456.880 L 88.946 460.099 L 88.695 460.732 L 87.438 463.982 L 87.199 464.615 L 85.987 467.894 L 85.758 468.527 L 84.592 471.835 L 84.374 472.466 L 83.253 475.802 L 83.046 476.433 L 81.971 479.794 L 81.775 480.424 L 80.746 483.812 L 80.560 484.441 L 79.579 487.852 L 79.403 488.481 L 78.468 491.915 L 78.302 492.543 L 77.415 495.999 L 77.258 496.626 L 76.419 500.103 L 76.272 500.729 L 75.480 504.226 L 75.344 504.851 L 74.600 508.367 L 74.473 508.991 L 73.777 512.524 L 73.659 513.147 L 73.013 516.696 L 72.904 517.319 L 72.306 520.883 L 72.206 521.506 L 71.658 525.083 L 71.567 525.705 L 71.068 529.295 L 70.986 529.917 L 70.536 533.518 L 70.463 534.139 L 70.063 537.751 L 69.999 538.371 L 69.648 541.992 L 69.593 542.612 L 69.292 546.241 L 69.245 546.861 L 68.994 550.496 L 68.956 551.115 L 68.755 554.756 L 68.726 555.375 L 68.575 559.020 L 68.554 559.639 L 68.453 563.287 L 68.441 563.906 L 68.391 567.556 L 68.386 568.175 L 68.386 571.825 L 68.391 572.444 L 68.441 576.094 L 68.453 576.713 L 68.554 580.361 L 68.575 580.980 L 68.726 584.625 L 68.755 585.244 L 68.956 588.885 L 68.994 589.504 L 69.245 593.139 L 69.292 593.759 L 69.593 597.388 L 69.648 598.008 L 69.999 601.629 L 70.063 602.249 L 70.463 605.861 L 70.536 606.482 L 70.986 610.083 L 71.068 610.705 L 71.567 614.295 L 71.658 614.917 L 72.206 618.494 L 72.306 619.117 L 72.904 622.681 L 73.013 623.304 L 73.659 626.853 L 73.777 627.476 L 74.473 631.009 L 74.600 631.633 L 75.344 635.149 L 75.480 635.774 L 76.272 639.271 L 76.419 639.897 L 77.258 643.374 L 77.415 644.001 L 78.302 647.457 L 78.468 648.085 L 79.403 651.519 L 79.579 652.148 L 80.560 655.559 L 80.746 656.188 L 81.775 659.576 L 81.971 660.206 L 83.046 663.567 L 83.253 664.198 L 84.374 667.534 L 84.592 668.165 L 85.758 671.473 L 85.987 672.106 L 87.199 675.385 L 87.438 676.018 L 88.695 679.268 L 88.946 679.901 L 90.247 683.120 L 90.509 683.755 L 91.854 686.942 L 92.128 687.577 L 93.517 690.731 L 93.803 691.366 L 95.235 694.486 L 95.533 695.122 L 97.008 698.208 L 97.318 698.844 L 98.835 701.893 L 99.158 702.530 L 100.717 705.542 L 101.053 706.178 L 102.652 709.152 L 103.002 709.789 L 104.642 712.724 L 105.005 713.361 L 106.685 716.256 L 107.061 716.892 L 108.781 719.746 L 109.172 720.382 L 110.931 723.194 L 111.335 723.829 L 113.132 726.598 L 113.552 727.232 L 115.387 729.958 L 115.821 730.591 L 117.693 733.272 L 118.142 733.903 L 120.051 736.539 L 120.515 737.168 L 122.460 739.757 L 122.940 740.385 L 124.920 742.927 L 125.416 743.552 L 127.431 746.046 L 127.943 746.669 L 129.992 749.114 L 130.520 749.733 L 132.602 752.128 L 133.148 752.744 L 135.262 755.089 L 135.825 755.701 L 137.971 757.995 L 138.551 758.602 L 140.728 760.844 L 141.325 761.447 L 143.533 763.635 L 144.148 764.233 L 146.386 766.368 L 147.018 766.960 L 149.285 769.041 L 149.935 769.627 L 152.230 771.652 L 152.899 772.231 L 155.221 774.201 L 155.908 774.773 L 158.258 776.687 L 158.963 777.250 L 161.338 779.107 L 162.062 779.661 L 164.462 781.461 L 165.204 782.006 L 167.629 783.747 L 168.389 784.282 L 170.837 785.965 L 171.616 786.488 L 174.087 788.112 L 174.885 788.624 L 177.377 790.188 L 178.193 790.688 L 180.707 792.191 L 181.540 792.678 L 184.074 794.121 L 184.926 794.594 L 187.479 795.975 L 188.348 796.433 L 190.920 797.753 L 191.807 798.196 L 194.396 799.454 L 195.299 799.880 L 197.906 801.075 L 198.826 801.485 L 201.448 802.617 L 202.384 803.008 L 205.021 804.077 L 205.972 804.450 L 208.624 805.455 L 209.590 805.809 L 212.256 806.750 L 213.236 807.084 L 215.913 807.961 L 216.907 808.273 L 219.596 809.086 L 220.603 809.377 L 223.303 810.124 L 224.321 810.393 L 227.031 811.076 L 228.060 811.322 L 230.779 811.939 L 231.818 812.162 L 234.545 812.713 L 235.594 812.912 L 238.328 813.398 L 239.385 813.573 L 242.125 813.992 L 243.189 814.142 L 245.934 814.496 L 247.004 814.621 L 249.754 814.908 L 250.829 815.008 L 253.583 815.229 L 254.662 815.303 L 257.418 815.457 L 258.499 815.505 L 261.257 815.594 L 262.340 815.615 L 265.099 815.638 L 266.182 815.633 L 268.940 815.589 L 270.023 815.559 L 272.780 815.448 L 273.861 815.392 L 276.616 815.214 L 277.694 815.132 L 280.447 814.889 L 281.520 814.781 L 284.269 814.471 L 285.337 814.338 L 288.081 813.962 L 289.142 813.804 L 291.881 813.362 L 292.935 813.180 L 295.666 812.672 L 296.712 812.465 L 299.436 811.892 L 300.472 811.661 L 303.188 811.022 L 304.214 810.768 L 306.921 810.064 L 307.935 809.788 L 310.632 809.019 L 311.634 808.720 L 314.320 807.886 L 315.309 807.567 L 317.983 806.668 L 318.958 806.328 L 321.619 805.365 L 322.580 805.005 L 325.227 803.979 L 326.173 803.600 L 328.806 802.509 L 329.736 802.112 L 332.353 800.959 L 333.268 800.544 L 335.869 799.327 L 336.766 798.896 L 339.350 797.617 L 340.231 797.169 L 342.797 795.829 L 343.660 795.366 L 346.207 793.963 L 347.052 793.486 L 349.580 792.023 L 350.408 791.532 L 352.914 790.008 L 353.724 789.504 L 356.209 787.920 L 357.001 787.404 L 359.464 785.761 L 360.237 785.233 L 362.677 783.531 L 363.432 782.993 L 365.848 781.232 L 366.584 780.684 L 368.976 778.865 L 369.694 778.307 L 372.060 776.431 L 372.759 775.865 L 374.846 774.142 L 374.869 774.411 Z M 374.652 666.944 L 374.115 666.914 L 373.011 666.881 L 371.906 666.875 L 370.802 666.896 L 369.699 666.944 L 368.597 667.019 L 367.497 667.122 L 366.400 667.251 L 365.307 667.407 L 364.218 667.590 L 363.133 667.799 L 362.055 668.035 L 360.982 668.298 L 359.916 668.586 L 358.857 668.901 L 357.807 669.242 L 356.765 669.608 L 355.732 670.000 L 354.709 670.417 L 353.697 670.859 L 352.696 671.326 L 351.707 671.817 L 350.730 672.332 L 349.766 672.871 L 348.816 673.434 L 347.879 674.020 L 346.958 674.628 L 346.051 675.259 L 345.161 675.912 L 344.286 676.587 L 343.429 677.283 L 342.588 678.000 L 341.766 678.737 L 340.962 679.494 L 340.177 680.271 L 339.411 681.066 L 338.665 681.880 L 337.939 682.713 L 337.233 683.563 L 336.549 684.430 L 334.823 686.672 L 333.319 688.557 L 331.797 690.396 L 330.257 692.189 L 328.702 693.935 L 327.132 695.634 L 325.547 697.285 L 323.949 698.889 L 322.339 700.445 L 320.718 701.953 L 319.086 703.412 L 317.445 704.823 L 315.795 706.186 L 314.137 707.501 L 312.472 708.767 L 310.801 709.985 L 309.124 711.154 L 307.443 712.276 L 305.758 713.349 L 304.070 714.376 L 302.380 715.354 L 300.687 716.286 L 298.993 717.171 L 297.298 718.010 L 295.603 718.802 L 293.908 719.549 L 292.214 720.251 L 290.520 720.907 L 288.827 721.520 L 287.136 722.088 L 285.446 722.613 L 283.757 723.094 L 282.071 723.533 L 280.385 723.929 L 278.702 724.284 L 277.020 724.596 L 275.340 724.867 L 273.661 725.097 L 271.983 725.286 L 270.306 725.434 L 268.630 725.542 L 266.954 725.609 L 265.279 725.636 L 263.604 725.623 L 261.929 725.569 L 260.253 725.475 L 258.576 725.340 L 256.899 725.165 L 255.220 724.948 L 253.540 724.691 L 251.859 724.392 L 250.176 724.052 L 248.491 723.670 L 246.805 723.245 L 245.117 722.778 L 243.428 722.268 L 241.737 721.714 L 240.044 721.117 L 238.351 720.475 L 236.657 719.788 L 234.962 719.056 L 233.267 718.279 L 231.572 717.456 L 229.878 716.586 L 228.184 715.670 L 226.493 714.707 L 224.804 713.697 L 223.118 712.639 L 221.436 711.533 L 219.758 710.380 L 218.085 709.178 L 216.418 707.928 L 214.757 706.630 L 213.104 705.283 L 211.460 703.888 L 209.825 702.444 L 208.200 700.953 L 206.586 699.413 L 204.984 697.825 L 203.395 696.189 L 201.820 694.506 L 200.259 692.776 L 198.714 690.999 L 197.186 689.175 L 195.676 687.305 L 194.184 685.390 L 192.712 683.430 L 191.260 681.425 L 189.829 679.376 L 188.420 677.284 L 187.035 675.149 L 185.673 672.972 L 184.337 670.754 L 183.026 668.496 L 181.741 666.197 L 180.484 663.860 L 179.255 661.485 L 178.055 659.072 L 176.884 656.624 L 175.744 654.139 L 174.635 651.621 L 173.557 649.069 L 172.512 646.484 L 171.500 643.868 L 170.522 641.221 L 169.579 638.545 L 168.670 635.841 L 167.796 633.110 L 166.959 630.352 L 166.158 627.569 L 165.394 624.763 L 164.668 621.933 L 163.979 619.083 L 163.329 616.211 L 162.718 613.321 L 162.146 610.412 L 161.613 607.487 L 161.120 604.546 L 160.666 601.590 L 160.254 598.621 L 159.882 595.641 L 159.550 592.650 L 159.260 589.649 L 159.011 586.640 L 158.803 583.624 L 158.636 580.602 L 158.511 577.576 L 158.428 574.547 L 158.386 571.516 L 158.386 568.484 L 158.428 565.453 L 158.511 562.424 L 158.636 559.398 L 158.803 556.376 L 159.011 553.360 L 159.260 550.351 L 159.550 547.350 L 159.882 544.359 L 160.254 541.379 L 160.666 538.410 L 161.120 535.454 L 161.613 532.513 L 162.146 529.588 L 162.718 526.679 L 163.329 523.789 L 163.979 520.917 L 164.668 518.067 L 165.394 515.237 L 166.158 512.431 L 166.959 509.648 L 167.796 506.890 L 168.670 504.159 L 169.579 501.455 L 170.522 498.779 L 171.500 496.132 L 172.512 493.516 L 173.557 490.931 L 174.635 488.379 L 175.744 485.861 L 176.884 483.376 L 178.055 480.928 L 179.255 478.515 L 180.484 476.140 L 181.741 473.803 L 183.026 471.504 L 184.337 469.246 L 185.673 467.028 L 187.035 464.851 L 188.420 462.716 L 189.829 460.624 L 191.260 458.575 L 192.712 456.570 L 194.184 454.610 L 195.676 452.695 L 197.186 450.825 L 198.714 449.001 L 200.259 447.224 L 201.820 445.494 L 203.395 443.811 L 204.984 442.175 L 206.586 440.587 L 208.200 439.047 L 209.825 437.556 L 211.460 436.112 L 213.104 434.717 L 214.757 433.370 L 216.418 432.072 L 218.085 430.822 L 219.758 429.620 L 221.436 428.467 L 223.118 427.361 L 224.804 426.303 L 226.493 425.293 L 228.184 424.330 L 229.878 423.414 L 231.572 422.544 L 233.267 421.721 L 234.962 420.944 L 236.657 420.212 L 238.351 419.525 L 240.044 418.883 L 241.737 418.286 L 243.428 417.732 L 245.117 417.222 L 246.805 416.755 L 248.491 416.330 L 250.176 415.948 L 251.859 415.608 L 253.540 415.309 L 255.220 415.052 L 256.899 414.835 L 258.576 414.660 L 260.253 414.525 L 261.929 414.431 L 263.604 414.377 L 265.279 414.364 L 266.954 414.391 L 268.630 414.458 L 270.306 414.566 L 271.983 414.714 L 273.661 414.903 L 275.340 415.133 L 277.020 415.404 L 278.702 415.716 L 280.385 416.071 L 282.071 416.467 L 283.757 416.906 L 285.446 417.387 L 287.136 417.912 L 288.827 418.480 L 290.520 419.093 L 292.214 419.749 L 293.908 420.451 L 295.603 421.198 L 297.298 421.990 L 298.993 422.829 L 300.687 423.714 L 302.380 424.646 L 304.070 425.624 L 305.758 426.651 L 307.443 427.724 L 309.124 428.846 L 310.801 430.015 L 312.472 431.233 L 314.137 432.499 L 315.795 433.814 L 317.445 435.177 L 319.086 436.588 L 320.718 438.047 L 322.339 439.555 L 323.949 441.111 L 325.547 442.715 L 327.132 444.366 L 328.702 446.065 L 330.257 447.811 L 331.797 449.604 L 333.319 451.443 L 334.823 453.328 L 336.549 455.570 L 337.233 456.437 L 337.939 457.287 L 338.665 458.120 L 339.411 458.934 L 340.177 459.729 L 340.962 460.506 L 341.766 461.263 L 342.588 462.000 L 343.429 462.717 L 344.286 463.413 L 345.161 464.088 L 346.051 464.741 L 346.958 465.372 L 347.879 465.980 L 348.816 466.566 L 349.766 467.129 L 350.730 467.668 L 351.707 468.183 L 352.696 468.674 L 353.697 469.141 L 354.709 469.583 L 355.732 470.000 L 356.765 470.392 L 357.807 470.758 L 358.857 471.099 L 359.916 471.414 L 360.982 471.702 L 362.055 471.965 L 363.133 472.201 L 364.218 472.410 L 365.307 472.593 L 366.400 472.749 L 367.497 472.878 L 368.597 472.981 L 369.699 473.056 L 370.802 473.104 L 371.906 473.125 L 373.011 473.119 L 374.115 473.086 L 374.652 473.056 L 374.652 666.944 Z" fill="black" fill-rule="evenodd"/>
</svg>
