<svg xmlns="http://www.w3.org/2000/svg" viewBox="0 0 600.000 1000.000">
  <path d="M 459.866,837.208 L 459.703,839.411 L 459.433,841.603 L 459.055,843.779 L 458.571,845.934 L 457.982,848.063 L 457.289,850.160 L 456.495,852.221 L 455.600,854.240 L 454.606,856.213 L 453.518,858.135 L 452.336,860.001 L 451.064,861.806 L 449.705,863.548 L 448.263,865.220 L 446.740,866.820 L 445.140,868.343 L 443.468,869.785 L 441.726,871.144 L 439.921,872.416 L 438.055,873.598 L 436.133,874.686 L 434.160,875.680 L 432.141,876.575 L 430.080,877.369 L 427.983,878.062 L 425.854,878.651 L 423.699,879.135 L 421.523,879.513 L 419.331,879.783 L 417.128,879.946 L 414.920,880.000 L 290.000,880.000 L 287.792,879.946 L 285.589,879.783 L 283.397,879.513 L 281.221,879.135 L 279.066,878.651 L 276.937,878.062 L 274.840,877.369 L 272.779,876.575 L 270.760,875.680 L 268.787,874.686 L 266.865,873.598 L 264.999,872.416 L 263.194,871.144 L 261.452,869.785 L 259.780,868.343 L 258.180,866.820 L 256.657,865.220 L 255.215,863.548 L 253.856,861.806 L 252.584,860.001 L 251.402,858.135 L 250.314,856.213 L 249.320,854.240 L 248.425,852.221 L 247.631,850.160 L 246.938,848.063 L 246.349,845.934 L 245.865,843.779 L 245.487,841.603 L 245.217,839.411 L 245.054,837.208 L 245.000,835.000 L 245.054,832.792 L 245.217,830.589 L 245.487,828.397 L 245.865,826.221 L 246.349,824.066 L 246.938,821.937 L 247.631,819.840 L 248.425,817.779 L 249.320,815.760 L 250.314,813.787 L 251.402,811.865 L 251.803,811.232 L 247.815,810.540 L 245.648,810.109 L 237.182,808.208 L 235.039,807.671 L 226.676,805.357 L 224.562,804.716 L 216.322,801.994 L 214.243,801.250 L 206.146,798.127 L 204.106,797.281 L 196.172,793.765 L 194.176,792.820 L 186.425,788.919 L 184.477,787.878 L 176.926,783.600 L 175.032,782.465 L 167.700,777.822 L 165.864,776.595 L 158.769,771.598 L 156.995,770.283 L 150.154,764.944 L 148.446,763.543 L 141.876,757.875 L 140.239,756.391 L 133.954,750.408 L 132.392,748.846 L 126.409,742.561 L 124.925,740.924 L 119.257,734.354 L 117.856,732.646 L 112.517,725.805 L 111.202,724.031 L 106.205,716.936 L 104.978,715.100 L 100.335,707.768 L 99.200,705.874 L 94.922,698.323 L 93.881,696.375 L 89.980,688.624 L 89.035,686.628 L 85.519,678.694 L 84.673,676.654 L 81.550,668.557 L 80.806,666.478 L 78.084,658.238 L 77.443,656.124 L 75.129,647.761 L 74.592,645.618 L 72.691,637.152 L 72.260,634.985 L 70.776,626.435 L 70.452,624.250 L 69.390,615.638 L 69.173,613.440 L 68.535,604.786 L 68.427,602.580 L 68.214,593.904 L 68.214,591.696 L 68.427,583.020 L 68.535,580.814 L 69.173,572.160 L 69.390,569.962 L 70.452,561.350 L 70.776,559.165 L 72.260,550.615 L 72.691,548.448 L 74.592,539.982 L 75.129,537.839 L 77.443,529.476 L 78.084,527.362 L 80.806,519.122 L 81.550,517.043 L 84.673,508.946 L 85.519,506.906 L 89.035,498.972 L 89.980,496.976 L 93.881,489.225 L 94.922,487.277 L 99.200,479.726 L 100.335,477.832 L 104.978,470.500 L 106.205,468.664 L 111.202,461.569 L 112.517,459.795 L 117.856,452.954 L 119.257,451.246 L 124.925,444.676 L 126.409,443.039 L 132.392,436.754 L 133.954,435.192 L 140.239,429.209 L 141.876,427.725 L 148.446,422.057 L 150.154,420.656 L 156.995,415.317 L 158.769,414.002 L 165.864,409.005 L 167.700,407.778 L 175.032,403.135 L 176.926,402.000 L 184.477,397.722 L 186.425,396.681 L 194.176,392.780 L 196.172,391.835 L 204.106,388.319 L 206.146,387.473 L 214.243,384.350 L 216.322,383.606 L 224.562,380.884 L 226.676,380.243 L 235.039,377.929 L 237.182,377.392 L 245.648,375.491 L 247.815,375.060 L 256.365,373.576 L 258.550,373.252 L 267.162,372.190 L 269.360,371.973 L 278.014,371.335 L 280.220,371.227 L 288.896,371.014 L 291.104,371.014 L 299.780,371.227 L 301.986,371.335 L 310.640,371.973 L 312.838,372.190 L 321.450,373.252 L 323.635,373.576 L 332.185,375.060 L 334.352,375.491 L 342.818,377.392 L 344.961,377.929 L 353.324,380.243 L 355.438,380.884 L 363.678,383.606 L 365.757,384.350 L 373.854,387.473 L 375.894,388.319 L 383.828,391.835 L 385.824,392.780 L 393.575,396.681 L 395.523,397.722 L 403.074,402.000 L 404.968,403.135 L 412.300,407.778 L 414.136,409.005 L 421.231,414.002 L 423.005,415.317 L 429.846,420.656 L 431.554,422.057 L 438.124,427.725 L 439.761,429.209 L 446.046,435.192 L 447.608,436.754 L 453.591,443.039 L 455.075,444.676 L 460.743,451.246 L 462.144,452.954 L 467.483,459.795 L 468.798,461.569 L 473.795,468.664 L 475.022,470.500 L 479.665,477.832 L 480.800,479.726 L 485.078,487.277 L 486.119,489.225 L 490.020,496.976 L 490.965,498.972 L 494.481,506.906 L 495.327,508.946 L 498.450,517.043 L 499.194,519.122 L 501.916,527.362 L 502.557,529.476 L 504.871,537.839 L 505.408,539.982 L 507.309,548.448 L 507.740,550.615 L 509.224,559.165 L 509.548,561.350 L 510.610,569.962 L 510.827,572.160 L 511.465,580.814 L 511.573,583.020 L 511.786,591.696 L 511.786,593.904 L 511.573,602.580 L 511.465,604.786 L 510.827,613.440 L 510.610,615.638 L 509.548,624.250 L 509.224,626.435 L 507.740,634.985 L 507.309,637.152 L 505.408,645.618 L 504.871,647.761 L 502.557,656.124 L 501.916,658.238 L 499.194,666.478 L 498.450,668.557 L 495.327,676.654 L 494.481,678.694 L 490.965,686.628 L 490.020,688.624 L 486.119,696.375 L 485.078,698.323 L 480.800,705.874 L 479.665,707.768 L 475.022,715.100 L 473.795,716.936 L 468.798,724.031 L 467.483,725.805 L 462.144,732.646 L 460.743,734.354 L 459.920,735.307 L 459.920,835.000 L 459.866,837.208 Z M 369.920,602.800 L 369.974,600.592 L 370.137,598.389 L 370.407,596.197 L 370.785,594.021 L 371.269,591.866 L 371.858,589.737 L 372.551,587.640 L 373.345,585.579 L 374.240,583.560 L 375.234,581.587 L 376.322,579.665 L 377.504,577.799 L 378.776,575.994 L 380.135,574.252 L 381.577,572.580 L 383.100,570.980 L 384.700,569.457 L 386.372,568.015 L 388.114,566.656 L 389.919,565.384 L 391.785,564.202 L 393.707,563.114 L 395.680,562.120 L 397.699,561.225 L 399.760,560.431 L 401.857,559.738 L 403.986,559.149 L 406.141,558.665 L 408.317,558.287 L 410.509,558.017 L 412.712,557.854 L 414.920,557.800 L 417.027,557.852 L 416.112,554.544 L 414.083,548.402 L 411.755,542.368 L 409.134,536.454 L 406.225,530.676 L 403.037,525.048 L 399.576,519.583 L 395.852,514.295 L 391.872,509.196 L 387.647,504.298 L 383.187,499.613 L 378.502,495.153 L 373.604,490.928 L 368.505,486.948 L 363.217,483.224 L 357.752,479.763 L 352.124,476.575 L 346.346,473.666 L 340.432,471.045 L 334.398,468.717 L 328.256,466.688 L 322.021,464.963 L 315.710,463.546 L 309.337,462.440 L 302.917,461.648 L 296.466,461.172 L 290.000,461.014 L 283.534,461.172 L 277.083,461.648 L 270.663,462.440 L 264.290,463.546 L 257.979,464.963 L 251.744,466.688 L 245.602,468.717 L 239.568,471.045 L 233.654,473.666 L 227.876,476.575 L 222.248,479.763 L 216.783,483.224 L 211.495,486.948 L 206.396,490.928 L 201.498,495.153 L 196.813,499.613 L 192.353,504.298 L 188.128,509.196 L 184.148,514.295 L 180.424,519.583 L 176.963,525.048 L 173.775,530.676 L 170.866,536.454 L 168.245,542.368 L 165.917,548.402 L 163.888,554.544 L 162.163,560.779 L 160.746,567.090 L 159.640,573.463 L 158.848,579.883 L 158.372,586.334 L 158.214,592.800 L 158.372,599.266 L 158.848,605.717 L 159.640,612.137 L 160.746,618.510 L 162.163,624.821 L 163.888,631.056 L 165.917,637.198 L 168.245,643.232 L 170.866,649.146 L 173.775,654.924 L 176.963,660.552 L 180.424,666.017 L 184.148,671.305 L 188.128,676.404 L 192.353,681.302 L 196.813,685.987 L 201.498,690.447 L 206.396,694.672 L 211.495,698.652 L 216.783,702.376 L 222.248,705.837 L 227.876,709.025 L 233.654,711.934 L 239.568,714.555 L 245.602,716.883 L 251.744,718.912 L 257.979,720.637 L 264.290,722.054 L 270.663,723.160 L 277.083,723.952 L 283.534,724.428 L 290.000,724.586 L 296.466,724.428 L 302.917,723.952 L 309.337,723.160 L 315.710,722.054 L 322.021,720.637 L 328.256,718.912 L 334.398,716.883 L 340.432,714.555 L 346.346,711.934 L 352.124,709.025 L 357.752,705.837 L 363.217,702.376 L 368.505,698.652 L 369.920,697.548 L 369.920,602.800 Z" fill="black" fill-rule="evenodd"/>
</svg>
