<svg xmlns="http://www.w3.org/2000/svg" viewBox="0 0 600.000 1000">
  <path d="M 375.363 694.274 L 373.753 696.291 L 372.123 698.259 L 370.475 700.179 L 368.809 702.049 L 367.126 703.870 L 365.428 705.640 L 363.714 707.360 L 361.987 709.029 L 360.247 710.647 L 358.494 712.215 L 356.731 713.731 L 354.958 715.195 L 353.175 716.608 L 351.385 717.970 L 349.586 719.281 L 347.781 720.540 L 345.971 721.748 L 344.155 722.905 L 342.335 724.011 L 340.511 725.067 L 338.685 726.073 L 336.856 727.028 L 335.025 727.934 L 333.193 728.791 L 331.360 729.598 L 329.527 730.357 L 327.694 731.068 L 325.861 731.731 L 324.029 732.347 L 322.198 732.915 L 320.368 733.437 L 318.538 733.913 L 316.710 734.343 L 314.883 734.727 L 313.058 735.067 L 311.233 735.361 L 309.410 735.610 L 307.587 735.816 L 305.766 735.977 L 303.944 736.094 L 302.124 736.167 L 300.303 736.196 L 298.483 736.182 L 296.662 736.123 L 294.842 736.021 L 293.020 735.874 L 291.198 735.684 L 289.375 735.449 L 287.551 735.170 L 285.725 734.845 L 283.899 734.476 L 282.071 734.061 L 280.242 733.601 L 278.412 733.094 L 276.581 732.541 L 274.749 731.941 L 272.917 731.294 L 271.084 730.599 L 269.251 729.857 L 267.418 729.065 L 265.585 728.225 L 263.754 727.336 L 261.925 726.397 L 260.097 725.408 L 258.272 724.369 L 256.451 723.279 L 254.634 722.139 L 252.821 720.948 L 251.015 719.706 L 249.214 718.413 L 247.421 717.068 L 245.635 715.672 L 243.859 714.224 L 242.092 712.726 L 240.336 711.176 L 238.592 709.574 L 236.860 707.922 L 235.142 706.219 L 233.438 704.465 L 231.750 702.662 L 230.078 700.808 L 228.424 698.905 L 226.788 696.952 L 225.172 694.951 L 223.576 692.902 L 222.001 690.806 L 220.448 688.662 L 218.919 686.472 L 217.414 684.237 L 215.934 681.956 L 214.480 679.631 L 213.053 677.263 L 211.653 674.852 L 210.282 672.399 L 208.941 669.906 L 207.630 667.372 L 206.350 664.799 L 205.101 662.188 L 203.886 659.539 L 202.704 656.854 L 201.555 654.135 L 200.442 651.381 L 199.364 648.593 L 198.322 645.774 L 197.317 642.924 L 196.349 640.044 L 195.419 637.136 L 194.528 634.200 L 193.675 631.238 L 192.862 628.251 L 192.089 625.239 L 191.356 622.205 L 190.664 619.150 L 190.014 616.074 L 189.405 612.980 L 188.838 609.868 L 188.314 606.739 L 187.832 603.595 L 187.393 600.438 L 186.997 597.267 L 186.644 594.086 L 186.336 590.895 L 186.071 587.695 L 185.849 584.488 L 185.672 581.274 L 185.540 578.056 L 185.451 574.835 L 185.407 571.612 L 185.407 568.388 L 185.451 565.165 L 185.540 561.944 L 185.672 558.726 L 185.849 555.512 L 186.071 552.305 L 186.336 549.105 L 186.644 545.914 L 186.997 542.733 L 187.393 539.562 L 187.832 536.405 L 188.314 533.261 L 188.838 530.132 L 189.405 527.020 L 190.014 523.926 L 190.664 520.850 L 191.356 517.795 L 192.089 514.761 L 192.862 511.749 L 193.675 508.762 L 194.528 505.800 L 195.419 502.864 L 196.349 499.956 L 197.317 497.076 L 198.322 494.226 L 199.364 491.407 L 200.442 488.619 L 201.555 485.865 L 202.704 483.146 L 203.886 480.461 L 205.101 477.812 L 206.350 475.201 L 207.630 472.628 L 208.941 470.094 L 210.282 467.601 L 211.653 465.148 L 213.053 462.737 L 214.480 460.369 L 215.934 458.044 L 217.414 455.763 L 218.919 453.528 L 220.448 451.338 L 222.001 449.194 L 223.576 447.098 L 225.172 445.049 L 226.788 443.048 L 228.424 441.095 L 230.078 439.192 L 231.750 437.338 L 233.438 435.535 L 235.142 433.781 L 236.860 432.078 L 238.592 430.426 L 240.336 428.824 L 242.092 427.274 L 243.859 425.776 L 245.635 424.328 L 247.421 422.932 L 249.214 421.587 L 251.015 420.294 L 252.821 419.052 L 254.634 417.861 L 256.451 416.721 L 258.272 415.631 L 260.097 414.592 L 261.925 413.603 L 263.754 412.664 L 265.585 411.775 L 267.418 410.935 L 269.251 410.143 L 271.084 409.401 L 272.917 408.706 L 274.749 408.059 L 276.581 407.459 L 278.412 406.906 L 280.242 406.399 L 282.071 405.939 L 283.899 405.524 L 285.725 405.155 L 287.551 404.830 L 289.375 404.551 L 291.198 404.316 L 293.020 404.126 L 294.842 403.979 L 296.662 403.877 L 298.483 403.818 L 300.303 403.804 L 302.124 403.833 L 303.944 403.906 L 305.766 404.023 L 307.587 404.184 L 309.410 404.390 L 311.233 404.639 L 313.058 404.933 L 314.883 405.273 L 316.710 405.657 L 318.538 406.087 L 320.368 406.563 L 322.198 407.085 L 324.029 407.653 L 325.861 408.269 L 327.694 408.932 L 329.527 409.643 L 331.360 410.402 L 333.193 411.209 L 335.025 412.066 L 336.856 412.972 L 338.685 413.927 L 340.511 414.933 L 342.335 415.989 L 344.155 417.095 L 345.971 418.252 L 347.781 419.460 L 349.586 420.719 L 351.385 422.030 L 353.175 423.392 L 354.958 424.805 L 356.731 426.269 L 358.494 427.785 L 360.247 429.353 L 361.987 430.971 L 363.714 432.640 L 365.428 434.360 L 367.126 436.130 L 368.809 437.951 L 370.475 439.821 L 372.123 441.741 L 373.753 443.709 L 375.363 445.726 L 377.192 448.103 L 377.876 448.970 L 378.581 449.820 L 379.307 450.652 L 380.054 451.467 L 380.819 452.262 L 381.605 453.039 L 382.409 453.796 L 383.231 454.533 L 384.071 455.250 L 384.929 455.946 L 385.803 456.621 L 386.694 457.274 L 387.601 457.905 L 388.522 458.513 L 389.459 459.099 L 390.409 459.662 L 391.373 460.201 L 392.350 460.716 L 393.339 461.207 L 394.340 461.674 L 395.352 462.116 L 396.375 462.533 L 397.407 462.925 L 398.449 463.291 L 399.500 463.632 L 400.558 463.947 L 401.624 464.235 L 402.697 464.498 L 403.776 464.734 L 404.861 464.943 L 405.950 465.126 L 407.043 465.282 L 408.140 465.411 L 409.240 465.514 L 410.342 465.589 L 411.445 465.637 L 412.549 465.658 L 413.654 465.652 L 414.758 465.619 L 415.860 465.559 L 416.961 465.471 L 418.060 465.357 L 419.155 465.216 L 420.247 465.048 L 421.334 464.853 L 422.416 464.631 L 423.492 464.384 L 424.562 464.109 L 425.625 463.809 L 426.680 463.483 L 427.727 463.130 L 428.765 462.753 L 429.793 462.349 L 430.811 461.921 L 431.818 461.468 L 432.814 460.990 L 433.798 460.488 L 434.769 459.962 L 435.727 459.413 L 436.671 458.840 L 437.601 458.244 L 438.516 457.625 L 439.415 456.984 L 440.299 456.321 L 441.165 455.637 L 442.015 454.932 L 442.848 454.206 L 443.662 453.460 L 444.458 452.694 L 445.234 451.909 L 445.991 451.105 L 446.729 450.282 L 447.445 449.442 L 448.141 448.584 L 448.816 447.710 L 449.469 446.819 L 450.100 445.913 L 450.709 444.991 L 451.294 444.055 L 451.857 443.104 L 452.396 442.140 L 452.911 441.164 L 453.402 440.174 L 453.869 439.173 L 454.311 438.161 L 454.728 437.139 L 455.120 436.106 L 455.486 435.064 L 455.827 434.013 L 456.142 432.955 L 456.431 431.889 L 456.693 430.816 L 456.929 429.737 L 457.139 428.653 L 457.321 427.564 L 457.477 426.470 L 457.607 425.373 L 457.709 424.274 L 457.784 423.172 L 457.832 422.068 L 457.853 420.964 L 457.847 419.860 L 457.814 418.756 L 457.754 417.653 L 457.666 416.552 L 457.552 415.453 L 457.411 414.358 L 457.243 413.266 L 457.048 412.179 L 456.827 411.097 L 456.579 410.021 L 456.305 408.951 L 456.004 407.888 L 455.678 406.833 L 455.326 405.787 L 454.948 404.749 L 454.545 403.721 L 454.116 402.702 L 453.663 401.695 L 453.186 400.699 L 452.684 399.716 L 452.158 398.745 L 451.608 397.787 L 451.035 396.842 L 450.439 395.913 L 449.820 394.998 L 449.179 394.098 L 448.517 393.215 L 446.445 390.522 L 445.954 389.896 L 443.845 387.254 L 443.339 386.631 L 441.194 384.040 L 440.671 383.419 L 438.491 380.881 L 437.951 380.263 L 435.737 377.777 L 435.180 377.164 L 432.932 374.732 L 432.358 374.122 L 430.077 371.745 L 429.485 371.140 L 427.172 368.818 L 426.563 368.218 L 424.218 365.952 L 423.591 365.358 L 421.215 363.148 L 420.571 362.560 L 418.165 360.409 L 417.502 359.828 L 415.067 357.734 L 414.386 357.160 L 411.923 355.126 L 411.224 354.560 L 408.733 352.585 L 408.015 352.028 L 405.497 350.113 L 404.761 349.565 L 402.218 347.711 L 401.463 347.173 L 398.894 345.381 L 398.121 344.854 L 395.528 343.124 L 394.737 342.608 L 392.121 340.940 L 391.311 340.437 L 388.672 338.833 L 387.845 338.341 L 385.184 336.801 L 384.339 336.324 L 381.658 334.848 L 380.794 334.385 L 378.094 332.974 L 377.213 332.526 L 374.493 331.180 L 373.595 330.748 L 370.858 329.468 L 369.943 329.053 L 367.188 327.839 L 366.258 327.442 L 363.487 326.294 L 362.541 325.915 L 359.754 324.834 L 358.793 324.474 L 355.992 323.461 L 355.017 323.121 L 352.202 322.175 L 351.213 321.855 L 348.386 320.978 L 347.384 320.679 L 344.545 319.870 L 343.531 319.593 L 340.682 318.852 L 339.656 318.598 L 336.797 317.926 L 335.761 317.695 L 332.893 317.091 L 331.848 316.884 L 328.972 316.350 L 327.918 316.167 L 325.036 315.702 L 323.974 315.544 L 321.086 315.148 L 320.018 315.015 L 317.124 314.689 L 316.051 314.581 L 313.154 314.325 L 312.076 314.243 L 309.176 314.057 L 308.095 314.000 L 305.192 313.884 L 304.110 313.853 L 301.206 313.807 L 300.123 313.802 L 297.219 313.826 L 296.136 313.847 L 293.233 313.941 L 292.152 313.988 L 289.250 314.152 L 288.172 314.225 L 285.273 314.458 L 284.198 314.557 L 281.304 314.860 L 280.234 314.985 L 277.343 315.357 L 276.280 315.507 L 273.395 315.949 L 272.338 316.124 L 269.460 316.635 L 268.412 316.834 L 265.541 317.414 L 264.502 317.637 L 261.640 318.287 L 260.611 318.533 L 257.758 319.251 L 256.740 319.520 L 253.898 320.307 L 252.892 320.598 L 250.061 321.453 L 249.067 321.766 L 246.248 322.689 L 245.268 323.023 L 242.463 324.013 L 241.497 324.367 L 238.705 325.425 L 237.754 325.798 L 234.978 326.923 L 234.042 327.315 L 231.282 328.507 L 230.362 328.916 L 227.618 330.174 L 226.715 330.600 L 223.989 331.924 L 223.103 332.367 L 220.395 333.756 L 219.526 334.214 L 216.838 335.669 L 215.987 336.141 L 213.320 337.660 L 212.486 338.147 L 209.840 339.730 L 209.024 340.229 L 206.400 341.876 L 205.603 342.388 L 203.002 344.097 L 202.223 344.621 L 199.646 346.392 L 198.885 346.927 L 196.333 348.760 L 195.591 349.305 L 193.065 351.199 L 192.341 351.753 L 189.841 353.708 L 189.136 354.271 L 186.663 356.286 L 185.976 356.857 L 183.531 358.931 L 182.862 359.510 L 180.447 361.642 L 179.796 362.228 L 177.410 364.418 L 176.778 365.010 L 174.422 367.258 L 173.807 367.855 L 171.483 370.159 L 170.886 370.762 L 168.594 373.121 L 168.014 373.729 L 165.755 376.143 L 165.193 376.756 L 162.967 379.224 L 162.421 379.840 L 160.230 382.361 L 159.701 382.981 L 157.545 385.554 L 157.033 386.177 L 154.912 388.802 L 154.416 389.427 L 152.332 392.103 L 151.851 392.730 L 149.804 395.456 L 149.340 396.086 L 147.331 398.860 L 146.882 399.491 L 144.911 402.313 L 144.477 402.946 L 142.545 405.815 L 142.126 406.449 L 140.234 409.364 L 139.830 409.999 L 137.978 412.960 L 137.588 413.595 L 135.777 416.600 L 135.401 417.236 L 133.632 420.283 L 133.270 420.920 L 131.543 424.009 L 131.194 424.646 L 129.510 427.776 L 129.174 428.413 L 127.533 431.584 L 127.210 432.220 L 125.613 435.430 L 125.303 436.066 L 123.751 439.314 L 123.453 439.950 L 121.945 443.234 L 121.659 443.869 L 120.197 447.190 L 119.923 447.825 L 118.507 451.179 L 118.245 451.814 L 116.875 455.202 L 116.625 455.836 L 115.302 459.256 L 115.062 459.889 L 113.786 463.341 L 113.558 463.974 L 112.330 467.456 L 112.113 468.087 L 110.933 471.598 L 110.726 472.229 L 109.594 475.768 L 109.398 476.398 L 108.315 479.964 L 108.129 480.593 L 107.096 484.184 L 106.920 484.812 L 105.936 488.427 L 105.770 489.055 L 104.836 492.693 L 104.680 493.320 L 103.796 496.980 L 103.649 497.606 L 102.816 501.287 L 102.679 501.912 L 101.896 505.613 L 101.769 506.237 L 101.037 509.956 L 100.919 510.580 L 100.238 514.315 L 100.129 514.938 L 99.500 518.690 L 99.401 519.312 L 98.823 523.078 L 98.732 523.700 L 98.207 527.479 L 98.125 528.100 L 97.652 531.892 L 97.578 532.512 L 97.157 536.314 L 97.093 536.935 L 96.724 540.746 L 96.668 541.366 L 96.352 545.186 L 96.305 545.806 L 96.041 549.632 L 96.003 550.252 L 95.792 554.084 L 95.762 554.703 L 95.603 558.540 L 95.582 559.159 L 95.476 562.999 L 95.464 563.618 L 95.411 567.460 L 95.407 568.079 L 95.407 571.921 L 95.411 572.540 L 95.464 576.382 L 95.476 577.001 L 95.582 580.841 L 95.603 581.460 L 95.762 585.297 L 95.792 585.916 L 96.003 589.748 L 96.041 590.368 L 96.305 594.194 L 96.352 594.814 L 96.668 598.634 L 96.724 599.254 L 97.093 603.065 L 97.157 603.686 L 97.578 607.488 L 97.652 608.108 L 98.125 611.900 L 98.207 612.521 L 98.732 616.300 L 98.823 616.922 L 99.401 620.688 L 99.500 621.310 L 100.129 625.062 L 100.238 625.685 L 100.919 629.420 L 101.037 630.044 L 101.769 633.763 L 101.896 634.387 L 102.679 638.088 L 102.816 638.713 L 103.649 642.394 L 103.796 643.020 L 104.680 646.680 L 104.836 647.307 L 105.770 650.945 L 105.936 651.573 L 106.920 655.188 L 107.096 655.816 L 108.129 659.407 L 108.315 660.036 L 109.398 663.602 L 109.594 664.232 L 110.726 667.771 L 110.933 668.402 L 112.113 671.913 L 112.330 672.544 L 113.558 676.026 L 113.786 676.659 L 115.062 680.111 L 115.302 680.744 L 116.625 684.164 L 116.875 684.798 L 118.245 688.186 L 118.507 688.821 L 119.923 692.175 L 120.197 692.810 L 121.659 696.131 L 121.945 696.766 L 123.453 700.050 L 123.751 700.686 L 125.303 703.934 L 125.613 704.570 L 127.210 707.780 L 127.533 708.416 L 129.174 711.587 L 129.510 712.224 L 131.194 715.354 L 131.543 715.991 L 133.270 719.080 L 133.632 719.717 L 135.401 722.764 L 135.777 723.400 L 137.588 726.405 L 137.978 727.040 L 139.830 730.001 L 140.234 730.636 L 142.126 733.551 L 142.545 734.185 L 144.477 737.054 L 144.911 737.687 L 146.882 740.509 L 147.331 741.140 L 149.340 743.914 L 149.804 744.544 L 151.851 747.270 L 152.332 747.897 L 154.416 750.573 L 154.912 751.198 L 157.033 753.823 L 157.545 754.446 L 159.701 757.019 L 160.230 757.639 L 162.421 760.160 L 162.967 760.776 L 165.193 763.244 L 165.755 763.857 L 168.014 766.271 L 168.594 766.879 L 170.886 769.238 L 171.483 769.841 L 173.807 772.145 L 174.422 772.742 L 176.778 774.990 L 177.410 775.582 L 179.796 777.772 L 180.447 778.358 L 182.862 780.490 L 183.531 781.069 L 185.976 783.143 L 186.663 783.714 L 189.136 785.729 L 189.841 786.292 L 192.341 788.247 L 193.065 788.801 L 195.591 790.695 L 196.333 791.240 L 198.885 793.073 L 199.646 793.608 L 202.223 795.379 L 203.002 795.903 L 205.603 797.612 L 206.400 798.124 L 209.024 799.771 L 209.840 800.270 L 212.486 801.853 L 213.320 802.340 L 215.987 803.859 L 216.838 804.331 L 219.526 805.786 L 220.395 806.244 L 223.103 807.633 L 223.989 808.076 L 226.715 809.400 L 227.618 809.826 L 230.362 811.084 L 231.282 811.493 L 234.042 812.685 L 234.978 813.077 L 237.754 814.202 L 238.705 814.575 L 241.497 815.633 L 242.463 815.987 L 245.268 816.977 L 246.248 817.311 L 249.067 818.234 L 250.061 818.547 L 252.892 819.402 L 253.898 819.693 L 256.740 820.480 L 257.758 820.749 L 260.611 821.467 L 261.640 821.713 L 264.502 822.363 L 265.541 822.586 L 268.412 823.166 L 269.460 823.365 L 272.338 823.876 L 273.395 824.051 L 276.280 824.493 L 277.343 824.643 L 280.234 825.015 L 281.304 825.140 L 284.198 825.443 L 285.273 825.542 L 288.172 825.775 L 289.250 825.848 L 292.152 826.012 L 293.233 826.059 L 296.136 826.153 L 297.219 826.174 L 300.123 826.198 L 301.206 826.193 L 304.110 826.147 L 305.192 826.116 L 308.095 826.000 L 309.176 825.943 L 312.076 825.757 L 313.154 825.675 L 316.051 825.419 L 317.124 825.311 L 320.018 824.985 L 321.086 824.852 L 323.974 824.456 L 325.036 824.298 L 327.918 823.833 L 328.972 823.650 L 331.848 823.116 L 332.893 822.909 L 335.761 822.305 L 336.797 822.074 L 339.656 821.402 L 340.682 821.148 L 343.531 820.407 L 344.545 820.130 L 347.384 819.321 L 348.386 819.022 L 351.213 818.145 L 352.202 817.825 L 355.017 816.879 L 355.992 816.539 L 358.793 815.526 L 359.754 815.166 L 362.541 814.085 L 363.487 813.706 L 366.258 812.558 L 367.188 812.161 L 369.943 810.947 L 370.858 810.532 L 373.595 809.252 L 374.493 808.820 L 377.213 807.474 L 378.094 807.026 L 380.794 805.615 L 381.658 805.152 L 384.339 803.676 L 385.184 803.199 L 387.845 801.659 L 388.672 801.167 L 391.311 799.563 L 392.121 799.060 L 394.737 797.392 L 395.528 796.876 L 398.121 795.146 L 398.894 794.619 L 401.463 792.827 L 402.218 792.289 L 404.761 790.435 L 405.497 789.887 L 408.015 787.972 L 408.733 787.415 L 411.224 785.440 L 411.923 784.874 L 414.386 782.840 L 415.067 782.266 L 417.502 780.172 L 418.165 779.591 L 420.571 777.440 L 421.215 776.852 L 423.591 774.642 L 424.218 774.048 L 426.563 771.782 L 427.172 771.182 L 429.485 768.860 L 430.077 768.255 L 432.358 765.878 L 432.932 765.268 L 435.180 762.836 L 435.737 762.223 L 437.951 759.737 L 438.491 759.119 L 440.671 756.581 L 441.194 755.960 L 443.339 753.369 L 443.845 752.746 L 445.954 750.104 L 446.445 749.478 L 448.517 746.785 L 449.179 745.902 L 449.820 745.002 L 450.439 744.087 L 451.035 743.158 L 451.608 742.213 L 452.158 741.255 L 452.684 740.284 L 453.186 739.301 L 453.663 738.305 L 454.116 737.298 L 454.545 736.279 L 454.948 735.251 L 455.326 734.213 L 455.678 733.167 L 456.004 732.112 L 456.305 731.049 L 456.579 729.979 L 456.827 728.903 L 457.048 727.821 L 457.243 726.734 L 457.411 725.642 L 457.552 724.547 L 457.666 723.448 L 457.754 722.347 L 457.814 721.244 L 457.847 720.140 L 457.853 719.036 L 457.832 717.932 L 457.784 716.828 L 457.709 715.726 L 457.607 714.627 L 457.477 713.530 L 457.321 712.436 L 457.139 711.347 L 456.929 710.263 L 456.693 709.184 L 456.431 708.111 L 456.142 707.045 L 455.827 705.987 L 455.486 704.936 L 455.120 703.894 L 454.728 702.861 L 454.311 701.839 L 453.869 700.827 L 453.402 699.826 L 452.911 698.836 L 452.396 697.860 L 451.857 696.896 L 451.294 695.945 L 450.709 695.009 L 450.100 694.087 L 449.469 693.181 L 448.816 692.290 L 448.141 691.416 L 447.445 690.558 L 446.729 689.718 L 445.991 688.895 L 445.234 688.091 L 444.458 687.306 L 443.662 686.540 L 442.848 685.794 L 442.015 685.068 L 441.165 684.363 L 440.299 683.679 L 439.415 683.016 L 438.516 682.375 L 437.601 681.756 L 436.671 681.160 L 435.727 680.587 L 434.769 680.038 L 433.798 679.512 L 432.814 679.010 L 431.818 678.532 L 430.811 678.079 L 429.793 677.651 L 428.765 677.247 L 427.727 676.870 L 426.680 676.517 L 425.625 676.191 L 424.562 675.891 L 423.492 675.616 L 422.416 675.369 L 421.334 675.147 L 420.247 674.952 L 419.155 674.784 L 418.060 674.643 L 416.961 674.529 L 415.860 674.441 L 414.758 674.381 L 413.654 674.348 L 412.549 674.342 L 411.445 674.363 L 410.342 674.411 L 409.240 674.486 L 408.140 674.589 L 407.043 674.718 L 405.950 674.874 L 404.861 675.057 L 403.776 675.266 L 402.697 675.502 L 401.624 675.765 L 400.558 676.053 L 399.500 676.368 L 398.449 676.709 L 397.407 677.075 L 396.375 677.467 L 395.352 677.884 L 394.340 678.326 L 393.339 678.793 L 392.350 679.284 L 391.373 679.799 L 390.409 680.338 L 389.459 680.901 L 388.522 681.487 L 387.601 682.095 L 386.694 682.726 L 385.803 683.379 L 384.929 684.054 L 384.071 684.750 L 383.231 685.467 L 382.409 686.204 L 381.605 686.961 L 380.819 687.738 L 380.054 688.533 L 379.307 689.348 L 378.581 690.180 L 377.876 691.030 L 377.192 691.897 L 375.363 694.274 Z" fill="black" fill-rule="evenodd"/>
</svg>
