<svg xmlns="http://www.w3.org/2000/svg" viewBox="0 0 600.000 1000" width="600.000" height="1000">
  <path d="M 280.899 93.147 L 281.935 92.560 L 283.078 91.952 L 284.325 91.326 L 285.674 90.690 L 287.121 90.047 L 288.662 89.402 L 290.294 88.760 L 292.013 88.123 L 293.816 87.495 L 295.698 86.879 L 297.657 86.278 L 299.689 85.695 L 301.789 85.131 L 303.954 84.589 L 306.180 84.071 L 308.463 83.578 L 310.800 83.112 L 313.187 82.675 L 315.620 82.267 L 318.095 81.891 L 320.608 81.546 L 323.157 81.234 L 325.736 80.956 L 328.343 80.713 L 330.973 80.504 L 333.622 80.331 L 336.288 80.194 L 338.966 80.094 L 341.652 80.030 L 344.343 80.002 L 347.035 80.012 L 349.724 80.058 L 352.407 80.141 L 355.079 80.260 L 357.737 80.415 L 360.377 80.607 L 362.996 80.833 L 365.589 81.094 L 368.153 81.390 L 370.684 81.719 L 373.178 82.080 L 375.632 82.472 L 378.042 82.895 L 380.403 83.347 L 382.713 83.827 L 384.968 84.333 L 387.163 84.864 L 389.295 85.417 L 391.361 85.991 L 393.355 86.584 L 395.276 87.193 L 397.118 87.815 L 398.878 88.448 L 400.553 89.088 L 402.139 89.733 L 402.697 89.973 L 402.595 90.234 L 402.218 91.272 L 401.866 92.319 L 401.540 93.374 L 401.240 94.437 L 400.966 95.507 L 400.718 96.584 L 400.497 97.666 L 400.303 98.753 L 400.135 99.844 L 399.994 100.940 L 399.880 102.038 L 399.793 103.139 L 399.734 104.242 L 399.701 105.346 L 399.695 106.451 L 399.716 107.555 L 399.765 108.658 L 399.840 109.760 L 399.943 110.860 L 400.073 111.957 L 400.229 113.050 L 400.412 114.139 L 400.622 115.223 L 400.858 116.302 L 401.121 117.375 L 401.410 118.441 L 401.725 119.499 L 402.066 120.550 L 402.433 121.592 L 402.825 122.624 L 403.243 123.647 L 403.685 124.659 L 404.152 125.659 L 404.644 126.649 L 405.159 127.625 L 405.699 128.589 L 406.261 129.539 L 406.847 130.475 L 407.456 131.397 L 408.088 132.303 L 408.741 133.194 L 409.416 134.068 L 410.112 134.925 L 410.829 135.765 L 411.567 136.587 L 412.324 137.391 L 413.101 138.176 L 413.897 138.942 L 414.711 139.688 L 415.544 140.413 L 416.394 141.118 L 417.261 141.802 L 418.145 142.465 L 419.045 143.105 L 419.960 143.724 L 420.890 144.319 L 421.834 144.892 L 422.792 145.441 L 423.764 145.967 L 424.747 146.469 L 425.743 146.946 L 426.751 147.399 L 427.769 147.827 L 428.797 148.230 L 429.835 148.607 L 430.882 148.959 L 431.937 149.285 L 433.000 149.585 L 434.070 149.859 L 435.147 150.106 L 436.229 150.328 L 437.316 150.522 L 438.407 150.690 L 439.503 150.831 L 440.601 150.944 L 441.702 151.031 L 442.805 151.091 L 443.909 151.124 L 445.014 151.130 L 446.118 151.108 L 447.221 151.060 L 448.323 150.984 L 449.423 150.882 L 450.520 150.752 L 451.613 150.596 L 452.702 150.413 L 453.786 150.203 L 454.865 149.966 L 455.938 149.704 L 457.004 149.414 L 458.062 149.099 L 459.113 148.758 L 460.155 148.392 L 461.187 147.999 L 462.210 147.582 L 463.222 147.140 L 464.222 146.673 L 465.211 146.181 L 466.188 145.666 L 467.152 145.126 L 468.102 144.563 L 469.038 143.977 L 469.960 143.368 L 470.866 142.737 L 471.756 142.084 L 472.631 141.409 L 473.488 140.713 L 474.328 139.996 L 475.150 139.258 L 475.954 138.501 L 476.739 137.724 L 478.091 136.352 L 478.738 135.683 L 479.370 135.000 L 480.631 133.610 L 481.282 132.877 L 481.917 132.130 L 483.085 130.724 L 483.736 129.923 L 484.368 129.107 L 485.443 127.685 L 486.087 126.811 L 486.710 125.922 L 487.691 124.487 L 488.322 123.537 L 488.929 122.572 L 489.814 121.124 L 490.423 120.097 L 491.005 119.054 L 491.794 117.594 L 492.372 116.488 L 492.919 115.366 L 493.611 113.896 L 494.148 112.713 L 494.650 111.515 L 495.244 110.036 L 495.728 108.779 L 496.174 107.507 L 496.671 106.021 L 496.955 105.139 L 497.222 104.251 L 497.470 103.358 L 497.868 101.866 L 498.103 100.944 L 498.319 100.018 L 498.515 99.087 L 498.814 97.589 L 498.994 96.636 L 499.153 95.678 L 499.292 94.717 L 499.492 93.217 L 499.611 92.240 L 499.709 91.261 L 499.786 90.280 L 499.886 88.777 L 499.942 87.788 L 499.975 86.797 L 499.987 85.806 L 499.988 84.303 L 499.978 83.312 L 499.946 82.321 L 499.892 81.332 L 499.794 79.829 L 499.719 78.848 L 499.623 77.868 L 499.505 76.891 L 499.307 75.390 L 499.170 74.429 L 499.013 73.471 L 498.834 72.516 L 498.537 71.019 L 498.342 70.087 L 498.128 69.160 L 497.894 68.237 L 497.498 66.745 L 497.251 65.851 L 496.986 64.962 L 496.703 64.079 L 496.208 62.592 L 495.764 61.319 L 495.282 60.060 L 494.689 58.581 L 494.189 57.381 L 493.653 56.196 L 492.964 54.726 L 492.417 53.602 L 491.840 52.494 L 491.054 51.034 L 490.473 49.989 L 489.864 48.960 L 488.981 47.511 L 488.375 46.545 L 487.744 45.593 L 486.766 44.157 L 486.143 43.267 L 485.499 42.391 L 484.426 40.969 L 483.795 40.151 L 483.144 39.348 L 481.978 37.942 L 481.343 37.193 L 480.692 36.458 L 479.433 35.068 L 478.801 34.384 L 478.154 33.713 L 476.804 32.341 L 476.178 31.717 L 475.540 31.105 L 474.099 29.752 L 473.482 29.183 L 472.855 28.626 L 471.326 27.293 L 470.107 26.268 L 468.490 24.957 L 467.299 24.023 L 465.596 22.735 L 464.435 21.885 L 462.648 20.620 L 461.519 19.846 L 459.649 18.606 L 458.551 17.901 L 456.600 16.687 L 455.534 16.045 L 453.504 14.858 L 452.469 14.272 L 450.361 13.114 L 449.357 12.578 L 447.173 11.450 L 446.199 10.961 L 443.942 9.862 L 442.996 9.416 L 440.667 8.348 L 439.749 7.940 L 437.350 6.905 L 436.458 6.531 L 433.992 5.530 L 433.125 5.188 L 430.594 4.220 L 429.749 3.907 L 427.155 2.974 L 426.333 2.688 L 423.679 1.791 L 422.877 1.529 L 420.164 0.669 L 419.382 0.428 L 416.614 -0.394 L 415.849 -0.614 L 413.028 -1.398 L 412.280 -1.599 L 409.408 -2.345 L 408.676 -2.528 L 405.756 -3.234 L 405.039 -3.401 L 402.074 -4.067 L 401.370 -4.219 L 398.362 -4.844 L 397.670 -4.982 L 394.622 -5.565 L 393.941 -5.690 L 390.856 -6.231 L 390.186 -6.344 L 387.066 -6.843 L 386.405 -6.944 L 383.254 -7.400 L 382.601 -7.490 L 379.421 -7.903 L 378.776 -7.982 L 375.570 -8.351 L 374.932 -8.420 L 371.703 -8.745 L 371.070 -8.804 L 367.821 -9.086 L 367.194 -9.135 L 363.928 -9.372 L 363.304 -9.413 L 360.024 -9.605 L 359.403 -9.637 L 356.112 -9.784 L 355.494 -9.807 L 352.194 -9.909 L 351.578 -9.924 L 348.273 -9.980 L 347.658 -9.987 L 344.351 -9.998 L 343.736 -9.996 L 340.429 -9.963 L 339.814 -9.952 L 336.511 -9.873 L 335.894 -9.854 L 332.598 -9.731 L 331.979 -9.703 L 328.693 -9.534 L 328.071 -9.498 L 324.797 -9.284 L 324.172 -9.239 L 320.914 -8.981 L 320.283 -8.926 L 317.044 -8.624 L 316.408 -8.560 L 313.191 -8.213 L 312.549 -8.139 L 309.355 -7.748 L 308.707 -7.664 L 305.540 -7.230 L 304.884 -7.135 L 301.748 -6.658 L 301.082 -6.551 L 297.979 -6.032 L 297.304 -5.913 L 294.237 -5.351 L 293.551 -5.220 L 290.522 -4.616 L 289.824 -4.472 L 286.837 -3.827 L 286.126 -3.667 L 283.183 -2.982 L 282.458 -2.807 L 279.561 -2.082 L 278.822 -1.890 L 275.974 -1.126 L 275.219 -0.916 L 272.423 -0.113 L 271.650 0.117 L 268.909 0.958 L 268.117 1.209 L 265.432 2.087 L 264.621 2.361 L 261.995 3.275 L 261.163 3.574 L 258.599 4.524 L 257.744 4.851 L 255.244 5.835 L 254.364 6.192 L 251.931 7.210 L 251.026 7.600 L 250.595 7.792 L 250.160 7.631 L 249.116 7.271 L 248.063 6.938 L 247.002 6.630 L 245.934 6.349 L 244.860 6.093 L 243.779 5.865 L 242.693 5.663 L 241.603 5.487 L 240.508 5.338 L 239.411 5.217 L 238.310 5.122 L 237.208 5.054 L 236.104 5.014 L 235.000 5.000 L 233.896 5.014 L 232.792 5.054 L 231.690 5.122 L 230.589 5.217 L 229.492 5.338 L 228.397 5.487 L 227.307 5.663 L 226.221 5.865 L 225.140 6.093 L 224.066 6.349 L 222.998 6.630 L 221.937 6.938 L 220.884 7.271 L 219.840 7.631 L 218.805 8.015 L 217.779 8.425 L 216.764 8.861 L 215.760 9.320 L 214.767 9.805 L 213.787 10.314 L 212.820 10.846 L 211.865 11.402 L 210.925 11.982 L 209.999 12.584 L 209.089 13.209 L 208.194 13.856 L 207.315 14.524 L 206.452 15.215 L 205.607 15.926 L 204.780 16.657 L 203.971 17.409 L 203.180 18.180 L 202.409 18.971 L 201.657 19.780 L 200.926 20.607 L 200.215 21.452 L 199.524 22.315 L 198.856 23.194 L 198.209 24.089 L 197.584 24.999 L 196.982 25.925 L 196.402 26.865 L 195.846 27.820 L 195.314 28.787 L 194.805 29.767 L 194.320 30.760 L 193.861 31.764 L 193.425 32.779 L 193.015 33.805 L 192.631 34.840 L 192.271 35.884 L 191.938 36.937 L 191.630 37.998 L 191.349 39.066 L 191.093 40.140 L 190.865 41.221 L 190.663 42.307 L 190.487 43.397 L 190.338 44.492 L 190.217 45.589 L 190.122 46.690 L 190.054 47.792 L 190.014 48.896 L 190.000 50.000 L 190.000 450.000 L 190.000 770.000 L 190.014 771.104 L 190.054 772.208 L 190.122 773.310 L 190.217 774.411 L 190.338 775.508 L 190.487 776.603 L 190.663 777.693 L 190.865 778.779 L 191.093 779.860 L 191.349 780.934 L 191.630 782.002 L 191.938 783.063 L 192.271 784.116 L 192.631 785.160 L 193.015 786.195 L 193.425 787.221 L 193.861 788.236 L 194.320 789.240 L 194.805 790.233 L 195.314 791.213 L 195.846 792.180 L 196.402 793.135 L 196.982 794.075 L 197.584 795.001 L 198.209 795.911 L 198.856 796.806 L 199.524 797.685 L 200.215 798.548 L 200.926 799.393 L 201.657 800.220 L 202.409 801.029 L 203.180 801.820 L 203.971 802.591 L 204.780 803.343 L 205.607 804.074 L 206.452 804.785 L 207.315 805.476 L 208.194 806.144 L 209.089 806.791 L 209.999 807.416 L 210.925 808.018 L 211.865 808.598 L 212.820 809.154 L 213.787 809.686 L 214.767 810.195 L 215.760 810.680 L 216.764 811.139 L 217.779 811.575 L 218.805 811.985 L 219.840 812.369 L 220.884 812.729 L 221.937 813.062 L 222.998 813.370 L 224.066 813.651 L 225.140 813.907 L 226.221 814.135 L 227.307 814.337 L 228.397 814.513 L 229.492 814.662 L 230.589 814.783 L 231.690 814.878 L 232.792 814.946 L 233.896 814.986 L 235.000 815.000 L 236.104 814.986 L 237.208 814.946 L 238.310 814.878 L 239.411 814.783 L 240.508 814.662 L 241.603 814.513 L 242.693 814.337 L 243.779 814.135 L 244.860 813.907 L 245.934 813.651 L 247.002 813.370 L 248.063 813.062 L 249.116 812.729 L 250.160 812.369 L 251.195 811.985 L 252.221 811.575 L 253.236 811.139 L 254.240 810.680 L 255.233 810.195 L 256.213 809.686 L 257.180 809.154 L 258.135 808.598 L 259.075 808.018 L 260.001 807.416 L 260.911 806.791 L 261.806 806.144 L 262.685 805.476 L 263.548 804.785 L 264.393 804.074 L 265.220 803.343 L 266.029 802.591 L 266.820 801.820 L 267.591 801.029 L 268.343 800.220 L 269.074 799.393 L 269.785 798.548 L 270.476 797.685 L 271.144 796.806 L 271.791 795.911 L 272.416 795.001 L 273.018 794.075 L 273.598 793.135 L 274.154 792.180 L 274.686 791.213 L 275.195 790.233 L 275.680 789.240 L 276.139 788.236 L 276.575 787.221 L 276.985 786.195 L 277.369 785.160 L 277.729 784.116 L 278.062 783.063 L 278.370 782.002 L 278.651 780.934 L 278.907 779.860 L 279.135 778.779 L 279.337 777.693 L 279.513 776.603 L 279.662 775.508 L 279.783 774.411 L 279.878 773.310 L 279.946 772.208 L 279.986 771.104 L 280.000 770.000 L 280.000 495.000 L 470.000 495.000 L 471.104 494.986 L 472.208 494.946 L 473.310 494.878 L 474.411 494.783 L 475.508 494.662 L 476.603 494.513 L 477.693 494.337 L 478.779 494.135 L 479.860 493.907 L 480.934 493.651 L 482.002 493.370 L 483.063 493.062 L 484.116 492.729 L 485.160 492.369 L 486.195 491.985 L 487.221 491.575 L 488.236 491.139 L 489.240 490.680 L 490.233 490.195 L 491.213 489.686 L 492.180 489.154 L 493.135 488.598 L 494.075 488.018 L 495.001 487.416 L 495.911 486.791 L 496.806 486.144 L 497.685 485.476 L 498.548 484.785 L 499.393 484.074 L 500.220 483.343 L 501.029 482.591 L 501.820 481.820 L 502.591 481.029 L 503.343 480.220 L 504.074 479.393 L 504.785 478.548 L 505.476 477.685 L 506.144 476.806 L 506.791 475.911 L 507.416 475.001 L 508.018 474.075 L 508.598 473.135 L 509.154 472.180 L 509.686 471.213 L 510.195 470.233 L 510.680 469.240 L 511.139 468.236 L 511.575 467.221 L 511.985 466.195 L 512.369 465.160 L 512.729 464.116 L 513.062 463.063 L 513.370 462.002 L 513.651 460.934 L 513.907 459.860 L 514.135 458.779 L 514.337 457.693 L 514.513 456.603 L 514.662 455.508 L 514.783 454.411 L 514.878 453.310 L 514.946 452.208 L 514.986 451.104 L 515.000 450.000 L 514.986 448.896 L 514.946 447.792 L 514.878 446.690 L 514.783 445.589 L 514.662 444.492 L 514.513 443.397 L 514.337 442.307 L 514.135 441.221 L 513.907 440.140 L 513.651 439.066 L 513.370 437.998 L 513.062 436.937 L 512.729 435.884 L 512.369 434.840 L 511.985 433.805 L 511.575 432.779 L 511.139 431.764 L 510.680 430.760 L 510.195 429.767 L 509.686 428.787 L 509.154 427.820 L 508.598 426.865 L 508.018 425.925 L 507.416 424.999 L 506.791 424.089 L 506.144 423.194 L 505.476 422.315 L 504.785 421.452 L 504.074 420.607 L 503.343 419.780 L 502.591 418.971 L 501.820 418.180 L 501.029 417.409 L 500.220 416.657 L 499.393 415.926 L 498.548 415.215 L 497.685 414.524 L 496.806 413.856 L 495.911 413.209 L 495.001 412.584 L 494.075 411.982 L 493.135 411.402 L 492.180 410.846 L 491.213 410.314 L 490.233 409.805 L 489.240 409.320 L 488.236 408.861 L 487.221 408.425 L 486.195 408.015 L 485.160 407.631 L 484.116 407.271 L 483.063 406.938 L 482.002 406.630 L 480.934 406.349 L 479.860 406.093 L 478.779 405.865 L 477.693 405.663 L 476.603 405.487 L 475.508 405.338 L 474.411 405.217 L 473.310 405.122 L 472.208 405.054 L 471.104 405.014 L 470.000 405.000 L 280.000 405.000 L 280.000 93.688 L 280.899 93.147 Z" fill="black" fill-rule="evenodd"/>
</svg>
