<svg xmlns="http://www.w3.org/2000/svg" viewBox="0 0 600.000 1000">
  <path d="M 394.733 947.791 L 394.528 950.382 L 394.264 952.968 L 393.941 955.547 L 393.561 958.118 L 393.122 960.680 L 392.626 963.231 L 392.072 965.770 L 391.461 968.296 L 390.793 970.808 L 390.069 973.304 L 389.288 975.783 L 388.452 978.244 L 387.560 980.685 L 386.613 983.105 L 385.611 985.504 L 384.556 987.879 L 383.447 990.230 L 382.286 992.555 L 381.072 994.853 L 379.806 997.123 L 378.490 999.364 L 377.123 1001.575 L 375.707 1003.754 L 374.242 1005.900 L 372.728 1008.013 L 371.167 1010.092 L 369.560 1012.134 L 367.907 1014.140 L 366.209 1016.107 L 364.467 1018.036 L 362.682 1019.925 L 360.854 1021.773 L 358.986 1023.580 L 357.077 1025.343 L 355.128 1027.064 L 353.142 1028.739 L 351.117 1030.369 L 349.057 1031.954 L 346.961 1033.491 L 344.831 1034.980 L 342.668 1036.421 L 340.473 1037.813 L 338.247 1039.154 L 335.992 1040.445 L 333.707 1041.685 L 331.395 1042.873 L 329.057 1044.008 L 326.694 1045.090 L 324.307 1046.119 L 321.898 1047.093 L 319.467 1048.012 L 317.016 1048.877 L 314.546 1049.686 L 312.058 1050.438 L 309.554 1051.135 L 307.035 1051.774 L 304.502 1052.357 L 301.957 1052.882 L 299.400 1053.349 L 296.833 1053.758 L 294.258 1054.110 L 291.676 1054.403 L 289.087 1054.638 L 286.494 1054.814 L 283.898 1054.931 L 281.300 1054.990 L 278.700 1054.990 L 276.102 1054.931 L 273.506 1054.814 L 270.913 1054.638 L 268.324 1054.403 L 265.742 1054.110 L 263.167 1053.758 L 260.600 1053.349 L 258.043 1052.882 L 255.498 1052.357 L 252.965 1051.774 L 250.446 1051.135 L 247.942 1050.438 L 245.454 1049.686 L 242.984 1048.877 L 240.533 1048.012 L 238.102 1047.093 L 235.693 1046.119 L 233.306 1045.090 L 230.943 1044.008 L 228.605 1042.873 L 226.293 1041.685 L 224.008 1040.445 L 221.753 1039.154 L 219.527 1037.813 L 217.332 1036.421 L 215.169 1034.980 L 213.039 1033.491 L 210.943 1031.954 L 208.883 1030.369 L 206.858 1028.739 L 204.872 1027.064 L 202.923 1025.343 L 201.014 1023.580 L 199.146 1021.773 L 197.318 1019.925 L 195.533 1018.036 L 193.791 1016.107 L 192.093 1014.140 L 190.440 1012.134 L 188.833 1010.092 L 187.272 1008.013 L 185.758 1005.900 L 184.293 1003.754 L 182.877 1001.575 L 181.510 999.364 L 180.194 997.123 L 178.928 994.853 L 177.714 992.555 L 176.553 990.230 L 175.444 987.879 L 174.389 985.504 L 173.387 983.105 L 172.440 980.685 L 171.548 978.244 L 170.712 975.783 L 169.931 973.304 L 169.207 970.808 L 168.539 968.296 L 167.928 965.770 L 167.374 963.231 L 166.878 960.680 L 166.439 958.118 L 166.059 955.547 L 165.736 952.968 L 165.472 950.382 L 165.267 947.791 L 165.120 945.196 L 165.032 942.599 L 164.997 939.491 L 164.971 938.387 L 164.918 937.284 L 164.838 936.183 L 164.731 935.083 L 164.596 933.987 L 164.435 932.895 L 164.248 931.806 L 164.033 930.723 L 163.792 929.645 L 163.525 928.573 L 163.232 927.509 L 162.912 926.451 L 162.567 925.402 L 162.195 924.362 L 161.799 923.331 L 161.377 922.311 L 160.931 921.300 L 160.460 920.302 L 159.964 919.315 L 159.444 918.340 L 158.901 917.379 L 158.334 916.431 L 157.744 915.497 L 157.131 914.578 L 156.496 913.675 L 155.839 912.787 L 155.160 911.915 L 154.461 911.061 L 153.740 910.224 L 152.999 909.405 L 152.238 908.604 L 151.458 907.823 L 150.659 907.060 L 149.841 906.318 L 149.006 905.596 L 148.153 904.894 L 147.283 904.214 L 146.396 903.555 L 145.494 902.918 L 144.576 902.304 L 143.644 901.712 L 142.697 901.143 L 141.737 900.598 L 140.763 900.076 L 139.777 899.579 L 138.779 899.106 L 137.770 898.657 L 136.750 898.233 L 135.720 897.835 L 134.680 897.462 L 133.632 897.114 L 132.575 896.793 L 131.511 896.497 L 130.440 896.228 L 129.363 895.985 L 128.280 895.768 L 127.192 895.578 L 126.099 895.415 L 125.003 895.279 L 123.904 895.170 L 122.803 895.087 L 121.700 895.032 L 120.596 895.004 L 119.491 895.003 L 118.387 895.029 L 117.284 895.082 L 116.183 895.162 L 115.083 895.269 L 113.987 895.404 L 112.895 895.565 L 111.806 895.752 L 110.723 895.967 L 109.645 896.208 L 108.573 896.475 L 107.509 896.768 L 106.451 897.088 L 105.402 897.433 L 104.362 897.805 L 103.331 898.201 L 102.311 898.623 L 101.300 899.069 L 100.302 899.540 L 99.315 900.036 L 98.340 900.556 L 97.379 901.099 L 96.431 901.666 L 95.497 902.256 L 94.578 902.869 L 93.675 903.504 L 92.787 904.161 L 91.915 904.840 L 91.061 905.539 L 90.224 906.260 L 89.405 907.001 L 88.604 907.762 L 87.823 908.542 L 87.060 909.341 L 86.318 910.159 L 85.596 910.994 L 84.894 911.847 L 84.214 912.717 L 83.555 913.604 L 82.918 914.506 L 82.304 915.424 L 81.712 916.356 L 81.143 917.303 L 80.598 918.263 L 80.076 919.237 L 79.579 920.223 L 79.106 921.221 L 78.657 922.230 L 78.233 923.250 L 77.835 924.280 L 77.462 925.320 L 77.114 926.368 L 76.793 927.425 L 76.497 928.489 L 76.228 929.560 L 75.985 930.637 L 75.768 931.720 L 75.578 932.808 L 75.415 933.901 L 75.279 934.997 L 75.170 936.096 L 75.087 937.197 L 75.032 938.300 L 75.004 939.404 L 75.003 940.509 L 75.044 944.124 L 75.067 945.141 L 75.189 948.755 L 75.235 949.771 L 75.439 953.382 L 75.508 954.396 L 75.794 958.001 L 75.886 959.014 L 76.253 962.612 L 76.368 963.622 L 76.816 967.210 L 76.954 968.218 L 77.483 971.795 L 77.643 972.800 L 78.253 976.364 L 78.436 977.364 L 79.127 980.914 L 79.332 981.910 L 80.103 985.443 L 80.330 986.434 L 81.181 989.949 L 81.431 990.935 L 82.360 994.430 L 82.633 995.409 L 83.641 998.882 L 83.935 999.856 L 85.022 1003.305 L 85.338 1004.271 L 86.502 1007.695 L 86.840 1008.654 L 88.081 1012.051 L 88.441 1013.002 L 89.759 1016.370 L 90.140 1017.312 L 91.533 1020.649 L 91.936 1021.583 L 93.404 1024.888 L 93.827 1025.813 L 95.370 1029.083 L 95.814 1029.998 L 97.430 1033.233 L 97.895 1034.138 L 99.584 1037.335 L 100.069 1038.229 L 101.830 1041.388 L 102.335 1042.270 L 104.167 1045.388 L 104.692 1046.259 L 106.593 1049.335 L 107.138 1050.194 L 109.108 1053.226 L 109.672 1054.073 L 111.711 1057.059 L 112.294 1057.893 L 114.399 1060.833 L 115.001 1061.653 L 117.172 1064.544 L 117.792 1065.351 L 120.029 1068.192 L 120.667 1068.984 L 122.967 1071.775 L 123.622 1072.552 L 125.985 1075.290 L 126.658 1076.052 L 129.082 1078.736 L 129.772 1079.483 L 132.256 1082.111 L 132.962 1082.843 L 135.505 1085.414 L 136.228 1086.129 L 138.828 1088.642 L 139.567 1089.341 L 142.223 1091.795 L 142.978 1092.477 L 145.689 1094.870 L 146.459 1095.534 L 149.223 1097.866 L 150.008 1098.512 L 152.824 1100.781 L 153.624 1101.410 L 156.490 1103.614 L 157.304 1104.225 L 160.220 1106.363 L 161.046 1106.955 L 164.010 1109.028 L 164.850 1109.601 L 167.859 1111.606 L 168.712 1112.160 L 171.766 1114.096 L 172.631 1114.631 L 175.728 1116.498 L 176.605 1117.013 L 179.744 1118.809 L 180.632 1119.305 L 183.810 1121.029 L 184.710 1121.504 L 187.926 1123.157 L 188.836 1123.612 L 192.089 1125.191 L 193.009 1125.625 L 196.297 1127.130 L 197.226 1127.543 L 200.547 1128.974 L 201.486 1129.366 L 204.838 1130.722 L 205.785 1131.092 L 209.167 1132.372 L 210.123 1132.721 L 213.533 1133.923 L 214.496 1134.251 L 217.933 1135.376 L 218.903 1135.681 L 222.364 1136.729 L 223.340 1137.012 L 226.824 1137.981 L 227.807 1138.242 L 231.312 1139.132 L 232.301 1139.371 L 235.825 1140.182 L 236.819 1140.398 L 240.360 1141.129 L 241.359 1141.323 L 244.916 1141.973 L 245.918 1142.145 L 249.489 1142.715 L 250.495 1142.863 L 254.078 1143.352 L 255.087 1143.478 L 258.681 1143.886 L 259.692 1143.989 L 263.294 1144.316 L 264.308 1144.396 L 267.915 1144.641 L 268.931 1144.699 L 272.543 1144.862 L 273.560 1144.897 L 277.175 1144.978 L 278.192 1144.990 L 281.808 1144.990 L 282.825 1144.978 L 286.440 1144.897 L 287.457 1144.862 L 291.069 1144.699 L 292.085 1144.641 L 295.692 1144.396 L 296.706 1144.316 L 300.308 1143.989 L 301.319 1143.886 L 304.913 1143.478 L 305.922 1143.352 L 309.505 1142.863 L 310.511 1142.715 L 314.082 1142.145 L 315.084 1141.973 L 318.641 1141.323 L 319.640 1141.129 L 323.181 1140.398 L 324.175 1140.182 L 327.699 1139.371 L 328.688 1139.132 L 332.193 1138.242 L 333.176 1137.981 L 336.660 1137.012 L 337.636 1136.729 L 341.097 1135.681 L 342.067 1135.376 L 345.504 1134.251 L 346.467 1133.923 L 349.877 1132.721 L 350.833 1132.372 L 354.215 1131.092 L 355.162 1130.722 L 358.514 1129.366 L 359.453 1128.974 L 362.774 1127.543 L 363.703 1127.130 L 366.991 1125.625 L 367.911 1125.191 L 371.164 1123.612 L 372.074 1123.157 L 375.290 1121.504 L 376.190 1121.029 L 379.368 1119.305 L 380.256 1118.809 L 383.395 1117.013 L 384.272 1116.498 L 387.369 1114.631 L 388.234 1114.096 L 391.288 1112.160 L 392.141 1111.606 L 395.150 1109.601 L 395.990 1109.028 L 398.954 1106.955 L 399.780 1106.363 L 402.696 1104.225 L 403.510 1103.614 L 406.376 1101.410 L 407.176 1100.781 L 409.992 1098.512 L 410.777 1097.866 L 413.541 1095.534 L 414.311 1094.870 L 417.022 1092.477 L 417.777 1091.795 L 420.433 1089.341 L 421.172 1088.642 L 423.772 1086.129 L 424.495 1085.414 L 427.038 1082.843 L 427.744 1082.111 L 430.228 1079.483 L 430.918 1078.736 L 433.342 1076.052 L 434.015 1075.290 L 436.378 1072.552 L 437.033 1071.775 L 439.333 1068.984 L 439.971 1068.192 L 442.208 1065.351 L 442.828 1064.544 L 444.999 1061.653 L 445.601 1060.833 L 447.706 1057.893 L 448.289 1057.059 L 450.328 1054.073 L 450.892 1053.226 L 452.862 1050.194 L 453.407 1049.335 L 455.308 1046.259 L 455.833 1045.388 L 457.665 1042.270 L 458.170 1041.388 L 459.931 1038.229 L 460.416 1037.335 L 462.105 1034.138 L 462.570 1033.233 L 464.186 1029.998 L 464.630 1029.083 L 466.173 1025.813 L 466.596 1024.888 L 468.064 1021.583 L 468.467 1020.649 L 469.860 1017.312 L 470.241 1016.370 L 471.559 1013.002 L 471.919 1012.051 L 473.160 1008.654 L 473.498 1007.695 L 474.662 1004.271 L 474.978 1003.305 L 476.065 999.856 L 476.359 998.882 L 477.367 995.409 L 477.640 994.430 L 478.569 990.935 L 478.819 989.949 L 479.670 986.434 L 479.897 985.443 L 480.668 981.910 L 480.873 980.914 L 481.564 977.364 L 481.747 976.364 L 482.357 972.800 L 482.517 971.795 L 483.046 968.218 L 483.184 967.210 L 483.632 963.622 L 483.747 962.612 L 484.114 959.014 L 484.206 958.001 L 484.492 954.396 L 484.561 953.382 L 484.765 949.771 L 484.811 948.755 L 484.933 945.141 L 484.956 944.124 L 484.997 940.509 L 484.996 939.404 L 484.968 938.300 L 484.913 937.197 L 484.830 936.096 L 484.721 934.997 L 484.585 933.901 L 484.422 932.808 L 484.232 931.720 L 484.015 930.637 L 483.772 929.560 L 483.503 928.489 L 483.207 927.425 L 482.886 926.368 L 482.538 925.320 L 482.165 924.280 L 481.767 923.250 L 481.343 922.230 L 480.894 921.221 L 480.421 920.223 L 479.924 919.237 L 479.402 918.263 L 478.857 917.303 L 478.288 916.356 L 477.696 915.424 L 477.082 914.506 L 476.445 913.604 L 475.786 912.717 L 475.106 911.847 L 474.404 910.994 L 473.682 910.159 L 472.940 909.341 L 472.177 908.542 L 471.396 907.762 L 470.595 907.001 L 469.776 906.260 L 468.939 905.539 L 468.085 904.840 L 467.213 904.161 L 466.325 903.504 L 465.422 902.869 L 464.503 902.256 L 463.569 901.666 L 462.621 901.099 L 461.660 900.556 L 460.685 900.036 L 459.698 899.540 L 458.700 899.069 L 457.689 898.623 L 456.669 898.201 L 455.638 897.805 L 454.598 897.433 L 453.549 897.088 L 452.491 896.768 L 451.427 896.475 L 450.355 896.208 L 449.277 895.967 L 448.194 895.752 L 447.105 895.565 L 446.013 895.404 L 444.917 895.269 L 443.817 895.162 L 442.716 895.082 L 441.613 895.029 L 440.509 895.003 L 439.404 895.004 L 438.300 895.032 L 437.197 895.087 L 436.096 895.170 L 434.997 895.279 L 433.901 895.415 L 432.808 895.578 L 431.720 895.768 L 430.637 895.985 L 429.560 896.228 L 428.489 896.497 L 427.425 896.793 L 426.368 897.114 L 425.320 897.462 L 424.280 897.835 L 423.250 898.233 L 422.230 898.657 L 421.221 899.106 L 420.223 899.579 L 419.237 900.076 L 418.263 900.598 L 417.303 901.143 L 416.356 901.712 L 415.424 902.304 L 414.506 902.918 L 413.604 903.555 L 412.717 904.214 L 411.847 904.894 L 410.994 905.596 L 410.159 906.318 L 409.341 907.060 L 408.542 907.823 L 407.762 908.604 L 407.001 909.405 L 406.260 910.224 L 405.539 911.061 L 404.840 911.915 L 404.161 912.787 L 403.504 913.675 L 402.869 914.578 L 402.256 915.497 L 401.666 916.431 L 401.099 917.379 L 400.556 918.340 L 400.036 919.315 L 399.540 920.302 L 399.069 921.300 L 398.623 922.311 L 398.201 923.331 L 397.805 924.362 L 397.433 925.402 L 397.088 926.451 L 396.768 927.509 L 396.475 928.573 L 396.208 929.645 L 395.967 930.723 L 395.752 931.806 L 395.565 932.895 L 395.404 933.987 L 395.269 935.083 L 395.162 936.183 L 395.082 937.284 L 395.029 938.387 L 395.003 939.491 L 394.968 942.599 L 394.880 945.196 L 394.733 947.791 Z M 428.833 326.539 L 428.982 325.444 L 429.103 324.347 L 429.198 323.246 L 429.266 322.144 L 429.306 321.040 L 429.320 319.936 L 429.306 318.832 L 429.266 317.728 L 429.198 316.626 L 429.103 315.525 L 428.982 314.428 L 428.833 313.333 L 428.657 312.243 L 428.455 311.157 L 428.227 310.076 L 427.971 309.002 L 427.690 307.934 L 427.382 306.873 L 427.049 305.820 L 426.689 304.776 L 426.305 303.741 L 425.895 302.715 L 425.459 301.700 L 425.000 300.696 L 424.515 299.703 L 424.006 298.723 L 423.474 297.756 L 422.918 296.801 L 422.338 295.861 L 421.736 294.935 L 421.111 294.025 L 420.464 293.130 L 419.796 292.251 L 419.105 291.388 L 418.394 290.543 L 417.663 289.716 L 416.911 288.907 L 416.140 288.116 L 415.349 287.345 L 414.540 286.593 L 413.713 285.862 L 412.868 285.151 L 412.005 284.460 L 411.126 283.792 L 410.231 283.145 L 409.321 282.520 L 408.395 281.918 L 407.455 281.338 L 406.500 280.782 L 405.533 280.250 L 404.553 279.741 L 403.560 279.256 L 402.556 278.797 L 401.541 278.361 L 400.515 277.951 L 399.480 277.567 L 398.436 277.207 L 397.383 276.874 L 396.322 276.566 L 395.254 276.285 L 394.180 276.029 L 393.099 275.801 L 392.013 275.599 L 390.923 275.423 L 389.828 275.274 L 388.731 275.153 L 387.630 275.058 L 386.528 274.990 L 385.424 274.950 L 384.320 274.936 L 376.459 274.936 L 375.447 274.299 L 372.544 272.542 L 371.151 271.733 L 368.224 270.102 L 366.767 269.325 L 363.817 267.821 L 363.061 267.444 L 362.297 267.081 L 359.328 265.705 L 358.540 265.349 L 357.746 265.008 L 354.758 263.760 L 353.940 263.428 L 353.116 263.112 L 350.112 261.993 L 349.266 261.688 L 348.414 261.399 L 345.395 260.410 L 344.522 260.134 L 343.644 259.876 L 340.613 259.018 L 339.716 258.775 L 338.814 258.549 L 335.771 257.822 L 334.853 257.613 L 333.931 257.423 L 330.879 256.828 L 329.943 256.656 L 329.003 256.503 L 325.943 256.040 L 324.992 255.906 L 324.039 255.793 L 320.974 255.462 L 320.012 255.368 L 319.048 255.295 L 315.980 255.096 L 315.011 255.044 L 314.042 255.013 L 310.971 254.946 L 310.000 254.936 L 309.029 254.946 L 305.958 255.013 L 304.989 255.044 L 304.020 255.096 L 300.952 255.295 L 299.988 255.368 L 299.026 255.462 L 295.961 255.793 L 295.008 255.906 L 294.057 256.040 L 290.997 256.503 L 290.057 256.656 L 289.121 256.828 L 286.069 257.423 L 285.147 257.613 L 284.229 257.822 L 281.186 258.549 L 280.284 258.775 L 279.387 259.018 L 276.356 259.876 L 275.478 260.134 L 274.605 260.410 L 271.586 261.399 L 270.734 261.688 L 269.888 261.993 L 266.884 263.112 L 266.060 263.428 L 265.242 263.760 L 262.254 265.008 L 261.460 265.349 L 260.672 265.705 L 257.703 267.081 L 256.939 267.444 L 256.183 267.821 L 253.233 269.325 L 251.776 270.102 L 248.849 271.733 L 247.456 272.542 L 244.553 274.299 L 243.224 275.135 L 240.346 277.017 L 239.081 277.875 L 236.230 279.880 L 235.028 280.756 L 232.206 282.884 L 231.065 283.772 L 228.274 286.021 L 227.193 286.920 L 224.434 289.289 L 223.412 290.193 L 220.686 292.681 L 219.720 293.589 L 217.030 296.193 L 216.117 297.102 L 213.464 299.821 L 212.603 300.729 L 209.989 303.562 L 209.177 304.466 L 206.603 307.411 L 205.839 308.310 L 203.306 311.365 L 202.586 312.257 L 200.097 315.421 L 199.419 316.306 L 196.975 319.576 L 196.337 320.452 L 193.939 323.827 L 193.339 324.694 L 190.989 328.171 L 190.424 329.028 L 188.124 332.606 L 187.593 333.452 L 185.343 337.128 L 184.844 337.964 L 182.646 341.736 L 182.177 342.561 L 180.032 346.426 L 179.591 347.241 L 177.501 351.198 L 177.087 352.001 L 175.053 356.047 L 174.664 356.840 L 172.687 360.973 L 172.322 361.755 L 170.403 365.972 L 170.061 366.743 L 168.201 371.042 L 167.880 371.803 L 166.081 376.180 L 165.780 376.932 L 164.043 381.386 L 163.761 382.128 L 162.087 386.655 L 161.823 387.388 L 160.212 391.986 L 159.965 392.710 L 158.419 397.376 L 158.188 398.092 L 156.708 402.823 L 156.493 403.530 L 155.079 408.325 L 154.878 409.024 L 153.531 413.878 L 153.345 414.570 L 152.067 419.480 L 151.894 420.165 L 150.684 425.130 L 150.524 425.808 L 149.384 430.823 L 149.236 431.495 L 148.167 436.558 L 148.031 437.224 L 147.032 442.332 L 146.908 442.993 L 145.980 448.142 L 145.867 448.798 L 145.012 453.985 L 144.909 454.637 L 144.127 459.860 L 144.034 460.507 L 143.325 465.762 L 143.243 466.406 L 142.607 471.690 L 142.534 472.331 L 141.972 477.640 L 141.909 478.278 L 141.421 483.610 L 141.368 484.245 L 140.955 489.597 L 140.910 490.230 L 140.572 495.598 L 140.536 496.229 L 140.273 501.610 L 140.246 502.240 L 140.058 507.631 L 140.041 508.260 L 139.928 513.657 L 139.919 514.285 L 139.881 519.686 L 139.881 520.314 L 139.919 525.715 L 139.928 526.343 L 140.041 531.740 L 140.058 532.369 L 140.246 537.760 L 140.273 538.390 L 140.536 543.771 L 140.572 544.402 L 140.910 549.770 L 140.955 550.403 L 141.368 555.755 L 141.421 556.390 L 141.909 561.722 L 141.972 562.360 L 142.534 567.669 L 142.607 568.310 L 143.243 573.594 L 143.325 574.238 L 144.034 579.493 L 144.127 580.140 L 144.909 585.363 L 145.012 586.015 L 145.867 591.202 L 145.980 591.858 L 146.908 597.007 L 147.032 597.668 L 148.031 602.776 L 148.167 603.442 L 149.236 608.505 L 149.384 609.177 L 150.524 614.192 L 150.684 614.870 L 151.894 619.835 L 152.067 620.520 L 153.345 625.430 L 153.531 626.122 L 154.878 630.976 L 155.079 631.675 L 156.493 636.470 L 156.708 637.177 L 158.188 641.908 L 158.419 642.624 L 159.965 647.290 L 160.212 648.014 L 161.823 652.612 L 162.087 653.345 L 163.761 657.872 L 164.043 658.614 L 165.780 663.068 L 166.081 663.820 L 167.880 668.197 L 168.201 668.958 L 170.061 673.257 L 170.403 674.028 L 172.322 678.245 L 172.687 679.027 L 174.664 683.160 L 175.053 683.953 L 177.087 687.999 L 177.501 688.802 L 179.591 692.759 L 180.032 693.574 L 182.177 697.439 L 182.646 698.264 L 184.844 702.036 L 185.343 702.872 L 187.593 706.548 L 188.124 707.394 L 190.424 710.972 L 190.989 711.829 L 193.339 715.306 L 193.939 716.173 L 196.337 719.548 L 196.975 720.424 L 199.419 723.694 L 200.097 724.579 L 202.586 727.743 L 203.306 728.635 L 205.839 731.690 L 206.603 732.589 L 209.177 735.534 L 209.989 736.438 L 212.603 739.271 L 213.464 740.179 L 216.117 742.898 L 217.030 743.807 L 219.720 746.411 L 220.686 747.319 L 223.412 749.807 L 224.434 750.711 L 227.193 753.080 L 228.274 753.979 L 231.065 756.228 L 232.206 757.116 L 235.028 759.244 L 236.230 760.120 L 239.081 762.125 L 240.346 762.983 L 243.224 764.865 L 244.553 765.701 L 247.456 767.458 L 248.849 768.267 L 251.776 769.898 L 253.233 770.675 L 256.183 772.179 L 256.939 772.556 L 257.703 772.919 L 260.672 774.295 L 261.460 774.651 L 262.254 774.992 L 263.657 775.578 L 265.884 940.607 L 265.913 941.711 L 265.968 942.814 L 266.051 943.916 L 266.160 945.015 L 266.297 946.111 L 266.460 947.203 L 266.650 948.291 L 266.867 949.374 L 267.110 950.451 L 267.380 951.522 L 267.676 952.586 L 267.998 953.643 L 268.346 954.691 L 268.719 955.730 L 269.118 956.760 L 269.542 957.780 L 269.990 958.789 L 270.464 959.787 L 270.962 960.773 L 271.483 961.746 L 272.029 962.707 L 272.598 963.653 L 273.190 964.586 L 273.805 965.503 L 274.442 966.405 L 275.101 967.292 L 275.781 968.162 L 276.483 969.014 L 277.205 969.850 L 277.948 970.667 L 278.711 971.466 L 279.492 972.246 L 280.293 973.007 L 281.112 973.748 L 281.950 974.468 L 282.804 975.167 L 283.676 975.846 L 284.564 976.503 L 285.467 977.138 L 286.386 977.750 L 287.320 978.340 L 288.268 978.906 L 289.230 979.450 L 290.205 979.969 L 291.192 980.464 L 292.191 980.935 L 293.201 981.382 L 294.222 981.803 L 295.253 982.199 L 296.293 982.570 L 297.342 982.915 L 298.399 983.235 L 299.464 983.528 L 300.536 983.795 L 301.614 984.036 L 302.697 984.250 L 303.786 984.437 L 304.878 984.598 L 305.975 984.732 L 307.074 984.839 L 308.175 984.919 L 309.279 984.971 L 310.383 984.997 L 311.487 984.996 L 312.591 984.967 L 313.694 984.912 L 314.796 984.829 L 315.895 984.720 L 316.991 984.583 L 318.083 984.420 L 319.171 984.230 L 320.254 984.013 L 321.331 983.770 L 322.402 983.500 L 323.466 983.204 L 324.523 982.882 L 325.571 982.534 L 326.610 982.161 L 327.640 981.762 L 328.660 981.338 L 329.669 980.890 L 330.667 980.416 L 331.653 979.918 L 332.626 979.397 L 333.587 978.851 L 334.533 978.282 L 335.466 977.690 L 336.383 977.075 L 337.285 976.438 L 338.172 975.779 L 339.042 975.099 L 339.894 974.397 L 340.730 973.675 L 341.547 972.932 L 342.346 972.169 L 343.126 971.388 L 343.887 970.587 L 344.628 969.768 L 345.348 968.930 L 346.047 968.076 L 346.726 967.204 L 347.383 966.316 L 348.018 965.413 L 348.630 964.494 L 349.220 963.560 L 349.786 962.612 L 350.330 961.650 L 350.849 960.675 L 351.344 959.688 L 351.815 958.689 L 352.262 957.679 L 352.683 956.658 L 353.079 955.627 L 353.450 954.587 L 353.795 953.538 L 354.115 952.481 L 354.408 951.416 L 354.675 950.344 L 354.916 949.266 L 355.130 948.183 L 355.317 947.094 L 355.478 946.002 L 355.612 944.905 L 355.719 943.806 L 355.799 942.705 L 355.851 941.601 L 355.877 940.497 L 355.876 939.393 L 353.680 776.672 L 353.940 776.572 L 354.758 776.240 L 357.746 774.992 L 358.540 774.651 L 359.328 774.295 L 362.297 772.919 L 363.061 772.556 L 363.817 772.179 L 366.767 770.675 L 368.224 769.898 L 371.151 768.267 L 372.544 767.458 L 375.447 765.701 L 376.776 764.865 L 379.654 762.983 L 380.919 762.125 L 383.770 760.120 L 384.972 759.244 L 387.794 757.116 L 388.935 756.228 L 391.726 753.979 L 392.807 753.080 L 395.566 750.711 L 396.588 749.807 L 399.314 747.319 L 400.280 746.411 L 402.970 743.807 L 403.883 742.898 L 406.536 740.179 L 407.397 739.271 L 410.011 736.438 L 410.823 735.534 L 413.397 732.589 L 414.161 731.690 L 416.694 728.635 L 417.414 727.743 L 419.903 724.579 L 420.581 723.694 L 423.025 720.424 L 423.663 719.548 L 426.061 716.173 L 426.661 715.306 L 429.011 711.829 L 429.576 710.972 L 431.876 707.394 L 432.407 706.548 L 434.657 702.872 L 435.156 702.036 L 437.354 698.264 L 437.823 697.439 L 439.968 693.574 L 440.409 692.759 L 442.499 688.802 L 442.913 687.999 L 444.947 683.953 L 445.336 683.160 L 447.313 679.027 L 447.678 678.245 L 449.597 674.028 L 449.939 673.257 L 451.799 668.958 L 452.120 668.197 L 453.919 663.820 L 454.220 663.068 L 455.957 658.614 L 456.239 657.872 L 457.913 653.345 L 458.177 652.612 L 459.788 648.014 L 460.035 647.290 L 461.581 642.624 L 461.812 641.908 L 463.292 637.177 L 463.507 636.470 L 464.921 631.675 L 465.122 630.976 L 466.469 626.122 L 466.655 625.430 L 467.933 620.520 L 468.106 619.835 L 469.316 614.870 L 469.476 614.192 L 470.616 609.177 L 470.764 608.505 L 471.833 603.442 L 471.969 602.776 L 472.968 597.668 L 473.092 597.007 L 474.020 591.858 L 474.133 591.202 L 474.988 586.015 L 475.091 585.363 L 475.873 580.140 L 475.966 579.493 L 476.675 574.238 L 476.757 573.594 L 477.393 568.310 L 477.466 567.669 L 478.028 562.360 L 478.091 561.722 L 478.579 556.390 L 478.632 555.755 L 479.045 550.403 L 479.090 549.770 L 479.428 544.402 L 479.464 543.771 L 479.727 538.390 L 479.754 537.760 L 479.942 532.369 L 479.959 531.740 L 480.072 526.343 L 480.081 525.715 L 480.119 520.314 L 480.119 519.686 L 480.081 514.285 L 480.072 513.657 L 479.959 508.260 L 479.942 507.631 L 479.754 502.240 L 479.727 501.610 L 479.464 496.229 L 479.428 495.598 L 479.090 490.230 L 479.045 489.597 L 478.632 484.245 L 478.579 483.610 L 478.091 478.278 L 478.028 477.640 L 477.466 472.331 L 477.393 471.690 L 476.757 466.406 L 476.675 465.762 L 475.966 460.507 L 475.873 459.860 L 475.091 454.637 L 474.988 453.985 L 474.133 448.798 L 474.020 448.142 L 473.092 442.993 L 472.968 442.332 L 471.969 437.224 L 471.833 436.558 L 470.764 431.495 L 470.616 430.823 L 469.476 425.808 L 469.316 425.130 L 468.106 420.165 L 467.933 419.480 L 466.655 414.570 L 466.469 413.878 L 465.122 409.024 L 464.921 408.325 L 463.507 403.530 L 463.292 402.823 L 461.812 398.092 L 461.581 397.376 L 460.035 392.710 L 459.788 391.986 L 458.177 387.388 L 457.913 386.655 L 456.239 382.128 L 455.957 381.386 L 454.220 376.932 L 453.919 376.180 L 452.120 371.803 L 451.799 371.042 L 449.939 366.743 L 449.597 365.972 L 447.678 361.755 L 447.313 360.973 L 445.336 356.840 L 444.947 356.047 L 442.913 352.001 L 442.499 351.198 L 440.409 347.241 L 439.968 346.426 L 437.823 342.561 L 437.354 341.736 L 435.156 337.964 L 434.657 337.128 L 432.407 333.452 L 431.876 332.606 L 429.576 329.028 L 429.011 328.171 L 428.655 327.644 L 428.657 327.629 L 428.833 326.539 Z M 286.794 356.080 L 287.689 356.727 L 288.599 357.352 L 289.525 357.954 L 290.465 358.534 L 291.420 359.090 L 292.387 359.622 L 293.367 360.131 L 294.360 360.616 L 295.364 361.075 L 296.379 361.511 L 297.405 361.921 L 298.440 362.305 L 299.484 362.665 L 300.537 362.998 L 301.598 363.306 L 302.666 363.587 L 303.740 363.843 L 304.821 364.071 L 305.907 364.273 L 306.997 364.449 L 308.092 364.598 L 309.189 364.719 L 310.290 364.814 L 311.392 364.882 L 312.496 364.922 L 313.600 364.936 L 344.144 364.936 L 345.241 366.192 L 347.031 368.351 L 348.820 370.626 L 350.606 373.016 L 352.385 375.520 L 354.152 378.135 L 355.905 380.861 L 357.639 383.695 L 359.353 386.637 L 361.043 389.683 L 362.706 392.831 L 364.339 396.079 L 365.939 399.424 L 367.504 402.864 L 369.032 406.395 L 370.520 410.016 L 371.966 413.723 L 373.368 417.512 L 374.723 421.382 L 376.031 425.329 L 377.289 429.349 L 378.496 433.440 L 379.650 437.598 L 380.749 441.820 L 381.793 446.102 L 382.780 450.442 L 383.708 454.835 L 384.577 459.278 L 385.386 463.768 L 386.133 468.301 L 386.819 472.874 L 387.441 477.484 L 388.000 482.125 L 388.494 486.796 L 388.924 491.492 L 389.288 496.210 L 389.587 500.946 L 389.819 505.697 L 389.986 510.459 L 390.086 515.227 L 390.119 520.000 L 390.086 524.773 L 389.986 529.541 L 389.819 534.303 L 389.587 539.054 L 389.288 543.790 L 388.924 548.508 L 388.494 553.204 L 388.000 557.875 L 387.441 562.516 L 386.819 567.126 L 386.133 571.699 L 385.386 576.232 L 384.577 580.722 L 383.708 585.165 L 382.780 589.558 L 381.793 593.898 L 380.749 598.180 L 379.650 602.402 L 378.496 606.560 L 377.289 610.651 L 376.031 614.671 L 374.723 618.618 L 373.368 622.488 L 371.966 626.277 L 370.520 629.984 L 369.032 633.605 L 367.504 637.136 L 365.939 640.576 L 364.339 643.921 L 362.706 647.169 L 361.043 650.317 L 359.353 653.363 L 357.639 656.305 L 355.905 659.139 L 354.152 661.865 L 352.385 664.480 L 352.170 664.782 L 351.796 637.033 L 351.767 635.929 L 351.712 634.826 L 351.629 633.724 L 351.520 632.625 L 351.383 631.529 L 351.220 630.437 L 351.030 629.349 L 350.813 628.266 L 350.570 627.189 L 350.300 626.118 L 350.004 625.054 L 349.682 623.997 L 349.334 622.949 L 348.961 621.910 L 348.562 620.880 L 348.138 619.860 L 347.690 618.851 L 347.216 617.853 L 346.718 616.867 L 346.197 615.894 L 345.651 614.933 L 345.082 613.987 L 344.490 613.054 L 343.875 612.137 L 343.238 611.235 L 342.579 610.348 L 341.899 609.478 L 341.197 608.626 L 340.475 607.790 L 339.732 606.973 L 338.969 606.174 L 338.188 605.394 L 337.387 604.633 L 336.568 603.892 L 335.730 603.172 L 334.876 602.473 L 334.004 601.794 L 333.116 601.137 L 332.213 600.502 L 331.294 599.890 L 330.360 599.300 L 329.412 598.734 L 328.450 598.190 L 327.475 597.671 L 326.488 597.176 L 325.489 596.705 L 324.479 596.258 L 323.458 595.837 L 322.427 595.441 L 321.387 595.070 L 320.338 594.725 L 319.281 594.405 L 318.216 594.112 L 317.144 593.845 L 316.066 593.604 L 314.983 593.390 L 313.894 593.203 L 312.802 593.042 L 311.705 592.908 L 310.606 592.801 L 309.505 592.721 L 308.401 592.669 L 307.297 592.643 L 306.193 592.644 L 305.089 592.673 L 303.986 592.728 L 302.884 592.811 L 301.785 592.920 L 300.689 593.057 L 299.597 593.220 L 298.509 593.410 L 297.426 593.627 L 296.349 593.870 L 295.278 594.140 L 294.214 594.436 L 293.157 594.758 L 292.109 595.106 L 291.070 595.479 L 290.040 595.878 L 289.020 596.302 L 288.011 596.750 L 287.013 597.224 L 286.027 597.722 L 285.054 598.243 L 284.093 598.789 L 283.147 599.358 L 282.214 599.950 L 281.297 600.565 L 280.395 601.202 L 279.508 601.861 L 278.638 602.541 L 277.786 603.243 L 276.950 603.965 L 276.133 604.708 L 275.334 605.471 L 274.554 606.252 L 273.793 607.053 L 273.052 607.872 L 272.332 608.710 L 271.633 609.564 L 270.954 610.436 L 270.297 611.324 L 269.662 612.227 L 269.050 613.146 L 268.460 614.080 L 267.894 615.028 L 267.350 615.990 L 266.831 616.965 L 266.336 617.952 L 265.865 618.951 L 265.418 619.961 L 264.997 620.982 L 264.601 622.013 L 264.230 623.053 L 263.885 624.102 L 263.565 625.159 L 263.272 626.224 L 263.005 627.296 L 262.764 628.374 L 262.550 629.457 L 262.363 630.546 L 262.202 631.638 L 262.068 632.735 L 261.961 633.834 L 261.881 634.935 L 261.829 636.039 L 261.803 637.143 L 261.804 638.247 L 262.040 655.755 L 260.647 653.363 L 258.957 650.317 L 257.294 647.169 L 255.661 643.921 L 254.061 640.576 L 252.496 637.136 L 250.968 633.605 L 249.480 629.984 L 248.034 626.277 L 246.632 622.488 L 245.277 618.618 L 243.969 614.671 L 242.711 610.651 L 241.504 606.560 L 240.350 602.402 L 239.251 598.180 L 238.207 593.898 L 237.220 589.558 L 236.292 585.165 L 235.423 580.722 L 234.614 576.232 L 233.867 571.699 L 233.181 567.126 L 232.559 562.516 L 232.000 557.875 L 231.506 553.204 L 231.076 548.508 L 230.712 543.790 L 230.413 539.054 L 230.181 534.303 L 230.014 529.541 L 229.914 524.773 L 229.881 520.000 L 229.914 515.227 L 230.014 510.459 L 230.181 505.697 L 230.413 500.946 L 230.712 496.210 L 231.076 491.492 L 231.506 486.796 L 232.000 482.125 L 232.559 477.484 L 233.181 472.874 L 233.867 468.301 L 234.614 463.768 L 235.423 459.278 L 236.292 454.835 L 237.220 450.442 L 238.207 446.102 L 239.251 441.820 L 240.350 437.598 L 241.504 433.440 L 242.711 429.349 L 243.969 425.329 L 245.277 421.382 L 246.632 417.512 L 248.034 413.723 L 249.480 410.016 L 250.968 406.395 L 252.496 402.864 L 254.061 399.424 L 255.661 396.079 L 257.294 392.831 L 258.957 389.683 L 260.647 386.637 L 262.361 383.695 L 264.095 380.861 L 265.848 378.135 L 267.615 375.520 L 269.394 373.016 L 271.180 370.626 L 272.969 368.351 L 274.759 366.192 L 276.545 364.148 L 278.323 362.221 L 280.090 360.410 L 281.842 358.714 L 283.573 357.134 L 285.282 355.667 L 285.756 355.285 L 285.915 355.412 L 286.794 356.080 Z" fill="black" fill-rule="evenodd"/>
</svg>
