<svg xmlns="http://www.w3.org/2000/svg" viewBox="0 0 600.000 1000">
  <path d="M 348.585 133.807 L 348.541 132.615 L 348.468 131.425 L 348.366 130.236 L 348.235 129.051 L 348.074 127.869 L 347.884 126.691 L 347.666 125.519 L 347.419 124.352 L 347.144 123.191 L 346.840 122.038 L 346.507 120.892 L 346.147 119.755 L 345.759 118.627 L 345.343 117.509 L 344.901 116.402 L 344.431 115.305 L 343.934 114.221 L 343.411 113.149 L 342.861 112.090 L 342.286 111.045 L 341.686 110.015 L 341.060 108.999 L 340.409 107.999 L 339.735 107.016 L 339.036 106.049 L 338.314 105.100 L 337.568 104.168 L 336.800 103.256 L 336.010 102.362 L 335.198 101.488 L 334.365 100.635 L 333.512 99.802 L 332.638 98.990 L 331.744 98.200 L 330.832 97.432 L 329.900 96.686 L 328.951 95.964 L 327.984 95.265 L 327.001 94.591 L 326.001 93.940 L 324.985 93.314 L 323.955 92.714 L 322.910 92.139 L 321.851 91.589 L 320.779 91.066 L 319.695 90.569 L 318.598 90.099 L 317.491 89.657 L 316.373 89.241 L 315.245 88.853 L 314.108 88.493 L 312.962 88.160 L 311.809 87.856 L 310.648 87.581 L 309.481 87.334 L 308.309 87.116 L 307.131 86.926 L 305.949 86.765 L 304.764 86.634 L 303.575 86.532 L 302.385 86.459 L 301.193 86.415 L 300.000 86.400 L 298.807 86.415 L 297.615 86.459 L 296.425 86.532 L 295.236 86.634 L 294.051 86.765 L 292.869 86.926 L 291.691 87.116 L 290.519 87.334 L 289.352 87.581 L 288.191 87.856 L 287.038 88.160 L 285.892 88.493 L 284.755 88.853 L 283.627 89.241 L 282.509 89.657 L 281.402 90.099 L 280.305 90.569 L 279.221 91.066 L 278.149 91.589 L 277.090 92.139 L 276.045 92.714 L 275.015 93.314 L 273.999 93.940 L 272.999 94.591 L 272.016 95.265 L 271.049 95.964 L 270.100 96.686 L 269.168 97.432 L 268.256 98.200 L 267.362 98.990 L 266.488 99.802 L 265.635 100.635 L 264.802 101.488 L 263.990 102.362 L 263.200 103.256 L 262.432 104.168 L 261.686 105.100 L 260.964 106.049 L 260.265 107.016 L 259.591 107.999 L 258.940 108.999 L 258.314 110.015 L 257.714 111.045 L 257.139 112.090 L 256.589 113.149 L 256.066 114.221 L 255.569 115.305 L 255.099 116.402 L 254.657 117.509 L 254.241 118.627 L 253.853 119.755 L 253.493 120.892 L 253.160 122.038 L 252.856 123.191 L 252.581 124.352 L 252.334 125.519 L 252.116 126.691 L 251.926 127.869 L 251.765 129.051 L 251.634 130.236 L 251.532 131.425 L 251.459 132.615 L 251.415 133.807 L 251.400 135.000 L 251.415 136.193 L 251.459 137.385 L 251.532 138.575 L 251.634 139.764 L 251.765 140.949 L 251.926 142.131 L 252.116 143.309 L 252.334 144.481 L 252.581 145.648 L 252.856 146.809 L 253.160 147.962 L 253.493 149.108 L 253.853 150.245 L 254.241 151.373 L 254.657 152.491 L 255.099 153.598 L 255.569 154.695 L 256.066 155.779 L 256.589 156.851 L 257.139 157.910 L 257.714 158.955 L 258.314 159.985 L 258.940 161.001 L 259.591 162.001 L 260.265 162.984 L 260.964 163.951 L 261.686 164.900 L 262.432 165.832 L 263.200 166.744 L 263.990 167.638 L 264.802 168.512 L 265.635 169.365 L 266.488 170.198 L 267.362 171.010 L 268.256 171.800 L 269.168 172.568 L 270.100 173.314 L 271.049 174.036 L 272.016 174.735 L 272.999 175.409 L 273.999 176.060 L 275.015 176.686 L 276.045 177.286 L 277.090 177.861 L 278.149 178.411 L 279.221 178.934 L 280.305 179.431 L 281.402 179.901 L 282.509 180.343 L 283.627 180.759 L 284.755 181.147 L 285.892 181.507 L 287.038 181.840 L 288.191 182.144 L 289.352 182.419 L 290.519 182.666 L 291.691 182.884 L 292.869 183.074 L 294.051 183.235 L 295.236 183.366 L 296.425 183.468 L 297.615 183.541 L 298.807 183.585 L 300.000 183.600 L 301.193 183.585 L 302.385 183.541 L 303.575 183.468 L 304.764 183.366 L 305.949 183.235 L 307.131 183.074 L 308.309 182.884 L 309.481 182.666 L 310.648 182.419 L 311.809 182.144 L 312.962 181.840 L 314.108 181.507 L 315.245 181.147 L 316.373 180.759 L 317.491 180.343 L 318.598 179.901 L 319.695 179.431 L 320.779 178.934 L 321.851 178.411 L 322.910 177.861 L 323.955 177.286 L 324.985 176.686 L 326.001 176.060 L 327.001 175.409 L 327.984 174.735 L 328.951 174.036 L 329.900 173.314 L 330.832 172.568 L 331.744 171.800 L 332.638 171.010 L 333.512 170.198 L 334.365 169.365 L 335.198 168.512 L 336.010 167.638 L 336.800 166.744 L 337.568 165.832 L 338.314 164.900 L 339.036 163.951 L 339.735 162.984 L 340.409 162.001 L 341.060 161.001 L 341.686 159.985 L 342.286 158.955 L 342.861 157.910 L 343.411 156.851 L 343.934 155.779 L 344.431 154.695 L 344.901 153.598 L 345.343 152.491 L 345.759 151.373 L 346.147 150.245 L 346.507 149.108 L 346.840 147.962 L 347.144 146.809 L 347.419 145.648 L 347.666 144.481 L 347.884 143.309 L 348.074 142.131 L 348.235 140.949 L 348.366 139.764 L 348.468 138.575 L 348.541 137.385 L 348.585 136.193 L 348.600 135.000 L 348.585 133.807 Z M 255.014 961.104 L 255.054 962.208 L 255.122 963.310 L 255.217 964.411 L 255.338 965.508 L 255.487 966.603 L 255.663 967.693 L 255.865 968.779 L 256.093 969.860 L 256.349 970.934 L 256.630 972.002 L 256.938 973.063 L 257.271 974.116 L 257.631 975.160 L 258.015 976.195 L 258.425 977.221 L 258.861 978.236 L 259.320 979.240 L 259.805 980.233 L 260.314 981.213 L 260.846 982.180 L 261.402 983.135 L 261.982 984.075 L 262.584 985.001 L 263.209 985.911 L 263.856 986.806 L 264.524 987.685 L 265.215 988.548 L 265.926 989.393 L 266.657 990.220 L 267.409 991.029 L 268.180 991.820 L 268.971 992.591 L 269.780 993.343 L 270.607 994.074 L 271.452 994.785 L 272.315 995.476 L 273.194 996.144 L 274.089 996.791 L 274.999 997.416 L 275.925 998.018 L 276.865 998.598 L 277.820 999.154 L 278.787 999.686 L 279.767 1000.195 L 280.760 1000.680 L 281.764 1001.139 L 282.779 1001.575 L 283.805 1001.985 L 284.840 1002.369 L 285.884 1002.729 L 286.937 1003.062 L 287.998 1003.370 L 289.066 1003.651 L 290.140 1003.907 L 291.221 1004.135 L 292.307 1004.337 L 293.397 1004.513 L 294.492 1004.662 L 295.589 1004.783 L 296.690 1004.878 L 297.792 1004.946 L 298.896 1004.986 L 300.000 1005.000 L 301.104 1004.986 L 302.208 1004.946 L 303.310 1004.878 L 304.411 1004.783 L 305.508 1004.662 L 306.603 1004.513 L 307.693 1004.337 L 308.779 1004.135 L 309.860 1003.907 L 310.934 1003.651 L 312.002 1003.370 L 313.063 1003.062 L 314.116 1002.729 L 315.160 1002.369 L 316.195 1001.985 L 317.221 1001.575 L 318.236 1001.139 L 319.240 1000.680 L 320.233 1000.195 L 321.213 999.686 L 322.180 999.154 L 323.135 998.598 L 324.075 998.018 L 325.001 997.416 L 325.911 996.791 L 326.806 996.144 L 327.685 995.476 L 328.548 994.785 L 329.393 994.074 L 330.220 993.343 L 331.029 992.591 L 331.820 991.820 L 332.591 991.029 L 333.343 990.220 L 334.074 989.393 L 334.785 988.548 L 335.476 987.685 L 336.144 986.806 L 336.791 985.911 L 337.416 985.001 L 338.018 984.075 L 338.598 983.135 L 339.154 982.180 L 339.686 981.213 L 340.195 980.233 L 340.680 979.240 L 341.139 978.236 L 341.575 977.221 L 341.985 976.195 L 342.369 975.160 L 342.729 974.116 L 343.062 973.063 L 343.370 972.002 L 343.651 970.934 L 343.907 969.860 L 344.135 968.779 L 344.337 967.693 L 344.513 966.603 L 344.662 965.508 L 344.783 964.411 L 344.878 963.310 L 344.946 962.208 L 344.986 961.104 L 345.000 960.000 L 345.000 400.000 L 344.986 398.896 L 344.946 397.792 L 344.878 396.690 L 344.783 395.589 L 344.662 394.492 L 344.513 393.397 L 344.337 392.307 L 344.135 391.221 L 343.907 390.140 L 343.651 389.066 L 343.370 387.998 L 343.062 386.937 L 342.729 385.884 L 342.369 384.840 L 341.985 383.805 L 341.575 382.779 L 341.139 381.764 L 340.680 380.760 L 340.195 379.767 L 339.686 378.787 L 339.154 377.820 L 338.598 376.865 L 338.018 375.925 L 337.416 374.999 L 336.791 374.089 L 336.144 373.194 L 335.476 372.315 L 334.785 371.452 L 334.074 370.607 L 333.343 369.780 L 332.591 368.971 L 331.820 368.180 L 331.029 367.409 L 330.220 366.657 L 329.393 365.926 L 328.548 365.215 L 327.685 364.524 L 326.806 363.856 L 325.911 363.209 L 325.001 362.584 L 324.075 361.982 L 323.135 361.402 L 322.180 360.846 L 321.213 360.314 L 320.233 359.805 L 319.240 359.320 L 318.236 358.861 L 317.221 358.425 L 316.195 358.015 L 315.160 357.631 L 314.116 357.271 L 313.063 356.938 L 312.002 356.630 L 310.934 356.349 L 309.860 356.093 L 308.779 355.865 L 307.693 355.663 L 306.603 355.487 L 305.508 355.338 L 304.411 355.217 L 303.310 355.122 L 302.208 355.054 L 301.104 355.014 L 300.000 355.000 L 298.896 355.014 L 297.792 355.054 L 296.690 355.122 L 295.589 355.217 L 294.492 355.338 L 293.397 355.487 L 292.307 355.663 L 291.221 355.865 L 290.140 356.093 L 289.066 356.349 L 287.998 356.630 L 286.937 356.938 L 285.884 357.271 L 284.840 357.631 L 283.805 358.015 L 282.779 358.425 L 281.764 358.861 L 280.760 359.320 L 279.767 359.805 L 278.787 360.314 L 277.820 360.846 L 276.865 361.402 L 275.925 361.982 L 274.999 362.584 L 274.089 363.209 L 273.194 363.856 L 272.315 364.524 L 271.452 365.215 L 270.607 365.926 L 269.780 366.657 L 268.971 367.409 L 268.180 368.180 L 267.409 368.971 L 266.657 369.780 L 265.926 370.607 L 265.215 371.452 L 264.524 372.315 L 263.856 373.194 L 263.209 374.089 L 262.584 374.999 L 261.982 375.925 L 261.402 376.865 L 260.846 377.820 L 260.314 378.787 L 259.805 379.767 L 259.320 380.760 L 258.861 381.764 L 258.425 382.779 L 258.015 383.805 L 257.631 384.840 L 257.271 385.884 L 256.938 386.937 L 256.630 387.998 L 256.349 389.066 L 256.093 390.140 L 255.865 391.221 L 255.663 392.307 L 255.487 393.397 L 255.338 394.492 L 255.217 395.589 L 255.122 396.690 L 255.054 397.792 L 255.014 398.896 L 255.000 400.000 L 255.000 960.000 L 255.014 961.104 Z" fill="black" fill-rule="evenodd"/>
</svg>
