<svg xmlns="http://www.w3.org/2000/svg" viewBox="0 0 600.000 1000">
  <path d="M 305.236 126.074 L 306.112 125.889 L 306.990 125.721 L 307.872 125.570 L 308.757 125.437 L 309.644 125.322 L 310.534 125.224 L 311.425 125.144 L 312.317 125.082 L 313.211 125.038 L 314.105 125.011 L 315.447 124.998 L 316.552 124.973 L 317.655 124.922 L 318.756 124.843 L 319.856 124.737 L 320.952 124.605 L 322.045 124.445 L 323.134 124.259 L 324.217 124.046 L 325.296 123.806 L 326.368 123.541 L 327.433 123.248 L 328.490 122.930 L 329.540 122.586 L 330.581 122.217 L 331.612 121.822 L 332.633 121.401 L 333.644 120.956 L 334.643 120.486 L 335.631 119.992 L 336.606 119.474 L 337.569 118.931 L 338.517 118.366 L 339.452 117.777 L 340.371 117.166 L 341.276 116.532 L 342.164 115.876 L 343.037 115.199 L 343.892 114.500 L 344.730 113.781 L 345.550 113.041 L 346.352 112.281 L 347.135 111.502 L 347.898 110.704 L 348.642 109.887 L 349.365 109.053 L 350.068 108.200 L 350.749 107.331 L 351.409 106.446 L 352.047 105.544 L 352.663 104.627 L 353.256 103.696 L 353.826 102.750 L 354.372 101.790 L 354.895 100.817 L 355.394 99.832 L 355.869 98.835 L 356.319 97.826 L 356.744 96.807 L 357.144 95.777 L 357.518 94.738 L 357.867 93.690 L 358.190 92.634 L 358.487 91.570 L 358.758 90.500 L 359.002 89.423 L 359.220 88.340 L 359.412 87.252 L 359.576 86.160 L 359.714 85.064 L 359.825 83.965 L 359.909 82.864 L 359.966 81.761 L 359.995 80.657 L 359.998 79.553 L 359.973 78.448 L 359.922 77.345 L 359.843 76.244 L 359.737 75.144 L 359.605 74.048 L 359.445 72.955 L 359.259 71.866 L 359.046 70.783 L 358.806 69.704 L 358.541 68.632 L 358.248 67.567 L 357.930 66.510 L 357.586 65.460 L 357.217 64.419 L 356.822 63.388 L 356.401 62.367 L 355.956 61.356 L 355.486 60.357 L 354.992 59.369 L 354.474 58.394 L 353.931 57.431 L 353.366 56.483 L 352.777 55.548 L 352.166 54.629 L 351.532 53.724 L 350.876 52.836 L 350.199 51.963 L 349.500 51.108 L 348.781 50.270 L 348.041 49.450 L 347.281 48.648 L 346.502 47.865 L 345.704 47.102 L 344.887 46.358 L 344.053 45.635 L 343.200 44.932 L 342.331 44.251 L 341.446 43.591 L 340.544 42.953 L 339.627 42.337 L 338.696 41.744 L 337.750 41.174 L 336.790 40.628 L 335.817 40.105 L 334.832 39.606 L 333.835 39.131 L 332.826 38.681 L 331.807 38.256 L 330.777 37.856 L 329.738 37.482 L 328.690 37.133 L 327.634 36.810 L 326.570 36.513 L 325.500 36.242 L 324.423 35.998 L 323.340 35.780 L 322.252 35.588 L 321.160 35.424 L 320.064 35.286 L 318.965 35.175 L 317.864 35.091 L 316.761 35.034 L 315.657 35.005 L 314.553 35.002 L 312.763 35.020 L 311.869 35.038 L 310.080 35.091 L 309.186 35.127 L 307.399 35.216 L 306.506 35.269 L 304.761 35.391 L 304.662 34.492 L 304.513 33.397 L 304.337 32.307 L 304.135 31.221 L 303.907 30.140 L 303.651 29.066 L 303.370 27.998 L 303.062 26.937 L 302.729 25.884 L 302.369 24.840 L 301.985 23.805 L 301.575 22.779 L 301.139 21.764 L 300.680 20.760 L 300.195 19.767 L 299.686 18.787 L 299.154 17.820 L 298.598 16.865 L 298.018 15.925 L 297.416 14.999 L 296.791 14.089 L 296.144 13.194 L 295.476 12.315 L 294.785 11.452 L 294.074 10.607 L 293.343 9.780 L 292.591 8.971 L 291.820 8.180 L 291.029 7.409 L 290.220 6.657 L 289.393 5.926 L 288.548 5.215 L 287.685 4.524 L 286.806 3.856 L 285.911 3.209 L 285.001 2.584 L 284.075 1.982 L 283.135 1.402 L 282.180 0.846 L 281.213 0.314 L 280.233 -0.195 L 279.240 -0.680 L 278.236 -1.139 L 277.221 -1.575 L 276.195 -1.985 L 275.160 -2.369 L 274.116 -2.729 L 273.063 -3.062 L 272.002 -3.370 L 270.934 -3.651 L 269.860 -3.907 L 268.779 -4.135 L 267.693 -4.337 L 266.603 -4.513 L 265.508 -4.662 L 264.411 -4.783 L 263.310 -4.878 L 262.208 -4.946 L 261.104 -4.986 L 260.000 -5.000 L 258.896 -4.986 L 257.792 -4.946 L 256.690 -4.878 L 255.589 -4.783 L 254.492 -4.662 L 253.397 -4.513 L 252.307 -4.337 L 251.221 -4.135 L 250.140 -3.907 L 249.066 -3.651 L 247.998 -3.370 L 246.937 -3.062 L 245.884 -2.729 L 244.840 -2.369 L 243.805 -1.985 L 242.779 -1.575 L 241.764 -1.139 L 240.760 -0.680 L 239.767 -0.195 L 238.787 0.314 L 237.820 0.846 L 236.865 1.402 L 235.925 1.982 L 234.999 2.584 L 234.089 3.209 L 233.194 3.856 L 232.315 4.524 L 231.452 5.215 L 230.607 5.926 L 229.780 6.657 L 228.971 7.409 L 228.180 8.180 L 227.409 8.971 L 226.657 9.780 L 225.926 10.607 L 225.215 11.452 L 224.524 12.315 L 223.856 13.194 L 223.209 14.089 L 222.584 14.999 L 221.982 15.925 L 221.402 16.865 L 220.846 17.820 L 220.314 18.787 L 219.805 19.767 L 219.320 20.760 L 218.861 21.764 L 218.425 22.779 L 218.015 23.805 L 217.631 24.840 L 217.271 25.884 L 216.938 26.937 L 216.630 27.998 L 216.349 29.066 L 216.093 30.140 L 215.865 31.221 L 215.663 32.307 L 215.487 33.397 L 215.338 34.492 L 215.217 35.589 L 215.122 36.690 L 215.054 37.792 L 215.014 38.896 L 215.000 40.000 L 215.000 79.311 L 214.617 79.735 L 213.429 81.073 L 212.842 81.749 L 211.681 83.110 L 211.107 83.797 L 209.974 85.182 L 209.414 85.880 L 208.308 87.287 L 207.762 87.996 L 206.685 89.424 L 206.153 90.144 L 205.104 91.594 L 204.587 92.324 L 203.567 93.794 L 203.064 94.535 L 202.074 96.025 L 201.586 96.775 L 200.626 98.285 L 200.153 99.044 L 199.222 100.573 L 198.765 101.342 L 197.865 102.889 L 197.423 103.666 L 196.554 105.231 L 196.127 106.017 L 195.289 107.598 L 194.878 108.393 L 194.072 109.991 L 193.677 110.794 L 192.903 112.407 L 192.524 113.218 L 191.782 114.846 L 191.419 115.664 L 190.710 117.307 L 190.363 118.132 L 189.687 119.788 L 189.357 120.620 L 188.713 122.290 L 188.400 123.128 L 187.790 124.810 L 187.493 125.654 L 186.916 127.348 L 186.636 128.198 L 186.094 129.903 L 185.831 130.758 L 185.322 132.474 L 185.076 133.334 L 184.601 135.060 L 184.373 135.925 L 183.933 137.659 L 183.721 138.529 L 183.315 140.272 L 183.121 141.145 L 182.750 142.896 L 182.574 143.773 L 182.238 145.530 L 182.078 146.411 L 181.777 148.175 L 181.636 149.058 L 181.370 150.828 L 181.246 151.714 L 181.015 153.489 L 180.909 154.377 L 180.713 156.156 L 180.624 157.046 L 180.465 158.828 L 180.393 159.720 L 180.269 161.506 L 180.216 162.399 L 180.127 164.186 L 180.091 165.080 L 180.038 166.869 L 180.020 167.763 L 180.002 169.553 L 180.005 170.657 L 180.034 171.761 L 180.091 172.864 L 180.175 173.965 L 180.286 175.064 L 180.424 176.160 L 180.588 177.252 L 180.780 178.340 L 180.998 179.423 L 181.242 180.500 L 181.513 181.570 L 181.810 182.634 L 182.133 183.690 L 182.482 184.738 L 182.856 185.777 L 183.256 186.807 L 183.681 187.826 L 184.131 188.835 L 184.606 189.832 L 185.105 190.817 L 185.628 191.790 L 186.174 192.750 L 186.744 193.696 L 187.337 194.627 L 187.953 195.544 L 188.591 196.446 L 189.251 197.331 L 189.932 198.200 L 190.635 199.053 L 191.358 199.887 L 192.102 200.704 L 192.865 201.502 L 193.648 202.281 L 194.450 203.041 L 195.270 203.781 L 196.108 204.500 L 196.963 205.199 L 197.836 205.876 L 198.724 206.532 L 199.629 207.166 L 200.548 207.777 L 201.483 208.366 L 202.431 208.931 L 203.394 209.474 L 204.369 209.992 L 205.357 210.486 L 206.356 210.956 L 207.367 211.401 L 208.388 211.822 L 209.419 212.217 L 210.460 212.586 L 211.510 212.930 L 212.567 213.248 L 213.632 213.541 L 214.704 213.806 L 215.000 213.872 L 215.000 314.691 L 214.767 314.805 L 213.787 315.314 L 212.820 315.846 L 211.865 316.402 L 210.925 316.982 L 209.999 317.584 L 209.089 318.209 L 208.194 318.856 L 207.315 319.524 L 206.452 320.215 L 205.607 320.926 L 204.780 321.657 L 203.971 322.409 L 203.180 323.180 L 202.409 323.971 L 201.657 324.780 L 200.926 325.607 L 200.215 326.452 L 199.524 327.315 L 198.856 328.194 L 198.209 329.089 L 197.584 329.999 L 196.982 330.925 L 196.402 331.865 L 195.846 332.820 L 195.314 333.787 L 194.805 334.767 L 194.320 335.760 L 193.861 336.764 L 193.425 337.779 L 193.015 338.805 L 192.631 339.840 L 192.271 340.884 L 191.938 341.937 L 191.630 342.998 L 191.349 344.066 L 191.093 345.140 L 190.865 346.221 L 190.663 347.307 L 190.487 348.397 L 190.338 349.492 L 190.217 350.589 L 190.122 351.690 L 190.054 352.792 L 190.014 353.896 L 190.000 355.000 L 190.014 356.104 L 190.054 357.208 L 190.122 358.310 L 190.217 359.411 L 190.338 360.508 L 190.487 361.603 L 190.663 362.693 L 190.865 363.779 L 191.093 364.860 L 191.349 365.934 L 191.630 367.002 L 191.938 368.063 L 192.271 369.116 L 192.631 370.160 L 193.015 371.195 L 193.425 372.221 L 193.861 373.236 L 194.320 374.240 L 194.805 375.233 L 195.314 376.213 L 195.846 377.180 L 196.402 378.135 L 196.982 379.075 L 197.584 380.001 L 198.209 380.911 L 198.856 381.806 L 199.524 382.685 L 200.215 383.548 L 200.926 384.393 L 201.657 385.220 L 202.409 386.029 L 203.180 386.820 L 203.971 387.591 L 204.780 388.343 L 205.607 389.074 L 206.452 389.785 L 207.315 390.476 L 208.194 391.144 L 209.089 391.791 L 209.999 392.416 L 210.925 393.018 L 211.865 393.598 L 212.820 394.154 L 213.787 394.686 L 214.767 395.195 L 215.000 395.309 L 215.000 780.000 L 215.014 781.104 L 215.054 782.208 L 215.122 783.310 L 215.217 784.411 L 215.338 785.508 L 215.487 786.603 L 215.663 787.693 L 215.865 788.779 L 216.093 789.860 L 216.349 790.934 L 216.630 792.002 L 216.938 793.063 L 217.271 794.116 L 217.631 795.160 L 218.015 796.195 L 218.425 797.221 L 218.861 798.236 L 219.320 799.240 L 219.805 800.233 L 220.314 801.213 L 220.846 802.180 L 221.402 803.135 L 221.982 804.075 L 222.584 805.001 L 223.209 805.911 L 223.856 806.806 L 224.524 807.685 L 225.215 808.548 L 225.926 809.393 L 226.657 810.220 L 227.409 811.029 L 228.180 811.820 L 228.971 812.591 L 229.780 813.343 L 230.607 814.074 L 231.452 814.785 L 232.315 815.476 L 233.194 816.144 L 234.089 816.791 L 234.999 817.416 L 235.925 818.018 L 236.865 818.598 L 237.820 819.154 L 238.787 819.686 L 239.767 820.195 L 240.760 820.680 L 241.764 821.139 L 242.779 821.575 L 243.805 821.985 L 244.840 822.369 L 245.884 822.729 L 246.937 823.062 L 247.998 823.370 L 249.066 823.651 L 250.140 823.907 L 251.221 824.135 L 252.307 824.337 L 253.397 824.513 L 254.492 824.662 L 255.589 824.783 L 256.690 824.878 L 257.792 824.946 L 258.896 824.986 L 260.000 825.000 L 261.104 824.986 L 262.208 824.946 L 263.310 824.878 L 264.411 824.783 L 265.508 824.662 L 266.603 824.513 L 267.693 824.337 L 268.779 824.135 L 269.860 823.907 L 270.934 823.651 L 272.002 823.370 L 273.063 823.062 L 274.116 822.729 L 275.160 822.369 L 276.195 821.985 L 277.221 821.575 L 278.236 821.139 L 279.240 820.680 L 280.233 820.195 L 281.213 819.686 L 282.180 819.154 L 283.135 818.598 L 284.075 818.018 L 285.001 817.416 L 285.911 816.791 L 286.806 816.144 L 287.685 815.476 L 288.548 814.785 L 289.393 814.074 L 290.220 813.343 L 291.029 812.591 L 291.820 811.820 L 292.591 811.029 L 293.343 810.220 L 294.074 809.393 L 294.785 808.548 L 295.476 807.685 L 296.144 806.806 L 296.791 805.911 L 297.416 805.001 L 298.018 804.075 L 298.598 803.135 L 299.154 802.180 L 299.686 801.213 L 300.195 800.233 L 300.680 799.240 L 301.139 798.236 L 301.575 797.221 L 301.985 796.195 L 302.369 795.160 L 302.729 794.116 L 303.062 793.063 L 303.370 792.002 L 303.651 790.934 L 303.907 789.860 L 304.135 788.779 L 304.337 787.693 L 304.513 786.603 L 304.662 785.508 L 304.783 784.411 L 304.878 783.310 L 304.946 782.208 L 304.986 781.104 L 305.000 780.000 L 305.000 400.000 L 500.000 400.000 L 501.104 399.986 L 502.208 399.946 L 503.310 399.878 L 504.411 399.783 L 505.508 399.662 L 506.603 399.513 L 507.693 399.337 L 508.779 399.135 L 509.860 398.907 L 510.934 398.651 L 512.002 398.370 L 513.063 398.062 L 514.116 397.729 L 515.160 397.369 L 516.195 396.985 L 517.221 396.575 L 518.236 396.139 L 519.240 395.680 L 520.233 395.195 L 521.213 394.686 L 522.180 394.154 L 523.135 393.598 L 524.075 393.018 L 525.001 392.416 L 525.911 391.791 L 526.806 391.144 L 527.685 390.476 L 528.548 389.785 L 529.393 389.074 L 530.220 388.343 L 531.029 387.591 L 531.820 386.820 L 532.591 386.029 L 533.343 385.220 L 534.074 384.393 L 534.785 383.548 L 535.476 382.685 L 536.144 381.806 L 536.791 380.911 L 537.416 380.001 L 538.018 379.075 L 538.598 378.135 L 539.154 377.180 L 539.686 376.213 L 540.195 375.233 L 540.680 374.240 L 541.139 373.236 L 541.575 372.221 L 541.985 371.195 L 542.369 370.160 L 542.729 369.116 L 543.062 368.063 L 543.370 367.002 L 543.651 365.934 L 543.907 364.860 L 544.135 363.779 L 544.337 362.693 L 544.513 361.603 L 544.662 360.508 L 544.783 359.411 L 544.878 358.310 L 544.946 357.208 L 544.986 356.104 L 545.000 355.000 L 544.986 353.896 L 544.946 352.792 L 544.878 351.690 L 544.783 350.589 L 544.662 349.492 L 544.513 348.397 L 544.337 347.307 L 544.135 346.221 L 543.907 345.140 L 543.651 344.066 L 543.370 342.998 L 543.062 341.937 L 542.729 340.884 L 542.369 339.840 L 541.985 338.805 L 541.575 337.779 L 541.139 336.764 L 540.680 335.760 L 540.195 334.767 L 539.686 333.787 L 539.154 332.820 L 538.598 331.865 L 538.018 330.925 L 537.416 329.999 L 536.791 329.089 L 536.144 328.194 L 535.476 327.315 L 534.785 326.452 L 534.074 325.607 L 533.343 324.780 L 532.591 323.971 L 531.820 323.180 L 531.029 322.409 L 530.220 321.657 L 529.393 320.926 L 528.548 320.215 L 527.685 319.524 L 526.806 318.856 L 525.911 318.209 L 525.001 317.584 L 524.075 316.982 L 523.135 316.402 L 522.180 315.846 L 521.213 315.314 L 520.233 314.805 L 519.240 314.320 L 518.236 313.861 L 517.221 313.425 L 516.195 313.015 L 515.160 312.631 L 514.116 312.271 L 513.063 311.938 L 512.002 311.630 L 510.934 311.349 L 509.860 311.093 L 508.779 310.865 L 507.693 310.663 L 506.603 310.487 L 505.508 310.338 L 504.411 310.217 L 503.310 310.122 L 502.208 310.054 L 501.104 310.014 L 500.000 310.000 L 305.000 310.000 L 305.000 126.129 L 305.236 126.074 Z" fill="black" fill-rule="evenodd"/>
</svg>
