<svg xmlns="http://www.w3.org/2000/svg" viewBox="0 0 600.000 1000">
  <path d="M 354.337 252.307 L 354.135 251.221 L 353.907 250.140 L 353.651 249.066 L 353.370 247.998 L 353.062 246.937 L 352.729 245.884 L 352.369 244.840 L 351.985 243.805 L 351.575 242.779 L 351.139 241.764 L 350.680 240.760 L 350.195 239.767 L 349.686 238.787 L 349.154 237.820 L 348.598 236.865 L 348.018 235.925 L 347.416 234.999 L 346.791 234.089 L 346.144 233.194 L 345.476 232.315 L 344.785 231.452 L 344.074 230.607 L 343.343 229.780 L 342.591 228.971 L 341.820 228.180 L 341.029 227.409 L 340.220 226.657 L 339.393 225.926 L 338.548 225.215 L 337.685 224.524 L 336.806 223.856 L 335.911 223.209 L 335.001 222.584 L 334.075 221.982 L 333.135 221.402 L 332.180 220.846 L 331.213 220.314 L 330.233 219.805 L 329.240 219.320 L 328.236 218.861 L 327.221 218.425 L 326.195 218.015 L 325.160 217.631 L 324.116 217.271 L 323.063 216.938 L 322.002 216.630 L 320.934 216.349 L 319.860 216.093 L 318.779 215.865 L 317.693 215.663 L 316.603 215.487 L 315.508 215.338 L 314.411 215.217 L 313.310 215.122 L 312.208 215.054 L 311.104 215.014 L 310.000 215.000 L 210.000 215.000 L 210.000 40.000 L 209.986 38.896 L 209.946 37.792 L 209.878 36.690 L 209.783 35.589 L 209.662 34.492 L 209.513 33.397 L 209.337 32.307 L 209.135 31.221 L 208.907 30.140 L 208.651 29.066 L 208.370 27.998 L 208.062 26.937 L 207.729 25.884 L 207.369 24.840 L 206.985 23.805 L 206.575 22.779 L 206.139 21.764 L 205.680 20.760 L 205.195 19.767 L 204.686 18.787 L 204.154 17.820 L 203.598 16.865 L 203.018 15.925 L 202.416 14.999 L 201.791 14.089 L 201.144 13.194 L 200.476 12.315 L 199.785 11.452 L 199.074 10.607 L 198.343 9.780 L 197.591 8.971 L 196.820 8.180 L 196.029 7.409 L 195.220 6.657 L 194.393 5.926 L 193.548 5.215 L 192.685 4.524 L 191.806 3.856 L 190.911 3.209 L 190.001 2.584 L 189.075 1.982 L 188.135 1.402 L 187.180 0.846 L 186.213 0.314 L 185.233 -0.195 L 184.240 -0.680 L 183.236 -1.139 L 182.221 -1.575 L 181.195 -1.985 L 180.160 -2.369 L 179.116 -2.729 L 178.063 -3.062 L 177.002 -3.370 L 175.934 -3.651 L 174.860 -3.907 L 173.779 -4.135 L 172.693 -4.337 L 171.603 -4.513 L 170.508 -4.662 L 169.411 -4.783 L 168.310 -4.878 L 167.208 -4.946 L 166.104 -4.986 L 165.000 -5.000 L 163.896 -4.986 L 162.792 -4.946 L 161.690 -4.878 L 160.589 -4.783 L 159.492 -4.662 L 158.397 -4.513 L 157.307 -4.337 L 156.221 -4.135 L 155.140 -3.907 L 154.066 -3.651 L 152.998 -3.370 L 151.937 -3.062 L 150.884 -2.729 L 149.840 -2.369 L 148.805 -1.985 L 147.779 -1.575 L 146.764 -1.139 L 145.760 -0.680 L 144.767 -0.195 L 143.787 0.314 L 142.820 0.846 L 141.865 1.402 L 140.925 1.982 L 139.999 2.584 L 139.089 3.209 L 138.194 3.856 L 137.315 4.524 L 136.452 5.215 L 135.607 5.926 L 134.780 6.657 L 133.971 7.409 L 133.180 8.180 L 132.409 8.971 L 131.657 9.780 L 130.926 10.607 L 130.215 11.452 L 129.524 12.315 L 128.856 13.194 L 128.209 14.089 L 127.584 14.999 L 126.982 15.925 L 126.402 16.865 L 125.846 17.820 L 125.314 18.787 L 124.805 19.767 L 124.320 20.760 L 123.861 21.764 L 123.425 22.779 L 123.015 23.805 L 122.631 24.840 L 122.271 25.884 L 121.938 26.937 L 121.630 27.998 L 121.349 29.066 L 121.093 30.140 L 120.865 31.221 L 120.663 32.307 L 120.487 33.397 L 120.338 34.492 L 120.217 35.589 L 120.122 36.690 L 120.054 37.792 L 120.014 38.896 L 120.000 40.000 L 120.000 260.000 L 120.000 780.000 L 120.014 781.104 L 120.054 782.208 L 120.122 783.310 L 120.217 784.411 L 120.338 785.508 L 120.487 786.603 L 120.663 787.693 L 120.865 788.779 L 121.093 789.860 L 121.349 790.934 L 121.630 792.002 L 121.938 793.063 L 122.271 794.116 L 122.631 795.160 L 123.015 796.195 L 123.425 797.221 L 123.861 798.236 L 124.320 799.240 L 124.805 800.233 L 125.314 801.213 L 125.846 802.180 L 126.402 803.135 L 126.982 804.075 L 127.584 805.001 L 128.209 805.911 L 128.856 806.806 L 129.524 807.685 L 130.215 808.548 L 130.926 809.393 L 131.657 810.220 L 132.409 811.029 L 133.180 811.820 L 133.971 812.591 L 134.780 813.343 L 135.607 814.074 L 136.452 814.785 L 137.315 815.476 L 138.194 816.144 L 139.089 816.791 L 139.999 817.416 L 140.925 818.018 L 141.865 818.598 L 142.820 819.154 L 143.787 819.686 L 144.767 820.195 L 145.760 820.680 L 146.764 821.139 L 147.779 821.575 L 148.805 821.985 L 149.840 822.369 L 150.884 822.729 L 151.937 823.062 L 152.998 823.370 L 154.066 823.651 L 155.140 823.907 L 156.221 824.135 L 157.307 824.337 L 158.397 824.513 L 159.492 824.662 L 160.589 824.783 L 161.690 824.878 L 162.792 824.946 L 163.896 824.986 L 165.000 825.000 L 310.000 825.000 L 311.104 824.986 L 312.208 824.946 L 313.310 824.878 L 314.411 824.783 L 315.508 824.662 L 316.603 824.513 L 317.693 824.337 L 318.779 824.135 L 319.860 823.907 L 320.934 823.651 L 322.002 823.370 L 323.063 823.062 L 324.116 822.729 L 325.160 822.369 L 326.195 821.985 L 327.221 821.575 L 328.236 821.139 L 329.240 820.680 L 330.233 820.195 L 331.213 819.686 L 332.180 819.154 L 333.135 818.598 L 334.075 818.018 L 335.001 817.416 L 335.911 816.791 L 336.806 816.144 L 337.685 815.476 L 338.548 814.785 L 339.393 814.074 L 340.220 813.343 L 341.029 812.591 L 341.820 811.820 L 342.591 811.029 L 343.003 810.586 L 345.070 810.119 L 346.073 809.881 L 348.564 809.258 L 349.555 808.998 L 352.039 808.316 L 353.017 808.036 L 355.494 807.295 L 356.459 806.995 L 358.927 806.196 L 359.878 805.877 L 362.338 805.020 L 363.273 804.683 L 365.724 803.768 L 366.644 803.413 L 369.084 802.441 L 369.988 802.069 L 372.418 801.039 L 373.305 800.652 L 375.724 799.564 L 376.595 799.162 L 379.002 798.018 L 379.854 797.601 L 382.249 796.401 L 383.084 795.971 L 385.466 794.714 L 386.283 794.271 L 388.651 792.958 L 389.450 792.504 L 391.804 791.135 L 392.585 790.671 L 394.924 789.246 L 395.687 788.772 L 398.011 787.292 L 398.755 786.808 L 401.063 785.274 L 401.788 784.782 L 404.080 783.193 L 404.787 782.693 L 407.062 781.051 L 407.750 780.543 L 410.007 778.847 L 410.678 778.334 L 412.917 776.585 L 413.569 776.065 L 415.789 774.264 L 416.424 773.739 L 418.625 771.885 L 419.242 771.356 L 421.423 769.450 L 422.023 768.917 L 424.183 766.960 L 424.766 766.423 L 426.905 764.416 L 427.471 763.876 L 429.589 761.818 L 430.138 761.276 L 432.234 759.168 L 432.767 758.624 L 434.841 756.467 L 435.357 755.921 L 437.408 753.716 L 437.909 753.168 L 439.936 750.914 L 440.422 750.366 L 442.425 748.065 L 442.895 747.515 L 444.874 745.168 L 445.330 744.618 L 447.283 742.224 L 447.724 741.674 L 449.652 739.234 L 450.080 738.684 L 451.981 736.199 L 452.395 735.650 L 454.270 733.120 L 454.671 732.571 L 456.519 729.998 L 456.906 729.450 L 458.727 726.833 L 459.102 726.286 L 460.895 723.627 L 461.257 723.081 L 463.022 720.380 L 463.371 719.836 L 465.107 717.093 L 465.446 716.550 L 467.152 713.767 L 467.479 713.226 L 469.156 710.402 L 469.472 709.863 L 471.119 707.000 L 471.423 706.463 L 473.040 703.561 L 473.334 703.026 L 474.920 700.087 L 475.203 699.553 L 476.758 696.577 L 477.031 696.045 L 478.554 693.033 L 478.818 692.503 L 480.309 689.455 L 480.563 688.928 L 482.021 685.845 L 482.266 685.319 L 483.692 682.203 L 483.927 681.679 L 485.320 678.529 L 485.547 678.008 L 486.906 674.825 L 487.124 674.306 L 488.450 671.092 L 488.660 670.574 L 489.951 667.329 L 490.153 666.814 L 491.410 663.539 L 491.603 663.026 L 492.825 659.722 L 493.011 659.211 L 494.198 655.878 L 494.376 655.369 L 495.528 652.008 L 495.699 651.501 L 496.815 648.114 L 496.978 647.609 L 498.059 644.196 L 498.215 643.693 L 499.259 640.255 L 499.408 639.753 L 500.416 636.291 L 500.558 635.791 L 501.530 632.306 L 501.665 631.808 L 502.599 628.300 L 502.728 627.804 L 503.626 624.274 L 503.748 623.780 L 504.608 620.229 L 504.724 619.736 L 505.546 616.166 L 505.657 615.674 L 506.441 612.085 L 506.545 611.595 L 507.291 607.988 L 507.390 607.499 L 508.098 603.875 L 508.190 603.388 L 508.860 599.747 L 508.946 599.261 L 509.578 595.605 L 509.659 595.120 L 510.251 591.450 L 510.327 590.966 L 510.880 587.282 L 510.950 586.800 L 511.465 583.103 L 511.529 582.622 L 512.005 578.913 L 512.064 578.433 L 512.500 574.713 L 512.554 574.234 L 512.951 570.505 L 512.999 570.026 L 513.357 566.288 L 513.400 565.810 L 513.718 562.064 L 513.756 561.586 L 514.035 557.833 L 514.068 557.356 L 514.307 553.597 L 514.334 553.121 L 514.534 549.356 L 514.556 548.880 L 514.716 545.112 L 514.733 544.636 L 514.853 540.864 L 514.865 540.389 L 514.945 536.614 L 514.953 536.139 L 514.993 532.363 L 514.995 531.888 L 514.995 528.112 L 514.993 527.637 L 514.953 523.861 L 514.945 523.386 L 514.865 519.611 L 514.853 519.136 L 514.733 515.364 L 514.716 514.888 L 514.556 511.120 L 514.534 510.644 L 514.334 506.879 L 514.307 506.403 L 514.068 502.644 L 514.035 502.167 L 513.756 498.414 L 513.718 497.936 L 513.400 494.190 L 513.357 493.712 L 512.999 489.974 L 512.951 489.495 L 512.554 485.766 L 512.500 485.287 L 512.064 481.567 L 512.005 481.087 L 511.529 477.378 L 511.465 476.897 L 510.950 473.200 L 510.880 472.718 L 510.327 469.034 L 510.251 468.550 L 509.659 464.880 L 509.578 464.395 L 508.946 460.739 L 508.860 460.253 L 508.190 456.612 L 508.098 456.125 L 507.390 452.501 L 507.291 452.012 L 506.545 448.405 L 506.441 447.915 L 505.657 444.326 L 505.546 443.834 L 504.724 440.264 L 504.608 439.771 L 503.748 436.220 L 503.626 435.726 L 502.728 432.196 L 502.599 431.700 L 501.665 428.192 L 501.530 427.694 L 500.558 424.209 L 500.416 423.709 L 499.408 420.247 L 499.259 419.745 L 498.215 416.307 L 498.059 415.804 L 496.978 412.391 L 496.815 411.886 L 495.699 408.499 L 495.528 407.992 L 494.376 404.631 L 494.198 404.122 L 493.011 400.789 L 492.825 400.278 L 491.603 396.974 L 491.410 396.461 L 490.153 393.186 L 489.951 392.671 L 488.660 389.426 L 488.450 388.908 L 487.124 385.694 L 486.906 385.175 L 485.547 381.992 L 485.320 381.471 L 483.927 378.321 L 483.692 377.797 L 482.266 374.681 L 482.021 374.155 L 480.563 371.072 L 480.309 370.545 L 478.818 367.497 L 478.554 366.967 L 477.031 363.955 L 476.758 363.423 L 475.203 360.447 L 474.920 359.913 L 473.334 356.974 L 473.040 356.439 L 471.423 353.537 L 471.119 353.000 L 469.472 350.137 L 469.156 349.598 L 467.479 346.774 L 467.152 346.233 L 465.446 343.450 L 465.107 342.907 L 463.371 340.164 L 463.022 339.620 L 461.257 336.919 L 460.895 336.373 L 459.102 333.714 L 458.727 333.167 L 456.906 330.550 L 456.519 330.002 L 454.671 327.429 L 454.270 326.880 L 452.395 324.350 L 451.981 323.801 L 450.080 321.316 L 449.652 320.766 L 447.724 318.326 L 447.283 317.776 L 445.330 315.382 L 444.874 314.832 L 442.895 312.485 L 442.425 311.935 L 440.422 309.634 L 439.936 309.086 L 437.909 306.832 L 437.408 306.284 L 435.357 304.079 L 434.841 303.533 L 432.767 301.376 L 432.234 300.832 L 430.138 298.724 L 429.589 298.182 L 427.471 296.124 L 426.905 295.584 L 424.766 293.577 L 424.183 293.040 L 422.023 291.083 L 421.423 290.550 L 419.242 288.644 L 418.625 288.115 L 416.424 286.261 L 415.789 285.736 L 413.569 283.935 L 412.917 283.415 L 410.678 281.666 L 410.007 281.153 L 407.750 279.457 L 407.062 278.949 L 404.787 277.307 L 404.080 276.807 L 401.788 275.218 L 401.063 274.726 L 398.755 273.192 L 398.011 272.708 L 395.687 271.228 L 394.924 270.754 L 392.585 269.329 L 391.804 268.865 L 389.450 267.496 L 388.651 267.042 L 386.283 265.729 L 385.466 265.286 L 383.084 264.029 L 382.249 263.599 L 379.854 262.399 L 379.002 261.982 L 376.595 260.838 L 375.724 260.436 L 373.305 259.348 L 372.418 258.961 L 369.988 257.931 L 369.084 257.559 L 366.644 256.587 L 365.724 256.232 L 363.273 255.317 L 362.338 254.980 L 359.878 254.123 L 358.927 253.804 L 356.459 253.005 L 355.494 252.705 L 354.346 252.362 L 354.337 252.307 Z M 210.000 305.000 L 267.303 305.000 L 267.455 305.459 L 267.827 306.499 L 268.225 307.529 L 268.648 308.549 L 269.096 309.559 L 269.569 310.557 L 270.066 311.543 L 270.587 312.517 L 271.132 313.478 L 271.700 314.425 L 272.291 315.357 L 272.905 316.275 L 273.542 317.178 L 274.200 318.065 L 274.880 318.935 L 275.581 319.789 L 276.303 320.625 L 277.045 321.443 L 277.807 322.242 L 278.588 323.023 L 279.389 323.784 L 280.207 324.525 L 281.044 325.246 L 281.898 325.946 L 282.769 326.626 L 283.656 327.283 L 284.560 327.919 L 285.478 328.532 L 286.412 329.122 L 287.359 329.689 L 288.320 330.233 L 289.295 330.754 L 290.281 331.250 L 291.280 331.721 L 292.290 332.168 L 293.310 332.591 L 294.341 332.988 L 295.381 333.359 L 296.430 333.705 L 297.487 334.025 L 298.552 334.319 L 299.623 334.587 L 300.701 334.829 L 301.784 335.044 L 302.872 335.232 L 303.965 335.393 L 305.061 335.528 L 306.160 335.636 L 307.262 335.717 L 308.365 335.770 L 309.469 335.797 L 311.464 335.820 L 312.929 335.872 L 314.394 335.959 L 315.862 336.080 L 317.332 336.237 L 318.805 336.428 L 320.281 336.656 L 321.761 336.919 L 323.246 337.218 L 324.736 337.555 L 326.230 337.929 L 327.730 338.340 L 329.235 338.790 L 330.746 339.279 L 332.263 339.808 L 333.786 340.376 L 335.315 340.985 L 336.850 341.636 L 338.390 342.328 L 339.936 343.063 L 341.486 343.840 L 343.042 344.661 L 344.602 345.527 L 346.166 346.436 L 347.734 347.391 L 349.305 348.391 L 350.878 349.437 L 352.453 350.528 L 354.030 351.667 L 355.607 352.852 L 357.184 354.083 L 358.760 355.362 L 360.334 356.689 L 361.907 358.062 L 363.476 359.483 L 365.041 360.952 L 366.602 362.468 L 368.157 364.031 L 369.705 365.642 L 371.247 367.300 L 372.781 369.004 L 374.305 370.756 L 375.820 372.554 L 377.325 374.398 L 378.818 376.288 L 380.300 378.224 L 381.768 380.205 L 383.223 382.230 L 384.663 384.300 L 386.088 386.413 L 387.497 388.570 L 388.889 390.770 L 390.263 393.011 L 391.620 395.294 L 392.957 397.619 L 394.275 399.983 L 395.572 402.388 L 396.849 404.831 L 398.103 407.313 L 399.336 409.832 L 400.545 412.388 L 401.732 414.980 L 402.893 417.608 L 404.031 420.270 L 405.143 422.966 L 406.229 425.696 L 407.289 428.457 L 408.322 431.249 L 409.327 434.072 L 410.305 436.925 L 411.255 439.806 L 412.176 442.715 L 413.068 445.652 L 413.930 448.614 L 414.762 451.601 L 415.564 454.613 L 416.336 457.648 L 417.076 460.705 L 417.785 463.784 L 418.462 466.883 L 419.107 470.001 L 419.720 473.139 L 420.300 476.293 L 420.848 479.465 L 421.362 482.652 L 421.844 485.853 L 422.291 489.068 L 422.705 492.296 L 423.085 495.536 L 423.431 498.786 L 423.743 502.046 L 424.021 505.314 L 424.264 508.590 L 424.473 511.873 L 424.647 515.161 L 424.786 518.454 L 424.890 521.750 L 424.960 525.049 L 424.995 528.350 L 424.995 531.650 L 424.960 534.951 L 424.890 538.250 L 424.786 541.546 L 424.647 544.839 L 424.473 548.127 L 424.264 551.410 L 424.021 554.686 L 423.743 557.954 L 423.431 561.214 L 423.085 564.464 L 422.705 567.704 L 422.291 570.932 L 421.844 574.147 L 421.362 577.348 L 420.848 580.535 L 420.300 583.707 L 419.720 586.861 L 419.107 589.999 L 418.462 593.117 L 417.785 596.216 L 417.076 599.295 L 416.336 602.352 L 415.564 605.387 L 414.762 608.399 L 413.930 611.386 L 413.068 614.348 L 412.176 617.285 L 411.255 620.194 L 410.305 623.075 L 409.327 625.928 L 408.322 628.751 L 407.289 631.543 L 406.229 634.304 L 405.143 637.034 L 404.031 639.730 L 402.893 642.392 L 401.732 645.020 L 400.545 647.612 L 399.336 650.168 L 398.103 652.687 L 396.849 655.169 L 395.572 657.612 L 394.275 660.017 L 392.957 662.381 L 391.620 664.706 L 390.263 666.989 L 388.889 669.230 L 387.497 671.430 L 386.088 673.587 L 384.663 675.700 L 383.223 677.770 L 381.768 679.795 L 380.300 681.776 L 378.818 683.712 L 377.325 685.602 L 375.820 687.446 L 374.305 689.244 L 372.781 690.996 L 371.247 692.700 L 369.705 694.358 L 368.157 695.969 L 366.602 697.532 L 365.041 699.048 L 363.476 700.517 L 361.907 701.938 L 360.334 703.311 L 358.760 704.638 L 357.184 705.917 L 355.607 707.148 L 354.030 708.333 L 352.453 709.472 L 350.878 710.563 L 349.305 711.609 L 347.734 712.609 L 346.166 713.564 L 344.602 714.473 L 343.042 715.339 L 341.486 716.160 L 339.936 716.937 L 338.390 717.672 L 336.850 718.364 L 335.315 719.015 L 333.786 719.624 L 332.263 720.192 L 330.746 720.721 L 329.235 721.210 L 327.730 721.660 L 326.230 722.071 L 324.736 722.445 L 323.246 722.782 L 321.761 723.081 L 320.281 723.344 L 318.805 723.572 L 317.332 723.763 L 315.862 723.920 L 314.394 724.041 L 312.929 724.128 L 311.464 724.180 L 309.469 724.203 L 308.365 724.230 L 307.262 724.283 L 306.160 724.364 L 305.061 724.472 L 303.965 724.607 L 302.872 724.768 L 301.784 724.956 L 300.701 725.171 L 299.623 725.413 L 298.552 725.681 L 297.487 725.975 L 296.430 726.295 L 295.381 726.641 L 294.341 727.012 L 293.310 727.409 L 292.290 727.832 L 291.280 728.279 L 290.281 728.750 L 289.295 729.246 L 288.320 729.767 L 287.359 730.311 L 286.412 730.878 L 285.478 731.468 L 284.560 732.081 L 283.656 732.717 L 282.769 733.374 L 281.898 734.054 L 281.044 734.754 L 280.758 735.000 L 210.000 735.000 L 210.000 305.000 Z" fill="black" fill-rule="evenodd"/>
</svg>
