<svg xmlns="http://www.w3.org/2000/svg" viewBox="0 0 600.000 1000">
  <path d="M 308.920 313.014 L 307.817 313.054 L 306.714 313.122 L 305.614 313.217 L 304.516 313.338 L 303.422 313.487 L 302.332 313.663 L 301.246 313.865 L 300.165 314.093 L 299.091 314.349 L 298.023 314.630 L 296.962 314.938 L 295.909 315.271 L 294.865 315.631 L 293.830 316.015 L 292.804 316.425 L 291.789 316.861 L 290.785 317.320 L 289.792 317.805 L 288.812 318.314 L 287.844 318.846 L 286.890 319.402 L 285.950 319.982 L 285.024 320.584 L 284.113 321.209 L 283.218 321.856 L 282.339 322.524 L 281.477 323.215 L 280.632 323.926 L 279.805 324.657 L 278.995 325.409 L 278.205 326.180 L 277.434 326.971 L 276.682 327.780 L 275.950 328.607 L 275.239 329.452 L 274.549 330.315 L 273.880 331.194 L 273.765 331.353 L 273.552 331.370 L 272.103 331.512 L 268.513 331.921 L 267.074 332.109 L 263.492 332.634 L 262.066 332.867 L 258.495 333.509 L 257.084 333.786 L 253.526 334.543 L 252.132 334.863 L 248.589 335.736 L 247.215 336.098 L 243.690 337.085 L 242.338 337.487 L 238.831 338.589 L 237.503 339.029 L 234.018 340.245 L 232.716 340.722 L 229.254 342.050 L 227.979 342.562 L 224.543 344.002 L 223.297 344.547 L 219.889 346.099 L 218.672 346.675 L 215.294 348.336 L 214.107 348.942 L 210.761 350.713 L 209.607 351.345 L 206.295 353.224 L 205.172 353.882 L 201.896 355.868 L 200.807 356.550 L 197.568 358.642 L 196.512 359.345 L 193.313 361.541 L 192.291 362.265 L 189.134 364.564 L 188.145 365.305 L 185.031 367.707 L 184.076 368.464 L 181.008 370.966 L 180.086 371.739 L 177.065 374.339 L 176.176 375.125 L 173.205 377.823 L 172.349 378.621 L 169.428 381.414 L 168.604 382.222 L 165.736 385.110 L 164.945 385.927 L 162.131 388.907 L 161.371 389.733 L 158.613 392.803 L 157.884 393.636 L 155.184 396.795 L 154.485 397.633 L 151.845 400.879 L 151.175 401.722 L 148.596 405.053 L 147.956 405.900 L 145.439 409.313 L 144.826 410.164 L 142.374 413.658 L 141.789 414.512 L 139.402 418.085 L 138.844 418.940 L 136.524 422.589 L 135.992 423.447 L 133.740 427.170 L 133.234 428.028 L 131.052 431.823 L 130.571 432.682 L 128.460 436.547 L 128.002 437.406 L 125.964 441.338 L 125.530 442.197 L 123.565 446.194 L 123.154 447.052 L 121.264 451.112 L 120.875 451.970 L 119.061 456.090 L 118.694 456.947 L 116.956 461.124 L 116.611 461.980 L 114.951 466.213 L 114.626 467.067 L 113.046 471.353 L 112.741 472.205 L 111.240 476.541 L 110.955 477.392 L 109.535 481.775 L 109.269 482.625 L 107.931 487.053 L 107.684 487.902 L 106.428 492.372 L 106.199 493.219 L 105.027 497.728 L 104.815 498.573 L 103.727 503.120 L 103.534 503.964 L 102.530 508.544 L 102.354 509.386 L 101.435 513.998 L 101.276 514.839 L 100.443 519.479 L 100.301 520.319 L 99.554 524.985 L 99.428 525.824 L 98.769 530.512 L 98.659 531.350 L 98.086 536.058 L 97.992 536.895 L 97.507 541.621 L 97.429 542.457 L 97.032 547.197 L 96.970 548.033 L 96.661 552.784 L 96.614 553.619 L 96.393 558.379 L 96.362 559.214 L 96.230 563.980 L 96.214 564.814 L 96.170 569.583 L 96.170 570.417 L 96.214 575.186 L 96.230 576.020 L 96.362 580.786 L 96.393 581.621 L 96.614 586.381 L 96.661 587.216 L 96.970 591.967 L 97.032 592.803 L 97.429 597.543 L 97.507 598.379 L 97.992 603.105 L 98.086 603.942 L 98.659 608.650 L 98.769 609.488 L 99.428 614.176 L 99.554 615.015 L 100.301 619.681 L 100.443 620.521 L 101.276 625.161 L 101.435 626.002 L 102.354 630.614 L 102.530 631.456 L 103.534 636.036 L 103.727 636.880 L 104.815 641.427 L 105.027 642.272 L 106.199 646.781 L 106.428 647.628 L 107.684 652.098 L 107.931 652.947 L 109.269 657.375 L 109.535 658.225 L 110.955 662.608 L 111.240 663.459 L 112.741 667.795 L 113.046 668.647 L 114.626 672.933 L 114.951 673.787 L 116.611 678.020 L 116.956 678.876 L 118.694 683.053 L 119.061 683.910 L 120.875 688.030 L 121.264 688.888 L 123.154 692.948 L 123.565 693.806 L 125.530 697.803 L 125.964 698.662 L 128.002 702.594 L 128.460 703.453 L 130.571 707.318 L 131.052 708.177 L 133.234 711.972 L 133.740 712.830 L 135.992 716.553 L 136.524 717.411 L 138.844 721.060 L 139.402 721.915 L 141.789 725.488 L 142.374 726.342 L 144.826 729.836 L 145.439 730.687 L 147.956 734.100 L 148.596 734.947 L 151.175 738.278 L 151.845 739.121 L 154.485 742.367 L 155.184 743.205 L 157.884 746.364 L 158.613 747.197 L 161.371 750.267 L 162.131 751.093 L 164.945 754.073 L 165.736 754.890 L 168.604 757.778 L 169.428 758.586 L 172.349 761.379 L 173.205 762.177 L 176.176 764.875 L 177.065 765.661 L 180.086 768.261 L 181.008 769.034 L 184.076 771.536 L 185.031 772.293 L 188.145 774.695 L 189.134 775.436 L 192.291 777.735 L 193.313 778.459 L 196.512 780.655 L 197.568 781.358 L 200.807 783.450 L 201.896 784.132 L 205.172 786.118 L 206.295 786.776 L 209.607 788.655 L 210.761 789.287 L 214.107 791.058 L 215.294 791.664 L 218.672 793.325 L 219.889 793.901 L 223.297 795.453 L 224.543 795.998 L 227.979 797.438 L 229.254 797.950 L 232.716 799.278 L 234.018 799.755 L 237.503 800.971 L 238.831 801.411 L 242.338 802.513 L 243.690 802.915 L 247.215 803.902 L 248.589 804.264 L 252.132 805.137 L 253.526 805.457 L 257.084 806.214 L 258.495 806.491 L 262.066 807.133 L 263.492 807.366 L 267.074 807.891 L 268.513 808.079 L 272.103 808.488 L 273.552 808.630 L 277.149 808.922 L 278.605 809.017 L 282.206 809.192 L 283.666 809.240 L 287.269 809.298 L 288.731 809.298 L 292.334 809.240 L 293.794 809.192 L 297.395 809.017 L 298.851 808.922 L 302.448 808.630 L 303.897 808.488 L 307.487 808.079 L 308.926 807.891 L 312.508 807.366 L 313.934 807.133 L 317.505 806.491 L 318.916 806.214 L 322.474 805.457 L 323.868 805.137 L 327.411 804.264 L 328.785 803.902 L 332.310 802.915 L 333.662 802.513 L 337.169 801.411 L 338.497 800.971 L 341.982 799.755 L 343.284 799.278 L 346.746 797.950 L 348.021 797.438 L 351.457 795.998 L 352.703 795.453 L 356.111 793.901 L 357.328 793.325 L 360.706 791.664 L 361.893 791.058 L 365.239 789.287 L 366.393 788.655 L 369.705 786.776 L 370.828 786.118 L 373.260 784.643 L 373.306 784.860 L 373.561 785.934 L 373.842 787.002 L 374.150 788.063 L 374.483 789.116 L 374.843 790.160 L 375.227 791.195 L 375.638 792.221 L 376.073 793.236 L 376.533 794.240 L 377.017 795.233 L 377.526 796.213 L 378.058 797.180 L 378.614 798.135 L 379.194 799.075 L 379.796 800.001 L 380.421 800.911 L 381.068 801.806 L 381.737 802.685 L 382.427 803.548 L 383.138 804.393 L 383.869 805.220 L 384.621 806.029 L 385.392 806.820 L 386.183 807.591 L 386.992 808.343 L 387.819 809.074 L 388.664 809.785 L 389.527 810.476 L 390.406 811.144 L 391.301 811.791 L 392.211 812.416 L 393.137 813.018 L 394.078 813.598 L 395.032 814.154 L 395.999 814.686 L 396.980 815.195 L 397.972 815.680 L 398.976 816.139 L 399.991 816.575 L 401.017 816.985 L 402.052 817.369 L 403.096 817.729 L 404.149 818.062 L 405.210 818.370 L 406.278 818.651 L 407.353 818.907 L 408.433 819.135 L 409.519 819.337 L 410.609 819.513 L 411.704 819.662 L 412.801 819.783 L 413.902 819.878 L 415.004 819.946 L 416.108 819.986 L 417.212 820.000 L 418.317 819.986 L 419.420 819.946 L 420.523 819.878 L 421.623 819.783 L 422.721 819.662 L 423.815 819.513 L 424.905 819.337 L 425.991 819.135 L 427.072 818.907 L 428.146 818.651 L 429.214 818.370 L 430.275 818.062 L 431.328 817.729 L 432.372 817.369 L 433.407 816.985 L 434.433 816.575 L 435.448 816.139 L 436.452 815.680 L 437.445 815.195 L 438.425 814.686 L 439.393 814.154 L 440.347 813.598 L 441.287 813.018 L 442.213 812.416 L 443.124 811.791 L 444.019 811.144 L 444.898 810.476 L 445.760 809.785 L 446.605 809.074 L 447.432 808.343 L 448.241 807.591 L 449.032 806.820 L 449.803 806.029 L 450.555 805.220 L 451.287 804.393 L 451.998 803.548 L 452.688 802.685 L 453.356 801.806 L 454.003 800.911 L 454.628 800.001 L 455.231 799.075 L 455.810 798.135 L 456.366 797.180 L 456.899 796.213 L 457.407 795.233 L 457.892 794.240 L 458.352 793.236 L 458.787 792.221 L 459.197 791.195 L 459.582 790.160 L 459.941 789.116 L 460.274 788.063 L 460.582 787.002 L 460.864 785.934 L 461.119 784.860 L 461.347 783.779 L 461.550 782.693 L 461.725 781.603 L 461.874 780.508 L 461.995 779.411 L 462.090 778.310 L 462.158 777.208 L 462.199 776.104 L 462.212 775.000 L 462.212 670.660 L 462.954 668.647 L 463.259 667.795 L 464.760 663.459 L 465.045 662.608 L 466.465 658.225 L 466.731 657.375 L 468.069 652.947 L 468.316 652.098 L 469.572 647.628 L 469.801 646.781 L 470.973 642.272 L 471.185 641.427 L 472.273 636.880 L 472.466 636.036 L 473.470 631.456 L 473.646 630.614 L 474.565 626.002 L 474.724 625.161 L 475.557 620.521 L 475.699 619.681 L 476.446 615.015 L 476.572 614.176 L 477.231 609.488 L 477.341 608.650 L 477.914 603.942 L 478.008 603.105 L 478.493 598.379 L 478.571 597.543 L 478.968 592.803 L 479.030 591.967 L 479.339 587.216 L 479.386 586.381 L 479.607 581.621 L 479.638 580.786 L 479.770 576.020 L 479.786 575.186 L 479.830 570.417 L 479.830 569.583 L 479.786 564.814 L 479.770 563.980 L 479.638 559.214 L 479.607 558.379 L 479.386 553.619 L 479.339 552.784 L 479.030 548.033 L 478.968 547.197 L 478.571 542.457 L 478.493 541.621 L 478.008 536.895 L 477.914 536.058 L 477.341 531.350 L 477.231 530.512 L 476.572 525.824 L 476.446 524.985 L 475.699 520.319 L 475.557 519.479 L 474.724 514.839 L 474.565 513.998 L 473.646 509.386 L 473.470 508.544 L 472.466 503.964 L 472.273 503.120 L 471.185 498.573 L 470.973 497.728 L 469.801 493.219 L 469.572 492.372 L 468.316 487.902 L 468.069 487.053 L 466.731 482.625 L 466.465 481.775 L 465.045 477.392 L 464.760 476.541 L 463.259 472.205 L 462.954 471.353 L 462.212 469.340 L 462.212 358.000 L 462.212 350.000 L 462.199 348.896 L 462.158 347.792 L 462.090 346.690 L 461.995 345.589 L 461.874 344.492 L 461.725 343.397 L 461.550 342.307 L 461.347 341.221 L 461.119 340.140 L 460.864 339.066 L 460.582 337.998 L 460.274 336.937 L 459.941 335.884 L 459.582 334.840 L 459.197 333.805 L 458.787 332.779 L 458.352 331.764 L 457.892 330.760 L 457.407 329.767 L 456.899 328.787 L 456.366 327.820 L 455.810 326.865 L 455.231 325.925 L 454.628 324.999 L 454.003 324.089 L 453.356 323.194 L 452.688 322.315 L 451.998 321.452 L 451.287 320.607 L 450.555 319.780 L 449.803 318.971 L 449.032 318.180 L 448.241 317.409 L 447.432 316.657 L 446.605 315.926 L 445.760 315.215 L 444.898 314.524 L 444.019 313.856 L 443.124 313.209 L 442.213 312.584 L 441.287 311.982 L 440.347 311.402 L 439.393 310.846 L 438.425 310.314 L 437.445 309.805 L 436.452 309.320 L 435.448 308.861 L 434.433 308.425 L 433.407 308.015 L 432.372 307.631 L 431.328 307.271 L 430.275 306.938 L 429.214 306.630 L 428.146 306.349 L 427.072 306.093 L 425.991 305.865 L 424.905 305.663 L 423.815 305.487 L 422.721 305.338 L 421.623 305.217 L 420.523 305.122 L 419.420 305.054 L 418.317 305.014 L 417.212 305.000 L 416.108 305.014 L 415.004 305.054 L 413.902 305.122 L 412.801 305.217 L 411.704 305.338 L 410.609 305.487 L 409.519 305.663 L 408.433 305.865 L 407.353 306.093 L 406.278 306.349 L 405.210 306.630 L 404.149 306.938 L 403.096 307.271 L 402.052 307.631 L 401.017 308.015 L 399.991 308.425 L 398.976 308.861 L 397.972 309.320 L 396.980 309.805 L 395.999 310.314 L 395.032 310.846 L 394.078 311.402 L 393.137 311.982 L 392.211 312.584 L 391.605 313.000 L 310.025 313.000 L 308.920 313.014 Z M 372.212 530.000 L 265.975 530.000 L 264.871 530.014 L 263.767 530.054 L 262.665 530.122 L 261.564 530.217 L 260.467 530.338 L 259.372 530.487 L 258.282 530.663 L 257.196 530.865 L 256.116 531.093 L 255.041 531.349 L 253.973 531.630 L 252.912 531.938 L 251.860 532.271 L 250.815 532.631 L 249.780 533.015 L 248.754 533.425 L 247.739 533.861 L 246.735 534.320 L 245.743 534.805 L 244.762 535.314 L 243.795 535.846 L 242.841 536.402 L 241.900 536.982 L 240.975 537.584 L 240.064 538.209 L 239.169 538.856 L 238.290 539.524 L 237.428 540.215 L 236.582 540.926 L 235.755 541.657 L 234.946 542.409 L 234.155 543.180 L 233.384 543.971 L 232.632 544.780 L 231.901 545.607 L 231.190 546.452 L 230.500 547.315 L 229.831 548.194 L 229.184 549.089 L 228.559 549.999 L 227.957 550.925 L 227.377 551.865 L 226.821 552.820 L 226.289 553.787 L 225.780 554.767 L 225.296 555.760 L 224.836 556.764 L 224.401 557.779 L 223.991 558.805 L 223.606 559.840 L 223.246 560.884 L 222.913 561.937 L 222.605 562.998 L 222.324 564.066 L 222.069 565.140 L 221.840 566.221 L 221.638 567.307 L 221.462 568.397 L 221.314 569.492 L 221.192 570.589 L 221.097 571.690 L 221.029 572.792 L 220.989 573.896 L 220.975 575.000 L 220.989 576.104 L 221.029 577.208 L 221.097 578.310 L 221.192 579.411 L 221.314 580.508 L 221.462 581.603 L 221.638 582.693 L 221.840 583.779 L 222.069 584.860 L 222.324 585.934 L 222.605 587.002 L 222.913 588.063 L 223.246 589.116 L 223.606 590.160 L 223.991 591.195 L 224.401 592.221 L 224.836 593.236 L 225.296 594.240 L 225.780 595.233 L 226.289 596.213 L 226.821 597.180 L 227.377 598.135 L 227.957 599.075 L 228.559 600.001 L 229.184 600.911 L 229.831 601.806 L 230.500 602.685 L 231.190 603.548 L 231.901 604.393 L 232.632 605.220 L 233.384 606.029 L 234.155 606.820 L 234.946 607.591 L 235.755 608.343 L 236.582 609.074 L 237.428 609.785 L 238.290 610.476 L 239.169 611.144 L 240.064 611.791 L 240.975 612.416 L 241.900 613.018 L 242.841 613.598 L 243.795 614.154 L 244.762 614.686 L 245.743 615.195 L 246.735 615.680 L 247.739 616.139 L 248.754 616.575 L 249.780 616.985 L 250.815 617.369 L 251.860 617.729 L 252.912 618.062 L 253.973 618.370 L 255.041 618.651 L 256.116 618.907 L 257.196 619.135 L 258.282 619.337 L 259.372 619.513 L 260.467 619.662 L 261.564 619.783 L 262.665 619.878 L 263.767 619.946 L 264.871 619.986 L 265.975 620.000 L 372.212 620.000 L 372.212 652.906 L 371.458 654.526 L 369.915 657.664 L 368.322 660.738 L 366.680 663.744 L 364.991 666.680 L 363.258 669.545 L 361.483 672.338 L 359.667 675.055 L 357.813 677.696 L 355.923 680.260 L 353.998 682.745 L 352.042 685.149 L 350.057 687.472 L 348.044 689.713 L 346.007 691.871 L 343.946 693.946 L 341.865 695.936 L 339.766 697.842 L 337.651 699.663 L 335.522 701.399 L 333.381 703.051 L 331.229 704.617 L 329.070 706.100 L 326.904 707.499 L 324.734 708.815 L 322.560 710.048 L 320.384 711.199 L 318.208 712.269 L 316.033 713.260 L 313.859 714.171 L 311.687 715.004 L 309.518 715.761 L 307.353 716.441 L 305.190 717.047 L 303.032 717.579 L 300.877 718.038 L 298.725 718.425 L 296.576 718.740 L 294.430 718.984 L 292.285 719.159 L 290.142 719.263 L 288.000 719.298 L 285.858 719.263 L 283.715 719.159 L 281.570 718.984 L 279.424 718.740 L 277.275 718.425 L 275.123 718.038 L 272.968 717.579 L 270.810 717.047 L 268.647 716.441 L 266.482 715.761 L 264.313 715.004 L 262.141 714.171 L 259.967 713.260 L 257.792 712.269 L 255.616 711.199 L 253.440 710.048 L 251.266 708.815 L 249.096 707.499 L 246.930 706.100 L 244.771 704.617 L 242.619 703.051 L 240.478 701.399 L 238.349 699.663 L 236.234 697.842 L 234.135 695.936 L 232.054 693.946 L 229.993 691.871 L 227.956 689.713 L 225.943 687.472 L 223.958 685.149 L 222.002 682.745 L 220.077 680.260 L 218.187 677.696 L 216.333 675.055 L 214.517 672.338 L 212.742 669.545 L 211.009 666.680 L 209.320 663.744 L 207.678 660.738 L 206.085 657.664 L 204.542 654.526 L 203.051 651.324 L 201.614 648.061 L 200.232 644.739 L 198.908 641.361 L 197.642 637.929 L 196.436 634.445 L 195.292 630.913 L 194.211 627.334 L 193.193 623.712 L 192.241 620.049 L 191.355 616.348 L 190.536 612.611 L 189.785 608.842 L 189.103 605.043 L 188.491 601.217 L 187.950 597.367 L 187.479 593.497 L 187.080 589.608 L 186.753 585.705 L 186.498 581.789 L 186.316 577.864 L 186.206 573.934 L 186.170 570.000 L 186.206 566.066 L 186.316 562.136 L 186.498 558.211 L 186.753 554.295 L 187.080 550.392 L 187.479 546.503 L 187.950 542.633 L 188.491 538.783 L 189.103 534.957 L 189.785 531.158 L 190.536 527.389 L 191.355 523.652 L 192.241 519.951 L 193.193 516.288 L 194.211 512.666 L 195.292 509.087 L 196.436 505.555 L 197.642 502.071 L 198.908 498.639 L 200.232 495.261 L 201.614 491.939 L 203.051 488.676 L 204.542 485.474 L 206.085 482.336 L 207.678 479.262 L 209.320 476.256 L 211.009 473.320 L 212.742 470.455 L 214.517 467.662 L 216.333 464.945 L 218.187 462.304 L 220.077 459.740 L 222.002 457.255 L 223.958 454.851 L 225.943 452.528 L 227.956 450.287 L 229.993 448.129 L 232.054 446.054 L 234.135 444.064 L 236.234 442.158 L 238.349 440.337 L 240.478 438.601 L 242.619 436.949 L 244.771 435.383 L 246.930 433.900 L 249.096 432.501 L 251.266 431.185 L 253.440 429.952 L 255.616 428.801 L 257.792 427.731 L 259.967 426.740 L 262.141 425.829 L 264.313 424.996 L 266.482 424.239 L 268.647 423.559 L 270.810 422.953 L 272.968 422.421 L 275.123 421.962 L 277.275 421.575 L 279.424 421.260 L 281.570 421.016 L 283.715 420.841 L 285.858 420.737 L 288.000 420.702 L 290.142 420.737 L 292.285 420.841 L 294.430 421.016 L 296.576 421.260 L 298.725 421.575 L 300.877 421.962 L 303.032 422.421 L 305.190 422.953 L 307.353 423.559 L 309.518 424.239 L 311.687 424.996 L 313.859 425.829 L 316.033 426.740 L 318.208 427.731 L 320.384 428.801 L 322.560 429.952 L 324.734 431.185 L 326.904 432.501 L 329.070 433.900 L 331.229 435.383 L 333.381 436.949 L 335.522 438.601 L 337.651 440.337 L 339.766 442.158 L 341.865 444.064 L 343.946 446.054 L 346.007 448.129 L 348.044 450.287 L 350.057 452.528 L 352.042 454.851 L 353.998 457.255 L 355.923 459.740 L 357.813 462.304 L 359.667 464.945 L 361.483 467.662 L 363.258 470.455 L 364.991 473.320 L 366.680 476.256 L 368.322 479.262 L 369.915 482.336 L 371.458 485.474 L 372.212 487.094 L 372.212 530.000 Z" fill="black" fill-rule="evenodd"/>
</svg>
