<svg xmlns="http://www.w3.org/2000/svg" viewBox="0 0 600.000 1000.000">
  <path d="M 302.208,215.054 L 304.411,215.217 L 306.603,215.487 L 308.779,215.865 L 310.934,216.349 L 313.063,216.938 L 315.160,217.631 L 317.221,218.425 L 319.240,219.320 L 321.213,220.314 L 323.135,221.402 L 325.001,222.584 L 326.806,223.856 L 328.548,225.215 L 330.220,226.657 L 331.820,228.180 L 333.343,229.780 L 334.785,231.452 L 336.144,233.194 L 337.416,234.999 L 338.598,236.865 L 339.686,238.787 L 340.680,240.760 L 341.575,242.779 L 342.369,244.840 L 343.062,246.937 L 343.651,249.066 L 344.135,251.221 L 344.513,253.397 L 344.783,255.589 L 344.946,257.792 L 345.000,260.000 L 345.000,780.000 L 344.946,782.208 L 344.783,784.411 L 344.513,786.603 L 344.135,788.779 L 343.651,790.934 L 343.062,793.063 L 342.369,795.160 L 341.575,797.221 L 340.680,799.240 L 339.686,801.213 L 338.598,803.135 L 337.416,805.001 L 336.144,806.806 L 334.785,808.548 L 333.343,810.220 L 331.820,811.820 L 330.220,813.343 L 328.548,814.785 L 326.806,816.144 L 325.001,817.416 L 323.135,818.598 L 321.213,819.686 L 319.240,820.680 L 317.221,821.575 L 315.160,822.369 L 313.063,823.062 L 310.934,823.651 L 308.779,824.135 L 306.603,824.513 L 304.411,824.783 L 302.208,824.946 L 300.000,825.000 L 297.792,824.946 L 295.589,824.783 L 293.397,824.513 L 291.221,824.135 L 289.066,823.651 L 286.937,823.062 L 284.840,822.369 L 282.779,821.575 L 280.760,820.680 L 278.787,819.686 L 276.865,818.598 L 274.999,817.416 L 273.194,816.144 L 271.452,814.785 L 269.780,813.343 L 268.180,811.820 L 266.657,810.220 L 265.215,808.548 L 263.856,806.806 L 262.584,805.001 L 261.402,803.135 L 260.314,801.213 L 259.320,799.240 L 258.425,797.221 L 257.631,795.160 L 256.938,793.063 L 256.349,790.934 L 255.865,788.779 L 255.487,786.603 L 255.217,784.411 L 255.054,782.208 L 255.000,780.000 L 255.000,305.000 L 170.000,305.000 L 170.000,780.000 L 169.946,782.208 L 169.783,784.411 L 169.513,786.603 L 169.135,788.779 L 168.651,790.934 L 168.062,793.063 L 167.369,795.160 L 166.575,797.221 L 165.680,799.240 L 164.686,801.213 L 163.598,803.135 L 162.416,805.001 L 161.144,806.806 L 159.785,808.548 L 158.343,810.220 L 156.820,811.820 L 155.220,813.343 L 153.548,814.785 L 151.806,816.144 L 150.001,817.416 L 148.135,818.598 L 146.213,819.686 L 144.240,820.680 L 142.221,821.575 L 140.160,822.369 L 138.063,823.062 L 135.934,823.651 L 133.779,824.135 L 131.603,824.513 L 129.411,824.783 L 127.208,824.946 L 125.000,825.000 L 122.792,824.946 L 120.589,824.783 L 118.397,824.513 L 116.221,824.135 L 114.066,823.651 L 111.937,823.062 L 109.840,822.369 L 107.779,821.575 L 105.760,820.680 L 103.787,819.686 L 101.865,818.598 L 99.999,817.416 L 98.194,816.144 L 96.452,814.785 L 94.780,813.343 L 93.180,811.820 L 91.657,810.220 L 90.215,808.548 L 88.856,806.806 L 87.584,805.001 L 86.402,803.135 L 85.314,801.213 L 84.320,799.240 L 83.425,797.221 L 82.631,795.160 L 81.938,793.063 L 81.349,790.934 L 80.865,788.779 L 80.487,786.603 L 80.217,784.411 L 80.054,782.208 L 80.000,780.000 L 80.000,260.000 L 80.000,0.000 L 80.054,-2.208 L 80.217,-4.411 L 80.487,-6.603 L 80.865,-8.779 L 81.349,-10.934 L 81.938,-13.063 L 82.631,-15.160 L 83.425,-17.221 L 84.320,-19.240 L 85.314,-21.213 L 86.402,-23.135 L 87.584,-25.001 L 88.856,-26.806 L 90.215,-28.548 L 91.657,-30.220 L 93.180,-31.820 L 94.780,-33.343 L 96.452,-34.785 L 98.194,-36.144 L 99.999,-37.416 L 101.865,-38.598 L 103.787,-39.686 L 105.760,-40.680 L 107.779,-41.575 L 109.840,-42.369 L 111.937,-43.062 L 114.066,-43.651 L 116.221,-44.135 L 118.397,-44.513 L 120.589,-44.783 L 122.792,-44.946 L 125.000,-45.000 L 127.208,-44.946 L 129.411,-44.783 L 131.603,-44.513 L 133.779,-44.135 L 135.934,-43.651 L 138.063,-43.062 L 140.160,-42.369 L 142.221,-41.575 L 144.240,-40.680 L 146.213,-39.686 L 148.135,-38.598 L 150.001,-37.416 L 151.806,-36.144 L 153.548,-34.785 L 155.220,-33.343 L 156.820,-31.820 L 158.343,-30.220 L 159.785,-28.548 L 161.144,-26.806 L 162.416,-25.001 L 163.598,-23.135 L 164.686,-21.213 L 165.680,-19.240 L 166.575,-17.221 L 167.369,-15.160 L 168.062,-13.063 L 168.651,-10.934 L 169.135,-8.779 L 169.513,-6.603 L 169.783,-4.411 L 169.946,-2.208 L 170.000,0.000 L 170.000,215.000 L 300.000,215.000 L 302.208,215.054 Z" fill="black" fill-rule="evenodd"/>
</svg>
