<svg xmlns="http://www.w3.org/2000/svg" viewBox="0 0 600.000 1000.000">
  <path d="M 501.786,593.904 L 501.573,602.580 L 501.465,604.786 L 500.827,613.440 L 500.610,615.638 L 499.548,624.250 L 499.224,626.435 L 497.740,634.985 L 497.309,637.152 L 495.408,645.618 L 494.871,647.761 L 492.557,656.124 L 491.916,658.238 L 489.194,666.478 L 488.450,668.557 L 485.327,676.654 L 484.481,678.694 L 480.965,686.628 L 480.020,688.624 L 476.119,696.375 L 475.078,698.323 L 470.800,705.874 L 469.665,707.768 L 465.022,715.100 L 463.795,716.936 L 459.920,722.438 L 459.920,780.000 L 459.866,782.208 L 459.703,784.411 L 459.433,786.603 L 459.055,788.779 L 458.571,790.934 L 457.982,793.063 L 457.289,795.160 L 456.495,797.221 L 455.600,799.240 L 454.606,801.213 L 453.518,803.135 L 452.336,805.001 L 451.064,806.806 L 449.705,808.548 L 448.263,810.220 L 446.740,811.820 L 445.140,813.343 L 443.468,814.785 L 441.726,816.144 L 439.921,817.416 L 438.055,818.598 L 436.133,819.686 L 434.160,820.680 L 432.141,821.575 L 430.080,822.369 L 427.983,823.062 L 425.854,823.651 L 423.699,824.135 L 421.523,824.513 L 419.331,824.783 L 417.128,824.946 L 414.920,825.000 L 412.712,824.946 L 410.509,824.783 L 408.317,824.513 L 406.141,824.135 L 403.986,823.651 L 401.857,823.062 L 399.760,822.369 L 397.699,821.575 L 395.680,820.680 L 393.707,819.686 L 391.785,818.598 L 389.919,817.416 L 388.114,816.144 L 386.372,814.785 L 384.700,813.343 L 383.100,811.820 L 381.577,810.220 L 380.135,808.548 L 378.776,806.806 L 377.504,805.001 L 376.322,803.135 L 375.234,801.213 L 374.240,799.240 L 373.345,797.221 L 372.551,795.160 L 372.312,794.437 L 365.894,797.281 L 363.854,798.127 L 355.757,801.250 L 353.678,801.994 L 345.438,804.716 L 343.324,805.357 L 334.961,807.671 L 332.818,808.208 L 324.352,810.109 L 322.185,810.540 L 313.635,812.024 L 311.450,812.348 L 302.838,813.410 L 300.640,813.627 L 291.986,814.265 L 289.780,814.373 L 281.104,814.586 L 278.896,814.586 L 270.220,814.373 L 268.014,814.265 L 259.360,813.627 L 257.162,813.410 L 248.550,812.348 L 246.365,812.024 L 237.815,810.540 L 235.648,810.109 L 227.182,808.208 L 225.039,807.671 L 216.676,805.357 L 214.562,804.716 L 206.322,801.994 L 204.243,801.250 L 196.146,798.127 L 194.106,797.281 L 186.172,793.765 L 184.176,792.820 L 176.425,788.919 L 174.477,787.878 L 166.926,783.600 L 165.032,782.465 L 157.700,777.822 L 155.864,776.595 L 148.769,771.598 L 146.995,770.283 L 140.154,764.944 L 138.446,763.543 L 131.876,757.875 L 130.239,756.391 L 123.954,750.408 L 122.392,748.846 L 116.409,742.561 L 114.925,740.924 L 109.257,734.354 L 107.856,732.646 L 102.517,725.805 L 101.202,724.031 L 96.205,716.936 L 94.978,715.100 L 90.335,707.768 L 89.200,705.874 L 84.922,698.323 L 83.881,696.375 L 79.980,688.624 L 79.035,686.628 L 75.519,678.694 L 74.673,676.654 L 71.550,668.557 L 70.806,666.478 L 68.084,658.238 L 67.443,656.124 L 65.129,647.761 L 64.592,645.618 L 62.691,637.152 L 62.260,634.985 L 60.776,626.435 L 60.452,624.250 L 59.390,615.638 L 59.173,613.440 L 58.535,604.786 L 58.427,602.580 L 58.214,593.904 L 58.214,591.696 L 58.427,583.020 L 58.535,580.814 L 59.173,572.160 L 59.390,569.962 L 60.452,561.350 L 60.776,559.165 L 62.260,550.615 L 62.691,548.448 L 64.592,539.982 L 65.129,537.839 L 67.443,529.476 L 68.084,527.362 L 70.806,519.122 L 71.550,517.043 L 74.673,508.946 L 75.519,506.906 L 79.035,498.972 L 79.980,496.976 L 83.881,489.225 L 84.922,487.277 L 89.200,479.726 L 90.335,477.832 L 94.978,470.500 L 96.205,468.664 L 101.202,461.569 L 102.517,459.795 L 107.856,452.954 L 109.257,451.246 L 114.925,444.676 L 116.409,443.039 L 122.392,436.754 L 123.954,435.192 L 130.239,429.209 L 131.876,427.725 L 138.446,422.057 L 140.154,420.656 L 146.995,415.317 L 148.769,414.002 L 155.864,409.005 L 157.700,407.778 L 165.032,403.135 L 166.926,402.000 L 174.477,397.722 L 176.425,396.681 L 184.176,392.780 L 186.172,391.835 L 194.106,388.319 L 196.146,387.473 L 204.243,384.350 L 206.322,383.606 L 214.562,380.884 L 216.676,380.243 L 225.039,377.929 L 227.182,377.392 L 235.648,375.491 L 237.815,375.060 L 246.365,373.576 L 248.550,373.252 L 257.162,372.190 L 259.360,371.973 L 268.014,371.335 L 270.220,371.227 L 278.896,371.014 L 281.104,371.014 L 289.780,371.227 L 291.986,371.335 L 300.640,371.973 L 302.838,372.190 L 311.450,373.252 L 313.635,373.576 L 322.185,375.060 L 324.352,375.491 L 332.818,377.392 L 334.961,377.929 L 343.324,380.243 L 345.438,380.884 L 353.678,383.606 L 355.757,384.350 L 363.854,387.473 L 365.894,388.319 L 369.920,390.103 L 369.920,260.000 L 369.974,257.792 L 370.137,255.589 L 370.407,253.397 L 370.785,251.221 L 371.269,249.066 L 371.858,246.937 L 372.551,244.840 L 373.345,242.779 L 374.240,240.760 L 375.234,238.787 L 376.322,236.865 L 377.504,234.999 L 378.776,233.194 L 380.135,231.452 L 381.577,229.780 L 383.100,228.180 L 384.700,226.657 L 386.372,225.215 L 388.114,223.856 L 389.919,222.584 L 391.785,221.402 L 393.707,220.314 L 395.680,219.320 L 397.699,218.425 L 399.760,217.631 L 401.857,216.938 L 403.986,216.349 L 406.141,215.865 L 408.317,215.487 L 410.509,215.217 L 412.712,215.054 L 414.920,215.000 L 417.128,215.054 L 419.331,215.217 L 421.523,215.487 L 423.699,215.865 L 425.854,216.349 L 427.983,216.938 L 430.080,217.631 L 432.141,218.425 L 434.160,219.320 L 436.133,220.314 L 438.055,221.402 L 439.921,222.584 L 441.726,223.856 L 443.468,225.215 L 445.140,226.657 L 446.740,228.180 L 448.263,229.780 L 449.705,231.452 L 451.064,233.194 L 452.336,234.999 L 453.518,236.865 L 454.606,238.787 L 455.600,240.760 L 456.495,242.779 L 457.289,244.840 L 457.982,246.937 L 458.571,249.066 L 459.055,251.221 L 459.433,253.397 L 459.703,255.589 L 459.866,257.792 L 459.920,260.000 L 459.920,463.162 L 463.795,468.664 L 465.022,470.500 L 469.665,477.832 L 470.800,479.726 L 475.078,487.277 L 476.119,489.225 L 480.020,496.976 L 480.965,498.972 L 484.481,506.906 L 485.327,508.946 L 488.450,517.043 L 489.194,519.122 L 491.916,527.362 L 492.557,529.476 L 494.871,537.839 L 495.408,539.982 L 497.309,548.448 L 497.740,550.615 L 499.224,559.165 L 499.548,561.350 L 500.610,569.962 L 500.827,572.160 L 501.465,580.814 L 501.573,583.020 L 501.786,591.696 L 501.786,593.904 Z M 353.217,483.224 L 347.752,479.763 L 342.124,476.575 L 336.346,473.666 L 330.432,471.045 L 324.398,468.717 L 318.256,466.688 L 312.021,464.963 L 305.710,463.546 L 299.337,462.440 L 292.917,461.648 L 286.466,461.172 L 280.000,461.014 L 273.534,461.172 L 267.083,461.648 L 260.663,462.440 L 254.290,463.546 L 247.979,464.963 L 241.744,466.688 L 235.602,468.717 L 229.568,471.045 L 223.654,473.666 L 217.876,476.575 L 212.248,479.763 L 206.783,483.224 L 201.495,486.948 L 196.396,490.928 L 191.498,495.153 L 186.813,499.613 L 182.353,504.298 L 178.128,509.196 L 174.148,514.295 L 170.424,519.583 L 166.963,525.048 L 163.775,530.676 L 160.866,536.454 L 158.245,542.368 L 155.917,548.402 L 153.888,554.544 L 152.163,560.779 L 150.746,567.090 L 149.640,573.463 L 148.848,579.883 L 148.372,586.334 L 148.214,592.800 L 148.372,599.266 L 148.848,605.717 L 149.640,612.137 L 150.746,618.510 L 152.163,624.821 L 153.888,631.056 L 155.917,637.198 L 158.245,643.232 L 160.866,649.146 L 163.775,654.924 L 166.963,660.552 L 170.424,666.017 L 174.148,671.305 L 178.128,676.404 L 182.353,681.302 L 186.813,685.987 L 191.498,690.447 L 196.396,694.672 L 201.495,698.652 L 206.783,702.376 L 212.248,705.837 L 217.876,709.025 L 223.654,711.934 L 229.568,714.555 L 235.602,716.883 L 241.744,718.912 L 247.979,720.637 L 254.290,722.054 L 260.663,723.160 L 267.083,723.952 L 273.534,724.428 L 280.000,724.586 L 286.466,724.428 L 292.917,723.952 L 299.337,723.160 L 305.710,722.054 L 312.021,720.637 L 318.256,718.912 L 324.398,716.883 L 330.432,714.555 L 336.346,711.934 L 342.124,709.025 L 347.752,705.837 L 353.217,702.376 L 358.505,698.652 L 363.604,694.672 L 368.502,690.447 L 369.920,689.098 L 369.920,575.920 L 290.000,575.920 L 287.792,575.866 L 285.589,575.703 L 283.397,575.433 L 281.221,575.055 L 279.066,574.571 L 276.937,573.982 L 274.840,573.289 L 272.779,572.495 L 270.760,571.600 L 268.787,570.606 L 266.865,569.518 L 264.999,568.336 L 263.194,567.064 L 261.452,565.705 L 259.780,564.263 L 258.180,562.740 L 256.657,561.140 L 255.215,559.468 L 253.856,557.726 L 252.584,555.921 L 251.402,554.055 L 250.314,552.133 L 249.320,550.160 L 248.425,548.141 L 247.631,546.080 L 246.938,543.983 L 246.349,541.854 L 245.865,539.699 L 245.487,537.523 L 245.217,535.331 L 245.054,533.128 L 245.000,530.920 L 245.054,528.712 L 245.217,526.509 L 245.487,524.317 L 245.865,522.141 L 246.349,519.986 L 246.938,517.857 L 247.631,515.760 L 248.425,513.699 L 249.320,511.680 L 250.314,509.707 L 251.402,507.785 L 252.584,505.919 L 253.856,504.114 L 255.215,502.372 L 256.657,500.700 L 258.180,499.100 L 259.780,497.577 L 261.452,496.135 L 263.194,494.776 L 264.999,493.504 L 266.865,492.322 L 268.787,491.234 L 270.760,490.240 L 272.779,489.345 L 274.840,488.551 L 276.937,487.858 L 279.066,487.269 L 281.221,486.785 L 283.397,486.407 L 285.589,486.137 L 287.792,485.974 L 290.000,485.920 L 357.045,485.920 L 353.217,483.224 Z" fill="black" fill-rule="evenodd"/>
</svg>
