<svg xmlns="http://www.w3.org/2000/svg" viewBox="0 0 600.000 1000.000">
  <path d="M 259.272,966.971 L 258.146,968.872 L 256.929,970.715 L 255.623,972.496 L 254.231,974.211 L 252.756,975.855 L 251.203,977.425 L 249.574,978.917 L 247.874,980.327 L 246.107,981.653 L 244.277,982.889 L 242.389,984.035 L 240.447,985.087 L 238.455,986.042 L 236.419,986.898 L 234.343,987.653 L 232.233,988.305 L 230.094,988.853 L 227.930,989.296 L 225.747,989.632 L 223.550,989.860 L 221.344,989.980 L 219.136,989.992 L 216.929,989.895 L 214.730,989.690 L 212.543,989.378 L 210.375,988.959 L 208.229,988.433 L 206.113,987.803 L 204.029,987.070 L 201.984,986.236 L 199.982,985.302 L 198.029,984.272 L 196.128,983.146 L 194.285,981.929 L 192.504,980.623 L 190.789,979.231 L 189.145,977.756 L 187.575,976.203 L 186.083,974.574 L 184.673,972.874 L 183.347,971.107 L 182.111,969.277 L 180.965,967.389 L 179.913,965.447 L 178.958,963.455 L 178.102,961.419 L 177.347,959.343 L 176.695,957.233 L 176.147,955.094 L 175.704,952.930 L 175.368,950.747 L 175.140,948.550 L 175.020,946.344 L 175.008,944.136 L 175.105,941.929 L 175.477,936.482 L 175.664,934.442 L 175.943,932.413 L 176.314,930.398 L 177.425,925.053 L 177.887,923.057 L 178.440,921.084 L 179.082,919.139 L 180.910,913.994 L 181.640,912.080 L 182.456,910.201 L 183.357,908.361 L 185.868,903.514 L 186.852,901.717 L 187.917,899.966 L 189.060,898.266 L 192.208,893.806 L 193.427,892.159 L 194.720,890.570 L 196.084,889.042 L 199.810,885.052 L 201.242,883.587 L 202.740,882.188 L 204.299,880.860 L 208.534,877.414 L 210.152,876.158 L 211.826,874.976 L 213.552,873.872 L 218.216,871.036 L 219.990,870.011 L 221.809,869.069 L 223.669,868.210 L 228.677,866.035 L 230.574,865.262 L 232.504,864.576 L 234.464,863.978 L 239.721,862.505 L 241.706,861.998 L 243.712,861.581 L 245.734,861.256 L 251.143,860.512 L 253.178,860.280 L 255.000,860.155 L 255.000,260.000 L 255.054,257.792 L 255.217,255.589 L 255.487,253.397 L 255.865,251.221 L 256.349,249.066 L 256.938,246.937 L 257.631,244.840 L 258.425,242.779 L 259.320,240.760 L 260.314,238.787 L 261.402,236.865 L 262.584,234.999 L 263.856,233.194 L 265.215,231.452 L 266.657,229.780 L 268.180,228.180 L 269.780,226.657 L 271.452,225.215 L 273.194,223.856 L 274.999,222.584 L 276.865,221.402 L 278.787,220.314 L 280.760,219.320 L 282.779,218.425 L 284.840,217.631 L 286.937,216.938 L 289.066,216.349 L 291.221,215.865 L 293.397,215.487 L 295.589,215.217 L 297.792,215.054 L 300.000,215.000 L 302.208,215.054 L 304.411,215.217 L 306.603,215.487 L 308.779,215.865 L 310.934,216.349 L 313.063,216.938 L 315.160,217.631 L 317.221,218.425 L 319.240,219.320 L 321.213,220.314 L 323.135,221.402 L 325.001,222.584 L 326.806,223.856 L 328.548,225.215 L 330.220,226.657 L 331.820,228.180 L 333.343,229.780 L 334.785,231.452 L 336.144,233.194 L 337.416,234.999 L 338.598,236.865 L 339.686,238.787 L 340.680,240.760 L 341.575,242.779 L 342.369,244.840 L 343.062,246.937 L 343.651,249.066 L 344.135,251.221 L 344.513,253.397 L 344.783,255.589 L 344.946,257.792 L 345.000,260.000 L 345.000,945.000 L 344.984,945.672 L 344.980,946.344 L 344.956,946.776 L 344.946,947.208 L 344.896,947.879 L 344.860,948.550 L 344.815,948.980 L 344.783,949.411 L 344.701,950.078 L 344.632,950.747 L 344.566,951.174 L 344.513,951.603 L 344.398,952.265 L 344.296,952.930 L 344.209,953.353 L 344.135,953.779 L 343.988,954.435 L 343.853,955.094 L 343.746,955.512 L 343.651,955.934 L 343.472,956.582 L 343.305,957.233 L 343.178,957.646 L 343.062,958.063 L 342.851,958.701 L 342.653,959.343 L 342.505,959.750 L 342.369,960.160 L 342.128,960.787 L 341.898,961.419 L 341.730,961.817 L 341.575,962.221 L 341.302,962.835 L 341.042,963.455 L 340.855,963.845 L 340.680,964.240 L 340.377,964.840 L 340.087,965.447 L 339.881,965.827 L 339.686,966.213 L 339.355,966.798 L 339.035,967.389 L 338.811,967.759 L 338.598,968.135 L 338.238,968.703 L 337.889,969.277 L 337.647,969.635 L 337.416,970.001 L 337.029,970.550 L 336.653,971.107 L 336.393,971.453 L 336.144,971.806 L 335.731,972.336 L 335.327,972.874 L 335.051,973.207 L 334.785,973.548 L 334.346,974.057 L 333.917,974.574 L 333.625,974.893 L 333.343,975.220 L 332.879,975.707 L 332.425,976.203 L 332.118,976.507 L 331.820,976.820 L 331.333,977.283 L 330.855,977.756 L 330.533,978.045 L 330.220,978.343 L 329.711,978.782 L 329.211,979.231 L 328.875,979.503 L 328.548,979.785 L 328.018,980.199 L 327.496,980.623 L 327.147,980.878 L 326.806,981.144 L 326.257,981.531 L 325.715,981.929 L 325.354,982.167 L 325.001,982.416 L 324.433,982.776 L 323.872,983.146 L 323.500,983.367 L 323.135,983.598 L 322.550,983.929 L 321.971,984.272 L 321.589,984.473 L 321.213,984.686 L 320.612,984.989 L 320.018,985.302 L 319.626,985.485 L 319.240,985.680 L 318.625,985.952 L 318.016,986.236 L 317.616,986.399 L 317.221,986.575 L 316.594,986.817 L 315.971,987.070 L 315.563,987.214 L 315.160,987.369 L 314.522,987.580 L 313.887,987.803 L 313.473,987.927 L 313.063,988.062 L 312.415,988.242 L 311.771,988.433 L 311.351,988.536 L 310.934,988.651 L 310.278,988.799 L 309.625,988.959 L 309.201,989.041 L 308.779,989.135 L 308.117,989.250 L 307.457,989.378 L 307.029,989.439 L 306.603,989.513 L 305.936,989.595 L 305.270,989.690 L 304.840,989.730 L 304.411,989.783 L 303.740,989.833 L 303.071,989.895 L 302.639,989.914 L 302.208,989.946 L 301.536,989.962 L 300.864,989.992 L 300.432,989.989 L 300.000,990.000 L 299.328,989.984 L 298.656,989.980 L 298.224,989.956 L 297.792,989.946 L 297.121,989.896 L 296.450,989.860 L 296.020,989.815 L 295.589,989.783 L 294.922,989.701 L 294.253,989.632 L 293.826,989.566 L 293.397,989.513 L 292.735,989.398 L 292.070,989.296 L 291.647,989.209 L 291.221,989.135 L 290.565,988.988 L 289.906,988.853 L 289.488,988.746 L 289.066,988.651 L 288.418,988.472 L 287.767,988.305 L 287.354,988.178 L 286.937,988.062 L 286.299,987.851 L 285.657,987.653 L 285.250,987.505 L 284.840,987.369 L 284.213,987.128 L 283.581,986.898 L 283.183,986.730 L 282.779,986.575 L 282.165,986.302 L 281.545,986.042 L 281.155,985.855 L 280.760,985.680 L 280.160,985.377 L 279.553,985.087 L 279.173,984.881 L 278.787,984.686 L 278.202,984.355 L 277.611,984.035 L 277.241,983.811 L 276.865,983.598 L 276.297,983.238 L 275.723,982.889 L 275.365,982.647 L 274.999,982.416 L 274.450,982.029 L 273.893,981.653 L 273.547,981.393 L 273.194,981.144 L 272.664,980.731 L 272.126,980.327 L 271.793,980.051 L 271.452,979.785 L 270.943,979.346 L 270.426,978.917 L 270.107,978.625 L 269.780,978.343 L 269.293,977.879 L 268.797,977.425 L 268.493,977.118 L 268.180,976.820 L 267.717,976.333 L 267.244,975.855 L 266.955,975.533 L 266.657,975.220 L 266.218,974.711 L 265.769,974.211 L 265.497,973.875 L 265.215,973.548 L 264.801,973.018 L 264.377,972.496 L 264.122,972.147 L 263.856,971.806 L 263.469,971.257 L 263.071,970.715 L 262.833,970.354 L 262.584,970.001 L 262.224,969.433 L 261.854,968.872 L 261.633,968.500 L 261.402,968.135 L 261.071,967.550 L 260.728,966.971 L 260.527,966.589 L 260.314,966.213 L 260.011,965.612 L 260.000,965.591 L 259.272,966.971 Z M 329.109,142.867 L 328.933,144.292 L 328.688,145.706 L 328.373,147.107 L 327.991,148.491 L 327.540,149.854 L 327.023,151.193 L 326.442,152.506 L 325.796,153.788 L 325.089,155.038 L 324.320,156.250 L 323.494,157.424 L 322.611,158.556 L 321.673,159.643 L 320.683,160.683 L 319.643,161.673 L 318.556,162.611 L 317.424,163.494 L 316.250,164.320 L 315.038,165.089 L 313.788,165.796 L 312.506,166.442 L 311.193,167.023 L 309.854,167.540 L 308.491,167.991 L 307.107,168.373 L 305.706,168.688 L 304.292,168.933 L 302.867,169.109 L 301.435,169.215 L 300.000,169.250 L 298.565,169.215 L 297.133,169.109 L 295.708,168.933 L 294.294,168.688 L 292.893,168.373 L 291.509,167.991 L 290.146,167.540 L 288.807,167.023 L 287.494,166.442 L 286.212,165.796 L 284.962,165.089 L 283.750,164.320 L 282.576,163.494 L 281.444,162.611 L 280.357,161.673 L 279.317,160.683 L 278.327,159.643 L 277.389,158.556 L 276.506,157.424 L 275.680,156.250 L 274.911,155.038 L 274.204,153.788 L 273.558,152.506 L 272.977,151.193 L 272.460,149.854 L 272.009,148.491 L 271.627,147.107 L 271.312,145.706 L 271.067,144.292 L 270.891,142.867 L 270.785,141.435 L 270.750,140.000 L 270.785,138.565 L 270.891,137.133 L 271.067,135.708 L 271.312,134.294 L 271.627,132.893 L 272.009,131.509 L 272.460,130.146 L 272.977,128.807 L 273.558,127.494 L 274.204,126.212 L 274.911,124.962 L 275.680,123.750 L 276.506,122.576 L 277.389,121.444 L 278.327,120.357 L 279.317,119.317 L 280.357,118.327 L 281.444,117.389 L 282.576,116.506 L 283.750,115.680 L 284.962,114.911 L 286.212,114.204 L 287.494,113.558 L 288.807,112.977 L 290.146,112.460 L 291.509,112.009 L 292.893,111.627 L 294.294,111.312 L 295.708,111.067 L 297.133,110.891 L 298.565,110.785 L 300.000,110.750 L 301.435,110.785 L 302.867,110.891 L 304.292,111.067 L 305.706,111.312 L 307.107,111.627 L 308.491,112.009 L 309.854,112.460 L 311.193,112.977 L 312.506,113.558 L 313.788,114.204 L 315.038,114.911 L 316.250,115.680 L 317.424,116.506 L 318.556,117.389 L 319.643,118.327 L 320.683,119.317 L 321.673,120.357 L 322.611,121.444 L 323.494,122.576 L 324.320,123.750 L 325.089,124.962 L 325.796,126.212 L 326.442,127.494 L 327.023,128.807 L 327.540,130.146 L 327.991,131.509 L 328.373,132.893 L 328.688,134.294 L 328.933,135.708 L 329.109,137.133 L 329.215,138.565 L 329.250,140.000 L 329.215,141.435 L 329.109,142.867 Z" fill="black" fill-rule="evenodd"/>
</svg>
