<svg xmlns="http://www.w3.org/2000/svg" viewBox="0 0 600.000 1000">
  <path d="M 326.992 189.337 L 326.967 188.675 L 326.927 188.014 L 326.870 187.354 L 326.797 186.695 L 326.708 186.038 L 326.602 185.384 L 326.481 184.733 L 326.344 184.084 L 326.191 183.440 L 326.022 182.799 L 325.837 182.162 L 325.637 181.531 L 325.422 180.904 L 325.191 180.283 L 324.945 179.668 L 324.684 179.058 L 324.408 178.456 L 324.117 177.860 L 323.812 177.272 L 323.492 176.692 L 323.159 176.119 L 322.811 175.555 L 322.450 175.000 L 322.075 174.453 L 321.687 173.916 L 321.285 173.389 L 320.871 172.871 L 320.445 172.364 L 320.006 171.868 L 319.555 171.382 L 319.092 170.908 L 318.618 170.445 L 318.132 169.994 L 317.636 169.555 L 317.129 169.129 L 316.611 168.715 L 316.084 168.313 L 315.547 167.925 L 315.000 167.550 L 314.445 167.189 L 313.881 166.841 L 313.308 166.508 L 312.728 166.188 L 312.140 165.883 L 311.544 165.592 L 310.942 165.316 L 310.332 165.055 L 309.717 164.809 L 309.096 164.578 L 308.469 164.363 L 307.838 164.163 L 307.201 163.978 L 306.560 163.809 L 305.916 163.656 L 305.267 163.519 L 304.616 163.398 L 303.962 163.292 L 303.305 163.203 L 302.646 163.130 L 301.986 163.073 L 301.325 163.033 L 300.663 163.008 L 300.000 163.000 L 299.337 163.008 L 298.675 163.033 L 298.014 163.073 L 297.354 163.130 L 296.695 163.203 L 296.038 163.292 L 295.384 163.398 L 294.733 163.519 L 294.084 163.656 L 293.440 163.809 L 292.799 163.978 L 292.162 164.163 L 291.531 164.363 L 290.904 164.578 L 290.283 164.809 L 289.668 165.055 L 289.058 165.316 L 288.456 165.592 L 287.860 165.883 L 287.272 166.188 L 286.692 166.508 L 286.119 166.841 L 285.555 167.189 L 285.000 167.550 L 284.453 167.925 L 283.916 168.313 L 283.389 168.715 L 282.871 169.129 L 282.364 169.555 L 281.868 169.994 L 281.382 170.445 L 280.908 170.908 L 280.445 171.382 L 279.994 171.868 L 279.555 172.364 L 279.129 172.871 L 278.715 173.389 L 278.313 173.916 L 277.925 174.453 L 277.550 175.000 L 277.189 175.555 L 276.841 176.119 L 276.508 176.692 L 276.188 177.272 L 275.883 177.860 L 275.592 178.456 L 275.316 179.058 L 275.055 179.668 L 274.809 180.283 L 274.578 180.904 L 274.363 181.531 L 274.163 182.162 L 273.978 182.799 L 273.809 183.440 L 273.656 184.084 L 273.519 184.733 L 273.398 185.384 L 273.292 186.038 L 273.203 186.695 L 273.130 187.354 L 273.073 188.014 L 273.033 188.675 L 273.008 189.337 L 273.000 190.000 L 273.008 190.663 L 273.033 191.325 L 273.073 191.986 L 273.130 192.646 L 273.203 193.305 L 273.292 193.962 L 273.398 194.616 L 273.519 195.267 L 273.656 195.916 L 273.809 196.560 L 273.978 197.201 L 274.163 197.838 L 274.363 198.469 L 274.578 199.096 L 274.809 199.717 L 275.055 200.332 L 275.316 200.942 L 275.592 201.544 L 275.883 202.140 L 276.188 202.728 L 276.508 203.308 L 276.841 203.881 L 277.189 204.445 L 277.550 205.000 L 277.925 205.547 L 278.313 206.084 L 278.715 206.611 L 279.129 207.129 L 279.555 207.636 L 279.994 208.132 L 280.445 208.618 L 280.908 209.092 L 281.382 209.555 L 281.868 210.006 L 282.364 210.445 L 282.871 210.871 L 283.389 211.285 L 283.916 211.687 L 284.453 212.075 L 285.000 212.450 L 285.555 212.811 L 286.119 213.159 L 286.692 213.492 L 287.272 213.812 L 287.860 214.117 L 288.456 214.408 L 289.058 214.684 L 289.668 214.945 L 290.283 215.191 L 290.904 215.422 L 291.531 215.637 L 291.868 215.744 L 291.221 215.865 L 290.140 216.093 L 289.066 216.349 L 287.998 216.630 L 286.937 216.938 L 285.884 217.271 L 284.840 217.631 L 283.805 218.015 L 282.779 218.425 L 281.764 218.861 L 280.760 219.320 L 279.767 219.805 L 278.787 220.314 L 277.820 220.846 L 276.865 221.402 L 275.925 221.982 L 274.999 222.584 L 274.089 223.209 L 273.194 223.856 L 272.315 224.524 L 271.452 225.215 L 270.607 225.926 L 269.780 226.657 L 268.971 227.409 L 268.180 228.180 L 267.409 228.971 L 266.657 229.780 L 265.926 230.607 L 265.215 231.452 L 264.524 232.315 L 263.856 233.194 L 263.209 234.089 L 262.584 234.999 L 261.982 235.925 L 261.402 236.865 L 260.846 237.820 L 260.314 238.787 L 259.805 239.767 L 259.320 240.760 L 258.861 241.764 L 258.425 242.779 L 258.015 243.805 L 257.631 244.840 L 257.271 245.884 L 256.938 246.937 L 256.630 247.998 L 256.349 249.066 L 256.093 250.140 L 255.865 251.221 L 255.663 252.307 L 255.487 253.397 L 255.338 254.492 L 255.217 255.589 L 255.122 256.690 L 255.054 257.792 L 255.014 258.896 L 255.000 260.000 L 255.000 939.488 L 254.911 943.413 L 254.678 946.819 L 254.290 950.211 L 253.748 953.582 L 253.054 956.924 L 252.208 960.232 L 251.212 963.497 L 250.069 966.714 L 248.780 969.875 L 247.349 972.975 L 245.778 976.006 L 244.071 978.963 L 242.232 981.839 L 240.263 984.628 L 238.169 987.324 L 235.955 989.923 L 233.625 992.418 L 231.184 994.804 L 228.636 997.077 L 225.988 999.231 L 223.244 1001.263 L 220.411 1003.168 L 217.494 1004.942 L 214.500 1006.581 L 211.433 1008.082 L 208.302 1009.442 L 205.112 1010.659 L 201.870 1011.728 L 198.583 1012.649 L 195.257 1013.420 L 191.899 1014.038 L 188.517 1014.503 L 185.117 1014.814 L 181.707 1014.969 L 178.293 1014.969 L 174.883 1014.814 L 171.483 1014.503 L 168.101 1014.038 L 164.743 1013.420 L 161.417 1012.649 L 158.130 1011.728 L 154.888 1010.659 L 151.698 1009.442 L 148.567 1008.082 L 145.500 1006.581 L 142.506 1004.942 L 139.589 1003.168 L 136.756 1001.263 L 134.012 999.231 L 131.364 997.077 L 128.816 994.804 L 126.375 992.418 L 124.045 989.923 L 121.831 987.324 L 119.737 984.628 L 117.768 981.839 L 115.929 978.963 L 114.222 976.006 L 112.651 972.975 L 111.220 969.875 L 109.931 966.714 L 108.788 963.497 L 107.792 960.232 L 106.946 956.924 L 106.252 953.582 L 105.710 950.211 L 105.322 946.819 L 105.089 943.413 L 104.988 938.976 L 104.950 937.872 L 104.884 936.769 L 104.791 935.669 L 104.671 934.571 L 104.525 933.476 L 104.351 932.386 L 104.151 931.299 L 103.924 930.219 L 103.671 929.144 L 103.391 928.075 L 103.085 927.014 L 102.754 925.960 L 102.396 924.915 L 102.013 923.879 L 101.605 922.853 L 101.172 921.837 L 100.714 920.832 L 100.231 919.839 L 99.724 918.858 L 99.193 917.889 L 98.639 916.934 L 98.061 915.993 L 97.461 915.066 L 96.837 914.154 L 96.192 913.258 L 95.525 912.378 L 94.836 911.514 L 94.127 910.668 L 93.396 909.839 L 92.646 909.029 L 91.876 908.237 L 91.087 907.464 L 90.279 906.711 L 89.453 905.978 L 88.610 905.265 L 87.748 904.574 L 86.871 903.903 L 85.977 903.255 L 85.067 902.628 L 84.142 902.024 L 83.203 901.443 L 82.250 900.886 L 81.283 900.351 L 80.304 899.841 L 79.312 899.355 L 78.309 898.893 L 77.295 898.456 L 76.270 898.044 L 75.235 897.658 L 74.192 897.296 L 73.139 896.961 L 72.079 896.651 L 71.012 896.368 L 69.938 896.111 L 68.858 895.880 L 67.772 895.676 L 66.682 895.499 L 65.588 895.348 L 64.490 895.225 L 63.390 895.128 L 62.288 895.058 L 61.184 895.016 L 60.080 895.000 L 58.976 895.012 L 57.872 895.050 L 56.769 895.116 L 55.669 895.209 L 54.571 895.329 L 53.476 895.475 L 52.386 895.649 L 51.299 895.849 L 50.219 896.076 L 49.144 896.329 L 48.075 896.609 L 47.014 896.915 L 45.960 897.246 L 44.915 897.604 L 43.879 897.987 L 42.853 898.395 L 41.837 898.828 L 40.832 899.286 L 39.839 899.769 L 38.858 900.276 L 37.889 900.807 L 36.934 901.361 L 35.993 901.939 L 35.066 902.539 L 34.154 903.163 L 33.258 903.808 L 32.378 904.475 L 31.514 905.164 L 30.668 905.873 L 29.839 906.604 L 29.029 907.354 L 28.237 908.124 L 27.464 908.913 L 26.711 909.721 L 25.978 910.547 L 25.265 911.390 L 24.574 912.252 L 23.903 913.129 L 23.255 914.023 L 22.628 914.933 L 22.024 915.858 L 21.443 916.797 L 20.886 917.750 L 20.351 918.717 L 19.841 919.696 L 19.355 920.688 L 18.893 921.691 L 18.456 922.705 L 18.044 923.730 L 17.658 924.765 L 17.296 925.808 L 16.961 926.861 L 16.651 927.921 L 16.368 928.988 L 16.111 930.062 L 15.880 931.142 L 15.676 932.228 L 15.499 933.318 L 15.348 934.412 L 15.225 935.510 L 15.128 936.610 L 15.058 937.712 L 15.016 938.816 L 15.000 939.920 L 15.012 941.024 L 15.136 946.486 L 15.171 947.510 L 15.229 948.533 L 15.602 953.983 L 15.684 955.004 L 15.788 956.023 L 16.409 961.451 L 16.537 962.467 L 16.688 963.481 L 17.555 968.875 L 17.729 969.884 L 17.926 970.889 L 19.037 976.238 L 19.257 977.239 L 19.500 978.234 L 20.854 983.527 L 21.119 984.516 L 21.406 985.500 L 23.000 990.725 L 23.309 991.702 L 23.641 992.671 L 25.471 997.819 L 25.825 998.780 L 26.201 999.733 L 28.263 1004.792 L 28.660 1005.736 L 29.079 1006.671 L 31.369 1011.631 L 31.809 1012.556 L 32.270 1013.471 L 34.783 1018.322 L 35.265 1019.226 L 35.767 1020.119 L 38.499 1024.850 L 39.021 1025.731 L 39.563 1026.601 L 42.507 1031.203 L 43.069 1032.059 L 43.650 1032.903 L 46.801 1037.366 L 47.401 1038.196 L 48.020 1039.012 L 51.370 1043.328 L 52.008 1044.130 L 52.663 1044.917 L 56.206 1049.075 L 56.880 1049.847 L 57.570 1050.604 L 61.299 1054.596 L 62.007 1055.337 L 62.731 1056.061 L 66.638 1059.880 L 67.379 1060.588 L 68.135 1061.279 L 72.212 1064.916 L 72.984 1065.589 L 73.771 1066.244 L 78.009 1069.692 L 78.811 1070.330 L 79.627 1070.949 L 84.018 1074.200 L 84.848 1074.800 L 85.691 1075.381 L 90.225 1078.429 L 91.082 1078.991 L 91.951 1079.533 L 96.619 1082.372 L 97.500 1082.894 L 98.393 1083.396 L 103.185 1086.019 L 104.089 1086.501 L 105.004 1086.962 L 109.911 1089.364 L 110.836 1089.804 L 111.771 1090.223 L 116.782 1092.400 L 117.726 1092.797 L 118.679 1093.173 L 123.784 1095.119 L 124.745 1095.473 L 125.714 1095.805 L 130.902 1097.517 L 131.878 1097.827 L 132.862 1098.114 L 138.122 1099.588 L 139.112 1099.854 L 140.107 1100.096 L 145.429 1101.329 L 146.430 1101.549 L 147.435 1101.746 L 152.808 1102.735 L 153.817 1102.909 L 154.831 1103.060 L 160.243 1103.804 L 161.259 1103.932 L 162.278 1104.037 L 167.719 1104.534 L 168.740 1104.615 L 169.763 1104.674 L 175.220 1104.922 L 176.244 1104.957 L 177.268 1104.969 L 182.732 1104.969 L 183.756 1104.957 L 184.780 1104.922 L 190.237 1104.674 L 191.260 1104.615 L 192.281 1104.534 L 197.722 1104.037 L 198.741 1103.932 L 199.757 1103.804 L 205.169 1103.060 L 206.183 1102.909 L 207.192 1102.735 L 212.565 1101.746 L 213.570 1101.549 L 214.571 1101.329 L 219.893 1100.096 L 220.888 1099.854 L 221.878 1099.588 L 227.138 1098.114 L 228.122 1097.827 L 229.098 1097.517 L 234.286 1095.805 L 235.255 1095.473 L 236.216 1095.119 L 241.321 1093.173 L 242.274 1092.797 L 243.218 1092.400 L 248.229 1090.223 L 249.164 1089.804 L 250.089 1089.364 L 254.996 1086.962 L 255.911 1086.501 L 256.815 1086.019 L 261.607 1083.396 L 262.500 1082.894 L 263.381 1082.372 L 268.049 1079.533 L 268.918 1078.991 L 269.775 1078.429 L 274.309 1075.381 L 275.152 1074.800 L 275.982 1074.200 L 280.373 1070.949 L 281.189 1070.330 L 281.991 1069.692 L 286.229 1066.244 L 287.016 1065.589 L 287.788 1064.916 L 291.865 1061.279 L 292.621 1060.588 L 293.362 1059.880 L 297.269 1056.061 L 297.993 1055.337 L 298.701 1054.596 L 302.430 1050.604 L 303.120 1049.847 L 303.794 1049.075 L 307.337 1044.917 L 307.842 1044.310 L 308.779 1044.135 L 309.860 1043.907 L 310.934 1043.651 L 312.002 1043.370 L 313.063 1043.062 L 314.116 1042.729 L 315.160 1042.369 L 316.195 1041.985 L 317.221 1041.575 L 318.236 1041.139 L 319.240 1040.680 L 320.233 1040.195 L 321.213 1039.686 L 322.180 1039.154 L 323.135 1038.598 L 324.075 1038.018 L 325.001 1037.416 L 325.911 1036.791 L 326.806 1036.144 L 327.685 1035.476 L 328.548 1034.785 L 329.393 1034.074 L 330.220 1033.343 L 331.029 1032.591 L 331.820 1031.820 L 332.591 1031.029 L 333.343 1030.220 L 334.074 1029.393 L 334.785 1028.548 L 335.476 1027.685 L 336.144 1026.806 L 336.791 1025.911 L 337.416 1025.001 L 338.018 1024.075 L 338.598 1023.135 L 339.154 1022.180 L 339.686 1021.213 L 340.195 1020.233 L 340.680 1019.240 L 341.139 1018.236 L 341.575 1017.221 L 341.985 1016.195 L 342.369 1015.160 L 342.729 1014.116 L 343.062 1013.063 L 343.370 1012.002 L 343.651 1010.934 L 343.907 1009.860 L 344.135 1008.779 L 344.337 1007.693 L 344.513 1006.603 L 344.662 1005.508 L 344.783 1004.411 L 344.878 1003.310 L 344.946 1002.208 L 344.986 1001.104 L 345.000 1000.000 L 345.000 260.000 L 344.986 258.896 L 344.946 257.792 L 344.878 256.690 L 344.783 255.589 L 344.662 254.492 L 344.513 253.397 L 344.337 252.307 L 344.135 251.221 L 343.907 250.140 L 343.651 249.066 L 343.370 247.998 L 343.062 246.937 L 342.729 245.884 L 342.369 244.840 L 341.985 243.805 L 341.575 242.779 L 341.139 241.764 L 340.680 240.760 L 340.195 239.767 L 339.686 238.787 L 339.154 237.820 L 338.598 236.865 L 338.018 235.925 L 337.416 234.999 L 336.791 234.089 L 336.144 233.194 L 335.476 232.315 L 334.785 231.452 L 334.074 230.607 L 333.343 229.780 L 332.591 228.971 L 331.820 228.180 L 331.029 227.409 L 330.220 226.657 L 329.393 225.926 L 328.548 225.215 L 327.685 224.524 L 326.806 223.856 L 325.911 223.209 L 325.001 222.584 L 324.075 221.982 L 323.135 221.402 L 322.180 220.846 L 321.213 220.314 L 320.233 219.805 L 319.240 219.320 L 318.236 218.861 L 317.221 218.425 L 316.195 218.015 L 315.160 217.631 L 314.116 217.271 L 313.063 216.938 L 312.002 216.630 L 310.934 216.349 L 309.860 216.093 L 308.779 215.865 L 308.132 215.744 L 308.469 215.637 L 309.096 215.422 L 309.717 215.191 L 310.332 214.945 L 310.942 214.684 L 311.544 214.408 L 312.140 214.117 L 312.728 213.812 L 313.308 213.492 L 313.881 213.159 L 314.445 212.811 L 315.000 212.450 L 315.547 212.075 L 316.084 211.687 L 316.611 211.285 L 317.129 210.871 L 317.636 210.445 L 318.132 210.006 L 318.618 209.555 L 319.092 209.092 L 319.555 208.618 L 320.006 208.132 L 320.445 207.636 L 320.871 207.129 L 321.285 206.611 L 321.687 206.084 L 322.075 205.547 L 322.450 205.000 L 322.811 204.445 L 323.159 203.881 L 323.492 203.308 L 323.812 202.728 L 324.117 202.140 L 324.408 201.544 L 324.684 200.942 L 324.945 200.332 L 325.191 199.717 L 325.422 199.096 L 325.637 198.469 L 325.837 197.838 L 326.022 197.201 L 326.191 196.560 L 326.344 195.916 L 326.481 195.267 L 326.602 194.616 L 326.708 193.962 L 326.797 193.305 L 326.870 192.646 L 326.927 191.986 L 326.967 191.325 L 326.992 190.663 L 327.000 190.000 L 326.992 189.337 Z" fill="black" fill-rule="evenodd"/>
</svg>
