<svg xmlns="http://www.w3.org/2000/svg" viewBox="0 0 600.000 1000">
  <path d="M 415.000 295.135 L 415.000 780.000 L 415.024 781.472 L 415.096 782.943 L 415.217 784.411 L 415.385 785.874 L 415.601 787.330 L 415.865 788.779 L 416.176 790.218 L 416.533 791.647 L 416.938 793.063 L 417.388 794.465 L 417.884 795.851 L 418.425 797.221 L 419.011 798.572 L 419.641 799.903 L 420.314 801.213 L 421.029 802.500 L 421.786 803.763 L 422.584 805.001 L 423.422 806.211 L 424.299 807.394 L 425.215 808.548 L 426.167 809.671 L 427.156 810.762 L 428.180 811.820 L 429.238 812.844 L 430.329 813.833 L 431.452 814.785 L 432.606 815.701 L 433.789 816.578 L 434.999 817.416 L 436.237 818.214 L 437.500 818.971 L 438.787 819.686 L 440.097 820.359 L 441.428 820.989 L 442.779 821.575 L 444.149 822.116 L 445.535 822.612 L 446.937 823.062 L 448.353 823.467 L 449.782 823.824 L 451.221 824.135 L 452.670 824.399 L 454.126 824.615 L 455.589 824.783 L 457.057 824.904 L 458.528 824.976 L 460.000 825.000 L 461.472 824.976 L 462.943 824.904 L 464.411 824.783 L 465.874 824.615 L 467.330 824.399 L 468.779 824.135 L 470.218 823.824 L 471.647 823.467 L 473.063 823.062 L 474.465 822.612 L 475.851 822.116 L 477.221 821.575 L 478.572 820.989 L 479.903 820.359 L 481.213 819.686 L 482.500 818.971 L 483.763 818.214 L 485.001 817.416 L 486.211 816.578 L 487.394 815.701 L 488.548 814.785 L 489.671 813.833 L 490.762 812.844 L 491.820 811.820 L 492.844 810.762 L 493.833 809.671 L 494.785 808.548 L 495.701 807.394 L 496.578 806.211 L 497.416 805.001 L 498.214 803.763 L 498.971 802.500 L 499.686 801.213 L 500.359 799.903 L 500.989 798.572 L 501.575 797.221 L 502.116 795.851 L 502.612 794.465 L 503.062 793.063 L 503.467 791.647 L 503.824 790.218 L 504.135 788.779 L 504.399 787.330 L 504.615 785.874 L 504.783 784.411 L 504.904 782.943 L 504.976 781.472 L 505.000 780.000 L 505.000 260.000 L 504.976 258.545 L 504.906 257.092 L 504.788 255.641 L 504.624 254.196 L 504.413 252.756 L 504.156 251.324 L 503.852 249.901 L 503.503 248.488 L 503.108 247.088 L 502.668 245.701 L 502.183 244.329 L 501.654 242.973 L 501.082 241.635 L 500.467 240.316 L 499.809 239.018 L 499.110 237.742 L 498.370 236.489 L 497.590 235.261 L 496.770 234.059 L 495.912 232.884 L 495.017 231.737 L 494.085 230.619 L 493.117 229.533 L 492.115 228.478 L 491.079 227.456 L 490.010 226.468 L 488.910 225.515 L 487.780 224.599 L 486.621 223.719 L 485.434 222.877 L 484.221 222.074 L 482.982 221.311 L 481.719 220.588 L 480.434 219.907 L 479.127 219.267 L 477.800 218.670 L 476.454 218.116 L 475.091 217.606 L 473.713 217.140 L 472.320 216.719 L 470.914 216.344 L 310.914 176.344 L 309.483 176.010 L 308.041 175.724 L 306.591 175.485 L 305.133 175.294 L 303.671 175.150 L 302.204 175.054 L 300.735 175.006 L 299.265 175.006 L 297.796 175.054 L 296.329 175.150 L 294.867 175.294 L 293.409 175.485 L 291.959 175.724 L 290.517 176.010 L 289.086 176.344 L 129.086 216.344 L 128.720 216.441 L 128.353 216.533 L 128.009 216.632 L 127.663 216.724 L 127.301 216.834 L 126.937 216.938 L 126.596 217.047 L 126.254 217.151 L 125.896 217.272 L 125.535 217.388 L 125.198 217.509 L 124.859 217.624 L 124.505 217.757 L 124.149 217.884 L 123.816 218.016 L 123.481 218.142 L 123.131 218.286 L 122.779 218.425 L 122.451 218.568 L 122.120 218.705 L 121.775 218.861 L 121.428 219.011 L 121.105 219.164 L 120.779 219.312 L 120.439 219.479 L 120.097 219.641 L 119.779 219.804 L 119.458 219.962 L 119.124 220.141 L 118.787 220.314 L 118.474 220.487 L 118.159 220.656 L 117.831 220.845 L 117.500 221.029 L 117.193 221.213 L 116.883 221.392 L 116.562 221.591 L 116.237 221.786 L 115.936 221.980 L 115.632 222.169 L 115.317 222.379 L 114.999 222.584 L 114.705 222.788 L 114.407 222.986 L 114.100 223.207 L 113.789 223.422 L 113.501 223.635 L 113.210 223.843 L 112.910 224.074 L 112.606 224.299 L 112.325 224.522 L 112.041 224.739 L 111.749 224.979 L 111.452 225.215 L 111.179 225.446 L 110.903 225.673 L 110.618 225.922 L 110.329 226.167 L 110.064 226.408 L 109.795 226.643 L 109.519 226.902 L 109.238 227.156 L 108.981 227.405 L 108.720 227.649 L 108.452 227.917 L 108.180 228.180 L 107.931 228.437 L 107.678 228.690 L 107.419 228.966 L 107.156 229.238 L 106.916 229.503 L 106.671 229.765 L 106.421 230.049 L 106.167 230.329 L 105.936 230.602 L 105.700 230.871 L 105.459 231.164 L 105.215 231.452 L 104.992 231.733 L 104.765 232.009 L 104.534 232.309 L 104.299 232.606 L 104.086 232.893 L 103.868 233.177 L 103.647 233.485 L 103.422 233.789 L 103.218 234.083 L 103.010 234.374 L 102.799 234.688 L 102.584 234.999 L 102.390 235.300 L 102.191 235.598 L 101.991 235.919 L 101.786 236.237 L 101.602 236.544 L 101.413 236.848 L 101.223 237.175 L 101.029 237.500 L 100.855 237.813 L 100.676 238.123 L 100.497 238.456 L 100.314 238.787 L 100.150 239.105 L 99.981 239.421 L 99.814 239.760 L 99.641 240.097 L 99.488 240.421 L 99.329 240.741 L 99.173 241.086 L 99.011 241.428 L 98.869 241.757 L 98.721 242.082 L 98.576 242.432 L 98.425 242.779 L 98.294 243.112 L 98.157 243.443 L 98.023 243.797 L 97.884 244.149 L 97.764 244.486 L 97.637 244.821 L 97.516 245.179 L 97.388 245.535 L 97.279 245.876 L 97.163 246.215 L 97.053 246.577 L 96.938 246.937 L 96.839 247.281 L 96.735 247.624 L 96.637 247.989 L 96.533 248.353 L 96.446 248.700 L 96.354 249.046 L 96.267 249.414 L 96.176 249.782 L 96.100 250.131 L 96.019 250.480 L 95.945 250.851 L 95.865 251.221 L 95.801 251.573 L 95.731 251.924 L 95.669 252.297 L 95.601 252.670 L 95.549 253.024 L 95.490 253.377 L 95.441 253.752 L 95.385 254.126 L 95.344 254.482 L 95.297 254.837 L 95.260 255.213 L 95.217 255.589 L 95.187 255.946 L 95.152 256.302 L 95.127 256.680 L 95.096 257.057 L 95.079 257.414 L 95.055 257.771 L 95.043 258.150 L 95.024 258.528 L 95.018 258.885 L 95.006 259.243 L 95.006 259.622 L 95.000 260.000 L 95.000 780.000 L 95.024 781.472 L 95.096 782.943 L 95.217 784.411 L 95.385 785.874 L 95.601 787.330 L 95.865 788.779 L 96.176 790.218 L 96.533 791.647 L 96.938 793.063 L 97.388 794.465 L 97.884 795.851 L 98.425 797.221 L 99.011 798.572 L 99.641 799.903 L 100.314 801.213 L 101.029 802.500 L 101.786 803.763 L 102.584 805.001 L 103.422 806.211 L 104.299 807.394 L 105.215 808.548 L 106.167 809.671 L 107.156 810.762 L 108.180 811.820 L 109.238 812.844 L 110.329 813.833 L 111.452 814.785 L 112.606 815.701 L 113.789 816.578 L 114.999 817.416 L 116.237 818.214 L 117.500 818.971 L 118.787 819.686 L 120.097 820.359 L 121.428 820.989 L 122.779 821.575 L 124.149 822.116 L 125.535 822.612 L 126.937 823.062 L 128.353 823.467 L 129.782 823.824 L 131.221 824.135 L 132.670 824.399 L 134.126 824.615 L 135.589 824.783 L 137.057 824.904 L 138.528 824.976 L 140.000 825.000 L 141.472 824.976 L 142.943 824.904 L 144.411 824.783 L 145.874 824.615 L 147.330 824.399 L 148.779 824.135 L 150.218 823.824 L 151.647 823.467 L 153.063 823.062 L 154.465 822.612 L 155.851 822.116 L 157.221 821.575 L 158.572 820.989 L 159.903 820.359 L 161.213 819.686 L 162.500 818.971 L 163.763 818.214 L 165.001 817.416 L 166.211 816.578 L 167.394 815.701 L 168.548 814.785 L 169.671 813.833 L 170.762 812.844 L 171.820 811.820 L 172.844 810.762 L 173.833 809.671 L 174.785 808.548 L 175.701 807.394 L 176.578 806.211 L 177.416 805.001 L 178.214 803.763 L 178.971 802.500 L 179.686 801.213 L 180.359 799.903 L 180.989 798.572 L 181.575 797.221 L 182.116 795.851 L 182.612 794.465 L 183.062 793.063 L 183.467 791.647 L 183.824 790.218 L 184.135 788.779 L 184.399 787.330 L 184.615 785.874 L 184.783 784.411 L 184.904 782.943 L 184.976 781.472 L 185.000 780.000 L 185.000 295.135 L 300.000 266.385 L 415.000 295.135 Z" fill="black" fill-rule="evenodd"/>
</svg>
