<svg xmlns="http://www.w3.org/2000/svg" viewBox="0 0 600.000 1000">
  <path d="M 326.992 189.337 L 326.967 188.675 L 326.927 188.014 L 326.870 187.354 L 326.797 186.695 L 326.708 186.038 L 326.602 185.384 L 326.481 184.733 L 326.344 184.084 L 326.191 183.440 L 326.022 182.799 L 325.837 182.162 L 325.637 181.531 L 325.422 180.904 L 325.191 180.283 L 324.945 179.668 L 324.684 179.058 L 324.408 178.456 L 324.117 177.860 L 323.812 177.272 L 323.492 176.692 L 323.159 176.119 L 322.811 175.555 L 322.450 175.000 L 322.075 174.453 L 321.687 173.916 L 321.285 173.389 L 320.871 172.871 L 320.445 172.364 L 320.006 171.868 L 319.555 171.382 L 319.092 170.908 L 318.618 170.445 L 318.132 169.994 L 317.636 169.555 L 317.129 169.129 L 316.611 168.715 L 316.084 168.313 L 315.547 167.925 L 315.000 167.550 L 314.445 167.189 L 313.881 166.841 L 313.308 166.508 L 312.728 166.188 L 312.140 165.883 L 311.544 165.592 L 310.942 165.316 L 310.332 165.055 L 309.717 164.809 L 309.096 164.578 L 308.469 164.363 L 307.838 164.163 L 307.201 163.978 L 306.560 163.809 L 305.916 163.656 L 305.267 163.519 L 304.616 163.398 L 303.962 163.292 L 303.305 163.203 L 302.646 163.130 L 301.986 163.073 L 301.325 163.033 L 300.663 163.008 L 300.000 163.000 L 299.337 163.008 L 298.675 163.033 L 298.014 163.073 L 297.354 163.130 L 296.695 163.203 L 296.038 163.292 L 295.384 163.398 L 294.733 163.519 L 294.084 163.656 L 293.440 163.809 L 292.799 163.978 L 292.162 164.163 L 291.531 164.363 L 290.904 164.578 L 290.283 164.809 L 289.668 165.055 L 289.058 165.316 L 288.456 165.592 L 287.860 165.883 L 287.272 166.188 L 286.692 166.508 L 286.119 166.841 L 285.555 167.189 L 285.000 167.550 L 284.453 167.925 L 283.916 168.313 L 283.389 168.715 L 282.871 169.129 L 282.364 169.555 L 281.868 169.994 L 281.382 170.445 L 280.908 170.908 L 280.445 171.382 L 279.994 171.868 L 279.555 172.364 L 279.129 172.871 L 278.715 173.389 L 278.313 173.916 L 277.925 174.453 L 277.550 175.000 L 277.189 175.555 L 276.841 176.119 L 276.508 176.692 L 276.188 177.272 L 275.883 177.860 L 275.592 178.456 L 275.316 179.058 L 275.055 179.668 L 274.809 180.283 L 274.578 180.904 L 274.363 181.531 L 274.163 182.162 L 273.978 182.799 L 273.809 183.440 L 273.656 184.084 L 273.519 184.733 L 273.398 185.384 L 273.292 186.038 L 273.203 186.695 L 273.130 187.354 L 273.073 188.014 L 273.033 188.675 L 273.008 189.337 L 273.000 190.000 L 273.008 190.663 L 273.033 191.325 L 273.073 191.986 L 273.130 192.646 L 273.203 193.305 L 273.292 193.962 L 273.398 194.616 L 273.519 195.267 L 273.656 195.916 L 273.809 196.560 L 273.978 197.201 L 274.163 197.838 L 274.363 198.469 L 274.578 199.096 L 274.809 199.717 L 275.055 200.332 L 275.316 200.942 L 275.592 201.544 L 275.883 202.140 L 276.188 202.728 L 276.508 203.308 L 276.841 203.881 L 277.189 204.445 L 277.550 205.000 L 277.925 205.547 L 278.313 206.084 L 278.715 206.611 L 279.129 207.129 L 279.555 207.636 L 279.994 208.132 L 280.445 208.618 L 280.908 209.092 L 281.382 209.555 L 281.868 210.006 L 282.364 210.445 L 282.871 210.871 L 283.389 211.285 L 283.916 211.687 L 284.453 212.075 L 285.000 212.450 L 285.555 212.811 L 286.119 213.159 L 286.692 213.492 L 287.272 213.812 L 287.860 214.117 L 288.456 214.408 L 289.058 214.684 L 289.668 214.945 L 290.283 215.191 L 290.904 215.422 L 291.531 215.637 L 291.868 215.744 L 291.221 215.865 L 290.140 216.093 L 289.066 216.349 L 287.998 216.630 L 286.937 216.938 L 285.884 217.271 L 284.840 217.631 L 283.805 218.015 L 282.779 218.425 L 281.764 218.861 L 280.760 219.320 L 279.767 219.805 L 278.787 220.314 L 277.820 220.846 L 276.865 221.402 L 275.925 221.982 L 274.999 222.584 L 274.089 223.209 L 273.194 223.856 L 272.315 224.524 L 271.452 225.215 L 270.607 225.926 L 269.780 226.657 L 268.971 227.409 L 268.180 228.180 L 267.409 228.971 L 266.657 229.780 L 265.926 230.607 L 265.215 231.452 L 264.524 232.315 L 263.856 233.194 L 263.209 234.089 L 262.584 234.999 L 261.982 235.925 L 261.402 236.865 L 260.846 237.820 L 260.314 238.787 L 259.805 239.767 L 259.320 240.760 L 258.861 241.764 L 258.425 242.779 L 258.015 243.805 L 257.631 244.840 L 257.271 245.884 L 256.938 246.937 L 256.630 247.998 L 256.349 249.066 L 256.093 250.140 L 255.865 251.221 L 255.663 252.307 L 255.487 253.397 L 255.338 254.492 L 255.217 255.589 L 255.122 256.690 L 255.054 257.792 L 255.014 258.896 L 255.000 260.000 L 255.000 780.000 L 255.014 781.104 L 255.054 782.208 L 255.122 783.310 L 255.217 784.411 L 255.338 785.508 L 255.487 786.603 L 255.663 787.693 L 255.865 788.779 L 256.093 789.860 L 256.349 790.934 L 256.630 792.002 L 256.938 793.063 L 257.271 794.116 L 257.631 795.160 L 258.015 796.195 L 258.425 797.221 L 258.861 798.236 L 259.320 799.240 L 259.805 800.233 L 260.314 801.213 L 260.846 802.180 L 261.402 803.135 L 261.982 804.075 L 262.584 805.001 L 263.209 805.911 L 263.856 806.806 L 264.524 807.685 L 265.215 808.548 L 265.926 809.393 L 266.657 810.220 L 267.409 811.029 L 268.180 811.820 L 268.971 812.591 L 269.780 813.343 L 270.607 814.074 L 271.452 814.785 L 272.315 815.476 L 273.194 816.144 L 274.089 816.791 L 274.999 817.416 L 275.925 818.018 L 276.865 818.598 L 277.820 819.154 L 278.787 819.686 L 279.767 820.195 L 280.760 820.680 L 281.764 821.139 L 282.779 821.575 L 283.805 821.985 L 284.840 822.369 L 285.884 822.729 L 286.937 823.062 L 287.998 823.370 L 289.066 823.651 L 290.140 823.907 L 291.221 824.135 L 292.307 824.337 L 293.397 824.513 L 294.492 824.662 L 295.589 824.783 L 296.690 824.878 L 297.792 824.946 L 298.896 824.986 L 300.000 825.000 L 301.104 824.986 L 302.208 824.946 L 303.310 824.878 L 304.411 824.783 L 305.508 824.662 L 306.603 824.513 L 307.693 824.337 L 308.779 824.135 L 309.860 823.907 L 310.934 823.651 L 312.002 823.370 L 313.063 823.062 L 314.116 822.729 L 315.160 822.369 L 316.195 821.985 L 317.221 821.575 L 318.236 821.139 L 319.240 820.680 L 320.233 820.195 L 321.213 819.686 L 322.180 819.154 L 323.135 818.598 L 324.075 818.018 L 325.001 817.416 L 325.911 816.791 L 326.806 816.144 L 327.685 815.476 L 328.548 814.785 L 329.393 814.074 L 330.220 813.343 L 331.029 812.591 L 331.820 811.820 L 332.591 811.029 L 333.343 810.220 L 334.074 809.393 L 334.785 808.548 L 335.476 807.685 L 336.144 806.806 L 336.791 805.911 L 337.416 805.001 L 338.018 804.075 L 338.598 803.135 L 339.154 802.180 L 339.686 801.213 L 340.195 800.233 L 340.680 799.240 L 341.139 798.236 L 341.575 797.221 L 341.985 796.195 L 342.369 795.160 L 342.729 794.116 L 343.062 793.063 L 343.370 792.002 L 343.651 790.934 L 343.907 789.860 L 344.135 788.779 L 344.337 787.693 L 344.513 786.603 L 344.662 785.508 L 344.783 784.411 L 344.878 783.310 L 344.946 782.208 L 344.986 781.104 L 345.000 780.000 L 345.000 260.000 L 344.986 258.896 L 344.946 257.792 L 344.878 256.690 L 344.783 255.589 L 344.662 254.492 L 344.513 253.397 L 344.337 252.307 L 344.135 251.221 L 343.907 250.140 L 343.651 249.066 L 343.370 247.998 L 343.062 246.937 L 342.729 245.884 L 342.369 244.840 L 341.985 243.805 L 341.575 242.779 L 341.139 241.764 L 340.680 240.760 L 340.195 239.767 L 339.686 238.787 L 339.154 237.820 L 338.598 236.865 L 338.018 235.925 L 337.416 234.999 L 336.791 234.089 L 336.144 233.194 L 335.476 232.315 L 334.785 231.452 L 334.074 230.607 L 333.343 229.780 L 332.591 228.971 L 331.820 228.180 L 331.029 227.409 L 330.220 226.657 L 329.393 225.926 L 328.548 225.215 L 327.685 224.524 L 326.806 223.856 L 325.911 223.209 L 325.001 222.584 L 324.075 221.982 L 323.135 221.402 L 322.180 220.846 L 321.213 220.314 L 320.233 219.805 L 319.240 219.320 L 318.236 218.861 L 317.221 218.425 L 316.195 218.015 L 315.160 217.631 L 314.116 217.271 L 313.063 216.938 L 312.002 216.630 L 310.934 216.349 L 309.860 216.093 L 308.779 215.865 L 308.132 215.744 L 308.469 215.637 L 309.096 215.422 L 309.717 215.191 L 310.332 214.945 L 310.942 214.684 L 311.544 214.408 L 312.140 214.117 L 312.728 213.812 L 313.308 213.492 L 313.881 213.159 L 314.445 212.811 L 315.000 212.450 L 315.547 212.075 L 316.084 211.687 L 316.611 211.285 L 317.129 210.871 L 317.636 210.445 L 318.132 210.006 L 318.618 209.555 L 319.092 209.092 L 319.555 208.618 L 320.006 208.132 L 320.445 207.636 L 320.871 207.129 L 321.285 206.611 L 321.687 206.084 L 322.075 205.547 L 322.450 205.000 L 322.811 204.445 L 323.159 203.881 L 323.492 203.308 L 323.812 202.728 L 324.117 202.140 L 324.408 201.544 L 324.684 200.942 L 324.945 200.332 L 325.191 199.717 L 325.422 199.096 L 325.637 198.469 L 325.837 197.838 L 326.022 197.201 L 326.191 196.560 L 326.344 195.916 L 326.481 195.267 L 326.602 194.616 L 326.708 193.962 L 326.797 193.305 L 326.870 192.646 L 326.927 191.986 L 326.967 191.325 L 326.992 190.663 L 327.000 190.000 L 326.992 189.337 Z" fill="black" fill-rule="evenodd"/>
</svg>
