<svg xmlns="http://www.w3.org/2000/svg" viewBox="0 0 600.000 1000.000">
  <path d="M 521.786,591.696 L 521.786,593.904 L 521.573,602.580 L 521.465,604.786 L 520.827,613.440 L 520.610,615.638 L 519.548,624.250 L 519.224,626.435 L 517.740,634.985 L 517.309,637.152 L 515.408,645.618 L 514.871,647.761 L 512.557,656.124 L 511.916,658.238 L 509.194,666.478 L 508.450,668.557 L 505.327,676.654 L 504.481,678.694 L 500.965,686.628 L 500.020,688.624 L 496.119,696.375 L 495.078,698.323 L 490.800,705.874 L 489.665,707.768 L 485.022,715.100 L 483.795,716.936 L 478.798,724.031 L 477.483,725.805 L 472.144,732.646 L 470.743,734.354 L 465.075,740.924 L 463.591,742.561 L 457.608,748.846 L 456.046,750.408 L 449.761,756.391 L 448.124,757.875 L 441.554,763.543 L 439.846,764.944 L 433.005,770.283 L 431.231,771.598 L 424.136,776.595 L 422.300,777.822 L 414.968,782.465 L 413.074,783.600 L 405.523,787.878 L 403.575,788.919 L 395.824,792.820 L 393.828,793.765 L 385.894,797.281 L 383.854,798.127 L 375.757,801.250 L 373.678,801.994 L 365.438,804.716 L 363.324,805.357 L 354.961,807.671 L 352.818,808.208 L 344.352,810.109 L 342.185,810.540 L 333.635,812.024 L 331.450,812.348 L 322.838,813.410 L 320.640,813.627 L 311.986,814.265 L 309.780,814.373 L 301.104,814.586 L 298.896,814.586 L 290.220,814.373 L 288.014,814.265 L 279.360,813.627 L 277.162,813.410 L 268.550,812.348 L 266.365,812.024 L 257.815,810.540 L 255.648,810.109 L 247.182,808.208 L 245.039,807.671 L 236.676,805.357 L 234.562,804.716 L 226.322,801.994 L 224.243,801.250 L 216.146,798.127 L 214.106,797.281 L 206.172,793.765 L 204.176,792.820 L 196.425,788.919 L 194.477,787.878 L 186.926,783.600 L 185.032,782.465 L 177.700,777.822 L 175.864,776.595 L 168.769,771.598 L 166.995,770.283 L 160.154,764.944 L 158.446,763.543 L 151.876,757.875 L 150.239,756.391 L 143.954,750.408 L 142.392,748.846 L 136.409,742.561 L 134.925,740.924 L 129.257,734.354 L 127.856,732.646 L 122.517,725.805 L 121.202,724.031 L 116.205,716.936 L 114.978,715.100 L 110.335,707.768 L 109.200,705.874 L 104.922,698.323 L 103.881,696.375 L 99.980,688.624 L 99.035,686.628 L 95.519,678.694 L 94.673,676.654 L 91.550,668.557 L 90.806,666.478 L 88.084,658.238 L 87.443,656.124 L 85.129,647.761 L 84.592,645.618 L 82.691,637.152 L 82.260,634.985 L 80.776,626.435 L 80.452,624.250 L 79.390,615.638 L 79.173,613.440 L 78.535,604.786 L 78.427,602.580 L 78.214,593.904 L 78.214,591.696 L 78.427,583.020 L 78.535,580.814 L 79.173,572.160 L 79.390,569.962 L 80.452,561.350 L 80.776,559.165 L 82.260,550.615 L 82.691,548.448 L 84.592,539.982 L 85.129,537.839 L 87.443,529.476 L 88.084,527.362 L 90.806,519.122 L 91.550,517.043 L 94.673,508.946 L 95.519,506.906 L 99.035,498.972 L 99.980,496.976 L 103.881,489.225 L 104.922,487.277 L 109.200,479.726 L 110.335,477.832 L 114.978,470.500 L 116.205,468.664 L 121.202,461.569 L 122.517,459.795 L 127.856,452.954 L 129.257,451.246 L 134.925,444.676 L 136.409,443.039 L 142.392,436.754 L 143.954,435.192 L 150.239,429.209 L 151.876,427.725 L 158.446,422.057 L 160.154,420.656 L 166.995,415.317 L 168.769,414.002 L 175.864,409.005 L 177.700,407.778 L 185.032,403.135 L 186.926,402.000 L 194.477,397.722 L 196.425,396.681 L 204.176,392.780 L 206.172,391.835 L 214.106,388.319 L 216.146,387.473 L 224.243,384.350 L 226.322,383.606 L 234.562,380.884 L 236.676,380.243 L 245.039,377.929 L 247.182,377.392 L 255.648,375.491 L 257.815,375.060 L 266.365,373.576 L 268.550,373.252 L 277.162,372.190 L 279.360,371.973 L 288.014,371.335 L 290.220,371.227 L 298.896,371.014 L 301.104,371.014 L 309.780,371.227 L 311.986,371.335 L 320.640,371.973 L 322.838,372.190 L 331.450,373.252 L 333.635,373.576 L 342.185,375.060 L 344.352,375.491 L 352.818,377.392 L 354.961,377.929 L 363.324,380.243 L 365.438,380.884 L 373.678,383.606 L 375.757,384.350 L 383.854,387.473 L 385.894,388.319 L 393.828,391.835 L 395.824,392.780 L 403.575,396.681 L 405.523,397.722 L 413.074,402.000 L 414.968,403.135 L 422.300,407.778 L 424.136,409.005 L 431.231,414.002 L 433.005,415.317 L 439.846,420.656 L 441.554,422.057 L 448.124,427.725 L 449.761,429.209 L 456.046,435.192 L 457.608,436.754 L 463.591,443.039 L 465.075,444.676 L 470.743,451.246 L 472.144,452.954 L 477.483,459.795 L 478.798,461.569 L 483.795,468.664 L 485.022,470.500 L 489.665,477.832 L 490.800,479.726 L 495.078,487.277 L 496.119,489.225 L 500.020,496.976 L 500.965,498.972 L 504.481,506.906 L 505.327,508.946 L 508.450,517.043 L 509.194,519.122 L 511.916,527.362 L 512.557,529.476 L 514.871,537.839 L 515.408,539.982 L 517.309,548.448 L 517.740,550.615 L 519.224,559.165 L 519.548,561.350 L 520.610,569.962 L 520.827,572.160 L 521.465,580.814 L 521.573,583.020 L 521.786,591.696 Z M 431.786,592.800 L 431.628,586.334 L 431.152,579.883 L 430.360,573.463 L 429.254,567.090 L 427.837,560.779 L 426.112,554.544 L 424.083,548.402 L 421.755,542.368 L 419.134,536.454 L 416.225,530.676 L 413.037,525.048 L 409.576,519.583 L 405.852,514.295 L 401.872,509.196 L 397.647,504.298 L 393.187,499.613 L 388.502,495.153 L 383.604,490.928 L 378.505,486.948 L 373.217,483.224 L 367.752,479.763 L 362.124,476.575 L 356.346,473.666 L 350.432,471.045 L 344.398,468.717 L 338.256,466.688 L 332.021,464.963 L 325.710,463.546 L 319.337,462.440 L 312.917,461.648 L 306.466,461.172 L 300.000,461.014 L 293.534,461.172 L 287.083,461.648 L 280.663,462.440 L 274.290,463.546 L 267.979,464.963 L 261.744,466.688 L 255.602,468.717 L 249.568,471.045 L 243.654,473.666 L 237.876,476.575 L 232.248,479.763 L 226.783,483.224 L 221.495,486.948 L 216.396,490.928 L 211.498,495.153 L 206.813,499.613 L 202.353,504.298 L 198.128,509.196 L 194.148,514.295 L 190.424,519.583 L 186.963,525.048 L 183.775,530.676 L 180.866,536.454 L 178.245,542.368 L 175.917,548.402 L 173.888,554.544 L 172.163,560.779 L 170.746,567.090 L 169.640,573.463 L 168.848,579.883 L 168.372,586.334 L 168.214,592.800 L 168.372,599.266 L 168.848,605.717 L 169.640,612.137 L 170.746,618.510 L 172.163,624.821 L 173.888,631.056 L 175.917,637.198 L 178.245,643.232 L 180.866,649.146 L 183.775,654.924 L 186.963,660.552 L 190.424,666.017 L 194.148,671.305 L 198.128,676.404 L 202.353,681.302 L 206.813,685.987 L 211.498,690.447 L 216.396,694.672 L 221.495,698.652 L 226.783,702.376 L 232.248,705.837 L 237.876,709.025 L 243.654,711.934 L 249.568,714.555 L 255.602,716.883 L 261.744,718.912 L 267.979,720.637 L 274.290,722.054 L 280.663,723.160 L 287.083,723.952 L 293.534,724.428 L 300.000,724.586 L 306.466,724.428 L 312.917,723.952 L 319.337,723.160 L 325.710,722.054 L 332.021,720.637 L 338.256,718.912 L 344.398,716.883 L 350.432,714.555 L 356.346,711.934 L 362.124,709.025 L 367.752,705.837 L 373.217,702.376 L 378.505,698.652 L 383.604,694.672 L 388.502,690.447 L 393.187,685.987 L 397.647,681.302 L 401.872,676.404 L 405.852,671.305 L 409.576,666.017 L 413.037,660.552 L 416.225,654.924 L 419.134,649.146 L 421.755,643.232 L 424.083,637.198 L 426.112,631.056 L 427.837,624.821 L 429.254,618.510 L 430.360,612.137 L 431.152,605.717 L 431.628,599.266 L 431.786,592.800 Z" fill="black" fill-rule="evenodd"/>
</svg>
