<svg xmlns="http://www.w3.org/2000/svg" viewBox="0 0 600.000 1000.000">
  <path d="M 255.054,257.792 L 255.217,255.589 L 255.487,253.397 L 255.865,251.221 L 256.349,249.066 L 256.938,246.937 L 257.631,244.840 L 258.425,242.779 L 259.320,240.760 L 260.314,238.787 L 261.402,236.865 L 262.584,234.999 L 263.856,233.194 L 265.215,231.452 L 266.657,229.780 L 268.180,228.180 L 269.780,226.657 L 271.452,225.215 L 273.194,223.856 L 274.999,222.584 L 276.865,221.402 L 278.787,220.314 L 280.760,219.320 L 282.779,218.425 L 284.840,217.631 L 286.937,216.938 L 289.066,216.349 L 291.221,215.865 L 293.397,215.487 L 295.589,215.217 L 297.792,215.054 L 300.000,215.000 L 302.208,215.054 L 304.411,215.217 L 306.603,215.487 L 308.779,215.865 L 310.934,216.349 L 313.063,216.938 L 315.160,217.631 L 317.221,218.425 L 319.240,219.320 L 321.213,220.314 L 323.135,221.402 L 325.001,222.584 L 326.806,223.856 L 328.548,225.215 L 330.220,226.657 L 331.820,228.180 L 333.343,229.780 L 334.785,231.452 L 336.144,233.194 L 337.416,234.999 L 338.598,236.865 L 339.686,238.787 L 340.680,240.760 L 341.575,242.779 L 342.369,244.840 L 343.062,246.937 L 343.651,249.066 L 344.135,251.221 L 344.513,253.397 L 344.783,255.589 L 344.946,257.792 L 345.000,260.000 L 345.000,780.000 L 344.946,782.208 L 344.783,784.411 L 344.513,786.603 L 344.135,788.779 L 343.651,790.934 L 343.062,793.063 L 342.369,795.160 L 341.575,797.221 L 340.680,799.240 L 339.686,801.213 L 338.598,803.135 L 337.416,805.001 L 336.144,806.806 L 334.785,808.548 L 333.343,810.220 L 331.820,811.820 L 330.220,813.343 L 328.548,814.785 L 326.806,816.144 L 325.001,817.416 L 323.135,818.598 L 321.213,819.686 L 319.240,820.680 L 317.221,821.575 L 315.160,822.369 L 313.063,823.062 L 310.934,823.651 L 308.779,824.135 L 306.603,824.513 L 304.411,824.783 L 302.208,824.946 L 300.000,825.000 L 297.792,824.946 L 295.589,824.783 L 293.397,824.513 L 291.221,824.135 L 289.066,823.651 L 286.937,823.062 L 284.840,822.369 L 282.779,821.575 L 280.760,820.680 L 278.787,819.686 L 276.865,818.598 L 274.999,817.416 L 273.194,816.144 L 271.452,814.785 L 269.780,813.343 L 268.180,811.820 L 266.657,810.220 L 265.215,808.548 L 263.856,806.806 L 262.584,805.001 L 261.402,803.135 L 260.314,801.213 L 259.320,799.240 L 258.425,797.221 L 257.631,795.160 L 256.938,793.063 L 256.349,790.934 L 255.865,788.779 L 255.487,786.603 L 255.217,784.411 L 255.054,782.208 L 255.000,780.000 L 255.000,260.000 L 255.054,257.792 Z M 329.215,141.435 L 329.109,142.867 L 328.933,144.292 L 328.688,145.706 L 328.373,147.107 L 327.991,148.491 L 327.540,149.854 L 327.023,151.193 L 326.442,152.506 L 325.796,153.788 L 325.089,155.038 L 324.320,156.250 L 323.494,157.424 L 322.611,158.556 L 321.673,159.643 L 320.683,160.683 L 319.643,161.673 L 318.556,162.611 L 317.424,163.494 L 316.250,164.320 L 315.038,165.089 L 313.788,165.796 L 312.506,166.442 L 311.193,167.023 L 309.854,167.540 L 308.491,167.991 L 307.107,168.373 L 305.706,168.688 L 304.292,168.933 L 302.867,169.109 L 301.435,169.215 L 300.000,169.250 L 298.565,169.215 L 297.133,169.109 L 295.708,168.933 L 294.294,168.688 L 292.893,168.373 L 291.509,167.991 L 290.146,167.540 L 288.807,167.023 L 287.494,166.442 L 286.212,165.796 L 284.962,165.089 L 283.750,164.320 L 282.576,163.494 L 281.444,162.611 L 280.357,161.673 L 279.317,160.683 L 278.327,159.643 L 277.389,158.556 L 276.506,157.424 L 275.680,156.250 L 274.911,155.038 L 274.204,153.788 L 273.558,152.506 L 272.977,151.193 L 272.460,149.854 L 272.009,148.491 L 271.627,147.107 L 271.312,145.706 L 271.067,144.292 L 270.891,142.867 L 270.785,141.435 L 270.750,140.000 L 270.785,138.565 L 270.891,137.133 L 271.067,135.708 L 271.312,134.294 L 271.627,132.893 L 272.009,131.509 L 272.460,130.146 L 272.977,128.807 L 273.558,127.494 L 274.204,126.212 L 274.911,124.962 L 275.680,123.750 L 276.506,122.576 L 277.389,121.444 L 278.327,120.357 L 279.317,119.317 L 280.357,118.327 L 281.444,117.389 L 282.576,116.506 L 283.750,115.680 L 284.962,114.911 L 286.212,114.204 L 287.494,113.558 L 288.807,112.977 L 290.146,112.460 L 291.509,112.009 L 292.893,111.627 L 294.294,111.312 L 295.708,111.067 L 297.133,110.891 L 298.565,110.785 L 300.000,110.750 L 301.435,110.785 L 302.867,110.891 L 304.292,111.067 L 305.706,111.312 L 307.107,111.627 L 308.491,112.009 L 309.854,112.460 L 311.193,112.977 L 312.506,113.558 L 313.788,114.204 L 315.038,114.911 L 316.250,115.680 L 317.424,116.506 L 318.556,117.389 L 319.643,118.327 L 320.683,119.317 L 321.673,120.357 L 322.611,121.444 L 323.494,122.576 L 324.320,123.750 L 325.089,124.962 L 325.796,126.212 L 326.442,127.494 L 327.023,128.807 L 327.540,130.146 L 327.991,131.509 L 328.373,132.893 L 328.688,134.294 L 328.933,135.708 L 329.109,137.133 L 329.215,138.565 L 329.250,140.000 L 329.215,141.435 Z" fill="black" fill-rule="evenodd"/>
</svg>
