<svg xmlns="http://www.w3.org/2000/svg" viewBox="0 0 600.000 1000">
  <path d="M 469.434 538.340 L 470.424 537.851 L 471.402 537.337 L 472.367 536.799 L 473.318 536.238 L 474.255 535.653 L 475.177 535.046 L 476.085 534.416 L 476.976 533.764 L 477.852 533.091 L 478.710 532.396 L 479.551 531.680 L 480.375 530.944 L 481.180 530.188 L 481.966 529.413 L 482.733 528.618 L 483.480 527.805 L 484.208 526.974 L 484.914 526.125 L 485.600 525.259 L 486.264 524.376 L 486.906 523.478 L 487.526 522.564 L 488.123 521.635 L 488.697 520.691 L 489.248 519.734 L 489.775 518.764 L 490.279 517.780 L 490.758 516.785 L 491.212 515.779 L 491.642 514.761 L 492.046 513.734 L 492.426 512.696 L 492.779 511.650 L 493.107 510.595 L 493.409 509.533 L 493.685 508.464 L 493.934 507.388 L 494.157 506.306 L 494.353 505.219 L 494.523 504.128 L 494.666 503.032 L 494.781 501.934 L 494.870 500.833 L 494.932 499.731 L 494.967 498.627 L 494.974 497.522 L 494.955 496.418 L 494.908 495.315 L 494.834 494.213 L 494.734 493.113 L 494.606 492.016 L 494.452 490.922 L 494.270 489.833 L 494.062 488.748 L 493.828 487.669 L 493.567 486.596 L 493.279 485.529 L 492.301 482.066 L 492.125 481.461 L 491.101 478.020 L 490.916 477.414 L 489.846 473.998 L 489.651 473.392 L 488.537 470.001 L 488.332 469.394 L 487.173 466.029 L 486.958 465.421 L 485.755 462.084 L 485.530 461.475 L 484.282 458.167 L 484.048 457.557 L 482.756 454.278 L 482.511 453.668 L 481.176 450.419 L 480.920 449.809 L 479.543 446.591 L 479.276 445.980 L 477.857 442.795 L 477.578 442.183 L 476.117 439.032 L 475.827 438.420 L 474.324 435.303 L 474.023 434.690 L 472.479 431.608 L 472.167 430.996 L 470.582 427.950 L 470.257 427.337 L 468.633 424.329 L 468.296 423.716 L 466.632 420.746 L 466.282 420.133 L 464.579 417.202 L 464.217 416.590 L 462.475 413.698 L 462.100 413.086 L 460.320 410.236 L 459.932 409.625 L 458.115 406.816 L 457.713 406.206 L 455.859 403.439 L 455.444 402.830 L 453.553 400.107 L 453.124 399.499 L 451.198 396.820 L 450.754 396.214 L 448.793 393.580 L 448.335 392.975 L 446.339 390.387 L 445.866 389.785 L 443.837 387.243 L 443.349 386.643 L 441.286 384.149 L 440.783 383.552 L 438.688 381.106 L 438.169 380.512 L 436.042 378.115 L 435.508 377.524 L 433.349 375.177 L 432.799 374.590 L 430.609 372.293 L 430.043 371.710 L 427.823 369.464 L 427.241 368.886 L 424.992 366.692 L 424.394 366.119 L 422.116 363.978 L 421.501 363.410 L 419.195 361.322 L 418.563 360.760 L 416.230 358.725 L 415.581 358.170 L 413.222 356.190 L 412.556 355.642 L 410.170 353.717 L 409.488 353.177 L 407.077 351.307 L 406.378 350.775 L 403.943 348.962 L 403.226 348.439 L 400.767 346.682 L 400.033 346.168 L 397.552 344.469 L 396.801 343.965 L 394.298 342.323 L 393.530 341.831 L 391.005 340.247 L 390.220 339.766 L 387.675 338.241 L 386.873 337.772 L 384.308 336.306 L 383.490 335.850 L 380.906 334.444 L 380.072 334.001 L 377.469 332.655 L 376.619 332.227 L 373.999 330.941 L 373.133 330.528 L 370.497 329.303 L 369.615 328.905 L 366.963 327.742 L 366.067 327.361 L 363.400 326.259 L 362.489 325.894 L 359.808 324.854 L 358.883 324.508 L 356.188 323.530 L 355.251 323.202 L 352.543 322.287 L 351.593 321.977 L 348.874 321.125 L 347.911 320.835 L 345.181 320.046 L 344.207 319.776 L 341.467 319.051 L 340.482 318.802 L 337.733 318.140 L 336.739 317.912 L 333.981 317.314 L 332.978 317.108 L 330.213 316.574 L 329.201 316.391 L 326.429 315.920 L 325.410 315.760 L 322.633 315.354 L 321.608 315.216 L 318.825 314.875 L 317.795 314.760 L 315.008 314.483 L 313.973 314.392 L 311.183 314.180 L 310.145 314.113 L 307.353 313.965 L 306.312 313.923 L 303.518 313.840 L 302.476 313.821 L 299.682 313.803 L 298.639 313.808 L 295.845 313.854 L 294.804 313.884 L 292.011 313.995 L 290.971 314.048 L 288.180 314.224 L 287.142 314.302 L 284.354 314.542 L 283.321 314.644 L 280.536 314.949 L 279.508 315.073 L 276.727 315.443 L 275.705 315.591 L 272.930 316.025 L 271.914 316.196 L 269.145 316.694 L 268.137 316.887 L 265.375 317.449 L 264.375 317.665 L 261.621 318.291 L 260.631 318.528 L 257.886 319.218 L 256.905 319.476 L 254.170 320.229 L 253.201 320.508 L 250.475 321.325 L 249.518 321.623 L 246.804 322.503 L 245.859 322.821 L 243.157 323.763 L 242.225 324.100 L 239.536 325.104 L 238.617 325.459 L 235.942 326.526 L 235.038 326.898 L 232.377 328.027 L 231.487 328.416 L 228.842 329.606 L 227.967 330.011 L 225.338 331.262 L 224.479 331.682 L 221.866 332.994 L 221.023 333.429 L 218.429 334.801 L 217.602 335.250 L 215.025 336.682 L 214.215 337.144 L 211.658 338.636 L 210.864 339.110 L 208.327 340.661 L 207.550 341.147 L 205.034 342.756 L 204.274 343.253 L 201.780 344.921 L 201.036 345.429 L 198.565 347.153 L 197.839 347.671 L 195.390 349.453 L 194.681 349.980 L 192.256 351.818 L 191.564 352.354 L 189.165 354.248 L 188.489 354.791 L 186.115 356.741 L 185.457 357.292 L 183.109 359.296 L 182.468 359.854 L 180.146 361.912 L 179.522 362.476 L 177.228 364.588 L 176.620 365.158 L 174.355 367.323 L 173.764 367.898 L 171.527 370.115 L 170.952 370.695 L 168.746 372.963 L 168.187 373.548 L 166.010 375.867 L 165.467 376.456 L 163.322 378.825 L 162.795 379.417 L 160.681 381.836 L 160.170 382.431 L 158.088 384.898 L 157.592 385.497 L 155.544 388.012 L 155.062 388.613 L 153.047 391.175 L 152.581 391.778 L 150.600 394.386 L 150.149 394.992 L 148.203 397.645 L 147.765 398.252 L 145.855 400.951 L 145.432 401.559 L 143.557 404.301 L 143.148 404.911 L 141.310 407.696 L 140.914 408.307 L 139.113 411.134 L 138.731 411.745 L 136.967 414.614 L 136.598 415.226 L 134.873 418.135 L 134.517 418.747 L 132.830 421.696 L 132.486 422.309 L 130.840 425.296 L 130.508 425.908 L 128.901 428.933 L 128.581 429.546 L 127.015 432.608 L 126.707 433.220 L 125.181 436.318 L 124.885 436.930 L 123.400 440.062 L 123.116 440.674 L 121.672 443.840 L 121.399 444.452 L 119.998 447.651 L 119.736 448.262 L 118.377 451.493 L 118.126 452.104 L 116.810 455.366 L 116.569 455.976 L 115.297 459.268 L 115.067 459.877 L 113.838 463.198 L 113.618 463.807 L 112.434 467.156 L 112.224 467.764 L 111.084 471.140 L 110.884 471.747 L 109.789 475.149 L 109.598 475.755 L 108.548 479.182 L 108.367 479.787 L 107.363 483.238 L 107.192 483.843 L 106.233 487.316 L 106.071 487.920 L 105.158 491.415 L 105.005 492.018 L 104.139 495.534 L 103.995 496.136 L 103.176 499.671 L 103.041 500.273 L 102.268 503.827 L 102.142 504.428 L 101.416 507.999 L 101.298 508.599 L 100.620 512.186 L 100.511 512.786 L 99.881 516.389 L 99.780 516.988 L 99.197 520.604 L 99.105 521.203 L 98.570 524.832 L 98.486 525.430 L 97.999 529.071 L 97.923 529.669 L 97.485 533.321 L 97.417 533.918 L 97.027 537.580 L 96.968 538.176 L 96.626 541.846 L 96.575 542.443 L 96.282 546.120 L 96.238 546.716 L 95.994 550.400 L 95.958 550.996 L 95.763 554.684 L 95.735 555.280 L 95.588 558.972 L 95.569 559.568 L 95.471 563.263 L 95.459 563.859 L 95.410 567.556 L 95.406 568.151 L 95.406 571.849 L 95.410 572.444 L 95.459 576.141 L 95.471 576.737 L 95.569 580.432 L 95.588 581.028 L 95.735 584.720 L 95.763 585.316 L 95.958 589.004 L 95.994 589.600 L 96.238 593.284 L 96.282 593.880 L 96.575 597.557 L 96.626 598.154 L 96.968 601.824 L 97.027 602.420 L 97.417 606.082 L 97.485 606.679 L 97.923 610.331 L 97.999 610.929 L 98.486 614.570 L 98.570 615.168 L 99.105 618.797 L 99.197 619.396 L 99.780 623.012 L 99.881 623.611 L 100.511 627.214 L 100.620 627.814 L 101.298 631.401 L 101.416 632.001 L 102.142 635.572 L 102.268 636.173 L 103.041 639.727 L 103.176 640.329 L 103.995 643.864 L 104.139 644.466 L 105.005 647.982 L 105.158 648.585 L 106.071 652.080 L 106.233 652.684 L 107.192 656.157 L 107.363 656.762 L 108.367 660.213 L 108.548 660.818 L 109.598 664.245 L 109.789 664.851 L 110.884 668.253 L 111.084 668.860 L 112.224 672.236 L 112.434 672.844 L 113.618 676.193 L 113.838 676.802 L 115.067 680.123 L 115.297 680.732 L 116.569 684.024 L 116.810 684.634 L 118.126 687.896 L 118.377 688.507 L 119.736 691.738 L 119.998 692.349 L 121.399 695.548 L 121.672 696.160 L 123.116 699.326 L 123.400 699.938 L 124.885 703.070 L 125.181 703.682 L 126.707 706.780 L 127.015 707.392 L 128.581 710.454 L 128.901 711.067 L 130.508 714.092 L 130.840 714.704 L 132.486 717.691 L 132.830 718.304 L 134.517 721.253 L 134.873 721.865 L 136.598 724.774 L 136.967 725.386 L 138.731 728.255 L 139.113 728.866 L 140.914 731.693 L 141.310 732.304 L 143.148 735.089 L 143.557 735.699 L 145.432 738.441 L 145.855 739.049 L 147.765 741.748 L 148.203 742.355 L 150.149 745.008 L 150.600 745.614 L 152.581 748.222 L 153.047 748.825 L 155.062 751.387 L 155.544 751.988 L 157.592 754.503 L 158.088 755.102 L 160.170 757.569 L 160.681 758.164 L 162.795 760.583 L 163.322 761.175 L 165.467 763.544 L 166.010 764.133 L 168.187 766.452 L 168.746 767.037 L 170.952 769.305 L 171.527 769.885 L 173.764 772.102 L 174.355 772.677 L 176.620 774.842 L 177.228 775.412 L 179.522 777.524 L 180.146 778.088 L 182.468 780.146 L 183.109 780.704 L 185.457 782.708 L 186.115 783.259 L 188.489 785.209 L 189.165 785.752 L 191.564 787.646 L 192.256 788.182 L 194.681 790.020 L 195.390 790.547 L 197.839 792.329 L 198.565 792.847 L 201.036 794.571 L 201.780 795.079 L 204.274 796.747 L 205.034 797.244 L 207.550 798.853 L 208.327 799.339 L 210.864 800.890 L 211.658 801.364 L 214.215 802.856 L 215.025 803.318 L 217.602 804.750 L 218.429 805.199 L 221.023 806.571 L 221.866 807.006 L 224.479 808.318 L 225.338 808.738 L 227.967 809.989 L 228.842 810.394 L 231.487 811.584 L 232.377 811.973 L 235.038 813.102 L 235.942 813.474 L 238.617 814.541 L 239.536 814.896 L 242.225 815.900 L 243.157 816.237 L 245.859 817.179 L 246.804 817.497 L 249.518 818.377 L 250.475 818.675 L 253.201 819.492 L 254.170 819.771 L 256.905 820.524 L 257.886 820.782 L 260.631 821.472 L 261.621 821.709 L 264.375 822.335 L 265.375 822.551 L 268.137 823.113 L 269.145 823.306 L 271.914 823.804 L 272.930 823.975 L 275.705 824.409 L 276.727 824.557 L 279.508 824.927 L 280.536 825.051 L 283.321 825.356 L 284.354 825.458 L 287.142 825.698 L 288.180 825.776 L 290.971 825.952 L 292.011 826.005 L 294.804 826.116 L 295.845 826.146 L 298.639 826.192 L 299.682 826.197 L 302.476 826.179 L 303.518 826.160 L 306.312 826.077 L 307.353 826.035 L 310.145 825.887 L 311.183 825.820 L 313.973 825.608 L 315.008 825.517 L 317.795 825.240 L 318.825 825.125 L 321.608 824.784 L 322.633 824.646 L 325.410 824.240 L 326.429 824.080 L 329.201 823.609 L 330.213 823.426 L 332.978 822.892 L 333.981 822.686 L 336.739 822.088 L 337.733 821.860 L 340.482 821.198 L 341.467 820.949 L 344.207 820.224 L 345.181 819.954 L 347.911 819.165 L 348.874 818.875 L 351.593 818.023 L 352.543 817.713 L 355.251 816.798 L 356.188 816.470 L 358.883 815.492 L 359.808 815.146 L 362.489 814.106 L 363.400 813.741 L 366.067 812.639 L 366.963 812.258 L 369.615 811.095 L 370.497 810.697 L 373.133 809.472 L 373.999 809.059 L 376.619 807.773 L 377.469 807.345 L 380.072 805.999 L 380.906 805.556 L 383.490 804.150 L 384.308 803.694 L 386.873 802.228 L 387.675 801.759 L 390.220 800.234 L 391.005 799.753 L 393.530 798.169 L 394.298 797.677 L 396.801 796.035 L 397.552 795.531 L 400.033 793.832 L 400.767 793.318 L 403.226 791.561 L 403.943 791.038 L 406.378 789.225 L 407.077 788.693 L 409.488 786.823 L 410.170 786.283 L 412.556 784.358 L 413.222 783.810 L 415.581 781.830 L 416.230 781.275 L 418.563 779.240 L 419.195 778.678 L 421.501 776.590 L 422.116 776.022 L 424.394 773.881 L 424.992 773.308 L 427.241 771.114 L 427.823 770.536 L 430.043 768.290 L 430.609 767.707 L 432.799 765.410 L 433.349 764.823 L 435.508 762.476 L 436.042 761.885 L 438.169 759.488 L 438.688 758.894 L 440.783 756.448 L 441.286 755.851 L 443.349 753.357 L 443.837 752.757 L 445.866 750.215 L 446.339 749.613 L 448.335 747.025 L 448.793 746.420 L 450.754 743.786 L 451.198 743.180 L 453.124 740.501 L 453.553 739.893 L 455.444 737.170 L 455.859 736.561 L 457.713 733.794 L 458.115 733.184 L 459.932 730.375 L 460.320 729.764 L 462.100 726.914 L 462.475 726.302 L 464.217 723.410 L 464.579 722.798 L 466.282 719.867 L 466.632 719.254 L 468.296 716.284 L 468.633 715.671 L 470.257 712.663 L 470.582 712.050 L 472.167 709.004 L 472.479 708.392 L 474.023 705.310 L 474.324 704.697 L 475.827 701.580 L 476.117 700.968 L 477.578 697.817 L 477.857 697.205 L 479.276 694.020 L 479.543 693.409 L 480.920 690.191 L 481.176 689.581 L 482.511 686.332 L 482.756 685.722 L 484.048 682.443 L 484.282 681.833 L 485.530 678.525 L 485.755 677.916 L 486.958 674.579 L 487.173 673.971 L 488.332 670.606 L 488.537 669.999 L 489.651 666.608 L 489.846 666.002 L 490.916 662.586 L 491.101 661.980 L 492.125 658.539 L 492.301 657.934 L 493.279 654.471 L 493.567 653.404 L 493.828 652.331 L 494.062 651.252 L 494.270 650.167 L 494.452 649.078 L 494.606 647.984 L 494.734 646.887 L 494.834 645.787 L 494.908 644.685 L 494.955 643.582 L 494.974 642.478 L 494.967 641.373 L 494.932 640.269 L 494.870 639.167 L 494.781 638.066 L 494.666 636.968 L 494.523 635.872 L 494.353 634.781 L 494.157 633.694 L 493.934 632.612 L 493.685 631.536 L 493.409 630.467 L 493.107 629.405 L 492.779 628.350 L 492.426 627.304 L 492.046 626.266 L 491.642 625.239 L 491.212 624.221 L 490.758 623.215 L 490.279 622.220 L 489.775 621.236 L 489.248 620.266 L 488.697 619.309 L 488.123 618.365 L 487.526 617.436 L 486.906 616.522 L 486.264 615.624 L 485.600 614.741 L 484.914 613.875 L 484.208 613.026 L 483.480 612.195 L 482.733 611.382 L 482.256 610.887 L 482.256 570.000 L 482.242 568.896 L 482.202 567.792 L 482.134 566.690 L 482.039 565.589 L 481.918 564.492 L 481.769 563.397 L 481.593 562.307 L 481.391 561.221 L 481.163 560.140 L 480.907 559.066 L 480.626 557.998 L 480.318 556.937 L 479.985 555.884 L 479.625 554.840 L 479.241 553.805 L 478.831 552.779 L 478.395 551.764 L 477.936 550.760 L 477.451 549.767 L 476.942 548.787 L 476.410 547.820 L 475.854 546.865 L 475.274 545.925 L 474.672 544.999 L 474.047 544.089 L 473.400 543.194 L 472.732 542.315 L 472.041 541.452 L 471.330 540.607 L 470.599 539.780 L 469.847 538.971 L 469.295 538.405 L 469.434 538.340 Z M 403.139 641.587 L 402.189 644.343 L 401.204 647.072 L 400.187 649.771 L 399.135 652.440 L 398.052 655.079 L 396.936 657.685 L 395.789 660.258 L 394.611 662.798 L 393.404 665.303 L 392.167 667.772 L 390.901 670.205 L 389.607 672.601 L 388.286 674.958 L 386.939 677.277 L 385.566 679.557 L 384.168 681.796 L 382.746 683.994 L 381.301 686.151 L 379.833 688.266 L 378.343 690.337 L 376.833 692.366 L 375.303 694.350 L 373.753 696.290 L 372.186 698.186 L 370.601 700.035 L 368.999 701.840 L 367.382 703.598 L 365.750 705.310 L 364.104 706.975 L 362.445 708.593 L 360.774 710.164 L 359.091 711.688 L 357.398 713.164 L 355.696 714.593 L 353.984 715.975 L 352.265 717.308 L 350.538 718.594 L 348.804 719.833 L 347.065 721.024 L 345.321 722.168 L 343.572 723.265 L 341.820 724.315 L 340.064 725.318 L 338.306 726.275 L 336.546 727.185 L 334.784 728.050 L 333.021 728.869 L 331.257 729.642 L 329.493 730.371 L 327.729 731.055 L 325.966 731.695 L 324.202 732.291 L 322.440 732.843 L 320.679 733.352 L 318.918 733.818 L 317.159 734.242 L 315.401 734.623 L 313.644 734.963 L 311.888 735.261 L 310.133 735.517 L 308.378 735.732 L 306.625 735.907 L 304.873 736.040 L 303.120 736.133 L 301.369 736.185 L 299.617 736.196 L 297.865 736.167 L 296.113 736.097 L 294.361 735.987 L 292.608 735.835 L 290.854 735.643 L 289.100 735.410 L 287.344 735.135 L 285.588 734.819 L 283.830 734.462 L 282.071 734.062 L 280.312 733.619 L 278.551 733.135 L 276.789 732.607 L 275.026 732.035 L 273.263 731.420 L 271.499 730.761 L 269.735 730.058 L 267.971 729.310 L 266.208 728.516 L 264.445 727.677 L 262.684 726.793 L 260.925 725.862 L 259.167 724.885 L 257.413 723.862 L 255.662 722.791 L 253.915 721.674 L 252.173 720.509 L 250.437 719.297 L 248.706 718.038 L 246.982 716.731 L 245.266 715.376 L 243.558 713.974 L 241.860 712.524 L 240.171 711.027 L 238.494 709.482 L 236.828 707.891 L 235.174 706.252 L 233.535 704.566 L 231.909 702.834 L 230.298 701.056 L 228.704 699.232 L 227.126 697.362 L 225.567 695.447 L 224.025 693.487 L 222.504 691.484 L 221.002 689.436 L 219.522 687.346 L 218.064 685.213 L 216.629 683.038 L 215.217 680.821 L 213.830 678.565 L 212.468 676.268 L 211.133 673.932 L 209.823 671.557 L 208.542 669.145 L 207.289 666.696 L 206.064 664.211 L 204.870 661.691 L 203.705 659.136 L 202.572 656.549 L 201.470 653.928 L 200.401 651.276 L 199.364 648.594 L 198.361 645.882 L 197.391 643.141 L 196.457 640.372 L 195.557 637.577 L 194.693 634.756 L 193.865 631.911 L 193.073 629.042 L 192.318 626.151 L 191.600 623.238 L 190.921 620.306 L 190.279 617.354 L 189.676 614.384 L 189.111 611.397 L 188.585 608.394 L 188.099 605.377 L 187.653 602.346 L 187.246 599.303 L 186.879 596.248 L 186.552 593.184 L 186.266 590.111 L 186.021 587.030 L 185.816 583.942 L 185.652 580.850 L 185.529 577.753 L 185.447 574.653 L 185.406 571.551 L 185.406 568.449 L 185.447 565.347 L 185.529 562.247 L 185.652 559.150 L 185.816 556.058 L 186.021 552.970 L 186.266 549.889 L 186.552 546.816 L 186.879 543.752 L 187.246 540.697 L 187.653 537.654 L 188.099 534.623 L 188.585 531.606 L 189.111 528.603 L 189.676 525.616 L 190.279 522.646 L 190.921 519.694 L 191.600 516.762 L 192.318 513.849 L 193.073 510.958 L 193.865 508.089 L 194.693 505.244 L 195.557 502.423 L 196.457 499.628 L 197.391 496.859 L 198.361 494.118 L 199.364 491.406 L 200.401 488.724 L 201.470 486.072 L 202.572 483.451 L 203.705 480.864 L 204.870 478.309 L 206.064 475.789 L 207.289 473.304 L 208.542 470.855 L 209.823 468.443 L 211.133 466.068 L 212.468 463.732 L 213.830 461.435 L 215.217 459.179 L 216.629 456.962 L 218.064 454.787 L 219.522 452.654 L 221.002 450.564 L 222.504 448.516 L 224.025 446.513 L 225.567 444.553 L 227.126 442.638 L 228.704 440.768 L 230.298 438.944 L 231.909 437.166 L 233.535 435.434 L 235.174 433.748 L 236.828 432.109 L 238.494 430.518 L 240.171 428.973 L 241.860 427.476 L 243.558 426.026 L 245.266 424.624 L 246.982 423.269 L 248.706 421.962 L 250.437 420.703 L 252.173 419.491 L 253.915 418.326 L 255.662 417.209 L 257.413 416.138 L 259.167 415.115 L 260.925 414.138 L 262.684 413.207 L 264.445 412.323 L 266.208 411.484 L 267.971 410.690 L 269.735 409.942 L 271.499 409.239 L 273.263 408.580 L 275.026 407.965 L 276.789 407.393 L 278.551 406.865 L 280.312 406.381 L 282.071 405.938 L 283.830 405.538 L 285.588 405.181 L 287.344 404.865 L 289.100 404.590 L 290.854 404.357 L 292.608 404.165 L 294.361 404.013 L 296.113 403.903 L 297.865 403.833 L 299.617 403.804 L 301.369 403.815 L 303.120 403.867 L 304.873 403.960 L 306.625 404.093 L 308.378 404.268 L 310.133 404.483 L 311.888 404.739 L 313.644 405.037 L 315.401 405.377 L 317.159 405.758 L 318.918 406.182 L 320.679 406.648 L 322.440 407.157 L 324.202 407.709 L 325.966 408.305 L 327.729 408.945 L 329.493 409.629 L 331.257 410.358 L 333.021 411.131 L 334.784 411.950 L 336.546 412.815 L 338.306 413.725 L 340.064 414.682 L 341.820 415.685 L 343.572 416.735 L 345.321 417.832 L 347.065 418.976 L 348.804 420.167 L 350.538 421.406 L 352.265 422.692 L 353.984 424.025 L 355.696 425.407 L 357.398 426.836 L 359.091 428.312 L 360.774 429.836 L 362.445 431.407 L 364.104 433.025 L 365.750 434.690 L 367.382 436.402 L 368.999 438.160 L 370.601 439.965 L 372.186 441.814 L 373.753 443.710 L 375.303 445.650 L 376.833 447.634 L 378.343 449.663 L 379.833 451.734 L 381.301 453.849 L 382.746 456.006 L 384.168 458.204 L 385.566 460.443 L 386.939 462.723 L 388.286 465.042 L 389.607 467.399 L 390.901 469.795 L 392.167 472.228 L 393.404 474.697 L 394.611 477.202 L 395.789 479.742 L 396.936 482.315 L 398.052 484.921 L 399.135 487.560 L 400.187 490.229 L 401.204 492.928 L 402.189 495.657 L 403.139 498.413 L 404.054 501.197 L 404.934 504.007 L 405.778 506.841 L 406.670 510.002 L 406.984 511.061 L 407.323 512.112 L 407.688 513.154 L 408.078 514.187 L 408.494 515.210 L 408.935 516.223 L 409.400 517.225 L 409.890 518.215 L 410.404 519.192 L 410.941 520.157 L 411.503 521.108 L 412.087 522.045 L 412.694 522.968 L 413.324 523.875 L 413.976 524.767 L 414.155 525.000 L 280.848 525.000 L 279.744 525.014 L 278.640 525.054 L 277.538 525.122 L 276.437 525.217 L 275.340 525.338 L 274.245 525.487 L 273.155 525.663 L 272.069 525.865 L 270.988 526.093 L 269.914 526.349 L 268.846 526.630 L 267.785 526.938 L 266.732 527.271 L 265.688 527.631 L 264.653 528.015 L 263.627 528.425 L 262.612 528.861 L 261.608 529.320 L 260.615 529.805 L 259.635 530.314 L 258.668 530.846 L 257.713 531.402 L 256.773 531.982 L 255.847 532.584 L 254.937 533.209 L 254.042 533.856 L 253.163 534.524 L 252.300 535.215 L 251.455 535.926 L 250.628 536.657 L 249.819 537.409 L 249.028 538.180 L 248.257 538.971 L 247.505 539.780 L 246.774 540.607 L 246.063 541.452 L 245.372 542.315 L 244.704 543.194 L 244.057 544.089 L 243.432 544.999 L 242.830 545.925 L 242.250 546.865 L 241.694 547.820 L 241.162 548.787 L 240.653 549.767 L 240.168 550.760 L 239.709 551.764 L 239.273 552.779 L 238.863 553.805 L 238.479 554.840 L 238.119 555.884 L 237.786 556.937 L 237.478 557.998 L 237.197 559.066 L 236.941 560.140 L 236.713 561.221 L 236.511 562.307 L 236.335 563.397 L 236.186 564.492 L 236.065 565.589 L 235.970 566.690 L 235.902 567.792 L 235.862 568.896 L 235.848 570.000 L 235.862 571.104 L 235.902 572.208 L 235.970 573.310 L 236.065 574.411 L 236.186 575.508 L 236.335 576.603 L 236.511 577.693 L 236.713 578.779 L 236.941 579.860 L 237.197 580.934 L 237.478 582.002 L 237.786 583.063 L 238.119 584.116 L 238.479 585.160 L 238.863 586.195 L 239.273 587.221 L 239.709 588.236 L 240.168 589.240 L 240.653 590.233 L 241.162 591.213 L 241.694 592.180 L 242.250 593.135 L 242.830 594.075 L 243.432 595.001 L 244.057 595.911 L 244.704 596.806 L 245.372 597.685 L 246.063 598.548 L 246.774 599.393 L 247.505 600.220 L 248.257 601.029 L 249.028 601.820 L 249.819 602.591 L 250.628 603.343 L 251.455 604.074 L 252.300 604.785 L 253.163 605.476 L 254.042 606.144 L 254.937 606.791 L 255.847 607.416 L 256.773 608.018 L 257.713 608.598 L 258.668 609.154 L 259.635 609.686 L 260.615 610.195 L 261.608 610.680 L 262.612 611.139 L 263.627 611.575 L 264.653 611.985 L 265.688 612.369 L 266.732 612.729 L 267.785 613.062 L 268.846 613.370 L 269.914 613.651 L 270.988 613.907 L 272.069 614.135 L 273.155 614.337 L 274.245 614.513 L 275.340 614.662 L 276.437 614.783 L 277.538 614.878 L 278.640 614.946 L 279.744 614.986 L 280.848 615.000 L 392.344 615.000 L 392.378 615.550 L 392.473 616.651 L 392.594 617.748 L 392.743 618.843 L 392.919 619.933 L 393.121 621.019 L 393.349 622.100 L 393.605 623.174 L 393.886 624.242 L 394.194 625.303 L 394.527 626.356 L 394.887 627.400 L 395.271 628.435 L 395.681 629.461 L 396.117 630.476 L 396.576 631.480 L 397.061 632.473 L 397.570 633.453 L 398.102 634.420 L 398.658 635.375 L 399.238 636.315 L 399.840 637.241 L 400.465 638.151 L 401.112 639.046 L 401.780 639.925 L 402.471 640.788 L 403.140 641.583 L 403.139 641.587 Z" fill="black" fill-rule="evenodd"/>
</svg>
