<svg xmlns="http://www.w3.org/2000/svg" viewBox="0 0 600.000 1000">
  <path d="M 353.690 682.552 L 351.983 685.247 L 350.261 687.850 L 348.526 690.361 L 346.781 692.779 L 345.027 695.102 L 343.268 697.329 L 341.506 699.461 L 339.744 701.496 L 337.984 703.435 L 336.229 705.276 L 334.482 707.021 L 332.746 708.669 L 331.023 710.221 L 329.316 711.678 L 327.628 713.041 L 325.961 714.311 L 324.317 715.491 L 322.698 716.581 L 321.107 717.585 L 319.544 718.504 L 318.012 719.342 L 316.510 720.100 L 315.040 720.783 L 313.601 721.394 L 312.193 721.935 L 310.815 722.410 L 309.466 722.823 L 308.144 723.176 L 306.847 723.472 L 305.571 723.714 L 304.313 723.905 L 303.070 724.046 L 301.838 724.140 L 300.612 724.186 L 299.388 724.186 L 298.162 724.140 L 296.930 724.046 L 295.687 723.905 L 294.429 723.714 L 293.153 723.472 L 291.856 723.176 L 290.534 722.823 L 289.185 722.410 L 287.807 721.935 L 286.399 721.394 L 284.960 720.783 L 283.490 720.100 L 281.988 719.342 L 280.456 718.504 L 278.893 717.585 L 277.302 716.581 L 275.683 715.491 L 274.039 714.311 L 272.372 713.041 L 270.684 711.678 L 268.977 710.221 L 267.254 708.669 L 265.518 707.021 L 263.771 705.276 L 262.016 703.435 L 260.256 701.496 L 258.494 699.461 L 256.732 697.329 L 254.973 695.102 L 253.219 692.779 L 251.474 690.361 L 249.739 687.850 L 248.017 685.247 L 246.310 682.552 L 244.622 679.768 L 242.953 676.895 L 241.307 673.936 L 239.684 670.892 L 238.088 667.765 L 236.520 664.557 L 234.981 661.269 L 233.474 657.903 L 232.001 654.462 L 230.562 650.948 L 229.160 647.362 L 227.796 643.708 L 226.471 639.987 L 225.187 636.201 L 223.944 632.352 L 222.745 628.444 L 221.590 624.479 L 220.480 620.458 L 219.417 616.384 L 218.401 612.260 L 217.434 608.088 L 216.515 603.870 L 215.647 599.610 L 214.829 595.309 L 214.062 590.971 L 213.348 586.597 L 212.686 582.190 L 212.078 577.753 L 211.736 575.000 L 381.600 575.000 L 382.704 574.986 L 383.808 574.946 L 384.910 574.878 L 386.011 574.783 L 387.108 574.662 L 388.203 574.513 L 389.293 574.337 L 390.379 574.135 L 391.460 573.907 L 392.534 573.651 L 393.602 573.370 L 394.663 573.062 L 395.716 572.729 L 396.760 572.369 L 397.795 571.985 L 398.821 571.575 L 399.836 571.139 L 400.840 570.680 L 401.833 570.195 L 402.813 569.686 L 403.780 569.154 L 404.735 568.598 L 405.675 568.018 L 406.601 567.416 L 407.511 566.791 L 408.406 566.144 L 409.285 565.476 L 410.148 564.785 L 410.993 564.074 L 411.820 563.343 L 412.629 562.591 L 413.420 561.820 L 414.191 561.029 L 414.943 560.220 L 415.674 559.393 L 416.385 558.548 L 417.076 557.685 L 417.744 556.806 L 418.391 555.911 L 419.016 555.001 L 419.618 554.075 L 420.198 553.135 L 420.754 552.180 L 421.286 551.213 L 421.795 550.233 L 422.280 549.240 L 422.739 548.236 L 423.175 547.221 L 423.585 546.195 L 423.969 545.160 L 424.329 544.116 L 424.662 543.063 L 424.970 542.002 L 425.251 540.934 L 425.507 539.860 L 425.735 538.779 L 425.937 537.693 L 426.113 536.603 L 426.262 535.508 L 426.383 534.411 L 426.478 533.310 L 426.546 532.208 L 426.586 531.104 L 426.600 530.000 L 426.586 528.896 L 426.546 527.792 L 426.478 526.690 L 426.383 525.589 L 426.262 524.492 L 426.113 523.397 L 425.937 522.307 L 425.735 521.221 L 425.507 520.140 L 425.251 519.066 L 424.970 517.998 L 424.662 516.937 L 424.329 515.884 L 423.969 514.840 L 423.585 513.805 L 423.175 512.779 L 422.739 511.764 L 422.280 510.760 L 421.795 509.767 L 421.286 508.787 L 420.754 507.820 L 420.198 506.865 L 419.618 505.925 L 419.016 504.999 L 418.391 504.089 L 417.744 503.194 L 417.076 502.315 L 416.385 501.452 L 415.674 500.607 L 414.943 499.780 L 414.191 498.971 L 413.420 498.180 L 412.629 497.409 L 411.820 496.657 L 410.993 495.926 L 410.148 495.215 L 409.285 494.524 L 408.406 493.856 L 407.511 493.209 L 406.601 492.584 L 405.675 491.982 L 404.735 491.402 L 403.780 490.846 L 402.813 490.314 L 401.833 489.805 L 400.840 489.320 L 399.836 488.861 L 398.821 488.425 L 397.795 488.015 L 396.760 487.631 L 395.716 487.271 L 394.663 486.938 L 393.602 486.630 L 392.534 486.349 L 391.460 486.093 L 390.379 485.865 L 389.293 485.663 L 388.203 485.487 L 387.108 485.338 L 386.011 485.217 L 384.910 485.122 L 383.808 485.054 L 382.704 485.014 L 381.600 485.000 L 211.736 485.000 L 212.078 482.247 L 212.686 477.810 L 213.348 473.403 L 214.062 469.029 L 214.829 464.691 L 215.647 460.390 L 216.515 456.130 L 217.434 451.912 L 218.401 447.740 L 219.417 443.616 L 220.480 439.542 L 221.590 435.521 L 222.745 431.556 L 223.944 427.648 L 225.187 423.799 L 226.471 420.013 L 227.796 416.292 L 229.160 412.638 L 230.562 409.052 L 232.001 405.538 L 233.474 402.097 L 234.981 398.731 L 236.520 395.443 L 238.088 392.235 L 239.684 389.108 L 241.307 386.064 L 242.953 383.105 L 244.622 380.232 L 246.310 377.448 L 248.017 374.753 L 249.739 372.150 L 251.474 369.639 L 253.219 367.221 L 254.973 364.898 L 256.732 362.671 L 258.494 360.539 L 260.256 358.504 L 262.016 356.565 L 263.771 354.724 L 265.518 352.979 L 267.254 351.331 L 268.977 349.779 L 270.684 348.322 L 272.372 346.959 L 274.039 345.689 L 275.683 344.509 L 277.302 343.419 L 278.893 342.415 L 280.456 341.496 L 281.988 340.658 L 283.490 339.900 L 284.960 339.217 L 286.399 338.606 L 287.807 338.065 L 289.185 337.590 L 290.534 337.177 L 291.856 336.824 L 293.153 336.528 L 294.429 336.286 L 295.687 336.095 L 296.930 335.954 L 298.162 335.860 L 299.388 335.814 L 300.612 335.814 L 301.838 335.860 L 303.070 335.954 L 304.313 336.095 L 305.571 336.286 L 306.847 336.528 L 308.144 336.824 L 309.466 337.177 L 310.815 337.590 L 312.193 338.065 L 313.601 338.606 L 315.040 339.217 L 316.510 339.900 L 318.012 340.658 L 319.544 341.496 L 321.107 342.415 L 322.698 343.419 L 324.317 344.509 L 325.961 345.689 L 327.628 346.959 L 329.316 348.322 L 331.023 349.779 L 332.746 351.331 L 334.482 352.979 L 336.229 354.724 L 337.984 356.565 L 339.744 358.504 L 341.506 360.539 L 343.268 362.671 L 345.027 364.898 L 346.781 367.221 L 348.526 369.639 L 350.261 372.150 L 351.983 374.753 L 353.690 377.448 L 355.378 380.232 L 357.256 383.464 L 357.822 384.413 L 358.412 385.346 L 359.024 386.266 L 359.659 387.170 L 360.315 388.058 L 360.994 388.929 L 361.693 389.784 L 362.413 390.621 L 363.154 391.441 L 363.914 392.242 L 364.694 393.024 L 365.493 393.786 L 366.310 394.529 L 367.146 395.252 L 367.998 395.954 L 368.868 396.634 L 369.754 397.293 L 370.656 397.931 L 371.574 398.546 L 372.506 399.138 L 373.452 399.707 L 374.413 400.253 L 375.386 400.775 L 376.372 401.273 L 377.370 401.746 L 378.379 402.195 L 379.398 402.619 L 380.428 403.018 L 381.468 403.392 L 382.516 403.740 L 383.572 404.062 L 384.636 404.358 L 385.707 404.628 L 386.784 404.871 L 387.867 405.088 L 388.955 405.278 L 390.048 405.442 L 391.143 405.579 L 392.242 405.689 L 393.344 405.771 L 394.447 405.827 L 395.551 405.856 L 396.655 405.857 L 397.759 405.832 L 398.863 405.779 L 399.964 405.700 L 401.063 405.593 L 402.160 405.459 L 403.252 405.299 L 404.341 405.111 L 405.424 404.897 L 406.502 404.657 L 407.574 404.390 L 408.639 404.097 L 409.696 403.778 L 410.745 403.433 L 411.786 403.062 L 412.817 402.666 L 413.838 402.245 L 414.848 401.799 L 415.847 401.328 L 416.834 400.833 L 417.809 400.314 L 418.771 399.771 L 419.719 399.204 L 420.653 398.615 L 421.572 398.002 L 422.476 397.368 L 423.364 396.711 L 424.236 396.033 L 425.090 395.333 L 425.928 394.613 L 426.747 393.873 L 427.548 393.112 L 428.330 392.332 L 429.093 391.534 L 429.836 390.716 L 430.558 389.881 L 431.260 389.028 L 431.941 388.159 L 432.600 387.272 L 433.237 386.370 L 433.852 385.453 L 434.444 384.521 L 435.013 383.574 L 435.559 382.614 L 436.081 381.641 L 436.579 380.655 L 437.053 379.657 L 437.502 378.648 L 437.926 377.628 L 438.325 376.598 L 438.698 375.559 L 439.046 374.511 L 439.368 373.454 L 439.664 372.390 L 439.934 371.319 L 440.178 370.242 L 440.395 369.159 L 440.585 368.071 L 440.749 366.979 L 440.885 365.883 L 440.995 364.784 L 441.078 363.683 L 441.134 362.580 L 441.162 361.476 L 441.164 360.371 L 441.138 359.267 L 441.086 358.164 L 441.006 357.062 L 440.899 355.963 L 440.766 354.867 L 440.605 353.774 L 440.418 352.686 L 440.204 351.602 L 439.963 350.524 L 439.697 349.452 L 439.404 348.388 L 439.084 347.330 L 438.739 346.281 L 438.369 345.241 L 437.973 344.210 L 437.552 343.189 L 437.105 342.178 L 436.635 341.179 L 436.139 340.192 L 435.620 339.217 L 435.077 338.256 L 432.986 334.656 L 432.552 333.924 L 430.417 330.404 L 429.958 329.664 L 427.781 326.226 L 427.297 325.478 L 425.077 322.123 L 424.567 321.367 L 422.307 318.096 L 421.768 317.333 L 419.469 314.149 L 418.901 313.379 L 416.563 310.283 L 415.964 309.506 L 413.589 306.499 L 412.957 305.717 L 410.546 302.800 L 409.879 302.013 L 407.433 299.188 L 406.731 298.396 L 404.251 295.665 L 403.512 294.870 L 400.999 292.233 L 400.221 291.437 L 397.676 288.895 L 396.858 288.098 L 394.283 285.654 L 393.423 284.858 L 390.818 282.512 L 389.915 281.719 L 387.282 279.472 L 386.334 278.685 L 383.674 276.537 L 382.680 275.757 L 379.994 273.711 L 378.953 272.941 L 376.243 270.997 L 375.154 270.239 L 372.421 268.398 L 371.282 267.656 L 368.528 265.918 L 367.340 265.195 L 364.565 263.562 L 363.327 262.860 L 360.533 261.333 L 359.246 260.657 L 356.434 259.236 L 355.099 258.589 L 352.269 257.275 L 350.887 256.660 L 348.042 255.453 L 346.613 254.876 L 343.754 253.777 L 342.281 253.240 L 339.410 252.249 L 337.895 251.757 L 335.012 250.875 L 333.459 250.431 L 330.566 249.658 L 328.977 249.265 L 326.075 248.602 L 324.456 248.264 L 321.546 247.711 L 320.725 247.563 L 319.900 247.430 L 316.985 246.987 L 316.152 246.869 L 315.316 246.766 L 312.396 246.434 L 311.554 246.346 L 310.711 246.275 L 307.787 246.053 L 306.940 245.997 L 306.091 245.957 L 303.165 245.846 L 302.314 245.822 L 301.463 245.814 L 298.537 245.814 L 297.686 245.822 L 296.835 245.846 L 293.909 245.957 L 293.060 245.997 L 292.213 246.053 L 289.289 246.275 L 288.446 246.346 L 287.604 246.434 L 284.684 246.766 L 283.848 246.869 L 283.015 246.987 L 280.100 247.430 L 279.275 247.563 L 278.454 247.711 L 275.544 248.264 L 273.925 248.602 L 271.023 249.265 L 269.434 249.658 L 266.541 250.431 L 264.988 250.875 L 262.105 251.757 L 260.590 252.249 L 257.719 253.240 L 256.246 253.777 L 253.387 254.876 L 251.958 255.453 L 249.113 256.660 L 247.731 257.275 L 244.901 258.589 L 243.566 259.236 L 240.754 260.657 L 239.467 261.333 L 236.673 262.860 L 235.435 263.562 L 232.660 265.195 L 231.472 265.918 L 228.718 267.656 L 227.579 268.398 L 224.846 270.239 L 223.757 270.997 L 221.047 272.941 L 220.006 273.711 L 217.320 275.757 L 216.326 276.537 L 213.666 278.685 L 212.718 279.472 L 210.085 281.719 L 209.182 282.512 L 206.577 284.858 L 205.717 285.654 L 203.142 288.098 L 202.324 288.895 L 199.779 291.437 L 199.001 292.233 L 196.488 294.870 L 195.749 295.665 L 193.269 298.396 L 192.567 299.188 L 190.121 302.013 L 189.454 302.800 L 187.043 305.717 L 186.411 306.499 L 184.036 309.506 L 183.437 310.283 L 181.099 313.379 L 180.531 314.149 L 178.232 317.333 L 177.693 318.096 L 175.433 321.367 L 174.923 322.123 L 172.703 325.478 L 172.219 326.226 L 170.042 329.664 L 169.583 330.404 L 167.448 333.924 L 167.014 334.656 L 164.923 338.256 L 164.511 338.979 L 162.465 342.657 L 162.075 343.372 L 160.074 347.127 L 159.705 347.834 L 157.750 351.664 L 157.401 352.362 L 155.494 356.265 L 155.163 356.956 L 153.304 360.930 L 152.992 361.612 L 151.181 365.656 L 150.886 366.330 L 149.125 370.441 L 148.846 371.107 L 147.136 375.284 L 146.873 375.943 L 145.214 380.184 L 144.965 380.835 L 143.359 385.138 L 143.124 385.782 L 141.571 390.144 L 141.350 390.782 L 139.850 395.202 L 139.642 395.833 L 138.197 400.308 L 138.000 400.933 L 136.610 405.462 L 136.425 406.080 L 135.091 410.661 L 134.918 411.273 L 133.640 415.903 L 133.477 416.510 L 132.256 421.188 L 132.104 421.789 L 130.940 426.512 L 130.798 427.108 L 129.692 431.873 L 129.560 432.465 L 128.513 437.271 L 128.389 437.858 L 127.401 442.703 L 127.287 443.285 L 126.358 448.166 L 126.252 448.745 L 125.384 453.660 L 125.286 454.234 L 124.478 459.181 L 124.389 459.752 L 123.642 464.729 L 123.560 465.297 L 122.874 470.300 L 122.800 470.865 L 122.175 475.894 L 122.109 476.456 L 121.546 481.507 L 121.487 482.067 L 120.985 487.138 L 120.934 487.696 L 120.495 492.784 L 120.450 493.340 L 120.073 498.445 L 120.036 498.999 L 119.722 504.116 L 119.691 504.670 L 119.440 509.797 L 119.416 510.350 L 119.227 515.486 L 119.210 516.037 L 119.084 521.179 L 119.074 521.730 L 119.011 526.876 L 119.008 527.427 L 119.008 532.573 L 119.011 533.124 L 119.074 538.270 L 119.084 538.821 L 119.210 543.963 L 119.227 544.514 L 119.416 549.650 L 119.440 550.203 L 119.691 555.330 L 119.722 555.884 L 120.036 561.001 L 120.073 561.555 L 120.450 566.660 L 120.495 567.216 L 120.934 572.304 L 120.985 572.862 L 121.487 577.933 L 121.546 578.493 L 122.109 583.544 L 122.175 584.106 L 122.800 589.135 L 122.874 589.700 L 123.560 594.703 L 123.642 595.271 L 124.389 600.248 L 124.478 600.819 L 125.286 605.766 L 125.384 606.340 L 126.252 611.255 L 126.358 611.834 L 127.287 616.715 L 127.401 617.297 L 128.389 622.142 L 128.513 622.729 L 129.560 627.535 L 129.692 628.127 L 130.798 632.892 L 130.940 633.488 L 132.104 638.211 L 132.256 638.812 L 133.477 643.490 L 133.640 644.097 L 134.918 648.727 L 135.091 649.339 L 136.425 653.920 L 136.610 654.538 L 138.000 659.067 L 138.197 659.692 L 139.642 664.167 L 139.850 664.798 L 141.350 669.218 L 141.571 669.856 L 143.124 674.218 L 143.359 674.862 L 144.965 679.165 L 145.214 679.816 L 146.873 684.057 L 147.136 684.716 L 148.846 688.893 L 149.125 689.559 L 150.886 693.670 L 151.181 694.344 L 152.992 698.388 L 153.304 699.070 L 155.163 703.044 L 155.494 703.735 L 157.401 707.638 L 157.750 708.336 L 159.705 712.166 L 160.074 712.873 L 162.075 716.628 L 162.465 717.343 L 164.511 721.021 L 164.923 721.744 L 167.014 725.344 L 167.448 726.076 L 169.583 729.596 L 170.042 730.336 L 172.219 733.774 L 172.703 734.522 L 174.923 737.877 L 175.433 738.633 L 177.693 741.904 L 178.232 742.667 L 180.531 745.851 L 181.099 746.621 L 183.437 749.717 L 184.036 750.494 L 186.411 753.501 L 187.043 754.283 L 189.454 757.200 L 190.121 757.987 L 192.567 760.812 L 193.269 761.604 L 195.749 764.335 L 196.488 765.130 L 199.001 767.767 L 199.779 768.563 L 202.324 771.105 L 203.142 771.902 L 205.717 774.346 L 206.577 775.142 L 209.182 777.488 L 210.085 778.281 L 212.718 780.528 L 213.666 781.315 L 216.326 783.463 L 217.320 784.243 L 220.006 786.289 L 221.047 787.059 L 223.757 789.003 L 224.846 789.761 L 227.579 791.602 L 228.718 792.344 L 231.472 794.082 L 232.660 794.805 L 235.435 796.438 L 236.673 797.140 L 239.467 798.667 L 240.754 799.343 L 243.566 800.764 L 244.901 801.411 L 247.731 802.725 L 249.113 803.340 L 251.958 804.547 L 253.387 805.124 L 256.246 806.223 L 257.719 806.760 L 260.590 807.751 L 262.105 808.243 L 264.988 809.125 L 266.541 809.569 L 269.434 810.342 L 271.023 810.735 L 273.925 811.398 L 275.544 811.736 L 278.454 812.289 L 279.275 812.437 L 280.100 812.570 L 283.015 813.013 L 283.848 813.131 L 284.684 813.234 L 287.604 813.566 L 288.446 813.654 L 289.289 813.725 L 292.213 813.947 L 293.060 814.003 L 293.909 814.043 L 296.835 814.154 L 297.686 814.178 L 298.537 814.186 L 301.463 814.186 L 302.314 814.178 L 303.165 814.154 L 306.091 814.043 L 306.940 814.003 L 307.787 813.947 L 310.711 813.725 L 311.554 813.654 L 312.396 813.566 L 315.316 813.234 L 316.152 813.131 L 316.985 813.013 L 319.900 812.570 L 320.725 812.437 L 321.546 812.289 L 324.456 811.736 L 326.075 811.398 L 328.977 810.735 L 330.566 810.342 L 333.459 809.569 L 335.012 809.125 L 337.895 808.243 L 339.410 807.751 L 342.281 806.760 L 343.754 806.223 L 346.613 805.124 L 348.042 804.547 L 350.887 803.340 L 352.269 802.725 L 355.099 801.411 L 356.434 800.764 L 359.246 799.343 L 360.533 798.667 L 363.327 797.140 L 364.565 796.438 L 367.340 794.805 L 368.528 794.082 L 371.282 792.344 L 372.421 791.602 L 375.154 789.761 L 376.243 789.003 L 378.953 787.059 L 379.994 786.289 L 382.680 784.243 L 383.674 783.463 L 386.334 781.315 L 387.282 780.528 L 389.915 778.281 L 390.818 777.488 L 393.423 775.142 L 394.283 774.346 L 396.858 771.902 L 397.676 771.105 L 400.221 768.563 L 400.999 767.767 L 403.512 765.130 L 404.251 764.335 L 406.731 761.604 L 407.433 760.812 L 409.879 757.987 L 410.546 757.200 L 412.957 754.283 L 413.589 753.501 L 415.964 750.494 L 416.563 749.717 L 418.901 746.621 L 419.469 745.851 L 421.768 742.667 L 422.307 741.904 L 424.567 738.633 L 425.077 737.877 L 427.297 734.522 L 427.781 733.774 L 429.958 730.336 L 430.417 729.596 L 432.552 726.076 L 432.986 725.344 L 435.077 721.744 L 435.620 720.783 L 436.139 719.808 L 436.635 718.821 L 437.105 717.822 L 437.552 716.811 L 437.973 715.790 L 438.369 714.759 L 438.739 713.719 L 439.084 712.670 L 439.404 711.612 L 439.697 710.548 L 439.963 709.476 L 440.204 708.398 L 440.418 707.314 L 440.605 706.226 L 440.766 705.133 L 440.899 704.037 L 441.006 702.938 L 441.086 701.836 L 441.138 700.733 L 441.164 699.629 L 441.162 698.524 L 441.134 697.420 L 441.078 696.317 L 440.995 695.216 L 440.885 694.117 L 440.749 693.021 L 440.585 691.929 L 440.395 690.841 L 440.178 689.758 L 439.934 688.681 L 439.664 687.610 L 439.368 686.546 L 439.046 685.489 L 438.698 684.441 L 438.325 683.402 L 437.926 682.372 L 437.502 681.352 L 437.053 680.343 L 436.579 679.345 L 436.081 678.359 L 435.559 677.386 L 435.013 676.426 L 434.444 675.479 L 433.852 674.547 L 433.237 673.630 L 432.600 672.728 L 431.941 671.841 L 431.260 670.972 L 430.558 670.119 L 429.836 669.284 L 429.093 668.466 L 428.330 667.668 L 427.548 666.888 L 426.747 666.127 L 425.928 665.387 L 425.090 664.667 L 424.236 663.967 L 423.364 663.289 L 422.476 662.632 L 421.572 661.998 L 420.653 661.385 L 419.719 660.796 L 418.771 660.229 L 417.809 659.686 L 416.834 659.167 L 415.847 658.672 L 414.848 658.201 L 413.838 657.755 L 412.817 657.334 L 411.786 656.938 L 410.745 656.567 L 409.696 656.222 L 408.639 655.903 L 407.574 655.610 L 406.502 655.343 L 405.424 655.103 L 404.341 654.889 L 403.252 654.701 L 402.160 654.541 L 401.063 654.407 L 399.964 654.300 L 398.863 654.221 L 397.759 654.168 L 396.655 654.143 L 395.551 654.144 L 394.447 654.173 L 393.344 654.229 L 392.242 654.311 L 391.143 654.421 L 390.048 654.558 L 388.955 654.722 L 387.867 654.912 L 386.784 655.129 L 385.707 655.372 L 384.636 655.642 L 383.572 655.938 L 382.516 656.260 L 381.468 656.608 L 380.428 656.982 L 379.398 657.381 L 378.379 657.805 L 377.370 658.254 L 376.372 658.727 L 375.386 659.225 L 374.413 659.747 L 373.452 660.293 L 372.506 660.862 L 371.574 661.454 L 370.656 662.069 L 369.754 662.707 L 368.868 663.366 L 367.998 664.046 L 367.146 664.748 L 366.310 665.471 L 365.493 666.214 L 364.694 666.976 L 363.914 667.758 L 363.154 668.559 L 362.413 669.379 L 361.693 670.216 L 360.994 671.071 L 360.315 671.942 L 359.659 672.830 L 359.024 673.734 L 358.412 674.654 L 357.822 675.587 L 357.256 676.536 L 355.378 679.768 L 353.690 682.552 Z" fill="black" fill-rule="evenodd"/>
</svg>
