<svg xmlns="http://www.w3.org/2000/svg" viewBox="0 0 600.000 1000">
  <path d="M 479.999 304.700 L 479.991 304.298 L 479.986 303.896 L 479.981 303.746 L 479.978 303.596 L 479.961 303.194 L 479.946 302.792 L 479.937 302.642 L 479.930 302.493 L 479.903 302.091 L 479.878 301.690 L 479.865 301.540 L 479.855 301.391 L 479.818 300.990 L 479.783 300.589 L 479.767 300.440 L 479.753 300.291 L 479.706 299.892 L 479.662 299.492 L 479.641 299.343 L 479.624 299.194 L 479.567 298.796 L 479.513 298.397 L 479.489 298.249 L 479.468 298.101 L 479.401 297.704 L 479.337 297.307 L 479.310 297.159 L 479.285 297.012 L 479.209 296.617 L 479.135 296.221 L 479.104 296.074 L 479.076 295.927 L 478.990 295.534 L 478.907 295.140 L 478.872 294.995 L 478.840 294.848 L 478.744 294.457 L 478.651 294.066 L 478.613 293.921 L 478.578 293.776 L 478.472 293.387 L 478.370 292.998 L 478.328 292.854 L 478.289 292.709 L 478.174 292.324 L 478.062 291.937 L 478.017 291.794 L 477.974 291.651 L 477.850 291.268 L 477.729 290.884 L 477.680 290.743 L 477.634 290.600 L 477.500 290.221 L 477.369 289.840 L 477.317 289.700 L 477.268 289.558 L 477.125 289.182 L 476.985 288.805 L 476.929 288.666 L 476.876 288.526 L 476.724 288.153 L 476.575 287.779 L 476.516 287.642 L 476.459 287.503 L 476.298 287.134 L 476.139 286.764 L 476.077 286.628 L 476.017 286.491 L 475.847 286.126 L 475.680 285.760 L 475.614 285.625 L 475.551 285.490 L 475.372 285.129 L 475.195 284.767 L 475.126 284.635 L 475.060 284.500 L 474.872 284.144 L 474.686 283.787 L 474.614 283.656 L 474.544 283.523 L 474.348 283.172 L 474.154 282.820 L 474.078 282.690 L 474.005 282.559 L 473.800 282.213 L 473.598 281.865 L 473.519 281.738 L 473.443 281.609 L 473.230 281.268 L 473.018 280.925 L 472.937 280.800 L 472.857 280.673 L 472.636 280.337 L 472.416 279.999 L 472.331 279.876 L 472.249 279.751 L 472.019 279.420 L 471.791 279.089 L 471.704 278.967 L 471.618 278.844 L 471.380 278.520 L 471.144 278.194 L 471.054 278.074 L 470.965 277.954 L 470.719 277.635 L 470.476 277.315 L 470.382 277.198 L 470.290 277.079 L 470.037 276.767 L 469.785 276.452 L 469.689 276.338 L 469.595 276.221 L 469.334 275.915 L 469.074 275.607 L 468.975 275.495 L 468.878 275.381 L 468.609 275.081 L 468.343 274.780 L 468.241 274.670 L 468.141 274.559 L 467.865 274.266 L 467.591 273.971 L 467.487 273.863 L 467.384 273.754 L 467.101 273.468 L 466.820 273.180 L 466.713 273.076 L 466.607 272.969 L 466.317 272.690 L 466.029 272.409 L 465.920 272.307 L 465.812 272.203 L 465.515 271.931 L 465.220 271.657 L 465.108 271.558 L 464.998 271.457 L 464.694 271.192 L 464.393 270.926 L 464.278 270.829 L 464.165 270.731 L 463.856 270.474 L 463.548 270.215 L 463.431 270.121 L 463.315 270.025 L 463.000 269.776 L 462.685 269.524 L 462.566 269.434 L 462.449 269.341 L 462.127 269.099 L 461.806 268.856 L 461.685 268.768 L 461.565 268.678 L 461.238 268.444 L 460.911 268.209 L 460.788 268.124 L 460.666 268.037 L 460.333 267.812 L 460.001 267.584 L 459.875 267.502 L 459.751 267.418 L 459.412 267.201 L 459.075 266.982 L 458.947 266.903 L 458.821 266.822 L 458.477 266.613 L 458.135 266.402 L 458.005 266.327 L 457.877 266.249 L 457.528 266.049 L 457.180 265.846 L 457.049 265.774 L 456.919 265.699 L 456.565 265.508 L 456.213 265.314 L 456.080 265.245 L 455.948 265.173 L 455.590 264.990 L 455.233 264.805 L 455.098 264.739 L 454.964 264.671 L 454.602 264.497 L 454.240 264.320 L 454.104 264.258 L 453.969 264.193 L 453.602 264.028 L 453.236 263.861 L 453.098 263.802 L 452.962 263.740 L 452.591 263.584 L 452.221 263.425 L 452.082 263.370 L 451.944 263.312 L 451.569 263.165 L 451.195 263.015 L 451.055 262.963 L 450.915 262.908 L 450.537 262.771 L 450.160 262.631 L 450.018 262.582 L 449.878 262.531 L 449.496 262.402 L 449.116 262.271 L 448.973 262.226 L 448.831 262.178 L 448.446 262.059 L 448.063 261.938 L 447.919 261.896 L 447.776 261.852 L 447.389 261.742 L 447.002 261.630 L 446.857 261.592 L 446.713 261.551 L 446.323 261.451 L 445.934 261.349 L 445.788 261.314 L 445.643 261.277 L 445.251 261.186 L 444.860 261.093 L 444.713 261.062 L 444.567 261.029 L 444.173 260.948 L 443.779 260.865 L 443.632 260.837 L 443.485 260.807 L 443.089 260.736 L 442.693 260.663 L 442.545 260.639 L 442.398 260.612 L 210.000 221.879 L 210.000 40.000 L 209.986 38.896 L 209.946 37.792 L 209.878 36.690 L 209.783 35.589 L 209.662 34.492 L 209.513 33.397 L 209.337 32.307 L 209.135 31.221 L 208.907 30.140 L 208.651 29.066 L 208.370 27.998 L 208.062 26.937 L 207.729 25.884 L 207.369 24.840 L 206.985 23.805 L 206.575 22.779 L 206.139 21.764 L 205.680 20.760 L 205.195 19.767 L 204.686 18.787 L 204.154 17.820 L 203.598 16.865 L 203.018 15.925 L 202.416 14.999 L 201.791 14.089 L 201.144 13.194 L 200.476 12.315 L 199.785 11.452 L 199.074 10.607 L 198.343 9.780 L 197.591 8.971 L 196.820 8.180 L 196.029 7.409 L 195.220 6.657 L 194.393 5.926 L 193.548 5.215 L 192.685 4.524 L 191.806 3.856 L 190.911 3.209 L 190.001 2.584 L 189.075 1.982 L 188.135 1.402 L 187.180 0.846 L 186.213 0.314 L 185.233 -0.195 L 184.240 -0.680 L 183.236 -1.139 L 182.221 -1.575 L 181.195 -1.985 L 180.160 -2.369 L 179.116 -2.729 L 178.063 -3.062 L 177.002 -3.370 L 175.934 -3.651 L 174.860 -3.907 L 173.779 -4.135 L 172.693 -4.337 L 171.603 -4.513 L 170.508 -4.662 L 169.411 -4.783 L 168.310 -4.878 L 167.208 -4.946 L 166.104 -4.986 L 165.000 -5.000 L 163.896 -4.986 L 162.792 -4.946 L 161.690 -4.878 L 160.589 -4.783 L 159.492 -4.662 L 158.397 -4.513 L 157.307 -4.337 L 156.221 -4.135 L 155.140 -3.907 L 154.066 -3.651 L 152.998 -3.370 L 151.937 -3.062 L 150.884 -2.729 L 149.840 -2.369 L 148.805 -1.985 L 147.779 -1.575 L 146.764 -1.139 L 145.760 -0.680 L 144.767 -0.195 L 143.787 0.314 L 142.820 0.846 L 141.865 1.402 L 140.925 1.982 L 139.999 2.584 L 139.089 3.209 L 138.194 3.856 L 137.315 4.524 L 136.452 5.215 L 135.607 5.926 L 134.780 6.657 L 133.971 7.409 L 133.180 8.180 L 132.409 8.971 L 131.657 9.780 L 130.926 10.607 L 130.215 11.452 L 129.524 12.315 L 128.856 13.194 L 128.209 14.089 L 127.584 14.999 L 126.982 15.925 L 126.402 16.865 L 125.846 17.820 L 125.314 18.787 L 124.805 19.767 L 124.320 20.760 L 123.861 21.764 L 123.425 22.779 L 123.015 23.805 L 122.631 24.840 L 122.271 25.884 L 121.938 26.937 L 121.630 27.998 L 121.349 29.066 L 121.093 30.140 L 120.865 31.221 L 120.663 32.307 L 120.487 33.397 L 120.338 34.492 L 120.217 35.589 L 120.122 36.690 L 120.054 37.792 L 120.014 38.896 L 120.000 40.000 L 120.000 780.000 L 120.014 781.104 L 120.054 782.208 L 120.122 783.310 L 120.217 784.411 L 120.338 785.508 L 120.487 786.603 L 120.663 787.693 L 120.865 788.779 L 121.093 789.860 L 121.349 790.934 L 121.630 792.002 L 121.938 793.063 L 122.271 794.116 L 122.631 795.160 L 123.015 796.195 L 123.425 797.221 L 123.861 798.236 L 124.320 799.240 L 124.805 800.233 L 125.314 801.213 L 125.846 802.180 L 126.402 803.135 L 126.982 804.075 L 127.584 805.001 L 128.209 805.911 L 128.856 806.806 L 129.524 807.685 L 130.215 808.548 L 130.926 809.393 L 131.657 810.220 L 132.409 811.029 L 133.180 811.820 L 133.971 812.591 L 134.780 813.343 L 135.607 814.074 L 136.452 814.785 L 137.315 815.476 L 138.194 816.144 L 139.089 816.791 L 139.999 817.416 L 140.925 818.018 L 141.865 818.598 L 142.820 819.154 L 143.787 819.686 L 144.767 820.195 L 145.760 820.680 L 146.764 821.139 L 147.779 821.575 L 148.805 821.985 L 149.840 822.369 L 150.884 822.729 L 151.937 823.062 L 152.998 823.370 L 154.066 823.651 L 155.140 823.907 L 156.221 824.135 L 157.307 824.337 L 158.397 824.513 L 159.492 824.662 L 160.589 824.783 L 161.690 824.878 L 162.792 824.946 L 163.896 824.986 L 165.000 825.000 L 166.104 824.986 L 167.208 824.946 L 168.310 824.878 L 169.411 824.783 L 170.508 824.662 L 171.603 824.513 L 172.693 824.337 L 173.779 824.135 L 174.860 823.907 L 175.934 823.651 L 177.002 823.370 L 178.063 823.062 L 179.116 822.729 L 180.160 822.369 L 181.195 821.985 L 182.221 821.575 L 183.236 821.139 L 184.240 820.680 L 185.233 820.195 L 186.213 819.686 L 187.180 819.154 L 188.135 818.598 L 189.075 818.018 L 190.001 817.416 L 190.911 816.791 L 191.806 816.144 L 192.685 815.476 L 193.548 814.785 L 194.393 814.074 L 195.220 813.343 L 196.029 812.591 L 196.820 811.820 L 197.591 811.029 L 198.343 810.220 L 199.074 809.393 L 199.785 808.548 L 200.476 807.685 L 201.144 806.806 L 201.791 805.911 L 202.416 805.001 L 203.018 804.075 L 203.598 803.135 L 204.154 802.180 L 204.686 801.213 L 205.195 800.233 L 205.680 799.240 L 206.139 798.236 L 206.575 797.221 L 206.985 796.195 L 207.369 795.160 L 207.729 794.116 L 208.062 793.063 L 208.370 792.002 L 208.651 790.934 L 208.907 789.860 L 209.135 788.779 L 209.337 787.693 L 209.513 786.603 L 209.662 785.508 L 209.783 784.411 L 209.878 783.310 L 209.946 782.208 L 209.986 781.104 L 210.000 780.000 L 210.000 313.121 L 390.000 343.121 L 390.000 780.000 L 390.014 781.104 L 390.054 782.208 L 390.122 783.310 L 390.217 784.411 L 390.338 785.508 L 390.487 786.603 L 390.663 787.693 L 390.865 788.779 L 391.093 789.860 L 391.349 790.934 L 391.630 792.002 L 391.938 793.063 L 392.271 794.116 L 392.631 795.160 L 393.015 796.195 L 393.425 797.221 L 393.861 798.236 L 394.320 799.240 L 394.805 800.233 L 395.314 801.213 L 395.846 802.180 L 396.402 803.135 L 396.982 804.075 L 397.584 805.001 L 398.209 805.911 L 398.856 806.806 L 399.524 807.685 L 400.215 808.548 L 400.926 809.393 L 401.657 810.220 L 402.409 811.029 L 403.180 811.820 L 403.971 812.591 L 404.780 813.343 L 405.607 814.074 L 406.452 814.785 L 407.315 815.476 L 408.194 816.144 L 409.089 816.791 L 409.999 817.416 L 410.925 818.018 L 411.865 818.598 L 412.820 819.154 L 413.787 819.686 L 414.767 820.195 L 415.760 820.680 L 416.764 821.139 L 417.779 821.575 L 418.805 821.985 L 419.840 822.369 L 420.884 822.729 L 421.937 823.062 L 422.998 823.370 L 424.066 823.651 L 425.140 823.907 L 426.221 824.135 L 427.307 824.337 L 428.397 824.513 L 429.492 824.662 L 430.589 824.783 L 431.690 824.878 L 432.792 824.946 L 433.896 824.986 L 435.000 825.000 L 436.104 824.986 L 437.208 824.946 L 438.310 824.878 L 439.411 824.783 L 440.508 824.662 L 441.603 824.513 L 442.693 824.337 L 443.779 824.135 L 444.860 823.907 L 445.934 823.651 L 447.002 823.370 L 448.063 823.062 L 449.116 822.729 L 450.160 822.369 L 451.195 821.985 L 452.221 821.575 L 453.236 821.139 L 454.240 820.680 L 455.233 820.195 L 456.213 819.686 L 457.180 819.154 L 458.135 818.598 L 459.075 818.018 L 460.001 817.416 L 460.911 816.791 L 461.806 816.144 L 462.685 815.476 L 463.548 814.785 L 464.393 814.074 L 465.220 813.343 L 466.029 812.591 L 466.820 811.820 L 467.591 811.029 L 468.343 810.220 L 469.074 809.393 L 469.785 808.548 L 470.476 807.685 L 471.144 806.806 L 471.791 805.911 L 472.416 805.001 L 473.018 804.075 L 473.598 803.135 L 474.154 802.180 L 474.686 801.213 L 475.195 800.233 L 475.680 799.240 L 476.139 798.236 L 476.575 797.221 L 476.985 796.195 L 477.369 795.160 L 477.729 794.116 L 478.062 793.063 L 478.370 792.002 L 478.651 790.934 L 478.907 789.860 L 479.135 788.779 L 479.337 787.693 L 479.513 786.603 L 479.662 785.508 L 479.783 784.411 L 479.878 783.310 L 479.946 782.208 L 479.986 781.104 L 480.000 780.000 L 480.000 305.000 L 479.998 304.850 L 479.999 304.700 Z" fill="black" fill-rule="evenodd"/>
</svg>
