<svg xmlns="http://www.w3.org/2000/svg" viewBox="0 0 600.000 1000.000">
  <path d="M 547.211,744.159 L 548.937,745.538 L 550.593,746.999 L 552.175,748.540 L 553.680,750.156 L 555.104,751.845 L 556.443,753.601 L 557.695,755.421 L 558.855,757.301 L 559.922,759.234 L 560.893,761.218 L 561.765,763.248 L 562.537,765.317 L 563.206,767.422 L 563.772,769.557 L 564.231,771.717 L 564.584,773.898 L 564.830,776.093 L 564.968,778.297 L 564.997,780.506 L 564.918,782.713 L 564.731,784.914 L 564.436,787.103 L 564.034,789.274 L 563.526,791.424 L 562.913,793.546 L 562.196,795.635 L 561.378,797.687 L 560.461,799.696 L 559.446,801.657 L 558.335,803.567 L 557.133,805.420 L 555.841,807.211 L 554.462,808.937 L 553.001,810.593 L 551.460,812.175 L 549.844,813.680 L 548.155,815.104 L 546.399,816.443 L 544.579,817.695 L 542.699,818.855 L 540.766,819.922 L 538.782,820.893 L 536.752,821.765 L 534.683,822.537 L 532.578,823.206 L 530.443,823.772 L 528.283,824.231 L 526.102,824.584 L 523.907,824.830 L 521.703,824.968 L 519.494,824.997 L 517.287,824.918 L 515.086,824.731 L 512.897,824.436 L 510.726,824.034 L 508.576,823.526 L 506.454,822.913 L 504.365,822.196 L 502.313,821.378 L 500.304,820.461 L 498.343,819.446 L 496.433,818.335 L 494.580,817.133 L 170.000,594.939 L 170.000,780.000 L 169.946,782.208 L 169.783,784.411 L 169.513,786.603 L 169.135,788.779 L 168.651,790.934 L 168.062,793.063 L 167.369,795.160 L 166.575,797.221 L 165.680,799.240 L 164.686,801.213 L 163.598,803.135 L 162.416,805.001 L 161.144,806.806 L 159.785,808.548 L 158.343,810.220 L 156.820,811.820 L 155.220,813.343 L 153.548,814.785 L 151.806,816.144 L 150.001,817.416 L 148.135,818.598 L 146.213,819.686 L 144.240,820.680 L 142.221,821.575 L 140.160,822.369 L 138.063,823.062 L 135.934,823.651 L 133.779,824.135 L 131.603,824.513 L 129.411,824.783 L 127.208,824.946 L 125.000,825.000 L 122.792,824.946 L 120.589,824.783 L 118.397,824.513 L 116.221,824.135 L 114.066,823.651 L 111.937,823.062 L 109.840,822.369 L 107.779,821.575 L 105.760,820.680 L 103.787,819.686 L 101.865,818.598 L 99.999,817.416 L 98.194,816.144 L 96.452,814.785 L 94.780,813.343 L 93.180,811.820 L 91.657,810.220 L 90.215,808.548 L 88.856,806.806 L 87.584,805.001 L 86.402,803.135 L 85.314,801.213 L 84.320,799.240 L 83.425,797.221 L 82.631,795.160 L 81.938,793.063 L 81.349,790.934 L 80.865,788.779 L 80.487,786.603 L 80.217,784.411 L 80.054,782.208 L 80.000,780.000 L 80.000,0.000 L 80.054,-2.208 L 80.217,-4.411 L 80.487,-6.603 L 80.865,-8.779 L 81.349,-10.934 L 81.938,-13.063 L 82.631,-15.160 L 83.425,-17.221 L 84.320,-19.240 L 85.314,-21.213 L 86.402,-23.135 L 87.584,-25.001 L 88.856,-26.806 L 90.215,-28.548 L 91.657,-30.220 L 93.180,-31.820 L 94.780,-33.343 L 96.452,-34.785 L 98.194,-36.144 L 99.999,-37.416 L 101.865,-38.598 L 103.787,-39.686 L 105.760,-40.680 L 107.779,-41.575 L 109.840,-42.369 L 111.937,-43.062 L 114.066,-43.651 L 116.221,-44.135 L 118.397,-44.513 L 120.589,-44.783 L 122.792,-44.946 L 125.000,-45.000 L 127.208,-44.946 L 129.411,-44.783 L 131.603,-44.513 L 133.779,-44.135 L 135.934,-43.651 L 138.063,-43.062 L 140.160,-42.369 L 142.221,-41.575 L 144.240,-40.680 L 146.213,-39.686 L 148.135,-38.598 L 150.001,-37.416 L 151.806,-36.144 L 153.548,-34.785 L 155.220,-33.343 L 156.820,-31.820 L 158.343,-30.220 L 159.785,-28.548 L 161.144,-26.806 L 162.416,-25.001 L 163.598,-23.135 L 164.686,-21.213 L 165.680,-19.240 L 166.575,-17.221 L 167.369,-15.160 L 168.062,-13.063 L 168.651,-10.934 L 169.135,-8.779 L 169.513,-6.603 L 169.783,-4.411 L 169.946,-2.208 L 170.000,0.000 L 170.000,427.933 L 495.962,221.958 L 497.857,220.825 L 499.806,219.785 L 501.804,218.843 L 503.845,218.000 L 505.925,217.258 L 508.040,216.619 L 510.183,216.084 L 512.349,215.655 L 514.534,215.333 L 516.733,215.119 L 518.939,215.013 L 521.148,215.015 L 523.353,215.125 L 525.551,215.344 L 527.736,215.670 L 529.902,216.103 L 532.044,216.642 L 534.157,217.285 L 536.236,218.031 L 538.275,218.878 L 540.271,219.824 L 542.218,220.867 L 544.111,222.005 L 545.947,223.234 L 547.719,224.551 L 549.425,225.954 L 551.061,227.439 L 552.621,229.002 L 554.103,230.640 L 555.502,232.349 L 556.816,234.124 L 558.042,235.962 L 559.175,237.857 L 560.215,239.806 L 561.157,241.804 L 562.000,243.845 L 562.742,245.925 L 563.381,248.040 L 563.916,250.183 L 564.345,252.349 L 564.667,254.534 L 564.881,256.733 L 564.987,258.939 L 564.985,261.148 L 564.875,263.353 L 564.656,265.551 L 564.330,267.736 L 563.897,269.902 L 563.358,272.044 L 562.715,274.157 L 561.969,276.236 L 561.122,278.275 L 560.176,280.271 L 559.133,282.218 L 557.995,284.111 L 556.766,285.947 L 555.449,287.719 L 554.046,289.425 L 552.561,291.061 L 550.998,292.621 L 549.360,294.103 L 547.651,295.502 L 545.876,296.816 L 544.038,298.042 L 206.860,511.104 L 545.420,742.867 L 547.211,744.159 Z" fill="black" fill-rule="evenodd"/>
</svg>
