<svg xmlns="http://www.w3.org/2000/svg" viewBox="0 0 600.000 1000">
  <path d="M 484.998 479.586 L 484.953 474.678 L 484.938 473.849 L 484.802 468.944 L 484.772 468.115 L 484.546 463.216 L 484.500 462.387 L 484.184 457.496 L 484.123 456.667 L 483.717 451.788 L 483.640 450.958 L 483.145 446.094 L 483.052 445.263 L 482.468 440.416 L 482.359 439.584 L 481.685 434.759 L 481.561 433.925 L 480.799 429.123 L 480.658 428.289 L 479.807 423.513 L 479.650 422.677 L 478.712 417.931 L 478.538 417.094 L 477.513 412.379 L 477.322 411.541 L 476.210 406.861 L 476.002 406.021 L 474.805 401.379 L 474.579 400.538 L 473.296 395.937 L 473.052 395.093 L 471.685 390.535 L 471.422 389.690 L 469.972 385.179 L 469.690 384.332 L 468.157 379.869 L 467.856 379.020 L 466.241 374.609 L 465.920 373.759 L 464.225 369.402 L 463.884 368.550 L 462.108 364.250 L 461.746 363.397 L 459.892 359.156 L 459.508 358.302 L 457.577 354.123 L 457.171 353.267 L 455.163 349.153 L 454.734 348.297 L 452.651 344.249 L 452.199 343.392 L 450.042 339.414 L 449.565 338.557 L 447.336 334.651 L 446.835 333.794 L 444.534 329.962 L 444.007 329.106 L 441.637 325.350 L 441.084 324.495 L 438.645 320.817 L 438.065 319.964 L 435.559 316.368 L 434.952 315.516 L 432.381 312.003 L 431.744 311.155 L 429.109 307.727 L 428.444 306.882 L 425.747 303.542 L 425.052 302.702 L 422.294 299.450 L 421.568 298.616 L 418.751 295.455 L 417.995 294.628 L 415.121 291.560 L 414.332 290.740 L 411.402 287.768 L 410.582 286.957 L 407.598 284.081 L 406.745 283.280 L 403.709 280.503 L 402.822 279.713 L 399.736 277.036 L 398.816 276.259 L 395.682 273.684 L 394.728 272.922 L 391.547 270.450 L 390.558 269.703 L 387.333 267.337 L 386.311 266.608 L 383.043 264.347 L 381.986 263.638 L 378.678 261.485 L 377.587 260.798 L 374.240 258.754 L 373.116 258.089 L 369.732 256.155 L 368.575 255.516 L 365.157 253.694 L 363.967 253.082 L 360.516 251.371 L 359.295 250.789 L 355.814 249.192 L 354.562 248.641 L 351.053 247.158 L 349.771 246.640 L 346.236 245.273 L 344.927 244.790 L 341.367 243.539 L 340.031 243.093 L 336.450 241.959 L 335.090 241.552 L 331.488 240.535 L 330.106 240.169 L 326.486 239.270 L 325.084 238.946 L 321.449 238.166 L 320.028 237.885 L 316.380 237.224 L 314.944 236.988 L 311.285 236.447 L 309.836 236.257 L 306.168 235.836 L 304.709 235.692 L 301.034 235.391 L 299.567 235.295 L 295.888 235.114 L 294.417 235.066 L 290.736 235.006 L 289.264 235.006 L 285.583 235.066 L 284.112 235.114 L 280.433 235.295 L 278.966 235.391 L 275.291 235.692 L 273.832 235.836 L 270.164 236.257 L 268.715 236.447 L 265.056 236.988 L 263.620 237.224 L 259.972 237.885 L 258.551 238.166 L 254.916 238.946 L 253.514 239.270 L 249.894 240.169 L 248.512 240.535 L 244.910 241.552 L 243.550 241.959 L 239.969 243.093 L 238.633 243.539 L 235.073 244.790 L 233.764 245.273 L 230.229 246.640 L 228.947 247.158 L 225.438 248.641 L 224.186 249.192 L 220.705 250.789 L 219.484 251.371 L 216.033 253.082 L 214.843 253.694 L 211.425 255.516 L 210.268 256.155 L 206.884 258.089 L 205.760 258.754 L 202.413 260.798 L 201.322 261.485 L 198.014 263.638 L 196.957 264.347 L 193.689 266.608 L 192.667 267.337 L 189.442 269.703 L 188.453 270.450 L 185.272 272.922 L 184.318 273.684 L 181.184 276.259 L 180.264 277.036 L 177.178 279.713 L 176.291 280.503 L 173.255 283.280 L 172.402 284.081 L 169.418 286.957 L 168.598 287.768 L 165.668 290.740 L 164.879 291.560 L 162.005 294.628 L 161.249 295.455 L 158.432 298.616 L 157.706 299.450 L 154.948 302.702 L 154.253 303.542 L 151.556 306.882 L 150.891 307.727 L 148.256 311.155 L 147.619 312.003 L 145.048 315.516 L 144.441 316.368 L 141.935 319.964 L 141.355 320.817 L 138.916 324.495 L 138.363 325.350 L 135.993 329.106 L 135.466 329.962 L 133.165 333.794 L 132.664 334.651 L 130.435 338.557 L 129.958 339.414 L 127.801 343.392 L 127.349 344.249 L 125.266 348.297 L 124.837 349.153 L 122.829 353.267 L 122.423 354.123 L 120.492 358.302 L 120.108 359.156 L 118.254 363.397 L 117.892 364.250 L 116.116 368.550 L 115.775 369.402 L 114.080 373.759 L 113.759 374.609 L 112.144 379.020 L 111.843 379.869 L 110.310 384.332 L 110.028 385.179 L 108.578 389.690 L 108.315 390.535 L 106.948 395.093 L 106.704 395.937 L 105.421 400.538 L 105.195 401.379 L 103.998 406.021 L 103.790 406.861 L 102.678 411.541 L 102.487 412.379 L 101.462 417.094 L 101.288 417.931 L 100.350 422.677 L 100.193 423.513 L 99.342 428.289 L 99.201 429.123 L 98.439 433.925 L 98.315 434.759 L 97.641 439.584 L 97.532 440.416 L 96.948 445.263 L 96.855 446.094 L 96.360 450.958 L 96.283 451.788 L 95.877 456.667 L 95.816 457.496 L 95.500 462.387 L 95.454 463.216 L 95.228 468.115 L 95.198 468.944 L 95.062 473.849 L 95.047 474.678 L 95.002 479.586 L 95.002 480.414 L 95.047 485.322 L 95.062 486.151 L 95.198 491.056 L 95.228 491.885 L 95.454 496.784 L 95.500 497.613 L 95.816 502.504 L 95.877 503.333 L 96.283 508.212 L 96.360 509.042 L 96.855 513.906 L 96.948 514.737 L 97.532 519.584 L 97.641 520.416 L 98.315 525.241 L 98.439 526.075 L 99.201 530.877 L 99.342 531.711 L 100.193 536.487 L 100.350 537.323 L 101.288 542.069 L 101.462 542.906 L 102.487 547.621 L 102.678 548.459 L 103.790 553.139 L 103.998 553.979 L 105.195 558.621 L 105.421 559.462 L 106.704 564.063 L 106.948 564.907 L 108.315 569.465 L 108.578 570.310 L 110.028 574.821 L 110.310 575.668 L 111.843 580.131 L 112.144 580.980 L 113.759 585.391 L 114.080 586.241 L 115.775 590.598 L 116.116 591.450 L 117.892 595.750 L 118.254 596.603 L 120.108 600.844 L 120.492 601.698 L 122.423 605.877 L 122.829 606.733 L 124.837 610.847 L 125.266 611.703 L 127.349 615.751 L 127.801 616.608 L 129.958 620.586 L 130.435 621.443 L 132.664 625.349 L 133.165 626.206 L 135.466 630.038 L 135.993 630.894 L 138.363 634.650 L 138.916 635.505 L 141.355 639.183 L 141.935 640.036 L 144.441 643.632 L 145.048 644.484 L 147.619 647.997 L 148.256 648.845 L 150.891 652.273 L 151.556 653.118 L 154.253 656.458 L 154.948 657.298 L 157.706 660.550 L 158.432 661.384 L 161.249 664.545 L 162.005 665.372 L 164.879 668.440 L 165.668 669.260 L 168.598 672.232 L 169.418 673.043 L 172.402 675.919 L 173.255 676.720 L 176.291 679.497 L 177.178 680.287 L 180.264 682.964 L 181.184 683.741 L 184.318 686.316 L 185.272 687.078 L 188.453 689.550 L 189.442 690.297 L 192.667 692.663 L 193.689 693.392 L 196.957 695.653 L 198.014 696.362 L 201.322 698.515 L 202.413 699.202 L 205.760 701.246 L 206.884 701.911 L 210.268 703.845 L 211.425 704.484 L 214.843 706.306 L 216.033 706.918 L 219.484 708.629 L 220.705 709.211 L 224.186 710.808 L 225.438 711.359 L 228.947 712.842 L 230.229 713.360 L 233.764 714.727 L 235.073 715.210 L 238.633 716.461 L 239.969 716.907 L 243.550 718.041 L 244.910 718.448 L 248.512 719.465 L 249.894 719.831 L 253.514 720.730 L 254.916 721.054 L 258.551 721.834 L 259.972 722.115 L 263.620 722.776 L 265.056 723.012 L 268.715 723.553 L 270.164 723.743 L 273.832 724.164 L 275.291 724.308 L 278.966 724.609 L 280.433 724.705 L 284.112 724.886 L 285.583 724.934 L 289.264 724.994 L 290.736 724.994 L 294.417 724.934 L 295.888 724.886 L 299.567 724.705 L 300.785 724.625 L 290.069 917.504 L 290.022 918.607 L 290.001 919.712 L 290.007 920.816 L 290.041 921.920 L 290.102 923.023 L 290.189 924.124 L 290.304 925.222 L 290.446 926.317 L 290.614 927.409 L 290.809 928.496 L 291.031 929.578 L 291.279 930.654 L 291.554 931.724 L 291.855 932.786 L 292.182 933.841 L 292.534 934.888 L 292.912 935.926 L 293.316 936.954 L 293.744 937.972 L 294.198 938.979 L 294.676 939.974 L 295.178 940.958 L 295.705 941.929 L 296.255 942.887 L 296.828 943.831 L 297.424 944.760 L 298.043 945.675 L 298.685 946.574 L 299.348 947.457 L 300.032 948.324 L 300.738 949.174 L 301.464 950.006 L 302.211 950.820 L 302.977 951.615 L 303.762 952.392 L 304.567 953.148 L 305.389 953.885 L 306.230 954.602 L 307.088 955.297 L 307.962 955.972 L 308.853 956.624 L 309.760 957.255 L 310.682 957.863 L 311.618 958.449 L 312.569 959.011 L 313.533 959.550 L 314.510 960.065 L 315.500 960.555 L 316.501 961.022 L 317.513 961.463 L 318.536 961.880 L 319.569 962.271 L 320.611 962.637 L 321.661 962.978 L 322.720 963.292 L 323.786 963.580 L 324.859 963.842 L 325.938 964.078 L 327.023 964.287 L 328.112 964.470 L 329.205 964.625 L 330.302 964.754 L 331.402 964.856 L 332.504 964.931 L 333.607 964.978 L 334.712 964.999 L 335.816 964.993 L 336.920 964.959 L 338.023 964.898 L 339.124 964.811 L 340.222 964.696 L 341.317 964.554 L 342.409 964.386 L 343.496 964.191 L 344.578 963.969 L 345.654 963.721 L 346.724 963.446 L 347.786 963.145 L 348.841 962.818 L 349.888 962.466 L 350.926 962.088 L 351.954 961.684 L 352.972 961.256 L 353.979 960.802 L 354.974 960.324 L 355.958 959.822 L 356.929 959.295 L 357.887 958.745 L 358.831 958.172 L 359.760 957.576 L 360.675 956.957 L 361.574 956.315 L 362.457 955.652 L 363.324 954.968 L 364.174 954.262 L 365.006 953.536 L 365.820 952.789 L 366.615 952.023 L 367.392 951.238 L 368.148 950.433 L 368.885 949.611 L 369.602 948.770 L 370.297 947.912 L 370.972 947.038 L 371.624 946.147 L 372.255 945.240 L 372.863 944.318 L 373.449 943.382 L 374.011 942.431 L 374.550 941.467 L 375.065 940.490 L 375.555 939.500 L 376.022 938.499 L 376.463 937.487 L 376.880 936.464 L 377.271 935.431 L 377.637 934.389 L 377.978 933.339 L 378.292 932.280 L 378.580 931.214 L 378.842 930.141 L 379.078 929.062 L 379.287 927.977 L 379.470 926.888 L 379.625 925.795 L 379.754 924.698 L 379.856 923.598 L 379.931 922.496 L 392.932 688.474 L 394.728 687.078 L 395.682 686.316 L 398.816 683.741 L 399.736 682.964 L 402.822 680.287 L 403.709 679.497 L 406.745 676.720 L 407.598 675.919 L 410.582 673.043 L 411.402 672.232 L 414.332 669.260 L 415.121 668.440 L 417.995 665.372 L 418.751 664.545 L 421.568 661.384 L 422.294 660.550 L 425.052 657.298 L 425.747 656.458 L 428.444 653.118 L 429.109 652.273 L 431.744 648.845 L 432.381 647.997 L 434.952 644.484 L 435.559 643.632 L 438.065 640.036 L 438.645 639.183 L 441.084 635.505 L 441.637 634.650 L 444.007 630.894 L 444.534 630.038 L 446.835 626.206 L 447.336 625.349 L 449.565 621.443 L 450.042 620.586 L 452.199 616.608 L 452.651 615.751 L 454.734 611.703 L 455.163 610.847 L 457.171 606.733 L 457.577 605.877 L 459.508 601.698 L 459.892 600.844 L 461.746 596.603 L 462.108 595.750 L 463.884 591.450 L 464.225 590.598 L 465.920 586.241 L 466.241 585.391 L 467.856 580.980 L 468.157 580.131 L 469.690 575.668 L 469.972 574.821 L 471.422 570.310 L 471.685 569.465 L 473.052 564.907 L 473.296 564.063 L 474.579 559.462 L 474.805 558.621 L 476.002 553.979 L 476.210 553.139 L 477.322 548.459 L 477.513 547.621 L 478.538 542.906 L 478.712 542.069 L 479.650 537.323 L 479.807 536.487 L 480.658 531.711 L 480.799 530.877 L 481.561 526.075 L 481.685 525.241 L 482.359 520.416 L 482.468 519.584 L 483.052 514.737 L 483.145 513.906 L 483.640 509.042 L 483.717 508.212 L 484.123 503.333 L 484.184 502.504 L 484.500 497.613 L 484.546 496.784 L 484.772 491.885 L 484.802 491.056 L 484.938 486.151 L 484.953 485.322 L 484.998 480.414 L 484.998 479.586 Z M 394.961 484.080 L 394.848 488.156 L 394.660 492.227 L 394.398 496.288 L 394.061 500.337 L 393.651 504.370 L 393.166 508.385 L 392.608 512.378 L 391.978 516.346 L 391.276 520.287 L 390.504 524.197 L 389.660 528.073 L 389.061 530.596 L 388.536 529.994 L 387.789 529.180 L 387.023 528.385 L 386.238 527.608 L 385.433 526.852 L 384.611 526.115 L 383.770 525.398 L 382.912 524.703 L 382.038 524.028 L 381.147 523.376 L 380.240 522.745 L 379.318 522.137 L 378.382 521.551 L 377.431 520.989 L 376.467 520.450 L 375.490 519.935 L 374.500 519.445 L 373.499 518.978 L 372.487 518.537 L 371.464 518.120 L 370.431 517.729 L 369.389 517.363 L 368.339 517.022 L 367.280 516.708 L 366.214 516.420 L 365.141 516.158 L 364.062 515.922 L 362.977 515.713 L 361.888 515.530 L 360.795 515.375 L 359.698 515.246 L 358.598 515.144 L 357.496 515.069 L 356.393 515.022 L 355.288 515.001 L 354.184 515.007 L 353.080 515.041 L 351.977 515.102 L 350.876 515.189 L 349.778 515.304 L 348.683 515.446 L 347.591 515.614 L 346.504 515.809 L 345.422 516.031 L 344.346 516.279 L 343.276 516.554 L 342.214 516.855 L 341.159 517.182 L 340.112 517.534 L 339.074 517.912 L 338.046 518.316 L 337.028 518.744 L 336.021 519.198 L 335.026 519.676 L 334.042 520.178 L 333.071 520.705 L 332.113 521.255 L 331.169 521.828 L 330.240 522.424 L 329.325 523.043 L 328.426 523.685 L 327.543 524.348 L 326.676 525.032 L 325.826 525.738 L 324.994 526.464 L 324.180 527.211 L 323.385 527.977 L 322.608 528.762 L 321.852 529.567 L 321.115 530.389 L 320.398 531.230 L 319.703 532.088 L 319.028 532.962 L 318.376 533.853 L 317.745 534.760 L 317.137 535.682 L 316.551 536.618 L 315.989 537.569 L 315.450 538.533 L 314.935 539.510 L 314.445 540.500 L 313.978 541.501 L 313.537 542.513 L 313.120 543.536 L 312.729 544.569 L 312.363 545.611 L 312.022 546.661 L 311.708 547.720 L 311.420 548.786 L 311.158 549.859 L 310.922 550.938 L 310.713 552.023 L 310.530 553.112 L 310.375 554.205 L 310.246 555.302 L 310.144 556.402 L 310.069 557.504 L 305.869 633.116 L 305.501 633.208 L 303.278 633.685 L 301.059 634.086 L 298.843 634.414 L 296.630 634.668 L 294.419 634.849 L 292.209 634.958 L 290.000 634.994 L 287.791 634.958 L 285.581 634.849 L 283.370 634.668 L 281.157 634.414 L 278.941 634.086 L 276.722 633.685 L 274.499 633.208 L 272.273 632.655 L 270.042 632.025 L 267.808 631.318 L 265.571 630.532 L 263.331 629.666 L 261.088 628.718 L 258.843 627.689 L 256.598 626.576 L 254.353 625.379 L 252.111 624.097 L 249.871 622.729 L 247.636 621.275 L 245.408 619.734 L 243.188 618.105 L 240.979 616.388 L 238.782 614.583 L 236.600 612.690 L 234.434 610.709 L 232.287 608.640 L 230.162 606.484 L 228.060 604.241 L 225.984 601.912 L 223.937 599.498 L 221.920 597.000 L 219.935 594.418 L 217.986 591.755 L 216.075 589.011 L 214.203 586.188 L 212.372 583.288 L 210.586 580.312 L 208.846 577.263 L 207.154 574.142 L 205.512 570.951 L 203.922 567.692 L 202.386 564.368 L 200.906 560.981 L 199.482 557.533 L 198.118 554.027 L 196.814 550.465 L 195.572 546.850 L 194.394 543.185 L 193.280 539.472 L 192.232 535.713 L 191.252 531.913 L 190.340 528.073 L 189.496 524.197 L 188.724 520.287 L 188.022 516.346 L 187.392 512.378 L 186.834 508.385 L 186.349 504.370 L 185.939 500.337 L 185.602 496.288 L 185.340 492.227 L 185.152 488.156 L 185.039 484.080 L 185.002 480.000 L 185.039 475.920 L 185.152 471.844 L 185.340 467.773 L 185.602 463.712 L 185.939 459.663 L 186.349 455.630 L 186.834 451.615 L 187.392 447.622 L 188.022 443.654 L 188.724 439.713 L 189.496 435.803 L 190.340 431.927 L 191.252 428.087 L 192.232 424.287 L 193.280 420.528 L 194.394 416.815 L 195.572 413.150 L 196.814 409.535 L 198.118 405.973 L 199.482 402.467 L 200.906 399.019 L 202.386 395.632 L 203.922 392.308 L 205.512 389.049 L 207.154 385.858 L 208.846 382.737 L 210.586 379.688 L 212.372 376.712 L 214.203 373.812 L 216.075 370.989 L 217.986 368.245 L 219.935 365.582 L 221.920 363.000 L 223.937 360.502 L 225.984 358.088 L 228.060 355.759 L 230.162 353.516 L 232.287 351.360 L 234.434 349.291 L 236.600 347.310 L 238.782 345.417 L 240.979 343.612 L 243.188 341.895 L 245.408 340.266 L 247.636 338.725 L 249.871 337.271 L 252.111 335.903 L 254.353 334.621 L 256.598 333.424 L 258.843 332.311 L 261.088 331.282 L 263.331 330.334 L 265.571 329.468 L 267.808 328.682 L 270.042 327.975 L 272.273 327.345 L 274.499 326.792 L 276.722 326.315 L 278.941 325.914 L 281.157 325.586 L 283.370 325.332 L 285.581 325.151 L 287.791 325.042 L 290.000 325.006 L 292.209 325.042 L 294.419 325.151 L 296.630 325.332 L 298.843 325.586 L 301.059 325.914 L 303.278 326.315 L 305.501 326.792 L 307.727 327.345 L 309.958 327.975 L 312.192 328.682 L 314.429 329.468 L 316.669 330.334 L 318.912 331.282 L 321.157 332.311 L 323.402 333.424 L 325.647 334.621 L 327.889 335.903 L 330.129 337.271 L 332.364 338.725 L 334.592 340.266 L 336.812 341.895 L 339.021 343.612 L 341.218 345.417 L 343.400 347.310 L 345.566 349.291 L 347.713 351.360 L 349.838 353.516 L 351.940 355.759 L 354.016 358.088 L 356.063 360.502 L 358.080 363.000 L 360.065 365.582 L 362.014 368.245 L 363.925 370.989 L 365.797 373.812 L 367.628 376.712 L 369.414 379.688 L 371.154 382.737 L 372.846 385.858 L 374.488 389.049 L 376.078 392.308 L 377.614 395.632 L 379.094 399.019 L 380.518 402.467 L 381.882 405.973 L 383.186 409.535 L 384.428 413.150 L 385.606 416.815 L 386.720 420.528 L 387.768 424.287 L 388.748 428.087 L 389.660 431.927 L 390.504 435.803 L 391.276 439.713 L 391.978 443.654 L 392.608 447.622 L 393.166 451.615 L 393.651 455.630 L 394.061 459.663 L 394.398 463.712 L 394.660 467.773 L 394.848 471.844 L 394.961 475.920 L 394.998 480.000 L 394.961 484.080 Z M 394.618 931.179 L 394.323 934.896 L 393.945 938.606 L 393.482 942.306 L 392.936 945.995 L 392.307 949.671 L 391.595 953.332 L 390.801 956.975 L 389.924 960.600 L 388.966 964.203 L 387.926 967.785 L 386.806 971.341 L 385.606 974.872 L 384.326 978.375 L 382.967 981.847 L 381.530 985.289 L 380.016 988.696 L 378.425 992.069 L 376.759 995.405 L 375.017 998.703 L 373.201 1001.960 L 371.313 1005.175 L 369.352 1008.347 L 367.319 1011.474 L 365.217 1014.554 L 363.046 1017.585 L 360.806 1020.567 L 358.500 1023.498 L 356.128 1026.375 L 353.692 1029.198 L 351.193 1031.966 L 348.631 1034.676 L 346.009 1037.328 L 343.328 1039.920 L 340.589 1042.450 L 337.794 1044.918 L 334.943 1047.322 L 332.039 1049.662 L 329.083 1051.934 L 326.076 1054.140 L 323.020 1056.277 L 319.916 1058.344 L 316.767 1060.341 L 313.573 1062.266 L 310.336 1064.118 L 307.059 1065.897 L 303.742 1067.601 L 300.387 1069.230 L 296.997 1070.783 L 293.572 1072.258 L 290.115 1073.656 L 286.627 1074.976 L 283.110 1076.216 L 279.566 1077.376 L 275.997 1078.456 L 272.404 1079.455 L 268.790 1080.373 L 265.155 1081.208 L 261.503 1081.962 L 257.835 1082.632 L 254.152 1083.220 L 250.458 1083.724 L 246.752 1084.144 L 243.038 1084.481 L 239.318 1084.734 L 235.593 1084.902 L 231.865 1084.987 L 228.135 1084.987 L 224.407 1084.902 L 220.682 1084.734 L 216.962 1084.481 L 213.248 1084.144 L 209.542 1083.724 L 205.848 1083.220 L 202.165 1082.632 L 198.497 1081.962 L 194.845 1081.208 L 191.210 1080.373 L 187.596 1079.455 L 184.003 1078.456 L 180.434 1077.376 L 176.890 1076.216 L 173.373 1074.976 L 169.885 1073.656 L 166.428 1072.258 L 163.003 1070.783 L 159.613 1069.230 L 156.258 1067.601 L 152.941 1065.897 L 149.664 1064.118 L 146.427 1062.266 L 143.233 1060.341 L 140.084 1058.344 L 136.980 1056.277 L 133.924 1054.140 L 130.917 1051.934 L 127.961 1049.662 L 125.057 1047.322 L 122.206 1044.918 L 119.411 1042.450 L 116.672 1039.920 L 113.991 1037.328 L 111.369 1034.676 L 108.807 1031.966 L 106.308 1029.198 L 103.872 1026.375 L 101.500 1023.498 L 99.194 1020.567 L 96.954 1017.585 L 94.783 1014.554 L 92.681 1011.474 L 90.648 1008.347 L 88.687 1005.175 L 86.799 1001.960 L 84.983 998.703 L 83.241 995.405 L 81.575 992.069 L 79.984 988.696 L 78.470 985.289 L 77.033 981.847 L 75.674 978.375 L 74.394 974.872 L 73.194 971.341 L 72.074 967.785 L 71.034 964.203 L 70.076 960.600 L 69.199 956.975 L 68.405 953.332 L 67.693 949.671 L 67.064 945.995 L 66.518 942.306 L 66.055 938.606 L 65.677 934.896 L 65.382 931.179 L 65.171 927.456 L 65.045 923.729 L 64.997 919.491 L 64.971 918.387 L 64.918 917.284 L 64.838 916.183 L 64.731 915.083 L 64.596 913.987 L 64.435 912.895 L 64.248 911.806 L 64.033 910.723 L 63.792 909.645 L 63.525 908.573 L 63.232 907.509 L 62.912 906.451 L 62.567 905.402 L 62.195 904.362 L 61.799 903.331 L 61.377 902.311 L 60.931 901.300 L 60.460 900.302 L 59.964 899.315 L 59.444 898.340 L 58.901 897.379 L 58.334 896.431 L 57.744 895.497 L 57.131 894.578 L 56.496 893.675 L 55.839 892.787 L 55.160 891.915 L 54.461 891.061 L 53.740 890.224 L 52.999 889.405 L 52.238 888.604 L 51.458 887.823 L 50.659 887.060 L 49.841 886.318 L 49.006 885.596 L 48.153 884.894 L 47.283 884.214 L 46.396 883.555 L 45.494 882.918 L 44.576 882.304 L 43.644 881.712 L 42.697 881.143 L 41.737 880.598 L 40.763 880.076 L 39.777 879.579 L 38.779 879.106 L 37.770 878.657 L 36.750 878.233 L 35.720 877.835 L 34.680 877.462 L 33.632 877.114 L 32.575 876.793 L 31.511 876.497 L 30.440 876.228 L 29.363 875.985 L 28.280 875.768 L 27.192 875.578 L 26.099 875.415 L 25.003 875.279 L 23.904 875.170 L 22.803 875.087 L 21.700 875.032 L 20.596 875.004 L 19.491 875.003 L 18.387 875.029 L 17.284 875.082 L 16.183 875.162 L 15.083 875.269 L 13.987 875.404 L 12.895 875.565 L 11.806 875.752 L 10.723 875.967 L 9.645 876.208 L 8.573 876.475 L 7.509 876.768 L 6.451 877.088 L 5.402 877.433 L 4.362 877.805 L 3.331 878.201 L 2.311 878.623 L 1.300 879.069 L 0.302 879.540 L -0.685 880.036 L -1.660 880.556 L -2.621 881.099 L -3.569 881.666 L -4.503 882.256 L -5.422 882.869 L -6.325 883.504 L -7.213 884.161 L -8.085 884.840 L -8.939 885.539 L -9.776 886.260 L -10.595 887.001 L -11.396 887.762 L -12.177 888.542 L -12.940 889.341 L -13.682 890.159 L -14.404 890.994 L -15.106 891.847 L -15.786 892.717 L -16.445 893.604 L -17.082 894.506 L -17.696 895.424 L -18.288 896.356 L -18.857 897.303 L -19.402 898.263 L -19.924 899.237 L -20.421 900.223 L -20.894 901.221 L -21.343 902.230 L -21.767 903.250 L -22.165 904.280 L -22.538 905.320 L -22.886 906.368 L -23.207 907.425 L -23.503 908.489 L -23.772 909.560 L -24.015 910.637 L -24.232 911.720 L -24.422 912.808 L -24.585 913.901 L -24.721 914.997 L -24.830 916.096 L -24.913 917.197 L -24.968 918.300 L -24.996 919.404 L -24.997 920.509 L -24.943 925.254 L -24.921 926.271 L -24.760 931.015 L -24.714 932.031 L -24.446 936.769 L -24.377 937.784 L -24.002 942.515 L -23.910 943.528 L -23.428 948.250 L -23.313 949.260 L -22.725 953.970 L -22.587 954.978 L -21.893 959.673 L -21.732 960.677 L -20.932 965.355 L -20.749 966.356 L -19.843 971.015 L -19.637 972.011 L -18.626 976.648 L -18.398 977.639 L -17.282 982.252 L -17.032 983.238 L -15.812 987.825 L -15.540 988.805 L -14.217 993.363 L -13.922 994.336 L -12.496 998.863 L -12.180 999.830 L -10.652 1004.323 L -10.314 1005.282 L -8.685 1009.740 L -8.325 1010.692 L -6.596 1015.112 L -6.215 1016.054 L -4.386 1020.434 L -3.984 1021.368 L -2.056 1025.706 L -1.633 1026.630 L 0.392 1030.923 L 0.836 1031.838 L 2.957 1036.084 L 3.422 1036.988 L 5.639 1041.185 L 6.124 1042.079 L 8.435 1046.224 L 8.940 1047.107 L 11.344 1051.199 L 11.869 1052.071 L 14.365 1056.107 L 14.909 1056.966 L 17.496 1060.946 L 18.060 1061.792 L 20.735 1065.712 L 21.318 1066.546 L 24.082 1070.404 L 24.683 1071.225 L 27.534 1075.020 L 28.153 1075.826 L 31.089 1079.556 L 31.727 1080.348 L 34.745 1084.010 L 35.401 1084.788 L 38.502 1088.381 L 39.175 1089.143 L 42.356 1092.666 L 43.046 1093.413 L 46.306 1096.862 L 47.013 1097.594 L 50.350 1100.969 L 51.073 1101.684 L 54.486 1104.982 L 55.225 1105.681 L 58.711 1108.902 L 59.466 1109.583 L 63.024 1112.724 L 63.794 1113.389 L 67.422 1116.449 L 68.207 1117.096 L 71.903 1120.073 L 72.702 1120.702 L 76.465 1123.595 L 77.278 1124.205 L 81.105 1127.012 L 81.932 1127.605 L 85.822 1130.324 L 86.662 1130.898 L 90.612 1133.529 L 91.464 1134.083 L 95.473 1136.625 L 96.338 1137.160 L 100.403 1139.610 L 101.280 1140.125 L 105.399 1142.482 L 106.287 1142.978 L 110.459 1145.241 L 111.358 1145.716 L 115.580 1147.885 L 116.490 1148.340 L 120.759 1150.413 L 121.679 1150.847 L 125.994 1152.823 L 126.924 1153.236 L 131.282 1155.114 L 132.221 1155.506 L 136.621 1157.285 L 137.568 1157.656 L 142.007 1159.335 L 142.963 1159.684 L 147.439 1161.262 L 148.402 1161.590 L 152.912 1163.066 L 153.882 1163.372 L 158.425 1164.746 L 159.402 1165.030 L 163.974 1166.301 L 164.957 1166.563 L 169.558 1167.731 L 170.546 1167.970 L 175.172 1169.033 L 176.165 1169.250 L 180.814 1170.209 L 181.812 1170.403 L 186.481 1171.257 L 187.483 1171.428 L 192.170 1172.176 L 193.176 1172.325 L 197.879 1172.966 L 198.888 1173.093 L 203.604 1173.628 L 204.616 1173.731 L 209.343 1174.160 L 210.356 1174.240 L 215.092 1174.561 L 216.107 1174.619 L 220.848 1174.833 L 221.865 1174.868 L 226.610 1174.975 L 227.627 1174.987 L 232.373 1174.987 L 233.390 1174.975 L 238.135 1174.868 L 239.152 1174.833 L 243.893 1174.619 L 244.908 1174.561 L 249.644 1174.240 L 250.657 1174.160 L 255.384 1173.731 L 256.396 1173.628 L 261.112 1173.093 L 262.121 1172.966 L 266.824 1172.325 L 267.830 1172.176 L 272.517 1171.428 L 273.519 1171.257 L 278.188 1170.403 L 279.186 1170.209 L 283.835 1169.250 L 284.828 1169.033 L 289.454 1167.970 L 290.442 1167.731 L 295.043 1166.563 L 296.026 1166.301 L 300.598 1165.030 L 301.575 1164.746 L 306.118 1163.372 L 307.088 1163.066 L 311.598 1161.590 L 312.561 1161.262 L 317.037 1159.684 L 317.993 1159.335 L 322.432 1157.656 L 323.379 1157.285 L 327.779 1155.506 L 328.718 1155.114 L 333.076 1153.236 L 334.006 1152.823 L 338.321 1150.847 L 339.241 1150.413 L 343.510 1148.340 L 344.420 1147.885 L 348.642 1145.716 L 349.541 1145.241 L 353.713 1142.978 L 354.601 1142.482 L 358.720 1140.125 L 359.597 1139.610 L 363.662 1137.160 L 364.527 1136.625 L 368.536 1134.083 L 369.388 1133.529 L 373.338 1130.898 L 374.178 1130.324 L 378.068 1127.605 L 378.895 1127.012 L 382.722 1124.205 L 383.535 1123.595 L 387.298 1120.702 L 388.097 1120.073 L 391.793 1117.096 L 392.578 1116.449 L 396.206 1113.389 L 396.976 1112.724 L 400.534 1109.583 L 401.289 1108.902 L 404.775 1105.681 L 405.514 1104.982 L 408.927 1101.684 L 409.650 1100.969 L 412.987 1097.594 L 413.694 1096.862 L 416.954 1093.413 L 417.644 1092.666 L 420.825 1089.143 L 421.498 1088.381 L 424.599 1084.788 L 425.255 1084.010 L 428.273 1080.348 L 428.911 1079.556 L 431.847 1075.826 L 432.466 1075.020 L 435.317 1071.225 L 435.918 1070.404 L 438.682 1066.546 L 439.265 1065.712 L 441.940 1061.792 L 442.504 1060.946 L 445.091 1056.966 L 445.635 1056.107 L 448.131 1052.071 L 448.656 1051.199 L 451.060 1047.107 L 451.565 1046.224 L 453.876 1042.079 L 454.361 1041.185 L 456.578 1036.988 L 457.043 1036.084 L 459.164 1031.838 L 459.608 1030.923 L 461.633 1026.630 L 462.056 1025.706 L 463.984 1021.368 L 464.386 1020.434 L 466.215 1016.054 L 466.596 1015.112 L 468.325 1010.692 L 468.685 1009.740 L 470.314 1005.282 L 470.652 1004.323 L 472.180 999.830 L 472.496 998.863 L 473.922 994.336 L 474.217 993.363 L 475.540 988.805 L 475.812 987.825 L 477.032 983.238 L 477.282 982.252 L 478.398 977.639 L 478.626 976.648 L 479.637 972.011 L 479.843 971.015 L 480.749 966.356 L 480.932 965.355 L 481.732 960.677 L 481.893 959.673 L 482.587 954.978 L 482.725 953.970 L 483.313 949.260 L 483.428 948.250 L 483.910 943.528 L 484.002 942.515 L 484.377 937.784 L 484.446 936.769 L 484.714 932.031 L 484.760 931.015 L 484.921 926.271 L 484.943 925.254 L 484.997 920.509 L 484.996 919.404 L 484.968 918.300 L 484.913 917.197 L 484.830 916.096 L 484.721 914.997 L 484.585 913.901 L 484.422 912.808 L 484.232 911.720 L 484.015 910.637 L 483.772 909.560 L 483.503 908.489 L 483.207 907.425 L 482.886 906.368 L 482.538 905.320 L 482.165 904.280 L 481.767 903.250 L 481.343 902.230 L 480.894 901.221 L 480.421 900.223 L 479.924 899.237 L 479.402 898.263 L 478.857 897.303 L 478.288 896.356 L 477.696 895.424 L 477.082 894.506 L 476.445 893.604 L 475.786 892.717 L 475.106 891.847 L 474.404 890.994 L 473.682 890.159 L 472.940 889.341 L 472.177 888.542 L 471.396 887.762 L 470.595 887.001 L 469.776 886.260 L 468.939 885.539 L 468.085 884.840 L 467.213 884.161 L 466.325 883.504 L 465.422 882.869 L 464.503 882.256 L 463.569 881.666 L 462.621 881.099 L 461.660 880.556 L 460.685 880.036 L 459.698 879.540 L 458.700 879.069 L 457.689 878.623 L 456.669 878.201 L 455.638 877.805 L 454.598 877.433 L 453.549 877.088 L 452.491 876.768 L 451.427 876.475 L 450.355 876.208 L 449.277 875.967 L 448.194 875.752 L 447.105 875.565 L 446.013 875.404 L 444.917 875.269 L 443.817 875.162 L 442.716 875.082 L 441.613 875.029 L 440.509 875.003 L 439.404 875.004 L 438.300 875.032 L 437.197 875.087 L 436.096 875.170 L 434.997 875.279 L 433.901 875.415 L 432.808 875.578 L 431.720 875.768 L 430.637 875.985 L 429.560 876.228 L 428.489 876.497 L 427.425 876.793 L 426.368 877.114 L 425.320 877.462 L 424.280 877.835 L 423.250 878.233 L 422.230 878.657 L 421.221 879.106 L 420.223 879.579 L 419.237 880.076 L 418.263 880.598 L 417.303 881.143 L 416.356 881.712 L 415.424 882.304 L 414.506 882.918 L 413.604 883.555 L 412.717 884.214 L 411.847 884.894 L 410.994 885.596 L 410.159 886.318 L 409.341 887.060 L 408.542 887.823 L 407.762 888.604 L 407.001 889.405 L 406.260 890.224 L 405.539 891.061 L 404.840 891.915 L 404.161 892.787 L 403.504 893.675 L 402.869 894.578 L 402.256 895.497 L 401.666 896.431 L 401.099 897.379 L 400.556 898.340 L 400.036 899.315 L 399.540 900.302 L 399.069 901.300 L 398.623 902.311 L 398.201 903.331 L 397.805 904.362 L 397.433 905.402 L 397.088 906.451 L 396.768 907.509 L 396.475 908.573 L 396.208 909.645 L 395.967 910.723 L 395.752 911.806 L 395.565 912.895 L 395.404 913.987 L 395.269 915.083 L 395.162 916.183 L 395.082 917.284 L 395.029 918.387 L 395.003 919.491 L 394.955 923.729 L 394.829 927.456 L 394.618 931.179 Z" fill="black" fill-rule="evenodd"/>
</svg>
