<svg xmlns="http://www.w3.org/2000/svg" viewBox="0 0 600.000 1000">
  <path d="M 489.504 293.978 L 490.600 292.994 L 491.663 291.976 L 492.693 290.922 L 493.687 289.836 L 494.645 288.718 L 495.566 287.569 L 496.449 286.391 L 497.293 285.184 L 498.097 283.950 L 498.860 282.691 L 499.582 281.407 L 500.261 280.101 L 500.897 278.773 L 501.490 277.425 L 502.037 276.058 L 502.540 274.674 L 502.998 273.274 L 503.409 271.860 L 503.774 270.433 L 504.092 268.996 L 504.362 267.548 L 504.586 266.093 L 504.761 264.630 L 504.889 263.163 L 504.968 261.693 L 504.999 260.221 L 504.983 258.748 L 504.918 257.277 L 504.804 255.809 L 504.643 254.345 L 504.434 252.888 L 504.178 251.438 L 503.874 249.997 L 503.523 248.567 L 503.126 247.149 L 502.682 245.744 L 502.193 244.356 L 501.659 242.983 L 501.080 241.630 L 500.456 240.295 L 499.790 238.982 L 499.081 237.691 L 498.330 236.425 L 497.538 235.183 L 496.706 233.968 L 495.835 232.781 L 494.925 231.623 L 493.978 230.496 L 492.994 229.400 L 491.976 228.337 L 490.922 227.307 L 489.836 226.313 L 488.718 225.355 L 487.569 224.434 L 486.391 223.551 L 485.184 222.707 L 483.950 221.903 L 482.691 221.140 L 481.407 220.418 L 480.101 219.739 L 478.773 219.103 L 477.425 218.510 L 476.058 217.963 L 474.674 217.460 L 473.274 217.002 L 471.860 216.591 L 470.433 216.226 L 468.996 215.908 L 467.548 215.638 L 466.093 215.414 L 464.630 215.239 L 463.163 215.111 L 461.693 215.032 L 460.221 215.001 L 458.748 215.017 L 457.277 215.082 L 455.809 215.196 L 454.345 215.357 L 452.888 215.566 L 451.438 215.822 L 449.997 216.126 L 448.567 216.477 L 447.149 216.874 L 445.744 217.318 L 444.356 217.807 L 442.983 218.341 L 441.630 218.920 L 440.295 219.544 L 438.982 220.210 L 437.691 220.919 L 436.425 221.670 L 435.183 222.462 L 433.968 223.294 L 432.781 224.165 L 431.623 225.075 L 185.000 425.456 L 185.000 40.000 L 184.976 38.528 L 184.904 37.057 L 184.783 35.589 L 184.615 34.126 L 184.399 32.670 L 184.135 31.221 L 183.824 29.782 L 183.467 28.353 L 183.062 26.937 L 182.612 25.535 L 182.116 24.149 L 181.575 22.779 L 180.989 21.428 L 180.359 20.097 L 179.686 18.787 L 178.971 17.500 L 178.214 16.237 L 177.416 14.999 L 176.578 13.789 L 175.701 12.606 L 174.785 11.452 L 173.833 10.329 L 172.844 9.238 L 171.820 8.180 L 170.762 7.156 L 169.671 6.167 L 168.548 5.215 L 167.394 4.299 L 166.211 3.422 L 165.001 2.584 L 163.763 1.786 L 162.500 1.029 L 161.213 0.314 L 159.903 -0.359 L 158.572 -0.989 L 157.221 -1.575 L 155.851 -2.116 L 154.465 -2.612 L 153.063 -3.062 L 151.647 -3.467 L 150.218 -3.824 L 148.779 -4.135 L 147.330 -4.399 L 145.874 -4.615 L 144.411 -4.783 L 142.943 -4.904 L 141.472 -4.976 L 140.000 -5.000 L 138.528 -4.976 L 137.057 -4.904 L 135.589 -4.783 L 134.126 -4.615 L 132.670 -4.399 L 131.221 -4.135 L 129.782 -3.824 L 128.353 -3.467 L 126.937 -3.062 L 125.535 -2.612 L 124.149 -2.116 L 122.779 -1.575 L 121.428 -0.989 L 120.097 -0.359 L 118.787 0.314 L 117.500 1.029 L 116.237 1.786 L 114.999 2.584 L 113.789 3.422 L 112.606 4.299 L 111.452 5.215 L 110.329 6.167 L 109.238 7.156 L 108.180 8.180 L 107.156 9.238 L 106.167 10.329 L 105.215 11.452 L 104.299 12.606 L 103.422 13.789 L 102.584 14.999 L 101.786 16.237 L 101.029 17.500 L 100.314 18.787 L 99.641 20.097 L 99.011 21.428 L 98.425 22.779 L 97.884 24.149 L 97.388 25.535 L 96.938 26.937 L 96.533 28.353 L 96.176 29.782 L 95.865 31.221 L 95.601 32.670 L 95.385 34.126 L 95.217 35.589 L 95.096 37.057 L 95.024 38.528 L 95.000 40.000 L 95.000 780.000 L 95.024 781.472 L 95.096 782.943 L 95.217 784.411 L 95.385 785.874 L 95.601 787.330 L 95.865 788.779 L 96.176 790.218 L 96.533 791.647 L 96.938 793.063 L 97.388 794.465 L 97.884 795.851 L 98.425 797.221 L 99.011 798.572 L 99.641 799.903 L 100.314 801.213 L 101.029 802.500 L 101.786 803.763 L 102.584 805.001 L 103.422 806.211 L 104.299 807.394 L 105.215 808.548 L 106.167 809.671 L 107.156 810.762 L 108.180 811.820 L 109.238 812.844 L 110.329 813.833 L 111.452 814.785 L 112.606 815.701 L 113.789 816.578 L 114.999 817.416 L 116.237 818.214 L 117.500 818.971 L 118.787 819.686 L 120.097 820.359 L 121.428 820.989 L 122.779 821.575 L 124.149 822.116 L 125.535 822.612 L 126.937 823.062 L 128.353 823.467 L 129.782 823.824 L 131.221 824.135 L 132.670 824.399 L 134.126 824.615 L 135.589 824.783 L 137.057 824.904 L 138.528 824.976 L 140.000 825.000 L 141.472 824.976 L 142.943 824.904 L 144.411 824.783 L 145.874 824.615 L 147.330 824.399 L 148.779 824.135 L 150.218 823.824 L 151.647 823.467 L 153.063 823.062 L 154.465 822.612 L 155.851 822.116 L 157.221 821.575 L 158.572 820.989 L 159.903 820.359 L 161.213 819.686 L 162.500 818.971 L 163.763 818.214 L 165.001 817.416 L 166.211 816.578 L 167.394 815.701 L 168.548 814.785 L 169.671 813.833 L 170.762 812.844 L 171.820 811.820 L 172.844 810.762 L 173.833 809.671 L 174.785 808.548 L 175.701 807.394 L 176.578 806.211 L 177.416 805.001 L 178.214 803.763 L 178.971 802.500 L 179.686 801.213 L 180.359 799.903 L 180.989 798.572 L 181.575 797.221 L 182.116 795.851 L 182.612 794.465 L 183.062 793.063 L 183.467 791.647 L 183.824 790.218 L 184.135 788.779 L 184.399 787.330 L 184.615 785.874 L 184.783 784.411 L 184.904 782.943 L 184.976 781.472 L 185.000 780.000 L 185.000 614.544 L 431.623 814.925 L 432.781 815.835 L 433.968 816.706 L 435.183 817.538 L 436.425 818.330 L 437.691 819.081 L 438.982 819.790 L 440.295 820.456 L 441.630 821.080 L 442.983 821.659 L 444.356 822.193 L 445.744 822.682 L 447.149 823.126 L 448.567 823.523 L 449.997 823.874 L 451.438 824.178 L 452.888 824.434 L 454.345 824.643 L 455.809 824.804 L 457.277 824.918 L 458.748 824.983 L 460.221 824.999 L 461.693 824.968 L 463.163 824.889 L 464.630 824.761 L 466.093 824.586 L 467.548 824.362 L 468.996 824.092 L 470.433 823.774 L 471.860 823.409 L 473.274 822.998 L 474.674 822.540 L 476.058 822.037 L 477.425 821.490 L 478.773 820.897 L 480.101 820.261 L 481.407 819.582 L 482.691 818.860 L 483.950 818.097 L 485.184 817.293 L 486.391 816.449 L 487.569 815.566 L 488.718 814.645 L 489.836 813.687 L 490.922 812.693 L 491.976 811.663 L 492.994 810.600 L 493.978 809.504 L 494.925 808.377 L 495.835 807.219 L 496.706 806.032 L 497.538 804.817 L 498.330 803.575 L 499.081 802.309 L 499.790 801.018 L 500.456 799.705 L 501.080 798.370 L 501.659 797.017 L 502.193 795.644 L 502.682 794.256 L 503.126 792.851 L 503.523 791.433 L 503.874 790.003 L 504.178 788.562 L 504.434 787.112 L 504.643 785.655 L 504.804 784.191 L 504.918 782.723 L 504.983 781.252 L 504.999 779.779 L 504.968 778.307 L 504.889 776.837 L 504.761 775.370 L 504.586 773.907 L 504.362 772.452 L 504.092 771.004 L 503.774 769.567 L 503.409 768.140 L 502.998 766.726 L 502.540 765.326 L 502.037 763.942 L 501.490 762.575 L 500.897 761.227 L 500.261 759.899 L 499.582 758.593 L 498.860 757.309 L 498.097 756.050 L 497.293 754.816 L 496.449 753.609 L 495.566 752.431 L 494.645 751.282 L 493.687 750.164 L 492.693 749.078 L 491.663 748.024 L 490.600 747.006 L 489.504 746.022 L 488.377 745.075 L 211.361 520.000 L 488.377 294.925 L 489.504 293.978 Z" fill="black" fill-rule="evenodd"/>
</svg>
