<svg xmlns="http://www.w3.org/2000/svg" viewBox="0 0 600.000 1000.000">
  <path d="M 531.786,599.104 L 531.573,607.780 L 531.465,609.986 L 530.827,618.640 L 530.610,620.838 L 529.548,629.450 L 529.224,631.635 L 527.740,640.185 L 527.309,642.352 L 525.408,650.818 L 524.871,652.961 L 522.557,661.324 L 521.916,663.438 L 519.194,671.678 L 518.450,673.757 L 515.327,681.854 L 514.481,683.894 L 510.965,691.828 L 510.020,693.824 L 506.119,701.575 L 505.078,703.523 L 500.800,711.074 L 499.665,712.968 L 495.022,720.300 L 493.795,722.136 L 488.798,729.231 L 487.483,731.005 L 482.144,737.846 L 480.743,739.554 L 475.075,746.124 L 473.591,747.761 L 467.608,754.046 L 466.046,755.608 L 459.761,761.591 L 458.124,763.075 L 451.554,768.743 L 449.846,770.144 L 443.005,775.483 L 441.231,776.798 L 434.136,781.795 L 432.300,783.022 L 424.968,787.665 L 423.074,788.800 L 415.523,793.078 L 413.575,794.119 L 405.824,798.020 L 403.828,798.965 L 395.894,802.481 L 393.854,803.327 L 385.757,806.450 L 383.678,807.194 L 375.438,809.916 L 373.324,810.557 L 364.961,812.871 L 362.818,813.408 L 354.352,815.309 L 352.185,815.740 L 343.635,817.224 L 341.450,817.548 L 332.838,818.610 L 330.640,818.827 L 321.986,819.465 L 319.780,819.573 L 311.104,819.786 L 308.896,819.786 L 300.220,819.573 L 298.014,819.465 L 289.360,818.827 L 287.162,818.610 L 278.550,817.548 L 276.365,817.224 L 267.815,815.740 L 265.648,815.309 L 257.182,813.408 L 255.039,812.871 L 246.676,810.557 L 244.562,809.916 L 236.322,807.194 L 234.243,806.450 L 226.146,803.327 L 224.106,802.481 L 216.172,798.965 L 214.176,798.020 L 206.425,794.119 L 204.477,793.078 L 196.926,788.800 L 195.032,787.665 L 187.700,783.022 L 185.864,781.795 L 178.769,776.798 L 176.995,775.483 L 170.154,770.144 L 170.000,770.018 L 170.000,780.000 L 169.946,782.208 L 169.783,784.411 L 169.513,786.603 L 169.135,788.779 L 168.651,790.934 L 168.062,793.063 L 167.369,795.160 L 166.575,797.221 L 165.680,799.240 L 164.686,801.213 L 163.598,803.135 L 162.416,805.001 L 161.144,806.806 L 159.785,808.548 L 158.343,810.220 L 156.820,811.820 L 155.220,813.343 L 153.548,814.785 L 151.806,816.144 L 150.001,817.416 L 148.135,818.598 L 146.213,819.686 L 144.240,820.680 L 142.221,821.575 L 140.160,822.369 L 138.063,823.062 L 135.934,823.651 L 133.779,824.135 L 131.603,824.513 L 129.411,824.783 L 127.208,824.946 L 125.000,825.000 L 122.792,824.946 L 120.589,824.783 L 118.397,824.513 L 116.221,824.135 L 114.066,823.651 L 111.937,823.062 L 109.840,822.369 L 107.779,821.575 L 105.760,820.680 L 103.787,819.686 L 101.865,818.598 L 99.999,817.416 L 98.194,816.144 L 96.452,814.785 L 94.780,813.343 L 93.180,811.820 L 91.657,810.220 L 90.215,808.548 L 88.856,806.806 L 87.584,805.001 L 86.402,803.135 L 85.314,801.213 L 84.320,799.240 L 83.425,797.221 L 82.631,795.160 L 81.938,793.063 L 81.349,790.934 L 80.865,788.779 L 80.487,786.603 L 80.217,784.411 L 80.054,782.208 L 80.000,780.000 L 80.000,0.000 L 80.054,-2.208 L 80.217,-4.411 L 80.487,-6.603 L 80.865,-8.779 L 81.349,-10.934 L 81.938,-13.063 L 82.631,-15.160 L 83.425,-17.221 L 84.320,-19.240 L 85.314,-21.213 L 86.402,-23.135 L 87.584,-25.001 L 88.856,-26.806 L 90.215,-28.548 L 91.657,-30.220 L 93.180,-31.820 L 94.780,-33.343 L 96.452,-34.785 L 98.194,-36.144 L 99.999,-37.416 L 101.865,-38.598 L 103.787,-39.686 L 105.760,-40.680 L 107.779,-41.575 L 109.840,-42.369 L 111.937,-43.062 L 114.066,-43.651 L 116.221,-44.135 L 118.397,-44.513 L 120.589,-44.783 L 122.792,-44.946 L 125.000,-45.000 L 127.208,-44.946 L 129.411,-44.783 L 131.603,-44.513 L 133.779,-44.135 L 135.934,-43.651 L 138.063,-43.062 L 140.160,-42.369 L 142.221,-41.575 L 144.240,-40.680 L 146.213,-39.686 L 148.135,-38.598 L 150.001,-37.416 L 151.806,-36.144 L 153.548,-34.785 L 155.220,-33.343 L 156.820,-31.820 L 158.343,-30.220 L 159.785,-28.548 L 161.144,-26.806 L 162.416,-25.001 L 163.598,-23.135 L 164.686,-21.213 L 165.680,-19.240 L 166.575,-17.221 L 167.369,-15.160 L 168.062,-13.063 L 168.651,-10.934 L 169.135,-8.779 L 169.513,-6.603 L 169.783,-4.411 L 169.946,-2.208 L 170.000,0.000 L 170.000,425.982 L 170.154,425.856 L 176.995,420.517 L 178.769,419.202 L 185.864,414.205 L 187.700,412.978 L 195.032,408.335 L 196.926,407.200 L 204.477,402.922 L 206.425,401.881 L 214.176,397.980 L 216.172,397.035 L 224.106,393.519 L 226.146,392.673 L 234.243,389.550 L 236.322,388.806 L 244.562,386.084 L 246.676,385.443 L 255.039,383.129 L 257.182,382.592 L 265.648,380.691 L 267.815,380.260 L 276.365,378.776 L 278.550,378.452 L 287.162,377.390 L 289.360,377.173 L 298.014,376.535 L 300.220,376.427 L 308.896,376.214 L 311.104,376.214 L 319.780,376.427 L 321.986,376.535 L 330.640,377.173 L 332.838,377.390 L 341.450,378.452 L 343.635,378.776 L 352.185,380.260 L 354.352,380.691 L 362.818,382.592 L 364.961,383.129 L 373.324,385.443 L 375.438,386.084 L 383.678,388.806 L 385.757,389.550 L 393.854,392.673 L 395.894,393.519 L 403.828,397.035 L 405.824,397.980 L 413.575,401.881 L 415.523,402.922 L 423.074,407.200 L 424.968,408.335 L 432.300,412.978 L 434.136,414.205 L 441.231,419.202 L 443.005,420.517 L 449.846,425.856 L 451.554,427.257 L 458.124,432.925 L 459.761,434.409 L 466.046,440.392 L 467.608,441.954 L 473.591,448.239 L 475.075,449.876 L 480.743,456.446 L 482.144,458.154 L 487.483,464.995 L 488.798,466.769 L 493.795,473.864 L 495.022,475.700 L 499.665,483.032 L 500.800,484.926 L 505.078,492.477 L 506.119,494.425 L 510.020,502.176 L 510.965,504.172 L 514.481,512.106 L 515.327,514.146 L 518.450,522.243 L 519.194,524.322 L 521.916,532.562 L 522.557,534.676 L 524.871,543.039 L 525.408,545.182 L 527.309,553.648 L 527.740,555.815 L 529.224,564.365 L 529.548,566.550 L 530.610,575.162 L 530.827,577.360 L 531.465,586.014 L 531.573,588.220 L 531.786,596.896 L 531.786,599.104 Z M 441.628,591.534 L 441.152,585.083 L 440.360,578.663 L 439.254,572.290 L 437.837,565.979 L 436.112,559.744 L 434.083,553.602 L 431.755,547.568 L 429.134,541.654 L 426.225,535.876 L 423.037,530.248 L 419.576,524.783 L 415.852,519.495 L 411.872,514.396 L 407.647,509.498 L 403.187,504.813 L 398.502,500.353 L 393.604,496.128 L 388.505,492.148 L 383.217,488.424 L 377.752,484.963 L 372.124,481.775 L 366.346,478.866 L 360.432,476.245 L 354.398,473.917 L 348.256,471.888 L 342.021,470.163 L 335.710,468.746 L 329.337,467.640 L 322.917,466.848 L 316.466,466.372 L 310.000,466.214 L 303.534,466.372 L 297.083,466.848 L 290.663,467.640 L 284.290,468.746 L 277.979,470.163 L 271.744,471.888 L 265.602,473.917 L 259.568,476.245 L 253.654,478.866 L 247.876,481.775 L 242.248,484.963 L 236.783,488.424 L 231.495,492.148 L 226.396,496.128 L 221.498,500.353 L 216.813,504.813 L 212.353,509.498 L 208.128,514.396 L 204.148,519.495 L 200.424,524.783 L 196.963,530.248 L 193.775,535.876 L 190.866,541.654 L 188.245,547.568 L 185.917,553.602 L 183.888,559.744 L 182.163,565.979 L 180.746,572.290 L 179.640,578.663 L 178.848,585.083 L 178.372,591.534 L 178.214,598.000 L 178.372,604.466 L 178.848,610.917 L 179.640,617.337 L 180.746,623.710 L 182.163,630.021 L 183.888,636.256 L 185.917,642.398 L 188.245,648.432 L 190.866,654.346 L 193.775,660.124 L 196.963,665.752 L 200.424,671.217 L 204.148,676.505 L 208.128,681.604 L 212.353,686.502 L 216.813,691.187 L 221.498,695.647 L 226.396,699.872 L 231.495,703.852 L 236.783,707.576 L 242.248,711.037 L 247.876,714.225 L 253.654,717.134 L 259.568,719.755 L 265.602,722.083 L 271.744,724.112 L 277.979,725.837 L 284.290,727.254 L 290.663,728.360 L 297.083,729.152 L 303.534,729.628 L 310.000,729.786 L 316.466,729.628 L 322.917,729.152 L 329.337,728.360 L 335.710,727.254 L 342.021,725.837 L 348.256,724.112 L 354.398,722.083 L 360.432,719.755 L 366.346,717.134 L 372.124,714.225 L 377.752,711.037 L 383.217,707.576 L 388.505,703.852 L 393.604,699.872 L 398.502,695.647 L 403.187,691.187 L 407.647,686.502 L 411.872,681.604 L 415.852,676.505 L 419.576,671.217 L 423.037,665.752 L 426.225,660.124 L 429.134,654.346 L 431.755,648.432 L 434.083,642.398 L 436.112,636.256 L 437.837,630.021 L 439.254,623.710 L 440.360,617.337 L 441.152,610.917 L 441.628,604.466 L 441.786,598.000 L 441.628,591.534 Z" fill="black" fill-rule="evenodd"/>
</svg>
