<svg xmlns="http://www.w3.org/2000/svg" viewBox="0 0 600.000 1000">
  <path d="M 394.477 663.081 L 393.178 665.761 L 391.845 668.399 L 390.479 670.995 L 389.082 673.549 L 387.653 676.058 L 386.195 678.522 L 384.708 680.941 L 383.192 683.312 L 381.650 685.637 L 380.081 687.912 L 378.488 690.139 L 376.870 692.316 L 375.230 694.443 L 373.567 696.518 L 371.884 698.542 L 370.181 700.514 L 368.459 702.433 L 366.719 704.300 L 364.963 706.112 L 363.192 707.871 L 361.406 709.576 L 359.606 711.227 L 357.794 712.823 L 355.971 714.365 L 354.138 715.852 L 352.295 717.285 L 350.444 718.662 L 348.585 719.986 L 346.720 721.254 L 344.849 722.469 L 342.974 723.629 L 341.094 724.735 L 339.211 725.788 L 337.325 726.788 L 335.437 727.734 L 333.547 728.629 L 331.657 729.471 L 329.766 730.261 L 327.876 731.000 L 325.985 731.688 L 324.095 732.325 L 322.206 732.913 L 320.318 733.450 L 318.432 733.939 L 316.546 734.379 L 314.662 734.771 L 312.779 735.114 L 310.897 735.410 L 309.017 735.658 L 307.137 735.859 L 305.258 736.014 L 303.380 736.121 L 301.502 736.182 L 299.624 736.196 L 297.747 736.163 L 295.869 736.084 L 293.990 735.958 L 292.111 735.785 L 290.231 735.565 L 288.350 735.297 L 286.468 734.982 L 284.585 734.620 L 282.700 734.209 L 280.814 733.750 L 278.927 733.241 L 277.038 732.684 L 275.149 732.076 L 273.259 731.418 L 271.368 730.710 L 269.477 729.951 L 267.587 729.140 L 265.697 728.277 L 263.808 727.362 L 261.921 726.394 L 260.036 725.374 L 258.154 724.299 L 256.275 723.171 L 254.402 721.989 L 252.533 720.753 L 250.670 719.463 L 248.815 718.118 L 246.967 716.718 L 245.128 715.264 L 243.298 713.755 L 241.479 712.191 L 239.672 710.573 L 237.878 708.901 L 236.098 707.174 L 234.332 705.394 L 232.583 703.560 L 230.850 701.672 L 229.136 699.732 L 227.440 697.739 L 225.765 695.694 L 224.112 693.598 L 222.480 691.452 L 220.872 689.254 L 219.288 687.008 L 217.730 684.713 L 216.198 682.369 L 214.694 679.979 L 213.218 677.542 L 211.772 675.060 L 210.356 672.533 L 208.971 669.962 L 207.618 667.349 L 206.299 664.694 L 205.013 661.998 L 203.762 659.263 L 202.547 656.490 L 201.368 653.679 L 200.226 650.832 L 199.122 647.950 L 198.057 645.034 L 197.030 642.086 L 196.044 639.106 L 195.098 636.097 L 194.194 633.058 L 193.330 629.992 L 192.510 626.900 L 191.732 623.783 L 190.997 620.643 L 190.306 617.480 L 189.802 615.000 L 456.408 615.000 L 457.512 614.986 L 458.616 614.946 L 459.718 614.878 L 460.819 614.783 L 461.916 614.662 L 463.011 614.513 L 464.101 614.337 L 465.187 614.135 L 466.268 613.907 L 467.342 613.651 L 468.410 613.370 L 469.471 613.062 L 470.524 612.729 L 471.568 612.369 L 472.603 611.985 L 473.629 611.575 L 474.644 611.139 L 475.648 610.680 L 476.641 610.195 L 477.621 609.686 L 478.588 609.154 L 479.543 608.598 L 480.483 608.018 L 481.409 607.416 L 482.319 606.791 L 483.214 606.144 L 484.093 605.476 L 484.956 604.785 L 485.801 604.074 L 486.628 603.343 L 487.437 602.591 L 488.228 601.820 L 488.999 601.029 L 489.751 600.220 L 490.482 599.393 L 491.193 598.548 L 491.884 597.685 L 492.552 596.806 L 493.199 595.911 L 493.824 595.001 L 494.426 594.075 L 495.006 593.135 L 495.562 592.180 L 496.094 591.213 L 496.603 590.233 L 497.088 589.240 L 497.547 588.236 L 497.983 587.221 L 498.393 586.195 L 498.777 585.160 L 499.137 584.116 L 499.470 583.063 L 499.778 582.002 L 500.059 580.934 L 500.315 579.860 L 500.543 578.779 L 500.745 577.693 L 500.921 576.603 L 501.070 575.508 L 501.191 574.411 L 501.286 573.310 L 501.354 572.208 L 501.394 571.104 L 501.408 570.000 L 501.394 568.896 L 501.354 567.792 L 501.286 566.690 L 501.191 565.589 L 501.070 564.492 L 500.921 563.397 L 500.745 562.307 L 500.543 561.221 L 500.315 560.140 L 500.059 559.066 L 499.778 557.998 L 499.470 556.937 L 499.137 555.884 L 498.777 554.840 L 498.393 553.805 L 497.983 552.779 L 497.547 551.764 L 497.088 550.760 L 496.603 549.767 L 496.094 548.787 L 495.562 547.820 L 495.006 546.865 L 494.426 545.925 L 493.824 544.999 L 493.199 544.089 L 492.552 543.194 L 491.884 542.315 L 491.193 541.452 L 490.482 540.607 L 489.751 539.780 L 488.999 538.971 L 488.228 538.180 L 487.437 537.409 L 486.628 536.657 L 485.801 535.926 L 484.956 535.215 L 484.093 534.524 L 483.214 533.856 L 482.319 533.209 L 481.409 532.584 L 480.483 531.982 L 479.543 531.402 L 478.588 530.846 L 477.621 530.314 L 476.641 529.805 L 475.648 529.320 L 474.644 528.861 L 473.629 528.425 L 472.603 528.015 L 471.568 527.631 L 470.524 527.271 L 469.471 526.938 L 468.410 526.630 L 467.342 526.349 L 466.268 526.093 L 465.187 525.865 L 464.101 525.663 L 463.011 525.487 L 461.916 525.338 L 460.819 525.217 L 459.718 525.122 L 458.616 525.054 L 457.512 525.014 L 456.408 525.000 L 189.802 525.000 L 190.306 522.520 L 190.997 519.357 L 191.732 516.217 L 192.510 513.100 L 193.330 510.008 L 194.194 506.942 L 195.098 503.903 L 196.044 500.894 L 197.030 497.914 L 198.057 494.966 L 199.122 492.050 L 200.226 489.168 L 201.368 486.321 L 202.547 483.510 L 203.762 480.737 L 205.013 478.002 L 206.299 475.306 L 207.618 472.651 L 208.971 470.038 L 210.356 467.467 L 211.772 464.940 L 213.218 462.458 L 214.694 460.021 L 216.198 457.631 L 217.730 455.287 L 219.288 452.992 L 220.872 450.746 L 222.480 448.548 L 224.112 446.402 L 225.765 444.306 L 227.440 442.261 L 229.136 440.268 L 230.850 438.328 L 232.583 436.440 L 234.332 434.606 L 236.098 432.826 L 237.878 431.099 L 239.672 429.427 L 241.479 427.809 L 243.298 426.245 L 245.128 424.736 L 246.967 423.282 L 248.815 421.882 L 250.670 420.537 L 252.533 419.247 L 254.402 418.011 L 256.275 416.829 L 258.154 415.701 L 260.036 414.626 L 261.921 413.606 L 263.808 412.638 L 265.697 411.723 L 267.587 410.860 L 269.477 410.049 L 271.368 409.290 L 273.259 408.582 L 275.149 407.924 L 277.038 407.316 L 278.927 406.759 L 280.814 406.250 L 282.700 405.791 L 284.585 405.380 L 286.468 405.018 L 288.350 404.703 L 290.231 404.435 L 292.111 404.215 L 293.990 404.042 L 295.869 403.916 L 297.747 403.837 L 299.624 403.804 L 301.502 403.818 L 303.380 403.879 L 305.258 403.986 L 307.137 404.141 L 309.017 404.342 L 310.897 404.590 L 312.779 404.886 L 314.662 405.229 L 316.546 405.621 L 318.432 406.061 L 320.318 406.550 L 322.206 407.087 L 324.095 407.675 L 325.985 408.312 L 327.876 409.000 L 329.766 409.739 L 331.657 410.529 L 333.547 411.371 L 335.437 412.266 L 337.325 413.212 L 339.211 414.212 L 341.094 415.265 L 342.974 416.371 L 344.849 417.531 L 346.720 418.746 L 348.585 420.014 L 350.444 421.338 L 352.295 422.715 L 354.138 424.148 L 355.971 425.635 L 357.794 427.177 L 359.606 428.773 L 361.406 430.424 L 363.192 432.129 L 364.963 433.888 L 366.719 435.700 L 368.459 437.567 L 370.181 439.486 L 371.884 441.458 L 373.567 443.482 L 375.230 445.557 L 376.870 447.684 L 378.488 449.861 L 380.081 452.088 L 381.650 454.363 L 383.192 456.688 L 384.708 459.059 L 386.195 461.478 L 387.653 463.942 L 389.082 466.451 L 390.479 469.005 L 391.845 471.601 L 393.178 474.239 L 394.477 476.919 L 395.742 479.638 L 397.117 482.723 L 397.579 483.726 L 398.065 484.717 L 398.576 485.697 L 399.111 486.663 L 399.669 487.616 L 400.250 488.555 L 400.854 489.480 L 401.481 490.389 L 402.130 491.283 L 402.801 492.160 L 403.493 493.021 L 404.205 493.865 L 404.939 494.691 L 405.692 495.498 L 406.465 496.287 L 407.257 497.057 L 408.068 497.807 L 408.897 498.536 L 409.744 499.246 L 410.607 499.934 L 411.488 500.601 L 412.384 501.246 L 413.296 501.869 L 414.223 502.469 L 415.165 503.047 L 416.120 503.601 L 417.089 504.131 L 418.070 504.638 L 419.064 505.120 L 420.069 505.578 L 421.085 506.011 L 422.111 506.419 L 423.147 506.801 L 424.192 507.158 L 425.246 507.490 L 426.307 507.795 L 427.376 508.074 L 428.451 508.327 L 429.532 508.554 L 430.618 508.754 L 431.709 508.927 L 432.804 509.073 L 433.901 509.193 L 435.002 509.285 L 436.105 509.350 L 437.208 509.389 L 438.313 509.400 L 439.417 509.384 L 440.521 509.341 L 441.623 509.271 L 442.723 509.174 L 443.820 509.050 L 444.915 508.899 L 446.005 508.721 L 447.090 508.517 L 448.170 508.286 L 449.244 508.028 L 450.311 507.744 L 451.371 507.435 L 452.424 507.099 L 453.467 506.737 L 454.502 506.350 L 455.526 505.938 L 456.540 505.501 L 457.544 505.039 L 458.535 504.552 L 459.514 504.042 L 460.481 503.507 L 461.434 502.949 L 462.373 502.367 L 463.297 501.763 L 464.207 501.136 L 465.100 500.488 L 465.978 499.817 L 466.839 499.125 L 467.682 498.412 L 468.508 497.679 L 469.316 496.925 L 470.105 496.153 L 470.874 495.360 L 471.624 494.550 L 472.354 493.721 L 473.063 492.874 L 473.752 492.010 L 474.419 491.130 L 475.064 490.234 L 475.687 489.322 L 476.287 488.395 L 476.864 487.453 L 477.418 486.498 L 477.949 485.529 L 478.455 484.548 L 478.938 483.554 L 479.396 482.549 L 479.829 481.533 L 480.236 480.507 L 480.619 479.471 L 480.976 478.425 L 481.307 477.372 L 481.613 476.310 L 481.892 475.242 L 482.145 474.167 L 482.371 473.086 L 482.571 472.000 L 482.744 470.909 L 482.891 469.814 L 483.010 468.716 L 483.103 467.616 L 483.168 466.513 L 483.206 465.409 L 483.218 464.305 L 483.202 463.201 L 483.159 462.097 L 483.089 460.995 L 482.992 459.895 L 482.867 458.797 L 482.717 457.703 L 482.539 456.613 L 482.334 455.528 L 482.103 454.448 L 481.846 453.374 L 481.562 452.306 L 481.252 451.246 L 480.917 450.194 L 480.555 449.150 L 480.168 448.116 L 479.756 447.091 L 479.318 446.077 L 477.797 442.664 L 477.498 442.008 L 475.928 438.632 L 475.616 437.976 L 473.999 434.640 L 473.674 433.984 L 472.009 430.689 L 471.671 430.032 L 469.960 426.779 L 469.607 426.122 L 467.850 422.912 L 467.484 422.256 L 465.682 419.090 L 465.301 418.433 L 463.454 415.313 L 463.058 414.657 L 461.168 411.583 L 460.757 410.927 L 458.823 407.901 L 458.397 407.246 L 456.420 404.268 L 455.978 403.615 L 453.960 400.686 L 453.502 400.035 L 451.443 397.157 L 450.969 396.507 L 448.869 393.680 L 448.378 393.032 L 446.239 390.259 L 445.731 389.613 L 443.552 386.893 L 443.028 386.250 L 440.811 383.585 L 440.269 382.945 L 438.014 380.336 L 437.455 379.699 L 435.164 377.146 L 434.586 376.514 L 432.259 374.018 L 431.663 373.390 L 429.301 370.953 L 428.686 370.330 L 426.291 367.951 L 425.657 367.335 L 423.228 365.016 L 422.575 364.405 L 420.114 362.147 L 419.442 361.543 L 416.949 359.346 L 416.258 358.750 L 413.734 356.616 L 413.024 356.027 L 410.470 353.956 L 409.740 353.376 L 407.158 351.369 L 406.408 350.799 L 403.797 348.856 L 403.028 348.296 L 400.390 346.418 L 399.602 345.869 L 396.938 344.057 L 396.129 343.520 L 393.440 341.774 L 392.612 341.249 L 389.899 339.571 L 389.052 339.060 L 386.315 337.449 L 385.449 336.952 L 382.690 335.409 L 381.804 334.927 L 379.024 333.454 L 378.120 332.988 L 375.319 331.583 L 374.398 331.134 L 371.577 329.799 L 370.638 329.368 L 367.799 328.104 L 366.842 327.691 L 363.986 326.497 L 363.012 326.103 L 360.140 324.981 L 359.150 324.607 L 356.262 323.556 L 355.257 323.204 L 352.355 322.225 L 351.335 321.895 L 348.419 320.988 L 347.386 320.680 L 344.458 319.846 L 343.411 319.561 L 340.472 318.800 L 339.413 318.539 L 336.464 317.851 L 335.394 317.615 L 332.435 317.000 L 331.356 316.789 L 328.388 316.248 L 327.300 316.063 L 324.326 315.596 L 323.229 315.437 L 320.249 315.044 L 319.146 314.912 L 316.161 314.592 L 315.052 314.488 L 312.063 314.242 L 310.951 314.165 L 307.958 313.994 L 306.843 313.944 L 303.848 313.847 L 302.731 313.825 L 299.736 313.803 L 298.619 313.808 L 295.624 313.860 L 294.507 313.894 L 291.514 314.020 L 290.399 314.081 L 287.408 314.282 L 286.297 314.370 L 283.309 314.645 L 282.203 314.761 L 279.219 315.110 L 278.119 315.252 L 275.141 315.676 L 274.047 315.845 L 271.076 316.342 L 269.991 316.537 L 267.027 317.108 L 265.951 317.329 L 262.996 317.973 L 261.931 318.219 L 258.985 318.936 L 257.931 319.206 L 254.996 319.997 L 253.955 320.291 L 251.031 321.154 L 250.003 321.471 L 247.093 322.407 L 246.079 322.746 L 243.182 323.754 L 242.183 324.115 L 239.301 325.195 L 238.318 325.576 L 235.452 326.727 L 234.485 327.129 L 231.636 328.351 L 230.685 328.771 L 227.854 330.064 L 226.921 330.502 L 224.109 331.865 L 223.194 332.321 L 220.401 333.753 L 219.505 334.226 L 216.733 335.727 L 215.855 336.215 L 213.105 337.785 L 212.246 338.288 L 209.519 339.926 L 208.679 340.443 L 205.976 342.148 L 205.155 342.678 L 202.476 344.450 L 201.676 344.992 L 199.022 346.830 L 198.241 347.384 L 195.614 349.288 L 194.853 349.852 L 192.253 351.821 L 191.512 352.395 L 188.941 354.428 L 188.218 355.011 L 185.677 357.108 L 184.974 357.699 L 182.462 359.859 L 181.779 360.458 L 179.298 362.680 L 178.634 363.286 L 176.186 365.569 L 175.541 366.182 L 173.125 368.525 L 172.499 369.144 L 170.117 371.547 L 169.509 372.171 L 167.162 374.632 L 166.573 375.262 L 164.260 377.781 L 163.689 378.415 L 161.413 380.991 L 160.860 381.628 L 158.621 384.260 L 158.086 384.901 L 155.884 387.589 L 155.366 388.233 L 153.203 390.974 L 152.703 391.621 L 150.579 394.416 L 150.095 395.065 L 148.011 397.912 L 147.543 398.562 L 145.500 401.461 L 145.049 402.113 L 143.047 405.061 L 142.612 405.715 L 140.652 408.713 L 140.232 409.368 L 138.316 412.413 L 137.911 413.069 L 136.038 416.162 L 135.648 416.818 L 133.819 419.957 L 133.444 420.613 L 131.660 423.797 L 131.299 424.454 L 129.560 427.681 L 129.213 428.338 L 127.521 431.608 L 127.188 432.265 L 125.542 435.576 L 125.222 436.232 L 123.624 439.584 L 123.317 440.240 L 121.766 443.631 L 121.473 444.287 L 119.971 447.715 L 119.690 448.370 L 118.236 451.836 L 117.968 452.490 L 116.564 455.991 L 116.307 456.645 L 114.953 460.180 L 114.709 460.833 L 113.405 464.401 L 113.172 465.053 L 111.919 468.653 L 111.698 469.304 L 110.496 472.935 L 110.286 473.585 L 109.136 477.245 L 108.938 477.894 L 107.840 481.582 L 107.652 482.231 L 106.606 485.945 L 106.429 486.593 L 105.436 490.332 L 105.270 490.979 L 104.330 494.743 L 104.174 495.389 L 103.288 499.175 L 103.142 499.820 L 102.310 503.627 L 102.174 504.272 L 101.396 508.099 L 101.271 508.743 L 100.547 512.589 L 100.431 513.232 L 99.762 517.096 L 99.656 517.738 L 99.042 521.617 L 98.945 522.259 L 98.386 526.153 L 98.299 526.794 L 97.795 530.701 L 97.718 531.341 L 97.270 535.260 L 97.201 535.900 L 96.809 539.830 L 96.749 540.469 L 96.413 544.408 L 96.363 545.047 L 96.082 548.993 L 96.041 549.632 L 95.817 553.584 L 95.785 554.223 L 95.616 558.180 L 95.594 558.818 L 95.481 562.779 L 95.468 563.417 L 95.412 567.380 L 95.407 568.018 L 95.407 571.982 L 95.412 572.620 L 95.468 576.583 L 95.481 577.221 L 95.594 581.182 L 95.616 581.820 L 95.785 585.777 L 95.817 586.416 L 96.041 590.368 L 96.082 591.007 L 96.363 594.953 L 96.413 595.592 L 96.749 599.531 L 96.809 600.170 L 97.201 604.100 L 97.270 604.740 L 97.718 608.659 L 97.795 609.299 L 98.299 613.206 L 98.386 613.847 L 98.945 617.741 L 99.042 618.383 L 99.656 622.262 L 99.762 622.904 L 100.431 626.768 L 100.547 627.411 L 101.271 631.257 L 101.396 631.901 L 102.174 635.728 L 102.310 636.373 L 103.142 640.180 L 103.288 640.825 L 104.174 644.611 L 104.330 645.257 L 105.270 649.021 L 105.436 649.668 L 106.429 653.407 L 106.606 654.055 L 107.652 657.769 L 107.840 658.418 L 108.938 662.106 L 109.136 662.755 L 110.286 666.415 L 110.496 667.065 L 111.698 670.696 L 111.919 671.347 L 113.172 674.947 L 113.405 675.599 L 114.709 679.167 L 114.953 679.820 L 116.307 683.355 L 116.564 684.009 L 117.968 687.510 L 118.236 688.164 L 119.690 691.630 L 119.971 692.285 L 121.473 695.713 L 121.766 696.369 L 123.317 699.760 L 123.624 700.416 L 125.222 703.768 L 125.542 704.424 L 127.188 707.735 L 127.521 708.392 L 129.213 711.662 L 129.560 712.319 L 131.299 715.546 L 131.660 716.203 L 133.444 719.387 L 133.819 720.043 L 135.648 723.182 L 136.038 723.838 L 137.911 726.931 L 138.316 727.587 L 140.232 730.632 L 140.652 731.287 L 142.612 734.285 L 143.047 734.939 L 145.049 737.887 L 145.500 738.539 L 147.543 741.438 L 148.011 742.088 L 150.095 744.935 L 150.579 745.584 L 152.703 748.379 L 153.203 749.026 L 155.366 751.767 L 155.884 752.411 L 158.086 755.099 L 158.621 755.740 L 160.860 758.372 L 161.413 759.009 L 163.689 761.585 L 164.260 762.219 L 166.573 764.738 L 167.162 765.368 L 169.509 767.829 L 170.117 768.453 L 172.499 770.856 L 173.125 771.475 L 175.541 773.818 L 176.186 774.431 L 178.634 776.714 L 179.298 777.320 L 181.779 779.542 L 182.462 780.141 L 184.974 782.301 L 185.677 782.892 L 188.218 784.989 L 188.941 785.572 L 191.512 787.605 L 192.253 788.179 L 194.853 790.148 L 195.614 790.712 L 198.241 792.616 L 199.022 793.170 L 201.676 795.008 L 202.476 795.550 L 205.155 797.322 L 205.976 797.852 L 208.679 799.557 L 209.519 800.074 L 212.246 801.712 L 213.105 802.215 L 215.855 803.785 L 216.733 804.273 L 219.505 805.774 L 220.401 806.247 L 223.194 807.679 L 224.109 808.135 L 226.921 809.498 L 227.854 809.936 L 230.685 811.229 L 231.636 811.649 L 234.485 812.871 L 235.452 813.273 L 238.318 814.424 L 239.301 814.805 L 242.183 815.885 L 243.182 816.246 L 246.079 817.254 L 247.093 817.593 L 250.003 818.529 L 251.031 818.846 L 253.955 819.709 L 254.996 820.003 L 257.931 820.794 L 258.985 821.064 L 261.931 821.781 L 262.996 822.027 L 265.951 822.671 L 267.027 822.892 L 269.991 823.463 L 271.076 823.658 L 274.047 824.155 L 275.141 824.324 L 278.119 824.748 L 279.219 824.890 L 282.203 825.239 L 283.309 825.355 L 286.297 825.630 L 287.408 825.718 L 290.399 825.919 L 291.514 825.980 L 294.507 826.106 L 295.624 826.140 L 298.619 826.192 L 299.736 826.197 L 302.731 826.175 L 303.848 826.153 L 306.843 826.056 L 307.958 826.006 L 310.951 825.835 L 312.063 825.758 L 315.052 825.512 L 316.161 825.408 L 319.146 825.088 L 320.249 824.956 L 323.229 824.563 L 324.326 824.404 L 327.300 823.937 L 328.388 823.752 L 331.356 823.211 L 332.435 823.000 L 335.394 822.385 L 336.464 822.149 L 339.413 821.461 L 340.472 821.200 L 343.411 820.439 L 344.458 820.154 L 347.386 819.320 L 348.419 819.012 L 351.335 818.105 L 352.355 817.775 L 355.257 816.796 L 356.262 816.444 L 359.150 815.393 L 360.140 815.019 L 363.012 813.897 L 363.986 813.503 L 366.842 812.309 L 367.799 811.896 L 370.638 810.632 L 371.577 810.201 L 374.398 808.866 L 375.319 808.417 L 378.120 807.012 L 379.024 806.546 L 381.804 805.073 L 382.690 804.591 L 385.449 803.048 L 386.315 802.551 L 389.052 800.940 L 389.899 800.429 L 392.612 798.751 L 393.440 798.226 L 396.129 796.480 L 396.938 795.943 L 399.602 794.131 L 400.390 793.582 L 403.028 791.704 L 403.797 791.144 L 406.408 789.201 L 407.158 788.631 L 409.740 786.624 L 410.470 786.044 L 413.024 783.973 L 413.734 783.384 L 416.258 781.250 L 416.949 780.654 L 419.442 778.457 L 420.114 777.853 L 422.575 775.595 L 423.228 774.984 L 425.657 772.665 L 426.291 772.049 L 428.686 769.670 L 429.301 769.047 L 431.663 766.610 L 432.259 765.982 L 434.586 763.486 L 435.164 762.854 L 437.455 760.301 L 438.014 759.664 L 440.269 757.055 L 440.811 756.415 L 443.028 753.750 L 443.552 753.107 L 445.731 750.387 L 446.239 749.741 L 448.378 746.968 L 448.869 746.320 L 450.969 743.493 L 451.443 742.843 L 453.502 739.965 L 453.960 739.314 L 455.978 736.385 L 456.420 735.732 L 458.397 732.754 L 458.823 732.099 L 460.757 729.073 L 461.168 728.417 L 463.058 725.343 L 463.454 724.687 L 465.301 721.567 L 465.682 720.910 L 467.484 717.744 L 467.850 717.088 L 469.607 713.878 L 469.960 713.221 L 471.671 709.968 L 472.009 709.311 L 473.674 706.016 L 473.999 705.360 L 475.616 702.024 L 475.928 701.368 L 477.498 697.992 L 477.797 697.336 L 479.318 693.923 L 479.756 692.909 L 480.168 691.884 L 480.555 690.850 L 480.917 689.806 L 481.252 688.754 L 481.562 687.694 L 481.846 686.626 L 482.103 685.552 L 482.334 684.472 L 482.539 683.387 L 482.717 682.297 L 482.867 681.203 L 482.992 680.105 L 483.089 679.005 L 483.159 677.903 L 483.202 676.799 L 483.218 675.695 L 483.206 674.591 L 483.168 673.487 L 483.103 672.384 L 483.010 671.284 L 482.891 670.186 L 482.744 669.091 L 482.571 668.000 L 482.371 666.914 L 482.145 665.833 L 481.892 664.758 L 481.613 663.690 L 481.307 662.628 L 480.976 661.575 L 480.619 660.529 L 480.236 659.493 L 479.829 658.467 L 479.396 657.451 L 478.938 656.446 L 478.455 655.452 L 477.949 654.471 L 477.418 653.502 L 476.864 652.547 L 476.287 651.605 L 475.687 650.678 L 475.064 649.766 L 474.419 648.870 L 473.752 647.990 L 473.063 647.126 L 472.354 646.279 L 471.624 645.450 L 470.874 644.640 L 470.105 643.847 L 469.316 643.075 L 468.508 642.321 L 467.682 641.588 L 466.839 640.875 L 465.978 640.183 L 465.100 639.512 L 464.207 638.864 L 463.297 638.237 L 462.373 637.633 L 461.434 637.051 L 460.481 636.493 L 459.514 635.958 L 458.535 635.448 L 457.544 634.961 L 456.540 634.499 L 455.526 634.062 L 454.502 633.650 L 453.467 633.263 L 452.424 632.901 L 451.371 632.565 L 450.311 632.256 L 449.244 631.972 L 448.170 631.714 L 447.090 631.483 L 446.005 631.279 L 444.915 631.101 L 443.820 630.950 L 442.723 630.826 L 441.623 630.729 L 440.521 630.659 L 439.417 630.616 L 438.313 630.600 L 437.208 630.611 L 436.105 630.650 L 435.002 630.715 L 433.901 630.807 L 432.804 630.927 L 431.709 631.073 L 430.618 631.246 L 429.532 631.446 L 428.451 631.673 L 427.376 631.926 L 426.307 632.205 L 425.246 632.510 L 424.192 632.842 L 423.147 633.199 L 422.111 633.581 L 421.085 633.989 L 420.069 634.422 L 419.064 634.880 L 418.070 635.362 L 417.089 635.869 L 416.120 636.399 L 415.165 636.953 L 414.223 637.531 L 413.296 638.131 L 412.384 638.754 L 411.488 639.399 L 410.607 640.066 L 409.744 640.754 L 408.897 641.464 L 408.068 642.193 L 407.257 642.943 L 406.465 643.713 L 405.692 644.502 L 404.939 645.309 L 404.205 646.135 L 403.493 646.979 L 402.801 647.840 L 402.130 648.717 L 401.481 649.611 L 400.854 650.520 L 400.250 651.445 L 399.669 652.384 L 399.111 653.337 L 398.576 654.303 L 398.065 655.283 L 397.579 656.274 L 397.117 657.277 L 395.742 660.362 L 394.477 663.081 Z" fill="black" fill-rule="evenodd"/>
</svg>
