<svg xmlns="http://www.w3.org/2000/svg" viewBox="0 0 600.000 1000">
  <path d="M 462.604 564.986 L 463.708 564.946 L 464.810 564.878 L 465.911 564.783 L 467.008 564.662 L 468.103 564.513 L 469.193 564.337 L 470.279 564.135 L 471.360 563.907 L 472.434 563.651 L 473.502 563.370 L 474.563 563.062 L 475.616 562.729 L 476.660 562.369 L 477.695 561.985 L 478.721 561.575 L 479.736 561.139 L 480.740 560.680 L 481.733 560.195 L 482.713 559.686 L 483.680 559.154 L 484.635 558.598 L 485.575 558.018 L 486.501 557.416 L 487.411 556.791 L 488.306 556.144 L 489.185 555.476 L 490.048 554.785 L 490.893 554.074 L 491.720 553.343 L 492.529 552.591 L 493.320 551.820 L 494.091 551.029 L 494.843 550.220 L 495.574 549.393 L 496.285 548.548 L 496.976 547.685 L 497.644 546.806 L 498.291 545.911 L 498.916 545.001 L 499.518 544.075 L 500.098 543.135 L 500.654 542.180 L 501.186 541.213 L 501.695 540.233 L 502.180 539.240 L 502.639 538.236 L 503.075 537.221 L 503.485 536.195 L 503.869 535.160 L 504.229 534.116 L 504.562 533.063 L 504.870 532.002 L 505.151 530.934 L 505.407 529.860 L 505.635 528.779 L 505.837 527.693 L 506.013 526.603 L 506.162 525.508 L 506.283 524.411 L 506.378 523.310 L 506.446 522.208 L 506.486 521.104 L 506.500 520.000 L 506.486 518.896 L 506.446 517.792 L 506.378 516.690 L 506.283 515.589 L 506.162 514.492 L 506.013 513.397 L 505.837 512.307 L 505.635 511.221 L 505.407 510.140 L 505.151 509.066 L 504.870 507.998 L 504.562 506.937 L 504.229 505.884 L 503.869 504.840 L 503.485 503.805 L 503.075 502.779 L 502.639 501.764 L 502.180 500.760 L 501.695 499.767 L 501.186 498.787 L 500.654 497.820 L 500.098 496.865 L 499.518 495.925 L 498.916 494.999 L 498.291 494.089 L 497.644 493.194 L 496.976 492.315 L 496.285 491.452 L 495.574 490.607 L 494.843 489.780 L 494.091 488.971 L 493.320 488.180 L 492.529 487.409 L 491.720 486.657 L 490.893 485.926 L 490.048 485.215 L 489.185 484.524 L 488.306 483.856 L 487.411 483.209 L 486.501 482.584 L 485.575 481.982 L 484.635 481.402 L 483.680 480.846 L 482.713 480.314 L 481.733 479.805 L 480.740 479.320 L 479.736 478.861 L 478.721 478.425 L 477.695 478.015 L 476.660 477.631 L 475.616 477.271 L 474.563 476.938 L 473.502 476.630 L 472.434 476.349 L 471.360 476.093 L 470.279 475.865 L 469.193 475.663 L 468.103 475.487 L 467.008 475.338 L 465.911 475.217 L 464.810 475.122 L 463.708 475.054 L 462.604 475.014 L 461.500 475.000 L 281.000 475.000 L 279.896 475.014 L 278.792 475.054 L 277.690 475.122 L 276.589 475.217 L 275.492 475.338 L 274.397 475.487 L 273.307 475.663 L 272.221 475.865 L 271.140 476.093 L 270.066 476.349 L 268.998 476.630 L 267.937 476.938 L 266.884 477.271 L 265.840 477.631 L 264.805 478.015 L 263.779 478.425 L 262.764 478.861 L 261.760 479.320 L 260.767 479.805 L 259.787 480.314 L 258.820 480.846 L 257.865 481.402 L 256.925 481.982 L 255.999 482.584 L 255.089 483.209 L 254.194 483.856 L 253.315 484.524 L 252.452 485.215 L 251.607 485.926 L 250.780 486.657 L 249.971 487.409 L 249.180 488.180 L 248.409 488.971 L 247.657 489.780 L 246.926 490.607 L 246.215 491.452 L 245.524 492.315 L 244.856 493.194 L 244.209 494.089 L 243.584 494.999 L 242.982 495.925 L 242.402 496.865 L 241.846 497.820 L 241.314 498.787 L 240.805 499.767 L 240.320 500.760 L 239.861 501.764 L 239.425 502.779 L 239.015 503.805 L 238.631 504.840 L 238.271 505.884 L 237.938 506.937 L 237.630 507.998 L 237.349 509.066 L 237.093 510.140 L 236.865 511.221 L 236.663 512.307 L 236.487 513.397 L 236.338 514.492 L 236.217 515.589 L 236.122 516.690 L 236.054 517.792 L 236.014 518.896 L 236.000 520.000 L 236.014 521.104 L 236.054 522.208 L 236.122 523.310 L 236.217 524.411 L 236.338 525.508 L 236.487 526.603 L 236.663 527.693 L 236.865 528.779 L 237.093 529.860 L 237.349 530.934 L 237.630 532.002 L 237.938 533.063 L 238.271 534.116 L 238.631 535.160 L 239.015 536.195 L 239.425 537.221 L 239.861 538.236 L 240.320 539.240 L 240.805 540.233 L 241.314 541.213 L 241.846 542.180 L 242.402 543.135 L 242.982 544.075 L 243.584 545.001 L 244.209 545.911 L 244.856 546.806 L 245.524 547.685 L 246.215 548.548 L 246.926 549.393 L 247.657 550.220 L 248.409 551.029 L 249.180 551.820 L 249.971 552.591 L 250.780 553.343 L 251.607 554.074 L 252.452 554.785 L 253.315 555.476 L 254.194 556.144 L 255.089 556.791 L 255.999 557.416 L 256.925 558.018 L 257.865 558.598 L 258.820 559.154 L 259.787 559.686 L 260.767 560.195 L 261.760 560.680 L 262.764 561.139 L 263.779 561.575 L 264.805 561.985 L 265.840 562.369 L 266.884 562.729 L 267.937 563.062 L 268.998 563.370 L 270.066 563.651 L 271.140 563.907 L 272.221 564.135 L 273.307 564.337 L 274.397 564.513 L 275.492 564.662 L 276.589 564.783 L 277.690 564.878 L 278.792 564.946 L 279.896 564.986 L 281.000 565.000 L 461.500 565.000 L 462.604 564.986 Z M 383.337 694.961 L 380.869 697.510 L 378.376 699.974 L 375.861 702.354 L 373.324 704.648 L 370.769 706.857 L 368.196 708.981 L 365.607 711.019 L 363.005 712.970 L 360.389 714.836 L 357.763 716.616 L 355.126 718.311 L 352.482 719.920 L 349.830 721.444 L 347.173 722.883 L 344.512 724.239 L 341.846 725.511 L 339.178 726.699 L 336.509 727.806 L 333.838 728.830 L 331.167 729.774 L 328.496 730.637 L 325.826 731.421 L 323.156 732.125 L 320.488 732.751 L 317.821 733.299 L 315.155 733.769 L 312.491 734.163 L 309.828 734.480 L 307.165 734.722 L 304.503 734.887 L 301.842 734.977 L 299.181 734.992 L 296.520 734.931 L 293.859 734.794 L 291.197 734.582 L 288.534 734.294 L 285.870 733.930 L 283.204 733.489 L 280.538 732.971 L 277.870 732.375 L 275.201 731.701 L 272.531 730.948 L 269.860 730.115 L 267.189 729.203 L 264.518 728.210 L 261.848 727.135 L 259.180 725.978 L 256.513 724.738 L 253.850 723.415 L 251.191 722.008 L 248.537 720.516 L 245.890 718.940 L 243.250 717.278 L 240.620 715.531 L 238.000 713.698 L 235.392 711.779 L 232.798 709.775 L 230.219 707.684 L 227.656 705.508 L 225.113 703.246 L 222.589 700.899 L 220.087 698.467 L 217.609 695.951 L 215.157 693.352 L 212.731 690.669 L 210.335 687.904 L 207.969 685.057 L 205.636 682.130 L 203.337 679.124 L 201.074 676.040 L 198.848 672.878 L 196.662 669.640 L 194.517 666.328 L 192.414 662.943 L 190.355 659.486 L 188.342 655.959 L 186.376 652.363 L 184.459 648.701 L 182.592 644.973 L 180.776 641.182 L 179.013 637.329 L 177.304 633.417 L 175.650 629.447 L 174.053 625.420 L 172.514 621.340 L 171.033 617.208 L 169.613 613.027 L 168.253 608.797 L 166.955 604.522 L 165.721 600.204 L 164.550 595.844 L 163.443 591.445 L 162.402 587.009 L 161.427 582.539 L 160.518 578.037 L 159.677 573.505 L 158.905 568.945 L 158.200 564.360 L 157.565 559.752 L 156.999 555.124 L 156.503 550.478 L 156.077 545.815 L 155.722 541.140 L 155.437 536.454 L 155.224 531.759 L 155.081 527.058 L 155.010 522.353 L 155.010 517.647 L 155.081 512.942 L 155.224 508.241 L 155.437 503.546 L 155.722 498.860 L 156.077 494.185 L 156.503 489.522 L 156.999 484.876 L 157.565 480.248 L 158.200 475.640 L 158.905 471.055 L 159.677 466.495 L 160.518 461.963 L 161.427 457.461 L 162.402 452.991 L 163.443 448.555 L 164.550 444.156 L 165.721 439.796 L 166.955 435.478 L 168.253 431.203 L 169.613 426.973 L 171.033 422.792 L 172.514 418.660 L 174.053 414.580 L 175.650 410.553 L 177.304 406.583 L 179.013 402.671 L 180.776 398.818 L 182.592 395.027 L 184.459 391.299 L 186.376 387.637 L 188.342 384.041 L 190.355 380.514 L 192.414 377.057 L 194.517 373.672 L 196.662 370.360 L 198.848 367.122 L 201.074 363.960 L 203.337 360.876 L 205.636 357.870 L 207.969 354.943 L 210.335 352.096 L 212.731 349.331 L 215.157 346.648 L 217.609 344.049 L 220.087 341.533 L 222.589 339.101 L 225.113 336.754 L 227.656 334.492 L 230.219 332.316 L 232.798 330.225 L 235.392 328.221 L 238.000 326.302 L 240.620 324.469 L 243.250 322.722 L 245.890 321.060 L 248.537 319.484 L 251.191 317.992 L 253.850 316.585 L 256.513 315.262 L 259.180 314.022 L 261.848 312.865 L 264.518 311.790 L 267.189 310.797 L 269.860 309.885 L 272.531 309.052 L 275.201 308.299 L 277.870 307.625 L 280.538 307.029 L 283.204 306.511 L 285.870 306.070 L 288.534 305.706 L 291.197 305.418 L 293.859 305.206 L 296.520 305.069 L 299.181 305.008 L 301.842 305.023 L 304.503 305.113 L 307.165 305.278 L 309.828 305.520 L 312.491 305.837 L 315.155 306.231 L 317.821 306.701 L 320.488 307.249 L 323.156 307.875 L 325.826 308.579 L 328.496 309.363 L 331.167 310.226 L 333.838 311.170 L 336.509 312.194 L 339.178 313.301 L 341.846 314.489 L 344.512 315.761 L 347.173 317.117 L 349.830 318.556 L 352.482 320.080 L 355.126 321.689 L 357.763 323.384 L 360.389 325.164 L 363.005 327.030 L 365.607 328.981 L 368.196 331.019 L 370.769 333.143 L 373.324 335.352 L 375.861 337.646 L 378.376 340.026 L 380.869 342.490 L 383.337 345.039 L 385.780 347.670 L 388.506 350.735 L 389.250 351.552 L 390.014 352.349 L 390.797 353.128 L 391.599 353.887 L 392.419 354.626 L 393.258 355.345 L 394.114 356.043 L 394.986 356.720 L 395.875 357.376 L 396.780 358.009 L 397.700 358.620 L 398.635 359.208 L 399.584 359.773 L 400.546 360.315 L 401.522 360.833 L 402.510 361.326 L 403.510 361.795 L 404.521 362.240 L 405.542 362.660 L 406.574 363.054 L 407.615 363.423 L 408.665 363.767 L 409.722 364.084 L 410.788 364.376 L 411.860 364.641 L 412.938 364.880 L 414.022 365.092 L 415.111 365.278 L 416.204 365.437 L 417.300 365.569 L 418.400 365.674 L 419.501 365.752 L 420.605 365.803 L 421.709 365.826 L 422.813 365.823 L 423.917 365.793 L 425.020 365.736 L 426.121 365.651 L 427.220 365.540 L 428.316 365.401 L 429.408 365.236 L 430.495 365.044 L 431.578 364.825 L 432.655 364.580 L 433.725 364.309 L 434.789 364.011 L 435.845 363.687 L 436.893 363.338 L 437.931 362.963 L 438.961 362.562 L 439.980 362.137 L 440.988 361.686 L 441.985 361.211 L 442.970 360.712 L 443.943 360.188 L 444.902 359.641 L 445.848 359.070 L 446.779 358.477 L 447.696 357.861 L 448.597 357.222 L 449.482 356.561 L 450.351 355.879 L 451.202 355.176 L 452.037 354.452 L 452.853 353.708 L 453.650 352.945 L 454.429 352.161 L 455.188 351.359 L 455.928 350.539 L 456.647 349.700 L 457.345 348.845 L 458.022 347.972 L 458.677 347.083 L 459.310 346.178 L 459.921 345.258 L 460.509 344.323 L 461.074 343.374 L 461.616 342.412 L 462.134 341.436 L 462.627 340.448 L 463.097 339.448 L 463.541 338.437 L 463.961 337.416 L 464.355 336.384 L 464.724 335.343 L 465.068 334.294 L 465.385 333.236 L 465.677 332.170 L 465.942 331.098 L 466.181 330.020 L 466.393 328.936 L 466.579 327.847 L 466.738 326.754 L 466.870 325.658 L 466.975 324.559 L 467.053 323.457 L 467.104 322.354 L 467.128 321.249 L 467.124 320.145 L 467.094 319.041 L 467.037 317.938 L 466.952 316.837 L 466.841 315.738 L 466.702 314.642 L 466.537 313.550 L 466.345 312.463 L 466.127 311.380 L 465.881 310.303 L 465.610 309.233 L 465.312 308.169 L 464.989 307.113 L 464.639 306.065 L 464.264 305.027 L 463.863 303.997 L 463.438 302.978 L 462.987 301.970 L 462.512 300.973 L 462.013 299.988 L 461.489 299.015 L 460.942 298.056 L 460.372 297.110 L 459.778 296.179 L 459.162 295.262 L 458.523 294.361 L 457.863 293.476 L 457.181 292.607 L 456.478 291.756 L 455.754 290.922 L 452.712 287.502 L 452.073 286.798 L 448.980 283.465 L 448.317 282.767 L 445.175 279.522 L 444.488 278.829 L 441.297 275.674 L 440.586 274.987 L 437.348 271.923 L 436.613 271.243 L 433.329 268.272 L 432.568 267.599 L 429.240 264.722 L 428.454 264.058 L 425.083 261.276 L 424.272 260.622 L 420.860 257.936 L 420.023 257.293 L 416.570 254.704 L 415.708 254.073 L 412.217 251.583 L 411.328 250.965 L 407.801 248.574 L 406.886 247.970 L 403.323 245.680 L 402.383 245.092 L 398.786 242.903 L 397.820 242.332 L 394.190 240.246 L 393.200 239.693 L 389.539 237.710 L 388.524 237.176 L 384.834 235.297 L 383.794 234.784 L 380.076 233.011 L 379.013 232.520 L 375.269 230.852 L 374.182 230.385 L 370.414 228.823 L 369.305 228.380 L 365.514 226.926 L 364.384 226.510 L 360.572 225.163 L 359.421 224.774 L 355.590 223.536 L 354.420 223.175 L 350.570 222.046 L 349.382 221.715 L 345.517 220.695 L 344.312 220.395 L 340.432 219.485 L 339.213 219.216 L 335.319 218.417 L 334.087 218.181 L 330.182 217.492 L 328.938 217.290 L 325.024 216.712 L 323.769 216.544 L 319.847 216.077 L 318.585 215.944 L 314.657 215.588 L 313.388 215.491 L 309.455 215.247 L 308.182 215.186 L 304.246 215.052 L 302.971 215.027 L 299.034 215.006 L 297.758 215.017 L 293.822 215.107 L 292.548 215.154 L 288.614 215.356 L 287.343 215.439 L 283.413 215.753 L 282.148 215.872 L 278.223 216.296 L 276.965 216.450 L 273.048 216.986 L 271.799 217.175 L 267.891 217.821 L 266.654 218.044 L 262.756 218.801 L 261.531 219.057 L 257.646 219.925 L 256.436 220.213 L 252.564 221.190 L 251.370 221.510 L 247.514 222.597 L 246.337 222.946 L 242.498 224.143 L 241.340 224.521 L 237.520 225.826 L 236.382 226.232 L 232.583 227.645 L 231.465 228.078 L 227.688 229.598 L 226.593 230.056 L 222.840 231.683 L 221.767 232.165 L 218.039 233.898 L 216.990 234.403 L 213.289 236.241 L 212.264 236.767 L 208.592 238.710 L 207.592 239.256 L 203.950 241.303 L 202.975 241.867 L 199.365 244.016 L 198.415 244.598 L 194.839 246.850 L 193.914 247.447 L 190.373 249.800 L 189.474 250.412 L 185.969 252.864 L 185.097 253.490 L 181.629 256.042 L 180.782 256.680 L 177.354 259.329 L 176.533 259.979 L 173.146 262.724 L 172.351 263.384 L 169.006 266.225 L 168.236 266.894 L 164.935 269.829 L 164.190 270.507 L 160.934 273.535 L 160.214 274.220 L 157.004 277.339 L 156.308 278.031 L 153.147 281.241 L 152.475 281.938 L 149.363 285.237 L 148.715 285.938 L 145.653 289.325 L 145.028 290.031 L 142.019 293.503 L 141.417 294.213 L 138.460 297.770 L 137.880 298.482 L 134.978 302.123 L 134.420 302.837 L 131.574 306.559 L 131.037 307.276 L 128.248 311.077 L 127.732 311.795 L 125.001 315.675 L 124.506 316.394 L 121.834 320.351 L 121.358 321.070 L 118.747 325.101 L 118.290 325.821 L 115.740 329.926 L 115.303 330.645 L 112.816 334.821 L 112.397 335.540 L 109.973 339.786 L 109.572 340.504 L 107.214 344.818 L 106.830 345.535 L 104.537 349.915 L 104.170 350.631 L 101.944 355.075 L 101.594 355.790 L 99.436 360.296 L 99.101 361.010 L 97.012 365.576 L 96.693 366.288 L 94.674 370.912 L 94.370 371.623 L 92.421 376.304 L 92.133 377.013 L 90.254 381.748 L 89.981 382.456 L 88.175 387.243 L 87.915 387.949 L 86.182 392.786 L 85.936 393.490 L 84.276 398.375 L 84.044 399.078 L 82.459 404.009 L 82.240 404.710 L 80.730 409.685 L 80.524 410.384 L 79.089 415.401 L 78.896 416.099 L 77.538 421.155 L 77.357 421.851 L 76.075 426.945 L 75.906 427.640 L 74.702 432.769 L 74.545 433.462 L 73.419 438.624 L 73.274 439.315 L 72.226 444.508 L 72.093 445.198 L 71.124 450.420 L 71.002 451.109 L 70.112 456.357 L 70.001 457.044 L 69.191 462.316 L 69.091 463.003 L 68.361 468.297 L 68.272 468.982 L 67.622 474.296 L 67.544 474.981 L 66.975 480.311 L 66.907 480.995 L 66.419 486.341 L 66.362 487.024 L 65.955 492.382 L 65.908 493.065 L 65.582 498.434 L 65.546 499.116 L 65.301 504.493 L 65.276 505.175 L 65.112 510.557 L 65.097 511.239 L 65.015 516.625 L 65.010 517.306 L 65.010 522.694 L 65.015 523.375 L 65.097 528.761 L 65.112 529.443 L 65.276 534.825 L 65.301 535.507 L 65.546 540.884 L 65.582 541.566 L 65.908 546.935 L 65.955 547.618 L 66.362 552.976 L 66.419 553.659 L 66.907 559.005 L 66.975 559.689 L 67.544 565.019 L 67.622 565.704 L 68.272 571.018 L 68.361 571.703 L 69.091 576.997 L 69.191 577.684 L 70.001 582.956 L 70.112 583.643 L 71.002 588.891 L 71.124 589.580 L 72.093 594.802 L 72.226 595.492 L 73.274 600.685 L 73.419 601.376 L 74.545 606.538 L 74.702 607.231 L 75.906 612.360 L 76.075 613.055 L 77.357 618.149 L 77.538 618.845 L 78.896 623.901 L 79.089 624.599 L 80.524 629.616 L 80.730 630.315 L 82.240 635.290 L 82.459 635.991 L 84.044 640.922 L 84.276 641.625 L 85.936 646.510 L 86.182 647.214 L 87.915 652.051 L 88.175 652.757 L 89.981 657.544 L 90.254 658.252 L 92.133 662.987 L 92.421 663.696 L 94.370 668.377 L 94.674 669.088 L 96.693 673.712 L 97.012 674.424 L 99.101 678.990 L 99.436 679.704 L 101.594 684.210 L 101.944 684.925 L 104.170 689.369 L 104.537 690.085 L 106.830 694.465 L 107.214 695.182 L 109.572 699.496 L 109.973 700.214 L 112.397 704.460 L 112.816 705.179 L 115.303 709.355 L 115.740 710.074 L 118.290 714.179 L 118.747 714.899 L 121.358 718.930 L 121.834 719.649 L 124.506 723.606 L 125.001 724.325 L 127.732 728.205 L 128.248 728.923 L 131.037 732.724 L 131.574 733.441 L 134.420 737.163 L 134.978 737.877 L 137.880 741.518 L 138.460 742.230 L 141.417 745.787 L 142.019 746.497 L 145.028 749.969 L 145.653 750.675 L 148.715 754.062 L 149.363 754.763 L 152.475 758.062 L 153.147 758.759 L 156.308 761.969 L 157.004 762.661 L 160.214 765.780 L 160.934 766.465 L 164.190 769.493 L 164.935 770.171 L 168.236 773.106 L 169.006 773.775 L 172.351 776.616 L 173.146 777.276 L 176.533 780.021 L 177.354 780.671 L 180.782 783.320 L 181.629 783.958 L 185.097 786.510 L 185.969 787.136 L 189.474 789.588 L 190.373 790.200 L 193.914 792.553 L 194.839 793.150 L 198.415 795.402 L 199.365 795.984 L 202.975 798.133 L 203.950 798.697 L 207.592 800.744 L 208.592 801.290 L 212.264 803.233 L 213.289 803.759 L 216.990 805.597 L 218.039 806.102 L 221.767 807.835 L 222.840 808.317 L 226.593 809.944 L 227.688 810.402 L 231.465 811.922 L 232.583 812.355 L 236.382 813.768 L 237.520 814.174 L 241.340 815.479 L 242.498 815.857 L 246.337 817.054 L 247.514 817.403 L 251.370 818.490 L 252.564 818.810 L 256.436 819.787 L 257.646 820.075 L 261.531 820.943 L 262.756 821.199 L 266.654 821.956 L 267.891 822.179 L 271.799 822.825 L 273.048 823.014 L 276.965 823.550 L 278.223 823.704 L 282.148 824.128 L 283.413 824.247 L 287.343 824.561 L 288.614 824.644 L 292.548 824.846 L 293.822 824.893 L 297.758 824.983 L 299.034 824.994 L 302.971 824.973 L 304.246 824.948 L 308.182 824.814 L 309.455 824.753 L 313.388 824.509 L 314.657 824.412 L 318.585 824.056 L 319.847 823.923 L 323.769 823.456 L 325.024 823.288 L 328.938 822.710 L 330.182 822.508 L 334.087 821.819 L 335.319 821.583 L 339.213 820.784 L 340.432 820.515 L 344.312 819.605 L 345.517 819.305 L 349.382 818.285 L 350.570 817.954 L 354.420 816.825 L 355.590 816.464 L 359.421 815.226 L 360.572 814.837 L 364.384 813.490 L 365.514 813.074 L 369.305 811.620 L 370.414 811.177 L 374.182 809.615 L 375.269 809.148 L 379.013 807.480 L 380.076 806.989 L 383.794 805.216 L 384.834 804.703 L 388.524 802.824 L 389.539 802.290 L 393.200 800.307 L 394.190 799.754 L 397.820 797.668 L 398.786 797.097 L 402.383 794.908 L 403.323 794.320 L 406.886 792.030 L 407.801 791.426 L 411.328 789.035 L 412.217 788.417 L 415.708 785.927 L 416.570 785.296 L 420.023 782.707 L 420.860 782.064 L 424.272 779.378 L 425.083 778.724 L 428.454 775.942 L 429.240 775.278 L 432.568 772.401 L 433.329 771.728 L 436.613 768.757 L 437.348 768.077 L 440.586 765.013 L 441.297 764.326 L 444.488 761.171 L 445.175 760.478 L 448.317 757.233 L 448.980 756.535 L 452.073 753.202 L 452.712 752.498 L 455.754 749.078 L 456.478 748.244 L 457.181 747.393 L 457.863 746.524 L 458.523 745.639 L 459.162 744.738 L 459.778 743.821 L 460.372 742.890 L 460.942 741.944 L 461.489 740.985 L 462.013 740.012 L 462.512 739.027 L 462.987 738.030 L 463.438 737.022 L 463.863 736.003 L 464.264 734.973 L 464.639 733.935 L 464.989 732.887 L 465.312 731.831 L 465.610 730.767 L 465.881 729.697 L 466.127 728.620 L 466.345 727.537 L 466.537 726.450 L 466.702 725.358 L 466.841 724.262 L 466.952 723.163 L 467.037 722.062 L 467.094 720.959 L 467.124 719.855 L 467.128 718.751 L 467.104 717.646 L 467.053 716.543 L 466.975 715.441 L 466.870 714.342 L 466.738 713.246 L 466.579 712.153 L 466.393 711.064 L 466.181 709.980 L 465.942 708.902 L 465.677 707.830 L 465.385 706.764 L 465.068 705.706 L 464.724 704.657 L 464.355 703.616 L 463.961 702.584 L 463.541 701.563 L 463.097 700.552 L 462.627 699.552 L 462.134 698.564 L 461.616 697.588 L 461.074 696.626 L 460.509 695.677 L 459.921 694.742 L 459.310 693.822 L 458.677 692.917 L 458.022 692.028 L 457.345 691.155 L 456.647 690.300 L 455.928 689.461 L 455.188 688.641 L 454.429 687.839 L 453.650 687.055 L 452.853 686.292 L 452.037 685.548 L 451.202 684.824 L 450.351 684.121 L 449.482 683.439 L 448.597 682.778 L 447.696 682.139 L 446.779 681.523 L 445.848 680.930 L 444.902 680.359 L 443.943 679.812 L 442.970 679.288 L 441.985 678.789 L 440.988 678.314 L 439.980 677.863 L 438.961 677.438 L 437.931 677.037 L 436.893 676.662 L 435.845 676.313 L 434.789 675.989 L 433.725 675.691 L 432.655 675.420 L 431.578 675.175 L 430.495 674.956 L 429.408 674.764 L 428.316 674.599 L 427.220 674.460 L 426.121 674.349 L 425.020 674.264 L 423.917 674.207 L 422.813 674.177 L 421.709 674.174 L 420.605 674.197 L 419.501 674.248 L 418.400 674.326 L 417.300 674.431 L 416.204 674.563 L 415.111 674.722 L 414.022 674.908 L 412.938 675.120 L 411.860 675.359 L 410.788 675.624 L 409.722 675.916 L 408.665 676.233 L 407.615 676.577 L 406.574 676.946 L 405.542 677.340 L 404.521 677.760 L 403.510 678.205 L 402.510 678.674 L 401.522 679.167 L 400.546 679.685 L 399.584 680.227 L 398.635 680.792 L 397.700 681.380 L 396.780 681.991 L 395.875 682.624 L 394.986 683.280 L 394.114 683.957 L 393.258 684.655 L 392.419 685.374 L 391.599 686.113 L 390.797 686.872 L 390.014 687.651 L 389.250 688.448 L 388.506 689.265 L 385.780 692.330 L 383.337 694.961 Z" fill="black" fill-rule="evenodd"/>
</svg>
