<svg xmlns="http://www.w3.org/2000/svg" viewBox="0 0 600.000 1000">
  <path d="M 478.638 569.583 L 478.595 564.918 L 478.579 564.083 L 478.450 559.421 L 478.419 558.586 L 478.202 553.930 L 478.156 553.095 L 477.853 548.447 L 477.791 547.611 L 477.403 542.974 L 477.325 542.138 L 476.850 537.515 L 476.756 536.678 L 476.196 532.072 L 476.086 531.234 L 475.441 526.648 L 475.315 525.809 L 474.585 521.245 L 474.442 520.404 L 473.628 515.865 L 473.468 515.024 L 472.570 510.513 L 472.394 509.670 L 471.412 505.190 L 471.218 504.346 L 470.154 499.898 L 469.943 499.053 L 468.796 494.642 L 468.567 493.795 L 467.338 489.422 L 467.091 488.573 L 465.782 484.242 L 465.516 483.392 L 464.127 479.104 L 463.842 478.253 L 462.374 474.011 L 462.069 473.159 L 460.523 468.966 L 460.198 468.112 L 458.574 463.971 L 458.229 463.116 L 456.529 459.029 L 456.162 458.172 L 454.387 454.141 L 453.998 453.284 L 452.149 449.312 L 451.738 448.454 L 449.816 444.544 L 449.382 443.685 L 447.388 439.838 L 446.931 438.979 L 444.866 435.198 L 444.384 434.339 L 443.952 433.588 L 443.952 365.000 L 443.938 363.896 L 443.898 362.792 L 443.830 361.690 L 443.735 360.589 L 443.614 359.492 L 443.465 358.397 L 443.289 357.307 L 443.087 356.221 L 442.859 355.140 L 442.603 354.066 L 442.322 352.998 L 442.014 351.937 L 441.681 350.884 L 441.321 349.840 L 440.937 348.805 L 440.527 347.779 L 440.091 346.764 L 439.632 345.760 L 439.147 344.767 L 438.638 343.787 L 438.106 342.820 L 437.550 341.865 L 436.970 340.925 L 436.368 339.999 L 435.743 339.089 L 435.096 338.194 L 434.428 337.315 L 433.737 336.452 L 433.026 335.607 L 432.295 334.780 L 431.543 333.971 L 430.772 333.180 L 429.981 332.409 L 429.172 331.657 L 428.345 330.926 L 427.500 330.215 L 426.637 329.524 L 425.758 328.856 L 424.863 328.209 L 423.953 327.584 L 423.027 326.982 L 422.087 326.402 L 421.132 325.846 L 420.165 325.314 L 419.185 324.805 L 418.192 324.320 L 417.188 323.861 L 416.173 323.425 L 415.147 323.015 L 414.112 322.631 L 413.068 322.271 L 412.015 321.938 L 410.954 321.630 L 409.886 321.349 L 408.812 321.093 L 407.731 320.865 L 406.645 320.663 L 405.555 320.487 L 404.460 320.338 L 403.363 320.217 L 402.262 320.122 L 401.160 320.054 L 400.056 320.014 L 398.952 320.000 L 397.848 320.014 L 396.744 320.054 L 395.642 320.122 L 394.541 320.217 L 393.444 320.338 L 392.349 320.487 L 391.259 320.663 L 390.173 320.865 L 389.092 321.093 L 388.018 321.349 L 386.950 321.630 L 385.889 321.938 L 384.836 322.271 L 383.792 322.631 L 382.757 323.015 L 381.731 323.425 L 380.716 323.861 L 379.712 324.320 L 378.719 324.805 L 377.739 325.314 L 376.772 325.846 L 375.817 326.402 L 374.877 326.982 L 373.951 327.584 L 373.041 328.209 L 372.146 328.856 L 371.267 329.524 L 370.404 330.215 L 369.559 330.926 L 368.732 331.657 L 367.923 332.409 L 367.132 333.180 L 366.361 333.971 L 365.609 334.780 L 364.878 335.607 L 364.167 336.452 L 363.476 337.315 L 362.808 338.194 L 362.161 339.089 L 361.536 339.999 L 360.934 340.925 L 360.354 341.865 L 359.798 342.820 L 359.266 343.787 L 358.757 344.767 L 358.272 345.760 L 357.813 346.764 L 357.377 347.779 L 356.967 348.805 L 356.583 349.840 L 356.574 349.865 L 353.702 348.558 L 352.455 348.013 L 349.095 346.604 L 347.819 346.092 L 344.433 344.793 L 343.130 344.316 L 339.721 343.127 L 338.393 342.686 L 334.963 341.609 L 333.611 341.207 L 330.162 340.241 L 328.788 339.879 L 325.322 339.025 L 323.928 338.705 L 320.448 337.964 L 319.037 337.687 L 315.543 337.059 L 314.117 336.826 L 310.613 336.312 L 309.174 336.125 L 305.662 335.724 L 304.213 335.583 L 300.695 335.297 L 299.239 335.202 L 295.716 335.031 L 294.256 334.983 L 290.731 334.926 L 289.269 334.926 L 285.744 334.983 L 284.284 335.031 L 280.761 335.202 L 279.305 335.297 L 275.787 335.583 L 274.338 335.724 L 270.826 336.125 L 269.387 336.312 L 265.883 336.826 L 264.457 337.059 L 260.963 337.687 L 259.552 337.964 L 256.072 338.705 L 254.678 339.025 L 251.212 339.879 L 249.838 340.241 L 246.389 341.207 L 245.037 341.609 L 241.607 342.686 L 240.279 343.127 L 236.870 344.316 L 235.567 344.793 L 232.181 346.092 L 230.905 346.604 L 227.545 348.013 L 226.298 348.558 L 222.964 350.076 L 221.747 350.652 L 218.443 352.277 L 217.256 352.883 L 213.983 354.615 L 212.828 355.248 L 209.588 357.086 L 208.466 357.744 L 205.261 359.687 L 204.171 360.369 L 201.003 362.415 L 199.947 363.118 L 196.818 365.267 L 195.795 365.990 L 192.707 368.239 L 191.718 368.981 L 188.672 371.330 L 187.717 372.087 L 184.715 374.535 L 183.793 375.307 L 180.838 377.851 L 179.950 378.637 L 177.043 381.276 L 176.186 382.074 L 173.329 384.807 L 172.506 385.615 L 169.700 388.440 L 168.908 389.257 L 166.156 392.172 L 165.396 392.998 L 162.698 396.002 L 161.969 396.834 L 159.328 399.924 L 158.629 400.763 L 156.046 403.938 L 155.376 404.781 L 152.853 408.039 L 152.213 408.887 L 149.751 412.226 L 149.138 413.077 L 146.739 416.495 L 146.154 417.349 L 143.819 420.844 L 143.261 421.699 L 140.991 425.269 L 140.459 426.126 L 138.257 429.769 L 137.750 430.627 L 135.616 434.339 L 135.134 435.198 L 133.069 438.979 L 132.612 439.838 L 130.618 443.685 L 130.184 444.544 L 128.262 448.454 L 127.851 449.312 L 126.002 453.284 L 125.613 454.141 L 123.838 458.172 L 123.471 459.029 L 121.771 463.116 L 121.426 463.971 L 119.802 468.112 L 119.477 468.966 L 117.931 473.159 L 117.626 474.011 L 116.158 478.253 L 115.873 479.104 L 114.484 483.392 L 114.218 484.242 L 112.909 488.573 L 112.662 489.422 L 111.433 493.795 L 111.204 494.642 L 110.057 499.053 L 109.846 499.898 L 108.782 504.346 L 108.588 505.190 L 107.606 509.670 L 107.430 510.513 L 106.532 515.024 L 106.372 515.865 L 105.558 520.404 L 105.415 521.245 L 104.685 525.809 L 104.559 526.648 L 103.914 531.234 L 103.804 532.072 L 103.244 536.678 L 103.150 537.515 L 102.675 542.138 L 102.597 542.974 L 102.209 547.611 L 102.147 548.447 L 101.844 553.095 L 101.798 553.930 L 101.581 558.586 L 101.550 559.421 L 101.421 564.083 L 101.405 564.918 L 101.362 569.583 L 101.362 570.417 L 101.405 575.082 L 101.421 575.917 L 101.550 580.579 L 101.581 581.414 L 101.798 586.070 L 101.844 586.905 L 102.147 591.553 L 102.209 592.389 L 102.597 597.026 L 102.675 597.862 L 103.150 602.485 L 103.244 603.322 L 103.804 607.928 L 103.914 608.766 L 104.559 613.352 L 104.685 614.191 L 105.415 618.755 L 105.558 619.596 L 106.372 624.135 L 106.532 624.976 L 107.430 629.487 L 107.606 630.330 L 108.588 634.810 L 108.782 635.654 L 109.846 640.102 L 110.057 640.947 L 111.204 645.358 L 111.433 646.205 L 112.662 650.578 L 112.909 651.427 L 114.218 655.758 L 114.484 656.608 L 115.873 660.896 L 116.158 661.747 L 117.626 665.989 L 117.931 666.841 L 119.477 671.034 L 119.802 671.888 L 121.426 676.029 L 121.771 676.884 L 123.471 680.971 L 123.838 681.828 L 125.613 685.859 L 126.002 686.716 L 127.851 690.688 L 128.262 691.546 L 130.184 695.456 L 130.618 696.315 L 132.612 700.162 L 133.069 701.021 L 135.134 704.802 L 135.616 705.661 L 137.750 709.373 L 138.257 710.231 L 140.459 713.874 L 140.991 714.731 L 143.261 718.301 L 143.819 719.156 L 146.154 722.651 L 146.739 723.505 L 149.138 726.923 L 149.751 727.774 L 152.213 731.113 L 152.853 731.961 L 155.376 735.219 L 156.046 736.062 L 158.629 739.237 L 159.328 740.076 L 161.969 743.166 L 162.698 743.998 L 165.396 747.002 L 166.156 747.828 L 168.908 750.743 L 169.700 751.560 L 172.506 754.385 L 173.329 755.193 L 176.186 757.926 L 177.043 758.724 L 179.950 761.363 L 180.838 762.149 L 183.793 764.693 L 184.715 765.465 L 187.717 767.913 L 188.672 768.670 L 191.718 771.019 L 192.707 771.761 L 195.795 774.010 L 196.818 774.733 L 199.947 776.882 L 201.003 777.585 L 204.171 779.631 L 205.261 780.313 L 208.466 782.256 L 209.588 782.914 L 212.828 784.752 L 213.983 785.385 L 217.256 787.117 L 218.443 787.723 L 221.747 789.348 L 222.964 789.924 L 226.298 791.442 L 227.545 791.987 L 230.905 793.396 L 232.181 793.908 L 235.567 795.207 L 236.870 795.684 L 240.279 796.873 L 241.607 797.314 L 245.037 798.391 L 246.389 798.793 L 249.838 799.759 L 251.212 800.121 L 254.678 800.975 L 256.072 801.295 L 259.552 802.036 L 260.963 802.313 L 264.457 802.941 L 265.883 803.174 L 269.387 803.688 L 270.826 803.875 L 274.338 804.276 L 275.787 804.417 L 279.305 804.703 L 280.761 804.798 L 284.284 804.969 L 285.744 805.017 L 289.269 805.074 L 290.731 805.074 L 294.256 805.017 L 295.716 804.969 L 299.239 804.798 L 300.695 804.703 L 304.213 804.417 L 305.662 804.276 L 309.174 803.875 L 310.613 803.688 L 314.117 803.174 L 315.543 802.941 L 319.037 802.313 L 320.448 802.036 L 323.928 801.295 L 325.322 800.975 L 328.788 800.121 L 330.162 799.759 L 333.611 798.793 L 334.963 798.391 L 338.393 797.314 L 339.721 796.873 L 343.130 795.684 L 344.433 795.207 L 347.819 793.908 L 349.095 793.396 L 352.455 791.987 L 353.702 791.442 L 356.574 790.135 L 356.583 790.160 L 356.967 791.195 L 357.377 792.221 L 357.813 793.236 L 358.272 794.240 L 358.757 795.233 L 359.266 796.213 L 359.798 797.180 L 360.354 798.135 L 360.934 799.075 L 361.536 800.001 L 362.161 800.911 L 362.808 801.806 L 363.476 802.685 L 364.167 803.548 L 364.878 804.393 L 365.609 805.220 L 366.361 806.029 L 367.132 806.820 L 367.923 807.591 L 368.732 808.343 L 369.559 809.074 L 370.404 809.785 L 371.267 810.476 L 372.146 811.144 L 373.041 811.791 L 373.951 812.416 L 374.877 813.018 L 375.817 813.598 L 376.772 814.154 L 377.739 814.686 L 378.719 815.195 L 379.712 815.680 L 380.716 816.139 L 381.731 816.575 L 382.757 816.985 L 383.792 817.369 L 384.836 817.729 L 385.889 818.062 L 386.950 818.370 L 388.018 818.651 L 389.092 818.907 L 390.173 819.135 L 391.259 819.337 L 392.349 819.513 L 393.444 819.662 L 394.541 819.783 L 395.642 819.878 L 396.744 819.946 L 397.848 819.986 L 398.952 820.000 L 400.056 819.986 L 401.160 819.946 L 402.262 819.878 L 403.363 819.783 L 404.460 819.662 L 405.555 819.513 L 406.645 819.337 L 407.731 819.135 L 408.812 818.907 L 409.886 818.651 L 410.954 818.370 L 412.015 818.062 L 413.068 817.729 L 414.112 817.369 L 415.147 816.985 L 416.173 816.575 L 417.188 816.139 L 418.192 815.680 L 419.185 815.195 L 420.165 814.686 L 421.132 814.154 L 422.087 813.598 L 423.027 813.018 L 423.953 812.416 L 424.863 811.791 L 425.758 811.144 L 426.637 810.476 L 427.500 809.785 L 428.345 809.074 L 429.172 808.343 L 429.981 807.591 L 430.772 806.820 L 431.543 806.029 L 432.295 805.220 L 433.026 804.393 L 433.737 803.548 L 434.428 802.685 L 435.096 801.806 L 435.743 800.911 L 436.368 800.001 L 436.970 799.075 L 437.550 798.135 L 438.106 797.180 L 438.638 796.213 L 439.147 795.233 L 439.632 794.240 L 440.091 793.236 L 440.527 792.221 L 440.937 791.195 L 441.321 790.160 L 441.681 789.116 L 442.014 788.063 L 442.322 787.002 L 442.603 785.934 L 442.859 784.860 L 443.087 783.779 L 443.289 782.693 L 443.465 781.603 L 443.614 780.508 L 443.735 779.411 L 443.830 778.310 L 443.898 777.208 L 443.938 776.104 L 443.952 775.000 L 443.952 706.412 L 444.384 705.661 L 444.866 704.802 L 446.931 701.021 L 447.388 700.162 L 449.382 696.315 L 449.816 695.456 L 451.738 691.546 L 452.149 690.688 L 453.998 686.716 L 454.387 685.859 L 456.162 681.828 L 456.529 680.971 L 458.229 676.884 L 458.574 676.029 L 460.198 671.888 L 460.523 671.034 L 462.069 666.841 L 462.374 665.989 L 463.842 661.747 L 464.127 660.896 L 465.516 656.608 L 465.782 655.758 L 467.091 651.427 L 467.338 650.578 L 468.567 646.205 L 468.796 645.358 L 469.943 640.947 L 470.154 640.102 L 471.218 635.654 L 471.412 634.810 L 472.394 630.330 L 472.570 629.487 L 473.468 624.976 L 473.628 624.135 L 474.442 619.596 L 474.585 618.755 L 475.315 614.191 L 475.441 613.352 L 476.086 608.766 L 476.196 607.928 L 476.756 603.322 L 476.850 602.485 L 477.325 597.862 L 477.403 597.026 L 477.791 592.389 L 477.853 591.553 L 478.156 586.905 L 478.202 586.070 L 478.419 581.414 L 478.450 580.579 L 478.579 575.917 L 478.595 575.082 L 478.638 570.417 L 478.638 569.583 Z M 353.797 679.685 L 351.899 682.019 L 349.972 684.274 L 348.019 686.448 L 346.043 688.541 L 344.045 690.553 L 342.027 692.483 L 339.993 694.330 L 337.943 696.094 L 335.881 697.776 L 333.807 699.375 L 331.725 700.892 L 329.635 702.327 L 327.539 703.680 L 325.440 704.953 L 323.338 706.145 L 321.236 707.258 L 319.133 708.292 L 317.032 709.249 L 314.932 710.129 L 312.836 710.933 L 310.743 711.663 L 308.653 712.320 L 306.568 712.904 L 304.486 713.417 L 302.408 713.860 L 300.334 714.232 L 298.263 714.536 L 296.195 714.772 L 294.129 714.940 L 292.064 715.041 L 290.000 715.074 L 287.936 715.041 L 285.871 714.940 L 283.805 714.772 L 281.737 714.536 L 279.666 714.232 L 277.592 713.860 L 275.514 713.417 L 273.432 712.904 L 271.347 712.320 L 269.257 711.663 L 267.164 710.933 L 265.068 710.129 L 262.968 709.249 L 260.867 708.292 L 258.764 707.258 L 256.662 706.145 L 254.560 704.953 L 252.461 703.680 L 250.365 702.327 L 248.275 700.892 L 246.193 699.375 L 244.119 697.776 L 242.057 696.094 L 240.007 694.330 L 237.973 692.483 L 235.955 690.553 L 233.957 688.541 L 231.981 686.448 L 230.028 684.274 L 228.101 682.019 L 226.203 679.685 L 224.334 677.273 L 222.499 674.784 L 220.698 672.218 L 218.934 669.579 L 217.209 666.866 L 215.525 664.081 L 213.884 661.227 L 212.288 658.305 L 210.739 655.318 L 209.239 652.266 L 207.789 649.152 L 206.391 645.979 L 205.047 642.748 L 203.759 639.462 L 202.528 636.123 L 201.354 632.734 L 200.241 629.296 L 199.189 625.814 L 198.199 622.289 L 197.272 618.724 L 196.409 615.121 L 195.612 611.484 L 194.881 607.815 L 194.218 604.117 L 193.622 600.393 L 193.095 596.645 L 192.637 592.877 L 192.248 589.091 L 191.929 585.291 L 191.681 581.478 L 191.504 577.657 L 191.397 573.830 L 191.362 570.000 L 191.397 566.170 L 191.504 562.343 L 191.681 558.522 L 191.929 554.709 L 192.248 550.909 L 192.637 547.123 L 193.095 543.355 L 193.622 539.607 L 194.218 535.883 L 194.881 532.185 L 195.612 528.516 L 196.409 524.879 L 197.272 521.276 L 198.199 517.711 L 199.189 514.186 L 200.241 510.704 L 201.354 507.266 L 202.528 503.877 L 203.759 500.538 L 205.047 497.252 L 206.391 494.021 L 207.789 490.848 L 209.239 487.734 L 210.739 484.682 L 212.288 481.695 L 213.884 478.773 L 215.525 475.919 L 217.209 473.134 L 218.934 470.421 L 220.698 467.782 L 222.499 465.216 L 224.334 462.727 L 226.203 460.315 L 228.101 457.981 L 230.028 455.726 L 231.981 453.552 L 233.957 451.459 L 235.955 449.447 L 237.973 447.517 L 240.007 445.670 L 242.057 443.906 L 244.119 442.224 L 246.193 440.625 L 248.275 439.108 L 250.365 437.673 L 252.461 436.320 L 254.560 435.047 L 256.662 433.855 L 258.764 432.742 L 260.867 431.708 L 262.968 430.751 L 265.068 429.871 L 267.164 429.067 L 269.257 428.337 L 271.347 427.680 L 273.432 427.096 L 275.514 426.583 L 277.592 426.140 L 279.666 425.768 L 281.737 425.464 L 283.805 425.228 L 285.871 425.060 L 287.936 424.959 L 290.000 424.926 L 292.064 424.959 L 294.129 425.060 L 296.195 425.228 L 298.263 425.464 L 300.334 425.768 L 302.408 426.140 L 304.486 426.583 L 306.568 427.096 L 308.653 427.680 L 310.743 428.337 L 312.836 429.067 L 314.932 429.871 L 317.032 430.751 L 319.133 431.708 L 321.236 432.742 L 323.338 433.855 L 325.440 435.047 L 327.539 436.320 L 329.635 437.673 L 331.725 439.108 L 333.807 440.625 L 335.881 442.224 L 337.943 443.906 L 339.993 445.670 L 342.027 447.517 L 344.045 449.447 L 346.043 451.459 L 348.019 453.552 L 349.972 455.726 L 351.899 457.981 L 353.797 460.315 L 353.952 460.514 L 353.952 530.000 L 292.020 530.000 L 290.916 530.014 L 289.812 530.054 L 288.710 530.122 L 287.609 530.217 L 286.512 530.338 L 285.417 530.487 L 284.327 530.663 L 283.241 530.865 L 282.160 531.093 L 281.086 531.349 L 280.018 531.630 L 278.957 531.938 L 277.904 532.271 L 276.860 532.631 L 275.825 533.015 L 274.799 533.425 L 273.784 533.861 L 272.780 534.320 L 271.787 534.805 L 270.807 535.314 L 269.840 535.846 L 268.885 536.402 L 267.945 536.982 L 267.019 537.584 L 266.109 538.209 L 265.214 538.856 L 264.335 539.524 L 263.472 540.215 L 262.627 540.926 L 261.800 541.657 L 260.991 542.409 L 260.200 543.180 L 259.429 543.971 L 258.677 544.780 L 257.946 545.607 L 257.235 546.452 L 256.544 547.315 L 255.876 548.194 L 255.229 549.089 L 254.604 549.999 L 254.002 550.925 L 253.422 551.865 L 252.866 552.820 L 252.334 553.787 L 251.825 554.767 L 251.340 555.760 L 250.881 556.764 L 250.445 557.779 L 250.035 558.805 L 249.651 559.840 L 249.291 560.884 L 248.958 561.937 L 248.650 562.998 L 248.369 564.066 L 248.113 565.140 L 247.885 566.221 L 247.683 567.307 L 247.507 568.397 L 247.358 569.492 L 247.237 570.589 L 247.142 571.690 L 247.074 572.792 L 247.034 573.896 L 247.020 575.000 L 247.034 576.104 L 247.074 577.208 L 247.142 578.310 L 247.237 579.411 L 247.358 580.508 L 247.507 581.603 L 247.683 582.693 L 247.885 583.779 L 248.113 584.860 L 248.369 585.934 L 248.650 587.002 L 248.958 588.063 L 249.291 589.116 L 249.651 590.160 L 250.035 591.195 L 250.445 592.221 L 250.881 593.236 L 251.340 594.240 L 251.825 595.233 L 252.334 596.213 L 252.866 597.180 L 253.422 598.135 L 254.002 599.075 L 254.604 600.001 L 255.229 600.911 L 255.876 601.806 L 256.544 602.685 L 257.235 603.548 L 257.946 604.393 L 258.677 605.220 L 259.429 606.029 L 260.200 606.820 L 260.991 607.591 L 261.800 608.343 L 262.627 609.074 L 263.472 609.785 L 264.335 610.476 L 265.214 611.144 L 266.109 611.791 L 267.019 612.416 L 267.945 613.018 L 268.885 613.598 L 269.840 614.154 L 270.807 614.686 L 271.787 615.195 L 272.780 615.680 L 273.784 616.139 L 274.799 616.575 L 275.825 616.985 L 276.860 617.369 L 277.904 617.729 L 278.957 618.062 L 280.018 618.370 L 281.086 618.651 L 282.160 618.907 L 283.241 619.135 L 284.327 619.337 L 285.417 619.513 L 286.512 619.662 L 287.609 619.783 L 288.710 619.878 L 289.812 619.946 L 290.916 619.986 L 292.020 620.000 L 353.952 620.000 L 353.952 679.486 L 353.797 679.685 Z" fill="black" fill-rule="evenodd"/>
</svg>
