<svg xmlns="http://www.w3.org/2000/svg" viewBox="0 0 600.000 1000">
  <path d="M 255.014 961.104 L 255.054 962.208 L 255.122 963.310 L 255.217 964.411 L 255.338 965.508 L 255.487 966.603 L 255.663 967.693 L 255.865 968.779 L 256.093 969.860 L 256.349 970.934 L 256.630 972.002 L 256.938 973.063 L 257.271 974.116 L 257.631 975.160 L 258.015 976.195 L 258.425 977.221 L 258.861 978.236 L 259.320 979.240 L 259.805 980.233 L 260.314 981.213 L 260.846 982.180 L 261.402 983.135 L 261.982 984.075 L 262.584 985.001 L 263.209 985.911 L 263.856 986.806 L 264.524 987.685 L 265.215 988.548 L 265.926 989.393 L 266.657 990.220 L 267.409 991.029 L 268.180 991.820 L 268.971 992.591 L 269.780 993.343 L 270.607 994.074 L 271.452 994.785 L 272.315 995.476 L 273.194 996.144 L 274.089 996.791 L 274.999 997.416 L 275.925 998.018 L 276.865 998.598 L 277.820 999.154 L 278.787 999.686 L 279.767 1000.195 L 280.760 1000.680 L 281.764 1001.139 L 282.779 1001.575 L 283.805 1001.985 L 284.840 1002.369 L 285.884 1002.729 L 286.937 1003.062 L 287.998 1003.370 L 289.066 1003.651 L 290.140 1003.907 L 291.221 1004.135 L 292.307 1004.337 L 293.397 1004.513 L 294.492 1004.662 L 295.589 1004.783 L 296.690 1004.878 L 297.792 1004.946 L 298.896 1004.986 L 300.000 1005.000 L 301.104 1004.986 L 302.208 1004.946 L 303.310 1004.878 L 304.411 1004.783 L 305.508 1004.662 L 306.603 1004.513 L 307.693 1004.337 L 308.779 1004.135 L 309.860 1003.907 L 310.934 1003.651 L 312.002 1003.370 L 313.063 1003.062 L 314.116 1002.729 L 315.160 1002.369 L 316.195 1001.985 L 317.221 1001.575 L 318.236 1001.139 L 319.240 1000.680 L 320.233 1000.195 L 321.213 999.686 L 322.180 999.154 L 323.135 998.598 L 324.075 998.018 L 325.001 997.416 L 325.911 996.791 L 326.806 996.144 L 327.685 995.476 L 328.548 994.785 L 329.393 994.074 L 330.220 993.343 L 331.029 992.591 L 331.820 991.820 L 332.591 991.029 L 333.343 990.220 L 334.074 989.393 L 334.785 988.548 L 335.476 987.685 L 336.144 986.806 L 336.791 985.911 L 337.416 985.001 L 338.018 984.075 L 338.598 983.135 L 339.154 982.180 L 339.686 981.213 L 340.195 980.233 L 340.680 979.240 L 341.139 978.236 L 341.575 977.221 L 341.985 976.195 L 342.369 975.160 L 342.729 974.116 L 343.062 973.063 L 343.370 972.002 L 343.651 970.934 L 343.907 969.860 L 344.135 968.779 L 344.337 967.693 L 344.513 966.603 L 344.662 965.508 L 344.783 964.411 L 344.878 963.310 L 344.946 962.208 L 344.986 961.104 L 345.000 960.000 L 345.000 350.000 L 344.986 348.896 L 344.946 347.792 L 344.878 346.690 L 344.783 345.589 L 344.662 344.492 L 344.513 343.397 L 344.337 342.307 L 344.135 341.221 L 343.907 340.140 L 343.651 339.066 L 343.370 337.998 L 343.062 336.937 L 342.729 335.884 L 342.369 334.840 L 341.985 333.805 L 341.575 332.779 L 341.139 331.764 L 340.680 330.760 L 340.195 329.767 L 339.686 328.787 L 339.154 327.820 L 338.598 326.865 L 338.018 325.925 L 337.416 324.999 L 336.791 324.089 L 336.144 323.194 L 335.476 322.315 L 334.785 321.452 L 334.074 320.607 L 333.343 319.780 L 332.591 318.971 L 331.820 318.180 L 331.029 317.409 L 330.220 316.657 L 329.393 315.926 L 328.548 315.215 L 327.685 314.524 L 326.806 313.856 L 325.911 313.209 L 325.001 312.584 L 324.075 311.982 L 323.135 311.402 L 322.180 310.846 L 321.213 310.314 L 320.233 309.805 L 319.240 309.320 L 318.236 308.861 L 317.221 308.425 L 316.195 308.015 L 315.160 307.631 L 314.116 307.271 L 313.063 306.938 L 312.002 306.630 L 310.934 306.349 L 309.860 306.093 L 308.779 305.865 L 307.693 305.663 L 306.603 305.487 L 305.508 305.338 L 304.411 305.217 L 303.310 305.122 L 302.208 305.054 L 301.104 305.014 L 300.000 305.000 L 298.896 305.014 L 297.792 305.054 L 296.690 305.122 L 295.589 305.217 L 294.492 305.338 L 293.397 305.487 L 292.307 305.663 L 291.221 305.865 L 290.140 306.093 L 289.066 306.349 L 287.998 306.630 L 286.937 306.938 L 285.884 307.271 L 284.840 307.631 L 283.805 308.015 L 282.779 308.425 L 281.764 308.861 L 280.760 309.320 L 279.767 309.805 L 278.787 310.314 L 277.820 310.846 L 276.865 311.402 L 275.925 311.982 L 274.999 312.584 L 274.089 313.209 L 273.194 313.856 L 272.315 314.524 L 271.452 315.215 L 270.607 315.926 L 269.780 316.657 L 268.971 317.409 L 268.180 318.180 L 267.409 318.971 L 266.657 319.780 L 265.926 320.607 L 265.215 321.452 L 264.524 322.315 L 263.856 323.194 L 263.209 324.089 L 262.584 324.999 L 261.982 325.925 L 261.402 326.865 L 260.846 327.820 L 260.314 328.787 L 259.805 329.767 L 259.320 330.760 L 258.861 331.764 L 258.425 332.779 L 258.015 333.805 L 257.631 334.840 L 257.271 335.884 L 256.938 336.937 L 256.630 337.998 L 256.349 339.066 L 256.093 340.140 L 255.865 341.221 L 255.663 342.307 L 255.487 343.397 L 255.338 344.492 L 255.217 345.589 L 255.122 346.690 L 255.054 347.792 L 255.014 348.896 L 255.000 350.000 L 255.000 960.000 L 255.014 961.104 Z M 331.491 189.227 L 331.462 188.454 L 331.415 187.683 L 331.348 186.912 L 331.263 186.144 L 331.159 185.378 L 331.036 184.615 L 330.895 183.855 L 330.735 183.098 L 330.556 182.346 L 330.359 181.599 L 330.144 180.856 L 329.910 180.119 L 329.659 179.388 L 329.389 178.663 L 329.102 177.945 L 328.798 177.235 L 328.476 176.532 L 328.137 175.837 L 327.781 175.151 L 327.408 174.474 L 327.018 173.806 L 326.613 173.148 L 326.191 172.500 L 325.754 171.862 L 325.301 171.235 L 324.833 170.620 L 324.350 170.017 L 323.852 169.425 L 323.340 168.846 L 322.814 168.279 L 322.274 167.726 L 321.721 167.186 L 321.154 166.660 L 320.575 166.148 L 319.983 165.650 L 319.380 165.167 L 318.765 164.699 L 318.138 164.246 L 317.500 163.809 L 316.852 163.387 L 316.194 162.982 L 315.526 162.592 L 314.849 162.219 L 314.163 161.863 L 313.468 161.524 L 312.765 161.202 L 312.055 160.898 L 311.337 160.611 L 310.612 160.341 L 309.881 160.090 L 309.144 159.856 L 308.401 159.641 L 307.654 159.444 L 306.902 159.265 L 306.145 159.105 L 305.385 158.964 L 304.622 158.841 L 303.856 158.737 L 303.088 158.652 L 302.317 158.585 L 301.546 158.538 L 300.773 158.509 L 300.000 158.500 L 299.227 158.509 L 298.454 158.538 L 297.683 158.585 L 296.912 158.652 L 296.144 158.737 L 295.378 158.841 L 294.615 158.964 L 293.855 159.105 L 293.098 159.265 L 292.346 159.444 L 291.599 159.641 L 290.856 159.856 L 290.119 160.090 L 289.388 160.341 L 288.663 160.611 L 287.945 160.898 L 287.235 161.202 L 286.532 161.524 L 285.837 161.863 L 285.151 162.219 L 284.474 162.592 L 283.806 162.982 L 283.148 163.387 L 282.500 163.809 L 281.862 164.246 L 281.235 164.699 L 280.620 165.167 L 280.017 165.650 L 279.425 166.148 L 278.846 166.660 L 278.279 167.186 L 277.726 167.726 L 277.186 168.279 L 276.660 168.846 L 276.148 169.425 L 275.650 170.017 L 275.167 170.620 L 274.699 171.235 L 274.246 171.862 L 273.809 172.500 L 273.387 173.148 L 272.982 173.806 L 272.592 174.474 L 272.219 175.151 L 271.863 175.837 L 271.524 176.532 L 271.202 177.235 L 270.898 177.945 L 270.611 178.663 L 270.341 179.388 L 270.090 180.119 L 269.856 180.856 L 269.641 181.599 L 269.444 182.346 L 269.265 183.098 L 269.105 183.855 L 268.964 184.615 L 268.841 185.378 L 268.737 186.144 L 268.652 186.912 L 268.585 187.683 L 268.538 188.454 L 268.509 189.227 L 268.500 190.000 L 268.509 190.773 L 268.538 191.546 L 268.585 192.317 L 268.652 193.088 L 268.737 193.856 L 268.841 194.622 L 268.964 195.385 L 269.105 196.145 L 269.265 196.902 L 269.444 197.654 L 269.641 198.401 L 269.856 199.144 L 270.090 199.881 L 270.341 200.612 L 270.611 201.337 L 270.898 202.055 L 271.202 202.765 L 271.524 203.468 L 271.863 204.163 L 272.219 204.849 L 272.592 205.526 L 272.982 206.194 L 273.387 206.852 L 273.809 207.500 L 274.246 208.138 L 274.699 208.765 L 275.167 209.380 L 275.650 209.983 L 276.148 210.575 L 276.660 211.154 L 277.186 211.721 L 277.726 212.274 L 278.279 212.814 L 278.846 213.340 L 279.425 213.852 L 280.017 214.350 L 280.620 214.833 L 281.235 215.301 L 281.862 215.754 L 282.500 216.191 L 283.148 216.613 L 283.806 217.018 L 284.474 217.408 L 285.151 217.781 L 285.837 218.137 L 286.532 218.476 L 287.235 218.798 L 287.945 219.102 L 288.663 219.389 L 289.388 219.659 L 290.119 219.910 L 290.856 220.144 L 291.599 220.359 L 292.346 220.556 L 293.098 220.735 L 293.855 220.895 L 294.615 221.036 L 295.378 221.159 L 296.144 221.263 L 296.912 221.348 L 297.683 221.415 L 298.454 221.462 L 299.227 221.491 L 300.000 221.500 L 300.773 221.491 L 301.546 221.462 L 302.317 221.415 L 303.088 221.348 L 303.856 221.263 L 304.622 221.159 L 305.385 221.036 L 306.145 220.895 L 306.902 220.735 L 307.654 220.556 L 308.401 220.359 L 309.144 220.144 L 309.881 219.910 L 310.612 219.659 L 311.337 219.389 L 312.055 219.102 L 312.765 218.798 L 313.468 218.476 L 314.163 218.137 L 314.849 217.781 L 315.526 217.408 L 316.194 217.018 L 316.852 216.613 L 317.500 216.191 L 318.138 215.754 L 318.765 215.301 L 319.380 214.833 L 319.983 214.350 L 320.575 213.852 L 321.154 213.340 L 321.721 212.814 L 322.274 212.274 L 322.814 211.721 L 323.340 211.154 L 323.852 210.575 L 324.350 209.983 L 324.833 209.380 L 325.301 208.765 L 325.754 208.138 L 326.191 207.500 L 326.613 206.852 L 327.018 206.194 L 327.408 205.526 L 327.781 204.849 L 328.137 204.163 L 328.476 203.468 L 328.798 202.765 L 329.102 202.055 L 329.389 201.337 L 329.659 200.612 L 329.910 199.881 L 330.144 199.144 L 330.359 198.401 L 330.556 197.654 L 330.735 196.902 L 330.895 196.145 L 331.036 195.385 L 331.159 194.622 L 331.263 193.856 L 331.348 193.088 L 331.415 192.317 L 331.462 191.546 L 331.491 190.773 L 331.500 190.000 L 331.491 189.227 Z" fill="black" fill-rule="evenodd"/>
</svg>
