<svg xmlns="http://www.w3.org/2000/svg" viewBox="0 0 600.000 1000">
  <path d="M 288.896 215.014 L 287.792 215.054 L 286.690 215.122 L 285.589 215.217 L 284.492 215.338 L 283.397 215.487 L 282.307 215.663 L 281.221 215.865 L 280.140 216.093 L 279.066 216.349 L 277.998 216.630 L 276.937 216.938 L 275.884 217.271 L 274.840 217.631 L 273.805 218.015 L 272.779 218.425 L 271.764 218.861 L 270.760 219.320 L 269.767 219.805 L 268.787 220.314 L 267.820 220.846 L 266.865 221.402 L 265.925 221.982 L 264.999 222.584 L 264.089 223.209 L 263.194 223.856 L 262.315 224.524 L 261.452 225.215 L 260.607 225.926 L 259.780 226.657 L 258.971 227.409 L 258.180 228.180 L 257.409 228.971 L 256.657 229.780 L 255.926 230.607 L 255.215 231.452 L 254.524 232.315 L 253.856 233.194 L 253.209 234.089 L 252.584 234.999 L 251.982 235.925 L 251.402 236.865 L 250.846 237.820 L 250.314 238.787 L 249.805 239.767 L 249.320 240.760 L 248.861 241.764 L 248.425 242.779 L 248.015 243.805 L 247.631 244.840 L 247.271 245.884 L 246.938 246.937 L 246.630 247.998 L 246.349 249.066 L 246.093 250.140 L 245.865 251.221 L 245.663 252.307 L 245.654 252.362 L 244.506 252.705 L 243.541 253.005 L 241.073 253.804 L 240.122 254.123 L 237.662 254.980 L 236.727 255.317 L 234.276 256.232 L 233.356 256.587 L 230.916 257.559 L 230.012 257.931 L 227.582 258.961 L 226.695 259.348 L 224.276 260.436 L 223.405 260.838 L 220.998 261.982 L 220.146 262.399 L 217.751 263.599 L 216.916 264.029 L 214.534 265.286 L 213.717 265.729 L 211.349 267.042 L 210.550 267.496 L 208.196 268.865 L 207.415 269.329 L 205.076 270.754 L 204.313 271.228 L 201.989 272.708 L 201.245 273.192 L 198.937 274.726 L 198.212 275.218 L 195.920 276.807 L 195.213 277.307 L 192.938 278.949 L 192.250 279.457 L 189.993 281.153 L 189.322 281.666 L 187.083 283.415 L 186.431 283.935 L 184.211 285.736 L 183.576 286.261 L 181.375 288.115 L 180.758 288.644 L 178.577 290.550 L 177.977 291.083 L 175.817 293.040 L 175.234 293.577 L 173.095 295.584 L 172.529 296.124 L 170.411 298.182 L 169.862 298.724 L 167.766 300.832 L 167.233 301.376 L 165.159 303.533 L 164.643 304.079 L 162.592 306.284 L 162.091 306.832 L 160.064 309.086 L 159.578 309.634 L 157.575 311.935 L 157.105 312.485 L 155.126 314.832 L 154.670 315.382 L 152.717 317.776 L 152.276 318.326 L 150.348 320.766 L 149.920 321.316 L 148.019 323.801 L 147.605 324.350 L 145.730 326.880 L 145.329 327.429 L 143.481 330.002 L 143.094 330.550 L 141.273 333.167 L 140.898 333.714 L 139.105 336.373 L 138.743 336.919 L 136.978 339.620 L 136.629 340.164 L 134.893 342.907 L 134.554 343.450 L 132.848 346.233 L 132.521 346.774 L 130.844 349.598 L 130.528 350.137 L 128.881 353.000 L 128.577 353.537 L 126.960 356.439 L 126.666 356.974 L 125.080 359.913 L 124.797 360.447 L 123.242 363.423 L 122.969 363.955 L 121.446 366.967 L 121.182 367.497 L 119.691 370.545 L 119.437 371.072 L 117.979 374.155 L 117.734 374.681 L 116.308 377.797 L 116.073 378.321 L 114.680 381.471 L 114.453 381.992 L 113.094 385.175 L 112.876 385.694 L 111.550 388.908 L 111.340 389.426 L 110.049 392.671 L 109.847 393.186 L 108.590 396.461 L 108.397 396.974 L 107.175 400.278 L 106.989 400.789 L 105.802 404.122 L 105.624 404.631 L 104.472 407.992 L 104.301 408.499 L 103.185 411.886 L 103.022 412.391 L 101.941 415.804 L 101.785 416.307 L 100.741 419.745 L 100.592 420.247 L 99.584 423.709 L 99.442 424.209 L 98.470 427.694 L 98.335 428.192 L 97.401 431.700 L 97.272 432.196 L 96.374 435.726 L 96.252 436.220 L 95.392 439.771 L 95.276 440.264 L 94.454 443.834 L 94.343 444.326 L 93.559 447.915 L 93.455 448.405 L 92.709 452.012 L 92.610 452.501 L 91.902 456.125 L 91.810 456.612 L 91.140 460.253 L 91.054 460.739 L 90.422 464.395 L 90.341 464.880 L 89.749 468.550 L 89.673 469.034 L 89.120 472.718 L 89.050 473.200 L 88.535 476.897 L 88.471 477.378 L 87.995 481.087 L 87.936 481.567 L 87.500 485.287 L 87.446 485.766 L 87.049 489.495 L 87.001 489.974 L 86.643 493.712 L 86.600 494.190 L 86.282 497.936 L 86.244 498.414 L 85.965 502.167 L 85.932 502.644 L 85.693 506.403 L 85.666 506.879 L 85.466 510.644 L 85.444 511.120 L 85.284 514.888 L 85.267 515.364 L 85.147 519.136 L 85.135 519.611 L 85.055 523.386 L 85.047 523.861 L 85.007 527.637 L 85.005 528.112 L 85.005 531.888 L 85.007 532.363 L 85.047 536.139 L 85.055 536.614 L 85.135 540.389 L 85.147 540.864 L 85.267 544.636 L 85.284 545.112 L 85.444 548.880 L 85.466 549.356 L 85.666 553.121 L 85.693 553.597 L 85.932 557.356 L 85.965 557.833 L 86.244 561.586 L 86.282 562.064 L 86.600 565.810 L 86.643 566.288 L 87.001 570.026 L 87.049 570.505 L 87.446 574.234 L 87.500 574.713 L 87.936 578.433 L 87.995 578.913 L 88.471 582.622 L 88.535 583.103 L 89.050 586.800 L 89.120 587.282 L 89.673 590.966 L 89.749 591.450 L 90.341 595.120 L 90.422 595.605 L 91.054 599.261 L 91.140 599.747 L 91.810 603.388 L 91.902 603.875 L 92.610 607.499 L 92.709 607.988 L 93.455 611.595 L 93.559 612.085 L 94.343 615.674 L 94.454 616.166 L 95.276 619.736 L 95.392 620.229 L 96.252 623.780 L 96.374 624.274 L 97.272 627.804 L 97.401 628.300 L 98.335 631.808 L 98.470 632.306 L 99.442 635.791 L 99.584 636.291 L 100.592 639.753 L 100.741 640.255 L 101.785 643.693 L 101.941 644.196 L 103.022 647.609 L 103.185 648.114 L 104.301 651.501 L 104.472 652.008 L 105.624 655.369 L 105.802 655.878 L 106.989 659.211 L 107.175 659.722 L 108.397 663.026 L 108.590 663.539 L 109.847 666.814 L 110.049 667.329 L 111.340 670.574 L 111.550 671.092 L 112.876 674.306 L 113.094 674.825 L 114.453 678.008 L 114.680 678.529 L 116.073 681.679 L 116.308 682.203 L 117.734 685.319 L 117.979 685.845 L 119.437 688.928 L 119.691 689.455 L 121.182 692.503 L 121.446 693.033 L 122.969 696.045 L 123.242 696.577 L 124.797 699.553 L 125.080 700.087 L 126.666 703.026 L 126.960 703.561 L 128.577 706.463 L 128.881 707.000 L 130.528 709.863 L 130.844 710.402 L 132.521 713.226 L 132.848 713.767 L 134.554 716.550 L 134.893 717.093 L 136.629 719.836 L 136.978 720.380 L 138.743 723.081 L 139.105 723.627 L 140.898 726.286 L 141.273 726.833 L 143.094 729.450 L 143.481 729.998 L 145.329 732.571 L 145.730 733.120 L 147.605 735.650 L 148.019 736.199 L 149.920 738.684 L 150.348 739.234 L 152.276 741.674 L 152.717 742.224 L 154.670 744.618 L 155.126 745.168 L 157.105 747.515 L 157.575 748.065 L 159.578 750.366 L 160.064 750.914 L 162.091 753.168 L 162.592 753.716 L 164.643 755.921 L 165.159 756.467 L 167.233 758.624 L 167.766 759.168 L 169.862 761.276 L 170.411 761.818 L 172.529 763.876 L 173.095 764.416 L 175.234 766.423 L 175.817 766.960 L 177.977 768.917 L 178.577 769.450 L 180.758 771.356 L 181.375 771.885 L 183.576 773.739 L 184.211 774.264 L 186.431 776.065 L 187.083 776.585 L 189.322 778.334 L 189.993 778.847 L 192.250 780.543 L 192.938 781.051 L 195.213 782.693 L 195.920 783.193 L 198.212 784.782 L 198.937 785.274 L 201.245 786.808 L 201.989 787.292 L 204.313 788.772 L 205.076 789.246 L 207.415 790.671 L 208.196 791.135 L 210.550 792.504 L 211.349 792.958 L 213.717 794.271 L 214.534 794.714 L 216.916 795.971 L 217.751 796.401 L 220.146 797.601 L 220.998 798.018 L 223.405 799.162 L 224.276 799.564 L 226.695 800.652 L 227.582 801.039 L 230.012 802.069 L 230.916 802.441 L 233.356 803.413 L 234.276 803.768 L 236.727 804.683 L 237.662 805.020 L 240.122 805.877 L 241.073 806.196 L 243.541 806.995 L 244.506 807.295 L 246.983 808.036 L 247.961 808.316 L 250.445 808.998 L 251.436 809.258 L 253.927 809.881 L 254.930 810.119 L 256.997 810.586 L 257.409 811.029 L 258.180 811.820 L 258.971 812.591 L 259.780 813.343 L 260.607 814.074 L 261.452 814.785 L 262.315 815.476 L 263.194 816.144 L 264.089 816.791 L 264.999 817.416 L 265.925 818.018 L 266.865 818.598 L 267.820 819.154 L 268.787 819.686 L 269.767 820.195 L 270.760 820.680 L 271.764 821.139 L 272.779 821.575 L 273.805 821.985 L 274.840 822.369 L 275.884 822.729 L 276.937 823.062 L 277.998 823.370 L 279.066 823.651 L 280.140 823.907 L 281.221 824.135 L 282.307 824.337 L 283.397 824.513 L 284.492 824.662 L 285.589 824.783 L 286.690 824.878 L 287.792 824.946 L 288.896 824.986 L 290.000 825.000 L 435.000 825.000 L 436.104 824.986 L 437.208 824.946 L 438.310 824.878 L 439.411 824.783 L 440.508 824.662 L 441.603 824.513 L 442.693 824.337 L 443.779 824.135 L 444.860 823.907 L 445.934 823.651 L 447.002 823.370 L 448.063 823.062 L 449.116 822.729 L 450.160 822.369 L 451.195 821.985 L 452.221 821.575 L 453.236 821.139 L 454.240 820.680 L 455.233 820.195 L 456.213 819.686 L 457.180 819.154 L 458.135 818.598 L 459.075 818.018 L 460.001 817.416 L 460.911 816.791 L 461.806 816.144 L 462.685 815.476 L 463.548 814.785 L 464.393 814.074 L 465.220 813.343 L 466.029 812.591 L 466.820 811.820 L 467.591 811.029 L 468.343 810.220 L 469.074 809.393 L 469.785 808.548 L 470.476 807.685 L 471.144 806.806 L 471.791 805.911 L 472.416 805.001 L 473.018 804.075 L 473.598 803.135 L 474.154 802.180 L 474.686 801.213 L 475.195 800.233 L 475.680 799.240 L 476.139 798.236 L 476.575 797.221 L 476.985 796.195 L 477.369 795.160 L 477.729 794.116 L 478.062 793.063 L 478.370 792.002 L 478.651 790.934 L 478.907 789.860 L 479.135 788.779 L 479.337 787.693 L 479.513 786.603 L 479.662 785.508 L 479.783 784.411 L 479.878 783.310 L 479.946 782.208 L 479.986 781.104 L 480.000 780.000 L 480.000 260.000 L 480.000 40.000 L 479.986 38.896 L 479.946 37.792 L 479.878 36.690 L 479.783 35.589 L 479.662 34.492 L 479.513 33.397 L 479.337 32.307 L 479.135 31.221 L 478.907 30.140 L 478.651 29.066 L 478.370 27.998 L 478.062 26.937 L 477.729 25.884 L 477.369 24.840 L 476.985 23.805 L 476.575 22.779 L 476.139 21.764 L 475.680 20.760 L 475.195 19.767 L 474.686 18.787 L 474.154 17.820 L 473.598 16.865 L 473.018 15.925 L 472.416 14.999 L 471.791 14.089 L 471.144 13.194 L 470.476 12.315 L 469.785 11.452 L 469.074 10.607 L 468.343 9.780 L 467.591 8.971 L 466.820 8.180 L 466.029 7.409 L 465.220 6.657 L 464.393 5.926 L 463.548 5.215 L 462.685 4.524 L 461.806 3.856 L 460.911 3.209 L 460.001 2.584 L 459.075 1.982 L 458.135 1.402 L 457.180 0.846 L 456.213 0.314 L 455.233 -0.195 L 454.240 -0.680 L 453.236 -1.139 L 452.221 -1.575 L 451.195 -1.985 L 450.160 -2.369 L 449.116 -2.729 L 448.063 -3.062 L 447.002 -3.370 L 445.934 -3.651 L 444.860 -3.907 L 443.779 -4.135 L 442.693 -4.337 L 441.603 -4.513 L 440.508 -4.662 L 439.411 -4.783 L 438.310 -4.878 L 437.208 -4.946 L 436.104 -4.986 L 435.000 -5.000 L 433.896 -4.986 L 432.792 -4.946 L 431.690 -4.878 L 430.589 -4.783 L 429.492 -4.662 L 428.397 -4.513 L 427.307 -4.337 L 426.221 -4.135 L 425.140 -3.907 L 424.066 -3.651 L 422.998 -3.370 L 421.937 -3.062 L 420.884 -2.729 L 419.840 -2.369 L 418.805 -1.985 L 417.779 -1.575 L 416.764 -1.139 L 415.760 -0.680 L 414.767 -0.195 L 413.787 0.314 L 412.820 0.846 L 411.865 1.402 L 410.925 1.982 L 409.999 2.584 L 409.089 3.209 L 408.194 3.856 L 407.315 4.524 L 406.452 5.215 L 405.607 5.926 L 404.780 6.657 L 403.971 7.409 L 403.180 8.180 L 402.409 8.971 L 401.657 9.780 L 400.926 10.607 L 400.215 11.452 L 399.524 12.315 L 398.856 13.194 L 398.209 14.089 L 397.584 14.999 L 396.982 15.925 L 396.402 16.865 L 395.846 17.820 L 395.314 18.787 L 394.805 19.767 L 394.320 20.760 L 393.861 21.764 L 393.425 22.779 L 393.015 23.805 L 392.631 24.840 L 392.271 25.884 L 391.938 26.937 L 391.630 27.998 L 391.349 29.066 L 391.093 30.140 L 390.865 31.221 L 390.663 32.307 L 390.487 33.397 L 390.338 34.492 L 390.217 35.589 L 390.122 36.690 L 390.054 37.792 L 390.014 38.896 L 390.000 40.000 L 390.000 215.000 L 290.000 215.000 L 288.896 215.014 Z M 390.000 305.000 L 390.000 735.000 L 319.242 735.000 L 318.956 734.754 L 318.102 734.054 L 317.231 733.374 L 316.344 732.717 L 315.440 732.081 L 314.522 731.468 L 313.588 730.878 L 312.641 730.311 L 311.680 729.767 L 310.705 729.246 L 309.719 728.750 L 308.720 728.279 L 307.710 727.832 L 306.690 727.409 L 305.659 727.012 L 304.619 726.641 L 303.570 726.295 L 302.513 725.975 L 301.448 725.681 L 300.377 725.413 L 299.299 725.171 L 298.216 724.956 L 297.128 724.768 L 296.035 724.607 L 294.939 724.472 L 293.840 724.364 L 292.738 724.283 L 291.635 724.230 L 290.531 724.203 L 288.536 724.180 L 287.071 724.128 L 285.606 724.041 L 284.138 723.920 L 282.668 723.763 L 281.195 723.572 L 279.719 723.344 L 278.239 723.081 L 276.754 722.782 L 275.264 722.445 L 273.770 722.071 L 272.270 721.660 L 270.765 721.210 L 269.254 720.721 L 267.737 720.192 L 266.214 719.624 L 264.685 719.015 L 263.150 718.364 L 261.610 717.672 L 260.064 716.937 L 258.514 716.160 L 256.958 715.339 L 255.398 714.473 L 253.834 713.564 L 252.266 712.609 L 250.695 711.609 L 249.122 710.563 L 247.547 709.472 L 245.970 708.333 L 244.393 707.148 L 242.816 705.917 L 241.240 704.638 L 239.666 703.311 L 238.093 701.938 L 236.524 700.517 L 234.959 699.048 L 233.398 697.532 L 231.843 695.969 L 230.295 694.358 L 228.753 692.700 L 227.219 690.996 L 225.695 689.244 L 224.180 687.446 L 222.675 685.602 L 221.182 683.712 L 219.700 681.776 L 218.232 679.795 L 216.777 677.770 L 215.337 675.700 L 213.912 673.587 L 212.503 671.430 L 211.111 669.230 L 209.737 666.989 L 208.380 664.706 L 207.043 662.381 L 205.725 660.017 L 204.428 657.612 L 203.151 655.169 L 201.897 652.687 L 200.664 650.168 L 199.455 647.612 L 198.268 645.020 L 197.107 642.392 L 195.969 639.730 L 194.857 637.034 L 193.771 634.304 L 192.711 631.543 L 191.678 628.751 L 190.673 625.928 L 189.695 623.075 L 188.745 620.194 L 187.824 617.285 L 186.932 614.348 L 186.070 611.386 L 185.238 608.399 L 184.436 605.387 L 183.664 602.352 L 182.924 599.295 L 182.215 596.216 L 181.538 593.117 L 180.893 589.999 L 180.280 586.861 L 179.700 583.707 L 179.152 580.535 L 178.638 577.348 L 178.156 574.147 L 177.709 570.932 L 177.295 567.704 L 176.915 564.464 L 176.569 561.214 L 176.257 557.954 L 175.979 554.686 L 175.736 551.410 L 175.527 548.127 L 175.353 544.839 L 175.214 541.546 L 175.110 538.250 L 175.040 534.951 L 175.005 531.650 L 175.005 528.350 L 175.040 525.049 L 175.110 521.750 L 175.214 518.454 L 175.353 515.161 L 175.527 511.873 L 175.736 508.590 L 175.979 505.314 L 176.257 502.046 L 176.569 498.786 L 176.915 495.536 L 177.295 492.296 L 177.709 489.068 L 178.156 485.853 L 178.638 482.652 L 179.152 479.465 L 179.700 476.293 L 180.280 473.139 L 180.893 470.001 L 181.538 466.883 L 182.215 463.784 L 182.924 460.705 L 183.664 457.648 L 184.436 454.613 L 185.238 451.601 L 186.070 448.614 L 186.932 445.652 L 187.824 442.715 L 188.745 439.806 L 189.695 436.925 L 190.673 434.072 L 191.678 431.249 L 192.711 428.457 L 193.771 425.696 L 194.857 422.966 L 195.969 420.270 L 197.107 417.608 L 198.268 414.980 L 199.455 412.388 L 200.664 409.832 L 201.897 407.313 L 203.151 404.831 L 204.428 402.388 L 205.725 399.983 L 207.043 397.619 L 208.380 395.294 L 209.737 393.011 L 211.111 390.770 L 212.503 388.570 L 213.912 386.413 L 215.337 384.300 L 216.777 382.230 L 218.232 380.205 L 219.700 378.224 L 221.182 376.288 L 222.675 374.398 L 224.180 372.554 L 225.695 370.756 L 227.219 369.004 L 228.753 367.300 L 230.295 365.642 L 231.843 364.031 L 233.398 362.468 L 234.959 360.952 L 236.524 359.483 L 238.093 358.062 L 239.666 356.689 L 241.240 355.362 L 242.816 354.083 L 244.393 352.852 L 245.970 351.667 L 247.547 350.528 L 249.122 349.437 L 250.695 348.391 L 252.266 347.391 L 253.834 346.436 L 255.398 345.527 L 256.958 344.661 L 258.514 343.840 L 260.064 343.063 L 261.610 342.328 L 263.150 341.636 L 264.685 340.985 L 266.214 340.376 L 267.737 339.808 L 269.254 339.279 L 270.765 338.790 L 272.270 338.340 L 273.770 337.929 L 275.264 337.555 L 276.754 337.218 L 278.239 336.919 L 279.719 336.656 L 281.195 336.428 L 282.668 336.237 L 284.138 336.080 L 285.606 335.959 L 287.071 335.872 L 288.536 335.820 L 290.531 335.797 L 291.635 335.770 L 292.738 335.717 L 293.840 335.636 L 294.939 335.528 L 296.035 335.393 L 297.128 335.232 L 298.216 335.044 L 299.299 334.829 L 300.377 334.587 L 301.448 334.319 L 302.513 334.025 L 303.570 333.705 L 304.619 333.359 L 305.659 332.988 L 306.690 332.591 L 307.710 332.168 L 308.720 331.721 L 309.719 331.250 L 310.705 330.754 L 311.680 330.233 L 312.641 329.689 L 313.588 329.122 L 314.522 328.532 L 315.440 327.919 L 316.344 327.283 L 317.231 326.626 L 318.102 325.946 L 318.956 325.246 L 319.793 324.525 L 320.611 323.784 L 321.412 323.023 L 322.193 322.242 L 322.955 321.443 L 323.697 320.625 L 324.419 319.789 L 325.120 318.935 L 325.800 318.065 L 326.458 317.178 L 327.095 316.275 L 327.709 315.357 L 328.300 314.425 L 328.868 313.478 L 329.413 312.517 L 329.934 311.543 L 330.431 310.557 L 330.904 309.559 L 331.352 308.549 L 331.775 307.529 L 332.173 306.499 L 332.545 305.459 L 332.697 305.000 L 390.000 305.000 Z" fill="black" fill-rule="evenodd"/>
</svg>
