<svg xmlns="http://www.w3.org/2000/svg" viewBox="0 0 600.000 1000">
  <path d="M 185.000 275.000 L 185.000 40.000 L 184.976 38.528 L 184.904 37.057 L 184.783 35.589 L 184.615 34.126 L 184.399 32.670 L 184.135 31.221 L 183.824 29.782 L 183.467 28.353 L 183.062 26.937 L 182.612 25.535 L 182.116 24.149 L 181.575 22.779 L 180.989 21.428 L 180.359 20.097 L 179.686 18.787 L 178.971 17.500 L 178.214 16.237 L 177.416 14.999 L 176.578 13.789 L 175.701 12.606 L 174.785 11.452 L 173.833 10.329 L 172.844 9.238 L 171.820 8.180 L 170.762 7.156 L 169.671 6.167 L 168.548 5.215 L 167.394 4.299 L 166.211 3.422 L 165.001 2.584 L 163.763 1.786 L 162.500 1.029 L 161.213 0.314 L 159.903 -0.359 L 158.572 -0.989 L 157.221 -1.575 L 155.851 -2.116 L 154.465 -2.612 L 153.063 -3.062 L 151.647 -3.467 L 150.218 -3.824 L 148.779 -4.135 L 147.330 -4.399 L 145.874 -4.615 L 144.411 -4.783 L 142.943 -4.904 L 141.472 -4.976 L 140.000 -5.000 L 138.528 -4.976 L 137.057 -4.904 L 135.589 -4.783 L 134.126 -4.615 L 132.670 -4.399 L 131.221 -4.135 L 129.782 -3.824 L 128.353 -3.467 L 126.937 -3.062 L 125.535 -2.612 L 124.149 -2.116 L 122.779 -1.575 L 121.428 -0.989 L 120.097 -0.359 L 118.787 0.314 L 117.500 1.029 L 116.237 1.786 L 114.999 2.584 L 113.789 3.422 L 112.606 4.299 L 111.452 5.215 L 110.329 6.167 L 109.238 7.156 L 108.180 8.180 L 107.156 9.238 L 106.167 10.329 L 105.215 11.452 L 104.299 12.606 L 103.422 13.789 L 102.584 14.999 L 101.786 16.237 L 101.029 17.500 L 100.314 18.787 L 99.641 20.097 L 99.011 21.428 L 98.425 22.779 L 97.884 24.149 L 97.388 25.535 L 96.938 26.937 L 96.533 28.353 L 96.176 29.782 L 95.865 31.221 L 95.601 32.670 L 95.385 34.126 L 95.217 35.589 L 95.096 37.057 L 95.024 38.528 L 95.000 40.000 L 95.000 320.000 L 95.000 780.000 L 95.024 781.472 L 95.096 782.943 L 95.217 784.411 L 95.385 785.874 L 95.601 787.330 L 95.865 788.779 L 96.176 790.218 L 96.533 791.647 L 96.938 793.063 L 97.388 794.465 L 97.884 795.851 L 98.425 797.221 L 99.011 798.572 L 99.641 799.903 L 100.314 801.213 L 101.029 802.500 L 101.786 803.763 L 102.584 805.001 L 103.422 806.211 L 104.299 807.394 L 105.215 808.548 L 106.167 809.671 L 107.156 810.762 L 108.180 811.820 L 109.238 812.844 L 110.329 813.833 L 111.452 814.785 L 112.606 815.701 L 113.789 816.578 L 114.999 817.416 L 116.237 818.214 L 117.500 818.971 L 118.787 819.686 L 120.097 820.359 L 121.428 820.989 L 122.779 821.575 L 124.149 822.116 L 125.535 822.612 L 126.937 823.062 L 128.353 823.467 L 129.782 823.824 L 131.221 824.135 L 132.670 824.399 L 134.126 824.615 L 135.589 824.783 L 137.057 824.904 L 138.528 824.976 L 140.000 825.000 L 300.000 825.000 L 301.472 824.976 L 302.943 824.904 L 304.411 824.783 L 305.874 824.615 L 307.330 824.399 L 308.779 824.135 L 310.218 823.824 L 311.647 823.467 L 313.063 823.062 L 314.465 822.612 L 315.851 822.116 L 317.221 821.575 L 318.572 820.989 L 319.903 820.359 L 321.213 819.686 L 322.500 818.971 L 323.763 818.214 L 325.001 817.416 L 326.211 816.578 L 327.394 815.701 L 328.548 814.785 L 329.671 813.833 L 330.762 812.844 L 331.820 811.820 L 332.844 810.762 L 333.833 809.671 L 334.785 808.548 L 335.701 807.394 L 336.578 806.211 L 337.416 805.001 L 338.214 803.763 L 338.971 802.500 L 339.686 801.213 L 340.359 799.903 L 340.989 798.572 L 341.575 797.221 L 342.116 795.851 L 342.612 794.465 L 343.062 793.063 L 343.467 791.647 L 343.824 790.218 L 344.135 788.779 L 344.399 787.330 L 344.615 785.874 L 344.783 784.411 L 344.904 782.943 L 344.976 781.472 L 344.981 781.135 L 348.109 780.593 L 349.277 780.375 L 354.971 779.232 L 356.133 778.983 L 361.795 777.691 L 362.949 777.411 L 368.576 775.970 L 369.722 775.660 L 375.309 774.071 L 376.447 773.731 L 381.989 771.994 L 383.118 771.624 L 388.612 769.742 L 389.731 769.342 L 395.174 767.316 L 396.281 766.887 L 401.669 764.718 L 402.765 764.259 L 408.093 761.949 L 409.177 761.462 L 414.442 759.011 L 415.513 758.495 L 420.712 755.907 L 421.768 755.363 L 426.897 752.638 L 427.938 752.067 L 432.993 749.207 L 434.020 748.609 L 438.997 745.617 L 440.007 744.992 L 444.905 741.869 L 445.898 741.217 L 450.711 737.967 L 451.686 737.289 L 456.412 733.913 L 457.369 733.209 L 462.004 729.709 L 462.942 728.981 L 467.483 725.360 L 468.402 724.607 L 472.846 720.867 L 473.744 720.090 L 478.088 716.235 L 478.966 715.434 L 483.206 711.465 L 484.062 710.642 L 488.196 706.563 L 489.030 705.717 L 493.055 701.530 L 493.867 700.662 L 497.780 696.370 L 498.568 695.482 L 502.366 691.088 L 503.131 690.179 L 506.812 685.687 L 507.553 684.758 L 511.113 680.170 L 511.829 679.222 L 515.268 674.541 L 515.959 673.575 L 519.272 668.805 L 519.937 667.821 L 523.124 662.965 L 523.763 661.963 L 526.820 657.025 L 527.432 656.007 L 530.358 650.990 L 530.943 649.956 L 533.735 644.864 L 534.293 643.815 L 536.950 638.651 L 537.480 637.587 L 539.999 632.355 L 540.501 631.278 L 542.882 625.980 L 543.354 624.890 L 545.595 619.532 L 546.038 618.430 L 548.136 613.014 L 548.551 611.901 L 550.505 606.432 L 550.890 605.308 L 552.699 599.789 L 553.054 598.656 L 554.717 593.091 L 555.043 591.948 L 556.558 586.342 L 556.853 585.191 L 558.220 579.546 L 558.484 578.388 L 559.702 572.709 L 559.935 571.545 L 561.003 565.836 L 561.205 564.665 L 562.122 558.930 L 562.293 557.755 L 563.058 551.997 L 563.199 550.818 L 563.811 545.042 L 563.920 543.859 L 564.380 538.070 L 564.458 536.884 L 564.765 531.085 L 564.812 529.898 L 564.965 524.092 L 564.981 522.904 L 564.981 517.096 L 564.965 515.908 L 564.812 510.102 L 564.765 508.915 L 564.458 503.116 L 564.380 501.930 L 563.920 496.141 L 563.811 494.958 L 563.199 489.182 L 563.058 488.003 L 562.293 482.245 L 562.122 481.070 L 561.205 475.335 L 561.003 474.164 L 559.935 468.455 L 559.702 467.291 L 558.484 461.612 L 558.220 460.454 L 556.853 454.809 L 556.558 453.658 L 555.043 448.052 L 554.717 446.909 L 553.054 441.344 L 552.699 440.211 L 550.890 434.692 L 550.505 433.568 L 548.551 428.099 L 548.136 426.986 L 546.038 421.570 L 545.595 420.468 L 543.354 415.110 L 542.882 414.020 L 540.501 408.722 L 539.999 407.645 L 537.480 402.413 L 536.950 401.349 L 534.293 396.185 L 533.735 395.136 L 530.943 390.044 L 530.358 389.010 L 527.432 383.993 L 526.820 382.975 L 523.763 378.037 L 523.124 377.035 L 519.937 372.179 L 519.272 371.195 L 515.959 366.425 L 515.268 365.459 L 511.829 360.778 L 511.113 359.830 L 507.553 355.242 L 506.812 354.313 L 503.131 349.821 L 502.366 348.912 L 498.568 344.518 L 497.780 343.630 L 493.867 339.338 L 493.055 338.470 L 489.030 334.283 L 488.196 333.437 L 484.062 329.358 L 483.206 328.535 L 478.966 324.566 L 478.088 323.765 L 473.744 319.910 L 472.846 319.133 L 468.402 315.393 L 467.483 314.640 L 462.942 311.019 L 462.004 310.291 L 457.369 306.791 L 456.412 306.087 L 451.686 302.711 L 450.711 302.033 L 445.898 298.783 L 444.905 298.131 L 440.007 295.008 L 438.997 294.383 L 434.020 291.391 L 432.993 290.793 L 427.938 287.933 L 426.897 287.362 L 421.768 284.637 L 420.712 284.093 L 415.513 281.505 L 414.442 280.989 L 409.177 278.538 L 408.093 278.051 L 402.765 275.741 L 401.669 275.282 L 396.281 273.113 L 395.174 272.684 L 389.731 270.658 L 388.612 270.258 L 383.118 268.376 L 381.989 268.006 L 376.447 266.269 L 375.309 265.929 L 369.722 264.340 L 368.576 264.030 L 362.949 262.589 L 361.795 262.309 L 356.133 261.017 L 354.971 260.768 L 349.277 259.625 L 348.109 259.407 L 342.387 258.415 L 341.213 258.228 L 335.467 257.387 L 334.289 257.231 L 328.522 256.543 L 327.341 256.417 L 321.558 255.882 L 320.374 255.788 L 314.578 255.405 L 313.392 255.342 L 307.589 255.112 L 306.401 255.081 L 300.594 255.004 L 299.121 255.009 L 297.650 255.061 L 296.181 255.162 L 294.716 255.311 L 293.256 255.508 L 291.804 255.753 L 290.361 256.044 L 288.928 256.383 L 287.507 256.769 L 286.099 257.201 L 284.706 257.679 L 283.330 258.202 L 281.971 258.770 L 280.631 259.382 L 279.313 260.037 L 278.016 260.735 L 276.743 261.476 L 275.495 262.257 L 274.274 263.079 L 273.079 263.941 L 271.914 264.841 L 270.779 265.779 L 269.675 266.753 L 268.603 267.763 L 267.565 268.808 L 266.562 269.885 L 265.594 270.996 L 264.664 272.137 L 263.771 273.308 L 262.917 274.508 L 262.590 275.000 L 185.000 275.000 Z M 302.943 364.904 L 304.411 364.783 L 305.874 364.615 L 307.330 364.399 L 308.779 364.135 L 310.218 363.824 L 311.647 363.467 L 313.063 363.062 L 314.465 362.612 L 315.851 362.116 L 317.221 361.575 L 318.572 360.989 L 319.903 360.359 L 321.213 359.686 L 322.500 358.971 L 323.763 358.214 L 325.001 357.416 L 326.211 356.578 L 327.394 355.701 L 328.548 354.785 L 329.671 353.833 L 330.762 352.844 L 331.820 351.820 L 332.844 350.762 L 333.833 349.671 L 334.785 348.548 L 334.810 348.516 L 336.685 348.892 L 341.189 349.920 L 345.664 351.067 L 350.107 352.331 L 354.516 353.712 L 358.886 355.209 L 363.216 356.821 L 367.501 358.547 L 371.740 360.385 L 375.928 362.334 L 380.063 364.393 L 384.143 366.561 L 388.164 368.835 L 392.124 371.215 L 396.019 373.699 L 399.847 376.285 L 403.606 378.970 L 407.293 381.754 L 410.905 384.635 L 414.439 387.609 L 417.894 390.676 L 421.267 393.833 L 424.555 397.078 L 427.756 400.409 L 430.869 403.823 L 433.890 407.318 L 436.817 410.892 L 439.650 414.541 L 442.385 418.264 L 445.021 422.058 L 447.556 425.921 L 449.988 429.848 L 452.315 433.839 L 454.536 437.890 L 456.650 441.998 L 458.655 446.160 L 460.548 450.374 L 462.330 454.636 L 463.999 458.944 L 465.554 463.294 L 466.993 467.684 L 468.316 472.110 L 469.521 476.570 L 470.609 481.060 L 471.577 485.577 L 472.426 490.118 L 473.155 494.680 L 473.763 499.259 L 474.250 503.853 L 474.615 508.459 L 474.859 513.072 L 474.981 517.690 L 474.981 522.310 L 474.859 526.928 L 474.615 531.541 L 474.250 536.147 L 473.763 540.741 L 473.155 545.320 L 472.426 549.882 L 471.577 554.423 L 470.609 558.940 L 469.521 563.430 L 468.316 567.890 L 466.993 572.316 L 465.554 576.706 L 463.999 581.056 L 462.330 585.364 L 460.548 589.626 L 458.655 593.840 L 456.650 598.002 L 454.536 602.110 L 452.315 606.161 L 449.988 610.152 L 447.556 614.079 L 445.021 617.942 L 442.385 621.736 L 439.650 625.459 L 436.817 629.108 L 433.890 632.682 L 430.869 636.177 L 427.756 639.591 L 424.555 642.922 L 421.267 646.167 L 417.894 649.324 L 414.439 652.391 L 410.905 655.365 L 407.293 658.246 L 403.606 661.030 L 399.847 663.715 L 396.019 666.301 L 392.124 668.785 L 388.164 671.165 L 384.143 673.439 L 380.063 675.607 L 375.928 677.666 L 371.740 679.615 L 367.501 681.453 L 363.216 683.179 L 358.886 684.791 L 354.516 686.288 L 350.107 687.669 L 345.664 688.933 L 341.189 690.080 L 336.685 691.108 L 332.155 692.016 L 327.604 692.805 L 323.032 693.474 L 318.445 694.021 L 313.845 694.448 L 309.235 694.752 L 304.619 694.935 L 299.406 695.004 L 297.934 695.047 L 296.464 695.139 L 294.998 695.279 L 293.538 695.466 L 292.084 695.702 L 290.639 695.984 L 289.204 696.314 L 287.780 696.691 L 286.370 697.114 L 284.974 697.583 L 283.594 698.097 L 282.232 698.656 L 280.889 699.260 L 279.566 699.907 L 278.265 700.597 L 276.988 701.329 L 275.735 702.103 L 274.508 702.917 L 273.308 703.771 L 272.137 704.664 L 270.996 705.594 L 269.885 706.562 L 268.808 707.565 L 267.763 708.603 L 266.753 709.675 L 265.779 710.779 L 264.841 711.914 L 263.941 713.079 L 263.079 714.274 L 262.257 715.495 L 261.476 716.743 L 260.735 718.016 L 260.037 719.313 L 259.382 720.631 L 258.770 721.971 L 258.202 723.330 L 257.679 724.706 L 257.201 726.099 L 256.769 727.507 L 256.383 728.928 L 256.044 730.361 L 255.753 731.804 L 255.508 733.256 L 255.311 734.716 L 255.282 735.000 L 185.000 735.000 L 185.000 365.000 L 300.000 365.000 L 301.472 364.976 L 302.943 364.904 Z" fill="black" fill-rule="evenodd"/>
</svg>
