<svg xmlns="http://www.w3.org/2000/svg" viewBox="0 0 600.000 1000">
  <path d="M 490.298 293.272 L 491.105 292.519 L 491.894 291.746 L 492.663 290.954 L 493.413 290.143 L 494.143 289.314 L 494.852 288.467 L 495.540 287.603 L 496.207 286.722 L 496.851 285.826 L 497.474 284.914 L 498.074 283.986 L 498.651 283.045 L 499.205 282.089 L 499.736 281.121 L 500.242 280.139 L 500.724 279.145 L 501.182 278.140 L 501.614 277.124 L 502.022 276.098 L 502.405 275.062 L 502.761 274.016 L 503.093 272.963 L 503.398 271.901 L 503.677 270.833 L 503.929 269.758 L 504.156 268.676 L 504.355 267.590 L 504.528 266.499 L 504.674 265.405 L 504.793 264.307 L 504.886 263.206 L 504.951 262.104 L 504.989 261.000 L 505.000 259.895 L 504.984 258.791 L 504.941 257.688 L 504.870 256.585 L 504.773 255.485 L 504.649 254.388 L 504.497 253.294 L 504.319 252.204 L 504.115 251.118 L 503.884 250.038 L 503.626 248.964 L 503.342 247.897 L 503.032 246.837 L 502.696 245.785 L 502.334 244.742 L 501.947 243.707 L 501.534 242.683 L 501.097 241.669 L 500.635 240.666 L 500.148 239.674 L 499.637 238.695 L 499.102 237.729 L 498.544 236.776 L 497.962 235.837 L 497.358 234.912 L 496.731 234.003 L 496.082 233.110 L 495.411 232.232 L 494.719 231.372 L 494.006 230.528 L 493.272 229.702 L 492.519 228.895 L 491.746 228.106 L 490.954 227.337 L 490.143 226.587 L 489.314 225.857 L 488.467 225.148 L 487.603 224.460 L 486.722 223.793 L 485.826 223.149 L 484.914 222.526 L 483.986 221.926 L 483.045 221.349 L 482.089 220.795 L 481.121 220.264 L 480.139 219.758 L 479.145 219.276 L 478.140 218.818 L 477.124 218.386 L 476.098 217.978 L 475.062 217.595 L 474.016 217.239 L 472.963 216.907 L 471.901 216.602 L 470.833 216.323 L 469.758 216.071 L 468.676 215.844 L 467.590 215.645 L 466.499 215.472 L 465.405 215.326 L 464.307 215.207 L 463.206 215.114 L 462.104 215.049 L 461.000 215.011 L 459.895 215.000 L 458.791 215.016 L 457.688 215.059 L 456.585 215.130 L 455.485 215.227 L 454.388 215.351 L 453.294 215.503 L 452.204 215.681 L 451.118 215.885 L 450.038 216.116 L 448.964 216.374 L 447.897 216.658 L 446.837 216.968 L 445.785 217.304 L 444.742 217.666 L 443.707 218.053 L 442.683 218.466 L 441.669 218.903 L 440.666 219.365 L 439.674 219.852 L 438.695 220.363 L 437.729 220.898 L 436.776 221.456 L 435.837 222.038 L 434.912 222.642 L 434.003 223.269 L 433.110 223.918 L 432.232 224.589 L 431.372 225.281 L 430.528 225.994 L 205.000 421.452 L 205.000 40.000 L 204.986 38.896 L 204.946 37.792 L 204.878 36.690 L 204.783 35.589 L 204.662 34.492 L 204.513 33.397 L 204.337 32.307 L 204.135 31.221 L 203.907 30.140 L 203.651 29.066 L 203.370 27.998 L 203.062 26.937 L 202.729 25.884 L 202.369 24.840 L 201.985 23.805 L 201.575 22.779 L 201.139 21.764 L 200.680 20.760 L 200.195 19.767 L 199.686 18.787 L 199.154 17.820 L 198.598 16.865 L 198.018 15.925 L 197.416 14.999 L 196.791 14.089 L 196.144 13.194 L 195.476 12.315 L 194.785 11.452 L 194.074 10.607 L 193.343 9.780 L 192.591 8.971 L 191.820 8.180 L 191.029 7.409 L 190.220 6.657 L 189.393 5.926 L 188.548 5.215 L 187.685 4.524 L 186.806 3.856 L 185.911 3.209 L 185.001 2.584 L 184.075 1.982 L 183.135 1.402 L 182.180 0.846 L 181.213 0.314 L 180.233 -0.195 L 179.240 -0.680 L 178.236 -1.139 L 177.221 -1.575 L 176.195 -1.985 L 175.160 -2.369 L 174.116 -2.729 L 173.063 -3.062 L 172.002 -3.370 L 170.934 -3.651 L 169.860 -3.907 L 168.779 -4.135 L 167.693 -4.337 L 166.603 -4.513 L 165.508 -4.662 L 164.411 -4.783 L 163.310 -4.878 L 162.208 -4.946 L 161.104 -4.986 L 160.000 -5.000 L 158.896 -4.986 L 157.792 -4.946 L 156.690 -4.878 L 155.589 -4.783 L 154.492 -4.662 L 153.397 -4.513 L 152.307 -4.337 L 151.221 -4.135 L 150.140 -3.907 L 149.066 -3.651 L 147.998 -3.370 L 146.937 -3.062 L 145.884 -2.729 L 144.840 -2.369 L 143.805 -1.985 L 142.779 -1.575 L 141.764 -1.139 L 140.760 -0.680 L 139.767 -0.195 L 138.787 0.314 L 137.820 0.846 L 136.865 1.402 L 135.925 1.982 L 134.999 2.584 L 134.089 3.209 L 133.194 3.856 L 132.315 4.524 L 131.452 5.215 L 130.607 5.926 L 129.780 6.657 L 128.971 7.409 L 128.180 8.180 L 127.409 8.971 L 126.657 9.780 L 125.926 10.607 L 125.215 11.452 L 124.524 12.315 L 123.856 13.194 L 123.209 14.089 L 122.584 14.999 L 121.982 15.925 L 121.402 16.865 L 120.846 17.820 L 120.314 18.787 L 119.805 19.767 L 119.320 20.760 L 118.861 21.764 L 118.425 22.779 L 118.015 23.805 L 117.631 24.840 L 117.271 25.884 L 116.938 26.937 L 116.630 27.998 L 116.349 29.066 L 116.093 30.140 L 115.865 31.221 L 115.663 32.307 L 115.487 33.397 L 115.338 34.492 L 115.217 35.589 L 115.122 36.690 L 115.054 37.792 L 115.014 38.896 L 115.000 40.000 L 115.000 780.000 L 115.014 781.104 L 115.054 782.208 L 115.122 783.310 L 115.217 784.411 L 115.338 785.508 L 115.487 786.603 L 115.663 787.693 L 115.865 788.779 L 116.093 789.860 L 116.349 790.934 L 116.630 792.002 L 116.938 793.063 L 117.271 794.116 L 117.631 795.160 L 118.015 796.195 L 118.425 797.221 L 118.861 798.236 L 119.320 799.240 L 119.805 800.233 L 120.314 801.213 L 120.846 802.180 L 121.402 803.135 L 121.982 804.075 L 122.584 805.001 L 123.209 805.911 L 123.856 806.806 L 124.524 807.685 L 125.215 808.548 L 125.926 809.393 L 126.657 810.220 L 127.409 811.029 L 128.180 811.820 L 128.971 812.591 L 129.780 813.343 L 130.607 814.074 L 131.452 814.785 L 132.315 815.476 L 133.194 816.144 L 134.089 816.791 L 134.999 817.416 L 135.925 818.018 L 136.865 818.598 L 137.820 819.154 L 138.787 819.686 L 139.767 820.195 L 140.760 820.680 L 141.764 821.139 L 142.779 821.575 L 143.805 821.985 L 144.840 822.369 L 145.884 822.729 L 146.937 823.062 L 147.998 823.370 L 149.066 823.651 L 150.140 823.907 L 151.221 824.135 L 152.307 824.337 L 153.397 824.513 L 154.492 824.662 L 155.589 824.783 L 156.690 824.878 L 157.792 824.946 L 158.896 824.986 L 160.000 825.000 L 161.104 824.986 L 162.208 824.946 L 163.310 824.878 L 164.411 824.783 L 165.508 824.662 L 166.603 824.513 L 167.693 824.337 L 168.779 824.135 L 169.860 823.907 L 170.934 823.651 L 172.002 823.370 L 173.063 823.062 L 174.116 822.729 L 175.160 822.369 L 176.195 821.985 L 177.221 821.575 L 178.236 821.139 L 179.240 820.680 L 180.233 820.195 L 181.213 819.686 L 182.180 819.154 L 183.135 818.598 L 184.075 818.018 L 185.001 817.416 L 185.911 816.791 L 186.806 816.144 L 187.685 815.476 L 188.548 814.785 L 189.393 814.074 L 190.220 813.343 L 191.029 812.591 L 191.820 811.820 L 192.591 811.029 L 193.343 810.220 L 194.074 809.393 L 194.785 808.548 L 195.476 807.685 L 196.144 806.806 L 196.791 805.911 L 197.416 805.001 L 198.018 804.075 L 198.598 803.135 L 199.154 802.180 L 199.686 801.213 L 200.195 800.233 L 200.680 799.240 L 201.139 798.236 L 201.575 797.221 L 201.985 796.195 L 202.369 795.160 L 202.729 794.116 L 203.062 793.063 L 203.370 792.002 L 203.651 790.934 L 203.907 789.860 L 204.135 788.779 L 204.337 787.693 L 204.513 786.603 L 204.662 785.508 L 204.783 784.411 L 204.878 783.310 L 204.946 782.208 L 204.986 781.104 L 205.000 780.000 L 205.000 618.548 L 430.528 814.006 L 431.372 814.719 L 432.232 815.411 L 433.110 816.082 L 434.003 816.731 L 434.912 817.358 L 435.837 817.962 L 436.776 818.544 L 437.729 819.102 L 438.695 819.637 L 439.674 820.148 L 440.666 820.635 L 441.669 821.097 L 442.683 821.534 L 443.707 821.947 L 444.742 822.334 L 445.785 822.696 L 446.837 823.032 L 447.897 823.342 L 448.964 823.626 L 450.038 823.884 L 451.118 824.115 L 452.204 824.319 L 453.294 824.497 L 454.388 824.649 L 455.485 824.773 L 456.585 824.870 L 457.688 824.941 L 458.791 824.984 L 459.895 825.000 L 461.000 824.989 L 462.104 824.951 L 463.206 824.886 L 464.307 824.793 L 465.405 824.674 L 466.499 824.528 L 467.590 824.355 L 468.676 824.156 L 469.758 823.929 L 470.833 823.677 L 471.901 823.398 L 472.963 823.093 L 474.016 822.761 L 475.062 822.405 L 476.098 822.022 L 477.124 821.614 L 478.140 821.182 L 479.145 820.724 L 480.139 820.242 L 481.121 819.736 L 482.089 819.205 L 483.045 818.651 L 483.986 818.074 L 484.914 817.474 L 485.826 816.851 L 486.722 816.207 L 487.603 815.540 L 488.467 814.852 L 489.314 814.143 L 490.143 813.413 L 490.954 812.663 L 491.746 811.894 L 492.519 811.105 L 493.272 810.298 L 494.006 809.472 L 494.719 808.628 L 495.411 807.768 L 496.082 806.890 L 496.731 805.997 L 497.358 805.088 L 497.962 804.163 L 498.544 803.224 L 499.102 802.271 L 499.637 801.305 L 500.148 800.326 L 500.635 799.334 L 501.097 798.331 L 501.534 797.317 L 501.947 796.293 L 502.334 795.258 L 502.696 794.215 L 503.032 793.163 L 503.342 792.103 L 503.626 791.036 L 503.884 789.962 L 504.115 788.882 L 504.319 787.796 L 504.497 786.706 L 504.649 785.612 L 504.773 784.515 L 504.870 783.415 L 504.941 782.312 L 504.984 781.209 L 505.000 780.105 L 504.989 779.000 L 504.951 777.896 L 504.886 776.794 L 504.793 775.693 L 504.674 774.595 L 504.528 773.501 L 504.355 772.410 L 504.156 771.324 L 503.929 770.242 L 503.677 769.167 L 503.398 768.099 L 503.093 767.037 L 502.761 765.984 L 502.405 764.938 L 502.022 763.902 L 501.614 762.876 L 501.182 761.860 L 500.724 760.855 L 500.242 759.861 L 499.736 758.879 L 499.205 757.911 L 498.651 756.955 L 498.074 756.014 L 497.474 755.086 L 496.851 754.174 L 496.207 753.278 L 495.540 752.397 L 494.852 751.533 L 494.143 750.686 L 493.413 749.857 L 492.663 749.046 L 491.894 748.254 L 491.105 747.481 L 490.298 746.728 L 489.472 745.994 L 228.710 520.000 L 489.472 294.006 L 490.298 293.272 Z" fill="black" fill-rule="evenodd"/>
</svg>
