<svg xmlns="http://www.w3.org/2000/svg" viewBox="0 0 600.000 1000">
  <path d="M 185.014 773.104 L 185.054 774.208 L 185.122 775.310 L 185.217 776.411 L 185.338 777.508 L 185.487 778.603 L 185.663 779.693 L 185.865 780.779 L 186.093 781.860 L 186.349 782.934 L 186.630 784.002 L 186.938 785.063 L 187.271 786.116 L 187.631 787.160 L 188.015 788.195 L 188.425 789.221 L 188.861 790.236 L 189.320 791.240 L 189.805 792.233 L 190.314 793.213 L 190.846 794.180 L 191.402 795.135 L 191.982 796.075 L 192.584 797.001 L 193.209 797.911 L 193.856 798.806 L 194.524 799.685 L 195.215 800.548 L 195.926 801.393 L 196.657 802.220 L 197.409 803.029 L 198.180 803.820 L 198.971 804.591 L 199.780 805.343 L 200.607 806.074 L 201.452 806.785 L 202.315 807.476 L 203.194 808.144 L 204.089 808.791 L 204.999 809.416 L 205.925 810.018 L 206.865 810.598 L 207.820 811.154 L 208.787 811.686 L 209.767 812.195 L 210.760 812.680 L 211.764 813.139 L 212.779 813.575 L 213.805 813.985 L 214.840 814.369 L 215.884 814.729 L 216.937 815.062 L 217.998 815.370 L 219.066 815.651 L 220.140 815.907 L 221.221 816.135 L 222.307 816.337 L 223.397 816.513 L 224.492 816.662 L 225.589 816.783 L 226.690 816.878 L 227.792 816.946 L 228.896 816.986 L 230.000 817.000 L 231.104 816.986 L 232.208 816.946 L 233.310 816.878 L 234.411 816.783 L 235.508 816.662 L 236.603 816.513 L 237.693 816.337 L 238.779 816.135 L 239.860 815.907 L 240.934 815.651 L 242.002 815.370 L 243.063 815.062 L 244.116 814.729 L 245.160 814.369 L 246.195 813.985 L 247.221 813.575 L 248.236 813.139 L 249.240 812.680 L 250.233 812.195 L 251.213 811.686 L 252.180 811.154 L 253.135 810.598 L 254.075 810.018 L 255.001 809.416 L 255.911 808.791 L 256.806 808.144 L 257.685 807.476 L 258.548 806.785 L 259.393 806.074 L 260.220 805.343 L 261.029 804.591 L 261.820 803.820 L 262.591 803.029 L 263.343 802.220 L 264.074 801.393 L 264.785 800.548 L 265.476 799.685 L 266.144 798.806 L 266.791 797.911 L 267.416 797.001 L 268.018 796.075 L 268.598 795.135 L 269.154 794.180 L 269.686 793.213 L 270.195 792.233 L 270.680 791.240 L 271.139 790.236 L 271.575 789.221 L 271.985 788.195 L 272.369 787.160 L 272.729 786.116 L 273.062 785.063 L 273.370 784.002 L 273.651 782.934 L 273.907 781.860 L 274.135 780.779 L 274.337 779.693 L 274.513 778.603 L 274.662 777.508 L 274.783 776.411 L 274.878 775.310 L 274.946 774.208 L 274.986 773.104 L 275.000 772.000 L 275.000 578.600 L 490.000 578.600 L 491.104 578.586 L 492.208 578.546 L 493.310 578.478 L 494.411 578.383 L 495.508 578.262 L 496.603 578.113 L 497.693 577.937 L 498.779 577.735 L 499.860 577.507 L 500.934 577.251 L 502.002 576.970 L 503.063 576.662 L 504.116 576.329 L 505.160 575.969 L 506.195 575.585 L 507.221 575.175 L 508.236 574.739 L 509.240 574.280 L 510.233 573.795 L 511.213 573.286 L 512.180 572.754 L 513.135 572.198 L 514.075 571.618 L 515.001 571.016 L 515.911 570.391 L 516.806 569.744 L 517.685 569.076 L 518.548 568.385 L 519.393 567.674 L 520.220 566.943 L 521.029 566.191 L 521.820 565.420 L 522.591 564.629 L 523.343 563.820 L 524.074 562.993 L 524.785 562.148 L 525.476 561.285 L 526.144 560.406 L 526.791 559.511 L 527.416 558.601 L 528.018 557.675 L 528.598 556.735 L 529.154 555.780 L 529.686 554.813 L 530.195 553.833 L 530.680 552.840 L 531.139 551.836 L 531.575 550.821 L 531.985 549.795 L 532.369 548.760 L 532.729 547.716 L 533.062 546.663 L 533.370 545.602 L 533.651 544.534 L 533.907 543.460 L 534.135 542.379 L 534.337 541.293 L 534.513 540.203 L 534.662 539.108 L 534.783 538.011 L 534.878 536.910 L 534.946 535.808 L 534.986 534.704 L 535.000 533.600 L 534.986 532.496 L 534.946 531.392 L 534.878 530.290 L 534.783 529.189 L 534.662 528.092 L 534.513 526.997 L 534.337 525.907 L 534.135 524.821 L 533.907 523.740 L 533.651 522.666 L 533.370 521.598 L 533.062 520.537 L 532.729 519.484 L 532.369 518.440 L 531.985 517.405 L 531.575 516.379 L 531.139 515.364 L 530.680 514.360 L 530.195 513.367 L 529.686 512.387 L 529.154 511.420 L 528.598 510.465 L 528.018 509.525 L 527.416 508.599 L 526.791 507.689 L 526.144 506.794 L 525.476 505.915 L 524.785 505.052 L 524.074 504.207 L 523.343 503.380 L 522.591 502.571 L 521.820 501.780 L 521.029 501.009 L 520.220 500.257 L 519.393 499.526 L 518.548 498.815 L 517.685 498.124 L 516.806 497.456 L 515.911 496.809 L 515.001 496.184 L 514.075 495.582 L 513.135 495.002 L 512.180 494.446 L 511.213 493.914 L 510.233 493.405 L 509.240 492.920 L 508.236 492.461 L 507.221 492.025 L 506.195 491.615 L 505.160 491.231 L 504.116 490.871 L 503.063 490.538 L 502.002 490.230 L 500.934 489.949 L 499.860 489.693 L 498.779 489.465 L 497.693 489.263 L 496.603 489.087 L 495.508 488.938 L 494.411 488.817 L 493.310 488.722 L 492.208 488.654 L 491.104 488.614 L 490.000 488.600 L 275.000 488.600 L 275.000 52.000 L 274.986 50.896 L 274.946 49.792 L 274.878 48.690 L 274.783 47.589 L 274.662 46.492 L 274.513 45.397 L 274.337 44.307 L 274.135 43.221 L 273.907 42.140 L 273.651 41.066 L 273.370 39.998 L 273.062 38.937 L 272.729 37.884 L 272.369 36.840 L 271.985 35.805 L 271.575 34.779 L 271.139 33.764 L 270.680 32.760 L 270.195 31.767 L 269.686 30.787 L 269.154 29.820 L 268.598 28.865 L 268.018 27.925 L 267.416 26.999 L 266.791 26.089 L 266.144 25.194 L 265.476 24.315 L 264.785 23.452 L 264.074 22.607 L 263.343 21.780 L 262.591 20.971 L 261.820 20.180 L 261.029 19.409 L 260.220 18.657 L 259.393 17.926 L 258.548 17.215 L 257.685 16.524 L 256.806 15.856 L 255.911 15.209 L 255.001 14.584 L 254.075 13.982 L 253.135 13.402 L 252.180 12.846 L 251.213 12.314 L 250.233 11.805 L 249.240 11.320 L 248.236 10.861 L 247.221 10.425 L 246.195 10.015 L 245.160 9.631 L 244.116 9.271 L 243.063 8.938 L 242.002 8.630 L 240.934 8.349 L 239.860 8.093 L 238.779 7.865 L 237.693 7.663 L 236.603 7.487 L 235.508 7.338 L 234.411 7.217 L 233.310 7.122 L 232.208 7.054 L 231.104 7.014 L 230.000 7.000 L 228.896 7.014 L 227.792 7.054 L 226.690 7.122 L 225.589 7.217 L 224.492 7.338 L 223.397 7.487 L 222.307 7.663 L 221.221 7.865 L 220.140 8.093 L 219.066 8.349 L 217.998 8.630 L 216.937 8.938 L 215.884 9.271 L 214.840 9.631 L 213.805 10.015 L 212.779 10.425 L 211.764 10.861 L 210.760 11.320 L 209.767 11.805 L 208.787 12.314 L 207.820 12.846 L 206.865 13.402 L 205.925 13.982 L 204.999 14.584 L 204.089 15.209 L 203.194 15.856 L 202.315 16.524 L 201.452 17.215 L 200.607 17.926 L 199.780 18.657 L 198.971 19.409 L 198.180 20.180 L 197.409 20.971 L 196.657 21.780 L 195.926 22.607 L 195.215 23.452 L 194.524 24.315 L 193.856 25.194 L 193.209 26.089 L 192.584 26.999 L 191.982 27.925 L 191.402 28.865 L 190.846 29.820 L 190.314 30.787 L 189.805 31.767 L 189.320 32.760 L 188.861 33.764 L 188.425 34.779 L 188.015 35.805 L 187.631 36.840 L 187.271 37.884 L 186.938 38.937 L 186.630 39.998 L 186.349 41.066 L 186.093 42.140 L 185.865 43.221 L 185.663 44.307 L 185.487 45.397 L 185.338 46.492 L 185.217 47.589 L 185.122 48.690 L 185.054 49.792 L 185.014 50.896 L 185.000 52.000 L 185.000 533.600 L 185.000 772.000 L 185.014 773.104 Z" fill="black" fill-rule="evenodd"/>
</svg>
