<svg xmlns="http://www.w3.org/2000/svg" width="600.000" height="1000" viewBox="0 0 600.000 1000">
  <path d="M 367.263 788.236 L 367.723 789.240 L 368.207 790.233 L 368.716 791.213 L 369.248 792.180 L 369.804 793.135 L 370.384 794.075 L 370.986 795.001 L 371.611 795.911 L 372.258 796.806 L 372.927 797.685 L 373.617 798.548 L 374.328 799.393 L 375.059 800.220 L 375.811 801.029 L 376.582 801.820 L 377.373 802.591 L 378.182 803.343 L 379.009 804.074 L 379.855 804.785 L 380.717 805.476 L 381.596 806.144 L 382.491 806.791 L 383.402 807.416 L 384.327 808.018 L 385.268 808.598 L 386.222 809.154 L 387.189 809.686 L 388.170 810.195 L 389.162 810.680 L 390.166 811.139 L 391.181 811.575 L 392.207 811.985 L 393.242 812.369 L 394.287 812.729 L 395.339 813.062 L 396.400 813.370 L 397.468 813.651 L 398.543 813.907 L 399.623 814.135 L 400.709 814.337 L 401.799 814.513 L 402.894 814.662 L 403.991 814.783 L 405.092 814.878 L 406.194 814.946 L 407.298 814.986 L 408.402 815.000 L 409.507 814.986 L 410.610 814.946 L 411.713 814.878 L 412.813 814.783 L 413.911 814.662 L 415.005 814.513 L 416.096 814.337 L 417.181 814.135 L 418.262 813.907 L 419.336 813.651 L 420.404 813.370 L 421.465 813.062 L 422.518 812.729 L 423.562 812.369 L 424.598 811.985 L 425.623 811.575 L 426.638 811.139 L 427.642 810.680 L 428.635 810.195 L 429.615 809.686 L 430.583 809.154 L 431.537 808.598 L 432.477 808.018 L 433.403 807.416 L 434.314 806.791 L 435.209 806.144 L 436.088 805.476 L 436.950 804.785 L 437.795 804.074 L 438.622 803.343 L 439.432 802.591 L 440.222 801.820 L 440.993 801.029 L 441.745 800.220 L 442.477 799.393 L 443.188 798.548 L 443.878 797.685 L 444.547 796.806 L 445.194 795.911 L 445.818 795.001 L 446.421 794.075 L 447.000 793.135 L 447.556 792.180 L 448.089 791.213 L 448.597 790.233 L 449.082 789.240 L 449.542 788.236 L 449.977 787.221 L 450.387 786.195 L 450.772 785.160 L 451.131 784.116 L 451.465 783.063 L 451.772 782.002 L 452.054 780.934 L 452.309 779.860 L 452.538 778.779 L 452.740 777.693 L 452.915 776.603 L 453.064 775.508 L 453.186 774.411 L 453.280 773.310 L 453.348 772.208 L 453.389 771.104 L 453.402 770.000 L 453.402 691.753 L 454.736 688.888 L 455.125 688.030 L 456.939 683.910 L 457.306 683.053 L 459.044 678.876 L 459.389 678.020 L 461.049 673.787 L 461.374 672.933 L 462.954 668.647 L 463.259 667.795 L 464.760 663.459 L 465.045 662.608 L 466.465 658.225 L 466.731 657.375 L 468.069 652.947 L 468.316 652.098 L 469.572 647.628 L 469.801 646.781 L 470.973 642.272 L 471.185 641.427 L 472.273 636.880 L 472.466 636.036 L 473.470 631.456 L 473.646 630.614 L 474.565 626.002 L 474.724 625.161 L 475.557 620.521 L 475.699 619.681 L 476.446 615.015 L 476.572 614.176 L 477.231 609.488 L 477.341 608.650 L 477.914 603.942 L 478.008 603.105 L 478.493 598.379 L 478.571 597.543 L 478.968 592.803 L 479.030 591.967 L 479.339 587.216 L 479.386 586.381 L 479.607 581.621 L 479.638 580.786 L 479.770 576.020 L 479.786 575.186 L 479.830 570.417 L 479.830 569.583 L 479.786 564.814 L 479.770 563.980 L 479.638 559.214 L 479.607 558.379 L 479.386 553.619 L 479.339 552.784 L 479.030 548.033 L 478.968 547.197 L 478.571 542.457 L 478.493 541.621 L 478.008 536.895 L 477.914 536.058 L 477.341 531.350 L 477.231 530.512 L 476.572 525.824 L 476.446 524.985 L 475.699 520.319 L 475.557 519.479 L 474.724 514.839 L 474.565 513.998 L 473.646 509.386 L 473.470 508.544 L 472.466 503.964 L 472.273 503.120 L 471.185 498.573 L 470.973 497.728 L 469.801 493.219 L 469.572 492.372 L 468.316 487.902 L 468.069 487.053 L 466.731 482.625 L 466.465 481.775 L 465.045 477.392 L 464.760 476.541 L 463.259 472.205 L 462.954 471.353 L 461.374 467.067 L 461.049 466.213 L 459.389 461.980 L 459.044 461.124 L 457.306 456.947 L 456.939 456.090 L 455.125 451.970 L 454.736 451.112 L 453.402 448.247 L 453.402 365.000 L 453.389 363.896 L 453.348 362.792 L 453.280 361.690 L 453.186 360.589 L 453.064 359.492 L 452.915 358.397 L 452.740 357.307 L 452.538 356.221 L 452.309 355.140 L 452.054 354.066 L 451.772 352.998 L 451.465 351.937 L 451.131 350.884 L 450.772 349.840 L 450.387 348.805 L 449.977 347.779 L 449.542 346.764 L 449.082 345.760 L 448.597 344.767 L 448.089 343.787 L 447.556 342.820 L 447.000 341.865 L 446.421 340.925 L 445.818 339.999 L 445.194 339.089 L 444.547 338.194 L 443.878 337.315 L 443.188 336.452 L 442.477 335.607 L 441.745 334.780 L 440.993 333.971 L 440.222 333.180 L 439.432 332.409 L 438.622 331.657 L 437.795 330.926 L 436.950 330.215 L 436.088 329.524 L 435.209 328.856 L 434.314 328.209 L 433.403 327.584 L 432.477 326.982 L 431.537 326.402 L 430.583 325.846 L 429.615 325.314 L 428.635 324.805 L 427.642 324.320 L 426.638 323.861 L 425.623 323.425 L 424.598 323.015 L 423.562 322.631 L 422.518 322.271 L 421.465 321.938 L 420.404 321.630 L 419.336 321.349 L 418.262 321.093 L 417.181 320.865 L 416.096 320.663 L 415.005 320.487 L 413.911 320.338 L 412.813 320.217 L 411.713 320.122 L 410.610 320.054 L 409.507 320.014 L 408.402 320.000 L 407.298 320.014 L 406.194 320.054 L 405.092 320.122 L 403.991 320.217 L 402.894 320.338 L 401.799 320.487 L 400.709 320.663 L 399.623 320.865 L 398.543 321.093 L 397.468 321.349 L 396.400 321.630 L 395.339 321.938 L 394.287 322.271 L 393.242 322.631 L 392.207 323.015 L 391.181 323.425 L 390.166 323.861 L 389.162 324.320 L 388.170 324.805 L 387.189 325.314 L 386.222 325.846 L 385.268 326.402 L 384.327 326.982 L 383.402 327.584 L 382.491 328.209 L 381.596 328.856 L 380.717 329.524 L 379.855 330.215 L 379.009 330.926 L 378.182 331.657 L 377.373 332.409 L 376.582 333.180 L 375.811 333.971 L 375.059 334.780 L 374.328 335.607 L 373.617 336.452 L 372.927 337.315 L 372.258 338.194 L 371.611 339.089 L 370.986 339.999 L 370.384 340.925 L 369.804 341.865 L 369.248 342.820 L 368.716 343.787 L 368.207 344.767 L 367.723 345.760 L 367.263 346.764 L 366.828 347.779 L 366.418 348.805 L 366.033 349.840 L 365.673 350.884 L 365.655 350.941 L 365.239 350.713 L 361.893 348.942 L 360.706 348.336 L 357.328 346.675 L 356.111 346.099 L 352.703 344.547 L 351.457 344.002 L 348.021 342.562 L 346.746 342.050 L 343.284 340.722 L 341.982 340.245 L 338.497 339.029 L 337.169 338.589 L 333.662 337.487 L 332.310 337.085 L 328.785 336.098 L 327.411 335.736 L 323.868 334.863 L 322.474 334.543 L 318.916 333.786 L 317.505 333.509 L 313.934 332.867 L 312.508 332.634 L 308.926 332.109 L 307.487 331.921 L 303.897 331.512 L 302.448 331.370 L 298.851 331.078 L 297.395 330.983 L 293.794 330.808 L 292.334 330.760 L 288.731 330.702 L 287.269 330.702 L 283.666 330.760 L 282.206 330.808 L 278.605 330.983 L 277.149 331.078 L 273.552 331.370 L 272.103 331.512 L 268.513 331.921 L 267.074 332.109 L 263.492 332.634 L 262.066 332.867 L 258.495 333.509 L 257.084 333.786 L 253.526 334.543 L 252.132 334.863 L 248.589 335.736 L 247.215 336.098 L 243.690 337.085 L 242.338 337.487 L 238.831 338.589 L 237.503 339.029 L 234.018 340.245 L 232.716 340.722 L 229.254 342.050 L 227.979 342.562 L 224.543 344.002 L 223.297 344.547 L 219.889 346.099 L 218.672 346.675 L 215.294 348.336 L 214.107 348.942 L 210.761 350.713 L 209.607 351.345 L 206.295 353.224 L 205.172 353.882 L 201.896 355.868 L 200.807 356.550 L 197.568 358.642 L 196.512 359.345 L 193.313 361.541 L 192.291 362.265 L 189.134 364.564 L 188.145 365.305 L 185.031 367.707 L 184.076 368.464 L 181.008 370.966 L 180.086 371.739 L 177.065 374.339 L 176.176 375.125 L 173.205 377.823 L 172.349 378.621 L 169.428 381.414 L 168.604 382.222 L 165.736 385.110 L 164.945 385.927 L 162.131 388.907 L 161.371 389.733 L 158.613 392.803 L 157.884 393.636 L 155.184 396.795 L 154.485 397.633 L 151.845 400.879 L 151.175 401.722 L 148.596 405.053 L 147.956 405.900 L 145.439 409.313 L 144.826 410.164 L 142.374 413.658 L 141.789 414.512 L 139.402 418.085 L 138.844 418.940 L 136.524 422.589 L 135.992 423.447 L 133.740 427.170 L 133.234 428.028 L 131.052 431.823 L 130.571 432.682 L 128.460 436.547 L 128.002 437.406 L 125.964 441.338 L 125.530 442.197 L 123.565 446.194 L 123.154 447.052 L 121.264 451.112 L 120.875 451.970 L 119.061 456.090 L 118.694 456.947 L 116.956 461.124 L 116.611 461.980 L 114.951 466.213 L 114.626 467.067 L 113.046 471.353 L 112.741 472.205 L 111.240 476.541 L 110.955 477.392 L 109.535 481.775 L 109.269 482.625 L 107.931 487.053 L 107.684 487.902 L 106.428 492.372 L 106.199 493.219 L 105.027 497.728 L 104.815 498.573 L 103.727 503.120 L 103.534 503.964 L 102.530 508.544 L 102.354 509.386 L 101.435 513.998 L 101.276 514.839 L 100.443 519.479 L 100.301 520.319 L 99.554 524.985 L 99.428 525.824 L 98.769 530.512 L 98.659 531.350 L 98.086 536.058 L 97.992 536.895 L 97.507 541.621 L 97.429 542.457 L 97.032 547.197 L 96.970 548.033 L 96.661 552.784 L 96.614 553.619 L 96.393 558.379 L 96.362 559.214 L 96.230 563.980 L 96.214 564.814 L 96.170 569.583 L 96.170 570.417 L 96.214 575.186 L 96.230 576.020 L 96.362 580.786 L 96.393 581.621 L 96.614 586.381 L 96.661 587.216 L 96.970 591.967 L 97.032 592.803 L 97.429 597.543 L 97.507 598.379 L 97.992 603.105 L 98.086 603.942 L 98.659 608.650 L 98.769 609.488 L 99.428 614.176 L 99.554 615.015 L 100.301 619.681 L 100.443 620.521 L 101.276 625.161 L 101.435 626.002 L 102.354 630.614 L 102.530 631.456 L 103.534 636.036 L 103.727 636.880 L 104.815 641.427 L 105.027 642.272 L 106.199 646.781 L 106.428 647.628 L 107.684 652.098 L 107.931 652.947 L 109.269 657.375 L 109.535 658.225 L 110.955 662.608 L 111.240 663.459 L 112.741 667.795 L 113.046 668.647 L 114.626 672.933 L 114.951 673.787 L 116.611 678.020 L 116.956 678.876 L 118.694 683.053 L 119.061 683.910 L 120.875 688.030 L 121.264 688.888 L 123.154 692.948 L 123.565 693.806 L 125.530 697.803 L 125.964 698.662 L 128.002 702.594 L 128.460 703.453 L 130.571 707.318 L 131.052 708.177 L 133.234 711.972 L 133.740 712.830 L 135.992 716.553 L 136.524 717.411 L 138.844 721.060 L 139.402 721.915 L 141.789 725.488 L 142.374 726.342 L 144.826 729.836 L 145.439 730.687 L 147.956 734.100 L 148.596 734.947 L 151.175 738.278 L 151.845 739.121 L 154.485 742.367 L 155.184 743.205 L 157.884 746.364 L 158.613 747.197 L 161.371 750.267 L 162.131 751.093 L 164.945 754.073 L 165.736 754.890 L 168.604 757.778 L 169.428 758.586 L 172.349 761.379 L 173.205 762.177 L 176.176 764.875 L 177.065 765.661 L 180.086 768.261 L 181.008 769.034 L 184.076 771.536 L 185.031 772.293 L 188.145 774.695 L 189.134 775.436 L 192.291 777.735 L 193.313 778.459 L 196.512 780.655 L 197.568 781.358 L 200.807 783.450 L 201.896 784.132 L 205.172 786.118 L 206.295 786.776 L 209.607 788.655 L 210.761 789.287 L 214.107 791.058 L 215.294 791.664 L 218.672 793.325 L 219.889 793.901 L 223.297 795.453 L 224.543 795.998 L 227.979 797.438 L 229.254 797.950 L 232.716 799.278 L 234.018 799.755 L 237.503 800.971 L 238.831 801.411 L 242.338 802.513 L 243.690 802.915 L 247.215 803.902 L 248.589 804.264 L 252.132 805.137 L 253.526 805.457 L 257.084 806.214 L 258.495 806.491 L 262.066 807.133 L 263.492 807.366 L 267.074 807.891 L 268.513 808.079 L 272.103 808.488 L 273.552 808.630 L 277.149 808.922 L 278.605 809.017 L 282.206 809.192 L 283.666 809.240 L 287.269 809.298 L 288.731 809.298 L 292.334 809.240 L 293.794 809.192 L 297.395 809.017 L 298.851 808.922 L 302.448 808.630 L 303.897 808.488 L 307.487 808.079 L 308.926 807.891 L 312.508 807.366 L 313.934 807.133 L 317.505 806.491 L 318.916 806.214 L 322.474 805.457 L 323.868 805.137 L 327.411 804.264 L 328.785 803.902 L 332.310 802.915 L 333.662 802.513 L 337.169 801.411 L 338.497 800.971 L 341.982 799.755 L 343.284 799.278 L 346.746 797.950 L 348.021 797.438 L 351.457 795.998 L 352.703 795.453 L 356.111 793.901 L 357.328 793.325 L 360.706 791.664 L 361.893 791.058 L 365.239 789.287 L 366.393 788.655 L 367.237 788.176 L 367.263 788.236 Z M 363.402 669.307 L 363.258 669.545 L 361.483 672.338 L 359.667 675.055 L 357.813 677.696 L 355.923 680.260 L 353.998 682.745 L 352.042 685.149 L 350.057 687.472 L 348.044 689.713 L 346.007 691.871 L 343.946 693.946 L 341.865 695.936 L 339.766 697.842 L 337.651 699.663 L 335.522 701.399 L 333.381 703.051 L 331.229 704.617 L 329.070 706.100 L 326.904 707.499 L 324.734 708.815 L 322.560 710.048 L 320.384 711.199 L 318.208 712.269 L 316.033 713.260 L 313.859 714.171 L 311.687 715.004 L 309.518 715.761 L 307.353 716.441 L 305.190 717.047 L 303.032 717.579 L 300.877 718.038 L 298.725 718.425 L 296.576 718.740 L 294.430 718.984 L 292.285 719.159 L 290.142 719.263 L 288.000 719.298 L 285.858 719.263 L 283.715 719.159 L 281.570 718.984 L 279.424 718.740 L 277.275 718.425 L 275.123 718.038 L 272.968 717.579 L 270.810 717.047 L 268.647 716.441 L 266.482 715.761 L 264.313 715.004 L 262.141 714.171 L 259.967 713.260 L 257.792 712.269 L 255.616 711.199 L 253.440 710.048 L 251.266 708.815 L 249.096 707.499 L 246.930 706.100 L 244.771 704.617 L 242.619 703.051 L 240.478 701.399 L 238.349 699.663 L 236.234 697.842 L 234.135 695.936 L 232.054 693.946 L 229.993 691.871 L 227.956 689.713 L 225.943 687.472 L 223.958 685.149 L 222.002 682.745 L 220.077 680.260 L 218.187 677.696 L 216.333 675.055 L 214.517 672.338 L 212.742 669.545 L 211.009 666.680 L 209.320 663.744 L 207.678 660.738 L 206.085 657.664 L 204.542 654.526 L 203.051 651.324 L 201.614 648.061 L 200.232 644.739 L 198.908 641.361 L 197.642 637.929 L 196.436 634.445 L 195.292 630.913 L 194.211 627.334 L 193.193 623.712 L 192.241 620.049 L 191.355 616.348 L 190.536 612.611 L 189.785 608.842 L 189.103 605.043 L 188.491 601.217 L 187.950 597.367 L 187.479 593.497 L 187.080 589.608 L 186.753 585.705 L 186.498 581.789 L 186.316 577.864 L 186.206 573.934 L 186.170 570.000 L 186.206 566.066 L 186.316 562.136 L 186.498 558.211 L 186.753 554.295 L 187.080 550.392 L 187.479 546.503 L 187.950 542.633 L 188.491 538.783 L 189.103 534.957 L 189.785 531.158 L 190.536 527.389 L 191.355 523.652 L 192.241 519.951 L 193.193 516.288 L 194.211 512.666 L 195.292 509.087 L 196.436 505.555 L 197.642 502.071 L 198.908 498.639 L 200.232 495.261 L 201.614 491.939 L 203.051 488.676 L 204.542 485.474 L 206.085 482.336 L 207.678 479.262 L 209.320 476.256 L 211.009 473.320 L 212.742 470.455 L 214.517 467.662 L 216.333 464.945 L 218.187 462.304 L 220.077 459.740 L 222.002 457.255 L 223.958 454.851 L 225.943 452.528 L 227.956 450.287 L 229.993 448.129 L 232.054 446.054 L 234.135 444.064 L 236.234 442.158 L 238.349 440.337 L 240.478 438.601 L 242.619 436.949 L 244.771 435.383 L 246.930 433.900 L 249.096 432.501 L 251.266 431.185 L 253.440 429.952 L 255.616 428.801 L 257.792 427.731 L 259.967 426.740 L 262.141 425.829 L 264.313 424.996 L 266.482 424.239 L 268.647 423.559 L 270.810 422.953 L 272.968 422.421 L 275.123 421.962 L 277.275 421.575 L 279.424 421.260 L 281.570 421.016 L 283.715 420.841 L 285.858 420.737 L 288.000 420.702 L 290.142 420.737 L 292.285 420.841 L 294.430 421.016 L 296.576 421.260 L 298.725 421.575 L 300.877 421.962 L 303.032 422.421 L 305.190 422.953 L 307.353 423.559 L 309.518 424.239 L 311.687 424.996 L 313.859 425.829 L 316.033 426.740 L 318.208 427.731 L 320.384 428.801 L 322.560 429.952 L 324.734 431.185 L 326.904 432.501 L 329.070 433.900 L 331.229 435.383 L 333.381 436.949 L 335.522 438.601 L 337.651 440.337 L 339.766 442.158 L 341.865 444.064 L 343.946 446.054 L 346.007 448.129 L 348.044 450.287 L 350.057 452.528 L 352.042 454.851 L 353.998 457.255 L 355.923 459.740 L 357.813 462.304 L 359.667 464.945 L 361.483 467.662 L 363.258 470.455 L 363.402 470.693 L 363.402 669.307 Z" fill="black" fill-rule="evenodd"/>
</svg>
