<svg xmlns="http://www.w3.org/2000/svg" viewBox="0 0 600.000 1000">
  <path d="M 255.000 780.000 L 255.014 781.104 L 255.054 782.208 L 255.122 783.310 L 255.217 784.411 L 255.338 785.508 L 255.487 786.603 L 255.663 787.693 L 255.865 788.779 L 256.093 789.860 L 256.349 790.934 L 256.630 792.002 L 256.938 793.063 L 257.271 794.116 L 257.631 795.160 L 258.015 796.195 L 258.425 797.221 L 258.861 798.236 L 259.320 799.240 L 259.805 800.233 L 260.314 801.213 L 260.846 802.180 L 261.402 803.135 L 261.982 804.075 L 262.584 805.001 L 263.209 805.911 L 263.856 806.806 L 264.524 807.685 L 265.215 808.548 L 265.926 809.393 L 266.657 810.220 L 267.409 811.029 L 268.180 811.820 L 268.971 812.591 L 269.780 813.343 L 270.607 814.074 L 271.452 814.785 L 272.315 815.476 L 273.194 816.144 L 274.089 816.791 L 274.999 817.416 L 275.925 818.018 L 276.865 818.598 L 277.820 819.154 L 278.787 819.686 L 279.767 820.195 L 280.760 820.680 L 281.764 821.139 L 282.779 821.575 L 283.805 821.985 L 284.840 822.369 L 285.884 822.729 L 286.937 823.062 L 287.998 823.370 L 289.066 823.651 L 290.140 823.907 L 291.221 824.135 L 292.307 824.337 L 293.397 824.513 L 294.492 824.662 L 295.589 824.783 L 296.690 824.878 L 297.792 824.946 L 298.896 824.986 L 300.000 825.000 L 301.104 824.986 L 302.208 824.946 L 303.310 824.878 L 304.411 824.783 L 305.508 824.662 L 306.603 824.513 L 307.693 824.337 L 308.779 824.135 L 309.860 823.907 L 310.934 823.651 L 312.002 823.370 L 313.063 823.062 L 314.116 822.729 L 315.160 822.369 L 316.195 821.985 L 317.221 821.575 L 318.236 821.139 L 319.240 820.680 L 320.233 820.195 L 321.213 819.686 L 322.180 819.154 L 323.135 818.598 L 324.075 818.018 L 325.001 817.416 L 325.911 816.791 L 326.806 816.144 L 327.685 815.476 L 328.548 814.785 L 329.393 814.074 L 330.220 813.343 L 331.029 812.591 L 331.820 811.820 L 332.591 811.029 L 333.343 810.220 L 334.074 809.393 L 334.785 808.548 L 335.476 807.685 L 336.144 806.806 L 336.791 805.911 L 337.416 805.001 L 338.018 804.075 L 338.598 803.135 L 339.154 802.180 L 339.686 801.213 L 340.195 800.233 L 340.680 799.240 L 341.139 798.236 L 341.575 797.221 L 341.985 796.195 L 342.369 795.160 L 342.729 794.116 L 343.062 793.063 L 343.370 792.002 L 343.651 790.934 L 343.907 789.860 L 344.135 788.779 L 344.337 787.693 L 344.513 786.603 L 344.662 785.508 L 344.783 784.411 L 344.878 783.310 L 344.946 782.208 L 344.986 781.104 L 345.000 780.000 L 345.000 40.000 L 344.986 38.896 L 344.946 37.792 L 344.878 36.690 L 344.783 35.589 L 344.662 34.492 L 344.513 33.397 L 344.337 32.307 L 344.135 31.221 L 343.907 30.140 L 343.651 29.066 L 343.370 27.998 L 343.062 26.937 L 342.729 25.884 L 342.369 24.840 L 341.985 23.805 L 341.575 22.779 L 341.139 21.764 L 340.680 20.760 L 340.195 19.767 L 339.686 18.787 L 339.154 17.820 L 338.598 16.865 L 338.018 15.925 L 337.416 14.999 L 336.791 14.089 L 336.144 13.194 L 335.476 12.315 L 334.785 11.452 L 334.074 10.607 L 333.343 9.780 L 332.591 8.971 L 331.820 8.180 L 331.029 7.409 L 330.220 6.657 L 329.393 5.926 L 328.548 5.215 L 327.685 4.524 L 326.806 3.856 L 325.911 3.209 L 325.001 2.584 L 324.075 1.982 L 323.135 1.402 L 322.180 0.846 L 321.213 0.314 L 320.233 -0.195 L 319.240 -0.680 L 318.236 -1.139 L 317.221 -1.575 L 316.195 -1.985 L 315.160 -2.369 L 314.116 -2.729 L 313.063 -3.062 L 312.002 -3.370 L 310.934 -3.651 L 309.860 -3.907 L 308.779 -4.135 L 307.693 -4.337 L 306.603 -4.513 L 305.508 -4.662 L 304.411 -4.783 L 303.310 -4.878 L 302.208 -4.946 L 301.104 -4.986 L 300.000 -5.000 L 298.896 -4.986 L 297.792 -4.946 L 296.690 -4.878 L 295.589 -4.783 L 294.492 -4.662 L 293.397 -4.513 L 292.307 -4.337 L 291.221 -4.135 L 290.140 -3.907 L 289.066 -3.651 L 287.998 -3.370 L 286.937 -3.062 L 285.884 -2.729 L 284.840 -2.369 L 283.805 -1.985 L 282.779 -1.575 L 281.764 -1.139 L 280.760 -0.680 L 279.767 -0.195 L 278.787 0.314 L 277.820 0.846 L 276.865 1.402 L 275.925 1.982 L 274.999 2.584 L 274.089 3.209 L 273.194 3.856 L 272.315 4.524 L 271.452 5.215 L 270.607 5.926 L 269.780 6.657 L 268.971 7.409 L 268.180 8.180 L 267.409 8.971 L 266.657 9.780 L 265.926 10.607 L 265.215 11.452 L 264.524 12.315 L 263.856 13.194 L 263.209 14.089 L 262.584 14.999 L 261.982 15.925 L 261.402 16.865 L 260.846 17.820 L 260.314 18.787 L 259.805 19.767 L 259.320 20.760 L 258.861 21.764 L 258.425 22.779 L 258.015 23.805 L 257.631 24.840 L 257.271 25.884 L 256.938 26.937 L 256.630 27.998 L 256.349 29.066 L 256.093 30.140 L 255.865 31.221 L 255.663 32.307 L 255.487 33.397 L 255.338 34.492 L 255.217 35.589 L 255.122 36.690 L 255.054 37.792 L 255.014 38.896 L 255.000 40.000 L 255.000 780.000 Z" fill="black" fill-rule="evenodd"/>
</svg>
