<svg xmlns="http://www.w3.org/2000/svg" width="600.000" height="1000" viewBox="0 0 600.000 1000">
  <path d="M 504.598 570.417 L 504.598 569.583 L 504.550 564.400 L 504.535 563.565 L 504.390 558.385 L 504.359 557.550 L 504.119 552.376 L 504.073 551.541 L 503.737 546.377 L 503.674 545.541 L 503.243 540.389 L 503.165 539.552 L 502.637 534.416 L 502.544 533.579 L 501.921 528.461 L 501.811 527.623 L 501.094 522.527 L 500.968 521.688 L 500.157 516.617 L 500.014 515.777 L 499.109 510.734 L 498.950 509.892 L 497.952 504.880 L 497.776 504.037 L 496.685 499.059 L 496.491 498.215 L 495.308 493.274 L 495.097 492.428 L 493.823 487.526 L 493.594 486.680 L 492.229 481.821 L 491.982 480.972 L 490.527 476.160 L 490.261 475.310 L 488.718 470.545 L 488.433 469.694 L 486.801 464.981 L 486.497 464.129 L 484.778 459.470 L 484.454 458.616 L 482.650 454.015 L 482.304 453.160 L 480.415 448.619 L 480.049 447.762 L 478.076 443.284 L 477.688 442.426 L 475.633 438.013 L 475.222 437.155 L 473.086 432.810 L 472.653 431.951 L 470.437 427.677 L 469.979 426.818 L 467.685 422.617 L 467.203 421.758 L 464.832 417.633 L 464.325 416.775 L 461.878 412.728 L 461.346 411.871 L 458.824 407.904 L 458.266 407.049 L 455.672 403.165 L 455.087 402.312 L 452.421 398.514 L 451.808 397.663 L 449.073 393.953 L 448.432 393.105 L 445.629 389.485 L 444.959 388.642 L 442.089 385.114 L 441.390 384.275 L 438.456 380.842 L 437.726 380.009 L 434.729 376.672 L 433.969 375.846 L 430.911 372.607 L 430.119 371.790 L 427.002 368.651 L 426.178 367.843 L 423.003 364.807 L 422.147 364.009 L 418.917 361.076 L 418.029 360.291 L 414.745 357.464 L 413.823 356.691 L 410.488 353.972 L 409.533 353.214 L 406.149 350.604 L 405.160 349.863 L 401.728 347.364 L 400.706 346.640 L 397.229 344.253 L 396.173 343.550 L 392.652 341.276 L 391.563 340.595 L 388.002 338.436 L 386.880 337.778 L 383.279 335.736 L 382.125 335.103 L 378.488 333.178 L 377.301 332.573 L 373.630 330.766 L 372.413 330.190 L 368.709 328.504 L 367.462 327.959 L 363.727 326.393 L 362.452 325.882 L 358.690 324.438 L 357.387 323.961 L 353.599 322.640 L 352.271 322.199 L 348.460 321.002 L 347.108 320.600 L 343.276 319.526 L 341.902 319.165 L 338.051 318.216 L 336.657 317.896 L 332.790 317.073 L 331.378 316.796 L 327.497 316.098 L 326.071 315.865 L 322.177 315.294 L 320.739 315.106 L 316.836 314.662 L 315.387 314.520 L 311.478 314.202 L 310.022 314.108 L 306.107 313.917 L 304.647 313.870 L 300.731 313.806 L 299.269 313.806 L 295.353 313.870 L 293.893 313.917 L 289.978 314.108 L 288.522 314.202 L 284.613 314.520 L 283.164 314.662 L 279.261 315.106 L 277.823 315.294 L 273.929 315.865 L 272.503 316.098 L 268.622 316.796 L 267.210 317.073 L 263.343 317.896 L 261.949 318.216 L 258.098 319.165 L 256.724 319.526 L 252.892 320.600 L 251.540 321.002 L 247.729 322.199 L 246.401 322.640 L 242.613 323.961 L 241.310 324.438 L 237.548 325.882 L 236.273 326.393 L 232.538 327.959 L 231.291 328.504 L 227.587 330.190 L 226.370 330.766 L 222.699 332.573 L 221.512 333.178 L 217.875 335.103 L 216.721 335.736 L 213.120 337.778 L 211.998 338.436 L 208.437 340.595 L 207.348 341.276 L 203.827 343.550 L 202.771 344.253 L 199.294 346.640 L 198.272 347.364 L 194.840 349.863 L 193.851 350.604 L 190.467 353.214 L 189.512 353.972 L 186.177 356.691 L 185.255 357.464 L 181.971 360.291 L 181.083 361.076 L 177.853 364.009 L 176.997 364.807 L 173.822 367.843 L 172.998 368.651 L 169.881 371.790 L 169.089 372.607 L 166.031 375.846 L 165.271 376.672 L 162.274 380.009 L 161.544 380.842 L 158.610 384.275 L 157.911 385.114 L 155.041 388.642 L 154.371 389.485 L 151.568 393.105 L 150.927 393.953 L 148.192 397.663 L 147.579 398.514 L 144.913 402.312 L 144.328 403.165 L 141.734 407.049 L 141.176 407.904 L 138.654 411.871 L 138.122 412.728 L 135.675 416.775 L 135.168 417.633 L 132.797 421.758 L 132.315 422.617 L 130.021 426.818 L 129.563 427.677 L 127.347 431.951 L 126.914 432.810 L 124.778 437.155 L 124.367 438.013 L 122.312 442.426 L 121.924 443.284 L 119.951 447.762 L 119.585 448.619 L 117.696 453.160 L 117.350 454.015 L 115.546 458.616 L 115.222 459.470 L 113.503 464.129 L 113.199 464.981 L 111.567 469.694 L 111.282 470.545 L 109.739 475.310 L 109.473 476.160 L 108.018 480.972 L 107.771 481.821 L 106.406 486.680 L 106.177 487.526 L 104.903 492.428 L 104.692 493.274 L 103.509 498.215 L 103.315 499.059 L 102.224 504.037 L 102.048 504.880 L 101.050 509.892 L 100.891 510.734 L 99.986 515.777 L 99.843 516.617 L 99.032 521.688 L 98.906 522.527 L 98.189 527.623 L 98.079 528.461 L 97.456 533.579 L 97.363 534.416 L 96.835 539.552 L 96.757 540.389 L 96.326 545.541 L 96.263 546.377 L 95.927 551.541 L 95.881 552.376 L 95.641 557.550 L 95.610 558.385 L 95.465 563.565 L 95.450 564.400 L 95.402 569.583 L 95.402 570.417 L 95.450 575.600 L 95.465 576.435 L 95.610 581.615 L 95.641 582.450 L 95.881 587.624 L 95.927 588.459 L 96.263 593.623 L 96.326 594.459 L 96.757 599.611 L 96.835 600.448 L 97.363 605.584 L 97.456 606.421 L 98.079 611.539 L 98.189 612.377 L 98.906 617.473 L 99.032 618.312 L 99.843 623.383 L 99.986 624.223 L 100.891 629.266 L 101.050 630.108 L 102.048 635.120 L 102.224 635.963 L 103.315 640.941 L 103.509 641.785 L 104.692 646.726 L 104.903 647.572 L 106.177 652.474 L 106.406 653.320 L 107.771 658.179 L 108.018 659.028 L 109.473 663.840 L 109.739 664.690 L 111.282 669.455 L 111.567 670.306 L 113.199 675.019 L 113.503 675.871 L 115.222 680.530 L 115.546 681.384 L 117.350 685.985 L 117.696 686.840 L 119.585 691.381 L 119.951 692.238 L 121.924 696.716 L 122.312 697.574 L 124.367 701.987 L 124.778 702.845 L 126.914 707.190 L 127.347 708.049 L 129.563 712.323 L 130.021 713.182 L 132.315 717.383 L 132.797 718.242 L 135.168 722.367 L 135.675 723.225 L 138.122 727.272 L 138.654 728.129 L 141.176 732.096 L 141.734 732.951 L 144.328 736.835 L 144.913 737.688 L 147.579 741.486 L 148.192 742.337 L 150.927 746.047 L 151.568 746.895 L 154.371 750.515 L 155.041 751.358 L 157.911 754.886 L 158.610 755.725 L 161.544 759.158 L 162.274 759.991 L 165.271 763.328 L 166.031 764.154 L 169.089 767.393 L 169.881 768.210 L 172.998 771.349 L 173.822 772.157 L 176.997 775.193 L 177.853 775.991 L 181.083 778.924 L 181.971 779.709 L 185.255 782.536 L 186.177 783.309 L 189.512 786.028 L 190.467 786.786 L 193.851 789.396 L 194.840 790.137 L 198.272 792.636 L 199.294 793.360 L 202.771 795.747 L 203.827 796.450 L 207.348 798.724 L 208.437 799.405 L 211.998 801.564 L 213.120 802.222 L 216.721 804.264 L 217.875 804.897 L 221.512 806.822 L 222.699 807.427 L 226.370 809.234 L 227.587 809.810 L 231.291 811.496 L 232.538 812.041 L 236.273 813.607 L 237.548 814.118 L 241.310 815.562 L 242.613 816.039 L 246.401 817.360 L 247.729 817.801 L 251.540 818.998 L 252.892 819.400 L 256.724 820.474 L 258.098 820.835 L 261.949 821.784 L 263.343 822.104 L 267.210 822.927 L 268.622 823.204 L 272.503 823.902 L 273.929 824.135 L 277.823 824.706 L 279.261 824.894 L 283.164 825.338 L 284.613 825.480 L 288.522 825.798 L 289.978 825.892 L 293.893 826.083 L 295.353 826.130 L 299.269 826.194 L 300.731 826.194 L 304.647 826.130 L 306.107 826.083 L 310.022 825.892 L 311.478 825.798 L 315.387 825.480 L 316.836 825.338 L 320.739 824.894 L 322.177 824.706 L 326.071 824.135 L 327.497 823.902 L 331.378 823.204 L 332.790 822.927 L 336.657 822.104 L 338.051 821.784 L 341.902 820.835 L 343.276 820.474 L 347.108 819.400 L 348.460 818.998 L 352.271 817.801 L 353.599 817.360 L 357.387 816.039 L 358.690 815.562 L 362.452 814.118 L 363.727 813.607 L 367.462 812.041 L 368.709 811.496 L 372.413 809.810 L 373.630 809.234 L 377.301 807.427 L 378.488 806.822 L 382.125 804.897 L 383.279 804.264 L 386.880 802.222 L 388.002 801.564 L 391.563 799.405 L 392.652 798.724 L 396.173 796.450 L 397.229 795.747 L 400.706 793.360 L 401.728 792.636 L 405.160 790.137 L 406.149 789.396 L 409.533 786.786 L 410.488 786.028 L 413.823 783.309 L 414.745 782.536 L 418.029 779.709 L 418.917 778.924 L 422.147 775.991 L 423.003 775.193 L 426.178 772.157 L 427.002 771.349 L 430.119 768.210 L 430.911 767.393 L 433.969 764.154 L 434.729 763.328 L 437.726 759.991 L 438.456 759.158 L 441.390 755.725 L 442.089 754.886 L 444.959 751.358 L 445.629 750.515 L 448.432 746.895 L 449.073 746.047 L 451.808 742.337 L 452.421 741.486 L 455.087 737.688 L 455.672 736.835 L 458.266 732.951 L 458.824 732.096 L 461.346 728.129 L 461.878 727.272 L 464.325 723.225 L 464.832 722.367 L 467.203 718.242 L 467.685 717.383 L 469.979 713.182 L 470.437 712.323 L 472.653 708.049 L 473.086 707.190 L 475.222 702.845 L 475.633 701.987 L 477.688 697.574 L 478.076 696.716 L 480.049 692.238 L 480.415 691.381 L 482.304 686.840 L 482.650 685.985 L 484.454 681.384 L 484.778 680.530 L 486.497 675.871 L 486.801 675.019 L 488.433 670.306 L 488.718 669.455 L 490.261 664.690 L 490.527 663.840 L 491.982 659.028 L 492.229 658.179 L 493.594 653.320 L 493.823 652.474 L 495.097 647.572 L 495.308 646.726 L 496.491 641.785 L 496.685 640.941 L 497.776 635.963 L 497.952 635.120 L 498.950 630.108 L 499.109 629.266 L 500.014 624.223 L 500.157 623.383 L 500.968 618.312 L 501.094 617.473 L 501.811 612.377 L 501.921 611.539 L 502.544 606.421 L 502.637 605.584 L 503.165 600.448 L 503.243 599.611 L 503.674 594.459 L 503.737 593.623 L 504.073 588.459 L 504.119 587.624 L 504.359 582.450 L 504.390 581.615 L 504.535 576.435 L 504.550 575.600 L 504.598 570.417 Z M 414.598 570.000 L 414.558 574.348 L 414.437 578.693 L 414.235 583.032 L 413.954 587.361 L 413.592 591.677 L 413.151 595.976 L 412.630 600.256 L 412.031 604.513 L 411.354 608.745 L 410.600 612.947 L 409.770 617.117 L 408.863 621.252 L 407.883 625.349 L 406.828 629.404 L 405.702 633.415 L 404.504 637.379 L 403.236 641.292 L 401.900 645.153 L 400.497 648.957 L 399.028 652.704 L 397.495 656.389 L 395.900 660.010 L 394.245 663.565 L 392.531 667.051 L 390.760 670.466 L 388.935 673.808 L 387.057 677.075 L 385.128 680.264 L 383.151 683.374 L 381.128 686.402 L 379.060 689.347 L 376.951 692.207 L 374.802 694.982 L 372.617 697.668 L 370.397 700.266 L 368.144 702.774 L 365.862 705.191 L 363.552 707.517 L 361.217 709.750 L 358.860 711.890 L 356.482 713.938 L 354.086 715.891 L 351.674 717.752 L 349.248 719.518 L 346.810 721.192 L 344.363 722.773 L 341.908 724.261 L 339.446 725.657 L 336.979 726.963 L 334.510 728.177 L 332.038 729.303 L 329.565 730.339 L 327.093 731.288 L 324.621 732.150 L 322.150 732.927 L 319.681 733.618 L 317.215 734.226 L 314.750 734.751 L 312.288 735.193 L 309.828 735.555 L 307.369 735.835 L 304.912 736.034 L 302.456 736.154 L 300.000 736.194 L 297.544 736.154 L 295.088 736.034 L 292.631 735.835 L 290.172 735.555 L 287.712 735.193 L 285.250 734.751 L 282.785 734.226 L 280.319 733.618 L 277.850 732.927 L 275.379 732.150 L 272.907 731.288 L 270.435 730.339 L 267.962 729.303 L 265.490 728.177 L 263.021 726.963 L 260.554 725.657 L 258.092 724.261 L 255.637 722.773 L 253.190 721.192 L 250.752 719.518 L 248.326 717.752 L 245.914 715.891 L 243.518 713.938 L 241.140 711.890 L 238.783 709.750 L 236.448 707.517 L 234.138 705.191 L 231.856 702.774 L 229.603 700.266 L 227.383 697.668 L 225.198 694.982 L 223.049 692.207 L 220.940 689.347 L 218.872 686.402 L 216.849 683.374 L 214.872 680.264 L 212.943 677.075 L 211.065 673.808 L 209.240 670.466 L 207.469 667.051 L 205.755 663.565 L 204.100 660.010 L 202.505 656.389 L 200.972 652.704 L 199.503 648.957 L 198.100 645.153 L 196.764 641.292 L 195.496 637.379 L 194.298 633.415 L 193.172 629.404 L 192.117 625.349 L 191.137 621.252 L 190.230 617.117 L 189.400 612.947 L 188.646 608.745 L 187.969 604.513 L 187.370 600.256 L 186.849 595.976 L 186.408 591.677 L 186.046 587.361 L 185.765 583.032 L 185.563 578.693 L 185.442 574.348 L 185.402 570.000 L 185.442 565.652 L 185.563 561.307 L 185.765 556.968 L 186.046 552.639 L 186.408 548.323 L 186.849 544.024 L 187.370 539.744 L 187.969 535.487 L 188.646 531.255 L 189.400 527.053 L 190.230 522.883 L 191.137 518.748 L 192.117 514.651 L 193.172 510.596 L 194.298 506.585 L 195.496 502.621 L 196.764 498.708 L 198.100 494.847 L 199.503 491.043 L 200.972 487.296 L 202.505 483.611 L 204.100 479.990 L 205.755 476.435 L 207.469 472.949 L 209.240 469.534 L 211.065 466.192 L 212.943 462.925 L 214.872 459.736 L 216.849 456.626 L 218.872 453.598 L 220.940 450.653 L 223.049 447.793 L 225.198 445.018 L 227.383 442.332 L 229.603 439.734 L 231.856 437.226 L 234.138 434.809 L 236.448 432.483 L 238.783 430.250 L 241.140 428.110 L 243.518 426.062 L 245.914 424.109 L 248.326 422.248 L 250.752 420.482 L 253.190 418.808 L 255.637 417.227 L 258.092 415.739 L 260.554 414.343 L 263.021 413.037 L 265.490 411.823 L 267.962 410.697 L 270.435 409.661 L 272.907 408.712 L 275.379 407.850 L 277.850 407.073 L 280.319 406.382 L 282.785 405.774 L 285.250 405.249 L 287.712 404.807 L 290.172 404.445 L 292.631 404.165 L 295.088 403.966 L 297.544 403.846 L 300.000 403.806 L 302.456 403.846 L 304.912 403.966 L 307.369 404.165 L 309.828 404.445 L 312.288 404.807 L 314.750 405.249 L 317.215 405.774 L 319.681 406.382 L 322.150 407.073 L 324.621 407.850 L 327.093 408.712 L 329.565 409.661 L 332.038 410.697 L 334.510 411.823 L 336.979 413.037 L 339.446 414.343 L 341.908 415.739 L 344.363 417.227 L 346.810 418.808 L 349.248 420.482 L 351.674 422.248 L 354.086 424.109 L 356.482 426.062 L 358.860 428.110 L 361.217 430.250 L 363.552 432.483 L 365.862 434.809 L 368.144 437.226 L 370.397 439.734 L 372.617 442.332 L 374.802 445.018 L 376.951 447.793 L 379.060 450.653 L 381.128 453.598 L 383.151 456.626 L 385.128 459.736 L 387.057 462.925 L 388.935 466.192 L 390.760 469.534 L 392.531 472.949 L 394.245 476.435 L 395.900 479.990 L 397.495 483.611 L 399.028 487.296 L 400.497 491.043 L 401.900 494.847 L 403.236 498.708 L 404.504 502.621 L 405.702 506.585 L 406.828 510.596 L 407.883 514.651 L 408.863 518.748 L 409.770 522.883 L 410.600 527.053 L 411.354 531.255 L 412.031 535.487 L 412.630 539.744 L 413.151 544.024 L 413.592 548.323 L 413.954 552.639 L 414.235 556.968 L 414.437 561.307 L 414.558 565.652 L 414.598 570.000 Z" fill="black" fill-rule="evenodd"/>
</svg>
