<svg xmlns="http://www.w3.org/2000/svg" viewBox="0 0 600.000 1000">
  <path d="M 415.000 278.640 L 415.000 780.000 L 415.024 781.472 L 415.096 782.943 L 415.217 784.411 L 415.385 785.874 L 415.601 787.330 L 415.865 788.779 L 416.176 790.218 L 416.533 791.647 L 416.938 793.063 L 417.388 794.465 L 417.884 795.851 L 418.425 797.221 L 419.011 798.572 L 419.641 799.903 L 420.314 801.213 L 421.029 802.500 L 421.786 803.763 L 422.584 805.001 L 423.422 806.211 L 424.299 807.394 L 425.215 808.548 L 426.167 809.671 L 427.156 810.762 L 428.180 811.820 L 429.238 812.844 L 430.329 813.833 L 431.452 814.785 L 432.606 815.701 L 433.789 816.578 L 434.999 817.416 L 436.237 818.214 L 437.500 818.971 L 438.787 819.686 L 440.097 820.359 L 441.428 820.989 L 442.779 821.575 L 444.149 822.116 L 445.535 822.612 L 446.937 823.062 L 448.353 823.467 L 449.782 823.824 L 451.221 824.135 L 452.670 824.399 L 454.126 824.615 L 455.589 824.783 L 457.057 824.904 L 458.528 824.976 L 460.000 825.000 L 461.472 824.976 L 462.943 824.904 L 464.411 824.783 L 465.874 824.615 L 467.330 824.399 L 468.779 824.135 L 470.218 823.824 L 471.647 823.467 L 473.063 823.062 L 474.465 822.612 L 475.851 822.116 L 477.221 821.575 L 478.572 820.989 L 479.903 820.359 L 481.213 819.686 L 482.500 818.971 L 483.763 818.214 L 485.001 817.416 L 486.211 816.578 L 487.394 815.701 L 488.548 814.785 L 489.671 813.833 L 490.762 812.844 L 491.820 811.820 L 492.844 810.762 L 493.833 809.671 L 494.785 808.548 L 495.701 807.394 L 496.578 806.211 L 497.416 805.001 L 498.214 803.763 L 498.971 802.500 L 499.686 801.213 L 500.359 799.903 L 500.989 798.572 L 501.575 797.221 L 502.116 795.851 L 502.612 794.465 L 503.062 793.063 L 503.467 791.647 L 503.824 790.218 L 504.135 788.779 L 504.399 787.330 L 504.615 785.874 L 504.783 784.411 L 504.904 782.943 L 504.976 781.472 L 505.000 780.000 L 505.000 260.000 L 504.976 258.528 L 504.904 257.057 L 504.783 255.589 L 504.615 254.126 L 504.399 252.670 L 504.135 251.221 L 503.824 249.782 L 503.467 248.353 L 503.062 246.937 L 502.612 245.535 L 502.116 244.149 L 501.575 242.779 L 500.989 241.428 L 500.359 240.097 L 499.686 238.787 L 498.971 237.500 L 498.214 236.237 L 497.416 234.999 L 496.578 233.789 L 495.701 232.606 L 494.785 231.452 L 493.833 230.329 L 492.844 229.238 L 491.820 228.180 L 451.820 188.180 L 450.767 187.161 L 449.682 186.177 L 448.565 185.228 L 447.417 184.317 L 446.241 183.443 L 445.037 182.608 L 443.806 181.813 L 442.550 181.058 L 441.271 180.344 L 439.968 179.673 L 438.645 179.044 L 437.301 178.459 L 435.940 177.918 L 434.561 177.421 L 433.167 176.970 L 431.759 176.564 L 430.339 176.204 L 428.908 175.890 L 427.467 175.624 L 426.018 175.404 L 424.563 175.232 L 423.103 175.107 L 421.640 175.030 L 420.175 175.000 L 418.709 175.019 L 417.246 175.084 L 415.785 175.198 L 414.328 175.359 L 412.878 175.567 L 411.435 175.823 L 410.001 176.125 L 408.578 176.474 L 407.167 176.869 L 405.770 177.309 L 306.649 210.349 L 264.962 182.558 L 263.740 181.772 L 262.494 181.025 L 261.224 180.319 L 259.932 179.655 L 258.619 179.033 L 257.287 178.453 L 255.937 177.917 L 254.571 177.424 L 253.189 176.976 L 251.793 176.573 L 250.385 176.215 L 248.967 175.902 L 247.538 175.636 L 246.103 175.416 L 244.660 175.242 L 243.213 175.115 L 241.763 175.035 L 240.310 175.001 L 238.858 175.014 L 237.406 175.075 L 235.958 175.182 L 234.513 175.336 L 233.074 175.536 L 231.643 175.783 L 230.220 176.076 L 228.807 176.414 L 227.406 176.798 L 226.018 177.227 L 224.645 177.701 L 223.287 178.219 L 123.287 218.219 L 123.034 218.325 L 122.779 218.425 L 122.355 218.609 L 121.929 218.788 L 121.680 218.902 L 121.428 219.011 L 121.011 219.209 L 120.591 219.401 L 120.345 219.523 L 120.097 219.641 L 119.686 219.852 L 119.273 220.058 L 119.031 220.188 L 118.787 220.314 L 118.383 220.538 L 117.977 220.757 L 117.740 220.896 L 117.500 221.029 L 117.104 221.266 L 116.705 221.499 L 116.472 221.645 L 116.237 221.786 L 115.849 222.036 L 115.457 222.282 L 115.230 222.435 L 114.999 222.584 L 114.619 222.847 L 114.236 223.105 L 114.014 223.266 L 113.789 223.422 L 113.417 223.697 L 113.043 223.968 L 112.826 224.136 L 112.606 224.299 L 112.244 224.586 L 111.879 224.869 L 111.667 225.044 L 111.452 225.215 L 111.100 225.513 L 110.744 225.808 L 110.539 225.990 L 110.329 226.167 L 109.987 226.477 L 109.641 226.783 L 109.442 226.972 L 109.238 227.156 L 108.906 227.477 L 108.571 227.795 L 108.377 227.989 L 108.180 228.180 L 107.859 228.512 L 107.534 228.840 L 107.347 229.041 L 107.156 229.238 L 106.846 229.581 L 106.531 229.919 L 106.351 230.126 L 106.167 230.329 L 105.868 230.682 L 105.565 231.030 L 105.392 231.243 L 105.215 231.452 L 104.927 231.814 L 104.636 232.172 L 104.470 232.391 L 104.299 232.606 L 104.024 232.977 L 103.744 233.344 L 103.585 233.568 L 103.422 233.789 L 103.159 234.168 L 102.891 234.545 L 102.740 234.774 L 102.584 234.999 L 102.334 235.388 L 102.078 235.773 L 101.935 236.006 L 101.786 236.237 L 101.548 236.633 L 101.306 237.027 L 101.170 237.265 L 101.029 237.500 L 100.804 237.904 L 100.575 238.305 L 100.447 238.547 L 100.314 238.787 L 100.102 239.198 L 99.886 239.606 L 99.766 239.853 L 99.641 240.097 L 99.443 240.515 L 99.241 240.930 L 99.128 241.180 L 99.011 241.428 L 98.827 241.852 L 98.638 242.274 L 98.535 242.528 L 98.425 242.779 L 98.256 243.209 L 98.081 243.636 L 97.985 243.894 L 97.884 244.149 L 97.729 244.584 L 97.568 245.017 L 97.481 245.277 L 97.388 245.535 L 97.247 245.975 L 97.100 246.413 L 97.022 246.676 L 96.938 246.937 L 96.811 247.381 L 96.679 247.824 L 96.609 248.089 L 96.533 248.353 L 96.421 248.801 L 96.303 249.248 L 96.242 249.515 L 96.176 249.782 L 96.078 250.233 L 95.975 250.683 L 95.923 250.953 L 95.865 251.221 L 95.782 251.675 L 95.694 252.129 L 95.650 252.400 L 95.601 252.670 L 95.533 253.127 L 95.460 253.583 L 95.425 253.855 L 95.385 254.126 L 95.332 254.585 L 95.274 255.044 L 95.248 255.317 L 95.217 255.589 L 95.179 256.050 L 95.136 256.510 L 95.119 256.783 L 95.096 257.057 L 95.074 257.518 L 95.045 257.979 L 95.038 258.254 L 95.024 258.528 L 95.017 258.990 L 95.003 259.451 L 95.004 259.726 L 95.000 260.000 L 95.000 780.000 L 95.024 781.472 L 95.096 782.943 L 95.217 784.411 L 95.385 785.874 L 95.601 787.330 L 95.865 788.779 L 96.176 790.218 L 96.533 791.647 L 96.938 793.063 L 97.388 794.465 L 97.884 795.851 L 98.425 797.221 L 99.011 798.572 L 99.641 799.903 L 100.314 801.213 L 101.029 802.500 L 101.786 803.763 L 102.584 805.001 L 103.422 806.211 L 104.299 807.394 L 105.215 808.548 L 106.167 809.671 L 107.156 810.762 L 108.180 811.820 L 109.238 812.844 L 110.329 813.833 L 111.452 814.785 L 112.606 815.701 L 113.789 816.578 L 114.999 817.416 L 116.237 818.214 L 117.500 818.971 L 118.787 819.686 L 120.097 820.359 L 121.428 820.989 L 122.779 821.575 L 124.149 822.116 L 125.535 822.612 L 126.937 823.062 L 128.353 823.467 L 129.782 823.824 L 131.221 824.135 L 132.670 824.399 L 134.126 824.615 L 135.589 824.783 L 137.057 824.904 L 138.528 824.976 L 140.000 825.000 L 141.472 824.976 L 142.943 824.904 L 144.411 824.783 L 145.874 824.615 L 147.330 824.399 L 148.779 824.135 L 150.218 823.824 L 151.647 823.467 L 153.063 823.062 L 154.465 822.612 L 155.851 822.116 L 157.221 821.575 L 158.572 820.989 L 159.903 820.359 L 161.213 819.686 L 162.500 818.971 L 163.763 818.214 L 165.001 817.416 L 166.211 816.578 L 167.394 815.701 L 168.548 814.785 L 169.671 813.833 L 170.762 812.844 L 171.820 811.820 L 172.844 810.762 L 173.833 809.671 L 174.785 808.548 L 175.701 807.394 L 176.578 806.211 L 177.416 805.001 L 178.214 803.763 L 178.971 802.500 L 179.686 801.213 L 180.359 799.903 L 180.989 798.572 L 181.575 797.221 L 182.116 795.851 L 182.612 794.465 L 183.062 793.063 L 183.467 791.647 L 183.824 790.218 L 184.135 788.779 L 184.399 787.330 L 184.615 785.874 L 184.783 784.411 L 184.904 782.943 L 184.976 781.472 L 185.000 780.000 L 185.000 290.466 L 234.734 270.573 L 255.000 284.083 L 255.000 780.000 L 255.024 781.472 L 255.096 782.943 L 255.217 784.411 L 255.385 785.874 L 255.601 787.330 L 255.865 788.779 L 256.176 790.218 L 256.533 791.647 L 256.938 793.063 L 257.388 794.465 L 257.884 795.851 L 258.425 797.221 L 259.011 798.572 L 259.641 799.903 L 260.314 801.213 L 261.029 802.500 L 261.786 803.763 L 262.584 805.001 L 263.422 806.211 L 264.299 807.394 L 265.215 808.548 L 266.167 809.671 L 267.156 810.762 L 268.180 811.820 L 269.238 812.844 L 270.329 813.833 L 271.452 814.785 L 272.606 815.701 L 273.789 816.578 L 274.999 817.416 L 276.237 818.214 L 277.500 818.971 L 278.787 819.686 L 280.097 820.359 L 281.428 820.989 L 282.779 821.575 L 284.149 822.116 L 285.535 822.612 L 286.937 823.062 L 288.353 823.467 L 289.782 823.824 L 291.221 824.135 L 292.670 824.399 L 294.126 824.615 L 295.589 824.783 L 297.057 824.904 L 298.528 824.976 L 300.000 825.000 L 301.472 824.976 L 302.943 824.904 L 304.411 824.783 L 305.874 824.615 L 307.330 824.399 L 308.779 824.135 L 310.218 823.824 L 311.647 823.467 L 313.063 823.062 L 314.465 822.612 L 315.851 822.116 L 317.221 821.575 L 318.572 820.989 L 319.903 820.359 L 321.213 819.686 L 322.500 818.971 L 323.763 818.214 L 325.001 817.416 L 326.211 816.578 L 327.394 815.701 L 328.548 814.785 L 329.671 813.833 L 330.762 812.844 L 331.820 811.820 L 332.844 810.762 L 333.833 809.671 L 334.785 808.548 L 335.701 807.394 L 336.578 806.211 L 337.416 805.001 L 338.214 803.763 L 338.971 802.500 L 339.686 801.213 L 340.359 799.903 L 340.989 798.572 L 341.575 797.221 L 342.116 795.851 L 342.612 794.465 L 343.062 793.063 L 343.467 791.647 L 343.824 790.218 L 344.135 788.779 L 344.399 787.330 L 344.615 785.874 L 344.783 784.411 L 344.904 782.943 L 344.976 781.472 L 345.000 780.000 L 345.000 292.434 L 407.846 271.486 L 415.000 278.640 Z" fill="black" fill-rule="evenodd"/>
</svg>
