<svg xmlns="http://www.w3.org/2000/svg" viewBox="0 0 600.000 1000">
  <path d="M 255.000 780.000 L 255.024 781.472 L 255.096 782.943 L 255.217 784.411 L 255.385 785.874 L 255.601 787.330 L 255.865 788.779 L 256.176 790.218 L 256.533 791.647 L 256.938 793.063 L 257.388 794.465 L 257.884 795.851 L 258.425 797.221 L 259.011 798.572 L 259.641 799.903 L 260.314 801.213 L 261.029 802.500 L 261.786 803.763 L 262.584 805.001 L 263.422 806.211 L 264.299 807.394 L 265.215 808.548 L 266.167 809.671 L 267.156 810.762 L 268.180 811.820 L 269.238 812.844 L 270.329 813.833 L 271.452 814.785 L 272.606 815.701 L 273.789 816.578 L 274.999 817.416 L 276.237 818.214 L 277.500 818.971 L 278.787 819.686 L 280.097 820.359 L 281.428 820.989 L 282.779 821.575 L 284.149 822.116 L 285.535 822.612 L 286.937 823.062 L 288.353 823.467 L 289.782 823.824 L 291.221 824.135 L 292.670 824.399 L 294.126 824.615 L 295.589 824.783 L 297.057 824.904 L 298.528 824.976 L 300.000 825.000 L 301.472 824.976 L 302.943 824.904 L 304.411 824.783 L 305.874 824.615 L 307.330 824.399 L 308.779 824.135 L 310.218 823.824 L 311.647 823.467 L 313.063 823.062 L 314.465 822.612 L 315.851 822.116 L 317.221 821.575 L 318.572 820.989 L 319.903 820.359 L 321.213 819.686 L 322.500 818.971 L 323.763 818.214 L 325.001 817.416 L 326.211 816.578 L 327.394 815.701 L 328.548 814.785 L 329.671 813.833 L 330.762 812.844 L 331.820 811.820 L 332.844 810.762 L 333.833 809.671 L 334.785 808.548 L 335.701 807.394 L 336.578 806.211 L 337.416 805.001 L 338.214 803.763 L 338.971 802.500 L 339.686 801.213 L 340.359 799.903 L 340.989 798.572 L 341.575 797.221 L 342.116 795.851 L 342.612 794.465 L 343.062 793.063 L 343.467 791.647 L 343.824 790.218 L 344.135 788.779 L 344.399 787.330 L 344.615 785.874 L 344.783 784.411 L 344.904 782.943 L 344.976 781.472 L 345.000 780.000 L 345.000 40.000 L 344.976 38.528 L 344.904 37.057 L 344.783 35.589 L 344.615 34.126 L 344.399 32.670 L 344.135 31.221 L 343.824 29.782 L 343.467 28.353 L 343.062 26.937 L 342.612 25.535 L 342.116 24.149 L 341.575 22.779 L 340.989 21.428 L 340.359 20.097 L 339.686 18.787 L 338.971 17.500 L 338.214 16.237 L 337.416 14.999 L 336.578 13.789 L 335.701 12.606 L 334.785 11.452 L 333.833 10.329 L 332.844 9.238 L 331.820 8.180 L 330.762 7.156 L 329.671 6.167 L 328.548 5.215 L 327.394 4.299 L 326.211 3.422 L 325.001 2.584 L 323.763 1.786 L 322.500 1.029 L 321.213 0.314 L 319.903 -0.359 L 318.572 -0.989 L 317.221 -1.575 L 315.851 -2.116 L 314.465 -2.612 L 313.063 -3.062 L 311.647 -3.467 L 310.218 -3.824 L 308.779 -4.135 L 307.330 -4.399 L 305.874 -4.615 L 304.411 -4.783 L 302.943 -4.904 L 301.472 -4.976 L 300.000 -5.000 L 298.528 -4.976 L 297.057 -4.904 L 295.589 -4.783 L 294.126 -4.615 L 292.670 -4.399 L 291.221 -4.135 L 289.782 -3.824 L 288.353 -3.467 L 286.937 -3.062 L 285.535 -2.612 L 284.149 -2.116 L 282.779 -1.575 L 281.428 -0.989 L 280.097 -0.359 L 278.787 0.314 L 277.500 1.029 L 276.237 1.786 L 274.999 2.584 L 273.789 3.422 L 272.606 4.299 L 271.452 5.215 L 270.329 6.167 L 269.238 7.156 L 268.180 8.180 L 267.156 9.238 L 266.167 10.329 L 265.215 11.452 L 264.299 12.606 L 263.422 13.789 L 262.584 14.999 L 261.786 16.237 L 261.029 17.500 L 260.314 18.787 L 259.641 20.097 L 259.011 21.428 L 258.425 22.779 L 257.884 24.149 L 257.388 25.535 L 256.938 26.937 L 256.533 28.353 L 256.176 29.782 L 255.865 31.221 L 255.601 32.670 L 255.385 34.126 L 255.217 35.589 L 255.096 37.057 L 255.024 38.528 L 255.000 40.000 L 255.000 780.000 Z" fill="black" fill-rule="evenodd"/>
</svg>
