<svg xmlns="http://www.w3.org/2000/svg" viewBox="0 0 600.000 1000">
  <path d="M 195.816 411.426 L 196.921 411.794 L 198.041 412.178 L 199.174 412.577 L 200.321 412.991 L 201.482 413.420 L 202.657 413.863 L 203.845 414.319 L 205.046 414.790 L 206.261 415.273 L 207.489 415.770 L 208.731 416.278 L 209.985 416.798 L 211.253 417.329 L 212.534 417.871 L 213.828 418.423 L 215.136 418.985 L 216.457 419.556 L 217.792 420.134 L 219.141 420.721 L 220.504 421.315 L 221.874 421.912 L 223.256 422.513 L 224.653 423.120 L 224.707 423.144 L 226.065 423.731 L 226.140 423.764 L 227.492 424.346 L 227.588 424.387 L 228.935 424.963 L 229.052 425.014 L 230.394 425.583 L 230.534 425.642 L 231.871 426.204 L 232.033 426.272 L 233.364 426.826 L 233.549 426.903 L 234.876 427.448 L 235.000 427.498 L 235.000 780.000 L 235.014 781.104 L 235.054 782.208 L 235.122 783.310 L 235.217 784.411 L 235.338 785.508 L 235.487 786.603 L 235.663 787.693 L 235.865 788.779 L 236.093 789.860 L 236.349 790.934 L 236.630 792.002 L 236.938 793.063 L 237.271 794.116 L 237.631 795.160 L 238.015 796.195 L 238.425 797.221 L 238.861 798.236 L 239.320 799.240 L 239.805 800.233 L 240.314 801.213 L 240.846 802.180 L 241.402 803.135 L 241.982 804.075 L 242.584 805.001 L 243.209 805.911 L 243.856 806.806 L 244.524 807.685 L 245.215 808.548 L 245.926 809.393 L 246.657 810.220 L 247.409 811.029 L 248.180 811.820 L 248.971 812.591 L 249.780 813.343 L 250.607 814.074 L 251.452 814.785 L 252.315 815.476 L 253.194 816.144 L 254.089 816.791 L 254.999 817.416 L 255.925 818.018 L 256.865 818.598 L 257.820 819.154 L 258.787 819.686 L 259.767 820.195 L 260.760 820.680 L 261.764 821.139 L 262.779 821.575 L 263.805 821.985 L 264.840 822.369 L 265.884 822.729 L 266.937 823.062 L 267.998 823.370 L 269.066 823.651 L 270.140 823.907 L 271.221 824.135 L 272.307 824.337 L 273.397 824.513 L 274.492 824.662 L 275.589 824.783 L 276.690 824.878 L 277.792 824.946 L 278.896 824.986 L 280.000 825.000 L 281.104 824.986 L 282.208 824.946 L 283.310 824.878 L 284.411 824.783 L 285.508 824.662 L 286.603 824.513 L 287.693 824.337 L 288.779 824.135 L 289.860 823.907 L 290.934 823.651 L 292.002 823.370 L 293.063 823.062 L 294.116 822.729 L 295.160 822.369 L 296.195 821.985 L 297.221 821.575 L 298.236 821.139 L 299.240 820.680 L 300.233 820.195 L 301.213 819.686 L 302.180 819.154 L 303.135 818.598 L 304.075 818.018 L 305.001 817.416 L 305.911 816.791 L 306.806 816.144 L 307.685 815.476 L 308.548 814.785 L 309.393 814.074 L 310.220 813.343 L 311.029 812.591 L 311.820 811.820 L 312.591 811.029 L 313.343 810.220 L 314.074 809.393 L 314.785 808.548 L 315.476 807.685 L 316.144 806.806 L 316.791 805.911 L 317.416 805.001 L 318.018 804.075 L 318.598 803.135 L 319.154 802.180 L 319.686 801.213 L 320.195 800.233 L 320.680 799.240 L 321.139 798.236 L 321.575 797.221 L 321.985 796.195 L 322.369 795.160 L 322.729 794.116 L 323.062 793.063 L 323.370 792.002 L 323.651 790.934 L 323.907 789.860 L 324.135 788.779 L 324.337 787.693 L 324.513 786.603 L 324.662 785.508 L 324.783 784.411 L 324.878 783.310 L 324.946 782.208 L 324.986 781.104 L 325.000 780.000 L 325.000 408.164 L 325.136 408.178 L 326.680 408.359 L 328.229 408.559 L 329.783 408.777 L 331.343 409.014 L 332.909 409.268 L 334.482 409.540 L 336.060 409.830 L 337.646 410.136 L 339.238 410.459 L 340.837 410.799 L 342.442 411.155 L 344.055 411.526 L 345.675 411.913 L 347.302 412.315 L 348.937 412.731 L 350.579 413.161 L 352.228 413.605 L 353.885 414.062 L 355.549 414.532 L 357.221 415.014 L 358.900 415.508 L 360.588 416.013 L 362.283 416.529 L 363.986 417.056 L 365.697 417.592 L 367.416 418.137 L 369.144 418.690 L 370.879 419.252 L 372.624 419.821 L 374.377 420.396 L 376.138 420.978 L 377.909 421.565 L 379.689 422.157 L 381.478 422.753 L 383.272 423.351 L 385.072 423.950 L 386.883 424.551 L 386.929 424.567 L 388.704 425.154 L 388.767 425.175 L 390.535 425.757 L 390.617 425.784 L 392.378 426.360 L 392.477 426.393 L 394.232 426.963 L 394.349 427.001 L 396.098 427.563 L 396.234 427.606 L 397.975 428.160 L 398.131 428.209 L 399.866 428.755 L 400.041 428.809 L 401.769 429.344 L 401.964 429.404 L 403.686 429.929 L 403.901 429.994 L 405.000 430.323 L 405.000 780.000 L 405.014 781.104 L 405.054 782.208 L 405.122 783.310 L 405.217 784.411 L 405.338 785.508 L 405.487 786.603 L 405.663 787.693 L 405.865 788.779 L 406.093 789.860 L 406.349 790.934 L 406.630 792.002 L 406.938 793.063 L 407.271 794.116 L 407.631 795.160 L 408.015 796.195 L 408.425 797.221 L 408.861 798.236 L 409.320 799.240 L 409.805 800.233 L 410.314 801.213 L 410.846 802.180 L 411.402 803.135 L 411.982 804.075 L 412.584 805.001 L 413.209 805.911 L 413.856 806.806 L 414.524 807.685 L 415.215 808.548 L 415.926 809.393 L 416.657 810.220 L 417.409 811.029 L 418.180 811.820 L 418.971 812.591 L 419.780 813.343 L 420.607 814.074 L 421.452 814.785 L 422.315 815.476 L 423.194 816.144 L 424.089 816.791 L 424.999 817.416 L 425.925 818.018 L 426.865 818.598 L 427.820 819.154 L 428.787 819.686 L 429.767 820.195 L 430.760 820.680 L 431.764 821.139 L 432.779 821.575 L 433.805 821.985 L 434.840 822.369 L 435.884 822.729 L 436.937 823.062 L 437.998 823.370 L 439.066 823.651 L 440.140 823.907 L 441.221 824.135 L 442.307 824.337 L 443.397 824.513 L 444.492 824.662 L 445.589 824.783 L 446.690 824.878 L 447.792 824.946 L 448.896 824.986 L 450.000 825.000 L 451.104 824.986 L 452.208 824.946 L 453.310 824.878 L 454.411 824.783 L 455.508 824.662 L 456.603 824.513 L 457.693 824.337 L 458.779 824.135 L 459.860 823.907 L 460.934 823.651 L 462.002 823.370 L 463.063 823.062 L 464.116 822.729 L 465.160 822.369 L 466.195 821.985 L 467.221 821.575 L 468.236 821.139 L 469.240 820.680 L 470.233 820.195 L 471.213 819.686 L 472.180 819.154 L 473.135 818.598 L 474.075 818.018 L 475.001 817.416 L 475.911 816.791 L 476.806 816.144 L 477.685 815.476 L 478.548 814.785 L 479.393 814.074 L 480.220 813.343 L 481.029 812.591 L 481.820 811.820 L 482.591 811.029 L 483.343 810.220 L 484.074 809.393 L 484.785 808.548 L 485.476 807.685 L 486.144 806.806 L 486.791 805.911 L 487.416 805.001 L 488.018 804.075 L 488.598 803.135 L 489.154 802.180 L 489.686 801.213 L 490.195 800.233 L 490.680 799.240 L 491.139 798.236 L 491.575 797.221 L 491.985 796.195 L 492.369 795.160 L 492.729 794.116 L 493.062 793.063 L 493.370 792.002 L 493.651 790.934 L 493.907 789.860 L 494.135 788.779 L 494.337 787.693 L 494.513 786.603 L 494.662 785.508 L 494.783 784.411 L 494.878 783.310 L 494.946 782.208 L 494.986 781.104 L 495.000 780.000 L 495.000 394.000 L 494.999 393.950 L 495.000 393.901 L 494.993 393.398 L 494.986 392.896 L 494.985 392.846 L 494.984 392.796 L 494.964 392.294 L 494.946 391.792 L 494.943 391.742 L 494.941 391.693 L 494.909 391.191 L 494.878 390.690 L 494.874 390.640 L 494.871 390.591 L 494.826 390.090 L 494.783 389.589 L 494.778 389.540 L 494.773 389.490 L 494.717 388.991 L 494.662 388.492 L 494.655 388.442 L 494.649 388.393 L 494.581 387.895 L 494.513 387.397 L 494.505 387.348 L 494.498 387.299 L 494.417 386.803 L 494.337 386.307 L 494.328 386.258 L 494.320 386.209 L 494.227 385.715 L 494.135 385.221 L 494.125 385.172 L 494.116 385.124 L 494.011 384.632 L 493.907 384.140 L 493.895 384.092 L 493.885 384.044 L 493.768 383.555 L 493.651 383.066 L 493.639 383.018 L 493.627 382.970 L 493.498 382.484 L 493.370 381.998 L 493.356 381.950 L 493.343 381.902 L 493.202 381.420 L 493.062 380.937 L 493.047 380.890 L 493.033 380.842 L 492.881 380.363 L 492.729 379.884 L 492.713 379.837 L 492.698 379.790 L 492.533 379.315 L 492.369 378.840 L 492.352 378.793 L 492.336 378.746 L 492.160 378.276 L 491.985 377.805 L 491.966 377.759 L 491.949 377.712 L 491.761 377.246 L 491.575 376.779 L 491.555 376.734 L 491.536 376.688 L 491.337 376.226 L 491.139 375.764 L 491.119 375.719 L 491.099 375.673 L 490.889 375.217 L 490.680 374.760 L 490.658 374.715 L 490.637 374.670 L 490.416 374.219 L 490.195 373.767 L 490.172 373.723 L 490.150 373.679 L 489.918 373.233 L 489.686 372.787 L 489.663 372.744 L 489.640 372.700 L 489.396 372.260 L 489.154 371.820 L 489.129 371.777 L 489.105 371.733 L 488.851 371.300 L 488.598 370.865 L 488.572 370.823 L 488.547 370.780 L 488.282 370.353 L 488.018 369.925 L 487.991 369.883 L 487.965 369.841 L 487.690 369.421 L 487.416 368.999 L 487.388 368.958 L 487.361 368.917 L 487.076 368.503 L 486.791 368.089 L 486.762 368.048 L 486.734 368.007 L 486.439 367.601 L 486.144 367.194 L 486.114 367.154 L 486.085 367.114 L 485.780 366.715 L 485.476 366.315 L 485.445 366.276 L 485.414 366.236 L 485.099 365.845 L 484.785 365.452 L 484.753 365.414 L 484.722 365.376 L 484.398 364.992 L 484.074 364.607 L 484.041 364.570 L 484.009 364.532 L 483.676 364.156 L 483.343 363.780 L 483.309 363.743 L 483.276 363.706 L 482.933 363.339 L 482.591 362.971 L 482.556 362.935 L 482.523 362.899 L 482.171 362.540 L 481.820 362.180 L 481.784 362.146 L 481.749 362.110 L 481.389 361.760 L 481.029 361.409 L 480.993 361.375 L 480.957 361.340 L 480.588 360.999 L 480.220 360.657 L 480.183 360.624 L 480.146 360.591 L 479.769 360.258 L 479.393 359.926 L 479.355 359.894 L 479.317 359.861 L 478.932 359.538 L 478.548 359.215 L 478.509 359.183 L 478.471 359.152 L 478.078 358.838 L 477.685 358.524 L 477.646 358.494 L 477.607 358.463 L 477.206 358.160 L 476.806 357.856 L 476.766 357.827 L 476.727 357.797 L 476.319 357.503 L 475.911 357.209 L 475.870 357.181 L 475.830 357.152 L 475.415 356.868 L 475.001 356.584 L 474.959 356.557 L 474.918 356.529 L 474.496 356.256 L 474.075 355.982 L 474.033 355.956 L 473.991 355.929 L 473.562 355.666 L 473.135 355.402 L 473.092 355.377 L 473.049 355.351 L 472.615 355.099 L 472.180 354.846 L 472.137 354.822 L 472.094 354.797 L 471.653 354.556 L 471.213 354.314 L 471.169 354.291 L 471.125 354.267 L 470.679 354.036 L 470.233 353.805 L 470.188 353.783 L 470.144 353.760 L 469.692 353.541 L 469.240 353.320 L 469.195 353.300 L 469.150 353.278 L 468.693 353.070 L 468.236 352.861 L 468.190 352.841 L 468.145 352.820 L 467.683 352.623 L 467.221 352.425 L 467.175 352.407 L 467.129 352.388 L 466.662 352.202 L 466.195 352.015 L 466.149 351.998 L 466.103 351.980 L 465.631 351.806 L 465.160 351.631 L 465.113 351.614 L 465.066 351.597 L 464.591 351.435 L 464.116 351.271 L 464.068 351.256 L 464.021 351.240 L 463.542 351.089 L 463.063 350.938 L 463.015 350.924 L 462.968 350.909 L 462.485 350.770 L 462.002 350.630 L 461.954 350.617 L 461.906 350.604 L 461.420 350.477 L 460.934 350.349 L 460.886 350.337 L 460.838 350.325 L 460.349 350.210 L 459.860 350.093 L 459.811 350.083 L 459.763 350.072 L 459.271 349.969 L 458.779 349.865 L 458.730 349.856 L 458.682 349.845 L 458.187 349.754 L 457.693 349.663 L 457.644 349.655 L 457.595 349.646 L 457.099 349.567 L 456.603 349.487 L 456.554 349.480 L 456.505 349.473 L 456.006 349.406 L 455.508 349.338 L 455.459 349.333 L 455.410 349.326 L 454.910 349.272 L 454.411 349.217 L 454.361 349.212 L 454.312 349.207 L 453.052 349.086 L 452.118 348.981 L 451.151 348.858 L 450.149 348.717 L 449.114 348.556 L 448.046 348.375 L 446.944 348.175 L 445.809 347.955 L 444.643 347.715 L 443.444 347.455 L 442.214 347.176 L 440.953 346.876 L 439.662 346.557 L 438.341 346.219 L 436.990 345.862 L 435.611 345.486 L 434.203 345.092 L 432.767 344.680 L 431.303 344.250 L 429.812 343.804 L 428.295 343.342 L 426.751 342.864 L 425.181 342.371 L 423.585 341.863 L 421.964 341.342 L 420.318 340.807 L 418.647 340.260 L 416.951 339.702 L 415.231 339.133 L 413.487 338.553 L 411.719 337.965 L 409.930 337.368 L 408.122 336.766 L 406.291 336.158 L 404.437 335.543 L 404.383 335.525 L 402.559 334.923 L 402.489 334.899 L 400.658 334.298 L 400.572 334.270 L 398.734 333.671 L 398.632 333.637 L 396.786 333.040 L 396.668 333.002 L 394.815 332.409 L 394.681 332.366 L 392.821 331.776 L 392.672 331.729 L 390.804 331.144 L 390.639 331.093 L 388.763 330.513 L 388.583 330.458 L 386.699 329.884 L 386.503 329.825 L 384.612 329.259 L 384.401 329.196 L 382.502 328.638 L 382.275 328.572 L 380.369 328.022 L 380.126 327.953 L 378.212 327.412 L 377.954 327.340 L 376.031 326.810 L 375.758 326.735 L 373.828 326.216 L 373.539 326.139 L 371.600 325.631 L 371.296 325.552 L 369.349 325.057 L 369.030 324.976 L 367.075 324.494 L 366.740 324.413 L 364.777 323.944 L 364.426 323.862 L 362.455 323.408 L 362.089 323.325 L 360.110 322.887 L 359.728 322.804 L 357.740 322.382 L 357.344 322.299 L 355.347 321.894 L 354.935 321.812 L 352.930 321.425 L 352.503 321.344 L 350.490 320.975 L 350.048 320.896 L 348.026 320.547 L 347.568 320.470 L 345.538 320.140 L 345.066 320.066 L 343.026 319.757 L 342.540 319.686 L 340.491 319.398 L 339.990 319.331 L 337.933 319.065 L 337.418 319.002 L 335.352 318.760 L 334.822 318.701 L 332.747 318.482 L 332.204 318.429 L 330.120 318.235 L 329.563 318.186 L 327.470 318.018 L 326.900 317.976 L 324.798 317.833 L 324.215 317.798 L 322.104 317.682 L 321.509 317.654 L 319.388 317.566 L 318.781 317.545 L 316.651 317.485 L 316.033 317.472 L 313.893 317.442 L 313.264 317.437 L 311.115 317.437 L 310.475 317.441 L 308.317 317.472 L 307.668 317.485 L 305.500 317.547 L 304.841 317.571 L 302.664 317.665 L 301.996 317.698 L 299.809 317.825 L 299.134 317.870 L 296.937 318.030 L 296.255 318.085 L 294.048 318.281 L 293.360 318.347 L 291.143 318.577 L 290.449 318.655 L 288.223 318.921 L 287.524 319.010 L 285.287 319.314 L 284.584 319.415 L 282.338 319.755 L 281.632 319.868 L 279.375 320.247 L 278.667 320.372 L 276.400 320.790 L 275.690 320.927 L 273.413 321.385 L 272.702 321.534 L 270.415 322.033 L 269.339 322.281 L 268.270 322.556 L 267.207 322.857 L 266.152 323.184 L 265.105 323.536 L 264.068 323.915 L 263.040 324.318 L 262.022 324.747 L 261.015 325.201 L 260.019 325.679 L 259.036 326.182 L 258.065 326.708 L 257.107 327.258 L 256.163 327.832 L 255.234 328.428 L 254.319 329.047 L 253.420 329.689 L 252.537 330.352 L 251.671 331.037 L 250.821 331.742 L 249.989 332.469 L 249.175 333.215 L 248.380 333.982 L 247.604 334.767 L 247.457 334.923 L 246.247 334.412 L 246.108 334.353 L 244.691 333.759 L 244.532 333.693 L 243.109 333.103 L 242.931 333.030 L 241.503 332.444 L 241.306 332.364 L 239.872 331.785 L 239.656 331.698 L 238.216 331.125 L 237.980 331.032 L 236.534 330.466 L 236.280 330.367 L 234.828 329.809 L 234.554 329.704 L 233.096 329.155 L 232.803 329.045 L 231.339 328.505 L 231.026 328.390 L 229.556 327.860 L 229.224 327.741 L 227.747 327.222 L 227.395 327.099 L 225.912 326.591 L 225.540 326.465 L 224.051 325.970 L 223.658 325.841 L 222.163 325.358 L 221.750 325.227 L 220.249 324.758 L 219.814 324.625 L 218.307 324.171 L 217.852 324.037 L 216.338 323.599 L 215.863 323.464 L 214.342 323.041 L 213.846 322.906 L 212.319 322.501 L 211.801 322.367 L 210.268 321.979 L 209.729 321.847 L 208.190 321.477 L 207.630 321.347 L 206.084 320.997 L 205.503 320.870 L 203.950 320.540 L 203.348 320.416 L 201.789 320.107 L 201.166 319.988 L 199.600 319.701 L 198.957 319.588 L 197.383 319.322 L 196.720 319.216 L 195.140 318.973 L 194.457 318.874 L 192.870 318.655 L 192.167 318.564 L 190.573 318.371 L 189.851 318.289 L 188.250 318.120 L 187.509 318.048 L 185.902 317.906 L 185.143 317.845 L 183.528 317.730 L 182.752 317.681 L 181.130 317.593 L 180.338 317.557 L 178.709 317.498 L 177.901 317.475 L 176.265 317.445 L 175.442 317.437 L 173.798 317.437 L 172.962 317.445 L 171.311 317.475 L 170.463 317.498 L 168.805 317.560 L 167.945 317.600 L 166.280 317.694 L 165.409 317.752 L 163.737 317.879 L 162.858 317.954 L 161.178 318.115 L 160.292 318.208 L 158.605 318.403 L 157.713 318.516 L 156.018 318.746 L 155.122 318.877 L 153.420 319.143 L 152.521 319.293 L 150.811 319.597 L 149.911 319.766 L 148.193 320.106 L 147.294 320.294 L 145.568 320.673 L 144.670 320.880 L 142.937 321.298 L 142.043 321.524 L 140.302 321.982 L 139.412 322.225 L 137.663 322.724 L 137.301 322.832 L 136.937 322.938 L 136.772 322.990 L 136.605 323.040 L 136.245 323.157 L 135.884 323.271 L 135.720 323.328 L 135.555 323.381 L 135.198 323.507 L 134.840 323.631 L 134.677 323.691 L 134.513 323.749 L 134.160 323.883 L 133.805 324.015 L 133.643 324.080 L 133.481 324.142 L 133.131 324.285 L 132.779 324.425 L 132.620 324.494 L 132.459 324.560 L 132.112 324.711 L 131.764 324.861 L 131.606 324.933 L 131.447 325.003 L 131.104 325.163 L 130.760 325.320 L 130.604 325.397 L 130.446 325.470 L 130.108 325.639 L 129.767 325.805 L 129.613 325.885 L 129.458 325.962 L 129.123 326.139 L 128.787 326.314 L 128.635 326.397 L 128.481 326.479 L 128.151 326.664 L 127.820 326.846 L 127.669 326.934 L 127.518 327.019 L 127.192 327.212 L 126.865 327.402 L 126.717 327.493 L 126.568 327.582 L 126.247 327.783 L 125.925 327.982 L 125.779 328.076 L 125.632 328.169 L 125.317 328.377 L 124.999 328.584 L 124.856 328.682 L 124.711 328.778 L 124.401 328.995 L 124.089 329.209 L 123.948 329.310 L 123.805 329.410 L 123.500 329.634 L 123.194 329.856 L 123.055 329.961 L 122.915 330.064 L 122.616 330.295 L 122.315 330.524 L 122.179 330.633 L 122.041 330.739 L 121.748 330.978 L 121.452 331.215 L 121.319 331.326 L 121.185 331.436 L 120.897 331.682 L 120.607 331.926 L 120.477 332.041 L 120.345 332.154 L 120.063 332.406 L 119.780 332.657 L 119.653 332.775 L 119.523 332.892 L 119.248 333.151 L 118.971 333.409 L 118.846 333.530 L 118.720 333.649 L 118.451 333.916 L 118.180 334.180 L 118.059 334.305 L 117.935 334.427 L 117.673 334.700 L 117.409 334.971 L 117.291 335.098 L 117.170 335.223 L 116.915 335.503 L 116.657 335.780 L 116.542 335.910 L 116.425 336.038 L 116.176 336.324 L 115.926 336.607 L 115.814 336.740 L 115.700 336.871 L 115.458 337.163 L 115.215 337.452 L 115.106 337.588 L 114.995 337.722 L 114.761 338.019 L 114.524 338.315 L 114.419 338.453 L 114.312 338.589 L 114.085 338.892 L 113.856 339.194 L 113.754 339.334 L 113.650 339.473 L 113.430 339.782 L 113.209 340.089 L 113.110 340.232 L 113.010 340.373 L 112.798 340.687 L 112.584 340.999 L 112.489 341.145 L 112.392 341.289 L 112.188 341.608 L 111.982 341.925 L 111.890 342.073 L 111.797 342.219 L 111.601 342.543 L 111.402 342.865 L 111.315 343.015 L 111.225 343.164 L 111.037 343.493 L 110.846 343.820 L 110.762 343.972 L 110.676 344.123 L 110.496 344.456 L 110.314 344.787 L 110.234 344.941 L 110.151 345.094 L 109.979 345.432 L 109.805 345.767 L 109.729 345.924 L 109.650 346.078 L 109.486 346.420 L 109.320 346.760 L 109.248 346.918 L 109.173 347.075 L 109.018 347.420 L 108.861 347.764 L 108.792 347.924 L 108.721 348.082 L 108.575 348.431 L 108.425 348.779 L 108.361 348.941 L 108.294 349.101 L 108.156 349.453 L 108.015 349.805 L 107.955 349.968 L 107.892 350.129 L 107.762 350.485 L 107.631 350.840 L 107.574 351.004 L 107.515 351.168 L 107.394 351.526 L 107.271 351.884 L 107.219 352.050 L 107.164 352.215 L 107.052 352.576 L 106.938 352.937 L 106.889 353.104 L 106.838 353.270 L 106.735 353.634 L 106.630 353.998 L 106.586 354.166 L 106.539 354.333 L 106.445 354.700 L 106.349 355.066 L 106.308 355.235 L 106.265 355.403 L 106.181 355.772 L 106.093 356.140 L 106.057 356.310 L 106.019 356.480 L 105.943 356.851 L 105.865 357.221 L 105.833 357.392 L 105.798 357.562 L 105.732 357.935 L 105.663 358.307 L 105.635 358.478 L 105.604 358.649 L 105.547 359.023 L 105.487 359.397 L 105.464 359.569 L 105.437 359.741 L 105.389 360.116 L 105.338 360.492 L 105.319 360.664 L 105.297 360.837 L 105.258 361.213 L 105.217 361.589 L 105.202 361.762 L 105.184 361.935 L 105.154 362.312 L 105.122 362.690 L 105.111 362.863 L 105.098 363.036 L 105.077 363.414 L 105.054 363.792 L 105.048 363.966 L 105.038 364.139 L 105.027 364.517 L 105.014 364.896 L 105.011 365.069 L 105.006 365.243 L 105.005 365.622 L 105.000 366.000 L 105.000 780.000 L 105.014 781.104 L 105.054 782.208 L 105.122 783.310 L 105.217 784.411 L 105.338 785.508 L 105.487 786.603 L 105.663 787.693 L 105.865 788.779 L 106.093 789.860 L 106.349 790.934 L 106.630 792.002 L 106.938 793.063 L 107.271 794.116 L 107.631 795.160 L 108.015 796.195 L 108.425 797.221 L 108.861 798.236 L 109.320 799.240 L 109.805 800.233 L 110.314 801.213 L 110.846 802.180 L 111.402 803.135 L 111.982 804.075 L 112.584 805.001 L 113.209 805.911 L 113.856 806.806 L 114.524 807.685 L 115.215 808.548 L 115.926 809.393 L 116.657 810.220 L 117.409 811.029 L 118.180 811.820 L 118.971 812.591 L 119.780 813.343 L 120.607 814.074 L 121.452 814.785 L 122.315 815.476 L 123.194 816.144 L 124.089 816.791 L 124.999 817.416 L 125.925 818.018 L 126.865 818.598 L 127.820 819.154 L 128.787 819.686 L 129.767 820.195 L 130.760 820.680 L 131.764 821.139 L 132.779 821.575 L 133.805 821.985 L 134.840 822.369 L 135.884 822.729 L 136.937 823.062 L 137.998 823.370 L 139.066 823.651 L 140.140 823.907 L 141.221 824.135 L 142.307 824.337 L 143.397 824.513 L 144.492 824.662 L 145.589 824.783 L 146.690 824.878 L 147.792 824.946 L 148.896 824.986 L 150.000 825.000 L 151.104 824.986 L 152.208 824.946 L 153.310 824.878 L 154.411 824.783 L 155.508 824.662 L 156.603 824.513 L 157.693 824.337 L 158.779 824.135 L 159.860 823.907 L 160.934 823.651 L 162.002 823.370 L 163.063 823.062 L 164.116 822.729 L 165.160 822.369 L 166.195 821.985 L 167.221 821.575 L 168.236 821.139 L 169.240 820.680 L 170.233 820.195 L 171.213 819.686 L 172.180 819.154 L 173.135 818.598 L 174.075 818.018 L 175.001 817.416 L 175.911 816.791 L 176.806 816.144 L 177.685 815.476 L 178.548 814.785 L 179.393 814.074 L 180.220 813.343 L 181.029 812.591 L 181.820 811.820 L 182.591 811.029 L 183.343 810.220 L 184.074 809.393 L 184.785 808.548 L 185.476 807.685 L 186.144 806.806 L 186.791 805.911 L 187.416 805.001 L 188.018 804.075 L 188.598 803.135 L 189.154 802.180 L 189.686 801.213 L 190.195 800.233 L 190.680 799.240 L 191.139 798.236 L 191.575 797.221 L 191.985 796.195 L 192.369 795.160 L 192.729 794.116 L 193.062 793.063 L 193.370 792.002 L 193.651 790.934 L 193.907 789.860 L 194.135 788.779 L 194.337 787.693 L 194.513 786.603 L 194.662 785.508 L 194.783 784.411 L 194.878 783.310 L 194.946 782.208 L 194.986 781.104 L 195.000 780.000 L 195.000 411.163 L 195.816 411.426 Z" fill="black" fill-rule="evenodd"/>
</svg>
