<svg xmlns="http://www.w3.org/2000/svg" viewBox="0 0 600.000 1000">
  <path d="M 415.014 781.104 L 415.054 782.208 L 415.122 783.310 L 415.217 784.411 L 415.338 785.508 L 415.487 786.603 L 415.663 787.693 L 415.865 788.779 L 416.093 789.860 L 416.349 790.934 L 416.630 792.002 L 416.938 793.063 L 417.271 794.116 L 417.631 795.160 L 418.015 796.195 L 418.425 797.221 L 418.861 798.236 L 419.320 799.240 L 419.805 800.233 L 420.314 801.213 L 420.846 802.180 L 421.402 803.135 L 421.982 804.075 L 422.584 805.001 L 423.209 805.911 L 423.856 806.806 L 424.524 807.685 L 425.215 808.548 L 425.926 809.393 L 426.657 810.220 L 427.409 811.029 L 428.180 811.820 L 428.971 812.591 L 429.780 813.343 L 430.607 814.074 L 431.452 814.785 L 432.315 815.476 L 433.194 816.144 L 434.089 816.791 L 434.999 817.416 L 435.925 818.018 L 436.865 818.598 L 437.820 819.154 L 438.787 819.686 L 439.767 820.195 L 440.760 820.680 L 441.764 821.139 L 442.779 821.575 L 443.805 821.985 L 444.840 822.369 L 445.884 822.729 L 446.937 823.062 L 447.998 823.370 L 449.066 823.651 L 450.140 823.907 L 451.221 824.135 L 452.307 824.337 L 453.397 824.513 L 454.492 824.662 L 455.589 824.783 L 456.690 824.878 L 457.792 824.946 L 458.896 824.986 L 460.000 825.000 L 461.104 824.986 L 462.208 824.946 L 463.310 824.878 L 464.411 824.783 L 465.508 824.662 L 466.603 824.513 L 467.693 824.337 L 468.779 824.135 L 469.860 823.907 L 470.934 823.651 L 472.002 823.370 L 473.063 823.062 L 474.116 822.729 L 475.160 822.369 L 476.195 821.985 L 477.221 821.575 L 478.236 821.139 L 479.240 820.680 L 480.233 820.195 L 481.213 819.686 L 482.180 819.154 L 483.135 818.598 L 484.075 818.018 L 485.001 817.416 L 485.911 816.791 L 486.806 816.144 L 487.685 815.476 L 488.548 814.785 L 489.393 814.074 L 490.220 813.343 L 491.029 812.591 L 491.820 811.820 L 492.591 811.029 L 493.343 810.220 L 494.074 809.393 L 494.785 808.548 L 495.476 807.685 L 496.144 806.806 L 496.791 805.911 L 497.416 805.001 L 498.018 804.075 L 498.598 803.135 L 499.154 802.180 L 499.686 801.213 L 500.195 800.233 L 500.680 799.240 L 501.139 798.236 L 501.575 797.221 L 501.985 796.195 L 502.369 795.160 L 502.729 794.116 L 503.062 793.063 L 503.370 792.002 L 503.651 790.934 L 503.907 789.860 L 504.135 788.779 L 504.337 787.693 L 504.513 786.603 L 504.662 785.508 L 504.783 784.411 L 504.878 783.310 L 504.946 782.208 L 504.986 781.104 L 505.000 780.000 L 505.000 608.471 L 505.659 605.623 L 505.841 604.803 L 507.140 598.674 L 507.305 597.856 L 508.494 591.686 L 508.643 590.869 L 509.721 584.661 L 509.854 583.846 L 510.820 577.603 L 510.938 576.790 L 511.792 570.517 L 511.895 569.705 L 512.636 563.405 L 512.724 562.594 L 513.351 556.271 L 513.424 555.462 L 513.938 549.119 L 513.996 548.311 L 514.396 541.953 L 514.440 541.145 L 514.726 534.776 L 514.755 533.968 L 514.926 527.591 L 514.941 526.784 L 514.998 520.404 L 514.998 519.596 L 514.941 513.216 L 514.926 512.409 L 514.755 506.032 L 514.726 505.224 L 514.440 498.855 L 514.396 498.047 L 513.996 491.689 L 513.938 490.881 L 513.424 484.538 L 513.351 483.729 L 512.724 477.406 L 512.636 476.595 L 511.895 470.295 L 511.792 469.483 L 510.938 463.210 L 510.820 462.397 L 509.854 456.154 L 509.721 455.339 L 508.643 449.131 L 508.494 448.314 L 507.305 442.144 L 507.140 441.326 L 505.841 435.197 L 505.659 434.377 L 505.000 431.529 L 505.000 190.000 L 504.986 188.896 L 504.946 187.792 L 504.878 186.690 L 504.783 185.589 L 504.662 184.492 L 504.513 183.397 L 504.337 182.307 L 504.135 181.221 L 503.907 180.140 L 503.651 179.066 L 503.370 177.998 L 503.062 176.937 L 502.729 175.884 L 502.369 174.840 L 501.985 173.805 L 501.575 172.779 L 501.139 171.764 L 500.680 170.760 L 500.195 169.767 L 499.686 168.787 L 499.154 167.820 L 498.598 166.865 L 498.018 165.925 L 497.416 164.999 L 496.791 164.089 L 496.144 163.194 L 495.476 162.315 L 494.785 161.452 L 494.074 160.607 L 493.343 159.780 L 492.591 158.971 L 491.820 158.180 L 491.029 157.409 L 490.220 156.657 L 489.393 155.926 L 488.548 155.215 L 487.685 154.524 L 486.806 153.856 L 485.911 153.209 L 485.001 152.584 L 484.075 151.982 L 483.135 151.402 L 482.180 150.846 L 481.213 150.314 L 480.233 149.805 L 479.240 149.320 L 478.236 148.861 L 477.221 148.425 L 476.195 148.015 L 475.160 147.631 L 474.116 147.271 L 473.063 146.938 L 472.002 146.630 L 470.934 146.349 L 469.860 146.093 L 468.779 145.865 L 467.693 145.663 L 466.603 145.487 L 465.508 145.338 L 464.411 145.217 L 463.310 145.122 L 462.208 145.054 L 461.104 145.014 L 460.000 145.000 L 458.896 145.014 L 457.792 145.054 L 456.690 145.122 L 455.589 145.217 L 454.492 145.338 L 453.397 145.487 L 452.307 145.663 L 451.221 145.865 L 450.140 146.093 L 449.066 146.349 L 447.998 146.630 L 446.937 146.938 L 445.884 147.271 L 444.840 147.631 L 443.805 148.015 L 442.779 148.425 L 441.764 148.861 L 440.760 149.320 L 439.767 149.805 L 438.787 150.314 L 437.820 150.846 L 436.865 151.402 L 435.925 151.982 L 434.999 152.584 L 434.089 153.209 L 433.194 153.856 L 432.315 154.524 L 431.452 155.215 L 430.607 155.926 L 429.780 156.657 L 428.971 157.409 L 428.180 158.180 L 427.409 158.971 L 426.657 159.780 L 425.926 160.607 L 425.215 161.452 L 424.524 162.315 L 423.856 163.194 L 423.209 164.089 L 422.584 164.999 L 421.982 165.925 L 421.402 166.865 L 420.846 167.820 L 420.314 168.787 L 419.805 169.767 L 419.320 170.760 L 418.861 171.764 L 418.425 172.779 L 418.015 173.805 L 417.631 174.840 L 417.271 175.884 L 416.938 176.937 L 416.630 177.998 L 416.349 179.066 L 416.093 180.140 L 415.865 181.221 L 415.663 182.307 L 415.487 183.397 L 415.338 184.492 L 415.217 185.589 L 415.122 186.690 L 415.054 187.792 L 415.014 188.896 L 415.000 190.000 L 415.000 269.780 L 411.572 266.727 L 410.658 265.936 L 406.688 262.588 L 405.738 261.809 L 401.709 258.596 L 400.724 257.832 L 396.638 254.755 L 395.617 254.008 L 391.477 251.069 L 390.419 250.340 L 386.229 247.542 L 385.134 246.833 L 380.895 244.176 L 379.764 243.491 L 375.478 240.976 L 374.313 240.316 L 369.983 237.946 L 368.782 237.312 L 364.411 235.089 L 363.176 234.485 L 358.766 232.409 L 357.498 231.835 L 353.053 229.908 L 351.752 229.369 L 347.274 227.591 L 345.943 227.087 L 341.434 225.461 L 340.074 224.995 L 335.537 223.521 L 334.151 223.095 L 329.589 221.773 L 328.177 221.389 L 323.593 220.221 L 322.159 219.880 L 317.555 218.867 L 316.101 218.572 L 311.481 217.713 L 310.010 217.465 L 305.375 216.761 L 303.890 216.561 L 299.244 216.014 L 297.747 215.863 L 293.093 215.471 L 291.588 215.370 L 286.928 215.135 L 285.418 215.085 L 280.756 215.006 L 279.244 215.006 L 274.582 215.085 L 273.072 215.135 L 268.412 215.370 L 266.907 215.471 L 262.253 215.863 L 260.756 216.014 L 256.110 216.561 L 254.625 216.761 L 249.990 217.465 L 248.519 217.713 L 243.899 218.572 L 242.445 218.867 L 237.841 219.880 L 236.407 220.221 L 231.823 221.389 L 230.411 221.773 L 225.849 223.095 L 224.463 223.521 L 219.926 224.995 L 218.566 225.461 L 214.057 227.087 L 212.726 227.591 L 208.248 229.369 L 206.947 229.908 L 202.502 231.835 L 201.234 232.409 L 196.824 234.485 L 195.589 235.089 L 191.218 237.312 L 190.017 237.946 L 185.687 240.316 L 184.522 240.976 L 180.236 243.491 L 179.105 244.176 L 174.866 246.833 L 173.771 247.542 L 169.581 250.340 L 168.523 251.069 L 164.383 254.008 L 163.362 254.755 L 159.276 257.832 L 158.291 258.596 L 154.262 261.809 L 153.312 262.588 L 149.342 265.936 L 148.428 266.727 L 144.520 270.207 L 143.641 271.011 L 139.796 274.621 L 138.952 275.434 L 135.172 279.172 L 134.362 279.994 L 130.651 283.858 L 129.875 284.687 L 126.234 288.675 L 125.490 289.510 L 121.922 293.618 L 121.210 294.459 L 117.717 298.686 L 117.036 299.530 L 113.619 303.873 L 112.969 304.720 L 109.631 309.177 L 109.010 310.027 L 105.754 314.594 L 105.161 315.445 L 101.988 320.120 L 101.423 320.972 L 98.334 325.752 L 97.797 326.604 L 94.795 331.487 L 94.284 332.339 L 91.370 337.321 L 90.885 338.172 L 88.061 343.251 L 87.600 344.101 L 84.868 349.273 L 84.432 350.121 L 81.794 355.383 L 81.380 356.230 L 78.837 361.579 L 78.446 362.424 L 76.000 367.857 L 75.630 368.700 L 73.282 374.213 L 72.934 375.054 L 70.685 380.645 L 70.358 381.483 L 68.210 387.148 L 67.903 387.984 L 65.857 393.718 L 65.569 394.552 L 63.627 400.354 L 63.358 401.185 L 61.521 407.050 L 61.270 407.879 L 59.538 413.804 L 59.305 414.631 L 57.680 420.613 L 57.465 421.437 L 55.948 427.471 L 55.749 428.293 L 54.341 434.377 L 54.159 435.197 L 52.860 441.326 L 52.695 442.144 L 51.506 448.314 L 51.357 449.131 L 50.279 455.339 L 50.146 456.154 L 49.180 462.397 L 49.062 463.210 L 48.208 469.483 L 48.105 470.295 L 47.364 476.595 L 47.276 477.406 L 46.649 483.729 L 46.576 484.538 L 46.062 490.881 L 46.004 491.689 L 45.604 498.047 L 45.560 498.855 L 45.274 505.224 L 45.245 506.032 L 45.074 512.409 L 45.059 513.216 L 45.002 519.596 L 45.002 520.404 L 45.059 526.784 L 45.074 527.591 L 45.245 533.968 L 45.274 534.776 L 45.560 541.145 L 45.604 541.953 L 46.004 548.311 L 46.062 549.119 L 46.576 555.462 L 46.649 556.271 L 47.276 562.594 L 47.364 563.405 L 48.105 569.705 L 48.208 570.517 L 49.062 576.790 L 49.180 577.603 L 50.146 583.846 L 50.279 584.661 L 51.357 590.869 L 51.506 591.686 L 52.695 597.856 L 52.860 598.674 L 54.159 604.803 L 54.341 605.623 L 55.749 611.707 L 55.948 612.529 L 57.465 618.563 L 57.680 619.387 L 59.305 625.369 L 59.538 626.196 L 61.270 632.121 L 61.521 632.950 L 63.358 638.815 L 63.627 639.646 L 65.569 645.448 L 65.857 646.282 L 67.903 652.016 L 68.210 652.852 L 70.358 658.517 L 70.685 659.355 L 72.934 664.946 L 73.282 665.787 L 75.630 671.300 L 76.000 672.143 L 78.446 677.576 L 78.837 678.421 L 81.380 683.770 L 81.794 684.617 L 84.432 689.879 L 84.868 690.727 L 87.600 695.899 L 88.061 696.749 L 90.885 701.828 L 91.370 702.679 L 94.284 707.661 L 94.795 708.513 L 97.797 713.396 L 98.334 714.248 L 101.423 719.028 L 101.988 719.880 L 105.161 724.555 L 105.754 725.406 L 109.010 729.973 L 109.631 730.823 L 112.969 735.280 L 113.619 736.127 L 117.036 740.470 L 117.717 741.314 L 121.210 745.541 L 121.922 746.382 L 125.490 750.490 L 126.234 751.325 L 129.875 755.313 L 130.651 756.142 L 134.362 760.006 L 135.172 760.828 L 138.952 764.566 L 139.796 765.379 L 143.641 768.989 L 144.520 769.793 L 148.428 773.273 L 149.342 774.064 L 153.312 777.412 L 154.262 778.191 L 158.291 781.404 L 159.276 782.168 L 163.362 785.245 L 164.383 785.992 L 168.523 788.931 L 169.581 789.660 L 173.771 792.458 L 174.866 793.167 L 179.105 795.824 L 180.236 796.509 L 184.522 799.024 L 185.687 799.684 L 190.017 802.054 L 191.218 802.688 L 195.589 804.911 L 196.824 805.515 L 201.234 807.591 L 202.502 808.165 L 206.947 810.092 L 208.248 810.631 L 212.726 812.409 L 214.057 812.913 L 218.566 814.539 L 219.926 815.005 L 224.463 816.479 L 225.849 816.905 L 230.411 818.227 L 231.823 818.611 L 236.407 819.779 L 237.841 820.120 L 242.445 821.133 L 243.899 821.428 L 248.519 822.287 L 249.990 822.535 L 254.625 823.239 L 256.110 823.439 L 260.756 823.986 L 262.253 824.137 L 266.907 824.529 L 268.412 824.630 L 273.072 824.865 L 274.582 824.915 L 279.244 824.994 L 280.756 824.994 L 285.418 824.915 L 286.928 824.865 L 291.588 824.630 L 293.093 824.529 L 297.747 824.137 L 299.244 823.986 L 303.890 823.439 L 305.375 823.239 L 310.010 822.535 L 311.481 822.287 L 316.101 821.428 L 317.555 821.133 L 322.159 820.120 L 323.593 819.779 L 328.177 818.611 L 329.589 818.227 L 334.151 816.905 L 335.537 816.479 L 340.074 815.005 L 341.434 814.539 L 345.943 812.913 L 347.274 812.409 L 351.752 810.631 L 353.053 810.092 L 357.498 808.165 L 358.766 807.591 L 363.176 805.515 L 364.411 804.911 L 368.782 802.688 L 369.983 802.054 L 374.313 799.684 L 375.478 799.024 L 379.764 796.509 L 380.895 795.824 L 385.134 793.167 L 386.229 792.458 L 390.419 789.660 L 391.477 788.931 L 395.617 785.992 L 396.638 785.245 L 400.724 782.168 L 401.709 781.404 L 405.738 778.191 L 406.688 777.412 L 410.658 774.064 L 411.572 773.273 L 415.000 770.220 L 415.000 780.000 L 415.014 781.104 Z M 415.000 475.000 L 270.000 475.000 L 268.896 475.014 L 267.792 475.054 L 266.690 475.122 L 265.589 475.217 L 264.492 475.338 L 263.397 475.487 L 262.307 475.663 L 261.221 475.865 L 260.140 476.093 L 259.066 476.349 L 257.998 476.630 L 256.937 476.938 L 255.884 477.271 L 254.840 477.631 L 253.805 478.015 L 252.779 478.425 L 251.764 478.861 L 250.760 479.320 L 249.767 479.805 L 248.787 480.314 L 247.820 480.846 L 246.865 481.402 L 245.925 481.982 L 244.999 482.584 L 244.089 483.209 L 243.194 483.856 L 242.315 484.524 L 241.452 485.215 L 240.607 485.926 L 239.780 486.657 L 238.971 487.409 L 238.180 488.180 L 237.409 488.971 L 236.657 489.780 L 235.926 490.607 L 235.215 491.452 L 234.524 492.315 L 233.856 493.194 L 233.209 494.089 L 232.584 494.999 L 231.982 495.925 L 231.402 496.865 L 230.846 497.820 L 230.314 498.787 L 229.805 499.767 L 229.320 500.760 L 228.861 501.764 L 228.425 502.779 L 228.015 503.805 L 227.631 504.840 L 227.271 505.884 L 226.938 506.937 L 226.630 507.998 L 226.349 509.066 L 226.093 510.140 L 225.865 511.221 L 225.663 512.307 L 225.487 513.397 L 225.338 514.492 L 225.217 515.589 L 225.122 516.690 L 225.054 517.792 L 225.014 518.896 L 225.000 520.000 L 225.014 521.104 L 225.054 522.208 L 225.122 523.310 L 225.217 524.411 L 225.338 525.508 L 225.487 526.603 L 225.663 527.693 L 225.865 528.779 L 226.093 529.860 L 226.349 530.934 L 226.630 532.002 L 226.938 533.063 L 227.271 534.116 L 227.631 535.160 L 228.015 536.195 L 228.425 537.221 L 228.861 538.236 L 229.320 539.240 L 229.805 540.233 L 230.314 541.213 L 230.846 542.180 L 231.402 543.135 L 231.982 544.075 L 232.584 545.001 L 233.209 545.911 L 233.856 546.806 L 234.524 547.685 L 235.215 548.548 L 235.926 549.393 L 236.657 550.220 L 237.409 551.029 L 238.180 551.820 L 238.971 552.591 L 239.780 553.343 L 240.607 554.074 L 241.452 554.785 L 242.315 555.476 L 243.194 556.144 L 244.089 556.791 L 244.999 557.416 L 245.925 558.018 L 246.865 558.598 L 247.820 559.154 L 248.787 559.686 L 249.767 560.195 L 250.760 560.680 L 251.764 561.139 L 252.779 561.575 L 253.805 561.985 L 254.840 562.369 L 255.884 562.729 L 256.937 563.062 L 257.998 563.370 L 259.066 563.651 L 260.140 563.907 L 261.221 564.135 L 262.307 564.337 L 263.397 564.513 L 264.492 564.662 L 265.589 564.783 L 266.690 564.878 L 267.792 564.946 L 268.896 564.986 L 270.000 565.000 L 415.000 565.000 L 415.000 597.514 L 413.955 601.362 L 412.465 606.459 L 410.888 611.494 L 409.225 616.463 L 407.478 621.362 L 405.648 626.189 L 403.737 630.939 L 401.747 635.610 L 399.681 640.199 L 397.541 644.701 L 395.328 649.115 L 393.045 653.437 L 390.694 657.665 L 388.279 661.795 L 385.800 665.825 L 383.262 669.753 L 380.667 673.577 L 378.016 677.294 L 375.314 680.901 L 372.563 684.398 L 369.766 687.783 L 366.926 691.053 L 364.046 694.208 L 361.128 697.246 L 358.175 700.166 L 355.192 702.967 L 352.179 705.649 L 349.141 708.211 L 346.080 710.653 L 342.998 712.973 L 339.899 715.174 L 336.784 717.254 L 333.657 719.214 L 330.519 721.055 L 327.373 722.777 L 324.220 724.380 L 321.062 725.867 L 317.901 727.237 L 314.738 728.492 L 311.575 729.633 L 308.411 730.662 L 305.248 731.578 L 302.087 732.383 L 298.927 733.079 L 295.769 733.666 L 292.613 734.145 L 289.458 734.517 L 286.304 734.782 L 283.152 734.941 L 280.000 734.994 L 276.848 734.941 L 273.696 734.782 L 270.542 734.517 L 267.387 734.145 L 264.231 733.666 L 261.073 733.079 L 257.913 732.383 L 254.752 731.578 L 251.589 730.662 L 248.425 729.633 L 245.262 728.492 L 242.099 727.237 L 238.938 725.867 L 235.780 724.380 L 232.627 722.777 L 229.481 721.055 L 226.343 719.214 L 223.216 717.254 L 220.101 715.174 L 217.002 712.973 L 213.920 710.653 L 210.859 708.211 L 207.821 705.649 L 204.808 702.967 L 201.825 700.166 L 198.872 697.246 L 195.954 694.208 L 193.074 691.053 L 190.234 687.783 L 187.437 684.398 L 184.686 680.901 L 181.984 677.294 L 179.333 673.577 L 176.738 669.753 L 174.200 665.825 L 171.721 661.795 L 169.306 657.665 L 166.955 653.437 L 164.672 649.115 L 162.459 644.701 L 160.319 640.199 L 158.253 635.610 L 156.263 630.939 L 154.352 626.189 L 152.522 621.362 L 150.775 616.463 L 149.112 611.494 L 147.535 606.459 L 146.045 601.362 L 144.645 596.206 L 143.335 590.996 L 142.117 585.734 L 140.991 580.424 L 139.960 575.071 L 139.024 569.678 L 138.185 564.250 L 137.442 558.789 L 136.796 553.300 L 136.249 547.787 L 135.801 542.254 L 135.451 536.704 L 135.202 531.143 L 135.052 525.573 L 135.002 520.000 L 135.052 514.427 L 135.202 508.857 L 135.451 503.296 L 135.801 497.746 L 136.249 492.213 L 136.796 486.700 L 137.442 481.211 L 138.185 475.750 L 139.024 470.322 L 139.960 464.929 L 140.991 459.576 L 142.117 454.266 L 143.335 449.004 L 144.645 443.794 L 146.045 438.638 L 147.535 433.541 L 149.112 428.506 L 150.775 423.537 L 152.522 418.638 L 154.352 413.811 L 156.263 409.061 L 158.253 404.390 L 160.319 399.801 L 162.459 395.299 L 164.672 390.885 L 166.955 386.563 L 169.306 382.335 L 171.721 378.205 L 174.200 374.175 L 176.738 370.247 L 179.333 366.423 L 181.984 362.706 L 184.686 359.099 L 187.437 355.602 L 190.234 352.217 L 193.074 348.947 L 195.954 345.792 L 198.872 342.754 L 201.825 339.834 L 204.808 337.033 L 207.821 334.351 L 210.859 331.789 L 213.920 329.347 L 217.002 327.027 L 220.101 324.826 L 223.216 322.746 L 226.343 320.786 L 229.481 318.945 L 232.627 317.223 L 235.780 315.620 L 238.938 314.133 L 242.099 312.763 L 245.262 311.508 L 248.425 310.367 L 251.589 309.338 L 254.752 308.422 L 257.913 307.617 L 261.073 306.921 L 264.231 306.334 L 267.387 305.855 L 270.542 305.483 L 273.696 305.218 L 276.848 305.059 L 280.000 305.006 L 283.152 305.059 L 286.304 305.218 L 289.458 305.483 L 292.613 305.855 L 295.769 306.334 L 298.927 306.921 L 302.087 307.617 L 305.248 308.422 L 308.411 309.338 L 311.575 310.367 L 314.738 311.508 L 317.901 312.763 L 321.062 314.133 L 324.220 315.620 L 327.373 317.223 L 330.519 318.945 L 333.657 320.786 L 336.784 322.746 L 339.899 324.826 L 342.998 327.027 L 346.080 329.347 L 349.141 331.789 L 352.179 334.351 L 355.192 337.033 L 358.175 339.834 L 361.128 342.754 L 364.046 345.792 L 366.926 348.947 L 369.766 352.217 L 372.563 355.602 L 375.314 359.099 L 378.016 362.706 L 380.667 366.423 L 383.262 370.247 L 385.800 374.175 L 388.279 378.205 L 390.694 382.335 L 393.045 386.563 L 395.328 390.885 L 397.541 395.299 L 399.681 399.801 L 401.747 404.390 L 403.737 409.061 L 405.648 413.811 L 407.478 418.638 L 409.225 423.537 L 410.888 428.506 L 412.465 433.541 L 413.955 438.638 L 415.000 442.486 L 415.000 475.000 Z" fill="black" fill-rule="evenodd"/>
</svg>
