<svg xmlns="http://www.w3.org/2000/svg" viewBox="0 0 600.000 1000" width="600.000" height="1000">
  <path d="M 465.446 559.583 L 465.404 555.022 L 465.388 554.187 L 465.261 549.628 L 465.230 548.794 L 465.019 544.241 L 464.972 543.405 L 464.677 538.861 L 464.615 538.025 L 464.235 533.491 L 464.157 532.655 L 463.693 528.135 L 463.599 527.298 L 463.051 522.794 L 462.941 521.956 L 462.310 517.472 L 462.184 516.633 L 461.470 512.170 L 461.328 511.330 L 460.531 506.892 L 460.372 506.050 L 459.494 501.640 L 459.317 500.797 L 458.357 496.416 L 458.164 495.572 L 457.123 491.223 L 456.912 490.378 L 455.790 486.065 L 455.561 485.218 L 454.360 480.942 L 454.113 480.094 L 452.833 475.858 L 452.567 475.008 L 451.209 470.816 L 450.924 469.964 L 449.488 465.817 L 449.183 464.965 L 447.671 460.865 L 447.347 460.011 L 445.759 455.962 L 445.414 455.107 L 443.751 451.111 L 443.385 450.254 L 441.649 446.313 L 441.261 445.456 L 439.452 441.572 L 439.042 440.714 L 437.162 436.890 L 436.728 436.032 L 434.778 432.270 L 434.321 431.411 L 432.302 427.714 L 431.820 426.856 L 429.733 423.226 L 429.227 422.367 L 427.073 418.806 L 426.541 417.949 L 424.322 414.458 L 423.764 413.603 L 421.481 410.185 L 420.896 409.332 L 418.550 405.990 L 417.938 405.139 L 415.530 401.874 L 414.890 401.026 L 412.423 397.841 L 411.753 396.997 L 409.228 393.893 L 408.528 393.054 L 405.946 390.033 L 405.217 389.200 L 402.579 386.263 L 401.819 385.438 L 399.128 382.587 L 398.336 381.770 L 395.593 379.008 L 394.769 378.200 L 391.976 375.527 L 391.119 374.730 L 388.277 372.149 L 387.388 371.363 L 384.499 368.876 L 383.577 368.103 L 380.642 365.710 L 379.687 364.953 L 376.709 362.656 L 375.720 361.914 L 372.700 359.715 L 371.677 358.992 L 368.618 356.891 L 367.562 356.188 L 364.464 354.187 L 363.374 353.505 L 360.241 351.606 L 359.118 350.948 L 355.950 349.150 L 354.796 348.518 L 351.595 346.824 L 350.409 346.218 L 347.178 344.629 L 345.960 344.053 L 342.701 342.569 L 341.454 342.024 L 338.168 340.646 L 336.892 340.134 L 333.582 338.864 L 332.279 338.387 L 328.946 337.224 L 327.617 336.784 L 324.264 335.730 L 322.912 335.328 L 319.539 334.383 L 318.165 334.022 L 314.776 333.187 L 313.383 332.867 L 309.979 332.142 L 308.568 331.865 L 305.152 331.251 L 303.726 331.019 L 300.300 330.516 L 298.861 330.328 L 295.427 329.937 L 293.978 329.796 L 290.538 329.516 L 289.082 329.421 L 285.637 329.253 L 284.177 329.206 L 280.731 329.150 L 279.269 329.150 L 275.823 329.206 L 274.363 329.253 L 270.918 329.421 L 269.462 329.516 L 266.022 329.796 L 264.573 329.937 L 261.139 330.328 L 259.700 330.516 L 256.274 331.019 L 254.848 331.251 L 251.432 331.865 L 250.021 332.142 L 246.617 332.867 L 245.224 333.187 L 241.835 334.022 L 240.461 334.383 L 237.088 335.328 L 235.736 335.730 L 232.383 336.784 L 231.054 337.224 L 227.721 338.387 L 226.418 338.864 L 223.108 340.134 L 221.832 340.646 L 218.546 342.024 L 217.299 342.569 L 214.040 344.053 L 212.822 344.629 L 209.591 346.218 L 208.405 346.824 L 205.204 348.518 L 204.050 349.150 L 200.882 350.948 L 199.759 351.606 L 196.626 353.505 L 195.536 354.187 L 192.438 356.188 L 191.382 356.891 L 188.323 358.992 L 187.300 359.715 L 184.280 361.914 L 183.291 362.656 L 180.313 364.953 L 179.358 365.710 L 176.423 368.103 L 175.501 368.876 L 172.612 371.363 L 171.723 372.149 L 168.881 374.730 L 168.024 375.527 L 165.231 378.200 L 164.407 379.008 L 161.664 381.770 L 160.872 382.587 L 158.181 385.438 L 157.421 386.263 L 154.783 389.200 L 154.054 390.033 L 151.472 393.054 L 150.772 393.893 L 148.247 396.997 L 147.577 397.841 L 145.110 401.026 L 144.470 401.874 L 142.062 405.139 L 141.450 405.990 L 139.104 409.332 L 138.519 410.185 L 136.236 413.603 L 135.678 414.458 L 133.459 417.949 L 132.927 418.806 L 130.773 422.367 L 130.267 423.226 L 128.180 426.856 L 127.698 427.714 L 125.679 431.411 L 125.222 432.270 L 123.272 436.032 L 122.838 436.890 L 120.958 440.714 L 120.548 441.572 L 118.739 445.456 L 118.351 446.313 L 116.615 450.254 L 116.249 451.111 L 114.586 455.107 L 114.241 455.962 L 112.653 460.011 L 112.329 460.865 L 110.817 464.965 L 110.512 465.817 L 109.076 469.964 L 108.791 470.816 L 107.433 475.008 L 107.167 475.858 L 105.887 480.094 L 105.640 480.942 L 104.439 485.218 L 104.210 486.065 L 103.088 490.378 L 102.877 491.223 L 101.836 495.572 L 101.643 496.416 L 100.683 500.797 L 100.506 501.640 L 99.628 506.050 L 99.469 506.892 L 98.672 511.330 L 98.530 512.170 L 97.816 516.633 L 97.690 517.472 L 97.059 521.956 L 96.949 522.794 L 96.401 527.298 L 96.307 528.135 L 95.843 532.655 L 95.765 533.491 L 95.385 538.025 L 95.323 538.861 L 95.028 543.405 L 94.981 544.241 L 94.770 548.794 L 94.739 549.628 L 94.612 554.187 L 94.596 555.022 L 94.554 559.583 L 94.554 560.417 L 94.596 564.978 L 94.612 565.813 L 94.739 570.372 L 94.770 571.206 L 94.981 575.759 L 95.028 576.595 L 95.323 581.139 L 95.385 581.975 L 95.765 586.509 L 95.843 587.345 L 96.307 591.865 L 96.401 592.702 L 96.949 597.206 L 97.059 598.044 L 97.690 602.528 L 97.816 603.367 L 98.530 607.830 L 98.672 608.670 L 99.469 613.108 L 99.628 613.950 L 100.506 618.360 L 100.683 619.203 L 101.643 623.584 L 101.836 624.428 L 102.877 628.777 L 103.088 629.622 L 104.210 633.935 L 104.439 634.782 L 105.640 639.058 L 105.887 639.906 L 107.167 644.142 L 107.433 644.992 L 108.791 649.184 L 109.076 650.036 L 110.512 654.183 L 110.817 655.035 L 112.329 659.135 L 112.653 659.989 L 114.241 664.038 L 114.586 664.893 L 116.249 668.889 L 116.615 669.746 L 118.351 673.687 L 118.739 674.544 L 120.548 678.428 L 120.958 679.286 L 122.838 683.110 L 123.272 683.968 L 125.222 687.730 L 125.679 688.589 L 127.698 692.286 L 128.180 693.144 L 130.267 696.774 L 130.773 697.633 L 132.927 701.194 L 133.459 702.051 L 135.678 705.542 L 136.236 706.397 L 138.519 709.815 L 139.104 710.668 L 141.450 714.010 L 142.062 714.861 L 144.470 718.126 L 145.110 718.974 L 147.577 722.159 L 148.247 723.003 L 150.772 726.107 L 151.472 726.946 L 154.054 729.967 L 154.783 730.800 L 157.421 733.737 L 158.181 734.562 L 160.872 737.413 L 161.664 738.230 L 164.407 740.992 L 165.231 741.800 L 168.024 744.473 L 168.881 745.270 L 171.723 747.851 L 172.612 748.637 L 175.501 751.124 L 176.423 751.897 L 179.358 754.290 L 180.313 755.047 L 183.291 757.344 L 184.280 758.086 L 187.300 760.285 L 188.323 761.008 L 191.382 763.109 L 192.438 763.812 L 195.536 765.813 L 196.626 766.495 L 199.759 768.394 L 200.882 769.052 L 204.050 770.850 L 205.204 771.482 L 208.405 773.176 L 209.591 773.782 L 212.822 775.371 L 214.040 775.947 L 217.299 777.431 L 218.546 777.976 L 221.832 779.354 L 223.108 779.866 L 226.418 781.136 L 227.721 781.613 L 231.054 782.776 L 232.383 783.216 L 235.736 784.270 L 237.088 784.672 L 240.461 785.617 L 241.835 785.978 L 245.224 786.813 L 246.617 787.133 L 250.021 787.858 L 251.432 788.135 L 254.848 788.749 L 256.274 788.981 L 259.700 789.484 L 261.139 789.672 L 264.573 790.063 L 266.022 790.204 L 269.462 790.484 L 270.918 790.579 L 274.363 790.747 L 275.823 790.794 L 279.269 790.850 L 280.731 790.850 L 284.177 790.794 L 285.637 790.747 L 289.082 790.579 L 290.538 790.484 L 293.978 790.204 L 295.427 790.063 L 298.861 789.672 L 300.300 789.484 L 303.726 788.981 L 305.152 788.749 L 308.568 788.135 L 309.979 787.858 L 313.383 787.133 L 314.776 786.813 L 318.165 785.978 L 319.539 785.617 L 322.912 784.672 L 324.264 784.270 L 327.617 783.216 L 328.946 782.776 L 332.279 781.613 L 333.582 781.136 L 336.892 779.866 L 338.168 779.354 L 341.454 777.976 L 342.701 777.431 L 345.960 775.947 L 347.178 775.371 L 350.409 773.782 L 351.595 773.176 L 354.796 771.482 L 355.950 770.850 L 359.118 769.052 L 360.241 768.394 L 363.374 766.495 L 364.464 765.813 L 367.562 763.812 L 368.618 763.109 L 371.677 761.008 L 372.639 760.328 L 372.639 899.803 L 372.626 901.316 L 372.591 902.632 L 372.533 903.947 L 372.453 905.261 L 372.349 906.573 L 372.222 907.883 L 372.072 909.191 L 371.899 910.496 L 371.704 911.797 L 371.485 913.095 L 371.244 914.389 L 370.980 915.679 L 370.694 916.964 L 370.385 918.243 L 370.053 919.517 L 369.700 920.785 L 369.324 922.046 L 368.926 923.301 L 368.506 924.548 L 368.064 925.788 L 367.601 927.020 L 367.116 928.244 L 366.609 929.459 L 366.082 930.665 L 365.533 931.861 L 364.963 933.048 L 364.373 934.224 L 363.762 935.390 L 363.131 936.545 L 362.479 937.689 L 361.808 938.821 L 361.117 939.941 L 360.406 941.049 L 359.676 942.144 L 358.927 943.227 L 358.159 944.296 L 357.372 945.351 L 356.567 946.392 L 355.744 947.419 L 354.903 948.432 L 354.044 949.429 L 353.168 950.411 L 352.274 951.378 L 351.364 952.329 L 350.438 953.264 L 349.495 954.182 L 348.536 955.084 L 347.561 955.969 L 346.571 956.836 L 345.566 957.686 L 344.547 958.519 L 343.512 959.333 L 342.464 960.129 L 341.402 960.906 L 340.326 961.665 L 339.237 962.404 L 338.136 963.125 L 337.022 963.826 L 335.896 964.507 L 334.758 965.169 L 333.608 965.810 L 332.448 966.431 L 331.276 967.032 L 330.095 967.612 L 328.903 968.171 L 327.702 968.709 L 326.492 969.226 L 325.272 969.722 L 324.044 970.196 L 322.808 970.649 L 321.565 971.080 L 320.313 971.489 L 319.055 971.875 L 317.791 972.240 L 316.520 972.583 L 315.243 972.903 L 313.961 973.201 L 312.674 973.476 L 311.382 973.728 L 310.086 973.958 L 308.786 974.165 L 307.483 974.349 L 306.176 974.511 L 304.867 974.649 L 303.556 974.764 L 302.243 974.857 L 300.929 974.926 L 299.613 974.972 L 298.297 974.995 L 296.981 974.995 L 295.665 974.972 L 294.349 974.926 L 293.035 974.857 L 291.722 974.764 L 290.411 974.649 L 289.102 974.511 L 287.795 974.349 L 286.492 974.165 L 285.192 973.958 L 283.896 973.728 L 282.604 973.476 L 281.317 973.201 L 280.035 972.903 L 278.758 972.583 L 277.487 972.240 L 276.223 971.875 L 274.965 971.489 L 273.713 971.080 L 272.470 970.649 L 271.234 970.196 L 270.006 969.722 L 268.787 969.226 L 267.576 968.709 L 266.375 968.171 L 265.183 967.612 L 264.002 967.032 L 262.830 966.431 L 261.670 965.810 L 260.521 965.169 L 259.383 964.507 L 258.256 963.826 L 257.142 963.125 L 256.041 962.404 L 254.952 961.665 L 253.876 960.906 L 252.814 960.129 L 251.766 959.333 L 250.732 958.519 L 249.712 957.686 L 248.707 956.836 L 247.717 955.969 L 246.742 955.084 L 245.783 954.182 L 244.840 953.264 L 243.914 952.329 L 243.004 951.378 L 242.110 950.411 L 241.234 949.429 L 240.375 948.432 L 239.534 947.419 L 238.711 946.392 L 237.906 945.351 L 237.119 944.296 L 236.351 943.227 L 235.602 942.144 L 234.872 941.049 L 234.161 939.941 L 233.470 938.821 L 232.799 937.689 L 232.147 936.545 L 231.516 935.390 L 230.905 934.224 L 230.315 933.048 L 229.745 931.861 L 229.196 930.665 L 228.669 929.459 L 228.162 928.244 L 227.677 927.020 L 227.214 925.788 L 226.772 924.548 L 226.352 923.301 L 225.954 922.046 L 225.578 920.785 L 225.225 919.517 L 224.893 918.243 L 224.584 916.964 L 224.298 915.679 L 224.034 914.389 L 223.793 913.095 L 223.574 911.797 L 223.379 910.496 L 223.206 909.191 L 223.056 907.883 L 222.929 906.573 L 222.826 905.261 L 222.745 903.947 L 222.687 902.632 L 222.652 901.316 L 222.637 899.605 L 222.614 898.501 L 222.564 897.398 L 222.486 896.296 L 222.382 895.196 L 222.251 894.100 L 222.092 893.007 L 221.907 891.918 L 221.696 890.834 L 221.457 889.756 L 221.193 888.683 L 220.902 887.618 L 220.585 886.560 L 220.242 885.510 L 219.874 884.469 L 219.480 883.437 L 219.061 882.415 L 218.617 881.404 L 218.148 880.404 L 217.655 879.416 L 217.138 878.440 L 216.597 877.477 L 216.032 876.528 L 215.445 875.592 L 214.834 874.672 L 214.202 873.767 L 213.547 872.877 L 212.870 872.004 L 212.173 871.148 L 211.454 870.309 L 210.715 869.488 L 209.957 868.686 L 209.178 867.902 L 208.381 867.138 L 207.565 866.393 L 206.732 865.669 L 205.880 864.965 L 205.012 864.283 L 204.127 863.622 L 203.227 862.983 L 202.310 862.366 L 201.379 861.772 L 200.434 861.201 L 199.475 860.653 L 198.503 860.129 L 197.518 859.629 L 196.521 859.153 L 195.513 858.702 L 194.494 858.276 L 193.465 857.875 L 192.427 857.499 L 191.379 857.149 L 190.323 856.825 L 189.260 856.526 L 188.190 856.254 L 187.113 856.009 L 186.030 855.789 L 184.943 855.597 L 183.851 855.431 L 182.755 855.292 L 181.657 855.180 L 180.556 855.095 L 179.453 855.037 L 178.349 855.006 L 177.244 855.002 L 176.140 855.025 L 175.037 855.075 L 173.935 855.153 L 172.835 855.257 L 171.739 855.388 L 170.646 855.547 L 169.557 855.732 L 168.473 855.943 L 167.395 856.182 L 166.322 856.446 L 165.257 856.737 L 164.199 857.054 L 163.149 857.397 L 162.108 857.765 L 161.076 858.159 L 160.054 858.578 L 159.043 859.022 L 158.043 859.491 L 157.055 859.984 L 156.079 860.501 L 155.116 861.042 L 154.167 861.607 L 153.231 862.194 L 152.311 862.805 L 151.406 863.437 L 150.516 864.092 L 149.643 864.769 L 148.787 865.466 L 147.948 866.185 L 147.127 866.924 L 146.325 867.682 L 145.541 868.461 L 144.777 869.258 L 144.032 870.074 L 143.308 870.907 L 142.604 871.759 L 141.922 872.627 L 141.261 873.512 L 140.622 874.412 L 140.005 875.329 L 139.411 876.260 L 138.840 877.205 L 138.292 878.164 L 137.768 879.136 L 137.268 880.121 L 136.792 881.118 L 136.341 882.126 L 135.915 883.145 L 135.514 884.174 L 135.138 885.212 L 134.788 886.260 L 134.464 887.316 L 134.165 888.379 L 133.893 889.449 L 133.648 890.526 L 133.428 891.609 L 133.236 892.696 L 133.070 893.788 L 132.931 894.884 L 132.819 895.982 L 132.734 897.084 L 132.676 898.186 L 132.645 899.290 L 132.641 900.395 L 132.659 902.501 L 132.673 903.291 L 132.729 905.396 L 132.756 906.185 L 132.849 908.289 L 132.890 909.078 L 133.020 911.180 L 133.075 911.968 L 133.241 914.067 L 133.310 914.854 L 133.513 916.950 L 133.596 917.736 L 133.836 919.828 L 133.933 920.612 L 134.209 922.700 L 134.320 923.482 L 134.633 925.564 L 134.757 926.344 L 135.107 928.421 L 135.244 929.199 L 135.630 931.269 L 135.782 932.044 L 136.204 934.108 L 136.369 934.880 L 136.828 936.936 L 137.006 937.705 L 137.501 939.752 L 137.693 940.518 L 138.223 942.556 L 138.428 943.319 L 138.994 945.348 L 139.213 946.106 L 139.815 948.125 L 140.047 948.880 L 140.683 950.887 L 140.929 951.638 L 141.601 953.634 L 141.859 954.380 L 142.566 956.364 L 142.838 957.106 L 143.579 959.077 L 143.864 959.814 L 144.640 961.772 L 144.937 962.503 L 145.747 964.447 L 146.057 965.174 L 146.902 967.103 L 147.225 967.824 L 148.102 969.738 L 148.438 970.453 L 149.349 972.352 L 149.697 973.061 L 150.642 974.943 L 151.002 975.646 L 151.980 977.511 L 152.353 978.208 L 153.363 980.056 L 153.747 980.745 L 154.790 982.575 L 155.187 983.258 L 156.261 985.070 L 156.670 985.745 L 157.776 987.538 L 158.196 988.206 L 159.334 989.979 L 159.766 990.640 L 160.934 992.392 L 161.378 993.045 L 162.577 994.777 L 163.032 995.423 L 164.261 997.133 L 164.727 997.770 L 165.986 999.459 L 166.463 1000.088 L 167.752 1001.754 L 168.240 1002.374 L 169.557 1004.018 L 170.057 1004.630 L 171.403 1006.249 L 171.913 1006.853 L 173.287 1008.449 L 173.807 1009.043 L 175.209 1010.614 L 175.740 1011.199 L 177.169 1012.746 L 177.710 1013.321 L 179.167 1014.843 L 179.718 1015.408 L 181.200 1016.904 L 181.761 1017.460 L 183.270 1018.930 L 183.840 1019.476 L 185.375 1020.919 L 185.955 1021.454 L 187.514 1022.870 L 188.103 1023.396 L 189.687 1024.784 L 190.286 1025.299 L 191.894 1026.659 L 192.501 1027.164 L 194.133 1028.496 L 194.749 1028.989 L 196.404 1030.292 L 197.029 1030.775 L 198.706 1032.049 L 199.339 1032.521 L 201.039 1033.765 L 201.680 1034.226 L 203.401 1035.439 L 204.051 1035.889 L 205.793 1037.072 L 206.450 1037.511 L 208.213 1038.663 L 208.877 1039.090 L 210.660 1040.211 L 211.332 1040.626 L 213.134 1041.716 L 213.813 1042.119 L 215.634 1043.177 L 216.320 1043.568 L 218.160 1044.595 L 218.853 1044.973 L 220.709 1045.967 L 221.409 1046.334 L 223.283 1047.295 L 223.989 1047.649 L 225.879 1048.577 L 226.591 1048.919 L 228.498 1049.814 L 229.216 1050.143 L 231.138 1051.004 L 231.861 1051.320 L 233.798 1052.148 L 234.527 1052.452 L 236.478 1053.245 L 237.212 1053.536 L 239.177 1054.294 L 239.916 1054.573 L 241.894 1055.297 L 242.638 1055.562 L 244.628 1056.251 L 245.376 1056.503 L 247.378 1057.157 L 248.131 1057.396 L 250.144 1058.015 L 250.901 1058.241 L 252.925 1058.824 L 253.685 1059.037 L 255.719 1059.585 L 256.483 1059.784 L 258.526 1060.296 L 259.294 1060.481 L 261.345 1060.958 L 262.116 1061.129 L 264.176 1061.570 L 264.949 1061.728 L 267.016 1062.132 L 267.793 1062.277 L 269.866 1062.645 L 270.645 1062.776 L 272.725 1063.107 L 273.506 1063.224 L 275.591 1063.519 L 276.374 1063.623 L 278.464 1063.881 L 279.249 1063.971 L 281.344 1064.192 L 282.130 1064.268 L 284.228 1064.453 L 285.015 1064.515 L 287.116 1064.663 L 287.904 1064.711 L 290.007 1064.822 L 290.796 1064.857 L 292.901 1064.931 L 293.691 1064.951 L 295.796 1064.988 L 296.586 1064.995 L 298.692 1064.995 L 299.482 1064.988 L 301.588 1064.951 L 302.377 1064.931 L 304.482 1064.857 L 305.271 1064.822 L 307.374 1064.711 L 308.162 1064.663 L 310.263 1064.515 L 311.050 1064.453 L 313.148 1064.268 L 313.935 1064.192 L 316.029 1063.971 L 316.814 1063.881 L 318.904 1063.623 L 319.687 1063.519 L 321.772 1063.224 L 322.553 1063.107 L 324.633 1062.776 L 325.412 1062.645 L 327.485 1062.277 L 328.262 1062.132 L 330.329 1061.728 L 331.103 1061.570 L 333.162 1061.129 L 333.933 1060.958 L 335.984 1060.481 L 336.752 1060.296 L 338.795 1059.784 L 339.559 1059.585 L 341.593 1059.037 L 342.354 1058.824 L 344.377 1058.241 L 345.134 1058.015 L 347.147 1057.396 L 347.900 1057.157 L 349.902 1056.503 L 350.650 1056.251 L 352.640 1055.562 L 353.384 1055.297 L 355.362 1054.573 L 356.101 1054.294 L 358.066 1053.536 L 358.800 1053.245 L 360.751 1052.452 L 361.480 1052.148 L 363.417 1051.320 L 364.140 1051.004 L 366.062 1050.143 L 366.780 1049.814 L 368.687 1048.919 L 369.399 1048.577 L 371.289 1047.649 L 371.995 1047.295 L 373.869 1046.334 L 374.569 1045.967 L 376.426 1044.973 L 377.119 1044.595 L 378.958 1043.568 L 379.644 1043.177 L 381.465 1042.119 L 382.144 1041.716 L 383.946 1040.626 L 384.618 1040.211 L 386.401 1039.090 L 387.065 1038.663 L 388.828 1037.511 L 389.485 1037.072 L 391.227 1035.889 L 391.877 1035.439 L 393.598 1034.226 L 394.239 1033.765 L 395.939 1032.521 L 396.572 1032.049 L 398.249 1030.775 L 398.874 1030.292 L 400.529 1028.989 L 401.145 1028.496 L 402.777 1027.164 L 403.384 1026.659 L 404.992 1025.299 L 405.591 1024.784 L 407.175 1023.396 L 407.764 1022.870 L 409.323 1021.454 L 409.903 1020.919 L 411.438 1019.476 L 412.008 1018.930 L 413.517 1017.460 L 414.078 1016.904 L 415.561 1015.408 L 416.112 1014.843 L 417.568 1013.321 L 418.109 1012.746 L 419.538 1011.199 L 420.069 1010.614 L 421.471 1009.043 L 421.991 1008.449 L 423.365 1006.853 L 423.875 1006.249 L 425.221 1004.630 L 425.721 1004.018 L 427.038 1002.374 L 427.526 1001.754 L 428.815 1000.088 L 429.292 999.459 L 430.551 997.770 L 431.017 997.133 L 432.246 995.423 L 432.702 994.777 L 433.900 993.045 L 434.344 992.392 L 435.512 990.640 L 435.944 989.979 L 437.082 988.206 L 437.502 987.538 L 438.608 985.745 L 439.017 985.070 L 440.091 983.258 L 440.488 982.575 L 441.531 980.745 L 441.915 980.056 L 442.925 978.208 L 443.298 977.511 L 444.276 975.646 L 444.636 974.943 L 445.581 973.061 L 445.929 972.352 L 446.840 970.453 L 447.176 969.738 L 448.054 967.824 L 448.376 967.103 L 449.221 965.174 L 449.531 964.447 L 450.341 962.503 L 450.639 961.772 L 451.415 959.814 L 451.699 959.077 L 452.441 957.106 L 452.712 956.364 L 453.419 954.380 L 453.677 953.634 L 454.349 951.638 L 454.595 950.887 L 455.231 948.880 L 455.464 948.125 L 456.065 946.106 L 456.284 945.348 L 456.850 943.319 L 457.055 942.556 L 457.585 940.518 L 457.778 939.752 L 458.272 937.705 L 458.451 936.936 L 458.909 934.880 L 459.074 934.108 L 459.496 932.044 L 459.648 931.269 L 460.034 929.199 L 460.172 928.421 L 460.521 926.344 L 460.645 925.564 L 460.958 923.482 L 461.069 922.700 L 461.345 920.612 L 461.442 919.828 L 461.682 917.736 L 461.765 916.950 L 461.968 914.854 L 462.037 914.067 L 462.203 911.968 L 462.259 911.180 L 462.388 909.078 L 462.429 908.289 L 462.522 906.185 L 462.550 905.396 L 462.605 903.291 L 462.619 902.501 L 462.637 900.395 L 462.637 900.197 L 462.639 900.000 L 462.639 600.193 L 462.941 598.044 L 463.051 597.206 L 463.599 592.702 L 463.693 591.865 L 464.157 587.345 L 464.235 586.509 L 464.615 581.975 L 464.677 581.139 L 464.972 576.595 L 465.019 575.759 L 465.230 571.206 L 465.261 570.372 L 465.388 565.813 L 465.404 564.978 L 465.446 560.417 L 465.446 559.583 Z M 375.412 563.726 L 375.308 567.450 L 375.135 571.168 L 374.894 574.877 L 374.584 578.574 L 374.206 582.257 L 373.760 585.923 L 373.247 589.569 L 372.668 593.192 L 372.022 596.789 L 371.311 600.358 L 370.536 603.895 L 369.697 607.399 L 368.796 610.866 L 367.833 614.294 L 366.810 617.680 L 365.727 621.022 L 364.587 624.317 L 363.390 627.562 L 362.137 630.756 L 360.831 633.897 L 359.473 636.980 L 358.064 640.006 L 356.607 642.971 L 355.102 645.873 L 353.552 648.711 L 351.959 651.483 L 350.324 654.186 L 348.649 656.820 L 346.937 659.382 L 345.189 661.871 L 343.408 664.286 L 341.596 666.626 L 339.755 668.890 L 337.887 671.075 L 335.994 673.183 L 334.079 675.211 L 332.143 677.160 L 330.190 679.029 L 328.220 680.818 L 326.236 682.526 L 324.240 684.153 L 322.234 685.700 L 320.220 687.167 L 318.199 688.554 L 316.174 689.862 L 314.146 691.091 L 312.117 692.243 L 310.087 693.317 L 308.058 694.315 L 306.030 695.238 L 304.006 696.087 L 301.984 696.862 L 299.967 697.566 L 297.954 698.199 L 295.945 698.761 L 293.940 699.255 L 291.940 699.681 L 289.943 700.040 L 287.950 700.333 L 285.960 700.559 L 283.972 700.721 L 281.986 700.818 L 280.000 700.850 L 278.014 700.818 L 276.028 700.721 L 274.040 700.559 L 272.050 700.333 L 270.057 700.040 L 268.060 699.681 L 266.060 699.255 L 264.055 698.761 L 262.046 698.199 L 260.033 697.566 L 258.016 696.862 L 255.994 696.087 L 253.970 695.238 L 251.942 694.315 L 249.913 693.317 L 247.883 692.243 L 245.854 691.091 L 243.826 689.862 L 241.801 688.554 L 239.780 687.167 L 237.766 685.700 L 235.760 684.153 L 233.764 682.526 L 231.780 680.818 L 229.810 679.029 L 227.857 677.160 L 225.921 675.211 L 224.006 673.183 L 222.113 671.075 L 220.245 668.890 L 218.404 666.626 L 216.592 664.286 L 214.811 661.871 L 213.063 659.382 L 211.351 656.820 L 209.676 654.186 L 208.041 651.483 L 206.448 648.711 L 204.898 645.873 L 203.393 642.971 L 201.936 640.006 L 200.527 636.980 L 199.169 633.897 L 197.863 630.756 L 196.610 627.562 L 195.413 624.317 L 194.273 621.022 L 193.190 617.680 L 192.167 614.294 L 191.204 610.866 L 190.303 607.399 L 189.464 603.895 L 188.689 600.358 L 187.978 596.789 L 187.332 593.192 L 186.753 589.569 L 186.240 585.923 L 185.794 582.257 L 185.416 578.574 L 185.106 574.877 L 184.865 571.168 L 184.692 567.450 L 184.588 563.726 L 184.554 560.000 L 184.588 556.274 L 184.692 552.550 L 184.865 548.832 L 185.106 545.123 L 185.416 541.426 L 185.794 537.743 L 186.240 534.077 L 186.753 530.431 L 187.332 526.808 L 187.978 523.211 L 188.689 519.642 L 189.464 516.105 L 190.303 512.601 L 191.204 509.134 L 192.167 505.706 L 193.190 502.320 L 194.273 498.978 L 195.413 495.683 L 196.610 492.438 L 197.863 489.244 L 199.169 486.103 L 200.527 483.020 L 201.936 479.994 L 203.393 477.029 L 204.898 474.127 L 206.448 471.289 L 208.041 468.517 L 209.676 465.814 L 211.351 463.180 L 213.063 460.618 L 214.811 458.129 L 216.592 455.714 L 218.404 453.374 L 220.245 451.110 L 222.113 448.925 L 224.006 446.817 L 225.921 444.789 L 227.857 442.840 L 229.810 440.971 L 231.780 439.182 L 233.764 437.474 L 235.760 435.847 L 237.766 434.300 L 239.780 432.833 L 241.801 431.446 L 243.826 430.138 L 245.854 428.909 L 247.883 427.757 L 249.913 426.683 L 251.942 425.685 L 253.970 424.762 L 255.994 423.913 L 258.016 423.138 L 260.033 422.434 L 262.046 421.801 L 264.055 421.239 L 266.060 420.745 L 268.060 420.319 L 270.057 419.960 L 272.050 419.667 L 274.040 419.441 L 276.028 419.279 L 278.014 419.182 L 280.000 419.150 L 281.986 419.182 L 283.972 419.279 L 285.960 419.441 L 287.950 419.667 L 289.943 419.960 L 291.940 420.319 L 293.940 420.745 L 295.945 421.239 L 297.954 421.801 L 299.967 422.434 L 301.984 423.138 L 304.006 423.913 L 306.030 424.762 L 308.058 425.685 L 310.087 426.683 L 312.117 427.757 L 314.146 428.909 L 316.174 430.138 L 318.199 431.446 L 320.220 432.833 L 322.234 434.300 L 324.240 435.847 L 326.236 437.474 L 328.220 439.182 L 330.190 440.971 L 332.143 442.840 L 334.079 444.789 L 335.994 446.817 L 337.887 448.925 L 339.755 451.110 L 341.596 453.374 L 343.408 455.714 L 345.189 458.129 L 346.937 460.618 L 348.649 463.180 L 350.324 465.814 L 351.959 468.517 L 353.552 471.289 L 355.102 474.127 L 356.607 477.029 L 358.064 479.994 L 359.473 483.020 L 360.831 486.103 L 362.137 489.244 L 363.390 492.438 L 364.587 495.683 L 365.727 498.978 L 366.810 502.320 L 367.833 505.706 L 368.796 509.134 L 369.697 512.601 L 370.536 516.105 L 371.311 519.642 L 372.022 523.211 L 372.668 526.808 L 373.247 530.431 L 373.760 534.077 L 374.206 537.743 L 374.584 541.426 L 374.894 545.123 L 375.135 548.832 L 375.308 552.550 L 375.412 556.274 L 375.446 560.000 L 375.412 563.726 Z" fill="black" fill-rule="evenodd"/>
</svg>
