<svg xmlns="http://www.w3.org/2000/svg" viewBox="0 0 600.000 1000">
  <path d="M 485.830 563.583 L 485.786 558.814 L 485.770 557.980 L 485.638 553.214 L 485.607 552.379 L 485.386 547.619 L 485.339 546.784 L 485.030 542.033 L 484.968 541.197 L 484.571 536.457 L 484.493 535.621 L 484.008 530.895 L 483.914 530.058 L 483.341 525.350 L 483.231 524.512 L 482.572 519.824 L 482.446 518.985 L 481.699 514.319 L 481.557 513.479 L 480.724 508.839 L 480.565 507.998 L 479.646 503.386 L 479.470 502.544 L 478.466 497.964 L 478.273 497.120 L 477.185 492.573 L 476.973 491.728 L 475.801 487.219 L 475.572 486.372 L 474.316 481.902 L 474.069 481.053 L 472.731 476.625 L 472.465 475.775 L 471.149 471.712 L 471.149 358.000 L 471.135 356.896 L 471.095 355.792 L 471.027 354.690 L 470.932 353.589 L 470.810 352.492 L 470.662 351.397 L 470.486 350.307 L 470.284 349.221 L 470.055 348.140 L 469.800 347.066 L 469.519 345.998 L 469.211 344.937 L 468.878 343.884 L 468.518 342.840 L 468.133 341.805 L 467.723 340.779 L 467.288 339.764 L 466.828 338.760 L 466.344 337.767 L 465.835 336.787 L 465.303 335.820 L 464.747 334.865 L 464.167 333.925 L 463.565 332.999 L 462.940 332.089 L 462.293 331.194 L 461.624 330.315 L 460.934 329.452 L 460.223 328.607 L 459.492 327.780 L 458.740 326.971 L 457.969 326.180 L 457.178 325.409 L 456.369 324.657 L 455.542 323.926 L 454.696 323.215 L 453.834 322.524 L 452.955 321.856 L 452.060 321.209 L 451.149 320.584 L 450.224 319.982 L 449.283 319.402 L 448.329 318.846 L 447.362 318.314 L 446.381 317.805 L 445.389 317.320 L 444.385 316.861 L 443.370 316.425 L 442.344 316.015 L 441.309 315.631 L 440.264 315.271 L 439.212 314.938 L 438.151 314.630 L 437.083 314.349 L 436.008 314.093 L 434.928 313.865 L 433.842 313.663 L 432.752 313.487 L 431.657 313.338 L 430.560 313.217 L 429.459 313.122 L 428.357 313.054 L 427.253 313.014 L 426.149 313.000 L 425.044 313.014 L 423.941 313.054 L 422.838 313.122 L 421.738 313.217 L 420.640 313.338 L 419.546 313.487 L 418.456 313.663 L 417.370 313.865 L 416.289 314.093 L 415.215 314.349 L 414.147 314.630 L 413.086 314.938 L 412.033 315.271 L 410.989 315.631 L 409.954 316.015 L 408.928 316.425 L 407.913 316.861 L 406.909 317.320 L 405.916 317.805 L 404.936 318.314 L 403.968 318.846 L 403.014 319.402 L 402.074 319.982 L 401.148 320.584 L 400.237 321.209 L 399.342 321.856 L 398.463 322.524 L 397.601 323.215 L 396.756 323.926 L 395.929 324.657 L 395.119 325.409 L 394.329 326.180 L 393.558 326.971 L 392.806 327.780 L 392.074 328.607 L 391.363 329.452 L 390.673 330.315 L 390.004 331.194 L 389.357 332.089 L 388.733 332.999 L 388.130 333.925 L 387.551 334.865 L 386.995 335.820 L 386.462 336.787 L 385.954 337.767 L 385.469 338.760 L 385.009 339.764 L 384.574 340.779 L 384.164 341.805 L 383.779 342.840 L 383.420 343.884 L 383.086 344.937 L 382.779 345.998 L 382.497 347.066 L 382.242 348.140 L 382.013 349.221 L 381.811 350.307 L 381.718 350.889 L 381.193 350.550 L 380.104 349.868 L 376.828 347.882 L 375.705 347.224 L 372.393 345.345 L 371.239 344.713 L 367.893 342.942 L 366.706 342.336 L 363.328 340.675 L 362.111 340.099 L 358.703 338.547 L 357.457 338.002 L 354.021 336.562 L 352.746 336.050 L 349.284 334.722 L 347.982 334.245 L 344.497 333.029 L 343.169 332.589 L 339.662 331.487 L 338.310 331.085 L 334.785 330.098 L 333.411 329.736 L 329.868 328.863 L 328.474 328.543 L 324.916 327.786 L 323.505 327.509 L 319.934 326.867 L 318.508 326.634 L 314.926 326.109 L 313.487 325.921 L 309.897 325.512 L 308.448 325.370 L 304.851 325.078 L 303.395 324.983 L 299.794 324.808 L 298.334 324.760 L 294.731 324.702 L 293.269 324.702 L 289.666 324.760 L 288.206 324.808 L 284.605 324.983 L 283.149 325.078 L 279.552 325.370 L 278.103 325.512 L 274.513 325.921 L 273.074 326.109 L 269.492 326.634 L 268.066 326.867 L 264.495 327.509 L 263.084 327.786 L 259.526 328.543 L 258.132 328.863 L 254.589 329.736 L 253.215 330.098 L 249.690 331.085 L 248.338 331.487 L 244.831 332.589 L 243.503 333.029 L 240.018 334.245 L 238.716 334.722 L 235.254 336.050 L 233.979 336.562 L 230.543 338.002 L 229.297 338.547 L 225.889 340.099 L 224.672 340.675 L 221.294 342.336 L 220.107 342.942 L 216.761 344.713 L 215.607 345.345 L 212.295 347.224 L 211.172 347.882 L 207.896 349.868 L 206.807 350.550 L 203.568 352.642 L 202.512 353.345 L 199.313 355.541 L 198.291 356.265 L 195.134 358.564 L 194.145 359.305 L 191.031 361.707 L 190.076 362.464 L 187.008 364.966 L 186.086 365.739 L 183.065 368.339 L 182.176 369.125 L 179.205 371.823 L 178.349 372.621 L 175.428 375.414 L 174.604 376.222 L 171.736 379.110 L 170.945 379.927 L 168.131 382.907 L 167.371 383.733 L 164.613 386.803 L 163.884 387.636 L 161.184 390.795 L 160.485 391.633 L 157.845 394.879 L 157.175 395.722 L 154.596 399.053 L 153.956 399.900 L 151.439 403.313 L 150.826 404.164 L 148.374 407.658 L 147.789 408.512 L 145.402 412.085 L 144.844 412.940 L 142.524 416.589 L 141.992 417.447 L 139.740 421.170 L 139.234 422.028 L 137.052 425.823 L 136.571 426.682 L 134.460 430.547 L 134.002 431.406 L 131.964 435.338 L 131.530 436.197 L 129.565 440.194 L 129.154 441.052 L 127.264 445.112 L 126.875 445.970 L 125.061 450.090 L 124.694 450.947 L 122.956 455.124 L 122.611 455.980 L 120.951 460.213 L 120.626 461.067 L 119.046 465.353 L 118.741 466.205 L 117.240 470.541 L 116.955 471.392 L 115.535 475.775 L 115.269 476.625 L 113.931 481.053 L 113.684 481.902 L 112.428 486.372 L 112.199 487.219 L 111.027 491.728 L 110.815 492.573 L 109.727 497.120 L 109.534 497.964 L 108.530 502.544 L 108.354 503.386 L 107.435 507.998 L 107.276 508.839 L 106.443 513.479 L 106.301 514.319 L 105.554 518.985 L 105.428 519.824 L 104.769 524.512 L 104.659 525.350 L 104.086 530.058 L 103.992 530.895 L 103.507 535.621 L 103.429 536.457 L 103.032 541.197 L 102.970 542.033 L 102.661 546.784 L 102.614 547.619 L 102.393 552.379 L 102.362 553.214 L 102.230 557.980 L 102.214 558.814 L 102.170 563.583 L 102.170 564.417 L 102.214 569.186 L 102.230 570.020 L 102.362 574.786 L 102.393 575.621 L 102.614 580.381 L 102.661 581.216 L 102.970 585.967 L 103.032 586.803 L 103.429 591.543 L 103.507 592.379 L 103.992 597.105 L 104.086 597.942 L 104.659 602.650 L 104.769 603.488 L 105.428 608.176 L 105.554 609.015 L 106.301 613.681 L 106.443 614.521 L 107.276 619.161 L 107.435 620.002 L 108.354 624.614 L 108.530 625.456 L 109.534 630.036 L 109.727 630.880 L 110.815 635.427 L 111.027 636.272 L 112.199 640.781 L 112.428 641.628 L 113.684 646.098 L 113.931 646.947 L 115.269 651.375 L 115.535 652.225 L 116.955 656.608 L 117.240 657.459 L 118.741 661.795 L 119.046 662.647 L 120.626 666.933 L 120.951 667.787 L 122.611 672.020 L 122.956 672.876 L 124.694 677.053 L 125.061 677.910 L 126.875 682.030 L 127.264 682.888 L 129.154 686.948 L 129.565 687.806 L 131.530 691.803 L 131.964 692.662 L 134.002 696.594 L 134.460 697.453 L 136.571 701.318 L 137.052 702.177 L 139.234 705.972 L 139.740 706.830 L 141.992 710.553 L 142.524 711.411 L 144.844 715.060 L 145.402 715.915 L 147.789 719.488 L 148.374 720.342 L 150.826 723.836 L 151.439 724.687 L 153.956 728.100 L 154.596 728.947 L 157.175 732.278 L 157.845 733.121 L 160.485 736.367 L 161.184 737.205 L 163.884 740.364 L 164.613 741.197 L 167.371 744.267 L 168.131 745.093 L 170.945 748.073 L 171.736 748.890 L 174.604 751.778 L 175.428 752.586 L 178.349 755.379 L 179.205 756.177 L 182.176 758.875 L 183.065 759.661 L 186.086 762.261 L 187.008 763.034 L 190.076 765.536 L 191.031 766.293 L 194.145 768.695 L 195.134 769.436 L 198.291 771.735 L 199.313 772.459 L 202.512 774.655 L 203.568 775.358 L 206.807 777.450 L 207.896 778.132 L 211.172 780.118 L 212.295 780.776 L 215.607 782.655 L 216.761 783.287 L 220.107 785.058 L 221.294 785.664 L 224.672 787.325 L 225.889 787.901 L 229.297 789.453 L 230.543 789.998 L 233.979 791.438 L 235.254 791.950 L 238.716 793.278 L 240.018 793.755 L 243.503 794.971 L 244.831 795.411 L 248.338 796.513 L 249.690 796.915 L 253.215 797.902 L 254.589 798.264 L 258.132 799.137 L 259.526 799.457 L 263.084 800.214 L 264.495 800.491 L 268.066 801.133 L 269.492 801.366 L 273.074 801.891 L 274.513 802.079 L 278.103 802.488 L 279.552 802.630 L 283.149 802.922 L 284.605 803.017 L 288.206 803.192 L 289.666 803.240 L 293.269 803.298 L 294.731 803.298 L 298.334 803.240 L 299.794 803.192 L 303.395 803.017 L 304.851 802.922 L 308.448 802.630 L 309.897 802.488 L 313.487 802.079 L 314.926 801.891 L 318.508 801.366 L 319.934 801.133 L 323.505 800.491 L 324.916 800.214 L 328.474 799.457 L 329.868 799.137 L 333.411 798.264 L 334.785 797.902 L 338.310 796.915 L 339.662 796.513 L 343.169 795.411 L 344.497 794.971 L 347.982 793.755 L 349.284 793.278 L 352.746 791.950 L 354.021 791.438 L 357.457 789.998 L 358.703 789.453 L 362.111 787.901 L 363.328 787.325 L 366.706 785.664 L 367.893 785.058 L 371.239 783.287 L 372.393 782.655 L 375.705 780.776 L 376.828 780.118 L 380.104 778.132 L 381.149 777.478 L 381.149 880.000 L 381.162 881.104 L 381.203 882.208 L 381.271 883.310 L 381.365 884.411 L 381.487 885.508 L 381.636 886.603 L 381.811 887.693 L 382.013 888.779 L 382.242 889.860 L 382.497 890.934 L 382.779 892.002 L 383.057 892.962 L 383.004 893.356 L 382.803 894.704 L 382.582 896.049 L 382.342 897.390 L 382.083 898.728 L 381.805 900.062 L 381.508 901.392 L 381.191 902.718 L 380.856 904.039 L 380.502 905.355 L 380.129 906.665 L 379.737 907.970 L 379.326 909.270 L 378.897 910.563 L 378.449 911.850 L 377.983 913.131 L 377.499 914.405 L 376.996 915.671 L 376.475 916.931 L 375.937 918.182 L 375.380 919.426 L 374.805 920.662 L 374.213 921.890 L 373.604 923.108 L 372.977 924.318 L 372.332 925.519 L 371.671 926.710 L 370.992 927.892 L 370.297 929.064 L 369.585 930.226 L 368.856 931.378 L 368.111 932.519 L 367.349 933.649 L 366.571 934.768 L 365.778 935.876 L 364.968 936.972 L 364.143 938.057 L 363.303 939.129 L 362.447 940.190 L 361.576 941.238 L 360.690 942.273 L 359.789 943.296 L 358.874 944.306 L 357.944 945.302 L 357.001 946.285 L 356.043 947.255 L 355.071 948.210 L 354.086 949.152 L 353.087 950.079 L 352.075 950.992 L 351.051 951.890 L 350.013 952.773 L 348.963 953.642 L 347.900 954.495 L 346.825 955.333 L 345.739 956.156 L 344.641 956.962 L 343.531 957.753 L 342.410 958.528 L 341.278 959.287 L 340.135 960.030 L 338.982 960.756 L 337.818 961.465 L 336.645 962.158 L 335.461 962.833 L 334.268 963.492 L 333.066 964.134 L 331.855 964.758 L 330.634 965.364 L 329.406 965.954 L 328.168 966.525 L 326.923 967.079 L 325.670 967.615 L 324.410 968.132 L 323.142 968.632 L 321.867 969.113 L 320.585 969.576 L 319.297 970.021 L 318.002 970.447 L 316.702 970.854 L 315.396 971.243 L 314.084 971.613 L 312.768 971.964 L 311.446 972.297 L 310.120 972.610 L 308.789 972.904 L 307.454 973.179 L 306.116 973.435 L 304.774 973.672 L 303.428 973.889 L 302.080 974.087 L 300.729 974.266 L 299.376 974.425 L 298.020 974.565 L 296.663 974.685 L 295.304 974.786 L 293.943 974.867 L 292.582 974.929 L 291.220 974.972 L 289.857 974.994 L 288.495 974.998 L 287.132 974.981 L 285.770 974.946 L 284.408 974.890 L 283.047 974.815 L 281.688 974.721 L 280.330 974.607 L 278.974 974.474 L 277.619 974.321 L 276.268 974.149 L 274.918 973.957 L 273.572 973.746 L 272.229 973.516 L 270.889 973.266 L 269.553 972.998 L 268.221 972.710 L 266.893 972.403 L 265.570 972.077 L 264.252 971.732 L 262.938 971.369 L 261.630 970.986 L 260.328 970.585 L 259.031 970.165 L 257.741 969.727 L 256.457 969.270 L 255.180 968.794 L 253.910 968.301 L 252.647 967.789 L 251.391 967.259 L 250.143 966.712 L 248.904 966.146 L 247.672 965.563 L 246.449 964.962 L 245.234 964.344 L 244.029 963.708 L 242.833 963.055 L 241.646 962.385 L 240.469 961.698 L 239.302 960.994 L 238.146 960.273 L 236.999 959.536 L 235.864 958.783 L 234.739 958.013 L 233.626 957.228 L 232.524 956.426 L 231.433 955.609 L 230.354 954.776 L 229.288 953.928 L 228.233 953.064 L 227.192 952.186 L 226.162 951.293 L 225.146 950.385 L 224.143 949.462 L 223.153 948.525 L 222.177 947.575 L 221.215 946.610 L 220.266 945.631 L 219.332 944.639 L 218.412 943.634 L 217.506 942.616 L 216.615 941.584 L 215.739 940.541 L 214.878 939.484 L 214.033 938.416 L 213.203 937.335 L 212.388 936.242 L 211.589 935.138 L 210.806 934.023 L 210.039 932.897 L 209.288 931.759 L 208.554 930.611 L 207.836 929.453 L 207.135 928.284 L 206.451 927.105 L 205.784 925.917 L 205.134 924.720 L 204.501 923.513 L 203.886 922.297 L 203.288 921.072 L 202.707 919.839 L 202.145 918.598 L 201.600 917.349 L 201.073 916.092 L 200.564 914.828 L 200.074 913.556 L 199.602 912.278 L 199.148 910.993 L 198.712 909.702 L 198.296 908.404 L 197.898 907.101 L 197.518 905.792 L 197.158 904.478 L 196.816 903.159 L 196.493 901.835 L 196.190 900.506 L 195.905 899.173 L 195.639 897.837 L 195.335 896.179 L 195.122 895.095 L 194.883 894.017 L 194.617 892.945 L 194.325 891.880 L 194.007 890.822 L 193.663 889.773 L 193.293 888.732 L 192.898 887.701 L 192.478 886.679 L 192.033 885.669 L 191.563 884.669 L 191.069 883.681 L 190.550 882.706 L 190.008 881.744 L 189.443 880.795 L 188.854 879.861 L 188.243 878.941 L 187.609 878.036 L 186.953 877.148 L 186.275 876.275 L 185.577 875.420 L 184.857 874.582 L 184.118 873.762 L 183.358 872.960 L 182.579 872.177 L 181.781 871.414 L 180.964 870.670 L 180.130 869.947 L 179.278 869.244 L 178.409 868.563 L 177.523 867.903 L 176.622 867.265 L 175.705 866.649 L 174.773 866.056 L 173.827 865.486 L 172.867 864.939 L 171.895 864.416 L 170.909 863.917 L 169.912 863.443 L 168.903 862.993 L 167.884 862.568 L 166.855 862.168 L 165.816 861.793 L 164.768 861.444 L 163.712 861.121 L 162.648 860.824 L 161.577 860.553 L 160.500 860.309 L 159.417 860.091 L 158.330 859.899 L 157.238 859.735 L 156.142 859.597 L 155.043 859.486 L 153.942 859.402 L 152.839 859.345 L 151.735 859.316 L 150.630 859.313 L 149.526 859.337 L 148.423 859.389 L 147.321 859.468 L 146.222 859.573 L 145.125 859.706 L 144.033 859.865 L 142.944 860.052 L 141.860 860.264 L 140.782 860.504 L 139.710 860.770 L 138.645 861.062 L 137.587 861.380 L 136.538 861.724 L 135.497 862.093 L 134.466 862.488 L 133.444 862.909 L 132.433 863.354 L 131.434 863.824 L 130.446 864.318 L 129.471 864.836 L 128.509 865.378 L 127.560 865.944 L 126.626 866.533 L 125.706 867.144 L 124.801 867.778 L 123.913 868.434 L 123.040 869.111 L 122.185 869.810 L 121.347 870.529 L 120.527 871.269 L 119.725 872.028 L 118.942 872.807 L 118.179 873.606 L 117.435 874.422 L 116.712 875.257 L 116.009 876.109 L 115.328 876.978 L 114.668 877.863 L 114.030 878.765 L 113.414 879.682 L 112.821 880.613 L 112.251 881.559 L 111.704 882.519 L 111.181 883.492 L 110.682 884.477 L 110.208 885.474 L 109.758 886.483 L 109.333 887.502 L 108.933 888.532 L 108.558 889.571 L 108.209 890.619 L 107.886 891.675 L 107.589 892.739 L 107.318 893.809 L 107.074 894.886 L 106.856 895.969 L 106.664 897.057 L 106.500 898.149 L 106.362 899.245 L 106.251 900.344 L 106.167 901.445 L 106.110 902.548 L 106.081 903.652 L 106.078 904.756 L 106.102 905.860 L 106.154 906.964 L 106.233 908.065 L 106.338 909.165 L 106.471 910.261 L 106.630 911.354 L 106.817 912.443 L 107.179 914.418 L 107.301 915.052 L 107.692 917.022 L 107.822 917.654 L 108.242 919.618 L 108.381 920.248 L 108.828 922.206 L 108.977 922.834 L 109.452 924.785 L 109.610 925.412 L 110.113 927.356 L 110.280 927.979 L 110.811 929.916 L 110.986 930.537 L 111.545 932.466 L 111.730 933.085 L 112.316 935.006 L 112.509 935.622 L 113.124 937.534 L 113.325 938.147 L 113.967 940.050 L 114.178 940.660 L 114.846 942.554 L 115.066 943.161 L 115.762 945.045 L 115.990 945.649 L 116.712 947.523 L 116.949 948.123 L 117.699 949.986 L 117.944 950.583 L 118.720 952.436 L 118.974 953.029 L 119.777 954.870 L 120.039 955.460 L 120.868 957.289 L 121.139 957.875 L 121.994 959.692 L 122.273 960.274 L 123.155 962.079 L 123.442 962.657 L 124.349 964.449 L 124.645 965.023 L 125.577 966.801 L 125.881 967.371 L 126.839 969.136 L 127.151 969.701 L 128.135 971.452 L 128.455 972.013 L 129.463 973.749 L 129.791 974.305 L 130.824 976.028 L 131.160 976.579 L 132.218 978.286 L 132.562 978.832 L 133.644 980.524 L 133.996 981.065 L 135.102 982.741 L 135.461 983.278 L 136.592 984.938 L 136.959 985.469 L 138.113 987.113 L 138.487 987.638 L 139.665 989.265 L 140.047 989.785 L 141.247 991.395 L 141.637 991.910 L 142.860 993.503 L 143.257 994.012 L 144.504 995.587 L 144.908 996.090 L 146.176 997.647 L 146.588 998.144 L 147.879 999.683 L 148.297 1000.174 L 149.610 1001.694 L 150.036 1002.179 L 151.370 1003.680 L 151.803 1004.159 L 153.158 1005.641 L 153.598 1006.114 L 154.975 1007.576 L 155.421 1008.043 L 156.818 1009.485 L 157.271 1009.945 L 158.690 1011.367 L 159.149 1011.820 L 160.587 1013.222 L 161.053 1013.669 L 162.512 1015.049 L 162.984 1015.490 L 164.462 1016.849 L 164.940 1017.283 L 166.438 1018.621 L 166.922 1019.047 L 168.439 1020.364 L 168.929 1020.783 L 170.465 1022.078 L 170.961 1022.491 L 172.515 1023.763 L 173.017 1024.168 L 174.589 1025.418 L 175.097 1025.817 L 176.687 1027.044 L 177.201 1027.435 L 178.808 1028.639 L 179.327 1029.023 L 180.951 1030.204 L 181.476 1030.580 L 183.117 1031.738 L 183.647 1032.106 L 185.304 1033.240 L 185.840 1033.601 L 187.513 1034.711 L 188.054 1035.064 L 189.743 1036.150 L 190.288 1036.495 L 191.993 1037.557 L 192.543 1037.895 L 194.263 1038.932 L 194.818 1039.261 L 196.553 1040.274 L 197.113 1040.595 L 198.861 1041.583 L 199.426 1041.896 L 201.188 1042.858 L 201.757 1043.163 L 203.534 1044.100 L 204.107 1044.397 L 205.896 1045.309 L 206.474 1045.598 L 208.276 1046.483 L 208.858 1046.764 L 210.673 1047.623 L 211.258 1047.895 L 213.085 1048.729 L 213.674 1048.992 L 215.513 1049.800 L 216.106 1050.055 L 217.957 1050.836 L 218.553 1051.082 L 220.415 1051.836 L 221.015 1052.074 L 222.887 1052.802 L 223.490 1053.031 L 225.372 1053.732 L 225.979 1053.952 L 227.871 1054.626 L 228.481 1054.838 L 230.382 1055.484 L 230.995 1055.687 L 232.905 1056.306 L 233.521 1056.500 L 235.440 1057.092 L 236.058 1057.277 L 237.986 1057.841 L 238.607 1058.018 L 240.542 1058.554 L 241.166 1058.722 L 243.109 1059.230 L 243.734 1059.389 L 245.684 1059.869 L 246.312 1060.019 L 248.269 1060.471 L 248.899 1060.612 L 250.862 1061.036 L 251.494 1061.168 L 253.463 1061.564 L 254.096 1061.687 L 256.071 1062.054 L 256.706 1062.168 L 258.686 1062.507 L 259.323 1062.612 L 261.307 1062.922 L 261.945 1063.018 L 263.934 1063.300 L 264.573 1063.386 L 266.566 1063.640 L 267.207 1063.717 L 269.202 1063.942 L 269.844 1064.010 L 271.843 1064.207 L 272.486 1064.265 L 274.487 1064.433 L 275.131 1064.482 L 277.134 1064.621 L 277.778 1064.662 L 279.784 1064.772 L 280.428 1064.803 L 282.435 1064.884 L 283.080 1064.906 L 285.088 1064.959 L 285.733 1064.971 L 287.741 1064.995 L 288.387 1064.998 L 290.395 1064.993 L 291.041 1064.987 L 293.049 1064.954 L 293.694 1064.938 L 295.701 1064.876 L 296.347 1064.851 L 298.353 1064.760 L 298.997 1064.726 L 301.002 1064.606 L 301.646 1064.563 L 303.649 1064.414 L 304.292 1064.362 L 306.293 1064.184 L 306.935 1064.123 L 308.933 1063.917 L 309.575 1063.846 L 311.569 1063.611 L 312.210 1063.531 L 314.201 1063.268 L 314.840 1063.178 L 316.827 1062.887 L 317.465 1062.788 L 319.448 1062.468 L 320.084 1062.360 L 322.062 1062.012 L 322.697 1061.895 L 324.669 1061.518 L 325.303 1061.392 L 327.270 1060.987 L 327.901 1060.852 L 329.862 1060.418 L 330.491 1060.275 L 332.446 1059.813 L 333.073 1059.660 L 335.021 1059.170 L 335.645 1059.009 L 337.586 1058.491 L 338.209 1058.320 L 340.141 1057.775 L 340.761 1057.595 L 342.686 1057.022 L 343.304 1056.834 L 345.220 1056.233 L 345.835 1056.036 L 347.742 1055.408 L 348.354 1055.202 L 350.252 1054.547 L 350.861 1054.332 L 352.750 1053.649 L 353.355 1053.426 L 355.234 1052.716 L 355.837 1052.484 L 357.705 1051.748 L 358.304 1051.507 L 360.162 1050.744 L 360.757 1050.494 L 362.604 1049.705 L 363.195 1049.447 L 365.030 1048.631 L 365.618 1048.364 L 367.441 1047.522 L 368.026 1047.247 L 369.836 1046.379 L 370.416 1046.095 L 372.215 1045.201 L 372.791 1044.910 L 374.576 1043.990 L 375.148 1043.690 L 376.920 1042.745 L 377.487 1042.437 L 379.245 1041.466 L 379.808 1041.150 L 381.552 1040.154 L 382.110 1039.830 L 383.840 1038.809 L 384.393 1038.477 L 386.108 1037.432 L 386.657 1037.092 L 388.356 1036.022 L 388.900 1035.674 L 390.584 1034.580 L 391.123 1034.224 L 392.791 1033.106 L 393.325 1032.743 L 394.977 1031.601 L 395.505 1031.230 L 397.140 1030.064 L 397.663 1029.686 L 399.282 1028.497 L 399.799 1028.111 L 401.401 1026.899 L 401.913 1026.505 L 403.496 1025.271 L 404.003 1024.870 L 405.568 1023.612 L 406.069 1023.205 L 407.617 1021.925 L 408.111 1021.510 L 409.640 1020.208 L 410.129 1019.786 L 411.639 1018.462 L 412.121 1018.033 L 413.613 1016.688 L 414.089 1016.252 L 415.560 1014.886 L 416.030 1014.443 L 417.482 1013.056 L 417.946 1012.606 L 419.378 1011.198 L 419.835 1010.742 L 421.246 1009.314 L 421.697 1008.851 L 423.088 1007.403 L 423.531 1006.934 L 424.901 1005.465 L 425.338 1004.990 L 426.687 1003.502 L 427.117 1003.021 L 428.445 1001.514 L 428.868 1001.026 L 430.173 999.500 L 430.589 999.007 L 431.873 997.462 L 432.282 996.963 L 433.543 995.400 L 433.945 994.895 L 435.184 993.314 L 435.578 992.803 L 436.794 991.204 L 437.181 990.688 L 438.374 989.072 L 438.754 988.550 L 439.923 986.917 L 440.296 986.390 L 441.442 984.741 L 441.806 984.208 L 442.928 982.543 L 443.285 982.005 L 444.383 980.323 L 444.733 979.780 L 445.807 978.083 L 446.148 977.535 L 447.197 975.823 L 447.531 975.270 L 448.556 973.543 L 448.881 972.986 L 449.881 971.244 L 450.198 970.682 L 451.173 968.926 L 451.483 968.360 L 452.432 966.590 L 452.733 966.019 L 453.658 964.236 L 453.951 963.661 L 454.849 961.865 L 455.134 961.285 L 456.006 959.476 L 456.283 958.893 L 457.129 957.072 L 457.397 956.484 L 458.217 954.651 L 458.477 954.060 L 459.271 952.216 L 459.522 951.621 L 460.289 949.765 L 460.532 949.167 L 461.272 947.300 L 461.506 946.698 L 462.220 944.821 L 462.445 944.216 L 463.132 942.329 L 463.348 941.721 L 464.008 939.824 L 464.216 939.213 L 464.848 937.307 L 465.047 936.692 L 465.652 934.777 L 465.842 934.161 L 466.420 932.237 L 466.601 931.617 L 467.151 929.686 L 467.323 929.064 L 467.845 927.125 L 468.009 926.500 L 468.503 924.553 L 468.657 923.927 L 469.123 921.973 L 469.269 921.344 L 469.707 919.384 L 469.843 918.753 L 470.253 916.787 L 470.381 916.155 L 470.762 914.183 L 470.881 913.548 L 471.234 911.571 L 471.343 910.935 L 471.668 908.953 L 471.768 908.315 L 472.065 906.329 L 472.156 905.690 L 472.424 903.700 L 472.505 903.059 L 472.745 901.065 L 472.817 900.424 L 473.028 898.427 L 473.091 897.784 L 473.273 895.784 L 473.327 895.141 L 473.481 893.139 L 473.526 892.495 L 473.650 890.490 L 473.686 889.846 L 473.782 887.840 L 473.808 887.195 L 473.875 885.187 L 473.892 884.542 L 473.931 882.534 L 473.938 881.889 L 473.948 879.880 L 473.946 879.235 L 473.927 877.227 L 473.916 876.581 L 473.868 874.574 L 473.848 873.928 L 473.771 871.921 L 473.742 871.277 L 473.637 869.271 L 473.598 868.627 L 473.464 866.623 L 473.416 865.979 L 473.253 863.977 L 473.196 863.334 L 473.004 861.335 L 472.938 860.693 L 472.717 858.697 L 472.642 858.056 L 472.393 856.063 L 472.308 855.423 L 472.031 853.434 L 471.937 852.795 L 471.631 850.811 L 471.528 850.173 L 471.193 848.193 L 471.149 847.949 L 471.149 656.288 L 472.465 652.225 L 472.731 651.375 L 474.069 646.947 L 474.316 646.098 L 475.572 641.628 L 475.801 640.781 L 476.973 636.272 L 477.185 635.427 L 478.273 630.880 L 478.466 630.036 L 479.470 625.456 L 479.646 624.614 L 480.565 620.002 L 480.724 619.161 L 481.557 614.521 L 481.699 613.681 L 482.446 609.015 L 482.572 608.176 L 483.231 603.488 L 483.341 602.650 L 483.914 597.942 L 484.008 597.105 L 484.493 592.379 L 484.571 591.543 L 484.968 586.803 L 485.030 585.967 L 485.339 581.216 L 485.386 580.381 L 485.607 575.621 L 485.638 574.786 L 485.770 570.020 L 485.786 569.186 L 485.830 564.417 L 485.830 563.583 Z M 380.386 642.061 L 378.949 645.324 L 377.458 648.526 L 375.915 651.664 L 374.322 654.738 L 372.680 657.744 L 370.991 660.680 L 369.258 663.545 L 367.483 666.338 L 365.667 669.055 L 363.813 671.696 L 361.923 674.260 L 359.998 676.745 L 358.042 679.149 L 356.057 681.472 L 354.044 683.713 L 352.007 685.871 L 349.946 687.946 L 347.865 689.936 L 345.766 691.842 L 343.651 693.663 L 341.522 695.399 L 339.381 697.051 L 337.229 698.617 L 335.070 700.100 L 332.904 701.499 L 330.734 702.815 L 328.560 704.048 L 326.384 705.199 L 324.208 706.269 L 322.033 707.260 L 319.859 708.171 L 317.687 709.004 L 315.518 709.761 L 313.353 710.441 L 311.190 711.047 L 309.032 711.579 L 306.877 712.038 L 304.725 712.425 L 302.576 712.740 L 300.430 712.984 L 298.285 713.159 L 296.142 713.263 L 294.000 713.298 L 291.858 713.263 L 289.715 713.159 L 287.570 712.984 L 285.424 712.740 L 283.275 712.425 L 281.123 712.038 L 278.968 711.579 L 276.810 711.047 L 274.647 710.441 L 272.482 709.761 L 270.313 709.004 L 268.141 708.171 L 265.967 707.260 L 263.792 706.269 L 261.616 705.199 L 259.440 704.048 L 257.266 702.815 L 255.096 701.499 L 252.930 700.100 L 250.771 698.617 L 248.619 697.051 L 246.478 695.399 L 244.349 693.663 L 242.234 691.842 L 240.135 689.936 L 238.054 687.946 L 235.993 685.871 L 233.956 683.713 L 231.943 681.472 L 229.958 679.149 L 228.002 676.745 L 226.077 674.260 L 224.187 671.696 L 222.333 669.055 L 220.517 666.338 L 218.742 663.545 L 217.009 660.680 L 215.320 657.744 L 213.678 654.738 L 212.085 651.664 L 210.542 648.526 L 209.051 645.324 L 207.614 642.061 L 206.232 638.739 L 204.908 635.361 L 203.642 631.929 L 202.436 628.445 L 201.292 624.913 L 200.211 621.334 L 199.193 617.712 L 198.241 614.049 L 197.355 610.348 L 196.536 606.611 L 195.785 602.842 L 195.103 599.043 L 194.491 595.217 L 193.950 591.367 L 193.479 587.497 L 193.080 583.608 L 192.753 579.705 L 192.498 575.789 L 192.316 571.864 L 192.206 567.934 L 192.170 564.000 L 192.206 560.066 L 192.316 556.136 L 192.498 552.211 L 192.753 548.295 L 193.080 544.392 L 193.479 540.503 L 193.950 536.633 L 194.491 532.783 L 195.103 528.957 L 195.785 525.158 L 196.536 521.389 L 197.355 517.652 L 198.241 513.951 L 199.193 510.288 L 200.211 506.666 L 201.292 503.087 L 202.436 499.555 L 203.642 496.071 L 204.908 492.639 L 206.232 489.261 L 207.614 485.939 L 209.051 482.676 L 210.542 479.474 L 212.085 476.336 L 213.678 473.262 L 215.320 470.256 L 217.009 467.320 L 218.742 464.455 L 220.517 461.662 L 222.333 458.945 L 224.187 456.304 L 226.077 453.740 L 228.002 451.255 L 229.958 448.851 L 231.943 446.528 L 233.956 444.287 L 235.993 442.129 L 238.054 440.054 L 240.135 438.064 L 242.234 436.158 L 244.349 434.337 L 246.478 432.601 L 248.619 430.949 L 250.771 429.383 L 252.930 427.900 L 255.096 426.501 L 257.266 425.185 L 259.440 423.952 L 261.616 422.801 L 263.792 421.731 L 265.967 420.740 L 268.141 419.829 L 270.313 418.996 L 272.482 418.239 L 274.647 417.559 L 276.810 416.953 L 278.968 416.421 L 281.123 415.962 L 283.275 415.575 L 285.424 415.260 L 287.570 415.016 L 289.715 414.841 L 291.858 414.737 L 294.000 414.702 L 296.142 414.737 L 298.285 414.841 L 300.430 415.016 L 302.576 415.260 L 304.725 415.575 L 306.877 415.962 L 309.032 416.421 L 311.190 416.953 L 313.353 417.559 L 315.518 418.239 L 317.687 418.996 L 319.859 419.829 L 322.033 420.740 L 324.208 421.731 L 326.384 422.801 L 328.560 423.952 L 330.734 425.185 L 332.904 426.501 L 335.070 427.900 L 337.229 429.383 L 339.381 430.949 L 341.522 432.601 L 343.651 434.337 L 345.766 436.158 L 347.865 438.064 L 349.946 440.054 L 352.007 442.129 L 354.044 444.287 L 356.057 446.528 L 358.042 448.851 L 359.998 451.255 L 361.923 453.740 L 363.813 456.304 L 365.667 458.945 L 367.483 461.662 L 369.258 464.455 L 370.991 467.320 L 372.680 470.256 L 374.322 473.262 L 375.915 476.336 L 377.458 479.474 L 378.949 482.676 L 380.386 485.939 L 381.149 487.773 L 381.149 519.000 L 285.190 519.000 L 284.086 519.014 L 282.982 519.054 L 281.880 519.122 L 280.779 519.217 L 279.682 519.338 L 278.587 519.487 L 277.497 519.663 L 276.411 519.865 L 275.331 520.093 L 274.256 520.349 L 273.188 520.630 L 272.127 520.938 L 271.074 521.271 L 270.030 521.631 L 268.995 522.015 L 267.969 522.425 L 266.954 522.861 L 265.950 523.320 L 264.958 523.805 L 263.977 524.314 L 263.010 524.846 L 262.055 525.402 L 261.115 525.982 L 260.189 526.584 L 259.279 527.209 L 258.384 527.856 L 257.505 528.524 L 256.642 529.215 L 255.797 529.926 L 254.970 530.657 L 254.161 531.409 L 253.370 532.180 L 252.599 532.971 L 251.847 533.780 L 251.116 534.607 L 250.405 535.452 L 249.714 536.315 L 249.046 537.194 L 248.399 538.089 L 247.774 538.999 L 247.172 539.925 L 246.592 540.865 L 246.036 541.820 L 245.504 542.787 L 244.995 543.767 L 244.511 544.760 L 244.051 545.764 L 243.616 546.779 L 243.205 547.805 L 242.821 548.840 L 242.461 549.884 L 242.128 550.937 L 241.820 551.998 L 241.539 553.066 L 241.283 554.140 L 241.055 555.221 L 240.853 556.307 L 240.677 557.397 L 240.529 558.492 L 240.407 559.589 L 240.312 560.690 L 240.244 561.792 L 240.204 562.896 L 240.190 564.000 L 240.204 565.104 L 240.244 566.208 L 240.312 567.310 L 240.407 568.411 L 240.529 569.508 L 240.677 570.603 L 240.853 571.693 L 241.055 572.779 L 241.283 573.860 L 241.539 574.934 L 241.820 576.002 L 242.128 577.063 L 242.461 578.116 L 242.821 579.160 L 243.205 580.195 L 243.616 581.221 L 244.051 582.236 L 244.511 583.240 L 244.995 584.233 L 245.504 585.213 L 246.036 586.180 L 246.592 587.135 L 247.172 588.075 L 247.774 589.001 L 248.399 589.911 L 249.046 590.806 L 249.714 591.685 L 250.405 592.548 L 251.116 593.393 L 251.847 594.220 L 252.599 595.029 L 253.370 595.820 L 254.161 596.591 L 254.970 597.343 L 255.797 598.074 L 256.642 598.785 L 257.505 599.476 L 258.384 600.144 L 259.279 600.791 L 260.189 601.416 L 261.115 602.018 L 262.055 602.598 L 263.010 603.154 L 263.977 603.686 L 264.958 604.195 L 265.950 604.680 L 266.954 605.139 L 267.969 605.575 L 268.995 605.985 L 270.030 606.369 L 271.074 606.729 L 272.127 607.062 L 273.188 607.370 L 274.256 607.651 L 275.331 607.907 L 276.411 608.135 L 277.497 608.337 L 278.587 608.513 L 279.682 608.662 L 280.779 608.783 L 281.880 608.878 L 282.982 608.946 L 284.086 608.986 L 285.190 609.000 L 381.149 609.000 L 381.149 640.227 L 380.386 642.061 Z" fill="black" fill-rule="evenodd"/>
</svg>
