<svg xmlns="http://www.w3.org/2000/svg" width="600.000" height="1000" viewBox="0 0 600.000 1000">
  <path d="M 35.054 782.208 L 35.122 783.310 L 35.217 784.411 L 35.338 785.508 L 35.487 786.603 L 35.663 787.693 L 35.865 788.779 L 36.093 789.860 L 36.349 790.934 L 36.630 792.002 L 36.938 793.063 L 37.271 794.116 L 37.631 795.160 L 38.015 796.195 L 38.425 797.221 L 38.861 798.236 L 39.320 799.240 L 39.805 800.233 L 40.314 801.213 L 40.846 802.180 L 41.402 803.135 L 41.982 804.075 L 42.584 805.001 L 43.209 805.911 L 43.856 806.806 L 44.524 807.685 L 45.215 808.548 L 45.926 809.393 L 46.657 810.220 L 47.409 811.029 L 48.180 811.820 L 48.971 812.591 L 49.780 813.343 L 50.607 814.074 L 51.452 814.785 L 52.315 815.476 L 53.194 816.144 L 54.089 816.791 L 54.999 817.416 L 55.925 818.018 L 56.865 818.598 L 57.820 819.154 L 58.787 819.686 L 59.767 820.195 L 60.760 820.680 L 61.764 821.139 L 62.779 821.575 L 63.805 821.985 L 64.840 822.369 L 65.884 822.729 L 66.937 823.062 L 67.998 823.370 L 69.066 823.651 L 70.140 823.907 L 71.221 824.135 L 72.307 824.337 L 73.397 824.513 L 74.492 824.662 L 75.589 824.783 L 76.690 824.878 L 77.792 824.946 L 78.896 824.986 L 80.000 825.000 L 81.104 824.986 L 82.208 824.946 L 83.310 824.878 L 84.411 824.783 L 85.508 824.662 L 86.603 824.513 L 87.693 824.337 L 88.779 824.135 L 89.860 823.907 L 90.934 823.651 L 92.002 823.370 L 93.063 823.062 L 94.116 822.729 L 95.160 822.369 L 96.195 821.985 L 97.221 821.575 L 98.236 821.139 L 99.240 820.680 L 100.233 820.195 L 101.213 819.686 L 102.180 819.154 L 103.135 818.598 L 104.075 818.018 L 105.001 817.416 L 105.911 816.791 L 106.806 816.144 L 107.685 815.476 L 108.548 814.785 L 109.393 814.074 L 110.220 813.343 L 111.029 812.591 L 111.820 811.820 L 112.591 811.029 L 113.343 810.220 L 114.074 809.393 L 114.785 808.548 L 115.476 807.685 L 116.144 806.806 L 116.791 805.911 L 117.416 805.001 L 118.018 804.075 L 118.598 803.135 L 119.154 802.180 L 119.686 801.213 L 120.195 800.233 L 120.680 799.240 L 121.139 798.236 L 121.575 797.221 L 121.985 796.195 L 122.369 795.160 L 122.729 794.116 L 123.062 793.063 L 123.370 792.002 L 123.651 790.934 L 123.907 789.860 L 124.135 788.779 L 124.337 787.693 L 124.513 786.603 L 124.662 785.508 L 124.783 784.411 L 124.878 783.310 L 124.946 782.208 L 124.986 781.104 L 125.000 780.000 L 125.000 405.000 L 255.000 405.000 L 255.000 780.000 L 255.014 781.104 L 255.054 782.208 L 255.122 783.310 L 255.217 784.411 L 255.338 785.508 L 255.487 786.603 L 255.663 787.693 L 255.865 788.779 L 256.093 789.860 L 256.349 790.934 L 256.630 792.002 L 256.938 793.063 L 257.271 794.116 L 257.631 795.160 L 258.015 796.195 L 258.425 797.221 L 258.861 798.236 L 259.320 799.240 L 259.805 800.233 L 260.314 801.213 L 260.846 802.180 L 261.402 803.135 L 261.982 804.075 L 262.584 805.001 L 263.209 805.911 L 263.856 806.806 L 264.524 807.685 L 265.215 808.548 L 265.926 809.393 L 266.657 810.220 L 267.409 811.029 L 268.180 811.820 L 268.971 812.591 L 269.780 813.343 L 270.607 814.074 L 271.452 814.785 L 272.315 815.476 L 273.194 816.144 L 274.089 816.791 L 274.999 817.416 L 275.925 818.018 L 276.865 818.598 L 277.820 819.154 L 278.787 819.686 L 279.767 820.195 L 280.760 820.680 L 281.764 821.139 L 282.779 821.575 L 283.805 821.985 L 284.840 822.369 L 285.884 822.729 L 286.937 823.062 L 287.998 823.370 L 289.066 823.651 L 290.140 823.907 L 291.221 824.135 L 292.307 824.337 L 293.397 824.513 L 294.492 824.662 L 295.589 824.783 L 296.690 824.878 L 297.792 824.946 L 298.896 824.986 L 300.000 825.000 L 301.104 824.986 L 302.208 824.946 L 303.310 824.878 L 304.411 824.783 L 305.508 824.662 L 306.603 824.513 L 307.693 824.337 L 308.779 824.135 L 309.860 823.907 L 310.934 823.651 L 312.002 823.370 L 313.063 823.062 L 314.116 822.729 L 315.160 822.369 L 316.195 821.985 L 317.221 821.575 L 318.236 821.139 L 319.240 820.680 L 320.233 820.195 L 321.213 819.686 L 322.180 819.154 L 323.135 818.598 L 324.075 818.018 L 325.001 817.416 L 325.911 816.791 L 326.806 816.144 L 327.685 815.476 L 328.548 814.785 L 329.393 814.074 L 330.220 813.343 L 331.029 812.591 L 331.820 811.820 L 332.591 811.029 L 333.343 810.220 L 334.074 809.393 L 334.785 808.548 L 335.476 807.685 L 336.144 806.806 L 336.791 805.911 L 337.416 805.001 L 338.018 804.075 L 338.598 803.135 L 339.154 802.180 L 339.686 801.213 L 340.195 800.233 L 340.680 799.240 L 341.139 798.236 L 341.575 797.221 L 341.985 796.195 L 342.369 795.160 L 342.729 794.116 L 343.062 793.063 L 343.370 792.002 L 343.651 790.934 L 343.907 789.860 L 344.135 788.779 L 344.337 787.693 L 344.513 786.603 L 344.662 785.508 L 344.783 784.411 L 344.878 783.310 L 344.946 782.208 L 344.986 781.104 L 345.000 780.000 L 345.000 405.000 L 475.000 405.000 L 475.000 780.000 L 475.014 781.104 L 475.054 782.208 L 475.122 783.310 L 475.217 784.411 L 475.338 785.508 L 475.487 786.603 L 475.663 787.693 L 475.865 788.779 L 476.093 789.860 L 476.349 790.934 L 476.630 792.002 L 476.938 793.063 L 477.271 794.116 L 477.631 795.160 L 478.015 796.195 L 478.425 797.221 L 478.861 798.236 L 479.320 799.240 L 479.805 800.233 L 480.314 801.213 L 480.846 802.180 L 481.402 803.135 L 481.982 804.075 L 482.584 805.001 L 483.209 805.911 L 483.856 806.806 L 484.524 807.685 L 485.215 808.548 L 485.926 809.393 L 486.657 810.220 L 487.409 811.029 L 488.180 811.820 L 488.971 812.591 L 489.780 813.343 L 490.607 814.074 L 491.452 814.785 L 492.315 815.476 L 493.194 816.144 L 494.089 816.791 L 494.999 817.416 L 495.925 818.018 L 496.865 818.598 L 497.820 819.154 L 498.787 819.686 L 499.767 820.195 L 500.760 820.680 L 501.764 821.139 L 502.779 821.575 L 503.805 821.985 L 504.840 822.369 L 505.884 822.729 L 506.937 823.062 L 507.998 823.370 L 509.066 823.651 L 510.140 823.907 L 511.221 824.135 L 512.307 824.337 L 513.397 824.513 L 514.492 824.662 L 515.589 824.783 L 516.690 824.878 L 517.792 824.946 L 518.896 824.986 L 520.000 825.000 L 521.104 824.986 L 522.208 824.946 L 523.310 824.878 L 524.411 824.783 L 525.508 824.662 L 526.603 824.513 L 527.693 824.337 L 528.779 824.135 L 529.860 823.907 L 530.934 823.651 L 532.002 823.370 L 533.063 823.062 L 534.116 822.729 L 535.160 822.369 L 536.195 821.985 L 537.221 821.575 L 538.236 821.139 L 539.240 820.680 L 540.233 820.195 L 541.213 819.686 L 542.180 819.154 L 543.135 818.598 L 544.075 818.018 L 545.001 817.416 L 545.911 816.791 L 546.806 816.144 L 547.685 815.476 L 548.548 814.785 L 549.393 814.074 L 550.220 813.343 L 551.029 812.591 L 551.820 811.820 L 552.591 811.029 L 553.343 810.220 L 554.074 809.393 L 554.785 808.548 L 555.476 807.685 L 556.144 806.806 L 556.791 805.911 L 557.416 805.001 L 558.018 804.075 L 558.598 803.135 L 559.154 802.180 L 559.686 801.213 L 560.195 800.233 L 560.680 799.240 L 561.139 798.236 L 561.575 797.221 L 561.985 796.195 L 562.369 795.160 L 562.729 794.116 L 563.062 793.063 L 563.370 792.002 L 563.651 790.934 L 563.907 789.860 L 564.135 788.779 L 564.337 787.693 L 564.513 786.603 L 564.662 785.508 L 564.783 784.411 L 564.878 783.310 L 564.946 782.208 L 564.986 781.104 L 565.000 780.000 L 565.000 360.000 L 564.986 358.896 L 564.946 357.792 L 564.878 356.690 L 564.783 355.589 L 564.662 354.492 L 564.513 353.397 L 564.337 352.307 L 564.135 351.221 L 563.907 350.140 L 563.651 349.066 L 563.370 347.998 L 563.062 346.937 L 562.729 345.884 L 562.369 344.840 L 561.985 343.805 L 561.575 342.779 L 561.139 341.764 L 560.680 340.760 L 560.195 339.767 L 559.686 338.787 L 559.154 337.820 L 558.598 336.865 L 558.018 335.925 L 557.416 334.999 L 556.791 334.089 L 556.144 333.194 L 555.476 332.315 L 554.785 331.452 L 554.074 330.607 L 553.343 329.780 L 552.591 328.971 L 551.820 328.180 L 551.029 327.409 L 550.220 326.657 L 549.393 325.926 L 548.548 325.215 L 547.685 324.524 L 546.806 323.856 L 545.911 323.209 L 545.001 322.584 L 544.075 321.982 L 543.135 321.402 L 542.180 320.846 L 541.213 320.314 L 540.233 319.805 L 539.240 319.320 L 538.236 318.861 L 537.221 318.425 L 536.195 318.015 L 535.160 317.631 L 534.116 317.271 L 533.063 316.938 L 532.002 316.630 L 530.934 316.349 L 529.860 316.093 L 528.779 315.865 L 527.693 315.663 L 526.603 315.487 L 525.508 315.338 L 524.411 315.217 L 523.310 315.122 L 522.208 315.054 L 521.104 315.014 L 520.000 315.000 L 300.000 315.000 L 80.000 315.000 L 78.896 315.014 L 77.792 315.054 L 76.690 315.122 L 75.589 315.217 L 74.492 315.338 L 73.397 315.487 L 72.307 315.663 L 72.256 315.672 L 71.221 315.865 L 70.198 316.081 L 70.140 316.093 L 69.066 316.349 L 67.998 316.630 L 66.937 316.938 L 65.884 317.271 L 64.840 317.631 L 63.805 318.015 L 62.779 318.425 L 61.764 318.861 L 60.760 319.320 L 59.842 319.769 L 59.767 319.805 L 58.787 320.314 L 57.820 320.846 L 56.865 321.402 L 55.925 321.982 L 54.999 322.584 L 54.544 322.896 L 54.089 323.209 L 53.194 323.856 L 52.315 324.524 L 51.766 324.963 L 51.452 325.215 L 50.607 325.926 L 49.780 326.657 L 48.971 327.409 L 48.874 327.503 L 48.180 328.180 L 47.508 328.869 L 47.409 328.971 L 46.657 329.780 L 46.291 330.194 L 45.926 330.607 L 45.215 331.452 L 44.524 332.315 L 43.856 333.194 L 43.209 334.089 L 42.584 334.999 L 42.097 335.747 L 41.982 335.925 L 41.402 336.865 L 40.846 337.820 L 40.314 338.787 L 39.805 339.767 L 39.320 340.760 L 38.861 341.764 L 38.425 342.779 L 38.015 343.805 L 37.820 344.329 L 37.631 344.840 L 37.271 345.884 L 37.032 346.639 L 36.938 346.937 L 36.630 347.998 L 36.349 349.066 L 36.093 350.140 L 35.865 351.221 L 35.663 352.307 L 35.487 353.397 L 35.338 354.492 L 35.217 355.589 L 35.122 356.690 L 35.054 357.792 L 35.014 358.896 L 35.000 360.000 L 35.000 780.000 L 35.014 781.104 L 35.054 782.208 Z" fill="black" fill-rule="evenodd"/>
</svg>
