<svg xmlns="http://www.w3.org/2000/svg" width="600.000" height="1000" viewBox="0 0 600.000 1000">
  <path d="M 475.446 559.583 L 475.404 555.022 L 475.388 554.187 L 475.261 549.628 L 475.230 548.794 L 475.019 544.241 L 474.972 543.405 L 474.677 538.861 L 474.615 538.025 L 474.235 533.491 L 474.157 532.655 L 473.693 528.135 L 473.599 527.298 L 473.051 522.794 L 472.941 521.956 L 472.310 517.472 L 472.184 516.633 L 471.470 512.170 L 471.328 511.330 L 470.531 506.892 L 470.372 506.050 L 469.494 501.640 L 469.317 500.797 L 468.357 496.416 L 468.164 495.572 L 467.123 491.223 L 466.912 490.378 L 465.790 486.065 L 465.561 485.218 L 464.360 480.942 L 464.113 480.094 L 462.833 475.858 L 462.567 475.008 L 461.209 470.816 L 460.924 469.964 L 459.488 465.817 L 459.183 464.965 L 457.671 460.865 L 457.347 460.011 L 455.759 455.962 L 455.414 455.107 L 453.751 451.111 L 453.385 450.254 L 451.649 446.313 L 451.261 445.456 L 449.452 441.572 L 449.042 440.714 L 447.162 436.890 L 446.728 436.032 L 444.778 432.270 L 444.321 431.411 L 442.302 427.714 L 441.820 426.856 L 439.733 423.226 L 439.227 422.367 L 437.073 418.806 L 436.541 417.949 L 434.322 414.458 L 433.764 413.603 L 431.481 410.185 L 430.896 409.332 L 428.550 405.990 L 427.938 405.139 L 425.530 401.874 L 424.890 401.026 L 422.423 397.841 L 421.753 396.997 L 419.228 393.893 L 418.528 393.054 L 415.946 390.033 L 415.217 389.200 L 412.579 386.263 L 411.819 385.438 L 409.128 382.587 L 408.336 381.770 L 405.593 379.008 L 404.769 378.200 L 401.976 375.527 L 401.119 374.730 L 398.277 372.149 L 397.388 371.363 L 394.499 368.876 L 393.577 368.103 L 390.642 365.710 L 389.687 364.953 L 386.709 362.656 L 385.720 361.914 L 382.700 359.715 L 381.677 358.992 L 378.618 356.891 L 377.562 356.188 L 374.464 354.187 L 373.374 353.505 L 370.241 351.606 L 369.118 350.948 L 365.950 349.150 L 364.796 348.518 L 361.595 346.824 L 360.409 346.218 L 357.178 344.629 L 355.960 344.053 L 352.701 342.569 L 351.454 342.024 L 348.168 340.646 L 346.892 340.134 L 343.582 338.864 L 342.279 338.387 L 338.946 337.224 L 337.617 336.784 L 334.264 335.730 L 332.912 335.328 L 329.539 334.383 L 328.165 334.022 L 324.776 333.187 L 323.383 332.867 L 319.979 332.142 L 318.568 331.865 L 315.152 331.251 L 313.726 331.019 L 310.300 330.516 L 308.861 330.328 L 305.427 329.937 L 303.978 329.796 L 300.538 329.516 L 299.082 329.421 L 295.637 329.253 L 294.177 329.206 L 290.731 329.150 L 289.269 329.150 L 285.823 329.206 L 284.363 329.253 L 280.918 329.421 L 279.462 329.516 L 276.022 329.796 L 274.573 329.937 L 271.139 330.328 L 269.700 330.516 L 266.274 331.019 L 264.848 331.251 L 261.432 331.865 L 260.021 332.142 L 256.617 332.867 L 255.224 333.187 L 251.835 334.022 L 250.461 334.383 L 247.088 335.328 L 245.736 335.730 L 242.383 336.784 L 241.054 337.224 L 237.721 338.387 L 236.418 338.864 L 233.108 340.134 L 231.832 340.646 L 228.546 342.024 L 227.299 342.569 L 224.040 344.053 L 222.822 344.629 L 219.591 346.218 L 218.405 346.824 L 215.204 348.518 L 214.050 349.150 L 210.882 350.948 L 209.759 351.606 L 206.626 353.505 L 205.536 354.187 L 202.438 356.188 L 201.382 356.891 L 198.323 358.992 L 197.300 359.715 L 194.280 361.914 L 193.291 362.656 L 190.313 364.953 L 189.358 365.710 L 186.423 368.103 L 185.501 368.876 L 182.612 371.363 L 181.723 372.149 L 178.881 374.730 L 178.024 375.527 L 175.231 378.200 L 174.407 379.008 L 171.664 381.770 L 170.872 382.587 L 168.181 385.438 L 167.421 386.263 L 164.783 389.200 L 164.054 390.033 L 161.472 393.054 L 160.772 393.893 L 158.247 396.997 L 157.577 397.841 L 155.110 401.026 L 154.470 401.874 L 152.062 405.139 L 151.450 405.990 L 149.104 409.332 L 148.519 410.185 L 146.236 413.603 L 145.678 414.458 L 143.459 417.949 L 142.927 418.806 L 140.773 422.367 L 140.267 423.226 L 138.180 426.856 L 137.698 427.714 L 135.679 431.411 L 135.222 432.270 L 133.272 436.032 L 132.838 436.890 L 130.958 440.714 L 130.548 441.572 L 128.739 445.456 L 128.351 446.313 L 126.615 450.254 L 126.249 451.111 L 124.586 455.107 L 124.241 455.962 L 122.653 460.011 L 122.329 460.865 L 120.817 464.965 L 120.512 465.817 L 119.076 469.964 L 118.791 470.816 L 117.433 475.008 L 117.167 475.858 L 115.887 480.094 L 115.640 480.942 L 114.439 485.218 L 114.210 486.065 L 113.088 490.378 L 112.877 491.223 L 111.836 495.572 L 111.643 496.416 L 110.683 500.797 L 110.506 501.640 L 109.628 506.050 L 109.469 506.892 L 108.672 511.330 L 108.530 512.170 L 107.816 516.633 L 107.690 517.472 L 107.059 521.956 L 106.949 522.794 L 106.401 527.298 L 106.307 528.135 L 105.843 532.655 L 105.765 533.491 L 105.385 538.025 L 105.323 538.861 L 105.028 543.405 L 104.981 544.241 L 104.770 548.794 L 104.739 549.628 L 104.612 554.187 L 104.596 555.022 L 104.554 559.583 L 104.554 560.417 L 104.596 564.978 L 104.612 565.813 L 104.739 570.372 L 104.770 571.206 L 104.981 575.759 L 105.028 576.595 L 105.323 581.139 L 105.385 581.975 L 105.765 586.509 L 105.843 587.345 L 106.307 591.865 L 106.401 592.702 L 106.949 597.206 L 107.059 598.044 L 107.690 602.528 L 107.816 603.367 L 108.530 607.830 L 108.672 608.670 L 109.469 613.108 L 109.628 613.950 L 110.506 618.360 L 110.683 619.203 L 111.643 623.584 L 111.836 624.428 L 112.877 628.777 L 113.088 629.622 L 114.210 633.935 L 114.439 634.782 L 115.640 639.058 L 115.887 639.906 L 117.167 644.142 L 117.433 644.992 L 118.791 649.184 L 119.076 650.036 L 120.512 654.183 L 120.817 655.035 L 122.329 659.135 L 122.653 659.989 L 124.241 664.038 L 124.586 664.893 L 126.249 668.889 L 126.615 669.746 L 128.351 673.687 L 128.739 674.544 L 130.548 678.428 L 130.958 679.286 L 132.838 683.110 L 133.272 683.968 L 135.222 687.730 L 135.679 688.589 L 137.698 692.286 L 138.180 693.144 L 140.267 696.774 L 140.773 697.633 L 142.927 701.194 L 143.459 702.051 L 145.678 705.542 L 146.236 706.397 L 148.519 709.815 L 149.104 710.668 L 151.450 714.010 L 152.062 714.861 L 154.470 718.126 L 155.110 718.974 L 157.577 722.159 L 158.247 723.003 L 160.772 726.107 L 161.472 726.946 L 164.054 729.967 L 164.783 730.800 L 167.421 733.737 L 168.181 734.562 L 170.872 737.413 L 171.664 738.230 L 174.407 740.992 L 175.231 741.800 L 178.024 744.473 L 178.881 745.270 L 181.723 747.851 L 182.612 748.637 L 185.501 751.124 L 186.423 751.897 L 189.358 754.290 L 190.313 755.047 L 193.291 757.344 L 194.280 758.086 L 197.300 760.285 L 198.323 761.008 L 201.382 763.109 L 202.438 763.812 L 205.536 765.813 L 206.626 766.495 L 209.759 768.394 L 210.882 769.052 L 214.050 770.850 L 215.204 771.482 L 218.405 773.176 L 219.591 773.782 L 222.822 775.371 L 224.040 775.947 L 227.299 777.431 L 228.546 777.976 L 231.832 779.354 L 233.108 779.866 L 236.418 781.136 L 237.721 781.613 L 241.054 782.776 L 242.383 783.216 L 245.736 784.270 L 247.088 784.672 L 250.461 785.617 L 251.835 785.978 L 255.224 786.813 L 256.617 787.133 L 260.021 787.858 L 261.432 788.135 L 264.848 788.749 L 266.274 788.981 L 269.700 789.484 L 271.139 789.672 L 274.573 790.063 L 276.022 790.204 L 279.462 790.484 L 280.918 790.579 L 284.363 790.747 L 285.823 790.794 L 289.269 790.850 L 290.731 790.850 L 294.177 790.794 L 295.637 790.747 L 299.082 790.579 L 300.538 790.484 L 303.978 790.204 L 305.427 790.063 L 308.861 789.672 L 310.300 789.484 L 313.726 788.981 L 315.152 788.749 L 318.568 788.135 L 319.979 787.858 L 323.383 787.133 L 324.776 786.813 L 328.165 785.978 L 329.539 785.617 L 332.912 784.672 L 334.264 784.270 L 337.617 783.216 L 338.946 782.776 L 342.279 781.613 L 343.582 781.136 L 346.892 779.866 L 348.168 779.354 L 351.454 777.976 L 352.701 777.431 L 355.960 775.947 L 357.178 775.371 L 360.409 773.782 L 361.595 773.176 L 364.796 771.482 L 365.785 770.940 L 365.785 899.803 L 365.773 901.228 L 365.740 902.457 L 365.687 903.684 L 365.611 904.910 L 365.514 906.135 L 365.396 907.358 L 365.256 908.578 L 365.095 909.796 L 364.912 911.011 L 364.708 912.222 L 364.483 913.430 L 364.237 914.634 L 363.969 915.833 L 363.681 917.027 L 363.372 918.216 L 363.042 919.399 L 362.691 920.576 L 362.320 921.747 L 361.928 922.912 L 361.515 924.069 L 361.083 925.219 L 360.630 926.361 L 360.158 927.495 L 359.665 928.620 L 359.153 929.737 L 358.621 930.845 L 358.070 931.943 L 357.500 933.031 L 356.911 934.109 L 356.303 935.176 L 355.676 936.233 L 355.031 937.278 L 354.368 938.312 L 353.686 939.335 L 352.987 940.345 L 352.270 941.342 L 351.536 942.327 L 350.785 943.299 L 350.016 944.258 L 349.231 945.203 L 348.430 946.134 L 347.612 947.051 L 346.778 947.953 L 345.929 948.840 L 345.064 949.713 L 344.184 950.570 L 343.289 951.412 L 342.379 952.237 L 341.455 953.047 L 340.517 953.841 L 339.566 954.617 L 338.600 955.377 L 337.622 956.120 L 336.630 956.846 L 335.627 957.554 L 334.610 958.244 L 333.582 958.916 L 332.542 959.571 L 331.491 960.207 L 330.429 960.824 L 329.356 961.423 L 328.273 962.002 L 327.180 962.563 L 326.077 963.104 L 324.965 963.626 L 323.844 964.128 L 322.714 964.611 L 321.576 965.074 L 320.430 965.516 L 319.277 965.939 L 318.116 966.341 L 316.948 966.723 L 315.774 967.084 L 314.593 967.424 L 313.407 967.744 L 312.216 968.043 L 311.019 968.321 L 309.818 968.577 L 308.612 968.813 L 307.402 969.028 L 306.189 969.221 L 304.973 969.393 L 303.753 969.543 L 302.532 969.672 L 301.308 969.780 L 300.082 969.866 L 298.856 969.931 L 297.628 969.974 L 296.400 969.996 L 295.171 969.996 L 293.943 969.974 L 292.715 969.931 L 291.488 969.866 L 290.263 969.780 L 289.039 969.672 L 287.817 969.543 L 286.598 969.393 L 285.382 969.221 L 284.168 969.028 L 282.959 968.813 L 281.753 968.577 L 280.552 968.321 L 279.355 968.043 L 278.163 967.744 L 276.977 967.424 L 275.797 967.084 L 274.623 966.723 L 273.455 966.341 L 272.294 965.939 L 271.140 965.516 L 269.994 965.074 L 268.856 964.611 L 267.727 964.128 L 266.605 963.626 L 265.493 963.104 L 264.390 962.563 L 263.297 962.002 L 262.214 961.423 L 261.141 960.824 L 260.079 960.207 L 259.028 959.571 L 257.988 958.916 L 256.960 958.244 L 255.944 957.554 L 254.940 956.846 L 253.949 956.120 L 252.970 955.377 L 252.005 954.617 L 251.053 953.841 L 250.115 953.047 L 249.191 952.237 L 248.282 951.412 L 247.387 950.570 L 246.507 949.713 L 245.642 948.840 L 244.792 947.953 L 243.959 947.051 L 243.141 946.134 L 242.339 945.203 L 241.554 944.258 L 240.786 943.299 L 240.035 942.327 L 239.300 941.342 L 238.583 940.345 L 237.884 939.335 L 237.203 938.312 L 236.539 937.278 L 235.894 936.233 L 235.268 935.176 L 234.660 934.109 L 234.070 933.031 L 233.500 931.943 L 232.949 930.845 L 232.418 929.737 L 231.905 928.620 L 231.413 927.495 L 230.940 926.361 L 230.488 925.219 L 230.055 924.069 L 229.643 922.912 L 229.251 921.747 L 228.880 920.576 L 228.529 919.399 L 228.199 918.216 L 227.889 917.027 L 227.601 915.833 L 227.334 914.634 L 227.087 913.430 L 226.862 912.222 L 226.658 911.011 L 226.476 909.796 L 226.315 908.578 L 226.175 907.358 L 226.056 906.135 L 225.959 904.910 L 225.884 903.684 L 225.830 902.457 L 225.798 901.228 L 225.784 899.605 L 225.760 898.501 L 225.710 897.398 L 225.633 896.296 L 225.528 895.196 L 225.397 894.100 L 225.239 893.007 L 225.054 891.918 L 224.842 890.834 L 224.604 889.756 L 224.339 888.683 L 224.048 887.618 L 223.731 886.560 L 223.389 885.510 L 223.020 884.469 L 222.626 883.437 L 222.207 882.415 L 221.763 881.404 L 221.294 880.404 L 220.801 879.416 L 220.284 878.440 L 219.743 877.477 L 219.179 876.528 L 218.591 875.592 L 217.981 874.672 L 217.348 873.767 L 216.693 872.877 L 216.017 872.004 L 215.319 871.148 L 214.600 870.309 L 213.862 869.488 L 213.103 868.686 L 212.325 867.902 L 211.527 867.138 L 210.712 866.393 L 209.878 865.669 L 209.027 864.965 L 208.158 864.283 L 207.274 863.622 L 206.373 862.983 L 205.457 862.366 L 204.526 861.772 L 203.580 861.201 L 202.621 860.653 L 201.649 860.129 L 200.664 859.629 L 199.668 859.153 L 198.659 858.702 L 197.641 858.276 L 196.612 857.875 L 195.573 857.499 L 194.525 857.149 L 193.470 856.825 L 192.406 856.526 L 191.336 856.254 L 190.259 856.009 L 189.177 855.789 L 188.089 855.597 L 186.997 855.431 L 185.902 855.292 L 184.803 855.180 L 183.702 855.095 L 182.599 855.037 L 181.495 855.006 L 180.390 855.002 L 179.286 855.025 L 178.183 855.075 L 177.081 855.153 L 175.982 855.257 L 174.885 855.388 L 173.792 855.547 L 172.703 855.732 L 171.619 855.943 L 170.541 856.182 L 169.469 856.446 L 168.403 856.737 L 167.345 857.054 L 166.295 857.397 L 165.254 857.765 L 164.222 858.159 L 163.200 858.578 L 162.189 859.022 L 161.189 859.491 L 160.201 859.984 L 159.225 860.501 L 158.262 861.042 L 157.313 861.607 L 156.378 862.194 L 155.457 862.805 L 154.552 863.437 L 153.663 864.092 L 152.790 864.769 L 151.933 865.466 L 151.095 866.185 L 150.274 866.924 L 149.471 867.682 L 148.687 868.461 L 147.923 869.258 L 147.179 870.074 L 146.454 870.907 L 145.751 871.759 L 145.068 872.627 L 144.407 873.512 L 143.768 874.412 L 143.151 875.329 L 142.557 876.260 L 141.986 877.205 L 141.438 878.164 L 140.914 879.136 L 140.414 880.121 L 139.938 881.118 L 139.487 882.126 L 139.061 883.145 L 138.660 884.174 L 138.284 885.212 L 137.934 886.260 L 137.610 887.316 L 137.312 888.379 L 137.040 889.449 L 136.794 890.526 L 136.575 891.609 L 136.382 892.696 L 136.216 893.788 L 136.077 894.884 L 135.965 895.982 L 135.880 897.084 L 135.822 898.186 L 135.791 899.290 L 135.787 900.395 L 135.805 902.413 L 135.819 903.203 L 135.872 905.220 L 135.899 906.010 L 135.988 908.026 L 136.030 908.815 L 136.153 910.829 L 136.209 911.617 L 136.368 913.629 L 136.437 914.416 L 136.632 916.425 L 136.715 917.210 L 136.945 919.215 L 137.041 919.999 L 137.306 922.000 L 137.417 922.782 L 137.717 924.778 L 137.841 925.558 L 138.176 927.548 L 138.314 928.326 L 138.684 930.310 L 138.835 931.085 L 139.240 933.062 L 139.405 933.835 L 139.844 935.805 L 140.023 936.574 L 140.497 938.536 L 140.689 939.302 L 141.197 941.255 L 141.402 942.018 L 141.945 943.962 L 142.164 944.721 L 142.740 946.655 L 142.972 947.410 L 143.582 949.334 L 143.828 950.085 L 144.471 951.997 L 144.730 952.744 L 145.407 954.645 L 145.679 955.387 L 146.389 957.276 L 146.674 958.012 L 147.418 959.889 L 147.715 960.620 L 148.492 962.483 L 148.802 963.210 L 149.611 965.059 L 149.934 965.779 L 150.775 967.614 L 151.111 968.329 L 151.984 970.148 L 152.332 970.857 L 153.237 972.661 L 153.598 973.364 L 154.534 975.152 L 154.907 975.848 L 155.875 977.619 L 156.260 978.309 L 157.259 980.063 L 157.656 980.746 L 158.685 982.481 L 159.094 983.157 L 160.154 984.875 L 160.575 985.543 L 161.664 987.242 L 162.097 987.903 L 163.216 989.582 L 163.660 990.236 L 164.809 991.895 L 165.264 992.541 L 166.442 994.180 L 166.908 994.817 L 168.114 996.435 L 168.592 997.064 L 169.826 998.661 L 170.315 999.282 L 171.577 1000.856 L 172.077 1001.468 L 173.367 1003.021 L 173.877 1003.624 L 175.193 1005.153 L 175.714 1005.747 L 177.057 1007.253 L 177.588 1007.838 L 178.958 1009.321 L 179.499 1009.896 L 180.895 1011.354 L 181.446 1011.920 L 182.866 1013.353 L 183.427 1013.909 L 184.873 1015.317 L 185.444 1015.864 L 186.914 1017.246 L 187.494 1017.782 L 188.989 1019.139 L 189.578 1019.664 L 191.096 1020.995 L 191.694 1021.510 L 193.235 1022.813 L 193.843 1023.318 L 195.407 1024.594 L 196.023 1025.088 L 197.609 1026.337 L 198.233 1026.820 L 199.841 1028.040 L 200.474 1028.512 L 202.103 1029.704 L 202.744 1030.165 L 204.394 1031.328 L 205.043 1031.778 L 206.712 1032.912 L 207.370 1033.350 L 209.059 1034.455 L 209.723 1034.881 L 211.432 1035.956 L 212.104 1036.371 L 213.831 1037.416 L 214.510 1037.819 L 216.255 1038.833 L 216.941 1039.224 L 218.704 1040.207 L 219.397 1040.586 L 221.176 1041.538 L 221.876 1041.905 L 223.672 1042.826 L 224.378 1043.180 L 226.189 1044.069 L 226.901 1044.411 L 228.729 1045.269 L 229.446 1045.598 L 231.288 1046.423 L 232.012 1046.740 L 233.868 1047.533 L 234.597 1047.836 L 236.467 1048.596 L 237.201 1048.887 L 239.084 1049.615 L 239.823 1049.893 L 241.718 1050.587 L 242.462 1050.852 L 244.369 1051.512 L 245.118 1051.764 L 247.036 1052.391 L 247.789 1052.630 L 249.718 1053.223 L 250.475 1053.449 L 252.414 1054.008 L 253.175 1054.221 L 255.124 1054.746 L 255.888 1054.945 L 257.846 1055.436 L 258.614 1055.621 L 260.580 1056.077 L 261.350 1056.249 L 263.324 1056.671 L 264.098 1056.830 L 266.079 1057.217 L 266.855 1057.362 L 268.842 1057.714 L 269.621 1057.845 L 271.614 1058.162 L 272.395 1058.280 L 274.394 1058.562 L 275.177 1058.666 L 277.180 1058.913 L 277.965 1059.003 L 279.972 1059.215 L 280.758 1059.291 L 282.768 1059.468 L 283.556 1059.531 L 285.569 1059.672 L 286.357 1059.721 L 288.373 1059.827 L 289.162 1059.862 L 291.179 1059.932 L 291.968 1059.953 L 293.986 1059.989 L 294.776 1059.996 L 296.794 1059.996 L 297.584 1059.989 L 299.602 1059.953 L 300.392 1059.932 L 302.409 1059.862 L 303.198 1059.827 L 305.213 1059.721 L 306.002 1059.672 L 308.015 1059.531 L 308.802 1059.468 L 310.813 1059.291 L 311.599 1059.215 L 313.606 1059.003 L 314.391 1058.913 L 316.394 1058.666 L 317.177 1058.562 L 319.175 1058.280 L 319.956 1058.162 L 321.949 1057.845 L 322.728 1057.714 L 324.715 1057.362 L 325.492 1057.217 L 327.473 1056.830 L 328.246 1056.671 L 330.220 1056.249 L 330.991 1056.077 L 332.957 1055.621 L 333.725 1055.436 L 335.682 1054.945 L 336.447 1054.746 L 338.396 1054.221 L 339.156 1054.008 L 341.096 1053.449 L 341.852 1053.223 L 343.782 1052.630 L 344.534 1052.391 L 346.453 1051.764 L 347.201 1051.512 L 349.108 1050.852 L 349.852 1050.587 L 351.748 1049.893 L 352.487 1049.615 L 354.370 1048.887 L 355.104 1048.596 L 356.974 1047.836 L 357.703 1047.533 L 359.559 1046.740 L 360.282 1046.423 L 362.124 1045.598 L 362.842 1045.269 L 364.669 1044.411 L 365.381 1044.069 L 367.193 1043.180 L 367.899 1042.826 L 369.695 1041.905 L 370.394 1041.538 L 372.174 1040.586 L 372.867 1040.207 L 374.629 1039.224 L 375.316 1038.833 L 377.061 1037.819 L 377.740 1037.416 L 379.467 1036.371 L 380.139 1035.956 L 381.847 1034.881 L 382.512 1034.455 L 384.201 1033.350 L 384.858 1032.912 L 386.528 1031.778 L 387.177 1031.328 L 388.826 1030.165 L 389.468 1029.704 L 391.096 1028.512 L 391.730 1028.040 L 393.337 1026.820 L 393.962 1026.337 L 395.548 1025.088 L 396.164 1024.594 L 397.728 1023.318 L 398.335 1022.813 L 399.876 1021.510 L 400.475 1020.995 L 401.993 1019.664 L 402.582 1019.139 L 404.076 1017.782 L 404.656 1017.246 L 406.127 1015.864 L 406.697 1015.317 L 408.143 1013.909 L 408.704 1013.353 L 410.125 1011.920 L 410.676 1011.354 L 412.072 1009.896 L 412.613 1009.321 L 413.982 1007.838 L 414.513 1007.253 L 415.857 1005.747 L 416.377 1005.153 L 417.694 1003.624 L 418.204 1003.021 L 419.494 1001.468 L 419.993 1000.856 L 421.256 999.282 L 421.744 998.661 L 422.979 997.064 L 423.456 996.435 L 424.662 994.817 L 425.129 994.180 L 426.307 992.541 L 426.762 991.895 L 427.911 990.236 L 428.354 989.582 L 429.474 987.903 L 429.906 987.242 L 430.996 985.543 L 431.417 984.875 L 432.476 983.157 L 432.885 982.481 L 433.915 980.746 L 434.312 980.063 L 435.311 978.309 L 435.695 977.619 L 436.663 975.848 L 437.036 975.152 L 437.973 973.364 L 438.333 972.661 L 439.238 970.857 L 439.587 970.148 L 440.460 968.329 L 440.795 967.614 L 441.637 965.779 L 441.960 965.059 L 442.769 963.210 L 443.079 962.483 L 443.855 960.620 L 444.153 959.889 L 444.897 958.012 L 445.181 957.276 L 445.892 955.387 L 446.163 954.645 L 446.841 952.744 L 447.099 951.997 L 447.743 950.085 L 447.988 949.334 L 448.599 947.410 L 448.831 946.655 L 449.407 944.721 L 449.626 943.962 L 450.168 942.018 L 450.374 941.255 L 450.882 939.302 L 451.074 938.536 L 451.548 936.574 L 451.726 935.805 L 452.166 933.835 L 452.331 933.062 L 452.735 931.085 L 452.887 930.310 L 453.257 928.326 L 453.395 927.548 L 453.730 925.558 L 453.854 924.778 L 454.154 922.782 L 454.264 922.000 L 454.529 919.999 L 454.626 919.215 L 454.856 917.210 L 454.939 916.425 L 455.133 914.416 L 455.202 913.629 L 455.362 911.617 L 455.417 910.829 L 455.541 908.815 L 455.583 908.026 L 455.671 906.010 L 455.699 905.220 L 455.752 903.203 L 455.766 902.413 L 455.784 900.395 L 455.783 900.197 L 455.785 900.000 L 455.785 663.971 L 457.347 659.989 L 457.671 659.135 L 459.183 655.035 L 459.488 654.183 L 460.924 650.036 L 461.209 649.184 L 462.567 644.992 L 462.833 644.142 L 464.113 639.906 L 464.360 639.058 L 465.561 634.782 L 465.790 633.935 L 466.912 629.622 L 467.123 628.777 L 468.164 624.428 L 468.357 623.584 L 469.317 619.203 L 469.494 618.360 L 470.372 613.950 L 470.531 613.108 L 471.328 608.670 L 471.470 607.830 L 472.184 603.367 L 472.310 602.528 L 472.941 598.044 L 473.051 597.206 L 473.599 592.702 L 473.693 591.865 L 474.157 587.345 L 474.235 586.509 L 474.615 581.975 L 474.677 581.139 L 474.972 576.595 L 475.019 575.759 L 475.230 571.206 L 475.261 570.372 L 475.388 565.813 L 475.404 564.978 L 475.446 560.417 L 475.446 559.583 Z M 365.102 645.873 L 363.552 648.711 L 361.959 651.483 L 360.324 654.186 L 358.649 656.820 L 356.937 659.382 L 355.189 661.871 L 353.408 664.286 L 351.596 666.626 L 349.755 668.890 L 347.887 671.075 L 345.994 673.183 L 344.079 675.211 L 342.143 677.160 L 340.190 679.029 L 338.220 680.818 L 336.236 682.526 L 334.240 684.153 L 332.234 685.700 L 330.220 687.167 L 328.199 688.554 L 326.174 689.862 L 324.146 691.091 L 322.117 692.243 L 320.087 693.317 L 318.058 694.315 L 316.030 695.238 L 314.006 696.087 L 311.984 696.862 L 309.967 697.566 L 307.954 698.199 L 305.945 698.761 L 303.940 699.255 L 301.940 699.681 L 299.943 700.040 L 297.950 700.333 L 295.960 700.559 L 293.972 700.721 L 291.986 700.818 L 290.000 700.850 L 288.014 700.818 L 286.028 700.721 L 284.040 700.559 L 282.050 700.333 L 280.057 700.040 L 278.060 699.681 L 276.060 699.255 L 274.055 698.761 L 272.046 698.199 L 270.033 697.566 L 268.016 696.862 L 265.994 696.087 L 263.970 695.238 L 261.942 694.315 L 259.913 693.317 L 257.883 692.243 L 255.854 691.091 L 253.826 689.862 L 251.801 688.554 L 249.780 687.167 L 247.766 685.700 L 245.760 684.153 L 243.764 682.526 L 241.780 680.818 L 239.810 679.029 L 237.857 677.160 L 235.921 675.211 L 234.006 673.183 L 232.113 671.075 L 230.245 668.890 L 228.404 666.626 L 226.592 664.286 L 224.811 661.871 L 223.063 659.382 L 221.351 656.820 L 219.676 654.186 L 218.041 651.483 L 216.448 648.711 L 214.898 645.873 L 213.393 642.971 L 211.936 640.006 L 210.527 636.980 L 209.169 633.897 L 207.863 630.756 L 206.610 627.562 L 205.413 624.317 L 204.273 621.022 L 203.190 617.680 L 202.167 614.294 L 201.204 610.866 L 200.303 607.399 L 199.464 603.895 L 198.689 600.358 L 197.978 596.789 L 197.332 593.192 L 196.753 589.569 L 196.240 585.923 L 195.794 582.257 L 195.416 578.574 L 195.106 574.877 L 194.865 571.168 L 194.692 567.450 L 194.588 563.726 L 194.554 560.000 L 194.588 556.274 L 194.692 552.550 L 194.865 548.832 L 195.106 545.123 L 195.416 541.426 L 195.794 537.743 L 196.240 534.077 L 196.753 530.431 L 197.332 526.808 L 197.978 523.211 L 198.689 519.642 L 199.464 516.105 L 200.303 512.601 L 201.204 509.134 L 202.167 505.706 L 203.190 502.320 L 204.273 498.978 L 205.413 495.683 L 206.610 492.438 L 207.863 489.244 L 209.169 486.103 L 210.527 483.020 L 211.936 479.994 L 213.393 477.029 L 214.898 474.127 L 216.448 471.289 L 218.041 468.517 L 219.676 465.814 L 221.351 463.180 L 223.063 460.618 L 224.811 458.129 L 226.592 455.714 L 228.404 453.374 L 230.245 451.110 L 232.113 448.925 L 234.006 446.817 L 235.921 444.789 L 237.857 442.840 L 239.810 440.971 L 241.780 439.182 L 243.764 437.474 L 245.760 435.847 L 247.766 434.300 L 249.780 432.833 L 251.801 431.446 L 253.826 430.138 L 255.854 428.909 L 257.883 427.757 L 259.913 426.683 L 261.942 425.685 L 263.970 424.762 L 265.994 423.913 L 268.016 423.138 L 270.033 422.434 L 272.046 421.801 L 274.055 421.239 L 276.060 420.745 L 278.060 420.319 L 280.057 419.960 L 282.050 419.667 L 284.040 419.441 L 286.028 419.279 L 288.014 419.182 L 290.000 419.150 L 291.986 419.182 L 293.972 419.279 L 295.960 419.441 L 297.950 419.667 L 299.943 419.960 L 301.940 420.319 L 303.940 420.745 L 305.945 421.239 L 307.954 421.801 L 309.967 422.434 L 311.984 423.138 L 314.006 423.913 L 316.030 424.762 L 318.058 425.685 L 320.087 426.683 L 322.117 427.757 L 324.146 428.909 L 326.174 430.138 L 328.199 431.446 L 330.220 432.833 L 332.234 434.300 L 334.240 435.847 L 336.236 437.474 L 338.220 439.182 L 340.190 440.971 L 342.143 442.840 L 344.079 444.789 L 345.994 446.817 L 347.887 448.925 L 349.755 451.110 L 351.596 453.374 L 353.408 455.714 L 355.189 458.129 L 356.937 460.618 L 358.649 463.180 L 360.324 465.814 L 361.959 468.517 L 363.552 471.289 L 365.102 474.127 L 366.607 477.029 L 368.064 479.994 L 369.473 483.020 L 370.831 486.103 L 372.137 489.244 L 373.390 492.438 L 374.587 495.683 L 375.727 498.978 L 376.810 502.320 L 377.833 505.706 L 378.796 509.134 L 379.697 512.601 L 380.536 516.105 L 381.311 519.642 L 382.022 523.211 L 382.668 526.808 L 383.247 530.431 L 383.760 534.077 L 384.206 537.743 L 384.584 541.426 L 384.630 541.971 L 383.979 542.441 L 383.100 543.110 L 382.238 543.800 L 381.393 544.511 L 380.565 545.243 L 379.756 545.994 L 378.965 546.766 L 378.194 547.556 L 377.442 548.365 L 376.711 549.193 L 376.000 550.038 L 375.310 550.900 L 374.641 551.779 L 373.994 552.674 L 373.369 553.585 L 372.767 554.511 L 372.187 555.451 L 371.631 556.405 L 371.099 557.373 L 370.590 558.353 L 370.106 559.346 L 369.646 560.350 L 369.211 561.365 L 368.801 562.390 L 368.416 563.426 L 368.057 564.470 L 367.723 565.523 L 367.415 566.584 L 367.134 567.651 L 366.879 568.726 L 366.650 569.807 L 366.448 570.892 L 366.272 571.983 L 366.124 573.077 L 366.002 574.175 L 365.907 575.275 L 365.839 576.378 L 365.799 577.481 L 365.785 578.586 L 365.785 644.555 L 365.102 645.873 Z" fill="black" fill-rule="evenodd"/>
</svg>
