<svg xmlns="http://www.w3.org/2000/svg" viewBox="0 0 600.000 1000">
  <path d="M 305.354 140.941 L 306.221 140.778 L 307.091 140.631 L 307.964 140.499 L 308.839 140.383 L 309.715 140.282 L 310.594 140.196 L 311.473 140.126 L 312.354 140.072 L 313.235 140.033 L 314.118 140.010 L 315.397 139.998 L 316.501 139.975 L 317.605 139.925 L 318.706 139.847 L 319.806 139.743 L 320.902 139.611 L 321.995 139.453 L 323.084 139.268 L 324.168 139.056 L 325.247 138.818 L 326.319 138.553 L 327.384 138.262 L 328.442 137.945 L 329.492 137.603 L 330.533 137.234 L 331.565 136.840 L 332.587 136.421 L 333.598 135.977 L 334.598 135.508 L 335.586 135.015 L 336.562 134.498 L 337.525 133.957 L 338.474 133.392 L 339.409 132.804 L 340.330 132.194 L 341.235 131.561 L 342.124 130.906 L 342.997 130.230 L 343.854 129.532 L 344.692 128.814 L 345.513 128.075 L 346.316 127.316 L 347.099 126.538 L 347.864 125.741 L 348.608 124.925 L 349.332 124.091 L 350.036 123.240 L 350.719 122.371 L 351.379 121.486 L 352.019 120.586 L 352.635 119.670 L 353.229 118.738 L 353.800 117.793 L 354.348 116.834 L 354.872 115.862 L 355.372 114.877 L 355.848 113.880 L 356.299 112.872 L 356.725 111.853 L 357.126 110.824 L 357.502 109.786 L 357.852 108.738 L 358.176 107.682 L 358.474 106.619 L 358.746 105.548 L 358.992 104.472 L 359.211 103.389 L 359.404 102.302 L 359.569 101.210 L 359.708 100.114 L 359.820 99.015 L 359.906 97.914 L 359.964 96.811 L 359.994 95.707 L 359.998 94.603 L 359.975 93.499 L 359.925 92.395 L 359.847 91.294 L 359.743 90.194 L 359.611 89.098 L 359.453 88.005 L 359.268 86.916 L 359.056 85.832 L 358.818 84.753 L 358.553 83.681 L 358.262 82.616 L 357.945 81.558 L 357.603 80.508 L 357.234 79.467 L 356.840 78.435 L 356.421 77.413 L 355.977 76.402 L 355.508 75.402 L 355.015 74.414 L 354.498 73.438 L 353.957 72.475 L 353.392 71.526 L 352.804 70.591 L 352.194 69.670 L 351.561 68.765 L 350.906 67.876 L 350.230 67.003 L 349.532 66.146 L 348.814 65.308 L 348.075 64.487 L 347.316 63.684 L 346.538 62.901 L 345.741 62.136 L 344.925 61.392 L 344.091 60.668 L 343.240 59.964 L 342.371 59.281 L 341.486 58.621 L 340.586 57.981 L 339.670 57.365 L 338.738 56.771 L 337.793 56.200 L 336.834 55.652 L 335.862 55.128 L 334.877 54.628 L 333.880 54.152 L 332.872 53.701 L 331.853 53.275 L 330.824 52.874 L 329.786 52.498 L 328.738 52.148 L 327.682 51.824 L 326.619 51.526 L 325.548 51.254 L 324.472 51.008 L 323.389 50.789 L 322.302 50.596 L 321.210 50.431 L 320.114 50.292 L 319.015 50.180 L 317.914 50.094 L 316.811 50.036 L 315.707 50.006 L 314.603 50.002 L 312.926 50.017 L 312.132 50.031 L 310.456 50.075 L 309.662 50.103 L 307.987 50.177 L 307.194 50.219 L 305.521 50.322 L 305.000 50.359 L 305.000 40.000 L 304.986 38.896 L 304.946 37.792 L 304.878 36.690 L 304.783 35.589 L 304.662 34.492 L 304.513 33.397 L 304.337 32.307 L 304.135 31.221 L 303.907 30.140 L 303.651 29.066 L 303.370 27.998 L 303.062 26.937 L 302.729 25.884 L 302.369 24.840 L 301.985 23.805 L 301.575 22.779 L 301.139 21.764 L 300.680 20.760 L 300.195 19.767 L 299.686 18.787 L 299.154 17.820 L 298.598 16.865 L 298.018 15.925 L 297.416 14.999 L 296.791 14.089 L 296.144 13.194 L 295.476 12.315 L 294.785 11.452 L 294.074 10.607 L 293.343 9.780 L 292.591 8.971 L 291.820 8.180 L 291.029 7.409 L 290.220 6.657 L 289.393 5.926 L 288.548 5.215 L 287.685 4.524 L 286.806 3.856 L 285.911 3.209 L 285.001 2.584 L 284.075 1.982 L 283.135 1.402 L 282.180 0.846 L 281.213 0.314 L 280.233 -0.195 L 279.240 -0.680 L 278.236 -1.139 L 277.221 -1.575 L 276.195 -1.985 L 275.160 -2.369 L 274.116 -2.729 L 273.063 -3.062 L 272.002 -3.370 L 270.934 -3.651 L 269.860 -3.907 L 268.779 -4.135 L 267.693 -4.337 L 266.603 -4.513 L 265.508 -4.662 L 264.411 -4.783 L 263.310 -4.878 L 262.208 -4.946 L 261.104 -4.986 L 260.000 -5.000 L 258.896 -4.986 L 257.792 -4.946 L 256.690 -4.878 L 255.589 -4.783 L 254.492 -4.662 L 253.397 -4.513 L 252.307 -4.337 L 251.221 -4.135 L 250.140 -3.907 L 249.066 -3.651 L 247.998 -3.370 L 246.937 -3.062 L 245.884 -2.729 L 244.840 -2.369 L 243.805 -1.985 L 242.779 -1.575 L 241.764 -1.139 L 240.760 -0.680 L 239.767 -0.195 L 238.787 0.314 L 237.820 0.846 L 236.865 1.402 L 235.925 1.982 L 234.999 2.584 L 234.089 3.209 L 233.194 3.856 L 232.315 4.524 L 231.452 5.215 L 230.607 5.926 L 229.780 6.657 L 228.971 7.409 L 228.180 8.180 L 227.409 8.971 L 226.657 9.780 L 225.926 10.607 L 225.215 11.452 L 224.524 12.315 L 223.856 13.194 L 223.209 14.089 L 222.584 14.999 L 221.982 15.925 L 221.402 16.865 L 220.846 17.820 L 220.314 18.787 L 219.805 19.767 L 219.320 20.760 L 218.861 21.764 L 218.425 22.779 L 218.015 23.805 L 217.631 24.840 L 217.271 25.884 L 216.938 26.937 L 216.630 27.998 L 216.349 29.066 L 216.093 30.140 L 215.865 31.221 L 215.663 32.307 L 215.487 33.397 L 215.338 34.492 L 215.217 35.589 L 215.122 36.690 L 215.054 37.792 L 215.014 38.896 L 215.000 40.000 L 215.000 92.023 L 214.858 92.167 L 213.694 93.373 L 213.147 93.950 L 212.004 95.176 L 211.468 95.762 L 210.347 97.009 L 209.821 97.604 L 208.722 98.870 L 208.207 99.475 L 207.130 100.760 L 206.626 101.373 L 205.572 102.678 L 205.078 103.300 L 204.048 104.623 L 203.565 105.253 L 202.558 106.594 L 202.087 107.233 L 201.104 108.591 L 200.644 109.239 L 199.685 110.614 L 199.236 111.270 L 198.302 112.662 L 197.865 113.325 L 196.955 114.733 L 196.530 115.404 L 195.645 116.828 L 195.232 117.507 L 194.372 118.946 L 193.971 119.632 L 193.137 121.086 L 192.748 121.778 L 191.940 123.247 L 191.563 123.947 L 190.781 125.430 L 190.417 126.135 L 189.661 127.632 L 189.309 128.344 L 188.580 129.854 L 188.241 130.572 L 187.538 132.094 L 187.211 132.818 L 186.536 134.353 L 186.222 135.082 L 185.574 136.629 L 185.273 137.364 L 184.652 138.921 L 184.364 139.661 L 183.771 141.230 L 183.496 141.975 L 182.930 143.553 L 182.669 144.303 L 182.131 145.891 L 181.883 146.646 L 181.374 148.243 L 181.139 149.002 L 180.657 150.608 L 180.436 151.371 L 179.983 152.985 L 179.775 153.751 L 179.351 155.373 L 179.157 156.144 L 178.761 157.773 L 178.580 158.546 L 178.213 160.182 L 178.046 160.959 L 177.708 162.601 L 177.555 163.380 L 177.246 165.028 L 177.107 165.810 L 176.827 167.463 L 176.701 168.248 L 176.451 169.905 L 176.339 170.692 L 176.118 172.354 L 176.020 173.142 L 175.828 174.808 L 175.744 175.597 L 175.582 177.266 L 175.512 178.057 L 175.378 179.729 L 175.322 180.521 L 175.219 182.194 L 175.177 182.987 L 175.103 184.662 L 175.075 185.456 L 175.031 187.132 L 175.017 187.926 L 175.002 189.603 L 175.006 190.707 L 175.036 191.811 L 175.094 192.914 L 175.180 194.015 L 175.292 195.114 L 175.431 196.210 L 175.596 197.302 L 175.789 198.389 L 176.008 199.472 L 176.254 200.548 L 176.526 201.619 L 176.824 202.682 L 177.148 203.738 L 177.498 204.786 L 177.874 205.824 L 178.275 206.853 L 178.701 207.872 L 179.152 208.880 L 179.628 209.877 L 180.128 210.862 L 180.652 211.834 L 181.200 212.793 L 181.771 213.738 L 182.365 214.670 L 182.981 215.586 L 183.621 216.486 L 184.281 217.371 L 184.964 218.240 L 185.668 219.091 L 186.392 219.925 L 187.136 220.741 L 187.901 221.538 L 188.684 222.316 L 189.487 223.075 L 190.308 223.814 L 191.146 224.532 L 192.003 225.230 L 192.876 225.906 L 193.765 226.561 L 194.670 227.194 L 195.591 227.804 L 196.526 228.392 L 197.475 228.957 L 198.438 229.498 L 199.414 230.015 L 200.402 230.508 L 201.402 230.977 L 202.413 231.421 L 203.435 231.840 L 204.467 232.234 L 205.508 232.603 L 206.558 232.945 L 207.616 233.262 L 208.681 233.553 L 209.753 233.818 L 210.832 234.056 L 211.916 234.268 L 213.005 234.453 L 214.098 234.611 L 215.000 234.719 L 215.000 321.720 L 214.524 322.315 L 213.856 323.194 L 213.209 324.089 L 212.584 324.999 L 211.982 325.925 L 211.402 326.865 L 210.846 327.820 L 210.314 328.787 L 209.805 329.767 L 209.320 330.760 L 208.861 331.764 L 208.425 332.779 L 208.015 333.805 L 207.631 334.840 L 207.271 335.884 L 206.938 336.937 L 206.630 337.998 L 206.349 339.066 L 206.093 340.140 L 205.865 341.221 L 205.663 342.307 L 205.487 343.397 L 205.338 344.492 L 205.217 345.589 L 205.122 346.690 L 205.054 347.792 L 205.014 348.896 L 205.000 350.000 L 205.014 351.104 L 205.054 352.208 L 205.122 353.310 L 205.217 354.411 L 205.338 355.508 L 205.487 356.603 L 205.663 357.693 L 205.865 358.779 L 206.093 359.860 L 206.349 360.934 L 206.630 362.002 L 206.938 363.063 L 207.271 364.116 L 207.631 365.160 L 208.015 366.195 L 208.425 367.221 L 208.861 368.236 L 209.320 369.240 L 209.805 370.233 L 210.314 371.213 L 210.846 372.180 L 211.402 373.135 L 211.982 374.075 L 212.584 375.001 L 213.209 375.911 L 213.856 376.806 L 214.524 377.685 L 215.000 378.280 L 215.000 780.000 L 215.014 781.104 L 215.054 782.208 L 215.122 783.310 L 215.217 784.411 L 215.338 785.508 L 215.487 786.603 L 215.663 787.693 L 215.865 788.779 L 216.093 789.860 L 216.349 790.934 L 216.630 792.002 L 216.938 793.063 L 217.271 794.116 L 217.631 795.160 L 218.015 796.195 L 218.425 797.221 L 218.861 798.236 L 219.320 799.240 L 219.805 800.233 L 220.314 801.213 L 220.846 802.180 L 221.402 803.135 L 221.982 804.075 L 222.584 805.001 L 223.209 805.911 L 223.856 806.806 L 224.524 807.685 L 225.215 808.548 L 225.926 809.393 L 226.657 810.220 L 227.409 811.029 L 228.180 811.820 L 228.971 812.591 L 229.780 813.343 L 230.607 814.074 L 231.452 814.785 L 232.315 815.476 L 233.194 816.144 L 234.089 816.791 L 234.999 817.416 L 235.925 818.018 L 236.865 818.598 L 237.820 819.154 L 238.787 819.686 L 239.767 820.195 L 240.760 820.680 L 241.764 821.139 L 242.779 821.575 L 243.805 821.985 L 244.840 822.369 L 245.884 822.729 L 246.937 823.062 L 247.998 823.370 L 249.066 823.651 L 250.140 823.907 L 251.221 824.135 L 252.307 824.337 L 253.397 824.513 L 254.492 824.662 L 255.589 824.783 L 256.690 824.878 L 257.792 824.946 L 258.896 824.986 L 260.000 825.000 L 261.104 824.986 L 262.208 824.946 L 263.310 824.878 L 264.411 824.783 L 265.508 824.662 L 266.603 824.513 L 267.693 824.337 L 268.779 824.135 L 269.860 823.907 L 270.934 823.651 L 272.002 823.370 L 273.063 823.062 L 274.116 822.729 L 275.160 822.369 L 276.195 821.985 L 277.221 821.575 L 278.236 821.139 L 279.240 820.680 L 280.233 820.195 L 281.213 819.686 L 282.180 819.154 L 283.135 818.598 L 284.075 818.018 L 285.001 817.416 L 285.911 816.791 L 286.806 816.144 L 287.685 815.476 L 288.548 814.785 L 289.393 814.074 L 290.220 813.343 L 291.029 812.591 L 291.820 811.820 L 292.591 811.029 L 293.343 810.220 L 294.074 809.393 L 294.785 808.548 L 295.476 807.685 L 296.144 806.806 L 296.791 805.911 L 297.416 805.001 L 298.018 804.075 L 298.598 803.135 L 299.154 802.180 L 299.686 801.213 L 300.195 800.233 L 300.680 799.240 L 301.139 798.236 L 301.575 797.221 L 301.985 796.195 L 302.369 795.160 L 302.729 794.116 L 303.062 793.063 L 303.370 792.002 L 303.651 790.934 L 303.907 789.860 L 304.135 788.779 L 304.337 787.693 L 304.513 786.603 L 304.662 785.508 L 304.783 784.411 L 304.878 783.310 L 304.946 782.208 L 304.986 781.104 L 305.000 780.000 L 305.000 395.000 L 495.000 395.000 L 496.104 394.986 L 497.208 394.946 L 498.310 394.878 L 499.411 394.783 L 500.508 394.662 L 501.603 394.513 L 502.693 394.337 L 503.779 394.135 L 504.860 393.907 L 505.934 393.651 L 507.002 393.370 L 508.063 393.062 L 509.116 392.729 L 510.160 392.369 L 511.195 391.985 L 512.221 391.575 L 513.236 391.139 L 514.240 390.680 L 515.233 390.195 L 516.213 389.686 L 517.180 389.154 L 518.135 388.598 L 519.075 388.018 L 520.001 387.416 L 520.911 386.791 L 521.806 386.144 L 522.685 385.476 L 523.548 384.785 L 524.393 384.074 L 525.220 383.343 L 526.029 382.591 L 526.820 381.820 L 527.591 381.029 L 528.343 380.220 L 529.074 379.393 L 529.785 378.548 L 530.476 377.685 L 531.144 376.806 L 531.791 375.911 L 532.416 375.001 L 533.018 374.075 L 533.598 373.135 L 534.154 372.180 L 534.686 371.213 L 535.195 370.233 L 535.680 369.240 L 536.139 368.236 L 536.575 367.221 L 536.985 366.195 L 537.369 365.160 L 537.729 364.116 L 538.062 363.063 L 538.370 362.002 L 538.651 360.934 L 538.907 359.860 L 539.135 358.779 L 539.337 357.693 L 539.513 356.603 L 539.662 355.508 L 539.783 354.411 L 539.878 353.310 L 539.946 352.208 L 539.986 351.104 L 540.000 350.000 L 539.986 348.896 L 539.946 347.792 L 539.878 346.690 L 539.783 345.589 L 539.662 344.492 L 539.513 343.397 L 539.337 342.307 L 539.135 341.221 L 538.907 340.140 L 538.651 339.066 L 538.370 337.998 L 538.062 336.937 L 537.729 335.884 L 537.369 334.840 L 536.985 333.805 L 536.575 332.779 L 536.139 331.764 L 535.680 330.760 L 535.195 329.767 L 534.686 328.787 L 534.154 327.820 L 533.598 326.865 L 533.018 325.925 L 532.416 324.999 L 531.791 324.089 L 531.144 323.194 L 530.476 322.315 L 529.785 321.452 L 529.074 320.607 L 528.343 319.780 L 527.591 318.971 L 526.820 318.180 L 526.029 317.409 L 525.220 316.657 L 524.393 315.926 L 523.548 315.215 L 522.685 314.524 L 521.806 313.856 L 520.911 313.209 L 520.001 312.584 L 519.075 311.982 L 518.135 311.402 L 517.180 310.846 L 516.213 310.314 L 515.233 309.805 L 514.240 309.320 L 513.236 308.861 L 512.221 308.425 L 511.195 308.015 L 510.160 307.631 L 509.116 307.271 L 508.063 306.938 L 507.002 306.630 L 505.934 306.349 L 504.860 306.093 L 503.779 305.865 L 502.693 305.663 L 501.603 305.487 L 500.508 305.338 L 499.411 305.217 L 498.310 305.122 L 497.208 305.054 L 496.104 305.014 L 495.000 305.000 L 305.000 305.000 L 305.000 141.014 L 305.354 140.941 Z" fill="black" fill-rule="evenodd"/>
</svg>
