<svg xmlns="http://www.w3.org/2000/svg" viewBox="0 0 600.000 1000.000">
  <path d="M 385.951,492.923 L 378.247,486.779 L 370.105,481.228 L 361.571,476.301 L 352.693,472.026 L 343.520,468.426 L 334.104,465.521 L 324.497,463.329 L 314.753,461.860 L 304.927,461.124 L 295.073,461.124 L 285.247,461.860 L 275.503,463.329 L 265.896,465.521 L 256.480,468.426 L 247.307,472.026 L 238.429,476.301 L 229.895,481.228 L 221.753,486.779 L 214.049,492.923 L 206.826,499.626 L 200.123,506.849 L 193.979,514.553 L 188.428,522.695 L 183.501,531.229 L 179.226,540.107 L 175.626,549.280 L 172.721,558.696 L 170.529,568.303 L 169.060,578.047 L 168.324,587.873 L 168.324,597.727 L 169.060,607.553 L 170.529,617.297 L 172.721,626.904 L 175.626,636.320 L 179.226,645.493 L 183.501,654.371 L 188.428,662.905 L 193.979,671.047 L 200.123,678.751 L 206.826,685.974 L 214.049,692.677 L 221.753,698.821 L 229.895,704.372 L 238.429,709.299 L 247.307,713.574 L 256.480,717.174 L 265.896,720.079 L 275.503,722.271 L 285.247,723.740 L 295.073,724.476 L 304.927,724.476 L 314.753,723.740 L 324.497,722.271 L 334.104,720.079 L 343.520,717.174 L 352.693,713.574 L 361.571,709.299 L 370.105,704.372 L 378.247,698.821 L 385.951,692.677 L 394.409,684.829 L 396.064,683.367 L 397.789,681.988 L 399.580,680.695 L 401.432,679.492 L 403.341,678.381 L 405.302,677.365 L 407.311,676.446 L 409.362,675.627 L 411.451,674.910 L 413.573,674.296 L 415.722,673.787 L 417.894,673.384 L 420.083,673.088 L 422.283,672.900 L 424.491,672.820 L 426.699,672.848 L 428.904,672.985 L 431.099,673.229 L 433.279,673.582 L 435.440,674.040 L 437.575,674.604 L 439.680,675.273 L 441.750,676.043 L 443.780,676.915 L 445.764,677.885 L 447.698,678.951 L 449.578,680.111 L 451.399,681.361 L 453.156,682.700 L 454.845,684.123 L 456.462,685.627 L 458.004,687.209 L 459.466,688.864 L 460.845,690.589 L 462.138,692.380 L 463.341,694.232 L 464.452,696.141 L 465.468,698.102 L 466.387,700.111 L 467.206,702.162 L 467.923,704.251 L 468.537,706.373 L 469.046,708.522 L 469.449,710.694 L 469.745,712.883 L 469.933,715.083 L 470.013,717.291 L 469.985,719.499 L 469.848,721.704 L 469.604,723.899 L 469.251,726.079 L 468.793,728.240 L 468.229,730.375 L 467.560,732.480 L 466.789,734.550 L 465.918,736.580 L 464.948,738.564 L 463.882,740.498 L 462.722,742.378 L 461.472,744.199 L 460.133,745.956 L 458.710,747.645 L 457.206,749.262 L 455.624,750.804 L 445.932,759.797 L 444.677,760.918 L 443.381,761.992 L 433.044,770.235 L 431.709,771.260 L 430.337,772.234 L 419.413,779.682 L 418.005,780.603 L 416.563,781.472 L 405.113,788.083 L 403.640,788.897 L 402.138,789.655 L 390.226,795.392 L 388.696,796.094 L 387.141,796.738 L 374.834,801.568 L 373.256,802.153 L 371.657,802.679 L 359.023,806.576 L 357.406,807.042 L 355.773,807.447 L 342.883,810.390 L 341.235,810.733 L 339.576,811.015 L 326.502,812.986 L 324.834,813.205 L 323.158,813.362 L 309.974,814.351 L 308.293,814.445 L 306.611,814.476 L 293.389,814.476 L 291.707,814.445 L 290.026,814.351 L 276.842,813.362 L 275.166,813.205 L 273.498,812.986 L 260.424,811.015 L 258.765,810.733 L 257.117,810.390 L 244.227,807.447 L 242.594,807.042 L 240.977,806.576 L 228.343,802.679 L 226.744,802.153 L 225.166,801.568 L 212.859,796.738 L 211.304,796.094 L 209.774,795.392 L 197.862,789.655 L 196.360,788.897 L 194.887,788.083 L 183.437,781.472 L 181.995,780.603 L 180.587,779.682 L 169.663,772.234 L 168.291,771.260 L 166.956,770.235 L 156.619,761.992 L 155.323,760.918 L 154.068,759.797 L 144.376,750.804 L 143.164,749.636 L 141.996,748.424 L 133.003,738.732 L 131.882,737.477 L 130.808,736.181 L 122.565,725.844 L 121.540,724.509 L 120.566,723.137 L 113.118,712.213 L 112.197,710.805 L 111.328,709.363 L 104.717,697.913 L 103.903,696.440 L 103.145,694.938 L 97.408,683.026 L 96.706,681.496 L 96.062,679.941 L 91.232,667.634 L 90.647,666.056 L 90.121,664.457 L 86.224,651.823 L 85.758,650.206 L 85.353,648.573 L 82.410,635.683 L 82.067,634.035 L 81.785,632.376 L 79.814,619.302 L 79.595,617.634 L 79.438,615.958 L 78.449,602.774 L 78.355,601.093 L 78.324,599.411 L 78.324,586.189 L 78.355,584.507 L 78.449,582.826 L 79.438,569.642 L 79.595,567.966 L 79.814,566.298 L 81.785,553.224 L 82.067,551.565 L 82.410,549.917 L 85.353,537.027 L 85.758,535.394 L 86.224,533.777 L 90.121,521.143 L 90.647,519.544 L 91.232,517.966 L 96.062,505.659 L 96.706,504.104 L 97.408,502.574 L 103.145,490.662 L 103.903,489.160 L 104.717,487.687 L 111.328,476.237 L 112.197,474.795 L 113.118,473.387 L 120.566,462.463 L 121.540,461.091 L 122.565,459.756 L 130.808,449.419 L 131.882,448.123 L 133.003,446.868 L 141.996,437.176 L 143.164,435.964 L 144.376,434.796 L 154.068,425.803 L 155.323,424.682 L 156.619,423.608 L 166.956,415.365 L 168.291,414.340 L 169.663,413.366 L 180.587,405.918 L 181.995,404.997 L 183.437,404.128 L 194.887,397.517 L 196.360,396.703 L 197.862,395.945 L 209.774,390.208 L 211.304,389.506 L 212.859,388.862 L 225.166,384.032 L 226.744,383.447 L 228.343,382.921 L 240.977,379.024 L 242.594,378.558 L 244.227,378.153 L 257.117,375.210 L 258.765,374.867 L 260.424,374.585 L 273.498,372.614 L 275.166,372.395 L 276.842,372.238 L 290.026,371.249 L 291.707,371.155 L 293.389,371.124 L 306.611,371.124 L 308.293,371.155 L 309.974,371.249 L 323.158,372.238 L 324.834,372.395 L 326.502,372.614 L 339.576,374.585 L 341.235,374.867 L 342.883,375.210 L 355.773,378.153 L 357.406,378.558 L 359.023,379.024 L 371.657,382.921 L 373.256,383.447 L 374.834,384.032 L 387.141,388.862 L 388.696,389.506 L 390.226,390.208 L 402.138,395.945 L 403.640,396.703 L 405.113,397.517 L 416.563,404.128 L 418.005,404.997 L 419.413,405.918 L 430.337,413.366 L 431.709,414.340 L 433.044,415.365 L 443.381,423.608 L 444.677,424.682 L 445.932,425.803 L 455.624,434.796 L 457.206,436.338 L 458.710,437.955 L 460.133,439.644 L 461.472,441.401 L 462.722,443.222 L 463.882,445.102 L 464.948,447.036 L 465.918,449.020 L 466.789,451.050 L 467.560,453.120 L 468.229,455.225 L 468.793,457.360 L 469.251,459.521 L 469.604,461.701 L 469.848,463.896 L 469.985,466.101 L 470.013,468.309 L 469.933,470.517 L 469.745,472.717 L 469.449,474.906 L 469.046,477.078 L 468.537,479.227 L 467.923,481.349 L 467.206,483.438 L 466.387,485.489 L 465.468,487.498 L 464.452,489.459 L 463.341,491.368 L 462.138,493.220 L 460.845,495.011 L 459.466,496.736 L 458.004,498.391 L 456.462,499.973 L 454.845,501.477 L 453.156,502.900 L 451.399,504.239 L 449.578,505.489 L 447.698,506.649 L 445.764,507.715 L 443.780,508.685 L 441.750,509.557 L 439.680,510.327 L 437.575,510.996 L 435.440,511.560 L 433.279,512.018 L 431.099,512.371 L 428.904,512.615 L 426.699,512.752 L 424.491,512.780 L 422.283,512.700 L 420.083,512.512 L 417.894,512.216 L 415.722,511.813 L 413.573,511.304 L 411.451,510.690 L 409.362,509.973 L 407.311,509.154 L 405.302,508.235 L 403.341,507.219 L 401.432,506.108 L 399.580,504.905 L 397.789,503.612 L 396.064,502.233 L 394.409,500.771 L 385.951,492.923 Z" fill="black" fill-rule="evenodd"/>
</svg>
