<svg xmlns="http://www.w3.org/2000/svg" viewBox="0 0 600.000 1000">
  <path d="M 480.999 530.314 L 480.999 529.686 L 480.958 523.816 L 480.949 523.188 L 480.826 517.321 L 480.809 516.692 L 480.604 510.832 L 480.578 510.203 L 480.291 504.354 L 480.256 503.723 L 479.888 497.888 L 479.844 497.255 L 479.394 491.437 L 479.341 490.802 L 478.811 485.006 L 478.748 484.369 L 478.137 478.597 L 478.064 477.957 L 477.373 472.213 L 477.291 471.570 L 476.520 465.858 L 476.427 465.210 L 475.577 459.533 L 475.474 458.882 L 474.544 453.243 L 474.431 452.587 L 473.423 446.990 L 473.299 446.329 L 472.213 440.778 L 472.077 440.111 L 470.915 434.608 L 470.767 433.936 L 469.528 428.485 L 469.368 427.807 L 468.053 422.411 L 467.880 421.726 L 466.490 416.388 L 466.304 415.696 L 464.840 410.420 L 464.640 409.721 L 463.103 404.510 L 462.888 403.803 L 461.278 398.659 L 461.048 397.944 L 459.367 392.872 L 459.120 392.148 L 457.369 387.150 L 457.105 386.417 L 455.285 381.496 L 455.003 380.754 L 453.115 375.913 L 452.814 375.162 L 450.859 370.404 L 450.537 369.642 L 448.516 364.970 L 448.174 364.198 L 446.088 359.615 L 445.723 358.833 L 443.574 354.341 L 443.185 353.548 L 440.974 349.150 L 440.560 348.347 L 438.289 344.046 L 437.848 343.231 L 435.517 339.030 L 435.047 338.205 L 432.658 334.105 L 432.159 333.269 L 429.714 329.273 L 429.183 328.427 L 426.682 324.538 L 426.117 323.681 L 423.563 319.901 L 422.963 319.035 L 420.357 315.366 L 419.719 314.490 L 417.062 310.936 L 416.384 310.051 L 413.679 306.612 L 412.958 305.720 L 410.206 302.399 L 409.441 301.500 L 406.643 298.299 L 405.832 297.395 L 402.990 294.315 L 402.129 293.408 L 399.245 290.452 L 398.333 289.543 L 395.409 286.712 L 394.443 285.804 L 391.480 283.101 L 390.458 282.196 L 387.458 279.621 L 386.378 278.723 L 383.344 276.278 L 382.203 275.389 L 379.136 273.076 L 377.934 272.201 L 374.835 270.021 L 373.570 269.163 L 370.441 267.118 L 369.113 266.282 L 365.957 264.372 L 364.564 263.563 L 361.382 261.790 L 359.925 261.013 L 356.719 259.378 L 355.963 259.001 L 355.199 258.638 L 351.971 257.142 L 351.184 256.786 L 350.389 256.445 L 347.142 255.089 L 346.324 254.757 L 345.500 254.441 L 342.235 253.225 L 341.389 252.919 L 340.537 252.631 L 337.255 251.556 L 336.382 251.280 L 335.504 251.022 L 332.209 250.089 L 331.312 249.846 L 330.411 249.620 L 327.103 248.830 L 326.185 248.621 L 325.263 248.431 L 321.945 247.784 L 321.009 247.612 L 320.069 247.459 L 316.744 246.956 L 315.793 246.822 L 314.839 246.709 L 311.508 246.349 L 310.546 246.255 L 309.582 246.182 L 306.247 245.966 L 305.278 245.914 L 304.309 245.883 L 300.971 245.810 L 300.000 245.800 L 299.029 245.810 L 295.691 245.883 L 294.722 245.914 L 293.753 245.966 L 290.418 246.182 L 289.454 246.255 L 288.492 246.349 L 285.161 246.709 L 284.207 246.822 L 283.256 246.956 L 279.931 247.459 L 278.991 247.612 L 278.055 247.784 L 274.737 248.431 L 273.815 248.621 L 272.897 248.830 L 269.589 249.620 L 268.688 249.846 L 267.791 250.089 L 264.496 251.022 L 263.618 251.280 L 262.745 251.556 L 259.463 252.631 L 258.611 252.919 L 257.765 253.225 L 254.500 254.441 L 253.676 254.757 L 252.858 255.089 L 249.611 256.445 L 248.816 256.786 L 248.029 257.142 L 244.801 258.638 L 244.037 259.001 L 243.281 259.378 L 240.075 261.013 L 238.618 261.790 L 235.436 263.563 L 234.043 264.372 L 230.887 266.282 L 229.559 267.118 L 226.430 269.163 L 225.165 270.021 L 222.066 272.201 L 220.864 273.076 L 217.797 275.389 L 216.656 276.278 L 213.622 278.723 L 212.542 279.621 L 209.542 282.196 L 208.520 283.101 L 205.557 285.804 L 204.591 286.712 L 201.667 289.543 L 200.755 290.452 L 197.871 293.408 L 197.010 294.315 L 194.168 297.395 L 193.357 298.299 L 190.559 301.500 L 189.794 302.399 L 187.042 305.720 L 186.321 306.612 L 183.616 310.051 L 182.938 310.936 L 180.281 314.490 L 179.643 315.366 L 177.037 319.035 L 176.437 319.901 L 173.883 323.681 L 173.318 324.538 L 170.817 328.427 L 170.286 329.273 L 167.841 333.269 L 167.342 334.105 L 164.953 338.205 L 164.483 339.030 L 162.152 343.231 L 161.711 344.046 L 159.440 348.347 L 159.026 349.150 L 156.815 353.548 L 156.426 354.341 L 154.277 358.833 L 153.912 359.615 L 151.826 364.198 L 151.484 364.970 L 149.463 369.642 L 149.141 370.404 L 147.186 375.162 L 146.885 375.913 L 144.997 380.754 L 144.715 381.496 L 142.895 386.417 L 142.631 387.150 L 140.880 392.148 L 140.633 392.872 L 138.952 397.944 L 138.722 398.659 L 137.112 403.803 L 136.897 404.510 L 135.360 409.721 L 135.160 410.420 L 133.696 415.696 L 133.510 416.388 L 132.120 421.726 L 131.947 422.411 L 130.632 427.807 L 130.472 428.485 L 129.233 433.936 L 129.085 434.608 L 127.923 440.111 L 127.787 440.778 L 126.701 446.329 L 126.577 446.990 L 125.569 452.587 L 125.456 453.243 L 124.526 458.882 L 124.423 459.533 L 123.573 465.210 L 123.480 465.858 L 122.709 471.570 L 122.627 472.213 L 121.936 477.957 L 121.863 478.597 L 121.252 484.369 L 121.189 485.006 L 120.659 490.802 L 120.606 491.437 L 120.156 497.255 L 120.112 497.888 L 119.744 503.723 L 119.709 504.354 L 119.422 510.203 L 119.396 510.832 L 119.191 516.692 L 119.174 517.321 L 119.051 523.188 L 119.042 523.816 L 119.001 529.686 L 119.001 530.314 L 119.042 536.184 L 119.051 536.812 L 119.174 542.679 L 119.191 543.308 L 119.396 549.168 L 119.422 549.797 L 119.709 555.646 L 119.744 556.277 L 120.112 562.112 L 120.156 562.745 L 120.606 568.563 L 120.659 569.198 L 121.189 574.994 L 121.252 575.631 L 121.863 581.403 L 121.936 582.043 L 122.627 587.787 L 122.709 588.430 L 123.480 594.142 L 123.573 594.790 L 124.423 600.467 L 124.526 601.118 L 125.456 606.757 L 125.569 607.413 L 126.577 613.010 L 126.701 613.671 L 127.787 619.222 L 127.923 619.889 L 129.085 625.392 L 129.233 626.064 L 130.472 631.515 L 130.632 632.193 L 131.947 637.589 L 132.120 638.274 L 133.510 643.612 L 133.696 644.304 L 135.160 649.580 L 135.360 650.279 L 136.897 655.490 L 137.112 656.197 L 138.722 661.341 L 138.952 662.056 L 140.633 667.128 L 140.880 667.852 L 142.631 672.850 L 142.895 673.583 L 144.715 678.504 L 144.997 679.246 L 146.885 684.087 L 147.186 684.838 L 149.141 689.596 L 149.463 690.358 L 151.484 695.030 L 151.826 695.802 L 153.912 700.385 L 154.277 701.167 L 156.426 705.659 L 156.815 706.452 L 159.026 710.850 L 159.440 711.653 L 161.711 715.954 L 162.152 716.769 L 164.483 720.970 L 164.953 721.795 L 167.342 725.895 L 167.841 726.731 L 170.286 730.727 L 170.817 731.573 L 173.318 735.462 L 173.883 736.319 L 176.437 740.099 L 177.037 740.965 L 179.643 744.634 L 180.281 745.510 L 182.938 749.064 L 183.616 749.949 L 186.321 753.388 L 187.042 754.280 L 189.794 757.601 L 190.559 758.500 L 193.357 761.701 L 194.168 762.605 L 197.010 765.685 L 197.871 766.592 L 200.755 769.548 L 201.667 770.457 L 204.591 773.288 L 205.557 774.196 L 208.520 776.899 L 209.542 777.804 L 212.542 780.379 L 213.622 781.277 L 216.656 783.722 L 217.797 784.611 L 220.864 786.924 L 222.066 787.799 L 225.165 789.979 L 226.430 790.837 L 229.559 792.882 L 230.887 793.718 L 234.043 795.628 L 235.436 796.437 L 238.618 798.210 L 240.075 798.987 L 243.281 800.622 L 244.037 800.999 L 244.801 801.362 L 248.029 802.858 L 248.816 803.214 L 249.611 803.555 L 252.858 804.911 L 253.676 805.243 L 254.500 805.559 L 257.765 806.775 L 258.611 807.081 L 259.463 807.369 L 262.745 808.444 L 263.618 808.720 L 264.496 808.978 L 267.791 809.911 L 268.688 810.154 L 269.589 810.380 L 272.897 811.170 L 273.815 811.379 L 274.737 811.569 L 278.055 812.216 L 278.991 812.388 L 279.931 812.541 L 283.256 813.044 L 284.207 813.178 L 285.161 813.291 L 288.492 813.651 L 289.454 813.745 L 290.418 813.818 L 293.753 814.034 L 294.722 814.086 L 295.691 814.117 L 299.029 814.190 L 300.000 814.200 L 300.971 814.190 L 304.309 814.117 L 305.278 814.086 L 306.247 814.034 L 309.582 813.818 L 310.546 813.745 L 311.508 813.651 L 314.839 813.291 L 315.793 813.178 L 316.744 813.044 L 320.069 812.541 L 321.009 812.388 L 321.945 812.216 L 325.263 811.569 L 326.185 811.379 L 327.103 811.170 L 330.411 810.380 L 331.312 810.154 L 332.209 809.911 L 335.504 808.978 L 336.382 808.720 L 337.255 808.444 L 340.537 807.369 L 341.389 807.081 L 342.235 806.775 L 345.500 805.559 L 346.324 805.243 L 347.142 804.911 L 350.389 803.555 L 351.184 803.214 L 351.971 802.858 L 355.199 801.362 L 355.963 800.999 L 356.719 800.622 L 359.925 798.987 L 361.382 798.210 L 364.564 796.437 L 365.957 795.628 L 369.113 793.718 L 370.441 792.882 L 373.570 790.837 L 374.835 789.979 L 377.934 787.799 L 379.136 786.924 L 382.203 784.611 L 383.344 783.722 L 386.378 781.277 L 387.458 780.379 L 390.458 777.804 L 391.480 776.899 L 394.443 774.196 L 395.409 773.288 L 398.333 770.457 L 399.245 769.548 L 402.129 766.592 L 402.990 765.685 L 405.832 762.605 L 406.643 761.701 L 409.441 758.500 L 410.206 757.601 L 412.958 754.280 L 413.679 753.388 L 416.384 749.949 L 417.062 749.064 L 419.719 745.510 L 420.357 744.634 L 422.963 740.965 L 423.563 740.099 L 426.117 736.319 L 426.682 735.462 L 429.183 731.573 L 429.714 730.727 L 432.159 726.731 L 432.658 725.895 L 435.047 721.795 L 435.517 720.970 L 437.848 716.769 L 438.289 715.954 L 440.560 711.653 L 440.974 710.850 L 443.185 706.452 L 443.574 705.659 L 445.723 701.167 L 446.088 700.385 L 448.174 695.802 L 448.516 695.030 L 450.537 690.358 L 450.859 689.596 L 452.814 684.838 L 453.115 684.087 L 455.003 679.246 L 455.285 678.504 L 457.105 673.583 L 457.369 672.850 L 459.120 667.852 L 459.367 667.128 L 461.048 662.056 L 461.278 661.341 L 462.888 656.197 L 463.103 655.490 L 464.640 650.279 L 464.840 649.580 L 466.304 644.304 L 466.490 643.612 L 467.880 638.274 L 468.053 637.589 L 469.368 632.193 L 469.528 631.515 L 470.767 626.064 L 470.915 625.392 L 472.077 619.889 L 472.213 619.222 L 473.299 613.671 L 473.423 613.010 L 474.431 607.413 L 474.544 606.757 L 475.474 601.118 L 475.577 600.467 L 476.427 594.790 L 476.520 594.142 L 477.291 588.430 L 477.373 587.787 L 478.064 582.043 L 478.137 581.403 L 478.748 575.631 L 478.811 574.994 L 479.341 569.198 L 479.394 568.563 L 479.844 562.745 L 479.888 562.112 L 480.256 556.277 L 480.291 555.646 L 480.578 549.797 L 480.604 549.168 L 480.809 543.308 L 480.826 542.679 L 480.949 536.812 L 480.958 536.184 L 480.999 530.314 Z M 390.999 530.000 L 390.962 535.242 L 390.853 540.480 L 390.670 545.711 L 390.414 550.929 L 390.086 556.132 L 389.686 561.316 L 389.214 566.475 L 388.671 571.608 L 388.057 576.709 L 387.373 581.775 L 386.619 586.802 L 385.798 591.787 L 384.908 596.725 L 383.952 601.612 L 382.931 606.445 L 381.845 611.221 L 380.696 615.935 L 379.485 620.584 L 378.214 625.164 L 376.885 629.671 L 375.498 634.103 L 374.056 638.456 L 372.560 642.725 L 371.012 646.909 L 369.415 651.003 L 367.771 655.004 L 366.082 658.910 L 364.349 662.716 L 362.577 666.421 L 360.767 670.020 L 358.923 673.512 L 357.047 676.894 L 355.142 680.164 L 353.211 683.318 L 351.258 686.355 L 349.287 689.273 L 347.300 692.070 L 345.302 694.744 L 343.296 697.294 L 341.286 699.719 L 339.276 702.019 L 337.270 704.193 L 335.272 706.240 L 333.287 708.162 L 331.318 709.959 L 329.370 711.632 L 327.445 713.182 L 325.548 714.613 L 323.682 715.925 L 321.850 717.123 L 320.054 718.209 L 318.297 719.189 L 316.580 720.064 L 314.904 720.841 L 313.268 721.524 L 311.673 722.118 L 310.116 722.628 L 308.596 723.058 L 307.109 723.414 L 305.650 723.698 L 304.216 723.915 L 302.800 724.068 L 301.397 724.159 L 300.000 724.190 L 298.603 724.159 L 297.200 724.068 L 295.784 723.915 L 294.350 723.698 L 292.891 723.414 L 291.404 723.058 L 289.884 722.628 L 288.327 722.118 L 286.732 721.524 L 285.096 720.841 L 283.420 720.064 L 281.703 719.189 L 279.946 718.209 L 278.150 717.123 L 276.318 715.925 L 274.452 714.613 L 272.555 713.182 L 270.630 711.632 L 268.682 709.959 L 266.713 708.162 L 264.728 706.240 L 262.730 704.193 L 260.724 702.019 L 258.714 699.719 L 256.704 697.294 L 254.698 694.744 L 252.700 692.070 L 250.713 689.273 L 248.742 686.355 L 246.789 683.318 L 244.858 680.164 L 242.953 676.894 L 241.077 673.512 L 239.233 670.020 L 237.423 666.421 L 235.651 662.716 L 233.918 658.910 L 232.229 655.004 L 230.585 651.003 L 228.988 646.909 L 227.440 642.725 L 225.944 638.456 L 224.502 634.103 L 223.115 629.671 L 221.786 625.164 L 220.515 620.584 L 219.304 615.935 L 218.155 611.221 L 217.069 606.445 L 216.048 601.612 L 215.092 596.725 L 214.202 591.787 L 213.381 586.802 L 212.627 581.775 L 211.943 576.709 L 211.329 571.608 L 210.786 566.475 L 210.314 561.316 L 209.914 556.132 L 209.586 550.929 L 209.330 545.711 L 209.147 540.480 L 209.038 535.242 L 209.001 530.000 L 209.038 524.758 L 209.147 519.520 L 209.330 514.289 L 209.586 509.071 L 209.914 503.868 L 210.314 498.684 L 210.786 493.525 L 211.329 488.392 L 211.943 483.291 L 212.627 478.225 L 213.381 473.198 L 214.202 468.213 L 215.092 463.275 L 216.048 458.388 L 217.069 453.555 L 218.155 448.779 L 219.304 444.065 L 220.515 439.416 L 221.786 434.836 L 223.115 430.329 L 224.502 425.897 L 225.944 421.544 L 227.440 417.275 L 228.988 413.091 L 230.585 408.997 L 232.229 404.996 L 233.918 401.090 L 235.651 397.284 L 237.423 393.579 L 239.233 389.980 L 241.077 386.488 L 242.953 383.106 L 244.858 379.836 L 246.789 376.682 L 248.742 373.645 L 250.713 370.727 L 252.700 367.930 L 254.698 365.256 L 256.704 362.706 L 258.714 360.281 L 260.724 357.981 L 262.730 355.807 L 264.728 353.760 L 266.713 351.838 L 268.682 350.041 L 270.630 348.368 L 272.555 346.818 L 274.452 345.387 L 276.318 344.075 L 278.150 342.877 L 279.946 341.791 L 281.703 340.811 L 283.420 339.936 L 285.096 339.159 L 286.732 338.476 L 288.327 337.882 L 289.884 337.372 L 291.404 336.942 L 292.891 336.586 L 294.350 336.302 L 295.784 336.085 L 297.200 335.932 L 298.603 335.841 L 300.000 335.810 L 301.397 335.841 L 302.800 335.932 L 304.216 336.085 L 305.650 336.302 L 307.109 336.586 L 308.596 336.942 L 310.116 337.372 L 311.673 337.882 L 313.268 338.476 L 314.904 339.159 L 316.580 339.936 L 318.297 340.811 L 320.054 341.791 L 321.850 342.877 L 323.682 344.075 L 325.548 345.387 L 327.445 346.818 L 329.370 348.368 L 331.318 350.041 L 333.287 351.838 L 335.272 353.760 L 337.270 355.807 L 339.276 357.981 L 341.286 360.281 L 343.296 362.706 L 345.302 365.256 L 347.300 367.930 L 349.287 370.727 L 351.258 373.645 L 353.211 376.682 L 355.142 379.836 L 357.047 383.106 L 358.923 386.488 L 360.767 389.980 L 362.577 393.579 L 364.349 397.284 L 366.082 401.090 L 367.771 404.996 L 369.415 408.997 L 371.012 413.091 L 372.560 417.275 L 374.056 421.544 L 375.498 425.897 L 376.885 430.329 L 378.214 434.836 L 379.485 439.416 L 380.696 444.065 L 381.845 448.779 L 382.931 453.555 L 383.952 458.388 L 384.908 463.275 L 385.798 468.213 L 386.619 473.198 L 387.373 478.225 L 388.057 483.291 L 388.671 488.392 L 389.214 493.525 L 389.686 498.684 L 390.086 503.868 L 390.414 509.071 L 390.670 514.289 L 390.853 519.520 L 390.962 524.758 L 390.999 530.000 Z" fill="black" fill-rule="evenodd"/>
</svg>
