<svg xmlns="http://www.w3.org/2000/svg" viewBox="0 0 600.000 1000">
  <path d="M 256.346 315.014 L 255.242 315.054 L 254.140 315.122 L 253.039 315.217 L 251.942 315.338 L 250.847 315.487 L 249.757 315.663 L 248.671 315.865 L 247.590 316.093 L 246.516 316.349 L 245.448 316.630 L 244.387 316.938 L 243.334 317.271 L 242.290 317.631 L 241.255 318.015 L 240.229 318.425 L 239.214 318.861 L 238.210 319.320 L 237.217 319.805 L 236.237 320.314 L 235.270 320.846 L 234.315 321.402 L 233.614 321.835 L 231.950 322.288 L 231.395 322.443 L 229.462 322.996 L 228.910 323.158 L 226.983 323.737 L 226.433 323.906 L 224.512 324.509 L 223.966 324.685 L 222.050 325.314 L 221.508 325.496 L 219.598 326.149 L 219.059 326.338 L 217.156 327.016 L 216.621 327.211 L 214.725 327.915 L 214.193 328.116 L 212.304 328.844 L 211.776 329.051 L 209.894 329.804 L 209.369 330.018 L 207.495 330.795 L 206.974 331.014 L 205.108 331.816 L 204.591 332.042 L 202.732 332.868 L 202.220 333.099 L 200.369 333.949 L 199.861 334.186 L 198.019 335.061 L 197.515 335.304 L 195.681 336.202 L 195.182 336.450 L 193.357 337.373 L 192.862 337.627 L 191.046 338.573 L 190.556 338.832 L 188.749 339.801 L 188.264 340.066 L 186.467 341.059 L 185.986 341.329 L 184.198 342.345 L 183.722 342.620 L 181.945 343.660 L 181.473 343.940 L 179.706 345.003 L 179.239 345.288 L 177.482 346.374 L 177.020 346.663 L 175.274 347.772 L 174.817 348.066 L 173.082 349.198 L 172.630 349.496 L 170.906 350.650 L 170.459 350.953 L 168.746 352.130 L 168.304 352.438 L 166.603 353.636 L 166.166 353.948 L 164.477 355.169 L 164.045 355.485 L 162.368 356.728 L 161.941 357.048 L 160.276 358.313 L 159.854 358.637 L 158.201 359.924 L 157.785 360.252 L 156.145 361.560 L 155.734 361.891 L 154.106 363.221 L 153.700 363.556 L 152.086 364.906 L 151.685 365.245 L 150.084 366.617 L 149.689 366.959 L 148.101 368.352 L 147.711 368.698 L 146.137 370.111 L 145.752 370.460 L 144.192 371.893 L 143.812 372.246 L 142.266 373.699 L 141.892 374.055 L 140.360 375.529 L 139.991 375.887 L 138.473 377.381 L 138.110 377.743 L 136.607 379.256 L 136.249 379.621 L 134.760 381.154 L 134.408 381.521 L 132.934 383.073 L 132.587 383.443 L 131.129 385.015 L 130.787 385.387 L 129.344 386.978 L 129.007 387.353 L 127.580 388.962 L 127.249 389.340 L 125.837 390.967 L 125.511 391.348 L 124.115 392.994 L 123.794 393.376 L 122.415 395.040 L 122.099 395.425 L 120.736 397.107 L 120.426 397.494 L 119.079 399.193 L 118.774 399.582 L 117.443 401.300 L 117.144 401.691 L 115.830 403.425 L 115.536 403.818 L 114.239 405.570 L 113.950 405.965 L 112.670 407.733 L 112.386 408.130 L 111.124 409.915 L 110.845 410.313 L 109.600 412.115 L 109.327 412.515 L 108.099 414.332 L 107.831 414.734 L 106.621 416.568 L 106.358 416.971 L 105.166 418.820 L 104.908 419.226 L 103.734 421.090 L 103.481 421.497 L 102.325 423.376 L 102.077 423.784 L 100.940 425.679 L 100.697 426.089 L 99.578 427.998 L 99.341 428.409 L 98.240 430.333 L 98.008 430.745 L 96.926 432.683 L 96.698 433.096 L 95.636 435.048 L 95.413 435.463 L 94.369 437.429 L 94.151 437.845 L 93.127 439.824 L 92.914 440.241 L 91.909 442.233 L 91.701 442.651 L 90.715 444.657 L 90.512 445.076 L 89.546 447.094 L 89.347 447.514 L 88.401 449.545 L 88.207 449.966 L 87.281 452.009 L 87.092 452.430 L 86.185 454.485 L 86.001 454.908 L 85.114 456.975 L 84.935 457.398 L 84.069 459.476 L 83.894 459.901 L 83.048 461.990 L 82.878 462.415 L 82.052 464.515 L 81.887 464.941 L 81.081 467.052 L 80.921 467.479 L 80.136 469.600 L 79.980 470.027 L 79.216 472.158 L 79.065 472.586 L 78.321 474.727 L 78.175 475.156 L 77.452 477.307 L 77.310 477.736 L 76.608 479.896 L 76.471 480.325 L 75.790 482.494 L 75.657 482.924 L 74.998 485.102 L 74.870 485.533 L 74.231 487.719 L 74.107 488.150 L 73.490 490.345 L 73.371 490.776 L 72.775 492.979 L 72.660 493.411 L 72.086 495.621 L 71.976 496.053 L 71.423 498.271 L 71.317 498.704 L 70.786 500.928 L 70.684 501.361 L 70.175 503.593 L 70.078 504.026 L 69.590 506.264 L 69.497 506.698 L 69.031 508.942 L 68.943 509.376 L 68.498 511.626 L 68.415 512.060 L 67.992 514.316 L 67.913 514.751 L 67.512 517.012 L 67.437 517.447 L 67.058 519.713 L 66.988 520.148 L 66.631 522.419 L 66.565 522.854 L 66.230 525.130 L 66.168 525.566 L 65.856 527.845 L 65.798 528.281 L 65.508 530.565 L 65.455 531.001 L 65.186 533.288 L 65.137 533.724 L 64.891 536.015 L 64.847 536.451 L 64.623 538.745 L 64.583 539.181 L 64.381 541.478 L 64.345 541.914 L 64.166 544.213 L 64.134 544.650 L 63.977 546.951 L 63.950 547.388 L 63.815 549.691 L 63.792 550.127 L 63.680 552.432 L 63.661 552.869 L 63.571 555.175 L 63.556 555.612 L 63.489 557.919 L 63.479 558.356 L 63.434 560.664 L 63.427 561.101 L 63.405 563.409 L 63.403 563.846 L 63.403 566.154 L 63.405 566.591 L 63.427 568.899 L 63.434 569.336 L 63.479 571.644 L 63.489 572.081 L 63.556 574.388 L 63.571 574.825 L 63.661 577.131 L 63.680 577.568 L 63.792 579.873 L 63.815 580.309 L 63.950 582.612 L 63.977 583.049 L 64.134 585.350 L 64.166 585.787 L 64.345 588.086 L 64.381 588.522 L 64.583 590.819 L 64.623 591.255 L 64.847 593.549 L 64.891 593.985 L 65.137 596.276 L 65.186 596.712 L 65.455 598.999 L 65.508 599.435 L 65.798 601.719 L 65.856 602.155 L 66.168 604.434 L 66.230 604.870 L 66.565 607.146 L 66.631 607.581 L 66.988 609.852 L 67.058 610.287 L 67.437 612.553 L 67.512 612.988 L 67.913 615.249 L 67.992 615.684 L 68.415 617.940 L 68.498 618.374 L 68.943 620.624 L 69.031 621.058 L 69.497 623.302 L 69.590 623.736 L 70.078 625.974 L 70.175 626.407 L 70.684 628.639 L 70.786 629.072 L 71.317 631.296 L 71.423 631.729 L 71.976 633.947 L 72.086 634.379 L 72.660 636.589 L 72.775 637.021 L 73.371 639.224 L 73.490 639.655 L 74.107 641.850 L 74.231 642.281 L 74.870 644.467 L 74.998 644.898 L 75.657 647.076 L 75.790 647.506 L 76.471 649.675 L 76.608 650.104 L 77.310 652.264 L 77.452 652.693 L 78.175 654.844 L 78.321 655.273 L 79.065 657.414 L 79.216 657.842 L 79.980 659.973 L 80.136 660.400 L 80.921 662.521 L 81.081 662.948 L 81.887 665.059 L 82.052 665.485 L 82.878 667.585 L 83.048 668.010 L 83.894 670.099 L 84.069 670.524 L 84.935 672.602 L 85.114 673.025 L 86.001 675.092 L 86.185 675.515 L 87.092 677.570 L 87.281 677.991 L 88.207 680.034 L 88.401 680.455 L 89.347 682.486 L 89.546 682.906 L 90.512 684.924 L 90.715 685.343 L 91.701 687.349 L 91.909 687.767 L 92.914 689.759 L 93.127 690.176 L 94.151 692.155 L 94.369 692.571 L 95.413 694.537 L 95.636 694.952 L 96.698 696.904 L 96.926 697.317 L 98.008 699.255 L 98.240 699.667 L 99.341 701.591 L 99.578 702.002 L 100.697 703.911 L 100.940 704.321 L 102.077 706.216 L 102.325 706.624 L 103.481 708.503 L 103.734 708.910 L 104.908 710.774 L 105.166 711.180 L 106.358 713.029 L 106.621 713.432 L 107.831 715.266 L 108.099 715.668 L 109.327 717.485 L 109.600 717.885 L 110.845 719.687 L 111.124 720.085 L 112.386 721.870 L 112.670 722.267 L 113.950 724.035 L 114.239 724.430 L 115.536 726.182 L 115.830 726.575 L 117.144 728.309 L 117.443 728.700 L 118.774 730.418 L 119.079 730.807 L 120.426 732.506 L 120.736 732.893 L 122.099 734.575 L 122.415 734.960 L 123.794 736.624 L 124.115 737.006 L 125.511 738.652 L 125.837 739.033 L 127.249 740.660 L 127.580 741.038 L 129.007 742.647 L 129.344 743.022 L 130.787 744.613 L 131.129 744.985 L 132.587 746.557 L 132.934 746.927 L 134.408 748.479 L 134.760 748.846 L 136.249 750.379 L 136.607 750.744 L 138.110 752.257 L 138.473 752.619 L 139.991 754.113 L 140.360 754.471 L 141.892 755.945 L 142.266 756.301 L 143.812 757.754 L 144.192 758.107 L 145.752 759.540 L 146.137 759.889 L 147.711 761.302 L 148.101 761.648 L 149.689 763.041 L 150.084 763.383 L 151.685 764.755 L 152.086 765.094 L 153.700 766.444 L 154.106 766.779 L 155.734 768.109 L 156.145 768.440 L 157.785 769.748 L 158.201 770.076 L 159.854 771.363 L 160.276 771.687 L 161.941 772.952 L 162.368 773.272 L 164.045 774.515 L 164.477 774.831 L 166.166 776.052 L 166.603 776.364 L 168.304 777.562 L 168.746 777.870 L 170.459 779.047 L 170.906 779.350 L 172.630 780.504 L 173.082 780.802 L 174.817 781.934 L 175.274 782.228 L 177.020 783.337 L 177.482 783.626 L 179.239 784.712 L 179.706 784.997 L 181.473 786.060 L 181.945 786.340 L 183.722 787.380 L 184.198 787.655 L 185.986 788.671 L 186.467 788.941 L 188.264 789.934 L 188.749 790.199 L 190.556 791.168 L 191.046 791.427 L 192.862 792.373 L 193.357 792.627 L 195.182 793.550 L 195.681 793.798 L 197.515 794.696 L 198.019 794.939 L 199.861 795.814 L 200.369 796.051 L 202.220 796.901 L 202.732 797.132 L 204.591 797.958 L 205.108 798.184 L 206.974 798.986 L 207.495 799.205 L 209.369 799.982 L 209.894 800.196 L 211.776 800.949 L 212.304 801.156 L 214.193 801.884 L 214.725 802.085 L 216.621 802.789 L 217.156 802.984 L 219.059 803.662 L 219.598 803.851 L 221.508 804.504 L 222.050 804.686 L 223.966 805.315 L 224.512 805.491 L 226.433 806.094 L 226.983 806.263 L 228.910 806.842 L 229.462 807.004 L 231.395 807.557 L 231.950 807.712 L 233.614 808.165 L 234.315 808.598 L 235.270 809.154 L 236.237 809.686 L 237.217 810.195 L 238.210 810.680 L 239.214 811.139 L 240.229 811.575 L 241.255 811.985 L 242.290 812.369 L 243.334 812.729 L 244.387 813.062 L 245.448 813.370 L 246.516 813.651 L 247.590 813.907 L 248.671 814.135 L 249.757 814.337 L 250.847 814.513 L 251.942 814.662 L 253.039 814.783 L 254.140 814.878 L 255.242 814.946 L 256.346 814.986 L 257.450 815.000 L 421.720 815.000 L 422.315 815.476 L 423.194 816.144 L 424.089 816.791 L 424.999 817.416 L 425.925 818.018 L 426.865 818.598 L 427.820 819.154 L 428.787 819.686 L 429.767 820.195 L 430.760 820.680 L 431.764 821.139 L 432.779 821.575 L 433.805 821.985 L 434.840 822.369 L 435.884 822.729 L 436.937 823.062 L 437.998 823.370 L 439.066 823.651 L 440.140 823.907 L 441.221 824.135 L 442.307 824.337 L 443.397 824.513 L 444.492 824.662 L 445.589 824.783 L 446.690 824.878 L 447.792 824.946 L 448.896 824.986 L 450.000 825.000 L 451.104 824.986 L 452.208 824.946 L 453.310 824.878 L 454.411 824.783 L 455.508 824.662 L 456.603 824.513 L 457.693 824.337 L 458.779 824.135 L 459.860 823.907 L 460.934 823.651 L 462.002 823.370 L 463.063 823.062 L 464.116 822.729 L 465.160 822.369 L 466.195 821.985 L 467.221 821.575 L 468.236 821.139 L 469.240 820.680 L 470.233 820.195 L 471.213 819.686 L 472.180 819.154 L 473.135 818.598 L 474.075 818.018 L 475.001 817.416 L 475.911 816.791 L 476.806 816.144 L 477.685 815.476 L 478.548 814.785 L 479.393 814.074 L 480.220 813.343 L 481.029 812.591 L 481.820 811.820 L 482.591 811.029 L 483.343 810.220 L 484.074 809.393 L 484.785 808.548 L 485.476 807.685 L 486.144 806.806 L 486.791 805.911 L 487.416 805.001 L 488.018 804.075 L 488.598 803.135 L 489.154 802.180 L 489.686 801.213 L 490.195 800.233 L 490.680 799.240 L 491.139 798.236 L 491.575 797.221 L 491.985 796.195 L 492.369 795.160 L 492.729 794.116 L 493.062 793.063 L 493.370 792.002 L 493.651 790.934 L 493.907 789.860 L 494.135 788.779 L 494.337 787.693 L 494.513 786.603 L 494.662 785.508 L 494.783 784.411 L 494.878 783.310 L 494.946 782.208 L 494.986 781.104 L 495.000 780.000 L 495.000 770.000 L 495.000 360.000 L 495.000 40.000 L 494.986 38.896 L 494.946 37.792 L 494.878 36.690 L 494.783 35.589 L 494.662 34.492 L 494.513 33.397 L 494.337 32.307 L 494.135 31.221 L 493.907 30.140 L 493.651 29.066 L 493.370 27.998 L 493.062 26.937 L 492.729 25.884 L 492.369 24.840 L 491.985 23.805 L 491.575 22.779 L 491.139 21.764 L 490.680 20.760 L 490.195 19.767 L 489.686 18.787 L 489.154 17.820 L 488.598 16.865 L 488.018 15.925 L 487.416 14.999 L 486.791 14.089 L 486.144 13.194 L 485.476 12.315 L 484.785 11.452 L 484.074 10.607 L 483.343 9.780 L 482.591 8.971 L 481.820 8.180 L 481.029 7.409 L 480.220 6.657 L 479.393 5.926 L 478.548 5.215 L 477.685 4.524 L 476.806 3.856 L 475.911 3.209 L 475.001 2.584 L 474.075 1.982 L 473.135 1.402 L 472.180 0.846 L 471.213 0.314 L 470.233 -0.195 L 469.240 -0.680 L 468.236 -1.139 L 467.221 -1.575 L 466.195 -1.985 L 465.160 -2.369 L 464.116 -2.729 L 463.063 -3.062 L 462.002 -3.370 L 460.934 -3.651 L 459.860 -3.907 L 458.779 -4.135 L 457.693 -4.337 L 456.603 -4.513 L 455.508 -4.662 L 454.411 -4.783 L 453.310 -4.878 L 452.208 -4.946 L 451.104 -4.986 L 450.000 -5.000 L 448.896 -4.986 L 447.792 -4.946 L 446.690 -4.878 L 445.589 -4.783 L 444.492 -4.662 L 443.397 -4.513 L 442.307 -4.337 L 441.221 -4.135 L 440.140 -3.907 L 439.066 -3.651 L 437.998 -3.370 L 436.937 -3.062 L 435.884 -2.729 L 434.840 -2.369 L 433.805 -1.985 L 432.779 -1.575 L 431.764 -1.139 L 430.760 -0.680 L 429.767 -0.195 L 428.787 0.314 L 427.820 0.846 L 426.865 1.402 L 425.925 1.982 L 424.999 2.584 L 424.089 3.209 L 423.194 3.856 L 422.315 4.524 L 421.452 5.215 L 420.607 5.926 L 419.780 6.657 L 418.971 7.409 L 418.180 8.180 L 417.409 8.971 L 416.657 9.780 L 415.926 10.607 L 415.215 11.452 L 414.524 12.315 L 413.856 13.194 L 413.209 14.089 L 412.584 14.999 L 411.982 15.925 L 411.402 16.865 L 410.846 17.820 L 410.314 18.787 L 409.805 19.767 L 409.320 20.760 L 408.861 21.764 L 408.425 22.779 L 408.015 23.805 L 407.631 24.840 L 407.271 25.884 L 406.938 26.937 L 406.630 27.998 L 406.349 29.066 L 406.093 30.140 L 405.865 31.221 L 405.663 32.307 L 405.487 33.397 L 405.338 34.492 L 405.217 35.589 L 405.122 36.690 L 405.054 37.792 L 405.014 38.896 L 405.000 40.000 L 405.000 315.000 L 257.450 315.000 L 256.346 315.014 Z M 405.000 405.000 L 405.000 725.000 L 285.347 725.000 L 283.797 724.990 L 282.394 724.962 L 280.991 724.917 L 279.588 724.852 L 278.186 724.770 L 276.784 724.669 L 275.383 724.550 L 273.983 724.413 L 272.583 724.257 L 271.184 724.083 L 269.787 723.890 L 268.390 723.679 L 266.995 723.450 L 265.601 723.203 L 264.209 722.937 L 262.818 722.652 L 261.429 722.349 L 260.041 722.028 L 258.656 721.689 L 257.273 721.331 L 255.891 720.954 L 254.512 720.560 L 253.136 720.146 L 251.762 719.715 L 250.391 719.265 L 249.023 718.796 L 247.657 718.309 L 246.295 717.804 L 244.936 717.280 L 243.580 716.738 L 242.228 716.177 L 240.879 715.598 L 239.535 715.000 L 238.194 714.384 L 236.857 713.750 L 235.525 713.097 L 234.197 712.426 L 232.873 711.737 L 231.555 711.029 L 230.241 710.303 L 228.933 709.559 L 227.629 708.796 L 226.331 708.016 L 225.039 707.217 L 223.752 706.400 L 222.472 705.564 L 221.197 704.711 L 219.929 703.840 L 218.667 702.951 L 217.412 702.044 L 216.164 701.119 L 214.922 700.176 L 213.688 699.215 L 212.461 698.237 L 211.242 697.241 L 210.031 696.228 L 208.827 695.197 L 207.632 694.149 L 206.445 693.084 L 205.267 692.001 L 204.097 690.902 L 202.936 689.785 L 201.784 688.652 L 200.642 687.501 L 199.508 686.334 L 198.385 685.151 L 197.271 683.951 L 196.168 682.734 L 195.074 681.502 L 193.991 680.253 L 192.919 678.988 L 191.857 677.708 L 190.807 676.412 L 189.767 675.100 L 188.739 673.773 L 187.722 672.431 L 186.717 671.073 L 185.724 669.701 L 184.743 668.314 L 183.774 666.912 L 182.818 665.496 L 181.874 664.066 L 180.943 662.621 L 180.025 661.163 L 179.120 659.691 L 178.228 658.205 L 177.349 656.706 L 176.484 655.194 L 175.633 653.668 L 174.796 652.130 L 173.973 650.580 L 173.164 649.017 L 172.370 647.442 L 171.590 645.855 L 170.824 644.256 L 170.074 642.646 L 169.338 641.024 L 168.618 639.391 L 167.913 637.748 L 167.223 636.094 L 166.548 634.429 L 165.890 632.754 L 165.247 631.069 L 164.620 629.375 L 164.008 627.671 L 163.413 625.958 L 162.835 624.236 L 162.272 622.505 L 161.726 620.766 L 161.197 619.018 L 160.684 617.263 L 160.188 615.500 L 159.709 613.729 L 159.247 611.951 L 158.802 610.166 L 158.374 608.375 L 157.963 606.577 L 157.569 604.772 L 157.193 602.962 L 156.834 601.146 L 156.493 599.325 L 156.169 597.499 L 155.863 595.668 L 155.575 593.832 L 155.304 591.992 L 155.052 590.148 L 154.817 588.301 L 154.600 586.449 L 154.401 584.595 L 154.219 582.738 L 154.056 580.878 L 153.911 579.015 L 153.784 577.151 L 153.675 575.285 L 153.584 573.417 L 153.512 571.548 L 153.457 569.678 L 153.421 567.807 L 153.403 565.936 L 153.403 564.064 L 153.421 562.193 L 153.457 560.322 L 153.512 558.452 L 153.584 556.583 L 153.675 554.715 L 153.784 552.849 L 153.911 550.985 L 154.056 549.122 L 154.219 547.262 L 154.401 545.405 L 154.600 543.551 L 154.817 541.699 L 155.052 539.852 L 155.304 538.008 L 155.575 536.168 L 155.863 534.332 L 156.169 532.501 L 156.493 530.675 L 156.834 528.854 L 157.193 527.038 L 157.569 525.228 L 157.963 523.423 L 158.374 521.625 L 158.802 519.834 L 159.247 518.049 L 159.709 516.271 L 160.188 514.500 L 160.684 512.737 L 161.197 510.982 L 161.726 509.234 L 162.272 507.495 L 162.835 505.764 L 163.413 504.042 L 164.008 502.329 L 164.620 500.625 L 165.247 498.931 L 165.890 497.246 L 166.548 495.571 L 167.223 493.906 L 167.913 492.252 L 168.618 490.609 L 169.338 488.976 L 170.074 487.354 L 170.824 485.744 L 171.590 484.145 L 172.370 482.558 L 173.164 480.983 L 173.973 479.420 L 174.796 477.870 L 175.633 476.332 L 176.484 474.806 L 177.349 473.294 L 178.228 471.795 L 179.120 470.309 L 180.025 468.837 L 180.943 467.379 L 181.874 465.934 L 182.818 464.504 L 183.774 463.088 L 184.743 461.686 L 185.724 460.299 L 186.717 458.927 L 187.722 457.569 L 188.739 456.227 L 189.767 454.900 L 190.807 453.588 L 191.857 452.292 L 192.919 451.012 L 193.991 449.747 L 195.074 448.498 L 196.168 447.266 L 197.271 446.049 L 198.385 444.849 L 199.508 443.666 L 200.642 442.499 L 201.784 441.348 L 202.936 440.215 L 204.097 439.098 L 205.267 437.999 L 206.445 436.916 L 207.632 435.851 L 208.827 434.803 L 210.031 433.772 L 211.242 432.759 L 212.461 431.763 L 213.688 430.785 L 214.922 429.824 L 216.164 428.881 L 217.412 427.956 L 218.667 427.049 L 219.929 426.160 L 221.197 425.289 L 222.472 424.436 L 223.752 423.600 L 225.039 422.783 L 226.331 421.984 L 227.629 421.204 L 228.933 420.441 L 230.241 419.697 L 231.555 418.971 L 232.873 418.263 L 234.197 417.574 L 235.525 416.903 L 236.857 416.250 L 238.194 415.616 L 239.535 415.000 L 240.879 414.402 L 242.228 413.823 L 243.580 413.262 L 244.936 412.720 L 246.295 412.196 L 247.657 411.691 L 249.023 411.204 L 250.391 410.735 L 251.762 410.285 L 253.136 409.854 L 254.512 409.440 L 255.891 409.046 L 257.273 408.669 L 258.656 408.311 L 260.041 407.972 L 261.429 407.651 L 262.818 407.348 L 264.209 407.063 L 265.601 406.797 L 266.995 406.550 L 268.390 406.321 L 269.787 406.110 L 271.184 405.917 L 272.583 405.743 L 273.983 405.587 L 275.383 405.450 L 276.784 405.331 L 278.186 405.230 L 279.588 405.148 L 280.991 405.083 L 282.394 405.038 L 283.797 405.010 L 285.347 405.000 L 405.000 405.000 Z" fill="black" fill-rule="evenodd"/>
</svg>
