<svg xmlns="http://www.w3.org/2000/svg" viewBox="0 0 600.000 1000">
  <path d="M 534.998 520.404 L 534.998 519.596 L 534.941 513.216 L 534.926 512.409 L 534.755 506.032 L 534.726 505.224 L 534.440 498.855 L 534.396 498.047 L 533.996 491.689 L 533.938 490.881 L 533.424 484.538 L 533.351 483.729 L 532.724 477.406 L 532.636 476.595 L 531.895 470.295 L 531.792 469.483 L 530.938 463.210 L 530.820 462.397 L 529.854 456.154 L 529.721 455.339 L 528.643 449.131 L 528.494 448.314 L 527.305 442.144 L 527.140 441.326 L 525.841 435.197 L 525.659 434.377 L 524.251 428.293 L 524.052 427.471 L 522.535 421.437 L 522.320 420.613 L 520.695 414.631 L 520.462 413.804 L 518.730 407.879 L 518.479 407.050 L 516.642 401.185 L 516.373 400.354 L 514.431 394.552 L 514.143 393.718 L 512.097 387.984 L 511.790 387.148 L 509.642 381.483 L 509.315 380.645 L 507.066 375.054 L 506.718 374.213 L 504.370 368.700 L 504.000 367.857 L 501.554 362.424 L 501.163 361.579 L 498.620 356.230 L 498.206 355.383 L 495.568 350.121 L 495.132 349.273 L 492.400 344.101 L 491.939 343.251 L 489.115 338.172 L 488.630 337.321 L 485.716 332.339 L 485.205 331.487 L 482.203 326.604 L 481.666 325.752 L 478.577 320.972 L 478.012 320.120 L 474.839 315.445 L 474.246 314.594 L 470.990 310.027 L 470.369 309.177 L 467.031 304.720 L 466.381 303.873 L 462.964 299.530 L 462.283 298.686 L 458.790 294.459 L 458.078 293.618 L 454.510 289.510 L 453.766 288.675 L 450.125 284.687 L 449.349 283.858 L 445.638 279.994 L 444.828 279.172 L 441.048 275.434 L 440.204 274.621 L 436.359 271.011 L 435.480 270.207 L 431.572 266.727 L 430.658 265.936 L 426.688 262.588 L 425.738 261.809 L 421.709 258.596 L 420.724 257.832 L 416.638 254.755 L 415.617 254.008 L 411.477 251.069 L 410.419 250.340 L 406.229 247.542 L 405.134 246.833 L 400.895 244.176 L 399.764 243.491 L 395.478 240.976 L 394.313 240.316 L 389.983 237.946 L 388.782 237.312 L 384.411 235.089 L 383.176 234.485 L 378.766 232.409 L 377.498 231.835 L 373.053 229.908 L 371.752 229.369 L 367.274 227.591 L 365.943 227.087 L 361.434 225.461 L 360.074 224.995 L 355.537 223.521 L 354.151 223.095 L 349.589 221.773 L 348.177 221.389 L 343.593 220.221 L 342.159 219.880 L 337.555 218.867 L 336.101 218.572 L 331.481 217.713 L 330.010 217.465 L 325.375 216.761 L 323.890 216.561 L 319.244 216.014 L 317.747 215.863 L 313.093 215.471 L 311.588 215.370 L 306.928 215.135 L 305.418 215.085 L 300.756 215.006 L 299.244 215.006 L 294.582 215.085 L 293.072 215.135 L 288.412 215.370 L 286.907 215.471 L 282.253 215.863 L 280.756 216.014 L 276.110 216.561 L 274.625 216.761 L 269.990 217.465 L 268.519 217.713 L 263.899 218.572 L 262.445 218.867 L 257.841 219.880 L 256.407 220.221 L 251.823 221.389 L 250.411 221.773 L 245.849 223.095 L 244.463 223.521 L 239.926 224.995 L 238.566 225.461 L 234.057 227.087 L 232.726 227.591 L 228.248 229.369 L 226.947 229.908 L 222.502 231.835 L 221.234 232.409 L 216.824 234.485 L 215.589 235.089 L 211.218 237.312 L 210.017 237.946 L 205.687 240.316 L 204.522 240.976 L 200.236 243.491 L 199.105 244.176 L 194.866 246.833 L 193.771 247.542 L 189.581 250.340 L 188.523 251.069 L 184.383 254.008 L 183.362 254.755 L 179.276 257.832 L 178.291 258.596 L 174.262 261.809 L 173.312 262.588 L 169.342 265.936 L 168.428 266.727 L 164.520 270.207 L 163.641 271.011 L 159.796 274.621 L 158.952 275.434 L 155.172 279.172 L 154.362 279.994 L 150.651 283.858 L 149.875 284.687 L 146.234 288.675 L 145.490 289.510 L 141.922 293.618 L 141.210 294.459 L 137.717 298.686 L 137.036 299.530 L 133.619 303.873 L 132.969 304.720 L 129.631 309.177 L 129.010 310.027 L 125.754 314.594 L 125.161 315.445 L 121.988 320.120 L 121.423 320.972 L 118.334 325.752 L 117.797 326.604 L 114.795 331.487 L 114.284 332.339 L 111.370 337.321 L 110.885 338.172 L 108.061 343.251 L 107.600 344.101 L 104.868 349.273 L 104.432 350.121 L 101.794 355.383 L 101.380 356.230 L 98.837 361.579 L 98.446 362.424 L 96.000 367.857 L 95.630 368.700 L 93.282 374.213 L 92.934 375.054 L 90.685 380.645 L 90.358 381.483 L 88.210 387.148 L 87.903 387.984 L 85.857 393.718 L 85.569 394.552 L 83.627 400.354 L 83.358 401.185 L 81.521 407.050 L 81.270 407.879 L 79.538 413.804 L 79.305 414.631 L 77.680 420.613 L 77.465 421.437 L 75.948 427.471 L 75.749 428.293 L 74.341 434.377 L 74.159 435.197 L 72.860 441.326 L 72.695 442.144 L 71.506 448.314 L 71.357 449.131 L 70.279 455.339 L 70.146 456.154 L 69.180 462.397 L 69.062 463.210 L 68.208 469.483 L 68.105 470.295 L 67.364 476.595 L 67.276 477.406 L 66.649 483.729 L 66.576 484.538 L 66.062 490.881 L 66.004 491.689 L 65.604 498.047 L 65.560 498.855 L 65.274 505.224 L 65.245 506.032 L 65.074 512.409 L 65.059 513.216 L 65.002 519.596 L 65.002 520.404 L 65.059 526.784 L 65.074 527.591 L 65.245 533.968 L 65.274 534.776 L 65.560 541.145 L 65.604 541.953 L 66.004 548.311 L 66.062 549.119 L 66.576 555.462 L 66.649 556.271 L 67.276 562.594 L 67.364 563.405 L 68.105 569.705 L 68.208 570.517 L 69.062 576.790 L 69.180 577.603 L 70.146 583.846 L 70.279 584.661 L 71.357 590.869 L 71.506 591.686 L 72.695 597.856 L 72.860 598.674 L 74.159 604.803 L 74.341 605.623 L 75.749 611.707 L 75.948 612.529 L 77.465 618.563 L 77.680 619.387 L 79.305 625.369 L 79.538 626.196 L 81.270 632.121 L 81.521 632.950 L 83.358 638.815 L 83.627 639.646 L 85.569 645.448 L 85.857 646.282 L 87.903 652.016 L 88.210 652.852 L 90.358 658.517 L 90.685 659.355 L 92.934 664.946 L 93.282 665.787 L 95.630 671.300 L 96.000 672.143 L 98.446 677.576 L 98.837 678.421 L 101.380 683.770 L 101.794 684.617 L 104.432 689.879 L 104.868 690.727 L 107.600 695.899 L 108.061 696.749 L 110.885 701.828 L 111.370 702.679 L 114.284 707.661 L 114.795 708.513 L 117.797 713.396 L 118.334 714.248 L 121.423 719.028 L 121.988 719.880 L 125.161 724.555 L 125.754 725.406 L 129.010 729.973 L 129.631 730.823 L 132.969 735.280 L 133.619 736.127 L 137.036 740.470 L 137.717 741.314 L 141.210 745.541 L 141.922 746.382 L 145.490 750.490 L 146.234 751.325 L 149.875 755.313 L 150.651 756.142 L 154.362 760.006 L 155.172 760.828 L 158.952 764.566 L 159.796 765.379 L 163.641 768.989 L 164.520 769.793 L 168.428 773.273 L 169.342 774.064 L 173.312 777.412 L 174.262 778.191 L 178.291 781.404 L 179.276 782.168 L 183.362 785.245 L 184.383 785.992 L 188.523 788.931 L 189.581 789.660 L 193.771 792.458 L 194.866 793.167 L 199.105 795.824 L 200.236 796.509 L 204.522 799.024 L 205.687 799.684 L 210.017 802.054 L 211.218 802.688 L 215.589 804.911 L 216.824 805.515 L 221.234 807.591 L 222.502 808.165 L 226.947 810.092 L 228.248 810.631 L 232.726 812.409 L 234.057 812.913 L 238.566 814.539 L 239.926 815.005 L 244.463 816.479 L 245.849 816.905 L 250.411 818.227 L 251.823 818.611 L 256.407 819.779 L 257.841 820.120 L 262.445 821.133 L 263.899 821.428 L 268.519 822.287 L 269.990 822.535 L 274.625 823.239 L 276.110 823.439 L 280.756 823.986 L 282.253 824.137 L 286.907 824.529 L 288.412 824.630 L 293.072 824.865 L 294.582 824.915 L 299.244 824.994 L 300.756 824.994 L 305.418 824.915 L 306.928 824.865 L 311.588 824.630 L 313.093 824.529 L 317.747 824.137 L 319.244 823.986 L 323.890 823.439 L 325.375 823.239 L 330.010 822.535 L 331.481 822.287 L 336.101 821.428 L 337.555 821.133 L 342.159 820.120 L 343.593 819.779 L 348.177 818.611 L 349.589 818.227 L 354.151 816.905 L 355.537 816.479 L 360.074 815.005 L 361.434 814.539 L 365.943 812.913 L 367.274 812.409 L 371.752 810.631 L 373.053 810.092 L 377.498 808.165 L 378.766 807.591 L 383.176 805.515 L 384.411 804.911 L 388.782 802.688 L 389.983 802.054 L 394.313 799.684 L 395.478 799.024 L 399.764 796.509 L 400.895 795.824 L 405.134 793.167 L 406.229 792.458 L 410.419 789.660 L 411.477 788.931 L 415.617 785.992 L 416.638 785.245 L 420.724 782.168 L 421.709 781.404 L 425.738 778.191 L 426.688 777.412 L 430.658 774.064 L 431.572 773.273 L 435.480 769.793 L 436.359 768.989 L 440.204 765.379 L 441.048 764.566 L 444.828 760.828 L 445.638 760.006 L 449.349 756.142 L 450.125 755.313 L 453.766 751.325 L 454.510 750.490 L 458.078 746.382 L 458.790 745.541 L 462.283 741.314 L 462.964 740.470 L 466.381 736.127 L 467.031 735.280 L 470.369 730.823 L 470.990 729.973 L 474.246 725.406 L 474.839 724.555 L 478.012 719.880 L 478.577 719.028 L 481.666 714.248 L 482.203 713.396 L 485.205 708.513 L 485.716 707.661 L 488.630 702.679 L 489.115 701.828 L 491.939 696.749 L 492.400 695.899 L 495.132 690.727 L 495.568 689.879 L 498.206 684.617 L 498.620 683.770 L 501.163 678.421 L 501.554 677.576 L 504.000 672.143 L 504.370 671.300 L 506.718 665.787 L 507.066 664.946 L 509.315 659.355 L 509.642 658.517 L 511.790 652.852 L 512.097 652.016 L 514.143 646.282 L 514.431 645.448 L 516.373 639.646 L 516.642 638.815 L 518.479 632.950 L 518.730 632.121 L 520.462 626.196 L 520.695 625.369 L 522.320 619.387 L 522.535 618.563 L 524.052 612.529 L 524.251 611.707 L 525.659 605.623 L 525.841 604.803 L 527.140 598.674 L 527.305 597.856 L 528.494 591.686 L 528.643 590.869 L 529.721 584.661 L 529.854 583.846 L 530.820 577.603 L 530.938 576.790 L 531.792 570.517 L 531.895 569.705 L 532.636 563.405 L 532.724 562.594 L 533.351 556.271 L 533.424 555.462 L 533.938 549.119 L 533.996 548.311 L 534.396 541.953 L 534.440 541.145 L 534.726 534.776 L 534.755 533.968 L 534.926 527.591 L 534.941 526.784 L 534.998 520.404 Z M 444.998 520.000 L 444.948 525.573 L 444.798 531.143 L 444.549 536.704 L 444.199 542.254 L 443.751 547.787 L 443.204 553.300 L 442.558 558.789 L 441.815 564.250 L 440.976 569.678 L 440.040 575.071 L 439.009 580.424 L 437.883 585.734 L 436.665 590.996 L 435.355 596.206 L 433.955 601.362 L 432.465 606.459 L 430.888 611.494 L 429.225 616.463 L 427.478 621.362 L 425.648 626.189 L 423.737 630.939 L 421.747 635.610 L 419.681 640.199 L 417.541 644.701 L 415.328 649.115 L 413.045 653.437 L 410.694 657.665 L 408.279 661.795 L 405.800 665.825 L 403.262 669.753 L 400.667 673.577 L 398.016 677.294 L 395.314 680.901 L 392.563 684.398 L 389.766 687.783 L 386.926 691.053 L 384.046 694.208 L 381.128 697.246 L 378.175 700.166 L 375.192 702.967 L 372.179 705.649 L 369.141 708.211 L 366.080 710.653 L 362.998 712.973 L 359.899 715.174 L 356.784 717.254 L 353.657 719.214 L 350.519 721.055 L 347.373 722.777 L 344.220 724.380 L 341.062 725.867 L 337.901 727.237 L 334.738 728.492 L 331.575 729.633 L 328.411 730.662 L 325.248 731.578 L 322.087 732.383 L 318.927 733.079 L 315.769 733.666 L 312.613 734.145 L 309.458 734.517 L 306.304 734.782 L 303.152 734.941 L 300.000 734.994 L 296.848 734.941 L 293.696 734.782 L 290.542 734.517 L 287.387 734.145 L 284.231 733.666 L 281.073 733.079 L 277.913 732.383 L 274.752 731.578 L 271.589 730.662 L 268.425 729.633 L 265.262 728.492 L 262.099 727.237 L 258.938 725.867 L 255.780 724.380 L 252.627 722.777 L 249.481 721.055 L 246.343 719.214 L 243.216 717.254 L 240.101 715.174 L 237.002 712.973 L 233.920 710.653 L 230.859 708.211 L 227.821 705.649 L 224.808 702.967 L 221.825 700.166 L 218.872 697.246 L 215.954 694.208 L 213.074 691.053 L 210.234 687.783 L 207.437 684.398 L 204.686 680.901 L 201.984 677.294 L 199.333 673.577 L 196.738 669.753 L 194.200 665.825 L 191.721 661.795 L 189.306 657.665 L 186.955 653.437 L 184.672 649.115 L 182.459 644.701 L 180.319 640.199 L 178.253 635.610 L 176.263 630.939 L 174.352 626.189 L 172.522 621.362 L 170.775 616.463 L 169.112 611.494 L 167.535 606.459 L 166.045 601.362 L 164.645 596.206 L 163.335 590.996 L 162.117 585.734 L 160.991 580.424 L 159.960 575.071 L 159.024 569.678 L 158.185 564.250 L 157.442 558.789 L 156.796 553.300 L 156.249 547.787 L 155.801 542.254 L 155.451 536.704 L 155.202 531.143 L 155.052 525.573 L 155.002 520.000 L 155.052 514.427 L 155.202 508.857 L 155.451 503.296 L 155.801 497.746 L 156.249 492.213 L 156.796 486.700 L 157.442 481.211 L 158.185 475.750 L 159.024 470.322 L 159.960 464.929 L 160.991 459.576 L 162.117 454.266 L 163.335 449.004 L 164.645 443.794 L 166.045 438.638 L 167.535 433.541 L 169.112 428.506 L 170.775 423.537 L 172.522 418.638 L 174.352 413.811 L 176.263 409.061 L 178.253 404.390 L 180.319 399.801 L 182.459 395.299 L 184.672 390.885 L 186.955 386.563 L 189.306 382.335 L 191.721 378.205 L 194.200 374.175 L 196.738 370.247 L 199.333 366.423 L 201.984 362.706 L 204.686 359.099 L 207.437 355.602 L 210.234 352.217 L 213.074 348.947 L 215.954 345.792 L 218.872 342.754 L 221.825 339.834 L 224.808 337.033 L 227.821 334.351 L 230.859 331.789 L 233.920 329.347 L 237.002 327.027 L 240.101 324.826 L 243.216 322.746 L 246.343 320.786 L 249.481 318.945 L 252.627 317.223 L 255.780 315.620 L 258.938 314.133 L 262.099 312.763 L 265.262 311.508 L 268.425 310.367 L 271.589 309.338 L 274.752 308.422 L 277.913 307.617 L 281.073 306.921 L 284.231 306.334 L 287.387 305.855 L 290.542 305.483 L 293.696 305.218 L 296.848 305.059 L 300.000 305.006 L 303.152 305.059 L 306.304 305.218 L 309.458 305.483 L 312.613 305.855 L 315.769 306.334 L 318.927 306.921 L 322.087 307.617 L 325.248 308.422 L 328.411 309.338 L 331.575 310.367 L 334.738 311.508 L 337.901 312.763 L 341.062 314.133 L 344.220 315.620 L 347.373 317.223 L 350.519 318.945 L 353.657 320.786 L 356.784 322.746 L 359.899 324.826 L 362.998 327.027 L 366.080 329.347 L 369.141 331.789 L 372.179 334.351 L 375.192 337.033 L 378.175 339.834 L 381.128 342.754 L 384.046 345.792 L 386.926 348.947 L 389.766 352.217 L 392.563 355.602 L 395.314 359.099 L 398.016 362.706 L 400.667 366.423 L 403.262 370.247 L 405.800 374.175 L 408.279 378.205 L 410.694 382.335 L 413.045 386.563 L 415.328 390.885 L 417.541 395.299 L 419.681 399.801 L 421.747 404.390 L 423.737 409.061 L 425.648 413.811 L 427.478 418.638 L 429.225 423.537 L 430.888 428.506 L 432.465 433.541 L 433.955 438.638 L 435.355 443.794 L 436.665 449.004 L 437.883 454.266 L 439.009 459.576 L 440.040 464.929 L 440.976 470.322 L 441.815 475.750 L 442.558 481.211 L 443.204 486.700 L 443.751 492.213 L 444.199 497.746 L 444.549 503.296 L 444.798 508.857 L 444.948 514.427 L 444.998 520.000 Z" fill="black" fill-rule="evenodd"/>
</svg>
