<svg xmlns="http://www.w3.org/2000/svg" viewBox="0 0 600.000 1000">
  <path d="M 486.830 559.583 L 486.786 554.814 L 486.770 553.980 L 486.638 549.214 L 486.607 548.379 L 486.386 543.619 L 486.339 542.784 L 486.030 538.033 L 485.968 537.197 L 485.571 532.457 L 485.493 531.621 L 485.008 526.895 L 484.914 526.058 L 484.341 521.350 L 484.231 520.512 L 483.572 515.824 L 483.446 514.985 L 482.699 510.319 L 482.557 509.479 L 481.724 504.839 L 481.565 503.998 L 480.646 499.386 L 480.470 498.544 L 479.466 493.964 L 479.273 493.120 L 478.185 488.573 L 477.973 487.728 L 476.801 483.219 L 476.572 482.372 L 475.316 477.902 L 475.069 477.053 L 473.731 472.625 L 473.465 471.775 L 472.045 467.392 L 471.760 466.541 L 470.259 462.205 L 469.954 461.353 L 468.374 457.067 L 468.049 456.213 L 466.389 451.980 L 466.044 451.124 L 464.306 446.947 L 463.939 446.090 L 462.125 441.970 L 461.736 441.112 L 459.846 437.052 L 459.435 436.194 L 457.470 432.197 L 457.036 431.338 L 454.998 427.406 L 454.540 426.547 L 452.429 422.682 L 451.948 421.823 L 449.766 418.028 L 449.260 417.170 L 447.008 413.447 L 446.476 412.589 L 444.156 408.940 L 443.598 408.085 L 441.211 404.512 L 440.626 403.658 L 438.174 400.164 L 437.561 399.313 L 435.044 395.900 L 434.404 395.053 L 431.825 391.722 L 431.155 390.879 L 428.515 387.633 L 427.816 386.795 L 425.116 383.636 L 424.387 382.803 L 421.629 379.733 L 420.869 378.907 L 418.055 375.927 L 417.264 375.110 L 414.396 372.222 L 413.572 371.414 L 410.651 368.621 L 409.795 367.823 L 406.824 365.125 L 405.935 364.339 L 402.914 361.739 L 401.992 360.966 L 398.924 358.464 L 397.969 357.707 L 394.855 355.305 L 393.866 354.564 L 390.709 352.265 L 389.687 351.541 L 386.488 349.345 L 385.432 348.642 L 382.193 346.550 L 381.104 345.868 L 377.828 343.882 L 376.705 343.224 L 373.393 341.345 L 372.239 340.713 L 368.893 338.942 L 367.706 338.336 L 364.328 336.675 L 363.111 336.099 L 359.703 334.547 L 358.457 334.002 L 355.021 332.562 L 353.746 332.050 L 350.284 330.722 L 348.982 330.245 L 345.497 329.029 L 344.169 328.589 L 340.662 327.487 L 339.310 327.085 L 335.785 326.098 L 334.411 325.736 L 330.868 324.863 L 329.474 324.543 L 325.916 323.786 L 324.505 323.509 L 320.934 322.867 L 319.508 322.634 L 315.926 322.109 L 314.487 321.921 L 310.897 321.512 L 309.448 321.370 L 305.851 321.078 L 304.395 320.983 L 300.794 320.808 L 299.334 320.760 L 295.731 320.702 L 294.269 320.702 L 290.666 320.760 L 289.206 320.808 L 285.605 320.983 L 284.149 321.078 L 280.552 321.370 L 279.103 321.512 L 275.513 321.921 L 274.074 322.109 L 270.492 322.634 L 269.066 322.867 L 265.495 323.509 L 264.084 323.786 L 260.526 324.543 L 259.132 324.863 L 255.589 325.736 L 254.215 326.098 L 250.690 327.085 L 249.338 327.487 L 245.831 328.589 L 244.503 329.029 L 241.018 330.245 L 239.716 330.722 L 236.254 332.050 L 234.979 332.562 L 231.543 334.002 L 230.297 334.547 L 226.889 336.099 L 225.672 336.675 L 222.294 338.336 L 221.107 338.942 L 217.761 340.713 L 216.607 341.345 L 213.295 343.224 L 212.172 343.882 L 208.896 345.868 L 207.807 346.550 L 204.568 348.642 L 203.512 349.345 L 200.313 351.541 L 199.291 352.265 L 196.134 354.564 L 195.145 355.305 L 192.031 357.707 L 191.076 358.464 L 188.008 360.966 L 187.086 361.739 L 184.065 364.339 L 183.176 365.125 L 180.205 367.823 L 179.349 368.621 L 176.428 371.414 L 175.604 372.222 L 172.736 375.110 L 171.945 375.927 L 169.131 378.907 L 168.371 379.733 L 165.613 382.803 L 164.884 383.636 L 162.184 386.795 L 161.485 387.633 L 158.845 390.879 L 158.175 391.722 L 155.596 395.053 L 154.956 395.900 L 152.439 399.313 L 151.826 400.164 L 149.374 403.658 L 148.789 404.512 L 146.402 408.085 L 145.844 408.940 L 143.524 412.589 L 142.992 413.447 L 140.740 417.170 L 140.234 418.028 L 138.052 421.823 L 137.571 422.682 L 135.460 426.547 L 135.002 427.406 L 132.964 431.338 L 132.530 432.197 L 130.565 436.194 L 130.154 437.052 L 128.264 441.112 L 127.875 441.970 L 126.061 446.090 L 125.694 446.947 L 123.956 451.124 L 123.611 451.980 L 121.951 456.213 L 121.626 457.067 L 120.046 461.353 L 119.741 462.205 L 118.240 466.541 L 117.955 467.392 L 116.535 471.775 L 116.269 472.625 L 114.931 477.053 L 114.684 477.902 L 113.428 482.372 L 113.199 483.219 L 112.027 487.728 L 111.815 488.573 L 110.727 493.120 L 110.534 493.964 L 109.530 498.544 L 109.354 499.386 L 108.435 503.998 L 108.276 504.839 L 107.443 509.479 L 107.301 510.319 L 106.554 514.985 L 106.428 515.824 L 105.769 520.512 L 105.659 521.350 L 105.086 526.058 L 104.992 526.895 L 104.507 531.621 L 104.429 532.457 L 104.032 537.197 L 103.970 538.033 L 103.661 542.784 L 103.614 543.619 L 103.393 548.379 L 103.362 549.214 L 103.230 553.980 L 103.214 554.814 L 103.170 559.583 L 103.170 560.417 L 103.214 565.186 L 103.230 566.020 L 103.362 570.786 L 103.393 571.621 L 103.614 576.381 L 103.661 577.216 L 103.970 581.967 L 104.032 582.803 L 104.429 587.543 L 104.507 588.379 L 104.992 593.105 L 105.086 593.942 L 105.659 598.650 L 105.769 599.488 L 106.428 604.176 L 106.554 605.015 L 107.301 609.681 L 107.443 610.521 L 108.276 615.161 L 108.435 616.002 L 109.354 620.614 L 109.530 621.456 L 110.534 626.036 L 110.727 626.880 L 111.815 631.427 L 112.027 632.272 L 113.199 636.781 L 113.428 637.628 L 114.684 642.098 L 114.931 642.947 L 116.269 647.375 L 116.535 648.225 L 117.955 652.608 L 118.240 653.459 L 119.741 657.795 L 120.046 658.647 L 121.626 662.933 L 121.951 663.787 L 123.611 668.020 L 123.956 668.876 L 125.694 673.053 L 126.061 673.910 L 127.875 678.030 L 128.264 678.888 L 130.154 682.948 L 130.565 683.806 L 132.530 687.803 L 132.964 688.662 L 135.002 692.594 L 135.460 693.453 L 137.571 697.318 L 138.052 698.177 L 140.234 701.972 L 140.740 702.830 L 142.992 706.553 L 143.524 707.411 L 145.844 711.060 L 146.402 711.915 L 148.789 715.488 L 149.374 716.342 L 151.826 719.836 L 152.439 720.687 L 154.956 724.100 L 155.596 724.947 L 158.175 728.278 L 158.845 729.121 L 161.485 732.367 L 162.184 733.205 L 164.884 736.364 L 165.613 737.197 L 168.371 740.267 L 169.131 741.093 L 171.945 744.073 L 172.736 744.890 L 175.604 747.778 L 176.428 748.586 L 179.349 751.379 L 180.205 752.177 L 183.176 754.875 L 184.065 755.661 L 187.086 758.261 L 188.008 759.034 L 191.076 761.536 L 192.031 762.293 L 195.145 764.695 L 196.134 765.436 L 199.291 767.735 L 200.313 768.459 L 203.512 770.655 L 204.568 771.358 L 207.807 773.450 L 208.896 774.132 L 212.172 776.118 L 213.295 776.776 L 216.607 778.655 L 217.761 779.287 L 221.107 781.058 L 222.294 781.664 L 225.672 783.325 L 226.889 783.901 L 230.297 785.453 L 231.543 785.998 L 234.979 787.438 L 236.254 787.950 L 239.716 789.278 L 241.018 789.755 L 244.503 790.971 L 245.831 791.411 L 249.338 792.513 L 250.690 792.915 L 254.215 793.902 L 255.589 794.264 L 259.132 795.137 L 260.526 795.457 L 264.084 796.214 L 265.495 796.491 L 269.066 797.133 L 270.492 797.366 L 274.074 797.891 L 275.513 798.079 L 279.103 798.488 L 280.552 798.630 L 284.149 798.922 L 285.605 799.017 L 289.206 799.192 L 290.666 799.240 L 294.269 799.298 L 295.731 799.298 L 299.334 799.240 L 300.794 799.192 L 304.395 799.017 L 305.851 798.922 L 309.448 798.630 L 310.897 798.488 L 314.487 798.079 L 315.926 797.891 L 319.508 797.366 L 320.934 797.133 L 324.505 796.491 L 325.916 796.214 L 329.474 795.457 L 330.868 795.137 L 334.411 794.264 L 335.785 793.902 L 339.310 792.915 L 340.662 792.513 L 342.780 791.847 L 342.780 885.432 L 299.365 913.341 L 153.906 895.341 L 152.809 895.218 L 151.708 895.123 L 150.606 895.055 L 149.502 895.014 L 148.398 895.000 L 147.294 895.013 L 146.190 895.053 L 145.088 895.121 L 143.987 895.215 L 142.890 895.336 L 141.795 895.484 L 140.705 895.659 L 139.619 895.861 L 138.538 896.089 L 137.463 896.344 L 136.395 896.625 L 135.335 896.932 L 134.282 897.266 L 133.237 897.624 L 132.202 898.009 L 131.176 898.418 L 130.161 898.853 L 129.156 899.313 L 128.164 899.797 L 127.183 900.305 L 126.215 900.837 L 125.261 901.393 L 124.320 901.972 L 123.394 902.574 L 122.483 903.198 L 121.588 903.845 L 120.709 904.513 L 119.846 905.203 L 119.001 905.914 L 118.173 906.645 L 117.364 907.396 L 116.573 908.167 L 115.801 908.958 L 115.049 909.766 L 114.317 910.594 L 113.606 911.438 L 112.916 912.300 L 112.246 913.179 L 111.599 914.074 L 110.974 914.984 L 110.371 915.910 L 109.792 916.850 L 109.235 917.804 L 108.702 918.771 L 108.193 919.751 L 107.708 920.744 L 107.248 921.748 L 106.812 922.763 L 106.402 923.788 L 106.017 924.823 L 105.657 925.867 L 105.323 926.920 L 105.015 927.980 L 104.733 929.048 L 104.477 930.123 L 104.248 931.203 L 104.046 932.289 L 103.870 933.379 L 103.721 934.474 L 103.598 935.571 L 103.503 936.672 L 103.435 937.774 L 103.394 938.878 L 103.380 939.982 L 103.393 941.086 L 103.433 942.190 L 103.501 943.292 L 103.595 944.393 L 103.716 945.490 L 103.864 946.585 L 104.039 947.675 L 104.241 948.761 L 104.469 949.842 L 104.724 950.917 L 105.005 951.985 L 105.312 953.045 L 105.646 954.098 L 106.004 955.143 L 106.389 956.178 L 106.798 957.204 L 107.233 958.219 L 107.693 959.224 L 108.177 960.216 L 108.685 961.197 L 109.217 962.165 L 109.773 963.119 L 110.352 964.060 L 110.954 964.986 L 111.578 965.897 L 112.225 966.792 L 112.893 967.671 L 113.583 968.534 L 114.294 969.379 L 115.025 970.207 L 115.776 971.016 L 116.547 971.807 L 117.338 972.579 L 118.146 973.331 L 118.974 974.063 L 119.818 974.774 L 120.680 975.464 L 121.559 976.134 L 122.454 976.781 L 123.364 977.406 L 124.290 978.009 L 125.230 978.588 L 126.184 979.145 L 127.151 979.678 L 128.131 980.187 L 129.124 980.672 L 130.128 981.132 L 131.143 981.568 L 132.168 981.978 L 133.203 982.363 L 134.247 982.723 L 135.300 983.057 L 136.360 983.365 L 137.428 983.647 L 138.503 983.903 L 139.583 984.132 L 140.669 984.334 L 141.759 984.510 L 142.854 984.659 L 304.474 1004.659 L 305.583 1004.783 L 306.695 1004.878 L 307.809 1004.947 L 308.924 1004.987 L 310.040 1005.000 L 311.156 1004.985 L 312.271 1004.943 L 313.385 1004.873 L 314.497 1004.775 L 315.606 1004.649 L 316.711 1004.497 L 317.813 1004.317 L 318.909 1004.109 L 320.000 1003.875 L 321.085 1003.613 L 322.164 1003.325 L 323.234 1003.010 L 324.297 1002.669 L 325.350 1002.301 L 326.395 1001.907 L 327.429 1001.488 L 328.452 1001.043 L 329.465 1000.573 L 330.465 1000.077 L 331.452 999.557 L 332.427 999.013 L 333.387 998.445 L 334.334 997.853 L 412.114 947.853 L 412.446 947.634 L 412.781 947.416 L 412.907 947.329 L 413.035 947.245 L 413.363 947.017 L 413.691 946.791 L 413.816 946.701 L 413.942 946.614 L 414.263 946.378 L 414.586 946.144 L 414.709 946.051 L 414.832 945.961 L 415.148 945.717 L 415.465 945.476 L 415.585 945.380 L 415.707 945.286 L 416.016 945.035 L 416.328 944.785 L 416.445 944.687 L 416.564 944.590 L 416.868 944.331 L 417.173 944.074 L 417.288 943.973 L 417.404 943.873 L 417.701 943.607 L 418.000 943.343 L 418.113 943.238 L 418.227 943.136 L 418.517 942.863 L 418.809 942.591 L 418.919 942.484 L 419.031 942.379 L 419.314 942.098 L 419.600 941.820 L 419.707 941.710 L 419.816 941.602 L 420.093 941.315 L 420.371 941.029 L 420.476 940.917 L 420.582 940.806 L 420.851 940.512 L 421.123 940.220 L 421.224 940.105 L 421.328 939.992 L 421.590 939.692 L 421.854 939.393 L 421.953 939.275 L 422.054 939.160 L 422.309 938.853 L 422.565 938.548 L 422.661 938.428 L 422.759 938.310 L 423.006 937.997 L 423.256 937.685 L 423.349 937.563 L 423.444 937.443 L 423.683 937.124 L 423.924 936.806 L 424.014 936.682 L 424.106 936.559 L 424.338 936.235 L 424.571 935.911 L 424.658 935.785 L 424.747 935.660 L 424.971 935.329 L 425.196 935.001 L 425.280 934.872 L 425.366 934.745 L 425.581 934.409 L 425.798 934.075 L 425.879 933.944 L 425.962 933.815 L 426.169 933.474 L 426.378 933.135 L 426.455 933.002 L 426.535 932.871 L 426.733 932.525 L 426.934 932.180 L 427.008 932.046 L 427.084 931.913 L 427.274 931.562 L 427.466 931.213 L 427.537 931.077 L 427.610 930.942 L 427.791 930.586 L 427.975 930.233 L 428.042 930.095 L 428.112 929.958 L 428.285 929.598 L 428.460 929.240 L 428.523 929.100 L 428.590 928.962 L 428.753 928.598 L 428.919 928.236 L 428.980 928.095 L 429.043 927.955 L 429.197 927.587 L 429.355 927.221 L 429.412 927.078 L 429.471 926.937 L 429.617 926.566 L 429.765 926.195 L 429.818 926.051 L 429.874 925.909 L 430.011 925.534 L 430.149 925.160 L 430.199 925.015 L 430.252 924.871 L 430.379 924.493 L 430.509 924.116 L 430.555 923.969 L 430.604 923.824 L 430.722 923.443 L 430.842 923.063 L 430.885 922.915 L 430.930 922.769 L 431.039 922.385 L 431.150 922.002 L 431.189 921.854 L 431.231 921.706 L 431.330 921.320 L 431.431 920.934 L 431.467 920.785 L 431.505 920.636 L 431.594 920.248 L 431.687 919.860 L 431.718 919.709 L 431.753 919.560 L 431.833 919.169 L 431.915 918.779 L 431.943 918.628 L 431.974 918.478 L 432.044 918.085 L 432.117 917.693 L 432.142 917.542 L 432.169 917.391 L 432.230 916.997 L 432.293 916.603 L 432.314 916.451 L 432.337 916.299 L 432.388 915.904 L 432.442 915.508 L 432.458 915.356 L 432.478 915.204 L 432.519 914.807 L 432.563 914.411 L 432.576 914.258 L 432.592 914.105 L 432.624 913.708 L 432.658 913.310 L 432.667 913.157 L 432.680 913.004 L 432.701 912.606 L 432.726 912.208 L 432.731 912.055 L 432.740 911.901 L 432.752 911.503 L 432.766 911.104 L 432.768 910.951 L 432.773 910.798 L 432.775 910.399 L 432.780 910.000 L 432.780 727.044 L 434.404 724.947 L 435.044 724.100 L 437.561 720.687 L 438.174 719.836 L 440.626 716.342 L 441.211 715.488 L 443.598 711.915 L 444.156 711.060 L 446.476 707.411 L 447.008 706.553 L 449.260 702.830 L 449.766 701.972 L 451.948 698.177 L 452.429 697.318 L 454.540 693.453 L 454.998 692.594 L 457.036 688.662 L 457.470 687.803 L 459.435 683.806 L 459.846 682.948 L 461.736 678.888 L 462.125 678.030 L 463.939 673.910 L 464.306 673.053 L 466.044 668.876 L 466.389 668.020 L 468.049 663.787 L 468.374 662.933 L 469.954 658.647 L 470.259 657.795 L 471.760 653.459 L 472.045 652.608 L 473.465 648.225 L 473.731 647.375 L 475.069 642.947 L 475.316 642.098 L 476.572 637.628 L 476.801 636.781 L 477.973 632.272 L 478.185 631.427 L 479.273 626.880 L 479.466 626.036 L 480.470 621.456 L 480.646 620.614 L 481.565 616.002 L 481.724 615.161 L 482.557 610.521 L 482.699 609.681 L 483.446 605.015 L 483.572 604.176 L 484.231 599.488 L 484.341 598.650 L 484.914 593.942 L 485.008 593.105 L 485.493 588.379 L 485.571 587.543 L 485.968 582.803 L 486.030 581.967 L 486.339 577.216 L 486.386 576.381 L 486.607 571.621 L 486.638 570.786 L 486.770 566.020 L 486.786 565.186 L 486.830 560.417 L 486.830 559.583 Z M 342.522 691.399 L 340.381 693.051 L 338.229 694.617 L 336.070 696.100 L 333.904 697.499 L 331.734 698.815 L 329.560 700.048 L 327.384 701.199 L 325.208 702.269 L 323.033 703.260 L 320.859 704.171 L 318.687 705.004 L 316.518 705.761 L 314.353 706.441 L 312.190 707.047 L 310.032 707.579 L 307.877 708.038 L 305.725 708.425 L 303.576 708.740 L 301.430 708.984 L 299.285 709.159 L 297.142 709.263 L 295.000 709.298 L 292.858 709.263 L 290.715 709.159 L 288.570 708.984 L 286.424 708.740 L 284.275 708.425 L 282.123 708.038 L 279.968 707.579 L 277.810 707.047 L 275.647 706.441 L 273.482 705.761 L 271.313 705.004 L 269.141 704.171 L 266.967 703.260 L 264.792 702.269 L 262.616 701.199 L 260.440 700.048 L 258.266 698.815 L 256.096 697.499 L 253.930 696.100 L 251.771 694.617 L 249.619 693.051 L 247.478 691.399 L 245.349 689.663 L 243.234 687.842 L 241.135 685.936 L 239.054 683.946 L 236.993 681.871 L 234.956 679.713 L 232.943 677.472 L 230.958 675.149 L 229.002 672.745 L 227.077 670.260 L 225.187 667.696 L 223.333 665.055 L 221.517 662.338 L 219.742 659.545 L 218.009 656.680 L 216.320 653.744 L 214.678 650.738 L 213.085 647.664 L 211.542 644.526 L 210.051 641.324 L 208.614 638.061 L 207.232 634.739 L 205.908 631.361 L 204.642 627.929 L 203.436 624.445 L 202.292 620.913 L 201.211 617.334 L 200.193 613.712 L 199.241 610.049 L 198.355 606.348 L 197.536 602.611 L 196.785 598.842 L 196.103 595.043 L 195.491 591.217 L 194.950 587.367 L 194.479 583.497 L 194.080 579.608 L 193.753 575.705 L 193.498 571.789 L 193.316 567.864 L 193.206 563.934 L 193.170 560.000 L 193.206 556.066 L 193.316 552.136 L 193.498 548.211 L 193.753 544.295 L 194.080 540.392 L 194.479 536.503 L 194.950 532.633 L 195.491 528.783 L 196.103 524.957 L 196.785 521.158 L 197.536 517.389 L 198.355 513.652 L 199.241 509.951 L 200.193 506.288 L 201.211 502.666 L 202.292 499.087 L 203.436 495.555 L 204.642 492.071 L 205.908 488.639 L 207.232 485.261 L 208.614 481.939 L 210.051 478.676 L 211.542 475.474 L 213.085 472.336 L 214.678 469.262 L 216.320 466.256 L 218.009 463.320 L 219.742 460.455 L 221.517 457.662 L 223.333 454.945 L 225.187 452.304 L 227.077 449.740 L 229.002 447.255 L 230.958 444.851 L 232.943 442.528 L 234.956 440.287 L 236.993 438.129 L 239.054 436.054 L 241.135 434.064 L 243.234 432.158 L 245.349 430.337 L 247.478 428.601 L 249.619 426.949 L 251.771 425.383 L 253.930 423.900 L 256.096 422.501 L 258.266 421.185 L 260.440 419.952 L 262.616 418.801 L 264.792 417.731 L 266.967 416.740 L 269.141 415.829 L 271.313 414.996 L 273.482 414.239 L 275.647 413.559 L 277.810 412.953 L 279.968 412.421 L 282.123 411.962 L 284.275 411.575 L 286.424 411.260 L 288.570 411.016 L 290.715 410.841 L 292.858 410.737 L 295.000 410.702 L 297.142 410.737 L 299.285 410.841 L 301.430 411.016 L 303.576 411.260 L 305.725 411.575 L 307.877 411.962 L 310.032 412.421 L 312.190 412.953 L 314.353 413.559 L 316.518 414.239 L 318.687 414.996 L 320.859 415.829 L 323.033 416.740 L 325.208 417.731 L 327.384 418.801 L 329.560 419.952 L 331.734 421.185 L 333.904 422.501 L 336.070 423.900 L 338.229 425.383 L 340.381 426.949 L 342.522 428.601 L 344.651 430.337 L 346.766 432.158 L 348.865 434.064 L 350.946 436.054 L 353.007 438.129 L 355.044 440.287 L 357.057 442.528 L 359.042 444.851 L 360.998 447.255 L 362.923 449.740 L 364.813 452.304 L 366.667 454.945 L 368.483 457.662 L 370.258 460.455 L 371.991 463.320 L 373.680 466.256 L 375.322 469.262 L 376.915 472.336 L 378.458 475.474 L 379.949 478.676 L 381.386 481.939 L 382.768 485.261 L 384.092 488.639 L 385.358 492.071 L 386.564 495.555 L 387.708 499.087 L 388.789 502.666 L 389.807 506.288 L 390.759 509.951 L 391.645 513.652 L 392.464 517.389 L 393.215 521.158 L 393.897 524.957 L 394.509 528.783 L 395.050 532.633 L 395.521 536.503 L 395.920 540.392 L 396.247 544.295 L 396.502 548.211 L 396.684 552.136 L 396.794 556.066 L 396.808 557.597 L 396.559 557.545 L 395.473 557.343 L 394.383 557.167 L 393.288 557.018 L 392.191 556.897 L 391.090 556.802 L 389.988 556.734 L 388.884 556.694 L 387.780 556.680 L 386.676 556.694 L 385.572 556.734 L 384.470 556.802 L 383.369 556.897 L 382.272 557.018 L 381.177 557.167 L 380.087 557.343 L 379.001 557.545 L 377.920 557.773 L 376.846 558.029 L 375.778 558.310 L 374.717 558.618 L 373.664 558.951 L 372.620 559.311 L 371.585 559.695 L 370.559 560.105 L 369.544 560.541 L 368.540 561.000 L 367.547 561.485 L 366.567 561.994 L 365.600 562.526 L 364.645 563.082 L 363.705 563.662 L 362.779 564.264 L 361.869 564.889 L 360.974 565.536 L 360.095 566.204 L 359.232 566.895 L 358.387 567.606 L 357.560 568.337 L 356.751 569.089 L 355.960 569.860 L 355.189 570.651 L 354.437 571.460 L 353.706 572.287 L 352.995 573.132 L 352.304 573.995 L 351.636 574.874 L 350.989 575.769 L 350.364 576.679 L 349.762 577.605 L 349.182 578.545 L 348.626 579.500 L 348.094 580.467 L 347.585 581.447 L 347.100 582.440 L 346.641 583.444 L 346.205 584.459 L 345.795 585.485 L 345.411 586.520 L 345.051 587.564 L 344.718 588.617 L 344.410 589.678 L 344.129 590.746 L 343.873 591.820 L 343.645 592.901 L 343.443 593.987 L 343.267 595.077 L 343.118 596.172 L 342.997 597.269 L 342.902 598.370 L 342.834 599.472 L 342.794 600.576 L 342.780 601.680 L 342.780 691.189 L 342.522 691.399 Z" fill="black" fill-rule="evenodd"/>
</svg>
