<svg xmlns="http://www.w3.org/2000/svg" viewBox="0 0 600.000 1000" width="600.000" height="1000">
  <path d="M 250.000 405.000 L 250.000 780.000 L 250.014 781.104 L 250.054 782.208 L 250.122 783.310 L 250.217 784.411 L 250.338 785.508 L 250.487 786.603 L 250.663 787.693 L 250.865 788.779 L 251.093 789.860 L 251.349 790.934 L 251.630 792.002 L 251.938 793.063 L 252.271 794.116 L 252.631 795.160 L 253.015 796.195 L 253.425 797.221 L 253.861 798.236 L 254.320 799.240 L 254.805 800.233 L 255.314 801.213 L 255.846 802.180 L 256.402 803.135 L 256.982 804.075 L 257.584 805.001 L 258.209 805.911 L 258.856 806.806 L 259.524 807.685 L 260.215 808.548 L 260.926 809.393 L 261.657 810.220 L 262.409 811.029 L 263.180 811.820 L 263.971 812.591 L 264.780 813.343 L 265.607 814.074 L 266.452 814.785 L 267.315 815.476 L 268.194 816.144 L 269.089 816.791 L 269.999 817.416 L 270.925 818.018 L 271.865 818.598 L 272.820 819.154 L 273.787 819.686 L 274.767 820.195 L 275.760 820.680 L 276.764 821.139 L 277.779 821.575 L 278.805 821.985 L 279.840 822.369 L 280.884 822.729 L 281.937 823.062 L 282.998 823.370 L 284.066 823.651 L 285.140 823.907 L 286.221 824.135 L 287.307 824.337 L 288.397 824.513 L 289.492 824.662 L 290.589 824.783 L 291.690 824.878 L 292.792 824.946 L 293.896 824.986 L 295.000 825.000 L 296.104 824.986 L 297.208 824.946 L 298.310 824.878 L 299.411 824.783 L 300.508 824.662 L 301.603 824.513 L 302.693 824.337 L 303.779 824.135 L 304.860 823.907 L 305.934 823.651 L 307.002 823.370 L 308.063 823.062 L 309.116 822.729 L 310.160 822.369 L 311.195 821.985 L 312.221 821.575 L 313.236 821.139 L 314.240 820.680 L 315.233 820.195 L 316.213 819.686 L 317.180 819.154 L 318.135 818.598 L 319.075 818.018 L 320.001 817.416 L 320.911 816.791 L 321.806 816.144 L 322.685 815.476 L 323.548 814.785 L 324.393 814.074 L 325.220 813.343 L 326.029 812.591 L 326.820 811.820 L 327.591 811.029 L 328.343 810.220 L 329.074 809.393 L 329.785 808.548 L 330.476 807.685 L 331.144 806.806 L 331.791 805.911 L 332.416 805.001 L 333.018 804.075 L 333.598 803.135 L 334.154 802.180 L 334.686 801.213 L 335.195 800.233 L 335.680 799.240 L 336.139 798.236 L 336.575 797.221 L 336.985 796.195 L 337.369 795.160 L 337.729 794.116 L 338.062 793.063 L 338.370 792.002 L 338.651 790.934 L 338.907 789.860 L 339.135 788.779 L 339.337 787.693 L 339.513 786.603 L 339.662 785.508 L 339.783 784.411 L 339.878 783.310 L 339.946 782.208 L 339.986 781.104 L 340.000 780.000 L 340.000 405.000 L 425.000 405.000 L 425.000 780.000 L 425.014 781.104 L 425.054 782.208 L 425.122 783.310 L 425.217 784.411 L 425.338 785.508 L 425.487 786.603 L 425.663 787.693 L 425.865 788.779 L 426.093 789.860 L 426.349 790.934 L 426.630 792.002 L 426.938 793.063 L 427.271 794.116 L 427.631 795.160 L 428.015 796.195 L 428.425 797.221 L 428.861 798.236 L 429.320 799.240 L 429.805 800.233 L 430.314 801.213 L 430.846 802.180 L 431.402 803.135 L 431.982 804.075 L 432.584 805.001 L 433.209 805.911 L 433.856 806.806 L 434.524 807.685 L 435.215 808.548 L 435.926 809.393 L 436.657 810.220 L 437.409 811.029 L 438.180 811.820 L 438.971 812.591 L 439.780 813.343 L 440.607 814.074 L 441.452 814.785 L 442.315 815.476 L 443.194 816.144 L 444.089 816.791 L 444.999 817.416 L 445.925 818.018 L 446.865 818.598 L 447.820 819.154 L 448.787 819.686 L 449.767 820.195 L 450.760 820.680 L 451.764 821.139 L 452.779 821.575 L 453.805 821.985 L 454.840 822.369 L 455.884 822.729 L 456.937 823.062 L 457.998 823.370 L 459.066 823.651 L 460.140 823.907 L 461.221 824.135 L 462.307 824.337 L 463.397 824.513 L 464.492 824.662 L 465.589 824.783 L 466.690 824.878 L 467.792 824.946 L 468.896 824.986 L 470.000 825.000 L 471.104 824.986 L 472.208 824.946 L 473.310 824.878 L 474.411 824.783 L 475.508 824.662 L 476.603 824.513 L 477.693 824.337 L 478.779 824.135 L 479.860 823.907 L 480.934 823.651 L 482.002 823.370 L 483.063 823.062 L 484.116 822.729 L 485.160 822.369 L 486.195 821.985 L 487.221 821.575 L 488.236 821.139 L 489.240 820.680 L 490.233 820.195 L 491.213 819.686 L 492.180 819.154 L 493.135 818.598 L 494.075 818.018 L 495.001 817.416 L 495.911 816.791 L 496.806 816.144 L 497.685 815.476 L 498.548 814.785 L 499.393 814.074 L 500.220 813.343 L 501.029 812.591 L 501.820 811.820 L 502.591 811.029 L 503.343 810.220 L 504.074 809.393 L 504.785 808.548 L 505.476 807.685 L 506.144 806.806 L 506.791 805.911 L 507.416 805.001 L 508.018 804.075 L 508.598 803.135 L 509.154 802.180 L 509.686 801.213 L 510.195 800.233 L 510.680 799.240 L 511.139 798.236 L 511.575 797.221 L 511.985 796.195 L 512.369 795.160 L 512.729 794.116 L 513.062 793.063 L 513.370 792.002 L 513.651 790.934 L 513.907 789.860 L 514.135 788.779 L 514.337 787.693 L 514.513 786.603 L 514.662 785.508 L 514.783 784.411 L 514.878 783.310 L 514.946 782.208 L 514.986 781.104 L 515.000 780.000 L 515.000 360.000 L 514.986 358.896 L 514.946 357.792 L 514.878 356.690 L 514.783 355.589 L 514.662 354.492 L 514.513 353.397 L 514.337 352.307 L 514.135 351.221 L 513.907 350.140 L 513.651 349.066 L 513.370 347.998 L 513.062 346.937 L 512.729 345.884 L 512.369 344.840 L 511.985 343.805 L 511.575 342.779 L 511.139 341.764 L 510.680 340.760 L 510.195 339.767 L 509.686 338.787 L 509.154 337.820 L 508.598 336.865 L 508.018 335.925 L 507.416 334.999 L 506.791 334.089 L 506.144 333.194 L 505.476 332.315 L 504.785 331.452 L 504.074 330.607 L 503.343 329.780 L 502.591 328.971 L 501.820 328.180 L 501.029 327.409 L 500.220 326.657 L 499.393 325.926 L 498.548 325.215 L 497.685 324.524 L 496.806 323.856 L 495.911 323.209 L 495.001 322.584 L 494.075 321.982 L 493.135 321.402 L 492.180 320.846 L 491.213 320.314 L 490.233 319.805 L 489.240 319.320 L 488.236 318.861 L 487.221 318.425 L 486.195 318.015 L 485.160 317.631 L 484.116 317.271 L 483.063 316.938 L 482.002 316.630 L 480.934 316.349 L 479.860 316.093 L 478.779 315.865 L 477.693 315.663 L 476.603 315.487 L 475.508 315.338 L 474.411 315.217 L 473.310 315.122 L 472.208 315.054 L 471.104 315.014 L 470.000 315.000 L 295.000 315.000 L 130.000 315.000 L 128.896 315.014 L 127.792 315.054 L 126.690 315.122 L 125.589 315.217 L 124.492 315.338 L 123.397 315.487 L 122.307 315.663 L 121.221 315.865 L 120.140 316.093 L 119.066 316.349 L 117.998 316.630 L 116.937 316.938 L 115.884 317.271 L 114.840 317.631 L 113.805 318.015 L 112.779 318.425 L 111.764 318.861 L 110.760 319.320 L 109.767 319.805 L 108.787 320.314 L 107.820 320.846 L 106.865 321.402 L 105.925 321.982 L 104.999 322.584 L 104.089 323.209 L 103.194 323.856 L 102.315 324.524 L 101.452 325.215 L 100.607 325.926 L 99.780 326.657 L 98.971 327.409 L 98.180 328.180 L 97.409 328.971 L 96.657 329.780 L 95.926 330.607 L 95.215 331.452 L 94.524 332.315 L 93.856 333.194 L 93.209 334.089 L 92.584 334.999 L 91.982 335.925 L 91.402 336.865 L 90.846 337.820 L 90.314 338.787 L 89.805 339.767 L 89.320 340.760 L 88.861 341.764 L 88.425 342.779 L 88.015 343.805 L 87.631 344.840 L 87.271 345.884 L 86.938 346.937 L 86.630 347.998 L 86.349 349.066 L 86.093 350.140 L 85.865 351.221 L 85.663 352.307 L 85.487 353.397 L 85.338 354.492 L 85.217 355.589 L 85.122 356.690 L 85.054 357.792 L 85.014 358.896 L 85.000 360.000 L 85.000 780.000 L 85.014 781.104 L 85.054 782.208 L 85.122 783.310 L 85.217 784.411 L 85.338 785.508 L 85.487 786.603 L 85.663 787.693 L 85.865 788.779 L 86.093 789.860 L 86.349 790.934 L 86.630 792.002 L 86.938 793.063 L 87.271 794.116 L 87.631 795.160 L 88.015 796.195 L 88.425 797.221 L 88.861 798.236 L 89.320 799.240 L 89.805 800.233 L 90.314 801.213 L 90.846 802.180 L 91.402 803.135 L 91.982 804.075 L 92.584 805.001 L 93.209 805.911 L 93.856 806.806 L 94.524 807.685 L 95.215 808.548 L 95.926 809.393 L 96.657 810.220 L 97.409 811.029 L 98.180 811.820 L 98.971 812.591 L 99.780 813.343 L 100.607 814.074 L 101.452 814.785 L 102.315 815.476 L 103.194 816.144 L 104.089 816.791 L 104.999 817.416 L 105.925 818.018 L 106.865 818.598 L 107.820 819.154 L 108.787 819.686 L 109.767 820.195 L 110.760 820.680 L 111.764 821.139 L 112.779 821.575 L 113.805 821.985 L 114.840 822.369 L 115.884 822.729 L 116.937 823.062 L 117.998 823.370 L 119.066 823.651 L 120.140 823.907 L 121.221 824.135 L 122.307 824.337 L 123.397 824.513 L 124.492 824.662 L 125.589 824.783 L 126.690 824.878 L 127.792 824.946 L 128.896 824.986 L 130.000 825.000 L 131.104 824.986 L 132.208 824.946 L 133.310 824.878 L 134.411 824.783 L 135.508 824.662 L 136.603 824.513 L 137.693 824.337 L 138.779 824.135 L 139.860 823.907 L 140.934 823.651 L 142.002 823.370 L 143.063 823.062 L 144.116 822.729 L 145.160 822.369 L 146.195 821.985 L 147.221 821.575 L 148.236 821.139 L 149.240 820.680 L 150.233 820.195 L 151.213 819.686 L 152.180 819.154 L 153.135 818.598 L 154.075 818.018 L 155.001 817.416 L 155.911 816.791 L 156.806 816.144 L 157.685 815.476 L 158.548 814.785 L 159.393 814.074 L 160.220 813.343 L 161.029 812.591 L 161.820 811.820 L 162.591 811.029 L 163.343 810.220 L 164.074 809.393 L 164.785 808.548 L 165.476 807.685 L 166.144 806.806 L 166.791 805.911 L 167.416 805.001 L 168.018 804.075 L 168.598 803.135 L 169.154 802.180 L 169.686 801.213 L 170.195 800.233 L 170.680 799.240 L 171.139 798.236 L 171.575 797.221 L 171.985 796.195 L 172.369 795.160 L 172.729 794.116 L 173.062 793.063 L 173.370 792.002 L 173.651 790.934 L 173.907 789.860 L 174.135 788.779 L 174.337 787.693 L 174.513 786.603 L 174.662 785.508 L 174.783 784.411 L 174.878 783.310 L 174.946 782.208 L 174.986 781.104 L 175.000 780.000 L 175.000 405.000 L 250.000 405.000 Z" fill="black" fill-rule="evenodd"/>
</svg>
