<svg xmlns="http://www.w3.org/2000/svg" viewBox="0 0 600.000 1000">
  <path d="M 329.234 189.043 L 329.187 188.087 L 329.109 187.133 L 329.000 186.182 L 328.859 185.235 L 328.688 184.294 L 328.486 183.358 L 328.253 182.430 L 327.991 181.509 L 327.698 180.598 L 327.375 179.697 L 327.023 178.807 L 326.643 177.928 L 326.234 177.063 L 325.796 176.212 L 325.331 175.375 L 324.839 174.554 L 324.320 173.750 L 323.776 172.963 L 323.206 172.194 L 322.611 171.444 L 321.991 170.714 L 321.349 170.005 L 320.683 169.317 L 319.995 168.651 L 319.286 168.009 L 318.556 167.389 L 317.806 166.794 L 317.037 166.224 L 316.250 165.680 L 315.446 165.161 L 314.625 164.669 L 313.788 164.204 L 312.937 163.766 L 312.072 163.357 L 311.193 162.977 L 310.303 162.625 L 309.402 162.302 L 308.491 162.009 L 307.570 161.747 L 306.642 161.514 L 305.706 161.312 L 304.765 161.141 L 303.818 161.000 L 302.867 160.891 L 301.913 160.813 L 300.957 160.766 L 300.000 160.750 L 299.043 160.766 L 298.087 160.813 L 297.133 160.891 L 296.182 161.000 L 295.235 161.141 L 294.294 161.312 L 293.358 161.514 L 292.430 161.747 L 291.509 162.009 L 290.598 162.302 L 289.697 162.625 L 288.807 162.977 L 287.928 163.357 L 287.063 163.766 L 286.212 164.204 L 285.375 164.669 L 284.554 165.161 L 283.750 165.680 L 282.963 166.224 L 282.194 166.794 L 281.444 167.389 L 280.714 168.009 L 280.005 168.651 L 279.317 169.317 L 278.651 170.005 L 278.009 170.714 L 277.389 171.444 L 276.794 172.194 L 276.224 172.963 L 275.680 173.750 L 275.161 174.554 L 274.669 175.375 L 274.204 176.212 L 273.766 177.063 L 273.357 177.928 L 272.977 178.807 L 272.625 179.697 L 272.302 180.598 L 272.009 181.509 L 271.747 182.430 L 271.514 183.358 L 271.312 184.294 L 271.141 185.235 L 271.000 186.182 L 270.891 187.133 L 270.813 188.087 L 270.766 189.043 L 270.750 190.000 L 270.766 190.957 L 270.813 191.913 L 270.891 192.867 L 271.000 193.818 L 271.141 194.765 L 271.312 195.706 L 271.514 196.642 L 271.747 197.570 L 272.009 198.491 L 272.302 199.402 L 272.625 200.303 L 272.977 201.193 L 273.357 202.072 L 273.766 202.937 L 274.204 203.788 L 274.669 204.625 L 275.161 205.446 L 275.680 206.250 L 276.224 207.037 L 276.794 207.806 L 277.389 208.556 L 278.009 209.286 L 278.651 209.995 L 279.317 210.683 L 280.005 211.349 L 280.714 211.991 L 281.444 212.611 L 282.194 213.206 L 282.963 213.776 L 283.750 214.320 L 284.554 214.839 L 285.375 215.331 L 286.212 215.796 L 287.063 216.234 L 287.928 216.643 L 287.945 216.650 L 286.937 216.938 L 285.535 217.388 L 284.149 217.884 L 282.779 218.425 L 281.428 219.011 L 280.097 219.641 L 278.787 220.314 L 277.500 221.029 L 276.237 221.786 L 274.999 222.584 L 273.789 223.422 L 272.606 224.299 L 271.452 225.215 L 270.329 226.167 L 269.238 227.156 L 268.180 228.180 L 267.156 229.238 L 266.167 230.329 L 265.215 231.452 L 264.299 232.606 L 263.422 233.789 L 262.584 234.999 L 261.786 236.237 L 261.029 237.500 L 260.314 238.787 L 259.641 240.097 L 259.011 241.428 L 258.425 242.779 L 257.884 244.149 L 257.388 245.535 L 256.938 246.937 L 256.533 248.353 L 256.176 249.782 L 255.865 251.221 L 255.601 252.670 L 255.385 254.126 L 255.217 255.589 L 255.096 257.057 L 255.024 258.528 L 255.000 260.000 L 255.000 939.401 L 254.878 943.991 L 254.559 947.970 L 254.029 951.927 L 253.290 955.850 L 252.342 959.728 L 251.190 963.551 L 249.835 967.306 L 248.283 970.984 L 246.537 974.575 L 244.603 978.067 L 242.485 981.451 L 240.191 984.718 L 237.725 987.858 L 235.096 990.863 L 232.311 993.723 L 229.378 996.431 L 226.304 998.979 L 223.100 1001.360 L 219.773 1003.567 L 216.334 1005.593 L 212.791 1007.434 L 209.156 1009.084 L 205.438 1010.538 L 201.647 1011.791 L 197.796 1012.842 L 193.894 1013.686 L 189.952 1014.321 L 185.983 1014.745 L 181.996 1014.957 L 178.004 1014.957 L 174.017 1014.745 L 170.048 1014.321 L 166.106 1013.686 L 162.204 1012.842 L 158.353 1011.791 L 154.562 1010.538 L 150.844 1009.084 L 147.209 1007.434 L 143.666 1005.593 L 140.227 1003.567 L 136.900 1001.360 L 133.696 998.979 L 130.622 996.431 L 127.689 993.723 L 124.904 990.863 L 122.275 987.858 L 119.809 984.718 L 117.515 981.451 L 115.397 978.067 L 113.463 974.575 L 111.717 970.984 L 110.165 967.306 L 108.810 963.551 L 107.658 959.728 L 106.710 955.850 L 105.971 951.927 L 105.441 947.970 L 105.122 943.991 L 104.984 938.802 L 104.921 937.331 L 104.809 935.863 L 104.650 934.399 L 104.443 932.941 L 104.188 931.490 L 103.886 930.049 L 103.537 928.619 L 103.141 927.200 L 102.699 925.795 L 102.212 924.406 L 101.679 923.033 L 101.101 921.679 L 100.480 920.344 L 99.815 919.030 L 99.108 917.738 L 98.358 916.471 L 97.568 915.228 L 96.737 914.012 L 95.867 912.824 L 94.959 911.665 L 94.013 910.536 L 93.031 909.439 L 92.013 908.375 L 90.961 907.344 L 89.876 906.349 L 88.759 905.389 L 87.612 904.467 L 86.434 903.583 L 85.228 902.737 L 83.996 901.932 L 82.737 901.167 L 81.455 900.444 L 80.149 899.763 L 78.822 899.125 L 77.474 898.531 L 76.108 897.982 L 74.724 897.477 L 73.325 897.018 L 71.912 896.605 L 70.486 896.239 L 69.048 895.919 L 67.601 895.647 L 66.146 895.422 L 64.684 895.244 L 63.217 895.115 L 61.747 895.034 L 60.275 895.001 L 58.802 895.016 L 57.331 895.079 L 55.863 895.191 L 54.399 895.350 L 52.941 895.557 L 51.490 895.812 L 50.049 896.114 L 48.619 896.463 L 47.200 896.859 L 45.795 897.301 L 44.406 897.788 L 43.033 898.321 L 41.679 898.899 L 40.344 899.520 L 39.030 900.185 L 37.738 900.892 L 36.471 901.642 L 35.228 902.432 L 34.012 903.263 L 32.824 904.133 L 31.665 905.041 L 30.536 905.987 L 29.439 906.969 L 28.375 907.987 L 27.344 909.039 L 26.349 910.124 L 25.389 911.241 L 24.467 912.388 L 23.583 913.566 L 22.737 914.772 L 21.932 916.004 L 21.167 917.263 L 20.444 918.545 L 19.763 919.851 L 19.125 921.178 L 18.531 922.526 L 17.982 923.892 L 17.477 925.276 L 17.018 926.675 L 16.605 928.088 L 16.239 929.514 L 15.919 930.952 L 15.647 932.399 L 15.422 933.854 L 15.244 935.316 L 15.115 936.783 L 15.034 938.253 L 15.001 939.725 L 15.016 941.198 L 15.186 947.585 L 15.234 948.782 L 15.314 949.977 L 15.823 956.346 L 15.935 957.538 L 16.078 958.728 L 16.926 965.060 L 17.101 966.245 L 17.307 967.426 L 18.491 973.704 L 18.728 974.878 L 18.997 976.046 L 20.514 982.252 L 20.813 983.412 L 21.144 984.563 L 22.988 990.680 L 23.349 991.823 L 23.741 992.955 L 25.908 998.965 L 26.330 1000.086 L 26.781 1001.196 L 29.265 1007.083 L 29.745 1008.180 L 30.255 1009.264 L 33.049 1015.010 L 33.587 1016.080 L 34.153 1017.136 L 37.249 1022.725 L 37.844 1023.765 L 38.465 1024.789 L 41.854 1030.205 L 42.503 1031.212 L 43.179 1032.201 L 46.851 1037.430 L 47.553 1038.401 L 48.280 1039.353 L 52.225 1044.378 L 52.977 1045.310 L 53.754 1046.222 L 57.961 1051.030 L 58.762 1051.921 L 59.587 1052.791 L 64.044 1057.368 L 64.891 1058.215 L 65.760 1059.040 L 70.455 1063.373 L 71.346 1064.174 L 72.258 1064.951 L 77.176 1069.029 L 78.108 1069.781 L 79.061 1070.508 L 84.189 1074.318 L 85.160 1075.020 L 86.150 1075.695 L 91.473 1079.227 L 92.481 1079.876 L 93.505 1080.498 L 99.009 1083.742 L 100.049 1084.336 L 101.105 1084.902 L 106.774 1087.848 L 107.844 1088.387 L 108.929 1088.896 L 114.747 1091.536 L 115.844 1092.016 L 116.954 1092.468 L 122.904 1094.794 L 124.026 1095.216 L 125.158 1095.607 L 131.224 1097.614 L 132.366 1097.975 L 133.517 1098.305 L 139.681 1099.986 L 140.841 1100.286 L 142.009 1100.555 L 148.253 1101.905 L 149.427 1102.143 L 150.607 1102.349 L 156.915 1103.365 L 158.100 1103.540 L 159.290 1103.683 L 165.642 1104.363 L 166.835 1104.474 L 168.031 1104.554 L 174.411 1104.894 L 175.608 1104.942 L 176.806 1104.957 L 183.194 1104.957 L 184.392 1104.942 L 185.589 1104.894 L 191.969 1104.554 L 193.165 1104.474 L 194.358 1104.363 L 200.710 1103.683 L 201.900 1103.540 L 203.085 1103.365 L 209.393 1102.349 L 210.573 1102.143 L 211.747 1101.905 L 217.991 1100.555 L 219.159 1100.286 L 220.319 1099.986 L 226.483 1098.305 L 227.634 1097.975 L 228.776 1097.614 L 234.842 1095.607 L 235.974 1095.216 L 237.096 1094.794 L 243.046 1092.468 L 244.156 1092.016 L 245.253 1091.536 L 251.071 1088.896 L 252.156 1088.387 L 253.226 1087.848 L 258.895 1084.902 L 259.951 1084.336 L 260.991 1083.742 L 266.495 1080.498 L 267.519 1079.876 L 268.527 1079.227 L 273.850 1075.695 L 274.840 1075.020 L 275.811 1074.318 L 280.939 1070.508 L 281.892 1069.781 L 282.824 1069.029 L 287.742 1064.951 L 288.654 1064.174 L 289.545 1063.373 L 294.240 1059.040 L 295.109 1058.215 L 295.956 1057.368 L 300.413 1052.791 L 301.238 1051.921 L 302.039 1051.030 L 306.246 1046.222 L 307.023 1045.310 L 307.775 1044.378 L 307.830 1044.308 L 308.779 1044.135 L 310.218 1043.824 L 311.647 1043.467 L 313.063 1043.062 L 314.465 1042.612 L 315.851 1042.116 L 317.221 1041.575 L 318.572 1040.989 L 319.903 1040.359 L 321.213 1039.686 L 322.500 1038.971 L 323.763 1038.214 L 325.001 1037.416 L 326.211 1036.578 L 327.394 1035.701 L 328.548 1034.785 L 329.671 1033.833 L 330.762 1032.844 L 331.820 1031.820 L 332.844 1030.762 L 333.833 1029.671 L 334.785 1028.548 L 335.701 1027.394 L 336.578 1026.211 L 337.416 1025.001 L 338.214 1023.763 L 338.971 1022.500 L 339.686 1021.213 L 340.359 1019.903 L 340.989 1018.572 L 341.575 1017.221 L 342.116 1015.851 L 342.612 1014.465 L 343.062 1013.063 L 343.467 1011.647 L 343.824 1010.218 L 344.135 1008.779 L 344.399 1007.330 L 344.615 1005.874 L 344.783 1004.411 L 344.904 1002.943 L 344.976 1001.472 L 345.000 1000.000 L 345.000 260.000 L 344.976 258.528 L 344.904 257.057 L 344.783 255.589 L 344.615 254.126 L 344.399 252.670 L 344.135 251.221 L 343.824 249.782 L 343.467 248.353 L 343.062 246.937 L 342.612 245.535 L 342.116 244.149 L 341.575 242.779 L 340.989 241.428 L 340.359 240.097 L 339.686 238.787 L 338.971 237.500 L 338.214 236.237 L 337.416 234.999 L 336.578 233.789 L 335.701 232.606 L 334.785 231.452 L 333.833 230.329 L 332.844 229.238 L 331.820 228.180 L 330.762 227.156 L 329.671 226.167 L 328.548 225.215 L 327.394 224.299 L 326.211 223.422 L 325.001 222.584 L 323.763 221.786 L 322.500 221.029 L 321.213 220.314 L 319.903 219.641 L 318.572 219.011 L 317.221 218.425 L 315.851 217.884 L 314.465 217.388 L 313.063 216.938 L 312.055 216.650 L 312.072 216.643 L 312.937 216.234 L 313.788 215.796 L 314.625 215.331 L 315.446 214.839 L 316.250 214.320 L 317.037 213.776 L 317.806 213.206 L 318.556 212.611 L 319.286 211.991 L 319.995 211.349 L 320.683 210.683 L 321.349 209.995 L 321.991 209.286 L 322.611 208.556 L 323.206 207.806 L 323.776 207.037 L 324.320 206.250 L 324.839 205.446 L 325.331 204.625 L 325.796 203.788 L 326.234 202.937 L 326.643 202.072 L 327.023 201.193 L 327.375 200.303 L 327.698 199.402 L 327.991 198.491 L 328.253 197.570 L 328.486 196.642 L 328.688 195.706 L 328.859 194.765 L 329.000 193.818 L 329.109 192.867 L 329.187 191.913 L 329.234 190.957 L 329.250 190.000 L 329.234 189.043 Z" fill="black" fill-rule="evenodd"/>
</svg>
