<svg xmlns="http://www.w3.org/2000/svg" viewBox="0 0 600.000 1000">
  <path d="M 205.144 256.220 L 205.253 254.959 L 205.393 253.697 L 205.566 252.434 L 205.770 251.170 L 206.006 249.904 L 206.274 248.637 L 206.576 247.368 L 206.910 246.098 L 207.278 244.826 L 207.679 243.552 L 208.114 242.278 L 208.584 241.001 L 209.089 239.724 L 209.629 238.446 L 210.205 237.167 L 210.817 235.888 L 211.465 234.609 L 212.150 233.331 L 212.873 232.054 L 213.632 230.778 L 214.429 229.505 L 215.264 228.234 L 216.138 226.967 L 217.049 225.704 L 217.999 224.446 L 218.988 223.193 L 220.016 221.946 L 221.082 220.706 L 222.186 219.475 L 223.330 218.251 L 224.512 217.038 L 225.732 215.835 L 226.991 214.643 L 228.288 213.463 L 229.622 212.296 L 230.994 211.143 L 232.403 210.004 L 233.849 208.881 L 235.331 207.775 L 236.849 206.686 L 238.402 205.615 L 239.990 204.563 L 241.612 203.531 L 243.268 202.520 L 244.957 201.530 L 246.678 200.563 L 248.431 199.618 L 250.214 198.698 L 252.028 197.802 L 253.870 196.931 L 255.742 196.086 L 257.640 195.269 L 259.565 194.478 L 261.516 193.716 L 263.492 192.982 L 265.492 192.277 L 267.514 191.602 L 269.559 190.958 L 271.624 190.344 L 273.709 189.761 L 275.813 189.211 L 277.934 188.693 L 280.073 188.207 L 282.226 187.754 L 284.395 187.335 L 286.576 186.950 L 288.770 186.598 L 290.975 186.281 L 293.190 185.999 L 295.413 185.751 L 297.644 185.539 L 299.882 185.361 L 302.125 185.219 L 304.372 185.113 L 306.622 185.041 L 308.874 185.006 L 311.126 185.006 L 313.378 185.041 L 315.628 185.113 L 317.875 185.219 L 320.118 185.361 L 322.356 185.539 L 324.587 185.751 L 326.810 185.999 L 329.025 186.281 L 331.230 186.598 L 333.424 186.950 L 335.605 187.335 L 337.774 187.754 L 339.927 188.207 L 342.066 188.693 L 344.187 189.211 L 346.291 189.761 L 348.376 190.344 L 350.441 190.958 L 352.486 191.602 L 354.508 192.277 L 356.508 192.982 L 358.484 193.716 L 360.435 194.478 L 362.360 195.269 L 364.258 196.086 L 366.130 196.931 L 367.972 197.802 L 369.786 198.698 L 371.569 199.618 L 373.322 200.563 L 375.043 201.530 L 376.732 202.520 L 378.388 203.531 L 380.010 204.563 L 381.598 205.615 L 383.151 206.686 L 384.669 207.775 L 386.151 208.881 L 387.597 210.004 L 389.006 211.143 L 390.378 212.296 L 391.712 213.463 L 393.009 214.643 L 394.268 215.835 L 395.488 217.038 L 396.670 218.251 L 397.814 219.475 L 398.918 220.706 L 399.984 221.946 L 401.012 223.193 L 402.001 224.446 L 402.951 225.704 L 403.862 226.967 L 404.736 228.234 L 405.571 229.505 L 406.368 230.778 L 407.127 232.054 L 407.850 233.331 L 408.535 234.609 L 409.183 235.888 L 409.795 237.167 L 410.371 238.446 L 410.911 239.724 L 411.416 241.001 L 411.886 242.278 L 412.321 243.552 L 412.722 244.826 L 413.090 246.098 L 413.424 247.368 L 413.726 248.637 L 413.994 249.904 L 414.230 251.170 L 414.434 252.434 L 414.607 253.697 L 414.747 254.959 L 414.856 256.220 L 414.934 257.481 L 414.981 258.740 L 415.000 260.278 L 415.000 780.000 L 415.014 781.104 L 415.054 782.208 L 415.122 783.310 L 415.217 784.411 L 415.338 785.508 L 415.487 786.603 L 415.663 787.693 L 415.865 788.779 L 416.093 789.860 L 416.349 790.934 L 416.630 792.002 L 416.938 793.063 L 417.271 794.116 L 417.631 795.160 L 418.015 796.195 L 418.425 797.221 L 418.861 798.236 L 419.320 799.240 L 419.805 800.233 L 420.314 801.213 L 420.846 802.180 L 421.402 803.135 L 421.982 804.075 L 422.584 805.001 L 423.209 805.911 L 423.856 806.806 L 424.524 807.685 L 425.215 808.548 L 425.926 809.393 L 426.657 810.220 L 427.409 811.029 L 428.180 811.820 L 428.971 812.591 L 429.780 813.343 L 430.607 814.074 L 431.452 814.785 L 432.315 815.476 L 433.194 816.144 L 434.089 816.791 L 434.999 817.416 L 435.925 818.018 L 436.865 818.598 L 437.820 819.154 L 438.787 819.686 L 439.767 820.195 L 440.760 820.680 L 441.764 821.139 L 442.779 821.575 L 443.805 821.985 L 444.840 822.369 L 445.884 822.729 L 446.937 823.062 L 447.998 823.370 L 449.066 823.651 L 450.140 823.907 L 451.221 824.135 L 452.307 824.337 L 453.397 824.513 L 454.492 824.662 L 455.589 824.783 L 456.690 824.878 L 457.792 824.946 L 458.896 824.986 L 460.000 825.000 L 461.104 824.986 L 462.208 824.946 L 463.310 824.878 L 464.411 824.783 L 465.508 824.662 L 466.603 824.513 L 467.693 824.337 L 468.779 824.135 L 469.860 823.907 L 470.934 823.651 L 472.002 823.370 L 473.063 823.062 L 474.116 822.729 L 475.160 822.369 L 476.195 821.985 L 477.221 821.575 L 478.236 821.139 L 479.240 820.680 L 480.233 820.195 L 481.213 819.686 L 482.180 819.154 L 483.135 818.598 L 484.075 818.018 L 485.001 817.416 L 485.911 816.791 L 486.806 816.144 L 487.685 815.476 L 488.548 814.785 L 489.393 814.074 L 490.220 813.343 L 491.029 812.591 L 491.820 811.820 L 492.591 811.029 L 493.343 810.220 L 494.074 809.393 L 494.785 808.548 L 495.476 807.685 L 496.144 806.806 L 496.791 805.911 L 497.416 805.001 L 498.018 804.075 L 498.598 803.135 L 499.154 802.180 L 499.686 801.213 L 500.195 800.233 L 500.680 799.240 L 501.139 798.236 L 501.575 797.221 L 501.985 796.195 L 502.369 795.160 L 502.729 794.116 L 503.062 793.063 L 503.370 792.002 L 503.651 790.934 L 503.907 789.860 L 504.135 788.779 L 504.337 787.693 L 504.513 786.603 L 504.662 785.508 L 504.783 784.411 L 504.878 783.310 L 504.946 782.208 L 504.986 781.104 L 505.000 780.000 L 505.000 260.278 L 505.019 258.740 L 505.066 257.481 L 505.144 256.220 L 505.253 254.959 L 505.393 253.697 L 505.566 252.434 L 505.770 251.170 L 506.006 249.904 L 506.274 248.637 L 506.576 247.368 L 506.910 246.098 L 507.278 244.826 L 507.679 243.552 L 508.114 242.278 L 508.584 241.001 L 509.089 239.724 L 509.629 238.446 L 510.205 237.167 L 510.817 235.888 L 511.465 234.609 L 512.150 233.331 L 512.873 232.054 L 513.632 230.778 L 514.429 229.505 L 515.264 228.234 L 516.138 226.967 L 517.049 225.704 L 517.999 224.446 L 518.988 223.193 L 520.016 221.946 L 521.082 220.706 L 522.186 219.475 L 523.330 218.251 L 524.512 217.038 L 525.732 215.835 L 526.991 214.643 L 528.288 213.463 L 529.622 212.296 L 530.994 211.143 L 532.403 210.004 L 533.849 208.881 L 535.331 207.775 L 536.849 206.686 L 538.402 205.615 L 539.990 204.563 L 541.612 203.531 L 543.268 202.520 L 544.957 201.530 L 546.678 200.563 L 548.431 199.618 L 550.214 198.698 L 552.028 197.802 L 553.870 196.931 L 555.742 196.086 L 557.640 195.269 L 559.565 194.478 L 561.516 193.716 L 563.492 192.982 L 565.492 192.277 L 567.514 191.602 L 569.559 190.958 L 571.624 190.344 L 573.709 189.761 L 575.813 189.211 L 577.934 188.693 L 580.073 188.207 L 582.226 187.754 L 584.395 187.335 L 586.576 186.950 L 588.770 186.598 L 590.975 186.281 L 593.190 185.999 L 595.413 185.751 L 597.644 185.539 L 599.882 185.361 L 602.125 185.219 L 604.372 185.113 L 606.622 185.041 L 608.874 185.006 L 611.126 185.006 L 613.378 185.041 L 615.628 185.113 L 617.875 185.219 L 620.118 185.361 L 622.356 185.539 L 624.587 185.751 L 626.810 185.999 L 629.025 186.281 L 631.230 186.598 L 633.424 186.950 L 635.605 187.335 L 637.774 187.754 L 639.927 188.207 L 642.066 188.693 L 644.187 189.211 L 646.291 189.761 L 648.376 190.344 L 650.441 190.958 L 652.486 191.602 L 654.508 192.277 L 656.508 192.982 L 658.484 193.716 L 660.435 194.478 L 662.360 195.269 L 664.258 196.086 L 666.130 196.931 L 667.972 197.802 L 669.786 198.698 L 671.569 199.618 L 673.322 200.563 L 675.043 201.530 L 676.732 202.520 L 678.388 203.531 L 680.010 204.563 L 681.598 205.615 L 683.151 206.686 L 684.669 207.775 L 686.151 208.881 L 687.597 210.004 L 689.006 211.143 L 690.378 212.296 L 691.712 213.463 L 693.009 214.643 L 694.268 215.835 L 695.488 217.038 L 696.670 218.251 L 697.814 219.475 L 698.918 220.706 L 699.984 221.946 L 701.012 223.193 L 702.001 224.446 L 702.951 225.704 L 703.862 226.967 L 704.736 228.234 L 705.571 229.505 L 706.368 230.778 L 707.127 232.054 L 707.850 233.331 L 708.535 234.609 L 709.183 235.888 L 709.795 237.167 L 710.371 238.446 L 710.911 239.724 L 711.416 241.001 L 711.886 242.278 L 712.321 243.552 L 712.722 244.826 L 713.090 246.098 L 713.424 247.368 L 713.726 248.637 L 713.994 249.904 L 714.230 251.170 L 714.434 252.434 L 714.607 253.697 L 714.747 254.959 L 714.856 256.220 L 714.934 257.481 L 714.981 258.740 L 715.000 260.278 L 715.000 780.000 L 715.014 781.104 L 715.054 782.208 L 715.122 783.310 L 715.217 784.411 L 715.338 785.508 L 715.487 786.603 L 715.663 787.693 L 715.865 788.779 L 716.093 789.860 L 716.349 790.934 L 716.630 792.002 L 716.938 793.063 L 717.271 794.116 L 717.631 795.160 L 718.015 796.195 L 718.425 797.221 L 718.861 798.236 L 719.320 799.240 L 719.805 800.233 L 720.314 801.213 L 720.846 802.180 L 721.402 803.135 L 721.982 804.075 L 722.584 805.001 L 723.209 805.911 L 723.856 806.806 L 724.524 807.685 L 725.215 808.548 L 725.926 809.393 L 726.657 810.220 L 727.409 811.029 L 728.180 811.820 L 728.971 812.591 L 729.780 813.343 L 730.607 814.074 L 731.452 814.785 L 732.315 815.476 L 733.194 816.144 L 734.089 816.791 L 734.999 817.416 L 735.925 818.018 L 736.865 818.598 L 737.820 819.154 L 738.787 819.686 L 739.767 820.195 L 740.760 820.680 L 741.764 821.139 L 742.779 821.575 L 743.805 821.985 L 744.840 822.369 L 745.884 822.729 L 746.937 823.062 L 747.998 823.370 L 749.066 823.651 L 750.140 823.907 L 751.221 824.135 L 752.307 824.337 L 753.397 824.513 L 754.492 824.662 L 755.589 824.783 L 756.690 824.878 L 757.792 824.946 L 758.896 824.986 L 760.000 825.000 L 761.104 824.986 L 762.208 824.946 L 763.310 824.878 L 764.411 824.783 L 765.508 824.662 L 766.603 824.513 L 767.693 824.337 L 768.779 824.135 L 769.860 823.907 L 770.934 823.651 L 772.002 823.370 L 773.063 823.062 L 774.116 822.729 L 775.160 822.369 L 776.195 821.985 L 777.221 821.575 L 778.236 821.139 L 779.240 820.680 L 780.233 820.195 L 781.213 819.686 L 782.180 819.154 L 783.135 818.598 L 784.075 818.018 L 785.001 817.416 L 785.911 816.791 L 786.806 816.144 L 787.685 815.476 L 788.548 814.785 L 789.393 814.074 L 790.220 813.343 L 791.029 812.591 L 791.820 811.820 L 792.591 811.029 L 793.343 810.220 L 794.074 809.393 L 794.785 808.548 L 795.476 807.685 L 796.144 806.806 L 796.791 805.911 L 797.416 805.001 L 798.018 804.075 L 798.598 803.135 L 799.154 802.180 L 799.686 801.213 L 800.195 800.233 L 800.680 799.240 L 801.139 798.236 L 801.575 797.221 L 801.985 796.195 L 802.369 795.160 L 802.729 794.116 L 803.062 793.063 L 803.370 792.002 L 803.651 790.934 L 803.907 789.860 L 804.135 788.779 L 804.337 787.693 L 804.513 786.603 L 804.662 785.508 L 804.783 784.411 L 804.878 783.310 L 804.946 782.208 L 804.986 781.104 L 805.000 780.000 L 805.000 260.000 L 804.997 259.722 L 804.997 259.444 L 804.967 257.073 L 804.940 255.963 L 804.852 253.593 L 804.797 252.484 L 804.651 250.116 L 804.569 249.009 L 804.364 246.644 L 804.255 245.542 L 803.992 243.180 L 803.856 242.084 L 803.534 239.727 L 803.372 238.636 L 802.992 236.284 L 802.804 235.201 L 802.366 232.856 L 802.152 231.781 L 801.657 229.444 L 801.417 228.378 L 800.864 226.049 L 800.600 224.993 L 799.990 222.673 L 799.702 221.629 L 799.034 219.319 L 798.722 218.287 L 797.998 215.988 L 797.663 214.969 L 796.882 212.682 L 796.525 211.677 L 795.688 209.403 L 795.310 208.412 L 794.416 206.151 L 794.017 205.176 L 793.068 202.930 L 792.649 201.970 L 791.645 199.739 L 791.207 198.795 L 790.147 196.581 L 789.691 195.654 L 788.577 193.457 L 788.103 192.547 L 786.935 190.368 L 786.443 189.476 L 785.222 187.316 L 784.715 186.442 L 783.440 184.301 L 782.918 183.446 L 781.590 181.326 L 781.053 180.488 L 779.674 178.390 L 779.123 177.571 L 777.692 175.495 L 777.128 174.695 L 775.646 172.642 L 775.070 171.861 L 773.538 169.832 L 772.950 169.070 L 771.368 167.066 L 770.769 166.323 L 769.138 164.344 L 768.529 163.620 L 766.849 161.667 L 766.231 160.963 L 764.503 159.037 L 763.876 158.352 L 762.101 156.453 L 761.465 155.787 L 759.643 153.916 L 759.000 153.269 L 757.133 151.428 L 756.482 150.800 L 754.570 148.988 L 753.913 148.378 L 751.956 146.598 L 751.293 146.006 L 749.292 144.257 L 748.624 143.684 L 746.580 141.966 L 745.907 141.411 L 743.821 139.726 L 743.143 139.189 L 741.016 137.537 L 740.334 137.017 L 738.167 135.400 L 737.480 134.897 L 735.274 133.314 L 734.584 132.829 L 732.339 131.281 L 731.645 130.812 L 729.362 129.300 L 728.666 128.848 L 726.347 127.373 L 725.648 126.937 L 723.292 125.499 L 722.591 125.079 L 720.201 123.678 L 719.498 123.274 L 717.073 121.911 L 716.368 121.524 L 713.910 120.199 L 713.204 119.827 L 710.713 118.541 L 710.006 118.184 L 707.484 116.938 L 706.776 116.596 L 704.224 115.390 L 703.514 115.062 L 700.933 113.897 L 700.223 113.584 L 697.613 112.459 L 696.902 112.160 L 694.265 111.078 L 693.554 110.792 L 690.891 109.752 L 690.179 109.480 L 687.491 108.482 L 686.778 108.224 L 684.066 107.268 L 683.353 107.024 L 680.618 106.111 L 679.905 105.880 L 677.148 105.010 L 676.435 104.792 L 673.657 103.967 L 672.944 103.761 L 670.146 102.980 L 669.433 102.787 L 666.616 102.050 L 665.903 101.869 L 663.068 101.177 L 662.356 101.009 L 659.505 100.361 L 658.792 100.205 L 655.925 99.603 L 655.213 99.459 L 652.332 98.902 L 651.619 98.771 L 648.725 98.259 L 648.013 98.139 L 645.107 97.674 L 644.395 97.566 L 641.478 97.146 L 640.766 97.050 L 637.839 96.677 L 637.127 96.592 L 634.192 96.265 L 633.480 96.191 L 630.537 95.911 L 629.826 95.849 L 626.876 95.615 L 626.165 95.564 L 623.210 95.377 L 622.499 95.337 L 619.540 95.197 L 618.829 95.169 L 615.868 95.075 L 615.156 95.058 L 612.193 95.011 L 611.482 95.006 L 608.518 95.006 L 607.807 95.011 L 604.844 95.058 L 604.132 95.075 L 601.171 95.169 L 600.460 95.197 L 597.501 95.337 L 596.790 95.377 L 593.835 95.564 L 593.124 95.615 L 590.174 95.849 L 589.463 95.911 L 586.520 96.191 L 585.808 96.265 L 582.873 96.592 L 582.161 96.677 L 579.234 97.050 L 578.522 97.146 L 575.605 97.566 L 574.893 97.674 L 571.987 98.139 L 571.275 98.259 L 568.381 98.771 L 567.668 98.902 L 564.787 99.459 L 564.075 99.603 L 561.208 100.205 L 560.495 100.361 L 557.644 101.009 L 556.932 101.177 L 554.097 101.869 L 553.384 102.050 L 550.567 102.787 L 549.854 102.980 L 547.056 103.761 L 546.343 103.967 L 543.565 104.792 L 542.852 105.010 L 540.095 105.880 L 539.382 106.111 L 536.647 107.024 L 535.934 107.268 L 533.222 108.224 L 532.509 108.482 L 529.821 109.480 L 529.109 109.752 L 526.446 110.792 L 525.735 111.078 L 523.098 112.160 L 522.387 112.459 L 519.777 113.584 L 519.067 113.897 L 516.486 115.062 L 515.776 115.390 L 513.224 116.596 L 512.516 116.938 L 509.994 118.184 L 509.287 118.541 L 506.796 119.827 L 506.090 120.199 L 503.632 121.524 L 502.927 121.911 L 500.502 123.274 L 499.799 123.678 L 497.409 125.079 L 496.708 125.499 L 494.352 126.937 L 493.653 127.373 L 491.334 128.848 L 490.638 129.300 L 488.355 130.812 L 487.661 131.281 L 485.416 132.829 L 484.726 133.314 L 482.520 134.897 L 481.833 135.400 L 479.666 137.017 L 478.984 137.537 L 476.857 139.189 L 476.179 139.726 L 474.093 141.411 L 473.420 141.966 L 471.376 143.684 L 470.708 144.257 L 468.707 146.006 L 468.044 146.598 L 466.087 148.378 L 465.430 148.988 L 463.518 150.800 L 462.867 151.428 L 461.000 153.269 L 460.357 153.916 L 460.000 154.283 L 459.643 153.916 L 459.000 153.269 L 457.133 151.428 L 456.482 150.800 L 454.570 148.988 L 453.913 148.378 L 451.956 146.598 L 451.293 146.006 L 449.292 144.257 L 448.624 143.684 L 446.580 141.966 L 445.907 141.411 L 443.821 139.726 L 443.143 139.189 L 441.016 137.537 L 440.334 137.017 L 438.167 135.400 L 437.480 134.897 L 435.274 133.314 L 434.584 132.829 L 432.339 131.281 L 431.645 130.812 L 429.362 129.300 L 428.666 128.848 L 426.347 127.373 L 425.648 126.937 L 423.292 125.499 L 422.591 125.079 L 420.201 123.678 L 419.498 123.274 L 417.073 121.911 L 416.368 121.524 L 413.910 120.199 L 413.204 119.827 L 410.713 118.541 L 410.006 118.184 L 407.484 116.938 L 406.776 116.596 L 404.224 115.390 L 403.514 115.062 L 400.933 113.897 L 400.223 113.584 L 397.613 112.459 L 396.902 112.160 L 394.265 111.078 L 393.554 110.792 L 390.891 109.752 L 390.179 109.480 L 387.491 108.482 L 386.778 108.224 L 384.066 107.268 L 383.353 107.024 L 380.618 106.111 L 379.905 105.880 L 377.148 105.010 L 376.435 104.792 L 373.657 103.967 L 372.944 103.761 L 370.146 102.980 L 369.433 102.787 L 366.616 102.050 L 365.903 101.869 L 363.068 101.177 L 362.356 101.009 L 359.505 100.361 L 358.792 100.205 L 355.925 99.603 L 355.213 99.459 L 352.332 98.902 L 351.619 98.771 L 348.725 98.259 L 348.013 98.139 L 345.107 97.674 L 344.395 97.566 L 341.478 97.146 L 340.766 97.050 L 337.839 96.677 L 337.127 96.592 L 334.192 96.265 L 333.480 96.191 L 330.537 95.911 L 329.826 95.849 L 326.876 95.615 L 326.165 95.564 L 323.210 95.377 L 322.499 95.337 L 319.540 95.197 L 318.829 95.169 L 315.868 95.075 L 315.156 95.058 L 312.193 95.011 L 311.482 95.006 L 308.518 95.006 L 307.807 95.011 L 304.844 95.058 L 304.132 95.075 L 301.171 95.169 L 300.460 95.197 L 297.501 95.337 L 296.790 95.377 L 293.835 95.564 L 293.124 95.615 L 290.174 95.849 L 289.463 95.911 L 286.520 96.191 L 285.808 96.265 L 282.873 96.592 L 282.161 96.677 L 279.234 97.050 L 278.522 97.146 L 275.605 97.566 L 274.893 97.674 L 271.987 98.139 L 271.275 98.259 L 268.381 98.771 L 267.668 98.902 L 264.787 99.459 L 264.075 99.603 L 261.208 100.205 L 260.495 100.361 L 257.644 101.009 L 256.932 101.177 L 254.097 101.869 L 253.384 102.050 L 250.567 102.787 L 249.854 102.980 L 247.056 103.761 L 246.343 103.967 L 243.565 104.792 L 242.852 105.010 L 240.095 105.880 L 239.382 106.111 L 236.647 107.024 L 235.934 107.268 L 233.222 108.224 L 232.509 108.482 L 229.821 109.480 L 229.109 109.752 L 226.446 110.792 L 225.735 111.078 L 223.098 112.160 L 222.387 112.459 L 219.777 113.584 L 219.067 113.897 L 216.486 115.062 L 215.776 115.390 L 213.224 116.596 L 212.516 116.938 L 209.994 118.184 L 209.287 118.541 L 206.796 119.827 L 206.090 120.199 L 203.632 121.524 L 202.927 121.911 L 200.502 123.274 L 199.799 123.678 L 197.409 125.079 L 196.708 125.499 L 194.352 126.937 L 193.653 127.373 L 191.334 128.848 L 190.638 129.300 L 188.355 130.812 L 187.661 131.281 L 185.416 132.829 L 184.726 133.314 L 182.520 134.897 L 181.833 135.400 L 179.666 137.017 L 178.984 137.537 L 176.857 139.189 L 176.179 139.726 L 174.093 141.411 L 173.420 141.966 L 171.376 143.684 L 170.708 144.257 L 168.707 146.006 L 168.044 146.598 L 166.087 148.378 L 165.430 148.988 L 163.518 150.800 L 162.867 151.428 L 161.000 153.269 L 160.357 153.916 L 158.535 155.787 L 157.899 156.453 L 156.124 158.352 L 155.497 159.037 L 153.769 160.963 L 153.151 161.667 L 151.471 163.620 L 150.862 164.344 L 149.231 166.323 L 148.632 167.066 L 147.050 169.070 L 146.462 169.832 L 144.930 171.861 L 144.354 172.642 L 142.872 174.695 L 142.308 175.495 L 140.877 177.571 L 140.326 178.390 L 138.947 180.488 L 138.410 181.326 L 137.082 183.446 L 136.560 184.301 L 135.285 186.442 L 134.778 187.316 L 133.557 189.476 L 133.065 190.368 L 131.897 192.547 L 131.423 193.457 L 130.309 195.654 L 129.853 196.581 L 128.793 198.795 L 128.355 199.739 L 127.351 201.970 L 126.932 202.930 L 125.983 205.176 L 125.584 206.151 L 124.690 208.412 L 124.312 209.403 L 123.475 211.677 L 123.118 212.682 L 122.337 214.969 L 122.002 215.988 L 121.278 218.287 L 120.966 219.319 L 120.298 221.629 L 120.010 222.673 L 119.400 224.993 L 119.136 226.049 L 118.583 228.378 L 118.343 229.444 L 117.848 231.781 L 117.634 232.856 L 117.196 235.201 L 117.008 236.284 L 116.628 238.636 L 116.466 239.727 L 116.144 242.084 L 116.008 243.180 L 115.745 245.542 L 115.636 246.644 L 115.431 249.009 L 115.349 250.116 L 115.203 252.484 L 115.148 253.593 L 115.060 255.963 L 115.033 257.073 L 115.003 259.444 L 115.003 259.722 L 115.000 260.000 L 115.000 780.000 L 115.014 781.104 L 115.054 782.208 L 115.122 783.310 L 115.217 784.411 L 115.338 785.508 L 115.487 786.603 L 115.663 787.693 L 115.865 788.779 L 116.093 789.860 L 116.349 790.934 L 116.630 792.002 L 116.938 793.063 L 117.271 794.116 L 117.631 795.160 L 118.015 796.195 L 118.425 797.221 L 118.861 798.236 L 119.320 799.240 L 119.805 800.233 L 120.314 801.213 L 120.846 802.180 L 121.402 803.135 L 121.982 804.075 L 122.584 805.001 L 123.209 805.911 L 123.856 806.806 L 124.524 807.685 L 125.215 808.548 L 125.926 809.393 L 126.657 810.220 L 127.409 811.029 L 128.180 811.820 L 128.971 812.591 L 129.780 813.343 L 130.607 814.074 L 131.452 814.785 L 132.315 815.476 L 133.194 816.144 L 134.089 816.791 L 134.999 817.416 L 135.925 818.018 L 136.865 818.598 L 137.820 819.154 L 138.787 819.686 L 139.767 820.195 L 140.760 820.680 L 141.764 821.139 L 142.779 821.575 L 143.805 821.985 L 144.840 822.369 L 145.884 822.729 L 146.937 823.062 L 147.998 823.370 L 149.066 823.651 L 150.140 823.907 L 151.221 824.135 L 152.307 824.337 L 153.397 824.513 L 154.492 824.662 L 155.589 824.783 L 156.690 824.878 L 157.792 824.946 L 158.896 824.986 L 160.000 825.000 L 161.104 824.986 L 162.208 824.946 L 163.310 824.878 L 164.411 824.783 L 165.508 824.662 L 166.603 824.513 L 167.693 824.337 L 168.779 824.135 L 169.860 823.907 L 170.934 823.651 L 172.002 823.370 L 173.063 823.062 L 174.116 822.729 L 175.160 822.369 L 176.195 821.985 L 177.221 821.575 L 178.236 821.139 L 179.240 820.680 L 180.233 820.195 L 181.213 819.686 L 182.180 819.154 L 183.135 818.598 L 184.075 818.018 L 185.001 817.416 L 185.911 816.791 L 186.806 816.144 L 187.685 815.476 L 188.548 814.785 L 189.393 814.074 L 190.220 813.343 L 191.029 812.591 L 191.820 811.820 L 192.591 811.029 L 193.343 810.220 L 194.074 809.393 L 194.785 808.548 L 195.476 807.685 L 196.144 806.806 L 196.791 805.911 L 197.416 805.001 L 198.018 804.075 L 198.598 803.135 L 199.154 802.180 L 199.686 801.213 L 200.195 800.233 L 200.680 799.240 L 201.139 798.236 L 201.575 797.221 L 201.985 796.195 L 202.369 795.160 L 202.729 794.116 L 203.062 793.063 L 203.370 792.002 L 203.651 790.934 L 203.907 789.860 L 204.135 788.779 L 204.337 787.693 L 204.513 786.603 L 204.662 785.508 L 204.783 784.411 L 204.878 783.310 L 204.946 782.208 L 204.986 781.104 L 205.000 780.000 L 205.000 260.278 L 205.019 258.740 L 205.066 257.481 L 205.144 256.220 Z" fill="black" fill-rule="evenodd"/>
</svg>
