<svg xmlns="http://www.w3.org/2000/svg" viewBox="0 0 600.000 1000" width="600.000" height="1000">
  <path d="M 404.844 614.986 L 405.948 614.946 L 407.050 614.878 L 408.151 614.783 L 409.248 614.662 L 410.343 614.513 L 411.433 614.337 L 412.519 614.135 L 413.600 613.907 L 414.674 613.651 L 415.742 613.370 L 416.803 613.062 L 417.856 612.729 L 418.900 612.369 L 419.935 611.985 L 420.961 611.575 L 421.976 611.139 L 422.980 610.680 L 423.973 610.195 L 424.953 609.686 L 425.920 609.154 L 426.875 608.598 L 427.815 608.018 L 428.741 607.416 L 429.651 606.791 L 430.546 606.144 L 431.425 605.476 L 432.288 604.785 L 433.133 604.074 L 433.960 603.343 L 434.769 602.591 L 435.560 601.820 L 436.331 601.029 L 437.083 600.220 L 437.814 599.393 L 438.525 598.548 L 439.216 597.685 L 439.884 596.806 L 440.531 595.911 L 441.156 595.001 L 441.758 594.075 L 442.338 593.135 L 442.894 592.180 L 443.426 591.213 L 443.935 590.233 L 444.420 589.240 L 444.879 588.236 L 445.315 587.221 L 445.725 586.195 L 446.109 585.160 L 446.469 584.116 L 446.802 583.063 L 447.110 582.002 L 447.391 580.934 L 447.647 579.860 L 447.875 578.779 L 448.077 577.693 L 448.253 576.603 L 448.402 575.508 L 448.523 574.411 L 448.618 573.310 L 448.686 572.208 L 448.726 571.104 L 448.740 570.000 L 448.726 568.896 L 448.686 567.792 L 448.618 566.690 L 448.523 565.589 L 448.402 564.492 L 448.253 563.397 L 448.077 562.307 L 447.875 561.221 L 447.647 560.140 L 447.391 559.066 L 447.110 557.998 L 446.802 556.937 L 446.469 555.884 L 446.109 554.840 L 445.725 553.805 L 445.315 552.779 L 444.879 551.764 L 444.420 550.760 L 443.935 549.767 L 443.426 548.787 L 442.894 547.820 L 442.338 546.865 L 441.758 545.925 L 441.156 544.999 L 440.531 544.089 L 439.884 543.194 L 439.216 542.315 L 438.525 541.452 L 437.814 540.607 L 437.083 539.780 L 436.331 538.971 L 435.560 538.180 L 434.769 537.409 L 433.960 536.657 L 433.133 535.926 L 432.288 535.215 L 431.425 534.524 L 430.546 533.856 L 429.651 533.209 L 428.741 532.584 L 427.815 531.982 L 426.875 531.402 L 425.920 530.846 L 424.953 530.314 L 423.973 529.805 L 422.980 529.320 L 421.976 528.861 L 420.961 528.425 L 419.935 528.015 L 418.900 527.631 L 417.856 527.271 L 416.803 526.938 L 415.742 526.630 L 414.674 526.349 L 413.600 526.093 L 412.519 525.865 L 411.433 525.663 L 410.343 525.487 L 409.248 525.338 L 408.151 525.217 L 407.050 525.122 L 405.948 525.054 L 404.844 525.014 L 403.740 525.000 L 189.802 525.000 L 189.987 524.056 L 190.634 520.989 L 191.322 517.941 L 192.050 514.915 L 192.819 511.912 L 193.628 508.932 L 194.475 505.977 L 195.362 503.048 L 196.287 500.146 L 197.249 497.272 L 198.249 494.429 L 199.285 491.615 L 200.357 488.834 L 201.465 486.085 L 202.607 483.371 L 203.783 480.691 L 204.992 478.047 L 206.234 475.440 L 207.507 472.871 L 208.811 470.341 L 210.146 467.850 L 211.510 465.400 L 212.902 462.992 L 214.322 460.626 L 215.769 458.303 L 217.242 456.024 L 218.740 453.790 L 220.262 451.601 L 221.807 449.458 L 223.374 447.361 L 224.963 445.312 L 226.572 443.311 L 228.201 441.358 L 229.848 439.453 L 231.512 437.598 L 233.193 435.792 L 234.890 434.036 L 236.601 432.331 L 238.326 430.676 L 240.063 429.071 L 241.812 427.518 L 243.572 426.015 L 245.342 424.563 L 247.120 423.163 L 248.907 421.813 L 250.701 420.515 L 252.502 419.268 L 254.308 418.071 L 256.119 416.925 L 257.934 415.829 L 259.753 414.784 L 261.575 413.789 L 263.399 412.843 L 265.224 411.946 L 267.051 411.099 L 268.879 410.300 L 270.706 409.550 L 272.534 408.847 L 274.361 408.192 L 276.188 407.583 L 278.014 407.022 L 279.839 406.507 L 281.663 406.037 L 283.485 405.614 L 285.307 405.235 L 287.127 404.902 L 288.946 404.613 L 290.764 404.368 L 292.581 404.168 L 294.397 404.011 L 296.213 403.898 L 298.028 403.829 L 299.844 403.803 L 301.659 403.821 L 303.474 403.883 L 305.290 403.988 L 307.106 404.137 L 308.923 404.330 L 310.741 404.567 L 312.559 404.849 L 314.379 405.175 L 316.201 405.545 L 318.023 405.961 L 319.847 406.423 L 321.671 406.930 L 323.497 407.483 L 325.324 408.083 L 327.151 408.731 L 328.979 409.425 L 330.806 410.167 L 332.634 410.958 L 334.461 411.797 L 336.287 412.685 L 338.111 413.622 L 339.933 414.609 L 341.752 415.646 L 343.568 416.732 L 345.380 417.870 L 347.187 419.058 L 348.989 420.296 L 350.784 421.586 L 352.572 422.927 L 354.352 424.318 L 356.124 425.761 L 357.885 427.255 L 359.636 428.800 L 361.376 430.395 L 363.103 432.042 L 364.816 433.739 L 366.515 435.486 L 368.199 437.283 L 369.866 439.130 L 371.516 441.026 L 373.148 442.971 L 374.761 444.964 L 376.353 447.005 L 377.924 449.093 L 379.473 451.228 L 380.999 453.409 L 382.502 455.636 L 383.979 457.907 L 385.430 460.222 L 386.855 462.581 L 388.252 464.982 L 389.621 467.425 L 391.131 470.224 L 391.667 471.190 L 392.227 472.142 L 392.810 473.080 L 393.416 474.004 L 394.044 474.912 L 394.695 475.805 L 395.367 476.681 L 396.060 477.541 L 396.774 478.383 L 397.509 479.208 L 398.264 480.014 L 399.038 480.801 L 399.832 481.570 L 400.644 482.318 L 401.474 483.047 L 402.322 483.755 L 403.186 484.441 L 404.068 485.107 L 404.966 485.750 L 405.879 486.372 L 406.807 486.970 L 407.749 487.546 L 408.705 488.099 L 409.675 488.628 L 410.657 489.132 L 411.652 489.613 L 412.658 490.069 L 413.674 490.500 L 414.701 490.907 L 415.738 491.288 L 416.784 491.643 L 417.838 491.972 L 418.900 492.276 L 419.969 492.553 L 421.044 492.804 L 422.126 493.029 L 423.212 493.227 L 424.303 493.398 L 425.398 493.543 L 426.496 493.660 L 427.597 493.751 L 428.700 493.815 L 429.804 493.851 L 430.908 493.860 L 432.012 493.843 L 433.116 493.798 L 434.218 493.726 L 435.318 493.627 L 436.415 493.501 L 437.509 493.348 L 438.599 493.169 L 439.684 492.962 L 440.763 492.729 L 441.837 492.470 L 442.904 492.185 L 443.963 491.873 L 445.015 491.535 L 446.058 491.172 L 447.092 490.783 L 448.116 490.369 L 449.129 489.930 L 450.131 489.467 L 451.122 488.978 L 452.100 488.466 L 453.066 487.930 L 454.018 487.370 L 454.956 486.787 L 455.880 486.181 L 456.788 485.553 L 457.681 484.903 L 458.557 484.231 L 459.417 483.537 L 460.259 482.823 L 461.084 482.088 L 461.890 481.333 L 462.677 480.559 L 463.446 479.766 L 464.194 478.954 L 464.923 478.124 L 465.631 477.276 L 466.317 476.411 L 466.983 475.529 L 467.626 474.632 L 468.248 473.719 L 468.846 472.791 L 469.422 471.848 L 469.975 470.892 L 470.504 469.922 L 471.008 468.940 L 471.489 467.946 L 471.945 466.940 L 472.376 465.923 L 472.783 464.896 L 473.164 463.859 L 473.519 462.814 L 473.848 461.759 L 474.152 460.698 L 474.429 459.629 L 474.680 458.553 L 474.905 457.472 L 475.103 456.385 L 475.274 455.294 L 475.419 454.199 L 475.536 453.101 L 475.627 452.000 L 475.691 450.898 L 475.727 449.794 L 475.736 448.689 L 475.719 447.585 L 475.674 446.482 L 475.602 445.379 L 475.503 444.279 L 475.377 443.182 L 475.224 442.088 L 475.045 440.999 L 474.838 439.914 L 474.605 438.834 L 474.346 437.760 L 474.061 436.694 L 473.749 435.634 L 473.411 434.582 L 473.048 433.539 L 472.659 432.506 L 472.245 431.482 L 471.806 430.468 L 471.343 429.466 L 470.854 428.475 L 470.342 427.497 L 468.660 424.378 L 468.311 423.744 L 466.586 420.666 L 466.224 420.031 L 464.457 416.996 L 464.081 416.361 L 462.273 413.369 L 461.883 412.735 L 460.035 409.786 L 459.630 409.153 L 457.742 406.249 L 457.323 405.617 L 455.395 402.759 L 454.961 402.128 L 452.994 399.316 L 452.546 398.687 L 450.541 395.923 L 450.077 395.295 L 448.034 392.580 L 447.554 391.954 L 445.475 389.289 L 444.979 388.665 L 442.864 386.050 L 442.352 385.429 L 440.201 382.865 L 439.673 382.248 L 437.487 379.736 L 436.942 379.121 L 434.722 376.662 L 434.161 376.052 L 431.907 373.647 L 431.328 373.041 L 429.042 370.690 L 428.446 370.088 L 426.128 367.793 L 425.515 367.197 L 423.166 364.957 L 422.535 364.367 L 420.155 362.184 L 419.506 361.600 L 417.097 359.475 L 416.430 358.898 L 413.992 356.831 L 413.307 356.261 L 410.841 354.253 L 410.138 353.691 L 407.645 351.743 L 406.923 351.190 L 404.404 349.301 L 403.664 348.758 L 401.120 346.930 L 400.361 346.397 L 397.792 344.631 L 397.015 344.108 L 394.422 342.404 L 393.627 341.893 L 391.011 340.251 L 390.198 339.753 L 387.560 338.174 L 386.729 337.688 L 384.070 336.173 L 383.221 335.701 L 380.541 334.250 L 379.675 333.793 L 376.976 332.407 L 376.093 331.965 L 373.375 330.643 L 372.475 330.218 L 369.740 328.961 L 368.823 328.553 L 366.071 327.363 L 365.139 326.972 L 362.371 325.848 L 361.423 325.475 L 358.640 324.418 L 357.678 324.064 L 354.881 323.074 L 353.904 322.741 L 351.094 321.817 L 350.104 321.505 L 347.282 320.649 L 346.279 320.358 L 343.446 319.570 L 342.431 319.301 L 339.588 318.581 L 338.562 318.335 L 335.709 317.683 L 334.673 317.460 L 331.811 316.877 L 330.766 316.677 L 327.897 316.164 L 326.844 315.988 L 323.968 315.543 L 322.908 315.392 L 320.027 315.016 L 318.960 314.890 L 316.074 314.584 L 315.003 314.483 L 312.113 314.246 L 311.037 314.170 L 308.145 314.003 L 307.067 313.953 L 304.172 313.855 L 303.093 313.831 L 300.197 313.802 L 299.117 313.805 L 296.222 313.845 L 295.142 313.874 L 292.248 313.984 L 291.171 314.038 L 288.278 314.218 L 287.204 314.297 L 284.314 314.546 L 283.244 314.652 L 280.358 314.970 L 279.293 315.100 L 276.413 315.488 L 275.353 315.643 L 272.479 316.100 L 271.427 316.280 L 268.559 316.806 L 267.515 317.010 L 264.655 317.604 L 263.621 317.832 L 260.769 318.495 L 259.746 318.745 L 256.904 319.477 L 255.891 319.750 L 253.059 320.549 L 252.059 320.844 L 249.239 321.712 L 248.251 322.028 L 245.443 322.963 L 244.469 323.299 L 241.674 324.301 L 240.714 324.658 L 237.934 325.727 L 236.989 326.103 L 234.224 327.238 L 233.294 327.632 L 230.545 328.834 L 229.631 329.246 L 226.899 330.513 L 226.001 330.941 L 223.287 332.274 L 222.407 332.719 L 219.711 334.117 L 218.848 334.576 L 216.171 336.038 L 215.326 336.513 L 212.670 338.039 L 211.842 338.527 L 209.208 340.116 L 208.398 340.617 L 205.786 342.270 L 204.994 342.783 L 202.405 344.498 L 201.631 345.022 L 199.066 346.799 L 198.311 347.334 L 195.771 349.172 L 195.034 349.717 L 192.519 351.616 L 191.800 352.170 L 189.312 354.130 L 188.612 354.692 L 186.151 356.711 L 185.469 357.282 L 183.036 359.359 L 182.372 359.937 L 179.968 362.073 L 179.322 362.658 L 176.948 364.850 L 176.320 365.442 L 173.976 367.691 L 173.366 368.288 L 171.053 370.593 L 170.460 371.195 L 168.180 373.556 L 167.604 374.162 L 165.356 376.577 L 164.798 377.188 L 162.583 379.656 L 162.042 380.271 L 159.862 382.792 L 159.337 383.411 L 157.191 385.983 L 156.683 386.605 L 154.573 389.229 L 154.080 389.853 L 152.007 392.527 L 151.530 393.153 L 149.494 395.877 L 149.033 396.505 L 147.034 399.277 L 146.588 399.906 L 144.628 402.726 L 144.197 403.357 L 142.275 406.223 L 141.859 406.856 L 139.977 409.767 L 139.575 410.401 L 137.734 413.357 L 137.346 413.991 L 135.545 416.991 L 135.172 417.626 L 133.412 420.668 L 133.052 421.303 L 131.335 424.388 L 130.988 425.023 L 129.313 428.148 L 128.980 428.783 L 127.348 431.948 L 127.027 432.583 L 125.439 435.786 L 125.131 436.421 L 123.587 439.662 L 123.291 440.296 L 121.792 443.574 L 121.508 444.208 L 120.054 447.521 L 119.782 448.154 L 118.374 451.502 L 118.113 452.135 L 116.751 455.516 L 116.502 456.147 L 115.186 459.560 L 114.949 460.192 L 113.680 463.636 L 113.453 464.266 L 112.232 467.740 L 112.016 468.370 L 110.842 471.873 L 110.637 472.501 L 109.512 476.032 L 109.317 476.660 L 108.240 480.217 L 108.055 480.844 L 107.028 484.426 L 106.853 485.052 L 105.874 488.658 L 105.710 489.284 L 104.781 492.913 L 104.626 493.538 L 103.747 497.188 L 103.601 497.812 L 102.773 501.484 L 102.637 502.107 L 101.858 505.797 L 101.732 506.420 L 101.004 510.128 L 100.887 510.750 L 100.210 514.476 L 100.102 515.097 L 99.477 518.838 L 99.377 519.458 L 98.803 523.214 L 98.713 523.834 L 98.191 527.602 L 98.109 528.222 L 97.638 532.002 L 97.566 532.621 L 97.147 536.412 L 97.083 537.031 L 96.716 540.831 L 96.661 541.450 L 96.546 542.838 L 96.276 543.194 L 95.629 544.089 L 95.004 544.999 L 94.402 545.925 L 93.822 546.865 L 93.266 547.820 L 92.734 548.787 L 92.225 549.767 L 91.740 550.760 L 91.281 551.764 L 90.845 552.779 L 90.435 553.805 L 90.051 554.840 L 89.691 555.884 L 89.358 556.937 L 89.050 557.998 L 88.769 559.066 L 88.513 560.140 L 88.285 561.221 L 88.083 562.307 L 87.907 563.397 L 87.758 564.492 L 87.637 565.589 L 87.542 566.690 L 87.474 567.792 L 87.434 568.896 L 87.420 570.000 L 87.434 571.104 L 87.474 572.208 L 87.542 573.310 L 87.637 574.411 L 87.758 575.508 L 87.907 576.603 L 88.083 577.693 L 88.285 578.779 L 88.513 579.860 L 88.769 580.934 L 89.050 582.002 L 89.358 583.063 L 89.691 584.116 L 90.051 585.160 L 90.435 586.195 L 90.845 587.221 L 91.281 588.236 L 91.740 589.240 L 92.225 590.233 L 92.734 591.213 L 93.266 592.180 L 93.822 593.135 L 94.402 594.075 L 95.004 595.001 L 95.629 595.911 L 96.276 596.806 L 96.546 597.162 L 96.661 598.550 L 96.716 599.169 L 97.083 602.969 L 97.147 603.588 L 97.566 607.379 L 97.638 607.998 L 98.109 611.778 L 98.191 612.398 L 98.713 616.166 L 98.803 616.786 L 99.377 620.542 L 99.477 621.162 L 100.102 624.903 L 100.210 625.524 L 100.887 629.250 L 101.004 629.872 L 101.732 633.580 L 101.858 634.203 L 102.637 637.893 L 102.773 638.516 L 103.601 642.188 L 103.747 642.812 L 104.626 646.462 L 104.781 647.087 L 105.710 650.716 L 105.874 651.342 L 106.853 654.948 L 107.028 655.574 L 108.055 659.156 L 108.240 659.783 L 109.317 663.340 L 109.512 663.968 L 110.637 667.499 L 110.842 668.127 L 112.016 671.630 L 112.232 672.260 L 113.453 675.734 L 113.680 676.364 L 114.949 679.808 L 115.186 680.440 L 116.502 683.853 L 116.751 684.484 L 118.113 687.865 L 118.374 688.498 L 119.782 691.846 L 120.054 692.479 L 121.508 695.792 L 121.792 696.426 L 123.291 699.704 L 123.587 700.338 L 125.131 703.579 L 125.439 704.214 L 127.027 707.417 L 127.348 708.052 L 128.980 711.217 L 129.313 711.852 L 130.988 714.977 L 131.335 715.612 L 133.052 718.697 L 133.412 719.332 L 135.172 722.374 L 135.545 723.009 L 137.346 726.009 L 137.734 726.643 L 139.575 729.599 L 139.977 730.233 L 141.859 733.144 L 142.275 733.777 L 144.197 736.643 L 144.628 737.274 L 146.588 740.094 L 147.034 740.723 L 149.033 743.495 L 149.494 744.123 L 151.530 746.847 L 152.007 747.473 L 154.080 750.147 L 154.573 750.771 L 156.683 753.395 L 157.191 754.017 L 159.337 756.589 L 159.862 757.208 L 162.042 759.729 L 162.583 760.344 L 164.798 762.812 L 165.356 763.423 L 167.604 765.838 L 168.180 766.444 L 170.460 768.805 L 171.053 769.407 L 173.366 771.712 L 173.976 772.309 L 176.320 774.558 L 176.948 775.150 L 179.322 777.342 L 179.968 777.927 L 182.372 780.063 L 183.036 780.641 L 185.469 782.718 L 186.151 783.289 L 188.612 785.308 L 189.312 785.870 L 191.800 787.830 L 192.519 788.384 L 195.034 790.283 L 195.771 790.828 L 198.311 792.666 L 199.066 793.201 L 201.631 794.978 L 202.405 795.502 L 204.994 797.217 L 205.786 797.730 L 208.398 799.383 L 209.208 799.884 L 211.842 801.473 L 212.670 801.961 L 215.326 803.487 L 216.171 803.962 L 218.848 805.424 L 219.711 805.883 L 222.407 807.281 L 223.287 807.726 L 226.001 809.059 L 226.899 809.487 L 229.631 810.754 L 230.545 811.166 L 233.294 812.368 L 234.224 812.762 L 236.989 813.897 L 237.934 814.273 L 240.714 815.342 L 241.674 815.699 L 244.469 816.701 L 245.443 817.037 L 248.251 817.972 L 249.239 818.288 L 252.059 819.156 L 253.059 819.451 L 255.891 820.250 L 256.904 820.523 L 259.746 821.255 L 260.769 821.505 L 263.621 822.168 L 264.655 822.396 L 267.515 822.990 L 268.559 823.194 L 271.427 823.720 L 272.479 823.900 L 275.353 824.357 L 276.413 824.512 L 279.293 824.900 L 280.358 825.030 L 283.244 825.348 L 284.314 825.454 L 287.204 825.703 L 288.278 825.782 L 291.171 825.962 L 292.248 826.016 L 295.142 826.126 L 296.222 826.155 L 299.117 826.195 L 300.197 826.198 L 303.093 826.169 L 304.172 826.145 L 307.067 826.047 L 308.145 825.997 L 311.037 825.830 L 312.113 825.754 L 315.003 825.517 L 316.074 825.416 L 318.960 825.110 L 320.027 824.984 L 322.908 824.608 L 323.968 824.457 L 326.844 824.012 L 327.897 823.836 L 330.766 823.323 L 331.811 823.123 L 334.673 822.540 L 335.709 822.317 L 338.562 821.665 L 339.588 821.419 L 342.431 820.699 L 343.446 820.430 L 346.279 819.642 L 347.282 819.351 L 350.104 818.495 L 351.094 818.183 L 353.904 817.259 L 354.881 816.926 L 357.678 815.936 L 358.640 815.582 L 361.423 814.525 L 362.371 814.152 L 365.139 813.028 L 366.071 812.637 L 368.823 811.447 L 369.740 811.039 L 372.475 809.782 L 373.375 809.357 L 376.093 808.035 L 376.976 807.593 L 379.675 806.207 L 380.541 805.750 L 383.221 804.299 L 384.070 803.827 L 386.729 802.312 L 387.560 801.826 L 390.198 800.247 L 391.011 799.749 L 393.627 798.107 L 394.422 797.596 L 397.015 795.892 L 397.792 795.369 L 400.361 793.603 L 401.120 793.070 L 403.664 791.242 L 404.404 790.699 L 406.923 788.810 L 407.645 788.257 L 410.138 786.309 L 410.841 785.747 L 413.307 783.739 L 413.992 783.169 L 416.430 781.102 L 417.097 780.525 L 419.506 778.400 L 420.155 777.816 L 422.535 775.633 L 423.166 775.043 L 425.515 772.803 L 426.128 772.207 L 428.446 769.912 L 429.042 769.310 L 431.328 766.959 L 431.907 766.353 L 434.161 763.948 L 434.722 763.338 L 436.942 760.879 L 437.487 760.264 L 439.673 757.752 L 440.201 757.135 L 442.352 754.571 L 442.864 753.950 L 444.979 751.335 L 445.475 750.711 L 447.554 748.046 L 448.034 747.420 L 450.077 744.705 L 450.541 744.077 L 452.546 741.313 L 452.994 740.684 L 454.961 737.872 L 455.395 737.241 L 457.323 734.383 L 457.742 733.751 L 459.630 730.847 L 460.035 730.214 L 461.883 727.265 L 462.273 726.631 L 464.081 723.639 L 464.457 723.004 L 466.224 719.969 L 466.586 719.334 L 468.311 716.256 L 468.660 715.622 L 470.342 712.503 L 470.854 711.525 L 471.343 710.534 L 471.806 709.532 L 472.245 708.518 L 472.659 707.494 L 473.048 706.461 L 473.411 705.418 L 473.749 704.366 L 474.061 703.306 L 474.346 702.240 L 474.605 701.166 L 474.838 700.086 L 475.045 699.001 L 475.224 697.912 L 475.377 696.818 L 475.503 695.721 L 475.602 694.621 L 475.674 693.518 L 475.719 692.415 L 475.736 691.311 L 475.727 690.206 L 475.691 689.102 L 475.627 688.000 L 475.536 686.899 L 475.419 685.801 L 475.274 684.706 L 475.103 683.615 L 474.905 682.528 L 474.680 681.447 L 474.429 680.371 L 474.152 679.302 L 473.848 678.241 L 473.519 677.186 L 473.164 676.141 L 472.783 675.104 L 472.376 674.077 L 471.945 673.060 L 471.489 672.054 L 471.008 671.060 L 470.504 670.078 L 469.975 669.108 L 469.422 668.152 L 468.846 667.209 L 468.248 666.281 L 467.626 665.368 L 466.983 664.471 L 466.317 663.589 L 465.631 662.724 L 464.923 661.876 L 464.194 661.046 L 463.446 660.234 L 462.677 659.441 L 461.890 658.667 L 461.084 657.912 L 460.259 657.177 L 459.417 656.463 L 458.557 655.769 L 457.681 655.097 L 456.788 654.447 L 455.880 653.819 L 454.956 653.213 L 454.018 652.630 L 453.066 652.070 L 452.100 651.534 L 451.122 651.022 L 450.131 650.533 L 449.129 650.070 L 448.116 649.631 L 447.092 649.217 L 446.058 648.828 L 445.015 648.465 L 443.963 648.127 L 442.904 647.815 L 441.837 647.530 L 440.763 647.271 L 439.684 647.038 L 438.599 646.831 L 437.509 646.652 L 436.415 646.499 L 435.318 646.373 L 434.218 646.274 L 433.116 646.202 L 432.012 646.157 L 430.908 646.140 L 429.804 646.149 L 428.700 646.185 L 427.597 646.249 L 426.496 646.340 L 425.398 646.457 L 424.303 646.602 L 423.212 646.773 L 422.126 646.971 L 421.044 647.196 L 419.969 647.447 L 418.900 647.724 L 417.838 648.028 L 416.784 648.357 L 415.738 648.712 L 414.701 649.093 L 413.674 649.500 L 412.658 649.931 L 411.652 650.387 L 410.657 650.868 L 409.675 651.372 L 408.705 651.901 L 407.749 652.454 L 406.807 653.030 L 405.879 653.628 L 404.966 654.250 L 404.068 654.893 L 403.186 655.559 L 402.322 656.245 L 401.474 656.953 L 400.644 657.682 L 399.832 658.430 L 399.038 659.199 L 398.264 659.986 L 397.509 660.792 L 396.774 661.617 L 396.060 662.459 L 395.367 663.319 L 394.695 664.195 L 394.044 665.088 L 393.416 665.996 L 392.810 666.920 L 392.227 667.858 L 391.667 668.810 L 391.131 669.776 L 389.621 672.575 L 388.252 675.018 L 386.855 677.419 L 385.430 679.778 L 383.979 682.093 L 382.502 684.364 L 380.999 686.591 L 379.473 688.772 L 377.924 690.907 L 376.353 692.995 L 374.761 695.036 L 373.148 697.029 L 371.516 698.974 L 369.866 700.870 L 368.199 702.717 L 366.515 704.514 L 364.816 706.261 L 363.103 707.958 L 361.376 709.605 L 359.636 711.200 L 357.885 712.745 L 356.124 714.239 L 354.352 715.682 L 352.572 717.073 L 350.784 718.414 L 348.989 719.704 L 347.187 720.942 L 345.380 722.130 L 343.568 723.268 L 341.752 724.354 L 339.933 725.391 L 338.111 726.378 L 336.287 727.315 L 334.461 728.203 L 332.634 729.042 L 330.806 729.833 L 328.979 730.575 L 327.151 731.269 L 325.324 731.917 L 323.497 732.517 L 321.671 733.070 L 319.847 733.577 L 318.023 734.039 L 316.201 734.455 L 314.379 734.825 L 312.559 735.151 L 310.741 735.433 L 308.923 735.670 L 307.106 735.863 L 305.290 736.012 L 303.474 736.117 L 301.659 736.179 L 299.844 736.197 L 298.028 736.171 L 296.213 736.102 L 294.397 735.989 L 292.581 735.832 L 290.764 735.632 L 288.946 735.387 L 287.127 735.098 L 285.307 734.765 L 283.485 734.386 L 281.663 733.963 L 279.839 733.493 L 278.014 732.978 L 276.188 732.417 L 274.361 731.808 L 272.534 731.153 L 270.706 730.450 L 268.879 729.700 L 267.051 728.901 L 265.224 728.054 L 263.399 727.157 L 261.575 726.211 L 259.753 725.216 L 257.934 724.171 L 256.119 723.075 L 254.308 721.929 L 252.502 720.732 L 250.701 719.485 L 248.907 718.187 L 247.120 716.837 L 245.342 715.437 L 243.572 713.985 L 241.812 712.482 L 240.063 710.929 L 238.326 709.324 L 236.601 707.669 L 234.890 705.964 L 233.193 704.208 L 231.512 702.402 L 229.848 700.547 L 228.201 698.642 L 226.572 696.689 L 224.963 694.688 L 223.374 692.639 L 221.807 690.542 L 220.262 688.399 L 218.740 686.210 L 217.242 683.976 L 215.769 681.697 L 214.322 679.374 L 212.902 677.008 L 211.510 674.600 L 210.146 672.150 L 208.811 669.659 L 207.507 667.129 L 206.234 664.560 L 204.992 661.953 L 203.783 659.309 L 202.607 656.629 L 201.465 653.915 L 200.357 651.166 L 199.285 648.385 L 198.249 645.571 L 197.249 642.728 L 196.287 639.854 L 195.362 636.952 L 194.475 634.023 L 193.628 631.068 L 192.819 628.088 L 192.050 625.085 L 191.322 622.059 L 190.634 619.011 L 189.987 615.944 L 189.802 615.000 L 403.740 615.000 L 404.844 614.986 Z" fill="black" fill-rule="evenodd"/>
</svg>
