<svg xmlns="http://www.w3.org/2000/svg" viewBox="0 0 600.000 1000">
  <path d="M 410.014 781.104 L 410.054 782.208 L 410.122 783.310 L 410.217 784.411 L 410.338 785.508 L 410.487 786.603 L 410.663 787.693 L 410.865 788.779 L 411.093 789.860 L 411.349 790.934 L 411.630 792.002 L 411.938 793.063 L 412.271 794.116 L 412.631 795.160 L 413.015 796.195 L 413.425 797.221 L 413.861 798.236 L 414.320 799.240 L 414.805 800.233 L 415.314 801.213 L 415.846 802.180 L 416.402 803.135 L 416.982 804.075 L 417.584 805.001 L 418.209 805.911 L 418.856 806.806 L 419.524 807.685 L 420.215 808.548 L 420.926 809.393 L 421.657 810.220 L 422.409 811.029 L 423.180 811.820 L 423.971 812.591 L 424.780 813.343 L 425.607 814.074 L 426.452 814.785 L 427.315 815.476 L 428.194 816.144 L 429.089 816.791 L 429.999 817.416 L 430.925 818.018 L 431.865 818.598 L 432.820 819.154 L 433.787 819.686 L 434.767 820.195 L 435.760 820.680 L 436.764 821.139 L 437.779 821.575 L 438.805 821.985 L 439.840 822.369 L 440.884 822.729 L 441.937 823.062 L 442.998 823.370 L 444.066 823.651 L 445.140 823.907 L 446.221 824.135 L 447.307 824.337 L 448.397 824.513 L 449.492 824.662 L 450.589 824.783 L 451.690 824.878 L 452.792 824.946 L 453.896 824.986 L 455.000 825.000 L 456.104 824.986 L 457.208 824.946 L 458.310 824.878 L 459.411 824.783 L 460.508 824.662 L 461.603 824.513 L 462.693 824.337 L 463.779 824.135 L 464.860 823.907 L 465.934 823.651 L 467.002 823.370 L 468.063 823.062 L 469.116 822.729 L 470.160 822.369 L 471.195 821.985 L 472.221 821.575 L 473.236 821.139 L 474.240 820.680 L 475.233 820.195 L 476.213 819.686 L 477.180 819.154 L 478.135 818.598 L 479.075 818.018 L 480.001 817.416 L 480.911 816.791 L 481.806 816.144 L 482.685 815.476 L 483.548 814.785 L 484.393 814.074 L 485.220 813.343 L 486.029 812.591 L 486.820 811.820 L 487.591 811.029 L 488.343 810.220 L 489.074 809.393 L 489.785 808.548 L 490.476 807.685 L 491.144 806.806 L 491.791 805.911 L 492.416 805.001 L 493.018 804.075 L 493.598 803.135 L 494.154 802.180 L 494.686 801.213 L 495.195 800.233 L 495.680 799.240 L 496.139 798.236 L 496.575 797.221 L 496.985 796.195 L 497.369 795.160 L 497.729 794.116 L 498.062 793.063 L 498.370 792.002 L 498.651 790.934 L 498.907 789.860 L 499.135 788.779 L 499.337 787.693 L 499.513 786.603 L 499.662 785.508 L 499.783 784.411 L 499.878 783.310 L 499.946 782.208 L 499.986 781.104 L 500.000 780.000 L 500.000 40.000 L 499.986 38.896 L 499.946 37.792 L 499.878 36.690 L 499.783 35.589 L 499.662 34.492 L 499.513 33.397 L 499.337 32.307 L 499.135 31.221 L 498.907 30.140 L 498.651 29.066 L 498.370 27.998 L 498.062 26.937 L 497.729 25.884 L 497.369 24.840 L 496.985 23.805 L 496.575 22.779 L 496.139 21.764 L 495.680 20.760 L 495.195 19.767 L 494.686 18.787 L 494.154 17.820 L 493.598 16.865 L 493.018 15.925 L 492.416 14.999 L 491.791 14.089 L 491.144 13.194 L 490.476 12.315 L 489.785 11.452 L 489.074 10.607 L 488.343 9.780 L 487.591 8.971 L 486.820 8.180 L 486.029 7.409 L 485.220 6.657 L 484.393 5.926 L 483.548 5.215 L 482.685 4.524 L 481.806 3.856 L 480.911 3.209 L 480.001 2.584 L 479.075 1.982 L 478.135 1.402 L 477.180 0.846 L 476.213 0.314 L 475.233 -0.195 L 474.240 -0.680 L 473.236 -1.139 L 472.221 -1.575 L 471.195 -1.985 L 470.160 -2.369 L 469.116 -2.729 L 468.063 -3.062 L 467.002 -3.370 L 465.934 -3.651 L 464.860 -3.907 L 463.779 -4.135 L 462.693 -4.337 L 461.603 -4.513 L 460.508 -4.662 L 459.411 -4.783 L 458.310 -4.878 L 457.208 -4.946 L 456.104 -4.986 L 455.000 -5.000 L 453.896 -4.986 L 452.792 -4.946 L 451.690 -4.878 L 450.589 -4.783 L 449.492 -4.662 L 448.397 -4.513 L 447.307 -4.337 L 446.221 -4.135 L 445.140 -3.907 L 444.066 -3.651 L 442.998 -3.370 L 441.937 -3.062 L 440.884 -2.729 L 439.840 -2.369 L 438.805 -1.985 L 437.779 -1.575 L 436.764 -1.139 L 435.760 -0.680 L 434.767 -0.195 L 433.787 0.314 L 432.820 0.846 L 431.865 1.402 L 430.925 1.982 L 429.999 2.584 L 429.089 3.209 L 428.194 3.856 L 427.315 4.524 L 426.452 5.215 L 425.607 5.926 L 424.780 6.657 L 423.971 7.409 L 423.180 8.180 L 422.409 8.971 L 421.657 9.780 L 420.926 10.607 L 420.215 11.452 L 419.524 12.315 L 418.856 13.194 L 418.209 14.089 L 417.584 14.999 L 416.982 15.925 L 416.402 16.865 L 415.846 17.820 L 415.314 18.787 L 414.805 19.767 L 414.320 20.760 L 413.861 21.764 L 413.425 22.779 L 413.015 23.805 L 412.631 24.840 L 412.271 25.884 L 411.938 26.937 L 411.630 27.998 L 411.349 29.066 L 411.093 30.140 L 410.865 31.221 L 410.663 32.307 L 410.487 33.397 L 410.338 34.492 L 410.217 35.589 L 410.122 36.690 L 410.054 37.792 L 410.014 38.896 L 410.000 40.000 L 410.000 780.000 L 410.014 781.104 Z M 272.335 734.946 L 270.702 734.880 L 269.070 734.788 L 267.438 734.669 L 265.807 734.525 L 264.176 734.353 L 262.546 734.156 L 260.916 733.931 L 259.288 733.681 L 257.661 733.403 L 256.034 733.100 L 254.409 732.769 L 252.786 732.412 L 251.164 732.028 L 249.543 731.618 L 247.925 731.180 L 246.308 730.716 L 244.694 730.225 L 243.081 729.707 L 241.472 729.162 L 239.865 728.589 L 238.260 727.990 L 236.659 727.363 L 235.062 726.710 L 233.467 726.029 L 231.877 725.320 L 230.290 724.585 L 228.707 723.822 L 227.129 723.031 L 225.556 722.213 L 223.987 721.368 L 222.424 720.495 L 220.866 719.595 L 219.314 718.668 L 217.768 717.712 L 216.229 716.730 L 214.696 715.720 L 213.169 714.683 L 211.651 713.618 L 210.139 712.527 L 208.636 711.408 L 207.140 710.261 L 205.654 709.088 L 204.176 707.888 L 202.707 706.660 L 201.247 705.406 L 199.798 704.126 L 198.359 702.818 L 196.930 701.484 L 195.512 700.124 L 194.105 698.738 L 192.710 697.325 L 191.327 695.887 L 189.955 694.423 L 188.597 692.934 L 187.251 691.419 L 185.919 689.879 L 184.600 688.314 L 183.295 686.724 L 182.005 685.110 L 180.729 683.472 L 179.468 681.809 L 178.222 680.123 L 176.992 678.414 L 175.778 676.681 L 174.580 674.925 L 173.399 673.147 L 172.235 671.346 L 171.088 669.523 L 169.958 667.679 L 168.847 665.813 L 167.753 663.926 L 166.678 662.018 L 165.622 660.090 L 164.585 658.141 L 163.567 656.173 L 162.569 654.186 L 161.590 652.179 L 160.632 650.154 L 159.694 648.111 L 158.777 646.050 L 157.881 643.971 L 157.006 641.876 L 156.152 639.764 L 155.321 637.635 L 154.511 635.491 L 153.723 633.331 L 152.957 631.156 L 152.214 628.967 L 151.494 626.763 L 150.797 624.546 L 150.123 622.316 L 149.472 620.073 L 148.845 617.817 L 148.242 615.550 L 147.662 613.271 L 147.106 610.981 L 146.575 608.681 L 146.068 606.370 L 145.585 604.050 L 145.128 601.721 L 144.694 599.383 L 144.286 597.038 L 143.903 594.684 L 143.544 592.323 L 143.211 589.956 L 142.903 587.582 L 142.621 585.203 L 142.364 582.819 L 142.132 580.429 L 141.926 578.036 L 141.746 575.639 L 141.591 573.238 L 141.462 570.835 L 141.359 568.430 L 141.281 566.022 L 141.230 563.614 L 141.204 561.205 L 141.204 558.795 L 141.230 556.386 L 141.281 553.978 L 141.359 551.570 L 141.462 549.165 L 141.591 546.762 L 141.746 544.361 L 141.926 541.964 L 142.132 539.571 L 142.364 537.181 L 142.621 534.797 L 142.903 532.418 L 143.211 530.044 L 143.544 527.677 L 143.903 525.316 L 144.286 522.962 L 144.694 520.617 L 145.128 518.279 L 145.585 515.950 L 146.068 513.630 L 146.575 511.319 L 147.106 509.019 L 147.662 506.729 L 148.242 504.450 L 148.845 502.183 L 149.472 499.927 L 150.123 497.684 L 150.797 495.454 L 151.494 493.237 L 152.214 491.033 L 152.957 488.844 L 153.723 486.669 L 154.511 484.509 L 155.321 482.365 L 156.152 480.236 L 157.006 478.124 L 157.881 476.029 L 158.777 473.950 L 159.694 471.889 L 160.632 469.846 L 161.590 467.821 L 162.569 465.814 L 163.567 463.827 L 164.585 461.859 L 165.622 459.910 L 166.678 457.982 L 167.753 456.074 L 168.847 454.187 L 169.958 452.321 L 171.088 450.477 L 172.235 448.654 L 173.399 446.853 L 174.580 445.075 L 175.778 443.319 L 176.992 441.586 L 178.222 439.877 L 179.468 438.191 L 180.729 436.528 L 182.005 434.890 L 183.295 433.276 L 184.600 431.686 L 185.919 430.121 L 187.251 428.581 L 188.597 427.066 L 189.955 425.577 L 191.327 424.113 L 192.710 422.675 L 194.105 421.262 L 195.512 419.876 L 196.930 418.516 L 198.359 417.182 L 199.798 415.874 L 201.247 414.594 L 202.707 413.340 L 204.176 412.112 L 205.654 410.912 L 207.140 409.739 L 208.636 408.592 L 210.139 407.473 L 211.651 406.382 L 213.169 405.317 L 214.696 404.280 L 216.229 403.270 L 217.768 402.288 L 219.314 401.332 L 220.866 400.405 L 222.424 399.505 L 223.987 398.632 L 225.556 397.787 L 227.129 396.969 L 228.707 396.178 L 230.290 395.415 L 231.877 394.680 L 233.467 393.971 L 235.062 393.290 L 236.659 392.637 L 238.260 392.010 L 239.865 391.411 L 241.472 390.838 L 243.081 390.293 L 244.694 389.775 L 246.308 389.284 L 247.925 388.820 L 249.543 388.382 L 251.164 387.972 L 252.786 387.588 L 254.409 387.231 L 256.034 386.900 L 257.661 386.597 L 259.288 386.319 L 260.916 386.069 L 262.546 385.844 L 264.176 385.647 L 265.807 385.475 L 267.438 385.331 L 269.070 385.212 L 270.702 385.120 L 272.335 385.054 L 273.967 385.015 L 275.963 384.999 L 277.067 384.976 L 278.170 384.927 L 279.272 384.850 L 280.372 384.746 L 281.468 384.616 L 282.561 384.458 L 283.650 384.274 L 284.734 384.063 L 285.813 383.826 L 286.886 383.562 L 287.951 383.272 L 289.009 382.956 L 290.060 382.614 L 291.101 382.246 L 292.133 381.853 L 293.155 381.434 L 294.167 380.991 L 295.167 380.523 L 296.156 380.031 L 297.132 379.514 L 298.095 378.974 L 299.045 378.410 L 299.981 377.823 L 300.901 377.213 L 301.807 376.581 L 302.697 375.927 L 303.570 375.251 L 304.427 374.554 L 305.266 373.836 L 306.088 373.098 L 306.891 372.340 L 307.675 371.562 L 308.440 370.766 L 309.185 369.950 L 309.910 369.117 L 310.614 368.266 L 311.298 367.399 L 311.959 366.514 L 312.599 365.614 L 313.216 364.698 L 313.811 363.768 L 314.383 362.823 L 314.931 361.864 L 315.456 360.892 L 315.957 359.908 L 316.433 358.911 L 316.885 357.904 L 317.312 356.885 L 317.714 355.856 L 318.090 354.818 L 318.441 353.771 L 318.766 352.715 L 319.065 351.652 L 319.338 350.582 L 319.585 349.505 L 319.805 348.423 L 319.998 347.336 L 320.165 346.244 L 320.305 345.148 L 320.417 344.050 L 320.503 342.949 L 320.562 341.846 L 320.594 340.742 L 320.599 339.637 L 320.576 338.533 L 320.527 337.430 L 320.450 336.328 L 320.346 335.228 L 320.216 334.132 L 320.058 333.039 L 319.874 331.950 L 319.663 330.866 L 319.426 329.787 L 319.162 328.714 L 318.872 327.649 L 318.556 326.591 L 318.214 325.540 L 317.846 324.499 L 317.453 323.467 L 317.034 322.445 L 316.591 321.433 L 316.123 320.433 L 315.631 319.444 L 315.114 318.468 L 314.574 317.505 L 314.010 316.555 L 313.423 315.619 L 312.813 314.699 L 312.181 313.793 L 311.527 312.903 L 310.851 312.030 L 310.154 311.173 L 309.436 310.334 L 308.698 309.512 L 307.940 308.709 L 307.162 307.925 L 306.366 307.160 L 305.550 306.415 L 304.717 305.690 L 303.866 304.986 L 302.999 304.302 L 302.114 303.641 L 301.214 303.001 L 300.298 302.384 L 299.368 301.789 L 298.423 301.217 L 297.464 300.669 L 296.492 300.144 L 295.508 299.643 L 294.511 299.167 L 293.504 298.715 L 292.485 298.288 L 291.456 297.886 L 290.418 297.510 L 289.371 297.159 L 288.315 296.834 L 287.252 296.535 L 286.182 296.262 L 285.105 296.015 L 284.023 295.795 L 282.936 295.602 L 281.844 295.435 L 280.748 295.295 L 279.650 295.183 L 278.549 295.097 L 277.446 295.038 L 276.342 295.006 L 275.237 295.001 L 272.879 295.020 L 272.154 295.032 L 269.796 295.089 L 269.072 295.113 L 266.715 295.208 L 265.991 295.243 L 263.635 295.376 L 262.912 295.422 L 260.558 295.593 L 259.837 295.651 L 257.485 295.860 L 256.765 295.930 L 254.416 296.177 L 253.698 296.258 L 251.351 296.543 L 250.636 296.635 L 248.292 296.958 L 247.579 297.062 L 245.240 297.422 L 244.530 297.537 L 242.194 297.935 L 241.487 298.061 L 239.156 298.496 L 238.453 298.634 L 236.127 299.107 L 235.427 299.255 L 233.106 299.765 L 232.411 299.924 L 230.095 300.472 L 229.404 300.641 L 227.095 301.226 L 226.408 301.406 L 224.105 302.028 L 223.423 302.218 L 221.127 302.878 L 220.450 303.078 L 218.161 303.774 L 217.490 303.984 L 215.209 304.717 L 214.543 304.937 L 212.270 305.707 L 211.609 305.936 L 209.344 306.743 L 208.690 306.982 L 206.434 307.824 L 205.786 308.072 L 203.539 308.952 L 202.897 309.209 L 200.660 310.124 L 200.024 310.390 L 197.797 311.341 L 197.168 311.616 L 194.951 312.603 L 194.329 312.886 L 192.123 313.908 L 191.507 314.199 L 189.313 315.258 L 188.704 315.557 L 186.521 316.650 L 185.920 316.957 L 183.749 318.086 L 183.155 318.400 L 180.996 319.564 L 180.409 319.885 L 178.263 321.084 L 177.684 321.413 L 175.550 322.645 L 174.979 322.981 L 172.859 324.248 L 172.295 324.591 L 170.189 325.892 L 169.633 326.241 L 167.541 327.576 L 166.993 327.931 L 164.915 329.300 L 164.375 329.661 L 162.312 331.063 L 161.780 331.430 L 159.733 332.865 L 159.208 333.239 L 157.176 334.706 L 156.660 335.085 L 154.644 336.585 L 154.136 336.969 L 152.136 338.502 L 151.636 338.891 L 149.653 340.456 L 149.161 340.850 L 147.195 342.447 L 146.710 342.846 L 144.762 344.474 L 144.286 344.877 L 142.355 346.537 L 141.887 346.944 L 139.974 348.635 L 139.514 349.047 L 137.619 350.768 L 137.167 351.184 L 135.291 352.935 L 134.848 353.355 L 132.990 355.137 L 132.555 355.560 L 130.717 357.372 L 130.289 357.799 L 128.471 359.639 L 128.051 360.070 L 126.253 361.940 L 125.841 362.373 L 124.063 364.272 L 123.660 364.709 L 121.902 366.636 L 121.506 367.075 L 119.769 369.031 L 119.381 369.473 L 117.665 371.457 L 117.286 371.901 L 115.591 373.912 L 115.219 374.360 L 113.546 376.398 L 113.182 376.847 L 111.531 378.912 L 111.174 379.364 L 109.546 381.455 L 109.197 381.909 L 107.591 384.027 L 107.249 384.483 L 105.666 386.626 L 105.332 387.084 L 103.772 389.252 L 103.445 389.712 L 101.909 391.905 L 101.590 392.367 L 100.076 394.585 L 99.765 395.048 L 98.276 397.290 L 97.971 397.754 L 96.506 400.020 L 96.209 400.486 L 94.768 402.776 L 94.478 403.243 L 93.062 405.555 L 92.779 406.024 L 91.388 408.359 L 91.112 408.829 L 89.746 411.186 L 89.477 411.657 L 88.137 414.036 L 87.875 414.507 L 86.560 416.908 L 86.304 417.381 L 85.015 419.802 L 84.767 420.276 L 83.504 422.718 L 83.262 423.192 L 82.025 425.654 L 81.790 426.129 L 80.580 428.611 L 80.351 429.087 L 79.167 431.588 L 78.945 432.065 L 77.789 434.585 L 77.573 435.062 L 76.444 437.601 L 76.234 438.078 L 75.132 440.635 L 74.929 441.113 L 73.855 443.687 L 73.658 444.166 L 72.611 446.757 L 72.421 447.236 L 71.401 449.844 L 71.217 450.323 L 70.226 452.947 L 70.048 453.427 L 69.085 456.067 L 68.913 456.547 L 67.978 459.202 L 67.812 459.682 L 66.906 462.352 L 66.746 462.833 L 65.869 465.517 L 65.715 465.998 L 64.866 468.696 L 64.718 469.177 L 63.898 471.889 L 63.756 472.370 L 62.966 475.095 L 62.829 475.576 L 62.068 478.313 L 61.937 478.795 L 61.205 481.544 L 61.080 482.025 L 60.378 484.786 L 60.258 485.268 L 59.585 488.040 L 59.471 488.522 L 58.829 491.304 L 58.720 491.786 L 58.107 494.578 L 58.004 495.061 L 57.421 497.863 L 57.324 498.345 L 56.771 501.156 L 56.679 501.638 L 56.156 504.458 L 56.070 504.940 L 55.577 507.768 L 55.496 508.251 L 55.034 511.087 L 54.958 511.569 L 54.527 514.412 L 54.456 514.894 L 54.055 517.744 L 53.990 518.226 L 53.620 521.082 L 53.560 521.564 L 53.220 524.426 L 53.165 524.908 L 52.856 527.775 L 52.807 528.258 L 52.529 531.129 L 52.484 531.612 L 52.237 534.487 L 52.198 534.970 L 51.981 537.849 L 51.948 538.332 L 51.762 541.215 L 51.733 541.697 L 51.578 544.583 L 51.555 545.065 L 51.431 547.953 L 51.413 548.435 L 51.320 551.325 L 51.307 551.807 L 51.245 554.698 L 51.237 555.180 L 51.206 558.072 L 51.204 558.554 L 51.204 561.446 L 51.206 561.928 L 51.237 564.820 L 51.245 565.302 L 51.307 568.193 L 51.320 568.675 L 51.413 571.565 L 51.431 572.047 L 51.555 574.935 L 51.578 575.417 L 51.733 578.303 L 51.762 578.785 L 51.948 581.668 L 51.981 582.151 L 52.198 585.030 L 52.237 585.513 L 52.484 588.388 L 52.529 588.871 L 52.807 591.742 L 52.856 592.225 L 53.165 595.092 L 53.220 595.574 L 53.560 598.436 L 53.620 598.918 L 53.990 601.774 L 54.055 602.256 L 54.456 605.106 L 54.527 605.588 L 54.958 608.431 L 55.034 608.913 L 55.496 611.749 L 55.577 612.232 L 56.070 615.060 L 56.156 615.542 L 56.679 618.362 L 56.771 618.844 L 57.324 621.655 L 57.421 622.137 L 58.004 624.939 L 58.107 625.422 L 58.720 628.214 L 58.829 628.696 L 59.471 631.478 L 59.585 631.960 L 60.258 634.732 L 60.378 635.214 L 61.080 637.975 L 61.205 638.456 L 61.937 641.205 L 62.068 641.687 L 62.829 644.424 L 62.966 644.905 L 63.756 647.630 L 63.898 648.111 L 64.718 650.823 L 64.866 651.304 L 65.715 654.002 L 65.869 654.483 L 66.746 657.167 L 66.906 657.648 L 67.812 660.318 L 67.978 660.798 L 68.913 663.453 L 69.085 663.933 L 70.048 666.573 L 70.226 667.053 L 71.217 669.677 L 71.401 670.156 L 72.421 672.764 L 72.611 673.243 L 73.658 675.834 L 73.855 676.313 L 74.929 678.887 L 75.132 679.365 L 76.234 681.922 L 76.444 682.399 L 77.573 684.938 L 77.789 685.415 L 78.945 687.935 L 79.167 688.412 L 80.351 690.913 L 80.580 691.389 L 81.790 693.871 L 82.025 694.346 L 83.262 696.808 L 83.504 697.282 L 84.767 699.724 L 85.015 700.198 L 86.304 702.619 L 86.560 703.092 L 87.875 705.493 L 88.137 705.964 L 89.477 708.343 L 89.746 708.814 L 91.112 711.171 L 91.388 711.641 L 92.779 713.976 L 93.062 714.445 L 94.478 716.757 L 94.768 717.224 L 96.209 719.514 L 96.506 719.980 L 97.971 722.246 L 98.276 722.710 L 99.765 724.952 L 100.076 725.415 L 101.590 727.633 L 101.909 728.095 L 103.445 730.288 L 103.772 730.748 L 105.332 732.916 L 105.666 733.374 L 107.249 735.517 L 107.591 735.973 L 109.197 738.091 L 109.546 738.545 L 111.174 740.636 L 111.531 741.088 L 113.182 743.153 L 113.546 743.602 L 115.219 745.640 L 115.591 746.088 L 117.286 748.099 L 117.665 748.543 L 119.381 750.527 L 119.769 750.969 L 121.506 752.925 L 121.902 753.364 L 123.660 755.291 L 124.063 755.728 L 125.841 757.627 L 126.253 758.060 L 128.051 759.930 L 128.471 760.361 L 130.289 762.201 L 130.717 762.628 L 132.555 764.440 L 132.990 764.863 L 134.848 766.645 L 135.291 767.065 L 137.167 768.816 L 137.619 769.232 L 139.514 770.953 L 139.974 771.365 L 141.887 773.056 L 142.355 773.463 L 144.286 775.123 L 144.762 775.526 L 146.710 777.154 L 147.195 777.553 L 149.161 779.150 L 149.653 779.544 L 151.636 781.109 L 152.136 781.498 L 154.136 783.031 L 154.644 783.415 L 156.660 784.915 L 157.176 785.294 L 159.208 786.761 L 159.733 787.135 L 161.780 788.570 L 162.312 788.937 L 164.375 790.339 L 164.915 790.700 L 166.993 792.069 L 167.541 792.424 L 169.633 793.759 L 170.189 794.108 L 172.295 795.409 L 172.859 795.752 L 174.979 797.019 L 175.550 797.355 L 177.684 798.587 L 178.263 798.916 L 180.409 800.115 L 180.996 800.436 L 183.155 801.600 L 183.749 801.914 L 185.920 803.043 L 186.521 803.350 L 188.704 804.443 L 189.313 804.742 L 191.507 805.801 L 192.123 806.092 L 194.329 807.114 L 194.951 807.397 L 197.168 808.384 L 197.797 808.659 L 200.024 809.610 L 200.660 809.876 L 202.897 810.791 L 203.539 811.048 L 205.786 811.928 L 206.434 812.176 L 208.690 813.018 L 209.344 813.257 L 211.609 814.064 L 212.270 814.293 L 214.543 815.063 L 215.209 815.283 L 217.490 816.016 L 218.161 816.226 L 220.450 816.922 L 221.127 817.122 L 223.423 817.782 L 224.105 817.972 L 226.408 818.594 L 227.095 818.774 L 229.404 819.359 L 230.095 819.528 L 232.411 820.076 L 233.106 820.235 L 235.427 820.745 L 236.127 820.893 L 238.453 821.366 L 239.156 821.504 L 241.487 821.939 L 242.194 822.065 L 244.530 822.463 L 245.240 822.578 L 247.579 822.938 L 248.292 823.042 L 250.636 823.365 L 251.351 823.457 L 253.698 823.742 L 254.416 823.823 L 256.765 824.070 L 257.485 824.140 L 259.837 824.349 L 260.558 824.407 L 262.912 824.578 L 263.635 824.624 L 265.991 824.757 L 266.715 824.792 L 269.072 824.887 L 269.796 824.911 L 272.154 824.968 L 272.879 824.980 L 275.237 824.999 L 276.342 824.994 L 277.446 824.962 L 278.549 824.903 L 279.650 824.817 L 280.748 824.705 L 281.844 824.565 L 282.936 824.398 L 284.023 824.205 L 285.105 823.985 L 286.182 823.738 L 287.252 823.465 L 288.315 823.166 L 289.371 822.841 L 290.418 822.490 L 291.456 822.114 L 292.485 821.712 L 293.504 821.285 L 294.511 820.833 L 295.508 820.357 L 296.492 819.856 L 297.464 819.331 L 298.423 818.783 L 299.368 818.211 L 300.298 817.616 L 301.214 816.999 L 302.114 816.359 L 302.999 815.698 L 303.866 815.014 L 304.717 814.310 L 305.550 813.585 L 306.366 812.840 L 307.162 812.075 L 307.940 811.291 L 308.698 810.488 L 309.436 809.666 L 310.154 808.827 L 310.851 807.970 L 311.527 807.097 L 312.181 806.207 L 312.813 805.301 L 313.423 804.381 L 314.010 803.445 L 314.574 802.495 L 315.114 801.532 L 315.631 800.556 L 316.123 799.567 L 316.591 798.567 L 317.034 797.555 L 317.453 796.533 L 317.846 795.501 L 318.214 794.460 L 318.556 793.409 L 318.872 792.351 L 319.162 791.286 L 319.426 790.213 L 319.663 789.134 L 319.874 788.050 L 320.058 786.961 L 320.216 785.868 L 320.346 784.772 L 320.450 783.672 L 320.527 782.570 L 320.576 781.467 L 320.599 780.363 L 320.594 779.258 L 320.562 778.154 L 320.503 777.051 L 320.417 775.950 L 320.305 774.852 L 320.165 773.756 L 319.998 772.664 L 319.805 771.577 L 319.585 770.495 L 319.338 769.418 L 319.065 768.348 L 318.766 767.285 L 318.441 766.229 L 318.090 765.182 L 317.714 764.144 L 317.312 763.115 L 316.885 762.096 L 316.433 761.089 L 315.957 760.092 L 315.456 759.108 L 314.931 758.136 L 314.383 757.177 L 313.811 756.232 L 313.216 755.302 L 312.599 754.386 L 311.959 753.486 L 311.298 752.601 L 310.614 751.734 L 309.910 750.883 L 309.185 750.050 L 308.440 749.234 L 307.675 748.438 L 306.891 747.660 L 306.088 746.902 L 305.266 746.164 L 304.427 745.446 L 303.570 744.749 L 302.697 744.073 L 301.807 743.419 L 300.901 742.787 L 299.981 742.177 L 299.045 741.590 L 298.095 741.026 L 297.132 740.486 L 296.156 739.969 L 295.167 739.477 L 294.167 739.009 L 293.155 738.566 L 292.133 738.147 L 291.101 737.754 L 290.060 737.386 L 289.009 737.044 L 287.951 736.728 L 286.886 736.438 L 285.813 736.174 L 284.734 735.937 L 283.650 735.726 L 282.561 735.542 L 281.468 735.384 L 280.372 735.254 L 279.272 735.150 L 278.170 735.073 L 277.067 735.024 L 275.963 735.001 L 273.967 734.985 L 272.335 734.946 Z" fill="black" fill-rule="evenodd"/>
</svg>
