<svg xmlns="http://www.w3.org/2000/svg" viewBox="0 0 600.000 1000.000">
  <path d="M 429.846,764.944 L 423.005,770.283 L 421.231,771.598 L 414.136,776.595 L 412.300,777.822 L 404.968,782.465 L 403.074,783.600 L 395.523,787.878 L 393.575,788.919 L 385.824,792.820 L 383.828,793.765 L 375.894,797.281 L 373.854,798.127 L 365.757,801.250 L 363.678,801.994 L 355.438,804.716 L 353.324,805.357 L 344.961,807.671 L 342.818,808.208 L 334.352,810.109 L 332.185,810.540 L 323.635,812.024 L 321.450,812.348 L 312.838,813.410 L 310.640,813.627 L 301.986,814.265 L 299.780,814.373 L 291.104,814.586 L 288.896,814.586 L 280.220,814.373 L 278.014,814.265 L 269.360,813.627 L 267.162,813.410 L 258.550,812.348 L 256.365,812.024 L 247.815,810.540 L 245.648,810.109 L 237.182,808.208 L 235.039,807.671 L 226.676,805.357 L 224.562,804.716 L 216.322,801.994 L 214.243,801.250 L 206.146,798.127 L 204.106,797.281 L 196.172,793.765 L 194.176,792.820 L 186.425,788.919 L 184.477,787.878 L 176.926,783.600 L 175.032,782.465 L 167.700,777.822 L 165.864,776.595 L 158.769,771.598 L 156.995,770.283 L 150.154,764.944 L 148.446,763.543 L 141.876,757.875 L 140.239,756.391 L 133.954,750.408 L 132.392,748.846 L 126.409,742.561 L 124.925,740.924 L 119.257,734.354 L 117.856,732.646 L 112.517,725.805 L 111.202,724.031 L 106.205,716.936 L 104.978,715.100 L 100.335,707.768 L 99.200,705.874 L 94.922,698.323 L 93.881,696.375 L 89.980,688.624 L 89.035,686.628 L 85.519,678.694 L 84.673,676.654 L 81.550,668.557 L 80.806,666.478 L 78.084,658.238 L 77.443,656.124 L 75.129,647.761 L 74.592,645.618 L 72.691,637.152 L 72.260,634.985 L 70.776,626.435 L 70.452,624.250 L 69.390,615.638 L 69.173,613.440 L 68.535,604.786 L 68.427,602.580 L 68.214,593.904 L 68.214,591.696 L 68.427,583.020 L 68.535,580.814 L 69.173,572.160 L 69.390,569.962 L 70.452,561.350 L 70.776,559.165 L 72.260,550.615 L 72.691,548.448 L 74.592,539.982 L 75.129,537.839 L 77.443,529.476 L 78.084,527.362 L 80.806,519.122 L 81.550,517.043 L 84.673,508.946 L 85.519,506.906 L 89.035,498.972 L 89.980,496.976 L 93.881,489.225 L 94.922,487.277 L 99.200,479.726 L 100.335,477.832 L 104.978,470.500 L 106.205,468.664 L 111.202,461.569 L 112.517,459.795 L 117.856,452.954 L 119.257,451.246 L 124.925,444.676 L 126.409,443.039 L 132.392,436.754 L 133.954,435.192 L 140.239,429.209 L 141.876,427.725 L 148.446,422.057 L 150.154,420.656 L 156.995,415.317 L 158.769,414.002 L 165.864,409.005 L 167.700,407.778 L 175.032,403.135 L 176.926,402.000 L 184.477,397.722 L 186.425,396.681 L 194.176,392.780 L 196.172,391.835 L 204.106,388.319 L 206.146,387.473 L 214.243,384.350 L 216.322,383.606 L 224.562,380.884 L 226.676,380.243 L 235.039,377.929 L 237.182,377.392 L 245.648,375.491 L 247.815,375.060 L 256.365,373.576 L 258.550,373.252 L 267.162,372.190 L 269.360,371.973 L 278.014,371.335 L 280.220,371.227 L 288.896,371.014 L 291.104,371.014 L 299.780,371.227 L 301.986,371.335 L 310.640,371.973 L 312.838,372.190 L 321.450,373.252 L 323.635,373.576 L 332.185,375.060 L 334.352,375.491 L 342.818,377.392 L 344.961,377.929 L 353.324,380.243 L 355.438,380.884 L 363.678,383.606 L 365.757,384.350 L 373.854,387.473 L 375.894,388.319 L 383.828,391.835 L 385.824,392.780 L 393.575,396.681 L 395.523,397.722 L 403.074,402.000 L 404.968,403.135 L 412.300,407.778 L 414.136,409.005 L 421.231,414.002 L 423.005,415.317 L 429.846,420.656 L 430.000,420.782 L 430.000,0.000 L 430.054,-2.208 L 430.217,-4.411 L 430.487,-6.603 L 430.865,-8.779 L 431.349,-10.934 L 431.938,-13.063 L 432.631,-15.160 L 433.425,-17.221 L 434.320,-19.240 L 435.314,-21.213 L 436.402,-23.135 L 437.584,-25.001 L 438.856,-26.806 L 440.215,-28.548 L 441.657,-30.220 L 443.180,-31.820 L 444.780,-33.343 L 446.452,-34.785 L 448.194,-36.144 L 449.999,-37.416 L 451.865,-38.598 L 453.787,-39.686 L 455.760,-40.680 L 457.779,-41.575 L 459.840,-42.369 L 461.937,-43.062 L 464.066,-43.651 L 466.221,-44.135 L 468.397,-44.513 L 470.589,-44.783 L 472.792,-44.946 L 475.000,-45.000 L 477.208,-44.946 L 479.411,-44.783 L 481.603,-44.513 L 483.779,-44.135 L 485.934,-43.651 L 488.063,-43.062 L 490.160,-42.369 L 492.221,-41.575 L 494.240,-40.680 L 496.213,-39.686 L 498.135,-38.598 L 500.001,-37.416 L 501.806,-36.144 L 503.548,-34.785 L 505.220,-33.343 L 506.820,-31.820 L 508.343,-30.220 L 509.785,-28.548 L 511.144,-26.806 L 512.416,-25.001 L 513.598,-23.135 L 514.686,-21.213 L 515.680,-19.240 L 516.575,-17.221 L 517.369,-15.160 L 518.062,-13.063 L 518.651,-10.934 L 519.135,-8.779 L 519.513,-6.603 L 519.783,-4.411 L 519.946,-2.208 L 520.000,0.000 L 520.000,530.920 L 520.000,780.000 L 519.946,782.208 L 519.783,784.411 L 519.513,786.603 L 519.135,788.779 L 518.651,790.934 L 518.062,793.063 L 517.369,795.160 L 516.575,797.221 L 515.680,799.240 L 514.686,801.213 L 513.598,803.135 L 512.416,805.001 L 511.144,806.806 L 509.785,808.548 L 508.343,810.220 L 506.820,811.820 L 505.220,813.343 L 503.548,814.785 L 501.806,816.144 L 500.001,817.416 L 498.135,818.598 L 496.213,819.686 L 494.240,820.680 L 492.221,821.575 L 490.160,822.369 L 488.063,823.062 L 485.934,823.651 L 483.779,824.135 L 481.603,824.513 L 479.411,824.783 L 477.208,824.946 L 475.000,825.000 L 472.792,824.946 L 470.589,824.783 L 468.397,824.513 L 466.221,824.135 L 464.066,823.651 L 461.937,823.062 L 459.840,822.369 L 457.779,821.575 L 455.760,820.680 L 453.787,819.686 L 451.865,818.598 L 449.999,817.416 L 448.194,816.144 L 446.452,814.785 L 444.780,813.343 L 443.180,811.820 L 441.657,810.220 L 440.215,808.548 L 438.856,806.806 L 437.584,805.001 L 436.402,803.135 L 435.314,801.213 L 434.320,799.240 L 433.425,797.221 L 432.631,795.160 L 431.938,793.063 L 431.349,790.934 L 430.865,788.779 L 430.487,786.603 L 430.217,784.411 L 430.054,782.208 L 430.000,780.000 L 430.000,764.818 L 429.846,764.944 Z M 421.628,586.334 L 421.152,579.883 L 420.663,575.920 L 290.000,575.920 L 287.792,575.866 L 285.589,575.703 L 283.397,575.433 L 281.221,575.055 L 279.066,574.571 L 276.937,573.982 L 274.840,573.289 L 272.779,572.495 L 270.760,571.600 L 268.787,570.606 L 266.865,569.518 L 264.999,568.336 L 263.194,567.064 L 261.452,565.705 L 259.780,564.263 L 258.180,562.740 L 256.657,561.140 L 255.215,559.468 L 253.856,557.726 L 252.584,555.921 L 251.402,554.055 L 250.314,552.133 L 249.320,550.160 L 248.425,548.141 L 247.631,546.080 L 246.938,543.983 L 246.349,541.854 L 245.865,539.699 L 245.487,537.523 L 245.217,535.331 L 245.054,533.128 L 245.000,530.920 L 245.054,528.712 L 245.217,526.509 L 245.487,524.317 L 245.865,522.141 L 246.349,519.986 L 246.938,517.857 L 247.631,515.760 L 248.425,513.699 L 249.320,511.680 L 250.314,509.707 L 251.402,507.785 L 252.584,505.919 L 253.856,504.114 L 255.215,502.372 L 256.657,500.700 L 258.180,499.100 L 259.780,497.577 L 261.452,496.135 L 263.194,494.776 L 264.999,493.504 L 266.865,492.322 L 268.787,491.234 L 270.760,490.240 L 272.779,489.345 L 274.840,488.551 L 276.937,487.858 L 279.066,487.269 L 281.221,486.785 L 283.397,486.407 L 285.589,486.137 L 287.792,485.974 L 290.000,485.920 L 367.045,485.920 L 363.217,483.224 L 357.752,479.763 L 352.124,476.575 L 346.346,473.666 L 340.432,471.045 L 334.398,468.717 L 328.256,466.688 L 322.021,464.963 L 315.710,463.546 L 309.337,462.440 L 302.917,461.648 L 296.466,461.172 L 290.000,461.014 L 283.534,461.172 L 277.083,461.648 L 270.663,462.440 L 264.290,463.546 L 257.979,464.963 L 251.744,466.688 L 245.602,468.717 L 239.568,471.045 L 233.654,473.666 L 227.876,476.575 L 222.248,479.763 L 216.783,483.224 L 211.495,486.948 L 206.396,490.928 L 201.498,495.153 L 196.813,499.613 L 192.353,504.298 L 188.128,509.196 L 184.148,514.295 L 180.424,519.583 L 176.963,525.048 L 173.775,530.676 L 170.866,536.454 L 168.245,542.368 L 165.917,548.402 L 163.888,554.544 L 162.163,560.779 L 160.746,567.090 L 159.640,573.463 L 158.848,579.883 L 158.372,586.334 L 158.214,592.800 L 158.372,599.266 L 158.848,605.717 L 159.640,612.137 L 160.746,618.510 L 162.163,624.821 L 163.888,631.056 L 165.917,637.198 L 168.245,643.232 L 170.866,649.146 L 173.775,654.924 L 176.963,660.552 L 180.424,666.017 L 184.148,671.305 L 188.128,676.404 L 192.353,681.302 L 196.813,685.987 L 201.498,690.447 L 206.396,694.672 L 211.495,698.652 L 216.783,702.376 L 222.248,705.837 L 227.876,709.025 L 233.654,711.934 L 239.568,714.555 L 245.602,716.883 L 251.744,718.912 L 257.979,720.637 L 264.290,722.054 L 270.663,723.160 L 277.083,723.952 L 283.534,724.428 L 290.000,724.586 L 296.466,724.428 L 302.917,723.952 L 309.337,723.160 L 315.710,722.054 L 322.021,720.637 L 328.256,718.912 L 334.398,716.883 L 340.432,714.555 L 346.346,711.934 L 352.124,709.025 L 357.752,705.837 L 363.217,702.376 L 368.505,698.652 L 373.604,694.672 L 378.502,690.447 L 383.187,685.987 L 387.647,681.302 L 391.872,676.404 L 395.852,671.305 L 399.576,666.017 L 403.037,660.552 L 406.225,654.924 L 409.134,649.146 L 411.755,643.232 L 414.083,637.198 L 416.112,631.056 L 417.837,624.821 L 419.254,618.510 L 420.360,612.137 L 421.152,605.717 L 421.628,599.266 L 421.786,592.800 L 421.628,586.334 Z" fill="black" fill-rule="evenodd"/>
</svg>
