<svg xmlns="http://www.w3.org/2000/svg" viewBox="0 0 600.000 1000">
  <path d="M 95.024 781.472 L 95.096 782.943 L 95.217 784.411 L 95.385 785.874 L 95.601 787.330 L 95.865 788.779 L 96.176 790.218 L 96.533 791.647 L 96.938 793.063 L 97.388 794.465 L 97.884 795.851 L 98.425 797.221 L 99.011 798.572 L 99.641 799.903 L 100.314 801.213 L 101.029 802.500 L 101.786 803.763 L 102.584 805.001 L 103.422 806.211 L 104.299 807.394 L 105.215 808.548 L 106.167 809.671 L 107.156 810.762 L 108.180 811.820 L 109.238 812.844 L 110.329 813.833 L 111.452 814.785 L 112.606 815.701 L 113.789 816.578 L 114.999 817.416 L 116.237 818.214 L 117.500 818.971 L 118.787 819.686 L 120.097 820.359 L 121.428 820.989 L 122.779 821.575 L 124.149 822.116 L 125.535 822.612 L 126.937 823.062 L 128.353 823.467 L 129.782 823.824 L 131.221 824.135 L 132.670 824.399 L 134.126 824.615 L 135.589 824.783 L 137.057 824.904 L 138.528 824.976 L 140.000 825.000 L 141.472 824.976 L 142.943 824.904 L 144.411 824.783 L 145.874 824.615 L 147.330 824.399 L 148.779 824.135 L 150.218 823.824 L 151.647 823.467 L 153.063 823.062 L 154.465 822.612 L 155.851 822.116 L 157.221 821.575 L 158.572 820.989 L 159.903 820.359 L 161.213 819.686 L 162.500 818.971 L 163.763 818.214 L 165.001 817.416 L 166.211 816.578 L 167.394 815.701 L 168.548 814.785 L 169.671 813.833 L 170.762 812.844 L 171.820 811.820 L 172.844 810.762 L 173.833 809.671 L 174.785 808.548 L 175.701 807.394 L 176.578 806.211 L 177.416 805.001 L 178.214 803.763 L 178.971 802.500 L 179.686 801.213 L 180.359 799.903 L 180.989 798.572 L 181.575 797.221 L 182.116 795.851 L 182.612 794.465 L 183.062 793.063 L 183.467 791.647 L 183.824 790.218 L 184.135 788.779 L 184.399 787.330 L 184.615 785.874 L 184.783 784.411 L 184.904 782.943 L 184.976 781.472 L 185.000 780.000 L 185.000 295.135 L 300.000 266.385 L 415.000 295.135 L 415.000 780.000 L 415.024 781.472 L 415.096 782.943 L 415.217 784.411 L 415.385 785.874 L 415.601 787.330 L 415.865 788.779 L 416.176 790.218 L 416.533 791.647 L 416.938 793.063 L 417.388 794.465 L 417.884 795.851 L 418.425 797.221 L 419.011 798.572 L 419.641 799.903 L 420.314 801.213 L 421.029 802.500 L 421.786 803.763 L 422.584 805.001 L 423.422 806.211 L 424.299 807.394 L 425.215 808.548 L 426.167 809.671 L 427.156 810.762 L 428.180 811.820 L 429.238 812.844 L 430.329 813.833 L 431.452 814.785 L 432.606 815.701 L 433.789 816.578 L 434.999 817.416 L 436.237 818.214 L 437.500 818.971 L 438.787 819.686 L 440.097 820.359 L 441.428 820.989 L 442.779 821.575 L 444.149 822.116 L 445.535 822.612 L 446.937 823.062 L 448.353 823.467 L 449.782 823.824 L 451.221 824.135 L 452.670 824.399 L 454.126 824.615 L 455.589 824.783 L 457.057 824.904 L 458.528 824.976 L 460.000 825.000 L 461.472 824.976 L 462.943 824.904 L 464.411 824.783 L 465.874 824.615 L 467.330 824.399 L 468.779 824.135 L 470.218 823.824 L 471.647 823.467 L 473.063 823.062 L 474.465 822.612 L 475.851 822.116 L 477.221 821.575 L 478.572 820.989 L 479.903 820.359 L 481.213 819.686 L 482.500 818.971 L 483.763 818.214 L 485.001 817.416 L 486.211 816.578 L 487.394 815.701 L 488.548 814.785 L 489.671 813.833 L 490.762 812.844 L 491.820 811.820 L 492.844 810.762 L 493.833 809.671 L 494.785 808.548 L 495.701 807.394 L 496.578 806.211 L 497.416 805.001 L 498.214 803.763 L 498.971 802.500 L 499.686 801.213 L 500.359 799.903 L 500.989 798.572 L 501.575 797.221 L 502.116 795.851 L 502.612 794.465 L 503.062 793.063 L 503.467 791.647 L 503.824 790.218 L 504.135 788.779 L 504.399 787.330 L 504.615 785.874 L 504.783 784.411 L 504.904 782.943 L 504.976 781.472 L 505.000 780.000 L 505.000 260.000 L 504.976 258.545 L 504.906 257.092 L 504.788 255.641 L 504.624 254.196 L 504.413 252.756 L 504.156 251.324 L 503.852 249.901 L 503.503 248.488 L 503.108 247.088 L 502.668 245.701 L 502.183 244.329 L 501.654 242.973 L 501.082 241.635 L 500.467 240.316 L 499.809 239.018 L 499.110 237.742 L 498.370 236.489 L 497.590 235.261 L 496.770 234.059 L 495.912 232.884 L 495.017 231.737 L 494.085 230.619 L 493.117 229.533 L 492.115 228.478 L 491.079 227.456 L 490.010 226.468 L 488.910 225.515 L 487.780 224.599 L 486.621 223.719 L 485.434 222.877 L 484.221 222.074 L 482.982 221.311 L 481.719 220.588 L 480.434 219.907 L 479.127 219.267 L 477.800 218.670 L 476.454 218.116 L 475.091 217.606 L 473.713 217.140 L 472.320 216.719 L 470.914 216.344 L 310.914 176.344 L 309.483 176.010 L 308.041 175.724 L 306.591 175.485 L 305.133 175.294 L 303.671 175.150 L 302.204 175.054 L 300.735 175.006 L 299.265 175.006 L 297.796 175.054 L 296.329 175.150 L 294.867 175.294 L 293.409 175.485 L 291.959 175.724 L 290.517 176.010 L 289.086 176.344 L 185.000 202.365 L 185.000 40.000 L 184.976 38.528 L 184.904 37.057 L 184.783 35.589 L 184.615 34.126 L 184.399 32.670 L 184.135 31.221 L 183.824 29.782 L 183.467 28.353 L 183.062 26.937 L 182.612 25.535 L 182.116 24.149 L 181.575 22.779 L 180.989 21.428 L 180.359 20.097 L 179.686 18.787 L 178.971 17.500 L 178.214 16.237 L 177.416 14.999 L 176.578 13.789 L 175.701 12.606 L 174.785 11.452 L 173.833 10.329 L 172.844 9.238 L 171.820 8.180 L 170.762 7.156 L 169.671 6.167 L 168.548 5.215 L 167.394 4.299 L 166.211 3.422 L 165.001 2.584 L 163.763 1.786 L 162.500 1.029 L 161.213 0.314 L 159.903 -0.359 L 158.572 -0.989 L 157.221 -1.575 L 155.851 -2.116 L 154.465 -2.612 L 153.063 -3.062 L 151.647 -3.467 L 150.218 -3.824 L 148.779 -4.135 L 147.330 -4.399 L 145.874 -4.615 L 144.411 -4.783 L 142.943 -4.904 L 141.472 -4.976 L 140.000 -5.000 L 138.528 -4.976 L 137.057 -4.904 L 135.589 -4.783 L 134.126 -4.615 L 132.670 -4.399 L 131.221 -4.135 L 129.782 -3.824 L 128.353 -3.467 L 126.937 -3.062 L 125.535 -2.612 L 124.149 -2.116 L 122.779 -1.575 L 121.428 -0.989 L 120.097 -0.359 L 118.787 0.314 L 117.500 1.029 L 116.237 1.786 L 114.999 2.584 L 113.789 3.422 L 112.606 4.299 L 111.452 5.215 L 110.329 6.167 L 109.238 7.156 L 108.180 8.180 L 107.156 9.238 L 106.167 10.329 L 105.215 11.452 L 104.299 12.606 L 103.422 13.789 L 102.584 14.999 L 101.786 16.237 L 101.029 17.500 L 100.314 18.787 L 99.641 20.097 L 99.011 21.428 L 98.425 22.779 L 97.884 24.149 L 97.388 25.535 L 96.938 26.937 L 96.533 28.353 L 96.176 29.782 L 95.865 31.221 L 95.601 32.670 L 95.385 34.126 L 95.217 35.589 L 95.096 37.057 L 95.024 38.528 L 95.000 40.000 L 95.000 780.000 L 95.024 781.472 Z" fill="black" fill-rule="evenodd"/>
</svg>
