<svg xmlns="http://www.w3.org/2000/svg" viewBox="0 0 600.000 1000">
  <path d="M 255.312 84.685 L 256.771 84.488 L 258.223 84.242 L 259.666 83.950 L 261.099 83.610 L 262.520 83.223 L 263.927 82.791 L 265.320 82.312 L 266.696 81.788 L 268.054 81.219 L 269.393 80.607 L 270.712 79.950 L 272.008 79.251 L 273.280 78.510 L 274.528 77.728 L 275.749 76.905 L 276.943 76.043 L 278.108 75.142 L 279.242 74.204 L 280.346 73.228 L 281.417 72.218 L 282.454 71.173 L 283.457 70.094 L 284.423 68.983 L 285.353 67.841 L 286.245 66.670 L 287.099 65.470 L 287.912 64.242 L 288.685 62.989 L 289.416 61.711 L 290.106 60.409 L 290.752 59.086 L 291.355 57.743 L 291.913 56.380 L 292.426 55.000 L 292.894 53.604 L 293.317 52.193 L 293.692 50.769 L 294.021 49.334 L 294.303 47.889 L 294.538 46.435 L 294.724 44.974 L 294.863 43.508 L 294.954 42.038 L 294.996 40.566 L 294.991 39.094 L 294.937 37.622 L 294.835 36.153 L 294.685 34.688 L 294.488 33.229 L 294.242 31.777 L 293.950 30.334 L 293.610 28.901 L 293.223 27.480 L 292.791 26.073 L 292.312 24.680 L 291.788 23.304 L 291.219 21.946 L 290.607 20.607 L 289.950 19.288 L 289.251 17.992 L 288.510 16.720 L 287.728 15.472 L 286.905 14.251 L 286.043 13.057 L 285.142 11.892 L 284.204 10.758 L 283.228 9.654 L 282.218 8.583 L 281.173 7.546 L 280.094 6.543 L 278.983 5.577 L 277.841 4.647 L 276.670 3.755 L 275.470 2.901 L 274.242 2.088 L 272.989 1.315 L 271.711 0.584 L 270.409 -0.106 L 269.086 -0.752 L 267.743 -1.355 L 266.380 -1.913 L 265.000 -2.426 L 263.604 -2.894 L 262.193 -3.317 L 260.769 -3.692 L 259.334 -4.021 L 257.889 -4.303 L 256.435 -4.538 L 254.974 -4.724 L 253.508 -4.863 L 252.038 -4.954 L 250.566 -4.996 L 249.094 -4.991 L 247.483 -4.958 L 245.672 -4.885 L 244.064 -4.788 L 242.258 -4.642 L 240.655 -4.480 L 238.856 -4.262 L 237.261 -4.036 L 235.472 -3.745 L 233.887 -3.455 L 232.112 -3.092 L 230.540 -2.738 L 228.781 -2.304 L 227.224 -1.887 L 226.766 -1.754 L 225.851 -2.116 L 224.465 -2.612 L 223.063 -3.062 L 221.647 -3.467 L 220.218 -3.824 L 218.779 -4.135 L 217.330 -4.399 L 215.874 -4.615 L 214.411 -4.783 L 212.943 -4.904 L 211.472 -4.976 L 210.000 -5.000 L 208.528 -4.976 L 207.057 -4.904 L 205.589 -4.783 L 204.126 -4.615 L 202.670 -4.399 L 201.221 -4.135 L 199.782 -3.824 L 198.353 -3.467 L 196.937 -3.062 L 195.535 -2.612 L 194.149 -2.116 L 192.779 -1.575 L 191.428 -0.989 L 190.097 -0.359 L 188.787 0.314 L 187.500 1.029 L 186.237 1.786 L 184.999 2.584 L 183.789 3.422 L 182.606 4.299 L 181.452 5.215 L 180.329 6.167 L 179.238 7.156 L 178.180 8.180 L 177.156 9.238 L 176.167 10.329 L 175.215 11.452 L 174.299 12.606 L 173.422 13.789 L 172.584 14.999 L 171.786 16.237 L 171.029 17.500 L 170.314 18.787 L 169.641 20.097 L 169.011 21.428 L 168.425 22.779 L 167.884 24.149 L 167.388 25.535 L 166.938 26.937 L 166.533 28.353 L 166.176 29.782 L 165.865 31.221 L 165.601 32.670 L 165.385 34.126 L 165.217 35.589 L 165.096 37.057 L 165.024 38.528 L 165.000 40.000 L 165.000 315.000 L 165.000 780.000 L 165.024 781.472 L 165.096 782.943 L 165.217 784.411 L 165.385 785.874 L 165.601 787.330 L 165.865 788.779 L 166.176 790.218 L 166.533 791.647 L 166.938 793.063 L 167.388 794.465 L 167.884 795.851 L 168.425 797.221 L 169.011 798.572 L 169.641 799.903 L 170.314 801.213 L 171.029 802.500 L 171.786 803.763 L 172.584 805.001 L 173.422 806.211 L 174.299 807.394 L 175.215 808.548 L 176.167 809.671 L 177.156 810.762 L 178.180 811.820 L 179.238 812.844 L 180.329 813.833 L 181.452 814.785 L 182.606 815.701 L 183.789 816.578 L 184.999 817.416 L 186.237 818.214 L 187.500 818.971 L 188.787 819.686 L 190.097 820.359 L 191.428 820.989 L 192.779 821.575 L 194.149 822.116 L 195.535 822.612 L 196.937 823.062 L 198.353 823.467 L 199.782 823.824 L 201.221 824.135 L 202.670 824.399 L 204.126 824.615 L 205.589 824.783 L 207.057 824.904 L 208.528 824.976 L 210.000 825.000 L 211.472 824.976 L 212.943 824.904 L 214.411 824.783 L 215.874 824.615 L 217.330 824.399 L 218.779 824.135 L 220.218 823.824 L 221.647 823.467 L 223.063 823.062 L 224.465 822.612 L 225.851 822.116 L 227.221 821.575 L 228.572 820.989 L 229.903 820.359 L 231.213 819.686 L 232.500 818.971 L 233.763 818.214 L 235.001 817.416 L 236.211 816.578 L 237.394 815.701 L 238.548 814.785 L 239.671 813.833 L 240.762 812.844 L 241.820 811.820 L 242.844 810.762 L 243.833 809.671 L 244.785 808.548 L 245.701 807.394 L 246.578 806.211 L 247.416 805.001 L 248.214 803.763 L 248.971 802.500 L 249.686 801.213 L 250.359 799.903 L 250.989 798.572 L 251.575 797.221 L 252.116 795.851 L 252.612 794.465 L 253.062 793.063 L 253.467 791.647 L 253.824 790.218 L 254.135 788.779 L 254.399 787.330 L 254.615 785.874 L 254.783 784.411 L 254.904 782.943 L 254.976 781.472 L 255.000 780.000 L 255.000 360.000 L 470.000 360.000 L 471.472 359.976 L 472.943 359.904 L 474.411 359.783 L 475.874 359.615 L 477.330 359.399 L 478.779 359.135 L 480.218 358.824 L 481.647 358.467 L 483.063 358.062 L 484.465 357.612 L 485.851 357.116 L 487.221 356.575 L 488.572 355.989 L 489.903 355.359 L 491.213 354.686 L 492.500 353.971 L 493.763 353.214 L 495.001 352.416 L 496.211 351.578 L 497.394 350.701 L 498.548 349.785 L 499.671 348.833 L 500.762 347.844 L 501.820 346.820 L 502.844 345.762 L 503.833 344.671 L 504.785 343.548 L 505.701 342.394 L 506.578 341.211 L 507.416 340.001 L 508.214 338.763 L 508.971 337.500 L 509.686 336.213 L 510.359 334.903 L 510.989 333.572 L 511.575 332.221 L 512.116 330.851 L 512.612 329.465 L 513.062 328.063 L 513.467 326.647 L 513.824 325.218 L 514.135 323.779 L 514.399 322.330 L 514.615 320.874 L 514.783 319.411 L 514.904 317.943 L 514.976 316.472 L 515.000 315.000 L 514.976 313.528 L 514.904 312.057 L 514.783 310.589 L 514.615 309.126 L 514.399 307.670 L 514.135 306.221 L 513.824 304.782 L 513.467 303.353 L 513.062 301.937 L 512.612 300.535 L 512.116 299.149 L 511.575 297.779 L 510.989 296.428 L 510.359 295.097 L 509.686 293.787 L 508.971 292.500 L 508.214 291.237 L 507.416 289.999 L 506.578 288.789 L 505.701 287.606 L 504.785 286.452 L 503.833 285.329 L 502.844 284.238 L 501.820 283.180 L 500.762 282.156 L 499.671 281.167 L 498.548 280.215 L 497.394 279.299 L 496.211 278.422 L 495.001 277.584 L 493.763 276.786 L 492.500 276.029 L 491.213 275.314 L 489.903 274.641 L 488.572 274.011 L 487.221 273.425 L 485.851 272.884 L 484.465 272.388 L 483.063 271.938 L 481.647 271.533 L 480.218 271.176 L 478.779 270.865 L 477.330 270.601 L 475.874 270.385 L 474.411 270.217 L 472.943 270.096 L 471.472 270.024 L 470.000 270.000 L 255.000 270.000 L 255.000 84.717 L 255.312 84.685 Z" fill="black" fill-rule="evenodd"/>
</svg>
