<svg xmlns="http://www.w3.org/2000/svg" width="600.000" height="1000" viewBox="0 0 600.000 1000">
  <path d="M 321.104 149.986 L 322.208 149.946 L 323.310 149.878 L 324.411 149.783 L 325.508 149.662 L 326.603 149.513 L 327.693 149.337 L 328.779 149.135 L 329.860 148.907 L 330.934 148.651 L 332.002 148.370 L 333.063 148.062 L 334.116 147.729 L 335.160 147.369 L 336.195 146.985 L 337.221 146.575 L 338.236 146.139 L 339.240 145.680 L 340.233 145.195 L 341.213 144.686 L 342.180 144.154 L 343.135 143.598 L 344.075 143.018 L 345.001 142.416 L 345.911 141.791 L 346.806 141.144 L 347.685 140.476 L 348.548 139.785 L 349.393 139.074 L 350.220 138.343 L 351.029 137.591 L 351.820 136.820 L 352.591 136.029 L 353.343 135.220 L 354.074 134.393 L 354.785 133.548 L 355.476 132.685 L 356.144 131.806 L 356.791 130.911 L 357.416 130.001 L 358.018 129.075 L 358.598 128.135 L 359.154 127.180 L 359.686 126.213 L 360.195 125.233 L 360.680 124.240 L 361.139 123.236 L 361.575 122.221 L 361.985 121.195 L 362.369 120.160 L 362.729 119.116 L 363.062 118.063 L 363.370 117.002 L 363.651 115.934 L 363.907 114.860 L 364.135 113.779 L 364.337 112.693 L 364.513 111.603 L 364.662 110.508 L 364.783 109.411 L 364.878 108.310 L 364.946 107.208 L 364.986 106.104 L 365.000 105.000 L 364.986 103.896 L 364.946 102.792 L 364.878 101.690 L 364.783 100.589 L 364.662 99.492 L 364.513 98.397 L 364.337 97.307 L 364.135 96.221 L 363.907 95.140 L 363.651 94.066 L 363.370 92.998 L 363.062 91.937 L 362.729 90.884 L 362.369 89.840 L 361.985 88.805 L 361.575 87.779 L 361.139 86.764 L 360.680 85.760 L 360.195 84.767 L 359.686 83.787 L 359.154 82.820 L 358.598 81.865 L 358.018 80.925 L 357.416 79.999 L 356.791 79.089 L 356.144 78.194 L 355.476 77.315 L 354.785 76.452 L 354.074 75.607 L 353.343 74.780 L 352.591 73.971 L 351.820 73.180 L 351.029 72.409 L 350.220 71.657 L 349.393 70.926 L 348.548 70.215 L 347.685 69.524 L 346.806 68.856 L 345.911 68.209 L 345.001 67.584 L 344.075 66.982 L 343.135 66.402 L 342.180 65.846 L 341.213 65.314 L 340.233 64.805 L 339.240 64.320 L 338.236 63.861 L 337.221 63.425 L 336.195 63.015 L 335.160 62.631 L 334.116 62.271 L 333.063 61.938 L 332.002 61.630 L 330.934 61.349 L 329.860 61.093 L 328.779 60.865 L 327.693 60.663 L 326.603 60.487 L 325.508 60.338 L 324.411 60.217 L 323.310 60.122 L 322.208 60.054 L 321.104 60.014 L 320.000 60.000 L 280.000 60.000 L 280.000 50.000 L 279.986 48.896 L 279.946 47.792 L 279.878 46.690 L 279.783 45.589 L 279.662 44.492 L 279.513 43.397 L 279.337 42.307 L 279.135 41.221 L 278.907 40.140 L 278.651 39.066 L 278.370 37.998 L 278.062 36.937 L 277.729 35.884 L 277.369 34.840 L 276.985 33.805 L 276.575 32.779 L 276.139 31.764 L 275.680 30.760 L 275.195 29.767 L 274.686 28.787 L 274.154 27.820 L 273.598 26.865 L 273.018 25.925 L 272.416 24.999 L 271.791 24.089 L 271.144 23.194 L 270.476 22.315 L 269.785 21.452 L 269.074 20.607 L 268.343 19.780 L 267.591 18.971 L 266.820 18.180 L 266.029 17.409 L 265.220 16.657 L 264.393 15.926 L 263.548 15.215 L 262.685 14.524 L 261.806 13.856 L 260.911 13.209 L 260.001 12.584 L 259.075 11.982 L 258.135 11.402 L 257.180 10.846 L 256.213 10.314 L 255.233 9.805 L 254.240 9.320 L 253.236 8.861 L 252.221 8.425 L 251.195 8.015 L 250.160 7.631 L 249.116 7.271 L 248.063 6.938 L 247.002 6.630 L 245.934 6.349 L 244.860 6.093 L 243.779 5.865 L 242.693 5.663 L 241.603 5.487 L 240.508 5.338 L 239.411 5.217 L 238.310 5.122 L 237.208 5.054 L 236.104 5.014 L 235.000 5.000 L 233.896 5.014 L 232.792 5.054 L 231.690 5.122 L 230.589 5.217 L 229.492 5.338 L 228.397 5.487 L 227.307 5.663 L 226.221 5.865 L 225.140 6.093 L 224.066 6.349 L 222.998 6.630 L 221.937 6.938 L 220.884 7.271 L 219.840 7.631 L 218.805 8.015 L 217.779 8.425 L 216.764 8.861 L 215.760 9.320 L 214.767 9.805 L 213.787 10.314 L 212.820 10.846 L 211.865 11.402 L 210.925 11.982 L 209.999 12.584 L 209.089 13.209 L 208.194 13.856 L 207.315 14.524 L 206.452 15.215 L 205.607 15.926 L 204.780 16.657 L 203.971 17.409 L 203.180 18.180 L 202.409 18.971 L 201.657 19.780 L 200.926 20.607 L 200.215 21.452 L 199.524 22.315 L 198.856 23.194 L 198.209 24.089 L 197.584 24.999 L 196.982 25.925 L 196.402 26.865 L 195.846 27.820 L 195.314 28.787 L 194.805 29.767 L 194.320 30.760 L 193.861 31.764 L 193.425 32.779 L 193.015 33.805 L 192.631 34.840 L 192.271 35.884 L 191.938 36.937 L 191.630 37.998 L 191.349 39.066 L 191.093 40.140 L 190.865 41.221 L 190.663 42.307 L 190.487 43.397 L 190.338 44.492 L 190.217 45.589 L 190.122 46.690 L 190.054 47.792 L 190.014 48.896 L 190.000 50.000 L 190.000 105.000 L 190.000 445.000 L 190.000 770.000 L 190.014 771.104 L 190.054 772.208 L 190.122 773.310 L 190.217 774.411 L 190.338 775.508 L 190.487 776.603 L 190.663 777.693 L 190.865 778.779 L 191.093 779.860 L 191.349 780.934 L 191.630 782.002 L 191.938 783.063 L 192.271 784.116 L 192.631 785.160 L 193.015 786.195 L 193.425 787.221 L 193.861 788.236 L 194.320 789.240 L 194.805 790.233 L 195.314 791.213 L 195.846 792.180 L 196.402 793.135 L 196.982 794.075 L 197.584 795.001 L 198.209 795.911 L 198.856 796.806 L 199.524 797.685 L 200.215 798.548 L 200.926 799.393 L 201.657 800.220 L 202.409 801.029 L 203.180 801.820 L 203.971 802.591 L 204.780 803.343 L 205.607 804.074 L 206.452 804.785 L 207.315 805.476 L 208.194 806.144 L 209.089 806.791 L 209.999 807.416 L 210.925 808.018 L 211.865 808.598 L 212.820 809.154 L 213.787 809.686 L 214.767 810.195 L 215.760 810.680 L 216.764 811.139 L 217.779 811.575 L 218.805 811.985 L 219.840 812.369 L 220.884 812.729 L 221.937 813.062 L 222.998 813.370 L 224.066 813.651 L 225.140 813.907 L 226.221 814.135 L 227.307 814.337 L 228.397 814.513 L 229.492 814.662 L 230.589 814.783 L 231.690 814.878 L 232.792 814.946 L 233.896 814.986 L 235.000 815.000 L 236.104 814.986 L 237.208 814.946 L 238.310 814.878 L 239.411 814.783 L 240.508 814.662 L 241.603 814.513 L 242.693 814.337 L 243.779 814.135 L 244.860 813.907 L 245.934 813.651 L 247.002 813.370 L 248.063 813.062 L 249.116 812.729 L 250.160 812.369 L 251.195 811.985 L 252.221 811.575 L 253.236 811.139 L 254.240 810.680 L 255.233 810.195 L 256.213 809.686 L 257.180 809.154 L 258.135 808.598 L 259.075 808.018 L 260.001 807.416 L 260.911 806.791 L 261.806 806.144 L 262.685 805.476 L 263.548 804.785 L 264.393 804.074 L 265.220 803.343 L 266.029 802.591 L 266.820 801.820 L 267.591 801.029 L 268.343 800.220 L 269.074 799.393 L 269.785 798.548 L 270.476 797.685 L 271.144 796.806 L 271.791 795.911 L 272.416 795.001 L 273.018 794.075 L 273.598 793.135 L 274.154 792.180 L 274.686 791.213 L 275.195 790.233 L 275.680 789.240 L 276.139 788.236 L 276.575 787.221 L 276.985 786.195 L 277.369 785.160 L 277.729 784.116 L 278.062 783.063 L 278.370 782.002 L 278.651 780.934 L 278.907 779.860 L 279.135 778.779 L 279.337 777.693 L 279.513 776.603 L 279.662 775.508 L 279.783 774.411 L 279.878 773.310 L 279.946 772.208 L 279.986 771.104 L 280.000 770.000 L 280.000 490.000 L 500.000 490.000 L 501.104 489.986 L 502.208 489.946 L 503.310 489.878 L 504.411 489.783 L 505.508 489.662 L 506.603 489.513 L 507.693 489.337 L 508.779 489.135 L 509.860 488.907 L 510.934 488.651 L 512.002 488.370 L 513.063 488.062 L 514.116 487.729 L 515.160 487.369 L 516.195 486.985 L 517.221 486.575 L 518.236 486.139 L 519.240 485.680 L 520.233 485.195 L 521.213 484.686 L 522.180 484.154 L 523.135 483.598 L 524.075 483.018 L 525.001 482.416 L 525.911 481.791 L 526.806 481.144 L 527.685 480.476 L 528.548 479.785 L 529.393 479.074 L 530.220 478.343 L 531.029 477.591 L 531.820 476.820 L 532.591 476.029 L 533.343 475.220 L 534.074 474.393 L 534.785 473.548 L 535.476 472.685 L 536.144 471.806 L 536.791 470.911 L 537.416 470.001 L 538.018 469.075 L 538.598 468.135 L 539.154 467.180 L 539.686 466.213 L 540.195 465.233 L 540.680 464.240 L 541.139 463.236 L 541.575 462.221 L 541.985 461.195 L 542.369 460.160 L 542.729 459.116 L 543.062 458.063 L 543.370 457.002 L 543.651 455.934 L 543.907 454.860 L 544.135 453.779 L 544.337 452.693 L 544.513 451.603 L 544.662 450.508 L 544.783 449.411 L 544.878 448.310 L 544.946 447.208 L 544.986 446.104 L 545.000 445.000 L 544.986 443.896 L 544.946 442.792 L 544.878 441.690 L 544.783 440.589 L 544.662 439.492 L 544.513 438.397 L 544.337 437.307 L 544.135 436.221 L 543.907 435.140 L 543.651 434.066 L 543.370 432.998 L 543.062 431.937 L 542.729 430.884 L 542.369 429.840 L 541.985 428.805 L 541.575 427.779 L 541.139 426.764 L 540.680 425.760 L 540.195 424.767 L 539.686 423.787 L 539.154 422.820 L 538.598 421.865 L 538.018 420.925 L 537.416 419.999 L 536.791 419.089 L 536.144 418.194 L 535.476 417.315 L 534.785 416.452 L 534.074 415.607 L 533.343 414.780 L 532.591 413.971 L 531.820 413.180 L 531.029 412.409 L 530.220 411.657 L 529.393 410.926 L 528.548 410.215 L 527.685 409.524 L 526.806 408.856 L 525.911 408.209 L 525.001 407.584 L 524.075 406.982 L 523.135 406.402 L 522.180 405.846 L 521.213 405.314 L 520.233 404.805 L 519.240 404.320 L 518.236 403.861 L 517.221 403.425 L 516.195 403.015 L 515.160 402.631 L 514.116 402.271 L 513.063 401.938 L 512.002 401.630 L 510.934 401.349 L 509.860 401.093 L 508.779 400.865 L 507.693 400.663 L 506.603 400.487 L 505.508 400.338 L 504.411 400.217 L 503.310 400.122 L 502.208 400.054 L 501.104 400.014 L 500.000 400.000 L 280.000 400.000 L 280.000 150.000 L 320.000 150.000 L 321.104 149.986 Z" fill="black" fill-rule="evenodd"/>
</svg>
