<svg xmlns="http://www.w3.org/2000/svg" viewBox="0 0 600.000 1000.000">
  <path d="M 80.054,257.792 L 80.217,255.589 L 80.487,253.397 L 80.865,251.221 L 81.349,249.066 L 81.938,246.937 L 82.631,244.840 L 83.425,242.779 L 84.320,240.760 L 85.314,238.787 L 86.402,236.865 L 87.584,234.999 L 88.856,233.194 L 90.215,231.452 L 91.657,229.780 L 93.180,228.180 L 94.780,226.657 L 96.452,225.215 L 98.194,223.856 L 99.999,222.584 L 101.865,221.402 L 103.787,220.314 L 105.760,219.320 L 107.779,218.425 L 109.840,217.631 L 111.937,216.938 L 114.066,216.349 L 116.221,215.865 L 118.397,215.487 L 120.589,215.217 L 122.792,215.054 L 125.000,215.000 L 280.000,215.000 L 475.000,215.000 L 477.208,215.054 L 479.411,215.217 L 481.603,215.487 L 483.779,215.865 L 485.934,216.349 L 488.063,216.938 L 490.160,217.631 L 492.221,218.425 L 494.240,219.320 L 496.213,220.314 L 498.135,221.402 L 500.001,222.584 L 501.806,223.856 L 503.548,225.215 L 505.220,226.657 L 506.820,228.180 L 508.343,229.780 L 509.785,231.452 L 511.144,233.194 L 512.416,234.999 L 513.598,236.865 L 514.686,238.787 L 515.680,240.760 L 516.575,242.779 L 517.369,244.840 L 518.062,246.937 L 518.651,249.066 L 519.135,251.221 L 519.513,253.397 L 519.783,255.589 L 519.946,257.792 L 520.000,260.000 L 520.000,780.000 L 519.946,782.208 L 519.783,784.411 L 519.513,786.603 L 519.135,788.779 L 518.651,790.934 L 518.062,793.063 L 517.369,795.160 L 516.575,797.221 L 515.680,799.240 L 514.686,801.213 L 513.598,803.135 L 512.416,805.001 L 511.144,806.806 L 509.785,808.548 L 508.343,810.220 L 506.820,811.820 L 505.220,813.343 L 503.548,814.785 L 501.806,816.144 L 500.001,817.416 L 498.135,818.598 L 496.213,819.686 L 494.240,820.680 L 492.221,821.575 L 490.160,822.369 L 488.063,823.062 L 485.934,823.651 L 483.779,824.135 L 481.603,824.513 L 479.411,824.783 L 477.208,824.946 L 475.000,825.000 L 472.792,824.946 L 470.589,824.783 L 468.397,824.513 L 466.221,824.135 L 464.066,823.651 L 461.937,823.062 L 459.840,822.369 L 457.779,821.575 L 455.760,820.680 L 453.787,819.686 L 451.865,818.598 L 449.999,817.416 L 448.194,816.144 L 446.452,814.785 L 444.780,813.343 L 443.180,811.820 L 441.657,810.220 L 440.215,808.548 L 438.856,806.806 L 437.584,805.001 L 436.402,803.135 L 435.314,801.213 L 434.320,799.240 L 433.425,797.221 L 432.631,795.160 L 431.938,793.063 L 431.349,790.934 L 430.865,788.779 L 430.487,786.603 L 430.217,784.411 L 430.054,782.208 L 430.000,780.000 L 430.000,305.000 L 325.000,305.000 L 325.000,780.000 L 324.946,782.208 L 324.783,784.411 L 324.513,786.603 L 324.135,788.779 L 323.651,790.934 L 323.062,793.063 L 322.369,795.160 L 321.575,797.221 L 320.680,799.240 L 319.686,801.213 L 318.598,803.135 L 317.416,805.001 L 316.144,806.806 L 314.785,808.548 L 313.343,810.220 L 311.820,811.820 L 310.220,813.343 L 308.548,814.785 L 306.806,816.144 L 305.001,817.416 L 303.135,818.598 L 301.213,819.686 L 299.240,820.680 L 297.221,821.575 L 295.160,822.369 L 293.063,823.062 L 290.934,823.651 L 288.779,824.135 L 286.603,824.513 L 284.411,824.783 L 282.208,824.946 L 280.000,825.000 L 277.792,824.946 L 275.589,824.783 L 273.397,824.513 L 271.221,824.135 L 269.066,823.651 L 266.937,823.062 L 264.840,822.369 L 262.779,821.575 L 260.760,820.680 L 258.787,819.686 L 256.865,818.598 L 254.999,817.416 L 253.194,816.144 L 251.452,814.785 L 249.780,813.343 L 248.180,811.820 L 246.657,810.220 L 245.215,808.548 L 243.856,806.806 L 242.584,805.001 L 241.402,803.135 L 240.314,801.213 L 239.320,799.240 L 238.425,797.221 L 237.631,795.160 L 236.938,793.063 L 236.349,790.934 L 235.865,788.779 L 235.487,786.603 L 235.217,784.411 L 235.054,782.208 L 235.000,780.000 L 235.000,305.000 L 170.000,305.000 L 170.000,780.000 L 169.946,782.208 L 169.783,784.411 L 169.513,786.603 L 169.135,788.779 L 168.651,790.934 L 168.062,793.063 L 167.369,795.160 L 166.575,797.221 L 165.680,799.240 L 164.686,801.213 L 163.598,803.135 L 162.416,805.001 L 161.144,806.806 L 159.785,808.548 L 158.343,810.220 L 156.820,811.820 L 155.220,813.343 L 153.548,814.785 L 151.806,816.144 L 150.001,817.416 L 148.135,818.598 L 146.213,819.686 L 144.240,820.680 L 142.221,821.575 L 140.160,822.369 L 138.063,823.062 L 135.934,823.651 L 133.779,824.135 L 131.603,824.513 L 129.411,824.783 L 127.208,824.946 L 125.000,825.000 L 122.792,824.946 L 120.589,824.783 L 118.397,824.513 L 116.221,824.135 L 114.066,823.651 L 111.937,823.062 L 109.840,822.369 L 107.779,821.575 L 105.760,820.680 L 103.787,819.686 L 101.865,818.598 L 99.999,817.416 L 98.194,816.144 L 96.452,814.785 L 94.780,813.343 L 93.180,811.820 L 91.657,810.220 L 90.215,808.548 L 88.856,806.806 L 87.584,805.001 L 86.402,803.135 L 85.314,801.213 L 84.320,799.240 L 83.425,797.221 L 82.631,795.160 L 81.938,793.063 L 81.349,790.934 L 80.865,788.779 L 80.487,786.603 L 80.217,784.411 L 80.054,782.208 L 80.000,780.000 L 80.000,260.000 L 80.054,257.792 Z" fill="black" fill-rule="evenodd"/>
</svg>
