<svg xmlns="http://www.w3.org/2000/svg" viewBox="0 0 600.000 1000">
  <path d="M 198.173 407.520 L 201.627 407.464 L 205.071 407.437 L 208.503 407.437 L 211.925 407.465 L 215.337 407.519 L 218.738 407.599 L 222.129 407.704 L 225.511 407.834 L 228.884 407.987 L 232.247 408.165 L 235.601 408.365 L 238.947 408.587 L 242.284 408.831 L 245.613 409.096 L 248.934 409.381 L 252.248 409.686 L 255.553 410.010 L 258.852 410.353 L 262.143 410.713 L 265.427 411.091 L 268.705 411.486 L 271.976 411.896 L 275.241 412.322 L 278.499 412.763 L 281.751 413.218 L 284.998 413.686 L 288.239 414.168 L 291.475 414.661 L 294.705 415.166 L 297.930 415.682 L 301.151 416.209 L 304.367 416.745 L 307.578 417.290 L 310.785 417.843 L 313.988 418.404 L 317.187 418.971 L 320.382 419.545 L 323.573 420.125 L 326.762 420.709 L 329.947 421.298 L 333.129 421.890 L 336.309 422.485 L 339.486 423.082 L 342.660 423.680 L 345.833 424.279 L 349.000 424.877 L 352.164 425.474 L 355.326 426.069 L 358.487 426.662 L 361.647 427.252 L 361.698 427.261 L 364.806 427.838 L 364.868 427.849 L 367.965 428.419 L 368.039 428.432 L 371.123 428.995 L 371.209 429.010 L 374.282 429.564 L 374.379 429.581 L 377.441 430.126 L 377.549 430.146 L 380.600 430.681 L 380.720 430.702 L 383.760 431.227 L 383.893 431.249 L 386.921 431.763 L 387.066 431.787 L 390.083 432.289 L 390.241 432.315 L 393.247 432.804 L 393.417 432.831 L 396.413 433.306 L 396.596 433.335 L 399.581 433.796 L 399.777 433.826 L 402.751 434.271 L 402.961 434.302 L 405.000 434.598 L 405.000 780.000 L 405.014 781.104 L 405.054 782.208 L 405.122 783.310 L 405.217 784.411 L 405.338 785.508 L 405.487 786.603 L 405.663 787.693 L 405.865 788.779 L 406.093 789.860 L 406.349 790.934 L 406.630 792.002 L 406.938 793.063 L 407.271 794.116 L 407.631 795.160 L 408.015 796.195 L 408.425 797.221 L 408.861 798.236 L 409.320 799.240 L 409.805 800.233 L 410.314 801.213 L 410.846 802.180 L 411.402 803.135 L 411.982 804.075 L 412.584 805.001 L 413.209 805.911 L 413.856 806.806 L 414.524 807.685 L 415.215 808.548 L 415.926 809.393 L 416.657 810.220 L 417.409 811.029 L 418.180 811.820 L 418.971 812.591 L 419.780 813.343 L 420.607 814.074 L 421.452 814.785 L 422.315 815.476 L 423.194 816.144 L 424.089 816.791 L 424.999 817.416 L 425.925 818.018 L 426.865 818.598 L 427.820 819.154 L 428.787 819.686 L 429.767 820.195 L 430.760 820.680 L 431.764 821.139 L 432.779 821.575 L 433.805 821.985 L 434.840 822.369 L 435.884 822.729 L 436.937 823.062 L 437.998 823.370 L 439.066 823.651 L 440.140 823.907 L 441.221 824.135 L 442.307 824.337 L 443.397 824.513 L 444.492 824.662 L 445.589 824.783 L 446.690 824.878 L 447.792 824.946 L 448.896 824.986 L 450.000 825.000 L 451.104 824.986 L 452.208 824.946 L 453.310 824.878 L 454.411 824.783 L 455.508 824.662 L 456.603 824.513 L 457.693 824.337 L 458.779 824.135 L 459.860 823.907 L 460.934 823.651 L 462.002 823.370 L 463.063 823.062 L 464.116 822.729 L 465.160 822.369 L 466.195 821.985 L 467.221 821.575 L 468.236 821.139 L 469.240 820.680 L 470.233 820.195 L 471.213 819.686 L 472.180 819.154 L 473.135 818.598 L 474.075 818.018 L 475.001 817.416 L 475.911 816.791 L 476.806 816.144 L 477.685 815.476 L 478.548 814.785 L 479.393 814.074 L 480.220 813.343 L 481.029 812.591 L 481.820 811.820 L 482.591 811.029 L 483.343 810.220 L 484.074 809.393 L 484.785 808.548 L 485.476 807.685 L 486.144 806.806 L 486.791 805.911 L 487.416 805.001 L 488.018 804.075 L 488.598 803.135 L 489.154 802.180 L 489.686 801.213 L 490.195 800.233 L 490.680 799.240 L 491.139 798.236 L 491.575 797.221 L 491.985 796.195 L 492.369 795.160 L 492.729 794.116 L 493.062 793.063 L 493.370 792.002 L 493.651 790.934 L 493.907 789.860 L 494.135 788.779 L 494.337 787.693 L 494.513 786.603 L 494.662 785.508 L 494.783 784.411 L 494.878 783.310 L 494.946 782.208 L 494.986 781.104 L 495.000 780.000 L 495.000 394.000 L 494.995 393.569 L 494.992 393.139 L 494.988 393.017 L 494.986 392.896 L 494.971 392.465 L 494.957 392.035 L 494.950 391.914 L 494.946 391.792 L 494.919 391.362 L 494.895 390.932 L 494.886 390.811 L 494.878 390.690 L 494.841 390.261 L 494.807 389.831 L 494.794 389.710 L 494.783 389.589 L 494.736 389.161 L 494.691 388.733 L 494.675 388.612 L 494.662 388.492 L 494.604 388.065 L 494.548 387.638 L 494.529 387.518 L 494.513 387.397 L 494.445 386.972 L 494.378 386.547 L 494.357 386.427 L 494.337 386.307 L 494.259 385.883 L 494.182 385.460 L 494.158 385.341 L 494.135 385.221 L 494.046 384.800 L 493.959 384.378 L 493.932 384.259 L 493.907 384.140 L 493.807 383.722 L 493.710 383.302 L 493.680 383.184 L 493.651 383.066 L 493.542 382.650 L 493.434 382.233 L 493.401 382.116 L 493.370 381.998 L 493.250 381.584 L 493.132 381.170 L 493.096 381.054 L 493.062 380.937 L 492.932 380.527 L 492.804 380.116 L 492.766 380.000 L 492.729 379.884 L 492.589 379.477 L 492.451 379.069 L 492.409 378.955 L 492.369 378.840 L 492.219 378.436 L 492.072 378.032 L 492.027 377.919 L 491.985 377.805 L 491.825 377.405 L 491.667 377.004 L 491.620 376.892 L 491.575 376.779 L 491.405 376.384 L 491.237 375.987 L 491.187 375.876 L 491.139 375.764 L 490.960 375.373 L 490.783 374.980 L 490.730 374.871 L 490.680 374.760 L 490.491 374.373 L 490.304 373.985 L 490.248 373.877 L 490.195 373.767 L 489.997 373.385 L 489.801 373.002 L 489.742 372.895 L 489.686 372.787 L 489.479 372.410 L 489.273 372.032 L 489.213 371.926 L 489.154 371.820 L 488.937 371.448 L 488.722 371.074 L 488.659 370.970 L 488.598 370.865 L 488.372 370.499 L 488.148 370.131 L 488.082 370.029 L 488.018 369.925 L 487.784 369.564 L 487.551 369.202 L 487.482 369.101 L 487.416 368.999 L 487.173 368.644 L 486.931 368.288 L 486.860 368.189 L 486.791 368.089 L 486.539 367.740 L 486.289 367.389 L 486.216 367.292 L 486.144 367.194 L 485.884 366.851 L 485.625 366.507 L 485.549 366.411 L 485.476 366.315 L 485.207 365.978 L 484.939 365.641 L 484.861 365.547 L 484.785 365.452 L 484.508 365.123 L 484.233 364.792 L 484.153 364.700 L 484.074 364.607 L 483.789 364.285 L 483.506 363.961 L 483.423 363.871 L 483.343 363.780 L 483.050 363.464 L 482.758 363.147 L 482.674 363.060 L 482.591 362.971 L 482.290 362.663 L 481.991 362.353 L 481.905 362.267 L 481.820 362.180 L 481.512 361.880 L 481.205 361.577 L 481.116 361.494 L 481.029 361.409 L 480.714 361.116 L 480.400 360.821 L 480.309 360.740 L 480.220 360.657 L 479.898 360.372 L 479.577 360.085 L 479.484 360.006 L 479.393 359.926 L 479.063 359.648 L 478.735 359.369 L 478.641 359.293 L 478.548 359.215 L 478.212 358.945 L 477.877 358.675 L 477.780 358.600 L 477.685 358.524 L 477.343 358.264 L 477.002 358.001 L 476.903 357.929 L 476.806 357.856 L 476.458 357.603 L 476.110 357.349 L 476.010 357.280 L 475.911 357.209 L 475.556 356.965 L 475.203 356.720 L 475.101 356.653 L 475.001 356.584 L 474.640 356.349 L 474.280 356.112 L 474.177 356.048 L 474.075 355.982 L 473.708 355.756 L 473.343 355.528 L 473.238 355.466 L 473.135 355.402 L 472.763 355.185 L 472.392 354.967 L 472.286 354.907 L 472.180 354.846 L 471.803 354.638 L 471.427 354.429 L 471.319 354.372 L 471.213 354.314 L 470.831 354.115 L 470.450 353.915 L 470.341 353.861 L 470.233 353.805 L 469.846 353.616 L 469.460 353.425 L 469.349 353.374 L 469.240 353.320 L 468.849 353.141 L 468.458 352.960 L 468.346 352.911 L 468.236 352.861 L 467.840 352.691 L 467.445 352.519 L 467.333 352.473 L 467.221 352.425 L 466.821 352.266 L 466.422 352.104 L 466.308 352.061 L 466.195 352.015 L 465.792 351.865 L 465.389 351.713 L 465.274 351.673 L 465.160 351.631 L 464.753 351.490 L 464.347 351.348 L 464.231 351.311 L 464.116 351.271 L 463.705 351.141 L 463.295 351.009 L 463.179 350.974 L 463.063 350.938 L 462.649 350.818 L 462.236 350.696 L 462.119 350.664 L 462.002 350.630 L 461.586 350.520 L 461.170 350.408 L 461.052 350.380 L 460.934 350.349 L 460.515 350.249 L 460.097 350.147 L 459.978 350.122 L 459.860 350.093 L 459.438 350.004 L 459.018 349.913 L 458.898 349.890 L 458.779 349.865 L 458.356 349.786 L 457.933 349.705 L 457.813 349.685 L 457.693 349.663 L 457.268 349.594 L 456.843 349.523 L 456.723 349.506 L 456.603 349.487 L 456.176 349.429 L 455.750 349.369 L 455.629 349.355 L 455.508 349.338 L 455.081 349.291 L 454.653 349.241 L 454.532 349.230 L 454.411 349.217 L 453.982 349.180 L 453.553 349.140 L 453.432 349.132 L 453.310 349.122 L 452.881 349.096 L 452.451 349.067 L 449.814 348.923 L 447.358 348.767 L 444.878 348.589 L 442.373 348.388 L 439.844 348.165 L 437.291 347.921 L 434.713 347.655 L 432.110 347.369 L 429.484 347.063 L 426.833 346.738 L 424.158 346.393 L 421.458 346.030 L 418.735 345.649 L 415.988 345.250 L 413.217 344.835 L 410.422 344.403 L 407.604 343.956 L 404.762 343.494 L 401.896 343.018 L 399.007 342.528 L 396.095 342.025 L 393.159 341.510 L 390.200 340.983 L 387.218 340.445 L 384.212 339.898 L 381.184 339.340 L 378.132 338.775 L 375.058 338.201 L 371.960 337.620 L 368.840 337.032 L 365.696 336.439 L 362.532 335.842 L 359.348 335.241 L 356.141 334.637 L 352.911 334.030 L 349.659 333.421 L 346.384 332.812 L 346.330 332.802 L 343.085 332.202 L 343.022 332.190 L 339.764 331.593 L 339.691 331.580 L 336.421 330.986 L 336.337 330.971 L 333.054 330.381 L 332.961 330.364 L 329.664 329.779 L 329.562 329.761 L 326.252 329.182 L 326.140 329.162 L 322.816 328.589 L 322.695 328.568 L 319.358 328.002 L 319.228 327.980 L 315.877 327.422 L 315.737 327.399 L 312.373 326.849 L 312.224 326.825 L 308.846 326.284 L 308.688 326.259 L 305.296 325.729 L 305.129 325.703 L 301.723 325.183 L 301.547 325.157 L 298.126 324.649 L 297.942 324.622 L 294.507 324.126 L 294.315 324.099 L 290.865 323.617 L 290.664 323.589 L 287.200 323.120 L 286.990 323.092 L 283.512 322.639 L 283.294 322.611 L 279.800 322.172 L 279.574 322.144 L 276.066 321.722 L 275.831 321.694 L 272.308 321.289 L 272.066 321.262 L 268.528 320.874 L 268.277 320.847 L 264.724 320.478 L 264.465 320.452 L 260.897 320.102 L 260.630 320.077 L 257.047 319.747 L 256.773 319.723 L 253.174 319.414 L 252.892 319.390 L 249.277 319.103 L 248.988 319.081 L 245.358 318.815 L 245.061 318.795 L 241.415 318.553 L 241.112 318.533 L 237.450 318.315 L 237.139 318.298 L 233.461 318.104 L 233.143 318.088 L 229.450 317.920 L 229.125 317.906 L 225.415 317.764 L 225.084 317.752 L 221.357 317.637 L 221.019 317.627 L 217.277 317.540 L 216.933 317.533 L 213.174 317.473 L 212.823 317.469 L 209.048 317.439 L 208.691 317.437 L 204.899 317.437 L 204.537 317.438 L 200.728 317.469 L 200.359 317.473 L 196.534 317.535 L 196.160 317.542 L 195.000 317.571 L 195.000 40.000 L 194.986 38.896 L 194.946 37.792 L 194.878 36.690 L 194.783 35.589 L 194.662 34.492 L 194.513 33.397 L 194.337 32.307 L 194.135 31.221 L 193.907 30.140 L 193.651 29.066 L 193.370 27.998 L 193.062 26.937 L 192.729 25.884 L 192.369 24.840 L 191.985 23.805 L 191.575 22.779 L 191.139 21.764 L 190.680 20.760 L 190.195 19.767 L 189.686 18.787 L 189.154 17.820 L 188.598 16.865 L 188.018 15.925 L 187.416 14.999 L 186.791 14.089 L 186.144 13.194 L 185.476 12.315 L 184.785 11.452 L 184.074 10.607 L 183.343 9.780 L 182.591 8.971 L 181.820 8.180 L 181.029 7.409 L 180.220 6.657 L 179.393 5.926 L 178.548 5.215 L 177.685 4.524 L 176.806 3.856 L 175.911 3.209 L 175.001 2.584 L 174.075 1.982 L 173.135 1.402 L 172.180 0.846 L 171.213 0.314 L 170.233 -0.195 L 169.240 -0.680 L 168.236 -1.139 L 167.221 -1.575 L 166.195 -1.985 L 165.160 -2.369 L 164.116 -2.729 L 163.063 -3.062 L 162.002 -3.370 L 160.934 -3.651 L 159.860 -3.907 L 158.779 -4.135 L 157.693 -4.337 L 156.603 -4.513 L 155.508 -4.662 L 154.411 -4.783 L 153.310 -4.878 L 152.208 -4.946 L 151.104 -4.986 L 150.000 -5.000 L 148.896 -4.986 L 147.792 -4.946 L 146.690 -4.878 L 145.589 -4.783 L 144.492 -4.662 L 143.397 -4.513 L 142.307 -4.337 L 141.221 -4.135 L 140.140 -3.907 L 139.066 -3.651 L 137.998 -3.370 L 136.937 -3.062 L 135.884 -2.729 L 134.840 -2.369 L 133.805 -1.985 L 132.779 -1.575 L 131.764 -1.139 L 130.760 -0.680 L 129.767 -0.195 L 128.787 0.314 L 127.820 0.846 L 126.865 1.402 L 125.925 1.982 L 124.999 2.584 L 124.089 3.209 L 123.194 3.856 L 122.315 4.524 L 121.452 5.215 L 120.607 5.926 L 119.780 6.657 L 118.971 7.409 L 118.180 8.180 L 117.409 8.971 L 116.657 9.780 L 115.926 10.607 L 115.215 11.452 L 114.524 12.315 L 113.856 13.194 L 113.209 14.089 L 112.584 14.999 L 111.982 15.925 L 111.402 16.865 L 110.846 17.820 L 110.314 18.787 L 109.805 19.767 L 109.320 20.760 L 108.861 21.764 L 108.425 22.779 L 108.015 23.805 L 107.631 24.840 L 107.271 25.884 L 106.938 26.937 L 106.630 27.998 L 106.349 29.066 L 106.093 30.140 L 105.865 31.221 L 105.663 32.307 L 105.487 33.397 L 105.338 34.492 L 105.217 35.589 L 105.122 36.690 L 105.054 37.792 L 105.014 38.896 L 105.000 40.000 L 105.000 780.000 L 105.014 781.104 L 105.054 782.208 L 105.122 783.310 L 105.217 784.411 L 105.338 785.508 L 105.487 786.603 L 105.663 787.693 L 105.865 788.779 L 106.093 789.860 L 106.349 790.934 L 106.630 792.002 L 106.938 793.063 L 107.271 794.116 L 107.631 795.160 L 108.015 796.195 L 108.425 797.221 L 108.861 798.236 L 109.320 799.240 L 109.805 800.233 L 110.314 801.213 L 110.846 802.180 L 111.402 803.135 L 111.982 804.075 L 112.584 805.001 L 113.209 805.911 L 113.856 806.806 L 114.524 807.685 L 115.215 808.548 L 115.926 809.393 L 116.657 810.220 L 117.409 811.029 L 118.180 811.820 L 118.971 812.591 L 119.780 813.343 L 120.607 814.074 L 121.452 814.785 L 122.315 815.476 L 123.194 816.144 L 124.089 816.791 L 124.999 817.416 L 125.925 818.018 L 126.865 818.598 L 127.820 819.154 L 128.787 819.686 L 129.767 820.195 L 130.760 820.680 L 131.764 821.139 L 132.779 821.575 L 133.805 821.985 L 134.840 822.369 L 135.884 822.729 L 136.937 823.062 L 137.998 823.370 L 139.066 823.651 L 140.140 823.907 L 141.221 824.135 L 142.307 824.337 L 143.397 824.513 L 144.492 824.662 L 145.589 824.783 L 146.690 824.878 L 147.792 824.946 L 148.896 824.986 L 150.000 825.000 L 151.104 824.986 L 152.208 824.946 L 153.310 824.878 L 154.411 824.783 L 155.508 824.662 L 156.603 824.513 L 157.693 824.337 L 158.779 824.135 L 159.860 823.907 L 160.934 823.651 L 162.002 823.370 L 163.063 823.062 L 164.116 822.729 L 165.160 822.369 L 166.195 821.985 L 167.221 821.575 L 168.236 821.139 L 169.240 820.680 L 170.233 820.195 L 171.213 819.686 L 172.180 819.154 L 173.135 818.598 L 174.075 818.018 L 175.001 817.416 L 175.911 816.791 L 176.806 816.144 L 177.685 815.476 L 178.548 814.785 L 179.393 814.074 L 180.220 813.343 L 181.029 812.591 L 181.820 811.820 L 182.591 811.029 L 183.343 810.220 L 184.074 809.393 L 184.785 808.548 L 185.476 807.685 L 186.144 806.806 L 186.791 805.911 L 187.416 805.001 L 188.018 804.075 L 188.598 803.135 L 189.154 802.180 L 189.686 801.213 L 190.195 800.233 L 190.680 799.240 L 191.139 798.236 L 191.575 797.221 L 191.985 796.195 L 192.369 795.160 L 192.729 794.116 L 193.062 793.063 L 193.370 792.002 L 193.651 790.934 L 193.907 789.860 L 194.135 788.779 L 194.337 787.693 L 194.513 786.603 L 194.662 785.508 L 194.783 784.411 L 194.878 783.310 L 194.946 782.208 L 194.986 781.104 L 195.000 780.000 L 195.000 407.598 L 198.173 407.520 Z" fill="black" fill-rule="evenodd"/>
</svg>
