<svg xmlns="http://www.w3.org/2000/svg" viewBox="0 0 600.000 1000.000">
  <path d="M 198.935,793.592 L 200.069,800.312 L 201.648,806.941 L 203.668,813.450 L 206.117,819.810 L 208.986,825.992 L 212.261,831.968 L 215.928,837.712 L 219.970,843.199 L 224.370,848.403 L 229.108,853.302 L 234.162,857.873 L 239.511,862.097 L 245.129,865.954 L 250.993,869.427 L 257.075,872.500 L 263.349,875.161 L 269.787,877.396 L 276.360,879.197 L 283.039,880.554 L 289.793,881.463 L 296.593,881.918 L 303.407,881.918 L 310.207,881.463 L 316.961,880.554 L 323.640,879.197 L 330.213,877.396 L 336.651,875.161 L 342.925,872.500 L 349.007,869.427 L 354.871,865.954 L 360.489,862.097 L 365.838,857.873 L 370.892,853.302 L 375.630,848.403 L 380.030,843.199 L 384.072,837.712 L 387.739,831.968 L 391.014,825.992 L 393.883,819.810 L 396.332,813.450 L 398.352,806.941 L 399.931,800.312 L 401.065,793.592 L 401.747,786.811 L 402.025,778.496 L 402.153,776.291 L 402.389,774.095 L 402.733,771.913 L 403.183,769.751 L 403.738,767.613 L 404.398,765.506 L 405.161,763.433 L 406.024,761.400 L 406.986,759.411 L 408.045,757.473 L 409.197,755.589 L 410.440,753.763 L 411.772,752.001 L 413.188,750.306 L 414.686,748.683 L 416.261,747.135 L 417.911,745.666 L 419.631,744.280 L 421.416,742.980 L 423.264,741.769 L 425.168,740.651 L 427.125,739.627 L 429.130,738.700 L 430.000,738.349 L 430.000,260.000 L 430.054,257.792 L 430.217,255.589 L 430.487,253.397 L 430.865,251.221 L 431.349,249.066 L 431.938,246.937 L 432.631,244.840 L 433.425,242.779 L 434.320,240.760 L 435.314,238.787 L 436.402,236.865 L 437.584,234.999 L 438.856,233.194 L 440.215,231.452 L 441.657,229.780 L 443.180,228.180 L 444.780,226.657 L 446.452,225.215 L 448.194,223.856 L 449.999,222.584 L 451.865,221.402 L 453.787,220.314 L 455.760,219.320 L 457.779,218.425 L 459.840,217.631 L 461.937,216.938 L 464.066,216.349 L 466.221,215.865 L 468.397,215.487 L 470.589,215.217 L 472.792,215.054 L 475.000,215.000 L 477.208,215.054 L 479.411,215.217 L 481.603,215.487 L 483.779,215.865 L 485.934,216.349 L 488.063,216.938 L 490.160,217.631 L 492.221,218.425 L 494.240,219.320 L 496.213,220.314 L 498.135,221.402 L 500.001,222.584 L 501.806,223.856 L 503.548,225.215 L 505.220,226.657 L 506.820,228.180 L 508.343,229.780 L 509.785,231.452 L 511.144,233.194 L 512.416,234.999 L 513.598,236.865 L 514.686,238.787 L 515.680,240.760 L 516.575,242.779 L 517.369,244.840 L 518.062,246.937 L 518.651,249.066 L 519.135,251.221 L 519.513,253.397 L 519.783,255.589 L 519.946,257.792 L 520.000,260.000 L 520.000,780.000 L 519.946,782.208 L 519.783,784.411 L 519.513,786.603 L 519.135,788.779 L 518.651,790.934 L 518.062,793.063 L 517.369,795.160 L 516.575,797.221 L 515.680,799.240 L 514.686,801.213 L 513.598,803.135 L 512.416,805.001 L 511.144,806.806 L 509.785,808.548 L 508.343,810.220 L 506.820,811.820 L 505.220,813.343 L 503.548,814.785 L 501.806,816.144 L 500.001,817.416 L 498.135,818.598 L 496.213,819.686 L 494.240,820.680 L 492.221,821.575 L 490.160,822.369 L 488.063,823.062 L 486.957,823.368 L 485.551,829.269 L 484.757,832.169 L 481.846,841.552 L 480.859,844.393 L 477.329,853.561 L 476.155,856.329 L 472.019,865.241 L 470.663,867.925 L 465.942,876.540 L 464.409,879.127 L 459.123,887.408 L 457.421,889.887 L 451.594,897.796 L 449.730,900.156 L 443.387,907.659 L 441.370,909.889 L 434.540,916.951 L 432.379,919.041 L 425.093,925.631 L 422.796,927.573 L 415.086,933.661 L 412.665,935.445 L 404.566,941.005 L 402.031,942.623 L 393.578,947.630 L 390.941,949.075 L 382.173,953.506 L 379.445,954.772 L 370.400,958.607 L 367.594,959.688 L 358.314,962.910 L 355.441,963.801 L 345.966,966.397 L 343.041,967.094 L 333.414,969.051 L 330.448,969.551 L 320.712,970.860 L 317.720,971.161 L 307.918,971.817 L 304.912,971.918 L 295.088,971.918 L 292.082,971.817 L 282.280,971.161 L 279.288,970.860 L 269.552,969.551 L 266.586,969.051 L 256.959,967.094 L 254.034,966.397 L 244.559,963.801 L 241.686,962.910 L 232.406,959.688 L 229.600,958.607 L 220.555,954.772 L 217.827,953.506 L 209.059,949.075 L 206.422,947.630 L 197.969,942.623 L 195.434,941.005 L 187.335,935.445 L 184.914,933.661 L 177.204,927.573 L 174.907,925.631 L 167.621,919.041 L 165.460,916.951 L 158.630,909.889 L 156.613,907.659 L 150.270,900.156 L 148.406,897.796 L 142.579,889.887 L 140.877,887.408 L 135.591,879.127 L 134.058,876.540 L 129.337,867.925 L 127.981,865.241 L 123.845,856.329 L 122.671,853.561 L 119.141,844.393 L 118.154,841.552 L 115.243,832.169 L 114.449,829.269 L 113.043,823.368 L 111.937,823.062 L 109.840,822.369 L 107.779,821.575 L 105.760,820.680 L 103.787,819.686 L 101.865,818.598 L 99.999,817.416 L 98.194,816.144 L 96.452,814.785 L 94.780,813.343 L 93.180,811.820 L 91.657,810.220 L 90.215,808.548 L 88.856,806.806 L 87.584,805.001 L 86.402,803.135 L 85.314,801.213 L 84.320,799.240 L 83.425,797.221 L 82.631,795.160 L 81.938,793.063 L 81.349,790.934 L 80.865,788.779 L 80.487,786.603 L 80.217,784.411 L 80.054,782.208 L 80.000,780.000 L 80.000,260.000 L 80.054,257.792 L 80.217,255.589 L 80.487,253.397 L 80.865,251.221 L 81.349,249.066 L 81.938,246.937 L 82.631,244.840 L 83.425,242.779 L 84.320,240.760 L 85.314,238.787 L 86.402,236.865 L 87.584,234.999 L 88.856,233.194 L 90.215,231.452 L 91.657,229.780 L 93.180,228.180 L 94.780,226.657 L 96.452,225.215 L 98.194,223.856 L 99.999,222.584 L 101.865,221.402 L 103.787,220.314 L 105.760,219.320 L 107.779,218.425 L 109.840,217.631 L 111.937,216.938 L 114.066,216.349 L 116.221,215.865 L 118.397,215.487 L 120.589,215.217 L 122.792,215.054 L 125.000,215.000 L 127.208,215.054 L 129.411,215.217 L 131.603,215.487 L 133.779,215.865 L 135.934,216.349 L 138.063,216.938 L 140.160,217.631 L 142.221,218.425 L 144.240,219.320 L 146.213,220.314 L 148.135,221.402 L 150.001,222.584 L 151.806,223.856 L 153.548,225.215 L 155.220,226.657 L 156.820,228.180 L 158.343,229.780 L 159.785,231.452 L 161.144,233.194 L 162.416,234.999 L 163.598,236.865 L 164.686,238.787 L 165.680,240.760 L 166.575,242.779 L 167.369,244.840 L 168.062,246.937 L 168.651,249.066 L 169.135,251.221 L 169.513,253.397 L 169.783,255.589 L 169.946,257.792 L 170.000,260.000 L 170.000,738.349 L 170.870,738.700 L 172.875,739.627 L 174.832,740.651 L 176.736,741.769 L 178.584,742.980 L 180.369,744.280 L 182.089,745.666 L 183.739,747.135 L 185.314,748.683 L 186.812,750.306 L 188.228,752.001 L 189.560,753.763 L 190.803,755.589 L 191.955,757.473 L 193.014,759.411 L 193.976,761.400 L 194.839,763.433 L 195.602,765.506 L 196.262,767.613 L 196.817,769.751 L 197.267,771.913 L 197.611,774.095 L 197.847,776.291 L 197.975,778.496 L 198.253,786.811 L 198.935,793.592 Z" fill="black" fill-rule="evenodd"/>
</svg>
