<svg xmlns="http://www.w3.org/2000/svg" viewBox="0 0 600.000 1000">
  <path d="M 95.007 620.439 L 95.009 620.879 L 95.019 621.175 L 95.024 621.472 L 95.046 621.911 L 95.061 622.350 L 95.082 622.646 L 95.096 622.943 L 95.132 623.381 L 95.162 623.819 L 95.192 624.115 L 95.217 624.411 L 95.267 624.847 L 95.311 625.284 L 95.351 625.579 L 95.385 625.874 L 95.449 626.308 L 95.508 626.744 L 95.557 627.036 L 95.601 627.330 L 95.680 627.763 L 95.753 628.196 L 95.811 628.487 L 95.865 628.779 L 95.957 629.208 L 96.044 629.639 L 96.113 629.928 L 96.176 630.218 L 96.282 630.645 L 96.383 631.072 L 96.461 631.359 L 96.533 631.647 L 96.654 632.069 L 96.769 632.493 L 96.856 632.777 L 96.938 633.063 L 97.072 633.481 L 97.201 633.901 L 97.297 634.182 L 97.388 634.465 L 97.536 634.878 L 97.679 635.294 L 97.784 635.572 L 97.884 635.851 L 98.046 636.260 L 98.202 636.670 L 98.316 636.945 L 98.425 637.221 L 98.600 637.624 L 98.770 638.029 L 98.893 638.299 L 99.011 638.572 L 99.199 638.969 L 99.382 639.369 L 99.514 639.634 L 99.641 639.903 L 99.841 640.294 L 100.037 640.687 L 100.178 640.949 L 100.314 641.213 L 100.527 641.597 L 100.735 641.984 L 100.885 642.240 L 101.029 642.500 L 101.255 642.877 L 101.476 643.257 L 101.633 643.508 L 101.786 643.763 L 102.024 644.132 L 102.257 644.505 L 102.423 644.751 L 102.584 645.001 L 102.834 645.362 L 103.079 645.726 L 103.253 645.967 L 103.422 646.211 L 103.684 646.564 L 103.941 646.921 L 104.122 647.156 L 104.299 647.394 L 104.572 647.738 L 104.841 648.086 L 105.030 648.315 L 105.215 648.548 L 105.499 648.883 L 105.779 649.221 L 105.975 649.444 L 106.167 649.671 L 106.462 649.996 L 106.753 650.325 L 106.957 650.542 L 107.156 650.762 L 107.462 651.077 L 107.763 651.397 L 107.974 651.606 L 108.180 651.820 L 108.496 652.125 L 108.808 652.435 L 109.025 652.637 L 109.238 652.844 L 109.564 653.139 L 109.885 653.438 L 110.109 653.633 L 110.329 653.833 L 110.664 654.117 L 110.996 654.406 L 111.226 654.593 L 111.452 654.785 L 111.796 655.059 L 112.137 655.336 L 112.373 655.516 L 112.606 655.701 L 112.959 655.963 L 113.308 656.229 L 113.550 656.401 L 113.789 656.578 L 114.150 656.828 L 114.508 657.083 L 114.755 657.247 L 114.999 657.416 L 115.369 657.654 L 115.735 657.897 L 115.987 658.053 L 116.237 658.214 L 116.614 658.440 L 116.988 658.671 L 117.245 658.818 L 117.500 658.971 L 117.884 659.185 L 118.265 659.403 L 118.528 659.542 L 118.787 659.686 L 119.178 659.887 L 119.566 660.093 L 119.833 660.224 L 120.097 660.359 L 120.494 660.547 L 120.889 660.740 L 121.160 660.862 L 121.428 660.989 L 121.831 661.164 L 122.232 661.344 L 122.507 661.456 L 122.779 661.575 L 123.188 661.736 L 123.594 661.903 L 123.873 662.007 L 124.149 662.116 L 124.562 662.264 L 124.974 662.417 L 125.256 662.512 L 125.535 662.612 L 125.953 662.746 L 126.370 662.886 L 126.654 662.971 L 126.937 663.062 L 127.360 663.183 L 127.780 663.309 L 128.068 663.385 L 128.353 663.467 L 128.779 663.573 L 129.204 663.686 L 129.493 663.752 L 129.782 663.824 L 130.211 663.917 L 130.639 664.016 L 130.931 664.073 L 131.221 664.135 L 131.653 664.214 L 132.084 664.298 L 132.377 664.346 L 132.670 664.399 L 133.104 664.463 L 133.538 664.534 L 133.833 664.571 L 134.126 664.615 L 134.563 664.665 L 134.998 664.721 L 135.294 664.749 L 135.589 664.783 L 136.027 664.819 L 136.464 664.861 L 136.761 664.879 L 137.057 664.904 L 137.496 664.925 L 137.934 664.953 L 138.231 664.961 L 138.528 664.976 L 138.967 664.983 L 139.406 664.996 L 139.703 664.995 L 140.000 665.000 L 140.439 664.993 L 140.879 664.991 L 141.175 664.981 L 141.472 664.976 L 141.911 664.954 L 142.350 664.939 L 142.646 664.918 L 142.943 664.904 L 143.381 664.868 L 143.819 664.838 L 144.115 664.808 L 144.411 664.783 L 144.847 664.733 L 145.284 664.689 L 145.579 664.649 L 145.874 664.615 L 146.308 664.551 L 146.744 664.492 L 147.036 664.443 L 147.330 664.399 L 147.763 664.320 L 148.196 664.247 L 148.487 664.189 L 148.779 664.135 L 149.208 664.043 L 149.639 663.956 L 149.928 663.887 L 150.218 663.824 L 150.645 663.718 L 151.072 663.617 L 151.359 663.539 L 151.647 663.467 L 152.069 663.346 L 152.493 663.231 L 152.777 663.144 L 153.063 663.062 L 153.481 662.928 L 153.901 662.799 L 154.182 662.703 L 154.465 662.612 L 154.878 662.464 L 155.294 662.321 L 155.572 662.216 L 155.851 662.116 L 156.260 661.954 L 156.670 661.798 L 156.945 661.684 L 157.221 661.575 L 157.624 661.400 L 158.029 661.230 L 158.299 661.107 L 158.572 660.989 L 158.969 660.801 L 159.369 660.618 L 159.634 660.486 L 159.903 660.359 L 160.294 660.159 L 160.687 659.963 L 160.949 659.822 L 161.213 659.686 L 161.597 659.473 L 161.984 659.265 L 162.240 659.115 L 162.500 658.971 L 162.877 658.745 L 163.257 658.524 L 163.508 658.367 L 163.763 658.214 L 164.132 657.976 L 164.505 657.743 L 164.751 657.577 L 165.001 657.416 L 165.362 657.166 L 165.726 656.921 L 165.967 656.747 L 166.211 656.578 L 166.564 656.316 L 166.921 656.059 L 167.156 655.878 L 167.394 655.701 L 167.738 655.428 L 168.086 655.159 L 168.315 654.970 L 168.548 654.785 L 168.883 654.501 L 169.221 654.221 L 169.444 654.025 L 169.671 653.833 L 169.996 653.538 L 170.325 653.247 L 170.542 653.043 L 170.762 652.844 L 171.077 652.538 L 171.397 652.237 L 171.606 652.026 L 171.820 651.820 L 172.125 651.504 L 172.435 651.192 L 172.637 650.975 L 172.844 650.762 L 173.139 650.436 L 173.438 650.115 L 173.633 649.891 L 173.833 649.671 L 174.117 649.336 L 174.406 649.004 L 174.593 648.774 L 174.785 648.548 L 175.059 648.204 L 175.336 647.863 L 175.516 647.627 L 175.701 647.394 L 175.963 647.041 L 176.229 646.692 L 176.401 646.450 L 176.578 646.211 L 176.828 645.850 L 177.083 645.492 L 177.247 645.245 L 177.416 645.001 L 177.654 644.631 L 177.897 644.265 L 178.053 644.013 L 178.214 643.763 L 178.440 643.386 L 178.671 643.012 L 178.818 642.755 L 178.971 642.500 L 179.185 642.116 L 179.403 641.735 L 179.542 641.472 L 179.686 641.213 L 179.887 640.822 L 180.093 640.434 L 180.224 640.167 L 180.359 639.903 L 180.547 639.506 L 180.740 639.111 L 180.862 638.840 L 180.989 638.572 L 181.164 638.169 L 181.344 637.768 L 181.456 637.493 L 181.575 637.221 L 181.736 636.812 L 181.903 636.406 L 182.007 636.127 L 182.116 635.851 L 182.264 635.438 L 182.417 635.026 L 182.512 634.744 L 182.612 634.465 L 182.746 634.047 L 182.886 633.630 L 182.971 633.346 L 183.062 633.063 L 183.183 632.640 L 183.309 632.220 L 183.385 631.932 L 183.467 631.647 L 183.573 631.221 L 183.686 630.796 L 183.752 630.507 L 183.824 630.218 L 183.917 629.789 L 184.016 629.361 L 184.073 629.069 L 184.135 628.779 L 184.214 628.347 L 184.298 627.916 L 184.346 627.623 L 184.399 627.330 L 184.463 626.896 L 184.534 626.462 L 184.571 626.167 L 184.615 625.874 L 184.665 625.437 L 184.721 625.002 L 184.749 624.706 L 184.783 624.411 L 184.819 623.973 L 184.861 623.536 L 184.879 623.239 L 184.904 622.943 L 184.925 622.504 L 184.953 622.066 L 184.961 621.769 L 184.976 621.472 L 184.983 621.033 L 184.996 620.594 L 185.044 616.964 L 185.164 613.931 L 185.364 610.902 L 185.645 607.879 L 186.004 604.865 L 186.444 601.861 L 186.962 598.870 L 187.559 595.893 L 188.235 592.933 L 188.988 589.993 L 189.819 587.073 L 190.726 584.176 L 191.710 581.304 L 192.769 578.459 L 193.903 575.643 L 195.111 572.857 L 196.392 570.105 L 197.745 567.388 L 199.170 564.707 L 200.664 562.064 L 202.228 559.462 L 203.860 556.903 L 205.560 554.387 L 207.324 551.917 L 209.154 549.494 L 211.047 547.121 L 213.001 544.798 L 215.017 542.528 L 217.092 540.311 L 219.224 538.151 L 221.413 536.047 L 223.656 534.002 L 225.953 532.016 L 228.301 530.092 L 230.699 528.231 L 233.146 526.434 L 235.639 524.702 L 238.177 523.036 L 240.758 521.438 L 243.381 519.908 L 246.042 518.449 L 248.742 517.060 L 251.477 515.743 L 254.246 514.498 L 257.047 513.327 L 259.878 512.230 L 262.736 511.209 L 265.621 510.263 L 268.530 509.394 L 271.460 508.602 L 274.411 507.887 L 277.379 507.251 L 280.363 506.693 L 283.361 506.214 L 286.371 505.814 L 289.390 505.494 L 292.416 505.254 L 295.447 505.094 L 298.482 505.014 L 301.518 505.014 L 304.553 505.094 L 307.584 505.254 L 310.610 505.494 L 313.629 505.814 L 316.639 506.214 L 319.637 506.693 L 322.621 507.251 L 325.589 507.887 L 328.540 508.602 L 331.470 509.394 L 334.379 510.263 L 337.264 511.209 L 340.122 512.230 L 342.953 513.327 L 345.754 514.498 L 348.523 515.743 L 351.258 517.060 L 353.958 518.449 L 356.619 519.908 L 359.242 521.438 L 361.823 523.036 L 364.361 524.702 L 366.854 526.434 L 369.301 528.231 L 371.699 530.092 L 374.047 532.016 L 376.344 534.002 L 378.587 536.047 L 380.776 538.151 L 382.908 540.311 L 384.983 542.528 L 386.999 544.798 L 388.953 547.121 L 390.846 549.494 L 392.676 551.917 L 394.440 554.387 L 396.140 556.903 L 397.772 559.462 L 399.336 562.064 L 400.830 564.707 L 402.255 567.388 L 403.608 570.105 L 404.889 572.857 L 406.097 575.643 L 407.231 578.459 L 408.290 581.304 L 409.274 584.176 L 410.181 587.073 L 411.012 589.993 L 411.765 592.933 L 412.441 595.893 L 413.038 598.870 L 413.556 601.861 L 413.996 604.865 L 414.355 607.879 L 414.636 610.902 L 414.836 613.931 L 414.956 616.964 L 415.004 620.594 L 415.017 621.033 L 415.024 621.472 L 415.039 621.769 L 415.047 622.066 L 415.075 622.504 L 415.096 622.943 L 415.121 623.239 L 415.139 623.536 L 415.181 623.973 L 415.217 624.411 L 415.251 624.706 L 415.279 625.002 L 415.335 625.437 L 415.385 625.874 L 415.429 626.167 L 415.466 626.462 L 415.537 626.896 L 415.601 627.330 L 415.654 627.623 L 415.702 627.916 L 415.786 628.347 L 415.865 628.779 L 415.927 629.069 L 415.984 629.361 L 416.083 629.789 L 416.176 630.218 L 416.248 630.507 L 416.314 630.796 L 416.427 631.221 L 416.533 631.647 L 416.615 631.932 L 416.691 632.220 L 416.817 632.640 L 416.938 633.063 L 417.029 633.346 L 417.114 633.630 L 417.254 634.047 L 417.388 634.465 L 417.488 634.744 L 417.583 635.026 L 417.736 635.438 L 417.884 635.851 L 417.993 636.127 L 418.097 636.406 L 418.264 636.812 L 418.425 637.221 L 418.544 637.493 L 418.656 637.768 L 418.836 638.169 L 419.011 638.572 L 419.138 638.840 L 419.260 639.111 L 419.453 639.506 L 419.641 639.903 L 419.776 640.167 L 419.907 640.434 L 420.113 640.822 L 420.314 641.213 L 420.458 641.472 L 420.597 641.735 L 420.815 642.116 L 421.029 642.500 L 421.182 642.755 L 421.329 643.012 L 421.560 643.386 L 421.786 643.763 L 421.947 644.013 L 422.103 644.265 L 422.346 644.631 L 422.584 645.001 L 422.753 645.245 L 422.917 645.492 L 423.172 645.850 L 423.422 646.211 L 423.599 646.450 L 423.771 646.692 L 424.037 647.041 L 424.299 647.394 L 424.484 647.627 L 424.664 647.863 L 424.941 648.204 L 425.215 648.548 L 425.407 648.774 L 425.594 649.004 L 425.883 649.336 L 426.167 649.671 L 426.367 649.891 L 426.562 650.115 L 426.861 650.436 L 427.156 650.762 L 427.363 650.975 L 427.565 651.192 L 427.875 651.504 L 428.180 651.820 L 428.394 652.026 L 428.603 652.237 L 428.923 652.538 L 429.238 652.844 L 429.458 653.043 L 429.675 653.247 L 430.004 653.538 L 430.329 653.833 L 430.556 654.025 L 430.779 654.221 L 431.117 654.501 L 431.452 654.785 L 431.685 654.970 L 431.914 655.159 L 432.262 655.428 L 432.606 655.701 L 432.844 655.878 L 433.079 656.059 L 433.436 656.316 L 433.789 656.578 L 434.033 656.747 L 434.274 656.921 L 434.638 657.166 L 434.999 657.416 L 435.249 657.577 L 435.495 657.743 L 435.868 657.976 L 436.237 658.214 L 436.492 658.367 L 436.743 658.524 L 437.123 658.745 L 437.500 658.971 L 437.760 659.115 L 438.016 659.265 L 438.403 659.473 L 438.787 659.686 L 439.051 659.822 L 439.313 659.963 L 439.706 660.159 L 440.097 660.359 L 440.366 660.486 L 440.631 660.618 L 441.031 660.801 L 441.428 660.989 L 441.701 661.107 L 441.971 661.230 L 442.376 661.400 L 442.779 661.575 L 443.055 661.684 L 443.330 661.798 L 443.740 661.954 L 444.149 662.116 L 444.428 662.216 L 444.706 662.321 L 445.122 662.464 L 445.535 662.612 L 445.818 662.703 L 446.099 662.799 L 446.519 662.928 L 446.937 663.062 L 447.223 663.144 L 447.507 663.231 L 447.931 663.346 L 448.353 663.467 L 448.641 663.539 L 448.928 663.617 L 449.355 663.718 L 449.782 663.824 L 450.072 663.887 L 450.361 663.956 L 450.792 664.043 L 451.221 664.135 L 451.513 664.189 L 451.804 664.247 L 452.237 664.320 L 452.670 664.399 L 452.964 664.443 L 453.256 664.492 L 453.692 664.551 L 454.126 664.615 L 454.421 664.649 L 454.716 664.689 L 455.153 664.733 L 455.589 664.783 L 455.885 664.808 L 456.181 664.838 L 456.619 664.868 L 457.057 664.904 L 457.354 664.918 L 457.650 664.939 L 458.089 664.954 L 458.528 664.976 L 458.825 664.981 L 459.121 664.991 L 459.561 664.993 L 460.000 665.000 L 460.297 664.995 L 460.594 664.996 L 461.033 664.983 L 461.472 664.976 L 461.769 664.961 L 462.066 664.953 L 462.504 664.925 L 462.943 664.904 L 463.239 664.879 L 463.536 664.861 L 463.973 664.819 L 464.411 664.783 L 464.706 664.749 L 465.002 664.721 L 465.437 664.665 L 465.874 664.615 L 466.167 664.571 L 466.462 664.534 L 466.896 664.463 L 467.330 664.399 L 467.623 664.346 L 467.916 664.298 L 468.347 664.214 L 468.779 664.135 L 469.069 664.073 L 469.361 664.016 L 469.789 663.917 L 470.218 663.824 L 470.507 663.752 L 470.796 663.686 L 471.221 663.573 L 471.647 663.467 L 471.932 663.385 L 472.220 663.309 L 472.640 663.183 L 473.063 663.062 L 473.346 662.971 L 473.630 662.886 L 474.047 662.746 L 474.465 662.612 L 474.744 662.512 L 475.026 662.417 L 475.438 662.264 L 475.851 662.116 L 476.127 662.007 L 476.406 661.903 L 476.812 661.736 L 477.221 661.575 L 477.493 661.456 L 477.768 661.344 L 478.169 661.164 L 478.572 660.989 L 478.840 660.862 L 479.111 660.740 L 479.506 660.547 L 479.903 660.359 L 480.167 660.224 L 480.434 660.093 L 480.822 659.887 L 481.213 659.686 L 481.472 659.542 L 481.735 659.403 L 482.116 659.185 L 482.500 658.971 L 482.755 658.818 L 483.012 658.671 L 483.386 658.440 L 483.763 658.214 L 484.013 658.053 L 484.265 657.897 L 484.631 657.654 L 485.001 657.416 L 485.245 657.247 L 485.492 657.083 L 485.850 656.828 L 486.211 656.578 L 486.450 656.401 L 486.692 656.229 L 487.041 655.963 L 487.394 655.701 L 487.627 655.516 L 487.863 655.336 L 488.204 655.059 L 488.548 654.785 L 488.774 654.593 L 489.004 654.406 L 489.336 654.117 L 489.671 653.833 L 489.891 653.633 L 490.115 653.438 L 490.436 653.139 L 490.762 652.844 L 490.975 652.637 L 491.192 652.435 L 491.504 652.125 L 491.820 651.820 L 492.026 651.606 L 492.237 651.397 L 492.538 651.077 L 492.844 650.762 L 493.043 650.542 L 493.247 650.325 L 493.538 649.996 L 493.833 649.671 L 494.025 649.444 L 494.221 649.221 L 494.501 648.883 L 494.785 648.548 L 494.970 648.315 L 495.159 648.086 L 495.428 647.738 L 495.701 647.394 L 495.878 647.156 L 496.059 646.921 L 496.316 646.564 L 496.578 646.211 L 496.747 645.967 L 496.921 645.726 L 497.166 645.362 L 497.416 645.001 L 497.577 644.751 L 497.743 644.505 L 497.976 644.132 L 498.214 643.763 L 498.367 643.508 L 498.524 643.257 L 498.745 642.877 L 498.971 642.500 L 499.115 642.240 L 499.265 641.984 L 499.473 641.597 L 499.686 641.213 L 499.822 640.949 L 499.963 640.687 L 500.159 640.294 L 500.359 639.903 L 500.486 639.634 L 500.618 639.369 L 500.801 638.969 L 500.989 638.572 L 501.107 638.299 L 501.230 638.029 L 501.400 637.624 L 501.575 637.221 L 501.684 636.945 L 501.798 636.670 L 501.954 636.260 L 502.116 635.851 L 502.216 635.572 L 502.321 635.294 L 502.464 634.878 L 502.612 634.465 L 502.703 634.182 L 502.799 633.901 L 502.928 633.481 L 503.062 633.063 L 503.144 632.777 L 503.231 632.493 L 503.346 632.069 L 503.467 631.647 L 503.539 631.359 L 503.617 631.072 L 503.718 630.645 L 503.824 630.218 L 503.887 629.928 L 503.956 629.639 L 504.043 629.208 L 504.135 628.779 L 504.189 628.487 L 504.247 628.196 L 504.320 627.763 L 504.399 627.330 L 504.443 627.036 L 504.492 626.744 L 504.551 626.308 L 504.615 625.874 L 504.649 625.579 L 504.689 625.284 L 504.733 624.847 L 504.783 624.411 L 504.808 624.115 L 504.838 623.819 L 504.868 623.381 L 504.904 622.943 L 504.918 622.646 L 504.939 622.350 L 504.954 621.911 L 504.976 621.472 L 504.981 621.175 L 504.991 620.879 L 504.993 620.439 L 505.000 620.000 L 505.000 260.000 L 504.976 258.528 L 504.904 257.057 L 504.783 255.589 L 504.615 254.126 L 504.399 252.670 L 504.135 251.221 L 503.824 249.782 L 503.467 248.353 L 503.062 246.937 L 502.612 245.535 L 502.116 244.149 L 501.575 242.779 L 500.989 241.428 L 500.359 240.097 L 499.686 238.787 L 498.971 237.500 L 498.214 236.237 L 497.416 234.999 L 496.578 233.789 L 495.701 232.606 L 494.785 231.452 L 493.833 230.329 L 492.844 229.238 L 491.820 228.180 L 490.762 227.156 L 489.671 226.167 L 488.548 225.215 L 487.394 224.299 L 486.211 223.422 L 485.001 222.584 L 483.763 221.786 L 482.500 221.029 L 481.213 220.314 L 479.903 219.641 L 478.572 219.011 L 477.221 218.425 L 475.851 217.884 L 474.465 217.388 L 473.063 216.938 L 471.647 216.533 L 470.218 216.176 L 468.779 215.865 L 467.330 215.601 L 465.874 215.385 L 464.411 215.217 L 462.943 215.096 L 461.472 215.024 L 460.000 215.000 L 458.528 215.024 L 457.057 215.096 L 455.589 215.217 L 454.126 215.385 L 452.670 215.601 L 451.221 215.865 L 449.782 216.176 L 448.353 216.533 L 446.937 216.938 L 445.535 217.388 L 444.149 217.884 L 442.779 218.425 L 441.428 219.011 L 440.097 219.641 L 438.787 220.314 L 437.500 221.029 L 436.237 221.786 L 434.999 222.584 L 433.789 223.422 L 432.606 224.299 L 431.452 225.215 L 430.329 226.167 L 429.238 227.156 L 428.180 228.180 L 427.156 229.238 L 426.167 230.329 L 425.215 231.452 L 424.299 232.606 L 423.422 233.789 L 422.584 234.999 L 421.786 236.237 L 421.029 237.500 L 420.314 238.787 L 419.641 240.097 L 419.011 241.428 L 418.425 242.779 L 417.884 244.149 L 417.388 245.535 L 416.938 246.937 L 416.533 248.353 L 416.176 249.782 L 415.865 251.221 L 415.601 252.670 L 415.385 254.126 L 415.217 255.589 L 415.096 257.057 L 415.024 258.528 L 415.000 260.000 L 415.000 450.299 L 414.240 449.785 L 410.709 447.468 L 409.707 446.829 L 406.116 444.606 L 405.097 443.994 L 401.449 441.866 L 400.415 441.281 L 396.711 439.250 L 395.662 438.692 L 391.906 436.760 L 390.843 436.230 L 387.037 434.398 L 385.960 433.896 L 382.108 432.165 L 381.018 431.692 L 377.121 430.063 L 376.019 429.619 L 372.080 428.093 L 370.967 427.679 L 366.989 426.257 L 365.865 425.873 L 361.852 424.557 L 360.718 424.202 L 356.671 422.992 L 355.529 422.667 L 351.451 421.565 L 350.300 421.270 L 346.195 420.276 L 345.037 420.011 L 340.907 419.126 L 339.742 418.892 L 335.590 418.116 L 334.420 417.913 L 330.249 417.247 L 329.073 417.075 L 324.886 416.519 L 323.706 416.378 L 319.506 415.933 L 318.323 415.824 L 314.113 415.489 L 312.927 415.411 L 308.709 415.188 L 307.522 415.141 L 303.300 415.030 L 302.112 415.014 L 297.888 415.014 L 296.700 415.030 L 292.478 415.141 L 291.291 415.188 L 287.073 415.411 L 285.887 415.489 L 281.677 415.824 L 280.494 415.933 L 276.294 416.378 L 275.114 416.519 L 270.927 417.075 L 269.751 417.247 L 265.580 417.913 L 264.410 418.116 L 260.258 418.892 L 259.093 419.126 L 254.963 420.011 L 253.805 420.276 L 249.700 421.270 L 248.549 421.565 L 244.471 422.667 L 243.329 422.992 L 239.282 424.202 L 238.148 424.557 L 234.135 425.873 L 233.011 426.257 L 229.033 427.679 L 227.920 428.093 L 223.981 429.619 L 222.879 430.063 L 218.982 431.692 L 217.892 432.165 L 214.040 433.896 L 212.963 434.398 L 209.157 436.230 L 208.094 436.760 L 204.338 438.692 L 203.289 439.250 L 199.585 441.281 L 198.551 441.866 L 194.903 443.994 L 193.884 444.606 L 190.293 446.829 L 189.291 447.468 L 185.760 449.785 L 185.000 450.299 L 185.000 260.000 L 184.976 258.528 L 184.904 257.057 L 184.783 255.589 L 184.615 254.126 L 184.399 252.670 L 184.135 251.221 L 183.824 249.782 L 183.467 248.353 L 183.062 246.937 L 182.612 245.535 L 182.116 244.149 L 181.575 242.779 L 180.989 241.428 L 180.359 240.097 L 179.686 238.787 L 178.971 237.500 L 178.214 236.237 L 177.416 234.999 L 176.578 233.789 L 175.701 232.606 L 174.785 231.452 L 173.833 230.329 L 172.844 229.238 L 171.820 228.180 L 170.762 227.156 L 169.671 226.167 L 168.548 225.215 L 167.394 224.299 L 166.211 223.422 L 165.001 222.584 L 163.763 221.786 L 162.500 221.029 L 161.213 220.314 L 159.903 219.641 L 158.572 219.011 L 157.221 218.425 L 155.851 217.884 L 154.465 217.388 L 153.063 216.938 L 151.647 216.533 L 150.218 216.176 L 148.779 215.865 L 147.330 215.601 L 145.874 215.385 L 144.411 215.217 L 142.943 215.096 L 141.472 215.024 L 140.000 215.000 L 138.528 215.024 L 137.057 215.096 L 135.589 215.217 L 134.126 215.385 L 132.670 215.601 L 131.221 215.865 L 129.782 216.176 L 128.353 216.533 L 126.937 216.938 L 125.535 217.388 L 124.149 217.884 L 122.779 218.425 L 121.428 219.011 L 120.097 219.641 L 118.787 220.314 L 117.500 221.029 L 116.237 221.786 L 114.999 222.584 L 113.789 223.422 L 112.606 224.299 L 111.452 225.215 L 110.329 226.167 L 109.238 227.156 L 108.180 228.180 L 107.156 229.238 L 106.167 230.329 L 105.215 231.452 L 104.299 232.606 L 103.422 233.789 L 102.584 234.999 L 101.786 236.237 L 101.029 237.500 L 100.314 238.787 L 99.641 240.097 L 99.011 241.428 L 98.425 242.779 L 97.884 244.149 L 97.388 245.535 L 96.938 246.937 L 96.533 248.353 L 96.176 249.782 L 95.865 251.221 L 95.601 252.670 L 95.385 254.126 L 95.217 255.589 L 95.096 257.057 L 95.024 258.528 L 95.000 260.000 L 95.000 620.000 L 95.007 620.439 Z" fill="black" fill-rule="evenodd"/>
</svg>
