<svg xmlns="http://www.w3.org/2000/svg" viewBox="0 0 600.000 1000">
  <path d="M 320.255 649.771 L 320.245 649.801 L 320.169 650.001 L 320.039 650.296 L 319.842 650.688 L 319.569 651.176 L 319.209 651.757 L 318.753 652.427 L 318.196 653.180 L 317.532 654.008 L 316.758 654.904 L 315.873 655.861 L 314.876 656.869 L 313.767 657.923 L 312.547 659.015 L 311.219 660.138 L 309.785 661.285 L 308.249 662.450 L 306.613 663.628 L 304.882 664.814 L 303.060 666.003 L 301.151 667.190 L 299.160 668.372 L 297.090 669.544 L 294.947 670.704 L 292.735 671.848 L 290.459 672.973 L 288.124 674.077 L 285.734 675.156 L 283.293 676.210 L 280.808 677.235 L 278.282 678.230 L 275.720 679.193 L 273.126 680.123 L 270.507 681.017 L 267.865 681.875 L 265.207 682.694 L 262.537 683.474 L 259.859 684.214 L 257.179 684.913 L 254.501 685.569 L 251.831 686.181 L 249.173 686.750 L 246.532 687.274 L 243.914 687.752 L 241.324 688.185 L 238.767 688.571 L 236.249 688.911 L 233.775 689.204 L 231.352 689.450 L 228.985 689.650 L 226.680 689.804 L 224.444 689.913 L 222.283 689.977 L 219.746 690.002 L 218.642 690.027 L 217.538 690.079 L 216.437 690.158 L 215.337 690.263 L 214.241 690.396 L 213.148 690.556 L 212.060 690.742 L 210.976 690.956 L 209.898 691.195 L 208.826 691.461 L 207.761 691.753 L 206.703 692.072 L 205.654 692.416 L 204.613 692.786 L 203.582 693.181 L 202.560 693.601 L 201.550 694.047 L 200.550 694.517 L 199.563 695.011 L 198.588 695.530 L 197.625 696.072 L 196.677 696.638 L 195.743 697.227 L 194.823 697.838 L 193.919 698.472 L 193.030 699.128 L 192.158 699.806 L 191.303 700.504 L 190.465 701.224 L 189.645 701.964 L 188.843 702.724 L 188.061 703.503 L 187.297 704.301 L 186.554 705.118 L 185.831 705.953 L 185.128 706.805 L 184.447 707.674 L 183.787 708.560 L 183.149 709.461 L 182.533 710.378 L 181.940 711.310 L 181.371 712.256 L 180.824 713.216 L 180.301 714.189 L 179.803 715.174 L 179.328 716.172 L 178.879 717.180 L 178.454 718.200 L 178.054 719.229 L 177.680 720.268 L 177.331 721.316 L 177.008 722.373 L 176.711 723.436 L 176.440 724.507 L 176.196 725.584 L 175.978 726.667 L 175.787 727.755 L 175.623 728.847 L 175.485 729.943 L 175.374 731.042 L 175.291 732.143 L 175.234 733.246 L 175.205 734.350 L 175.202 735.454 L 175.227 736.558 L 175.279 737.662 L 175.358 738.763 L 175.463 739.863 L 175.596 740.959 L 175.756 742.052 L 175.942 743.140 L 176.156 744.224 L 176.395 745.302 L 176.661 746.374 L 176.953 747.439 L 177.272 748.497 L 177.616 749.546 L 177.986 750.587 L 178.381 751.618 L 178.801 752.640 L 179.247 753.650 L 179.717 754.650 L 180.211 755.637 L 180.730 756.612 L 181.272 757.575 L 181.838 758.523 L 182.427 759.457 L 183.038 760.377 L 183.672 761.281 L 184.328 762.170 L 185.006 763.042 L 185.704 763.897 L 186.424 764.735 L 187.164 765.555 L 187.924 766.357 L 188.703 767.139 L 189.501 767.903 L 190.318 768.646 L 191.153 769.369 L 192.005 770.072 L 192.874 770.753 L 193.760 771.413 L 194.661 772.051 L 195.578 772.667 L 196.510 773.260 L 197.456 773.829 L 198.416 774.376 L 199.389 774.899 L 200.374 775.397 L 201.372 775.872 L 202.380 776.321 L 203.400 776.746 L 204.429 777.146 L 205.468 777.520 L 206.516 777.869 L 207.573 778.192 L 208.636 778.489 L 209.707 778.760 L 210.784 779.004 L 211.867 779.222 L 212.955 779.413 L 214.047 779.577 L 215.143 779.715 L 216.242 779.826 L 217.343 779.909 L 218.446 779.966 L 219.550 779.995 L 220.654 779.998 L 223.633 779.968 L 224.514 779.950 L 227.539 779.860 L 228.386 779.827 L 231.453 779.678 L 232.270 779.631 L 235.377 779.424 L 236.166 779.364 L 239.309 779.098 L 240.073 779.027 L 243.250 778.704 L 243.992 778.623 L 247.198 778.243 L 247.920 778.151 L 251.152 777.715 L 251.857 777.615 L 255.112 777.123 L 255.803 777.013 L 259.077 776.466 L 259.754 776.348 L 263.044 775.747 L 263.711 775.620 L 267.013 774.965 L 267.671 774.829 L 270.982 774.121 L 271.632 773.977 L 274.950 773.216 L 275.594 773.063 L 278.914 772.249 L 279.554 772.088 L 282.873 771.223 L 283.510 771.052 L 286.825 770.136 L 287.461 769.955 L 290.768 768.989 L 291.405 768.798 L 294.700 767.782 L 295.339 767.580 L 298.620 766.514 L 299.261 766.301 L 302.524 765.187 L 303.170 764.961 L 306.412 763.799 L 307.064 763.560 L 310.281 762.350 L 310.940 762.097 L 314.129 760.840 L 314.796 760.571 L 317.954 759.269 L 318.631 758.983 L 321.754 757.635 L 322.442 757.331 L 325.527 755.937 L 326.228 755.613 L 329.271 754.175 L 329.985 753.830 L 332.983 752.348 L 333.713 751.979 L 336.663 750.454 L 337.409 750.059 L 340.307 748.491 L 341.070 748.068 L 343.913 746.457 L 344.696 746.004 L 347.480 744.352 L 348.282 743.864 L 351.005 742.171 L 351.828 741.646 L 354.485 739.913 L 355.331 739.347 L 357.920 737.574 L 358.788 736.964 L 361.304 735.151 L 362.196 734.492 L 364.637 732.640 L 365.553 731.927 L 367.915 730.037 L 368.855 729.265 L 371.134 727.338 L 372.097 726.500 L 374.291 724.536 L 375.276 723.628 L 377.381 721.627 L 378.387 720.642 L 380.400 718.605 L 381.423 717.535 L 383.340 715.464 L 384.378 714.303 L 386.196 712.197 L 387.244 710.937 L 388.959 708.797 L 389.492 708.119 L 390.012 707.432 L 391.621 705.258 L 392.153 704.525 L 392.670 703.781 L 394.170 701.574 L 394.696 700.782 L 395.206 699.978 L 396.594 697.740 L 397.110 696.886 L 397.607 696.021 L 398.878 693.750 L 399.378 692.833 L 399.856 691.905 L 401.008 689.603 L 401.485 688.622 L 401.937 687.630 L 402.966 685.298 L 403.412 684.253 L 403.830 683.197 L 404.733 680.835 L 405.140 679.729 L 405.517 678.613 L 406.290 676.222 L 406.649 675.058 L 406.976 673.886 L 407.616 671.466 L 407.920 670.251 L 408.189 669.028 L 408.693 666.579 L 408.934 665.320 L 409.138 664.055 L 409.502 661.579 L 409.673 660.286 L 409.807 658.989 L 410.028 656.486 L 410.124 655.170 L 410.183 653.852 L 410.257 651.323 L 410.276 650.072 L 410.261 648.820 L 410.150 644.579 L 410.101 643.363 L 410.020 642.148 L 409.691 638.066 L 409.573 636.814 L 409.420 635.567 L 408.881 631.638 L 408.688 630.365 L 408.459 629.097 L 407.718 625.317 L 407.448 624.035 L 407.140 622.763 L 406.205 619.126 L 405.858 617.852 L 405.473 616.590 L 404.351 613.091 L 403.931 611.842 L 403.473 610.605 L 402.172 607.239 L 401.684 606.029 L 401.161 604.833 L 399.688 601.595 L 399.141 600.437 L 398.562 599.296 L 396.925 596.180 L 396.331 595.086 L 395.706 594.009 L 393.913 591.012 L 393.283 589.990 L 392.626 588.985 L 390.684 586.100 L 390.031 585.156 L 389.353 584.229 L 387.270 581.452 L 386.606 580.588 L 385.921 579.740 L 383.704 577.065 L 383.039 576.282 L 382.357 575.513 L 380.015 572.936 L 379.360 572.231 L 378.691 571.540 L 376.230 569.055 L 375.594 568.425 L 374.946 567.808 L 372.374 565.410 L 371.143 564.303 L 368.469 561.986 L 367.301 561.009 L 364.531 558.769 L 363.435 557.911 L 360.578 555.743 L 359.560 554.993 L 356.623 552.892 L 355.686 552.240 L 352.677 550.200 L 351.825 549.637 L 348.750 547.653 L 347.983 547.170 L 344.851 545.238 L 344.171 544.827 L 340.990 542.941 L 340.396 542.595 L 337.173 540.750 L 336.665 540.464 L 333.408 538.655 L 332.986 538.424 L 329.701 536.646 L 329.365 536.466 L 326.062 534.713 L 325.811 534.581 L 322.496 532.849 L 322.330 532.763 L 319.012 531.047 L 318.932 531.006 L 315.620 529.301 L 312.366 527.626 L 309.218 525.997 L 306.186 524.410 L 303.280 522.863 L 300.508 521.355 L 297.880 519.886 L 295.407 518.457 L 293.098 517.070 L 290.963 515.731 L 289.011 514.444 L 287.250 513.217 L 285.686 512.059 L 284.323 510.980 L 283.163 509.991 L 282.204 509.106 L 281.439 508.334 L 280.856 507.687 L 280.437 507.171 L 280.159 506.786 L 279.993 506.526 L 279.910 506.374 L 279.877 506.304 L 279.866 506.277 L 279.857 506.246 L 279.835 506.157 L 279.801 505.953 L 279.765 505.580 L 279.743 504.882 L 279.756 504.368 L 279.804 503.769 L 279.883 503.184 L 279.993 502.595 L 280.140 501.987 L 280.330 501.346 L 280.571 500.661 L 280.871 499.925 L 281.238 499.131 L 281.680 498.276 L 282.207 497.361 L 282.823 496.386 L 283.536 495.353 L 284.348 494.267 L 285.264 493.132 L 286.286 491.954 L 287.415 490.738 L 288.650 489.490 L 289.990 488.215 L 291.435 486.920 L 292.981 485.610 L 294.626 484.291 L 296.366 482.967 L 298.198 481.643 L 300.117 480.324 L 302.118 479.013 L 304.198 477.714 L 306.352 476.432 L 308.574 475.169 L 310.859 473.928 L 313.203 472.712 L 315.599 471.523 L 318.044 470.364 L 320.532 469.237 L 323.056 468.144 L 325.613 467.087 L 328.196 466.067 L 330.800 465.086 L 333.420 464.146 L 336.049 463.247 L 338.684 462.391 L 341.317 461.578 L 343.943 460.811 L 346.557 460.090 L 349.152 459.415 L 351.723 458.787 L 354.263 458.208 L 356.766 457.677 L 359.226 457.194 L 361.635 456.761 L 363.988 456.376 L 366.276 456.041 L 368.492 455.754 L 370.629 455.515 L 372.677 455.324 L 374.627 455.180 L 376.470 455.079 L 378.195 455.021 L 380.318 454.997 L 381.422 454.971 L 382.525 454.917 L 383.626 454.837 L 384.726 454.730 L 385.822 454.595 L 386.915 454.434 L 388.003 454.246 L 389.086 454.031 L 390.164 453.790 L 391.236 453.523 L 392.300 453.229 L 393.357 452.909 L 394.406 452.564 L 395.446 452.192 L 396.477 451.796 L 397.498 451.374 L 398.508 450.927 L 399.507 450.455 L 400.494 449.960 L 401.468 449.440 L 402.429 448.896 L 403.377 448.329 L 404.311 447.739 L 405.229 447.126 L 406.133 446.491 L 407.021 445.834 L 407.892 445.155 L 408.746 444.455 L 409.583 443.734 L 410.402 442.993 L 411.202 442.232 L 411.984 441.452 L 412.746 440.652 L 413.488 439.835 L 414.210 438.999 L 414.912 438.146 L 415.592 437.275 L 416.250 436.389 L 416.887 435.486 L 417.501 434.569 L 418.093 433.636 L 418.661 432.689 L 419.206 431.729 L 419.728 430.755 L 420.225 429.769 L 420.698 428.771 L 421.147 427.761 L 421.570 426.741 L 421.968 425.711 L 422.341 424.672 L 422.688 423.623 L 423.010 422.567 L 423.305 421.502 L 423.574 420.431 L 423.817 419.354 L 424.033 418.271 L 424.223 417.183 L 424.386 416.090 L 424.522 414.994 L 424.631 413.895 L 424.713 412.794 L 424.768 411.691 L 424.796 410.587 L 424.797 409.482 L 424.771 408.378 L 424.717 407.275 L 424.637 406.174 L 424.530 405.074 L 424.395 403.978 L 424.234 402.885 L 424.046 401.797 L 423.831 400.714 L 423.590 399.636 L 423.323 398.564 L 423.029 397.500 L 422.709 396.443 L 422.364 395.394 L 421.992 394.354 L 421.596 393.323 L 421.174 392.302 L 420.727 391.292 L 420.255 390.293 L 419.760 389.306 L 419.240 388.332 L 418.696 387.371 L 418.129 386.423 L 417.539 385.489 L 416.926 384.571 L 416.291 383.667 L 415.634 382.779 L 414.955 381.908 L 414.255 381.054 L 413.534 380.217 L 412.793 379.398 L 412.032 378.598 L 411.252 377.816 L 410.452 377.054 L 409.635 376.312 L 408.799 375.590 L 407.946 374.888 L 407.075 374.208 L 406.189 373.550 L 405.286 372.913 L 404.369 372.299 L 403.436 371.707 L 402.489 371.139 L 401.529 370.594 L 400.555 370.072 L 399.569 369.575 L 398.571 369.102 L 397.561 368.653 L 396.541 368.230 L 395.511 367.832 L 394.472 367.459 L 393.423 367.112 L 392.367 366.790 L 391.302 366.495 L 390.231 366.226 L 389.154 365.983 L 388.071 365.767 L 386.983 365.577 L 385.890 365.414 L 384.794 365.278 L 383.695 365.169 L 382.594 365.087 L 381.491 365.032 L 380.387 365.004 L 379.282 365.003 L 376.665 365.033 L 375.674 365.055 L 372.986 365.146 L 372.050 365.187 L 369.294 365.337 L 368.405 365.394 L 365.587 365.603 L 364.739 365.674 L 361.861 365.943 L 361.050 366.026 L 358.117 366.353 L 357.336 366.447 L 354.353 366.833 L 353.599 366.937 L 350.569 367.381 L 349.838 367.495 L 346.765 367.997 L 346.054 368.119 L 342.942 368.679 L 342.248 368.809 L 339.101 369.427 L 338.420 369.566 L 335.243 370.240 L 334.574 370.387 L 331.369 371.118 L 330.709 371.274 L 327.482 372.062 L 326.829 372.227 L 323.583 373.071 L 322.935 373.245 L 319.674 374.144 L 319.029 374.328 L 315.757 375.283 L 315.113 375.477 L 311.835 376.488 L 311.190 376.692 L 307.910 377.758 L 307.262 377.974 L 303.983 379.095 L 303.332 379.323 L 300.059 380.498 L 299.402 380.740 L 296.138 381.969 L 295.475 382.225 L 292.224 383.509 L 291.553 383.780 L 288.320 385.117 L 287.639 385.405 L 284.427 386.796 L 283.735 387.102 L 280.549 388.546 L 279.845 388.872 L 276.689 390.368 L 275.971 390.716 L 272.848 392.265 L 272.115 392.637 L 269.030 394.237 L 268.281 394.635 L 265.238 396.288 L 264.472 396.713 L 261.475 398.417 L 260.691 398.874 L 257.743 400.629 L 256.940 401.119 L 254.046 402.925 L 253.223 403.452 L 250.387 405.309 L 249.543 405.876 L 246.769 407.783 L 245.903 408.393 L 243.195 410.351 L 242.308 411.008 L 239.670 413.016 L 238.762 413.725 L 236.198 415.782 L 235.268 416.548 L 232.782 418.654 L 231.833 419.482 L 229.428 421.637 L 228.460 422.531 L 226.142 424.734 L 225.157 425.700 L 222.929 427.952 L 221.930 428.995 L 219.796 431.295 L 218.786 432.420 L 216.750 434.768 L 215.734 435.982 L 213.800 438.378 L 212.784 439.685 L 210.956 442.128 L 210.444 442.826 L 209.946 443.534 L 208.228 446.023 L 207.723 446.772 L 207.232 447.531 L 205.629 450.067 L 205.134 450.869 L 204.656 451.681 L 203.171 454.263 L 202.691 455.118 L 202.231 455.984 L 200.868 458.612 L 200.410 459.521 L 199.973 460.439 L 198.736 463.113 L 198.306 464.074 L 197.897 465.045 L 196.791 467.765 L 196.394 468.776 L 196.022 469.797 L 195.050 472.562 L 194.693 473.620 L 194.362 474.688 L 193.529 477.497 L 193.218 478.598 L 192.934 479.706 L 192.244 482.560 L 191.984 483.697 L 191.754 484.840 L 191.210 487.738 L 191.007 488.904 L 190.835 490.074 L 190.441 493.017 L 190.298 494.203 L 190.187 495.392 L 189.948 498.378 L 189.868 499.575 L 189.820 500.774 L 189.740 503.803 L 189.724 505.118 L 189.746 506.433 L 189.858 509.924 L 189.900 510.909 L 189.964 511.892 L 190.049 512.874 L 190.377 516.232 L 190.487 517.240 L 190.620 518.245 L 190.776 519.247 L 191.314 522.478 L 191.495 523.493 L 191.700 524.504 L 191.927 525.510 L 192.668 528.618 L 192.920 529.624 L 193.195 530.624 L 193.493 531.617 L 194.428 534.608 L 194.746 535.587 L 195.087 536.558 L 195.450 537.522 L 196.572 540.400 L 196.949 541.337 L 197.347 542.265 L 197.766 543.184 L 199.067 545.955 L 199.493 546.836 L 199.938 547.708 L 200.401 548.570 L 201.874 551.239 L 202.335 552.055 L 202.814 552.862 L 203.309 553.658 L 204.946 556.230 L 205.678 557.344 L 206.443 558.436 L 208.236 560.916 L 208.984 561.920 L 209.759 562.903 L 211.701 565.297 L 212.446 566.192 L 213.215 567.067 L 215.298 569.379 L 216.027 570.169 L 216.775 570.942 L 218.992 573.177 L 219.693 573.869 L 220.410 574.546 L 222.753 576.710 L 223.418 577.312 L 224.095 577.901 L 226.556 579.999 L 227.810 581.030 L 230.382 583.066 L 231.540 583.954 L 234.214 585.934 L 235.273 586.694 L 238.042 588.623 L 238.998 589.271 L 241.855 591.154 L 242.708 591.702 L 245.645 593.545 L 246.396 594.006 L 249.405 595.813 L 250.056 596.196 L 253.130 597.972 L 253.682 598.286 L 256.814 600.037 L 257.270 600.289 L 260.452 602.019 L 260.814 602.214 L 264.038 603.930 L 264.309 604.073 L 267.566 605.779 L 267.748 605.873 L 271.032 607.573 L 271.125 607.621 L 274.429 609.322 L 277.710 611.010 L 280.906 612.663 L 284.012 614.286 L 287.022 615.883 L 289.928 617.456 L 292.721 619.007 L 295.393 620.536 L 297.937 622.044 L 300.345 623.530 L 302.610 624.991 L 304.725 626.424 L 306.684 627.825 L 308.483 629.190 L 310.119 630.513 L 311.592 631.789 L 312.903 633.012 L 314.057 634.177 L 315.061 635.282 L 315.927 636.326 L 316.666 637.313 L 317.296 638.248 L 317.834 639.147 L 318.295 640.025 L 318.697 640.909 L 319.052 641.827 L 319.368 642.813 L 319.649 643.903 L 319.890 645.134 L 320.083 646.541 L 320.213 648.156 L 320.255 649.771 Z" fill="black" fill-rule="evenodd"/>
</svg>
