<svg xmlns="http://www.w3.org/2000/svg" viewBox="0 0 600.000 1000">
  <path d="M 399.137 797.182 L 399.815 798.054 L 400.514 798.909 L 401.234 799.747 L 401.974 800.566 L 402.734 801.368 L 403.514 802.150 L 404.312 802.913 L 405.129 803.656 L 405.964 804.379 L 406.817 805.081 L 407.686 805.762 L 408.572 806.422 L 409.474 807.060 L 410.391 807.675 L 411.323 808.267 L 412.269 808.837 L 413.229 809.383 L 414.202 809.906 L 415.188 810.404 L 416.185 810.878 L 417.194 811.327 L 418.214 811.752 L 419.244 812.151 L 420.283 812.525 L 421.331 812.874 L 422.387 813.196 L 423.451 813.493 L 424.522 813.763 L 425.599 814.007 L 426.682 814.225 L 427.770 814.415 L 428.862 814.579 L 429.958 814.717 L 431.057 814.827 L 432.158 814.910 L 433.261 814.966 L 434.365 814.996 L 435.469 814.998 L 436.574 814.972 L 437.677 814.920 L 438.778 814.841 L 439.878 814.735 L 440.974 814.602 L 442.067 814.442 L 443.155 814.255 L 444.239 814.041 L 445.317 813.801 L 446.389 813.535 L 447.454 813.242 L 448.511 812.924 L 449.561 812.579 L 450.601 812.209 L 451.632 811.813 L 452.653 811.393 L 453.664 810.947 L 454.663 810.477 L 455.651 809.982 L 456.626 809.463 L 457.588 808.920 L 458.536 808.354 L 459.470 807.765 L 460.390 807.153 L 461.294 806.519 L 462.182 805.863 L 463.054 805.185 L 463.909 804.486 L 464.747 803.766 L 465.566 803.026 L 466.368 802.266 L 467.150 801.486 L 467.913 800.688 L 468.656 799.871 L 469.379 799.036 L 470.081 798.183 L 470.762 797.314 L 471.422 796.428 L 472.060 795.526 L 472.675 794.609 L 473.267 793.677 L 473.837 792.731 L 474.383 791.771 L 474.906 790.798 L 475.404 789.812 L 475.878 788.815 L 476.327 787.806 L 476.752 786.786 L 477.151 785.756 L 477.525 784.717 L 477.874 783.669 L 478.196 782.613 L 478.493 781.549 L 478.763 780.478 L 479.007 779.401 L 479.225 778.318 L 479.415 777.230 L 479.579 776.138 L 479.717 775.042 L 479.827 773.943 L 479.910 772.842 L 479.966 771.739 L 479.996 770.635 L 479.998 769.531 L 479.972 768.426 L 479.920 767.323 L 479.841 766.222 L 479.735 765.122 L 479.602 764.026 L 479.442 762.933 L 479.255 761.845 L 479.041 760.761 L 478.801 759.683 L 478.535 758.611 L 478.242 757.546 L 477.924 756.489 L 477.579 755.439 L 477.209 754.399 L 476.813 753.368 L 476.393 752.347 L 475.947 751.336 L 475.477 750.337 L 474.982 749.349 L 474.463 748.374 L 473.920 747.412 L 473.354 746.464 L 472.765 745.530 L 472.153 744.610 L 471.519 743.706 L 355.451 582.500 L 471.519 421.294 L 472.153 420.390 L 472.765 419.470 L 473.354 418.536 L 473.920 417.588 L 474.463 416.626 L 474.982 415.651 L 475.477 414.663 L 475.947 413.664 L 476.393 412.653 L 476.813 411.632 L 477.209 410.601 L 477.579 409.561 L 477.924 408.511 L 478.242 407.454 L 478.535 406.389 L 478.801 405.317 L 479.041 404.239 L 479.255 403.155 L 479.442 402.067 L 479.602 400.974 L 479.735 399.878 L 479.841 398.778 L 479.920 397.677 L 479.972 396.574 L 479.998 395.469 L 479.996 394.365 L 479.966 393.261 L 479.910 392.158 L 479.827 391.057 L 479.717 389.958 L 479.579 388.862 L 479.415 387.770 L 479.225 386.682 L 479.007 385.599 L 478.763 384.522 L 478.493 383.451 L 478.196 382.387 L 477.874 381.331 L 477.525 380.283 L 477.151 379.244 L 476.752 378.214 L 476.327 377.194 L 475.878 376.185 L 475.404 375.188 L 474.906 374.202 L 474.383 373.229 L 473.837 372.269 L 473.267 371.323 L 472.675 370.391 L 472.060 369.474 L 471.422 368.572 L 470.762 367.686 L 470.081 366.817 L 469.379 365.964 L 468.656 365.129 L 467.913 364.312 L 467.150 363.514 L 466.368 362.734 L 465.566 361.974 L 464.747 361.234 L 463.909 360.514 L 463.054 359.815 L 462.182 359.137 L 461.294 358.481 L 460.390 357.847 L 459.470 357.235 L 458.536 356.646 L 457.588 356.080 L 456.626 355.537 L 455.651 355.018 L 454.663 354.523 L 453.664 354.053 L 452.653 353.607 L 451.632 353.187 L 450.601 352.791 L 449.561 352.421 L 448.511 352.076 L 447.454 351.758 L 446.389 351.465 L 445.317 351.199 L 444.239 350.959 L 443.155 350.745 L 442.067 350.558 L 440.974 350.398 L 439.878 350.265 L 438.778 350.159 L 437.677 350.080 L 436.574 350.028 L 435.469 350.002 L 434.365 350.004 L 433.261 350.034 L 432.158 350.090 L 431.057 350.173 L 429.958 350.283 L 428.862 350.421 L 427.770 350.585 L 426.682 350.775 L 425.599 350.993 L 424.522 351.237 L 423.451 351.507 L 422.387 351.804 L 421.331 352.126 L 420.283 352.475 L 419.244 352.849 L 418.214 353.248 L 417.194 353.673 L 416.185 354.122 L 415.188 354.596 L 414.202 355.094 L 413.229 355.617 L 412.269 356.163 L 411.323 356.733 L 410.391 357.325 L 409.474 357.940 L 408.572 358.578 L 407.686 359.238 L 406.817 359.919 L 405.964 360.621 L 405.129 361.344 L 404.312 362.087 L 403.514 362.850 L 402.734 363.632 L 401.974 364.434 L 401.234 365.253 L 400.514 366.091 L 399.815 366.946 L 399.137 367.818 L 398.481 368.706 L 300.000 505.485 L 201.519 368.706 L 200.863 367.818 L 200.185 366.946 L 199.486 366.091 L 198.766 365.253 L 198.026 364.434 L 197.266 363.632 L 196.486 362.850 L 195.688 362.087 L 194.871 361.344 L 194.036 360.621 L 193.183 359.919 L 192.314 359.238 L 191.428 358.578 L 190.526 357.940 L 189.609 357.325 L 188.677 356.733 L 187.731 356.163 L 186.771 355.617 L 185.798 355.094 L 184.812 354.596 L 183.815 354.122 L 182.806 353.673 L 181.786 353.248 L 180.756 352.849 L 179.717 352.475 L 178.669 352.126 L 177.613 351.804 L 176.549 351.507 L 175.478 351.237 L 174.401 350.993 L 173.318 350.775 L 172.230 350.585 L 171.138 350.421 L 170.042 350.283 L 168.943 350.173 L 167.842 350.090 L 166.739 350.034 L 165.635 350.004 L 164.531 350.002 L 163.426 350.028 L 162.323 350.080 L 161.222 350.159 L 160.122 350.265 L 159.026 350.398 L 157.933 350.558 L 156.845 350.745 L 155.761 350.959 L 154.683 351.199 L 153.611 351.465 L 152.546 351.758 L 151.489 352.076 L 150.439 352.421 L 149.399 352.791 L 148.368 353.187 L 147.347 353.607 L 146.336 354.053 L 145.337 354.523 L 144.349 355.018 L 143.374 355.537 L 142.412 356.080 L 141.464 356.646 L 140.530 357.235 L 139.610 357.847 L 138.706 358.481 L 137.818 359.137 L 136.946 359.815 L 136.091 360.514 L 135.253 361.234 L 134.434 361.974 L 133.632 362.734 L 132.850 363.514 L 132.087 364.312 L 131.344 365.129 L 130.621 365.964 L 129.919 366.817 L 129.238 367.686 L 128.578 368.572 L 127.940 369.474 L 127.325 370.391 L 126.733 371.323 L 126.163 372.269 L 125.617 373.229 L 125.094 374.202 L 124.596 375.188 L 124.122 376.185 L 123.673 377.194 L 123.248 378.214 L 122.849 379.244 L 122.475 380.283 L 122.126 381.331 L 121.804 382.387 L 121.507 383.451 L 121.237 384.522 L 120.993 385.599 L 120.775 386.682 L 120.585 387.770 L 120.421 388.862 L 120.283 389.958 L 120.173 391.057 L 120.090 392.158 L 120.034 393.261 L 120.004 394.365 L 120.002 395.469 L 120.028 396.574 L 120.080 397.677 L 120.159 398.778 L 120.265 399.878 L 120.398 400.974 L 120.558 402.067 L 120.745 403.155 L 120.959 404.239 L 121.199 405.317 L 121.465 406.389 L 121.758 407.454 L 122.076 408.511 L 122.421 409.561 L 122.791 410.601 L 123.187 411.632 L 123.607 412.653 L 124.053 413.664 L 124.523 414.663 L 125.018 415.651 L 125.537 416.626 L 126.080 417.588 L 126.646 418.536 L 127.235 419.470 L 127.847 420.390 L 128.481 421.294 L 244.549 582.500 L 128.481 743.706 L 127.847 744.610 L 127.235 745.530 L 126.646 746.464 L 126.080 747.412 L 125.537 748.374 L 125.018 749.349 L 124.523 750.337 L 124.053 751.336 L 123.607 752.347 L 123.187 753.368 L 122.791 754.399 L 122.421 755.439 L 122.076 756.489 L 121.758 757.546 L 121.465 758.611 L 121.199 759.683 L 120.959 760.761 L 120.745 761.845 L 120.558 762.933 L 120.398 764.026 L 120.265 765.122 L 120.159 766.222 L 120.080 767.323 L 120.028 768.426 L 120.002 769.531 L 120.004 770.635 L 120.034 771.739 L 120.090 772.842 L 120.173 773.943 L 120.283 775.042 L 120.421 776.138 L 120.585 777.230 L 120.775 778.318 L 120.993 779.401 L 121.237 780.478 L 121.507 781.549 L 121.804 782.613 L 122.126 783.669 L 122.475 784.717 L 122.849 785.756 L 123.248 786.786 L 123.673 787.806 L 124.122 788.815 L 124.596 789.812 L 125.094 790.798 L 125.617 791.771 L 126.163 792.731 L 126.733 793.677 L 127.325 794.609 L 127.940 795.526 L 128.578 796.428 L 129.238 797.314 L 129.919 798.183 L 130.621 799.036 L 131.344 799.871 L 132.087 800.688 L 132.850 801.486 L 133.632 802.266 L 134.434 803.026 L 135.253 803.766 L 136.091 804.486 L 136.946 805.185 L 137.818 805.863 L 138.706 806.519 L 139.610 807.153 L 140.530 807.765 L 141.464 808.354 L 142.412 808.920 L 143.374 809.463 L 144.349 809.982 L 145.337 810.477 L 146.336 810.947 L 147.347 811.393 L 148.368 811.813 L 149.399 812.209 L 150.439 812.579 L 151.489 812.924 L 152.546 813.242 L 153.611 813.535 L 154.683 813.801 L 155.761 814.041 L 156.845 814.255 L 157.933 814.442 L 159.026 814.602 L 160.122 814.735 L 161.222 814.841 L 162.323 814.920 L 163.426 814.972 L 164.531 814.998 L 165.635 814.996 L 166.739 814.966 L 167.842 814.910 L 168.943 814.827 L 170.042 814.717 L 171.138 814.579 L 172.230 814.415 L 173.318 814.225 L 174.401 814.007 L 175.478 813.763 L 176.549 813.493 L 177.613 813.196 L 178.669 812.874 L 179.717 812.525 L 180.756 812.151 L 181.786 811.752 L 182.806 811.327 L 183.815 810.878 L 184.812 810.404 L 185.798 809.906 L 186.771 809.383 L 187.731 808.837 L 188.677 808.267 L 189.609 807.675 L 190.526 807.060 L 191.428 806.422 L 192.314 805.762 L 193.183 805.081 L 194.036 804.379 L 194.871 803.656 L 195.688 802.913 L 196.486 802.150 L 197.266 801.368 L 198.026 800.566 L 198.766 799.747 L 199.486 798.909 L 200.185 798.054 L 200.863 797.182 L 201.519 796.294 L 300.000 659.515 L 398.481 796.294 L 399.137 797.182 Z" fill="black" fill-rule="evenodd"/>
</svg>
