<svg xmlns="http://www.w3.org/2000/svg" viewBox="0 0 600.000 1000">
  <path d="M 564.998 519.596 L 564.941 513.216 L 564.926 512.409 L 564.755 506.032 L 564.726 505.224 L 564.440 498.855 L 564.396 498.047 L 563.996 491.689 L 563.938 490.881 L 563.424 484.538 L 563.351 483.729 L 562.724 477.406 L 562.636 476.595 L 561.895 470.295 L 561.792 469.483 L 560.938 463.210 L 560.820 462.397 L 559.854 456.154 L 559.721 455.339 L 558.643 449.131 L 558.494 448.314 L 557.305 442.144 L 557.140 441.326 L 555.841 435.197 L 555.659 434.377 L 554.251 428.293 L 554.052 427.471 L 552.535 421.437 L 552.320 420.613 L 550.695 414.631 L 550.462 413.804 L 548.730 407.879 L 548.479 407.050 L 546.642 401.185 L 546.373 400.354 L 544.431 394.552 L 544.143 393.718 L 542.097 387.984 L 541.790 387.148 L 539.642 381.483 L 539.315 380.645 L 537.066 375.054 L 536.718 374.213 L 534.370 368.700 L 534.000 367.857 L 531.554 362.424 L 531.163 361.579 L 528.620 356.230 L 528.206 355.383 L 525.568 350.121 L 525.132 349.273 L 522.400 344.101 L 521.939 343.251 L 519.115 338.172 L 518.630 337.321 L 515.716 332.339 L 515.205 331.487 L 512.203 326.604 L 511.666 325.752 L 508.577 320.972 L 508.012 320.120 L 504.839 315.445 L 504.246 314.594 L 500.990 310.027 L 500.369 309.177 L 497.031 304.720 L 496.381 303.873 L 492.964 299.530 L 492.283 298.686 L 488.790 294.459 L 488.078 293.618 L 484.510 289.510 L 483.766 288.675 L 480.125 284.687 L 479.349 283.858 L 475.638 279.994 L 474.828 279.172 L 471.048 275.434 L 470.204 274.621 L 466.359 271.011 L 465.480 270.207 L 461.572 266.727 L 460.658 265.936 L 456.688 262.588 L 455.738 261.809 L 451.709 258.596 L 450.724 257.832 L 446.638 254.755 L 445.617 254.008 L 441.477 251.069 L 440.419 250.340 L 436.229 247.542 L 435.134 246.833 L 430.895 244.176 L 429.764 243.491 L 425.478 240.976 L 424.313 240.316 L 419.983 237.946 L 418.782 237.312 L 414.411 235.089 L 413.176 234.485 L 408.766 232.409 L 407.498 231.835 L 403.053 229.908 L 401.752 229.369 L 397.274 227.591 L 395.943 227.087 L 391.434 225.461 L 390.074 224.995 L 385.537 223.521 L 384.151 223.095 L 379.589 221.773 L 378.177 221.389 L 373.593 220.221 L 372.159 219.880 L 367.555 218.867 L 366.101 218.572 L 361.481 217.713 L 360.010 217.465 L 355.375 216.761 L 353.890 216.561 L 349.244 216.014 L 347.747 215.863 L 343.093 215.471 L 341.588 215.370 L 336.928 215.135 L 335.418 215.085 L 330.756 215.006 L 329.244 215.006 L 324.582 215.085 L 323.072 215.135 L 318.412 215.370 L 316.907 215.471 L 312.253 215.863 L 310.756 216.014 L 306.110 216.561 L 304.625 216.761 L 299.990 217.465 L 298.519 217.713 L 293.899 218.572 L 292.445 218.867 L 287.841 219.880 L 286.407 220.221 L 281.823 221.389 L 280.411 221.773 L 275.849 223.095 L 274.463 223.521 L 269.926 224.995 L 268.566 225.461 L 264.057 227.087 L 262.726 227.591 L 258.248 229.369 L 256.947 229.908 L 252.502 231.835 L 251.234 232.409 L 246.824 234.485 L 245.589 235.089 L 241.218 237.312 L 240.017 237.946 L 235.687 240.316 L 234.522 240.976 L 230.236 243.491 L 229.105 244.176 L 224.866 246.833 L 223.771 247.542 L 219.581 250.340 L 218.523 251.069 L 214.383 254.008 L 213.362 254.755 L 209.276 257.832 L 208.291 258.596 L 205.000 261.221 L 205.000 260.000 L 204.986 258.896 L 204.946 257.792 L 204.878 256.690 L 204.783 255.589 L 204.662 254.492 L 204.513 253.397 L 204.337 252.307 L 204.135 251.221 L 203.907 250.140 L 203.651 249.066 L 203.370 247.998 L 203.062 246.937 L 202.729 245.884 L 202.369 244.840 L 201.985 243.805 L 201.575 242.779 L 201.139 241.764 L 200.680 240.760 L 200.195 239.767 L 199.686 238.787 L 199.154 237.820 L 198.598 236.865 L 198.018 235.925 L 197.416 234.999 L 196.791 234.089 L 196.144 233.194 L 195.476 232.315 L 194.785 231.452 L 194.074 230.607 L 193.343 229.780 L 192.591 228.971 L 191.820 228.180 L 191.029 227.409 L 190.220 226.657 L 189.393 225.926 L 188.548 225.215 L 187.685 224.524 L 186.806 223.856 L 185.911 223.209 L 185.001 222.584 L 184.075 221.982 L 183.135 221.402 L 182.180 220.846 L 181.213 220.314 L 180.233 219.805 L 179.240 219.320 L 178.236 218.861 L 177.221 218.425 L 176.195 218.015 L 175.160 217.631 L 174.116 217.271 L 173.063 216.938 L 172.002 216.630 L 170.934 216.349 L 169.860 216.093 L 168.779 215.865 L 167.693 215.663 L 166.603 215.487 L 165.508 215.338 L 164.411 215.217 L 163.310 215.122 L 162.208 215.054 L 161.104 215.014 L 160.000 215.000 L 158.896 215.014 L 157.792 215.054 L 156.690 215.122 L 155.589 215.217 L 154.492 215.338 L 153.397 215.487 L 152.307 215.663 L 151.221 215.865 L 150.140 216.093 L 149.066 216.349 L 147.998 216.630 L 146.937 216.938 L 145.884 217.271 L 144.840 217.631 L 143.805 218.015 L 142.779 218.425 L 141.764 218.861 L 140.760 219.320 L 139.767 219.805 L 138.787 220.314 L 137.820 220.846 L 136.865 221.402 L 135.925 221.982 L 134.999 222.584 L 134.089 223.209 L 133.194 223.856 L 132.315 224.524 L 131.452 225.215 L 130.607 225.926 L 129.780 226.657 L 128.971 227.409 L 128.180 228.180 L 127.409 228.971 L 126.657 229.780 L 125.926 230.607 L 125.215 231.452 L 124.524 232.315 L 123.856 233.194 L 123.209 234.089 L 122.584 234.999 L 121.982 235.925 L 121.402 236.865 L 120.846 237.820 L 120.314 238.787 L 119.805 239.767 L 119.320 240.760 L 118.861 241.764 L 118.425 242.779 L 118.015 243.805 L 117.631 244.840 L 117.271 245.884 L 116.938 246.937 L 116.630 247.998 L 116.349 249.066 L 116.093 250.140 L 115.865 251.221 L 115.663 252.307 L 115.487 253.397 L 115.338 254.492 L 115.217 255.589 L 115.122 256.690 L 115.054 257.792 L 115.014 258.896 L 115.000 260.000 L 115.000 396.252 L 113.627 400.354 L 113.358 401.185 L 111.521 407.050 L 111.270 407.879 L 109.538 413.804 L 109.305 414.631 L 107.680 420.613 L 107.465 421.437 L 105.948 427.471 L 105.749 428.293 L 104.341 434.377 L 104.159 435.197 L 102.860 441.326 L 102.695 442.144 L 101.506 448.314 L 101.357 449.131 L 100.279 455.339 L 100.146 456.154 L 99.180 462.397 L 99.062 463.210 L 98.208 469.483 L 98.105 470.295 L 97.364 476.595 L 97.276 477.406 L 96.649 483.729 L 96.576 484.538 L 96.062 490.881 L 96.004 491.689 L 95.604 498.047 L 95.560 498.855 L 95.274 505.224 L 95.245 506.032 L 95.074 512.409 L 95.059 513.216 L 95.002 519.596 L 95.002 520.404 L 95.059 526.784 L 95.074 527.591 L 95.245 533.968 L 95.274 534.776 L 95.560 541.145 L 95.604 541.953 L 96.004 548.311 L 96.062 549.119 L 96.576 555.462 L 96.649 556.271 L 97.276 562.594 L 97.364 563.405 L 98.105 569.705 L 98.208 570.517 L 99.062 576.790 L 99.180 577.603 L 100.146 583.846 L 100.279 584.661 L 101.357 590.869 L 101.506 591.686 L 102.695 597.856 L 102.860 598.674 L 104.159 604.803 L 104.341 605.623 L 105.749 611.707 L 105.948 612.529 L 107.465 618.563 L 107.680 619.387 L 109.305 625.369 L 109.538 626.196 L 111.270 632.121 L 111.521 632.950 L 113.358 638.815 L 113.627 639.646 L 115.000 643.748 L 115.000 1000.000 L 115.014 1001.104 L 115.054 1002.208 L 115.122 1003.310 L 115.217 1004.411 L 115.338 1005.508 L 115.487 1006.603 L 115.663 1007.693 L 115.865 1008.779 L 116.093 1009.860 L 116.349 1010.934 L 116.630 1012.002 L 116.938 1013.063 L 117.271 1014.116 L 117.631 1015.160 L 118.015 1016.195 L 118.425 1017.221 L 118.861 1018.236 L 119.320 1019.240 L 119.805 1020.233 L 120.314 1021.213 L 120.846 1022.180 L 121.402 1023.135 L 121.982 1024.075 L 122.584 1025.001 L 123.209 1025.911 L 123.856 1026.806 L 124.524 1027.685 L 125.215 1028.548 L 125.926 1029.393 L 126.657 1030.220 L 127.409 1031.029 L 128.180 1031.820 L 128.971 1032.591 L 129.780 1033.343 L 130.607 1034.074 L 131.452 1034.785 L 132.315 1035.476 L 133.194 1036.144 L 134.089 1036.791 L 134.999 1037.416 L 135.925 1038.018 L 136.865 1038.598 L 137.820 1039.154 L 138.787 1039.686 L 139.767 1040.195 L 140.760 1040.680 L 141.764 1041.139 L 142.779 1041.575 L 143.805 1041.985 L 144.840 1042.369 L 145.884 1042.729 L 146.937 1043.062 L 147.998 1043.370 L 149.066 1043.651 L 150.140 1043.907 L 151.221 1044.135 L 152.307 1044.337 L 153.397 1044.513 L 154.492 1044.662 L 155.589 1044.783 L 156.690 1044.878 L 157.792 1044.946 L 158.896 1044.986 L 160.000 1045.000 L 161.104 1044.986 L 162.208 1044.946 L 163.310 1044.878 L 164.411 1044.783 L 165.508 1044.662 L 166.603 1044.513 L 167.693 1044.337 L 168.779 1044.135 L 169.860 1043.907 L 170.934 1043.651 L 172.002 1043.370 L 173.063 1043.062 L 174.116 1042.729 L 175.160 1042.369 L 176.195 1041.985 L 177.221 1041.575 L 178.236 1041.139 L 179.240 1040.680 L 180.233 1040.195 L 181.213 1039.686 L 182.180 1039.154 L 183.135 1038.598 L 184.075 1038.018 L 185.001 1037.416 L 185.911 1036.791 L 186.806 1036.144 L 187.685 1035.476 L 188.548 1034.785 L 189.393 1034.074 L 190.220 1033.343 L 191.029 1032.591 L 191.820 1031.820 L 192.591 1031.029 L 193.343 1030.220 L 194.074 1029.393 L 194.785 1028.548 L 195.476 1027.685 L 196.144 1026.806 L 196.791 1025.911 L 197.416 1025.001 L 198.018 1024.075 L 198.598 1023.135 L 199.154 1022.180 L 199.686 1021.213 L 200.195 1020.233 L 200.680 1019.240 L 201.139 1018.236 L 201.575 1017.221 L 201.985 1016.195 L 202.369 1015.160 L 202.729 1014.116 L 203.062 1013.063 L 203.370 1012.002 L 203.651 1010.934 L 203.907 1009.860 L 204.135 1008.779 L 204.337 1007.693 L 204.513 1006.603 L 204.662 1005.508 L 204.783 1004.411 L 204.878 1003.310 L 204.946 1002.208 L 204.986 1001.104 L 205.000 1000.000 L 205.000 778.779 L 208.291 781.404 L 209.276 782.168 L 213.362 785.245 L 214.383 785.992 L 218.523 788.931 L 219.581 789.660 L 223.771 792.458 L 224.866 793.167 L 229.105 795.824 L 230.236 796.509 L 234.522 799.024 L 235.687 799.684 L 240.017 802.054 L 241.218 802.688 L 245.589 804.911 L 246.824 805.515 L 251.234 807.591 L 252.502 808.165 L 256.947 810.092 L 258.248 810.631 L 262.726 812.409 L 264.057 812.913 L 268.566 814.539 L 269.926 815.005 L 274.463 816.479 L 275.849 816.905 L 280.411 818.227 L 281.823 818.611 L 286.407 819.779 L 287.841 820.120 L 292.445 821.133 L 293.899 821.428 L 298.519 822.287 L 299.990 822.535 L 304.625 823.239 L 306.110 823.439 L 310.756 823.986 L 312.253 824.137 L 316.907 824.529 L 318.412 824.630 L 323.072 824.865 L 324.582 824.915 L 329.244 824.994 L 330.756 824.994 L 335.418 824.915 L 336.928 824.865 L 341.588 824.630 L 343.093 824.529 L 347.747 824.137 L 349.244 823.986 L 353.890 823.439 L 355.375 823.239 L 360.010 822.535 L 361.481 822.287 L 366.101 821.428 L 367.555 821.133 L 372.159 820.120 L 373.593 819.779 L 378.177 818.611 L 379.589 818.227 L 384.151 816.905 L 385.537 816.479 L 390.074 815.005 L 391.434 814.539 L 395.943 812.913 L 397.274 812.409 L 401.752 810.631 L 403.053 810.092 L 407.498 808.165 L 408.766 807.591 L 413.176 805.515 L 414.411 804.911 L 418.782 802.688 L 419.983 802.054 L 424.313 799.684 L 425.478 799.024 L 429.764 796.509 L 430.895 795.824 L 435.134 793.167 L 436.229 792.458 L 440.419 789.660 L 441.477 788.931 L 445.617 785.992 L 446.638 785.245 L 450.724 782.168 L 451.709 781.404 L 455.738 778.191 L 456.688 777.412 L 460.658 774.064 L 461.572 773.273 L 465.480 769.793 L 466.359 768.989 L 470.204 765.379 L 471.048 764.566 L 474.828 760.828 L 475.638 760.006 L 479.349 756.142 L 480.125 755.313 L 483.766 751.325 L 484.510 750.490 L 488.078 746.382 L 488.790 745.541 L 492.283 741.314 L 492.964 740.470 L 496.381 736.127 L 497.031 735.280 L 500.369 730.823 L 500.990 729.973 L 504.246 725.406 L 504.839 724.555 L 508.012 719.880 L 508.577 719.028 L 511.666 714.248 L 512.203 713.396 L 515.205 708.513 L 515.716 707.661 L 518.630 702.679 L 519.115 701.828 L 521.939 696.749 L 522.400 695.899 L 525.132 690.727 L 525.568 689.879 L 528.206 684.617 L 528.620 683.770 L 531.163 678.421 L 531.554 677.576 L 534.000 672.143 L 534.370 671.300 L 536.718 665.787 L 537.066 664.946 L 539.315 659.355 L 539.642 658.517 L 541.790 652.852 L 542.097 652.016 L 544.143 646.282 L 544.431 645.448 L 546.373 639.646 L 546.642 638.815 L 548.479 632.950 L 548.730 632.121 L 550.462 626.196 L 550.695 625.369 L 552.320 619.387 L 552.535 618.563 L 554.052 612.529 L 554.251 611.707 L 555.659 605.623 L 555.841 604.803 L 557.140 598.674 L 557.305 597.856 L 558.494 591.686 L 558.643 590.869 L 559.721 584.661 L 559.854 583.846 L 560.820 577.603 L 560.938 576.790 L 561.792 570.517 L 561.895 569.705 L 562.636 563.405 L 562.724 562.594 L 563.351 556.271 L 563.424 555.462 L 563.938 549.119 L 563.996 548.311 L 564.396 541.953 L 564.440 541.145 L 564.726 534.776 L 564.755 533.968 L 564.926 527.591 L 564.941 526.784 L 564.998 520.404 L 564.998 519.596 Z M 474.948 525.573 L 474.798 531.143 L 474.549 536.704 L 474.199 542.254 L 473.751 547.787 L 473.204 553.300 L 472.558 558.789 L 471.815 564.250 L 470.976 569.678 L 470.040 575.071 L 469.009 580.424 L 467.883 585.734 L 466.665 590.996 L 465.355 596.206 L 463.955 601.362 L 462.465 606.459 L 460.888 611.494 L 459.225 616.463 L 457.478 621.362 L 455.648 626.189 L 453.737 630.939 L 451.747 635.610 L 449.681 640.199 L 447.541 644.701 L 445.328 649.115 L 443.045 653.437 L 440.694 657.665 L 438.279 661.795 L 435.800 665.825 L 433.262 669.753 L 430.667 673.577 L 428.016 677.294 L 425.314 680.901 L 422.563 684.398 L 419.766 687.783 L 416.926 691.053 L 414.046 694.208 L 411.128 697.246 L 408.175 700.166 L 405.192 702.967 L 402.179 705.649 L 399.141 708.211 L 396.080 710.653 L 392.998 712.973 L 389.899 715.174 L 386.784 717.254 L 383.657 719.214 L 380.519 721.055 L 377.373 722.777 L 374.220 724.380 L 371.062 725.867 L 367.901 727.237 L 364.738 728.492 L 361.575 729.633 L 358.411 730.662 L 355.248 731.578 L 352.087 732.383 L 348.927 733.079 L 345.769 733.666 L 342.613 734.145 L 339.458 734.517 L 336.304 734.782 L 333.152 734.941 L 330.000 734.994 L 326.848 734.941 L 323.696 734.782 L 320.542 734.517 L 317.387 734.145 L 314.231 733.666 L 311.073 733.079 L 307.913 732.383 L 304.752 731.578 L 301.589 730.662 L 298.425 729.633 L 295.262 728.492 L 292.099 727.237 L 288.938 725.867 L 285.780 724.380 L 282.627 722.777 L 279.481 721.055 L 276.343 719.214 L 273.216 717.254 L 270.101 715.174 L 267.002 712.973 L 263.920 710.653 L 260.859 708.211 L 257.821 705.649 L 254.808 702.967 L 251.825 700.166 L 248.872 697.246 L 245.954 694.208 L 243.074 691.053 L 240.234 687.783 L 237.437 684.398 L 234.686 680.901 L 231.984 677.294 L 229.333 673.577 L 226.738 669.753 L 224.200 665.825 L 221.721 661.795 L 219.306 657.665 L 216.955 653.437 L 214.672 649.115 L 212.459 644.701 L 210.319 640.199 L 208.253 635.610 L 206.263 630.939 L 205.000 627.799 L 205.000 412.201 L 206.263 409.061 L 208.253 404.390 L 210.319 399.801 L 212.459 395.299 L 214.672 390.885 L 216.955 386.563 L 219.306 382.335 L 221.721 378.205 L 224.200 374.175 L 226.738 370.247 L 229.333 366.423 L 231.984 362.706 L 234.686 359.099 L 237.437 355.602 L 240.234 352.217 L 243.074 348.947 L 245.954 345.792 L 248.872 342.754 L 251.825 339.834 L 254.808 337.033 L 257.821 334.351 L 260.859 331.789 L 263.920 329.347 L 267.002 327.027 L 270.101 324.826 L 273.216 322.746 L 276.343 320.786 L 279.481 318.945 L 282.627 317.223 L 285.780 315.620 L 288.938 314.133 L 292.099 312.763 L 295.262 311.508 L 298.425 310.367 L 301.589 309.338 L 304.752 308.422 L 307.913 307.617 L 311.073 306.921 L 314.231 306.334 L 317.387 305.855 L 320.542 305.483 L 323.696 305.218 L 326.848 305.059 L 330.000 305.006 L 333.152 305.059 L 336.304 305.218 L 339.458 305.483 L 342.613 305.855 L 345.769 306.334 L 348.927 306.921 L 352.087 307.617 L 355.248 308.422 L 358.411 309.338 L 361.575 310.367 L 364.738 311.508 L 367.901 312.763 L 371.062 314.133 L 374.220 315.620 L 377.373 317.223 L 380.519 318.945 L 383.657 320.786 L 386.784 322.746 L 389.899 324.826 L 392.998 327.027 L 396.080 329.347 L 399.141 331.789 L 402.179 334.351 L 405.192 337.033 L 408.175 339.834 L 411.128 342.754 L 414.046 345.792 L 416.926 348.947 L 419.766 352.217 L 422.563 355.602 L 425.314 359.099 L 428.016 362.706 L 430.667 366.423 L 433.262 370.247 L 435.800 374.175 L 438.279 378.205 L 440.694 382.335 L 443.045 386.563 L 445.328 390.885 L 447.541 395.299 L 449.681 399.801 L 451.747 404.390 L 453.737 409.061 L 455.648 413.811 L 457.478 418.638 L 459.225 423.537 L 460.888 428.506 L 462.465 433.541 L 463.955 438.638 L 465.355 443.794 L 466.665 449.004 L 467.883 454.266 L 469.009 459.576 L 470.040 464.929 L 470.976 470.322 L 471.815 475.750 L 472.558 481.211 L 473.204 486.700 L 473.751 492.213 L 474.199 497.746 L 474.549 503.296 L 474.798 508.857 L 474.948 514.427 L 474.998 520.000 L 474.948 525.573 Z" fill="black" fill-rule="evenodd"/>
</svg>
