<svg xmlns="http://www.w3.org/2000/svg" width="600.000" height="1000" viewBox="0 0 600.000 1000">
  <path d="M 115.000 780.000 L 115.003 780.474 L 115.034 783.426 L 115.054 784.375 L 115.147 787.325 L 115.187 788.273 L 115.342 791.221 L 115.402 792.167 L 115.620 795.111 L 115.700 796.057 L 115.980 798.995 L 116.079 799.939 L 116.421 802.871 L 116.541 803.812 L 116.944 806.736 L 117.084 807.674 L 117.548 810.589 L 117.708 811.525 L 118.234 814.429 L 118.413 815.361 L 119.000 818.254 L 119.199 819.181 L 119.847 822.061 L 120.065 822.984 L 120.774 825.850 L 121.011 826.768 L 121.780 829.618 L 122.037 830.532 L 122.866 833.365 L 123.142 834.272 L 124.030 837.087 L 124.325 837.989 L 125.273 840.785 L 125.587 841.680 L 126.593 844.455 L 126.926 845.343 L 127.991 848.096 L 128.342 848.978 L 129.465 851.708 L 129.835 852.581 L 131.014 855.287 L 131.403 856.153 L 132.639 858.833 L 133.046 859.691 L 134.338 862.344 L 134.763 863.193 L 136.111 865.818 L 136.554 866.658 L 137.957 869.255 L 138.417 870.085 L 139.875 872.651 L 140.352 873.471 L 141.864 876.006 L 142.358 876.816 L 143.923 879.319 L 144.434 880.118 L 146.052 882.588 L 146.580 883.376 L 148.249 885.811 L 148.793 886.587 L 150.513 888.986 L 151.074 889.752 L 152.844 892.114 L 153.421 892.867 L 155.241 895.191 L 155.833 895.932 L 157.701 898.218 L 158.310 898.946 L 160.225 901.191 L 160.849 901.907 L 162.812 904.111 L 163.450 904.813 L 165.459 906.976 L 166.112 907.664 L 168.166 909.784 L 168.833 910.459 L 170.931 912.535 L 171.613 913.195 L 173.754 915.227 L 174.449 915.872 L 176.633 917.858 L 177.342 918.489 L 179.567 920.429 L 180.289 921.044 L 182.554 922.936 L 183.289 923.537 L 185.594 925.381 L 186.341 925.966 L 188.685 927.761 L 189.444 928.329 L 191.825 930.075 L 192.596 930.627 L 195.013 932.322 L 195.795 932.858 L 198.247 934.501 L 199.041 935.021 L 201.527 936.612 L 202.332 937.115 L 204.851 938.654 L 205.666 939.140 L 208.217 940.624 L 209.042 941.093 L 211.624 942.524 L 212.459 942.975 L 215.070 944.351 L 215.914 944.784 L 218.554 946.105 L 219.407 946.520 L 222.074 947.785 L 222.935 948.183 L 225.629 949.391 L 226.498 949.770 L 229.216 950.921 L 230.094 951.282 L 232.836 952.375 L 233.721 952.718 L 236.485 953.753 L 237.377 954.077 L 240.162 955.054 L 241.061 955.358 L 243.866 956.276 L 244.771 956.562 L 247.595 957.420 L 248.506 957.687 L 251.347 958.486 L 252.263 958.733 L 255.121 959.472 L 256.042 959.700 L 258.915 960.378 L 259.840 960.587 L 262.727 961.204 L 263.657 961.393 L 266.555 961.950 L 267.489 962.119 L 270.399 962.615 L 271.336 962.764 L 274.256 963.198 L 275.195 963.328 L 278.124 963.700 L 279.066 963.810 L 282.001 964.120 L 282.946 964.210 L 285.887 964.459 L 286.833 964.529 L 289.779 964.716 L 290.727 964.766 L 293.676 964.890 L 294.624 964.920 L 297.575 964.982 L 298.524 964.992 L 301.476 964.992 L 302.425 964.982 L 305.376 964.920 L 306.324 964.890 L 309.273 964.766 L 310.221 964.716 L 313.167 964.529 L 314.113 964.459 L 317.054 964.210 L 317.999 964.120 L 320.934 963.810 L 321.876 963.700 L 324.805 963.328 L 325.744 963.198 L 328.664 962.764 L 329.601 962.615 L 332.511 962.119 L 333.445 961.950 L 336.343 961.393 L 337.273 961.204 L 340.160 960.587 L 341.085 960.378 L 343.958 959.700 L 344.879 959.472 L 347.737 958.733 L 348.653 958.486 L 351.494 957.687 L 352.405 957.420 L 355.229 956.562 L 356.134 956.276 L 358.939 955.358 L 359.838 955.054 L 362.623 954.077 L 363.515 953.753 L 366.279 952.718 L 367.164 952.375 L 369.906 951.282 L 370.784 950.921 L 373.502 949.770 L 374.371 949.391 L 377.065 948.183 L 377.926 947.785 L 380.593 946.520 L 381.446 946.105 L 384.086 944.784 L 384.930 944.351 L 387.541 942.975 L 388.376 942.524 L 390.958 941.093 L 391.783 940.624 L 394.334 939.140 L 395.149 938.654 L 397.668 937.115 L 398.473 936.612 L 400.959 935.021 L 401.753 934.501 L 404.205 932.858 L 404.987 932.322 L 407.404 930.627 L 408.175 930.075 L 410.556 928.329 L 411.315 927.761 L 413.659 925.966 L 414.406 925.381 L 416.711 923.537 L 417.446 922.936 L 419.711 921.044 L 420.433 920.429 L 422.658 918.489 L 423.367 917.858 L 425.551 915.872 L 426.246 915.227 L 428.387 913.195 L 429.069 912.535 L 431.167 910.459 L 431.834 909.784 L 433.888 907.664 L 434.541 906.976 L 436.550 904.813 L 437.188 904.111 L 439.151 901.907 L 439.775 901.191 L 441.690 898.946 L 442.299 898.218 L 444.167 895.932 L 444.759 895.191 L 446.579 892.867 L 447.156 892.114 L 448.926 889.752 L 449.487 888.986 L 451.207 886.587 L 451.751 885.811 L 453.420 883.376 L 453.948 882.588 L 455.566 880.118 L 456.077 879.319 L 457.642 876.816 L 458.136 876.006 L 459.648 873.471 L 460.125 872.651 L 461.583 870.085 L 462.043 869.255 L 463.446 866.658 L 463.889 865.818 L 465.237 863.193 L 465.662 862.344 L 466.954 859.691 L 467.361 858.833 L 468.597 856.153 L 468.986 855.287 L 470.165 852.581 L 470.535 851.708 L 471.658 848.978 L 472.009 848.096 L 473.074 845.343 L 473.407 844.455 L 474.413 841.680 L 474.727 840.785 L 475.675 837.989 L 475.970 837.087 L 476.858 834.272 L 477.134 833.365 L 477.963 830.532 L 478.220 829.618 L 478.989 826.768 L 479.226 825.850 L 479.935 822.984 L 480.153 822.061 L 480.801 819.181 L 481.000 818.254 L 481.587 815.361 L 481.766 814.429 L 482.292 811.525 L 482.452 810.589 L 482.916 807.674 L 483.056 806.736 L 483.459 803.812 L 483.579 802.871 L 483.921 799.939 L 484.020 798.995 L 484.300 796.057 L 484.380 795.111 L 484.598 792.167 L 484.658 791.221 L 484.813 788.273 L 484.853 787.325 L 484.946 784.375 L 484.966 783.426 L 484.997 780.474 L 485.000 780.000 L 485.000 395.000 L 484.986 393.896 L 484.946 392.792 L 484.878 391.690 L 484.783 390.589 L 484.662 389.492 L 484.513 388.397 L 484.337 387.307 L 484.135 386.221 L 483.907 385.140 L 483.651 384.066 L 483.370 382.998 L 483.062 381.937 L 482.729 380.884 L 482.369 379.840 L 481.985 378.805 L 481.575 377.779 L 481.139 376.764 L 480.680 375.760 L 480.195 374.767 L 479.686 373.787 L 479.154 372.820 L 478.598 371.865 L 478.018 370.925 L 477.416 369.999 L 476.791 369.089 L 476.144 368.194 L 475.476 367.315 L 474.785 366.452 L 474.074 365.607 L 473.343 364.780 L 472.591 363.971 L 471.820 363.180 L 471.029 362.409 L 470.220 361.657 L 469.393 360.926 L 468.548 360.215 L 467.685 359.524 L 466.806 358.856 L 465.911 358.209 L 465.001 357.584 L 464.075 356.982 L 463.135 356.402 L 462.180 355.846 L 461.213 355.314 L 460.233 354.805 L 459.240 354.320 L 458.236 353.861 L 457.221 353.425 L 456.195 353.015 L 455.160 352.631 L 454.116 352.271 L 453.063 351.938 L 452.002 351.630 L 450.934 351.349 L 449.860 351.093 L 448.779 350.865 L 447.693 350.663 L 446.603 350.487 L 445.508 350.338 L 444.411 350.217 L 443.310 350.122 L 442.208 350.054 L 441.104 350.014 L 440.000 350.000 L 438.896 350.014 L 437.792 350.054 L 436.690 350.122 L 435.589 350.217 L 434.492 350.338 L 433.397 350.487 L 432.307 350.663 L 431.221 350.865 L 430.140 351.093 L 429.066 351.349 L 427.998 351.630 L 426.937 351.938 L 425.884 352.271 L 424.840 352.631 L 423.805 353.015 L 422.779 353.425 L 421.764 353.861 L 420.760 354.320 L 419.767 354.805 L 418.787 355.314 L 417.820 355.846 L 416.865 356.402 L 415.925 356.982 L 414.999 357.584 L 414.089 358.209 L 413.194 358.856 L 412.315 359.524 L 411.452 360.215 L 410.607 360.926 L 409.780 361.657 L 408.971 362.409 L 408.180 363.180 L 407.409 363.971 L 406.657 364.780 L 405.926 365.607 L 405.215 366.452 L 404.524 367.315 L 403.856 368.194 L 403.209 369.089 L 402.584 369.999 L 401.982 370.925 L 401.402 371.865 L 400.846 372.820 L 400.314 373.787 L 399.805 374.767 L 399.320 375.760 L 398.861 376.764 L 398.425 377.779 L 398.015 378.805 L 397.631 379.840 L 397.271 380.884 L 396.938 381.937 L 396.630 382.998 L 396.349 384.066 L 396.093 385.140 L 395.865 386.221 L 395.663 387.307 L 395.487 388.397 L 395.338 389.492 L 395.217 390.589 L 395.122 391.690 L 395.054 392.792 L 395.014 393.896 L 395.000 395.000 L 395.000 779.763 L 394.976 782.003 L 394.913 784.005 L 394.808 786.005 L 394.660 788.002 L 394.470 789.996 L 394.238 791.986 L 393.965 793.970 L 393.649 795.948 L 393.292 797.919 L 392.894 799.882 L 392.454 801.836 L 391.973 803.780 L 391.451 805.714 L 390.889 807.636 L 390.286 809.546 L 389.643 811.443 L 388.960 813.326 L 388.238 815.194 L 387.476 817.047 L 386.676 818.883 L 385.837 820.702 L 384.959 822.502 L 384.044 824.284 L 383.092 826.046 L 382.103 827.788 L 381.077 829.508 L 380.015 831.206 L 378.918 832.882 L 377.785 834.534 L 376.618 836.162 L 375.417 837.765 L 374.183 839.342 L 372.915 840.893 L 371.615 842.416 L 370.283 843.912 L 368.920 845.380 L 367.527 846.818 L 366.103 848.227 L 364.650 849.606 L 363.168 850.953 L 361.658 852.269 L 360.121 853.553 L 358.556 854.804 L 356.966 856.022 L 355.351 857.206 L 353.711 858.356 L 352.047 859.471 L 350.360 860.551 L 348.650 861.594 L 346.919 862.602 L 345.167 863.573 L 343.395 864.507 L 341.604 865.403 L 339.794 866.261 L 337.967 867.081 L 336.123 867.862 L 334.262 868.604 L 332.386 869.306 L 330.496 869.969 L 328.593 870.592 L 326.677 871.175 L 324.748 871.717 L 322.809 872.219 L 320.860 872.679 L 318.901 873.098 L 316.934 873.476 L 314.960 873.812 L 312.979 874.107 L 310.992 874.359 L 309.000 874.570 L 307.004 874.739 L 305.005 874.866 L 303.004 874.950 L 301.001 874.992 L 298.999 874.992 L 296.996 874.950 L 294.995 874.866 L 292.996 874.739 L 291.000 874.570 L 289.008 874.359 L 287.021 874.107 L 285.040 873.812 L 283.066 873.476 L 281.099 873.098 L 279.140 872.679 L 277.191 872.219 L 275.252 871.717 L 273.323 871.175 L 271.407 870.592 L 269.504 869.969 L 267.614 869.306 L 265.738 868.604 L 263.877 867.862 L 262.033 867.081 L 260.206 866.261 L 258.396 865.403 L 256.605 864.507 L 254.833 863.573 L 253.081 862.602 L 251.350 861.594 L 249.640 860.551 L 247.953 859.471 L 246.289 858.356 L 244.649 857.206 L 243.034 856.022 L 241.444 854.804 L 239.879 853.553 L 238.342 852.269 L 236.832 850.953 L 235.350 849.606 L 233.897 848.227 L 232.473 846.818 L 231.080 845.380 L 229.717 843.912 L 228.385 842.416 L 227.085 840.893 L 225.817 839.342 L 224.583 837.765 L 223.382 836.162 L 222.215 834.534 L 221.082 832.882 L 219.985 831.206 L 218.923 829.508 L 217.897 827.788 L 216.908 826.046 L 215.956 824.284 L 215.041 822.502 L 214.163 820.702 L 213.324 818.883 L 212.524 817.047 L 211.762 815.194 L 211.040 813.326 L 210.357 811.443 L 209.714 809.546 L 209.111 807.636 L 208.549 805.714 L 208.027 803.780 L 207.546 801.836 L 207.106 799.882 L 206.708 797.919 L 206.351 795.948 L 206.035 793.970 L 205.762 791.986 L 205.530 789.996 L 205.340 788.002 L 205.192 786.005 L 205.087 784.005 L 205.024 782.003 L 205.000 779.763 L 205.000 395.000 L 204.986 393.896 L 204.946 392.792 L 204.878 391.690 L 204.783 390.589 L 204.662 389.492 L 204.513 388.397 L 204.337 387.307 L 204.135 386.221 L 203.907 385.140 L 203.651 384.066 L 203.370 382.998 L 203.062 381.937 L 202.729 380.884 L 202.369 379.840 L 201.985 378.805 L 201.575 377.779 L 201.139 376.764 L 200.680 375.760 L 200.195 374.767 L 199.686 373.787 L 199.154 372.820 L 198.598 371.865 L 198.018 370.925 L 197.416 369.999 L 196.791 369.089 L 196.144 368.194 L 195.476 367.315 L 194.785 366.452 L 194.074 365.607 L 193.343 364.780 L 192.591 363.971 L 191.820 363.180 L 191.029 362.409 L 190.220 361.657 L 189.393 360.926 L 188.548 360.215 L 187.685 359.524 L 186.806 358.856 L 185.911 358.209 L 185.001 357.584 L 184.075 356.982 L 183.135 356.402 L 182.180 355.846 L 181.213 355.314 L 180.233 354.805 L 179.240 354.320 L 178.236 353.861 L 177.221 353.425 L 176.195 353.015 L 175.160 352.631 L 174.116 352.271 L 173.063 351.938 L 172.002 351.630 L 170.934 351.349 L 169.860 351.093 L 168.779 350.865 L 167.693 350.663 L 166.603 350.487 L 165.508 350.338 L 164.411 350.217 L 163.310 350.122 L 162.208 350.054 L 161.104 350.014 L 160.000 350.000 L 158.896 350.014 L 157.792 350.054 L 156.690 350.122 L 155.589 350.217 L 154.492 350.338 L 153.397 350.487 L 152.307 350.663 L 151.221 350.865 L 150.140 351.093 L 149.066 351.349 L 147.998 351.630 L 146.937 351.938 L 145.884 352.271 L 144.840 352.631 L 143.805 353.015 L 142.779 353.425 L 141.764 353.861 L 140.760 354.320 L 139.767 354.805 L 138.787 355.314 L 137.820 355.846 L 136.865 356.402 L 135.925 356.982 L 134.999 357.584 L 134.089 358.209 L 133.194 358.856 L 132.315 359.524 L 131.452 360.215 L 130.607 360.926 L 129.780 361.657 L 128.971 362.409 L 128.180 363.180 L 127.409 363.971 L 126.657 364.780 L 125.926 365.607 L 125.215 366.452 L 124.524 367.315 L 123.856 368.194 L 123.209 369.089 L 122.584 369.999 L 121.982 370.925 L 121.402 371.865 L 120.846 372.820 L 120.314 373.787 L 119.805 374.767 L 119.320 375.760 L 118.861 376.764 L 118.425 377.779 L 118.015 378.805 L 117.631 379.840 L 117.271 380.884 L 116.938 381.937 L 116.630 382.998 L 116.349 384.066 L 116.093 385.140 L 115.865 386.221 L 115.663 387.307 L 115.487 388.397 L 115.338 389.492 L 115.217 390.589 L 115.122 391.690 L 115.054 392.792 L 115.014 393.896 L 115.000 395.000 L 115.000 780.000 Z" fill="black" fill-rule="evenodd"/>
</svg>
