<svg xmlns="http://www.w3.org/2000/svg" viewBox="0 0 600.000 1000">
  <path d="M 205.659 787.674 L 205.861 788.763 L 206.090 789.846 L 206.346 790.923 L 206.628 791.994 L 206.936 793.057 L 207.270 794.113 L 207.630 795.160 L 208.016 796.198 L 208.427 797.225 L 208.864 798.243 L 209.325 799.249 L 209.811 800.244 L 210.321 801.227 L 210.855 802.197 L 211.413 803.153 L 211.994 804.095 L 212.599 805.023 L 213.226 805.935 L 213.875 806.832 L 214.546 807.713 L 215.238 808.577 L 215.952 809.423 L 216.686 810.252 L 217.440 811.062 L 218.214 811.854 L 219.008 812.626 L 219.820 813.379 L 220.650 814.111 L 221.498 814.823 L 222.363 815.514 L 223.245 816.183 L 224.144 816.830 L 225.058 817.455 L 225.987 818.057 L 226.930 818.637 L 227.888 819.192 L 228.858 819.724 L 229.842 820.233 L 230.838 820.716 L 231.845 821.175 L 232.864 821.610 L 233.893 822.019 L 234.931 822.402 L 235.979 822.760 L 237.035 823.092 L 238.099 823.398 L 239.171 823.677 L 240.248 823.931 L 241.332 824.157 L 242.421 824.357 L 243.515 824.530 L 244.612 824.676 L 245.713 824.795 L 246.816 824.887 L 247.921 824.952 L 249.028 824.989 L 250.135 825.000 L 251.242 824.983 L 252.348 824.939 L 253.453 824.867 L 254.556 824.769 L 255.656 824.643 L 256.752 824.491 L 257.845 824.311 L 258.933 824.105 L 260.015 823.871 L 261.091 823.612 L 262.161 823.326 L 263.223 823.013 L 264.277 822.675 L 265.323 822.311 L 266.359 821.921 L 267.385 821.506 L 268.401 821.066 L 269.406 820.601 L 270.399 820.111 L 271.379 819.597 L 272.347 819.059 L 273.301 818.498 L 274.241 817.913 L 275.167 817.305 L 276.077 816.674 L 276.971 816.022 L 277.849 815.347 L 278.710 814.652 L 279.554 813.935 L 280.380 813.197 L 281.187 812.440 L 281.976 811.663 L 282.745 810.867 L 283.495 810.052 L 284.224 809.219 L 284.932 808.368 L 285.620 807.500 L 286.285 806.615 L 286.929 805.715 L 287.551 804.798 L 288.149 803.867 L 288.725 802.921 L 289.277 801.962 L 289.805 800.989 L 290.310 800.003 L 290.790 799.005 L 291.245 797.996 L 291.675 796.976 L 292.080 795.946 L 292.460 794.906 L 292.814 793.856 L 293.141 792.799 L 293.443 791.734 L 293.719 790.661 L 293.968 789.583 L 294.190 788.498 L 307.313 720.258 L 326.547 791.699 L 326.848 792.765 L 327.176 793.823 L 327.529 794.872 L 327.907 795.913 L 328.312 796.944 L 328.741 797.965 L 329.196 798.975 L 329.675 799.973 L 330.179 800.959 L 330.707 801.933 L 331.258 802.893 L 331.834 803.840 L 332.432 804.772 L 333.053 805.689 L 333.696 806.590 L 334.361 807.475 L 335.048 808.344 L 335.756 809.196 L 336.485 810.029 L 337.234 810.845 L 338.003 811.642 L 338.792 812.420 L 339.599 813.178 L 340.425 813.916 L 341.268 814.634 L 342.129 815.330 L 343.007 816.005 L 343.901 816.659 L 344.811 817.290 L 345.737 817.898 L 346.677 818.484 L 347.631 819.046 L 348.598 819.585 L 349.579 820.100 L 350.572 820.590 L 351.577 821.056 L 352.593 821.497 L 353.619 821.913 L 354.655 822.303 L 355.701 822.668 L 356.755 823.007 L 357.818 823.320 L 358.888 823.606 L 359.964 823.867 L 361.047 824.100 L 362.134 824.307 L 363.227 824.487 L 364.324 824.641 L 365.424 824.767 L 366.527 824.866 L 367.632 824.938 L 368.739 824.982 L 369.846 825.000 L 370.954 824.990 L 372.061 824.953 L 373.166 824.888 L 374.270 824.797 L 375.371 824.678 L 376.469 824.533 L 377.563 824.360 L 378.652 824.160 L 379.736 823.934 L 380.814 823.681 L 381.886 823.402 L 382.951 823.096 L 384.007 822.764 L 385.055 822.407 L 386.094 822.023 L 387.124 821.615 L 388.142 821.181 L 389.150 820.722 L 390.147 820.238 L 391.131 819.730 L 392.102 819.198 L 393.060 818.642 L 394.004 818.063 L 394.933 817.461 L 395.848 816.836 L 396.746 816.189 L 397.629 815.520 L 398.495 814.829 L 399.343 814.117 L 400.174 813.385 L 400.986 812.632 L 401.780 811.860 L 402.554 811.068 L 403.309 810.258 L 404.043 809.429 L 404.757 808.582 L 405.450 807.718 L 406.121 806.837 L 406.771 805.940 L 407.398 805.028 L 408.003 804.100 L 408.584 803.157 L 409.142 802.201 L 409.677 801.231 L 410.187 800.248 L 410.673 799.253 L 411.135 798.246 L 411.571 797.228 L 411.983 796.200 L 412.369 795.162 L 412.729 794.115 L 413.063 793.059 L 413.372 791.995 L 413.654 790.924 L 413.909 789.847 L 414.138 788.763 L 414.341 787.674 L 504.341 267.674 L 504.516 266.584 L 504.664 265.489 L 504.785 264.392 L 504.879 263.291 L 504.947 262.189 L 504.987 261.085 L 505.000 259.981 L 504.986 258.876 L 504.945 257.773 L 504.877 256.670 L 504.781 255.570 L 504.659 254.472 L 504.510 253.378 L 504.334 252.288 L 504.132 251.202 L 503.902 250.122 L 503.647 249.047 L 503.365 247.979 L 503.057 246.919 L 502.723 245.866 L 502.363 244.822 L 501.978 243.787 L 501.567 242.762 L 501.132 241.747 L 500.671 240.743 L 500.186 239.750 L 499.677 238.770 L 499.144 237.803 L 498.588 236.849 L 498.008 235.909 L 497.405 234.983 L 496.780 234.073 L 496.133 233.178 L 495.464 232.299 L 494.773 231.437 L 494.062 230.593 L 493.330 229.766 L 492.578 228.957 L 491.806 228.167 L 491.015 227.396 L 490.206 226.644 L 489.378 225.913 L 488.533 225.202 L 487.670 224.513 L 486.791 223.844 L 485.896 223.198 L 484.985 222.573 L 484.059 221.971 L 483.118 221.392 L 482.164 220.837 L 481.196 220.304 L 480.215 219.796 L 479.223 219.312 L 478.218 218.853 L 477.203 218.418 L 476.177 218.008 L 475.142 217.624 L 474.097 217.265 L 473.044 216.932 L 471.984 216.625 L 470.915 216.344 L 469.841 216.089 L 468.760 215.861 L 467.674 215.659 L 466.584 215.484 L 465.489 215.336 L 464.392 215.215 L 463.291 215.121 L 462.189 215.053 L 461.085 215.013 L 459.981 215.000 L 458.876 215.014 L 457.773 215.055 L 456.670 215.123 L 455.570 215.219 L 454.472 215.341 L 453.378 215.490 L 452.288 215.666 L 451.202 215.868 L 450.122 216.098 L 449.047 216.353 L 447.979 216.635 L 446.919 216.943 L 445.866 217.277 L 444.822 217.637 L 443.787 218.022 L 442.762 218.433 L 441.747 218.868 L 440.743 219.329 L 439.750 219.814 L 438.770 220.323 L 437.803 220.856 L 436.849 221.412 L 435.909 221.992 L 434.983 222.595 L 434.073 223.220 L 433.178 223.867 L 432.299 224.536 L 431.437 225.227 L 430.593 225.938 L 429.766 226.670 L 428.957 227.422 L 428.167 228.194 L 427.396 228.985 L 426.644 229.794 L 425.913 230.622 L 425.202 231.467 L 424.513 232.330 L 423.844 233.209 L 423.198 234.104 L 422.573 235.015 L 421.971 235.941 L 421.392 236.882 L 420.837 237.836 L 420.304 238.804 L 419.796 239.785 L 419.312 240.777 L 418.853 241.782 L 418.418 242.797 L 418.008 243.823 L 417.624 244.858 L 417.265 245.903 L 416.932 246.956 L 416.625 248.016 L 416.344 249.085 L 416.089 250.159 L 415.861 251.240 L 415.659 252.326 L 360.437 571.386 L 343.453 508.301 L 343.154 507.243 L 342.829 506.192 L 342.479 505.149 L 342.103 504.116 L 341.702 503.091 L 341.277 502.077 L 340.826 501.074 L 340.352 500.082 L 339.853 499.101 L 339.330 498.134 L 338.784 497.179 L 338.215 496.238 L 337.623 495.311 L 337.008 494.399 L 336.371 493.502 L 335.713 492.621 L 335.033 491.757 L 334.332 490.909 L 333.611 490.078 L 332.870 489.266 L 332.109 488.472 L 331.329 487.697 L 330.530 486.941 L 329.713 486.204 L 328.878 485.488 L 328.026 484.793 L 327.157 484.118 L 326.272 483.465 L 325.371 482.834 L 324.455 482.225 L 323.525 481.639 L 322.580 481.075 L 321.622 480.535 L 320.651 480.018 L 319.668 479.526 L 318.673 479.057 L 317.667 478.613 L 316.650 478.194 L 315.623 477.799 L 314.587 477.430 L 313.543 477.086 L 312.490 476.768 L 311.429 476.476 L 310.362 476.209 L 309.289 475.969 L 308.210 475.755 L 307.126 475.568 L 306.038 475.407 L 304.947 475.273 L 303.852 475.165 L 302.755 475.084 L 301.657 475.031 L 300.557 475.003 L 299.457 475.003 L 298.358 475.030 L 297.259 475.084 L 296.162 475.164 L 295.068 475.271 L 293.976 475.405 L 292.888 475.566 L 291.804 475.753 L 290.725 475.966 L 289.652 476.206 L 288.585 476.472 L 287.524 476.764 L 286.471 477.082 L 285.426 477.425 L 284.390 477.794 L 283.363 478.188 L 282.346 478.607 L 281.340 479.051 L 280.345 479.519 L 279.361 480.012 L 278.390 480.528 L 277.432 481.068 L 276.487 481.631 L 275.557 482.217 L 274.641 482.826 L 273.740 483.457 L 272.854 484.110 L 271.985 484.784 L 271.133 485.479 L 270.298 486.195 L 269.481 486.931 L 268.682 487.687 L 267.901 488.462 L 267.140 489.255 L 266.399 490.068 L 265.677 490.898 L 264.976 491.745 L 264.296 492.610 L 263.637 493.491 L 263.000 494.387 L 262.385 495.299 L 261.793 496.226 L 261.223 497.167 L 260.677 498.121 L 260.154 499.089 L 259.655 500.069 L 259.180 501.061 L 258.729 502.064 L 258.303 503.078 L 257.902 504.102 L 257.526 505.136 L 257.175 506.178 L 256.850 507.229 L 256.551 508.287 L 256.278 509.353 L 256.031 510.424 L 255.810 511.502 L 252.330 529.597 L 204.341 252.326 L 204.139 251.240 L 203.911 250.159 L 203.656 249.085 L 203.375 248.016 L 203.068 246.956 L 202.735 245.903 L 202.376 244.858 L 201.992 243.823 L 201.582 242.797 L 201.147 241.782 L 200.688 240.777 L 200.204 239.785 L 199.696 238.804 L 199.163 237.836 L 198.608 236.882 L 198.029 235.941 L 197.427 235.015 L 196.802 234.104 L 196.156 233.209 L 195.487 232.330 L 194.798 231.467 L 194.087 230.622 L 193.356 229.794 L 192.604 228.985 L 191.833 228.194 L 191.043 227.422 L 190.234 226.670 L 189.407 225.938 L 188.563 225.227 L 187.701 224.536 L 186.822 223.867 L 185.927 223.220 L 185.017 222.595 L 184.091 221.992 L 183.151 221.412 L 182.197 220.856 L 181.230 220.323 L 180.250 219.814 L 179.257 219.329 L 178.253 218.868 L 177.238 218.433 L 176.213 218.022 L 175.178 217.637 L 174.134 217.277 L 173.081 216.943 L 172.021 216.635 L 170.953 216.353 L 169.878 216.098 L 168.798 215.868 L 167.712 215.666 L 166.622 215.490 L 165.528 215.341 L 164.430 215.219 L 163.330 215.123 L 162.227 215.055 L 161.124 215.014 L 160.019 215.000 L 158.915 215.013 L 157.811 215.053 L 156.709 215.121 L 155.608 215.215 L 154.511 215.336 L 153.416 215.484 L 152.326 215.659 L 151.240 215.861 L 150.159 216.089 L 149.085 216.344 L 148.016 216.625 L 146.956 216.932 L 145.903 217.265 L 144.858 217.624 L 143.823 218.008 L 142.797 218.418 L 141.782 218.853 L 140.777 219.312 L 139.785 219.796 L 138.804 220.304 L 137.836 220.837 L 136.882 221.392 L 135.941 221.971 L 135.015 222.573 L 134.104 223.198 L 133.209 223.844 L 132.330 224.513 L 131.467 225.202 L 130.622 225.913 L 129.794 226.644 L 128.985 227.396 L 128.194 228.167 L 127.422 228.957 L 126.670 229.766 L 125.938 230.593 L 125.227 231.437 L 124.536 232.299 L 123.867 233.178 L 123.220 234.073 L 122.595 234.983 L 121.992 235.909 L 121.412 236.849 L 120.856 237.803 L 120.323 238.770 L 119.814 239.750 L 119.329 240.743 L 118.868 241.747 L 118.433 242.762 L 118.022 243.787 L 117.637 244.822 L 117.277 245.866 L 116.943 246.919 L 116.635 247.979 L 116.353 249.047 L 116.098 250.122 L 115.868 251.202 L 115.666 252.288 L 115.490 253.378 L 115.341 254.472 L 115.219 255.570 L 115.123 256.670 L 115.055 257.773 L 115.014 258.876 L 115.000 259.981 L 115.013 261.085 L 115.053 262.189 L 115.121 263.291 L 115.215 264.392 L 115.336 265.489 L 115.484 266.584 L 115.659 267.674 L 205.659 787.674 Z" fill="black" fill-rule="evenodd"/>
</svg>
