<svg xmlns="http://www.w3.org/2000/svg" width="600.000" height="1000" viewBox="0 0 600.000 1000">
  <path d="M 195.000 405.000 L 410.000 405.000 L 411.104 404.986 L 412.208 404.946 L 413.310 404.878 L 414.411 404.783 L 415.508 404.662 L 416.603 404.513 L 417.693 404.337 L 418.779 404.135 L 419.860 403.907 L 420.934 403.651 L 422.002 403.370 L 423.063 403.062 L 424.116 402.729 L 425.160 402.369 L 426.195 401.985 L 427.221 401.575 L 428.236 401.139 L 429.240 400.680 L 430.233 400.195 L 431.213 399.686 L 432.180 399.154 L 433.135 398.598 L 434.075 398.018 L 435.001 397.416 L 435.911 396.791 L 436.806 396.144 L 437.685 395.476 L 438.548 394.785 L 439.393 394.074 L 440.220 393.343 L 441.029 392.591 L 441.820 391.820 L 442.591 391.029 L 443.343 390.220 L 444.074 389.393 L 444.785 388.548 L 445.476 387.685 L 446.144 386.806 L 446.791 385.911 L 447.416 385.001 L 448.018 384.075 L 448.598 383.135 L 449.154 382.180 L 449.686 381.213 L 450.195 380.233 L 450.680 379.240 L 451.139 378.236 L 451.575 377.221 L 451.985 376.195 L 452.369 375.160 L 452.729 374.116 L 453.062 373.063 L 453.370 372.002 L 453.651 370.934 L 453.907 369.860 L 454.135 368.779 L 454.337 367.693 L 454.513 366.603 L 454.662 365.508 L 454.783 364.411 L 454.878 363.310 L 454.946 362.208 L 454.986 361.104 L 455.000 360.000 L 454.986 358.896 L 454.946 357.792 L 454.878 356.690 L 454.783 355.589 L 454.662 354.492 L 454.513 353.397 L 454.337 352.307 L 454.135 351.221 L 453.907 350.140 L 453.651 349.066 L 453.370 347.998 L 453.062 346.937 L 452.729 345.884 L 452.369 344.840 L 451.985 343.805 L 451.575 342.779 L 451.139 341.764 L 450.680 340.760 L 450.195 339.767 L 449.686 338.787 L 449.154 337.820 L 448.598 336.865 L 448.018 335.925 L 447.416 334.999 L 446.791 334.089 L 446.144 333.194 L 445.476 332.315 L 444.785 331.452 L 444.074 330.607 L 443.343 329.780 L 442.591 328.971 L 441.820 328.180 L 441.029 327.409 L 440.220 326.657 L 439.393 325.926 L 438.548 325.215 L 437.685 324.524 L 436.806 323.856 L 435.911 323.209 L 435.001 322.584 L 434.075 321.982 L 433.135 321.402 L 432.180 320.846 L 431.213 320.314 L 430.233 319.805 L 429.240 319.320 L 428.236 318.861 L 427.221 318.425 L 426.195 318.015 L 425.160 317.631 L 424.116 317.271 L 423.063 316.938 L 422.002 316.630 L 420.934 316.349 L 419.860 316.093 L 418.779 315.865 L 417.693 315.663 L 416.603 315.487 L 415.508 315.338 L 414.411 315.217 L 413.310 315.122 L 412.208 315.054 L 411.104 315.014 L 410.000 315.000 L 150.000 315.000 L 148.896 315.014 L 147.792 315.054 L 146.690 315.122 L 145.589 315.217 L 144.492 315.338 L 143.397 315.487 L 142.307 315.663 L 141.221 315.865 L 140.140 316.093 L 139.066 316.349 L 137.998 316.630 L 136.937 316.938 L 135.884 317.271 L 134.840 317.631 L 133.805 318.015 L 132.779 318.425 L 131.764 318.861 L 130.760 319.320 L 129.767 319.805 L 128.787 320.314 L 127.820 320.846 L 126.865 321.402 L 125.925 321.982 L 124.999 322.584 L 124.089 323.209 L 123.194 323.856 L 122.315 324.524 L 121.452 325.215 L 120.607 325.926 L 119.780 326.657 L 118.971 327.409 L 118.180 328.180 L 117.409 328.971 L 116.657 329.780 L 115.926 330.607 L 115.215 331.452 L 114.524 332.315 L 113.856 333.194 L 113.209 334.089 L 112.584 334.999 L 111.982 335.925 L 111.402 336.865 L 110.846 337.820 L 110.314 338.787 L 109.805 339.767 L 109.320 340.760 L 108.861 341.764 L 108.425 342.779 L 108.015 343.805 L 107.631 344.840 L 107.271 345.884 L 106.938 346.937 L 106.630 347.998 L 106.349 349.066 L 106.093 350.140 L 105.865 351.221 L 105.663 352.307 L 105.487 353.397 L 105.338 354.492 L 105.217 355.589 L 105.122 356.690 L 105.054 357.792 L 105.014 358.896 L 105.000 360.000 L 105.000 780.000 L 105.014 781.104 L 105.054 782.208 L 105.122 783.310 L 105.217 784.411 L 105.338 785.508 L 105.487 786.603 L 105.663 787.693 L 105.865 788.779 L 106.093 789.860 L 106.349 790.934 L 106.630 792.002 L 106.938 793.063 L 107.271 794.116 L 107.631 795.160 L 108.015 796.195 L 108.425 797.221 L 108.861 798.236 L 109.320 799.240 L 109.805 800.233 L 110.314 801.213 L 110.846 802.180 L 111.402 803.135 L 111.982 804.075 L 112.584 805.001 L 113.209 805.911 L 113.856 806.806 L 114.524 807.685 L 115.215 808.548 L 115.926 809.393 L 116.657 810.220 L 117.409 811.029 L 118.180 811.820 L 118.971 812.591 L 119.780 813.343 L 120.607 814.074 L 121.452 814.785 L 122.315 815.476 L 123.194 816.144 L 124.089 816.791 L 124.999 817.416 L 125.925 818.018 L 126.865 818.598 L 127.820 819.154 L 128.787 819.686 L 129.767 820.195 L 130.760 820.680 L 131.764 821.139 L 132.779 821.575 L 133.805 821.985 L 134.840 822.369 L 135.884 822.729 L 136.937 823.062 L 137.998 823.370 L 139.066 823.651 L 140.140 823.907 L 141.221 824.135 L 142.307 824.337 L 143.397 824.513 L 144.492 824.662 L 145.589 824.783 L 146.690 824.878 L 147.792 824.946 L 148.896 824.986 L 150.000 825.000 L 151.104 824.986 L 152.208 824.946 L 153.310 824.878 L 154.411 824.783 L 155.508 824.662 L 156.603 824.513 L 157.693 824.337 L 158.779 824.135 L 159.860 823.907 L 160.934 823.651 L 162.002 823.370 L 163.063 823.062 L 164.116 822.729 L 165.160 822.369 L 166.195 821.985 L 167.221 821.575 L 168.236 821.139 L 169.240 820.680 L 170.233 820.195 L 171.213 819.686 L 172.180 819.154 L 173.135 818.598 L 174.075 818.018 L 175.001 817.416 L 175.911 816.791 L 176.806 816.144 L 177.685 815.476 L 178.548 814.785 L 179.393 814.074 L 180.220 813.343 L 181.029 812.591 L 181.820 811.820 L 182.591 811.029 L 183.343 810.220 L 184.074 809.393 L 184.785 808.548 L 185.476 807.685 L 186.144 806.806 L 186.791 805.911 L 187.416 805.001 L 188.018 804.075 L 188.598 803.135 L 189.154 802.180 L 189.686 801.213 L 190.195 800.233 L 190.680 799.240 L 191.139 798.236 L 191.575 797.221 L 191.985 796.195 L 192.369 795.160 L 192.729 794.116 L 193.062 793.063 L 193.370 792.002 L 193.651 790.934 L 193.907 789.860 L 194.135 788.779 L 194.337 787.693 L 194.513 786.603 L 194.662 785.508 L 194.783 784.411 L 194.878 783.310 L 194.946 782.208 L 194.986 781.104 L 195.000 780.000 L 195.000 405.000 Z" fill="black" fill-rule="evenodd"/>
</svg>
