<svg xmlns="http://www.w3.org/2000/svg" viewBox="0 0 600.000 1000.000">
  <path d="M 300.000,664.509 L 478.556,242.466 L 479.467,240.454 L 480.475,238.488 L 481.578,236.575 L 482.773,234.718 L 484.059,232.922 L 485.431,231.191 L 486.886,229.529 L 488.421,227.941 L 490.032,226.430 L 491.715,225.000 L 493.467,223.655 L 495.282,222.396 L 497.157,221.229 L 499.087,220.155 L 501.067,219.177 L 503.093,218.297 L 505.160,217.517 L 507.262,216.840 L 509.395,216.267 L 511.554,215.800 L 513.733,215.439 L 515.927,215.185 L 518.131,215.039 L 520.339,215.001 L 522.547,215.072 L 524.748,215.251 L 526.938,215.538 L 529.112,215.932 L 531.263,216.432 L 533.387,217.037 L 535.479,217.746 L 537.534,218.556 L 539.546,219.467 L 541.512,220.475 L 543.425,221.578 L 545.282,222.773 L 547.078,224.059 L 548.809,225.431 L 550.471,226.886 L 552.059,228.421 L 553.570,230.032 L 555.000,231.715 L 556.345,233.467 L 557.604,235.282 L 558.771,237.157 L 559.845,239.087 L 560.823,241.067 L 561.703,243.093 L 562.483,245.160 L 563.160,247.262 L 563.733,249.395 L 564.200,251.554 L 564.561,253.733 L 564.815,255.927 L 564.961,258.131 L 564.999,260.339 L 564.928,262.547 L 564.749,264.748 L 564.462,266.938 L 564.068,269.112 L 563.568,271.263 L 562.963,273.387 L 562.254,275.479 L 561.444,277.534 L 341.444,797.534 L 340.539,799.533 L 339.539,801.487 L 338.444,803.389 L 337.258,805.235 L 335.984,807.022 L 334.623,808.744 L 333.181,810.398 L 331.659,811.979 L 330.063,813.485 L 328.394,814.911 L 326.659,816.254 L 324.859,817.510 L 323.001,818.678 L 321.088,819.753 L 319.125,820.734 L 317.116,821.618 L 315.067,822.403 L 312.982,823.087 L 310.866,823.669 L 308.724,824.146 L 306.561,824.519 L 304.383,824.786 L 302.194,824.946 L 300.000,825.000 L 297.806,824.946 L 295.617,824.786 L 293.439,824.519 L 291.276,824.146 L 289.134,823.669 L 287.018,823.087 L 284.933,822.403 L 282.884,821.618 L 280.875,820.734 L 278.912,819.753 L 276.999,818.678 L 275.141,817.510 L 273.341,816.254 L 271.606,814.911 L 269.937,813.485 L 268.341,811.979 L 266.819,810.398 L 265.377,808.744 L 264.016,807.022 L 262.742,805.235 L 261.556,803.389 L 260.461,801.487 L 259.461,799.533 L 258.556,797.534 L 38.556,277.534 L 37.746,275.479 L 37.037,273.387 L 36.432,271.263 L 35.932,269.112 L 35.538,266.938 L 35.251,264.748 L 35.072,262.547 L 35.001,260.339 L 35.039,258.131 L 35.185,255.927 L 35.439,253.733 L 35.800,251.554 L 36.267,249.395 L 36.840,247.262 L 37.517,245.160 L 38.297,243.093 L 39.177,241.067 L 40.155,239.087 L 41.229,237.157 L 42.396,235.282 L 43.655,233.467 L 45.000,231.715 L 46.430,230.032 L 47.941,228.421 L 49.529,226.886 L 51.191,225.431 L 52.922,224.059 L 54.718,222.773 L 56.575,221.578 L 58.488,220.475 L 60.454,219.467 L 62.466,218.556 L 64.521,217.746 L 66.613,217.037 L 68.737,216.432 L 70.888,215.932 L 73.062,215.538 L 75.252,215.251 L 77.453,215.072 L 79.661,215.001 L 81.869,215.039 L 84.073,215.185 L 86.267,215.439 L 88.446,215.800 L 90.605,216.267 L 92.738,216.840 L 94.840,217.517 L 96.907,218.297 L 98.933,219.177 L 100.913,220.155 L 102.843,221.229 L 104.718,222.396 L 106.533,223.655 L 108.285,225.000 L 109.968,226.430 L 111.579,227.941 L 113.114,229.529 L 114.569,231.191 L 115.941,232.922 L 117.227,234.718 L 118.422,236.575 L 119.525,238.488 L 120.533,240.454 L 121.444,242.466 L 300.000,664.509 Z" fill="black" fill-rule="evenodd"/>
</svg>
