<svg xmlns="http://www.w3.org/2000/svg" viewBox="0 0 600.000 1000" width="600.000" height="1000">
  <path d="M 606.104 444.986 L 607.208 444.946 L 608.310 444.878 L 609.411 444.783 L 610.508 444.662 L 611.603 444.513 L 612.693 444.337 L 613.779 444.135 L 614.860 443.907 L 615.934 443.651 L 617.002 443.370 L 618.063 443.062 L 619.116 442.729 L 620.160 442.369 L 621.195 441.985 L 622.221 441.575 L 623.236 441.139 L 624.240 440.680 L 625.233 440.195 L 626.213 439.686 L 627.180 439.154 L 628.135 438.598 L 629.075 438.018 L 630.001 437.416 L 630.911 436.791 L 631.806 436.144 L 632.685 435.476 L 633.548 434.785 L 634.393 434.074 L 635.220 433.343 L 636.029 432.591 L 636.820 431.820 L 637.591 431.029 L 638.343 430.220 L 639.074 429.393 L 639.785 428.548 L 640.476 427.685 L 641.144 426.806 L 641.791 425.911 L 642.416 425.001 L 643.018 424.075 L 643.598 423.135 L 644.154 422.180 L 644.686 421.213 L 645.195 420.233 L 645.680 419.240 L 646.139 418.236 L 646.575 417.221 L 646.985 416.195 L 647.369 415.160 L 647.729 414.116 L 648.062 413.063 L 648.370 412.002 L 648.651 410.934 L 648.907 409.860 L 649.135 408.779 L 649.337 407.693 L 649.513 406.603 L 649.662 405.508 L 649.783 404.411 L 649.878 403.310 L 649.946 402.208 L 649.986 401.104 L 650.000 400.000 L 649.986 398.896 L 649.946 397.792 L 649.878 396.690 L 649.783 395.589 L 649.662 394.492 L 649.513 393.397 L 649.337 392.307 L 649.135 391.221 L 648.907 390.140 L 648.651 389.066 L 648.370 387.998 L 648.062 386.937 L 647.729 385.884 L 647.369 384.840 L 646.985 383.805 L 646.575 382.779 L 646.139 381.764 L 645.680 380.760 L 645.195 379.767 L 644.686 378.787 L 644.154 377.820 L 643.598 376.865 L 643.018 375.925 L 642.416 374.999 L 641.791 374.089 L 641.144 373.194 L 640.476 372.315 L 639.785 371.452 L 639.074 370.607 L 638.343 369.780 L 637.591 368.971 L 636.820 368.180 L 636.029 367.409 L 635.220 366.657 L 634.393 365.926 L 633.548 365.215 L 632.685 364.524 L 631.806 363.856 L 630.911 363.209 L 630.001 362.584 L 629.075 361.982 L 628.135 361.402 L 627.180 360.846 L 626.213 360.314 L 625.233 359.805 L 624.240 359.320 L 623.236 358.861 L 622.221 358.425 L 621.195 358.015 L 620.160 357.631 L 619.116 357.271 L 618.063 356.938 L 617.002 356.630 L 615.934 356.349 L 614.860 356.093 L 613.779 355.865 L 612.693 355.663 L 611.603 355.487 L 610.508 355.338 L 609.411 355.217 L 608.310 355.122 L 607.208 355.054 L 606.104 355.014 L 605.000 355.000 L 430.000 355.000 L 430.000 50.000 L 429.986 48.896 L 429.946 47.792 L 429.878 46.690 L 429.783 45.589 L 429.662 44.492 L 429.513 43.397 L 429.337 42.307 L 429.135 41.221 L 428.907 40.140 L 428.651 39.066 L 428.370 37.998 L 428.062 36.937 L 427.729 35.884 L 427.369 34.840 L 426.985 33.805 L 426.575 32.779 L 426.139 31.764 L 425.680 30.760 L 425.195 29.767 L 424.686 28.787 L 424.154 27.820 L 423.598 26.865 L 423.018 25.925 L 422.416 24.999 L 421.791 24.089 L 421.144 23.194 L 420.476 22.315 L 419.785 21.452 L 419.074 20.607 L 418.343 19.780 L 417.591 18.971 L 416.820 18.180 L 416.029 17.409 L 415.220 16.657 L 414.393 15.926 L 413.548 15.215 L 412.685 14.524 L 411.806 13.856 L 410.911 13.209 L 410.001 12.584 L 409.075 11.982 L 408.135 11.402 L 407.180 10.846 L 406.213 10.314 L 405.233 9.805 L 404.240 9.320 L 403.236 8.861 L 402.221 8.425 L 401.195 8.015 L 400.160 7.631 L 399.116 7.271 L 398.063 6.938 L 397.002 6.630 L 395.934 6.349 L 394.860 6.093 L 393.779 5.865 L 392.693 5.663 L 391.603 5.487 L 390.508 5.338 L 389.411 5.217 L 388.310 5.122 L 387.208 5.054 L 386.104 5.014 L 385.000 5.000 L 383.896 5.014 L 382.792 5.054 L 381.690 5.122 L 380.589 5.217 L 379.492 5.338 L 378.397 5.487 L 377.307 5.663 L 376.221 5.865 L 375.140 6.093 L 374.066 6.349 L 372.998 6.630 L 371.937 6.938 L 370.884 7.271 L 369.840 7.631 L 368.805 8.015 L 367.779 8.425 L 366.764 8.861 L 365.760 9.320 L 364.767 9.805 L 363.787 10.314 L 362.820 10.846 L 361.865 11.402 L 360.925 11.982 L 359.999 12.584 L 359.089 13.209 L 358.194 13.856 L 357.315 14.524 L 356.452 15.215 L 355.607 15.926 L 354.780 16.657 L 353.971 17.409 L 353.180 18.180 L 352.409 18.971 L 351.657 19.780 L 350.926 20.607 L 350.215 21.452 L 349.524 22.315 L 348.856 23.194 L 348.209 24.089 L 347.584 24.999 L 346.982 25.925 L 346.402 26.865 L 345.846 27.820 L 345.314 28.787 L 344.805 29.767 L 344.320 30.760 L 343.861 31.764 L 343.425 32.779 L 343.015 33.805 L 342.631 34.840 L 342.271 35.884 L 341.938 36.937 L 341.630 37.998 L 341.349 39.066 L 341.093 40.140 L 340.865 41.221 L 340.663 42.307 L 340.487 43.397 L 340.338 44.492 L 340.217 45.589 L 340.122 46.690 L 340.054 47.792 L 340.014 48.896 L 340.000 50.000 L 340.000 400.000 L 340.000 770.000 L 340.014 771.104 L 340.054 772.208 L 340.122 773.310 L 340.217 774.411 L 340.338 775.508 L 340.487 776.603 L 340.663 777.693 L 340.865 778.779 L 341.093 779.860 L 341.349 780.934 L 341.630 782.002 L 341.938 783.063 L 342.271 784.116 L 342.631 785.160 L 343.015 786.195 L 343.425 787.221 L 343.861 788.236 L 344.320 789.240 L 344.805 790.233 L 345.314 791.213 L 345.846 792.180 L 346.402 793.135 L 346.982 794.075 L 347.584 795.001 L 348.209 795.911 L 348.856 796.806 L 349.524 797.685 L 350.215 798.548 L 350.926 799.393 L 351.657 800.220 L 352.409 801.029 L 353.180 801.820 L 353.971 802.591 L 354.780 803.343 L 355.607 804.074 L 356.452 804.785 L 357.315 805.476 L 358.194 806.144 L 359.089 806.791 L 359.999 807.416 L 360.925 808.018 L 361.865 808.598 L 362.820 809.154 L 363.787 809.686 L 364.767 810.195 L 365.760 810.680 L 366.764 811.139 L 367.779 811.575 L 368.805 811.985 L 369.840 812.369 L 370.884 812.729 L 371.937 813.062 L 372.998 813.370 L 374.066 813.651 L 375.140 813.907 L 376.221 814.135 L 377.307 814.337 L 378.397 814.513 L 379.492 814.662 L 380.589 814.783 L 381.690 814.878 L 382.792 814.946 L 383.896 814.986 L 385.000 815.000 L 386.104 814.986 L 387.208 814.946 L 388.310 814.878 L 389.411 814.783 L 390.508 814.662 L 391.603 814.513 L 392.693 814.337 L 393.779 814.135 L 394.860 813.907 L 395.934 813.651 L 397.002 813.370 L 398.063 813.062 L 399.116 812.729 L 400.160 812.369 L 401.195 811.985 L 402.221 811.575 L 403.236 811.139 L 404.240 810.680 L 405.233 810.195 L 406.213 809.686 L 407.180 809.154 L 408.135 808.598 L 409.075 808.018 L 410.001 807.416 L 410.911 806.791 L 411.806 806.144 L 412.685 805.476 L 413.548 804.785 L 414.393 804.074 L 415.220 803.343 L 416.029 802.591 L 416.820 801.820 L 417.591 801.029 L 418.343 800.220 L 419.074 799.393 L 419.785 798.548 L 420.476 797.685 L 421.144 796.806 L 421.791 795.911 L 422.416 795.001 L 423.018 794.075 L 423.598 793.135 L 424.154 792.180 L 424.686 791.213 L 425.195 790.233 L 425.680 789.240 L 426.139 788.236 L 426.575 787.221 L 426.985 786.195 L 427.369 785.160 L 427.729 784.116 L 428.062 783.063 L 428.370 782.002 L 428.651 780.934 L 428.907 779.860 L 429.135 778.779 L 429.337 777.693 L 429.513 776.603 L 429.662 775.508 L 429.783 774.411 L 429.878 773.310 L 429.946 772.208 L 429.986 771.104 L 430.000 770.000 L 430.000 445.000 L 605.000 445.000 L 606.104 444.986 Z" fill="black" fill-rule="evenodd"/>
</svg>
