<svg xmlns="http://www.w3.org/2000/svg" viewBox="0 0 600.000 1000">
  <path d="M 499.154 282.180 L 499.335 281.852 L 499.518 281.524 L 499.601 281.368 L 499.686 281.213 L 499.859 280.880 L 500.035 280.548 L 500.114 280.390 L 500.195 280.233 L 500.360 279.895 L 500.527 279.559 L 500.602 279.399 L 500.680 279.240 L 500.836 278.899 L 500.995 278.559 L 501.066 278.397 L 501.139 278.236 L 501.287 277.891 L 501.438 277.547 L 501.505 277.383 L 501.575 277.221 L 501.714 276.872 L 501.856 276.525 L 501.919 276.360 L 501.985 276.195 L 502.115 275.843 L 502.249 275.493 L 502.308 275.326 L 502.369 275.160 L 502.492 274.805 L 502.616 274.451 L 502.671 274.283 L 502.729 274.116 L 502.842 273.758 L 502.958 273.401 L 503.009 273.231 L 503.062 273.063 L 503.167 272.702 L 503.274 272.343 L 503.321 272.172 L 503.370 272.002 L 503.466 271.639 L 503.564 271.277 L 503.606 271.105 L 503.651 270.934 L 503.738 270.569 L 503.828 270.204 L 503.866 270.032 L 503.907 269.860 L 503.984 269.492 L 504.065 269.126 L 504.099 268.952 L 504.135 268.779 L 504.204 268.410 L 504.276 268.042 L 504.305 267.867 L 504.337 267.693 L 504.397 267.323 L 504.460 266.953 L 504.485 266.777 L 504.513 266.603 L 504.563 266.231 L 504.617 265.859 L 504.638 265.684 L 504.662 265.508 L 504.703 265.135 L 504.747 264.763 L 504.764 264.587 L 504.783 264.411 L 504.816 264.037 L 504.851 263.663 L 504.863 263.487 L 504.878 263.310 L 504.901 262.936 L 504.927 262.561 L 504.935 262.385 L 504.946 262.208 L 504.960 261.833 L 504.976 261.458 L 504.980 261.281 L 504.986 261.104 L 504.991 260.729 L 504.999 260.354 L 504.998 260.177 L 505.000 260.000 L 504.995 259.625 L 504.994 259.249 L 504.989 259.073 L 504.986 258.896 L 504.973 258.521 L 504.962 258.145 L 504.952 257.969 L 504.946 257.792 L 504.923 257.417 L 504.903 257.042 L 504.889 256.866 L 504.878 256.690 L 504.846 256.316 L 504.817 255.941 L 504.798 255.765 L 504.783 255.589 L 504.742 255.216 L 504.703 254.843 L 504.681 254.667 L 504.662 254.492 L 504.611 254.120 L 504.563 253.747 L 504.537 253.572 L 504.513 253.397 L 504.453 253.027 L 504.397 252.655 L 504.366 252.481 L 504.337 252.307 L 504.269 251.938 L 504.203 251.568 L 504.168 251.395 L 504.135 251.221 L 504.058 250.854 L 503.983 250.486 L 503.943 250.313 L 503.907 250.140 L 503.820 249.775 L 503.736 249.409 L 503.692 249.238 L 503.651 249.066 L 503.556 248.703 L 503.463 248.339 L 503.415 248.169 L 503.370 247.998 L 503.265 247.637 L 503.164 247.276 L 503.112 247.107 L 503.062 246.937 L 502.949 246.579 L 502.838 246.221 L 502.782 246.053 L 502.729 245.884 L 502.607 245.529 L 502.487 245.173 L 502.427 245.007 L 502.369 244.840 L 502.239 244.488 L 502.111 244.135 L 502.046 243.971 L 501.985 243.805 L 501.845 243.456 L 501.709 243.107 L 501.640 242.943 L 501.575 242.779 L 501.427 242.434 L 501.282 242.088 L 501.209 241.927 L 501.139 241.764 L 500.983 241.423 L 500.830 241.080 L 500.753 240.921 L 500.680 240.760 L 500.515 240.423 L 500.353 240.084 L 500.273 239.926 L 500.195 239.767 L 500.022 239.434 L 499.852 239.100 L 499.768 238.944 L 499.686 238.787 L 499.505 238.458 L 499.327 238.128 L 499.239 237.975 L 499.154 237.820 L 498.965 237.495 L 498.778 237.169 L 498.687 237.018 L 498.598 236.865 L 498.401 236.546 L 498.206 236.225 L 498.111 236.076 L 498.018 235.925 L 497.814 235.610 L 497.611 235.294 L 497.513 235.148 L 497.416 234.999 L 497.204 234.690 L 496.994 234.379 L 496.891 234.234 L 496.791 234.089 L 496.571 233.784 L 496.354 233.478 L 496.248 233.337 L 496.144 233.194 L 495.917 232.895 L 495.692 232.594 L 495.583 232.455 L 495.476 232.315 L 495.241 232.022 L 495.009 231.727 L 494.896 231.590 L 494.785 231.452 L 494.544 231.165 L 494.304 230.876 L 494.188 230.743 L 494.074 230.607 L 493.826 230.326 L 493.579 230.043 L 493.460 229.912 L 493.343 229.780 L 493.087 229.505 L 492.834 229.228 L 492.711 229.100 L 492.591 228.971 L 492.329 228.702 L 492.069 228.431 L 491.943 228.307 L 491.820 228.180 L 491.551 227.918 L 491.285 227.654 L 491.156 227.532 L 491.029 227.409 L 490.754 227.153 L 490.481 226.896 L 490.350 226.778 L 490.220 226.657 L 489.939 226.409 L 489.660 226.158 L 489.525 226.043 L 489.393 225.926 L 489.106 225.684 L 488.820 225.440 L 488.683 225.328 L 488.548 225.215 L 488.255 224.980 L 487.963 224.743 L 487.824 224.635 L 487.685 224.524 L 487.387 224.297 L 487.090 224.067 L 486.947 223.963 L 486.806 223.856 L 486.502 223.636 L 486.200 223.414 L 486.055 223.312 L 485.911 223.209 L 485.602 222.996 L 485.294 222.782 L 485.147 222.684 L 485.001 222.584 L 484.686 222.379 L 484.373 222.172 L 484.223 222.078 L 484.075 221.982 L 483.755 221.785 L 483.437 221.585 L 483.285 221.495 L 483.135 221.402 L 482.810 221.213 L 482.488 221.022 L 482.333 220.935 L 482.180 220.846 L 481.852 220.665 L 481.524 220.482 L 481.368 220.399 L 481.213 220.314 L 480.880 220.141 L 480.548 219.965 L 480.390 219.886 L 480.233 219.805 L 479.895 219.640 L 479.559 219.473 L 479.399 219.398 L 479.240 219.320 L 478.899 219.164 L 478.559 219.005 L 478.397 218.934 L 478.236 218.861 L 477.891 218.713 L 477.547 218.562 L 477.383 218.495 L 477.221 218.425 L 476.872 218.286 L 476.525 218.144 L 476.360 218.081 L 476.195 218.015 L 475.843 217.885 L 475.493 217.751 L 475.326 217.692 L 475.160 217.631 L 474.805 217.508 L 474.451 217.384 L 474.283 217.329 L 474.116 217.271 L 473.758 217.158 L 473.401 217.042 L 473.231 216.991 L 473.063 216.938 L 472.702 216.833 L 472.343 216.726 L 472.172 216.679 L 472.002 216.630 L 471.639 216.534 L 471.277 216.436 L 471.105 216.394 L 470.934 216.349 L 470.569 216.262 L 470.204 216.172 L 470.032 216.134 L 469.860 216.093 L 469.492 216.016 L 469.126 215.935 L 468.952 215.901 L 468.779 215.865 L 468.410 215.796 L 468.042 215.724 L 467.867 215.695 L 467.693 215.663 L 467.323 215.603 L 466.953 215.540 L 466.777 215.515 L 466.603 215.487 L 466.231 215.437 L 465.859 215.383 L 465.684 215.362 L 465.508 215.338 L 465.135 215.297 L 464.763 215.253 L 464.587 215.236 L 464.411 215.217 L 464.037 215.184 L 463.663 215.149 L 463.487 215.137 L 463.310 215.122 L 462.936 215.099 L 462.561 215.073 L 462.385 215.065 L 462.208 215.054 L 461.833 215.040 L 461.458 215.024 L 461.281 215.020 L 461.104 215.014 L 460.729 215.009 L 460.354 215.001 L 460.177 215.002 L 460.000 215.000 L 160.000 215.000 L 158.896 215.014 L 157.792 215.054 L 156.690 215.122 L 155.589 215.217 L 154.492 215.338 L 153.397 215.487 L 152.307 215.663 L 151.221 215.865 L 150.140 216.093 L 149.066 216.349 L 147.998 216.630 L 146.937 216.938 L 145.884 217.271 L 144.840 217.631 L 143.805 218.015 L 142.779 218.425 L 141.764 218.861 L 140.760 219.320 L 139.767 219.805 L 138.787 220.314 L 137.820 220.846 L 136.865 221.402 L 135.925 221.982 L 134.999 222.584 L 134.089 223.209 L 133.194 223.856 L 132.315 224.524 L 131.452 225.215 L 130.607 225.926 L 129.780 226.657 L 128.971 227.409 L 128.180 228.180 L 127.409 228.971 L 126.657 229.780 L 125.926 230.607 L 125.215 231.452 L 124.524 232.315 L 123.856 233.194 L 123.209 234.089 L 122.584 234.999 L 121.982 235.925 L 121.402 236.865 L 120.846 237.820 L 120.314 238.787 L 119.805 239.767 L 119.320 240.760 L 118.861 241.764 L 118.425 242.779 L 118.015 243.805 L 117.631 244.840 L 117.271 245.884 L 116.938 246.937 L 116.630 247.998 L 116.349 249.066 L 116.093 250.140 L 115.865 251.221 L 115.663 252.307 L 115.487 253.397 L 115.338 254.492 L 115.217 255.589 L 115.122 256.690 L 115.054 257.792 L 115.014 258.896 L 115.000 260.000 L 115.014 261.104 L 115.054 262.208 L 115.122 263.310 L 115.217 264.411 L 115.338 265.508 L 115.487 266.603 L 115.663 267.693 L 115.865 268.779 L 116.093 269.860 L 116.349 270.934 L 116.630 272.002 L 116.938 273.063 L 117.271 274.116 L 117.631 275.160 L 118.015 276.195 L 118.425 277.221 L 118.861 278.236 L 119.320 279.240 L 119.805 280.233 L 120.314 281.213 L 120.846 282.180 L 121.402 283.135 L 121.982 284.075 L 122.584 285.001 L 123.209 285.911 L 123.856 286.806 L 124.524 287.685 L 125.215 288.548 L 125.926 289.393 L 126.657 290.220 L 127.409 291.029 L 128.180 291.820 L 128.971 292.591 L 129.780 293.343 L 130.607 294.074 L 131.452 294.785 L 132.315 295.476 L 133.194 296.144 L 134.089 296.791 L 134.999 297.416 L 135.925 298.018 L 136.865 298.598 L 137.820 299.154 L 138.787 299.686 L 139.767 300.195 L 140.760 300.680 L 141.764 301.139 L 142.779 301.575 L 143.805 301.985 L 144.840 302.369 L 145.884 302.729 L 146.937 303.062 L 147.998 303.370 L 149.066 303.651 L 150.140 303.907 L 151.221 304.135 L 152.307 304.337 L 153.397 304.513 L 154.492 304.662 L 155.589 304.783 L 156.690 304.878 L 157.792 304.946 L 158.896 304.986 L 160.000 305.000 L 382.087 305.000 L 121.022 757.512 L 120.935 757.667 L 120.846 757.820 L 120.665 758.148 L 120.482 758.476 L 120.399 758.632 L 120.314 758.787 L 120.141 759.120 L 119.965 759.452 L 119.886 759.610 L 119.805 759.767 L 119.640 760.105 L 119.473 760.441 L 119.398 760.601 L 119.320 760.760 L 119.164 761.101 L 119.005 761.441 L 118.934 761.603 L 118.861 761.764 L 118.713 762.109 L 118.562 762.453 L 118.495 762.617 L 118.425 762.779 L 118.286 763.128 L 118.144 763.475 L 118.081 763.640 L 118.015 763.805 L 117.885 764.157 L 117.751 764.507 L 117.692 764.674 L 117.631 764.840 L 117.508 765.195 L 117.384 765.549 L 117.329 765.717 L 117.271 765.884 L 117.158 766.242 L 117.042 766.599 L 116.991 766.769 L 116.938 766.937 L 116.833 767.298 L 116.726 767.657 L 116.679 767.828 L 116.630 767.998 L 116.534 768.361 L 116.436 768.723 L 116.394 768.895 L 116.349 769.066 L 116.262 769.431 L 116.172 769.796 L 116.134 769.968 L 116.093 770.140 L 116.016 770.508 L 115.935 770.874 L 115.901 771.048 L 115.865 771.221 L 115.796 771.590 L 115.724 771.958 L 115.695 772.133 L 115.663 772.307 L 115.603 772.677 L 115.540 773.047 L 115.515 773.223 L 115.487 773.397 L 115.437 773.769 L 115.383 774.141 L 115.362 774.316 L 115.338 774.492 L 115.297 774.865 L 115.253 775.237 L 115.236 775.413 L 115.217 775.589 L 115.184 775.963 L 115.149 776.337 L 115.137 776.513 L 115.122 776.690 L 115.099 777.064 L 115.073 777.439 L 115.065 777.615 L 115.054 777.792 L 115.040 778.167 L 115.024 778.542 L 115.020 778.719 L 115.014 778.896 L 115.009 779.271 L 115.001 779.646 L 115.002 779.823 L 115.000 780.000 L 115.005 780.375 L 115.006 780.751 L 115.011 780.927 L 115.014 781.104 L 115.027 781.479 L 115.038 781.855 L 115.048 782.031 L 115.054 782.208 L 115.077 782.583 L 115.097 782.958 L 115.111 783.134 L 115.122 783.310 L 115.154 783.684 L 115.183 784.059 L 115.202 784.235 L 115.217 784.411 L 115.258 784.784 L 115.297 785.157 L 115.319 785.333 L 115.338 785.508 L 115.389 785.880 L 115.437 786.253 L 115.463 786.428 L 115.487 786.603 L 115.547 786.973 L 115.603 787.345 L 115.634 787.519 L 115.663 787.693 L 115.731 788.062 L 115.797 788.432 L 115.832 788.605 L 115.865 788.779 L 115.942 789.146 L 116.017 789.514 L 116.057 789.687 L 116.093 789.860 L 116.180 790.225 L 116.264 790.591 L 116.308 790.762 L 116.349 790.934 L 116.444 791.297 L 116.537 791.661 L 116.585 791.831 L 116.630 792.002 L 116.735 792.363 L 116.836 792.724 L 116.888 792.893 L 116.938 793.063 L 117.051 793.421 L 117.162 793.779 L 117.218 793.947 L 117.271 794.116 L 117.393 794.471 L 117.513 794.827 L 117.573 794.993 L 117.631 795.160 L 117.761 795.512 L 117.889 795.865 L 117.954 796.029 L 118.015 796.195 L 118.155 796.544 L 118.291 796.893 L 118.360 797.057 L 118.425 797.221 L 118.573 797.566 L 118.718 797.912 L 118.791 798.073 L 118.861 798.236 L 119.017 798.577 L 119.170 798.920 L 119.247 799.079 L 119.320 799.240 L 119.485 799.577 L 119.647 799.916 L 119.727 800.074 L 119.805 800.233 L 119.978 800.566 L 120.148 800.900 L 120.232 801.056 L 120.314 801.213 L 120.495 801.542 L 120.673 801.872 L 120.761 802.025 L 120.846 802.180 L 121.035 802.505 L 121.222 802.831 L 121.313 802.982 L 121.402 803.135 L 121.599 803.454 L 121.794 803.775 L 121.889 803.924 L 121.982 804.075 L 122.186 804.390 L 122.389 804.706 L 122.487 804.852 L 122.584 805.001 L 122.796 805.310 L 123.006 805.621 L 123.109 805.766 L 123.209 805.911 L 123.429 806.216 L 123.646 806.522 L 123.752 806.663 L 123.856 806.806 L 124.083 807.105 L 124.308 807.406 L 124.417 807.545 L 124.524 807.685 L 124.759 807.978 L 124.991 808.273 L 125.104 808.410 L 125.215 808.548 L 125.456 808.835 L 125.696 809.124 L 125.812 809.257 L 125.926 809.393 L 126.174 809.674 L 126.421 809.957 L 126.540 810.088 L 126.657 810.220 L 126.913 810.495 L 127.166 810.772 L 127.289 810.900 L 127.409 811.029 L 127.671 811.298 L 127.931 811.569 L 128.057 811.693 L 128.180 811.820 L 128.449 812.082 L 128.715 812.346 L 128.844 812.468 L 128.971 812.591 L 129.246 812.847 L 129.519 813.104 L 129.650 813.222 L 129.780 813.343 L 130.061 813.591 L 130.340 813.842 L 130.475 813.957 L 130.607 814.074 L 130.894 814.316 L 131.180 814.560 L 131.317 814.672 L 131.452 814.785 L 131.745 815.020 L 132.037 815.257 L 132.176 815.365 L 132.315 815.476 L 132.613 815.703 L 132.910 815.933 L 133.053 816.037 L 133.194 816.144 L 133.498 816.364 L 133.800 816.586 L 133.945 816.688 L 134.089 816.791 L 134.398 817.004 L 134.706 817.218 L 134.853 817.316 L 134.999 817.416 L 135.314 817.621 L 135.627 817.828 L 135.777 817.922 L 135.925 818.018 L 136.245 818.215 L 136.563 818.415 L 136.715 818.505 L 136.865 818.598 L 137.190 818.787 L 137.512 818.978 L 137.667 819.065 L 137.820 819.154 L 138.148 819.335 L 138.476 819.518 L 138.632 819.601 L 138.787 819.686 L 139.120 819.859 L 139.452 820.035 L 139.610 820.114 L 139.767 820.195 L 140.105 820.360 L 140.441 820.527 L 140.601 820.602 L 140.760 820.680 L 141.101 820.836 L 141.441 820.995 L 141.603 821.066 L 141.764 821.139 L 142.109 821.287 L 142.453 821.438 L 142.617 821.505 L 142.779 821.575 L 143.128 821.714 L 143.475 821.856 L 143.640 821.919 L 143.805 821.985 L 144.157 822.115 L 144.507 822.249 L 144.674 822.308 L 144.840 822.369 L 145.195 822.492 L 145.549 822.616 L 145.717 822.671 L 145.884 822.729 L 146.242 822.842 L 146.599 822.958 L 146.769 823.009 L 146.937 823.062 L 147.298 823.167 L 147.657 823.274 L 147.828 823.321 L 147.998 823.370 L 148.361 823.466 L 148.723 823.564 L 148.895 823.606 L 149.066 823.651 L 149.431 823.738 L 149.796 823.828 L 149.968 823.866 L 150.140 823.907 L 150.508 823.984 L 150.874 824.065 L 151.048 824.099 L 151.221 824.135 L 151.590 824.204 L 151.958 824.276 L 152.133 824.305 L 152.307 824.337 L 152.677 824.397 L 153.047 824.460 L 153.223 824.485 L 153.397 824.513 L 153.769 824.563 L 154.141 824.617 L 154.316 824.638 L 154.492 824.662 L 154.865 824.703 L 155.237 824.747 L 155.413 824.764 L 155.589 824.783 L 155.963 824.816 L 156.337 824.851 L 156.513 824.863 L 156.690 824.878 L 157.064 824.901 L 157.439 824.927 L 157.615 824.935 L 157.792 824.946 L 158.167 824.960 L 158.542 824.976 L 158.719 824.980 L 158.896 824.986 L 159.271 824.991 L 159.646 824.999 L 159.823 824.998 L 160.000 825.000 L 460.000 825.000 L 461.104 824.986 L 462.208 824.946 L 463.310 824.878 L 464.411 824.783 L 465.508 824.662 L 466.603 824.513 L 467.693 824.337 L 468.779 824.135 L 469.860 823.907 L 470.934 823.651 L 472.002 823.370 L 473.063 823.062 L 474.116 822.729 L 475.160 822.369 L 476.195 821.985 L 477.221 821.575 L 478.236 821.139 L 479.240 820.680 L 480.233 820.195 L 481.213 819.686 L 482.180 819.154 L 483.135 818.598 L 484.075 818.018 L 485.001 817.416 L 485.911 816.791 L 486.806 816.144 L 487.685 815.476 L 488.548 814.785 L 489.393 814.074 L 490.220 813.343 L 491.029 812.591 L 491.820 811.820 L 492.591 811.029 L 493.343 810.220 L 494.074 809.393 L 494.785 808.548 L 495.476 807.685 L 496.144 806.806 L 496.791 805.911 L 497.416 805.001 L 498.018 804.075 L 498.598 803.135 L 499.154 802.180 L 499.686 801.213 L 500.195 800.233 L 500.680 799.240 L 501.139 798.236 L 501.575 797.221 L 501.985 796.195 L 502.369 795.160 L 502.729 794.116 L 503.062 793.063 L 503.370 792.002 L 503.651 790.934 L 503.907 789.860 L 504.135 788.779 L 504.337 787.693 L 504.513 786.603 L 504.662 785.508 L 504.783 784.411 L 504.878 783.310 L 504.946 782.208 L 504.986 781.104 L 505.000 780.000 L 504.986 778.896 L 504.946 777.792 L 504.878 776.690 L 504.783 775.589 L 504.662 774.492 L 504.513 773.397 L 504.337 772.307 L 504.135 771.221 L 503.907 770.140 L 503.651 769.066 L 503.370 767.998 L 503.062 766.937 L 502.729 765.884 L 502.369 764.840 L 501.985 763.805 L 501.575 762.779 L 501.139 761.764 L 500.680 760.760 L 500.195 759.767 L 499.686 758.787 L 499.154 757.820 L 498.598 756.865 L 498.018 755.925 L 497.416 754.999 L 496.791 754.089 L 496.144 753.194 L 495.476 752.315 L 494.785 751.452 L 494.074 750.607 L 493.343 749.780 L 492.591 748.971 L 491.820 748.180 L 491.029 747.409 L 490.220 746.657 L 489.393 745.926 L 488.548 745.215 L 487.685 744.524 L 486.806 743.856 L 485.911 743.209 L 485.001 742.584 L 484.075 741.982 L 483.135 741.402 L 482.180 740.846 L 481.213 740.314 L 480.233 739.805 L 479.240 739.320 L 478.236 738.861 L 477.221 738.425 L 476.195 738.015 L 475.160 737.631 L 474.116 737.271 L 473.063 736.938 L 472.002 736.630 L 470.934 736.349 L 469.860 736.093 L 468.779 735.865 L 467.693 735.663 L 466.603 735.487 L 465.508 735.338 L 464.411 735.217 L 463.310 735.122 L 462.208 735.054 L 461.104 735.014 L 460.000 735.000 L 237.913 735.000 L 498.978 282.488 L 499.065 282.333 L 499.154 282.180 Z" fill="black" fill-rule="evenodd"/>
</svg>
