<svg xmlns="http://www.w3.org/2000/svg" viewBox="0 0 600.000 1000" width="600.000" height="1000">
  <path d="M 85.014 771.104 L 85.054 772.208 L 85.122 773.310 L 85.217 774.411 L 85.338 775.508 L 85.487 776.603 L 85.663 777.693 L 85.865 778.779 L 86.093 779.860 L 86.349 780.934 L 86.630 782.002 L 86.938 783.063 L 87.271 784.116 L 87.631 785.160 L 88.015 786.195 L 88.425 787.221 L 88.861 788.236 L 89.320 789.240 L 89.805 790.233 L 90.314 791.213 L 90.846 792.180 L 91.402 793.135 L 91.982 794.075 L 92.584 795.001 L 93.209 795.911 L 93.856 796.806 L 94.524 797.685 L 95.215 798.548 L 95.926 799.393 L 96.657 800.220 L 97.409 801.029 L 98.180 801.820 L 98.971 802.591 L 99.780 803.343 L 100.607 804.074 L 101.452 804.785 L 102.315 805.476 L 103.194 806.144 L 104.089 806.791 L 104.999 807.416 L 105.925 808.018 L 106.865 808.598 L 107.820 809.154 L 108.787 809.686 L 109.767 810.195 L 110.760 810.680 L 111.764 811.139 L 112.779 811.575 L 113.805 811.985 L 114.840 812.369 L 115.884 812.729 L 116.937 813.062 L 117.998 813.370 L 119.066 813.651 L 120.140 813.907 L 121.221 814.135 L 122.307 814.337 L 123.397 814.513 L 124.492 814.662 L 125.589 814.783 L 126.690 814.878 L 127.792 814.946 L 128.896 814.986 L 130.000 815.000 L 300.000 815.000 L 470.000 815.000 L 471.104 814.986 L 472.208 814.946 L 473.310 814.878 L 474.411 814.783 L 475.508 814.662 L 476.603 814.513 L 477.693 814.337 L 478.779 814.135 L 479.860 813.907 L 480.934 813.651 L 482.002 813.370 L 483.063 813.062 L 484.116 812.729 L 485.160 812.369 L 486.195 811.985 L 487.221 811.575 L 488.236 811.139 L 489.240 810.680 L 490.233 810.195 L 491.213 809.686 L 492.180 809.154 L 493.135 808.598 L 494.075 808.018 L 495.001 807.416 L 495.911 806.791 L 496.806 806.144 L 497.685 805.476 L 498.548 804.785 L 499.393 804.074 L 500.220 803.343 L 501.029 802.591 L 501.820 801.820 L 502.591 801.029 L 503.343 800.220 L 504.074 799.393 L 504.785 798.548 L 505.476 797.685 L 506.144 796.806 L 506.791 795.911 L 507.416 795.001 L 508.018 794.075 L 508.598 793.135 L 509.154 792.180 L 509.686 791.213 L 510.195 790.233 L 510.680 789.240 L 511.139 788.236 L 511.575 787.221 L 511.985 786.195 L 512.369 785.160 L 512.729 784.116 L 513.062 783.063 L 513.370 782.002 L 513.651 780.934 L 513.907 779.860 L 514.135 778.779 L 514.337 777.693 L 514.513 776.603 L 514.662 775.508 L 514.783 774.411 L 514.878 773.310 L 514.946 772.208 L 514.986 771.104 L 515.000 770.000 L 515.000 360.000 L 514.986 358.896 L 514.946 357.792 L 514.878 356.690 L 514.783 355.589 L 514.662 354.492 L 514.513 353.397 L 514.337 352.307 L 514.135 351.221 L 513.907 350.140 L 513.651 349.066 L 513.370 347.998 L 513.062 346.937 L 512.729 345.884 L 512.369 344.840 L 511.985 343.805 L 511.575 342.779 L 511.139 341.764 L 510.680 340.760 L 510.195 339.767 L 509.686 338.787 L 509.154 337.820 L 508.598 336.865 L 508.018 335.925 L 507.416 334.999 L 506.791 334.089 L 506.144 333.194 L 505.476 332.315 L 504.785 331.452 L 504.074 330.607 L 503.343 329.780 L 502.591 328.971 L 501.820 328.180 L 501.029 327.409 L 500.220 326.657 L 499.393 325.926 L 498.548 325.215 L 497.685 324.524 L 496.806 323.856 L 495.911 323.209 L 495.001 322.584 L 494.075 321.982 L 493.135 321.402 L 492.180 320.846 L 491.213 320.314 L 490.233 319.805 L 489.240 319.320 L 488.236 318.861 L 487.221 318.425 L 486.195 318.015 L 485.160 317.631 L 484.116 317.271 L 483.063 316.938 L 482.002 316.630 L 480.934 316.349 L 479.860 316.093 L 478.779 315.865 L 477.693 315.663 L 476.603 315.487 L 475.508 315.338 L 474.411 315.217 L 473.310 315.122 L 472.208 315.054 L 471.104 315.014 L 470.000 315.000 L 468.896 315.014 L 467.792 315.054 L 466.690 315.122 L 465.589 315.217 L 464.492 315.338 L 463.397 315.487 L 462.307 315.663 L 461.221 315.865 L 460.140 316.093 L 459.066 316.349 L 457.998 316.630 L 456.937 316.938 L 455.884 317.271 L 454.840 317.631 L 453.805 318.015 L 452.779 318.425 L 451.764 318.861 L 450.760 319.320 L 449.767 319.805 L 448.787 320.314 L 447.820 320.846 L 446.865 321.402 L 445.925 321.982 L 444.999 322.584 L 444.089 323.209 L 443.194 323.856 L 442.315 324.524 L 441.452 325.215 L 440.607 325.926 L 439.780 326.657 L 438.971 327.409 L 438.180 328.180 L 437.409 328.971 L 436.657 329.780 L 435.926 330.607 L 435.215 331.452 L 434.524 332.315 L 433.856 333.194 L 433.209 334.089 L 432.584 334.999 L 431.982 335.925 L 431.402 336.865 L 430.846 337.820 L 430.314 338.787 L 429.805 339.767 L 429.320 340.760 L 428.861 341.764 L 428.425 342.779 L 428.015 343.805 L 427.631 344.840 L 427.271 345.884 L 426.938 346.937 L 426.630 347.998 L 426.349 349.066 L 426.093 350.140 L 425.865 351.221 L 425.663 352.307 L 425.487 353.397 L 425.338 354.492 L 425.217 355.589 L 425.122 356.690 L 425.054 357.792 L 425.014 358.896 L 425.000 360.000 L 425.000 725.000 L 345.000 725.000 L 345.000 360.000 L 344.986 358.896 L 344.946 357.792 L 344.878 356.690 L 344.783 355.589 L 344.662 354.492 L 344.513 353.397 L 344.337 352.307 L 344.135 351.221 L 343.907 350.140 L 343.651 349.066 L 343.370 347.998 L 343.062 346.937 L 342.729 345.884 L 342.369 344.840 L 341.985 343.805 L 341.575 342.779 L 341.139 341.764 L 340.680 340.760 L 340.195 339.767 L 339.686 338.787 L 339.154 337.820 L 338.598 336.865 L 338.018 335.925 L 337.416 334.999 L 336.791 334.089 L 336.144 333.194 L 335.476 332.315 L 334.785 331.452 L 334.074 330.607 L 333.343 329.780 L 332.591 328.971 L 331.820 328.180 L 331.029 327.409 L 330.220 326.657 L 329.393 325.926 L 328.548 325.215 L 327.685 324.524 L 326.806 323.856 L 325.911 323.209 L 325.001 322.584 L 324.075 321.982 L 323.135 321.402 L 322.180 320.846 L 321.213 320.314 L 320.233 319.805 L 319.240 319.320 L 318.236 318.861 L 317.221 318.425 L 316.195 318.015 L 315.160 317.631 L 314.116 317.271 L 313.063 316.938 L 312.002 316.630 L 310.934 316.349 L 309.860 316.093 L 308.779 315.865 L 307.693 315.663 L 306.603 315.487 L 305.508 315.338 L 304.411 315.217 L 303.310 315.122 L 302.208 315.054 L 301.104 315.014 L 300.000 315.000 L 298.896 315.014 L 297.792 315.054 L 296.690 315.122 L 295.589 315.217 L 294.492 315.338 L 293.397 315.487 L 292.307 315.663 L 291.221 315.865 L 290.140 316.093 L 289.066 316.349 L 287.998 316.630 L 286.937 316.938 L 285.884 317.271 L 284.840 317.631 L 283.805 318.015 L 282.779 318.425 L 281.764 318.861 L 280.760 319.320 L 279.767 319.805 L 278.787 320.314 L 277.820 320.846 L 276.865 321.402 L 275.925 321.982 L 274.999 322.584 L 274.089 323.209 L 273.194 323.856 L 272.315 324.524 L 271.452 325.215 L 270.607 325.926 L 269.780 326.657 L 268.971 327.409 L 268.180 328.180 L 267.409 328.971 L 266.657 329.780 L 265.926 330.607 L 265.215 331.452 L 264.524 332.315 L 263.856 333.194 L 263.209 334.089 L 262.584 334.999 L 261.982 335.925 L 261.402 336.865 L 260.846 337.820 L 260.314 338.787 L 259.805 339.767 L 259.320 340.760 L 258.861 341.764 L 258.425 342.779 L 258.015 343.805 L 257.631 344.840 L 257.271 345.884 L 256.938 346.937 L 256.630 347.998 L 256.349 349.066 L 256.093 350.140 L 255.865 351.221 L 255.663 352.307 L 255.487 353.397 L 255.338 354.492 L 255.217 355.589 L 255.122 356.690 L 255.054 357.792 L 255.014 358.896 L 255.000 360.000 L 255.000 725.000 L 175.000 725.000 L 175.000 360.000 L 174.986 358.896 L 174.946 357.792 L 174.878 356.690 L 174.783 355.589 L 174.662 354.492 L 174.513 353.397 L 174.337 352.307 L 174.135 351.221 L 173.907 350.140 L 173.651 349.066 L 173.370 347.998 L 173.062 346.937 L 172.729 345.884 L 172.369 344.840 L 171.985 343.805 L 171.575 342.779 L 171.139 341.764 L 170.680 340.760 L 170.195 339.767 L 169.686 338.787 L 169.154 337.820 L 168.598 336.865 L 168.018 335.925 L 167.416 334.999 L 166.791 334.089 L 166.144 333.194 L 165.476 332.315 L 164.785 331.452 L 164.074 330.607 L 163.343 329.780 L 162.591 328.971 L 161.820 328.180 L 161.029 327.409 L 160.220 326.657 L 159.393 325.926 L 158.548 325.215 L 157.685 324.524 L 156.806 323.856 L 155.911 323.209 L 155.001 322.584 L 154.075 321.982 L 153.135 321.402 L 152.180 320.846 L 151.213 320.314 L 150.233 319.805 L 149.240 319.320 L 148.236 318.861 L 147.221 318.425 L 146.195 318.015 L 145.160 317.631 L 144.116 317.271 L 143.063 316.938 L 142.002 316.630 L 140.934 316.349 L 139.860 316.093 L 138.779 315.865 L 137.693 315.663 L 136.603 315.487 L 135.508 315.338 L 134.411 315.217 L 133.310 315.122 L 132.208 315.054 L 131.104 315.014 L 130.000 315.000 L 128.896 315.014 L 127.792 315.054 L 126.690 315.122 L 125.589 315.217 L 124.492 315.338 L 123.397 315.487 L 122.307 315.663 L 121.221 315.865 L 120.140 316.093 L 119.066 316.349 L 117.998 316.630 L 116.937 316.938 L 115.884 317.271 L 114.840 317.631 L 113.805 318.015 L 112.779 318.425 L 111.764 318.861 L 110.760 319.320 L 109.767 319.805 L 108.787 320.314 L 107.820 320.846 L 106.865 321.402 L 105.925 321.982 L 104.999 322.584 L 104.089 323.209 L 103.194 323.856 L 102.315 324.524 L 101.452 325.215 L 100.607 325.926 L 99.780 326.657 L 98.971 327.409 L 98.180 328.180 L 97.409 328.971 L 96.657 329.780 L 95.926 330.607 L 95.215 331.452 L 94.524 332.315 L 93.856 333.194 L 93.209 334.089 L 92.584 334.999 L 91.982 335.925 L 91.402 336.865 L 90.846 337.820 L 90.314 338.787 L 89.805 339.767 L 89.320 340.760 L 88.861 341.764 L 88.425 342.779 L 88.015 343.805 L 87.631 344.840 L 87.271 345.884 L 86.938 346.937 L 86.630 347.998 L 86.349 349.066 L 86.093 350.140 L 85.865 351.221 L 85.663 352.307 L 85.487 353.397 L 85.338 354.492 L 85.217 355.589 L 85.122 356.690 L 85.054 357.792 L 85.014 358.896 L 85.000 360.000 L 85.000 770.000 L 85.014 771.104 Z" fill="black" fill-rule="evenodd"/>
</svg>
