<svg xmlns="http://www.w3.org/2000/svg" viewBox="0 0 600.000 1000.000">
  <path d="M 430.054,257.792 L 430.217,255.589 L 430.487,253.397 L 430.865,251.221 L 431.349,249.066 L 431.938,246.937 L 432.631,244.840 L 433.425,242.779 L 434.320,240.760 L 435.314,238.787 L 436.402,236.865 L 437.584,234.999 L 438.856,233.194 L 440.215,231.452 L 441.657,229.780 L 443.180,228.180 L 444.780,226.657 L 446.452,225.215 L 448.194,223.856 L 449.999,222.584 L 451.865,221.402 L 453.787,220.314 L 455.760,219.320 L 457.779,218.425 L 459.840,217.631 L 461.937,216.938 L 464.066,216.349 L 466.221,215.865 L 468.397,215.487 L 470.589,215.217 L 472.792,215.054 L 475.000,215.000 L 477.208,215.054 L 479.411,215.217 L 481.603,215.487 L 483.779,215.865 L 485.934,216.349 L 488.063,216.938 L 490.160,217.631 L 492.221,218.425 L 494.240,219.320 L 496.213,220.314 L 498.135,221.402 L 500.001,222.584 L 501.806,223.856 L 503.548,225.215 L 505.220,226.657 L 506.820,228.180 L 508.343,229.780 L 509.785,231.452 L 511.144,233.194 L 512.416,234.999 L 513.598,236.865 L 514.686,238.787 L 515.680,240.760 L 516.575,242.779 L 517.369,244.840 L 518.062,246.937 L 518.651,249.066 L 519.135,251.221 L 519.513,253.397 L 519.783,255.589 L 519.946,257.792 L 520.000,260.000 L 520.000,395.720 L 520.000,945.000 L 519.946,947.208 L 519.783,949.411 L 519.513,951.603 L 519.135,953.779 L 518.651,955.934 L 518.062,958.063 L 517.369,960.160 L 516.575,962.221 L 515.680,964.240 L 514.686,966.213 L 513.598,968.135 L 512.416,970.001 L 511.144,971.806 L 509.785,973.548 L 508.343,975.220 L 506.820,976.820 L 505.220,978.343 L 503.548,979.785 L 501.806,981.144 L 500.001,982.416 L 498.135,983.598 L 496.213,984.686 L 494.240,985.680 L 492.221,986.575 L 490.160,987.369 L 488.063,988.062 L 485.934,988.651 L 483.779,989.135 L 481.603,989.513 L 479.411,989.783 L 477.208,989.946 L 475.000,990.000 L 472.792,989.946 L 470.589,989.783 L 468.397,989.513 L 466.221,989.135 L 464.066,988.651 L 461.937,988.062 L 459.840,987.369 L 457.779,986.575 L 455.760,985.680 L 453.787,984.686 L 451.865,983.598 L 449.999,982.416 L 448.194,981.144 L 446.452,979.785 L 444.780,978.343 L 443.180,976.820 L 441.657,975.220 L 440.215,973.548 L 438.856,971.806 L 437.584,970.001 L 436.402,968.135 L 435.314,966.213 L 434.320,964.240 L 433.425,962.221 L 432.631,960.160 L 431.938,958.063 L 431.349,955.934 L 430.865,953.779 L 430.487,951.603 L 430.217,949.411 L 430.054,947.208 L 430.000,945.000 L 430.000,629.618 L 429.846,629.744 L 423.005,635.083 L 421.231,636.398 L 414.136,641.395 L 412.300,642.622 L 404.968,647.265 L 403.074,648.400 L 395.523,652.678 L 393.575,653.719 L 385.824,657.620 L 383.828,658.565 L 375.894,662.081 L 373.854,662.927 L 365.757,666.050 L 363.678,666.794 L 355.438,669.516 L 353.324,670.157 L 344.961,672.471 L 342.818,673.008 L 334.352,674.909 L 332.185,675.340 L 323.635,676.824 L 321.450,677.148 L 312.838,678.210 L 310.640,678.427 L 301.986,679.065 L 299.780,679.173 L 291.104,679.386 L 288.896,679.386 L 280.220,679.173 L 278.014,679.065 L 269.360,678.427 L 267.162,678.210 L 258.550,677.148 L 256.365,676.824 L 247.815,675.340 L 245.648,674.909 L 237.182,673.008 L 235.039,672.471 L 226.676,670.157 L 224.562,669.516 L 216.322,666.794 L 214.243,666.050 L 206.146,662.927 L 204.106,662.081 L 196.172,658.565 L 194.176,657.620 L 186.425,653.719 L 184.477,652.678 L 176.926,648.400 L 175.032,647.265 L 167.700,642.622 L 165.864,641.395 L 158.769,636.398 L 156.995,635.083 L 150.154,629.744 L 148.446,628.343 L 141.876,622.675 L 140.239,621.191 L 133.954,615.208 L 132.392,613.646 L 126.409,607.361 L 124.925,605.724 L 119.257,599.154 L 117.856,597.446 L 112.517,590.605 L 111.202,588.831 L 106.205,581.736 L 104.978,579.900 L 100.335,572.568 L 99.200,570.674 L 94.922,563.123 L 93.881,561.175 L 89.980,553.424 L 89.035,551.428 L 85.519,543.494 L 84.673,541.454 L 81.550,533.357 L 80.806,531.278 L 78.084,523.038 L 77.443,520.924 L 75.129,512.561 L 74.592,510.418 L 72.691,501.952 L 72.260,499.785 L 70.776,491.235 L 70.452,489.050 L 69.390,480.438 L 69.173,478.240 L 68.535,469.586 L 68.427,467.380 L 68.214,458.704 L 68.214,456.496 L 68.427,447.820 L 68.535,445.614 L 69.173,436.960 L 69.390,434.762 L 70.452,426.150 L 70.776,423.965 L 72.260,415.415 L 72.691,413.248 L 74.592,404.782 L 75.129,402.639 L 77.443,394.276 L 78.084,392.162 L 80.806,383.922 L 81.550,381.843 L 84.673,373.746 L 85.519,371.706 L 89.035,363.772 L 89.980,361.776 L 93.881,354.025 L 94.922,352.077 L 99.200,344.526 L 100.335,342.632 L 104.978,335.300 L 106.205,333.464 L 111.202,326.369 L 112.517,324.595 L 117.856,317.754 L 119.257,316.046 L 124.925,309.476 L 126.409,307.839 L 132.392,301.554 L 133.954,299.992 L 140.239,294.009 L 141.876,292.525 L 148.446,286.857 L 150.154,285.456 L 156.995,280.117 L 158.769,278.802 L 165.864,273.805 L 167.700,272.578 L 175.032,267.935 L 176.926,266.800 L 184.477,262.522 L 186.425,261.481 L 194.176,257.580 L 196.172,256.635 L 204.106,253.119 L 206.146,252.273 L 214.243,249.150 L 216.322,248.406 L 224.562,245.684 L 226.676,245.043 L 235.039,242.729 L 237.182,242.192 L 245.648,240.291 L 247.815,239.860 L 256.365,238.376 L 258.550,238.052 L 267.162,236.990 L 269.360,236.773 L 278.014,236.135 L 280.220,236.027 L 288.896,235.814 L 291.104,235.814 L 299.780,236.027 L 301.986,236.135 L 310.640,236.773 L 312.838,236.990 L 321.450,238.052 L 323.635,238.376 L 332.185,239.860 L 334.352,240.291 L 342.818,242.192 L 344.961,242.729 L 353.324,245.043 L 355.438,245.684 L 363.678,248.406 L 365.757,249.150 L 373.854,252.273 L 375.894,253.119 L 383.828,256.635 L 385.824,257.580 L 393.575,261.481 L 395.523,262.522 L 403.074,266.800 L 404.968,267.935 L 412.300,272.578 L 414.136,273.805 L 421.231,278.802 L 423.005,280.117 L 429.846,285.456 L 430.000,285.582 L 430.000,260.000 L 430.054,257.792 Z M 421.152,444.683 L 420.663,440.720 L 290.000,440.720 L 287.792,440.666 L 285.589,440.503 L 283.397,440.233 L 281.221,439.855 L 279.066,439.371 L 276.937,438.782 L 274.840,438.089 L 272.779,437.295 L 270.760,436.400 L 268.787,435.406 L 266.865,434.318 L 264.999,433.136 L 263.194,431.864 L 261.452,430.505 L 259.780,429.063 L 258.180,427.540 L 256.657,425.940 L 255.215,424.268 L 253.856,422.526 L 252.584,420.721 L 251.402,418.855 L 250.314,416.933 L 249.320,414.960 L 248.425,412.941 L 247.631,410.880 L 246.938,408.783 L 246.349,406.654 L 245.865,404.499 L 245.487,402.323 L 245.217,400.131 L 245.054,397.928 L 245.000,395.720 L 245.054,393.512 L 245.217,391.309 L 245.487,389.117 L 245.865,386.941 L 246.349,384.786 L 246.938,382.657 L 247.631,380.560 L 248.425,378.499 L 249.320,376.480 L 250.314,374.507 L 251.402,372.585 L 252.584,370.719 L 253.856,368.914 L 255.215,367.172 L 256.657,365.500 L 258.180,363.900 L 259.780,362.377 L 261.452,360.935 L 263.194,359.576 L 264.999,358.304 L 266.865,357.122 L 268.787,356.034 L 270.760,355.040 L 272.779,354.145 L 274.840,353.351 L 276.937,352.658 L 279.066,352.069 L 281.221,351.585 L 283.397,351.207 L 285.589,350.937 L 287.792,350.774 L 290.000,350.720 L 367.045,350.720 L 363.217,348.024 L 357.752,344.563 L 352.124,341.375 L 346.346,338.466 L 340.432,335.845 L 334.398,333.517 L 328.256,331.488 L 322.021,329.763 L 315.710,328.346 L 309.337,327.240 L 302.917,326.448 L 296.466,325.972 L 290.000,325.814 L 283.534,325.972 L 277.083,326.448 L 270.663,327.240 L 264.290,328.346 L 257.979,329.763 L 251.744,331.488 L 245.602,333.517 L 239.568,335.845 L 233.654,338.466 L 227.876,341.375 L 222.248,344.563 L 216.783,348.024 L 211.495,351.748 L 206.396,355.728 L 201.498,359.953 L 196.813,364.413 L 192.353,369.098 L 188.128,373.996 L 184.148,379.095 L 180.424,384.383 L 176.963,389.848 L 173.775,395.476 L 170.866,401.254 L 168.245,407.168 L 165.917,413.202 L 163.888,419.344 L 162.163,425.579 L 160.746,431.890 L 159.640,438.263 L 158.848,444.683 L 158.372,451.134 L 158.214,457.600 L 158.372,464.066 L 158.848,470.517 L 159.640,476.937 L 160.746,483.310 L 162.163,489.621 L 163.888,495.856 L 165.917,501.998 L 168.245,508.032 L 170.866,513.946 L 173.775,519.724 L 176.963,525.352 L 180.424,530.817 L 184.148,536.105 L 188.128,541.204 L 192.353,546.102 L 196.813,550.787 L 201.498,555.247 L 206.396,559.472 L 211.495,563.452 L 216.783,567.176 L 222.248,570.637 L 227.876,573.825 L 233.654,576.734 L 239.568,579.355 L 245.602,581.683 L 251.744,583.712 L 257.979,585.437 L 264.290,586.854 L 270.663,587.960 L 277.083,588.752 L 283.534,589.228 L 290.000,589.386 L 296.466,589.228 L 302.917,588.752 L 309.337,587.960 L 315.710,586.854 L 322.021,585.437 L 328.256,583.712 L 334.398,581.683 L 340.432,579.355 L 346.346,576.734 L 352.124,573.825 L 357.752,570.637 L 363.217,567.176 L 368.505,563.452 L 373.604,559.472 L 378.502,555.247 L 383.187,550.787 L 387.647,546.102 L 391.872,541.204 L 395.852,536.105 L 399.576,530.817 L 403.037,525.352 L 406.225,519.724 L 409.134,513.946 L 411.755,508.032 L 414.083,501.998 L 416.112,495.856 L 417.837,489.621 L 419.254,483.310 L 420.360,476.937 L 421.152,470.517 L 421.628,464.066 L 421.786,457.600 L 421.628,451.134 L 421.152,444.683 Z" fill="black" fill-rule="evenodd"/>
</svg>
