<svg xmlns="http://www.w3.org/2000/svg" viewBox="0 0 600.000 1000">
  <path d="M 414.828 279.172 L 411.048 275.434 L 410.204 274.621 L 406.359 271.011 L 405.480 270.207 L 401.572 266.727 L 400.658 265.936 L 396.688 262.588 L 395.738 261.809 L 391.709 258.596 L 390.724 257.832 L 386.638 254.755 L 385.617 254.008 L 381.477 251.069 L 380.419 250.340 L 376.229 247.542 L 375.134 246.833 L 370.895 244.176 L 369.764 243.491 L 365.478 240.976 L 364.313 240.316 L 359.983 237.946 L 358.782 237.312 L 354.411 235.089 L 353.176 234.485 L 348.766 232.409 L 347.498 231.835 L 343.053 229.908 L 341.752 229.369 L 337.274 227.591 L 335.943 227.087 L 331.434 225.461 L 330.074 224.995 L 325.537 223.521 L 324.151 223.095 L 319.589 221.773 L 318.177 221.389 L 313.593 220.221 L 312.159 219.880 L 307.555 218.867 L 306.101 218.572 L 301.481 217.713 L 300.010 217.465 L 295.375 216.761 L 293.890 216.561 L 289.244 216.014 L 287.747 215.863 L 283.093 215.471 L 281.588 215.370 L 276.928 215.135 L 275.418 215.085 L 270.756 215.006 L 269.244 215.006 L 264.582 215.085 L 263.072 215.135 L 258.412 215.370 L 256.907 215.471 L 252.253 215.863 L 250.756 216.014 L 246.110 216.561 L 244.625 216.761 L 239.990 217.465 L 238.519 217.713 L 233.899 218.572 L 232.445 218.867 L 227.841 219.880 L 226.407 220.221 L 221.823 221.389 L 220.411 221.773 L 215.849 223.095 L 214.463 223.521 L 209.926 224.995 L 208.566 225.461 L 204.057 227.087 L 202.726 227.591 L 198.248 229.369 L 196.947 229.908 L 192.502 231.835 L 191.234 232.409 L 186.824 234.485 L 185.589 235.089 L 181.218 237.312 L 180.017 237.946 L 175.687 240.316 L 174.522 240.976 L 170.236 243.491 L 169.105 244.176 L 164.866 246.833 L 163.771 247.542 L 159.581 250.340 L 158.523 251.069 L 154.383 254.008 L 153.362 254.755 L 149.276 257.832 L 148.291 258.596 L 144.262 261.809 L 143.312 262.588 L 139.342 265.936 L 138.428 266.727 L 134.520 270.207 L 133.641 271.011 L 129.796 274.621 L 128.952 275.434 L 125.172 279.172 L 124.362 279.994 L 120.651 283.858 L 119.875 284.687 L 116.234 288.675 L 115.490 289.510 L 111.922 293.618 L 111.210 294.459 L 107.717 298.686 L 107.036 299.530 L 103.619 303.873 L 102.969 304.720 L 99.631 309.177 L 99.010 310.027 L 95.754 314.594 L 95.161 315.445 L 91.988 320.120 L 91.423 320.972 L 88.334 325.752 L 87.797 326.604 L 84.795 331.487 L 84.284 332.339 L 81.370 337.321 L 80.885 338.172 L 78.061 343.251 L 77.600 344.101 L 74.868 349.273 L 74.432 350.121 L 71.794 355.383 L 71.380 356.230 L 68.837 361.579 L 68.446 362.424 L 66.000 367.857 L 65.630 368.700 L 63.282 374.213 L 62.934 375.054 L 60.685 380.645 L 60.358 381.483 L 58.210 387.148 L 57.903 387.984 L 55.857 393.718 L 55.569 394.552 L 53.627 400.354 L 53.358 401.185 L 51.521 407.050 L 51.270 407.879 L 49.538 413.804 L 49.305 414.631 L 47.680 420.613 L 47.465 421.437 L 45.948 427.471 L 45.749 428.293 L 44.341 434.377 L 44.159 435.197 L 42.860 441.326 L 42.695 442.144 L 41.506 448.314 L 41.357 449.131 L 40.279 455.339 L 40.146 456.154 L 39.180 462.397 L 39.062 463.210 L 38.208 469.483 L 38.105 470.295 L 37.364 476.595 L 37.276 477.406 L 36.649 483.729 L 36.576 484.538 L 36.062 490.881 L 36.004 491.689 L 35.604 498.047 L 35.560 498.855 L 35.274 505.224 L 35.245 506.032 L 35.074 512.409 L 35.059 513.216 L 35.002 519.596 L 35.002 520.404 L 35.059 526.784 L 35.074 527.591 L 35.245 533.968 L 35.274 534.776 L 35.560 541.145 L 35.604 541.953 L 36.004 548.311 L 36.062 549.119 L 36.576 555.462 L 36.649 556.271 L 37.276 562.594 L 37.364 563.405 L 38.105 569.705 L 38.208 570.517 L 39.062 576.790 L 39.180 577.603 L 40.146 583.846 L 40.279 584.661 L 41.357 590.869 L 41.506 591.686 L 42.695 597.856 L 42.860 598.674 L 44.159 604.803 L 44.341 605.623 L 45.749 611.707 L 45.948 612.529 L 47.465 618.563 L 47.680 619.387 L 49.305 625.369 L 49.538 626.196 L 51.270 632.121 L 51.521 632.950 L 53.358 638.815 L 53.627 639.646 L 55.569 645.448 L 55.857 646.282 L 57.903 652.016 L 58.210 652.852 L 60.358 658.517 L 60.685 659.355 L 62.934 664.946 L 63.282 665.787 L 65.630 671.300 L 66.000 672.143 L 68.446 677.576 L 68.837 678.421 L 71.380 683.770 L 71.794 684.617 L 74.432 689.879 L 74.868 690.727 L 77.600 695.899 L 78.061 696.749 L 80.885 701.828 L 81.370 702.679 L 84.284 707.661 L 84.795 708.513 L 87.797 713.396 L 88.334 714.248 L 91.423 719.028 L 91.988 719.880 L 95.161 724.555 L 95.754 725.406 L 99.010 729.973 L 99.631 730.823 L 102.969 735.280 L 103.619 736.127 L 107.036 740.470 L 107.717 741.314 L 111.210 745.541 L 111.922 746.382 L 115.490 750.490 L 116.234 751.325 L 119.875 755.313 L 120.651 756.142 L 124.362 760.006 L 125.172 760.828 L 128.952 764.566 L 129.796 765.379 L 133.641 768.989 L 134.520 769.793 L 138.428 773.273 L 139.342 774.064 L 143.312 777.412 L 144.262 778.191 L 148.291 781.404 L 149.276 782.168 L 153.362 785.245 L 154.383 785.992 L 158.523 788.931 L 159.581 789.660 L 163.771 792.458 L 164.866 793.167 L 169.105 795.824 L 170.236 796.509 L 174.522 799.024 L 175.687 799.684 L 180.017 802.054 L 181.218 802.688 L 185.589 804.911 L 186.824 805.515 L 191.234 807.591 L 192.502 808.165 L 196.947 810.092 L 198.248 810.631 L 202.726 812.409 L 204.057 812.913 L 208.566 814.539 L 209.926 815.005 L 214.463 816.479 L 215.849 816.905 L 220.411 818.227 L 221.823 818.611 L 226.407 819.779 L 227.841 820.120 L 232.445 821.133 L 233.899 821.428 L 238.519 822.287 L 239.990 822.535 L 244.625 823.239 L 246.110 823.439 L 250.756 823.986 L 252.253 824.137 L 256.907 824.529 L 258.412 824.630 L 263.072 824.865 L 264.582 824.915 L 269.244 824.994 L 270.756 824.994 L 275.418 824.915 L 276.928 824.865 L 281.588 824.630 L 283.093 824.529 L 287.747 824.137 L 289.244 823.986 L 293.890 823.439 L 295.375 823.239 L 300.010 822.535 L 301.481 822.287 L 306.101 821.428 L 307.555 821.133 L 312.159 820.120 L 313.593 819.779 L 318.177 818.611 L 319.589 818.227 L 324.151 816.905 L 325.537 816.479 L 330.074 815.005 L 331.434 814.539 L 335.943 812.913 L 337.274 812.409 L 341.752 810.631 L 343.053 810.092 L 347.498 808.165 L 348.766 807.591 L 353.176 805.515 L 354.411 804.911 L 358.782 802.688 L 359.983 802.054 L 364.313 799.684 L 365.478 799.024 L 369.764 796.509 L 370.895 795.824 L 375.134 793.167 L 376.229 792.458 L 380.419 789.660 L 381.477 788.931 L 385.617 785.992 L 386.638 785.245 L 390.724 782.168 L 391.709 781.404 L 395.738 778.191 L 396.688 777.412 L 400.658 774.064 L 401.572 773.273 L 405.480 769.793 L 406.359 768.989 L 410.204 765.379 L 411.048 764.566 L 414.828 760.828 L 415.000 760.653 L 415.000 1000.000 L 415.014 1001.104 L 415.054 1002.208 L 415.122 1003.310 L 415.217 1004.411 L 415.338 1005.508 L 415.487 1006.603 L 415.663 1007.693 L 415.865 1008.779 L 416.093 1009.860 L 416.349 1010.934 L 416.630 1012.002 L 416.938 1013.063 L 417.271 1014.116 L 417.631 1015.160 L 418.015 1016.195 L 418.425 1017.221 L 418.861 1018.236 L 419.320 1019.240 L 419.805 1020.233 L 420.314 1021.213 L 420.846 1022.180 L 421.402 1023.135 L 421.982 1024.075 L 422.584 1025.001 L 423.209 1025.911 L 423.856 1026.806 L 424.524 1027.685 L 425.215 1028.548 L 425.926 1029.393 L 426.657 1030.220 L 427.409 1031.029 L 428.180 1031.820 L 428.971 1032.591 L 429.780 1033.343 L 430.607 1034.074 L 431.452 1034.785 L 432.315 1035.476 L 433.194 1036.144 L 434.089 1036.791 L 434.999 1037.416 L 435.925 1038.018 L 436.865 1038.598 L 437.820 1039.154 L 438.787 1039.686 L 439.767 1040.195 L 440.760 1040.680 L 441.764 1041.139 L 442.779 1041.575 L 443.805 1041.985 L 444.840 1042.369 L 445.884 1042.729 L 446.937 1043.062 L 447.998 1043.370 L 449.066 1043.651 L 450.140 1043.907 L 451.221 1044.135 L 452.307 1044.337 L 453.397 1044.513 L 454.492 1044.662 L 455.589 1044.783 L 456.690 1044.878 L 457.792 1044.946 L 458.896 1044.986 L 460.000 1045.000 L 461.104 1044.986 L 462.208 1044.946 L 463.310 1044.878 L 464.411 1044.783 L 465.508 1044.662 L 466.603 1044.513 L 467.693 1044.337 L 468.779 1044.135 L 469.860 1043.907 L 470.934 1043.651 L 472.002 1043.370 L 473.063 1043.062 L 474.116 1042.729 L 475.160 1042.369 L 476.195 1041.985 L 477.221 1041.575 L 478.236 1041.139 L 479.240 1040.680 L 480.233 1040.195 L 481.213 1039.686 L 482.180 1039.154 L 483.135 1038.598 L 484.075 1038.018 L 485.001 1037.416 L 485.911 1036.791 L 486.806 1036.144 L 487.685 1035.476 L 488.548 1034.785 L 489.393 1034.074 L 490.220 1033.343 L 491.029 1032.591 L 491.820 1031.820 L 492.591 1031.029 L 493.343 1030.220 L 494.074 1029.393 L 494.785 1028.548 L 495.476 1027.685 L 496.144 1026.806 L 496.791 1025.911 L 497.416 1025.001 L 498.018 1024.075 L 498.598 1023.135 L 499.154 1022.180 L 499.686 1021.213 L 500.195 1020.233 L 500.680 1019.240 L 501.139 1018.236 L 501.575 1017.221 L 501.985 1016.195 L 502.369 1015.160 L 502.729 1014.116 L 503.062 1013.063 L 503.370 1012.002 L 503.651 1010.934 L 503.907 1009.860 L 504.135 1008.779 L 504.337 1007.693 L 504.513 1006.603 L 504.662 1005.508 L 504.783 1004.411 L 504.878 1003.310 L 504.946 1002.208 L 504.986 1001.104 L 505.000 1000.000 L 505.000 260.000 L 504.986 258.896 L 504.946 257.792 L 504.878 256.690 L 504.783 255.589 L 504.662 254.492 L 504.513 253.397 L 504.337 252.307 L 504.135 251.221 L 503.907 250.140 L 503.651 249.066 L 503.370 247.998 L 503.062 246.937 L 502.729 245.884 L 502.369 244.840 L 501.985 243.805 L 501.575 242.779 L 501.139 241.764 L 500.680 240.760 L 500.195 239.767 L 499.686 238.787 L 499.154 237.820 L 498.598 236.865 L 498.018 235.925 L 497.416 234.999 L 496.791 234.089 L 496.144 233.194 L 495.476 232.315 L 494.785 231.452 L 494.074 230.607 L 493.343 229.780 L 492.591 228.971 L 491.820 228.180 L 491.029 227.409 L 490.220 226.657 L 489.393 225.926 L 488.548 225.215 L 487.685 224.524 L 486.806 223.856 L 485.911 223.209 L 485.001 222.584 L 484.075 221.982 L 483.135 221.402 L 482.180 220.846 L 481.213 220.314 L 480.233 219.805 L 479.240 219.320 L 478.236 218.861 L 477.221 218.425 L 476.195 218.015 L 475.160 217.631 L 474.116 217.271 L 473.063 216.938 L 472.002 216.630 L 470.934 216.349 L 469.860 216.093 L 468.779 215.865 L 467.693 215.663 L 466.603 215.487 L 465.508 215.338 L 464.411 215.217 L 463.310 215.122 L 462.208 215.054 L 461.104 215.014 L 460.000 215.000 L 458.896 215.014 L 457.792 215.054 L 456.690 215.122 L 455.589 215.217 L 454.492 215.338 L 453.397 215.487 L 452.307 215.663 L 451.221 215.865 L 450.140 216.093 L 449.066 216.349 L 447.998 216.630 L 446.937 216.938 L 445.884 217.271 L 444.840 217.631 L 443.805 218.015 L 442.779 218.425 L 441.764 218.861 L 440.760 219.320 L 439.767 219.805 L 438.787 220.314 L 437.820 220.846 L 436.865 221.402 L 435.925 221.982 L 434.999 222.584 L 434.089 223.209 L 433.194 223.856 L 432.315 224.524 L 431.452 225.215 L 430.607 225.926 L 429.780 226.657 L 428.971 227.409 L 428.180 228.180 L 427.409 228.971 L 426.657 229.780 L 425.926 230.607 L 425.215 231.452 L 424.524 232.315 L 423.856 233.194 L 423.209 234.089 L 422.584 234.999 L 421.982 235.925 L 421.402 236.865 L 420.846 237.820 L 420.314 238.787 L 419.805 239.767 L 419.320 240.760 L 418.861 241.764 L 418.425 242.779 L 418.015 243.805 L 417.631 244.840 L 417.271 245.884 L 416.938 246.937 L 416.630 247.998 L 416.349 249.066 L 416.093 250.140 L 415.865 251.221 L 415.663 252.307 L 415.487 253.397 L 415.338 254.492 L 415.217 255.589 L 415.122 256.690 L 415.054 257.792 L 415.014 258.896 L 415.000 260.000 L 415.000 279.347 L 414.828 279.172 Z M 414.948 525.573 L 414.798 531.143 L 414.549 536.704 L 414.199 542.254 L 413.751 547.787 L 413.204 553.300 L 412.558 558.789 L 411.815 564.250 L 410.976 569.678 L 410.040 575.071 L 409.009 580.424 L 407.883 585.734 L 406.665 590.996 L 405.355 596.206 L 403.955 601.362 L 402.465 606.459 L 400.888 611.494 L 399.225 616.463 L 397.478 621.362 L 395.648 626.189 L 393.737 630.939 L 391.747 635.610 L 389.681 640.199 L 387.541 644.701 L 385.328 649.115 L 383.045 653.437 L 380.694 657.665 L 378.279 661.795 L 375.800 665.825 L 373.262 669.753 L 370.667 673.577 L 368.016 677.294 L 365.314 680.901 L 362.563 684.398 L 359.766 687.783 L 356.926 691.053 L 354.046 694.208 L 351.128 697.246 L 348.175 700.166 L 345.192 702.967 L 342.179 705.649 L 339.141 708.211 L 336.080 710.653 L 332.998 712.973 L 329.899 715.174 L 326.784 717.254 L 323.657 719.214 L 320.519 721.055 L 317.373 722.777 L 314.220 724.380 L 311.062 725.867 L 307.901 727.237 L 304.738 728.492 L 301.575 729.633 L 298.411 730.662 L 295.248 731.578 L 292.087 732.383 L 288.927 733.079 L 285.769 733.666 L 282.613 734.145 L 279.458 734.517 L 276.304 734.782 L 273.152 734.941 L 270.000 734.994 L 266.848 734.941 L 263.696 734.782 L 260.542 734.517 L 257.387 734.145 L 254.231 733.666 L 251.073 733.079 L 247.913 732.383 L 244.752 731.578 L 241.589 730.662 L 238.425 729.633 L 235.262 728.492 L 232.099 727.237 L 228.938 725.867 L 225.780 724.380 L 222.627 722.777 L 219.481 721.055 L 216.343 719.214 L 213.216 717.254 L 210.101 715.174 L 207.002 712.973 L 203.920 710.653 L 200.859 708.211 L 197.821 705.649 L 194.808 702.967 L 191.825 700.166 L 188.872 697.246 L 185.954 694.208 L 183.074 691.053 L 180.234 687.783 L 177.437 684.398 L 174.686 680.901 L 171.984 677.294 L 169.333 673.577 L 166.738 669.753 L 164.200 665.825 L 161.721 661.795 L 159.306 657.665 L 156.955 653.437 L 154.672 649.115 L 152.459 644.701 L 150.319 640.199 L 148.253 635.610 L 146.263 630.939 L 144.352 626.189 L 142.522 621.362 L 140.775 616.463 L 139.112 611.494 L 137.535 606.459 L 136.045 601.362 L 134.645 596.206 L 133.335 590.996 L 132.117 585.734 L 130.991 580.424 L 129.960 575.071 L 129.024 569.678 L 128.185 564.250 L 127.442 558.789 L 126.796 553.300 L 126.249 547.787 L 125.801 542.254 L 125.451 536.704 L 125.202 531.143 L 125.052 525.573 L 125.002 520.000 L 125.052 514.427 L 125.202 508.857 L 125.451 503.296 L 125.801 497.746 L 126.249 492.213 L 126.796 486.700 L 127.442 481.211 L 128.185 475.750 L 129.024 470.322 L 129.960 464.929 L 130.991 459.576 L 132.117 454.266 L 133.335 449.004 L 134.645 443.794 L 136.045 438.638 L 137.535 433.541 L 139.112 428.506 L 140.775 423.537 L 142.522 418.638 L 144.352 413.811 L 146.263 409.061 L 148.253 404.390 L 150.319 399.801 L 152.459 395.299 L 154.672 390.885 L 156.955 386.563 L 159.306 382.335 L 161.721 378.205 L 164.200 374.175 L 166.738 370.247 L 169.333 366.423 L 171.984 362.706 L 174.686 359.099 L 177.437 355.602 L 180.234 352.217 L 183.074 348.947 L 185.954 345.792 L 188.872 342.754 L 191.825 339.834 L 194.808 337.033 L 197.821 334.351 L 200.859 331.789 L 203.920 329.347 L 207.002 327.027 L 210.101 324.826 L 213.216 322.746 L 216.343 320.786 L 219.481 318.945 L 222.627 317.223 L 225.780 315.620 L 228.938 314.133 L 232.099 312.763 L 235.262 311.508 L 238.425 310.367 L 241.589 309.338 L 244.752 308.422 L 247.913 307.617 L 251.073 306.921 L 254.231 306.334 L 257.387 305.855 L 260.542 305.483 L 263.696 305.218 L 266.848 305.059 L 270.000 305.006 L 273.152 305.059 L 276.304 305.218 L 279.458 305.483 L 282.613 305.855 L 285.769 306.334 L 288.927 306.921 L 292.087 307.617 L 295.248 308.422 L 298.411 309.338 L 301.575 310.367 L 304.738 311.508 L 307.901 312.763 L 311.062 314.133 L 314.220 315.620 L 317.373 317.223 L 320.519 318.945 L 323.657 320.786 L 326.784 322.746 L 329.899 324.826 L 332.998 327.027 L 336.080 329.347 L 339.141 331.789 L 342.179 334.351 L 345.192 337.033 L 348.175 339.834 L 351.128 342.754 L 354.046 345.792 L 356.926 348.947 L 359.766 352.217 L 362.563 355.602 L 365.314 359.099 L 368.016 362.706 L 370.667 366.423 L 373.262 370.247 L 375.800 374.175 L 378.279 378.205 L 380.694 382.335 L 383.045 386.563 L 385.328 390.885 L 387.541 395.299 L 389.681 399.801 L 391.747 404.390 L 393.737 409.061 L 395.648 413.811 L 397.478 418.638 L 399.225 423.537 L 400.888 428.506 L 402.465 433.541 L 403.955 438.638 L 405.355 443.794 L 406.665 449.004 L 407.883 454.266 L 409.009 459.576 L 410.040 464.929 L 410.976 470.322 L 411.815 475.750 L 412.558 481.211 L 413.204 486.700 L 413.751 492.213 L 414.199 497.746 L 414.549 503.296 L 414.798 508.857 L 414.948 514.427 L 414.998 520.000 L 414.948 525.573 Z" fill="black" fill-rule="evenodd"/>
</svg>
