<svg xmlns="http://www.w3.org/2000/svg" viewBox="0 0 600.000 1000.000">
  <path d="M 175.054,-2.208 L 175.217,-4.411 L 175.487,-6.603 L 175.865,-8.779 L 176.349,-10.934 L 176.938,-13.063 L 177.631,-15.160 L 178.425,-17.221 L 179.320,-19.240 L 180.314,-21.213 L 181.402,-23.135 L 182.584,-25.001 L 183.856,-26.806 L 185.215,-28.548 L 186.657,-30.220 L 188.180,-31.820 L 189.780,-33.343 L 191.452,-34.785 L 193.194,-36.144 L 194.999,-37.416 L 196.865,-38.598 L 198.787,-39.686 L 200.760,-40.680 L 202.779,-41.575 L 204.840,-42.369 L 206.937,-43.062 L 209.066,-43.651 L 211.221,-44.135 L 213.397,-44.513 L 215.589,-44.783 L 217.792,-44.946 L 220.000,-45.000 L 222.208,-44.946 L 224.411,-44.783 L 226.603,-44.513 L 228.779,-44.135 L 230.934,-43.651 L 233.063,-43.062 L 235.160,-42.369 L 237.221,-41.575 L 239.240,-40.680 L 241.213,-39.686 L 243.135,-38.598 L 245.001,-37.416 L 246.806,-36.144 L 248.548,-34.785 L 250.220,-33.343 L 251.820,-31.820 L 253.343,-30.220 L 254.785,-28.548 L 256.144,-26.806 L 257.416,-25.001 L 258.598,-23.135 L 259.686,-21.213 L 260.680,-19.240 L 261.575,-17.221 L 262.369,-15.160 L 263.062,-13.063 L 263.651,-10.934 L 264.135,-8.779 L 264.513,-6.603 L 264.783,-4.411 L 264.946,-2.208 L 265.000,0.000 L 265.000,215.000 L 420.000,215.000 L 422.208,215.054 L 424.411,215.217 L 426.603,215.487 L 428.779,215.865 L 430.934,216.349 L 433.063,216.938 L 435.160,217.631 L 437.221,218.425 L 439.240,219.320 L 441.213,220.314 L 443.135,221.402 L 445.001,222.584 L 446.806,223.856 L 448.548,225.215 L 450.220,226.657 L 451.820,228.180 L 453.343,229.780 L 454.785,231.452 L 456.144,233.194 L 457.416,234.999 L 458.598,236.865 L 459.686,238.787 L 460.680,240.760 L 461.575,242.779 L 462.369,244.840 L 463.062,246.937 L 463.651,249.066 L 464.135,251.221 L 464.513,253.397 L 464.783,255.589 L 464.946,257.792 L 465.000,260.000 L 464.946,262.208 L 464.783,264.411 L 464.513,266.603 L 464.135,268.779 L 463.651,270.934 L 463.062,273.063 L 462.369,275.160 L 461.575,277.221 L 460.680,279.240 L 459.686,281.213 L 458.598,283.135 L 457.416,285.001 L 456.144,286.806 L 454.785,288.548 L 453.343,290.220 L 451.820,291.820 L 450.220,293.343 L 448.548,294.785 L 446.806,296.144 L 445.001,297.416 L 443.135,298.598 L 441.213,299.686 L 439.240,300.680 L 437.221,301.575 L 435.160,302.369 L 433.063,303.062 L 430.934,303.651 L 428.779,304.135 L 426.603,304.513 L 424.411,304.783 L 422.208,304.946 L 420.000,305.000 L 265.000,305.000 L 265.000,780.000 L 264.946,782.208 L 264.783,784.411 L 264.513,786.603 L 264.135,788.779 L 263.651,790.934 L 263.062,793.063 L 262.369,795.160 L 261.575,797.221 L 260.680,799.240 L 259.686,801.213 L 258.598,803.135 L 257.416,805.001 L 256.144,806.806 L 254.785,808.548 L 253.343,810.220 L 251.820,811.820 L 250.220,813.343 L 248.548,814.785 L 246.806,816.144 L 245.001,817.416 L 243.135,818.598 L 241.213,819.686 L 239.240,820.680 L 237.221,821.575 L 235.160,822.369 L 233.063,823.062 L 230.934,823.651 L 228.779,824.135 L 226.603,824.513 L 224.411,824.783 L 222.208,824.946 L 220.000,825.000 L 217.792,824.946 L 215.589,824.783 L 213.397,824.513 L 211.221,824.135 L 209.066,823.651 L 206.937,823.062 L 204.840,822.369 L 202.779,821.575 L 200.760,820.680 L 198.787,819.686 L 196.865,818.598 L 194.999,817.416 L 193.194,816.144 L 191.452,814.785 L 189.780,813.343 L 188.180,811.820 L 186.657,810.220 L 185.215,808.548 L 183.856,806.806 L 182.584,805.001 L 181.402,803.135 L 180.314,801.213 L 179.320,799.240 L 178.425,797.221 L 177.631,795.160 L 176.938,793.063 L 176.349,790.934 L 175.865,788.779 L 175.487,786.603 L 175.217,784.411 L 175.054,782.208 L 175.000,780.000 L 175.000,305.000 L 100.000,305.000 L 97.792,304.946 L 95.589,304.783 L 93.397,304.513 L 91.221,304.135 L 89.066,303.651 L 86.937,303.062 L 84.840,302.369 L 82.779,301.575 L 80.760,300.680 L 78.787,299.686 L 76.865,298.598 L 74.999,297.416 L 73.194,296.144 L 71.452,294.785 L 69.780,293.343 L 68.180,291.820 L 66.657,290.220 L 65.215,288.548 L 63.856,286.806 L 62.584,285.001 L 61.402,283.135 L 60.314,281.213 L 59.320,279.240 L 58.425,277.221 L 57.631,275.160 L 56.938,273.063 L 56.349,270.934 L 55.865,268.779 L 55.487,266.603 L 55.217,264.411 L 55.054,262.208 L 55.000,260.000 L 55.054,257.792 L 55.217,255.589 L 55.487,253.397 L 55.865,251.221 L 56.349,249.066 L 56.938,246.937 L 57.631,244.840 L 58.425,242.779 L 59.320,240.760 L 60.314,238.787 L 61.402,236.865 L 62.584,234.999 L 63.856,233.194 L 65.215,231.452 L 66.657,229.780 L 68.180,228.180 L 69.780,226.657 L 71.452,225.215 L 73.194,223.856 L 74.999,222.584 L 76.865,221.402 L 78.787,220.314 L 80.760,219.320 L 82.779,218.425 L 84.840,217.631 L 86.937,216.938 L 89.066,216.349 L 91.221,215.865 L 93.397,215.487 L 95.589,215.217 L 97.792,215.054 L 100.000,215.000 L 175.000,215.000 L 175.000,0.000 L 175.054,-2.208 Z" fill="black" fill-rule="evenodd"/>
</svg>
