<svg xmlns="http://www.w3.org/2000/svg" viewBox="0 0 600.000 1000">
  <path d="M 227.012 793.306 L 227.352 794.356 L 227.717 795.398 L 228.107 796.431 L 228.523 797.454 L 228.963 798.466 L 229.429 799.467 L 229.919 800.457 L 230.433 801.434 L 230.970 802.398 L 231.531 803.349 L 232.116 804.286 L 232.723 805.208 L 233.353 806.115 L 234.004 807.006 L 234.678 807.881 L 235.372 808.739 L 236.088 809.580 L 236.824 810.403 L 237.580 811.208 L 238.355 811.994 L 239.149 812.760 L 239.962 813.507 L 240.793 814.234 L 241.642 814.940 L 242.508 815.626 L 243.390 816.289 L 244.288 816.931 L 245.202 817.551 L 246.131 818.148 L 247.074 818.722 L 248.031 819.273 L 249.001 819.800 L 249.984 820.303 L 250.978 820.782 L 251.985 821.236 L 253.002 821.666 L 254.029 822.070 L 255.066 822.450 L 256.112 822.803 L 257.166 823.131 L 258.228 823.433 L 259.297 823.709 L 260.373 823.958 L 261.454 824.181 L 262.540 824.377 L 263.631 824.547 L 264.726 824.690 L 265.824 824.806 L 266.924 824.895 L 268.027 824.957 L 269.130 824.992 L 270.234 824.999 L 271.338 824.980 L 272.441 824.934 L 273.543 824.860 L 274.642 824.760 L 275.739 824.633 L 276.832 824.478 L 277.921 824.297 L 279.006 824.090 L 280.085 823.855 L 281.158 823.595 L 282.224 823.308 L 283.282 822.995 L 284.333 822.656 L 285.375 822.292 L 286.408 821.902 L 287.431 821.487 L 288.444 821.047 L 289.445 820.582 L 290.435 820.093 L 291.412 819.579 L 292.377 819.042 L 293.328 818.481 L 294.265 817.897 L 295.188 817.291 L 296.095 816.661 L 296.986 816.010 L 297.862 815.337 L 298.720 814.643 L 299.561 813.928 L 300.000 813.536 L 300.439 813.928 L 301.280 814.643 L 302.138 815.337 L 303.014 816.010 L 303.905 816.661 L 304.812 817.291 L 305.735 817.897 L 306.672 818.481 L 307.623 819.042 L 308.588 819.579 L 309.565 820.093 L 310.555 820.582 L 311.556 821.047 L 312.569 821.487 L 313.592 821.902 L 314.625 822.292 L 315.667 822.656 L 316.718 822.995 L 317.776 823.308 L 318.842 823.595 L 319.915 823.855 L 320.994 824.090 L 322.079 824.297 L 323.168 824.478 L 324.261 824.633 L 325.358 824.760 L 326.457 824.860 L 327.559 824.934 L 328.662 824.980 L 329.766 824.999 L 330.870 824.992 L 331.973 824.957 L 333.076 824.895 L 334.176 824.806 L 335.274 824.690 L 336.369 824.547 L 337.460 824.377 L 338.546 824.181 L 339.627 823.958 L 340.703 823.709 L 341.772 823.433 L 342.834 823.131 L 343.888 822.803 L 344.934 822.450 L 345.971 822.070 L 346.998 821.666 L 348.015 821.236 L 349.022 820.782 L 350.016 820.303 L 350.999 819.800 L 351.969 819.273 L 352.926 818.722 L 353.869 818.148 L 354.798 817.551 L 355.712 816.931 L 356.610 816.289 L 357.492 815.626 L 358.358 814.940 L 359.207 814.234 L 360.038 813.507 L 360.851 812.760 L 361.645 811.994 L 362.420 811.208 L 363.176 810.403 L 363.912 809.580 L 364.628 808.739 L 365.322 807.881 L 365.996 807.006 L 366.647 806.115 L 367.277 805.208 L 367.884 804.286 L 368.469 803.349 L 369.030 802.398 L 369.567 801.434 L 370.081 800.457 L 370.571 799.467 L 371.037 798.466 L 371.477 797.454 L 371.893 796.431 L 372.283 795.398 L 372.648 794.356 L 372.988 793.306 L 502.988 373.306 L 503.301 372.247 L 503.589 371.180 L 503.850 370.107 L 504.085 369.028 L 504.293 367.944 L 504.475 366.854 L 504.630 365.761 L 504.758 364.664 L 504.859 363.564 L 504.933 362.462 L 504.979 361.358 L 504.999 360.254 L 504.992 359.150 L 504.958 358.046 L 504.896 356.943 L 504.808 355.842 L 504.692 354.744 L 504.550 353.649 L 504.380 352.557 L 504.184 351.470 L 503.962 350.389 L 503.712 349.313 L 503.437 348.243 L 503.135 347.181 L 502.808 346.126 L 502.454 345.079 L 502.075 344.042 L 501.671 343.014 L 501.242 341.997 L 500.788 340.990 L 500.309 339.995 L 499.806 339.012 L 499.279 338.041 L 498.728 337.084 L 498.154 336.140 L 497.557 335.211 L 496.937 334.297 L 496.295 333.398 L 495.631 332.515 L 494.946 331.649 L 494.240 330.800 L 493.513 329.969 L 492.766 329.155 L 491.999 328.360 L 491.213 327.585 L 490.408 326.828 L 489.585 326.092 L 488.744 325.376 L 487.885 324.681 L 487.010 324.008 L 486.119 323.356 L 485.212 322.726 L 484.289 322.118 L 483.352 321.533 L 482.401 320.972 L 481.437 320.434 L 480.459 319.920 L 479.469 319.430 L 478.468 318.964 L 477.455 318.523 L 476.432 318.107 L 475.399 317.717 L 474.357 317.352 L 473.306 317.012 L 472.247 316.699 L 471.180 316.411 L 470.107 316.150 L 469.028 315.915 L 467.944 315.707 L 466.854 315.525 L 465.761 315.370 L 464.664 315.242 L 463.564 315.141 L 462.462 315.067 L 461.358 315.021 L 460.254 315.001 L 459.150 315.008 L 458.046 315.042 L 456.943 315.104 L 455.842 315.192 L 454.744 315.308 L 453.649 315.450 L 452.557 315.620 L 451.470 315.816 L 450.389 316.038 L 449.313 316.288 L 448.243 316.563 L 447.181 316.865 L 446.126 317.192 L 445.079 317.546 L 444.042 317.925 L 443.014 318.329 L 441.997 318.758 L 440.990 319.212 L 439.995 319.691 L 439.012 320.194 L 438.041 320.721 L 437.084 321.272 L 436.140 321.846 L 435.211 322.443 L 434.297 323.063 L 433.398 323.705 L 432.515 324.369 L 431.649 325.054 L 430.800 325.760 L 429.969 326.487 L 429.155 327.234 L 428.360 328.001 L 427.585 328.787 L 426.828 329.592 L 426.092 330.415 L 425.376 331.256 L 424.681 332.115 L 424.008 332.990 L 423.356 333.881 L 422.726 334.788 L 422.118 335.711 L 421.533 336.648 L 420.972 337.599 L 420.434 338.563 L 419.920 339.541 L 419.430 340.531 L 418.964 341.532 L 418.523 342.545 L 418.107 343.568 L 417.717 344.601 L 417.352 345.643 L 417.012 346.694 L 353.739 551.114 L 344.804 455.800 L 344.687 454.698 L 344.542 453.599 L 344.371 452.505 L 344.173 451.415 L 343.949 450.330 L 343.697 449.251 L 343.419 448.178 L 343.115 447.113 L 342.785 446.055 L 342.429 445.006 L 342.047 443.966 L 341.639 442.936 L 341.206 441.916 L 340.749 440.907 L 340.266 439.909 L 339.759 438.924 L 339.228 437.952 L 338.674 436.992 L 338.096 436.047 L 337.494 435.117 L 336.870 434.201 L 336.224 433.301 L 335.556 432.417 L 334.866 431.550 L 334.155 430.701 L 333.423 429.869 L 332.671 429.055 L 331.899 428.260 L 331.108 427.484 L 330.298 426.728 L 329.470 425.992 L 328.624 425.277 L 327.760 424.583 L 326.880 423.910 L 325.983 423.259 L 325.071 422.631 L 324.143 422.025 L 323.201 421.442 L 322.245 420.883 L 321.275 420.347 L 320.292 419.835 L 319.297 419.348 L 318.291 418.885 L 317.273 418.447 L 316.245 418.034 L 315.206 417.647 L 314.159 417.286 L 313.103 416.950 L 312.039 416.640 L 310.968 416.357 L 309.890 416.100 L 308.807 415.870 L 307.718 415.667 L 306.624 415.490 L 305.526 415.341 L 304.425 415.218 L 303.321 415.123 L 302.215 415.055 L 301.108 415.014 L 300.000 415.000 L 298.892 415.014 L 297.785 415.055 L 296.679 415.123 L 295.575 415.218 L 294.474 415.341 L 293.376 415.490 L 292.282 415.667 L 291.193 415.870 L 290.110 416.100 L 289.032 416.357 L 287.961 416.640 L 286.897 416.950 L 285.841 417.286 L 284.794 417.647 L 283.755 418.034 L 282.727 418.447 L 281.709 418.885 L 280.703 419.348 L 279.708 419.835 L 278.725 420.347 L 277.755 420.883 L 276.799 421.442 L 275.857 422.025 L 274.929 422.631 L 274.017 423.259 L 273.120 423.910 L 272.240 424.583 L 271.376 425.277 L 270.530 425.992 L 269.702 426.728 L 268.892 427.484 L 268.101 428.260 L 267.329 429.055 L 266.577 429.869 L 265.845 430.701 L 265.134 431.550 L 264.444 432.417 L 263.776 433.301 L 263.130 434.201 L 262.506 435.117 L 261.904 436.047 L 261.326 436.992 L 260.772 437.952 L 260.241 438.924 L 259.734 439.909 L 259.251 440.907 L 258.794 441.916 L 258.361 442.936 L 257.953 443.966 L 257.571 445.006 L 257.215 446.055 L 256.885 447.113 L 256.581 448.178 L 256.303 449.251 L 256.051 450.330 L 255.827 451.415 L 255.629 452.505 L 255.458 453.599 L 255.313 454.698 L 255.196 455.800 L 246.261 551.114 L 182.988 346.694 L 182.648 345.643 L 182.283 344.601 L 181.893 343.568 L 181.477 342.545 L 181.036 341.532 L 180.570 340.531 L 180.080 339.541 L 179.566 338.563 L 179.028 337.599 L 178.467 336.648 L 177.882 335.711 L 177.274 334.788 L 176.644 333.881 L 175.992 332.990 L 175.319 332.115 L 174.624 331.256 L 173.908 330.415 L 173.172 329.592 L 172.415 328.787 L 171.640 328.001 L 170.845 327.234 L 170.031 326.487 L 169.200 325.760 L 168.351 325.054 L 167.485 324.369 L 166.602 323.705 L 165.703 323.063 L 164.789 322.443 L 163.860 321.846 L 162.916 321.272 L 161.959 320.721 L 160.988 320.194 L 160.005 319.691 L 159.010 319.212 L 158.003 318.758 L 156.986 318.329 L 155.958 317.925 L 154.921 317.546 L 153.874 317.192 L 152.819 316.865 L 151.757 316.563 L 150.687 316.288 L 149.611 316.038 L 148.530 315.816 L 147.443 315.620 L 146.351 315.450 L 145.256 315.308 L 144.158 315.192 L 143.057 315.104 L 141.954 315.042 L 140.850 315.008 L 139.746 315.001 L 138.642 315.021 L 137.538 315.067 L 136.436 315.141 L 135.336 315.242 L 134.239 315.370 L 133.146 315.525 L 132.056 315.707 L 130.972 315.915 L 129.893 316.150 L 128.820 316.411 L 127.753 316.699 L 126.694 317.012 L 125.643 317.352 L 124.601 317.717 L 123.568 318.107 L 122.545 318.523 L 121.532 318.964 L 120.531 319.430 L 119.541 319.920 L 118.563 320.434 L 117.599 320.972 L 116.648 321.533 L 115.711 322.118 L 114.788 322.726 L 113.881 323.356 L 112.990 324.008 L 112.115 324.681 L 111.256 325.376 L 110.415 326.092 L 109.592 326.828 L 108.787 327.585 L 108.001 328.360 L 107.234 329.155 L 106.487 329.969 L 105.760 330.800 L 105.054 331.649 L 104.369 332.515 L 103.705 333.398 L 103.063 334.297 L 102.443 335.211 L 101.846 336.140 L 101.272 337.084 L 100.721 338.041 L 100.194 339.012 L 99.691 339.995 L 99.212 340.990 L 98.758 341.997 L 98.329 343.014 L 97.925 344.042 L 97.546 345.079 L 97.192 346.126 L 96.865 347.181 L 96.563 348.243 L 96.288 349.313 L 96.038 350.389 L 95.816 351.470 L 95.620 352.557 L 95.450 353.649 L 95.308 354.744 L 95.192 355.842 L 95.104 356.943 L 95.042 358.046 L 95.008 359.150 L 95.001 360.254 L 95.021 361.358 L 95.067 362.462 L 95.141 363.564 L 95.242 364.664 L 95.370 365.761 L 95.525 366.854 L 95.707 367.944 L 95.915 369.028 L 96.150 370.107 L 96.411 371.180 L 96.699 372.247 L 97.012 373.306 L 227.012 793.306 Z" fill="black" fill-rule="evenodd"/>
</svg>
