<svg xmlns="http://www.w3.org/2000/svg" viewBox="0 0 600.000 1000.000">
  <path d="M 487.115,229.282 L 488.662,227.705 L 490.285,226.207 L 491.978,224.789 L 493.740,223.457 L 495.565,222.212 L 497.448,221.059 L 499.386,219.999 L 501.374,219.036 L 503.406,218.171 L 505.479,217.407 L 507.586,216.746 L 509.723,216.189 L 511.885,215.738 L 514.067,215.393 L 516.263,215.155 L 518.468,215.026 L 520.676,215.005 L 522.883,215.092 L 525.083,215.288 L 527.271,215.591 L 529.442,216.002 L 531.589,216.518 L 533.709,217.139 L 535.795,217.863 L 537.844,218.689 L 539.849,219.614 L 541.807,220.637 L 543.712,221.754 L 545.560,222.964 L 547.347,224.263 L 549.067,225.648 L 550.718,227.115 L 552.295,228.662 L 553.793,230.285 L 555.211,231.978 L 556.543,233.740 L 557.788,235.565 L 558.941,237.448 L 560.001,239.386 L 560.964,241.374 L 561.829,243.406 L 562.593,245.479 L 563.254,247.586 L 563.811,249.723 L 564.262,251.885 L 564.607,254.067 L 564.845,256.263 L 564.974,258.468 L 564.995,260.676 L 564.908,262.883 L 564.712,265.083 L 564.409,267.271 L 563.998,269.442 L 563.482,271.589 L 562.861,273.709 L 562.137,275.795 L 561.311,277.844 L 560.386,279.849 L 559.363,281.807 L 558.246,283.712 L 557.036,285.560 L 555.737,287.347 L 554.352,289.067 L 358.948,520.000 L 554.352,750.933 L 555.737,752.653 L 557.036,754.440 L 558.246,756.288 L 559.363,758.193 L 560.386,760.151 L 561.311,762.156 L 562.137,764.205 L 562.861,766.291 L 563.482,768.411 L 563.998,770.558 L 564.409,772.729 L 564.712,774.917 L 564.908,777.117 L 564.995,779.324 L 564.974,781.532 L 564.845,783.737 L 564.607,785.933 L 564.262,788.115 L 563.811,790.277 L 563.254,792.414 L 562.593,794.521 L 561.829,796.594 L 560.964,798.626 L 560.001,800.614 L 558.941,802.552 L 557.788,804.435 L 556.543,806.260 L 555.211,808.022 L 553.793,809.715 L 552.295,811.338 L 550.718,812.885 L 549.067,814.352 L 547.347,815.737 L 545.560,817.036 L 543.712,818.246 L 541.807,819.363 L 539.849,820.386 L 537.844,821.311 L 535.795,822.137 L 533.709,822.861 L 531.589,823.482 L 529.442,823.998 L 527.271,824.409 L 525.083,824.712 L 522.883,824.908 L 520.676,824.995 L 518.468,824.974 L 516.263,824.845 L 514.067,824.607 L 511.885,824.262 L 509.723,823.811 L 507.586,823.254 L 505.479,822.593 L 503.406,821.829 L 501.374,820.964 L 499.386,820.001 L 497.448,818.941 L 495.565,817.788 L 493.740,816.543 L 491.978,815.211 L 490.285,813.793 L 488.662,812.295 L 487.115,810.718 L 485.648,809.067 L 300.000,589.666 L 114.352,809.067 L 112.885,810.718 L 111.338,812.295 L 109.715,813.793 L 108.022,815.211 L 106.260,816.543 L 104.435,817.788 L 102.552,818.941 L 100.614,820.001 L 98.626,820.964 L 96.594,821.829 L 94.521,822.593 L 92.414,823.254 L 90.277,823.811 L 88.115,824.262 L 85.933,824.607 L 83.737,824.845 L 81.532,824.974 L 79.324,824.995 L 77.117,824.908 L 74.917,824.712 L 72.729,824.409 L 70.558,823.998 L 68.411,823.482 L 66.291,822.861 L 64.205,822.137 L 62.156,821.311 L 60.151,820.386 L 58.193,819.363 L 56.288,818.246 L 54.440,817.036 L 52.653,815.737 L 50.933,814.352 L 49.282,812.885 L 47.705,811.338 L 46.207,809.715 L 44.789,808.022 L 43.457,806.260 L 42.212,804.435 L 41.059,802.552 L 39.999,800.614 L 39.036,798.626 L 38.171,796.594 L 37.407,794.521 L 36.746,792.414 L 36.189,790.277 L 35.738,788.115 L 35.393,785.933 L 35.155,783.737 L 35.026,781.532 L 35.005,779.324 L 35.092,777.117 L 35.288,774.917 L 35.591,772.729 L 36.002,770.558 L 36.518,768.411 L 37.139,766.291 L 37.863,764.205 L 38.689,762.156 L 39.614,760.151 L 40.637,758.193 L 41.754,756.288 L 42.964,754.440 L 44.263,752.653 L 45.648,750.933 L 241.052,520.000 L 45.648,289.067 L 44.263,287.347 L 42.964,285.560 L 41.754,283.712 L 40.637,281.807 L 39.614,279.849 L 38.689,277.844 L 37.863,275.795 L 37.139,273.709 L 36.518,271.589 L 36.002,269.442 L 35.591,267.271 L 35.288,265.083 L 35.092,262.883 L 35.005,260.676 L 35.026,258.468 L 35.155,256.263 L 35.393,254.067 L 35.738,251.885 L 36.189,249.723 L 36.746,247.586 L 37.407,245.479 L 38.171,243.406 L 39.036,241.374 L 39.999,239.386 L 41.059,237.448 L 42.212,235.565 L 43.457,233.740 L 44.789,231.978 L 46.207,230.285 L 47.705,228.662 L 49.282,227.115 L 50.933,225.648 L 52.653,224.263 L 54.440,222.964 L 56.288,221.754 L 58.193,220.637 L 60.151,219.614 L 62.156,218.689 L 64.205,217.863 L 66.291,217.139 L 68.411,216.518 L 70.558,216.002 L 72.729,215.591 L 74.917,215.288 L 77.117,215.092 L 79.324,215.005 L 81.532,215.026 L 83.737,215.155 L 85.933,215.393 L 88.115,215.738 L 90.277,216.189 L 92.414,216.746 L 94.521,217.407 L 96.594,218.171 L 98.626,219.036 L 100.614,219.999 L 102.552,221.059 L 104.435,222.212 L 106.260,223.457 L 108.022,224.789 L 109.715,226.207 L 111.338,227.705 L 112.885,229.282 L 114.352,230.933 L 300.000,450.334 L 485.648,230.933 L 487.115,229.282 Z" fill="black" fill-rule="evenodd"/>
</svg>
