<svg xmlns="http://www.w3.org/2000/svg" viewBox="0 0 600.000 1000.000">
  <path d="M 219.119,630.936 L 257.999,529.846 L 258.843,527.803 L 259.787,525.804 L 260.827,523.853 L 261.962,521.956 L 263.188,520.117 L 264.504,518.341 L 265.905,516.631 L 267.388,514.992 L 268.950,513.428 L 270.587,511.943 L 272.295,510.539 L 274.070,509.222 L 275.908,507.993 L 277.803,506.855 L 279.752,505.813 L 281.750,504.867 L 283.792,504.020 L 285.873,503.275 L 287.988,502.633 L 290.133,502.095 L 292.300,501.664 L 294.487,501.339 L 296.687,501.122 L 298.895,501.014 L 301.105,501.014 L 303.313,501.122 L 305.513,501.339 L 307.700,501.664 L 309.867,502.095 L 312.012,502.633 L 314.127,503.275 L 316.208,504.020 L 318.250,504.867 L 320.248,505.813 L 322.197,506.855 L 324.092,507.993 L 325.930,509.222 L 327.705,510.539 L 329.413,511.943 L 331.050,513.428 L 332.612,514.992 L 334.095,516.631 L 335.496,518.341 L 336.812,520.117 L 338.038,521.956 L 339.173,523.853 L 340.213,525.804 L 341.157,527.803 L 342.001,529.846 L 380.881,630.936 L 476.344,249.086 L 476.932,246.957 L 477.624,244.859 L 478.418,242.798 L 479.312,240.779 L 480.304,238.805 L 481.392,236.883 L 482.572,235.016 L 483.843,233.210 L 485.201,231.468 L 486.643,229.795 L 488.166,228.195 L 489.765,226.671 L 491.436,225.228 L 493.177,223.868 L 494.982,222.595 L 496.848,221.413 L 498.769,220.323 L 500.741,219.329 L 502.760,218.433 L 504.821,217.637 L 506.917,216.944 L 509.046,216.354 L 511.201,215.869 L 513.377,215.490 L 515.569,215.219 L 517.771,215.055 L 519.979,215.000 L 522.187,215.053 L 524.390,215.215 L 526.582,215.484 L 528.759,215.861 L 530.914,216.344 L 533.043,216.932 L 535.141,217.624 L 537.202,218.418 L 539.221,219.312 L 541.195,220.304 L 543.117,221.392 L 544.984,222.572 L 546.790,223.843 L 548.532,225.201 L 550.205,226.643 L 551.805,228.166 L 553.329,229.765 L 554.772,231.436 L 556.132,233.177 L 557.405,234.982 L 558.587,236.848 L 559.677,238.769 L 560.671,240.741 L 561.567,242.760 L 562.363,244.821 L 563.056,246.917 L 563.646,249.046 L 564.131,251.201 L 564.510,253.377 L 564.781,255.569 L 564.945,257.771 L 565.000,259.979 L 564.947,262.187 L 564.785,264.390 L 564.516,266.582 L 564.139,268.759 L 563.656,270.914 L 433.656,790.914 L 433.074,793.024 L 432.390,795.103 L 431.605,797.146 L 430.722,799.149 L 429.743,801.106 L 428.670,803.014 L 427.505,804.867 L 426.252,806.661 L 424.912,808.392 L 423.491,810.056 L 421.989,811.649 L 420.413,813.167 L 418.764,814.607 L 417.047,815.965 L 415.267,817.237 L 413.426,818.422 L 411.530,819.515 L 409.583,820.515 L 407.590,821.420 L 405.555,822.226 L 403.484,822.932 L 401.380,823.537 L 399.250,824.039 L 397.098,824.437 L 394.928,824.729 L 392.748,824.916 L 390.560,824.997 L 388.372,824.971 L 386.187,824.838 L 384.011,824.600 L 381.850,824.256 L 379.708,823.807 L 377.590,823.255 L 375.501,822.600 L 373.447,821.845 L 371.432,820.991 L 369.461,820.039 L 367.538,818.993 L 365.669,817.855 L 363.857,816.627 L 362.107,815.312 L 360.423,813.914 L 358.809,812.436 L 357.268,810.881 L 355.806,809.253 L 354.424,807.556 L 353.126,805.793 L 351.915,803.970 L 350.795,802.090 L 349.767,800.157 L 348.835,798.177 L 347.999,796.154 L 300.000,671.355 L 252.001,796.154 L 251.165,798.177 L 250.233,800.157 L 249.205,802.090 L 248.085,803.970 L 246.874,805.793 L 245.576,807.556 L 244.194,809.253 L 242.732,810.881 L 241.191,812.436 L 239.577,813.914 L 237.893,815.312 L 236.143,816.627 L 234.331,817.855 L 232.462,818.993 L 230.539,820.039 L 228.568,820.991 L 226.553,821.845 L 224.499,822.600 L 222.410,823.255 L 220.292,823.807 L 218.150,824.256 L 215.989,824.600 L 213.813,824.838 L 211.628,824.971 L 209.440,824.997 L 207.252,824.916 L 205.072,824.729 L 202.902,824.437 L 200.750,824.039 L 198.620,823.537 L 196.516,822.932 L 194.445,822.226 L 192.410,821.420 L 190.417,820.515 L 188.470,819.515 L 186.574,818.422 L 184.733,817.237 L 182.953,815.965 L 181.236,814.607 L 179.587,813.167 L 178.011,811.649 L 176.509,810.056 L 175.088,808.392 L 173.748,806.661 L 172.495,804.867 L 171.330,803.014 L 170.257,801.106 L 169.278,799.149 L 168.395,797.146 L 167.610,795.103 L 166.926,793.024 L 166.344,790.914 L 36.344,270.914 L 35.861,268.759 L 35.484,266.582 L 35.215,264.390 L 35.053,262.187 L 35.000,259.979 L 35.055,257.771 L 35.219,255.569 L 35.490,253.377 L 35.869,251.201 L 36.354,249.046 L 36.944,246.917 L 37.637,244.821 L 38.433,242.760 L 39.329,240.741 L 40.323,238.769 L 41.413,236.848 L 42.595,234.982 L 43.868,233.177 L 45.228,231.436 L 46.671,229.765 L 48.195,228.166 L 49.795,226.643 L 51.468,225.201 L 53.210,223.843 L 55.016,222.572 L 56.883,221.392 L 58.805,220.304 L 60.779,219.312 L 62.798,218.418 L 64.859,217.624 L 66.957,216.932 L 69.086,216.344 L 71.241,215.861 L 73.418,215.484 L 75.610,215.215 L 77.813,215.053 L 80.021,215.000 L 82.229,215.055 L 84.431,215.219 L 86.623,215.490 L 88.799,215.869 L 90.954,216.354 L 93.083,216.944 L 95.179,217.637 L 97.240,218.433 L 99.259,219.329 L 101.231,220.323 L 103.152,221.413 L 105.018,222.595 L 106.823,223.868 L 108.564,225.228 L 110.235,226.671 L 111.834,228.195 L 113.357,229.795 L 114.799,231.468 L 116.157,233.210 L 117.428,235.016 L 118.608,236.883 L 119.696,238.805 L 120.688,240.779 L 121.582,242.798 L 122.376,244.859 L 123.068,246.957 L 123.656,249.086 L 219.119,630.936 Z" fill="black" fill-rule="evenodd"/>
</svg>
