<svg xmlns="http://www.w3.org/2000/svg" viewBox="0 0 600.000 1000">
  <path d="M 498.971 282.500 L 499.022 282.408 L 499.076 282.318 L 499.380 281.765 L 499.686 281.213 L 499.734 281.119 L 499.785 281.027 L 500.071 280.464 L 500.359 279.903 L 500.404 279.808 L 500.452 279.714 L 500.719 279.142 L 500.989 278.572 L 501.031 278.475 L 501.075 278.380 L 501.324 277.800 L 501.575 277.221 L 501.613 277.123 L 501.655 277.026 L 501.884 276.438 L 502.116 275.851 L 502.151 275.752 L 502.189 275.654 L 502.399 275.059 L 502.612 274.465 L 502.644 274.365 L 502.679 274.266 L 502.869 273.664 L 503.062 273.063 L 503.091 272.962 L 503.123 272.862 L 503.293 272.254 L 503.467 271.647 L 503.492 271.545 L 503.521 271.444 L 503.671 270.831 L 503.824 270.218 L 503.847 270.116 L 503.872 270.014 L 504.002 269.396 L 504.135 268.779 L 504.154 268.676 L 504.176 268.573 L 504.286 267.951 L 504.399 267.330 L 504.414 267.226 L 504.433 267.123 L 504.522 266.498 L 504.615 265.874 L 504.627 265.769 L 504.642 265.665 L 504.711 265.038 L 504.783 264.411 L 504.792 264.306 L 504.803 264.202 L 504.852 263.572 L 504.904 262.943 L 504.909 262.838 L 504.917 262.733 L 504.945 262.103 L 504.976 261.472 L 504.978 261.367 L 504.982 261.262 L 504.990 260.631 L 505.000 260.000 L 504.998 259.895 L 505.000 259.790 L 504.986 259.159 L 504.976 258.528 L 504.971 258.423 L 504.969 258.318 L 504.935 257.687 L 504.904 257.057 L 504.895 256.952 L 504.889 256.847 L 504.835 256.218 L 504.783 255.589 L 504.771 255.485 L 504.762 255.380 L 504.687 254.753 L 504.615 254.126 L 504.600 254.022 L 504.587 253.918 L 504.492 253.294 L 504.399 252.670 L 504.380 252.566 L 504.364 252.462 L 504.248 251.842 L 504.135 251.221 L 504.113 251.118 L 504.094 251.015 L 503.958 250.399 L 503.824 249.782 L 503.799 249.680 L 503.776 249.577 L 503.620 248.965 L 503.467 248.353 L 503.438 248.252 L 503.412 248.150 L 503.236 247.544 L 503.062 246.937 L 503.030 246.837 L 503.001 246.736 L 502.805 246.136 L 502.612 245.535 L 502.576 245.436 L 502.544 245.336 L 502.328 244.743 L 502.116 244.149 L 502.077 244.051 L 502.041 243.952 L 501.807 243.366 L 501.575 242.779 L 501.533 242.683 L 501.494 242.585 L 501.240 242.007 L 500.989 241.428 L 500.944 241.333 L 500.902 241.237 L 500.629 240.668 L 500.359 240.097 L 500.311 240.004 L 500.266 239.909 L 499.975 239.349 L 499.686 238.787 L 499.635 238.695 L 499.587 238.602 L 499.278 238.052 L 498.971 237.500 L 498.917 237.410 L 498.866 237.318 L 498.539 236.778 L 498.214 236.237 L 498.157 236.149 L 498.103 236.059 L 497.758 235.530 L 497.416 234.999 L 497.356 234.913 L 497.299 234.825 L 496.937 234.308 L 496.578 233.789 L 496.516 233.704 L 496.455 233.618 L 496.077 233.113 L 495.701 232.606 L 495.636 232.523 L 495.573 232.439 L 495.178 231.947 L 494.785 231.452 L 494.718 231.372 L 494.652 231.290 L 494.241 230.811 L 493.833 230.329 L 493.762 230.252 L 493.694 230.172 L 493.268 229.706 L 492.844 229.238 L 492.771 229.163 L 492.700 229.085 L 492.259 228.634 L 491.820 228.180 L 491.744 228.107 L 491.671 228.032 L 491.215 227.595 L 490.762 227.156 L 490.684 227.086 L 490.608 227.013 L 490.138 226.591 L 489.671 226.167 L 489.590 226.099 L 489.512 226.029 L 489.029 225.623 L 488.548 225.215 L 488.465 225.149 L 488.385 225.082 L 487.889 224.692 L 487.394 224.299 L 487.310 224.237 L 487.227 224.172 L 486.719 223.798 L 486.211 223.422 L 486.125 223.362 L 486.040 223.300 L 485.520 222.943 L 485.001 222.584 L 484.912 222.527 L 484.826 222.468 L 484.294 222.128 L 483.763 221.786 L 483.673 221.732 L 483.584 221.675 L 483.041 221.353 L 482.500 221.029 L 482.408 220.978 L 482.318 220.924 L 481.765 220.620 L 481.213 220.314 L 481.119 220.266 L 481.027 220.215 L 480.464 219.929 L 479.903 219.641 L 479.808 219.596 L 479.714 219.548 L 479.142 219.281 L 478.572 219.011 L 478.475 218.969 L 478.380 218.925 L 477.800 218.676 L 477.221 218.425 L 477.123 218.387 L 477.026 218.345 L 476.438 218.116 L 475.851 217.884 L 475.752 217.849 L 475.654 217.811 L 475.059 217.601 L 474.465 217.388 L 474.365 217.356 L 474.266 217.321 L 473.664 217.131 L 473.063 216.938 L 472.962 216.909 L 472.862 216.877 L 472.254 216.707 L 471.647 216.533 L 471.545 216.508 L 471.444 216.479 L 470.831 216.329 L 470.218 216.176 L 470.116 216.153 L 470.014 216.128 L 469.396 215.998 L 468.779 215.865 L 468.676 215.846 L 468.573 215.824 L 467.951 215.714 L 467.330 215.601 L 467.226 215.586 L 467.123 215.567 L 466.498 215.478 L 465.874 215.385 L 465.769 215.373 L 465.665 215.358 L 465.038 215.289 L 464.411 215.217 L 464.306 215.208 L 464.202 215.197 L 463.572 215.148 L 462.943 215.096 L 462.838 215.091 L 462.733 215.083 L 462.103 215.055 L 461.472 215.024 L 461.367 215.022 L 461.262 215.018 L 460.631 215.010 L 460.000 215.000 L 140.000 215.000 L 138.528 215.024 L 137.057 215.096 L 135.589 215.217 L 134.126 215.385 L 132.670 215.601 L 131.221 215.865 L 129.782 216.176 L 128.353 216.533 L 126.937 216.938 L 125.535 217.388 L 124.149 217.884 L 122.779 218.425 L 121.428 219.011 L 120.097 219.641 L 118.787 220.314 L 117.500 221.029 L 116.237 221.786 L 114.999 222.584 L 113.789 223.422 L 112.606 224.299 L 111.452 225.215 L 110.329 226.167 L 109.238 227.156 L 108.180 228.180 L 107.156 229.238 L 106.167 230.329 L 105.215 231.452 L 104.299 232.606 L 103.422 233.789 L 102.584 234.999 L 101.786 236.237 L 101.029 237.500 L 100.314 238.787 L 99.641 240.097 L 99.011 241.428 L 98.425 242.779 L 97.884 244.149 L 97.388 245.535 L 96.938 246.937 L 96.533 248.353 L 96.176 249.782 L 95.865 251.221 L 95.601 252.670 L 95.385 254.126 L 95.217 255.589 L 95.096 257.057 L 95.024 258.528 L 95.000 260.000 L 95.024 261.472 L 95.096 262.943 L 95.217 264.411 L 95.385 265.874 L 95.601 267.330 L 95.865 268.779 L 96.176 270.218 L 96.533 271.647 L 96.938 273.063 L 97.388 274.465 L 97.884 275.851 L 98.425 277.221 L 99.011 278.572 L 99.641 279.903 L 100.314 281.213 L 101.029 282.500 L 101.786 283.763 L 102.584 285.001 L 103.422 286.211 L 104.299 287.394 L 105.215 288.548 L 106.167 289.671 L 107.156 290.762 L 108.180 291.820 L 109.238 292.844 L 110.329 293.833 L 111.452 294.785 L 112.606 295.701 L 113.789 296.578 L 114.999 297.416 L 116.237 298.214 L 117.500 298.971 L 118.787 299.686 L 120.097 300.359 L 121.428 300.989 L 122.779 301.575 L 124.149 302.116 L 125.535 302.612 L 126.937 303.062 L 128.353 303.467 L 129.782 303.824 L 131.221 304.135 L 132.670 304.399 L 134.126 304.615 L 135.589 304.783 L 137.057 304.904 L 138.528 304.976 L 140.000 305.000 L 379.470 305.000 L 101.675 756.416 L 101.353 756.959 L 101.029 757.500 L 100.978 757.592 L 100.924 757.682 L 100.620 758.235 L 100.314 758.787 L 100.266 758.881 L 100.215 758.973 L 99.929 759.536 L 99.641 760.097 L 99.596 760.192 L 99.548 760.286 L 99.281 760.858 L 99.011 761.428 L 98.969 761.525 L 98.925 761.620 L 98.676 762.200 L 98.425 762.779 L 98.387 762.877 L 98.345 762.974 L 98.116 763.562 L 97.884 764.149 L 97.849 764.248 L 97.811 764.346 L 97.601 764.941 L 97.388 765.535 L 97.356 765.635 L 97.321 765.734 L 97.131 766.336 L 96.938 766.937 L 96.909 767.038 L 96.877 767.138 L 96.707 767.746 L 96.533 768.353 L 96.508 768.455 L 96.479 768.556 L 96.329 769.169 L 96.176 769.782 L 96.153 769.884 L 96.128 769.986 L 95.998 770.604 L 95.865 771.221 L 95.846 771.324 L 95.824 771.427 L 95.714 772.049 L 95.601 772.670 L 95.586 772.774 L 95.567 772.877 L 95.478 773.502 L 95.385 774.126 L 95.373 774.231 L 95.358 774.335 L 95.289 774.962 L 95.217 775.589 L 95.208 775.694 L 95.197 775.798 L 95.148 776.428 L 95.096 777.057 L 95.091 777.162 L 95.083 777.267 L 95.055 777.897 L 95.024 778.528 L 95.022 778.633 L 95.018 778.738 L 95.010 779.369 L 95.000 780.000 L 95.002 780.105 L 95.000 780.210 L 95.014 780.841 L 95.024 781.472 L 95.029 781.577 L 95.031 781.682 L 95.065 782.313 L 95.096 782.943 L 95.105 783.048 L 95.111 783.153 L 95.165 783.782 L 95.217 784.411 L 95.229 784.515 L 95.238 784.620 L 95.313 785.247 L 95.385 785.874 L 95.400 785.978 L 95.413 786.082 L 95.508 786.706 L 95.601 787.330 L 95.620 787.434 L 95.636 787.538 L 95.752 788.158 L 95.865 788.779 L 95.887 788.882 L 95.906 788.985 L 96.042 789.601 L 96.176 790.218 L 96.201 790.320 L 96.224 790.423 L 96.380 791.035 L 96.533 791.647 L 96.562 791.748 L 96.588 791.850 L 96.764 792.456 L 96.938 793.063 L 96.970 793.163 L 96.999 793.264 L 97.195 793.864 L 97.388 794.465 L 97.424 794.564 L 97.456 794.664 L 97.672 795.257 L 97.884 795.851 L 97.923 795.949 L 97.959 796.048 L 98.193 796.634 L 98.425 797.221 L 98.467 797.317 L 98.506 797.415 L 98.760 797.993 L 99.011 798.572 L 99.056 798.667 L 99.098 798.763 L 99.371 799.332 L 99.641 799.903 L 99.689 799.996 L 99.734 800.091 L 100.025 800.651 L 100.314 801.213 L 100.365 801.305 L 100.413 801.398 L 100.722 801.948 L 101.029 802.500 L 101.083 802.590 L 101.134 802.682 L 101.461 803.222 L 101.786 803.763 L 101.843 803.851 L 101.897 803.941 L 102.242 804.470 L 102.584 805.001 L 102.644 805.087 L 102.701 805.175 L 103.063 805.692 L 103.422 806.211 L 103.484 806.296 L 103.545 806.382 L 103.923 806.887 L 104.299 807.394 L 104.364 807.477 L 104.427 807.561 L 104.822 808.053 L 105.215 808.548 L 105.282 808.628 L 105.348 808.710 L 105.759 809.189 L 106.167 809.671 L 106.238 809.748 L 106.306 809.828 L 106.732 810.294 L 107.156 810.762 L 107.229 810.837 L 107.300 810.915 L 107.741 811.366 L 108.180 811.820 L 108.256 811.893 L 108.329 811.968 L 108.785 812.405 L 109.238 812.844 L 109.316 812.914 L 109.392 812.987 L 109.862 813.409 L 110.329 813.833 L 110.410 813.901 L 110.488 813.971 L 110.971 814.377 L 111.452 814.785 L 111.535 814.851 L 111.615 814.918 L 112.111 815.308 L 112.606 815.701 L 112.690 815.763 L 112.773 815.828 L 113.281 816.202 L 113.789 816.578 L 113.875 816.638 L 113.960 816.700 L 114.480 817.057 L 114.999 817.416 L 115.088 817.473 L 115.174 817.532 L 115.706 817.872 L 116.237 818.214 L 116.327 818.268 L 116.416 818.325 L 116.959 818.647 L 117.500 818.971 L 117.592 819.022 L 117.682 819.076 L 118.235 819.380 L 118.787 819.686 L 118.881 819.734 L 118.973 819.785 L 119.536 820.071 L 120.097 820.359 L 120.192 820.404 L 120.286 820.452 L 120.858 820.719 L 121.428 820.989 L 121.525 821.031 L 121.620 821.075 L 122.200 821.324 L 122.779 821.575 L 122.877 821.613 L 122.974 821.655 L 123.562 821.884 L 124.149 822.116 L 124.248 822.151 L 124.346 822.189 L 124.941 822.399 L 125.535 822.612 L 125.635 822.644 L 125.734 822.679 L 126.336 822.869 L 126.937 823.062 L 127.038 823.091 L 127.138 823.123 L 127.746 823.293 L 128.353 823.467 L 128.455 823.492 L 128.556 823.521 L 129.169 823.671 L 129.782 823.824 L 129.884 823.847 L 129.986 823.872 L 130.604 824.002 L 131.221 824.135 L 131.324 824.154 L 131.427 824.176 L 132.049 824.286 L 132.670 824.399 L 132.774 824.414 L 132.877 824.433 L 133.502 824.522 L 134.126 824.615 L 134.231 824.627 L 134.335 824.642 L 134.962 824.711 L 135.589 824.783 L 135.694 824.792 L 135.798 824.803 L 136.428 824.852 L 137.057 824.904 L 137.162 824.909 L 137.267 824.917 L 137.897 824.945 L 138.528 824.976 L 138.633 824.978 L 138.738 824.982 L 139.369 824.990 L 140.000 825.000 L 460.000 825.000 L 461.472 824.976 L 462.943 824.904 L 464.411 824.783 L 465.874 824.615 L 467.330 824.399 L 468.779 824.135 L 470.218 823.824 L 471.647 823.467 L 473.063 823.062 L 474.465 822.612 L 475.851 822.116 L 477.221 821.575 L 478.572 820.989 L 479.903 820.359 L 481.213 819.686 L 482.500 818.971 L 483.763 818.214 L 485.001 817.416 L 486.211 816.578 L 487.394 815.701 L 488.548 814.785 L 489.671 813.833 L 490.762 812.844 L 491.820 811.820 L 492.844 810.762 L 493.833 809.671 L 494.785 808.548 L 495.701 807.394 L 496.578 806.211 L 497.416 805.001 L 498.214 803.763 L 498.971 802.500 L 499.686 801.213 L 500.359 799.903 L 500.989 798.572 L 501.575 797.221 L 502.116 795.851 L 502.612 794.465 L 503.062 793.063 L 503.467 791.647 L 503.824 790.218 L 504.135 788.779 L 504.399 787.330 L 504.615 785.874 L 504.783 784.411 L 504.904 782.943 L 504.976 781.472 L 505.000 780.000 L 504.976 778.528 L 504.904 777.057 L 504.783 775.589 L 504.615 774.126 L 504.399 772.670 L 504.135 771.221 L 503.824 769.782 L 503.467 768.353 L 503.062 766.937 L 502.612 765.535 L 502.116 764.149 L 501.575 762.779 L 500.989 761.428 L 500.359 760.097 L 499.686 758.787 L 498.971 757.500 L 498.214 756.237 L 497.416 754.999 L 496.578 753.789 L 495.701 752.606 L 494.785 751.452 L 493.833 750.329 L 492.844 749.238 L 491.820 748.180 L 490.762 747.156 L 489.671 746.167 L 488.548 745.215 L 487.394 744.299 L 486.211 743.422 L 485.001 742.584 L 483.763 741.786 L 482.500 741.029 L 481.213 740.314 L 479.903 739.641 L 478.572 739.011 L 477.221 738.425 L 475.851 737.884 L 474.465 737.388 L 473.063 736.938 L 471.647 736.533 L 470.218 736.176 L 468.779 735.865 L 467.330 735.601 L 465.874 735.385 L 464.411 735.217 L 462.943 735.096 L 461.472 735.024 L 460.000 735.000 L 220.530 735.000 L 498.325 283.584 L 498.647 283.041 L 498.971 282.500 Z" fill="black" fill-rule="evenodd"/>
</svg>
