<svg xmlns="http://www.w3.org/2000/svg" viewBox="0 0 600.000 1000">
  <path d="M 257.482 784.739 L 257.856 785.776 L 258.255 786.804 L 258.679 787.821 L 259.128 788.828 L 259.602 789.824 L 260.099 790.807 L 260.621 791.778 L 261.166 792.736 L 261.735 793.681 L 262.326 794.611 L 262.941 795.526 L 263.577 796.427 L 264.235 797.311 L 264.915 798.179 L 265.616 799.030 L 266.337 799.863 L 267.079 800.679 L 267.840 801.476 L 268.621 802.254 L 269.420 803.013 L 270.238 803.752 L 271.074 804.471 L 271.927 805.169 L 272.796 805.846 L 273.683 806.502 L 274.585 807.136 L 275.502 807.747 L 276.434 808.336 L 277.380 808.902 L 278.340 809.444 L 279.312 809.963 L 280.297 810.457 L 281.294 810.928 L 282.302 811.374 L 283.321 811.795 L 284.350 812.191 L 285.388 812.562 L 286.435 812.907 L 287.490 813.226 L 288.552 813.520 L 289.622 813.787 L 290.697 814.028 L 291.779 814.243 L 292.865 814.431 L 293.955 814.592 L 295.049 814.727 L 296.146 814.835 L 297.246 814.916 L 298.347 814.970 L 299.449 814.997 L 300.551 814.997 L 301.653 814.970 L 302.754 814.916 L 303.854 814.835 L 304.951 814.727 L 306.045 814.592 L 307.135 814.431 L 308.221 814.243 L 309.303 814.028 L 310.378 813.787 L 311.448 813.520 L 312.510 813.226 L 313.565 812.907 L 314.612 812.562 L 315.650 812.191 L 316.679 811.795 L 317.698 811.374 L 318.706 810.928 L 319.703 810.457 L 320.688 809.963 L 321.660 809.444 L 322.620 808.902 L 323.566 808.336 L 324.498 807.747 L 325.415 807.136 L 326.317 806.502 L 327.204 805.846 L 328.073 805.169 L 328.926 804.471 L 329.762 803.752 L 330.580 803.013 L 331.379 802.254 L 332.160 801.476 L 332.921 800.679 L 333.663 799.863 L 334.384 799.030 L 335.085 798.179 L 335.765 797.311 L 336.423 796.427 L 337.059 795.526 L 337.674 794.611 L 338.265 793.681 L 338.834 792.736 L 339.379 791.778 L 339.901 790.807 L 340.398 789.824 L 340.872 788.828 L 341.321 787.821 L 341.745 786.804 L 342.144 785.776 L 342.518 784.739 L 472.518 409.739 L 472.867 408.692 L 473.190 407.635 L 473.487 406.572 L 473.758 405.501 L 474.002 404.424 L 474.220 403.341 L 474.412 402.254 L 474.576 401.161 L 474.714 400.066 L 474.825 398.967 L 474.909 397.866 L 474.965 396.763 L 474.995 395.659 L 474.998 394.554 L 474.973 393.450 L 474.922 392.347 L 474.843 391.245 L 474.737 390.146 L 474.605 389.049 L 474.445 387.956 L 474.259 386.868 L 474.046 385.784 L 473.807 384.706 L 473.541 383.634 L 473.249 382.569 L 472.931 381.511 L 472.587 380.462 L 472.217 379.421 L 471.822 378.389 L 471.402 377.368 L 470.957 376.357 L 470.487 375.358 L 469.993 374.370 L 469.474 373.395 L 468.932 372.433 L 468.367 371.484 L 467.778 370.550 L 467.167 369.630 L 466.533 368.725 L 465.877 367.837 L 465.200 366.964 L 464.501 366.109 L 463.781 365.271 L 463.042 364.451 L 462.282 363.649 L 461.503 362.866 L 460.705 362.103 L 459.888 361.359 L 459.054 360.636 L 458.202 359.933 L 457.333 359.252 L 456.447 358.592 L 455.546 357.954 L 454.629 357.338 L 453.697 356.745 L 452.751 356.175 L 451.791 355.628 L 450.819 355.105 L 449.833 354.606 L 448.836 354.132 L 447.827 353.682 L 446.808 353.257 L 445.778 352.857 L 444.739 352.482 L 443.692 352.133 L 442.635 351.810 L 441.572 351.513 L 440.501 351.242 L 439.424 350.998 L 438.341 350.780 L 437.254 350.588 L 436.161 350.424 L 435.066 350.286 L 433.967 350.175 L 432.866 350.091 L 431.763 350.035 L 430.659 350.005 L 429.554 350.002 L 428.450 350.027 L 427.347 350.078 L 426.245 350.157 L 425.146 350.263 L 424.049 350.395 L 422.956 350.555 L 421.868 350.741 L 420.784 350.954 L 419.706 351.193 L 418.634 351.459 L 417.569 351.751 L 416.511 352.069 L 415.462 352.413 L 414.421 352.783 L 413.389 353.178 L 412.368 353.598 L 411.357 354.043 L 410.358 354.513 L 409.370 355.007 L 408.395 355.526 L 407.433 356.068 L 406.484 356.633 L 405.550 357.222 L 404.630 357.833 L 403.725 358.467 L 402.837 359.123 L 401.964 359.800 L 401.109 360.499 L 400.271 361.219 L 399.451 361.958 L 398.649 362.718 L 397.866 363.497 L 397.103 364.295 L 396.359 365.112 L 395.636 365.946 L 394.933 366.798 L 394.252 367.667 L 393.592 368.553 L 392.954 369.454 L 392.338 370.371 L 391.745 371.303 L 391.175 372.249 L 390.628 373.209 L 390.105 374.181 L 389.606 375.167 L 389.132 376.164 L 388.682 377.173 L 388.257 378.192 L 387.857 379.222 L 387.482 380.261 L 300.000 632.614 L 212.518 380.261 L 212.143 379.222 L 211.743 378.192 L 211.318 377.173 L 210.868 376.164 L 210.394 375.167 L 209.895 374.181 L 209.372 373.209 L 208.825 372.249 L 208.255 371.303 L 207.662 370.371 L 207.046 369.454 L 206.408 368.553 L 205.748 367.667 L 205.067 366.798 L 204.364 365.946 L 203.641 365.112 L 202.897 364.295 L 202.134 363.497 L 201.351 362.718 L 200.549 361.958 L 199.729 361.219 L 198.891 360.499 L 198.036 359.800 L 197.163 359.123 L 196.275 358.467 L 195.370 357.833 L 194.450 357.222 L 193.516 356.633 L 192.567 356.068 L 191.605 355.526 L 190.630 355.007 L 189.642 354.513 L 188.643 354.043 L 187.632 353.598 L 186.611 353.178 L 185.579 352.783 L 184.538 352.413 L 183.489 352.069 L 182.431 351.751 L 181.366 351.459 L 180.294 351.193 L 179.216 350.954 L 178.132 350.741 L 177.044 350.555 L 175.951 350.395 L 174.854 350.263 L 173.755 350.157 L 172.653 350.078 L 171.550 350.027 L 170.446 350.002 L 169.341 350.005 L 168.237 350.035 L 167.134 350.091 L 166.033 350.175 L 164.934 350.286 L 163.839 350.424 L 162.746 350.588 L 161.659 350.780 L 160.576 350.998 L 159.499 351.242 L 158.428 351.513 L 157.365 351.810 L 156.308 352.133 L 155.261 352.482 L 154.222 352.857 L 153.192 353.257 L 152.173 353.682 L 151.164 354.132 L 150.167 354.606 L 149.181 355.105 L 148.209 355.628 L 147.249 356.175 L 146.303 356.745 L 145.371 357.338 L 144.454 357.954 L 143.553 358.592 L 142.667 359.252 L 141.798 359.933 L 140.946 360.636 L 140.112 361.359 L 139.295 362.103 L 138.497 362.866 L 137.718 363.649 L 136.958 364.451 L 136.219 365.271 L 135.499 366.109 L 134.800 366.964 L 134.123 367.837 L 133.467 368.725 L 132.833 369.630 L 132.222 370.550 L 131.633 371.484 L 131.068 372.433 L 130.526 373.395 L 130.007 374.370 L 129.513 375.358 L 129.043 376.357 L 128.598 377.368 L 128.178 378.389 L 127.783 379.421 L 127.413 380.462 L 127.069 381.511 L 126.751 382.569 L 126.459 383.634 L 126.193 384.706 L 125.954 385.784 L 125.741 386.868 L 125.555 387.956 L 125.395 389.049 L 125.263 390.146 L 125.157 391.245 L 125.078 392.347 L 125.027 393.450 L 125.002 394.554 L 125.005 395.659 L 125.035 396.763 L 125.091 397.866 L 125.175 398.967 L 125.286 400.066 L 125.424 401.161 L 125.588 402.254 L 125.780 403.341 L 125.998 404.424 L 126.242 405.501 L 126.513 406.572 L 126.810 407.635 L 127.133 408.692 L 127.482 409.739 L 257.482 784.739 Z" fill="black" fill-rule="evenodd"/>
</svg>
