<svg xmlns="http://www.w3.org/2000/svg" viewBox="0 0 600.000 1000.000">
  <path d="M 522.208,735.054 L 524.411,735.217 L 526.603,735.487 L 528.779,735.865 L 530.934,736.349 L 533.063,736.938 L 535.160,737.631 L 537.221,738.425 L 539.240,739.320 L 541.213,740.314 L 543.135,741.402 L 545.001,742.584 L 546.806,743.856 L 548.548,745.215 L 550.220,746.657 L 551.820,748.180 L 553.343,749.780 L 554.785,751.452 L 556.144,753.194 L 557.416,754.999 L 558.598,756.865 L 559.686,758.787 L 560.680,760.760 L 561.575,762.779 L 562.369,764.840 L 563.062,766.937 L 563.651,769.066 L 564.135,771.221 L 564.513,773.397 L 564.783,775.589 L 564.946,777.792 L 565.000,780.000 L 564.946,782.208 L 564.783,784.411 L 564.513,786.603 L 564.135,788.779 L 563.651,790.934 L 563.062,793.063 L 562.369,795.160 L 561.575,797.221 L 560.680,799.240 L 559.686,801.213 L 558.598,803.135 L 557.416,805.001 L 556.144,806.806 L 554.785,808.548 L 553.343,810.220 L 551.820,811.820 L 550.220,813.343 L 548.548,814.785 L 546.806,816.144 L 545.001,817.416 L 543.135,818.598 L 541.213,819.686 L 539.240,820.680 L 537.221,821.575 L 535.160,822.369 L 533.063,823.062 L 530.934,823.651 L 528.779,824.135 L 526.603,824.513 L 524.411,824.783 L 522.208,824.946 L 520.000,825.000 L 80.000,825.000 L 79.662,824.992 L 79.324,824.995 L 78.558,824.965 L 77.792,824.946 L 77.455,824.921 L 77.117,824.908 L 76.353,824.840 L 75.589,824.783 L 75.253,824.742 L 74.917,824.712 L 74.158,824.607 L 73.397,824.513 L 73.064,824.455 L 72.729,824.409 L 71.976,824.266 L 71.221,824.135 L 70.891,824.061 L 70.558,823.998 L 69.813,823.819 L 69.066,823.651 L 68.740,823.561 L 68.411,823.482 L 67.676,823.267 L 66.937,823.062 L 66.616,822.956 L 66.291,822.861 L 65.567,822.610 L 64.840,822.369 L 64.524,822.248 L 64.205,822.137 L 63.494,821.850 L 62.779,821.575 L 62.470,821.437 L 62.156,821.311 L 61.460,820.990 L 60.760,820.680 L 60.458,820.527 L 60.151,820.386 L 59.472,820.031 L 58.787,819.686 L 58.493,819.520 L 58.193,819.363 L 57.532,818.975 L 56.865,818.598 L 56.580,818.417 L 56.288,818.246 L 55.647,817.826 L 54.999,817.416 L 54.723,817.221 L 54.440,817.036 L 53.820,816.586 L 53.194,816.144 L 52.927,815.936 L 52.653,815.737 L 52.056,815.257 L 51.452,814.785 L 51.196,814.565 L 50.933,814.352 L 50.360,813.843 L 49.780,813.343 L 49.535,813.110 L 49.282,812.885 L 48.735,812.348 L 48.180,811.820 L 47.947,811.575 L 47.705,811.338 L 47.186,810.775 L 46.657,810.220 L 46.436,809.964 L 46.207,809.715 L 45.715,809.128 L 45.215,808.548 L 45.006,808.281 L 44.789,808.022 L 44.327,807.410 L 43.856,806.806 L 43.661,806.530 L 43.457,806.260 L 43.025,805.627 L 42.584,805.001 L 42.403,804.715 L 42.212,804.435 L 41.812,803.782 L 41.402,803.135 L 41.235,802.840 L 41.059,802.552 L 40.691,801.880 L 40.314,801.213 L 40.161,800.911 L 39.999,800.614 L 39.665,799.924 L 39.320,799.240 L 39.183,798.931 L 39.036,798.626 L 38.736,797.921 L 38.425,797.221 L 38.304,796.905 L 38.171,796.594 L 37.906,795.875 L 37.631,795.160 L 37.524,794.839 L 37.407,794.521 L 37.178,793.790 L 36.938,793.063 L 36.847,792.737 L 36.746,792.414 L 36.553,791.673 L 36.349,790.934 L 36.274,790.604 L 36.189,790.277 L 36.033,789.527 L 35.865,788.779 L 35.807,788.446 L 35.738,788.115 L 35.618,787.358 L 35.487,786.603 L 35.446,786.267 L 35.393,785.933 L 35.310,785.171 L 35.217,784.411 L 35.192,784.073 L 35.155,783.737 L 35.111,782.972 L 35.054,782.208 L 35.046,781.870 L 35.026,781.532 L 35.019,780.766 L 35.000,780.000 L 35.008,779.662 L 35.005,779.324 L 35.035,778.558 L 35.054,777.792 L 35.079,777.455 L 35.092,777.117 L 35.160,776.353 L 35.217,775.589 L 35.258,775.253 L 35.288,774.917 L 35.393,774.158 L 35.487,773.397 L 35.545,773.064 L 35.591,772.729 L 35.734,771.976 L 35.865,771.221 L 35.939,770.891 L 36.002,770.558 L 36.181,769.813 L 36.349,769.066 L 36.439,768.740 L 36.518,768.411 L 36.733,767.676 L 36.938,766.937 L 37.044,766.616 L 37.139,766.291 L 37.390,765.567 L 37.631,764.840 L 37.752,764.524 L 37.863,764.205 L 38.150,763.494 L 38.425,762.779 L 38.563,762.470 L 38.689,762.156 L 39.010,761.460 L 39.320,760.760 L 39.473,760.458 L 39.614,760.151 L 39.969,759.472 L 40.314,758.787 L 40.480,758.493 L 40.637,758.193 L 41.025,757.532 L 41.402,756.865 L 41.583,756.580 L 41.754,756.288 L 42.174,755.647 L 42.584,754.999 L 42.779,754.723 L 42.964,754.440 L 43.414,753.820 L 43.856,753.194 L 44.064,752.927 L 44.263,752.653 L 44.743,752.056 L 45.215,751.452 L 45.435,751.196 L 45.648,750.933 L 422.975,305.000 L 80.000,305.000 L 77.792,304.946 L 75.589,304.783 L 73.397,304.513 L 71.221,304.135 L 69.066,303.651 L 66.937,303.062 L 64.840,302.369 L 62.779,301.575 L 60.760,300.680 L 58.787,299.686 L 56.865,298.598 L 54.999,297.416 L 53.194,296.144 L 51.452,294.785 L 49.780,293.343 L 48.180,291.820 L 46.657,290.220 L 45.215,288.548 L 43.856,286.806 L 42.584,285.001 L 41.402,283.135 L 40.314,281.213 L 39.320,279.240 L 38.425,277.221 L 37.631,275.160 L 36.938,273.063 L 36.349,270.934 L 35.865,268.779 L 35.487,266.603 L 35.217,264.411 L 35.054,262.208 L 35.000,260.000 L 35.054,257.792 L 35.217,255.589 L 35.487,253.397 L 35.865,251.221 L 36.349,249.066 L 36.938,246.937 L 37.631,244.840 L 38.425,242.779 L 39.320,240.760 L 40.314,238.787 L 41.402,236.865 L 42.584,234.999 L 43.856,233.194 L 45.215,231.452 L 46.657,229.780 L 48.180,228.180 L 49.780,226.657 L 51.452,225.215 L 53.194,223.856 L 54.999,222.584 L 56.865,221.402 L 58.787,220.314 L 60.760,219.320 L 62.779,218.425 L 64.840,217.631 L 66.937,216.938 L 69.066,216.349 L 71.221,215.865 L 73.397,215.487 L 75.589,215.217 L 77.792,215.054 L 80.000,215.000 L 520.000,215.000 L 520.338,215.008 L 520.676,215.005 L 521.442,215.035 L 522.208,215.054 L 522.545,215.079 L 522.883,215.092 L 523.647,215.160 L 524.411,215.217 L 524.747,215.258 L 525.083,215.288 L 525.842,215.393 L 526.603,215.487 L 526.936,215.545 L 527.271,215.591 L 528.024,215.734 L 528.779,215.865 L 529.109,215.939 L 529.442,216.002 L 530.187,216.181 L 530.934,216.349 L 531.260,216.439 L 531.589,216.518 L 532.324,216.733 L 533.063,216.938 L 533.384,217.044 L 533.709,217.139 L 534.433,217.390 L 535.160,217.631 L 535.476,217.752 L 535.795,217.863 L 536.506,218.150 L 537.221,218.425 L 537.530,218.563 L 537.844,218.689 L 538.540,219.010 L 539.240,219.320 L 539.542,219.473 L 539.849,219.614 L 540.528,219.969 L 541.213,220.314 L 541.507,220.480 L 541.807,220.637 L 542.468,221.025 L 543.135,221.402 L 543.420,221.583 L 543.712,221.754 L 544.353,222.174 L 545.001,222.584 L 545.277,222.779 L 545.560,222.964 L 546.180,223.414 L 546.806,223.856 L 547.073,224.064 L 547.347,224.263 L 547.944,224.743 L 548.548,225.215 L 548.804,225.435 L 549.067,225.648 L 549.640,226.157 L 550.220,226.657 L 550.465,226.890 L 550.718,227.115 L 551.265,227.652 L 551.820,228.180 L 552.053,228.425 L 552.295,228.662 L 552.814,229.225 L 553.343,229.780 L 553.564,230.036 L 553.793,230.285 L 554.285,230.872 L 554.785,231.452 L 554.994,231.719 L 555.211,231.978 L 555.673,232.590 L 556.144,233.194 L 556.339,233.470 L 556.543,233.740 L 556.975,234.373 L 557.416,234.999 L 557.597,235.285 L 557.788,235.565 L 558.188,236.218 L 558.598,236.865 L 558.765,237.160 L 558.941,237.448 L 559.309,238.120 L 559.686,238.787 L 559.839,239.089 L 560.001,239.386 L 560.335,240.076 L 560.680,240.760 L 560.817,241.069 L 560.964,241.374 L 561.264,242.079 L 561.575,242.779 L 561.696,243.095 L 561.829,243.406 L 562.094,244.125 L 562.369,244.840 L 562.476,245.161 L 562.593,245.479 L 562.822,246.210 L 563.062,246.937 L 563.153,247.263 L 563.254,247.586 L 563.447,248.327 L 563.651,249.066 L 563.726,249.396 L 563.811,249.723 L 563.967,250.473 L 564.135,251.221 L 564.193,251.554 L 564.262,251.885 L 564.382,252.642 L 564.513,253.397 L 564.554,253.733 L 564.607,254.067 L 564.690,254.829 L 564.783,255.589 L 564.808,255.927 L 564.845,256.263 L 564.889,257.028 L 564.946,257.792 L 564.954,258.130 L 564.974,258.468 L 564.981,259.234 L 565.000,260.000 L 564.992,260.338 L 564.995,260.676 L 564.965,261.442 L 564.946,262.208 L 564.921,262.545 L 564.908,262.883 L 564.840,263.647 L 564.783,264.411 L 564.742,264.747 L 564.712,265.083 L 564.607,265.842 L 564.513,266.603 L 564.455,266.936 L 564.409,267.271 L 564.266,268.024 L 564.135,268.779 L 564.061,269.109 L 563.998,269.442 L 563.819,270.187 L 563.651,270.934 L 563.561,271.260 L 563.482,271.589 L 563.267,272.324 L 563.062,273.063 L 562.956,273.384 L 562.861,273.709 L 562.610,274.433 L 562.369,275.160 L 562.248,275.476 L 562.137,275.795 L 561.850,276.506 L 561.575,277.221 L 561.437,277.530 L 561.311,277.844 L 560.990,278.540 L 560.680,279.240 L 560.527,279.542 L 560.386,279.849 L 560.031,280.528 L 559.686,281.213 L 559.520,281.507 L 559.363,281.807 L 558.975,282.468 L 558.598,283.135 L 558.417,283.420 L 558.246,283.712 L 557.826,284.353 L 557.416,285.001 L 557.221,285.277 L 557.036,285.560 L 556.586,286.180 L 556.144,286.806 L 555.936,287.073 L 555.737,287.347 L 555.257,287.944 L 554.785,288.548 L 554.565,288.804 L 554.352,289.067 L 177.025,735.000 L 520.000,735.000 L 522.208,735.054 Z" fill="black" fill-rule="evenodd"/>
</svg>
