<svg xmlns="http://www.w3.org/2000/svg" viewBox="0 0 600.000 1000">
  <path d="M 320.260 649.769 L 320.251 649.797 L 320.189 649.961 L 320.089 650.194 L 319.944 650.498 L 319.746 650.872 L 319.488 651.317 L 319.165 651.829 L 318.772 652.405 L 318.304 653.042 L 317.759 653.735 L 317.134 654.480 L 316.429 655.271 L 315.641 656.104 L 314.772 656.974 L 313.820 657.876 L 312.788 658.806 L 311.676 659.760 L 310.486 660.733 L 309.220 661.722 L 307.880 662.722 L 306.468 663.731 L 304.987 664.745 L 303.439 665.762 L 301.826 666.778 L 300.152 667.791 L 298.420 668.798 L 296.631 669.798 L 294.790 670.788 L 292.899 671.766 L 290.960 672.730 L 288.977 673.679 L 286.953 674.612 L 284.891 675.526 L 282.793 676.420 L 280.663 677.294 L 278.503 678.145 L 276.317 678.973 L 274.107 679.777 L 271.877 680.555 L 269.629 681.307 L 267.366 682.032 L 265.092 682.729 L 262.808 683.397 L 260.519 684.036 L 258.228 684.645 L 255.937 685.223 L 253.649 685.769 L 251.367 686.284 L 249.096 686.766 L 246.837 687.216 L 244.594 687.632 L 242.371 688.015 L 240.170 688.364 L 237.996 688.680 L 235.851 688.961 L 233.739 689.208 L 231.664 689.421 L 229.630 689.600 L 227.639 689.745 L 225.698 689.857 L 223.808 689.936 L 221.976 689.983 L 219.811 690.002 L 218.707 690.025 L 217.603 690.075 L 216.502 690.152 L 215.402 690.256 L 214.306 690.388 L 213.213 690.546 L 212.124 690.731 L 211.040 690.942 L 209.961 691.180 L 208.889 691.445 L 207.823 691.735 L 206.765 692.052 L 205.715 692.395 L 204.674 692.763 L 203.642 693.157 L 202.620 693.576 L 201.609 694.020 L 200.609 694.488 L 199.621 694.981 L 198.645 695.498 L 197.682 696.039 L 196.733 696.604 L 195.797 697.191 L 194.877 697.801 L 193.972 698.434 L 193.082 699.089 L 192.209 699.765 L 191.353 700.463 L 190.514 701.181 L 189.693 701.920 L 188.890 702.678 L 188.106 703.456 L 187.342 704.254 L 186.597 705.069 L 185.873 705.903 L 185.169 706.754 L 184.486 707.622 L 183.825 708.507 L 183.186 709.408 L 182.569 710.324 L 181.975 711.255 L 181.404 712.200 L 180.856 713.159 L 180.332 714.131 L 179.831 715.116 L 179.356 716.112 L 178.904 717.121 L 178.478 718.139 L 178.077 719.168 L 177.701 720.207 L 177.351 721.254 L 177.026 722.310 L 176.728 723.373 L 176.456 724.444 L 176.210 725.520 L 175.990 726.603 L 175.798 727.690 L 175.632 728.782 L 175.492 729.878 L 175.380 730.977 L 175.295 732.078 L 175.237 733.181 L 175.206 734.285 L 175.202 735.389 L 175.225 736.493 L 175.275 737.597 L 175.352 738.698 L 175.456 739.798 L 175.588 740.894 L 175.746 741.987 L 175.931 743.076 L 176.142 744.160 L 176.380 745.239 L 176.645 746.311 L 176.935 747.377 L 177.252 748.435 L 177.595 749.485 L 177.963 750.526 L 178.357 751.558 L 178.776 752.580 L 179.220 753.591 L 179.688 754.591 L 180.181 755.579 L 180.698 756.555 L 181.239 757.518 L 181.804 758.467 L 182.391 759.403 L 183.001 760.323 L 183.634 761.228 L 184.289 762.118 L 184.965 762.991 L 185.663 763.847 L 186.381 764.686 L 187.120 765.507 L 187.878 766.310 L 188.656 767.094 L 189.454 767.858 L 190.269 768.603 L 191.103 769.327 L 191.954 770.031 L 192.822 770.714 L 193.707 771.375 L 194.608 772.014 L 195.524 772.631 L 196.455 773.225 L 197.400 773.796 L 198.359 774.344 L 199.331 774.868 L 200.316 775.369 L 201.312 775.844 L 202.321 776.296 L 203.339 776.722 L 204.368 777.123 L 205.407 777.499 L 206.454 777.849 L 207.510 778.174 L 208.573 778.472 L 209.644 778.744 L 210.720 778.990 L 211.803 779.210 L 212.890 779.402 L 213.982 779.568 L 215.078 779.708 L 216.177 779.820 L 217.278 779.905 L 218.381 779.963 L 219.485 779.994 L 220.589 779.998 L 223.133 779.976 L 223.891 779.963 L 226.469 779.898 L 227.201 779.873 L 229.811 779.764 L 230.520 779.729 L 233.161 779.577 L 233.848 779.532 L 236.516 779.337 L 237.185 779.283 L 239.879 779.046 L 240.529 778.984 L 243.247 778.705 L 243.882 778.635 L 246.621 778.315 L 247.241 778.238 L 250.000 777.876 L 250.607 777.792 L 253.383 777.390 L 253.979 777.299 L 256.771 776.856 L 257.356 776.759 L 260.161 776.276 L 260.737 776.173 L 263.553 775.650 L 264.122 775.541 L 266.946 774.979 L 267.508 774.863 L 270.340 774.262 L 270.896 774.140 L 273.732 773.500 L 274.284 773.372 L 277.123 772.694 L 277.671 772.559 L 280.510 771.843 L 281.057 771.702 L 283.894 770.948 L 284.438 770.800 L 287.272 770.009 L 287.816 769.854 L 290.643 769.026 L 291.187 768.863 L 294.007 768.000 L 294.552 767.829 L 297.361 766.929 L 297.909 766.749 L 300.705 765.814 L 301.256 765.626 L 304.038 764.655 L 304.592 764.457 L 307.358 763.451 L 307.917 763.244 L 310.664 762.203 L 311.228 761.986 L 313.955 760.911 L 314.525 760.681 L 317.228 759.573 L 317.806 759.331 L 320.484 758.189 L 321.069 757.935 L 323.721 756.759 L 324.315 756.491 L 326.937 755.283 L 327.541 755.000 L 330.132 753.759 L 330.746 753.460 L 333.303 752.187 L 333.928 751.870 L 336.450 750.566 L 337.087 750.230 L 339.572 748.894 L 340.221 748.538 L 342.666 747.171 L 343.329 746.793 L 345.732 745.396 L 346.410 744.994 L 348.769 743.567 L 349.461 743.139 L 351.774 741.682 L 352.482 741.227 L 354.746 739.740 L 355.471 739.254 L 357.685 737.738 L 358.426 737.220 L 360.587 735.675 L 361.345 735.122 L 363.452 733.549 L 364.228 732.957 L 366.278 731.355 L 367.071 730.722 L 369.062 729.093 L 369.872 728.415 L 371.803 726.759 L 372.630 726.032 L 374.497 724.349 L 375.340 723.569 L 377.143 721.860 L 378.001 721.024 L 379.736 719.288 L 380.608 718.391 L 382.273 716.630 L 383.156 715.668 L 384.751 713.881 L 385.643 712.850 L 387.163 711.037 L 388.061 709.932 L 389.506 708.095 L 390.406 706.912 L 391.772 705.050 L 392.669 703.784 L 393.956 701.899 L 394.844 700.546 L 396.049 698.637 L 396.492 697.920 L 396.921 697.195 L 398.042 695.263 L 398.474 694.500 L 398.892 693.729 L 399.926 691.774 L 400.344 690.964 L 400.745 690.146 L 401.691 688.169 L 402.090 687.312 L 402.470 686.448 L 403.325 684.448 L 403.700 683.545 L 404.054 682.635 L 404.817 680.613 L 405.162 679.666 L 405.486 678.711 L 406.153 676.668 L 406.464 675.679 L 406.752 674.682 L 407.323 672.618 L 407.594 671.590 L 407.841 670.556 L 408.313 668.471 L 408.540 667.409 L 408.741 666.342 L 409.111 664.236 L 409.289 663.145 L 409.441 662.051 L 409.708 659.925 L 409.834 658.813 L 409.932 657.697 L 410.094 655.552 L 410.165 654.425 L 410.208 653.296 L 410.262 651.132 L 410.276 650.062 L 410.265 648.992 L 410.184 645.356 L 410.149 644.321 L 410.090 643.287 L 409.848 639.767 L 409.763 638.705 L 409.652 637.645 L 409.256 634.238 L 409.117 633.156 L 408.952 632.078 L 408.405 628.782 L 408.210 627.689 L 407.988 626.601 L 407.296 623.412 L 407.044 622.317 L 406.765 621.229 L 405.933 618.143 L 405.625 617.057 L 405.290 615.979 L 404.322 612.994 L 403.960 611.926 L 403.572 610.867 L 402.473 607.979 L 402.062 606.939 L 401.625 605.909 L 400.399 603.116 L 399.944 602.112 L 399.464 601.119 L 398.116 598.417 L 397.623 597.456 L 397.107 596.508 L 395.642 593.894 L 395.119 592.983 L 394.574 592.086 L 392.997 589.555 L 392.450 588.699 L 391.885 587.856 L 390.201 585.407 L 389.639 584.609 L 389.060 583.823 L 387.273 581.452 L 386.704 580.712 L 386.119 579.984 L 384.235 577.688 L 383.665 577.008 L 383.081 576.338 L 381.104 574.114 L 380.540 573.491 L 379.964 572.879 L 377.899 570.723 L 376.783 569.599 L 374.634 567.509 L 373.552 566.491 L 371.325 564.463 L 370.284 563.545 L 367.983 561.576 L 366.990 560.751 L 364.620 558.838 L 363.680 558.100 L 361.245 556.239 L 360.362 555.581 L 357.867 553.770 L 357.043 553.186 L 354.494 551.421 L 353.730 550.904 L 351.131 549.182 L 350.430 548.727 L 347.785 547.045 L 347.147 546.647 L 344.462 545.001 L 343.886 544.655 L 341.165 543.043 L 340.653 542.744 L 337.901 541.162 L 337.453 540.908 L 334.674 539.353 L 334.288 539.140 L 331.489 537.609 L 331.165 537.434 L 328.349 535.923 L 328.088 535.784 L 325.259 534.292 L 325.061 534.187 L 322.225 532.709 L 322.089 532.638 L 319.251 531.171 L 319.177 531.133 L 316.342 529.673 L 313.529 528.226 L 310.797 526.816 L 308.146 525.438 L 305.582 524.090 L 303.111 522.772 L 300.739 521.482 L 298.472 520.220 L 296.316 518.988 L 294.277 517.786 L 292.362 516.616 L 290.576 515.482 L 288.925 514.387 L 287.414 513.336 L 286.046 512.335 L 284.825 511.389 L 283.753 510.507 L 282.829 509.694 L 282.050 508.960 L 281.412 508.311 L 280.907 507.752 L 280.524 507.290 L 280.248 506.924 L 280.064 506.652 L 279.953 506.467 L 279.894 506.357 L 279.869 506.302 L 279.860 506.279 L 279.853 506.258 L 279.839 506.206 L 279.815 506.087 L 279.784 505.867 L 279.754 505.512 L 279.738 504.900 L 279.748 504.457 L 279.783 503.941 L 279.840 503.439 L 279.921 502.939 L 280.025 502.431 L 280.158 501.907 L 280.323 501.357 L 280.525 500.775 L 280.768 500.156 L 281.060 499.496 L 281.404 498.793 L 281.805 498.045 L 282.270 497.252 L 282.800 496.416 L 283.401 495.538 L 284.075 494.620 L 284.823 493.666 L 285.648 492.677 L 286.551 491.659 L 287.532 490.613 L 288.591 489.545 L 289.727 488.458 L 290.940 487.354 L 292.227 486.239 L 293.587 485.115 L 295.019 483.985 L 296.520 482.852 L 298.087 481.720 L 299.719 480.591 L 301.411 479.468 L 303.162 478.353 L 304.969 477.248 L 306.828 476.156 L 308.736 475.078 L 310.690 474.017 L 312.687 472.974 L 314.724 471.950 L 316.797 470.948 L 318.904 469.968 L 321.040 469.012 L 323.203 468.082 L 325.389 467.177 L 327.594 466.300 L 329.816 465.451 L 332.051 464.631 L 334.295 463.841 L 336.545 463.082 L 338.798 462.354 L 341.050 461.659 L 343.297 460.996 L 345.536 460.366 L 347.763 459.771 L 349.975 459.209 L 352.167 458.683 L 354.336 458.191 L 356.478 457.735 L 358.589 457.315 L 360.664 456.930 L 362.700 456.581 L 364.692 456.268 L 366.635 455.991 L 368.525 455.750 L 370.356 455.543 L 372.123 455.372 L 373.821 455.234 L 375.444 455.130 L 376.985 455.058 L 378.437 455.016 L 380.244 454.998 L 381.348 454.973 L 382.451 454.922 L 383.553 454.843 L 384.652 454.738 L 385.749 454.605 L 386.841 454.446 L 387.930 454.259 L 389.014 454.047 L 390.092 453.807 L 391.164 453.541 L 392.229 453.249 L 393.287 452.931 L 394.336 452.588 L 395.377 452.218 L 396.408 451.823 L 397.430 451.403 L 398.441 450.958 L 399.440 450.488 L 400.428 449.994 L 401.403 449.475 L 402.365 448.933 L 403.314 448.368 L 404.249 447.779 L 405.168 447.168 L 406.073 446.534 L 406.962 445.878 L 407.834 445.201 L 408.689 444.502 L 409.527 443.783 L 410.347 443.043 L 411.149 442.284 L 411.932 441.505 L 412.695 440.706 L 413.439 439.890 L 414.163 439.055 L 414.865 438.203 L 415.547 437.334 L 416.207 436.449 L 416.845 435.547 L 417.461 434.631 L 418.054 433.699 L 418.624 432.753 L 419.171 431.793 L 419.694 430.821 L 420.193 429.835 L 420.667 428.838 L 421.117 427.829 L 421.542 426.810 L 421.942 425.781 L 422.317 424.742 L 422.666 423.694 L 422.989 422.638 L 423.286 421.574 L 423.557 420.503 L 423.802 419.426 L 424.020 418.343 L 424.211 417.256 L 424.376 416.164 L 424.514 415.068 L 424.625 413.969 L 424.709 412.868 L 424.765 411.765 L 424.795 410.661 L 424.798 409.556 L 424.773 408.452 L 424.722 407.349 L 424.643 406.247 L 424.538 405.148 L 424.405 404.051 L 424.246 402.959 L 424.059 401.870 L 423.847 400.786 L 423.607 399.708 L 423.341 398.636 L 423.049 397.571 L 422.731 396.513 L 422.388 395.464 L 422.018 394.423 L 421.623 393.392 L 421.203 392.370 L 420.758 391.359 L 420.288 390.360 L 419.794 389.372 L 419.275 388.397 L 418.733 387.435 L 418.168 386.486 L 417.579 385.551 L 416.968 384.632 L 416.334 383.727 L 415.678 382.838 L 415.001 381.966 L 414.302 381.111 L 413.583 380.273 L 412.843 379.453 L 412.084 378.651 L 411.305 377.868 L 410.506 377.105 L 409.690 376.361 L 408.855 375.637 L 408.003 374.935 L 407.134 374.253 L 406.249 373.593 L 405.347 372.955 L 404.431 372.339 L 403.499 371.746 L 402.553 371.176 L 401.593 370.629 L 400.621 370.106 L 399.635 369.607 L 398.638 369.133 L 397.629 368.683 L 396.610 368.258 L 395.581 367.858 L 394.542 367.483 L 393.494 367.134 L 392.438 366.811 L 391.374 366.514 L 390.303 366.243 L 389.226 365.998 L 388.143 365.780 L 387.056 365.589 L 385.964 365.424 L 384.868 365.286 L 383.769 365.175 L 382.668 365.091 L 381.565 365.035 L 380.461 365.005 L 379.356 365.002 L 377.123 365.024 L 376.269 365.041 L 373.983 365.107 L 373.169 365.138 L 370.833 365.247 L 370.057 365.290 L 367.673 365.444 L 366.929 365.498 L 364.501 365.694 L 363.785 365.758 L 361.314 365.998 L 360.624 366.070 L 358.114 366.353 L 357.446 366.433 L 354.898 366.759 L 354.251 366.847 L 351.668 367.215 L 351.038 367.310 L 348.423 367.720 L 347.808 367.821 L 345.164 368.274 L 344.562 368.382 L 341.891 368.877 L 341.301 368.990 L 338.605 369.527 L 338.024 369.647 L 335.306 370.226 L 334.734 370.352 L 331.996 370.972 L 331.430 371.104 L 328.675 371.766 L 328.115 371.904 L 325.345 372.607 L 324.789 372.752 L 322.008 373.496 L 321.454 373.647 L 318.663 374.432 L 318.111 374.591 L 315.313 375.416 L 314.762 375.583 L 311.959 376.449 L 311.408 376.623 L 308.603 377.529 L 308.050 377.711 L 305.245 378.658 L 304.690 378.849 L 301.888 379.835 L 301.329 380.036 L 298.533 381.062 L 297.970 381.273 L 295.182 382.338 L 294.613 382.560 L 291.836 383.665 L 291.261 383.898 L 288.497 385.042 L 287.915 385.288 L 285.166 386.471 L 284.577 386.729 L 281.846 387.951 L 281.248 388.224 L 278.538 389.485 L 277.930 389.773 L 275.243 391.072 L 274.624 391.377 L 271.963 392.714 L 271.334 393.036 L 268.701 394.411 L 268.060 394.753 L 265.458 396.166 L 264.804 396.528 L 262.235 397.979 L 261.568 398.363 L 259.035 399.851 L 258.354 400.260 L 255.859 401.785 L 255.164 402.219 L 252.710 403.782 L 251.999 404.244 L 249.589 405.844 L 248.863 406.335 L 246.498 407.972 L 245.757 408.496 L 243.441 410.169 L 242.684 410.728 L 240.418 412.437 L 239.646 413.034 L 237.434 414.779 L 236.646 415.416 L 234.490 417.198 L 233.687 417.877 L 231.589 419.695 L 230.771 420.421 L 228.734 422.274 L 227.904 423.050 L 225.930 424.939 L 225.087 425.767 L 223.180 427.692 L 222.326 428.576 L 220.487 430.536 L 219.626 431.481 L 217.858 433.475 L 216.991 434.483 L 215.296 436.513 L 214.426 437.587 L 212.808 439.651 L 211.940 440.796 L 210.400 442.894 L 209.538 444.111 L 208.079 446.244 L 207.227 447.536 L 205.852 449.703 L 205.017 451.072 L 203.728 453.272 L 203.315 453.992 L 202.916 454.720 L 201.715 456.954 L 201.317 457.713 L 200.933 458.479 L 199.824 460.747 L 199.443 461.545 L 199.078 462.350 L 198.063 464.652 L 197.704 465.487 L 197.362 466.330 L 196.443 468.665 L 196.109 469.537 L 195.795 470.416 L 194.974 472.783 L 194.671 473.689 L 194.386 474.602 L 193.667 477.002 L 193.397 477.939 L 193.148 478.882 L 192.532 481.315 L 192.299 482.279 L 192.088 483.249 L 191.578 485.714 L 191.386 486.702 L 191.216 487.693 L 190.815 490.191 L 190.665 491.196 L 190.538 492.205 L 190.249 494.734 L 190.145 495.752 L 190.063 496.772 L 189.888 499.333 L 189.829 500.358 L 189.794 501.383 L 189.735 503.976 L 189.724 505.100 L 189.740 506.224 L 189.822 509.218 L 189.874 510.474 L 189.960 511.729 L 190.202 514.625 L 190.327 515.910 L 190.490 517.191 L 190.886 519.993 L 191.089 521.292 L 191.330 522.585 L 191.877 525.295 L 192.158 526.593 L 192.478 527.882 L 193.170 530.504 L 193.528 531.784 L 193.924 533.053 L 194.756 535.590 L 195.186 536.837 L 195.651 538.070 L 196.620 540.526 L 197.112 541.725 L 197.639 542.908 L 198.739 545.286 L 199.285 546.424 L 199.863 547.547 L 201.089 549.849 L 201.677 550.918 L 202.294 551.970 L 203.641 554.200 L 204.259 555.193 L 204.902 556.170 L 206.367 558.331 L 207.002 559.244 L 207.660 560.141 L 209.236 562.237 L 209.878 563.069 L 210.539 563.887 L 212.223 565.920 L 212.861 566.673 L 213.515 567.412 L 215.302 569.386 L 215.927 570.063 L 216.566 570.727 L 218.451 572.645 L 219.056 573.250 L 219.673 573.843 L 221.651 575.708 L 222.821 576.774 L 224.886 578.589 L 225.995 579.532 L 228.143 581.301 L 229.185 582.132 L 231.412 583.858 L 232.382 584.588 L 234.684 586.273 L 235.579 586.913 L 237.950 588.561 L 238.771 589.119 L 241.206 590.734 L 241.951 591.217 L 244.446 592.802 L 245.117 593.219 L 247.666 594.776 L 248.263 595.134 L 250.862 596.667 L 251.386 596.972 L 254.031 598.484 L 254.484 598.739 L 257.169 600.233 L 257.552 600.444 L 260.273 601.923 L 260.588 602.093 L 263.340 603.561 L 263.587 603.692 L 266.365 605.152 L 266.547 605.247 L 269.346 606.702 L 269.463 606.763 L 272.279 608.216 L 272.332 608.243 L 275.155 609.695 L 277.948 611.133 L 280.681 612.547 L 283.349 613.938 L 285.947 615.309 L 288.471 616.663 L 290.916 618.000 L 293.277 619.321 L 295.548 620.626 L 297.726 621.916 L 299.804 623.190 L 301.779 624.445 L 303.645 625.682 L 305.400 626.897 L 307.040 628.088 L 308.563 629.251 L 309.966 630.383 L 311.250 631.482 L 312.415 632.542 L 313.463 633.562 L 314.399 634.538 L 315.227 635.470 L 315.956 636.358 L 316.593 637.203 L 317.148 638.010 L 317.632 638.787 L 318.055 639.543 L 318.429 640.293 L 318.762 641.053 L 319.063 641.841 L 319.335 642.679 L 319.580 643.590 L 319.799 644.596 L 319.985 645.720 L 320.132 646.984 L 320.229 648.407 L 320.260 649.769 Z" fill="black" fill-rule="evenodd"/>
</svg>
