<svg xmlns="http://www.w3.org/2000/svg" viewBox="0 0 600.000 1000.000">
  <path d="M 80.054,257.792 L 80.217,255.589 L 80.487,253.397 L 80.865,251.221 L 81.349,249.066 L 81.938,246.937 L 82.631,244.840 L 83.425,242.779 L 84.320,240.760 L 85.314,238.787 L 86.402,236.865 L 87.584,234.999 L 88.856,233.194 L 90.215,231.452 L 91.657,229.780 L 93.180,228.180 L 94.780,226.657 L 96.452,225.215 L 98.194,223.856 L 99.999,222.584 L 101.865,221.402 L 103.787,220.314 L 105.760,219.320 L 107.779,218.425 L 109.840,217.631 L 111.937,216.938 L 114.066,216.349 L 116.221,215.865 L 118.397,215.487 L 120.589,215.217 L 122.792,215.054 L 125.000,215.000 L 127.208,215.054 L 129.411,215.217 L 131.603,215.487 L 133.779,215.865 L 135.934,216.349 L 138.063,216.938 L 140.160,217.631 L 142.221,218.425 L 144.240,219.320 L 146.213,220.314 L 148.135,221.402 L 150.001,222.584 L 151.806,223.856 L 153.548,225.215 L 155.220,226.657 L 156.820,228.180 L 158.343,229.780 L 159.785,231.452 L 161.144,233.194 L 162.416,234.999 L 163.598,236.865 L 164.686,238.787 L 165.680,240.760 L 166.575,242.779 L 167.369,244.840 L 168.062,246.937 L 168.651,249.066 L 169.135,251.221 L 169.513,253.397 L 169.783,255.589 L 169.946,257.792 L 170.000,260.000 L 170.000,285.582 L 170.154,285.456 L 176.995,280.117 L 178.769,278.802 L 185.864,273.805 L 187.700,272.578 L 195.032,267.935 L 196.926,266.800 L 204.477,262.522 L 206.425,261.481 L 214.176,257.580 L 216.172,256.635 L 224.106,253.119 L 226.146,252.273 L 234.243,249.150 L 236.322,248.406 L 244.562,245.684 L 246.676,245.043 L 255.039,242.729 L 257.182,242.192 L 265.648,240.291 L 267.815,239.860 L 276.365,238.376 L 278.550,238.052 L 287.162,236.990 L 289.360,236.773 L 298.014,236.135 L 300.220,236.027 L 308.896,235.814 L 311.104,235.814 L 319.780,236.027 L 321.986,236.135 L 330.640,236.773 L 332.838,236.990 L 341.450,238.052 L 343.635,238.376 L 352.185,239.860 L 354.352,240.291 L 362.818,242.192 L 364.961,242.729 L 373.324,245.043 L 375.438,245.684 L 383.678,248.406 L 385.757,249.150 L 393.854,252.273 L 395.894,253.119 L 403.828,256.635 L 405.824,257.580 L 413.575,261.481 L 415.523,262.522 L 423.074,266.800 L 424.968,267.935 L 432.300,272.578 L 434.136,273.805 L 441.231,278.802 L 443.005,280.117 L 449.846,285.456 L 451.554,286.857 L 458.124,292.525 L 459.761,294.009 L 466.046,299.992 L 467.608,301.554 L 473.591,307.839 L 475.075,309.476 L 480.743,316.046 L 482.144,317.754 L 487.483,324.595 L 488.798,326.369 L 493.795,333.464 L 495.022,335.300 L 499.665,342.632 L 500.800,344.526 L 505.078,352.077 L 506.119,354.025 L 510.020,361.776 L 510.965,363.772 L 514.481,371.706 L 515.327,373.746 L 518.450,381.843 L 519.194,383.922 L 521.916,392.162 L 522.557,394.276 L 524.871,402.639 L 525.408,404.782 L 527.309,413.248 L 527.740,415.415 L 529.224,423.965 L 529.548,426.150 L 530.610,434.762 L 530.827,436.960 L 531.465,445.614 L 531.573,447.820 L 531.786,456.496 L 531.786,458.704 L 531.573,467.380 L 531.465,469.586 L 530.827,478.240 L 530.610,480.438 L 529.548,489.050 L 529.224,491.235 L 527.740,499.785 L 527.309,501.952 L 525.408,510.418 L 524.871,512.561 L 522.557,520.924 L 521.916,523.038 L 519.194,531.278 L 518.450,533.357 L 515.327,541.454 L 514.481,543.494 L 510.965,551.428 L 510.020,553.424 L 506.119,561.175 L 505.078,563.123 L 500.800,570.674 L 499.665,572.568 L 495.022,579.900 L 493.795,581.736 L 488.798,588.831 L 487.483,590.605 L 482.144,597.446 L 480.743,599.154 L 475.075,605.724 L 473.591,607.361 L 467.608,613.646 L 466.046,615.208 L 459.761,621.191 L 458.124,622.675 L 451.554,628.343 L 449.846,629.744 L 443.005,635.083 L 441.231,636.398 L 434.136,641.395 L 432.300,642.622 L 424.968,647.265 L 423.074,648.400 L 415.523,652.678 L 413.575,653.719 L 405.824,657.620 L 403.828,658.565 L 395.894,662.081 L 393.854,662.927 L 385.757,666.050 L 383.678,666.794 L 375.438,669.516 L 373.324,670.157 L 364.961,672.471 L 362.818,673.008 L 354.352,674.909 L 352.185,675.340 L 343.635,676.824 L 341.450,677.148 L 332.838,678.210 L 330.640,678.427 L 321.986,679.065 L 319.780,679.173 L 311.104,679.386 L 308.896,679.386 L 300.220,679.173 L 298.014,679.065 L 289.360,678.427 L 287.162,678.210 L 278.550,677.148 L 276.365,676.824 L 267.815,675.340 L 265.648,674.909 L 257.182,673.008 L 255.039,672.471 L 246.676,670.157 L 244.562,669.516 L 236.322,666.794 L 234.243,666.050 L 226.146,662.927 L 224.106,662.081 L 216.172,658.565 L 214.176,657.620 L 206.425,653.719 L 204.477,652.678 L 196.926,648.400 L 195.032,647.265 L 187.700,642.622 L 185.864,641.395 L 178.769,636.398 L 176.995,635.083 L 170.154,629.744 L 170.000,629.618 L 170.000,945.000 L 169.946,947.208 L 169.783,949.411 L 169.513,951.603 L 169.135,953.779 L 168.651,955.934 L 168.062,958.063 L 167.369,960.160 L 166.575,962.221 L 165.680,964.240 L 164.686,966.213 L 163.598,968.135 L 162.416,970.001 L 161.144,971.806 L 159.785,973.548 L 158.343,975.220 L 156.820,976.820 L 155.220,978.343 L 153.548,979.785 L 151.806,981.144 L 150.001,982.416 L 148.135,983.598 L 146.213,984.686 L 144.240,985.680 L 142.221,986.575 L 140.160,987.369 L 138.063,988.062 L 135.934,988.651 L 133.779,989.135 L 131.603,989.513 L 129.411,989.783 L 127.208,989.946 L 125.000,990.000 L 122.792,989.946 L 120.589,989.783 L 118.397,989.513 L 116.221,989.135 L 114.066,988.651 L 111.937,988.062 L 109.840,987.369 L 107.779,986.575 L 105.760,985.680 L 103.787,984.686 L 101.865,983.598 L 99.999,982.416 L 98.194,981.144 L 96.452,979.785 L 94.780,978.343 L 93.180,976.820 L 91.657,975.220 L 90.215,973.548 L 88.856,971.806 L 87.584,970.001 L 86.402,968.135 L 85.314,966.213 L 84.320,964.240 L 83.425,962.221 L 82.631,960.160 L 81.938,958.063 L 81.349,955.934 L 80.865,953.779 L 80.487,951.603 L 80.217,949.411 L 80.054,947.208 L 80.000,945.000 L 80.000,395.720 L 80.000,260.000 L 80.054,257.792 Z M 441.152,444.683 L 440.360,438.263 L 439.254,431.890 L 437.837,425.579 L 436.112,419.344 L 434.083,413.202 L 431.755,407.168 L 429.134,401.254 L 426.225,395.476 L 423.037,389.848 L 419.576,384.383 L 415.852,379.095 L 411.872,373.996 L 407.647,369.098 L 403.187,364.413 L 398.502,359.953 L 393.604,355.728 L 388.505,351.748 L 383.217,348.024 L 377.752,344.563 L 372.124,341.375 L 366.346,338.466 L 360.432,335.845 L 354.398,333.517 L 348.256,331.488 L 342.021,329.763 L 335.710,328.346 L 329.337,327.240 L 322.917,326.448 L 316.466,325.972 L 310.000,325.814 L 303.534,325.972 L 297.083,326.448 L 290.663,327.240 L 284.290,328.346 L 277.979,329.763 L 271.744,331.488 L 265.602,333.517 L 259.568,335.845 L 253.654,338.466 L 247.876,341.375 L 242.248,344.563 L 236.783,348.024 L 232.955,350.720 L 310.000,350.720 L 312.208,350.774 L 314.411,350.937 L 316.603,351.207 L 318.779,351.585 L 320.934,352.069 L 323.063,352.658 L 325.160,353.351 L 327.221,354.145 L 329.240,355.040 L 331.213,356.034 L 333.135,357.122 L 335.001,358.304 L 336.806,359.576 L 338.548,360.935 L 340.220,362.377 L 341.820,363.900 L 343.343,365.500 L 344.785,367.172 L 346.144,368.914 L 347.416,370.719 L 348.598,372.585 L 349.686,374.507 L 350.680,376.480 L 351.575,378.499 L 352.369,380.560 L 353.062,382.657 L 353.651,384.786 L 354.135,386.941 L 354.513,389.117 L 354.783,391.309 L 354.946,393.512 L 355.000,395.720 L 354.946,397.928 L 354.783,400.131 L 354.513,402.323 L 354.135,404.499 L 353.651,406.654 L 353.062,408.783 L 352.369,410.880 L 351.575,412.941 L 350.680,414.960 L 349.686,416.933 L 348.598,418.855 L 347.416,420.721 L 346.144,422.526 L 344.785,424.268 L 343.343,425.940 L 341.820,427.540 L 340.220,429.063 L 338.548,430.505 L 336.806,431.864 L 335.001,433.136 L 333.135,434.318 L 331.213,435.406 L 329.240,436.400 L 327.221,437.295 L 325.160,438.089 L 323.063,438.782 L 320.934,439.371 L 318.779,439.855 L 316.603,440.233 L 314.411,440.503 L 312.208,440.666 L 310.000,440.720 L 179.337,440.720 L 178.848,444.683 L 178.372,451.134 L 178.214,457.600 L 178.372,464.066 L 178.848,470.517 L 179.640,476.937 L 180.746,483.310 L 182.163,489.621 L 183.888,495.856 L 185.917,501.998 L 188.245,508.032 L 190.866,513.946 L 193.775,519.724 L 196.963,525.352 L 200.424,530.817 L 204.148,536.105 L 208.128,541.204 L 212.353,546.102 L 216.813,550.787 L 221.498,555.247 L 226.396,559.472 L 231.495,563.452 L 236.783,567.176 L 242.248,570.637 L 247.876,573.825 L 253.654,576.734 L 259.568,579.355 L 265.602,581.683 L 271.744,583.712 L 277.979,585.437 L 284.290,586.854 L 290.663,587.960 L 297.083,588.752 L 303.534,589.228 L 310.000,589.386 L 316.466,589.228 L 322.917,588.752 L 329.337,587.960 L 335.710,586.854 L 342.021,585.437 L 348.256,583.712 L 354.398,581.683 L 360.432,579.355 L 366.346,576.734 L 372.124,573.825 L 377.752,570.637 L 383.217,567.176 L 388.505,563.452 L 393.604,559.472 L 398.502,555.247 L 403.187,550.787 L 407.647,546.102 L 411.872,541.204 L 415.852,536.105 L 419.576,530.817 L 423.037,525.352 L 426.225,519.724 L 429.134,513.946 L 431.755,508.032 L 434.083,501.998 L 436.112,495.856 L 437.837,489.621 L 439.254,483.310 L 440.360,476.937 L 441.152,470.517 L 441.628,464.066 L 441.786,457.600 L 441.628,451.134 L 441.152,444.683 Z" fill="black" fill-rule="evenodd"/>
</svg>
