<svg xmlns="http://www.w3.org/2000/svg" viewBox="0 0 600.000 1000" width="600.000" height="1000">
  <path d="M 115.000 770.000 L 115.014 771.104 L 115.054 772.208 L 115.122 773.310 L 115.217 774.411 L 115.338 775.508 L 115.487 776.603 L 115.663 777.693 L 115.865 778.779 L 116.093 779.860 L 116.349 780.934 L 116.630 782.002 L 116.938 783.063 L 117.271 784.116 L 117.631 785.160 L 118.015 786.195 L 118.425 787.221 L 118.861 788.236 L 119.320 789.240 L 119.805 790.233 L 120.314 791.213 L 120.846 792.180 L 121.402 793.135 L 121.982 794.075 L 122.584 795.001 L 123.209 795.911 L 123.856 796.806 L 124.524 797.685 L 125.215 798.548 L 125.926 799.393 L 126.657 800.220 L 127.409 801.029 L 128.180 801.820 L 128.971 802.591 L 129.780 803.343 L 130.607 804.074 L 131.452 804.785 L 132.315 805.476 L 133.194 806.144 L 134.089 806.791 L 134.999 807.416 L 135.925 808.018 L 136.865 808.598 L 137.820 809.154 L 138.787 809.686 L 139.767 810.195 L 140.760 810.680 L 141.764 811.139 L 142.779 811.575 L 143.805 811.985 L 144.840 812.369 L 145.884 812.729 L 146.937 813.062 L 147.998 813.370 L 149.066 813.651 L 150.140 813.907 L 151.221 814.135 L 152.307 814.337 L 153.397 814.513 L 154.492 814.662 L 155.589 814.783 L 156.690 814.878 L 157.792 814.946 L 158.896 814.986 L 160.000 815.000 L 440.000 815.000 L 441.104 814.986 L 442.208 814.946 L 443.310 814.878 L 444.411 814.783 L 445.508 814.662 L 446.603 814.513 L 447.693 814.337 L 448.779 814.135 L 449.860 813.907 L 450.934 813.651 L 452.002 813.370 L 453.063 813.062 L 454.116 812.729 L 455.160 812.369 L 456.195 811.985 L 457.221 811.575 L 458.236 811.139 L 459.240 810.680 L 460.233 810.195 L 461.213 809.686 L 462.180 809.154 L 463.135 808.598 L 464.075 808.018 L 465.001 807.416 L 465.911 806.791 L 466.806 806.144 L 467.685 805.476 L 468.548 804.785 L 469.393 804.074 L 470.220 803.343 L 471.029 802.591 L 471.820 801.820 L 472.591 801.029 L 473.343 800.220 L 474.074 799.393 L 474.785 798.548 L 475.476 797.685 L 476.144 796.806 L 476.791 795.911 L 477.416 795.001 L 478.018 794.075 L 478.598 793.135 L 479.154 792.180 L 479.686 791.213 L 480.195 790.233 L 480.680 789.240 L 481.139 788.236 L 481.575 787.221 L 481.985 786.195 L 482.369 785.160 L 482.729 784.116 L 483.062 783.063 L 483.370 782.002 L 483.651 780.934 L 483.907 779.860 L 484.135 778.779 L 484.337 777.693 L 484.513 776.603 L 484.662 775.508 L 484.783 774.411 L 484.878 773.310 L 484.946 772.208 L 484.986 771.104 L 485.000 770.000 L 485.000 360.000 L 484.986 358.896 L 484.946 357.792 L 484.878 356.690 L 484.783 355.589 L 484.662 354.492 L 484.513 353.397 L 484.337 352.307 L 484.135 351.221 L 483.907 350.140 L 483.651 349.066 L 483.370 347.998 L 483.062 346.937 L 482.729 345.884 L 482.369 344.840 L 481.985 343.805 L 481.575 342.779 L 481.139 341.764 L 480.680 340.760 L 480.195 339.767 L 479.686 338.787 L 479.154 337.820 L 478.598 336.865 L 478.018 335.925 L 477.416 334.999 L 476.791 334.089 L 476.144 333.194 L 475.476 332.315 L 474.785 331.452 L 474.074 330.607 L 473.343 329.780 L 472.591 328.971 L 471.820 328.180 L 471.029 327.409 L 470.220 326.657 L 469.393 325.926 L 468.548 325.215 L 467.685 324.524 L 466.806 323.856 L 465.911 323.209 L 465.001 322.584 L 464.075 321.982 L 463.135 321.402 L 462.180 320.846 L 461.213 320.314 L 460.233 319.805 L 459.240 319.320 L 458.236 318.861 L 457.221 318.425 L 456.195 318.015 L 455.160 317.631 L 454.116 317.271 L 453.063 316.938 L 452.002 316.630 L 450.934 316.349 L 449.860 316.093 L 448.779 315.865 L 447.693 315.663 L 446.603 315.487 L 445.508 315.338 L 444.411 315.217 L 443.310 315.122 L 442.208 315.054 L 441.104 315.014 L 440.000 315.000 L 438.896 315.014 L 437.792 315.054 L 436.690 315.122 L 435.589 315.217 L 434.492 315.338 L 433.397 315.487 L 432.307 315.663 L 431.221 315.865 L 430.140 316.093 L 429.066 316.349 L 427.998 316.630 L 426.937 316.938 L 425.884 317.271 L 424.840 317.631 L 423.805 318.015 L 422.779 318.425 L 421.764 318.861 L 420.760 319.320 L 419.767 319.805 L 418.787 320.314 L 417.820 320.846 L 416.865 321.402 L 415.925 321.982 L 414.999 322.584 L 414.089 323.209 L 413.194 323.856 L 412.315 324.524 L 411.452 325.215 L 410.607 325.926 L 409.780 326.657 L 408.971 327.409 L 408.180 328.180 L 407.409 328.971 L 406.657 329.780 L 405.926 330.607 L 405.215 331.452 L 404.524 332.315 L 403.856 333.194 L 403.209 334.089 L 402.584 334.999 L 401.982 335.925 L 401.402 336.865 L 400.846 337.820 L 400.314 338.787 L 399.805 339.767 L 399.320 340.760 L 398.861 341.764 L 398.425 342.779 L 398.015 343.805 L 397.631 344.840 L 397.271 345.884 L 396.938 346.937 L 396.630 347.998 L 396.349 349.066 L 396.093 350.140 L 395.865 351.221 L 395.663 352.307 L 395.487 353.397 L 395.338 354.492 L 395.217 355.589 L 395.122 356.690 L 395.054 357.792 L 395.014 358.896 L 395.000 360.000 L 395.000 725.000 L 205.000 725.000 L 205.000 360.000 L 204.986 358.896 L 204.946 357.792 L 204.878 356.690 L 204.783 355.589 L 204.662 354.492 L 204.513 353.397 L 204.337 352.307 L 204.135 351.221 L 203.907 350.140 L 203.651 349.066 L 203.370 347.998 L 203.062 346.937 L 202.729 345.884 L 202.369 344.840 L 201.985 343.805 L 201.575 342.779 L 201.139 341.764 L 200.680 340.760 L 200.195 339.767 L 199.686 338.787 L 199.154 337.820 L 198.598 336.865 L 198.018 335.925 L 197.416 334.999 L 196.791 334.089 L 196.144 333.194 L 195.476 332.315 L 194.785 331.452 L 194.074 330.607 L 193.343 329.780 L 192.591 328.971 L 191.820 328.180 L 191.029 327.409 L 190.220 326.657 L 189.393 325.926 L 188.548 325.215 L 187.685 324.524 L 186.806 323.856 L 185.911 323.209 L 185.001 322.584 L 184.075 321.982 L 183.135 321.402 L 182.180 320.846 L 181.213 320.314 L 180.233 319.805 L 179.240 319.320 L 178.236 318.861 L 177.221 318.425 L 176.195 318.015 L 175.160 317.631 L 174.116 317.271 L 173.063 316.938 L 172.002 316.630 L 170.934 316.349 L 169.860 316.093 L 168.779 315.865 L 167.693 315.663 L 166.603 315.487 L 165.508 315.338 L 164.411 315.217 L 163.310 315.122 L 162.208 315.054 L 161.104 315.014 L 160.000 315.000 L 158.896 315.014 L 157.792 315.054 L 156.690 315.122 L 155.589 315.217 L 154.492 315.338 L 153.397 315.487 L 152.307 315.663 L 151.221 315.865 L 150.140 316.093 L 149.066 316.349 L 147.998 316.630 L 146.937 316.938 L 145.884 317.271 L 144.840 317.631 L 143.805 318.015 L 142.779 318.425 L 141.764 318.861 L 140.760 319.320 L 139.767 319.805 L 138.787 320.314 L 137.820 320.846 L 136.865 321.402 L 135.925 321.982 L 134.999 322.584 L 134.089 323.209 L 133.194 323.856 L 132.315 324.524 L 131.452 325.215 L 130.607 325.926 L 129.780 326.657 L 128.971 327.409 L 128.180 328.180 L 127.409 328.971 L 126.657 329.780 L 125.926 330.607 L 125.215 331.452 L 124.524 332.315 L 123.856 333.194 L 123.209 334.089 L 122.584 334.999 L 121.982 335.925 L 121.402 336.865 L 120.846 337.820 L 120.314 338.787 L 119.805 339.767 L 119.320 340.760 L 118.861 341.764 L 118.425 342.779 L 118.015 343.805 L 117.631 344.840 L 117.271 345.884 L 116.938 346.937 L 116.630 347.998 L 116.349 349.066 L 116.093 350.140 L 115.865 351.221 L 115.663 352.307 L 115.487 353.397 L 115.338 354.492 L 115.217 355.589 L 115.122 356.690 L 115.054 357.792 L 115.014 358.896 L 115.000 360.000 L 115.000 770.000 Z" fill="black" fill-rule="evenodd"/>
</svg>
