<svg xmlns="http://www.w3.org/2000/svg" viewBox="0 0 600.000 1000">
  <path d="M 195.018 409.680 L 195.040 409.021 L 195.071 408.361 L 195.110 407.702 L 195.158 407.044 L 195.214 406.387 L 195.279 405.730 L 195.353 405.074 L 195.436 404.419 L 195.527 403.766 L 195.627 403.113 L 195.735 402.462 L 195.852 401.813 L 195.978 401.165 L 196.112 400.519 L 196.255 399.874 L 196.406 399.232 L 196.565 398.591 L 196.733 397.953 L 196.910 397.317 L 197.094 396.684 L 197.288 396.052 L 197.489 395.424 L 197.699 394.798 L 197.917 394.175 L 198.143 393.555 L 198.377 392.938 L 198.620 392.324 L 198.870 391.714 L 199.129 391.107 L 199.395 390.503 L 199.670 389.903 L 199.952 389.306 L 200.243 388.714 L 200.541 388.125 L 200.847 387.540 L 201.160 386.959 L 201.481 386.382 L 201.810 385.810 L 202.146 385.242 L 202.490 384.679 L 202.841 384.120 L 203.200 383.566 L 203.565 383.017 L 203.938 382.472 L 204.318 381.933 L 204.706 381.398 L 205.100 380.869 L 205.501 380.345 L 205.909 379.826 L 206.324 379.313 L 206.746 378.805 L 207.174 378.303 L 207.609 377.807 L 208.050 377.316 L 208.498 376.831 L 208.952 376.352 L 209.413 375.879 L 209.879 375.413 L 210.352 374.952 L 210.831 374.498 L 211.316 374.050 L 211.807 373.609 L 212.303 373.174 L 212.805 372.746 L 213.313 372.324 L 213.826 371.909 L 214.345 371.501 L 214.869 371.100 L 215.398 370.706 L 215.933 370.318 L 216.472 369.938 L 217.017 369.565 L 217.566 369.200 L 218.120 368.841 L 218.679 368.490 L 219.242 368.146 L 219.810 367.810 L 220.382 367.481 L 220.959 367.160 L 221.540 366.847 L 222.125 366.541 L 222.714 366.243 L 223.306 365.952 L 223.903 365.670 L 224.503 365.395 L 225.107 365.129 L 225.714 364.870 L 226.324 364.620 L 226.938 364.377 L 227.555 364.143 L 228.175 363.917 L 228.798 363.699 L 229.424 363.489 L 230.052 363.288 L 230.684 363.094 L 231.317 362.910 L 231.953 362.733 L 232.591 362.565 L 233.232 362.406 L 233.874 362.255 L 234.519 362.112 L 235.165 361.978 L 235.813 361.852 L 236.462 361.735 L 237.113 361.627 L 237.766 361.527 L 238.419 361.436 L 239.074 361.353 L 239.730 361.279 L 240.387 361.214 L 241.044 361.158 L 241.702 361.110 L 242.361 361.071 L 243.021 361.040 L 243.680 361.018 L 244.340 361.005 L 245.297 360.999 L 246.401 360.978 L 247.505 360.930 L 248.607 360.855 L 249.706 360.753 L 250.803 360.624 L 251.897 360.468 L 252.986 360.286 L 254.070 360.076 L 255.149 359.841 L 256.222 359.578 L 257.288 359.290 L 258.347 358.975 L 259.397 358.635 L 260.439 358.269 L 261.472 357.877 L 262.495 357.460 L 263.507 357.018 L 264.508 356.552 L 265.497 356.061 L 266.474 355.546 L 267.438 355.007 L 268.389 354.444 L 269.325 353.859 L 270.247 353.250 L 271.154 352.620 L 272.044 351.967 L 272.919 351.292 L 273.777 350.596 L 274.617 349.880 L 275.440 349.143 L 276.244 348.386 L 277.029 347.609 L 277.795 346.814 L 278.542 345.999 L 279.268 345.167 L 279.973 344.317 L 280.658 343.451 L 281.320 342.567 L 281.962 341.668 L 282.580 340.753 L 283.176 339.823 L 283.750 338.879 L 284.299 337.922 L 284.826 336.950 L 285.328 335.967 L 285.806 334.971 L 286.259 333.964 L 286.687 332.946 L 287.091 331.918 L 287.469 330.880 L 287.821 329.833 L 288.148 328.778 L 288.448 327.716 L 288.723 326.646 L 288.971 325.570 L 289.192 324.488 L 289.387 323.400 L 289.556 322.309 L 289.697 321.214 L 289.811 320.115 L 289.899 319.014 L 289.959 317.911 L 289.993 316.807 L 289.999 315.703 L 289.978 314.599 L 289.930 313.495 L 289.855 312.393 L 289.753 311.294 L 289.624 310.197 L 289.468 309.103 L 289.286 308.014 L 289.076 306.930 L 288.841 305.851 L 288.578 304.778 L 288.290 303.712 L 287.975 302.653 L 287.635 301.603 L 287.269 300.561 L 286.877 299.528 L 286.460 298.505 L 286.018 297.493 L 285.552 296.492 L 285.061 295.503 L 284.546 294.526 L 284.007 293.562 L 283.444 292.611 L 282.859 291.675 L 282.250 290.753 L 281.620 289.846 L 280.967 288.956 L 280.292 288.081 L 279.596 287.223 L 278.880 286.383 L 278.143 285.560 L 277.386 284.756 L 276.609 283.971 L 275.814 283.205 L 274.999 282.458 L 274.167 281.732 L 273.317 281.027 L 272.451 280.342 L 271.567 279.680 L 270.668 279.038 L 269.753 278.420 L 268.823 277.824 L 267.879 277.250 L 266.922 276.701 L 265.950 276.174 L 264.967 275.672 L 263.971 275.194 L 262.964 274.741 L 261.946 274.313 L 260.918 273.909 L 259.880 273.531 L 258.833 273.179 L 257.778 272.852 L 256.716 272.552 L 255.646 272.277 L 254.570 272.029 L 253.488 271.808 L 252.400 271.613 L 251.309 271.444 L 250.214 271.303 L 249.115 271.189 L 248.014 271.101 L 246.911 271.041 L 245.807 271.007 L 244.703 271.001 L 243.449 271.009 L 242.855 271.017 L 241.601 271.042 L 241.008 271.058 L 239.754 271.099 L 239.161 271.122 L 237.908 271.180 L 237.315 271.212 L 236.063 271.286 L 235.470 271.325 L 234.220 271.416 L 233.628 271.463 L 232.378 271.571 L 231.787 271.626 L 230.539 271.750 L 229.948 271.812 L 228.702 271.953 L 228.112 272.023 L 226.868 272.180 L 226.279 272.258 L 225.037 272.431 L 224.450 272.517 L 223.210 272.707 L 222.624 272.800 L 221.387 273.006 L 220.801 273.108 L 219.567 273.330 L 218.983 273.439 L 217.752 273.678 L 217.170 273.795 L 215.942 274.049 L 215.361 274.174 L 214.137 274.445 L 213.558 274.577 L 212.337 274.864 L 211.760 275.004 L 210.543 275.307 L 209.968 275.455 L 208.755 275.774 L 208.181 275.929 L 206.973 276.264 L 206.402 276.427 L 205.198 276.778 L 204.629 276.948 L 203.430 277.315 L 202.863 277.492 L 201.669 277.875 L 201.104 278.060 L 199.915 278.459 L 199.353 278.651 L 198.170 279.065 L 197.610 279.265 L 196.432 279.695 L 195.876 279.902 L 194.703 280.348 L 194.150 280.562 L 192.983 281.023 L 192.432 281.245 L 191.272 281.721 L 190.724 281.950 L 189.570 282.441 L 189.025 282.677 L 187.878 283.184 L 187.337 283.428 L 186.196 283.949 L 185.658 284.200 L 184.524 284.736 L 183.989 284.994 L 182.863 285.546 L 182.331 285.810 L 181.212 286.377 L 180.684 286.649 L 179.573 287.230 L 179.048 287.508 L 177.945 288.104 L 177.424 288.390 L 176.329 289.000 L 175.812 289.292 L 174.724 289.917 L 174.211 290.216 L 173.132 290.855 L 172.623 291.161 L 171.553 291.814 L 171.048 292.127 L 169.986 292.794 L 169.485 293.113 L 168.432 293.794 L 167.935 294.120 L 166.892 294.815 L 166.399 295.148 L 165.365 295.856 L 164.877 296.195 L 163.852 296.918 L 163.369 297.263 L 162.353 297.999 L 161.874 298.350 L 160.869 299.099 L 160.395 299.457 L 159.399 300.220 L 158.930 300.584 L 157.944 301.359 L 157.480 301.730 L 156.505 302.518 L 156.045 302.894 L 155.080 303.695 L 154.626 304.078 L 153.672 304.892 L 153.222 305.280 L 152.279 306.106 L 151.835 306.501 L 150.903 307.339 L 150.464 307.740 L 149.543 308.590 L 149.109 308.996 L 148.199 309.859 L 147.771 310.271 L 146.873 311.146 L 146.450 311.563 L 145.563 312.450 L 145.146 312.873 L 144.271 313.771 L 143.859 314.199 L 142.996 315.109 L 142.590 315.543 L 141.740 316.464 L 141.339 316.903 L 140.501 317.835 L 140.106 318.279 L 139.280 319.222 L 138.892 319.672 L 138.078 320.626 L 137.695 321.080 L 136.894 322.045 L 136.518 322.505 L 135.903 323.265 L 135.884 323.271 L 134.840 323.631 L 133.805 324.015 L 132.779 324.425 L 131.764 324.861 L 130.760 325.320 L 129.767 325.805 L 128.787 326.314 L 127.820 326.846 L 126.865 327.402 L 125.925 327.982 L 124.999 328.584 L 124.089 329.209 L 123.194 329.856 L 122.315 330.524 L 121.452 331.215 L 120.607 331.926 L 119.780 332.657 L 118.971 333.409 L 118.180 334.180 L 117.409 334.971 L 116.657 335.780 L 115.926 336.607 L 115.215 337.452 L 114.524 338.315 L 113.856 339.194 L 113.209 340.089 L 112.584 340.999 L 111.982 341.925 L 111.402 342.865 L 110.846 343.820 L 110.314 344.787 L 109.805 345.767 L 109.320 346.760 L 108.861 347.764 L 108.425 348.779 L 108.015 349.805 L 107.631 350.840 L 107.271 351.884 L 106.938 352.937 L 106.630 353.998 L 106.349 355.066 L 106.093 356.140 L 105.865 357.221 L 105.663 358.307 L 105.487 359.397 L 105.338 360.492 L 105.217 361.589 L 105.122 362.690 L 105.054 363.792 L 105.014 364.896 L 105.000 366.000 L 105.000 780.000 L 105.014 781.104 L 105.054 782.208 L 105.122 783.310 L 105.217 784.411 L 105.338 785.508 L 105.487 786.603 L 105.663 787.693 L 105.865 788.779 L 106.093 789.860 L 106.349 790.934 L 106.630 792.002 L 106.938 793.063 L 107.271 794.116 L 107.631 795.160 L 108.015 796.195 L 108.425 797.221 L 108.861 798.236 L 109.320 799.240 L 109.805 800.233 L 110.314 801.213 L 110.846 802.180 L 111.402 803.135 L 111.982 804.075 L 112.584 805.001 L 113.209 805.911 L 113.856 806.806 L 114.524 807.685 L 115.215 808.548 L 115.926 809.393 L 116.657 810.220 L 117.409 811.029 L 118.180 811.820 L 118.971 812.591 L 119.780 813.343 L 120.607 814.074 L 121.452 814.785 L 122.315 815.476 L 123.194 816.144 L 124.089 816.791 L 124.999 817.416 L 125.925 818.018 L 126.865 818.598 L 127.820 819.154 L 128.787 819.686 L 129.767 820.195 L 130.760 820.680 L 131.764 821.139 L 132.779 821.575 L 133.805 821.985 L 134.840 822.369 L 135.884 822.729 L 136.937 823.062 L 137.998 823.370 L 139.066 823.651 L 140.140 823.907 L 141.221 824.135 L 142.307 824.337 L 143.397 824.513 L 144.492 824.662 L 145.589 824.783 L 146.690 824.878 L 147.792 824.946 L 148.896 824.986 L 150.000 825.000 L 151.104 824.986 L 152.208 824.946 L 153.310 824.878 L 154.411 824.783 L 155.508 824.662 L 156.603 824.513 L 157.693 824.337 L 158.779 824.135 L 159.860 823.907 L 160.934 823.651 L 162.002 823.370 L 163.063 823.062 L 164.116 822.729 L 165.160 822.369 L 166.195 821.985 L 167.221 821.575 L 168.236 821.139 L 169.240 820.680 L 170.233 820.195 L 171.213 819.686 L 172.180 819.154 L 173.135 818.598 L 174.075 818.018 L 175.001 817.416 L 175.911 816.791 L 176.806 816.144 L 177.685 815.476 L 178.548 814.785 L 179.393 814.074 L 180.220 813.343 L 181.029 812.591 L 181.820 811.820 L 182.591 811.029 L 183.343 810.220 L 184.074 809.393 L 184.785 808.548 L 185.476 807.685 L 186.144 806.806 L 186.791 805.911 L 187.416 805.001 L 188.018 804.075 L 188.598 803.135 L 189.154 802.180 L 189.686 801.213 L 190.195 800.233 L 190.680 799.240 L 191.139 798.236 L 191.575 797.221 L 191.985 796.195 L 192.369 795.160 L 192.729 794.116 L 193.062 793.063 L 193.370 792.002 L 193.651 790.934 L 193.907 789.860 L 194.135 788.779 L 194.337 787.693 L 194.513 786.603 L 194.662 785.508 L 194.783 784.411 L 194.878 783.310 L 194.946 782.208 L 194.986 781.104 L 195.000 780.000 L 195.000 411.149 L 195.005 410.340 L 195.018 409.680 Z" fill="black" fill-rule="evenodd"/>
</svg>
