<svg xmlns="http://www.w3.org/2000/svg" viewBox="0 0 600.000 1000">
  <path d="M 564.994 519.264 L 564.876 512.066 L 564.828 510.594 L 564.475 503.403 L 564.378 501.934 L 563.790 494.759 L 563.646 493.293 L 562.823 486.141 L 562.631 484.681 L 561.574 477.560 L 561.335 476.107 L 560.046 469.024 L 559.759 467.580 L 558.239 460.543 L 557.904 459.109 L 556.155 452.126 L 555.774 450.703 L 553.797 443.781 L 553.370 442.372 L 551.167 435.518 L 550.694 434.123 L 548.269 427.345 L 547.750 425.967 L 545.104 419.271 L 544.541 417.911 L 541.677 411.306 L 541.070 409.964 L 537.992 403.457 L 537.340 402.136 L 534.051 395.732 L 533.357 394.433 L 529.860 388.141 L 529.123 386.865 L 525.422 380.690 L 524.645 379.440 L 520.743 373.389 L 519.925 372.165 L 515.828 366.245 L 514.971 365.048 L 510.682 359.266 L 509.786 358.098 L 505.310 352.459 L 505.000 352.081 L 505.000 260.000 L 504.976 258.528 L 504.904 257.057 L 504.783 255.589 L 504.615 254.126 L 504.399 252.670 L 504.135 251.221 L 503.824 249.782 L 503.467 248.353 L 503.062 246.937 L 502.612 245.535 L 502.116 244.149 L 501.575 242.779 L 500.989 241.428 L 500.359 240.097 L 499.686 238.787 L 498.971 237.500 L 498.214 236.237 L 497.416 234.999 L 496.578 233.789 L 495.701 232.606 L 494.785 231.452 L 493.833 230.329 L 492.844 229.238 L 491.820 228.180 L 490.762 227.156 L 489.671 226.167 L 488.548 225.215 L 487.394 224.299 L 486.211 223.422 L 485.001 222.584 L 483.763 221.786 L 482.500 221.029 L 481.213 220.314 L 479.903 219.641 L 478.572 219.011 L 477.221 218.425 L 475.851 217.884 L 474.465 217.388 L 473.063 216.938 L 471.647 216.533 L 470.218 216.176 L 468.779 215.865 L 467.330 215.601 L 465.874 215.385 L 464.411 215.217 L 462.943 215.096 L 461.472 215.024 L 460.000 215.000 L 458.528 215.024 L 457.057 215.096 L 455.589 215.217 L 454.126 215.385 L 452.670 215.601 L 451.221 215.865 L 449.782 216.176 L 448.353 216.533 L 446.937 216.938 L 445.535 217.388 L 444.149 217.884 L 442.779 218.425 L 441.428 219.011 L 440.097 219.641 L 438.787 220.314 L 437.500 221.029 L 436.237 221.786 L 434.999 222.584 L 433.789 223.422 L 432.606 224.299 L 431.452 225.215 L 430.329 226.167 L 429.238 227.156 L 428.180 228.180 L 427.156 229.238 L 426.167 230.329 L 425.215 231.452 L 424.299 232.606 L 423.422 233.789 L 422.584 234.999 L 421.786 236.237 L 421.029 237.500 L 420.314 238.787 L 419.641 240.097 L 419.011 241.428 L 418.425 242.779 L 417.884 244.149 L 417.388 245.535 L 416.938 246.937 L 416.533 248.353 L 416.176 249.782 L 415.865 251.221 L 415.601 252.670 L 415.385 254.126 L 415.217 255.589 L 415.096 257.057 L 415.024 258.528 L 415.000 260.000 L 415.000 281.278 L 410.036 278.930 L 408.694 278.323 L 402.089 275.459 L 400.729 274.896 L 394.033 272.250 L 392.655 271.731 L 385.877 269.306 L 384.482 268.833 L 377.628 266.630 L 376.219 266.203 L 369.297 264.226 L 367.874 263.845 L 360.891 262.096 L 359.457 261.761 L 352.420 260.241 L 350.976 259.954 L 343.893 258.665 L 342.440 258.426 L 335.319 257.369 L 333.859 257.177 L 326.707 256.354 L 325.241 256.210 L 318.066 255.622 L 316.597 255.525 L 309.406 255.172 L 307.934 255.124 L 300.736 255.006 L 299.264 255.006 L 292.066 255.124 L 290.594 255.172 L 283.403 255.525 L 281.934 255.622 L 274.759 256.210 L 273.293 256.354 L 266.141 257.177 L 264.681 257.369 L 257.560 258.426 L 256.107 258.665 L 249.024 259.954 L 247.580 260.241 L 240.543 261.761 L 239.109 262.096 L 232.126 263.845 L 230.703 264.226 L 223.781 266.203 L 222.372 266.630 L 215.518 268.833 L 214.123 269.306 L 207.345 271.731 L 205.967 272.250 L 199.271 274.896 L 197.911 275.459 L 191.306 278.323 L 189.964 278.930 L 183.457 282.008 L 182.136 282.660 L 175.732 285.949 L 174.433 286.643 L 168.141 290.140 L 166.865 290.877 L 160.690 294.578 L 159.440 295.355 L 153.389 299.257 L 152.165 300.075 L 146.245 304.172 L 145.048 305.029 L 139.266 309.318 L 138.098 310.214 L 132.459 314.690 L 131.320 315.624 L 125.831 320.282 L 124.724 321.252 L 119.390 326.087 L 118.315 327.094 L 113.142 332.100 L 112.100 333.142 L 107.094 338.315 L 106.087 339.390 L 101.252 344.724 L 100.282 345.831 L 95.624 351.320 L 94.690 352.459 L 90.214 358.098 L 89.318 359.266 L 85.029 365.048 L 84.172 366.245 L 80.075 372.165 L 79.257 373.389 L 75.355 379.440 L 74.578 380.690 L 70.877 386.865 L 70.140 388.141 L 66.643 394.433 L 65.949 395.732 L 62.660 402.136 L 62.008 403.457 L 58.930 409.964 L 58.323 411.306 L 55.459 417.911 L 54.896 419.271 L 52.250 425.967 L 51.731 427.345 L 49.306 434.123 L 48.833 435.518 L 46.630 442.372 L 46.203 443.781 L 44.226 450.703 L 43.845 452.126 L 42.096 459.109 L 41.761 460.543 L 40.241 467.580 L 39.954 469.024 L 38.665 476.107 L 38.426 477.560 L 37.369 484.681 L 37.177 486.141 L 36.354 493.293 L 36.210 494.759 L 35.622 501.934 L 35.525 503.403 L 35.172 510.594 L 35.124 512.066 L 35.006 519.264 L 35.006 520.736 L 35.124 527.934 L 35.172 529.406 L 35.525 536.597 L 35.622 538.066 L 36.210 545.241 L 36.354 546.707 L 37.177 553.859 L 37.369 555.319 L 38.426 562.440 L 38.665 563.893 L 39.954 570.976 L 40.241 572.420 L 41.761 579.457 L 42.096 580.891 L 43.845 587.874 L 44.226 589.297 L 46.203 596.219 L 46.630 597.628 L 48.833 604.482 L 49.306 605.877 L 51.731 612.655 L 52.250 614.033 L 54.896 620.729 L 55.459 622.089 L 58.323 628.694 L 58.930 630.036 L 62.008 636.543 L 62.660 637.864 L 65.949 644.268 L 66.643 645.567 L 70.140 651.859 L 70.877 653.135 L 74.578 659.310 L 75.355 660.560 L 79.257 666.611 L 80.075 667.835 L 84.172 673.755 L 85.029 674.952 L 89.318 680.734 L 90.214 681.902 L 94.690 687.541 L 95.624 688.680 L 100.282 694.169 L 101.252 695.276 L 106.087 700.610 L 107.094 701.685 L 112.100 706.858 L 113.142 707.900 L 118.315 712.906 L 119.390 713.913 L 124.724 718.748 L 125.831 719.718 L 131.320 724.376 L 132.459 725.310 L 138.098 729.786 L 139.266 730.682 L 145.048 734.971 L 146.245 735.828 L 152.165 739.925 L 153.389 740.743 L 159.440 744.645 L 160.690 745.422 L 166.865 749.123 L 168.141 749.860 L 174.433 753.357 L 175.732 754.051 L 182.136 757.340 L 183.457 757.992 L 189.964 761.070 L 191.306 761.677 L 197.911 764.541 L 199.271 765.104 L 205.967 767.750 L 207.345 768.269 L 214.123 770.694 L 215.518 771.167 L 222.372 773.370 L 223.781 773.797 L 230.703 775.774 L 232.126 776.155 L 239.109 777.904 L 240.543 778.239 L 247.580 779.759 L 249.024 780.046 L 256.107 781.335 L 257.560 781.574 L 264.681 782.631 L 266.141 782.823 L 273.293 783.646 L 274.759 783.790 L 281.934 784.378 L 283.403 784.475 L 290.594 784.828 L 292.066 784.876 L 299.264 784.994 L 300.736 784.994 L 307.934 784.876 L 309.406 784.828 L 316.597 784.475 L 318.066 784.378 L 325.241 783.790 L 326.707 783.646 L 333.859 782.823 L 335.319 782.631 L 342.440 781.574 L 343.893 781.335 L 350.976 780.046 L 352.420 779.759 L 359.457 778.239 L 360.891 777.904 L 367.874 776.155 L 369.297 775.774 L 376.219 773.797 L 377.628 773.370 L 384.482 771.167 L 385.877 770.694 L 392.655 768.269 L 394.033 767.750 L 400.729 765.104 L 402.089 764.541 L 408.694 761.677 L 410.036 761.070 L 415.000 758.722 L 415.000 1000.000 L 415.024 1001.472 L 415.096 1002.943 L 415.217 1004.411 L 415.385 1005.874 L 415.601 1007.330 L 415.865 1008.779 L 416.176 1010.218 L 416.533 1011.647 L 416.938 1013.063 L 417.388 1014.465 L 417.884 1015.851 L 418.425 1017.221 L 419.011 1018.572 L 419.641 1019.903 L 420.314 1021.213 L 421.029 1022.500 L 421.786 1023.763 L 422.584 1025.001 L 423.422 1026.211 L 424.299 1027.394 L 425.215 1028.548 L 426.167 1029.671 L 427.156 1030.762 L 428.180 1031.820 L 429.238 1032.844 L 430.329 1033.833 L 431.452 1034.785 L 432.606 1035.701 L 433.789 1036.578 L 434.999 1037.416 L 436.237 1038.214 L 437.500 1038.971 L 438.787 1039.686 L 440.097 1040.359 L 441.428 1040.989 L 442.779 1041.575 L 444.149 1042.116 L 445.535 1042.612 L 446.937 1043.062 L 448.353 1043.467 L 449.782 1043.824 L 451.221 1044.135 L 452.670 1044.399 L 454.126 1044.615 L 455.589 1044.783 L 457.057 1044.904 L 458.528 1044.976 L 460.000 1045.000 L 461.472 1044.976 L 462.943 1044.904 L 464.411 1044.783 L 465.874 1044.615 L 467.330 1044.399 L 468.779 1044.135 L 470.218 1043.824 L 471.647 1043.467 L 473.063 1043.062 L 474.465 1042.612 L 475.851 1042.116 L 477.221 1041.575 L 478.572 1040.989 L 479.903 1040.359 L 481.213 1039.686 L 482.500 1038.971 L 483.763 1038.214 L 485.001 1037.416 L 486.211 1036.578 L 487.394 1035.701 L 488.548 1034.785 L 489.671 1033.833 L 490.762 1032.844 L 491.820 1031.820 L 492.844 1030.762 L 493.833 1029.671 L 494.785 1028.548 L 495.701 1027.394 L 496.578 1026.211 L 497.416 1025.001 L 498.214 1023.763 L 498.971 1022.500 L 499.686 1021.213 L 500.359 1019.903 L 500.989 1018.572 L 501.575 1017.221 L 502.116 1015.851 L 502.612 1014.465 L 503.062 1013.063 L 503.467 1011.647 L 503.824 1010.218 L 504.135 1008.779 L 504.399 1007.330 L 504.615 1005.874 L 504.783 1004.411 L 504.904 1002.943 L 504.976 1001.472 L 505.000 1000.000 L 505.000 687.919 L 505.310 687.541 L 509.786 681.902 L 510.682 680.734 L 514.971 674.952 L 515.828 673.755 L 519.925 667.835 L 520.743 666.611 L 524.645 660.560 L 525.422 659.310 L 529.123 653.135 L 529.860 651.859 L 533.357 645.567 L 534.051 644.268 L 537.340 637.864 L 537.992 636.543 L 541.070 630.036 L 541.677 628.694 L 544.541 622.089 L 545.104 620.729 L 547.750 614.033 L 548.269 612.655 L 550.694 605.877 L 551.167 604.482 L 553.370 597.628 L 553.797 596.219 L 555.774 589.297 L 556.155 587.874 L 557.904 580.891 L 558.239 579.457 L 559.759 572.420 L 560.046 570.976 L 561.335 563.893 L 561.574 562.440 L 562.631 555.319 L 562.823 553.859 L 563.646 546.707 L 563.790 545.241 L 564.378 538.066 L 564.475 536.597 L 564.828 529.406 L 564.876 527.934 L 564.994 520.736 L 564.994 519.264 Z M 411.015 655.272 L 406.530 658.832 L 401.930 662.243 L 397.221 665.502 L 392.409 668.605 L 387.497 671.549 L 382.492 674.331 L 377.398 676.947 L 372.221 679.396 L 366.967 681.673 L 361.642 683.778 L 356.250 685.707 L 350.798 687.459 L 345.292 689.031 L 339.737 690.423 L 334.140 691.632 L 328.506 692.657 L 322.841 693.497 L 317.152 694.151 L 311.445 694.619 L 305.726 694.900 L 300.000 694.994 L 294.274 694.900 L 288.555 694.619 L 282.848 694.151 L 277.159 693.497 L 271.494 692.657 L 265.860 691.632 L 260.263 690.423 L 254.708 689.031 L 249.202 687.459 L 243.750 685.707 L 238.358 683.778 L 233.033 681.673 L 227.779 679.396 L 222.602 676.947 L 217.508 674.331 L 212.503 671.549 L 207.591 668.605 L 202.779 665.502 L 198.070 662.243 L 193.470 658.832 L 188.985 655.272 L 184.618 651.567 L 180.375 647.722 L 176.261 643.739 L 172.278 639.625 L 168.433 635.382 L 164.728 631.015 L 161.168 626.530 L 157.757 621.930 L 154.498 617.221 L 151.395 612.409 L 148.451 607.497 L 145.669 602.492 L 143.053 597.398 L 140.604 592.221 L 138.327 586.967 L 136.222 581.642 L 134.293 576.250 L 132.541 570.798 L 130.969 565.292 L 129.577 559.737 L 128.368 554.140 L 127.343 548.506 L 126.503 542.841 L 125.849 537.152 L 125.381 531.445 L 125.100 525.726 L 125.006 520.000 L 125.100 514.274 L 125.381 508.555 L 125.849 502.848 L 126.503 497.159 L 127.343 491.494 L 128.368 485.860 L 129.577 480.263 L 130.969 474.708 L 132.541 469.202 L 134.293 463.750 L 136.222 458.358 L 138.327 453.033 L 140.604 447.779 L 143.053 442.602 L 145.669 437.508 L 148.451 432.503 L 151.395 427.591 L 154.498 422.779 L 157.757 418.070 L 161.168 413.470 L 164.728 408.985 L 168.433 404.618 L 172.278 400.375 L 176.261 396.261 L 180.375 392.278 L 184.618 388.433 L 188.985 384.728 L 193.470 381.168 L 198.070 377.757 L 202.779 374.498 L 207.591 371.395 L 212.503 368.451 L 217.508 365.669 L 222.602 363.053 L 227.779 360.604 L 233.033 358.327 L 238.358 356.222 L 243.750 354.293 L 249.202 352.541 L 254.708 350.969 L 260.263 349.577 L 265.860 348.368 L 271.494 347.343 L 277.159 346.503 L 282.848 345.849 L 288.555 345.381 L 294.274 345.100 L 300.000 345.006 L 305.726 345.100 L 311.445 345.381 L 317.152 345.849 L 322.841 346.503 L 328.506 347.343 L 334.140 348.368 L 339.737 349.577 L 345.292 350.969 L 350.798 352.541 L 356.250 354.293 L 361.642 356.222 L 366.967 358.327 L 372.221 360.604 L 377.398 363.053 L 382.492 365.669 L 387.497 368.451 L 392.409 371.395 L 397.221 374.498 L 401.930 377.757 L 406.530 381.168 L 411.015 384.728 L 415.000 388.109 L 415.000 651.891 L 411.015 655.272 Z" fill="black" fill-rule="evenodd"/>
</svg>
