<svg xmlns="http://www.w3.org/2000/svg" viewBox="0 0 600.000 1000">
  <path d="M 364.730 320.846 L 363.763 320.314 L 362.783 319.805 L 361.790 319.320 L 360.786 318.861 L 359.771 318.425 L 358.745 318.015 L 357.710 317.631 L 356.666 317.271 L 355.613 316.938 L 354.552 316.630 L 353.484 316.349 L 352.410 316.093 L 351.329 315.865 L 350.243 315.663 L 349.153 315.487 L 348.058 315.338 L 346.961 315.217 L 345.860 315.122 L 344.758 315.054 L 343.654 315.014 L 342.550 315.000 L 150.000 315.000 L 148.896 315.014 L 147.792 315.054 L 146.690 315.122 L 145.589 315.217 L 144.492 315.338 L 143.397 315.487 L 142.307 315.663 L 141.221 315.865 L 140.255 316.069 L 140.140 316.093 L 139.066 316.349 L 137.998 316.630 L 136.937 316.938 L 135.884 317.271 L 134.840 317.631 L 133.805 318.015 L 132.779 318.425 L 131.764 318.861 L 130.760 319.320 L 130.088 319.649 L 129.767 319.805 L 128.787 320.314 L 127.820 320.846 L 126.865 321.402 L 125.925 321.982 L 124.999 322.584 L 124.089 323.209 L 123.194 323.856 L 122.315 324.524 L 121.740 324.984 L 121.452 325.215 L 120.607 325.926 L 119.780 326.657 L 118.971 327.409 L 118.816 327.560 L 118.180 328.180 L 117.566 328.809 L 117.409 328.971 L 116.657 329.780 L 116.291 330.194 L 115.926 330.607 L 115.215 331.452 L 114.524 332.315 L 113.856 333.194 L 113.209 334.089 L 112.584 334.999 L 111.982 335.925 L 111.402 336.865 L 110.846 337.820 L 110.314 338.787 L 109.805 339.767 L 109.320 340.760 L 108.861 341.764 L 108.425 342.779 L 108.015 343.805 L 107.757 344.501 L 107.631 344.840 L 107.271 345.884 L 107.085 346.473 L 106.938 346.937 L 106.630 347.998 L 106.349 349.066 L 106.093 350.140 L 105.865 351.221 L 105.663 352.307 L 105.487 353.397 L 105.338 354.492 L 105.217 355.589 L 105.122 356.690 L 105.054 357.792 L 105.014 358.896 L 105.000 360.000 L 105.000 770.000 L 105.000 960.000 L 105.014 961.104 L 105.054 962.208 L 105.122 963.310 L 105.217 964.411 L 105.338 965.508 L 105.487 966.603 L 105.663 967.693 L 105.865 968.779 L 106.093 969.860 L 106.349 970.934 L 106.630 972.002 L 106.938 973.063 L 107.271 974.116 L 107.631 975.160 L 108.015 976.195 L 108.425 977.221 L 108.861 978.236 L 109.320 979.240 L 109.805 980.233 L 110.314 981.213 L 110.846 982.180 L 111.402 983.135 L 111.982 984.075 L 112.584 985.001 L 113.209 985.911 L 113.856 986.806 L 114.524 987.685 L 115.215 988.548 L 115.926 989.393 L 116.657 990.220 L 117.409 991.029 L 118.180 991.820 L 118.971 992.591 L 119.780 993.343 L 120.607 994.074 L 121.452 994.785 L 122.315 995.476 L 123.194 996.144 L 124.089 996.791 L 124.999 997.416 L 125.925 998.018 L 126.865 998.598 L 127.820 999.154 L 128.787 999.686 L 129.767 1000.195 L 130.760 1000.680 L 131.764 1001.139 L 132.779 1001.575 L 133.805 1001.985 L 134.840 1002.369 L 135.884 1002.729 L 136.937 1003.062 L 137.998 1003.370 L 139.066 1003.651 L 140.140 1003.907 L 141.221 1004.135 L 142.307 1004.337 L 143.397 1004.513 L 144.492 1004.662 L 145.589 1004.783 L 146.690 1004.878 L 147.792 1004.946 L 148.896 1004.986 L 150.000 1005.000 L 151.104 1004.986 L 152.208 1004.946 L 153.310 1004.878 L 154.411 1004.783 L 155.508 1004.662 L 156.603 1004.513 L 157.693 1004.337 L 158.779 1004.135 L 159.860 1003.907 L 160.934 1003.651 L 162.002 1003.370 L 163.063 1003.062 L 164.116 1002.729 L 165.160 1002.369 L 166.195 1001.985 L 167.221 1001.575 L 168.236 1001.139 L 169.240 1000.680 L 170.233 1000.195 L 171.213 999.686 L 172.180 999.154 L 173.135 998.598 L 174.075 998.018 L 175.001 997.416 L 175.911 996.791 L 176.806 996.144 L 177.685 995.476 L 178.548 994.785 L 179.393 994.074 L 180.220 993.343 L 181.029 992.591 L 181.820 991.820 L 182.591 991.029 L 183.343 990.220 L 184.074 989.393 L 184.785 988.548 L 185.476 987.685 L 186.144 986.806 L 186.791 985.911 L 187.416 985.001 L 188.018 984.075 L 188.598 983.135 L 189.154 982.180 L 189.686 981.213 L 190.195 980.233 L 190.680 979.240 L 191.139 978.236 L 191.575 977.221 L 191.985 976.195 L 192.369 975.160 L 192.729 974.116 L 193.062 973.063 L 193.370 972.002 L 193.651 970.934 L 193.907 969.860 L 194.135 968.779 L 194.337 967.693 L 194.513 966.603 L 194.662 965.508 L 194.783 964.411 L 194.878 963.310 L 194.946 962.208 L 194.986 961.104 L 195.000 960.000 L 195.000 815.000 L 342.550 815.000 L 343.654 814.986 L 344.758 814.946 L 345.860 814.878 L 346.961 814.783 L 348.058 814.662 L 349.153 814.513 L 350.243 814.337 L 351.329 814.135 L 352.410 813.907 L 353.484 813.651 L 354.552 813.370 L 355.613 813.062 L 356.666 812.729 L 357.710 812.369 L 358.745 811.985 L 359.771 811.575 L 360.786 811.139 L 361.790 810.680 L 362.783 810.195 L 363.763 809.686 L 364.730 809.154 L 365.685 808.598 L 366.386 808.165 L 368.050 807.712 L 368.605 807.557 L 370.538 807.004 L 371.090 806.842 L 373.017 806.263 L 373.567 806.094 L 375.488 805.491 L 376.034 805.315 L 377.950 804.686 L 378.492 804.504 L 380.402 803.851 L 380.941 803.662 L 382.844 802.984 L 383.379 802.789 L 385.275 802.085 L 385.807 801.884 L 387.696 801.156 L 388.224 800.949 L 390.106 800.196 L 390.631 799.982 L 392.505 799.205 L 393.026 798.986 L 394.892 798.184 L 395.409 797.958 L 397.268 797.132 L 397.780 796.901 L 399.631 796.051 L 400.139 795.814 L 401.981 794.939 L 402.485 794.696 L 404.319 793.798 L 404.818 793.550 L 406.643 792.627 L 407.138 792.373 L 408.954 791.427 L 409.444 791.168 L 411.251 790.199 L 411.736 789.934 L 413.533 788.941 L 414.014 788.671 L 415.802 787.655 L 416.278 787.380 L 418.055 786.340 L 418.527 786.060 L 420.294 784.997 L 420.761 784.712 L 422.518 783.626 L 422.980 783.337 L 424.726 782.228 L 425.183 781.934 L 426.918 780.802 L 427.370 780.504 L 429.094 779.350 L 429.541 779.047 L 431.254 777.870 L 431.696 777.562 L 433.397 776.364 L 433.834 776.052 L 435.523 774.831 L 435.955 774.515 L 437.632 773.272 L 438.059 772.952 L 439.724 771.687 L 440.146 771.363 L 441.799 770.076 L 442.215 769.748 L 443.855 768.440 L 444.266 768.109 L 445.894 766.779 L 446.300 766.444 L 447.914 765.094 L 448.315 764.755 L 449.916 763.383 L 450.311 763.041 L 451.899 761.648 L 452.289 761.302 L 453.863 759.889 L 454.248 759.540 L 455.808 758.107 L 456.188 757.754 L 457.734 756.301 L 458.108 755.945 L 459.640 754.471 L 460.009 754.113 L 461.527 752.619 L 461.890 752.257 L 463.393 750.744 L 463.751 750.379 L 465.240 748.846 L 465.592 748.479 L 467.066 746.927 L 467.413 746.557 L 468.871 744.985 L 469.213 744.613 L 470.656 743.022 L 470.993 742.647 L 472.420 741.038 L 472.751 740.660 L 474.163 739.033 L 474.489 738.652 L 475.885 737.006 L 476.206 736.624 L 477.585 734.960 L 477.901 734.575 L 479.264 732.893 L 479.574 732.506 L 480.921 730.807 L 481.226 730.418 L 482.557 728.700 L 482.856 728.309 L 484.170 726.575 L 484.464 726.182 L 485.761 724.430 L 486.050 724.035 L 487.330 722.267 L 487.614 721.870 L 488.876 720.085 L 489.155 719.687 L 490.400 717.885 L 490.673 717.485 L 491.901 715.668 L 492.169 715.266 L 493.379 713.432 L 493.642 713.029 L 494.834 711.180 L 495.092 710.774 L 496.266 708.910 L 496.519 708.503 L 497.675 706.624 L 497.923 706.216 L 499.060 704.321 L 499.303 703.911 L 500.422 702.002 L 500.659 701.591 L 501.760 699.667 L 501.992 699.255 L 503.074 697.317 L 503.302 696.904 L 504.364 694.952 L 504.587 694.537 L 505.631 692.571 L 505.849 692.155 L 506.873 690.176 L 507.086 689.759 L 508.091 687.767 L 508.299 687.349 L 509.285 685.343 L 509.488 684.924 L 510.454 682.906 L 510.653 682.486 L 511.599 680.455 L 511.793 680.034 L 512.719 677.991 L 512.908 677.570 L 513.815 675.515 L 513.999 675.092 L 514.886 673.025 L 515.065 672.602 L 515.931 670.524 L 516.106 670.099 L 516.952 668.010 L 517.122 667.585 L 517.948 665.485 L 518.113 665.059 L 518.919 662.948 L 519.079 662.521 L 519.864 660.400 L 520.020 659.973 L 520.784 657.842 L 520.935 657.414 L 521.679 655.273 L 521.825 654.844 L 522.548 652.693 L 522.690 652.264 L 523.392 650.104 L 523.529 649.675 L 524.210 647.506 L 524.343 647.076 L 525.002 644.898 L 525.130 644.467 L 525.769 642.281 L 525.893 641.850 L 526.510 639.655 L 526.629 639.224 L 527.225 637.021 L 527.340 636.589 L 527.914 634.379 L 528.024 633.947 L 528.577 631.729 L 528.683 631.296 L 529.214 629.072 L 529.316 628.639 L 529.825 626.407 L 529.922 625.974 L 530.410 623.736 L 530.503 623.302 L 530.969 621.058 L 531.057 620.624 L 531.502 618.374 L 531.585 617.940 L 532.008 615.684 L 532.087 615.249 L 532.488 612.988 L 532.563 612.553 L 532.942 610.287 L 533.012 609.852 L 533.369 607.581 L 533.435 607.146 L 533.770 604.870 L 533.832 604.434 L 534.144 602.155 L 534.202 601.719 L 534.492 599.435 L 534.545 598.999 L 534.814 596.712 L 534.863 596.276 L 535.109 593.985 L 535.153 593.549 L 535.377 591.255 L 535.417 590.819 L 535.619 588.522 L 535.655 588.086 L 535.834 585.787 L 535.866 585.350 L 536.023 583.049 L 536.050 582.612 L 536.185 580.309 L 536.208 579.873 L 536.320 577.568 L 536.339 577.131 L 536.429 574.825 L 536.444 574.388 L 536.511 572.081 L 536.521 571.644 L 536.566 569.336 L 536.573 568.899 L 536.595 566.591 L 536.597 566.154 L 536.597 563.846 L 536.595 563.409 L 536.573 561.101 L 536.566 560.664 L 536.521 558.356 L 536.511 557.919 L 536.444 555.612 L 536.429 555.175 L 536.339 552.869 L 536.320 552.432 L 536.208 550.127 L 536.185 549.691 L 536.050 547.388 L 536.023 546.951 L 535.866 544.650 L 535.834 544.213 L 535.655 541.914 L 535.619 541.478 L 535.417 539.181 L 535.377 538.745 L 535.153 536.451 L 535.109 536.015 L 534.863 533.724 L 534.814 533.288 L 534.545 531.001 L 534.492 530.565 L 534.202 528.281 L 534.144 527.845 L 533.832 525.566 L 533.770 525.130 L 533.435 522.854 L 533.369 522.419 L 533.012 520.148 L 532.942 519.713 L 532.563 517.447 L 532.488 517.012 L 532.087 514.751 L 532.008 514.316 L 531.585 512.060 L 531.502 511.626 L 531.057 509.376 L 530.969 508.942 L 530.503 506.698 L 530.410 506.264 L 529.922 504.026 L 529.825 503.593 L 529.316 501.361 L 529.214 500.928 L 528.683 498.704 L 528.577 498.271 L 528.024 496.053 L 527.914 495.621 L 527.340 493.411 L 527.225 492.979 L 526.629 490.776 L 526.510 490.345 L 525.893 488.150 L 525.769 487.719 L 525.130 485.533 L 525.002 485.102 L 524.343 482.924 L 524.210 482.494 L 523.529 480.325 L 523.392 479.896 L 522.690 477.736 L 522.548 477.307 L 521.825 475.156 L 521.679 474.727 L 520.935 472.586 L 520.784 472.158 L 520.020 470.027 L 519.864 469.600 L 519.079 467.479 L 518.919 467.052 L 518.113 464.941 L 517.948 464.515 L 517.122 462.415 L 516.952 461.990 L 516.106 459.901 L 515.931 459.476 L 515.065 457.398 L 514.886 456.975 L 513.999 454.908 L 513.815 454.485 L 512.908 452.430 L 512.719 452.009 L 511.793 449.966 L 511.599 449.545 L 510.653 447.514 L 510.454 447.094 L 509.488 445.076 L 509.285 444.657 L 508.299 442.651 L 508.091 442.233 L 507.086 440.241 L 506.873 439.824 L 505.849 437.845 L 505.631 437.429 L 504.587 435.463 L 504.364 435.048 L 503.302 433.096 L 503.074 432.683 L 501.992 430.745 L 501.760 430.333 L 500.659 428.409 L 500.422 427.998 L 499.303 426.089 L 499.060 425.679 L 497.923 423.784 L 497.675 423.376 L 496.519 421.497 L 496.266 421.090 L 495.092 419.226 L 494.834 418.820 L 493.642 416.971 L 493.379 416.568 L 492.169 414.734 L 491.901 414.332 L 490.673 412.515 L 490.400 412.115 L 489.155 410.313 L 488.876 409.915 L 487.614 408.130 L 487.330 407.733 L 486.050 405.965 L 485.761 405.570 L 484.464 403.818 L 484.170 403.425 L 482.856 401.691 L 482.557 401.300 L 481.226 399.582 L 480.921 399.193 L 479.574 397.494 L 479.264 397.107 L 477.901 395.425 L 477.585 395.040 L 476.206 393.376 L 475.885 392.994 L 474.489 391.348 L 474.163 390.967 L 472.751 389.340 L 472.420 388.962 L 470.993 387.353 L 470.656 386.978 L 469.213 385.387 L 468.871 385.015 L 467.413 383.443 L 467.066 383.073 L 465.592 381.521 L 465.240 381.154 L 463.751 379.621 L 463.393 379.256 L 461.890 377.743 L 461.527 377.381 L 460.009 375.887 L 459.640 375.529 L 458.108 374.055 L 457.734 373.699 L 456.188 372.246 L 455.808 371.893 L 454.248 370.460 L 453.863 370.111 L 452.289 368.698 L 451.899 368.352 L 450.311 366.959 L 449.916 366.617 L 448.315 365.245 L 447.914 364.906 L 446.300 363.556 L 445.894 363.221 L 444.266 361.891 L 443.855 361.560 L 442.215 360.252 L 441.799 359.924 L 440.146 358.637 L 439.724 358.313 L 438.059 357.048 L 437.632 356.728 L 435.955 355.485 L 435.523 355.169 L 433.834 353.948 L 433.397 353.636 L 431.696 352.438 L 431.254 352.130 L 429.541 350.953 L 429.094 350.650 L 427.370 349.496 L 426.918 349.198 L 425.183 348.066 L 424.726 347.772 L 422.980 346.663 L 422.518 346.374 L 420.761 345.288 L 420.294 345.003 L 418.527 343.940 L 418.055 343.660 L 416.278 342.620 L 415.802 342.345 L 414.014 341.329 L 413.533 341.059 L 411.736 340.066 L 411.251 339.801 L 409.444 338.832 L 408.954 338.573 L 407.138 337.627 L 406.643 337.373 L 404.818 336.450 L 404.319 336.202 L 402.485 335.304 L 401.981 335.061 L 400.139 334.186 L 399.631 333.949 L 397.780 333.099 L 397.268 332.868 L 395.409 332.042 L 394.892 331.816 L 393.026 331.014 L 392.505 330.795 L 390.631 330.018 L 390.106 329.804 L 388.224 329.051 L 387.696 328.844 L 385.807 328.116 L 385.275 327.915 L 383.379 327.211 L 382.844 327.016 L 380.941 326.338 L 380.402 326.149 L 378.492 325.496 L 377.950 325.314 L 376.034 324.685 L 375.488 324.509 L 373.567 323.906 L 373.017 323.737 L 371.090 323.158 L 370.538 322.996 L 368.605 322.443 L 368.050 322.288 L 366.386 321.835 L 365.685 321.402 L 364.730 320.846 Z M 314.653 405.000 L 316.203 405.010 L 317.606 405.038 L 319.009 405.083 L 320.412 405.148 L 321.814 405.230 L 323.216 405.331 L 324.617 405.450 L 326.017 405.587 L 327.417 405.743 L 328.816 405.917 L 330.213 406.110 L 331.610 406.321 L 333.005 406.550 L 334.399 406.797 L 335.791 407.063 L 337.182 407.348 L 338.571 407.651 L 339.959 407.972 L 341.344 408.311 L 342.727 408.669 L 344.109 409.046 L 345.488 409.440 L 346.864 409.854 L 348.238 410.285 L 349.609 410.735 L 350.977 411.204 L 352.343 411.691 L 353.705 412.196 L 355.064 412.720 L 356.420 413.262 L 357.772 413.823 L 359.121 414.402 L 360.465 415.000 L 361.806 415.616 L 363.143 416.250 L 364.475 416.903 L 365.803 417.574 L 367.127 418.263 L 368.445 418.971 L 369.759 419.697 L 371.067 420.441 L 372.371 421.204 L 373.669 421.984 L 374.961 422.783 L 376.248 423.600 L 377.528 424.436 L 378.803 425.289 L 380.071 426.160 L 381.333 427.049 L 382.588 427.956 L 383.836 428.881 L 385.078 429.824 L 386.312 430.785 L 387.539 431.763 L 388.758 432.759 L 389.969 433.772 L 391.173 434.803 L 392.368 435.851 L 393.555 436.916 L 394.733 437.999 L 395.903 439.098 L 397.064 440.215 L 398.216 441.348 L 399.358 442.499 L 400.492 443.666 L 401.615 444.849 L 402.729 446.049 L 403.832 447.266 L 404.926 448.498 L 406.009 449.747 L 407.081 451.012 L 408.143 452.292 L 409.193 453.588 L 410.233 454.900 L 411.261 456.227 L 412.278 457.569 L 413.283 458.927 L 414.276 460.299 L 415.257 461.686 L 416.226 463.088 L 417.182 464.504 L 418.126 465.934 L 419.057 467.379 L 419.975 468.837 L 420.880 470.309 L 421.772 471.795 L 422.651 473.294 L 423.516 474.806 L 424.367 476.332 L 425.204 477.870 L 426.027 479.420 L 426.836 480.983 L 427.630 482.558 L 428.410 484.145 L 429.176 485.744 L 429.926 487.354 L 430.662 488.976 L 431.382 490.609 L 432.087 492.252 L 432.777 493.906 L 433.452 495.571 L 434.110 497.246 L 434.753 498.931 L 435.380 500.625 L 435.992 502.329 L 436.587 504.042 L 437.165 505.764 L 437.728 507.495 L 438.274 509.234 L 438.803 510.982 L 439.316 512.737 L 439.812 514.500 L 440.291 516.271 L 440.753 518.049 L 441.198 519.834 L 441.626 521.625 L 442.037 523.423 L 442.431 525.228 L 442.807 527.038 L 443.166 528.854 L 443.507 530.675 L 443.831 532.501 L 444.137 534.332 L 444.425 536.168 L 444.696 538.008 L 444.948 539.852 L 445.183 541.699 L 445.400 543.551 L 445.599 545.405 L 445.781 547.262 L 445.944 549.122 L 446.089 550.985 L 446.216 552.849 L 446.325 554.715 L 446.416 556.583 L 446.488 558.452 L 446.543 560.322 L 446.579 562.193 L 446.597 564.064 L 446.597 565.936 L 446.579 567.807 L 446.543 569.678 L 446.488 571.548 L 446.416 573.417 L 446.325 575.285 L 446.216 577.151 L 446.089 579.015 L 445.944 580.878 L 445.781 582.738 L 445.599 584.595 L 445.400 586.449 L 445.183 588.301 L 444.948 590.148 L 444.696 591.992 L 444.425 593.832 L 444.137 595.668 L 443.831 597.499 L 443.507 599.325 L 443.166 601.146 L 442.807 602.962 L 442.431 604.772 L 442.037 606.577 L 441.626 608.375 L 441.198 610.166 L 440.753 611.951 L 440.291 613.729 L 439.812 615.500 L 439.316 617.263 L 438.803 619.018 L 438.274 620.766 L 437.728 622.505 L 437.165 624.236 L 436.587 625.958 L 435.992 627.671 L 435.380 629.375 L 434.753 631.069 L 434.110 632.754 L 433.452 634.429 L 432.777 636.094 L 432.087 637.748 L 431.382 639.391 L 430.662 641.024 L 429.926 642.646 L 429.176 644.256 L 428.410 645.855 L 427.630 647.442 L 426.836 649.017 L 426.027 650.580 L 425.204 652.130 L 424.367 653.668 L 423.516 655.194 L 422.651 656.706 L 421.772 658.205 L 420.880 659.691 L 419.975 661.163 L 419.057 662.621 L 418.126 664.066 L 417.182 665.496 L 416.226 666.912 L 415.257 668.314 L 414.276 669.701 L 413.283 671.073 L 412.278 672.431 L 411.261 673.773 L 410.233 675.100 L 409.193 676.412 L 408.143 677.708 L 407.081 678.988 L 406.009 680.253 L 404.926 681.502 L 403.832 682.734 L 402.729 683.951 L 401.615 685.151 L 400.492 686.334 L 399.358 687.501 L 398.216 688.652 L 397.064 689.785 L 395.903 690.902 L 394.733 692.001 L 393.555 693.084 L 392.368 694.149 L 391.173 695.197 L 389.969 696.228 L 388.758 697.241 L 387.539 698.237 L 386.312 699.215 L 385.078 700.176 L 383.836 701.119 L 382.588 702.044 L 381.333 702.951 L 380.071 703.840 L 378.803 704.711 L 377.528 705.564 L 376.248 706.400 L 374.961 707.217 L 373.669 708.016 L 372.371 708.796 L 371.067 709.559 L 369.759 710.303 L 368.445 711.029 L 367.127 711.737 L 365.803 712.426 L 364.475 713.097 L 363.143 713.750 L 361.806 714.384 L 360.465 715.000 L 359.121 715.598 L 357.772 716.177 L 356.420 716.738 L 355.064 717.280 L 353.705 717.804 L 352.343 718.309 L 350.977 718.796 L 349.609 719.265 L 348.238 719.715 L 346.864 720.146 L 345.488 720.560 L 344.109 720.954 L 342.727 721.331 L 341.344 721.689 L 339.959 722.028 L 338.571 722.349 L 337.182 722.652 L 335.791 722.937 L 334.399 723.203 L 333.005 723.450 L 331.610 723.679 L 330.213 723.890 L 328.816 724.083 L 327.417 724.257 L 326.017 724.413 L 324.617 724.550 L 323.216 724.669 L 321.814 724.770 L 320.412 724.852 L 319.009 724.917 L 317.606 724.962 L 316.203 724.990 L 314.653 725.000 L 195.000 725.000 L 195.000 405.000 L 314.653 405.000 Z" fill="black" fill-rule="evenodd"/>
</svg>
