<svg xmlns="http://www.w3.org/2000/svg" viewBox="0 0 600.000 1000">
  <path d="M 120.014 771.104 L 120.054 772.208 L 120.122 773.310 L 120.217 774.411 L 120.338 775.508 L 120.487 776.603 L 120.663 777.693 L 120.865 778.779 L 121.093 779.860 L 121.349 780.934 L 121.630 782.002 L 121.938 783.063 L 122.271 784.116 L 122.631 785.160 L 123.015 786.195 L 123.425 787.221 L 123.861 788.236 L 124.320 789.240 L 124.805 790.233 L 125.314 791.213 L 125.846 792.180 L 126.402 793.135 L 126.982 794.075 L 127.584 795.001 L 128.209 795.911 L 128.856 796.806 L 129.524 797.685 L 130.215 798.548 L 130.926 799.393 L 131.657 800.220 L 132.409 801.029 L 133.180 801.820 L 133.971 802.591 L 134.780 803.343 L 135.607 804.074 L 136.452 804.785 L 137.315 805.476 L 138.194 806.144 L 139.089 806.791 L 139.999 807.416 L 140.925 808.018 L 141.865 808.598 L 142.820 809.154 L 143.787 809.686 L 144.767 810.195 L 145.760 810.680 L 146.764 811.139 L 147.779 811.575 L 148.805 811.985 L 149.840 812.369 L 150.884 812.729 L 151.937 813.062 L 152.998 813.370 L 154.066 813.651 L 155.140 813.907 L 156.221 814.135 L 157.307 814.337 L 158.397 814.513 L 159.492 814.662 L 160.589 814.783 L 161.690 814.878 L 162.792 814.946 L 163.896 814.986 L 165.000 815.000 L 300.000 815.000 L 435.000 815.000 L 436.104 814.986 L 437.208 814.946 L 438.310 814.878 L 439.411 814.783 L 440.508 814.662 L 441.603 814.513 L 442.693 814.337 L 443.779 814.135 L 444.860 813.907 L 445.934 813.651 L 447.002 813.370 L 448.063 813.062 L 449.116 812.729 L 450.160 812.369 L 451.195 811.985 L 452.221 811.575 L 453.236 811.139 L 454.240 810.680 L 455.233 810.195 L 456.213 809.686 L 457.180 809.154 L 458.135 808.598 L 459.075 808.018 L 460.001 807.416 L 460.911 806.791 L 461.806 806.144 L 462.685 805.476 L 463.548 804.785 L 464.393 804.074 L 465.220 803.343 L 466.029 802.591 L 466.820 801.820 L 467.591 801.029 L 468.343 800.220 L 469.074 799.393 L 469.785 798.548 L 470.476 797.685 L 471.144 796.806 L 471.791 795.911 L 472.416 795.001 L 473.018 794.075 L 473.598 793.135 L 474.154 792.180 L 474.686 791.213 L 475.195 790.233 L 475.680 789.240 L 476.139 788.236 L 476.575 787.221 L 476.985 786.195 L 477.369 785.160 L 477.729 784.116 L 478.062 783.063 L 478.370 782.002 L 478.651 780.934 L 478.907 779.860 L 479.135 778.779 L 479.337 777.693 L 479.513 776.603 L 479.662 775.508 L 479.783 774.411 L 479.878 773.310 L 479.946 772.208 L 479.986 771.104 L 480.000 770.000 L 480.000 395.000 L 479.986 393.896 L 479.946 392.792 L 479.878 391.690 L 479.783 390.589 L 479.662 389.492 L 479.513 388.397 L 479.337 387.307 L 479.135 386.221 L 478.907 385.140 L 478.651 384.066 L 478.370 382.998 L 478.062 381.937 L 477.729 380.884 L 477.369 379.840 L 476.985 378.805 L 476.575 377.779 L 476.139 376.764 L 475.680 375.760 L 475.195 374.767 L 474.686 373.787 L 474.154 372.820 L 473.598 371.865 L 473.018 370.925 L 472.416 369.999 L 471.791 369.089 L 471.144 368.194 L 470.476 367.315 L 469.785 366.452 L 469.074 365.607 L 468.343 364.780 L 467.591 363.971 L 466.820 363.180 L 466.029 362.409 L 465.220 361.657 L 464.393 360.926 L 463.548 360.215 L 462.685 359.524 L 461.806 358.856 L 460.911 358.209 L 460.001 357.584 L 459.075 356.982 L 458.135 356.402 L 457.180 355.846 L 456.213 355.314 L 455.233 354.805 L 454.240 354.320 L 453.236 353.861 L 452.221 353.425 L 451.195 353.015 L 450.160 352.631 L 449.116 352.271 L 448.063 351.938 L 447.002 351.630 L 445.934 351.349 L 444.860 351.093 L 443.779 350.865 L 442.693 350.663 L 441.603 350.487 L 440.508 350.338 L 439.411 350.217 L 438.310 350.122 L 437.208 350.054 L 436.104 350.014 L 435.000 350.000 L 433.896 350.014 L 432.792 350.054 L 431.690 350.122 L 430.589 350.217 L 429.492 350.338 L 428.397 350.487 L 427.307 350.663 L 426.221 350.865 L 425.140 351.093 L 424.066 351.349 L 422.998 351.630 L 421.937 351.938 L 420.884 352.271 L 419.840 352.631 L 418.805 353.015 L 417.779 353.425 L 416.764 353.861 L 415.760 354.320 L 414.767 354.805 L 413.787 355.314 L 412.820 355.846 L 411.865 356.402 L 410.925 356.982 L 409.999 357.584 L 409.089 358.209 L 408.194 358.856 L 407.315 359.524 L 406.452 360.215 L 405.607 360.926 L 404.780 361.657 L 403.971 362.409 L 403.180 363.180 L 402.409 363.971 L 401.657 364.780 L 400.926 365.607 L 400.215 366.452 L 399.524 367.315 L 398.856 368.194 L 398.209 369.089 L 397.584 369.999 L 396.982 370.925 L 396.402 371.865 L 395.846 372.820 L 395.314 373.787 L 394.805 374.767 L 394.320 375.760 L 393.861 376.764 L 393.425 377.779 L 393.015 378.805 L 392.631 379.840 L 392.271 380.884 L 391.938 381.937 L 391.630 382.998 L 391.349 384.066 L 391.093 385.140 L 390.865 386.221 L 390.663 387.307 L 390.487 388.397 L 390.338 389.492 L 390.217 390.589 L 390.122 391.690 L 390.054 392.792 L 390.014 393.896 L 390.000 395.000 L 390.000 725.000 L 345.000 725.000 L 345.000 405.000 L 344.986 403.896 L 344.946 402.792 L 344.878 401.690 L 344.783 400.589 L 344.662 399.492 L 344.513 398.397 L 344.337 397.307 L 344.135 396.221 L 343.907 395.140 L 343.651 394.066 L 343.370 392.998 L 343.062 391.937 L 342.729 390.884 L 342.369 389.840 L 341.985 388.805 L 341.575 387.779 L 341.139 386.764 L 340.680 385.760 L 340.195 384.767 L 339.686 383.787 L 339.154 382.820 L 338.598 381.865 L 338.018 380.925 L 337.416 379.999 L 336.791 379.089 L 336.144 378.194 L 335.476 377.315 L 334.785 376.452 L 334.074 375.607 L 333.343 374.780 L 332.591 373.971 L 331.820 373.180 L 331.029 372.409 L 330.220 371.657 L 329.393 370.926 L 328.548 370.215 L 327.685 369.524 L 326.806 368.856 L 325.911 368.209 L 325.001 367.584 L 324.075 366.982 L 323.135 366.402 L 322.180 365.846 L 321.213 365.314 L 320.233 364.805 L 319.240 364.320 L 318.236 363.861 L 317.221 363.425 L 316.195 363.015 L 315.160 362.631 L 314.116 362.271 L 313.063 361.938 L 312.002 361.630 L 310.934 361.349 L 309.860 361.093 L 308.779 360.865 L 307.693 360.663 L 306.603 360.487 L 305.508 360.338 L 304.411 360.217 L 303.310 360.122 L 302.208 360.054 L 301.104 360.014 L 300.000 360.000 L 298.896 360.014 L 297.792 360.054 L 296.690 360.122 L 295.589 360.217 L 294.492 360.338 L 293.397 360.487 L 292.307 360.663 L 291.221 360.865 L 290.140 361.093 L 289.066 361.349 L 287.998 361.630 L 286.937 361.938 L 285.884 362.271 L 284.840 362.631 L 283.805 363.015 L 282.779 363.425 L 281.764 363.861 L 280.760 364.320 L 279.767 364.805 L 278.787 365.314 L 277.820 365.846 L 276.865 366.402 L 275.925 366.982 L 274.999 367.584 L 274.089 368.209 L 273.194 368.856 L 272.315 369.524 L 271.452 370.215 L 270.607 370.926 L 269.780 371.657 L 268.971 372.409 L 268.180 373.180 L 267.409 373.971 L 266.657 374.780 L 265.926 375.607 L 265.215 376.452 L 264.524 377.315 L 263.856 378.194 L 263.209 379.089 L 262.584 379.999 L 261.982 380.925 L 261.402 381.865 L 260.846 382.820 L 260.314 383.787 L 259.805 384.767 L 259.320 385.760 L 258.861 386.764 L 258.425 387.779 L 258.015 388.805 L 257.631 389.840 L 257.271 390.884 L 256.938 391.937 L 256.630 392.998 L 256.349 394.066 L 256.093 395.140 L 255.865 396.221 L 255.663 397.307 L 255.487 398.397 L 255.338 399.492 L 255.217 400.589 L 255.122 401.690 L 255.054 402.792 L 255.014 403.896 L 255.000 405.000 L 255.000 725.000 L 210.000 725.000 L 210.000 395.000 L 209.986 393.896 L 209.946 392.792 L 209.878 391.690 L 209.783 390.589 L 209.662 389.492 L 209.513 388.397 L 209.337 387.307 L 209.135 386.221 L 208.907 385.140 L 208.651 384.066 L 208.370 382.998 L 208.062 381.937 L 207.729 380.884 L 207.369 379.840 L 206.985 378.805 L 206.575 377.779 L 206.139 376.764 L 205.680 375.760 L 205.195 374.767 L 204.686 373.787 L 204.154 372.820 L 203.598 371.865 L 203.018 370.925 L 202.416 369.999 L 201.791 369.089 L 201.144 368.194 L 200.476 367.315 L 199.785 366.452 L 199.074 365.607 L 198.343 364.780 L 197.591 363.971 L 196.820 363.180 L 196.029 362.409 L 195.220 361.657 L 194.393 360.926 L 193.548 360.215 L 192.685 359.524 L 191.806 358.856 L 190.911 358.209 L 190.001 357.584 L 189.075 356.982 L 188.135 356.402 L 187.180 355.846 L 186.213 355.314 L 185.233 354.805 L 184.240 354.320 L 183.236 353.861 L 182.221 353.425 L 181.195 353.015 L 180.160 352.631 L 179.116 352.271 L 178.063 351.938 L 177.002 351.630 L 175.934 351.349 L 174.860 351.093 L 173.779 350.865 L 172.693 350.663 L 171.603 350.487 L 170.508 350.338 L 169.411 350.217 L 168.310 350.122 L 167.208 350.054 L 166.104 350.014 L 165.000 350.000 L 163.896 350.014 L 162.792 350.054 L 161.690 350.122 L 160.589 350.217 L 159.492 350.338 L 158.397 350.487 L 157.307 350.663 L 156.221 350.865 L 155.140 351.093 L 154.066 351.349 L 152.998 351.630 L 151.937 351.938 L 150.884 352.271 L 149.840 352.631 L 148.805 353.015 L 147.779 353.425 L 146.764 353.861 L 145.760 354.320 L 144.767 354.805 L 143.787 355.314 L 142.820 355.846 L 141.865 356.402 L 140.925 356.982 L 139.999 357.584 L 139.089 358.209 L 138.194 358.856 L 137.315 359.524 L 136.452 360.215 L 135.607 360.926 L 134.780 361.657 L 133.971 362.409 L 133.180 363.180 L 132.409 363.971 L 131.657 364.780 L 130.926 365.607 L 130.215 366.452 L 129.524 367.315 L 128.856 368.194 L 128.209 369.089 L 127.584 369.999 L 126.982 370.925 L 126.402 371.865 L 125.846 372.820 L 125.314 373.787 L 124.805 374.767 L 124.320 375.760 L 123.861 376.764 L 123.425 377.779 L 123.015 378.805 L 122.631 379.840 L 122.271 380.884 L 121.938 381.937 L 121.630 382.998 L 121.349 384.066 L 121.093 385.140 L 120.865 386.221 L 120.663 387.307 L 120.487 388.397 L 120.338 389.492 L 120.217 390.589 L 120.122 391.690 L 120.054 392.792 L 120.014 393.896 L 120.000 395.000 L 120.000 770.000 L 120.014 771.104 Z" fill="black" fill-rule="evenodd"/>
</svg>
