<svg xmlns="http://www.w3.org/2000/svg" viewBox="0 0 600.000 1000">
  <path d="M 195.018 403.680 L 195.040 403.021 L 195.071 402.361 L 195.110 401.702 L 195.158 401.044 L 195.214 400.387 L 195.279 399.730 L 195.353 399.074 L 195.436 398.419 L 195.527 397.766 L 195.627 397.113 L 195.735 396.462 L 195.852 395.813 L 195.978 395.165 L 196.112 394.519 L 196.255 393.874 L 196.406 393.232 L 196.565 392.591 L 196.733 391.953 L 196.910 391.317 L 197.094 390.684 L 197.288 390.052 L 197.489 389.424 L 197.699 388.798 L 197.917 388.175 L 198.143 387.555 L 198.377 386.938 L 198.620 386.324 L 198.870 385.714 L 199.129 385.107 L 199.395 384.503 L 199.670 383.903 L 199.952 383.306 L 200.243 382.714 L 200.541 382.125 L 200.847 381.540 L 201.160 380.959 L 201.481 380.382 L 201.810 379.810 L 202.146 379.242 L 202.490 378.679 L 202.841 378.120 L 203.200 377.566 L 203.565 377.017 L 203.938 376.472 L 204.318 375.933 L 204.706 375.398 L 205.100 374.869 L 205.501 374.345 L 205.909 373.826 L 206.324 373.313 L 206.746 372.805 L 207.174 372.303 L 207.609 371.807 L 208.050 371.316 L 208.498 370.831 L 208.952 370.352 L 209.413 369.879 L 209.879 369.413 L 210.352 368.952 L 210.831 368.498 L 211.316 368.050 L 211.807 367.609 L 212.303 367.174 L 212.805 366.746 L 213.313 366.324 L 213.826 365.909 L 214.345 365.501 L 214.869 365.100 L 215.398 364.706 L 215.933 364.318 L 216.472 363.938 L 217.017 363.565 L 217.566 363.200 L 218.120 362.841 L 218.679 362.490 L 219.242 362.146 L 219.810 361.810 L 220.382 361.481 L 220.959 361.160 L 221.540 360.847 L 222.125 360.541 L 222.714 360.243 L 223.306 359.952 L 223.903 359.670 L 224.503 359.395 L 225.107 359.129 L 225.714 358.870 L 226.324 358.620 L 226.938 358.377 L 227.555 358.143 L 228.175 357.917 L 228.798 357.699 L 229.424 357.489 L 230.052 357.288 L 230.684 357.094 L 231.317 356.910 L 231.953 356.733 L 232.591 356.565 L 233.232 356.406 L 233.874 356.255 L 234.519 356.112 L 235.165 355.978 L 235.813 355.852 L 236.462 355.735 L 237.113 355.627 L 237.766 355.527 L 238.419 355.436 L 239.074 355.353 L 239.730 355.279 L 240.387 355.214 L 241.044 355.158 L 241.702 355.110 L 242.361 355.071 L 243.021 355.040 L 243.680 355.018 L 244.340 355.005 L 245.297 354.999 L 246.401 354.978 L 247.505 354.930 L 248.607 354.855 L 249.706 354.753 L 250.803 354.624 L 251.897 354.468 L 252.986 354.286 L 254.070 354.076 L 255.149 353.841 L 256.222 353.578 L 257.288 353.290 L 258.347 352.975 L 259.397 352.635 L 260.439 352.269 L 261.472 351.877 L 262.495 351.460 L 263.507 351.018 L 264.508 350.552 L 265.497 350.061 L 266.474 349.546 L 267.438 349.007 L 268.389 348.444 L 269.325 347.859 L 270.247 347.250 L 271.154 346.620 L 272.044 345.967 L 272.919 345.292 L 273.777 344.596 L 274.617 343.880 L 275.440 343.143 L 276.244 342.386 L 277.029 341.609 L 277.795 340.814 L 278.542 339.999 L 279.268 339.167 L 279.973 338.317 L 280.658 337.451 L 281.320 336.567 L 281.962 335.668 L 282.580 334.753 L 283.176 333.823 L 283.750 332.879 L 284.299 331.922 L 284.826 330.950 L 285.328 329.967 L 285.806 328.971 L 286.259 327.964 L 286.687 326.946 L 287.091 325.918 L 287.469 324.880 L 287.821 323.833 L 288.148 322.778 L 288.448 321.716 L 288.723 320.646 L 288.971 319.570 L 289.192 318.488 L 289.387 317.400 L 289.556 316.309 L 289.697 315.214 L 289.811 314.115 L 289.899 313.014 L 289.959 311.911 L 289.993 310.807 L 289.999 309.703 L 289.978 308.599 L 289.930 307.495 L 289.855 306.393 L 289.753 305.294 L 289.624 304.197 L 289.468 303.103 L 289.286 302.014 L 289.076 300.930 L 288.841 299.851 L 288.578 298.778 L 288.290 297.712 L 287.975 296.653 L 287.635 295.603 L 287.269 294.561 L 286.877 293.528 L 286.460 292.505 L 286.018 291.493 L 285.552 290.492 L 285.061 289.503 L 284.546 288.526 L 284.007 287.562 L 283.444 286.611 L 282.859 285.675 L 282.250 284.753 L 281.620 283.846 L 280.967 282.956 L 280.292 282.081 L 279.596 281.223 L 278.880 280.383 L 278.143 279.560 L 277.386 278.756 L 276.609 277.971 L 275.814 277.205 L 274.999 276.458 L 274.167 275.732 L 273.317 275.027 L 272.451 274.342 L 271.567 273.680 L 270.668 273.038 L 269.753 272.420 L 268.823 271.824 L 267.879 271.250 L 266.922 270.701 L 265.950 270.174 L 264.967 269.672 L 263.971 269.194 L 262.964 268.741 L 261.946 268.313 L 260.918 267.909 L 259.880 267.531 L 258.833 267.179 L 257.778 266.852 L 256.716 266.552 L 255.646 266.277 L 254.570 266.029 L 253.488 265.808 L 252.400 265.613 L 251.309 265.444 L 250.214 265.303 L 249.115 265.189 L 248.014 265.101 L 246.911 265.041 L 245.807 265.007 L 244.703 265.001 L 243.449 265.009 L 242.855 265.017 L 241.601 265.042 L 241.008 265.058 L 239.754 265.099 L 239.161 265.122 L 237.908 265.180 L 237.315 265.212 L 236.063 265.286 L 235.470 265.325 L 234.220 265.416 L 233.628 265.463 L 232.378 265.571 L 231.787 265.626 L 230.539 265.750 L 229.948 265.812 L 228.702 265.953 L 228.112 266.023 L 226.868 266.180 L 226.279 266.258 L 225.037 266.431 L 224.450 266.517 L 223.210 266.707 L 222.624 266.800 L 221.387 267.006 L 220.801 267.108 L 219.567 267.330 L 218.983 267.439 L 217.752 267.678 L 217.170 267.795 L 215.942 268.049 L 215.361 268.174 L 214.137 268.445 L 213.558 268.577 L 212.337 268.864 L 211.760 269.004 L 210.543 269.307 L 209.968 269.455 L 208.755 269.774 L 208.181 269.929 L 206.973 270.264 L 206.402 270.427 L 205.198 270.778 L 204.629 270.948 L 203.430 271.315 L 202.863 271.492 L 201.669 271.875 L 201.104 272.060 L 199.915 272.459 L 199.353 272.651 L 198.170 273.065 L 197.610 273.265 L 196.432 273.695 L 195.876 273.902 L 194.703 274.348 L 194.150 274.562 L 192.983 275.023 L 192.432 275.245 L 191.272 275.721 L 190.724 275.950 L 189.570 276.441 L 189.025 276.677 L 187.878 277.184 L 187.337 277.428 L 186.196 277.949 L 185.658 278.200 L 184.524 278.736 L 183.989 278.994 L 182.863 279.546 L 182.331 279.810 L 181.212 280.377 L 180.684 280.649 L 179.573 281.230 L 179.048 281.508 L 177.945 282.104 L 177.424 282.390 L 176.329 283.000 L 175.812 283.292 L 174.724 283.917 L 174.211 284.216 L 173.132 284.855 L 172.623 285.161 L 171.553 285.814 L 171.048 286.127 L 169.986 286.794 L 169.485 287.113 L 168.432 287.794 L 167.935 288.120 L 166.892 288.815 L 166.399 289.148 L 165.365 289.856 L 164.877 290.195 L 163.852 290.918 L 163.369 291.263 L 162.353 291.999 L 161.874 292.350 L 160.869 293.099 L 160.395 293.457 L 159.399 294.220 L 158.930 294.584 L 157.944 295.359 L 157.480 295.730 L 156.505 296.518 L 156.045 296.894 L 155.080 297.695 L 154.626 298.078 L 153.672 298.892 L 153.222 299.280 L 152.279 300.106 L 151.835 300.501 L 150.903 301.339 L 150.464 301.740 L 149.543 302.590 L 149.109 302.996 L 148.199 303.859 L 147.771 304.271 L 146.873 305.146 L 146.450 305.563 L 145.563 306.450 L 145.146 306.873 L 144.271 307.771 L 143.859 308.199 L 142.996 309.109 L 142.590 309.543 L 141.740 310.464 L 141.339 310.903 L 140.501 311.835 L 140.106 312.279 L 139.280 313.222 L 138.892 313.672 L 138.078 314.626 L 137.695 315.080 L 136.894 316.045 L 136.518 316.505 L 135.903 317.265 L 135.884 317.271 L 134.840 317.631 L 133.805 318.015 L 132.779 318.425 L 131.764 318.861 L 130.760 319.320 L 129.767 319.805 L 128.787 320.314 L 127.820 320.846 L 126.865 321.402 L 125.925 321.982 L 124.999 322.584 L 124.089 323.209 L 123.194 323.856 L 122.315 324.524 L 121.452 325.215 L 120.607 325.926 L 119.780 326.657 L 118.971 327.409 L 118.180 328.180 L 117.409 328.971 L 116.657 329.780 L 115.926 330.607 L 115.215 331.452 L 114.524 332.315 L 113.856 333.194 L 113.209 334.089 L 112.584 334.999 L 111.982 335.925 L 111.402 336.865 L 110.846 337.820 L 110.314 338.787 L 109.805 339.767 L 109.320 340.760 L 108.861 341.764 L 108.425 342.779 L 108.015 343.805 L 107.631 344.840 L 107.271 345.884 L 106.938 346.937 L 106.630 347.998 L 106.349 349.066 L 106.093 350.140 L 105.865 351.221 L 105.663 352.307 L 105.487 353.397 L 105.338 354.492 L 105.217 355.589 L 105.122 356.690 L 105.054 357.792 L 105.014 358.896 L 105.000 360.000 L 105.000 780.000 L 105.014 781.104 L 105.054 782.208 L 105.122 783.310 L 105.217 784.411 L 105.338 785.508 L 105.487 786.603 L 105.663 787.693 L 105.865 788.779 L 106.093 789.860 L 106.349 790.934 L 106.630 792.002 L 106.938 793.063 L 107.271 794.116 L 107.631 795.160 L 108.015 796.195 L 108.425 797.221 L 108.861 798.236 L 109.320 799.240 L 109.805 800.233 L 110.314 801.213 L 110.846 802.180 L 111.402 803.135 L 111.982 804.075 L 112.584 805.001 L 113.209 805.911 L 113.856 806.806 L 114.524 807.685 L 115.215 808.548 L 115.926 809.393 L 116.657 810.220 L 117.409 811.029 L 118.180 811.820 L 118.971 812.591 L 119.780 813.343 L 120.607 814.074 L 121.452 814.785 L 122.315 815.476 L 123.194 816.144 L 124.089 816.791 L 124.999 817.416 L 125.925 818.018 L 126.865 818.598 L 127.820 819.154 L 128.787 819.686 L 129.767 820.195 L 130.760 820.680 L 131.764 821.139 L 132.779 821.575 L 133.805 821.985 L 134.840 822.369 L 135.884 822.729 L 136.937 823.062 L 137.998 823.370 L 139.066 823.651 L 140.140 823.907 L 141.221 824.135 L 142.307 824.337 L 143.397 824.513 L 144.492 824.662 L 145.589 824.783 L 146.690 824.878 L 147.792 824.946 L 148.896 824.986 L 150.000 825.000 L 151.104 824.986 L 152.208 824.946 L 153.310 824.878 L 154.411 824.783 L 155.508 824.662 L 156.603 824.513 L 157.693 824.337 L 158.779 824.135 L 159.860 823.907 L 160.934 823.651 L 162.002 823.370 L 163.063 823.062 L 164.116 822.729 L 165.160 822.369 L 166.195 821.985 L 167.221 821.575 L 168.236 821.139 L 169.240 820.680 L 170.233 820.195 L 171.213 819.686 L 172.180 819.154 L 173.135 818.598 L 174.075 818.018 L 175.001 817.416 L 175.911 816.791 L 176.806 816.144 L 177.685 815.476 L 178.548 814.785 L 179.393 814.074 L 180.220 813.343 L 181.029 812.591 L 181.820 811.820 L 182.591 811.029 L 183.343 810.220 L 184.074 809.393 L 184.785 808.548 L 185.476 807.685 L 186.144 806.806 L 186.791 805.911 L 187.416 805.001 L 188.018 804.075 L 188.598 803.135 L 189.154 802.180 L 189.686 801.213 L 190.195 800.233 L 190.680 799.240 L 191.139 798.236 L 191.575 797.221 L 191.985 796.195 L 192.369 795.160 L 192.729 794.116 L 193.062 793.063 L 193.370 792.002 L 193.651 790.934 L 193.907 789.860 L 194.135 788.779 L 194.337 787.693 L 194.513 786.603 L 194.662 785.508 L 194.783 784.411 L 194.878 783.310 L 194.946 782.208 L 194.986 781.104 L 195.000 780.000 L 195.000 405.149 L 195.005 404.340 L 195.018 403.680 Z" fill="black" fill-rule="evenodd"/>
</svg>
