<svg xmlns="http://www.w3.org/2000/svg" viewBox="0 0 600.000 1000">
  <path d="M 503.010 273.234 L 503.420 271.820 L 503.784 270.393 L 504.100 268.954 L 504.369 267.507 L 504.591 266.051 L 504.765 264.589 L 504.892 263.122 L 504.970 261.651 L 505.000 260.179 L 504.981 258.706 L 504.915 257.235 L 504.800 255.767 L 504.638 254.304 L 504.428 252.846 L 504.170 251.396 L 503.865 249.956 L 503.513 248.526 L 503.114 247.108 L 502.669 245.705 L 502.178 244.316 L 501.643 242.945 L 501.062 241.591 L 500.438 240.258 L 499.770 238.945 L 499.060 237.655 L 498.308 236.389 L 497.515 235.148 L 496.682 233.934 L 495.809 232.748 L 494.899 231.591 L 493.950 230.464 L 492.966 229.369 L 491.946 228.307 L 490.892 227.279 L 489.805 226.285 L 488.686 225.328 L 487.536 224.408 L 486.357 223.526 L 485.149 222.684 L 483.915 221.881 L 482.655 221.119 L 481.370 220.398 L 480.063 219.720 L 478.735 219.085 L 477.386 218.494 L 476.019 217.948 L 474.634 217.446 L 473.234 216.990 L 471.820 216.580 L 470.393 216.216 L 468.954 215.900 L 467.507 215.631 L 466.051 215.409 L 464.589 215.235 L 463.122 215.108 L 461.651 215.030 L 460.179 215.000 L 458.706 215.019 L 457.235 215.085 L 455.767 215.200 L 454.304 215.362 L 452.846 215.572 L 451.396 215.830 L 449.956 216.135 L 448.526 216.487 L 447.108 216.886 L 445.705 217.331 L 444.316 217.822 L 442.945 218.357 L 441.591 218.938 L 440.258 219.562 L 438.945 220.230 L 437.655 220.940 L 436.389 221.692 L 435.148 222.485 L 433.934 223.318 L 432.748 224.191 L 431.591 225.101 L 430.464 226.050 L 429.369 227.034 L 428.307 228.054 L 427.279 229.108 L 426.285 230.195 L 425.328 231.314 L 424.408 232.464 L 423.526 233.643 L 422.684 234.851 L 421.881 236.085 L 421.119 237.345 L 420.398 238.630 L 419.720 239.937 L 419.085 241.265 L 418.494 242.614 L 417.948 243.981 L 417.446 245.366 L 416.990 246.766 L 300.000 626.983 L 183.010 246.766 L 182.554 245.366 L 182.052 243.981 L 181.506 242.614 L 180.915 241.265 L 180.280 239.937 L 179.602 238.630 L 178.881 237.345 L 178.119 236.085 L 177.316 234.851 L 176.474 233.643 L 175.592 232.464 L 174.672 231.314 L 173.715 230.195 L 172.721 229.108 L 171.693 228.054 L 170.631 227.034 L 169.536 226.050 L 168.409 225.101 L 167.252 224.191 L 166.066 223.318 L 164.852 222.485 L 163.611 221.692 L 162.345 220.940 L 161.055 220.230 L 159.742 219.562 L 158.409 218.938 L 157.055 218.357 L 155.684 217.822 L 154.295 217.331 L 152.892 216.886 L 151.474 216.487 L 150.044 216.135 L 148.604 215.830 L 147.154 215.572 L 145.696 215.362 L 144.233 215.200 L 142.765 215.085 L 141.294 215.019 L 139.821 215.000 L 138.349 215.030 L 136.878 215.108 L 135.411 215.235 L 133.949 215.409 L 132.493 215.631 L 131.046 215.900 L 129.607 216.216 L 128.180 216.580 L 126.766 216.990 L 125.366 217.446 L 123.981 217.948 L 122.614 218.494 L 121.265 219.085 L 119.937 219.720 L 118.630 220.398 L 117.345 221.119 L 116.085 221.881 L 114.851 222.684 L 113.643 223.526 L 112.464 224.408 L 111.314 225.328 L 110.195 226.285 L 109.108 227.279 L 108.054 228.307 L 107.034 229.369 L 106.050 230.464 L 105.101 231.591 L 104.191 232.748 L 103.318 233.934 L 102.485 235.148 L 101.692 236.389 L 100.940 237.655 L 100.230 238.945 L 99.562 240.258 L 98.938 241.591 L 98.357 242.945 L 97.822 244.316 L 97.331 245.705 L 96.886 247.108 L 96.487 248.526 L 96.135 249.956 L 95.830 251.396 L 95.572 252.846 L 95.362 254.304 L 95.200 255.767 L 95.085 257.235 L 95.019 258.706 L 95.000 260.179 L 95.030 261.651 L 95.108 263.122 L 95.235 264.589 L 95.409 266.051 L 95.631 267.507 L 95.900 268.954 L 96.216 270.393 L 96.580 271.820 L 96.990 273.234 L 255.000 786.767 L 255.000 1000.000 L 255.024 1001.472 L 255.096 1002.943 L 255.217 1004.411 L 255.385 1005.874 L 255.601 1007.330 L 255.865 1008.779 L 256.176 1010.218 L 256.533 1011.647 L 256.938 1013.063 L 257.388 1014.465 L 257.884 1015.851 L 258.425 1017.221 L 259.011 1018.572 L 259.641 1019.903 L 260.314 1021.213 L 261.029 1022.500 L 261.786 1023.763 L 262.584 1025.001 L 263.422 1026.211 L 264.299 1027.394 L 265.215 1028.548 L 266.167 1029.671 L 267.156 1030.762 L 268.180 1031.820 L 269.238 1032.844 L 270.329 1033.833 L 271.452 1034.785 L 272.606 1035.701 L 273.789 1036.578 L 274.999 1037.416 L 276.237 1038.214 L 277.500 1038.971 L 278.787 1039.686 L 280.097 1040.359 L 281.428 1040.989 L 282.779 1041.575 L 284.149 1042.116 L 285.535 1042.612 L 286.937 1043.062 L 288.353 1043.467 L 289.782 1043.824 L 291.221 1044.135 L 292.670 1044.399 L 294.126 1044.615 L 295.589 1044.783 L 297.057 1044.904 L 298.528 1044.976 L 300.000 1045.000 L 301.472 1044.976 L 302.943 1044.904 L 304.411 1044.783 L 305.874 1044.615 L 307.330 1044.399 L 308.779 1044.135 L 310.218 1043.824 L 311.647 1043.467 L 313.063 1043.062 L 314.465 1042.612 L 315.851 1042.116 L 317.221 1041.575 L 318.572 1040.989 L 319.903 1040.359 L 321.213 1039.686 L 322.500 1038.971 L 323.763 1038.214 L 325.001 1037.416 L 326.211 1036.578 L 327.394 1035.701 L 328.548 1034.785 L 329.671 1033.833 L 330.762 1032.844 L 331.820 1031.820 L 332.844 1030.762 L 333.833 1029.671 L 334.785 1028.548 L 335.701 1027.394 L 336.578 1026.211 L 337.416 1025.001 L 338.214 1023.763 L 338.971 1022.500 L 339.686 1021.213 L 340.359 1019.903 L 340.989 1018.572 L 341.575 1017.221 L 342.116 1015.851 L 342.612 1014.465 L 343.062 1013.063 L 343.467 1011.647 L 343.824 1010.218 L 344.135 1008.779 L 344.399 1007.330 L 344.615 1005.874 L 344.783 1004.411 L 344.904 1002.943 L 344.976 1001.472 L 345.000 1000.000 L 345.000 786.767 L 503.010 273.234 Z" fill="black" fill-rule="evenodd"/>
</svg>
