<svg xmlns="http://www.w3.org/2000/svg" width="600.000" height="1000" viewBox="0 0 600.000 1000">
  <path d="M 125.014 781.104 L 125.054 782.208 L 125.122 783.310 L 125.217 784.411 L 125.338 785.508 L 125.487 786.603 L 125.663 787.693 L 125.865 788.779 L 126.093 789.860 L 126.349 790.934 L 126.630 792.002 L 126.938 793.063 L 127.271 794.116 L 127.631 795.160 L 128.015 796.195 L 128.425 797.221 L 128.861 798.236 L 129.320 799.240 L 129.805 800.233 L 130.314 801.213 L 130.846 802.180 L 131.402 803.135 L 131.982 804.075 L 132.584 805.001 L 133.209 805.911 L 133.856 806.806 L 134.524 807.685 L 135.215 808.548 L 135.926 809.393 L 136.657 810.220 L 137.409 811.029 L 138.180 811.820 L 138.971 812.591 L 139.780 813.343 L 140.607 814.074 L 141.452 814.785 L 142.315 815.476 L 143.194 816.144 L 144.089 816.791 L 144.999 817.416 L 145.925 818.018 L 146.865 818.598 L 147.820 819.154 L 148.787 819.686 L 149.767 820.195 L 150.760 820.680 L 151.764 821.139 L 152.779 821.575 L 153.805 821.985 L 154.840 822.369 L 155.884 822.729 L 156.937 823.062 L 157.998 823.370 L 159.066 823.651 L 160.140 823.907 L 161.221 824.135 L 162.307 824.337 L 163.397 824.513 L 164.492 824.662 L 165.589 824.783 L 166.690 824.878 L 167.792 824.946 L 168.896 824.986 L 170.000 825.000 L 171.104 824.986 L 172.208 824.946 L 173.310 824.878 L 174.411 824.783 L 175.508 824.662 L 176.603 824.513 L 177.693 824.337 L 178.779 824.135 L 179.860 823.907 L 180.934 823.651 L 182.002 823.370 L 183.063 823.062 L 184.116 822.729 L 185.160 822.369 L 186.195 821.985 L 187.221 821.575 L 188.236 821.139 L 189.240 820.680 L 190.233 820.195 L 191.213 819.686 L 192.180 819.154 L 193.135 818.598 L 194.075 818.018 L 195.001 817.416 L 195.911 816.791 L 196.806 816.144 L 197.685 815.476 L 198.548 814.785 L 199.393 814.074 L 200.220 813.343 L 201.029 812.591 L 201.820 811.820 L 202.591 811.029 L 203.343 810.220 L 204.074 809.393 L 204.785 808.548 L 205.476 807.685 L 206.144 806.806 L 206.791 805.911 L 207.416 805.001 L 208.018 804.075 L 208.598 803.135 L 209.154 802.180 L 209.686 801.213 L 210.195 800.233 L 210.680 799.240 L 211.139 798.236 L 211.575 797.221 L 211.985 796.195 L 212.369 795.160 L 212.729 794.116 L 213.062 793.063 L 213.370 792.002 L 213.651 790.934 L 213.907 789.860 L 214.135 788.779 L 214.337 787.693 L 214.513 786.603 L 214.662 785.508 L 214.783 784.411 L 214.878 783.310 L 214.946 782.208 L 214.986 781.104 L 215.000 780.000 L 215.000 405.000 L 385.000 405.000 L 385.000 960.000 L 385.014 961.104 L 385.054 962.208 L 385.122 963.310 L 385.217 964.411 L 385.338 965.508 L 385.487 966.603 L 385.663 967.693 L 385.865 968.779 L 386.093 969.860 L 386.349 970.934 L 386.630 972.002 L 386.938 973.063 L 387.271 974.116 L 387.631 975.160 L 388.015 976.195 L 388.425 977.221 L 388.861 978.236 L 389.320 979.240 L 389.805 980.233 L 390.314 981.213 L 390.846 982.180 L 391.402 983.135 L 391.982 984.075 L 392.584 985.001 L 393.209 985.911 L 393.856 986.806 L 394.524 987.685 L 395.215 988.548 L 395.926 989.393 L 396.657 990.220 L 397.409 991.029 L 398.180 991.820 L 398.971 992.591 L 399.780 993.343 L 400.607 994.074 L 401.452 994.785 L 402.315 995.476 L 403.194 996.144 L 404.089 996.791 L 404.999 997.416 L 405.925 998.018 L 406.865 998.598 L 407.820 999.154 L 408.787 999.686 L 409.767 1000.195 L 410.760 1000.680 L 411.764 1001.139 L 412.779 1001.575 L 413.805 1001.985 L 414.840 1002.369 L 415.884 1002.729 L 416.937 1003.062 L 417.998 1003.370 L 419.066 1003.651 L 420.140 1003.907 L 421.221 1004.135 L 422.307 1004.337 L 423.397 1004.513 L 424.492 1004.662 L 425.589 1004.783 L 426.690 1004.878 L 427.792 1004.946 L 428.896 1004.986 L 430.000 1005.000 L 431.104 1004.986 L 432.208 1004.946 L 433.310 1004.878 L 434.411 1004.783 L 435.508 1004.662 L 436.603 1004.513 L 437.693 1004.337 L 438.779 1004.135 L 439.860 1003.907 L 440.934 1003.651 L 442.002 1003.370 L 443.063 1003.062 L 444.116 1002.729 L 445.160 1002.369 L 446.195 1001.985 L 447.221 1001.575 L 448.236 1001.139 L 449.240 1000.680 L 450.233 1000.195 L 451.213 999.686 L 452.180 999.154 L 453.135 998.598 L 454.075 998.018 L 455.001 997.416 L 455.911 996.791 L 456.806 996.144 L 457.685 995.476 L 458.548 994.785 L 459.393 994.074 L 460.220 993.343 L 461.029 992.591 L 461.820 991.820 L 462.591 991.029 L 463.343 990.220 L 464.074 989.393 L 464.785 988.548 L 465.476 987.685 L 466.144 986.806 L 466.791 985.911 L 467.416 985.001 L 468.018 984.075 L 468.598 983.135 L 469.154 982.180 L 469.686 981.213 L 470.195 980.233 L 470.680 979.240 L 471.139 978.236 L 471.575 977.221 L 471.985 976.195 L 472.369 975.160 L 472.729 974.116 L 473.062 973.063 L 473.370 972.002 L 473.651 970.934 L 473.907 969.860 L 474.135 968.779 L 474.337 967.693 L 474.513 966.603 L 474.662 965.508 L 474.783 964.411 L 474.878 963.310 L 474.946 962.208 L 474.986 961.104 L 475.000 960.000 L 475.000 360.000 L 474.986 358.896 L 474.946 357.792 L 474.878 356.690 L 474.783 355.589 L 474.662 354.492 L 474.513 353.397 L 474.337 352.307 L 474.135 351.221 L 473.907 350.140 L 473.651 349.066 L 473.370 347.998 L 473.062 346.937 L 472.729 345.884 L 472.369 344.840 L 471.985 343.805 L 471.575 342.779 L 471.139 341.764 L 470.680 340.760 L 470.195 339.767 L 469.686 338.787 L 469.154 337.820 L 468.598 336.865 L 468.018 335.925 L 467.416 334.999 L 466.791 334.089 L 466.144 333.194 L 465.476 332.315 L 464.785 331.452 L 464.074 330.607 L 463.343 329.780 L 462.591 328.971 L 461.820 328.180 L 461.029 327.409 L 460.220 326.657 L 459.393 325.926 L 458.548 325.215 L 457.685 324.524 L 456.806 323.856 L 455.911 323.209 L 455.001 322.584 L 454.075 321.982 L 453.135 321.402 L 452.180 320.846 L 451.213 320.314 L 450.233 319.805 L 449.240 319.320 L 448.236 318.861 L 447.221 318.425 L 446.195 318.015 L 445.160 317.631 L 444.116 317.271 L 443.063 316.938 L 442.002 316.630 L 440.934 316.349 L 439.860 316.093 L 438.779 315.865 L 437.693 315.663 L 436.603 315.487 L 435.508 315.338 L 434.411 315.217 L 433.310 315.122 L 432.208 315.054 L 431.104 315.014 L 430.000 315.000 L 170.000 315.000 L 168.896 315.014 L 167.792 315.054 L 166.690 315.122 L 165.589 315.217 L 164.492 315.338 L 163.397 315.487 L 162.307 315.663 L 161.221 315.865 L 160.255 316.069 L 160.140 316.093 L 159.066 316.349 L 157.998 316.630 L 156.937 316.938 L 155.884 317.271 L 154.840 317.631 L 153.805 318.015 L 152.779 318.425 L 151.764 318.861 L 150.760 319.320 L 150.088 319.649 L 149.767 319.805 L 148.787 320.314 L 147.820 320.846 L 146.865 321.402 L 145.925 321.982 L 144.999 322.584 L 144.089 323.209 L 143.194 323.856 L 142.315 324.524 L 141.797 324.938 L 141.452 325.215 L 140.607 325.926 L 139.780 326.657 L 138.971 327.409 L 138.180 328.180 L 137.670 328.703 L 137.409 328.971 L 136.657 329.780 L 135.926 330.607 L 135.215 331.452 L 134.524 332.315 L 133.856 333.194 L 133.209 334.089 L 132.584 334.999 L 131.982 335.925 L 131.402 336.865 L 130.846 337.820 L 130.314 338.787 L 129.805 339.767 L 129.320 340.760 L 128.861 341.764 L 128.425 342.779 L 128.015 343.805 L 127.706 344.637 L 127.631 344.840 L 127.271 345.884 L 127.085 346.473 L 126.938 346.937 L 126.630 347.998 L 126.349 349.066 L 126.093 350.140 L 125.865 351.221 L 125.663 352.307 L 125.487 353.397 L 125.338 354.492 L 125.217 355.589 L 125.122 356.690 L 125.054 357.792 L 125.014 358.896 L 125.000 360.000 L 125.000 780.000 L 125.014 781.104 Z" fill="black" fill-rule="evenodd"/>
</svg>
