<svg xmlns="http://www.w3.org/2000/svg" viewBox="0 0 600.000 1000.000">
  <path d="M 344.946,947.208 L 344.783,949.411 L 344.513,951.603 L 344.135,953.779 L 343.651,955.934 L 343.062,958.063 L 342.369,960.160 L 341.575,962.221 L 340.680,964.240 L 339.686,966.213 L 338.598,968.135 L 337.416,970.001 L 336.144,971.806 L 334.785,973.548 L 333.343,975.220 L 331.820,976.820 L 330.220,978.343 L 328.548,979.785 L 326.806,981.144 L 325.001,982.416 L 323.135,983.598 L 321.213,984.686 L 319.240,985.680 L 317.221,986.575 L 315.160,987.369 L 313.063,988.062 L 310.934,988.651 L 308.779,989.135 L 306.603,989.513 L 304.411,989.783 L 302.208,989.946 L 300.000,990.000 L 297.792,989.946 L 295.589,989.783 L 293.397,989.513 L 291.221,989.135 L 289.066,988.651 L 286.937,988.062 L 284.840,987.369 L 282.779,986.575 L 280.760,985.680 L 278.787,984.686 L 276.865,983.598 L 274.999,982.416 L 273.194,981.144 L 271.452,979.785 L 269.780,978.343 L 268.180,976.820 L 266.657,975.220 L 265.215,973.548 L 263.856,971.806 L 262.584,970.001 L 261.402,968.135 L 260.314,966.213 L 259.320,964.240 L 258.425,962.221 L 257.631,960.160 L 256.938,958.063 L 256.349,955.934 L 255.865,953.779 L 255.487,951.603 L 255.217,949.411 L 255.054,947.208 L 255.000,945.000 L 255.000,789.128 L 38.556,277.534 L 37.746,275.479 L 37.037,273.387 L 36.432,271.263 L 35.932,269.112 L 35.538,266.938 L 35.251,264.748 L 35.072,262.547 L 35.001,260.339 L 35.039,258.131 L 35.185,255.927 L 35.439,253.733 L 35.800,251.554 L 36.267,249.395 L 36.840,247.262 L 37.517,245.160 L 38.297,243.093 L 39.177,241.067 L 40.155,239.087 L 41.229,237.157 L 42.396,235.282 L 43.655,233.467 L 45.000,231.715 L 46.430,230.032 L 47.941,228.421 L 49.529,226.886 L 51.191,225.431 L 52.922,224.059 L 54.718,222.773 L 56.575,221.578 L 58.488,220.475 L 60.454,219.467 L 62.466,218.556 L 64.521,217.746 L 66.613,217.037 L 68.737,216.432 L 70.888,215.932 L 73.062,215.538 L 75.252,215.251 L 77.453,215.072 L 79.661,215.001 L 81.869,215.039 L 84.073,215.185 L 86.267,215.439 L 88.446,215.800 L 90.605,216.267 L 92.738,216.840 L 94.840,217.517 L 96.907,218.297 L 98.933,219.177 L 100.913,220.155 L 102.843,221.229 L 104.718,222.396 L 106.533,223.655 L 108.285,225.000 L 109.968,226.430 L 111.579,227.941 L 113.114,229.529 L 114.569,231.191 L 115.941,232.922 L 117.227,234.718 L 118.422,236.575 L 119.525,238.488 L 120.533,240.454 L 121.444,242.466 L 300.000,664.509 L 478.556,242.466 L 479.467,240.454 L 480.475,238.488 L 481.578,236.575 L 482.773,234.718 L 484.059,232.922 L 485.431,231.191 L 486.886,229.529 L 488.421,227.941 L 490.032,226.430 L 491.715,225.000 L 493.467,223.655 L 495.282,222.396 L 497.157,221.229 L 499.087,220.155 L 501.067,219.177 L 503.093,218.297 L 505.160,217.517 L 507.262,216.840 L 509.395,216.267 L 511.554,215.800 L 513.733,215.439 L 515.927,215.185 L 518.131,215.039 L 520.339,215.001 L 522.547,215.072 L 524.748,215.251 L 526.938,215.538 L 529.112,215.932 L 531.263,216.432 L 533.387,217.037 L 535.479,217.746 L 537.534,218.556 L 539.546,219.467 L 541.512,220.475 L 543.425,221.578 L 545.282,222.773 L 547.078,224.059 L 548.809,225.431 L 550.471,226.886 L 552.059,228.421 L 553.570,230.032 L 555.000,231.715 L 556.345,233.467 L 557.604,235.282 L 558.771,237.157 L 559.845,239.087 L 560.823,241.067 L 561.703,243.093 L 562.483,245.160 L 563.160,247.262 L 563.733,249.395 L 564.200,251.554 L 564.561,253.733 L 564.815,255.927 L 564.961,258.131 L 564.999,260.339 L 564.928,262.547 L 564.749,264.748 L 564.462,266.938 L 564.068,269.112 L 563.568,271.263 L 562.963,273.387 L 562.254,275.479 L 561.444,277.534 L 345.000,789.128 L 345.000,945.000 L 344.946,947.208 Z" fill="black" fill-rule="evenodd"/>
</svg>
