<svg xmlns="http://www.w3.org/2000/svg" viewBox="0 0 600.000 1000">
  <path d="M 205.070 297.042 L 205.154 295.564 L 205.272 294.089 L 205.424 292.618 L 205.608 291.150 L 205.826 289.686 L 206.078 288.228 L 206.362 286.776 L 206.680 285.331 L 207.030 283.893 L 207.413 282.464 L 207.829 281.044 L 208.276 279.634 L 208.756 278.234 L 209.267 276.845 L 209.810 275.469 L 210.384 274.105 L 210.989 272.755 L 211.624 271.419 L 212.290 270.097 L 212.986 268.791 L 213.711 267.501 L 214.465 266.229 L 215.248 264.973 L 216.060 263.736 L 216.899 262.517 L 217.766 261.318 L 218.660 260.139 L 219.581 258.981 L 220.528 257.844 L 221.500 256.729 L 222.498 255.636 L 223.520 254.566 L 224.566 253.520 L 225.636 252.498 L 226.729 251.500 L 227.844 250.528 L 228.981 249.581 L 230.139 248.660 L 231.318 247.766 L 232.517 246.899 L 233.736 246.060 L 234.973 245.248 L 236.229 244.465 L 237.501 243.711 L 238.791 242.986 L 240.097 242.290 L 241.419 241.624 L 242.755 240.989 L 244.105 240.384 L 245.469 239.810 L 246.845 239.267 L 248.234 238.756 L 249.634 238.276 L 251.044 237.829 L 252.464 237.413 L 253.893 237.030 L 255.331 236.680 L 256.776 236.362 L 258.228 236.078 L 259.686 235.826 L 261.150 235.608 L 262.618 235.424 L 264.089 235.272 L 265.564 235.154 L 267.042 235.070 L 268.520 235.020 L 270.512 234.997 L 271.616 234.971 L 272.719 234.918 L 273.821 234.837 L 274.920 234.730 L 276.016 234.596 L 277.109 234.435 L 278.197 234.247 L 279.281 234.033 L 280.359 233.792 L 281.430 233.524 L 282.495 233.231 L 283.552 232.911 L 284.601 232.565 L 285.641 232.194 L 286.672 231.798 L 287.693 231.376 L 288.703 230.929 L 289.702 230.458 L 290.689 229.962 L 291.663 229.442 L 292.625 228.899 L 293.572 228.332 L 294.506 227.742 L 295.425 227.129 L 296.328 226.494 L 297.216 225.837 L 298.087 225.158 L 298.942 224.458 L 299.779 223.738 L 300.598 222.997 L 301.398 222.236 L 302.180 221.456 L 302.942 220.656 L 303.685 219.839 L 304.407 219.003 L 305.108 218.150 L 305.788 217.280 L 306.447 216.393 L 307.084 215.491 L 307.698 214.573 L 308.290 213.641 L 308.859 212.694 L 309.404 211.733 L 309.925 210.760 L 310.423 209.774 L 310.896 208.776 L 311.344 207.766 L 311.768 206.746 L 312.166 205.716 L 312.539 204.677 L 312.887 203.628 L 313.208 202.572 L 313.504 201.508 L 313.773 200.437 L 314.016 199.359 L 314.232 198.276 L 314.422 197.188 L 314.585 196.096 L 314.721 195.000 L 314.831 193.901 L 314.913 192.799 L 314.968 191.696 L 314.996 190.592 L 314.997 189.488 L 314.971 188.384 L 314.918 187.281 L 314.837 186.179 L 314.730 185.080 L 314.596 183.984 L 314.435 182.891 L 314.247 181.803 L 314.033 180.719 L 313.792 179.641 L 313.524 178.570 L 313.231 177.505 L 312.911 176.448 L 312.565 175.399 L 312.194 174.359 L 311.798 173.328 L 311.376 172.307 L 310.929 171.297 L 310.458 170.298 L 309.962 169.311 L 309.442 168.337 L 308.899 167.375 L 308.332 166.428 L 307.742 165.494 L 307.129 164.575 L 306.494 163.672 L 305.837 162.784 L 305.158 161.913 L 304.458 161.058 L 303.738 160.221 L 302.997 159.402 L 302.236 158.602 L 301.456 157.820 L 300.656 157.058 L 299.839 156.315 L 299.003 155.593 L 298.150 154.892 L 297.280 154.212 L 296.393 153.553 L 295.491 152.916 L 294.573 152.302 L 293.641 151.710 L 292.694 151.141 L 291.733 150.596 L 290.760 150.075 L 289.774 149.577 L 288.776 149.104 L 287.766 148.656 L 286.746 148.232 L 285.716 147.834 L 284.677 147.461 L 283.628 147.113 L 282.572 146.792 L 281.508 146.496 L 280.437 146.227 L 279.359 145.984 L 278.276 145.768 L 277.188 145.578 L 276.096 145.415 L 275.000 145.279 L 273.901 145.169 L 272.799 145.087 L 271.696 145.032 L 270.592 145.004 L 269.488 145.003 L 266.984 145.031 L 265.960 145.055 L 263.457 145.140 L 262.434 145.187 L 259.934 145.329 L 258.912 145.399 L 256.415 145.599 L 255.395 145.692 L 252.904 145.948 L 251.887 146.064 L 249.402 146.377 L 248.387 146.516 L 245.910 146.886 L 244.899 147.048 L 242.431 147.474 L 241.424 147.659 L 238.966 148.141 L 237.963 148.349 L 235.518 148.886 L 234.520 149.118 L 232.087 149.710 L 231.094 149.964 L 228.675 150.612 L 227.689 150.889 L 225.286 151.592 L 224.306 151.891 L 221.919 152.648 L 220.946 152.969 L 218.577 153.781 L 217.612 154.124 L 215.262 154.989 L 214.305 155.354 L 211.975 156.273 L 211.027 156.659 L 208.719 157.631 L 207.779 158.039 L 205.494 159.063 L 204.564 159.492 L 202.302 160.568 L 201.382 161.018 L 199.146 162.145 L 198.236 162.616 L 196.026 163.793 L 195.128 164.285 L 192.945 165.512 L 192.058 166.025 L 189.904 167.301 L 189.028 167.834 L 186.904 169.159 L 186.041 169.711 L 183.947 171.084 L 183.097 171.656 L 181.035 173.077 L 180.198 173.667 L 178.169 175.135 L 177.345 175.744 L 175.350 177.257 L 174.541 177.886 L 172.581 179.444 L 171.786 180.090 L 169.862 181.693 L 169.082 182.357 L 167.194 184.003 L 166.430 184.685 L 164.581 186.373 L 163.832 187.072 L 162.021 188.802 L 161.289 189.518 L 159.518 191.289 L 158.802 192.021 L 157.072 193.832 L 156.373 194.581 L 154.685 196.430 L 154.003 197.194 L 152.357 199.082 L 151.693 199.862 L 150.090 201.786 L 149.444 202.581 L 147.886 204.541 L 147.257 205.350 L 145.744 207.345 L 145.135 208.169 L 143.667 210.198 L 143.077 211.035 L 141.656 213.097 L 141.084 213.947 L 139.711 216.041 L 139.159 216.904 L 137.834 219.028 L 137.301 219.904 L 136.153 221.841 L 135.925 221.982 L 134.999 222.584 L 134.089 223.209 L 133.194 223.856 L 132.315 224.524 L 131.452 225.215 L 130.607 225.926 L 129.780 226.657 L 128.971 227.409 L 128.180 228.180 L 127.409 228.971 L 126.657 229.780 L 125.926 230.607 L 125.215 231.452 L 124.524 232.315 L 123.856 233.194 L 123.209 234.089 L 122.584 234.999 L 121.982 235.925 L 121.402 236.865 L 120.846 237.820 L 120.314 238.787 L 119.805 239.767 L 119.320 240.760 L 118.861 241.764 L 118.425 242.779 L 118.015 243.805 L 117.631 244.840 L 117.271 245.884 L 116.938 246.937 L 116.630 247.998 L 116.349 249.066 L 116.093 250.140 L 115.865 251.221 L 115.663 252.307 L 115.487 253.397 L 115.338 254.492 L 115.217 255.589 L 115.122 256.690 L 115.054 257.792 L 115.014 258.896 L 115.000 260.000 L 115.000 780.000 L 115.014 781.104 L 115.054 782.208 L 115.122 783.310 L 115.217 784.411 L 115.338 785.508 L 115.487 786.603 L 115.663 787.693 L 115.865 788.779 L 116.093 789.860 L 116.349 790.934 L 116.630 792.002 L 116.938 793.063 L 117.271 794.116 L 117.631 795.160 L 118.015 796.195 L 118.425 797.221 L 118.861 798.236 L 119.320 799.240 L 119.805 800.233 L 120.314 801.213 L 120.846 802.180 L 121.402 803.135 L 121.982 804.075 L 122.584 805.001 L 123.209 805.911 L 123.856 806.806 L 124.524 807.685 L 125.215 808.548 L 125.926 809.393 L 126.657 810.220 L 127.409 811.029 L 128.180 811.820 L 128.971 812.591 L 129.780 813.343 L 130.607 814.074 L 131.452 814.785 L 132.315 815.476 L 133.194 816.144 L 134.089 816.791 L 134.999 817.416 L 135.925 818.018 L 136.865 818.598 L 137.820 819.154 L 138.787 819.686 L 139.767 820.195 L 140.760 820.680 L 141.764 821.139 L 142.779 821.575 L 143.805 821.985 L 144.840 822.369 L 145.884 822.729 L 146.937 823.062 L 147.998 823.370 L 149.066 823.651 L 150.140 823.907 L 151.221 824.135 L 152.307 824.337 L 153.397 824.513 L 154.492 824.662 L 155.589 824.783 L 156.690 824.878 L 157.792 824.946 L 158.896 824.986 L 160.000 825.000 L 161.104 824.986 L 162.208 824.946 L 163.310 824.878 L 164.411 824.783 L 165.508 824.662 L 166.603 824.513 L 167.693 824.337 L 168.779 824.135 L 169.860 823.907 L 170.934 823.651 L 172.002 823.370 L 173.063 823.062 L 174.116 822.729 L 175.160 822.369 L 176.195 821.985 L 177.221 821.575 L 178.236 821.139 L 179.240 820.680 L 180.233 820.195 L 181.213 819.686 L 182.180 819.154 L 183.135 818.598 L 184.075 818.018 L 185.001 817.416 L 185.911 816.791 L 186.806 816.144 L 187.685 815.476 L 188.548 814.785 L 189.393 814.074 L 190.220 813.343 L 191.029 812.591 L 191.820 811.820 L 192.591 811.029 L 193.343 810.220 L 194.074 809.393 L 194.785 808.548 L 195.476 807.685 L 196.144 806.806 L 196.791 805.911 L 197.416 805.001 L 198.018 804.075 L 198.598 803.135 L 199.154 802.180 L 199.686 801.213 L 200.195 800.233 L 200.680 799.240 L 201.139 798.236 L 201.575 797.221 L 201.985 796.195 L 202.369 795.160 L 202.729 794.116 L 203.062 793.063 L 203.370 792.002 L 203.651 790.934 L 203.907 789.860 L 204.135 788.779 L 204.337 787.693 L 204.513 786.603 L 204.662 785.508 L 204.783 784.411 L 204.878 783.310 L 204.946 782.208 L 204.986 781.104 L 205.000 780.000 L 205.000 300.256 L 205.020 298.520 L 205.070 297.042 Z" fill="black" fill-rule="evenodd"/>
</svg>
