<svg xmlns="http://www.w3.org/2000/svg" viewBox="0 0 600.000 1000">
  <path d="M 100.003 770.274 L 100.003 770.548 L 100.049 774.322 L 100.076 775.418 L 100.214 779.190 L 100.267 780.285 L 100.497 784.052 L 100.577 785.145 L 100.898 788.906 L 101.005 789.997 L 101.418 793.749 L 101.551 794.837 L 102.055 798.578 L 102.214 799.662 L 102.809 803.389 L 102.995 804.469 L 103.681 808.181 L 103.893 809.256 L 104.669 812.950 L 104.907 814.020 L 105.773 817.694 L 106.037 818.758 L 106.992 822.410 L 107.282 823.467 L 108.325 827.094 L 108.641 828.144 L 109.772 831.745 L 110.114 832.786 L 111.332 836.359 L 111.699 837.391 L 113.004 840.933 L 113.396 841.957 L 114.787 845.466 L 115.203 846.479 L 116.679 849.953 L 117.120 850.957 L 118.681 854.394 L 119.146 855.386 L 120.790 858.784 L 121.279 859.765 L 123.005 863.122 L 123.518 864.090 L 125.325 867.404 L 125.861 868.360 L 127.749 871.629 L 128.308 872.571 L 130.274 875.793 L 130.857 876.722 L 132.901 879.895 L 133.506 880.809 L 135.626 883.931 L 136.253 884.830 L 138.450 887.900 L 139.098 888.783 L 141.368 891.799 L 142.038 892.666 L 144.381 895.626 L 145.072 896.477 L 147.487 899.378 L 148.198 900.212 L 150.682 903.053 L 151.414 903.870 L 153.967 906.650 L 154.718 907.448 L 157.338 910.166 L 158.108 910.945 L 160.793 913.598 L 161.582 914.359 L 164.331 916.945 L 165.138 917.686 L 167.950 920.205 L 168.775 920.927 L 171.646 923.376 L 172.489 924.077 L 175.419 926.456 L 176.278 927.137 L 179.266 929.444 L 180.142 930.103 L 183.185 932.336 L 184.076 932.974 L 187.172 935.133 L 188.079 935.749 L 191.227 937.831 L 192.148 938.425 L 195.346 940.430 L 196.281 941.001 L 199.527 942.928 L 200.476 943.476 L 203.768 945.324 L 204.730 945.848 L 208.066 947.615 L 209.040 948.116 L 212.418 949.801 L 213.405 950.278 L 216.822 951.880 L 217.820 952.333 L 221.276 953.852 L 222.285 954.280 L 225.776 955.714 L 226.795 956.118 L 230.321 957.467 L 231.349 957.846 L 234.906 959.108 L 235.944 959.462 L 239.531 960.637 L 240.576 960.965 L 244.191 962.053 L 245.244 962.356 L 248.884 963.355 L 249.944 963.632 L 253.608 964.542 L 254.674 964.794 L 258.359 965.614 L 259.431 965.840 L 263.134 966.570 L 264.212 966.769 L 267.932 967.410 L 269.014 967.583 L 272.749 968.132 L 273.835 968.278 L 277.581 968.737 L 278.671 968.857 L 282.428 969.224 L 283.519 969.317 L 287.284 969.593 L 288.378 969.659 L 292.148 969.843 L 293.243 969.883 L 297.017 969.975 L 298.113 969.989 L 301.887 969.989 L 302.983 969.975 L 306.757 969.883 L 307.852 969.843 L 311.622 969.659 L 312.716 969.593 L 316.481 969.317 L 317.572 969.224 L 321.329 968.857 L 322.419 968.737 L 326.165 968.278 L 327.251 968.132 L 330.986 967.583 L 332.068 967.410 L 335.788 966.769 L 336.866 966.570 L 340.569 965.840 L 341.641 965.614 L 345.326 964.794 L 346.392 964.542 L 350.056 963.632 L 351.116 963.355 L 354.756 962.356 L 355.809 962.053 L 359.424 960.965 L 360.469 960.637 L 364.056 959.462 L 365.094 959.108 L 368.651 957.846 L 369.679 957.467 L 373.205 956.118 L 374.224 955.714 L 377.715 954.280 L 378.724 953.852 L 382.180 952.333 L 383.178 951.880 L 386.595 950.278 L 387.582 949.801 L 390.960 948.116 L 391.934 947.615 L 395.270 945.848 L 396.232 945.324 L 399.524 943.476 L 400.473 942.928 L 403.719 941.001 L 404.654 940.430 L 407.852 938.425 L 408.773 937.831 L 411.921 935.749 L 412.828 935.133 L 415.924 932.974 L 416.815 932.336 L 419.858 930.103 L 420.734 929.444 L 423.722 927.137 L 424.581 926.456 L 427.511 924.077 L 428.354 923.376 L 431.225 920.927 L 432.050 920.205 L 434.862 917.686 L 435.669 916.945 L 438.418 914.359 L 439.207 913.598 L 441.892 910.945 L 442.662 910.166 L 445.282 907.448 L 446.033 906.650 L 448.586 903.870 L 449.318 903.053 L 451.802 900.212 L 452.513 899.378 L 454.928 896.477 L 455.619 895.626 L 457.962 892.666 L 458.632 891.799 L 460.902 888.783 L 461.550 887.900 L 463.747 884.830 L 464.374 883.931 L 466.494 880.809 L 467.099 879.895 L 469.143 876.722 L 469.726 875.793 L 471.692 872.571 L 472.251 871.629 L 474.139 868.360 L 474.675 867.404 L 476.482 864.090 L 476.995 863.122 L 478.721 859.765 L 479.210 858.784 L 480.854 855.386 L 481.319 854.394 L 482.880 850.957 L 483.321 849.953 L 484.797 846.479 L 485.213 845.466 L 486.604 841.957 L 486.996 840.933 L 488.301 837.391 L 488.668 836.359 L 489.886 832.786 L 490.228 831.745 L 491.359 828.144 L 491.675 827.094 L 492.718 823.467 L 493.008 822.410 L 493.963 818.758 L 494.227 817.694 L 495.093 814.020 L 495.331 812.950 L 496.107 809.256 L 496.319 808.181 L 497.005 804.469 L 497.191 803.389 L 497.786 799.662 L 497.945 798.578 L 498.449 794.837 L 498.582 793.749 L 498.995 789.997 L 499.102 788.906 L 499.423 785.145 L 499.503 784.052 L 499.733 780.285 L 499.786 779.190 L 499.924 775.418 L 499.951 774.322 L 499.997 770.548 L 499.997 770.274 L 500.000 770.000 L 500.000 360.000 L 499.986 358.896 L 499.946 357.792 L 499.878 356.690 L 499.783 355.589 L 499.662 354.492 L 499.513 353.397 L 499.337 352.307 L 499.135 351.221 L 498.907 350.140 L 498.651 349.066 L 498.370 347.998 L 498.062 346.937 L 497.729 345.884 L 497.369 344.840 L 496.985 343.805 L 496.575 342.779 L 496.139 341.764 L 495.680 340.760 L 495.195 339.767 L 494.686 338.787 L 494.154 337.820 L 493.598 336.865 L 493.018 335.925 L 492.416 334.999 L 491.791 334.089 L 491.144 333.194 L 490.476 332.315 L 489.785 331.452 L 489.074 330.607 L 488.343 329.780 L 487.591 328.971 L 486.820 328.180 L 486.029 327.409 L 485.220 326.657 L 484.393 325.926 L 483.548 325.215 L 482.685 324.524 L 481.806 323.856 L 480.911 323.209 L 480.001 322.584 L 479.075 321.982 L 478.135 321.402 L 477.180 320.846 L 476.213 320.314 L 475.233 319.805 L 474.240 319.320 L 473.236 318.861 L 472.221 318.425 L 471.195 318.015 L 470.160 317.631 L 469.116 317.271 L 468.063 316.938 L 467.002 316.630 L 465.934 316.349 L 464.860 316.093 L 463.779 315.865 L 462.693 315.663 L 461.603 315.487 L 460.508 315.338 L 459.411 315.217 L 458.310 315.122 L 457.208 315.054 L 456.104 315.014 L 455.000 315.000 L 453.896 315.014 L 452.792 315.054 L 451.690 315.122 L 450.589 315.217 L 449.492 315.338 L 448.397 315.487 L 447.307 315.663 L 446.221 315.865 L 445.140 316.093 L 444.066 316.349 L 442.998 316.630 L 441.937 316.938 L 440.884 317.271 L 439.840 317.631 L 438.805 318.015 L 437.779 318.425 L 436.764 318.861 L 435.760 319.320 L 434.767 319.805 L 433.787 320.314 L 432.820 320.846 L 431.865 321.402 L 430.925 321.982 L 429.999 322.584 L 429.089 323.209 L 428.194 323.856 L 427.315 324.524 L 426.452 325.215 L 425.607 325.926 L 424.780 326.657 L 423.971 327.409 L 423.180 328.180 L 422.409 328.971 L 421.657 329.780 L 420.926 330.607 L 420.215 331.452 L 419.524 332.315 L 418.856 333.194 L 418.209 334.089 L 417.584 334.999 L 416.982 335.925 L 416.402 336.865 L 415.846 337.820 L 415.314 338.787 L 414.805 339.767 L 414.320 340.760 L 413.861 341.764 L 413.425 342.779 L 413.015 343.805 L 412.631 344.840 L 412.271 345.884 L 411.938 346.937 L 411.630 347.998 L 411.349 349.066 L 411.093 350.140 L 410.865 351.221 L 410.663 352.307 L 410.487 353.397 L 410.338 354.492 L 410.217 355.589 L 410.122 356.690 L 410.054 357.792 L 410.014 358.896 L 410.000 360.000 L 410.000 769.726 L 409.964 772.679 L 409.866 775.355 L 409.703 778.029 L 409.475 780.698 L 409.182 783.361 L 408.824 786.016 L 408.402 788.661 L 407.916 791.295 L 407.365 793.917 L 406.751 796.524 L 406.073 799.116 L 405.333 801.690 L 404.530 804.246 L 403.665 806.781 L 402.739 809.294 L 401.751 811.784 L 400.704 814.250 L 399.596 816.689 L 398.430 819.100 L 397.205 821.483 L 395.923 823.834 L 394.583 826.154 L 393.188 828.441 L 391.737 830.693 L 390.232 832.909 L 388.673 835.087 L 387.062 837.227 L 385.399 839.327 L 383.686 841.386 L 381.922 843.403 L 380.111 845.376 L 378.251 847.304 L 376.346 849.187 L 374.395 851.023 L 372.400 852.810 L 370.362 854.549 L 368.282 856.237 L 366.162 857.874 L 364.003 859.459 L 361.805 860.991 L 359.571 862.469 L 357.302 863.892 L 354.998 865.260 L 352.662 866.571 L 350.295 867.825 L 347.898 869.020 L 345.473 870.157 L 343.020 871.235 L 340.542 872.253 L 338.040 873.210 L 335.516 874.105 L 332.970 874.939 L 330.405 875.711 L 327.822 876.420 L 325.222 877.066 L 322.607 877.648 L 319.979 878.167 L 317.340 878.621 L 314.689 879.011 L 312.030 879.337 L 309.364 879.597 L 306.693 879.793 L 304.017 879.923 L 301.339 879.989 L 298.661 879.989 L 295.983 879.923 L 293.307 879.793 L 290.636 879.597 L 287.970 879.337 L 285.311 879.011 L 282.660 878.621 L 280.021 878.167 L 277.393 877.648 L 274.778 877.066 L 272.178 876.420 L 269.595 875.711 L 267.030 874.939 L 264.484 874.105 L 261.960 873.210 L 259.458 872.253 L 256.980 871.235 L 254.527 870.157 L 252.102 869.020 L 249.705 867.825 L 247.338 866.571 L 245.002 865.260 L 242.698 863.892 L 240.429 862.469 L 238.195 860.991 L 235.997 859.459 L 233.838 857.874 L 231.718 856.237 L 229.638 854.549 L 227.600 852.810 L 225.605 851.023 L 223.654 849.187 L 221.749 847.304 L 219.889 845.376 L 218.078 843.403 L 216.314 841.386 L 214.601 839.327 L 212.938 837.227 L 211.327 835.087 L 209.768 832.909 L 208.263 830.693 L 206.812 828.441 L 205.417 826.154 L 204.077 823.834 L 202.795 821.483 L 201.570 819.100 L 200.404 816.689 L 199.296 814.250 L 198.249 811.784 L 197.261 809.294 L 196.335 806.781 L 195.470 804.246 L 194.667 801.690 L 193.927 799.116 L 193.249 796.524 L 192.635 793.917 L 192.084 791.295 L 191.598 788.661 L 191.176 786.016 L 190.818 783.361 L 190.525 780.698 L 190.297 778.029 L 190.134 775.355 L 190.036 772.679 L 190.000 769.726 L 190.000 360.000 L 189.986 358.896 L 189.946 357.792 L 189.878 356.690 L 189.783 355.589 L 189.662 354.492 L 189.513 353.397 L 189.337 352.307 L 189.135 351.221 L 188.907 350.140 L 188.651 349.066 L 188.370 347.998 L 188.062 346.937 L 187.729 345.884 L 187.369 344.840 L 186.985 343.805 L 186.575 342.779 L 186.139 341.764 L 185.680 340.760 L 185.195 339.767 L 184.686 338.787 L 184.154 337.820 L 183.598 336.865 L 183.018 335.925 L 182.416 334.999 L 181.791 334.089 L 181.144 333.194 L 180.476 332.315 L 179.785 331.452 L 179.074 330.607 L 178.343 329.780 L 177.591 328.971 L 176.820 328.180 L 176.029 327.409 L 175.220 326.657 L 174.393 325.926 L 173.548 325.215 L 172.685 324.524 L 171.806 323.856 L 170.911 323.209 L 170.001 322.584 L 169.075 321.982 L 168.135 321.402 L 167.180 320.846 L 166.213 320.314 L 165.233 319.805 L 164.240 319.320 L 163.236 318.861 L 162.221 318.425 L 161.195 318.015 L 160.160 317.631 L 159.116 317.271 L 158.063 316.938 L 157.002 316.630 L 155.934 316.349 L 154.860 316.093 L 153.779 315.865 L 152.693 315.663 L 151.603 315.487 L 150.508 315.338 L 149.411 315.217 L 148.310 315.122 L 147.208 315.054 L 146.104 315.014 L 145.000 315.000 L 143.896 315.014 L 142.792 315.054 L 141.690 315.122 L 140.589 315.217 L 139.492 315.338 L 138.397 315.487 L 137.307 315.663 L 136.221 315.865 L 135.140 316.093 L 134.066 316.349 L 132.998 316.630 L 131.937 316.938 L 130.884 317.271 L 129.840 317.631 L 128.805 318.015 L 127.779 318.425 L 126.764 318.861 L 125.760 319.320 L 124.767 319.805 L 123.787 320.314 L 122.820 320.846 L 121.865 321.402 L 120.925 321.982 L 119.999 322.584 L 119.089 323.209 L 118.194 323.856 L 117.315 324.524 L 116.452 325.215 L 115.607 325.926 L 114.780 326.657 L 113.971 327.409 L 113.180 328.180 L 112.409 328.971 L 111.657 329.780 L 110.926 330.607 L 110.215 331.452 L 109.524 332.315 L 108.856 333.194 L 108.209 334.089 L 107.584 334.999 L 106.982 335.925 L 106.402 336.865 L 105.846 337.820 L 105.314 338.787 L 104.805 339.767 L 104.320 340.760 L 103.861 341.764 L 103.425 342.779 L 103.015 343.805 L 102.631 344.840 L 102.271 345.884 L 101.938 346.937 L 101.630 347.998 L 101.349 349.066 L 101.093 350.140 L 100.865 351.221 L 100.663 352.307 L 100.487 353.397 L 100.338 354.492 L 100.217 355.589 L 100.122 356.690 L 100.054 357.792 L 100.014 358.896 L 100.000 360.000 L 100.000 770.000 L 100.003 770.274 Z" fill="black" fill-rule="evenodd"/>
</svg>
