<svg xmlns="http://www.w3.org/2000/svg" viewBox="0 0 600.000 1000">
  <path d="M 421.585 803.437 L 422.172 804.373 L 422.782 805.294 L 423.414 806.200 L 424.067 807.090 L 424.743 807.963 L 425.440 808.820 L 426.158 809.660 L 426.896 810.481 L 427.654 811.285 L 428.431 812.069 L 429.228 812.834 L 430.043 813.579 L 430.876 814.304 L 431.727 815.009 L 432.594 815.692 L 433.478 816.354 L 434.379 816.994 L 435.294 817.611 L 436.225 818.206 L 437.169 818.778 L 438.128 819.327 L 439.100 819.852 L 440.084 820.353 L 441.080 820.830 L 442.088 821.282 L 443.107 821.709 L 444.135 822.111 L 445.173 822.487 L 446.221 822.838 L 447.276 823.164 L 448.339 823.463 L 449.409 823.736 L 450.486 823.983 L 451.568 824.203 L 452.655 824.397 L 453.747 824.563 L 454.843 824.703 L 455.941 824.817 L 457.042 824.903 L 458.145 824.962 L 459.249 824.994 L 460.354 824.999 L 461.458 824.976 L 462.561 824.927 L 463.663 824.851 L 464.763 824.747 L 465.859 824.617 L 466.953 824.460 L 468.042 824.276 L 469.126 824.065 L 470.204 823.828 L 471.277 823.564 L 472.343 823.274 L 473.401 822.958 L 474.451 822.616 L 475.493 822.249 L 476.525 821.856 L 477.547 821.438 L 478.559 820.995 L 479.559 820.527 L 480.548 820.035 L 481.524 819.518 L 482.488 818.978 L 483.437 818.415 L 484.373 817.828 L 485.294 817.218 L 486.200 816.586 L 487.090 815.933 L 487.963 815.257 L 488.820 814.560 L 489.660 813.842 L 490.481 813.104 L 491.285 812.346 L 492.069 811.569 L 492.834 810.772 L 493.579 809.957 L 494.304 809.124 L 495.009 808.273 L 495.692 807.406 L 496.354 806.522 L 496.994 805.621 L 497.611 804.706 L 498.206 803.775 L 498.778 802.831 L 499.327 801.872 L 499.852 800.900 L 500.353 799.916 L 500.830 798.920 L 501.282 797.912 L 501.709 796.893 L 502.111 795.865 L 502.487 794.827 L 502.838 793.779 L 503.164 792.724 L 503.463 791.661 L 503.736 790.591 L 503.983 789.514 L 504.203 788.432 L 504.397 787.345 L 504.563 786.253 L 504.703 785.157 L 504.817 784.059 L 504.903 782.958 L 504.962 781.855 L 504.994 780.751 L 504.999 779.646 L 504.976 778.542 L 504.927 777.439 L 504.851 776.337 L 504.747 775.237 L 504.617 774.141 L 504.460 773.047 L 504.276 771.958 L 504.065 770.874 L 503.828 769.796 L 503.564 768.723 L 503.274 767.657 L 502.958 766.599 L 502.616 765.549 L 502.249 764.507 L 501.856 763.475 L 501.438 762.453 L 500.995 761.441 L 500.527 760.441 L 500.035 759.452 L 499.518 758.476 L 498.978 757.512 L 361.952 520.000 L 498.978 282.488 L 499.518 281.524 L 500.035 280.548 L 500.527 279.559 L 500.995 278.559 L 501.438 277.547 L 501.856 276.525 L 502.249 275.493 L 502.616 274.451 L 502.958 273.401 L 503.274 272.343 L 503.564 271.277 L 503.828 270.204 L 504.065 269.126 L 504.276 268.042 L 504.460 266.953 L 504.617 265.859 L 504.747 264.763 L 504.851 263.663 L 504.927 262.561 L 504.976 261.458 L 504.999 260.354 L 504.994 259.249 L 504.962 258.145 L 504.903 257.042 L 504.817 255.941 L 504.703 254.843 L 504.563 253.747 L 504.397 252.655 L 504.203 251.568 L 503.983 250.486 L 503.736 249.409 L 503.463 248.339 L 503.164 247.276 L 502.838 246.221 L 502.487 245.173 L 502.111 244.135 L 501.709 243.107 L 501.282 242.088 L 500.830 241.080 L 500.353 240.084 L 499.852 239.100 L 499.327 238.128 L 498.778 237.169 L 498.206 236.225 L 497.611 235.294 L 496.994 234.379 L 496.354 233.478 L 495.692 232.594 L 495.009 231.727 L 494.304 230.876 L 493.579 230.043 L 492.834 229.228 L 492.069 228.431 L 491.285 227.654 L 490.481 226.896 L 489.660 226.158 L 488.820 225.440 L 487.963 224.743 L 487.090 224.067 L 486.200 223.414 L 485.294 222.782 L 484.373 222.172 L 483.437 221.585 L 482.488 221.022 L 481.524 220.482 L 480.548 219.965 L 479.559 219.473 L 478.559 219.005 L 477.547 218.562 L 476.525 218.144 L 475.493 217.751 L 474.451 217.384 L 473.401 217.042 L 472.343 216.726 L 471.277 216.436 L 470.204 216.172 L 469.126 215.935 L 468.042 215.724 L 466.953 215.540 L 465.859 215.383 L 464.763 215.253 L 463.663 215.149 L 462.561 215.073 L 461.458 215.024 L 460.354 215.001 L 459.249 215.006 L 458.145 215.038 L 457.042 215.097 L 455.941 215.183 L 454.843 215.297 L 453.747 215.437 L 452.655 215.603 L 451.568 215.797 L 450.486 216.017 L 449.409 216.264 L 448.339 216.537 L 447.276 216.836 L 446.221 217.162 L 445.173 217.513 L 444.135 217.889 L 443.107 218.291 L 442.088 218.718 L 441.080 219.170 L 440.084 219.647 L 439.100 220.148 L 438.128 220.673 L 437.169 221.222 L 436.225 221.794 L 435.294 222.389 L 434.379 223.006 L 433.478 223.646 L 432.594 224.308 L 431.727 224.991 L 430.876 225.696 L 430.043 226.421 L 429.228 227.166 L 428.431 227.931 L 427.654 228.715 L 426.896 229.519 L 426.158 230.340 L 425.440 231.180 L 424.743 232.037 L 424.067 232.910 L 423.414 233.800 L 422.782 234.706 L 422.172 235.627 L 421.585 236.563 L 421.022 237.512 L 310.000 429.950 L 198.978 237.512 L 198.415 236.563 L 197.828 235.627 L 197.218 234.706 L 196.586 233.800 L 195.933 232.910 L 195.257 232.037 L 194.560 231.180 L 193.842 230.340 L 193.104 229.519 L 192.346 228.715 L 191.569 227.931 L 190.772 227.166 L 189.957 226.421 L 189.124 225.696 L 188.273 224.991 L 187.406 224.308 L 186.522 223.646 L 185.621 223.006 L 184.706 222.389 L 183.775 221.794 L 182.831 221.222 L 181.872 220.673 L 180.900 220.148 L 179.916 219.647 L 178.920 219.170 L 177.912 218.718 L 176.893 218.291 L 175.865 217.889 L 174.827 217.513 L 173.779 217.162 L 172.724 216.836 L 171.661 216.537 L 170.591 216.264 L 169.514 216.017 L 168.432 215.797 L 167.345 215.603 L 166.253 215.437 L 165.157 215.297 L 164.059 215.183 L 162.958 215.097 L 161.855 215.038 L 160.751 215.006 L 159.646 215.001 L 158.542 215.024 L 157.439 215.073 L 156.337 215.149 L 155.237 215.253 L 154.141 215.383 L 153.047 215.540 L 151.958 215.724 L 150.874 215.935 L 149.796 216.172 L 148.723 216.436 L 147.657 216.726 L 146.599 217.042 L 145.549 217.384 L 144.507 217.751 L 143.475 218.144 L 142.453 218.562 L 141.441 219.005 L 140.441 219.473 L 139.452 219.965 L 138.476 220.482 L 137.512 221.022 L 136.563 221.585 L 135.627 222.172 L 134.706 222.782 L 133.800 223.414 L 132.910 224.067 L 132.037 224.743 L 131.180 225.440 L 130.340 226.158 L 129.519 226.896 L 128.715 227.654 L 127.931 228.431 L 127.166 229.228 L 126.421 230.043 L 125.696 230.876 L 124.991 231.727 L 124.308 232.594 L 123.646 233.478 L 123.006 234.379 L 122.389 235.294 L 121.794 236.225 L 121.222 237.169 L 120.673 238.128 L 120.148 239.100 L 119.647 240.084 L 119.170 241.080 L 118.718 242.088 L 118.291 243.107 L 117.889 244.135 L 117.513 245.173 L 117.162 246.221 L 116.836 247.276 L 116.537 248.339 L 116.264 249.409 L 116.017 250.486 L 115.797 251.568 L 115.603 252.655 L 115.437 253.747 L 115.297 254.843 L 115.183 255.941 L 115.097 257.042 L 115.038 258.145 L 115.006 259.249 L 115.001 260.354 L 115.024 261.458 L 115.073 262.561 L 115.149 263.663 L 115.253 264.763 L 115.383 265.859 L 115.540 266.953 L 115.724 268.042 L 115.935 269.126 L 116.172 270.204 L 116.436 271.277 L 116.726 272.343 L 117.042 273.401 L 117.384 274.451 L 117.751 275.493 L 118.144 276.525 L 118.562 277.547 L 119.005 278.559 L 119.473 279.559 L 119.965 280.548 L 120.482 281.524 L 121.022 282.488 L 258.048 520.000 L 121.022 757.512 L 120.482 758.476 L 119.965 759.452 L 119.473 760.441 L 119.005 761.441 L 118.562 762.453 L 118.144 763.475 L 117.751 764.507 L 117.384 765.549 L 117.042 766.599 L 116.726 767.657 L 116.436 768.723 L 116.172 769.796 L 115.935 770.874 L 115.724 771.958 L 115.540 773.047 L 115.383 774.141 L 115.253 775.237 L 115.149 776.337 L 115.073 777.439 L 115.024 778.542 L 115.001 779.646 L 115.006 780.751 L 115.038 781.855 L 115.097 782.958 L 115.183 784.059 L 115.297 785.157 L 115.437 786.253 L 115.603 787.345 L 115.797 788.432 L 116.017 789.514 L 116.264 790.591 L 116.537 791.661 L 116.836 792.724 L 117.162 793.779 L 117.513 794.827 L 117.889 795.865 L 118.291 796.893 L 118.718 797.912 L 119.170 798.920 L 119.647 799.916 L 120.148 800.900 L 120.673 801.872 L 121.222 802.831 L 121.794 803.775 L 122.389 804.706 L 123.006 805.621 L 123.646 806.522 L 124.308 807.406 L 124.991 808.273 L 125.696 809.124 L 126.421 809.957 L 127.166 810.772 L 127.931 811.569 L 128.715 812.346 L 129.519 813.104 L 130.340 813.842 L 131.180 814.560 L 132.037 815.257 L 132.910 815.933 L 133.800 816.586 L 134.706 817.218 L 135.627 817.828 L 136.563 818.415 L 137.512 818.978 L 138.476 819.518 L 139.452 820.035 L 140.441 820.527 L 141.441 820.995 L 142.453 821.438 L 143.475 821.856 L 144.507 822.249 L 145.549 822.616 L 146.599 822.958 L 147.657 823.274 L 148.723 823.564 L 149.796 823.828 L 150.874 824.065 L 151.958 824.276 L 153.047 824.460 L 154.141 824.617 L 155.237 824.747 L 156.337 824.851 L 157.439 824.927 L 158.542 824.976 L 159.646 824.999 L 160.751 824.994 L 161.855 824.962 L 162.958 824.903 L 164.059 824.817 L 165.157 824.703 L 166.253 824.563 L 167.345 824.397 L 168.432 824.203 L 169.514 823.983 L 170.591 823.736 L 171.661 823.463 L 172.724 823.164 L 173.779 822.838 L 174.827 822.487 L 175.865 822.111 L 176.893 821.709 L 177.912 821.282 L 178.920 820.830 L 179.916 820.353 L 180.900 819.852 L 181.872 819.327 L 182.831 818.778 L 183.775 818.206 L 184.706 817.611 L 185.621 816.994 L 186.522 816.354 L 187.406 815.692 L 188.273 815.009 L 189.124 814.304 L 189.957 813.579 L 190.772 812.834 L 191.569 812.069 L 192.346 811.285 L 193.104 810.481 L 193.842 809.660 L 194.560 808.820 L 195.257 807.963 L 195.933 807.090 L 196.586 806.200 L 197.218 805.294 L 197.828 804.373 L 198.415 803.437 L 198.978 802.488 L 310.000 610.050 L 421.022 802.488 L 421.585 803.437 Z" fill="black" fill-rule="evenodd"/>
</svg>
