<svg xmlns="http://www.w3.org/2000/svg" viewBox="0 0 600.000 1000" width="600.000" height="1000">
  <path d="M 384.986 418.896 L 384.946 417.792 L 384.878 416.690 L 384.783 415.589 L 384.662 414.492 L 384.513 413.397 L 384.337 412.307 L 384.135 411.221 L 383.907 410.140 L 383.651 409.066 L 383.370 407.998 L 383.062 406.937 L 382.729 405.884 L 382.369 404.840 L 381.985 403.805 L 381.575 402.779 L 381.139 401.764 L 380.680 400.760 L 380.195 399.767 L 379.686 398.787 L 379.154 397.820 L 378.598 396.865 L 378.018 395.925 L 377.416 394.999 L 376.791 394.089 L 376.144 393.194 L 375.476 392.315 L 374.785 391.452 L 374.074 390.607 L 373.343 389.780 L 372.591 388.971 L 371.820 388.180 L 371.029 387.409 L 370.220 386.657 L 369.393 385.926 L 368.548 385.215 L 367.685 384.524 L 366.806 383.856 L 365.911 383.209 L 365.001 382.584 L 364.075 381.982 L 363.135 381.402 L 362.180 380.846 L 361.213 380.314 L 360.233 379.805 L 359.240 379.320 L 358.236 378.861 L 357.221 378.425 L 356.195 378.015 L 355.160 377.631 L 354.638 377.451 L 354.116 377.271 L 353.063 376.938 L 352.002 376.630 L 350.934 376.349 L 349.860 376.093 L 348.779 375.865 L 347.693 375.663 L 346.603 375.487 L 345.508 375.338 L 344.411 375.217 L 343.310 375.122 L 342.208 375.054 L 341.104 375.014 L 340.000 375.000 L 195.000 375.000 L 195.000 360.000 L 194.986 358.896 L 194.946 357.792 L 194.878 356.690 L 194.783 355.589 L 194.662 354.492 L 194.513 353.397 L 194.337 352.307 L 194.135 351.221 L 193.907 350.140 L 193.651 349.066 L 193.370 347.998 L 193.062 346.937 L 192.729 345.884 L 192.369 344.840 L 191.985 343.805 L 191.575 342.779 L 191.139 341.764 L 190.680 340.760 L 190.195 339.767 L 189.686 338.787 L 189.154 337.820 L 188.598 336.865 L 188.018 335.925 L 187.416 334.999 L 186.791 334.089 L 186.144 333.194 L 185.476 332.315 L 184.785 331.452 L 184.074 330.607 L 183.343 329.780 L 182.591 328.971 L 181.820 328.180 L 181.029 327.409 L 180.220 326.657 L 179.393 325.926 L 178.548 325.215 L 177.685 324.524 L 176.806 323.856 L 175.911 323.209 L 175.001 322.584 L 174.075 321.982 L 173.135 321.402 L 172.180 320.846 L 171.213 320.314 L 170.233 319.805 L 169.240 319.320 L 168.236 318.861 L 167.221 318.425 L 166.195 318.015 L 165.160 317.631 L 164.116 317.271 L 163.063 316.938 L 162.002 316.630 L 160.934 316.349 L 159.860 316.093 L 158.779 315.865 L 157.693 315.663 L 156.603 315.487 L 155.508 315.338 L 154.411 315.217 L 153.310 315.122 L 152.208 315.054 L 151.104 315.014 L 150.000 315.000 L 148.896 315.014 L 147.792 315.054 L 146.690 315.122 L 145.589 315.217 L 144.492 315.338 L 143.397 315.487 L 142.307 315.663 L 141.221 315.865 L 140.140 316.093 L 139.066 316.349 L 137.998 316.630 L 136.937 316.938 L 135.884 317.271 L 134.840 317.631 L 133.805 318.015 L 132.779 318.425 L 131.764 318.861 L 130.760 319.320 L 129.767 319.805 L 128.787 320.314 L 127.820 320.846 L 126.865 321.402 L 125.925 321.982 L 124.999 322.584 L 124.089 323.209 L 123.194 323.856 L 122.315 324.524 L 121.452 325.215 L 120.607 325.926 L 119.780 326.657 L 118.971 327.409 L 118.180 328.180 L 117.409 328.971 L 116.657 329.780 L 115.926 330.607 L 115.215 331.452 L 114.524 332.315 L 113.856 333.194 L 113.209 334.089 L 112.584 334.999 L 111.982 335.925 L 111.402 336.865 L 110.846 337.820 L 110.314 338.787 L 109.805 339.767 L 109.320 340.760 L 108.861 341.764 L 108.425 342.779 L 108.015 343.805 L 107.631 344.840 L 107.271 345.884 L 106.938 346.937 L 106.630 347.998 L 106.349 349.066 L 106.093 350.140 L 105.865 351.221 L 105.663 352.307 L 105.487 353.397 L 105.338 354.492 L 105.217 355.589 L 105.122 356.690 L 105.054 357.792 L 105.014 358.896 L 105.000 360.000 L 105.000 420.000 L 105.000 780.000 L 105.014 781.104 L 105.054 782.208 L 105.122 783.310 L 105.217 784.411 L 105.338 785.508 L 105.487 786.603 L 105.663 787.693 L 105.865 788.779 L 106.093 789.860 L 106.349 790.934 L 106.630 792.002 L 106.938 793.063 L 107.271 794.116 L 107.631 795.160 L 108.015 796.195 L 108.425 797.221 L 108.861 798.236 L 109.320 799.240 L 109.805 800.233 L 110.314 801.213 L 110.846 802.180 L 111.402 803.135 L 111.982 804.075 L 112.584 805.001 L 113.209 805.911 L 113.856 806.806 L 114.524 807.685 L 115.215 808.548 L 115.926 809.393 L 116.657 810.220 L 117.409 811.029 L 118.180 811.820 L 118.971 812.591 L 119.780 813.343 L 120.607 814.074 L 121.452 814.785 L 122.315 815.476 L 123.194 816.144 L 124.089 816.791 L 124.999 817.416 L 125.925 818.018 L 126.865 818.598 L 127.820 819.154 L 128.787 819.686 L 129.767 820.195 L 130.760 820.680 L 131.764 821.139 L 132.779 821.575 L 133.805 821.985 L 134.840 822.369 L 135.884 822.729 L 136.937 823.062 L 137.998 823.370 L 139.066 823.651 L 140.140 823.907 L 141.221 824.135 L 142.307 824.337 L 143.397 824.513 L 144.492 824.662 L 145.589 824.783 L 146.690 824.878 L 147.792 824.946 L 148.896 824.986 L 150.000 825.000 L 151.104 824.986 L 152.208 824.946 L 153.310 824.878 L 154.411 824.783 L 155.508 824.662 L 156.603 824.513 L 157.693 824.337 L 158.779 824.135 L 159.860 823.907 L 160.934 823.651 L 162.002 823.370 L 163.063 823.062 L 164.116 822.729 L 165.160 822.369 L 166.195 821.985 L 167.221 821.575 L 168.236 821.139 L 169.240 820.680 L 170.233 820.195 L 171.213 819.686 L 172.180 819.154 L 173.135 818.598 L 174.075 818.018 L 175.001 817.416 L 175.911 816.791 L 176.806 816.144 L 177.685 815.476 L 178.548 814.785 L 179.393 814.074 L 180.220 813.343 L 181.029 812.591 L 181.820 811.820 L 182.591 811.029 L 183.343 810.220 L 184.074 809.393 L 184.785 808.548 L 185.476 807.685 L 186.144 806.806 L 186.791 805.911 L 187.416 805.001 L 188.018 804.075 L 188.598 803.135 L 189.154 802.180 L 189.686 801.213 L 190.195 800.233 L 190.680 799.240 L 191.139 798.236 L 191.575 797.221 L 191.985 796.195 L 192.369 795.160 L 192.729 794.116 L 193.062 793.063 L 193.370 792.002 L 193.651 790.934 L 193.907 789.860 L 194.135 788.779 L 194.337 787.693 L 194.513 786.603 L 194.662 785.508 L 194.783 784.411 L 194.878 783.310 L 194.946 782.208 L 194.986 781.104 L 195.000 780.000 L 195.000 465.000 L 295.000 465.000 L 295.000 490.000 L 295.014 491.104 L 295.054 492.208 L 295.122 493.310 L 295.217 494.411 L 295.338 495.508 L 295.487 496.603 L 295.663 497.693 L 295.865 498.779 L 296.093 499.860 L 296.349 500.934 L 296.630 502.002 L 296.938 503.063 L 297.271 504.116 L 297.631 505.160 L 298.015 506.195 L 298.425 507.221 L 298.861 508.236 L 299.320 509.240 L 299.805 510.233 L 300.314 511.213 L 300.846 512.180 L 301.402 513.135 L 301.982 514.075 L 302.584 515.001 L 303.209 515.911 L 303.856 516.806 L 304.524 517.685 L 305.215 518.548 L 305.926 519.393 L 306.657 520.220 L 307.409 521.029 L 308.180 521.820 L 308.971 522.591 L 309.780 523.343 L 310.607 524.074 L 311.452 524.785 L 312.315 525.476 L 313.194 526.144 L 314.089 526.791 L 314.999 527.416 L 315.925 528.018 L 316.865 528.598 L 317.820 529.154 L 318.787 529.686 L 319.767 530.195 L 320.760 530.680 L 321.764 531.139 L 322.779 531.575 L 323.805 531.985 L 324.840 532.369 L 325.884 532.729 L 326.937 533.062 L 327.998 533.370 L 329.066 533.651 L 330.140 533.907 L 331.221 534.135 L 332.307 534.337 L 333.397 534.513 L 334.492 534.662 L 335.589 534.783 L 336.690 534.878 L 337.792 534.946 L 338.896 534.986 L 340.000 535.000 L 341.104 534.986 L 342.208 534.946 L 343.310 534.878 L 344.411 534.783 L 345.508 534.662 L 346.603 534.513 L 347.693 534.337 L 348.779 534.135 L 349.860 533.907 L 350.934 533.651 L 352.002 533.370 L 353.063 533.062 L 354.116 532.729 L 355.160 532.369 L 356.195 531.985 L 357.221 531.575 L 358.236 531.139 L 359.240 530.680 L 360.233 530.195 L 361.213 529.686 L 362.180 529.154 L 363.135 528.598 L 364.075 528.018 L 365.001 527.416 L 365.911 526.791 L 366.806 526.144 L 367.685 525.476 L 368.548 524.785 L 369.393 524.074 L 370.220 523.343 L 371.029 522.591 L 371.820 521.820 L 372.591 521.029 L 373.343 520.220 L 374.074 519.393 L 374.785 518.548 L 375.476 517.685 L 376.144 516.806 L 376.791 515.911 L 377.416 515.001 L 378.018 514.075 L 378.598 513.135 L 379.154 512.180 L 379.686 511.213 L 380.195 510.233 L 380.680 509.240 L 381.139 508.236 L 381.575 507.221 L 381.985 506.195 L 382.369 505.160 L 382.729 504.116 L 383.062 503.063 L 383.370 502.002 L 383.651 500.934 L 383.907 499.860 L 384.135 498.779 L 384.337 497.693 L 384.513 496.603 L 384.662 495.508 L 384.783 494.411 L 384.878 493.310 L 384.946 492.208 L 384.986 491.104 L 385.000 490.000 L 385.000 420.000 L 384.986 418.896 Z" fill="black" fill-rule="evenodd"/>
</svg>
