<svg xmlns="http://www.w3.org/2000/svg" viewBox="0 0 600.000 1000">
  <path d="M 422.468 804.826 L 423.300 806.040 L 424.172 807.227 L 425.082 808.385 L 426.029 809.512 L 427.013 810.608 L 428.032 811.671 L 429.085 812.700 L 430.172 813.694 L 431.290 814.652 L 432.439 815.573 L 433.618 816.455 L 434.825 817.299 L 436.059 818.103 L 437.318 818.866 L 438.602 819.587 L 439.909 820.266 L 441.237 820.902 L 442.585 821.494 L 443.952 822.041 L 445.336 822.544 L 446.736 823.001 L 448.150 823.412 L 449.577 823.776 L 451.015 824.094 L 452.462 824.364 L 453.918 824.587 L 455.380 824.762 L 456.847 824.889 L 458.318 824.969 L 459.790 825.000 L 461.262 824.982 L 462.733 824.917 L 464.202 824.803 L 465.665 824.642 L 467.123 824.433 L 468.573 824.176 L 470.014 823.872 L 471.444 823.521 L 472.862 823.123 L 474.266 822.679 L 475.654 822.189 L 477.026 821.655 L 478.380 821.075 L 479.714 820.452 L 481.027 819.785 L 482.318 819.076 L 483.584 818.325 L 484.826 817.532 L 486.040 816.700 L 487.227 815.828 L 488.385 814.918 L 489.512 813.971 L 490.608 812.987 L 491.671 811.968 L 492.700 810.915 L 493.694 809.828 L 494.652 808.710 L 495.573 807.561 L 496.455 806.382 L 497.299 805.175 L 498.103 803.941 L 498.866 802.682 L 499.587 801.398 L 500.266 800.091 L 500.902 798.763 L 501.494 797.415 L 502.041 796.048 L 502.544 794.664 L 503.001 793.264 L 503.412 791.850 L 503.776 790.423 L 504.094 788.985 L 504.364 787.538 L 504.587 786.082 L 504.762 784.620 L 504.889 783.153 L 504.969 781.682 L 505.000 780.210 L 504.982 778.738 L 504.917 777.267 L 504.803 775.798 L 504.642 774.335 L 504.433 772.877 L 504.176 771.427 L 503.872 769.986 L 503.521 768.556 L 503.123 767.138 L 502.679 765.734 L 502.189 764.346 L 501.655 762.974 L 501.075 761.620 L 500.452 760.286 L 499.785 758.973 L 499.076 757.682 L 498.325 756.416 L 352.838 520.000 L 498.325 283.584 L 499.076 282.318 L 499.785 281.027 L 500.452 279.714 L 501.075 278.380 L 501.655 277.026 L 502.189 275.654 L 502.679 274.266 L 503.123 272.862 L 503.521 271.444 L 503.872 270.014 L 504.176 268.573 L 504.433 267.123 L 504.642 265.665 L 504.803 264.202 L 504.917 262.733 L 504.982 261.262 L 505.000 259.790 L 504.969 258.318 L 504.889 256.847 L 504.762 255.380 L 504.587 253.918 L 504.364 252.462 L 504.094 251.015 L 503.776 249.577 L 503.412 248.150 L 503.001 246.736 L 502.544 245.336 L 502.041 243.952 L 501.494 242.585 L 500.902 241.237 L 500.266 239.909 L 499.587 238.602 L 498.866 237.318 L 498.103 236.059 L 497.299 234.825 L 496.455 233.618 L 495.573 232.439 L 494.652 231.290 L 493.694 230.172 L 492.700 229.085 L 491.671 228.032 L 490.608 227.013 L 489.512 226.029 L 488.385 225.082 L 487.227 224.172 L 486.040 223.300 L 484.826 222.468 L 483.584 221.675 L 482.318 220.924 L 481.027 220.215 L 479.714 219.548 L 478.380 218.925 L 477.026 218.345 L 475.654 217.811 L 474.266 217.321 L 472.862 216.877 L 471.444 216.479 L 470.014 216.128 L 468.573 215.824 L 467.123 215.567 L 465.665 215.358 L 464.202 215.197 L 462.733 215.083 L 461.262 215.018 L 459.790 215.000 L 458.318 215.031 L 456.847 215.111 L 455.380 215.238 L 453.918 215.413 L 452.462 215.636 L 451.015 215.906 L 449.577 216.224 L 448.150 216.588 L 446.736 216.999 L 445.336 217.456 L 443.952 217.959 L 442.585 218.506 L 441.237 219.098 L 439.909 219.734 L 438.602 220.413 L 437.318 221.134 L 436.059 221.897 L 434.825 222.701 L 433.618 223.545 L 432.439 224.427 L 431.290 225.348 L 430.172 226.306 L 429.085 227.300 L 428.032 228.329 L 427.013 229.392 L 426.029 230.488 L 425.082 231.615 L 424.172 232.773 L 423.300 233.960 L 422.468 235.174 L 421.675 236.416 L 300.000 434.138 L 178.325 236.416 L 177.532 235.174 L 176.700 233.960 L 175.828 232.773 L 174.918 231.615 L 173.971 230.488 L 172.987 229.392 L 171.968 228.329 L 170.915 227.300 L 169.828 226.306 L 168.710 225.348 L 167.561 224.427 L 166.382 223.545 L 165.175 222.701 L 163.941 221.897 L 162.682 221.134 L 161.398 220.413 L 160.091 219.734 L 158.763 219.098 L 157.415 218.506 L 156.048 217.959 L 154.664 217.456 L 153.264 216.999 L 151.850 216.588 L 150.423 216.224 L 148.985 215.906 L 147.538 215.636 L 146.082 215.413 L 144.620 215.238 L 143.153 215.111 L 141.682 215.031 L 140.210 215.000 L 138.738 215.018 L 137.267 215.083 L 135.798 215.197 L 134.335 215.358 L 132.877 215.567 L 131.427 215.824 L 129.986 216.128 L 128.556 216.479 L 127.138 216.877 L 125.734 217.321 L 124.346 217.811 L 122.974 218.345 L 121.620 218.925 L 120.286 219.548 L 118.973 220.215 L 117.682 220.924 L 116.416 221.675 L 115.174 222.468 L 113.960 223.300 L 112.773 224.172 L 111.615 225.082 L 110.488 226.029 L 109.392 227.013 L 108.329 228.032 L 107.300 229.085 L 106.306 230.172 L 105.348 231.290 L 104.427 232.439 L 103.545 233.618 L 102.701 234.825 L 101.897 236.059 L 101.134 237.318 L 100.413 238.602 L 99.734 239.909 L 99.098 241.237 L 98.506 242.585 L 97.959 243.952 L 97.456 245.336 L 96.999 246.736 L 96.588 248.150 L 96.224 249.577 L 95.906 251.015 L 95.636 252.462 L 95.413 253.918 L 95.238 255.380 L 95.111 256.847 L 95.031 258.318 L 95.000 259.790 L 95.018 261.262 L 95.083 262.733 L 95.197 264.202 L 95.358 265.665 L 95.567 267.123 L 95.824 268.573 L 96.128 270.014 L 96.479 271.444 L 96.877 272.862 L 97.321 274.266 L 97.811 275.654 L 98.345 277.026 L 98.925 278.380 L 99.548 279.714 L 100.215 281.027 L 100.924 282.318 L 101.675 283.584 L 247.162 520.000 L 101.675 756.416 L 100.924 757.682 L 100.215 758.973 L 99.548 760.286 L 98.925 761.620 L 98.345 762.974 L 97.811 764.346 L 97.321 765.734 L 96.877 767.138 L 96.479 768.556 L 96.128 769.986 L 95.824 771.427 L 95.567 772.877 L 95.358 774.335 L 95.197 775.798 L 95.083 777.267 L 95.018 778.738 L 95.000 780.210 L 95.031 781.682 L 95.111 783.153 L 95.238 784.620 L 95.413 786.082 L 95.636 787.538 L 95.906 788.985 L 96.224 790.423 L 96.588 791.850 L 96.999 793.264 L 97.456 794.664 L 97.959 796.048 L 98.506 797.415 L 99.098 798.763 L 99.734 800.091 L 100.413 801.398 L 101.134 802.682 L 101.897 803.941 L 102.701 805.175 L 103.545 806.382 L 104.427 807.561 L 105.348 808.710 L 106.306 809.828 L 107.300 810.915 L 108.329 811.968 L 109.392 812.987 L 110.488 813.971 L 111.615 814.918 L 112.773 815.828 L 113.960 816.700 L 115.174 817.532 L 116.416 818.325 L 117.682 819.076 L 118.973 819.785 L 120.286 820.452 L 121.620 821.075 L 122.974 821.655 L 124.346 822.189 L 125.734 822.679 L 127.138 823.123 L 128.556 823.521 L 129.986 823.872 L 131.427 824.176 L 132.877 824.433 L 134.335 824.642 L 135.798 824.803 L 137.267 824.917 L 138.738 824.982 L 140.210 825.000 L 141.682 824.969 L 143.153 824.889 L 144.620 824.762 L 146.082 824.587 L 147.538 824.364 L 148.985 824.094 L 150.423 823.776 L 151.850 823.412 L 153.264 823.001 L 154.664 822.544 L 156.048 822.041 L 157.415 821.494 L 158.763 820.902 L 160.091 820.266 L 161.398 819.587 L 162.682 818.866 L 163.941 818.103 L 165.175 817.299 L 166.382 816.455 L 167.561 815.573 L 168.710 814.652 L 169.828 813.694 L 170.915 812.700 L 171.968 811.671 L 172.987 810.608 L 173.971 809.512 L 174.918 808.385 L 175.828 807.227 L 176.700 806.040 L 177.532 804.826 L 178.325 803.584 L 300.000 605.862 L 421.675 803.584 L 422.468 804.826 Z" fill="black" fill-rule="evenodd"/>
</svg>
