<svg xmlns="http://www.w3.org/2000/svg" viewBox="0 0 600.000 1000">
  <path d="M 403.720 303.707 L 403.719 303.705 L 402.763 304.118 L 402.376 304.284 L 401.874 304.499 L 401.286 304.749 L 400.613 305.036 L 399.855 305.357 L 399.013 305.714 L 398.087 306.106 L 397.077 306.532 L 395.986 306.992 L 394.812 307.486 L 393.558 308.013 L 392.224 308.574 L 390.811 309.168 L 389.320 309.794 L 387.753 310.452 L 386.110 311.142 L 384.393 311.863 L 382.602 312.616 L 380.738 313.400 L 378.803 314.215 L 376.799 315.060 L 374.725 315.936 L 372.585 316.842 L 370.378 317.777 L 368.108 318.741 L 365.774 319.735 L 363.379 320.757 L 363.336 320.776 L 360.925 321.808 L 360.877 321.829 L 358.412 322.887 L 358.361 322.909 L 355.843 323.995 L 355.788 324.018 L 353.219 325.130 L 353.161 325.155 L 350.543 326.292 L 350.480 326.320 L 347.814 327.482 L 347.748 327.511 L 345.037 328.699 L 344.966 328.730 L 342.211 329.942 L 342.136 329.975 L 339.340 331.212 L 339.261 331.247 L 336.425 332.508 L 336.341 332.545 L 333.467 333.830 L 333.379 333.869 L 330.470 335.178 L 330.377 335.220 L 327.433 336.551 L 327.336 336.595 L 324.361 337.950 L 324.258 337.996 L 321.254 339.373 L 321.146 339.422 L 318.114 340.822 L 318.002 340.874 L 314.944 342.295 L 314.827 342.350 L 311.745 343.793 L 311.623 343.850 L 308.520 345.314 L 308.392 345.375 L 305.270 346.860 L 305.137 346.924 L 301.998 348.430 L 301.859 348.497 L 298.705 350.024 L 298.560 350.095 L 295.394 351.641 L 295.243 351.715 L 292.066 353.282 L 291.909 353.360 L 288.724 354.946 L 288.560 355.028 L 285.369 356.633 L 285.199 356.719 L 282.004 358.343 L 281.828 358.433 L 278.631 360.076 L 278.448 360.171 L 275.252 361.832 L 275.061 361.932 L 271.868 363.611 L 271.670 363.716 L 268.481 365.413 L 268.276 365.523 L 265.095 367.237 L 264.882 367.353 L 261.710 369.084 L 261.489 369.205 L 258.328 370.954 L 258.099 371.081 L 254.952 372.846 L 254.714 372.980 L 251.584 374.761 L 251.337 374.902 L 248.225 376.699 L 247.969 376.848 L 244.876 378.660 L 244.611 378.816 L 241.541 380.644 L 241.267 380.809 L 238.221 382.651 L 237.936 382.825 L 234.918 384.681 L 234.623 384.864 L 231.632 386.736 L 231.327 386.929 L 228.367 388.814 L 228.051 389.017 L 225.124 390.916 L 224.797 391.131 L 221.905 393.043 L 221.566 393.269 L 218.711 395.195 L 218.360 395.434 L 215.544 397.372 L 215.180 397.625 L 212.405 399.575 L 212.029 399.842 L 209.296 401.805 L 208.908 402.087 L 206.219 404.062 L 205.818 404.360 L 203.176 406.346 L 202.761 406.662 L 200.167 408.659 L 199.738 408.994 L 197.194 411.002 L 196.752 411.356 L 194.260 413.375 L 193.803 413.750 L 191.365 415.780 L 190.893 416.177 L 188.510 418.216 L 188.024 418.638 L 185.698 420.687 L 185.198 421.134 L 182.930 423.192 L 182.415 423.667 L 180.207 425.734 L 179.678 426.238 L 177.532 428.314 L 176.989 428.848 L 174.906 430.932 L 174.349 431.500 L 172.330 433.592 L 171.760 434.194 L 169.807 436.295 L 169.224 436.934 L 167.339 439.042 L 166.744 439.720 L 164.927 441.835 L 164.322 442.554 L 162.574 444.676 L 161.960 445.439 L 160.283 447.568 L 159.661 448.377 L 158.057 450.512 L 157.428 451.369 L 155.897 453.510 L 155.265 454.417 L 153.808 456.564 L 153.175 457.524 L 151.793 459.676 L 151.162 460.689 L 149.856 462.847 L 149.229 463.916 L 148.001 466.078 L 147.382 467.204 L 146.232 469.370 L 145.626 470.554 L 144.555 472.725 L 143.965 473.967 L 142.973 476.142 L 142.404 477.442 L 141.493 479.620 L 140.950 480.978 L 140.119 483.159 L 139.608 484.573 L 138.859 486.757 L 138.383 488.225 L 137.716 490.412 L 137.281 491.930 L 136.696 494.119 L 136.308 495.683 L 135.806 497.875 L 135.469 499.481 L 135.050 501.674 L 134.767 503.317 L 134.432 505.511 L 134.208 507.185 L 133.956 509.380 L 133.794 511.077 L 133.626 513.273 L 133.527 514.985 L 133.443 517.181 L 133.411 518.902 L 133.411 521.098 L 133.443 522.819 L 133.527 525.015 L 133.626 526.727 L 133.794 528.923 L 133.956 530.620 L 134.208 532.815 L 134.432 534.489 L 134.767 536.683 L 135.050 538.326 L 135.469 540.519 L 135.806 542.125 L 136.308 544.317 L 136.696 545.881 L 137.281 548.070 L 137.716 549.588 L 138.383 551.775 L 138.859 553.243 L 139.608 555.427 L 140.119 556.841 L 140.950 559.022 L 141.493 560.380 L 142.404 562.558 L 142.973 563.858 L 143.965 566.033 L 144.555 567.275 L 145.626 569.446 L 146.232 570.630 L 147.382 572.796 L 148.001 573.922 L 149.229 576.084 L 149.856 577.153 L 151.162 579.311 L 151.793 580.324 L 153.175 582.476 L 153.808 583.436 L 155.265 585.583 L 155.897 586.490 L 157.428 588.631 L 158.057 589.488 L 159.661 591.623 L 160.283 592.432 L 161.960 594.561 L 162.574 595.324 L 164.322 597.446 L 164.927 598.165 L 166.744 600.280 L 167.339 600.958 L 169.224 603.066 L 169.807 603.705 L 171.760 605.806 L 172.330 606.408 L 174.349 608.500 L 174.906 609.068 L 176.989 611.152 L 177.532 611.686 L 179.678 613.762 L 180.207 614.266 L 182.415 616.333 L 182.930 616.808 L 185.198 618.866 L 185.698 619.313 L 188.024 621.362 L 188.510 621.784 L 190.893 623.823 L 191.365 624.220 L 193.803 626.250 L 194.260 626.625 L 196.752 628.644 L 197.194 628.998 L 199.738 631.006 L 200.167 631.341 L 202.761 633.338 L 203.176 633.654 L 205.818 635.640 L 206.219 635.938 L 208.908 637.913 L 209.296 638.195 L 212.029 640.158 L 212.405 640.425 L 215.180 642.375 L 215.544 642.628 L 218.360 644.566 L 218.711 644.805 L 221.566 646.731 L 221.905 646.957 L 224.797 648.869 L 225.124 649.084 L 228.051 650.983 L 228.367 651.186 L 231.327 653.071 L 231.632 653.264 L 234.623 655.136 L 234.918 655.319 L 237.936 657.175 L 238.221 657.349 L 241.267 659.191 L 241.541 659.356 L 244.611 661.184 L 244.876 661.340 L 247.969 663.152 L 248.225 663.301 L 251.337 665.098 L 251.584 665.239 L 254.714 667.020 L 254.952 667.154 L 258.099 668.919 L 258.328 669.046 L 261.489 670.795 L 261.710 670.916 L 264.882 672.647 L 265.095 672.763 L 268.276 674.477 L 268.481 674.587 L 271.670 676.284 L 271.868 676.389 L 275.061 678.068 L 275.252 678.168 L 278.448 679.829 L 278.631 679.924 L 281.828 681.567 L 282.004 681.657 L 285.199 683.281 L 285.369 683.367 L 288.560 684.972 L 288.724 685.054 L 291.909 686.640 L 292.066 686.718 L 295.243 688.285 L 295.394 688.359 L 298.560 689.905 L 298.705 689.976 L 301.859 691.503 L 301.998 691.570 L 305.137 693.076 L 305.270 693.140 L 308.392 694.625 L 308.520 694.686 L 311.623 696.150 L 311.745 696.207 L 314.827 697.650 L 314.944 697.705 L 318.002 699.126 L 318.114 699.178 L 321.146 700.578 L 321.254 700.627 L 324.258 702.004 L 324.361 702.050 L 327.336 703.405 L 327.433 703.449 L 330.377 704.780 L 330.470 704.822 L 333.379 706.131 L 333.467 706.170 L 336.341 707.455 L 336.425 707.492 L 339.261 708.753 L 339.340 708.788 L 342.136 710.025 L 342.211 710.058 L 344.966 711.270 L 345.037 711.301 L 347.748 712.489 L 347.814 712.518 L 350.480 713.680 L 350.543 713.708 L 353.161 714.845 L 353.219 714.870 L 355.788 715.982 L 355.843 716.005 L 358.361 717.091 L 358.412 717.113 L 360.877 718.171 L 360.925 718.192 L 363.336 719.224 L 363.379 719.243 L 365.734 720.248 L 368.071 721.243 L 370.346 722.209 L 372.556 723.146 L 374.700 724.053 L 376.777 724.930 L 378.785 725.777 L 380.723 726.593 L 382.590 727.379 L 384.384 728.133 L 386.105 728.856 L 387.751 729.547 L 389.320 730.206 L 390.811 730.832 L 392.224 731.426 L 393.558 731.987 L 394.812 732.514 L 395.986 733.008 L 397.077 733.468 L 398.087 733.894 L 399.013 734.286 L 399.855 734.643 L 400.613 734.964 L 401.286 735.251 L 401.874 735.501 L 402.376 735.716 L 402.780 735.889 L 403.362 736.140 L 403.684 736.280 L 405.044 736.844 L 406.422 737.363 L 407.816 737.837 L 409.225 738.265 L 410.648 738.647 L 412.082 738.982 L 413.526 739.270 L 414.979 739.510 L 416.438 739.703 L 417.904 739.848 L 419.373 739.945 L 420.845 739.994 L 422.317 739.994 L 423.789 739.947 L 425.259 739.851 L 426.724 739.707 L 428.184 739.516 L 429.637 739.276 L 431.082 738.990 L 432.516 738.656 L 433.938 738.275 L 435.348 737.849 L 436.742 737.376 L 438.121 736.858 L 439.481 736.295 L 440.823 735.688 L 442.144 735.037 L 443.443 734.343 L 444.719 733.607 L 445.969 732.830 L 447.194 732.013 L 448.391 731.156 L 449.560 730.260 L 450.699 729.326 L 451.806 728.355 L 452.881 727.349 L 453.923 726.308 L 454.930 725.234 L 455.902 724.127 L 456.836 722.989 L 457.733 721.822 L 458.591 720.625 L 459.410 719.401 L 460.188 718.151 L 460.925 716.876 L 461.620 715.577 L 462.271 714.257 L 462.880 712.916 L 463.444 711.556 L 463.963 710.178 L 464.437 708.784 L 464.865 707.375 L 465.247 705.952 L 465.582 704.518 L 465.870 703.074 L 466.110 701.621 L 466.303 700.162 L 466.448 698.696 L 466.545 697.227 L 466.594 695.755 L 466.594 694.283 L 466.547 692.811 L 466.451 691.341 L 466.307 689.876 L 466.116 688.416 L 465.876 686.963 L 465.590 685.518 L 465.256 684.084 L 464.875 682.662 L 464.449 681.252 L 463.976 679.858 L 463.458 678.479 L 462.895 677.119 L 462.288 675.777 L 461.637 674.456 L 460.943 673.157 L 460.207 671.881 L 459.430 670.631 L 458.613 669.406 L 457.756 668.209 L 456.860 667.040 L 455.926 665.901 L 454.955 664.794 L 453.949 663.719 L 452.908 662.677 L 451.834 661.670 L 450.727 660.698 L 449.589 659.764 L 448.422 658.867 L 447.225 658.009 L 446.001 657.190 L 444.751 656.412 L 443.476 655.675 L 442.177 654.980 L 440.857 654.329 L 439.516 653.720 L 439.552 653.736 L 439.499 653.713 L 439.373 653.658 L 439.317 653.634 L 439.107 653.543 L 439.055 653.520 L 438.761 653.393 L 438.711 653.372 L 438.334 653.210 L 438.287 653.190 L 437.827 652.992 L 437.783 652.974 L 437.240 652.741 L 436.573 652.457 L 435.828 652.140 L 435.004 651.790 L 434.102 651.408 L 433.123 650.994 L 432.068 650.548 L 430.936 650.071 L 429.729 649.563 L 428.448 649.024 L 427.093 648.455 L 425.666 647.855 L 424.167 647.226 L 422.599 646.567 L 420.962 645.880 L 419.256 645.163 L 417.484 644.418 L 415.646 643.645 L 413.743 642.844 L 411.778 642.015 L 409.750 641.159 L 407.663 640.276 L 405.516 639.366 L 403.313 638.430 L 401.054 637.468 L 398.741 636.481 L 396.375 635.468 L 393.959 634.430 L 391.494 633.367 L 388.982 632.281 L 386.425 631.170 L 383.825 630.036 L 381.183 628.879 L 378.502 627.699 L 375.784 626.497 L 373.030 625.272 L 370.242 624.026 L 367.423 622.759 L 364.575 621.471 L 361.700 620.162 L 358.801 618.833 L 355.878 617.484 L 352.935 616.117 L 349.973 614.730 L 346.996 613.325 L 344.005 611.902 L 341.002 610.461 L 337.991 609.003 L 334.973 607.529 L 331.950 606.038 L 328.925 604.532 L 325.901 603.010 L 322.879 601.474 L 319.862 599.924 L 316.853 598.360 L 313.854 596.783 L 310.867 595.193 L 307.896 593.592 L 304.941 591.979 L 302.006 590.355 L 299.093 588.722 L 296.205 587.079 L 293.344 585.428 L 290.512 583.768 L 287.712 582.102 L 284.947 580.429 L 282.218 578.750 L 279.528 577.067 L 276.880 575.380 L 274.275 573.690 L 271.717 571.999 L 269.207 570.306 L 266.749 568.614 L 264.343 566.923 L 261.992 565.235 L 259.699 563.551 L 257.466 561.872 L 255.295 560.200 L 253.187 558.536 L 251.146 556.882 L 249.172 555.239 L 247.267 553.609 L 245.434 551.995 L 243.674 550.397 L 241.988 548.819 L 240.378 547.262 L 238.845 545.728 L 237.390 544.219 L 236.014 542.739 L 234.717 541.289 L 233.500 539.873 L 232.362 538.492 L 231.305 537.148 L 230.326 535.846 L 229.425 534.587 L 228.602 533.373 L 227.853 532.207 L 227.178 531.091 L 226.573 530.027 L 226.036 529.015 L 225.564 528.058 L 225.152 527.155 L 224.796 526.306 L 224.494 525.510 L 224.239 524.767 L 224.027 524.073 L 223.854 523.426 L 223.715 522.821 L 223.607 522.254 L 223.525 521.718 L 223.466 521.208 L 223.429 520.717 L 223.411 520.238 L 223.411 519.762 L 223.429 519.283 L 223.466 518.792 L 223.525 518.282 L 223.607 517.746 L 223.715 517.179 L 223.854 516.574 L 224.027 515.927 L 224.239 515.233 L 224.494 514.490 L 224.796 513.694 L 225.152 512.845 L 225.564 511.942 L 226.036 510.985 L 226.573 509.973 L 227.178 508.909 L 227.853 507.793 L 228.602 506.627 L 229.425 505.413 L 230.326 504.154 L 231.305 502.852 L 232.362 501.508 L 233.500 500.127 L 234.717 498.711 L 236.014 497.261 L 237.390 495.781 L 238.845 494.272 L 240.378 492.738 L 241.988 491.181 L 243.674 489.603 L 245.434 488.005 L 247.267 486.391 L 249.172 484.761 L 251.146 483.118 L 253.187 481.464 L 255.295 479.800 L 257.466 478.128 L 259.699 476.449 L 261.992 474.765 L 264.343 473.077 L 266.749 471.386 L 269.207 469.694 L 271.717 468.001 L 274.275 466.310 L 276.880 464.620 L 279.528 462.933 L 282.218 461.250 L 284.947 459.571 L 287.712 457.898 L 290.512 456.232 L 293.344 454.572 L 296.205 452.921 L 299.093 451.278 L 302.006 449.645 L 304.941 448.021 L 307.896 446.408 L 310.867 444.807 L 313.854 443.217 L 316.853 441.640 L 319.862 440.076 L 322.879 438.526 L 325.901 436.990 L 328.925 435.468 L 331.950 433.962 L 334.973 432.471 L 337.991 430.997 L 341.002 429.539 L 344.005 428.098 L 346.996 426.675 L 349.973 425.270 L 352.935 423.883 L 355.878 422.516 L 358.801 421.167 L 361.700 419.838 L 364.575 418.529 L 367.423 417.241 L 370.242 415.974 L 373.030 414.728 L 375.784 413.503 L 378.502 412.301 L 381.183 411.121 L 383.825 409.964 L 386.425 408.830 L 388.982 407.719 L 391.494 406.633 L 393.959 405.570 L 396.375 404.532 L 398.741 403.519 L 401.054 402.532 L 403.313 401.570 L 405.516 400.634 L 407.663 399.724 L 409.750 398.841 L 411.778 397.985 L 413.743 397.156 L 415.646 396.355 L 417.484 395.582 L 419.256 394.837 L 420.962 394.120 L 422.599 393.433 L 424.166 392.775 L 425.661 392.147 L 427.085 391.548 L 428.437 390.980 L 429.715 390.443 L 430.918 389.936 L 432.047 389.460 L 433.099 389.016 L 434.075 388.603 L 434.974 388.223 L 435.794 387.875 L 436.536 387.559 L 437.200 387.276 L 437.783 387.026 L 437.827 387.008 L 438.287 386.810 L 438.334 386.790 L 438.711 386.628 L 438.761 386.607 L 439.055 386.480 L 439.107 386.457 L 439.317 386.366 L 439.373 386.342 L 439.499 386.287 L 439.552 386.264 L 439.594 386.246 L 440.934 385.635 L 442.253 384.981 L 443.550 384.284 L 444.823 383.544 L 446.072 382.764 L 447.295 381.943 L 448.490 381.083 L 449.656 380.183 L 450.792 379.247 L 451.897 378.273 L 452.969 377.264 L 454.008 376.220 L 455.012 375.143 L 455.981 374.034 L 456.912 372.894 L 457.806 371.723 L 458.661 370.524 L 459.476 369.298 L 460.251 368.046 L 460.984 366.769 L 461.675 365.469 L 462.324 364.146 L 462.928 362.804 L 463.489 361.442 L 464.004 360.062 L 464.474 358.667 L 464.899 357.257 L 465.276 355.834 L 465.608 354.399 L 465.891 352.954 L 466.128 351.500 L 466.317 350.040 L 466.458 348.574 L 466.551 347.105 L 466.596 345.633 L 466.592 344.160 L 466.541 342.689 L 466.441 341.219 L 466.293 339.754 L 466.098 338.295 L 465.854 336.842 L 465.564 335.399 L 465.226 333.965 L 464.842 332.544 L 464.411 331.136 L 463.934 329.742 L 463.413 328.366 L 462.846 327.006 L 462.235 325.666 L 461.581 324.347 L 460.884 323.050 L 460.144 321.777 L 459.364 320.528 L 458.543 319.305 L 457.683 318.110 L 456.783 316.944 L 455.847 315.808 L 454.873 314.703 L 453.864 313.631 L 452.820 312.592 L 451.743 311.588 L 450.634 310.619 L 449.494 309.688 L 448.323 308.794 L 447.124 307.939 L 445.898 307.124 L 444.646 306.349 L 443.369 305.616 L 442.069 304.925 L 440.746 304.276 L 439.404 303.672 L 438.042 303.111 L 436.662 302.596 L 435.267 302.126 L 433.857 301.701 L 432.434 301.324 L 430.999 300.992 L 429.554 300.709 L 428.100 300.472 L 426.640 300.283 L 425.174 300.142 L 423.705 300.049 L 422.233 300.004 L 420.760 300.008 L 419.289 300.059 L 417.819 300.159 L 416.354 300.307 L 414.895 300.502 L 413.442 300.746 L 411.999 301.036 L 410.565 301.374 L 409.144 301.758 L 407.736 302.189 L 406.342 302.666 L 404.966 303.187 L 403.720 303.707 Z" fill="black" fill-rule="evenodd"/>
</svg>
