<svg xmlns="http://www.w3.org/2000/svg" viewBox="0 0 600.000 1000">
  <path d="M 214.001 371.581 L 221.253 369.845 L 228.292 368.285 L 235.120 366.898 L 241.734 365.678 L 248.135 364.621 L 254.322 363.724 L 260.294 362.980 L 266.050 362.385 L 271.590 361.933 L 276.913 361.620 L 282.019 361.439 L 286.906 361.385 L 291.575 361.451 L 296.026 361.630 L 300.257 361.917 L 304.269 362.303 L 308.063 362.781 L 311.638 363.343 L 314.998 363.982 L 318.142 364.688 L 321.074 365.452 L 323.796 366.267 L 326.313 367.123 L 328.629 368.011 L 330.750 368.922 L 332.684 369.849 L 334.437 370.782 L 336.019 371.715 L 337.441 372.641 L 338.712 373.556 L 339.846 374.456 L 340.855 375.338 L 341.750 376.203 L 342.545 377.052 L 343.253 377.887 L 343.884 378.714 L 344.449 379.539 L 344.957 380.369 L 345.417 381.214 L 345.833 382.081 L 346.210 382.982 L 346.550 383.924 L 346.854 384.917 L 347.120 385.968 L 347.347 387.086 L 347.531 388.275 L 347.667 389.541 L 347.751 390.888 L 347.778 392.317 L 347.741 393.829 L 347.636 395.426 L 347.457 397.106 L 347.198 398.867 L 346.855 400.707 L 346.424 402.623 L 345.899 404.611 L 345.278 406.668 L 344.557 408.788 L 343.733 410.967 L 342.804 413.201 L 341.767 415.485 L 340.620 417.813 L 339.363 420.182 L 337.993 422.585 L 336.510 425.018 L 334.913 427.477 L 333.201 429.956 L 331.375 432.451 L 329.433 434.957 L 327.376 437.470 L 325.203 439.984 L 322.916 442.497 L 320.513 445.004 L 317.996 447.500 L 315.365 449.982 L 312.620 452.445 L 309.761 454.886 L 306.789 457.300 L 303.705 459.685 L 300.509 462.036 L 297.202 464.350 L 293.783 466.624 L 290.254 468.853 L 286.615 471.035 L 282.867 473.166 L 279.009 475.242 L 275.043 477.261 L 270.508 479.441 L 269.514 479.934 L 268.533 480.451 L 267.565 480.992 L 266.610 481.556 L 265.670 482.145 L 264.744 482.756 L 263.834 483.389 L 262.940 484.045 L 262.062 484.723 L 261.201 485.422 L 260.357 486.143 L 259.532 486.883 L 258.725 487.644 L 257.937 488.425 L 257.169 489.225 L 256.420 490.043 L 255.692 490.880 L 254.985 491.734 L 254.299 492.606 L 253.635 493.494 L 252.993 494.398 L 252.373 495.318 L 251.776 496.253 L 251.202 497.202 L 250.652 498.165 L 250.126 499.142 L 249.624 500.131 L 249.147 501.132 L 248.694 502.144 L 248.267 503.168 L 247.865 504.201 L 247.488 505.244 L 247.137 506.297 L 246.813 507.357 L 246.514 508.425 L 246.242 509.501 L 245.997 510.582 L 245.778 511.669 L 245.586 512.762 L 245.421 513.859 L 245.283 514.959 L 245.173 516.063 L 245.089 517.169 L 245.033 518.276 L 245.004 519.385 L 245.003 520.494 L 245.029 521.603 L 245.082 522.711 L 245.162 523.817 L 245.270 524.921 L 245.405 526.022 L 245.567 527.119 L 245.756 528.212 L 245.971 529.300 L 246.214 530.382 L 246.483 531.458 L 246.779 532.527 L 247.101 533.588 L 247.449 534.641 L 247.822 535.686 L 248.222 536.720 L 248.646 537.745 L 249.096 538.759 L 249.571 539.761 L 250.070 540.751 L 250.594 541.729 L 251.141 542.694 L 251.712 543.644 L 252.307 544.581 L 252.924 545.502 L 253.564 546.408 L 254.226 547.298 L 254.909 548.172 L 255.614 549.028 L 256.340 549.867 L 257.086 550.687 L 257.853 551.489 L 258.638 552.272 L 259.443 553.035 L 260.267 553.778 L 261.108 554.500 L 261.967 555.202 L 262.843 555.882 L 263.736 556.540 L 264.644 557.176 L 265.568 557.790 L 266.507 558.381 L 267.460 558.948 L 272.103 561.635 L 276.280 564.155 L 280.343 566.711 L 284.292 569.298 L 288.126 571.914 L 291.844 574.556 L 295.444 577.220 L 298.927 579.904 L 302.292 582.603 L 305.537 585.316 L 308.661 588.037 L 311.665 590.764 L 314.548 593.493 L 317.308 596.220 L 319.945 598.941 L 322.459 601.652 L 324.849 604.350 L 327.115 607.029 L 329.256 609.686 L 331.273 612.316 L 333.166 614.915 L 334.934 617.478 L 336.579 619.999 L 338.100 622.474 L 339.499 624.898 L 340.778 627.266 L 341.937 629.572 L 342.979 631.811 L 343.906 633.978 L 344.721 636.067 L 345.427 638.073 L 346.029 639.993 L 346.531 641.820 L 346.939 643.551 L 347.257 645.183 L 347.493 646.713 L 347.653 648.138 L 347.745 649.460 L 347.776 650.677 L 347.754 651.793 L 347.687 652.811 L 347.581 653.738 L 347.442 654.579 L 347.276 655.345 L 347.085 656.046 L 346.873 656.694 L 346.637 657.301 L 346.375 657.882 L 346.081 658.449 L 345.749 659.016 L 345.366 659.593 L 344.923 660.191 L 344.405 660.818 L 343.797 661.479 L 343.086 662.177 L 342.256 662.915 L 341.292 663.691 L 340.181 664.500 L 338.911 665.340 L 337.469 666.202 L 335.847 667.080 L 334.035 667.966 L 332.026 668.850 L 329.815 669.723 L 327.397 670.577 L 324.767 671.401 L 321.923 672.187 L 318.864 672.927 L 315.588 673.611 L 312.093 674.232 L 308.381 674.783 L 304.450 675.256 L 300.302 675.645 L 295.935 675.943 L 291.353 676.144 L 286.554 676.243 L 281.540 676.233 L 276.311 676.111 L 270.869 675.871 L 265.214 675.509 L 259.347 675.020 L 253.268 674.401 L 246.979 673.647 L 240.480 672.754 L 233.772 671.720 L 226.855 670.540 L 219.730 669.210 L 212.396 667.729 L 204.548 666.025 L 203.466 665.803 L 202.378 665.609 L 201.287 665.441 L 200.191 665.300 L 199.093 665.187 L 197.992 665.100 L 196.889 665.040 L 195.785 665.007 L 194.681 665.001 L 193.576 665.023 L 192.473 665.071 L 191.371 665.147 L 190.272 665.249 L 189.175 665.379 L 188.081 665.535 L 186.992 665.718 L 185.908 665.928 L 184.829 666.164 L 183.756 666.427 L 182.690 666.716 L 181.632 667.031 L 180.581 667.372 L 179.540 667.739 L 178.507 668.131 L 177.485 668.549 L 176.473 668.991 L 175.472 669.458 L 174.483 669.949 L 173.506 670.465 L 172.542 671.004 L 171.592 671.567 L 170.656 672.153 L 169.734 672.762 L 168.828 673.393 L 167.938 674.047 L 167.064 674.722 L 166.206 675.418 L 165.366 676.135 L 164.544 676.872 L 163.740 677.630 L 162.955 678.407 L 162.190 679.203 L 161.444 680.017 L 160.718 680.850 L 160.013 681.700 L 159.329 682.567 L 158.666 683.451 L 158.026 684.350 L 157.407 685.265 L 156.812 686.195 L 156.239 687.140 L 155.690 688.098 L 155.164 689.069 L 154.662 690.053 L 154.185 691.049 L 153.732 692.057 L 153.304 693.075 L 152.901 694.103 L 152.524 695.141 L 152.172 696.188 L 151.846 697.243 L 151.546 698.306 L 151.272 699.376 L 151.025 700.452 L 150.803 701.534 L 150.609 702.622 L 150.441 703.713 L 150.300 704.809 L 150.187 705.907 L 150.100 707.008 L 150.040 708.111 L 150.007 709.215 L 150.001 710.319 L 150.023 711.424 L 150.071 712.527 L 150.147 713.629 L 150.249 714.728 L 150.379 715.825 L 150.535 716.919 L 150.718 718.008 L 150.928 719.092 L 151.164 720.171 L 151.427 721.244 L 151.716 722.310 L 152.031 723.368 L 152.372 724.419 L 152.739 725.460 L 153.131 726.493 L 153.549 727.515 L 153.991 728.527 L 154.458 729.528 L 154.949 730.517 L 155.465 731.494 L 156.004 732.458 L 156.567 733.408 L 157.153 734.344 L 157.762 735.266 L 158.393 736.172 L 159.047 737.062 L 159.722 737.936 L 160.418 738.794 L 161.135 739.634 L 161.872 740.456 L 162.630 741.260 L 163.407 742.045 L 164.203 742.810 L 165.017 743.556 L 165.850 744.282 L 166.700 744.987 L 167.567 745.671 L 168.451 746.334 L 169.350 746.974 L 170.265 747.593 L 171.195 748.188 L 172.140 748.761 L 173.098 749.310 L 174.069 749.836 L 175.053 750.338 L 176.049 750.815 L 177.057 751.268 L 178.075 751.696 L 179.103 752.099 L 180.141 752.476 L 181.188 752.828 L 182.243 753.154 L 183.306 753.454 L 184.376 753.728 L 185.452 753.975 L 193.618 755.748 L 194.254 755.882 L 202.235 757.494 L 202.894 757.622 L 210.691 759.077 L 211.375 759.199 L 218.989 760.498 L 219.698 760.613 L 227.130 761.760 L 227.867 761.867 L 235.117 762.863 L 235.882 762.961 L 242.951 763.809 L 243.747 763.897 L 250.636 764.599 L 251.463 764.675 L 258.173 765.234 L 259.032 765.298 L 265.564 765.716 L 266.458 765.764 L 272.813 766.044 L 273.743 766.076 L 279.921 766.220 L 280.889 766.232 L 286.890 766.243 L 287.898 766.234 L 293.724 766.114 L 294.773 766.081 L 300.425 765.833 L 301.516 765.771 L 306.995 765.398 L 308.130 765.306 L 313.436 764.809 L 314.616 764.682 L 319.751 764.064 L 320.978 763.900 L 325.941 763.163 L 327.216 762.955 L 332.009 762.103 L 333.332 761.847 L 337.956 760.881 L 339.327 760.572 L 343.782 759.495 L 345.202 759.128 L 349.489 757.942 L 350.957 757.509 L 355.077 756.218 L 356.590 755.714 L 360.545 754.319 L 361.326 754.035 L 362.101 753.737 L 365.890 752.241 L 366.692 751.915 L 367.487 751.574 L 371.111 749.979 L 371.931 749.608 L 372.744 749.221 L 376.205 747.530 L 377.040 747.111 L 377.867 746.674 L 381.165 744.889 L 382.013 744.419 L 382.850 743.930 L 385.986 742.053 L 386.842 741.528 L 387.686 740.984 L 390.660 739.019 L 391.519 738.437 L 392.364 737.835 L 395.178 735.784 L 396.035 735.143 L 396.876 734.483 L 399.530 732.348 L 400.378 731.648 L 401.209 730.928 L 403.704 728.711 L 404.537 727.952 L 405.351 727.173 L 407.688 724.877 L 408.499 724.060 L 409.288 723.222 L 411.468 720.850 L 412.250 719.977 L 413.009 719.083 L 415.032 716.637 L 415.777 715.711 L 416.498 714.766 L 418.366 712.248 L 419.068 711.274 L 419.745 710.282 L 421.457 707.695 L 422.111 706.678 L 422.737 705.645 L 424.296 702.991 L 424.895 701.939 L 425.466 700.871 L 426.872 698.153 L 427.412 697.072 L 427.924 695.977 L 429.177 693.198 L 429.656 692.095 L 430.106 690.981 L 431.208 688.143 L 431.623 687.027 L 432.010 685.902 L 432.960 683.006 L 433.312 681.886 L 433.634 680.757 L 434.435 677.807 L 434.723 676.689 L 434.983 675.564 L 435.634 672.563 L 435.860 671.454 L 436.058 670.339 L 436.561 667.289 L 436.728 666.195 L 436.868 665.097 L 437.223 662.000 L 437.333 660.927 L 437.418 659.852 L 437.626 656.710 L 437.683 655.663 L 437.716 654.614 L 437.779 651.431 L 437.788 650.412 L 437.773 649.394 L 437.691 646.171 L 437.655 645.184 L 437.597 644.198 L 437.370 640.938 L 437.294 639.985 L 437.197 639.035 L 436.826 635.740 L 436.714 634.822 L 436.582 633.907 L 436.069 630.581 L 435.924 629.699 L 435.762 628.821 L 435.107 625.464 L 434.933 624.619 L 434.744 623.777 L 433.948 620.394 L 433.749 619.584 L 433.536 618.778 L 432.599 615.370 L 432.145 613.825 L 431.069 610.395 L 430.578 608.919 L 429.363 605.469 L 428.840 604.059 L 427.488 600.592 L 426.937 599.246 L 425.448 595.765 L 424.875 594.480 L 423.249 590.986 L 422.656 589.760 L 420.894 586.256 L 420.285 585.086 L 418.389 581.575 L 417.765 580.458 L 415.735 576.942 L 415.099 575.874 L 412.936 572.356 L 412.291 571.336 L 409.996 567.818 L 409.342 566.843 L 406.915 563.327 L 406.254 562.394 L 403.697 558.883 L 403.030 557.991 L 400.343 554.487 L 399.671 553.633 L 396.856 550.139 L 396.180 549.320 L 393.236 545.839 L 392.556 545.054 L 389.485 541.587 L 388.802 540.834 L 385.604 537.385 L 384.919 536.663 L 381.596 533.233 L 380.909 532.539 L 377.460 529.132 L 376.771 528.466 L 373.198 525.083 L 372.507 524.443 L 369.789 521.975 L 371.481 520.531 L 372.313 519.802 L 375.886 516.597 L 376.708 515.840 L 380.156 512.588 L 380.968 511.803 L 384.292 508.507 L 385.093 507.692 L 388.291 504.356 L 389.080 503.511 L 392.151 500.137 L 392.929 499.260 L 395.873 495.852 L 396.638 494.942 L 399.454 491.503 L 400.205 490.559 L 402.892 487.092 L 403.630 486.113 L 406.187 482.620 L 406.909 481.604 L 409.336 478.090 L 410.042 477.035 L 412.337 473.502 L 413.026 472.408 L 415.188 468.859 L 415.858 467.723 L 417.888 464.162 L 418.537 462.982 L 420.433 459.411 L 421.060 458.186 L 422.821 454.609 L 423.423 453.337 L 425.048 449.757 L 425.623 448.436 L 427.112 444.856 L 427.657 443.484 L 429.009 439.907 L 429.521 438.482 L 430.735 434.911 L 431.210 433.433 L 432.285 429.871 L 432.719 428.338 L 433.656 424.788 L 434.044 423.198 L 434.840 419.664 L 435.017 418.842 L 435.179 418.017 L 435.834 414.501 L 435.984 413.650 L 436.118 412.797 L 436.631 409.302 L 436.751 408.423 L 436.854 407.541 L 437.224 404.072 L 437.312 403.164 L 437.381 402.254 L 437.608 398.813 L 437.660 397.877 L 437.692 396.941 L 437.775 393.530 L 437.788 392.569 L 437.780 391.608 L 437.717 388.231 L 437.688 387.245 L 437.638 386.260 L 437.429 382.920 L 437.355 381.913 L 437.258 380.907 L 436.902 377.607 L 436.780 376.580 L 436.633 375.557 L 436.130 372.301 L 435.957 371.258 L 435.759 370.220 L 435.107 367.011 L 434.881 365.957 L 434.628 364.910 L 433.828 361.750 L 433.545 360.690 L 433.237 359.637 L 432.287 356.530 L 431.948 355.469 L 431.583 354.416 L 430.481 351.365 L 430.085 350.309 L 429.662 349.263 L 428.409 346.270 L 427.956 345.224 L 427.476 344.191 L 426.071 341.260 L 425.561 340.232 L 425.026 339.217 L 423.467 336.351 L 422.903 335.346 L 422.314 334.356 L 420.601 331.558 L 419.987 330.582 L 419.347 329.623 L 417.479 326.897 L 416.817 325.956 L 416.131 325.032 L 414.108 322.381 L 413.402 321.480 L 412.674 320.598 L 410.494 318.024 L 409.751 317.168 L 408.986 316.331 L 406.649 313.838 L 405.872 313.030 L 405.076 312.242 L 402.581 309.832 L 401.778 309.076 L 400.957 308.339 L 398.303 306.016 L 397.479 305.313 L 396.639 304.629 L 393.825 302.396 L 392.987 301.747 L 392.133 301.117 L 389.159 298.978 L 388.311 298.382 L 387.449 297.807 L 384.314 295.763 L 383.462 295.221 L 382.598 294.699 L 379.300 292.755 L 378.450 292.266 L 377.588 291.795 L 374.128 289.953 L 373.282 289.515 L 372.428 289.094 L 368.803 287.358 L 367.967 286.968 L 367.123 286.595 L 363.334 284.967 L 362.511 284.623 L 361.681 284.295 L 357.727 282.779 L 356.919 282.478 L 356.106 282.193 L 351.985 280.792 L 351.195 280.531 L 350.401 280.285 L 346.113 279.002 L 344.569 278.570 L 340.114 277.407 L 338.612 277.043 L 333.988 276.005 L 332.532 275.703 L 327.738 274.792 L 326.328 274.547 L 321.364 273.767 L 320.000 273.573 L 314.866 272.926 L 313.549 272.780 L 308.242 272.269 L 306.972 272.165 L 301.493 271.794 L 300.268 271.728 L 294.616 271.500 L 293.436 271.468 L 287.609 271.386 L 286.474 271.384 L 280.472 271.451 L 279.379 271.476 L 273.201 271.695 L 272.150 271.744 L 265.796 272.118 L 264.785 272.189 L 258.253 272.722 L 257.280 272.812 L 250.570 273.505 L 249.635 273.612 L 242.746 274.470 L 241.846 274.591 L 234.777 275.617 L 233.911 275.751 L 226.661 276.948 L 225.828 277.094 L 218.397 278.464 L 217.595 278.619 L 209.982 280.167 L 209.210 280.330 L 201.413 282.058 L 200.670 282.229 L 192.689 284.140 L 191.974 284.317 L 183.808 286.414 L 182.742 286.702 L 181.683 287.016 L 180.632 287.356 L 179.590 287.721 L 178.557 288.112 L 177.534 288.528 L 176.521 288.969 L 175.520 289.435 L 174.530 289.925 L 173.553 290.440 L 172.588 290.978 L 171.637 291.540 L 170.701 292.125 L 169.778 292.732 L 168.871 293.363 L 167.980 294.015 L 167.105 294.689 L 166.247 295.384 L 165.406 296.100 L 164.583 296.837 L 163.778 297.593 L 162.992 298.369 L 162.226 299.164 L 161.479 299.978 L 160.752 300.809 L 160.046 301.659 L 159.361 302.525 L 158.698 303.408 L 158.056 304.307 L 157.437 305.221 L 156.840 306.150 L 156.266 307.094 L 155.716 308.052 L 155.189 309.022 L 154.686 310.006 L 154.207 311.001 L 153.753 312.008 L 153.324 313.026 L 152.920 314.053 L 152.542 315.091 L 152.188 316.137 L 151.861 317.192 L 151.560 318.255 L 151.285 319.324 L 151.036 320.400 L 150.813 321.482 L 150.618 322.569 L 150.449 323.661 L 150.307 324.756 L 150.191 325.854 L 150.103 326.955 L 150.042 328.058 L 150.008 329.162 L 150.001 330.266 L 150.021 331.371 L 150.068 332.474 L 150.142 333.576 L 150.244 334.676 L 150.372 335.773 L 150.527 336.866 L 150.709 337.955 L 150.917 339.040 L 151.153 340.119 L 151.414 341.192 L 151.702 342.258 L 152.016 343.317 L 152.356 344.368 L 152.721 345.410 L 153.112 346.443 L 153.528 347.466 L 153.969 348.479 L 154.435 349.480 L 154.925 350.470 L 155.440 351.447 L 155.978 352.412 L 156.540 353.363 L 157.125 354.299 L 157.732 355.222 L 158.363 356.129 L 159.015 357.020 L 159.689 357.895 L 160.384 358.753 L 161.100 359.594 L 161.837 360.417 L 162.593 361.222 L 163.369 362.008 L 164.164 362.774 L 164.978 363.521 L 165.809 364.248 L 166.659 364.954 L 167.525 365.639 L 168.408 366.302 L 169.307 366.944 L 170.221 367.563 L 171.150 368.160 L 172.094 368.734 L 173.052 369.284 L 174.022 369.811 L 175.006 370.314 L 176.001 370.793 L 177.008 371.247 L 178.026 371.676 L 179.053 372.080 L 180.091 372.458 L 181.137 372.812 L 182.192 373.139 L 183.255 373.440 L 184.324 373.715 L 185.400 373.964 L 186.482 374.187 L 187.569 374.382 L 188.661 374.551 L 189.756 374.693 L 190.854 374.809 L 191.955 374.897 L 193.058 374.958 L 194.162 374.992 L 195.266 374.999 L 196.371 374.979 L 197.474 374.932 L 198.576 374.858 L 199.676 374.756 L 200.773 374.628 L 201.866 374.473 L 202.955 374.291 L 204.040 374.083 L 205.119 373.847 L 206.192 373.586 L 214.001 371.581 Z" fill="black" fill-rule="evenodd"/>
</svg>
