<svg xmlns="http://www.w3.org/2000/svg" viewBox="0 0 900.000 1000" width="900.000" height="1000">
  <path d="M 105.014 771.104 L 105.054 772.208 L 105.122 773.310 L 105.217 774.411 L 105.338 775.508 L 105.487 776.603 L 105.663 777.693 L 105.865 778.779 L 106.093 779.860 L 106.349 780.934 L 106.630 782.002 L 106.938 783.063 L 107.271 784.116 L 107.631 785.160 L 108.015 786.195 L 108.425 787.221 L 108.861 788.236 L 109.320 789.240 L 109.805 790.233 L 110.314 791.213 L 110.846 792.180 L 111.402 793.135 L 111.982 794.075 L 112.584 795.001 L 113.209 795.911 L 113.856 796.806 L 114.524 797.685 L 115.215 798.548 L 115.926 799.393 L 116.657 800.220 L 117.409 801.029 L 118.180 801.820 L 118.971 802.591 L 119.780 803.343 L 120.607 804.074 L 121.452 804.785 L 122.315 805.476 L 123.194 806.144 L 124.089 806.791 L 124.999 807.416 L 125.925 808.018 L 126.865 808.598 L 127.820 809.154 L 128.787 809.686 L 129.767 810.195 L 130.760 810.680 L 131.764 811.139 L 132.779 811.575 L 133.805 811.985 L 134.840 812.369 L 135.884 812.729 L 136.937 813.062 L 137.998 813.370 L 139.066 813.651 L 140.140 813.907 L 141.221 814.135 L 142.307 814.337 L 143.397 814.513 L 144.492 814.662 L 145.589 814.783 L 146.690 814.878 L 147.792 814.946 L 148.896 814.986 L 150.000 815.000 L 450.000 815.000 L 750.000 815.000 L 751.104 814.986 L 752.208 814.946 L 753.310 814.878 L 754.411 814.783 L 755.508 814.662 L 756.603 814.513 L 757.693 814.337 L 758.779 814.135 L 759.860 813.907 L 760.934 813.651 L 762.002 813.370 L 763.063 813.062 L 764.116 812.729 L 765.160 812.369 L 766.195 811.985 L 767.221 811.575 L 768.236 811.139 L 769.240 810.680 L 770.233 810.195 L 771.213 809.686 L 772.180 809.154 L 773.135 808.598 L 774.075 808.018 L 775.001 807.416 L 775.911 806.791 L 776.806 806.144 L 777.685 805.476 L 778.548 804.785 L 779.393 804.074 L 780.220 803.343 L 781.029 802.591 L 781.820 801.820 L 782.591 801.029 L 783.343 800.220 L 784.074 799.393 L 784.785 798.548 L 785.476 797.685 L 786.144 796.806 L 786.791 795.911 L 787.416 795.001 L 788.018 794.075 L 788.598 793.135 L 789.154 792.180 L 789.686 791.213 L 790.195 790.233 L 790.680 789.240 L 791.139 788.236 L 791.575 787.221 L 791.985 786.195 L 792.369 785.160 L 792.729 784.116 L 793.062 783.063 L 793.370 782.002 L 793.651 780.934 L 793.907 779.860 L 794.135 778.779 L 794.337 777.693 L 794.513 776.603 L 794.662 775.508 L 794.783 774.411 L 794.878 773.310 L 794.946 772.208 L 794.986 771.104 L 795.000 770.000 L 795.000 360.000 L 794.986 358.896 L 794.946 357.792 L 794.878 356.690 L 794.783 355.589 L 794.662 354.492 L 794.513 353.397 L 794.337 352.307 L 794.135 351.221 L 793.907 350.140 L 793.651 349.066 L 793.370 347.998 L 793.062 346.937 L 792.729 345.884 L 792.369 344.840 L 791.985 343.805 L 791.575 342.779 L 791.139 341.764 L 790.680 340.760 L 790.195 339.767 L 789.686 338.787 L 789.154 337.820 L 788.598 336.865 L 788.018 335.925 L 787.416 334.999 L 786.791 334.089 L 786.144 333.194 L 785.476 332.315 L 784.785 331.452 L 784.074 330.607 L 783.343 329.780 L 782.591 328.971 L 781.820 328.180 L 781.029 327.409 L 780.220 326.657 L 779.393 325.926 L 778.548 325.215 L 777.685 324.524 L 776.806 323.856 L 775.911 323.209 L 775.001 322.584 L 774.075 321.982 L 773.135 321.402 L 772.180 320.846 L 771.213 320.314 L 770.233 319.805 L 769.240 319.320 L 768.236 318.861 L 767.221 318.425 L 766.195 318.015 L 765.160 317.631 L 764.116 317.271 L 763.063 316.938 L 762.002 316.630 L 760.934 316.349 L 759.860 316.093 L 758.779 315.865 L 757.693 315.663 L 756.603 315.487 L 755.508 315.338 L 754.411 315.217 L 753.310 315.122 L 752.208 315.054 L 751.104 315.014 L 750.000 315.000 L 748.896 315.014 L 747.792 315.054 L 746.690 315.122 L 745.589 315.217 L 744.492 315.338 L 743.397 315.487 L 742.307 315.663 L 741.221 315.865 L 740.140 316.093 L 739.066 316.349 L 737.998 316.630 L 736.937 316.938 L 735.884 317.271 L 734.840 317.631 L 733.805 318.015 L 732.779 318.425 L 731.764 318.861 L 730.760 319.320 L 729.767 319.805 L 728.787 320.314 L 727.820 320.846 L 726.865 321.402 L 725.925 321.982 L 724.999 322.584 L 724.089 323.209 L 723.194 323.856 L 722.315 324.524 L 721.452 325.215 L 720.607 325.926 L 719.780 326.657 L 718.971 327.409 L 718.180 328.180 L 717.409 328.971 L 716.657 329.780 L 715.926 330.607 L 715.215 331.452 L 714.524 332.315 L 713.856 333.194 L 713.209 334.089 L 712.584 334.999 L 711.982 335.925 L 711.402 336.865 L 710.846 337.820 L 710.314 338.787 L 709.805 339.767 L 709.320 340.760 L 708.861 341.764 L 708.425 342.779 L 708.015 343.805 L 707.631 344.840 L 707.271 345.884 L 706.938 346.937 L 706.630 347.998 L 706.349 349.066 L 706.093 350.140 L 705.865 351.221 L 705.663 352.307 L 705.487 353.397 L 705.338 354.492 L 705.217 355.589 L 705.122 356.690 L 705.054 357.792 L 705.014 358.896 L 705.000 360.000 L 705.000 725.000 L 495.000 725.000 L 495.000 360.000 L 494.986 358.896 L 494.946 357.792 L 494.878 356.690 L 494.783 355.589 L 494.662 354.492 L 494.513 353.397 L 494.337 352.307 L 494.135 351.221 L 493.907 350.140 L 493.651 349.066 L 493.370 347.998 L 493.062 346.937 L 492.729 345.884 L 492.369 344.840 L 491.985 343.805 L 491.575 342.779 L 491.139 341.764 L 490.680 340.760 L 490.195 339.767 L 489.686 338.787 L 489.154 337.820 L 488.598 336.865 L 488.018 335.925 L 487.416 334.999 L 486.791 334.089 L 486.144 333.194 L 485.476 332.315 L 484.785 331.452 L 484.074 330.607 L 483.343 329.780 L 482.591 328.971 L 481.820 328.180 L 481.029 327.409 L 480.220 326.657 L 479.393 325.926 L 478.548 325.215 L 477.685 324.524 L 476.806 323.856 L 475.911 323.209 L 475.001 322.584 L 474.075 321.982 L 473.135 321.402 L 472.180 320.846 L 471.213 320.314 L 470.233 319.805 L 469.240 319.320 L 468.236 318.861 L 467.221 318.425 L 466.195 318.015 L 465.160 317.631 L 464.116 317.271 L 463.063 316.938 L 462.002 316.630 L 460.934 316.349 L 459.860 316.093 L 458.779 315.865 L 457.693 315.663 L 456.603 315.487 L 455.508 315.338 L 454.411 315.217 L 453.310 315.122 L 452.208 315.054 L 451.104 315.014 L 450.000 315.000 L 448.896 315.014 L 447.792 315.054 L 446.690 315.122 L 445.589 315.217 L 444.492 315.338 L 443.397 315.487 L 442.307 315.663 L 441.221 315.865 L 440.140 316.093 L 439.066 316.349 L 437.998 316.630 L 436.937 316.938 L 435.884 317.271 L 434.840 317.631 L 433.805 318.015 L 432.779 318.425 L 431.764 318.861 L 430.760 319.320 L 429.767 319.805 L 428.787 320.314 L 427.820 320.846 L 426.865 321.402 L 425.925 321.982 L 424.999 322.584 L 424.089 323.209 L 423.194 323.856 L 422.315 324.524 L 421.452 325.215 L 420.607 325.926 L 419.780 326.657 L 418.971 327.409 L 418.180 328.180 L 417.409 328.971 L 416.657 329.780 L 415.926 330.607 L 415.215 331.452 L 414.524 332.315 L 413.856 333.194 L 413.209 334.089 L 412.584 334.999 L 411.982 335.925 L 411.402 336.865 L 410.846 337.820 L 410.314 338.787 L 409.805 339.767 L 409.320 340.760 L 408.861 341.764 L 408.425 342.779 L 408.015 343.805 L 407.631 344.840 L 407.271 345.884 L 406.938 346.937 L 406.630 347.998 L 406.349 349.066 L 406.093 350.140 L 405.865 351.221 L 405.663 352.307 L 405.487 353.397 L 405.338 354.492 L 405.217 355.589 L 405.122 356.690 L 405.054 357.792 L 405.014 358.896 L 405.000 360.000 L 405.000 725.000 L 195.000 725.000 L 195.000 360.000 L 194.986 358.896 L 194.946 357.792 L 194.878 356.690 L 194.783 355.589 L 194.662 354.492 L 194.513 353.397 L 194.337 352.307 L 194.135 351.221 L 193.907 350.140 L 193.651 349.066 L 193.370 347.998 L 193.062 346.937 L 192.729 345.884 L 192.369 344.840 L 191.985 343.805 L 191.575 342.779 L 191.139 341.764 L 190.680 340.760 L 190.195 339.767 L 189.686 338.787 L 189.154 337.820 L 188.598 336.865 L 188.018 335.925 L 187.416 334.999 L 186.791 334.089 L 186.144 333.194 L 185.476 332.315 L 184.785 331.452 L 184.074 330.607 L 183.343 329.780 L 182.591 328.971 L 181.820 328.180 L 181.029 327.409 L 180.220 326.657 L 179.393 325.926 L 178.548 325.215 L 177.685 324.524 L 176.806 323.856 L 175.911 323.209 L 175.001 322.584 L 174.075 321.982 L 173.135 321.402 L 172.180 320.846 L 171.213 320.314 L 170.233 319.805 L 169.240 319.320 L 168.236 318.861 L 167.221 318.425 L 166.195 318.015 L 165.160 317.631 L 164.116 317.271 L 163.063 316.938 L 162.002 316.630 L 160.934 316.349 L 159.860 316.093 L 158.779 315.865 L 157.693 315.663 L 156.603 315.487 L 155.508 315.338 L 154.411 315.217 L 153.310 315.122 L 152.208 315.054 L 151.104 315.014 L 150.000 315.000 L 148.896 315.014 L 147.792 315.054 L 146.690 315.122 L 145.589 315.217 L 144.492 315.338 L 143.397 315.487 L 142.307 315.663 L 141.221 315.865 L 140.140 316.093 L 139.066 316.349 L 137.998 316.630 L 136.937 316.938 L 135.884 317.271 L 134.840 317.631 L 133.805 318.015 L 132.779 318.425 L 131.764 318.861 L 130.760 319.320 L 129.767 319.805 L 128.787 320.314 L 127.820 320.846 L 126.865 321.402 L 125.925 321.982 L 124.999 322.584 L 124.089 323.209 L 123.194 323.856 L 122.315 324.524 L 121.452 325.215 L 120.607 325.926 L 119.780 326.657 L 118.971 327.409 L 118.180 328.180 L 117.409 328.971 L 116.657 329.780 L 115.926 330.607 L 115.215 331.452 L 114.524 332.315 L 113.856 333.194 L 113.209 334.089 L 112.584 334.999 L 111.982 335.925 L 111.402 336.865 L 110.846 337.820 L 110.314 338.787 L 109.805 339.767 L 109.320 340.760 L 108.861 341.764 L 108.425 342.779 L 108.015 343.805 L 107.631 344.840 L 107.271 345.884 L 106.938 346.937 L 106.630 347.998 L 106.349 349.066 L 106.093 350.140 L 105.865 351.221 L 105.663 352.307 L 105.487 353.397 L 105.338 354.492 L 105.217 355.589 L 105.122 356.690 L 105.054 357.792 L 105.014 358.896 L 105.000 360.000 L 105.000 770.000 L 105.014 771.104 Z" fill="black" fill-rule="evenodd"/>
</svg>
