<svg xmlns="http://www.w3.org/2000/svg" viewBox="0 0 600.000 1000">
  <path d="M 484.785 433.548 L 485.120 433.130 L 485.455 432.712 L 485.465 432.698 L 485.476 432.685 L 485.800 432.259 L 486.124 431.833 L 486.134 431.820 L 486.144 431.806 L 486.458 431.372 L 486.772 430.939 L 486.782 430.925 L 486.791 430.911 L 487.094 430.470 L 487.398 430.028 L 487.407 430.014 L 487.416 430.001 L 487.708 429.552 L 488.001 429.103 L 488.009 429.089 L 488.018 429.075 L 488.299 428.619 L 488.581 428.163 L 488.589 428.149 L 488.598 428.135 L 488.867 427.672 L 489.137 427.209 L 489.146 427.195 L 489.154 427.180 L 489.412 426.711 L 489.671 426.242 L 489.678 426.227 L 489.686 426.213 L 489.933 425.737 L 490.180 425.262 L 490.187 425.247 L 490.195 425.233 L 490.430 424.751 L 490.665 424.270 L 490.672 424.255 L 490.680 424.240 L 490.903 423.753 L 491.126 423.266 L 491.133 423.251 L 491.139 423.236 L 491.350 422.744 L 491.562 422.252 L 491.568 422.236 L 491.575 422.221 L 491.773 421.723 L 491.973 421.226 L 491.978 421.211 L 491.985 421.195 L 492.171 420.693 L 492.358 420.191 L 492.364 420.176 L 492.369 420.160 L 492.544 419.654 L 492.718 419.147 L 492.723 419.131 L 492.729 419.116 L 492.891 418.605 L 493.053 418.095 L 493.057 418.079 L 493.062 418.063 L 493.211 417.548 L 493.361 417.034 L 493.365 417.018 L 493.370 417.002 L 493.506 416.484 L 493.643 415.966 L 493.647 415.950 L 493.651 415.934 L 493.775 415.413 L 493.899 414.892 L 493.903 414.876 L 493.907 414.860 L 494.018 414.336 L 494.129 413.812 L 494.132 413.795 L 494.135 413.779 L 494.233 413.253 L 494.332 412.726 L 494.334 412.710 L 494.337 412.693 L 494.423 412.165 L 494.508 411.636 L 494.510 411.619 L 494.513 411.603 L 494.585 411.072 L 494.657 410.542 L 494.659 410.525 L 494.662 410.508 L 494.721 409.976 L 494.780 409.444 L 494.781 409.427 L 494.783 409.411 L 494.829 408.877 L 494.876 408.344 L 494.877 408.327 L 494.878 408.310 L 494.911 407.776 L 494.944 407.241 L 494.945 407.225 L 494.946 407.208 L 494.966 406.673 L 494.986 406.138 L 494.986 406.121 L 494.986 406.104 L 494.993 405.569 L 495.000 405.033 L 495.000 405.017 L 495.000 405.000 L 494.993 404.464 L 494.987 403.929 L 494.987 403.912 L 494.986 403.896 L 494.967 403.360 L 494.947 402.825 L 494.946 402.809 L 494.946 402.792 L 494.913 402.257 L 494.881 401.723 L 494.879 401.706 L 494.878 401.690 L 494.832 401.156 L 494.787 400.622 L 494.785 400.606 L 494.783 400.589 L 494.724 400.057 L 494.666 399.525 L 494.663 399.508 L 494.662 399.492 L 494.590 398.961 L 494.518 398.430 L 494.515 398.414 L 494.513 398.397 L 494.428 397.868 L 494.343 397.340 L 494.340 397.323 L 494.337 397.307 L 494.239 396.780 L 494.142 396.254 L 494.138 396.237 L 494.135 396.221 L 494.024 395.697 L 493.914 395.173 L 493.910 395.157 L 493.907 395.140 L 493.783 394.619 L 493.659 394.098 L 493.655 394.082 L 493.651 394.066 L 493.515 393.548 L 493.379 393.030 L 493.374 393.014 L 493.370 392.998 L 493.221 392.484 L 493.072 391.969 L 493.067 391.953 L 493.062 391.937 L 492.901 391.427 L 492.739 390.916 L 492.734 390.900 L 492.729 390.884 L 492.555 390.378 L 492.381 389.871 L 492.375 389.856 L 492.369 389.840 L 492.183 389.338 L 491.997 388.836 L 491.990 388.820 L 491.985 388.805 L 491.786 388.307 L 491.587 387.810 L 491.581 387.795 L 491.575 387.779 L 491.364 387.287 L 491.153 386.795 L 491.146 386.779 L 491.139 386.764 L 490.916 386.277 L 490.694 385.790 L 490.686 385.775 L 490.680 385.760 L 490.445 385.279 L 490.210 384.797 L 490.202 384.782 L 490.195 384.767 L 489.948 384.292 L 489.702 383.817 L 489.694 383.802 L 489.686 383.787 L 489.428 383.318 L 489.170 382.849 L 489.162 382.834 L 489.154 382.820 L 488.884 382.357 L 488.615 381.894 L 488.606 381.880 L 488.598 381.865 L 488.317 381.409 L 488.036 380.953 L 488.027 380.939 L 488.018 380.925 L 487.726 380.476 L 487.435 380.027 L 487.425 380.013 L 487.416 379.999 L 487.113 379.558 L 486.810 379.116 L 486.801 379.102 L 486.791 379.089 L 486.478 378.655 L 486.164 378.220 L 486.154 378.207 L 486.144 378.194 L 485.820 377.767 L 485.496 377.341 L 485.486 377.328 L 485.476 377.315 L 485.141 376.896 L 484.807 376.478 L 484.796 376.465 L 484.785 376.452 L 484.441 376.042 L 484.096 375.632 L 484.085 375.620 L 484.074 375.607 L 483.720 375.206 L 483.365 374.805 L 483.354 374.792 L 483.343 374.780 L 482.978 374.387 L 482.614 373.995 L 482.602 373.983 L 482.591 373.971 L 482.217 373.587 L 481.843 373.204 L 481.831 373.192 L 481.820 373.180 L 481.436 372.806 L 481.053 372.432 L 481.041 372.421 L 481.029 372.409 L 480.637 372.044 L 480.245 371.680 L 480.232 371.669 L 480.220 371.657 L 479.819 371.302 L 479.418 370.947 L 479.405 370.937 L 479.393 370.926 L 478.983 370.581 L 478.573 370.236 L 478.560 370.225 L 478.548 370.215 L 478.130 369.880 L 477.712 369.545 L 477.698 369.535 L 477.685 369.524 L 477.259 369.200 L 476.833 368.876 L 476.820 368.866 L 476.806 368.856 L 476.372 368.542 L 475.939 368.228 L 475.925 368.218 L 475.911 368.209 L 475.470 367.906 L 475.028 367.602 L 475.014 367.593 L 475.001 367.584 L 474.552 367.292 L 474.103 366.999 L 474.089 366.991 L 474.075 366.982 L 473.619 366.701 L 473.163 366.419 L 473.149 366.411 L 473.135 366.402 L 472.672 366.133 L 472.209 365.863 L 472.195 365.854 L 472.180 365.846 L 471.711 365.588 L 471.242 365.329 L 471.227 365.322 L 471.213 365.314 L 470.737 365.067 L 470.262 364.820 L 470.247 364.813 L 470.233 364.805 L 469.751 364.570 L 469.270 364.335 L 469.255 364.328 L 469.240 364.320 L 468.753 364.097 L 468.266 363.874 L 468.251 363.867 L 468.236 363.861 L 467.744 363.650 L 467.252 363.438 L 467.236 363.432 L 467.221 363.425 L 466.723 363.227 L 466.226 363.027 L 466.211 363.022 L 466.195 363.015 L 465.693 362.829 L 465.191 362.642 L 465.176 362.636 L 465.160 362.631 L 464.654 362.456 L 464.147 362.282 L 464.131 362.277 L 464.116 362.271 L 463.605 362.109 L 463.095 361.947 L 463.079 361.943 L 463.063 361.938 L 462.548 361.789 L 462.034 361.639 L 462.018 361.635 L 462.002 361.630 L 461.484 361.494 L 460.966 361.357 L 460.950 361.353 L 460.934 361.349 L 460.413 361.225 L 459.892 361.101 L 459.876 361.097 L 459.860 361.093 L 459.336 360.982 L 458.812 360.871 L 458.795 360.868 L 458.779 360.865 L 458.253 360.767 L 457.726 360.668 L 457.710 360.666 L 457.693 360.663 L 457.165 360.577 L 456.636 360.492 L 456.619 360.490 L 456.603 360.487 L 456.072 360.415 L 455.542 360.343 L 455.525 360.341 L 455.508 360.338 L 454.976 360.279 L 454.444 360.220 L 454.427 360.219 L 454.411 360.217 L 453.877 360.171 L 453.344 360.124 L 453.327 360.123 L 453.310 360.122 L 452.776 360.089 L 452.241 360.056 L 452.225 360.055 L 452.208 360.054 L 451.673 360.034 L 451.138 360.014 L 451.121 360.014 L 451.104 360.014 L 450.569 360.007 L 450.033 360.000 L 450.017 360.000 L 450.000 360.000 L 150.000 360.000 L 148.896 360.014 L 147.792 360.054 L 146.690 360.122 L 145.589 360.217 L 144.492 360.338 L 143.397 360.487 L 142.307 360.663 L 141.221 360.865 L 140.140 361.093 L 139.066 361.349 L 137.998 361.630 L 136.937 361.938 L 135.884 362.271 L 134.840 362.631 L 133.805 363.015 L 132.779 363.425 L 131.764 363.861 L 130.760 364.320 L 129.767 364.805 L 128.787 365.314 L 127.820 365.846 L 126.865 366.402 L 125.925 366.982 L 124.999 367.584 L 124.089 368.209 L 123.194 368.856 L 122.315 369.524 L 121.452 370.215 L 120.607 370.926 L 119.780 371.657 L 118.971 372.409 L 118.180 373.180 L 117.409 373.971 L 116.657 374.780 L 115.926 375.607 L 115.215 376.452 L 114.524 377.315 L 113.856 378.194 L 113.209 379.089 L 112.584 379.999 L 111.982 380.925 L 111.402 381.865 L 110.846 382.820 L 110.314 383.787 L 109.805 384.767 L 109.320 385.760 L 108.861 386.764 L 108.425 387.779 L 108.015 388.805 L 107.631 389.840 L 107.271 390.884 L 106.938 391.937 L 106.630 392.998 L 106.349 394.066 L 106.093 395.140 L 105.865 396.221 L 105.663 397.307 L 105.487 398.397 L 105.338 399.492 L 105.217 400.589 L 105.122 401.690 L 105.054 402.792 L 105.014 403.896 L 105.000 405.000 L 105.014 406.104 L 105.054 407.208 L 105.122 408.310 L 105.217 409.411 L 105.338 410.508 L 105.487 411.603 L 105.663 412.693 L 105.865 413.779 L 106.093 414.860 L 106.349 415.934 L 106.630 417.002 L 106.938 418.063 L 107.271 419.116 L 107.631 420.160 L 108.015 421.195 L 108.425 422.221 L 108.861 423.236 L 109.320 424.240 L 109.805 425.233 L 110.314 426.213 L 110.846 427.180 L 111.402 428.135 L 111.982 429.075 L 112.584 430.001 L 113.209 430.911 L 113.856 431.806 L 114.524 432.685 L 115.215 433.548 L 115.926 434.393 L 116.657 435.220 L 117.409 436.029 L 118.180 436.820 L 118.971 437.591 L 119.780 438.343 L 120.607 439.074 L 121.452 439.785 L 122.315 440.476 L 123.194 441.144 L 124.089 441.791 L 124.999 442.416 L 125.925 443.018 L 126.865 443.598 L 127.820 444.154 L 128.787 444.686 L 129.767 445.195 L 130.760 445.680 L 131.764 446.139 L 132.779 446.575 L 133.805 446.985 L 134.840 447.369 L 135.884 447.729 L 136.937 448.062 L 137.998 448.370 L 139.066 448.651 L 140.140 448.907 L 141.221 449.135 L 142.307 449.337 L 143.397 449.513 L 144.492 449.662 L 145.589 449.783 L 146.690 449.878 L 147.792 449.946 L 148.896 449.986 L 150.000 450.000 L 354.764 450.000 L 115.236 741.427 L 115.225 741.440 L 115.215 741.452 L 114.880 741.870 L 114.545 742.288 L 114.535 742.302 L 114.524 742.315 L 114.200 742.741 L 113.876 743.167 L 113.866 743.180 L 113.856 743.194 L 113.542 743.628 L 113.228 744.061 L 113.218 744.075 L 113.209 744.089 L 112.906 744.530 L 112.602 744.972 L 112.593 744.986 L 112.584 744.999 L 112.292 745.448 L 111.999 745.897 L 111.991 745.911 L 111.982 745.925 L 111.701 746.381 L 111.419 746.837 L 111.411 746.851 L 111.402 746.865 L 111.133 747.328 L 110.863 747.791 L 110.854 747.805 L 110.846 747.820 L 110.588 748.289 L 110.329 748.758 L 110.322 748.773 L 110.314 748.787 L 110.067 749.263 L 109.820 749.738 L 109.813 749.753 L 109.805 749.767 L 109.570 750.249 L 109.335 750.730 L 109.328 750.745 L 109.320 750.760 L 109.097 751.247 L 108.874 751.734 L 108.867 751.749 L 108.861 751.764 L 108.650 752.256 L 108.438 752.748 L 108.432 752.764 L 108.425 752.779 L 108.227 753.277 L 108.027 753.774 L 108.022 753.789 L 108.015 753.805 L 107.829 754.307 L 107.642 754.809 L 107.636 754.824 L 107.631 754.840 L 107.456 755.346 L 107.282 755.853 L 107.277 755.869 L 107.271 755.884 L 107.109 756.395 L 106.947 756.905 L 106.943 756.921 L 106.938 756.937 L 106.789 757.452 L 106.639 757.966 L 106.635 757.982 L 106.630 757.998 L 106.494 758.516 L 106.357 759.034 L 106.353 759.050 L 106.349 759.066 L 106.225 759.587 L 106.101 760.108 L 106.097 760.124 L 106.093 760.140 L 105.982 760.664 L 105.871 761.188 L 105.868 761.205 L 105.865 761.221 L 105.767 761.747 L 105.668 762.274 L 105.666 762.290 L 105.663 762.307 L 105.577 762.835 L 105.492 763.364 L 105.490 763.381 L 105.487 763.397 L 105.415 763.928 L 105.343 764.458 L 105.341 764.475 L 105.338 764.492 L 105.279 765.024 L 105.220 765.556 L 105.219 765.573 L 105.217 765.589 L 105.171 766.123 L 105.124 766.656 L 105.123 766.673 L 105.122 766.690 L 105.089 767.224 L 105.056 767.759 L 105.055 767.775 L 105.054 767.792 L 105.034 768.327 L 105.014 768.862 L 105.014 768.879 L 105.014 768.896 L 105.007 769.431 L 105.000 769.967 L 105.000 769.983 L 105.000 770.000 L 105.007 770.536 L 105.013 771.071 L 105.013 771.088 L 105.014 771.104 L 105.033 771.640 L 105.053 772.175 L 105.054 772.191 L 105.054 772.208 L 105.087 772.743 L 105.119 773.277 L 105.121 773.294 L 105.122 773.310 L 105.168 773.844 L 105.213 774.378 L 105.215 774.394 L 105.217 774.411 L 105.276 774.943 L 105.334 775.475 L 105.337 775.492 L 105.338 775.508 L 105.410 776.039 L 105.482 776.570 L 105.485 776.586 L 105.487 776.603 L 105.572 777.132 L 105.657 777.660 L 105.660 777.677 L 105.663 777.693 L 105.761 778.220 L 105.858 778.746 L 105.862 778.763 L 105.865 778.779 L 105.976 779.303 L 106.086 779.827 L 106.090 779.843 L 106.093 779.860 L 106.217 780.381 L 106.341 780.902 L 106.345 780.918 L 106.349 780.934 L 106.485 781.452 L 106.621 781.970 L 106.626 781.986 L 106.630 782.002 L 106.779 782.516 L 106.928 783.031 L 106.933 783.047 L 106.938 783.063 L 107.099 783.573 L 107.261 784.084 L 107.266 784.100 L 107.271 784.116 L 107.445 784.622 L 107.619 785.129 L 107.625 785.144 L 107.631 785.160 L 107.817 785.662 L 108.003 786.164 L 108.010 786.180 L 108.015 786.195 L 108.214 786.693 L 108.413 787.190 L 108.419 787.205 L 108.425 787.221 L 108.636 787.713 L 108.847 788.205 L 108.854 788.221 L 108.861 788.236 L 109.084 788.723 L 109.306 789.210 L 109.314 789.225 L 109.320 789.240 L 109.555 789.721 L 109.790 790.203 L 109.798 790.218 L 109.805 790.233 L 110.052 790.708 L 110.298 791.183 L 110.306 791.198 L 110.314 791.213 L 110.572 791.682 L 110.830 792.151 L 110.838 792.166 L 110.846 792.180 L 111.116 792.643 L 111.385 793.106 L 111.394 793.120 L 111.402 793.135 L 111.683 793.591 L 111.964 794.047 L 111.973 794.061 L 111.982 794.075 L 112.274 794.524 L 112.565 794.973 L 112.575 794.987 L 112.584 795.001 L 112.887 795.442 L 113.190 795.884 L 113.199 795.898 L 113.209 795.911 L 113.522 796.345 L 113.836 796.780 L 113.846 796.793 L 113.856 796.806 L 114.180 797.233 L 114.504 797.659 L 114.514 797.672 L 114.524 797.685 L 114.859 798.104 L 115.193 798.522 L 115.204 798.535 L 115.215 798.548 L 115.559 798.958 L 115.904 799.368 L 115.915 799.380 L 115.926 799.393 L 116.280 799.794 L 116.635 800.195 L 116.646 800.208 L 116.657 800.220 L 117.022 800.613 L 117.386 801.005 L 117.398 801.017 L 117.409 801.029 L 117.783 801.413 L 118.157 801.796 L 118.169 801.808 L 118.180 801.820 L 118.564 802.194 L 118.947 802.568 L 118.959 802.579 L 118.971 802.591 L 119.363 802.956 L 119.755 803.320 L 119.768 803.331 L 119.780 803.343 L 120.181 803.698 L 120.582 804.053 L 120.595 804.063 L 120.607 804.074 L 121.017 804.419 L 121.427 804.764 L 121.440 804.775 L 121.452 804.785 L 121.870 805.120 L 122.288 805.455 L 122.302 805.465 L 122.315 805.476 L 122.741 805.800 L 123.167 806.124 L 123.180 806.134 L 123.194 806.144 L 123.628 806.458 L 124.061 806.772 L 124.075 806.782 L 124.089 806.791 L 124.530 807.094 L 124.972 807.398 L 124.986 807.407 L 124.999 807.416 L 125.448 807.708 L 125.897 808.001 L 125.911 808.009 L 125.925 808.018 L 126.381 808.299 L 126.837 808.581 L 126.851 808.589 L 126.865 808.598 L 127.328 808.867 L 127.791 809.137 L 127.805 809.146 L 127.820 809.154 L 128.289 809.412 L 128.758 809.671 L 128.773 809.678 L 128.787 809.686 L 129.263 809.933 L 129.738 810.180 L 129.753 810.187 L 129.767 810.195 L 130.249 810.430 L 130.730 810.665 L 130.745 810.672 L 130.760 810.680 L 131.247 810.903 L 131.734 811.126 L 131.749 811.133 L 131.764 811.139 L 132.256 811.350 L 132.748 811.562 L 132.764 811.568 L 132.779 811.575 L 133.277 811.773 L 133.774 811.973 L 133.789 811.978 L 133.805 811.985 L 134.307 812.171 L 134.809 812.358 L 134.824 812.364 L 134.840 812.369 L 135.346 812.544 L 135.853 812.718 L 135.869 812.723 L 135.884 812.729 L 136.395 812.891 L 136.905 813.053 L 136.921 813.057 L 136.937 813.062 L 137.452 813.211 L 137.966 813.361 L 137.982 813.365 L 137.998 813.370 L 138.516 813.506 L 139.034 813.643 L 139.050 813.647 L 139.066 813.651 L 139.587 813.775 L 140.108 813.899 L 140.124 813.903 L 140.140 813.907 L 140.664 814.018 L 141.188 814.129 L 141.205 814.132 L 141.221 814.135 L 141.747 814.233 L 142.274 814.332 L 142.290 814.334 L 142.307 814.337 L 142.835 814.423 L 143.364 814.508 L 143.381 814.510 L 143.397 814.513 L 143.928 814.585 L 144.458 814.657 L 144.475 814.659 L 144.492 814.662 L 145.024 814.721 L 145.556 814.780 L 145.573 814.781 L 145.589 814.783 L 146.123 814.829 L 146.656 814.876 L 146.673 814.877 L 146.690 814.878 L 147.224 814.911 L 147.759 814.944 L 147.775 814.945 L 147.792 814.946 L 148.327 814.966 L 148.862 814.986 L 148.879 814.986 L 148.896 814.986 L 149.431 814.993 L 149.967 815.000 L 149.983 815.000 L 150.000 815.000 L 450.000 815.000 L 451.104 814.986 L 452.208 814.946 L 453.310 814.878 L 454.411 814.783 L 455.508 814.662 L 456.603 814.513 L 457.693 814.337 L 458.779 814.135 L 459.860 813.907 L 460.934 813.651 L 462.002 813.370 L 463.063 813.062 L 464.116 812.729 L 465.160 812.369 L 466.195 811.985 L 467.221 811.575 L 468.236 811.139 L 469.240 810.680 L 470.233 810.195 L 471.213 809.686 L 472.180 809.154 L 473.135 808.598 L 474.075 808.018 L 475.001 807.416 L 475.911 806.791 L 476.806 806.144 L 477.685 805.476 L 478.548 804.785 L 479.393 804.074 L 480.220 803.343 L 481.029 802.591 L 481.820 801.820 L 482.591 801.029 L 483.343 800.220 L 484.074 799.393 L 484.785 798.548 L 485.476 797.685 L 486.144 796.806 L 486.791 795.911 L 487.416 795.001 L 488.018 794.075 L 488.598 793.135 L 489.154 792.180 L 489.686 791.213 L 490.195 790.233 L 490.680 789.240 L 491.139 788.236 L 491.575 787.221 L 491.985 786.195 L 492.369 785.160 L 492.729 784.116 L 493.062 783.063 L 493.370 782.002 L 493.651 780.934 L 493.907 779.860 L 494.135 778.779 L 494.337 777.693 L 494.513 776.603 L 494.662 775.508 L 494.783 774.411 L 494.878 773.310 L 494.946 772.208 L 494.986 771.104 L 495.000 770.000 L 494.986 768.896 L 494.946 767.792 L 494.878 766.690 L 494.783 765.589 L 494.662 764.492 L 494.513 763.397 L 494.337 762.307 L 494.135 761.221 L 493.907 760.140 L 493.651 759.066 L 493.370 757.998 L 493.062 756.937 L 492.729 755.884 L 492.369 754.840 L 491.985 753.805 L 491.575 752.779 L 491.139 751.764 L 490.680 750.760 L 490.195 749.767 L 489.686 748.787 L 489.154 747.820 L 488.598 746.865 L 488.018 745.925 L 487.416 744.999 L 486.791 744.089 L 486.144 743.194 L 485.476 742.315 L 484.785 741.452 L 484.074 740.607 L 483.343 739.780 L 482.591 738.971 L 481.820 738.180 L 481.029 737.409 L 480.220 736.657 L 479.393 735.926 L 478.548 735.215 L 477.685 734.524 L 476.806 733.856 L 475.911 733.209 L 475.001 732.584 L 474.075 731.982 L 473.135 731.402 L 472.180 730.846 L 471.213 730.314 L 470.233 729.805 L 469.240 729.320 L 468.236 728.861 L 467.221 728.425 L 466.195 728.015 L 465.160 727.631 L 464.116 727.271 L 463.063 726.938 L 462.002 726.630 L 460.934 726.349 L 459.860 726.093 L 458.779 725.865 L 457.693 725.663 L 456.603 725.487 L 455.508 725.338 L 454.411 725.217 L 453.310 725.122 L 452.208 725.054 L 451.104 725.014 L 450.000 725.000 L 245.236 725.000 L 484.764 433.573 L 484.775 433.560 L 484.785 433.548 Z" fill="black" fill-rule="evenodd"/>
</svg>
