<svg xmlns="http://www.w3.org/2000/svg" viewBox="0 0 600.000 1000">
  <path d="M 327.665 385.054 L 329.298 385.120 L 330.930 385.212 L 332.562 385.331 L 334.193 385.475 L 335.824 385.647 L 337.454 385.844 L 339.084 386.069 L 340.712 386.319 L 342.339 386.597 L 343.966 386.900 L 345.591 387.231 L 347.214 387.588 L 348.836 387.972 L 350.457 388.382 L 352.075 388.820 L 353.692 389.284 L 355.306 389.775 L 356.919 390.293 L 358.528 390.838 L 360.135 391.411 L 361.740 392.010 L 363.341 392.637 L 364.938 393.290 L 366.533 393.971 L 368.123 394.680 L 369.710 395.415 L 371.293 396.178 L 372.871 396.969 L 374.444 397.787 L 376.013 398.632 L 377.576 399.505 L 379.134 400.405 L 380.686 401.332 L 382.232 402.288 L 383.771 403.270 L 385.304 404.280 L 386.831 405.317 L 388.349 406.382 L 389.861 407.473 L 391.364 408.592 L 392.860 409.739 L 394.346 410.912 L 395.824 412.112 L 397.293 413.340 L 398.753 414.594 L 400.202 415.874 L 401.641 417.182 L 403.070 418.516 L 404.488 419.876 L 405.895 421.262 L 407.290 422.675 L 408.673 424.113 L 410.045 425.577 L 411.403 427.066 L 412.749 428.581 L 414.081 430.121 L 415.400 431.686 L 416.705 433.276 L 417.995 434.890 L 419.271 436.528 L 420.532 438.191 L 421.778 439.877 L 423.008 441.586 L 424.222 443.319 L 425.420 445.075 L 426.601 446.853 L 427.765 448.654 L 428.912 450.477 L 430.042 452.321 L 431.153 454.187 L 432.247 456.074 L 433.322 457.982 L 434.378 459.910 L 435.415 461.859 L 436.433 463.827 L 437.431 465.814 L 438.410 467.821 L 439.368 469.846 L 440.306 471.889 L 441.223 473.950 L 442.119 476.029 L 442.994 478.124 L 443.848 480.236 L 444.679 482.365 L 445.489 484.509 L 446.277 486.669 L 447.043 488.844 L 447.786 491.033 L 448.506 493.237 L 449.203 495.454 L 449.877 497.684 L 450.528 499.927 L 451.155 502.183 L 451.758 504.450 L 452.338 506.729 L 452.894 509.019 L 453.425 511.319 L 453.932 513.630 L 454.415 515.950 L 454.872 518.279 L 455.306 520.617 L 455.714 522.962 L 456.097 525.316 L 456.456 527.677 L 456.789 530.044 L 457.097 532.418 L 457.379 534.797 L 457.636 537.181 L 457.868 539.571 L 458.074 541.964 L 458.254 544.361 L 458.409 546.762 L 458.538 549.165 L 458.641 551.570 L 458.719 553.978 L 458.770 556.386 L 458.796 558.795 L 458.796 561.205 L 458.770 563.614 L 458.719 566.022 L 458.641 568.430 L 458.538 570.835 L 458.409 573.238 L 458.254 575.639 L 458.074 578.036 L 457.868 580.429 L 457.636 582.819 L 457.379 585.203 L 457.097 587.582 L 456.789 589.956 L 456.456 592.323 L 456.097 594.684 L 455.714 597.038 L 455.306 599.383 L 454.872 601.721 L 454.415 604.050 L 453.932 606.370 L 453.425 608.681 L 452.894 610.981 L 452.338 613.271 L 451.758 615.550 L 451.155 617.817 L 450.528 620.073 L 449.877 622.316 L 449.203 624.546 L 448.506 626.763 L 447.786 628.967 L 447.043 631.156 L 446.277 633.331 L 445.489 635.491 L 444.679 637.635 L 443.848 639.764 L 442.994 641.876 L 442.119 643.971 L 441.223 646.050 L 440.306 648.111 L 439.368 650.154 L 438.410 652.179 L 437.431 654.186 L 436.433 656.173 L 435.415 658.141 L 434.378 660.090 L 433.322 662.018 L 432.247 663.926 L 431.153 665.813 L 430.042 667.679 L 428.912 669.523 L 427.765 671.346 L 426.601 673.147 L 425.420 674.925 L 424.222 676.681 L 423.008 678.414 L 421.778 680.123 L 420.532 681.809 L 419.271 683.472 L 417.995 685.110 L 416.705 686.724 L 415.400 688.314 L 414.081 689.879 L 412.749 691.419 L 411.403 692.934 L 410.045 694.423 L 408.673 695.887 L 407.290 697.325 L 405.895 698.738 L 404.488 700.124 L 403.070 701.484 L 401.641 702.818 L 400.202 704.126 L 398.753 705.406 L 397.293 706.660 L 395.824 707.888 L 394.346 709.088 L 392.860 710.261 L 391.364 711.408 L 389.861 712.527 L 388.349 713.618 L 386.831 714.683 L 385.304 715.720 L 383.771 716.730 L 382.232 717.712 L 380.686 718.668 L 379.134 719.595 L 377.576 720.495 L 376.013 721.368 L 374.444 722.213 L 372.871 723.031 L 371.293 723.822 L 369.710 724.585 L 368.123 725.320 L 366.533 726.029 L 364.938 726.710 L 363.341 727.363 L 361.740 727.990 L 360.135 728.589 L 358.528 729.162 L 356.919 729.707 L 355.306 730.225 L 353.692 730.716 L 352.075 731.180 L 350.457 731.618 L 348.836 732.028 L 347.214 732.412 L 345.591 732.769 L 343.966 733.100 L 342.339 733.403 L 340.712 733.681 L 339.084 733.931 L 337.454 734.156 L 335.824 734.353 L 334.193 734.525 L 332.562 734.669 L 330.930 734.788 L 329.298 734.880 L 327.665 734.946 L 326.033 734.985 L 324.037 735.001 L 322.933 735.024 L 321.830 735.073 L 320.728 735.150 L 319.628 735.254 L 318.532 735.384 L 317.439 735.542 L 316.350 735.726 L 315.266 735.937 L 314.187 736.174 L 313.114 736.438 L 312.049 736.728 L 310.991 737.044 L 309.940 737.386 L 308.899 737.754 L 307.867 738.147 L 306.845 738.566 L 305.833 739.009 L 304.833 739.477 L 303.844 739.969 L 302.868 740.486 L 301.905 741.026 L 300.955 741.590 L 300.019 742.177 L 299.099 742.787 L 298.193 743.419 L 297.303 744.073 L 296.430 744.749 L 295.573 745.446 L 294.734 746.164 L 293.912 746.902 L 293.109 747.660 L 292.325 748.438 L 291.560 749.234 L 290.815 750.050 L 290.090 750.883 L 289.386 751.734 L 288.702 752.601 L 288.041 753.486 L 287.401 754.386 L 286.784 755.302 L 286.189 756.232 L 285.617 757.177 L 285.069 758.136 L 284.544 759.108 L 284.043 760.092 L 283.567 761.089 L 283.115 762.096 L 282.688 763.115 L 282.286 764.144 L 281.910 765.182 L 281.559 766.229 L 281.234 767.285 L 280.935 768.348 L 280.662 769.418 L 280.415 770.495 L 280.195 771.577 L 280.002 772.664 L 279.835 773.756 L 279.695 774.852 L 279.583 775.950 L 279.497 777.051 L 279.438 778.154 L 279.406 779.258 L 279.401 780.363 L 279.424 781.467 L 279.473 782.570 L 279.550 783.672 L 279.654 784.772 L 279.784 785.868 L 279.942 786.961 L 280.126 788.050 L 280.337 789.134 L 280.574 790.213 L 280.838 791.286 L 281.128 792.351 L 281.444 793.409 L 281.786 794.460 L 282.154 795.501 L 282.547 796.533 L 282.966 797.555 L 283.409 798.567 L 283.877 799.567 L 284.369 800.556 L 284.886 801.532 L 285.426 802.495 L 285.990 803.445 L 286.577 804.381 L 287.187 805.301 L 287.819 806.207 L 288.473 807.097 L 289.149 807.970 L 289.846 808.827 L 290.564 809.666 L 291.302 810.488 L 292.060 811.291 L 292.838 812.075 L 293.634 812.840 L 294.450 813.585 L 295.283 814.310 L 296.134 815.014 L 297.001 815.698 L 297.886 816.359 L 298.786 816.999 L 299.702 817.616 L 300.632 818.211 L 301.577 818.783 L 302.536 819.331 L 303.508 819.856 L 304.492 820.357 L 305.489 820.833 L 306.496 821.285 L 307.515 821.712 L 308.544 822.114 L 309.582 822.490 L 310.629 822.841 L 311.685 823.166 L 312.748 823.465 L 313.818 823.738 L 314.895 823.985 L 315.977 824.205 L 317.064 824.398 L 318.156 824.565 L 319.252 824.705 L 320.350 824.817 L 321.451 824.903 L 322.554 824.962 L 323.658 824.994 L 324.763 824.999 L 327.121 824.980 L 327.846 824.968 L 330.204 824.911 L 330.928 824.887 L 333.285 824.792 L 334.009 824.757 L 336.365 824.624 L 337.088 824.578 L 339.442 824.407 L 340.163 824.349 L 342.515 824.140 L 343.235 824.070 L 345.584 823.823 L 346.302 823.742 L 348.649 823.457 L 349.364 823.365 L 351.708 823.042 L 352.421 822.938 L 354.760 822.578 L 355.470 822.463 L 357.806 822.065 L 358.513 821.939 L 360.844 821.504 L 361.547 821.366 L 363.873 820.893 L 364.573 820.745 L 366.894 820.235 L 367.589 820.076 L 369.905 819.528 L 370.596 819.359 L 372.905 818.774 L 373.592 818.594 L 375.895 817.972 L 376.577 817.782 L 378.873 817.122 L 379.550 816.922 L 381.839 816.226 L 382.510 816.016 L 384.791 815.283 L 385.457 815.063 L 387.730 814.293 L 388.391 814.064 L 390.656 813.257 L 391.310 813.018 L 393.566 812.176 L 394.214 811.928 L 396.461 811.048 L 397.103 810.791 L 399.340 809.876 L 399.976 809.610 L 402.203 808.659 L 402.832 808.384 L 405.049 807.397 L 405.671 807.114 L 407.877 806.092 L 408.493 805.801 L 410.687 804.742 L 411.296 804.443 L 413.479 803.350 L 414.080 803.043 L 416.251 801.914 L 416.845 801.600 L 419.004 800.436 L 419.591 800.115 L 421.737 798.916 L 422.316 798.587 L 424.450 797.355 L 425.021 797.019 L 427.141 795.752 L 427.705 795.409 L 429.811 794.108 L 430.367 793.759 L 432.459 792.424 L 433.007 792.069 L 435.085 790.700 L 435.625 790.339 L 437.688 788.937 L 438.220 788.570 L 440.267 787.135 L 440.792 786.761 L 442.824 785.294 L 443.340 784.915 L 445.356 783.415 L 445.864 783.031 L 447.864 781.498 L 448.364 781.109 L 450.347 779.544 L 450.839 779.150 L 452.805 777.553 L 453.290 777.154 L 455.238 775.526 L 455.714 775.123 L 457.645 773.463 L 458.113 773.056 L 460.026 771.365 L 460.486 770.953 L 462.381 769.232 L 462.833 768.816 L 464.709 767.065 L 465.152 766.645 L 467.010 764.863 L 467.445 764.440 L 469.283 762.628 L 469.711 762.201 L 471.529 760.361 L 471.949 759.930 L 473.747 758.060 L 474.159 757.627 L 475.937 755.728 L 476.340 755.291 L 478.098 753.364 L 478.494 752.925 L 480.231 750.969 L 480.619 750.527 L 482.335 748.543 L 482.714 748.099 L 484.409 746.088 L 484.781 745.640 L 486.454 743.602 L 486.818 743.153 L 488.469 741.088 L 488.826 740.636 L 490.454 738.545 L 490.803 738.091 L 492.409 735.973 L 492.751 735.517 L 494.334 733.374 L 494.668 732.916 L 496.228 730.748 L 496.555 730.288 L 498.091 728.095 L 498.410 727.633 L 499.924 725.415 L 500.235 724.952 L 501.724 722.710 L 502.029 722.246 L 503.494 719.980 L 503.791 719.514 L 505.232 717.224 L 505.522 716.757 L 506.938 714.445 L 507.221 713.976 L 508.612 711.641 L 508.888 711.171 L 510.254 708.814 L 510.523 708.343 L 511.863 705.964 L 512.125 705.493 L 513.440 703.092 L 513.696 702.619 L 514.985 700.198 L 515.233 699.724 L 516.496 697.282 L 516.738 696.808 L 517.975 694.346 L 518.210 693.871 L 519.420 691.389 L 519.649 690.913 L 520.833 688.412 L 521.055 687.935 L 522.211 685.415 L 522.427 684.938 L 523.556 682.399 L 523.766 681.922 L 524.868 679.365 L 525.071 678.887 L 526.145 676.313 L 526.342 675.834 L 527.389 673.243 L 527.579 672.764 L 528.599 670.156 L 528.783 669.677 L 529.774 667.053 L 529.952 666.573 L 530.915 663.933 L 531.087 663.453 L 532.022 660.798 L 532.188 660.318 L 533.094 657.648 L 533.254 657.167 L 534.131 654.483 L 534.285 654.002 L 535.134 651.304 L 535.282 650.823 L 536.102 648.111 L 536.244 647.630 L 537.034 644.905 L 537.171 644.424 L 537.932 641.687 L 538.063 641.205 L 538.795 638.456 L 538.920 637.975 L 539.622 635.214 L 539.742 634.732 L 540.415 631.960 L 540.529 631.478 L 541.171 628.696 L 541.280 628.214 L 541.893 625.422 L 541.996 624.939 L 542.579 622.137 L 542.676 621.655 L 543.229 618.844 L 543.321 618.362 L 543.844 615.542 L 543.930 615.060 L 544.423 612.232 L 544.504 611.749 L 544.966 608.913 L 545.042 608.431 L 545.473 605.588 L 545.544 605.106 L 545.945 602.256 L 546.010 601.774 L 546.380 598.918 L 546.440 598.436 L 546.780 595.574 L 546.835 595.092 L 547.144 592.225 L 547.193 591.742 L 547.471 588.871 L 547.516 588.388 L 547.763 585.513 L 547.802 585.030 L 548.019 582.151 L 548.052 581.668 L 548.238 578.785 L 548.267 578.303 L 548.422 575.417 L 548.445 574.935 L 548.569 572.047 L 548.587 571.565 L 548.680 568.675 L 548.693 568.193 L 548.755 565.302 L 548.763 564.820 L 548.794 561.928 L 548.796 561.446 L 548.796 558.554 L 548.794 558.072 L 548.763 555.180 L 548.755 554.698 L 548.693 551.807 L 548.680 551.325 L 548.587 548.435 L 548.569 547.953 L 548.445 545.065 L 548.422 544.583 L 548.267 541.697 L 548.238 541.215 L 548.052 538.332 L 548.019 537.849 L 547.802 534.970 L 547.763 534.487 L 547.516 531.612 L 547.471 531.129 L 547.193 528.258 L 547.144 527.775 L 546.835 524.908 L 546.780 524.426 L 546.440 521.564 L 546.380 521.082 L 546.010 518.226 L 545.945 517.744 L 545.544 514.894 L 545.473 514.412 L 545.042 511.569 L 544.966 511.087 L 544.504 508.251 L 544.423 507.768 L 543.930 504.940 L 543.844 504.458 L 543.321 501.638 L 543.229 501.156 L 542.676 498.345 L 542.579 497.863 L 541.996 495.061 L 541.893 494.578 L 541.280 491.786 L 541.171 491.304 L 540.529 488.522 L 540.415 488.040 L 539.742 485.268 L 539.622 484.786 L 538.920 482.025 L 538.795 481.544 L 538.063 478.795 L 537.932 478.313 L 537.171 475.576 L 537.034 475.095 L 536.244 472.370 L 536.102 471.889 L 535.282 469.177 L 535.134 468.696 L 534.285 465.998 L 534.131 465.517 L 533.254 462.833 L 533.094 462.352 L 532.188 459.682 L 532.022 459.202 L 531.087 456.547 L 530.915 456.067 L 529.952 453.427 L 529.774 452.947 L 528.783 450.323 L 528.599 449.844 L 527.579 447.236 L 527.389 446.757 L 526.342 444.166 L 526.145 443.687 L 525.071 441.113 L 524.868 440.635 L 523.766 438.078 L 523.556 437.601 L 522.427 435.062 L 522.211 434.585 L 521.055 432.065 L 520.833 431.588 L 519.649 429.087 L 519.420 428.611 L 518.210 426.129 L 517.975 425.654 L 516.738 423.192 L 516.496 422.718 L 515.233 420.276 L 514.985 419.802 L 513.696 417.381 L 513.440 416.908 L 512.125 414.507 L 511.863 414.036 L 510.523 411.657 L 510.254 411.186 L 508.888 408.829 L 508.612 408.359 L 507.221 406.024 L 506.938 405.555 L 505.522 403.243 L 505.232 402.776 L 503.791 400.486 L 503.494 400.020 L 502.029 397.754 L 501.724 397.290 L 500.235 395.048 L 499.924 394.585 L 498.410 392.367 L 498.091 391.905 L 496.555 389.712 L 496.228 389.252 L 494.668 387.084 L 494.334 386.626 L 492.751 384.483 L 492.409 384.027 L 490.803 381.909 L 490.454 381.455 L 488.826 379.364 L 488.469 378.912 L 486.818 376.847 L 486.454 376.398 L 484.781 374.360 L 484.409 373.912 L 482.714 371.901 L 482.335 371.457 L 480.619 369.473 L 480.231 369.031 L 478.494 367.075 L 478.098 366.636 L 476.340 364.709 L 475.937 364.272 L 474.159 362.373 L 473.747 361.940 L 471.949 360.070 L 471.529 359.639 L 469.711 357.799 L 469.283 357.372 L 467.445 355.560 L 467.010 355.137 L 465.152 353.355 L 464.709 352.935 L 462.833 351.184 L 462.381 350.768 L 460.486 349.047 L 460.026 348.635 L 458.113 346.944 L 457.645 346.537 L 455.714 344.877 L 455.238 344.474 L 453.290 342.846 L 452.805 342.447 L 450.839 340.850 L 450.347 340.456 L 448.364 338.891 L 447.864 338.502 L 445.864 336.969 L 445.356 336.585 L 443.340 335.085 L 442.824 334.706 L 440.792 333.239 L 440.267 332.865 L 438.220 331.430 L 437.688 331.063 L 435.625 329.661 L 435.085 329.300 L 433.007 327.931 L 432.459 327.576 L 430.367 326.241 L 429.811 325.892 L 427.705 324.591 L 427.141 324.248 L 425.021 322.981 L 424.450 322.645 L 422.316 321.413 L 421.737 321.084 L 419.591 319.885 L 419.004 319.564 L 416.845 318.400 L 416.251 318.086 L 414.080 316.957 L 413.479 316.650 L 411.296 315.557 L 410.687 315.258 L 408.493 314.199 L 407.877 313.908 L 405.671 312.886 L 405.049 312.603 L 402.832 311.616 L 402.203 311.341 L 399.976 310.390 L 399.340 310.124 L 397.103 309.209 L 396.461 308.952 L 394.214 308.072 L 393.566 307.824 L 391.310 306.982 L 390.656 306.743 L 388.391 305.936 L 387.730 305.707 L 385.457 304.937 L 384.791 304.717 L 382.510 303.984 L 381.839 303.774 L 379.550 303.078 L 378.873 302.878 L 376.577 302.218 L 375.895 302.028 L 373.592 301.406 L 372.905 301.226 L 370.596 300.641 L 369.905 300.472 L 367.589 299.924 L 366.894 299.765 L 364.573 299.255 L 363.873 299.107 L 361.547 298.634 L 360.844 298.496 L 358.513 298.061 L 357.806 297.935 L 355.470 297.537 L 354.760 297.422 L 352.421 297.062 L 351.708 296.958 L 349.364 296.635 L 348.649 296.543 L 346.302 296.258 L 345.584 296.177 L 343.235 295.930 L 342.515 295.860 L 340.163 295.651 L 339.442 295.593 L 337.088 295.422 L 336.365 295.376 L 334.009 295.243 L 333.285 295.208 L 330.928 295.113 L 330.204 295.089 L 327.846 295.032 L 327.121 295.020 L 324.763 295.001 L 323.658 295.006 L 322.554 295.038 L 321.451 295.097 L 320.350 295.183 L 319.252 295.295 L 318.156 295.435 L 317.064 295.602 L 315.977 295.795 L 314.895 296.015 L 313.818 296.262 L 312.748 296.535 L 311.685 296.834 L 310.629 297.159 L 309.582 297.510 L 308.544 297.886 L 307.515 298.288 L 306.496 298.715 L 305.489 299.167 L 304.492 299.643 L 303.508 300.144 L 302.536 300.669 L 301.577 301.217 L 300.632 301.789 L 299.702 302.384 L 298.786 303.001 L 297.886 303.641 L 297.001 304.302 L 296.134 304.986 L 295.283 305.690 L 294.450 306.415 L 293.634 307.160 L 292.838 307.925 L 292.060 308.709 L 291.302 309.512 L 290.564 310.334 L 289.846 311.173 L 289.149 312.030 L 288.473 312.903 L 287.819 313.793 L 287.187 314.699 L 286.577 315.619 L 285.990 316.555 L 285.426 317.505 L 284.886 318.468 L 284.369 319.444 L 283.877 320.433 L 283.409 321.433 L 282.966 322.445 L 282.547 323.467 L 282.154 324.499 L 281.786 325.540 L 281.444 326.591 L 281.128 327.649 L 280.838 328.714 L 280.574 329.787 L 280.337 330.866 L 280.126 331.950 L 279.942 333.039 L 279.784 334.132 L 279.654 335.228 L 279.550 336.328 L 279.473 337.430 L 279.424 338.533 L 279.401 339.637 L 279.406 340.742 L 279.438 341.846 L 279.497 342.949 L 279.583 344.050 L 279.695 345.148 L 279.835 346.244 L 280.002 347.336 L 280.195 348.423 L 280.415 349.505 L 280.662 350.582 L 280.935 351.652 L 281.234 352.715 L 281.559 353.771 L 281.910 354.818 L 282.286 355.856 L 282.688 356.885 L 283.115 357.904 L 283.567 358.911 L 284.043 359.908 L 284.544 360.892 L 285.069 361.864 L 285.617 362.823 L 286.189 363.768 L 286.784 364.698 L 287.401 365.614 L 288.041 366.514 L 288.702 367.399 L 289.386 368.266 L 290.090 369.117 L 290.815 369.950 L 291.560 370.766 L 292.325 371.562 L 293.109 372.340 L 293.912 373.098 L 294.734 373.836 L 295.573 374.554 L 296.430 375.251 L 297.303 375.927 L 298.193 376.581 L 299.099 377.213 L 300.019 377.823 L 300.955 378.410 L 301.905 378.974 L 302.868 379.514 L 303.844 380.031 L 304.833 380.523 L 305.833 380.991 L 306.845 381.434 L 307.867 381.853 L 308.899 382.246 L 309.940 382.614 L 310.991 382.956 L 312.049 383.272 L 313.114 383.562 L 314.187 383.826 L 315.266 384.063 L 316.350 384.274 L 317.439 384.458 L 318.532 384.616 L 319.628 384.746 L 320.728 384.850 L 321.830 384.927 L 322.933 384.976 L 324.037 384.999 L 326.033 385.015 L 327.665 385.054 Z M 100.014 961.104 L 100.054 962.208 L 100.122 963.310 L 100.217 964.411 L 100.338 965.508 L 100.487 966.603 L 100.663 967.693 L 100.865 968.779 L 101.093 969.860 L 101.349 970.934 L 101.630 972.002 L 101.938 973.063 L 102.271 974.116 L 102.631 975.160 L 103.015 976.195 L 103.425 977.221 L 103.861 978.236 L 104.320 979.240 L 104.805 980.233 L 105.314 981.213 L 105.846 982.180 L 106.402 983.135 L 106.982 984.075 L 107.584 985.001 L 108.209 985.911 L 108.856 986.806 L 109.524 987.685 L 110.215 988.548 L 110.926 989.393 L 111.657 990.220 L 112.409 991.029 L 113.180 991.820 L 113.971 992.591 L 114.780 993.343 L 115.607 994.074 L 116.452 994.785 L 117.315 995.476 L 118.194 996.144 L 119.089 996.791 L 119.999 997.416 L 120.925 998.018 L 121.865 998.598 L 122.820 999.154 L 123.787 999.686 L 124.767 1000.195 L 125.760 1000.680 L 126.764 1001.139 L 127.779 1001.575 L 128.805 1001.985 L 129.840 1002.369 L 130.884 1002.729 L 131.937 1003.062 L 132.998 1003.370 L 134.066 1003.651 L 135.140 1003.907 L 136.221 1004.135 L 137.307 1004.337 L 138.397 1004.513 L 139.492 1004.662 L 140.589 1004.783 L 141.690 1004.878 L 142.792 1004.946 L 143.896 1004.986 L 145.000 1005.000 L 146.104 1004.986 L 147.208 1004.946 L 148.310 1004.878 L 149.411 1004.783 L 150.508 1004.662 L 151.603 1004.513 L 152.693 1004.337 L 153.779 1004.135 L 154.860 1003.907 L 155.934 1003.651 L 157.002 1003.370 L 158.063 1003.062 L 159.116 1002.729 L 160.160 1002.369 L 161.195 1001.985 L 162.221 1001.575 L 163.236 1001.139 L 164.240 1000.680 L 165.233 1000.195 L 166.213 999.686 L 167.180 999.154 L 168.135 998.598 L 169.075 998.018 L 170.001 997.416 L 170.911 996.791 L 171.806 996.144 L 172.685 995.476 L 173.548 994.785 L 174.393 994.074 L 175.220 993.343 L 176.029 992.591 L 176.820 991.820 L 177.591 991.029 L 178.343 990.220 L 179.074 989.393 L 179.785 988.548 L 180.476 987.685 L 181.144 986.806 L 181.791 985.911 L 182.416 985.001 L 183.018 984.075 L 183.598 983.135 L 184.154 982.180 L 184.686 981.213 L 185.195 980.233 L 185.680 979.240 L 186.139 978.236 L 186.575 977.221 L 186.985 976.195 L 187.369 975.160 L 187.729 974.116 L 188.062 973.063 L 188.370 972.002 L 188.651 970.934 L 188.907 969.860 L 189.135 968.779 L 189.337 967.693 L 189.513 966.603 L 189.662 965.508 L 189.783 964.411 L 189.878 963.310 L 189.946 962.208 L 189.986 961.104 L 190.000 960.000 L 190.000 360.000 L 189.986 358.896 L 189.946 357.792 L 189.878 356.690 L 189.783 355.589 L 189.662 354.492 L 189.513 353.397 L 189.337 352.307 L 189.135 351.221 L 188.907 350.140 L 188.651 349.066 L 188.370 347.998 L 188.062 346.937 L 187.729 345.884 L 187.369 344.840 L 186.985 343.805 L 186.575 342.779 L 186.139 341.764 L 185.680 340.760 L 185.195 339.767 L 184.686 338.787 L 184.154 337.820 L 183.598 336.865 L 183.018 335.925 L 182.416 334.999 L 181.791 334.089 L 181.144 333.194 L 180.476 332.315 L 179.785 331.452 L 179.074 330.607 L 178.343 329.780 L 177.591 328.971 L 176.820 328.180 L 176.029 327.409 L 175.220 326.657 L 174.393 325.926 L 173.548 325.215 L 172.685 324.524 L 171.806 323.856 L 170.911 323.209 L 170.001 322.584 L 169.075 321.982 L 168.135 321.402 L 167.180 320.846 L 166.213 320.314 L 165.233 319.805 L 164.240 319.320 L 163.236 318.861 L 162.221 318.425 L 161.195 318.015 L 160.160 317.631 L 159.116 317.271 L 158.063 316.938 L 157.002 316.630 L 155.934 316.349 L 154.860 316.093 L 153.779 315.865 L 152.693 315.663 L 151.603 315.487 L 150.508 315.338 L 149.411 315.217 L 148.310 315.122 L 147.208 315.054 L 146.104 315.014 L 145.000 315.000 L 143.896 315.014 L 142.792 315.054 L 141.690 315.122 L 140.589 315.217 L 139.492 315.338 L 138.397 315.487 L 137.307 315.663 L 136.221 315.865 L 135.140 316.093 L 134.066 316.349 L 132.998 316.630 L 131.937 316.938 L 130.884 317.271 L 129.840 317.631 L 128.805 318.015 L 127.779 318.425 L 126.764 318.861 L 125.760 319.320 L 124.767 319.805 L 123.787 320.314 L 122.820 320.846 L 121.865 321.402 L 120.925 321.982 L 119.999 322.584 L 119.089 323.209 L 118.194 323.856 L 117.315 324.524 L 116.452 325.215 L 115.607 325.926 L 114.780 326.657 L 113.971 327.409 L 113.180 328.180 L 112.409 328.971 L 111.657 329.780 L 110.926 330.607 L 110.215 331.452 L 109.524 332.315 L 108.856 333.194 L 108.209 334.089 L 107.584 334.999 L 106.982 335.925 L 106.402 336.865 L 105.846 337.820 L 105.314 338.787 L 104.805 339.767 L 104.320 340.760 L 103.861 341.764 L 103.425 342.779 L 103.015 343.805 L 102.631 344.840 L 102.271 345.884 L 101.938 346.937 L 101.630 347.998 L 101.349 349.066 L 101.093 350.140 L 100.865 351.221 L 100.663 352.307 L 100.487 353.397 L 100.338 354.492 L 100.217 355.589 L 100.122 356.690 L 100.054 357.792 L 100.014 358.896 L 100.000 360.000 L 100.000 960.000 L 100.014 961.104 Z" fill="black" fill-rule="evenodd"/>
</svg>
