<svg xmlns="http://www.w3.org/2000/svg" viewBox="0 0 600.000 1000">
  <path d="M 257.309 794.230 L 257.671 795.271 L 258.057 796.303 L 258.469 797.326 L 258.906 798.338 L 259.367 799.338 L 259.853 800.328 L 260.363 801.305 L 260.896 802.269 L 261.453 803.220 L 262.034 804.157 L 262.637 805.079 L 263.262 805.987 L 263.909 806.879 L 264.578 807.754 L 265.269 808.614 L 265.980 809.455 L 266.711 810.280 L 267.463 811.086 L 268.234 811.873 L 269.024 812.642 L 269.832 813.390 L 270.659 814.119 L 271.504 814.827 L 272.365 815.515 L 273.243 816.181 L 274.137 816.825 L 275.047 817.448 L 275.971 818.048 L 276.910 818.625 L 277.863 819.178 L 278.829 819.709 L 279.808 820.215 L 280.799 820.698 L 281.801 821.156 L 282.814 821.589 L 283.838 821.997 L 284.871 822.381 L 285.914 822.738 L 286.964 823.071 L 288.023 823.377 L 289.089 823.657 L 290.161 823.911 L 291.240 824.139 L 292.323 824.340 L 293.411 824.515 L 294.503 824.663 L 295.599 824.784 L 296.697 824.879 L 297.797 824.946 L 298.898 824.987 L 300.000 825.000 L 301.102 824.987 L 302.203 824.946 L 303.303 824.879 L 304.401 824.784 L 305.497 824.663 L 306.589 824.515 L 307.677 824.340 L 308.760 824.139 L 309.839 823.911 L 310.911 823.657 L 311.977 823.377 L 313.036 823.071 L 314.086 822.738 L 315.129 822.381 L 316.162 821.997 L 317.186 821.589 L 318.199 821.156 L 319.201 820.698 L 320.192 820.215 L 321.171 819.709 L 322.137 819.178 L 323.090 818.625 L 324.029 818.048 L 324.953 817.448 L 325.863 816.825 L 326.757 816.181 L 327.635 815.515 L 328.496 814.827 L 329.341 814.119 L 330.168 813.390 L 330.976 812.642 L 331.766 811.873 L 332.537 811.086 L 333.289 810.280 L 334.020 809.455 L 334.731 808.614 L 335.422 807.754 L 336.091 806.879 L 336.738 805.987 L 337.363 805.079 L 337.966 804.157 L 338.547 803.220 L 339.104 802.269 L 339.637 801.305 L 340.147 800.328 L 340.633 799.338 L 341.094 798.338 L 341.531 797.326 L 341.943 796.303 L 342.329 795.271 L 342.691 794.230 L 482.691 374.230 L 483.027 373.178 L 483.338 372.118 L 483.622 371.051 L 483.880 369.977 L 484.112 368.897 L 484.317 367.812 L 484.495 366.722 L 484.647 365.628 L 484.771 364.531 L 484.869 363.431 L 484.940 362.329 L 484.983 361.225 L 485.000 360.121 L 484.989 359.016 L 484.952 357.913 L 484.887 356.810 L 484.795 355.709 L 484.676 354.611 L 484.530 353.517 L 484.358 352.426 L 484.159 351.339 L 483.933 350.258 L 483.681 349.183 L 483.402 348.114 L 483.097 347.053 L 482.766 345.999 L 482.410 344.954 L 482.028 343.917 L 481.621 342.891 L 481.188 341.875 L 480.731 340.869 L 480.249 339.875 L 479.743 338.894 L 479.213 337.925 L 478.660 336.969 L 478.083 336.027 L 477.483 335.100 L 476.861 334.187 L 476.216 333.291 L 475.550 332.410 L 474.862 331.546 L 474.153 330.699 L 473.424 329.869 L 472.674 329.058 L 471.905 328.266 L 471.117 327.492 L 470.309 326.738 L 469.484 326.005 L 468.641 325.291 L 467.780 324.599 L 466.903 323.928 L 466.010 323.278 L 465.101 322.651 L 464.177 322.046 L 463.238 321.464 L 462.285 320.906 L 461.319 320.371 L 460.340 319.859 L 459.349 319.372 L 458.346 318.910 L 457.332 318.472 L 456.308 318.059 L 455.274 317.671 L 454.230 317.309 L 453.178 316.973 L 452.118 316.662 L 451.051 316.378 L 449.977 316.120 L 448.897 315.888 L 447.812 315.683 L 446.722 315.505 L 445.628 315.353 L 444.531 315.229 L 443.431 315.131 L 442.329 315.060 L 441.225 315.017 L 440.121 315.000 L 439.016 315.011 L 437.913 315.048 L 436.810 315.113 L 435.709 315.205 L 434.611 315.324 L 433.517 315.470 L 432.426 315.642 L 431.339 315.841 L 430.258 316.067 L 429.183 316.319 L 428.114 316.598 L 427.053 316.903 L 425.999 317.234 L 424.954 317.590 L 423.917 317.972 L 422.891 318.379 L 421.875 318.812 L 420.869 319.269 L 419.875 319.751 L 418.894 320.257 L 417.925 320.787 L 416.969 321.340 L 416.027 321.917 L 415.100 322.517 L 414.187 323.139 L 413.291 323.784 L 412.410 324.450 L 411.546 325.138 L 410.699 325.847 L 409.869 326.576 L 409.058 327.326 L 408.266 328.095 L 407.492 328.883 L 406.738 329.691 L 406.005 330.516 L 405.291 331.359 L 404.599 332.220 L 403.928 333.097 L 403.278 333.990 L 402.651 334.899 L 402.046 335.823 L 401.464 336.762 L 400.906 337.715 L 400.371 338.681 L 399.859 339.660 L 399.372 340.651 L 398.910 341.654 L 398.472 342.668 L 398.059 343.692 L 397.671 344.726 L 397.309 345.770 L 300.000 637.698 L 202.691 345.770 L 202.329 344.726 L 201.941 343.692 L 201.528 342.668 L 201.090 341.654 L 200.628 340.651 L 200.141 339.660 L 199.629 338.681 L 199.094 337.715 L 198.536 336.762 L 197.954 335.823 L 197.349 334.899 L 196.722 333.990 L 196.072 333.097 L 195.401 332.220 L 194.709 331.359 L 193.995 330.516 L 193.262 329.691 L 192.508 328.883 L 191.734 328.095 L 190.942 327.326 L 190.131 326.576 L 189.301 325.847 L 188.454 325.138 L 187.590 324.450 L 186.709 323.784 L 185.813 323.139 L 184.900 322.517 L 183.973 321.917 L 183.031 321.340 L 182.075 320.787 L 181.106 320.257 L 180.125 319.751 L 179.131 319.269 L 178.125 318.812 L 177.109 318.379 L 176.083 317.972 L 175.046 317.590 L 174.001 317.234 L 172.947 316.903 L 171.886 316.598 L 170.817 316.319 L 169.742 316.067 L 168.661 315.841 L 167.574 315.642 L 166.483 315.470 L 165.389 315.324 L 164.291 315.205 L 163.190 315.113 L 162.087 315.048 L 160.984 315.011 L 159.879 315.000 L 158.775 315.017 L 157.671 315.060 L 156.569 315.131 L 155.469 315.229 L 154.372 315.353 L 153.278 315.505 L 152.188 315.683 L 151.103 315.888 L 150.023 316.120 L 148.949 316.378 L 147.882 316.662 L 146.822 316.973 L 145.770 317.309 L 144.726 317.671 L 143.692 318.059 L 142.668 318.472 L 141.654 318.910 L 140.651 319.372 L 139.660 319.859 L 138.681 320.371 L 137.715 320.906 L 136.762 321.464 L 135.823 322.046 L 134.899 322.651 L 133.990 323.278 L 133.097 323.928 L 132.220 324.599 L 131.359 325.291 L 130.516 326.005 L 129.691 326.738 L 128.883 327.492 L 128.095 328.266 L 127.326 329.058 L 126.576 329.869 L 125.847 330.699 L 125.138 331.546 L 124.450 332.410 L 123.784 333.291 L 123.139 334.187 L 122.517 335.100 L 121.917 336.027 L 121.340 336.969 L 120.787 337.925 L 120.257 338.894 L 119.751 339.875 L 119.269 340.869 L 118.812 341.875 L 118.379 342.891 L 117.972 343.917 L 117.590 344.954 L 117.234 345.999 L 116.903 347.053 L 116.598 348.114 L 116.319 349.183 L 116.067 350.258 L 115.841 351.339 L 115.642 352.426 L 115.470 353.517 L 115.324 354.611 L 115.205 355.709 L 115.113 356.810 L 115.048 357.913 L 115.011 359.016 L 115.000 360.121 L 115.017 361.225 L 115.060 362.329 L 115.131 363.431 L 115.229 364.531 L 115.353 365.628 L 115.505 366.722 L 115.683 367.812 L 115.888 368.897 L 116.120 369.977 L 116.378 371.051 L 116.662 372.118 L 116.973 373.178 L 117.309 374.230 L 257.309 794.230 Z" fill="black" fill-rule="evenodd"/>
</svg>
