<svg xmlns="http://www.w3.org/2000/svg" viewBox="0 0 600.000 1000.000">
  <path d="M 80.054,257.792 L 80.217,255.589 L 80.487,253.397 L 80.865,251.221 L 81.349,249.066 L 81.938,246.937 L 82.631,244.840 L 83.425,242.779 L 84.320,240.760 L 85.314,238.787 L 86.402,236.865 L 87.584,234.999 L 88.856,233.194 L 90.215,231.452 L 91.657,229.780 L 93.180,228.180 L 94.780,226.657 L 96.452,225.215 L 98.194,223.856 L 99.999,222.584 L 101.865,221.402 L 103.787,220.314 L 105.760,219.320 L 107.779,218.425 L 109.840,217.631 L 111.937,216.938 L 114.066,216.349 L 116.221,215.865 L 118.397,215.487 L 120.589,215.217 L 122.792,215.054 L 125.000,215.000 L 127.208,215.054 L 129.411,215.217 L 131.603,215.487 L 133.779,215.865 L 135.934,216.349 L 138.063,216.938 L 140.160,217.631 L 142.221,218.425 L 144.240,219.320 L 146.213,220.314 L 148.135,221.402 L 150.001,222.584 L 151.806,223.856 L 153.548,225.215 L 155.220,226.657 L 156.820,228.180 L 158.343,229.780 L 159.785,231.452 L 161.144,233.194 L 162.416,234.999 L 163.598,236.865 L 164.686,238.787 L 165.680,240.760 L 166.575,242.779 L 167.369,244.840 L 168.062,246.937 L 168.651,249.066 L 169.135,251.221 L 169.513,253.397 L 169.783,255.589 L 169.946,257.792 L 170.000,260.000 L 170.000,345.000 L 340.000,345.000 L 342.208,345.054 L 344.411,345.217 L 346.603,345.487 L 348.779,345.865 L 350.934,346.349 L 353.063,346.938 L 355.160,347.631 L 357.221,348.425 L 359.240,349.320 L 361.213,350.314 L 363.135,351.402 L 365.001,352.584 L 366.806,353.856 L 368.548,355.215 L 370.220,356.657 L 371.820,358.180 L 373.343,359.780 L 374.785,361.452 L 376.144,363.194 L 377.416,364.999 L 378.598,366.865 L 379.686,368.787 L 380.680,370.760 L 381.575,372.779 L 382.369,374.840 L 383.062,376.937 L 383.651,379.066 L 384.135,381.221 L 384.513,383.397 L 384.783,385.589 L 384.946,387.792 L 385.000,390.000 L 385.000,650.000 L 384.946,652.208 L 384.783,654.411 L 384.513,656.603 L 384.135,658.779 L 383.651,660.934 L 383.062,663.063 L 382.369,665.160 L 381.575,667.221 L 380.680,669.240 L 379.686,671.213 L 378.598,673.135 L 377.416,675.001 L 376.144,676.806 L 374.785,678.548 L 373.343,680.220 L 371.820,681.820 L 370.220,683.343 L 368.548,684.785 L 366.806,686.144 L 365.001,687.416 L 363.135,688.598 L 361.213,689.686 L 359.240,690.680 L 357.221,691.575 L 355.160,692.369 L 353.063,693.062 L 350.934,693.651 L 348.779,694.135 L 346.603,694.513 L 344.411,694.783 L 342.208,694.946 L 340.000,695.000 L 337.792,694.946 L 335.589,694.783 L 333.397,694.513 L 331.221,694.135 L 329.066,693.651 L 326.937,693.062 L 324.840,692.369 L 322.779,691.575 L 320.760,690.680 L 318.787,689.686 L 316.865,688.598 L 314.999,687.416 L 313.194,686.144 L 311.452,684.785 L 309.780,683.343 L 308.180,681.820 L 306.657,680.220 L 305.215,678.548 L 303.856,676.806 L 302.584,675.001 L 301.402,673.135 L 300.314,671.213 L 299.320,669.240 L 298.425,667.221 L 297.631,665.160 L 296.938,663.063 L 296.349,660.934 L 295.865,658.779 L 295.487,656.603 L 295.217,654.411 L 295.054,652.208 L 295.000,650.000 L 295.000,435.000 L 170.000,435.000 L 170.000,780.000 L 169.946,782.208 L 169.783,784.411 L 169.513,786.603 L 169.135,788.779 L 168.651,790.934 L 168.062,793.063 L 167.369,795.160 L 166.575,797.221 L 165.680,799.240 L 164.686,801.213 L 163.598,803.135 L 162.416,805.001 L 161.144,806.806 L 159.785,808.548 L 158.343,810.220 L 156.820,811.820 L 155.220,813.343 L 153.548,814.785 L 151.806,816.144 L 150.001,817.416 L 148.135,818.598 L 146.213,819.686 L 144.240,820.680 L 142.221,821.575 L 140.160,822.369 L 138.063,823.062 L 135.934,823.651 L 133.779,824.135 L 131.603,824.513 L 129.411,824.783 L 127.208,824.946 L 125.000,825.000 L 122.792,824.946 L 120.589,824.783 L 118.397,824.513 L 116.221,824.135 L 114.066,823.651 L 111.937,823.062 L 109.840,822.369 L 107.779,821.575 L 105.760,820.680 L 103.787,819.686 L 101.865,818.598 L 99.999,817.416 L 98.194,816.144 L 96.452,814.785 L 94.780,813.343 L 93.180,811.820 L 91.657,810.220 L 90.215,808.548 L 88.856,806.806 L 87.584,805.001 L 86.402,803.135 L 85.314,801.213 L 84.320,799.240 L 83.425,797.221 L 82.631,795.160 L 81.938,793.063 L 81.349,790.934 L 80.865,788.779 L 80.487,786.603 L 80.217,784.411 L 80.054,782.208 L 80.000,780.000 L 80.000,390.000 L 80.000,260.000 L 80.054,257.792 Z" fill="black" fill-rule="evenodd"/>
</svg>
