<svg xmlns="http://www.w3.org/2000/svg" viewBox="0 0 600.000 1000">
  <path d="M 541.472 314.976 L 542.943 314.904 L 544.411 314.783 L 545.874 314.615 L 547.330 314.399 L 548.779 314.135 L 550.218 313.824 L 551.647 313.467 L 553.063 313.062 L 554.465 312.612 L 555.851 312.116 L 557.221 311.575 L 558.572 310.989 L 559.903 310.359 L 561.213 309.686 L 562.500 308.971 L 563.763 308.214 L 565.001 307.416 L 566.211 306.578 L 567.394 305.701 L 568.548 304.785 L 569.671 303.833 L 570.762 302.844 L 571.820 301.820 L 572.844 300.762 L 573.833 299.671 L 574.785 298.548 L 575.701 297.394 L 576.578 296.211 L 577.416 295.001 L 578.214 293.763 L 578.971 292.500 L 579.686 291.213 L 580.359 289.903 L 580.989 288.572 L 581.575 287.221 L 582.116 285.851 L 582.612 284.465 L 583.062 283.063 L 583.467 281.647 L 583.824 280.218 L 584.135 278.779 L 584.399 277.330 L 584.615 275.874 L 584.783 274.411 L 584.904 272.943 L 584.976 271.472 L 585.000 270.000 L 584.976 268.528 L 584.904 267.057 L 584.783 265.589 L 584.615 264.126 L 584.399 262.670 L 584.135 261.221 L 583.824 259.782 L 583.467 258.353 L 583.062 256.937 L 582.612 255.535 L 582.116 254.149 L 581.575 252.779 L 580.989 251.428 L 580.359 250.097 L 579.686 248.787 L 578.971 247.500 L 578.214 246.237 L 577.416 244.999 L 576.578 243.789 L 575.701 242.606 L 574.785 241.452 L 573.833 240.329 L 572.844 239.238 L 571.820 238.180 L 570.762 237.156 L 569.671 236.167 L 568.548 235.215 L 567.394 234.299 L 566.211 233.422 L 565.001 232.584 L 563.763 231.786 L 562.500 231.029 L 561.213 230.314 L 559.903 229.641 L 558.572 229.011 L 557.221 228.425 L 555.851 227.884 L 554.465 227.388 L 553.063 226.938 L 551.647 226.533 L 550.218 226.176 L 548.779 225.865 L 547.330 225.601 L 545.874 225.385 L 544.411 225.217 L 542.943 225.096 L 541.472 225.024 L 540.000 225.000 L 345.000 225.000 L 345.000 100.000 L 344.976 98.528 L 344.904 97.057 L 344.783 95.589 L 344.615 94.126 L 344.399 92.670 L 344.135 91.221 L 343.824 89.782 L 343.467 88.353 L 343.062 86.937 L 342.612 85.535 L 342.116 84.149 L 341.575 82.779 L 340.989 81.428 L 340.359 80.097 L 339.686 78.787 L 338.971 77.500 L 338.214 76.237 L 337.416 74.999 L 336.578 73.789 L 335.701 72.606 L 334.785 71.452 L 333.833 70.329 L 332.844 69.238 L 331.820 68.180 L 330.762 67.156 L 329.671 66.167 L 328.548 65.215 L 327.394 64.299 L 326.211 63.422 L 325.001 62.584 L 323.763 61.786 L 322.500 61.029 L 321.213 60.314 L 319.903 59.641 L 318.572 59.011 L 317.221 58.425 L 315.851 57.884 L 314.465 57.388 L 313.063 56.938 L 311.647 56.533 L 310.218 56.176 L 308.779 55.865 L 307.330 55.601 L 305.874 55.385 L 304.411 55.217 L 302.943 55.096 L 301.472 55.024 L 300.000 55.000 L 298.528 55.024 L 297.057 55.096 L 295.589 55.217 L 294.126 55.385 L 292.670 55.601 L 291.221 55.865 L 289.782 56.176 L 288.353 56.533 L 286.937 56.938 L 285.535 57.388 L 284.149 57.884 L 282.779 58.425 L 281.428 59.011 L 280.097 59.641 L 278.787 60.314 L 277.500 61.029 L 276.237 61.786 L 274.999 62.584 L 273.789 63.422 L 272.606 64.299 L 271.452 65.215 L 270.329 66.167 L 269.238 67.156 L 268.180 68.180 L 267.156 69.238 L 266.167 70.329 L 265.215 71.452 L 264.299 72.606 L 263.422 73.789 L 262.584 74.999 L 261.786 76.237 L 261.029 77.500 L 260.314 78.787 L 259.641 80.097 L 259.011 81.428 L 258.425 82.779 L 257.884 84.149 L 257.388 85.535 L 256.938 86.937 L 256.533 88.353 L 256.176 89.782 L 255.865 91.221 L 255.601 92.670 L 255.385 94.126 L 255.217 95.589 L 255.096 97.057 L 255.024 98.528 L 255.000 100.000 L 255.000 225.284 L 254.126 225.385 L 252.670 225.601 L 251.221 225.865 L 249.782 226.176 L 248.353 226.533 L 246.937 226.938 L 245.535 227.388 L 244.149 227.884 L 242.779 228.425 L 241.428 229.011 L 240.097 229.641 L 238.787 230.314 L 237.500 231.029 L 236.237 231.786 L 234.999 232.584 L 233.789 233.422 L 232.606 234.299 L 231.452 235.215 L 230.329 236.167 L 229.238 237.156 L 228.180 238.180 L 227.156 239.238 L 226.167 240.329 L 225.215 241.452 L 224.299 242.606 L 223.422 243.789 L 222.584 244.999 L 221.786 246.237 L 221.029 247.500 L 220.314 248.787 L 219.641 250.097 L 219.011 251.428 L 218.425 252.779 L 217.884 254.149 L 217.388 255.535 L 216.938 256.937 L 216.533 258.353 L 216.176 259.782 L 215.865 261.221 L 215.601 262.670 L 215.385 264.126 L 215.217 265.589 L 215.096 267.057 L 215.024 268.528 L 215.000 270.000 L 215.024 271.472 L 215.096 272.943 L 215.217 274.411 L 215.385 275.874 L 215.601 277.330 L 215.865 278.779 L 216.176 280.218 L 216.533 281.647 L 216.938 283.063 L 217.388 284.465 L 217.884 285.851 L 218.425 287.221 L 219.011 288.572 L 219.641 289.903 L 220.314 291.213 L 221.029 292.500 L 221.786 293.763 L 222.584 295.001 L 223.422 296.211 L 224.299 297.394 L 225.215 298.548 L 226.167 299.671 L 227.156 300.762 L 228.180 301.820 L 229.238 302.844 L 230.329 303.833 L 231.452 304.785 L 232.606 305.701 L 233.789 306.578 L 234.999 307.416 L 236.237 308.214 L 237.500 308.971 L 238.787 309.686 L 240.097 310.359 L 241.428 310.989 L 242.779 311.575 L 244.149 312.116 L 245.535 312.612 L 246.937 313.062 L 248.353 313.467 L 249.782 313.824 L 251.221 314.135 L 252.670 314.399 L 254.126 314.615 L 255.000 314.716 L 255.000 780.000 L 255.024 781.472 L 255.096 782.943 L 255.217 784.411 L 255.385 785.874 L 255.601 787.330 L 255.865 788.779 L 256.176 790.218 L 256.533 791.647 L 256.938 793.063 L 257.388 794.465 L 257.884 795.851 L 258.425 797.221 L 259.011 798.572 L 259.641 799.903 L 260.314 801.213 L 261.029 802.500 L 261.786 803.763 L 262.584 805.001 L 263.422 806.211 L 264.299 807.394 L 265.215 808.548 L 266.167 809.671 L 267.156 810.762 L 268.180 811.820 L 269.238 812.844 L 270.329 813.833 L 271.452 814.785 L 272.606 815.701 L 273.789 816.578 L 274.999 817.416 L 276.237 818.214 L 277.500 818.971 L 278.787 819.686 L 280.097 820.359 L 281.428 820.989 L 282.779 821.575 L 284.149 822.116 L 285.535 822.612 L 286.937 823.062 L 288.353 823.467 L 289.782 823.824 L 291.221 824.135 L 292.670 824.399 L 294.126 824.615 L 295.589 824.783 L 297.057 824.904 L 298.528 824.976 L 300.000 825.000 L 301.472 824.976 L 302.943 824.904 L 304.411 824.783 L 305.874 824.615 L 307.330 824.399 L 308.779 824.135 L 310.218 823.824 L 311.647 823.467 L 313.063 823.062 L 314.465 822.612 L 315.851 822.116 L 317.221 821.575 L 318.572 820.989 L 319.903 820.359 L 321.213 819.686 L 322.500 818.971 L 323.763 818.214 L 325.001 817.416 L 326.211 816.578 L 327.394 815.701 L 328.548 814.785 L 329.671 813.833 L 330.762 812.844 L 331.820 811.820 L 332.844 810.762 L 333.833 809.671 L 334.785 808.548 L 335.701 807.394 L 336.578 806.211 L 337.416 805.001 L 338.214 803.763 L 338.971 802.500 L 339.686 801.213 L 340.359 799.903 L 340.989 798.572 L 341.575 797.221 L 342.116 795.851 L 342.612 794.465 L 343.062 793.063 L 343.467 791.647 L 343.824 790.218 L 344.135 788.779 L 344.399 787.330 L 344.615 785.874 L 344.783 784.411 L 344.904 782.943 L 344.976 781.472 L 345.000 780.000 L 345.000 315.000 L 540.000 315.000 L 541.472 314.976 Z" fill="black" fill-rule="evenodd"/>
</svg>
