<svg xmlns="http://www.w3.org/2000/svg" viewBox="0 0 600.000 1000">
  <path d="M 541.104 314.986 L 542.208 314.946 L 543.310 314.878 L 544.411 314.783 L 545.508 314.662 L 546.603 314.513 L 547.693 314.337 L 548.779 314.135 L 549.860 313.907 L 550.934 313.651 L 552.002 313.370 L 553.063 313.062 L 554.116 312.729 L 555.160 312.369 L 556.195 311.985 L 557.221 311.575 L 558.236 311.139 L 559.240 310.680 L 560.233 310.195 L 561.213 309.686 L 562.180 309.154 L 563.135 308.598 L 564.075 308.018 L 565.001 307.416 L 565.911 306.791 L 566.806 306.144 L 567.685 305.476 L 568.548 304.785 L 569.393 304.074 L 570.220 303.343 L 571.029 302.591 L 571.820 301.820 L 572.591 301.029 L 573.343 300.220 L 574.074 299.393 L 574.785 298.548 L 575.476 297.685 L 576.144 296.806 L 576.791 295.911 L 577.416 295.001 L 578.018 294.075 L 578.598 293.135 L 579.154 292.180 L 579.686 291.213 L 580.195 290.233 L 580.680 289.240 L 581.139 288.236 L 581.575 287.221 L 581.985 286.195 L 582.369 285.160 L 582.729 284.116 L 583.062 283.063 L 583.370 282.002 L 583.651 280.934 L 583.907 279.860 L 584.135 278.779 L 584.337 277.693 L 584.513 276.603 L 584.662 275.508 L 584.783 274.411 L 584.878 273.310 L 584.946 272.208 L 584.986 271.104 L 585.000 270.000 L 584.986 268.896 L 584.946 267.792 L 584.878 266.690 L 584.783 265.589 L 584.662 264.492 L 584.513 263.397 L 584.337 262.307 L 584.135 261.221 L 583.907 260.140 L 583.651 259.066 L 583.370 257.998 L 583.062 256.937 L 582.729 255.884 L 582.369 254.840 L 581.985 253.805 L 581.575 252.779 L 581.139 251.764 L 580.680 250.760 L 580.195 249.767 L 579.686 248.787 L 579.154 247.820 L 578.598 246.865 L 578.018 245.925 L 577.416 244.999 L 576.791 244.089 L 576.144 243.194 L 575.476 242.315 L 574.785 241.452 L 574.074 240.607 L 573.343 239.780 L 572.591 238.971 L 571.820 238.180 L 571.029 237.409 L 570.220 236.657 L 569.393 235.926 L 568.548 235.215 L 567.685 234.524 L 566.806 233.856 L 565.911 233.209 L 565.001 232.584 L 564.075 231.982 L 563.135 231.402 L 562.180 230.846 L 561.213 230.314 L 560.233 229.805 L 559.240 229.320 L 558.236 228.861 L 557.221 228.425 L 556.195 228.015 L 555.160 227.631 L 554.116 227.271 L 553.063 226.938 L 552.002 226.630 L 550.934 226.349 L 549.860 226.093 L 548.779 225.865 L 547.693 225.663 L 546.603 225.487 L 545.508 225.338 L 544.411 225.217 L 543.310 225.122 L 542.208 225.054 L 541.104 225.014 L 540.000 225.000 L 345.000 225.000 L 345.000 100.000 L 344.986 98.896 L 344.946 97.792 L 344.878 96.690 L 344.783 95.589 L 344.662 94.492 L 344.513 93.397 L 344.337 92.307 L 344.135 91.221 L 343.907 90.140 L 343.651 89.066 L 343.370 87.998 L 343.062 86.937 L 342.729 85.884 L 342.369 84.840 L 341.985 83.805 L 341.575 82.779 L 341.139 81.764 L 340.680 80.760 L 340.195 79.767 L 339.686 78.787 L 339.154 77.820 L 338.598 76.865 L 338.018 75.925 L 337.416 74.999 L 336.791 74.089 L 336.144 73.194 L 335.476 72.315 L 334.785 71.452 L 334.074 70.607 L 333.343 69.780 L 332.591 68.971 L 331.820 68.180 L 331.029 67.409 L 330.220 66.657 L 329.393 65.926 L 328.548 65.215 L 327.685 64.524 L 326.806 63.856 L 325.911 63.209 L 325.001 62.584 L 324.075 61.982 L 323.135 61.402 L 322.180 60.846 L 321.213 60.314 L 320.233 59.805 L 319.240 59.320 L 318.236 58.861 L 317.221 58.425 L 316.195 58.015 L 315.160 57.631 L 314.116 57.271 L 313.063 56.938 L 312.002 56.630 L 310.934 56.349 L 309.860 56.093 L 308.779 55.865 L 307.693 55.663 L 306.603 55.487 L 305.508 55.338 L 304.411 55.217 L 303.310 55.122 L 302.208 55.054 L 301.104 55.014 L 300.000 55.000 L 298.896 55.014 L 297.792 55.054 L 296.690 55.122 L 295.589 55.217 L 294.492 55.338 L 293.397 55.487 L 292.307 55.663 L 291.221 55.865 L 290.140 56.093 L 289.066 56.349 L 287.998 56.630 L 286.937 56.938 L 285.884 57.271 L 284.840 57.631 L 283.805 58.015 L 282.779 58.425 L 281.764 58.861 L 280.760 59.320 L 279.767 59.805 L 278.787 60.314 L 277.820 60.846 L 276.865 61.402 L 275.925 61.982 L 274.999 62.584 L 274.089 63.209 L 273.194 63.856 L 272.315 64.524 L 271.452 65.215 L 270.607 65.926 L 269.780 66.657 L 268.971 67.409 L 268.180 68.180 L 267.409 68.971 L 266.657 69.780 L 265.926 70.607 L 265.215 71.452 L 264.524 72.315 L 263.856 73.194 L 263.209 74.089 L 262.584 74.999 L 261.982 75.925 L 261.402 76.865 L 260.846 77.820 L 260.314 78.787 L 259.805 79.767 L 259.320 80.760 L 258.861 81.764 L 258.425 82.779 L 258.015 83.805 L 257.631 84.840 L 257.271 85.884 L 256.938 86.937 L 256.630 87.998 L 256.349 89.066 L 256.093 90.140 L 255.865 91.221 L 255.663 92.307 L 255.487 93.397 L 255.338 94.492 L 255.217 95.589 L 255.122 96.690 L 255.054 97.792 L 255.014 98.896 L 255.000 100.000 L 255.000 225.282 L 254.492 225.338 L 253.397 225.487 L 252.307 225.663 L 251.221 225.865 L 250.140 226.093 L 249.066 226.349 L 247.998 226.630 L 246.937 226.938 L 245.884 227.271 L 244.840 227.631 L 243.805 228.015 L 242.779 228.425 L 241.764 228.861 L 240.760 229.320 L 239.767 229.805 L 238.787 230.314 L 237.820 230.846 L 236.865 231.402 L 235.925 231.982 L 234.999 232.584 L 234.089 233.209 L 233.194 233.856 L 232.315 234.524 L 231.452 235.215 L 230.607 235.926 L 229.780 236.657 L 228.971 237.409 L 228.180 238.180 L 227.409 238.971 L 226.657 239.780 L 225.926 240.607 L 225.215 241.452 L 224.524 242.315 L 223.856 243.194 L 223.209 244.089 L 222.584 244.999 L 221.982 245.925 L 221.402 246.865 L 220.846 247.820 L 220.314 248.787 L 219.805 249.767 L 219.320 250.760 L 218.861 251.764 L 218.425 252.779 L 218.015 253.805 L 217.631 254.840 L 217.271 255.884 L 216.938 256.937 L 216.630 257.998 L 216.349 259.066 L 216.093 260.140 L 215.865 261.221 L 215.663 262.307 L 215.487 263.397 L 215.338 264.492 L 215.217 265.589 L 215.122 266.690 L 215.054 267.792 L 215.014 268.896 L 215.000 270.000 L 215.014 271.104 L 215.054 272.208 L 215.122 273.310 L 215.217 274.411 L 215.338 275.508 L 215.487 276.603 L 215.663 277.693 L 215.865 278.779 L 216.093 279.860 L 216.349 280.934 L 216.630 282.002 L 216.938 283.063 L 217.271 284.116 L 217.631 285.160 L 218.015 286.195 L 218.425 287.221 L 218.861 288.236 L 219.320 289.240 L 219.805 290.233 L 220.314 291.213 L 220.846 292.180 L 221.402 293.135 L 221.982 294.075 L 222.584 295.001 L 223.209 295.911 L 223.856 296.806 L 224.524 297.685 L 225.215 298.548 L 225.926 299.393 L 226.657 300.220 L 227.409 301.029 L 228.180 301.820 L 228.971 302.591 L 229.780 303.343 L 230.607 304.074 L 231.452 304.785 L 232.315 305.476 L 233.194 306.144 L 234.089 306.791 L 234.999 307.416 L 235.925 308.018 L 236.865 308.598 L 237.820 309.154 L 238.787 309.686 L 239.767 310.195 L 240.760 310.680 L 241.764 311.139 L 242.779 311.575 L 243.805 311.985 L 244.840 312.369 L 245.884 312.729 L 246.937 313.062 L 247.998 313.370 L 249.066 313.651 L 250.140 313.907 L 251.221 314.135 L 252.307 314.337 L 253.397 314.513 L 254.492 314.662 L 255.000 314.718 L 255.000 780.000 L 255.014 781.104 L 255.054 782.208 L 255.122 783.310 L 255.217 784.411 L 255.338 785.508 L 255.487 786.603 L 255.663 787.693 L 255.865 788.779 L 256.093 789.860 L 256.349 790.934 L 256.630 792.002 L 256.938 793.063 L 257.271 794.116 L 257.631 795.160 L 258.015 796.195 L 258.425 797.221 L 258.861 798.236 L 259.320 799.240 L 259.805 800.233 L 260.314 801.213 L 260.846 802.180 L 261.402 803.135 L 261.982 804.075 L 262.584 805.001 L 263.209 805.911 L 263.856 806.806 L 264.524 807.685 L 265.215 808.548 L 265.926 809.393 L 266.657 810.220 L 267.409 811.029 L 268.180 811.820 L 268.971 812.591 L 269.780 813.343 L 270.607 814.074 L 271.452 814.785 L 272.315 815.476 L 273.194 816.144 L 274.089 816.791 L 274.999 817.416 L 275.925 818.018 L 276.865 818.598 L 277.820 819.154 L 278.787 819.686 L 279.767 820.195 L 280.760 820.680 L 281.764 821.139 L 282.779 821.575 L 283.805 821.985 L 284.840 822.369 L 285.884 822.729 L 286.937 823.062 L 287.998 823.370 L 289.066 823.651 L 290.140 823.907 L 291.221 824.135 L 292.307 824.337 L 293.397 824.513 L 294.492 824.662 L 295.589 824.783 L 296.690 824.878 L 297.792 824.946 L 298.896 824.986 L 300.000 825.000 L 301.104 824.986 L 302.208 824.946 L 303.310 824.878 L 304.411 824.783 L 305.508 824.662 L 306.603 824.513 L 307.693 824.337 L 308.779 824.135 L 309.860 823.907 L 310.934 823.651 L 312.002 823.370 L 313.063 823.062 L 314.116 822.729 L 315.160 822.369 L 316.195 821.985 L 317.221 821.575 L 318.236 821.139 L 319.240 820.680 L 320.233 820.195 L 321.213 819.686 L 322.180 819.154 L 323.135 818.598 L 324.075 818.018 L 325.001 817.416 L 325.911 816.791 L 326.806 816.144 L 327.685 815.476 L 328.548 814.785 L 329.393 814.074 L 330.220 813.343 L 331.029 812.591 L 331.820 811.820 L 332.591 811.029 L 333.343 810.220 L 334.074 809.393 L 334.785 808.548 L 335.476 807.685 L 336.144 806.806 L 336.791 805.911 L 337.416 805.001 L 338.018 804.075 L 338.598 803.135 L 339.154 802.180 L 339.686 801.213 L 340.195 800.233 L 340.680 799.240 L 341.139 798.236 L 341.575 797.221 L 341.985 796.195 L 342.369 795.160 L 342.729 794.116 L 343.062 793.063 L 343.370 792.002 L 343.651 790.934 L 343.907 789.860 L 344.135 788.779 L 344.337 787.693 L 344.513 786.603 L 344.662 785.508 L 344.783 784.411 L 344.878 783.310 L 344.946 782.208 L 344.986 781.104 L 345.000 780.000 L 345.000 315.000 L 540.000 315.000 L 541.104 314.986 Z" fill="black" fill-rule="evenodd"/>
</svg>
