<svg xmlns="http://www.w3.org/2000/svg" viewBox="0 0 600.000 1000">
  <path d="M 486.144 396.806 L 486.397 396.457 L 486.652 396.108 L 486.721 396.009 L 486.791 395.911 L 487.035 395.556 L 487.281 395.201 L 487.348 395.100 L 487.416 395.001 L 487.651 394.639 L 487.889 394.279 L 487.953 394.176 L 488.018 394.075 L 488.245 393.708 L 488.473 393.341 L 488.534 393.237 L 488.598 393.135 L 488.815 392.762 L 489.034 392.390 L 489.093 392.285 L 489.154 392.180 L 489.362 391.802 L 489.572 391.425 L 489.628 391.319 L 489.686 391.213 L 489.885 390.830 L 490.086 390.448 L 490.139 390.340 L 490.195 390.233 L 490.384 389.845 L 490.576 389.458 L 490.627 389.348 L 490.680 389.240 L 490.859 388.848 L 491.041 388.456 L 491.089 388.346 L 491.139 388.236 L 491.309 387.839 L 491.482 387.444 L 491.527 387.332 L 491.575 387.221 L 491.735 386.820 L 491.897 386.420 L 491.940 386.307 L 491.985 386.195 L 492.135 385.791 L 492.288 385.387 L 492.327 385.273 L 492.369 385.160 L 492.510 384.752 L 492.652 384.345 L 492.689 384.230 L 492.729 384.116 L 492.859 383.704 L 492.992 383.294 L 493.026 383.178 L 493.062 383.063 L 493.183 382.648 L 493.305 382.235 L 493.336 382.118 L 493.370 382.002 L 493.480 381.585 L 493.592 381.168 L 493.621 381.051 L 493.651 380.934 L 493.751 380.514 L 493.853 380.095 L 493.879 379.977 L 493.907 379.860 L 493.996 379.437 L 494.088 379.016 L 494.110 378.897 L 494.135 378.779 L 494.214 378.355 L 494.296 377.931 L 494.315 377.812 L 494.337 377.693 L 494.406 377.267 L 494.477 376.842 L 494.494 376.722 L 494.513 376.603 L 494.571 376.175 L 494.631 375.748 L 494.645 375.628 L 494.662 375.508 L 494.709 375.080 L 494.759 374.651 L 494.770 374.531 L 494.783 374.411 L 494.820 373.981 L 494.860 373.551 L 494.868 373.431 L 494.878 373.310 L 494.905 372.880 L 494.933 372.449 L 494.938 372.329 L 494.946 372.208 L 494.962 371.777 L 494.980 371.346 L 494.982 371.225 L 494.986 371.104 L 494.992 370.673 L 494.999 370.241 L 494.999 370.121 L 495.000 370.000 L 494.995 369.569 L 494.992 369.137 L 494.988 369.016 L 494.986 368.896 L 494.971 368.464 L 494.957 368.033 L 494.950 367.913 L 494.946 367.792 L 494.919 367.361 L 494.895 366.930 L 494.885 366.810 L 494.878 366.690 L 494.841 366.260 L 494.806 365.830 L 494.794 365.710 L 494.783 365.589 L 494.736 365.160 L 494.690 364.731 L 494.675 364.612 L 494.662 364.492 L 494.604 364.064 L 494.548 363.636 L 494.529 363.517 L 494.513 363.397 L 494.444 362.971 L 494.378 362.545 L 494.357 362.426 L 494.337 362.307 L 494.259 361.882 L 494.182 361.458 L 494.157 361.340 L 494.135 361.221 L 494.046 360.799 L 493.959 360.376 L 493.932 360.259 L 493.907 360.140 L 493.807 359.721 L 493.709 359.300 L 493.679 359.183 L 493.651 359.066 L 493.541 358.649 L 493.434 358.231 L 493.401 358.115 L 493.370 357.998 L 493.250 357.583 L 493.132 357.168 L 493.096 357.053 L 493.062 356.937 L 492.932 356.526 L 492.804 356.114 L 492.765 355.999 L 492.729 355.884 L 492.588 355.476 L 492.450 355.067 L 492.409 354.954 L 492.369 354.840 L 492.219 354.435 L 492.071 354.030 L 492.027 353.918 L 491.985 353.805 L 491.824 353.404 L 491.666 353.003 L 491.619 352.891 L 491.575 352.779 L 491.405 352.383 L 491.237 351.985 L 491.187 351.875 L 491.139 351.764 L 490.960 351.372 L 490.782 350.979 L 490.730 350.870 L 490.680 350.760 L 490.490 350.372 L 490.303 349.983 L 490.248 349.876 L 490.195 349.767 L 489.996 349.384 L 489.800 349.000 L 489.742 348.894 L 489.686 348.787 L 489.478 348.409 L 489.272 348.030 L 489.212 347.925 L 489.154 347.820 L 488.937 347.447 L 488.721 347.073 L 488.659 346.970 L 488.598 346.865 L 488.371 346.498 L 488.147 346.129 L 488.082 346.028 L 488.018 345.925 L 487.783 345.563 L 487.550 345.200 L 487.482 345.101 L 487.416 344.999 L 487.172 344.644 L 486.930 344.286 L 486.860 344.188 L 486.791 344.089 L 486.539 343.739 L 486.288 343.388 L 486.215 343.291 L 486.144 343.194 L 485.883 342.850 L 485.624 342.505 L 485.549 342.411 L 485.476 342.315 L 485.206 341.978 L 484.938 341.639 L 484.861 341.547 L 484.785 341.452 L 484.508 341.122 L 484.232 340.790 L 484.152 340.700 L 484.074 340.607 L 483.789 340.284 L 483.504 339.959 L 483.423 339.870 L 483.343 339.780 L 483.049 339.464 L 482.757 339.146 L 482.673 339.059 L 482.591 338.971 L 482.290 338.662 L 481.990 338.351 L 481.904 338.267 L 481.820 338.180 L 481.511 337.879 L 481.204 337.576 L 481.116 337.493 L 481.029 337.409 L 480.713 337.115 L 480.399 336.820 L 480.309 336.739 L 480.220 336.657 L 479.897 336.371 L 479.575 336.084 L 479.483 336.006 L 479.393 335.926 L 479.063 335.648 L 478.734 335.368 L 478.640 335.292 L 478.548 335.215 L 478.211 334.945 L 477.875 334.673 L 477.780 334.600 L 477.685 334.524 L 477.342 334.263 L 477.000 334.000 L 476.903 333.929 L 476.806 333.856 L 476.457 333.603 L 476.108 333.348 L 476.009 333.279 L 475.911 333.209 L 475.556 332.965 L 475.201 332.719 L 475.100 332.652 L 475.001 332.584 L 474.639 332.349 L 474.279 332.111 L 474.176 332.047 L 474.075 331.982 L 473.708 331.755 L 473.341 331.527 L 473.237 331.466 L 473.135 331.402 L 472.762 331.185 L 472.390 330.966 L 472.285 330.907 L 472.180 330.846 L 471.802 330.638 L 471.425 330.428 L 471.319 330.372 L 471.213 330.314 L 470.830 330.115 L 470.448 329.914 L 470.340 329.861 L 470.233 329.805 L 469.845 329.616 L 469.458 329.424 L 469.348 329.373 L 469.240 329.320 L 468.848 329.141 L 468.456 328.959 L 468.346 328.911 L 468.236 328.861 L 467.839 328.691 L 467.444 328.518 L 467.332 328.473 L 467.221 328.425 L 466.820 328.265 L 466.420 328.103 L 466.307 328.060 L 466.195 328.015 L 465.791 327.865 L 465.387 327.712 L 465.273 327.673 L 465.160 327.631 L 464.752 327.490 L 464.345 327.348 L 464.230 327.311 L 464.116 327.271 L 463.704 327.141 L 463.294 327.008 L 463.178 326.974 L 463.063 326.938 L 462.648 326.817 L 462.235 326.695 L 462.118 326.664 L 462.002 326.630 L 461.585 326.520 L 461.168 326.408 L 461.051 326.379 L 460.934 326.349 L 460.514 326.249 L 460.095 326.147 L 459.977 326.121 L 459.860 326.093 L 459.437 326.004 L 459.016 325.912 L 458.897 325.890 L 458.779 325.865 L 458.355 325.786 L 457.931 325.704 L 457.812 325.685 L 457.693 325.663 L 457.267 325.594 L 456.842 325.523 L 456.722 325.506 L 456.603 325.487 L 456.175 325.429 L 455.748 325.369 L 455.628 325.355 L 455.508 325.338 L 455.080 325.291 L 454.651 325.241 L 454.531 325.230 L 454.411 325.217 L 453.981 325.180 L 453.551 325.140 L 453.431 325.132 L 453.310 325.122 L 452.880 325.095 L 452.449 325.067 L 452.329 325.062 L 452.208 325.054 L 451.777 325.038 L 451.346 325.020 L 451.225 325.018 L 451.104 325.014 L 450.673 325.008 L 450.241 325.001 L 450.121 325.001 L 450.000 325.000 L 150.000 325.000 L 148.896 325.014 L 147.792 325.054 L 146.690 325.122 L 145.589 325.217 L 144.492 325.338 L 143.397 325.487 L 142.307 325.663 L 141.221 325.865 L 140.140 326.093 L 139.066 326.349 L 137.998 326.630 L 136.937 326.938 L 135.884 327.271 L 134.840 327.631 L 133.805 328.015 L 132.779 328.425 L 131.764 328.861 L 130.760 329.320 L 129.767 329.805 L 128.787 330.314 L 127.820 330.846 L 126.865 331.402 L 125.925 331.982 L 124.999 332.584 L 124.089 333.209 L 123.194 333.856 L 122.315 334.524 L 121.452 335.215 L 120.607 335.926 L 119.780 336.657 L 118.971 337.409 L 118.180 338.180 L 117.409 338.971 L 116.657 339.780 L 115.926 340.607 L 115.215 341.452 L 114.524 342.315 L 113.856 343.194 L 113.209 344.089 L 112.584 344.999 L 111.982 345.925 L 111.402 346.865 L 110.846 347.820 L 110.314 348.787 L 109.805 349.767 L 109.320 350.760 L 108.861 351.764 L 108.425 352.779 L 108.015 353.805 L 107.631 354.840 L 107.271 355.884 L 106.938 356.937 L 106.630 357.998 L 106.349 359.066 L 106.093 360.140 L 105.865 361.221 L 105.663 362.307 L 105.487 363.397 L 105.338 364.492 L 105.217 365.589 L 105.122 366.690 L 105.054 367.792 L 105.014 368.896 L 105.000 370.000 L 105.014 371.104 L 105.054 372.208 L 105.122 373.310 L 105.217 374.411 L 105.338 375.508 L 105.487 376.603 L 105.663 377.693 L 105.865 378.779 L 106.093 379.860 L 106.349 380.934 L 106.630 382.002 L 106.938 383.063 L 107.271 384.116 L 107.631 385.160 L 108.015 386.195 L 108.425 387.221 L 108.861 388.236 L 109.320 389.240 L 109.805 390.233 L 110.314 391.213 L 110.846 392.180 L 111.402 393.135 L 111.982 394.075 L 112.584 395.001 L 113.209 395.911 L 113.856 396.806 L 114.524 397.685 L 115.215 398.548 L 115.926 399.393 L 116.657 400.220 L 117.409 401.029 L 118.180 401.820 L 118.971 402.591 L 119.780 403.343 L 120.607 404.074 L 121.452 404.785 L 122.315 405.476 L 123.194 406.144 L 124.089 406.791 L 124.999 407.416 L 125.925 408.018 L 126.865 408.598 L 127.820 409.154 L 128.787 409.686 L 129.767 410.195 L 130.760 410.680 L 131.764 411.139 L 132.779 411.575 L 133.805 411.985 L 134.840 412.369 L 135.884 412.729 L 136.937 413.062 L 137.998 413.370 L 139.066 413.651 L 140.140 413.907 L 141.221 414.135 L 142.307 414.337 L 143.397 414.513 L 144.492 414.662 L 145.589 414.783 L 146.690 414.878 L 147.792 414.946 L 148.896 414.986 L 150.000 415.000 L 360.000 415.000 L 114.000 743.000 L 113.929 743.097 L 113.856 743.194 L 113.603 743.543 L 113.348 743.892 L 113.279 743.991 L 113.209 744.089 L 112.965 744.444 L 112.719 744.799 L 112.652 744.900 L 112.584 744.999 L 112.349 745.361 L 112.111 745.721 L 112.047 745.824 L 111.982 745.925 L 111.755 746.292 L 111.527 746.659 L 111.466 746.763 L 111.402 746.865 L 111.185 747.238 L 110.966 747.610 L 110.907 747.715 L 110.846 747.820 L 110.638 748.198 L 110.428 748.575 L 110.372 748.681 L 110.314 748.787 L 110.115 749.170 L 109.914 749.552 L 109.861 749.660 L 109.805 749.767 L 109.616 750.155 L 109.424 750.542 L 109.373 750.652 L 109.320 750.760 L 109.141 751.152 L 108.959 751.544 L 108.911 751.654 L 108.861 751.764 L 108.691 752.161 L 108.518 752.556 L 108.473 752.668 L 108.425 752.779 L 108.265 753.180 L 108.103 753.580 L 108.060 753.693 L 108.015 753.805 L 107.865 754.209 L 107.712 754.613 L 107.673 754.727 L 107.631 754.840 L 107.490 755.248 L 107.348 755.655 L 107.311 755.770 L 107.271 755.884 L 107.141 756.296 L 107.008 756.706 L 106.974 756.822 L 106.938 756.937 L 106.817 757.352 L 106.695 757.765 L 106.664 757.882 L 106.630 757.998 L 106.520 758.415 L 106.408 758.832 L 106.379 758.949 L 106.349 759.066 L 106.249 759.486 L 106.147 759.905 L 106.121 760.023 L 106.093 760.140 L 106.004 760.563 L 105.912 760.984 L 105.890 761.103 L 105.865 761.221 L 105.786 761.645 L 105.704 762.069 L 105.685 762.188 L 105.663 762.307 L 105.594 762.733 L 105.523 763.158 L 105.506 763.278 L 105.487 763.397 L 105.429 763.825 L 105.369 764.252 L 105.355 764.372 L 105.338 764.492 L 105.291 764.920 L 105.241 765.349 L 105.230 765.469 L 105.217 765.589 L 105.180 766.019 L 105.140 766.449 L 105.132 766.569 L 105.122 766.690 L 105.095 767.120 L 105.067 767.551 L 105.062 767.671 L 105.054 767.792 L 105.038 768.223 L 105.020 768.654 L 105.018 768.775 L 105.014 768.896 L 105.008 769.327 L 105.001 769.759 L 105.001 769.879 L 105.000 770.000 L 105.005 770.431 L 105.008 770.863 L 105.012 770.984 L 105.014 771.104 L 105.029 771.536 L 105.043 771.967 L 105.050 772.087 L 105.054 772.208 L 105.081 772.639 L 105.105 773.070 L 105.115 773.190 L 105.122 773.310 L 105.159 773.740 L 105.194 774.170 L 105.206 774.290 L 105.217 774.411 L 105.264 774.840 L 105.310 775.269 L 105.325 775.388 L 105.338 775.508 L 105.396 775.936 L 105.452 776.364 L 105.471 776.483 L 105.487 776.603 L 105.556 777.029 L 105.622 777.455 L 105.643 777.574 L 105.663 777.693 L 105.741 778.118 L 105.818 778.542 L 105.843 778.660 L 105.865 778.779 L 105.954 779.201 L 106.041 779.624 L 106.068 779.741 L 106.093 779.860 L 106.193 780.279 L 106.291 780.700 L 106.321 780.817 L 106.349 780.934 L 106.459 781.351 L 106.566 781.769 L 106.599 781.885 L 106.630 782.002 L 106.750 782.417 L 106.868 782.832 L 106.904 782.947 L 106.938 783.063 L 107.068 783.474 L 107.196 783.886 L 107.235 784.001 L 107.271 784.116 L 107.412 784.524 L 107.550 784.933 L 107.591 785.046 L 107.631 785.160 L 107.781 785.565 L 107.929 785.970 L 107.973 786.082 L 108.015 786.195 L 108.176 786.596 L 108.334 786.997 L 108.381 787.109 L 108.425 787.221 L 108.595 787.617 L 108.763 788.015 L 108.813 788.125 L 108.861 788.236 L 109.040 788.628 L 109.218 789.021 L 109.270 789.130 L 109.320 789.240 L 109.510 789.628 L 109.697 790.017 L 109.752 790.124 L 109.805 790.233 L 110.004 790.616 L 110.200 791.000 L 110.258 791.106 L 110.314 791.213 L 110.522 791.591 L 110.728 791.970 L 110.788 792.075 L 110.846 792.180 L 111.063 792.553 L 111.279 792.927 L 111.341 793.030 L 111.402 793.135 L 111.629 793.502 L 111.853 793.871 L 111.918 793.972 L 111.982 794.075 L 112.217 794.437 L 112.450 794.800 L 112.518 794.899 L 112.584 795.001 L 112.828 795.356 L 113.070 795.714 L 113.140 795.812 L 113.209 795.911 L 113.461 796.261 L 113.712 796.612 L 113.785 796.709 L 113.856 796.806 L 114.117 797.150 L 114.376 797.495 L 114.451 797.589 L 114.524 797.685 L 114.794 798.022 L 115.062 798.361 L 115.139 798.453 L 115.215 798.548 L 115.492 798.878 L 115.768 799.210 L 115.848 799.300 L 115.926 799.393 L 116.211 799.716 L 116.496 800.041 L 116.577 800.130 L 116.657 800.220 L 116.951 800.536 L 117.243 800.854 L 117.327 800.941 L 117.409 801.029 L 117.710 801.338 L 118.010 801.649 L 118.096 801.733 L 118.180 801.820 L 118.489 802.121 L 118.796 802.424 L 118.884 802.507 L 118.971 802.591 L 119.287 802.885 L 119.601 803.180 L 119.691 803.261 L 119.780 803.343 L 120.103 803.629 L 120.425 803.916 L 120.517 803.994 L 120.607 804.074 L 120.937 804.352 L 121.266 804.632 L 121.360 804.708 L 121.452 804.785 L 121.789 805.055 L 122.125 805.327 L 122.220 805.400 L 122.315 805.476 L 122.658 805.737 L 123.000 806.000 L 123.097 806.071 L 123.194 806.144 L 123.543 806.397 L 123.892 806.652 L 123.991 806.721 L 124.089 806.791 L 124.444 807.035 L 124.799 807.281 L 124.900 807.348 L 124.999 807.416 L 125.361 807.651 L 125.721 807.889 L 125.824 807.953 L 125.925 808.018 L 126.292 808.245 L 126.659 808.473 L 126.763 808.534 L 126.865 808.598 L 127.238 808.815 L 127.610 809.034 L 127.715 809.093 L 127.820 809.154 L 128.198 809.362 L 128.575 809.572 L 128.681 809.628 L 128.787 809.686 L 129.170 809.885 L 129.552 810.086 L 129.660 810.139 L 129.767 810.195 L 130.155 810.384 L 130.542 810.576 L 130.652 810.627 L 130.760 810.680 L 131.152 810.859 L 131.544 811.041 L 131.654 811.089 L 131.764 811.139 L 132.161 811.309 L 132.556 811.482 L 132.668 811.527 L 132.779 811.575 L 133.180 811.735 L 133.580 811.897 L 133.693 811.940 L 133.805 811.985 L 134.209 812.135 L 134.613 812.288 L 134.727 812.327 L 134.840 812.369 L 135.248 812.510 L 135.655 812.652 L 135.770 812.689 L 135.884 812.729 L 136.296 812.859 L 136.706 812.992 L 136.822 813.026 L 136.937 813.062 L 137.352 813.183 L 137.765 813.305 L 137.882 813.336 L 137.998 813.370 L 138.415 813.480 L 138.832 813.592 L 138.949 813.621 L 139.066 813.651 L 139.486 813.751 L 139.905 813.853 L 140.023 813.879 L 140.140 813.907 L 140.563 813.996 L 140.984 814.088 L 141.103 814.110 L 141.221 814.135 L 141.645 814.214 L 142.069 814.296 L 142.188 814.315 L 142.307 814.337 L 142.733 814.406 L 143.158 814.477 L 143.278 814.494 L 143.397 814.513 L 143.825 814.571 L 144.252 814.631 L 144.372 814.645 L 144.492 814.662 L 144.920 814.709 L 145.349 814.759 L 145.469 814.770 L 145.589 814.783 L 146.019 814.820 L 146.449 814.860 L 146.569 814.868 L 146.690 814.878 L 147.120 814.905 L 147.551 814.933 L 147.671 814.938 L 147.792 814.946 L 148.223 814.962 L 148.654 814.980 L 148.775 814.982 L 148.896 814.986 L 149.327 814.992 L 149.759 814.999 L 149.879 814.999 L 150.000 815.000 L 450.000 815.000 L 451.104 814.986 L 452.208 814.946 L 453.310 814.878 L 454.411 814.783 L 455.508 814.662 L 456.603 814.513 L 457.693 814.337 L 458.779 814.135 L 459.860 813.907 L 460.934 813.651 L 462.002 813.370 L 463.063 813.062 L 464.116 812.729 L 465.160 812.369 L 466.195 811.985 L 467.221 811.575 L 468.236 811.139 L 469.240 810.680 L 470.233 810.195 L 471.213 809.686 L 472.180 809.154 L 473.135 808.598 L 474.075 808.018 L 475.001 807.416 L 475.911 806.791 L 476.806 806.144 L 477.685 805.476 L 478.548 804.785 L 479.393 804.074 L 480.220 803.343 L 481.029 802.591 L 481.820 801.820 L 482.591 801.029 L 483.343 800.220 L 484.074 799.393 L 484.785 798.548 L 485.476 797.685 L 486.144 796.806 L 486.791 795.911 L 487.416 795.001 L 488.018 794.075 L 488.598 793.135 L 489.154 792.180 L 489.686 791.213 L 490.195 790.233 L 490.680 789.240 L 491.139 788.236 L 491.575 787.221 L 491.985 786.195 L 492.369 785.160 L 492.729 784.116 L 493.062 783.063 L 493.370 782.002 L 493.651 780.934 L 493.907 779.860 L 494.135 778.779 L 494.337 777.693 L 494.513 776.603 L 494.662 775.508 L 494.783 774.411 L 494.878 773.310 L 494.946 772.208 L 494.986 771.104 L 495.000 770.000 L 494.986 768.896 L 494.946 767.792 L 494.878 766.690 L 494.783 765.589 L 494.662 764.492 L 494.513 763.397 L 494.337 762.307 L 494.135 761.221 L 493.907 760.140 L 493.651 759.066 L 493.370 757.998 L 493.062 756.937 L 492.729 755.884 L 492.369 754.840 L 491.985 753.805 L 491.575 752.779 L 491.139 751.764 L 490.680 750.760 L 490.195 749.767 L 489.686 748.787 L 489.154 747.820 L 488.598 746.865 L 488.018 745.925 L 487.416 744.999 L 486.791 744.089 L 486.144 743.194 L 485.476 742.315 L 484.785 741.452 L 484.074 740.607 L 483.343 739.780 L 482.591 738.971 L 481.820 738.180 L 481.029 737.409 L 480.220 736.657 L 479.393 735.926 L 478.548 735.215 L 477.685 734.524 L 476.806 733.856 L 475.911 733.209 L 475.001 732.584 L 474.075 731.982 L 473.135 731.402 L 472.180 730.846 L 471.213 730.314 L 470.233 729.805 L 469.240 729.320 L 468.236 728.861 L 467.221 728.425 L 466.195 728.015 L 465.160 727.631 L 464.116 727.271 L 463.063 726.938 L 462.002 726.630 L 460.934 726.349 L 459.860 726.093 L 458.779 725.865 L 457.693 725.663 L 456.603 725.487 L 455.508 725.338 L 454.411 725.217 L 453.310 725.122 L 452.208 725.054 L 451.104 725.014 L 450.000 725.000 L 240.000 725.000 L 486.000 397.000 L 486.071 396.903 L 486.144 396.806 Z" fill="black" fill-rule="evenodd"/>
</svg>
