<svg xmlns="http://www.w3.org/2000/svg" viewBox="0 0 600.000 1000">
  <path d="M 235.014 781.104 L 235.054 782.208 L 235.122 783.310 L 235.217 784.411 L 235.338 785.508 L 235.487 786.603 L 235.663 787.693 L 235.865 788.779 L 236.093 789.860 L 236.349 790.934 L 236.630 792.002 L 236.938 793.063 L 237.271 794.116 L 237.631 795.160 L 238.015 796.195 L 238.425 797.221 L 238.861 798.236 L 239.320 799.240 L 239.805 800.233 L 240.314 801.213 L 240.846 802.180 L 241.402 803.135 L 241.982 804.075 L 242.584 805.001 L 243.209 805.911 L 243.856 806.806 L 244.524 807.685 L 245.215 808.548 L 245.926 809.393 L 246.657 810.220 L 247.409 811.029 L 248.180 811.820 L 248.971 812.591 L 249.780 813.343 L 250.607 814.074 L 251.452 814.785 L 252.315 815.476 L 253.194 816.144 L 254.089 816.791 L 254.999 817.416 L 255.925 818.018 L 256.865 818.598 L 257.820 819.154 L 258.787 819.686 L 259.767 820.195 L 260.760 820.680 L 261.764 821.139 L 262.779 821.575 L 263.805 821.985 L 264.840 822.369 L 265.884 822.729 L 266.937 823.062 L 267.998 823.370 L 269.066 823.651 L 270.140 823.907 L 271.221 824.135 L 272.307 824.337 L 273.397 824.513 L 274.492 824.662 L 275.589 824.783 L 276.690 824.878 L 277.792 824.946 L 278.896 824.986 L 280.000 825.000 L 281.104 824.986 L 282.208 824.946 L 283.310 824.878 L 284.411 824.783 L 285.508 824.662 L 286.603 824.513 L 287.693 824.337 L 288.779 824.135 L 289.860 823.907 L 290.934 823.651 L 292.002 823.370 L 293.063 823.062 L 294.116 822.729 L 295.160 822.369 L 296.195 821.985 L 297.221 821.575 L 298.236 821.139 L 299.240 820.680 L 300.233 820.195 L 301.213 819.686 L 302.180 819.154 L 303.135 818.598 L 304.075 818.018 L 305.001 817.416 L 305.911 816.791 L 306.806 816.144 L 307.685 815.476 L 308.548 814.785 L 309.393 814.074 L 310.220 813.343 L 311.029 812.591 L 311.820 811.820 L 312.591 811.029 L 313.343 810.220 L 314.074 809.393 L 314.785 808.548 L 315.476 807.685 L 316.144 806.806 L 316.791 805.911 L 317.416 805.001 L 318.018 804.075 L 318.598 803.135 L 319.154 802.180 L 319.686 801.213 L 320.195 800.233 L 320.680 799.240 L 321.139 798.236 L 321.575 797.221 L 321.985 796.195 L 322.369 795.160 L 322.729 794.116 L 323.062 793.063 L 323.370 792.002 L 323.651 790.934 L 323.907 789.860 L 324.135 788.779 L 324.337 787.693 L 324.513 786.603 L 324.662 785.508 L 324.783 784.411 L 324.878 783.310 L 324.946 782.208 L 324.986 781.104 L 325.000 780.000 L 325.000 510.000 L 450.000 510.000 L 451.104 509.986 L 452.208 509.946 L 453.310 509.878 L 454.411 509.783 L 455.508 509.662 L 456.603 509.513 L 457.693 509.337 L 458.779 509.135 L 459.860 508.907 L 460.934 508.651 L 462.002 508.370 L 463.063 508.062 L 464.116 507.729 L 465.160 507.369 L 466.195 506.985 L 467.221 506.575 L 468.236 506.139 L 469.240 505.680 L 470.233 505.195 L 471.213 504.686 L 472.180 504.154 L 473.135 503.598 L 474.075 503.018 L 475.001 502.416 L 475.911 501.791 L 476.806 501.144 L 477.685 500.476 L 478.548 499.785 L 479.393 499.074 L 480.220 498.343 L 481.029 497.591 L 481.820 496.820 L 482.591 496.029 L 483.343 495.220 L 484.074 494.393 L 484.785 493.548 L 485.476 492.685 L 486.144 491.806 L 486.791 490.911 L 487.416 490.001 L 488.018 489.075 L 488.598 488.135 L 489.154 487.180 L 489.686 486.213 L 490.195 485.233 L 490.680 484.240 L 491.139 483.236 L 491.575 482.221 L 491.985 481.195 L 492.369 480.160 L 492.729 479.116 L 493.062 478.063 L 493.370 477.002 L 493.651 475.934 L 493.907 474.860 L 494.135 473.779 L 494.337 472.693 L 494.513 471.603 L 494.662 470.508 L 494.783 469.411 L 494.878 468.310 L 494.946 467.208 L 494.986 466.104 L 495.000 465.000 L 494.986 463.896 L 494.946 462.792 L 494.878 461.690 L 494.783 460.589 L 494.662 459.492 L 494.513 458.397 L 494.337 457.307 L 494.135 456.221 L 493.907 455.140 L 493.651 454.066 L 493.370 452.998 L 493.062 451.937 L 492.729 450.884 L 492.369 449.840 L 491.985 448.805 L 491.575 447.779 L 491.139 446.764 L 490.680 445.760 L 490.195 444.767 L 489.686 443.787 L 489.154 442.820 L 488.598 441.865 L 488.018 440.925 L 487.416 439.999 L 486.791 439.089 L 486.144 438.194 L 485.476 437.315 L 484.785 436.452 L 484.074 435.607 L 483.343 434.780 L 482.591 433.971 L 481.820 433.180 L 481.029 432.409 L 480.220 431.657 L 479.393 430.926 L 478.548 430.215 L 477.685 429.524 L 476.806 428.856 L 475.911 428.209 L 475.001 427.584 L 474.075 426.982 L 473.135 426.402 L 472.180 425.846 L 471.213 425.314 L 470.233 424.805 L 469.240 424.320 L 468.236 423.861 L 467.221 423.425 L 466.195 423.015 L 465.160 422.631 L 464.116 422.271 L 463.063 421.938 L 462.002 421.630 L 460.934 421.349 L 459.860 421.093 L 458.779 420.865 L 457.693 420.663 L 456.603 420.487 L 455.508 420.338 L 454.411 420.217 L 453.310 420.122 L 452.208 420.054 L 451.104 420.014 L 450.000 420.000 L 325.000 420.000 L 325.000 50.000 L 324.986 48.896 L 324.946 47.792 L 324.878 46.690 L 324.783 45.589 L 324.662 44.492 L 324.513 43.397 L 324.337 42.307 L 324.135 41.221 L 323.907 40.140 L 323.651 39.066 L 323.370 37.998 L 323.062 36.937 L 322.729 35.884 L 322.369 34.840 L 321.985 33.805 L 321.575 32.779 L 321.139 31.764 L 320.680 30.760 L 320.195 29.767 L 319.686 28.787 L 319.154 27.820 L 318.598 26.865 L 318.018 25.925 L 317.416 24.999 L 316.791 24.089 L 316.144 23.194 L 315.476 22.315 L 314.785 21.452 L 314.074 20.607 L 313.343 19.780 L 312.591 18.971 L 311.820 18.180 L 311.029 17.409 L 310.220 16.657 L 309.393 15.926 L 308.548 15.215 L 307.685 14.524 L 306.806 13.856 L 305.911 13.209 L 305.001 12.584 L 304.075 11.982 L 303.135 11.402 L 302.180 10.846 L 301.213 10.314 L 300.233 9.805 L 299.240 9.320 L 298.236 8.861 L 297.221 8.425 L 296.195 8.015 L 295.160 7.631 L 294.116 7.271 L 293.063 6.938 L 292.002 6.630 L 290.934 6.349 L 289.860 6.093 L 288.779 5.865 L 287.693 5.663 L 286.603 5.487 L 285.508 5.338 L 284.411 5.217 L 283.310 5.122 L 282.208 5.054 L 281.104 5.014 L 280.000 5.000 L 278.896 5.014 L 277.792 5.054 L 276.690 5.122 L 275.589 5.217 L 274.492 5.338 L 273.397 5.487 L 272.307 5.663 L 271.221 5.865 L 270.140 6.093 L 269.066 6.349 L 267.998 6.630 L 266.937 6.938 L 265.884 7.271 L 264.840 7.631 L 263.805 8.015 L 262.779 8.425 L 261.764 8.861 L 260.760 9.320 L 259.767 9.805 L 258.787 10.314 L 257.820 10.846 L 256.865 11.402 L 255.925 11.982 L 254.999 12.584 L 254.089 13.209 L 253.194 13.856 L 252.315 14.524 L 251.452 15.215 L 250.607 15.926 L 249.780 16.657 L 248.971 17.409 L 248.180 18.180 L 247.409 18.971 L 246.657 19.780 L 245.926 20.607 L 245.215 21.452 L 244.524 22.315 L 243.856 23.194 L 243.209 24.089 L 242.584 24.999 L 241.982 25.925 L 241.402 26.865 L 240.846 27.820 L 240.314 28.787 L 239.805 29.767 L 239.320 30.760 L 238.861 31.764 L 238.425 32.779 L 238.015 33.805 L 237.631 34.840 L 237.271 35.884 L 236.938 36.937 L 236.630 37.998 L 236.349 39.066 L 236.093 40.140 L 235.865 41.221 L 235.663 42.307 L 235.487 43.397 L 235.338 44.492 L 235.217 45.589 L 235.122 46.690 L 235.054 47.792 L 235.014 48.896 L 235.000 50.000 L 235.000 420.000 L 150.000 420.000 L 148.896 420.014 L 147.792 420.054 L 146.690 420.122 L 145.589 420.217 L 144.492 420.338 L 143.397 420.487 L 142.307 420.663 L 141.221 420.865 L 140.140 421.093 L 139.066 421.349 L 137.998 421.630 L 136.937 421.938 L 135.884 422.271 L 134.840 422.631 L 133.805 423.015 L 132.779 423.425 L 131.764 423.861 L 130.760 424.320 L 129.767 424.805 L 128.787 425.314 L 127.820 425.846 L 126.865 426.402 L 125.925 426.982 L 124.999 427.584 L 124.089 428.209 L 123.194 428.856 L 122.315 429.524 L 121.452 430.215 L 120.607 430.926 L 119.780 431.657 L 118.971 432.409 L 118.180 433.180 L 117.409 433.971 L 116.657 434.780 L 115.926 435.607 L 115.215 436.452 L 114.524 437.315 L 113.856 438.194 L 113.209 439.089 L 112.584 439.999 L 111.982 440.925 L 111.402 441.865 L 110.846 442.820 L 110.314 443.787 L 109.805 444.767 L 109.320 445.760 L 108.861 446.764 L 108.425 447.779 L 108.015 448.805 L 107.631 449.840 L 107.271 450.884 L 106.938 451.937 L 106.630 452.998 L 106.349 454.066 L 106.093 455.140 L 105.865 456.221 L 105.663 457.307 L 105.487 458.397 L 105.338 459.492 L 105.217 460.589 L 105.122 461.690 L 105.054 462.792 L 105.014 463.896 L 105.000 465.000 L 105.014 466.104 L 105.054 467.208 L 105.122 468.310 L 105.217 469.411 L 105.338 470.508 L 105.487 471.603 L 105.663 472.693 L 105.865 473.779 L 106.093 474.860 L 106.349 475.934 L 106.630 477.002 L 106.938 478.063 L 107.271 479.116 L 107.631 480.160 L 108.015 481.195 L 108.425 482.221 L 108.861 483.236 L 109.320 484.240 L 109.805 485.233 L 110.314 486.213 L 110.846 487.180 L 111.402 488.135 L 111.982 489.075 L 112.584 490.001 L 113.209 490.911 L 113.856 491.806 L 114.524 492.685 L 115.215 493.548 L 115.926 494.393 L 116.657 495.220 L 117.409 496.029 L 118.180 496.820 L 118.971 497.591 L 119.780 498.343 L 120.607 499.074 L 121.452 499.785 L 122.315 500.476 L 123.194 501.144 L 124.089 501.791 L 124.999 502.416 L 125.925 503.018 L 126.865 503.598 L 127.820 504.154 L 128.787 504.686 L 129.767 505.195 L 130.760 505.680 L 131.764 506.139 L 132.779 506.575 L 133.805 506.985 L 134.840 507.369 L 135.884 507.729 L 136.937 508.062 L 137.998 508.370 L 139.066 508.651 L 140.140 508.907 L 141.221 509.135 L 142.307 509.337 L 143.397 509.513 L 144.492 509.662 L 145.589 509.783 L 146.690 509.878 L 147.792 509.946 L 148.896 509.986 L 150.000 510.000 L 235.000 510.000 L 235.000 780.000 L 235.014 781.104 Z" fill="black" fill-rule="evenodd"/>
</svg>
