<svg xmlns="http://www.w3.org/2000/svg" width="600.000" height="1000" viewBox="0 0 600.000 1000">
  <path d="M 35.054 782.208 L 35.122 783.310 L 35.217 784.411 L 35.338 785.508 L 35.487 786.603 L 35.663 787.693 L 35.865 788.779 L 36.093 789.860 L 36.349 790.934 L 36.630 792.002 L 36.938 793.063 L 37.271 794.116 L 37.631 795.160 L 38.015 796.195 L 38.425 797.221 L 38.861 798.236 L 39.320 799.240 L 39.805 800.233 L 40.314 801.213 L 40.846 802.180 L 41.402 803.135 L 41.982 804.075 L 42.584 805.001 L 43.209 805.911 L 43.856 806.806 L 44.524 807.685 L 45.215 808.548 L 45.926 809.393 L 46.657 810.220 L 47.409 811.029 L 48.180 811.820 L 48.971 812.591 L 49.780 813.343 L 50.607 814.074 L 51.452 814.785 L 52.315 815.476 L 53.194 816.144 L 54.089 816.791 L 54.999 817.416 L 55.925 818.018 L 56.865 818.598 L 57.820 819.154 L 58.787 819.686 L 59.767 820.195 L 60.760 820.680 L 61.764 821.139 L 62.779 821.575 L 63.805 821.985 L 64.840 822.369 L 65.884 822.729 L 66.937 823.062 L 67.998 823.370 L 69.066 823.651 L 70.140 823.907 L 71.221 824.135 L 72.307 824.337 L 73.397 824.513 L 74.492 824.662 L 75.589 824.783 L 76.690 824.878 L 77.792 824.946 L 78.896 824.986 L 80.000 825.000 L 300.000 825.000 L 520.000 825.000 L 521.104 824.986 L 522.208 824.946 L 523.310 824.878 L 524.411 824.783 L 525.508 824.662 L 526.603 824.513 L 527.693 824.337 L 528.779 824.135 L 529.860 823.907 L 530.934 823.651 L 532.002 823.370 L 533.063 823.062 L 534.116 822.729 L 535.160 822.369 L 536.195 821.985 L 537.221 821.575 L 538.236 821.139 L 539.240 820.680 L 540.233 820.195 L 541.213 819.686 L 542.180 819.154 L 543.135 818.598 L 544.075 818.018 L 545.001 817.416 L 545.911 816.791 L 546.806 816.144 L 547.685 815.476 L 548.548 814.785 L 549.393 814.074 L 550.220 813.343 L 551.029 812.591 L 551.820 811.820 L 552.591 811.029 L 553.343 810.220 L 554.074 809.393 L 554.785 808.548 L 555.476 807.685 L 556.144 806.806 L 556.791 805.911 L 557.416 805.001 L 558.018 804.075 L 558.598 803.135 L 559.154 802.180 L 559.686 801.213 L 560.195 800.233 L 560.680 799.240 L 561.139 798.236 L 561.575 797.221 L 561.985 796.195 L 562.369 795.160 L 562.729 794.116 L 563.062 793.063 L 563.370 792.002 L 563.651 790.934 L 563.907 789.860 L 564.135 788.779 L 564.337 787.693 L 564.513 786.603 L 564.662 785.508 L 564.783 784.411 L 564.878 783.310 L 564.946 782.208 L 564.986 781.104 L 565.000 780.000 L 565.000 395.000 L 564.986 393.896 L 564.946 392.792 L 564.878 391.690 L 564.783 390.589 L 564.662 389.492 L 564.513 388.397 L 564.337 387.307 L 564.135 386.221 L 563.907 385.140 L 563.651 384.066 L 563.370 382.998 L 563.062 381.937 L 562.729 380.884 L 562.369 379.840 L 561.985 378.805 L 561.575 377.779 L 561.139 376.764 L 560.680 375.760 L 560.195 374.767 L 559.686 373.787 L 559.154 372.820 L 558.598 371.865 L 558.018 370.925 L 557.416 369.999 L 556.791 369.089 L 556.144 368.194 L 555.476 367.315 L 554.785 366.452 L 554.074 365.607 L 553.343 364.780 L 552.591 363.971 L 551.820 363.180 L 551.029 362.409 L 550.220 361.657 L 549.393 360.926 L 548.548 360.215 L 547.685 359.524 L 546.806 358.856 L 545.911 358.209 L 545.001 357.584 L 544.075 356.982 L 543.135 356.402 L 542.180 355.846 L 541.213 355.314 L 540.233 354.805 L 539.240 354.320 L 538.236 353.861 L 537.221 353.425 L 536.195 353.015 L 535.160 352.631 L 534.116 352.271 L 533.063 351.938 L 532.002 351.630 L 530.934 351.349 L 529.860 351.093 L 528.779 350.865 L 527.693 350.663 L 526.603 350.487 L 525.508 350.338 L 524.411 350.217 L 523.310 350.122 L 522.208 350.054 L 521.104 350.014 L 520.000 350.000 L 518.896 350.014 L 517.792 350.054 L 516.690 350.122 L 515.589 350.217 L 514.492 350.338 L 513.397 350.487 L 512.307 350.663 L 511.221 350.865 L 510.140 351.093 L 509.066 351.349 L 507.998 351.630 L 506.937 351.938 L 505.884 352.271 L 504.840 352.631 L 503.805 353.015 L 502.779 353.425 L 501.764 353.861 L 500.760 354.320 L 499.767 354.805 L 498.787 355.314 L 497.820 355.846 L 496.865 356.402 L 495.925 356.982 L 494.999 357.584 L 494.089 358.209 L 493.194 358.856 L 492.315 359.524 L 491.452 360.215 L 490.607 360.926 L 489.780 361.657 L 488.971 362.409 L 488.180 363.180 L 487.409 363.971 L 486.657 364.780 L 485.926 365.607 L 485.215 366.452 L 484.524 367.315 L 483.856 368.194 L 483.209 369.089 L 482.584 369.999 L 481.982 370.925 L 481.402 371.865 L 480.846 372.820 L 480.314 373.787 L 479.805 374.767 L 479.320 375.760 L 478.861 376.764 L 478.425 377.779 L 478.015 378.805 L 477.631 379.840 L 477.271 380.884 L 476.938 381.937 L 476.630 382.998 L 476.349 384.066 L 476.093 385.140 L 475.865 386.221 L 475.663 387.307 L 475.487 388.397 L 475.338 389.492 L 475.217 390.589 L 475.122 391.690 L 475.054 392.792 L 475.014 393.896 L 475.000 395.000 L 475.000 735.000 L 345.000 735.000 L 345.000 395.000 L 344.986 393.896 L 344.946 392.792 L 344.878 391.690 L 344.783 390.589 L 344.662 389.492 L 344.513 388.397 L 344.337 387.307 L 344.135 386.221 L 343.907 385.140 L 343.651 384.066 L 343.370 382.998 L 343.062 381.937 L 342.729 380.884 L 342.369 379.840 L 341.985 378.805 L 341.575 377.779 L 341.139 376.764 L 340.680 375.760 L 340.195 374.767 L 339.686 373.787 L 339.154 372.820 L 338.598 371.865 L 338.018 370.925 L 337.416 369.999 L 336.791 369.089 L 336.144 368.194 L 335.476 367.315 L 334.785 366.452 L 334.074 365.607 L 333.343 364.780 L 332.591 363.971 L 331.820 363.180 L 331.029 362.409 L 330.220 361.657 L 329.393 360.926 L 328.548 360.215 L 327.685 359.524 L 326.806 358.856 L 325.911 358.209 L 325.001 357.584 L 324.075 356.982 L 323.135 356.402 L 322.180 355.846 L 321.213 355.314 L 320.233 354.805 L 319.240 354.320 L 318.236 353.861 L 317.221 353.425 L 316.195 353.015 L 315.160 352.631 L 314.116 352.271 L 313.063 351.938 L 312.002 351.630 L 310.934 351.349 L 309.860 351.093 L 308.779 350.865 L 307.693 350.663 L 306.603 350.487 L 305.508 350.338 L 304.411 350.217 L 303.310 350.122 L 302.208 350.054 L 301.104 350.014 L 300.000 350.000 L 298.896 350.014 L 297.792 350.054 L 296.690 350.122 L 295.589 350.217 L 294.492 350.338 L 293.397 350.487 L 292.307 350.663 L 291.221 350.865 L 290.140 351.093 L 289.066 351.349 L 287.998 351.630 L 286.937 351.938 L 285.884 352.271 L 284.840 352.631 L 283.805 353.015 L 282.779 353.425 L 281.764 353.861 L 280.760 354.320 L 279.767 354.805 L 278.787 355.314 L 277.820 355.846 L 276.865 356.402 L 275.925 356.982 L 274.999 357.584 L 274.089 358.209 L 273.194 358.856 L 272.315 359.524 L 271.452 360.215 L 270.607 360.926 L 269.780 361.657 L 268.971 362.409 L 268.180 363.180 L 267.409 363.971 L 266.657 364.780 L 265.926 365.607 L 265.215 366.452 L 264.524 367.315 L 263.856 368.194 L 263.209 369.089 L 262.584 369.999 L 261.982 370.925 L 261.402 371.865 L 260.846 372.820 L 260.314 373.787 L 259.805 374.767 L 259.320 375.760 L 258.861 376.764 L 258.425 377.779 L 258.015 378.805 L 257.631 379.840 L 257.271 380.884 L 256.938 381.937 L 256.630 382.998 L 256.349 384.066 L 256.093 385.140 L 255.865 386.221 L 255.663 387.307 L 255.487 388.397 L 255.338 389.492 L 255.217 390.589 L 255.122 391.690 L 255.054 392.792 L 255.014 393.896 L 255.000 395.000 L 255.000 735.000 L 125.000 735.000 L 125.000 395.000 L 124.986 393.896 L 124.946 392.792 L 124.878 391.690 L 124.783 390.589 L 124.662 389.492 L 124.513 388.397 L 124.337 387.307 L 124.135 386.221 L 123.907 385.140 L 123.651 384.066 L 123.370 382.998 L 123.062 381.937 L 122.729 380.884 L 122.369 379.840 L 121.985 378.805 L 121.575 377.779 L 121.139 376.764 L 120.680 375.760 L 120.195 374.767 L 119.686 373.787 L 119.154 372.820 L 118.598 371.865 L 118.018 370.925 L 117.416 369.999 L 116.791 369.089 L 116.144 368.194 L 115.476 367.315 L 114.785 366.452 L 114.074 365.607 L 113.343 364.780 L 112.591 363.971 L 111.820 363.180 L 111.029 362.409 L 110.220 361.657 L 109.393 360.926 L 108.548 360.215 L 107.685 359.524 L 106.806 358.856 L 105.911 358.209 L 105.001 357.584 L 104.075 356.982 L 103.135 356.402 L 102.180 355.846 L 101.213 355.314 L 100.233 354.805 L 99.240 354.320 L 98.236 353.861 L 97.221 353.425 L 96.195 353.015 L 95.160 352.631 L 94.116 352.271 L 93.063 351.938 L 92.002 351.630 L 90.934 351.349 L 89.860 351.093 L 88.779 350.865 L 87.693 350.663 L 86.603 350.487 L 85.508 350.338 L 84.411 350.217 L 83.310 350.122 L 82.208 350.054 L 81.104 350.014 L 80.000 350.000 L 78.896 350.014 L 77.792 350.054 L 76.690 350.122 L 75.589 350.217 L 74.492 350.338 L 73.397 350.487 L 72.307 350.663 L 71.221 350.865 L 70.140 351.093 L 69.066 351.349 L 67.998 351.630 L 66.937 351.938 L 65.884 352.271 L 64.840 352.631 L 63.805 353.015 L 62.779 353.425 L 61.764 353.861 L 60.760 354.320 L 59.767 354.805 L 58.787 355.314 L 57.820 355.846 L 56.865 356.402 L 55.925 356.982 L 54.999 357.584 L 54.089 358.209 L 53.194 358.856 L 52.315 359.524 L 51.452 360.215 L 50.607 360.926 L 49.780 361.657 L 48.971 362.409 L 48.180 363.180 L 47.409 363.971 L 46.657 364.780 L 45.926 365.607 L 45.215 366.452 L 44.524 367.315 L 43.856 368.194 L 43.209 369.089 L 42.584 369.999 L 41.982 370.925 L 41.402 371.865 L 40.846 372.820 L 40.314 373.787 L 39.805 374.767 L 39.320 375.760 L 38.861 376.764 L 38.425 377.779 L 38.015 378.805 L 37.631 379.840 L 37.271 380.884 L 36.938 381.937 L 36.630 382.998 L 36.349 384.066 L 36.093 385.140 L 35.865 386.221 L 35.663 387.307 L 35.487 388.397 L 35.338 389.492 L 35.217 390.589 L 35.122 391.690 L 35.054 392.792 L 35.014 393.896 L 35.000 395.000 L 35.000 780.000 L 35.014 781.104 L 35.054 782.208 Z" fill="black" fill-rule="evenodd"/>
</svg>
