<svg xmlns="http://www.w3.org/2000/svg" viewBox="0 0 600.000 1000">
  <path d="M 198.018 644.075 L 198.598 643.135 L 199.154 642.180 L 199.686 641.213 L 200.195 640.233 L 200.680 639.240 L 201.139 638.236 L 201.575 637.221 L 201.985 636.195 L 202.369 635.160 L 202.729 634.116 L 203.062 633.063 L 203.370 632.002 L 203.651 630.934 L 203.907 629.860 L 204.135 628.779 L 204.337 627.693 L 204.513 626.603 L 204.662 625.508 L 204.783 624.411 L 204.878 623.310 L 204.946 622.208 L 204.986 621.104 L 205.000 620.000 L 205.000 260.000 L 204.986 258.896 L 204.946 257.792 L 204.878 256.690 L 204.783 255.589 L 204.662 254.492 L 204.513 253.397 L 204.337 252.307 L 204.135 251.221 L 203.907 250.140 L 203.651 249.066 L 203.370 247.998 L 203.062 246.937 L 202.729 245.884 L 202.369 244.840 L 201.985 243.805 L 201.575 242.779 L 201.139 241.764 L 200.680 240.760 L 200.195 239.767 L 199.686 238.787 L 199.154 237.820 L 198.598 236.865 L 198.018 235.925 L 197.416 234.999 L 196.791 234.089 L 196.144 233.194 L 195.476 232.315 L 194.785 231.452 L 194.074 230.607 L 193.343 229.780 L 192.591 228.971 L 191.820 228.180 L 191.029 227.409 L 190.220 226.657 L 189.393 225.926 L 188.548 225.215 L 187.685 224.524 L 186.806 223.856 L 185.911 223.209 L 185.001 222.584 L 184.075 221.982 L 183.135 221.402 L 182.180 220.846 L 181.213 220.314 L 180.233 219.805 L 179.240 219.320 L 178.236 218.861 L 177.221 218.425 L 176.195 218.015 L 175.160 217.631 L 174.116 217.271 L 173.063 216.938 L 172.002 216.630 L 170.934 216.349 L 169.860 216.093 L 168.779 215.865 L 167.693 215.663 L 166.603 215.487 L 165.508 215.338 L 164.411 215.217 L 163.310 215.122 L 162.208 215.054 L 161.104 215.014 L 160.000 215.000 L 158.896 215.014 L 157.792 215.054 L 156.690 215.122 L 155.589 215.217 L 154.492 215.338 L 153.397 215.487 L 152.307 215.663 L 151.221 215.865 L 150.140 216.093 L 149.066 216.349 L 147.998 216.630 L 146.937 216.938 L 145.884 217.271 L 144.840 217.631 L 143.805 218.015 L 142.779 218.425 L 141.764 218.861 L 140.760 219.320 L 139.767 219.805 L 138.787 220.314 L 137.820 220.846 L 136.865 221.402 L 135.925 221.982 L 134.999 222.584 L 134.089 223.209 L 133.194 223.856 L 132.315 224.524 L 131.452 225.215 L 130.607 225.926 L 129.780 226.657 L 128.971 227.409 L 128.180 228.180 L 127.409 228.971 L 126.657 229.780 L 125.926 230.607 L 125.215 231.452 L 124.524 232.315 L 123.856 233.194 L 123.209 234.089 L 122.584 234.999 L 121.982 235.925 L 121.402 236.865 L 120.846 237.820 L 120.314 238.787 L 119.805 239.767 L 119.320 240.760 L 118.861 241.764 L 118.425 242.779 L 118.015 243.805 L 117.631 244.840 L 117.271 245.884 L 116.938 246.937 L 116.630 247.998 L 116.349 249.066 L 116.093 250.140 L 115.865 251.221 L 115.663 252.307 L 115.487 253.397 L 115.338 254.492 L 115.217 255.589 L 115.122 256.690 L 115.054 257.792 L 115.014 258.896 L 115.000 260.000 L 115.000 591.718 L 114.894 591.847 L 114.214 592.717 L 113.555 593.604 L 112.918 594.506 L 112.304 595.424 L 111.712 596.356 L 111.143 597.303 L 110.598 598.263 L 110.076 599.237 L 109.579 600.223 L 109.106 601.221 L 108.657 602.230 L 108.233 603.250 L 107.835 604.280 L 107.462 605.320 L 107.114 606.368 L 106.793 607.425 L 106.497 608.489 L 106.228 609.560 L 105.985 610.637 L 105.768 611.720 L 105.578 612.808 L 105.415 613.901 L 105.279 614.997 L 105.170 616.096 L 105.087 617.197 L 105.032 618.300 L 105.004 619.404 L 105.003 620.509 L 105.041 623.898 L 105.064 624.915 L 105.179 628.303 L 105.225 629.319 L 105.416 632.704 L 105.485 633.719 L 105.753 637.098 L 105.845 638.111 L 106.189 641.484 L 106.304 642.494 L 106.724 645.858 L 106.862 646.866 L 107.358 650.220 L 107.518 651.224 L 108.090 654.566 L 108.273 655.566 L 108.920 658.894 L 109.126 659.890 L 109.848 663.202 L 110.076 664.193 L 110.873 667.489 L 111.123 668.474 L 111.995 671.751 L 112.267 672.730 L 113.212 675.986 L 113.507 676.960 L 114.525 680.193 L 114.842 681.160 L 115.933 684.369 L 116.271 685.329 L 117.435 688.513 L 117.794 689.464 L 119.030 692.621 L 119.411 693.564 L 120.717 696.692 L 121.119 697.626 L 122.496 700.725 L 122.919 701.649 L 124.366 704.715 L 124.810 705.630 L 126.325 708.663 L 126.790 709.568 L 128.373 712.565 L 128.858 713.459 L 130.509 716.420 L 131.014 717.303 L 132.731 720.226 L 133.256 721.097 L 135.039 723.981 L 135.584 724.840 L 137.431 727.682 L 137.995 728.529 L 139.906 731.329 L 140.489 732.162 L 142.463 734.918 L 143.064 735.738 L 145.100 738.449 L 145.720 739.256 L 147.817 741.920 L 148.455 742.712 L 150.611 745.328 L 151.267 746.105 L 153.481 748.672 L 154.155 749.434 L 156.427 751.950 L 157.117 752.697 L 159.445 755.161 L 160.152 755.892 L 162.536 758.303 L 163.259 759.018 L 165.697 761.374 L 166.436 762.073 L 168.926 764.374 L 169.681 765.055 L 172.222 767.299 L 172.992 767.963 L 175.584 770.149 L 176.368 770.796 L 179.009 772.922 L 179.808 773.551 L 182.496 775.618 L 183.309 776.228 L 186.042 778.233 L 186.869 778.826 L 189.648 780.768 L 190.488 781.342 L 193.309 783.221 L 194.162 783.775 L 197.025 785.591 L 197.890 786.126 L 200.794 787.876 L 201.670 788.391 L 204.613 790.075 L 205.501 790.570 L 208.481 792.187 L 209.380 792.662 L 212.395 794.211 L 213.305 794.666 L 216.355 796.147 L 217.275 796.580 L 220.357 797.992 L 221.286 798.405 L 224.400 799.746 L 225.338 800.138 L 228.481 801.409 L 229.429 801.780 L 232.599 802.979 L 233.555 803.328 L 236.752 804.455 L 237.715 804.783 L 240.937 805.838 L 241.907 806.143 L 245.151 807.125 L 246.128 807.409 L 249.394 808.317 L 250.377 808.578 L 253.663 809.412 L 254.652 809.651 L 257.956 810.411 L 258.949 810.628 L 262.270 811.313 L 263.268 811.507 L 266.603 812.117 L 267.605 812.288 L 270.953 812.822 L 271.959 812.971 L 275.318 813.429 L 276.327 813.556 L 279.696 813.938 L 280.708 814.041 L 284.084 814.347 L 285.098 814.428 L 288.480 814.657 L 289.496 814.715 L 292.882 814.868 L 293.899 814.902 L 297.288 814.979 L 298.305 814.990 L 301.695 814.990 L 302.712 814.979 L 306.101 814.902 L 307.118 814.868 L 310.504 814.715 L 311.520 814.657 L 314.902 814.428 L 315.916 814.347 L 319.292 814.041 L 320.304 813.938 L 323.673 813.556 L 324.682 813.429 L 328.041 812.971 L 329.047 812.822 L 332.395 812.288 L 333.397 812.117 L 336.732 811.507 L 337.730 811.313 L 341.051 810.628 L 342.044 810.411 L 345.348 809.651 L 346.337 809.412 L 349.623 808.578 L 350.606 808.317 L 353.872 807.409 L 354.849 807.125 L 358.093 806.143 L 359.063 805.838 L 362.285 804.783 L 363.248 804.455 L 366.445 803.328 L 367.401 802.979 L 370.571 801.780 L 371.519 801.409 L 374.662 800.138 L 375.600 799.746 L 378.714 798.405 L 379.643 797.992 L 382.725 796.580 L 383.645 796.147 L 386.695 794.666 L 387.605 794.211 L 390.620 792.662 L 391.519 792.187 L 394.499 790.570 L 395.387 790.075 L 398.330 788.391 L 399.206 787.876 L 402.110 786.126 L 402.975 785.591 L 405.838 783.775 L 406.691 783.221 L 409.512 781.342 L 410.352 780.768 L 413.131 778.826 L 413.958 778.233 L 416.691 776.228 L 417.504 775.618 L 420.192 773.551 L 420.991 772.922 L 423.632 770.796 L 424.416 770.149 L 427.008 767.963 L 427.778 767.299 L 430.319 765.055 L 431.074 764.374 L 433.564 762.073 L 434.303 761.374 L 436.741 759.018 L 437.464 758.303 L 439.848 755.892 L 440.555 755.161 L 442.883 752.697 L 443.573 751.950 L 445.845 749.434 L 446.519 748.672 L 448.733 746.105 L 449.389 745.328 L 451.545 742.712 L 452.183 741.920 L 454.280 739.256 L 454.900 738.449 L 456.936 735.738 L 457.537 734.918 L 459.511 732.162 L 460.094 731.329 L 462.005 728.529 L 462.569 727.682 L 464.416 724.840 L 464.961 723.981 L 466.744 721.097 L 467.269 720.226 L 468.986 717.303 L 469.491 716.420 L 471.142 713.459 L 471.627 712.565 L 473.210 709.568 L 473.675 708.663 L 475.190 705.630 L 475.634 704.715 L 477.081 701.649 L 477.504 700.725 L 478.881 697.626 L 479.283 696.692 L 480.589 693.564 L 480.970 692.621 L 482.206 689.464 L 482.565 688.513 L 483.729 685.329 L 484.067 684.369 L 485.158 681.160 L 485.475 680.193 L 486.493 676.960 L 486.788 675.986 L 487.733 672.730 L 488.005 671.751 L 488.877 668.474 L 489.127 667.489 L 489.924 664.193 L 490.152 663.202 L 490.874 659.890 L 491.080 658.894 L 491.727 655.566 L 491.910 654.566 L 492.482 651.224 L 492.497 651.125 L 492.591 651.029 L 493.343 650.220 L 494.074 649.393 L 494.785 648.548 L 495.476 647.685 L 496.144 646.806 L 496.791 645.911 L 497.416 645.001 L 498.018 644.075 L 498.598 643.135 L 499.154 642.180 L 499.686 641.213 L 500.195 640.233 L 500.680 639.240 L 501.139 638.236 L 501.575 637.221 L 501.985 636.195 L 502.369 635.160 L 502.729 634.116 L 503.062 633.063 L 503.370 632.002 L 503.651 630.934 L 503.907 629.860 L 504.135 628.779 L 504.337 627.693 L 504.513 626.603 L 504.662 625.508 L 504.783 624.411 L 504.878 623.310 L 504.946 622.208 L 504.986 621.104 L 505.000 620.000 L 505.000 260.000 L 504.986 258.896 L 504.946 257.792 L 504.878 256.690 L 504.783 255.589 L 504.662 254.492 L 504.513 253.397 L 504.337 252.307 L 504.135 251.221 L 503.907 250.140 L 503.651 249.066 L 503.370 247.998 L 503.062 246.937 L 502.729 245.884 L 502.369 244.840 L 501.985 243.805 L 501.575 242.779 L 501.139 241.764 L 500.680 240.760 L 500.195 239.767 L 499.686 238.787 L 499.154 237.820 L 498.598 236.865 L 498.018 235.925 L 497.416 234.999 L 496.791 234.089 L 496.144 233.194 L 495.476 232.315 L 494.785 231.452 L 494.074 230.607 L 493.343 229.780 L 492.591 228.971 L 491.820 228.180 L 491.029 227.409 L 490.220 226.657 L 489.393 225.926 L 488.548 225.215 L 487.685 224.524 L 486.806 223.856 L 485.911 223.209 L 485.001 222.584 L 484.075 221.982 L 483.135 221.402 L 482.180 220.846 L 481.213 220.314 L 480.233 219.805 L 479.240 219.320 L 478.236 218.861 L 477.221 218.425 L 476.195 218.015 L 475.160 217.631 L 474.116 217.271 L 473.063 216.938 L 472.002 216.630 L 470.934 216.349 L 469.860 216.093 L 468.779 215.865 L 467.693 215.663 L 466.603 215.487 L 465.508 215.338 L 464.411 215.217 L 463.310 215.122 L 462.208 215.054 L 461.104 215.014 L 460.000 215.000 L 458.896 215.014 L 457.792 215.054 L 456.690 215.122 L 455.589 215.217 L 454.492 215.338 L 453.397 215.487 L 452.307 215.663 L 451.221 215.865 L 450.140 216.093 L 449.066 216.349 L 447.998 216.630 L 446.937 216.938 L 445.884 217.271 L 444.840 217.631 L 443.805 218.015 L 442.779 218.425 L 441.764 218.861 L 440.760 219.320 L 439.767 219.805 L 438.787 220.314 L 437.820 220.846 L 436.865 221.402 L 435.925 221.982 L 434.999 222.584 L 434.089 223.209 L 433.194 223.856 L 432.315 224.524 L 431.452 225.215 L 430.607 225.926 L 429.780 226.657 L 428.971 227.409 L 428.180 228.180 L 427.409 228.971 L 426.657 229.780 L 425.926 230.607 L 425.215 231.452 L 424.524 232.315 L 423.856 233.194 L 423.209 234.089 L 422.584 234.999 L 421.982 235.925 L 421.402 236.865 L 420.846 237.820 L 420.314 238.787 L 419.805 239.767 L 419.320 240.760 L 418.861 241.764 L 418.425 242.779 L 418.015 243.805 L 417.631 244.840 L 417.271 245.884 L 416.938 246.937 L 416.630 247.998 L 416.349 249.066 L 416.093 250.140 L 415.865 251.221 L 415.663 252.307 L 415.487 253.397 L 415.338 254.492 L 415.217 255.589 L 415.122 256.690 L 415.054 257.792 L 415.014 258.896 L 415.000 260.000 L 415.000 591.720 L 414.840 591.915 L 414.161 592.787 L 413.504 593.675 L 412.869 594.578 L 412.256 595.497 L 411.666 596.431 L 411.099 597.379 L 410.556 598.340 L 410.036 599.315 L 409.540 600.302 L 409.069 601.300 L 408.623 602.311 L 408.201 603.331 L 407.805 604.362 L 407.433 605.402 L 407.088 606.451 L 406.768 607.509 L 406.475 608.573 L 406.208 609.645 L 405.967 610.723 L 405.752 611.806 L 405.565 612.895 L 405.404 613.987 L 405.269 615.083 L 405.162 616.183 L 405.082 617.284 L 405.029 618.387 L 405.003 619.491 L 404.970 622.373 L 404.890 624.745 L 404.756 627.114 L 404.568 629.479 L 404.327 631.840 L 404.033 634.195 L 403.686 636.542 L 403.285 638.881 L 402.832 641.211 L 402.327 643.529 L 401.769 645.836 L 401.159 648.129 L 400.497 650.408 L 399.785 652.672 L 399.021 654.918 L 398.206 657.147 L 397.342 659.357 L 396.427 661.547 L 395.464 663.715 L 394.452 665.862 L 393.391 667.985 L 392.283 670.083 L 391.127 672.156 L 389.925 674.202 L 388.677 676.220 L 387.384 678.210 L 386.046 680.170 L 384.665 682.099 L 383.240 683.997 L 381.772 685.861 L 380.263 687.693 L 378.712 689.489 L 377.122 691.250 L 375.492 692.975 L 373.823 694.662 L 372.117 696.312 L 370.374 697.922 L 368.595 699.493 L 366.781 701.023 L 364.933 702.511 L 363.052 703.957 L 361.138 705.361 L 359.194 706.721 L 357.219 708.036 L 355.215 709.307 L 353.182 710.532 L 351.123 711.711 L 349.037 712.843 L 346.926 713.927 L 344.791 714.964 L 342.634 715.952 L 340.455 716.891 L 338.255 717.780 L 336.035 718.620 L 333.797 719.409 L 331.542 720.147 L 329.270 720.835 L 326.984 721.470 L 324.684 722.054 L 322.371 722.586 L 320.047 723.066 L 317.713 723.492 L 315.370 723.866 L 313.018 724.187 L 310.660 724.455 L 308.297 724.669 L 305.930 724.830 L 303.559 724.937 L 301.187 724.990 L 298.813 724.990 L 296.441 724.937 L 294.070 724.830 L 291.703 724.669 L 289.340 724.455 L 286.982 724.187 L 284.630 723.866 L 282.287 723.492 L 279.953 723.066 L 277.629 722.586 L 275.316 722.054 L 273.016 721.470 L 270.730 720.835 L 268.458 720.147 L 266.203 719.409 L 263.965 718.620 L 261.745 717.780 L 259.545 716.891 L 257.366 715.952 L 255.209 714.964 L 253.074 713.927 L 250.963 712.843 L 248.877 711.711 L 246.818 710.532 L 244.785 709.307 L 242.781 708.036 L 240.806 706.721 L 238.862 705.361 L 236.948 703.957 L 235.067 702.511 L 233.219 701.023 L 231.405 699.493 L 229.626 697.922 L 227.883 696.312 L 226.177 694.662 L 224.508 692.975 L 222.878 691.250 L 221.288 689.489 L 219.737 687.693 L 218.228 685.861 L 216.760 683.997 L 215.335 682.099 L 213.954 680.170 L 212.616 678.210 L 211.323 676.220 L 210.075 674.202 L 208.873 672.156 L 207.717 670.083 L 206.609 667.985 L 205.548 665.862 L 204.536 663.715 L 203.573 661.547 L 202.658 659.357 L 201.794 657.147 L 200.979 654.918 L 200.215 652.672 L 199.503 650.408 L 198.841 648.129 L 198.231 645.836 L 197.863 644.314 L 198.018 644.075 Z" fill="black" fill-rule="evenodd"/>
</svg>
