<svg xmlns="http://www.w3.org/2000/svg" viewBox="0 0 600.000 1000">
  <path d="M 257.350 794.352 L 257.713 795.390 L 258.102 796.418 L 258.516 797.437 L 258.954 798.446 L 259.417 799.443 L 259.904 800.429 L 260.415 801.402 L 260.950 802.363 L 261.508 803.310 L 262.089 804.244 L 262.693 805.163 L 263.319 806.067 L 263.967 806.955 L 264.636 807.828 L 265.326 808.683 L 266.038 809.522 L 266.769 810.343 L 267.520 811.146 L 268.291 811.930 L 269.081 812.695 L 269.889 813.441 L 270.715 814.167 L 271.558 814.872 L 272.419 815.557 L 273.296 816.220 L 274.189 816.862 L 275.097 817.481 L 276.020 818.078 L 276.958 818.653 L 277.909 819.204 L 278.873 819.732 L 279.850 820.237 L 280.840 820.717 L 281.840 821.173 L 282.852 821.604 L 283.873 822.011 L 284.904 822.392 L 285.945 822.749 L 286.993 823.079 L 288.050 823.384 L 289.113 823.663 L 290.183 823.916 L 291.259 824.143 L 292.340 824.343 L 293.426 824.517 L 294.516 824.665 L 295.609 824.785 L 296.704 824.879 L 297.802 824.946 L 298.901 824.987 L 300.000 825.000 L 301.099 824.987 L 302.198 824.946 L 303.296 824.879 L 304.391 824.785 L 305.484 824.665 L 306.574 824.517 L 307.660 824.343 L 308.741 824.143 L 309.817 823.916 L 310.887 823.663 L 311.950 823.384 L 313.007 823.079 L 314.055 822.749 L 315.096 822.392 L 316.127 822.011 L 317.148 821.604 L 318.160 821.173 L 319.160 820.717 L 320.150 820.237 L 321.127 819.732 L 322.091 819.204 L 323.042 818.653 L 323.980 818.078 L 324.903 817.481 L 325.811 816.862 L 326.704 816.220 L 327.581 815.557 L 328.442 814.872 L 329.285 814.167 L 330.111 813.441 L 330.919 812.695 L 331.709 811.930 L 332.480 811.146 L 333.231 810.343 L 333.962 809.522 L 334.674 808.683 L 335.364 807.828 L 336.033 806.955 L 336.681 806.067 L 337.307 805.163 L 337.911 804.244 L 338.492 803.310 L 339.050 802.363 L 339.585 801.402 L 340.096 800.429 L 340.583 799.443 L 341.046 798.446 L 341.484 797.437 L 341.898 796.418 L 342.287 795.390 L 342.650 794.352 L 342.988 793.306 L 385.000 657.574 L 385.000 960.000 L 385.014 961.104 L 385.054 962.208 L 385.122 963.310 L 385.217 964.411 L 385.338 965.508 L 385.487 966.603 L 385.663 967.693 L 385.865 968.779 L 386.093 969.860 L 386.349 970.934 L 386.630 972.002 L 386.938 973.063 L 387.271 974.116 L 387.631 975.160 L 388.015 976.195 L 388.425 977.221 L 388.861 978.236 L 389.320 979.240 L 389.805 980.233 L 390.314 981.213 L 390.846 982.180 L 391.402 983.135 L 391.982 984.075 L 392.584 985.001 L 393.209 985.911 L 393.856 986.806 L 394.524 987.685 L 395.215 988.548 L 395.926 989.393 L 396.657 990.220 L 397.409 991.029 L 398.180 991.820 L 398.971 992.591 L 399.780 993.343 L 400.607 994.074 L 401.452 994.785 L 402.315 995.476 L 403.194 996.144 L 404.089 996.791 L 404.999 997.416 L 405.925 998.018 L 406.865 998.598 L 407.820 999.154 L 408.787 999.686 L 409.767 1000.195 L 410.760 1000.680 L 411.764 1001.139 L 412.779 1001.575 L 413.805 1001.985 L 414.840 1002.369 L 415.884 1002.729 L 416.937 1003.062 L 417.998 1003.370 L 419.066 1003.651 L 420.140 1003.907 L 421.221 1004.135 L 422.307 1004.337 L 423.397 1004.513 L 424.492 1004.662 L 425.589 1004.783 L 426.690 1004.878 L 427.792 1004.946 L 428.896 1004.986 L 430.000 1005.000 L 431.104 1004.986 L 432.208 1004.946 L 433.310 1004.878 L 434.411 1004.783 L 435.508 1004.662 L 436.603 1004.513 L 437.693 1004.337 L 438.779 1004.135 L 439.860 1003.907 L 440.934 1003.651 L 442.002 1003.370 L 443.063 1003.062 L 444.116 1002.729 L 445.160 1002.369 L 446.195 1001.985 L 447.221 1001.575 L 448.236 1001.139 L 449.240 1000.680 L 450.233 1000.195 L 451.213 999.686 L 452.180 999.154 L 453.135 998.598 L 454.075 998.018 L 455.001 997.416 L 455.911 996.791 L 456.806 996.144 L 457.685 995.476 L 458.548 994.785 L 459.393 994.074 L 460.220 993.343 L 461.029 992.591 L 461.820 991.820 L 462.591 991.029 L 463.343 990.220 L 464.074 989.393 L 464.785 988.548 L 465.476 987.685 L 466.144 986.806 L 466.791 985.911 L 467.416 985.001 L 468.018 984.075 L 468.598 983.135 L 469.154 982.180 L 469.686 981.213 L 470.195 980.233 L 470.680 979.240 L 471.139 978.236 L 471.575 977.221 L 471.985 976.195 L 472.369 975.160 L 472.729 974.116 L 473.062 973.063 L 473.370 972.002 L 473.651 970.934 L 473.907 969.860 L 474.135 968.779 L 474.337 967.693 L 474.513 966.603 L 474.662 965.508 L 474.783 964.411 L 474.878 963.310 L 474.946 962.208 L 474.986 961.104 L 475.000 960.000 L 475.000 360.000 L 474.995 359.575 L 474.992 359.150 L 474.988 359.023 L 474.986 358.896 L 474.971 358.471 L 474.958 358.046 L 474.950 357.919 L 474.946 357.792 L 474.920 357.368 L 474.896 356.943 L 474.886 356.816 L 474.878 356.690 L 474.842 356.266 L 474.808 355.842 L 474.794 355.716 L 474.783 355.589 L 474.736 355.167 L 474.692 354.744 L 474.676 354.618 L 474.662 354.492 L 474.604 354.070 L 474.550 353.649 L 474.530 353.523 L 474.513 353.397 L 474.445 352.977 L 474.380 352.557 L 474.358 352.432 L 474.337 352.307 L 474.260 351.889 L 474.184 351.470 L 474.159 351.346 L 474.135 351.221 L 474.047 350.805 L 473.962 350.389 L 473.933 350.265 L 473.907 350.140 L 473.808 349.727 L 473.712 349.313 L 473.681 349.190 L 473.651 349.066 L 473.543 348.655 L 473.437 348.243 L 473.402 348.121 L 473.370 347.998 L 473.252 347.590 L 473.135 347.181 L 473.098 347.059 L 473.062 346.937 L 472.934 346.532 L 472.808 346.126 L 472.767 346.005 L 472.729 345.884 L 472.590 345.482 L 472.454 345.079 L 472.411 344.960 L 472.369 344.840 L 472.221 344.441 L 472.075 344.042 L 472.029 343.924 L 471.985 343.805 L 471.827 343.410 L 471.671 343.014 L 471.622 342.897 L 471.575 342.779 L 471.407 342.388 L 471.242 341.997 L 471.189 341.881 L 471.139 341.764 L 470.962 341.378 L 470.788 340.990 L 470.732 340.876 L 470.680 340.760 L 470.493 340.378 L 470.309 339.995 L 470.251 339.882 L 470.195 339.767 L 469.999 339.390 L 469.806 339.012 L 469.745 338.900 L 469.686 338.787 L 469.481 338.415 L 469.279 338.041 L 469.215 337.931 L 469.154 337.820 L 468.940 337.452 L 468.728 337.084 L 468.662 336.975 L 468.598 336.865 L 468.375 336.503 L 468.154 336.140 L 468.085 336.033 L 468.018 335.925 L 467.787 335.569 L 467.557 335.211 L 467.485 335.106 L 467.416 334.999 L 467.176 334.649 L 466.937 334.297 L 466.863 334.193 L 466.791 334.089 L 466.542 333.744 L 466.295 333.398 L 466.219 333.297 L 466.144 333.194 L 465.887 332.855 L 465.631 332.515 L 465.553 332.416 L 465.476 332.315 L 465.210 331.983 L 464.946 331.649 L 464.865 331.552 L 464.785 331.452 L 464.512 331.127 L 464.240 330.800 L 464.156 330.704 L 464.074 330.607 L 463.793 330.289 L 463.513 329.969 L 463.427 329.875 L 463.343 329.780 L 463.053 329.468 L 462.766 329.155 L 462.678 329.064 L 462.591 328.971 L 462.294 328.666 L 461.999 328.360 L 461.909 328.271 L 461.820 328.180 L 461.515 327.883 L 461.213 327.585 L 461.120 327.498 L 461.029 327.409 L 460.718 327.120 L 460.408 326.828 L 460.313 326.744 L 460.220 326.657 L 459.902 326.376 L 459.585 326.092 L 459.488 326.010 L 459.393 325.926 L 459.067 325.652 L 458.744 325.376 L 458.645 325.296 L 458.548 325.215 L 458.216 324.949 L 457.885 324.681 L 457.785 324.604 L 457.685 324.524 L 457.347 324.267 L 457.010 324.008 L 456.908 323.933 L 456.806 323.856 L 456.462 323.607 L 456.119 323.356 L 456.014 323.283 L 455.911 323.209 L 455.561 322.968 L 455.212 322.726 L 455.105 322.656 L 455.001 322.584 L 454.644 322.352 L 454.289 322.118 L 454.181 322.051 L 454.075 321.982 L 453.713 321.759 L 453.352 321.533 L 453.243 321.469 L 453.135 321.402 L 452.767 321.188 L 452.401 320.972 L 452.290 320.910 L 452.180 320.846 L 451.808 320.641 L 451.437 320.434 L 451.324 320.375 L 451.213 320.314 L 450.835 320.118 L 450.459 319.920 L 450.345 319.863 L 450.233 319.805 L 449.850 319.618 L 449.469 319.430 L 449.354 319.376 L 449.240 319.320 L 448.853 319.143 L 448.468 318.964 L 448.351 318.913 L 448.236 318.861 L 447.845 318.693 L 447.455 318.523 L 447.338 318.475 L 447.221 318.425 L 446.826 318.268 L 446.432 318.107 L 446.313 318.063 L 446.195 318.015 L 445.797 317.867 L 445.399 317.717 L 445.279 317.675 L 445.160 317.631 L 444.758 317.492 L 444.357 317.352 L 444.236 317.313 L 444.116 317.271 L 443.710 317.143 L 443.306 317.012 L 443.184 316.976 L 443.063 316.938 L 442.654 316.819 L 442.247 316.699 L 442.124 316.665 L 442.002 316.630 L 441.591 316.522 L 441.180 316.411 L 441.057 316.381 L 440.934 316.349 L 440.520 316.250 L 440.107 316.150 L 439.983 316.123 L 439.860 316.093 L 439.444 316.005 L 439.028 315.915 L 438.903 315.891 L 438.779 315.865 L 438.361 315.787 L 437.944 315.707 L 437.818 315.686 L 437.693 315.663 L 437.274 315.595 L 436.854 315.525 L 436.728 315.507 L 436.603 315.487 L 436.182 315.430 L 435.761 315.370 L 435.634 315.356 L 435.508 315.338 L 435.086 315.292 L 434.664 315.242 L 434.537 315.231 L 434.411 315.217 L 433.987 315.180 L 433.564 315.141 L 433.437 315.133 L 433.310 315.122 L 432.886 315.096 L 432.462 315.067 L 432.335 315.062 L 432.208 315.054 L 431.783 315.039 L 431.358 315.021 L 431.231 315.018 L 431.104 315.014 L 430.679 315.008 L 430.254 315.001 L 430.127 315.002 L 430.000 315.000 L 429.575 315.005 L 429.150 315.008 L 429.023 315.012 L 428.896 315.014 L 428.471 315.029 L 428.046 315.042 L 427.919 315.050 L 427.792 315.054 L 427.368 315.080 L 426.943 315.104 L 426.816 315.114 L 426.690 315.122 L 426.266 315.158 L 425.842 315.192 L 425.716 315.206 L 425.589 315.217 L 425.167 315.264 L 424.744 315.308 L 424.618 315.324 L 424.492 315.338 L 424.070 315.396 L 423.649 315.450 L 423.523 315.470 L 423.397 315.487 L 422.977 315.555 L 422.557 315.620 L 422.432 315.642 L 422.307 315.663 L 421.889 315.740 L 421.470 315.816 L 421.346 315.841 L 421.221 315.865 L 420.805 315.953 L 420.389 316.038 L 420.265 316.067 L 420.140 316.093 L 419.727 316.192 L 419.313 316.288 L 419.190 316.319 L 419.066 316.349 L 418.655 316.457 L 418.243 316.563 L 418.121 316.598 L 417.998 316.630 L 417.590 316.748 L 417.181 316.865 L 417.059 316.902 L 416.937 316.938 L 416.532 317.066 L 416.126 317.192 L 416.005 317.233 L 415.884 317.271 L 415.482 317.410 L 415.079 317.546 L 414.960 317.589 L 414.840 317.631 L 414.441 317.779 L 414.042 317.925 L 413.924 317.971 L 413.805 318.015 L 413.410 318.173 L 413.014 318.329 L 412.897 318.378 L 412.779 318.425 L 412.388 318.593 L 411.997 318.758 L 411.881 318.811 L 411.764 318.861 L 411.378 319.038 L 410.990 319.212 L 410.876 319.268 L 410.760 319.320 L 410.378 319.507 L 409.995 319.691 L 409.882 319.749 L 409.767 319.805 L 409.390 320.001 L 409.012 320.194 L 408.900 320.255 L 408.787 320.314 L 408.415 320.519 L 408.041 320.721 L 407.931 320.785 L 407.820 320.846 L 407.452 321.060 L 407.084 321.272 L 406.975 321.338 L 406.865 321.402 L 406.503 321.625 L 406.140 321.846 L 406.033 321.915 L 405.925 321.982 L 405.569 322.213 L 405.211 322.443 L 405.106 322.515 L 404.999 322.584 L 404.649 322.824 L 404.297 323.063 L 404.193 323.137 L 404.089 323.209 L 403.744 323.458 L 403.398 323.705 L 403.297 323.781 L 403.194 323.856 L 402.855 324.113 L 402.515 324.369 L 402.416 324.447 L 402.315 324.524 L 401.983 324.790 L 401.649 325.054 L 401.552 325.135 L 401.452 325.215 L 401.127 325.488 L 400.800 325.760 L 400.704 325.844 L 400.607 325.926 L 400.289 326.207 L 399.969 326.487 L 399.875 326.573 L 399.780 326.657 L 399.468 326.947 L 399.155 327.234 L 399.064 327.322 L 398.971 327.409 L 398.666 327.706 L 398.360 328.001 L 398.271 328.091 L 398.180 328.180 L 397.883 328.485 L 397.585 328.787 L 397.498 328.880 L 397.409 328.971 L 397.120 329.282 L 396.828 329.592 L 396.744 329.687 L 396.657 329.780 L 396.376 330.098 L 396.092 330.415 L 396.010 330.512 L 395.926 330.607 L 395.652 330.933 L 395.376 331.256 L 395.296 331.355 L 395.215 331.452 L 394.949 331.784 L 394.681 332.115 L 394.604 332.215 L 394.524 332.315 L 394.267 332.653 L 394.008 332.990 L 393.933 333.092 L 393.856 333.194 L 393.607 333.538 L 393.356 333.881 L 393.283 333.986 L 393.209 334.089 L 392.968 334.439 L 392.726 334.788 L 392.656 334.895 L 392.584 334.999 L 392.352 335.356 L 392.118 335.711 L 392.051 335.819 L 391.982 335.925 L 391.759 336.287 L 391.533 336.648 L 391.469 336.757 L 391.402 336.865 L 391.188 337.233 L 390.972 337.599 L 390.910 337.710 L 390.846 337.820 L 390.641 338.192 L 390.434 338.563 L 390.375 338.676 L 390.314 338.787 L 390.118 339.165 L 389.920 339.541 L 389.863 339.655 L 389.805 339.767 L 389.618 340.150 L 389.430 340.531 L 389.376 340.646 L 389.320 340.760 L 389.143 341.147 L 388.964 341.532 L 388.913 341.649 L 388.861 341.764 L 388.693 342.155 L 388.523 342.545 L 388.475 342.662 L 388.425 342.779 L 388.268 343.174 L 388.107 343.568 L 388.063 343.687 L 388.015 343.805 L 387.867 344.203 L 387.717 344.601 L 387.675 344.721 L 387.631 344.840 L 387.492 345.242 L 387.352 345.643 L 387.313 345.764 L 387.271 345.884 L 387.143 346.290 L 387.012 346.694 L 300.000 627.810 L 212.988 346.694 L 212.648 345.643 L 212.283 344.601 L 211.893 343.568 L 211.477 342.545 L 211.036 341.532 L 210.570 340.531 L 210.080 339.541 L 209.566 338.563 L 209.028 337.599 L 208.467 336.648 L 207.882 335.711 L 207.274 334.788 L 206.644 333.881 L 205.992 332.990 L 205.319 332.115 L 204.624 331.256 L 203.908 330.415 L 203.172 329.592 L 202.415 328.787 L 201.640 328.001 L 200.845 327.234 L 200.031 326.487 L 199.200 325.760 L 198.351 325.054 L 197.485 324.369 L 196.602 323.705 L 195.703 323.063 L 194.789 322.443 L 193.860 321.846 L 192.916 321.272 L 191.959 320.721 L 190.988 320.194 L 190.005 319.691 L 189.010 319.212 L 188.003 318.758 L 186.986 318.329 L 185.958 317.925 L 184.921 317.546 L 183.874 317.192 L 182.819 316.865 L 181.757 316.563 L 180.687 316.288 L 179.611 316.038 L 178.530 315.816 L 177.443 315.620 L 176.351 315.450 L 175.256 315.308 L 174.158 315.192 L 173.057 315.104 L 171.954 315.042 L 170.850 315.008 L 169.746 315.001 L 168.642 315.021 L 167.538 315.067 L 166.436 315.141 L 165.336 315.242 L 164.239 315.370 L 163.146 315.525 L 162.056 315.707 L 160.972 315.915 L 159.893 316.150 L 158.820 316.411 L 157.753 316.699 L 156.694 317.012 L 155.643 317.352 L 154.601 317.717 L 153.568 318.107 L 152.545 318.523 L 151.532 318.964 L 150.531 319.430 L 149.541 319.920 L 148.563 320.434 L 147.599 320.972 L 146.648 321.533 L 145.711 322.118 L 144.788 322.726 L 143.881 323.356 L 142.990 324.008 L 142.115 324.681 L 141.256 325.376 L 140.415 326.092 L 139.592 326.828 L 138.787 327.585 L 138.001 328.360 L 137.234 329.155 L 136.487 329.969 L 135.760 330.800 L 135.054 331.649 L 134.369 332.515 L 133.705 333.398 L 133.063 334.297 L 132.443 335.211 L 131.846 336.140 L 131.272 337.084 L 130.721 338.041 L 130.194 339.012 L 129.691 339.995 L 129.212 340.990 L 128.758 341.997 L 128.329 343.014 L 127.925 344.042 L 127.546 345.079 L 127.192 346.126 L 126.865 347.181 L 126.563 348.243 L 126.288 349.313 L 126.038 350.389 L 125.816 351.470 L 125.620 352.557 L 125.450 353.649 L 125.308 354.744 L 125.192 355.842 L 125.104 356.943 L 125.042 358.046 L 125.008 359.150 L 125.001 360.254 L 125.021 361.358 L 125.067 362.462 L 125.141 363.564 L 125.242 364.664 L 125.370 365.761 L 125.525 366.854 L 125.707 367.944 L 125.915 369.028 L 126.150 370.107 L 126.411 371.180 L 126.699 372.247 L 127.012 373.306 L 257.012 793.306 L 257.350 794.352 Z" fill="black" fill-rule="evenodd"/>
</svg>
