<svg xmlns="http://www.w3.org/2000/svg" viewBox="0 0 600.000 1000">
  <path d="M 256.547 791.699 L 256.848 792.763 L 257.174 793.819 L 257.527 794.867 L 257.905 795.906 L 258.309 796.936 L 258.737 797.955 L 259.191 798.964 L 259.669 799.960 L 260.172 800.945 L 260.698 801.918 L 261.249 802.877 L 261.823 803.822 L 262.419 804.753 L 263.039 805.669 L 263.681 806.569 L 264.344 807.453 L 265.030 808.321 L 265.736 809.172 L 266.463 810.005 L 267.211 810.820 L 267.978 811.616 L 268.764 812.393 L 269.570 813.151 L 270.393 813.889 L 271.235 814.606 L 272.094 815.302 L 272.970 815.977 L 273.862 816.630 L 274.770 817.262 L 275.693 817.870 L 276.630 818.456 L 277.582 819.019 L 278.548 819.558 L 279.526 820.073 L 280.517 820.564 L 281.520 821.030 L 282.533 821.472 L 283.557 821.888 L 284.592 822.280 L 285.635 822.646 L 286.687 822.986 L 287.747 823.300 L 288.815 823.588 L 289.889 823.849 L 290.970 824.085 L 292.056 824.293 L 293.146 824.475 L 294.241 824.630 L 295.339 824.758 L 296.440 824.859 L 297.544 824.933 L 298.648 824.980 L 299.754 824.999 L 300.860 824.992 L 301.965 824.957 L 303.069 824.895 L 304.171 824.806 L 305.271 824.690 L 306.367 824.547 L 307.460 824.377 L 308.548 824.181 L 309.631 823.957 L 310.708 823.707 L 311.779 823.431 L 312.842 823.129 L 313.898 822.800 L 314.945 822.446 L 315.984 822.066 L 317.012 821.660 L 318.031 821.230 L 319.038 820.774 L 320.034 820.294 L 321.018 819.790 L 321.990 819.261 L 322.948 818.709 L 323.892 818.134 L 324.822 817.535 L 325.736 816.914 L 326.636 816.270 L 327.519 815.605 L 328.385 814.918 L 329.235 814.210 L 330.066 813.482 L 330.880 812.733 L 331.675 811.964 L 332.451 811.176 L 333.207 810.370 L 333.943 809.545 L 334.659 808.702 L 335.353 807.841 L 336.027 806.964 L 336.678 806.071 L 337.308 805.162 L 337.915 804.238 L 338.499 803.299 L 339.060 802.346 L 339.597 801.380 L 340.110 800.400 L 340.599 799.408 L 341.064 798.405 L 341.504 797.391 L 341.919 796.366 L 342.308 795.331 L 342.672 794.287 L 343.010 793.234 L 503.010 273.234 L 503.322 272.174 L 503.608 271.108 L 503.867 270.034 L 504.100 268.954 L 504.307 267.869 L 504.486 266.780 L 504.639 265.686 L 504.765 264.589 L 504.865 263.489 L 504.937 262.387 L 504.982 261.283 L 505.000 260.179 L 504.990 259.074 L 504.954 257.971 L 504.891 256.868 L 504.800 255.767 L 504.683 254.669 L 504.539 253.574 L 504.368 252.483 L 504.170 251.396 L 503.945 250.315 L 503.695 249.239 L 503.417 248.170 L 503.114 247.108 L 502.785 246.054 L 502.429 245.008 L 502.049 243.972 L 501.643 242.945 L 501.212 241.928 L 500.756 240.922 L 500.275 239.927 L 499.770 238.945 L 499.242 237.975 L 498.689 237.019 L 498.114 236.076 L 497.515 235.148 L 496.894 234.235 L 496.251 233.337 L 495.585 232.456 L 494.899 231.591 L 494.191 230.743 L 493.463 229.913 L 492.714 229.100 L 491.946 228.307 L 491.159 227.532 L 490.352 226.778 L 489.528 226.043 L 488.686 225.328 L 487.826 224.635 L 486.950 223.962 L 486.057 223.312 L 485.149 222.684 L 484.226 222.078 L 483.288 221.494 L 482.336 220.935 L 481.370 220.398 L 480.392 219.886 L 479.402 219.397 L 478.399 218.933 L 477.386 218.494 L 476.362 218.080 L 475.328 217.691 L 474.285 217.328 L 473.234 216.990 L 472.174 216.678 L 471.108 216.392 L 470.034 216.133 L 468.954 215.900 L 467.869 215.693 L 466.780 215.514 L 465.686 215.361 L 464.589 215.235 L 463.489 215.135 L 462.387 215.063 L 461.283 215.018 L 460.179 215.000 L 459.074 215.010 L 457.971 215.046 L 456.868 215.109 L 455.767 215.200 L 454.669 215.317 L 453.574 215.461 L 452.483 215.632 L 451.396 215.830 L 450.315 216.055 L 449.239 216.305 L 448.170 216.583 L 447.108 216.886 L 446.054 217.215 L 445.008 217.571 L 443.972 217.951 L 442.945 218.357 L 441.928 218.788 L 440.922 219.244 L 439.927 219.725 L 438.945 220.230 L 437.975 220.758 L 437.019 221.311 L 436.076 221.886 L 435.148 222.485 L 434.235 223.106 L 433.337 223.749 L 432.456 224.415 L 431.591 225.101 L 430.743 225.809 L 429.913 226.537 L 429.100 227.286 L 428.307 228.054 L 427.532 228.841 L 426.778 229.648 L 426.043 230.472 L 425.328 231.314 L 424.635 232.174 L 423.962 233.050 L 423.312 233.943 L 422.684 234.851 L 422.078 235.774 L 421.494 236.712 L 420.935 237.664 L 420.398 238.630 L 419.886 239.608 L 419.397 240.598 L 418.933 241.601 L 418.494 242.614 L 418.080 243.638 L 417.691 244.672 L 417.328 245.715 L 416.990 246.766 L 302.883 617.614 L 203.453 248.301 L 203.153 247.238 L 202.826 246.183 L 202.474 245.136 L 202.097 244.098 L 201.694 243.070 L 201.266 242.052 L 200.813 241.045 L 200.335 240.049 L 199.834 239.065 L 199.308 238.094 L 198.758 237.136 L 198.186 236.191 L 197.590 235.261 L 196.971 234.346 L 196.331 233.447 L 195.668 232.563 L 194.984 231.696 L 194.279 230.846 L 193.553 230.014 L 192.807 229.199 L 192.041 228.403 L 191.256 227.626 L 190.452 226.869 L 189.630 226.132 L 188.790 225.415 L 187.933 224.719 L 187.058 224.044 L 186.168 223.391 L 185.261 222.759 L 184.340 222.151 L 183.404 221.565 L 182.453 221.002 L 181.490 220.463 L 180.513 219.947 L 179.524 219.456 L 178.523 218.989 L 177.511 218.547 L 176.488 218.129 L 175.456 217.737 L 174.414 217.371 L 173.363 217.030 L 172.305 216.715 L 171.239 216.426 L 170.166 216.163 L 169.087 215.927 L 168.003 215.717 L 166.914 215.534 L 165.820 215.378 L 164.724 215.249 L 163.624 215.146 L 162.522 215.071 L 161.419 215.022 L 160.314 215.001 L 159.210 215.007 L 158.106 215.040 L 157.003 215.100 L 155.902 215.187 L 154.804 215.301 L 153.708 215.442 L 152.617 215.610 L 151.529 215.804 L 150.447 216.026 L 149.371 216.273 L 148.301 216.547 L 147.238 216.847 L 146.183 217.174 L 145.136 217.526 L 144.098 217.903 L 143.070 218.306 L 142.052 218.734 L 141.045 219.187 L 140.049 219.665 L 139.065 220.166 L 138.094 220.692 L 137.136 221.242 L 136.191 221.814 L 135.261 222.410 L 134.346 223.029 L 133.447 223.669 L 132.563 224.332 L 131.696 225.016 L 130.846 225.721 L 130.014 226.447 L 129.199 227.193 L 128.403 227.959 L 127.626 228.744 L 126.869 229.548 L 126.132 230.370 L 125.415 231.210 L 124.719 232.067 L 124.044 232.942 L 123.391 233.832 L 122.759 234.739 L 122.151 235.660 L 121.565 236.596 L 121.002 237.547 L 120.463 238.510 L 119.947 239.487 L 119.456 240.476 L 118.989 241.477 L 118.547 242.489 L 118.129 243.512 L 117.737 244.544 L 117.371 245.586 L 117.030 246.637 L 116.715 247.695 L 116.426 248.761 L 116.163 249.834 L 115.927 250.913 L 115.717 251.997 L 115.534 253.086 L 115.378 254.180 L 115.249 255.276 L 115.146 256.376 L 115.071 257.478 L 115.022 258.581 L 115.001 259.686 L 115.007 260.790 L 115.040 261.894 L 115.100 262.997 L 115.187 264.098 L 115.301 265.196 L 115.442 266.292 L 115.610 267.383 L 115.804 268.471 L 116.026 269.553 L 116.273 270.629 L 116.547 271.699 L 256.547 791.699 Z" fill="black" fill-rule="evenodd"/>
</svg>
