<svg xmlns="http://www.w3.org/2000/svg" viewBox="0 0 600.000 1000.000">
  <path d="M 399.556,607.090 L 394.750,599.260 L 389.330,591.841 L 383.331,584.883 L 376.791,578.431 L 369.753,572.525 L 362.263,567.205 L 354.369,562.505 L 346.122,558.455 L 337.576,555.082 L 331.338,553.184 L 333.135,554.202 L 335.001,555.384 L 336.806,556.656 L 338.548,558.015 L 340.220,559.457 L 341.820,560.980 L 343.343,562.580 L 344.785,564.252 L 346.144,565.994 L 347.416,567.799 L 348.598,569.665 L 349.686,571.587 L 350.680,573.560 L 351.575,575.579 L 352.369,577.640 L 353.062,579.737 L 353.651,581.866 L 354.135,584.021 L 354.513,586.197 L 354.783,588.389 L 354.946,590.592 L 355.000,592.800 L 354.946,595.008 L 354.783,597.211 L 354.513,599.403 L 354.135,601.579 L 353.651,603.734 L 353.062,605.863 L 352.369,607.960 L 351.575,610.021 L 350.680,612.040 L 349.686,614.013 L 348.598,615.935 L 347.416,617.801 L 346.144,619.606 L 344.785,621.348 L 343.343,623.020 L 341.820,624.620 L 340.220,626.143 L 338.548,627.585 L 336.806,628.944 L 335.001,630.216 L 333.135,631.398 L 331.213,632.486 L 329.240,633.480 L 327.221,634.375 L 325.160,635.169 L 323.063,635.862 L 320.934,636.451 L 318.779,636.935 L 316.603,637.313 L 314.411,637.583 L 312.208,637.746 L 310.000,637.800 L 290.000,637.800 L 287.792,637.746 L 285.589,637.583 L 283.397,637.313 L 281.221,636.935 L 279.066,636.451 L 276.937,635.862 L 274.840,635.169 L 272.779,634.375 L 270.760,633.480 L 268.787,632.486 L 266.865,631.398 L 264.999,630.216 L 263.194,628.944 L 261.452,627.585 L 259.780,626.143 L 258.180,624.620 L 256.657,623.020 L 255.215,621.348 L 253.856,619.606 L 252.584,617.801 L 251.402,615.935 L 250.314,614.013 L 249.320,612.040 L 248.425,610.021 L 247.631,607.960 L 246.938,605.863 L 246.349,603.734 L 245.865,601.579 L 245.487,599.403 L 245.217,597.211 L 245.054,595.008 L 245.000,592.800 L 245.054,590.592 L 245.217,588.389 L 245.487,586.197 L 245.865,584.021 L 246.349,581.866 L 246.938,579.737 L 247.631,577.640 L 248.425,575.579 L 249.320,573.560 L 250.314,571.587 L 251.402,569.665 L 252.584,567.799 L 253.856,565.994 L 255.215,564.252 L 256.657,562.580 L 258.180,560.980 L 259.780,559.457 L 261.452,558.015 L 263.194,556.656 L 264.999,555.384 L 266.865,554.202 L 268.624,553.206 L 265.329,554.112 L 256.696,557.255 L 248.344,561.081 L 240.326,565.568 L 232.696,570.685 L 225.502,576.399 L 218.791,582.674 L 212.607,589.469 L 206.990,596.739 L 201.976,604.437 L 197.597,612.514 L 193.883,620.917 L 190.857,629.592 L 188.539,638.482 L 186.943,647.530 L 186.081,656.676 L 185.958,665.863 L 186.574,675.030 L 187.926,684.117 L 190.005,693.066 L 193.348,703.547 L 193.967,705.667 L 194.482,707.815 L 194.890,709.985 L 195.192,712.173 L 195.386,714.373 L 195.472,716.580 L 195.449,718.789 L 195.318,720.994 L 195.079,723.190 L 194.732,725.371 L 194.279,727.533 L 193.720,729.669 L 193.058,731.776 L 192.292,733.848 L 191.426,735.880 L 190.461,737.867 L 189.400,739.804 L 188.245,741.687 L 186.999,743.510 L 185.665,745.271 L 184.247,746.964 L 182.747,748.585 L 181.169,750.131 L 179.517,751.597 L 177.795,752.981 L 176.008,754.278 L 174.159,755.486 L 172.253,756.602 L 170.294,757.623 L 168.288,758.547 L 166.239,759.371 L 164.152,760.094 L 162.032,760.713 L 159.884,761.228 L 157.713,761.636 L 155.525,761.938 L 153.325,762.132 L 151.118,762.218 L 148.909,762.195 L 146.705,762.064 L 144.509,761.825 L 142.327,761.478 L 140.166,761.025 L 138.029,760.467 L 135.922,759.804 L 133.850,759.038 L 131.818,758.172 L 129.832,757.207 L 127.894,756.146 L 126.012,754.991 L 124.188,753.745 L 122.428,752.411 L 120.735,750.993 L 119.113,749.493 L 117.568,747.915 L 116.101,746.263 L 114.718,744.542 L 113.420,742.754 L 112.212,740.905 L 111.096,738.999 L 110.075,737.041 L 109.151,735.034 L 108.327,732.985 L 107.605,730.898 L 103.710,718.690 L 103.194,716.952 L 102.749,715.196 L 99.849,702.714 L 99.475,700.941 L 99.172,699.154 L 97.287,686.479 L 97.056,684.681 L 96.898,682.876 L 96.039,670.091 L 95.954,668.280 L 95.941,666.468 L 96.113,653.655 L 96.174,651.844 L 96.308,650.036 L 97.510,637.278 L 97.717,635.478 L 97.996,633.687 L 100.221,621.068 L 100.571,619.289 L 100.993,617.527 L 104.227,605.127 L 104.719,603.383 L 105.281,601.660 L 108.317,592.957 L 107.605,590.898 L 103.710,578.690 L 103.194,576.952 L 102.749,575.196 L 99.849,562.714 L 99.475,560.941 L 99.172,559.154 L 97.287,546.479 L 97.056,544.681 L 96.898,542.876 L 96.039,530.091 L 95.954,528.280 L 95.941,526.468 L 96.113,513.655 L 96.174,511.844 L 96.308,510.036 L 97.510,497.278 L 97.717,495.478 L 97.996,493.687 L 100.221,481.068 L 100.571,479.289 L 100.993,477.527 L 104.227,465.127 L 104.719,463.383 L 105.281,461.660 L 109.502,449.561 L 110.133,447.862 L 110.833,446.190 L 116.013,434.470 L 116.779,432.827 L 117.611,431.217 L 123.717,419.952 L 124.613,418.376 L 125.571,416.838 L 132.565,406.100 L 133.584,404.602 L 134.663,403.146 L 142.498,393.006 L 143.635,391.594 L 144.828,390.230 L 153.453,380.753 L 154.700,379.437 L 155.998,378.173 L 165.358,369.421 L 166.707,368.211 L 168.103,367.055 L 178.137,359.085 L 179.578,357.986 L 181.063,356.947 L 191.706,349.810 L 193.231,348.831 L 194.794,347.914 L 205.977,341.656 L 207.576,340.803 L 209.208,340.016 L 220.858,334.678 L 222.520,333.957 L 224.210,333.303 L 236.252,328.920 L 237.967,328.334 L 239.704,327.819 L 252.059,324.419 L 253.816,323.973 L 255.589,323.599 L 268.178,321.205 L 269.965,320.902 L 271.762,320.671 L 284.503,319.298 L 286.308,319.140 L 288.118,319.055 L 300.928,318.711 L 302.740,318.698 L 304.552,318.759 L 317.347,319.447 L 319.155,319.581 L 320.955,319.787 L 333.654,321.502 L 335.445,321.781 L 337.223,322.132 L 349.743,324.863 L 351.505,325.285 L 353.250,325.778 L 365.509,329.508 L 367.232,330.070 L 368.931,330.701 L 380.850,335.406 L 382.522,336.105 L 384.165,336.871 L 395.667,342.519 L 397.277,343.351 L 398.853,344.246 L 409.863,350.802 L 411.401,351.760 L 412.900,352.779 L 423.347,360.200 L 424.803,361.279 L 426.215,362.415 L 436.031,370.652 L 437.396,371.845 L 438.711,373.092 L 447.833,382.092 L 449.097,383.390 L 450.308,384.739 L 458.676,394.443 L 459.831,395.840 L 460.930,397.281 L 468.490,407.628 L 469.529,409.112 L 470.508,410.638 L 477.211,421.559 L 478.127,423.122 L 478.980,424.721 L 484.783,436.147 L 485.570,437.779 L 486.292,439.441 L 491.156,451.297 L 491.944,453.360 L 492.630,455.460 L 493.212,457.590 L 493.688,459.747 L 494.059,461.924 L 494.322,464.117 L 494.477,466.321 L 494.524,468.529 L 494.462,470.737 L 494.292,472.939 L 494.014,475.130 L 493.630,477.305 L 493.138,479.458 L 492.542,481.585 L 491.842,483.680 L 491.040,485.738 L 490.139,487.754 L 489.139,489.724 L 488.044,491.642 L 486.856,493.504 L 485.578,495.305 L 484.213,497.042 L 482.765,498.710 L 481.237,500.304 L 479.632,501.822 L 477.955,503.259 L 476.209,504.612 L 474.399,505.878 L 472.529,507.053 L 470.603,508.135 L 468.627,509.122 L 466.605,510.010 L 464.542,510.798 L 462.442,511.484 L 460.311,512.066 L 458.155,512.542 L 455.977,512.913 L 453.784,513.176 L 451.581,513.331 L 449.373,513.378 L 447.165,513.316 L 444.963,513.146 L 442.772,512.868 L 440.597,512.483 L 438.443,511.992 L 437.149,511.629 L 437.396,511.845 L 438.711,513.092 L 447.833,522.092 L 449.097,523.390 L 450.308,524.739 L 458.676,534.443 L 459.831,535.840 L 460.930,537.281 L 468.490,547.628 L 469.529,549.112 L 470.508,550.638 L 477.211,561.559 L 478.127,563.122 L 478.980,564.721 L 484.783,576.147 L 485.570,577.779 L 486.292,579.441 L 491.156,591.297 L 491.944,593.360 L 492.630,595.460 L 493.212,597.590 L 493.688,599.747 L 494.059,601.924 L 494.322,604.117 L 494.477,606.321 L 494.524,608.529 L 494.462,610.737 L 494.292,612.939 L 494.014,615.130 L 493.630,617.305 L 493.138,619.458 L 492.542,621.585 L 491.842,623.680 L 491.040,625.738 L 490.139,627.754 L 489.139,629.724 L 488.044,631.642 L 486.856,633.504 L 485.578,635.305 L 484.213,637.042 L 482.765,638.710 L 481.237,640.304 L 479.632,641.822 L 477.955,643.259 L 476.209,644.612 L 474.399,645.878 L 472.529,647.053 L 470.603,648.135 L 468.627,649.122 L 466.605,650.010 L 464.542,650.798 L 462.442,651.484 L 460.311,652.066 L 458.155,652.542 L 455.977,652.913 L 453.784,653.176 L 451.581,653.331 L 449.373,653.378 L 447.165,653.316 L 444.963,653.146 L 442.772,652.868 L 440.597,652.483 L 438.443,651.992 L 436.317,651.396 L 434.222,650.696 L 432.164,649.894 L 430.147,648.992 L 428.178,647.993 L 426.260,646.898 L 424.398,645.710 L 422.596,644.432 L 420.860,643.067 L 419.192,641.619 L 417.597,640.091 L 416.080,638.486 L 414.643,636.809 L 413.290,635.063 L 412.024,633.253 L 410.849,631.383 L 409.766,629.457 L 408.780,627.481 L 407.892,625.459 L 403.716,615.281 L 399.556,607.090 Z M 191.706,489.810 L 193.231,488.831 L 194.794,487.914 L 205.977,481.656 L 207.576,480.803 L 209.208,480.016 L 220.858,474.678 L 222.520,473.957 L 224.210,473.303 L 236.252,468.920 L 237.967,468.334 L 239.704,467.819 L 252.059,464.419 L 253.816,463.973 L 255.589,463.599 L 268.178,461.205 L 269.965,460.902 L 271.762,460.671 L 284.503,459.298 L 286.308,459.140 L 288.118,459.055 L 300.928,458.711 L 302.740,458.698 L 304.552,458.759 L 317.347,459.447 L 319.155,459.581 L 320.955,459.787 L 333.654,461.502 L 335.445,461.781 L 337.223,462.132 L 349.743,464.863 L 351.505,465.285 L 353.250,465.778 L 365.509,469.508 L 367.232,470.070 L 368.931,470.701 L 380.850,475.406 L 382.522,476.105 L 384.165,476.871 L 395.667,482.519 L 397.277,483.351 L 398.853,484.246 L 409.863,490.802 L 410.883,491.437 L 410.849,491.383 L 409.766,489.457 L 408.780,487.481 L 407.892,485.459 L 403.716,475.281 L 399.556,467.090 L 394.750,459.260 L 389.330,451.841 L 383.331,444.883 L 376.791,438.431 L 369.753,432.525 L 362.263,427.205 L 354.369,422.505 L 346.122,418.455 L 337.576,415.082 L 328.787,412.408 L 319.810,410.450 L 310.706,409.220 L 301.532,408.727 L 292.348,408.973 L 283.213,409.958 L 274.188,411.675 L 265.329,414.112 L 256.696,417.255 L 248.344,421.081 L 240.326,425.568 L 232.696,430.685 L 225.502,436.399 L 218.791,442.674 L 212.607,449.469 L 206.990,456.739 L 201.976,464.437 L 197.597,472.514 L 193.883,480.917 L 190.857,489.592 L 190.608,490.546 L 191.706,489.810 Z" fill="black" fill-rule="evenodd"/>
</svg>
