<svg xmlns="http://www.w3.org/2000/svg" viewBox="0 0 600.000 1000">
  <path d="M 503.010 273.234 L 503.322 272.174 L 503.608 271.108 L 503.867 270.034 L 504.100 268.954 L 504.307 267.869 L 504.486 266.780 L 504.639 265.686 L 504.765 264.589 L 504.865 263.489 L 504.937 262.387 L 504.982 261.283 L 505.000 260.179 L 504.990 259.074 L 504.954 257.971 L 504.891 256.868 L 504.800 255.767 L 504.683 254.669 L 504.539 253.574 L 504.368 252.483 L 504.170 251.396 L 503.945 250.315 L 503.695 249.239 L 503.417 248.170 L 503.114 247.108 L 502.785 246.054 L 502.429 245.008 L 502.049 243.972 L 501.643 242.945 L 501.212 241.928 L 500.756 240.922 L 500.275 239.927 L 499.770 238.945 L 499.242 237.975 L 498.689 237.019 L 498.114 236.076 L 497.515 235.148 L 496.894 234.235 L 496.251 233.337 L 495.585 232.456 L 494.899 231.591 L 494.191 230.743 L 493.463 229.913 L 492.714 229.100 L 491.946 228.307 L 491.159 227.532 L 490.352 226.778 L 489.528 226.043 L 488.686 225.328 L 487.826 224.635 L 486.950 223.962 L 486.057 223.312 L 485.149 222.684 L 484.226 222.078 L 483.288 221.494 L 482.336 220.935 L 481.370 220.398 L 480.392 219.886 L 479.402 219.397 L 478.399 218.933 L 477.386 218.494 L 476.362 218.080 L 475.328 217.691 L 474.285 217.328 L 473.234 216.990 L 472.174 216.678 L 471.108 216.392 L 470.034 216.133 L 468.954 215.900 L 467.869 215.693 L 466.780 215.514 L 465.686 215.361 L 464.589 215.235 L 463.489 215.135 L 462.387 215.063 L 461.283 215.018 L 460.179 215.000 L 459.074 215.010 L 457.971 215.046 L 456.868 215.109 L 455.767 215.200 L 454.669 215.317 L 453.574 215.461 L 452.483 215.632 L 451.396 215.830 L 450.315 216.055 L 449.239 216.305 L 448.170 216.583 L 447.108 216.886 L 446.054 217.215 L 445.008 217.571 L 443.972 217.951 L 442.945 218.357 L 441.928 218.788 L 440.922 219.244 L 439.927 219.725 L 438.945 220.230 L 437.975 220.758 L 437.019 221.311 L 436.076 221.886 L 435.148 222.485 L 434.235 223.106 L 433.337 223.749 L 432.456 224.415 L 431.591 225.101 L 430.743 225.809 L 429.913 226.537 L 429.100 227.286 L 428.307 228.054 L 427.532 228.841 L 426.778 229.648 L 426.043 230.472 L 425.328 231.314 L 424.635 232.174 L 423.962 233.050 L 423.312 233.943 L 422.684 234.851 L 422.078 235.774 L 421.494 236.712 L 420.935 237.664 L 420.398 238.630 L 419.886 239.608 L 419.397 240.598 L 418.933 241.601 L 418.494 242.614 L 418.080 243.638 L 417.691 244.672 L 417.328 245.715 L 416.990 246.766 L 302.883 617.614 L 203.453 248.301 L 203.153 247.238 L 202.826 246.183 L 202.474 245.136 L 202.097 244.098 L 201.694 243.070 L 201.266 242.052 L 200.813 241.045 L 200.335 240.049 L 199.834 239.065 L 199.308 238.094 L 198.758 237.136 L 198.186 236.191 L 197.590 235.261 L 196.971 234.346 L 196.331 233.447 L 195.668 232.563 L 194.984 231.696 L 194.279 230.846 L 193.553 230.014 L 192.807 229.199 L 192.041 228.403 L 191.256 227.626 L 190.452 226.869 L 189.630 226.132 L 188.790 225.415 L 187.933 224.719 L 187.058 224.044 L 186.168 223.391 L 185.261 222.759 L 184.340 222.151 L 183.404 221.565 L 182.453 221.002 L 181.490 220.463 L 180.513 219.947 L 179.524 219.456 L 178.523 218.989 L 177.511 218.547 L 176.488 218.129 L 175.456 217.737 L 174.414 217.371 L 173.363 217.030 L 172.305 216.715 L 171.239 216.426 L 170.166 216.163 L 169.087 215.927 L 168.003 215.717 L 166.914 215.534 L 165.820 215.378 L 164.724 215.249 L 163.624 215.146 L 162.522 215.071 L 161.419 215.022 L 160.314 215.001 L 159.210 215.007 L 158.106 215.040 L 157.003 215.100 L 155.902 215.187 L 154.804 215.301 L 153.708 215.442 L 152.617 215.610 L 151.529 215.804 L 150.447 216.026 L 149.371 216.273 L 148.301 216.547 L 147.238 216.847 L 146.183 217.174 L 145.136 217.526 L 144.098 217.903 L 143.070 218.306 L 142.052 218.734 L 141.045 219.187 L 140.049 219.665 L 139.065 220.166 L 138.094 220.692 L 137.136 221.242 L 136.191 221.814 L 135.261 222.410 L 134.346 223.029 L 133.447 223.669 L 132.563 224.332 L 131.696 225.016 L 130.846 225.721 L 130.014 226.447 L 129.199 227.193 L 128.403 227.959 L 127.626 228.744 L 126.869 229.548 L 126.132 230.370 L 125.415 231.210 L 124.719 232.067 L 124.044 232.942 L 123.391 233.832 L 122.759 234.739 L 122.151 235.660 L 121.565 236.596 L 121.002 237.547 L 120.463 238.510 L 119.947 239.487 L 119.456 240.476 L 118.989 241.477 L 118.547 242.489 L 118.129 243.512 L 117.737 244.544 L 117.371 245.586 L 117.030 246.637 L 116.715 247.695 L 116.426 248.761 L 116.163 249.834 L 115.927 250.913 L 115.717 251.997 L 115.534 253.086 L 115.378 254.180 L 115.249 255.276 L 115.146 256.376 L 115.071 257.478 L 115.022 258.581 L 115.001 259.686 L 115.007 260.790 L 115.040 261.894 L 115.100 262.997 L 115.187 264.098 L 115.301 265.196 L 115.442 266.292 L 115.610 267.383 L 115.804 268.471 L 116.026 269.553 L 116.273 270.629 L 116.547 271.699 L 255.000 785.952 L 255.000 1000.000 L 255.014 1001.104 L 255.054 1002.208 L 255.122 1003.310 L 255.217 1004.411 L 255.338 1005.508 L 255.487 1006.603 L 255.663 1007.693 L 255.865 1008.779 L 256.093 1009.860 L 256.349 1010.934 L 256.630 1012.002 L 256.938 1013.063 L 257.271 1014.116 L 257.631 1015.160 L 258.015 1016.195 L 258.425 1017.221 L 258.861 1018.236 L 259.320 1019.240 L 259.805 1020.233 L 260.314 1021.213 L 260.846 1022.180 L 261.402 1023.135 L 261.982 1024.075 L 262.584 1025.001 L 263.209 1025.911 L 263.856 1026.806 L 264.524 1027.685 L 265.215 1028.548 L 265.926 1029.393 L 266.657 1030.220 L 267.409 1031.029 L 268.180 1031.820 L 268.971 1032.591 L 269.780 1033.343 L 270.607 1034.074 L 271.452 1034.785 L 272.315 1035.476 L 273.194 1036.144 L 274.089 1036.791 L 274.999 1037.416 L 275.925 1038.018 L 276.865 1038.598 L 277.820 1039.154 L 278.787 1039.686 L 279.767 1040.195 L 280.760 1040.680 L 281.764 1041.139 L 282.779 1041.575 L 283.805 1041.985 L 284.840 1042.369 L 285.884 1042.729 L 286.937 1043.062 L 287.998 1043.370 L 289.066 1043.651 L 290.140 1043.907 L 291.221 1044.135 L 292.307 1044.337 L 293.397 1044.513 L 294.492 1044.662 L 295.589 1044.783 L 296.690 1044.878 L 297.792 1044.946 L 298.896 1044.986 L 300.000 1045.000 L 301.104 1044.986 L 302.208 1044.946 L 303.310 1044.878 L 304.411 1044.783 L 305.508 1044.662 L 306.603 1044.513 L 307.693 1044.337 L 308.779 1044.135 L 309.860 1043.907 L 310.934 1043.651 L 312.002 1043.370 L 313.063 1043.062 L 314.116 1042.729 L 315.160 1042.369 L 316.195 1041.985 L 317.221 1041.575 L 318.236 1041.139 L 319.240 1040.680 L 320.233 1040.195 L 321.213 1039.686 L 322.180 1039.154 L 323.135 1038.598 L 324.075 1038.018 L 325.001 1037.416 L 325.911 1036.791 L 326.806 1036.144 L 327.685 1035.476 L 328.548 1034.785 L 329.393 1034.074 L 330.220 1033.343 L 331.029 1032.591 L 331.820 1031.820 L 332.591 1031.029 L 333.343 1030.220 L 334.074 1029.393 L 334.785 1028.548 L 335.476 1027.685 L 336.144 1026.806 L 336.791 1025.911 L 337.416 1025.001 L 338.018 1024.075 L 338.598 1023.135 L 339.154 1022.180 L 339.686 1021.213 L 340.195 1020.233 L 340.680 1019.240 L 341.139 1018.236 L 341.575 1017.221 L 341.985 1016.195 L 342.369 1015.160 L 342.729 1014.116 L 343.062 1013.063 L 343.370 1012.002 L 343.651 1010.934 L 343.907 1009.860 L 344.135 1008.779 L 344.337 1007.693 L 344.513 1006.603 L 344.662 1005.508 L 344.783 1004.411 L 344.878 1003.310 L 344.946 1002.208 L 344.986 1001.104 L 345.000 1000.000 L 345.000 786.767 L 503.010 273.234 Z" fill="black" fill-rule="evenodd"/>
</svg>
