<svg xmlns="http://www.w3.org/2000/svg" viewBox="0 0 600.000 1000">
  <path d="M 185.659 787.674 L 185.933 789.116 L 186.254 790.549 L 186.621 791.970 L 187.035 793.378 L 187.494 794.772 L 187.998 796.150 L 188.547 797.511 L 189.140 798.854 L 189.777 800.176 L 190.456 801.477 L 191.177 802.755 L 191.940 804.009 L 192.743 805.238 L 193.586 806.439 L 194.468 807.613 L 195.387 808.757 L 196.343 809.870 L 197.336 810.952 L 198.362 812.001 L 199.423 813.016 L 200.516 813.995 L 201.640 814.939 L 202.794 815.845 L 203.978 816.713 L 205.189 817.542 L 206.426 818.331 L 207.689 819.080 L 208.975 819.786 L 210.284 820.451 L 211.614 821.072 L 212.963 821.650 L 214.330 822.184 L 215.714 822.672 L 217.113 823.115 L 218.526 823.513 L 219.951 823.864 L 221.387 824.168 L 222.832 824.425 L 224.285 824.636 L 225.743 824.798 L 227.207 824.913 L 228.673 824.980 L 230.140 825.000 L 231.608 824.971 L 233.073 824.895 L 234.536 824.771 L 235.994 824.599 L 237.445 824.380 L 238.888 824.114 L 240.322 823.800 L 241.745 823.440 L 243.155 823.034 L 244.552 822.582 L 245.933 822.085 L 247.297 821.543 L 248.642 820.957 L 249.968 820.327 L 251.272 819.655 L 252.554 818.940 L 253.812 818.184 L 255.045 817.387 L 256.251 816.550 L 257.429 815.675 L 258.577 814.761 L 259.696 813.811 L 260.783 812.824 L 261.837 811.803 L 262.857 810.748 L 263.842 809.660 L 264.791 808.541 L 265.704 807.391 L 266.578 806.212 L 267.413 805.005 L 268.209 803.772 L 268.964 802.513 L 269.677 801.230 L 270.348 799.925 L 270.977 798.599 L 271.561 797.253 L 272.102 795.888 L 272.598 794.507 L 273.048 793.110 L 273.453 791.699 L 300.000 693.095 L 326.547 791.699 L 326.952 793.110 L 327.402 794.507 L 327.898 795.888 L 328.439 797.253 L 329.023 798.599 L 329.652 799.925 L 330.323 801.230 L 331.036 802.513 L 331.791 803.772 L 332.587 805.005 L 333.422 806.212 L 334.296 807.391 L 335.209 808.541 L 336.158 809.660 L 337.143 810.748 L 338.163 811.803 L 339.217 812.824 L 340.304 813.811 L 341.423 814.761 L 342.571 815.675 L 343.749 816.550 L 344.955 817.387 L 346.188 818.184 L 347.446 818.940 L 348.728 819.655 L 350.032 820.327 L 351.358 820.957 L 352.703 821.543 L 354.067 822.085 L 355.448 822.582 L 356.845 823.034 L 358.255 823.440 L 359.678 823.800 L 361.112 824.114 L 362.555 824.380 L 364.006 824.599 L 365.464 824.771 L 366.927 824.895 L 368.392 824.971 L 369.860 825.000 L 371.327 824.980 L 372.793 824.913 L 374.257 824.798 L 375.715 824.636 L 377.168 824.425 L 378.613 824.168 L 380.049 823.864 L 381.474 823.513 L 382.887 823.115 L 384.286 822.672 L 385.670 822.184 L 387.037 821.650 L 388.386 821.072 L 389.716 820.451 L 391.025 819.786 L 392.311 819.080 L 393.574 818.331 L 394.811 817.542 L 396.022 816.713 L 397.206 815.845 L 398.360 814.939 L 399.484 813.995 L 400.577 813.016 L 401.638 812.001 L 402.664 810.952 L 403.657 809.870 L 404.613 808.757 L 405.532 807.613 L 406.414 806.439 L 407.257 805.238 L 408.060 804.009 L 408.823 802.755 L 409.544 801.477 L 410.223 800.176 L 410.860 798.854 L 411.453 797.511 L 412.002 796.150 L 412.506 794.772 L 412.965 793.378 L 413.379 791.970 L 413.746 790.549 L 414.067 789.116 L 414.341 787.674 L 504.341 267.674 L 504.568 266.219 L 504.748 264.758 L 504.879 263.291 L 504.963 261.821 L 504.999 260.349 L 504.986 258.876 L 504.925 257.405 L 504.816 255.937 L 504.659 254.472 L 504.454 253.014 L 504.202 251.563 L 503.902 250.122 L 503.556 248.691 L 503.162 247.272 L 502.723 245.866 L 502.237 244.476 L 501.707 243.102 L 501.132 241.747 L 500.512 240.411 L 499.850 239.096 L 499.144 237.803 L 498.397 236.534 L 497.609 235.290 L 496.780 234.073 L 495.912 232.883 L 495.006 231.723 L 494.062 230.593 L 493.081 229.494 L 492.066 228.428 L 491.015 227.396 L 489.932 226.398 L 488.817 225.437 L 487.670 224.513 L 486.494 223.626 L 485.290 222.779 L 484.059 221.971 L 482.802 221.205 L 481.520 220.479 L 480.215 219.796 L 478.889 219.156 L 477.543 218.560 L 476.177 218.008 L 474.795 217.502 L 473.396 217.040 L 471.984 216.625 L 470.558 216.256 L 469.121 215.934 L 467.674 215.659 L 466.219 215.432 L 464.758 215.252 L 463.291 215.121 L 461.821 215.037 L 460.349 215.001 L 458.876 215.014 L 457.405 215.075 L 455.937 215.184 L 454.472 215.341 L 453.014 215.546 L 451.563 215.798 L 450.122 216.098 L 448.691 216.444 L 447.272 216.838 L 445.866 217.277 L 444.476 217.763 L 443.102 218.293 L 441.747 218.868 L 440.411 219.488 L 439.096 220.150 L 437.803 220.856 L 436.534 221.603 L 435.290 222.391 L 434.073 223.220 L 432.883 224.088 L 431.723 224.994 L 430.593 225.938 L 429.494 226.919 L 428.428 227.934 L 427.396 228.985 L 426.398 230.068 L 425.437 231.183 L 424.513 232.330 L 423.626 233.506 L 422.779 234.710 L 421.971 235.941 L 421.205 237.198 L 420.479 238.480 L 419.796 239.785 L 419.156 241.111 L 418.560 242.457 L 418.008 243.823 L 417.502 245.205 L 417.040 246.604 L 416.625 248.016 L 416.256 249.442 L 415.934 250.879 L 415.659 252.326 L 360.437 571.386 L 343.453 508.301 L 343.047 506.887 L 342.595 505.487 L 342.098 504.102 L 341.556 502.735 L 340.969 501.385 L 340.339 500.056 L 339.666 498.748 L 338.950 497.463 L 338.192 496.202 L 337.394 494.966 L 336.555 493.757 L 335.678 492.576 L 334.762 491.424 L 333.810 490.303 L 332.821 489.214 L 331.797 488.157 L 330.739 487.135 L 329.648 486.148 L 328.526 485.197 L 327.373 484.283 L 326.191 483.407 L 324.981 482.570 L 323.744 481.774 L 322.481 481.018 L 321.195 480.304 L 319.886 479.632 L 318.556 479.004 L 317.206 478.419 L 315.837 477.879 L 314.452 477.384 L 313.051 476.934 L 311.636 476.531 L 310.209 476.173 L 308.771 475.863 L 307.324 475.600 L 305.868 475.384 L 304.407 475.216 L 302.940 475.096 L 301.471 475.024 L 300.000 475.000 L 298.529 475.024 L 297.060 475.096 L 295.593 475.216 L 294.132 475.384 L 292.676 475.600 L 291.229 475.863 L 289.791 476.173 L 288.364 476.531 L 286.949 476.934 L 285.548 477.384 L 284.163 477.879 L 282.794 478.419 L 281.444 479.004 L 280.114 479.632 L 278.805 480.304 L 277.519 481.018 L 276.256 481.774 L 275.019 482.570 L 273.809 483.407 L 272.627 484.283 L 271.474 485.197 L 270.352 486.148 L 269.261 487.135 L 268.203 488.157 L 267.179 489.214 L 266.190 490.303 L 265.238 491.424 L 264.322 492.576 L 263.445 493.757 L 262.606 494.966 L 261.808 496.202 L 261.050 497.463 L 260.334 498.748 L 259.661 500.056 L 259.031 501.385 L 258.444 502.735 L 257.902 504.102 L 257.405 505.487 L 256.953 506.887 L 256.547 508.301 L 239.563 571.386 L 184.341 252.326 L 184.066 250.879 L 183.744 249.442 L 183.375 248.016 L 182.960 246.604 L 182.498 245.205 L 181.992 243.823 L 181.440 242.457 L 180.844 241.111 L 180.204 239.785 L 179.521 238.480 L 178.795 237.198 L 178.029 235.941 L 177.221 234.710 L 176.374 233.506 L 175.487 232.330 L 174.563 231.183 L 173.602 230.068 L 172.604 228.985 L 171.572 227.934 L 170.506 226.919 L 169.407 225.938 L 168.277 224.994 L 167.117 224.088 L 165.927 223.220 L 164.710 222.391 L 163.466 221.603 L 162.197 220.856 L 160.904 220.150 L 159.589 219.488 L 158.253 218.868 L 156.898 218.293 L 155.524 217.763 L 154.134 217.277 L 152.728 216.838 L 151.309 216.444 L 149.878 216.098 L 148.437 215.798 L 146.986 215.546 L 145.528 215.341 L 144.063 215.184 L 142.595 215.075 L 141.124 215.014 L 139.651 215.001 L 138.179 215.037 L 136.709 215.121 L 135.242 215.252 L 133.781 215.432 L 132.326 215.659 L 130.879 215.934 L 129.442 216.256 L 128.016 216.625 L 126.604 217.040 L 125.205 217.502 L 123.823 218.008 L 122.457 218.560 L 121.111 219.156 L 119.785 219.796 L 118.480 220.479 L 117.198 221.205 L 115.941 221.971 L 114.710 222.779 L 113.506 223.626 L 112.330 224.513 L 111.183 225.437 L 110.068 226.398 L 108.985 227.396 L 107.934 228.428 L 106.919 229.494 L 105.938 230.593 L 104.994 231.723 L 104.088 232.883 L 103.220 234.073 L 102.391 235.290 L 101.603 236.534 L 100.856 237.803 L 100.150 239.096 L 99.488 240.411 L 98.868 241.747 L 98.293 243.102 L 97.763 244.476 L 97.277 245.866 L 96.838 247.272 L 96.444 248.691 L 96.098 250.122 L 95.798 251.563 L 95.546 253.014 L 95.341 254.472 L 95.184 255.937 L 95.075 257.405 L 95.014 258.876 L 95.001 260.349 L 95.037 261.821 L 95.121 263.291 L 95.252 264.758 L 95.432 266.219 L 95.659 267.674 L 185.659 787.674 Z" fill="black" fill-rule="evenodd"/>
</svg>
