<svg xmlns="http://www.w3.org/2000/svg" viewBox="0 0 600.000 1000">
  <path d="M 190.033 403.235 L 190.072 402.354 L 190.126 401.473 L 190.196 400.594 L 190.282 399.715 L 190.383 398.839 L 190.499 397.964 L 190.631 397.091 L 190.778 396.221 L 190.941 395.354 L 191.119 394.490 L 191.312 393.629 L 191.520 392.771 L 191.744 391.917 L 191.982 391.068 L 192.235 390.223 L 192.504 389.382 L 192.787 388.546 L 193.084 387.715 L 193.397 386.890 L 193.724 386.071 L 194.065 385.257 L 194.421 384.449 L 194.790 383.648 L 195.174 382.853 L 195.572 382.066 L 195.984 381.285 L 196.409 380.512 L 196.848 379.747 L 197.300 378.989 L 197.766 378.239 L 198.245 377.498 L 198.737 376.766 L 199.242 376.042 L 199.759 375.327 L 200.289 374.621 L 200.831 373.925 L 201.386 373.239 L 201.952 372.562 L 202.531 371.896 L 203.121 371.240 L 203.722 370.594 L 204.335 369.959 L 204.959 369.335 L 205.594 368.722 L 206.240 368.121 L 206.896 367.531 L 207.562 366.952 L 208.239 366.386 L 208.925 365.831 L 209.621 365.289 L 210.327 364.759 L 211.042 364.242 L 211.766 363.737 L 212.498 363.245 L 213.239 362.766 L 213.989 362.300 L 214.747 361.848 L 215.512 361.409 L 216.285 360.984 L 217.066 360.572 L 217.853 360.174 L 218.648 359.790 L 219.449 359.421 L 220.257 359.065 L 221.071 358.724 L 221.890 358.397 L 222.715 358.084 L 223.546 357.787 L 224.382 357.504 L 225.223 357.235 L 226.068 356.982 L 226.917 356.744 L 227.771 356.520 L 228.629 356.312 L 229.490 356.119 L 230.354 355.941 L 231.221 355.778 L 232.091 355.631 L 232.964 355.499 L 233.839 355.383 L 234.715 355.282 L 235.594 355.196 L 236.473 355.126 L 237.354 355.072 L 238.235 355.033 L 239.118 355.010 L 240.397 354.998 L 241.501 354.975 L 242.605 354.925 L 243.706 354.847 L 244.806 354.743 L 245.902 354.611 L 246.995 354.453 L 248.084 354.268 L 249.168 354.056 L 250.247 353.818 L 251.319 353.553 L 252.384 353.262 L 253.442 352.945 L 254.492 352.603 L 255.533 352.234 L 256.565 351.840 L 257.587 351.421 L 258.598 350.977 L 259.598 350.508 L 260.586 350.015 L 261.562 349.498 L 262.525 348.957 L 263.474 348.392 L 264.409 347.804 L 265.330 347.194 L 266.235 346.561 L 267.124 345.906 L 267.997 345.230 L 268.854 344.532 L 269.692 343.814 L 270.513 343.075 L 271.316 342.316 L 272.099 341.538 L 272.864 340.741 L 273.608 339.925 L 274.332 339.091 L 275.036 338.240 L 275.719 337.371 L 276.379 336.486 L 277.019 335.586 L 277.635 334.670 L 278.229 333.738 L 278.800 332.793 L 279.348 331.834 L 279.872 330.862 L 280.372 329.877 L 280.848 328.880 L 281.299 327.872 L 281.725 326.853 L 282.126 325.824 L 282.502 324.786 L 282.852 323.738 L 283.176 322.682 L 283.474 321.619 L 283.746 320.548 L 283.992 319.472 L 284.211 318.389 L 284.404 317.302 L 284.569 316.210 L 284.708 315.114 L 284.820 314.015 L 284.906 312.914 L 284.964 311.811 L 284.994 310.707 L 284.998 309.603 L 284.975 308.499 L 284.925 307.395 L 284.847 306.294 L 284.743 305.194 L 284.611 304.098 L 284.453 303.005 L 284.268 301.916 L 284.056 300.832 L 283.818 299.753 L 283.553 298.681 L 283.262 297.616 L 282.945 296.558 L 282.603 295.508 L 282.234 294.467 L 281.840 293.435 L 281.421 292.413 L 280.977 291.402 L 280.508 290.402 L 280.015 289.414 L 279.498 288.438 L 278.957 287.475 L 278.392 286.526 L 277.804 285.591 L 277.194 284.670 L 276.561 283.765 L 275.906 282.876 L 275.230 282.003 L 274.532 281.146 L 273.814 280.308 L 273.075 279.487 L 272.316 278.684 L 271.538 277.901 L 270.741 277.136 L 269.925 276.392 L 269.091 275.668 L 268.240 274.964 L 267.371 274.281 L 266.486 273.621 L 265.586 272.981 L 264.670 272.365 L 263.738 271.771 L 262.793 271.200 L 261.834 270.652 L 260.862 270.128 L 259.877 269.628 L 258.880 269.152 L 257.872 268.701 L 256.853 268.275 L 255.824 267.874 L 254.786 267.498 L 253.738 267.148 L 252.682 266.824 L 251.619 266.526 L 250.548 266.254 L 249.472 266.008 L 248.389 265.789 L 247.302 265.596 L 246.210 265.431 L 245.114 265.292 L 244.015 265.180 L 242.914 265.094 L 241.811 265.036 L 240.707 265.006 L 239.603 265.002 L 237.926 265.017 L 237.132 265.031 L 235.456 265.075 L 234.662 265.103 L 232.987 265.177 L 232.194 265.219 L 230.521 265.322 L 229.729 265.378 L 228.057 265.512 L 227.266 265.582 L 225.597 265.744 L 224.808 265.828 L 223.142 266.020 L 222.354 266.118 L 220.692 266.339 L 219.905 266.451 L 218.248 266.701 L 217.463 266.827 L 215.810 267.107 L 215.028 267.246 L 213.380 267.555 L 212.601 267.708 L 210.959 268.046 L 210.182 268.213 L 208.546 268.580 L 207.773 268.761 L 206.144 269.157 L 205.373 269.351 L 203.751 269.775 L 202.985 269.983 L 201.371 270.436 L 200.608 270.657 L 199.002 271.139 L 198.243 271.374 L 196.646 271.883 L 195.891 272.131 L 194.303 272.669 L 193.553 272.930 L 191.975 273.496 L 191.230 273.771 L 189.661 274.364 L 188.921 274.652 L 187.364 275.273 L 186.629 275.574 L 185.082 276.222 L 184.353 276.536 L 182.818 277.211 L 182.094 277.538 L 180.572 278.241 L 179.854 278.580 L 178.344 279.309 L 177.632 279.661 L 176.135 280.417 L 175.430 280.781 L 173.947 281.563 L 173.247 281.940 L 171.778 282.748 L 171.086 283.137 L 169.632 283.971 L 168.946 284.372 L 167.507 285.232 L 166.828 285.645 L 165.404 286.530 L 164.733 286.955 L 163.325 287.865 L 162.662 288.302 L 161.270 289.236 L 160.614 289.685 L 159.239 290.644 L 158.591 291.104 L 157.233 292.087 L 156.594 292.558 L 155.253 293.565 L 154.623 294.048 L 153.300 295.078 L 152.678 295.572 L 151.373 296.626 L 150.760 297.130 L 149.475 298.207 L 148.870 298.722 L 147.604 299.821 L 147.009 300.347 L 145.762 301.468 L 145.176 302.004 L 143.950 303.147 L 143.373 303.694 L 142.167 304.858 L 141.600 305.415 L 140.415 306.600 L 139.858 307.167 L 138.694 308.373 L 138.147 308.950 L 137.004 310.176 L 136.468 310.762 L 135.347 312.009 L 134.821 312.604 L 133.722 313.870 L 133.207 314.475 L 132.130 315.760 L 131.626 316.373 L 130.906 317.264 L 130.884 317.271 L 129.840 317.631 L 128.805 318.015 L 127.779 318.425 L 126.764 318.861 L 125.760 319.320 L 124.767 319.805 L 123.787 320.314 L 122.820 320.846 L 121.865 321.402 L 120.925 321.982 L 119.999 322.584 L 119.089 323.209 L 118.194 323.856 L 117.315 324.524 L 116.452 325.215 L 115.607 325.926 L 114.780 326.657 L 113.971 327.409 L 113.180 328.180 L 112.409 328.971 L 111.657 329.780 L 110.926 330.607 L 110.215 331.452 L 109.524 332.315 L 108.856 333.194 L 108.209 334.089 L 107.584 334.999 L 106.982 335.925 L 106.402 336.865 L 105.846 337.820 L 105.314 338.787 L 104.805 339.767 L 104.320 340.760 L 103.861 341.764 L 103.425 342.779 L 103.015 343.805 L 102.631 344.840 L 102.271 345.884 L 101.938 346.937 L 101.630 347.998 L 101.349 349.066 L 101.093 350.140 L 100.865 351.221 L 100.663 352.307 L 100.487 353.397 L 100.338 354.492 L 100.217 355.589 L 100.122 356.690 L 100.054 357.792 L 100.014 358.896 L 100.000 360.000 L 100.000 780.000 L 100.014 781.104 L 100.054 782.208 L 100.122 783.310 L 100.217 784.411 L 100.338 785.508 L 100.487 786.603 L 100.663 787.693 L 100.865 788.779 L 101.093 789.860 L 101.349 790.934 L 101.630 792.002 L 101.938 793.063 L 102.271 794.116 L 102.631 795.160 L 103.015 796.195 L 103.425 797.221 L 103.861 798.236 L 104.320 799.240 L 104.805 800.233 L 105.314 801.213 L 105.846 802.180 L 106.402 803.135 L 106.982 804.075 L 107.584 805.001 L 108.209 805.911 L 108.856 806.806 L 109.524 807.685 L 110.215 808.548 L 110.926 809.393 L 111.657 810.220 L 112.409 811.029 L 113.180 811.820 L 113.971 812.591 L 114.780 813.343 L 115.607 814.074 L 116.452 814.785 L 117.315 815.476 L 118.194 816.144 L 119.089 816.791 L 119.999 817.416 L 120.925 818.018 L 121.865 818.598 L 122.820 819.154 L 123.787 819.686 L 124.767 820.195 L 125.760 820.680 L 126.764 821.139 L 127.779 821.575 L 128.805 821.985 L 129.840 822.369 L 130.884 822.729 L 131.937 823.062 L 132.998 823.370 L 134.066 823.651 L 135.140 823.907 L 136.221 824.135 L 137.307 824.337 L 138.397 824.513 L 139.492 824.662 L 140.589 824.783 L 141.690 824.878 L 142.792 824.946 L 143.896 824.986 L 145.000 825.000 L 146.104 824.986 L 147.208 824.946 L 148.310 824.878 L 149.411 824.783 L 150.508 824.662 L 151.603 824.513 L 152.693 824.337 L 153.779 824.135 L 154.860 823.907 L 155.934 823.651 L 157.002 823.370 L 158.063 823.062 L 159.116 822.729 L 160.160 822.369 L 161.195 821.985 L 162.221 821.575 L 163.236 821.139 L 164.240 820.680 L 165.233 820.195 L 166.213 819.686 L 167.180 819.154 L 168.135 818.598 L 169.075 818.018 L 170.001 817.416 L 170.911 816.791 L 171.806 816.144 L 172.685 815.476 L 173.548 814.785 L 174.393 814.074 L 175.220 813.343 L 176.029 812.591 L 176.820 811.820 L 177.591 811.029 L 178.343 810.220 L 179.074 809.393 L 179.785 808.548 L 180.476 807.685 L 181.144 806.806 L 181.791 805.911 L 182.416 805.001 L 183.018 804.075 L 183.598 803.135 L 184.154 802.180 L 184.686 801.213 L 185.195 800.233 L 185.680 799.240 L 186.139 798.236 L 186.575 797.221 L 186.985 796.195 L 187.369 795.160 L 187.729 794.116 L 188.062 793.063 L 188.370 792.002 L 188.651 790.934 L 188.907 789.860 L 189.135 788.779 L 189.337 787.693 L 189.513 786.603 L 189.662 785.508 L 189.783 784.411 L 189.878 783.310 L 189.946 782.208 L 189.986 781.104 L 190.000 780.000 L 190.000 405.199 L 190.010 404.118 L 190.033 403.235 Z" fill="black" fill-rule="evenodd"/>
</svg>
