<svg xmlns="http://www.w3.org/2000/svg" viewBox="0 0 600.000 1000" width="600.000" height="1000">
  <path d="M 340.014 781.104 L 340.054 782.208 L 340.122 783.310 L 340.217 784.411 L 340.338 785.508 L 340.487 786.603 L 340.663 787.693 L 340.865 788.779 L 341.093 789.860 L 341.349 790.934 L 341.630 792.002 L 341.938 793.063 L 342.271 794.116 L 342.631 795.160 L 343.015 796.195 L 343.425 797.221 L 343.861 798.236 L 344.320 799.240 L 344.805 800.233 L 345.314 801.213 L 345.846 802.180 L 346.402 803.135 L 346.982 804.075 L 347.584 805.001 L 348.209 805.911 L 348.856 806.806 L 349.524 807.685 L 350.215 808.548 L 350.926 809.393 L 351.657 810.220 L 352.409 811.029 L 353.180 811.820 L 353.971 812.591 L 354.780 813.343 L 355.607 814.074 L 356.452 814.785 L 357.315 815.476 L 358.194 816.144 L 359.089 816.791 L 359.999 817.416 L 360.925 818.018 L 361.865 818.598 L 362.820 819.154 L 363.787 819.686 L 364.767 820.195 L 365.760 820.680 L 366.764 821.139 L 367.779 821.575 L 368.805 821.985 L 369.840 822.369 L 370.884 822.729 L 371.937 823.062 L 372.998 823.370 L 374.066 823.651 L 375.140 823.907 L 376.221 824.135 L 377.307 824.337 L 378.397 824.513 L 379.492 824.662 L 380.589 824.783 L 381.690 824.878 L 382.792 824.946 L 383.896 824.986 L 385.000 825.000 L 386.104 824.986 L 387.208 824.946 L 388.310 824.878 L 389.411 824.783 L 390.508 824.662 L 391.603 824.513 L 392.693 824.337 L 393.779 824.135 L 394.860 823.907 L 395.934 823.651 L 397.002 823.370 L 398.063 823.062 L 399.116 822.729 L 400.160 822.369 L 401.195 821.985 L 402.221 821.575 L 403.236 821.139 L 404.240 820.680 L 405.233 820.195 L 406.213 819.686 L 407.180 819.154 L 408.135 818.598 L 409.075 818.018 L 410.001 817.416 L 410.911 816.791 L 411.806 816.144 L 412.685 815.476 L 413.548 814.785 L 414.393 814.074 L 415.220 813.343 L 416.029 812.591 L 416.820 811.820 L 417.591 811.029 L 418.343 810.220 L 419.074 809.393 L 419.785 808.548 L 420.476 807.685 L 421.144 806.806 L 421.791 805.911 L 422.416 805.001 L 423.018 804.075 L 423.598 803.135 L 424.154 802.180 L 424.686 801.213 L 425.195 800.233 L 425.680 799.240 L 426.139 798.236 L 426.575 797.221 L 426.985 796.195 L 427.369 795.160 L 427.729 794.116 L 428.062 793.063 L 428.370 792.002 L 428.651 790.934 L 428.907 789.860 L 429.135 788.779 L 429.337 787.693 L 429.513 786.603 L 429.662 785.508 L 429.783 784.411 L 429.878 783.310 L 429.946 782.208 L 429.986 781.104 L 430.000 780.000 L 430.000 490.000 L 445.000 490.000 L 446.104 489.986 L 447.208 489.946 L 448.310 489.878 L 449.411 489.783 L 450.508 489.662 L 451.603 489.513 L 452.693 489.337 L 453.779 489.135 L 454.860 488.907 L 455.934 488.651 L 457.002 488.370 L 458.063 488.062 L 459.116 487.729 L 460.160 487.369 L 461.195 486.985 L 462.221 486.575 L 463.236 486.139 L 464.240 485.680 L 465.233 485.195 L 466.213 484.686 L 467.180 484.154 L 468.135 483.598 L 469.075 483.018 L 470.001 482.416 L 470.911 481.791 L 471.806 481.144 L 472.685 480.476 L 473.548 479.785 L 474.393 479.074 L 475.220 478.343 L 476.029 477.591 L 476.820 476.820 L 477.591 476.029 L 478.343 475.220 L 479.074 474.393 L 479.785 473.548 L 480.476 472.685 L 481.144 471.806 L 481.791 470.911 L 482.416 470.001 L 483.018 469.075 L 483.598 468.135 L 484.154 467.180 L 484.686 466.213 L 485.195 465.233 L 485.680 464.240 L 486.139 463.236 L 486.575 462.221 L 486.985 461.195 L 487.369 460.160 L 487.729 459.116 L 488.062 458.063 L 488.370 457.002 L 488.651 455.934 L 488.907 454.860 L 489.135 453.779 L 489.337 452.693 L 489.513 451.603 L 489.662 450.508 L 489.783 449.411 L 489.878 448.310 L 489.946 447.208 L 489.986 446.104 L 490.000 445.000 L 489.986 443.896 L 489.946 442.792 L 489.878 441.690 L 489.783 440.589 L 489.662 439.492 L 489.513 438.397 L 489.337 437.307 L 489.135 436.221 L 488.907 435.140 L 488.651 434.066 L 488.370 432.998 L 488.062 431.937 L 487.729 430.884 L 487.369 429.840 L 486.985 428.805 L 486.575 427.779 L 486.139 426.764 L 485.680 425.760 L 485.195 424.767 L 484.686 423.787 L 484.154 422.820 L 483.598 421.865 L 483.018 420.925 L 482.416 419.999 L 481.791 419.089 L 481.144 418.194 L 480.476 417.315 L 479.785 416.452 L 479.074 415.607 L 478.343 414.780 L 477.591 413.971 L 476.820 413.180 L 476.029 412.409 L 475.220 411.657 L 474.393 410.926 L 473.548 410.215 L 472.685 409.524 L 471.806 408.856 L 470.911 408.209 L 470.001 407.584 L 469.075 406.982 L 468.135 406.402 L 467.180 405.846 L 466.213 405.314 L 465.233 404.805 L 464.240 404.320 L 463.236 403.861 L 462.221 403.425 L 461.195 403.015 L 460.160 402.631 L 459.116 402.271 L 458.063 401.938 L 457.002 401.630 L 455.934 401.349 L 454.860 401.093 L 453.779 400.865 L 452.693 400.663 L 451.603 400.487 L 450.508 400.338 L 449.411 400.217 L 448.310 400.122 L 447.208 400.054 L 446.104 400.014 L 445.000 400.000 L 430.000 400.000 L 430.000 50.000 L 429.986 48.896 L 429.946 47.792 L 429.878 46.690 L 429.783 45.589 L 429.662 44.492 L 429.513 43.397 L 429.337 42.307 L 429.135 41.221 L 428.907 40.140 L 428.651 39.066 L 428.370 37.998 L 428.062 36.937 L 427.729 35.884 L 427.369 34.840 L 426.985 33.805 L 426.575 32.779 L 426.139 31.764 L 425.680 30.760 L 425.195 29.767 L 424.686 28.787 L 424.154 27.820 L 423.598 26.865 L 423.018 25.925 L 422.416 24.999 L 421.791 24.089 L 421.144 23.194 L 420.476 22.315 L 419.785 21.452 L 419.074 20.607 L 418.343 19.780 L 417.591 18.971 L 416.820 18.180 L 416.029 17.409 L 415.220 16.657 L 414.393 15.926 L 413.548 15.215 L 412.685 14.524 L 411.806 13.856 L 410.911 13.209 L 410.001 12.584 L 409.075 11.982 L 408.135 11.402 L 407.180 10.846 L 406.213 10.314 L 405.233 9.805 L 404.240 9.320 L 403.236 8.861 L 402.221 8.425 L 401.195 8.015 L 400.160 7.631 L 399.116 7.271 L 398.063 6.938 L 397.002 6.630 L 395.934 6.349 L 394.860 6.093 L 393.779 5.865 L 392.693 5.663 L 391.603 5.487 L 390.508 5.338 L 389.411 5.217 L 388.310 5.122 L 387.208 5.054 L 386.104 5.014 L 385.000 5.000 L 383.896 5.014 L 382.792 5.054 L 381.690 5.122 L 380.589 5.217 L 379.492 5.338 L 378.397 5.487 L 377.307 5.663 L 376.221 5.865 L 375.140 6.093 L 374.066 6.349 L 372.998 6.630 L 371.937 6.938 L 370.884 7.271 L 369.840 7.631 L 368.805 8.015 L 367.779 8.425 L 366.764 8.861 L 365.760 9.320 L 364.767 9.805 L 363.787 10.314 L 362.820 10.846 L 361.865 11.402 L 360.925 11.982 L 359.999 12.584 L 359.089 13.209 L 358.194 13.856 L 357.315 14.524 L 356.452 15.215 L 355.607 15.926 L 354.780 16.657 L 353.971 17.409 L 353.180 18.180 L 352.409 18.971 L 351.657 19.780 L 350.926 20.607 L 350.215 21.452 L 349.524 22.315 L 348.856 23.194 L 348.209 24.089 L 347.584 24.999 L 346.982 25.925 L 346.402 26.865 L 345.846 27.820 L 345.314 28.787 L 344.805 29.767 L 344.320 30.760 L 343.861 31.764 L 343.425 32.779 L 343.015 33.805 L 342.631 34.840 L 342.271 35.884 L 341.938 36.937 L 341.630 37.998 L 341.349 39.066 L 341.093 40.140 L 340.865 41.221 L 340.663 42.307 L 340.487 43.397 L 340.338 44.492 L 340.217 45.589 L 340.122 46.690 L 340.054 47.792 L 340.014 48.896 L 340.000 50.000 L 340.000 400.000 L 85.000 400.000 L 83.896 400.014 L 82.792 400.054 L 81.690 400.122 L 80.589 400.217 L 79.492 400.338 L 78.397 400.487 L 77.307 400.663 L 76.221 400.865 L 75.140 401.093 L 74.066 401.349 L 72.998 401.630 L 71.937 401.938 L 70.884 402.271 L 69.840 402.631 L 68.805 403.015 L 67.779 403.425 L 66.764 403.861 L 65.760 404.320 L 64.767 404.805 L 63.787 405.314 L 62.820 405.846 L 61.865 406.402 L 60.925 406.982 L 59.999 407.584 L 59.089 408.209 L 58.194 408.856 L 57.315 409.524 L 56.452 410.215 L 55.607 410.926 L 54.780 411.657 L 53.971 412.409 L 53.180 413.180 L 52.409 413.971 L 51.657 414.780 L 50.926 415.607 L 50.215 416.452 L 49.524 417.315 L 48.856 418.194 L 48.209 419.089 L 47.584 419.999 L 46.982 420.925 L 46.402 421.865 L 45.846 422.820 L 45.314 423.787 L 44.805 424.767 L 44.320 425.760 L 43.861 426.764 L 43.425 427.779 L 43.015 428.805 L 42.631 429.840 L 42.271 430.884 L 41.938 431.937 L 41.630 432.998 L 41.349 434.066 L 41.093 435.140 L 40.865 436.221 L 40.663 437.307 L 40.487 438.397 L 40.338 439.492 L 40.217 440.589 L 40.122 441.690 L 40.054 442.792 L 40.014 443.896 L 40.000 445.000 L 40.014 446.104 L 40.054 447.208 L 40.122 448.310 L 40.217 449.411 L 40.338 450.508 L 40.487 451.603 L 40.663 452.693 L 40.865 453.779 L 41.093 454.860 L 41.349 455.934 L 41.630 457.002 L 41.938 458.063 L 42.271 459.116 L 42.631 460.160 L 43.015 461.195 L 43.425 462.221 L 43.861 463.236 L 44.320 464.240 L 44.805 465.233 L 45.314 466.213 L 45.846 467.180 L 46.402 468.135 L 46.982 469.075 L 47.584 470.001 L 48.209 470.911 L 48.856 471.806 L 49.524 472.685 L 50.215 473.548 L 50.926 474.393 L 51.657 475.220 L 52.409 476.029 L 53.180 476.820 L 53.971 477.591 L 54.780 478.343 L 55.607 479.074 L 56.452 479.785 L 57.315 480.476 L 58.194 481.144 L 59.089 481.791 L 59.999 482.416 L 60.925 483.018 L 61.865 483.598 L 62.820 484.154 L 63.787 484.686 L 64.767 485.195 L 65.760 485.680 L 66.764 486.139 L 67.779 486.575 L 68.805 486.985 L 69.840 487.369 L 70.884 487.729 L 71.937 488.062 L 72.998 488.370 L 74.066 488.651 L 75.140 488.907 L 76.221 489.135 L 77.307 489.337 L 78.397 489.513 L 79.492 489.662 L 80.589 489.783 L 81.690 489.878 L 82.792 489.946 L 83.896 489.986 L 85.000 490.000 L 340.000 490.000 L 340.000 780.000 L 340.014 781.104 Z" fill="black" fill-rule="evenodd"/>
</svg>
